<svg width="1200" height="900" viewBox="0 0 1200 900" fill="none" xmlns="http://www.w3.org/2000/svg">
<rect width="1200" height="900" fill="white"/>
<rect x="270" y="161.312" width="172.5" height="172.5" fill="#FF003C"/>
<rect x="270" y="401.375" width="172.5" height="172.5" fill="#990024"/>
<rect x="270" y="641.438" width="172.5" height="172.5" fill="#660018"/>
<path d="M281.87 58.1036V52.6364H307.629V58.1036H298.027V84H291.472V58.1036H281.87ZM318.195 84.4594C315.775 84.4594 313.692 83.9694 311.946 82.9893C310.211 81.9989 308.873 80.6002 307.934 78.7931C306.995 76.9759 306.525 74.8267 306.525 72.3458C306.525 69.9262 306.995 67.8026 307.934 65.9751C308.873 64.1476 310.195 62.7234 311.9 61.7024C313.616 60.6815 315.627 60.171 317.934 60.171C319.486 60.171 320.931 60.4211 322.268 60.9214C323.616 61.4114 324.79 62.1516 325.79 63.142C326.801 64.1323 327.587 65.3778 328.149 66.8786C328.71 68.3692 328.991 70.1151 328.991 72.1161V73.9079H309.129V69.8649H322.85C322.85 68.9256 322.646 68.0936 322.238 67.3687C321.829 66.6438 321.263 66.0772 320.538 65.6688C319.823 65.2502 318.991 65.0409 318.041 65.0409C317.051 65.0409 316.173 65.2706 315.407 65.7301C314.652 66.1793 314.06 66.7868 313.631 67.5525C313.202 68.308 312.983 69.1503 312.972 70.0793V73.9232C312.972 75.0871 313.187 76.0927 313.616 76.9401C314.055 77.7875 314.672 78.4409 315.469 78.9003C316.265 79.3598 317.209 79.5895 318.302 79.5895C319.027 79.5895 319.69 79.4874 320.293 79.2832C320.895 79.079 321.411 78.7727 321.839 78.3643C322.268 77.956 322.595 77.4557 322.819 76.8635L328.853 77.2617C328.547 78.7115 327.919 79.9775 326.97 81.0597C326.03 82.1317 324.815 82.9688 323.325 83.5712C321.844 84.1634 320.134 84.4594 318.195 84.4594ZM339.094 84.4441C337.593 84.4441 336.255 84.1838 335.081 83.6631C333.907 83.1322 332.978 82.3512 332.294 81.32C331.62 80.2786 331.283 78.982 331.283 77.4302C331.283 76.1234 331.523 75.0258 332.003 74.1376C332.483 73.2494 333.136 72.5347 333.963 71.9936C334.79 71.4525 335.73 71.0441 336.781 70.7685C337.843 70.4928 338.956 70.2988 340.12 70.1865C341.488 70.0436 342.59 69.9109 343.428 69.7884C344.265 69.6556 344.872 69.4616 345.25 69.2064C345.628 68.9512 345.817 68.5734 345.817 68.0732V67.9813C345.817 67.0114 345.51 66.261 344.898 65.7301C344.295 65.1992 343.438 64.9337 342.325 64.9337C341.151 64.9337 340.217 65.1941 339.522 65.7148C338.828 66.2252 338.369 66.8684 338.144 67.6444L332.11 67.1543C332.417 65.725 333.019 64.4896 333.917 63.4482C334.816 62.3967 335.975 61.5901 337.394 61.0286C338.823 60.4569 340.477 60.171 342.356 60.171C343.662 60.171 344.913 60.3241 346.108 60.6304C347.312 60.9367 348.379 61.4114 349.308 62.0546C350.248 62.6978 350.988 63.5248 351.529 64.5356C352.07 65.5361 352.34 66.7357 352.34 68.1344V84H346.154V80.7381H345.97C345.592 81.4731 345.087 82.1214 344.454 82.683C343.821 83.2343 343.06 83.6682 342.172 83.9847C341.284 84.291 340.258 84.4441 339.094 84.4441ZM340.962 79.9417C341.922 79.9417 342.769 79.7528 343.504 79.3751C344.239 78.9871 344.816 78.4664 345.235 77.813C345.653 77.1596 345.863 76.4194 345.863 75.5925V73.0962C345.658 73.229 345.378 73.3515 345.02 73.4638C344.673 73.5659 344.28 73.6629 343.841 73.7547C343.402 73.8364 342.963 73.913 342.524 73.9845C342.085 74.0457 341.687 74.1019 341.33 74.1529C340.564 74.2652 339.895 74.4439 339.323 74.6889C338.752 74.9339 338.308 75.2658 337.991 75.6843C337.675 76.0927 337.516 76.6032 337.516 77.2158C337.516 78.104 337.838 78.7829 338.481 79.2526C339.134 79.712 339.961 79.9417 340.962 79.9417ZM356.539 84V60.4773H362.757V64.6274H363.033C363.523 63.2492 364.339 62.1618 365.483 61.3655C366.626 60.5692 367.994 60.171 369.587 60.171C371.2 60.171 372.573 60.5743 373.707 61.3808C374.84 62.1772 375.595 63.2594 375.973 64.6274H376.218C376.698 63.2798 377.566 62.2027 378.822 61.3961C380.088 60.5794 381.583 60.171 383.309 60.171C385.504 60.171 387.285 60.8703 388.653 62.269C390.032 63.6575 390.721 65.628 390.721 68.1804V84H384.212V69.4668C384.212 68.1599 383.865 67.1798 383.171 66.5264C382.477 65.873 381.609 65.5463 380.567 65.5463C379.383 65.5463 378.459 65.924 377.796 66.6796C377.132 67.4248 376.8 68.4101 376.8 69.6352V84H370.475V69.3289C370.475 68.1752 370.144 67.2564 369.48 66.5724C368.827 65.8883 367.964 65.5463 366.892 65.5463C366.167 65.5463 365.514 65.7301 364.932 66.0976C364.36 66.4549 363.906 66.9603 363.569 67.6137C363.232 68.2569 363.063 69.0124 363.063 69.8802V84H356.539ZM409.659 84H402.553L413.38 52.6364H421.925L432.737 84H425.631L417.775 59.8034H417.53L409.659 84ZM409.214 71.672H425.999V76.8482H409.214V71.672Z" fill="black"/>
<path d="M126.72 264.383C124.934 264.383 123.315 263.923 121.866 263.005C120.426 262.076 119.283 260.713 118.435 258.916C117.598 257.109 117.179 254.893 117.179 252.269C117.179 249.574 117.613 247.333 118.481 245.546C119.349 243.749 120.503 242.407 121.942 241.519C123.392 240.62 124.98 240.171 126.705 240.171C128.022 240.171 129.119 240.396 129.997 240.845C130.886 241.284 131.6 241.835 132.141 242.499C132.693 243.152 133.111 243.795 133.397 244.428H133.596V232.636H140.105V264H133.673V260.233H133.397C133.091 260.886 132.657 261.534 132.096 262.178C131.544 262.811 130.824 263.336 129.936 263.755C129.058 264.174 127.986 264.383 126.72 264.383ZM128.788 259.191C129.839 259.191 130.727 258.905 131.452 258.334C132.187 257.752 132.749 256.94 133.137 255.899C133.535 254.857 133.734 253.637 133.734 252.239C133.734 250.84 133.54 249.625 133.152 248.594C132.764 247.563 132.203 246.766 131.468 246.205C130.733 245.643 129.839 245.363 128.788 245.363C127.716 245.363 126.812 245.653 126.077 246.235C125.342 246.817 124.786 247.624 124.408 248.655C124.03 249.686 123.841 250.881 123.841 252.239C123.841 253.607 124.03 254.817 124.408 255.868C124.796 256.909 125.352 257.726 126.077 258.318C126.812 258.9 127.716 259.191 128.788 259.191ZM155.326 264.459C152.907 264.459 150.824 263.969 149.078 262.989C147.342 261.999 146.005 260.6 145.066 258.793C144.126 256.976 143.657 254.827 143.657 252.346C143.657 249.926 144.126 247.803 145.066 245.975C146.005 244.148 147.327 242.723 149.032 241.702C150.747 240.681 152.759 240.171 155.066 240.171C156.618 240.171 158.062 240.421 159.4 240.921C160.747 241.411 161.922 242.152 162.922 243.142C163.933 244.132 164.719 245.378 165.281 246.879C165.842 248.369 166.123 250.115 166.123 252.116V253.908H146.26V249.865H159.982C159.982 248.926 159.778 248.094 159.369 247.369C158.961 246.644 158.394 246.077 157.669 245.669C156.955 245.25 156.123 245.041 155.173 245.041C154.183 245.041 153.305 245.271 152.539 245.73C151.784 246.179 151.191 246.787 150.763 247.552C150.334 248.308 150.114 249.15 150.104 250.079V253.923C150.104 255.087 150.318 256.093 150.747 256.94C151.186 257.788 151.804 258.441 152.6 258.9C153.397 259.36 154.341 259.589 155.433 259.589C156.158 259.589 156.822 259.487 157.424 259.283C158.027 259.079 158.542 258.773 158.971 258.364C159.4 257.956 159.727 257.456 159.951 256.864L165.985 257.262C165.679 258.711 165.051 259.977 164.101 261.06C163.162 262.132 161.947 262.969 160.457 263.571C158.976 264.163 157.266 264.459 155.326 264.459ZM190.816 240.477L182.592 264H175.241L167.018 240.477H173.909L178.794 257.308H179.039L183.909 240.477H190.816Z" fill="black"/>
<path d="M128.279 480.477V485.378H114.113V480.477H128.279ZM117.329 474.842H123.853V496.772C123.853 497.374 123.945 497.844 124.129 498.181C124.313 498.507 124.568 498.737 124.895 498.87C125.231 499.002 125.619 499.069 126.058 499.069C126.365 499.069 126.671 499.043 126.977 498.992C127.284 498.931 127.518 498.885 127.682 498.854L128.708 503.709C128.381 503.811 127.922 503.929 127.33 504.061C126.737 504.204 126.018 504.291 125.17 504.322C123.598 504.383 122.22 504.174 121.035 503.694C119.861 503.214 118.947 502.469 118.294 501.458C117.641 500.447 117.319 499.171 117.329 497.629V474.842ZM142.134 504.459C139.714 504.459 137.631 503.969 135.885 502.989C134.15 501.999 132.812 500.6 131.873 498.793C130.934 496.976 130.464 494.827 130.464 492.346C130.464 489.926 130.934 487.803 131.873 485.975C132.812 484.148 134.134 482.723 135.839 481.702C137.555 480.681 139.566 480.171 141.873 480.171C143.425 480.171 144.87 480.421 146.207 480.921C147.555 481.411 148.729 482.152 149.729 483.142C150.74 484.132 151.526 485.378 152.088 486.879C152.649 488.369 152.93 490.115 152.93 492.116V493.908H133.067V489.865H146.789C146.789 488.926 146.585 488.094 146.176 487.369C145.768 486.644 145.201 486.077 144.477 485.669C143.762 485.25 142.93 485.041 141.98 485.041C140.99 485.041 140.112 485.271 139.346 485.73C138.591 486.179 137.999 486.787 137.57 487.552C137.141 488.308 136.922 489.15 136.911 490.079V493.923C136.911 495.087 137.126 496.093 137.555 496.94C137.994 497.788 138.611 498.441 139.408 498.9C140.204 499.36 141.148 499.589 142.241 499.589C142.966 499.589 143.629 499.487 144.232 499.283C144.834 499.079 145.35 498.773 145.778 498.364C146.207 497.956 146.534 497.456 146.758 496.864L152.792 497.262C152.486 498.711 151.858 499.977 150.909 501.06C149.969 502.132 148.754 502.969 147.264 503.571C145.783 504.163 144.073 504.459 142.134 504.459ZM175.897 487.185L169.924 487.552C169.822 487.042 169.602 486.583 169.266 486.174C168.929 485.756 168.484 485.424 167.933 485.179C167.392 484.924 166.744 484.796 165.988 484.796C164.978 484.796 164.125 485.01 163.431 485.439C162.737 485.858 162.389 486.419 162.389 487.124C162.389 487.685 162.614 488.16 163.063 488.548C163.512 488.936 164.283 489.247 165.376 489.482L169.633 490.34C171.92 490.809 173.625 491.565 174.748 492.606C175.871 493.648 176.433 495.016 176.433 496.71C176.433 498.252 175.978 499.605 175.07 500.769C174.171 501.933 172.936 502.841 171.364 503.495C169.802 504.138 168 504.459 165.958 504.459C162.844 504.459 160.363 503.811 158.515 502.515C156.677 501.208 155.6 499.431 155.284 497.185L161.7 496.848C161.894 497.798 162.364 498.523 163.109 499.023C163.854 499.513 164.809 499.758 165.973 499.758C167.116 499.758 168.035 499.538 168.73 499.099C169.434 498.65 169.791 498.073 169.802 497.369C169.791 496.777 169.541 496.292 169.051 495.914C168.561 495.526 167.806 495.23 166.785 495.026L162.711 494.214C160.414 493.755 158.704 492.958 157.581 491.825C156.468 490.692 155.911 489.247 155.911 487.491C155.911 485.98 156.32 484.678 157.137 483.586C157.964 482.494 159.122 481.651 160.613 481.059C162.114 480.467 163.87 480.171 165.881 480.171C168.852 480.171 171.19 480.799 172.895 482.055C174.61 483.31 175.611 485.021 175.897 487.185ZM192.19 480.477V485.378H178.024V480.477H192.19ZM181.24 474.842H187.764V496.772C187.764 497.374 187.856 497.844 188.04 498.181C188.224 498.507 188.479 498.737 188.805 498.87C189.142 499.002 189.53 499.069 189.969 499.069C190.276 499.069 190.582 499.043 190.888 498.992C191.194 498.931 191.429 498.885 191.593 498.854L192.619 503.709C192.292 503.811 191.833 503.929 191.24 504.061C190.648 504.204 189.929 504.291 189.081 504.322C187.509 504.383 186.131 504.174 184.946 503.694C183.772 503.214 182.858 502.469 182.205 501.458C181.552 500.447 181.23 499.171 181.24 497.629V474.842Z" fill="black"/>
<path d="M108.045 752.821V720.477H114.477V724.428H114.768C115.053 723.795 115.467 723.152 116.008 722.499C116.559 721.835 117.274 721.284 118.152 720.845C119.04 720.396 120.143 720.171 121.46 720.171C123.175 720.171 124.758 720.62 126.207 721.519C127.657 722.407 128.816 723.749 129.684 725.546C130.552 727.333 130.985 729.574 130.985 732.269C130.985 734.893 130.562 737.109 129.714 738.916C128.877 740.713 127.734 742.076 126.284 743.005C124.844 743.923 123.231 744.383 121.445 744.383C120.179 744.383 119.102 744.174 118.213 743.755C117.335 743.336 116.616 742.811 116.054 742.178C115.492 741.534 115.064 740.886 114.768 740.233H114.569V752.821H108.045ZM114.431 732.239C114.431 733.637 114.625 734.857 115.013 735.899C115.401 736.94 115.962 737.752 116.697 738.334C117.432 738.905 118.326 739.191 119.377 739.191C120.439 739.191 121.337 738.9 122.073 738.318C122.808 737.726 123.364 736.909 123.742 735.868C124.13 734.817 124.324 733.607 124.324 732.239C124.324 730.881 124.135 729.686 123.757 728.655C123.379 727.624 122.823 726.817 122.088 726.235C121.353 725.653 120.449 725.363 119.377 725.363C118.315 725.363 117.417 725.643 116.682 726.205C115.957 726.766 115.401 727.563 115.013 728.594C114.625 729.625 114.431 730.84 114.431 732.239ZM134.472 744V720.477H140.797V724.581H141.042C141.471 723.122 142.191 722.019 143.201 721.274C144.212 720.518 145.376 720.14 146.693 720.14C147.02 720.14 147.372 720.161 147.75 720.202C148.127 720.242 148.459 720.299 148.745 720.37V726.159C148.439 726.067 148.015 725.985 147.474 725.914C146.933 725.842 146.438 725.807 145.989 725.807C145.029 725.807 144.171 726.016 143.416 726.435C142.67 726.843 142.078 727.415 141.639 728.15C141.21 728.885 140.996 729.732 140.996 730.692V744H134.472ZM160.789 744.459C158.41 744.459 156.353 743.954 154.617 742.943C152.892 741.922 151.559 740.503 150.62 738.686C149.681 736.858 149.211 734.74 149.211 732.331C149.211 729.901 149.681 727.777 150.62 725.96C151.559 724.132 152.892 722.713 154.617 721.702C156.353 720.681 158.41 720.171 160.789 720.171C163.168 720.171 165.22 720.681 166.945 721.702C168.681 722.713 170.018 724.132 170.957 725.96C171.897 727.777 172.366 729.901 172.366 732.331C172.366 734.74 171.897 736.858 170.957 738.686C170.018 740.503 168.681 741.922 166.945 742.943C165.22 743.954 163.168 744.459 160.789 744.459ZM160.819 739.406C161.902 739.406 162.805 739.099 163.53 738.487C164.255 737.864 164.801 737.017 165.169 735.945C165.546 734.873 165.735 733.653 165.735 732.285C165.735 730.917 165.546 729.696 165.169 728.624C164.801 727.552 164.255 726.705 163.53 726.082C162.805 725.46 161.902 725.148 160.819 725.148C159.727 725.148 158.808 725.46 158.063 726.082C157.328 726.705 156.771 727.552 156.393 728.624C156.026 729.696 155.842 730.917 155.842 732.285C155.842 733.653 156.026 734.873 156.393 735.945C156.771 737.017 157.328 737.864 158.063 738.487C158.808 739.099 159.727 739.406 160.819 739.406ZM184.414 744.383C182.627 744.383 181.009 743.923 179.559 743.005C178.12 742.076 176.976 740.713 176.129 738.916C175.292 737.109 174.873 734.893 174.873 732.269C174.873 729.574 175.307 727.333 176.175 725.546C177.042 723.749 178.196 722.407 179.636 721.519C181.085 720.62 182.673 720.171 184.398 720.171C185.715 720.171 186.813 720.396 187.691 720.845C188.579 721.284 189.294 721.835 189.835 722.499C190.386 723.152 190.805 723.795 191.091 724.428H191.29V712.636H197.798V744H191.366V740.233H191.091C190.784 740.886 190.351 741.534 189.789 742.178C189.238 742.811 188.518 743.336 187.63 743.755C186.752 744.174 185.68 744.383 184.414 744.383ZM186.481 739.191C187.533 739.191 188.421 738.905 189.146 738.334C189.881 737.752 190.442 736.94 190.83 735.899C191.229 734.857 191.428 733.637 191.428 732.239C191.428 730.84 191.234 729.625 190.846 728.594C190.458 727.563 189.896 726.766 189.161 726.205C188.426 725.643 187.533 725.363 186.481 725.363C185.409 725.363 184.506 725.653 183.771 726.235C183.035 726.817 182.479 727.624 182.101 728.655C181.724 729.686 181.535 730.881 181.535 732.239C181.535 733.607 181.724 734.817 182.101 735.868C182.489 736.909 183.046 737.726 183.771 738.318C184.506 738.9 185.409 739.191 186.481 739.191Z" fill="black"/>
<rect x="551.75" y="161.312" width="172.5" height="172.5" fill="#FABE28"/>
<rect x="551.75" y="401.375" width="172.5" height="172.5" fill="#EAA905"/>
<rect x="551.75" y="641.438" width="172.5" height="172.5" fill="#B88504"/>
<path d="M564.932 58.1036V52.6364H590.69V58.1036H581.088V84H574.534V58.1036H564.932ZM601.256 84.4594C598.836 84.4594 596.754 83.9694 595.008 82.9893C593.272 81.9989 591.935 80.6002 590.996 78.7931C590.056 76.9759 589.587 74.8267 589.587 72.3458C589.587 69.9262 590.056 67.8026 590.996 65.9751C591.935 64.1476 593.257 62.7234 594.962 61.7024C596.677 60.6815 598.688 60.171 600.996 60.171C602.548 60.171 603.992 60.4211 605.33 60.9214C606.677 61.4114 607.851 62.1516 608.852 63.142C609.863 64.1323 610.649 65.3778 611.21 66.8786C611.772 68.3692 612.053 70.1151 612.053 72.1161V73.9079H592.19V69.8649H605.912C605.912 68.9256 605.707 68.0936 605.299 67.3687C604.891 66.6438 604.324 66.0772 603.599 65.6688C602.885 65.2502 602.052 65.0409 601.103 65.0409C600.113 65.0409 599.235 65.2706 598.469 65.7301C597.713 66.1793 597.121 66.7868 596.692 67.5525C596.264 68.308 596.044 69.1503 596.034 70.0793V73.9232C596.034 75.0871 596.248 76.0927 596.677 76.9401C597.116 77.7875 597.734 78.4409 598.53 78.9003C599.327 79.3598 600.271 79.5895 601.363 79.5895C602.088 79.5895 602.752 79.4874 603.354 79.2832C603.957 79.079 604.472 78.7727 604.901 78.3643C605.33 77.956 605.656 77.4557 605.881 76.8635L611.915 77.2617C611.609 78.7115 610.981 79.9775 610.031 81.0597C609.092 82.1317 607.877 82.9688 606.386 83.5712C604.906 84.1634 603.196 84.4594 601.256 84.4594ZM622.155 84.4441C620.654 84.4441 619.317 84.1838 618.143 83.6631C616.969 83.1322 616.04 82.3512 615.356 81.32C614.682 80.2786 614.345 78.982 614.345 77.4302C614.345 76.1234 614.585 75.0258 615.065 74.1376C615.545 73.2494 616.198 72.5347 617.025 71.9936C617.852 71.4525 618.791 71.0441 619.843 70.7685C620.905 70.4928 622.017 70.2988 623.181 70.1865C624.549 70.0436 625.652 69.9109 626.489 69.7884C627.326 69.6556 627.934 69.4616 628.312 69.2064C628.689 68.9512 628.878 68.5734 628.878 68.0732V67.9813C628.878 67.0114 628.572 66.261 627.959 65.7301C627.357 65.1992 626.499 64.9337 625.387 64.9337C624.212 64.9337 623.278 65.1941 622.584 65.7148C621.89 66.2252 621.43 66.8684 621.206 67.6444L615.172 67.1543C615.478 65.725 616.081 64.4896 616.979 63.4482C617.877 62.3967 619.036 61.5901 620.455 61.0286C621.885 60.4569 623.539 60.171 625.417 60.171C626.724 60.171 627.975 60.3241 629.169 60.6304C630.374 60.9367 631.441 61.4114 632.37 62.0546C633.309 62.6978 634.049 63.5248 634.59 64.5356C635.132 65.5361 635.402 66.7357 635.402 68.1344V84H629.215V80.7381H629.031C628.654 81.4731 628.148 82.1214 627.515 82.683C626.882 83.2343 626.122 83.6682 625.233 83.9847C624.345 84.291 623.319 84.4441 622.155 84.4441ZM624.024 79.9417C624.983 79.9417 625.831 79.7528 626.566 79.3751C627.301 78.9871 627.878 78.4664 628.296 77.813C628.715 77.1596 628.924 76.4194 628.924 75.5925V73.0962C628.72 73.229 628.439 73.3515 628.082 73.4638C627.735 73.5659 627.342 73.6629 626.903 73.7547C626.464 73.8364 626.025 73.913 625.586 73.9845C625.147 74.0457 624.748 74.1019 624.391 74.1529C623.625 74.2652 622.957 74.4439 622.385 74.6889C621.813 74.9339 621.369 75.2658 621.053 75.6843C620.736 76.0927 620.578 76.6032 620.578 77.2158C620.578 78.104 620.899 78.7829 621.543 79.2526C622.196 79.712 623.023 79.9417 624.024 79.9417ZM639.601 84V60.4773H645.819V64.6274H646.094C646.584 63.2492 647.401 62.1618 648.544 61.3655C649.688 60.5692 651.056 60.171 652.649 60.171C654.262 60.171 655.635 60.5743 656.768 61.3808C657.902 62.1772 658.657 63.2594 659.035 64.6274H659.28C659.76 63.2798 660.627 62.2027 661.883 61.3961C663.149 60.5794 664.645 60.171 666.37 60.171C668.565 60.171 670.347 60.8703 671.715 62.269C673.093 63.6575 673.782 65.628 673.782 68.1804V84H667.274V69.4668C667.274 68.1599 666.927 67.1798 666.232 66.5264C665.538 65.873 664.67 65.5463 663.629 65.5463C662.445 65.5463 661.521 65.924 660.857 66.6796C660.194 67.4248 659.862 68.4101 659.862 69.6352V84H653.537V69.3289C653.537 68.1752 653.205 67.2564 652.542 66.5724C651.888 65.8883 651.025 65.5463 649.953 65.5463C649.229 65.5463 648.575 65.7301 647.993 66.0976C647.421 66.4549 646.967 66.9603 646.63 67.6137C646.293 68.2569 646.125 69.0124 646.125 69.8802V84H639.601ZM687.314 84V52.6364H699.872C702.179 52.6364 704.104 52.9784 705.645 53.6624C707.187 54.3465 708.346 55.2959 709.122 56.5109C709.898 57.7156 710.286 59.1041 710.286 60.6764C710.286 61.9015 710.041 62.9786 709.551 63.9077C709.061 64.8265 708.387 65.582 707.529 66.1742C706.682 66.7561 705.712 67.1696 704.619 67.4146V67.7209C705.814 67.772 706.932 68.1089 707.973 68.7317C709.025 69.3544 709.877 70.2274 710.531 71.3504C711.184 72.4632 711.511 73.7905 711.511 75.3321C711.511 76.9963 711.097 78.4818 710.27 79.7886C709.454 81.0852 708.244 82.1112 706.641 82.8667C705.038 83.6222 703.062 84 700.714 84H687.314ZM693.945 78.5787H699.351C701.199 78.5787 702.547 78.2265 703.394 77.5221C704.242 76.8074 704.665 75.8579 704.665 74.6736C704.665 73.8058 704.456 73.0401 704.037 72.3765C703.619 71.7128 703.022 71.1922 702.246 70.8144C701.48 70.4367 700.566 70.2478 699.504 70.2478H693.945V78.5787ZM693.945 65.7607H698.861C699.77 65.7607 700.576 65.6025 701.281 65.286C701.996 64.9593 702.557 64.4998 702.965 63.9077C703.384 63.3155 703.593 62.606 703.593 61.779C703.593 60.6457 703.19 59.732 702.384 59.0377C701.587 58.3435 700.454 57.9964 698.984 57.9964H693.945V65.7607Z" fill="black"/>
<rect x="833.5" y="161.312" width="172.5" height="172.5" fill="#00C176"/>
<rect x="833.5" y="401.375" width="172.5" height="172.5" fill="#008F57"/>
<rect x="833.5" y="641.438" width="172.5" height="172.5" fill="#005C38"/>
<path d="M844.723 58.1036V52.6364H870.482V58.1036H860.88V84H854.325V58.1036H844.723ZM881.048 84.4594C878.628 84.4594 876.545 83.9694 874.8 82.9893C873.064 81.9989 871.727 80.6002 870.787 78.7931C869.848 76.9759 869.378 74.8267 869.378 72.3458C869.378 69.9262 869.848 67.8026 870.787 65.9751C871.727 64.1476 873.049 62.7234 874.754 61.7024C876.469 60.6815 878.48 60.171 880.787 60.171C882.339 60.171 883.784 60.4211 885.121 60.9214C886.469 61.4114 887.643 62.1516 888.644 63.142C889.654 64.1323 890.441 65.3778 891.002 66.8786C891.564 68.3692 891.844 70.1151 891.844 72.1161V73.9079H871.982V69.8649H885.703C885.703 68.9256 885.499 68.0936 885.091 67.3687C884.682 66.6438 884.116 66.0772 883.391 65.6688C882.676 65.2502 881.844 65.0409 880.895 65.0409C879.904 65.0409 879.026 65.2706 878.261 65.7301C877.505 66.1793 876.913 66.7868 876.484 67.5525C876.055 68.308 875.836 69.1503 875.826 70.0793V73.9232C875.826 75.0871 876.04 76.0927 876.469 76.9401C876.908 77.7875 877.526 78.4409 878.322 78.9003C879.118 79.3598 880.063 79.5895 881.155 79.5895C881.88 79.5895 882.544 79.4874 883.146 79.2832C883.748 79.079 884.264 78.7727 884.693 78.3643C885.121 77.956 885.448 77.4557 885.673 76.8635L891.707 77.2617C891.4 78.7115 890.772 79.9775 889.823 81.0597C888.884 82.1317 887.669 82.9688 886.178 83.5712C884.698 84.1634 882.988 84.4594 881.048 84.4594ZM901.947 84.4441C900.446 84.4441 899.109 84.1838 897.935 83.6631C896.76 83.1322 895.831 82.3512 895.147 81.32C894.474 80.2786 894.137 78.982 894.137 77.4302C894.137 76.1234 894.377 75.0258 894.856 74.1376C895.336 73.2494 895.99 72.5347 896.817 71.9936C897.644 71.4525 898.583 71.0441 899.634 70.7685C900.696 70.4928 901.809 70.2988 902.973 70.1865C904.341 70.0436 905.444 69.9109 906.281 69.7884C907.118 69.6556 907.726 69.4616 908.103 69.2064C908.481 68.9512 908.67 68.5734 908.67 68.0732V67.9813C908.67 67.0114 908.364 66.261 907.751 65.7301C907.149 65.1992 906.291 64.9337 905.178 64.9337C904.004 64.9337 903.07 65.1941 902.376 65.7148C901.681 66.2252 901.222 66.8684 900.997 67.6444L894.964 67.1543C895.27 65.725 895.872 64.4896 896.771 63.4482C897.669 62.3967 898.828 61.5901 900.247 61.0286C901.676 60.4569 903.33 60.171 905.209 60.171C906.516 60.171 907.766 60.3241 908.961 60.6304C910.166 60.9367 911.232 61.4114 912.162 62.0546C913.101 62.6978 913.841 63.5248 914.382 64.5356C914.923 65.5361 915.194 66.7357 915.194 68.1344V84H909.007V80.7381H908.823C908.445 81.4731 907.94 82.1214 907.307 82.683C906.674 83.2343 905.913 83.6682 905.025 83.9847C904.137 84.291 903.111 84.4441 901.947 84.4441ZM903.815 79.9417C904.775 79.9417 905.622 79.7528 906.357 79.3751C907.093 78.9871 907.669 78.4664 908.088 77.813C908.507 77.1596 908.716 76.4194 908.716 75.5925V73.0962C908.512 73.229 908.231 73.3515 907.874 73.4638C907.526 73.5659 907.133 73.6629 906.694 73.7547C906.255 73.8364 905.816 73.913 905.377 73.9845C904.938 74.0457 904.54 74.1019 904.183 74.1529C903.417 74.2652 902.748 74.4439 902.177 74.6889C901.605 74.9339 901.161 75.2658 900.844 75.6843C900.528 76.0927 900.37 76.6032 900.37 77.2158C900.37 78.104 900.691 78.7829 901.334 79.2526C901.988 79.712 902.815 79.9417 903.815 79.9417ZM919.393 84V60.4773H925.61V64.6274H925.886C926.376 63.2492 927.193 62.1618 928.336 61.3655C929.48 60.5692 930.848 60.171 932.44 60.171C934.054 60.171 935.427 60.5743 936.56 61.3808C937.693 62.1772 938.449 63.2594 938.826 64.6274H939.071C939.551 63.2798 940.419 62.2027 941.675 61.3961C942.941 60.5794 944.437 60.171 946.162 60.171C948.357 60.171 950.139 60.8703 951.507 62.269C952.885 63.6575 953.574 65.628 953.574 68.1804V84H947.066V69.4668C947.066 68.1599 946.718 67.1798 946.024 66.5264C945.33 65.873 944.462 65.5463 943.421 65.5463C942.236 65.5463 941.312 65.924 940.649 66.6796C939.985 67.4248 939.653 68.4101 939.653 69.6352V84H933.329V69.3289C933.329 68.1752 932.997 67.2564 932.333 66.5724C931.68 65.8883 930.817 65.5463 929.745 65.5463C929.02 65.5463 928.367 65.7301 927.785 66.0976C927.213 66.4549 926.759 66.9603 926.422 67.6137C926.085 68.2569 925.917 69.0124 925.917 69.8802V84H919.393ZM994.779 63.6167H988.071C987.949 62.7489 987.699 61.9781 987.321 61.3042C986.943 60.6202 986.458 60.0383 985.866 59.5584C985.274 59.0786 984.59 58.711 983.814 58.4558C983.048 58.2006 982.216 58.0729 981.318 58.0729C979.694 58.0729 978.28 58.4762 977.076 59.2828C975.871 60.0791 974.937 61.243 974.273 62.7744C973.609 64.2956 973.278 66.1436 973.278 68.3182C973.278 70.5541 973.609 72.4326 974.273 73.9538C974.947 75.4751 975.886 76.6236 977.091 77.3995C978.296 78.1755 979.689 78.5634 981.272 78.5634C982.16 78.5634 982.982 78.446 983.737 78.2112C984.503 77.9764 985.182 77.6344 985.774 77.1851C986.366 76.7257 986.856 76.1693 987.244 75.5159C987.642 74.8625 987.918 74.1172 988.071 73.28L994.779 73.3106C994.605 74.7502 994.171 76.1387 993.477 77.4761C992.793 78.8034 991.869 79.9928 990.705 81.0443C989.552 82.0857 988.173 82.9127 986.57 83.5253C984.978 84.1276 983.176 84.4288 981.164 84.4288C978.367 84.4288 975.866 83.7958 973.66 82.5298C971.465 81.2638 969.73 79.4312 968.454 77.032C967.188 74.6328 966.555 71.7282 966.555 68.3182C966.555 64.898 967.198 61.9883 968.484 59.589C969.771 57.1898 971.516 55.3623 973.722 54.1065C975.927 52.8406 978.408 52.2076 981.164 52.2076C982.982 52.2076 984.666 52.4628 986.218 52.9733C987.78 53.4838 989.164 54.229 990.368 55.2092C991.573 56.1791 992.553 57.3685 993.309 58.7774C994.074 60.1863 994.564 61.7994 994.779 63.6167Z" fill="black"/>
</svg>
