<svg width="1200" height="900" viewBox="0 0 1200 900" fill="none" xmlns="http://www.w3.org/2000/svg">
<rect width="1200" height="900" fill="white"/>
<rect x="280" y="205" width="53.8949" height="53.8949" fill="#FF003C"/>
<rect x="280" y="280" width="53.8949" height="53.8949" fill="#990024"/>
<rect x="280" y="355" width="53.8949" height="53.8949" fill="#660018"/>
<rect x="1072" y="205" width="53.8949" height="53.8949" fill="#FF003C"/>
<rect x="1072" y="280" width="53.8949" height="53.8949" fill="#990024"/>
<rect x="1072" y="355" width="53.8949" height="53.8949" fill="#660018"/>
<path d="M115.72 247.383C113.934 247.383 112.315 246.923 110.866 246.005C109.426 245.076 108.283 243.713 107.435 241.916C106.598 240.109 106.179 237.893 106.179 235.269C106.179 232.574 106.613 230.333 107.481 228.546C108.349 226.749 109.503 225.407 110.942 224.519C112.392 223.62 113.98 223.171 115.705 223.171C117.022 223.171 118.119 223.396 118.997 223.845C119.886 224.284 120.6 224.835 121.141 225.499C121.693 226.152 122.111 226.795 122.397 227.428H122.596V215.636H129.105V247H122.673V243.233H122.397C122.091 243.886 121.657 244.534 121.096 245.178C120.544 245.811 119.824 246.336 118.936 246.755C118.058 247.174 116.986 247.383 115.72 247.383ZM117.788 242.191C118.839 242.191 119.727 241.905 120.452 241.334C121.187 240.752 121.749 239.94 122.137 238.899C122.535 237.857 122.734 236.637 122.734 235.239C122.734 233.84 122.54 232.625 122.152 231.594C121.764 230.563 121.203 229.766 120.468 229.205C119.733 228.643 118.839 228.363 117.788 228.363C116.716 228.363 115.812 228.653 115.077 229.235C114.342 229.817 113.786 230.624 113.408 231.655C113.03 232.686 112.841 233.881 112.841 235.239C112.841 236.607 113.03 237.817 113.408 238.868C113.796 239.909 114.352 240.726 115.077 241.318C115.812 241.9 116.716 242.191 117.788 242.191ZM144.326 247.459C141.907 247.459 139.824 246.969 138.078 245.989C136.342 244.999 135.005 243.6 134.066 241.793C133.126 239.976 132.657 237.827 132.657 235.346C132.657 232.926 133.126 230.803 134.066 228.975C135.005 227.148 136.327 225.723 138.032 224.702C139.747 223.681 141.759 223.171 144.066 223.171C145.618 223.171 147.062 223.421 148.4 223.921C149.747 224.411 150.922 225.152 151.922 226.142C152.933 227.132 153.719 228.378 154.281 229.879C154.842 231.369 155.123 233.115 155.123 235.116V236.908H135.26V232.865H148.982C148.982 231.926 148.778 231.094 148.369 230.369C147.961 229.644 147.394 229.077 146.669 228.669C145.955 228.25 145.123 228.041 144.173 228.041C143.183 228.041 142.305 228.271 141.539 228.73C140.784 229.179 140.191 229.787 139.763 230.552C139.334 231.308 139.114 232.15 139.104 233.079V236.923C139.104 238.087 139.318 239.093 139.747 239.94C140.186 240.788 140.804 241.441 141.6 241.9C142.397 242.36 143.341 242.589 144.433 242.589C145.158 242.589 145.822 242.487 146.424 242.283C147.027 242.079 147.542 241.773 147.971 241.364C148.4 240.956 148.727 240.456 148.951 239.864L154.985 240.262C154.679 241.711 154.051 242.977 153.101 244.06C152.162 245.132 150.947 245.969 149.457 246.571C147.976 247.163 146.266 247.459 144.326 247.459ZM179.816 223.477L171.592 247H164.241L156.018 223.477H162.909L167.794 240.308H168.039L172.909 223.477H179.816Z" fill="black"/>
<rect x="368" y="205" width="53.8949" height="53.8949" fill="#FABE28"/>
<rect x="368" y="280" width="53.8949" height="53.8949" fill="#EAA905"/>
<rect x="368" y="355" width="53.8949" height="53.8949" fill="#B88504"/>
<path d="M103.279 298.477V303.378H89.1133V298.477H103.279ZM92.3293 292.842H98.8532V314.772C98.8532 315.374 98.9451 315.844 99.1288 316.181C99.3126 316.507 99.5678 316.737 99.8945 316.87C100.231 317.002 100.619 317.069 101.058 317.069C101.365 317.069 101.671 317.043 101.977 316.992C102.284 316.931 102.518 316.885 102.682 316.854L103.708 321.709C103.381 321.811 102.922 321.929 102.33 322.061C101.737 322.204 101.018 322.291 100.17 322.322C98.5979 322.383 97.2196 322.174 96.0353 321.694C94.8613 321.214 93.9475 320.469 93.2941 319.458C92.6407 318.447 92.3191 317.171 92.3293 315.629V292.842ZM117.134 322.459C114.714 322.459 112.631 321.969 110.885 320.989C109.15 319.999 107.812 318.6 106.873 316.793C105.934 314.976 105.464 312.827 105.464 310.346C105.464 307.926 105.934 305.803 106.873 303.975C107.812 302.148 109.134 300.723 110.839 299.702C112.555 298.681 114.566 298.171 116.873 298.171C118.425 298.171 119.87 298.421 121.207 298.921C122.555 299.411 123.729 300.152 124.729 301.142C125.74 302.132 126.526 303.378 127.088 304.879C127.649 306.369 127.93 308.115 127.93 310.116V311.908H108.067V307.865H121.789C121.789 306.926 121.585 306.094 121.176 305.369C120.768 304.644 120.201 304.077 119.477 303.669C118.762 303.25 117.93 303.041 116.98 303.041C115.99 303.041 115.112 303.271 114.346 303.73C113.591 304.179 112.999 304.787 112.57 305.552C112.141 306.308 111.922 307.15 111.911 308.079V311.923C111.911 313.087 112.126 314.093 112.555 314.94C112.994 315.788 113.611 316.441 114.408 316.9C115.204 317.36 116.148 317.589 117.241 317.589C117.966 317.589 118.629 317.487 119.232 317.283C119.834 317.079 120.35 316.773 120.778 316.364C121.207 315.956 121.534 315.456 121.758 314.864L127.792 315.262C127.486 316.711 126.858 317.977 125.909 319.06C124.969 320.132 123.754 320.969 122.264 321.571C120.783 322.163 119.073 322.459 117.134 322.459ZM150.897 305.185L144.924 305.552C144.822 305.042 144.602 304.583 144.266 304.174C143.929 303.756 143.484 303.424 142.933 303.179C142.392 302.924 141.744 302.796 140.988 302.796C139.978 302.796 139.125 303.01 138.431 303.439C137.737 303.858 137.389 304.419 137.389 305.124C137.389 305.685 137.614 306.16 138.063 306.548C138.512 306.936 139.283 307.247 140.376 307.482L144.633 308.34C146.92 308.809 148.625 309.565 149.748 310.606C150.871 311.648 151.433 313.016 151.433 314.71C151.433 316.252 150.978 317.605 150.07 318.769C149.171 319.933 147.936 320.841 146.364 321.495C144.802 322.138 143 322.459 140.958 322.459C137.844 322.459 135.363 321.811 133.515 320.515C131.677 319.208 130.6 317.431 130.284 315.185L136.7 314.848C136.894 315.798 137.364 316.523 138.109 317.023C138.854 317.513 139.809 317.758 140.973 317.758C142.116 317.758 143.035 317.538 143.73 317.099C144.434 316.65 144.791 316.073 144.802 315.369C144.791 314.777 144.541 314.292 144.051 313.914C143.561 313.526 142.806 313.23 141.785 313.026L137.711 312.214C135.414 311.755 133.704 310.958 132.581 309.825C131.468 308.692 130.911 307.247 130.911 305.491C130.911 303.98 131.32 302.678 132.137 301.586C132.964 300.494 134.122 299.651 135.613 299.059C137.114 298.467 138.87 298.171 140.881 298.171C143.852 298.171 146.19 298.799 147.895 300.055C149.61 301.31 150.611 303.021 150.897 305.185ZM167.19 298.477V303.378H153.024V298.477H167.19ZM156.24 292.842H162.764V314.772C162.764 315.374 162.856 315.844 163.04 316.181C163.224 316.507 163.479 316.737 163.805 316.87C164.142 317.002 164.53 317.069 164.969 317.069C165.276 317.069 165.582 317.043 165.888 316.992C166.194 316.931 166.429 316.885 166.593 316.854L167.619 321.709C167.292 321.811 166.833 321.929 166.24 322.061C165.648 322.204 164.929 322.291 164.081 322.322C162.509 322.383 161.131 322.174 159.946 321.694C158.772 321.214 157.858 320.469 157.205 319.458C156.552 318.447 156.23 317.171 156.24 315.629V292.842Z" fill="black"/>
<rect x="456" y="205" width="53.8949" height="53.8949" fill="#00C176"/>
<rect x="456" y="280" width="53.8949" height="53.8949" fill="#008F57"/>
<rect x="456" y="355" width="53.8949" height="53.8949" fill="#005C38"/>
<rect x="544" y="205" width="53.8949" height="53.8949" fill="#FF003C"/>
<rect x="544" y="280" width="53.8949" height="53.8949" fill="#990024"/>
<rect x="544" y="355" width="53.8949" height="53.8949" fill="#660018"/>
<rect x="632" y="205" width="53.8949" height="53.8949" fill="#FABE28"/>
<rect x="632" y="280" width="53.8949" height="53.8949" fill="#EAA905"/>
<rect x="632" y="355" width="53.8949" height="53.8949" fill="#B88504"/>
<rect x="720" y="205" width="53.8949" height="53.8949" fill="#00C176"/>
<rect x="720" y="280" width="53.8949" height="53.8949" fill="#008F57"/>
<rect x="720" y="355" width="53.8949" height="53.8949" fill="#005C38"/>
<rect x="808" y="205" width="53.8949" height="53.8949" fill="#FF003C"/>
<rect x="808" y="280" width="53.8949" height="53.8949" fill="#990024"/>
<rect x="808" y="355" width="53.8949" height="53.8949" fill="#660018"/>
<rect x="896" y="205" width="53.8949" height="53.8949" fill="#FABE28"/>
<rect x="896" y="280" width="53.8949" height="53.8949" fill="#EAA905"/>
<rect x="896" y="355" width="53.8949" height="53.8949" fill="#B88504"/>
<rect x="984" y="205" width="53.8949" height="53.8949" fill="#00C176"/>
<rect x="984" y="280" width="53.8949" height="53.8949" fill="#008F57"/>
<rect x="984" y="355" width="53.8949" height="53.8949" fill="#005C38"/>
<path d="M79.0446 406.821V374.477H85.4766V378.428H85.7676C86.0535 377.795 86.467 377.152 87.0081 376.499C87.5594 375.835 88.274 375.284 89.1521 374.845C90.0403 374.396 91.1429 374.171 92.4599 374.171C94.1751 374.171 95.7576 374.62 97.2074 375.519C98.6571 376.407 99.8159 377.749 100.684 379.546C101.552 381.333 101.985 383.574 101.985 386.269C101.985 388.893 101.562 391.109 100.714 392.916C99.8772 394.713 98.7337 396.076 97.2839 397.005C95.8444 397.923 94.2313 398.383 92.4446 398.383C91.1786 398.383 90.1015 398.174 89.2133 397.755C88.3353 397.336 87.6155 396.811 87.054 396.178C86.4925 395.534 86.0637 394.886 85.7676 394.233H85.5685V406.821H79.0446ZM85.4307 386.239C85.4307 387.637 85.6247 388.857 86.0126 389.899C86.4006 390.94 86.9621 391.752 87.6972 392.334C88.4323 392.905 89.3256 393.191 90.3772 393.191C91.439 393.191 92.3374 392.9 93.0725 392.318C93.8076 391.726 94.364 390.909 94.7418 389.868C95.1297 388.817 95.3237 387.607 95.3237 386.239C95.3237 384.881 95.1348 383.686 94.7571 382.655C94.3793 381.624 93.8229 380.817 93.0878 380.235C92.3527 379.653 91.4492 379.363 90.3772 379.363C89.3154 379.363 88.417 379.643 87.6819 380.205C86.957 380.766 86.4006 381.563 86.0126 382.594C85.6247 383.625 85.4307 384.84 85.4307 386.239ZM105.472 398V374.477H111.797V378.581H112.042C112.471 377.122 113.191 376.019 114.201 375.274C115.212 374.518 116.376 374.14 117.693 374.14C118.02 374.14 118.372 374.161 118.75 374.202C119.127 374.242 119.459 374.299 119.745 374.37V380.159C119.439 380.067 119.015 379.985 118.474 379.914C117.933 379.842 117.438 379.807 116.989 379.807C116.029 379.807 115.171 380.016 114.416 380.435C113.67 380.843 113.078 381.415 112.639 382.15C112.21 382.885 111.996 383.732 111.996 384.692V398H105.472ZM131.789 398.459C129.41 398.459 127.353 397.954 125.617 396.943C123.892 395.922 122.559 394.503 121.62 392.686C120.681 390.858 120.211 388.74 120.211 386.331C120.211 383.901 120.681 381.777 121.62 379.96C122.559 378.132 123.892 376.713 125.617 375.702C127.353 374.681 129.41 374.171 131.789 374.171C134.168 374.171 136.22 374.681 137.945 375.702C139.681 376.713 141.018 378.132 141.957 379.96C142.897 381.777 143.366 383.901 143.366 386.331C143.366 388.74 142.897 390.858 141.957 392.686C141.018 394.503 139.681 395.922 137.945 396.943C136.22 397.954 134.168 398.459 131.789 398.459ZM131.819 393.406C132.902 393.406 133.805 393.099 134.53 392.487C135.255 391.864 135.801 391.017 136.169 389.945C136.546 388.873 136.735 387.653 136.735 386.285C136.735 384.917 136.546 383.696 136.169 382.624C135.801 381.552 135.255 380.705 134.53 380.082C133.805 379.46 132.902 379.148 131.819 379.148C130.727 379.148 129.808 379.46 129.063 380.082C128.328 380.705 127.771 381.552 127.393 382.624C127.026 383.696 126.842 384.917 126.842 386.285C126.842 387.653 127.026 388.873 127.393 389.945C127.771 391.017 128.328 391.864 129.063 392.487C129.808 393.099 130.727 393.406 131.819 393.406ZM155.414 398.383C153.627 398.383 152.009 397.923 150.559 397.005C149.12 396.076 147.976 394.713 147.129 392.916C146.292 391.109 145.873 388.893 145.873 386.269C145.873 383.574 146.307 381.333 147.175 379.546C148.042 377.749 149.196 376.407 150.636 375.519C152.085 374.62 153.673 374.171 155.398 374.171C156.715 374.171 157.813 374.396 158.691 374.845C159.579 375.284 160.294 375.835 160.835 376.499C161.386 377.152 161.805 377.795 162.091 378.428H162.29V366.636H168.798V398H162.366V394.233H162.091C161.784 394.886 161.351 395.534 160.789 396.178C160.238 396.811 159.518 397.336 158.63 397.755C157.752 398.174 156.68 398.383 155.414 398.383ZM157.481 393.191C158.533 393.191 159.421 392.905 160.146 392.334C160.881 391.752 161.442 390.94 161.83 389.899C162.229 388.857 162.428 387.637 162.428 386.239C162.428 384.84 162.234 383.625 161.846 382.594C161.458 381.563 160.896 380.766 160.161 380.205C159.426 379.643 158.533 379.363 157.481 379.363C156.409 379.363 155.506 379.653 154.771 380.235C154.035 380.817 153.479 381.624 153.101 382.655C152.724 383.686 152.535 384.881 152.535 386.239C152.535 387.607 152.724 388.817 153.101 389.868C153.489 390.909 154.046 391.726 154.771 392.318C155.506 392.9 156.409 393.191 157.481 393.191Z" fill="black"/>
<path d="M149.697 138.178V155H146.14V141.554H146.042L142.19 143.969V140.815L146.354 138.178H149.697ZM159.828 155.37C158.415 155.364 157.2 155.016 156.181 154.326C155.168 153.637 154.388 152.637 153.84 151.328C153.298 150.02 153.03 148.445 153.035 146.606C153.035 144.771 153.306 143.208 153.848 141.915C154.396 140.623 155.176 139.64 156.189 138.967C157.208 138.288 158.421 137.948 159.828 137.948C161.235 137.948 162.446 138.288 163.459 138.967C164.477 139.646 165.26 140.631 165.808 141.924C166.355 143.21 166.626 144.771 166.621 146.606C166.621 148.451 166.347 150.028 165.8 151.337C165.257 152.645 164.48 153.645 163.467 154.335C162.454 155.025 161.241 155.37 159.828 155.37ZM159.828 152.421C160.792 152.421 161.561 151.936 162.136 150.967C162.711 149.998 162.996 148.544 162.99 146.606C162.99 145.33 162.859 144.267 162.596 143.419C162.339 142.57 161.972 141.932 161.496 141.505C161.025 141.078 160.469 140.864 159.828 140.864C158.87 140.864 158.103 141.343 157.528 142.301C156.953 143.26 156.663 144.694 156.658 146.606C156.658 147.898 156.786 148.977 157.044 149.842C157.306 150.701 157.676 151.348 158.153 151.78C158.629 152.207 159.187 152.421 159.828 152.421ZM173.043 141.111V138.178H186.859V141.111H181.708V155H178.193V141.111H173.043ZM188.671 155V138.178H200.006V141.111H192.228V145.119H199.423V148.051H192.228V152.068H200.039V155H188.671ZM216.441 138.178V155H213.369L206.051 144.412H205.928V155H202.371V138.178H205.492L212.753 148.758H212.901V138.178H216.441ZM221.817 155H218.005L223.813 138.178H228.396L234.195 155H230.384L226.17 142.022H226.039L221.817 155ZM221.578 148.388H230.581V151.164H221.578V148.388ZM249.827 138.178V155H246.755L239.437 144.412H239.314V155H235.757V138.178H238.878L246.139 148.758H246.287V138.178H249.827ZM251.662 141.111V138.178H265.478V141.111H260.328V155H256.812V141.111H251.662ZM276.416 143.016C276.35 142.354 276.068 141.839 275.57 141.472C275.072 141.105 274.395 140.922 273.541 140.922C272.961 140.922 272.471 141.004 272.071 141.168C271.671 141.327 271.365 141.549 271.151 141.833C270.943 142.118 270.839 142.441 270.839 142.803C270.828 143.104 270.891 143.367 271.028 143.591C271.17 143.816 271.365 144.01 271.611 144.174C271.857 144.333 272.142 144.473 272.465 144.593C272.788 144.708 273.133 144.807 273.5 144.889L275.011 145.25C275.745 145.415 276.419 145.634 277.032 145.907C277.645 146.181 278.177 146.518 278.626 146.918C279.075 147.317 279.422 147.788 279.669 148.33C279.921 148.873 280.049 149.494 280.055 150.195C280.049 151.224 279.786 152.117 279.266 152.873C278.751 153.623 278.007 154.206 277.032 154.622C276.063 155.033 274.894 155.238 273.525 155.238C272.167 155.238 270.984 155.03 269.976 154.614C268.974 154.198 268.191 153.582 267.627 152.766C267.069 151.944 266.776 150.929 266.748 149.719H270.19C270.228 150.283 270.39 150.753 270.675 151.131C270.965 151.504 271.351 151.786 271.833 151.977C272.32 152.164 272.87 152.257 273.484 152.257C274.086 152.257 274.609 152.169 275.053 151.994C275.502 151.819 275.849 151.575 276.096 151.263C276.342 150.951 276.465 150.592 276.465 150.187C276.465 149.809 276.353 149.491 276.129 149.234C275.91 148.977 275.586 148.758 275.159 148.577C274.738 148.396 274.22 148.232 273.607 148.084L271.775 147.624C270.357 147.279 269.237 146.74 268.416 146.006C267.594 145.272 267.186 144.284 267.192 143.041C267.186 142.022 267.458 141.132 268.005 140.371C268.558 139.61 269.317 139.016 270.28 138.589C271.244 138.162 272.339 137.948 273.566 137.948C274.814 137.948 275.904 138.162 276.835 138.589C277.771 139.016 278.5 139.61 279.02 140.371C279.54 141.132 279.808 142.014 279.825 143.016H276.416Z" fill="#AAAAAA"/>
</svg>
