<svg width="1200" height="900" viewBox="0 0 1200 900" fill="none" xmlns="http://www.w3.org/2000/svg">
<rect width="1200" height="900" fill="white"/>
<rect x="280" y="205" width="53.8949" height="53.8949" fill="#FF003C"/>
<rect x="280" y="280" width="53.8949" height="53.8949" fill="#990024"/>
<rect x="280" y="355" width="53.8949" height="53.8949" fill="#660018"/>
<rect x="1072" y="205" width="53.8949" height="53.8949" fill="#FF003C"/>
<rect x="1072" y="280" width="53.8949" height="53.8949" fill="#990024"/>
<rect x="1072" y="355" width="53.8949" height="53.8949" fill="#660018"/>
<path d="M115.72 247.383C113.934 247.383 112.315 246.923 110.866 246.005C109.426 245.076 108.283 243.713 107.435 241.916C106.598 240.109 106.179 237.893 106.179 235.269C106.179 232.574 106.613 230.333 107.481 228.546C108.349 226.749 109.503 225.407 110.942 224.519C112.392 223.62 113.98 223.171 115.705 223.171C117.022 223.171 118.119 223.396 118.997 223.845C119.886 224.284 120.6 224.835 121.141 225.499C121.693 226.152 122.111 226.795 122.397 227.428H122.596V215.636H129.105V247H122.673V243.233H122.397C122.091 243.886 121.657 244.534 121.096 245.178C120.544 245.811 119.824 246.336 118.936 246.755C118.058 247.174 116.986 247.383 115.72 247.383ZM117.788 242.191C118.839 242.191 119.727 241.905 120.452 241.334C121.187 240.752 121.749 239.94 122.137 238.899C122.535 237.857 122.734 236.637 122.734 235.239C122.734 233.84 122.54 232.625 122.152 231.594C121.764 230.563 121.203 229.766 120.468 229.205C119.733 228.643 118.839 228.363 117.788 228.363C116.716 228.363 115.812 228.653 115.077 229.235C114.342 229.817 113.786 230.624 113.408 231.655C113.03 232.686 112.841 233.881 112.841 235.239C112.841 236.607 113.03 237.817 113.408 238.868C113.796 239.909 114.352 240.726 115.077 241.318C115.812 241.9 116.716 242.191 117.788 242.191ZM144.326 247.459C141.907 247.459 139.824 246.969 138.078 245.989C136.342 244.999 135.005 243.6 134.066 241.793C133.126 239.976 132.657 237.827 132.657 235.346C132.657 232.926 133.126 230.803 134.066 228.975C135.005 227.148 136.327 225.723 138.032 224.702C139.747 223.681 141.759 223.171 144.066 223.171C145.618 223.171 147.062 223.421 148.4 223.921C149.747 224.411 150.922 225.152 151.922 226.142C152.933 227.132 153.719 228.378 154.281 229.879C154.842 231.369 155.123 233.115 155.123 235.116V236.908H135.26V232.865H148.982C148.982 231.926 148.778 231.094 148.369 230.369C147.961 229.644 147.394 229.077 146.669 228.669C145.955 228.25 145.123 228.041 144.173 228.041C143.183 228.041 142.305 228.271 141.539 228.73C140.784 229.179 140.191 229.787 139.763 230.552C139.334 231.308 139.114 232.15 139.104 233.079V236.923C139.104 238.087 139.318 239.093 139.747 239.94C140.186 240.788 140.804 241.441 141.6 241.9C142.397 242.36 143.341 242.589 144.433 242.589C145.158 242.589 145.822 242.487 146.424 242.283C147.027 242.079 147.542 241.773 147.971 241.364C148.4 240.956 148.727 240.456 148.951 239.864L154.985 240.262C154.679 241.711 154.051 242.977 153.101 244.06C152.162 245.132 150.947 245.969 149.457 246.571C147.976 247.163 146.266 247.459 144.326 247.459ZM179.816 223.477L171.592 247H164.241L156.018 223.477H162.909L167.794 240.308H168.039L172.909 223.477H179.816Z" fill="black"/>
<path d="M149.697 138.178V155H146.14V141.554H146.042L142.19 143.969V140.815L146.354 138.178H149.697ZM159.828 155.37C158.415 155.364 157.2 155.016 156.181 154.326C155.168 153.637 154.388 152.637 153.84 151.328C153.298 150.02 153.03 148.445 153.035 146.606C153.035 144.771 153.306 143.208 153.848 141.915C154.396 140.623 155.176 139.64 156.189 138.967C157.208 138.288 158.421 137.948 159.828 137.948C161.235 137.948 162.446 138.288 163.459 138.967C164.477 139.646 165.26 140.631 165.808 141.924C166.355 143.21 166.626 144.771 166.621 146.606C166.621 148.451 166.347 150.028 165.8 151.337C165.257 152.645 164.48 153.645 163.467 154.335C162.454 155.025 161.241 155.37 159.828 155.37ZM159.828 152.421C160.792 152.421 161.561 151.936 162.136 150.967C162.711 149.998 162.996 148.544 162.99 146.606C162.99 145.33 162.859 144.267 162.596 143.419C162.339 142.57 161.972 141.932 161.496 141.505C161.025 141.078 160.469 140.864 159.828 140.864C158.87 140.864 158.103 141.343 157.528 142.301C156.953 143.26 156.663 144.694 156.658 146.606C156.658 147.898 156.786 148.977 157.044 149.842C157.306 150.701 157.676 151.348 158.153 151.78C158.629 152.207 159.187 152.421 159.828 152.421ZM173.043 141.111V138.178H186.859V141.111H181.708V155H178.193V141.111H173.043ZM188.671 155V138.178H200.006V141.111H192.228V145.119H199.423V148.051H192.228V152.068H200.039V155H188.671ZM216.441 138.178V155H213.369L206.051 144.412H205.928V155H202.371V138.178H205.492L212.753 148.758H212.901V138.178H216.441ZM221.817 155H218.005L223.813 138.178H228.396L234.195 155H230.384L226.17 142.022H226.039L221.817 155ZM221.578 148.388H230.581V151.164H221.578V148.388ZM249.827 138.178V155H246.755L239.437 144.412H239.314V155H235.757V138.178H238.878L246.139 148.758H246.287V138.178H249.827ZM251.662 141.111V138.178H265.478V141.111H260.328V155H256.812V141.111H251.662ZM276.416 143.016C276.35 142.354 276.068 141.839 275.57 141.472C275.072 141.105 274.395 140.922 273.541 140.922C272.961 140.922 272.471 141.004 272.071 141.168C271.671 141.327 271.365 141.549 271.151 141.833C270.943 142.118 270.839 142.441 270.839 142.803C270.828 143.104 270.891 143.367 271.028 143.591C271.17 143.816 271.365 144.01 271.611 144.174C271.857 144.333 272.142 144.473 272.465 144.593C272.788 144.708 273.133 144.807 273.5 144.889L275.011 145.25C275.745 145.415 276.419 145.634 277.032 145.907C277.645 146.181 278.177 146.518 278.626 146.918C279.075 147.317 279.422 147.788 279.669 148.33C279.921 148.873 280.049 149.494 280.055 150.195C280.049 151.224 279.786 152.117 279.266 152.873C278.751 153.623 278.007 154.206 277.032 154.622C276.063 155.033 274.894 155.238 273.525 155.238C272.167 155.238 270.984 155.03 269.976 154.614C268.974 154.198 268.191 153.582 267.627 152.766C267.069 151.944 266.776 150.929 266.748 149.719H270.19C270.228 150.283 270.39 150.753 270.675 151.131C270.965 151.504 271.351 151.786 271.833 151.977C272.32 152.164 272.87 152.257 273.484 152.257C274.086 152.257 274.609 152.169 275.053 151.994C275.502 151.819 275.849 151.575 276.096 151.263C276.342 150.951 276.465 150.592 276.465 150.187C276.465 149.809 276.353 149.491 276.129 149.234C275.91 148.977 275.586 148.758 275.159 148.577C274.738 148.396 274.22 148.232 273.607 148.084L271.775 147.624C270.357 147.279 269.237 146.74 268.416 146.006C267.594 145.272 267.186 144.284 267.192 143.041C267.186 142.022 267.458 141.132 268.005 140.371C268.558 139.61 269.317 139.016 270.28 138.589C271.244 138.162 272.339 137.948 273.566 137.948C274.814 137.948 275.904 138.162 276.835 138.589C277.771 139.016 278.5 139.61 279.02 140.371C279.54 141.132 279.808 142.014 279.825 143.016H276.416Z" fill="#AAAAAA"/>
<rect x="368" y="205" width="53.8949" height="53.8949" fill="#FABE28"/>
<rect x="368" y="280" width="53.8949" height="53.8949" fill="#EAA905"/>
<rect x="368" y="355" width="53.8949" height="53.8949" fill="#B88504"/>
<path d="M103.279 298.477V303.378H89.1133V298.477H103.279ZM92.3293 292.842H98.8532V314.772C98.8532 315.374 98.9451 315.844 99.1288 316.181C99.3126 316.507 99.5678 316.737 99.8945 316.87C100.231 317.002 100.619 317.069 101.058 317.069C101.365 317.069 101.671 317.043 101.977 316.992C102.284 316.931 102.518 316.885 102.682 316.854L103.708 321.709C103.381 321.811 102.922 321.929 102.33 322.061C101.737 322.204 101.018 322.291 100.17 322.322C98.5979 322.383 97.2196 322.174 96.0353 321.694C94.8613 321.214 93.9475 320.469 93.2941 319.458C92.6407 318.447 92.3191 317.171 92.3293 315.629V292.842ZM117.134 322.459C114.714 322.459 112.631 321.969 110.885 320.989C109.15 319.999 107.812 318.6 106.873 316.793C105.934 314.976 105.464 312.827 105.464 310.346C105.464 307.926 105.934 305.803 106.873 303.975C107.812 302.148 109.134 300.723 110.839 299.702C112.555 298.681 114.566 298.171 116.873 298.171C118.425 298.171 119.87 298.421 121.207 298.921C122.555 299.411 123.729 300.152 124.729 301.142C125.74 302.132 126.526 303.378 127.088 304.879C127.649 306.369 127.93 308.115 127.93 310.116V311.908H108.067V307.865H121.789C121.789 306.926 121.585 306.094 121.176 305.369C120.768 304.644 120.201 304.077 119.477 303.669C118.762 303.25 117.93 303.041 116.98 303.041C115.99 303.041 115.112 303.271 114.346 303.73C113.591 304.179 112.999 304.787 112.57 305.552C112.141 306.308 111.922 307.15 111.911 308.079V311.923C111.911 313.087 112.126 314.093 112.555 314.94C112.994 315.788 113.611 316.441 114.408 316.9C115.204 317.36 116.148 317.589 117.241 317.589C117.966 317.589 118.629 317.487 119.232 317.283C119.834 317.079 120.35 316.773 120.778 316.364C121.207 315.956 121.534 315.456 121.758 314.864L127.792 315.262C127.486 316.711 126.858 317.977 125.909 319.06C124.969 320.132 123.754 320.969 122.264 321.571C120.783 322.163 119.073 322.459 117.134 322.459ZM150.897 305.185L144.924 305.552C144.822 305.042 144.602 304.583 144.266 304.174C143.929 303.756 143.484 303.424 142.933 303.179C142.392 302.924 141.744 302.796 140.988 302.796C139.978 302.796 139.125 303.01 138.431 303.439C137.737 303.858 137.389 304.419 137.389 305.124C137.389 305.685 137.614 306.16 138.063 306.548C138.512 306.936 139.283 307.247 140.376 307.482L144.633 308.34C146.92 308.809 148.625 309.565 149.748 310.606C150.871 311.648 151.433 313.016 151.433 314.71C151.433 316.252 150.978 317.605 150.07 318.769C149.171 319.933 147.936 320.841 146.364 321.495C144.802 322.138 143 322.459 140.958 322.459C137.844 322.459 135.363 321.811 133.515 320.515C131.677 319.208 130.6 317.431 130.284 315.185L136.7 314.848C136.894 315.798 137.364 316.523 138.109 317.023C138.854 317.513 139.809 317.758 140.973 317.758C142.116 317.758 143.035 317.538 143.73 317.099C144.434 316.65 144.791 316.073 144.802 315.369C144.791 314.777 144.541 314.292 144.051 313.914C143.561 313.526 142.806 313.23 141.785 313.026L137.711 312.214C135.414 311.755 133.704 310.958 132.581 309.825C131.468 308.692 130.911 307.247 130.911 305.491C130.911 303.98 131.32 302.678 132.137 301.586C132.964 300.494 134.122 299.651 135.613 299.059C137.114 298.467 138.87 298.171 140.881 298.171C143.852 298.171 146.19 298.799 147.895 300.055C149.61 301.31 150.611 303.021 150.897 305.185ZM167.19 298.477V303.378H153.024V298.477H167.19ZM156.24 292.842H162.764V314.772C162.764 315.374 162.856 315.844 163.04 316.181C163.224 316.507 163.479 316.737 163.805 316.87C164.142 317.002 164.53 317.069 164.969 317.069C165.276 317.069 165.582 317.043 165.888 316.992C166.194 316.931 166.429 316.885 166.593 316.854L167.619 321.709C167.292 321.811 166.833 321.929 166.24 322.061C165.648 322.204 164.929 322.291 164.081 322.322C162.509 322.383 161.131 322.174 159.946 321.694C158.772 321.214 157.858 320.469 157.205 319.458C156.552 318.447 156.23 317.171 156.24 315.629V292.842Z" fill="black"/>
<rect x="456" y="205" width="53.8949" height="53.8949" fill="#00C176"/>
<rect x="456" y="280" width="53.8949" height="53.8949" fill="#008F57"/>
<rect x="456" y="355" width="53.8949" height="53.8949" fill="#005C38"/>
<rect x="544" y="205" width="53.8949" height="53.8949" fill="#FF003C"/>
<rect x="544" y="280" width="53.8949" height="53.8949" fill="#990024"/>
<rect x="544" y="355" width="53.8949" height="53.8949" fill="#660018"/>
<rect x="632" y="205" width="53.8949" height="53.8949" fill="#FABE28"/>
<rect x="632" y="280" width="53.8949" height="53.8949" fill="#EAA905"/>
<rect x="632" y="355" width="53.8949" height="53.8949" fill="#B88504"/>
<rect x="720" y="205" width="53.8949" height="53.8949" fill="#00C176"/>
<rect x="720" y="280" width="53.8949" height="53.8949" fill="#008F57"/>
<rect x="720" y="355" width="53.8949" height="53.8949" fill="#005C38"/>
<rect x="808" y="205" width="53.8949" height="53.8949" fill="#FF003C"/>
<rect x="808" y="280" width="53.8949" height="53.8949" fill="#990024"/>
<rect x="808" y="355" width="53.8949" height="53.8949" fill="#660018"/>
<rect x="896" y="205" width="53.8949" height="53.8949" fill="#FABE28"/>
<rect x="896" y="280" width="53.8949" height="53.8949" fill="#EAA905"/>
<rect x="896" y="355" width="53.8949" height="53.8949" fill="#B88504"/>
<rect x="984" y="205" width="53.8949" height="53.8949" fill="#00C176"/>
<rect x="984" y="280" width="53.8949" height="53.8949" fill="#008F57"/>
<rect x="984" y="355" width="53.8949" height="53.8949" fill="#005C38"/>
<path d="M79.0446 406.821V374.477H85.4766V378.428H85.7676C86.0535 377.795 86.467 377.152 87.0081 376.499C87.5594 375.835 88.274 375.284 89.1521 374.845C90.0403 374.396 91.1429 374.171 92.4599 374.171C94.1751 374.171 95.7576 374.62 97.2074 375.519C98.6571 376.407 99.8159 377.749 100.684 379.546C101.552 381.333 101.985 383.574 101.985 386.269C101.985 388.893 101.562 391.109 100.714 392.916C99.8772 394.713 98.7337 396.076 97.2839 397.005C95.8444 397.923 94.2313 398.383 92.4446 398.383C91.1786 398.383 90.1015 398.174 89.2133 397.755C88.3353 397.336 87.6155 396.811 87.054 396.178C86.4925 395.534 86.0637 394.886 85.7676 394.233H85.5685V406.821H79.0446ZM85.4307 386.239C85.4307 387.637 85.6247 388.857 86.0126 389.899C86.4006 390.94 86.9621 391.752 87.6972 392.334C88.4323 392.905 89.3256 393.191 90.3772 393.191C91.439 393.191 92.3374 392.9 93.0725 392.318C93.8076 391.726 94.364 390.909 94.7418 389.868C95.1297 388.817 95.3237 387.607 95.3237 386.239C95.3237 384.881 95.1348 383.686 94.7571 382.655C94.3793 381.624 93.8229 380.817 93.0878 380.235C92.3527 379.653 91.4492 379.363 90.3772 379.363C89.3154 379.363 88.417 379.643 87.6819 380.205C86.957 380.766 86.4006 381.563 86.0126 382.594C85.6247 383.625 85.4307 384.84 85.4307 386.239ZM105.472 398V374.477H111.797V378.581H112.042C112.471 377.122 113.191 376.019 114.201 375.274C115.212 374.518 116.376 374.14 117.693 374.14C118.02 374.14 118.372 374.161 118.75 374.202C119.127 374.242 119.459 374.299 119.745 374.37V380.159C119.439 380.067 119.015 379.985 118.474 379.914C117.933 379.842 117.438 379.807 116.989 379.807C116.029 379.807 115.171 380.016 114.416 380.435C113.67 380.843 113.078 381.415 112.639 382.15C112.21 382.885 111.996 383.732 111.996 384.692V398H105.472ZM131.789 398.459C129.41 398.459 127.353 397.954 125.617 396.943C123.892 395.922 122.559 394.503 121.62 392.686C120.681 390.858 120.211 388.74 120.211 386.331C120.211 383.901 120.681 381.777 121.62 379.96C122.559 378.132 123.892 376.713 125.617 375.702C127.353 374.681 129.41 374.171 131.789 374.171C134.168 374.171 136.22 374.681 137.945 375.702C139.681 376.713 141.018 378.132 141.957 379.96C142.897 381.777 143.366 383.901 143.366 386.331C143.366 388.74 142.897 390.858 141.957 392.686C141.018 394.503 139.681 395.922 137.945 396.943C136.22 397.954 134.168 398.459 131.789 398.459ZM131.819 393.406C132.902 393.406 133.805 393.099 134.53 392.487C135.255 391.864 135.801 391.017 136.169 389.945C136.546 388.873 136.735 387.653 136.735 386.285C136.735 384.917 136.546 383.696 136.169 382.624C135.801 381.552 135.255 380.705 134.53 380.082C133.805 379.46 132.902 379.148 131.819 379.148C130.727 379.148 129.808 379.46 129.063 380.082C128.328 380.705 127.771 381.552 127.393 382.624C127.026 383.696 126.842 384.917 126.842 386.285C126.842 387.653 127.026 388.873 127.393 389.945C127.771 391.017 128.328 391.864 129.063 392.487C129.808 393.099 130.727 393.406 131.819 393.406ZM155.414 398.383C153.627 398.383 152.009 397.923 150.559 397.005C149.12 396.076 147.976 394.713 147.129 392.916C146.292 391.109 145.873 388.893 145.873 386.269C145.873 383.574 146.307 381.333 147.175 379.546C148.042 377.749 149.196 376.407 150.636 375.519C152.085 374.62 153.673 374.171 155.398 374.171C156.715 374.171 157.813 374.396 158.691 374.845C159.579 375.284 160.294 375.835 160.835 376.499C161.386 377.152 161.805 377.795 162.091 378.428H162.29V366.636H168.798V398H162.366V394.233H162.091C161.784 394.886 161.351 395.534 160.789 396.178C160.238 396.811 159.518 397.336 158.63 397.755C157.752 398.174 156.68 398.383 155.414 398.383ZM157.481 393.191C158.533 393.191 159.421 392.905 160.146 392.334C160.881 391.752 161.442 390.94 161.83 389.899C162.229 388.857 162.428 387.637 162.428 386.239C162.428 384.84 162.234 383.625 161.846 382.594C161.458 381.563 160.896 380.766 160.161 380.205C159.426 379.643 158.533 379.363 157.481 379.363C156.409 379.363 155.506 379.653 154.771 380.235C154.035 380.817 153.479 381.624 153.101 382.655C152.724 383.686 152.535 384.881 152.535 386.239C152.535 387.607 152.724 388.817 153.101 389.868C153.489 390.909 154.046 391.726 154.771 392.318C155.506 392.9 156.409 393.191 157.481 393.191Z" fill="black"/>
<rect x="228" y="589" width="21.1461" height="21.1461" fill="#FF003C"/>
<rect x="228" y="618.427" width="21.1461" height="21.1461" fill="#990024"/>
<rect x="228" y="647.854" width="21.1461" height="21.1461" fill="#660018"/>
<rect x="538.748" y="589" width="21.1461" height="21.1461" fill="#FF003C"/>
<rect x="538.748" y="618.427" width="21.1461" height="21.1461" fill="#990024"/>
<rect x="538.748" y="647.854" width="21.1461" height="21.1461" fill="#660018"/>
<path d="M162.596 608.213C161.602 608.213 160.702 607.957 159.895 607.446C159.094 606.929 158.457 606.17 157.986 605.17C157.52 604.165 157.287 602.932 157.287 601.472C157.287 599.972 157.528 598.724 158.011 597.73C158.494 596.73 159.136 595.983 159.937 595.489C160.744 594.989 161.628 594.739 162.588 594.739C163.321 594.739 163.932 594.864 164.42 595.114C164.915 595.358 165.312 595.665 165.614 596.034C165.92 596.398 166.153 596.756 166.312 597.108H166.423V590.545H170.045V608H166.466V605.903H166.312C166.142 606.267 165.9 606.628 165.588 606.986C165.281 607.338 164.881 607.631 164.386 607.864C163.898 608.097 163.301 608.213 162.596 608.213ZM163.747 605.324C164.332 605.324 164.827 605.165 165.23 604.847C165.639 604.523 165.952 604.071 166.167 603.491C166.389 602.912 166.5 602.233 166.5 601.455C166.5 600.676 166.392 600 166.176 599.426C165.96 598.852 165.648 598.409 165.239 598.097C164.829 597.784 164.332 597.628 163.747 597.628C163.15 597.628 162.648 597.79 162.239 598.114C161.829 598.437 161.52 598.886 161.31 599.46C161.099 600.034 160.994 600.699 160.994 601.455C160.994 602.216 161.099 602.889 161.31 603.474C161.525 604.054 161.835 604.509 162.239 604.838C162.648 605.162 163.15 605.324 163.747 605.324ZM178.516 608.256C177.17 608.256 176.011 607.983 175.039 607.438C174.073 606.886 173.329 606.108 172.806 605.102C172.283 604.091 172.022 602.895 172.022 601.514C172.022 600.168 172.283 598.986 172.806 597.969C173.329 596.952 174.065 596.159 175.013 595.591C175.968 595.023 177.087 594.739 178.371 594.739C179.235 594.739 180.039 594.878 180.783 595.156C181.533 595.429 182.187 595.841 182.744 596.392C183.306 596.943 183.744 597.636 184.056 598.472C184.369 599.301 184.525 600.273 184.525 601.386V602.384H173.471V600.134H181.107C181.107 599.611 180.994 599.148 180.766 598.744C180.539 598.341 180.224 598.026 179.82 597.798C179.423 597.565 178.96 597.449 178.431 597.449C177.88 597.449 177.391 597.577 176.965 597.832C176.545 598.082 176.215 598.42 175.977 598.847C175.738 599.267 175.616 599.736 175.61 600.253V602.392C175.61 603.04 175.729 603.599 175.968 604.071C176.212 604.543 176.556 604.906 176.999 605.162C177.442 605.418 177.968 605.545 178.576 605.545C178.979 605.545 179.349 605.489 179.684 605.375C180.019 605.261 180.306 605.091 180.545 604.864C180.783 604.636 180.965 604.358 181.09 604.028L184.448 604.25C184.278 605.057 183.928 605.761 183.4 606.364C182.877 606.96 182.201 607.426 181.371 607.761C180.548 608.091 179.596 608.256 178.516 608.256ZM198.267 594.909L193.69 608H189.6L185.023 594.909H188.858L191.577 604.276H191.713L194.423 594.909H198.267Z" fill="black"/>
<path d="M146.727 501.23C145.566 501.23 144.531 501.016 143.622 500.589C142.718 500.162 142.001 499.574 141.47 498.823C140.939 498.073 140.662 497.213 140.64 496.244H144.09C144.128 496.896 144.402 497.424 144.911 497.829C145.421 498.235 146.026 498.437 146.727 498.437C147.285 498.437 147.778 498.314 148.205 498.068C148.638 497.816 148.975 497.468 149.215 497.025C149.462 496.576 149.585 496.061 149.585 495.48C149.585 494.889 149.459 494.369 149.207 493.92C148.961 493.471 148.619 493.12 148.181 492.868C147.742 492.616 147.241 492.488 146.677 492.482C146.185 492.482 145.705 492.584 145.24 492.786C144.78 492.989 144.421 493.265 144.164 493.616L141.002 493.049L141.798 484.178H152.082V487.086H144.731L144.295 491.3H144.394C144.69 490.883 145.136 490.538 145.733 490.265C146.33 489.991 146.998 489.854 147.737 489.854C148.75 489.854 149.654 490.092 150.448 490.569C151.242 491.045 151.869 491.699 152.328 492.532C152.788 493.358 153.016 494.311 153.01 495.39C153.016 496.523 152.753 497.531 152.222 498.413C151.696 499.289 150.96 499.979 150.012 500.483C149.07 500.981 147.975 501.23 146.727 501.23ZM161.624 501.37C160.211 501.364 158.995 501.016 157.977 500.326C156.964 499.637 156.184 498.637 155.636 497.328C155.094 496.02 154.826 494.445 154.831 492.606C154.831 490.771 155.102 489.208 155.644 487.915C156.192 486.623 156.972 485.64 157.985 484.967C159.004 484.288 160.217 483.948 161.624 483.948C163.031 483.948 164.241 484.288 165.254 484.967C166.273 485.646 167.056 486.631 167.603 487.924C168.151 489.21 168.422 490.771 168.417 492.606C168.417 494.451 168.143 496.028 167.595 497.337C167.053 498.645 166.276 499.645 165.263 500.335C164.25 501.025 163.037 501.37 161.624 501.37ZM161.624 498.421C162.588 498.421 163.357 497.936 163.932 496.967C164.507 495.998 164.792 494.544 164.786 492.606C164.786 491.33 164.655 490.267 164.392 489.419C164.135 488.57 163.768 487.932 163.291 487.505C162.82 487.078 162.265 486.864 161.624 486.864C160.666 486.864 159.899 487.343 159.324 488.301C158.749 489.26 158.459 490.694 158.453 492.606C158.453 493.898 158.582 494.977 158.839 495.842C159.102 496.701 159.472 497.348 159.948 497.78C160.425 498.207 160.983 498.421 161.624 498.421ZM174.839 487.111V484.178H188.654V487.111H183.504V501H179.989V487.111H174.839ZM190.467 501V484.178H201.802V487.111H194.023V491.119H201.219V494.051H194.023V498.068H201.835V501H190.467ZM218.237 484.178V501H215.165L207.847 490.412H207.723V501H204.167V484.178H207.288L214.549 494.758H214.697V484.178H218.237ZM223.612 501H219.801L225.608 484.178H230.192L235.991 501H232.179L227.966 488.022H227.834L223.612 501ZM223.374 494.388H232.377V497.164H223.374V494.388ZM251.623 484.178V501H248.551L241.232 490.412H241.109V501H237.553V484.178H240.674L247.935 494.758H248.083V484.178H251.623ZM253.458 487.111V484.178H267.274V487.111H262.124V501H258.608V487.111H253.458ZM278.212 489.016C278.146 488.354 277.864 487.839 277.366 487.472C276.867 487.105 276.191 486.922 275.337 486.922C274.757 486.922 274.266 487.004 273.867 487.168C273.467 487.327 273.16 487.549 272.947 487.833C272.739 488.118 272.635 488.441 272.635 488.803C272.624 489.104 272.687 489.367 272.824 489.591C272.966 489.816 273.16 490.01 273.407 490.174C273.653 490.333 273.938 490.473 274.261 490.593C274.584 490.708 274.929 490.807 275.296 490.889L276.807 491.25C277.541 491.415 278.215 491.634 278.828 491.907C279.441 492.181 279.972 492.518 280.421 492.918C280.87 493.317 281.218 493.788 281.464 494.33C281.716 494.873 281.845 495.494 281.85 496.195C281.845 497.224 281.582 498.117 281.062 498.873C280.547 499.623 279.803 500.206 278.828 500.622C277.859 501.033 276.689 501.238 275.321 501.238C273.963 501.238 272.78 501.03 271.772 500.614C270.77 500.198 269.987 499.582 269.423 498.766C268.865 497.944 268.572 496.929 268.544 495.719H271.986C272.024 496.283 272.186 496.753 272.47 497.131C272.761 497.504 273.147 497.786 273.628 497.977C274.116 498.164 274.666 498.257 275.279 498.257C275.882 498.257 276.405 498.169 276.848 497.994C277.297 497.819 277.645 497.575 277.891 497.263C278.138 496.951 278.261 496.592 278.261 496.187C278.261 495.809 278.149 495.491 277.924 495.234C277.705 494.977 277.382 494.758 276.955 494.577C276.533 494.396 276.016 494.232 275.403 494.084L273.571 493.624C272.153 493.279 271.033 492.74 270.212 492.006C269.39 491.272 268.982 490.284 268.988 489.041C268.982 488.022 269.253 487.132 269.801 486.371C270.354 485.61 271.112 485.016 272.076 484.589C273.04 484.162 274.135 483.948 275.362 483.948C276.61 483.948 277.7 484.162 278.631 484.589C279.567 485.016 280.295 485.61 280.816 486.371C281.336 487.132 281.604 488.014 281.62 489.016H278.212Z" fill="#AAAAAA"/>
<rect x="262.527" y="589" width="21.1461" height="21.1461" fill="#FABE28"/>
<rect x="262.527" y="618.427" width="21.1461" height="21.1461" fill="#EAA905"/>
<rect x="262.527" y="647.854" width="21.1461" height="21.1461" fill="#B88504"/>
<path d="M158.464 623.909V626.636H150.58V623.909H158.464ZM152.37 620.773H156.001V632.977C156.001 633.312 156.052 633.574 156.154 633.761C156.257 633.943 156.399 634.071 156.58 634.145C156.768 634.219 156.984 634.256 157.228 634.256C157.399 634.256 157.569 634.241 157.74 634.213C157.91 634.179 158.041 634.153 158.132 634.136L158.703 636.838C158.521 636.895 158.265 636.96 157.936 637.034C157.606 637.114 157.205 637.162 156.734 637.179C155.859 637.213 155.092 637.097 154.433 636.83C153.779 636.562 153.271 636.148 152.907 635.585C152.544 635.023 152.365 634.312 152.37 633.455V620.773ZM166.174 637.256C164.828 637.256 163.669 636.983 162.697 636.438C161.731 635.886 160.987 635.108 160.464 634.102C159.941 633.091 159.68 631.895 159.68 630.514C159.68 629.168 159.941 627.986 160.464 626.969C160.987 625.952 161.723 625.159 162.671 624.591C163.626 624.023 164.745 623.739 166.029 623.739C166.893 623.739 167.697 623.878 168.441 624.156C169.191 624.429 169.845 624.841 170.402 625.392C170.964 625.943 171.402 626.636 171.714 627.472C172.027 628.301 172.183 629.273 172.183 630.386V631.384H161.129V629.134H168.765C168.765 628.611 168.652 628.148 168.424 627.744C168.197 627.341 167.882 627.026 167.478 626.798C167.081 626.565 166.617 626.449 166.089 626.449C165.538 626.449 165.049 626.577 164.623 626.832C164.203 627.082 163.873 627.42 163.635 627.847C163.396 628.267 163.274 628.736 163.268 629.253V631.392C163.268 632.04 163.387 632.599 163.626 633.071C163.87 633.543 164.214 633.906 164.657 634.162C165.1 634.418 165.626 634.545 166.234 634.545C166.637 634.545 167.007 634.489 167.342 634.375C167.677 634.261 167.964 634.091 168.203 633.864C168.441 633.636 168.623 633.358 168.748 633.028L172.106 633.25C171.936 634.057 171.586 634.761 171.058 635.364C170.535 635.96 169.859 636.426 169.029 636.761C168.206 637.091 167.254 637.256 166.174 637.256ZM184.964 627.642L181.64 627.847C181.584 627.562 181.461 627.307 181.274 627.08C181.086 626.847 180.839 626.662 180.532 626.526C180.231 626.384 179.87 626.312 179.45 626.312C178.887 626.312 178.413 626.432 178.027 626.67C177.64 626.903 177.447 627.216 177.447 627.608C177.447 627.92 177.572 628.185 177.822 628.401C178.072 628.616 178.501 628.79 179.109 628.92L181.478 629.398C182.751 629.659 183.7 630.08 184.325 630.659C184.95 631.239 185.262 632 185.262 632.943C185.262 633.801 185.01 634.554 184.504 635.202C184.004 635.849 183.316 636.355 182.441 636.719C181.572 637.077 180.569 637.256 179.433 637.256C177.7 637.256 176.319 636.895 175.291 636.173C174.268 635.446 173.669 634.457 173.493 633.207L177.064 633.02C177.172 633.548 177.433 633.952 177.848 634.23C178.262 634.503 178.794 634.639 179.441 634.639C180.078 634.639 180.589 634.517 180.976 634.273C181.368 634.023 181.566 633.702 181.572 633.31C181.566 632.98 181.427 632.71 181.155 632.5C180.882 632.284 180.461 632.119 179.893 632.006L177.626 631.554C176.348 631.298 175.396 630.855 174.771 630.224C174.152 629.594 173.842 628.79 173.842 627.812C173.842 626.972 174.069 626.247 174.524 625.639C174.984 625.031 175.629 624.562 176.459 624.233C177.294 623.903 178.271 623.739 179.39 623.739C181.044 623.739 182.345 624.088 183.294 624.787C184.248 625.486 184.805 626.437 184.964 627.642ZM194.032 623.909V626.636H186.148V623.909H194.032ZM187.938 620.773H191.569V632.977C191.569 633.312 191.62 633.574 191.722 633.761C191.824 633.943 191.966 634.071 192.148 634.145C192.336 634.219 192.552 634.256 192.796 634.256C192.966 634.256 193.137 634.241 193.307 634.213C193.478 634.179 193.608 634.153 193.699 634.136L194.27 636.838C194.089 636.895 193.833 636.96 193.503 637.034C193.174 637.114 192.773 637.162 192.302 637.179C191.427 637.213 190.66 637.097 190.001 636.83C189.347 636.562 188.839 636.148 188.475 635.585C188.111 635.023 187.932 634.312 187.938 633.455V620.773Z" fill="black"/>
<rect x="297.055" y="589" width="21.1461" height="21.1461" fill="#00C176"/>
<rect x="297.055" y="618.427" width="21.1461" height="21.1461" fill="#008F57"/>
<rect x="297.055" y="647.854" width="21.1461" height="21.1461" fill="#005C38"/>
<rect x="331.583" y="589" width="21.1461" height="21.1461" fill="#FF003C"/>
<rect x="331.583" y="618.427" width="21.1461" height="21.1461" fill="#990024"/>
<rect x="331.583" y="647.854" width="21.1461" height="21.1461" fill="#660018"/>
<rect x="366.11" y="589" width="21.1461" height="21.1461" fill="#FABE28"/>
<rect x="366.11" y="618.427" width="21.1461" height="21.1461" fill="#EAA905"/>
<rect x="366.11" y="647.854" width="21.1461" height="21.1461" fill="#B88504"/>
<rect x="400.638" y="589" width="21.1461" height="21.1461" fill="#00C176"/>
<rect x="400.638" y="618.427" width="21.1461" height="21.1461" fill="#008F57"/>
<rect x="400.638" y="647.854" width="21.1461" height="21.1461" fill="#005C38"/>
<rect x="435.166" y="589" width="21.1461" height="21.1461" fill="#FF003C"/>
<rect x="435.166" y="618.427" width="21.1461" height="21.1461" fill="#990024"/>
<rect x="435.166" y="647.854" width="21.1461" height="21.1461" fill="#660018"/>
<rect x="469.693" y="589" width="21.1461" height="21.1461" fill="#FABE28"/>
<rect x="469.693" y="618.427" width="21.1461" height="21.1461" fill="#EAA905"/>
<rect x="469.693" y="647.854" width="21.1461" height="21.1461" fill="#B88504"/>
<rect x="504.221" y="589" width="21.1461" height="21.1461" fill="#00C176"/>
<rect x="504.221" y="618.427" width="21.1461" height="21.1461" fill="#008F57"/>
<rect x="504.221" y="647.854" width="21.1461" height="21.1461" fill="#005C38"/>
<rect x="745.231" y="589" width="21.1461" height="21.1461" fill="#FF003C"/>
<rect x="745.231" y="618.427" width="21.1461" height="21.1461" fill="#990024"/>
<rect x="745.231" y="647.854" width="21.1461" height="21.1461" fill="#660018"/>
<rect x="1055.98" y="589" width="21.1461" height="21.1461" fill="#FF003C"/>
<rect x="1055.98" y="618.427" width="21.1461" height="21.1461" fill="#990024"/>
<rect x="1055.98" y="647.854" width="21.1461" height="21.1461" fill="#660018"/>
<rect x="779.758" y="589" width="21.1461" height="21.1461" fill="#FABE28"/>
<rect x="779.758" y="618.427" width="21.1461" height="21.1461" fill="#EAA905"/>
<rect x="779.758" y="647.854" width="21.1461" height="21.1461" fill="#B88504"/>
<rect x="814.285" y="589" width="21.1461" height="21.1461" fill="#00C176"/>
<rect x="814.285" y="618.427" width="21.1461" height="21.1461" fill="#008F57"/>
<rect x="814.285" y="647.854" width="21.1461" height="21.1461" fill="#005C38"/>
<rect x="848.813" y="589" width="21.1461" height="21.1461" fill="#FF003C"/>
<rect x="848.813" y="618.427" width="21.1461" height="21.1461" fill="#990024"/>
<rect x="848.813" y="647.854" width="21.1461" height="21.1461" fill="#660018"/>
<rect x="883.341" y="589" width="21.1461" height="21.1461" fill="#FABE28"/>
<rect x="883.341" y="618.427" width="21.1461" height="21.1461" fill="#EAA905"/>
<rect x="883.341" y="647.854" width="21.1461" height="21.1461" fill="#B88504"/>
<rect x="917.869" y="589" width="21.1461" height="21.1461" fill="#00C176"/>
<rect x="917.869" y="618.427" width="21.1461" height="21.1461" fill="#008F57"/>
<rect x="917.869" y="647.854" width="21.1461" height="21.1461" fill="#005C38"/>
<rect x="952.396" y="589" width="21.1461" height="21.1461" fill="#FF003C"/>
<rect x="952.396" y="618.427" width="21.1461" height="21.1461" fill="#990024"/>
<rect x="952.396" y="647.854" width="21.1461" height="21.1461" fill="#660018"/>
<rect x="986.924" y="589" width="21.1461" height="21.1461" fill="#FABE28"/>
<rect x="986.924" y="618.427" width="21.1461" height="21.1461" fill="#EAA905"/>
<rect x="986.924" y="647.854" width="21.1461" height="21.1461" fill="#B88504"/>
<rect x="1021.45" y="589" width="21.1461" height="21.1461" fill="#00C176"/>
<rect x="1021.45" y="618.427" width="21.1461" height="21.1461" fill="#008F57"/>
<rect x="1021.45" y="647.854" width="21.1461" height="21.1461" fill="#005C38"/>
<rect x="573.01" y="589" width="21.1461" height="21.1461" fill="#FABE28"/>
<rect x="573.01" y="618.427" width="21.1461" height="21.1461" fill="#EAA905"/>
<rect x="573.01" y="647.854" width="21.1461" height="21.1461" fill="#B88504"/>
<rect x="607.538" y="589" width="21.1461" height="21.1461" fill="#00C176"/>
<rect x="607.538" y="618.427" width="21.1461" height="21.1461" fill="#008F57"/>
<rect x="607.538" y="647.854" width="21.1461" height="21.1461" fill="#005C38"/>
<rect x="642.066" y="589" width="21.1461" height="21.1461" fill="#FF003C"/>
<rect x="642.066" y="618.427" width="21.1461" height="21.1461" fill="#990024"/>
<rect x="642.066" y="647.854" width="21.1461" height="21.1461" fill="#660018"/>
<rect x="676.593" y="589" width="21.1461" height="21.1461" fill="#FABE28"/>
<rect x="676.593" y="618.427" width="21.1461" height="21.1461" fill="#EAA905"/>
<rect x="676.593" y="647.854" width="21.1461" height="21.1461" fill="#B88504"/>
<rect x="711.121" y="589" width="21.1461" height="21.1461" fill="#00C176"/>
<rect x="711.121" y="618.427" width="21.1461" height="21.1461" fill="#008F57"/>
<rect x="711.121" y="647.854" width="21.1461" height="21.1461" fill="#005C38"/>
<rect x="228" y="690" width="21.1461" height="21.1461" fill="#FF003C"/>
<rect x="228" y="719.427" width="21.1461" height="21.1461" fill="#990024"/>
<rect x="228" y="748.854" width="21.1461" height="21.1461" fill="#660018"/>
<rect x="538.748" y="690" width="21.1461" height="21.1461" fill="#FF003C"/>
<rect x="538.748" y="719.427" width="21.1461" height="21.1461" fill="#990024"/>
<rect x="538.748" y="748.854" width="21.1461" height="21.1461" fill="#660018"/>
<rect x="262.527" y="690" width="21.1461" height="21.1461" fill="#FABE28"/>
<rect x="262.527" y="719.427" width="21.1461" height="21.1461" fill="#EAA905"/>
<rect x="262.527" y="748.854" width="21.1461" height="21.1461" fill="#B88504"/>
<rect x="297.055" y="690" width="21.1461" height="21.1461" fill="#00C176"/>
<rect x="297.055" y="719.427" width="21.1461" height="21.1461" fill="#008F57"/>
<rect x="297.055" y="748.854" width="21.1461" height="21.1461" fill="#005C38"/>
<rect x="331.583" y="690" width="21.1461" height="21.1461" fill="#FF003C"/>
<rect x="331.583" y="719.427" width="21.1461" height="21.1461" fill="#990024"/>
<rect x="331.583" y="748.854" width="21.1461" height="21.1461" fill="#660018"/>
<rect x="366.11" y="690" width="21.1461" height="21.1461" fill="#FABE28"/>
<rect x="366.11" y="719.427" width="21.1461" height="21.1461" fill="#EAA905"/>
<rect x="366.11" y="748.854" width="21.1461" height="21.1461" fill="#B88504"/>
<rect x="400.638" y="690" width="21.1461" height="21.1461" fill="#00C176"/>
<rect x="400.638" y="719.427" width="21.1461" height="21.1461" fill="#008F57"/>
<rect x="400.638" y="748.854" width="21.1461" height="21.1461" fill="#005C38"/>
<rect x="435.166" y="690" width="21.1461" height="21.1461" fill="#FF003C"/>
<rect x="435.166" y="719.427" width="21.1461" height="21.1461" fill="#990024"/>
<rect x="435.166" y="748.854" width="21.1461" height="21.1461" fill="#660018"/>
<rect x="469.693" y="690" width="21.1461" height="21.1461" fill="#FABE28"/>
<rect x="469.693" y="719.427" width="21.1461" height="21.1461" fill="#EAA905"/>
<rect x="469.693" y="748.854" width="21.1461" height="21.1461" fill="#B88504"/>
<rect x="504.221" y="690" width="21.1461" height="21.1461" fill="#00C176"/>
<rect x="504.221" y="719.427" width="21.1461" height="21.1461" fill="#008F57"/>
<rect x="504.221" y="748.854" width="21.1461" height="21.1461" fill="#005C38"/>
<rect x="745.231" y="690" width="21.1461" height="21.1461" fill="#FF003C"/>
<rect x="745.231" y="719.427" width="21.1461" height="21.1461" fill="#990024"/>
<rect x="745.231" y="748.854" width="21.1461" height="21.1461" fill="#660018"/>
<rect x="1055.98" y="690" width="21.1461" height="21.1461" fill="#FF003C"/>
<rect x="1055.98" y="719.427" width="21.1461" height="21.1461" fill="#990024"/>
<rect x="1055.98" y="748.854" width="21.1461" height="21.1461" fill="#660018"/>
<rect x="779.758" y="690" width="21.1461" height="21.1461" fill="#FABE28"/>
<rect x="779.758" y="719.427" width="21.1461" height="21.1461" fill="#EAA905"/>
<rect x="779.758" y="748.854" width="21.1461" height="21.1461" fill="#B88504"/>
<rect x="814.285" y="690" width="21.1461" height="21.1461" fill="#00C176"/>
<rect x="814.285" y="719.427" width="21.1461" height="21.1461" fill="#008F57"/>
<rect x="814.285" y="748.854" width="21.1461" height="21.1461" fill="#005C38"/>
<rect x="848.813" y="690" width="21.1461" height="21.1461" fill="#FF003C"/>
<rect x="848.813" y="719.427" width="21.1461" height="21.1461" fill="#990024"/>
<rect x="848.813" y="748.854" width="21.1461" height="21.1461" fill="#660018"/>
<rect x="883.341" y="690" width="21.1461" height="21.1461" fill="#FABE28"/>
<rect x="883.341" y="719.427" width="21.1461" height="21.1461" fill="#EAA905"/>
<rect x="883.341" y="748.854" width="21.1461" height="21.1461" fill="#B88504"/>
<rect x="917.869" y="690" width="21.1461" height="21.1461" fill="#00C176"/>
<rect x="917.869" y="719.427" width="21.1461" height="21.1461" fill="#008F57"/>
<rect x="917.869" y="748.854" width="21.1461" height="21.1461" fill="#005C38"/>
<rect x="952.396" y="690" width="21.1461" height="21.1461" fill="#FF003C"/>
<rect x="952.396" y="719.427" width="21.1461" height="21.1461" fill="#990024"/>
<rect x="952.396" y="748.854" width="21.1461" height="21.1461" fill="#660018"/>
<rect x="986.924" y="690" width="21.1461" height="21.1461" fill="#FABE28"/>
<rect x="986.924" y="719.427" width="21.1461" height="21.1461" fill="#EAA905"/>
<rect x="986.924" y="748.854" width="21.1461" height="21.1461" fill="#B88504"/>
<rect x="1021.45" y="690" width="21.1461" height="21.1461" fill="#00C176"/>
<rect x="1021.45" y="719.427" width="21.1461" height="21.1461" fill="#008F57"/>
<rect x="1021.45" y="748.854" width="21.1461" height="21.1461" fill="#005C38"/>
<rect x="573.01" y="690" width="21.1461" height="21.1461" fill="#FABE28"/>
<rect x="573.01" y="719.427" width="21.1461" height="21.1461" fill="#EAA905"/>
<rect x="573.01" y="748.854" width="21.1461" height="21.1461" fill="#B88504"/>
<rect x="607.538" y="690" width="21.1461" height="21.1461" fill="#00C176"/>
<rect x="607.538" y="719.427" width="21.1461" height="21.1461" fill="#008F57"/>
<rect x="607.538" y="748.854" width="21.1461" height="21.1461" fill="#005C38"/>
<rect x="642.066" y="690" width="21.1461" height="21.1461" fill="#FF003C"/>
<rect x="642.066" y="719.427" width="21.1461" height="21.1461" fill="#990024"/>
<rect x="642.066" y="748.854" width="21.1461" height="21.1461" fill="#660018"/>
<rect x="676.593" y="690" width="21.1461" height="21.1461" fill="#FABE28"/>
<rect x="676.593" y="719.427" width="21.1461" height="21.1461" fill="#EAA905"/>
<rect x="676.593" y="748.854" width="21.1461" height="21.1461" fill="#B88504"/>
<rect x="711.121" y="690" width="21.1461" height="21.1461" fill="#00C176"/>
<rect x="711.121" y="719.427" width="21.1461" height="21.1461" fill="#008F57"/>
<rect x="711.121" y="748.854" width="21.1461" height="21.1461" fill="#005C38"/>
<path d="M143.481 670.909V652.909H147.061V655.108H147.223C147.382 654.756 147.612 654.398 147.913 654.034C148.22 653.665 148.618 653.358 149.106 653.114C149.601 652.864 150.214 652.739 150.947 652.739C151.902 652.739 152.782 652.989 153.589 653.489C154.396 653.983 155.041 654.73 155.524 655.73C156.007 656.724 156.248 657.972 156.248 659.472C156.248 660.932 156.013 662.165 155.541 663.17C155.075 664.17 154.439 664.929 153.632 665.446C152.831 665.957 151.933 666.213 150.939 666.213C150.234 666.213 149.635 666.097 149.14 665.864C148.652 665.631 148.251 665.338 147.939 664.986C147.626 664.628 147.388 664.267 147.223 663.903H147.112V670.909H143.481ZM147.035 659.455C147.035 660.233 147.143 660.912 147.359 661.491C147.575 662.071 147.888 662.523 148.297 662.847C148.706 663.165 149.203 663.324 149.788 663.324C150.379 663.324 150.879 663.162 151.288 662.838C151.697 662.509 152.007 662.054 152.217 661.474C152.433 660.889 152.541 660.216 152.541 659.455C152.541 658.699 152.436 658.034 152.226 657.46C152.015 656.886 151.706 656.437 151.297 656.114C150.888 655.79 150.385 655.628 149.788 655.628C149.197 655.628 148.697 655.784 148.288 656.097C147.885 656.409 147.575 656.852 147.359 657.426C147.143 658 147.035 658.676 147.035 659.455ZM158.189 666V652.909H161.709V655.193H161.845C162.084 654.381 162.484 653.767 163.047 653.352C163.609 652.932 164.257 652.722 164.99 652.722C165.172 652.722 165.368 652.733 165.578 652.756C165.788 652.778 165.973 652.81 166.132 652.849V656.071C165.962 656.02 165.726 655.974 165.425 655.935C165.124 655.895 164.848 655.875 164.598 655.875C164.064 655.875 163.587 655.991 163.166 656.224C162.751 656.452 162.422 656.77 162.177 657.179C161.939 657.588 161.82 658.06 161.82 658.594V666H158.189ZM172.835 666.256C171.511 666.256 170.366 665.974 169.4 665.412C168.44 664.844 167.698 664.054 167.175 663.043C166.653 662.026 166.391 660.847 166.391 659.506C166.391 658.153 166.653 656.972 167.175 655.96C167.698 654.943 168.44 654.153 169.4 653.591C170.366 653.023 171.511 652.739 172.835 652.739C174.158 652.739 175.3 653.023 176.261 653.591C177.227 654.153 177.971 654.943 178.494 655.96C179.016 656.972 179.278 658.153 179.278 659.506C179.278 660.847 179.016 662.026 178.494 663.043C177.971 664.054 177.227 664.844 176.261 665.412C175.3 665.974 174.158 666.256 172.835 666.256ZM172.852 663.443C173.454 663.443 173.957 663.273 174.36 662.932C174.764 662.585 175.068 662.114 175.272 661.517C175.482 660.92 175.587 660.241 175.587 659.48C175.587 658.719 175.482 658.04 175.272 657.443C175.068 656.847 174.764 656.375 174.36 656.028C173.957 655.682 173.454 655.509 172.852 655.509C172.244 655.509 171.732 655.682 171.318 656.028C170.908 656.375 170.599 656.847 170.389 657.443C170.184 658.04 170.082 658.719 170.082 659.48C170.082 660.241 170.184 660.92 170.389 661.517C170.599 662.114 170.908 662.585 171.318 662.932C171.732 663.273 172.244 663.443 172.852 663.443ZM185.982 666.213C184.988 666.213 184.088 665.957 183.281 665.446C182.48 664.929 181.843 664.17 181.372 663.17C180.906 662.165 180.673 660.932 180.673 659.472C180.673 657.972 180.914 656.724 181.397 655.73C181.88 654.73 182.522 653.983 183.323 653.489C184.13 652.989 185.014 652.739 185.974 652.739C186.707 652.739 187.318 652.864 187.806 653.114C188.301 653.358 188.698 653.665 188.999 654.034C189.306 654.398 189.539 654.756 189.698 655.108H189.809V648.545H193.431V666H189.852V663.903H189.698C189.528 664.267 189.286 664.628 188.974 664.986C188.667 665.338 188.267 665.631 187.772 665.864C187.284 666.097 186.687 666.213 185.982 666.213ZM187.133 663.324C187.718 663.324 188.213 663.165 188.616 662.847C189.025 662.523 189.338 662.071 189.553 661.491C189.775 660.912 189.886 660.233 189.886 659.455C189.886 658.676 189.778 658 189.562 657.426C189.346 656.852 189.034 656.409 188.624 656.097C188.215 655.784 187.718 655.628 187.133 655.628C186.536 655.628 186.034 655.79 185.624 656.114C185.215 656.437 184.906 656.886 184.695 657.46C184.485 658.034 184.38 658.699 184.38 659.455C184.38 660.216 184.485 660.889 184.695 661.474C184.911 662.054 185.221 662.509 185.624 662.838C186.034 663.162 186.536 663.324 187.133 663.324Z" fill="black"/>
<path d="M162.596 709.213C161.602 709.213 160.702 708.957 159.895 708.446C159.094 707.929 158.457 707.17 157.986 706.17C157.52 705.165 157.287 703.932 157.287 702.472C157.287 700.972 157.528 699.724 158.011 698.73C158.494 697.73 159.136 696.983 159.937 696.489C160.744 695.989 161.628 695.739 162.588 695.739C163.321 695.739 163.932 695.864 164.42 696.114C164.915 696.358 165.312 696.665 165.614 697.034C165.92 697.398 166.153 697.756 166.312 698.108H166.423V691.545H170.045V709H166.466V706.903H166.312C166.142 707.267 165.9 707.628 165.588 707.986C165.281 708.338 164.881 708.631 164.386 708.864C163.898 709.097 163.301 709.213 162.596 709.213ZM163.747 706.324C164.332 706.324 164.827 706.165 165.23 705.847C165.639 705.523 165.952 705.071 166.167 704.491C166.389 703.912 166.5 703.233 166.5 702.455C166.5 701.676 166.392 701 166.176 700.426C165.96 699.852 165.648 699.409 165.239 699.097C164.829 698.784 164.332 698.628 163.747 698.628C163.15 698.628 162.648 698.79 162.239 699.114C161.829 699.437 161.52 699.886 161.31 700.46C161.099 701.034 160.994 701.699 160.994 702.455C160.994 703.216 161.099 703.889 161.31 704.474C161.525 705.054 161.835 705.509 162.239 705.838C162.648 706.162 163.15 706.324 163.747 706.324ZM178.516 709.256C177.17 709.256 176.011 708.983 175.039 708.438C174.073 707.886 173.329 707.108 172.806 706.102C172.283 705.091 172.022 703.895 172.022 702.514C172.022 701.168 172.283 699.986 172.806 698.969C173.329 697.952 174.065 697.159 175.013 696.591C175.968 696.023 177.087 695.739 178.371 695.739C179.235 695.739 180.039 695.878 180.783 696.156C181.533 696.429 182.187 696.841 182.744 697.392C183.306 697.943 183.744 698.636 184.056 699.472C184.369 700.301 184.525 701.273 184.525 702.386V703.384H173.471V701.134H181.107C181.107 700.611 180.994 700.148 180.766 699.744C180.539 699.341 180.224 699.026 179.82 698.798C179.423 698.565 178.96 698.449 178.431 698.449C177.88 698.449 177.391 698.577 176.965 698.832C176.545 699.082 176.215 699.42 175.977 699.847C175.738 700.267 175.616 700.736 175.61 701.253V703.392C175.61 704.04 175.729 704.599 175.968 705.071C176.212 705.543 176.556 705.906 176.999 706.162C177.442 706.418 177.968 706.545 178.576 706.545C178.979 706.545 179.349 706.489 179.684 706.375C180.019 706.261 180.306 706.091 180.545 705.864C180.783 705.636 180.965 705.358 181.09 705.028L184.448 705.25C184.278 706.057 183.928 706.761 183.4 707.364C182.877 707.96 182.201 708.426 181.371 708.761C180.548 709.091 179.596 709.256 178.516 709.256ZM198.267 695.909L193.69 709H189.6L185.023 695.909H188.858L191.577 705.276H191.713L194.423 695.909H198.267Z" fill="black"/>
<path d="M158.464 724.909V727.636H150.58V724.909H158.464ZM152.37 721.773H156.001V733.977C156.001 734.312 156.052 734.574 156.154 734.761C156.257 734.943 156.399 735.071 156.58 735.145C156.768 735.219 156.984 735.256 157.228 735.256C157.399 735.256 157.569 735.241 157.74 735.213C157.91 735.179 158.041 735.153 158.132 735.136L158.703 737.838C158.521 737.895 158.265 737.96 157.936 738.034C157.606 738.114 157.205 738.162 156.734 738.179C155.859 738.213 155.092 738.097 154.433 737.83C153.779 737.562 153.271 737.148 152.907 736.585C152.544 736.023 152.365 735.312 152.37 734.455V721.773ZM166.174 738.256C164.828 738.256 163.669 737.983 162.697 737.438C161.731 736.886 160.987 736.108 160.464 735.102C159.941 734.091 159.68 732.895 159.68 731.514C159.68 730.168 159.941 728.986 160.464 727.969C160.987 726.952 161.723 726.159 162.671 725.591C163.626 725.023 164.745 724.739 166.029 724.739C166.893 724.739 167.697 724.878 168.441 725.156C169.191 725.429 169.845 725.841 170.402 726.392C170.964 726.943 171.402 727.636 171.714 728.472C172.027 729.301 172.183 730.273 172.183 731.386V732.384H161.129V730.134H168.765C168.765 729.611 168.652 729.148 168.424 728.744C168.197 728.341 167.882 728.026 167.478 727.798C167.081 727.565 166.617 727.449 166.089 727.449C165.538 727.449 165.049 727.577 164.623 727.832C164.203 728.082 163.873 728.42 163.635 728.847C163.396 729.267 163.274 729.736 163.268 730.253V732.392C163.268 733.04 163.387 733.599 163.626 734.071C163.87 734.543 164.214 734.906 164.657 735.162C165.1 735.418 165.626 735.545 166.234 735.545C166.637 735.545 167.007 735.489 167.342 735.375C167.677 735.261 167.964 735.091 168.203 734.864C168.441 734.636 168.623 734.358 168.748 734.028L172.106 734.25C171.936 735.057 171.586 735.761 171.058 736.364C170.535 736.96 169.859 737.426 169.029 737.761C168.206 738.091 167.254 738.256 166.174 738.256ZM184.964 728.642L181.64 728.847C181.584 728.562 181.461 728.307 181.274 728.08C181.086 727.847 180.839 727.662 180.532 727.526C180.231 727.384 179.87 727.312 179.45 727.312C178.887 727.312 178.413 727.432 178.027 727.67C177.64 727.903 177.447 728.216 177.447 728.608C177.447 728.92 177.572 729.185 177.822 729.401C178.072 729.616 178.501 729.79 179.109 729.92L181.478 730.398C182.751 730.659 183.7 731.08 184.325 731.659C184.95 732.239 185.262 733 185.262 733.943C185.262 734.801 185.01 735.554 184.504 736.202C184.004 736.849 183.316 737.355 182.441 737.719C181.572 738.077 180.569 738.256 179.433 738.256C177.7 738.256 176.319 737.895 175.291 737.173C174.268 736.446 173.669 735.457 173.493 734.207L177.064 734.02C177.172 734.548 177.433 734.952 177.848 735.23C178.262 735.503 178.794 735.639 179.441 735.639C180.078 735.639 180.589 735.517 180.976 735.273C181.368 735.023 181.566 734.702 181.572 734.31C181.566 733.98 181.427 733.71 181.155 733.5C180.882 733.284 180.461 733.119 179.893 733.006L177.626 732.554C176.348 732.298 175.396 731.855 174.771 731.224C174.152 730.594 173.842 729.79 173.842 728.812C173.842 727.972 174.069 727.247 174.524 726.639C174.984 726.031 175.629 725.562 176.459 725.233C177.294 724.903 178.271 724.739 179.39 724.739C181.044 724.739 182.345 725.088 183.294 725.787C184.248 726.486 184.805 727.437 184.964 728.642ZM194.032 724.909V727.636H186.148V724.909H194.032ZM187.938 721.773H191.569V733.977C191.569 734.312 191.62 734.574 191.722 734.761C191.824 734.943 191.966 735.071 192.148 735.145C192.336 735.219 192.552 735.256 192.796 735.256C192.966 735.256 193.137 735.241 193.307 735.213C193.478 735.179 193.608 735.153 193.699 735.136L194.27 737.838C194.089 737.895 193.833 737.96 193.503 738.034C193.174 738.114 192.773 738.162 192.302 738.179C191.427 738.213 190.66 738.097 190.001 737.83C189.347 737.562 188.839 737.148 188.475 736.585C188.111 736.023 187.932 735.312 187.938 734.455V721.773Z" fill="black"/>
<path d="M143.481 771.909V753.909H147.061V756.108H147.223C147.382 755.756 147.612 755.398 147.913 755.034C148.22 754.665 148.618 754.358 149.106 754.114C149.601 753.864 150.214 753.739 150.947 753.739C151.902 753.739 152.782 753.989 153.589 754.489C154.396 754.983 155.041 755.73 155.524 756.73C156.007 757.724 156.248 758.972 156.248 760.472C156.248 761.932 156.013 763.165 155.541 764.17C155.075 765.17 154.439 765.929 153.632 766.446C152.831 766.957 151.933 767.213 150.939 767.213C150.234 767.213 149.635 767.097 149.14 766.864C148.652 766.631 148.251 766.338 147.939 765.986C147.626 765.628 147.388 765.267 147.223 764.903H147.112V771.909H143.481ZM147.035 760.455C147.035 761.233 147.143 761.912 147.359 762.491C147.575 763.071 147.888 763.523 148.297 763.847C148.706 764.165 149.203 764.324 149.788 764.324C150.379 764.324 150.879 764.162 151.288 763.838C151.697 763.509 152.007 763.054 152.217 762.474C152.433 761.889 152.541 761.216 152.541 760.455C152.541 759.699 152.436 759.034 152.226 758.46C152.015 757.886 151.706 757.437 151.297 757.114C150.888 756.79 150.385 756.628 149.788 756.628C149.197 756.628 148.697 756.784 148.288 757.097C147.885 757.409 147.575 757.852 147.359 758.426C147.143 759 147.035 759.676 147.035 760.455ZM158.189 767V753.909H161.709V756.193H161.845C162.084 755.381 162.484 754.767 163.047 754.352C163.609 753.932 164.257 753.722 164.99 753.722C165.172 753.722 165.368 753.733 165.578 753.756C165.788 753.778 165.973 753.81 166.132 753.849V757.071C165.962 757.02 165.726 756.974 165.425 756.935C165.124 756.895 164.848 756.875 164.598 756.875C164.064 756.875 163.587 756.991 163.166 757.224C162.751 757.452 162.422 757.77 162.177 758.179C161.939 758.588 161.82 759.06 161.82 759.594V767H158.189ZM172.835 767.256C171.511 767.256 170.366 766.974 169.4 766.412C168.44 765.844 167.698 765.054 167.175 764.043C166.653 763.026 166.391 761.847 166.391 760.506C166.391 759.153 166.653 757.972 167.175 756.96C167.698 755.943 168.44 755.153 169.4 754.591C170.366 754.023 171.511 753.739 172.835 753.739C174.158 753.739 175.3 754.023 176.261 754.591C177.227 755.153 177.971 755.943 178.494 756.96C179.016 757.972 179.278 759.153 179.278 760.506C179.278 761.847 179.016 763.026 178.494 764.043C177.971 765.054 177.227 765.844 176.261 766.412C175.3 766.974 174.158 767.256 172.835 767.256ZM172.852 764.443C173.454 764.443 173.957 764.273 174.36 763.932C174.764 763.585 175.068 763.114 175.272 762.517C175.482 761.92 175.587 761.241 175.587 760.48C175.587 759.719 175.482 759.04 175.272 758.443C175.068 757.847 174.764 757.375 174.36 757.028C173.957 756.682 173.454 756.509 172.852 756.509C172.244 756.509 171.732 756.682 171.318 757.028C170.908 757.375 170.599 757.847 170.389 758.443C170.184 759.04 170.082 759.719 170.082 760.48C170.082 761.241 170.184 761.92 170.389 762.517C170.599 763.114 170.908 763.585 171.318 763.932C171.732 764.273 172.244 764.443 172.852 764.443ZM185.982 767.213C184.988 767.213 184.088 766.957 183.281 766.446C182.48 765.929 181.843 765.17 181.372 764.17C180.906 763.165 180.673 761.932 180.673 760.472C180.673 758.972 180.914 757.724 181.397 756.73C181.88 755.73 182.522 754.983 183.323 754.489C184.13 753.989 185.014 753.739 185.974 753.739C186.707 753.739 187.318 753.864 187.806 754.114C188.301 754.358 188.698 754.665 188.999 755.034C189.306 755.398 189.539 755.756 189.698 756.108H189.809V749.545H193.431V767H189.852V764.903H189.698C189.528 765.267 189.286 765.628 188.974 765.986C188.667 766.338 188.267 766.631 187.772 766.864C187.284 767.097 186.687 767.213 185.982 767.213ZM187.133 764.324C187.718 764.324 188.213 764.165 188.616 763.847C189.025 763.523 189.338 763.071 189.553 762.491C189.775 761.912 189.886 761.233 189.886 760.455C189.886 759.676 189.778 759 189.562 758.426C189.346 757.852 189.034 757.409 188.624 757.097C188.215 756.784 187.718 756.628 187.133 756.628C186.536 756.628 186.034 756.79 185.624 757.114C185.215 757.437 184.906 757.886 184.695 758.46C184.485 759.034 184.38 759.699 184.38 760.455C184.38 761.216 184.485 761.889 184.695 762.474C184.911 763.054 185.221 763.509 185.624 763.838C186.034 764.162 186.536 764.324 187.133 764.324Z" fill="black"/>
</svg>
