<svg width="1200" height="900" viewBox="0 0 1200 900" fill="none" xmlns="http://www.w3.org/2000/svg">
<rect width="1200" height="900" fill="white"/>
<g clip-path="url(#clip0_1_347)">
<g clip-path="url(#clip1_1_347)">
<path fill-rule="evenodd" clip-rule="evenodd" d="M1155.8 652C1158.12 652 1160 653.88 1160 656.2V698.2C1160 700.52 1158.12 702.4 1155.8 702.4H44.2C41.8804 702.4 40 700.52 40 698.2V656.2C40 653.88 41.8804 652 44.2 652H1155.8Z" fill="#7C7C7C"/>
<g clip-path="url(#clip2_1_347)">
<rect x="91.1" y="662.5" width="997" height="7" fill="#D8D8D8"/>
<path fill-rule="evenodd" clip-rule="evenodd" d="M50.5 662.5H65.9V669.5H50.5V662.5Z" fill="#D7D7D7"/>
<rect x="1120.7" y="662.5" width="7" height="7" fill="#D7D400"/>
<rect x="1110.9" y="662.5" width="7" height="7" fill="#FF3C00"/>
<path fill-rule="evenodd" clip-rule="evenodd" d="M1132.6 662.5H1148V669.344H1132.6V662.5Z" fill="#00CD00"/>
</g>
<g clip-path="url(#clip3_1_347)">
<rect x="91.1" y="673.7" width="997" height="7" fill="#D8D8D8"/>
<path fill-rule="evenodd" clip-rule="evenodd" d="M50.5 673.7H65.9V680.7H50.5V673.7Z" fill="#D7D7D7"/>
<rect x="1120.7" y="673.7" width="7" height="7" fill="#D7D400"/>
<rect x="1110.9" y="673.7" width="7" height="7" fill="#FF3C00"/>
<path fill-rule="evenodd" clip-rule="evenodd" d="M1132.6 673.7H1148V680.544H1132.6V673.7Z" fill="#00CD00"/>
</g>
<g clip-path="url(#clip4_1_347)">
<rect x="91.1" y="684.9" width="997" height="7" fill="#D8D8D8"/>
<path fill-rule="evenodd" clip-rule="evenodd" d="M50.5 684.9H65.9V691.9H50.5V684.9Z" fill="#D7D7D7"/>
<rect x="1120.7" y="684.9" width="7" height="7" fill="#D7D400"/>
<rect x="1110.9" y="684.9" width="7" height="7" fill="#FF3C00"/>
<path fill-rule="evenodd" clip-rule="evenodd" d="M1132.6 684.9H1148V691.744H1132.6V684.9Z" fill="#00CD00"/>
</g>
</g>
<path fill-rule="evenodd" clip-rule="evenodd" d="M1154.8 198C1157.12 198 1159 199.88 1159 202.2V640.8C1159 643.12 1157.12 645 1154.8 645H44.1999C41.8804 645 40 643.12 40 640.8V202.2C40 199.88 41.8804 198 44.2 198H1154.8Z" fill="#7C7C7C"/>
<rect x="51" y="225" width="1097" height="389" rx="1.68" fill="white"/>
<path fill-rule="evenodd" clip-rule="evenodd" d="M51 208H1148V215H51V208Z" fill="#D7D7D7"/>
<path fill-rule="evenodd" clip-rule="evenodd" d="M51 624H1148V631H51V624Z" fill="#D7D7D7"/>
</g>
<rect x="76" y="249" width="157" height="100" rx="5" fill="#066DA5"/>
<path fill-rule="evenodd" clip-rule="evenodd" d="M160.843 296.115H171.249V286.655H160.843V296.115ZM148.546 296.115H158.951V286.655H148.546V296.115ZM136.249 296.115H146.654V286.655H136.249V296.115ZM123.951 296.115H134.357V286.655H123.951V296.115ZM111.654 296.115H122.06V286.655H111.654V296.115ZM123.951 284.763H134.357V275.304H123.951V284.763ZM136.249 284.763H146.654V275.304H136.249V284.763ZM148.546 284.763H158.951V275.304H148.546V284.763ZM148.546 273.412H158.951V263.953H148.546V273.412ZM202.519 290.599C200.247 289.079 195.026 288.521 191.007 289.28C190.49 285.494 188.381 282.213 184.544 279.247L182.338 277.775L180.866 279.984C178.982 282.825 178.04 286.762 178.349 290.537C178.488 291.865 178.924 294.241 180.29 296.329C178.925 297.063 176.225 298.074 172.667 298.006H104.234L104.1 298.795C103.457 302.589 103.47 314.428 111.158 323.528C117.001 330.445 125.761 333.953 137.194 333.953C161.981 333.953 180.319 322.543 188.907 301.803C192.284 301.87 199.554 301.823 203.289 294.686C203.387 294.522 203.611 294.094 204.263 292.742L204.621 292.001L202.519 290.599Z" fill="white"/>
<defs>
<clipPath id="clip0_1_347">
<rect width="1120" height="505" fill="white" transform="translate(40 198)"/>
</clipPath>
<clipPath id="clip1_1_347">
<rect width="1120" height="51" fill="white" transform="translate(40 652)"/>
</clipPath>
<clipPath id="clip2_1_347">
<rect width="1098" height="8" fill="white" transform="translate(50.22 662.22)"/>
</clipPath>
<clipPath id="clip3_1_347">
<rect width="1098" height="8" fill="white" transform="translate(50.22 673.42)"/>
</clipPath>
<clipPath id="clip4_1_347">
<rect width="1098" height="8" fill="white" transform="translate(50.22 684.62)"/>
</clipPath>
</defs>
</svg>
