<svg width="1200" height="900" viewBox="0 0 1200 900" fill="none" xmlns="http://www.w3.org/2000/svg">
<rect width="1200" height="900" fill="white"/>
<path fill-rule="evenodd" clip-rule="evenodd" d="M401 655.599V698.001C401 698.132 400.994 698.263 400.981 698.393C400.968 698.523 400.948 698.653 400.923 698.781C400.898 698.91 400.866 699.036 400.828 699.162C400.79 699.287 400.746 699.41 400.696 699.531C400.645 699.652 400.589 699.771 400.528 699.886C400.466 700.002 400.399 700.114 400.326 700.223C400.253 700.332 400.175 700.437 400.092 700.538C400.009 700.639 399.922 700.736 399.829 700.829C399.736 700.921 399.639 701.009 399.538 701.092C399.437 701.175 399.332 701.253 399.223 701.326C399.114 701.399 399.001 701.466 398.886 701.528C398.771 701.59 398.652 701.645 398.531 701.696C398.41 701.746 398.287 701.79 398.162 701.828C398.037 701.866 397.91 701.898 397.781 701.923C397.653 701.949 397.524 701.968 397.393 701.981C397.262 701.994 397.132 702 397.001 702H43.999C43.868 702 43.7374 701.994 43.607 701.981C43.4767 701.968 43.3473 701.949 43.2188 701.923C43.0904 701.898 42.9635 701.866 42.8382 701.828C42.7128 701.79 42.5897 701.746 42.4687 701.696C42.3477 701.645 42.2294 701.59 42.1139 701.528C41.9984 701.466 41.8862 701.399 41.7773 701.326C41.6684 701.253 41.5633 701.175 41.4621 701.092C41.3608 701.009 41.2639 700.921 41.1713 700.829C41.0787 700.736 40.9908 700.639 40.9077 700.538C40.8246 700.437 40.7467 700.332 40.674 700.223C40.6012 700.114 40.5339 700.002 40.4722 699.886C40.4105 699.771 40.3545 699.652 40.3044 699.531C40.2543 699.41 40.2102 699.287 40.1722 699.162C40.1342 699.036 40.1024 698.91 40.0768 698.781C40.0513 698.653 40.0321 698.523 40.0193 698.393C40.0064 698.263 40 698.132 40 698.001V655.599C40 655.468 40.0064 655.337 40.0193 655.207C40.0321 655.077 40.0513 654.947 40.0768 654.819C40.1024 654.69 40.1342 654.563 40.1722 654.438C40.2102 654.313 40.2543 654.19 40.3044 654.069C40.3545 653.948 40.4105 653.829 40.4722 653.714C40.5339 653.598 40.6012 653.486 40.674 653.377C40.7467 653.268 40.8246 653.163 40.9077 653.062C40.9908 652.961 41.0787 652.864 41.1713 652.771C41.2639 652.679 41.3608 652.591 41.4621 652.508C41.5633 652.425 41.6684 652.347 41.7773 652.274C41.8862 652.201 41.9984 652.134 42.1139 652.072C42.2294 652.01 42.3477 651.955 42.4687 651.904C42.5897 651.854 42.7128 651.81 42.8382 651.772C42.9635 651.734 43.0904 651.702 43.2188 651.677C43.3473 651.651 43.4767 651.632 43.607 651.619C43.7374 651.606 43.868 651.6 43.999 651.6H397.001C397.132 651.6 397.262 651.606 397.393 651.619C397.524 651.632 397.653 651.651 397.781 651.677C397.91 651.702 398.037 651.734 398.162 651.772C398.287 651.81 398.41 651.854 398.531 651.904C398.652 651.955 398.771 652.01 398.886 652.072C399.001 652.134 399.114 652.201 399.223 652.274C399.332 652.347 399.437 652.425 399.538 652.508C399.639 652.591 399.736 652.679 399.829 652.771C399.922 652.864 400.009 652.961 400.092 653.062C400.175 653.163 400.253 653.268 400.326 653.377C400.399 653.486 400.466 653.598 400.528 653.714C400.589 653.829 400.645 653.948 400.696 654.069C400.746 654.19 400.79 654.313 400.828 654.438C400.866 654.563 400.898 654.69 400.923 654.819C400.948 654.947 400.968 655.077 400.981 655.207C400.994 655.337 401 655.468 401 655.599Z" fill="#7C7C7C"/>
<path fill-rule="evenodd" clip-rule="evenodd" d="M91.2119 662.52H329.64V669.24H91.2119V662.52Z" fill="#D8D8D8"/>
<path fill-rule="evenodd" clip-rule="evenodd" d="M50.9141 662.52H66.0257V669.24H50.9141V662.52Z" fill="#D7D7D7"/>
<path fill-rule="evenodd" clip-rule="evenodd" d="M363.221 662.52H369.937V669.24H363.221V662.52Z" fill="#D7D400"/>
<path fill-rule="evenodd" clip-rule="evenodd" d="M353.146 662.52H359.863V669.24H353.146V662.52Z" fill="#FF3C00"/>
<path fill-rule="evenodd" clip-rule="evenodd" d="M374.975 662.52H390.086V669.24H374.975V662.52Z" fill="#00CD00"/>
<path fill-rule="evenodd" clip-rule="evenodd" d="M91.2119 673.44H329.64V680.16H91.2119V673.44Z" fill="#D8D8D8"/>
<path fill-rule="evenodd" clip-rule="evenodd" d="M50.9141 673.44H66.0257V680.16H50.9141V673.44Z" fill="#D7D7D7"/>
<path fill-rule="evenodd" clip-rule="evenodd" d="M363.221 673.44H369.937V680.16H363.221V673.44Z" fill="#D7D400"/>
<path fill-rule="evenodd" clip-rule="evenodd" d="M353.146 673.44H359.863V680.16H353.146V673.44Z" fill="#FF3C00"/>
<path fill-rule="evenodd" clip-rule="evenodd" d="M374.975 673.44H390.086V680.16H374.975V673.44Z" fill="#00CD00"/>
<path fill-rule="evenodd" clip-rule="evenodd" d="M91.2119 684.36H329.64V691.08H91.2119V684.36Z" fill="#D8D8D8"/>
<path fill-rule="evenodd" clip-rule="evenodd" d="M50.9141 684.36H66.0257V691.08H50.9141V684.36Z" fill="#D7D7D7"/>
<path fill-rule="evenodd" clip-rule="evenodd" d="M363.221 684.36H369.937V691.08H363.221V684.36Z" fill="#D7D400"/>
<path fill-rule="evenodd" clip-rule="evenodd" d="M353.146 684.36H359.863V691.08H353.146V684.36Z" fill="#FF3C00"/>
<path fill-rule="evenodd" clip-rule="evenodd" d="M374.975 684.36H390.086V691.08H374.975V684.36Z" fill="#00CD00"/>
<path fill-rule="evenodd" clip-rule="evenodd" d="M401 201.999V640.881C401 641.012 400.994 641.142 400.981 641.273C400.968 641.404 400.948 641.533 400.923 641.661C400.898 641.79 400.866 641.917 400.828 642.042C400.79 642.167 400.746 642.29 400.696 642.411C400.645 642.532 400.589 642.651 400.528 642.766C400.466 642.881 400.399 642.994 400.326 643.103C400.253 643.212 400.175 643.317 400.092 643.418C400.009 643.519 399.922 643.616 399.829 643.709C399.736 643.802 399.639 643.889 399.538 643.972C399.437 644.055 399.332 644.133 399.223 644.206C399.114 644.279 399.001 644.346 398.886 644.408C398.771 644.469 398.652 644.525 398.531 644.576C398.41 644.626 398.287 644.67 398.162 644.708C398.037 644.746 397.91 644.778 397.781 644.803C397.653 644.828 397.524 644.848 397.393 644.861C397.262 644.874 397.132 644.88 397.001 644.88H43.999C43.868 644.88 43.7374 644.874 43.607 644.861C43.4767 644.848 43.3473 644.828 43.2188 644.803C43.0904 644.778 42.9635 644.746 42.8382 644.708C42.7128 644.67 42.5897 644.626 42.4687 644.576C42.3477 644.525 42.2294 644.469 42.1139 644.408C41.9984 644.346 41.8862 644.279 41.7773 644.206C41.6684 644.133 41.5633 644.055 41.4621 643.972C41.3608 643.889 41.2639 643.802 41.1713 643.709C41.0787 643.616 40.9908 643.519 40.9077 643.418C40.8246 643.317 40.7467 643.212 40.674 643.103C40.6012 642.994 40.5339 642.881 40.4722 642.766C40.4105 642.651 40.3545 642.532 40.3044 642.411C40.2543 642.29 40.2102 642.167 40.1722 642.042C40.1342 641.917 40.1024 641.79 40.0768 641.661C40.0513 641.533 40.0321 641.404 40.0193 641.273C40.0064 641.142 40 641.012 40 640.881V201.999C40 201.868 40.0064 201.737 40.0193 201.607C40.0321 201.477 40.0513 201.347 40.0768 201.219C40.1024 201.09 40.1342 200.963 40.1722 200.838C40.2102 200.713 40.2543 200.59 40.3044 200.469C40.3545 200.348 40.4105 200.229 40.4722 200.114C40.5339 199.998 40.6012 199.886 40.674 199.777C40.7467 199.668 40.8246 199.563 40.9077 199.462C40.9908 199.361 41.0787 199.264 41.1713 199.171C41.2639 199.079 41.3608 198.991 41.4621 198.908C41.5633 198.825 41.6684 198.747 41.7773 198.674C41.8862 198.601 41.9984 198.534 42.1139 198.472C42.2294 198.41 42.3477 198.355 42.4687 198.304C42.5897 198.254 42.7128 198.21 42.8382 198.172C42.9635 198.134 43.0904 198.102 43.2188 198.077C43.3473 198.051 43.4767 198.032 43.607 198.019C43.7374 198.006 43.868 198 43.999 198H397.001C397.132 198 397.262 198.006 397.393 198.019C397.524 198.032 397.653 198.051 397.781 198.077C397.91 198.102 398.037 198.134 398.162 198.172C398.287 198.21 398.41 198.254 398.531 198.304C398.652 198.355 398.771 198.41 398.886 198.472C399.001 198.534 399.114 198.601 399.223 198.674C399.332 198.747 399.437 198.825 399.538 198.908C399.639 198.991 399.736 199.079 399.829 199.171C399.922 199.264 400.009 199.361 400.092 199.462C400.175 199.563 400.253 199.668 400.326 199.777C400.399 199.886 400.466 199.998 400.528 200.114C400.589 200.229 400.645 200.348 400.696 200.469C400.746 200.59 400.79 200.713 400.828 200.838C400.866 200.963 400.898 201.09 400.923 201.219C400.948 201.347 400.968 201.477 400.981 201.607C400.994 201.737 401 201.868 401 201.999Z" fill="#7C7C7C"/>
<path fill-rule="evenodd" clip-rule="evenodd" d="M52.9131 224.88H388.087C388.152 224.88 388.218 224.883 388.283 224.89C388.348 224.896 388.413 224.906 388.477 224.918C388.541 224.931 388.604 224.947 388.667 224.966C388.73 224.985 388.791 225.007 388.852 225.032C388.913 225.057 388.972 225.085 389.029 225.116C389.087 225.147 389.143 225.181 389.198 225.217C389.252 225.253 389.304 225.292 389.355 225.334C389.406 225.375 389.454 225.419 389.501 225.465C389.547 225.512 389.591 225.56 389.632 225.611C389.674 225.661 389.713 225.714 389.749 225.768C389.786 225.823 389.819 225.879 389.85 225.937C389.881 225.994 389.909 226.054 389.934 226.114C389.959 226.175 389.981 226.236 390 226.299C390.019 226.361 390.035 226.425 390.048 226.489C390.061 226.553 390.07 226.618 390.076 226.683C390.083 226.748 390.086 226.814 390.086 226.879V612.641C390.086 612.706 390.083 612.772 390.076 612.837C390.07 612.902 390.061 612.967 390.048 613.031C390.035 613.095 390.019 613.158 390 613.221C389.981 613.284 389.959 613.345 389.934 613.406C389.909 613.467 389.881 613.526 389.85 613.583C389.819 613.641 389.786 613.697 389.749 613.752C389.713 613.806 389.674 613.858 389.632 613.909C389.591 613.96 389.547 614.008 389.501 614.054C389.454 614.101 389.406 614.145 389.355 614.186C389.304 614.228 389.252 614.267 389.198 614.303C389.143 614.34 389.087 614.373 389.029 614.404C388.972 614.435 388.913 614.463 388.852 614.488C388.791 614.513 388.73 614.535 388.667 614.554C388.604 614.573 388.541 614.589 388.477 614.602C388.413 614.615 388.348 614.624 388.283 614.63C388.218 614.637 388.152 614.64 388.087 614.64H52.9131C52.8476 614.64 52.7823 614.637 52.7171 614.63C52.652 614.624 52.5873 614.615 52.5231 614.602C52.4589 614.589 52.3954 614.573 52.3328 614.554C52.2701 614.535 52.2086 614.513 52.1481 614.488C52.0876 614.463 52.0285 614.435 51.9707 614.404C51.913 614.373 51.8569 614.34 51.8025 614.303C51.748 614.267 51.6955 614.228 51.6449 614.186C51.5943 614.145 51.5459 614.101 51.4996 614.055C51.4533 614.008 51.4093 613.96 51.3678 613.909C51.3263 613.858 51.2873 613.806 51.251 613.752C51.2146 613.697 51.181 613.641 51.1501 613.583C51.1192 613.526 51.0913 613.467 51.0662 613.406C51.0412 613.345 51.0191 613.284 51.0001 613.221C50.9811 613.158 50.9652 613.095 50.9525 613.031C50.9397 612.967 50.9301 612.902 50.9237 612.837C50.9173 612.772 50.9141 612.706 50.9141 612.641V226.879C50.9141 226.814 50.9173 226.748 50.9237 226.683C50.9301 226.618 50.9397 226.553 50.9525 226.489C50.9652 226.425 50.9811 226.361 51.0001 226.299C51.0191 226.236 51.0412 226.175 51.0662 226.114C51.0913 226.054 51.1192 225.994 51.1501 225.937C51.181 225.879 51.2146 225.823 51.251 225.768C51.2873 225.714 51.3263 225.661 51.3678 225.611C51.4093 225.56 51.4533 225.512 51.4996 225.465C51.5459 225.419 51.5943 225.375 51.6449 225.334C51.6955 225.292 51.748 225.253 51.8025 225.217C51.8569 225.181 51.913 225.147 51.9707 225.116C52.0285 225.085 52.0876 225.057 52.1481 225.032C52.2086 225.007 52.2701 224.985 52.3328 224.966C52.3954 224.947 52.4589 224.931 52.5231 224.918C52.5873 224.906 52.652 224.896 52.7171 224.89C52.7823 224.883 52.8476 224.88 52.9131 224.88Z" fill="white"/>
<path fill-rule="evenodd" clip-rule="evenodd" d="M50.9141 208.08H390.086V214.8H50.9141V208.08Z" fill="#D7D7D7"/>
<path fill-rule="evenodd" clip-rule="evenodd" d="M50.9141 624.72H390.086V631.44H50.9141V624.72Z" fill="#D7D7D7"/>
<path fill-rule="evenodd" clip-rule="evenodd" d="M780 655.599V698.001C780 698.132 779.994 698.263 779.981 698.393C779.968 698.523 779.948 698.653 779.923 698.781C779.898 698.91 779.866 699.036 779.828 699.162C779.79 699.287 779.746 699.41 779.696 699.531C779.645 699.652 779.589 699.771 779.528 699.886C779.466 700.002 779.399 700.114 779.326 700.223C779.253 700.332 779.175 700.437 779.092 700.538C779.009 700.639 778.922 700.736 778.829 700.829C778.736 700.921 778.639 701.009 778.538 701.092C778.437 701.175 778.332 701.253 778.223 701.326C778.114 701.399 778.001 701.466 777.886 701.528C777.771 701.59 777.652 701.645 777.531 701.696C777.41 701.746 777.287 701.79 777.162 701.828C777.037 701.866 776.91 701.898 776.781 701.923C776.653 701.949 776.524 701.968 776.393 701.981C776.262 701.994 776.132 702 776.001 702H422.999C422.868 702 422.737 701.994 422.607 701.981C422.477 701.968 422.347 701.949 422.219 701.923C422.09 701.898 421.963 701.866 421.838 701.828C421.713 701.79 421.59 701.746 421.469 701.696C421.348 701.645 421.229 701.59 421.114 701.528C420.998 701.466 420.886 701.399 420.777 701.326C420.668 701.253 420.563 701.175 420.462 701.092C420.361 701.009 420.264 700.921 420.171 700.829C420.079 700.736 419.991 700.639 419.908 700.538C419.825 700.437 419.747 700.332 419.674 700.223C419.601 700.114 419.534 700.002 419.472 699.886C419.41 699.771 419.355 699.652 419.304 699.531C419.254 699.41 419.21 699.287 419.172 699.162C419.134 699.036 419.102 698.91 419.077 698.781C419.051 698.653 419.032 698.523 419.019 698.393C419.006 698.263 419 698.132 419 698.001V655.599C419 655.468 419.006 655.337 419.019 655.207C419.032 655.077 419.051 654.947 419.077 654.819C419.102 654.69 419.134 654.563 419.172 654.438C419.21 654.313 419.254 654.19 419.304 654.069C419.355 653.948 419.41 653.829 419.472 653.714C419.534 653.598 419.601 653.486 419.674 653.377C419.747 653.268 419.825 653.163 419.908 653.062C419.991 652.961 420.079 652.864 420.171 652.771C420.264 652.679 420.361 652.591 420.462 652.508C420.563 652.425 420.668 652.347 420.777 652.274C420.886 652.201 420.998 652.134 421.114 652.072C421.229 652.01 421.348 651.955 421.469 651.904C421.59 651.854 421.713 651.81 421.838 651.772C421.963 651.734 422.09 651.702 422.219 651.677C422.347 651.651 422.477 651.632 422.607 651.619C422.737 651.606 422.868 651.6 422.999 651.6H776.001C776.132 651.6 776.262 651.606 776.393 651.619C776.524 651.632 776.653 651.651 776.781 651.677C776.91 651.702 777.037 651.734 777.162 651.772C777.287 651.81 777.41 651.854 777.531 651.904C777.652 651.955 777.771 652.01 777.886 652.072C778.001 652.134 778.114 652.201 778.223 652.274C778.332 652.347 778.437 652.425 778.538 652.508C778.639 652.591 778.736 652.679 778.829 652.771C778.922 652.864 779.009 652.961 779.092 653.062C779.175 653.163 779.253 653.268 779.326 653.377C779.399 653.486 779.466 653.598 779.528 653.714C779.589 653.829 779.645 653.948 779.696 654.069C779.746 654.19 779.79 654.313 779.828 654.438C779.866 654.563 779.898 654.69 779.923 654.819C779.948 654.947 779.968 655.077 779.981 655.207C779.994 655.337 780 655.468 780 655.599Z" fill="#7C7C7C"/>
<path fill-rule="evenodd" clip-rule="evenodd" d="M470.212 662.52H708.64V669.24H470.212V662.52Z" fill="#D8D8D8"/>
<path fill-rule="evenodd" clip-rule="evenodd" d="M429.914 662.52H445.026V669.24H429.914V662.52Z" fill="#D7D7D7"/>
<path fill-rule="evenodd" clip-rule="evenodd" d="M742.221 662.52H748.937V669.24H742.221V662.52Z" fill="#D7D400"/>
<path fill-rule="evenodd" clip-rule="evenodd" d="M732.147 662.52H738.863V669.24H732.147V662.52Z" fill="#FF3C00"/>
<path fill-rule="evenodd" clip-rule="evenodd" d="M753.975 662.52H769.086V669.24H753.975V662.52Z" fill="#00CD00"/>
<path fill-rule="evenodd" clip-rule="evenodd" d="M470.212 673.44H708.64V680.16H470.212V673.44Z" fill="#D8D8D8"/>
<path fill-rule="evenodd" clip-rule="evenodd" d="M429.914 673.44H445.026V680.16H429.914V673.44Z" fill="#D7D7D7"/>
<path fill-rule="evenodd" clip-rule="evenodd" d="M742.221 673.44H748.937V680.16H742.221V673.44Z" fill="#D7D400"/>
<path fill-rule="evenodd" clip-rule="evenodd" d="M732.147 673.44H738.863V680.16H732.147V673.44Z" fill="#FF3C00"/>
<path fill-rule="evenodd" clip-rule="evenodd" d="M753.975 673.44H769.086V680.16H753.975V673.44Z" fill="#00CD00"/>
<path fill-rule="evenodd" clip-rule="evenodd" d="M470.212 684.36H708.64V691.08H470.212V684.36Z" fill="#D8D8D8"/>
<path fill-rule="evenodd" clip-rule="evenodd" d="M429.914 684.36H445.026V691.08H429.914V684.36Z" fill="#D7D7D7"/>
<path fill-rule="evenodd" clip-rule="evenodd" d="M742.221 684.36H748.937V691.08H742.221V684.36Z" fill="#D7D400"/>
<path fill-rule="evenodd" clip-rule="evenodd" d="M732.147 684.36H738.863V691.08H732.147V684.36Z" fill="#FF3C00"/>
<path fill-rule="evenodd" clip-rule="evenodd" d="M753.975 684.36H769.086V691.08H753.975V684.36Z" fill="#00CD00"/>
<path fill-rule="evenodd" clip-rule="evenodd" d="M780 201.999V640.881C780 641.012 779.994 641.142 779.981 641.273C779.968 641.404 779.948 641.533 779.923 641.661C779.898 641.79 779.866 641.917 779.828 642.042C779.79 642.167 779.746 642.29 779.696 642.411C779.645 642.532 779.589 642.651 779.528 642.766C779.466 642.881 779.399 642.994 779.326 643.103C779.253 643.212 779.175 643.317 779.092 643.418C779.009 643.519 778.922 643.616 778.829 643.709C778.736 643.802 778.639 643.889 778.538 643.972C778.437 644.055 778.332 644.133 778.223 644.206C778.114 644.279 778.001 644.346 777.886 644.408C777.771 644.469 777.652 644.525 777.531 644.576C777.41 644.626 777.287 644.67 777.162 644.708C777.037 644.746 776.91 644.778 776.781 644.803C776.653 644.828 776.524 644.848 776.393 644.861C776.262 644.874 776.132 644.88 776.001 644.88H422.999C422.868 644.88 422.737 644.874 422.607 644.861C422.477 644.848 422.347 644.828 422.219 644.803C422.09 644.778 421.963 644.746 421.838 644.708C421.713 644.67 421.59 644.626 421.469 644.576C421.348 644.525 421.229 644.469 421.114 644.408C420.998 644.346 420.886 644.279 420.777 644.206C420.668 644.133 420.563 644.055 420.462 643.972C420.361 643.889 420.264 643.802 420.171 643.709C420.079 643.616 419.991 643.519 419.908 643.418C419.825 643.317 419.747 643.212 419.674 643.103C419.601 642.994 419.534 642.881 419.472 642.766C419.41 642.651 419.355 642.532 419.304 642.411C419.254 642.29 419.21 642.167 419.172 642.042C419.134 641.917 419.102 641.79 419.077 641.661C419.051 641.533 419.032 641.404 419.019 641.273C419.006 641.142 419 641.012 419 640.881V201.999C419 201.868 419.006 201.737 419.019 201.607C419.032 201.477 419.051 201.347 419.077 201.219C419.102 201.09 419.134 200.963 419.172 200.838C419.21 200.713 419.254 200.59 419.304 200.469C419.355 200.348 419.41 200.229 419.472 200.114C419.534 199.998 419.601 199.886 419.674 199.777C419.747 199.668 419.825 199.563 419.908 199.462C419.991 199.361 420.079 199.264 420.171 199.171C420.264 199.079 420.361 198.991 420.462 198.908C420.563 198.825 420.668 198.747 420.777 198.674C420.886 198.601 420.998 198.534 421.114 198.472C421.229 198.41 421.348 198.355 421.469 198.304C421.59 198.254 421.713 198.21 421.838 198.172C421.963 198.134 422.09 198.102 422.219 198.077C422.347 198.051 422.477 198.032 422.607 198.019C422.737 198.006 422.868 198 422.999 198H776.001C776.132 198 776.262 198.006 776.393 198.019C776.524 198.032 776.653 198.051 776.781 198.077C776.91 198.102 777.037 198.134 777.162 198.172C777.287 198.21 777.41 198.254 777.531 198.304C777.652 198.355 777.771 198.41 777.886 198.472C778.001 198.534 778.114 198.601 778.223 198.674C778.332 198.747 778.437 198.825 778.538 198.908C778.639 198.991 778.736 199.079 778.829 199.171C778.922 199.264 779.009 199.361 779.092 199.462C779.175 199.563 779.253 199.668 779.326 199.777C779.399 199.886 779.466 199.998 779.528 200.114C779.589 200.229 779.645 200.348 779.696 200.469C779.746 200.59 779.79 200.713 779.828 200.838C779.866 200.963 779.898 201.09 779.923 201.219C779.948 201.347 779.968 201.477 779.981 201.607C779.994 201.737 780 201.868 780 201.999Z" fill="#7C7C7C"/>
<path fill-rule="evenodd" clip-rule="evenodd" d="M431.913 224.88H767.087C767.152 224.88 767.218 224.883 767.283 224.89C767.348 224.896 767.413 224.906 767.477 224.918C767.541 224.931 767.604 224.947 767.667 224.966C767.73 224.985 767.791 225.007 767.852 225.032C767.913 225.057 767.972 225.085 768.029 225.116C768.087 225.147 768.143 225.181 768.198 225.217C768.252 225.253 768.304 225.292 768.355 225.334C768.406 225.375 768.454 225.419 768.501 225.465C768.547 225.512 768.591 225.56 768.632 225.611C768.674 225.661 768.713 225.714 768.749 225.768C768.786 225.823 768.819 225.879 768.85 225.937C768.881 225.994 768.909 226.054 768.934 226.114C768.959 226.175 768.981 226.236 769 226.299C769.019 226.361 769.035 226.425 769.048 226.489C769.061 226.553 769.07 226.618 769.076 226.683C769.083 226.748 769.086 226.814 769.086 226.879V612.641C769.086 612.706 769.083 612.772 769.076 612.837C769.07 612.902 769.061 612.967 769.048 613.031C769.035 613.095 769.019 613.158 769 613.221C768.981 613.284 768.959 613.345 768.934 613.406C768.909 613.467 768.881 613.526 768.85 613.583C768.819 613.641 768.786 613.697 768.749 613.752C768.713 613.806 768.674 613.858 768.632 613.909C768.591 613.96 768.547 614.008 768.501 614.054C768.454 614.101 768.406 614.145 768.355 614.186C768.304 614.228 768.252 614.267 768.198 614.303C768.143 614.34 768.087 614.373 768.029 614.404C767.972 614.435 767.913 614.463 767.852 614.488C767.791 614.513 767.73 614.535 767.667 614.554C767.604 614.573 767.541 614.589 767.477 614.602C767.413 614.615 767.348 614.624 767.283 614.63C767.218 614.637 767.152 614.64 767.087 614.64H431.913C431.848 614.64 431.782 614.637 431.717 614.63C431.652 614.624 431.587 614.615 431.523 614.602C431.459 614.589 431.395 614.573 431.333 614.554C431.27 614.535 431.209 614.513 431.148 614.488C431.088 614.463 431.028 614.435 430.971 614.404C430.913 614.373 430.857 614.34 430.802 614.303C430.748 614.267 430.696 614.228 430.645 614.186C430.594 614.145 430.546 614.101 430.5 614.055C430.453 614.008 430.409 613.96 430.368 613.909C430.326 613.858 430.287 613.806 430.251 613.752C430.215 613.697 430.181 613.641 430.15 613.583C430.119 613.526 430.091 613.467 430.066 613.406C430.041 613.345 430.019 613.284 430 613.221C429.981 613.158 429.965 613.095 429.952 613.031C429.94 612.967 429.93 612.902 429.924 612.837C429.917 612.772 429.914 612.706 429.914 612.641V226.879C429.914 226.814 429.917 226.748 429.924 226.683C429.93 226.618 429.94 226.553 429.952 226.489C429.965 226.425 429.981 226.361 430 226.299C430.019 226.236 430.041 226.175 430.066 226.114C430.091 226.054 430.119 225.994 430.15 225.937C430.181 225.879 430.215 225.823 430.251 225.768C430.287 225.714 430.326 225.661 430.368 225.611C430.409 225.56 430.453 225.512 430.5 225.465C430.546 225.419 430.594 225.375 430.645 225.334C430.696 225.292 430.748 225.253 430.802 225.217C430.857 225.181 430.913 225.147 430.971 225.116C431.028 225.085 431.088 225.057 431.148 225.032C431.209 225.007 431.27 224.985 431.333 224.966C431.395 224.947 431.459 224.931 431.523 224.918C431.587 224.906 431.652 224.896 431.717 224.89C431.782 224.883 431.848 224.88 431.913 224.88Z" fill="white"/>
<path fill-rule="evenodd" clip-rule="evenodd" d="M429.914 208.08H769.086V214.8H429.914V208.08Z" fill="#D7D7D7"/>
<path fill-rule="evenodd" clip-rule="evenodd" d="M429.914 624.72H769.086V631.44H429.914V624.72Z" fill="#D7D7D7"/>
<path fill-rule="evenodd" clip-rule="evenodd" d="M1159 655.599V698.001C1159 698.132 1158.99 698.263 1158.98 698.393C1158.97 698.523 1158.95 698.653 1158.92 698.781C1158.9 698.91 1158.87 699.036 1158.83 699.162C1158.79 699.287 1158.75 699.41 1158.7 699.531C1158.65 699.652 1158.59 699.771 1158.53 699.886C1158.47 700.002 1158.4 700.114 1158.33 700.223C1158.25 700.332 1158.18 700.437 1158.09 700.538C1158.01 700.639 1157.92 700.736 1157.83 700.829C1157.74 700.921 1157.64 701.009 1157.54 701.092C1157.44 701.175 1157.33 701.253 1157.22 701.326C1157.11 701.399 1157 701.466 1156.89 701.528C1156.77 701.59 1156.65 701.645 1156.53 701.696C1156.41 701.746 1156.29 701.79 1156.16 701.828C1156.04 701.866 1155.91 701.898 1155.78 701.923C1155.65 701.949 1155.52 701.968 1155.39 701.981C1155.26 701.994 1155.13 702 1155 702H801.999C801.868 702 801.737 701.994 801.607 701.981C801.477 701.968 801.347 701.949 801.219 701.923C801.09 701.898 800.963 701.866 800.838 701.828C800.713 701.79 800.59 701.746 800.469 701.696C800.348 701.645 800.229 701.59 800.114 701.528C799.998 701.466 799.886 701.399 799.777 701.326C799.668 701.253 799.563 701.175 799.462 701.092C799.361 701.009 799.264 700.921 799.171 700.829C799.079 700.736 798.991 700.639 798.908 700.538C798.825 700.437 798.747 700.332 798.674 700.223C798.601 700.114 798.534 700.002 798.472 699.886C798.41 699.771 798.355 699.652 798.304 699.531C798.254 699.41 798.21 699.287 798.172 699.162C798.134 699.036 798.102 698.91 798.077 698.781C798.051 698.653 798.032 698.523 798.019 698.393C798.006 698.263 798 698.132 798 698.001V655.599C798 655.468 798.006 655.337 798.019 655.207C798.032 655.077 798.051 654.947 798.077 654.819C798.102 654.69 798.134 654.563 798.172 654.438C798.21 654.313 798.254 654.19 798.304 654.069C798.355 653.948 798.41 653.829 798.472 653.714C798.534 653.598 798.601 653.486 798.674 653.377C798.747 653.268 798.825 653.163 798.908 653.062C798.991 652.961 799.079 652.864 799.171 652.771C799.264 652.679 799.361 652.591 799.462 652.508C799.563 652.425 799.668 652.347 799.777 652.274C799.886 652.201 799.998 652.134 800.114 652.072C800.229 652.01 800.348 651.955 800.469 651.904C800.59 651.854 800.713 651.81 800.838 651.772C800.963 651.734 801.09 651.702 801.219 651.677C801.347 651.651 801.477 651.632 801.607 651.619C801.737 651.606 801.868 651.6 801.999 651.6H1155C1155.13 651.6 1155.26 651.606 1155.39 651.619C1155.52 651.632 1155.65 651.651 1155.78 651.677C1155.91 651.702 1156.04 651.734 1156.16 651.772C1156.29 651.81 1156.41 651.854 1156.53 651.904C1156.65 651.955 1156.77 652.01 1156.89 652.072C1157 652.134 1157.11 652.201 1157.22 652.274C1157.33 652.347 1157.44 652.425 1157.54 652.508C1157.64 652.591 1157.74 652.679 1157.83 652.771C1157.92 652.864 1158.01 652.961 1158.09 653.062C1158.18 653.163 1158.25 653.268 1158.33 653.377C1158.4 653.486 1158.47 653.598 1158.53 653.714C1158.59 653.829 1158.65 653.948 1158.7 654.069C1158.75 654.19 1158.79 654.313 1158.83 654.438C1158.87 654.563 1158.9 654.69 1158.92 654.819C1158.95 654.947 1158.97 655.077 1158.98 655.207C1158.99 655.337 1159 655.468 1159 655.599Z" fill="#7C7C7C"/>
<path fill-rule="evenodd" clip-rule="evenodd" d="M849.212 662.52H1087.64V669.24H849.212V662.52Z" fill="#D8D8D8"/>
<path fill-rule="evenodd" clip-rule="evenodd" d="M808.914 662.52H824.026V669.24H808.914V662.52Z" fill="#D7D7D7"/>
<path fill-rule="evenodd" clip-rule="evenodd" d="M1121.22 662.52H1127.94V669.24H1121.22V662.52Z" fill="#D7D400"/>
<path fill-rule="evenodd" clip-rule="evenodd" d="M1111.15 662.52H1117.86V669.24H1111.15V662.52Z" fill="#FF3C00"/>
<path fill-rule="evenodd" clip-rule="evenodd" d="M1132.97 662.52H1148.09V669.24H1132.97V662.52Z" fill="#00CD00"/>
<path fill-rule="evenodd" clip-rule="evenodd" d="M849.212 673.44H1087.64V680.16H849.212V673.44Z" fill="#D8D8D8"/>
<path fill-rule="evenodd" clip-rule="evenodd" d="M808.914 673.44H824.026V680.16H808.914V673.44Z" fill="#D7D7D7"/>
<path fill-rule="evenodd" clip-rule="evenodd" d="M1121.22 673.44H1127.94V680.16H1121.22V673.44Z" fill="#D7D400"/>
<path fill-rule="evenodd" clip-rule="evenodd" d="M1111.15 673.44H1117.86V680.16H1111.15V673.44Z" fill="#FF3C00"/>
<path fill-rule="evenodd" clip-rule="evenodd" d="M1132.97 673.44H1148.09V680.16H1132.97V673.44Z" fill="#00CD00"/>
<path fill-rule="evenodd" clip-rule="evenodd" d="M849.212 684.36H1087.64V691.08H849.212V684.36Z" fill="#D8D8D8"/>
<path fill-rule="evenodd" clip-rule="evenodd" d="M808.914 684.36H824.026V691.08H808.914V684.36Z" fill="#D7D7D7"/>
<path fill-rule="evenodd" clip-rule="evenodd" d="M1121.22 684.36H1127.94V691.08H1121.22V684.36Z" fill="#D7D400"/>
<path fill-rule="evenodd" clip-rule="evenodd" d="M1111.15 684.36H1117.86V691.08H1111.15V684.36Z" fill="#FF3C00"/>
<path fill-rule="evenodd" clip-rule="evenodd" d="M1132.97 684.36H1148.09V691.08H1132.97V684.36Z" fill="#00CD00"/>
<path fill-rule="evenodd" clip-rule="evenodd" d="M1159 201.999V640.881C1159 641.012 1158.99 641.142 1158.98 641.273C1158.97 641.404 1158.95 641.533 1158.92 641.661C1158.9 641.79 1158.87 641.917 1158.83 642.042C1158.79 642.167 1158.75 642.29 1158.7 642.411C1158.65 642.532 1158.59 642.651 1158.53 642.766C1158.47 642.881 1158.4 642.994 1158.33 643.103C1158.25 643.212 1158.18 643.317 1158.09 643.418C1158.01 643.519 1157.92 643.616 1157.83 643.709C1157.74 643.802 1157.64 643.889 1157.54 643.972C1157.44 644.055 1157.33 644.133 1157.22 644.206C1157.11 644.279 1157 644.346 1156.89 644.408C1156.77 644.469 1156.65 644.525 1156.53 644.576C1156.41 644.626 1156.29 644.67 1156.16 644.708C1156.04 644.746 1155.91 644.778 1155.78 644.803C1155.65 644.828 1155.52 644.848 1155.39 644.861C1155.26 644.874 1155.13 644.88 1155 644.88H801.999C801.868 644.88 801.737 644.874 801.607 644.861C801.477 644.848 801.347 644.828 801.219 644.803C801.09 644.778 800.963 644.746 800.838 644.708C800.713 644.67 800.59 644.626 800.469 644.576C800.348 644.525 800.229 644.469 800.114 644.408C799.998 644.346 799.886 644.279 799.777 644.206C799.668 644.133 799.563 644.055 799.462 643.972C799.361 643.889 799.264 643.802 799.171 643.709C799.079 643.616 798.991 643.519 798.908 643.418C798.825 643.317 798.747 643.212 798.674 643.103C798.601 642.994 798.534 642.881 798.472 642.766C798.41 642.651 798.355 642.532 798.304 642.411C798.254 642.29 798.21 642.167 798.172 642.042C798.134 641.917 798.102 641.79 798.077 641.661C798.051 641.533 798.032 641.404 798.019 641.273C798.006 641.142 798 641.012 798 640.881V201.999C798 201.868 798.006 201.737 798.019 201.607C798.032 201.477 798.051 201.347 798.077 201.219C798.102 201.09 798.134 200.963 798.172 200.838C798.21 200.713 798.254 200.59 798.304 200.469C798.355 200.348 798.41 200.229 798.472 200.114C798.534 199.998 798.601 199.886 798.674 199.777C798.747 199.668 798.825 199.563 798.908 199.462C798.991 199.361 799.079 199.264 799.171 199.171C799.264 199.079 799.361 198.991 799.462 198.908C799.563 198.825 799.668 198.747 799.777 198.674C799.886 198.601 799.998 198.534 800.114 198.472C800.229 198.41 800.348 198.355 800.469 198.304C800.59 198.254 800.713 198.21 800.838 198.172C800.963 198.134 801.09 198.102 801.219 198.077C801.347 198.051 801.477 198.032 801.607 198.019C801.737 198.006 801.868 198 801.999 198H1155C1155.13 198 1155.26 198.006 1155.39 198.019C1155.52 198.032 1155.65 198.051 1155.78 198.077C1155.91 198.102 1156.04 198.134 1156.16 198.172C1156.29 198.21 1156.41 198.254 1156.53 198.304C1156.65 198.355 1156.77 198.41 1156.89 198.472C1157 198.534 1157.11 198.601 1157.22 198.674C1157.33 198.747 1157.44 198.825 1157.54 198.908C1157.64 198.991 1157.74 199.079 1157.83 199.171C1157.92 199.264 1158.01 199.361 1158.09 199.462C1158.18 199.563 1158.25 199.668 1158.33 199.777C1158.4 199.886 1158.47 199.998 1158.53 200.114C1158.59 200.229 1158.65 200.348 1158.7 200.469C1158.75 200.59 1158.79 200.713 1158.83 200.838C1158.87 200.963 1158.9 201.09 1158.92 201.219C1158.95 201.347 1158.97 201.477 1158.98 201.607C1158.99 201.737 1159 201.868 1159 201.999Z" fill="#7C7C7C"/>
<path fill-rule="evenodd" clip-rule="evenodd" d="M810.913 224.88H1146.09C1146.15 224.88 1146.22 224.883 1146.28 224.89C1146.35 224.896 1146.41 224.906 1146.48 224.918C1146.54 224.931 1146.6 224.947 1146.67 224.966C1146.73 224.985 1146.79 225.007 1146.85 225.032C1146.91 225.057 1146.97 225.085 1147.03 225.116C1147.09 225.147 1147.14 225.181 1147.2 225.217C1147.25 225.253 1147.3 225.292 1147.36 225.334C1147.41 225.375 1147.45 225.419 1147.5 225.465C1147.55 225.512 1147.59 225.56 1147.63 225.611C1147.67 225.661 1147.71 225.714 1147.75 225.768C1147.79 225.823 1147.82 225.879 1147.85 225.937C1147.88 225.994 1147.91 226.054 1147.93 226.114C1147.96 226.175 1147.98 226.236 1148 226.299C1148.02 226.361 1148.04 226.425 1148.05 226.489C1148.06 226.553 1148.07 226.618 1148.08 226.683C1148.08 226.748 1148.09 226.814 1148.09 226.879V612.641C1148.09 612.706 1148.08 612.772 1148.08 612.837C1148.07 612.902 1148.06 612.967 1148.05 613.031C1148.04 613.095 1148.02 613.158 1148 613.221C1147.98 613.284 1147.96 613.345 1147.93 613.406C1147.91 613.467 1147.88 613.526 1147.85 613.583C1147.82 613.641 1147.79 613.697 1147.75 613.752C1147.71 613.806 1147.67 613.858 1147.63 613.909C1147.59 613.96 1147.55 614.008 1147.5 614.054C1147.45 614.101 1147.41 614.145 1147.36 614.186C1147.3 614.228 1147.25 614.267 1147.2 614.303C1147.14 614.34 1147.09 614.373 1147.03 614.404C1146.97 614.435 1146.91 614.463 1146.85 614.488C1146.79 614.513 1146.73 614.535 1146.67 614.554C1146.6 614.573 1146.54 614.589 1146.48 614.602C1146.41 614.615 1146.35 614.624 1146.28 614.63C1146.22 614.637 1146.15 614.64 1146.09 614.64H810.913C810.848 614.64 810.782 614.637 810.717 614.63C810.652 614.624 810.587 614.615 810.523 614.602C810.459 614.589 810.395 614.573 810.333 614.554C810.27 614.535 810.209 614.513 810.148 614.488C810.088 614.463 810.028 614.435 809.971 614.404C809.913 614.373 809.857 614.34 809.802 614.303C809.748 614.267 809.696 614.228 809.645 614.186C809.594 614.145 809.546 614.101 809.5 614.055C809.453 614.008 809.409 613.96 809.368 613.909C809.326 613.858 809.287 613.806 809.251 613.752C809.215 613.697 809.181 613.641 809.15 613.583C809.119 613.526 809.091 613.467 809.066 613.406C809.041 613.345 809.019 613.284 809 613.221C808.981 613.158 808.965 613.095 808.952 613.031C808.94 612.967 808.93 612.902 808.924 612.837C808.917 612.772 808.914 612.706 808.914 612.641V226.879C808.914 226.814 808.917 226.748 808.924 226.683C808.93 226.618 808.94 226.553 808.952 226.489C808.965 226.425 808.981 226.361 809 226.299C809.019 226.236 809.041 226.175 809.066 226.114C809.091 226.054 809.119 225.994 809.15 225.937C809.181 225.879 809.215 225.823 809.251 225.768C809.287 225.714 809.326 225.661 809.368 225.611C809.409 225.56 809.453 225.512 809.5 225.465C809.546 225.419 809.594 225.375 809.645 225.334C809.696 225.292 809.748 225.253 809.802 225.217C809.857 225.181 809.913 225.147 809.971 225.116C810.028 225.085 810.088 225.057 810.148 225.032C810.209 225.007 810.27 224.985 810.333 224.966C810.395 224.947 810.459 224.931 810.523 224.918C810.587 224.906 810.652 224.896 810.717 224.89C810.782 224.883 810.848 224.88 810.913 224.88Z" fill="white"/>
<path fill-rule="evenodd" clip-rule="evenodd" d="M808.914 208.08H1148.09V214.8H808.914V208.08Z" fill="#D7D7D7"/>
<path fill-rule="evenodd" clip-rule="evenodd" d="M808.914 624.72H1148.09V631.44H808.914V624.72Z" fill="#D7D7D7"/>
</svg>
