<svg width="1200" height="900" viewBox="0 0 1200 900" fill="none" xmlns="http://www.w3.org/2000/svg">
<rect width="1200" height="900" fill="white"/>
<path d="M103.102 365C125.261 365 138.685 351.293 138.685 328.565C138.685 305.909 125.261 292.273 103.315 292.273H77.321V365H103.102ZM92.6974 351.825V305.447H102.499C116.135 305.447 123.344 312.408 123.344 328.565C123.344 344.794 116.135 351.825 102.463 351.825H92.6974ZM162.713 366.03C170.774 366.03 175.994 362.514 178.658 357.436H179.084V365H193.431V328.21C193.431 315.213 182.422 309.744 170.277 309.744C157.209 309.744 148.615 315.994 146.52 325.938L160.512 327.074C161.541 323.452 164.773 320.788 170.206 320.788C175.355 320.788 178.303 323.381 178.303 327.855V328.068C178.303 331.584 174.574 332.045 165.093 332.969C154.297 333.963 144.602 337.585 144.602 349.766C144.602 360.561 152.308 366.03 162.713 366.03ZM167.046 355.589C162.394 355.589 159.056 353.423 159.056 349.268C159.056 345.007 162.571 342.912 167.898 342.166C171.2 341.705 176.598 340.923 178.409 339.716V345.504C178.409 351.222 173.686 355.589 167.046 355.589ZM231.548 310.455H221.285V297.386H206.158V310.455H198.7V321.818H206.158V350.227C206.087 360.916 213.366 366.207 224.339 365.746C228.246 365.604 231.016 364.822 232.543 364.325L230.163 353.068C229.418 353.21 227.82 353.565 226.399 353.565C223.381 353.565 221.285 352.429 221.285 348.239V321.818H231.548V310.455ZM254.325 366.03C262.386 366.03 267.606 362.514 270.27 357.436H270.696V365H285.042V328.21C285.042 315.213 274.034 309.744 261.889 309.744C248.821 309.744 240.227 315.994 238.132 325.938L252.123 327.074C253.153 323.452 256.385 320.788 261.818 320.788C266.967 320.788 269.915 323.381 269.915 327.855V328.068C269.915 331.584 266.186 332.045 256.704 332.969C245.909 333.963 236.214 337.585 236.214 349.766C236.214 360.561 243.92 366.03 254.325 366.03ZM258.657 355.589C254.005 355.589 250.667 353.423 250.667 349.268C250.667 345.007 254.183 342.912 259.51 342.166C262.812 341.705 268.21 340.923 270.021 339.716V345.504C270.021 351.222 265.298 355.589 258.657 355.589ZM318.792 366.065C333.316 366.065 342.443 357.543 343.153 345.007H328.877C327.99 350.831 324.154 354.098 318.97 354.098C311.903 354.098 307.322 348.168 307.322 337.727C307.322 327.429 311.939 321.534 318.97 321.534C324.51 321.534 328.061 325.192 328.877 330.625H343.153C342.514 318.018 332.961 309.744 318.721 309.744C302.173 309.744 291.946 321.214 291.946 337.94C291.946 354.524 301.995 366.065 318.792 366.065ZM375.065 366.065C388.559 366.065 397.65 359.496 399.781 349.375L385.79 348.452C384.263 352.607 380.356 354.773 375.314 354.773C367.75 354.773 362.956 349.766 362.956 341.634V341.598H400.101V337.443C400.101 318.906 388.879 309.744 374.461 309.744C358.41 309.744 348.005 321.143 348.005 337.976C348.005 355.27 358.268 366.065 375.065 366.065ZM362.956 332.223C363.275 326.009 367.998 321.037 374.71 321.037C381.28 321.037 385.825 325.724 385.861 332.223H362.956ZM422.469 333.466C422.505 326.435 426.695 322.315 432.803 322.315C438.875 322.315 442.533 326.293 442.497 332.969V365H457.625V330.27C457.625 317.557 450.168 309.744 438.804 309.744C430.708 309.744 424.848 313.722 422.398 320.078H421.759V310.455H407.341V365H422.469V333.466ZM495.929 310.455H485.667V297.386H470.539V310.455H463.081V321.818H470.539V350.227C470.468 360.916 477.748 366.207 488.721 365.746C492.627 365.604 495.397 364.822 496.924 364.325L494.545 353.068C493.799 353.21 492.201 353.565 490.78 353.565C487.762 353.565 485.667 352.429 485.667 348.239V321.818H495.929V310.455ZM503.152 365H518.28V334.141C518.28 327.429 523.181 322.812 529.857 322.812C531.952 322.812 534.828 323.168 536.249 323.629V310.206C534.899 309.886 533.017 309.673 531.49 309.673C525.382 309.673 520.375 313.224 518.387 319.972H517.818V310.455H503.152V365ZM563.758 366.065C577.252 366.065 586.343 359.496 588.473 349.375L574.482 348.452C572.955 352.607 569.049 354.773 564.006 354.773C556.442 354.773 551.648 349.766 551.648 341.634V341.598H588.793V337.443C588.793 318.906 577.571 309.744 563.154 309.744C547.103 309.744 536.698 321.143 536.698 337.976C536.698 355.27 546.961 366.065 563.758 366.065ZM551.648 332.223C551.968 326.009 556.691 321.037 563.402 321.037C569.972 321.037 574.518 325.724 574.553 332.223H551.648ZM632.101 366.03C640.162 366.03 645.382 362.514 648.045 357.436H648.471V365H662.818V328.21C662.818 315.213 651.809 309.744 639.664 309.744C626.596 309.744 618.003 315.994 615.907 325.938L629.899 327.074C630.929 323.452 634.16 320.788 639.593 320.788C644.743 320.788 647.69 323.381 647.69 327.855V328.068C647.69 331.584 643.961 332.045 634.48 332.969C623.684 333.963 613.99 337.585 613.99 349.766C613.99 360.561 621.696 366.03 632.101 366.03ZM636.433 355.589C631.781 355.589 628.443 353.423 628.443 349.268C628.443 345.007 631.959 342.912 637.285 342.166C640.588 341.705 645.985 340.923 647.797 339.716V345.504C647.797 351.222 643.074 355.589 636.433 355.589ZM717.306 326.009C715.957 315.959 707.86 309.744 694.082 309.744C680.126 309.744 670.929 316.207 670.964 326.719C670.929 334.886 676.078 340.178 686.731 342.308L696.177 344.19C700.936 345.149 703.102 346.889 703.173 349.624C703.102 352.855 699.586 355.163 694.295 355.163C688.897 355.163 685.311 352.855 684.387 348.416L669.508 349.197C670.929 359.638 679.806 366.065 694.26 366.065C708.393 366.065 718.514 358.857 718.549 348.097C718.514 340.213 713.365 335.49 702.782 333.324L692.91 331.335C687.832 330.234 685.95 328.494 685.985 325.866C685.95 322.599 689.643 320.469 694.331 320.469C699.586 320.469 702.711 323.345 703.457 326.861L717.306 326.009ZM761.511 366.03C769.572 366.03 774.792 362.514 777.455 357.436H777.881V365H792.228V328.21C792.228 315.213 781.219 309.744 769.074 309.744C756.006 309.744 747.413 315.994 745.317 325.938L759.309 327.074C760.339 323.452 763.57 320.788 769.003 320.788C774.153 320.788 777.1 323.381 777.1 327.855V328.068C777.1 331.584 773.371 332.045 763.89 332.969C753.094 333.963 743.4 337.585 743.4 349.766C743.4 360.561 751.106 366.03 761.511 366.03ZM765.843 355.589C761.191 355.589 757.853 353.423 757.853 349.268C757.853 345.007 761.368 342.912 766.695 342.166C769.998 341.705 775.395 340.923 777.207 339.716V345.504C777.207 351.222 772.484 355.589 765.843 355.589ZM867.229 326.009C865.88 315.959 857.783 309.744 844.005 309.744C830.049 309.744 820.851 316.207 820.887 326.719C820.851 334.886 826.001 340.178 836.654 342.308L846.1 344.19C850.858 345.149 853.025 346.889 853.096 349.624C853.025 352.855 849.509 355.163 844.218 355.163C838.82 355.163 835.233 352.855 834.31 348.416L819.431 349.197C820.851 359.638 829.729 366.065 844.182 366.065C858.316 366.065 868.437 358.857 868.472 348.097C868.437 340.213 863.287 335.49 852.705 333.324L842.833 331.335C837.755 330.234 835.873 328.494 835.908 325.866C835.873 322.599 839.566 320.469 844.253 320.469C849.509 320.469 852.634 323.345 853.38 326.861L867.229 326.009ZM875.367 365H890.494V310.455H875.367V365ZM882.966 303.423C887.476 303.423 891.169 299.979 891.169 295.753C891.169 291.562 887.476 288.118 882.966 288.118C878.492 288.118 874.798 291.562 874.798 295.753C874.798 299.979 878.492 303.423 882.966 303.423ZM915.109 333.466C915.144 326.435 919.335 322.315 925.443 322.315C931.515 322.315 935.173 326.293 935.137 332.969V365H950.265V330.27C950.265 317.557 942.808 309.744 931.444 309.744C923.348 309.744 917.488 313.722 915.038 320.078H914.399V310.455H899.981V365H915.109V333.466ZM984.13 386.591C999.72 386.591 1010.8 379.489 1010.8 365.533V310.455H995.778V319.616H995.21C993.186 315.178 988.747 309.744 979.62 309.744C967.653 309.744 957.532 319.048 957.532 337.621C957.532 355.767 967.369 364.219 979.656 364.219C988.356 364.219 993.221 359.851 995.21 355.341H995.849V365.32C995.849 372.812 991.055 375.724 984.485 375.724C977.809 375.724 974.436 372.812 973.193 369.51L959.201 371.392C961.012 379.986 969.429 386.591 984.13 386.591ZM984.45 352.855C977.028 352.855 972.98 346.96 972.98 337.55C972.98 328.281 976.957 321.783 984.45 321.783C991.801 321.783 995.92 327.997 995.92 337.55C995.92 347.173 991.73 352.855 984.45 352.855ZM1035.33 292.273H1020.21V365H1035.33V292.273ZM1069.68 366.065C1083.17 366.065 1092.26 359.496 1094.39 349.375L1080.4 348.452C1078.88 352.607 1074.97 354.773 1069.93 354.773C1062.36 354.773 1057.57 349.766 1057.57 341.634V341.598H1094.71V337.443C1094.71 318.906 1083.49 309.744 1069.07 309.744C1053.02 309.744 1042.62 321.143 1042.62 337.976C1042.62 355.27 1052.88 366.065 1069.68 366.065ZM1057.57 332.223C1057.89 326.009 1062.61 321.037 1069.32 321.037C1075.89 321.037 1080.44 325.724 1080.47 332.223H1057.57ZM101.682 450.065C116.206 450.065 125.332 441.543 126.043 429.007H111.767C110.879 434.831 107.044 438.098 101.859 438.098C94.7926 438.098 90.2116 432.168 90.2116 421.727C90.2116 411.429 94.8281 405.534 101.859 405.534C107.399 405.534 110.95 409.192 111.767 414.625H126.043C125.403 402.018 115.851 393.744 101.611 393.744C85.0625 393.744 74.8352 405.214 74.8352 421.94C74.8352 438.524 84.8849 450.065 101.682 450.065ZM157.742 450.065C174.29 450.065 184.588 438.737 184.588 421.94C184.588 405.037 174.29 393.744 157.742 393.744C141.193 393.744 130.895 405.037 130.895 421.94C130.895 438.737 141.193 450.065 157.742 450.065ZM157.813 438.347C150.178 438.347 146.271 431.351 146.271 421.834C146.271 412.317 150.178 405.286 157.813 405.286C165.306 405.286 169.212 412.317 169.212 421.834C169.212 431.351 165.306 438.347 157.813 438.347ZM191.793 449H206.921V416.259C206.921 410.222 210.756 406.209 215.799 406.209C220.771 406.209 224.109 409.618 224.109 414.98V449H238.775V415.69C238.775 410.044 242.006 406.209 247.511 406.209C252.34 406.209 255.962 409.227 255.962 415.3V449H271.055V412.317C271.055 400.491 264.023 393.744 253.867 393.744C245.877 393.744 239.663 397.828 237.425 404.078H236.857C235.117 397.757 229.542 393.744 222.049 393.744C214.698 393.744 209.123 397.651 206.85 404.078H206.211V394.455H191.793V449ZM280.373 469.455H295.501V440.264H295.962C298.057 444.81 302.638 449.888 311.445 449.888C323.874 449.888 333.569 440.051 333.569 421.798C333.569 403.048 323.448 393.744 311.481 393.744C302.354 393.744 297.986 399.178 295.962 403.616H295.287V394.455H280.373V469.455ZM295.181 421.727C295.181 411.997 299.3 405.783 306.651 405.783C314.144 405.783 318.121 412.281 318.121 421.727C318.121 431.244 314.073 437.849 306.651 437.849C299.371 437.849 295.181 431.457 295.181 421.727ZM376.001 425.776C376.037 433.091 371.029 436.926 365.596 436.926C359.879 436.926 356.186 432.913 356.15 426.486V394.455H341.022V429.185C341.058 441.933 348.515 449.71 359.488 449.71C367.691 449.71 373.586 445.484 376.037 439.092H376.605V449H391.129V394.455H376.001V425.776ZM429.611 394.455H419.348V381.386H404.22V394.455H396.763V405.818H404.22V434.227C404.149 444.916 411.429 450.207 422.402 449.746C426.308 449.604 429.078 448.822 430.605 448.325L428.226 437.068C427.48 437.21 425.882 437.565 424.461 437.565C421.443 437.565 419.348 436.429 419.348 432.239V405.818H429.611V394.455ZM461.105 450.065C474.6 450.065 483.691 443.496 485.821 433.375L471.83 432.452C470.303 436.607 466.397 438.773 461.354 438.773C453.79 438.773 448.996 433.766 448.996 425.634V425.598H486.141V421.443C486.141 402.906 474.919 393.744 460.502 393.744C444.451 393.744 434.046 405.143 434.046 421.976C434.046 439.27 444.309 450.065 461.105 450.065ZM448.996 416.223C449.316 410.009 454.039 405.037 460.75 405.037C467.32 405.037 471.865 409.724 471.901 416.223H448.996ZM493.382 449H508.509V418.141C508.509 411.429 513.41 406.812 520.086 406.812C522.181 406.812 525.058 407.168 526.478 407.629V394.206C525.129 393.886 523.247 393.673 521.72 393.673C515.612 393.673 510.605 397.224 508.616 403.972H508.048V394.455H493.382V449Z" fill="black"/>
<path d="M94.267 626.869C106.361 626.869 113.443 617 113.443 599.844C113.443 582.815 106.259 572.92 94.267 572.92C82.25 572.92 75.0909 582.79 75.0653 599.844C75.0653 616.974 82.1477 626.844 94.267 626.869ZM94.267 620.043C87.1847 620.043 82.9148 612.935 82.9148 599.844C82.9403 586.804 87.2102 579.619 94.267 579.619C101.298 579.619 105.594 586.804 105.594 599.844C105.594 612.935 101.324 620.043 94.267 620.043ZM140.485 573.636H132.789L119.724 582.176V589.744L132.252 581.562H132.559V626H140.485V573.636Z" fill="black"/>
<rect x="71" y="498" width="1038" height="19" fill="black"/>
</svg>
