<svg width="1200" height="900" viewBox="0 0 1200 900" fill="none" xmlns="http://www.w3.org/2000/svg">
<rect width="1200" height="900" fill="white"/>
<rect x="71" y="159" width="1038" height="8" fill="black"/>
<path d="M89.7357 309.2V372H76.4582V309.2H89.7357ZM136.853 338.331L124.894 339.067C124.69 338.045 124.25 337.125 123.576 336.307C122.901 335.469 122.012 334.804 120.908 334.314C119.824 333.803 118.526 333.547 117.014 333.547C114.99 333.547 113.283 333.977 111.893 334.835C110.503 335.673 109.807 336.798 109.807 338.208C109.807 339.333 110.257 340.283 111.157 341.06C112.056 341.837 113.6 342.46 115.787 342.93L124.312 344.648C128.891 345.588 132.305 347.101 134.553 349.186C136.802 351.271 137.926 354.01 137.926 357.404C137.926 360.491 137.017 363.199 135.197 365.53C133.398 367.86 130.925 369.68 127.777 370.988C124.649 372.276 121.041 372.92 116.952 372.92C110.717 372.92 105.75 371.622 102.049 369.026C98.3698 366.409 96.2131 362.852 95.5793 358.354L108.428 357.68C108.816 359.581 109.756 361.032 111.249 362.034C112.741 363.015 114.652 363.506 116.983 363.506C119.272 363.506 121.112 363.067 122.502 362.187C123.913 361.288 124.628 360.133 124.649 358.722C124.628 357.537 124.128 356.566 123.146 355.809C122.165 355.033 120.652 354.44 118.608 354.031L110.451 352.406C105.852 351.486 102.428 349.891 100.179 347.622C97.9507 345.353 96.8366 342.46 96.8366 338.944C96.8366 335.919 97.6543 333.312 99.2897 331.125C100.946 328.937 103.266 327.251 106.25 326.065C109.256 324.88 112.772 324.287 116.799 324.287C122.748 324.287 127.429 325.544 130.843 328.058C134.277 330.573 136.281 333.997 136.853 338.331ZM164.683 372.92C159.92 372.92 155.801 371.908 152.325 369.884C148.87 367.84 146.203 364.998 144.322 361.36C142.441 357.7 141.501 353.458 141.501 348.634C141.501 343.769 142.441 339.517 144.322 335.878C146.203 332.218 148.87 329.377 152.325 327.353C155.801 325.309 159.92 324.287 164.683 324.287C169.446 324.287 173.555 325.309 177.01 327.353C180.485 329.377 183.163 332.218 185.044 335.878C186.925 339.517 187.865 343.769 187.865 348.634C187.865 353.458 186.925 357.7 185.044 361.36C183.163 364.998 180.485 367.84 177.01 369.884C173.555 371.908 169.446 372.92 164.683 372.92ZM164.744 362.801C166.911 362.801 168.72 362.188 170.172 360.961C171.623 359.714 172.717 358.017 173.453 355.871C174.209 353.724 174.587 351.281 174.587 348.542C174.587 345.803 174.209 343.36 173.453 341.213C172.717 339.067 171.623 337.37 170.172 336.123C168.72 334.876 166.911 334.253 164.744 334.253C162.557 334.253 160.717 334.876 159.225 336.123C157.753 337.37 156.639 339.067 155.882 341.213C155.146 343.36 154.778 345.803 154.778 348.542C154.778 351.281 155.146 353.724 155.882 355.871C156.639 358.017 157.753 359.714 159.225 360.961C160.717 362.188 162.557 362.801 164.744 362.801ZM206.672 309.2V372H193.609V309.2H206.672ZM227.817 372.889C224.812 372.889 222.134 372.368 219.783 371.325C217.432 370.262 215.572 368.699 214.202 366.634C212.853 364.549 212.178 361.952 212.178 358.845C212.178 356.228 212.658 354.031 213.619 352.252C214.58 350.474 215.888 349.043 217.544 347.959C219.2 346.876 221.081 346.058 223.186 345.506C225.313 344.954 227.541 344.566 229.871 344.341C232.611 344.055 234.818 343.789 236.495 343.544C238.171 343.278 239.387 342.89 240.144 342.379C240.9 341.867 241.278 341.111 241.278 340.109V339.925C241.278 337.983 240.665 336.481 239.438 335.418C238.232 334.355 236.515 333.823 234.287 333.823C231.936 333.823 230.065 334.345 228.675 335.387C227.285 336.409 226.365 337.697 225.916 339.251L213.834 338.27C214.447 335.408 215.653 332.934 217.452 330.849C219.251 328.743 221.572 327.128 224.413 326.004C227.275 324.859 230.587 324.287 234.348 324.287C236.965 324.287 239.469 324.593 241.861 325.207C244.273 325.82 246.409 326.771 248.27 328.058C250.15 329.346 251.633 331.002 252.716 333.026C253.799 335.029 254.341 337.431 254.341 340.232V372H241.953V365.469H241.585C240.829 366.94 239.817 368.239 238.549 369.363C237.282 370.467 235.759 371.336 233.98 371.969C232.202 372.583 230.147 372.889 227.817 372.889ZM231.558 363.874C233.479 363.874 235.176 363.496 236.648 362.739C238.12 361.963 239.275 360.92 240.113 359.612C240.951 358.303 241.37 356.821 241.37 355.165V350.167C240.961 350.433 240.399 350.678 239.684 350.903C238.989 351.108 238.202 351.302 237.323 351.486C236.444 351.649 235.565 351.803 234.686 351.946C233.806 352.068 233.009 352.181 232.294 352.283C230.761 352.508 229.422 352.866 228.277 353.356C227.132 353.847 226.243 354.511 225.609 355.349C224.975 356.167 224.658 357.189 224.658 358.416C224.658 360.194 225.302 361.554 226.59 362.494C227.899 363.414 229.554 363.874 231.558 363.874ZM286.778 324.9V334.713H258.414V324.9H286.778ZM264.853 313.616H277.916V357.527C277.916 358.733 278.1 359.673 278.468 360.348C278.836 361.002 279.347 361.462 280.001 361.728C280.676 361.993 281.453 362.126 282.332 362.126C282.945 362.126 283.558 362.075 284.172 361.973C284.785 361.85 285.255 361.758 285.582 361.697L287.637 371.417C286.983 371.622 286.063 371.857 284.877 372.123C283.691 372.409 282.25 372.583 280.553 372.644C277.405 372.767 274.645 372.348 272.274 371.387C269.923 370.426 268.094 368.934 266.785 366.91C265.477 364.886 264.833 362.331 264.853 359.244V313.616ZM292.537 372V324.9H305.6V372H292.537ZM299.1 318.829C297.157 318.829 295.491 318.185 294.101 316.897C292.732 315.588 292.047 314.024 292.047 312.205C292.047 310.406 292.732 308.863 294.101 307.575C295.491 306.266 297.157 305.612 299.1 305.612C301.042 305.612 302.697 306.266 304.067 307.575C305.457 308.863 306.152 310.406 306.152 312.205C306.152 314.024 305.457 315.588 304.067 316.897C302.697 318.185 301.042 318.829 299.1 318.829ZM334.595 372.92C329.832 372.92 325.713 371.908 322.238 369.884C318.783 367.84 316.115 364.998 314.234 361.36C312.354 357.7 311.413 353.458 311.413 348.634C311.413 343.769 312.354 339.517 314.234 335.878C316.115 332.218 318.783 329.377 322.238 327.353C325.713 325.309 329.832 324.287 334.595 324.287C339.358 324.287 343.467 325.309 346.922 327.353C350.398 329.377 353.076 332.218 354.956 335.878C356.837 339.517 357.777 343.769 357.777 348.634C357.777 353.458 356.837 357.7 354.956 361.36C353.076 364.998 350.398 367.84 346.922 369.884C343.467 371.908 339.358 372.92 334.595 372.92ZM334.657 362.801C336.824 362.801 338.633 362.188 340.084 360.961C341.536 359.714 342.629 358.017 343.365 355.871C344.122 353.724 344.5 351.281 344.5 348.542C344.5 345.803 344.122 343.36 343.365 341.213C342.629 339.067 341.536 337.37 340.084 336.123C338.633 334.876 336.824 334.253 334.657 334.253C332.469 334.253 330.629 334.876 329.137 336.123C327.665 337.37 326.551 339.067 325.795 341.213C325.059 343.36 324.691 345.803 324.691 348.542C324.691 351.281 325.059 353.724 325.795 355.871C326.551 358.017 327.665 359.714 329.137 360.961C330.629 362.188 332.469 362.801 334.657 362.801ZM376.584 344.77V372H363.521V324.9H375.971V333.21H376.523C377.565 330.471 379.313 328.304 381.766 326.709C384.22 325.094 387.194 324.287 390.69 324.287C393.96 324.287 396.812 325.002 399.245 326.433C401.678 327.864 403.569 329.908 404.918 332.566C406.267 335.203 406.942 338.351 406.942 342.011V372H393.879V344.341C393.899 341.459 393.163 339.21 391.671 337.595C390.179 335.96 388.124 335.142 385.507 335.142C383.749 335.142 382.196 335.52 380.846 336.276C379.518 337.033 378.475 338.137 377.719 339.588C376.983 341.019 376.605 342.746 376.584 344.77Z" fill="black"/>
<path d="M76.9007 492V424.109H122.647V435.944H91.2546V452.121H120.294V463.955H91.2546V480.166H122.78V492H76.9007ZM145.341 492.961C142.092 492.961 139.197 492.398 136.656 491.271C134.114 490.122 132.103 488.431 130.622 486.199C129.164 483.945 128.434 481.138 128.434 477.779C128.434 474.95 128.954 472.574 129.992 470.651C131.031 468.729 132.446 467.182 134.236 466.011C136.026 464.839 138.059 463.955 140.335 463.359C142.634 462.762 145.042 462.342 147.562 462.099C150.523 461.789 152.91 461.502 154.722 461.237C156.534 460.95 157.849 460.53 158.667 459.977C159.485 459.425 159.894 458.607 159.894 457.524V457.325C159.894 455.226 159.231 453.601 157.905 452.452C156.601 451.303 154.744 450.728 152.335 450.728C149.794 450.728 147.772 451.292 146.269 452.419C144.766 453.524 143.772 454.916 143.286 456.596L130.224 455.535C130.887 452.441 132.191 449.767 134.136 447.513C136.081 445.237 138.589 443.491 141.661 442.275C144.755 441.038 148.335 440.419 152.402 440.419C155.231 440.419 157.938 440.75 160.523 441.413C163.131 442.076 165.441 443.104 167.452 444.496C169.485 445.889 171.087 447.679 172.259 449.867C173.43 452.032 174.015 454.629 174.015 457.657V492H160.623V484.939H160.225C159.407 486.53 158.313 487.934 156.943 489.149C155.573 490.343 153.927 491.282 152.004 491.967C150.081 492.63 147.86 492.961 145.341 492.961ZM149.385 483.215C151.462 483.215 153.297 482.806 154.888 481.989C156.479 481.149 157.728 480.022 158.634 478.607C159.54 477.193 159.993 475.591 159.993 473.801V468.397C159.551 468.685 158.943 468.95 158.17 469.193C157.418 469.414 156.568 469.624 155.617 469.823C154.667 470 153.717 470.165 152.766 470.32C151.816 470.453 150.954 470.574 150.181 470.685C148.523 470.928 147.076 471.314 145.838 471.845C144.6 472.375 143.639 473.094 142.954 474C142.269 474.884 141.926 475.989 141.926 477.315C141.926 479.237 142.623 480.707 144.015 481.724C145.429 482.718 147.219 483.215 149.385 483.215ZM224.364 455.601L211.436 456.397C211.215 455.292 210.739 454.298 210.01 453.414C209.281 452.507 208.32 451.789 207.126 451.259C205.955 450.706 204.551 450.43 202.916 450.43C200.728 450.43 198.883 450.894 197.38 451.822C195.877 452.728 195.126 453.944 195.126 455.469C195.126 456.684 195.612 457.712 196.584 458.552C197.557 459.392 199.225 460.066 201.59 460.574L210.806 462.43C215.756 463.447 219.447 465.082 221.878 467.337C224.309 469.591 225.524 472.552 225.524 476.221C225.524 479.558 224.541 482.486 222.574 485.005C220.629 487.525 217.955 489.492 214.552 490.906C211.17 492.298 207.27 492.994 202.85 492.994C196.109 492.994 190.739 491.591 186.739 488.784C182.761 485.956 180.429 482.11 179.744 477.248L193.634 476.519C194.054 478.574 195.071 480.143 196.684 481.226C198.297 482.287 200.364 482.817 202.883 482.817C205.358 482.817 207.347 482.342 208.85 481.392C210.375 480.42 211.148 479.171 211.17 477.646C211.148 476.364 210.607 475.315 209.546 474.497C208.485 473.657 206.85 473.016 204.64 472.574L195.822 470.817C190.85 469.823 187.148 468.099 184.717 465.646C182.308 463.193 181.103 460.066 181.103 456.264C181.103 452.994 181.987 450.176 183.755 447.811C185.546 445.447 188.054 443.623 191.281 442.342C194.529 441.06 198.33 440.419 202.684 440.419C209.115 440.419 214.176 441.778 217.867 444.496C221.579 447.215 223.745 450.916 224.364 455.601ZM254.649 492.994C249.411 492.994 244.903 491.934 241.124 489.812C237.367 487.668 234.472 484.641 232.438 480.729C230.405 476.795 229.389 472.143 229.389 466.773C229.389 461.535 230.405 456.939 232.438 452.983C234.472 449.027 237.333 445.944 241.024 443.734C244.737 441.524 249.091 440.419 254.085 440.419C257.444 440.419 260.572 440.96 263.467 442.043C266.384 443.104 268.925 444.706 271.091 446.85C273.279 448.994 274.981 451.69 276.196 454.938C277.412 458.165 278.019 461.944 278.019 466.276V470.154H235.024V461.403H264.726C264.726 459.369 264.284 457.568 263.4 455.999C262.516 454.43 261.29 453.204 259.721 452.32C258.174 451.414 256.373 450.96 254.317 450.96C252.174 450.96 250.273 451.458 248.615 452.452C246.98 453.425 245.698 454.74 244.77 456.397C243.842 458.032 243.367 459.856 243.345 461.867V470.187C243.345 472.707 243.809 474.884 244.737 476.718C245.687 478.552 247.024 479.967 248.748 480.961C250.472 481.956 252.516 482.453 254.881 482.453C256.45 482.453 257.886 482.232 259.19 481.79C260.494 481.348 261.61 480.685 262.538 479.801C263.467 478.917 264.174 477.834 264.66 476.552L277.721 477.414C277.058 480.552 275.699 483.293 273.644 485.635C271.61 487.956 268.981 489.768 265.754 491.072C262.549 492.354 258.848 492.994 254.649 492.994ZM325.901 492.994C320.751 492.994 316.298 491.901 312.541 489.713C308.806 487.503 305.922 484.431 303.889 480.497C301.856 476.541 300.839 471.955 300.839 466.74C300.839 461.48 301.856 456.883 303.889 452.949C305.922 448.994 308.806 445.922 312.541 443.734C316.298 441.524 320.751 440.419 325.901 440.419C331.05 440.419 335.492 441.524 339.227 443.734C342.984 445.922 345.879 448.994 347.912 452.949C349.945 456.883 350.962 461.48 350.962 466.74C350.962 471.955 349.945 476.541 347.912 480.497C345.879 484.431 342.984 487.503 339.227 489.713C335.492 491.901 331.05 492.994 325.901 492.994ZM325.967 482.055C328.309 482.055 330.265 481.392 331.834 480.066C333.404 478.718 334.586 476.884 335.381 474.563C336.199 472.243 336.608 469.602 336.608 466.64C336.608 463.679 336.199 461.038 335.381 458.718C334.586 456.397 333.404 454.563 331.834 453.215C330.265 451.867 328.309 451.193 325.967 451.193C323.602 451.193 321.613 451.867 320 453.215C318.409 454.563 317.204 456.397 316.387 458.718C315.591 461.038 315.193 463.679 315.193 466.64C315.193 469.602 315.591 472.243 316.387 474.563C317.204 476.884 318.409 478.718 320 480.066C321.613 481.392 323.602 482.055 325.967 482.055ZM384.553 441.082V451.69H353.127V441.082H384.553ZM360.321 492V437.402C360.321 433.711 361.039 430.651 362.475 428.22C363.934 425.789 365.923 423.965 368.442 422.75C370.962 421.534 373.824 420.927 377.028 420.927C379.194 420.927 381.172 421.092 382.962 421.424C384.774 421.755 386.122 422.054 387.006 422.319L384.487 432.927C383.934 432.75 383.249 432.584 382.432 432.43C381.636 432.275 380.818 432.198 379.979 432.198C377.901 432.198 376.454 432.684 375.636 433.656C374.818 434.607 374.409 435.944 374.409 437.667V492H360.321ZM408.84 492V441.082H422.299V450.065H422.896C423.956 447.082 425.724 444.728 428.2 443.005C430.675 441.281 433.636 440.419 437.084 440.419C440.576 440.419 443.548 441.292 446.001 443.038C448.454 444.761 450.09 447.104 450.907 450.065H451.438C452.476 447.148 454.355 444.817 457.073 443.071C459.813 441.303 463.051 440.419 466.786 440.419C471.538 440.419 475.394 441.933 478.355 444.96C481.339 447.966 482.831 452.231 482.831 457.756V492H468.742V460.541C468.742 457.712 467.99 455.59 466.488 454.176C464.985 452.762 463.106 452.054 460.852 452.054C458.289 452.054 456.289 452.872 454.852 454.508C453.416 456.121 452.697 458.253 452.697 460.905V492H439.006V460.242C439.006 457.745 438.288 455.756 436.852 454.275C435.437 452.795 433.57 452.054 431.249 452.054C429.68 452.054 428.266 452.452 427.006 453.248C425.769 454.021 424.785 455.115 424.056 456.53C423.327 457.922 422.962 459.557 422.962 461.436V492H408.84ZM505.532 492.961C502.284 492.961 499.388 492.398 496.847 491.271C494.305 490.122 492.294 488.431 490.814 486.199C489.355 483.945 488.626 481.138 488.626 477.779C488.626 474.95 489.145 472.574 490.184 470.651C491.223 468.729 492.637 467.182 494.427 466.011C496.217 464.839 498.25 463.955 500.527 463.359C502.825 462.762 505.234 462.342 507.753 462.099C510.715 461.789 513.101 461.502 514.914 461.237C516.726 460.95 518.041 460.53 518.858 459.977C519.676 459.425 520.085 458.607 520.085 457.524V457.325C520.085 455.226 519.422 453.601 518.096 452.452C516.792 451.303 514.936 450.728 512.527 450.728C509.985 450.728 507.963 451.292 506.46 452.419C504.958 453.524 503.963 454.916 503.477 456.596L490.416 455.535C491.079 452.441 492.383 449.767 494.328 447.513C496.272 445.237 498.781 443.491 501.853 442.275C504.947 441.038 508.527 440.419 512.593 440.419C515.422 440.419 518.129 440.75 520.715 441.413C523.323 442.076 525.632 443.104 527.643 444.496C529.676 445.889 531.279 447.679 532.45 449.867C533.621 452.032 534.207 454.629 534.207 457.657V492H520.814V484.939H520.416C519.599 486.53 518.505 487.934 517.135 489.149C515.764 490.343 514.118 491.282 512.195 491.967C510.273 492.63 508.052 492.961 505.532 492.961ZM509.576 483.215C511.654 483.215 513.488 482.806 515.079 481.989C516.671 481.149 517.919 480.022 518.825 478.607C519.731 477.193 520.184 475.591 520.184 473.801V468.397C519.742 468.685 519.135 468.95 518.361 469.193C517.61 469.414 516.759 469.624 515.809 469.823C514.858 470 513.908 470.165 512.958 470.32C512.007 470.453 511.146 470.574 510.372 470.685C508.715 470.928 507.267 471.314 506.029 471.845C504.792 472.375 503.83 473.094 503.145 474C502.46 474.884 502.118 475.989 502.118 477.315C502.118 479.237 502.814 480.707 504.206 481.724C505.621 482.718 507.411 483.215 509.576 483.215ZM556.312 462.563V492H542.19V441.082H555.649V450.065H556.245C557.373 447.104 559.262 444.761 561.914 443.038C564.566 441.292 567.782 440.419 571.561 440.419C575.097 440.419 578.18 441.192 580.809 442.739C583.439 444.286 585.484 446.496 586.942 449.369C588.401 452.22 589.13 455.624 589.13 459.579V492H575.008V462.099C575.03 458.983 574.235 456.552 572.621 454.806C571.008 453.038 568.787 452.154 565.958 452.154C564.058 452.154 562.378 452.563 560.92 453.38C559.483 454.198 558.356 455.392 557.538 456.961C556.743 458.508 556.334 460.375 556.312 462.563ZM611.807 492.961C608.558 492.961 605.663 492.398 603.122 491.271C600.58 490.122 598.569 488.431 597.088 486.199C595.63 483.945 594.9 481.138 594.9 477.779C594.9 474.95 595.42 472.574 596.458 470.651C597.497 468.729 598.912 467.182 600.702 466.011C602.492 464.839 604.525 463.955 606.801 463.359C609.1 462.762 611.508 462.342 614.028 462.099C616.989 461.789 619.376 461.502 621.188 461.237C623 460.95 624.315 460.53 625.133 459.977C625.951 459.425 626.36 458.607 626.36 457.524V457.325C626.36 455.226 625.697 453.601 624.371 452.452C623.067 451.303 621.21 450.728 618.801 450.728C616.26 450.728 614.238 451.292 612.735 452.419C611.232 453.524 610.238 454.916 609.752 456.596L596.691 455.535C597.354 452.441 598.657 449.767 600.602 447.513C602.547 445.237 605.055 443.491 608.127 442.275C611.221 441.038 614.801 440.419 618.868 440.419C621.697 440.419 624.404 440.75 626.989 441.413C629.597 442.076 631.907 443.104 633.918 444.496C635.951 445.889 637.553 447.679 638.725 449.867C639.896 452.032 640.481 454.629 640.481 457.657V492H627.089V484.939H626.691C625.873 486.53 624.779 487.934 623.409 489.149C622.039 490.343 620.393 491.282 618.47 491.967C616.547 492.63 614.326 492.961 611.807 492.961ZM615.851 483.215C617.929 483.215 619.763 482.806 621.354 481.989C622.945 481.149 624.194 480.022 625.1 478.607C626.006 477.193 626.459 475.591 626.459 473.801V468.397C626.017 468.685 625.409 468.95 624.636 469.193C623.884 469.414 623.034 469.624 622.083 469.823C621.133 470 620.183 470.165 619.232 470.32C618.282 470.453 617.42 470.574 616.647 470.685C614.989 470.928 613.542 471.314 612.304 471.845C611.067 472.375 610.105 473.094 609.42 474C608.735 474.884 608.392 475.989 608.392 477.315C608.392 479.237 609.089 480.707 610.481 481.724C611.895 482.718 613.685 483.215 615.851 483.215ZM671.404 512.155C666.83 512.155 662.907 511.525 659.636 510.266C656.387 509.028 653.802 507.337 651.879 505.194C649.956 503.05 648.708 500.641 648.133 497.967L661.194 496.21C661.592 497.227 662.222 498.177 663.084 499.061C663.946 499.945 665.084 500.652 666.498 501.183C667.935 501.735 669.68 502.011 671.736 502.011C674.808 502.011 677.338 501.26 679.327 499.757C681.338 498.276 682.344 495.79 682.344 492.298V482.983H681.747C681.128 484.398 680.2 485.735 678.962 486.994C677.725 488.254 676.134 489.282 674.189 490.077C672.244 490.873 669.924 491.271 667.227 491.271C663.404 491.271 659.923 490.387 656.785 488.619C653.669 486.829 651.183 484.099 649.326 480.431C647.492 476.74 646.575 472.077 646.575 466.441C646.575 460.673 647.514 455.856 649.393 451.988C651.271 448.121 653.769 445.226 656.885 443.303C660.023 441.38 663.459 440.419 667.194 440.419C670.045 440.419 672.432 440.905 674.355 441.877C676.277 442.828 677.824 444.021 678.996 445.458C680.189 446.872 681.106 448.264 681.747 449.634H682.277V441.082H696.3V492.497C696.3 496.829 695.239 500.453 693.117 503.37C690.996 506.288 688.057 508.475 684.3 509.934C680.565 511.415 676.266 512.155 671.404 512.155ZM671.703 480.663C673.979 480.663 675.902 480.099 677.471 478.972C679.062 477.823 680.277 476.188 681.117 474.066C681.979 471.922 682.41 469.359 682.41 466.375C682.41 463.392 681.99 460.806 681.15 458.618C680.311 456.408 679.095 454.695 677.504 453.48C675.913 452.264 673.979 451.657 671.703 451.657C669.382 451.657 667.426 452.286 665.835 453.546C664.244 454.784 663.039 456.508 662.222 458.718C661.404 460.928 660.995 463.48 660.995 466.375C660.995 469.314 661.404 471.856 662.222 474C663.062 476.121 664.266 477.768 665.835 478.939C667.426 480.088 669.382 480.663 671.703 480.663ZM727.77 492.994C722.532 492.994 718.024 491.934 714.244 489.812C710.488 487.668 707.592 484.641 705.559 480.729C703.526 476.795 702.509 472.143 702.509 466.773C702.509 461.535 703.526 456.939 705.559 452.983C707.592 449.027 710.454 445.944 714.145 443.734C717.858 441.524 722.212 440.419 727.206 440.419C730.565 440.419 733.692 440.96 736.587 442.043C739.505 443.104 742.046 444.706 744.212 446.85C746.4 448.994 748.102 451.69 749.317 454.938C750.533 458.165 751.14 461.944 751.14 466.276V470.154H708.145V461.403H737.847C737.847 459.369 737.405 457.568 736.521 455.999C735.637 454.43 734.411 453.204 732.842 452.32C731.295 451.414 729.493 450.96 727.438 450.96C725.294 450.96 723.394 451.458 721.736 452.452C720.101 453.425 718.819 454.74 717.891 456.397C716.963 458.032 716.488 459.856 716.466 461.867V470.187C716.466 472.707 716.93 474.884 717.858 476.718C718.808 478.552 720.145 479.967 721.869 480.961C723.593 481.956 725.637 482.453 728.002 482.453C729.571 482.453 731.007 482.232 732.311 481.79C733.615 481.348 734.731 480.685 735.659 479.801C736.587 478.917 737.295 477.834 737.781 476.552L750.842 477.414C750.179 480.552 748.82 483.293 746.765 485.635C744.731 487.956 742.101 489.768 738.875 491.072C735.67 492.354 731.969 492.994 727.77 492.994ZM757.383 492V441.082H770.842V450.065H771.439C772.499 447.082 774.267 444.728 776.742 443.005C779.218 441.281 782.179 440.419 785.627 440.419C789.118 440.419 792.091 441.292 794.544 443.038C796.997 444.761 798.632 447.104 799.45 450.065H799.981C801.019 447.148 802.898 444.817 805.616 443.071C808.356 441.303 811.594 440.419 815.329 440.419C820.08 440.419 823.937 441.933 826.898 444.96C829.882 447.966 831.373 452.231 831.373 457.756V492H817.285V460.541C817.285 457.712 816.533 455.59 815.031 454.176C813.528 452.762 811.649 452.054 809.395 452.054C806.832 452.054 804.831 452.872 803.395 454.508C801.958 456.121 801.24 458.253 801.24 460.905V492H787.549V460.242C787.549 457.745 786.831 455.756 785.395 454.275C783.98 452.795 782.113 452.054 779.792 452.054C778.223 452.054 776.809 452.452 775.549 453.248C774.312 454.021 773.328 455.115 772.599 456.53C771.869 457.922 771.505 459.557 771.505 461.436V492H757.383ZM862.76 492.994C857.523 492.994 853.014 491.934 849.235 489.812C845.478 487.668 842.583 484.641 840.55 480.729C838.517 476.795 837.5 472.143 837.5 466.773C837.5 461.535 838.517 456.939 840.55 452.983C842.583 449.027 845.445 445.944 849.136 443.734C852.849 441.524 857.202 440.419 862.197 440.419C865.556 440.419 868.683 440.96 871.578 442.043C874.495 443.104 877.037 444.706 879.203 446.85C881.391 448.994 883.092 451.69 884.308 454.938C885.523 458.165 886.131 461.944 886.131 466.276V470.154H843.136V461.403H872.838C872.838 459.369 872.396 457.568 871.512 455.999C870.628 454.43 869.401 453.204 867.832 452.32C866.285 451.414 864.484 450.96 862.429 450.96C860.285 450.96 858.385 451.458 856.727 452.452C855.092 453.425 853.81 454.74 852.882 456.397C851.954 458.032 851.478 459.856 851.456 461.867V470.187C851.456 472.707 851.92 474.884 852.849 476.718C853.799 478.552 855.136 479.967 856.86 480.961C858.583 481.956 860.628 482.453 862.992 482.453C864.562 482.453 865.998 482.232 867.302 481.79C868.606 481.348 869.722 480.685 870.65 479.801C871.578 478.917 872.285 477.834 872.772 476.552L885.833 477.414C885.17 480.552 883.811 483.293 881.755 485.635C879.722 487.956 877.092 489.768 873.866 491.072C870.661 492.354 866.959 492.994 862.76 492.994ZM906.496 462.563V492H892.374V441.082H905.833V450.065H906.429C907.556 447.104 909.446 444.761 912.098 443.038C914.75 441.292 917.965 440.419 921.745 440.419C925.281 440.419 928.363 441.192 930.993 442.739C933.623 444.286 935.667 446.496 937.126 449.369C938.585 452.22 939.314 455.624 939.314 459.579V492H925.192V462.099C925.214 458.983 924.419 456.552 922.805 454.806C921.192 453.038 918.971 452.154 916.142 452.154C914.242 452.154 912.562 452.563 911.103 453.38C909.667 454.198 908.54 455.392 907.722 456.961C906.927 458.508 906.518 460.375 906.496 462.563ZM974.554 441.082V451.69H943.891V441.082H974.554ZM950.852 428.883H964.974V476.353C964.974 477.657 965.173 478.674 965.571 479.403C965.969 480.11 966.521 480.607 967.228 480.895C967.958 481.182 968.797 481.326 969.748 481.326C970.411 481.326 971.074 481.27 971.737 481.16C972.4 481.027 972.908 480.928 973.262 480.862L975.483 491.37C974.775 491.591 973.781 491.845 972.499 492.133C971.217 492.442 969.659 492.63 967.825 492.696C964.422 492.829 961.438 492.376 958.875 491.337C956.333 490.298 954.355 488.685 952.941 486.497C951.526 484.309 950.83 481.547 950.852 478.21V428.883Z" fill="#D2D2D2"/>
<path d="M134.688 568.296H120.635C120.378 566.477 119.854 564.862 119.063 563.451C118.271 562.018 117.255 560.798 116.015 559.793C114.774 558.788 113.341 558.018 111.715 557.483C110.111 556.948 108.368 556.681 106.485 556.681C103.085 556.681 100.122 557.526 97.5981 559.216C95.0741 560.884 93.1169 563.322 91.7266 566.531C90.3363 569.718 89.6411 573.589 89.6411 578.145C89.6411 582.83 90.3363 586.765 91.7266 589.953C93.1383 593.14 95.1062 595.546 97.6301 597.172C100.154 598.797 103.074 599.61 106.389 599.61C108.25 599.61 109.972 599.364 111.555 598.872C113.159 598.38 114.581 597.664 115.822 596.722C117.063 595.76 118.089 594.594 118.902 593.225C119.736 591.856 120.314 590.295 120.635 588.541L134.688 588.605C134.324 591.621 133.415 594.53 131.961 597.332C130.527 600.113 128.592 602.605 126.153 604.808C123.736 606.989 120.849 608.722 117.49 610.005C114.154 611.267 110.378 611.898 106.165 611.898C100.304 611.898 95.0634 610.572 90.4432 607.92C85.8444 605.268 82.2082 601.428 79.5345 596.402C76.8822 591.375 75.556 585.29 75.556 578.145C75.556 570.98 76.9036 564.884 79.5987 559.857C82.2938 554.831 85.9514 551.002 90.5716 548.371C95.1917 545.719 100.389 544.393 106.165 544.393C109.972 544.393 113.501 544.927 116.753 545.997C120.025 547.066 122.923 548.628 125.447 550.681C127.971 552.713 130.025 555.205 131.608 558.157C133.212 561.109 134.239 564.488 134.688 568.296ZM163.783 611.963C158.799 611.963 154.489 610.904 150.853 608.786C147.238 606.647 144.446 603.674 142.478 599.867C140.511 596.038 139.527 591.6 139.527 586.552C139.527 581.461 140.511 577.012 142.478 573.204C144.446 569.376 147.238 566.403 150.853 564.285C154.489 562.146 158.799 561.076 163.783 561.076C168.766 561.076 173.066 562.146 176.681 564.285C180.317 566.403 183.119 569.376 185.087 573.204C187.055 577.012 188.038 581.461 188.038 586.552C188.038 591.6 187.055 596.038 185.087 599.867C183.119 603.674 180.317 606.647 176.681 608.786C173.066 610.904 168.766 611.963 163.783 611.963ZM163.847 601.375C166.114 601.375 168.007 600.733 169.526 599.45C171.044 598.145 172.189 596.369 172.959 594.124C173.75 591.878 174.146 589.322 174.146 586.455C174.146 583.589 173.75 581.033 172.959 578.787C172.189 576.541 171.044 574.766 169.526 573.461C168.007 572.156 166.114 571.504 163.847 571.504C161.558 571.504 159.633 572.156 158.072 573.461C156.531 574.766 155.366 576.541 154.574 578.787C153.804 581.033 153.419 583.589 153.419 586.455C153.419 589.322 153.804 591.878 154.574 594.124C155.366 596.369 156.531 598.145 158.072 599.45C159.633 600.733 161.558 601.375 163.847 601.375ZM235.053 575.771L222.54 576.541C222.326 575.472 221.866 574.509 221.16 573.654C220.454 572.777 219.524 572.081 218.369 571.568C217.235 571.033 215.877 570.766 214.294 570.766C212.176 570.766 210.39 571.215 208.936 572.114C207.481 572.991 206.754 574.167 206.754 575.643C206.754 576.819 207.225 577.814 208.166 578.627C209.107 579.44 210.722 580.092 213.01 580.584L221.93 582.381C226.721 583.365 230.293 584.947 232.646 587.129C234.999 589.311 236.175 592.177 236.175 595.728C236.175 598.958 235.224 601.792 233.32 604.23C231.438 606.669 228.85 608.572 225.556 609.941C222.283 611.289 218.508 611.963 214.23 611.963C207.706 611.963 202.508 610.604 198.637 607.888C194.786 605.15 192.53 601.428 191.867 596.722L205.31 596.017C205.717 598.006 206.701 599.524 208.262 600.573C209.823 601.599 211.823 602.113 214.262 602.113C216.657 602.113 218.582 601.653 220.037 600.733C221.513 599.792 222.262 598.583 222.283 597.107C222.262 595.867 221.737 594.851 220.711 594.059C219.684 593.247 218.101 592.626 215.962 592.198L207.428 590.498C202.615 589.535 199.032 587.867 196.679 585.493C194.348 583.119 193.182 580.092 193.182 576.413C193.182 573.247 194.038 570.52 195.749 568.231C197.482 565.943 199.909 564.178 203.032 562.937C206.176 561.697 209.855 561.076 214.069 561.076C220.294 561.076 225.192 562.392 228.764 565.023C232.357 567.654 234.454 571.237 235.053 575.771ZM268.118 561.718V571.985H238.44V561.718H268.118ZM245.177 549.911H258.845V595.856C258.845 597.118 259.038 598.102 259.423 598.808C259.808 599.492 260.343 599.974 261.027 600.252C261.733 600.53 262.546 600.669 263.466 600.669C264.107 600.669 264.749 600.615 265.391 600.508C266.032 600.38 266.524 600.284 266.867 600.22L269.016 610.39C268.332 610.604 267.369 610.85 266.129 611.128C264.888 611.428 263.38 611.61 261.605 611.674C258.311 611.802 255.423 611.364 252.942 610.358C250.482 609.353 248.568 607.792 247.199 605.674C245.83 603.556 245.156 600.883 245.177 597.653V549.911ZM314.637 611.963C309.567 611.963 305.204 610.936 301.546 608.882C297.91 606.808 295.108 603.877 293.14 600.091C291.172 596.284 290.188 591.781 290.188 586.584C290.188 581.514 291.172 577.065 293.14 573.237C295.108 569.408 297.878 566.424 301.45 564.285C305.043 562.146 309.257 561.076 314.091 561.076C317.343 561.076 320.369 561.601 323.171 562.649C325.995 563.675 328.454 565.226 330.551 567.301C332.668 569.376 334.315 571.985 335.492 575.13C336.668 578.252 337.256 581.91 337.256 586.102V589.856H295.643V581.386H324.39C324.39 579.418 323.963 577.675 323.107 576.156C322.251 574.638 321.064 573.45 319.546 572.595C318.048 571.718 316.305 571.279 314.316 571.279C312.241 571.279 310.402 571.761 308.797 572.723C307.215 573.664 305.974 574.937 305.076 576.541C304.177 578.124 303.717 579.889 303.696 581.835V589.888C303.696 592.327 304.145 594.434 305.043 596.209C305.963 597.984 307.257 599.353 308.926 600.316C310.594 601.278 312.573 601.76 314.861 601.76C316.38 601.76 317.77 601.546 319.032 601.118C320.294 600.69 321.374 600.048 322.273 599.193C323.171 598.337 323.856 597.289 324.326 596.049L336.968 596.883C336.326 599.92 335.01 602.572 333.021 604.84C331.053 607.086 328.508 608.84 325.385 610.102C322.284 611.342 318.701 611.963 314.637 611.963ZM369.8 561.718V571.985H339.384V561.718H369.8ZM346.346 611V558.157C346.346 554.585 347.042 551.622 348.432 549.269C349.844 546.917 351.769 545.152 354.207 543.975C356.646 542.799 359.416 542.211 362.517 542.211C364.613 542.211 366.528 542.371 368.26 542.692C370.014 543.013 371.319 543.302 372.174 543.558L369.736 553.825C369.201 553.654 368.538 553.494 367.747 553.344C366.977 553.194 366.185 553.12 365.373 553.12C363.362 553.12 361.961 553.59 361.169 554.531C360.378 555.451 359.982 556.745 359.982 558.413V611H346.346ZM401.775 561.718V571.985H371.359V561.718H401.775ZM378.321 611V558.157C378.321 554.585 379.016 551.622 380.406 549.269C381.818 546.917 383.743 545.152 386.182 543.975C388.62 542.799 391.39 542.211 394.491 542.211C396.588 542.211 398.502 542.371 400.235 542.692C401.989 543.013 403.293 543.302 404.149 543.558L401.71 553.825C401.176 553.654 400.513 553.494 399.721 553.344C398.951 553.194 398.16 553.12 397.347 553.12C395.336 553.12 393.935 553.59 393.144 554.531C392.353 555.451 391.957 556.745 391.957 558.413V611H378.321ZM407.247 611V561.718H420.915V611H407.247ZM414.113 555.365C412.081 555.365 410.338 554.692 408.884 553.344C407.45 551.975 406.734 550.339 406.734 548.435C406.734 546.553 407.45 544.938 408.884 543.59C410.338 542.221 412.081 541.537 414.113 541.537C416.145 541.537 417.878 542.221 419.311 543.59C420.766 544.938 421.493 546.553 421.493 548.435C421.493 550.339 420.766 551.975 419.311 553.344C417.878 554.692 416.145 555.365 414.113 555.365ZM451.253 611.963C446.205 611.963 441.863 610.893 438.227 608.754C434.612 606.594 431.832 603.599 429.885 599.77C427.96 595.942 426.997 591.535 426.997 586.552C426.997 581.504 427.971 577.076 429.917 573.269C431.885 569.44 434.676 566.456 438.291 564.317C441.906 562.157 446.205 561.076 451.189 561.076C455.489 561.076 459.253 561.857 462.483 563.419C465.713 564.98 468.269 567.173 470.151 569.996C472.033 572.819 473.071 576.135 473.263 579.942H460.365C460.002 577.482 459.039 575.504 457.478 574.007C455.938 572.488 453.916 571.729 451.414 571.729C449.296 571.729 447.446 572.306 445.863 573.461C444.302 574.595 443.083 576.252 442.206 578.434C441.329 580.616 440.89 583.258 440.89 586.359C440.89 589.503 441.318 592.177 442.173 594.38C443.05 596.583 444.28 598.262 445.863 599.417C447.446 600.573 449.296 601.15 451.414 601.15C452.975 601.15 454.376 600.829 455.617 600.188C456.879 599.546 457.916 598.615 458.729 597.396C459.563 596.156 460.109 594.669 460.365 592.936H473.263C473.049 596.701 472.023 600.016 470.183 602.883C468.365 605.727 465.852 607.952 462.643 609.556C459.435 611.16 455.638 611.963 451.253 611.963ZM479.137 611V561.718H492.805V611H479.137ZM486.003 555.365C483.971 555.365 482.228 554.692 480.773 553.344C479.34 551.975 478.624 550.339 478.624 548.435C478.624 546.553 479.34 544.938 480.773 543.59C482.228 542.221 483.971 541.537 486.003 541.537C488.035 541.537 489.768 542.221 491.201 543.59C492.655 544.938 493.383 546.553 493.383 548.435C493.383 550.339 492.655 551.975 491.201 553.344C489.768 554.692 488.035 555.365 486.003 555.365ZM523.336 611.963C518.266 611.963 513.903 610.936 510.245 608.882C506.609 606.808 503.807 603.877 501.839 600.091C499.871 596.284 498.887 591.781 498.887 586.584C498.887 581.514 499.871 577.065 501.839 573.237C503.807 569.408 506.577 566.424 510.149 564.285C513.742 562.146 517.956 561.076 522.79 561.076C526.041 561.076 529.068 561.601 531.87 562.649C534.694 563.675 537.153 565.226 539.25 567.301C541.367 569.376 543.014 571.985 544.191 575.13C545.367 578.252 545.955 581.91 545.955 586.102V589.856H504.342V581.386H533.089C533.089 579.418 532.662 577.675 531.806 576.156C530.95 574.638 529.763 573.45 528.245 572.595C526.747 571.718 525.004 571.279 523.015 571.279C520.94 571.279 519.1 571.761 517.496 572.723C515.913 573.664 514.673 574.937 513.774 576.541C512.876 578.124 512.416 579.889 512.395 581.835V589.888C512.395 592.327 512.844 594.434 513.742 596.209C514.662 597.984 515.956 599.353 517.625 600.316C519.293 601.278 521.272 601.76 523.56 601.76C525.079 601.76 526.469 601.546 527.731 601.118C528.993 600.69 530.073 600.048 530.972 599.193C531.87 598.337 532.555 597.289 533.025 596.049L545.666 596.883C545.025 599.92 543.709 602.572 541.72 604.84C539.752 607.086 537.207 608.84 534.084 610.102C530.982 611.342 527.4 611.963 523.336 611.963ZM565.665 582.509V611H551.997V561.718H565.024V570.413H565.601C566.692 567.547 568.521 565.28 571.088 563.611C573.654 561.921 576.767 561.076 580.424 561.076C583.847 561.076 586.83 561.825 589.376 563.322C591.921 564.82 593.9 566.959 595.311 569.739C596.723 572.499 597.429 575.793 597.429 579.621V611H583.761V582.06C583.782 579.044 583.012 576.691 581.451 575.001C579.889 573.29 577.74 572.434 575.002 572.434C573.162 572.434 571.537 572.83 570.125 573.622C568.735 574.413 567.644 575.568 566.852 577.087C566.082 578.584 565.687 580.391 565.665 582.509ZM627.591 611.963C622.543 611.963 618.201 610.893 614.564 608.754C610.949 606.594 608.169 603.599 606.222 599.77C604.297 595.942 603.335 591.535 603.335 586.552C603.335 581.504 604.308 577.076 606.254 573.269C608.222 569.44 611.014 566.456 614.629 564.317C618.243 562.157 622.543 561.076 627.526 561.076C631.826 561.076 635.59 561.857 638.82 563.419C642.05 564.98 644.606 567.173 646.488 569.996C648.371 572.819 649.408 576.135 649.601 579.942H636.703C636.339 577.482 635.376 575.504 633.815 574.007C632.275 572.488 630.254 571.729 627.751 571.729C625.633 571.729 623.783 572.306 622.2 573.461C620.639 574.595 619.42 576.252 618.543 578.434C617.666 580.616 617.227 583.258 617.227 586.359C617.227 589.503 617.655 592.177 618.511 594.38C619.388 596.583 620.618 598.262 622.2 599.417C623.783 600.573 625.633 601.15 627.751 601.15C629.313 601.15 630.714 600.829 631.954 600.188C633.216 599.546 634.254 598.615 635.066 597.396C635.901 596.156 636.446 594.669 636.703 592.936H649.601C649.387 596.701 648.36 600.016 646.521 602.883C644.702 605.727 642.189 607.952 638.981 609.556C635.772 611.16 631.976 611.963 627.591 611.963ZM663.912 629.481C662.18 629.481 660.554 629.342 659.036 629.064C657.538 628.807 656.298 628.475 655.314 628.069L658.394 617.866C659.998 618.358 661.442 618.625 662.725 618.668C664.03 618.711 665.153 618.412 666.094 617.77C667.057 617.128 667.837 616.037 668.436 614.497L669.239 612.412L651.56 561.718H665.934L676.137 597.91H676.65L686.949 561.718H701.419L682.265 616.326C681.345 618.978 680.094 621.288 678.511 623.256C676.95 625.246 674.971 626.775 672.575 627.844C670.18 628.935 667.292 629.481 663.912 629.481Z" fill="#D2D2D2"/>
<path d="M74.0657 105.727H83.2628L92.9766 129.426H93.3899L103.104 105.727H112.301V141H105.067V118.042H104.774L95.6461 140.828H90.7203L81.5922 117.956H81.2994V141H74.0657V105.727ZM133.727 129.736V114.545H141.064V141H134.02V136.195H133.745C133.148 137.745 132.154 138.991 130.765 139.932C129.387 140.874 127.705 141.344 125.719 141.344C123.95 141.344 122.395 140.943 121.051 140.139C119.708 139.335 118.657 138.193 117.899 136.711C117.153 135.23 116.774 133.456 116.763 131.39V114.545H124.1V130.081C124.111 131.642 124.53 132.876 125.357 133.784C126.184 134.691 127.292 135.144 128.681 135.144C129.565 135.144 130.392 134.943 131.161 134.541C131.93 134.128 132.55 133.519 133.021 132.716C133.503 131.912 133.739 130.919 133.727 129.736ZM152.726 105.727V141H145.389V105.727H152.726ZM171.13 114.545V120.057H155.198V114.545H171.13ZM158.815 108.207H166.152V132.871C166.152 133.548 166.255 134.076 166.462 134.455C166.669 134.823 166.956 135.081 167.323 135.23C167.702 135.38 168.138 135.454 168.632 135.454C168.977 135.454 169.321 135.425 169.666 135.368C170.01 135.299 170.274 135.248 170.458 135.213L171.612 140.673C171.244 140.788 170.728 140.92 170.062 141.069C169.396 141.23 168.586 141.327 167.633 141.362C165.865 141.431 164.315 141.195 162.983 140.656C161.663 140.116 160.635 139.278 159.9 138.141C159.165 137.004 158.804 135.569 158.815 133.835V108.207ZM174.364 141V114.545H181.701V141H174.364ZM178.05 111.135C176.959 111.135 176.023 110.774 175.243 110.05C174.473 109.315 174.089 108.437 174.089 107.415C174.089 106.405 174.473 105.538 175.243 104.814C176.023 104.08 176.959 103.712 178.05 103.712C179.141 103.712 180.071 104.08 180.84 104.814C181.621 105.538 182.011 106.405 182.011 107.415C182.011 108.437 181.621 109.315 180.84 110.05C180.071 110.774 179.141 111.135 178.05 111.135ZM202.517 123.605V129.426H186.43V123.605H202.517ZM221.295 114.545V120.057H205.364V114.545H221.295ZM208.981 108.207H216.318V132.871C216.318 133.548 216.421 134.076 216.628 134.455C216.834 134.823 217.121 135.081 217.489 135.23C217.868 135.38 218.304 135.454 218.798 135.454C219.142 135.454 219.487 135.425 219.831 135.368C220.176 135.299 220.44 135.248 220.623 135.213L221.777 140.673C221.41 140.788 220.893 140.92 220.227 141.069C219.561 141.23 218.752 141.327 217.799 141.362C216.031 141.431 214.481 141.195 213.149 140.656C211.828 140.116 210.801 139.278 210.066 138.141C209.331 137.004 208.969 135.569 208.981 133.835V108.207ZM236.302 141.517C233.581 141.517 231.238 140.966 229.275 139.863C227.323 138.75 225.819 137.176 224.762 135.144C223.706 133.1 223.178 130.683 223.178 127.893C223.178 125.172 223.706 122.784 224.762 120.729C225.819 118.673 227.306 117.071 229.223 115.923C231.152 114.775 233.414 114.201 236.009 114.201C237.754 114.201 239.379 114.482 240.883 115.045C242.399 115.596 243.719 116.429 244.844 117.542C245.981 118.656 246.865 120.057 247.497 121.745C248.128 123.421 248.444 125.384 248.444 127.635V129.65H226.106V125.103H241.538C241.538 124.047 241.308 123.111 240.849 122.296C240.389 121.481 239.752 120.843 238.937 120.384C238.133 119.913 237.197 119.678 236.13 119.678C235.016 119.678 234.028 119.936 233.167 120.453C232.318 120.958 231.652 121.641 231.169 122.502C230.687 123.352 230.44 124.299 230.429 125.344V129.667C230.429 130.976 230.67 132.107 231.152 133.06C231.646 134.013 232.341 134.748 233.236 135.265C234.132 135.781 235.194 136.04 236.422 136.04C237.238 136.04 237.984 135.925 238.661 135.695C239.339 135.466 239.919 135.121 240.401 134.662C240.883 134.203 241.251 133.64 241.503 132.974L248.289 133.422C247.945 135.052 247.238 136.476 246.171 137.693C245.114 138.899 243.748 139.84 242.072 140.518C240.407 141.184 238.483 141.517 236.302 141.517ZM259.024 125.706V141H251.687V114.545H258.68V119.213H258.99C259.576 117.674 260.557 116.457 261.935 115.562C263.313 114.655 264.984 114.201 266.947 114.201C268.784 114.201 270.386 114.603 271.752 115.407C273.119 116.21 274.181 117.359 274.938 118.851C275.696 120.332 276.075 122.101 276.075 124.156V141H268.738V125.465C268.75 123.846 268.336 122.583 267.498 121.676C266.66 120.757 265.506 120.298 264.036 120.298C263.049 120.298 262.176 120.51 261.418 120.935C260.672 121.36 260.087 121.98 259.662 122.795C259.248 123.599 259.036 124.569 259.024 125.706ZM287.857 141.499C286.169 141.499 284.665 141.207 283.345 140.621C282.024 140.024 280.979 139.146 280.21 137.986C279.452 136.815 279.073 135.357 279.073 133.611C279.073 132.142 279.343 130.907 279.883 129.908C280.422 128.909 281.157 128.106 282.087 127.497C283.017 126.889 284.074 126.429 285.256 126.119C286.45 125.809 287.702 125.591 289.011 125.465C290.549 125.304 291.79 125.155 292.731 125.017C293.673 124.868 294.356 124.65 294.781 124.363C295.205 124.076 295.418 123.651 295.418 123.088V122.985C295.418 121.894 295.073 121.05 294.384 120.453C293.707 119.856 292.743 119.557 291.491 119.557C290.171 119.557 289.12 119.85 288.339 120.436C287.558 121.01 287.042 121.733 286.789 122.606L280.003 122.055C280.348 120.447 281.025 119.058 282.036 117.887C283.046 116.704 284.349 115.797 285.945 115.165C287.553 114.522 289.413 114.201 291.525 114.201C292.995 114.201 294.402 114.373 295.745 114.718C297.1 115.062 298.3 115.596 299.345 116.319C300.401 117.043 301.233 117.973 301.842 119.11C302.451 120.235 302.755 121.584 302.755 123.157V141H295.797V137.331H295.59C295.165 138.158 294.597 138.887 293.885 139.519C293.173 140.139 292.318 140.627 291.319 140.983C290.32 141.327 289.166 141.499 287.857 141.499ZM289.958 136.436C291.037 136.436 291.99 136.223 292.817 135.799C293.644 135.362 294.293 134.777 294.763 134.042C295.234 133.307 295.47 132.475 295.47 131.545V128.737C295.24 128.886 294.924 129.024 294.522 129.151C294.132 129.265 293.69 129.374 293.196 129.478C292.702 129.57 292.209 129.656 291.715 129.736C291.221 129.805 290.773 129.868 290.371 129.926C289.51 130.052 288.758 130.253 288.115 130.528C287.472 130.804 286.973 131.177 286.617 131.648C286.261 132.107 286.083 132.681 286.083 133.37C286.083 134.369 286.445 135.133 287.168 135.661C287.903 136.178 288.833 136.436 289.958 136.436ZM314.239 125.706V141H306.902V114.545H313.895V119.213H314.205C314.791 117.674 315.772 116.457 317.15 115.562C318.528 114.655 320.199 114.201 322.162 114.201C323.999 114.201 325.601 114.603 326.967 115.407C328.334 116.21 329.396 117.359 330.154 118.851C330.911 120.332 331.29 122.101 331.29 124.156V141H323.953V125.465C323.965 123.846 323.551 122.583 322.713 121.676C321.875 120.757 320.721 120.298 319.251 120.298C318.264 120.298 317.391 120.51 316.633 120.935C315.887 121.36 315.302 121.98 314.877 122.795C314.463 123.599 314.251 124.569 314.239 125.706ZM347.481 141.517C344.771 141.517 342.44 140.943 340.489 139.794C338.548 138.635 337.055 137.027 336.011 134.972C334.977 132.917 334.46 130.551 334.46 127.876C334.46 125.166 334.983 122.79 336.028 120.746C337.084 118.69 338.582 117.089 340.523 115.941C342.463 114.781 344.771 114.201 347.447 114.201C349.754 114.201 351.775 114.62 353.509 115.458C355.243 116.296 356.615 117.473 357.625 118.989C358.636 120.505 359.193 122.284 359.296 124.328H352.372C352.177 123.008 351.661 121.946 350.822 121.142C349.996 120.327 348.911 119.919 347.567 119.919C346.43 119.919 345.437 120.229 344.588 120.849C343.749 121.458 343.095 122.347 342.624 123.519C342.153 124.69 341.918 126.108 341.918 127.773C341.918 129.461 342.148 130.896 342.607 132.078C343.078 133.261 343.738 134.162 344.588 134.782C345.437 135.403 346.43 135.713 347.567 135.713C348.405 135.713 349.157 135.54 349.823 135.196C350.501 134.851 351.058 134.352 351.494 133.697C351.942 133.031 352.235 132.233 352.372 131.303H359.296C359.181 133.324 358.63 135.104 357.643 136.643C356.667 138.17 355.318 139.364 353.595 140.225C351.873 141.086 349.835 141.517 347.481 141.517ZM366.979 150.92C366.049 150.92 365.176 150.846 364.361 150.697C363.557 150.559 362.891 150.381 362.363 150.163L364.016 144.686C364.877 144.95 365.653 145.093 366.341 145.116C367.042 145.139 367.645 144.979 368.15 144.634C368.667 144.29 369.086 143.704 369.407 142.877L369.838 141.758L360.348 114.545H368.064L373.541 133.973H373.816L379.345 114.545H387.112L376.83 143.859C376.337 145.283 375.665 146.523 374.815 147.579C373.977 148.647 372.915 149.468 371.629 150.042C370.343 150.628 368.793 150.92 366.979 150.92ZM399.003 141V114.545H406.34V141H399.003ZM402.689 111.135C401.598 111.135 400.662 110.774 399.881 110.05C399.112 109.315 398.727 108.437 398.727 107.415C398.727 106.405 399.112 105.538 399.881 104.814C400.662 104.08 401.598 103.712 402.689 103.712C403.779 103.712 404.709 104.08 405.479 104.814C406.26 105.538 406.65 106.405 406.65 107.415C406.65 108.437 406.26 109.315 405.479 110.05C404.709 110.774 403.779 111.135 402.689 111.135ZM418.01 125.706V141H410.673V114.545H417.665V119.213H417.975C418.561 117.674 419.543 116.457 420.92 115.562C422.298 114.655 423.969 114.201 425.932 114.201C427.769 114.201 429.371 114.603 430.738 115.407C432.104 116.21 433.166 117.359 433.924 118.851C434.682 120.332 435.06 122.101 435.06 124.156V141H427.723V125.465C427.735 123.846 427.322 122.583 426.483 121.676C425.645 120.757 424.491 120.298 423.022 120.298C422.034 120.298 421.162 120.51 420.404 120.935C419.657 121.36 419.072 121.98 418.647 122.795C418.234 123.599 418.021 124.569 418.01 125.706ZM449.117 141V105.727H456.574V121.28H457.039L469.733 105.727H478.672L465.582 121.521L478.827 141H469.905L460.243 126.498L456.574 130.976V141H449.117ZM496.18 129.736V114.545H503.517V141H496.473V136.195H496.197C495.6 137.745 494.607 138.991 493.218 139.932C491.84 140.874 490.158 141.344 488.171 141.344C486.403 141.344 484.847 140.943 483.504 140.139C482.16 139.335 481.11 138.193 480.352 136.711C479.606 135.23 479.227 133.456 479.215 131.39V114.545H486.552V130.081C486.564 131.642 486.983 132.876 487.809 133.784C488.636 134.691 489.744 135.144 491.134 135.144C492.018 135.144 492.844 134.943 493.614 134.541C494.383 134.128 495.003 133.519 495.474 132.716C495.956 131.912 496.191 130.919 496.18 129.736ZM507.979 141V105.727H515.316V118.989H515.54C515.861 118.277 516.326 117.554 516.935 116.819C517.555 116.073 518.359 115.453 519.346 114.959C520.345 114.454 521.585 114.201 523.066 114.201C524.995 114.201 526.775 114.706 528.405 115.717C530.036 116.716 531.339 118.225 532.315 120.246C533.291 122.256 533.779 124.776 533.779 127.807C533.779 130.758 533.302 133.25 532.349 135.282C531.408 137.303 530.122 138.836 528.491 139.881C526.872 140.914 525.058 141.431 523.049 141.431C521.625 141.431 520.414 141.195 519.415 140.724C518.427 140.254 517.618 139.662 516.986 138.95C516.355 138.227 515.873 137.498 515.54 136.763H515.212V141H507.979ZM515.161 127.773C515.161 129.346 515.379 130.718 515.815 131.889C516.252 133.06 516.883 133.973 517.71 134.627C518.537 135.27 519.541 135.592 520.724 135.592C521.918 135.592 522.928 135.265 523.755 134.61C524.582 133.944 525.208 133.026 525.632 131.855C526.069 130.672 526.287 129.311 526.287 127.773C526.287 126.246 526.074 124.902 525.65 123.743C525.225 122.583 524.599 121.676 523.772 121.021C522.946 120.367 521.929 120.04 520.724 120.04C519.53 120.04 518.519 120.355 517.693 120.987C516.877 121.618 516.252 122.514 515.815 123.674C515.379 124.833 515.161 126.2 515.161 127.773ZM549.186 141.517C546.465 141.517 544.122 140.966 542.159 139.863C540.207 138.75 538.703 137.176 537.647 135.144C536.59 133.1 536.062 130.683 536.062 127.893C536.062 125.172 536.59 122.784 537.647 120.729C538.703 118.673 540.19 117.071 542.107 115.923C544.036 114.775 546.298 114.201 548.893 114.201C550.639 114.201 552.263 114.482 553.767 115.045C555.283 115.596 556.603 116.429 557.729 117.542C558.865 118.656 559.749 120.057 560.381 121.745C561.013 123.421 561.328 125.384 561.328 127.635V129.65H538.99V125.103H554.422C554.422 124.047 554.192 123.111 553.733 122.296C553.274 121.481 552.636 120.843 551.821 120.384C551.017 119.913 550.082 119.678 549.014 119.678C547.9 119.678 546.913 119.936 546.051 120.453C545.202 120.958 544.536 121.641 544.054 122.502C543.571 123.352 543.324 124.299 543.313 125.344V129.667C543.313 130.976 543.554 132.107 544.036 133.06C544.53 134.013 545.225 134.748 546.12 135.265C547.016 135.781 548.078 136.04 549.307 136.04C550.122 136.04 550.868 135.925 551.546 135.695C552.223 135.466 552.803 135.121 553.285 134.662C553.767 134.203 554.135 133.64 554.387 132.974L561.173 133.422C560.829 135.052 560.123 136.476 559.055 137.693C557.998 138.899 556.632 139.84 554.956 140.518C553.291 141.184 551.368 141.517 549.186 141.517ZM564.572 141V114.545H571.685V119.161H571.96C572.443 117.519 573.252 116.279 574.389 115.441C575.526 114.591 576.834 114.167 578.316 114.167C578.683 114.167 579.079 114.19 579.504 114.235C579.929 114.281 580.302 114.345 580.624 114.425V120.935C580.279 120.832 579.803 120.74 579.194 120.66C578.585 120.579 578.029 120.539 577.523 120.539C576.444 120.539 575.48 120.774 574.63 121.245C573.792 121.704 573.126 122.347 572.632 123.174C572.15 124.001 571.909 124.954 571.909 126.033V141H564.572ZM590.209 125.706V141H582.872V114.545H589.865V119.213H590.175C590.76 117.674 591.742 116.457 593.12 115.562C594.498 114.655 596.168 114.201 598.132 114.201C599.969 114.201 601.571 114.603 602.937 115.407C604.303 116.21 605.366 117.359 606.123 118.851C606.881 120.332 607.26 122.101 607.26 124.156V141H599.923V125.465C599.935 123.846 599.521 122.583 598.683 121.676C597.845 120.757 596.691 120.298 595.221 120.298C594.234 120.298 593.361 120.51 592.603 120.935C591.857 121.36 591.271 121.98 590.847 122.795C590.433 123.599 590.221 124.569 590.209 125.706ZM623.554 141.517C620.833 141.517 618.491 140.966 616.527 139.863C614.575 138.75 613.071 137.176 612.015 135.144C610.959 133.1 610.43 130.683 610.43 127.893C610.43 125.172 610.959 122.784 612.015 120.729C613.071 118.673 614.558 117.071 616.476 115.923C618.405 114.775 620.667 114.201 623.261 114.201C625.007 114.201 626.631 114.482 628.136 115.045C629.651 115.596 630.972 116.429 632.097 117.542C633.234 118.656 634.118 120.057 634.749 121.745C635.381 123.421 635.696 125.384 635.696 127.635V129.65H613.358V125.103H628.79C628.79 124.047 628.56 123.111 628.101 122.296C627.642 121.481 627.005 120.843 626.189 120.384C625.386 119.913 624.45 119.678 623.382 119.678C622.268 119.678 621.281 119.936 620.42 120.453C619.57 120.958 618.904 121.641 618.422 122.502C617.94 123.352 617.693 124.299 617.681 125.344V129.667C617.681 130.976 617.922 132.107 618.405 133.06C618.898 134.013 619.593 134.748 620.489 135.265C621.384 135.781 622.446 136.04 623.675 136.04C624.49 136.04 625.236 135.925 625.914 135.695C626.591 135.466 627.171 135.121 627.653 134.662C628.136 134.203 628.503 133.64 628.756 132.974L635.541 133.422C635.197 135.052 634.491 136.476 633.423 137.693C632.367 138.899 631 139.84 629.324 140.518C627.659 141.184 625.736 141.517 623.554 141.517ZM653.011 114.545V120.057H637.08V114.545H653.011ZM640.697 108.207H648.034V132.871C648.034 133.548 648.137 134.076 648.344 134.455C648.55 134.823 648.837 135.081 649.205 135.23C649.584 135.38 650.02 135.454 650.514 135.454C650.858 135.454 651.203 135.425 651.547 135.368C651.892 135.299 652.156 135.248 652.339 135.213L653.493 140.673C653.126 140.788 652.609 140.92 651.943 141.069C651.277 141.23 650.468 141.327 649.515 141.362C647.747 141.431 646.197 141.195 644.865 140.656C643.544 140.116 642.517 139.278 641.782 138.141C641.047 137.004 640.685 135.569 640.697 133.835V108.207ZM668.018 141.517C665.297 141.517 662.954 140.966 660.991 139.863C659.039 138.75 657.535 137.176 656.478 135.144C655.422 133.1 654.894 130.683 654.894 127.893C654.894 125.172 655.422 122.784 656.478 120.729C657.535 118.673 659.022 117.071 660.939 115.923C662.868 114.775 665.13 114.201 667.725 114.201C669.47 114.201 671.095 114.482 672.599 115.045C674.115 115.596 675.435 116.429 676.56 117.542C677.697 118.656 678.581 120.057 679.213 121.745C679.844 123.421 680.16 125.384 680.16 127.635V129.65H657.822V125.103H673.254C673.254 124.047 673.024 123.111 672.565 122.296C672.105 121.481 671.468 120.843 670.653 120.384C669.849 119.913 668.913 119.678 667.846 119.678C666.732 119.678 665.744 119.936 664.883 120.453C664.034 120.958 663.368 121.641 662.885 122.502C662.403 123.352 662.156 124.299 662.145 125.344V129.667C662.145 130.976 662.386 132.107 662.868 133.06C663.362 134.013 664.057 134.748 664.952 135.265C665.848 135.781 666.91 136.04 668.138 136.04C668.954 136.04 669.7 135.925 670.377 135.695C671.055 135.466 671.635 135.121 672.117 134.662C672.599 134.203 672.967 133.64 673.219 132.974L680.005 133.422C679.661 135.052 678.954 136.476 677.887 137.693C676.83 138.899 675.464 139.84 673.788 140.518C672.123 141.184 670.199 141.517 668.018 141.517ZM705.414 122.089L698.697 122.502C698.583 121.928 698.336 121.412 697.957 120.952C697.578 120.482 697.079 120.108 696.458 119.833C695.85 119.546 695.121 119.402 694.271 119.402C693.134 119.402 692.176 119.643 691.395 120.126C690.614 120.596 690.224 121.228 690.224 122.02C690.224 122.652 690.476 123.186 690.982 123.622C691.487 124.058 692.354 124.408 693.582 124.673L698.37 125.637C700.942 126.165 702.86 127.015 704.123 128.186C705.386 129.357 706.017 130.896 706.017 132.802C706.017 134.536 705.506 136.057 704.484 137.366C703.474 138.675 702.085 139.697 700.316 140.432C698.56 141.155 696.533 141.517 694.237 141.517C690.735 141.517 687.945 140.788 685.866 139.329C683.8 137.86 682.588 135.862 682.232 133.336L689.449 132.957C689.667 134.025 690.195 134.84 691.033 135.403C691.871 135.954 692.945 136.229 694.254 136.229C695.54 136.229 696.573 135.982 697.354 135.489C698.146 134.983 698.548 134.335 698.56 133.542C698.548 132.876 698.267 132.331 697.716 131.906C697.165 131.47 696.315 131.137 695.167 130.907L690.585 129.994C688.002 129.478 686.079 128.582 684.816 127.308C683.564 126.033 682.938 124.408 682.938 122.434C682.938 120.734 683.398 119.27 684.316 118.042C685.246 116.813 686.55 115.866 688.226 115.2C689.914 114.534 691.889 114.201 694.151 114.201C697.492 114.201 700.121 114.907 702.039 116.319C703.968 117.732 705.093 119.655 705.414 122.089Z" fill="black"/>
</svg>
