<svg width="1200" height="900" viewBox="0 0 1200 900" fill="none" xmlns="http://www.w3.org/2000/svg">
<rect width="1200" height="900" fill="white"/>
<path fill-rule="evenodd" clip-rule="evenodd" d="M380 500.39C380 501.832 379.108 503 378.006 503H96.9936C95.8924 503 95 501.832 95 500.39V277C95 274.239 97.2386 272 100 272H375C377.761 272 380 274.239 380 277V500.39Z" fill="#FF003C"/>
<path d="M95 277C95 274.239 97.2386 272 100 272H375C377.761 272 380 274.239 380 277V295H95V277Z" fill="#CCCCCC"/>
<path fill-rule="evenodd" clip-rule="evenodd" d="M112 284.5C112 286.986 109.986 289 107.5 289C105.014 289 103 286.986 103 284.5C103 282.014 105.014 280 107.5 280C109.986 280 112 282.014 112 284.5Z" fill="#E74C3C"/>
<path fill-rule="evenodd" clip-rule="evenodd" d="M128 284.5C128 286.986 125.986 289 123.5 289C121.014 289 119 286.986 119 284.5C119 282.014 121.014 280 123.5 280C125.986 280 128 282.014 128 284.5Z" fill="#F1C40F"/>
<path fill-rule="evenodd" clip-rule="evenodd" d="M143 284.5C143 286.986 140.986 289 138.5 289C136.014 289 134 286.986 134 284.5C134 282.014 136.014 280 138.5 280C140.986 280 143 282.014 143 284.5Z" fill="#2ECC71"/>
<path d="M197.632 380.455H190.425L185.343 398.017H185.088L179.99 380.455H172.799L181.38 405H189.051L197.632 380.455ZM213.207 372.273H206.703L198.601 377.402V383.539L206.096 378.841H206.288V405H213.207V372.273ZM221.231 405.415C223.276 405.415 225.05 403.706 225.066 401.58C225.05 399.487 223.276 397.777 221.231 397.777C219.122 397.777 217.38 399.487 217.396 401.58C217.38 403.706 219.122 405.415 221.231 405.415ZM239.978 405.719C248.207 405.719 253.177 399.455 253.193 388.668C253.209 377.962 248.176 371.825 239.978 371.825C231.764 371.825 226.778 377.946 226.762 388.668C226.73 399.423 231.732 405.703 239.978 405.719ZM239.978 399.982C236.222 399.982 233.793 396.211 233.809 388.668C233.825 381.238 236.238 377.498 239.978 377.498C243.701 377.498 246.13 381.238 246.13 388.668C246.146 396.211 243.717 399.982 239.978 399.982ZM258.724 405.415C260.77 405.415 262.544 403.706 262.56 401.58C262.544 399.487 260.77 397.777 258.724 397.777C256.615 397.777 254.873 399.487 254.889 401.58C254.873 403.706 256.615 405.415 258.724 405.415ZM277.471 405.719C285.701 405.719 290.671 399.455 290.687 388.668C290.703 377.962 285.669 371.825 277.471 371.825C269.257 371.825 264.272 377.946 264.256 388.668C264.224 399.423 269.225 405.703 277.471 405.719ZM277.471 399.982C273.716 399.982 271.287 396.211 271.303 388.668C271.319 381.238 273.732 377.498 277.471 377.498C281.195 377.498 283.624 381.238 283.624 388.668C283.64 396.211 281.211 399.982 277.471 399.982Z" fill="white"/>
<path fill-rule="evenodd" clip-rule="evenodd" d="M742.426 500.781C742.426 502.222 741.534 503.391 740.433 503.391H459.42C458.319 503.391 457.426 502.222 457.426 500.781V277.391C457.426 274.629 459.665 272.391 462.426 272.391H737.426C740.188 272.391 742.426 274.629 742.426 277.391V500.781Z" fill="#FABE28"/>
<path d="M562.087 378.735L553.506 403.281H545.835L537.254 378.735H544.445L549.543 396.297H549.798L554.88 378.735H562.087ZM563.007 403.281V398.295L574.656 387.508C575.647 386.55 576.478 385.687 577.149 384.92C577.831 384.153 578.348 383.402 578.699 382.666C579.051 381.921 579.227 381.116 579.227 380.253C579.227 379.295 579.008 378.469 578.571 377.776C578.135 377.073 577.538 376.535 576.782 376.163C576.025 375.779 575.168 375.587 574.209 375.587C573.207 375.587 572.334 375.79 571.588 376.194C570.842 376.599 570.267 377.18 569.862 377.936C569.457 378.693 569.255 379.593 569.255 380.637H562.687C562.687 378.496 563.172 376.637 564.141 375.06C565.111 373.483 566.469 372.263 568.216 371.4C569.963 370.538 571.977 370.106 574.257 370.106C576.601 370.106 578.641 370.522 580.377 371.352C582.124 372.173 583.483 373.313 584.452 374.772C585.422 376.232 585.906 377.904 585.906 379.79C585.906 381.026 585.661 382.246 585.171 383.449C584.692 384.653 583.834 385.99 582.598 387.46C581.363 388.92 579.621 390.672 577.373 392.718L572.595 397.4V397.624H586.338V403.281H563.007ZM592.894 403.696C591.84 403.696 590.934 403.323 590.178 402.578C589.432 401.821 589.059 400.916 589.059 399.861C589.059 398.817 589.432 397.922 590.178 397.176C590.934 396.431 591.84 396.058 592.894 396.058C593.917 396.058 594.812 396.431 595.579 397.176C596.346 397.922 596.73 398.817 596.73 399.861C596.73 400.564 596.549 401.209 596.186 401.795C595.835 402.37 595.371 402.833 594.796 403.185C594.221 403.526 593.587 403.696 592.894 403.696ZM611.268 404C608.52 403.989 606.155 403.313 604.173 401.97C602.202 400.628 600.684 398.684 599.619 396.138C598.564 393.591 598.042 390.529 598.053 386.949C598.053 383.38 598.58 380.339 599.635 377.824C600.7 375.31 602.218 373.398 604.189 372.088C606.171 370.767 608.531 370.106 611.268 370.106C614.006 370.106 616.361 370.767 618.332 372.088C620.313 373.409 621.837 375.326 622.902 377.84C623.967 380.344 624.495 383.38 624.484 386.949C624.484 390.539 623.951 393.607 622.886 396.154C621.831 398.7 620.319 400.644 618.348 401.986C616.377 403.329 614.017 404 611.268 404ZM611.268 398.263C613.143 398.263 614.64 397.32 615.759 395.435C616.878 393.549 617.431 390.72 617.421 386.949C617.421 384.467 617.165 382.4 616.654 380.749C616.153 379.098 615.439 377.856 614.512 377.025C613.596 376.194 612.515 375.779 611.268 375.779C609.404 375.779 607.913 376.711 606.794 378.576C605.675 380.44 605.111 383.231 605.1 386.949C605.1 389.463 605.351 391.562 605.851 393.245C606.363 394.918 607.082 396.175 608.009 397.017C608.935 397.848 610.022 398.263 611.268 398.263ZM629.643 403.696C628.588 403.696 627.682 403.323 626.926 402.578C626.18 401.821 625.807 400.916 625.807 399.861C625.807 398.817 626.18 397.922 626.926 397.176C627.682 396.431 628.588 396.058 629.643 396.058C630.665 396.058 631.56 396.431 632.327 397.176C633.094 397.922 633.478 398.817 633.478 399.861C633.478 400.564 633.297 401.209 632.934 401.795C632.583 402.37 632.119 402.833 631.544 403.185C630.969 403.526 630.335 403.696 629.643 403.696ZM648.017 404C645.268 403.989 642.903 403.313 640.921 401.97C638.95 400.628 637.432 398.684 636.367 396.138C635.312 393.591 634.79 390.529 634.801 386.949C634.801 383.38 635.328 380.339 636.383 377.824C637.448 375.31 638.966 373.398 640.937 372.088C642.919 370.767 645.279 370.106 648.017 370.106C650.754 370.106 653.109 370.767 655.08 372.088C657.061 373.409 658.585 375.326 659.65 377.84C660.715 380.344 661.243 383.38 661.232 386.949C661.232 390.539 660.699 393.607 659.634 396.154C658.579 398.7 657.067 400.644 655.096 401.986C653.125 403.329 650.765 404 648.017 404ZM648.017 398.263C649.892 398.263 651.388 397.32 652.507 395.435C653.626 393.549 654.18 390.72 654.169 386.949C654.169 384.467 653.913 382.4 653.402 380.749C652.901 379.098 652.187 377.856 651.26 377.025C650.344 376.194 649.263 375.779 648.017 375.779C646.152 375.779 644.661 376.711 643.542 378.576C642.423 380.44 641.859 383.231 641.848 386.949C641.848 389.463 642.099 391.562 642.599 393.245C643.111 394.918 643.83 396.175 644.757 397.017C645.683 397.848 646.77 398.263 648.017 398.263Z" fill="black"/>
<path d="M457.426 277.391C457.426 274.629 459.665 272.391 462.426 272.391H737.426C740.188 272.391 742.426 274.629 742.426 277.391V295.391H457.426V277.391Z" fill="#CCCCCC"/>
<path fill-rule="evenodd" clip-rule="evenodd" d="M474.426 284.891C474.426 287.376 472.412 289.391 469.926 289.391C467.441 289.391 465.426 287.376 465.426 284.891C465.426 282.405 467.441 280.391 469.926 280.391C472.412 280.391 474.426 282.405 474.426 284.891Z" fill="#E74C3C"/>
<path fill-rule="evenodd" clip-rule="evenodd" d="M490.426 284.891C490.426 287.376 488.412 289.391 485.926 289.391C483.441 289.391 481.426 287.376 481.426 284.891C481.426 282.405 483.441 280.391 485.926 280.391C488.412 280.391 490.426 282.405 490.426 284.891Z" fill="#F1C40F"/>
<path fill-rule="evenodd" clip-rule="evenodd" d="M505.426 284.891C505.426 287.376 503.412 289.391 500.926 289.391C498.441 289.391 496.426 287.376 496.426 284.891C496.426 282.405 498.441 280.391 500.926 280.391C503.412 280.391 505.426 282.405 505.426 284.891Z" fill="#2ECC71"/>
<path fill-rule="evenodd" clip-rule="evenodd" d="M1104.95 500.781C1104.95 502.222 1104.05 503.391 1102.95 503.391H821.94C820.839 503.391 819.946 502.222 819.946 500.781V277.391C819.946 274.629 822.185 272.391 824.946 272.391H1099.95C1102.71 272.391 1104.95 274.629 1104.95 277.391V500.781Z" fill="#00C176"/>
<path d="M819.946 277.391C819.946 274.629 822.185 272.391 824.946 272.391H1099.95C1102.71 272.391 1104.95 274.629 1104.95 277.391V295.391H819.946V277.391Z" fill="#CCCCCC"/>
<path fill-rule="evenodd" clip-rule="evenodd" d="M836.946 284.891C836.946 287.376 834.932 289.391 832.446 289.391C829.961 289.391 827.946 287.376 827.946 284.891C827.946 282.405 829.961 280.391 832.446 280.391C834.932 280.391 836.946 282.405 836.946 284.891Z" fill="#E74C3C"/>
<path fill-rule="evenodd" clip-rule="evenodd" d="M852.946 284.891C852.946 287.376 850.932 289.391 848.446 289.391C845.961 289.391 843.946 287.376 843.946 284.891C843.946 282.405 845.961 280.391 848.446 280.391C850.932 280.391 852.946 282.405 852.946 284.891Z" fill="#F1C40F"/>
<path fill-rule="evenodd" clip-rule="evenodd" d="M867.946 284.891C867.946 287.376 865.932 289.391 863.446 289.391C860.961 289.391 858.946 287.376 858.946 284.891C858.946 282.405 860.961 280.391 863.446 280.391C865.932 280.391 867.946 282.405 867.946 284.891Z" fill="#2ECC71"/>
<path d="M923.368 378.735L914.786 403.281H907.116L898.535 378.735H905.726L910.823 396.297H911.079L916.161 378.735H923.368ZM936.801 403.728C934.415 403.728 932.289 403.318 930.425 402.498C928.571 401.667 927.106 400.527 926.03 399.078C924.965 397.618 924.416 395.935 924.384 394.028H931.352C931.394 394.827 931.655 395.53 932.135 396.138C932.625 396.734 933.275 397.198 934.084 397.528C934.894 397.858 935.805 398.023 936.817 398.023C937.872 398.023 938.804 397.837 939.613 397.464C940.423 397.091 941.057 396.574 941.515 395.914C941.973 395.253 942.202 394.492 942.202 393.629C942.202 392.755 941.957 391.983 941.467 391.312C940.988 390.63 940.295 390.097 939.39 389.714C938.495 389.33 937.43 389.138 936.194 389.138H933.142V384.057H936.194C937.238 384.057 938.159 383.876 938.958 383.513C939.768 383.151 940.397 382.65 940.844 382.011C941.291 381.361 941.515 380.605 941.515 379.742C941.515 378.922 941.318 378.203 940.924 377.585C940.54 376.956 939.997 376.466 939.294 376.115C938.601 375.763 937.792 375.587 936.865 375.587C935.927 375.587 935.07 375.758 934.292 376.099C933.514 376.429 932.891 376.903 932.422 377.521C931.954 378.139 931.703 378.863 931.671 379.694H925.04C925.072 377.808 925.61 376.147 926.654 374.708C927.698 373.27 929.104 372.146 930.872 371.337C932.651 370.516 934.66 370.106 936.897 370.106C939.155 370.106 941.132 370.516 942.825 371.337C944.519 372.157 945.835 373.265 946.773 374.66C947.721 376.045 948.189 377.601 948.179 379.327C948.189 381.159 947.62 382.688 946.469 383.913C945.329 385.138 943.843 385.916 942.01 386.246V386.502C944.418 386.811 946.251 387.647 947.508 389.011C948.775 390.364 949.404 392.057 949.393 394.092C949.404 395.957 948.866 397.613 947.779 399.062C946.703 400.511 945.217 401.651 943.321 402.482C941.425 403.313 939.251 403.728 936.801 403.728ZM955.404 403.696C954.349 403.696 953.444 403.323 952.687 402.578C951.942 401.821 951.569 400.916 951.569 399.861C951.569 398.817 951.942 397.922 952.687 397.176C953.444 396.431 954.349 396.058 955.404 396.058C956.427 396.058 957.322 396.431 958.089 397.176C958.856 397.922 959.239 398.817 959.239 399.861C959.239 400.564 959.058 401.209 958.696 401.795C958.344 402.37 957.881 402.833 957.306 403.185C956.73 403.526 956.096 403.696 955.404 403.696ZM974.195 404C971.446 403.989 969.081 403.313 967.099 401.97C965.129 400.628 963.61 398.684 962.545 396.138C961.49 393.591 960.968 390.529 960.979 386.949C960.979 383.38 961.506 380.339 962.561 377.824C963.626 375.31 965.145 373.398 967.115 372.088C969.097 370.767 971.457 370.106 974.195 370.106C976.933 370.106 979.287 370.767 981.258 372.088C983.239 373.409 984.763 375.326 985.828 377.84C986.893 380.344 987.421 383.38 987.41 386.949C987.41 390.539 986.877 393.607 985.812 396.154C984.757 398.7 983.245 400.644 981.274 401.986C979.303 403.329 976.943 404 974.195 404ZM974.195 398.263C976.07 398.263 977.566 397.32 978.685 395.435C979.804 393.549 980.358 390.72 980.347 386.949C980.347 384.467 980.091 382.4 979.58 380.749C979.079 379.098 978.365 377.856 977.439 377.025C976.522 376.194 975.441 375.779 974.195 375.779C972.33 375.779 970.839 376.711 969.72 378.576C968.602 380.44 968.037 383.231 968.026 386.949C968.026 389.463 968.277 391.562 968.777 393.245C969.289 394.918 970.008 396.175 970.935 397.017C971.862 397.848 972.948 398.263 974.195 398.263ZM992.985 403.696C991.931 403.696 991.025 403.323 990.269 402.578C989.523 401.821 989.15 400.916 989.15 399.861C989.15 398.817 989.523 397.922 990.269 397.176C991.025 396.431 991.931 396.058 992.985 396.058C994.008 396.058 994.903 396.431 995.67 397.176C996.437 397.922 996.821 398.817 996.821 399.861C996.821 400.564 996.639 401.209 996.277 401.795C995.926 402.37 995.462 402.833 994.887 403.185C994.312 403.526 993.678 403.696 992.985 403.696ZM1011.78 404C1009.03 403.989 1006.66 403.313 1004.68 401.97C1002.71 400.628 1001.19 398.684 1000.13 396.138C999.072 393.591 998.55 390.529 998.56 386.949C998.56 383.38 999.088 380.339 1000.14 377.824C1001.21 375.31 1002.73 373.398 1004.7 372.088C1006.68 370.767 1009.04 370.106 1011.78 370.106C1014.51 370.106 1016.87 370.767 1018.84 372.088C1020.82 373.409 1022.34 375.326 1023.41 377.84C1024.47 380.344 1025 383.38 1024.99 386.949C1024.99 390.539 1024.46 393.607 1023.39 396.154C1022.34 398.7 1020.83 400.644 1018.86 401.986C1016.88 403.329 1014.52 404 1011.78 404ZM1011.78 398.263C1013.65 398.263 1015.15 397.32 1016.27 395.435C1017.38 393.549 1017.94 390.72 1017.93 386.949C1017.93 384.467 1017.67 382.4 1017.16 380.749C1016.66 379.098 1015.95 377.856 1015.02 377.025C1014.1 376.194 1013.02 375.779 1011.78 375.779C1009.91 375.779 1008.42 376.711 1007.3 378.576C1006.18 380.44 1005.62 383.231 1005.61 386.949C1005.61 389.463 1005.86 391.562 1006.36 393.245C1006.87 394.918 1007.59 396.175 1008.52 397.017C1009.44 397.848 1010.53 398.263 1011.78 398.263Z" fill="white"/>
</svg>
