<svg width="1200" height="900" viewBox="0 0 1200 900" fill="none" xmlns="http://www.w3.org/2000/svg">
<rect width="1200" height="900" fill="white"/>
<path d="M77.321 287.273H96.2841L116.312 336.136H117.165L137.193 287.273H156.156V360H141.241V312.663H140.638L121.817 359.645H111.661L92.8395 312.486H92.2358V360H77.321V287.273ZM200.888 336.776V305.455H216.016V360H201.492V350.092H200.923C199.692 353.288 197.645 355.857 194.78 357.798C191.939 359.74 188.471 360.71 184.375 360.71C180.729 360.71 177.521 359.882 174.752 358.224C171.982 356.567 169.816 354.212 168.253 351.158C166.714 348.104 165.933 344.446 165.909 340.185V305.455H181.037V337.486C181.061 340.705 181.925 343.25 183.629 345.121C185.334 346.991 187.619 347.926 190.483 347.926C192.306 347.926 194.011 347.512 195.597 346.683C197.183 345.831 198.461 344.576 199.432 342.919C200.426 341.262 200.912 339.214 200.888 336.776ZM240.613 287.273V360H225.485V287.273H240.613ZM279.112 305.455V316.818H246.264V305.455H279.112ZM253.721 292.386H268.849V343.239C268.849 344.635 269.062 345.724 269.488 346.506C269.915 347.263 270.506 347.796 271.264 348.104C272.045 348.411 272.945 348.565 273.963 348.565C274.673 348.565 275.383 348.506 276.094 348.388C276.804 348.246 277.348 348.139 277.727 348.068L280.106 359.325C279.349 359.562 278.283 359.834 276.91 360.142C275.537 360.473 273.868 360.675 271.903 360.746C268.257 360.888 265.061 360.402 262.315 359.29C259.593 358.177 257.474 356.449 255.959 354.105C254.443 351.761 253.698 348.802 253.721 345.227V292.386ZM286.335 360V305.455H301.463V360H286.335ZM293.934 298.423C291.685 298.423 289.756 297.678 288.146 296.186C286.56 294.671 285.767 292.86 285.767 290.753C285.767 288.67 286.56 286.882 288.146 285.391C289.756 283.875 291.685 283.118 293.934 283.118C296.183 283.118 298.101 283.875 299.687 285.391C301.297 286.882 302.102 288.67 302.102 290.753C302.102 292.86 301.297 294.671 299.687 296.186C298.101 297.678 296.183 298.423 293.934 298.423ZM344.934 324.134V336.136H311.766V324.134H344.934ZM384.206 305.455V316.818H351.358V305.455H384.206ZM358.815 292.386H373.943V343.239C373.943 344.635 374.156 345.724 374.582 346.506C375.008 347.263 375.6 347.796 376.358 348.104C377.139 348.411 378.038 348.565 379.056 348.565C379.767 348.565 380.477 348.506 381.187 348.388C381.897 348.246 382.442 348.139 382.821 348.068L385.2 359.325C384.442 359.562 383.377 359.834 382.004 360.142C380.631 360.473 378.962 360.675 376.997 360.746C373.351 360.888 370.155 360.402 367.409 359.29C364.686 358.177 362.567 356.449 361.052 354.105C359.537 351.761 358.791 348.802 358.815 345.227V292.386ZM415.7 361.065C410.09 361.065 405.26 359.929 401.212 357.656C397.187 355.36 394.086 352.116 391.908 347.926C389.73 343.712 388.641 338.729 388.641 332.976C388.641 327.365 389.73 322.441 391.908 318.203C394.086 313.965 397.152 310.663 401.105 308.295C405.083 305.928 409.746 304.744 415.097 304.744C418.695 304.744 422.045 305.324 425.146 306.484C428.271 307.621 430.994 309.337 433.314 311.634C435.658 313.93 437.481 316.818 438.783 320.298C440.085 323.755 440.736 327.803 440.736 332.443V336.598H394.678V327.223H426.496C426.496 325.045 426.022 323.116 425.075 321.435C424.128 319.754 422.815 318.44 421.134 317.493C419.476 316.522 417.547 316.037 415.345 316.037C413.049 316.037 411.013 316.57 409.237 317.635C407.485 318.677 406.112 320.085 405.118 321.861C404.124 323.613 403.615 325.566 403.591 327.72V336.634C403.591 339.332 404.088 341.664 405.083 343.629C406.1 345.594 407.533 347.109 409.379 348.175C411.226 349.24 413.416 349.773 415.949 349.773C417.63 349.773 419.169 349.536 420.565 349.062C421.962 348.589 423.158 347.879 424.152 346.932C425.146 345.985 425.904 344.825 426.425 343.452L440.416 344.375C439.706 347.737 438.25 350.672 436.048 353.182C433.87 355.668 431.053 357.609 427.597 359.006C424.164 360.379 420.199 361.065 415.7 361.065ZM463.104 328.466V360H447.976V305.455H462.394V315.078H463.033C464.241 311.906 466.265 309.396 469.106 307.55C471.947 305.679 475.391 304.744 479.44 304.744C483.227 304.744 486.53 305.573 489.347 307.23C492.164 308.887 494.354 311.255 495.917 314.332C497.479 317.386 498.261 321.032 498.261 325.27V360H483.133V327.969C483.156 324.631 482.304 322.027 480.576 320.156C478.848 318.262 476.468 317.315 473.438 317.315C471.402 317.315 469.603 317.753 468.04 318.629C466.502 319.505 465.294 320.784 464.418 322.464C463.566 324.122 463.128 326.122 463.104 328.466ZM523.106 361.03C519.626 361.03 516.524 360.426 513.802 359.219C511.079 357.988 508.925 356.177 507.339 353.786C505.776 351.371 504.995 348.364 504.995 344.766C504.995 341.735 505.551 339.19 506.664 337.131C507.777 335.071 509.292 333.414 511.21 332.159C513.127 330.904 515.305 329.957 517.744 329.318C520.206 328.679 522.786 328.229 525.485 327.969C528.658 327.637 531.214 327.33 533.156 327.045C535.097 326.738 536.506 326.288 537.381 325.696C538.257 325.104 538.695 324.228 538.695 323.068V322.855C538.695 320.606 537.985 318.866 536.565 317.635C535.168 316.404 533.179 315.788 530.599 315.788C527.876 315.788 525.71 316.392 524.1 317.599C522.49 318.783 521.425 320.275 520.904 322.074L506.913 320.938C507.623 317.623 509.02 314.759 511.103 312.344C513.186 309.905 515.873 308.035 519.164 306.733C522.479 305.407 526.314 304.744 530.67 304.744C533.7 304.744 536.6 305.099 539.37 305.81C542.164 306.52 544.638 307.621 546.792 309.112C548.97 310.604 550.686 312.521 551.941 314.865C553.196 317.185 553.823 319.967 553.823 323.21V360H539.477V352.436H539.051C538.175 354.141 537.003 355.644 535.535 356.946C534.067 358.224 532.303 359.231 530.244 359.964C528.184 360.675 525.805 361.03 523.106 361.03ZM527.438 350.589C529.664 350.589 531.629 350.152 533.333 349.276C535.038 348.376 536.375 347.169 537.346 345.653C538.317 344.138 538.802 342.422 538.802 340.504V334.716C538.328 335.024 537.677 335.308 536.849 335.568C536.044 335.805 535.132 336.03 534.114 336.243C533.096 336.432 532.078 336.61 531.06 336.776C530.042 336.918 529.119 337.048 528.291 337.166C526.515 337.427 524.964 337.841 523.639 338.409C522.313 338.977 521.283 339.747 520.549 340.717C519.815 341.664 519.448 342.848 519.448 344.268C519.448 346.328 520.194 347.902 521.685 348.991C523.201 350.057 525.118 350.589 527.438 350.589ZM578.056 328.466V360H562.928V305.455H577.346V315.078H577.985C579.192 311.906 581.217 309.396 584.057 307.55C586.898 305.679 590.343 304.744 594.391 304.744C598.179 304.744 601.482 305.573 604.299 307.23C607.116 308.887 609.306 311.255 610.869 314.332C612.431 317.386 613.212 321.032 613.212 325.27V360H598.084V327.969C598.108 324.631 597.256 322.027 595.528 320.156C593.799 318.262 591.42 317.315 588.39 317.315C586.354 317.315 584.555 317.753 582.992 318.629C581.453 319.505 580.246 320.784 579.37 322.464C578.518 324.122 578.08 326.122 578.056 328.466ZM647.148 361.065C641.561 361.065 636.756 359.882 632.731 357.514C628.73 355.123 625.652 351.809 623.498 347.571C621.367 343.333 620.302 338.456 620.302 332.94C620.302 327.353 621.379 322.453 623.533 318.239C625.711 314.001 628.801 310.698 632.802 308.331C636.803 305.94 641.561 304.744 647.077 304.744C651.836 304.744 656.003 305.608 659.577 307.337C663.152 309.065 665.981 311.491 668.065 314.616C670.148 317.741 671.296 321.411 671.509 325.625H657.234C656.831 322.902 655.766 320.713 654.038 319.055C652.333 317.375 650.096 316.534 647.326 316.534C644.982 316.534 642.934 317.173 641.183 318.452C639.454 319.706 638.105 321.541 637.134 323.956C636.164 326.371 635.678 329.295 635.678 332.727C635.678 336.207 636.152 339.167 637.099 341.605C638.069 344.044 639.431 345.902 641.183 347.18C642.934 348.459 644.982 349.098 647.326 349.098C649.054 349.098 650.605 348.743 651.978 348.033C653.375 347.322 654.523 346.293 655.423 344.943C656.346 343.57 656.95 341.925 657.234 340.007H671.509C671.273 344.174 670.136 347.843 668.1 351.016C666.088 354.164 663.306 356.626 659.755 358.402C656.204 360.178 652.002 361.065 647.148 361.065ZM687.903 380.455C685.985 380.455 684.186 380.301 682.505 379.993C680.848 379.709 679.475 379.342 678.386 378.892L681.795 367.599C683.571 368.144 685.169 368.44 686.589 368.487C688.033 368.535 689.276 368.203 690.318 367.493C691.383 366.783 692.247 365.575 692.91 363.871L693.798 361.562L674.231 305.455H690.14L701.433 345.511H702.001L713.4 305.455H729.416L708.215 365.895C707.197 368.83 705.813 371.387 704.061 373.565C702.332 375.767 700.143 377.46 697.491 378.643C694.84 379.851 691.644 380.455 687.903 380.455ZM755.039 360V305.455H770.166V360H755.039ZM762.638 298.423C760.389 298.423 758.46 297.678 756.85 296.186C755.263 294.671 754.47 292.86 754.47 290.753C754.47 288.67 755.263 286.882 756.85 285.391C758.46 283.875 760.389 283.118 762.638 283.118C764.887 283.118 766.805 283.875 768.391 285.391C770.001 286.882 770.806 288.67 770.806 290.753C770.806 292.86 770.001 294.671 768.391 296.186C766.805 297.678 764.887 298.423 762.638 298.423ZM794.781 328.466V360H779.653V305.455H794.071V315.078H794.71C795.917 311.906 797.941 309.396 800.782 307.55C803.623 305.679 807.068 304.744 811.116 304.744C814.904 304.744 818.207 305.573 821.024 307.23C823.841 308.887 826.031 311.255 827.593 314.332C829.156 317.386 829.937 321.032 829.937 325.27V360H814.809V327.969C814.833 324.631 813.981 322.027 812.253 320.156C810.524 318.262 808.145 317.315 805.115 317.315C803.079 317.315 801.28 317.753 799.717 318.629C798.178 319.505 796.971 320.784 796.095 322.464C795.243 324.122 794.805 326.122 794.781 328.466ZM77.321 444V371.273H92.6974V403.339H93.6562L119.828 371.273H138.259L111.27 403.837L138.578 444H120.183L100.261 414.099L92.6974 423.332V444H77.321ZM174.911 420.776V389.455H190.039V444H175.515V434.092H174.947C173.716 437.288 171.668 439.857 168.803 441.798C165.963 443.74 162.494 444.71 158.399 444.71C154.753 444.71 151.545 443.882 148.775 442.224C146.005 440.567 143.839 438.212 142.276 435.158C140.738 432.104 139.956 428.446 139.933 424.185V389.455H155.061V421.486C155.084 424.705 155.948 427.25 157.653 429.121C159.357 430.991 161.642 431.926 164.507 431.926C166.329 431.926 168.034 431.512 169.62 430.683C171.206 429.831 172.485 428.576 173.455 426.919C174.45 425.262 174.935 423.214 174.911 420.776ZM199.792 444V371.273H214.92V398.616H215.382C216.045 397.149 217.003 395.657 218.258 394.142C219.537 392.603 221.194 391.325 223.23 390.307C225.289 389.265 227.846 388.744 230.9 388.744C234.877 388.744 238.547 389.786 241.909 391.869C245.27 393.929 247.957 397.042 249.97 401.209C251.982 405.352 252.988 410.548 252.988 416.798C252.988 422.883 252.006 428.02 250.041 432.21C248.1 436.377 245.448 439.537 242.086 441.692C238.748 443.822 235.008 444.888 230.865 444.888C227.929 444.888 225.431 444.402 223.372 443.432C221.336 442.461 219.667 441.242 218.365 439.774C217.063 438.283 216.068 436.779 215.382 435.264H214.707V444H199.792ZM214.6 416.727C214.6 419.971 215.05 422.8 215.95 425.214C216.85 427.629 218.152 429.511 219.856 430.861C221.561 432.187 223.632 432.849 226.071 432.849C228.533 432.849 230.616 432.175 232.321 430.825C234.025 429.452 235.315 427.558 236.191 425.143C237.091 422.705 237.541 419.9 237.541 416.727C237.541 413.579 237.103 410.809 236.227 408.418C235.351 406.027 234.061 404.156 232.356 402.807C230.652 401.457 228.556 400.783 226.071 400.783C223.609 400.783 221.525 401.434 219.821 402.736C218.14 404.038 216.85 405.884 215.95 408.276C215.05 410.667 214.6 413.484 214.6 416.727ZM285.309 445.065C279.698 445.065 274.868 443.929 270.82 441.656C266.795 439.36 263.694 436.116 261.516 431.926C259.338 427.712 258.249 422.729 258.249 416.976C258.249 411.365 259.338 406.441 261.516 402.203C263.694 397.965 266.76 394.663 270.714 392.295C274.691 389.928 279.355 388.744 284.705 388.744C288.304 388.744 291.653 389.324 294.755 390.484C297.88 391.621 300.602 393.337 302.922 395.634C305.266 397.93 307.089 400.818 308.391 404.298C309.693 407.755 310.344 411.803 310.344 416.443V420.598H264.286V411.223H296.104C296.104 409.045 295.631 407.116 294.684 405.435C293.737 403.754 292.423 402.44 290.742 401.493C289.085 400.522 287.155 400.037 284.954 400.037C282.657 400.037 280.621 400.57 278.846 401.635C277.094 402.677 275.721 404.085 274.726 405.861C273.732 407.613 273.223 409.566 273.199 411.72V420.634C273.199 423.332 273.697 425.664 274.691 427.629C275.709 429.594 277.141 431.109 278.988 432.175C280.834 433.24 283.024 433.773 285.557 433.773C287.238 433.773 288.777 433.536 290.174 433.062C291.571 432.589 292.766 431.879 293.76 430.932C294.755 429.985 295.512 428.825 296.033 427.452L310.025 428.375C309.314 431.737 307.858 434.672 305.657 437.182C303.479 439.668 300.661 441.609 297.205 443.006C293.772 444.379 289.807 445.065 285.309 445.065ZM317.585 444V389.455H332.251V398.972H332.819C333.814 395.586 335.483 393.029 337.826 391.301C340.17 389.549 342.869 388.673 345.923 388.673C346.68 388.673 347.497 388.721 348.373 388.815C349.249 388.91 350.019 389.04 350.681 389.206V402.629C349.971 402.416 348.989 402.227 347.734 402.061C346.479 401.895 345.331 401.812 344.289 401.812C342.064 401.812 340.075 402.298 338.323 403.268C336.595 404.215 335.222 405.541 334.204 407.246C333.21 408.95 332.713 410.915 332.713 413.141V444H317.585ZM370.999 412.466V444H355.871V389.455H370.289V399.078H370.928C372.135 395.906 374.16 393.396 377 391.55C379.841 389.679 383.286 388.744 387.334 388.744C391.122 388.744 394.425 389.573 397.242 391.23C400.059 392.887 402.249 395.255 403.812 398.332C405.374 401.386 406.155 405.032 406.155 409.27V444H391.027V411.969C391.051 408.631 390.199 406.027 388.471 404.156C386.742 402.262 384.363 401.315 381.333 401.315C379.297 401.315 377.498 401.753 375.935 402.629C374.396 403.505 373.189 404.784 372.313 406.464C371.461 408.122 371.023 410.122 370.999 412.466ZM440.305 445.065C434.694 445.065 429.864 443.929 425.816 441.656C421.791 439.36 418.69 436.116 416.512 431.926C414.334 427.712 413.245 422.729 413.245 416.976C413.245 411.365 414.334 406.441 416.512 402.203C418.69 397.965 421.756 394.663 425.709 392.295C429.687 389.928 434.351 388.744 439.701 388.744C443.299 388.744 446.649 389.324 449.751 390.484C452.876 391.621 455.598 393.337 457.918 395.634C460.262 397.93 462.085 400.818 463.387 404.298C464.689 407.755 465.34 411.803 465.34 416.443V420.598H419.282V411.223H451.1C451.1 409.045 450.627 407.116 449.68 405.435C448.733 403.754 447.419 402.44 445.738 401.493C444.081 400.522 442.151 400.037 439.95 400.037C437.653 400.037 435.617 400.57 433.842 401.635C432.09 402.677 430.717 404.085 429.722 405.861C428.728 407.613 428.219 409.566 428.195 411.72V420.634C428.195 423.332 428.692 425.664 429.687 427.629C430.705 429.594 432.137 431.109 433.984 432.175C435.83 433.24 438.02 433.773 440.553 433.773C442.234 433.773 443.773 433.536 445.17 433.062C446.566 432.589 447.762 431.879 448.756 430.932C449.751 429.985 450.508 428.825 451.029 427.452L465.021 428.375C464.31 431.737 462.854 434.672 460.653 437.182C458.475 439.668 455.657 441.609 452.201 443.006C448.768 444.379 444.803 445.065 440.305 445.065ZM501.594 389.455V400.818H468.745V389.455H501.594ZM476.203 376.386H491.331V427.239C491.331 428.635 491.544 429.724 491.97 430.506C492.396 431.263 492.988 431.796 493.745 432.104C494.527 432.411 495.426 432.565 496.444 432.565C497.155 432.565 497.865 432.506 498.575 432.388C499.285 432.246 499.83 432.139 500.209 432.068L502.588 443.325C501.83 443.562 500.765 443.834 499.392 444.142C498.019 444.473 496.35 444.675 494.385 444.746C490.739 444.888 487.543 444.402 484.797 443.29C482.074 442.177 479.955 440.449 478.44 438.105C476.925 435.761 476.179 432.802 476.203 429.227V376.386ZM533.088 445.065C527.478 445.065 522.648 443.929 518.6 441.656C514.575 439.36 511.474 436.116 509.296 431.926C507.118 427.712 506.029 422.729 506.029 416.976C506.029 411.365 507.118 406.441 509.296 402.203C511.474 397.965 514.54 394.663 518.493 392.295C522.47 389.928 527.134 388.744 532.485 388.744C536.083 388.744 539.433 389.324 542.534 390.484C545.659 391.621 548.382 393.337 550.702 395.634C553.046 397.93 554.869 400.818 556.171 404.298C557.473 407.755 558.124 411.803 558.124 416.443V420.598H512.066V411.223H543.884C543.884 409.045 543.41 407.116 542.463 405.435C541.516 403.754 540.202 402.44 538.522 401.493C536.864 400.522 534.935 400.037 532.733 400.037C530.437 400.037 528.401 400.57 526.625 401.635C524.873 402.677 523.5 404.085 522.506 405.861C521.512 407.613 521.003 409.566 520.979 411.72V420.634C520.979 423.332 521.476 425.664 522.47 427.629C523.488 429.594 524.921 431.109 526.767 432.175C528.614 433.24 530.804 433.773 533.337 433.773C535.018 433.773 536.557 433.536 537.953 433.062C539.35 432.589 540.546 431.879 541.54 430.932C542.534 429.985 543.292 428.825 543.813 427.452L557.804 428.375C557.094 431.737 555.638 434.672 553.436 437.182C551.258 439.668 548.441 441.609 544.985 443.006C541.552 444.379 537.586 445.065 533.088 445.065ZM610.748 405.009L596.899 405.861C596.662 404.677 596.153 403.612 595.372 402.665C594.59 401.694 593.56 400.925 592.282 400.357C591.027 399.765 589.524 399.469 587.772 399.469C585.428 399.469 583.452 399.966 581.842 400.96C580.232 401.931 579.427 403.233 579.427 404.866C579.427 406.169 579.948 407.269 580.989 408.169C582.031 409.069 583.819 409.791 586.352 410.335L596.224 412.324C601.527 413.413 605.48 415.165 608.085 417.58C610.689 419.994 611.991 423.167 611.991 427.097C611.991 430.671 610.937 433.808 608.83 436.507C606.747 439.206 603.882 441.313 600.237 442.828C596.614 444.32 592.436 445.065 587.701 445.065C580.48 445.065 574.728 443.562 570.443 440.555C566.181 437.525 563.684 433.406 562.95 428.197L577.829 427.416C578.279 429.618 579.368 431.299 581.096 432.459C582.824 433.595 585.038 434.163 587.737 434.163C590.388 434.163 592.519 433.654 594.129 432.636C595.762 431.595 596.591 430.257 596.614 428.624C596.591 427.25 596.011 426.126 594.874 425.25C593.738 424.35 591.986 423.664 589.619 423.19L580.173 421.308C574.846 420.243 570.881 418.396 568.276 415.768C565.696 413.141 564.406 409.791 564.406 405.719C564.406 402.215 565.353 399.196 567.247 396.663C569.164 394.13 571.851 392.177 575.308 390.804C578.788 389.431 582.86 388.744 587.524 388.744C594.413 388.744 599.834 390.2 603.788 393.112C607.765 396.024 610.085 399.99 610.748 405.009Z" fill="black"/>
<rect x="71" y="498" width="1038" height="19" fill="black"/>
</svg>
