<svg width="1200" height="900" viewBox="0 0 1200 900" fill="none" xmlns="http://www.w3.org/2000/svg">
<rect width="1200" height="900" fill="white"/>
<path d="M138.152 376.273V449H124.871L93.2301 403.226H92.6974V449H77.321V376.273H90.8153L122.207 422.011H122.847V376.273H138.152ZM163.494 450.03C160.014 450.03 156.913 449.426 154.191 448.219C151.468 446.988 149.314 445.177 147.727 442.786C146.165 440.371 145.384 437.364 145.384 433.766C145.384 430.735 145.94 428.19 147.053 426.131C148.165 424.071 149.681 422.414 151.598 421.159C153.516 419.904 155.694 418.957 158.132 418.318C160.594 417.679 163.175 417.229 165.874 416.969C169.046 416.637 171.603 416.33 173.544 416.045C175.485 415.738 176.894 415.288 177.77 414.696C178.646 414.104 179.084 413.228 179.084 412.068V411.855C179.084 409.606 178.374 407.866 176.953 406.635C175.557 405.404 173.568 404.788 170.987 404.788C168.265 404.788 166.099 405.392 164.489 406.599C162.879 407.783 161.814 409.275 161.293 411.074L147.301 409.938C148.012 406.623 149.408 403.759 151.492 401.344C153.575 398.905 156.262 397.035 159.553 395.733C162.867 394.407 166.702 393.744 171.058 393.744C174.089 393.744 176.989 394.099 179.759 394.81C182.552 395.52 185.026 396.621 187.181 398.112C189.359 399.604 191.075 401.521 192.33 403.865C193.584 406.185 194.212 408.967 194.212 412.21V449H179.865V441.436H179.439C178.563 443.141 177.391 444.644 175.923 445.946C174.456 447.224 172.692 448.231 170.632 448.964C168.573 449.675 166.193 450.03 163.494 450.03ZM167.827 439.589C170.052 439.589 172.017 439.152 173.722 438.276C175.426 437.376 176.764 436.169 177.735 434.653C178.705 433.138 179.191 431.422 179.191 429.504V423.716C178.717 424.024 178.066 424.308 177.237 424.568C176.432 424.805 175.521 425.03 174.503 425.243C173.485 425.432 172.467 425.61 171.449 425.776C170.431 425.918 169.508 426.048 168.679 426.166C166.904 426.427 165.353 426.841 164.027 427.409C162.701 427.977 161.672 428.747 160.938 429.717C160.204 430.664 159.837 431.848 159.837 433.268C159.837 435.328 160.583 436.902 162.074 437.991C163.589 439.057 165.507 439.589 167.827 439.589ZM203.317 449V394.455H217.734V404.078H218.374C219.51 400.882 221.404 398.361 224.055 396.514C226.707 394.668 229.879 393.744 233.572 393.744C237.313 393.744 240.497 394.679 243.125 396.55C245.753 398.396 247.505 400.906 248.381 404.078H248.949C250.062 400.953 252.074 398.455 254.986 396.585C257.921 394.691 261.39 393.744 265.391 393.744C270.481 393.744 274.612 395.366 277.784 398.609C280.98 401.829 282.578 406.398 282.578 412.317V449H267.486V415.3C267.486 412.269 266.681 409.997 265.071 408.482C263.461 406.966 261.449 406.209 259.034 406.209C256.288 406.209 254.145 407.085 252.607 408.837C251.068 410.565 250.298 412.849 250.298 415.69V449H235.632V414.98C235.632 412.305 234.863 410.174 233.324 408.588C231.809 407.002 229.808 406.209 227.322 406.209C225.642 406.209 224.126 406.635 222.777 407.487C221.451 408.316 220.398 409.488 219.616 411.003C218.835 412.494 218.445 414.246 218.445 416.259V449H203.317ZM316.754 450.065C311.143 450.065 306.314 448.929 302.265 446.656C298.241 444.36 295.139 441.116 292.961 436.926C290.783 432.712 289.694 427.729 289.694 421.976C289.694 416.365 290.783 411.441 292.961 407.203C295.139 402.965 298.205 399.663 302.159 397.295C306.136 394.928 310.8 393.744 316.15 393.744C319.749 393.744 323.099 394.324 326.2 395.484C329.325 396.621 332.048 398.337 334.368 400.634C336.711 402.93 338.534 405.818 339.836 409.298C341.139 412.755 341.79 416.803 341.79 421.443V425.598H295.731V416.223H327.55C327.55 414.045 327.076 412.116 326.129 410.435C325.182 408.754 323.868 407.44 322.187 406.493C320.53 405.522 318.601 405.037 316.399 405.037C314.103 405.037 312.067 405.57 310.291 406.635C308.539 407.677 307.166 409.085 306.172 410.861C305.177 412.613 304.668 414.566 304.645 416.72V425.634C304.645 428.332 305.142 430.664 306.136 432.629C307.154 434.594 308.586 436.109 310.433 437.175C312.28 438.24 314.469 438.773 317.003 438.773C318.684 438.773 320.222 438.536 321.619 438.062C323.016 437.589 324.211 436.879 325.206 435.932C326.2 434.985 326.958 433.825 327.478 432.452L341.47 433.375C340.76 436.737 339.304 439.672 337.102 442.182C334.924 444.668 332.107 446.609 328.65 448.006C325.218 449.379 321.252 450.065 316.754 450.065ZM394.414 410.009L380.564 410.861C380.328 409.677 379.819 408.612 379.037 407.665C378.256 406.694 377.226 405.925 375.948 405.357C374.693 404.765 373.19 404.469 371.438 404.469C369.094 404.469 367.117 404.966 365.507 405.96C363.898 406.931 363.093 408.233 363.093 409.866C363.093 411.169 363.613 412.269 364.655 413.169C365.697 414.069 367.484 414.791 370.017 415.335L379.89 417.324C385.193 418.413 389.146 420.165 391.75 422.58C394.354 424.994 395.657 428.167 395.657 432.097C395.657 435.671 394.603 438.808 392.496 441.507C390.413 444.206 387.548 446.313 383.902 447.828C380.28 449.32 376.102 450.065 371.367 450.065C364.146 450.065 358.393 448.562 354.108 445.555C349.847 442.525 347.349 438.406 346.615 433.197L361.495 432.416C361.944 434.618 363.033 436.299 364.762 437.459C366.49 438.595 368.703 439.163 371.402 439.163C374.054 439.163 376.185 438.654 377.794 437.636C379.428 436.595 380.256 435.257 380.28 433.624C380.256 432.25 379.676 431.126 378.54 430.25C377.404 429.35 375.652 428.664 373.284 428.19L363.838 426.308C358.512 425.243 354.546 423.396 351.942 420.768C349.362 418.141 348.071 414.791 348.071 410.719C348.071 407.215 349.018 404.196 350.912 401.663C352.83 399.13 355.517 397.177 358.973 395.804C362.453 394.431 366.525 393.744 371.189 393.744C378.078 393.744 383.5 395.2 387.453 398.112C391.431 401.024 393.751 404.99 394.414 410.009ZM402.551 469.455V394.455H417.466V403.616H418.14C418.803 402.149 419.762 400.657 421.017 399.142C422.295 397.603 423.952 396.325 425.988 395.307C428.048 394.265 430.605 393.744 433.659 393.744C437.636 393.744 441.306 394.786 444.667 396.869C448.029 398.929 450.716 402.042 452.728 406.209C454.741 410.352 455.747 415.548 455.747 421.798C455.747 427.883 454.764 433.02 452.799 437.21C450.858 441.377 448.207 444.537 444.845 446.692C441.507 448.822 437.766 449.888 433.623 449.888C430.688 449.888 428.19 449.402 426.13 448.432C424.094 447.461 422.425 446.242 421.123 444.774C419.821 443.283 418.827 441.779 418.14 440.264H417.679V469.455H402.551ZM417.359 421.727C417.359 424.971 417.809 427.8 418.709 430.214C419.608 432.629 420.91 434.511 422.615 435.861C424.319 437.187 426.391 437.849 428.829 437.849C431.291 437.849 433.375 437.175 435.079 435.825C436.784 434.452 438.074 432.558 438.95 430.143C439.85 427.705 440.299 424.9 440.299 421.727C440.299 418.579 439.862 415.809 438.986 413.418C438.11 411.027 436.819 409.156 435.115 407.807C433.41 406.457 431.315 405.783 428.829 405.783C426.367 405.783 424.284 406.434 422.579 407.736C420.898 409.038 419.608 410.884 418.709 413.276C417.809 415.667 417.359 418.484 417.359 421.727ZM478.755 450.03C475.274 450.03 472.173 449.426 469.451 448.219C466.728 446.988 464.574 445.177 462.988 442.786C461.425 440.371 460.644 437.364 460.644 433.766C460.644 430.735 461.2 428.19 462.313 426.131C463.426 424.071 464.941 422.414 466.858 421.159C468.776 419.904 470.954 418.957 473.392 418.318C475.854 417.679 478.435 417.229 481.134 416.969C484.306 416.637 486.863 416.33 488.804 416.045C490.746 415.738 492.154 415.288 493.03 414.696C493.906 414.104 494.344 413.228 494.344 412.068V411.855C494.344 409.606 493.634 407.866 492.213 406.635C490.817 405.404 488.828 404.788 486.247 404.788C483.525 404.788 481.359 405.392 479.749 406.599C478.139 407.783 477.074 409.275 476.553 411.074L462.561 409.938C463.272 406.623 464.668 403.759 466.752 401.344C468.835 398.905 471.522 397.035 474.813 395.733C478.127 394.407 481.962 393.744 486.318 393.744C489.349 393.744 492.249 394.099 495.019 394.81C497.812 395.52 500.286 396.621 502.441 398.112C504.619 399.604 506.335 401.521 507.59 403.865C508.845 406.185 509.472 408.967 509.472 412.21V449H495.125V441.436H494.699C493.823 443.141 492.651 444.644 491.184 445.946C489.716 447.224 487.952 448.231 485.892 448.964C483.833 449.675 481.453 450.03 478.755 450.03ZM483.087 439.589C485.312 439.589 487.277 439.152 488.982 438.276C490.686 437.376 492.024 436.169 492.995 434.653C493.965 433.138 494.451 431.422 494.451 429.504V423.716C493.977 424.024 493.326 424.308 492.497 424.568C491.693 424.805 490.781 425.03 489.763 425.243C488.745 425.432 487.727 425.61 486.709 425.776C485.691 425.918 484.768 426.048 483.939 426.166C482.164 426.427 480.613 426.841 479.287 427.409C477.961 427.977 476.932 428.747 476.198 429.717C475.464 430.664 475.097 431.848 475.097 433.268C475.097 435.328 475.843 436.902 477.334 437.991C478.849 439.057 480.767 439.589 483.087 439.589ZM543.222 450.065C537.635 450.065 532.829 448.882 528.804 446.514C524.803 444.123 521.725 440.809 519.571 436.571C517.44 432.333 516.375 427.456 516.375 421.94C516.375 416.353 517.452 411.453 519.607 407.239C521.785 403.001 524.874 399.698 528.875 397.331C532.876 394.94 537.635 393.744 543.151 393.744C547.909 393.744 552.076 394.608 555.651 396.337C559.225 398.065 562.055 400.491 564.138 403.616C566.221 406.741 567.369 410.411 567.582 414.625H553.307C552.904 411.902 551.839 409.713 550.111 408.055C548.406 406.375 546.169 405.534 543.399 405.534C541.056 405.534 539.008 406.173 537.256 407.452C535.528 408.706 534.178 410.541 533.208 412.956C532.237 415.371 531.752 418.295 531.752 421.727C531.752 425.207 532.225 428.167 533.172 430.605C534.143 433.044 535.504 434.902 537.256 436.18C539.008 437.459 541.056 438.098 543.399 438.098C545.127 438.098 546.678 437.743 548.051 437.033C549.448 436.322 550.596 435.293 551.496 433.943C552.419 432.57 553.023 430.925 553.307 429.007H567.582C567.346 433.174 566.209 436.843 564.173 440.016C562.161 443.164 559.379 445.626 555.828 447.402C552.277 449.178 548.075 450.065 543.222 450.065ZM599.495 450.065C593.884 450.065 589.054 448.929 585.006 446.656C580.981 444.36 577.88 441.116 575.702 436.926C573.524 432.712 572.435 427.729 572.435 421.976C572.435 416.365 573.524 411.441 575.702 407.203C577.88 402.965 580.946 399.663 584.899 397.295C588.877 394.928 593.541 393.744 598.891 393.744C602.489 393.744 605.839 394.324 608.941 395.484C612.066 396.621 614.788 398.337 617.108 400.634C619.452 402.93 621.275 405.818 622.577 409.298C623.879 412.755 624.53 416.803 624.53 421.443V425.598H578.472V416.223H610.29C610.29 414.045 609.817 412.116 608.87 410.435C607.923 408.754 606.609 407.44 604.928 406.493C603.271 405.522 601.341 405.037 599.139 405.037C596.843 405.037 594.807 405.57 593.032 406.635C591.28 407.677 589.907 409.085 588.912 410.861C587.918 412.613 587.409 414.566 587.385 416.72V425.634C587.385 428.332 587.882 430.664 588.877 432.629C589.895 434.594 591.327 436.109 593.174 437.175C595.02 438.24 597.21 438.773 599.743 438.773C601.424 438.773 602.963 438.536 604.36 438.062C605.756 437.589 606.952 436.879 607.946 435.932C608.941 434.985 609.698 433.825 610.219 432.452L624.211 433.375C623.5 436.737 622.044 439.672 619.843 442.182C617.665 444.668 614.847 446.609 611.391 448.006C607.958 449.379 603.993 450.065 599.495 450.065ZM677.154 410.009L663.305 410.861C663.068 409.677 662.559 408.612 661.778 407.665C660.997 406.694 659.967 405.925 658.688 405.357C657.434 404.765 655.93 404.469 654.178 404.469C651.835 404.469 649.858 404.966 648.248 405.96C646.638 406.931 645.833 408.233 645.833 409.866C645.833 411.169 646.354 412.269 647.396 413.169C648.437 414.069 650.225 414.791 652.758 415.335L662.63 417.324C667.933 418.413 671.887 420.165 674.491 422.58C677.095 424.994 678.397 428.167 678.397 432.097C678.397 435.671 677.344 438.808 675.237 441.507C673.153 444.206 670.289 446.313 666.643 447.828C663.021 449.32 658.842 450.065 654.107 450.065C646.887 450.065 641.134 448.562 636.849 445.555C632.587 442.525 630.09 438.406 629.356 433.197L644.235 432.416C644.685 434.618 645.774 436.299 647.502 437.459C649.23 438.595 651.444 439.163 654.143 439.163C656.794 439.163 658.925 438.654 660.535 437.636C662.168 436.595 662.997 435.257 663.021 433.624C662.997 432.25 662.417 431.126 661.281 430.25C660.144 429.35 658.392 428.664 656.025 428.19L646.579 426.308C641.252 425.243 637.287 423.396 634.683 420.768C632.102 418.141 630.812 414.791 630.812 410.719C630.812 407.215 631.759 404.196 633.653 401.663C635.57 399.13 638.257 397.177 641.714 395.804C645.194 394.431 649.266 393.744 653.93 393.744C660.819 393.744 666.24 395.2 670.194 398.112C674.171 401.024 676.491 404.99 677.154 410.009Z" fill="black"/>
<rect x="71" y="498" width="1038" height="19" fill="black"/>
</svg>
