<svg width="1200" height="900" viewBox="0 0 1200 900" fill="none" xmlns="http://www.w3.org/2000/svg">
<rect width="1200" height="900" fill="white"/>
<g clip-path="url(#clip0_1_848)">
<g clip-path="url(#clip1_1_848)">
<path fill-rule="evenodd" clip-rule="evenodd" d="M1155.8 652C1158.12 652 1160 653.88 1160 656.2V698.2C1160 700.52 1158.12 702.4 1155.8 702.4H44.2C41.8804 702.4 40 700.52 40 698.2V656.2C40 653.88 41.8804 652 44.2 652H1155.8Z" fill="#7C7C7C"/>
<g clip-path="url(#clip2_1_848)">
<rect x="91.1001" y="662.5" width="997" height="7" fill="#D8D8D8"/>
<path fill-rule="evenodd" clip-rule="evenodd" d="M50.5 662.5H65.9V669.5H50.5V662.5Z" fill="#D7D7D7"/>
<rect x="1120.7" y="662.5" width="7" height="7" fill="#D7D400"/>
<rect x="1110.9" y="662.5" width="7" height="7" fill="#FF3C00"/>
<path fill-rule="evenodd" clip-rule="evenodd" d="M1132.6 662.5H1148V669.344H1132.6V662.5Z" fill="#00CD00"/>
</g>
<g clip-path="url(#clip3_1_848)">
<rect x="91.1001" y="673.7" width="997" height="7" fill="#D8D8D8"/>
<path fill-rule="evenodd" clip-rule="evenodd" d="M50.5 673.7H65.9V680.7H50.5V673.7Z" fill="#D7D7D7"/>
<rect x="1120.7" y="673.7" width="7" height="7" fill="#D7D400"/>
<rect x="1110.9" y="673.7" width="7" height="7" fill="#FF3C00"/>
<path fill-rule="evenodd" clip-rule="evenodd" d="M1132.6 673.7H1148V680.544H1132.6V673.7Z" fill="#00CD00"/>
</g>
<g clip-path="url(#clip4_1_848)">
<rect x="91.1001" y="684.9" width="997" height="7" fill="#D8D8D8"/>
<path fill-rule="evenodd" clip-rule="evenodd" d="M50.5 684.9H65.9V691.9H50.5V684.9Z" fill="#D7D7D7"/>
<rect x="1120.7" y="684.9" width="7" height="7" fill="#D7D400"/>
<rect x="1110.9" y="684.9" width="7" height="7" fill="#FF3C00"/>
<path fill-rule="evenodd" clip-rule="evenodd" d="M1132.6 684.9H1148V691.745H1132.6V684.9Z" fill="#00CD00"/>
</g>
</g>
<path fill-rule="evenodd" clip-rule="evenodd" d="M1154.8 198C1157.12 198 1159 199.88 1159 202.2V640.8C1159 643.12 1157.12 645 1154.8 645H44.1999C41.8804 645 40 643.12 40 640.8V202.2C40 199.88 41.8804 198 44.2 198H1154.8Z" fill="#7C7C7C"/>
<rect x="51" y="225" width="1097" height="389" rx="1.68" fill="white"/>
<path fill-rule="evenodd" clip-rule="evenodd" d="M51 208H1148V215H51V208Z" fill="#D7D7D7"/>
<path fill-rule="evenodd" clip-rule="evenodd" d="M51 624H1148V631H51V624Z" fill="#D7D7D7"/>
</g>
<rect x="428" y="50" width="344" height="719" rx="20" stroke="#EEEEEE" stroke-width="4" stroke-dasharray="45 10 15 10"/>
<rect x="791" y="50" width="344" height="719" rx="20" stroke="#EEEEEE" stroke-width="4" stroke-dasharray="45 10 15 10"/>
<path fill-rule="evenodd" clip-rule="evenodd" d="M380 500.39C380 501.832 379.108 503 378.006 503H96.9936C95.8924 503 95 501.832 95 500.39V277C95 274.239 97.2386 272 100 272H375C377.761 272 380 274.239 380 277V500.39Z" fill="#FF003C"/>
<path d="M95 277C95 274.239 97.2386 272 100 272H375C377.761 272 380 274.239 380 277V295H95V277Z" fill="#CCCCCC"/>
<path fill-rule="evenodd" clip-rule="evenodd" d="M112 284.5C112 286.986 109.986 289 107.5 289C105.014 289 103 286.986 103 284.5C103 282.014 105.014 280 107.5 280C109.986 280 112 282.014 112 284.5Z" fill="#E74C3C"/>
<path fill-rule="evenodd" clip-rule="evenodd" d="M128 284.5C128 286.986 125.986 289 123.5 289C121.014 289 119 286.986 119 284.5C119 282.014 121.014 280 123.5 280C125.986 280 128 282.014 128 284.5Z" fill="#F1C40F"/>
<path fill-rule="evenodd" clip-rule="evenodd" d="M143 284.5C143 286.986 140.986 289 138.5 289C136.014 289 134 286.986 134 284.5C134 282.014 136.014 280 138.5 280C140.986 280 143 282.014 143 284.5Z" fill="#2ECC71"/>
<path d="M197.632 380.455H190.425L185.343 398.017H185.088L179.99 380.455H172.799L181.38 405H189.051L197.632 380.455ZM213.207 372.273H206.703L198.601 377.402V383.539L206.096 378.841H206.288V405H213.207V372.273ZM221.231 405.415C223.276 405.415 225.05 403.706 225.066 401.58C225.05 399.487 223.276 397.777 221.231 397.777C219.122 397.777 217.38 399.487 217.396 401.58C217.38 403.706 219.122 405.415 221.231 405.415ZM239.978 405.719C248.207 405.719 253.177 399.455 253.193 388.668C253.209 377.962 248.176 371.825 239.978 371.825C231.764 371.825 226.778 377.946 226.762 388.668C226.73 399.423 231.732 405.703 239.978 405.719ZM239.978 399.982C236.222 399.982 233.793 396.211 233.809 388.668C233.825 381.238 236.238 377.498 239.978 377.498C243.701 377.498 246.13 381.238 246.13 388.668C246.146 396.211 243.717 399.982 239.978 399.982ZM258.724 405.415C260.77 405.415 262.544 403.706 262.56 401.58C262.544 399.487 260.77 397.777 258.724 397.777C256.615 397.777 254.873 399.487 254.889 401.58C254.873 403.706 256.615 405.415 258.724 405.415ZM277.471 405.719C285.701 405.719 290.671 399.455 290.687 388.668C290.703 377.962 285.669 371.825 277.471 371.825C269.257 371.825 264.272 377.946 264.256 388.668C264.224 399.423 269.225 405.703 277.471 405.719ZM277.471 399.982C273.716 399.982 271.287 396.211 271.303 388.668C271.319 381.238 273.732 377.498 277.471 377.498C281.195 377.498 283.624 381.238 283.624 388.668C283.64 396.211 281.211 399.982 277.471 399.982Z" fill="white"/>
<path fill-rule="evenodd" clip-rule="evenodd" d="M742.426 500.781C742.426 502.222 741.534 503.391 740.433 503.391H459.42C458.319 503.391 457.426 502.222 457.426 500.781V277.391C457.426 274.629 459.665 272.391 462.426 272.391H737.426C740.188 272.391 742.426 274.629 742.426 277.391V500.781Z" fill="#FABE28"/>
<path d="M562.087 378.735L553.506 403.281H545.835L537.254 378.735H544.445L549.543 396.297H549.798L554.88 378.735H562.087ZM563.007 403.281V398.295L574.656 387.508C575.647 386.55 576.478 385.687 577.149 384.92C577.831 384.153 578.348 383.402 578.699 382.666C579.051 381.921 579.227 381.116 579.227 380.253C579.227 379.295 579.008 378.469 578.571 377.776C578.135 377.073 577.538 376.535 576.782 376.163C576.025 375.779 575.168 375.587 574.209 375.587C573.207 375.587 572.334 375.79 571.588 376.194C570.842 376.599 570.267 377.18 569.862 377.936C569.457 378.693 569.255 379.593 569.255 380.637H562.687C562.687 378.496 563.172 376.637 564.141 375.06C565.111 373.483 566.469 372.263 568.216 371.4C569.963 370.538 571.977 370.106 574.257 370.106C576.601 370.106 578.641 370.522 580.377 371.352C582.124 372.173 583.483 373.313 584.452 374.772C585.422 376.232 585.906 377.904 585.906 379.79C585.906 381.026 585.661 382.246 585.171 383.449C584.692 384.653 583.834 385.99 582.598 387.46C581.363 388.92 579.621 390.672 577.373 392.718L572.595 397.4V397.624H586.338V403.281H563.007ZM592.894 403.696C591.84 403.696 590.934 403.323 590.178 402.578C589.432 401.821 589.059 400.916 589.059 399.861C589.059 398.817 589.432 397.922 590.178 397.176C590.934 396.431 591.84 396.058 592.894 396.058C593.917 396.058 594.812 396.431 595.579 397.176C596.346 397.922 596.73 398.817 596.73 399.861C596.73 400.564 596.549 401.209 596.186 401.795C595.835 402.37 595.371 402.833 594.796 403.185C594.221 403.526 593.587 403.696 592.894 403.696ZM611.268 404C608.52 403.989 606.155 403.313 604.173 401.97C602.202 400.628 600.684 398.684 599.619 396.138C598.564 393.591 598.042 390.529 598.053 386.949C598.053 383.38 598.58 380.339 599.635 377.824C600.7 375.31 602.218 373.398 604.189 372.088C606.171 370.767 608.531 370.106 611.268 370.106C614.006 370.106 616.361 370.767 618.332 372.088C620.313 373.409 621.837 375.326 622.902 377.84C623.967 380.344 624.495 383.38 624.484 386.949C624.484 390.539 623.951 393.607 622.886 396.154C621.831 398.7 620.319 400.644 618.348 401.986C616.377 403.329 614.017 404 611.268 404ZM611.268 398.263C613.143 398.263 614.64 397.32 615.759 395.435C616.878 393.549 617.431 390.72 617.421 386.949C617.421 384.467 617.165 382.4 616.654 380.749C616.153 379.098 615.439 377.856 614.512 377.025C613.596 376.194 612.515 375.779 611.268 375.779C609.404 375.779 607.913 376.711 606.794 378.576C605.675 380.44 605.111 383.231 605.1 386.949C605.1 389.463 605.351 391.562 605.851 393.245C606.363 394.918 607.082 396.175 608.009 397.017C608.935 397.848 610.022 398.263 611.268 398.263ZM629.643 403.696C628.588 403.696 627.682 403.323 626.926 402.578C626.18 401.821 625.807 400.916 625.807 399.861C625.807 398.817 626.18 397.922 626.926 397.176C627.682 396.431 628.588 396.058 629.643 396.058C630.665 396.058 631.56 396.431 632.327 397.176C633.094 397.922 633.478 398.817 633.478 399.861C633.478 400.564 633.297 401.209 632.934 401.795C632.583 402.37 632.119 402.833 631.544 403.185C630.969 403.526 630.335 403.696 629.643 403.696ZM648.017 404C645.268 403.989 642.903 403.313 640.921 401.97C638.95 400.628 637.432 398.684 636.367 396.138C635.312 393.591 634.79 390.529 634.801 386.949C634.801 383.38 635.328 380.339 636.383 377.824C637.448 375.31 638.966 373.398 640.937 372.088C642.919 370.767 645.279 370.106 648.017 370.106C650.754 370.106 653.109 370.767 655.08 372.088C657.061 373.409 658.585 375.326 659.65 377.84C660.715 380.344 661.243 383.38 661.232 386.949C661.232 390.539 660.699 393.607 659.634 396.154C658.579 398.7 657.067 400.644 655.096 401.986C653.125 403.329 650.765 404 648.017 404ZM648.017 398.263C649.892 398.263 651.388 397.32 652.507 395.435C653.626 393.549 654.18 390.72 654.169 386.949C654.169 384.467 653.913 382.4 653.402 380.749C652.901 379.098 652.187 377.856 651.26 377.025C650.344 376.194 649.263 375.779 648.017 375.779C646.152 375.779 644.661 376.711 643.542 378.576C642.423 380.44 641.859 383.231 641.848 386.949C641.848 389.463 642.099 391.562 642.599 393.245C643.111 394.918 643.83 396.175 644.757 397.017C645.683 397.848 646.77 398.263 648.017 398.263Z" fill="black"/>
<path d="M457.426 277.391C457.426 274.629 459.665 272.391 462.426 272.391H737.426C740.188 272.391 742.426 274.629 742.426 277.391V295.391H457.426V277.391Z" fill="#CCCCCC"/>
<path fill-rule="evenodd" clip-rule="evenodd" d="M474.426 284.891C474.426 287.376 472.412 289.391 469.926 289.391C467.441 289.391 465.426 287.376 465.426 284.891C465.426 282.405 467.441 280.391 469.926 280.391C472.412 280.391 474.426 282.405 474.426 284.891Z" fill="#E74C3C"/>
<path fill-rule="evenodd" clip-rule="evenodd" d="M490.426 284.891C490.426 287.376 488.412 289.391 485.926 289.391C483.441 289.391 481.426 287.376 481.426 284.891C481.426 282.405 483.441 280.391 485.926 280.391C488.412 280.391 490.426 282.405 490.426 284.891Z" fill="#F1C40F"/>
<path fill-rule="evenodd" clip-rule="evenodd" d="M505.426 284.891C505.426 287.376 503.412 289.391 500.926 289.391C498.441 289.391 496.426 287.376 496.426 284.891C496.426 282.405 498.441 280.391 500.926 280.391C503.412 280.391 505.426 282.405 505.426 284.891Z" fill="#2ECC71"/>
<path fill-rule="evenodd" clip-rule="evenodd" d="M1104.95 500.781C1104.95 502.222 1104.05 503.391 1102.95 503.391H821.94C820.839 503.391 819.946 502.222 819.946 500.781V277.391C819.946 274.629 822.185 272.391 824.946 272.391H1099.95C1102.71 272.391 1104.95 274.629 1104.95 277.391V500.781Z" fill="#00C176"/>
<path d="M819.946 277.391C819.946 274.629 822.185 272.391 824.946 272.391H1099.95C1102.71 272.391 1104.95 274.629 1104.95 277.391V295.391H819.946V277.391Z" fill="#CCCCCC"/>
<path fill-rule="evenodd" clip-rule="evenodd" d="M836.946 284.891C836.946 287.376 834.932 289.391 832.446 289.391C829.961 289.391 827.946 287.376 827.946 284.891C827.946 282.405 829.961 280.391 832.446 280.391C834.932 280.391 836.946 282.405 836.946 284.891Z" fill="#E74C3C"/>
<path fill-rule="evenodd" clip-rule="evenodd" d="M852.946 284.891C852.946 287.376 850.932 289.391 848.446 289.391C845.961 289.391 843.946 287.376 843.946 284.891C843.946 282.405 845.961 280.391 848.446 280.391C850.932 280.391 852.946 282.405 852.946 284.891Z" fill="#F1C40F"/>
<path fill-rule="evenodd" clip-rule="evenodd" d="M867.946 284.891C867.946 287.376 865.932 289.391 863.446 289.391C860.961 289.391 858.946 287.376 858.946 284.891C858.946 282.405 860.961 280.391 863.446 280.391C865.932 280.391 867.946 282.405 867.946 284.891Z" fill="#2ECC71"/>
<path d="M923.368 378.735L914.786 403.281H907.116L898.535 378.735H905.726L910.823 396.297H911.079L916.161 378.735H923.368ZM936.801 403.728C934.415 403.728 932.289 403.318 930.425 402.498C928.571 401.667 927.106 400.527 926.03 399.078C924.965 397.618 924.416 395.935 924.384 394.028H931.352C931.394 394.827 931.655 395.53 932.135 396.138C932.625 396.734 933.275 397.198 934.084 397.528C934.894 397.858 935.805 398.023 936.817 398.023C937.872 398.023 938.804 397.837 939.613 397.464C940.423 397.091 941.057 396.574 941.515 395.914C941.973 395.253 942.202 394.492 942.202 393.629C942.202 392.755 941.957 391.983 941.467 391.312C940.988 390.63 940.295 390.097 939.39 389.714C938.495 389.33 937.43 389.138 936.194 389.138H933.142V384.057H936.194C937.238 384.057 938.159 383.876 938.958 383.513C939.768 383.151 940.397 382.65 940.844 382.011C941.291 381.361 941.515 380.605 941.515 379.742C941.515 378.922 941.318 378.203 940.924 377.585C940.54 376.956 939.997 376.466 939.294 376.115C938.601 375.763 937.792 375.587 936.865 375.587C935.927 375.587 935.07 375.758 934.292 376.099C933.514 376.429 932.891 376.903 932.422 377.521C931.954 378.139 931.703 378.863 931.671 379.694H925.04C925.072 377.808 925.61 376.147 926.654 374.708C927.698 373.27 929.104 372.146 930.872 371.337C932.651 370.516 934.66 370.106 936.897 370.106C939.155 370.106 941.132 370.516 942.825 371.337C944.519 372.157 945.835 373.265 946.773 374.66C947.721 376.045 948.189 377.601 948.179 379.327C948.189 381.159 947.62 382.688 946.469 383.913C945.329 385.138 943.843 385.916 942.01 386.246V386.502C944.418 386.811 946.251 387.647 947.508 389.011C948.775 390.364 949.404 392.057 949.393 394.092C949.404 395.957 948.866 397.613 947.779 399.062C946.703 400.511 945.217 401.651 943.321 402.482C941.425 403.313 939.251 403.728 936.801 403.728ZM955.404 403.696C954.349 403.696 953.444 403.323 952.687 402.578C951.942 401.821 951.569 400.916 951.569 399.861C951.569 398.817 951.942 397.922 952.687 397.176C953.444 396.431 954.349 396.058 955.404 396.058C956.427 396.058 957.322 396.431 958.089 397.176C958.856 397.922 959.239 398.817 959.239 399.861C959.239 400.564 959.058 401.209 958.696 401.795C958.344 402.37 957.881 402.833 957.306 403.185C956.73 403.526 956.096 403.696 955.404 403.696ZM974.195 404C971.446 403.989 969.081 403.313 967.099 401.97C965.129 400.628 963.61 398.684 962.545 396.138C961.49 393.591 960.968 390.529 960.979 386.949C960.979 383.38 961.506 380.339 962.561 377.824C963.626 375.31 965.145 373.398 967.115 372.088C969.097 370.767 971.457 370.106 974.195 370.106C976.933 370.106 979.287 370.767 981.258 372.088C983.239 373.409 984.763 375.326 985.828 377.84C986.893 380.344 987.421 383.38 987.41 386.949C987.41 390.539 986.877 393.607 985.812 396.154C984.757 398.7 983.245 400.644 981.274 401.986C979.303 403.329 976.943 404 974.195 404ZM974.195 398.263C976.07 398.263 977.566 397.32 978.685 395.435C979.804 393.549 980.358 390.72 980.347 386.949C980.347 384.467 980.091 382.4 979.58 380.749C979.079 379.098 978.365 377.856 977.439 377.025C976.522 376.194 975.441 375.779 974.195 375.779C972.33 375.779 970.839 376.711 969.72 378.576C968.602 380.44 968.037 383.231 968.026 386.949C968.026 389.463 968.277 391.562 968.777 393.245C969.289 394.918 970.008 396.175 970.935 397.017C971.862 397.848 972.948 398.263 974.195 398.263ZM992.985 403.696C991.931 403.696 991.025 403.323 990.269 402.578C989.523 401.821 989.15 400.916 989.15 399.861C989.15 398.817 989.523 397.922 990.269 397.176C991.025 396.431 991.931 396.058 992.985 396.058C994.008 396.058 994.903 396.431 995.67 397.176C996.437 397.922 996.821 398.817 996.821 399.861C996.821 400.564 996.639 401.209 996.277 401.795C995.926 402.37 995.462 402.833 994.887 403.185C994.312 403.526 993.678 403.696 992.985 403.696ZM1011.78 404C1009.03 403.989 1006.66 403.313 1004.68 401.97C1002.71 400.628 1001.19 398.684 1000.13 396.138C999.072 393.591 998.55 390.529 998.56 386.949C998.56 383.38 999.088 380.339 1000.14 377.824C1001.21 375.31 1002.73 373.398 1004.7 372.088C1006.68 370.767 1009.04 370.106 1011.78 370.106C1014.51 370.106 1016.87 370.767 1018.84 372.088C1020.82 373.409 1022.34 375.326 1023.41 377.84C1024.47 380.344 1025 383.38 1024.99 386.949C1024.99 390.539 1024.46 393.607 1023.39 396.154C1022.34 398.7 1020.83 400.644 1018.86 401.986C1016.88 403.329 1014.52 404 1011.78 404ZM1011.78 398.263C1013.65 398.263 1015.15 397.32 1016.27 395.435C1017.38 393.549 1017.94 390.72 1017.93 386.949C1017.93 384.467 1017.67 382.4 1017.16 380.749C1016.66 379.098 1015.95 377.856 1015.02 377.025C1014.1 376.194 1013.02 375.779 1011.78 375.779C1009.91 375.779 1008.42 376.711 1007.3 378.576C1006.18 380.44 1005.62 383.231 1005.61 386.949C1005.61 389.463 1005.86 391.562 1006.36 393.245C1006.87 394.918 1007.59 396.175 1008.52 397.017C1009.44 397.848 1010.53 398.263 1011.78 398.263Z" fill="white"/>
<path d="M519.783 102.975V96.6364H549.648V102.975H538.515V133H530.916V102.975H519.783ZM561.582 133.533C558.777 133.533 556.362 132.964 554.338 131.828C552.326 130.68 550.775 129.058 549.686 126.963C548.597 124.856 548.052 122.364 548.052 119.488C548.052 116.683 548.597 114.22 549.686 112.102C550.775 109.983 552.308 108.331 554.285 107.148C556.273 105.964 558.605 105.372 561.28 105.372C563.08 105.372 564.755 105.662 566.305 106.242C567.868 106.81 569.229 107.669 570.389 108.817C571.561 109.965 572.472 111.409 573.123 113.149C573.774 114.877 574.1 116.902 574.1 119.222V121.299H551.071V116.612H566.98C566.98 115.522 566.743 114.558 566.27 113.717C565.796 112.877 565.139 112.22 564.299 111.746C563.47 111.261 562.506 111.018 561.405 111.018C560.257 111.018 559.239 111.285 558.351 111.817C557.475 112.338 556.788 113.043 556.291 113.93C555.794 114.806 555.539 115.783 555.528 116.86V121.317C555.528 122.666 555.776 123.832 556.273 124.815C556.782 125.797 557.498 126.555 558.422 127.087C559.345 127.62 560.44 127.886 561.707 127.886C562.547 127.886 563.316 127.768 564.015 127.531C564.713 127.295 565.311 126.939 565.808 126.466C566.305 125.992 566.684 125.412 566.944 124.726L573.94 125.188C573.585 126.868 572.857 128.336 571.756 129.591C570.667 130.834 569.259 131.804 567.53 132.503C565.814 133.189 563.831 133.533 561.582 133.533ZM585.497 133.515C583.757 133.515 582.207 133.213 580.845 132.609C579.484 131.994 578.407 131.088 577.614 129.893C576.833 128.685 576.442 127.182 576.442 125.383C576.442 123.868 576.72 122.595 577.276 121.565C577.833 120.536 578.59 119.707 579.549 119.08C580.508 118.452 581.597 117.979 582.816 117.659C584.047 117.339 585.337 117.115 586.687 116.984C588.273 116.819 589.552 116.665 590.522 116.523C591.493 116.369 592.197 116.144 592.635 115.848C593.073 115.552 593.292 115.114 593.292 114.534V114.428C593.292 113.303 592.937 112.433 592.227 111.817C591.528 111.202 590.534 110.894 589.244 110.894C587.882 110.894 586.799 111.196 585.994 111.8C585.19 112.392 584.657 113.137 584.396 114.037L577.401 113.469C577.756 111.812 578.454 110.379 579.496 109.172C580.538 107.953 581.881 107.018 583.526 106.366C585.184 105.704 587.101 105.372 589.279 105.372C590.794 105.372 592.244 105.55 593.629 105.905C595.026 106.26 596.263 106.81 597.34 107.556C598.429 108.302 599.288 109.261 599.915 110.433C600.542 111.593 600.856 112.983 600.856 114.605V133H593.683V129.218H593.47C593.032 130.07 592.446 130.822 591.712 131.473C590.978 132.112 590.096 132.615 589.066 132.982C588.036 133.337 586.847 133.515 585.497 133.515ZM587.663 128.295C588.776 128.295 589.759 128.076 590.611 127.638C591.463 127.188 592.132 126.584 592.617 125.827C593.103 125.069 593.345 124.211 593.345 123.252V120.358C593.109 120.512 592.783 120.654 592.369 120.784C591.966 120.902 591.511 121.015 591.002 121.121C590.493 121.216 589.984 121.305 589.475 121.388C588.966 121.459 588.504 121.524 588.09 121.583C587.202 121.713 586.427 121.92 585.764 122.205C585.101 122.489 584.586 122.873 584.219 123.359C583.852 123.832 583.668 124.424 583.668 125.134C583.668 126.164 584.041 126.951 584.787 127.496C585.545 128.028 586.503 128.295 587.663 128.295ZM605.408 133V105.727H612.617V110.539H612.937C613.505 108.941 614.452 107.68 615.778 106.757C617.104 105.834 618.69 105.372 620.536 105.372C622.407 105.372 623.999 105.84 625.313 106.775C626.626 107.698 627.502 108.953 627.94 110.539H628.224C628.781 108.977 629.787 107.728 631.243 106.793C632.711 105.846 634.445 105.372 636.445 105.372C638.99 105.372 641.056 106.183 642.642 107.805C644.24 109.415 645.039 111.699 645.039 114.658V133H637.493V116.15C637.493 114.635 637.09 113.498 636.286 112.741C635.481 111.983 634.474 111.604 633.267 111.604C631.894 111.604 630.823 112.042 630.053 112.918C629.284 113.782 628.899 114.925 628.899 116.345V133H621.566V115.99C621.566 114.652 621.181 113.587 620.412 112.794C619.654 112.001 618.654 111.604 617.411 111.604C616.571 111.604 615.813 111.817 615.139 112.244C614.476 112.658 613.949 113.244 613.558 114.001C613.168 114.747 612.972 115.623 612.972 116.629V133H605.408ZM660.097 133V96.6364H674.656C677.331 96.6364 679.563 97.0329 681.35 97.826C683.138 98.6191 684.481 99.7199 685.381 101.129C686.28 102.525 686.73 104.135 686.73 105.958C686.73 107.379 686.446 108.627 685.878 109.705C685.31 110.77 684.528 111.646 683.534 112.332C682.552 113.007 681.427 113.487 680.161 113.771V114.126C681.545 114.185 682.842 114.576 684.049 115.298C685.268 116.02 686.257 117.032 687.014 118.334C687.772 119.624 688.151 121.163 688.151 122.95C688.151 124.88 687.671 126.602 686.712 128.117C685.765 129.621 684.363 130.81 682.504 131.686C680.646 132.562 678.355 133 675.633 133H660.097ZM667.785 126.714H674.053C676.195 126.714 677.758 126.306 678.74 125.489C679.723 124.661 680.214 123.56 680.214 122.187C680.214 121.181 679.971 120.293 679.486 119.523C679.001 118.754 678.308 118.15 677.408 117.712C676.521 117.274 675.461 117.055 674.23 117.055H667.785V126.714ZM667.785 111.853H673.484C674.538 111.853 675.473 111.67 676.29 111.303C677.118 110.924 677.769 110.391 678.243 109.705C678.728 109.018 678.971 108.195 678.971 107.237C678.971 105.923 678.503 104.863 677.568 104.058C676.645 103.253 675.331 102.851 673.626 102.851H667.785V111.853Z" fill="#8E8E93"/>
<path d="M882.783 102.975V96.6364H912.648V102.975H901.515V133H893.916V102.975H882.783ZM924.582 133.533C921.777 133.533 919.362 132.964 917.338 131.828C915.326 130.68 913.775 129.058 912.686 126.963C911.597 124.856 911.052 122.364 911.052 119.488C911.052 116.683 911.597 114.22 912.686 112.102C913.775 109.983 915.308 108.331 917.285 107.148C919.273 105.964 921.605 105.372 924.28 105.372C926.08 105.372 927.755 105.662 929.305 106.242C930.868 106.81 932.229 107.669 933.389 108.817C934.561 109.965 935.472 111.409 936.123 113.149C936.774 114.877 937.1 116.902 937.1 119.222V121.299H914.071V116.612H929.98C929.98 115.522 929.743 114.558 929.27 113.717C928.796 112.877 928.139 112.22 927.299 111.746C926.47 111.261 925.506 111.018 924.405 111.018C923.257 111.018 922.239 111.285 921.351 111.817C920.475 112.338 919.788 113.043 919.291 113.93C918.794 114.806 918.539 115.783 918.528 116.86V121.317C918.528 122.666 918.776 123.832 919.273 124.815C919.782 125.797 920.498 126.555 921.422 127.087C922.345 127.62 923.44 127.886 924.707 127.886C925.547 127.886 926.316 127.768 927.015 127.531C927.713 127.295 928.311 126.939 928.808 126.466C929.305 125.992 929.684 125.412 929.944 124.726L936.94 125.188C936.585 126.868 935.857 128.336 934.756 129.591C933.667 130.834 932.259 131.804 930.53 132.503C928.814 133.189 926.831 133.533 924.582 133.533ZM948.497 133.515C946.757 133.515 945.207 133.213 943.845 132.609C942.484 131.994 941.407 131.088 940.614 129.893C939.833 128.685 939.442 127.182 939.442 125.383C939.442 123.868 939.72 122.595 940.276 121.565C940.833 120.536 941.59 119.707 942.549 119.08C943.508 118.452 944.597 117.979 945.816 117.659C947.047 117.339 948.337 117.115 949.687 116.984C951.273 116.819 952.552 116.665 953.522 116.523C954.493 116.369 955.197 116.144 955.635 115.848C956.073 115.552 956.292 115.114 956.292 114.534V114.428C956.292 113.303 955.937 112.433 955.227 111.817C954.528 111.202 953.534 110.894 952.244 110.894C950.882 110.894 949.799 111.196 948.994 111.8C948.19 112.392 947.657 113.137 947.396 114.037L940.401 113.469C940.756 111.812 941.454 110.379 942.496 109.172C943.538 107.953 944.881 107.018 946.526 106.366C948.184 105.704 950.101 105.372 952.279 105.372C953.794 105.372 955.244 105.55 956.629 105.905C958.026 106.26 959.263 106.81 960.34 107.556C961.429 108.302 962.288 109.261 962.915 110.433C963.542 111.593 963.856 112.983 963.856 114.605V133H956.683V129.218H956.47C956.032 130.07 955.446 130.822 954.712 131.473C953.978 132.112 953.096 132.615 952.066 132.982C951.036 133.337 949.847 133.515 948.497 133.515ZM950.663 128.295C951.776 128.295 952.759 128.076 953.611 127.638C954.463 127.188 955.132 126.584 955.617 125.827C956.103 125.069 956.345 124.211 956.345 123.252V120.358C956.109 120.512 955.783 120.654 955.369 120.784C954.966 120.902 954.511 121.015 954.002 121.121C953.493 121.216 952.984 121.305 952.475 121.388C951.966 121.459 951.504 121.524 951.09 121.583C950.202 121.713 949.427 121.92 948.764 122.205C948.101 122.489 947.586 122.873 947.219 123.359C946.852 123.832 946.668 124.424 946.668 125.134C946.668 126.164 947.041 126.951 947.787 127.496C948.545 128.028 949.503 128.295 950.663 128.295ZM968.408 133V105.727H975.617V110.539H975.937C976.505 108.941 977.452 107.68 978.778 106.757C980.104 105.834 981.69 105.372 983.536 105.372C985.407 105.372 986.999 105.84 988.313 106.775C989.626 107.698 990.502 108.953 990.94 110.539H991.224C991.781 108.977 992.787 107.728 994.243 106.793C995.711 105.846 997.445 105.372 999.445 105.372C1001.99 105.372 1004.06 106.183 1005.64 107.805C1007.24 109.415 1008.04 111.699 1008.04 114.658V133H1000.49V116.15C1000.49 114.635 1000.09 113.498 999.286 112.741C998.481 111.983 997.474 111.604 996.267 111.604C994.894 111.604 993.823 112.042 993.053 112.918C992.284 113.782 991.899 114.925 991.899 116.345V133H984.566V115.99C984.566 114.652 984.181 113.587 983.412 112.794C982.654 112.001 981.654 111.604 980.411 111.604C979.571 111.604 978.813 111.817 978.139 112.244C977.476 112.658 976.949 113.244 976.558 114.001C976.168 114.747 975.972 115.623 975.972 116.629V133H968.408ZM1023.1 133V96.6364H1037.66C1040.33 96.6364 1042.56 97.0329 1044.35 97.826C1046.14 98.6191 1047.48 99.7199 1048.38 101.129C1049.28 102.525 1049.73 104.135 1049.73 105.958C1049.73 107.379 1049.45 108.627 1048.88 109.705C1048.31 110.77 1047.53 111.646 1046.53 112.332C1045.55 113.007 1044.43 113.487 1043.16 113.771V114.126C1044.55 114.185 1045.84 114.576 1047.05 115.298C1048.27 116.02 1049.26 117.032 1050.01 118.334C1050.77 119.624 1051.15 121.163 1051.15 122.95C1051.15 124.88 1050.67 126.602 1049.71 128.117C1048.77 129.621 1047.36 130.81 1045.5 131.686C1043.65 132.562 1041.36 133 1038.63 133H1023.1ZM1030.78 126.714H1037.05C1039.2 126.714 1040.76 126.306 1041.74 125.489C1042.72 124.661 1043.21 123.56 1043.21 122.187C1043.21 121.181 1042.97 120.293 1042.49 119.523C1042 118.754 1041.31 118.15 1040.41 117.712C1039.52 117.274 1038.46 117.055 1037.23 117.055H1030.78V126.714ZM1030.78 111.853H1036.48C1037.54 111.853 1038.47 111.67 1039.29 111.303C1040.12 110.924 1040.77 110.391 1041.24 109.705C1041.73 109.018 1041.97 108.195 1041.97 107.237C1041.97 105.923 1041.5 104.863 1040.57 104.058C1039.64 103.253 1038.33 102.851 1036.63 102.851H1030.78V111.853Z" fill="#8E8E93"/>
<rect x="65" y="50" width="344" height="719" rx="20" stroke="#EEEEEE" stroke-width="4" stroke-dasharray="45 10 15 10"/>
<path d="M155.11 102.975V96.6364H184.975V102.975H173.842V133H166.243V102.975H155.11ZM196.909 133.533C194.104 133.533 191.689 132.964 189.665 131.828C187.653 130.68 186.102 129.058 185.013 126.963C183.924 124.856 183.38 122.364 183.38 119.488C183.38 116.683 183.924 114.22 185.013 112.102C186.102 109.983 187.635 108.331 189.612 107.148C191.6 105.964 193.932 105.372 196.608 105.372C198.407 105.372 200.082 105.662 201.632 106.242C203.195 106.81 204.556 107.669 205.716 108.817C206.888 109.965 207.8 111.409 208.451 113.149C209.102 114.877 209.427 116.902 209.427 119.222V121.299H186.398V116.612H202.307C202.307 115.522 202.07 114.558 201.597 113.717C201.123 112.877 200.466 112.22 199.626 111.746C198.797 111.261 197.833 111.018 196.732 111.018C195.584 111.018 194.566 111.285 193.678 111.817C192.802 112.338 192.115 113.043 191.618 113.93C191.121 114.806 190.867 115.783 190.855 116.86V121.317C190.855 122.666 191.103 123.832 191.6 124.815C192.109 125.797 192.826 126.555 193.749 127.087C194.672 127.62 195.767 127.886 197.034 127.886C197.874 127.886 198.644 127.768 199.342 127.531C200.04 127.295 200.638 126.939 201.135 126.466C201.632 125.992 202.011 125.412 202.272 124.726L209.267 125.188C208.912 126.868 208.184 128.336 207.083 129.591C205.994 130.834 204.586 131.804 202.858 132.503C201.141 133.189 199.158 133.533 196.909 133.533ZM220.824 133.515C219.084 133.515 217.534 133.213 216.172 132.609C214.811 131.994 213.734 131.088 212.941 129.893C212.16 128.685 211.769 127.182 211.769 125.383C211.769 123.868 212.047 122.595 212.604 121.565C213.16 120.536 213.917 119.707 214.876 119.08C215.835 118.452 216.924 117.979 218.143 117.659C219.374 117.339 220.665 117.115 222.014 116.984C223.6 116.819 224.879 116.665 225.849 116.523C226.82 116.369 227.524 116.144 227.962 115.848C228.4 115.552 228.619 115.114 228.619 114.534V114.428C228.619 113.303 228.264 112.433 227.554 111.817C226.855 111.202 225.861 110.894 224.571 110.894C223.21 110.894 222.127 111.196 221.322 111.8C220.517 112.392 219.984 113.137 219.724 114.037L212.728 113.469C213.083 111.812 213.781 110.379 214.823 109.172C215.865 107.953 217.208 107.018 218.854 106.366C220.511 105.704 222.428 105.372 224.606 105.372C226.122 105.372 227.572 105.55 228.957 105.905C230.353 106.26 231.59 106.81 232.667 107.556C233.756 108.302 234.615 109.261 235.242 110.433C235.869 111.593 236.183 112.983 236.183 114.605V133H229.01V129.218H228.797C228.359 130.07 227.773 130.822 227.039 131.473C226.305 132.112 225.423 132.615 224.393 132.982C223.364 133.337 222.174 133.515 220.824 133.515ZM222.991 128.295C224.103 128.295 225.086 128.076 225.938 127.638C226.79 127.188 227.459 126.584 227.944 125.827C228.43 125.069 228.672 124.211 228.672 123.252V120.358C228.436 120.512 228.11 120.654 227.696 120.784C227.293 120.902 226.838 121.015 226.329 121.121C225.82 121.216 225.311 121.305 224.802 121.388C224.293 121.459 223.831 121.524 223.417 121.583C222.529 121.713 221.754 121.92 221.091 122.205C220.428 122.489 219.913 122.873 219.546 123.359C219.179 123.832 218.996 124.424 218.996 125.134C218.996 126.164 219.368 126.951 220.114 127.496C220.872 128.028 221.831 128.295 222.991 128.295ZM240.736 133V105.727H247.944V110.539H248.264C248.832 108.941 249.779 107.68 251.105 106.757C252.431 105.834 254.017 105.372 255.863 105.372C257.734 105.372 259.326 105.84 260.64 106.775C261.954 107.698 262.83 108.953 263.268 110.539H263.552C264.108 108.977 265.114 107.728 266.57 106.793C268.038 105.846 269.772 105.372 271.773 105.372C274.317 105.372 276.383 106.183 277.969 107.805C279.567 109.415 280.366 111.699 280.366 114.658V133H272.82V116.15C272.82 114.635 272.418 113.498 271.613 112.741C270.808 111.983 269.802 111.604 268.594 111.604C267.221 111.604 266.15 112.042 265.38 112.918C264.611 113.782 264.226 114.925 264.226 116.345V133H256.893V115.99C256.893 114.652 256.509 113.587 255.739 112.794C254.982 112.001 253.981 111.604 252.738 111.604C251.898 111.604 251.14 111.817 250.466 112.244C249.803 112.658 249.276 113.244 248.885 114.001C248.495 114.747 248.299 115.623 248.299 116.629V133H240.736ZM301.692 133H293.453L306.006 96.6364H315.914L328.449 133H320.211L311.102 104.946H310.818L301.692 133ZM301.177 118.707H320.637V124.708H301.177V118.707Z" fill="#8E8E93"/>
<defs>
<clipPath id="clip0_1_848">
<rect width="1120" height="505" fill="white" transform="translate(40 198)"/>
</clipPath>
<clipPath id="clip1_1_848">
<rect width="1120" height="51" fill="white" transform="translate(40 652)"/>
</clipPath>
<clipPath id="clip2_1_848">
<rect width="1098" height="8" fill="white" transform="translate(50.2202 662.22)"/>
</clipPath>
<clipPath id="clip3_1_848">
<rect width="1098" height="8" fill="white" transform="translate(50.2202 673.42)"/>
</clipPath>
<clipPath id="clip4_1_848">
<rect width="1098" height="8" fill="white" transform="translate(50.2202 684.62)"/>
</clipPath>
</defs>
</svg>
