<svg width="1200" height="900" viewBox="0 0 1200 900" fill="none" xmlns="http://www.w3.org/2000/svg">
<rect width="1200" height="900" fill="white"/>
<path d="M77.321 360V287.273H126.327V299.95H92.6974V317.28H123.805V329.957H92.6974V347.322H126.469V360H77.321ZM150.764 328.466V360H135.636V305.455H150.053V315.078H150.693C151.9 311.906 153.924 309.396 156.765 307.55C159.606 305.679 163.051 304.744 167.099 304.744C170.887 304.744 174.189 305.573 177.007 307.23C179.824 308.887 182.014 311.255 183.576 314.332C185.139 317.386 185.92 321.032 185.92 325.27V360H170.792V327.969C170.816 324.631 169.963 322.027 168.235 320.156C166.507 318.262 164.128 317.315 161.097 317.315C159.061 317.315 157.262 317.753 155.7 318.629C154.161 319.505 152.954 320.784 152.078 322.464C151.225 324.122 150.787 326.122 150.764 328.466ZM244.11 305.455L225.041 360H207.995L188.926 305.455H204.906L216.234 344.482H216.802L228.095 305.455H244.11ZM249.22 360V305.455H264.348V360H249.22ZM256.82 298.423C254.571 298.423 252.641 297.678 251.031 296.186C249.445 294.671 248.652 292.86 248.652 290.753C248.652 288.67 249.445 286.882 251.031 285.391C252.641 283.875 254.571 283.118 256.82 283.118C259.069 283.118 260.986 283.875 262.573 285.391C264.182 286.882 264.987 288.67 264.987 290.753C264.987 292.86 264.182 294.671 262.573 296.186C260.986 297.678 259.069 298.423 256.82 298.423ZM273.835 360V305.455H288.501V314.972H289.069C290.064 311.586 291.733 309.029 294.076 307.301C296.42 305.549 299.119 304.673 302.173 304.673C302.93 304.673 303.747 304.721 304.623 304.815C305.499 304.91 306.269 305.04 306.931 305.206V318.629C306.221 318.416 305.239 318.227 303.984 318.061C302.729 317.895 301.581 317.812 300.539 317.812C298.314 317.812 296.325 318.298 294.573 319.268C292.845 320.215 291.472 321.541 290.454 323.246C289.46 324.95 288.963 326.915 288.963 329.141V360H273.835ZM334.227 361.065C328.711 361.065 323.941 359.893 319.916 357.55C315.915 355.182 312.826 351.892 310.647 347.678C308.469 343.44 307.38 338.527 307.38 332.94C307.38 327.306 308.469 322.382 310.647 318.168C312.826 313.93 315.915 310.639 319.916 308.295C323.941 305.928 328.711 304.744 334.227 304.744C339.743 304.744 344.502 305.928 348.503 308.295C352.527 310.639 355.629 313.93 357.807 318.168C359.985 322.382 361.074 327.306 361.074 332.94C361.074 338.527 359.985 343.44 357.807 347.678C355.629 351.892 352.527 355.182 348.503 357.55C344.502 359.893 339.743 361.065 334.227 361.065ZM334.298 349.347C336.808 349.347 338.903 348.636 340.584 347.216C342.264 345.772 343.531 343.807 344.383 341.321C345.259 338.835 345.697 336.006 345.697 332.834C345.697 329.661 345.259 326.832 344.383 324.347C343.531 321.861 342.264 319.896 340.584 318.452C338.903 317.008 336.808 316.286 334.298 316.286C331.765 316.286 329.634 317.008 327.906 318.452C326.201 319.896 324.911 321.861 324.035 324.347C323.183 326.832 322.757 329.661 322.757 332.834C322.757 336.006 323.183 338.835 324.035 341.321C324.911 343.807 326.201 345.772 327.906 347.216C329.634 348.636 331.765 349.347 334.298 349.347ZM383.407 328.466V360H368.279V305.455H382.696V315.078H383.336C384.543 311.906 386.567 309.396 389.408 307.55C392.249 305.679 395.693 304.744 399.742 304.744C403.53 304.744 406.832 305.573 409.649 307.23C412.467 308.887 414.657 311.255 416.219 314.332C417.782 317.386 418.563 321.032 418.563 325.27V360H403.435V327.969C403.459 324.631 402.606 322.027 400.878 320.156C399.15 318.262 396.771 317.315 393.74 317.315C391.704 317.315 389.905 317.753 388.343 318.629C386.804 319.505 385.596 320.784 384.72 322.464C383.868 324.122 383.43 326.122 383.407 328.466ZM427.854 360V305.455H442.272V315.078H442.911C444.047 311.882 445.941 309.361 448.593 307.514C451.244 305.668 454.417 304.744 458.11 304.744C461.85 304.744 465.035 305.679 467.662 307.55C470.29 309.396 472.042 311.906 472.918 315.078H473.486C474.599 311.953 476.611 309.455 479.523 307.585C482.459 305.691 485.927 304.744 489.928 304.744C495.018 304.744 499.149 306.366 502.321 309.609C505.518 312.829 507.116 317.398 507.116 323.317V360H492.023V326.3C492.023 323.269 491.218 320.997 489.608 319.482C487.999 317.966 485.986 317.209 483.571 317.209C480.825 317.209 478.683 318.085 477.144 319.837C475.605 321.565 474.836 323.849 474.836 326.69V360H460.17V325.98C460.17 323.305 459.4 321.174 457.861 319.588C456.346 318.002 454.346 317.209 451.86 317.209C450.179 317.209 448.664 317.635 447.314 318.487C445.989 319.316 444.935 320.488 444.154 322.003C443.373 323.494 442.982 325.246 442.982 327.259V360H427.854ZM541.291 361.065C535.681 361.065 530.851 359.929 526.803 357.656C522.778 355.36 519.677 352.116 517.499 347.926C515.321 343.712 514.232 338.729 514.232 332.976C514.232 327.365 515.321 322.441 517.499 318.203C519.677 313.965 522.743 310.663 526.696 308.295C530.674 305.928 535.337 304.744 540.688 304.744C544.286 304.744 547.636 305.324 550.737 306.484C553.862 307.621 556.585 309.337 558.905 311.634C561.249 313.93 563.072 316.818 564.374 320.298C565.676 323.755 566.327 327.803 566.327 332.443V336.598H520.269V327.223H552.087C552.087 325.045 551.613 323.116 550.666 321.435C549.719 319.754 548.406 318.44 546.725 317.493C545.068 316.522 543.138 316.037 540.936 316.037C538.64 316.037 536.604 316.57 534.828 317.635C533.077 318.677 531.703 320.085 530.709 321.861C529.715 323.613 529.206 325.566 529.182 327.72V336.634C529.182 339.332 529.679 341.664 530.674 343.629C531.692 345.594 533.124 347.109 534.97 348.175C536.817 349.24 539.007 349.773 541.54 349.773C543.221 349.773 544.76 349.536 546.157 349.062C547.553 348.589 548.749 347.879 549.743 346.932C550.737 345.985 551.495 344.825 552.016 343.452L566.007 344.375C565.297 347.737 563.841 350.672 561.639 353.182C559.461 355.668 556.644 357.609 553.188 359.006C549.755 360.379 545.79 361.065 541.291 361.065ZM588.695 328.466V360H573.568V305.455H587.985V315.078H588.624C589.832 311.906 591.856 309.396 594.697 307.55C597.538 305.679 600.982 304.744 605.031 304.744C608.819 304.744 612.121 305.573 614.938 307.23C617.756 308.887 619.945 311.255 621.508 314.332C623.07 317.386 623.852 321.032 623.852 325.27V360H608.724V327.969C608.747 324.631 607.895 322.027 606.167 320.156C604.439 318.262 602.06 317.315 599.029 317.315C596.993 317.315 595.194 317.753 593.631 318.629C592.093 319.505 590.885 320.784 590.009 322.464C589.157 324.122 588.719 326.122 588.695 328.466ZM662.156 305.455V316.818H629.308V305.455H662.156ZM636.765 292.386H651.893V343.239C651.893 344.635 652.106 345.724 652.532 346.506C652.958 347.263 653.55 347.796 654.308 348.104C655.089 348.411 655.989 348.565 657.007 348.565C657.717 348.565 658.427 348.506 659.137 348.388C659.848 348.246 660.392 348.139 660.771 348.068L663.15 359.325C662.393 359.562 661.327 359.834 659.954 360.142C658.581 360.473 656.912 360.675 654.947 360.746C651.301 360.888 648.105 360.402 645.359 359.29C642.636 358.177 640.518 356.449 639.002 354.105C637.487 351.761 636.741 348.802 636.765 345.227V292.386ZM714.079 321.009L700.229 321.861C699.992 320.677 699.483 319.612 698.702 318.665C697.921 317.694 696.891 316.925 695.613 316.357C694.358 315.765 692.855 315.469 691.103 315.469C688.759 315.469 686.782 315.966 685.172 316.96C683.562 317.931 682.758 319.233 682.758 320.866C682.758 322.169 683.278 323.269 684.32 324.169C685.362 325.069 687.149 325.791 689.682 326.335L699.554 328.324C704.857 329.413 708.811 331.165 711.415 333.58C714.019 335.994 715.321 339.167 715.321 343.097C715.321 346.671 714.268 349.808 712.161 352.507C710.078 355.206 707.213 357.313 703.567 358.828C699.945 360.32 695.767 361.065 691.032 361.065C683.811 361.065 678.058 359.562 673.773 356.555C669.512 353.525 667.014 349.406 666.28 344.197L681.16 343.416C681.609 345.618 682.698 347.299 684.427 348.459C686.155 349.595 688.368 350.163 691.067 350.163C693.719 350.163 695.849 349.654 697.459 348.636C699.093 347.595 699.921 346.257 699.945 344.624C699.921 343.25 699.341 342.126 698.205 341.25C697.069 340.35 695.317 339.664 692.949 339.19L683.503 337.308C678.177 336.243 674.211 334.396 671.607 331.768C669.026 329.141 667.736 325.791 667.736 321.719C667.736 318.215 668.683 315.196 670.577 312.663C672.495 310.13 675.182 308.177 678.638 306.804C682.118 305.431 686.19 304.744 690.854 304.744C697.743 304.744 703.165 306.2 707.118 309.112C711.096 312.024 713.416 315.99 714.079 321.009ZM755.371 305.455L765.385 324.524L775.648 305.455H791.166L775.364 332.727L791.592 360H776.145L765.385 341.143L754.803 360H739.178L755.371 332.727L739.746 305.455H755.371ZM106.05 389.455V400.818H73.2017V389.455H106.05ZM80.6591 376.386H95.7869V427.239C95.7869 428.635 96 429.724 96.4261 430.506C96.8523 431.263 97.4441 431.796 98.2017 432.104C98.983 432.411 99.8826 432.565 100.901 432.565C101.611 432.565 102.321 432.506 103.031 432.388C103.741 432.246 104.286 432.139 104.665 432.068L107.044 443.325C106.286 443.562 105.221 443.834 103.848 444.142C102.475 444.473 100.806 444.675 98.8409 444.746C95.1951 444.888 91.9991 444.402 89.2528 443.29C86.5303 442.177 84.4115 440.449 82.8963 438.105C81.3812 435.761 80.6354 432.802 80.6591 429.227V376.386ZM137.545 445.065C131.934 445.065 127.104 443.929 123.056 441.656C119.031 439.36 115.93 436.116 113.752 431.926C111.574 427.712 110.485 422.729 110.485 416.976C110.485 411.365 111.574 406.441 113.752 402.203C115.93 397.965 118.996 394.663 122.949 392.295C126.927 389.928 131.59 388.744 136.941 388.744C140.539 388.744 143.889 389.324 146.991 390.484C150.116 391.621 152.838 393.337 155.158 395.634C157.502 397.93 159.325 400.818 160.627 404.298C161.929 407.755 162.58 411.803 162.58 416.443V420.598H116.522V411.223H148.34C148.34 409.045 147.867 407.116 146.92 405.435C145.973 403.754 144.659 402.44 142.978 401.493C141.321 400.522 139.391 400.037 137.189 400.037C134.893 400.037 132.857 400.57 131.081 401.635C129.33 402.677 127.956 404.085 126.962 405.861C125.968 407.613 125.459 409.566 125.435 411.72V420.634C125.435 423.332 125.932 425.664 126.927 427.629C127.945 429.594 129.377 431.109 131.224 432.175C133.07 433.24 135.26 433.773 137.793 433.773C139.474 433.773 141.013 433.536 142.41 433.062C143.806 432.589 145.002 431.879 145.996 430.932C146.991 429.985 147.748 428.825 148.269 427.452L162.26 428.375C161.55 431.737 160.094 434.672 157.893 437.182C155.715 439.668 152.897 441.609 149.441 443.006C146.008 444.379 142.043 445.065 137.545 445.065ZM184.948 412.466V444H169.821V389.455H184.238V399.078H184.877C186.085 395.906 188.109 393.396 190.95 391.55C193.791 389.679 197.235 388.744 201.284 388.744C205.072 388.744 208.374 389.573 211.191 391.23C214.009 392.887 216.198 395.255 217.761 398.332C219.323 401.386 220.105 405.032 220.105 409.27V444H204.977V411.969C205.001 408.631 204.148 406.027 202.42 404.156C200.692 402.262 198.313 401.315 195.282 401.315C193.246 401.315 191.447 401.753 189.885 402.629C188.346 403.505 187.138 404.784 186.262 406.464C185.41 408.122 184.972 410.122 184.948 412.466ZM244.95 445.03C241.47 445.03 238.369 444.426 235.646 443.219C232.924 441.988 230.769 440.177 229.183 437.786C227.621 435.371 226.839 432.364 226.839 428.766C226.839 425.735 227.396 423.19 228.508 421.131C229.621 419.071 231.136 417.414 233.054 416.159C234.971 414.904 237.149 413.957 239.588 413.318C242.05 412.679 244.63 412.229 247.329 411.969C250.502 411.637 253.059 411.33 255 411.045C256.941 410.738 258.35 410.288 259.226 409.696C260.102 409.104 260.54 408.228 260.54 407.068V406.855C260.54 404.606 259.829 402.866 258.409 401.635C257.012 400.404 255.023 399.788 252.443 399.788C249.72 399.788 247.554 400.392 245.944 401.599C244.335 402.783 243.269 404.275 242.748 406.074L228.757 404.938C229.467 401.623 230.864 398.759 232.947 396.344C235.031 393.905 237.718 392.035 241.008 390.733C244.323 389.407 248.158 388.744 252.514 388.744C255.544 388.744 258.444 389.099 261.214 389.81C264.008 390.52 266.482 391.621 268.636 393.112C270.814 394.604 272.531 396.521 273.785 398.865C275.04 401.185 275.667 403.967 275.667 407.21V444H261.321V436.436H260.895C260.019 438.141 258.847 439.644 257.379 440.946C255.911 442.224 254.148 443.231 252.088 443.964C250.028 444.675 247.649 445.03 244.95 445.03ZM249.282 434.589C251.508 434.589 253.473 434.152 255.177 433.276C256.882 432.376 258.219 431.169 259.19 429.653C260.161 428.138 260.646 426.422 260.646 424.504V418.716C260.173 419.024 259.522 419.308 258.693 419.568C257.888 419.805 256.977 420.03 255.959 420.243C254.941 420.432 253.923 420.61 252.905 420.776C251.887 420.918 250.963 421.048 250.135 421.166C248.359 421.427 246.809 421.841 245.483 422.409C244.157 422.977 243.127 423.747 242.393 424.717C241.659 425.664 241.292 426.848 241.292 428.268C241.292 430.328 242.038 431.902 243.53 432.991C245.045 434.057 246.962 434.589 249.282 434.589ZM299.9 412.466V444H284.772V389.455H299.19V399.078H299.829C301.037 395.906 303.061 393.396 305.902 391.55C308.742 389.679 312.187 388.744 316.235 388.744C320.023 388.744 323.326 389.573 326.143 391.23C328.96 392.887 331.15 395.255 332.713 398.332C334.275 401.386 335.056 405.032 335.056 409.27V444H319.929V411.969C319.952 408.631 319.1 406.027 317.372 404.156C315.644 402.262 313.264 401.315 310.234 401.315C308.198 401.315 306.399 401.753 304.836 402.629C303.297 403.505 302.09 404.784 301.214 406.464C300.362 408.122 299.924 410.122 299.9 412.466ZM373.361 389.455V400.818H340.513V389.455H373.361ZM347.97 376.386H363.098V427.239C363.098 428.635 363.311 429.724 363.737 430.506C364.163 431.263 364.755 431.796 365.513 432.104C366.294 432.411 367.193 432.565 368.211 432.565C368.922 432.565 369.632 432.506 370.342 432.388C371.052 432.246 371.597 432.139 371.976 432.068L374.355 443.325C373.597 443.562 372.532 443.834 371.159 444.142C369.786 444.473 368.117 444.675 366.152 444.746C362.506 444.888 359.31 444.402 356.564 443.29C353.841 442.177 351.722 440.449 350.207 438.105C348.692 435.761 347.946 432.802 347.97 429.227V376.386ZM425.283 405.009L411.434 405.861C411.197 404.677 410.688 403.612 409.907 402.665C409.126 401.694 408.096 400.925 406.817 400.357C405.563 399.765 404.059 399.469 402.307 399.469C399.964 399.469 397.987 399.966 396.377 400.96C394.767 401.931 393.962 403.233 393.962 404.866C393.962 406.169 394.483 407.269 395.525 408.169C396.566 409.069 398.354 409.791 400.887 410.335L410.759 412.324C416.062 413.413 420.016 415.165 422.62 417.58C425.224 419.994 426.526 423.167 426.526 427.097C426.526 430.671 425.473 433.808 423.366 436.507C421.282 439.206 418.418 441.313 414.772 442.828C411.15 444.32 406.971 445.065 402.236 445.065C395.016 445.065 389.263 443.562 384.978 440.555C380.717 437.525 378.219 433.406 377.485 428.197L392.364 427.416C392.814 429.618 393.903 431.299 395.631 432.459C397.36 433.595 399.573 434.163 402.272 434.163C404.923 434.163 407.054 433.654 408.664 432.636C410.298 431.595 411.126 430.257 411.15 428.624C411.126 427.25 410.546 426.126 409.41 425.25C408.273 424.35 406.522 423.664 404.154 423.19L394.708 421.308C389.381 420.243 385.416 418.396 382.812 415.768C380.231 413.141 378.941 409.791 378.941 405.719C378.941 402.215 379.888 399.196 381.782 396.663C383.7 394.13 386.387 392.177 389.843 390.804C393.323 389.431 397.395 388.744 402.059 388.744C408.948 388.744 414.37 390.2 418.323 393.112C422.3 396.024 424.62 399.99 425.283 405.009Z" fill="black"/>
<rect x="71" y="498" width="1038" height="19" fill="black"/>
</svg>
