<svg width="1200" height="900" viewBox="0 0 1200 900" fill="none" xmlns="http://www.w3.org/2000/svg">
<rect width="1200" height="900" fill="white"/>
<g clip-path="url(#clip0_1_905)">
<g clip-path="url(#clip1_1_905)">
<path fill-rule="evenodd" clip-rule="evenodd" d="M1155.8 652C1158.12 652 1160 653.88 1160 656.2V698.2C1160 700.52 1158.12 702.4 1155.8 702.4H44.2C41.8804 702.4 40 700.52 40 698.2V656.2C40 653.88 41.8804 652 44.2 652H1155.8Z" fill="#7C7C7C"/>
<g clip-path="url(#clip2_1_905)">
<rect x="91.0999" y="662.5" width="997" height="7" fill="#D8D8D8"/>
<path fill-rule="evenodd" clip-rule="evenodd" d="M50.5 662.5H65.9V669.5H50.5V662.5Z" fill="#D7D7D7"/>
<rect x="1120.7" y="662.5" width="7" height="7" fill="#D7D400"/>
<rect x="1110.9" y="662.5" width="7" height="7" fill="#FF3C00"/>
<path fill-rule="evenodd" clip-rule="evenodd" d="M1132.6 662.5H1148V669.344H1132.6V662.5Z" fill="#00CD00"/>
</g>
<g clip-path="url(#clip3_1_905)">
<rect x="91.0999" y="673.7" width="997" height="7" fill="#D8D8D8"/>
<path fill-rule="evenodd" clip-rule="evenodd" d="M50.5 673.7H65.9V680.7H50.5V673.7Z" fill="#D7D7D7"/>
<rect x="1120.7" y="673.7" width="7" height="7" fill="#D7D400"/>
<rect x="1110.9" y="673.7" width="7" height="7" fill="#FF3C00"/>
<path fill-rule="evenodd" clip-rule="evenodd" d="M1132.6 673.7H1148V680.544H1132.6V673.7Z" fill="#00CD00"/>
</g>
<g clip-path="url(#clip4_1_905)">
<rect x="91.0999" y="684.9" width="997" height="7" fill="#D8D8D8"/>
<path fill-rule="evenodd" clip-rule="evenodd" d="M50.5 684.9H65.9V691.9H50.5V684.9Z" fill="#D7D7D7"/>
<rect x="1120.7" y="684.9" width="7" height="7" fill="#D7D400"/>
<rect x="1110.9" y="684.9" width="7" height="7" fill="#FF3C00"/>
<path fill-rule="evenodd" clip-rule="evenodd" d="M1132.6 684.9H1148V691.745H1132.6V684.9Z" fill="#00CD00"/>
</g>
</g>
<path fill-rule="evenodd" clip-rule="evenodd" d="M1154.8 198C1157.12 198 1159 199.88 1159 202.2V640.8C1159 643.12 1157.12 645 1154.8 645H44.1999C41.8804 645 40 643.12 40 640.8V202.2C40 199.88 41.8804 198 44.2 198H1154.8Z" fill="#7C7C7C"/>
<rect x="51" y="225" width="1097" height="389" rx="1.68" fill="white"/>
<path fill-rule="evenodd" clip-rule="evenodd" d="M51 208H1148V215H51V208Z" fill="#D7D7D7"/>
<path fill-rule="evenodd" clip-rule="evenodd" d="M51 624H1148V631H51V624Z" fill="#D7D7D7"/>
</g>
<rect x="428" y="50" width="344" height="719" rx="20" stroke="#EEEEEE" stroke-width="4" stroke-dasharray="45 10 15 10"/>
<rect x="791" y="50" width="344" height="719" rx="20" stroke="#EEEEEE" stroke-width="4" stroke-dasharray="45 10 15 10"/>
<path fill-rule="evenodd" clip-rule="evenodd" d="M380 500.39C380 501.832 379.108 503 378.006 503H96.9936C95.8924 503 95 501.832 95 500.39V277C95 274.239 97.2386 272 100 272H375C377.761 272 380 274.239 380 277V500.39Z" fill="#FF003C"/>
<path d="M95 277C95 274.239 97.2386 272 100 272H375C377.761 272 380 274.239 380 277V295H95V277Z" fill="#CCCCCC"/>
<path fill-rule="evenodd" clip-rule="evenodd" d="M112 284.5C112 286.986 109.986 289 107.5 289C105.014 289 103 286.986 103 284.5C103 282.014 105.014 280 107.5 280C109.986 280 112 282.014 112 284.5Z" fill="#E74C3C"/>
<path fill-rule="evenodd" clip-rule="evenodd" d="M128 284.5C128 286.986 125.986 289 123.5 289C121.014 289 119 286.986 119 284.5C119 282.014 121.014 280 123.5 280C125.986 280 128 282.014 128 284.5Z" fill="#F1C40F"/>
<path fill-rule="evenodd" clip-rule="evenodd" d="M143 284.5C143 286.986 140.986 289 138.5 289C136.014 289 134 286.986 134 284.5C134 282.014 136.014 280 138.5 280C140.986 280 143 282.014 143 284.5Z" fill="#2ECC71"/>
<path d="M197.632 380.455H190.425L185.343 398.017H185.088L179.99 380.455H172.799L181.38 405H189.051L197.632 380.455ZM213.207 372.273H206.703L198.601 377.402V383.539L206.096 378.841H206.288V405H213.207V372.273ZM221.231 405.415C223.276 405.415 225.05 403.706 225.066 401.58C225.05 399.487 223.276 397.777 221.231 397.777C219.122 397.777 217.38 399.487 217.396 401.58C217.38 403.706 219.122 405.415 221.231 405.415ZM239.978 405.719C248.207 405.719 253.177 399.455 253.193 388.668C253.209 377.962 248.176 371.825 239.978 371.825C231.764 371.825 226.778 377.946 226.762 388.668C226.73 399.423 231.732 405.703 239.978 405.719ZM239.978 399.982C236.222 399.982 233.793 396.211 233.809 388.668C233.825 381.238 236.238 377.498 239.978 377.498C243.701 377.498 246.13 381.238 246.13 388.668C246.146 396.211 243.717 399.982 239.978 399.982ZM258.724 405.415C260.77 405.415 262.544 403.706 262.56 401.58C262.544 399.487 260.77 397.777 258.724 397.777C256.615 397.777 254.873 399.487 254.889 401.58C254.873 403.706 256.615 405.415 258.724 405.415ZM277.471 405.719C285.701 405.719 290.671 399.455 290.687 388.668C290.703 377.962 285.669 371.825 277.471 371.825C269.257 371.825 264.272 377.946 264.256 388.668C264.224 399.423 269.225 405.703 277.471 405.719ZM277.471 399.982C273.716 399.982 271.287 396.211 271.303 388.668C271.319 381.238 273.732 377.498 277.471 377.498C281.195 377.498 283.624 381.238 283.624 388.668C283.64 396.211 281.211 399.982 277.471 399.982Z" fill="white"/>
<path fill-rule="evenodd" clip-rule="evenodd" d="M742.426 500.781C742.426 502.222 741.534 503.391 740.433 503.391H459.42C458.319 503.391 457.426 502.222 457.426 500.781V277.391C457.426 274.629 459.665 272.391 462.426 272.391H737.426C740.188 272.391 742.426 274.629 742.426 277.391V500.781Z" fill="#FABE28"/>
<path d="M562.087 378.735L553.506 403.281H545.835L537.254 378.735H544.445L549.543 396.297H549.798L554.88 378.735H562.087ZM563.007 403.281V398.295L574.656 387.508C575.647 386.55 576.478 385.687 577.149 384.92C577.831 384.153 578.348 383.402 578.699 382.666C579.051 381.921 579.227 381.116 579.227 380.253C579.227 379.295 579.008 378.469 578.571 377.776C578.135 377.073 577.538 376.535 576.782 376.163C576.025 375.779 575.168 375.587 574.209 375.587C573.207 375.587 572.334 375.79 571.588 376.194C570.842 376.599 570.267 377.18 569.862 377.936C569.457 378.693 569.255 379.593 569.255 380.637H562.687C562.687 378.496 563.172 376.637 564.141 375.06C565.111 373.483 566.469 372.263 568.216 371.4C569.963 370.538 571.977 370.106 574.257 370.106C576.601 370.106 578.641 370.522 580.377 371.352C582.124 372.173 583.483 373.313 584.452 374.772C585.422 376.232 585.906 377.904 585.906 379.79C585.906 381.026 585.661 382.246 585.171 383.449C584.692 384.653 583.834 385.99 582.598 387.46C581.363 388.92 579.621 390.672 577.373 392.718L572.595 397.4V397.624H586.338V403.281H563.007ZM592.894 403.696C591.84 403.696 590.934 403.323 590.178 402.578C589.432 401.821 589.059 400.916 589.059 399.861C589.059 398.817 589.432 397.922 590.178 397.176C590.934 396.431 591.84 396.058 592.894 396.058C593.917 396.058 594.812 396.431 595.579 397.176C596.346 397.922 596.73 398.817 596.73 399.861C596.73 400.564 596.549 401.209 596.186 401.795C595.835 402.37 595.371 402.833 594.796 403.185C594.221 403.526 593.587 403.696 592.894 403.696ZM611.268 404C608.52 403.989 606.155 403.313 604.173 401.97C602.202 400.628 600.684 398.684 599.619 396.138C598.564 393.591 598.042 390.529 598.053 386.949C598.053 383.38 598.58 380.339 599.635 377.824C600.7 375.31 602.218 373.398 604.189 372.088C606.171 370.767 608.531 370.106 611.268 370.106C614.006 370.106 616.361 370.767 618.332 372.088C620.313 373.409 621.837 375.326 622.902 377.84C623.967 380.344 624.495 383.38 624.484 386.949C624.484 390.539 623.951 393.607 622.886 396.154C621.831 398.7 620.319 400.644 618.348 401.986C616.377 403.329 614.017 404 611.268 404ZM611.268 398.263C613.143 398.263 614.64 397.32 615.759 395.435C616.878 393.549 617.431 390.72 617.421 386.949C617.421 384.467 617.165 382.4 616.654 380.749C616.153 379.098 615.439 377.856 614.512 377.025C613.596 376.194 612.515 375.779 611.268 375.779C609.404 375.779 607.913 376.711 606.794 378.576C605.675 380.44 605.111 383.231 605.1 386.949C605.1 389.463 605.351 391.562 605.851 393.245C606.363 394.918 607.082 396.175 608.009 397.017C608.935 397.848 610.022 398.263 611.268 398.263ZM629.643 403.696C628.588 403.696 627.682 403.323 626.926 402.578C626.18 401.821 625.807 400.916 625.807 399.861C625.807 398.817 626.18 397.922 626.926 397.176C627.682 396.431 628.588 396.058 629.643 396.058C630.665 396.058 631.56 396.431 632.327 397.176C633.094 397.922 633.478 398.817 633.478 399.861C633.478 400.564 633.297 401.209 632.934 401.795C632.583 402.37 632.119 402.833 631.544 403.185C630.969 403.526 630.335 403.696 629.643 403.696ZM648.017 404C645.268 403.989 642.903 403.313 640.921 401.97C638.95 400.628 637.432 398.684 636.367 396.138C635.312 393.591 634.79 390.529 634.801 386.949C634.801 383.38 635.328 380.339 636.383 377.824C637.448 375.31 638.966 373.398 640.937 372.088C642.919 370.767 645.279 370.106 648.017 370.106C650.754 370.106 653.109 370.767 655.08 372.088C657.061 373.409 658.585 375.326 659.65 377.84C660.715 380.344 661.243 383.38 661.232 386.949C661.232 390.539 660.699 393.607 659.634 396.154C658.579 398.7 657.067 400.644 655.096 401.986C653.125 403.329 650.765 404 648.017 404ZM648.017 398.263C649.892 398.263 651.388 397.32 652.507 395.435C653.626 393.549 654.18 390.72 654.169 386.949C654.169 384.467 653.913 382.4 653.402 380.749C652.901 379.098 652.187 377.856 651.26 377.025C650.344 376.194 649.263 375.779 648.017 375.779C646.152 375.779 644.661 376.711 643.542 378.576C642.423 380.44 641.859 383.231 641.848 386.949C641.848 389.463 642.099 391.562 642.599 393.245C643.111 394.918 643.83 396.175 644.757 397.017C645.683 397.848 646.77 398.263 648.017 398.263Z" fill="black"/>
<path d="M457.426 277.391C457.426 274.629 459.665 272.391 462.426 272.391H737.426C740.188 272.391 742.426 274.629 742.426 277.391V295.391H457.426V277.391Z" fill="#CCCCCC"/>
<path fill-rule="evenodd" clip-rule="evenodd" d="M474.426 284.891C474.426 287.376 472.412 289.391 469.926 289.391C467.441 289.391 465.426 287.376 465.426 284.891C465.426 282.405 467.441 280.391 469.926 280.391C472.412 280.391 474.426 282.405 474.426 284.891Z" fill="#E74C3C"/>
<path fill-rule="evenodd" clip-rule="evenodd" d="M490.426 284.891C490.426 287.376 488.412 289.391 485.926 289.391C483.441 289.391 481.426 287.376 481.426 284.891C481.426 282.405 483.441 280.391 485.926 280.391C488.412 280.391 490.426 282.405 490.426 284.891Z" fill="#F1C40F"/>
<path fill-rule="evenodd" clip-rule="evenodd" d="M505.426 284.891C505.426 287.376 503.412 289.391 500.926 289.391C498.441 289.391 496.426 287.376 496.426 284.891C496.426 282.405 498.441 280.391 500.926 280.391C503.412 280.391 505.426 282.405 505.426 284.891Z" fill="#2ECC71"/>
<path fill-rule="evenodd" clip-rule="evenodd" d="M1104.95 500.781C1104.95 502.222 1104.05 503.391 1102.95 503.391H821.94C820.839 503.391 819.946 502.222 819.946 500.781V277.391C819.946 274.629 822.185 272.391 824.946 272.391H1099.95C1102.71 272.391 1104.95 274.629 1104.95 277.391V500.781Z" fill="#00C176"/>
<path d="M819.946 277.391C819.946 274.629 822.185 272.391 824.946 272.391H1099.95C1102.71 272.391 1104.95 274.629 1104.95 277.391V295.391H819.946V277.391Z" fill="#CCCCCC"/>
<path fill-rule="evenodd" clip-rule="evenodd" d="M836.946 284.891C836.946 287.376 834.932 289.391 832.446 289.391C829.961 289.391 827.946 287.376 827.946 284.891C827.946 282.405 829.961 280.391 832.446 280.391C834.932 280.391 836.946 282.405 836.946 284.891Z" fill="#E74C3C"/>
<path fill-rule="evenodd" clip-rule="evenodd" d="M852.946 284.891C852.946 287.376 850.932 289.391 848.446 289.391C845.961 289.391 843.946 287.376 843.946 284.891C843.946 282.405 845.961 280.391 848.446 280.391C850.932 280.391 852.946 282.405 852.946 284.891Z" fill="#F1C40F"/>
<path fill-rule="evenodd" clip-rule="evenodd" d="M867.946 284.891C867.946 287.376 865.932 289.391 863.446 289.391C860.961 289.391 858.946 287.376 858.946 284.891C858.946 282.405 860.961 280.391 863.446 280.391C865.932 280.391 867.946 282.405 867.946 284.891Z" fill="#2ECC71"/>
<path d="M923.368 378.735L914.786 403.281H907.116L898.535 378.735H905.726L910.823 396.297H911.079L916.161 378.735H923.368ZM936.801 403.728C934.415 403.728 932.289 403.318 930.425 402.498C928.571 401.667 927.106 400.527 926.03 399.078C924.965 397.618 924.416 395.935 924.384 394.028H931.352C931.394 394.827 931.655 395.53 932.135 396.138C932.625 396.734 933.275 397.198 934.084 397.528C934.894 397.858 935.805 398.023 936.817 398.023C937.872 398.023 938.804 397.837 939.613 397.464C940.423 397.091 941.057 396.574 941.515 395.914C941.973 395.253 942.202 394.492 942.202 393.629C942.202 392.755 941.957 391.983 941.467 391.312C940.988 390.63 940.295 390.097 939.39 389.714C938.495 389.33 937.43 389.138 936.194 389.138H933.142V384.057H936.194C937.238 384.057 938.159 383.876 938.958 383.513C939.768 383.151 940.397 382.65 940.844 382.011C941.291 381.361 941.515 380.605 941.515 379.742C941.515 378.922 941.318 378.203 940.924 377.585C940.54 376.956 939.997 376.466 939.294 376.115C938.601 375.763 937.792 375.587 936.865 375.587C935.927 375.587 935.07 375.758 934.292 376.099C933.514 376.429 932.891 376.903 932.422 377.521C931.954 378.139 931.703 378.863 931.671 379.694H925.04C925.072 377.808 925.61 376.147 926.654 374.708C927.698 373.27 929.104 372.146 930.872 371.337C932.651 370.516 934.66 370.106 936.897 370.106C939.155 370.106 941.132 370.516 942.825 371.337C944.519 372.157 945.835 373.265 946.773 374.66C947.721 376.045 948.189 377.601 948.179 379.327C948.189 381.159 947.62 382.688 946.469 383.913C945.329 385.138 943.843 385.916 942.01 386.246V386.502C944.418 386.811 946.251 387.647 947.508 389.011C948.775 390.364 949.404 392.057 949.393 394.092C949.404 395.957 948.866 397.613 947.779 399.062C946.703 400.511 945.217 401.651 943.321 402.482C941.425 403.313 939.251 403.728 936.801 403.728ZM955.404 403.696C954.349 403.696 953.444 403.323 952.687 402.578C951.942 401.821 951.569 400.916 951.569 399.861C951.569 398.817 951.942 397.922 952.687 397.176C953.444 396.431 954.349 396.058 955.404 396.058C956.427 396.058 957.322 396.431 958.089 397.176C958.856 397.922 959.239 398.817 959.239 399.861C959.239 400.564 959.058 401.209 958.696 401.795C958.344 402.37 957.881 402.833 957.306 403.185C956.73 403.526 956.096 403.696 955.404 403.696ZM974.195 404C971.446 403.989 969.081 403.313 967.099 401.97C965.129 400.628 963.61 398.684 962.545 396.138C961.49 393.591 960.968 390.529 960.979 386.949C960.979 383.38 961.506 380.339 962.561 377.824C963.626 375.31 965.145 373.398 967.115 372.088C969.097 370.767 971.457 370.106 974.195 370.106C976.933 370.106 979.287 370.767 981.258 372.088C983.239 373.409 984.763 375.326 985.828 377.84C986.893 380.344 987.421 383.38 987.41 386.949C987.41 390.539 986.877 393.607 985.812 396.154C984.757 398.7 983.245 400.644 981.274 401.986C979.303 403.329 976.943 404 974.195 404ZM974.195 398.263C976.07 398.263 977.566 397.32 978.685 395.435C979.804 393.549 980.358 390.72 980.347 386.949C980.347 384.467 980.091 382.4 979.58 380.749C979.079 379.098 978.365 377.856 977.439 377.025C976.522 376.194 975.441 375.779 974.195 375.779C972.33 375.779 970.839 376.711 969.72 378.576C968.602 380.44 968.037 383.231 968.026 386.949C968.026 389.463 968.277 391.562 968.777 393.245C969.289 394.918 970.008 396.175 970.935 397.017C971.862 397.848 972.948 398.263 974.195 398.263ZM992.985 403.696C991.931 403.696 991.025 403.323 990.269 402.578C989.523 401.821 989.15 400.916 989.15 399.861C989.15 398.817 989.523 397.922 990.269 397.176C991.025 396.431 991.931 396.058 992.985 396.058C994.008 396.058 994.903 396.431 995.67 397.176C996.437 397.922 996.821 398.817 996.821 399.861C996.821 400.564 996.639 401.209 996.277 401.795C995.926 402.37 995.462 402.833 994.887 403.185C994.312 403.526 993.678 403.696 992.985 403.696ZM1011.78 404C1009.03 403.989 1006.66 403.313 1004.68 401.97C1002.71 400.628 1001.19 398.684 1000.13 396.138C999.072 393.591 998.55 390.529 998.56 386.949C998.56 383.38 999.088 380.339 1000.14 377.824C1001.21 375.31 1002.73 373.398 1004.7 372.088C1006.68 370.767 1009.04 370.106 1011.78 370.106C1014.51 370.106 1016.87 370.767 1018.84 372.088C1020.82 373.409 1022.34 375.326 1023.41 377.84C1024.47 380.344 1025 383.38 1024.99 386.949C1024.99 390.539 1024.46 393.607 1023.39 396.154C1022.34 398.7 1020.83 400.644 1018.86 401.986C1016.88 403.329 1014.52 404 1011.78 404ZM1011.78 398.263C1013.65 398.263 1015.15 397.32 1016.27 395.435C1017.38 393.549 1017.94 390.72 1017.93 386.949C1017.93 384.467 1017.67 382.4 1017.16 380.749C1016.66 379.098 1015.95 377.856 1015.02 377.025C1014.1 376.194 1013.02 375.779 1011.78 375.779C1009.91 375.779 1008.42 376.711 1007.3 378.576C1006.18 380.44 1005.62 383.231 1005.61 386.949C1005.61 389.463 1005.86 391.562 1006.36 393.245C1006.87 394.918 1007.59 396.175 1008.52 397.017C1009.44 397.848 1010.53 398.263 1011.78 398.263Z" fill="white"/>
<path d="M575.732 105.727V111.409H559.308V105.727H575.732ZM563.037 99.1932H570.601V124.619C570.601 125.318 570.707 125.862 570.92 126.253C571.133 126.632 571.429 126.898 571.808 127.052C572.199 127.206 572.648 127.283 573.157 127.283C573.512 127.283 573.868 127.253 574.223 127.194C574.578 127.123 574.85 127.07 575.039 127.034L576.229 132.663C575.85 132.781 575.318 132.917 574.631 133.071C573.945 133.237 573.11 133.337 572.128 133.373C570.305 133.444 568.707 133.201 567.334 132.645C565.972 132.089 564.913 131.224 564.155 130.053C563.398 128.881 563.025 127.401 563.037 125.614V99.1932ZM591.479 133.533C588.674 133.533 586.259 132.964 584.235 131.828C582.223 130.68 580.672 129.058 579.583 126.963C578.494 124.856 577.95 122.364 577.95 119.488C577.95 116.683 578.494 114.22 579.583 112.102C580.672 109.983 582.205 108.331 584.182 107.148C586.17 105.964 588.502 105.372 591.178 105.372C592.977 105.372 594.652 105.662 596.202 106.242C597.765 106.81 599.126 107.669 600.286 108.817C601.458 109.965 602.37 111.409 603.021 113.149C603.672 114.877 603.997 116.902 603.997 119.222V121.299H580.968V116.612H596.877C596.877 115.522 596.64 114.558 596.167 113.717C595.693 112.877 595.036 112.22 594.196 111.746C593.367 111.261 592.403 111.018 591.302 111.018C590.154 111.018 589.136 111.285 588.248 111.817C587.372 112.338 586.685 113.043 586.188 113.93C585.691 114.806 585.437 115.783 585.425 116.86V121.317C585.425 122.666 585.673 123.832 586.17 124.815C586.679 125.797 587.396 126.555 588.319 127.087C589.242 127.62 590.337 127.886 591.604 127.886C592.444 127.886 593.213 127.768 593.912 127.531C594.61 127.295 595.208 126.939 595.705 126.466C596.202 125.992 596.581 125.412 596.842 124.726L603.837 125.188C603.482 126.868 602.754 128.336 601.653 129.591C600.564 130.834 599.156 131.804 597.428 132.503C595.711 133.189 593.728 133.533 591.479 133.533ZM630.309 113.504L623.384 113.93C623.266 113.339 623.012 112.806 622.621 112.332C622.23 111.847 621.715 111.462 621.076 111.178C620.449 110.882 619.697 110.734 618.821 110.734C617.649 110.734 616.661 110.983 615.856 111.48C615.051 111.965 614.649 112.616 614.649 113.433C614.649 114.084 614.909 114.635 615.43 115.085C615.951 115.534 616.844 115.895 618.111 116.168L623.047 117.162C625.699 117.706 627.675 118.582 628.977 119.79C630.28 120.997 630.931 122.583 630.931 124.548C630.931 126.336 630.404 127.904 629.35 129.254C628.309 130.603 626.876 131.656 625.053 132.414C623.242 133.16 621.153 133.533 618.786 133.533C615.175 133.533 612.299 132.781 610.156 131.278C608.026 129.763 606.777 127.703 606.41 125.099L613.85 124.708C614.075 125.809 614.619 126.649 615.483 127.229C616.347 127.798 617.454 128.082 618.803 128.082C620.129 128.082 621.195 127.827 622 127.318C622.816 126.797 623.231 126.129 623.242 125.312C623.231 124.625 622.941 124.063 622.372 123.625C621.804 123.175 620.928 122.832 619.745 122.595L615.022 121.654C612.358 121.121 610.375 120.198 609.073 118.884C607.783 117.57 607.138 115.895 607.138 113.859C607.138 112.107 607.611 110.598 608.558 109.332C609.517 108.065 610.861 107.089 612.589 106.402C614.329 105.715 616.365 105.372 618.697 105.372C622.142 105.372 624.852 106.1 626.829 107.556C628.818 109.012 629.978 110.995 630.309 113.504ZM648.884 105.727V111.409H632.46V105.727H648.884ZM636.189 99.1932H643.753V124.619C643.753 125.318 643.859 125.862 644.072 126.253C644.285 126.632 644.581 126.898 644.96 127.052C645.351 127.206 645.801 127.283 646.31 127.283C646.665 127.283 647.02 127.253 647.375 127.194C647.73 127.123 648.002 127.07 648.192 127.034L649.381 132.663C649.003 132.781 648.47 132.917 647.783 133.071C647.097 133.237 646.262 133.337 645.28 133.373C643.457 133.444 641.859 133.201 640.486 132.645C639.124 132.089 638.065 131.224 637.307 130.053C636.55 128.881 636.177 127.401 636.189 125.614V99.1932Z" fill="#8E8E93"/>
<path d="M915.352 143.227V105.727H922.809V110.308H923.146C923.478 109.574 923.957 108.829 924.584 108.071C925.224 107.302 926.052 106.662 927.07 106.153C928.1 105.633 929.379 105.372 930.906 105.372C932.894 105.372 934.729 105.893 936.41 106.935C938.091 107.964 939.434 109.521 940.44 111.604C941.446 113.676 941.95 116.274 941.95 119.399C941.95 122.441 941.458 125.01 940.476 127.105C939.505 129.188 938.179 130.769 936.499 131.846C934.83 132.911 932.959 133.444 930.888 133.444C929.42 133.444 928.171 133.201 927.141 132.716C926.123 132.231 925.289 131.621 924.638 130.887C923.987 130.141 923.49 129.39 923.146 128.632H922.915V143.227H915.352ZM922.756 119.364C922.756 120.985 922.981 122.4 923.43 123.607C923.88 124.815 924.531 125.756 925.383 126.43C926.236 127.093 927.272 127.425 928.491 127.425C929.722 127.425 930.763 127.087 931.616 126.413C932.468 125.726 933.113 124.779 933.551 123.572C934.001 122.353 934.226 120.95 934.226 119.364C934.226 117.789 934.007 116.404 933.569 115.209C933.131 114.013 932.486 113.078 931.633 112.403C930.781 111.729 929.734 111.391 928.491 111.391C927.26 111.391 926.218 111.717 925.366 112.368C924.525 113.019 923.88 113.942 923.43 115.138C922.981 116.333 922.756 117.742 922.756 119.364ZM945.676 133V105.727H953.009V110.486H953.294C953.791 108.793 954.625 107.515 955.797 106.651C956.969 105.775 958.318 105.337 959.845 105.337C960.224 105.337 960.633 105.36 961.071 105.408C961.509 105.455 961.893 105.52 962.225 105.603V112.315C961.87 112.208 961.378 112.113 960.751 112.031C960.124 111.948 959.549 111.906 959.029 111.906C957.916 111.906 956.922 112.149 956.046 112.634C955.182 113.108 954.495 113.771 953.986 114.623C953.489 115.475 953.24 116.458 953.24 117.57V133H945.676ZM975.872 133.533C973.114 133.533 970.729 132.947 968.717 131.775C966.716 130.591 965.172 128.946 964.083 126.839C962.994 124.72 962.449 122.264 962.449 119.47C962.449 116.653 962.994 114.191 964.083 112.084C965.172 109.965 966.716 108.32 968.717 107.148C970.729 105.964 973.114 105.372 975.872 105.372C978.631 105.372 981.01 105.964 983.01 107.148C985.023 108.32 986.573 109.965 987.662 112.084C988.751 114.191 989.296 116.653 989.296 119.47C989.296 122.264 988.751 124.72 987.662 126.839C986.573 128.946 985.023 130.591 983.01 131.775C981.01 132.947 978.631 133.533 975.872 133.533ZM975.908 127.673C977.163 127.673 978.21 127.318 979.051 126.608C979.891 125.886 980.524 124.903 980.951 123.661C981.389 122.418 981.608 121.003 981.608 119.417C981.608 117.831 981.389 116.416 980.951 115.173C980.524 113.93 979.891 112.948 979.051 112.226C978.21 111.504 977.163 111.143 975.908 111.143C974.641 111.143 973.576 111.504 972.712 112.226C971.86 112.948 971.215 113.93 970.777 115.173C970.35 116.416 970.137 117.831 970.137 119.417C970.137 121.003 970.35 122.418 970.777 123.661C971.215 124.903 971.86 125.886 972.712 126.608C973.576 127.318 974.641 127.673 975.908 127.673ZM1002.95 133.444C1000.88 133.444 999 132.911 997.319 131.846C995.65 130.769 994.325 129.188 993.342 127.105C992.372 125.01 991.886 122.441 991.886 119.399C991.886 116.274 992.389 113.676 993.395 111.604C994.402 109.521 995.739 107.964 997.408 106.935C999.089 105.893 1000.93 105.372 1002.93 105.372C1004.46 105.372 1005.73 105.633 1006.75 106.153C1007.78 106.662 1008.61 107.302 1009.23 108.071C1009.87 108.829 1010.36 109.574 1010.69 110.308H1010.92V96.6364H1018.47V133H1011.01V128.632H1010.69C1010.33 129.39 1009.83 130.141 1009.18 130.887C1008.54 131.621 1007.71 132.231 1006.68 132.716C1005.66 133.201 1004.42 133.444 1002.95 133.444ZM1005.35 127.425C1006.56 127.425 1007.59 127.093 1008.43 126.43C1009.29 125.756 1009.94 124.815 1010.39 123.607C1010.85 122.4 1011.08 120.985 1011.08 119.364C1011.08 117.742 1010.86 116.333 1010.41 115.138C1009.96 113.942 1009.3 113.019 1008.45 112.368C1007.6 111.717 1006.56 111.391 1005.35 111.391C1004.1 111.391 1003.05 111.729 1002.2 112.403C1001.35 113.078 1000.7 114.013 1000.27 115.209C999.829 116.404 999.61 117.789 999.61 119.364C999.61 120.95 999.829 122.353 1000.27 123.572C1000.72 124.779 1001.36 125.726 1002.2 126.413C1003.05 127.087 1004.1 127.425 1005.35 127.425Z" fill="#8E8E93"/>
<rect x="65" y="50" width="344" height="719" rx="20" stroke="#EEEEEE" stroke-width="4" stroke-dasharray="45 10 15 10"/>
<path d="M210.267 133.444C208.195 133.444 206.319 132.911 204.638 131.846C202.969 130.769 201.643 129.188 200.661 127.105C199.69 125.01 199.205 122.441 199.205 119.399C199.205 116.274 199.708 113.676 200.714 111.604C201.72 109.521 203.058 107.964 204.727 106.935C206.408 105.893 208.249 105.372 210.249 105.372C211.776 105.372 213.049 105.633 214.066 106.153C215.096 106.662 215.925 107.302 216.552 108.071C217.191 108.829 217.677 109.574 218.008 110.308H218.239V96.6364H225.785V133H218.328V128.632H218.008C217.653 129.39 217.15 130.141 216.499 130.887C215.86 131.621 215.025 132.231 213.995 132.716C212.977 133.201 211.735 133.444 210.267 133.444ZM212.664 127.425C213.883 127.425 214.913 127.093 215.753 126.43C216.606 125.756 217.257 124.815 217.706 123.607C218.168 122.4 218.399 120.985 218.399 119.364C218.399 117.742 218.174 116.333 217.724 115.138C217.274 113.942 216.623 113.019 215.771 112.368C214.919 111.717 213.883 111.391 212.664 111.391C211.421 111.391 210.373 111.729 209.521 112.403C208.669 113.078 208.024 114.013 207.586 115.209C207.148 116.404 206.929 117.789 206.929 119.364C206.929 120.95 207.148 122.353 207.586 123.572C208.035 124.779 208.681 125.726 209.521 126.413C210.373 127.087 211.421 127.425 212.664 127.425ZM243.117 133.533C240.312 133.533 237.897 132.964 235.873 131.828C233.861 130.68 232.31 129.058 231.221 126.963C230.132 124.856 229.588 122.364 229.588 119.488C229.588 116.683 230.132 114.22 231.221 112.102C232.31 109.983 233.843 108.331 235.82 107.148C237.808 105.964 240.14 105.372 242.816 105.372C244.615 105.372 246.29 105.662 247.84 106.242C249.403 106.81 250.764 107.669 251.924 108.817C253.096 109.965 254.008 111.409 254.659 113.149C255.31 114.877 255.635 116.902 255.635 119.222V121.299H232.606V116.612H248.515C248.515 115.522 248.278 114.558 247.805 113.717C247.331 112.877 246.674 112.22 245.834 111.746C245.005 111.261 244.041 111.018 242.94 111.018C241.792 111.018 240.774 111.285 239.886 111.817C239.01 112.338 238.323 113.043 237.826 113.93C237.329 114.806 237.075 115.783 237.063 116.86V121.317C237.063 122.666 237.311 123.832 237.808 124.815C238.317 125.797 239.034 126.555 239.957 127.087C240.88 127.62 241.975 127.886 243.242 127.886C244.082 127.886 244.852 127.768 245.55 127.531C246.248 127.295 246.846 126.939 247.343 126.466C247.84 125.992 248.219 125.412 248.48 124.726L255.475 125.188C255.12 126.868 254.392 128.336 253.291 129.591C252.202 130.834 250.794 131.804 249.066 132.503C247.349 133.189 245.366 133.533 243.117 133.533ZM283.949 105.727L274.414 133H265.892L256.357 105.727H264.347L270.011 125.241H270.295L275.941 105.727H283.949Z" fill="#8E8E93"/>
<defs>
<clipPath id="clip0_1_905">
<rect width="1120" height="505" fill="white" transform="translate(40 198)"/>
</clipPath>
<clipPath id="clip1_1_905">
<rect width="1120" height="51" fill="white" transform="translate(40 652)"/>
</clipPath>
<clipPath id="clip2_1_905">
<rect width="1098" height="8" fill="white" transform="translate(50.22 662.22)"/>
</clipPath>
<clipPath id="clip3_1_905">
<rect width="1098" height="8" fill="white" transform="translate(50.22 673.42)"/>
</clipPath>
<clipPath id="clip4_1_905">
<rect width="1098" height="8" fill="white" transform="translate(50.22 684.62)"/>
</clipPath>
</defs>
</svg>
