<svg width="1200" height="900" viewBox="0 0 1200 900" fill="none" xmlns="http://www.w3.org/2000/svg">
<rect width="1200" height="900" fill="white"/>
<rect x="270" y="161.312" width="172.5" height="172.5" fill="#FF003C"/>
<rect x="270" y="401.375" width="172.5" height="172.5" fill="#990024"/>
<rect x="270" y="641.438" width="172.5" height="172.5" fill="#660018"/>
<path d="M281.87 58.1036V52.6364H307.629V58.1036H298.027V84H291.472V58.1036H281.87ZM318.195 84.4594C315.775 84.4594 313.692 83.9694 311.946 82.9893C310.211 81.9989 308.873 80.6002 307.934 78.7931C306.995 76.9759 306.525 74.8267 306.525 72.3458C306.525 69.9262 306.995 67.8026 307.934 65.9751C308.873 64.1476 310.195 62.7234 311.9 61.7024C313.616 60.6815 315.627 60.171 317.934 60.171C319.486 60.171 320.931 60.4211 322.268 60.9214C323.616 61.4114 324.79 62.1516 325.79 63.142C326.801 64.1323 327.587 65.3778 328.149 66.8786C328.71 68.3692 328.991 70.1151 328.991 72.1161V73.9079H309.129V69.8649H322.85C322.85 68.9256 322.646 68.0936 322.238 67.3687C321.829 66.6438 321.263 66.0772 320.538 65.6688C319.823 65.2502 318.991 65.0409 318.041 65.0409C317.051 65.0409 316.173 65.2706 315.407 65.7301C314.652 66.1793 314.06 66.7868 313.631 67.5525C313.202 68.308 312.983 69.1503 312.972 70.0793V73.9232C312.972 75.0871 313.187 76.0927 313.616 76.9401C314.055 77.7875 314.672 78.4409 315.469 78.9003C316.265 79.3598 317.209 79.5895 318.302 79.5895C319.027 79.5895 319.69 79.4874 320.293 79.2832C320.895 79.079 321.411 78.7727 321.839 78.3643C322.268 77.956 322.595 77.4557 322.819 76.8635L328.853 77.2617C328.547 78.7115 327.919 79.9775 326.97 81.0597C326.03 82.1317 324.815 82.9688 323.325 83.5712C321.844 84.1634 320.134 84.4594 318.195 84.4594ZM339.094 84.4441C337.593 84.4441 336.255 84.1838 335.081 83.6631C333.907 83.1322 332.978 82.3512 332.294 81.32C331.62 80.2786 331.283 78.982 331.283 77.4302C331.283 76.1234 331.523 75.0258 332.003 74.1376C332.483 73.2494 333.136 72.5347 333.963 71.9936C334.79 71.4525 335.73 71.0441 336.781 70.7685C337.843 70.4928 338.956 70.2988 340.12 70.1865C341.488 70.0436 342.59 69.9109 343.428 69.7884C344.265 69.6556 344.872 69.4616 345.25 69.2064C345.628 68.9512 345.817 68.5734 345.817 68.0732V67.9813C345.817 67.0114 345.51 66.261 344.898 65.7301C344.295 65.1992 343.438 64.9337 342.325 64.9337C341.151 64.9337 340.217 65.1941 339.522 65.7148C338.828 66.2252 338.369 66.8684 338.144 67.6444L332.11 67.1543C332.417 65.725 333.019 64.4896 333.917 63.4482C334.816 62.3967 335.975 61.5901 337.394 61.0286C338.823 60.4569 340.477 60.171 342.356 60.171C343.662 60.171 344.913 60.3241 346.108 60.6304C347.312 60.9367 348.379 61.4114 349.308 62.0546C350.248 62.6978 350.988 63.5248 351.529 64.5356C352.07 65.5361 352.34 66.7357 352.34 68.1344V84H346.154V80.7381H345.97C345.592 81.4731 345.087 82.1214 344.454 82.683C343.821 83.2343 343.06 83.6682 342.172 83.9847C341.284 84.291 340.258 84.4441 339.094 84.4441ZM340.962 79.9417C341.922 79.9417 342.769 79.7528 343.504 79.3751C344.239 78.9871 344.816 78.4664 345.235 77.813C345.653 77.1596 345.863 76.4194 345.863 75.5925V73.0962C345.658 73.229 345.378 73.3515 345.02 73.4638C344.673 73.5659 344.28 73.6629 343.841 73.7547C343.402 73.8364 342.963 73.913 342.524 73.9845C342.085 74.0457 341.687 74.1019 341.33 74.1529C340.564 74.2652 339.895 74.4439 339.323 74.6889C338.752 74.9339 338.308 75.2658 337.991 75.6843C337.675 76.0927 337.516 76.6032 337.516 77.2158C337.516 78.104 337.838 78.7829 338.481 79.2526C339.134 79.712 339.961 79.9417 340.962 79.9417ZM356.539 84V60.4773H362.757V64.6274H363.033C363.523 63.2492 364.339 62.1618 365.483 61.3655C366.626 60.5692 367.994 60.171 369.587 60.171C371.2 60.171 372.573 60.5743 373.707 61.3808C374.84 62.1772 375.595 63.2594 375.973 64.6274H376.218C376.698 63.2798 377.566 62.2027 378.822 61.3961C380.088 60.5794 381.583 60.171 383.309 60.171C385.504 60.171 387.285 60.8703 388.653 62.269C390.032 63.6575 390.721 65.628 390.721 68.1804V84H384.212V69.4668C384.212 68.1599 383.865 67.1798 383.171 66.5264C382.477 65.873 381.609 65.5463 380.567 65.5463C379.383 65.5463 378.459 65.924 377.796 66.6796C377.132 67.4248 376.8 68.4101 376.8 69.6352V84H370.475V69.3289C370.475 68.1752 370.144 67.2564 369.48 66.5724C368.827 65.8883 367.964 65.5463 366.892 65.5463C366.167 65.5463 365.514 65.7301 364.932 66.0976C364.36 66.4549 363.906 66.9603 363.569 67.6137C363.232 68.2569 363.063 69.0124 363.063 69.8802V84H356.539ZM409.659 84H402.553L413.38 52.6364H421.925L432.737 84H425.631L417.775 59.8034H417.53L409.659 84ZM409.214 71.672H425.999V76.8482H409.214V71.672Z" fill="black"/>
<path d="M126.72 264.383C124.934 264.383 123.315 263.923 121.866 263.005C120.426 262.076 119.283 260.713 118.435 258.916C117.598 257.109 117.179 254.893 117.179 252.269C117.179 249.574 117.613 247.333 118.481 245.546C119.349 243.749 120.503 242.407 121.942 241.519C123.392 240.62 124.98 240.171 126.705 240.171C128.022 240.171 129.119 240.396 129.997 240.845C130.886 241.284 131.6 241.835 132.141 242.499C132.693 243.152 133.111 243.795 133.397 244.428H133.596V232.636H140.105V264H133.673V260.233H133.397C133.091 260.886 132.657 261.534 132.096 262.178C131.544 262.811 130.824 263.336 129.936 263.755C129.058 264.174 127.986 264.383 126.72 264.383ZM128.788 259.191C129.839 259.191 130.727 258.905 131.452 258.334C132.187 257.752 132.749 256.94 133.137 255.899C133.535 254.857 133.734 253.637 133.734 252.239C133.734 250.84 133.54 249.625 133.152 248.594C132.764 247.563 132.203 246.766 131.468 246.205C130.733 245.643 129.839 245.363 128.788 245.363C127.716 245.363 126.812 245.653 126.077 246.235C125.342 246.817 124.786 247.624 124.408 248.655C124.03 249.686 123.841 250.881 123.841 252.239C123.841 253.607 124.03 254.817 124.408 255.868C124.796 256.909 125.352 257.726 126.077 258.318C126.812 258.9 127.716 259.191 128.788 259.191ZM155.326 264.459C152.907 264.459 150.824 263.969 149.078 262.989C147.342 261.999 146.005 260.6 145.066 258.793C144.126 256.976 143.657 254.827 143.657 252.346C143.657 249.926 144.126 247.803 145.066 245.975C146.005 244.148 147.327 242.723 149.032 241.702C150.747 240.681 152.759 240.171 155.066 240.171C156.618 240.171 158.062 240.421 159.4 240.921C160.747 241.411 161.922 242.152 162.922 243.142C163.933 244.132 164.719 245.378 165.281 246.879C165.842 248.369 166.123 250.115 166.123 252.116V253.908H146.26V249.865H159.982C159.982 248.926 159.778 248.094 159.369 247.369C158.961 246.644 158.394 246.077 157.669 245.669C156.955 245.25 156.123 245.041 155.173 245.041C154.183 245.041 153.305 245.271 152.539 245.73C151.784 246.179 151.191 246.787 150.763 247.552C150.334 248.308 150.114 249.15 150.104 250.079V253.923C150.104 255.087 150.318 256.093 150.747 256.94C151.186 257.788 151.804 258.441 152.6 258.9C153.397 259.36 154.341 259.589 155.433 259.589C156.158 259.589 156.822 259.487 157.424 259.283C158.027 259.079 158.542 258.773 158.971 258.364C159.4 257.956 159.727 257.456 159.951 256.864L165.985 257.262C165.679 258.711 165.051 259.977 164.101 261.06C163.162 262.132 161.947 262.969 160.457 263.571C158.976 264.163 157.266 264.459 155.326 264.459ZM190.816 240.477L182.592 264H175.241L167.018 240.477H173.909L178.794 257.308H179.039L183.909 240.477H190.816Z" fill="black"/>
<path d="M128.279 480.477V485.378H114.113V480.477H128.279ZM117.329 474.842H123.853V496.772C123.853 497.374 123.945 497.844 124.129 498.181C124.313 498.507 124.568 498.737 124.895 498.87C125.231 499.002 125.619 499.069 126.058 499.069C126.365 499.069 126.671 499.043 126.977 498.992C127.284 498.931 127.518 498.885 127.682 498.854L128.708 503.709C128.381 503.811 127.922 503.929 127.33 504.061C126.737 504.204 126.018 504.291 125.17 504.322C123.598 504.383 122.22 504.174 121.035 503.694C119.861 503.214 118.947 502.469 118.294 501.458C117.641 500.447 117.319 499.171 117.329 497.629V474.842ZM142.134 504.459C139.714 504.459 137.631 503.969 135.885 502.989C134.15 501.999 132.812 500.6 131.873 498.793C130.934 496.976 130.464 494.827 130.464 492.346C130.464 489.926 130.934 487.803 131.873 485.975C132.812 484.148 134.134 482.723 135.839 481.702C137.555 480.681 139.566 480.171 141.873 480.171C143.425 480.171 144.87 480.421 146.207 480.921C147.555 481.411 148.729 482.152 149.729 483.142C150.74 484.132 151.526 485.378 152.088 486.879C152.649 488.369 152.93 490.115 152.93 492.116V493.908H133.067V489.865H146.789C146.789 488.926 146.585 488.094 146.176 487.369C145.768 486.644 145.201 486.077 144.477 485.669C143.762 485.25 142.93 485.041 141.98 485.041C140.99 485.041 140.112 485.271 139.346 485.73C138.591 486.179 137.999 486.787 137.57 487.552C137.141 488.308 136.922 489.15 136.911 490.079V493.923C136.911 495.087 137.126 496.093 137.555 496.94C137.994 497.788 138.611 498.441 139.408 498.9C140.204 499.36 141.148 499.589 142.241 499.589C142.966 499.589 143.629 499.487 144.232 499.283C144.834 499.079 145.35 498.773 145.778 498.364C146.207 497.956 146.534 497.456 146.758 496.864L152.792 497.262C152.486 498.711 151.858 499.977 150.909 501.06C149.969 502.132 148.754 502.969 147.264 503.571C145.783 504.163 144.073 504.459 142.134 504.459ZM175.897 487.185L169.924 487.552C169.822 487.042 169.602 486.583 169.266 486.174C168.929 485.756 168.484 485.424 167.933 485.179C167.392 484.924 166.744 484.796 165.988 484.796C164.978 484.796 164.125 485.01 163.431 485.439C162.737 485.858 162.389 486.419 162.389 487.124C162.389 487.685 162.614 488.16 163.063 488.548C163.512 488.936 164.283 489.247 165.376 489.482L169.633 490.34C171.92 490.809 173.625 491.565 174.748 492.606C175.871 493.648 176.433 495.016 176.433 496.71C176.433 498.252 175.978 499.605 175.07 500.769C174.171 501.933 172.936 502.841 171.364 503.495C169.802 504.138 168 504.459 165.958 504.459C162.844 504.459 160.363 503.811 158.515 502.515C156.677 501.208 155.6 499.431 155.284 497.185L161.7 496.848C161.894 497.798 162.364 498.523 163.109 499.023C163.854 499.513 164.809 499.758 165.973 499.758C167.116 499.758 168.035 499.538 168.73 499.099C169.434 498.65 169.791 498.073 169.802 497.369C169.791 496.777 169.541 496.292 169.051 495.914C168.561 495.526 167.806 495.23 166.785 495.026L162.711 494.214C160.414 493.755 158.704 492.958 157.581 491.825C156.468 490.692 155.911 489.247 155.911 487.491C155.911 485.98 156.32 484.678 157.137 483.586C157.964 482.494 159.122 481.651 160.613 481.059C162.114 480.467 163.87 480.171 165.881 480.171C168.852 480.171 171.19 480.799 172.895 482.055C174.61 483.31 175.611 485.021 175.897 487.185ZM192.19 480.477V485.378H178.024V480.477H192.19ZM181.24 474.842H187.764V496.772C187.764 497.374 187.856 497.844 188.04 498.181C188.224 498.507 188.479 498.737 188.805 498.87C189.142 499.002 189.53 499.069 189.969 499.069C190.276 499.069 190.582 499.043 190.888 498.992C191.194 498.931 191.429 498.885 191.593 498.854L192.619 503.709C192.292 503.811 191.833 503.929 191.24 504.061C190.648 504.204 189.929 504.291 189.081 504.322C187.509 504.383 186.131 504.174 184.946 503.694C183.772 503.214 182.858 502.469 182.205 501.458C181.552 500.447 181.23 499.171 181.24 497.629V474.842Z" fill="black"/>
<path d="M108.045 752.821V720.477H114.477V724.428H114.768C115.053 723.795 115.467 723.152 116.008 722.499C116.559 721.835 117.274 721.284 118.152 720.845C119.04 720.396 120.143 720.171 121.46 720.171C123.175 720.171 124.758 720.62 126.207 721.519C127.657 722.407 128.816 723.749 129.684 725.546C130.552 727.333 130.985 729.574 130.985 732.269C130.985 734.893 130.562 737.109 129.714 738.916C128.877 740.713 127.734 742.076 126.284 743.005C124.844 743.923 123.231 744.383 121.445 744.383C120.179 744.383 119.102 744.174 118.213 743.755C117.335 743.336 116.616 742.811 116.054 742.178C115.492 741.534 115.064 740.886 114.768 740.233H114.569V752.821H108.045ZM114.431 732.239C114.431 733.637 114.625 734.857 115.013 735.899C115.401 736.94 115.962 737.752 116.697 738.334C117.432 738.905 118.326 739.191 119.377 739.191C120.439 739.191 121.337 738.9 122.073 738.318C122.808 737.726 123.364 736.909 123.742 735.868C124.13 734.817 124.324 733.607 124.324 732.239C124.324 730.881 124.135 729.686 123.757 728.655C123.379 727.624 122.823 726.817 122.088 726.235C121.353 725.653 120.449 725.363 119.377 725.363C118.315 725.363 117.417 725.643 116.682 726.205C115.957 726.766 115.401 727.563 115.013 728.594C114.625 729.625 114.431 730.84 114.431 732.239ZM134.472 744V720.477H140.797V724.581H141.042C141.471 723.122 142.191 722.019 143.201 721.274C144.212 720.518 145.376 720.14 146.693 720.14C147.02 720.14 147.372 720.161 147.75 720.202C148.127 720.242 148.459 720.299 148.745 720.37V726.159C148.439 726.067 148.015 725.985 147.474 725.914C146.933 725.842 146.438 725.807 145.989 725.807C145.029 725.807 144.171 726.016 143.416 726.435C142.67 726.843 142.078 727.415 141.639 728.15C141.21 728.885 140.996 729.732 140.996 730.692V744H134.472ZM160.789 744.459C158.41 744.459 156.353 743.954 154.617 742.943C152.892 741.922 151.559 740.503 150.62 738.686C149.681 736.858 149.211 734.74 149.211 732.331C149.211 729.901 149.681 727.777 150.62 725.96C151.559 724.132 152.892 722.713 154.617 721.702C156.353 720.681 158.41 720.171 160.789 720.171C163.168 720.171 165.22 720.681 166.945 721.702C168.681 722.713 170.018 724.132 170.957 725.96C171.897 727.777 172.366 729.901 172.366 732.331C172.366 734.74 171.897 736.858 170.957 738.686C170.018 740.503 168.681 741.922 166.945 742.943C165.22 743.954 163.168 744.459 160.789 744.459ZM160.819 739.406C161.902 739.406 162.805 739.099 163.53 738.487C164.255 737.864 164.801 737.017 165.169 735.945C165.546 734.873 165.735 733.653 165.735 732.285C165.735 730.917 165.546 729.696 165.169 728.624C164.801 727.552 164.255 726.705 163.53 726.082C162.805 725.46 161.902 725.148 160.819 725.148C159.727 725.148 158.808 725.46 158.063 726.082C157.328 726.705 156.771 727.552 156.393 728.624C156.026 729.696 155.842 730.917 155.842 732.285C155.842 733.653 156.026 734.873 156.393 735.945C156.771 737.017 157.328 737.864 158.063 738.487C158.808 739.099 159.727 739.406 160.819 739.406ZM184.414 744.383C182.627 744.383 181.009 743.923 179.559 743.005C178.12 742.076 176.976 740.713 176.129 738.916C175.292 737.109 174.873 734.893 174.873 732.269C174.873 729.574 175.307 727.333 176.175 725.546C177.042 723.749 178.196 722.407 179.636 721.519C181.085 720.62 182.673 720.171 184.398 720.171C185.715 720.171 186.813 720.396 187.691 720.845C188.579 721.284 189.294 721.835 189.835 722.499C190.386 723.152 190.805 723.795 191.091 724.428H191.29V712.636H197.798V744H191.366V740.233H191.091C190.784 740.886 190.351 741.534 189.789 742.178C189.238 742.811 188.518 743.336 187.63 743.755C186.752 744.174 185.68 744.383 184.414 744.383ZM186.481 739.191C187.533 739.191 188.421 738.905 189.146 738.334C189.881 737.752 190.442 736.94 190.83 735.899C191.229 734.857 191.428 733.637 191.428 732.239C191.428 730.84 191.234 729.625 190.846 728.594C190.458 727.563 189.896 726.766 189.161 726.205C188.426 725.643 187.533 725.363 186.481 725.363C185.409 725.363 184.506 725.653 183.771 726.235C183.035 726.817 182.479 727.624 182.101 728.655C181.724 729.686 181.535 730.881 181.535 732.239C181.535 733.607 181.724 734.817 182.101 735.868C182.489 736.909 183.046 737.726 183.771 738.318C184.506 738.9 185.409 739.191 186.481 739.191Z" fill="black"/>
</svg>
