<svg width="1200" height="900" viewBox="0 0 1200 900" fill="none" xmlns="http://www.w3.org/2000/svg">
<rect width="1200" height="900" fill="white"/>
<path d="M451.422 142.641V142.203C451.422 141.839 451.549 141.583 451.805 141.438C452.096 141.292 452.424 141.219 452.789 141.219C453.081 141.219 453.354 141.255 453.609 141.328C453.865 141.365 454.065 141.565 454.211 141.93C454.32 142.477 454.43 143.242 454.539 144.227C454.648 145.174 454.776 146.232 454.922 147.398C455.068 148.565 455.214 149.805 455.359 151.117C455.542 152.393 455.706 153.615 455.852 154.781C456.034 155.911 456.216 156.932 456.398 157.844C456.581 158.755 456.781 159.448 457 159.922C456.891 156.422 457 153.396 457.328 150.844C457.656 148.255 458.276 146.159 459.188 144.555C460.135 142.914 461.411 141.784 463.016 141.164C464.656 140.508 466.698 140.362 469.141 140.727C470.271 140.727 470.836 141.328 470.836 142.531C470.836 143.005 470.526 143.333 469.906 143.516C469.286 143.661 468.594 143.771 467.828 143.844C467.062 143.88 466.315 143.935 465.586 144.008C464.857 144.081 464.328 144.263 464 144.555C462.688 145.284 461.758 146.414 461.211 147.945C460.701 149.477 460.336 151.281 460.117 153.359C459.898 155.438 459.734 157.716 459.625 160.195C459.552 162.638 459.315 165.154 458.914 167.742C458.914 168.107 458.768 168.38 458.477 168.562C458.185 168.745 457.82 168.836 457.383 168.836C456.982 168.836 456.581 168.745 456.18 168.562C455.815 168.38 455.523 168.107 455.305 167.742L451.422 142.641ZM473.57 161.508C473.315 159.831 473.188 158.208 473.188 156.641C473.188 155.036 473.279 153.414 473.461 151.773C473.68 150.133 473.971 148.438 474.336 146.688C474.737 144.901 475.193 142.987 475.703 140.945C475.703 140.544 475.812 140.18 476.031 139.852C476.25 139.487 476.542 139.195 476.906 138.977C477.271 138.721 477.654 138.521 478.055 138.375C478.456 138.229 478.839 138.156 479.203 138.156C480.005 138.156 480.734 138.411 481.391 138.922C482.047 139.432 482.63 140.052 483.141 140.781C483.688 141.51 484.143 142.294 484.508 143.133C484.909 143.935 485.237 144.628 485.492 145.211C485.784 146.487 485.984 147.945 486.094 149.586C486.24 151.19 486.258 152.831 486.148 154.508C486.039 156.185 485.784 157.844 485.383 159.484C484.982 161.089 484.417 162.565 483.688 163.914C482.958 165.263 482.01 166.393 480.844 167.305C479.714 168.216 478.365 168.781 476.797 169C475.958 169 475.32 168.727 474.883 168.18C474.445 167.596 474.117 166.904 473.898 166.102C473.716 165.263 473.607 164.424 473.57 163.586C473.57 162.747 473.57 162.055 473.57 161.508ZM476.359 161.344C476.359 161.708 476.359 162.055 476.359 162.383C476.396 162.711 476.432 163.039 476.469 163.367C476.542 163.659 476.615 163.987 476.688 164.352C476.797 164.68 476.924 165.062 477.07 165.5H477.398C478.273 165.5 479.021 165.208 479.641 164.625C480.26 164.042 480.789 163.294 481.227 162.383C481.664 161.435 482.029 160.396 482.32 159.266C482.612 158.099 482.831 156.969 482.977 155.875C483.159 154.745 483.268 153.706 483.305 152.758C483.378 151.773 483.414 150.99 483.414 150.406V149.312C483.414 148.839 483.396 148.31 483.359 147.727C483.323 147.107 483.25 146.487 483.141 145.867C483.068 145.211 482.94 144.628 482.758 144.117C482.576 143.57 482.339 143.133 482.047 142.805C481.755 142.477 481.372 142.312 480.898 142.312C480.096 142.057 479.404 142.112 478.82 142.477C478.273 142.841 477.818 143.461 477.453 144.336C477.125 145.174 476.87 146.214 476.688 147.453C476.505 148.693 476.396 150.06 476.359 151.555C476.323 153.049 476.305 154.635 476.305 156.312C476.341 157.99 476.359 159.667 476.359 161.344ZM488.5 161.508C488.245 159.831 488.117 158.208 488.117 156.641C488.117 155.036 488.208 153.414 488.391 151.773C488.609 150.133 488.901 148.438 489.266 146.688C489.667 144.901 490.122 142.987 490.633 140.945C490.633 140.544 490.742 140.18 490.961 139.852C491.18 139.487 491.471 139.195 491.836 138.977C492.201 138.721 492.583 138.521 492.984 138.375C493.385 138.229 493.768 138.156 494.133 138.156C494.935 138.156 495.664 138.411 496.32 138.922C496.977 139.432 497.56 140.052 498.07 140.781C498.617 141.51 499.073 142.294 499.438 143.133C499.839 143.935 500.167 144.628 500.422 145.211C500.714 146.487 500.914 147.945 501.023 149.586C501.169 151.19 501.188 152.831 501.078 154.508C500.969 156.185 500.714 157.844 500.312 159.484C499.911 161.089 499.346 162.565 498.617 163.914C497.888 165.263 496.94 166.393 495.773 167.305C494.643 168.216 493.294 168.781 491.727 169C490.888 169 490.25 168.727 489.812 168.18C489.375 167.596 489.047 166.904 488.828 166.102C488.646 165.263 488.536 164.424 488.5 163.586C488.5 162.747 488.5 162.055 488.5 161.508ZM491.289 161.344C491.289 161.708 491.289 162.055 491.289 162.383C491.326 162.711 491.362 163.039 491.398 163.367C491.471 163.659 491.544 163.987 491.617 164.352C491.727 164.68 491.854 165.062 492 165.5H492.328C493.203 165.5 493.951 165.208 494.57 164.625C495.19 164.042 495.719 163.294 496.156 162.383C496.594 161.435 496.958 160.396 497.25 159.266C497.542 158.099 497.76 156.969 497.906 155.875C498.089 154.745 498.198 153.706 498.234 152.758C498.307 151.773 498.344 150.99 498.344 150.406V149.312C498.344 148.839 498.326 148.31 498.289 147.727C498.253 147.107 498.18 146.487 498.07 145.867C497.997 145.211 497.87 144.628 497.688 144.117C497.505 143.57 497.268 143.133 496.977 142.805C496.685 142.477 496.302 142.312 495.828 142.312C495.026 142.057 494.333 142.112 493.75 142.477C493.203 142.841 492.747 143.461 492.383 144.336C492.055 145.174 491.799 146.214 491.617 147.453C491.435 148.693 491.326 150.06 491.289 151.555C491.253 153.049 491.234 154.635 491.234 156.312C491.271 157.99 491.289 159.667 491.289 161.344ZM504.961 145.648C504.596 145.831 504.25 146.031 503.922 146.25C503.63 146.432 503.339 146.615 503.047 146.797C502.755 146.943 502.464 147.052 502.172 147.125C501.88 147.198 501.57 147.198 501.242 147.125C501.023 147.125 500.841 146.997 500.695 146.742C500.549 146.451 500.44 146.141 500.367 145.812C500.258 145.448 500.185 145.102 500.148 144.773C500.112 144.409 500.112 144.135 500.148 143.953L505.398 140.945L505.727 126.945C505.799 126.471 506.091 126.289 506.602 126.398C507.112 126.471 507.641 126.581 508.188 126.727C508.26 126.727 508.37 126.763 508.516 126.836C508.698 126.872 508.826 126.909 508.898 126.945C508.826 127.93 508.734 129.005 508.625 130.172C508.552 131.302 508.479 132.451 508.406 133.617C508.333 134.747 508.279 135.859 508.242 136.953C508.242 138.047 508.297 139.031 508.406 139.906L516.609 137.609C516.755 137.573 516.865 137.682 516.938 137.938C517.047 138.156 517.138 138.43 517.211 138.758C517.32 139.086 517.393 139.414 517.43 139.742C517.466 140.07 517.484 140.234 517.484 140.234L508.188 144.172C508.188 144.5 508.206 145.284 508.242 146.523C508.315 147.763 508.388 149.24 508.461 150.953C508.534 152.63 508.607 154.453 508.68 156.422C508.753 158.354 508.826 160.159 508.898 161.836C508.971 163.513 509.026 164.99 509.062 166.266C509.099 167.505 509.117 168.289 509.117 168.617C509.044 169.711 508.716 170.258 508.133 170.258C507.586 170.258 506.984 169.984 506.328 169.438L504.961 145.648ZM546.031 168.289C545.63 163.367 545.266 158.445 544.938 153.523C544.646 148.565 544.318 143.424 543.953 138.102C543.953 137.227 544.427 136.789 545.375 136.789H545.812C545.922 136.789 546.049 136.935 546.195 137.227C546.341 137.518 546.487 138.065 546.633 138.867C546.815 139.633 546.997 140.818 547.18 142.422C547.398 143.99 547.654 146.049 547.945 148.602C548.237 151.154 548.565 154.344 548.93 158.172C549.695 155.693 550.297 153.286 550.734 150.953C551.172 148.62 551.737 146.505 552.43 144.609C553.122 142.677 554.089 140.982 555.328 139.523C556.604 138.065 558.427 136.99 560.797 136.297C562.109 136.516 563.167 137.318 563.969 138.703C564.771 140.052 565.409 141.729 565.883 143.734C566.357 145.74 566.685 147.927 566.867 150.297C567.049 152.63 567.159 154.872 567.195 157.023C567.232 159.174 567.25 161.107 567.25 162.82C567.25 164.497 567.286 165.701 567.359 166.43C567.25 166.721 567.086 166.977 566.867 167.195C566.648 167.414 566.393 167.578 566.102 167.688C565.846 167.76 565.591 167.779 565.336 167.742C565.081 167.669 564.844 167.469 564.625 167.141C564.625 166.74 564.589 165.919 564.516 164.68C564.443 163.44 564.352 162 564.242 160.359C564.133 158.682 564.005 156.914 563.859 155.055C563.75 153.159 563.641 151.391 563.531 149.75C563.458 148.073 563.385 146.615 563.312 145.375C563.24 144.135 563.185 143.315 563.148 142.914C562.383 141.565 561.617 140.799 560.852 140.617C560.122 140.435 559.375 140.672 558.609 141.328C557.88 141.984 557.169 142.987 556.477 144.336C555.784 145.685 555.128 147.216 554.508 148.93C553.888 150.607 553.305 152.375 552.758 154.234C552.211 156.094 551.737 157.898 551.336 159.648C550.935 161.362 550.589 162.93 550.297 164.352C550.042 165.737 549.878 166.812 549.805 167.578C549.695 167.833 549.458 168.089 549.094 168.344C548.766 168.562 548.401 168.727 548 168.836C547.635 168.945 547.253 168.982 546.852 168.945C546.487 168.872 546.214 168.654 546.031 168.289ZM586.336 167.578C586.154 166.63 585.99 165.5 585.844 164.188C585.734 162.839 585.607 161.49 585.461 160.141C585.315 158.755 585.133 157.461 584.914 156.258C584.732 155.055 584.44 154.07 584.039 153.305C582.18 157.096 580.539 160.086 579.117 162.273C577.695 164.424 576.438 165.974 575.344 166.922C574.286 167.833 573.393 168.271 572.664 168.234C571.935 168.198 571.333 167.87 570.859 167.25C570.385 166.63 570.039 165.846 569.82 164.898C569.638 163.914 569.51 163.003 569.438 162.164C569.438 161.362 569.62 160.232 569.984 158.773C570.349 157.315 570.841 155.729 571.461 154.016C572.081 152.266 572.81 150.497 573.648 148.711C574.523 146.924 575.453 145.302 576.438 143.844C577.422 142.385 578.443 141.182 579.5 140.234C580.557 139.286 581.615 138.812 582.672 138.812C584.24 138.557 585.388 138.904 586.117 139.852C586.883 140.763 587.029 142.312 586.555 144.5C586.555 146.906 586.646 148.966 586.828 150.68C587.047 152.393 587.266 154.034 587.484 155.602C587.74 157.169 587.958 158.81 588.141 160.523C588.359 162.237 588.469 164.297 588.469 166.703C588.469 167.141 588.414 167.523 588.305 167.852C588.232 168.143 587.794 168.289 586.992 168.289C586.883 168.289 586.737 168.198 586.555 168.016C586.409 167.833 586.336 167.688 586.336 167.578ZM583.383 143.133C582.982 142.549 582.435 142.495 581.742 142.969C581.049 143.443 580.32 144.227 579.555 145.32C578.789 146.414 578.005 147.727 577.203 149.258C576.401 150.789 575.654 152.339 574.961 153.906C574.268 155.474 573.667 156.969 573.156 158.391C572.646 159.776 572.299 160.924 572.117 161.836C572.117 163.148 572.318 163.896 572.719 164.078C573.12 164.224 573.612 164.005 574.195 163.422C574.779 162.839 575.435 162 576.164 160.906C576.93 159.812 577.659 158.646 578.352 157.406C579.081 156.167 579.755 154.964 580.375 153.797C581.031 152.63 581.542 151.682 581.906 150.953C582.234 150.188 582.49 149.477 582.672 148.82C582.854 148.164 583 147.544 583.109 146.961C583.255 146.341 583.328 145.721 583.328 145.102C583.365 144.482 583.383 143.826 583.383 143.133ZM593.5 168.836C593.391 167.815 593.299 166.43 593.227 164.68C593.154 162.93 593.081 161.034 593.008 158.992C592.935 156.914 592.844 154.763 592.734 152.539C592.661 150.315 592.57 148.201 592.461 146.195C592.352 144.19 592.206 142.367 592.023 140.727C591.878 139.086 591.714 137.773 591.531 136.789C591.531 136.06 591.695 135.641 592.023 135.531C592.352 135.385 592.771 135.312 593.281 135.312C593.354 135.312 593.518 135.312 593.773 135.312C594.029 135.312 594.211 135.331 594.32 135.367C594.648 136.461 594.849 137.883 594.922 139.633C595.031 141.346 595.104 143.224 595.141 145.266C595.214 147.307 595.268 149.422 595.305 151.609C595.378 153.797 595.505 155.875 595.688 157.844C596.198 154.964 596.617 152.576 596.945 150.68C597.31 148.784 597.638 147.271 597.93 146.141C598.258 144.974 598.549 144.117 598.805 143.57C599.096 142.987 599.406 142.604 599.734 142.422C600.099 142.24 600.482 142.167 600.883 142.203C601.32 142.203 601.831 142.203 602.414 142.203C603.07 142.203 603.599 142.458 604 142.969C604.438 143.479 604.766 144.135 604.984 144.938C605.24 145.74 605.422 146.615 605.531 147.562C605.677 148.51 605.805 149.44 605.914 150.352C606.023 151.227 606.133 152.029 606.242 152.758C606.388 153.487 606.607 153.997 606.898 154.289C607.81 151.591 608.594 149.385 609.25 147.672C609.906 145.958 610.471 144.609 610.945 143.625C611.419 142.604 611.839 141.875 612.203 141.438C612.568 141 612.896 140.745 613.188 140.672C613.479 140.562 613.734 140.544 613.953 140.617C614.208 140.69 614.464 140.727 614.719 140.727C615.703 140.727 616.451 141.237 616.961 142.258C617.544 143.898 617.945 145.466 618.164 146.961C618.383 148.419 618.51 149.841 618.547 151.227C618.583 152.576 618.583 153.87 618.547 155.109C618.547 156.349 618.583 157.552 618.656 158.719C618.766 159.885 618.966 161.034 619.258 162.164C619.586 163.294 620.133 164.406 620.898 165.5C620.607 166.083 620.315 166.484 620.023 166.703C619.732 166.885 619.331 166.977 618.82 166.977C618.383 166.977 618 166.831 617.672 166.539C617.344 166.211 617.07 165.828 616.852 165.391C616.633 164.917 616.451 164.443 616.305 163.969C616.195 163.495 616.086 163.076 615.977 162.711C615.831 157.497 615.594 153.505 615.266 150.734C614.974 147.927 614.518 146.451 613.898 146.305C613.279 146.159 612.477 147.38 611.492 149.969C610.544 152.521 609.359 156.531 607.938 162C607.828 162.182 607.664 162.292 607.445 162.328C607.227 162.365 606.99 162.383 606.734 162.383C606.516 162.383 606.279 162.383 606.023 162.383C605.805 162.346 605.586 162.346 605.367 162.383C604.456 157.023 603.69 153.177 603.07 150.844C602.487 148.474 601.885 147.562 601.266 148.109C600.646 148.656 599.953 150.625 599.188 154.016C598.422 157.37 597.438 162.091 596.234 168.18L593.5 168.836ZM625.328 157.188C625.146 157.224 624.872 157.279 624.508 157.352C624.143 157.424 623.76 157.443 623.359 157.406C622.958 157.37 622.612 157.26 622.32 157.078C621.992 156.896 621.828 156.586 621.828 156.148C621.828 155.893 621.883 155.711 621.992 155.602C622.102 155.492 622.284 155.328 622.539 155.109C623.341 154.453 624.016 153.615 624.562 152.594C625.146 151.536 625.674 150.424 626.148 149.258C626.622 148.055 627.115 146.87 627.625 145.703C628.172 144.5 628.792 143.424 629.484 142.477C630.177 141.529 631.034 140.763 632.055 140.18C633.076 139.596 634.333 139.323 635.828 139.359C636.448 139.359 637.141 139.505 637.906 139.797C638.672 140.089 639.383 140.49 640.039 141C640.695 141.474 641.242 142.057 641.68 142.75C642.117 143.443 642.336 144.208 642.336 145.047C642.518 145.339 642.336 145.758 641.789 146.305C641.279 146.852 640.568 147.453 639.656 148.109C638.745 148.729 637.706 149.385 636.539 150.078C635.409 150.734 634.315 151.354 633.258 151.938C632.201 152.521 631.271 153.031 630.469 153.469C629.667 153.906 629.138 154.234 628.883 154.453C628.701 154.818 628.555 155.237 628.445 155.711C628.336 156.185 628.245 156.641 628.172 157.078C628.135 157.479 628.099 157.862 628.062 158.227C628.062 158.555 628.062 158.81 628.062 158.992C628.062 159.685 628.026 160.451 627.953 161.289C627.917 162.128 627.953 162.93 628.062 163.695C628.208 164.424 628.518 165.044 628.992 165.555C629.466 166.029 630.268 166.266 631.398 166.266C632.602 166.266 633.732 165.974 634.789 165.391C635.846 164.771 636.831 164.023 637.742 163.148C638.654 162.273 639.474 161.326 640.203 160.305C640.969 159.284 641.643 158.336 642.227 157.461C642.846 156.549 643.393 155.802 643.867 155.219C644.341 154.635 644.742 154.344 645.07 154.344C645.435 154.344 645.818 154.417 646.219 154.562C646.656 154.672 646.875 154.964 646.875 155.438C646.875 156.094 646.602 156.878 646.055 157.789C645.544 158.701 644.852 159.667 643.977 160.688C643.138 161.708 642.154 162.729 641.023 163.75C639.93 164.734 638.818 165.628 637.688 166.43C636.557 167.195 635.445 167.833 634.352 168.344C633.258 168.818 632.292 169.055 631.453 169.055C629.812 169.055 628.573 168.654 627.734 167.852C626.896 167.049 626.294 166.047 625.93 164.844C625.602 163.641 625.419 162.365 625.383 161.016C625.383 159.63 625.365 158.354 625.328 157.188ZM635.391 142.422C634.771 142.422 634.115 142.732 633.422 143.352C632.729 143.935 632.073 144.664 631.453 145.539C630.87 146.378 630.378 147.253 629.977 148.164C629.612 149.039 629.43 149.768 629.43 150.352C629.977 150.352 630.76 150.151 631.781 149.75C632.839 149.312 633.878 148.784 634.898 148.164C635.919 147.544 636.812 146.888 637.578 146.195C638.344 145.503 638.727 144.846 638.727 144.227C638.727 143.898 638.599 143.625 638.344 143.406C638.089 143.188 637.779 143.005 637.414 142.859C637.086 142.714 636.74 142.604 636.375 142.531C636.01 142.458 635.682 142.422 635.391 142.422ZM653.93 168.18C653.93 168.216 654.312 167.997 655.078 167.523C655.88 167.049 656.81 166.43 657.867 165.664C658.961 164.862 660.073 164.005 661.203 163.094C662.333 162.146 663.263 161.253 663.992 160.414C664.721 159.576 665.104 158.865 665.141 158.281C665.214 157.661 664.721 157.26 663.664 157.078C662.352 156.896 661.24 156.914 660.328 157.133C659.453 157.352 658.651 157.607 657.922 157.898C657.193 158.19 656.5 158.464 655.844 158.719C655.224 158.974 654.531 159.065 653.766 158.992C652.161 158.992 651.049 158.5 650.43 157.516C649.846 156.495 649.555 155.128 649.555 153.414C649.555 151.701 649.938 150.078 650.703 148.547C651.469 146.979 652.453 145.63 653.656 144.5C654.859 143.37 656.245 142.477 657.812 141.82C659.38 141.128 660.984 140.781 662.625 140.781C663.281 140.781 663.846 140.836 664.32 140.945C664.794 141.055 665.031 141.474 665.031 142.203C665.031 142.714 664.812 143.206 664.375 143.68C663.938 144.117 663.445 144.336 662.898 144.336C662.862 144.336 662.771 144.318 662.625 144.281C662.479 144.208 662.333 144.117 662.188 144.008C662.042 143.898 661.896 143.826 661.75 143.789C661.604 143.716 661.513 143.68 661.477 143.68C660.31 143.352 659.18 143.516 658.086 144.172C656.992 144.828 656.008 145.721 655.133 146.852C654.294 147.945 653.62 149.148 653.109 150.461C652.599 151.737 652.344 152.885 652.344 153.906C652.344 154.307 652.417 154.635 652.562 154.891C652.745 155.109 652.964 155.273 653.219 155.383C653.51 155.492 653.82 155.565 654.148 155.602C654.513 155.602 654.878 155.602 655.242 155.602C655.971 155.602 656.701 155.492 657.43 155.273C658.195 155.055 658.924 154.799 659.617 154.508C660.346 154.216 661.076 153.961 661.805 153.742C662.57 153.523 663.354 153.414 664.156 153.414C664.521 153.414 664.922 153.523 665.359 153.742C665.797 153.924 666.198 154.216 666.562 154.617C666.927 154.982 667.237 155.419 667.492 155.93C667.747 156.404 667.893 156.932 667.93 157.516C668.148 158.026 668.076 158.701 667.711 159.539C667.383 160.378 666.872 161.271 666.18 162.219C665.487 163.167 664.648 164.133 663.664 165.117C662.68 166.065 661.695 166.94 660.711 167.742C659.727 168.508 658.76 169.128 657.812 169.602C656.865 170.112 656.062 170.349 655.406 170.312C654.677 170.312 654.24 170.094 654.094 169.656C653.984 169.219 653.93 168.727 653.93 168.18ZM670.281 183.383C670.682 179.555 670.901 175.909 670.938 172.445C671.01 169.018 670.992 165.628 670.883 162.273C670.81 158.919 670.682 155.529 670.5 152.102C670.318 148.674 670.208 145.047 670.172 141.219C670.281 140.708 670.409 140.326 670.555 140.07C670.737 139.779 671.193 139.706 671.922 139.852C672.688 140.034 673.143 140.471 673.289 141.164C673.435 141.82 673.471 142.568 673.398 143.406C673.326 144.245 673.216 145.083 673.07 145.922C672.924 146.76 672.924 147.435 673.07 147.945C674.237 147.107 675.477 146.232 676.789 145.32C678.102 144.409 679.469 143.607 680.891 142.914C682.312 142.185 683.789 141.656 685.32 141.328C686.852 140.964 688.383 140.945 689.914 141.273C691.81 141.711 693.122 142.367 693.852 143.242C694.617 144.081 694.909 145.065 694.727 146.195C694.581 147.289 694.07 148.51 693.195 149.859C692.32 151.172 691.245 152.503 689.969 153.852C688.693 155.201 687.271 156.531 685.703 157.844C684.135 159.156 682.604 160.378 681.109 161.508C679.615 162.602 678.211 163.568 676.898 164.406C675.622 165.245 674.602 165.865 673.836 166.266C673.799 166.703 673.745 167.396 673.672 168.344C673.635 169.255 673.581 170.294 673.508 171.461C673.471 172.628 673.417 173.849 673.344 175.125C673.307 176.401 673.253 177.622 673.18 178.789C673.143 179.956 673.089 180.995 673.016 181.906C672.979 182.818 672.961 183.492 672.961 183.93C672.888 183.966 672.76 184.003 672.578 184.039C672.396 184.076 672.177 184.094 671.922 184.094C671.667 184.13 671.43 184.148 671.211 184.148C670.992 184.185 670.846 184.185 670.773 184.148C670.664 184.148 670.555 184.039 670.445 183.82C670.336 183.638 670.281 183.492 670.281 183.383ZM673.344 153.414C673.234 153.924 673.198 154.562 673.234 155.328C673.307 156.057 673.38 156.841 673.453 157.68C673.562 158.482 673.672 159.266 673.781 160.031C673.891 160.797 673.964 161.453 674 162C675.385 160.943 676.99 159.867 678.812 158.773C680.672 157.68 682.458 156.495 684.172 155.219C685.922 153.943 687.471 152.521 688.82 150.953C690.169 149.385 691.062 147.617 691.5 145.648C691.646 144.883 691.573 144.372 691.281 144.117C691.026 143.826 690.57 143.625 689.914 143.516C688.529 143.224 686.943 143.333 685.156 143.844C683.37 144.318 681.638 145.029 679.961 145.977C678.32 146.924 676.88 148.055 675.641 149.367C674.401 150.68 673.635 152.029 673.344 153.414ZM712.664 167.578C712.482 166.63 712.318 165.5 712.172 164.188C712.062 162.839 711.935 161.49 711.789 160.141C711.643 158.755 711.461 157.461 711.242 156.258C711.06 155.055 710.768 154.07 710.367 153.305C708.508 157.096 706.867 160.086 705.445 162.273C704.023 164.424 702.766 165.974 701.672 166.922C700.615 167.833 699.721 168.271 698.992 168.234C698.263 168.198 697.661 167.87 697.188 167.25C696.714 166.63 696.367 165.846 696.148 164.898C695.966 163.914 695.839 163.003 695.766 162.164C695.766 161.362 695.948 160.232 696.312 158.773C696.677 157.315 697.169 155.729 697.789 154.016C698.409 152.266 699.138 150.497 699.977 148.711C700.852 146.924 701.781 145.302 702.766 143.844C703.75 142.385 704.771 141.182 705.828 140.234C706.885 139.286 707.943 138.812 709 138.812C710.568 138.557 711.716 138.904 712.445 139.852C713.211 140.763 713.357 142.312 712.883 144.5C712.883 146.906 712.974 148.966 713.156 150.68C713.375 152.393 713.594 154.034 713.812 155.602C714.068 157.169 714.286 158.81 714.469 160.523C714.688 162.237 714.797 164.297 714.797 166.703C714.797 167.141 714.742 167.523 714.633 167.852C714.56 168.143 714.122 168.289 713.32 168.289C713.211 168.289 713.065 168.198 712.883 168.016C712.737 167.833 712.664 167.688 712.664 167.578ZM709.711 143.133C709.31 142.549 708.763 142.495 708.07 142.969C707.378 143.443 706.648 144.227 705.883 145.32C705.117 146.414 704.333 147.727 703.531 149.258C702.729 150.789 701.982 152.339 701.289 153.906C700.596 155.474 699.995 156.969 699.484 158.391C698.974 159.776 698.628 160.924 698.445 161.836C698.445 163.148 698.646 163.896 699.047 164.078C699.448 164.224 699.94 164.005 700.523 163.422C701.107 162.839 701.763 162 702.492 160.906C703.258 159.812 703.987 158.646 704.68 157.406C705.409 156.167 706.083 154.964 706.703 153.797C707.359 152.63 707.87 151.682 708.234 150.953C708.562 150.188 708.818 149.477 709 148.82C709.182 148.164 709.328 147.544 709.438 146.961C709.583 146.341 709.656 145.721 709.656 145.102C709.693 144.482 709.711 143.826 709.711 143.133ZM717.641 156.422C717.75 155.109 717.859 153.688 717.969 152.156C718.078 150.589 718.242 149.039 718.461 147.508C718.716 145.977 719.026 144.518 719.391 143.133C719.792 141.747 720.302 140.526 720.922 139.469C721.578 138.375 722.38 137.518 723.328 136.898C724.276 136.242 725.424 135.932 726.773 135.969C727.685 135.969 728.378 136.352 728.852 137.117C729.362 137.883 729.708 138.812 729.891 139.906C730.109 141 730.219 142.13 730.219 143.297C730.255 144.427 730.273 145.357 730.273 146.086C729.544 146.086 728.943 145.776 728.469 145.156C727.995 144.5 727.63 143.753 727.375 142.914C727.12 142.076 726.938 141.255 726.828 140.453L726.664 138.867C726.628 138.867 726.555 138.867 726.445 138.867C726.372 138.831 726.318 138.812 726.281 138.812C725.661 138.812 725.078 139.159 724.531 139.852C724.021 140.544 723.529 141.438 723.055 142.531C722.617 143.589 722.234 144.792 721.906 146.141C721.578 147.453 721.305 148.747 721.086 150.023C720.867 151.299 720.685 152.484 720.539 153.578C720.43 154.635 720.375 155.456 720.375 156.039C720.302 156.987 720.302 158.026 720.375 159.156C720.448 160.286 720.667 161.344 721.031 162.328C721.396 163.312 721.906 164.169 722.562 164.898C723.219 165.591 724.094 166.065 725.188 166.32C726.536 166.32 727.63 166.138 728.469 165.773C729.307 165.409 729.982 164.917 730.492 164.297C731.039 163.677 731.458 162.984 731.75 162.219C732.042 161.453 732.315 160.669 732.57 159.867C732.862 159.029 733.154 158.208 733.445 157.406C733.737 156.604 734.156 155.857 734.703 155.164C735.141 155.055 735.451 155.073 735.633 155.219C735.852 155.328 735.997 155.492 736.07 155.711C736.143 155.93 736.18 156.185 736.18 156.477V157.078C736.18 158.609 735.924 160.086 735.414 161.508C734.904 162.93 734.156 164.206 733.172 165.336C732.188 166.43 731.003 167.323 729.617 168.016C728.268 168.672 726.719 169 724.969 169C723.51 169 722.289 168.544 721.305 167.633C720.357 166.685 719.609 165.555 719.062 164.242C718.552 162.93 718.188 161.562 717.969 160.141C717.75 158.682 717.641 157.443 717.641 156.422ZM741.102 157.188C740.919 157.224 740.646 157.279 740.281 157.352C739.917 157.424 739.534 157.443 739.133 157.406C738.732 157.37 738.385 157.26 738.094 157.078C737.766 156.896 737.602 156.586 737.602 156.148C737.602 155.893 737.656 155.711 737.766 155.602C737.875 155.492 738.057 155.328 738.312 155.109C739.115 154.453 739.789 153.615 740.336 152.594C740.919 151.536 741.448 150.424 741.922 149.258C742.396 148.055 742.888 146.87 743.398 145.703C743.945 144.5 744.565 143.424 745.258 142.477C745.951 141.529 746.807 140.763 747.828 140.18C748.849 139.596 750.107 139.323 751.602 139.359C752.221 139.359 752.914 139.505 753.68 139.797C754.445 140.089 755.156 140.49 755.812 141C756.469 141.474 757.016 142.057 757.453 142.75C757.891 143.443 758.109 144.208 758.109 145.047C758.292 145.339 758.109 145.758 757.562 146.305C757.052 146.852 756.341 147.453 755.43 148.109C754.518 148.729 753.479 149.385 752.312 150.078C751.182 150.734 750.089 151.354 749.031 151.938C747.974 152.521 747.044 153.031 746.242 153.469C745.44 153.906 744.911 154.234 744.656 154.453C744.474 154.818 744.328 155.237 744.219 155.711C744.109 156.185 744.018 156.641 743.945 157.078C743.909 157.479 743.872 157.862 743.836 158.227C743.836 158.555 743.836 158.81 743.836 158.992C743.836 159.685 743.799 160.451 743.727 161.289C743.69 162.128 743.727 162.93 743.836 163.695C743.982 164.424 744.292 165.044 744.766 165.555C745.24 166.029 746.042 166.266 747.172 166.266C748.375 166.266 749.505 165.974 750.562 165.391C751.62 164.771 752.604 164.023 753.516 163.148C754.427 162.273 755.247 161.326 755.977 160.305C756.742 159.284 757.417 158.336 758 157.461C758.62 156.549 759.167 155.802 759.641 155.219C760.115 154.635 760.516 154.344 760.844 154.344C761.208 154.344 761.591 154.417 761.992 154.562C762.43 154.672 762.648 154.964 762.648 155.438C762.648 156.094 762.375 156.878 761.828 157.789C761.318 158.701 760.625 159.667 759.75 160.688C758.911 161.708 757.927 162.729 756.797 163.75C755.703 164.734 754.591 165.628 753.461 166.43C752.331 167.195 751.219 167.833 750.125 168.344C749.031 168.818 748.065 169.055 747.227 169.055C745.586 169.055 744.346 168.654 743.508 167.852C742.669 167.049 742.068 166.047 741.703 164.844C741.375 163.641 741.193 162.365 741.156 161.016C741.156 159.63 741.138 158.354 741.102 157.188ZM751.164 142.422C750.544 142.422 749.888 142.732 749.195 143.352C748.503 143.935 747.846 144.664 747.227 145.539C746.643 146.378 746.151 147.253 745.75 148.164C745.385 149.039 745.203 149.768 745.203 150.352C745.75 150.352 746.534 150.151 747.555 149.75C748.612 149.312 749.651 148.784 750.672 148.164C751.693 147.544 752.586 146.888 753.352 146.195C754.117 145.503 754.5 144.846 754.5 144.227C754.5 143.898 754.372 143.625 754.117 143.406C753.862 143.188 753.552 143.005 753.188 142.859C752.859 142.714 752.513 142.604 752.148 142.531C751.784 142.458 751.456 142.422 751.164 142.422Z" fill="black"/>
</svg>
