<svg width="1200" height="900" viewBox="0 0 1200 900" fill="none" xmlns="http://www.w3.org/2000/svg">
<rect width="1200" height="900" fill="white"/>
<path d="M451.422 142.641V142.203C451.422 141.839 451.549 141.583 451.805 141.438C452.096 141.292 452.424 141.219 452.789 141.219C453.081 141.219 453.354 141.255 453.609 141.328C453.865 141.365 454.065 141.565 454.211 141.93C454.32 142.477 454.43 143.242 454.539 144.227C454.648 145.174 454.776 146.232 454.922 147.398C455.068 148.565 455.214 149.805 455.359 151.117C455.542 152.393 455.706 153.615 455.852 154.781C456.034 155.911 456.216 156.932 456.398 157.844C456.581 158.755 456.781 159.448 457 159.922C456.891 156.422 457 153.396 457.328 150.844C457.656 148.255 458.276 146.159 459.188 144.555C460.135 142.914 461.411 141.784 463.016 141.164C464.656 140.508 466.698 140.362 469.141 140.727C470.271 140.727 470.836 141.328 470.836 142.531C470.836 143.005 470.526 143.333 469.906 143.516C469.286 143.661 468.594 143.771 467.828 143.844C467.062 143.88 466.315 143.935 465.586 144.008C464.857 144.081 464.328 144.263 464 144.555C462.688 145.284 461.758 146.414 461.211 147.945C460.701 149.477 460.336 151.281 460.117 153.359C459.898 155.438 459.734 157.716 459.625 160.195C459.552 162.638 459.315 165.154 458.914 167.742C458.914 168.107 458.768 168.38 458.477 168.562C458.185 168.745 457.82 168.836 457.383 168.836C456.982 168.836 456.581 168.745 456.18 168.562C455.815 168.38 455.523 168.107 455.305 167.742L451.422 142.641ZM473.57 161.508C473.315 159.831 473.188 158.208 473.188 156.641C473.188 155.036 473.279 153.414 473.461 151.773C473.68 150.133 473.971 148.438 474.336 146.688C474.737 144.901 475.193 142.987 475.703 140.945C475.703 140.544 475.812 140.18 476.031 139.852C476.25 139.487 476.542 139.195 476.906 138.977C477.271 138.721 477.654 138.521 478.055 138.375C478.456 138.229 478.839 138.156 479.203 138.156C480.005 138.156 480.734 138.411 481.391 138.922C482.047 139.432 482.63 140.052 483.141 140.781C483.688 141.51 484.143 142.294 484.508 143.133C484.909 143.935 485.237 144.628 485.492 145.211C485.784 146.487 485.984 147.945 486.094 149.586C486.24 151.19 486.258 152.831 486.148 154.508C486.039 156.185 485.784 157.844 485.383 159.484C484.982 161.089 484.417 162.565 483.688 163.914C482.958 165.263 482.01 166.393 480.844 167.305C479.714 168.216 478.365 168.781 476.797 169C475.958 169 475.32 168.727 474.883 168.18C474.445 167.596 474.117 166.904 473.898 166.102C473.716 165.263 473.607 164.424 473.57 163.586C473.57 162.747 473.57 162.055 473.57 161.508ZM476.359 161.344C476.359 161.708 476.359 162.055 476.359 162.383C476.396 162.711 476.432 163.039 476.469 163.367C476.542 163.659 476.615 163.987 476.688 164.352C476.797 164.68 476.924 165.062 477.07 165.5H477.398C478.273 165.5 479.021 165.208 479.641 164.625C480.26 164.042 480.789 163.294 481.227 162.383C481.664 161.435 482.029 160.396 482.32 159.266C482.612 158.099 482.831 156.969 482.977 155.875C483.159 154.745 483.268 153.706 483.305 152.758C483.378 151.773 483.414 150.99 483.414 150.406V149.312C483.414 148.839 483.396 148.31 483.359 147.727C483.323 147.107 483.25 146.487 483.141 145.867C483.068 145.211 482.94 144.628 482.758 144.117C482.576 143.57 482.339 143.133 482.047 142.805C481.755 142.477 481.372 142.312 480.898 142.312C480.096 142.057 479.404 142.112 478.82 142.477C478.273 142.841 477.818 143.461 477.453 144.336C477.125 145.174 476.87 146.214 476.688 147.453C476.505 148.693 476.396 150.06 476.359 151.555C476.323 153.049 476.305 154.635 476.305 156.312C476.341 157.99 476.359 159.667 476.359 161.344ZM488.5 161.508C488.245 159.831 488.117 158.208 488.117 156.641C488.117 155.036 488.208 153.414 488.391 151.773C488.609 150.133 488.901 148.438 489.266 146.688C489.667 144.901 490.122 142.987 490.633 140.945C490.633 140.544 490.742 140.18 490.961 139.852C491.18 139.487 491.471 139.195 491.836 138.977C492.201 138.721 492.583 138.521 492.984 138.375C493.385 138.229 493.768 138.156 494.133 138.156C494.935 138.156 495.664 138.411 496.32 138.922C496.977 139.432 497.56 140.052 498.07 140.781C498.617 141.51 499.073 142.294 499.438 143.133C499.839 143.935 500.167 144.628 500.422 145.211C500.714 146.487 500.914 147.945 501.023 149.586C501.169 151.19 501.188 152.831 501.078 154.508C500.969 156.185 500.714 157.844 500.312 159.484C499.911 161.089 499.346 162.565 498.617 163.914C497.888 165.263 496.94 166.393 495.773 167.305C494.643 168.216 493.294 168.781 491.727 169C490.888 169 490.25 168.727 489.812 168.18C489.375 167.596 489.047 166.904 488.828 166.102C488.646 165.263 488.536 164.424 488.5 163.586C488.5 162.747 488.5 162.055 488.5 161.508ZM491.289 161.344C491.289 161.708 491.289 162.055 491.289 162.383C491.326 162.711 491.362 163.039 491.398 163.367C491.471 163.659 491.544 163.987 491.617 164.352C491.727 164.68 491.854 165.062 492 165.5H492.328C493.203 165.5 493.951 165.208 494.57 164.625C495.19 164.042 495.719 163.294 496.156 162.383C496.594 161.435 496.958 160.396 497.25 159.266C497.542 158.099 497.76 156.969 497.906 155.875C498.089 154.745 498.198 153.706 498.234 152.758C498.307 151.773 498.344 150.99 498.344 150.406V149.312C498.344 148.839 498.326 148.31 498.289 147.727C498.253 147.107 498.18 146.487 498.07 145.867C497.997 145.211 497.87 144.628 497.688 144.117C497.505 143.57 497.268 143.133 496.977 142.805C496.685 142.477 496.302 142.312 495.828 142.312C495.026 142.057 494.333 142.112 493.75 142.477C493.203 142.841 492.747 143.461 492.383 144.336C492.055 145.174 491.799 146.214 491.617 147.453C491.435 148.693 491.326 150.06 491.289 151.555C491.253 153.049 491.234 154.635 491.234 156.312C491.271 157.99 491.289 159.667 491.289 161.344ZM504.961 145.648C504.596 145.831 504.25 146.031 503.922 146.25C503.63 146.432 503.339 146.615 503.047 146.797C502.755 146.943 502.464 147.052 502.172 147.125C501.88 147.198 501.57 147.198 501.242 147.125C501.023 147.125 500.841 146.997 500.695 146.742C500.549 146.451 500.44 146.141 500.367 145.812C500.258 145.448 500.185 145.102 500.148 144.773C500.112 144.409 500.112 144.135 500.148 143.953L505.398 140.945L505.727 126.945C505.799 126.471 506.091 126.289 506.602 126.398C507.112 126.471 507.641 126.581 508.188 126.727C508.26 126.727 508.37 126.763 508.516 126.836C508.698 126.872 508.826 126.909 508.898 126.945C508.826 127.93 508.734 129.005 508.625 130.172C508.552 131.302 508.479 132.451 508.406 133.617C508.333 134.747 508.279 135.859 508.242 136.953C508.242 138.047 508.297 139.031 508.406 139.906L516.609 137.609C516.755 137.573 516.865 137.682 516.938 137.938C517.047 138.156 517.138 138.43 517.211 138.758C517.32 139.086 517.393 139.414 517.43 139.742C517.466 140.07 517.484 140.234 517.484 140.234L508.188 144.172C508.188 144.5 508.206 145.284 508.242 146.523C508.315 147.763 508.388 149.24 508.461 150.953C508.534 152.63 508.607 154.453 508.68 156.422C508.753 158.354 508.826 160.159 508.898 161.836C508.971 163.513 509.026 164.99 509.062 166.266C509.099 167.505 509.117 168.289 509.117 168.617C509.044 169.711 508.716 170.258 508.133 170.258C507.586 170.258 506.984 169.984 506.328 169.438L504.961 145.648ZM546.031 168.289C545.63 163.367 545.266 158.445 544.938 153.523C544.646 148.565 544.318 143.424 543.953 138.102C543.953 137.227 544.427 136.789 545.375 136.789H545.812C545.922 136.789 546.049 136.935 546.195 137.227C546.341 137.518 546.487 138.065 546.633 138.867C546.815 139.633 546.997 140.818 547.18 142.422C547.398 143.99 547.654 146.049 547.945 148.602C548.237 151.154 548.565 154.344 548.93 158.172C549.695 155.693 550.297 153.286 550.734 150.953C551.172 148.62 551.737 146.505 552.43 144.609C553.122 142.677 554.089 140.982 555.328 139.523C556.604 138.065 558.427 136.99 560.797 136.297C562.109 136.516 563.167 137.318 563.969 138.703C564.771 140.052 565.409 141.729 565.883 143.734C566.357 145.74 566.685 147.927 566.867 150.297C567.049 152.63 567.159 154.872 567.195 157.023C567.232 159.174 567.25 161.107 567.25 162.82C567.25 164.497 567.286 165.701 567.359 166.43C567.25 166.721 567.086 166.977 566.867 167.195C566.648 167.414 566.393 167.578 566.102 167.688C565.846 167.76 565.591 167.779 565.336 167.742C565.081 167.669 564.844 167.469 564.625 167.141C564.625 166.74 564.589 165.919 564.516 164.68C564.443 163.44 564.352 162 564.242 160.359C564.133 158.682 564.005 156.914 563.859 155.055C563.75 153.159 563.641 151.391 563.531 149.75C563.458 148.073 563.385 146.615 563.312 145.375C563.24 144.135 563.185 143.315 563.148 142.914C562.383 141.565 561.617 140.799 560.852 140.617C560.122 140.435 559.375 140.672 558.609 141.328C557.88 141.984 557.169 142.987 556.477 144.336C555.784 145.685 555.128 147.216 554.508 148.93C553.888 150.607 553.305 152.375 552.758 154.234C552.211 156.094 551.737 157.898 551.336 159.648C550.935 161.362 550.589 162.93 550.297 164.352C550.042 165.737 549.878 166.812 549.805 167.578C549.695 167.833 549.458 168.089 549.094 168.344C548.766 168.562 548.401 168.727 548 168.836C547.635 168.945 547.253 168.982 546.852 168.945C546.487 168.872 546.214 168.654 546.031 168.289ZM586.336 167.578C586.154 166.63 585.99 165.5 585.844 164.188C585.734 162.839 585.607 161.49 585.461 160.141C585.315 158.755 585.133 157.461 584.914 156.258C584.732 155.055 584.44 154.07 584.039 153.305C582.18 157.096 580.539 160.086 579.117 162.273C577.695 164.424 576.438 165.974 575.344 166.922C574.286 167.833 573.393 168.271 572.664 168.234C571.935 168.198 571.333 167.87 570.859 167.25C570.385 166.63 570.039 165.846 569.82 164.898C569.638 163.914 569.51 163.003 569.438 162.164C569.438 161.362 569.62 160.232 569.984 158.773C570.349 157.315 570.841 155.729 571.461 154.016C572.081 152.266 572.81 150.497 573.648 148.711C574.523 146.924 575.453 145.302 576.438 143.844C577.422 142.385 578.443 141.182 579.5 140.234C580.557 139.286 581.615 138.812 582.672 138.812C584.24 138.557 585.388 138.904 586.117 139.852C586.883 140.763 587.029 142.312 586.555 144.5C586.555 146.906 586.646 148.966 586.828 150.68C587.047 152.393 587.266 154.034 587.484 155.602C587.74 157.169 587.958 158.81 588.141 160.523C588.359 162.237 588.469 164.297 588.469 166.703C588.469 167.141 588.414 167.523 588.305 167.852C588.232 168.143 587.794 168.289 586.992 168.289C586.883 168.289 586.737 168.198 586.555 168.016C586.409 167.833 586.336 167.688 586.336 167.578ZM583.383 143.133C582.982 142.549 582.435 142.495 581.742 142.969C581.049 143.443 580.32 144.227 579.555 145.32C578.789 146.414 578.005 147.727 577.203 149.258C576.401 150.789 575.654 152.339 574.961 153.906C574.268 155.474 573.667 156.969 573.156 158.391C572.646 159.776 572.299 160.924 572.117 161.836C572.117 163.148 572.318 163.896 572.719 164.078C573.12 164.224 573.612 164.005 574.195 163.422C574.779 162.839 575.435 162 576.164 160.906C576.93 159.812 577.659 158.646 578.352 157.406C579.081 156.167 579.755 154.964 580.375 153.797C581.031 152.63 581.542 151.682 581.906 150.953C582.234 150.188 582.49 149.477 582.672 148.82C582.854 148.164 583 147.544 583.109 146.961C583.255 146.341 583.328 145.721 583.328 145.102C583.365 144.482 583.383 143.826 583.383 143.133ZM593.5 168.836C593.391 167.815 593.299 166.43 593.227 164.68C593.154 162.93 593.081 161.034 593.008 158.992C592.935 156.914 592.844 154.763 592.734 152.539C592.661 150.315 592.57 148.201 592.461 146.195C592.352 144.19 592.206 142.367 592.023 140.727C591.878 139.086 591.714 137.773 591.531 136.789C591.531 136.06 591.695 135.641 592.023 135.531C592.352 135.385 592.771 135.312 593.281 135.312C593.354 135.312 593.518 135.312 593.773 135.312C594.029 135.312 594.211 135.331 594.32 135.367C594.648 136.461 594.849 137.883 594.922 139.633C595.031 141.346 595.104 143.224 595.141 145.266C595.214 147.307 595.268 149.422 595.305 151.609C595.378 153.797 595.505 155.875 595.688 157.844C596.198 154.964 596.617 152.576 596.945 150.68C597.31 148.784 597.638 147.271 597.93 146.141C598.258 144.974 598.549 144.117 598.805 143.57C599.096 142.987 599.406 142.604 599.734 142.422C600.099 142.24 600.482 142.167 600.883 142.203C601.32 142.203 601.831 142.203 602.414 142.203C603.07 142.203 603.599 142.458 604 142.969C604.438 143.479 604.766 144.135 604.984 144.938C605.24 145.74 605.422 146.615 605.531 147.562C605.677 148.51 605.805 149.44 605.914 150.352C606.023 151.227 606.133 152.029 606.242 152.758C606.388 153.487 606.607 153.997 606.898 154.289C607.81 151.591 608.594 149.385 609.25 147.672C609.906 145.958 610.471 144.609 610.945 143.625C611.419 142.604 611.839 141.875 612.203 141.438C612.568 141 612.896 140.745 613.188 140.672C613.479 140.562 613.734 140.544 613.953 140.617C614.208 140.69 614.464 140.727 614.719 140.727C615.703 140.727 616.451 141.237 616.961 142.258C617.544 143.898 617.945 145.466 618.164 146.961C618.383 148.419 618.51 149.841 618.547 151.227C618.583 152.576 618.583 153.87 618.547 155.109C618.547 156.349 618.583 157.552 618.656 158.719C618.766 159.885 618.966 161.034 619.258 162.164C619.586 163.294 620.133 164.406 620.898 165.5C620.607 166.083 620.315 166.484 620.023 166.703C619.732 166.885 619.331 166.977 618.82 166.977C618.383 166.977 618 166.831 617.672 166.539C617.344 166.211 617.07 165.828 616.852 165.391C616.633 164.917 616.451 164.443 616.305 163.969C616.195 163.495 616.086 163.076 615.977 162.711C615.831 157.497 615.594 153.505 615.266 150.734C614.974 147.927 614.518 146.451 613.898 146.305C613.279 146.159 612.477 147.38 611.492 149.969C610.544 152.521 609.359 156.531 607.938 162C607.828 162.182 607.664 162.292 607.445 162.328C607.227 162.365 606.99 162.383 606.734 162.383C606.516 162.383 606.279 162.383 606.023 162.383C605.805 162.346 605.586 162.346 605.367 162.383C604.456 157.023 603.69 153.177 603.07 150.844C602.487 148.474 601.885 147.562 601.266 148.109C600.646 148.656 599.953 150.625 599.188 154.016C598.422 157.37 597.438 162.091 596.234 168.18L593.5 168.836ZM625.328 157.188C625.146 157.224 624.872 157.279 624.508 157.352C624.143 157.424 623.76 157.443 623.359 157.406C622.958 157.37 622.612 157.26 622.32 157.078C621.992 156.896 621.828 156.586 621.828 156.148C621.828 155.893 621.883 155.711 621.992 155.602C622.102 155.492 622.284 155.328 622.539 155.109C623.341 154.453 624.016 153.615 624.562 152.594C625.146 151.536 625.674 150.424 626.148 149.258C626.622 148.055 627.115 146.87 627.625 145.703C628.172 144.5 628.792 143.424 629.484 142.477C630.177 141.529 631.034 140.763 632.055 140.18C633.076 139.596 634.333 139.323 635.828 139.359C636.448 139.359 637.141 139.505 637.906 139.797C638.672 140.089 639.383 140.49 640.039 141C640.695 141.474 641.242 142.057 641.68 142.75C642.117 143.443 642.336 144.208 642.336 145.047C642.518 145.339 642.336 145.758 641.789 146.305C641.279 146.852 640.568 147.453 639.656 148.109C638.745 148.729 637.706 149.385 636.539 150.078C635.409 150.734 634.315 151.354 633.258 151.938C632.201 152.521 631.271 153.031 630.469 153.469C629.667 153.906 629.138 154.234 628.883 154.453C628.701 154.818 628.555 155.237 628.445 155.711C628.336 156.185 628.245 156.641 628.172 157.078C628.135 157.479 628.099 157.862 628.062 158.227C628.062 158.555 628.062 158.81 628.062 158.992C628.062 159.685 628.026 160.451 627.953 161.289C627.917 162.128 627.953 162.93 628.062 163.695C628.208 164.424 628.518 165.044 628.992 165.555C629.466 166.029 630.268 166.266 631.398 166.266C632.602 166.266 633.732 165.974 634.789 165.391C635.846 164.771 636.831 164.023 637.742 163.148C638.654 162.273 639.474 161.326 640.203 160.305C640.969 159.284 641.643 158.336 642.227 157.461C642.846 156.549 643.393 155.802 643.867 155.219C644.341 154.635 644.742 154.344 645.07 154.344C645.435 154.344 645.818 154.417 646.219 154.562C646.656 154.672 646.875 154.964 646.875 155.438C646.875 156.094 646.602 156.878 646.055 157.789C645.544 158.701 644.852 159.667 643.977 160.688C643.138 161.708 642.154 162.729 641.023 163.75C639.93 164.734 638.818 165.628 637.688 166.43C636.557 167.195 635.445 167.833 634.352 168.344C633.258 168.818 632.292 169.055 631.453 169.055C629.812 169.055 628.573 168.654 627.734 167.852C626.896 167.049 626.294 166.047 625.93 164.844C625.602 163.641 625.419 162.365 625.383 161.016C625.383 159.63 625.365 158.354 625.328 157.188ZM635.391 142.422C634.771 142.422 634.115 142.732 633.422 143.352C632.729 143.935 632.073 144.664 631.453 145.539C630.87 146.378 630.378 147.253 629.977 148.164C629.612 149.039 629.43 149.768 629.43 150.352C629.977 150.352 630.76 150.151 631.781 149.75C632.839 149.312 633.878 148.784 634.898 148.164C635.919 147.544 636.812 146.888 637.578 146.195C638.344 145.503 638.727 144.846 638.727 144.227C638.727 143.898 638.599 143.625 638.344 143.406C638.089 143.188 637.779 143.005 637.414 142.859C637.086 142.714 636.74 142.604 636.375 142.531C636.01 142.458 635.682 142.422 635.391 142.422ZM653.93 168.18C653.93 168.216 654.312 167.997 655.078 167.523C655.88 167.049 656.81 166.43 657.867 165.664C658.961 164.862 660.073 164.005 661.203 163.094C662.333 162.146 663.263 161.253 663.992 160.414C664.721 159.576 665.104 158.865 665.141 158.281C665.214 157.661 664.721 157.26 663.664 157.078C662.352 156.896 661.24 156.914 660.328 157.133C659.453 157.352 658.651 157.607 657.922 157.898C657.193 158.19 656.5 158.464 655.844 158.719C655.224 158.974 654.531 159.065 653.766 158.992C652.161 158.992 651.049 158.5 650.43 157.516C649.846 156.495 649.555 155.128 649.555 153.414C649.555 151.701 649.938 150.078 650.703 148.547C651.469 146.979 652.453 145.63 653.656 144.5C654.859 143.37 656.245 142.477 657.812 141.82C659.38 141.128 660.984 140.781 662.625 140.781C663.281 140.781 663.846 140.836 664.32 140.945C664.794 141.055 665.031 141.474 665.031 142.203C665.031 142.714 664.812 143.206 664.375 143.68C663.938 144.117 663.445 144.336 662.898 144.336C662.862 144.336 662.771 144.318 662.625 144.281C662.479 144.208 662.333 144.117 662.188 144.008C662.042 143.898 661.896 143.826 661.75 143.789C661.604 143.716 661.513 143.68 661.477 143.68C660.31 143.352 659.18 143.516 658.086 144.172C656.992 144.828 656.008 145.721 655.133 146.852C654.294 147.945 653.62 149.148 653.109 150.461C652.599 151.737 652.344 152.885 652.344 153.906C652.344 154.307 652.417 154.635 652.562 154.891C652.745 155.109 652.964 155.273 653.219 155.383C653.51 155.492 653.82 155.565 654.148 155.602C654.513 155.602 654.878 155.602 655.242 155.602C655.971 155.602 656.701 155.492 657.43 155.273C658.195 155.055 658.924 154.799 659.617 154.508C660.346 154.216 661.076 153.961 661.805 153.742C662.57 153.523 663.354 153.414 664.156 153.414C664.521 153.414 664.922 153.523 665.359 153.742C665.797 153.924 666.198 154.216 666.562 154.617C666.927 154.982 667.237 155.419 667.492 155.93C667.747 156.404 667.893 156.932 667.93 157.516C668.148 158.026 668.076 158.701 667.711 159.539C667.383 160.378 666.872 161.271 666.18 162.219C665.487 163.167 664.648 164.133 663.664 165.117C662.68 166.065 661.695 166.94 660.711 167.742C659.727 168.508 658.76 169.128 657.812 169.602C656.865 170.112 656.062 170.349 655.406 170.312C654.677 170.312 654.24 170.094 654.094 169.656C653.984 169.219 653.93 168.727 653.93 168.18ZM670.281 183.383C670.682 179.555 670.901 175.909 670.938 172.445C671.01 169.018 670.992 165.628 670.883 162.273C670.81 158.919 670.682 155.529 670.5 152.102C670.318 148.674 670.208 145.047 670.172 141.219C670.281 140.708 670.409 140.326 670.555 140.07C670.737 139.779 671.193 139.706 671.922 139.852C672.688 140.034 673.143 140.471 673.289 141.164C673.435 141.82 673.471 142.568 673.398 143.406C673.326 144.245 673.216 145.083 673.07 145.922C672.924 146.76 672.924 147.435 673.07 147.945C674.237 147.107 675.477 146.232 676.789 145.32C678.102 144.409 679.469 143.607 680.891 142.914C682.312 142.185 683.789 141.656 685.32 141.328C686.852 140.964 688.383 140.945 689.914 141.273C691.81 141.711 693.122 142.367 693.852 143.242C694.617 144.081 694.909 145.065 694.727 146.195C694.581 147.289 694.07 148.51 693.195 149.859C692.32 151.172 691.245 152.503 689.969 153.852C688.693 155.201 687.271 156.531 685.703 157.844C684.135 159.156 682.604 160.378 681.109 161.508C679.615 162.602 678.211 163.568 676.898 164.406C675.622 165.245 674.602 165.865 673.836 166.266C673.799 166.703 673.745 167.396 673.672 168.344C673.635 169.255 673.581 170.294 673.508 171.461C673.471 172.628 673.417 173.849 673.344 175.125C673.307 176.401 673.253 177.622 673.18 178.789C673.143 179.956 673.089 180.995 673.016 181.906C672.979 182.818 672.961 183.492 672.961 183.93C672.888 183.966 672.76 184.003 672.578 184.039C672.396 184.076 672.177 184.094 671.922 184.094C671.667 184.13 671.43 184.148 671.211 184.148C670.992 184.185 670.846 184.185 670.773 184.148C670.664 184.148 670.555 184.039 670.445 183.82C670.336 183.638 670.281 183.492 670.281 183.383ZM673.344 153.414C673.234 153.924 673.198 154.562 673.234 155.328C673.307 156.057 673.38 156.841 673.453 157.68C673.562 158.482 673.672 159.266 673.781 160.031C673.891 160.797 673.964 161.453 674 162C675.385 160.943 676.99 159.867 678.812 158.773C680.672 157.68 682.458 156.495 684.172 155.219C685.922 153.943 687.471 152.521 688.82 150.953C690.169 149.385 691.062 147.617 691.5 145.648C691.646 144.883 691.573 144.372 691.281 144.117C691.026 143.826 690.57 143.625 689.914 143.516C688.529 143.224 686.943 143.333 685.156 143.844C683.37 144.318 681.638 145.029 679.961 145.977C678.32 146.924 676.88 148.055 675.641 149.367C674.401 150.68 673.635 152.029 673.344 153.414ZM712.664 167.578C712.482 166.63 712.318 165.5 712.172 164.188C712.062 162.839 711.935 161.49 711.789 160.141C711.643 158.755 711.461 157.461 711.242 156.258C711.06 155.055 710.768 154.07 710.367 153.305C708.508 157.096 706.867 160.086 705.445 162.273C704.023 164.424 702.766 165.974 701.672 166.922C700.615 167.833 699.721 168.271 698.992 168.234C698.263 168.198 697.661 167.87 697.188 167.25C696.714 166.63 696.367 165.846 696.148 164.898C695.966 163.914 695.839 163.003 695.766 162.164C695.766 161.362 695.948 160.232 696.312 158.773C696.677 157.315 697.169 155.729 697.789 154.016C698.409 152.266 699.138 150.497 699.977 148.711C700.852 146.924 701.781 145.302 702.766 143.844C703.75 142.385 704.771 141.182 705.828 140.234C706.885 139.286 707.943 138.812 709 138.812C710.568 138.557 711.716 138.904 712.445 139.852C713.211 140.763 713.357 142.312 712.883 144.5C712.883 146.906 712.974 148.966 713.156 150.68C713.375 152.393 713.594 154.034 713.812 155.602C714.068 157.169 714.286 158.81 714.469 160.523C714.688 162.237 714.797 164.297 714.797 166.703C714.797 167.141 714.742 167.523 714.633 167.852C714.56 168.143 714.122 168.289 713.32 168.289C713.211 168.289 713.065 168.198 712.883 168.016C712.737 167.833 712.664 167.688 712.664 167.578ZM709.711 143.133C709.31 142.549 708.763 142.495 708.07 142.969C707.378 143.443 706.648 144.227 705.883 145.32C705.117 146.414 704.333 147.727 703.531 149.258C702.729 150.789 701.982 152.339 701.289 153.906C700.596 155.474 699.995 156.969 699.484 158.391C698.974 159.776 698.628 160.924 698.445 161.836C698.445 163.148 698.646 163.896 699.047 164.078C699.448 164.224 699.94 164.005 700.523 163.422C701.107 162.839 701.763 162 702.492 160.906C703.258 159.812 703.987 158.646 704.68 157.406C705.409 156.167 706.083 154.964 706.703 153.797C707.359 152.63 707.87 151.682 708.234 150.953C708.562 150.188 708.818 149.477 709 148.82C709.182 148.164 709.328 147.544 709.438 146.961C709.583 146.341 709.656 145.721 709.656 145.102C709.693 144.482 709.711 143.826 709.711 143.133ZM717.641 156.422C717.75 155.109 717.859 153.688 717.969 152.156C718.078 150.589 718.242 149.039 718.461 147.508C718.716 145.977 719.026 144.518 719.391 143.133C719.792 141.747 720.302 140.526 720.922 139.469C721.578 138.375 722.38 137.518 723.328 136.898C724.276 136.242 725.424 135.932 726.773 135.969C727.685 135.969 728.378 136.352 728.852 137.117C729.362 137.883 729.708 138.812 729.891 139.906C730.109 141 730.219 142.13 730.219 143.297C730.255 144.427 730.273 145.357 730.273 146.086C729.544 146.086 728.943 145.776 728.469 145.156C727.995 144.5 727.63 143.753 727.375 142.914C727.12 142.076 726.938 141.255 726.828 140.453L726.664 138.867C726.628 138.867 726.555 138.867 726.445 138.867C726.372 138.831 726.318 138.812 726.281 138.812C725.661 138.812 725.078 139.159 724.531 139.852C724.021 140.544 723.529 141.438 723.055 142.531C722.617 143.589 722.234 144.792 721.906 146.141C721.578 147.453 721.305 148.747 721.086 150.023C720.867 151.299 720.685 152.484 720.539 153.578C720.43 154.635 720.375 155.456 720.375 156.039C720.302 156.987 720.302 158.026 720.375 159.156C720.448 160.286 720.667 161.344 721.031 162.328C721.396 163.312 721.906 164.169 722.562 164.898C723.219 165.591 724.094 166.065 725.188 166.32C726.536 166.32 727.63 166.138 728.469 165.773C729.307 165.409 729.982 164.917 730.492 164.297C731.039 163.677 731.458 162.984 731.75 162.219C732.042 161.453 732.315 160.669 732.57 159.867C732.862 159.029 733.154 158.208 733.445 157.406C733.737 156.604 734.156 155.857 734.703 155.164C735.141 155.055 735.451 155.073 735.633 155.219C735.852 155.328 735.997 155.492 736.07 155.711C736.143 155.93 736.18 156.185 736.18 156.477V157.078C736.18 158.609 735.924 160.086 735.414 161.508C734.904 162.93 734.156 164.206 733.172 165.336C732.188 166.43 731.003 167.323 729.617 168.016C728.268 168.672 726.719 169 724.969 169C723.51 169 722.289 168.544 721.305 167.633C720.357 166.685 719.609 165.555 719.062 164.242C718.552 162.93 718.188 161.562 717.969 160.141C717.75 158.682 717.641 157.443 717.641 156.422ZM741.102 157.188C740.919 157.224 740.646 157.279 740.281 157.352C739.917 157.424 739.534 157.443 739.133 157.406C738.732 157.37 738.385 157.26 738.094 157.078C737.766 156.896 737.602 156.586 737.602 156.148C737.602 155.893 737.656 155.711 737.766 155.602C737.875 155.492 738.057 155.328 738.312 155.109C739.115 154.453 739.789 153.615 740.336 152.594C740.919 151.536 741.448 150.424 741.922 149.258C742.396 148.055 742.888 146.87 743.398 145.703C743.945 144.5 744.565 143.424 745.258 142.477C745.951 141.529 746.807 140.763 747.828 140.18C748.849 139.596 750.107 139.323 751.602 139.359C752.221 139.359 752.914 139.505 753.68 139.797C754.445 140.089 755.156 140.49 755.812 141C756.469 141.474 757.016 142.057 757.453 142.75C757.891 143.443 758.109 144.208 758.109 145.047C758.292 145.339 758.109 145.758 757.562 146.305C757.052 146.852 756.341 147.453 755.43 148.109C754.518 148.729 753.479 149.385 752.312 150.078C751.182 150.734 750.089 151.354 749.031 151.938C747.974 152.521 747.044 153.031 746.242 153.469C745.44 153.906 744.911 154.234 744.656 154.453C744.474 154.818 744.328 155.237 744.219 155.711C744.109 156.185 744.018 156.641 743.945 157.078C743.909 157.479 743.872 157.862 743.836 158.227C743.836 158.555 743.836 158.81 743.836 158.992C743.836 159.685 743.799 160.451 743.727 161.289C743.69 162.128 743.727 162.93 743.836 163.695C743.982 164.424 744.292 165.044 744.766 165.555C745.24 166.029 746.042 166.266 747.172 166.266C748.375 166.266 749.505 165.974 750.562 165.391C751.62 164.771 752.604 164.023 753.516 163.148C754.427 162.273 755.247 161.326 755.977 160.305C756.742 159.284 757.417 158.336 758 157.461C758.62 156.549 759.167 155.802 759.641 155.219C760.115 154.635 760.516 154.344 760.844 154.344C761.208 154.344 761.591 154.417 761.992 154.562C762.43 154.672 762.648 154.964 762.648 155.438C762.648 156.094 762.375 156.878 761.828 157.789C761.318 158.701 760.625 159.667 759.75 160.688C758.911 161.708 757.927 162.729 756.797 163.75C755.703 164.734 754.591 165.628 753.461 166.43C752.331 167.195 751.219 167.833 750.125 168.344C749.031 168.818 748.065 169.055 747.227 169.055C745.586 169.055 744.346 168.654 743.508 167.852C742.669 167.049 742.068 166.047 741.703 164.844C741.375 163.641 741.193 162.365 741.156 161.016C741.156 159.63 741.138 158.354 741.102 157.188ZM751.164 142.422C750.544 142.422 749.888 142.732 749.195 143.352C748.503 143.935 747.846 144.664 747.227 145.539C746.643 146.378 746.151 147.253 745.75 148.164C745.385 149.039 745.203 149.768 745.203 150.352C745.75 150.352 746.534 150.151 747.555 149.75C748.612 149.312 749.651 148.784 750.672 148.164C751.693 147.544 752.586 146.888 753.352 146.195C754.117 145.503 754.5 144.846 754.5 144.227C754.5 143.898 754.372 143.625 754.117 143.406C753.862 143.188 753.552 143.005 753.188 142.859C752.859 142.714 752.513 142.604 752.148 142.531C751.784 142.458 751.456 142.422 751.164 142.422Z" fill="black"/>
<path d="M579 199C558 314 346 289 334 404" stroke="black" stroke-width="3"/>
<path d="M622 199C643 314 855 289 867 404" stroke="black" stroke-width="3"/>
<path d="M278.422 470.422C278.531 469.109 278.641 467.688 278.75 466.156C278.859 464.589 279.023 463.039 279.242 461.508C279.497 459.977 279.807 458.518 280.172 457.133C280.573 455.747 281.083 454.526 281.703 453.469C282.359 452.375 283.161 451.518 284.109 450.898C285.057 450.242 286.206 449.932 287.555 449.969C288.466 449.969 289.159 450.352 289.633 451.117C290.143 451.883 290.49 452.812 290.672 453.906C290.891 455 291 456.13 291 457.297C291.036 458.427 291.055 459.357 291.055 460.086C290.326 460.086 289.724 459.776 289.25 459.156C288.776 458.5 288.411 457.753 288.156 456.914C287.901 456.076 287.719 455.255 287.609 454.453L287.445 452.867C287.409 452.867 287.336 452.867 287.227 452.867C287.154 452.831 287.099 452.812 287.062 452.812C286.443 452.812 285.859 453.159 285.312 453.852C284.802 454.544 284.31 455.438 283.836 456.531C283.398 457.589 283.016 458.792 282.688 460.141C282.359 461.453 282.086 462.747 281.867 464.023C281.648 465.299 281.466 466.484 281.32 467.578C281.211 468.635 281.156 469.456 281.156 470.039C281.083 470.987 281.083 472.026 281.156 473.156C281.229 474.286 281.448 475.344 281.812 476.328C282.177 477.312 282.688 478.169 283.344 478.898C284 479.591 284.875 480.065 285.969 480.32C287.318 480.32 288.411 480.138 289.25 479.773C290.089 479.409 290.763 478.917 291.273 478.297C291.82 477.677 292.24 476.984 292.531 476.219C292.823 475.453 293.096 474.669 293.352 473.867C293.643 473.029 293.935 472.208 294.227 471.406C294.518 470.604 294.938 469.857 295.484 469.164C295.922 469.055 296.232 469.073 296.414 469.219C296.633 469.328 296.779 469.492 296.852 469.711C296.924 469.93 296.961 470.185 296.961 470.477V471.078C296.961 472.609 296.706 474.086 296.195 475.508C295.685 476.93 294.938 478.206 293.953 479.336C292.969 480.43 291.784 481.323 290.398 482.016C289.049 482.672 287.5 483 285.75 483C284.292 483 283.07 482.544 282.086 481.633C281.138 480.685 280.391 479.555 279.844 478.242C279.333 476.93 278.969 475.562 278.75 474.141C278.531 472.682 278.422 471.443 278.422 470.422ZM319.93 459.102C318.581 458.591 317.286 458.792 316.047 459.703C314.807 460.615 313.622 461.909 312.492 463.586C311.362 465.227 310.286 467.104 309.266 469.219C308.245 471.333 307.297 473.339 306.422 475.234C305.547 477.13 304.745 478.753 304.016 480.102C303.323 481.451 302.685 482.198 302.102 482.344C301.664 482.344 301.318 482.271 301.062 482.125C300.844 481.943 300.734 481.523 300.734 480.867V442.422C300.734 442.094 300.862 441.893 301.117 441.82C301.409 441.747 301.719 441.729 302.047 441.766C302.375 441.802 302.685 441.893 302.977 442.039C303.268 442.148 303.451 442.276 303.523 442.422L304.234 473.211C304.635 472.555 305 471.643 305.328 470.477C305.693 469.273 306.112 467.997 306.586 466.648C307.06 465.263 307.607 463.896 308.227 462.547C308.883 461.161 309.685 459.922 310.633 458.828C311.581 457.734 312.729 456.896 314.078 456.312C315.464 455.693 317.086 455.474 318.945 455.656C320.185 455.656 321.188 456.057 321.953 456.859C322.719 457.625 323.12 458.646 323.156 459.922L323.703 481.742C323.703 481.888 323.667 482.107 323.594 482.398C323.557 482.654 323.411 482.872 323.156 483.055C322.938 483.273 322.609 483.401 322.172 483.438C321.771 483.51 321.242 483.419 320.586 483.164L319.93 459.102ZM327.312 481.906C327.312 479.536 327.258 477.039 327.148 474.414C327.076 471.789 326.984 469.146 326.875 466.484C326.802 463.786 326.784 461.143 326.82 458.555C326.857 455.966 327.021 453.542 327.312 451.281C327.385 451.245 327.549 451.227 327.805 451.227C328.096 451.19 328.297 451.172 328.406 451.172C328.917 451.172 329.318 451.263 329.609 451.445C329.938 451.591 330.102 451.938 330.102 452.484C330.102 454.635 330.083 456.987 330.047 459.539C330.047 462.055 330.029 464.625 329.992 467.25C329.992 469.839 329.992 472.409 329.992 474.961C329.992 477.513 330.029 479.828 330.102 481.906C330.138 482.526 330.01 482.927 329.719 483.109C329.464 483.328 329.135 483.438 328.734 483.438C328.297 483.438 327.932 483.328 327.641 483.109C327.349 482.927 327.24 482.526 327.312 481.906ZM326.109 442.75C326.109 442.312 326.255 442.021 326.547 441.875C326.839 441.729 327.167 441.656 327.531 441.656C328.26 441.656 328.716 441.893 328.898 442.367C329.081 442.841 329.172 443.388 329.172 444.008C328.953 444.409 328.68 444.701 328.352 444.883C328.023 445.029 327.677 445.065 327.312 444.992C326.984 444.883 326.693 444.646 326.438 444.281C326.219 443.917 326.109 443.406 326.109 442.75ZM335.023 480.211C335.279 478.534 335.443 476.438 335.516 473.922C335.625 471.406 335.661 468.727 335.625 465.883C335.625 463.039 335.57 460.104 335.461 457.078C335.352 454.052 335.206 451.19 335.023 448.492C334.841 445.758 334.622 443.315 334.367 441.164C334.148 439.013 333.911 437.318 333.656 436.078C333.984 435.859 334.258 435.695 334.477 435.586C334.732 435.44 335.023 435.367 335.352 435.367C335.607 435.367 335.826 435.422 336.008 435.531C336.19 435.604 336.336 435.786 336.445 436.078C337.174 443.224 337.667 450.424 337.922 457.68C338.214 464.935 338.432 472.154 338.578 479.336C338.578 479.664 338.578 480.12 338.578 480.703C338.578 481.25 338.56 481.542 338.523 481.578C338.013 481.833 337.557 481.961 337.156 481.961C336.755 481.924 336.391 481.815 336.062 481.633C335.734 481.414 335.479 481.177 335.297 480.922C335.115 480.667 335.023 480.43 335.023 480.211ZM353.562 472.992C353.198 473.831 352.724 474.797 352.141 475.891C351.594 476.984 350.938 478.023 350.172 479.008C349.443 479.992 348.586 480.831 347.602 481.523C346.617 482.216 345.523 482.562 344.32 482.562C343.773 482.562 343.336 482.508 343.008 482.398C342.716 482.253 342.443 482.052 342.188 481.797C341.969 481.542 341.75 481.232 341.531 480.867C341.349 480.503 341.112 480.102 340.82 479.664C340.711 477.878 340.638 475.964 340.602 473.922C340.602 471.844 340.711 469.784 340.93 467.742C341.148 465.664 341.513 463.714 342.023 461.891C342.57 460.068 343.318 458.518 344.266 457.242C345.25 455.966 346.471 455.055 347.93 454.508C349.388 453.961 351.156 453.924 353.234 454.398C353.344 453.378 353.362 452.01 353.289 450.297C353.216 448.583 353.107 446.779 352.961 444.883C352.815 442.987 352.669 441.164 352.523 439.414C352.378 437.628 352.286 436.169 352.25 435.039C352.25 434.711 352.396 434.474 352.688 434.328C353.016 434.146 353.362 434.036 353.727 434C354.091 433.964 354.438 433.964 354.766 434C355.13 434.036 355.367 434.091 355.477 434.164C355.404 438.648 355.385 443.06 355.422 447.398C355.458 451.701 355.495 456.003 355.531 460.305C355.604 464.57 355.677 468.818 355.75 473.047C355.823 477.276 355.859 481.505 355.859 485.734C355.859 486.135 355.823 486.555 355.75 486.992C355.714 487.466 355.404 487.703 354.82 487.703C354.602 487.703 354.383 487.63 354.164 487.484C353.945 487.375 353.799 487.193 353.727 486.938L353.562 472.992ZM351.211 457.133C350.081 457.06 349.023 457.516 348.039 458.5C347.091 459.448 346.253 460.688 345.523 462.219C344.831 463.75 344.266 465.445 343.828 467.305C343.391 469.128 343.117 470.896 343.008 472.609C342.935 474.286 343.044 475.781 343.336 477.094C343.664 478.406 344.229 479.299 345.031 479.773C345.833 479.773 346.581 479.464 347.273 478.844C347.966 478.188 348.604 477.367 349.188 476.383C349.771 475.398 350.281 474.305 350.719 473.102C351.156 471.862 351.521 470.677 351.812 469.547C352.141 468.417 352.378 467.396 352.523 466.484C352.706 465.536 352.797 464.826 352.797 464.352C352.797 463.987 352.815 463.404 352.852 462.602C352.888 461.799 352.87 460.997 352.797 460.195C352.724 459.393 352.56 458.682 352.305 458.062C352.086 457.443 351.721 457.133 351.211 457.133ZM385.664 482.289C385.299 479.336 385.062 476.474 384.953 473.703C384.844 470.896 384.789 468.143 384.789 465.445C384.826 462.711 384.88 459.977 384.953 457.242C385.026 454.508 385.026 451.664 384.953 448.711C384.953 448.602 385.044 448.456 385.227 448.273C385.409 448.091 385.555 448 385.664 448C385.773 448 386.01 448.091 386.375 448.273C386.74 448.456 386.977 448.602 387.086 448.711C387.086 449.44 387.104 450.625 387.141 452.266C387.214 453.87 387.25 455.693 387.25 457.734C387.286 459.74 387.323 461.872 387.359 464.133C387.432 466.357 387.487 468.49 387.523 470.531C387.596 472.536 387.651 474.341 387.688 475.945C387.724 477.549 387.742 478.734 387.742 479.5C387.742 479.573 387.742 479.828 387.742 480.266C387.742 480.703 387.742 481.013 387.742 481.195C387.742 481.451 387.742 481.688 387.742 481.906C387.779 482.125 387.76 482.326 387.688 482.508C387.615 482.654 387.469 482.781 387.25 482.891C387.068 482.964 386.776 483 386.375 483C386.266 483 386.12 482.909 385.938 482.727C385.755 482.544 385.664 482.398 385.664 482.289Z" fill="black"/>
<path d="M108.422 712.422C108.531 711.109 108.641 709.688 108.75 708.156C108.859 706.589 109.023 705.039 109.242 703.508C109.497 701.977 109.807 700.518 110.172 699.133C110.573 697.747 111.083 696.526 111.703 695.469C112.359 694.375 113.161 693.518 114.109 692.898C115.057 692.242 116.206 691.932 117.555 691.969C118.466 691.969 119.159 692.352 119.633 693.117C120.143 693.883 120.49 694.812 120.672 695.906C120.891 697 121 698.13 121 699.297C121.036 700.427 121.055 701.357 121.055 702.086C120.326 702.086 119.724 701.776 119.25 701.156C118.776 700.5 118.411 699.753 118.156 698.914C117.901 698.076 117.719 697.255 117.609 696.453L117.445 694.867C117.409 694.867 117.336 694.867 117.227 694.867C117.154 694.831 117.099 694.812 117.062 694.812C116.443 694.812 115.859 695.159 115.312 695.852C114.802 696.544 114.31 697.438 113.836 698.531C113.398 699.589 113.016 700.792 112.688 702.141C112.359 703.453 112.086 704.747 111.867 706.023C111.648 707.299 111.466 708.484 111.32 709.578C111.211 710.635 111.156 711.456 111.156 712.039C111.083 712.987 111.083 714.026 111.156 715.156C111.229 716.286 111.448 717.344 111.812 718.328C112.177 719.312 112.688 720.169 113.344 720.898C114 721.591 114.875 722.065 115.969 722.32C117.318 722.32 118.411 722.138 119.25 721.773C120.089 721.409 120.763 720.917 121.273 720.297C121.82 719.677 122.24 718.984 122.531 718.219C122.823 717.453 123.096 716.669 123.352 715.867C123.643 715.029 123.935 714.208 124.227 713.406C124.518 712.604 124.938 711.857 125.484 711.164C125.922 711.055 126.232 711.073 126.414 711.219C126.633 711.328 126.779 711.492 126.852 711.711C126.924 711.93 126.961 712.185 126.961 712.477V713.078C126.961 714.609 126.706 716.086 126.195 717.508C125.685 718.93 124.938 720.206 123.953 721.336C122.969 722.43 121.784 723.323 120.398 724.016C119.049 724.672 117.5 725 115.75 725C114.292 725 113.07 724.544 112.086 723.633C111.138 722.685 110.391 721.555 109.844 720.242C109.333 718.93 108.969 717.562 108.75 716.141C108.531 714.682 108.422 713.443 108.422 712.422ZM149.93 701.102C148.581 700.591 147.286 700.792 146.047 701.703C144.807 702.615 143.622 703.909 142.492 705.586C141.362 707.227 140.286 709.104 139.266 711.219C138.245 713.333 137.297 715.339 136.422 717.234C135.547 719.13 134.745 720.753 134.016 722.102C133.323 723.451 132.685 724.198 132.102 724.344C131.664 724.344 131.318 724.271 131.062 724.125C130.844 723.943 130.734 723.523 130.734 722.867V684.422C130.734 684.094 130.862 683.893 131.117 683.82C131.409 683.747 131.719 683.729 132.047 683.766C132.375 683.802 132.685 683.893 132.977 684.039C133.268 684.148 133.451 684.276 133.523 684.422L134.234 715.211C134.635 714.555 135 713.643 135.328 712.477C135.693 711.273 136.112 709.997 136.586 708.648C137.06 707.263 137.607 705.896 138.227 704.547C138.883 703.161 139.685 701.922 140.633 700.828C141.581 699.734 142.729 698.896 144.078 698.312C145.464 697.693 147.086 697.474 148.945 697.656C150.185 697.656 151.188 698.057 151.953 698.859C152.719 699.625 153.12 700.646 153.156 701.922L153.703 723.742C153.703 723.888 153.667 724.107 153.594 724.398C153.557 724.654 153.411 724.872 153.156 725.055C152.938 725.273 152.609 725.401 152.172 725.438C151.771 725.51 151.242 725.419 150.586 725.164L149.93 701.102ZM157.312 723.906C157.312 721.536 157.258 719.039 157.148 716.414C157.076 713.789 156.984 711.146 156.875 708.484C156.802 705.786 156.784 703.143 156.82 700.555C156.857 697.966 157.021 695.542 157.312 693.281C157.385 693.245 157.549 693.227 157.805 693.227C158.096 693.19 158.297 693.172 158.406 693.172C158.917 693.172 159.318 693.263 159.609 693.445C159.938 693.591 160.102 693.938 160.102 694.484C160.102 696.635 160.083 698.987 160.047 701.539C160.047 704.055 160.029 706.625 159.992 709.25C159.992 711.839 159.992 714.409 159.992 716.961C159.992 719.513 160.029 721.828 160.102 723.906C160.138 724.526 160.01 724.927 159.719 725.109C159.464 725.328 159.135 725.438 158.734 725.438C158.297 725.438 157.932 725.328 157.641 725.109C157.349 724.927 157.24 724.526 157.312 723.906ZM156.109 684.75C156.109 684.312 156.255 684.021 156.547 683.875C156.839 683.729 157.167 683.656 157.531 683.656C158.26 683.656 158.716 683.893 158.898 684.367C159.081 684.841 159.172 685.388 159.172 686.008C158.953 686.409 158.68 686.701 158.352 686.883C158.023 687.029 157.677 687.065 157.312 686.992C156.984 686.883 156.693 686.646 156.438 686.281C156.219 685.917 156.109 685.406 156.109 684.75ZM165.023 722.211C165.279 720.534 165.443 718.438 165.516 715.922C165.625 713.406 165.661 710.727 165.625 707.883C165.625 705.039 165.57 702.104 165.461 699.078C165.352 696.052 165.206 693.19 165.023 690.492C164.841 687.758 164.622 685.315 164.367 683.164C164.148 681.013 163.911 679.318 163.656 678.078C163.984 677.859 164.258 677.695 164.477 677.586C164.732 677.44 165.023 677.367 165.352 677.367C165.607 677.367 165.826 677.422 166.008 677.531C166.19 677.604 166.336 677.786 166.445 678.078C167.174 685.224 167.667 692.424 167.922 699.68C168.214 706.935 168.432 714.154 168.578 721.336C168.578 721.664 168.578 722.12 168.578 722.703C168.578 723.25 168.56 723.542 168.523 723.578C168.013 723.833 167.557 723.961 167.156 723.961C166.755 723.924 166.391 723.815 166.062 723.633C165.734 723.414 165.479 723.177 165.297 722.922C165.115 722.667 165.023 722.43 165.023 722.211ZM183.562 714.992C183.198 715.831 182.724 716.797 182.141 717.891C181.594 718.984 180.938 720.023 180.172 721.008C179.443 721.992 178.586 722.831 177.602 723.523C176.617 724.216 175.523 724.562 174.32 724.562C173.773 724.562 173.336 724.508 173.008 724.398C172.716 724.253 172.443 724.052 172.188 723.797C171.969 723.542 171.75 723.232 171.531 722.867C171.349 722.503 171.112 722.102 170.82 721.664C170.711 719.878 170.638 717.964 170.602 715.922C170.602 713.844 170.711 711.784 170.93 709.742C171.148 707.664 171.513 705.714 172.023 703.891C172.57 702.068 173.318 700.518 174.266 699.242C175.25 697.966 176.471 697.055 177.93 696.508C179.388 695.961 181.156 695.924 183.234 696.398C183.344 695.378 183.362 694.01 183.289 692.297C183.216 690.583 183.107 688.779 182.961 686.883C182.815 684.987 182.669 683.164 182.523 681.414C182.378 679.628 182.286 678.169 182.25 677.039C182.25 676.711 182.396 676.474 182.688 676.328C183.016 676.146 183.362 676.036 183.727 676C184.091 675.964 184.438 675.964 184.766 676C185.13 676.036 185.367 676.091 185.477 676.164C185.404 680.648 185.385 685.06 185.422 689.398C185.458 693.701 185.495 698.003 185.531 702.305C185.604 706.57 185.677 710.818 185.75 715.047C185.823 719.276 185.859 723.505 185.859 727.734C185.859 728.135 185.823 728.555 185.75 728.992C185.714 729.466 185.404 729.703 184.82 729.703C184.602 729.703 184.383 729.63 184.164 729.484C183.945 729.375 183.799 729.193 183.727 728.938L183.562 714.992ZM181.211 699.133C180.081 699.06 179.023 699.516 178.039 700.5C177.091 701.448 176.253 702.688 175.523 704.219C174.831 705.75 174.266 707.445 173.828 709.305C173.391 711.128 173.117 712.896 173.008 714.609C172.935 716.286 173.044 717.781 173.336 719.094C173.664 720.406 174.229 721.299 175.031 721.773C175.833 721.773 176.581 721.464 177.273 720.844C177.966 720.188 178.604 719.367 179.188 718.383C179.771 717.398 180.281 716.305 180.719 715.102C181.156 713.862 181.521 712.677 181.812 711.547C182.141 710.417 182.378 709.396 182.523 708.484C182.706 707.536 182.797 706.826 182.797 706.352C182.797 705.987 182.815 705.404 182.852 704.602C182.888 703.799 182.87 702.997 182.797 702.195C182.724 701.393 182.56 700.682 182.305 700.062C182.086 699.443 181.721 699.133 181.211 699.133ZM222.391 723.25C222.391 722.667 222.701 722.065 223.32 721.445C223.977 720.826 224.76 720.169 225.672 719.477C226.62 718.747 227.659 717.982 228.789 717.18C229.919 716.341 230.94 715.448 231.852 714.5C232.799 713.516 233.583 712.477 234.203 711.383C234.859 710.253 235.188 709.049 235.188 707.773C235.188 706.862 234.987 706.115 234.586 705.531C234.221 704.911 233.747 704.438 233.164 704.109C232.581 703.781 231.906 703.562 231.141 703.453C230.411 703.307 229.682 703.234 228.953 703.234C228.151 703.161 227.385 703.289 226.656 703.617C225.964 703.909 225.253 704.273 224.523 704.711C223.831 705.112 223.138 705.549 222.445 706.023C221.789 706.461 221.133 706.826 220.477 707.117C219.857 707.372 219.237 707.464 218.617 707.391C218.034 707.318 217.432 706.99 216.812 706.406V706.242C216.812 706.133 216.831 706.078 216.867 706.078L226.602 694.922C227.659 693.464 228.188 692.333 228.188 691.531C228.224 690.729 227.932 690.201 227.312 689.945C226.729 689.654 225.909 689.599 224.852 689.781C223.794 689.964 222.701 690.31 221.57 690.82C220.477 691.294 219.419 691.896 218.398 692.625C217.378 693.354 216.63 694.12 216.156 694.922C216.12 694.922 216.047 694.94 215.938 694.977C215.865 694.977 215.81 694.977 215.773 694.977C215.336 694.977 214.917 694.794 214.516 694.43C214.151 694.029 213.969 693.609 213.969 693.172C213.969 692.661 214.26 692.151 214.844 691.641C215.427 691.094 216.174 690.583 217.086 690.109C217.997 689.599 219.018 689.125 220.148 688.688C221.279 688.25 222.391 687.867 223.484 687.539C224.578 687.211 225.599 686.956 226.547 686.773C227.495 686.555 228.224 686.445 228.734 686.445C229.682 686.919 230.302 687.539 230.594 688.305C230.885 689.034 230.94 689.872 230.758 690.82C230.612 691.732 230.284 692.698 229.773 693.719C229.299 694.74 228.734 695.742 228.078 696.727C227.458 697.711 226.82 698.659 226.164 699.57C225.508 700.482 224.961 701.266 224.523 701.922C225.289 701.448 226.109 701.211 226.984 701.211C227.896 701.174 228.771 701.156 229.609 701.156C230.557 701.156 231.523 701.284 232.508 701.539C233.492 701.794 234.385 702.195 235.188 702.742C235.99 703.253 236.646 703.909 237.156 704.711C237.667 705.477 237.922 706.406 237.922 707.5C237.922 709.323 237.43 711.073 236.445 712.75C235.461 714.427 234.258 716.013 232.836 717.508C231.414 719.003 229.883 720.388 228.242 721.664C226.602 722.904 225.125 724.016 223.812 725C223.484 724.818 223.156 724.581 222.828 724.289C222.536 723.997 222.391 723.651 222.391 723.25Z" fill="black"/>
<path d="M431.422 711.422C431.531 710.109 431.641 708.688 431.75 707.156C431.859 705.589 432.023 704.039 432.242 702.508C432.497 700.977 432.807 699.518 433.172 698.133C433.573 696.747 434.083 695.526 434.703 694.469C435.359 693.375 436.161 692.518 437.109 691.898C438.057 691.242 439.206 690.932 440.555 690.969C441.466 690.969 442.159 691.352 442.633 692.117C443.143 692.883 443.49 693.812 443.672 694.906C443.891 696 444 697.13 444 698.297C444.036 699.427 444.055 700.357 444.055 701.086C443.326 701.086 442.724 700.776 442.25 700.156C441.776 699.5 441.411 698.753 441.156 697.914C440.901 697.076 440.719 696.255 440.609 695.453L440.445 693.867C440.409 693.867 440.336 693.867 440.227 693.867C440.154 693.831 440.099 693.812 440.062 693.812C439.443 693.812 438.859 694.159 438.312 694.852C437.802 695.544 437.31 696.438 436.836 697.531C436.398 698.589 436.016 699.792 435.688 701.141C435.359 702.453 435.086 703.747 434.867 705.023C434.648 706.299 434.466 707.484 434.32 708.578C434.211 709.635 434.156 710.456 434.156 711.039C434.083 711.987 434.083 713.026 434.156 714.156C434.229 715.286 434.448 716.344 434.812 717.328C435.177 718.312 435.688 719.169 436.344 719.898C437 720.591 437.875 721.065 438.969 721.32C440.318 721.32 441.411 721.138 442.25 720.773C443.089 720.409 443.763 719.917 444.273 719.297C444.82 718.677 445.24 717.984 445.531 717.219C445.823 716.453 446.096 715.669 446.352 714.867C446.643 714.029 446.935 713.208 447.227 712.406C447.518 711.604 447.938 710.857 448.484 710.164C448.922 710.055 449.232 710.073 449.414 710.219C449.633 710.328 449.779 710.492 449.852 710.711C449.924 710.93 449.961 711.185 449.961 711.477V712.078C449.961 713.609 449.706 715.086 449.195 716.508C448.685 717.93 447.938 719.206 446.953 720.336C445.969 721.43 444.784 722.323 443.398 723.016C442.049 723.672 440.5 724 438.75 724C437.292 724 436.07 723.544 435.086 722.633C434.138 721.685 433.391 720.555 432.844 719.242C432.333 717.93 431.969 716.562 431.75 715.141C431.531 713.682 431.422 712.443 431.422 711.422ZM472.93 700.102C471.581 699.591 470.286 699.792 469.047 700.703C467.807 701.615 466.622 702.909 465.492 704.586C464.362 706.227 463.286 708.104 462.266 710.219C461.245 712.333 460.297 714.339 459.422 716.234C458.547 718.13 457.745 719.753 457.016 721.102C456.323 722.451 455.685 723.198 455.102 723.344C454.664 723.344 454.318 723.271 454.062 723.125C453.844 722.943 453.734 722.523 453.734 721.867V683.422C453.734 683.094 453.862 682.893 454.117 682.82C454.409 682.747 454.719 682.729 455.047 682.766C455.375 682.802 455.685 682.893 455.977 683.039C456.268 683.148 456.451 683.276 456.523 683.422L457.234 714.211C457.635 713.555 458 712.643 458.328 711.477C458.693 710.273 459.112 708.997 459.586 707.648C460.06 706.263 460.607 704.896 461.227 703.547C461.883 702.161 462.685 700.922 463.633 699.828C464.581 698.734 465.729 697.896 467.078 697.312C468.464 696.693 470.086 696.474 471.945 696.656C473.185 696.656 474.188 697.057 474.953 697.859C475.719 698.625 476.12 699.646 476.156 700.922L476.703 722.742C476.703 722.888 476.667 723.107 476.594 723.398C476.557 723.654 476.411 723.872 476.156 724.055C475.938 724.273 475.609 724.401 475.172 724.438C474.771 724.51 474.242 724.419 473.586 724.164L472.93 700.102ZM480.312 722.906C480.312 720.536 480.258 718.039 480.148 715.414C480.076 712.789 479.984 710.146 479.875 707.484C479.802 704.786 479.784 702.143 479.82 699.555C479.857 696.966 480.021 694.542 480.312 692.281C480.385 692.245 480.549 692.227 480.805 692.227C481.096 692.19 481.297 692.172 481.406 692.172C481.917 692.172 482.318 692.263 482.609 692.445C482.938 692.591 483.102 692.938 483.102 693.484C483.102 695.635 483.083 697.987 483.047 700.539C483.047 703.055 483.029 705.625 482.992 708.25C482.992 710.839 482.992 713.409 482.992 715.961C482.992 718.513 483.029 720.828 483.102 722.906C483.138 723.526 483.01 723.927 482.719 724.109C482.464 724.328 482.135 724.438 481.734 724.438C481.297 724.438 480.932 724.328 480.641 724.109C480.349 723.927 480.24 723.526 480.312 722.906ZM479.109 683.75C479.109 683.312 479.255 683.021 479.547 682.875C479.839 682.729 480.167 682.656 480.531 682.656C481.26 682.656 481.716 682.893 481.898 683.367C482.081 683.841 482.172 684.388 482.172 685.008C481.953 685.409 481.68 685.701 481.352 685.883C481.023 686.029 480.677 686.065 480.312 685.992C479.984 685.883 479.693 685.646 479.438 685.281C479.219 684.917 479.109 684.406 479.109 683.75ZM488.023 721.211C488.279 719.534 488.443 717.438 488.516 714.922C488.625 712.406 488.661 709.727 488.625 706.883C488.625 704.039 488.57 701.104 488.461 698.078C488.352 695.052 488.206 692.19 488.023 689.492C487.841 686.758 487.622 684.315 487.367 682.164C487.148 680.013 486.911 678.318 486.656 677.078C486.984 676.859 487.258 676.695 487.477 676.586C487.732 676.44 488.023 676.367 488.352 676.367C488.607 676.367 488.826 676.422 489.008 676.531C489.19 676.604 489.336 676.786 489.445 677.078C490.174 684.224 490.667 691.424 490.922 698.68C491.214 705.935 491.432 713.154 491.578 720.336C491.578 720.664 491.578 721.12 491.578 721.703C491.578 722.25 491.56 722.542 491.523 722.578C491.013 722.833 490.557 722.961 490.156 722.961C489.755 722.924 489.391 722.815 489.062 722.633C488.734 722.414 488.479 722.177 488.297 721.922C488.115 721.667 488.023 721.43 488.023 721.211ZM506.562 713.992C506.198 714.831 505.724 715.797 505.141 716.891C504.594 717.984 503.938 719.023 503.172 720.008C502.443 720.992 501.586 721.831 500.602 722.523C499.617 723.216 498.523 723.562 497.32 723.562C496.773 723.562 496.336 723.508 496.008 723.398C495.716 723.253 495.443 723.052 495.188 722.797C494.969 722.542 494.75 722.232 494.531 721.867C494.349 721.503 494.112 721.102 493.82 720.664C493.711 718.878 493.638 716.964 493.602 714.922C493.602 712.844 493.711 710.784 493.93 708.742C494.148 706.664 494.513 704.714 495.023 702.891C495.57 701.068 496.318 699.518 497.266 698.242C498.25 696.966 499.471 696.055 500.93 695.508C502.388 694.961 504.156 694.924 506.234 695.398C506.344 694.378 506.362 693.01 506.289 691.297C506.216 689.583 506.107 687.779 505.961 685.883C505.815 683.987 505.669 682.164 505.523 680.414C505.378 678.628 505.286 677.169 505.25 676.039C505.25 675.711 505.396 675.474 505.688 675.328C506.016 675.146 506.362 675.036 506.727 675C507.091 674.964 507.438 674.964 507.766 675C508.13 675.036 508.367 675.091 508.477 675.164C508.404 679.648 508.385 684.06 508.422 688.398C508.458 692.701 508.495 697.003 508.531 701.305C508.604 705.57 508.677 709.818 508.75 714.047C508.823 718.276 508.859 722.505 508.859 726.734C508.859 727.135 508.823 727.555 508.75 727.992C508.714 728.466 508.404 728.703 507.82 728.703C507.602 728.703 507.383 728.63 507.164 728.484C506.945 728.375 506.799 728.193 506.727 727.938L506.562 713.992ZM504.211 698.133C503.081 698.06 502.023 698.516 501.039 699.5C500.091 700.448 499.253 701.688 498.523 703.219C497.831 704.75 497.266 706.445 496.828 708.305C496.391 710.128 496.117 711.896 496.008 713.609C495.935 715.286 496.044 716.781 496.336 718.094C496.664 719.406 497.229 720.299 498.031 720.773C498.833 720.773 499.581 720.464 500.273 719.844C500.966 719.188 501.604 718.367 502.188 717.383C502.771 716.398 503.281 715.305 503.719 714.102C504.156 712.862 504.521 711.677 504.812 710.547C505.141 709.417 505.378 708.396 505.523 707.484C505.706 706.536 505.797 705.826 505.797 705.352C505.797 704.987 505.815 704.404 505.852 703.602C505.888 702.799 505.87 701.997 505.797 701.195C505.724 700.393 505.56 699.682 505.305 699.062C505.086 698.443 504.721 698.133 504.211 698.133ZM536.477 709.289C536.477 709.216 536.495 708.979 536.531 708.578C536.568 708.141 536.641 707.703 536.75 707.266C536.859 706.792 537.042 706.391 537.297 706.062C537.589 705.734 537.971 705.643 538.445 705.789C540.049 703.747 541.471 701.742 542.711 699.773C543.987 697.768 545.19 695.781 546.32 693.812C547.451 691.807 548.544 689.784 549.602 687.742C550.695 685.664 551.862 683.531 553.102 681.344C553.284 680.943 553.484 680.706 553.703 680.633C553.922 680.56 554.195 680.523 554.523 680.523C554.742 680.523 555.034 680.56 555.398 680.633C555.763 680.706 555.945 680.943 555.945 681.344V702.289C557.185 702.289 558.388 702.143 559.555 701.852C560.721 701.56 561.924 701.414 563.164 701.414C563.492 702.471 563.456 703.182 563.055 703.547C562.654 703.911 562.052 704.148 561.25 704.258C560.484 704.367 559.609 704.458 558.625 704.531C557.641 704.568 556.747 704.75 555.945 705.078V722.578C555.945 722.76 555.818 722.961 555.562 723.18C555.344 723.362 555.07 723.526 554.742 723.672C554.451 723.781 554.141 723.891 553.812 724C553.521 724.073 553.284 724.109 553.102 724.109V705.57L536.477 709.289ZM553.102 689C552.299 690.276 551.388 691.607 550.367 692.992C549.383 694.378 548.398 695.781 547.414 697.203C546.466 698.625 545.555 700.065 544.68 701.523C543.841 702.945 543.167 704.367 542.656 705.789H543.312C544.042 705.607 544.953 705.37 546.047 705.078C547.177 704.75 548.271 704.44 549.328 704.148C550.385 703.82 551.279 703.547 552.008 703.328L553.102 703V689Z" fill="black"/>
<path d="M811.422 711.422C811.531 710.109 811.641 708.688 811.75 707.156C811.859 705.589 812.023 704.039 812.242 702.508C812.497 700.977 812.807 699.518 813.172 698.133C813.573 696.747 814.083 695.526 814.703 694.469C815.359 693.375 816.161 692.518 817.109 691.898C818.057 691.242 819.206 690.932 820.555 690.969C821.466 690.969 822.159 691.352 822.633 692.117C823.143 692.883 823.49 693.812 823.672 694.906C823.891 696 824 697.13 824 698.297C824.036 699.427 824.055 700.357 824.055 701.086C823.326 701.086 822.724 700.776 822.25 700.156C821.776 699.5 821.411 698.753 821.156 697.914C820.901 697.076 820.719 696.255 820.609 695.453L820.445 693.867C820.409 693.867 820.336 693.867 820.227 693.867C820.154 693.831 820.099 693.812 820.062 693.812C819.443 693.812 818.859 694.159 818.312 694.852C817.802 695.544 817.31 696.438 816.836 697.531C816.398 698.589 816.016 699.792 815.688 701.141C815.359 702.453 815.086 703.747 814.867 705.023C814.648 706.299 814.466 707.484 814.32 708.578C814.211 709.635 814.156 710.456 814.156 711.039C814.083 711.987 814.083 713.026 814.156 714.156C814.229 715.286 814.448 716.344 814.812 717.328C815.177 718.312 815.688 719.169 816.344 719.898C817 720.591 817.875 721.065 818.969 721.32C820.318 721.32 821.411 721.138 822.25 720.773C823.089 720.409 823.763 719.917 824.273 719.297C824.82 718.677 825.24 717.984 825.531 717.219C825.823 716.453 826.096 715.669 826.352 714.867C826.643 714.029 826.935 713.208 827.227 712.406C827.518 711.604 827.938 710.857 828.484 710.164C828.922 710.055 829.232 710.073 829.414 710.219C829.633 710.328 829.779 710.492 829.852 710.711C829.924 710.93 829.961 711.185 829.961 711.477V712.078C829.961 713.609 829.706 715.086 829.195 716.508C828.685 717.93 827.938 719.206 826.953 720.336C825.969 721.43 824.784 722.323 823.398 723.016C822.049 723.672 820.5 724 818.75 724C817.292 724 816.07 723.544 815.086 722.633C814.138 721.685 813.391 720.555 812.844 719.242C812.333 717.93 811.969 716.562 811.75 715.141C811.531 713.682 811.422 712.443 811.422 711.422ZM852.93 700.102C851.581 699.591 850.286 699.792 849.047 700.703C847.807 701.615 846.622 702.909 845.492 704.586C844.362 706.227 843.286 708.104 842.266 710.219C841.245 712.333 840.297 714.339 839.422 716.234C838.547 718.13 837.745 719.753 837.016 721.102C836.323 722.451 835.685 723.198 835.102 723.344C834.664 723.344 834.318 723.271 834.062 723.125C833.844 722.943 833.734 722.523 833.734 721.867V683.422C833.734 683.094 833.862 682.893 834.117 682.82C834.409 682.747 834.719 682.729 835.047 682.766C835.375 682.802 835.685 682.893 835.977 683.039C836.268 683.148 836.451 683.276 836.523 683.422L837.234 714.211C837.635 713.555 838 712.643 838.328 711.477C838.693 710.273 839.112 708.997 839.586 707.648C840.06 706.263 840.607 704.896 841.227 703.547C841.883 702.161 842.685 700.922 843.633 699.828C844.581 698.734 845.729 697.896 847.078 697.312C848.464 696.693 850.086 696.474 851.945 696.656C853.185 696.656 854.188 697.057 854.953 697.859C855.719 698.625 856.12 699.646 856.156 700.922L856.703 722.742C856.703 722.888 856.667 723.107 856.594 723.398C856.557 723.654 856.411 723.872 856.156 724.055C855.938 724.273 855.609 724.401 855.172 724.438C854.771 724.51 854.242 724.419 853.586 724.164L852.93 700.102ZM860.312 722.906C860.312 720.536 860.258 718.039 860.148 715.414C860.076 712.789 859.984 710.146 859.875 707.484C859.802 704.786 859.784 702.143 859.82 699.555C859.857 696.966 860.021 694.542 860.312 692.281C860.385 692.245 860.549 692.227 860.805 692.227C861.096 692.19 861.297 692.172 861.406 692.172C861.917 692.172 862.318 692.263 862.609 692.445C862.938 692.591 863.102 692.938 863.102 693.484C863.102 695.635 863.083 697.987 863.047 700.539C863.047 703.055 863.029 705.625 862.992 708.25C862.992 710.839 862.992 713.409 862.992 715.961C862.992 718.513 863.029 720.828 863.102 722.906C863.138 723.526 863.01 723.927 862.719 724.109C862.464 724.328 862.135 724.438 861.734 724.438C861.297 724.438 860.932 724.328 860.641 724.109C860.349 723.927 860.24 723.526 860.312 722.906ZM859.109 683.75C859.109 683.312 859.255 683.021 859.547 682.875C859.839 682.729 860.167 682.656 860.531 682.656C861.26 682.656 861.716 682.893 861.898 683.367C862.081 683.841 862.172 684.388 862.172 685.008C861.953 685.409 861.68 685.701 861.352 685.883C861.023 686.029 860.677 686.065 860.312 685.992C859.984 685.883 859.693 685.646 859.438 685.281C859.219 684.917 859.109 684.406 859.109 683.75ZM868.023 721.211C868.279 719.534 868.443 717.438 868.516 714.922C868.625 712.406 868.661 709.727 868.625 706.883C868.625 704.039 868.57 701.104 868.461 698.078C868.352 695.052 868.206 692.19 868.023 689.492C867.841 686.758 867.622 684.315 867.367 682.164C867.148 680.013 866.911 678.318 866.656 677.078C866.984 676.859 867.258 676.695 867.477 676.586C867.732 676.44 868.023 676.367 868.352 676.367C868.607 676.367 868.826 676.422 869.008 676.531C869.19 676.604 869.336 676.786 869.445 677.078C870.174 684.224 870.667 691.424 870.922 698.68C871.214 705.935 871.432 713.154 871.578 720.336C871.578 720.664 871.578 721.12 871.578 721.703C871.578 722.25 871.56 722.542 871.523 722.578C871.013 722.833 870.557 722.961 870.156 722.961C869.755 722.924 869.391 722.815 869.062 722.633C868.734 722.414 868.479 722.177 868.297 721.922C868.115 721.667 868.023 721.43 868.023 721.211ZM886.562 713.992C886.198 714.831 885.724 715.797 885.141 716.891C884.594 717.984 883.938 719.023 883.172 720.008C882.443 720.992 881.586 721.831 880.602 722.523C879.617 723.216 878.523 723.562 877.32 723.562C876.773 723.562 876.336 723.508 876.008 723.398C875.716 723.253 875.443 723.052 875.188 722.797C874.969 722.542 874.75 722.232 874.531 721.867C874.349 721.503 874.112 721.102 873.82 720.664C873.711 718.878 873.638 716.964 873.602 714.922C873.602 712.844 873.711 710.784 873.93 708.742C874.148 706.664 874.513 704.714 875.023 702.891C875.57 701.068 876.318 699.518 877.266 698.242C878.25 696.966 879.471 696.055 880.93 695.508C882.388 694.961 884.156 694.924 886.234 695.398C886.344 694.378 886.362 693.01 886.289 691.297C886.216 689.583 886.107 687.779 885.961 685.883C885.815 683.987 885.669 682.164 885.523 680.414C885.378 678.628 885.286 677.169 885.25 676.039C885.25 675.711 885.396 675.474 885.688 675.328C886.016 675.146 886.362 675.036 886.727 675C887.091 674.964 887.438 674.964 887.766 675C888.13 675.036 888.367 675.091 888.477 675.164C888.404 679.648 888.385 684.06 888.422 688.398C888.458 692.701 888.495 697.003 888.531 701.305C888.604 705.57 888.677 709.818 888.75 714.047C888.823 718.276 888.859 722.505 888.859 726.734C888.859 727.135 888.823 727.555 888.75 727.992C888.714 728.466 888.404 728.703 887.82 728.703C887.602 728.703 887.383 728.63 887.164 728.484C886.945 728.375 886.799 728.193 886.727 727.938L886.562 713.992ZM884.211 698.133C883.081 698.06 882.023 698.516 881.039 699.5C880.091 700.448 879.253 701.688 878.523 703.219C877.831 704.75 877.266 706.445 876.828 708.305C876.391 710.128 876.117 711.896 876.008 713.609C875.935 715.286 876.044 716.781 876.336 718.094C876.664 719.406 877.229 720.299 878.031 720.773C878.833 720.773 879.581 720.464 880.273 719.844C880.966 719.188 881.604 718.367 882.188 717.383C882.771 716.398 883.281 715.305 883.719 714.102C884.156 712.862 884.521 711.677 884.812 710.547C885.141 709.417 885.378 708.396 885.523 707.484C885.706 706.536 885.797 705.826 885.797 705.352C885.797 704.987 885.815 704.404 885.852 703.602C885.888 702.799 885.87 701.997 885.797 701.195C885.724 700.393 885.56 699.682 885.305 699.062C885.086 698.443 884.721 698.133 884.211 698.133ZM924.898 722.633C924.898 721.867 925.099 721.102 925.5 720.336C925.938 719.57 926.466 718.786 927.086 717.984C927.742 717.182 928.435 716.344 929.164 715.469C929.93 714.594 930.622 713.664 931.242 712.68C931.862 711.695 932.391 710.638 932.828 709.508C933.266 708.378 933.484 707.138 933.484 705.789C933.448 702.909 932.227 701.833 929.82 702.562C927.451 703.292 924.096 706.026 919.758 710.766C919.576 710.729 919.411 710.674 919.266 710.602C919.12 710.492 918.992 710.273 918.883 709.945C918.773 709.581 918.664 709.052 918.555 708.359C918.445 707.667 918.372 706.701 918.336 705.461C918.336 704.221 918.354 702.672 918.391 700.812C918.427 698.953 918.518 696.656 918.664 693.922C918.008 693.521 917.57 693.047 917.352 692.5C917.133 691.917 917.06 691.333 917.133 690.75C917.206 690.13 917.388 689.547 917.68 689C917.971 688.417 918.299 687.943 918.664 687.578C919.065 687.177 919.466 686.922 919.867 686.812C920.305 686.667 920.669 686.74 920.961 687.031C921.289 687.031 921.562 687.141 921.781 687.359C922.036 687.542 922.219 687.76 922.328 688.016C922.474 688.271 922.565 688.562 922.602 688.891C922.674 689.182 922.747 689.456 922.82 689.711L939.609 685.5C939.646 685.5 939.755 685.5 939.938 685.5C940.156 685.464 940.32 685.445 940.43 685.445C940.758 685.445 941.068 685.518 941.359 685.664C941.651 685.81 941.797 686.083 941.797 686.484C941.797 686.849 941.724 687.177 941.578 687.469C941.469 687.724 941.286 688.016 941.031 688.344C939.208 688.052 937.44 688.089 935.727 688.453C934.049 688.781 932.336 689.201 930.586 689.711C928.398 690.294 926.703 690.841 925.5 691.352C924.297 691.826 923.385 692.464 922.766 693.266C922.146 694.031 921.763 695.07 921.617 696.383C921.471 697.659 921.398 699.409 921.398 701.633V702.617C921.398 703.055 921.398 703.529 921.398 704.039C921.435 704.549 921.453 705.06 921.453 705.57V706.555C922.255 705.643 923.021 704.768 923.75 703.93C924.516 703.055 925.299 702.289 926.102 701.633C926.94 700.977 927.833 700.448 928.781 700.047C929.766 699.609 930.878 699.391 932.117 699.391C932.883 699.391 933.521 699.573 934.031 699.938C934.578 700.302 934.997 700.758 935.289 701.305C935.617 701.852 935.854 702.471 936 703.164C936.146 703.857 936.219 704.513 936.219 705.133C936.219 706.992 935.909 708.797 935.289 710.547C934.706 712.297 933.904 713.974 932.883 715.578C931.898 717.182 930.768 718.695 929.492 720.117C928.253 721.539 926.977 722.833 925.664 724C925.263 723.854 925.026 723.672 924.953 723.453C924.917 723.198 924.898 722.924 924.898 722.633Z" fill="black"/>
<path d="M811.422 470.422C811.531 469.109 811.641 467.688 811.75 466.156C811.859 464.589 812.023 463.039 812.242 461.508C812.497 459.977 812.807 458.518 813.172 457.133C813.573 455.747 814.083 454.526 814.703 453.469C815.359 452.375 816.161 451.518 817.109 450.898C818.057 450.242 819.206 449.932 820.555 449.969C821.466 449.969 822.159 450.352 822.633 451.117C823.143 451.883 823.49 452.812 823.672 453.906C823.891 455 824 456.13 824 457.297C824.036 458.427 824.055 459.357 824.055 460.086C823.326 460.086 822.724 459.776 822.25 459.156C821.776 458.5 821.411 457.753 821.156 456.914C820.901 456.076 820.719 455.255 820.609 454.453L820.445 452.867C820.409 452.867 820.336 452.867 820.227 452.867C820.154 452.831 820.099 452.812 820.062 452.812C819.443 452.812 818.859 453.159 818.312 453.852C817.802 454.544 817.31 455.438 816.836 456.531C816.398 457.589 816.016 458.792 815.688 460.141C815.359 461.453 815.086 462.747 814.867 464.023C814.648 465.299 814.466 466.484 814.32 467.578C814.211 468.635 814.156 469.456 814.156 470.039C814.083 470.987 814.083 472.026 814.156 473.156C814.229 474.286 814.448 475.344 814.812 476.328C815.177 477.312 815.688 478.169 816.344 478.898C817 479.591 817.875 480.065 818.969 480.32C820.318 480.32 821.411 480.138 822.25 479.773C823.089 479.409 823.763 478.917 824.273 478.297C824.82 477.677 825.24 476.984 825.531 476.219C825.823 475.453 826.096 474.669 826.352 473.867C826.643 473.029 826.935 472.208 827.227 471.406C827.518 470.604 827.938 469.857 828.484 469.164C828.922 469.055 829.232 469.073 829.414 469.219C829.633 469.328 829.779 469.492 829.852 469.711C829.924 469.93 829.961 470.185 829.961 470.477V471.078C829.961 472.609 829.706 474.086 829.195 475.508C828.685 476.93 827.938 478.206 826.953 479.336C825.969 480.43 824.784 481.323 823.398 482.016C822.049 482.672 820.5 483 818.75 483C817.292 483 816.07 482.544 815.086 481.633C814.138 480.685 813.391 479.555 812.844 478.242C812.333 476.93 811.969 475.562 811.75 474.141C811.531 472.682 811.422 471.443 811.422 470.422ZM852.93 459.102C851.581 458.591 850.286 458.792 849.047 459.703C847.807 460.615 846.622 461.909 845.492 463.586C844.362 465.227 843.286 467.104 842.266 469.219C841.245 471.333 840.297 473.339 839.422 475.234C838.547 477.13 837.745 478.753 837.016 480.102C836.323 481.451 835.685 482.198 835.102 482.344C834.664 482.344 834.318 482.271 834.062 482.125C833.844 481.943 833.734 481.523 833.734 480.867V442.422C833.734 442.094 833.862 441.893 834.117 441.82C834.409 441.747 834.719 441.729 835.047 441.766C835.375 441.802 835.685 441.893 835.977 442.039C836.268 442.148 836.451 442.276 836.523 442.422L837.234 473.211C837.635 472.555 838 471.643 838.328 470.477C838.693 469.273 839.112 467.997 839.586 466.648C840.06 465.263 840.607 463.896 841.227 462.547C841.883 461.161 842.685 459.922 843.633 458.828C844.581 457.734 845.729 456.896 847.078 456.312C848.464 455.693 850.086 455.474 851.945 455.656C853.185 455.656 854.188 456.057 854.953 456.859C855.719 457.625 856.12 458.646 856.156 459.922L856.703 481.742C856.703 481.888 856.667 482.107 856.594 482.398C856.557 482.654 856.411 482.872 856.156 483.055C855.938 483.273 855.609 483.401 855.172 483.438C854.771 483.51 854.242 483.419 853.586 483.164L852.93 459.102ZM860.312 481.906C860.312 479.536 860.258 477.039 860.148 474.414C860.076 471.789 859.984 469.146 859.875 466.484C859.802 463.786 859.784 461.143 859.82 458.555C859.857 455.966 860.021 453.542 860.312 451.281C860.385 451.245 860.549 451.227 860.805 451.227C861.096 451.19 861.297 451.172 861.406 451.172C861.917 451.172 862.318 451.263 862.609 451.445C862.938 451.591 863.102 451.938 863.102 452.484C863.102 454.635 863.083 456.987 863.047 459.539C863.047 462.055 863.029 464.625 862.992 467.25C862.992 469.839 862.992 472.409 862.992 474.961C862.992 477.513 863.029 479.828 863.102 481.906C863.138 482.526 863.01 482.927 862.719 483.109C862.464 483.328 862.135 483.438 861.734 483.438C861.297 483.438 860.932 483.328 860.641 483.109C860.349 482.927 860.24 482.526 860.312 481.906ZM859.109 442.75C859.109 442.312 859.255 442.021 859.547 441.875C859.839 441.729 860.167 441.656 860.531 441.656C861.26 441.656 861.716 441.893 861.898 442.367C862.081 442.841 862.172 443.388 862.172 444.008C861.953 444.409 861.68 444.701 861.352 444.883C861.023 445.029 860.677 445.065 860.312 444.992C859.984 444.883 859.693 444.646 859.438 444.281C859.219 443.917 859.109 443.406 859.109 442.75ZM868.023 480.211C868.279 478.534 868.443 476.438 868.516 473.922C868.625 471.406 868.661 468.727 868.625 465.883C868.625 463.039 868.57 460.104 868.461 457.078C868.352 454.052 868.206 451.19 868.023 448.492C867.841 445.758 867.622 443.315 867.367 441.164C867.148 439.013 866.911 437.318 866.656 436.078C866.984 435.859 867.258 435.695 867.477 435.586C867.732 435.44 868.023 435.367 868.352 435.367C868.607 435.367 868.826 435.422 869.008 435.531C869.19 435.604 869.336 435.786 869.445 436.078C870.174 443.224 870.667 450.424 870.922 457.68C871.214 464.935 871.432 472.154 871.578 479.336C871.578 479.664 871.578 480.12 871.578 480.703C871.578 481.25 871.56 481.542 871.523 481.578C871.013 481.833 870.557 481.961 870.156 481.961C869.755 481.924 869.391 481.815 869.062 481.633C868.734 481.414 868.479 481.177 868.297 480.922C868.115 480.667 868.023 480.43 868.023 480.211ZM886.562 472.992C886.198 473.831 885.724 474.797 885.141 475.891C884.594 476.984 883.938 478.023 883.172 479.008C882.443 479.992 881.586 480.831 880.602 481.523C879.617 482.216 878.523 482.562 877.32 482.562C876.773 482.562 876.336 482.508 876.008 482.398C875.716 482.253 875.443 482.052 875.188 481.797C874.969 481.542 874.75 481.232 874.531 480.867C874.349 480.503 874.112 480.102 873.82 479.664C873.711 477.878 873.638 475.964 873.602 473.922C873.602 471.844 873.711 469.784 873.93 467.742C874.148 465.664 874.513 463.714 875.023 461.891C875.57 460.068 876.318 458.518 877.266 457.242C878.25 455.966 879.471 455.055 880.93 454.508C882.388 453.961 884.156 453.924 886.234 454.398C886.344 453.378 886.362 452.01 886.289 450.297C886.216 448.583 886.107 446.779 885.961 444.883C885.815 442.987 885.669 441.164 885.523 439.414C885.378 437.628 885.286 436.169 885.25 435.039C885.25 434.711 885.396 434.474 885.688 434.328C886.016 434.146 886.362 434.036 886.727 434C887.091 433.964 887.438 433.964 887.766 434C888.13 434.036 888.367 434.091 888.477 434.164C888.404 438.648 888.385 443.06 888.422 447.398C888.458 451.701 888.495 456.003 888.531 460.305C888.604 464.57 888.677 468.818 888.75 473.047C888.823 477.276 888.859 481.505 888.859 485.734C888.859 486.135 888.823 486.555 888.75 486.992C888.714 487.466 888.404 487.703 887.82 487.703C887.602 487.703 887.383 487.63 887.164 487.484C886.945 487.375 886.799 487.193 886.727 486.938L886.562 472.992ZM884.211 457.133C883.081 457.06 882.023 457.516 881.039 458.5C880.091 459.448 879.253 460.688 878.523 462.219C877.831 463.75 877.266 465.445 876.828 467.305C876.391 469.128 876.117 470.896 876.008 472.609C875.935 474.286 876.044 475.781 876.336 477.094C876.664 478.406 877.229 479.299 878.031 479.773C878.833 479.773 879.581 479.464 880.273 478.844C880.966 478.188 881.604 477.367 882.188 476.383C882.771 475.398 883.281 474.305 883.719 473.102C884.156 471.862 884.521 470.677 884.812 469.547C885.141 468.417 885.378 467.396 885.523 466.484C885.706 465.536 885.797 464.826 885.797 464.352C885.797 463.987 885.815 463.404 885.852 462.602C885.888 461.799 885.87 460.997 885.797 460.195C885.724 459.393 885.56 458.682 885.305 458.062C885.086 457.443 884.721 457.133 884.211 457.133ZM922.164 480.867C923.221 479.081 924.242 477.258 925.227 475.398C926.247 473.503 927.141 471.607 927.906 469.711C928.708 467.779 929.346 465.828 929.82 463.859C930.294 461.854 930.549 459.794 930.586 457.68C930.221 456.477 929.82 455.547 929.383 454.891C928.982 454.198 928.38 453.943 927.578 454.125C926.776 454.271 925.682 454.909 924.297 456.039C922.911 457.169 921.034 458.919 918.664 461.289C918.336 461.07 918.008 460.833 917.68 460.578C917.388 460.286 917.242 459.958 917.242 459.594C917.242 459.557 917.242 459.503 917.242 459.43C917.279 459.32 917.297 459.247 917.297 459.211C917.99 458.445 918.773 457.57 919.648 456.586C920.56 455.602 921.544 454.672 922.602 453.797C923.659 452.922 924.753 452.211 925.883 451.664C927.049 451.081 928.289 450.789 929.602 450.789C930.878 451.372 931.789 452.32 932.336 453.633C932.883 454.909 933.156 456.404 933.156 458.117C933.193 459.794 933.01 461.599 932.609 463.531C932.208 465.427 931.661 467.323 930.969 469.219C930.312 471.115 929.565 472.919 928.727 474.633C927.924 476.346 927.141 477.805 926.375 479.008L941.031 474.578C941.068 474.578 941.159 474.578 941.305 474.578C941.487 474.542 941.633 474.523 941.742 474.523C941.924 474.523 942.143 474.542 942.398 474.578C942.654 474.615 942.872 474.669 943.055 474.742C943.273 474.815 943.456 474.924 943.602 475.07C943.784 475.216 943.875 475.398 943.875 475.617C942.562 476.456 941.031 477.148 939.281 477.695C937.568 478.242 935.781 478.771 933.922 479.281C932.099 479.755 930.312 480.229 928.562 480.703C926.812 481.177 925.245 481.742 923.859 482.398C923.385 482.398 922.984 482.344 922.656 482.234C922.328 482.089 922.164 481.633 922.164 480.867Z" fill="black"/>
<rect x="39" y="338" width="267" height="66" rx="5" fill="#EBBE62"/>
<path d="M59.6063 380V361.811H67.1199C68.4818 361.811 69.6571 362.057 70.6459 362.548C71.6406 363.034 72.4073 363.732 72.9461 364.644C73.4849 365.55 73.7543 366.625 73.7543 367.868C73.7543 369.129 73.479 370.201 72.9284 371.083C72.3777 371.959 71.5962 372.628 70.5837 373.09C69.5712 373.546 68.3722 373.774 66.9867 373.774H62.2352V370.31H66.1696C66.8328 370.31 67.3864 370.225 67.8305 370.053C68.2805 369.875 68.6209 369.609 68.8518 369.254C69.0827 368.892 69.1982 368.431 69.1982 367.868C69.1982 367.306 69.0827 366.841 68.8518 366.474C68.6209 366.101 68.2805 365.822 67.8305 365.639C67.3805 365.449 66.8269 365.355 66.1696 365.355H64.0026V380H59.6063ZM69.8465 371.687L74.376 380H69.5801L65.1394 371.687H69.8465ZM76.1656 380V361.811H88.8483V365.381H80.5619V369.111H88.1999V372.691H80.5619V376.43H88.8483V380H76.1656ZM101.433 367.264C101.374 366.613 101.111 366.107 100.643 365.745C100.181 365.378 99.5207 365.195 98.6622 365.195C98.0938 365.195 97.6201 365.269 97.2412 365.417C96.8623 365.565 96.578 365.769 96.3886 366.03C96.1991 366.284 96.1014 366.577 96.0955 366.909C96.0837 367.181 96.1369 367.421 96.2554 367.628C96.3797 367.835 96.5573 368.019 96.7882 368.179C97.0251 368.333 97.3093 368.469 97.6409 368.587C97.9724 368.706 98.3454 368.809 98.7599 368.898L100.323 369.254C101.223 369.449 102.016 369.709 102.703 370.035C103.396 370.361 103.976 370.749 104.444 371.199C104.918 371.649 105.276 372.167 105.519 372.753C105.761 373.339 105.886 373.996 105.892 374.724C105.886 375.873 105.596 376.859 105.021 377.682C104.447 378.505 103.621 379.136 102.543 379.574C101.472 380.012 100.178 380.231 98.6622 380.231C97.1405 380.231 95.8142 380.003 94.6834 379.547C93.5525 379.091 92.6732 378.398 92.0456 377.469C91.418 376.539 91.0953 375.364 91.0775 373.943H95.2873C95.3228 374.529 95.4797 375.018 95.758 375.408C96.0363 375.799 96.4182 376.095 96.9037 376.296C97.3951 376.498 97.9635 376.598 98.6089 376.598C99.201 376.598 99.7043 376.518 100.119 376.359C100.539 376.199 100.862 375.977 101.087 375.693C101.312 375.408 101.427 375.083 101.433 374.716C101.427 374.372 101.321 374.079 101.113 373.836C100.906 373.588 100.587 373.374 100.154 373.197C99.728 373.013 99.1833 372.845 98.5201 372.691L96.6195 372.247C95.0445 371.885 93.8041 371.302 92.8982 370.497C91.9923 369.686 91.5423 368.59 91.5482 367.211C91.5423 366.086 91.8443 365.1 92.4541 364.253C93.064 363.407 93.9077 362.746 94.9853 362.273C96.0629 361.799 97.2915 361.562 98.6711 361.562C100.08 361.562 101.303 361.802 102.339 362.282C103.381 362.755 104.189 363.421 104.764 364.28C105.338 365.138 105.631 366.133 105.643 367.264H101.433ZM125.28 370.905C125.28 372.907 124.895 374.603 124.125 375.994C123.355 377.386 122.313 378.443 120.999 379.165C119.69 379.888 118.222 380.249 116.594 380.249C114.96 380.249 113.488 379.885 112.18 379.156C110.871 378.428 109.832 377.371 109.062 375.986C108.299 374.594 107.917 372.901 107.917 370.905C107.917 368.904 108.299 367.208 109.062 365.816C109.832 364.425 110.871 363.368 112.18 362.646C113.488 361.923 114.96 361.562 116.594 361.562C118.222 361.562 119.69 361.923 120.999 362.646C122.313 363.368 123.355 364.425 124.125 365.816C124.895 367.208 125.28 368.904 125.28 370.905ZM120.786 370.905C120.786 369.721 120.617 368.721 120.28 367.904C119.948 367.086 119.468 366.468 118.841 366.047C118.219 365.627 117.47 365.417 116.594 365.417C115.723 365.417 114.974 365.627 114.347 366.047C113.719 366.468 113.237 367.086 112.899 367.904C112.568 368.721 112.402 369.721 112.402 370.905C112.402 372.09 112.568 373.09 112.899 373.907C113.237 374.724 113.719 375.343 114.347 375.764C114.974 376.184 115.723 376.394 116.594 376.394C117.47 376.394 118.219 376.184 118.841 375.764C119.468 375.343 119.948 374.724 120.28 373.907C120.617 373.09 120.786 372.09 120.786 370.905ZM138.851 361.811H143.238V373.543C143.238 374.899 142.915 376.08 142.27 377.087C141.624 378.088 140.724 378.863 139.57 379.414C138.415 379.959 137.074 380.231 135.547 380.231C134.001 380.231 132.651 379.959 131.497 379.414C130.342 378.863 129.445 378.088 128.806 377.087C128.166 376.08 127.846 374.899 127.846 373.543V361.811H132.243V373.161C132.243 373.789 132.379 374.348 132.651 374.84C132.93 375.331 133.317 375.716 133.815 375.994C134.312 376.273 134.889 376.412 135.547 376.412C136.204 376.412 136.778 376.273 137.27 375.994C137.767 375.716 138.155 375.331 138.433 374.84C138.711 374.348 138.851 373.789 138.851 373.161V361.811ZM145.993 380V361.811H153.507C154.869 361.811 156.044 362.057 157.033 362.548C158.028 363.034 158.794 363.732 159.333 364.644C159.872 365.55 160.141 366.625 160.141 367.868C160.141 369.129 159.866 370.201 159.315 371.083C158.765 371.959 157.983 372.628 156.971 373.09C155.958 373.546 154.759 373.774 153.374 373.774H148.622V370.31H152.557C153.22 370.31 153.773 370.225 154.218 370.053C154.668 369.875 155.008 369.609 155.239 369.254C155.47 368.892 155.585 368.431 155.585 367.868C155.585 367.306 155.47 366.841 155.239 366.474C155.008 366.101 154.668 365.822 154.218 365.639C153.768 365.449 153.214 365.355 152.557 365.355H150.39V380H145.993ZM156.234 371.687L160.763 380H155.967L151.526 371.687H156.234ZM179.063 368.401H174.623C174.563 367.945 174.442 367.533 174.258 367.166C174.075 366.799 173.832 366.485 173.53 366.225C173.228 365.964 172.87 365.766 172.455 365.63C172.047 365.488 171.594 365.417 171.097 365.417C170.214 365.417 169.454 365.633 168.814 366.065C168.181 366.497 167.692 367.122 167.349 367.939C167.011 368.756 166.842 369.745 166.842 370.905C166.842 372.113 167.014 373.126 167.358 373.943C167.707 374.754 168.195 375.367 168.823 375.781C169.457 376.19 170.206 376.394 171.07 376.394C171.555 376.394 171.997 376.332 172.393 376.208C172.796 376.083 173.148 375.903 173.45 375.666C173.758 375.423 174.01 375.13 174.205 374.787C174.406 374.437 174.546 374.044 174.623 373.605L179.063 373.632C178.986 374.437 178.752 375.231 178.362 376.012C177.977 376.794 177.447 377.507 176.772 378.153C176.097 378.792 175.274 379.301 174.303 379.68C173.338 380.059 172.23 380.249 170.981 380.249C169.335 380.249 167.861 379.888 166.558 379.165C165.262 378.437 164.237 377.377 163.485 375.986C162.733 374.594 162.357 372.901 162.357 370.905C162.357 368.904 162.739 367.208 163.503 365.816C164.267 364.425 165.3 363.368 166.603 362.646C167.905 361.923 169.365 361.562 170.981 361.562C172.082 361.562 173.101 361.716 174.036 362.024C174.972 362.326 175.795 362.77 176.505 363.356C177.216 363.937 177.793 364.65 178.237 365.497C178.681 366.343 178.957 367.311 179.063 368.401ZM181.579 380V361.811H194.262V365.381H185.975V369.111H193.613V372.691H185.975V376.43H194.262V380H181.579ZM209.342 373.463H212.895L214.405 375.391L216.385 377.664L219.431 381.421H215.453L213.321 378.872L212.06 377.06L209.342 373.463ZM219.556 370.905C219.556 372.907 219.171 374.603 218.401 375.994C217.631 377.386 216.589 378.443 215.275 379.165C213.966 379.888 212.498 380.249 210.87 380.249C209.236 380.249 207.764 379.885 206.456 379.156C205.147 378.428 204.108 377.371 203.338 375.986C202.574 374.594 202.193 372.901 202.193 370.905C202.193 368.904 202.574 367.208 203.338 365.816C204.108 364.425 205.147 363.368 206.456 362.646C207.764 361.923 209.236 361.562 210.87 361.562C212.498 361.562 213.966 361.923 215.275 362.646C216.589 363.368 217.631 364.425 218.401 365.816C219.171 367.208 219.556 368.904 219.556 370.905ZM215.062 370.905C215.062 369.721 214.893 368.721 214.555 367.904C214.224 367.086 213.744 366.468 213.117 366.047C212.495 365.627 211.746 365.417 210.87 365.417C209.999 365.417 209.25 365.627 208.623 366.047C207.995 366.468 207.513 367.086 207.175 367.904C206.843 368.721 206.678 369.721 206.678 370.905C206.678 372.09 206.843 373.09 207.175 373.907C207.513 374.724 207.995 375.343 208.623 375.764C209.25 376.184 209.999 376.394 210.87 376.394C211.746 376.394 212.495 376.184 213.117 375.764C213.744 375.343 214.224 374.724 214.555 373.907C214.893 373.09 215.062 372.09 215.062 370.905ZM233.151 361.811H237.538V373.543C237.538 374.899 237.216 376.08 236.57 377.087C235.925 378.088 235.025 378.863 233.87 379.414C232.716 379.959 231.375 380.231 229.847 380.231C228.302 380.231 226.952 379.959 225.797 379.414C224.643 378.863 223.746 378.088 223.106 377.087C222.467 376.08 222.147 374.899 222.147 373.543V361.811H226.543V373.161C226.543 373.789 226.679 374.348 226.952 374.84C227.23 375.331 227.618 375.716 228.115 375.994C228.613 376.273 229.19 376.412 229.847 376.412C230.504 376.412 231.079 376.273 231.57 375.994C232.067 375.716 232.455 375.331 232.733 374.84C233.012 374.348 233.151 373.789 233.151 373.161V361.811ZM257.462 370.905C257.462 372.907 257.077 374.603 256.307 375.994C255.537 377.386 254.495 378.443 253.181 379.165C251.872 379.888 250.404 380.249 248.776 380.249C247.141 380.249 245.67 379.885 244.361 379.156C243.053 378.428 242.014 377.371 241.244 375.986C240.48 374.594 240.098 372.901 240.098 370.905C240.098 368.904 240.48 367.208 241.244 365.816C242.014 364.425 243.053 363.368 244.361 362.646C245.67 361.923 247.141 361.562 248.776 361.562C250.404 361.562 251.872 361.923 253.181 362.646C254.495 363.368 255.537 364.425 256.307 365.816C257.077 367.208 257.462 368.904 257.462 370.905ZM252.968 370.905C252.968 369.721 252.799 368.721 252.461 367.904C252.13 367.086 251.65 366.468 251.022 366.047C250.401 365.627 249.652 365.417 248.776 365.417C247.905 365.417 247.156 365.627 246.529 366.047C245.901 366.468 245.418 367.086 245.081 367.904C244.749 368.721 244.583 369.721 244.583 370.905C244.583 372.09 244.749 373.09 245.081 373.907C245.418 374.724 245.901 375.343 246.529 375.764C247.156 376.184 247.905 376.394 248.776 376.394C249.652 376.394 250.401 376.184 251.022 375.764C251.65 375.343 252.13 374.724 252.461 373.907C252.799 373.09 252.968 372.09 252.968 370.905ZM258.603 365.381V361.811H273.976V365.381H268.461V380H264.127V365.381H258.603ZM277.787 380H273.062L279.199 361.811H285.052L291.189 380H286.464L282.192 366.394H282.05L277.787 380ZM277.156 372.842H287.032V376.181H277.156V372.842Z" fill="black"/>
<path d="M333.998 507C361.998 602 502.996 527 495.998 652" stroke="black" stroke-width="3"/>
<path d="M330.002 507C302.002 602 161.004 527 168.002 652" stroke="black" stroke-width="3"/>
<rect x="108" y="622" width="30" height="30" rx="3" fill="#EBBE62"/>
<rect x="442" y="622" width="30" height="30" rx="3" fill="#EBBE62"/>
<rect x="909" y="622" width="30" height="30" rx="3" fill="#B8E986"/>
<rect x="953" y="347" width="151" height="66" rx="5" fill="#B8E986"/>
<path d="M999.392 389V370.811H1006.91C1008.27 370.811 1009.44 371.057 1010.43 371.548C1011.43 372.034 1012.19 372.732 1012.73 373.644C1013.27 374.55 1013.54 375.625 1013.54 376.868C1013.54 378.129 1013.26 379.201 1012.71 380.083C1012.16 380.959 1011.38 381.628 1010.37 382.09C1009.36 382.546 1008.16 382.774 1006.77 382.774H1002.02V379.31H1005.96C1006.62 379.31 1007.17 379.225 1007.62 379.053C1008.07 378.875 1008.41 378.609 1008.64 378.254C1008.87 377.892 1008.98 377.431 1008.98 376.868C1008.98 376.306 1008.87 375.841 1008.64 375.474C1008.41 375.101 1008.07 374.822 1007.62 374.639C1007.17 374.449 1006.61 374.355 1005.96 374.355H1003.79V389H999.392ZM1009.63 380.687L1014.16 389H1009.37L1004.93 380.687H1009.63ZM1033.12 379.905C1033.12 381.907 1032.73 383.603 1031.96 384.994C1031.2 386.386 1030.15 387.443 1028.84 388.165C1027.53 388.888 1026.06 389.249 1024.43 389.249C1022.8 389.249 1021.33 388.885 1020.02 388.156C1018.71 387.428 1017.67 386.371 1016.9 384.986C1016.14 383.594 1015.76 381.901 1015.76 379.905C1015.76 377.904 1016.14 376.208 1016.9 374.816C1017.67 373.425 1018.71 372.368 1020.02 371.646C1021.33 370.923 1022.8 370.562 1024.43 370.562C1026.06 370.562 1027.53 370.923 1028.84 371.646C1030.15 372.368 1031.2 373.425 1031.96 374.816C1032.73 376.208 1033.12 377.904 1033.12 379.905ZM1028.63 379.905C1028.63 378.721 1028.46 377.721 1028.12 376.904C1027.79 376.086 1027.31 375.468 1026.68 375.047C1026.06 374.627 1025.31 374.417 1024.43 374.417C1023.56 374.417 1022.81 374.627 1022.19 375.047C1021.56 375.468 1021.08 376.086 1020.74 376.904C1020.41 377.721 1020.24 378.721 1020.24 379.905C1020.24 381.09 1020.41 382.09 1020.74 382.907C1021.08 383.724 1021.56 384.343 1022.19 384.764C1022.81 385.184 1023.56 385.394 1024.43 385.394C1025.31 385.394 1026.06 385.184 1026.68 384.764C1027.31 384.343 1027.79 383.724 1028.12 382.907C1028.46 382.09 1028.63 381.09 1028.63 379.905ZM1035.69 389V370.811H1040.08V385.43H1047.65V389H1035.69ZM1049.93 389V370.811H1062.61V374.381H1054.32V378.111H1061.96V381.691H1054.32V385.43H1062.61V389H1049.93Z" fill="black"/>
<path d="M875 499C878 514 882 612 875 651" stroke="black" stroke-width="3"/>
</svg>
