<svg width="1200" height="900" viewBox="0 0 1200 900" fill="none" xmlns="http://www.w3.org/2000/svg">
<rect width="1200" height="900" fill="white"/>
<path d="M77.321 444V371.273H92.6974V401.28H123.912V371.273H139.253V444H123.912V413.957H92.6974V444H77.321ZM210.13 371.273V444H196.849L165.208 398.226H164.675V444H149.299V371.273H162.793L194.185 417.011H194.824V371.273H210.13ZM284.371 396.734H268.817C268.533 394.722 267.953 392.935 267.077 391.372C266.201 389.786 265.077 388.437 263.704 387.324C262.331 386.211 260.745 385.359 258.945 384.767C257.17 384.175 255.24 383.879 253.157 383.879C249.393 383.879 246.114 384.814 243.32 386.685C240.527 388.531 238.361 391.23 236.822 394.781C235.283 398.309 234.513 402.594 234.513 407.636C234.513 412.821 235.283 417.177 236.822 420.705C238.384 424.232 240.562 426.895 243.356 428.695C246.149 430.494 249.381 431.393 253.05 431.393C255.11 431.393 257.016 431.121 258.768 430.577C260.543 430.032 262.118 429.239 263.491 428.197C264.864 427.132 266 425.842 266.9 424.327C267.823 422.812 268.462 421.083 268.817 419.142L284.371 419.213C283.969 422.551 282.963 425.771 281.353 428.872C279.767 431.95 277.624 434.708 274.925 437.146C272.25 439.561 269.054 441.479 265.337 442.899C261.644 444.296 257.466 444.994 252.802 444.994C246.315 444.994 240.515 443.527 235.401 440.591C230.311 437.655 226.287 433.406 223.327 427.842C220.392 422.279 218.924 415.544 218.924 407.636C218.924 399.705 220.415 392.958 223.398 387.395C226.381 381.831 230.43 377.594 235.543 374.682C240.657 371.746 246.41 370.278 252.802 370.278C257.016 370.278 260.922 370.87 264.521 372.054C268.143 373.238 271.351 374.966 274.144 377.239C276.938 379.488 279.21 382.246 280.962 385.513C282.738 388.78 283.874 392.52 284.371 396.734ZM335.296 445.065C330.277 445.065 325.945 444.166 322.299 442.366C318.653 440.567 315.848 438.129 313.883 435.051C311.941 431.95 310.971 428.493 310.971 424.682C310.971 421.841 311.539 419.32 312.675 417.118C313.812 414.916 315.398 412.892 317.434 411.045C319.47 409.175 321.837 407.317 324.536 405.47L338.634 396.202C340.457 395.042 341.795 393.822 342.647 392.544C343.499 391.242 343.925 389.833 343.925 388.318C343.925 386.874 343.345 385.536 342.185 384.305C341.025 383.074 339.38 382.471 337.249 382.494C335.829 382.494 334.598 382.814 333.556 383.453C332.514 384.069 331.698 384.885 331.106 385.903C330.538 386.898 330.254 388.01 330.254 389.241C330.254 390.757 330.68 392.295 331.532 393.858C332.384 395.42 333.521 397.078 334.941 398.83C336.361 400.558 337.912 402.428 339.593 404.44L374.075 444H358.307L329.543 411.969C327.649 409.814 325.755 407.565 323.861 405.222C321.991 402.854 320.429 400.345 319.174 397.693C317.919 395.018 317.292 392.118 317.292 388.993C317.292 385.465 318.109 382.293 319.742 379.476C321.399 376.659 323.719 374.433 326.702 372.8C329.685 371.143 333.165 370.314 337.143 370.314C341.025 370.314 344.375 371.107 347.192 372.693C350.033 374.256 352.211 376.339 353.727 378.943C355.265 381.524 356.035 384.365 356.035 387.466C356.035 390.899 355.182 394.012 353.478 396.805C351.797 399.575 349.43 402.061 346.376 404.263L331.532 414.952C329.52 416.42 328.028 417.923 327.057 419.462C326.111 420.977 325.637 422.433 325.637 423.83C325.637 425.558 326.063 427.108 326.915 428.482C327.768 429.855 328.975 430.944 330.538 431.749C332.1 432.53 333.935 432.92 336.042 432.92C338.599 432.92 341.12 432.34 343.606 431.18C346.115 429.997 348.388 428.328 350.424 426.173C352.484 423.995 354.129 421.415 355.36 418.432C356.591 415.449 357.207 412.146 357.207 408.524H369.742C369.742 412.975 369.257 416.988 368.286 420.562C367.316 424.114 365.966 427.215 364.238 429.866C362.51 432.494 360.533 434.649 358.307 436.33C357.597 436.779 356.911 437.205 356.248 437.608C355.585 438.01 354.898 438.437 354.188 438.886C351.489 441.064 348.471 442.639 345.133 443.609C341.818 444.58 338.539 445.065 335.296 445.065ZM398.543 444V371.273H427.236C432.729 371.273 437.416 372.255 441.299 374.22C445.205 376.161 448.176 378.92 450.212 382.494C452.272 386.045 453.302 390.224 453.302 395.03C453.302 399.859 452.26 404.014 450.177 407.494C448.093 410.951 445.075 413.602 441.121 415.449C437.191 417.295 432.433 418.219 426.846 418.219H407.634V405.861H424.36C427.296 405.861 429.734 405.458 431.675 404.653C433.617 403.848 435.061 402.641 436.008 401.031C436.978 399.421 437.464 397.421 437.464 395.03C437.464 392.615 436.978 390.579 436.008 388.922C435.061 387.265 433.605 386.01 431.64 385.158C429.699 384.282 427.248 383.844 424.289 383.844H413.92V444H398.543ZM437.819 410.903L455.894 444H438.92L421.235 410.903H437.819ZM485.019 445.065C479.502 445.065 474.732 443.893 470.708 441.55C466.707 439.182 463.617 435.892 461.439 431.678C459.261 427.44 458.172 422.527 458.172 416.94C458.172 411.306 459.261 406.382 461.439 402.168C463.617 397.93 466.707 394.639 470.708 392.295C474.732 389.928 479.502 388.744 485.019 388.744C490.535 388.744 495.293 389.928 499.294 392.295C503.319 394.639 506.42 397.93 508.598 402.168C510.776 406.382 511.865 411.306 511.865 416.94C511.865 422.527 510.776 427.44 508.598 431.678C506.42 435.892 503.319 439.182 499.294 441.55C495.293 443.893 490.535 445.065 485.019 445.065ZM485.09 433.347C487.599 433.347 489.694 432.636 491.375 431.216C493.056 429.772 494.323 427.807 495.175 425.321C496.051 422.835 496.489 420.006 496.489 416.834C496.489 413.661 496.051 410.832 495.175 408.347C494.323 405.861 493.056 403.896 491.375 402.452C489.694 401.008 487.599 400.286 485.09 400.286C482.556 400.286 480.426 401.008 478.698 402.452C476.993 403.896 475.703 405.861 474.827 408.347C473.975 410.832 473.548 413.661 473.548 416.834C473.548 420.006 473.975 422.835 474.827 425.321C475.703 427.807 476.993 429.772 478.698 431.216C480.426 432.636 482.556 433.347 485.09 433.347ZM534.198 371.273V444H519.07V371.273H534.198ZM568.543 445.065C562.932 445.065 558.102 443.929 554.054 441.656C550.029 439.36 546.928 436.116 544.75 431.926C542.572 427.712 541.483 422.729 541.483 416.976C541.483 411.365 542.572 406.441 544.75 402.203C546.928 397.965 549.994 394.663 553.948 392.295C557.925 389.928 562.589 388.744 567.939 388.744C571.538 388.744 574.887 389.324 577.989 390.484C581.114 391.621 583.836 393.337 586.156 395.634C588.5 397.93 590.323 400.818 591.625 404.298C592.927 407.755 593.578 411.803 593.578 416.443V420.598H547.52V411.223H579.338C579.338 409.045 578.865 407.116 577.918 405.435C576.971 403.754 575.657 402.44 573.976 401.493C572.319 400.522 570.389 400.037 568.188 400.037C565.891 400.037 563.855 400.57 562.08 401.635C560.328 402.677 558.955 404.085 557.96 405.861C556.966 407.613 556.457 409.566 556.433 411.72V420.634C556.433 423.332 556.93 425.664 557.925 427.629C558.943 429.594 560.375 431.109 562.222 432.175C564.068 433.24 566.258 433.773 568.791 433.773C570.472 433.773 572.011 433.536 573.408 433.062C574.805 432.589 576 431.879 576.994 430.932C577.989 429.985 578.746 428.825 579.267 427.452L593.259 428.375C592.548 431.737 591.092 434.672 588.891 437.182C586.713 439.668 583.895 441.609 580.439 443.006C577.006 444.379 573.041 445.065 568.543 445.065ZM646.202 405.009L632.353 405.861C632.116 404.677 631.607 403.612 630.826 402.665C630.045 401.694 629.015 400.925 627.736 400.357C626.482 399.765 624.978 399.469 623.226 399.469C620.883 399.469 618.906 399.966 617.296 400.96C615.686 401.931 614.881 403.233 614.881 404.866C614.881 406.169 615.402 407.269 616.444 408.169C617.485 409.069 619.273 409.791 621.806 410.335L631.678 412.324C636.981 413.413 640.935 415.165 643.539 417.58C646.143 419.994 647.445 423.167 647.445 427.097C647.445 430.671 646.392 433.808 644.285 436.507C642.201 439.206 639.337 441.313 635.691 442.828C632.069 444.32 627.89 445.065 623.155 445.065C615.935 445.065 610.182 443.562 605.897 440.555C601.636 437.525 599.138 433.406 598.404 428.197L613.283 427.416C613.733 429.618 614.822 431.299 616.55 432.459C618.279 433.595 620.492 434.163 623.191 434.163C625.842 434.163 627.973 433.654 629.583 432.636C631.217 431.595 632.045 430.257 632.069 428.624C632.045 427.25 631.465 426.126 630.329 425.25C629.192 424.35 627.44 423.664 625.073 423.19L615.627 421.308C610.3 420.243 606.335 418.396 603.731 415.768C601.15 413.141 599.86 409.791 599.86 405.719C599.86 402.215 600.807 399.196 602.701 396.663C604.619 394.13 607.306 392.177 610.762 390.804C614.242 389.431 618.314 388.744 622.978 388.744C629.867 388.744 635.288 390.2 639.242 393.112C643.219 396.024 645.539 399.99 646.202 405.009Z" fill="black"/>
<rect x="71" y="498" width="1038" height="19" fill="black"/>
</svg>
