<svg width="1200" height="900" viewBox="0 0 1200 900" fill="none" xmlns="http://www.w3.org/2000/svg">
<rect width="1200" height="900" fill="white"/>
<path d="M127.889 305.455L108.82 360H91.7741L72.7045 305.455H88.6847L100.013 344.482H100.581L111.874 305.455H127.889ZM197.452 312.734H181.898C181.614 310.722 181.034 308.935 180.158 307.372C179.282 305.786 178.158 304.437 176.785 303.324C175.412 302.211 173.825 301.359 172.026 300.767C170.251 300.175 168.321 299.879 166.238 299.879C162.474 299.879 159.195 300.814 156.401 302.685C153.608 304.531 151.441 307.23 149.903 310.781C148.364 314.309 147.594 318.594 147.594 323.636C147.594 328.821 148.364 333.177 149.903 336.705C151.465 340.232 153.643 342.895 156.437 344.695C159.23 346.494 162.462 347.393 166.131 347.393C168.191 347.393 170.097 347.121 171.849 346.577C173.624 346.032 175.198 345.239 176.572 344.197C177.945 343.132 179.081 341.842 179.981 340.327C180.904 338.812 181.543 337.083 181.898 335.142L197.452 335.213C197.05 338.551 196.044 341.771 194.434 344.872C192.848 347.95 190.705 350.708 188.006 353.146C185.331 355.561 182.135 357.479 178.418 358.899C174.725 360.296 170.546 360.994 165.883 360.994C159.396 360.994 153.596 359.527 148.482 356.591C143.392 353.655 139.367 349.406 136.408 343.842C133.473 338.279 132.005 331.544 132.005 323.636C132.005 315.705 133.496 308.958 136.479 303.395C139.462 297.831 143.51 293.594 148.624 290.682C153.738 287.746 159.491 286.278 165.883 286.278C170.097 286.278 174.003 286.87 177.601 288.054C181.224 289.238 184.431 290.966 187.225 293.239C190.019 295.488 192.291 298.246 194.043 301.513C195.819 304.78 196.955 308.52 197.452 312.734ZM220.691 287.273V360H205.563V287.273H220.691ZM265.156 336.776V305.455H280.284V360H265.76V350.092H265.192C263.961 353.288 261.913 355.857 259.048 357.798C256.207 359.74 252.739 360.71 248.643 360.71C244.997 360.71 241.79 359.882 239.02 358.224C236.25 356.567 234.084 354.212 232.521 351.158C230.982 348.104 230.201 344.446 230.177 340.185V305.455H245.305V337.486C245.329 340.705 246.193 343.25 247.898 345.121C249.602 346.991 251.887 347.926 254.751 347.926C256.574 347.926 258.279 347.512 259.865 346.683C261.451 345.831 262.729 344.576 263.7 342.919C264.694 341.262 265.18 339.214 265.156 336.776ZM335.136 321.009L321.287 321.861C321.05 320.677 320.541 319.612 319.76 318.665C318.979 317.694 317.949 316.925 316.67 316.357C315.416 315.765 313.912 315.469 312.16 315.469C309.817 315.469 307.84 315.966 306.23 316.96C304.62 317.931 303.815 319.233 303.815 320.866C303.815 322.169 304.336 323.269 305.378 324.169C306.419 325.069 308.207 325.791 310.74 326.335L320.612 328.324C325.915 329.413 329.869 331.165 332.473 333.58C335.077 335.994 336.379 339.167 336.379 343.097C336.379 346.671 335.326 349.808 333.219 352.507C331.135 355.206 328.271 357.313 324.625 358.828C321.003 360.32 316.824 361.065 312.089 361.065C304.869 361.065 299.116 359.562 294.831 356.555C290.57 353.525 288.072 349.406 287.338 344.197L302.217 343.416C302.667 345.618 303.756 347.299 305.484 348.459C307.213 349.595 309.426 350.163 312.125 350.163C314.776 350.163 316.907 349.654 318.517 348.636C320.151 347.595 320.979 346.257 321.003 344.624C320.979 343.25 320.399 342.126 319.263 341.25C318.126 340.35 316.374 339.664 314.007 339.19L304.561 337.308C299.234 336.243 295.269 334.396 292.665 331.768C290.084 329.141 288.794 325.791 288.794 321.719C288.794 318.215 289.741 315.196 291.635 312.663C293.553 310.13 296.24 308.177 299.696 306.804C303.176 305.431 307.248 304.744 311.912 304.744C318.801 304.744 324.222 306.2 328.176 309.112C332.153 312.024 334.473 315.99 335.136 321.009ZM372.286 305.455V316.818H339.438V305.455H372.286ZM346.896 292.386H362.024V343.239C362.024 344.635 362.237 345.724 362.663 346.506C363.089 347.263 363.681 347.796 364.438 348.104C365.22 348.411 366.119 348.565 367.137 348.565C367.847 348.565 368.558 348.506 369.268 348.388C369.978 348.246 370.523 348.139 370.901 348.068L373.281 359.325C372.523 359.562 371.458 359.834 370.085 360.142C368.712 360.473 367.043 360.675 365.078 360.746C361.432 360.888 358.236 360.402 355.489 359.29C352.767 358.177 350.648 356.449 349.133 354.105C347.618 351.761 346.872 348.802 346.896 345.227V292.386ZM403.781 361.065C398.17 361.065 393.341 359.929 389.293 357.656C385.268 355.36 382.167 352.116 379.989 347.926C377.811 343.712 376.722 338.729 376.722 332.976C376.722 327.365 377.811 322.441 379.989 318.203C382.167 313.965 385.232 310.663 389.186 308.295C393.163 305.928 397.827 304.744 403.178 304.744C406.776 304.744 410.126 305.324 413.227 306.484C416.352 307.621 419.075 309.337 421.395 311.634C423.739 313.93 425.562 316.818 426.864 320.298C428.166 323.755 428.817 327.803 428.817 332.443V336.598H382.758V327.223H414.577C414.577 325.045 414.103 323.116 413.156 321.435C412.209 319.754 410.895 318.44 409.214 317.493C407.557 316.522 405.628 316.037 403.426 316.037C401.13 316.037 399.094 316.57 397.318 317.635C395.566 318.677 394.193 320.085 393.199 321.861C392.205 323.613 391.696 325.566 391.672 327.72V336.634C391.672 339.332 392.169 341.664 393.163 343.629C394.181 345.594 395.614 347.109 397.46 348.175C399.307 349.24 401.497 349.773 404.03 349.773C405.711 349.773 407.249 349.536 408.646 349.062C410.043 348.589 411.239 347.879 412.233 346.932C413.227 345.985 413.985 344.825 414.506 343.452L428.497 344.375C427.787 347.737 426.331 350.672 424.129 353.182C421.951 355.668 419.134 357.609 415.678 359.006C412.245 360.379 408.279 361.065 403.781 361.065ZM436.057 360V305.455H450.723V314.972H451.292C452.286 311.586 453.955 309.029 456.299 307.301C458.643 305.549 461.341 304.673 464.395 304.673C465.153 304.673 465.97 304.721 466.846 304.815C467.722 304.91 468.491 305.04 469.154 305.206V318.629C468.444 318.416 467.461 318.227 466.206 318.061C464.952 317.895 463.803 317.812 462.762 317.812C460.536 317.812 458.548 318.298 456.796 319.268C455.068 320.215 453.695 321.541 452.677 323.246C451.682 324.95 451.185 326.915 451.185 329.141V360H436.057ZM510.411 361.03C506.93 361.03 503.829 360.426 501.107 359.219C498.384 357.988 496.23 356.177 494.644 353.786C493.081 351.371 492.3 348.364 492.3 344.766C492.3 341.735 492.856 339.19 493.969 337.131C495.082 335.071 496.597 333.414 498.514 332.159C500.432 330.904 502.61 329.957 505.048 329.318C507.511 328.679 510.091 328.229 512.79 327.969C515.962 327.637 518.519 327.33 520.46 327.045C522.402 326.738 523.81 326.288 524.686 325.696C525.562 325.104 526 324.228 526 323.068V322.855C526 320.606 525.29 318.866 523.869 317.635C522.473 316.404 520.484 315.788 517.904 315.788C515.181 315.788 513.015 316.392 511.405 317.599C509.795 318.783 508.73 320.275 508.209 322.074L494.217 320.938C494.928 317.623 496.324 314.759 498.408 312.344C500.491 309.905 503.178 308.035 506.469 306.733C509.783 305.407 513.618 304.744 517.975 304.744C521.005 304.744 523.905 305.099 526.675 305.81C529.468 306.52 531.942 307.621 534.097 309.112C536.275 310.604 537.991 312.521 539.246 314.865C540.501 317.185 541.128 319.967 541.128 323.21V360H526.781V352.436H526.355C525.479 354.141 524.307 355.644 522.84 356.946C521.372 358.224 519.608 359.231 517.548 359.964C515.489 360.675 513.109 361.03 510.411 361.03ZM514.743 350.589C516.968 350.589 518.933 350.152 520.638 349.276C522.342 348.376 523.68 347.169 524.651 345.653C525.621 344.138 526.107 342.422 526.107 340.504V334.716C525.633 335.024 524.982 335.308 524.154 335.568C523.349 335.805 522.437 336.03 521.419 336.243C520.401 336.432 519.383 336.61 518.365 336.776C517.347 336.918 516.424 337.048 515.595 337.166C513.82 337.427 512.269 337.841 510.943 338.409C509.618 338.977 508.588 339.747 507.854 340.717C507.12 341.664 506.753 342.848 506.753 344.268C506.753 346.328 507.499 347.902 508.99 348.991C510.505 350.057 512.423 350.589 514.743 350.589ZM565.361 328.466V360H550.233V305.455H564.65V315.078H565.29C566.497 311.906 568.521 309.396 571.362 307.55C574.203 305.679 577.648 304.744 581.696 304.744C585.484 304.744 588.786 305.573 591.604 307.23C594.421 308.887 596.611 311.255 598.173 314.332C599.736 317.386 600.517 321.032 600.517 325.27V360H585.389V327.969C585.413 324.631 584.561 322.027 582.832 320.156C581.104 318.262 578.725 317.315 575.695 317.315C573.659 317.315 571.859 317.753 570.297 318.629C568.758 319.505 567.551 320.784 566.675 322.464C565.822 324.122 565.384 326.122 565.361 328.466ZM629.908 360.888C625.765 360.888 622.012 359.822 618.651 357.692C615.313 355.537 612.661 352.377 610.696 348.21C608.755 344.02 607.784 338.883 607.784 332.798C607.784 326.548 608.79 321.352 610.803 317.209C612.815 313.042 615.49 309.929 618.828 307.869C622.19 305.786 625.871 304.744 629.872 304.744C632.926 304.744 635.471 305.265 637.507 306.307C639.567 307.325 641.224 308.603 642.479 310.142C643.757 311.657 644.728 313.149 645.391 314.616H645.852V287.273H660.945V360H646.03V351.264H645.391C644.68 352.779 643.674 354.283 642.372 355.774C641.094 357.242 639.425 358.461 637.365 359.432C635.329 360.402 632.843 360.888 629.908 360.888ZM634.702 348.849C637.14 348.849 639.2 348.187 640.881 346.861C642.585 345.511 643.887 343.629 644.787 341.214C645.71 338.8 646.172 335.971 646.172 332.727C646.172 329.484 645.722 326.667 644.822 324.276C643.923 321.884 642.621 320.038 640.916 318.736C639.212 317.434 637.14 316.783 634.702 316.783C632.216 316.783 630.121 317.457 628.416 318.807C626.712 320.156 625.421 322.027 624.546 324.418C623.67 326.809 623.232 329.579 623.232 332.727C623.232 335.9 623.67 338.705 624.546 341.143C625.445 343.558 626.735 345.452 628.416 346.825C630.121 348.175 632.216 348.849 634.702 348.849ZM715.838 381.591C710.937 381.591 706.735 380.916 703.231 379.567C699.751 378.241 696.981 376.43 694.922 374.134C692.862 371.837 691.524 369.257 690.909 366.392L704.9 364.51C705.326 365.599 706.001 366.617 706.924 367.564C707.848 368.511 709.067 369.268 710.582 369.837C712.121 370.429 713.991 370.724 716.193 370.724C719.484 370.724 722.194 369.92 724.325 368.31C726.479 366.723 727.557 364.06 727.557 360.32V350.341H726.917C726.254 351.856 725.26 353.288 723.934 354.638C722.609 355.987 720.904 357.088 718.821 357.94C716.737 358.793 714.252 359.219 711.363 359.219C707.268 359.219 703.539 358.272 700.177 356.378C696.839 354.46 694.176 351.536 692.187 347.607C690.222 343.653 689.24 338.658 689.24 332.621C689.24 326.442 690.246 321.281 692.258 317.138C694.271 312.995 696.946 309.893 700.284 307.834C703.646 305.774 707.327 304.744 711.328 304.744C714.382 304.744 716.939 305.265 718.998 306.307C721.058 307.325 722.715 308.603 723.97 310.142C725.248 311.657 726.231 313.149 726.917 314.616H727.486V305.455H742.507V360.533C742.507 365.173 741.37 369.055 739.098 372.18C736.825 375.305 733.676 377.649 729.652 379.212C725.651 380.798 721.046 381.591 715.838 381.591ZM716.157 347.855C718.596 347.855 720.655 347.251 722.336 346.044C724.041 344.813 725.343 343.061 726.243 340.788C727.166 338.492 727.628 335.746 727.628 332.55C727.628 329.354 727.178 326.584 726.278 324.24C725.379 321.873 724.076 320.038 722.372 318.736C720.667 317.434 718.596 316.783 716.157 316.783C713.672 316.783 711.576 317.457 709.872 318.807C708.167 320.133 706.877 321.979 706.001 324.347C705.125 326.714 704.687 329.448 704.687 332.55C704.687 335.698 705.125 338.421 706.001 340.717C706.901 342.99 708.191 344.754 709.872 346.009C711.576 347.24 713.672 347.855 716.157 347.855ZM767.041 287.273V360H751.914V287.273H767.041ZM801.173 361.065C795.657 361.065 790.887 359.893 786.862 357.55C782.861 355.182 779.771 351.892 777.593 347.678C775.415 343.44 774.326 338.527 774.326 332.94C774.326 327.306 775.415 322.382 777.593 318.168C779.771 313.93 782.861 310.639 786.862 308.295C790.887 305.928 795.657 304.744 801.173 304.744C806.689 304.744 811.448 305.928 815.449 308.295C819.473 310.639 822.574 313.93 824.753 318.168C826.931 322.382 828.02 327.306 828.02 332.94C828.02 338.527 826.931 343.44 824.753 347.678C822.574 351.892 819.473 355.182 815.449 357.55C811.448 359.893 806.689 361.065 801.173 361.065ZM801.244 349.347C803.753 349.347 805.849 348.636 807.53 347.216C809.21 345.772 810.477 343.807 811.329 341.321C812.205 338.835 812.643 336.006 812.643 332.834C812.643 329.661 812.205 326.832 811.329 324.347C810.477 321.861 809.21 319.896 807.53 318.452C805.849 317.008 803.753 316.286 801.244 316.286C798.711 316.286 796.58 317.008 794.852 318.452C793.147 319.896 791.857 321.861 790.981 324.347C790.129 326.832 789.703 329.661 789.703 332.834C789.703 336.006 790.129 338.835 790.981 341.321C791.857 343.807 793.147 345.772 794.852 347.216C796.58 348.636 798.711 349.347 801.244 349.347ZM835.509 360V287.273H850.637V314.616H851.098C851.761 313.149 852.72 311.657 853.975 310.142C855.253 308.603 856.91 307.325 858.946 306.307C861.006 305.265 863.563 304.744 866.617 304.744C870.594 304.744 874.263 305.786 877.625 307.869C880.987 309.929 883.674 313.042 885.686 317.209C887.699 321.352 888.705 326.548 888.705 332.798C888.705 338.883 887.722 344.02 885.757 348.21C883.816 352.377 881.164 355.537 877.803 357.692C874.465 359.822 870.724 360.888 866.581 360.888C863.646 360.888 861.148 360.402 859.088 359.432C857.052 358.461 855.383 357.242 854.081 355.774C852.779 354.283 851.785 352.779 851.098 351.264H850.423V360H835.509ZM850.317 332.727C850.317 335.971 850.767 338.8 851.666 341.214C852.566 343.629 853.868 345.511 855.573 346.861C857.277 348.187 859.349 348.849 861.787 348.849C864.249 348.849 866.333 348.175 868.037 346.825C869.742 345.452 871.032 343.558 871.908 341.143C872.807 338.705 873.257 335.9 873.257 332.727C873.257 329.579 872.819 326.809 871.943 324.418C871.067 322.027 869.777 320.156 868.073 318.807C866.368 317.457 864.273 316.783 861.787 316.783C859.325 316.783 857.242 317.434 855.537 318.736C853.856 320.038 852.566 321.884 851.666 324.276C850.767 326.667 850.317 329.484 850.317 332.727ZM911.721 361.03C908.241 361.03 905.14 360.426 902.417 359.219C899.695 357.988 897.54 356.177 895.954 353.786C894.392 351.371 893.61 348.364 893.61 344.766C893.61 341.735 894.167 339.19 895.28 337.131C896.392 335.071 897.907 333.414 899.825 332.159C901.743 330.904 903.921 329.957 906.359 329.318C908.821 328.679 911.402 328.229 914.101 327.969C917.273 327.637 919.83 327.33 921.771 327.045C923.712 326.738 925.121 326.288 925.997 325.696C926.873 325.104 927.311 324.228 927.311 323.068V322.855C927.311 320.606 926.601 318.866 925.18 317.635C923.783 316.404 921.795 315.788 919.214 315.788C916.492 315.788 914.325 316.392 912.716 317.599C911.106 318.783 910.04 320.275 909.52 322.074L895.528 320.938C896.238 317.623 897.635 314.759 899.718 312.344C901.802 309.905 904.489 308.035 907.78 306.733C911.094 305.407 914.929 304.744 919.285 304.744C922.316 304.744 925.216 305.099 927.985 305.81C930.779 306.52 933.253 307.621 935.407 309.112C937.585 310.604 939.302 312.521 940.557 314.865C941.811 317.185 942.439 319.967 942.439 323.21V360H928.092V352.436H927.666C926.79 354.141 925.618 355.644 924.15 356.946C922.682 358.224 920.919 359.231 918.859 359.964C916.799 360.675 914.42 361.03 911.721 361.03ZM916.054 350.589C918.279 350.589 920.244 350.152 921.949 349.276C923.653 348.376 924.991 347.169 925.961 345.653C926.932 344.138 927.417 342.422 927.417 340.504V334.716C926.944 335.024 926.293 335.308 925.464 335.568C924.659 335.805 923.748 336.03 922.73 336.243C921.712 336.432 920.694 336.61 919.676 336.776C918.658 336.918 917.735 337.048 916.906 337.166C915.13 337.427 913.58 337.841 912.254 338.409C910.928 338.977 909.898 339.747 909.164 340.717C908.431 341.664 908.064 342.848 908.064 344.268C908.064 346.328 908.809 347.902 910.301 348.991C911.816 350.057 913.734 350.589 916.054 350.589ZM966.671 287.273V360H951.544V287.273H966.671ZM77.0369 444V389.455H91.7031V398.972H92.2713C93.2656 395.586 94.9347 393.029 97.2784 391.301C99.6222 389.549 102.321 388.673 105.375 388.673C106.133 388.673 106.949 388.721 107.825 388.815C108.701 388.91 109.471 389.04 110.134 389.206V402.629C109.423 402.416 108.441 402.227 107.186 402.061C105.931 401.895 104.783 401.812 103.741 401.812C101.516 401.812 99.5275 402.298 97.7756 403.268C96.0473 404.215 94.6742 405.541 93.6562 407.246C92.6619 408.95 92.1648 410.915 92.1648 413.141V444H77.0369ZM137.642 445.065C132.031 445.065 127.202 443.929 123.154 441.656C119.129 439.36 116.028 436.116 113.85 431.926C111.672 427.712 110.583 422.729 110.583 416.976C110.583 411.365 111.672 406.441 113.85 402.203C116.028 397.965 119.093 394.663 123.047 392.295C127.024 389.928 131.688 388.744 137.039 388.744C140.637 388.744 143.987 389.324 147.088 390.484C150.213 391.621 152.936 393.337 155.256 395.634C157.6 397.93 159.423 400.818 160.725 404.298C162.027 407.755 162.678 411.803 162.678 416.443V420.598H116.619V411.223H148.438C148.438 409.045 147.964 407.116 147.017 405.435C146.07 403.754 144.756 402.44 143.075 401.493C141.418 400.522 139.489 400.037 137.287 400.037C134.991 400.037 132.955 400.57 131.179 401.635C129.427 402.677 128.054 404.085 127.06 405.861C126.066 407.613 125.557 409.566 125.533 411.72V420.634C125.533 423.332 126.03 425.664 127.024 427.629C128.042 429.594 129.475 431.109 131.321 432.175C133.168 433.24 135.358 433.773 137.891 433.773C139.572 433.773 141.11 433.536 142.507 433.062C143.904 432.589 145.1 431.879 146.094 430.932C147.088 429.985 147.846 428.825 148.367 427.452L162.358 428.375C161.648 431.737 160.192 434.672 157.99 437.182C155.812 439.668 152.995 441.609 149.539 443.006C146.106 444.379 142.14 445.065 137.642 445.065ZM215.302 405.009L201.452 405.861C201.216 404.677 200.707 403.612 199.925 402.665C199.144 401.694 198.114 400.925 196.836 400.357C195.581 399.765 194.078 399.469 192.326 399.469C189.982 399.469 188.005 399.966 186.396 400.96C184.786 401.931 183.981 403.233 183.981 404.866C183.981 406.169 184.502 407.269 185.543 408.169C186.585 409.069 188.372 409.791 190.906 410.335L200.778 412.324C206.081 413.413 210.034 415.165 212.638 417.58C215.243 419.994 216.545 423.167 216.545 427.097C216.545 430.671 215.491 433.808 213.384 436.507C211.301 439.206 208.436 441.313 204.79 442.828C201.168 444.32 196.99 445.065 192.255 445.065C185.034 445.065 179.281 443.562 174.996 440.555C170.735 437.525 168.237 433.406 167.504 428.197L182.383 427.416C182.833 429.618 183.922 431.299 185.65 432.459C187.378 433.595 189.592 434.163 192.29 434.163C194.942 434.163 197.073 433.654 198.683 432.636C200.316 431.595 201.145 430.257 201.168 428.624C201.145 427.25 200.565 426.126 199.428 425.25C198.292 424.35 196.54 423.664 194.173 423.19L184.727 421.308C179.4 420.243 175.434 418.396 172.83 415.768C170.25 413.141 168.959 409.791 168.959 405.719C168.959 402.215 169.906 399.196 171.8 396.663C173.718 394.13 176.405 392.177 179.861 390.804C183.342 389.431 187.414 388.744 192.077 388.744C198.967 388.744 204.388 390.2 208.342 393.112C212.319 396.024 214.639 399.99 215.302 405.009ZM248.084 445.065C242.568 445.065 237.798 443.893 233.773 441.55C229.772 439.182 226.682 435.892 224.504 431.678C222.326 427.44 221.237 422.527 221.237 416.94C221.237 411.306 222.326 406.382 224.504 402.168C226.682 397.93 229.772 394.639 233.773 392.295C237.798 389.928 242.568 388.744 248.084 388.744C253.6 388.744 258.359 389.928 262.36 392.295C266.384 394.639 269.485 397.93 271.664 402.168C273.842 406.382 274.931 411.306 274.931 416.94C274.931 422.527 273.842 427.44 271.664 431.678C269.485 435.892 266.384 439.182 262.36 441.55C258.359 443.893 253.6 445.065 248.084 445.065ZM248.155 433.347C250.664 433.347 252.76 432.636 254.44 431.216C256.121 429.772 257.388 427.807 258.24 425.321C259.116 422.835 259.554 420.006 259.554 416.834C259.554 413.661 259.116 410.832 258.24 408.347C257.388 405.861 256.121 403.896 254.44 402.452C252.76 401.008 250.664 400.286 248.155 400.286C245.622 400.286 243.491 401.008 241.763 402.452C240.058 403.896 238.768 405.861 237.892 408.347C237.04 410.832 236.614 413.661 236.614 416.834C236.614 420.006 237.04 422.835 237.892 425.321C238.768 427.807 240.058 429.772 241.763 431.216C243.491 432.636 245.622 433.347 248.155 433.347ZM317.114 420.776V389.455H332.242V444H317.718V434.092H317.15C315.919 437.288 313.871 439.857 311.006 441.798C308.165 443.74 304.697 444.71 300.602 444.71C296.956 444.71 293.748 443.882 290.978 442.224C288.208 440.567 286.042 438.212 284.479 435.158C282.941 432.104 282.159 428.446 282.136 424.185V389.455H297.263V421.486C297.287 424.705 298.151 427.25 299.856 429.121C301.56 430.991 303.845 431.926 306.709 431.926C308.532 431.926 310.237 431.512 311.823 430.683C313.409 429.831 314.688 428.576 315.658 426.919C316.653 425.262 317.138 423.214 317.114 420.776ZM341.711 444V389.455H356.377V398.972H356.945C357.94 395.586 359.609 393.029 361.953 391.301C364.296 389.549 366.995 388.673 370.049 388.673C370.807 388.673 371.623 388.721 372.499 388.815C373.375 388.91 374.145 389.04 374.808 389.206V402.629C374.097 402.416 373.115 402.227 371.86 402.061C370.605 401.895 369.457 401.812 368.416 401.812C366.19 401.812 364.202 402.298 362.45 403.268C360.721 404.215 359.348 405.541 358.33 407.246C357.336 408.95 356.839 410.915 356.839 413.141V444H341.711ZM402.103 445.065C396.516 445.065 391.71 443.882 387.686 441.514C383.685 439.123 380.607 435.809 378.453 431.571C376.322 427.333 375.257 422.456 375.257 416.94C375.257 411.353 376.334 406.453 378.488 402.239C380.666 398.001 383.756 394.698 387.757 392.331C391.758 389.94 396.516 388.744 402.032 388.744C406.791 388.744 410.957 389.608 414.532 391.337C418.107 393.065 420.936 395.491 423.019 398.616C425.103 401.741 426.251 405.411 426.464 409.625H412.189C411.786 406.902 410.721 404.713 408.993 403.055C407.288 401.375 405.051 400.534 402.281 400.534C399.937 400.534 397.889 401.173 396.137 402.452C394.409 403.706 393.06 405.541 392.089 407.956C391.118 410.371 390.633 413.295 390.633 416.727C390.633 420.207 391.107 423.167 392.054 425.605C393.024 428.044 394.385 429.902 396.137 431.18C397.889 432.459 399.937 433.098 402.281 433.098C404.009 433.098 405.56 432.743 406.933 432.033C408.33 431.322 409.478 430.293 410.377 428.943C411.301 427.57 411.904 425.925 412.189 424.007H426.464C426.227 428.174 425.091 431.843 423.055 435.016C421.043 438.164 418.261 440.626 414.71 442.402C411.159 444.178 406.957 445.065 402.103 445.065ZM458.376 445.065C452.765 445.065 447.936 443.929 443.888 441.656C439.863 439.36 436.762 436.116 434.584 431.926C432.406 427.712 431.317 422.729 431.317 416.976C431.317 411.365 432.406 406.441 434.584 402.203C436.762 397.965 439.827 394.663 443.781 392.295C447.758 389.928 452.422 388.744 457.772 388.744C461.371 388.744 464.721 389.324 467.822 390.484C470.947 391.621 473.67 393.337 475.99 395.634C478.334 397.93 480.156 400.818 481.459 404.298C482.761 407.755 483.412 411.803 483.412 416.443V420.598H437.353V411.223H469.172C469.172 409.045 468.698 407.116 467.751 405.435C466.804 403.754 465.49 402.44 463.809 401.493C462.152 400.522 460.223 400.037 458.021 400.037C455.725 400.037 453.689 400.57 451.913 401.635C450.161 402.677 448.788 404.085 447.794 405.861C446.799 407.613 446.29 409.566 446.267 411.72V420.634C446.267 423.332 446.764 425.664 447.758 427.629C448.776 429.594 450.209 431.109 452.055 432.175C453.902 433.24 456.092 433.773 458.625 433.773C460.306 433.773 461.844 433.536 463.241 433.062C464.638 432.589 465.834 431.879 466.828 430.932C467.822 429.985 468.58 428.825 469.101 427.452L483.092 428.375C482.382 431.737 480.926 434.672 478.724 437.182C476.546 439.668 473.729 441.609 470.272 443.006C466.84 444.379 462.874 445.065 458.376 445.065ZM536.036 405.009L522.186 405.861C521.95 404.677 521.441 403.612 520.659 402.665C519.878 401.694 518.848 400.925 517.57 400.357C516.315 399.765 514.812 399.469 513.06 399.469C510.716 399.469 508.739 399.966 507.13 400.96C505.52 401.931 504.715 403.233 504.715 404.866C504.715 406.169 505.236 407.269 506.277 408.169C507.319 409.069 509.106 409.791 511.639 410.335L521.512 412.324C526.815 413.413 530.768 415.165 533.372 417.58C535.977 419.994 537.279 423.167 537.279 427.097C537.279 430.671 536.225 433.808 534.118 436.507C532.035 439.206 529.17 441.313 525.524 442.828C521.902 444.32 517.724 445.065 512.989 445.065C505.768 445.065 500.015 443.562 495.73 440.555C491.469 437.525 488.971 433.406 488.237 428.197L503.117 427.416C503.567 429.618 504.656 431.299 506.384 432.459C508.112 433.595 510.326 434.163 513.024 434.163C515.676 434.163 517.807 433.654 519.416 432.636C521.05 431.595 521.879 430.257 521.902 428.624C521.879 427.25 521.299 426.126 520.162 425.25C519.026 424.35 517.274 423.664 514.907 423.19L505.46 421.308C500.134 420.243 496.168 418.396 493.564 415.768C490.984 413.141 489.693 409.791 489.693 405.719C489.693 402.215 490.64 399.196 492.534 396.663C494.452 394.13 497.139 392.177 500.595 390.804C504.076 389.431 508.148 388.744 512.811 388.744C519.701 388.744 525.122 390.2 529.076 393.112C533.053 396.024 535.373 399.99 536.036 405.009Z" fill="black"/>
<rect x="71" y="498" width="1038" height="19" fill="black"/>
</svg>
