<svg width="1200" height="900" viewBox="0 0 1200 900" fill="none" xmlns="http://www.w3.org/2000/svg">
<rect width="1200" height="900" fill="white"/>
<rect x="71" y="159" width="1038" height="8" fill="black"/>
<path d="M74.0657 141V105.727H81.5233V120.281H96.6623V105.727H104.103V141H96.6623V126.429H81.5233V141H74.0657ZM108.569 141V114.545H115.906V141H108.569ZM112.255 111.135C111.164 111.135 110.228 110.774 109.447 110.05C108.678 109.315 108.293 108.437 108.293 107.415C108.293 106.405 108.678 105.538 109.447 104.814C110.228 104.08 111.164 103.712 112.255 103.712C113.345 103.712 114.275 104.08 115.045 104.814C115.826 105.538 116.216 106.405 116.216 107.415C116.216 108.437 115.826 109.315 115.045 110.05C114.275 110.774 113.345 111.135 112.255 111.135ZM132.295 141.517C129.574 141.517 127.231 140.966 125.268 139.863C123.316 138.75 121.812 137.176 120.755 135.144C119.699 133.1 119.171 130.683 119.171 127.893C119.171 125.172 119.699 122.784 120.755 120.729C121.812 118.673 123.299 117.071 125.216 115.923C127.145 114.775 129.407 114.201 132.002 114.201C133.747 114.201 135.372 114.482 136.876 115.045C138.392 115.596 139.712 116.429 140.837 117.542C141.974 118.656 142.858 120.057 143.49 121.745C144.121 123.421 144.437 125.384 144.437 127.635V129.65H122.099V125.103H137.531C137.531 124.047 137.301 123.111 136.842 122.296C136.382 121.481 135.745 120.843 134.93 120.384C134.126 119.913 133.19 119.678 132.123 119.678C131.009 119.678 130.021 119.936 129.16 120.453C128.31 120.958 127.645 121.641 127.162 122.502C126.68 123.352 126.433 124.299 126.422 125.344V129.667C126.422 130.976 126.663 132.107 127.145 133.06C127.639 134.013 128.333 134.748 129.229 135.265C130.125 135.781 131.187 136.04 132.415 136.04C133.231 136.04 133.977 135.925 134.654 135.695C135.332 135.466 135.912 135.121 136.394 134.662C136.876 134.203 137.243 133.64 137.496 132.974L144.282 133.422C143.938 135.052 143.231 136.476 142.164 137.693C141.107 138.899 139.741 139.84 138.064 140.518C136.4 141.184 134.476 141.517 132.295 141.517ZM147.68 141V114.545H154.793V119.161H155.069C155.551 117.519 156.361 116.279 157.498 115.441C158.634 114.591 159.943 114.167 161.424 114.167C161.792 114.167 162.188 114.19 162.613 114.235C163.038 114.281 163.411 114.345 163.732 114.425V120.935C163.388 120.832 162.911 120.74 162.303 120.66C161.694 120.579 161.137 120.539 160.632 120.539C159.553 120.539 158.588 120.774 157.739 121.245C156.9 121.704 156.234 122.347 155.741 123.174C155.259 124.001 155.017 124.954 155.017 126.033V141H147.68ZM172.767 141.499C171.079 141.499 169.575 141.207 168.254 140.621C166.934 140.024 165.889 139.146 165.12 137.986C164.362 136.815 163.983 135.357 163.983 133.611C163.983 132.142 164.253 130.907 164.793 129.908C165.332 128.909 166.067 128.106 166.997 127.497C167.927 126.889 168.984 126.429 170.166 126.119C171.36 125.809 172.612 125.591 173.921 125.465C175.459 125.304 176.699 125.155 177.641 125.017C178.583 124.868 179.266 124.65 179.691 124.363C180.115 124.076 180.328 123.651 180.328 123.088V122.985C180.328 121.894 179.983 121.05 179.294 120.453C178.617 119.856 177.652 119.557 176.401 119.557C175.081 119.557 174.03 119.85 173.249 120.436C172.468 121.01 171.952 121.733 171.699 122.606L164.913 122.055C165.258 120.447 165.935 119.058 166.946 117.887C167.956 116.704 169.259 115.797 170.855 115.165C172.463 114.522 174.323 114.201 176.435 114.201C177.905 114.201 179.312 114.373 180.655 114.718C182.01 115.062 183.21 115.596 184.255 116.319C185.311 117.043 186.143 117.973 186.752 119.11C187.361 120.235 187.665 121.584 187.665 123.157V141H180.707V137.331H180.5C180.075 138.158 179.507 138.887 178.795 139.519C178.083 140.139 177.228 140.627 176.229 140.983C175.23 141.327 174.076 141.499 172.767 141.499ZM174.868 136.436C175.947 136.436 176.9 136.223 177.727 135.799C178.554 135.362 179.203 134.777 179.673 134.042C180.144 133.307 180.379 132.475 180.379 131.545V128.737C180.15 128.886 179.834 129.024 179.432 129.151C179.042 129.265 178.6 129.374 178.106 129.478C177.612 129.57 177.119 129.656 176.625 129.736C176.131 129.805 175.683 129.868 175.281 129.926C174.42 130.052 173.668 130.253 173.025 130.528C172.382 130.804 171.883 131.177 171.527 131.648C171.171 132.107 170.993 132.681 170.993 133.37C170.993 134.369 171.355 135.133 172.078 135.661C172.813 136.178 173.743 136.436 174.868 136.436ZM191.812 141V114.545H198.926V119.161H199.201C199.683 117.519 200.493 116.279 201.63 115.441C202.766 114.591 204.075 114.167 205.556 114.167C205.924 114.167 206.32 114.19 206.745 114.235C207.17 114.281 207.543 114.345 207.864 114.425V120.935C207.52 120.832 207.043 120.74 206.435 120.66C205.826 120.579 205.269 120.539 204.764 120.539C203.685 120.539 202.72 120.774 201.871 121.245C201.032 121.704 200.366 122.347 199.873 123.174C199.391 124.001 199.149 124.954 199.149 126.033V141H191.812ZM220.834 141.517C218.125 141.517 215.794 140.943 213.842 139.794C211.901 138.635 210.409 137.027 209.364 134.972C208.33 132.917 207.814 130.551 207.814 127.876C207.814 125.166 208.336 122.79 209.381 120.746C210.437 118.69 211.936 117.089 213.876 115.941C215.817 114.781 218.125 114.201 220.8 114.201C223.108 114.201 225.129 114.62 226.862 115.458C228.596 116.296 229.968 117.473 230.979 118.989C231.989 120.505 232.546 122.284 232.649 124.328H225.726C225.53 123.008 225.014 121.946 224.176 121.142C223.349 120.327 222.264 119.919 220.92 119.919C219.784 119.919 218.791 120.229 217.941 120.849C217.103 121.458 216.448 122.347 215.977 123.519C215.507 124.69 215.271 126.108 215.271 127.773C215.271 129.461 215.501 130.896 215.96 132.078C216.431 133.261 217.091 134.162 217.941 134.782C218.791 135.403 219.784 135.713 220.92 135.713C221.759 135.713 222.511 135.54 223.177 135.196C223.854 134.851 224.411 134.352 224.847 133.697C225.295 133.031 225.588 132.233 225.726 131.303H232.649C232.535 133.324 231.983 135.104 230.996 136.643C230.02 138.17 228.671 139.364 226.949 140.225C225.226 141.086 223.188 141.517 220.834 141.517ZM243.139 125.706V141H235.802V105.727H242.933V119.213H243.243C243.84 117.651 244.804 116.429 246.136 115.544C247.468 114.649 249.139 114.201 251.148 114.201C252.985 114.201 254.587 114.603 255.953 115.407C257.331 116.199 258.399 117.341 259.157 118.834C259.926 120.315 260.305 122.089 260.293 124.156V141H252.956V125.465C252.968 123.834 252.555 122.566 251.716 121.659C250.89 120.751 249.73 120.298 248.237 120.298C247.238 120.298 246.354 120.51 245.585 120.935C244.827 121.36 244.23 121.98 243.794 122.795C243.369 123.599 243.151 124.569 243.139 125.706ZM264.523 141V114.545H271.86V141H264.523ZM268.209 111.135C267.118 111.135 266.182 110.774 265.401 110.05C264.632 109.315 264.247 108.437 264.247 107.415C264.247 106.405 264.632 105.538 265.401 104.814C266.182 104.08 267.118 103.712 268.209 103.712C269.299 103.712 270.229 104.08 270.999 104.814C271.78 105.538 272.17 106.405 272.17 107.415C272.17 108.437 271.78 109.315 270.999 110.05C270.229 110.774 269.299 111.135 268.209 111.135ZM283.736 141.499C282.048 141.499 280.544 141.207 279.224 140.621C277.903 140.024 276.859 139.146 276.089 137.986C275.332 136.815 274.953 135.357 274.953 133.611C274.953 132.142 275.222 130.907 275.762 129.908C276.302 128.909 277.037 128.106 277.967 127.497C278.897 126.889 279.953 126.429 281.136 126.119C282.33 125.809 283.581 125.591 284.89 125.465C286.429 125.304 287.669 125.155 288.61 125.017C289.552 124.868 290.235 124.65 290.66 124.363C291.085 124.076 291.297 123.651 291.297 123.088V122.985C291.297 121.894 290.953 121.05 290.264 120.453C289.586 119.856 288.622 119.557 287.37 119.557C286.05 119.557 284.999 119.85 284.219 120.436C283.438 121.01 282.921 121.733 282.669 122.606L275.883 122.055C276.227 120.447 276.905 119.058 277.915 117.887C278.925 116.704 280.229 115.797 281.825 115.165C283.432 114.522 285.292 114.201 287.405 114.201C288.875 114.201 290.281 114.373 291.624 114.718C292.979 115.062 294.179 115.596 295.224 116.319C296.28 117.043 297.113 117.973 297.721 119.11C298.33 120.235 298.634 121.584 298.634 123.157V141H291.676V137.331H291.469C291.045 138.158 290.476 138.887 289.764 139.519C289.053 140.139 288.197 140.627 287.198 140.983C286.199 141.327 285.045 141.499 283.736 141.499ZM285.838 136.436C286.917 136.436 287.87 136.223 288.697 135.799C289.523 135.362 290.172 134.777 290.643 134.042C291.114 133.307 291.349 132.475 291.349 131.545V128.737C291.119 128.886 290.804 129.024 290.402 129.151C290.011 129.265 289.569 129.374 289.075 129.478C288.582 129.57 288.088 129.656 287.594 129.736C287.101 129.805 286.653 129.868 286.251 129.926C285.39 130.052 284.638 130.253 283.995 130.528C283.352 130.804 282.852 131.177 282.496 131.648C282.14 132.107 281.962 132.681 281.962 133.37C281.962 134.369 282.324 135.133 283.047 135.661C283.782 136.178 284.712 136.436 285.838 136.436ZM310.119 105.727V141H302.782V105.727H310.119ZM353.773 105.727V141H347.332L331.986 118.8H331.727V141H324.27V105.727H330.815L346.04 127.911H346.35V105.727H353.773ZM365.796 141.499C364.108 141.499 362.604 141.207 361.283 140.621C359.963 140.024 358.918 139.146 358.149 137.986C357.391 136.815 357.012 135.357 357.012 133.611C357.012 132.142 357.282 130.907 357.822 129.908C358.361 128.909 359.096 128.106 360.026 127.497C360.956 126.889 362.012 126.429 363.195 126.119C364.389 125.809 365.641 125.591 366.95 125.465C368.488 125.304 369.728 125.155 370.67 125.017C371.611 124.868 372.295 124.65 372.719 124.363C373.144 124.076 373.357 123.651 373.357 123.088V122.985C373.357 121.894 373.012 121.05 372.323 120.453C371.646 119.856 370.681 119.557 369.43 119.557C368.109 119.557 367.059 119.85 366.278 120.436C365.497 121.01 364.981 121.733 364.728 122.606L357.942 122.055C358.287 120.447 358.964 119.058 359.974 117.887C360.985 116.704 362.288 115.797 363.884 115.165C365.492 114.522 367.352 114.201 369.464 114.201C370.934 114.201 372.341 114.373 373.684 114.718C375.039 115.062 376.239 115.596 377.284 116.319C378.34 117.043 379.172 117.973 379.781 119.11C380.389 120.235 380.694 121.584 380.694 123.157V141H373.736V137.331H373.529C373.104 138.158 372.536 138.887 371.824 139.519C371.112 140.139 370.257 140.627 369.258 140.983C368.259 141.327 367.105 141.499 365.796 141.499ZM367.897 136.436C368.976 136.436 369.929 136.223 370.756 135.799C371.583 135.362 372.231 134.777 372.702 134.042C373.173 133.307 373.408 132.475 373.408 131.545V128.737C373.179 128.886 372.863 129.024 372.461 129.151C372.071 129.265 371.629 129.374 371.135 129.478C370.641 129.57 370.147 129.656 369.654 129.736C369.16 129.805 368.712 129.868 368.31 129.926C367.449 130.052 366.697 130.253 366.054 130.528C365.411 130.804 364.912 131.177 364.556 131.648C364.2 132.107 364.022 132.681 364.022 133.37C364.022 134.369 364.383 135.133 365.107 135.661C365.842 136.178 366.772 136.436 367.897 136.436ZM384.841 141V114.545H391.834V119.213H392.144C392.695 117.663 393.614 116.44 394.9 115.544C396.186 114.649 397.724 114.201 399.515 114.201C401.329 114.201 402.874 114.655 404.148 115.562C405.423 116.457 406.272 117.674 406.697 119.213H406.973C407.513 117.697 408.488 116.486 409.901 115.579C411.325 114.66 413.007 114.201 414.947 114.201C417.416 114.201 419.419 114.988 420.958 116.561C422.508 118.122 423.283 120.338 423.283 123.209V141H415.963V124.655C415.963 123.186 415.573 122.083 414.792 121.349C414.011 120.614 413.035 120.246 411.864 120.246C410.532 120.246 409.493 120.671 408.747 121.521C408.001 122.359 407.627 123.467 407.627 124.845V141H400.514V124.5C400.514 123.203 400.141 122.17 399.395 121.4C398.66 120.631 397.69 120.246 396.484 120.246C395.669 120.246 394.934 120.453 394.28 120.866C393.637 121.268 393.126 121.837 392.747 122.571C392.368 123.295 392.178 124.144 392.178 125.12V141H384.841ZM439.59 141.517C436.869 141.517 434.527 140.966 432.563 139.863C430.611 138.75 429.107 137.176 428.051 135.144C426.994 133.1 426.466 130.683 426.466 127.893C426.466 125.172 426.994 122.784 428.051 120.729C429.107 118.673 430.594 117.071 432.511 115.923C434.44 114.775 436.702 114.201 439.297 114.201C441.043 114.201 442.667 114.482 444.171 115.045C445.687 115.596 447.008 116.429 448.133 117.542C449.269 118.656 450.154 120.057 450.785 121.745C451.417 123.421 451.732 125.384 451.732 127.635V129.65H429.394V125.103H444.826C444.826 124.047 444.596 123.111 444.137 122.296C443.678 121.481 443.04 120.843 442.225 120.384C441.422 119.913 440.486 119.678 439.418 119.678C438.304 119.678 437.317 119.936 436.456 120.453C435.606 120.958 434.94 121.641 434.458 122.502C433.975 123.352 433.729 124.299 433.717 125.344V129.667C433.717 130.976 433.958 132.107 434.44 133.06C434.934 134.013 435.629 134.748 436.524 135.265C437.42 135.781 438.482 136.04 439.711 136.04C440.526 136.04 441.272 135.925 441.95 135.695C442.627 135.466 443.207 135.121 443.689 134.662C444.171 134.203 444.539 133.64 444.791 132.974L451.577 133.422C451.233 135.052 450.527 136.476 449.459 137.693C448.403 138.899 447.036 139.84 445.36 140.518C443.695 141.184 441.772 141.517 439.59 141.517ZM476.987 122.089L470.27 122.502C470.155 121.928 469.908 121.412 469.529 120.952C469.15 120.482 468.651 120.108 468.031 119.833C467.422 119.546 466.693 119.402 465.843 119.402C464.707 119.402 463.748 119.643 462.967 120.126C462.186 120.596 461.796 121.228 461.796 122.02C461.796 122.652 462.049 123.186 462.554 123.622C463.059 124.058 463.926 124.408 465.155 124.673L469.943 125.637C472.515 126.165 474.432 127.015 475.695 128.186C476.958 129.357 477.59 130.896 477.59 132.802C477.59 134.536 477.079 136.057 476.057 137.366C475.046 138.675 473.657 139.697 471.889 140.432C470.132 141.155 468.105 141.517 465.809 141.517C462.307 141.517 459.517 140.788 457.439 139.329C455.372 137.86 454.161 135.862 453.805 133.336L461.021 132.957C461.239 134.025 461.767 134.84 462.606 135.403C463.444 135.954 464.517 136.229 465.826 136.229C467.112 136.229 468.146 135.982 468.926 135.489C469.719 134.983 470.121 134.335 470.132 133.542C470.121 132.876 469.839 132.331 469.288 131.906C468.737 131.47 467.887 131.137 466.739 130.907L462.158 129.994C459.574 129.478 457.651 128.582 456.388 127.308C455.137 126.033 454.511 124.408 454.511 122.434C454.511 120.734 454.97 119.27 455.889 118.042C456.819 116.813 458.122 115.866 459.798 115.2C461.486 114.534 463.461 114.201 465.723 114.201C469.064 114.201 471.694 114.907 473.611 116.319C475.54 117.732 476.665 119.655 476.987 122.089ZM480.665 150.92V114.545H487.899V118.989H488.226C488.547 118.277 489.012 117.554 489.621 116.819C490.241 116.073 491.045 115.453 492.032 114.959C493.031 114.454 494.271 114.201 495.752 114.201C497.681 114.201 499.461 114.706 501.092 115.717C502.722 116.716 504.025 118.225 505.001 120.246C505.977 122.256 506.465 124.776 506.465 127.807C506.465 130.758 505.989 133.25 505.036 135.282C504.094 137.303 502.808 138.836 501.178 139.881C499.559 140.914 497.745 141.431 495.735 141.431C494.311 141.431 493.1 141.195 492.101 140.724C491.114 140.254 490.304 139.662 489.673 138.95C489.041 138.227 488.559 137.498 488.226 136.763H488.002V150.92H480.665ZM487.847 127.773C487.847 129.346 488.065 130.718 488.502 131.889C488.938 133.06 489.569 133.973 490.396 134.627C491.223 135.27 492.227 135.592 493.41 135.592C494.604 135.592 495.615 135.265 496.441 134.61C497.268 133.944 497.894 133.026 498.319 131.855C498.755 130.672 498.973 129.311 498.973 127.773C498.973 126.246 498.761 124.902 498.336 123.743C497.911 122.583 497.285 121.676 496.459 121.021C495.632 120.367 494.616 120.04 493.41 120.04C492.216 120.04 491.206 120.355 490.379 120.987C489.564 121.618 488.938 122.514 488.502 123.674C488.065 124.833 487.847 126.2 487.847 127.773ZM517.356 141.499C515.668 141.499 514.164 141.207 512.843 140.621C511.523 140.024 510.478 139.146 509.709 137.986C508.951 136.815 508.572 135.357 508.572 133.611C508.572 132.142 508.842 130.907 509.381 129.908C509.921 128.909 510.656 128.106 511.586 127.497C512.516 126.889 513.572 126.429 514.755 126.119C515.949 125.809 517.201 125.591 518.51 125.465C520.048 125.304 521.288 125.155 522.23 125.017C523.171 124.868 523.854 124.65 524.279 124.363C524.704 124.076 524.916 123.651 524.916 123.088V122.985C524.916 121.894 524.572 121.05 523.883 120.453C523.206 119.856 522.241 119.557 520.99 119.557C519.669 119.557 518.619 119.85 517.838 120.436C517.057 121.01 516.54 121.733 516.288 122.606L509.502 122.055C509.846 120.447 510.524 119.058 511.534 117.887C512.545 116.704 513.848 115.797 515.444 115.165C517.051 114.522 518.911 114.201 521.024 114.201C522.494 114.201 523.9 114.373 525.244 114.718C526.599 115.062 527.798 115.596 528.843 116.319C529.9 117.043 530.732 117.973 531.341 119.11C531.949 120.235 532.253 121.584 532.253 123.157V141H525.295V137.331H525.089C524.664 138.158 524.096 138.887 523.384 139.519C522.672 140.139 521.816 140.627 520.817 140.983C519.818 141.327 518.665 141.499 517.356 141.499ZM519.457 136.436C520.536 136.436 521.489 136.223 522.316 135.799C523.142 135.362 523.791 134.777 524.262 134.042C524.733 133.307 524.968 132.475 524.968 131.545V128.737C524.738 128.886 524.423 129.024 524.021 129.151C523.63 129.265 523.188 129.374 522.695 129.478C522.201 129.57 521.707 129.656 521.214 129.736C520.72 129.805 520.272 129.868 519.87 129.926C519.009 130.052 518.257 130.253 517.614 130.528C516.971 130.804 516.471 131.177 516.116 131.648C515.76 132.107 515.582 132.681 515.582 133.37C515.582 134.369 515.943 135.133 516.667 135.661C517.401 136.178 518.332 136.436 519.457 136.436ZM548.354 141.517C545.644 141.517 543.313 140.943 541.361 139.794C539.421 138.635 537.928 137.027 536.883 134.972C535.85 132.917 535.333 130.551 535.333 127.876C535.333 125.166 535.856 122.79 536.901 120.746C537.957 118.69 539.455 117.089 541.396 115.941C543.336 114.781 545.644 114.201 548.319 114.201C550.627 114.201 552.648 114.62 554.382 115.458C556.116 116.296 557.488 117.473 558.498 118.989C559.509 120.505 560.066 122.284 560.169 124.328H553.245C553.05 123.008 552.533 121.946 551.695 121.142C550.868 120.327 549.783 119.919 548.44 119.919C547.303 119.919 546.31 120.229 545.46 120.849C544.622 121.458 543.968 122.347 543.497 123.519C543.026 124.69 542.791 126.108 542.791 127.773C542.791 129.461 543.02 130.896 543.48 132.078C543.951 133.261 544.611 134.162 545.46 134.782C546.31 135.403 547.303 135.713 548.44 135.713C549.278 135.713 550.03 135.54 550.696 135.196C551.374 134.851 551.931 134.352 552.367 133.697C552.815 133.031 553.107 132.233 553.245 131.303H560.169C560.054 133.324 559.503 135.104 558.515 136.643C557.539 138.17 556.19 139.364 554.468 140.225C552.746 141.086 550.708 141.517 548.354 141.517ZM575.378 141.517C572.657 141.517 570.314 140.966 568.351 139.863C566.399 138.75 564.895 137.176 563.839 135.144C562.782 133.1 562.254 130.683 562.254 127.893C562.254 125.172 562.782 122.784 563.839 120.729C564.895 118.673 566.382 117.071 568.299 115.923C570.228 114.775 572.49 114.201 575.085 114.201C576.83 114.201 578.455 114.482 579.959 115.045C581.475 115.596 582.795 116.429 583.921 117.542C585.057 118.656 585.941 120.057 586.573 121.745C587.204 123.421 587.52 125.384 587.52 127.635V129.65H565.182V125.103H580.614C580.614 124.047 580.384 123.111 579.925 122.296C579.466 121.481 578.828 120.843 578.013 120.384C577.209 119.913 576.274 119.678 575.206 119.678C574.092 119.678 573.105 119.936 572.243 120.453C571.394 120.958 570.728 121.641 570.245 122.502C569.763 123.352 569.516 124.299 569.505 125.344V129.667C569.505 130.976 569.746 132.107 570.228 133.06C570.722 134.013 571.417 134.748 572.312 135.265C573.208 135.781 574.27 136.04 575.499 136.04C576.314 136.04 577.06 135.925 577.737 135.695C578.415 135.466 578.995 135.121 579.477 134.662C579.959 134.203 580.327 133.64 580.579 132.974L587.365 133.422C587.021 135.052 586.315 136.476 585.247 137.693C584.19 138.899 582.824 139.84 581.148 140.518C579.483 141.184 577.56 141.517 575.378 141.517ZM631.704 118.076H624.16C624.022 117.1 623.741 116.233 623.316 115.475C622.891 114.706 622.346 114.052 621.68 113.512C621.014 112.972 620.245 112.559 619.372 112.272C618.511 111.985 617.575 111.841 616.565 111.841C614.739 111.841 613.149 112.295 611.794 113.202C610.439 114.098 609.389 115.407 608.642 117.129C607.896 118.84 607.523 120.918 607.523 123.364C607.523 125.878 607.896 127.991 608.642 129.702C609.4 131.413 610.456 132.704 611.811 133.577C613.166 134.45 614.733 134.886 616.513 134.886C617.512 134.886 618.436 134.754 619.286 134.49C620.147 134.226 620.911 133.841 621.577 133.336C622.243 132.819 622.794 132.193 623.23 131.458C623.678 130.724 623.988 129.885 624.16 128.944L631.704 128.978C631.509 130.597 631.021 132.159 630.24 133.663C629.471 135.156 628.431 136.493 627.123 137.676C625.825 138.847 624.275 139.777 622.472 140.466C620.681 141.144 618.655 141.482 616.393 141.482C613.247 141.482 610.433 140.77 607.953 139.347C605.485 137.923 603.533 135.862 602.097 133.164C600.674 130.465 599.962 127.199 599.962 123.364C599.962 119.517 600.685 116.245 602.132 113.547C603.579 110.848 605.542 108.793 608.022 107.381C610.502 105.957 613.292 105.245 616.393 105.245C618.436 105.245 620.331 105.532 622.076 106.106C623.833 106.68 625.389 107.518 626.744 108.621C628.099 109.712 629.201 111.049 630.05 112.634C630.912 114.218 631.463 116.032 631.704 118.076ZM647.322 141.517C644.647 141.517 642.333 140.948 640.381 139.812C638.441 138.663 636.942 137.067 635.886 135.024C634.83 132.968 634.301 130.586 634.301 127.876C634.301 125.143 634.83 122.755 635.886 120.711C636.942 118.656 638.441 117.06 640.381 115.923C642.333 114.775 644.647 114.201 647.322 114.201C649.997 114.201 652.305 114.775 654.246 115.923C656.198 117.06 657.702 118.656 658.758 120.711C659.814 122.755 660.343 125.143 660.343 127.876C660.343 130.586 659.814 132.968 658.758 135.024C657.702 137.067 656.198 138.663 654.246 139.812C652.305 140.948 649.997 141.517 647.322 141.517ZM647.356 135.833C648.574 135.833 649.59 135.489 650.405 134.8C651.22 134.099 651.834 133.146 652.248 131.941C652.673 130.735 652.885 129.363 652.885 127.824C652.885 126.286 652.673 124.914 652.248 123.708C651.834 122.502 651.22 121.549 650.405 120.849C649.59 120.149 648.574 119.798 647.356 119.798C646.128 119.798 645.095 120.149 644.256 120.849C643.43 121.549 642.804 122.502 642.379 123.708C641.966 124.914 641.759 126.286 641.759 127.824C641.759 129.363 641.966 130.735 642.379 131.941C642.804 133.146 643.43 134.099 644.256 134.8C645.095 135.489 646.128 135.833 647.356 135.833ZM670.906 125.706V141H663.569V114.545H670.561V119.213H670.871C671.457 117.674 672.439 116.457 673.816 115.562C675.194 114.655 676.865 114.201 678.828 114.201C680.665 114.201 682.267 114.603 683.634 115.407C685 116.21 686.062 117.359 686.82 118.851C687.578 120.332 687.957 122.101 687.957 124.156V141H680.62V125.465C680.631 123.846 680.218 122.583 679.38 121.676C678.541 120.757 677.387 120.298 675.918 120.298C674.93 120.298 674.058 120.51 673.3 120.935C672.553 121.36 671.968 121.98 671.543 122.795C671.13 123.599 670.917 124.569 670.906 125.706ZM706.266 114.545V120.057H690.335V114.545H706.266ZM693.951 108.207H701.288V132.871C701.288 133.548 701.392 134.076 701.598 134.455C701.805 134.823 702.092 135.081 702.46 135.23C702.838 135.38 703.275 135.454 703.768 135.454C704.113 135.454 704.457 135.425 704.802 135.368C705.146 135.299 705.41 135.248 705.594 135.213L706.748 140.673C706.381 140.788 705.864 140.92 705.198 141.069C704.532 141.23 703.723 141.327 702.77 141.362C701.001 141.431 699.451 141.195 698.119 140.656C696.799 140.116 695.771 139.278 695.036 138.141C694.302 137.004 693.94 135.569 693.951 133.835V108.207ZM709.501 141V114.545H716.614V119.161H716.889C717.372 117.519 718.181 116.279 719.318 115.441C720.454 114.591 721.763 114.167 723.245 114.167C723.612 114.167 724.008 114.19 724.433 114.235C724.858 114.281 725.231 114.345 725.552 114.425V120.935C725.208 120.832 724.731 120.74 724.123 120.66C723.514 120.579 722.958 120.539 722.452 120.539C721.373 120.539 720.409 120.774 719.559 121.245C718.721 121.704 718.055 122.347 717.561 123.174C717.079 124.001 716.838 124.954 716.838 126.033V141H709.501ZM738.523 141.517C735.847 141.517 733.534 140.948 731.582 139.812C729.641 138.663 728.143 137.067 727.087 135.024C726.03 132.968 725.502 130.586 725.502 127.876C725.502 125.143 726.03 122.755 727.087 120.711C728.143 118.656 729.641 117.06 731.582 115.923C733.534 114.775 735.847 114.201 738.523 114.201C741.198 114.201 743.506 114.775 745.446 115.923C747.398 117.06 748.902 118.656 749.959 120.711C751.015 122.755 751.543 125.143 751.543 127.876C751.543 130.586 751.015 132.968 749.959 135.024C748.902 137.067 747.398 138.663 745.446 139.812C743.506 140.948 741.198 141.517 738.523 141.517ZM738.557 135.833C739.774 135.833 740.79 135.489 741.606 134.8C742.421 134.099 743.035 133.146 743.448 131.941C743.873 130.735 744.086 129.363 744.086 127.824C744.086 126.286 743.873 124.914 743.448 123.708C743.035 122.502 742.421 121.549 741.606 120.849C740.79 120.149 739.774 119.798 738.557 119.798C737.328 119.798 736.295 120.149 735.457 120.849C734.63 121.549 734.004 122.502 733.58 123.708C733.166 124.914 732.96 126.286 732.96 127.824C732.96 129.363 733.166 130.735 733.58 131.941C734.004 133.146 734.63 134.099 735.457 134.8C736.295 135.489 737.328 135.833 738.557 135.833ZM762.106 105.727V141H754.769V105.727H762.106ZM773.776 105.727V141H766.439V105.727H773.776ZM790.165 141.517C787.444 141.517 785.101 140.966 783.138 139.863C781.186 138.75 779.682 137.176 778.626 135.144C777.569 133.1 777.041 130.683 777.041 127.893C777.041 125.172 777.569 122.784 778.626 120.729C779.682 118.673 781.169 117.071 783.086 115.923C785.015 114.775 787.277 114.201 789.872 114.201C791.617 114.201 793.242 114.482 794.746 115.045C796.262 115.596 797.582 116.429 798.708 117.542C799.844 118.656 800.728 120.057 801.36 121.745C801.991 123.421 802.307 125.384 802.307 127.635V129.65H779.969V125.103H795.401C795.401 124.047 795.171 123.111 794.712 122.296C794.253 121.481 793.615 120.843 792.8 120.384C791.996 119.913 791.061 119.678 789.993 119.678C788.879 119.678 787.892 119.936 787.03 120.453C786.181 120.958 785.515 121.641 785.033 122.502C784.55 123.352 784.303 124.299 784.292 125.344V129.667C784.292 130.976 784.533 132.107 785.015 133.06C785.509 134.013 786.204 134.748 787.099 135.265C787.995 135.781 789.057 136.04 790.286 136.04C791.101 136.04 791.847 135.925 792.525 135.695C793.202 135.466 793.782 135.121 794.264 134.662C794.746 134.203 795.114 133.64 795.366 132.974L802.152 133.422C801.808 135.052 801.102 136.476 800.034 137.693C798.977 138.899 797.611 139.84 795.935 140.518C794.27 141.184 792.347 141.517 790.165 141.517ZM805.551 141V114.545H812.664V119.161H812.939C813.422 117.519 814.231 116.279 815.368 115.441C816.504 114.591 817.813 114.167 819.295 114.167C819.662 114.167 820.058 114.19 820.483 114.235C820.908 114.281 821.281 114.345 821.603 114.425V120.935C821.258 120.832 820.782 120.74 820.173 120.66C819.564 120.579 819.008 120.539 818.502 120.539C817.423 120.539 816.459 120.774 815.609 121.245C814.771 121.704 814.105 122.347 813.611 123.174C813.129 124.001 812.888 124.954 812.888 126.033V141H805.551Z" fill="black"/>
<path d="M76.3584 323.325V315.858C76.3584 313.738 76.7732 311.571 77.6029 309.359C78.4326 307.146 79.5273 305.06 80.8871 303.101C82.2469 301.142 83.7219 299.506 85.3121 298.192L91.8113 302.03C90.5207 304.058 89.4605 306.178 88.6309 308.391C87.8242 310.603 87.4209 313.069 87.4209 315.789V323.325H76.3584ZM93.8164 323.325V315.858C93.8164 313.738 94.2312 311.571 95.0609 309.359C95.8906 307.146 96.9854 305.06 98.3451 303.101C99.7049 301.142 101.18 299.506 102.77 298.192L109.269 302.03C107.979 304.058 106.919 306.178 106.089 308.391C105.282 310.603 104.879 313.069 104.879 315.789V323.325H93.8164ZM174.342 301.2V372H161.412L130.61 327.439H130.092V372H115.123V301.2H128.259L158.82 345.727H159.442V301.2H174.342ZM207.532 373.037C202.069 373.037 197.368 371.931 193.427 369.718C189.509 367.483 186.49 364.325 184.369 360.246C182.249 356.144 181.189 351.292 181.189 345.692C181.189 340.23 182.249 335.436 184.369 331.311C186.49 327.185 189.474 323.97 193.323 321.666C197.195 319.361 201.735 318.209 206.944 318.209C210.447 318.209 213.708 318.773 216.727 319.903C219.769 321.009 222.42 322.68 224.678 324.915C226.96 327.151 228.735 329.963 230.002 333.35C231.27 336.715 231.904 340.656 231.904 345.173V349.218H187.066V340.092H218.041C218.041 337.971 217.58 336.093 216.658 334.457C215.736 332.82 214.457 331.541 212.821 330.619C211.208 329.674 209.329 329.202 207.186 329.202C204.95 329.202 202.968 329.721 201.24 330.758C199.534 331.772 198.198 333.143 197.23 334.871C196.262 336.577 195.766 338.478 195.743 340.576V349.253C195.743 351.88 196.227 354.15 197.195 356.063C198.186 357.976 199.58 359.451 201.378 360.488C203.176 361.525 205.308 362.044 207.774 362.044C209.41 362.044 210.908 361.813 212.268 361.352C213.627 360.891 214.791 360.2 215.759 359.278C216.727 358.356 217.465 357.227 217.972 355.89L231.592 356.789C230.901 360.062 229.484 362.92 227.34 365.362C225.22 367.782 222.477 369.672 219.113 371.032C215.771 372.369 211.91 373.037 207.532 373.037ZM282.595 334.042L269.112 334.871C268.882 333.719 268.386 332.682 267.626 331.76C266.865 330.815 265.863 330.066 264.618 329.513C263.397 328.937 261.933 328.649 260.228 328.649C257.946 328.649 256.022 329.133 254.454 330.101C252.887 331.046 252.104 332.313 252.104 333.904C252.104 335.171 252.611 336.243 253.625 337.119C254.639 337.994 256.379 338.697 258.845 339.227L268.455 341.163C273.618 342.223 277.467 343.929 280.002 346.28C282.537 348.63 283.805 351.719 283.805 355.545C283.805 359.025 282.779 362.078 280.728 364.706C278.7 367.333 275.911 369.384 272.362 370.859C268.836 372.311 264.768 373.037 260.159 373.037C253.129 373.037 247.529 371.574 243.357 368.647C239.209 365.697 236.778 361.687 236.063 356.616L250.548 355.856C250.986 357.999 252.046 359.635 253.728 360.765C255.411 361.871 257.566 362.424 260.193 362.424C262.774 362.424 264.849 361.929 266.416 360.937C268.006 359.923 268.813 358.621 268.836 357.031C268.813 355.694 268.248 354.6 267.142 353.747C266.036 352.871 264.33 352.203 262.025 351.742L252.83 349.91C247.644 348.872 243.784 347.075 241.249 344.517C238.736 341.958 237.48 338.697 237.48 334.733C237.48 331.322 238.402 328.384 240.246 325.918C242.113 323.452 244.729 321.55 248.094 320.214C251.481 318.877 255.445 318.209 259.986 318.209C266.692 318.209 271.97 319.626 275.819 322.461C279.691 325.296 281.949 329.156 282.595 334.042ZM318.222 318.9V329.963H286.244V318.9H318.222ZM293.504 306.178H308.231V355.683C308.231 357.043 308.438 358.103 308.853 358.863C309.268 359.601 309.844 360.119 310.582 360.419C311.342 360.719 312.218 360.868 313.209 360.868C313.9 360.868 314.592 360.811 315.283 360.696C315.975 360.557 316.505 360.454 316.874 360.384L319.19 371.343C318.452 371.574 317.415 371.839 316.078 372.138C314.742 372.461 313.117 372.657 311.204 372.726C307.655 372.864 304.543 372.392 301.87 371.309C299.22 370.225 297.157 368.543 295.682 366.261C294.207 363.98 293.481 361.099 293.504 357.619V306.178ZM348.344 373.037C342.881 373.037 338.18 371.931 334.239 369.718C330.321 367.483 327.302 364.325 325.181 360.246C323.061 356.144 322.001 351.292 322.001 345.692C322.001 340.23 323.061 335.436 325.181 331.311C327.302 327.185 330.286 323.97 334.135 321.666C338.007 319.361 342.547 318.209 347.756 318.209C351.259 318.209 354.52 318.773 357.539 319.903C360.581 321.009 363.232 322.68 365.49 324.915C367.772 327.151 369.547 329.963 370.814 333.35C372.082 336.715 372.716 340.656 372.716 345.173V349.218H327.878V340.092H358.853C358.853 337.971 358.392 336.093 357.47 334.457C356.548 332.82 355.269 331.541 353.633 330.619C352.019 329.674 350.141 329.202 347.998 329.202C345.762 329.202 343.78 329.721 342.052 330.758C340.346 331.772 339.01 333.143 338.042 334.871C337.074 336.577 336.578 338.478 336.555 340.576V349.253C336.555 351.88 337.039 354.15 338.007 356.063C338.998 357.976 340.392 359.451 342.19 360.488C343.988 361.525 346.119 362.044 348.586 362.044C350.222 362.044 351.72 361.813 353.08 361.352C354.439 360.891 355.603 360.2 356.571 359.278C357.539 358.356 358.277 357.227 358.784 355.89L372.404 356.789C371.713 360.062 370.296 362.92 368.152 365.362C366.032 367.782 363.289 369.672 359.925 371.032C356.583 372.369 352.722 373.037 348.344 373.037ZM398.793 372.864C394.759 372.864 391.106 371.827 387.834 369.753C384.584 367.656 382.003 364.579 380.09 360.523C378.2 356.443 377.255 351.442 377.255 345.519C377.255 339.435 378.235 334.376 380.194 330.343C382.153 326.287 384.757 323.256 388.007 321.251C391.279 319.223 394.863 318.209 398.758 318.209C401.731 318.209 404.209 318.716 406.191 319.73C408.196 320.721 409.809 321.965 411.03 323.463C412.275 324.938 413.22 326.39 413.865 327.819H414.315V301.2H429.007V372H414.488V363.496H413.865C413.174 364.971 412.194 366.434 410.927 367.886C409.682 369.315 408.057 370.502 406.052 371.447C404.07 372.392 401.65 372.864 398.793 372.864ZM403.46 361.145C405.833 361.145 407.838 360.5 409.475 359.209C411.134 357.895 412.402 356.063 413.278 353.712C414.176 351.362 414.626 348.607 414.626 345.45C414.626 342.293 414.188 339.55 413.312 337.222C412.436 334.895 411.169 333.097 409.509 331.829C407.85 330.562 405.833 329.928 403.46 329.928C401.04 329.928 399 330.585 397.341 331.898C395.681 333.212 394.425 335.033 393.572 337.361C392.72 339.688 392.293 342.385 392.293 345.45C392.293 348.538 392.72 351.269 393.572 353.643C394.448 355.994 395.704 357.838 397.341 359.174C399 360.488 401.04 361.145 403.46 361.145ZM450.357 301.2V308.667C450.357 310.787 449.942 312.954 449.112 315.166C448.305 317.356 447.222 319.43 445.862 321.389C444.503 323.325 443.016 324.973 441.403 326.333L434.904 322.495C436.056 320.675 437.07 318.658 437.946 316.446C438.845 314.233 439.294 311.663 439.294 308.736V301.2H450.357ZM467.745 301.2V308.667C467.745 310.787 467.331 312.954 466.501 315.166C465.694 317.356 464.611 319.43 463.251 321.389C461.892 323.325 460.393 324.973 458.757 326.333L452.258 322.495C453.433 320.675 454.459 318.658 455.335 316.446C456.234 314.233 456.683 311.663 456.683 308.736V301.2H467.745ZM510.047 341.302V372H495.32V318.9H509.356V328.269H509.978C511.153 325.18 513.124 322.737 515.889 320.94C518.655 319.119 522.008 318.209 525.949 318.209C529.637 318.209 532.852 319.015 535.594 320.629C538.337 322.242 540.469 324.546 541.99 327.543C543.511 330.516 544.272 334.065 544.272 338.19V372H529.545V340.818C529.568 337.568 528.738 335.033 527.056 333.212C525.373 331.368 523.057 330.446 520.107 330.446C518.125 330.446 516.373 330.873 514.852 331.726C513.354 332.578 512.179 333.823 511.326 335.459C510.496 337.072 510.07 339.02 510.047 341.302ZM567.92 373.003C564.532 373.003 561.513 372.415 558.863 371.239C556.212 370.041 554.115 368.278 552.571 365.95C551.05 363.599 550.289 360.672 550.289 357.169C550.289 354.219 550.831 351.742 551.914 349.737C552.997 347.732 554.472 346.118 556.339 344.897C558.206 343.675 560.326 342.754 562.7 342.131C565.097 341.509 567.609 341.071 570.236 340.818C573.325 340.495 575.814 340.195 577.703 339.919C579.593 339.619 580.965 339.181 581.817 338.605C582.67 338.029 583.096 337.176 583.096 336.047V335.839C583.096 333.65 582.405 331.956 581.022 330.758C579.662 329.559 577.726 328.96 575.214 328.96C572.564 328.96 570.455 329.548 568.888 330.723C567.321 331.875 566.284 333.327 565.777 335.079L552.156 333.973C552.847 330.746 554.207 327.957 556.235 325.607C558.263 323.233 560.879 321.412 564.083 320.145C567.309 318.854 571.043 318.209 575.284 318.209C578.234 318.209 581.057 318.554 583.753 319.246C586.473 319.937 588.881 321.009 590.978 322.461C593.099 323.913 594.77 325.779 595.991 328.061C597.213 330.32 597.823 333.028 597.823 336.185V372H583.857V364.637H583.442C582.589 366.296 581.449 367.759 580.02 369.027C578.591 370.271 576.874 371.251 574.869 371.965C572.864 372.657 570.547 373.003 567.92 373.003ZM572.138 362.839C574.304 362.839 576.217 362.412 577.876 361.56C579.536 360.684 580.838 359.509 581.783 358.034C582.728 356.559 583.2 354.888 583.2 353.021V347.386C582.739 347.686 582.105 347.962 581.299 348.216C580.515 348.446 579.628 348.665 578.637 348.872C577.646 349.057 576.655 349.23 575.664 349.391C574.673 349.529 573.774 349.656 572.967 349.771C571.239 350.025 569.729 350.428 568.439 350.981C567.148 351.534 566.145 352.283 565.431 353.228C564.717 354.15 564.359 355.303 564.359 356.685C564.359 358.69 565.085 360.223 566.537 361.283C568.012 362.32 569.879 362.839 572.138 362.839ZM606.148 372V318.9H620.184V328.269H620.806C621.913 325.157 623.756 322.703 626.338 320.905C628.919 319.107 632.007 318.209 635.602 318.209C639.244 318.209 642.344 319.119 644.902 320.94C647.46 322.737 649.165 325.18 650.018 328.269H650.571C651.655 325.226 653.614 322.795 656.448 320.974C659.306 319.13 662.682 318.209 666.577 318.209C671.532 318.209 675.554 319.787 678.642 322.945C681.754 326.079 683.309 330.527 683.309 336.289V372H668.617V339.193C668.617 336.243 667.833 334.03 666.266 332.555C664.699 331.08 662.74 330.343 660.389 330.343C657.716 330.343 655.63 331.196 654.132 332.901C652.634 334.583 651.885 336.807 651.885 339.573V372H637.607V338.882C637.607 336.277 636.858 334.203 635.36 332.659C633.885 331.115 631.938 330.343 629.518 330.343C627.882 330.343 626.407 330.758 625.093 331.587C623.802 332.394 622.777 333.535 622.016 335.01C621.256 336.462 620.875 338.167 620.875 340.126V372H606.148ZM716.041 373.037C710.579 373.037 705.878 371.931 701.937 369.718C698.019 367.483 694.999 364.325 692.879 360.246C690.759 356.144 689.699 351.292 689.699 345.692C689.699 340.23 690.759 335.436 692.879 331.311C694.999 327.185 697.984 323.97 701.833 321.666C705.705 319.361 710.245 318.209 715.454 318.209C718.957 318.209 722.218 318.773 725.237 319.903C728.279 321.009 730.93 322.68 733.188 324.915C735.47 327.151 737.244 329.963 738.512 333.35C739.78 336.715 740.413 340.656 740.413 345.173V349.218H695.576V340.092H726.551C726.551 337.971 726.09 336.093 725.168 334.457C724.246 332.82 722.967 331.541 721.331 330.619C719.717 329.674 717.839 329.202 715.696 329.202C713.46 329.202 711.478 329.721 709.749 330.758C708.044 331.772 706.707 333.143 705.739 334.871C704.771 336.577 704.276 338.478 704.253 340.576V349.253C704.253 351.88 704.737 354.15 705.705 356.063C706.696 357.976 708.09 359.451 709.888 360.488C711.685 361.525 713.817 362.044 716.283 362.044C717.92 362.044 719.418 361.813 720.777 361.352C722.137 360.891 723.301 360.2 724.269 359.278C725.237 358.356 725.974 357.227 726.481 355.89L740.102 356.789C739.411 360.062 737.993 362.92 735.85 365.362C733.73 367.782 730.987 369.672 727.622 371.032C724.281 372.369 720.42 373.037 716.041 373.037ZM791.104 334.042L777.622 334.871C777.392 333.719 776.896 332.682 776.135 331.76C775.375 330.815 774.372 330.066 773.128 329.513C771.906 328.937 770.443 328.649 768.737 328.649C766.456 328.649 764.531 329.133 762.964 330.101C761.397 331.046 760.613 332.313 760.613 333.904C760.613 335.171 761.12 336.243 762.135 337.119C763.149 337.994 764.889 338.697 767.355 339.227L776.965 341.163C782.128 342.223 785.977 343.929 788.512 346.28C791.047 348.63 792.314 351.719 792.314 355.545C792.314 359.025 791.289 362.078 789.238 364.706C787.21 367.333 784.421 369.384 780.872 370.859C777.345 372.311 773.278 373.037 768.668 373.037C761.639 373.037 756.039 371.574 751.867 368.647C747.719 365.697 745.287 361.687 744.573 356.616L759.058 355.856C759.496 357.999 760.556 359.635 762.238 360.765C763.921 361.871 766.076 362.424 768.703 362.424C771.284 362.424 773.358 361.929 774.926 360.937C776.516 359.923 777.322 358.621 777.345 357.031C777.322 355.694 776.758 354.6 775.652 353.747C774.545 352.871 772.84 352.203 770.535 351.742L761.339 349.91C756.154 348.872 752.294 347.075 749.758 344.517C747.246 341.958 745.99 338.697 745.99 334.733C745.99 331.322 746.912 328.384 748.756 325.918C750.623 323.452 753.238 321.55 756.603 320.214C759.991 318.877 763.955 318.209 768.495 318.209C775.202 318.209 780.48 319.626 784.329 322.461C788.201 325.296 790.459 329.156 791.104 334.042ZM798.488 391.913V318.9H813.007V327.819H813.664C814.309 326.39 815.243 324.938 816.464 323.463C817.709 321.965 819.322 320.721 821.304 319.73C823.309 318.716 825.798 318.209 828.771 318.209C832.643 318.209 836.215 319.223 839.488 321.251C842.761 323.256 845.376 326.287 847.335 330.343C849.294 334.376 850.274 339.435 850.274 345.519C850.274 351.442 849.317 356.443 847.405 360.523C845.515 364.579 842.933 367.656 839.661 369.753C836.411 371.827 832.77 372.864 828.737 372.864C825.879 372.864 823.447 372.392 821.442 371.447C819.46 370.502 817.835 369.315 816.568 367.886C815.3 366.434 814.332 364.971 813.664 363.496H813.215V391.913H798.488ZM812.903 345.45C812.903 348.607 813.341 351.362 814.217 353.712C815.093 356.063 816.36 357.895 818.02 359.209C819.679 360.5 821.696 361.145 824.07 361.145C826.466 361.145 828.495 360.488 830.154 359.174C831.813 357.838 833.069 355.994 833.922 353.643C834.798 351.269 835.236 348.538 835.236 345.45C835.236 342.385 834.809 339.688 833.957 337.361C833.104 335.033 831.848 333.212 830.189 331.898C828.529 330.585 826.49 329.928 824.07 329.928C821.673 329.928 819.645 330.562 817.985 331.829C816.349 333.097 815.093 334.895 814.217 337.222C813.341 339.55 812.903 342.293 812.903 345.45ZM872.133 373.003C868.745 373.003 865.726 372.415 863.076 371.239C860.426 370.041 858.328 368.278 856.784 365.95C855.263 363.599 854.502 360.672 854.502 357.169C854.502 354.219 855.044 351.742 856.127 349.737C857.21 347.732 858.685 346.118 860.552 344.897C862.419 343.675 864.539 342.754 866.913 342.131C869.31 341.509 871.822 341.071 874.45 340.818C877.538 340.495 880.027 340.195 881.917 339.919C883.807 339.619 885.178 339.181 886.031 338.605C886.883 338.029 887.31 337.176 887.31 336.047V335.839C887.31 333.65 886.618 331.956 885.235 330.758C883.876 329.559 881.94 328.96 879.428 328.96C876.777 328.96 874.668 329.548 873.101 330.723C871.534 331.875 870.497 333.327 869.99 335.079L856.369 333.973C857.061 330.746 858.42 327.957 860.449 325.607C862.477 323.233 865.092 321.412 868.296 320.145C871.523 318.854 875.256 318.209 879.497 318.209C882.447 318.209 885.27 318.554 887.967 319.246C890.686 319.937 893.094 321.009 895.192 322.461C897.312 323.913 898.983 325.779 900.204 328.061C901.426 330.32 902.037 333.028 902.037 336.185V372H888.07V364.637H887.655C886.803 366.296 885.662 367.759 884.233 369.027C882.804 370.271 881.087 371.251 879.082 371.965C877.077 372.657 874.761 373.003 872.133 373.003ZM876.351 362.839C878.517 362.839 880.43 362.412 882.09 361.56C883.749 360.684 885.051 359.509 885.996 358.034C886.941 356.559 887.413 354.888 887.413 353.021V347.386C886.952 347.686 886.319 347.962 885.512 348.216C884.728 348.446 883.841 348.665 882.85 348.872C881.859 349.057 880.868 349.23 879.877 349.391C878.886 349.529 877.987 349.656 877.181 349.771C875.452 350.025 873.942 350.428 872.652 350.981C871.361 351.534 870.359 352.283 869.644 353.228C868.93 354.15 868.573 355.303 868.573 356.685C868.573 358.69 869.299 360.223 870.751 361.283C872.226 362.32 874.092 362.839 876.351 362.839ZM934.354 373.037C928.915 373.037 924.236 371.885 920.318 369.58C916.423 367.252 913.427 364.026 911.33 359.9C909.256 355.775 908.218 351.027 908.218 345.657C908.218 340.218 909.267 335.448 911.364 331.345C913.485 327.22 916.492 324.005 920.387 321.7C924.282 319.372 928.915 318.209 934.284 318.209C938.917 318.209 942.973 319.05 946.453 320.732C949.933 322.415 952.687 324.777 954.716 327.819C956.744 330.861 957.861 334.434 958.069 338.536H944.172C943.78 335.886 942.743 333.754 941.06 332.14C939.401 330.504 937.223 329.686 934.526 329.686C932.245 329.686 930.251 330.308 928.546 331.553C926.863 332.774 925.55 334.56 924.605 336.911C923.66 339.262 923.187 342.108 923.187 345.45C923.187 348.838 923.648 351.719 924.57 354.093C925.515 356.466 926.84 358.276 928.546 359.52C930.251 360.765 932.245 361.387 934.526 361.387C936.209 361.387 937.718 361.041 939.055 360.35C940.415 359.658 941.533 358.656 942.408 357.342C943.307 356.005 943.895 354.404 944.172 352.537H958.069C957.838 356.593 956.732 360.165 954.75 363.254C952.791 366.319 950.083 368.716 946.626 370.444C943.169 372.173 939.078 373.037 934.354 373.037ZM988.597 373.037C983.135 373.037 978.433 371.931 974.492 369.718C970.574 367.483 967.555 364.325 965.435 360.246C963.314 356.144 962.254 351.292 962.254 345.692C962.254 340.23 963.314 335.436 965.435 331.311C967.555 327.185 970.54 323.97 974.388 321.666C978.26 319.361 982.801 318.209 988.009 318.209C991.512 318.209 994.773 318.773 997.793 319.903C1000.83 321.009 1003.49 322.68 1005.74 324.915C1008.03 327.151 1009.8 329.963 1011.07 333.35C1012.34 336.715 1012.97 340.656 1012.97 345.173V349.218H968.131V340.092H999.106C999.106 337.971 998.645 336.093 997.723 334.457C996.801 332.82 995.522 331.541 993.886 330.619C992.273 329.674 990.394 329.202 988.251 329.202C986.016 329.202 984.034 329.721 982.305 330.758C980.6 331.772 979.263 333.143 978.295 334.871C977.327 336.577 976.831 338.478 976.808 340.576V349.253C976.808 351.88 977.292 354.15 978.26 356.063C979.251 357.976 980.646 359.451 982.443 360.488C984.241 361.525 986.373 362.044 988.839 362.044C990.475 362.044 991.973 361.813 993.333 361.352C994.693 360.891 995.857 360.2 996.825 359.278C997.793 358.356 998.53 357.227 999.037 355.89L1012.66 356.789C1011.97 360.062 1010.55 362.92 1008.41 365.362C1006.29 367.782 1003.54 369.672 1000.18 371.032C996.836 372.369 992.976 373.037 988.597 373.037ZM1063.66 334.042L1050.18 334.871C1049.95 333.719 1049.45 332.682 1048.69 331.76C1047.93 330.815 1046.93 330.066 1045.68 329.513C1044.46 328.937 1043 328.649 1041.29 328.649C1039.01 328.649 1037.09 329.133 1035.52 330.101C1033.95 331.046 1033.17 332.313 1033.17 333.904C1033.17 335.171 1033.68 336.243 1034.69 337.119C1035.7 337.994 1037.44 338.697 1039.91 339.227L1049.52 341.163C1054.68 342.223 1058.53 343.929 1061.07 346.28C1063.6 348.63 1064.87 351.719 1064.87 355.545C1064.87 359.025 1063.84 362.078 1061.79 364.706C1059.77 367.333 1056.98 369.384 1053.43 370.859C1049.9 372.311 1045.83 373.037 1041.22 373.037C1034.19 373.037 1028.59 371.574 1024.42 368.647C1020.27 365.697 1017.84 361.687 1017.13 356.616L1031.61 355.856C1032.05 357.999 1033.11 359.635 1034.79 360.765C1036.48 361.871 1038.63 362.424 1041.26 362.424C1043.84 362.424 1045.91 361.929 1047.48 360.937C1049.07 359.923 1049.88 358.621 1049.9 357.031C1049.88 355.694 1049.31 354.6 1048.21 353.747C1047.1 352.871 1045.4 352.203 1043.09 351.742L1033.89 349.91C1028.71 348.872 1024.85 347.075 1022.31 344.517C1019.8 341.958 1018.55 338.697 1018.55 334.733C1018.55 331.322 1019.47 328.384 1021.31 325.918C1023.18 323.452 1025.79 321.55 1029.16 320.214C1032.55 318.877 1036.51 318.209 1041.05 318.209C1047.76 318.209 1053.04 319.626 1056.88 322.461C1060.76 325.296 1063.01 329.156 1063.66 334.042Z" fill="black"/>
<path d="M115.561 441.562C115.285 438.773 114.098 436.607 112 435.063C109.903 433.519 107.057 432.746 103.462 432.746C101.019 432.746 98.9559 433.092 97.2734 433.784C95.591 434.452 94.3004 435.385 93.4016 436.584C92.5258 437.782 92.0879 439.142 92.0879 440.663C92.0418 441.931 92.3068 443.037 92.883 443.982C93.4822 444.927 94.3004 445.745 95.3375 446.436C96.3746 447.105 97.573 447.692 98.9328 448.199C100.293 448.683 101.745 449.098 103.289 449.444L109.65 450.965C112.738 451.656 115.573 452.578 118.154 453.731C120.735 454.883 122.971 456.3 124.861 457.983C126.75 459.665 128.214 461.647 129.251 463.929C130.311 466.211 130.853 468.826 130.876 471.776C130.853 476.109 129.746 479.866 127.557 483.046C125.391 486.204 122.256 488.658 118.154 490.41C114.075 492.138 109.154 493.003 103.392 493.003C97.6768 493.003 92.6986 492.127 88.458 490.375C84.2404 488.624 80.9447 486.031 78.5709 482.597C76.2201 479.14 74.9871 474.865 74.8719 469.771H89.3568C89.5182 472.145 90.198 474.127 91.3965 475.717C92.618 477.285 94.2428 478.471 96.2709 479.278C98.3221 480.062 100.638 480.454 103.22 480.454C105.755 480.454 107.956 480.085 109.822 479.347C111.712 478.61 113.176 477.584 114.213 476.271C115.25 474.957 115.769 473.447 115.769 471.742C115.769 470.152 115.296 468.815 114.351 467.732C113.429 466.648 112.07 465.727 110.272 464.966C108.497 464.205 106.319 463.514 103.738 462.892L96.0289 460.956C90.0598 459.504 85.3467 457.234 81.8896 454.146C78.4326 451.057 76.7156 446.897 76.7387 441.666C76.7156 437.379 77.8564 433.634 80.1611 430.43C82.4889 427.227 85.6809 424.726 89.7371 422.929C93.7934 421.131 98.4027 420.232 103.565 420.232C108.82 420.232 113.406 421.131 117.324 422.929C121.265 424.726 124.33 427.227 126.52 430.43C128.709 433.634 129.839 437.344 129.908 441.562H115.561ZM137.568 492V438.9H152.294V492H137.568ZM144.966 432.055C142.776 432.055 140.898 431.329 139.331 429.877C137.786 428.402 137.014 426.639 137.014 424.588C137.014 422.56 137.786 420.82 139.331 419.368C140.898 417.893 142.776 417.155 144.966 417.155C147.155 417.155 149.022 417.893 150.566 419.368C152.133 420.82 152.917 422.56 152.917 424.588C152.917 426.639 152.133 428.402 150.566 429.877C149.022 431.329 147.155 432.055 144.966 432.055ZM175.718 461.302V492H160.991V438.9H175.027V448.269H175.649C176.824 445.18 178.795 442.737 181.561 440.94C184.326 439.119 187.68 438.209 191.621 438.209C195.308 438.209 198.523 439.015 201.266 440.629C204.008 442.242 206.14 444.546 207.661 447.543C209.182 450.516 209.943 454.065 209.943 458.19V492H195.216V460.818C195.239 457.568 194.409 455.033 192.727 453.212C191.044 451.368 188.728 450.446 185.778 450.446C183.796 450.446 182.045 450.873 180.523 451.726C179.025 452.578 177.85 453.823 176.997 455.459C176.168 457.072 175.741 459.02 175.718 461.302ZM242.372 513.019C237.601 513.019 233.511 512.362 230.1 511.048C226.712 509.758 224.015 507.995 222.01 505.759C220.005 503.523 218.703 501.011 218.104 498.223L231.724 496.39C232.139 497.451 232.796 498.442 233.695 499.363C234.594 500.285 235.781 501.023 237.256 501.576C238.754 502.152 240.574 502.44 242.718 502.44C245.921 502.44 248.56 501.657 250.634 500.089C252.732 498.545 253.78 495.953 253.78 492.311V482.597H253.158C252.513 484.072 251.545 485.466 250.254 486.78C248.964 488.094 247.304 489.165 245.276 489.995C243.248 490.825 240.828 491.239 238.016 491.239C234.029 491.239 230.399 490.318 227.127 488.474C223.877 486.607 221.284 483.761 219.348 479.935C217.435 476.086 216.479 471.223 216.479 465.346C216.479 459.331 217.458 454.307 219.417 450.274C221.376 446.24 223.981 443.221 227.23 441.216C230.503 439.211 234.087 438.209 237.982 438.209C240.955 438.209 243.444 438.716 245.449 439.73C247.454 440.721 249.067 441.965 250.289 443.463C251.533 444.938 252.49 446.39 253.158 447.819H253.711V438.9H268.334V492.519C268.334 497.036 267.228 500.815 265.016 503.858C262.803 506.9 259.738 509.181 255.82 510.703C251.925 512.247 247.442 513.019 242.372 513.019ZM242.683 480.177C245.057 480.177 247.062 479.589 248.699 478.414C250.358 477.215 251.625 475.51 252.501 473.297C253.4 471.062 253.849 468.388 253.849 465.277C253.849 462.166 253.412 459.469 252.536 457.188C251.66 454.883 250.392 453.097 248.733 451.829C247.074 450.562 245.057 449.928 242.683 449.928C240.263 449.928 238.224 450.585 236.564 451.898C234.905 453.189 233.649 454.987 232.796 457.291C231.943 459.596 231.517 462.258 231.517 465.277C231.517 468.342 231.943 470.993 232.796 473.228C233.672 475.441 234.928 477.158 236.564 478.379C238.224 479.578 240.263 480.177 242.683 480.177ZM291.68 421.2V492H276.953V421.2H291.68ZM324.576 493.037C319.114 493.037 314.413 491.931 310.472 489.718C306.554 487.483 303.535 484.325 301.414 480.246C299.294 476.144 298.234 471.292 298.234 465.692C298.234 460.23 299.294 455.436 301.414 451.311C303.535 447.185 306.519 443.97 310.368 441.666C314.24 439.361 318.78 438.209 323.989 438.209C327.492 438.209 330.753 438.773 333.772 439.903C336.814 441.009 339.465 442.68 341.723 444.915C344.005 447.151 345.78 449.963 347.047 453.35C348.315 456.715 348.949 460.656 348.949 465.173V469.218H304.111V460.092H335.086C335.086 457.971 334.625 456.093 333.703 454.457C332.781 452.82 331.502 451.541 329.866 450.619C328.252 449.674 326.374 449.202 324.231 449.202C321.995 449.202 320.013 449.721 318.285 450.758C316.579 451.772 315.242 453.143 314.274 454.871C313.307 456.577 312.811 458.478 312.788 460.576V469.253C312.788 471.88 313.272 474.15 314.24 476.063C315.231 477.976 316.625 479.451 318.423 480.488C320.221 481.525 322.352 482.044 324.818 482.044C326.455 482.044 327.953 481.813 329.313 481.352C330.672 480.891 331.836 480.2 332.804 479.278C333.772 478.356 334.51 477.227 335.017 475.89L348.637 476.789C347.946 480.062 346.529 482.92 344.385 485.362C342.265 487.782 339.522 489.672 336.157 491.032C332.816 492.369 328.955 493.037 324.576 493.037ZM398.881 493.037C393.442 493.037 388.764 491.885 384.846 489.58C380.951 487.252 377.955 484.026 375.858 479.9C373.783 475.775 372.746 471.027 372.746 465.657C372.746 460.218 373.795 455.448 375.892 451.345C378.012 447.22 381.02 444.005 384.915 441.7C388.81 439.372 393.442 438.209 398.812 438.209C403.445 438.209 407.501 439.05 410.981 440.732C414.461 442.415 417.215 444.777 419.243 447.819C421.271 450.861 422.389 454.434 422.597 458.536H408.699C408.308 455.886 407.27 453.754 405.588 452.14C403.929 450.504 401.751 449.686 399.054 449.686C396.773 449.686 394.779 450.308 393.074 451.553C391.391 452.774 390.078 454.56 389.133 456.911C388.188 459.262 387.715 462.108 387.715 465.45C387.715 468.838 388.176 471.719 389.098 474.093C390.043 476.466 391.368 478.276 393.074 479.52C394.779 480.765 396.773 481.387 399.054 481.387C400.737 481.387 402.246 481.041 403.583 480.35C404.943 479.658 406.061 478.656 406.936 477.342C407.835 476.005 408.423 474.404 408.699 472.537H422.597C422.366 476.593 421.26 480.165 419.278 483.254C417.319 486.319 414.611 488.716 411.154 490.444C407.697 492.173 403.606 493.037 398.881 493.037ZM452.917 493.037C447.547 493.037 442.903 491.896 438.985 489.615C435.09 487.31 432.083 484.106 429.962 480.004C427.842 475.879 426.782 471.096 426.782 465.657C426.782 460.172 427.842 455.379 429.962 451.276C432.083 447.151 435.09 443.947 438.985 441.666C442.903 439.361 447.547 438.209 452.917 438.209C458.287 438.209 462.919 439.361 466.814 441.666C470.732 443.947 473.752 447.151 475.872 451.276C477.992 455.379 479.052 460.172 479.052 465.657C479.052 471.096 477.992 475.879 475.872 480.004C473.752 484.106 470.732 487.31 466.814 489.615C462.919 491.896 458.287 493.037 452.917 493.037ZM452.986 481.629C455.429 481.629 457.469 480.938 459.105 479.555C460.742 478.149 461.975 476.236 462.804 473.816C463.657 471.396 464.083 468.642 464.083 465.554C464.083 462.465 463.657 459.711 462.804 457.291C461.975 454.871 460.742 452.959 459.105 451.553C457.469 450.147 455.429 449.444 452.986 449.444C450.52 449.444 448.446 450.147 446.764 451.553C445.104 452.959 443.848 454.871 442.995 457.291C442.166 459.711 441.751 462.465 441.751 465.554C441.751 468.642 442.166 471.396 442.995 473.816C443.848 476.236 445.104 478.149 446.764 479.555C448.446 480.938 450.52 481.629 452.986 481.629ZM500.255 461.302V492H485.528V438.9H499.564V448.269H500.186C501.361 445.18 503.332 442.737 506.097 440.94C508.863 439.119 512.216 438.209 516.157 438.209C519.845 438.209 523.06 439.015 525.802 440.629C528.545 442.242 530.677 444.546 532.198 447.543C533.719 450.516 534.48 454.065 534.48 458.19V492H519.753V460.818C519.776 457.568 518.946 455.033 517.264 453.212C515.581 451.368 513.265 450.446 510.315 450.446C508.333 450.446 506.581 450.873 505.06 451.726C503.562 452.578 502.387 453.823 501.534 455.459C500.704 457.072 500.278 459.02 500.255 461.302ZM571.23 438.9V449.963H539.253V438.9H571.23ZM546.512 426.178H561.239V475.683C561.239 477.043 561.447 478.103 561.862 478.863C562.276 479.601 562.853 480.119 563.59 480.419C564.351 480.719 565.226 480.868 566.217 480.868C566.909 480.868 567.6 480.811 568.292 480.696C568.983 480.557 569.513 480.454 569.882 480.384L572.198 491.343C571.461 491.574 570.424 491.839 569.087 492.138C567.75 492.461 566.125 492.657 564.212 492.726C560.663 492.864 557.552 492.392 554.878 491.309C552.228 490.225 550.165 488.543 548.69 486.261C547.215 483.98 546.489 481.099 546.512 477.619V426.178ZM577.723 492V438.9H592.001V448.165H592.554C593.522 444.869 595.147 442.38 597.428 440.698C599.71 438.992 602.337 438.139 605.31 438.139C606.048 438.139 606.843 438.186 607.696 438.278C608.548 438.37 609.297 438.497 609.943 438.658V451.726C609.251 451.518 608.295 451.334 607.073 451.172C605.852 451.011 604.734 450.93 603.72 450.93C601.554 450.93 599.618 451.403 597.912 452.348C596.23 453.27 594.893 454.56 593.902 456.22C592.934 457.879 592.45 459.792 592.45 461.958V492H577.723ZM635.976 493.037C630.606 493.037 625.963 491.896 622.045 489.615C618.15 487.31 615.142 484.106 613.022 480.004C610.901 475.879 609.841 471.096 609.841 465.657C609.841 460.172 610.901 455.379 613.022 451.276C615.142 447.151 618.15 443.947 622.045 441.666C625.963 439.361 630.606 438.209 635.976 438.209C641.346 438.209 645.979 439.361 649.874 441.666C653.792 443.947 656.811 447.151 658.931 451.276C661.051 455.379 662.112 460.172 662.112 465.657C662.112 471.096 661.051 475.879 658.931 480.004C656.811 484.106 653.792 487.31 649.874 489.615C645.979 491.896 641.346 493.037 635.976 493.037ZM636.046 481.629C638.489 481.629 640.528 480.938 642.165 479.555C643.801 478.149 645.034 476.236 645.864 473.816C646.716 471.396 647.143 468.642 647.143 465.554C647.143 462.465 646.716 459.711 645.864 457.291C645.034 454.871 643.801 452.959 642.165 451.553C640.528 450.147 638.489 449.444 636.046 449.444C633.58 449.444 631.505 450.147 629.823 451.553C628.164 452.959 626.907 454.871 626.055 457.291C625.225 459.711 624.81 462.465 624.81 465.554C624.81 468.642 625.225 471.396 626.055 473.816C626.907 476.236 628.164 478.149 629.823 479.555C631.505 480.938 633.58 481.629 636.046 481.629ZM683.314 421.2V492H668.587V421.2H683.314ZM706.738 421.2V492H692.011V421.2H706.738ZM739.634 493.037C734.172 493.037 729.47 491.931 725.529 489.718C721.611 487.483 718.592 484.325 716.472 480.246C714.352 476.144 713.291 471.292 713.291 465.692C713.291 460.23 714.352 455.436 716.472 451.311C718.592 447.185 721.577 443.97 725.426 441.666C729.297 439.361 733.838 438.209 739.046 438.209C742.549 438.209 745.811 438.773 748.83 439.903C751.872 441.009 754.522 442.68 756.781 444.915C759.062 447.151 760.837 449.963 762.105 453.35C763.372 456.715 764.006 460.656 764.006 465.173V469.218H719.168V460.092H750.143C750.143 457.971 749.682 456.093 748.761 454.457C747.839 452.82 746.56 451.541 744.923 450.619C743.31 449.674 741.432 449.202 739.288 449.202C737.053 449.202 735.071 449.721 733.342 450.758C731.637 451.772 730.3 453.143 729.332 454.871C728.364 456.577 727.869 458.478 727.845 460.576V469.253C727.845 471.88 728.329 474.15 729.297 476.063C730.288 477.976 731.683 479.451 733.48 480.488C735.278 481.525 737.41 482.044 739.876 482.044C741.512 482.044 743.01 481.813 744.37 481.352C745.73 480.891 746.894 480.2 747.862 479.278C748.83 478.356 749.567 477.227 750.074 475.89L763.695 476.789C763.004 480.062 761.586 482.92 759.443 485.362C757.322 487.782 754.58 489.672 751.215 491.032C747.873 492.369 744.013 493.037 739.634 493.037ZM770.516 492V438.9H784.794V448.165H785.347C786.315 444.869 787.94 442.38 790.221 440.698C792.503 438.992 795.13 438.139 798.103 438.139C798.841 438.139 799.636 438.186 800.489 438.278C801.341 438.37 802.091 438.497 802.736 438.658V451.726C802.044 451.518 801.088 451.334 799.866 451.172C798.645 451.011 797.527 450.93 796.513 450.93C794.347 450.93 792.411 451.403 790.705 452.348C789.023 453.27 787.686 454.56 786.695 456.22C785.727 457.879 785.243 459.792 785.243 461.958V492H770.516Z" fill="black"/>
<path d="M77.1535 612V541.2H105.086C110.433 541.2 114.996 542.156 118.776 544.069C122.579 545.959 125.471 548.644 127.453 552.124C129.458 555.581 130.461 559.649 130.461 564.328C130.461 569.029 129.447 573.074 127.419 576.462C125.391 579.827 122.452 582.408 118.603 584.205C114.778 586.003 110.145 586.902 104.706 586.902H86.0035V574.871H102.286C105.144 574.871 107.518 574.48 109.408 573.696C111.297 572.913 112.703 571.737 113.625 570.17C114.57 568.603 115.043 566.655 115.043 564.328C115.043 561.977 114.57 559.995 113.625 558.381C112.703 556.768 111.286 555.547 109.373 554.717C107.483 553.864 105.098 553.438 102.217 553.438H92.1225V612H77.1535ZM115.388 579.78L132.985 612H116.46L99.2439 579.78H115.388ZM161.006 613.037C155.544 613.037 150.843 611.931 146.901 609.718C142.984 607.483 139.964 604.325 137.844 600.246C135.724 596.144 134.664 591.292 134.664 585.692C134.664 580.23 135.724 575.436 137.844 571.311C139.964 567.185 142.949 563.97 146.798 561.666C150.67 559.361 155.21 558.209 160.418 558.209C163.922 558.209 167.183 558.773 170.202 559.903C173.244 561.009 175.894 562.68 178.153 564.915C180.435 567.151 182.209 569.963 183.477 573.35C184.744 576.715 185.378 580.656 185.378 585.173V589.218H140.541V580.092H171.516C171.516 577.971 171.055 576.093 170.133 574.457C169.211 572.82 167.932 571.541 166.295 570.619C164.682 569.674 162.804 569.202 160.66 569.202C158.425 569.202 156.443 569.721 154.714 570.758C153.009 571.772 151.672 573.143 150.704 574.871C149.736 576.577 149.241 578.478 149.218 580.576V589.253C149.218 591.88 149.702 594.15 150.67 596.063C151.661 597.976 153.055 599.451 154.853 600.488C156.65 601.525 158.782 602.044 161.248 602.044C162.884 602.044 164.383 601.813 165.742 601.352C167.102 600.891 168.266 600.2 169.234 599.278C170.202 598.356 170.939 597.227 171.446 595.89L185.067 596.789C184.376 600.062 182.958 602.92 180.815 605.362C178.695 607.782 175.952 609.672 172.587 611.032C169.245 612.369 165.385 613.037 161.006 613.037ZM215.811 633.019C211.04 633.019 206.95 632.362 203.539 631.048C200.151 629.758 197.454 627.995 195.449 625.759C193.444 623.523 192.142 621.011 191.543 618.223L205.163 616.39C205.578 617.451 206.235 618.442 207.134 619.363C208.033 620.285 209.22 621.023 210.695 621.576C212.193 622.152 214.013 622.44 216.157 622.44C219.36 622.44 221.999 621.657 224.073 620.089C226.171 618.545 227.219 615.953 227.219 612.311V602.597H226.597C225.952 604.072 224.984 605.466 223.693 606.78C222.403 608.094 220.743 609.165 218.715 609.995C216.687 610.825 214.267 611.239 211.455 611.239C207.468 611.239 203.838 610.318 200.566 608.474C197.316 606.607 194.723 603.761 192.787 599.935C190.874 596.086 189.918 591.223 189.918 585.346C189.918 579.331 190.897 574.307 192.856 570.274C194.815 566.24 197.42 563.221 200.669 561.216C203.942 559.211 207.526 558.209 211.421 558.209C214.394 558.209 216.883 558.716 218.888 559.73C220.893 560.721 222.506 561.965 223.728 563.463C224.972 564.938 225.929 566.39 226.597 567.819H227.15V558.9H241.773V612.519C241.773 617.036 240.667 620.815 238.455 623.858C236.242 626.9 233.177 629.181 229.259 630.703C225.364 632.247 220.881 633.019 215.811 633.019ZM216.122 600.177C218.496 600.177 220.501 599.589 222.137 598.414C223.797 597.215 225.064 595.51 225.94 593.297C226.839 591.062 227.288 588.388 227.288 585.277C227.288 582.166 226.851 579.469 225.975 577.188C225.099 574.883 223.831 573.097 222.172 571.829C220.513 570.562 218.496 569.928 216.122 569.928C213.702 569.928 211.663 570.585 210.003 571.898C208.344 573.189 207.088 574.987 206.235 577.291C205.382 579.596 204.956 582.258 204.956 585.277C204.956 588.342 205.382 590.993 206.235 593.228C207.111 595.441 208.367 597.158 210.003 598.379C211.663 599.578 213.702 600.177 216.122 600.177ZM284.444 589.391V558.9H299.171V612H285.032V602.355H284.479C283.28 605.466 281.287 607.967 278.498 609.857C275.732 611.746 272.356 612.691 268.369 612.691C264.82 612.691 261.697 611.885 259 610.271C256.304 608.658 254.195 606.365 252.674 603.392C251.176 600.419 250.416 596.858 250.392 592.71V558.9H265.119V590.082C265.142 593.217 265.984 595.694 267.643 597.515C269.302 599.336 271.526 600.246 274.315 600.246C276.09 600.246 277.749 599.843 279.293 599.036C280.837 598.206 282.082 596.985 283.027 595.372C283.995 593.758 284.467 591.765 284.444 589.391ZM322.578 541.2V612H307.851V541.2H322.578ZM346.416 613.003C343.028 613.003 340.009 612.415 337.359 611.239C334.708 610.041 332.611 608.278 331.067 605.95C329.546 603.599 328.785 600.672 328.785 597.169C328.785 594.219 329.327 591.742 330.41 589.737C331.493 587.732 332.968 586.118 334.835 584.897C336.702 583.675 338.822 582.754 341.196 582.131C343.593 581.509 346.105 581.071 348.732 580.818C351.821 580.495 354.31 580.195 356.2 579.919C358.089 579.619 359.461 579.181 360.313 578.605C361.166 578.029 361.593 577.176 361.593 576.047V575.839C361.593 573.65 360.901 571.956 359.518 570.758C358.159 569.559 356.223 568.96 353.711 568.96C351.06 568.96 348.951 569.548 347.384 570.723C345.817 571.875 344.78 573.327 344.273 575.079L330.652 573.973C331.344 570.746 332.703 567.957 334.731 565.607C336.76 563.233 339.375 561.412 342.579 560.145C345.805 558.854 349.539 558.209 353.78 558.209C356.73 558.209 359.553 558.554 362.249 559.246C364.969 559.937 367.377 561.009 369.475 562.461C371.595 563.913 373.266 565.779 374.487 568.061C375.709 570.32 376.32 573.028 376.32 576.185V612H362.353V604.637H361.938C361.086 606.296 359.945 607.759 358.516 609.027C357.087 610.271 355.37 611.251 353.365 611.965C351.36 612.657 349.044 613.003 346.416 613.003ZM350.634 602.839C352.8 602.839 354.713 602.412 356.372 601.56C358.032 600.684 359.334 599.509 360.279 598.034C361.224 596.559 361.696 594.888 361.696 593.021V587.386C361.235 587.686 360.602 587.962 359.795 588.216C359.011 588.446 358.124 588.665 357.133 588.872C356.142 589.057 355.151 589.23 354.16 589.391C353.169 589.529 352.27 589.656 351.463 589.771C349.735 590.025 348.225 590.428 346.935 590.981C345.644 591.534 344.642 592.283 343.927 593.228C343.213 594.15 342.855 595.303 342.855 596.685C342.855 598.69 343.581 600.223 345.033 601.283C346.508 602.32 348.375 602.839 350.634 602.839ZM384.645 612V558.9H398.922V568.165H399.475C400.443 564.869 402.068 562.38 404.35 560.698C406.631 558.992 409.259 558.139 412.232 558.139C412.969 558.139 413.764 558.186 414.617 558.278C415.47 558.37 416.219 558.497 416.864 558.658V571.726C416.173 571.518 415.216 571.334 413.995 571.172C412.773 571.011 411.656 570.93 410.642 570.93C408.475 570.93 406.539 571.403 404.834 572.348C403.151 573.27 401.815 574.56 400.824 576.22C399.856 577.879 399.372 579.792 399.372 581.958V612H384.645ZM455.536 581.302V612H440.809V558.9H454.844V568.269H455.467C456.642 565.18 458.613 562.737 461.378 560.94C464.144 559.119 467.497 558.209 471.438 558.209C475.126 558.209 478.341 559.015 481.083 560.629C483.826 562.242 485.958 564.546 487.479 567.543C489 570.516 489.76 574.065 489.76 578.19V612H475.034V580.818C475.057 577.568 474.227 575.033 472.544 573.212C470.862 571.368 468.546 570.446 465.596 570.446C463.614 570.446 461.862 570.873 460.341 571.726C458.843 572.578 457.668 573.823 456.815 575.459C455.985 577.072 455.559 579.02 455.536 581.302ZM513.409 613.003C510.021 613.003 507.002 612.415 504.352 611.239C501.701 610.041 499.604 608.278 498.06 605.95C496.539 603.599 495.778 600.672 495.778 597.169C495.778 594.219 496.32 591.742 497.403 589.737C498.486 587.732 499.961 586.118 501.828 584.897C503.695 583.675 505.815 582.754 508.189 582.131C510.586 581.509 513.098 581.071 515.725 580.818C518.813 580.495 521.303 580.195 523.192 579.919C525.082 579.619 526.453 579.181 527.306 578.605C528.159 578.029 528.585 577.176 528.585 576.047V575.839C528.585 573.65 527.894 571.956 526.511 570.758C525.151 569.559 523.215 568.96 520.703 568.96C518.053 568.96 515.944 569.548 514.377 570.723C512.81 571.875 511.773 573.327 511.266 575.079L497.645 573.973C498.336 570.746 499.696 567.957 501.724 565.607C503.752 563.233 506.368 561.412 509.572 560.145C512.798 558.854 516.532 558.209 520.772 558.209C523.722 558.209 526.546 558.554 529.242 559.246C531.962 559.937 534.37 561.009 536.467 562.461C538.588 563.913 540.259 565.779 541.48 568.061C542.702 570.32 543.312 573.028 543.312 576.185V612H529.346V604.637H528.931C528.078 606.296 526.937 607.759 525.509 609.027C524.08 610.271 522.363 611.251 520.358 611.965C518.353 612.657 516.036 613.003 513.409 613.003ZM517.627 602.839C519.793 602.839 521.706 602.412 523.365 601.56C525.025 600.684 526.327 599.509 527.272 598.034C528.217 596.559 528.689 594.888 528.689 593.021V587.386C528.228 587.686 527.594 587.962 526.788 588.216C526.004 588.446 525.117 588.665 524.126 588.872C523.135 589.057 522.144 589.23 521.153 589.391C520.162 589.529 519.263 589.656 518.456 589.771C516.728 590.025 515.218 590.428 513.928 590.981C512.637 591.534 511.634 592.283 510.92 593.228C510.205 594.15 509.848 595.303 509.848 596.685C509.848 598.69 510.574 600.223 512.026 601.283C513.501 602.32 515.368 602.839 517.627 602.839ZM551.637 612V558.9H565.673V568.269H566.295C567.401 565.157 569.245 562.703 571.826 560.905C574.408 559.107 577.496 558.209 581.091 558.209C584.733 558.209 587.833 559.119 590.391 560.94C592.949 562.737 594.654 565.18 595.507 568.269H596.06C597.143 565.226 599.102 562.795 601.937 560.974C604.795 559.13 608.171 558.209 612.066 558.209C617.021 558.209 621.043 559.787 624.131 562.945C627.243 566.079 628.798 570.527 628.798 576.289V612H614.106V579.193C614.106 576.243 613.322 574.03 611.755 572.555C610.188 571.08 608.229 570.343 605.878 570.343C603.205 570.343 601.119 571.196 599.621 572.901C598.123 574.583 597.374 576.807 597.374 579.573V612H583.096V578.882C583.096 576.277 582.347 574.203 580.849 572.659C579.374 571.115 577.427 570.343 575.007 570.343C573.371 570.343 571.896 570.758 570.582 571.587C569.291 572.394 568.266 573.535 567.505 575.01C566.745 576.462 566.364 578.167 566.364 580.126V612H551.637ZM661.53 613.037C656.068 613.037 651.366 611.931 647.425 609.718C643.507 607.483 640.488 604.325 638.368 600.246C636.248 596.144 635.188 591.292 635.188 585.692C635.188 580.23 636.248 575.436 638.368 571.311C640.488 567.185 643.473 563.97 647.322 561.666C651.194 559.361 655.734 558.209 660.942 558.209C664.446 558.209 667.707 558.773 670.726 559.903C673.768 561.009 676.418 562.68 678.677 564.915C680.959 567.151 682.733 569.963 684.001 573.35C685.268 576.715 685.902 580.656 685.902 585.173V589.218H641.065V580.092H672.04C672.04 577.971 671.579 576.093 670.657 574.457C669.735 572.82 668.456 571.541 666.819 570.619C665.206 569.674 663.328 569.202 661.184 569.202C658.949 569.202 656.967 569.721 655.238 570.758C653.533 571.772 652.196 573.143 651.228 574.871C650.26 576.577 649.765 578.478 649.742 580.576V589.253C649.742 591.88 650.226 594.15 651.194 596.063C652.185 597.976 653.579 599.451 655.377 600.488C657.174 601.525 659.306 602.044 661.772 602.044C663.408 602.044 664.907 601.813 666.266 601.352C667.626 600.891 668.79 600.2 669.758 599.278C670.726 598.356 671.463 597.227 671.97 595.89L685.591 596.789C684.9 600.062 683.482 602.92 681.339 605.362C679.219 607.782 676.476 609.672 673.111 611.032C669.769 612.369 665.909 613.037 661.53 613.037ZM736.593 574.042L723.111 574.871C722.88 573.719 722.385 572.682 721.624 571.76C720.864 570.815 719.861 570.066 718.617 569.513C717.395 568.937 715.932 568.649 714.226 568.649C711.945 568.649 710.02 569.133 708.453 570.101C706.886 571.046 706.102 572.313 706.102 573.904C706.102 575.171 706.609 576.243 707.623 577.119C708.637 577.994 710.378 578.697 712.844 579.227L722.454 581.163C727.617 582.223 731.465 583.929 734.001 586.28C736.536 588.63 737.803 591.719 737.803 595.545C737.803 599.025 736.778 602.078 734.727 604.706C732.698 607.333 729.91 609.384 726.361 610.859C722.834 612.311 718.767 613.037 714.157 613.037C707.128 613.037 701.528 611.574 697.356 608.647C693.208 605.697 690.776 601.687 690.062 596.616L704.547 595.856C704.985 597.999 706.045 599.635 707.727 600.765C709.41 601.871 711.564 602.424 714.192 602.424C716.773 602.424 718.847 601.929 720.414 600.937C722.005 599.923 722.811 598.621 722.834 597.031C722.811 595.694 722.247 594.6 721.14 593.747C720.034 592.871 718.329 592.203 716.024 591.742L706.828 589.91C701.643 588.872 697.782 587.075 695.247 584.517C692.735 581.958 691.479 578.697 691.479 574.733C691.479 571.322 692.401 568.384 694.245 565.918C696.111 563.452 698.727 561.55 702.092 560.214C705.48 558.877 709.444 558.209 713.984 558.209C720.691 558.209 725.969 559.626 729.818 562.461C733.689 565.296 735.948 569.156 736.593 574.042ZM743.976 631.913V558.9H758.496V567.819H759.153C759.798 566.39 760.732 564.938 761.953 563.463C763.198 561.965 764.811 560.721 766.793 559.73C768.798 558.716 771.287 558.209 774.26 558.209C778.132 558.209 781.704 559.223 784.977 561.251C788.249 563.256 790.865 566.287 792.824 570.343C794.783 574.376 795.763 579.435 795.763 585.519C795.763 591.442 794.806 596.443 792.893 600.523C791.004 604.579 788.422 607.656 785.15 609.753C781.9 611.827 778.259 612.864 774.225 612.864C771.368 612.864 768.936 612.392 766.931 611.447C764.949 610.502 763.324 609.315 762.057 607.886C760.789 606.434 759.821 604.971 759.153 603.496H758.703V631.913H743.976ZM758.392 585.45C758.392 588.607 758.83 591.362 759.706 593.712C760.582 596.063 761.849 597.895 763.509 599.209C765.168 600.5 767.185 601.145 769.558 601.145C771.955 601.145 773.983 600.488 775.643 599.174C777.302 597.838 778.558 595.994 779.411 593.643C780.287 591.269 780.725 588.538 780.725 585.45C780.725 582.385 780.298 579.688 779.446 577.361C778.593 575.033 777.337 573.212 775.677 571.898C774.018 570.585 771.978 569.928 769.558 569.928C767.162 569.928 765.133 570.562 763.474 571.829C761.838 573.097 760.582 574.895 759.706 577.222C758.83 579.55 758.392 582.293 758.392 585.45ZM817.622 613.003C814.234 613.003 811.215 612.415 808.565 611.239C805.914 610.041 803.817 608.278 802.273 605.95C800.752 603.599 799.991 600.672 799.991 597.169C799.991 594.219 800.533 591.742 801.616 589.737C802.699 587.732 804.174 586.118 806.041 584.897C807.908 583.675 810.028 582.754 812.402 582.131C814.799 581.509 817.311 581.071 819.938 580.818C823.027 580.495 825.516 580.195 827.406 579.919C829.295 579.619 830.667 579.181 831.519 578.605C832.372 578.029 832.799 577.176 832.799 576.047V575.839C832.799 573.65 832.107 571.956 830.724 570.758C829.365 569.559 827.429 568.96 824.917 568.96C822.266 568.96 820.157 569.548 818.59 570.723C817.023 571.875 815.986 573.327 815.479 575.079L801.858 573.973C802.55 570.746 803.909 567.957 805.937 565.607C807.966 563.233 810.581 561.412 813.785 560.145C817.011 558.854 820.745 558.209 824.986 558.209C827.936 558.209 830.759 558.554 833.455 559.246C836.175 559.937 838.583 561.009 840.681 562.461C842.801 563.913 844.472 565.779 845.693 568.061C846.915 570.32 847.526 573.028 847.526 576.185V612H833.559V604.637H833.144C832.292 606.296 831.151 607.759 829.722 609.027C828.293 610.271 826.576 611.251 824.571 611.965C822.566 612.657 820.25 613.003 817.622 613.003ZM821.84 602.839C824.006 602.839 825.919 602.412 827.578 601.56C829.238 600.684 830.54 599.509 831.485 598.034C832.43 596.559 832.902 594.888 832.902 593.021V587.386C832.441 587.686 831.808 587.962 831.001 588.216C830.217 588.446 829.33 588.665 828.339 588.872C827.348 589.057 826.357 589.23 825.366 589.391C824.375 589.529 823.476 589.656 822.669 589.771C820.941 590.025 819.431 590.428 818.141 590.981C816.85 591.534 815.848 592.283 815.133 593.228C814.419 594.15 814.061 595.303 814.061 596.685C814.061 598.69 814.787 600.223 816.239 601.283C817.714 602.32 819.581 602.839 821.84 602.839ZM879.843 613.037C874.403 613.037 869.725 611.885 865.807 609.58C861.912 607.252 858.916 604.026 856.819 599.9C854.744 595.775 853.707 591.027 853.707 585.657C853.707 580.218 854.756 575.448 856.853 571.345C858.974 567.22 861.981 564.005 865.876 561.7C869.771 559.372 874.403 558.209 879.773 558.209C884.406 558.209 888.462 559.05 891.942 560.732C895.422 562.415 898.176 564.777 900.204 567.819C902.233 570.861 903.35 574.434 903.558 578.536H889.66C889.269 575.886 888.232 573.754 886.549 572.14C884.89 570.504 882.712 569.686 880.015 569.686C877.734 569.686 875.74 570.308 874.035 571.553C872.352 572.774 871.039 574.56 870.094 576.911C869.149 579.262 868.676 582.108 868.676 585.45C868.676 588.838 869.137 591.719 870.059 594.093C871.004 596.466 872.329 598.276 874.035 599.52C875.74 600.765 877.734 601.387 880.015 601.387C881.698 601.387 883.207 601.041 884.544 600.35C885.904 599.658 887.022 598.656 887.897 597.342C888.796 596.005 889.384 594.404 889.66 592.537H903.558C903.327 596.593 902.221 600.165 900.239 603.254C898.28 606.319 895.572 608.716 892.115 610.444C888.658 612.173 884.567 613.037 879.843 613.037ZM934.086 613.037C928.624 613.037 923.922 611.931 919.981 609.718C916.063 607.483 913.044 604.325 910.924 600.246C908.803 596.144 907.743 591.292 907.743 585.692C907.743 580.23 908.803 575.436 910.924 571.311C913.044 567.185 916.028 563.97 919.877 561.666C923.749 559.361 928.289 558.209 933.498 558.209C937.001 558.209 940.262 558.773 943.281 559.903C946.324 561.009 948.974 562.68 951.233 564.915C953.514 567.151 955.289 569.963 956.556 573.35C957.824 576.715 958.458 580.656 958.458 585.173V589.218H913.62V580.092H944.595C944.595 577.971 944.134 576.093 943.212 574.457C942.29 572.82 941.011 571.541 939.375 570.619C937.762 569.674 935.883 569.202 933.74 569.202C931.504 569.202 929.522 569.721 927.794 570.758C926.088 571.772 924.752 573.143 923.784 574.871C922.816 576.577 922.32 578.478 922.297 580.576V589.253C922.297 591.88 922.781 594.15 923.749 596.063C924.74 597.976 926.135 599.451 927.932 600.488C929.73 601.525 931.862 602.044 934.328 602.044C935.964 602.044 937.462 601.813 938.822 601.352C940.182 600.891 941.345 600.2 942.313 599.278C943.281 598.356 944.019 597.227 944.526 595.89L958.147 596.789C957.455 600.062 956.038 602.92 953.894 605.362C951.774 607.782 949.032 609.672 945.667 611.032C942.325 612.369 938.465 613.037 934.086 613.037ZM1009.15 574.042L995.666 574.871C995.436 573.719 994.94 572.682 994.18 571.76C993.419 570.815 992.417 570.066 991.172 569.513C989.951 568.937 988.487 568.649 986.782 568.649C984.5 568.649 982.576 569.133 981.009 570.101C979.441 571.046 978.658 572.313 978.658 573.904C978.658 575.171 979.165 576.243 980.179 577.119C981.193 577.994 982.933 578.697 985.399 579.227L995.01 581.163C1000.17 582.223 1004.02 583.929 1006.56 586.28C1009.09 588.63 1010.36 591.719 1010.36 595.545C1010.36 599.025 1009.33 602.078 1007.28 604.706C1005.25 607.333 1002.47 609.384 998.916 610.859C995.39 612.311 991.322 613.037 986.713 613.037C979.683 613.037 974.083 611.574 969.912 608.647C965.763 605.697 963.332 601.687 962.617 596.616L977.102 595.856C977.54 597.999 978.6 599.635 980.283 600.765C981.965 601.871 984.12 602.424 986.747 602.424C989.329 602.424 991.403 601.929 992.97 600.937C994.56 599.923 995.367 598.621 995.39 597.031C995.367 595.694 994.802 594.6 993.696 593.747C992.59 592.871 990.884 592.203 988.58 591.742L979.384 589.91C974.198 588.872 970.338 587.075 967.803 584.517C965.291 581.958 964.035 578.697 964.035 574.733C964.035 571.322 964.956 568.384 966.8 565.918C968.667 563.452 971.283 561.55 974.648 560.214C978.036 558.877 982 558.209 986.54 558.209C993.247 558.209 998.524 559.626 1002.37 562.461C1006.24 565.296 1008.5 569.156 1009.15 574.042Z" fill="black"/>
</svg>
