<svg width="1200" height="900" viewBox="0 0 1200 900" fill="none" xmlns="http://www.w3.org/2000/svg">
<rect width="1200" height="900" fill="white"/>
<path d="M968 448.5C968 652.017 803.017 817 599.5 817C395.983 817 231 652.017 231 448.5C231 244.983 395.983 80 599.5 80C803.017 80 968 244.983 968 448.5Z" fill="#1D1D1F"/>
<path d="M933.486 448.5C933.486 632.954 783.954 782.486 599.5 782.486C415.046 782.486 265.514 632.954 265.514 448.5C265.514 264.046 415.046 114.514 599.5 114.514C783.954 114.514 933.486 264.046 933.486 448.5Z" fill="#CCCFD0"/>
<path d="M905.345 448.501C905.345 617.413 768.413 754.345 599.5 754.345C430.587 754.345 293.656 617.413 293.656 448.501C293.656 279.588 430.587 142.656 599.5 142.656C768.413 142.656 905.345 279.588 905.345 448.501Z" fill="#EDEDED"/>
<path d="M600.164 186.198V207.437C666.706 207.615 726.911 234.756 770.428 278.512L785.446 263.493C785.133 263.18 784.82 262.866 784.506 262.553C737.223 215.508 672.095 186.373 600.164 186.198Z" fill="#FFC83F"/>
<path d="M414.493 262.553L429.512 277.572C473.097 234.225 533.17 207.435 599.5 207.435C599.72 207.435 599.943 207.435 600.164 207.437V186.198C599.943 186.195 599.72 186.195 599.5 186.195C599.279 186.195 599.056 186.195 598.836 186.198C526.904 186.376 461.777 215.505 414.493 262.553Z" fill="#D4DE4E"/>
<path d="M337.196 448.5H358.435C358.435 381.695 385.611 321.235 429.512 277.572L414.493 262.554C414.18 262.867 413.867 263.178 413.554 263.494C366.363 310.921 337.196 376.306 337.196 448.5Z" fill="#78C567"/>
<path d="M770.428 278.512C813.774 322.097 840.565 382.17 840.565 448.5H861.804C861.804 376.305 832.637 310.923 785.447 263.493L770.428 278.512Z" fill="#ED7C41"/>
<path d="M704.156 344.784C730.548 371.41 746.847 408.051 746.847 448.501H840.565C840.565 382.171 813.774 322.098 770.428 278.513L704.156 344.784Z" fill="#E95605"/>
<path d="M600.164 207.438V301.155C640.351 301.331 676.736 317.595 703.216 343.844C703.532 344.152 703.848 344.467 704.156 344.783L770.428 278.512C726.911 234.756 666.706 207.615 600.164 207.438Z" fill="#F8BA0E"/>
<path d="M429.512 277.572L495.781 343.841C522.261 317.597 558.649 301.33 598.836 301.155C599.056 301.153 599.279 301.153 599.5 301.153C599.72 301.153 599.943 301.153 600.164 301.155V207.437C599.943 207.435 599.72 207.435 599.5 207.435C533.17 207.435 473.097 234.225 429.512 277.572Z" fill="#C9D81D"/>
<path d="M358.435 448.5H452.153C452.153 408.05 468.452 371.407 494.841 344.781C495.152 344.465 495.465 344.152 495.781 343.841L429.512 277.572C385.611 321.235 358.435 381.695 358.435 448.5Z" fill="#4DB236"/>
<path d="M747.327 478.999V463.726H757.619V466.389H750.556V470.028H757.089V472.69H750.556V476.337H757.648V478.999H747.327ZM762.794 463.726L765.873 468.932H765.993L769.088 463.726H772.734L768.073 471.363L772.839 478.999H769.125L765.993 473.786H765.873L762.741 478.999H759.042L763.823 471.363L759.132 463.726H762.794ZM774.358 478.999V463.726H780.383C781.541 463.726 782.528 463.948 783.344 464.39C784.159 464.828 784.78 465.437 785.208 466.217C785.641 466.993 785.857 467.888 785.857 468.902C785.857 469.916 785.638 470.811 785.201 471.586C784.763 472.362 784.129 472.966 783.299 473.399C782.474 473.831 781.474 474.047 780.301 474.047H776.461V471.46H779.779C780.4 471.46 780.913 471.353 781.315 471.139C781.723 470.92 782.026 470.619 782.225 470.237C782.429 469.849 782.531 469.404 782.531 468.902C782.531 468.395 782.429 467.952 782.225 467.574C782.026 467.191 781.723 466.896 781.315 466.687C780.908 466.473 780.391 466.366 779.764 466.366H777.587V478.999H774.358ZM787.534 478.999V463.726H797.825V466.389H790.763V470.028H797.296V472.69H790.763V476.337H797.855V478.999H787.534ZM812.747 463.726V478.999H809.958L803.314 469.386H803.202V478.999H799.973V463.726H802.806L809.399 473.331H809.533V463.726H812.747ZM823.28 468.119C823.22 467.517 822.964 467.05 822.512 466.717C822.06 466.384 821.446 466.217 820.67 466.217C820.143 466.217 819.698 466.292 819.335 466.441C818.972 466.585 818.694 466.786 818.5 467.045C818.311 467.303 818.217 467.597 818.217 467.925C818.207 468.198 818.264 468.437 818.388 468.641C818.517 468.845 818.694 469.021 818.918 469.17C819.141 469.314 819.4 469.441 819.693 469.551C819.986 469.655 820.3 469.744 820.633 469.819L822.005 470.147C822.671 470.296 823.283 470.495 823.839 470.744C824.396 470.992 824.879 471.298 825.286 471.661C825.694 472.024 826.01 472.451 826.233 472.944C826.462 473.436 826.579 474 826.584 474.636C826.579 475.571 826.34 476.381 825.868 477.068C825.401 477.749 824.724 478.278 823.839 478.656C822.959 479.029 821.898 479.215 820.655 479.215C819.422 479.215 818.348 479.026 817.434 478.649C816.524 478.271 815.813 477.711 815.301 476.971C814.794 476.225 814.528 475.303 814.503 474.204H817.627C817.662 474.716 817.809 475.144 818.067 475.487C818.331 475.825 818.681 476.081 819.119 476.255C819.561 476.424 820.061 476.508 820.618 476.508C821.165 476.508 821.64 476.429 822.042 476.27C822.45 476.111 822.766 475.889 822.989 475.606C823.213 475.323 823.325 474.997 823.325 474.629C823.325 474.286 823.223 473.998 823.019 473.764C822.82 473.53 822.527 473.331 822.139 473.167C821.756 473.003 821.287 472.854 820.73 472.72L819.067 472.302C817.779 471.989 816.762 471.499 816.017 470.833C815.271 470.167 814.901 469.27 814.905 468.141C814.901 467.216 815.147 466.408 815.644 465.717C816.146 465.026 816.834 464.487 817.709 464.099C818.584 463.711 819.579 463.517 820.692 463.517C821.826 463.517 822.815 463.711 823.66 464.099C824.511 464.487 825.172 465.026 825.644 465.717C826.116 466.408 826.36 467.209 826.375 468.119H823.28ZM831.565 463.726V478.999H828.336V463.726H831.565ZM836.561 463.726L840.252 475.33H840.394L844.093 463.726H847.672L842.407 478.999H838.246L832.974 463.726H836.561ZM849.09 478.999V463.726H859.382V466.389H852.32V470.028H858.852V472.69H852.32V476.337H859.411V478.999H849.09Z" fill="black"/>
<path d="M751.207 484.546V502.001H747.517V484.546H751.207ZM763.232 489.566C763.164 488.879 762.872 488.345 762.355 487.964C761.837 487.583 761.136 487.393 760.249 487.393C759.647 487.393 759.139 487.478 758.724 487.649C758.309 487.813 757.991 488.044 757.769 488.339C757.553 488.635 757.445 488.97 757.445 489.345C757.434 489.657 757.499 489.93 757.641 490.163C757.789 490.396 757.991 490.598 758.247 490.768C758.502 490.933 758.798 491.078 759.133 491.203C759.468 491.322 759.826 491.424 760.207 491.509L761.775 491.884C762.536 492.055 763.235 492.282 763.872 492.566C764.508 492.85 765.059 493.2 765.525 493.615C765.991 494.029 766.352 494.518 766.607 495.081C766.869 495.643 767.002 496.288 767.008 497.015C767.002 498.083 766.73 499.009 766.19 499.794C765.656 500.572 764.883 501.177 763.872 501.609C762.866 502.035 761.653 502.248 760.232 502.248C758.823 502.248 757.596 502.032 756.551 501.6C755.511 501.169 754.698 500.529 754.113 499.683C753.533 498.831 753.23 497.777 753.201 496.521H756.772C756.812 497.106 756.98 497.595 757.275 497.987C757.576 498.373 757.977 498.666 758.477 498.865C758.982 499.058 759.553 499.154 760.19 499.154C760.815 499.154 761.357 499.063 761.818 498.882C762.283 498.7 762.644 498.447 762.9 498.123C763.156 497.799 763.283 497.427 763.283 497.007C763.283 496.615 763.167 496.285 762.934 496.018C762.707 495.751 762.372 495.524 761.928 495.336C761.491 495.149 760.954 494.978 760.318 494.825L758.417 494.348C756.945 493.99 755.783 493.43 754.931 492.669C754.079 491.907 753.656 490.882 753.661 489.592C753.656 488.535 753.937 487.612 754.505 486.822C755.079 486.032 755.866 485.416 756.866 484.973C757.866 484.529 759.002 484.308 760.275 484.308C761.57 484.308 762.701 484.529 763.667 484.973C764.639 485.416 765.394 486.032 765.934 486.822C766.474 487.612 766.752 488.527 766.769 489.566H763.232ZM785.05 493.274C785.05 495.177 784.689 496.796 783.968 498.132C783.252 499.467 782.274 500.487 781.036 501.191C779.803 501.89 778.416 502.24 776.877 502.24C775.326 502.24 773.933 501.887 772.701 501.183C771.468 500.478 770.493 499.458 769.777 498.123C769.061 496.788 768.703 495.171 768.703 493.274C768.703 491.37 769.061 489.751 769.777 488.416C770.493 487.081 771.468 486.063 772.701 485.365C773.933 484.66 775.326 484.308 776.877 484.308C778.416 484.308 779.803 484.66 781.036 485.365C782.274 486.063 783.252 487.081 783.968 488.416C784.689 489.751 785.05 491.37 785.05 493.274ZM781.308 493.274C781.308 492.041 781.124 491.001 780.754 490.154C780.391 489.308 779.877 488.666 779.212 488.228C778.547 487.791 777.769 487.572 776.877 487.572C775.985 487.572 775.206 487.791 774.541 488.228C773.877 488.666 773.36 489.308 772.99 490.154C772.627 491.001 772.445 492.041 772.445 493.274C772.445 494.507 772.627 495.546 772.99 496.393C773.36 497.24 773.877 497.882 774.541 498.319C775.206 498.757 775.985 498.975 776.877 498.975C777.769 498.975 778.547 498.757 779.212 498.319C779.877 497.882 780.391 497.24 780.754 496.393C781.124 495.546 781.308 494.507 781.308 493.274ZM787.304 502.001V484.546H790.994V498.958H798.477V502.001H787.304ZM803.895 502.001H799.94L805.966 484.546H810.721L816.738 502.001H812.784L808.412 488.535H808.275L803.895 502.001ZM803.647 495.14H812.988V498.021H803.647V495.14ZM815.562 487.589V484.546H829.897V487.589H824.553V502.001H820.905V487.589H815.562ZM831.778 502.001V484.546H843.539V487.589H835.468V491.748H842.934V494.791H835.468V498.958H843.573V502.001H831.778ZM852.18 502.001H845.993V484.546H852.232C853.987 484.546 855.499 484.896 856.766 485.595C858.033 486.288 859.007 487.285 859.689 488.586C860.376 489.887 860.72 491.444 860.72 493.257C860.72 495.075 860.376 496.637 859.689 497.944C859.007 499.251 858.027 500.254 856.749 500.953C855.476 501.652 853.953 502.001 852.18 502.001ZM849.683 498.839H852.027C853.118 498.839 854.036 498.646 854.78 498.259C855.53 497.867 856.092 497.262 856.467 496.444C856.848 495.62 857.038 494.558 857.038 493.257C857.038 491.967 856.848 490.913 856.467 490.095C856.092 489.277 855.533 488.674 854.788 488.288C854.044 487.902 853.126 487.708 852.036 487.708H849.683V498.839Z" fill="black"/>
<path d="M360.967 465.929H355.678C355.582 465.245 355.384 464.637 355.087 464.106C354.789 463.566 354.407 463.107 353.94 462.729C353.473 462.351 352.934 462.061 352.322 461.86C351.718 461.659 351.062 461.558 350.354 461.558C349.074 461.558 347.959 461.876 347.009 462.512C346.059 463.14 345.323 464.057 344.8 465.265C344.277 466.464 344.015 467.921 344.015 469.635C344.015 471.398 344.277 472.879 344.8 474.079C345.331 475.278 346.072 476.183 347.021 476.795C347.971 477.407 349.07 477.713 350.318 477.713C351.018 477.713 351.666 477.62 352.261 477.435C352.865 477.25 353.4 476.98 353.867 476.626C354.334 476.264 354.72 475.825 355.026 475.31C355.34 474.795 355.558 474.207 355.678 473.547L360.967 473.571C360.83 474.706 360.488 475.801 359.94 476.856C359.401 477.902 358.673 478.84 357.755 479.669C356.845 480.49 355.759 481.142 354.495 481.625C353.239 482.1 351.819 482.337 350.233 482.337C348.027 482.337 346.055 481.838 344.317 480.84C342.586 479.842 341.218 478.397 340.212 476.505C339.214 474.614 338.715 472.324 338.715 469.635C338.715 466.939 339.222 464.645 340.236 462.753C341.25 460.862 342.626 459.421 344.365 458.431C346.104 457.433 348.06 456.934 350.233 456.934C351.666 456.934 352.994 457.135 354.217 457.537C355.449 457.94 356.54 458.527 357.489 459.3C358.439 460.065 359.212 461.003 359.808 462.113C360.411 463.224 360.798 464.496 360.967 465.929ZM364.036 481.999V457.272H369.264V467.474H379.876V457.272H385.092V481.999H379.876V471.785H369.264V481.999H364.036ZM388.723 481.999V457.272H405.385V461.582H393.951V467.474H404.527V471.785H393.951V477.689H405.433V481.999H388.723ZM413.123 481.999H407.521L416.057 457.272H422.794L431.319 481.999H425.716L419.522 462.922H419.329L413.123 481.999ZM412.773 472.28H426.006V476.361H412.773V472.28ZM433.615 481.999V457.272H443.37C445.246 457.272 446.844 457.63 448.164 458.346C449.484 459.055 450.49 460.041 451.182 461.304C451.882 462.56 452.233 464.009 452.233 465.651C452.233 467.293 451.878 468.742 451.17 469.998C450.462 471.253 449.436 472.231 448.091 472.932C446.755 473.632 445.137 473.982 443.238 473.982H437.02V469.792H442.392C443.399 469.792 444.228 469.619 444.88 469.273C445.54 468.919 446.031 468.432 446.353 467.812C446.683 467.184 446.848 466.464 446.848 465.651C446.848 464.83 446.683 464.114 446.353 463.502C446.031 462.882 445.54 462.403 444.88 462.065C444.22 461.719 443.382 461.546 442.368 461.546H438.843V481.999H433.615Z" fill="black"/>
<path d="M350.817 493.494C350.737 492.692 350.396 492.069 349.793 491.625C349.189 491.18 348.371 490.958 347.337 490.958C346.634 490.958 346.041 491.058 345.557 491.257C345.073 491.449 344.702 491.717 344.443 492.062C344.191 492.407 344.065 492.798 344.065 493.235C344.052 493.6 344.128 493.918 344.294 494.19C344.466 494.462 344.702 494.697 345 494.896C345.298 495.088 345.643 495.257 346.034 495.403C346.425 495.542 346.843 495.661 347.287 495.761L349.116 496.198C350.005 496.397 350.82 496.662 351.562 496.994C352.305 497.325 352.948 497.733 353.491 498.217C354.035 498.701 354.456 499.271 354.754 499.927C355.059 500.583 355.215 501.336 355.222 502.184C355.215 503.43 354.897 504.511 354.267 505.426C353.644 506.334 352.742 507.04 351.562 507.544C350.389 508.041 348.974 508.289 347.317 508.289C345.673 508.289 344.241 508.037 343.021 507.534C341.808 507.03 340.86 506.284 340.178 505.296C339.501 504.302 339.147 503.072 339.114 501.608H343.28C343.326 502.29 343.522 502.86 343.866 503.318C344.218 503.768 344.685 504.11 345.268 504.342C345.858 504.567 346.525 504.68 347.267 504.68C347.996 504.68 348.629 504.574 349.166 504.362C349.71 504.15 350.131 503.855 350.429 503.477C350.727 503.099 350.876 502.665 350.876 502.174C350.876 501.717 350.741 501.332 350.469 501.021C350.204 500.709 349.812 500.444 349.295 500.225C348.785 500.007 348.159 499.808 347.416 499.629L345.199 499.072C343.482 498.654 342.126 498.001 341.132 497.113C340.138 496.225 339.644 495.028 339.651 493.524C339.644 492.291 339.972 491.214 340.635 490.292C341.304 489.371 342.223 488.652 343.389 488.135C344.556 487.617 345.882 487.359 347.366 487.359C348.878 487.359 350.197 487.617 351.324 488.135C352.457 488.652 353.339 489.371 353.969 490.292C354.598 491.214 354.923 492.281 354.943 493.494H350.817ZM357.558 508.001V487.637H361.863V496.039H370.603V487.637H374.898V508.001H370.603V499.589H361.863V508.001H357.558ZM381.398 508.001H376.784L383.814 487.637H389.363L396.382 508.001H391.769L386.668 492.291H386.509L381.398 508.001ZM381.11 499.997H392.007V503.358H381.11V499.997ZM398.273 508.001V487.637H406.308C407.845 487.637 409.158 487.912 410.245 488.463C411.339 489.006 412.171 489.778 412.741 490.779C413.318 491.774 413.606 492.944 413.606 494.289C413.606 495.642 413.314 496.805 412.731 497.779C412.148 498.747 411.302 499.49 410.195 500.007C409.095 500.524 407.763 500.782 406.198 500.782H400.819V497.322H405.502C406.324 497.322 407.007 497.209 407.55 496.984C408.094 496.759 408.498 496.42 408.764 495.97C409.035 495.519 409.171 494.959 409.171 494.289C409.171 493.613 409.035 493.043 408.764 492.579C408.498 492.115 408.091 491.764 407.541 491.525C406.997 491.28 406.311 491.157 405.482 491.157H402.579V508.001H398.273ZM409.271 498.734L414.332 508.001H409.579L404.627 498.734H409.271ZM416.088 508.001V487.637H429.81V491.187H420.394V496.039H429.104V499.589H420.394V504.451H429.85V508.001H416.088ZM439.892 508.001H432.673V487.637H439.951C442 487.637 443.763 488.045 445.241 488.86C446.719 489.669 447.856 490.832 448.652 492.35C449.454 493.868 449.855 495.685 449.855 497.799C449.855 499.92 449.454 501.743 448.652 503.268C447.856 504.793 446.713 505.963 445.221 506.778C443.736 507.593 441.96 508.001 439.892 508.001ZM436.978 504.312H439.713C440.986 504.312 442.056 504.087 442.924 503.636C443.799 503.179 444.456 502.473 444.893 501.518C445.337 500.557 445.559 499.317 445.559 497.799C445.559 496.295 445.337 495.065 444.893 494.11C444.456 493.156 443.803 492.453 442.934 492.002C442.066 491.552 440.995 491.326 439.723 491.326H436.978V504.312Z" fill="black"/>
<path d="M389.771 582.274H401.961L408.126 607.49H408.603L423.12 582.274H435.311L428.549 623.001H418.964L423.12 597.984H422.782L408.901 622.742H402.796L397.149 597.845H396.811L392.595 623.001H383.009L389.771 582.274ZM462.73 582.274H472.554L468.198 608.544C467.695 611.58 466.535 614.224 464.718 616.478C462.915 618.719 460.615 620.456 457.818 621.688C455.02 622.908 451.905 623.518 448.471 623.518C445.024 623.518 442.114 622.908 439.741 621.688C437.368 620.456 435.651 618.719 434.59 616.478C433.53 614.224 433.245 611.58 433.735 608.544L438.09 582.274H447.934L443.698 607.688C443.473 609.094 443.579 610.347 444.017 611.447C444.467 612.534 445.197 613.396 446.204 614.032C447.212 614.655 448.445 614.967 449.903 614.967C451.375 614.967 452.72 614.655 453.94 614.032C455.16 613.396 456.167 612.534 456.963 611.447C457.758 610.347 458.268 609.094 458.494 607.688L462.73 582.274ZM468.602 623.001L475.363 582.274H485.207L479.798 615.007H496.741L495.389 623.001H468.602ZM496.225 590.268L497.577 582.274H532L530.648 590.268H518.299L512.89 623.001H503.185L508.594 590.268H496.225ZM543.292 582.274L536.53 623.001H526.687L533.448 582.274H543.292ZM562.876 598.899L561.663 606.376H542.83L544.043 598.899H562.876ZM565.66 590.268L567.013 582.274H601.436L600.084 590.268H587.734L582.325 623.001H572.621L578.03 590.268H565.66ZM596.122 623.001L602.884 582.274H631.281L629.929 590.268H611.375L610.023 598.62H627.125L625.773 606.634H608.671L607.318 615.007H625.872L624.52 623.001H596.122ZM668.748 582.274L661.987 623.001H653.634L641.364 599.495H641.086L637.168 623.001H627.325L634.086 582.274H642.558L654.728 605.74H655.066L658.924 582.274H668.748ZM673.626 623.001H663.046L683.549 582.274H696.654L703.634 623.001H693.055L688.58 592.535H688.262L673.626 623.001ZM674.899 606.973H697.012L695.74 614.45H673.626L674.899 606.973ZM746.083 582.274L739.321 623.001H730.969L718.699 599.495H718.421L714.503 623.001H704.659L711.421 582.274H719.892L732.063 605.74H732.401L736.259 582.274H746.083ZM783.395 597.029H773.571C773.624 595.995 773.525 595.074 773.273 594.265C773.021 593.443 772.624 592.741 772.08 592.157C771.536 591.561 770.86 591.11 770.052 590.805C769.243 590.5 768.302 590.348 767.228 590.348C765.173 590.348 763.31 590.858 761.64 591.879C759.969 592.9 758.57 594.371 757.444 596.294C756.317 598.216 755.528 600.523 755.077 603.214C754.666 605.813 754.673 607.98 755.097 609.717C755.534 611.454 756.343 612.759 757.523 613.634C758.703 614.496 760.201 614.927 762.017 614.927C763.197 614.927 764.291 614.788 765.299 614.509C766.32 614.218 767.241 613.8 768.063 613.257C768.885 612.713 769.594 612.057 770.191 611.288C770.801 610.506 771.271 609.637 771.603 608.683H781.506C781.016 610.473 780.207 612.256 779.08 614.032C777.966 615.795 776.561 617.393 774.864 618.825C773.167 620.257 771.198 621.403 768.958 622.265C766.717 623.127 764.225 623.558 761.481 623.558C757.729 623.558 754.494 622.716 751.776 621.032C749.071 619.349 747.116 616.909 745.909 613.714C744.716 610.506 744.491 606.621 745.233 602.061C745.963 597.646 747.401 593.927 749.549 590.904C751.71 587.882 754.335 585.595 757.424 584.044C760.526 582.492 763.834 581.717 767.347 581.717C769.892 581.717 772.179 582.062 774.208 582.751C776.249 583.427 777.98 584.421 779.398 585.734C780.817 587.033 781.871 588.631 782.56 590.527C783.263 592.422 783.541 594.59 783.395 597.029ZM786.125 582.274H797.123L802.89 599.316H803.307L814.702 582.274H825.699L806.31 609.399L804.043 623.001H794.259L796.546 609.399L786.125 582.274Z" fill="black"/>
<path d="M416.034 338.054C416.034 338.054 593.581 399.019 624.627 416.909C641.773 426.79 647.662 448.699 637.779 465.846C627.899 482.991 605.991 488.877 588.845 478.997C557.8 461.108 416.034 338.054 416.034 338.054Z" fill="#1D1D1F"/>
<path d="M598.481 460.664C605.721 464.838 614.975 462.35 619.148 455.109C623.321 447.868 620.833 438.615 613.592 434.441C606.351 430.268 597.098 432.756 592.925 439.997C588.751 447.238 591.24 456.491 598.481 460.664Z" fill="#EDEDED"/>
</svg>
