<svg width="1200" height="900" viewBox="0 0 1200 900" fill="none" xmlns="http://www.w3.org/2000/svg">
<rect width="1200" height="900" fill="white"/>
<path d="M336.422 305.641V305.203C336.422 304.839 336.549 304.583 336.805 304.438C337.096 304.292 337.424 304.219 337.789 304.219C338.081 304.219 338.354 304.255 338.609 304.328C338.865 304.365 339.065 304.565 339.211 304.93C339.32 305.477 339.43 306.242 339.539 307.227C339.648 308.174 339.776 309.232 339.922 310.398C340.068 311.565 340.214 312.805 340.359 314.117C340.542 315.393 340.706 316.615 340.852 317.781C341.034 318.911 341.216 319.932 341.398 320.844C341.581 321.755 341.781 322.448 342 322.922C341.891 319.422 342 316.396 342.328 313.844C342.656 311.255 343.276 309.159 344.188 307.555C345.135 305.914 346.411 304.784 348.016 304.164C349.656 303.508 351.698 303.362 354.141 303.727C355.271 303.727 355.836 304.328 355.836 305.531C355.836 306.005 355.526 306.333 354.906 306.516C354.286 306.661 353.594 306.771 352.828 306.844C352.062 306.88 351.315 306.935 350.586 307.008C349.857 307.081 349.328 307.263 349 307.555C347.688 308.284 346.758 309.414 346.211 310.945C345.701 312.477 345.336 314.281 345.117 316.359C344.898 318.438 344.734 320.716 344.625 323.195C344.552 325.638 344.315 328.154 343.914 330.742C343.914 331.107 343.768 331.38 343.477 331.562C343.185 331.745 342.82 331.836 342.383 331.836C341.982 331.836 341.581 331.745 341.18 331.562C340.815 331.38 340.523 331.107 340.305 330.742L336.422 305.641ZM358.57 324.508C358.315 322.831 358.188 321.208 358.188 319.641C358.188 318.036 358.279 316.414 358.461 314.773C358.68 313.133 358.971 311.438 359.336 309.688C359.737 307.901 360.193 305.987 360.703 303.945C360.703 303.544 360.812 303.18 361.031 302.852C361.25 302.487 361.542 302.195 361.906 301.977C362.271 301.721 362.654 301.521 363.055 301.375C363.456 301.229 363.839 301.156 364.203 301.156C365.005 301.156 365.734 301.411 366.391 301.922C367.047 302.432 367.63 303.052 368.141 303.781C368.688 304.51 369.143 305.294 369.508 306.133C369.909 306.935 370.237 307.628 370.492 308.211C370.784 309.487 370.984 310.945 371.094 312.586C371.24 314.19 371.258 315.831 371.148 317.508C371.039 319.185 370.784 320.844 370.383 322.484C369.982 324.089 369.417 325.565 368.688 326.914C367.958 328.263 367.01 329.393 365.844 330.305C364.714 331.216 363.365 331.781 361.797 332C360.958 332 360.32 331.727 359.883 331.18C359.445 330.596 359.117 329.904 358.898 329.102C358.716 328.263 358.607 327.424 358.57 326.586C358.57 325.747 358.57 325.055 358.57 324.508ZM361.359 324.344C361.359 324.708 361.359 325.055 361.359 325.383C361.396 325.711 361.432 326.039 361.469 326.367C361.542 326.659 361.615 326.987 361.688 327.352C361.797 327.68 361.924 328.062 362.07 328.5H362.398C363.273 328.5 364.021 328.208 364.641 327.625C365.26 327.042 365.789 326.294 366.227 325.383C366.664 324.435 367.029 323.396 367.32 322.266C367.612 321.099 367.831 319.969 367.977 318.875C368.159 317.745 368.268 316.706 368.305 315.758C368.378 314.773 368.414 313.99 368.414 313.406V312.312C368.414 311.839 368.396 311.31 368.359 310.727C368.323 310.107 368.25 309.487 368.141 308.867C368.068 308.211 367.94 307.628 367.758 307.117C367.576 306.57 367.339 306.133 367.047 305.805C366.755 305.477 366.372 305.312 365.898 305.312C365.096 305.057 364.404 305.112 363.82 305.477C363.273 305.841 362.818 306.461 362.453 307.336C362.125 308.174 361.87 309.214 361.688 310.453C361.505 311.693 361.396 313.06 361.359 314.555C361.323 316.049 361.305 317.635 361.305 319.312C361.341 320.99 361.359 322.667 361.359 324.344ZM373.5 324.508C373.245 322.831 373.117 321.208 373.117 319.641C373.117 318.036 373.208 316.414 373.391 314.773C373.609 313.133 373.901 311.438 374.266 309.688C374.667 307.901 375.122 305.987 375.633 303.945C375.633 303.544 375.742 303.18 375.961 302.852C376.18 302.487 376.471 302.195 376.836 301.977C377.201 301.721 377.583 301.521 377.984 301.375C378.385 301.229 378.768 301.156 379.133 301.156C379.935 301.156 380.664 301.411 381.32 301.922C381.977 302.432 382.56 303.052 383.07 303.781C383.617 304.51 384.073 305.294 384.438 306.133C384.839 306.935 385.167 307.628 385.422 308.211C385.714 309.487 385.914 310.945 386.023 312.586C386.169 314.19 386.188 315.831 386.078 317.508C385.969 319.185 385.714 320.844 385.312 322.484C384.911 324.089 384.346 325.565 383.617 326.914C382.888 328.263 381.94 329.393 380.773 330.305C379.643 331.216 378.294 331.781 376.727 332C375.888 332 375.25 331.727 374.812 331.18C374.375 330.596 374.047 329.904 373.828 329.102C373.646 328.263 373.536 327.424 373.5 326.586C373.5 325.747 373.5 325.055 373.5 324.508ZM376.289 324.344C376.289 324.708 376.289 325.055 376.289 325.383C376.326 325.711 376.362 326.039 376.398 326.367C376.471 326.659 376.544 326.987 376.617 327.352C376.727 327.68 376.854 328.062 377 328.5H377.328C378.203 328.5 378.951 328.208 379.57 327.625C380.19 327.042 380.719 326.294 381.156 325.383C381.594 324.435 381.958 323.396 382.25 322.266C382.542 321.099 382.76 319.969 382.906 318.875C383.089 317.745 383.198 316.706 383.234 315.758C383.307 314.773 383.344 313.99 383.344 313.406V312.312C383.344 311.839 383.326 311.31 383.289 310.727C383.253 310.107 383.18 309.487 383.07 308.867C382.997 308.211 382.87 307.628 382.688 307.117C382.505 306.57 382.268 306.133 381.977 305.805C381.685 305.477 381.302 305.312 380.828 305.312C380.026 305.057 379.333 305.112 378.75 305.477C378.203 305.841 377.747 306.461 377.383 307.336C377.055 308.174 376.799 309.214 376.617 310.453C376.435 311.693 376.326 313.06 376.289 314.555C376.253 316.049 376.234 317.635 376.234 319.312C376.271 320.99 376.289 322.667 376.289 324.344ZM389.961 308.648C389.596 308.831 389.25 309.031 388.922 309.25C388.63 309.432 388.339 309.615 388.047 309.797C387.755 309.943 387.464 310.052 387.172 310.125C386.88 310.198 386.57 310.198 386.242 310.125C386.023 310.125 385.841 309.997 385.695 309.742C385.549 309.451 385.44 309.141 385.367 308.812C385.258 308.448 385.185 308.102 385.148 307.773C385.112 307.409 385.112 307.135 385.148 306.953L390.398 303.945L390.727 289.945C390.799 289.471 391.091 289.289 391.602 289.398C392.112 289.471 392.641 289.581 393.188 289.727C393.26 289.727 393.37 289.763 393.516 289.836C393.698 289.872 393.826 289.909 393.898 289.945C393.826 290.93 393.734 292.005 393.625 293.172C393.552 294.302 393.479 295.451 393.406 296.617C393.333 297.747 393.279 298.859 393.242 299.953C393.242 301.047 393.297 302.031 393.406 302.906L401.609 300.609C401.755 300.573 401.865 300.682 401.938 300.938C402.047 301.156 402.138 301.43 402.211 301.758C402.32 302.086 402.393 302.414 402.43 302.742C402.466 303.07 402.484 303.234 402.484 303.234L393.188 307.172C393.188 307.5 393.206 308.284 393.242 309.523C393.315 310.763 393.388 312.24 393.461 313.953C393.534 315.63 393.607 317.453 393.68 319.422C393.753 321.354 393.826 323.159 393.898 324.836C393.971 326.513 394.026 327.99 394.062 329.266C394.099 330.505 394.117 331.289 394.117 331.617C394.044 332.711 393.716 333.258 393.133 333.258C392.586 333.258 391.984 332.984 391.328 332.438L389.961 308.648ZM431.031 331.289C430.63 326.367 430.266 321.445 429.938 316.523C429.646 311.565 429.318 306.424 428.953 301.102C428.953 300.227 429.427 299.789 430.375 299.789H430.812C430.922 299.789 431.049 299.935 431.195 300.227C431.341 300.518 431.487 301.065 431.633 301.867C431.815 302.633 431.997 303.818 432.18 305.422C432.398 306.99 432.654 309.049 432.945 311.602C433.237 314.154 433.565 317.344 433.93 321.172C434.695 318.693 435.297 316.286 435.734 313.953C436.172 311.62 436.737 309.505 437.43 307.609C438.122 305.677 439.089 303.982 440.328 302.523C441.604 301.065 443.427 299.99 445.797 299.297C447.109 299.516 448.167 300.318 448.969 301.703C449.771 303.052 450.409 304.729 450.883 306.734C451.357 308.74 451.685 310.927 451.867 313.297C452.049 315.63 452.159 317.872 452.195 320.023C452.232 322.174 452.25 324.107 452.25 325.82C452.25 327.497 452.286 328.701 452.359 329.43C452.25 329.721 452.086 329.977 451.867 330.195C451.648 330.414 451.393 330.578 451.102 330.688C450.846 330.76 450.591 330.779 450.336 330.742C450.081 330.669 449.844 330.469 449.625 330.141C449.625 329.74 449.589 328.919 449.516 327.68C449.443 326.44 449.352 325 449.242 323.359C449.133 321.682 449.005 319.914 448.859 318.055C448.75 316.159 448.641 314.391 448.531 312.75C448.458 311.073 448.385 309.615 448.312 308.375C448.24 307.135 448.185 306.315 448.148 305.914C447.383 304.565 446.617 303.799 445.852 303.617C445.122 303.435 444.375 303.672 443.609 304.328C442.88 304.984 442.169 305.987 441.477 307.336C440.784 308.685 440.128 310.216 439.508 311.93C438.888 313.607 438.305 315.375 437.758 317.234C437.211 319.094 436.737 320.898 436.336 322.648C435.935 324.362 435.589 325.93 435.297 327.352C435.042 328.737 434.878 329.812 434.805 330.578C434.695 330.833 434.458 331.089 434.094 331.344C433.766 331.562 433.401 331.727 433 331.836C432.635 331.945 432.253 331.982 431.852 331.945C431.487 331.872 431.214 331.654 431.031 331.289ZM471.336 330.578C471.154 329.63 470.99 328.5 470.844 327.188C470.734 325.839 470.607 324.49 470.461 323.141C470.315 321.755 470.133 320.461 469.914 319.258C469.732 318.055 469.44 317.07 469.039 316.305C467.18 320.096 465.539 323.086 464.117 325.273C462.695 327.424 461.438 328.974 460.344 329.922C459.286 330.833 458.393 331.271 457.664 331.234C456.935 331.198 456.333 330.87 455.859 330.25C455.385 329.63 455.039 328.846 454.82 327.898C454.638 326.914 454.51 326.003 454.438 325.164C454.438 324.362 454.62 323.232 454.984 321.773C455.349 320.315 455.841 318.729 456.461 317.016C457.081 315.266 457.81 313.497 458.648 311.711C459.523 309.924 460.453 308.302 461.438 306.844C462.422 305.385 463.443 304.182 464.5 303.234C465.557 302.286 466.615 301.812 467.672 301.812C469.24 301.557 470.388 301.904 471.117 302.852C471.883 303.763 472.029 305.312 471.555 307.5C471.555 309.906 471.646 311.966 471.828 313.68C472.047 315.393 472.266 317.034 472.484 318.602C472.74 320.169 472.958 321.81 473.141 323.523C473.359 325.237 473.469 327.297 473.469 329.703C473.469 330.141 473.414 330.523 473.305 330.852C473.232 331.143 472.794 331.289 471.992 331.289C471.883 331.289 471.737 331.198 471.555 331.016C471.409 330.833 471.336 330.688 471.336 330.578ZM468.383 306.133C467.982 305.549 467.435 305.495 466.742 305.969C466.049 306.443 465.32 307.227 464.555 308.32C463.789 309.414 463.005 310.727 462.203 312.258C461.401 313.789 460.654 315.339 459.961 316.906C459.268 318.474 458.667 319.969 458.156 321.391C457.646 322.776 457.299 323.924 457.117 324.836C457.117 326.148 457.318 326.896 457.719 327.078C458.12 327.224 458.612 327.005 459.195 326.422C459.779 325.839 460.435 325 461.164 323.906C461.93 322.812 462.659 321.646 463.352 320.406C464.081 319.167 464.755 317.964 465.375 316.797C466.031 315.63 466.542 314.682 466.906 313.953C467.234 313.188 467.49 312.477 467.672 311.82C467.854 311.164 468 310.544 468.109 309.961C468.255 309.341 468.328 308.721 468.328 308.102C468.365 307.482 468.383 306.826 468.383 306.133ZM478.5 331.836C478.391 330.815 478.299 329.43 478.227 327.68C478.154 325.93 478.081 324.034 478.008 321.992C477.935 319.914 477.844 317.763 477.734 315.539C477.661 313.315 477.57 311.201 477.461 309.195C477.352 307.19 477.206 305.367 477.023 303.727C476.878 302.086 476.714 300.773 476.531 299.789C476.531 299.06 476.695 298.641 477.023 298.531C477.352 298.385 477.771 298.312 478.281 298.312C478.354 298.312 478.518 298.312 478.773 298.312C479.029 298.312 479.211 298.331 479.32 298.367C479.648 299.461 479.849 300.883 479.922 302.633C480.031 304.346 480.104 306.224 480.141 308.266C480.214 310.307 480.268 312.422 480.305 314.609C480.378 316.797 480.505 318.875 480.688 320.844C481.198 317.964 481.617 315.576 481.945 313.68C482.31 311.784 482.638 310.271 482.93 309.141C483.258 307.974 483.549 307.117 483.805 306.57C484.096 305.987 484.406 305.604 484.734 305.422C485.099 305.24 485.482 305.167 485.883 305.203C486.32 305.203 486.831 305.203 487.414 305.203C488.07 305.203 488.599 305.458 489 305.969C489.438 306.479 489.766 307.135 489.984 307.938C490.24 308.74 490.422 309.615 490.531 310.562C490.677 311.51 490.805 312.44 490.914 313.352C491.023 314.227 491.133 315.029 491.242 315.758C491.388 316.487 491.607 316.997 491.898 317.289C492.81 314.591 493.594 312.385 494.25 310.672C494.906 308.958 495.471 307.609 495.945 306.625C496.419 305.604 496.839 304.875 497.203 304.438C497.568 304 497.896 303.745 498.188 303.672C498.479 303.562 498.734 303.544 498.953 303.617C499.208 303.69 499.464 303.727 499.719 303.727C500.703 303.727 501.451 304.237 501.961 305.258C502.544 306.898 502.945 308.466 503.164 309.961C503.383 311.419 503.51 312.841 503.547 314.227C503.583 315.576 503.583 316.87 503.547 318.109C503.547 319.349 503.583 320.552 503.656 321.719C503.766 322.885 503.966 324.034 504.258 325.164C504.586 326.294 505.133 327.406 505.898 328.5C505.607 329.083 505.315 329.484 505.023 329.703C504.732 329.885 504.331 329.977 503.82 329.977C503.383 329.977 503 329.831 502.672 329.539C502.344 329.211 502.07 328.828 501.852 328.391C501.633 327.917 501.451 327.443 501.305 326.969C501.195 326.495 501.086 326.076 500.977 325.711C500.831 320.497 500.594 316.505 500.266 313.734C499.974 310.927 499.518 309.451 498.898 309.305C498.279 309.159 497.477 310.38 496.492 312.969C495.544 315.521 494.359 319.531 492.938 325C492.828 325.182 492.664 325.292 492.445 325.328C492.227 325.365 491.99 325.383 491.734 325.383C491.516 325.383 491.279 325.383 491.023 325.383C490.805 325.346 490.586 325.346 490.367 325.383C489.456 320.023 488.69 316.177 488.07 313.844C487.487 311.474 486.885 310.562 486.266 311.109C485.646 311.656 484.953 313.625 484.188 317.016C483.422 320.37 482.438 325.091 481.234 331.18L478.5 331.836ZM510.328 320.188C510.146 320.224 509.872 320.279 509.508 320.352C509.143 320.424 508.76 320.443 508.359 320.406C507.958 320.37 507.612 320.26 507.32 320.078C506.992 319.896 506.828 319.586 506.828 319.148C506.828 318.893 506.883 318.711 506.992 318.602C507.102 318.492 507.284 318.328 507.539 318.109C508.341 317.453 509.016 316.615 509.562 315.594C510.146 314.536 510.674 313.424 511.148 312.258C511.622 311.055 512.115 309.87 512.625 308.703C513.172 307.5 513.792 306.424 514.484 305.477C515.177 304.529 516.034 303.763 517.055 303.18C518.076 302.596 519.333 302.323 520.828 302.359C521.448 302.359 522.141 302.505 522.906 302.797C523.672 303.089 524.383 303.49 525.039 304C525.695 304.474 526.242 305.057 526.68 305.75C527.117 306.443 527.336 307.208 527.336 308.047C527.518 308.339 527.336 308.758 526.789 309.305C526.279 309.852 525.568 310.453 524.656 311.109C523.745 311.729 522.706 312.385 521.539 313.078C520.409 313.734 519.315 314.354 518.258 314.938C517.201 315.521 516.271 316.031 515.469 316.469C514.667 316.906 514.138 317.234 513.883 317.453C513.701 317.818 513.555 318.237 513.445 318.711C513.336 319.185 513.245 319.641 513.172 320.078C513.135 320.479 513.099 320.862 513.062 321.227C513.062 321.555 513.062 321.81 513.062 321.992C513.062 322.685 513.026 323.451 512.953 324.289C512.917 325.128 512.953 325.93 513.062 326.695C513.208 327.424 513.518 328.044 513.992 328.555C514.466 329.029 515.268 329.266 516.398 329.266C517.602 329.266 518.732 328.974 519.789 328.391C520.846 327.771 521.831 327.023 522.742 326.148C523.654 325.273 524.474 324.326 525.203 323.305C525.969 322.284 526.643 321.336 527.227 320.461C527.846 319.549 528.393 318.802 528.867 318.219C529.341 317.635 529.742 317.344 530.07 317.344C530.435 317.344 530.818 317.417 531.219 317.562C531.656 317.672 531.875 317.964 531.875 318.438C531.875 319.094 531.602 319.878 531.055 320.789C530.544 321.701 529.852 322.667 528.977 323.688C528.138 324.708 527.154 325.729 526.023 326.75C524.93 327.734 523.818 328.628 522.688 329.43C521.557 330.195 520.445 330.833 519.352 331.344C518.258 331.818 517.292 332.055 516.453 332.055C514.812 332.055 513.573 331.654 512.734 330.852C511.896 330.049 511.294 329.047 510.93 327.844C510.602 326.641 510.419 325.365 510.383 324.016C510.383 322.63 510.365 321.354 510.328 320.188ZM520.391 305.422C519.771 305.422 519.115 305.732 518.422 306.352C517.729 306.935 517.073 307.664 516.453 308.539C515.87 309.378 515.378 310.253 514.977 311.164C514.612 312.039 514.43 312.768 514.43 313.352C514.977 313.352 515.76 313.151 516.781 312.75C517.839 312.312 518.878 311.784 519.898 311.164C520.919 310.544 521.812 309.888 522.578 309.195C523.344 308.503 523.727 307.846 523.727 307.227C523.727 306.898 523.599 306.625 523.344 306.406C523.089 306.188 522.779 306.005 522.414 305.859C522.086 305.714 521.74 305.604 521.375 305.531C521.01 305.458 520.682 305.422 520.391 305.422ZM538.93 331.18C538.93 331.216 539.312 330.997 540.078 330.523C540.88 330.049 541.81 329.43 542.867 328.664C543.961 327.862 545.073 327.005 546.203 326.094C547.333 325.146 548.263 324.253 548.992 323.414C549.721 322.576 550.104 321.865 550.141 321.281C550.214 320.661 549.721 320.26 548.664 320.078C547.352 319.896 546.24 319.914 545.328 320.133C544.453 320.352 543.651 320.607 542.922 320.898C542.193 321.19 541.5 321.464 540.844 321.719C540.224 321.974 539.531 322.065 538.766 321.992C537.161 321.992 536.049 321.5 535.43 320.516C534.846 319.495 534.555 318.128 534.555 316.414C534.555 314.701 534.938 313.078 535.703 311.547C536.469 309.979 537.453 308.63 538.656 307.5C539.859 306.37 541.245 305.477 542.812 304.82C544.38 304.128 545.984 303.781 547.625 303.781C548.281 303.781 548.846 303.836 549.32 303.945C549.794 304.055 550.031 304.474 550.031 305.203C550.031 305.714 549.812 306.206 549.375 306.68C548.938 307.117 548.445 307.336 547.898 307.336C547.862 307.336 547.771 307.318 547.625 307.281C547.479 307.208 547.333 307.117 547.188 307.008C547.042 306.898 546.896 306.826 546.75 306.789C546.604 306.716 546.513 306.68 546.477 306.68C545.31 306.352 544.18 306.516 543.086 307.172C541.992 307.828 541.008 308.721 540.133 309.852C539.294 310.945 538.62 312.148 538.109 313.461C537.599 314.737 537.344 315.885 537.344 316.906C537.344 317.307 537.417 317.635 537.562 317.891C537.745 318.109 537.964 318.273 538.219 318.383C538.51 318.492 538.82 318.565 539.148 318.602C539.513 318.602 539.878 318.602 540.242 318.602C540.971 318.602 541.701 318.492 542.43 318.273C543.195 318.055 543.924 317.799 544.617 317.508C545.346 317.216 546.076 316.961 546.805 316.742C547.57 316.523 548.354 316.414 549.156 316.414C549.521 316.414 549.922 316.523 550.359 316.742C550.797 316.924 551.198 317.216 551.562 317.617C551.927 317.982 552.237 318.419 552.492 318.93C552.747 319.404 552.893 319.932 552.93 320.516C553.148 321.026 553.076 321.701 552.711 322.539C552.383 323.378 551.872 324.271 551.18 325.219C550.487 326.167 549.648 327.133 548.664 328.117C547.68 329.065 546.695 329.94 545.711 330.742C544.727 331.508 543.76 332.128 542.812 332.602C541.865 333.112 541.062 333.349 540.406 333.312C539.677 333.312 539.24 333.094 539.094 332.656C538.984 332.219 538.93 331.727 538.93 331.18ZM555.281 346.383C555.682 342.555 555.901 338.909 555.938 335.445C556.01 332.018 555.992 328.628 555.883 325.273C555.81 321.919 555.682 318.529 555.5 315.102C555.318 311.674 555.208 308.047 555.172 304.219C555.281 303.708 555.409 303.326 555.555 303.07C555.737 302.779 556.193 302.706 556.922 302.852C557.688 303.034 558.143 303.471 558.289 304.164C558.435 304.82 558.471 305.568 558.398 306.406C558.326 307.245 558.216 308.083 558.07 308.922C557.924 309.76 557.924 310.435 558.07 310.945C559.237 310.107 560.477 309.232 561.789 308.32C563.102 307.409 564.469 306.607 565.891 305.914C567.312 305.185 568.789 304.656 570.32 304.328C571.852 303.964 573.383 303.945 574.914 304.273C576.81 304.711 578.122 305.367 578.852 306.242C579.617 307.081 579.909 308.065 579.727 309.195C579.581 310.289 579.07 311.51 578.195 312.859C577.32 314.172 576.245 315.503 574.969 316.852C573.693 318.201 572.271 319.531 570.703 320.844C569.135 322.156 567.604 323.378 566.109 324.508C564.615 325.602 563.211 326.568 561.898 327.406C560.622 328.245 559.602 328.865 558.836 329.266C558.799 329.703 558.745 330.396 558.672 331.344C558.635 332.255 558.581 333.294 558.508 334.461C558.471 335.628 558.417 336.849 558.344 338.125C558.307 339.401 558.253 340.622 558.18 341.789C558.143 342.956 558.089 343.995 558.016 344.906C557.979 345.818 557.961 346.492 557.961 346.93C557.888 346.966 557.76 347.003 557.578 347.039C557.396 347.076 557.177 347.094 556.922 347.094C556.667 347.13 556.43 347.148 556.211 347.148C555.992 347.185 555.846 347.185 555.773 347.148C555.664 347.148 555.555 347.039 555.445 346.82C555.336 346.638 555.281 346.492 555.281 346.383ZM558.344 316.414C558.234 316.924 558.198 317.562 558.234 318.328C558.307 319.057 558.38 319.841 558.453 320.68C558.562 321.482 558.672 322.266 558.781 323.031C558.891 323.797 558.964 324.453 559 325C560.385 323.943 561.99 322.867 563.812 321.773C565.672 320.68 567.458 319.495 569.172 318.219C570.922 316.943 572.471 315.521 573.82 313.953C575.169 312.385 576.062 310.617 576.5 308.648C576.646 307.883 576.573 307.372 576.281 307.117C576.026 306.826 575.57 306.625 574.914 306.516C573.529 306.224 571.943 306.333 570.156 306.844C568.37 307.318 566.638 308.029 564.961 308.977C563.32 309.924 561.88 311.055 560.641 312.367C559.401 313.68 558.635 315.029 558.344 316.414ZM597.664 330.578C597.482 329.63 597.318 328.5 597.172 327.188C597.062 325.839 596.935 324.49 596.789 323.141C596.643 321.755 596.461 320.461 596.242 319.258C596.06 318.055 595.768 317.07 595.367 316.305C593.508 320.096 591.867 323.086 590.445 325.273C589.023 327.424 587.766 328.974 586.672 329.922C585.615 330.833 584.721 331.271 583.992 331.234C583.263 331.198 582.661 330.87 582.188 330.25C581.714 329.63 581.367 328.846 581.148 327.898C580.966 326.914 580.839 326.003 580.766 325.164C580.766 324.362 580.948 323.232 581.312 321.773C581.677 320.315 582.169 318.729 582.789 317.016C583.409 315.266 584.138 313.497 584.977 311.711C585.852 309.924 586.781 308.302 587.766 306.844C588.75 305.385 589.771 304.182 590.828 303.234C591.885 302.286 592.943 301.812 594 301.812C595.568 301.557 596.716 301.904 597.445 302.852C598.211 303.763 598.357 305.312 597.883 307.5C597.883 309.906 597.974 311.966 598.156 313.68C598.375 315.393 598.594 317.034 598.812 318.602C599.068 320.169 599.286 321.81 599.469 323.523C599.688 325.237 599.797 327.297 599.797 329.703C599.797 330.141 599.742 330.523 599.633 330.852C599.56 331.143 599.122 331.289 598.32 331.289C598.211 331.289 598.065 331.198 597.883 331.016C597.737 330.833 597.664 330.688 597.664 330.578ZM594.711 306.133C594.31 305.549 593.763 305.495 593.07 305.969C592.378 306.443 591.648 307.227 590.883 308.32C590.117 309.414 589.333 310.727 588.531 312.258C587.729 313.789 586.982 315.339 586.289 316.906C585.596 318.474 584.995 319.969 584.484 321.391C583.974 322.776 583.628 323.924 583.445 324.836C583.445 326.148 583.646 326.896 584.047 327.078C584.448 327.224 584.94 327.005 585.523 326.422C586.107 325.839 586.763 325 587.492 323.906C588.258 322.812 588.987 321.646 589.68 320.406C590.409 319.167 591.083 317.964 591.703 316.797C592.359 315.63 592.87 314.682 593.234 313.953C593.562 313.188 593.818 312.477 594 311.82C594.182 311.164 594.328 310.544 594.438 309.961C594.583 309.341 594.656 308.721 594.656 308.102C594.693 307.482 594.711 306.826 594.711 306.133ZM602.641 319.422C602.75 318.109 602.859 316.688 602.969 315.156C603.078 313.589 603.242 312.039 603.461 310.508C603.716 308.977 604.026 307.518 604.391 306.133C604.792 304.747 605.302 303.526 605.922 302.469C606.578 301.375 607.38 300.518 608.328 299.898C609.276 299.242 610.424 298.932 611.773 298.969C612.685 298.969 613.378 299.352 613.852 300.117C614.362 300.883 614.708 301.812 614.891 302.906C615.109 304 615.219 305.13 615.219 306.297C615.255 307.427 615.273 308.357 615.273 309.086C614.544 309.086 613.943 308.776 613.469 308.156C612.995 307.5 612.63 306.753 612.375 305.914C612.12 305.076 611.938 304.255 611.828 303.453L611.664 301.867C611.628 301.867 611.555 301.867 611.445 301.867C611.372 301.831 611.318 301.812 611.281 301.812C610.661 301.812 610.078 302.159 609.531 302.852C609.021 303.544 608.529 304.438 608.055 305.531C607.617 306.589 607.234 307.792 606.906 309.141C606.578 310.453 606.305 311.747 606.086 313.023C605.867 314.299 605.685 315.484 605.539 316.578C605.43 317.635 605.375 318.456 605.375 319.039C605.302 319.987 605.302 321.026 605.375 322.156C605.448 323.286 605.667 324.344 606.031 325.328C606.396 326.312 606.906 327.169 607.562 327.898C608.219 328.591 609.094 329.065 610.188 329.32C611.536 329.32 612.63 329.138 613.469 328.773C614.307 328.409 614.982 327.917 615.492 327.297C616.039 326.677 616.458 325.984 616.75 325.219C617.042 324.453 617.315 323.669 617.57 322.867C617.862 322.029 618.154 321.208 618.445 320.406C618.737 319.604 619.156 318.857 619.703 318.164C620.141 318.055 620.451 318.073 620.633 318.219C620.852 318.328 620.997 318.492 621.07 318.711C621.143 318.93 621.18 319.185 621.18 319.477V320.078C621.18 321.609 620.924 323.086 620.414 324.508C619.904 325.93 619.156 327.206 618.172 328.336C617.188 329.43 616.003 330.323 614.617 331.016C613.268 331.672 611.719 332 609.969 332C608.51 332 607.289 331.544 606.305 330.633C605.357 329.685 604.609 328.555 604.062 327.242C603.552 325.93 603.188 324.562 602.969 323.141C602.75 321.682 602.641 320.443 602.641 319.422ZM626.102 320.188C625.919 320.224 625.646 320.279 625.281 320.352C624.917 320.424 624.534 320.443 624.133 320.406C623.732 320.37 623.385 320.26 623.094 320.078C622.766 319.896 622.602 319.586 622.602 319.148C622.602 318.893 622.656 318.711 622.766 318.602C622.875 318.492 623.057 318.328 623.312 318.109C624.115 317.453 624.789 316.615 625.336 315.594C625.919 314.536 626.448 313.424 626.922 312.258C627.396 311.055 627.888 309.87 628.398 308.703C628.945 307.5 629.565 306.424 630.258 305.477C630.951 304.529 631.807 303.763 632.828 303.18C633.849 302.596 635.107 302.323 636.602 302.359C637.221 302.359 637.914 302.505 638.68 302.797C639.445 303.089 640.156 303.49 640.812 304C641.469 304.474 642.016 305.057 642.453 305.75C642.891 306.443 643.109 307.208 643.109 308.047C643.292 308.339 643.109 308.758 642.562 309.305C642.052 309.852 641.341 310.453 640.43 311.109C639.518 311.729 638.479 312.385 637.312 313.078C636.182 313.734 635.089 314.354 634.031 314.938C632.974 315.521 632.044 316.031 631.242 316.469C630.44 316.906 629.911 317.234 629.656 317.453C629.474 317.818 629.328 318.237 629.219 318.711C629.109 319.185 629.018 319.641 628.945 320.078C628.909 320.479 628.872 320.862 628.836 321.227C628.836 321.555 628.836 321.81 628.836 321.992C628.836 322.685 628.799 323.451 628.727 324.289C628.69 325.128 628.727 325.93 628.836 326.695C628.982 327.424 629.292 328.044 629.766 328.555C630.24 329.029 631.042 329.266 632.172 329.266C633.375 329.266 634.505 328.974 635.562 328.391C636.62 327.771 637.604 327.023 638.516 326.148C639.427 325.273 640.247 324.326 640.977 323.305C641.742 322.284 642.417 321.336 643 320.461C643.62 319.549 644.167 318.802 644.641 318.219C645.115 317.635 645.516 317.344 645.844 317.344C646.208 317.344 646.591 317.417 646.992 317.562C647.43 317.672 647.648 317.964 647.648 318.438C647.648 319.094 647.375 319.878 646.828 320.789C646.318 321.701 645.625 322.667 644.75 323.688C643.911 324.708 642.927 325.729 641.797 326.75C640.703 327.734 639.591 328.628 638.461 329.43C637.331 330.195 636.219 330.833 635.125 331.344C634.031 331.818 633.065 332.055 632.227 332.055C630.586 332.055 629.346 331.654 628.508 330.852C627.669 330.049 627.068 329.047 626.703 327.844C626.375 326.641 626.193 325.365 626.156 324.016C626.156 322.63 626.138 321.354 626.102 320.188ZM636.164 305.422C635.544 305.422 634.888 305.732 634.195 306.352C633.503 306.935 632.846 307.664 632.227 308.539C631.643 309.378 631.151 310.253 630.75 311.164C630.385 312.039 630.203 312.768 630.203 313.352C630.75 313.352 631.534 313.151 632.555 312.75C633.612 312.312 634.651 311.784 635.672 311.164C636.693 310.544 637.586 309.888 638.352 309.195C639.117 308.503 639.5 307.846 639.5 307.227C639.5 306.898 639.372 306.625 639.117 306.406C638.862 306.188 638.552 306.005 638.188 305.859C637.859 305.714 637.513 305.604 637.148 305.531C636.784 305.458 636.456 305.422 636.164 305.422Z" fill="black"/>
<path d="M471 356C450 471 238 446 226 561" stroke="black" stroke-width="3"/>
<path d="M514 356C535 471 747 446 759 561" stroke="black" stroke-width="3"/>
<path d="M170.422 627.422C170.531 626.109 170.641 624.688 170.75 623.156C170.859 621.589 171.023 620.039 171.242 618.508C171.497 616.977 171.807 615.518 172.172 614.133C172.573 612.747 173.083 611.526 173.703 610.469C174.359 609.375 175.161 608.518 176.109 607.898C177.057 607.242 178.206 606.932 179.555 606.969C180.466 606.969 181.159 607.352 181.633 608.117C182.143 608.883 182.49 609.812 182.672 610.906C182.891 612 183 613.13 183 614.297C183.036 615.427 183.055 616.357 183.055 617.086C182.326 617.086 181.724 616.776 181.25 616.156C180.776 615.5 180.411 614.753 180.156 613.914C179.901 613.076 179.719 612.255 179.609 611.453L179.445 609.867C179.409 609.867 179.336 609.867 179.227 609.867C179.154 609.831 179.099 609.812 179.062 609.812C178.443 609.812 177.859 610.159 177.312 610.852C176.802 611.544 176.31 612.438 175.836 613.531C175.398 614.589 175.016 615.792 174.688 617.141C174.359 618.453 174.086 619.747 173.867 621.023C173.648 622.299 173.466 623.484 173.32 624.578C173.211 625.635 173.156 626.456 173.156 627.039C173.083 627.987 173.083 629.026 173.156 630.156C173.229 631.286 173.448 632.344 173.812 633.328C174.177 634.312 174.688 635.169 175.344 635.898C176 636.591 176.875 637.065 177.969 637.32C179.318 637.32 180.411 637.138 181.25 636.773C182.089 636.409 182.763 635.917 183.273 635.297C183.82 634.677 184.24 633.984 184.531 633.219C184.823 632.453 185.096 631.669 185.352 630.867C185.643 630.029 185.935 629.208 186.227 628.406C186.518 627.604 186.938 626.857 187.484 626.164C187.922 626.055 188.232 626.073 188.414 626.219C188.633 626.328 188.779 626.492 188.852 626.711C188.924 626.93 188.961 627.185 188.961 627.477V628.078C188.961 629.609 188.706 631.086 188.195 632.508C187.685 633.93 186.938 635.206 185.953 636.336C184.969 637.43 183.784 638.323 182.398 639.016C181.049 639.672 179.5 640 177.75 640C176.292 640 175.07 639.544 174.086 638.633C173.138 637.685 172.391 636.555 171.844 635.242C171.333 633.93 170.969 632.562 170.75 631.141C170.531 629.682 170.422 628.443 170.422 627.422ZM211.93 616.102C210.581 615.591 209.286 615.792 208.047 616.703C206.807 617.615 205.622 618.909 204.492 620.586C203.362 622.227 202.286 624.104 201.266 626.219C200.245 628.333 199.297 630.339 198.422 632.234C197.547 634.13 196.745 635.753 196.016 637.102C195.323 638.451 194.685 639.198 194.102 639.344C193.664 639.344 193.318 639.271 193.062 639.125C192.844 638.943 192.734 638.523 192.734 637.867V599.422C192.734 599.094 192.862 598.893 193.117 598.82C193.409 598.747 193.719 598.729 194.047 598.766C194.375 598.802 194.685 598.893 194.977 599.039C195.268 599.148 195.451 599.276 195.523 599.422L196.234 630.211C196.635 629.555 197 628.643 197.328 627.477C197.693 626.273 198.112 624.997 198.586 623.648C199.06 622.263 199.607 620.896 200.227 619.547C200.883 618.161 201.685 616.922 202.633 615.828C203.581 614.734 204.729 613.896 206.078 613.312C207.464 612.693 209.086 612.474 210.945 612.656C212.185 612.656 213.188 613.057 213.953 613.859C214.719 614.625 215.12 615.646 215.156 616.922L215.703 638.742C215.703 638.888 215.667 639.107 215.594 639.398C215.557 639.654 215.411 639.872 215.156 640.055C214.938 640.273 214.609 640.401 214.172 640.438C213.771 640.51 213.242 640.419 212.586 640.164L211.93 616.102ZM219.312 638.906C219.312 636.536 219.258 634.039 219.148 631.414C219.076 628.789 218.984 626.146 218.875 623.484C218.802 620.786 218.784 618.143 218.82 615.555C218.857 612.966 219.021 610.542 219.312 608.281C219.385 608.245 219.549 608.227 219.805 608.227C220.096 608.19 220.297 608.172 220.406 608.172C220.917 608.172 221.318 608.263 221.609 608.445C221.938 608.591 222.102 608.938 222.102 609.484C222.102 611.635 222.083 613.987 222.047 616.539C222.047 619.055 222.029 621.625 221.992 624.25C221.992 626.839 221.992 629.409 221.992 631.961C221.992 634.513 222.029 636.828 222.102 638.906C222.138 639.526 222.01 639.927 221.719 640.109C221.464 640.328 221.135 640.438 220.734 640.438C220.297 640.438 219.932 640.328 219.641 640.109C219.349 639.927 219.24 639.526 219.312 638.906ZM218.109 599.75C218.109 599.312 218.255 599.021 218.547 598.875C218.839 598.729 219.167 598.656 219.531 598.656C220.26 598.656 220.716 598.893 220.898 599.367C221.081 599.841 221.172 600.388 221.172 601.008C220.953 601.409 220.68 601.701 220.352 601.883C220.023 602.029 219.677 602.065 219.312 601.992C218.984 601.883 218.693 601.646 218.438 601.281C218.219 600.917 218.109 600.406 218.109 599.75ZM227.023 637.211C227.279 635.534 227.443 633.438 227.516 630.922C227.625 628.406 227.661 625.727 227.625 622.883C227.625 620.039 227.57 617.104 227.461 614.078C227.352 611.052 227.206 608.19 227.023 605.492C226.841 602.758 226.622 600.315 226.367 598.164C226.148 596.013 225.911 594.318 225.656 593.078C225.984 592.859 226.258 592.695 226.477 592.586C226.732 592.44 227.023 592.367 227.352 592.367C227.607 592.367 227.826 592.422 228.008 592.531C228.19 592.604 228.336 592.786 228.445 593.078C229.174 600.224 229.667 607.424 229.922 614.68C230.214 621.935 230.432 629.154 230.578 636.336C230.578 636.664 230.578 637.12 230.578 637.703C230.578 638.25 230.56 638.542 230.523 638.578C230.013 638.833 229.557 638.961 229.156 638.961C228.755 638.924 228.391 638.815 228.062 638.633C227.734 638.414 227.479 638.177 227.297 637.922C227.115 637.667 227.023 637.43 227.023 637.211ZM245.562 629.992C245.198 630.831 244.724 631.797 244.141 632.891C243.594 633.984 242.938 635.023 242.172 636.008C241.443 636.992 240.586 637.831 239.602 638.523C238.617 639.216 237.523 639.562 236.32 639.562C235.773 639.562 235.336 639.508 235.008 639.398C234.716 639.253 234.443 639.052 234.188 638.797C233.969 638.542 233.75 638.232 233.531 637.867C233.349 637.503 233.112 637.102 232.82 636.664C232.711 634.878 232.638 632.964 232.602 630.922C232.602 628.844 232.711 626.784 232.93 624.742C233.148 622.664 233.513 620.714 234.023 618.891C234.57 617.068 235.318 615.518 236.266 614.242C237.25 612.966 238.471 612.055 239.93 611.508C241.388 610.961 243.156 610.924 245.234 611.398C245.344 610.378 245.362 609.01 245.289 607.297C245.216 605.583 245.107 603.779 244.961 601.883C244.815 599.987 244.669 598.164 244.523 596.414C244.378 594.628 244.286 593.169 244.25 592.039C244.25 591.711 244.396 591.474 244.688 591.328C245.016 591.146 245.362 591.036 245.727 591C246.091 590.964 246.438 590.964 246.766 591C247.13 591.036 247.367 591.091 247.477 591.164C247.404 595.648 247.385 600.06 247.422 604.398C247.458 608.701 247.495 613.003 247.531 617.305C247.604 621.57 247.677 625.818 247.75 630.047C247.823 634.276 247.859 638.505 247.859 642.734C247.859 643.135 247.823 643.555 247.75 643.992C247.714 644.466 247.404 644.703 246.82 644.703C246.602 644.703 246.383 644.63 246.164 644.484C245.945 644.375 245.799 644.193 245.727 643.938L245.562 629.992ZM243.211 614.133C242.081 614.06 241.023 614.516 240.039 615.5C239.091 616.448 238.253 617.688 237.523 619.219C236.831 620.75 236.266 622.445 235.828 624.305C235.391 626.128 235.117 627.896 235.008 629.609C234.935 631.286 235.044 632.781 235.336 634.094C235.664 635.406 236.229 636.299 237.031 636.773C237.833 636.773 238.581 636.464 239.273 635.844C239.966 635.188 240.604 634.367 241.188 633.383C241.771 632.398 242.281 631.305 242.719 630.102C243.156 628.862 243.521 627.677 243.812 626.547C244.141 625.417 244.378 624.396 244.523 623.484C244.706 622.536 244.797 621.826 244.797 621.352C244.797 620.987 244.815 620.404 244.852 619.602C244.888 618.799 244.87 617.997 244.797 617.195C244.724 616.393 244.56 615.682 244.305 615.062C244.086 614.443 243.721 614.133 243.211 614.133ZM277.664 639.289C277.299 636.336 277.062 633.474 276.953 630.703C276.844 627.896 276.789 625.143 276.789 622.445C276.826 619.711 276.88 616.977 276.953 614.242C277.026 611.508 277.026 608.664 276.953 605.711C276.953 605.602 277.044 605.456 277.227 605.273C277.409 605.091 277.555 605 277.664 605C277.773 605 278.01 605.091 278.375 605.273C278.74 605.456 278.977 605.602 279.086 605.711C279.086 606.44 279.104 607.625 279.141 609.266C279.214 610.87 279.25 612.693 279.25 614.734C279.286 616.74 279.323 618.872 279.359 621.133C279.432 623.357 279.487 625.49 279.523 627.531C279.596 629.536 279.651 631.341 279.688 632.945C279.724 634.549 279.742 635.734 279.742 636.5C279.742 636.573 279.742 636.828 279.742 637.266C279.742 637.703 279.742 638.013 279.742 638.195C279.742 638.451 279.742 638.688 279.742 638.906C279.779 639.125 279.76 639.326 279.688 639.508C279.615 639.654 279.469 639.781 279.25 639.891C279.068 639.964 278.776 640 278.375 640C278.266 640 278.12 639.909 277.938 639.727C277.755 639.544 277.664 639.398 277.664 639.289Z" fill="black"/>
<path d="M703.422 627.422C703.531 626.109 703.641 624.688 703.75 623.156C703.859 621.589 704.023 620.039 704.242 618.508C704.497 616.977 704.807 615.518 705.172 614.133C705.573 612.747 706.083 611.526 706.703 610.469C707.359 609.375 708.161 608.518 709.109 607.898C710.057 607.242 711.206 606.932 712.555 606.969C713.466 606.969 714.159 607.352 714.633 608.117C715.143 608.883 715.49 609.812 715.672 610.906C715.891 612 716 613.13 716 614.297C716.036 615.427 716.055 616.357 716.055 617.086C715.326 617.086 714.724 616.776 714.25 616.156C713.776 615.5 713.411 614.753 713.156 613.914C712.901 613.076 712.719 612.255 712.609 611.453L712.445 609.867C712.409 609.867 712.336 609.867 712.227 609.867C712.154 609.831 712.099 609.812 712.062 609.812C711.443 609.812 710.859 610.159 710.312 610.852C709.802 611.544 709.31 612.438 708.836 613.531C708.398 614.589 708.016 615.792 707.688 617.141C707.359 618.453 707.086 619.747 706.867 621.023C706.648 622.299 706.466 623.484 706.32 624.578C706.211 625.635 706.156 626.456 706.156 627.039C706.083 627.987 706.083 629.026 706.156 630.156C706.229 631.286 706.448 632.344 706.812 633.328C707.177 634.312 707.688 635.169 708.344 635.898C709 636.591 709.875 637.065 710.969 637.32C712.318 637.32 713.411 637.138 714.25 636.773C715.089 636.409 715.763 635.917 716.273 635.297C716.82 634.677 717.24 633.984 717.531 633.219C717.823 632.453 718.096 631.669 718.352 630.867C718.643 630.029 718.935 629.208 719.227 628.406C719.518 627.604 719.938 626.857 720.484 626.164C720.922 626.055 721.232 626.073 721.414 626.219C721.633 626.328 721.779 626.492 721.852 626.711C721.924 626.93 721.961 627.185 721.961 627.477V628.078C721.961 629.609 721.706 631.086 721.195 632.508C720.685 633.93 719.938 635.206 718.953 636.336C717.969 637.43 716.784 638.323 715.398 639.016C714.049 639.672 712.5 640 710.75 640C709.292 640 708.07 639.544 707.086 638.633C706.138 637.685 705.391 636.555 704.844 635.242C704.333 633.93 703.969 632.562 703.75 631.141C703.531 629.682 703.422 628.443 703.422 627.422ZM744.93 616.102C743.581 615.591 742.286 615.792 741.047 616.703C739.807 617.615 738.622 618.909 737.492 620.586C736.362 622.227 735.286 624.104 734.266 626.219C733.245 628.333 732.297 630.339 731.422 632.234C730.547 634.13 729.745 635.753 729.016 637.102C728.323 638.451 727.685 639.198 727.102 639.344C726.664 639.344 726.318 639.271 726.062 639.125C725.844 638.943 725.734 638.523 725.734 637.867V599.422C725.734 599.094 725.862 598.893 726.117 598.82C726.409 598.747 726.719 598.729 727.047 598.766C727.375 598.802 727.685 598.893 727.977 599.039C728.268 599.148 728.451 599.276 728.523 599.422L729.234 630.211C729.635 629.555 730 628.643 730.328 627.477C730.693 626.273 731.112 624.997 731.586 623.648C732.06 622.263 732.607 620.896 733.227 619.547C733.883 618.161 734.685 616.922 735.633 615.828C736.581 614.734 737.729 613.896 739.078 613.312C740.464 612.693 742.086 612.474 743.945 612.656C745.185 612.656 746.188 613.057 746.953 613.859C747.719 614.625 748.12 615.646 748.156 616.922L748.703 638.742C748.703 638.888 748.667 639.107 748.594 639.398C748.557 639.654 748.411 639.872 748.156 640.055C747.938 640.273 747.609 640.401 747.172 640.438C746.771 640.51 746.242 640.419 745.586 640.164L744.93 616.102ZM752.312 638.906C752.312 636.536 752.258 634.039 752.148 631.414C752.076 628.789 751.984 626.146 751.875 623.484C751.802 620.786 751.784 618.143 751.82 615.555C751.857 612.966 752.021 610.542 752.312 608.281C752.385 608.245 752.549 608.227 752.805 608.227C753.096 608.19 753.297 608.172 753.406 608.172C753.917 608.172 754.318 608.263 754.609 608.445C754.938 608.591 755.102 608.938 755.102 609.484C755.102 611.635 755.083 613.987 755.047 616.539C755.047 619.055 755.029 621.625 754.992 624.25C754.992 626.839 754.992 629.409 754.992 631.961C754.992 634.513 755.029 636.828 755.102 638.906C755.138 639.526 755.01 639.927 754.719 640.109C754.464 640.328 754.135 640.438 753.734 640.438C753.297 640.438 752.932 640.328 752.641 640.109C752.349 639.927 752.24 639.526 752.312 638.906ZM751.109 599.75C751.109 599.312 751.255 599.021 751.547 598.875C751.839 598.729 752.167 598.656 752.531 598.656C753.26 598.656 753.716 598.893 753.898 599.367C754.081 599.841 754.172 600.388 754.172 601.008C753.953 601.409 753.68 601.701 753.352 601.883C753.023 602.029 752.677 602.065 752.312 601.992C751.984 601.883 751.693 601.646 751.438 601.281C751.219 600.917 751.109 600.406 751.109 599.75ZM760.023 637.211C760.279 635.534 760.443 633.438 760.516 630.922C760.625 628.406 760.661 625.727 760.625 622.883C760.625 620.039 760.57 617.104 760.461 614.078C760.352 611.052 760.206 608.19 760.023 605.492C759.841 602.758 759.622 600.315 759.367 598.164C759.148 596.013 758.911 594.318 758.656 593.078C758.984 592.859 759.258 592.695 759.477 592.586C759.732 592.44 760.023 592.367 760.352 592.367C760.607 592.367 760.826 592.422 761.008 592.531C761.19 592.604 761.336 592.786 761.445 593.078C762.174 600.224 762.667 607.424 762.922 614.68C763.214 621.935 763.432 629.154 763.578 636.336C763.578 636.664 763.578 637.12 763.578 637.703C763.578 638.25 763.56 638.542 763.523 638.578C763.013 638.833 762.557 638.961 762.156 638.961C761.755 638.924 761.391 638.815 761.062 638.633C760.734 638.414 760.479 638.177 760.297 637.922C760.115 637.667 760.023 637.43 760.023 637.211ZM778.562 629.992C778.198 630.831 777.724 631.797 777.141 632.891C776.594 633.984 775.938 635.023 775.172 636.008C774.443 636.992 773.586 637.831 772.602 638.523C771.617 639.216 770.523 639.562 769.32 639.562C768.773 639.562 768.336 639.508 768.008 639.398C767.716 639.253 767.443 639.052 767.188 638.797C766.969 638.542 766.75 638.232 766.531 637.867C766.349 637.503 766.112 637.102 765.82 636.664C765.711 634.878 765.638 632.964 765.602 630.922C765.602 628.844 765.711 626.784 765.93 624.742C766.148 622.664 766.513 620.714 767.023 618.891C767.57 617.068 768.318 615.518 769.266 614.242C770.25 612.966 771.471 612.055 772.93 611.508C774.388 610.961 776.156 610.924 778.234 611.398C778.344 610.378 778.362 609.01 778.289 607.297C778.216 605.583 778.107 603.779 777.961 601.883C777.815 599.987 777.669 598.164 777.523 596.414C777.378 594.628 777.286 593.169 777.25 592.039C777.25 591.711 777.396 591.474 777.688 591.328C778.016 591.146 778.362 591.036 778.727 591C779.091 590.964 779.438 590.964 779.766 591C780.13 591.036 780.367 591.091 780.477 591.164C780.404 595.648 780.385 600.06 780.422 604.398C780.458 608.701 780.495 613.003 780.531 617.305C780.604 621.57 780.677 625.818 780.75 630.047C780.823 634.276 780.859 638.505 780.859 642.734C780.859 643.135 780.823 643.555 780.75 643.992C780.714 644.466 780.404 644.703 779.82 644.703C779.602 644.703 779.383 644.63 779.164 644.484C778.945 644.375 778.799 644.193 778.727 643.938L778.562 629.992ZM776.211 614.133C775.081 614.06 774.023 614.516 773.039 615.5C772.091 616.448 771.253 617.688 770.523 619.219C769.831 620.75 769.266 622.445 768.828 624.305C768.391 626.128 768.117 627.896 768.008 629.609C767.935 631.286 768.044 632.781 768.336 634.094C768.664 635.406 769.229 636.299 770.031 636.773C770.833 636.773 771.581 636.464 772.273 635.844C772.966 635.188 773.604 634.367 774.188 633.383C774.771 632.398 775.281 631.305 775.719 630.102C776.156 628.862 776.521 627.677 776.812 626.547C777.141 625.417 777.378 624.396 777.523 623.484C777.706 622.536 777.797 621.826 777.797 621.352C777.797 620.987 777.815 620.404 777.852 619.602C777.888 618.799 777.87 617.997 777.797 617.195C777.724 616.393 777.56 615.682 777.305 615.062C777.086 614.443 776.721 614.133 776.211 614.133ZM814.164 637.867C815.221 636.081 816.242 634.258 817.227 632.398C818.247 630.503 819.141 628.607 819.906 626.711C820.708 624.779 821.346 622.828 821.82 620.859C822.294 618.854 822.549 616.794 822.586 614.68C822.221 613.477 821.82 612.547 821.383 611.891C820.982 611.198 820.38 610.943 819.578 611.125C818.776 611.271 817.682 611.909 816.297 613.039C814.911 614.169 813.034 615.919 810.664 618.289C810.336 618.07 810.008 617.833 809.68 617.578C809.388 617.286 809.242 616.958 809.242 616.594C809.242 616.557 809.242 616.503 809.242 616.43C809.279 616.32 809.297 616.247 809.297 616.211C809.99 615.445 810.773 614.57 811.648 613.586C812.56 612.602 813.544 611.672 814.602 610.797C815.659 609.922 816.753 609.211 817.883 608.664C819.049 608.081 820.289 607.789 821.602 607.789C822.878 608.372 823.789 609.32 824.336 610.633C824.883 611.909 825.156 613.404 825.156 615.117C825.193 616.794 825.01 618.599 824.609 620.531C824.208 622.427 823.661 624.323 822.969 626.219C822.312 628.115 821.565 629.919 820.727 631.633C819.924 633.346 819.141 634.805 818.375 636.008L833.031 631.578C833.068 631.578 833.159 631.578 833.305 631.578C833.487 631.542 833.633 631.523 833.742 631.523C833.924 631.523 834.143 631.542 834.398 631.578C834.654 631.615 834.872 631.669 835.055 631.742C835.273 631.815 835.456 631.924 835.602 632.07C835.784 632.216 835.875 632.398 835.875 632.617C834.562 633.456 833.031 634.148 831.281 634.695C829.568 635.242 827.781 635.771 825.922 636.281C824.099 636.755 822.312 637.229 820.562 637.703C818.812 638.177 817.245 638.742 815.859 639.398C815.385 639.398 814.984 639.344 814.656 639.234C814.328 639.089 814.164 638.633 814.164 637.867Z" fill="black"/>
<path d="M915.422 627.422C915.531 626.109 915.641 624.688 915.75 623.156C915.859 621.589 916.023 620.039 916.242 618.508C916.497 616.977 916.807 615.518 917.172 614.133C917.573 612.747 918.083 611.526 918.703 610.469C919.359 609.375 920.161 608.518 921.109 607.898C922.057 607.242 923.206 606.932 924.555 606.969C925.466 606.969 926.159 607.352 926.633 608.117C927.143 608.883 927.49 609.812 927.672 610.906C927.891 612 928 613.13 928 614.297C928.036 615.427 928.055 616.357 928.055 617.086C927.326 617.086 926.724 616.776 926.25 616.156C925.776 615.5 925.411 614.753 925.156 613.914C924.901 613.076 924.719 612.255 924.609 611.453L924.445 609.867C924.409 609.867 924.336 609.867 924.227 609.867C924.154 609.831 924.099 609.812 924.062 609.812C923.443 609.812 922.859 610.159 922.312 610.852C921.802 611.544 921.31 612.438 920.836 613.531C920.398 614.589 920.016 615.792 919.688 617.141C919.359 618.453 919.086 619.747 918.867 621.023C918.648 622.299 918.466 623.484 918.32 624.578C918.211 625.635 918.156 626.456 918.156 627.039C918.083 627.987 918.083 629.026 918.156 630.156C918.229 631.286 918.448 632.344 918.812 633.328C919.177 634.312 919.688 635.169 920.344 635.898C921 636.591 921.875 637.065 922.969 637.32C924.318 637.32 925.411 637.138 926.25 636.773C927.089 636.409 927.763 635.917 928.273 635.297C928.82 634.677 929.24 633.984 929.531 633.219C929.823 632.453 930.096 631.669 930.352 630.867C930.643 630.029 930.935 629.208 931.227 628.406C931.518 627.604 931.938 626.857 932.484 626.164C932.922 626.055 933.232 626.073 933.414 626.219C933.633 626.328 933.779 626.492 933.852 626.711C933.924 626.93 933.961 627.185 933.961 627.477V628.078C933.961 629.609 933.706 631.086 933.195 632.508C932.685 633.93 931.938 635.206 930.953 636.336C929.969 637.43 928.784 638.323 927.398 639.016C926.049 639.672 924.5 640 922.75 640C921.292 640 920.07 639.544 919.086 638.633C918.138 637.685 917.391 636.555 916.844 635.242C916.333 633.93 915.969 632.562 915.75 631.141C915.531 629.682 915.422 628.443 915.422 627.422ZM956.93 616.102C955.581 615.591 954.286 615.792 953.047 616.703C951.807 617.615 950.622 618.909 949.492 620.586C948.362 622.227 947.286 624.104 946.266 626.219C945.245 628.333 944.297 630.339 943.422 632.234C942.547 634.13 941.745 635.753 941.016 637.102C940.323 638.451 939.685 639.198 939.102 639.344C938.664 639.344 938.318 639.271 938.062 639.125C937.844 638.943 937.734 638.523 937.734 637.867V599.422C937.734 599.094 937.862 598.893 938.117 598.82C938.409 598.747 938.719 598.729 939.047 598.766C939.375 598.802 939.685 598.893 939.977 599.039C940.268 599.148 940.451 599.276 940.523 599.422L941.234 630.211C941.635 629.555 942 628.643 942.328 627.477C942.693 626.273 943.112 624.997 943.586 623.648C944.06 622.263 944.607 620.896 945.227 619.547C945.883 618.161 946.685 616.922 947.633 615.828C948.581 614.734 949.729 613.896 951.078 613.312C952.464 612.693 954.086 612.474 955.945 612.656C957.185 612.656 958.188 613.057 958.953 613.859C959.719 614.625 960.12 615.646 960.156 616.922L960.703 638.742C960.703 638.888 960.667 639.107 960.594 639.398C960.557 639.654 960.411 639.872 960.156 640.055C959.938 640.273 959.609 640.401 959.172 640.438C958.771 640.51 958.242 640.419 957.586 640.164L956.93 616.102ZM964.312 638.906C964.312 636.536 964.258 634.039 964.148 631.414C964.076 628.789 963.984 626.146 963.875 623.484C963.802 620.786 963.784 618.143 963.82 615.555C963.857 612.966 964.021 610.542 964.312 608.281C964.385 608.245 964.549 608.227 964.805 608.227C965.096 608.19 965.297 608.172 965.406 608.172C965.917 608.172 966.318 608.263 966.609 608.445C966.938 608.591 967.102 608.938 967.102 609.484C967.102 611.635 967.083 613.987 967.047 616.539C967.047 619.055 967.029 621.625 966.992 624.25C966.992 626.839 966.992 629.409 966.992 631.961C966.992 634.513 967.029 636.828 967.102 638.906C967.138 639.526 967.01 639.927 966.719 640.109C966.464 640.328 966.135 640.438 965.734 640.438C965.297 640.438 964.932 640.328 964.641 640.109C964.349 639.927 964.24 639.526 964.312 638.906ZM963.109 599.75C963.109 599.312 963.255 599.021 963.547 598.875C963.839 598.729 964.167 598.656 964.531 598.656C965.26 598.656 965.716 598.893 965.898 599.367C966.081 599.841 966.172 600.388 966.172 601.008C965.953 601.409 965.68 601.701 965.352 601.883C965.023 602.029 964.677 602.065 964.312 601.992C963.984 601.883 963.693 601.646 963.438 601.281C963.219 600.917 963.109 600.406 963.109 599.75ZM972.023 637.211C972.279 635.534 972.443 633.438 972.516 630.922C972.625 628.406 972.661 625.727 972.625 622.883C972.625 620.039 972.57 617.104 972.461 614.078C972.352 611.052 972.206 608.19 972.023 605.492C971.841 602.758 971.622 600.315 971.367 598.164C971.148 596.013 970.911 594.318 970.656 593.078C970.984 592.859 971.258 592.695 971.477 592.586C971.732 592.44 972.023 592.367 972.352 592.367C972.607 592.367 972.826 592.422 973.008 592.531C973.19 592.604 973.336 592.786 973.445 593.078C974.174 600.224 974.667 607.424 974.922 614.68C975.214 621.935 975.432 629.154 975.578 636.336C975.578 636.664 975.578 637.12 975.578 637.703C975.578 638.25 975.56 638.542 975.523 638.578C975.013 638.833 974.557 638.961 974.156 638.961C973.755 638.924 973.391 638.815 973.062 638.633C972.734 638.414 972.479 638.177 972.297 637.922C972.115 637.667 972.023 637.43 972.023 637.211ZM990.562 629.992C990.198 630.831 989.724 631.797 989.141 632.891C988.594 633.984 987.938 635.023 987.172 636.008C986.443 636.992 985.586 637.831 984.602 638.523C983.617 639.216 982.523 639.562 981.32 639.562C980.773 639.562 980.336 639.508 980.008 639.398C979.716 639.253 979.443 639.052 979.188 638.797C978.969 638.542 978.75 638.232 978.531 637.867C978.349 637.503 978.112 637.102 977.82 636.664C977.711 634.878 977.638 632.964 977.602 630.922C977.602 628.844 977.711 626.784 977.93 624.742C978.148 622.664 978.513 620.714 979.023 618.891C979.57 617.068 980.318 615.518 981.266 614.242C982.25 612.966 983.471 612.055 984.93 611.508C986.388 610.961 988.156 610.924 990.234 611.398C990.344 610.378 990.362 609.01 990.289 607.297C990.216 605.583 990.107 603.779 989.961 601.883C989.815 599.987 989.669 598.164 989.523 596.414C989.378 594.628 989.286 593.169 989.25 592.039C989.25 591.711 989.396 591.474 989.688 591.328C990.016 591.146 990.362 591.036 990.727 591C991.091 590.964 991.438 590.964 991.766 591C992.13 591.036 992.367 591.091 992.477 591.164C992.404 595.648 992.385 600.06 992.422 604.398C992.458 608.701 992.495 613.003 992.531 617.305C992.604 621.57 992.677 625.818 992.75 630.047C992.823 634.276 992.859 638.505 992.859 642.734C992.859 643.135 992.823 643.555 992.75 643.992C992.714 644.466 992.404 644.703 991.82 644.703C991.602 644.703 991.383 644.63 991.164 644.484C990.945 644.375 990.799 644.193 990.727 643.938L990.562 629.992ZM988.211 614.133C987.081 614.06 986.023 614.516 985.039 615.5C984.091 616.448 983.253 617.688 982.523 619.219C981.831 620.75 981.266 622.445 980.828 624.305C980.391 626.128 980.117 627.896 980.008 629.609C979.935 631.286 980.044 632.781 980.336 634.094C980.664 635.406 981.229 636.299 982.031 636.773C982.833 636.773 983.581 636.464 984.273 635.844C984.966 635.188 985.604 634.367 986.188 633.383C986.771 632.398 987.281 631.305 987.719 630.102C988.156 628.862 988.521 627.677 988.812 626.547C989.141 625.417 989.378 624.396 989.523 623.484C989.706 622.536 989.797 621.826 989.797 621.352C989.797 620.987 989.815 620.404 989.852 619.602C989.888 618.799 989.87 617.997 989.797 617.195C989.724 616.393 989.56 615.682 989.305 615.062C989.086 614.443 988.721 614.133 988.211 614.133ZM1023.81 639.289C1023.41 634.367 1023.05 629.445 1022.72 624.523C1022.43 619.565 1022.1 614.424 1021.73 609.102C1021.73 608.227 1022.21 607.789 1023.16 607.789H1023.59C1023.7 607.789 1023.83 607.935 1023.98 608.227C1024.12 608.518 1024.27 609.065 1024.41 609.867C1024.6 610.633 1024.78 611.818 1024.96 613.422C1025.18 614.99 1025.43 617.049 1025.73 619.602C1026.02 622.154 1026.35 625.344 1026.71 629.172C1027.48 626.693 1028.08 624.286 1028.52 621.953C1028.95 619.62 1029.52 617.505 1030.21 615.609C1030.9 613.677 1031.87 611.982 1033.11 610.523C1034.39 609.065 1036.21 607.99 1038.58 607.297C1039.89 607.516 1040.95 608.318 1041.75 609.703C1042.55 611.052 1043.19 612.729 1043.66 614.734C1044.14 616.74 1044.47 618.927 1044.65 621.297C1044.83 623.63 1044.94 625.872 1044.98 628.023C1045.01 630.174 1045.03 632.107 1045.03 633.82C1045.03 635.497 1045.07 636.701 1045.14 637.43C1045.03 637.721 1044.87 637.977 1044.65 638.195C1044.43 638.414 1044.17 638.578 1043.88 638.688C1043.63 638.76 1043.37 638.779 1043.12 638.742C1042.86 638.669 1042.62 638.469 1042.41 638.141C1042.41 637.74 1042.37 636.919 1042.3 635.68C1042.22 634.44 1042.13 633 1042.02 631.359C1041.91 629.682 1041.79 627.914 1041.64 626.055C1041.53 624.159 1041.42 622.391 1041.31 620.75C1041.24 619.073 1041.17 617.615 1041.09 616.375C1041.02 615.135 1040.97 614.315 1040.93 613.914C1040.16 612.565 1039.4 611.799 1038.63 611.617C1037.9 611.435 1037.16 611.672 1036.39 612.328C1035.66 612.984 1034.95 613.987 1034.26 615.336C1033.57 616.685 1032.91 618.216 1032.29 619.93C1031.67 621.607 1031.09 623.375 1030.54 625.234C1029.99 627.094 1029.52 628.898 1029.12 630.648C1028.72 632.362 1028.37 633.93 1028.08 635.352C1027.82 636.737 1027.66 637.812 1027.59 638.578C1027.48 638.833 1027.24 639.089 1026.88 639.344C1026.55 639.562 1026.18 639.727 1025.78 639.836C1025.42 639.945 1025.03 639.982 1024.63 639.945C1024.27 639.872 1023.99 639.654 1023.81 639.289Z" fill="black"/>
<rect x="801" y="528" width="30" height="30" rx="3" fill="#B8E986"/>
<rect x="267" y="528" width="30" height="30" rx="3" fill="#B8E986"/>
<rect x="1034" y="528" width="30" height="30" rx="3" fill="#B8E986"/>
<rect x="665" y="278" width="151" height="66" rx="5" fill="#B8E986"/>
<path d="M711.392 320V301.811H718.906C720.268 301.811 721.443 302.057 722.432 302.548C723.427 303.034 724.193 303.732 724.732 304.644C725.271 305.55 725.54 306.625 725.54 307.868C725.54 309.129 725.265 310.201 724.714 311.083C724.164 311.959 723.382 312.628 722.37 313.09C721.357 313.546 720.158 313.774 718.773 313.774H714.021V310.31H717.956C718.619 310.31 719.172 310.225 719.616 310.053C720.066 309.875 720.407 309.609 720.638 309.254C720.869 308.892 720.984 308.431 720.984 307.868C720.984 307.306 720.869 306.841 720.638 306.474C720.407 306.101 720.066 305.822 719.616 305.639C719.166 305.449 718.613 305.355 717.956 305.355H715.789V320H711.392ZM721.632 311.687L726.162 320H721.366L716.925 311.687H721.632ZM745.119 310.905C745.119 312.907 744.734 314.603 743.965 315.994C743.195 317.386 742.153 318.443 740.838 319.165C739.53 319.888 738.062 320.249 736.433 320.249C734.799 320.249 733.328 319.885 732.019 319.156C730.711 318.428 729.672 317.371 728.902 315.986C728.138 314.594 727.756 312.901 727.756 310.905C727.756 308.904 728.138 307.208 728.902 305.816C729.672 304.425 730.711 303.368 732.019 302.646C733.328 301.923 734.799 301.562 736.433 301.562C738.062 301.562 739.53 301.923 740.838 302.646C742.153 303.368 743.195 304.425 743.965 305.816C744.734 307.208 745.119 308.904 745.119 310.905ZM740.625 310.905C740.625 309.721 740.457 308.721 740.119 307.904C739.788 307.086 739.308 306.468 738.68 306.047C738.059 305.627 737.31 305.417 736.433 305.417C735.563 305.417 734.814 305.627 734.186 306.047C733.559 306.468 733.076 307.086 732.739 307.904C732.407 308.721 732.241 309.721 732.241 310.905C732.241 312.09 732.407 313.09 732.739 313.907C733.076 314.724 733.559 315.343 734.186 315.764C734.814 316.184 735.563 316.394 736.433 316.394C737.31 316.394 738.059 316.184 738.68 315.764C739.308 315.343 739.788 314.724 740.119 313.907C740.457 313.09 740.625 312.09 740.625 310.905ZM747.686 320V301.811H752.082V316.43H759.649V320H747.686ZM761.925 320V301.811H774.608V305.381H766.321V309.111H773.959V312.691H766.321V316.43H774.608V320H761.925Z" fill="black"/>
<rect x="492" y="110" width="534" height="143" rx="10.773" fill="#FFF5CC"/>
<circle cx="766.33" cy="206.533" r="15.8754" fill="white"/>
<path fill-rule="evenodd" clip-rule="evenodd" d="M747.053 206.532C747.053 195.873 755.671 187.255 766.33 187.255C776.989 187.255 785.607 195.873 785.607 206.532C785.607 217.191 776.989 225.809 766.33 225.809C755.671 225.809 747.053 217.191 747.053 206.532ZM763.439 216.624L778.293 201.77L774.551 198.027L763.439 209.14L758.166 203.867L754.424 207.609L763.439 216.624Z" fill="#00C176"/>
<circle cx="837.508" cy="206.533" r="15.8754" fill="white"/>
<path fill-rule="evenodd" clip-rule="evenodd" d="M818.23 206.532C818.23 195.873 826.849 187.255 837.508 187.255C848.167 187.255 856.785 195.873 856.785 206.532C856.785 217.191 848.167 225.809 837.508 225.809C826.849 225.809 818.23 217.191 818.23 206.532ZM834.616 216.624L849.471 201.77L845.729 198.027L834.616 209.14L829.343 203.867L825.601 207.609L834.616 216.624Z" fill="#00C176"/>
<circle cx="908.685" cy="206.533" r="15.8754" fill="white"/>
<path fill-rule="evenodd" clip-rule="evenodd" d="M889.408 206.532C889.408 195.873 898.026 187.255 908.685 187.255C919.344 187.255 927.962 195.873 927.962 206.532C927.962 217.191 919.344 225.809 908.685 225.809C898.026 225.809 889.408 217.191 889.408 206.532ZM905.794 216.624L920.648 201.77L916.906 198.027L905.794 209.14L900.521 203.867L896.779 207.609L905.794 216.624Z" fill="#00C176"/>
<circle cx="979.863" cy="206.533" r="15.8754" fill="white"/>
<path fill-rule="evenodd" clip-rule="evenodd" d="M960.585 206.532C960.585 195.873 969.204 187.255 979.863 187.255C990.522 187.255 999.14 195.873 999.14 206.532C999.14 217.191 990.522 225.809 979.863 225.809C969.204 225.809 960.585 217.191 960.585 206.532ZM976.971 216.624L991.826 201.77L988.084 198.027L976.971 209.14L971.698 203.867L967.956 207.609L976.971 216.624Z" fill="#00C176"/>
<path d="M523.107 218.771V216.1H529.557V197.53L523.107 202.352V198.996L528.482 194.989H532.489V216.1H537.767V218.771H523.107ZM587.447 218.771C585.97 218.771 584.786 218.348 583.896 217.501C583.005 216.632 582.56 215.481 582.56 214.048V203.525H577.413V200.853H582.56V195.804H585.492V200.853H592.822V203.525H585.492V214.048C585.492 214.656 585.666 215.155 586.013 215.546C586.383 215.915 586.86 216.1 587.447 216.1H592.659V218.771H587.447ZM604.224 219.097C602.812 219.097 601.574 218.815 600.51 218.25C599.467 217.664 598.653 216.838 598.066 215.774C597.48 214.688 597.187 213.407 597.187 211.93V207.695C597.187 206.196 597.48 204.915 598.066 203.851C598.653 202.786 599.467 201.972 600.51 201.407C601.574 200.821 602.812 200.527 604.224 200.527C605.636 200.527 606.863 200.81 607.905 201.375C608.969 201.939 609.795 202.732 610.381 203.753C610.968 204.774 611.261 205.979 611.261 207.369V210.562H600.054V212.256C600.054 213.581 600.434 214.634 601.194 215.416C601.954 216.176 602.964 216.556 604.224 216.556C605.31 216.556 606.2 216.35 606.895 215.937C607.612 215.503 608.046 214.927 608.198 214.21H611.131C610.935 215.709 610.207 216.904 608.948 217.794C607.688 218.663 606.113 219.097 604.224 219.097ZM608.394 208.574V207.369C608.394 205.957 608.025 204.871 607.286 204.111C606.57 203.329 605.549 202.938 604.224 202.938C602.899 202.938 601.867 203.329 601.129 204.111C600.412 204.871 600.054 205.957 600.054 207.369V208.281H608.622L608.394 208.574ZM621.229 219.097C619.383 219.097 617.917 218.587 616.831 217.566C615.745 216.524 615.202 215.166 615.202 213.494C615.202 212.386 615.452 211.42 615.951 210.594C616.451 209.769 617.146 209.128 618.036 208.672C618.927 208.194 619.948 207.955 621.099 207.955H626.637V206.555C626.637 205.382 626.322 204.513 625.692 203.948C625.062 203.362 624.107 203.069 622.825 203.069C621.696 203.069 620.784 203.275 620.089 203.688C619.394 204.1 619.025 204.676 618.981 205.414H616.049C616.158 204.003 616.809 202.841 618.004 201.928C619.22 200.994 620.827 200.527 622.825 200.527C624.997 200.527 626.659 201.049 627.81 202.091C628.983 203.134 629.569 204.589 629.569 206.457V218.771H626.67V215.514H626.181L626.637 214.862C626.637 215.731 626.42 216.48 625.985 217.11C625.551 217.74 624.932 218.229 624.128 218.576C623.325 218.924 622.358 219.097 621.229 219.097ZM621.946 216.621C623.379 216.621 624.519 216.274 625.366 215.579C626.214 214.884 626.637 213.939 626.637 212.744V210.236H621.424C620.469 210.236 619.687 210.529 619.079 211.116C618.492 211.68 618.199 212.44 618.199 213.396C618.199 214.395 618.525 215.188 619.177 215.774C619.85 216.339 620.773 216.621 621.946 216.621ZM633.543 218.771V200.853H636.084V203.232H636.736L636.117 203.785C636.117 202.83 636.388 202.048 636.931 201.44C637.496 200.832 638.234 200.527 639.146 200.527C640.189 200.527 641.014 200.918 641.622 201.7C642.23 202.482 642.535 203.503 642.535 204.763L641.655 203.069H643.023L642.274 203.785C642.296 202.786 642.589 201.994 643.154 201.407C643.718 200.821 644.468 200.527 645.401 200.527C646.553 200.527 647.465 200.962 648.138 201.831C648.833 202.678 649.181 203.785 649.181 205.154V218.771H646.444V205.121C646.444 204.404 646.27 203.84 645.923 203.427C645.575 202.993 645.097 202.775 644.489 202.775C643.903 202.775 643.436 202.982 643.088 203.394C642.741 203.807 642.567 204.372 642.567 205.088V218.771H640.156V205.121C640.156 204.404 639.983 203.84 639.635 203.427C639.288 202.993 638.821 202.775 638.234 202.775C637.626 202.775 637.148 202.982 636.801 203.394C636.453 203.807 636.279 204.372 636.279 205.088V218.771H633.543ZM651.786 218.771L657.976 194.989H661.918L668.075 218.771H665.111L663.547 212.451H656.347L654.783 218.771H651.786ZM656.933 209.975H662.928L661.103 202.645C660.756 201.255 660.484 200.093 660.289 199.159C660.094 198.225 659.974 197.617 659.931 197.335C659.887 197.617 659.768 198.225 659.572 199.159C659.377 200.093 659.105 201.244 658.758 202.613L656.933 209.975Z" fill="black"/>
<path d="M526.834 166.473C525.251 166.473 524.008 166.044 523.105 165.185C522.217 164.312 521.773 163.128 521.773 161.634V150.046H524.57V161.611C524.57 162.381 524.762 162.98 525.147 163.41C525.532 163.839 526.094 164.053 526.834 164.053C527.559 164.053 528.114 163.839 528.499 163.41C528.899 162.98 529.098 162.381 529.098 161.611V150.046H531.895V161.634C531.895 163.128 531.451 164.312 530.563 165.185C529.676 166.044 528.432 166.473 526.834 166.473ZM534.517 166.251V163.743H537.781V152.555H534.517V150.046H543.841V152.555H540.578V163.743H543.841V166.251H534.517ZM546.529 166.251V150.046H551.346C552.442 150.046 553.389 150.253 554.188 150.668C555.002 151.082 555.631 151.667 556.075 152.421C556.519 153.176 556.741 154.071 556.741 155.107V161.168C556.741 162.189 556.519 163.084 556.075 163.854C555.631 164.608 555.002 165.2 554.188 165.629C553.389 166.044 552.442 166.251 551.346 166.251H546.529ZM549.304 163.765H551.346C552.146 163.765 552.782 163.528 553.255 163.054C553.729 162.581 553.966 161.952 553.966 161.168V155.107C553.966 154.323 553.729 153.701 553.255 153.243C552.782 152.769 552.146 152.532 551.346 152.532H549.304V163.765ZM583.609 166.251V150.046H588.714C589.795 150.046 590.727 150.246 591.511 150.645C592.31 151.045 592.932 151.607 593.376 152.333C593.82 153.043 594.042 153.886 594.042 154.863C594.042 155.929 593.776 156.868 593.243 157.682C592.71 158.496 591.992 159.073 591.089 159.414L594.264 166.251H591.223L588.381 159.813H586.361V166.251H583.609ZM586.361 157.372H588.714C589.499 157.372 590.113 157.157 590.557 156.728C591.001 156.299 591.223 155.707 591.223 154.952C591.223 154.182 591.001 153.583 590.557 153.154C590.113 152.71 589.499 152.488 588.714 152.488H586.361V157.372ZM600.904 166.473C599.35 166.473 598.114 166.029 597.197 165.141C596.294 164.253 595.843 163.025 595.843 161.456V154.841C595.843 153.257 596.294 152.029 597.197 151.156C598.114 150.268 599.35 149.824 600.904 149.824C602.458 149.824 603.686 150.268 604.589 151.156C605.506 152.029 605.965 153.25 605.965 154.819V161.456C605.965 163.025 605.506 164.253 604.589 165.141C603.686 166.029 602.458 166.473 600.904 166.473ZM600.904 164.031C601.659 164.031 602.228 163.831 602.613 163.432C602.998 163.017 603.19 162.433 603.19 161.678V154.619C603.19 153.849 602.998 153.265 602.613 152.865C602.228 152.466 601.659 152.266 600.904 152.266C600.149 152.266 599.579 152.466 599.195 152.865C598.81 153.265 598.617 153.849 598.617 154.619V161.678C598.617 162.433 598.81 163.017 599.195 163.432C599.594 163.831 600.164 164.031 600.904 164.031ZM609.275 166.251V150.046H612.05V163.743H618.932V166.251H609.275ZM620.888 166.251V150.046H630.611V152.488H623.618V156.706H629.834V159.059H623.618V163.809H630.611V166.251H620.888Z" fill="black"/>
<path d="M770.32 144V127.795H775.714C776.795 127.795 777.734 128.002 778.534 128.417C779.348 128.831 779.976 129.416 780.42 130.17C780.864 130.91 781.086 131.783 781.086 132.79C781.086 133.781 780.857 134.654 780.398 135.409C779.954 136.164 779.333 136.748 778.534 137.163C777.734 137.577 776.795 137.784 775.714 137.784H773.095V144H770.32ZM773.095 135.343H775.714C776.484 135.343 777.098 135.106 777.557 134.632C778.03 134.159 778.267 133.545 778.267 132.79C778.267 132.02 778.03 131.406 777.557 130.947C777.098 130.474 776.484 130.237 775.714 130.237H773.095V135.343ZM787.615 144.222C786.061 144.222 784.826 143.778 783.908 142.89C783.005 142.002 782.554 140.774 782.554 139.205V132.59C782.554 131.006 783.005 129.778 783.908 128.905C784.826 128.017 786.061 127.573 787.615 127.573C789.169 127.573 790.398 128.017 791.3 128.905C792.218 129.778 792.677 130.999 792.677 132.568V139.205C792.677 140.774 792.218 142.002 791.3 142.89C790.398 143.778 789.169 144.222 787.615 144.222ZM787.615 141.78C788.37 141.78 788.94 141.58 789.325 141.181C789.709 140.766 789.902 140.182 789.902 139.427V132.368C789.902 131.598 789.709 131.014 789.325 130.614C788.94 130.215 788.37 130.015 787.615 130.015C786.861 130.015 786.291 130.215 785.906 130.614C785.521 131.014 785.329 131.598 785.329 132.368V139.427C785.329 140.182 785.521 140.766 785.906 141.181C786.306 141.58 786.875 141.78 787.615 141.78ZM794.966 144V127.795H799.783C800.878 127.795 801.825 128.002 802.624 128.417C803.438 128.831 804.067 129.416 804.511 130.17C804.955 130.925 805.177 131.82 805.177 132.856V138.917C805.177 139.938 804.955 140.833 804.511 141.603C804.067 142.357 803.438 142.949 802.624 143.378C801.825 143.793 800.878 144 799.783 144H794.966ZM797.74 141.514H799.783C800.582 141.514 801.218 141.277 801.692 140.803C802.165 140.33 802.402 139.701 802.402 138.917V132.856C802.402 132.072 802.165 131.45 801.692 130.992C801.218 130.518 800.582 130.281 799.783 130.281H797.74V141.514ZM812.372 144.222C811.277 144.222 810.315 144.03 809.486 143.645C808.672 143.26 808.036 142.705 807.577 141.98C807.133 141.255 806.911 140.404 806.911 139.427H809.641C809.641 140.152 809.886 140.729 810.374 141.159C810.877 141.588 811.543 141.802 812.372 141.802C813.171 141.802 813.8 141.588 814.259 141.159C814.732 140.729 814.969 140.167 814.969 139.472C814.969 138.939 814.821 138.465 814.525 138.051C814.229 137.636 813.793 137.363 813.215 137.229L811.04 136.674C809.871 136.379 808.946 135.824 808.265 135.01C807.584 134.196 807.244 133.226 807.244 132.102C807.244 131.184 807.444 130.385 807.843 129.704C808.258 129.023 808.835 128.498 809.575 128.128C810.33 127.758 811.21 127.573 812.216 127.573C813.238 127.573 814.126 127.758 814.88 128.128C815.635 128.498 816.22 129.023 816.634 129.704C817.063 130.37 817.278 131.154 817.278 132.057H814.569C814.569 131.421 814.355 130.918 813.926 130.548C813.497 130.163 812.927 129.971 812.216 129.971C811.521 129.971 810.966 130.163 810.552 130.548C810.152 130.918 809.952 131.406 809.952 132.013C809.952 132.516 810.093 132.93 810.374 133.256C810.67 133.582 811.077 133.818 811.595 133.966L813.837 134.521C815.036 134.817 815.975 135.409 816.656 136.297C817.352 137.185 817.699 138.243 817.699 139.472C817.699 140.433 817.477 141.27 817.034 141.98C816.604 142.69 815.99 143.245 815.191 143.645C814.392 144.03 813.452 144.222 812.372 144.222ZM918.46 144V127.795H923.854C924.934 127.795 925.874 128.002 926.673 128.417C927.487 128.831 928.116 129.416 928.56 130.17C929.004 130.91 929.226 131.783 929.226 132.79C929.226 133.781 928.996 134.654 928.538 135.409C928.094 136.164 927.472 136.748 926.673 137.163C925.874 137.577 924.934 137.784 923.854 137.784H921.234V144H918.46ZM921.234 135.343H923.854C924.623 135.343 925.237 135.106 925.696 134.632C926.17 134.159 926.407 133.545 926.407 132.79C926.407 132.02 926.17 131.406 925.696 130.947C925.237 130.474 924.623 130.237 923.854 130.237H921.234V135.343ZM933.957 144L929.872 127.795H932.736L935.2 138.362C935.333 138.894 935.451 139.457 935.555 140.049C935.673 140.626 935.762 141.099 935.821 141.469C935.881 141.099 935.962 140.618 936.066 140.026C936.184 139.435 936.31 138.872 936.443 138.339L938.818 127.795H941.637L937.553 144H933.957ZM947.589 144.2C946.627 144.2 945.791 144.052 945.081 143.756C944.385 143.46 943.845 143.038 943.46 142.491C943.075 141.943 942.883 141.292 942.883 140.537H945.613C945.613 141.011 945.784 141.373 946.124 141.625C946.479 141.876 946.968 142.002 947.589 142.002H948.566C949.232 142.002 949.742 141.876 950.098 141.625C950.468 141.358 950.653 140.996 950.653 140.537C950.653 140.093 950.527 139.76 950.275 139.538C950.024 139.316 949.639 139.176 949.121 139.116L946.08 138.717C945.103 138.598 944.348 138.221 943.815 137.585C943.297 136.948 943.038 136.142 943.038 135.165C943.038 134.011 943.423 133.13 944.193 132.523C944.962 131.902 946.072 131.591 947.523 131.591H948.544C949.905 131.591 951 131.902 951.829 132.523C952.658 133.145 953.087 133.974 953.117 135.01H950.364C950.349 134.625 950.179 134.321 949.853 134.099C949.528 133.863 949.091 133.744 948.544 133.744H947.523C946.931 133.744 946.479 133.87 946.168 134.122C945.858 134.358 945.702 134.684 945.702 135.098C945.702 135.468 945.813 135.742 946.035 135.92C946.272 136.083 946.612 136.194 947.056 136.253L949.92 136.652C951.045 136.8 951.888 137.207 952.451 137.873C953.028 138.524 953.316 139.398 953.316 140.493C953.316 141.677 952.909 142.594 952.095 143.245C951.296 143.882 950.12 144.2 948.566 144.2H947.589Z" fill="#7B7B7B"/>
<path d="M736.064 168.723V156.513H738.773V158.844H738.839C738.958 158.045 739.313 157.424 739.905 156.98C740.497 156.521 741.252 156.291 742.169 156.291C743.427 156.291 744.433 156.706 745.188 157.535C745.943 158.349 746.32 159.466 746.32 160.887V161.886H743.412V161.086C743.412 160.332 743.212 159.747 742.813 159.333C742.428 158.904 741.866 158.689 741.126 158.689C739.601 158.689 738.839 159.54 738.839 161.242V168.723H736.064ZM753.027 168.945C751.991 168.945 751.088 168.745 750.318 168.345C749.549 167.946 748.95 167.391 748.52 166.68C748.106 165.955 747.899 165.112 747.899 164.15V161.086C747.899 160.124 748.106 159.288 748.52 158.578C748.95 157.853 749.549 157.29 750.318 156.891C751.088 156.491 751.991 156.291 753.027 156.291C754.048 156.291 754.936 156.491 755.691 156.891C756.46 157.29 757.052 157.853 757.466 158.578C757.896 159.288 758.11 160.124 758.11 161.086V163.284H750.585V164.15C750.585 165.881 751.406 166.747 753.049 166.747C754.322 166.747 755.069 166.325 755.291 165.482H758.021C757.814 166.532 757.252 167.376 756.334 168.012C755.432 168.634 754.329 168.945 753.027 168.945ZM750.585 161.086V161.553L755.424 161.53V161.064C755.424 160.221 755.224 159.577 754.825 159.133C754.425 158.674 753.826 158.445 753.027 158.445C752.213 158.445 751.599 158.674 751.184 159.133C750.785 159.592 750.585 160.243 750.585 161.086ZM763.995 168.945C762.737 168.945 761.746 168.619 761.021 167.968C760.296 167.302 759.933 166.399 759.933 165.26C759.933 164.061 760.347 163.136 761.176 162.485C762.005 161.819 763.159 161.486 764.639 161.486H767.569V160.465C767.569 159.873 767.377 159.414 766.992 159.089C766.607 158.763 766.067 158.6 765.372 158.6C764.735 158.6 764.21 158.733 763.796 159C763.396 159.266 763.174 159.621 763.13 160.065H760.488C760.547 158.926 761.028 158.016 761.931 157.335C762.848 156.639 764.025 156.291 765.46 156.291C766.97 156.291 768.161 156.661 769.034 157.401C769.908 158.141 770.344 159.155 770.344 160.443V168.723H767.658V166.658H767.614C767.451 167.369 767.051 167.931 766.415 168.345C765.779 168.745 764.972 168.945 763.995 168.945ZM764.905 166.88C765.69 166.88 766.326 166.688 766.815 166.303C767.318 165.903 767.569 165.378 767.569 164.727V163.262H764.706C764.084 163.262 763.596 163.425 763.241 163.75C762.885 164.061 762.708 164.49 762.708 165.038C762.708 165.615 762.9 166.066 763.285 166.392C763.685 166.717 764.225 166.88 764.905 166.88ZM776.584 168.945C775.401 168.945 774.439 168.523 773.699 167.679C772.959 166.836 772.589 165.704 772.589 164.283V160.975C772.589 159.54 772.951 158.4 773.676 157.557C774.416 156.713 775.386 156.291 776.584 156.291C777.428 156.291 778.138 156.506 778.716 156.935C779.293 157.35 779.692 157.942 779.914 158.711H779.959L779.87 155.936V152.518H782.645V168.723H779.936V166.525H779.914C779.692 167.295 779.293 167.894 778.716 168.323C778.153 168.737 777.443 168.945 776.584 168.945ZM777.628 166.547C778.338 166.547 778.886 166.333 779.27 165.903C779.67 165.474 779.87 164.868 779.87 164.083V161.153C779.87 160.369 779.67 159.762 779.27 159.333C778.886 158.904 778.338 158.689 777.628 158.689C776.917 158.689 776.362 158.896 775.963 159.31C775.563 159.725 775.364 160.317 775.364 161.086V164.15C775.364 164.919 775.563 165.511 775.963 165.926C776.362 166.34 776.917 166.547 777.628 166.547ZM798.033 168.723L796.169 156.513H798.389L799.41 163.994C799.469 164.424 799.513 164.897 799.543 165.415C799.587 165.933 799.624 166.362 799.654 166.703H799.765C799.794 166.362 799.839 165.94 799.898 165.437C799.957 164.919 800.016 164.438 800.076 163.994L801.252 156.513H803.561L804.693 163.994C804.752 164.424 804.811 164.905 804.871 165.437C804.93 165.955 804.974 166.384 805.004 166.725H805.115C805.144 166.37 805.181 165.94 805.226 165.437C805.27 164.919 805.322 164.438 805.381 163.994L806.447 156.513H808.6L806.691 168.723H803.827L802.762 161.197C802.702 160.783 802.636 160.324 802.562 159.821C802.503 159.303 802.458 158.881 802.429 158.556H802.34C802.296 158.881 802.244 159.303 802.185 159.821C802.125 160.324 802.066 160.783 802.007 161.197L800.897 168.723H798.033ZM810.134 168.723V156.513H812.842V158.844H812.909C813.027 158.045 813.383 157.424 813.974 156.98C814.566 156.521 815.321 156.291 816.239 156.291C817.497 156.291 818.503 156.706 819.258 157.535C820.012 158.349 820.39 159.466 820.39 160.887V161.886H817.482V161.086C817.482 160.332 817.282 159.747 816.882 159.333C816.498 158.904 815.935 158.689 815.195 158.689C813.671 158.689 812.909 159.54 812.909 161.242V168.723H810.134ZM822.102 168.723V166.214H826.275V159.022H822.546V156.513H829.05V166.214H832.801V168.723H822.102ZM827.474 154.471C826.911 154.471 826.467 154.331 826.142 154.049C825.816 153.753 825.653 153.361 825.653 152.873C825.653 152.385 825.816 152 826.142 151.719C826.467 151.423 826.911 151.275 827.474 151.275C828.036 151.275 828.48 151.423 828.806 151.719C829.131 152 829.294 152.385 829.294 152.873C829.294 153.361 829.131 153.753 828.806 154.049C828.48 154.331 828.036 154.471 827.474 154.471ZM840.751 168.723C839.612 168.723 838.701 168.397 838.021 167.746C837.355 167.08 837.022 166.185 837.022 165.06V159.022H833.714V156.513H837.022V153.073H839.819V156.513H844.503V159.022H839.819V164.993C839.819 165.348 839.915 165.644 840.107 165.881C840.314 166.103 840.596 166.214 840.951 166.214H844.281V168.723H840.751ZM851.786 168.945C850.75 168.945 849.848 168.745 849.078 168.345C848.309 167.946 847.709 167.391 847.28 166.68C846.866 165.955 846.658 165.112 846.658 164.15V161.086C846.658 160.124 846.866 159.288 847.28 158.578C847.709 157.853 848.309 157.29 849.078 156.891C849.848 156.491 850.75 156.291 851.786 156.291C852.807 156.291 853.695 156.491 854.45 156.891C855.22 157.29 855.812 157.853 856.226 158.578C856.655 159.288 856.87 160.124 856.87 161.086V163.284H849.344V164.15C849.344 165.881 850.166 166.747 851.808 166.747C853.081 166.747 853.829 166.325 854.051 165.482H856.781C856.574 166.532 856.011 167.376 855.094 168.012C854.191 168.634 853.089 168.945 851.786 168.945ZM849.344 161.086V161.553L854.184 161.53V161.064C854.184 160.221 853.984 159.577 853.584 159.133C853.185 158.674 852.585 158.445 851.786 158.445C850.972 158.445 850.358 158.674 849.944 159.133C849.544 159.592 849.344 160.243 849.344 161.086ZM884.204 168.723V156.513H886.912V158.844H886.979C887.097 158.045 887.452 157.424 888.044 156.98C888.636 156.521 889.391 156.291 890.308 156.291C891.566 156.291 892.573 156.706 893.327 157.535C894.082 158.349 894.46 159.466 894.46 160.887V161.886H891.552V161.086C891.552 160.332 891.352 159.747 890.952 159.333C890.567 158.904 890.005 158.689 889.265 158.689C887.741 158.689 886.979 159.54 886.979 161.242V168.723H884.204ZM901.166 168.945C900.13 168.945 899.227 168.745 898.458 168.345C897.688 167.946 897.089 167.391 896.66 166.68C896.245 165.955 896.038 165.112 896.038 164.15V161.086C896.038 160.124 896.245 159.288 896.66 158.578C897.089 157.853 897.688 157.29 898.458 156.891C899.227 156.491 900.13 156.291 901.166 156.291C902.187 156.291 903.075 156.491 903.83 156.891C904.599 157.29 905.191 157.853 905.606 158.578C906.035 159.288 906.25 160.124 906.25 161.086V163.284H898.724V164.15C898.724 165.881 899.546 166.747 901.188 166.747C902.461 166.747 903.208 166.325 903.43 165.482H906.161C905.954 166.532 905.391 167.376 904.474 168.012C903.571 168.634 902.468 168.945 901.166 168.945ZM898.724 161.086V161.553L903.564 161.53V161.064C903.564 160.221 903.364 159.577 902.964 159.133C902.565 158.674 901.965 158.445 901.166 158.445C900.352 158.445 899.738 158.674 899.324 159.133C898.924 159.592 898.724 160.243 898.724 161.086ZM912.135 168.945C910.877 168.945 909.885 168.619 909.16 167.968C908.435 167.302 908.072 166.399 908.072 165.26C908.072 164.061 908.487 163.136 909.316 162.485C910.144 161.819 911.299 161.486 912.778 161.486H915.709V160.465C915.709 159.873 915.516 159.414 915.132 159.089C914.747 158.763 914.207 158.6 913.511 158.6C912.875 158.6 912.349 158.733 911.935 159C911.535 159.266 911.313 159.621 911.269 160.065H908.627C908.687 158.926 909.168 158.016 910.07 157.335C910.988 156.639 912.164 156.291 913.6 156.291C915.109 156.291 916.301 156.661 917.174 157.401C918.047 158.141 918.483 159.155 918.483 160.443V168.723H915.797V166.658H915.753C915.59 167.369 915.191 167.931 914.554 168.345C913.918 168.745 913.111 168.945 912.135 168.945ZM913.045 166.88C913.829 166.88 914.466 166.688 914.954 166.303C915.457 165.903 915.709 165.378 915.709 164.727V163.262H912.845C912.224 163.262 911.735 163.425 911.38 163.75C911.025 164.061 910.847 164.49 910.847 165.038C910.847 165.615 911.04 166.066 911.424 166.392C911.824 166.717 912.364 166.88 913.045 166.88ZM924.724 168.945C923.54 168.945 922.578 168.523 921.838 167.679C921.098 166.836 920.728 165.704 920.728 164.283V160.975C920.728 159.54 921.091 158.4 921.816 157.557C922.556 156.713 923.525 156.291 924.724 156.291C925.567 156.291 926.278 156.506 926.855 156.935C927.432 157.35 927.832 157.942 928.054 158.711H928.098L928.009 155.936V152.518H930.784V168.723H928.076V166.525H928.054C927.832 167.295 927.432 167.894 926.855 168.323C926.293 168.737 925.582 168.945 924.724 168.945ZM925.767 166.547C926.478 166.547 927.025 166.333 927.41 165.903C927.809 165.474 928.009 164.868 928.009 164.083V161.153C928.009 160.369 927.809 159.762 927.41 159.333C927.025 158.904 926.478 158.689 925.767 158.689C925.057 158.689 924.502 158.896 924.102 159.31C923.703 159.725 923.503 160.317 923.503 161.086V164.15C923.503 164.919 923.703 165.511 924.102 165.926C924.502 166.34 925.057 166.547 925.767 166.547ZM946.173 168.723L944.308 156.513H946.528L947.549 163.994C947.608 164.424 947.653 164.897 947.682 165.415C947.727 165.933 947.764 166.362 947.793 166.703H947.904C947.934 166.362 947.978 165.94 948.037 165.437C948.097 164.919 948.156 164.438 948.215 163.994L949.392 156.513H951.7L952.832 163.994C952.892 164.424 952.951 164.905 953.01 165.437C953.069 165.955 953.114 166.384 953.143 166.725H953.254C953.284 166.37 953.321 165.94 953.365 165.437C953.409 164.919 953.461 164.438 953.52 163.994L954.586 156.513H956.739L954.83 168.723H951.967L950.901 161.197C950.842 160.783 950.775 160.324 950.701 159.821C950.642 159.303 950.598 158.881 950.568 158.556H950.479C950.435 158.881 950.383 159.303 950.324 159.821C950.265 160.324 950.206 160.783 950.146 161.197L949.036 168.723H946.173ZM958.274 168.723V156.513H960.982V158.844H961.048C961.167 158.045 961.522 157.424 962.114 156.98C962.706 156.521 963.461 156.291 964.378 156.291C965.636 156.291 966.642 156.706 967.397 157.535C968.152 158.349 968.529 159.466 968.529 160.887V161.886H965.621V161.086C965.621 160.332 965.421 159.747 965.022 159.333C964.637 158.904 964.075 158.689 963.335 158.689C961.811 158.689 961.048 159.54 961.048 161.242V168.723H958.274ZM970.241 168.723V166.214H974.414V159.022H970.685V156.513H977.189V166.214H980.941V168.723H970.241ZM975.613 154.471C975.051 154.471 974.607 154.331 974.281 154.049C973.956 153.753 973.793 153.361 973.793 152.873C973.793 152.385 973.956 152 974.281 151.719C974.607 151.423 975.051 151.275 975.613 151.275C976.176 151.275 976.619 151.423 976.945 151.719C977.271 152 977.433 152.385 977.433 152.873C977.433 153.361 977.271 153.753 976.945 154.049C976.619 154.331 976.176 154.471 975.613 154.471ZM988.89 168.723C987.751 168.723 986.841 168.397 986.16 167.746C985.494 167.08 985.161 166.185 985.161 165.06V159.022H981.854V156.513H985.161V153.073H987.958V156.513H992.642V159.022H987.958V164.993C987.958 165.348 988.054 165.644 988.247 165.881C988.454 166.103 988.735 166.214 989.09 166.214H992.42V168.723H988.89ZM999.926 168.945C998.89 168.945 997.987 168.745 997.217 168.345C996.448 167.946 995.849 167.391 995.419 166.68C995.005 165.955 994.798 165.112 994.798 164.15V161.086C994.798 160.124 995.005 159.288 995.419 158.578C995.849 157.853 996.448 157.29 997.217 156.891C997.987 156.491 998.89 156.291 999.926 156.291C1000.95 156.291 1001.83 156.491 1002.59 156.891C1003.36 157.29 1003.95 157.853 1004.37 158.578C1004.79 159.288 1005.01 160.124 1005.01 161.086V163.284H997.484V164.15C997.484 165.881 998.305 166.747 999.948 166.747C1001.22 166.747 1001.97 166.325 1002.19 165.482H1004.92C1004.71 166.532 1004.15 167.376 1003.23 168.012C1002.33 168.634 1001.23 168.945 999.926 168.945ZM997.484 161.086V161.553L1002.32 161.53V161.064C1002.32 160.221 1002.12 159.577 1001.72 159.133C1001.32 158.674 1000.72 158.445 999.926 158.445C999.112 158.445 998.498 158.674 998.083 159.133C997.684 159.592 997.484 160.243 997.484 161.086Z" fill="black"/>
<path d="M989.85 562.963C990.382 563.598 991.328 563.682 991.963 563.15L1002.31 554.48C1002.95 553.948 1003.03 553.002 1002.5 552.367C1001.97 551.732 1001.02 551.648 1000.38 552.18L991.186 559.887L983.48 550.689C982.948 550.054 982.002 549.97 981.367 550.502C980.732 551.034 980.648 551.98 981.18 552.615L989.85 562.963ZM561.939 359.061C562.605 359.726 563.339 360.38 564.137 361.025L566.022 358.691C565.296 358.105 564.642 357.521 564.061 356.939L561.939 359.061ZM569.224 364.524C570.887 365.519 572.713 366.502 574.69 367.474L576.014 364.782C574.098 363.84 572.346 362.896 570.765 361.95L569.224 364.524ZM580.011 369.914C581.787 370.677 583.657 371.436 585.616 372.192L586.696 369.393C584.768 368.649 582.933 367.904 581.195 367.157L580.011 369.914ZM591.214 374.26C593.038 374.906 594.926 375.551 596.874 376.195L597.816 373.347C595.886 372.709 594.019 372.071 592.217 371.432L591.214 374.26ZM602.544 378.016C604.413 378.599 606.329 379.182 608.291 379.764L609.145 376.889C607.196 376.309 605.292 375.731 603.438 375.152L602.544 378.016ZM613.953 381.412C615.869 381.958 617.825 382.505 619.816 383.053L620.612 380.16C618.628 379.615 616.682 379.07 614.775 378.527L613.953 381.412ZM625.44 384.577C627.345 385.085 629.28 385.595 631.244 386.106L631.999 383.202C630.041 382.693 628.112 382.185 626.214 381.678L625.44 384.577ZM637.01 387.588C638.894 388.068 640.802 388.548 642.732 389.03L643.459 386.119C641.532 385.638 639.629 385.159 637.749 384.681L637.01 387.588ZM648.59 390.48C650.478 390.944 652.385 391.409 654.31 391.876L655.017 388.961C653.094 388.494 651.19 388.03 649.306 387.567L648.59 390.48ZM660.075 393.266C662.014 393.731 663.971 394.197 665.943 394.666L666.637 391.747C664.666 391.279 662.712 390.813 660.775 390.348L660.075 393.266ZM671.658 396.019C673.57 396.47 675.496 396.924 677.436 397.379L678.121 394.458C676.183 394.003 674.258 393.55 672.347 393.099L671.658 396.019ZM683.292 398.751C685.191 399.196 687.102 399.642 689.024 400.091L689.706 397.169C687.785 396.721 685.874 396.274 683.975 395.83L683.292 398.751ZM694.799 401.439C696.735 401.891 698.68 402.345 700.634 402.801L701.317 399.88C699.362 399.423 697.417 398.969 695.481 398.518L694.799 401.439ZM706.392 404.148C708.307 404.596 710.229 405.047 712.159 405.5L712.845 402.579C710.914 402.126 708.991 401.675 707.076 401.227L706.392 404.148ZM717.97 406.867C719.89 407.321 721.817 407.776 723.75 408.235L724.442 405.316C722.508 404.857 720.58 404.401 718.659 403.948L717.97 406.867ZM729.507 409.605C731.432 410.065 733.361 410.527 735.294 410.992L735.996 408.075C734.061 407.61 732.13 407.147 730.204 406.687L729.507 409.605ZM741.085 412.391C742.998 412.856 744.915 413.323 746.834 413.793L747.548 410.879C745.626 410.409 743.708 409.941 741.793 409.476L741.085 412.391ZM752.601 415.213C754.525 415.69 756.452 416.169 758.381 416.652L759.11 413.742C757.178 413.259 755.249 412.778 753.322 412.301L752.601 415.213ZM764.128 418.1C766.044 418.586 767.96 419.074 769.877 419.567L770.623 416.661C768.703 416.168 766.783 415.678 764.865 415.192L764.128 418.1ZM775.629 421.054C777.545 421.553 779.46 422.055 781.374 422.561L782.141 419.66C780.223 419.153 778.304 418.65 776.385 418.151L775.629 421.054ZM787.11 424.088C789.021 424.601 790.93 425.117 792.838 425.637L793.627 422.743C791.716 422.222 789.802 421.704 787.888 421.19L787.11 424.088ZM798.558 427.211C800.469 427.741 802.377 428.276 804.283 428.814L805.098 425.927C803.188 425.387 801.275 424.852 799.36 424.32L798.558 427.211ZM809.988 430.442C811.887 430.988 813.781 431.539 815.671 432.094L816.517 429.216C814.621 428.659 812.722 428.107 810.818 427.559L809.988 430.442ZM821.375 433.787C823.275 434.356 825.171 434.931 827.06 435.509L827.939 432.641C826.043 432.06 824.143 431.484 822.237 430.913L821.375 433.787ZM832.71 437.26C834.602 437.852 836.488 438.45 838.366 439.052L839.282 436.196C837.397 435.591 835.505 434.992 833.607 434.397L832.71 437.26ZM844.028 440.89C845.908 441.508 847.78 442.131 849.643 442.758L850.601 439.916C848.73 439.285 846.852 438.66 844.965 438.04L844.028 440.89ZM855.231 444.667C857.119 445.32 858.996 445.979 860.864 446.643L861.869 443.816C859.994 443.149 858.108 442.488 856.212 441.832L855.231 444.667ZM866.434 448.653C868.28 449.329 870.115 450.01 871.938 450.698L872.997 447.891C871.164 447.2 869.32 446.515 867.466 445.836L866.434 448.653ZM877.53 452.84C879.38 453.56 881.218 454.287 883.041 455.02L884.16 452.237C882.326 451.499 880.479 450.769 878.618 450.044L877.53 452.84ZM888.468 457.239C890.32 458.01 892.156 458.787 893.976 459.572L895.164 456.817C893.332 456.027 891.484 455.245 889.62 454.47L888.468 457.239ZM899.403 461.956C901.195 462.759 902.969 463.568 904.724 464.385L905.99 461.665C904.221 460.842 902.434 460.026 900.629 459.218L899.403 461.956ZM910.13 466.954C911.919 467.822 913.686 468.699 915.432 469.584L916.789 466.908C915.027 466.015 913.244 465.131 911.44 464.255L910.13 466.954ZM920.605 472.267C922.389 473.214 924.147 474.17 925.878 475.135L927.339 472.515C925.589 471.539 923.813 470.573 922.012 469.617L920.605 472.267ZM930.991 478.061C932.694 479.061 934.367 480.07 936.011 481.091L937.593 478.542C935.928 477.508 934.233 476.486 932.511 475.474L930.991 478.061ZM941.038 484.304C942.681 485.387 944.29 486.481 945.864 487.586L947.588 485.13C945.989 484.008 944.355 482.897 942.689 481.799L941.038 484.304ZM950.662 491.071C952.251 492.267 953.8 493.476 955.306 494.698L957.196 492.369C955.66 491.123 954.083 489.891 952.465 488.674L950.662 491.071ZM959.755 498.455C961.262 499.781 962.719 501.122 964.125 502.477L966.207 500.318C964.767 498.929 963.276 497.558 961.737 496.203L959.755 498.455ZM968.187 506.591C969.559 508.051 970.871 509.528 972.123 511.023L974.423 509.096C973.133 507.556 971.783 506.037 970.374 504.537L968.187 506.591ZM975.711 515.582C976.885 517.174 977.99 518.784 979.025 520.414L981.558 518.806C980.484 517.115 979.339 515.447 978.126 513.802L975.711 515.582ZM981.954 525.428C982.874 527.151 983.717 528.895 984.481 530.661L987.234 529.471C986.437 527.627 985.558 525.808 984.601 524.015L981.954 525.428ZM986.551 536.082C987.159 537.913 987.684 539.766 988.123 541.644L991.044 540.961C990.584 538.993 990.034 537.052 989.398 535.136L986.551 536.082ZM989.18 547.352C989.44 549.241 989.615 551.155 989.702 553.094L992.699 552.959C992.608 550.929 992.425 548.923 992.152 546.943L989.18 547.352ZM989.702 558.906C989.659 559.887 989.594 560.874 989.506 561.868L992.494 562.132C992.586 561.095 992.654 560.064 992.699 559.038L989.702 558.906Z" fill="black"/>
</svg>
