<svg width="1200" height="900" viewBox="0 0 1200 900" fill="none" xmlns="http://www.w3.org/2000/svg">
<rect width="1200" height="900" fill="white"/>
<path d="M127.889 311.455L108.82 366H91.7741L72.7045 311.455H88.6847L100.013 350.482H100.581L111.874 311.455H127.889ZM197.452 318.734H181.898C181.614 316.722 181.034 314.935 180.158 313.372C179.282 311.786 178.158 310.437 176.785 309.324C175.412 308.211 173.825 307.359 172.026 306.767C170.251 306.175 168.321 305.879 166.238 305.879C162.474 305.879 159.195 306.814 156.401 308.685C153.608 310.531 151.441 313.23 149.903 316.781C148.364 320.309 147.594 324.594 147.594 329.636C147.594 334.821 148.364 339.177 149.903 342.705C151.465 346.232 153.643 348.895 156.437 350.695C159.23 352.494 162.462 353.393 166.131 353.393C168.191 353.393 170.097 353.121 171.849 352.577C173.624 352.032 175.198 351.239 176.572 350.197C177.945 349.132 179.081 347.842 179.981 346.327C180.904 344.812 181.543 343.083 181.898 341.142L197.452 341.213C197.05 344.551 196.044 347.771 194.434 350.872C192.848 353.95 190.705 356.708 188.006 359.146C185.331 361.561 182.135 363.479 178.418 364.899C174.725 366.296 170.546 366.994 165.883 366.994C159.396 366.994 153.596 365.527 148.482 362.591C143.392 359.655 139.367 355.406 136.408 349.842C133.473 344.279 132.005 337.544 132.005 329.636C132.005 321.705 133.496 314.958 136.479 309.395C139.462 303.831 143.51 299.594 148.624 296.682C153.738 293.746 159.491 292.278 165.883 292.278C170.097 292.278 174.003 292.87 177.601 294.054C181.224 295.238 184.431 296.966 187.225 299.239C190.019 301.488 192.291 304.246 194.043 307.513C195.819 310.78 196.955 314.52 197.452 318.734ZM220.691 293.273V366H205.563V293.273H220.691ZM265.156 342.776V311.455H280.284V366H265.76V356.092H265.192C263.961 359.288 261.913 361.857 259.048 363.798C256.207 365.74 252.739 366.71 248.643 366.71C244.997 366.71 241.79 365.882 239.02 364.224C236.25 362.567 234.084 360.212 232.521 357.158C230.982 354.104 230.201 350.446 230.177 346.185V311.455H245.305V343.486C245.329 346.705 246.193 349.25 247.898 351.121C249.602 352.991 251.887 353.926 254.751 353.926C256.574 353.926 258.279 353.512 259.865 352.683C261.451 351.831 262.729 350.576 263.7 348.919C264.694 347.262 265.18 345.214 265.156 342.776ZM335.136 327.009L321.287 327.861C321.05 326.677 320.541 325.612 319.76 324.665C318.979 323.694 317.949 322.925 316.67 322.357C315.416 321.765 313.912 321.469 312.16 321.469C309.817 321.469 307.84 321.966 306.23 322.96C304.62 323.931 303.815 325.233 303.815 326.866C303.815 328.169 304.336 329.269 305.378 330.169C306.419 331.069 308.207 331.791 310.74 332.335L320.612 334.324C325.915 335.413 329.869 337.165 332.473 339.58C335.077 341.994 336.379 345.167 336.379 349.097C336.379 352.671 335.326 355.808 333.219 358.507C331.135 361.206 328.271 363.313 324.625 364.828C321.003 366.32 316.824 367.065 312.089 367.065C304.869 367.065 299.116 365.562 294.831 362.555C290.57 359.525 288.072 355.406 287.338 350.197L302.217 349.416C302.667 351.618 303.756 353.299 305.484 354.459C307.213 355.595 309.426 356.163 312.125 356.163C314.776 356.163 316.907 355.654 318.517 354.636C320.151 353.595 320.979 352.257 321.003 350.624C320.979 349.25 320.399 348.126 319.263 347.25C318.126 346.35 316.374 345.664 314.007 345.19L304.561 343.308C299.234 342.243 295.269 340.396 292.665 337.768C290.084 335.141 288.794 331.791 288.794 327.719C288.794 324.215 289.741 321.196 291.635 318.663C293.553 316.13 296.24 314.177 299.696 312.804C303.176 311.431 307.248 310.744 311.912 310.744C318.801 310.744 324.222 312.2 328.176 315.112C332.153 318.024 334.473 321.99 335.136 327.009ZM372.286 311.455V322.818H339.438V311.455H372.286ZM346.896 298.386H362.024V349.239C362.024 350.635 362.237 351.724 362.663 352.506C363.089 353.263 363.681 353.796 364.438 354.104C365.22 354.411 366.119 354.565 367.137 354.565C367.847 354.565 368.558 354.506 369.268 354.388C369.978 354.246 370.523 354.139 370.901 354.068L373.281 365.325C372.523 365.562 371.458 365.834 370.085 366.142C368.712 366.473 367.043 366.675 365.078 366.746C361.432 366.888 358.236 366.402 355.489 365.29C352.767 364.177 350.648 362.449 349.133 360.105C347.618 357.761 346.872 354.802 346.896 351.227V298.386ZM403.781 367.065C398.17 367.065 393.341 365.929 389.293 363.656C385.268 361.36 382.167 358.116 379.989 353.926C377.811 349.712 376.722 344.729 376.722 338.976C376.722 333.365 377.811 328.441 379.989 324.203C382.167 319.965 385.232 316.663 389.186 314.295C393.163 311.928 397.827 310.744 403.178 310.744C406.776 310.744 410.126 311.324 413.227 312.484C416.352 313.621 419.075 315.337 421.395 317.634C423.739 319.93 425.562 322.818 426.864 326.298C428.166 329.755 428.817 333.803 428.817 338.443V342.598H382.758V333.223H414.577C414.577 331.045 414.103 329.116 413.156 327.435C412.209 325.754 410.895 324.44 409.214 323.493C407.557 322.522 405.628 322.037 403.426 322.037C401.13 322.037 399.094 322.57 397.318 323.635C395.566 324.677 394.193 326.085 393.199 327.861C392.205 329.613 391.696 331.566 391.672 333.72V342.634C391.672 345.332 392.169 347.664 393.163 349.629C394.181 351.594 395.614 353.109 397.46 354.175C399.307 355.24 401.497 355.773 404.03 355.773C405.711 355.773 407.249 355.536 408.646 355.062C410.043 354.589 411.239 353.879 412.233 352.932C413.227 351.985 413.985 350.825 414.506 349.452L428.497 350.375C427.787 353.737 426.331 356.672 424.129 359.182C421.951 361.668 419.134 363.609 415.678 365.006C412.245 366.379 408.279 367.065 403.781 367.065ZM436.057 366V311.455H450.723V320.972H451.292C452.286 317.586 453.955 315.029 456.299 313.301C458.643 311.549 461.341 310.673 464.395 310.673C465.153 310.673 465.97 310.721 466.846 310.815C467.722 310.91 468.491 311.04 469.154 311.206V324.629C468.444 324.416 467.461 324.227 466.206 324.061C464.952 323.895 463.803 323.812 462.762 323.812C460.536 323.812 458.548 324.298 456.796 325.268C455.068 326.215 453.695 327.541 452.677 329.246C451.682 330.95 451.185 332.915 451.185 335.141V366H436.057ZM510.411 367.03C506.93 367.03 503.829 366.426 501.107 365.219C498.384 363.988 496.23 362.177 494.644 359.786C493.081 357.371 492.3 354.364 492.3 350.766C492.3 347.735 492.856 345.19 493.969 343.131C495.082 341.071 496.597 339.414 498.514 338.159C500.432 336.904 502.61 335.957 505.048 335.318C507.511 334.679 510.091 334.229 512.79 333.969C515.962 333.637 518.519 333.33 520.46 333.045C522.402 332.738 523.81 332.288 524.686 331.696C525.562 331.104 526 330.228 526 329.068V328.855C526 326.606 525.29 324.866 523.869 323.635C522.473 322.404 520.484 321.788 517.904 321.788C515.181 321.788 513.015 322.392 511.405 323.599C509.795 324.783 508.73 326.275 508.209 328.074L494.217 326.938C494.928 323.623 496.324 320.759 498.408 318.344C500.491 315.905 503.178 314.035 506.469 312.733C509.783 311.407 513.618 310.744 517.975 310.744C521.005 310.744 523.905 311.099 526.675 311.81C529.468 312.52 531.942 313.621 534.097 315.112C536.275 316.604 537.991 318.521 539.246 320.865C540.501 323.185 541.128 325.967 541.128 329.21V366H526.781V358.436H526.355C525.479 360.141 524.307 361.644 522.84 362.946C521.372 364.224 519.608 365.231 517.548 365.964C515.489 366.675 513.109 367.03 510.411 367.03ZM514.743 356.589C516.968 356.589 518.933 356.152 520.638 355.276C522.342 354.376 523.68 353.169 524.651 351.653C525.621 350.138 526.107 348.422 526.107 346.504V340.716C525.633 341.024 524.982 341.308 524.154 341.568C523.349 341.805 522.437 342.03 521.419 342.243C520.401 342.432 519.383 342.61 518.365 342.776C517.347 342.918 516.424 343.048 515.595 343.166C513.82 343.427 512.269 343.841 510.943 344.409C509.618 344.977 508.588 345.747 507.854 346.717C507.12 347.664 506.753 348.848 506.753 350.268C506.753 352.328 507.499 353.902 508.99 354.991C510.505 356.057 512.423 356.589 514.743 356.589ZM565.361 334.466V366H550.233V311.455H564.65V321.078H565.29C566.497 317.906 568.521 315.396 571.362 313.55C574.203 311.679 577.648 310.744 581.696 310.744C585.484 310.744 588.786 311.573 591.604 313.23C594.421 314.887 596.611 317.255 598.173 320.332C599.736 323.386 600.517 327.032 600.517 331.27V366H585.389V333.969C585.413 330.631 584.561 328.027 582.832 326.156C581.104 324.262 578.725 323.315 575.695 323.315C573.659 323.315 571.859 323.753 570.297 324.629C568.758 325.505 567.551 326.784 566.675 328.464C565.822 330.122 565.384 332.122 565.361 334.466ZM629.908 366.888C625.765 366.888 622.012 365.822 618.651 363.692C615.313 361.537 612.661 358.377 610.696 354.21C608.755 350.02 607.784 344.883 607.784 338.798C607.784 332.548 608.79 327.352 610.803 323.209C612.815 319.042 615.49 315.929 618.828 313.869C622.19 311.786 625.871 310.744 629.872 310.744C632.926 310.744 635.471 311.265 637.507 312.307C639.567 313.325 641.224 314.603 642.479 316.142C643.757 317.657 644.728 319.149 645.391 320.616H645.852V293.273H660.945V366H646.03V357.264H645.391C644.68 358.779 643.674 360.283 642.372 361.774C641.094 363.242 639.425 364.461 637.365 365.432C635.329 366.402 632.843 366.888 629.908 366.888ZM634.702 354.849C637.14 354.849 639.2 354.187 640.881 352.861C642.585 351.511 643.887 349.629 644.787 347.214C645.71 344.8 646.172 341.971 646.172 338.727C646.172 335.484 645.722 332.667 644.822 330.276C643.923 327.884 642.621 326.038 640.916 324.736C639.212 323.434 637.14 322.783 634.702 322.783C632.216 322.783 630.121 323.457 628.416 324.807C626.712 326.156 625.421 328.027 624.546 330.418C623.67 332.809 623.232 335.579 623.232 338.727C623.232 341.9 623.67 344.705 624.546 347.143C625.445 349.558 626.735 351.452 628.416 352.825C630.121 354.175 632.216 354.849 634.702 354.849ZM122.42 411.009L108.571 411.861C108.334 410.677 107.825 409.612 107.044 408.665C106.263 407.694 105.233 406.925 103.955 406.357C102.7 405.765 101.196 405.469 99.4446 405.469C97.1009 405.469 95.1241 405.966 93.5142 406.96C91.9044 407.931 91.0994 409.233 91.0994 410.866C91.0994 412.169 91.6203 413.269 92.6619 414.169C93.7036 415.069 95.491 415.791 98.0241 416.335L107.896 418.324C113.199 419.413 117.153 421.165 119.757 423.58C122.361 425.994 123.663 429.167 123.663 433.097C123.663 436.671 122.61 439.808 120.503 442.507C118.42 445.206 115.555 447.313 111.909 448.828C108.287 450.32 104.108 451.065 99.3736 451.065C92.1529 451.065 86.4001 449.562 82.1151 446.555C77.8537 443.525 75.3561 439.406 74.6222 434.197L89.5014 433.416C89.9512 435.618 91.0402 437.299 92.7685 438.459C94.4967 439.595 96.7102 440.163 99.4091 440.163C102.061 440.163 104.191 439.654 105.801 438.636C107.435 437.595 108.263 436.257 108.287 434.624C108.263 433.25 107.683 432.126 106.547 431.25C105.411 430.35 103.659 429.664 101.291 429.19L91.8452 427.308C86.5185 426.243 82.553 424.396 79.9489 421.768C77.3684 419.141 76.0781 415.791 76.0781 411.719C76.0781 408.215 77.0251 405.196 78.919 402.663C80.8366 400.13 83.5237 398.177 86.9801 396.804C90.4602 395.431 94.5322 394.744 99.196 394.744C106.085 394.744 111.507 396.2 115.46 399.112C119.438 402.024 121.758 405.99 122.42 411.009ZM145.686 418.466V450H130.558V377.273H145.259V405.078H145.899C147.13 401.858 149.118 399.337 151.865 397.514C154.611 395.668 158.055 394.744 162.198 394.744C165.986 394.744 169.289 395.573 172.106 397.23C174.947 398.864 177.149 401.219 178.711 404.297C180.297 407.351 181.079 411.009 181.055 415.27V450H165.927V417.969C165.951 414.607 165.098 411.991 163.37 410.121C161.666 408.25 159.275 407.315 156.197 407.315C154.137 407.315 152.314 407.753 150.728 408.629C149.166 409.505 147.935 410.784 147.035 412.464C146.159 414.122 145.709 416.122 145.686 418.466ZM205.882 451.03C202.402 451.03 199.301 450.426 196.578 449.219C193.856 447.988 191.702 446.177 190.115 443.786C188.553 441.371 187.772 438.364 187.772 434.766C187.772 431.735 188.328 429.19 189.441 427.131C190.553 425.071 192.069 423.414 193.986 422.159C195.904 420.904 198.082 419.957 200.52 419.318C202.982 418.679 205.563 418.229 208.262 417.969C211.434 417.637 213.991 417.33 215.932 417.045C217.873 416.738 219.282 416.288 220.158 415.696C221.034 415.104 221.472 414.228 221.472 413.068V412.855C221.472 410.606 220.762 408.866 219.341 407.635C217.944 406.404 215.956 405.788 213.375 405.788C210.653 405.788 208.487 406.392 206.877 407.599C205.267 408.783 204.202 410.275 203.681 412.074L189.689 410.938C190.399 407.623 191.796 404.759 193.88 402.344C195.963 399.905 198.65 398.035 201.941 396.733C205.255 395.407 209.09 394.744 213.446 394.744C216.477 394.744 219.377 395.099 222.147 395.81C224.94 396.52 227.414 397.621 229.569 399.112C231.747 400.604 233.463 402.521 234.718 404.865C235.972 407.185 236.6 409.967 236.6 413.21V450H222.253V442.436H221.827C220.951 444.141 219.779 445.644 218.311 446.946C216.844 448.224 215.08 449.231 213.02 449.964C210.961 450.675 208.581 451.03 205.882 451.03ZM210.215 440.589C212.44 440.589 214.405 440.152 216.11 439.276C217.814 438.376 219.152 437.169 220.122 435.653C221.093 434.138 221.578 432.422 221.578 430.504V424.716C221.105 425.024 220.454 425.308 219.625 425.568C218.82 425.805 217.909 426.03 216.891 426.243C215.873 426.432 214.855 426.61 213.837 426.776C212.819 426.918 211.896 427.048 211.067 427.166C209.292 427.427 207.741 427.841 206.415 428.409C205.089 428.977 204.06 429.747 203.326 430.717C202.592 431.664 202.225 432.848 202.225 434.268C202.225 436.328 202.971 437.902 204.462 438.991C205.977 440.057 207.895 440.589 210.215 440.589ZM245.705 450V395.455H260.371V404.972H260.939C261.933 401.586 263.602 399.029 265.946 397.301C268.29 395.549 270.989 394.673 274.043 394.673C274.8 394.673 275.617 394.721 276.493 394.815C277.369 394.91 278.138 395.04 278.801 395.206V408.629C278.091 408.416 277.109 408.227 275.854 408.061C274.599 407.895 273.451 407.812 272.409 407.812C270.184 407.812 268.195 408.298 266.443 409.268C264.715 410.215 263.342 411.541 262.324 413.246C261.33 414.95 260.833 416.915 260.833 419.141V450H245.705ZM306.31 451.065C300.699 451.065 295.87 449.929 291.821 447.656C287.797 445.36 284.695 442.116 282.517 437.926C280.339 433.712 279.25 428.729 279.25 422.976C279.25 417.365 280.339 412.441 282.517 408.203C284.695 403.965 287.761 400.663 291.715 398.295C295.692 395.928 300.356 394.744 305.706 394.744C309.305 394.744 312.655 395.324 315.756 396.484C318.881 397.621 321.604 399.337 323.924 401.634C326.267 403.93 328.09 406.818 329.392 410.298C330.694 413.755 331.345 417.803 331.345 422.443V426.598H285.287V417.223H317.105C317.105 415.045 316.632 413.116 315.685 411.435C314.738 409.754 313.424 408.44 311.743 407.493C310.086 406.522 308.157 406.037 305.955 406.037C303.658 406.037 301.622 406.57 299.847 407.635C298.095 408.677 296.722 410.085 295.728 411.861C294.733 413.613 294.224 415.566 294.201 417.72V426.634C294.201 429.332 294.698 431.664 295.692 433.629C296.71 435.594 298.142 437.109 299.989 438.175C301.836 439.24 304.025 439.773 306.559 439.773C308.239 439.773 309.778 439.536 311.175 439.062C312.572 438.589 313.767 437.879 314.762 436.932C315.756 435.985 316.514 434.825 317.034 433.452L331.026 434.375C330.316 437.737 328.86 440.672 326.658 443.182C324.48 445.668 321.663 447.609 318.206 449.006C314.774 450.379 310.808 451.065 306.31 451.065ZM358.685 450.888C354.543 450.888 350.79 449.822 347.428 447.692C344.09 445.537 341.439 442.377 339.474 438.21C337.533 434.02 336.562 428.883 336.562 422.798C336.562 416.548 337.568 411.352 339.58 407.209C341.593 403.042 344.268 399.929 347.606 397.869C350.968 395.786 354.649 394.744 358.65 394.744C361.704 394.744 364.249 395.265 366.285 396.307C368.345 397.325 370.002 398.603 371.257 400.142C372.535 401.657 373.506 403.149 374.168 404.616H374.63V377.273H389.722V450H374.808V441.264H374.168C373.458 442.779 372.452 444.283 371.15 445.774C369.872 447.242 368.203 448.461 366.143 449.432C364.107 450.402 361.621 450.888 358.685 450.888ZM363.48 438.849C365.918 438.849 367.978 438.187 369.659 436.861C371.363 435.511 372.665 433.629 373.565 431.214C374.488 428.8 374.95 425.971 374.95 422.727C374.95 419.484 374.5 416.667 373.6 414.276C372.701 411.884 371.399 410.038 369.694 408.736C367.989 407.434 365.918 406.783 363.48 406.783C360.994 406.783 358.899 407.457 357.194 408.807C355.489 410.156 354.199 412.027 353.323 414.418C352.447 416.809 352.009 419.579 352.009 422.727C352.009 425.9 352.447 428.705 353.323 431.143C354.223 433.558 355.513 435.452 357.194 436.825C358.899 438.175 360.994 438.849 363.48 438.849ZM435.17 418.466V450H420.042V395.455H434.459V405.078H435.098C436.306 401.906 438.33 399.396 441.171 397.55C444.012 395.679 447.456 394.744 451.505 394.744C455.293 394.744 458.595 395.573 461.412 397.23C464.23 398.887 466.42 401.255 467.982 404.332C469.545 407.386 470.326 411.032 470.326 415.27V450H455.198V417.969C455.222 414.631 454.369 412.027 452.641 410.156C450.913 408.262 448.534 407.315 445.503 407.315C443.467 407.315 441.668 407.753 440.106 408.629C438.567 409.505 437.359 410.784 436.483 412.464C435.631 414.122 435.193 416.122 435.17 418.466ZM504.262 451.065C498.746 451.065 493.976 449.893 489.951 447.55C485.95 445.182 482.86 441.892 480.682 437.678C478.504 433.44 477.415 428.527 477.415 422.94C477.415 417.306 478.504 412.382 480.682 408.168C482.86 403.93 485.95 400.639 489.951 398.295C493.976 395.928 498.746 394.744 504.262 394.744C509.778 394.744 514.537 395.928 518.538 398.295C522.562 400.639 525.664 403.93 527.842 408.168C530.02 412.382 531.109 417.306 531.109 422.94C531.109 428.527 530.02 433.44 527.842 437.678C525.664 441.892 522.562 445.182 518.538 447.55C514.537 449.893 509.778 451.065 504.262 451.065ZM504.333 439.347C506.842 439.347 508.938 438.636 510.619 437.216C512.299 435.772 513.566 433.807 514.418 431.321C515.294 428.835 515.732 426.006 515.732 422.834C515.732 419.661 515.294 416.832 514.418 414.347C513.566 411.861 512.299 409.896 510.619 408.452C508.938 407.008 506.842 406.286 504.333 406.286C501.8 406.286 499.669 407.008 497.941 408.452C496.236 409.896 494.946 411.861 494.07 414.347C493.218 416.832 492.792 419.661 492.792 422.834C492.792 426.006 493.218 428.835 494.07 431.321C494.946 433.807 496.236 435.772 497.941 437.216C499.669 438.636 501.8 439.347 504.333 439.347ZM558.413 450.888C554.27 450.888 550.518 449.822 547.156 447.692C543.818 445.537 541.166 442.377 539.201 438.21C537.26 434.02 536.29 428.883 536.29 422.798C536.29 416.548 537.296 411.352 539.308 407.209C541.32 403.042 543.995 399.929 547.334 397.869C550.695 395.786 554.377 394.744 558.378 394.744C561.432 394.744 563.977 395.265 566.013 396.307C568.072 397.325 569.729 398.603 570.984 400.142C572.263 401.657 573.233 403.149 573.896 404.616H574.358V377.273H589.45V450H574.535V441.264H573.896C573.186 442.779 572.18 444.283 570.878 445.774C569.599 447.242 567.93 448.461 565.87 449.432C563.834 450.402 561.349 450.888 558.413 450.888ZM563.207 438.849C565.646 438.849 567.705 438.187 569.386 436.861C571.091 435.511 572.393 433.629 573.292 431.214C574.216 428.8 574.677 425.971 574.677 422.727C574.677 419.484 574.227 416.667 573.328 414.276C572.428 411.884 571.126 410.038 569.422 408.736C567.717 407.434 565.646 406.783 563.207 406.783C560.721 406.783 558.626 407.457 556.922 408.807C555.217 410.156 553.927 412.027 553.051 414.418C552.175 416.809 551.737 419.579 551.737 422.727C551.737 425.9 552.175 428.705 553.051 431.143C553.951 433.558 555.241 435.452 556.922 436.825C558.626 438.175 560.721 438.849 563.207 438.849ZM624.114 451.065C618.503 451.065 613.674 449.929 609.626 447.656C605.601 445.36 602.5 442.116 600.322 437.926C598.144 433.712 597.055 428.729 597.055 422.976C597.055 417.365 598.144 412.441 600.322 408.203C602.5 403.965 605.565 400.663 609.519 398.295C613.496 395.928 618.16 394.744 623.511 394.744C627.109 394.744 630.459 395.324 633.56 396.484C636.685 397.621 639.408 399.337 641.728 401.634C644.072 403.93 645.895 406.818 647.197 410.298C648.499 413.755 649.15 417.803 649.15 422.443V426.598H603.092V417.223H634.91C634.91 415.045 634.436 413.116 633.489 411.435C632.542 409.754 631.228 408.44 629.547 407.493C627.89 406.522 625.961 406.037 623.759 406.037C621.463 406.037 619.427 406.57 617.651 407.635C615.899 408.677 614.526 410.085 613.532 411.861C612.538 413.613 612.029 415.566 612.005 417.72V426.634C612.005 429.332 612.502 431.664 613.496 433.629C614.514 435.594 615.947 437.109 617.793 438.175C619.64 439.24 621.83 439.773 624.363 439.773C626.044 439.773 627.583 439.536 628.979 439.062C630.376 438.589 631.572 437.879 632.566 436.932C633.56 435.985 634.318 434.825 634.839 433.452L648.83 434.375C648.12 437.737 646.664 440.672 644.462 443.182C642.284 445.668 639.467 447.609 636.011 449.006C632.578 450.379 628.612 451.065 624.114 451.065ZM701.774 411.009L687.924 411.861C687.688 410.677 687.179 409.612 686.397 408.665C685.616 407.694 684.586 406.925 683.308 406.357C682.053 405.765 680.55 405.469 678.798 405.469C676.454 405.469 674.477 405.966 672.868 406.96C671.258 407.931 670.453 409.233 670.453 410.866C670.453 412.169 670.974 413.269 672.015 414.169C673.057 415.069 674.844 415.791 677.378 416.335L687.25 418.324C692.553 419.413 696.506 421.165 699.11 423.58C701.715 425.994 703.017 429.167 703.017 433.097C703.017 436.671 701.963 439.808 699.856 442.507C697.773 445.206 694.908 447.313 691.262 448.828C687.64 450.32 683.462 451.065 678.727 451.065C671.506 451.065 665.753 449.562 661.468 446.555C657.207 443.525 654.709 439.406 653.976 434.197L668.855 433.416C669.305 435.618 670.394 437.299 672.122 438.459C673.85 439.595 676.064 440.163 678.762 440.163C681.414 440.163 683.545 439.654 685.155 438.636C686.788 437.595 687.617 436.257 687.64 434.624C687.617 433.25 687.037 432.126 685.9 431.25C684.764 430.35 683.012 429.664 680.645 429.19L671.199 427.308C665.872 426.243 661.906 424.396 659.302 421.768C656.722 419.141 655.432 415.791 655.432 411.719C655.432 408.215 656.378 405.196 658.272 402.663C660.19 400.13 662.877 398.177 666.334 396.804C669.814 395.431 673.886 394.744 678.549 394.744C685.439 394.744 690.86 396.2 694.814 399.112C698.791 402.024 701.111 405.99 701.774 411.009Z" fill="black"/>
<rect x="71" y="498" width="1038" height="19" fill="black"/>
</svg>
