<svg width="1200" height="900" viewBox="0 0 1200 900" fill="none" xmlns="http://www.w3.org/2000/svg">
<rect width="1200" height="900" fill="white"/>
<path d="M968 447.5C968 651.017 803.017 816 599.5 816C395.983 816 231 651.017 231 447.5C231 243.983 395.983 79 599.5 79C803.017 79 968 243.983 968 447.5Z" fill="#1D1D1F"/>
<path d="M933.486 447.5C933.486 631.954 783.954 781.486 599.5 781.486C415.046 781.486 265.514 631.954 265.514 447.5C265.514 263.046 415.046 113.514 599.5 113.514C783.954 113.514 933.486 263.046 933.486 447.5Z" fill="#CCCFD0"/>
<path d="M905.345 447.501C905.345 616.413 768.413 753.345 599.5 753.345C430.588 753.345 293.656 616.413 293.656 447.501C293.656 278.588 430.588 141.656 599.5 141.656C768.413 141.656 905.345 278.588 905.345 447.501Z" fill="#EDEDED"/>
<path d="M600.164 185.198V206.437C666.706 206.615 726.911 233.756 770.428 277.512L785.446 262.493C785.133 262.18 784.82 261.866 784.506 261.553C737.223 214.508 672.095 185.373 600.164 185.198Z" fill="#FFC83F"/>
<path d="M414.493 261.553L429.512 276.572C473.097 233.225 533.17 206.435 599.5 206.435C599.72 206.435 599.943 206.435 600.164 206.437V185.198C599.943 185.195 599.72 185.195 599.5 185.195C599.279 185.195 599.056 185.195 598.836 185.198C526.904 185.376 461.777 214.505 414.493 261.553Z" fill="#D4DE4E"/>
<path d="M337.196 447.5H358.435C358.435 380.695 385.611 320.235 429.512 276.572L414.493 261.554C414.18 261.867 413.867 262.178 413.554 262.494C366.363 309.921 337.196 375.306 337.196 447.5Z" fill="#78C567"/>
<path d="M770.428 277.512C813.774 321.097 840.565 381.17 840.565 447.5H861.804C861.804 375.305 832.637 309.923 785.447 262.493L770.428 277.512Z" fill="#ED7C41"/>
<path d="M704.156 343.784C730.548 370.41 746.847 407.051 746.847 447.501H840.565C840.565 381.171 813.774 321.098 770.428 277.513L704.156 343.784Z" fill="#E95605"/>
<path d="M600.164 206.438V300.155C640.351 300.331 676.736 316.595 703.216 342.844C703.532 343.152 703.848 343.467 704.156 343.783L770.428 277.512C726.911 233.756 666.706 206.615 600.164 206.438Z" fill="#F8BA0E"/>
<path d="M429.512 276.572L495.781 342.841C522.261 316.597 558.649 300.33 598.836 300.155C599.056 300.153 599.279 300.153 599.5 300.153C599.72 300.153 599.943 300.153 600.164 300.155V206.437C599.943 206.435 599.72 206.435 599.5 206.435C533.17 206.435 473.097 233.225 429.512 276.572Z" fill="#C9D81D"/>
<path d="M358.435 447.5H452.153C452.153 407.05 468.452 370.407 494.841 343.781C495.152 343.465 495.465 343.152 495.781 342.841L429.512 276.572C385.611 320.235 358.435 380.695 358.435 447.5Z" fill="#4DB236"/>
<path d="M494.438 257.67C494.438 257.67 617.716 399.24 635.658 430.257C645.566 447.386 639.712 469.305 622.58 479.213C605.45 489.121 583.534 483.265 573.626 466.135C555.684 435.121 494.438 257.67 494.438 257.67Z" fill="#1D1D1F"/>
<path d="M591.138 455.076C595.322 462.311 604.579 464.783 611.814 460.599C619.049 456.415 621.52 447.157 617.336 439.922C613.152 432.688 603.894 430.216 596.66 434.4C589.425 438.584 586.953 447.842 591.138 455.076Z" fill="#EDEDED"/>
<path d="M747.327 477.999V462.726H757.619V465.389H750.556V469.028H757.089V471.69H750.556V475.337H757.648V477.999H747.327ZM762.794 462.726L765.873 467.932H765.993L769.088 462.726H772.734L768.073 470.363L772.839 477.999H769.125L765.993 472.786H765.873L762.741 477.999H759.042L763.823 470.363L759.132 462.726H762.794ZM774.358 477.999V462.726H780.383C781.541 462.726 782.528 462.948 783.344 463.39C784.159 463.828 784.78 464.437 785.208 465.217C785.641 465.993 785.857 466.888 785.857 467.902C785.857 468.916 785.638 469.811 785.201 470.586C784.763 471.362 784.129 471.966 783.299 472.399C782.474 472.831 781.474 473.047 780.301 473.047H776.461V470.46H779.779C780.4 470.46 780.913 470.353 781.315 470.139C781.723 469.92 782.026 469.619 782.225 469.237C782.429 468.849 782.531 468.404 782.531 467.902C782.531 467.395 782.429 466.952 782.225 466.574C782.026 466.191 781.723 465.896 781.315 465.687C780.908 465.473 780.391 465.366 779.764 465.366H777.587V477.999H774.358ZM787.534 477.999V462.726H797.825V465.389H790.763V469.028H797.296V471.69H790.763V475.337H797.855V477.999H787.534ZM812.747 462.726V477.999H809.958L803.314 468.386H803.202V477.999H799.973V462.726H802.806L809.399 472.331H809.533V462.726H812.747ZM823.28 467.119C823.22 466.517 822.964 466.05 822.512 465.717C822.06 465.384 821.446 465.217 820.67 465.217C820.143 465.217 819.698 465.292 819.335 465.441C818.972 465.585 818.694 465.786 818.5 466.045C818.311 466.303 818.217 466.597 818.217 466.925C818.207 467.198 818.264 467.437 818.388 467.641C818.517 467.845 818.694 468.021 818.918 468.17C819.141 468.314 819.4 468.441 819.693 468.551C819.986 468.655 820.3 468.744 820.633 468.819L822.005 469.147C822.671 469.296 823.283 469.495 823.839 469.744C824.396 469.992 824.879 470.298 825.286 470.661C825.694 471.024 826.01 471.451 826.233 471.944C826.462 472.436 826.579 473 826.584 473.636C826.579 474.571 826.34 475.381 825.868 476.068C825.401 476.749 824.724 477.278 823.839 477.656C822.959 478.029 821.898 478.215 820.655 478.215C819.422 478.215 818.348 478.026 817.434 477.649C816.524 477.271 815.813 476.711 815.301 475.971C814.794 475.225 814.528 474.303 814.503 473.204H817.627C817.662 473.716 817.809 474.144 818.067 474.487C818.331 474.825 818.681 475.081 819.119 475.255C819.561 475.424 820.061 475.508 820.618 475.508C821.165 475.508 821.64 475.429 822.042 475.27C822.45 475.111 822.766 474.889 822.989 474.606C823.213 474.323 823.325 473.997 823.325 473.629C823.325 473.286 823.223 472.998 823.019 472.764C822.82 472.53 822.527 472.331 822.139 472.167C821.756 472.003 821.287 471.854 820.73 471.72L819.067 471.302C817.779 470.989 816.762 470.499 816.017 469.833C815.271 469.167 814.901 468.27 814.905 467.141C814.901 466.216 815.147 465.408 815.644 464.717C816.146 464.026 816.834 463.487 817.709 463.099C818.584 462.711 819.579 462.517 820.692 462.517C821.826 462.517 822.815 462.711 823.66 463.099C824.511 463.487 825.172 464.026 825.644 464.717C826.116 465.408 826.36 466.209 826.375 467.119H823.28ZM831.565 462.726V477.999H828.336V462.726H831.565ZM836.561 462.726L840.252 474.33H840.394L844.093 462.726H847.672L842.407 477.999H838.246L832.974 462.726H836.561ZM849.09 477.999V462.726H859.382V465.389H852.32V469.028H858.852V471.69H852.32V475.337H859.411V477.999H849.09Z" fill="black"/>
<path d="M751.207 483.546V501.001H747.517V483.546H751.207ZM763.232 488.566C763.164 487.879 762.872 487.345 762.355 486.964C761.837 486.583 761.136 486.393 760.249 486.393C759.647 486.393 759.139 486.478 758.724 486.649C758.309 486.813 757.991 487.044 757.769 487.339C757.553 487.635 757.445 487.97 757.445 488.345C757.434 488.657 757.499 488.93 757.641 489.163C757.789 489.396 757.991 489.598 758.247 489.768C758.502 489.933 758.798 490.078 759.133 490.203C759.468 490.322 759.826 490.424 760.207 490.509L761.775 490.884C762.536 491.055 763.235 491.282 763.872 491.566C764.508 491.85 765.059 492.2 765.525 492.615C765.991 493.029 766.352 493.518 766.607 494.081C766.869 494.643 767.002 495.288 767.008 496.015C767.002 497.083 766.73 498.009 766.19 498.794C765.656 499.572 764.883 500.177 763.872 500.609C762.866 501.035 761.653 501.248 760.232 501.248C758.823 501.248 757.596 501.032 756.551 500.6C755.511 500.169 754.698 499.529 754.113 498.683C753.533 497.831 753.23 496.777 753.201 495.521H756.772C756.812 496.106 756.98 496.595 757.275 496.987C757.576 497.373 757.977 497.666 758.477 497.865C758.982 498.058 759.553 498.154 760.19 498.154C760.815 498.154 761.357 498.063 761.818 497.882C762.283 497.7 762.644 497.447 762.9 497.123C763.156 496.799 763.283 496.427 763.283 496.007C763.283 495.615 763.167 495.285 762.934 495.018C762.707 494.751 762.372 494.524 761.928 494.336C761.491 494.149 760.954 493.978 760.318 493.825L758.417 493.348C756.945 492.99 755.783 492.43 754.931 491.669C754.079 490.907 753.656 489.882 753.661 488.592C753.656 487.535 753.937 486.612 754.505 485.822C755.079 485.032 755.866 484.416 756.866 483.973C757.866 483.529 759.002 483.308 760.275 483.308C761.57 483.308 762.701 483.529 763.667 483.973C764.639 484.416 765.394 485.032 765.934 485.822C766.474 486.612 766.752 487.527 766.769 488.566H763.232ZM785.05 492.274C785.05 494.177 784.689 495.796 783.968 497.132C783.252 498.467 782.274 499.487 781.036 500.191C779.803 500.89 778.416 501.24 776.877 501.24C775.326 501.24 773.933 500.887 772.701 500.183C771.468 499.478 770.493 498.458 769.777 497.123C769.061 495.788 768.703 494.171 768.703 492.274C768.703 490.37 769.061 488.751 769.777 487.416C770.493 486.081 771.468 485.063 772.701 484.365C773.933 483.66 775.326 483.308 776.877 483.308C778.416 483.308 779.803 483.66 781.036 484.365C782.274 485.063 783.252 486.081 783.968 487.416C784.689 488.751 785.05 490.37 785.05 492.274ZM781.308 492.274C781.308 491.041 781.124 490.001 780.754 489.154C780.391 488.308 779.877 487.666 779.212 487.228C778.547 486.791 777.769 486.572 776.877 486.572C775.985 486.572 775.206 486.791 774.541 487.228C773.877 487.666 773.36 488.308 772.99 489.154C772.627 490.001 772.445 491.041 772.445 492.274C772.445 493.507 772.627 494.546 772.99 495.393C773.36 496.24 773.877 496.882 774.541 497.319C775.206 497.757 775.985 497.975 776.877 497.975C777.769 497.975 778.547 497.757 779.212 497.319C779.877 496.882 780.391 496.24 780.754 495.393C781.124 494.546 781.308 493.507 781.308 492.274ZM787.304 501.001V483.546H790.994V497.958H798.477V501.001H787.304ZM803.895 501.001H799.94L805.966 483.546H810.721L816.738 501.001H812.784L808.412 487.535H808.275L803.895 501.001ZM803.647 494.14H812.988V497.021H803.647V494.14ZM815.562 486.589V483.546H829.897V486.589H824.553V501.001H820.905V486.589H815.562ZM831.778 501.001V483.546H843.539V486.589H835.468V490.748H842.934V493.791H835.468V497.958H843.573V501.001H831.778ZM852.18 501.001H845.993V483.546H852.232C853.987 483.546 855.499 483.896 856.766 484.595C858.033 485.288 859.007 486.285 859.689 487.586C860.376 488.887 860.72 490.444 860.72 492.257C860.72 494.075 860.376 495.637 859.689 496.944C859.007 498.251 858.027 499.254 856.749 499.953C855.476 500.652 853.953 501.001 852.18 501.001ZM849.683 497.839H852.027C853.118 497.839 854.036 497.646 854.78 497.259C855.53 496.867 856.092 496.262 856.467 495.444C856.848 494.62 857.038 493.558 857.038 492.257C857.038 490.967 856.848 489.913 856.467 489.095C856.092 488.277 855.533 487.674 854.788 487.288C854.044 486.902 853.126 486.708 852.036 486.708H849.683V497.839Z" fill="black"/>
<path d="M360.967 464.929H355.678C355.582 464.245 355.384 463.637 355.087 463.106C354.789 462.566 354.406 462.107 353.94 461.729C353.473 461.351 352.933 461.061 352.322 460.86C351.718 460.659 351.062 460.558 350.354 460.558C349.074 460.558 347.959 460.876 347.009 461.512C346.059 462.14 345.323 463.057 344.8 464.265C344.277 465.464 344.015 466.921 344.015 468.635C344.015 470.398 344.277 471.879 344.8 473.079C345.331 474.278 346.071 475.183 347.021 475.795C347.971 476.407 349.07 476.713 350.317 476.713C351.018 476.713 351.666 476.62 352.261 476.435C352.865 476.25 353.4 475.98 353.867 475.626C354.334 475.264 354.72 474.825 355.026 474.31C355.34 473.795 355.558 473.207 355.678 472.547L360.967 472.571C360.83 473.706 360.488 474.801 359.94 475.856C359.401 476.902 358.673 477.84 357.755 478.669C356.845 479.49 355.759 480.142 354.495 480.625C353.239 481.1 351.819 481.337 350.233 481.337C348.027 481.337 346.055 480.838 344.317 479.84C342.586 478.842 341.218 477.397 340.212 475.505C339.214 473.614 338.714 471.324 338.714 468.635C338.714 465.939 339.222 463.645 340.236 461.753C341.25 459.862 342.626 458.421 344.365 457.431C346.104 456.433 348.06 455.934 350.233 455.934C351.666 455.934 352.994 456.135 354.217 456.537C355.449 456.94 356.54 457.527 357.489 458.3C358.439 459.065 359.212 460.003 359.808 461.113C360.411 462.224 360.798 463.496 360.967 464.929ZM364.036 480.999V456.272H369.264V466.474H379.876V456.272H385.092V480.999H379.876V470.785H369.264V480.999H364.036ZM388.723 480.999V456.272H405.385V460.582H393.951V466.474H404.527V470.785H393.951V476.689H405.433V480.999H388.723ZM413.123 480.999H407.521L416.057 456.272H422.794L431.318 480.999H425.716L419.522 461.922H419.329L413.123 480.999ZM412.773 471.28H426.006V475.361H412.773V471.28ZM433.615 480.999V456.272H443.37C445.246 456.272 446.844 456.63 448.164 457.346C449.484 458.055 450.49 459.041 451.182 460.304C451.882 461.56 452.233 463.009 452.233 464.651C452.233 466.293 451.878 467.742 451.17 468.998C450.462 470.253 449.435 471.231 448.091 471.932C446.755 472.632 445.137 472.982 443.238 472.982H437.02V468.792H442.392C443.399 468.792 444.228 468.619 444.88 468.273C445.54 467.919 446.031 467.432 446.353 466.812C446.683 466.184 446.848 465.464 446.848 464.651C446.848 463.83 446.683 463.114 446.353 462.502C446.031 461.882 445.54 461.403 444.88 461.065C444.22 460.719 443.382 460.546 442.368 460.546H438.843V480.999H433.615Z" fill="black"/>
<path d="M350.817 492.494C350.737 491.692 350.396 491.069 349.793 490.625C349.189 490.18 348.371 489.958 347.337 489.958C346.634 489.958 346.041 490.058 345.557 490.257C345.073 490.449 344.702 490.717 344.443 491.062C344.191 491.407 344.065 491.798 344.065 492.235C344.052 492.6 344.128 492.918 344.294 493.19C344.466 493.462 344.702 493.697 345 493.896C345.298 494.088 345.643 494.257 346.034 494.403C346.425 494.542 346.843 494.661 347.287 494.761L349.116 495.198C350.005 495.397 350.82 495.662 351.562 495.994C352.305 496.325 352.948 496.733 353.491 497.217C354.035 497.701 354.456 498.271 354.754 498.927C355.059 499.583 355.215 500.336 355.222 501.184C355.215 502.43 354.897 503.511 354.267 504.426C353.644 505.334 352.742 506.04 351.562 506.544C350.389 507.041 348.974 507.289 347.317 507.289C345.673 507.289 344.241 507.037 343.021 506.534C341.808 506.03 340.86 505.284 340.178 504.296C339.501 503.302 339.147 502.072 339.114 500.608H343.28C343.326 501.29 343.522 501.86 343.866 502.318C344.218 502.768 344.685 503.11 345.268 503.342C345.858 503.567 346.525 503.68 347.267 503.68C347.996 503.68 348.629 503.574 349.166 503.362C349.71 503.15 350.131 502.855 350.429 502.477C350.727 502.099 350.876 501.665 350.876 501.174C350.876 500.717 350.741 500.332 350.469 500.021C350.204 499.709 349.812 499.444 349.295 499.225C348.785 499.007 348.159 498.808 347.416 498.629L345.199 498.072C343.482 497.654 342.126 497.001 341.132 496.113C340.138 495.225 339.644 494.028 339.651 492.524C339.644 491.291 339.972 490.214 340.635 489.292C341.304 488.371 342.223 487.652 343.389 487.135C344.556 486.617 345.882 486.359 347.366 486.359C348.878 486.359 350.197 486.617 351.324 487.135C352.457 487.652 353.339 488.371 353.969 489.292C354.598 490.214 354.923 491.281 354.943 492.494H350.817ZM357.558 507.001V486.637H361.863V495.039H370.603V486.637H374.898V507.001H370.603V498.589H361.863V507.001H357.558ZM381.398 507.001H376.784L383.814 486.637H389.363L396.382 507.001H391.769L386.668 491.291H386.509L381.398 507.001ZM381.11 498.997H392.007V502.358H381.11V498.997ZM398.273 507.001V486.637H406.308C407.845 486.637 409.158 486.912 410.245 487.463C411.339 488.006 412.171 488.778 412.741 489.779C413.318 490.774 413.606 491.944 413.606 493.289C413.606 494.642 413.314 495.805 412.731 496.779C412.148 497.747 411.302 498.49 410.195 499.007C409.095 499.524 407.763 499.782 406.198 499.782H400.819V496.322H405.502C406.324 496.322 407.007 496.209 407.55 495.984C408.094 495.759 408.498 495.42 408.764 494.97C409.035 494.519 409.171 493.959 409.171 493.289C409.171 492.613 409.035 492.043 408.764 491.579C408.498 491.115 408.091 490.764 407.541 490.525C406.997 490.28 406.311 490.157 405.482 490.157H402.579V507.001H398.273ZM409.271 497.734L414.332 507.001H409.579L404.627 497.734H409.271ZM416.088 507.001V486.637H429.81V490.187H420.394V495.039H429.104V498.589H420.394V503.451H429.85V507.001H416.088ZM439.892 507.001H432.673V486.637H439.951C442 486.637 443.763 487.045 445.241 487.86C446.719 488.669 447.856 489.832 448.652 491.35C449.454 492.868 449.855 494.685 449.855 496.799C449.855 498.92 449.454 500.743 448.652 502.268C447.856 503.793 446.713 504.963 445.221 505.778C443.736 506.593 441.96 507.001 439.892 507.001ZM436.978 503.312H439.713C440.986 503.312 442.056 503.087 442.924 502.636C443.799 502.179 444.456 501.473 444.893 500.518C445.337 499.557 445.559 498.317 445.559 496.799C445.559 495.295 445.337 494.065 444.893 493.11C444.456 492.156 443.803 491.453 442.934 491.002C442.066 490.552 440.995 490.326 439.723 490.326H436.978V503.312Z" fill="black"/>
<path d="M389.771 581.274H401.961L408.126 606.49H408.603L423.12 581.274H435.311L428.549 622.001H418.964L423.12 596.984H422.782L408.901 621.742H402.796L397.149 596.845H396.811L392.595 622.001H383.009L389.771 581.274ZM462.73 581.274H472.554L468.198 607.544C467.695 610.58 466.535 613.224 464.718 615.478C462.915 617.719 460.615 619.456 457.818 620.688C455.02 621.908 451.905 622.518 448.471 622.518C445.024 622.518 442.114 621.908 439.741 620.688C437.368 619.456 435.651 617.719 434.59 615.478C433.53 613.224 433.245 610.58 433.735 607.544L438.09 581.274H447.934L443.698 606.688C443.473 608.094 443.579 609.347 444.017 610.447C444.467 611.534 445.197 612.396 446.204 613.032C447.212 613.655 448.445 613.967 449.903 613.967C451.375 613.967 452.72 613.655 453.94 613.032C455.16 612.396 456.167 611.534 456.963 610.447C457.758 609.347 458.269 608.094 458.494 606.688L462.73 581.274ZM468.602 622.001L475.363 581.274H485.207L479.798 614.007H496.741L495.389 622.001H468.602ZM496.225 589.268L497.577 581.274H532L530.648 589.268H518.299L512.89 622.001H503.185L508.594 589.268H496.225ZM543.292 581.274L536.53 622.001H526.687L533.448 581.274H543.292ZM562.876 597.899L561.663 605.376H542.83L544.043 597.899H562.876ZM565.661 589.268L567.013 581.274H601.436L600.084 589.268H587.734L582.325 622.001H572.621L578.03 589.268H565.661ZM596.122 622.001L602.884 581.274H631.281L629.929 589.268H611.375L610.023 597.62H627.125L625.773 605.634H608.671L607.318 614.007H625.872L624.52 622.001H596.122ZM668.748 581.274L661.987 622.001H653.634L641.365 598.495H641.086L637.168 622.001H627.325L634.086 581.274H642.558L654.728 604.74H655.066L658.924 581.274H668.748ZM673.626 622.001H663.046L683.549 581.274H696.654L703.634 622.001H693.055L688.58 591.535H688.262L673.626 622.001ZM674.899 605.973H697.012L695.74 613.45H673.626L674.899 605.973ZM746.083 581.274L739.321 622.001H730.969L718.699 598.495H718.421L714.503 622.001H704.659L711.421 581.274H719.892L732.063 604.74H732.401L736.259 581.274H746.083ZM783.395 596.029H773.571C773.624 594.995 773.525 594.074 773.273 593.265C773.021 592.443 772.624 591.741 772.08 591.157C771.536 590.561 770.86 590.11 770.052 589.805C769.243 589.5 768.302 589.348 767.228 589.348C765.173 589.348 763.31 589.858 761.64 590.879C759.969 591.9 758.571 593.371 757.444 595.294C756.317 597.216 755.528 599.523 755.077 602.214C754.666 604.813 754.673 606.98 755.097 608.717C755.535 610.454 756.343 611.759 757.523 612.634C758.703 613.496 760.201 613.927 762.017 613.927C763.197 613.927 764.291 613.788 765.299 613.509C766.32 613.218 767.241 612.8 768.063 612.257C768.885 611.713 769.594 611.057 770.191 610.288C770.801 609.506 771.271 608.637 771.603 607.683H781.506C781.016 609.473 780.207 611.256 779.08 613.032C777.966 614.795 776.561 616.393 774.864 617.825C773.167 619.257 771.198 620.403 768.958 621.265C766.717 622.127 764.225 622.558 761.481 622.558C757.729 622.558 754.494 621.716 751.776 620.032C749.071 618.349 747.116 615.909 745.91 612.714C744.716 609.506 744.491 605.621 745.233 601.061C745.963 596.646 747.401 592.927 749.549 589.904C751.71 586.882 754.335 584.595 757.424 583.044C760.526 581.492 763.834 580.717 767.347 580.717C769.892 580.717 772.179 581.062 774.208 581.751C776.249 582.427 777.98 583.421 779.398 584.734C780.817 586.033 781.871 587.631 782.56 589.527C783.263 591.422 783.541 593.59 783.395 596.029ZM786.125 581.274H797.123L802.89 598.316H803.307L814.702 581.274H825.699L806.31 608.399L804.043 622.001H794.259L796.546 608.399L786.125 581.274Z" fill="black"/>
</svg>
