<svg width="1200" height="900" viewBox="0 0 1200 900" fill="none" xmlns="http://www.w3.org/2000/svg">
<rect width="1200" height="900" fill="white"/>
<rect x="71" y="159" width="1038" height="8" fill="black"/>
<path d="M98.5913 114.545L89.3425 141H81.0755L71.8267 114.545H79.5771L85.0712 133.474H85.3468L90.8237 114.545H98.5913ZM132.061 118.076H124.517C124.38 117.1 124.098 116.233 123.673 115.475C123.249 114.706 122.703 114.052 122.037 113.512C121.371 112.972 120.602 112.559 119.729 112.272C118.868 111.985 117.932 111.841 116.922 111.841C115.096 111.841 113.506 112.295 112.151 113.202C110.796 114.098 109.746 115.407 108.999 117.129C108.253 118.84 107.88 120.918 107.88 123.364C107.88 125.878 108.253 127.991 108.999 129.702C109.757 131.413 110.814 132.704 112.168 133.577C113.523 134.45 115.091 134.886 116.87 134.886C117.869 134.886 118.794 134.754 119.643 134.49C120.504 134.226 121.268 133.841 121.934 133.336C122.6 132.819 123.151 132.193 123.587 131.458C124.035 130.724 124.345 129.885 124.517 128.944L132.061 128.978C131.866 130.597 131.378 132.159 130.597 133.663C129.828 135.156 128.789 136.493 127.48 137.676C126.182 138.847 124.632 139.777 122.83 140.466C121.038 141.144 119.012 141.482 116.75 141.482C113.604 141.482 110.791 140.77 108.311 139.347C105.842 137.923 103.89 135.862 102.455 133.164C101.031 130.465 100.319 127.199 100.319 123.364C100.319 119.517 101.042 116.245 102.489 113.547C103.936 110.848 105.899 108.793 108.379 107.381C110.86 105.957 113.65 105.245 116.75 105.245C118.794 105.245 120.688 105.532 122.433 106.106C124.19 106.68 125.746 107.518 127.101 108.621C128.456 109.712 129.558 111.049 130.408 112.634C131.269 114.218 131.82 116.032 132.061 118.076ZM143.063 105.727V141H135.726V105.727H143.063ZM164.361 129.736V114.545H171.698V141H164.654V136.195H164.378C163.781 137.745 162.788 138.991 161.399 139.932C160.021 140.874 158.339 141.344 156.352 141.344C154.584 141.344 153.028 140.943 151.685 140.139C150.341 139.335 149.291 138.193 148.533 136.711C147.787 135.23 147.408 133.456 147.396 131.39V114.545H154.733V130.081C154.745 131.642 155.164 132.876 155.99 133.784C156.817 134.691 157.925 135.144 159.315 135.144C160.199 135.144 161.025 134.943 161.795 134.541C162.564 134.128 163.184 133.519 163.655 132.716C164.137 131.912 164.372 130.919 164.361 129.736ZM198.033 122.089L191.316 122.502C191.201 121.928 190.954 121.412 190.575 120.952C190.197 120.482 189.697 120.108 189.077 119.833C188.469 119.546 187.739 119.402 186.89 119.402C185.753 119.402 184.794 119.643 184.014 120.126C183.233 120.596 182.842 121.228 182.842 122.02C182.842 122.652 183.095 123.186 183.6 123.622C184.105 124.058 184.972 124.408 186.201 124.673L190.989 125.637C193.561 126.165 195.478 127.015 196.741 128.186C198.004 129.357 198.636 130.896 198.636 132.802C198.636 134.536 198.125 136.057 197.103 137.366C196.093 138.675 194.703 139.697 192.935 140.432C191.178 141.155 189.152 141.517 186.855 141.517C183.353 141.517 180.563 140.788 178.485 139.329C176.418 137.86 175.207 135.862 174.851 133.336L182.067 132.957C182.285 134.025 182.814 134.84 183.652 135.403C184.49 135.954 185.564 136.229 186.873 136.229C188.159 136.229 189.192 135.982 189.973 135.489C190.765 134.983 191.167 134.335 191.178 133.542C191.167 132.876 190.885 132.331 190.334 131.906C189.783 131.47 188.934 131.137 187.785 130.907L183.204 129.994C180.621 129.478 178.697 128.582 177.434 127.308C176.183 126.033 175.557 124.408 175.557 122.434C175.557 120.734 176.016 119.27 176.935 118.042C177.865 116.813 179.168 115.866 180.844 115.2C182.532 114.534 184.507 114.201 186.769 114.201C190.11 114.201 192.74 114.907 194.657 116.319C196.586 117.732 197.712 119.655 198.033 122.089ZM215.783 114.545V120.057H199.851V114.545H215.783ZM203.468 108.207H210.805V132.871C210.805 133.548 210.908 134.076 211.115 134.455C211.322 134.823 211.609 135.081 211.976 135.23C212.355 135.38 212.791 135.454 213.285 135.454C213.63 135.454 213.974 135.425 214.319 135.368C214.663 135.299 214.927 135.248 215.111 135.213L216.265 140.673C215.897 140.788 215.381 140.92 214.715 141.069C214.049 141.23 213.239 141.327 212.286 141.362C210.518 141.431 208.968 141.195 207.636 140.656C206.316 140.116 205.288 139.278 204.553 138.141C203.818 137.004 203.457 135.569 203.468 133.835V108.207ZM230.789 141.517C228.068 141.517 225.726 140.966 223.762 139.863C221.81 138.75 220.306 137.176 219.25 135.144C218.193 133.1 217.665 130.683 217.665 127.893C217.665 125.172 218.193 122.784 219.25 120.729C220.306 118.673 221.793 117.071 223.711 115.923C225.64 114.775 227.902 114.201 230.496 114.201C232.242 114.201 233.866 114.482 235.371 115.045C236.886 115.596 238.207 116.429 239.332 117.542C240.469 118.656 241.353 120.057 241.984 121.745C242.616 123.421 242.931 125.384 242.931 127.635V129.65H220.593V125.103H236.025C236.025 124.047 235.795 123.111 235.336 122.296C234.877 121.481 234.24 120.843 233.424 120.384C232.621 119.913 231.685 119.678 230.617 119.678C229.503 119.678 228.516 119.936 227.655 120.453C226.805 120.958 226.139 121.641 225.657 122.502C225.175 123.352 224.928 124.299 224.916 125.344V129.667C224.916 130.976 225.157 132.107 225.64 133.06C226.133 134.013 226.828 134.748 227.724 135.265C228.619 135.781 229.681 136.04 230.91 136.04C231.725 136.04 232.471 135.925 233.149 135.695C233.826 135.466 234.406 135.121 234.888 134.662C235.371 134.203 235.738 133.64 235.991 132.974L242.776 133.422C242.432 135.052 241.726 136.476 240.658 137.693C239.602 138.899 238.235 139.84 236.559 140.518C234.894 141.184 232.971 141.517 230.789 141.517ZM246.175 141V114.545H253.288V119.161H253.564C254.046 117.519 254.855 116.279 255.992 115.441C257.129 114.591 258.438 114.167 259.919 114.167C260.286 114.167 260.682 114.19 261.107 114.235C261.532 114.281 261.905 114.345 262.227 114.425V120.935C261.882 120.832 261.406 120.74 260.797 120.66C260.189 120.579 259.632 120.539 259.127 120.539C258.047 120.539 257.083 120.774 256.233 121.245C255.395 121.704 254.729 122.347 254.235 123.174C253.753 124.001 253.512 124.954 253.512 126.033V141H246.175Z" fill="black"/>
<path d="M76.3584 323.325V315.858C76.3584 313.738 76.7732 311.571 77.6029 309.359C78.4326 307.146 79.5273 305.06 80.8871 303.101C82.2469 301.142 83.7219 299.506 85.3121 298.192L91.8113 302.03C90.5207 304.058 89.4605 306.178 88.6309 308.391C87.8242 310.603 87.4209 313.069 87.4209 315.789V323.325H76.3584ZM93.8164 323.325V315.858C93.8164 313.738 94.2312 311.571 95.0609 309.359C95.8906 307.146 96.9854 305.06 98.3451 303.101C99.7049 301.142 101.18 299.506 102.77 298.192L109.269 302.03C107.979 304.058 106.919 306.178 106.089 308.391C105.282 310.603 104.879 313.069 104.879 315.789V323.325H93.8164ZM174.342 301.2V372H161.412L130.61 327.439H130.092V372H115.123V301.2H128.259L158.82 345.727H159.442V301.2H174.342ZM207.532 373.037C202.069 373.037 197.368 371.931 193.427 369.718C189.509 367.483 186.49 364.325 184.369 360.246C182.249 356.144 181.189 351.292 181.189 345.692C181.189 340.23 182.249 335.436 184.369 331.311C186.49 327.185 189.474 323.97 193.323 321.666C197.195 319.361 201.735 318.209 206.944 318.209C210.447 318.209 213.708 318.773 216.727 319.903C219.769 321.009 222.42 322.68 224.678 324.915C226.96 327.151 228.735 329.963 230.002 333.35C231.27 336.715 231.904 340.656 231.904 345.173V349.218H187.066V340.092H218.041C218.041 337.971 217.58 336.093 216.658 334.457C215.736 332.82 214.457 331.541 212.821 330.619C211.208 329.674 209.329 329.202 207.186 329.202C204.95 329.202 202.968 329.721 201.24 330.758C199.534 331.772 198.198 333.143 197.23 334.871C196.262 336.577 195.766 338.478 195.743 340.576V349.253C195.743 351.88 196.227 354.15 197.195 356.063C198.186 357.976 199.58 359.451 201.378 360.488C203.176 361.525 205.308 362.044 207.774 362.044C209.41 362.044 210.908 361.813 212.268 361.352C213.627 360.891 214.791 360.2 215.759 359.278C216.727 358.356 217.465 357.227 217.972 355.89L231.592 356.789C230.901 360.062 229.484 362.92 227.34 365.362C225.22 367.782 222.477 369.672 219.113 371.032C215.771 372.369 211.91 373.037 207.532 373.037ZM282.595 334.042L269.112 334.871C268.882 333.719 268.386 332.682 267.626 331.76C266.865 330.815 265.863 330.066 264.618 329.513C263.397 328.937 261.933 328.649 260.228 328.649C257.946 328.649 256.022 329.133 254.454 330.101C252.887 331.046 252.104 332.313 252.104 333.904C252.104 335.171 252.611 336.243 253.625 337.119C254.639 337.994 256.379 338.697 258.845 339.227L268.455 341.163C273.618 342.223 277.467 343.929 280.002 346.28C282.537 348.63 283.805 351.719 283.805 355.545C283.805 359.025 282.779 362.078 280.728 364.706C278.7 367.333 275.911 369.384 272.362 370.859C268.836 372.311 264.768 373.037 260.159 373.037C253.129 373.037 247.529 371.574 243.357 368.647C239.209 365.697 236.778 361.687 236.063 356.616L250.548 355.856C250.986 357.999 252.046 359.635 253.728 360.765C255.411 361.871 257.566 362.424 260.193 362.424C262.774 362.424 264.849 361.929 266.416 360.937C268.006 359.923 268.813 358.621 268.836 357.031C268.813 355.694 268.248 354.6 267.142 353.747C266.036 352.871 264.33 352.203 262.025 351.742L252.83 349.91C247.644 348.872 243.784 347.075 241.249 344.517C238.736 341.958 237.48 338.697 237.48 334.733C237.48 331.322 238.402 328.384 240.246 325.918C242.113 323.452 244.729 321.55 248.094 320.214C251.481 318.877 255.445 318.209 259.986 318.209C266.692 318.209 271.97 319.626 275.819 322.461C279.691 325.296 281.949 329.156 282.595 334.042ZM318.222 318.9V329.963H286.244V318.9H318.222ZM293.504 306.178H308.231V355.683C308.231 357.043 308.438 358.103 308.853 358.863C309.268 359.601 309.844 360.119 310.582 360.419C311.342 360.719 312.218 360.868 313.209 360.868C313.9 360.868 314.592 360.811 315.283 360.696C315.975 360.557 316.505 360.454 316.874 360.384L319.19 371.343C318.452 371.574 317.415 371.839 316.078 372.138C314.742 372.461 313.117 372.657 311.204 372.726C307.655 372.864 304.543 372.392 301.87 371.309C299.22 370.225 297.157 368.543 295.682 366.261C294.207 363.98 293.481 361.099 293.504 357.619V306.178ZM348.344 373.037C342.881 373.037 338.18 371.931 334.239 369.718C330.321 367.483 327.302 364.325 325.181 360.246C323.061 356.144 322.001 351.292 322.001 345.692C322.001 340.23 323.061 335.436 325.181 331.311C327.302 327.185 330.286 323.97 334.135 321.666C338.007 319.361 342.547 318.209 347.756 318.209C351.259 318.209 354.52 318.773 357.539 319.903C360.581 321.009 363.232 322.68 365.49 324.915C367.772 327.151 369.547 329.963 370.814 333.35C372.082 336.715 372.716 340.656 372.716 345.173V349.218H327.878V340.092H358.853C358.853 337.971 358.392 336.093 357.47 334.457C356.548 332.82 355.269 331.541 353.633 330.619C352.019 329.674 350.141 329.202 347.998 329.202C345.762 329.202 343.78 329.721 342.052 330.758C340.346 331.772 339.01 333.143 338.042 334.871C337.074 336.577 336.578 338.478 336.555 340.576V349.253C336.555 351.88 337.039 354.15 338.007 356.063C338.998 357.976 340.392 359.451 342.19 360.488C343.988 361.525 346.119 362.044 348.586 362.044C350.222 362.044 351.72 361.813 353.08 361.352C354.439 360.891 355.603 360.2 356.571 359.278C357.539 358.356 358.277 357.227 358.784 355.89L372.404 356.789C371.713 360.062 370.296 362.92 368.152 365.362C366.032 367.782 363.289 369.672 359.925 371.032C356.583 372.369 352.722 373.037 348.344 373.037ZM398.793 372.864C394.759 372.864 391.106 371.827 387.834 369.753C384.584 367.656 382.003 364.579 380.09 360.523C378.2 356.443 377.255 351.442 377.255 345.519C377.255 339.435 378.235 334.376 380.194 330.343C382.153 326.287 384.757 323.256 388.007 321.251C391.279 319.223 394.863 318.209 398.758 318.209C401.731 318.209 404.209 318.716 406.191 319.73C408.196 320.721 409.809 321.965 411.03 323.463C412.275 324.938 413.22 326.39 413.865 327.819H414.315V301.2H429.007V372H414.488V363.496H413.865C413.174 364.971 412.194 366.434 410.927 367.886C409.682 369.315 408.057 370.502 406.052 371.447C404.07 372.392 401.65 372.864 398.793 372.864ZM403.46 361.145C405.833 361.145 407.838 360.5 409.475 359.209C411.134 357.895 412.402 356.063 413.278 353.712C414.176 351.362 414.626 348.607 414.626 345.45C414.626 342.293 414.188 339.55 413.312 337.222C412.436 334.895 411.169 333.097 409.509 331.829C407.85 330.562 405.833 329.928 403.46 329.928C401.04 329.928 399 330.585 397.341 331.898C395.681 333.212 394.425 335.033 393.572 337.361C392.72 339.688 392.293 342.385 392.293 345.45C392.293 348.538 392.72 351.269 393.572 353.643C394.448 355.994 395.704 357.838 397.341 359.174C399 360.488 401.04 361.145 403.46 361.145ZM450.357 301.2V308.667C450.357 310.787 449.942 312.954 449.112 315.166C448.305 317.356 447.222 319.43 445.862 321.389C444.503 323.325 443.016 324.973 441.403 326.333L434.904 322.495C436.056 320.675 437.07 318.658 437.946 316.446C438.845 314.233 439.294 311.663 439.294 308.736V301.2H450.357ZM467.745 301.2V308.667C467.745 310.787 467.331 312.954 466.501 315.166C465.694 317.356 464.611 319.43 463.251 321.389C461.892 323.325 460.393 324.973 458.757 326.333L452.258 322.495C453.433 320.675 454.459 318.658 455.335 316.446C456.234 314.233 456.683 311.663 456.683 308.736V301.2H467.745ZM519.312 373.037C513.873 373.037 509.194 371.885 505.276 369.58C501.381 367.252 498.385 364.026 496.288 359.9C494.214 355.775 493.177 351.027 493.177 345.657C493.177 340.218 494.225 335.448 496.323 331.345C498.443 327.22 501.45 324.005 505.345 321.7C509.24 319.372 513.873 318.209 519.243 318.209C523.875 318.209 527.931 319.05 531.411 320.732C534.891 322.415 537.646 324.777 539.674 327.819C541.702 330.861 542.82 334.434 543.027 338.536H529.13C528.738 335.886 527.701 333.754 526.018 332.14C524.359 330.504 522.181 329.686 519.485 329.686C517.203 329.686 515.209 330.308 513.504 331.553C511.822 332.774 510.508 334.56 509.563 336.911C508.618 339.262 508.146 342.108 508.146 345.45C508.146 348.838 508.607 351.719 509.528 354.093C510.473 356.466 511.799 358.276 513.504 359.52C515.209 360.765 517.203 361.387 519.485 361.387C521.167 361.387 522.677 361.041 524.013 360.35C525.373 359.658 526.491 358.656 527.367 357.342C528.266 356.005 528.853 354.404 529.13 352.537H543.027C542.797 356.593 541.69 360.165 539.708 363.254C537.749 366.319 535.041 368.716 531.584 370.444C528.127 372.173 524.036 373.037 519.312 373.037ZM573.348 373.037C567.978 373.037 563.334 371.896 559.416 369.615C555.521 367.31 552.513 364.106 550.393 360.004C548.273 355.879 547.212 351.096 547.212 345.657C547.212 340.172 548.273 335.379 550.393 331.276C552.513 327.151 555.521 323.947 559.416 321.666C563.334 319.361 567.978 318.209 573.348 318.209C578.717 318.209 583.35 319.361 587.245 321.666C591.163 323.947 594.182 327.151 596.302 331.276C598.423 335.379 599.483 340.172 599.483 345.657C599.483 351.096 598.423 355.879 596.302 360.004C594.182 364.106 591.163 367.31 587.245 369.615C583.35 371.896 578.717 373.037 573.348 373.037ZM573.417 361.629C575.86 361.629 577.899 360.938 579.536 359.555C581.172 358.149 582.405 356.236 583.235 353.816C584.087 351.396 584.514 348.642 584.514 345.554C584.514 342.465 584.087 339.711 583.235 337.291C582.405 334.871 581.172 332.959 579.536 331.553C577.899 330.147 575.86 329.444 573.417 329.444C570.951 329.444 568.876 330.147 567.194 331.553C565.535 332.959 564.279 334.871 563.426 337.291C562.596 339.711 562.181 342.465 562.181 345.554C562.181 348.642 562.596 351.396 563.426 353.816C564.279 356.236 565.535 358.149 567.194 359.555C568.876 360.938 570.951 361.629 573.417 361.629ZM620.685 341.302V372H605.958V318.9H619.994V328.269H620.616C621.792 325.18 623.762 322.737 626.528 320.94C629.293 319.119 632.647 318.209 636.588 318.209C640.275 318.209 643.49 319.015 646.233 320.629C648.975 322.242 651.107 324.546 652.628 327.543C654.149 330.516 654.91 334.065 654.91 338.19V372H640.183V340.818C640.206 337.568 639.376 335.033 637.694 333.212C636.011 331.368 633.695 330.446 630.745 330.446C628.763 330.446 627.012 330.873 625.491 331.726C623.993 332.578 622.817 333.823 621.964 335.459C621.135 337.072 620.708 339.02 620.685 341.302ZM691.661 318.9V329.963H659.683V318.9H691.661ZM666.943 306.178H681.67V355.683C681.67 357.043 681.877 358.103 682.292 358.863C682.707 359.601 683.283 360.119 684.021 360.419C684.781 360.719 685.657 360.868 686.648 360.868C687.339 360.868 688.031 360.811 688.722 360.696C689.414 360.557 689.944 360.454 690.312 360.384L692.629 371.343C691.891 371.574 690.854 371.839 689.517 372.138C688.18 372.461 686.556 372.657 684.643 372.726C681.094 372.864 677.982 372.392 675.309 371.309C672.658 370.225 670.596 368.543 669.121 366.261C667.646 363.98 666.92 361.099 666.943 357.619V306.178ZM698.154 372V318.9H712.431V328.165H712.984C713.952 324.869 715.577 322.38 717.859 320.698C720.14 318.992 722.768 318.139 725.741 318.139C726.478 318.139 727.273 318.186 728.126 318.278C728.979 318.37 729.728 318.497 730.373 318.658V331.726C729.682 331.518 728.725 331.334 727.504 331.172C726.282 331.011 725.164 330.93 724.15 330.93C721.984 330.93 720.048 331.403 718.343 332.348C716.66 333.27 715.323 334.56 714.332 336.22C713.364 337.879 712.88 339.792 712.88 341.958V372H698.154ZM756.407 373.037C751.037 373.037 746.393 371.896 742.475 369.615C738.58 367.31 735.572 364.106 733.452 360.004C731.332 355.879 730.272 351.096 730.272 345.657C730.272 340.172 731.332 335.379 733.452 331.276C735.572 327.151 738.58 323.947 742.475 321.666C746.393 319.361 751.037 318.209 756.407 318.209C761.777 318.209 766.409 319.361 770.304 321.666C774.222 323.947 777.241 327.151 779.362 331.276C781.482 335.379 782.542 340.172 782.542 345.657C782.542 351.096 781.482 355.879 779.362 360.004C777.241 364.106 774.222 367.31 770.304 369.615C766.409 371.896 761.777 373.037 756.407 373.037ZM756.476 361.629C758.919 361.629 760.959 360.938 762.595 359.555C764.231 358.149 765.464 356.236 766.294 353.816C767.147 351.396 767.573 348.642 767.573 345.554C767.573 342.465 767.147 339.711 766.294 337.291C765.464 334.871 764.231 332.959 762.595 331.553C760.959 330.147 758.919 329.444 756.476 329.444C754.01 329.444 751.936 330.147 750.253 331.553C748.594 332.959 747.338 334.871 746.485 337.291C745.655 339.711 745.241 342.465 745.241 345.554C745.241 348.642 745.655 351.396 746.485 353.816C747.338 356.236 748.594 358.149 750.253 359.555C751.936 360.938 754.01 361.629 756.476 361.629ZM803.745 301.2V372H789.018V301.2H803.745ZM831.872 391.913V318.9H846.392V327.819H847.049C847.694 326.39 848.627 324.938 849.849 323.463C851.093 321.965 852.707 320.721 854.689 319.73C856.694 318.716 859.183 318.209 862.156 318.209C866.028 318.209 869.6 319.223 872.873 321.251C876.145 323.256 878.761 326.287 880.72 330.343C882.679 334.376 883.659 339.435 883.659 345.519C883.659 351.442 882.702 356.443 880.789 360.523C878.899 364.579 876.318 367.656 873.046 369.753C869.796 371.827 866.155 372.864 862.121 372.864C859.264 372.864 856.832 372.392 854.827 371.447C852.845 370.502 851.22 369.315 849.953 367.886C848.685 366.434 847.717 364.971 847.049 363.496H846.599V391.913H831.872ZM846.288 345.45C846.288 348.607 846.726 351.362 847.602 353.712C848.478 356.063 849.745 357.895 851.405 359.209C853.064 360.5 855.081 361.145 857.454 361.145C859.851 361.145 861.879 360.488 863.539 359.174C865.198 357.838 866.454 355.994 867.307 353.643C868.183 351.269 868.621 348.538 868.621 345.45C868.621 342.385 868.194 339.688 867.341 337.361C866.489 335.033 865.233 333.212 863.573 331.898C861.914 330.585 859.874 329.928 857.454 329.928C855.057 329.928 853.029 330.562 851.37 331.829C849.734 333.097 848.478 334.895 847.602 337.222C846.726 339.55 846.288 342.293 846.288 345.45ZM905.103 301.2V372H890.376V301.2H905.103ZM928.942 373.003C925.554 373.003 922.535 372.415 919.884 371.239C917.234 370.041 915.137 368.278 913.593 365.95C912.072 363.599 911.311 360.672 911.311 357.169C911.311 354.219 911.853 351.742 912.936 349.737C914.019 347.732 915.494 346.118 917.361 344.897C919.228 343.675 921.348 342.754 923.722 342.131C926.119 341.509 928.631 341.071 931.258 340.818C934.346 340.495 936.835 340.195 938.725 339.919C940.615 339.619 941.986 339.181 942.839 338.605C943.692 338.029 944.118 337.176 944.118 336.047V335.839C944.118 333.65 943.427 331.956 942.044 330.758C940.684 329.559 938.748 328.96 936.236 328.96C933.586 328.96 931.477 329.548 929.91 330.723C928.343 331.875 927.306 333.327 926.798 335.079L913.178 333.973C913.869 330.746 915.229 327.957 917.257 325.607C919.285 323.233 921.901 321.412 925.105 320.145C928.331 318.854 932.065 318.209 936.305 318.209C939.255 318.209 942.079 318.554 944.775 319.246C947.495 319.937 949.903 321.009 952 322.461C954.121 323.913 955.791 325.779 957.013 328.061C958.234 330.32 958.845 333.028 958.845 336.185V372H944.879V364.637H944.464C943.611 366.296 942.47 367.759 941.041 369.027C939.613 370.271 937.896 371.251 935.89 371.965C933.885 372.657 931.569 373.003 928.942 373.003ZM933.159 362.839C935.326 362.839 937.239 362.412 938.898 361.56C940.557 360.684 941.86 359.509 942.805 358.034C943.749 356.559 944.222 354.888 944.222 353.021V347.386C943.761 347.686 943.127 347.962 942.321 348.216C941.537 348.446 940.65 348.665 939.659 348.872C938.668 349.057 937.677 349.23 936.686 349.391C935.695 349.529 934.796 349.656 933.989 349.771C932.261 350.025 930.751 350.428 929.46 350.981C928.17 351.534 927.167 352.283 926.453 353.228C925.738 354.15 925.381 355.303 925.381 356.685C925.381 358.69 926.107 360.223 927.559 361.283C929.034 362.32 930.901 362.839 933.159 362.839ZM981.897 341.302V372H967.17V318.9H981.206V328.269H981.828C983.003 325.18 984.974 322.737 987.74 320.94C990.505 319.119 993.859 318.209 997.8 318.209C1001.49 318.209 1004.7 319.015 1007.44 320.629C1010.19 322.242 1012.32 324.546 1013.84 327.543C1015.36 330.516 1016.12 334.065 1016.12 338.19V372H1001.39V340.818C1001.42 337.568 1000.59 335.033 998.906 333.212C997.223 331.368 994.907 330.446 991.957 330.446C989.975 330.446 988.224 330.873 986.703 331.726C985.204 332.578 984.029 333.823 983.176 335.459C982.347 337.072 981.92 339.02 981.897 341.302ZM1048.83 373.037C1043.37 373.037 1038.66 371.931 1034.72 369.718C1030.81 367.483 1027.79 364.325 1025.67 360.246C1023.55 356.144 1022.49 351.292 1022.49 345.692C1022.49 340.23 1023.55 335.436 1025.67 331.311C1027.79 327.185 1030.77 323.97 1034.62 321.666C1038.49 319.361 1043.03 318.209 1048.24 318.209C1051.74 318.209 1055 318.773 1058.02 319.903C1061.07 321.009 1063.72 322.68 1065.97 324.915C1068.26 327.151 1070.03 329.963 1071.3 333.35C1072.57 336.715 1073.2 340.656 1073.2 345.173V349.218H1028.36V340.092H1059.34C1059.34 337.971 1058.88 336.093 1057.95 334.457C1057.03 332.82 1055.75 331.541 1054.12 330.619C1052.5 329.674 1050.63 329.202 1048.48 329.202C1046.25 329.202 1044.26 329.721 1042.54 330.758C1040.83 331.772 1039.49 333.143 1038.53 334.871C1037.56 336.577 1037.06 338.478 1037.04 340.576V349.253C1037.04 351.88 1037.52 354.15 1038.49 356.063C1039.48 357.976 1040.88 359.451 1042.67 360.488C1044.47 361.525 1046.6 362.044 1049.07 362.044C1050.71 362.044 1052.2 361.813 1053.56 361.352C1054.92 360.891 1056.09 360.2 1057.06 359.278C1058.02 358.356 1058.76 357.227 1059.27 355.89L1072.89 356.789C1072.2 360.062 1070.78 362.92 1068.64 365.362C1066.52 367.782 1063.77 369.672 1060.41 371.032C1057.07 372.369 1053.21 373.037 1048.83 373.037ZM1123.89 334.042L1110.41 334.871C1110.18 333.719 1109.68 332.682 1108.92 331.76C1108.16 330.815 1107.16 330.066 1105.91 329.513C1104.69 328.937 1103.23 328.649 1101.52 328.649C1099.24 328.649 1097.32 329.133 1095.75 330.101C1094.18 331.046 1093.4 332.313 1093.4 333.904C1093.4 335.171 1093.91 336.243 1094.92 337.119C1095.94 337.994 1097.68 338.697 1100.14 339.227L1109.75 341.163C1114.91 342.223 1118.76 343.929 1121.3 346.28C1123.83 348.63 1125.1 351.719 1125.1 355.545C1125.1 359.025 1124.08 362.078 1122.02 364.706C1120 367.333 1117.21 369.384 1113.66 370.859C1110.13 372.311 1106.06 373.037 1101.45 373.037C1094.43 373.037 1088.83 371.574 1084.65 368.647C1080.51 365.697 1078.07 361.687 1077.36 356.616L1091.84 355.856C1092.28 357.999 1093.34 359.635 1095.02 360.765C1096.71 361.871 1098.86 362.424 1101.49 362.424C1104.07 362.424 1106.14 361.929 1107.71 360.937C1109.3 359.923 1110.11 358.621 1110.13 357.031C1110.11 355.694 1109.54 354.6 1108.44 353.747C1107.33 352.871 1105.63 352.203 1103.32 351.742L1094.13 349.91C1088.94 348.872 1085.08 347.075 1082.54 344.517C1080.03 341.958 1078.78 338.697 1078.78 334.733C1078.78 331.322 1079.7 328.384 1081.54 325.918C1083.41 323.452 1086.02 321.55 1089.39 320.214C1092.78 318.877 1096.74 318.209 1101.28 318.209C1107.99 318.209 1113.27 319.626 1117.12 322.461C1120.99 325.296 1123.25 329.156 1123.89 334.042Z" fill="black"/>
</svg>
