<svg width="1200" height="900" viewBox="0 0 1200 900" fill="none" xmlns="http://www.w3.org/2000/svg">
<rect width="1200" height="900" fill="white"/>
<path d="M127.889 311.455L108.82 366H91.7741L72.7045 311.455H88.6847L100.013 350.482H100.581L111.874 311.455H127.889ZM197.452 318.734H181.898C181.614 316.722 181.034 314.935 180.158 313.372C179.282 311.786 178.158 310.437 176.785 309.324C175.412 308.211 173.825 307.359 172.026 306.767C170.251 306.175 168.321 305.879 166.238 305.879C162.474 305.879 159.195 306.814 156.401 308.685C153.608 310.531 151.441 313.23 149.903 316.781C148.364 320.309 147.594 324.594 147.594 329.636C147.594 334.821 148.364 339.177 149.903 342.705C151.465 346.232 153.643 348.895 156.437 350.695C159.23 352.494 162.462 353.393 166.131 353.393C168.191 353.393 170.097 353.121 171.849 352.577C173.624 352.032 175.198 351.239 176.572 350.197C177.945 349.132 179.081 347.842 179.981 346.327C180.904 344.812 181.543 343.083 181.898 341.142L197.452 341.213C197.05 344.551 196.044 347.771 194.434 350.872C192.848 353.95 190.705 356.708 188.006 359.146C185.331 361.561 182.135 363.479 178.418 364.899C174.725 366.296 170.546 366.994 165.883 366.994C159.396 366.994 153.596 365.527 148.482 362.591C143.392 359.655 139.367 355.406 136.408 349.842C133.473 344.279 132.005 337.544 132.005 329.636C132.005 321.705 133.496 314.958 136.479 309.395C139.462 303.831 143.51 299.594 148.624 296.682C153.738 293.746 159.491 292.278 165.883 292.278C170.097 292.278 174.003 292.87 177.601 294.054C181.224 295.238 184.431 296.966 187.225 299.239C190.019 301.488 192.291 304.246 194.043 307.513C195.819 310.78 196.955 314.52 197.452 318.734ZM220.691 293.273V366H205.563V293.273H220.691ZM265.156 342.776V311.455H280.284V366H265.76V356.092H265.192C263.961 359.288 261.913 361.857 259.048 363.798C256.207 365.74 252.739 366.71 248.643 366.71C244.997 366.71 241.79 365.882 239.02 364.224C236.25 362.567 234.084 360.212 232.521 357.158C230.982 354.104 230.201 350.446 230.177 346.185V311.455H245.305V343.486C245.329 346.705 246.193 349.25 247.898 351.121C249.602 352.991 251.887 353.926 254.751 353.926C256.574 353.926 258.279 353.512 259.865 352.683C261.451 351.831 262.729 350.576 263.7 348.919C264.694 347.262 265.18 345.214 265.156 342.776ZM335.136 327.009L321.287 327.861C321.05 326.677 320.541 325.612 319.76 324.665C318.979 323.694 317.949 322.925 316.67 322.357C315.416 321.765 313.912 321.469 312.16 321.469C309.817 321.469 307.84 321.966 306.23 322.96C304.62 323.931 303.815 325.233 303.815 326.866C303.815 328.169 304.336 329.269 305.378 330.169C306.419 331.069 308.207 331.791 310.74 332.335L320.612 334.324C325.915 335.413 329.869 337.165 332.473 339.58C335.077 341.994 336.379 345.167 336.379 349.097C336.379 352.671 335.326 355.808 333.219 358.507C331.135 361.206 328.271 363.313 324.625 364.828C321.003 366.32 316.824 367.065 312.089 367.065C304.869 367.065 299.116 365.562 294.831 362.555C290.57 359.525 288.072 355.406 287.338 350.197L302.217 349.416C302.667 351.618 303.756 353.299 305.484 354.459C307.213 355.595 309.426 356.163 312.125 356.163C314.776 356.163 316.907 355.654 318.517 354.636C320.151 353.595 320.979 352.257 321.003 350.624C320.979 349.25 320.399 348.126 319.263 347.25C318.126 346.35 316.374 345.664 314.007 345.19L304.561 343.308C299.234 342.243 295.269 340.396 292.665 337.768C290.084 335.141 288.794 331.791 288.794 327.719C288.794 324.215 289.741 321.196 291.635 318.663C293.553 316.13 296.24 314.177 299.696 312.804C303.176 311.431 307.248 310.744 311.912 310.744C318.801 310.744 324.222 312.2 328.176 315.112C332.153 318.024 334.473 321.99 335.136 327.009ZM372.286 311.455V322.818H339.438V311.455H372.286ZM346.896 298.386H362.024V349.239C362.024 350.635 362.237 351.724 362.663 352.506C363.089 353.263 363.681 353.796 364.438 354.104C365.22 354.411 366.119 354.565 367.137 354.565C367.847 354.565 368.558 354.506 369.268 354.388C369.978 354.246 370.523 354.139 370.901 354.068L373.281 365.325C372.523 365.562 371.458 365.834 370.085 366.142C368.712 366.473 367.043 366.675 365.078 366.746C361.432 366.888 358.236 366.402 355.489 365.29C352.767 364.177 350.648 362.449 349.133 360.105C347.618 357.761 346.872 354.802 346.896 351.227V298.386ZM403.781 367.065C398.17 367.065 393.341 365.929 389.293 363.656C385.268 361.36 382.167 358.116 379.989 353.926C377.811 349.712 376.722 344.729 376.722 338.976C376.722 333.365 377.811 328.441 379.989 324.203C382.167 319.965 385.232 316.663 389.186 314.295C393.163 311.928 397.827 310.744 403.178 310.744C406.776 310.744 410.126 311.324 413.227 312.484C416.352 313.621 419.075 315.337 421.395 317.634C423.739 319.93 425.562 322.818 426.864 326.298C428.166 329.755 428.817 333.803 428.817 338.443V342.598H382.758V333.223H414.577C414.577 331.045 414.103 329.116 413.156 327.435C412.209 325.754 410.895 324.44 409.214 323.493C407.557 322.522 405.628 322.037 403.426 322.037C401.13 322.037 399.094 322.57 397.318 323.635C395.566 324.677 394.193 326.085 393.199 327.861C392.205 329.613 391.696 331.566 391.672 333.72V342.634C391.672 345.332 392.169 347.664 393.163 349.629C394.181 351.594 395.614 353.109 397.46 354.175C399.307 355.24 401.497 355.773 404.03 355.773C405.711 355.773 407.249 355.536 408.646 355.062C410.043 354.589 411.239 353.879 412.233 352.932C413.227 351.985 413.985 350.825 414.506 349.452L428.497 350.375C427.787 353.737 426.331 356.672 424.129 359.182C421.951 361.668 419.134 363.609 415.678 365.006C412.245 366.379 408.279 367.065 403.781 367.065ZM436.057 366V311.455H450.723V320.972H451.292C452.286 317.586 453.955 315.029 456.299 313.301C458.643 311.549 461.341 310.673 464.395 310.673C465.153 310.673 465.97 310.721 466.846 310.815C467.722 310.91 468.491 311.04 469.154 311.206V324.629C468.444 324.416 467.461 324.227 466.206 324.061C464.952 323.895 463.803 323.812 462.762 323.812C460.536 323.812 458.548 324.298 456.796 325.268C455.068 326.215 453.695 327.541 452.677 329.246C451.682 330.95 451.185 332.915 451.185 335.141V366H436.057ZM530.924 367.03C527.443 367.03 524.342 366.426 521.62 365.219C518.897 363.988 516.743 362.177 515.157 359.786C513.594 357.371 512.813 354.364 512.813 350.766C512.813 347.735 513.369 345.19 514.482 343.131C515.594 341.071 517.11 339.414 519.027 338.159C520.945 336.904 523.123 335.957 525.561 335.318C528.023 334.679 530.604 334.229 533.303 333.969C536.475 333.637 539.032 333.33 540.973 333.045C542.915 332.738 544.323 332.288 545.199 331.696C546.075 331.104 546.513 330.228 546.513 329.068V328.855C546.513 326.606 545.803 324.866 544.382 323.635C542.986 322.404 540.997 321.788 538.416 321.788C535.694 321.788 533.528 322.392 531.918 323.599C530.308 324.783 529.243 326.275 528.722 328.074L514.73 326.938C515.441 323.623 516.837 320.759 518.921 318.344C521.004 315.905 523.691 314.035 526.982 312.733C530.296 311.407 534.131 310.744 538.487 310.744C541.518 310.744 544.418 311.099 547.188 311.81C549.981 312.52 552.455 313.621 554.61 315.112C556.788 316.604 558.504 318.521 559.759 320.865C561.014 323.185 561.641 325.967 561.641 329.21V366H547.294V358.436H546.868C545.992 360.141 544.82 361.644 543.353 362.946C541.885 364.224 540.121 365.231 538.061 365.964C536.002 366.675 533.622 367.03 530.924 367.03ZM535.256 356.589C537.481 356.589 539.446 356.152 541.151 355.276C542.855 354.376 544.193 353.169 545.164 351.653C546.134 350.138 546.62 348.422 546.62 346.504V340.716C546.146 341.024 545.495 341.308 544.666 341.568C543.862 341.805 542.95 342.03 541.932 342.243C540.914 342.432 539.896 342.61 538.878 342.776C537.86 342.918 536.937 343.048 536.108 343.166C534.333 343.427 532.782 343.841 531.456 344.409C530.13 344.977 529.101 345.747 528.367 346.717C527.633 347.664 527.266 348.848 527.266 350.268C527.266 352.328 528.012 353.902 529.503 354.991C531.018 356.057 532.936 356.589 535.256 356.589ZM585.874 334.466V366H570.746V311.455H585.163V321.078H585.803C587.01 317.906 589.034 315.396 591.875 313.55C594.716 311.679 598.161 310.744 602.209 310.744C605.997 310.744 609.299 311.573 612.117 313.23C614.934 314.887 617.124 317.255 618.686 320.332C620.249 323.386 621.03 327.032 621.03 331.27V366H605.902V333.969C605.926 330.631 605.073 328.027 603.345 326.156C601.617 324.262 599.238 323.315 596.207 323.315C594.171 323.315 592.372 323.753 590.81 324.629C589.271 325.505 588.064 326.784 587.188 328.464C586.335 330.122 585.897 332.122 585.874 334.466ZM650.421 366.888C646.278 366.888 642.525 365.822 639.164 363.692C635.826 361.537 633.174 358.377 631.209 354.21C629.268 350.02 628.297 344.883 628.297 338.798C628.297 332.548 629.303 327.352 631.316 323.209C633.328 319.042 636.003 315.929 639.341 313.869C642.703 311.786 646.384 310.744 650.385 310.744C653.439 310.744 655.984 311.265 658.02 312.307C660.08 313.325 661.737 314.603 662.992 316.142C664.27 317.657 665.241 319.149 665.904 320.616H666.365V293.273H681.458V366H666.543V357.264H665.904C665.193 358.779 664.187 360.283 662.885 361.774C661.607 363.242 659.938 364.461 657.878 365.432C655.842 366.402 653.356 366.888 650.421 366.888ZM655.215 354.849C657.653 354.849 659.713 354.187 661.394 352.861C663.098 351.511 664.4 349.629 665.3 347.214C666.223 344.8 666.685 341.971 666.685 338.727C666.685 335.484 666.235 332.667 665.336 330.276C664.436 327.884 663.134 326.038 661.429 324.736C659.725 323.434 657.653 322.783 655.215 322.783C652.729 322.783 650.634 323.457 648.929 324.807C647.225 326.156 645.934 328.027 645.059 330.418C644.183 332.809 643.745 335.579 643.745 338.727C643.745 341.9 644.183 344.705 645.059 347.143C645.958 349.558 647.248 351.452 648.929 352.825C650.634 354.175 652.729 354.849 655.215 354.849ZM122.42 411.009L108.571 411.861C108.334 410.677 107.825 409.612 107.044 408.665C106.263 407.694 105.233 406.925 103.955 406.357C102.7 405.765 101.196 405.469 99.4446 405.469C97.1009 405.469 95.1241 405.966 93.5142 406.96C91.9044 407.931 91.0994 409.233 91.0994 410.866C91.0994 412.169 91.6203 413.269 92.6619 414.169C93.7036 415.069 95.491 415.791 98.0241 416.335L107.896 418.324C113.199 419.413 117.153 421.165 119.757 423.58C122.361 425.994 123.663 429.167 123.663 433.097C123.663 436.671 122.61 439.808 120.503 442.507C118.42 445.206 115.555 447.313 111.909 448.828C108.287 450.32 104.108 451.065 99.3736 451.065C92.1529 451.065 86.4001 449.562 82.1151 446.555C77.8537 443.525 75.3561 439.406 74.6222 434.197L89.5014 433.416C89.9512 435.618 91.0402 437.299 92.7685 438.459C94.4967 439.595 96.7102 440.163 99.4091 440.163C102.061 440.163 104.191 439.654 105.801 438.636C107.435 437.595 108.263 436.257 108.287 434.624C108.263 433.25 107.683 432.126 106.547 431.25C105.411 430.35 103.659 429.664 101.291 429.19L91.8452 427.308C86.5185 426.243 82.553 424.396 79.9489 421.768C77.3684 419.141 76.0781 415.791 76.0781 411.719C76.0781 408.215 77.0251 405.196 78.919 402.663C80.8366 400.13 83.5237 398.177 86.9801 396.804C90.4602 395.431 94.5322 394.744 99.196 394.744C106.085 394.744 111.507 396.2 115.46 399.112C119.438 402.024 121.758 405.99 122.42 411.009ZM145.686 418.466V450H130.558V377.273H145.259V405.078H145.899C147.13 401.858 149.118 399.337 151.865 397.514C154.611 395.668 158.055 394.744 162.198 394.744C165.986 394.744 169.289 395.573 172.106 397.23C174.947 398.864 177.149 401.219 178.711 404.297C180.297 407.351 181.079 411.009 181.055 415.27V450H165.927V417.969C165.951 414.607 165.098 411.991 163.37 410.121C161.666 408.25 159.275 407.315 156.197 407.315C154.137 407.315 152.314 407.753 150.728 408.629C149.166 409.505 147.935 410.784 147.035 412.464C146.159 414.122 145.709 416.122 145.686 418.466ZM205.882 451.03C202.402 451.03 199.301 450.426 196.578 449.219C193.856 447.988 191.702 446.177 190.115 443.786C188.553 441.371 187.772 438.364 187.772 434.766C187.772 431.735 188.328 429.19 189.441 427.131C190.553 425.071 192.069 423.414 193.986 422.159C195.904 420.904 198.082 419.957 200.52 419.318C202.982 418.679 205.563 418.229 208.262 417.969C211.434 417.637 213.991 417.33 215.932 417.045C217.873 416.738 219.282 416.288 220.158 415.696C221.034 415.104 221.472 414.228 221.472 413.068V412.855C221.472 410.606 220.762 408.866 219.341 407.635C217.944 406.404 215.956 405.788 213.375 405.788C210.653 405.788 208.487 406.392 206.877 407.599C205.267 408.783 204.202 410.275 203.681 412.074L189.689 410.938C190.399 407.623 191.796 404.759 193.88 402.344C195.963 399.905 198.65 398.035 201.941 396.733C205.255 395.407 209.09 394.744 213.446 394.744C216.477 394.744 219.377 395.099 222.147 395.81C224.94 396.52 227.414 397.621 229.569 399.112C231.747 400.604 233.463 402.521 234.718 404.865C235.972 407.185 236.6 409.967 236.6 413.21V450H222.253V442.436H221.827C220.951 444.141 219.779 445.644 218.311 446.946C216.844 448.224 215.08 449.231 213.02 449.964C210.961 450.675 208.581 451.03 205.882 451.03ZM210.215 440.589C212.44 440.589 214.405 440.152 216.11 439.276C217.814 438.376 219.152 437.169 220.122 435.653C221.093 434.138 221.578 432.422 221.578 430.504V424.716C221.105 425.024 220.454 425.308 219.625 425.568C218.82 425.805 217.909 426.03 216.891 426.243C215.873 426.432 214.855 426.61 213.837 426.776C212.819 426.918 211.896 427.048 211.067 427.166C209.292 427.427 207.741 427.841 206.415 428.409C205.089 428.977 204.06 429.747 203.326 430.717C202.592 431.664 202.225 432.848 202.225 434.268C202.225 436.328 202.971 437.902 204.462 438.991C205.977 440.057 207.895 440.589 210.215 440.589ZM245.705 450V395.455H260.371V404.972H260.939C261.933 401.586 263.602 399.029 265.946 397.301C268.29 395.549 270.989 394.673 274.043 394.673C274.8 394.673 275.617 394.721 276.493 394.815C277.369 394.91 278.138 395.04 278.801 395.206V408.629C278.091 408.416 277.109 408.227 275.854 408.061C274.599 407.895 273.451 407.812 272.409 407.812C270.184 407.812 268.195 408.298 266.443 409.268C264.715 410.215 263.342 411.541 262.324 413.246C261.33 414.95 260.833 416.915 260.833 419.141V450H245.705ZM306.31 451.065C300.699 451.065 295.87 449.929 291.821 447.656C287.797 445.36 284.695 442.116 282.517 437.926C280.339 433.712 279.25 428.729 279.25 422.976C279.25 417.365 280.339 412.441 282.517 408.203C284.695 403.965 287.761 400.663 291.715 398.295C295.692 395.928 300.356 394.744 305.706 394.744C309.305 394.744 312.655 395.324 315.756 396.484C318.881 397.621 321.604 399.337 323.924 401.634C326.267 403.93 328.09 406.818 329.392 410.298C330.694 413.755 331.345 417.803 331.345 422.443V426.598H285.287V417.223H317.105C317.105 415.045 316.632 413.116 315.685 411.435C314.738 409.754 313.424 408.44 311.743 407.493C310.086 406.522 308.157 406.037 305.955 406.037C303.658 406.037 301.622 406.57 299.847 407.635C298.095 408.677 296.722 410.085 295.728 411.861C294.733 413.613 294.224 415.566 294.201 417.72V426.634C294.201 429.332 294.698 431.664 295.692 433.629C296.71 435.594 298.142 437.109 299.989 438.175C301.836 439.24 304.025 439.773 306.559 439.773C308.239 439.773 309.778 439.536 311.175 439.062C312.572 438.589 313.767 437.879 314.762 436.932C315.756 435.985 316.514 434.825 317.034 433.452L331.026 434.375C330.316 437.737 328.86 440.672 326.658 443.182C324.48 445.668 321.663 447.609 318.206 449.006C314.774 450.379 310.808 451.065 306.31 451.065ZM358.685 450.888C354.543 450.888 350.79 449.822 347.428 447.692C344.09 445.537 341.439 442.377 339.474 438.21C337.533 434.02 336.562 428.883 336.562 422.798C336.562 416.548 337.568 411.352 339.58 407.209C341.593 403.042 344.268 399.929 347.606 397.869C350.968 395.786 354.649 394.744 358.65 394.744C361.704 394.744 364.249 395.265 366.285 396.307C368.345 397.325 370.002 398.603 371.257 400.142C372.535 401.657 373.506 403.149 374.168 404.616H374.63V377.273H389.722V450H374.808V441.264H374.168C373.458 442.779 372.452 444.283 371.15 445.774C369.872 447.242 368.203 448.461 366.143 449.432C364.107 450.402 361.621 450.888 358.685 450.888ZM363.48 438.849C365.918 438.849 367.978 438.187 369.659 436.861C371.363 435.511 372.665 433.629 373.565 431.214C374.488 428.8 374.95 425.971 374.95 422.727C374.95 419.484 374.5 416.667 373.6 414.276C372.701 411.884 371.399 410.038 369.694 408.736C367.989 407.434 365.918 406.783 363.48 406.783C360.994 406.783 358.899 407.457 357.194 408.807C355.489 410.156 354.199 412.027 353.323 414.418C352.447 416.809 352.009 419.579 352.009 422.727C352.009 425.9 352.447 428.705 353.323 431.143C354.223 433.558 355.513 435.452 357.194 436.825C358.899 438.175 360.994 438.849 363.48 438.849ZM435.17 418.466V450H420.042V395.455H434.459V405.078H435.098C436.306 401.906 438.33 399.396 441.171 397.55C444.012 395.679 447.456 394.744 451.505 394.744C455.293 394.744 458.595 395.573 461.412 397.23C464.23 398.887 466.42 401.255 467.982 404.332C469.545 407.386 470.326 411.032 470.326 415.27V450H455.198V417.969C455.222 414.631 454.369 412.027 452.641 410.156C450.913 408.262 448.534 407.315 445.503 407.315C443.467 407.315 441.668 407.753 440.106 408.629C438.567 409.505 437.359 410.784 436.483 412.464C435.631 414.122 435.193 416.122 435.17 418.466ZM504.475 451.065C498.864 451.065 494.035 449.929 489.986 447.656C485.962 445.36 482.86 442.116 480.682 437.926C478.504 433.712 477.415 428.729 477.415 422.976C477.415 417.365 478.504 412.441 480.682 408.203C482.86 403.965 485.926 400.663 489.88 398.295C493.857 395.928 498.521 394.744 503.871 394.744C507.47 394.744 510.82 395.324 513.921 396.484C517.046 397.621 519.769 399.337 522.089 401.634C524.432 403.93 526.255 406.818 527.557 410.298C528.86 413.755 529.511 417.803 529.511 422.443V426.598H483.452V417.223H515.271C515.271 415.045 514.797 413.116 513.85 411.435C512.903 409.754 511.589 408.44 509.908 407.493C508.251 406.522 506.322 406.037 504.12 406.037C501.824 406.037 499.788 406.57 498.012 407.635C496.26 408.677 494.887 410.085 493.893 411.861C492.898 413.613 492.389 415.566 492.366 417.72V426.634C492.366 429.332 492.863 431.664 493.857 433.629C494.875 435.594 496.307 437.109 498.154 438.175C500.001 439.24 502.19 439.773 504.724 439.773C506.405 439.773 507.943 439.536 509.34 439.062C510.737 438.589 511.932 437.879 512.927 436.932C513.921 435.985 514.679 434.825 515.199 433.452L529.191 434.375C528.481 437.737 527.025 440.672 524.823 443.182C522.645 445.668 519.828 447.609 516.371 449.006C512.939 450.379 508.973 451.065 504.475 451.065ZM565.764 395.455V406.818H532.916V395.455H565.764ZM540.373 382.386H555.501V433.239C555.501 434.635 555.714 435.724 556.14 436.506C556.567 437.263 557.158 437.796 557.916 438.104C558.697 438.411 559.597 438.565 560.615 438.565C561.325 438.565 562.035 438.506 562.745 438.388C563.456 438.246 564 438.139 564.379 438.068L566.758 449.325C566.001 449.562 564.935 449.834 563.562 450.142C562.189 450.473 560.52 450.675 558.555 450.746C554.909 450.888 551.713 450.402 548.967 449.29C546.245 448.177 544.126 446.449 542.611 444.105C541.095 441.761 540.35 438.802 540.373 435.227V382.386ZM583.747 450L568.903 395.455H584.208L592.66 432.102H593.157L601.964 395.455H616.985L625.934 431.889H626.396L634.706 395.455H649.975L635.167 450H619.152L609.777 415.696H609.102L599.727 450H583.747ZM678.691 451.065C673.175 451.065 668.405 449.893 664.38 447.55C660.379 445.182 657.29 441.892 655.112 437.678C652.934 433.44 651.845 428.527 651.845 422.94C651.845 417.306 652.934 412.382 655.112 408.168C657.29 403.93 660.379 400.639 664.38 398.295C668.405 395.928 673.175 394.744 678.691 394.744C684.208 394.744 688.966 395.928 692.967 398.295C696.992 400.639 700.093 403.93 702.271 408.168C704.449 412.382 705.538 417.306 705.538 422.94C705.538 428.527 704.449 433.44 702.271 437.678C700.093 441.892 696.992 445.182 692.967 447.55C688.966 449.893 684.208 451.065 678.691 451.065ZM678.762 439.347C681.272 439.347 683.367 438.636 685.048 437.216C686.729 435.772 687.995 433.807 688.848 431.321C689.724 428.835 690.162 426.006 690.162 422.834C690.162 419.661 689.724 416.832 688.848 414.347C687.995 411.861 686.729 409.896 685.048 408.452C683.367 407.008 681.272 406.286 678.762 406.286C676.229 406.286 674.099 407.008 672.37 408.452C670.666 409.896 669.376 411.861 668.5 414.347C667.647 416.832 667.221 419.661 667.221 422.834C667.221 426.006 667.647 428.835 668.5 431.321C669.376 433.807 670.666 435.772 672.37 437.216C674.099 438.636 676.229 439.347 678.762 439.347ZM712.743 450V395.455H727.409V404.972H727.978C728.972 401.586 730.641 399.029 732.985 397.301C735.328 395.549 738.027 394.673 741.081 394.673C741.839 394.673 742.656 394.721 743.532 394.815C744.407 394.91 745.177 395.04 745.84 395.206V408.629C745.13 408.416 744.147 408.227 742.892 408.061C741.638 407.895 740.489 407.812 739.448 407.812C737.222 407.812 735.234 408.298 733.482 409.268C731.754 410.215 730.38 411.541 729.362 413.246C728.368 414.95 727.871 416.915 727.871 419.141V450H712.743ZM764.737 434.304L764.772 416.158H766.974L784.446 395.455H801.811L778.338 422.869H774.751L764.737 434.304ZM751.03 450V377.273H766.157V450H751.03ZM785.12 450L769.069 426.243L779.155 415.554L802.841 450H785.12Z" fill="black"/>
<rect x="71" y="498" width="1038" height="19" fill="black"/>
</svg>
