<svg width="1200" height="900" viewBox="0 0 1200 900" fill="none" xmlns="http://www.w3.org/2000/svg">
<rect width="1200" height="900" fill="white"/>
<path d="M103.102 444H77.321V371.273H103.315C110.631 371.273 116.928 372.729 122.207 375.641C127.487 378.529 131.547 382.684 134.388 388.105C137.252 393.527 138.685 400.013 138.685 407.565C138.685 415.141 137.252 421.652 134.388 427.097C131.547 432.542 127.463 436.72 122.136 439.632C116.833 442.544 110.489 444 103.102 444ZM92.6974 430.825H102.463C107.009 430.825 110.832 430.02 113.933 428.411C117.058 426.777 119.402 424.256 120.964 420.847C122.551 417.414 123.344 412.987 123.344 407.565C123.344 402.191 122.551 397.8 120.964 394.391C119.402 390.982 117.07 388.472 113.969 386.862C110.867 385.252 107.044 384.447 102.499 384.447H92.6974V430.825ZM172.017 445.065C166.406 445.065 161.577 443.929 157.529 441.656C153.504 439.36 150.403 436.116 148.225 431.926C146.047 427.712 144.958 422.729 144.958 416.976C144.958 411.365 146.047 406.441 148.225 402.203C150.403 397.965 153.468 394.663 157.422 392.295C161.399 389.928 166.063 388.744 171.414 388.744C175.012 388.744 178.362 389.324 181.463 390.484C184.588 391.621 187.311 393.337 189.631 395.634C191.975 397.93 193.798 400.818 195.1 404.298C196.402 407.755 197.053 411.803 197.053 416.443V420.598H150.994V411.223H182.813C182.813 409.045 182.339 407.116 181.392 405.435C180.445 403.754 179.131 402.44 177.45 401.493C175.793 400.522 173.864 400.037 171.662 400.037C169.366 400.037 167.33 400.57 165.554 401.635C163.802 402.677 162.429 404.085 161.435 405.861C160.441 407.613 159.932 409.566 159.908 411.72V420.634C159.908 423.332 160.405 425.664 161.399 427.629C162.417 429.594 163.85 431.109 165.696 432.175C167.543 433.24 169.733 433.773 172.266 433.773C173.947 433.773 175.485 433.536 176.882 433.062C178.279 432.589 179.475 431.879 180.469 430.932C181.463 429.985 182.221 428.825 182.742 427.452L196.733 428.375C196.023 431.737 194.567 434.672 192.365 437.182C190.187 439.668 187.37 441.609 183.914 443.006C180.481 444.379 176.515 445.065 172.017 445.065ZM224.393 444.888C220.25 444.888 216.497 443.822 213.136 441.692C209.798 439.537 207.146 436.377 205.181 432.21C203.24 428.02 202.269 422.883 202.269 416.798C202.269 410.548 203.275 405.352 205.288 401.209C207.3 397.042 209.975 393.929 213.313 391.869C216.675 389.786 220.356 388.744 224.357 388.744C227.411 388.744 229.956 389.265 231.992 390.307C234.052 391.325 235.709 392.603 236.964 394.142C238.242 395.657 239.213 397.149 239.876 398.616H240.337V371.273H255.43V444H240.515V435.264H239.876C239.165 436.779 238.159 438.283 236.857 439.774C235.579 441.242 233.91 442.461 231.85 443.432C229.814 444.402 227.328 444.888 224.393 444.888ZM229.187 432.849C231.625 432.849 233.685 432.187 235.366 430.861C237.07 429.511 238.372 427.629 239.272 425.214C240.195 422.8 240.657 419.971 240.657 416.727C240.657 413.484 240.207 410.667 239.308 408.276C238.408 405.884 237.106 404.038 235.401 402.736C233.697 401.434 231.625 400.783 229.187 400.783C226.701 400.783 224.606 401.457 222.901 402.807C221.197 404.156 219.906 406.027 219.031 408.418C218.155 410.809 217.717 413.579 217.717 416.727C217.717 419.9 218.155 422.705 219.031 425.143C219.93 427.558 221.22 429.452 222.901 430.825C224.606 432.175 226.701 432.849 229.187 432.849ZM265.236 444V389.455H280.364V444H265.236ZM272.835 382.423C270.586 382.423 268.657 381.678 267.047 380.186C265.461 378.671 264.668 376.86 264.668 374.753C264.668 372.67 265.461 370.882 267.047 369.391C268.657 367.875 270.586 367.118 272.835 367.118C275.084 367.118 277.002 367.875 278.588 369.391C280.198 370.882 281.003 372.67 281.003 374.753C281.003 376.86 280.198 378.671 278.588 380.186C277.002 381.678 275.084 382.423 272.835 382.423ZM314.495 445.065C308.908 445.065 304.102 443.882 300.078 441.514C296.077 439.123 292.999 435.809 290.845 431.571C288.714 427.333 287.649 422.456 287.649 416.94C287.649 411.353 288.726 406.453 290.88 402.239C293.058 398.001 296.148 394.698 300.149 392.331C304.15 389.94 308.908 388.744 314.424 388.744C319.183 388.744 323.35 389.608 326.924 391.337C330.499 393.065 333.328 395.491 335.412 398.616C337.495 401.741 338.643 405.411 338.856 409.625H324.581C324.178 406.902 323.113 404.713 321.385 403.055C319.68 401.375 317.443 400.534 314.673 400.534C312.329 400.534 310.281 401.173 308.529 402.452C306.801 403.706 305.452 405.541 304.481 407.956C303.51 410.371 303.025 413.295 303.025 416.727C303.025 420.207 303.499 423.167 304.446 425.605C305.416 428.044 306.778 429.902 308.529 431.18C310.281 432.459 312.329 433.098 314.673 433.098C316.401 433.098 317.952 432.743 319.325 432.033C320.722 431.322 321.87 430.293 322.769 428.943C323.693 427.57 324.296 425.925 324.581 424.007H338.856C338.619 428.174 337.483 431.843 335.447 435.016C333.435 438.164 330.653 440.626 327.102 442.402C323.551 444.178 319.349 445.065 314.495 445.065ZM361.464 445.03C357.984 445.03 354.883 444.426 352.16 443.219C349.438 441.988 347.283 440.177 345.697 437.786C344.135 435.371 343.353 432.364 343.353 428.766C343.353 425.735 343.91 423.19 345.023 421.131C346.135 419.071 347.65 417.414 349.568 416.159C351.486 414.904 353.664 413.957 356.102 413.318C358.564 412.679 361.145 412.229 363.844 411.969C367.016 411.637 369.573 411.33 371.514 411.045C373.455 410.738 374.864 410.288 375.74 409.696C376.616 409.104 377.054 408.228 377.054 407.068V406.855C377.054 404.606 376.344 402.866 374.923 401.635C373.526 400.404 371.538 399.788 368.957 399.788C366.235 399.788 364.068 400.392 362.459 401.599C360.849 402.783 359.783 404.275 359.263 406.074L345.271 404.938C345.981 401.623 347.378 398.759 349.461 396.344C351.545 393.905 354.232 392.035 357.523 390.733C360.837 389.407 364.672 388.744 369.028 388.744C372.058 388.744 374.959 389.099 377.728 389.81C380.522 390.52 382.996 391.621 385.15 393.112C387.328 394.604 389.045 396.521 390.299 398.865C391.554 401.185 392.182 403.967 392.182 407.21V444H377.835V436.436H377.409C376.533 438.141 375.361 439.644 373.893 440.946C372.425 442.224 370.662 443.231 368.602 443.964C366.542 444.675 364.163 445.03 361.464 445.03ZM365.797 434.589C368.022 434.589 369.987 434.152 371.692 433.276C373.396 432.376 374.734 431.169 375.704 429.653C376.675 428.138 377.16 426.422 377.16 424.504V418.716C376.687 419.024 376.036 419.308 375.207 419.568C374.402 419.805 373.491 420.03 372.473 420.243C371.455 420.432 370.437 420.61 369.419 420.776C368.401 420.918 367.478 421.048 366.649 421.166C364.873 421.427 363.323 421.841 361.997 422.409C360.671 422.977 359.641 423.747 358.907 424.717C358.174 425.664 357.807 426.848 357.807 428.268C357.807 430.328 358.552 431.902 360.044 432.991C361.559 434.057 363.477 434.589 365.797 434.589ZM430.299 389.455V400.818H397.451V389.455H430.299ZM404.909 376.386H420.037V427.239C420.037 428.635 420.25 429.724 420.676 430.506C421.102 431.263 421.694 431.796 422.451 432.104C423.233 432.411 424.132 432.565 425.15 432.565C425.86 432.565 426.571 432.506 427.281 432.388C427.991 432.246 428.536 432.139 428.914 432.068L431.294 443.325C430.536 443.562 429.471 443.834 428.098 444.142C426.725 444.473 425.055 444.675 423.091 444.746C419.445 444.888 416.249 444.402 413.502 443.29C410.78 442.177 408.661 440.449 407.146 438.105C405.631 435.761 404.885 432.802 404.909 429.227V376.386ZM461.794 445.065C456.183 445.065 451.354 443.929 447.306 441.656C443.281 439.36 440.18 436.116 438.002 431.926C435.824 427.712 434.734 422.729 434.734 416.976C434.734 411.365 435.824 406.441 438.002 402.203C440.18 397.965 443.245 394.663 447.199 392.295C451.176 389.928 455.84 388.744 461.19 388.744C464.789 388.744 468.139 389.324 471.24 390.484C474.365 391.621 477.088 393.337 479.408 395.634C481.752 397.93 483.574 400.818 484.877 404.298C486.179 407.755 486.83 411.803 486.83 416.443V420.598H440.771V411.223H472.59C472.59 409.045 472.116 407.116 471.169 405.435C470.222 403.754 468.908 402.44 467.227 401.493C465.57 400.522 463.641 400.037 461.439 400.037C459.143 400.037 457.107 400.57 455.331 401.635C453.579 402.677 452.206 404.085 451.212 405.861C450.217 407.613 449.708 409.566 449.685 411.72V420.634C449.685 423.332 450.182 425.664 451.176 427.629C452.194 429.594 453.627 431.109 455.473 432.175C457.32 433.24 459.51 433.773 462.043 433.773C463.724 433.773 465.262 433.536 466.659 433.062C468.056 432.589 469.252 431.879 470.246 430.932C471.24 429.985 471.998 428.825 472.519 427.452L486.51 428.375C485.8 431.737 484.344 434.672 482.142 437.182C479.964 439.668 477.147 441.609 473.69 443.006C470.258 444.379 466.292 445.065 461.794 445.065ZM514.17 444.888C510.027 444.888 506.274 443.822 502.913 441.692C499.574 439.537 496.923 436.377 494.958 432.21C493.017 428.02 492.046 422.883 492.046 416.798C492.046 410.548 493.052 405.352 495.065 401.209C497.077 397.042 499.752 393.929 503.09 391.869C506.452 389.786 510.133 388.744 514.134 388.744C517.188 388.744 519.733 389.265 521.769 390.307C523.829 391.325 525.486 392.603 526.741 394.142C528.019 395.657 528.99 397.149 529.653 398.616H530.114V371.273H545.207V444H530.292V435.264H529.653C528.942 436.779 527.936 438.283 526.634 439.774C525.356 441.242 523.687 442.461 521.627 443.432C519.591 444.402 517.105 444.888 514.17 444.888ZM518.964 432.849C521.402 432.849 523.462 432.187 525.143 430.861C526.847 429.511 528.149 427.629 529.049 425.214C529.972 422.8 530.434 419.971 530.434 416.727C530.434 413.484 529.984 410.667 529.084 408.276C528.185 405.884 526.883 404.038 525.178 402.736C523.474 401.434 521.402 400.783 518.964 400.783C516.478 400.783 514.383 401.457 512.678 402.807C510.974 404.156 509.683 406.027 508.807 408.418C507.931 410.809 507.494 413.579 507.494 416.727C507.494 419.9 507.931 422.705 508.807 425.143C509.707 427.558 510.997 429.452 512.678 430.825C514.383 432.175 516.478 432.849 518.964 432.849ZM600.171 445.065C594.584 445.065 589.778 443.882 585.753 441.514C581.752 439.123 578.674 435.809 576.52 431.571C574.389 427.333 573.324 422.456 573.324 416.94C573.324 411.353 574.401 406.453 576.556 402.239C578.734 398.001 581.823 394.698 585.824 392.331C589.825 389.94 594.584 388.744 600.1 388.744C604.858 388.744 609.025 389.608 612.6 391.337C616.174 393.065 619.004 395.491 621.087 398.616C623.17 401.741 624.318 405.411 624.532 409.625H610.256C609.853 406.902 608.788 404.713 607.06 403.055C605.355 401.375 603.118 400.534 600.348 400.534C598.005 400.534 595.957 401.173 594.205 402.452C592.477 403.706 591.127 405.541 590.157 407.956C589.186 410.371 588.701 413.295 588.701 416.727C588.701 420.207 589.174 423.167 590.121 425.605C591.092 428.044 592.453 429.902 594.205 431.18C595.957 432.459 598.005 433.098 600.348 433.098C602.076 433.098 603.627 432.743 605 432.033C606.397 431.322 607.545 430.293 608.445 428.943C609.368 427.57 609.972 425.925 610.256 424.007H624.532C624.295 428.174 623.158 431.843 621.122 435.016C619.11 438.164 616.328 440.626 612.777 442.402C609.226 444.178 605.024 445.065 600.171 445.065ZM646.713 371.273V444H631.586V371.273H646.713ZM691.179 420.776V389.455H706.307V444H691.783V434.092H691.214C689.983 437.288 687.936 439.857 685.071 441.798C682.23 443.74 678.762 444.71 674.666 444.71C671.02 444.71 667.812 443.882 665.043 442.224C662.273 440.567 660.106 438.212 658.544 435.158C657.005 432.104 656.224 428.446 656.2 424.185V389.455H671.328V421.486C671.352 424.705 672.216 427.25 673.92 429.121C675.625 430.991 677.909 431.926 680.774 431.926C682.597 431.926 684.302 431.512 685.888 430.683C687.474 429.831 688.752 428.576 689.723 426.919C690.717 425.262 691.203 423.214 691.179 420.776ZM761.159 405.009L747.31 405.861C747.073 404.677 746.564 403.612 745.783 402.665C745.001 401.694 743.972 400.925 742.693 400.357C741.439 399.765 739.935 399.469 738.183 399.469C735.84 399.469 733.863 399.966 732.253 400.96C730.643 401.931 729.838 403.233 729.838 404.866C729.838 406.169 730.359 407.269 731.401 408.169C732.442 409.069 734.23 409.791 736.763 410.335L746.635 412.324C751.938 413.413 755.892 415.165 758.496 417.58C761.1 419.994 762.402 423.167 762.402 427.097C762.402 430.671 761.349 433.808 759.242 436.507C757.158 439.206 754.294 441.313 750.648 442.828C747.026 444.32 742.847 445.065 738.112 445.065C730.892 445.065 725.139 443.562 720.854 440.555C716.592 437.525 714.095 433.406 713.361 428.197L728.24 427.416C728.69 429.618 729.779 431.299 731.507 432.459C733.235 433.595 735.449 434.163 738.148 434.163C740.799 434.163 742.93 433.654 744.54 432.636C746.173 431.595 747.002 430.257 747.026 428.624C747.002 427.25 746.422 426.126 745.286 425.25C744.149 424.35 742.397 423.664 740.03 423.19L730.584 421.308C725.257 420.243 721.292 418.396 718.688 415.768C716.107 413.141 714.817 409.791 714.817 405.719C714.817 402.215 715.764 399.196 717.658 396.663C719.575 394.13 722.262 392.177 725.719 390.804C729.199 389.431 733.271 388.744 737.935 388.744C744.824 388.744 750.245 390.2 754.199 393.112C758.176 396.024 760.496 399.99 761.159 405.009ZM798.309 389.455V400.818H765.461V389.455H798.309ZM772.919 376.386H788.046V427.239C788.046 428.635 788.259 429.724 788.686 430.506C789.112 431.263 789.704 431.796 790.461 432.104C791.242 432.411 792.142 432.565 793.16 432.565C793.87 432.565 794.58 432.506 795.291 432.388C796.001 432.246 796.545 432.139 796.924 432.068L799.303 443.325C798.546 443.562 797.481 443.834 796.107 444.142C794.734 444.473 793.065 444.675 791.1 444.746C787.455 444.888 784.259 444.402 781.512 443.29C778.79 442.177 776.671 440.449 775.156 438.105C773.641 435.761 772.895 432.802 772.919 429.227V376.386ZM829.804 445.065C824.193 445.065 819.364 443.929 815.315 441.656C811.291 439.36 808.189 436.116 806.011 431.926C803.833 427.712 802.744 422.729 802.744 416.976C802.744 411.365 803.833 406.441 806.011 402.203C808.189 397.965 811.255 394.663 815.209 392.295C819.186 389.928 823.85 388.744 829.2 388.744C832.799 388.744 836.149 389.324 839.25 390.484C842.375 391.621 845.098 393.337 847.418 395.634C849.761 397.93 851.584 400.818 852.886 404.298C854.188 407.755 854.84 411.803 854.84 416.443V420.598H808.781V411.223H840.599C840.599 409.045 840.126 407.116 839.179 405.435C838.232 403.754 836.918 402.44 835.237 401.493C833.58 400.522 831.651 400.037 829.449 400.037C827.152 400.037 825.117 400.57 823.341 401.635C821.589 402.677 820.216 404.085 819.222 405.861C818.227 407.613 817.718 409.566 817.695 411.72V420.634C817.695 423.332 818.192 425.664 819.186 427.629C820.204 429.594 821.636 431.109 823.483 432.175C825.33 433.24 827.519 433.773 830.053 433.773C831.733 433.773 833.272 433.536 834.669 433.062C836.066 432.589 837.261 431.879 838.256 430.932C839.25 429.985 840.008 428.825 840.528 427.452L854.52 428.375C853.81 431.737 852.354 434.672 850.152 437.182C847.974 439.668 845.157 441.609 841.7 443.006C838.268 444.379 834.302 445.065 829.804 445.065ZM862.08 444V389.455H876.746V398.972H877.314C878.309 395.586 879.978 393.029 882.322 391.301C884.665 389.549 887.364 388.673 890.418 388.673C891.176 388.673 891.992 388.721 892.868 388.815C893.744 388.91 894.514 389.04 895.177 389.206V402.629C894.466 402.416 893.484 402.227 892.229 402.061C890.974 401.895 889.826 401.812 888.785 401.812C886.559 401.812 884.571 402.298 882.819 403.268C881.091 404.215 879.717 405.541 878.699 407.246C877.705 408.95 877.208 410.915 877.208 413.141V444H862.08ZM945.75 405.009L931.901 405.861C931.664 404.677 931.155 403.612 930.374 402.665C929.592 401.694 928.563 400.925 927.284 400.357C926.029 399.765 924.526 399.469 922.774 399.469C920.43 399.469 918.454 399.966 916.844 400.96C915.234 401.931 914.429 403.233 914.429 404.866C914.429 406.169 914.95 407.269 915.992 408.169C917.033 409.069 918.821 409.791 921.354 410.335L931.226 412.324C936.529 413.413 940.483 415.165 943.087 417.58C945.691 419.994 946.993 423.167 946.993 427.097C946.993 430.671 945.939 433.808 943.832 436.507C941.749 439.206 938.885 441.313 935.239 442.828C931.617 444.32 927.438 445.065 922.703 445.065C915.483 445.065 909.73 443.562 905.445 440.555C901.183 437.525 898.686 433.406 897.952 428.197L912.831 427.416C913.281 429.618 914.37 431.299 916.098 432.459C917.826 433.595 920.04 434.163 922.739 434.163C925.39 434.163 927.521 433.654 929.131 432.636C930.764 431.595 931.593 430.257 931.617 428.624C931.593 427.25 931.013 426.126 929.876 425.25C928.74 424.35 926.988 423.664 924.621 423.19L915.175 421.308C909.848 420.243 905.883 418.396 903.278 415.768C900.698 413.141 899.408 409.791 899.408 405.719C899.408 402.215 900.355 399.196 902.249 396.663C904.166 394.13 906.853 392.177 910.31 390.804C913.79 389.431 917.862 388.744 922.526 388.744C929.415 388.744 934.836 390.2 938.79 393.112C942.767 396.024 945.087 399.99 945.75 405.009Z" fill="black"/>
<rect x="71" y="498" width="1038" height="19" fill="black"/>
</svg>
