<svg width="1200" height="900" viewBox="0 0 1200 900" fill="none" xmlns="http://www.w3.org/2000/svg">
<rect width="1200" height="900" fill="white"/>
<path d="M209.08 428.868H204.43C204.345 428.266 204.171 427.731 203.909 427.264C203.647 426.79 203.311 426.387 202.901 426.054C202.49 425.721 202.016 425.466 201.478 425.289C200.947 425.112 200.37 425.024 199.747 425.024C198.622 425.024 197.641 425.304 196.806 425.863C195.971 426.415 195.323 427.222 194.863 428.284C194.403 429.338 194.173 430.62 194.173 432.127C194.173 433.677 194.403 434.98 194.863 436.035C195.33 437.089 195.981 437.886 196.817 438.424C197.652 438.962 198.618 439.231 199.715 439.231C200.331 439.231 200.901 439.149 201.425 438.986C201.956 438.824 202.426 438.586 202.837 438.275C203.248 437.956 203.587 437.571 203.856 437.118C204.132 436.665 204.323 436.148 204.43 435.567L209.08 435.589C208.96 436.587 208.659 437.549 208.178 438.477C207.704 439.397 207.063 440.222 206.256 440.951C205.456 441.673 204.5 442.246 203.389 442.671C202.285 443.088 201.035 443.297 199.641 443.297C197.701 443.297 195.967 442.858 194.438 441.981C192.916 441.103 191.713 439.832 190.828 438.169C189.95 436.505 189.512 434.492 189.512 432.127C189.512 429.756 189.957 427.739 190.849 426.075C191.741 424.412 192.952 423.145 194.481 422.274C196.01 421.396 197.73 420.957 199.641 420.957C200.901 420.957 202.069 421.134 203.145 421.488C204.228 421.842 205.187 422.359 206.022 423.038C206.858 423.711 207.537 424.535 208.061 425.512C208.592 426.489 208.932 427.608 209.08 428.868ZM216.082 421.255V443H211.559V421.255H216.082ZM229.431 436.056V426.691H233.955V443H229.612V440.038H229.442C229.074 440.993 228.462 441.761 227.605 442.342C226.756 442.922 225.719 443.212 224.494 443.212C223.404 443.212 222.445 442.965 221.617 442.469C220.788 441.974 220.141 441.269 219.674 440.356C219.213 439.443 218.98 438.349 218.973 437.075V426.691H223.496V436.268C223.503 437.231 223.761 437.992 224.271 438.551C224.781 439.11 225.464 439.39 226.32 439.39C226.865 439.39 227.375 439.266 227.849 439.018C228.324 438.763 228.706 438.388 228.996 437.893C229.293 437.397 229.438 436.785 229.431 436.056ZM250.409 431.342L246.268 431.596C246.198 431.242 246.045 430.924 245.812 430.641C245.578 430.351 245.27 430.12 244.888 429.951C244.513 429.774 244.063 429.685 243.539 429.685C242.839 429.685 242.248 429.834 241.766 430.131C241.285 430.421 241.044 430.811 241.044 431.299C241.044 431.688 241.2 432.018 241.511 432.287C241.823 432.556 242.357 432.771 243.115 432.934L246.067 433.529C247.652 433.854 248.834 434.378 249.613 435.1C250.392 435.822 250.781 436.771 250.781 437.946C250.781 439.015 250.466 439.953 249.836 440.76C249.213 441.567 248.356 442.197 247.266 442.65C246.183 443.096 244.934 443.319 243.518 443.319C241.359 443.319 239.639 442.869 238.358 441.97C237.084 441.064 236.337 439.832 236.118 438.275L240.566 438.041C240.701 438.7 241.027 439.202 241.543 439.549C242.06 439.889 242.722 440.059 243.529 440.059C244.322 440.059 244.959 439.907 245.44 439.602C245.929 439.291 246.176 438.891 246.183 438.402C246.176 437.992 246.003 437.656 245.663 437.394C245.323 437.125 244.799 436.919 244.092 436.778L241.267 436.215C239.675 435.897 238.489 435.344 237.71 434.559C236.939 433.773 236.553 432.771 236.553 431.554C236.553 430.506 236.836 429.604 237.402 428.846C237.976 428.089 238.779 427.505 239.813 427.094C240.853 426.684 242.071 426.479 243.465 426.479C245.525 426.479 247.146 426.914 248.328 427.785C249.517 428.655 250.211 429.841 250.409 431.342ZM261.571 426.691V430.089H251.749V426.691H261.571ZM253.979 422.784H258.502V437.988C258.502 438.406 258.566 438.732 258.693 438.965C258.821 439.192 258.998 439.351 259.224 439.443C259.458 439.535 259.727 439.581 260.031 439.581C260.244 439.581 260.456 439.563 260.668 439.528C260.881 439.485 261.044 439.454 261.157 439.432L261.868 442.798C261.642 442.869 261.323 442.95 260.913 443.042C260.502 443.142 260.003 443.202 259.415 443.223C258.325 443.265 257.37 443.12 256.549 442.788C255.735 442.455 255.101 441.938 254.648 441.237C254.195 440.537 253.972 439.652 253.979 438.583V422.784ZM271.042 443.319C269.364 443.319 267.92 442.979 266.71 442.299C265.506 441.613 264.579 440.643 263.928 439.39C263.276 438.13 262.951 436.64 262.951 434.92C262.951 433.242 263.276 431.77 263.928 430.503C264.579 429.236 265.496 428.248 266.678 427.54C267.867 426.832 269.261 426.479 270.861 426.479C271.937 426.479 272.939 426.652 273.866 426.999C274.8 427.339 275.614 427.852 276.308 428.538C277.009 429.225 277.554 430.089 277.943 431.129C278.333 432.163 278.527 433.373 278.527 434.761V436.003H264.756V433.2H274.27C274.27 432.548 274.128 431.972 273.845 431.469C273.562 430.966 273.169 430.574 272.666 430.29C272.171 430 271.594 429.855 270.936 429.855C270.249 429.855 269.64 430.014 269.109 430.333C268.585 430.644 268.175 431.065 267.878 431.596C267.58 432.12 267.428 432.704 267.421 433.348V436.013C267.421 436.82 267.57 437.518 267.867 438.105C268.171 438.693 268.6 439.146 269.152 439.464C269.704 439.783 270.359 439.942 271.116 439.942C271.619 439.942 272.079 439.871 272.496 439.73C272.914 439.588 273.271 439.376 273.569 439.093C273.866 438.809 274.093 438.463 274.248 438.052L278.432 438.328C278.219 439.333 277.784 440.211 277.126 440.961C276.475 441.705 275.632 442.285 274.599 442.703C273.572 443.113 272.387 443.319 271.042 443.319ZM280.746 443V426.691H285.131V429.537H285.301C285.598 428.524 286.097 427.76 286.798 427.243C287.499 426.719 288.306 426.457 289.219 426.457C289.446 426.457 289.69 426.471 289.952 426.5C290.214 426.528 290.444 426.567 290.642 426.617V430.63C290.43 430.566 290.136 430.51 289.761 430.46C289.385 430.411 289.042 430.386 288.731 430.386C288.065 430.386 287.471 430.531 286.947 430.821C286.43 431.104 286.02 431.501 285.715 432.01C285.418 432.52 285.269 433.108 285.269 433.773V443H280.746ZM302.268 443H297.341L304.848 421.255H310.773L318.269 443H313.342L307.895 426.224H307.725L302.268 443ZM301.96 434.453H313.597V438.041H301.96V434.453Z" fill="black"/>
<path d="M524.38 361.868H519.729C519.644 361.266 519.471 360.731 519.209 360.264C518.947 359.79 518.611 359.387 518.2 359.054C517.789 358.721 517.315 358.466 516.777 358.289C516.246 358.112 515.669 358.024 515.047 358.024C513.921 358.024 512.941 358.304 512.105 358.863C511.27 359.415 510.622 360.222 510.162 361.284C509.702 362.338 509.472 363.62 509.472 365.127C509.472 366.677 509.702 367.98 510.162 369.035C510.629 370.089 511.281 370.886 512.116 371.424C512.951 371.962 513.918 372.231 515.015 372.231C515.631 372.231 516.2 372.149 516.724 371.986C517.255 371.824 517.726 371.586 518.136 371.275C518.547 370.956 518.887 370.571 519.156 370.118C519.432 369.665 519.623 369.148 519.729 368.567L524.38 368.589C524.259 369.587 523.958 370.549 523.477 371.477C523.003 372.397 522.362 373.222 521.555 373.951C520.755 374.673 519.8 375.246 518.688 375.671C517.584 376.088 516.335 376.297 514.94 376.297C513.001 376.297 511.267 375.858 509.738 374.981C508.216 374.103 507.012 372.832 506.128 371.169C505.25 369.505 504.811 367.492 504.811 365.127C504.811 362.756 505.257 360.739 506.149 359.075C507.041 357.412 508.251 356.145 509.78 355.274C511.309 354.396 513.029 353.957 514.94 353.957C516.2 353.957 517.368 354.134 518.444 354.488C519.527 354.842 520.486 355.359 521.322 356.038C522.157 356.711 522.837 357.535 523.36 358.512C523.891 359.489 524.231 360.608 524.38 361.868ZM531.382 354.255V376H526.859V354.255H531.382ZM544.731 369.056V359.691H549.254V376H544.911V373.038H544.741C544.373 373.993 543.761 374.761 542.904 375.342C542.055 375.922 541.018 376.212 539.793 376.212C538.703 376.212 537.744 375.965 536.916 375.469C536.088 374.974 535.44 374.269 534.973 373.356C534.513 372.443 534.279 371.349 534.272 370.075V359.691H538.795V369.268C538.802 370.231 539.061 370.992 539.57 371.551C540.08 372.11 540.763 372.39 541.62 372.39C542.165 372.39 542.674 372.266 543.149 372.018C543.623 371.763 544.005 371.388 544.295 370.893C544.593 370.397 544.738 369.785 544.731 369.056ZM565.709 364.342L561.568 364.596C561.497 364.242 561.345 363.924 561.111 363.641C560.877 363.351 560.57 363.12 560.187 362.951C559.812 362.774 559.363 362.685 558.839 362.685C558.138 362.685 557.547 362.834 557.066 363.131C556.584 363.421 556.344 363.811 556.344 364.299C556.344 364.688 556.499 365.018 556.811 365.287C557.122 365.556 557.657 365.771 558.414 365.934L561.366 366.529C562.952 366.854 564.134 367.378 564.912 368.1C565.691 368.822 566.08 369.771 566.08 370.946C566.08 372.015 565.765 372.953 565.135 373.76C564.512 374.567 563.656 375.197 562.566 375.65C561.483 376.096 560.233 376.319 558.818 376.319C556.659 376.319 554.939 375.869 553.657 374.97C552.383 374.064 551.636 372.832 551.417 371.275L555.866 371.041C556 371.7 556.326 372.202 556.843 372.549C557.359 372.889 558.021 373.059 558.828 373.059C559.621 373.059 560.258 372.907 560.739 372.602C561.228 372.291 561.476 371.891 561.483 371.402C561.476 370.992 561.302 370.656 560.962 370.394C560.623 370.125 560.099 369.919 559.391 369.778L556.567 369.215C554.974 368.897 553.788 368.344 553.01 367.559C552.238 366.773 551.852 365.771 551.852 364.554C551.852 363.506 552.135 362.604 552.702 361.846C553.275 361.089 554.078 360.505 555.112 360.094C556.153 359.684 557.37 359.479 558.765 359.479C560.824 359.479 562.445 359.914 563.628 360.785C564.817 361.655 565.51 362.841 565.709 364.342ZM576.87 359.691V363.089H567.049V359.691H576.87ZM569.278 355.784H573.802V370.988C573.802 371.406 573.865 371.732 573.993 371.965C574.12 372.192 574.297 372.351 574.524 372.443C574.757 372.535 575.026 372.581 575.331 372.581C575.543 372.581 575.755 372.563 575.968 372.528C576.18 372.485 576.343 372.454 576.456 372.432L577.168 375.798C576.941 375.869 576.623 375.95 576.212 376.042C575.801 376.142 575.302 376.202 574.715 376.223C573.625 376.265 572.669 376.12 571.848 375.788C571.034 375.455 570.4 374.938 569.947 374.237C569.494 373.537 569.271 372.652 569.278 371.583V355.784ZM586.341 376.319C584.663 376.319 583.219 375.979 582.009 375.299C580.806 374.613 579.878 373.643 579.227 372.39C578.576 371.13 578.25 369.64 578.25 367.92C578.25 366.242 578.576 364.77 579.227 363.503C579.878 362.236 580.795 361.248 581.977 360.54C583.166 359.832 584.561 359.479 586.161 359.479C587.236 359.479 588.238 359.652 589.165 359.999C590.1 360.339 590.914 360.852 591.608 361.538C592.308 362.225 592.853 363.089 593.243 364.129C593.632 365.163 593.827 366.373 593.827 367.761V369.003H580.055V366.2H589.569C589.569 365.548 589.427 364.972 589.144 364.469C588.861 363.966 588.468 363.574 587.966 363.29C587.47 363 586.893 362.855 586.235 362.855C585.548 362.855 584.939 363.014 584.409 363.333C583.885 363.644 583.474 364.065 583.177 364.596C582.88 365.12 582.727 365.704 582.72 366.348V369.013C582.72 369.82 582.869 370.518 583.166 371.105C583.471 371.693 583.899 372.146 584.451 372.464C585.003 372.783 585.658 372.942 586.415 372.942C586.918 372.942 587.378 372.871 587.796 372.73C588.213 372.588 588.571 372.376 588.868 372.093C589.165 371.809 589.392 371.463 589.548 371.052L593.731 371.328C593.519 372.333 593.083 373.211 592.425 373.961C591.774 374.705 590.932 375.285 589.898 375.703C588.872 376.113 587.686 376.319 586.341 376.319ZM596.045 376V359.691H600.431V362.537H600.6C600.898 361.524 601.397 360.76 602.098 360.243C602.798 359.719 603.605 359.457 604.518 359.457C604.745 359.457 604.989 359.471 605.251 359.5C605.513 359.528 605.743 359.567 605.941 359.617V363.63C605.729 363.566 605.435 363.51 605.06 363.46C604.685 363.411 604.342 363.386 604.03 363.386C603.365 363.386 602.77 363.531 602.246 363.821C601.73 364.104 601.319 364.501 601.015 365.01C600.717 365.52 600.569 366.108 600.569 366.773V376H596.045ZM613.819 376V354.255H622.526C624.125 354.255 625.46 354.492 626.529 354.966C627.597 355.44 628.401 356.099 628.939 356.941C629.477 357.776 629.746 358.739 629.746 359.829C629.746 360.678 629.576 361.425 629.236 362.069C628.896 362.706 628.429 363.23 627.835 363.641C627.247 364.044 626.575 364.331 625.817 364.501V364.713C626.645 364.749 627.42 364.982 628.143 365.414C628.872 365.846 629.463 366.451 629.916 367.23C630.369 368.001 630.595 368.921 630.595 369.99C630.595 371.144 630.309 372.174 629.735 373.08C629.169 373.979 628.33 374.69 627.219 375.214C626.107 375.738 624.738 376 623.11 376H613.819ZM618.417 372.241H622.165C623.446 372.241 624.38 371.997 624.968 371.509C625.555 371.013 625.849 370.355 625.849 369.534C625.849 368.932 625.704 368.401 625.414 367.941C625.123 367.481 624.709 367.12 624.171 366.858C623.641 366.596 623.007 366.465 622.271 366.465H618.417V372.241ZM618.417 363.354H621.825C622.455 363.354 623.014 363.244 623.502 363.025C623.998 362.798 624.387 362.48 624.67 362.069C624.961 361.659 625.106 361.167 625.106 360.593C625.106 359.808 624.826 359.174 624.267 358.693C623.715 358.211 622.929 357.971 621.91 357.971H618.417V363.354Z" fill="black"/>
<path d="M847.522 542.868H842.871C842.786 542.266 842.613 541.731 842.351 541.264C842.089 540.79 841.753 540.387 841.342 540.054C840.932 539.721 840.457 539.466 839.92 539.289C839.389 539.112 838.812 539.024 838.189 539.024C837.063 539.024 836.083 539.304 835.248 539.863C834.412 540.415 833.765 541.222 833.305 542.284C832.844 543.338 832.614 544.62 832.614 546.127C832.614 547.677 832.844 548.98 833.305 550.035C833.772 551.089 834.423 551.886 835.258 552.424C836.094 552.962 837.06 553.231 838.157 553.231C838.773 553.231 839.343 553.149 839.866 552.986C840.397 552.824 840.868 552.586 841.279 552.275C841.689 551.956 842.029 551.571 842.298 551.118C842.574 550.665 842.765 550.148 842.871 549.567L847.522 549.589C847.402 550.587 847.101 551.549 846.619 552.477C846.145 553.397 845.505 554.222 844.698 554.951C843.898 555.673 842.942 556.246 841.831 556.671C840.726 557.088 839.477 557.297 838.083 557.297C836.143 557.297 834.409 556.858 832.88 555.981C831.358 555.103 830.155 553.832 829.27 552.169C828.392 550.505 827.953 548.492 827.953 546.127C827.953 543.756 828.399 541.739 829.291 540.075C830.183 538.412 831.393 537.145 832.922 536.274C834.451 535.396 836.171 534.957 838.083 534.957C839.343 534.957 840.511 535.134 841.587 535.488C842.67 535.842 843.629 536.359 844.464 537.038C845.299 537.711 845.979 538.535 846.503 539.512C847.033 540.489 847.373 541.608 847.522 542.868ZM854.524 535.255V557H850.001V535.255H854.524ZM867.873 550.056V540.691H872.396V557H868.053V554.038H867.884C867.515 554.993 866.903 555.761 866.047 556.342C865.197 556.922 864.16 557.212 862.936 557.212C861.846 557.212 860.886 556.965 860.058 556.469C859.23 555.974 858.582 555.269 858.115 554.356C857.655 553.443 857.421 552.349 857.414 551.075V540.691H861.938V550.268C861.945 551.231 862.203 551.992 862.713 552.551C863.222 553.11 863.905 553.39 864.762 553.39C865.307 553.39 865.817 553.266 866.291 553.018C866.765 552.763 867.147 552.388 867.438 551.893C867.735 551.397 867.88 550.785 867.873 550.056ZM888.851 545.342L884.71 545.596C884.639 545.242 884.487 544.924 884.253 544.641C884.02 544.351 883.712 544.12 883.33 543.951C882.954 543.774 882.505 543.685 881.981 543.685C881.28 543.685 880.689 543.834 880.208 544.131C879.727 544.421 879.486 544.811 879.486 545.299C879.486 545.688 879.642 546.018 879.953 546.287C880.265 546.556 880.799 546.771 881.556 546.934L884.508 547.529C886.094 547.854 887.276 548.378 888.055 549.1C888.833 549.822 889.223 550.771 889.223 551.946C889.223 553.015 888.908 553.953 888.278 554.76C887.655 555.567 886.798 556.197 885.708 556.65C884.625 557.096 883.376 557.319 881.96 557.319C879.801 557.319 878.081 556.869 876.8 555.97C875.525 555.064 874.779 553.832 874.559 552.275L879.008 552.041C879.143 552.7 879.468 553.202 879.985 553.549C880.502 553.889 881.164 554.059 881.97 554.059C882.763 554.059 883.4 553.907 883.882 553.602C884.37 553.291 884.618 552.891 884.625 552.402C884.618 551.992 884.444 551.656 884.105 551.394C883.765 551.125 883.241 550.919 882.533 550.778L879.709 550.215C878.116 549.897 876.931 549.344 876.152 548.559C875.38 547.773 874.995 546.771 874.995 545.554C874.995 544.506 875.278 543.604 875.844 542.846C876.417 542.089 877.221 541.505 878.254 541.094C879.295 540.684 880.512 540.479 881.907 540.479C883.967 540.479 885.588 540.914 886.77 541.785C887.959 542.655 888.653 543.841 888.851 545.342ZM900.013 540.691V544.089H890.191V540.691H900.013ZM892.421 536.784H896.944V551.988C896.944 552.406 897.008 552.732 897.135 552.965C897.262 553.192 897.439 553.351 897.666 553.443C897.9 553.535 898.169 553.581 898.473 553.581C898.685 553.581 898.898 553.563 899.11 553.528C899.322 553.485 899.485 553.454 899.598 553.432L900.31 556.798C900.083 556.869 899.765 556.95 899.354 557.042C898.944 557.142 898.445 557.202 897.857 557.223C896.767 557.265 895.811 557.12 894.99 556.788C894.176 556.455 893.543 555.938 893.09 555.237C892.637 554.537 892.414 553.652 892.421 552.583V536.784ZM909.483 557.319C907.806 557.319 906.362 556.979 905.151 556.299C903.948 555.613 903.021 554.643 902.369 553.39C901.718 552.13 901.392 550.64 901.392 548.92C901.392 547.242 901.718 545.77 902.369 544.503C903.021 543.236 903.937 542.248 905.119 541.54C906.309 540.832 907.703 540.479 909.303 540.479C910.379 540.479 911.38 540.652 912.308 540.999C913.242 541.339 914.056 541.852 914.75 542.538C915.451 543.225 915.996 544.089 916.385 545.129C916.774 546.163 916.969 547.373 916.969 548.761V550.003H903.198V547.2H912.711C912.711 546.548 912.57 545.972 912.286 545.469C912.003 544.966 911.61 544.574 911.108 544.29C910.612 544 910.035 543.855 909.377 543.855C908.69 543.855 908.082 544.014 907.551 544.333C907.027 544.644 906.616 545.065 906.319 545.596C906.022 546.12 905.87 546.704 905.863 547.348V550.013C905.863 550.82 906.011 551.518 906.309 552.105C906.613 552.693 907.041 553.146 907.593 553.464C908.145 553.783 908.8 553.942 909.558 553.942C910.06 553.942 910.52 553.871 910.938 553.73C911.356 553.588 911.713 553.376 912.01 553.093C912.308 552.809 912.534 552.463 912.69 552.052L916.873 552.328C916.661 553.333 916.226 554.211 915.567 554.961C914.916 555.705 914.074 556.285 913.04 556.703C912.014 557.113 910.828 557.319 909.483 557.319ZM919.188 557V540.691H923.573V543.537H923.743C924.04 542.524 924.539 541.76 925.24 541.243C925.941 540.719 926.748 540.457 927.661 540.457C927.887 540.457 928.131 540.471 928.393 540.5C928.655 540.528 928.885 540.567 929.084 540.617V544.63C928.871 544.566 928.577 544.51 928.202 544.46C927.827 544.411 927.484 544.386 927.172 544.386C926.507 544.386 925.912 544.531 925.389 544.821C924.872 545.104 924.461 545.501 924.157 546.01C923.86 546.52 923.711 547.108 923.711 547.773V557H919.188ZM956.148 542.868H951.497C951.412 542.266 951.239 541.731 950.977 541.264C950.715 540.79 950.379 540.387 949.968 540.054C949.558 539.721 949.083 539.466 948.545 539.289C948.014 539.112 947.438 539.024 946.815 539.024C945.689 539.024 944.709 539.304 943.873 539.863C943.038 540.415 942.39 541.222 941.93 542.284C941.47 543.338 941.24 544.62 941.24 546.127C941.24 547.677 941.47 548.98 941.93 550.035C942.398 551.089 943.049 551.886 943.884 552.424C944.719 552.962 945.686 553.231 946.783 553.231C947.399 553.231 947.968 553.149 948.492 552.986C949.023 552.824 949.494 552.586 949.904 552.275C950.315 551.956 950.655 551.571 950.924 551.118C951.2 550.665 951.391 550.148 951.497 549.567L956.148 549.589C956.027 550.587 955.727 551.549 955.245 552.477C954.771 553.397 954.13 554.222 953.323 554.951C952.524 555.673 951.568 556.246 950.457 556.671C949.352 557.088 948.103 557.297 946.708 557.297C944.769 557.297 943.035 556.858 941.506 555.981C939.984 555.103 938.78 553.832 937.896 552.169C937.018 550.505 936.579 548.492 936.579 546.127C936.579 543.756 937.025 541.739 937.917 540.075C938.809 538.412 940.019 537.145 941.548 536.274C943.077 535.396 944.797 534.957 946.708 534.957C947.968 534.957 949.136 535.134 950.212 535.488C951.295 535.842 952.255 536.359 953.09 537.038C953.925 537.711 954.605 538.535 955.128 539.512C955.659 540.489 955.999 541.608 956.148 542.868Z" fill="black"/>
<g clip-path="url(#clip0_12_48895)">
<path d="M566.097 190.919C564.943 190.987 563.815 191.286 562.779 191.798L517.851 213.228C515.505 214.345 513.8 216.469 513.215 219.001L502.218 267.098C501.694 269.355 502.117 271.722 503.427 273.657C503.58 273.89 503.742 274.116 503.911 274.334L534.951 312.929C536.592 314.945 539.055 316.102 541.651 316.089H591.437C594.042 316.093 596.509 314.88 598.145 312.893L629.17 274.289C630.798 272.274 631.407 269.613 630.782 267.09L619.713 218.952C619.128 216.421 617.415 214.296 615.077 213.18L570.221 191.802C568.928 191.164 567.497 190.861 566.057 190.919H566.097Z" fill="#326CE5"/>
<path d="M566.509 207.311C564.961 207.419 563.787 208.746 563.868 210.294V211.052C563.941 211.91 564.07 212.761 564.239 213.603C564.486 215.217 564.575 216.85 564.505 218.481C564.352 219.017 564.045 219.501 563.626 219.872L563.566 221.009C561.933 221.146 560.313 221.396 558.716 221.759C552 223.274 545.885 226.757 541.164 231.776L540.197 231.091C539.664 231.252 539.092 231.192 538.604 230.93C537.296 229.961 536.085 228.868 534.988 227.664C534.437 227.006 533.849 226.38 533.227 225.79L532.63 225.314C532.098 224.887 531.445 224.641 530.763 224.609C530.357 224.587 529.951 224.662 529.579 224.827C529.207 224.993 528.879 225.244 528.623 225.56C527.712 226.838 528.01 228.608 529.284 229.523L529.84 229.966C530.556 230.443 531.299 230.877 532.066 231.268C533.493 232.062 534.839 232.994 536.089 234.09C536.408 234.546 536.594 235.082 536.625 235.638L537.504 236.444C532.759 243.564 530.812 252.186 532.029 260.656L530.901 260.979C530.606 261.446 530.215 261.845 529.748 262.14C528.173 262.56 526.561 262.826 524.934 262.934C524.071 262.951 523.21 263.019 522.354 263.135L521.641 263.297H521.56C521.065 263.365 520.599 263.57 520.213 263.888C519.827 264.206 519.537 264.625 519.376 265.098C519.214 265.571 519.187 266.08 519.297 266.567C519.407 267.055 519.651 267.502 520 267.86C520.353 268.216 520.797 268.466 521.284 268.584C521.771 268.701 522.281 268.681 522.757 268.525H522.81L523.535 268.444C524.354 268.203 525.16 267.904 525.946 267.566C527.458 266.961 529.026 266.497 530.63 266.195C531.187 266.227 531.719 266.417 532.17 266.739L533.38 266.538C536 274.669 541.507 281.558 548.86 285.9L548.368 286.928C548.594 287.399 548.678 287.923 548.61 288.443C547.945 289.983 547.13 291.459 546.179 292.846C545.657 293.534 545.175 294.251 544.736 294.994L544.393 295.72C544.145 296.151 544.02 296.643 544.033 297.14C544.046 297.638 544.197 298.122 544.468 298.54C544.739 298.957 545.12 299.292 545.569 299.506C546.019 299.721 546.518 299.807 547.013 299.755C547.51 299.699 547.981 299.507 548.374 299.2C548.768 298.892 549.068 298.482 549.243 298.014L549.577 297.328C549.884 296.522 550.142 295.7 550.351 294.869C551.065 293.108 551.452 291.217 552.427 290.048C552.746 289.748 553.148 289.552 553.58 289.484L554.185 288.383C562.156 291.447 570.975 291.468 578.961 288.443L579.497 289.471C580.045 289.552 580.537 289.854 580.868 290.298C581.626 291.741 582.238 293.253 582.706 294.813C582.919 295.648 583.18 296.471 583.488 297.276L583.823 297.961C583.999 298.427 584.3 298.836 584.694 299.141C585.088 299.447 585.558 299.638 586.053 299.692C586.549 299.747 587.049 299.663 587.5 299.451C587.951 299.239 588.334 298.906 588.608 298.489C588.879 298.07 589.028 297.584 589.039 297.086C589.051 296.587 588.924 296.094 588.672 295.663L588.322 294.938C587.882 294.197 587.4 293.482 586.878 292.797C585.951 291.459 585.153 290.032 584.46 288.536C584.395 288.263 584.386 287.979 584.433 287.702C584.48 287.425 584.582 287.16 584.734 286.924C584.562 286.572 584.412 286.21 584.286 285.839C591.623 281.465 597.106 274.552 599.698 266.409L600.843 266.61C601.254 266.235 601.794 266.038 602.346 266.054C603.947 266.36 605.515 266.86 607.031 267.425C607.817 267.787 608.623 268.094 609.441 268.352C609.635 268.404 609.917 268.448 610.135 268.501H610.187C610.663 268.655 611.172 268.673 611.658 268.555C612.144 268.436 612.587 268.185 612.938 267.829C613.29 267.474 613.536 267.027 613.648 266.54C613.761 266.053 613.737 265.544 613.577 265.07C613.414 264.597 613.123 264.178 612.736 263.86C612.349 263.543 611.881 263.339 611.384 263.272L610.602 263.087C609.747 262.97 608.886 262.903 608.022 262.885C606.394 262.781 604.781 262.514 603.209 262.091C602.725 261.821 602.322 261.418 602.048 260.93L600.96 260.608C602.12 252.142 600.132 243.545 595.372 236.448L596.324 235.57C596.283 235.017 596.465 234.469 596.824 234.046C598.061 232.982 599.404 232.042 600.814 231.24C601.581 230.849 602.324 230.414 603.04 229.938L603.628 229.462C604.062 229.193 604.41 228.807 604.633 228.348C604.856 227.89 604.945 227.377 604.889 226.87C604.832 226.363 604.634 225.883 604.316 225.484C603.998 225.085 603.574 224.784 603.092 224.617C602.611 224.449 602.092 224.421 601.596 224.536C601.099 224.651 600.645 224.904 600.286 225.266L599.69 225.741C599.067 226.332 598.479 226.958 597.928 227.616C596.864 228.833 595.687 229.942 594.409 230.934C593.893 231.144 593.329 231.205 592.78 231.111L591.76 231.837C585.875 225.669 577.945 221.839 569.447 221.073C569.447 220.67 569.395 220.065 569.387 219.876C568.931 219.562 568.613 219.082 568.508 218.538C568.452 216.91 568.555 215.28 568.814 213.672C568.988 212.825 569.109 211.979 569.185 211.12V210.314C569.266 208.766 568.097 207.44 566.545 207.331L566.509 207.311ZM563.146 228.136L562.34 242.217H562.28C562.239 243.088 561.727 243.83 560.941 244.249C560.155 244.668 559.224 244.543 558.523 244.031L546.973 235.848C550.649 232.237 555.261 229.725 560.288 228.596C561.232 228.394 562.183 228.241 563.138 228.136H563.146ZM569.871 228.136C575.938 228.89 581.585 231.615 585.955 235.892L574.515 244.023C573.809 244.588 572.842 244.7 572.023 244.313C571.205 243.926 570.681 243.104 570.669 242.201L569.871 228.136ZM542.781 241.145L553.342 250.57V250.63C554 251.203 554.286 252.094 554.092 252.944C553.899 253.795 553.246 254.468 552.411 254.698V254.738L538.858 258.636C538.188 252.53 539.569 246.375 542.785 241.141L542.781 241.145ZM590.16 241.145C593.369 246.365 594.788 252.489 594.199 258.588L580.626 254.678V254.625C579.779 254.396 579.134 253.722 578.945 252.872C578.755 252.021 579.038 251.138 579.695 250.558L590.176 241.177L590.16 241.145ZM564.344 251.304H568.665L571.306 254.658L570.346 258.85L566.464 260.717L562.574 258.85L561.659 254.658L564.344 251.304ZM578.187 262.744C578.368 262.724 578.59 262.724 578.731 262.744L592.708 265.103C590.692 270.908 586.713 275.866 581.521 279.184L576.119 266.106C575.971 265.755 575.908 265.374 575.938 264.994C575.968 264.614 576.088 264.247 576.289 263.924C576.49 263.6 576.766 263.33 577.094 263.135C577.421 262.94 577.791 262.827 578.171 262.805L578.187 262.744ZM554.713 262.805C555.503 262.817 556.233 263.224 556.664 263.885C557.096 264.546 557.164 265.377 556.854 266.102V266.155L551.484 279.127C546.344 275.834 542.442 270.936 540.366 265.191L554.221 262.841C554.374 262.825 554.532 262.825 554.689 262.841L554.713 262.805ZM566.42 268.448C566.86 268.435 567.296 268.543 567.678 268.763C568.06 268.982 568.374 269.303 568.585 269.69H568.637L575.466 282.014L572.737 282.82C567.714 283.969 562.469 283.699 557.587 282.038L564.441 269.714C564.856 268.989 565.622 268.545 566.456 268.525L566.42 268.448Z" fill="white" stroke="white" stroke-width="1.16816"/>
</g>
<g clip-path="url(#clip1_12_48895)">
<path d="M890.097 374.919C888.943 374.987 887.815 375.286 886.779 375.798L841.851 397.228C839.505 398.345 837.8 400.469 837.215 403.001L826.218 451.098C825.694 453.355 826.117 455.722 827.427 457.657C827.58 457.89 827.742 458.116 827.911 458.334L858.951 496.929C860.592 498.945 863.055 500.102 865.651 500.089H915.437C918.042 500.093 920.509 498.88 922.145 496.893L953.17 458.289C954.798 456.274 955.407 453.613 954.782 451.09L943.713 402.952C943.128 400.421 941.415 398.296 939.077 397.18L894.221 375.802C892.928 375.164 891.497 374.861 890.057 374.919H890.097Z" fill="#326CE5"/>
<path d="M890.509 391.311C888.961 391.419 887.787 392.746 887.868 394.294V395.052C887.941 395.91 888.07 396.761 888.239 397.603C888.486 399.217 888.575 400.85 888.505 402.481C888.352 403.017 888.045 403.501 887.626 403.872L887.566 405.009C885.933 405.146 884.313 405.396 882.716 405.759C876 407.274 869.885 410.757 865.164 415.776L864.197 415.091C863.664 415.252 863.092 415.192 862.604 414.93C861.296 413.961 860.085 412.868 858.988 411.664C858.437 411.006 857.849 410.38 857.227 409.79L856.63 409.314C856.098 408.887 855.445 408.641 854.763 408.609C854.357 408.587 853.951 408.662 853.579 408.827C853.207 408.993 852.879 409.244 852.623 409.56C851.712 410.838 852.01 412.608 853.284 413.523L853.84 413.966C854.556 414.443 855.299 414.877 856.066 415.268C857.493 416.062 858.839 416.994 860.089 418.09C860.408 418.546 860.594 419.082 860.625 419.638L861.504 420.444C856.759 427.564 854.812 436.186 856.029 444.656L854.901 444.979C854.606 445.446 854.215 445.845 853.748 446.14C852.173 446.56 850.561 446.826 848.934 446.934C848.071 446.951 847.21 447.019 846.354 447.135L845.641 447.297H845.56C845.065 447.365 844.599 447.57 844.213 447.888C843.827 448.206 843.537 448.625 843.376 449.098C843.214 449.571 843.187 450.08 843.297 450.567C843.407 451.055 843.651 451.502 844 451.86C844.353 452.216 844.797 452.466 845.284 452.584C845.771 452.701 846.281 452.681 846.757 452.525H846.81L847.535 452.444C848.354 452.203 849.16 451.904 849.946 451.566C851.458 450.961 853.026 450.497 854.63 450.195C855.187 450.227 855.719 450.417 856.17 450.739L857.38 450.538C860 458.669 865.507 465.558 872.86 469.9L872.368 470.928C872.594 471.399 872.678 471.923 872.61 472.443C871.945 473.983 871.13 475.459 870.179 476.846C869.657 477.534 869.175 478.251 868.736 478.994L868.393 479.72C868.145 480.151 868.02 480.643 868.033 481.14C868.046 481.638 868.197 482.122 868.468 482.54C868.739 482.957 869.12 483.292 869.569 483.506C870.019 483.721 870.518 483.807 871.013 483.755C871.51 483.699 871.981 483.507 872.374 483.2C872.768 482.892 873.068 482.482 873.243 482.014L873.577 481.328C873.884 480.522 874.142 479.7 874.351 478.869C875.065 477.108 875.452 475.217 876.427 474.048C876.746 473.748 877.148 473.552 877.58 473.484L878.185 472.383C886.156 475.447 894.975 475.468 902.961 472.443L903.497 473.471C904.045 473.552 904.537 473.854 904.868 474.298C905.626 475.741 906.238 477.253 906.706 478.813C906.919 479.648 907.18 480.471 907.488 481.276L907.823 481.961C907.999 482.427 908.3 482.836 908.694 483.141C909.088 483.447 909.558 483.638 910.053 483.692C910.549 483.747 911.049 483.663 911.5 483.451C911.951 483.239 912.334 482.906 912.608 482.489C912.879 482.07 913.028 481.584 913.039 481.086C913.051 480.587 912.924 480.094 912.672 479.663L912.322 478.938C911.882 478.197 911.4 477.482 910.878 476.797C909.951 475.459 909.153 474.032 908.46 472.536C908.395 472.263 908.386 471.979 908.433 471.702C908.48 471.425 908.582 471.16 908.734 470.924C908.562 470.572 908.412 470.21 908.286 469.839C915.623 465.465 921.106 458.552 923.698 450.409L924.843 450.61C925.254 450.235 925.794 450.038 926.346 450.054C927.947 450.36 929.515 450.86 931.031 451.425C931.817 451.787 932.623 452.094 933.441 452.352C933.635 452.404 933.917 452.448 934.135 452.501H934.187C934.663 452.655 935.172 452.673 935.658 452.555C936.144 452.436 936.587 452.185 936.938 451.829C937.29 451.474 937.536 451.027 937.648 450.54C937.761 450.053 937.737 449.544 937.577 449.07C937.414 448.597 937.123 448.178 936.736 447.86C936.349 447.543 935.881 447.339 935.384 447.272L934.602 447.087C933.747 446.97 932.886 446.903 932.022 446.885C930.394 446.781 928.781 446.514 927.209 446.091C926.725 445.821 926.322 445.418 926.048 444.93L924.96 444.608C926.12 436.142 924.132 427.545 919.372 420.448L920.324 419.57C920.283 419.017 920.465 418.469 920.824 418.046C922.061 416.982 923.404 416.042 924.814 415.24C925.581 414.849 926.324 414.414 927.04 413.938L927.628 413.462C928.062 413.193 928.41 412.807 928.633 412.348C928.856 411.89 928.945 411.377 928.889 410.87C928.832 410.363 928.634 409.883 928.316 409.484C927.998 409.085 927.574 408.784 927.092 408.617C926.611 408.449 926.092 408.421 925.596 408.536C925.099 408.651 924.645 408.904 924.286 409.266L923.69 409.741C923.067 410.332 922.479 410.958 921.928 411.616C920.864 412.833 919.687 413.942 918.409 414.934C917.893 415.144 917.329 415.205 916.78 415.111L915.76 415.837C909.875 409.669 901.945 405.839 893.447 405.073C893.447 404.67 893.395 404.065 893.387 403.876C892.931 403.562 892.613 403.082 892.508 402.538C892.452 400.91 892.555 399.28 892.814 397.672C892.988 396.825 893.109 395.979 893.185 395.12V394.314C893.266 392.766 892.097 391.44 890.545 391.331L890.509 391.311ZM887.146 412.136L886.34 426.217H886.28C886.239 427.088 885.727 427.83 884.941 428.249C884.155 428.668 883.224 428.543 882.523 428.031L870.973 419.848C874.649 416.237 879.261 413.725 884.288 412.596C885.232 412.394 886.183 412.241 887.138 412.136H887.146ZM893.871 412.136C899.938 412.89 905.585 415.615 909.955 419.892L898.515 428.023C897.809 428.588 896.842 428.7 896.023 428.313C895.205 427.926 894.681 427.104 894.669 426.201L893.871 412.136ZM866.781 425.145L877.342 434.57V434.63C878 435.203 878.286 436.094 878.092 436.944C877.899 437.795 877.246 438.468 876.411 438.698V438.738L862.858 442.636C862.188 436.53 863.569 430.375 866.785 425.141L866.781 425.145ZM914.16 425.145C917.369 430.365 918.788 436.489 918.199 442.588L904.626 438.678V438.625C903.779 438.396 903.134 437.722 902.945 436.872C902.755 436.021 903.038 435.138 903.695 434.558L914.176 425.177L914.16 425.145ZM888.344 435.304H892.665L895.306 438.658L894.346 442.85L890.464 444.717L886.574 442.85L885.659 438.658L888.344 435.304ZM902.187 446.744C902.368 446.724 902.59 446.724 902.731 446.744L916.708 449.103C914.692 454.908 910.713 459.866 905.521 463.184L900.119 450.106C899.971 449.755 899.908 449.374 899.938 448.994C899.968 448.614 900.088 448.247 900.289 447.924C900.49 447.6 900.766 447.33 901.094 447.135C901.421 446.94 901.791 446.827 902.171 446.805L902.187 446.744ZM878.713 446.805C879.503 446.817 880.233 447.224 880.664 447.885C881.096 448.546 881.164 449.377 880.854 450.102V450.155L875.484 463.127C870.344 459.834 866.442 454.936 864.366 449.191L878.221 446.841C878.374 446.825 878.532 446.825 878.689 446.841L878.713 446.805ZM890.42 452.448C890.86 452.435 891.296 452.543 891.678 452.763C892.06 452.982 892.374 453.303 892.585 453.69H892.637L899.466 466.014L896.737 466.82C891.714 467.969 886.469 467.699 881.587 466.038L888.441 453.714C888.856 452.989 889.622 452.545 890.456 452.525L890.42 452.448Z" fill="white" stroke="white" stroke-width="1.16816"/>
</g>
<g clip-path="url(#clip2_12_48895)">
<path d="M259.097 257.919C257.943 257.987 256.815 258.286 255.779 258.798L210.851 280.228C208.505 281.345 206.8 283.469 206.215 286.001L195.218 334.098C194.694 336.355 195.117 338.722 196.427 340.657C196.58 340.89 196.742 341.116 196.911 341.334L227.951 379.929C229.592 381.945 232.055 383.102 234.651 383.089H284.437C287.042 383.093 289.509 381.88 291.145 379.893L322.17 341.289C323.798 339.274 324.407 336.613 323.782 334.09L312.713 285.952C312.128 283.421 310.415 281.296 308.077 280.18L263.221 258.802C261.928 258.164 260.497 257.861 259.057 257.919H259.097Z" fill="#326CE5"/>
<path d="M259.509 274.311C257.961 274.419 256.787 275.746 256.868 277.294V278.052C256.941 278.91 257.07 279.761 257.239 280.603C257.486 282.217 257.575 283.85 257.505 285.481C257.352 286.017 257.045 286.501 256.626 286.872L256.566 288.009C254.933 288.146 253.313 288.396 251.716 288.759C245 290.274 238.885 293.757 234.164 298.776L233.197 298.091C232.664 298.252 232.092 298.192 231.604 297.93C230.296 296.961 229.085 295.868 227.988 294.664C227.437 294.006 226.849 293.38 226.227 292.79L225.63 292.314C225.098 291.887 224.445 291.641 223.763 291.609C223.357 291.587 222.951 291.662 222.579 291.827C222.207 291.993 221.879 292.244 221.623 292.56C220.712 293.838 221.01 295.608 222.284 296.523L222.84 296.966C223.556 297.443 224.299 297.877 225.066 298.268C226.493 299.062 227.839 299.994 229.089 301.09C229.408 301.546 229.594 302.082 229.625 302.638L230.504 303.444C225.759 310.564 223.812 319.186 225.029 327.656L223.901 327.979C223.606 328.446 223.215 328.845 222.748 329.14C221.173 329.56 219.561 329.826 217.934 329.934C217.071 329.951 216.21 330.019 215.354 330.135L214.641 330.297H214.56C214.065 330.365 213.599 330.57 213.213 330.888C212.827 331.206 212.537 331.625 212.376 332.098C212.214 332.571 212.187 333.08 212.297 333.567C212.407 334.055 212.651 334.502 213 334.86C213.353 335.216 213.797 335.466 214.284 335.584C214.771 335.701 215.281 335.681 215.757 335.525H215.81L216.535 335.444C217.354 335.203 218.16 334.904 218.946 334.566C220.458 333.961 222.026 333.497 223.63 333.195C224.187 333.227 224.719 333.417 225.17 333.739L226.38 333.538C229 341.669 234.507 348.558 241.86 352.9L241.368 353.928C241.594 354.399 241.678 354.923 241.61 355.443C240.945 356.983 240.13 358.459 239.179 359.846C238.657 360.534 238.175 361.251 237.736 361.994L237.393 362.72C237.145 363.151 237.02 363.643 237.033 364.14C237.046 364.638 237.197 365.122 237.468 365.54C237.739 365.957 238.12 366.292 238.569 366.506C239.019 366.721 239.518 366.807 240.013 366.755C240.51 366.699 240.981 366.507 241.374 366.2C241.768 365.892 242.068 365.482 242.243 365.014L242.577 364.328C242.884 363.522 243.142 362.7 243.351 361.869C244.065 360.108 244.452 358.217 245.427 357.048C245.746 356.748 246.148 356.552 246.58 356.484L247.185 355.383C255.156 358.447 263.975 358.468 271.961 355.443L272.497 356.471C273.045 356.552 273.537 356.854 273.868 357.298C274.626 358.741 275.238 360.253 275.706 361.813C275.919 362.648 276.18 363.471 276.488 364.276L276.823 364.961C276.999 365.427 277.3 365.836 277.694 366.141C278.088 366.447 278.558 366.638 279.053 366.692C279.549 366.747 280.049 366.663 280.5 366.451C280.951 366.239 281.334 365.906 281.608 365.489C281.879 365.07 282.028 364.584 282.039 364.086C282.051 363.587 281.924 363.094 281.672 362.663L281.322 361.938C280.882 361.197 280.4 360.482 279.878 359.797C278.951 358.459 278.153 357.032 277.46 355.536C277.395 355.263 277.386 354.979 277.433 354.702C277.48 354.425 277.582 354.16 277.734 353.924C277.562 353.572 277.412 353.21 277.286 352.839C284.623 348.465 290.106 341.552 292.698 333.409L293.843 333.61C294.254 333.235 294.794 333.038 295.346 333.054C296.947 333.36 298.515 333.86 300.031 334.425C300.817 334.787 301.623 335.094 302.441 335.352C302.635 335.404 302.917 335.448 303.135 335.501H303.187C303.663 335.655 304.172 335.673 304.658 335.555C305.144 335.436 305.587 335.185 305.938 334.829C306.29 334.474 306.536 334.027 306.648 333.54C306.761 333.053 306.737 332.544 306.577 332.07C306.414 331.597 306.123 331.178 305.736 330.86C305.349 330.543 304.881 330.339 304.384 330.272L303.602 330.087C302.747 329.97 301.886 329.903 301.022 329.885C299.394 329.781 297.781 329.514 296.209 329.091C295.725 328.821 295.322 328.418 295.048 327.93L293.96 327.608C295.12 319.142 293.132 310.545 288.372 303.448L289.324 302.57C289.283 302.017 289.465 301.469 289.824 301.046C291.061 299.982 292.404 299.042 293.814 298.24C294.581 297.849 295.324 297.414 296.04 296.938L296.628 296.462C297.062 296.193 297.41 295.807 297.633 295.348C297.856 294.89 297.945 294.377 297.889 293.87C297.832 293.363 297.634 292.883 297.316 292.484C296.998 292.085 296.574 291.784 296.092 291.617C295.611 291.449 295.092 291.421 294.596 291.536C294.099 291.651 293.645 291.904 293.286 292.266L292.69 292.741C292.067 293.332 291.479 293.958 290.928 294.616C289.864 295.833 288.687 296.942 287.409 297.934C286.893 298.144 286.329 298.205 285.78 298.111L284.76 298.837C278.875 292.669 270.945 288.839 262.447 288.073C262.447 287.67 262.395 287.065 262.387 286.876C261.931 286.562 261.613 286.082 261.508 285.538C261.452 283.91 261.555 282.28 261.814 280.672C261.988 279.825 262.109 278.979 262.185 278.12V277.314C262.266 275.766 261.097 274.44 259.545 274.331L259.509 274.311ZM256.146 295.136L255.34 309.217H255.28C255.239 310.088 254.727 310.83 253.941 311.249C253.155 311.668 252.224 311.543 251.523 311.031L239.973 302.848C243.649 299.237 248.261 296.725 253.288 295.596C254.232 295.394 255.183 295.241 256.138 295.136H256.146ZM262.871 295.136C268.938 295.89 274.585 298.615 278.955 302.892L267.515 311.023C266.809 311.588 265.842 311.7 265.023 311.313C264.205 310.926 263.681 310.104 263.669 309.201L262.871 295.136ZM235.781 308.145L246.342 317.57V317.63C247 318.203 247.286 319.094 247.092 319.944C246.899 320.795 246.246 321.468 245.411 321.698V321.738L231.858 325.636C231.188 319.53 232.569 313.375 235.785 308.141L235.781 308.145ZM283.16 308.145C286.369 313.365 287.788 319.489 287.199 325.588L273.626 321.678V321.625C272.779 321.396 272.134 320.722 271.945 319.872C271.755 319.021 272.038 318.138 272.695 317.558L283.176 308.177L283.16 308.145ZM257.344 318.304H261.665L264.306 321.658L263.346 325.85L259.464 327.717L255.574 325.85L254.659 321.658L257.344 318.304ZM271.187 329.744C271.368 329.724 271.59 329.724 271.731 329.744L285.708 332.103C283.692 337.908 279.713 342.866 274.521 346.184L269.119 333.106C268.971 332.755 268.908 332.374 268.938 331.994C268.968 331.614 269.088 331.247 269.289 330.924C269.49 330.6 269.766 330.33 270.094 330.135C270.421 329.94 270.791 329.827 271.171 329.805L271.187 329.744ZM247.713 329.805C248.503 329.817 249.233 330.224 249.664 330.885C250.096 331.546 250.164 332.377 249.854 333.102V333.155L244.484 346.127C239.344 342.834 235.442 337.936 233.366 332.191L247.221 329.841C247.374 329.825 247.532 329.825 247.689 329.841L247.713 329.805ZM259.42 335.448C259.86 335.435 260.296 335.543 260.678 335.763C261.06 335.982 261.374 336.303 261.585 336.69H261.637L268.466 349.014L265.737 349.82C260.714 350.969 255.469 350.699 250.587 349.038L257.441 336.714C257.856 335.989 258.622 335.545 259.456 335.525L259.42 335.448Z" fill="white" stroke="white" stroke-width="1.16816"/>
</g>
<circle cx="377.5" cy="299.5" r="45.5" fill="#84EA6A"/>
<path d="M349.66 309.576V285.954H358.98C360.772 285.954 362.298 286.296 363.559 286.98C364.82 287.657 365.782 288.599 366.443 289.806C367.112 291.006 367.446 292.39 367.446 293.959C367.446 295.527 367.108 296.911 366.431 298.111C365.755 299.311 364.774 300.245 363.49 300.914C362.214 301.583 360.668 301.917 358.853 301.917H352.913V297.915H358.046C359.007 297.915 359.799 297.75 360.422 297.419C361.052 297.081 361.522 296.615 361.829 296.023C362.144 295.423 362.302 294.735 362.302 293.959C362.302 293.174 362.144 292.49 361.829 291.905C361.522 291.313 361.052 290.856 360.422 290.533C359.791 290.202 358.992 290.037 358.023 290.037H354.655V309.576H349.66ZM377.831 309.922C376.039 309.922 374.49 309.542 373.182 308.78C371.883 308.011 370.879 306.942 370.172 305.574C369.464 304.197 369.111 302.602 369.111 300.787C369.111 298.957 369.464 297.357 370.172 295.989C370.879 294.612 371.883 293.543 373.182 292.782C374.49 292.013 376.039 291.629 377.831 291.629C379.622 291.629 381.168 292.013 382.468 292.782C383.775 293.543 384.782 294.612 385.49 295.989C386.197 297.357 386.551 298.957 386.551 300.787C386.551 302.602 386.197 304.197 385.49 305.574C384.782 306.942 383.775 308.011 382.468 308.78C381.168 309.542 379.622 309.922 377.831 309.922ZM377.854 306.116C378.669 306.116 379.349 305.885 379.895 305.424C380.441 304.955 380.853 304.316 381.13 303.509C381.414 302.702 381.556 301.783 381.556 300.752C381.556 299.722 381.414 298.803 381.13 297.996C380.853 297.188 380.441 296.55 379.895 296.081C379.349 295.612 378.669 295.377 377.854 295.377C377.031 295.377 376.339 295.612 375.778 296.081C375.224 296.55 374.805 297.188 374.52 297.996C374.243 298.803 374.105 299.722 374.105 300.752C374.105 301.783 374.243 302.702 374.52 303.509C374.805 304.316 375.224 304.955 375.778 305.424C376.339 305.885 377.031 306.116 377.854 306.116ZM395.787 309.865C394.442 309.865 393.223 309.518 392.131 308.826C391.047 308.127 390.185 307.1 389.547 305.747C388.917 304.386 388.601 302.717 388.601 300.741C388.601 298.711 388.928 297.023 389.582 295.677C390.235 294.324 391.104 293.313 392.189 292.644C393.281 291.967 394.476 291.629 395.776 291.629C396.768 291.629 397.594 291.798 398.256 292.136C398.925 292.467 399.463 292.882 399.871 293.382C400.286 293.874 400.601 294.358 400.816 294.835H400.966V285.954H405.868V309.576H401.024V306.739H400.816C400.586 307.231 400.259 307.719 399.836 308.204C399.421 308.68 398.879 309.076 398.21 309.392C397.548 309.707 396.741 309.865 395.787 309.865ZM397.345 305.954C398.137 305.954 398.806 305.739 399.352 305.308C399.905 304.87 400.328 304.259 400.62 303.474C400.92 302.69 401.07 301.771 401.07 300.718C401.07 299.664 400.924 298.749 400.632 297.973C400.34 297.196 399.917 296.596 399.363 296.173C398.809 295.75 398.137 295.539 397.345 295.539C396.537 295.539 395.857 295.758 395.303 296.196C394.749 296.635 394.33 297.242 394.046 298.019C393.761 298.795 393.619 299.695 393.619 300.718C393.619 301.748 393.761 302.659 394.046 303.451C394.338 304.236 394.757 304.851 395.303 305.297C395.857 305.735 396.537 305.954 397.345 305.954Z" fill="black"/>
<circle cx="682.5" cy="231.5" r="45.5" fill="#84EA6A"/>
<path d="M654.66 241.576V217.954H663.98C665.772 217.954 667.298 218.296 668.559 218.98C669.82 219.657 670.782 220.599 671.443 221.806C672.112 223.006 672.446 224.39 672.446 225.959C672.446 227.527 672.108 228.911 671.431 230.111C670.755 231.311 669.774 232.245 668.49 232.914C667.214 233.583 665.668 233.917 663.853 233.917H657.913V229.915H663.046C664.007 229.915 664.799 229.75 665.422 229.419C666.052 229.081 666.522 228.615 666.829 228.023C667.144 227.423 667.302 226.735 667.302 225.959C667.302 225.174 667.144 224.49 666.829 223.905C666.522 223.313 666.052 222.856 665.422 222.533C664.791 222.202 663.992 222.037 663.023 222.037H659.655V241.576H654.66ZM682.831 241.922C681.039 241.922 679.49 241.542 678.182 240.78C676.883 240.011 675.879 238.942 675.172 237.574C674.464 236.197 674.111 234.602 674.111 232.787C674.111 230.957 674.464 229.357 675.172 227.989C675.879 226.612 676.883 225.543 678.182 224.782C679.49 224.013 681.039 223.629 682.831 223.629C684.622 223.629 686.168 224.013 687.468 224.782C688.775 225.543 689.782 226.612 690.49 227.989C691.197 229.357 691.551 230.957 691.551 232.787C691.551 234.602 691.197 236.197 690.49 237.574C689.782 238.942 688.775 240.011 687.468 240.78C686.168 241.542 684.622 241.922 682.831 241.922ZM682.854 238.116C683.669 238.116 684.349 237.885 684.895 237.424C685.441 236.955 685.853 236.316 686.13 235.509C686.414 234.702 686.556 233.783 686.556 232.752C686.556 231.722 686.414 230.803 686.13 229.996C685.853 229.188 685.441 228.55 684.895 228.081C684.349 227.612 683.669 227.377 682.854 227.377C682.031 227.377 681.339 227.612 680.778 228.081C680.224 228.55 679.805 229.188 679.52 229.996C679.243 230.803 679.105 231.722 679.105 232.752C679.105 233.783 679.243 234.702 679.52 235.509C679.805 236.316 680.224 236.955 680.778 237.424C681.339 237.885 682.031 238.116 682.854 238.116ZM700.787 241.865C699.442 241.865 698.223 241.518 697.131 240.826C696.047 240.127 695.185 239.1 694.547 237.747C693.917 236.386 693.601 234.717 693.601 232.741C693.601 230.711 693.928 229.023 694.582 227.677C695.235 226.324 696.104 225.313 697.189 224.644C698.281 223.967 699.476 223.629 700.776 223.629C701.768 223.629 702.594 223.798 703.256 224.136C703.925 224.467 704.463 224.882 704.871 225.382C705.286 225.874 705.601 226.358 705.816 226.835H705.966V217.954H710.868V241.576H706.024V238.739H705.816C705.586 239.231 705.259 239.719 704.836 240.204C704.421 240.68 703.879 241.076 703.21 241.392C702.548 241.707 701.741 241.865 700.787 241.865ZM702.345 237.954C703.137 237.954 703.806 237.739 704.352 237.308C704.905 236.87 705.328 236.259 705.62 235.474C705.92 234.69 706.07 233.771 706.07 232.718C706.07 231.664 705.924 230.749 705.632 229.973C705.34 229.196 704.917 228.596 704.363 228.173C703.809 227.75 703.137 227.539 702.345 227.539C701.537 227.539 700.857 227.758 700.303 228.196C699.749 228.635 699.33 229.242 699.046 230.019C698.761 230.795 698.619 231.695 698.619 232.718C698.619 233.748 698.761 234.659 699.046 235.451C699.338 236.236 699.757 236.851 700.303 237.297C700.857 237.735 701.537 237.954 702.345 237.954Z" fill="black"/>
<circle cx="1009.5" cy="420.5" r="45.5" fill="#84EA6A"/>
<path d="M981.66 430.576V406.954H990.98C992.772 406.954 994.298 407.296 995.559 407.98C996.82 408.657 997.782 409.599 998.443 410.806C999.112 412.006 999.446 413.39 999.446 414.959C999.446 416.527 999.108 417.911 998.431 419.111C997.755 420.311 996.774 421.245 995.49 421.914C994.214 422.583 992.668 422.917 990.853 422.917H984.913V418.915H990.046C991.007 418.915 991.799 418.75 992.422 418.419C993.052 418.081 993.522 417.615 993.829 417.023C994.144 416.423 994.302 415.735 994.302 414.959C994.302 414.174 994.144 413.49 993.829 412.905C993.522 412.313 993.052 411.856 992.422 411.533C991.791 411.202 990.992 411.037 990.023 411.037H986.655V430.576H981.66ZM1009.83 430.922C1008.04 430.922 1006.49 430.542 1005.18 429.78C1003.88 429.011 1002.88 427.942 1002.17 426.574C1001.46 425.197 1001.11 423.602 1001.11 421.787C1001.11 419.957 1001.46 418.357 1002.17 416.989C1002.88 415.612 1003.88 414.543 1005.18 413.782C1006.49 413.013 1008.04 412.629 1009.83 412.629C1011.62 412.629 1013.17 413.013 1014.47 413.782C1015.77 414.543 1016.78 415.612 1017.49 416.989C1018.2 418.357 1018.55 419.957 1018.55 421.787C1018.55 423.602 1018.2 425.197 1017.49 426.574C1016.78 427.942 1015.77 429.011 1014.47 429.78C1013.17 430.542 1011.62 430.922 1009.83 430.922ZM1009.85 427.116C1010.67 427.116 1011.35 426.885 1011.9 426.424C1012.44 425.955 1012.85 425.316 1013.13 424.509C1013.41 423.702 1013.56 422.783 1013.56 421.752C1013.56 420.722 1013.41 419.803 1013.13 418.996C1012.85 418.188 1012.44 417.55 1011.9 417.081C1011.35 416.612 1010.67 416.377 1009.85 416.377C1009.03 416.377 1008.34 416.612 1007.78 417.081C1007.22 417.55 1006.8 418.188 1006.52 418.996C1006.24 419.803 1006.11 420.722 1006.11 421.752C1006.11 422.783 1006.24 423.702 1006.52 424.509C1006.8 425.316 1007.22 425.955 1007.78 426.424C1008.34 426.885 1009.03 427.116 1009.85 427.116ZM1027.79 430.865C1026.44 430.865 1025.22 430.518 1024.13 429.826C1023.05 429.127 1022.19 428.1 1021.55 426.747C1020.92 425.386 1020.6 423.717 1020.6 421.741C1020.6 419.711 1020.93 418.023 1021.58 416.677C1022.24 415.324 1023.1 414.313 1024.19 413.644C1025.28 412.967 1026.48 412.629 1027.78 412.629C1028.77 412.629 1029.59 412.798 1030.26 413.136C1030.92 413.467 1031.46 413.882 1031.87 414.382C1032.29 414.874 1032.6 415.358 1032.82 415.835H1032.97V406.954H1037.87V430.576H1033.02V427.739H1032.82C1032.59 428.231 1032.26 428.719 1031.84 429.204C1031.42 429.68 1030.88 430.076 1030.21 430.392C1029.55 430.707 1028.74 430.865 1027.79 430.865ZM1029.34 426.954C1030.14 426.954 1030.81 426.739 1031.35 426.308C1031.91 425.87 1032.33 425.259 1032.62 424.474C1032.92 423.69 1033.07 422.771 1033.07 421.718C1033.07 420.664 1032.92 419.749 1032.63 418.973C1032.34 418.196 1031.92 417.596 1031.36 417.173C1030.81 416.75 1030.14 416.539 1029.34 416.539C1028.54 416.539 1027.86 416.758 1027.3 417.196C1026.75 417.635 1026.33 418.242 1026.05 419.019C1025.76 419.795 1025.62 420.695 1025.62 421.718C1025.62 422.748 1025.76 423.659 1026.05 424.451C1026.34 425.236 1026.76 425.851 1027.3 426.297C1027.86 426.735 1028.54 426.954 1029.34 426.954Z" fill="black"/>
<path d="M260 211L285.981 166H234.019L260 211ZM255.5 23V170.5H264.5V23H255.5Z" fill="#F5A344"/>
<path d="M567 142L592.981 97H541.019L567 142ZM562.5 23V101.5H571.5V23H562.5Z" fill="#CBCBCB"/>
<path d="M891 320L916.981 275H865.019L891 320ZM886.5 23V279.5H895.5V23H886.5Z" fill="#CBCBCB"/>
<defs>
<clipPath id="clip0_12_48895">
<rect width="129" height="129" fill="white" transform="translate(502 189)"/>
</clipPath>
<clipPath id="clip1_12_48895">
<rect width="129" height="129" fill="white" transform="translate(826 373)"/>
</clipPath>
<clipPath id="clip2_12_48895">
<rect width="129" height="129" fill="white" transform="translate(195 256)"/>
</clipPath>
</defs>
</svg>
