<svg width="1200" height="900" viewBox="0 0 1200 900" fill="none" xmlns="http://www.w3.org/2000/svg">
<rect width="1200" height="900" fill="white"/>
<path d="M59.2111 238V221.691H63.522V224.568H63.7131C64.0529 223.613 64.6191 222.859 65.4119 222.307C66.2047 221.755 67.1533 221.479 68.2575 221.479C69.376 221.479 70.328 221.758 71.1138 222.317C71.8995 222.869 72.4233 223.62 72.6852 224.568H72.8551C73.1878 223.634 73.7895 222.887 74.6601 222.328C75.5379 221.762 76.5749 221.479 77.7712 221.479C79.2931 221.479 80.5283 221.963 81.4768 222.933C82.4324 223.896 82.9102 225.262 82.9102 227.032V238H78.3976V227.924C78.3976 227.018 78.157 226.338 77.6756 225.885C77.1943 225.432 76.5926 225.205 75.8706 225.205C75.0495 225.205 74.4088 225.467 73.9487 225.991C73.4886 226.508 73.2586 227.191 73.2586 228.04V238H68.8734V227.828C68.8734 227.028 68.6433 226.391 68.1832 225.917C67.7302 225.443 67.132 225.205 66.3888 225.205C65.8862 225.205 65.4332 225.333 65.0297 225.588C64.6333 225.835 64.3183 226.186 64.0847 226.639C63.8511 227.085 63.7343 227.609 63.7343 228.21V238H59.2111ZM90.4008 238.308C89.3602 238.308 88.4329 238.127 87.6189 237.766C86.8048 237.398 86.1607 236.857 85.6864 236.142C85.2192 235.42 84.9856 234.521 84.9856 233.445C84.9856 232.539 85.152 231.778 85.4847 231.162C85.8174 230.546 86.2704 230.051 86.8438 229.676C87.4171 229.3 88.0684 229.017 88.7975 228.826C89.5336 228.635 90.3052 228.501 91.1122 228.423C92.0607 228.324 92.8252 228.232 93.4056 228.147C93.9861 228.055 94.4072 227.92 94.6692 227.743C94.9311 227.566 95.062 227.304 95.062 226.957V226.894C95.062 226.221 94.8497 225.701 94.4249 225.333C94.0073 224.965 93.4127 224.781 92.6411 224.781C91.8271 224.781 91.1794 224.961 90.6981 225.322C90.2167 225.676 89.8982 226.122 89.7425 226.66L85.559 226.32C85.7714 225.329 86.189 224.473 86.8119 223.751C87.4348 223.022 88.2382 222.462 89.2222 222.073C90.2132 221.677 91.3599 221.479 92.6624 221.479C93.5684 221.479 94.4356 221.585 95.2638 221.797C96.099 222.009 96.8387 222.339 97.4829 222.785C98.1341 223.231 98.6473 223.804 99.0225 224.505C99.3977 225.198 99.5852 226.03 99.5852 227V238H95.2956V235.738H95.1682C94.9063 236.248 94.5559 236.698 94.117 237.087C93.6782 237.469 93.1508 237.77 92.535 237.989C91.9191 238.202 91.2077 238.308 90.4008 238.308ZM91.6961 235.186C92.3615 235.186 92.9491 235.055 93.4587 234.793C93.9684 234.524 94.3683 234.163 94.6585 233.71C94.9488 233.257 95.0939 232.744 95.0939 232.171V230.44C94.9523 230.532 94.7576 230.617 94.5099 230.695C94.2692 230.766 93.9967 230.833 93.6923 230.897C93.3879 230.953 93.0836 231.006 92.7792 231.056C92.4748 231.098 92.1987 231.137 91.951 231.173C91.4201 231.251 90.9564 231.374 90.56 231.544C90.1636 231.714 89.8557 231.944 89.6363 232.234C89.4168 232.518 89.3071 232.872 89.3071 233.296C89.3071 233.912 89.5301 234.383 89.976 234.708C90.4291 235.027 91.0024 235.186 91.6961 235.186ZM106.885 228.571V238H102.361V221.691H106.672V224.568H106.863C107.224 223.62 107.83 222.869 108.679 222.317C109.529 221.758 110.558 221.479 111.769 221.479C112.901 221.479 113.889 221.726 114.731 222.222C115.574 222.717 116.228 223.425 116.696 224.345C117.163 225.259 117.396 226.349 117.396 227.616V238H112.873V228.423C112.88 227.425 112.625 226.646 112.109 226.087C111.592 225.52 110.881 225.237 109.974 225.237C109.366 225.237 108.828 225.368 108.361 225.63C107.9 225.892 107.539 226.274 107.278 226.777C107.023 227.272 106.892 227.871 106.885 228.571ZM124.879 238.308C123.838 238.308 122.911 238.127 122.097 237.766C121.283 237.398 120.639 236.857 120.165 236.142C119.697 235.42 119.464 234.521 119.464 233.445C119.464 232.539 119.63 231.778 119.963 231.162C120.296 230.546 120.749 230.051 121.322 229.676C121.895 229.3 122.547 229.017 123.276 228.826C124.012 228.635 124.783 228.501 125.59 228.423C126.539 228.324 127.303 228.232 127.884 228.147C128.464 228.055 128.885 227.92 129.147 227.743C129.409 227.566 129.54 227.304 129.54 226.957V226.894C129.54 226.221 129.328 225.701 128.903 225.333C128.485 224.965 127.891 224.781 127.119 224.781C126.305 224.781 125.658 224.961 125.176 225.322C124.695 225.676 124.376 226.122 124.221 226.66L120.037 226.32C120.25 225.329 120.667 224.473 121.29 223.751C121.913 223.022 122.716 222.462 123.7 222.073C124.691 221.677 125.838 221.479 127.141 221.479C128.047 221.479 128.914 221.585 129.742 221.797C130.577 222.009 131.317 222.339 131.961 222.785C132.612 223.231 133.125 223.804 133.501 224.505C133.876 225.198 134.063 226.03 134.063 227V238H129.774V235.738H129.646C129.384 236.248 129.034 236.698 128.595 237.087C128.156 237.469 127.629 237.77 127.013 237.989C126.397 238.202 125.686 238.308 124.879 238.308ZM126.174 235.186C126.84 235.186 127.427 235.055 127.937 234.793C128.447 234.524 128.846 234.163 129.137 233.71C129.427 233.257 129.572 232.744 129.572 232.171V230.44C129.43 230.532 129.236 230.617 128.988 230.695C128.747 230.766 128.475 230.833 128.17 230.897C127.866 230.953 127.562 231.006 127.257 231.056C126.953 231.098 126.677 231.137 126.429 231.173C125.898 231.251 125.435 231.374 125.038 231.544C124.642 231.714 124.334 231.944 124.114 232.234C123.895 232.518 123.785 232.872 123.785 233.296C123.785 233.912 124.008 234.383 124.454 234.708C124.907 235.027 125.481 235.186 126.174 235.186ZM144.187 244.456C142.722 244.456 141.465 244.254 140.418 243.85C139.377 243.454 138.549 242.913 137.933 242.226C137.317 241.539 136.917 240.768 136.733 239.911L140.917 239.348C141.044 239.674 141.246 239.978 141.522 240.262C141.798 240.545 142.163 240.771 142.616 240.941C143.076 241.118 143.635 241.207 144.293 241.207C145.277 241.207 146.088 240.966 146.725 240.485C147.369 240.01 147.691 239.214 147.691 238.096V235.112H147.5C147.302 235.565 147.004 235.993 146.608 236.397C146.212 236.8 145.702 237.129 145.079 237.384C144.456 237.639 143.713 237.766 142.849 237.766C141.625 237.766 140.51 237.483 139.505 236.917C138.507 236.344 137.71 235.469 137.116 234.294C136.528 233.112 136.234 231.619 136.234 229.814C136.234 227.966 136.535 226.423 137.137 225.184C137.739 223.945 138.538 223.018 139.537 222.402C140.542 221.786 141.642 221.479 142.839 221.479C143.752 221.479 144.516 221.634 145.132 221.946C145.748 222.25 146.244 222.632 146.619 223.092C147.001 223.546 147.295 223.991 147.5 224.43H147.67V221.691H152.161V238.159C152.161 239.547 151.821 240.708 151.142 241.642C150.462 242.576 149.521 243.277 148.318 243.744C147.121 244.219 145.744 244.456 144.187 244.456ZM144.283 234.369C145.012 234.369 145.628 234.188 146.13 233.827C146.64 233.459 147.029 232.935 147.298 232.256C147.574 231.569 147.712 230.748 147.712 229.792C147.712 228.837 147.578 228.009 147.309 227.308C147.04 226.6 146.651 226.051 146.141 225.662C145.631 225.273 145.012 225.078 144.283 225.078C143.539 225.078 142.913 225.28 142.403 225.683C141.894 226.08 141.508 226.632 141.246 227.34C140.984 228.047 140.853 228.865 140.853 229.792C140.853 230.734 140.984 231.548 141.246 232.234C141.515 232.914 141.901 233.441 142.403 233.817C142.913 234.185 143.539 234.369 144.283 234.369ZM162.46 238.319C160.783 238.319 159.339 237.979 158.128 237.299C156.925 236.613 155.997 235.643 155.346 234.39C154.695 233.13 154.369 231.64 154.369 229.92C154.369 228.242 154.695 226.77 155.346 225.503C155.997 224.236 156.914 223.248 158.096 222.54C159.285 221.832 160.68 221.479 162.28 221.479C163.356 221.479 164.357 221.652 165.285 221.999C166.219 222.339 167.033 222.852 167.727 223.538C168.427 224.225 168.972 225.089 169.362 226.129C169.751 227.163 169.946 228.373 169.946 229.761V231.003H156.174V228.2H165.688C165.688 227.548 165.546 226.972 165.263 226.469C164.98 225.966 164.587 225.574 164.085 225.29C163.589 225 163.012 224.855 162.354 224.855C161.667 224.855 161.059 225.014 160.528 225.333C160.004 225.644 159.593 226.065 159.296 226.596C158.999 227.12 158.847 227.704 158.839 228.348V231.013C158.839 231.82 158.988 232.518 159.285 233.105C159.59 233.693 160.018 234.146 160.57 234.464C161.122 234.783 161.777 234.942 162.534 234.942C163.037 234.942 163.497 234.871 163.915 234.73C164.332 234.588 164.69 234.376 164.987 234.093C165.285 233.809 165.511 233.463 165.667 233.052L169.85 233.328C169.638 234.333 169.203 235.211 168.544 235.961C167.893 236.705 167.051 237.285 166.017 237.703C164.991 238.113 163.805 238.319 162.46 238.319ZM172.165 238V221.691H176.55V224.537H176.72C177.017 223.524 177.516 222.76 178.217 222.243C178.918 221.719 179.724 221.457 180.638 221.457C180.864 221.457 181.108 221.471 181.37 221.5C181.632 221.528 181.862 221.567 182.06 221.617V225.63C181.848 225.566 181.554 225.51 181.179 225.46C180.804 225.411 180.461 225.386 180.149 225.386C179.484 225.386 178.889 225.531 178.365 225.821C177.849 226.104 177.438 226.501 177.134 227.01C176.836 227.52 176.688 228.108 176.688 228.773V238H172.165Z" fill="black"/>
<path d="M205.248 220.045V216.255H223.107V220.045H216.45V238H211.905V220.045H205.248ZM225.315 238V216.255H239.968V220.045H229.913V225.227H239.214V229.017H229.913V234.209H240.01V238H225.315ZM246.638 238H241.711L249.218 216.255H255.143L262.639 238H257.713L252.266 221.224H252.096L246.638 238ZM246.33 229.453H257.967V233.041H246.33V229.453ZM264.524 216.255H270.194L276.182 230.865H276.437L282.425 216.255H288.095V238H283.636V223.846H283.455L277.828 237.894H274.791L269.164 223.793H268.983V238H264.524V216.255ZM301.086 238H296.159L303.666 216.255H309.59L317.087 238H312.16L306.713 221.224H306.543L301.086 238ZM300.778 229.453H312.415V233.041H300.778V229.453Z" fill="black"/>
<path d="M834.189 346.045V342.255H852.049V346.045H845.391V364H840.847V346.045H834.189ZM854.257 364V342.255H868.909V346.045H858.854V351.227H868.156V355.017H858.854V360.209H868.952V364H854.257ZM875.58 364H870.653L878.16 342.255H884.085L891.581 364H886.654L881.207 347.224H881.037L875.58 364ZM875.272 355.453H886.909V359.041H875.272V355.453ZM893.465 342.255H899.135L905.124 356.865H905.378L911.367 342.255H917.037V364H912.577V349.846H912.397L906.769 363.894H903.733L898.105 349.793H897.925V364H893.465V342.255ZM945.466 349.868H940.815C940.73 349.266 940.557 348.731 940.295 348.264C940.033 347.79 939.697 347.387 939.286 347.054C938.875 346.721 938.401 346.466 937.863 346.289C937.332 346.112 936.755 346.024 936.132 346.024C935.007 346.024 934.027 346.304 933.191 346.863C932.356 347.415 931.708 348.222 931.248 349.284C930.788 350.338 930.558 351.62 930.558 353.127C930.558 354.677 930.788 355.98 931.248 357.035C931.715 358.089 932.367 358.886 933.202 359.424C934.037 359.962 935.003 360.231 936.101 360.231C936.716 360.231 937.286 360.149 937.81 359.986C938.341 359.824 938.812 359.586 939.222 359.275C939.633 358.956 939.973 358.571 940.242 358.118C940.518 357.665 940.709 357.148 940.815 356.567L945.466 356.589C945.345 357.587 945.044 358.549 944.563 359.477C944.089 360.397 943.448 361.222 942.641 361.951C941.841 362.673 940.886 363.246 939.774 363.671C938.67 364.088 937.421 364.297 936.026 364.297C934.087 364.297 932.352 363.858 930.823 362.981C929.302 362.103 928.098 360.832 927.213 359.169C926.336 357.505 925.897 355.492 925.897 353.127C925.897 350.756 926.343 348.739 927.235 347.075C928.127 345.412 929.337 344.145 930.866 343.274C932.395 342.396 934.115 341.957 936.026 341.957C937.286 341.957 938.454 342.134 939.53 342.488C940.613 342.842 941.572 343.359 942.408 344.038C943.243 344.711 943.922 345.535 944.446 346.512C944.977 347.489 945.317 348.608 945.466 349.868Z" fill="black"/>
<g clip-path="url(#clip0_12_48994)">
<path d="M566.097 190.919C564.943 190.987 563.815 191.286 562.779 191.798L517.851 213.228C515.505 214.345 513.799 216.469 513.215 219.001L502.218 267.098C501.694 269.355 502.117 271.722 503.427 273.657C503.58 273.89 503.741 274.116 503.911 274.334L534.951 312.929C536.592 314.945 539.055 316.102 541.651 316.089H591.437C594.041 316.093 596.509 314.88 598.145 312.893L629.17 274.289C630.798 272.274 631.407 269.613 630.782 267.09L619.712 218.952C619.128 216.421 617.415 214.296 615.076 213.18L570.221 191.802C568.928 191.164 567.497 190.861 566.056 190.919H566.097Z" fill="#326CE5"/>
<path d="M566.508 207.311C564.96 207.419 563.787 208.746 563.868 210.294V211.052C563.941 211.91 564.07 212.761 564.239 213.603C564.486 215.217 564.575 216.85 564.505 218.481C564.352 219.017 564.045 219.501 563.626 219.872L563.566 221.009C561.933 221.146 560.312 221.396 558.716 221.759C552 223.274 545.885 226.757 541.164 231.776L540.196 231.091C539.664 231.252 539.092 231.192 538.604 230.93C537.296 229.961 536.085 228.868 534.988 227.664C534.437 227.006 533.849 226.38 533.226 225.79L532.63 225.314C532.098 224.887 531.445 224.641 530.763 224.609C530.357 224.587 529.951 224.662 529.579 224.827C529.207 224.993 528.879 225.244 528.623 225.56C527.712 226.838 528.01 228.608 529.284 229.523L529.84 229.966C530.556 230.443 531.299 230.877 532.065 231.268C533.492 232.062 534.839 232.994 536.089 234.09C536.408 234.546 536.594 235.082 536.625 235.638L537.504 236.444C532.759 243.564 530.812 252.186 532.029 260.656L530.9 260.979C530.606 261.446 530.215 261.845 529.747 262.14C528.173 262.56 526.561 262.826 524.934 262.934C524.071 262.951 523.21 263.019 522.354 263.135L521.641 263.297H521.56C521.065 263.365 520.598 263.57 520.213 263.888C519.827 264.206 519.537 264.625 519.376 265.098C519.214 265.571 519.187 266.08 519.297 266.567C519.407 267.055 519.65 267.502 520 267.86C520.353 268.216 520.797 268.466 521.284 268.584C521.771 268.701 522.281 268.681 522.757 268.525H522.81L523.535 268.444C524.354 268.203 525.16 267.904 525.946 267.566C527.458 266.961 529.026 266.497 530.63 266.195C531.187 266.227 531.719 266.417 532.17 266.739L533.38 266.538C536 274.669 541.507 281.558 548.86 285.9L548.368 286.928C548.594 287.399 548.678 287.923 548.61 288.443C547.945 289.983 547.13 291.459 546.179 292.846C545.657 293.534 545.175 294.251 544.736 294.994L544.393 295.72C544.144 296.151 544.02 296.643 544.033 297.14C544.046 297.638 544.197 298.122 544.468 298.54C544.739 298.957 545.12 299.292 545.569 299.506C546.018 299.721 546.518 299.807 547.013 299.755C547.51 299.699 547.981 299.507 548.374 299.2C548.768 298.892 549.068 298.482 549.243 298.014L549.577 297.328C549.884 296.522 550.142 295.7 550.351 294.869C551.065 293.108 551.452 291.217 552.427 290.048C552.746 289.748 553.148 289.552 553.58 289.484L554.185 288.383C562.156 291.447 570.975 291.468 578.961 288.443L579.497 289.471C580.045 289.552 580.537 289.854 580.868 290.298C581.626 291.741 582.238 293.253 582.706 294.813C582.919 295.648 583.18 296.471 583.488 297.276L583.823 297.961C583.999 298.427 584.3 298.836 584.694 299.141C585.087 299.447 585.558 299.638 586.053 299.692C586.549 299.747 587.049 299.663 587.5 299.451C587.951 299.239 588.334 298.906 588.608 298.489C588.878 298.07 589.028 297.584 589.039 297.086C589.051 296.587 588.924 296.094 588.672 295.663L588.322 294.938C587.882 294.197 587.4 293.482 586.878 292.797C585.951 291.459 585.153 290.032 584.46 288.536C584.395 288.263 584.386 287.979 584.433 287.702C584.48 287.425 584.582 287.16 584.734 286.924C584.562 286.572 584.412 286.21 584.286 285.839C591.623 281.465 597.106 274.552 599.698 266.409L600.843 266.61C601.254 266.235 601.794 266.038 602.346 266.054C603.947 266.36 605.515 266.86 607.031 267.425C607.817 267.787 608.623 268.094 609.441 268.352C609.635 268.404 609.917 268.448 610.135 268.501H610.187C610.663 268.655 611.172 268.673 611.658 268.555C612.143 268.436 612.587 268.185 612.938 267.829C613.29 267.474 613.535 267.027 613.648 266.54C613.761 266.053 613.737 265.544 613.577 265.07C613.414 264.597 613.123 264.178 612.736 263.86C612.348 263.543 611.881 263.339 611.384 263.272L610.602 263.087C609.747 262.97 608.885 262.903 608.022 262.885C606.394 262.781 604.781 262.514 603.209 262.091C602.725 261.821 602.322 261.418 602.048 260.93L600.959 260.608C602.12 252.142 600.132 243.545 595.372 236.448L596.324 235.57C596.283 235.017 596.465 234.469 596.823 234.046C598.061 232.982 599.403 232.042 600.814 231.24C601.58 230.849 602.323 230.414 603.04 229.938L603.628 229.462C604.062 229.193 604.41 228.807 604.633 228.348C604.856 227.89 604.944 227.377 604.888 226.87C604.832 226.363 604.634 225.883 604.316 225.484C603.998 225.085 603.574 224.784 603.092 224.617C602.611 224.449 602.092 224.421 601.595 224.536C601.099 224.651 600.645 224.904 600.286 225.266L599.69 225.741C599.067 226.332 598.479 226.958 597.928 227.616C596.864 228.833 595.687 229.942 594.409 230.934C593.893 231.144 593.329 231.205 592.78 231.111L591.76 231.837C585.875 225.669 577.945 221.839 569.447 221.073C569.447 220.67 569.395 220.065 569.387 219.876C568.931 219.562 568.613 219.082 568.508 218.538C568.452 216.91 568.555 215.28 568.814 213.672C568.988 212.825 569.109 211.979 569.185 211.12V210.314C569.266 208.766 568.097 207.44 566.545 207.331L566.508 207.311ZM563.146 228.136L562.34 242.217H562.28C562.239 243.088 561.727 243.83 560.941 244.249C560.155 244.668 559.224 244.543 558.523 244.031L546.973 235.848C550.649 232.237 555.261 229.725 560.288 228.596C561.232 228.394 562.183 228.241 563.138 228.136H563.146ZM569.87 228.136C575.938 228.89 581.585 231.615 585.955 235.892L574.514 244.023C573.809 244.588 572.842 244.7 572.023 244.313C571.205 243.926 570.681 243.104 570.669 242.201L569.87 228.136ZM542.78 241.145L553.342 250.57V250.63C553.999 251.203 554.286 252.094 554.092 252.944C553.899 253.795 553.246 254.468 552.411 254.698V254.738L538.858 258.636C538.187 252.53 539.569 246.375 542.785 241.141L542.78 241.145ZM590.16 241.145C593.369 246.365 594.788 252.489 594.199 258.588L580.626 254.678V254.625C579.779 254.396 579.134 253.722 578.945 252.872C578.755 252.021 579.038 251.138 579.695 250.558L590.176 241.177L590.16 241.145ZM564.344 251.304H568.665L571.306 254.658L570.346 258.85L566.464 260.717L562.574 258.85L561.659 254.658L564.344 251.304ZM578.187 262.744C578.368 262.724 578.59 262.724 578.731 262.744L592.708 265.103C590.692 270.908 586.713 275.866 581.521 279.184L576.119 266.106C575.97 265.755 575.908 265.374 575.938 264.994C575.968 264.614 576.088 264.247 576.289 263.924C576.49 263.6 576.766 263.33 577.094 263.135C577.421 262.94 577.79 262.827 578.171 262.805L578.187 262.744ZM554.713 262.805C555.503 262.817 556.233 263.224 556.664 263.885C557.095 264.546 557.164 265.377 556.854 266.102V266.155L551.484 279.127C546.344 275.834 542.442 270.936 540.366 265.191L554.221 262.841C554.374 262.825 554.532 262.825 554.689 262.841L554.713 262.805ZM566.42 268.448C566.86 268.435 567.296 268.543 567.678 268.763C568.06 268.982 568.374 269.303 568.585 269.69H568.637L575.466 282.014L572.737 282.82C567.714 283.969 562.469 283.699 557.587 282.038L564.44 269.714C564.856 268.989 565.622 268.545 566.456 268.525L566.42 268.448Z" fill="white" stroke="white" stroke-width="1.16816"/>
</g>
<g clip-path="url(#clip1_12_48994)">
<path d="M890.097 374.919C888.943 374.987 887.815 375.286 886.779 375.798L841.851 397.228C839.505 398.345 837.799 400.469 837.215 403.001L826.218 451.098C825.694 453.355 826.117 455.722 827.427 457.657C827.58 457.89 827.741 458.116 827.911 458.334L858.951 496.929C860.592 498.945 863.055 500.102 865.651 500.089H915.437C918.041 500.093 920.509 498.88 922.145 496.893L953.17 458.289C954.798 456.274 955.407 453.613 954.782 451.09L943.712 402.952C943.128 400.421 941.415 398.296 939.076 397.18L894.221 375.802C892.928 375.164 891.497 374.861 890.056 374.919H890.097Z" fill="#326CE5"/>
<path d="M890.508 391.311C888.96 391.419 887.787 392.746 887.868 394.294V395.052C887.941 395.91 888.07 396.761 888.239 397.603C888.486 399.217 888.575 400.85 888.505 402.481C888.352 403.017 888.045 403.501 887.626 403.872L887.566 405.009C885.933 405.146 884.312 405.396 882.716 405.759C876 407.274 869.885 410.757 865.164 415.776L864.196 415.091C863.664 415.252 863.092 415.192 862.604 414.93C861.296 413.961 860.085 412.868 858.988 411.664C858.437 411.006 857.849 410.38 857.226 409.79L856.63 409.314C856.098 408.887 855.445 408.641 854.763 408.609C854.357 408.587 853.951 408.662 853.579 408.827C853.207 408.993 852.879 409.244 852.623 409.56C851.712 410.838 852.01 412.608 853.284 413.523L853.84 413.966C854.556 414.443 855.299 414.877 856.065 415.268C857.492 416.062 858.839 416.994 860.089 418.09C860.408 418.546 860.594 419.082 860.625 419.638L861.504 420.444C856.759 427.564 854.812 436.186 856.029 444.656L854.9 444.979C854.606 445.446 854.215 445.845 853.747 446.14C852.173 446.56 850.561 446.826 848.934 446.934C848.071 446.951 847.21 447.019 846.354 447.135L845.641 447.297H845.56C845.065 447.365 844.598 447.57 844.213 447.888C843.827 448.206 843.537 448.625 843.376 449.098C843.214 449.571 843.187 450.08 843.297 450.567C843.407 451.055 843.65 451.502 844 451.86C844.353 452.216 844.797 452.466 845.284 452.584C845.771 452.701 846.281 452.681 846.757 452.525H846.81L847.535 452.444C848.354 452.203 849.16 451.904 849.946 451.566C851.458 450.961 853.026 450.497 854.63 450.195C855.187 450.227 855.719 450.417 856.17 450.739L857.38 450.538C860 458.669 865.507 465.558 872.86 469.9L872.368 470.928C872.594 471.399 872.678 471.923 872.61 472.443C871.945 473.983 871.13 475.459 870.179 476.846C869.657 477.534 869.175 478.251 868.736 478.994L868.393 479.72C868.144 480.151 868.02 480.643 868.033 481.14C868.046 481.638 868.197 482.122 868.468 482.54C868.739 482.957 869.12 483.292 869.569 483.506C870.018 483.721 870.518 483.807 871.013 483.755C871.51 483.699 871.981 483.507 872.374 483.2C872.768 482.892 873.068 482.482 873.243 482.014L873.577 481.328C873.884 480.522 874.142 479.7 874.351 478.869C875.065 477.108 875.452 475.217 876.427 474.048C876.746 473.748 877.148 473.552 877.58 473.484L878.185 472.383C886.156 475.447 894.975 475.468 902.961 472.443L903.497 473.471C904.045 473.552 904.537 473.854 904.868 474.298C905.626 475.741 906.238 477.253 906.706 478.813C906.919 479.648 907.18 480.471 907.488 481.276L907.823 481.961C907.999 482.427 908.3 482.836 908.694 483.141C909.087 483.447 909.558 483.638 910.053 483.692C910.549 483.747 911.049 483.663 911.5 483.451C911.951 483.239 912.334 482.906 912.608 482.489C912.878 482.07 913.028 481.584 913.039 481.086C913.051 480.587 912.924 480.094 912.672 479.663L912.322 478.938C911.882 478.197 911.4 477.482 910.878 476.797C909.951 475.459 909.153 474.032 908.46 472.536C908.395 472.263 908.386 471.979 908.433 471.702C908.48 471.425 908.582 471.16 908.734 470.924C908.562 470.572 908.412 470.21 908.286 469.839C915.623 465.465 921.106 458.552 923.698 450.409L924.843 450.61C925.254 450.235 925.794 450.038 926.346 450.054C927.947 450.36 929.515 450.86 931.031 451.425C931.817 451.787 932.623 452.094 933.441 452.352C933.635 452.404 933.917 452.448 934.135 452.501H934.187C934.663 452.655 935.172 452.673 935.658 452.555C936.143 452.436 936.587 452.185 936.938 451.829C937.29 451.474 937.535 451.027 937.648 450.54C937.761 450.053 937.737 449.544 937.577 449.07C937.414 448.597 937.123 448.178 936.736 447.86C936.348 447.543 935.881 447.339 935.384 447.272L934.602 447.087C933.747 446.97 932.885 446.903 932.022 446.885C930.394 446.781 928.781 446.514 927.209 446.091C926.725 445.821 926.322 445.418 926.048 444.93L924.959 444.608C926.12 436.142 924.132 427.545 919.372 420.448L920.324 419.57C920.283 419.017 920.465 418.469 920.823 418.046C922.061 416.982 923.403 416.042 924.814 415.24C925.58 414.849 926.323 414.414 927.04 413.938L927.628 413.462C928.062 413.193 928.41 412.807 928.633 412.348C928.856 411.89 928.944 411.377 928.888 410.87C928.832 410.363 928.634 409.883 928.316 409.484C927.998 409.085 927.574 408.784 927.092 408.617C926.611 408.449 926.092 408.421 925.595 408.536C925.099 408.651 924.645 408.904 924.286 409.266L923.69 409.741C923.067 410.332 922.479 410.958 921.928 411.616C920.864 412.833 919.687 413.942 918.409 414.934C917.893 415.144 917.329 415.205 916.78 415.111L915.76 415.837C909.875 409.669 901.945 405.839 893.447 405.073C893.447 404.67 893.395 404.065 893.387 403.876C892.931 403.562 892.613 403.082 892.508 402.538C892.452 400.91 892.555 399.28 892.814 397.672C892.988 396.825 893.109 395.979 893.185 395.12V394.314C893.266 392.766 892.097 391.44 890.545 391.331L890.508 391.311ZM887.146 412.136L886.34 426.217H886.28C886.239 427.088 885.727 427.83 884.941 428.249C884.155 428.668 883.224 428.543 882.523 428.031L870.973 419.848C874.649 416.237 879.261 413.725 884.288 412.596C885.232 412.394 886.183 412.241 887.138 412.136H887.146ZM893.87 412.136C899.938 412.89 905.585 415.615 909.955 419.892L898.514 428.023C897.809 428.588 896.842 428.7 896.023 428.313C895.205 427.926 894.681 427.104 894.669 426.201L893.87 412.136ZM866.78 425.145L877.342 434.57V434.63C877.999 435.203 878.286 436.094 878.092 436.944C877.899 437.795 877.246 438.468 876.411 438.698V438.738L862.858 442.636C862.187 436.53 863.569 430.375 866.785 425.141L866.78 425.145ZM914.16 425.145C917.369 430.365 918.788 436.489 918.199 442.588L904.626 438.678V438.625C903.779 438.396 903.134 437.722 902.945 436.872C902.755 436.021 903.038 435.138 903.695 434.558L914.176 425.177L914.16 425.145ZM888.344 435.304H892.665L895.306 438.658L894.346 442.85L890.464 444.717L886.574 442.85L885.659 438.658L888.344 435.304ZM902.187 446.744C902.368 446.724 902.59 446.724 902.731 446.744L916.708 449.103C914.692 454.908 910.713 459.866 905.521 463.184L900.119 450.106C899.97 449.755 899.908 449.374 899.938 448.994C899.968 448.614 900.088 448.247 900.289 447.924C900.49 447.6 900.766 447.33 901.094 447.135C901.421 446.94 901.79 446.827 902.171 446.805L902.187 446.744ZM878.713 446.805C879.503 446.817 880.233 447.224 880.664 447.885C881.095 448.546 881.164 449.377 880.854 450.102V450.155L875.484 463.127C870.344 459.834 866.442 454.936 864.366 449.191L878.221 446.841C878.374 446.825 878.532 446.825 878.689 446.841L878.713 446.805ZM890.42 452.448C890.86 452.435 891.296 452.543 891.678 452.763C892.06 452.982 892.374 453.303 892.585 453.69H892.637L899.466 466.014L896.737 466.82C891.714 467.969 886.469 467.699 881.587 466.038L888.44 453.714C888.856 452.989 889.622 452.545 890.456 452.525L890.42 452.448Z" fill="white" stroke="white" stroke-width="1.16816"/>
</g>
<g clip-path="url(#clip2_12_48994)">
<path d="M120.097 257.919C118.943 257.987 117.815 258.286 116.779 258.798L71.8508 280.228C69.5046 281.345 67.7994 283.469 67.2149 286.001L56.2176 334.098C55.6936 336.355 56.1168 338.722 57.427 340.657C57.5802 340.89 57.7414 341.116 57.9108 341.334L88.9514 379.929C90.5921 381.945 93.0552 383.102 95.6513 383.089H145.437C148.041 383.093 150.509 381.88 152.145 379.893L183.17 341.289C184.798 339.274 185.407 336.613 184.782 334.09L173.712 285.952C173.128 283.421 171.415 281.296 169.076 280.18L124.221 258.802C122.928 258.164 121.497 257.861 120.056 257.919H120.097Z" fill="#326CE5"/>
<path d="M120.508 274.311C118.96 274.419 117.787 275.746 117.868 277.294V278.052C117.941 278.91 118.07 279.761 118.239 280.603C118.486 282.217 118.575 283.85 118.505 285.481C118.352 286.017 118.045 286.501 117.626 286.872L117.566 288.009C115.933 288.146 114.312 288.396 112.716 288.759C106 290.274 99.8846 293.757 95.164 298.776L94.1965 298.091C93.6643 298.252 93.0919 298.192 92.6041 297.93C91.2956 296.961 90.0846 295.868 88.9881 294.664C88.4373 294.006 87.8491 293.38 87.2264 292.79L86.6298 292.314C86.0977 291.887 85.4446 291.641 84.7633 291.609C84.3568 291.587 83.9509 291.662 83.5788 291.827C83.2068 291.993 82.8792 292.244 82.6227 292.56C81.7117 293.838 82.01 295.608 83.2839 296.523L83.8402 296.966C84.5563 297.443 85.2993 297.877 86.0654 298.268C87.4925 299.062 88.8389 299.994 90.0886 301.09C90.4083 301.546 90.594 302.082 90.6248 302.638L91.5036 303.444C86.7588 310.564 84.8117 319.186 86.0292 327.656L84.9004 327.979C84.6061 328.446 84.2151 328.845 83.7475 329.14C82.1727 329.56 80.5606 329.826 78.9342 329.934C78.071 329.951 77.2096 330.019 76.3542 330.135L75.6406 330.297H75.56C75.0648 330.365 74.5985 330.57 74.2128 330.888C73.8271 331.206 73.5373 331.625 73.3756 332.098C73.2139 332.571 73.1866 333.08 73.2968 333.567C73.4071 334.055 73.6504 334.502 73.9999 334.86C74.3526 335.216 74.7973 335.466 75.2842 335.584C75.7712 335.701 76.2812 335.681 76.7573 335.525H76.8097L77.5353 335.444C78.3537 335.203 79.1599 334.904 79.946 334.566C81.4577 333.961 83.0259 333.497 84.6303 333.195C85.1866 333.227 85.7187 333.417 86.1702 333.739L87.3796 333.538C89.9999 341.669 95.5066 348.558 102.86 352.9L102.368 353.928C102.594 354.399 102.678 354.923 102.61 355.443C101.945 356.983 101.13 358.459 100.179 359.846C99.6569 360.534 99.1751 361.251 98.7357 361.994L98.393 362.72C98.1444 363.151 98.0198 363.643 98.033 364.14C98.0462 364.638 98.1966 365.122 98.4677 365.54C98.7388 365.957 99.12 366.292 99.5692 366.506C100.018 366.721 100.518 366.807 101.013 366.755C101.51 366.699 101.981 366.507 102.374 366.2C102.768 365.892 103.068 365.482 103.243 365.014L103.577 364.328C103.884 363.522 104.142 362.7 104.351 361.869C105.065 360.108 105.452 358.217 106.427 357.048C106.746 356.748 107.148 356.552 107.58 356.484L108.185 355.383C116.156 358.447 124.975 358.468 132.961 355.443L133.497 356.471C134.045 356.552 134.537 356.854 134.868 357.298C135.626 358.741 136.238 360.253 136.706 361.813C136.919 362.648 137.18 363.471 137.488 364.276L137.823 364.961C137.999 365.427 138.3 365.836 138.694 366.141C139.087 366.447 139.558 366.638 140.053 366.692C140.549 366.747 141.049 366.663 141.5 366.451C141.951 366.239 142.334 365.906 142.608 365.489C142.878 365.07 143.028 364.584 143.039 364.086C143.051 363.587 142.924 363.094 142.672 362.663L142.322 361.938C141.882 361.197 141.4 360.482 140.878 359.797C139.951 358.459 139.153 357.032 138.46 355.536C138.395 355.263 138.386 354.979 138.433 354.702C138.48 354.425 138.582 354.16 138.734 353.924C138.562 353.572 138.412 353.21 138.286 352.839C145.623 348.465 151.106 341.552 153.698 333.409L154.843 333.61C155.254 333.235 155.794 333.038 156.346 333.054C157.947 333.36 159.515 333.86 161.031 334.425C161.817 334.787 162.623 335.094 163.441 335.352C163.635 335.404 163.917 335.448 164.135 335.501H164.187C164.663 335.655 165.172 335.673 165.658 335.555C166.143 335.436 166.587 335.185 166.938 334.829C167.29 334.474 167.535 334.027 167.648 333.54C167.761 333.053 167.737 332.544 167.577 332.07C167.414 331.597 167.123 331.178 166.736 330.86C166.348 330.543 165.881 330.339 165.384 330.272L164.602 330.087C163.747 329.97 162.885 329.903 162.022 329.885C160.394 329.781 158.781 329.514 157.209 329.091C156.725 328.821 156.322 328.418 156.048 327.93L154.959 327.608C156.12 319.142 154.132 310.545 149.372 303.448L150.324 302.57C150.283 302.017 150.465 301.469 150.823 301.046C152.061 299.982 153.403 299.042 154.814 298.24C155.58 297.849 156.323 297.414 157.04 296.938L157.628 296.462C158.062 296.193 158.41 295.807 158.633 295.348C158.856 294.89 158.944 294.377 158.888 293.87C158.832 293.363 158.634 292.883 158.316 292.484C157.998 292.085 157.574 291.784 157.092 291.617C156.611 291.449 156.092 291.421 155.595 291.536C155.099 291.651 154.645 291.904 154.286 292.266L153.69 292.741C153.067 293.332 152.479 293.958 151.928 294.616C150.864 295.833 149.687 296.942 148.409 297.934C147.893 298.144 147.329 298.205 146.78 298.111L145.76 298.837C139.875 292.669 131.945 288.839 123.447 288.073C123.447 287.67 123.395 287.065 123.387 286.876C122.931 286.562 122.613 286.082 122.508 285.538C122.452 283.91 122.555 282.28 122.814 280.672C122.988 279.825 123.109 278.979 123.185 278.12V277.314C123.266 275.766 122.097 274.44 120.545 274.331L120.508 274.311ZM117.146 295.136L116.34 309.217H116.28C116.239 310.088 115.727 310.83 114.941 311.249C114.155 311.668 113.224 311.543 112.523 311.031L100.973 302.848C104.649 299.237 109.261 296.725 114.288 295.596C115.232 295.394 116.183 295.241 117.138 295.136H117.146ZM123.87 295.136C129.938 295.89 135.585 298.615 139.955 302.892L128.514 311.023C127.809 311.588 126.842 311.7 126.023 311.313C125.205 310.926 124.681 310.104 124.669 309.201L123.87 295.136ZM96.7805 308.145L107.342 317.57V317.63C107.999 318.203 108.286 319.094 108.092 319.944C107.899 320.795 107.246 321.468 106.411 321.698V321.738L92.8581 325.636C92.1874 319.53 93.5689 313.375 96.7845 308.141L96.7805 308.145ZM144.16 308.145C147.369 313.365 148.788 319.489 148.199 325.588L134.626 321.678V321.625C133.779 321.396 133.134 320.722 132.945 319.872C132.755 319.021 133.038 318.138 133.695 317.558L144.176 308.177L144.16 308.145ZM118.344 318.304H122.665L125.306 321.658L124.346 325.85L120.464 327.717L116.574 325.85L115.659 321.658L118.344 318.304ZM132.187 329.744C132.368 329.724 132.59 329.724 132.731 329.744L146.708 332.103C144.692 337.908 140.713 342.866 135.521 346.184L130.119 333.106C129.97 332.755 129.908 332.374 129.938 331.994C129.968 331.614 130.088 331.247 130.289 330.924C130.49 330.6 130.766 330.33 131.094 330.135C131.421 329.94 131.79 329.827 132.171 329.805L132.187 329.744ZM108.713 329.805C109.503 329.817 110.233 330.224 110.664 330.885C111.095 331.546 111.164 332.377 110.854 333.102V333.155L105.484 346.127C100.344 342.834 96.4419 337.936 94.3658 332.191L108.221 329.841C108.374 329.825 108.532 329.825 108.689 329.841L108.713 329.805ZM120.42 335.448C120.86 335.435 121.296 335.543 121.678 335.763C122.06 335.982 122.374 336.303 122.585 336.69H122.637L129.466 349.014L126.737 349.82C121.714 350.969 116.469 350.699 111.587 349.038L118.44 336.714C118.856 335.989 119.622 335.545 120.456 335.525L120.42 335.448Z" fill="white" stroke="white" stroke-width="1.16816"/>
</g>
<g clip-path="url(#clip3_12_48994)">
<path d="M259.097 257.919C257.943 257.987 256.815 258.286 255.779 258.798L210.851 280.228C208.505 281.345 206.799 283.469 206.215 286.001L195.218 334.098C194.694 336.355 195.117 338.722 196.427 340.657C196.58 340.89 196.741 341.116 196.911 341.334L227.951 379.929C229.592 381.945 232.055 383.102 234.651 383.089H284.437C287.041 383.093 289.509 381.88 291.145 379.893L322.17 341.289C323.798 339.274 324.407 336.613 323.782 334.09L312.712 285.952C312.128 283.421 310.415 281.296 308.076 280.18L263.221 258.802C261.928 258.164 260.497 257.861 259.056 257.919H259.097Z" fill="#326CE5"/>
<path d="M259.508 274.311C257.96 274.419 256.787 275.746 256.868 277.294V278.052C256.941 278.91 257.07 279.761 257.239 280.603C257.486 282.217 257.575 283.85 257.505 285.481C257.352 286.017 257.045 286.501 256.626 286.872L256.566 288.009C254.933 288.146 253.312 288.396 251.716 288.759C245 290.274 238.885 293.757 234.164 298.776L233.196 298.091C232.664 298.252 232.092 298.192 231.604 297.93C230.296 296.961 229.085 295.868 227.988 294.664C227.437 294.006 226.849 293.38 226.226 292.79L225.63 292.314C225.098 291.887 224.445 291.641 223.763 291.609C223.357 291.587 222.951 291.662 222.579 291.827C222.207 291.993 221.879 292.244 221.623 292.56C220.712 293.838 221.01 295.608 222.284 296.523L222.84 296.966C223.556 297.443 224.299 297.877 225.065 298.268C226.492 299.062 227.839 299.994 229.089 301.09C229.408 301.546 229.594 302.082 229.625 302.638L230.504 303.444C225.759 310.564 223.812 319.186 225.029 327.656L223.9 327.979C223.606 328.446 223.215 328.845 222.747 329.14C221.173 329.56 219.561 329.826 217.934 329.934C217.071 329.951 216.21 330.019 215.354 330.135L214.641 330.297H214.56C214.065 330.365 213.598 330.57 213.213 330.888C212.827 331.206 212.537 331.625 212.376 332.098C212.214 332.571 212.187 333.08 212.297 333.567C212.407 334.055 212.65 334.502 213 334.86C213.353 335.216 213.797 335.466 214.284 335.584C214.771 335.701 215.281 335.681 215.757 335.525H215.81L216.535 335.444C217.354 335.203 218.16 334.904 218.946 334.566C220.458 333.961 222.026 333.497 223.63 333.195C224.187 333.227 224.719 333.417 225.17 333.739L226.38 333.538C229 341.669 234.507 348.558 241.86 352.9L241.368 353.928C241.594 354.399 241.678 354.923 241.61 355.443C240.945 356.983 240.13 358.459 239.179 359.846C238.657 360.534 238.175 361.251 237.736 361.994L237.393 362.72C237.144 363.151 237.02 363.643 237.033 364.14C237.046 364.638 237.197 365.122 237.468 365.54C237.739 365.957 238.12 366.292 238.569 366.506C239.018 366.721 239.518 366.807 240.013 366.755C240.51 366.699 240.981 366.507 241.374 366.2C241.768 365.892 242.068 365.482 242.243 365.014L242.577 364.328C242.884 363.522 243.142 362.7 243.351 361.869C244.065 360.108 244.452 358.217 245.427 357.048C245.746 356.748 246.148 356.552 246.58 356.484L247.185 355.383C255.156 358.447 263.975 358.468 271.961 355.443L272.497 356.471C273.045 356.552 273.537 356.854 273.868 357.298C274.626 358.741 275.238 360.253 275.706 361.813C275.919 362.648 276.18 363.471 276.488 364.276L276.823 364.961C276.999 365.427 277.3 365.836 277.694 366.141C278.087 366.447 278.558 366.638 279.053 366.692C279.549 366.747 280.049 366.663 280.5 366.451C280.951 366.239 281.334 365.906 281.608 365.489C281.878 365.07 282.028 364.584 282.039 364.086C282.051 363.587 281.924 363.094 281.672 362.663L281.322 361.938C280.882 361.197 280.4 360.482 279.878 359.797C278.951 358.459 278.153 357.032 277.46 355.536C277.395 355.263 277.386 354.979 277.433 354.702C277.48 354.425 277.582 354.16 277.734 353.924C277.562 353.572 277.412 353.21 277.286 352.839C284.623 348.465 290.106 341.552 292.698 333.409L293.843 333.61C294.254 333.235 294.794 333.038 295.346 333.054C296.947 333.36 298.515 333.86 300.031 334.425C300.817 334.787 301.623 335.094 302.441 335.352C302.635 335.404 302.917 335.448 303.135 335.501H303.187C303.663 335.655 304.172 335.673 304.658 335.555C305.143 335.436 305.587 335.185 305.938 334.829C306.29 334.474 306.535 334.027 306.648 333.54C306.761 333.053 306.737 332.544 306.577 332.07C306.414 331.597 306.123 331.178 305.736 330.86C305.348 330.543 304.881 330.339 304.384 330.272L303.602 330.087C302.747 329.97 301.885 329.903 301.022 329.885C299.394 329.781 297.781 329.514 296.209 329.091C295.725 328.821 295.322 328.418 295.048 327.93L293.959 327.608C295.12 319.142 293.132 310.545 288.372 303.448L289.324 302.57C289.283 302.017 289.465 301.469 289.823 301.046C291.061 299.982 292.403 299.042 293.814 298.24C294.58 297.849 295.323 297.414 296.04 296.938L296.628 296.462C297.062 296.193 297.41 295.807 297.633 295.348C297.856 294.89 297.944 294.377 297.888 293.87C297.832 293.363 297.634 292.883 297.316 292.484C296.998 292.085 296.574 291.784 296.092 291.617C295.611 291.449 295.092 291.421 294.595 291.536C294.099 291.651 293.645 291.904 293.286 292.266L292.69 292.741C292.067 293.332 291.479 293.958 290.928 294.616C289.864 295.833 288.687 296.942 287.409 297.934C286.893 298.144 286.329 298.205 285.78 298.111L284.76 298.837C278.875 292.669 270.945 288.839 262.447 288.073C262.447 287.67 262.395 287.065 262.387 286.876C261.931 286.562 261.613 286.082 261.508 285.538C261.452 283.91 261.555 282.28 261.814 280.672C261.988 279.825 262.109 278.979 262.185 278.12V277.314C262.266 275.766 261.097 274.44 259.545 274.331L259.508 274.311ZM256.146 295.136L255.34 309.217H255.28C255.239 310.088 254.727 310.83 253.941 311.249C253.155 311.668 252.224 311.543 251.523 311.031L239.973 302.848C243.649 299.237 248.261 296.725 253.288 295.596C254.232 295.394 255.183 295.241 256.138 295.136H256.146ZM262.87 295.136C268.938 295.89 274.585 298.615 278.955 302.892L267.514 311.023C266.809 311.588 265.842 311.7 265.023 311.313C264.205 310.926 263.681 310.104 263.669 309.201L262.87 295.136ZM235.78 308.145L246.342 317.57V317.63C246.999 318.203 247.286 319.094 247.092 319.944C246.899 320.795 246.246 321.468 245.411 321.698V321.738L231.858 325.636C231.187 319.53 232.569 313.375 235.785 308.141L235.78 308.145ZM283.16 308.145C286.369 313.365 287.788 319.489 287.199 325.588L273.626 321.678V321.625C272.779 321.396 272.134 320.722 271.945 319.872C271.755 319.021 272.038 318.138 272.695 317.558L283.176 308.177L283.16 308.145ZM257.344 318.304H261.665L264.306 321.658L263.346 325.85L259.464 327.717L255.574 325.85L254.659 321.658L257.344 318.304ZM271.187 329.744C271.368 329.724 271.59 329.724 271.731 329.744L285.708 332.103C283.692 337.908 279.713 342.866 274.521 346.184L269.119 333.106C268.97 332.755 268.908 332.374 268.938 331.994C268.968 331.614 269.088 331.247 269.289 330.924C269.49 330.6 269.766 330.33 270.094 330.135C270.421 329.94 270.79 329.827 271.171 329.805L271.187 329.744ZM247.713 329.805C248.503 329.817 249.233 330.224 249.664 330.885C250.095 331.546 250.164 332.377 249.854 333.102V333.155L244.484 346.127C239.344 342.834 235.442 337.936 233.366 332.191L247.221 329.841C247.374 329.825 247.532 329.825 247.689 329.841L247.713 329.805ZM259.42 335.448C259.86 335.435 260.296 335.543 260.678 335.763C261.06 335.982 261.374 336.303 261.585 336.69H261.637L268.466 349.014L265.737 349.82C260.714 350.969 255.469 350.699 250.587 349.038L257.44 336.714C257.856 335.989 258.622 335.545 259.456 335.525L259.42 335.448Z" fill="white" stroke="white" stroke-width="1.16816"/>
</g>
<path d="M512.547 158.045V154.255H530.406V158.045H523.749V176H519.205V158.045H512.547ZM532.615 176V154.255H547.267V158.045H537.212V163.227H546.513V167.017H537.212V172.209H547.31V176H532.615ZM553.938 176H549.011L556.518 154.255H562.442L569.939 176H565.012L559.565 159.224H559.395L553.938 176ZM553.63 167.453H565.267V171.041H553.63V167.453ZM571.823 154.255H577.493L583.481 168.865H583.736L589.725 154.255H595.395V176H590.935V161.846H590.755L585.127 175.894H582.09L576.463 161.793H576.282V176H571.823V154.255ZM604.637 176V154.255H613.343C614.943 154.255 616.278 154.492 617.346 154.966C618.415 155.44 619.219 156.099 619.757 156.941C620.295 157.776 620.564 158.739 620.564 159.829C620.564 160.678 620.394 161.425 620.054 162.069C619.714 162.706 619.247 163.23 618.652 163.641C618.065 164.044 617.392 164.331 616.635 164.501V164.713C617.463 164.749 618.238 164.982 618.96 165.414C619.689 165.846 620.28 166.451 620.734 167.23C621.187 168.001 621.413 168.921 621.413 169.99C621.413 171.144 621.126 172.174 620.553 173.08C619.987 173.979 619.148 174.69 618.037 175.214C616.925 175.738 615.556 176 613.927 176H604.637ZM609.234 172.241H612.982C614.264 172.241 615.198 171.997 615.786 171.509C616.373 171.013 616.667 170.355 616.667 169.534C616.667 168.932 616.522 168.401 616.232 167.941C615.941 167.481 615.527 167.12 614.989 166.858C614.458 166.596 613.825 166.465 613.089 166.465H609.234V172.241ZM609.234 163.354H612.643C613.273 163.354 613.832 163.244 614.32 163.025C614.816 162.798 615.205 162.48 615.488 162.069C615.778 161.659 615.924 161.167 615.924 160.593C615.924 159.808 615.644 159.174 615.085 158.693C614.533 158.211 613.747 157.971 612.728 157.971H609.234V163.354Z" fill="black"/>
<path d="M75.1951 60.3069L75.2057 54.8811H75.864L81.088 48.6909H86.2801L79.2617 56.8879H78.1893L75.1951 60.3069ZM71.0966 65V43.2545H75.6198V65H71.0966ZM81.2897 65L76.4904 57.8966L79.5059 54.7006L86.5881 65H81.2897ZM98.2249 58.0559V48.6909H102.748V65H98.4054V62.0376H98.2355C97.8674 62.9932 97.2551 63.7612 96.3986 64.3417C95.5492 64.9221 94.5122 65.2124 93.2876 65.2124C92.1975 65.2124 91.2383 64.9646 90.4101 64.4691C89.5819 63.9736 88.9342 63.2693 88.467 62.3561C88.0069 61.443 87.7733 60.3494 87.7663 59.0752V48.6909H92.2895V58.2683C92.2966 59.2309 92.5549 59.9919 93.0646 60.5511C93.5742 61.1103 94.2573 61.3899 95.1138 61.3899C95.6589 61.3899 96.1685 61.266 96.6428 61.0183C97.1171 60.7635 97.4993 60.3883 97.7895 59.8928C98.0868 59.3973 98.232 58.785 98.2249 58.0559ZM105.718 65V43.2545H110.241V51.4303H110.379C110.578 50.9915 110.864 50.5455 111.239 50.0925C111.622 49.6324 112.117 49.2501 112.726 48.9457C113.342 48.6343 114.106 48.4786 115.019 48.4786C116.209 48.4786 117.306 48.79 118.311 49.4129C119.316 50.0288 120.119 50.9596 120.721 52.2054C121.323 53.4442 121.624 54.9979 121.624 56.8667C121.624 58.6859 121.33 60.2219 120.742 61.4749C120.162 62.7207 119.369 63.6657 118.364 64.3098C117.366 64.9469 116.247 65.2654 115.009 65.2654C114.131 65.2654 113.384 65.1203 112.768 64.8301C112.16 64.5399 111.661 64.1753 111.271 63.7365C110.882 63.2905 110.585 62.841 110.379 62.388H110.178V65H105.718ZM110.146 56.8455C110.146 57.8152 110.28 58.6611 110.549 59.3831C110.818 60.1051 111.208 60.6679 111.717 61.0714C112.227 61.4678 112.846 61.666 113.575 61.666C114.311 61.666 114.934 61.4642 115.444 61.0608C115.954 60.6502 116.339 60.0839 116.601 59.3619C116.87 58.6328 117.005 57.794 117.005 56.8455C117.005 55.904 116.874 55.0758 116.612 54.3609C116.35 53.6459 115.964 53.0867 115.455 52.6832C114.945 52.2798 114.319 52.078 113.575 52.078C112.839 52.078 112.216 52.2727 111.707 52.662C111.204 53.0513 110.818 53.6035 110.549 54.3184C110.28 55.0333 110.146 55.8757 110.146 56.8455ZM131.341 65.3185C129.664 65.3185 128.22 64.9788 127.009 64.2992C125.806 63.6126 124.879 62.6428 124.227 61.3899C123.576 60.1299 123.25 58.6399 123.25 56.9198C123.25 55.2422 123.576 53.7698 124.227 52.5027C124.879 51.2357 125.795 50.2482 126.977 49.5403C128.167 48.8325 129.561 48.4786 131.161 48.4786C132.237 48.4786 133.238 48.652 134.166 48.9988C135.1 49.3386 135.914 49.8518 136.608 50.5384C137.309 51.225 137.854 52.0886 138.243 53.1292C138.632 54.1627 138.827 55.3731 138.827 56.7605V58.0028H125.056V55.1997H134.569C134.569 54.5484 134.428 53.9715 134.144 53.469C133.861 52.9664 133.468 52.5735 132.966 52.2904C132.47 52.0002 131.893 51.855 131.235 51.855C130.548 51.855 129.94 52.0143 129.409 52.3328C128.885 52.6443 128.474 53.0655 128.177 53.5964C127.88 54.1202 127.728 54.7042 127.721 55.3483V58.0134C127.721 58.8204 127.869 59.5176 128.167 60.1051C128.471 60.6927 128.899 61.1457 129.451 61.4642C130.003 61.7828 130.658 61.942 131.416 61.942C131.918 61.942 132.378 61.8713 132.796 61.7297C133.214 61.5881 133.571 61.3758 133.868 61.0926C134.166 60.8095 134.392 60.4626 134.548 60.0521L138.731 60.3281C138.519 61.3333 138.084 62.211 137.425 62.9614C136.774 63.7046 135.932 64.2851 134.898 64.7027C133.872 65.1133 132.686 65.3185 131.341 65.3185ZM148.414 65.3185C146.744 65.3185 145.307 64.9646 144.104 64.2567C142.907 63.5418 141.987 62.5508 141.343 61.2837C140.706 60.0167 140.387 58.5585 140.387 56.9092C140.387 55.2386 140.709 53.7733 141.354 52.5134C142.005 51.2463 142.929 50.2588 144.125 49.551C145.321 48.836 146.744 48.4786 148.393 48.4786C149.816 48.4786 151.062 48.7369 152.131 49.2537C153.2 49.7704 154.045 50.496 154.668 51.4303C155.291 52.3647 155.635 53.4619 155.698 54.7219H151.43C151.31 53.9078 150.991 53.2531 150.474 52.7576C149.965 52.255 149.296 52.0037 148.468 52.0037C147.767 52.0037 147.154 52.1948 146.631 52.5771C146.114 52.9522 145.71 53.5008 145.42 54.2228C145.13 54.9449 144.985 55.8191 144.985 56.8455C144.985 57.886 145.126 58.7708 145.41 59.4999C145.7 60.229 146.107 60.7847 146.631 61.1669C147.154 61.5492 147.767 61.7403 148.468 61.7403C148.984 61.7403 149.448 61.6341 149.859 61.4218C150.276 61.2094 150.619 60.9015 150.888 60.498C151.165 60.0875 151.345 59.5955 151.43 59.0221H155.698C155.628 60.268 155.288 61.3651 154.679 62.3137C154.077 63.2551 153.246 63.9913 152.184 64.5222C151.122 65.0531 149.866 65.3185 148.414 65.3185ZM166.536 48.6909V52.0886H156.715V48.6909H166.536ZM158.944 44.7835H163.468V59.9884C163.468 60.406 163.531 60.7316 163.659 60.9652C163.786 61.1917 163.963 61.351 164.19 61.443C164.423 61.535 164.692 61.581 164.997 61.581C165.209 61.581 165.421 61.5633 165.634 61.5279C165.846 61.4855 166.009 61.4536 166.122 61.4324L166.833 64.7983C166.607 64.869 166.288 64.9504 165.878 65.0425C165.467 65.1416 164.968 65.2017 164.381 65.223C163.291 65.2654 162.335 65.1203 161.514 64.7876C160.7 64.4549 160.066 63.9382 159.613 63.2374C159.16 62.5366 158.937 61.6518 158.944 60.583V44.7835ZM173.623 43.2545V65H169.1V43.2545H173.623Z" fill="black"/>
<path d="M120 211L145.981 166H94.0192L120 211ZM115.5 83V170.5H124.5V83H115.5Z" fill="#F5A344"/>
<circle cx="377.5" cy="299.5" r="45.5" fill="#84EA6A"/>
<path d="M349.66 309.576V285.954H358.98C360.772 285.954 362.298 286.296 363.559 286.98C364.82 287.657 365.782 288.599 366.443 289.806C367.112 291.006 367.446 292.39 367.446 293.959C367.446 295.527 367.108 296.911 366.431 298.111C365.755 299.311 364.774 300.245 363.49 300.914C362.214 301.583 360.668 301.917 358.853 301.917H352.913V297.915H358.046C359.007 297.915 359.799 297.75 360.422 297.419C361.052 297.081 361.522 296.615 361.829 296.023C362.144 295.423 362.302 294.735 362.302 293.959C362.302 293.174 362.144 292.49 361.829 291.905C361.522 291.313 361.052 290.856 360.422 290.533C359.791 290.202 358.992 290.037 358.023 290.037H354.655V309.576H349.66ZM377.831 309.922C376.039 309.922 374.49 309.542 373.182 308.78C371.883 308.011 370.879 306.942 370.172 305.574C369.464 304.197 369.111 302.602 369.111 300.787C369.111 298.957 369.464 297.357 370.172 295.989C370.879 294.612 371.883 293.543 373.182 292.782C374.49 292.013 376.039 291.629 377.831 291.629C379.622 291.629 381.168 292.013 382.468 292.782C383.775 293.543 384.782 294.612 385.49 295.989C386.197 297.357 386.551 298.957 386.551 300.787C386.551 302.602 386.197 304.197 385.49 305.574C384.782 306.942 383.775 308.011 382.468 308.78C381.168 309.542 379.622 309.922 377.831 309.922ZM377.854 306.116C378.669 306.116 379.349 305.885 379.895 305.424C380.441 304.955 380.853 304.316 381.13 303.509C381.414 302.702 381.556 301.783 381.556 300.752C381.556 299.722 381.414 298.803 381.13 297.996C380.853 297.188 380.441 296.55 379.895 296.081C379.349 295.612 378.669 295.377 377.854 295.377C377.031 295.377 376.339 295.612 375.778 296.081C375.224 296.55 374.805 297.188 374.52 297.996C374.243 298.803 374.105 299.722 374.105 300.752C374.105 301.783 374.243 302.702 374.52 303.509C374.805 304.316 375.224 304.955 375.778 305.424C376.339 305.885 377.031 306.116 377.854 306.116ZM395.787 309.865C394.442 309.865 393.223 309.518 392.131 308.826C391.047 308.127 390.185 307.1 389.547 305.747C388.917 304.386 388.601 302.717 388.601 300.741C388.601 298.711 388.928 297.023 389.582 295.677C390.235 294.324 391.104 293.313 392.189 292.644C393.281 291.967 394.476 291.629 395.776 291.629C396.768 291.629 397.594 291.798 398.256 292.136C398.925 292.467 399.463 292.882 399.871 293.382C400.286 293.874 400.601 294.358 400.816 294.835H400.966V285.954H405.868V309.576H401.024V306.739H400.816C400.586 307.231 400.259 307.719 399.836 308.204C399.421 308.68 398.879 309.076 398.21 309.392C397.548 309.707 396.741 309.865 395.787 309.865ZM397.345 305.954C398.137 305.954 398.806 305.739 399.352 305.308C399.905 304.87 400.328 304.259 400.62 303.474C400.92 302.69 401.07 301.771 401.07 300.718C401.07 299.664 400.924 298.749 400.632 297.973C400.34 297.196 399.917 296.596 399.363 296.173C398.809 295.75 398.137 295.539 397.345 295.539C396.537 295.539 395.857 295.758 395.303 296.196C394.749 296.635 394.33 297.242 394.046 298.019C393.761 298.795 393.619 299.695 393.619 300.718C393.619 301.748 393.761 302.659 394.046 303.451C394.338 304.236 394.757 304.851 395.303 305.297C395.857 305.735 396.537 305.954 397.345 305.954Z" fill="black"/>
<circle cx="682.5" cy="231.5" r="45.5" fill="#84EA6A"/>
<path d="M654.66 241.576V217.954H663.98C665.772 217.954 667.298 218.296 668.559 218.98C669.82 219.657 670.782 220.599 671.443 221.806C672.112 223.006 672.446 224.39 672.446 225.959C672.446 227.527 672.108 228.911 671.431 230.111C670.755 231.311 669.774 232.245 668.49 232.914C667.214 233.583 665.668 233.917 663.853 233.917H657.913V229.915H663.046C664.007 229.915 664.799 229.75 665.422 229.419C666.052 229.081 666.522 228.615 666.829 228.023C667.144 227.423 667.302 226.735 667.302 225.959C667.302 225.174 667.144 224.49 666.829 223.905C666.522 223.313 666.052 222.856 665.422 222.533C664.791 222.202 663.992 222.037 663.023 222.037H659.655V241.576H654.66ZM682.831 241.922C681.039 241.922 679.49 241.542 678.182 240.78C676.883 240.011 675.879 238.942 675.172 237.574C674.464 236.197 674.111 234.602 674.111 232.787C674.111 230.957 674.464 229.357 675.172 227.989C675.879 226.612 676.883 225.543 678.182 224.782C679.49 224.013 681.039 223.629 682.831 223.629C684.622 223.629 686.168 224.013 687.468 224.782C688.775 225.543 689.782 226.612 690.49 227.989C691.197 229.357 691.551 230.957 691.551 232.787C691.551 234.602 691.197 236.197 690.49 237.574C689.782 238.942 688.775 240.011 687.468 240.78C686.168 241.542 684.622 241.922 682.831 241.922ZM682.854 238.116C683.669 238.116 684.349 237.885 684.895 237.424C685.441 236.955 685.853 236.316 686.13 235.509C686.414 234.702 686.556 233.783 686.556 232.752C686.556 231.722 686.414 230.803 686.13 229.996C685.853 229.188 685.441 228.55 684.895 228.081C684.349 227.612 683.669 227.377 682.854 227.377C682.031 227.377 681.339 227.612 680.778 228.081C680.224 228.55 679.805 229.188 679.52 229.996C679.243 230.803 679.105 231.722 679.105 232.752C679.105 233.783 679.243 234.702 679.52 235.509C679.805 236.316 680.224 236.955 680.778 237.424C681.339 237.885 682.031 238.116 682.854 238.116ZM700.787 241.865C699.442 241.865 698.223 241.518 697.131 240.826C696.047 240.127 695.185 239.1 694.547 237.747C693.917 236.386 693.601 234.717 693.601 232.741C693.601 230.711 693.928 229.023 694.582 227.677C695.235 226.324 696.104 225.313 697.189 224.644C698.281 223.967 699.476 223.629 700.776 223.629C701.768 223.629 702.594 223.798 703.256 224.136C703.925 224.467 704.463 224.882 704.871 225.382C705.286 225.874 705.601 226.358 705.816 226.835H705.966V217.954H710.868V241.576H706.024V238.739H705.816C705.586 239.231 705.259 239.719 704.836 240.204C704.421 240.68 703.879 241.076 703.21 241.392C702.548 241.707 701.741 241.865 700.787 241.865ZM702.345 237.954C703.137 237.954 703.806 237.739 704.352 237.308C704.905 236.87 705.328 236.259 705.62 235.474C705.92 234.69 706.07 233.771 706.07 232.718C706.07 231.664 705.924 230.749 705.632 229.973C705.34 229.196 704.917 228.596 704.363 228.173C703.809 227.75 703.137 227.539 702.345 227.539C701.537 227.539 700.857 227.758 700.303 228.196C699.749 228.635 699.33 229.242 699.046 230.019C698.761 230.795 698.619 231.695 698.619 232.718C698.619 233.748 698.761 234.659 699.046 235.451C699.338 236.236 699.757 236.851 700.303 237.297C700.857 237.735 701.537 237.954 702.345 237.954Z" fill="black"/>
<circle cx="1009.5" cy="420.5" r="45.5" fill="#84EA6A"/>
<path d="M981.66 430.576V406.954H990.98C992.772 406.954 994.298 407.296 995.559 407.98C996.82 408.657 997.782 409.599 998.443 410.806C999.112 412.006 999.446 413.39 999.446 414.959C999.446 416.527 999.108 417.911 998.431 419.111C997.755 420.311 996.774 421.245 995.49 421.914C994.214 422.583 992.668 422.917 990.853 422.917H984.913V418.915H990.046C991.007 418.915 991.799 418.75 992.422 418.419C993.052 418.081 993.522 417.615 993.829 417.023C994.144 416.423 994.302 415.735 994.302 414.959C994.302 414.174 994.144 413.49 993.829 412.905C993.522 412.313 993.052 411.856 992.422 411.533C991.791 411.202 990.992 411.037 990.023 411.037H986.655V430.576H981.66ZM1009.83 430.922C1008.04 430.922 1006.49 430.542 1005.18 429.78C1003.88 429.011 1002.88 427.942 1002.17 426.574C1001.46 425.197 1001.11 423.602 1001.11 421.787C1001.11 419.957 1001.46 418.357 1002.17 416.989C1002.88 415.612 1003.88 414.543 1005.18 413.782C1006.49 413.013 1008.04 412.629 1009.83 412.629C1011.62 412.629 1013.17 413.013 1014.47 413.782C1015.77 414.543 1016.78 415.612 1017.49 416.989C1018.2 418.357 1018.55 419.957 1018.55 421.787C1018.55 423.602 1018.2 425.197 1017.49 426.574C1016.78 427.942 1015.77 429.011 1014.47 429.78C1013.17 430.542 1011.62 430.922 1009.83 430.922ZM1009.85 427.116C1010.67 427.116 1011.35 426.885 1011.9 426.424C1012.44 425.955 1012.85 425.316 1013.13 424.509C1013.41 423.702 1013.56 422.783 1013.56 421.752C1013.56 420.722 1013.41 419.803 1013.13 418.996C1012.85 418.188 1012.44 417.55 1011.9 417.081C1011.35 416.612 1010.67 416.377 1009.85 416.377C1009.03 416.377 1008.34 416.612 1007.78 417.081C1007.22 417.55 1006.8 418.188 1006.52 418.996C1006.24 419.803 1006.11 420.722 1006.11 421.752C1006.11 422.783 1006.24 423.702 1006.52 424.509C1006.8 425.316 1007.22 425.955 1007.78 426.424C1008.34 426.885 1009.03 427.116 1009.85 427.116ZM1027.79 430.865C1026.44 430.865 1025.22 430.518 1024.13 429.826C1023.05 429.127 1022.19 428.1 1021.55 426.747C1020.92 425.386 1020.6 423.717 1020.6 421.741C1020.6 419.711 1020.93 418.023 1021.58 416.677C1022.24 415.324 1023.1 414.313 1024.19 413.644C1025.28 412.967 1026.48 412.629 1027.78 412.629C1028.77 412.629 1029.59 412.798 1030.26 413.136C1030.92 413.467 1031.46 413.882 1031.87 414.382C1032.29 414.874 1032.6 415.358 1032.82 415.835H1032.97V406.954H1037.87V430.576H1033.02V427.739H1032.82C1032.59 428.231 1032.26 428.719 1031.84 429.204C1031.42 429.68 1030.88 430.076 1030.21 430.392C1029.55 430.707 1028.74 430.865 1027.79 430.865ZM1029.34 426.954C1030.14 426.954 1030.81 426.739 1031.35 426.308C1031.91 425.87 1032.33 425.259 1032.62 424.474C1032.92 423.69 1033.07 422.771 1033.07 421.718C1033.07 420.664 1032.92 419.749 1032.63 418.973C1032.34 418.196 1031.92 417.596 1031.36 417.173C1030.81 416.75 1030.14 416.539 1029.34 416.539C1028.54 416.539 1027.86 416.758 1027.3 417.196C1026.75 417.635 1026.33 418.242 1026.05 419.019C1025.76 419.795 1025.62 420.695 1025.62 421.718C1025.62 422.748 1025.76 423.659 1026.05 424.451C1026.34 425.236 1026.76 425.851 1027.3 426.297C1027.86 426.735 1028.54 426.954 1029.34 426.954Z" fill="black"/>
<circle cx="377.5" cy="413.5" r="45.5" fill="#EBBE62"/>
<path d="M349.66 423.576V399.954H358.98C360.772 399.954 362.298 400.296 363.559 400.98C364.82 401.657 365.782 402.599 366.443 403.806C367.112 405.006 367.446 406.39 367.446 407.959C367.446 409.527 367.108 410.911 366.431 412.111C365.755 413.311 364.774 414.245 363.49 414.914C362.214 415.583 360.668 415.917 358.853 415.917H352.913V411.915H358.046C359.007 411.915 359.799 411.75 360.422 411.419C361.052 411.081 361.522 410.615 361.829 410.023C362.144 409.423 362.302 408.735 362.302 407.959C362.302 407.174 362.144 406.49 361.829 405.905C361.522 405.313 361.052 404.856 360.422 404.533C359.791 404.202 358.992 404.037 358.023 404.037H354.655V423.576H349.66ZM377.831 423.922C376.039 423.922 374.49 423.542 373.182 422.78C371.883 422.011 370.879 420.942 370.172 419.574C369.464 418.197 369.111 416.602 369.111 414.787C369.111 412.957 369.464 411.357 370.172 409.989C370.879 408.612 371.883 407.543 373.182 406.782C374.49 406.013 376.039 405.629 377.831 405.629C379.622 405.629 381.168 406.013 382.468 406.782C383.775 407.543 384.782 408.612 385.49 409.989C386.197 411.357 386.551 412.957 386.551 414.787C386.551 416.602 386.197 418.197 385.49 419.574C384.782 420.942 383.775 422.011 382.468 422.78C381.168 423.542 379.622 423.922 377.831 423.922ZM377.854 420.116C378.669 420.116 379.349 419.885 379.895 419.424C380.441 418.955 380.853 418.316 381.13 417.509C381.414 416.702 381.556 415.783 381.556 414.752C381.556 413.722 381.414 412.803 381.13 411.996C380.853 411.188 380.441 410.55 379.895 410.081C379.349 409.612 378.669 409.377 377.854 409.377C377.031 409.377 376.339 409.612 375.778 410.081C375.224 410.55 374.805 411.188 374.52 411.996C374.243 412.803 374.105 413.722 374.105 414.752C374.105 415.783 374.243 416.702 374.52 417.509C374.805 418.316 375.224 418.955 375.778 419.424C376.339 419.885 377.031 420.116 377.854 420.116ZM395.787 423.865C394.442 423.865 393.223 423.518 392.131 422.826C391.047 422.127 390.185 421.1 389.547 419.747C388.917 418.386 388.601 416.717 388.601 414.741C388.601 412.711 388.928 411.023 389.582 409.677C390.235 408.324 391.104 407.313 392.189 406.644C393.281 405.967 394.476 405.629 395.776 405.629C396.768 405.629 397.594 405.798 398.256 406.136C398.925 406.467 399.463 406.882 399.871 407.382C400.286 407.874 400.601 408.358 400.816 408.835H400.966V399.954H405.868V423.576H401.024V420.739H400.816C400.586 421.231 400.259 421.719 399.836 422.204C399.421 422.68 398.879 423.076 398.21 423.392C397.548 423.707 396.741 423.865 395.787 423.865ZM397.345 419.954C398.137 419.954 398.806 419.739 399.352 419.308C399.905 418.87 400.328 418.259 400.62 417.474C400.92 416.69 401.07 415.771 401.07 414.718C401.07 413.664 400.924 412.749 400.632 411.973C400.34 411.196 399.917 410.596 399.363 410.173C398.809 409.75 398.137 409.539 397.345 409.539C396.537 409.539 395.857 409.758 395.303 410.196C394.749 410.635 394.33 411.242 394.046 412.019C393.761 412.795 393.619 413.695 393.619 414.718C393.619 415.748 393.761 416.659 394.046 417.451C394.338 418.236 394.757 418.851 395.303 419.297C395.857 419.735 396.537 419.954 397.345 419.954Z" fill="black"/>
<defs>
<clipPath id="clip0_12_48994">
<rect width="129" height="129" fill="white" transform="translate(502 189)"/>
</clipPath>
<clipPath id="clip1_12_48994">
<rect width="129" height="129" fill="white" transform="translate(826 373)"/>
</clipPath>
<clipPath id="clip2_12_48994">
<rect width="129" height="129" fill="white" transform="translate(56 256)"/>
</clipPath>
<clipPath id="clip3_12_48994">
<rect width="129" height="129" fill="white" transform="translate(195 256)"/>
</clipPath>
</defs>
</svg>
