<svg width="1200" height="900" viewBox="0 0 1200 900" fill="none" xmlns="http://www.w3.org/2000/svg">
<rect width="1200" height="900" fill="white"/>
<path d="M77.321 444V371.273H92.6974V403.339H93.6562L119.828 371.273H138.259L111.27 403.837L138.578 444H120.183L100.261 414.099L92.6974 423.332V444H77.321ZM158.905 445.03C155.425 445.03 152.323 444.426 149.601 443.219C146.878 441.988 144.724 440.177 143.138 437.786C141.575 435.371 140.794 432.364 140.794 428.766C140.794 425.735 141.35 423.19 142.463 421.131C143.576 419.071 145.091 417.414 147.008 416.159C148.926 414.904 151.104 413.957 153.542 413.318C156.005 412.679 158.585 412.229 161.284 411.969C164.456 411.637 167.013 411.33 168.954 411.045C170.896 410.738 172.304 410.288 173.18 409.696C174.056 409.104 174.494 408.228 174.494 407.068V406.855C174.494 404.606 173.784 402.866 172.363 401.635C170.967 400.404 168.978 399.788 166.398 399.788C163.675 399.788 161.509 400.392 159.899 401.599C158.289 402.783 157.224 404.275 156.703 406.074L142.711 404.938C143.422 401.623 144.818 398.759 146.902 396.344C148.985 393.905 151.672 392.035 154.963 390.733C158.277 389.407 162.113 388.744 166.469 388.744C169.499 388.744 172.399 389.099 175.169 389.81C177.962 390.52 180.436 391.621 182.591 393.112C184.769 394.604 186.485 396.521 187.74 398.865C188.995 401.185 189.622 403.967 189.622 407.21V444H175.275V436.436H174.849C173.973 438.141 172.801 439.644 171.334 440.946C169.866 442.224 168.102 443.231 166.042 443.964C163.983 444.675 161.604 445.03 158.905 445.03ZM163.237 434.589C165.462 434.589 167.427 434.152 169.132 433.276C170.836 432.376 172.174 431.169 173.145 429.653C174.115 428.138 174.601 426.422 174.601 424.504V418.716C174.127 419.024 173.476 419.308 172.648 419.568C171.843 419.805 170.931 420.03 169.913 420.243C168.895 420.432 167.877 420.61 166.859 420.776C165.841 420.918 164.918 421.048 164.089 421.166C162.314 421.427 160.763 421.841 159.437 422.409C158.112 422.977 157.082 423.747 156.348 424.717C155.614 425.664 155.247 426.848 155.247 428.268C155.247 430.328 155.993 431.902 157.484 432.991C158.999 434.057 160.917 434.589 163.237 434.589ZM198.727 444V389.455H213.393V398.972H213.961C214.956 395.586 216.625 393.029 218.968 391.301C221.312 389.549 224.011 388.673 227.065 388.673C227.823 388.673 228.639 388.721 229.515 388.815C230.391 388.91 231.161 389.04 231.823 389.206V402.629C231.113 402.416 230.131 402.227 228.876 402.061C227.621 401.895 226.473 401.812 225.431 401.812C223.206 401.812 221.217 402.298 219.466 403.268C217.737 404.215 216.364 405.541 215.346 407.246C214.352 408.95 213.855 410.915 213.855 413.141V444H198.727ZM237.013 444V389.455H251.431V399.078H252.07C253.206 395.882 255.1 393.361 257.752 391.514C260.403 389.668 263.576 388.744 267.269 388.744C271.01 388.744 274.194 389.679 276.822 391.55C279.449 393.396 281.201 395.906 282.077 399.078H282.645C283.758 395.953 285.77 393.455 288.682 391.585C291.618 389.691 295.086 388.744 299.087 388.744C304.177 388.744 308.308 390.366 311.481 393.609C314.677 396.829 316.275 401.398 316.275 407.317V444H301.182V410.3C301.182 407.269 300.377 404.997 298.768 403.482C297.158 401.966 295.145 401.209 292.731 401.209C289.984 401.209 287.842 402.085 286.303 403.837C284.764 405.565 283.995 407.849 283.995 410.69V444H269.329V409.98C269.329 407.305 268.559 405.174 267.02 403.588C265.505 402.002 263.505 401.209 261.019 401.209C259.338 401.209 257.823 401.635 256.474 402.487C255.148 403.316 254.094 404.488 253.313 406.003C252.532 407.494 252.141 409.246 252.141 411.259V444H237.013ZM341.147 445.03C337.667 445.03 334.565 444.426 331.843 443.219C329.12 441.988 326.966 440.177 325.38 437.786C323.817 435.371 323.036 432.364 323.036 428.766C323.036 425.735 323.592 423.19 324.705 421.131C325.818 419.071 327.333 417.414 329.25 416.159C331.168 414.904 333.346 413.957 335.784 413.318C338.247 412.679 340.827 412.229 343.526 411.969C346.698 411.637 349.255 411.33 351.196 411.045C353.138 410.738 354.546 410.288 355.422 409.696C356.298 409.104 356.736 408.228 356.736 407.068V406.855C356.736 404.606 356.026 402.866 354.605 401.635C353.209 400.404 351.22 399.788 348.64 399.788C345.917 399.788 343.751 400.392 342.141 401.599C340.531 402.783 339.466 404.275 338.945 406.074L324.953 404.938C325.664 401.623 327.06 398.759 329.144 396.344C331.227 393.905 333.914 392.035 337.205 390.733C340.519 389.407 344.354 388.744 348.711 388.744C351.741 388.744 354.641 389.099 357.411 389.81C360.204 390.52 362.678 391.621 364.833 393.112C367.011 394.604 368.727 396.521 369.982 398.865C371.237 401.185 371.864 403.967 371.864 407.21V444H357.517V436.436H357.091C356.215 438.141 355.043 439.644 353.576 440.946C352.108 442.224 350.344 443.231 348.284 443.964C346.225 444.675 343.845 445.03 341.147 445.03ZM345.479 434.589C347.704 434.589 349.669 434.152 351.374 433.276C353.078 432.376 354.416 431.169 355.387 429.653C356.357 428.138 356.843 426.422 356.843 424.504V418.716C356.369 419.024 355.718 419.308 354.89 419.568C354.085 419.805 353.173 420.03 352.155 420.243C351.137 420.432 350.119 420.61 349.101 420.776C348.083 420.918 347.16 421.048 346.331 421.166C344.556 421.427 343.005 421.841 341.679 422.409C340.354 422.977 339.324 423.747 338.59 424.717C337.856 425.664 337.489 426.848 337.489 428.268C337.489 430.328 338.235 431.902 339.726 432.991C341.241 434.057 343.159 434.589 345.479 434.589ZM401.068 444.888C396.925 444.888 393.173 443.822 389.811 441.692C386.473 439.537 383.822 436.377 381.857 432.21C379.915 428.02 378.945 422.883 378.945 416.798C378.945 410.548 379.951 405.352 381.963 401.209C383.976 397.042 386.651 393.929 389.989 391.869C393.351 389.786 397.032 388.744 401.033 388.744C404.087 388.744 406.632 389.265 408.668 390.307C410.727 391.325 412.385 392.603 413.639 394.142C414.918 395.657 415.888 397.149 416.551 398.616H417.013V371.273H432.105V444H417.19V435.264H416.551C415.841 436.779 414.835 438.283 413.533 439.774C412.254 441.242 410.585 442.461 408.526 443.432C406.49 444.402 404.004 444.888 401.068 444.888ZM405.862 432.849C408.301 432.849 410.36 432.187 412.041 430.861C413.746 429.511 415.048 427.629 415.948 425.214C416.871 422.8 417.333 419.971 417.333 416.727C417.333 413.484 416.883 410.667 415.983 408.276C415.083 405.884 413.781 404.038 412.077 402.736C410.372 401.434 408.301 400.783 405.862 400.783C403.377 400.783 401.281 401.457 399.577 402.807C397.872 404.156 396.582 406.027 395.706 408.418C394.83 410.809 394.392 413.579 394.392 416.727C394.392 419.9 394.83 422.705 395.706 425.143C396.606 427.558 397.896 429.452 399.577 430.825C401.281 432.175 403.377 432.849 405.862 432.849ZM457.466 445.03C453.985 445.03 450.884 444.426 448.162 443.219C445.439 441.988 443.285 440.177 441.698 437.786C440.136 435.371 439.355 432.364 439.355 428.766C439.355 425.735 439.911 423.19 441.024 421.131C442.136 419.071 443.652 417.414 445.569 416.159C447.487 414.904 449.665 413.957 452.103 413.318C454.565 412.679 457.146 412.229 459.845 411.969C463.017 411.637 465.574 411.33 467.515 411.045C469.457 410.738 470.865 410.288 471.741 409.696C472.617 409.104 473.055 408.228 473.055 407.068V406.855C473.055 404.606 472.345 402.866 470.924 401.635C469.528 400.404 467.539 399.788 464.958 399.788C462.236 399.788 460.07 400.392 458.46 401.599C456.85 402.783 455.785 404.275 455.264 406.074L441.272 404.938C441.983 401.623 443.379 398.759 445.463 396.344C447.546 393.905 450.233 392.035 453.524 390.733C456.838 389.407 460.673 388.744 465.029 388.744C468.06 388.744 470.96 389.099 473.73 389.81C476.523 390.52 478.997 391.621 481.152 393.112C483.33 394.604 485.046 396.521 486.301 398.865C487.555 401.185 488.183 403.967 488.183 407.21V444H473.836V436.436H473.41C472.534 438.141 471.362 439.644 469.894 440.946C468.427 442.224 466.663 443.231 464.603 443.964C462.544 444.675 460.164 445.03 457.466 445.03ZM461.798 434.589C464.023 434.589 465.988 434.152 467.693 433.276C469.397 432.376 470.735 431.169 471.706 429.653C472.676 428.138 473.162 426.422 473.162 424.504V418.716C472.688 419.024 472.037 419.308 471.208 419.568C470.403 419.805 469.492 420.03 468.474 420.243C467.456 420.432 466.438 420.61 465.42 420.776C464.402 420.918 463.479 421.048 462.65 421.166C460.875 421.427 459.324 421.841 457.998 422.409C456.672 422.977 455.643 423.747 454.909 424.717C454.175 425.664 453.808 426.848 453.808 428.268C453.808 430.328 454.554 431.902 456.045 432.991C457.56 434.057 459.478 434.589 461.798 434.589ZM533.355 445.03C529.875 445.03 526.773 444.426 524.051 443.219C521.328 441.988 519.174 440.177 517.588 437.786C516.025 435.371 515.244 432.364 515.244 428.766C515.244 425.735 515.8 423.19 516.913 421.131C518.026 419.071 519.541 417.414 521.458 416.159C523.376 414.904 525.554 413.957 527.992 413.318C530.455 412.679 533.035 412.229 535.734 411.969C538.906 411.637 541.463 411.33 543.404 411.045C545.346 410.738 546.754 410.288 547.63 409.696C548.506 409.104 548.944 408.228 548.944 407.068V406.855C548.944 404.606 548.234 402.866 546.813 401.635C545.417 400.404 543.428 399.788 540.848 399.788C538.125 399.788 535.959 400.392 534.349 401.599C532.739 402.783 531.674 404.275 531.153 406.074L517.161 404.938C517.872 401.623 519.268 398.759 521.352 396.344C523.435 393.905 526.122 392.035 529.413 390.733C532.727 389.407 536.563 388.744 540.919 388.744C543.949 388.744 546.849 389.099 549.619 389.81C552.412 390.52 554.886 391.621 557.041 393.112C559.219 394.604 560.935 396.521 562.19 398.865C563.445 401.185 564.072 403.967 564.072 407.21V444H549.725V436.436H549.299C548.423 438.141 547.251 439.644 545.784 440.946C544.316 442.224 542.552 443.231 540.492 443.964C538.433 444.675 536.054 445.03 533.355 445.03ZM537.687 434.589C539.912 434.589 541.877 434.152 543.582 433.276C545.286 432.376 546.624 431.169 547.595 429.653C548.565 428.138 549.051 426.422 549.051 424.504V418.716C548.577 419.024 547.926 419.308 547.098 419.568C546.293 419.805 545.381 420.03 544.363 420.243C543.345 420.432 542.327 420.61 541.309 420.776C540.291 420.918 539.368 421.048 538.539 421.166C536.764 421.427 535.213 421.841 533.887 422.409C532.562 422.977 531.532 423.747 530.798 424.717C530.064 425.664 529.697 426.848 529.697 428.268C529.697 430.328 530.443 431.902 531.934 432.991C533.449 434.057 535.367 434.589 537.687 434.589ZM573.177 444V389.455H587.843V398.972H588.411C589.406 395.586 591.075 393.029 593.418 391.301C595.762 389.549 598.461 388.673 601.515 388.673C602.273 388.673 603.089 388.721 603.965 388.815C604.841 388.91 605.611 389.04 606.274 389.206V402.629C605.563 402.416 604.581 402.227 603.326 402.061C602.071 401.895 600.923 401.812 599.881 401.812C597.656 401.812 595.667 402.298 593.916 403.268C592.187 404.215 590.814 405.541 589.796 407.246C588.802 408.95 588.305 410.915 588.305 413.141V444H573.177ZM633.569 445.065C627.982 445.065 623.176 443.882 619.152 441.514C615.151 439.123 612.073 435.809 609.919 431.571C607.788 427.333 606.723 422.456 606.723 416.94C606.723 411.353 607.8 406.453 609.954 402.239C612.132 398.001 615.222 394.698 619.223 392.331C623.224 389.94 627.982 388.744 633.498 388.744C638.257 388.744 642.423 389.608 645.998 391.337C649.573 393.065 652.402 395.491 654.485 398.616C656.569 401.741 657.717 405.411 657.93 409.625H643.654C643.252 406.902 642.187 404.713 640.458 403.055C638.754 401.375 636.517 400.534 633.747 400.534C631.403 400.534 629.355 401.173 627.603 402.452C625.875 403.706 624.526 405.541 623.555 407.956C622.584 410.371 622.099 413.295 622.099 416.727C622.099 420.207 622.572 423.167 623.519 425.605C624.49 428.044 625.851 429.902 627.603 431.18C629.355 432.459 631.403 433.098 633.747 433.098C635.475 433.098 637.026 432.743 638.399 432.033C639.795 431.322 640.944 430.293 641.843 428.943C642.767 427.57 643.37 425.925 643.654 424.007H657.93C657.693 428.174 656.557 431.843 654.521 435.016C652.509 438.164 649.727 440.626 646.176 442.402C642.625 444.178 638.422 445.065 633.569 445.065ZM680.112 412.466V444H664.984V371.273H679.686V399.078H680.325C681.556 395.858 683.545 393.337 686.291 391.514C689.037 389.668 692.482 388.744 696.625 388.744C700.413 388.744 703.715 389.573 706.532 391.23C709.373 392.864 711.575 395.219 713.137 398.297C714.724 401.351 715.505 405.009 715.481 409.27V444H700.353V411.969C700.377 408.607 699.525 405.991 697.797 404.121C696.092 402.25 693.701 401.315 690.623 401.315C688.564 401.315 686.741 401.753 685.155 402.629C683.592 403.505 682.361 404.784 681.461 406.464C680.585 408.122 680.136 410.122 680.112 412.466ZM724.755 444V389.455H739.883V444H724.755ZM732.354 382.423C730.105 382.423 728.176 381.678 726.566 380.186C724.98 378.671 724.187 376.86 724.187 374.753C724.187 372.67 724.98 370.882 726.566 369.391C728.176 367.875 730.105 367.118 732.354 367.118C734.603 367.118 736.521 367.875 738.107 369.391C739.717 370.882 740.522 372.67 740.522 374.753C740.522 376.86 739.717 378.671 738.107 380.186C736.521 381.678 734.603 382.423 732.354 382.423ZM778.382 389.455V400.818H745.534V389.455H778.382ZM752.992 376.386H768.119V427.239C768.119 428.635 768.332 429.724 768.759 430.506C769.185 431.263 769.777 431.796 770.534 432.104C771.315 432.411 772.215 432.565 773.233 432.565C773.943 432.565 774.653 432.506 775.364 432.388C776.074 432.246 776.618 432.139 776.997 432.068L779.376 443.325C778.619 443.562 777.554 443.834 776.18 444.142C774.807 444.473 773.138 444.675 771.173 444.746C767.528 444.888 764.332 444.402 761.585 443.29C758.863 442.177 756.744 440.449 755.229 438.105C753.714 435.761 752.968 432.802 752.992 429.227V376.386ZM809.877 445.065C804.266 445.065 799.437 443.929 795.388 441.656C791.364 439.36 788.262 436.116 786.084 431.926C783.906 427.712 782.817 422.729 782.817 416.976C782.817 411.365 783.906 406.441 786.084 402.203C788.262 397.965 791.328 394.663 795.282 392.295C799.259 389.928 803.923 388.744 809.273 388.744C812.872 388.744 816.222 389.324 819.323 390.484C822.448 391.621 825.171 393.337 827.491 395.634C829.834 397.93 831.657 400.818 832.959 404.298C834.261 407.755 834.913 411.803 834.913 416.443V420.598H788.854V411.223H820.672C820.672 409.045 820.199 407.116 819.252 405.435C818.305 403.754 816.991 402.44 815.31 401.493C813.653 400.522 811.724 400.037 809.522 400.037C807.225 400.037 805.19 400.57 803.414 401.635C801.662 402.677 800.289 404.085 799.295 405.861C798.3 407.613 797.791 409.566 797.768 411.72V420.634C797.768 423.332 798.265 425.664 799.259 427.629C800.277 429.594 801.709 431.109 803.556 432.175C805.403 433.24 807.592 433.773 810.126 433.773C811.806 433.773 813.345 433.536 814.742 433.062C816.139 432.589 817.334 431.879 818.329 430.932C819.323 429.985 820.081 428.825 820.601 427.452L834.593 428.375C833.883 431.737 832.427 434.672 830.225 437.182C828.047 439.668 825.23 441.609 821.773 443.006C818.341 444.379 814.375 445.065 809.877 445.065ZM866.798 445.065C861.211 445.065 856.405 443.882 852.38 441.514C848.379 439.123 845.302 435.809 843.147 431.571C841.017 427.333 839.951 422.456 839.951 416.94C839.951 411.353 841.029 406.453 843.183 402.239C845.361 398.001 848.45 394.698 852.451 392.331C856.452 389.94 861.211 388.744 866.727 388.744C871.485 388.744 875.652 389.608 879.227 391.337C882.802 393.065 885.631 395.491 887.714 398.616C889.797 401.741 890.946 405.411 891.159 409.625H876.883C876.481 406.902 875.415 404.713 873.687 403.055C871.983 401.375 869.745 400.534 866.976 400.534C864.632 400.534 862.584 401.173 860.832 402.452C859.104 403.706 857.754 405.541 856.784 407.956C855.813 410.371 855.328 413.295 855.328 416.727C855.328 420.207 855.801 423.167 856.748 425.605C857.719 428.044 859.08 429.902 860.832 431.18C862.584 432.459 864.632 433.098 866.976 433.098C868.704 433.098 870.254 432.743 871.628 432.033C873.024 431.322 874.172 430.293 875.072 428.943C875.995 427.57 876.599 425.925 876.883 424.007H891.159C890.922 428.174 889.786 431.843 887.75 435.016C885.737 438.164 882.956 440.626 879.405 442.402C875.853 444.178 871.651 445.065 866.798 445.065ZM927.226 389.455V400.818H894.378V389.455H927.226ZM901.835 376.386H916.963V427.239C916.963 428.635 917.176 429.724 917.602 430.506C918.028 431.263 918.62 431.796 919.378 432.104C920.159 432.411 921.059 432.565 922.077 432.565C922.787 432.565 923.497 432.506 924.207 432.388C924.917 432.246 925.462 432.139 925.841 432.068L928.22 443.325C927.462 443.562 926.397 443.834 925.024 444.142C923.651 444.473 921.982 444.675 920.017 444.746C916.371 444.888 913.175 444.402 910.429 443.29C907.706 442.177 905.587 440.449 904.072 438.105C902.557 435.761 901.811 432.802 901.835 429.227V376.386ZM969.427 420.776V389.455H984.555V444H970.031V434.092H969.463C968.232 437.288 966.184 439.857 963.319 441.798C960.478 443.74 957.01 444.71 952.914 444.71C949.269 444.71 946.061 443.882 943.291 442.224C940.521 440.567 938.355 438.212 936.792 435.158C935.253 432.104 934.472 428.446 934.449 424.185V389.455H949.576V421.486C949.6 424.705 950.464 427.25 952.169 429.121C953.873 430.991 956.158 431.926 959.022 431.926C960.845 431.926 962.55 431.512 964.136 430.683C965.722 429.831 967.001 428.576 967.971 426.919C968.966 425.262 969.451 423.214 969.427 420.776ZM994.024 444V389.455H1008.69V398.972H1009.26C1010.25 395.586 1011.92 393.029 1014.27 391.301C1016.61 389.549 1019.31 388.673 1022.36 388.673C1023.12 388.673 1023.94 388.721 1024.81 388.815C1025.69 388.91 1026.46 389.04 1027.12 389.206V402.629C1026.41 402.416 1025.43 402.227 1024.17 402.061C1022.92 401.895 1021.77 401.812 1020.73 401.812C1018.5 401.812 1016.51 402.298 1014.76 403.268C1013.03 404.215 1011.66 405.541 1010.64 407.246C1009.65 408.95 1009.15 410.915 1009.15 413.141V444H994.024ZM1054.63 445.065C1049.02 445.065 1044.19 443.929 1040.14 441.656C1036.12 439.36 1033.01 436.116 1030.84 431.926C1028.66 427.712 1027.57 422.729 1027.57 416.976C1027.57 411.365 1028.66 406.441 1030.84 402.203C1033.01 397.965 1036.08 394.663 1040.03 392.295C1044.01 389.928 1048.68 388.744 1054.03 388.744C1057.62 388.744 1060.97 389.324 1064.08 390.484C1067.2 391.621 1069.92 393.337 1072.24 395.634C1074.59 397.93 1076.41 400.818 1077.71 404.298C1079.01 407.755 1079.66 411.803 1079.66 416.443V420.598H1033.61V411.223H1065.42C1065.42 409.045 1064.95 407.116 1064 405.435C1063.06 403.754 1061.74 402.44 1060.06 401.493C1058.41 400.522 1056.48 400.037 1054.27 400.037C1051.98 400.037 1049.94 400.57 1048.17 401.635C1046.41 402.677 1045.04 404.085 1044.05 405.861C1043.05 407.613 1042.54 409.566 1042.52 411.72V420.634C1042.52 423.332 1043.02 425.664 1044.01 427.629C1045.03 429.594 1046.46 431.109 1048.31 432.175C1050.15 433.24 1052.34 433.773 1054.88 433.773C1056.56 433.773 1058.1 433.536 1059.49 433.062C1060.89 432.589 1062.09 431.879 1063.08 430.932C1064.08 429.985 1064.83 428.825 1065.35 427.452L1079.35 428.375C1078.63 431.737 1077.18 434.672 1074.98 437.182C1072.8 439.668 1069.98 441.609 1066.53 443.006C1063.09 444.379 1059.13 445.065 1054.63 445.065Z" fill="black"/>
<rect x="71" y="498" width="1038" height="19" fill="black"/>
</svg>
