<svg width="1200" height="900" viewBox="0 0 1200 900" fill="none" xmlns="http://www.w3.org/2000/svg">
<rect width="1200" height="900" fill="white"/>
<path d="M92.6974 209.273V282H77.321V209.273H92.6974ZM117.561 250.466V282H102.433V227.455H116.85V237.078H117.49C118.697 233.906 120.721 231.396 123.562 229.55C126.403 227.679 129.847 226.744 133.896 226.744C137.684 226.744 140.986 227.573 143.803 229.23C146.621 230.887 148.811 233.255 150.373 236.332C151.936 239.386 152.717 243.032 152.717 247.27V282H137.589V249.969C137.613 246.631 136.76 244.027 135.032 242.156C133.304 240.262 130.925 239.315 127.894 239.315C125.858 239.315 124.059 239.753 122.497 240.629C120.958 241.505 119.75 242.784 118.874 244.464C118.022 246.122 117.584 248.122 117.561 250.466ZM182.108 282.888C177.965 282.888 174.212 281.822 170.85 279.692C167.512 277.537 164.861 274.377 162.896 270.21C160.955 266.02 159.984 260.883 159.984 254.798C159.984 248.548 160.99 243.352 163.002 239.209C165.015 235.042 167.69 231.929 171.028 229.869C174.39 227.786 178.071 226.744 182.072 226.744C185.126 226.744 187.671 227.265 189.707 228.307C191.767 229.325 193.424 230.603 194.679 232.142C195.957 233.657 196.928 235.149 197.591 236.616H198.052V209.273H213.145V282H198.23V273.264H197.591C196.88 274.779 195.874 276.283 194.572 277.774C193.294 279.242 191.625 280.461 189.565 281.432C187.529 282.402 185.043 282.888 182.108 282.888ZM186.902 270.849C189.34 270.849 191.4 270.187 193.081 268.861C194.785 267.511 196.087 265.629 196.987 263.214C197.91 260.8 198.372 257.971 198.372 254.727C198.372 251.484 197.922 248.667 197.022 246.276C196.123 243.884 194.821 242.038 193.116 240.736C191.412 239.434 189.34 238.783 186.902 238.783C184.416 238.783 182.321 239.457 180.616 240.807C178.912 242.156 177.621 244.027 176.745 246.418C175.869 248.809 175.431 251.579 175.431 254.727C175.431 257.9 175.869 260.705 176.745 263.143C177.645 265.558 178.935 267.452 180.616 268.825C182.321 270.175 184.416 270.849 186.902 270.849ZM247.809 283.065C242.198 283.065 237.368 281.929 233.32 279.656C229.295 277.36 226.194 274.116 224.016 269.926C221.838 265.712 220.749 260.729 220.749 254.976C220.749 249.365 221.838 244.441 224.016 240.203C226.194 235.965 229.26 232.663 233.214 230.295C237.191 227.928 241.855 226.744 247.205 226.744C250.804 226.744 254.153 227.324 257.255 228.484C260.38 229.621 263.102 231.337 265.422 233.634C267.766 235.93 269.589 238.818 270.891 242.298C272.193 245.755 272.844 249.803 272.844 254.443V258.598H226.786V249.223H258.604C258.604 247.045 258.131 245.116 257.184 243.435C256.237 241.754 254.923 240.44 253.242 239.493C251.585 238.522 249.655 238.037 247.454 238.037C245.157 238.037 243.121 238.57 241.346 239.635C239.594 240.677 238.221 242.085 237.226 243.861C236.232 245.613 235.723 247.566 235.699 249.72V258.634C235.699 261.332 236.197 263.664 237.191 265.629C238.209 267.594 239.641 269.109 241.488 270.175C243.334 271.24 245.524 271.773 248.057 271.773C249.738 271.773 251.277 271.536 252.674 271.062C254.071 270.589 255.266 269.879 256.26 268.932C257.255 267.985 258.012 266.825 258.533 265.452L272.525 266.375C271.814 269.737 270.358 272.672 268.157 275.182C265.979 277.668 263.161 279.609 259.705 281.006C256.272 282.379 252.307 283.065 247.809 283.065ZM280.085 302.455V227.455H295V236.616H295.674C296.337 235.149 297.296 233.657 298.551 232.142C299.829 230.603 301.486 229.325 303.522 228.307C305.582 227.265 308.139 226.744 311.193 226.744C315.17 226.744 318.84 227.786 322.201 229.869C325.563 231.929 328.25 235.042 330.262 239.209C332.275 243.352 333.281 248.548 333.281 254.798C333.281 260.883 332.298 266.02 330.333 270.21C328.392 274.377 325.741 277.537 322.379 279.692C319.041 281.822 315.3 282.888 311.157 282.888C308.222 282.888 305.724 282.402 303.664 281.432C301.628 280.461 299.959 279.242 298.657 277.774C297.355 276.283 296.361 274.779 295.674 273.264H295.213V302.455H280.085ZM294.893 254.727C294.893 257.971 295.343 260.8 296.243 263.214C297.142 265.629 298.444 267.511 300.149 268.861C301.853 270.187 303.925 270.849 306.363 270.849C308.825 270.849 310.909 270.175 312.613 268.825C314.318 267.452 315.608 265.558 316.484 263.143C317.384 260.705 317.833 257.9 317.833 254.727C317.833 251.579 317.395 248.809 316.519 246.418C315.644 244.027 314.353 242.156 312.649 240.807C310.944 239.457 308.849 238.783 306.363 238.783C303.901 238.783 301.818 239.434 300.113 240.736C298.432 242.038 297.142 243.884 296.243 246.276C295.343 248.667 294.893 251.484 294.893 254.727ZM365.592 283.065C359.982 283.065 355.152 281.929 351.104 279.656C347.079 277.36 343.978 274.116 341.8 269.926C339.622 265.712 338.533 260.729 338.533 254.976C338.533 249.365 339.622 244.441 341.8 240.203C343.978 235.965 347.044 232.663 350.997 230.295C354.975 227.928 359.638 226.744 364.989 226.744C368.587 226.744 371.937 227.324 375.038 228.484C378.163 229.621 380.886 231.337 383.206 233.634C385.55 235.93 387.373 238.818 388.675 242.298C389.977 245.755 390.628 249.803 390.628 254.443V258.598H344.57V249.223H376.388C376.388 247.045 375.914 245.116 374.967 243.435C374.02 241.754 372.707 240.44 371.026 239.493C369.368 238.522 367.439 238.037 365.237 238.037C362.941 238.037 360.905 238.57 359.129 239.635C357.377 240.677 356.004 242.085 355.01 243.861C354.016 245.613 353.507 247.566 353.483 249.72V258.634C353.483 261.332 353.98 263.664 354.975 265.629C355.993 267.594 357.425 269.109 359.271 270.175C361.118 271.24 363.308 271.773 365.841 271.773C367.522 271.773 369.061 271.536 370.458 271.062C371.854 270.589 373.05 269.879 374.044 268.932C375.038 267.985 375.796 266.825 376.317 265.452L390.308 266.375C389.598 269.737 388.142 272.672 385.94 275.182C383.762 277.668 380.945 279.609 377.489 281.006C374.056 282.379 370.091 283.065 365.592 283.065ZM412.996 250.466V282H397.869V227.455H412.286V237.078H412.925C414.133 233.906 416.157 231.396 418.998 229.55C421.839 227.679 425.283 226.744 429.332 226.744C433.12 226.744 436.422 227.573 439.239 229.23C442.057 230.887 444.246 233.255 445.809 236.332C447.371 239.386 448.153 243.032 448.153 247.27V282H433.025V249.969C433.048 246.631 432.196 244.027 430.468 242.156C428.74 240.262 426.361 239.315 423.33 239.315C421.294 239.315 419.495 239.753 417.932 240.629C416.394 241.505 415.186 242.784 414.31 244.464C413.458 246.122 413.02 248.122 412.996 250.466ZM477.543 282.888C473.4 282.888 469.648 281.822 466.286 279.692C462.948 277.537 460.297 274.377 458.332 270.21C456.391 266.02 455.42 260.883 455.42 254.798C455.42 248.548 456.426 243.352 458.438 239.209C460.451 235.042 463.126 231.929 466.464 229.869C469.826 227.786 473.507 226.744 477.508 226.744C480.562 226.744 483.107 227.265 485.143 228.307C487.203 229.325 488.86 230.603 490.114 232.142C491.393 233.657 492.364 235.149 493.026 236.616H493.488V209.273H508.58V282H493.666V273.264H493.026C492.316 274.779 491.31 276.283 490.008 277.774C488.73 279.242 487.06 280.461 485.001 281.432C482.965 282.402 480.479 282.888 477.543 282.888ZM482.337 270.849C484.776 270.849 486.836 270.187 488.516 268.861C490.221 267.511 491.523 265.629 492.423 263.214C493.346 260.8 493.808 257.971 493.808 254.727C493.808 251.484 493.358 248.667 492.458 246.276C491.559 243.884 490.257 242.038 488.552 240.736C486.847 239.434 484.776 238.783 482.337 238.783C479.852 238.783 477.757 239.457 476.052 240.807C474.347 242.156 473.057 244.027 472.181 246.418C471.305 248.809 470.867 251.579 470.867 254.727C470.867 257.9 471.305 260.705 472.181 263.143C473.081 265.558 474.371 267.452 476.052 268.825C477.757 270.175 479.852 270.849 482.337 270.849ZM543.245 283.065C537.634 283.065 532.804 281.929 528.756 279.656C524.731 277.36 521.63 274.116 519.452 269.926C517.274 265.712 516.185 260.729 516.185 254.976C516.185 249.365 517.274 244.441 519.452 240.203C521.63 235.965 524.696 232.663 528.649 230.295C532.627 227.928 537.291 226.744 542.641 226.744C546.239 226.744 549.589 227.324 552.691 228.484C555.816 229.621 558.538 231.337 560.858 233.634C563.202 235.93 565.025 238.818 566.327 242.298C567.629 245.755 568.28 249.803 568.28 254.443V258.598H522.222V249.223H554.04C554.04 247.045 553.567 245.116 552.62 243.435C551.673 241.754 550.359 240.44 548.678 239.493C547.021 238.522 545.091 238.037 542.889 238.037C540.593 238.037 538.557 238.57 536.782 239.635C535.03 240.677 533.657 242.085 532.662 243.861C531.668 245.613 531.159 247.566 531.135 249.72V258.634C531.135 261.332 531.632 263.664 532.627 265.629C533.645 267.594 535.077 269.109 536.924 270.175C538.77 271.24 540.96 271.773 543.493 271.773C545.174 271.773 546.713 271.536 548.11 271.062C549.506 270.589 550.702 269.879 551.696 268.932C552.691 267.985 553.448 266.825 553.969 265.452L567.961 266.375C567.25 269.737 565.794 272.672 563.593 275.182C561.415 277.668 558.597 279.609 555.141 281.006C551.708 282.379 547.743 283.065 543.245 283.065ZM590.649 250.466V282H575.521V227.455H589.938V237.078H590.578C591.785 233.906 593.809 231.396 596.65 229.55C599.491 227.679 602.935 226.744 606.984 226.744C610.772 226.744 614.074 227.573 616.891 229.23C619.709 230.887 621.899 233.255 623.461 236.332C625.024 239.386 625.805 243.032 625.805 247.27V282H610.677V249.969C610.701 246.631 609.848 244.027 608.12 242.156C606.392 240.262 604.013 239.315 600.982 239.315C598.946 239.315 597.147 239.753 595.585 240.629C594.046 241.505 592.838 242.784 591.962 244.464C591.11 246.122 590.672 248.122 590.649 250.466ZM664.109 227.455V238.818H631.261V227.455H664.109ZM638.718 214.386H653.846V265.239C653.846 266.635 654.059 267.724 654.485 268.506C654.911 269.263 655.503 269.796 656.261 270.104C657.042 270.411 657.942 270.565 658.96 270.565C659.67 270.565 660.38 270.506 661.09 270.388C661.801 270.246 662.345 270.139 662.724 270.068L665.103 281.325C664.346 281.562 663.28 281.834 661.907 282.142C660.534 282.473 658.865 282.675 656.9 282.746C653.254 282.888 650.058 282.402 647.312 281.29C644.59 280.177 642.471 278.449 640.956 276.105C639.44 273.761 638.695 270.802 638.718 267.227V214.386ZM716.49 283.065C710.902 283.065 706.097 281.882 702.072 279.514C698.071 277.123 694.993 273.809 692.839 269.571C690.708 265.333 689.643 260.456 689.643 254.94C689.643 249.353 690.72 244.453 692.875 240.239C695.053 236.001 698.142 232.698 702.143 230.331C706.144 227.94 710.902 226.744 716.419 226.744C721.177 226.744 725.344 227.608 728.919 229.337C732.493 231.065 735.322 233.491 737.406 236.616C739.489 239.741 740.637 243.411 740.85 247.625H726.575C726.172 244.902 725.107 242.713 723.379 241.055C721.674 239.375 719.437 238.534 716.667 238.534C714.323 238.534 712.276 239.173 710.524 240.452C708.795 241.706 707.446 243.541 706.475 245.956C705.505 248.371 705.019 251.295 705.019 254.727C705.019 258.207 705.493 261.167 706.44 263.605C707.411 266.044 708.772 267.902 710.524 269.18C712.276 270.459 714.323 271.098 716.667 271.098C718.395 271.098 719.946 270.743 721.319 270.033C722.716 269.322 723.864 268.293 724.764 266.943C725.687 265.57 726.291 263.925 726.575 262.007H740.85C740.614 266.174 739.477 269.843 737.441 273.016C735.429 276.164 732.647 278.626 729.096 280.402C725.545 282.178 721.343 283.065 716.49 283.065ZM763.032 209.273V282H747.905V209.273H763.032ZM807.498 258.776V227.455H822.626V282H808.101V272.092H807.533C806.302 275.288 804.254 277.857 801.39 279.798C798.549 281.74 795.081 282.71 790.985 282.71C787.339 282.71 784.131 281.882 781.361 280.224C778.591 278.567 776.425 276.212 774.863 273.158C773.324 270.104 772.543 266.446 772.519 262.185V227.455H787.647V259.486C787.671 262.705 788.535 265.25 790.239 267.121C791.944 268.991 794.228 269.926 797.093 269.926C798.916 269.926 800.62 269.512 802.207 268.683C803.793 267.831 805.071 266.576 806.042 264.919C807.036 263.262 807.521 261.214 807.498 258.776ZM877.478 243.009L863.629 243.861C863.392 242.677 862.883 241.612 862.102 240.665C861.32 239.694 860.291 238.925 859.012 238.357C857.757 237.765 856.254 237.469 854.502 237.469C852.158 237.469 850.182 237.966 848.572 238.96C846.962 239.931 846.157 241.233 846.157 242.866C846.157 244.169 846.678 245.269 847.719 246.169C848.761 247.069 850.549 247.791 853.082 248.335L862.954 250.324C868.257 251.413 872.21 253.165 874.815 255.58C877.419 257.994 878.721 261.167 878.721 265.097C878.721 268.671 877.667 271.808 875.56 274.507C873.477 277.206 870.612 279.313 866.967 280.828C863.344 282.32 859.166 283.065 854.431 283.065C847.21 283.065 841.458 281.562 837.173 278.555C832.911 275.525 830.414 271.406 829.68 266.197L844.559 265.416C845.009 267.618 846.098 269.299 847.826 270.459C849.554 271.595 851.768 272.163 854.467 272.163C857.118 272.163 859.249 271.654 860.859 270.636C862.492 269.595 863.321 268.257 863.344 266.624C863.321 265.25 862.741 264.126 861.604 263.25C860.468 262.35 858.716 261.664 856.349 261.19L846.903 259.308C841.576 258.243 837.611 256.396 835.006 253.768C832.426 251.141 831.136 247.791 831.136 243.719C831.136 240.215 832.083 237.196 833.977 234.663C835.894 232.13 838.581 230.177 842.038 228.804C845.518 227.431 849.59 226.744 854.254 226.744C861.143 226.744 866.564 228.2 870.518 231.112C874.495 234.024 876.815 237.99 877.478 243.009ZM914.628 227.455V238.818H881.78V227.455H914.628ZM889.237 214.386H904.365V265.239C904.365 266.635 904.578 267.724 905.004 268.506C905.431 269.263 906.022 269.796 906.78 270.104C907.561 270.411 908.461 270.565 909.479 270.565C910.189 270.565 910.899 270.506 911.61 270.388C912.32 270.246 912.864 270.139 913.243 270.068L915.622 281.325C914.865 281.562 913.799 281.834 912.426 282.142C911.053 282.473 909.384 282.675 907.419 282.746C903.773 282.888 900.577 282.402 897.831 281.29C895.109 280.177 892.99 278.449 891.475 276.105C889.959 273.761 889.214 270.802 889.237 267.227V214.386ZM946.123 283.065C940.512 283.065 935.683 281.929 931.634 279.656C927.61 277.36 924.508 274.116 922.33 269.926C920.152 265.712 919.063 260.729 919.063 254.976C919.063 249.365 920.152 244.441 922.33 240.203C924.508 235.965 927.574 232.663 931.528 230.295C935.505 227.928 940.169 226.744 945.519 226.744C949.118 226.744 952.468 227.324 955.569 228.484C958.694 229.621 961.416 231.337 963.737 233.634C966.08 235.93 967.903 238.818 969.205 242.298C970.507 245.755 971.158 249.803 971.158 254.443V258.598H925.1V249.223H956.918C956.918 247.045 956.445 245.116 955.498 243.435C954.551 241.754 953.237 240.44 951.556 239.493C949.899 238.522 947.97 238.037 945.768 238.037C943.471 238.037 941.435 238.57 939.66 239.635C937.908 240.677 936.535 242.085 935.541 243.861C934.546 245.613 934.037 247.566 934.014 249.72V258.634C934.014 261.332 934.511 263.664 935.505 265.629C936.523 267.594 937.955 269.109 939.802 270.175C941.648 271.24 943.838 271.773 946.371 271.773C948.052 271.773 949.591 271.536 950.988 271.062C952.385 270.589 953.58 269.879 954.575 268.932C955.569 267.985 956.327 266.825 956.847 265.452L970.839 266.375C970.129 269.737 968.673 272.672 966.471 275.182C964.293 277.668 961.476 279.609 958.019 281.006C954.586 282.379 950.621 283.065 946.123 283.065ZM978.399 282V227.455H993.065V236.972H993.633C994.628 233.586 996.297 231.029 998.64 229.301C1000.98 227.549 1003.68 226.673 1006.74 226.673C1007.49 226.673 1008.31 226.721 1009.19 226.815C1010.06 226.91 1010.83 227.04 1011.5 227.206V240.629C1010.79 240.416 1009.8 240.227 1008.55 240.061C1007.29 239.895 1006.15 239.812 1005.1 239.812C1002.88 239.812 1000.89 240.298 999.138 241.268C997.409 242.215 996.036 243.541 995.018 245.246C994.024 246.95 993.527 248.915 993.527 251.141V282H978.399ZM87.7969 366L72.9531 311.455H88.2585L96.7102 348.102H97.2074L106.014 311.455H121.036L129.984 347.889H130.446L138.756 311.455H154.026L139.217 366H123.202L113.827 331.696H113.152L103.777 366H87.7969ZM159.464 366V311.455H174.592V366H159.464ZM167.063 304.423C164.814 304.423 162.885 303.678 161.275 302.186C159.689 300.671 158.896 298.86 158.896 296.753C158.896 294.67 159.689 292.882 161.275 291.391C162.885 289.875 164.814 289.118 167.063 289.118C169.312 289.118 171.23 289.875 172.816 291.391C174.426 292.882 175.231 294.67 175.231 296.753C175.231 298.86 174.426 300.671 172.816 302.186C171.23 303.678 169.312 304.423 167.063 304.423ZM213.091 311.455V322.818H180.243V311.455H213.091ZM187.701 298.386H202.828V349.239C202.828 350.635 203.042 351.724 203.468 352.506C203.894 353.263 204.486 353.796 205.243 354.104C206.024 354.411 206.924 354.565 207.942 354.565C208.652 354.565 209.363 354.506 210.073 354.388C210.783 354.246 211.328 354.139 211.706 354.068L214.086 365.325C213.328 365.562 212.263 365.834 210.89 366.142C209.516 366.473 207.847 366.675 205.882 366.746C202.237 366.888 199.041 366.402 196.294 365.29C193.572 364.177 191.453 362.449 189.938 360.105C188.423 357.761 187.677 354.802 187.701 351.227V298.386ZM236.614 334.466V366H221.486V293.273H236.188V321.078H236.827C238.058 317.858 240.047 315.337 242.793 313.514C245.539 311.668 248.984 310.744 253.127 310.744C256.914 310.744 260.217 311.573 263.034 313.23C265.875 314.864 268.077 317.219 269.639 320.297C271.226 323.351 272.007 327.009 271.983 331.27V366H256.855V333.969C256.879 330.607 256.027 327.991 254.298 326.121C252.594 324.25 250.203 323.315 247.125 323.315C245.065 323.315 243.243 323.753 241.656 324.629C240.094 325.505 238.863 326.784 237.963 328.464C237.087 330.122 236.637 332.122 236.614 334.466ZM326.415 367.065C320.827 367.065 316.022 365.882 311.997 363.514C307.996 361.123 304.918 357.809 302.764 353.571C300.633 349.333 299.568 344.456 299.568 338.94C299.568 333.353 300.645 328.453 302.799 324.239C304.978 320.001 308.067 316.698 312.068 314.331C316.069 311.94 320.827 310.744 326.344 310.744C331.102 310.744 335.269 311.608 338.844 313.337C342.418 315.065 345.247 317.491 347.331 320.616C349.414 323.741 350.562 327.411 350.775 331.625H336.5C336.097 328.902 335.032 326.713 333.304 325.055C331.599 323.375 329.362 322.534 326.592 322.534C324.248 322.534 322.201 323.173 320.449 324.452C318.72 325.706 317.371 327.541 316.4 329.956C315.43 332.371 314.944 335.295 314.944 338.727C314.944 342.207 315.418 345.167 316.365 347.605C317.335 350.044 318.697 351.902 320.449 353.18C322.201 354.459 324.248 355.098 326.592 355.098C328.32 355.098 329.871 354.743 331.244 354.033C332.641 353.322 333.789 352.293 334.689 350.943C335.612 349.57 336.216 347.925 336.5 346.007H350.775C350.539 350.174 349.402 353.843 347.366 357.016C345.354 360.164 342.572 362.626 339.021 364.402C335.47 366.178 331.268 367.065 326.415 367.065ZM382.687 367.065C377.077 367.065 372.247 365.929 368.199 363.656C364.174 361.36 361.073 358.116 358.895 353.926C356.717 349.712 355.628 344.729 355.628 338.976C355.628 333.365 356.717 328.441 358.895 324.203C361.073 319.965 364.139 316.663 368.092 314.295C372.07 311.928 376.733 310.744 382.084 310.744C385.682 310.744 389.032 311.324 392.133 312.484C395.258 313.621 397.981 315.337 400.301 317.634C402.645 319.93 404.468 322.818 405.77 326.298C407.072 329.755 407.723 333.803 407.723 338.443V342.598H361.665V333.223H393.483C393.483 331.045 393.009 329.116 392.062 327.435C391.115 325.754 389.802 324.44 388.121 323.493C386.464 322.522 384.534 322.037 382.332 322.037C380.036 322.037 378 322.57 376.224 323.635C374.472 324.677 373.099 326.085 372.105 327.861C371.111 329.613 370.602 331.566 370.578 333.72V342.634C370.578 345.332 371.075 347.664 372.07 349.629C373.088 351.594 374.52 353.109 376.366 354.175C378.213 355.24 380.403 355.773 382.936 355.773C384.617 355.773 386.156 355.536 387.553 355.062C388.949 354.589 390.145 353.879 391.139 352.932C392.133 351.985 392.891 350.825 393.412 349.452L407.403 350.375C406.693 353.737 405.237 356.672 403.035 359.182C400.857 361.668 398.04 363.609 394.584 365.006C391.151 366.379 387.186 367.065 382.687 367.065ZM430.091 334.466V366H414.964V311.455H429.381V321.078H430.02C431.228 317.906 433.252 315.396 436.093 313.55C438.934 311.679 442.378 310.744 446.427 310.744C450.214 310.744 453.517 311.573 456.334 313.23C459.152 314.887 461.341 317.255 462.904 320.332C464.466 323.386 465.248 327.032 465.248 331.27V366H450.12V333.969C450.143 330.631 449.291 328.027 447.563 326.156C445.835 324.262 443.455 323.315 440.425 323.315C438.389 323.315 436.59 323.753 435.027 324.629C433.489 325.505 432.281 326.784 431.405 328.464C430.553 330.122 430.115 332.122 430.091 334.466ZM503.552 311.455V322.818H470.704V311.455H503.552ZM478.161 298.386H493.289V349.239C493.289 350.635 493.502 351.724 493.928 352.506C494.354 353.263 494.946 353.796 495.704 354.104C496.485 354.411 497.385 354.565 498.403 354.565C499.113 354.565 499.823 354.506 500.533 354.388C501.244 354.246 501.788 354.139 502.167 354.068L504.546 365.325C503.789 365.562 502.723 365.834 501.35 366.142C499.977 366.473 498.308 366.675 496.343 366.746C492.697 366.888 489.501 366.402 486.755 365.29C484.032 364.177 481.914 362.449 480.398 360.105C478.883 357.761 478.137 354.802 478.161 351.227V298.386ZM510.775 366V311.455H525.441V320.972H526.009C527.003 317.586 528.672 315.029 531.016 313.301C533.36 311.549 536.059 310.673 539.113 310.673C539.87 310.673 540.687 310.721 541.563 310.815C542.439 310.91 543.208 311.04 543.871 311.206V324.629C543.161 324.416 542.178 324.227 540.924 324.061C539.669 323.895 538.521 323.812 537.479 323.812C535.254 323.812 533.265 324.298 531.513 325.268C529.785 326.215 528.412 327.541 527.394 329.246C526.4 330.95 525.902 332.915 525.902 335.141V366H510.775ZM563.052 367.03C559.572 367.03 556.471 366.426 553.748 365.219C551.026 363.988 548.872 362.177 547.285 359.786C545.723 357.371 544.942 354.364 544.942 350.766C544.942 347.735 545.498 345.19 546.611 343.131C547.723 341.071 549.239 339.414 551.156 338.159C553.074 336.904 555.252 335.957 557.69 335.318C560.152 334.679 562.733 334.229 565.432 333.969C568.604 333.637 571.161 333.33 573.102 333.045C575.043 332.738 576.452 332.288 577.328 331.696C578.204 331.104 578.642 330.228 578.642 329.068V328.855C578.642 326.606 577.932 324.866 576.511 323.635C575.114 322.404 573.126 321.788 570.545 321.788C567.823 321.788 565.657 322.392 564.047 323.599C562.437 324.783 561.372 326.275 560.851 328.074L546.859 326.938C547.57 323.623 548.966 320.759 551.05 318.344C553.133 315.905 555.82 314.035 559.111 312.733C562.425 311.407 566.26 310.744 570.616 310.744C573.647 310.744 576.547 311.099 579.317 311.81C582.11 312.52 584.584 313.621 586.739 315.112C588.917 316.604 590.633 318.521 591.888 320.865C593.142 323.185 593.77 325.967 593.77 329.21V366H579.423V358.436H578.997C578.121 360.141 576.949 361.644 575.481 362.946C574.014 364.224 572.25 365.231 570.19 365.964C568.131 366.675 565.751 367.03 563.052 367.03ZM567.385 356.589C569.61 356.589 571.575 356.152 573.28 355.276C574.984 354.376 576.322 353.169 577.293 351.653C578.263 350.138 578.748 348.422 578.748 346.504V340.716C578.275 341.024 577.624 341.308 576.795 341.568C575.99 341.805 575.079 342.03 574.061 342.243C573.043 342.432 572.025 342.61 571.007 342.776C569.989 342.918 569.066 343.048 568.237 343.166C566.462 343.427 564.911 343.841 563.585 344.409C562.259 344.977 561.23 345.747 560.496 346.717C559.762 347.664 559.395 348.848 559.395 350.268C559.395 352.328 560.141 353.902 561.632 354.991C563.147 356.057 565.065 356.589 567.385 356.589ZM618.003 293.273V366H602.875V293.273H618.003ZM77.0369 450V395.455H91.4545V405.078H92.0938C93.2301 401.882 95.1241 399.361 97.7756 397.514C100.427 395.668 103.599 394.744 107.293 394.744C111.033 394.744 114.217 395.679 116.845 397.55C119.473 399.396 121.225 401.906 122.101 405.078H122.669C123.782 401.953 125.794 399.455 128.706 397.585C131.642 395.691 135.11 394.744 139.111 394.744C144.201 394.744 148.332 396.366 151.504 399.609C154.7 402.829 156.298 407.398 156.298 413.317V450H141.206V416.3C141.206 413.269 140.401 410.997 138.791 409.482C137.181 407.966 135.169 407.209 132.754 407.209C130.008 407.209 127.866 408.085 126.327 409.837C124.788 411.565 124.018 413.849 124.018 416.69V450H109.352V415.98C109.352 413.305 108.583 411.174 107.044 409.588C105.529 408.002 103.528 407.209 101.043 407.209C99.3617 407.209 97.8466 407.635 96.4972 408.487C95.1714 409.316 94.1179 410.488 93.3366 412.003C92.5554 413.494 92.1648 415.246 92.1648 417.259V450H77.0369ZM181.17 451.03C177.69 451.03 174.589 450.426 171.866 449.219C169.144 447.988 166.989 446.177 165.403 443.786C163.841 441.371 163.059 438.364 163.059 434.766C163.059 431.735 163.616 429.19 164.729 427.131C165.841 425.071 167.356 423.414 169.274 422.159C171.192 420.904 173.37 419.957 175.808 419.318C178.27 418.679 180.851 418.229 183.55 417.969C186.722 417.637 189.279 417.33 191.22 417.045C193.161 416.738 194.57 416.288 195.446 415.696C196.322 415.104 196.76 414.228 196.76 413.068V412.855C196.76 410.606 196.05 408.866 194.629 407.635C193.232 406.404 191.244 405.788 188.663 405.788C185.941 405.788 183.774 406.392 182.165 407.599C180.555 408.783 179.489 410.275 178.969 412.074L164.977 410.938C165.687 407.623 167.084 404.759 169.167 402.344C171.251 399.905 173.938 398.035 177.229 396.733C180.543 395.407 184.378 394.744 188.734 394.744C191.764 394.744 194.665 395.099 197.434 395.81C200.228 396.52 202.702 397.621 204.856 399.112C207.034 400.604 208.751 402.521 210.005 404.865C211.26 407.185 211.888 409.967 211.888 413.21V450H197.541V442.436H197.115C196.239 444.141 195.067 445.644 193.599 446.946C192.131 448.224 190.368 449.231 188.308 449.964C186.248 450.675 183.869 451.03 181.17 451.03ZM185.503 440.589C187.728 440.589 189.693 440.152 191.398 439.276C193.102 438.376 194.44 437.169 195.41 435.653C196.381 434.138 196.866 432.422 196.866 430.504V424.716C196.393 425.024 195.742 425.308 194.913 425.568C194.108 425.805 193.197 426.03 192.179 426.243C191.161 426.432 190.143 426.61 189.125 426.776C188.107 426.918 187.184 427.048 186.355 427.166C184.579 427.427 183.029 427.841 181.703 428.409C180.377 428.977 179.347 429.747 178.613 430.717C177.88 431.664 177.513 432.848 177.513 434.268C177.513 436.328 178.258 437.902 179.75 438.991C181.265 440.057 183.183 440.589 185.503 440.589ZM236.12 418.466V450H220.993V395.455H235.41V405.078H236.049C237.257 401.906 239.281 399.396 242.122 397.55C244.963 395.679 248.407 394.744 252.456 394.744C256.243 394.744 259.546 395.573 262.363 397.23C265.181 398.887 267.37 401.255 268.933 404.332C270.495 407.386 271.277 411.032 271.277 415.27V450H256.149V417.969C256.172 414.631 255.32 412.027 253.592 410.156C251.864 408.262 249.484 407.315 246.454 407.315C244.418 407.315 242.619 407.753 241.056 408.629C239.518 409.505 238.31 410.784 237.434 412.464C236.582 414.122 236.144 416.122 236.12 418.466ZM296.122 451.03C292.642 451.03 289.541 450.426 286.818 449.219C284.095 447.988 281.941 446.177 280.355 443.786C278.792 441.371 278.011 438.364 278.011 434.766C278.011 431.735 278.568 429.19 279.68 427.131C280.793 425.071 282.308 423.414 284.226 422.159C286.143 420.904 288.321 419.957 290.76 419.318C293.222 418.679 295.802 418.229 298.501 417.969C301.674 417.637 304.23 417.33 306.172 417.045C308.113 416.738 309.522 416.288 310.398 415.696C311.273 415.104 311.711 414.228 311.711 413.068V412.855C311.711 410.606 311.001 408.866 309.581 407.635C308.184 406.404 306.195 405.788 303.615 405.788C300.892 405.788 298.726 406.392 297.116 407.599C295.506 408.783 294.441 410.275 293.92 412.074L279.929 410.938C280.639 407.623 282.036 404.759 284.119 402.344C286.202 399.905 288.889 398.035 292.18 396.733C295.495 395.407 299.33 394.744 303.686 394.744C306.716 394.744 309.616 395.099 312.386 395.81C315.18 396.52 317.654 397.621 319.808 399.112C321.986 400.604 323.702 402.521 324.957 404.865C326.212 407.185 326.839 409.967 326.839 413.21V450H312.493V442.436H312.067C311.191 444.141 310.019 445.644 308.551 446.946C307.083 448.224 305.319 449.231 303.26 449.964C301.2 450.675 298.821 451.03 296.122 451.03ZM300.454 440.589C302.68 440.589 304.645 440.152 306.349 439.276C308.054 438.376 309.391 437.169 310.362 435.653C311.333 434.138 311.818 432.422 311.818 430.504V424.716C311.345 425.024 310.693 425.308 309.865 425.568C309.06 425.805 308.148 426.03 307.13 426.243C306.112 426.432 305.094 426.61 304.077 426.776C303.059 426.918 302.135 427.048 301.307 427.166C299.531 427.427 297.98 427.841 296.655 428.409C295.329 428.977 294.299 429.747 293.565 430.717C292.831 431.664 292.464 432.848 292.464 434.268C292.464 436.328 293.21 437.902 294.702 438.991C296.217 440.057 298.134 440.589 300.454 440.589ZM360.518 471.591C355.618 471.591 351.415 470.916 347.912 469.567C344.431 468.241 341.662 466.43 339.602 464.134C337.542 461.837 336.205 459.257 335.589 456.392L349.581 454.51C350.007 455.599 350.681 456.617 351.605 457.564C352.528 458.511 353.747 459.268 355.262 459.837C356.801 460.429 358.671 460.724 360.873 460.724C364.164 460.724 366.875 459.92 369.005 458.31C371.16 456.723 372.237 454.06 372.237 450.32V440.341H371.598C370.935 441.856 369.94 443.288 368.615 444.638C367.289 445.987 365.584 447.088 363.501 447.94C361.418 448.793 358.932 449.219 356.044 449.219C351.948 449.219 348.219 448.272 344.858 446.378C341.52 444.46 338.856 441.536 336.868 437.607C334.903 433.653 333.92 428.658 333.92 422.621C333.92 416.442 334.926 411.281 336.939 407.138C338.951 402.995 341.626 399.893 344.964 397.834C348.326 395.774 352.007 394.744 356.008 394.744C359.062 394.744 361.619 395.265 363.679 396.307C365.738 397.325 367.395 398.603 368.65 400.142C369.929 401.657 370.911 403.149 371.598 404.616H372.166V395.455H387.187V450.533C387.187 455.173 386.051 459.055 383.778 462.18C381.505 465.305 378.357 467.649 374.332 469.212C370.331 470.798 365.726 471.591 360.518 471.591ZM360.838 437.855C363.276 437.855 365.336 437.251 367.017 436.044C368.721 434.813 370.023 433.061 370.923 430.788C371.846 428.492 372.308 425.746 372.308 422.55C372.308 419.354 371.858 416.584 370.958 414.24C370.059 411.873 368.757 410.038 367.052 408.736C365.348 407.434 363.276 406.783 360.838 406.783C358.352 406.783 356.257 407.457 354.552 408.807C352.848 410.133 351.557 411.979 350.681 414.347C349.805 416.714 349.368 419.448 349.368 422.55C349.368 425.698 349.805 428.421 350.681 430.717C351.581 432.99 352.871 434.754 354.552 436.009C356.257 437.24 358.352 437.855 360.838 437.855ZM421.452 451.065C415.841 451.065 411.011 449.929 406.963 447.656C402.939 445.36 399.837 442.116 397.659 437.926C395.481 433.712 394.392 428.729 394.392 422.976C394.392 417.365 395.481 412.441 397.659 408.203C399.837 403.965 402.903 400.663 406.857 398.295C410.834 395.928 415.498 394.744 420.848 394.744C424.447 394.744 427.797 395.324 430.898 396.484C434.023 397.621 436.745 399.337 439.065 401.634C441.409 403.93 443.232 406.818 444.534 410.298C445.836 413.755 446.487 417.803 446.487 422.443V426.598H400.429V417.223H432.247C432.247 415.045 431.774 413.116 430.827 411.435C429.88 409.754 428.566 408.44 426.885 407.493C425.228 406.522 423.298 406.037 421.097 406.037C418.8 406.037 416.764 406.57 414.989 407.635C413.237 408.677 411.864 410.085 410.869 411.861C409.875 413.613 409.366 415.566 409.342 417.72V426.634C409.342 429.332 409.84 431.664 410.834 433.629C411.852 435.594 413.284 437.109 415.131 438.175C416.977 439.24 419.167 439.773 421.7 439.773C423.381 439.773 424.92 439.536 426.317 439.062C427.714 438.589 428.909 437.879 429.904 436.932C430.898 435.985 431.655 434.825 432.176 433.452L446.168 434.375C445.458 437.737 444.002 440.672 441.8 443.182C439.622 445.668 436.805 447.609 433.348 449.006C429.915 450.379 425.95 451.065 421.452 451.065ZM453.728 450V395.455H468.146V405.078H468.785C469.921 401.882 471.815 399.361 474.467 397.514C477.118 395.668 480.29 394.744 483.984 394.744C487.724 394.744 490.908 395.679 493.536 397.55C496.164 399.396 497.916 401.906 498.792 405.078H499.36C500.473 401.953 502.485 399.455 505.397 397.585C508.333 395.691 511.801 394.744 515.802 394.744C520.892 394.744 525.023 396.366 528.195 399.609C531.391 402.829 532.989 407.398 532.989 413.317V450H517.897V416.3C517.897 413.269 517.092 410.997 515.482 409.482C513.872 407.966 511.86 407.209 509.445 407.209C506.699 407.209 504.557 408.085 503.018 409.837C501.479 411.565 500.709 413.849 500.709 416.69V450H486.043V415.98C486.043 413.305 485.274 411.174 483.735 409.588C482.22 408.002 480.219 407.209 477.734 407.209C476.053 407.209 474.538 407.635 473.188 408.487C471.862 409.316 470.809 410.488 470.028 412.003C469.246 413.494 468.856 415.246 468.856 417.259V450H453.728ZM567.165 451.065C561.554 451.065 556.725 449.929 552.677 447.656C548.652 445.36 545.551 442.116 543.373 437.926C541.195 433.712 540.106 428.729 540.106 422.976C540.106 417.365 541.195 412.441 543.373 408.203C545.551 403.965 548.616 400.663 552.57 398.295C556.547 395.928 561.211 394.744 566.562 394.744C570.16 394.744 573.51 395.324 576.611 396.484C579.736 397.621 582.459 399.337 584.779 401.634C587.123 403.93 588.946 406.818 590.248 410.298C591.55 413.755 592.201 417.803 592.201 422.443V426.598H546.143V417.223H577.961C577.961 415.045 577.487 413.116 576.54 411.435C575.593 409.754 574.279 408.44 572.598 407.493C570.941 406.522 569.012 406.037 566.81 406.037C564.514 406.037 562.478 406.57 560.702 407.635C558.95 408.677 557.577 410.085 556.583 411.861C555.589 413.613 555.08 415.566 555.056 417.72V426.634C555.056 429.332 555.553 431.664 556.547 433.629C557.565 435.594 558.998 437.109 560.844 438.175C562.691 439.24 564.881 439.773 567.414 439.773C569.095 439.773 570.634 439.536 572.03 439.062C573.427 438.589 574.623 437.879 575.617 436.932C576.611 435.985 577.369 434.825 577.89 433.452L591.881 434.375C591.171 437.737 589.715 440.672 587.513 443.182C585.335 445.668 582.518 447.609 579.062 449.006C575.629 450.379 571.663 451.065 567.165 451.065ZM614.569 418.466V450H599.441V395.455H613.859V405.078H614.498C615.706 401.906 617.73 399.396 620.571 397.55C623.412 395.679 626.856 394.744 630.904 394.744C634.692 394.744 637.995 395.573 640.812 397.23C643.629 398.887 645.819 401.255 647.382 404.332C648.944 407.386 649.725 411.032 649.725 415.27V450H634.598V417.969C634.621 414.631 633.769 412.027 632.041 410.156C630.313 408.262 627.933 407.315 624.903 407.315C622.867 407.315 621.068 407.753 619.505 408.629C617.966 409.505 616.759 410.784 615.883 412.464C615.031 414.122 614.593 416.122 614.569 418.466ZM688.03 395.455V406.818H655.182V395.455H688.03ZM662.639 382.386H677.767V433.239C677.767 434.635 677.98 435.724 678.406 436.506C678.832 437.263 679.424 437.796 680.182 438.104C680.963 438.411 681.862 438.565 682.88 438.565C683.591 438.565 684.301 438.506 685.011 438.388C685.721 438.246 686.266 438.139 686.645 438.068L689.024 449.325C688.266 449.562 687.201 449.834 685.828 450.142C684.455 450.473 682.786 450.675 680.821 450.746C677.175 450.888 673.979 450.402 671.233 449.29C668.51 448.177 666.391 446.449 664.876 444.105C663.361 441.761 662.615 438.802 662.639 435.227V382.386Z" fill="black"/>
<rect x="71" y="498" width="1038" height="19" fill="black"/>
</svg>
