<svg width="1200" height="900" viewBox="0 0 1200 900" fill="none" xmlns="http://www.w3.org/2000/svg">
<rect width="1200" height="900" fill="white"/>
<path d="M968 447.5C968 651.017 803.017 816 599.5 816C395.983 816 231 651.017 231 447.5C231 243.983 395.983 79 599.5 79C803.017 79 968 243.983 968 447.5Z" fill="#1D1D1F"/>
<path d="M933.486 447.502C933.486 631.956 783.954 781.488 599.5 781.488C415.046 781.488 265.514 631.956 265.514 447.502C265.514 263.048 415.046 113.516 599.5 113.516C783.954 113.516 933.486 263.048 933.486 447.502Z" fill="#CCCFD0"/>
<path d="M905.345 447.501C905.345 616.413 768.413 753.345 599.5 753.345C430.588 753.345 293.656 616.413 293.656 447.501C293.656 278.588 430.588 141.656 599.5 141.656C768.413 141.656 905.345 278.588 905.345 447.501Z" fill="#EDEDED"/>
<path d="M600.164 185.201V206.44C666.706 206.618 726.911 233.759 770.428 277.515L785.446 262.496C785.133 262.183 784.82 261.869 784.506 261.556C737.223 214.511 672.095 185.376 600.164 185.201Z" fill="#FFC83F"/>
<path d="M414.493 261.553L429.512 276.572C473.097 233.225 533.17 206.435 599.5 206.435C599.72 206.435 599.943 206.435 600.164 206.437V185.198C599.943 185.195 599.72 185.195 599.5 185.195C599.279 185.195 599.056 185.195 598.836 185.198C526.904 185.376 461.777 214.505 414.493 261.553Z" fill="#D4DE4E"/>
<path d="M337.196 447.499H358.435C358.435 380.694 385.611 320.234 429.512 276.572L414.493 261.553C414.18 261.866 413.867 262.177 413.554 262.493C366.363 309.92 337.196 375.305 337.196 447.499Z" fill="#78C567"/>
<path d="M770.428 277.509C813.774 321.094 840.565 381.167 840.565 447.497H861.804C861.804 375.302 832.637 309.92 785.447 262.49L770.428 277.509Z" fill="#ED7C41"/>
<path d="M704.156 343.781C730.548 370.407 746.847 407.048 746.847 447.498H840.565C840.565 381.168 813.774 321.095 770.428 277.51L704.156 343.781Z" fill="#E95605"/>
<path d="M600.164 206.438V300.155C640.351 300.331 676.736 316.595 703.216 342.844C703.532 343.152 703.848 343.467 704.156 343.783L770.428 277.512C726.911 233.756 666.706 206.615 600.164 206.438Z" fill="#F8BA0E"/>
<path d="M429.512 276.575L495.781 342.844C522.261 316.6 558.649 300.333 598.836 300.158C599.056 300.155 599.279 300.155 599.5 300.155C599.72 300.155 599.943 300.155 600.164 300.158V206.44C599.943 206.438 599.72 206.438 599.5 206.438C533.17 206.438 473.097 233.228 429.512 276.575Z" fill="#C9D81D"/>
<path d="M358.435 447.5H452.153C452.153 407.05 468.452 370.407 494.841 343.781C495.152 343.465 495.465 343.152 495.781 342.841L429.512 276.572C385.611 320.235 358.435 380.695 358.435 447.5Z" fill="#4DB236"/>
<path d="M814.218 395.526C814.218 395.526 626.943 408.46 592.324 417.706C573.205 422.812 561.846 442.451 566.954 461.571C572.06 480.689 591.699 492.045 610.817 486.939C645.434 477.695 814.218 395.526 814.218 395.526Z" fill="#1D1D1F"/>
<path d="M606.255 466.736C598.181 468.893 589.887 464.094 587.73 456.02C585.573 447.946 590.371 439.652 598.446 437.495C606.52 435.338 614.814 440.136 616.971 448.21C619.128 456.285 614.329 464.579 606.255 466.736Z" fill="#EDEDED"/>
<path d="M747.327 477.998V462.725H757.619V465.388H750.556V469.027H757.089V471.689H750.556V475.336H757.648V477.998H747.327ZM762.794 462.725L765.873 467.931H765.993L769.088 462.725H772.734L768.073 470.362L772.839 477.998H769.125L765.993 472.785H765.873L762.741 477.998H759.042L763.823 470.362L759.132 462.725H762.794ZM774.358 477.998V462.725H780.383C781.541 462.725 782.528 462.947 783.344 463.389C784.159 463.827 784.78 464.436 785.208 465.216C785.641 465.992 785.857 466.887 785.857 467.901C785.857 468.915 785.638 469.81 785.201 470.585C784.763 471.361 784.129 471.965 783.299 472.398C782.474 472.83 781.474 473.046 780.301 473.046H776.461V470.459H779.779C780.4 470.459 780.913 470.352 781.315 470.138C781.723 469.919 782.026 469.618 782.225 469.236C782.429 468.848 782.531 468.403 782.531 467.901C782.531 467.394 782.429 466.951 782.225 466.573C782.026 466.191 781.723 465.895 781.315 465.686C780.908 465.472 780.391 465.365 779.764 465.365H777.587V477.998H774.358ZM787.534 477.998V462.725H797.825V465.388H790.763V469.027H797.296V471.689H790.763V475.336H797.855V477.998H787.534ZM812.747 462.725V477.998H809.958L803.314 468.385H803.202V477.998H799.973V462.725H802.806L809.399 472.33H809.533V462.725H812.747ZM823.28 467.118C823.22 466.516 822.964 466.049 822.512 465.716C822.06 465.383 821.446 465.216 820.67 465.216C820.143 465.216 819.698 465.291 819.335 465.44C818.972 465.584 818.694 465.785 818.5 466.044C818.311 466.302 818.217 466.596 818.217 466.924C818.207 467.197 818.264 467.436 818.388 467.64C818.517 467.844 818.694 468.02 818.918 468.169C819.141 468.313 819.4 468.44 819.693 468.55C819.986 468.654 820.3 468.743 820.633 468.818L822.005 469.146C822.671 469.295 823.283 469.494 823.839 469.743C824.396 469.991 824.879 470.297 825.286 470.66C825.694 471.023 826.01 471.45 826.233 471.943C826.462 472.435 826.579 472.999 826.584 473.635C826.579 474.57 826.34 475.381 825.868 476.067C825.401 476.748 824.724 477.277 823.839 477.655C822.959 478.028 821.898 478.214 820.655 478.214C819.422 478.214 818.348 478.025 817.434 477.648C816.524 477.27 815.813 476.71 815.301 475.97C814.794 475.224 814.528 474.302 814.503 473.203H817.627C817.662 473.715 817.809 474.143 818.067 474.486C818.331 474.824 818.681 475.08 819.119 475.254C819.561 475.423 820.061 475.507 820.618 475.507C821.165 475.507 821.64 475.428 822.042 475.269C822.45 475.11 822.766 474.888 822.989 474.605C823.213 474.322 823.325 473.996 823.325 473.628C823.325 473.285 823.223 472.997 823.019 472.763C822.82 472.529 822.527 472.33 822.139 472.166C821.756 472.002 821.287 471.853 820.73 471.719L819.067 471.301C817.779 470.988 816.762 470.498 816.017 469.832C815.271 469.166 814.901 468.269 814.905 467.14C814.901 466.215 815.147 465.407 815.644 464.716C816.146 464.025 816.834 463.486 817.709 463.098C818.584 462.71 819.579 462.517 820.692 462.517C821.826 462.517 822.815 462.71 823.66 463.098C824.511 463.486 825.172 464.025 825.644 464.716C826.116 465.407 826.36 466.208 826.375 467.118H823.28ZM831.565 462.725V477.998H828.336V462.725H831.565ZM836.561 462.725L840.252 474.329H840.394L844.093 462.725H847.672L842.407 477.998H838.246L832.974 462.725H836.561ZM849.09 477.998V462.725H859.382V465.388H852.32V469.027H858.852V471.689H852.32V475.336H859.411V477.998H849.09Z" fill="black"/>
<path d="M751.207 483.544V500.998H747.517V483.544H751.207ZM763.232 488.563C763.164 487.876 762.872 487.342 762.355 486.961C761.837 486.58 761.136 486.39 760.249 486.39C759.647 486.39 759.139 486.475 758.724 486.646C758.309 486.811 757.991 487.041 757.769 487.336C757.553 487.632 757.445 487.967 757.445 488.342C757.434 488.654 757.499 488.927 757.641 489.16C757.789 489.393 757.991 489.595 758.247 489.765C758.502 489.93 758.798 490.075 759.133 490.2C759.468 490.319 759.826 490.421 760.207 490.507L761.775 490.882C762.536 491.052 763.235 491.279 763.872 491.563C764.508 491.847 765.059 492.197 765.525 492.612C765.991 493.026 766.352 493.515 766.607 494.078C766.869 494.64 767.002 495.285 767.008 496.012C767.002 497.08 766.73 498.007 766.19 498.791C765.656 499.569 764.883 500.174 763.872 500.606C762.866 501.032 761.653 501.245 760.232 501.245C758.823 501.245 757.596 501.029 756.551 500.597C755.511 500.166 754.698 499.526 754.113 498.68C753.533 497.828 753.23 496.774 753.201 495.518H756.772C756.812 496.103 756.98 496.592 757.275 496.984C757.576 497.37 757.977 497.663 758.477 497.862C758.982 498.055 759.553 498.151 760.19 498.151C760.815 498.151 761.357 498.061 761.818 497.879C762.283 497.697 762.644 497.444 762.9 497.12C763.156 496.796 763.283 496.424 763.283 496.004C763.283 495.612 763.167 495.282 762.934 495.015C762.707 494.748 762.372 494.521 761.928 494.333C761.491 494.146 760.954 493.975 760.318 493.822L758.417 493.345C756.945 492.987 755.783 492.427 754.931 491.666C754.079 490.904 753.656 489.879 753.661 488.589C753.656 487.532 753.937 486.609 754.505 485.819C755.079 485.029 755.866 484.413 756.866 483.97C757.866 483.526 759.002 483.305 760.275 483.305C761.57 483.305 762.701 483.526 763.667 483.97C764.639 484.413 765.394 485.029 765.934 485.819C766.474 486.609 766.752 487.524 766.769 488.563H763.232ZM785.05 492.271C785.05 494.174 784.689 495.794 783.968 497.129C783.252 498.464 782.274 499.484 781.036 500.188C779.803 500.887 778.416 501.237 776.877 501.237C775.326 501.237 773.933 500.884 772.701 500.18C771.468 499.475 770.493 498.455 769.777 497.12C769.061 495.785 768.703 494.169 768.703 492.271C768.703 490.367 769.061 488.748 769.777 487.413C770.493 486.078 771.468 485.061 772.701 484.362C773.933 483.657 775.326 483.305 776.877 483.305C778.416 483.305 779.803 483.657 781.036 484.362C782.274 485.061 783.252 486.078 783.968 487.413C784.689 488.748 785.05 490.367 785.05 492.271ZM781.308 492.271C781.308 491.038 781.124 489.998 780.754 489.151C780.391 488.305 779.877 487.663 779.212 487.225C778.547 486.788 777.769 486.569 776.877 486.569C775.985 486.569 775.206 486.788 774.541 487.225C773.877 487.663 773.36 488.305 772.99 489.151C772.627 489.998 772.445 491.038 772.445 492.271C772.445 493.504 772.627 494.544 772.99 495.39C773.36 496.237 773.877 496.879 774.541 497.316C775.206 497.754 775.985 497.972 776.877 497.972C777.769 497.972 778.547 497.754 779.212 497.316C779.877 496.879 780.391 496.237 780.754 495.39C781.124 494.544 781.308 493.504 781.308 492.271ZM787.304 500.998V483.544H790.994V497.955H798.477V500.998H787.304ZM803.895 500.998H799.94L805.966 483.544H810.721L816.738 500.998H812.784L808.412 487.532H808.275L803.895 500.998ZM803.647 494.137H812.988V497.018H803.647V494.137ZM815.562 486.586V483.544H829.897V486.586H824.553V500.998H820.905V486.586H815.562ZM831.778 500.998V483.544H843.539V486.586H835.468V490.745H842.934V493.788H835.468V497.955H843.573V500.998H831.778ZM852.18 500.998H845.993V483.544H852.232C853.987 483.544 855.499 483.893 856.766 484.592C858.033 485.285 859.007 486.282 859.689 487.583C860.376 488.884 860.72 490.441 860.72 492.254C860.72 494.072 860.376 495.634 859.689 496.941C859.007 498.248 858.027 499.251 856.749 499.95C855.476 500.649 853.953 500.998 852.18 500.998ZM849.683 497.836H852.027C853.118 497.836 854.036 497.643 854.78 497.257C855.53 496.865 856.092 496.259 856.467 495.441C856.848 494.617 857.038 493.555 857.038 492.254C857.038 490.964 856.848 489.91 856.467 489.092C856.092 488.274 855.533 487.671 854.788 487.285C854.044 486.899 853.126 486.705 852.036 486.705H849.683V497.836Z" fill="black"/>
<path d="M360.967 464.932H355.678C355.582 464.247 355.384 463.64 355.087 463.108C354.789 462.569 354.406 462.11 353.94 461.732C353.473 461.354 352.933 461.064 352.322 460.863C351.718 460.662 351.062 460.561 350.354 460.561C349.074 460.561 347.959 460.879 347.009 461.515C346.059 462.143 345.323 463.06 344.8 464.268C344.277 465.467 344.015 466.924 344.015 468.638C344.015 470.401 344.277 471.882 344.8 473.081C345.331 474.281 346.071 475.186 347.021 475.798C347.971 476.41 349.07 476.716 350.317 476.716C351.018 476.716 351.666 476.623 352.261 476.438C352.865 476.253 353.4 475.983 353.867 475.629C354.334 475.267 354.72 474.828 355.026 474.313C355.34 473.798 355.558 473.21 355.678 472.55L360.967 472.574C360.83 473.709 360.488 474.804 359.94 475.858C359.401 476.905 358.673 477.843 357.755 478.672C356.845 479.493 355.759 480.145 354.495 480.628C353.239 481.103 351.819 481.34 350.233 481.34C348.027 481.34 346.055 480.841 344.317 479.843C342.586 478.845 341.218 477.4 340.212 475.508C339.214 473.617 338.714 471.327 338.714 468.638C338.714 465.942 339.222 463.648 340.236 461.756C341.25 459.865 342.626 458.424 344.365 457.434C346.104 456.436 348.06 455.937 350.233 455.937C351.666 455.937 352.994 456.138 354.217 456.54C355.449 456.943 356.54 457.53 357.489 458.303C358.439 459.068 359.212 460.006 359.808 461.116C360.411 462.227 360.798 463.499 360.967 464.932ZM364.036 481.002V456.275H369.264V466.477H379.876V456.275H385.092V481.002H379.876V470.787H369.264V481.002H364.036ZM388.723 481.002V456.275H405.385V460.585H393.951V466.477H404.527V470.787H393.951V476.692H405.433V481.002H388.723ZM413.123 481.002H407.521L416.057 456.275H422.794L431.318 481.002H425.716L419.522 461.925H419.329L413.123 481.002ZM412.773 471.282H426.006V475.363H412.773V471.282ZM433.615 481.002V456.275H443.37C445.246 456.275 446.844 456.633 448.164 457.349C449.484 458.058 450.49 459.044 451.182 460.307C451.882 461.563 452.233 463.012 452.233 464.654C452.233 466.296 451.878 467.745 451.17 469.001C450.462 470.256 449.435 471.234 448.091 471.934C446.755 472.635 445.137 472.985 443.238 472.985H437.02V468.795H442.392C443.399 468.795 444.228 468.622 444.88 468.276C445.54 467.922 446.031 467.435 446.353 466.815C446.683 466.187 446.848 465.467 446.848 464.654C446.848 463.833 446.683 463.117 446.353 462.505C446.031 461.885 445.54 461.406 444.88 461.068C444.22 460.722 443.382 460.549 442.368 460.549H438.843V481.002H433.615Z" fill="black"/>
<path d="M350.817 492.495C350.737 491.693 350.396 491.07 349.793 490.626C349.189 490.181 348.371 489.959 347.337 489.959C346.634 489.959 346.041 490.059 345.557 490.258C345.073 490.45 344.702 490.718 344.443 491.063C344.191 491.408 344.065 491.799 344.065 492.236C344.052 492.601 344.128 492.919 344.294 493.191C344.466 493.463 344.702 493.698 345 493.897C345.298 494.089 345.643 494.258 346.034 494.404C346.425 494.543 346.843 494.662 347.287 494.762L349.116 495.199C350.005 495.398 350.82 495.663 351.562 495.995C352.305 496.326 352.948 496.734 353.491 497.218C354.035 497.702 354.456 498.272 354.754 498.928C355.059 499.584 355.215 500.337 355.222 501.185C355.215 502.431 354.897 503.512 354.267 504.427C353.644 505.335 352.742 506.041 351.562 506.545C350.389 507.042 348.974 507.29 347.317 507.29C345.673 507.29 344.241 507.038 343.021 506.535C341.808 506.031 340.86 505.285 340.178 504.297C339.501 503.303 339.147 502.073 339.114 500.608H343.28C343.326 501.291 343.522 501.861 343.866 502.319C344.218 502.769 344.685 503.111 345.268 503.343C345.858 503.568 346.525 503.681 347.267 503.681C347.996 503.681 348.629 503.575 349.166 503.363C349.71 503.151 350.131 502.856 350.429 502.478C350.727 502.1 350.876 501.666 350.876 501.175C350.876 500.718 350.741 500.333 350.469 500.022C350.204 499.71 349.812 499.445 349.295 499.226C348.785 499.008 348.159 498.809 347.416 498.63L345.199 498.073C343.482 497.655 342.126 497.002 341.132 496.114C340.138 495.226 339.644 494.029 339.651 492.525C339.644 491.292 339.972 490.215 340.635 489.293C341.304 488.372 342.223 487.653 343.389 487.135C344.556 486.618 345.882 486.36 347.366 486.36C348.878 486.36 350.197 486.618 351.324 487.135C352.457 487.653 353.339 488.372 353.969 489.293C354.598 490.215 354.923 491.282 354.943 492.495H350.817ZM357.558 507.002V486.638H361.863V495.04H370.603V486.638H374.898V507.002H370.603V498.59H361.863V507.002H357.558ZM381.398 507.002H376.784L383.814 486.638H389.363L396.382 507.002H391.769L386.668 491.292H386.509L381.398 507.002ZM381.11 498.998H392.007V502.358H381.11V498.998ZM398.273 507.002V486.638H406.308C407.845 486.638 409.158 486.913 410.245 487.464C411.339 488.007 412.171 488.779 412.741 489.78C413.318 490.775 413.606 491.945 413.606 493.29C413.606 494.643 413.314 495.806 412.731 496.78C412.148 497.748 411.302 498.491 410.195 499.008C409.095 499.525 407.763 499.783 406.198 499.783H400.819V496.323H405.502C406.324 496.323 407.007 496.21 407.55 495.985C408.094 495.76 408.498 495.421 408.764 494.971C409.035 494.52 409.171 493.96 409.171 493.29C409.171 492.614 409.035 492.044 408.764 491.58C408.498 491.116 408.091 490.765 407.541 490.526C406.997 490.281 406.311 490.158 405.482 490.158H402.579V507.002H398.273ZM409.271 497.735L414.332 507.002H409.579L404.627 497.735H409.271ZM416.088 507.002V486.638H429.81V490.188H420.394V495.04H429.104V498.59H420.394V503.452H429.85V507.002H416.088ZM439.892 507.002H432.673V486.638H439.951C442 486.638 443.763 487.046 445.241 487.861C446.719 488.67 447.856 489.833 448.652 491.351C449.454 492.869 449.855 494.686 449.855 496.8C449.855 498.921 449.454 500.744 448.652 502.269C447.856 503.794 446.713 504.964 445.221 505.779C443.736 506.594 441.96 507.002 439.892 507.002ZM436.978 503.313H439.713C440.986 503.313 442.056 503.088 442.924 502.637C443.799 502.18 444.456 501.474 444.893 500.519C445.337 499.558 445.559 498.318 445.559 496.8C445.559 495.296 445.337 494.066 444.893 493.111C444.456 492.157 443.803 491.454 442.934 491.003C442.066 490.553 440.995 490.327 439.723 490.327H436.978V503.313Z" fill="black"/>
<path d="M389.771 581.271H401.961L408.126 606.487H408.603L423.12 581.271H435.311L428.549 621.998H418.964L423.12 596.981H422.782L408.901 621.74H402.796L397.149 596.842H396.811L392.595 621.998H383.009L389.771 581.271ZM462.73 581.271H472.554L468.198 607.541C467.695 610.577 466.535 613.222 464.718 615.475C462.915 617.716 460.615 619.453 457.818 620.686C455.02 621.905 451.905 622.515 448.471 622.515C445.024 622.515 442.114 621.905 439.741 620.686C437.368 619.453 435.651 617.716 434.59 615.475C433.53 613.222 433.245 610.577 433.735 607.541L438.09 581.271H447.934L443.698 606.686C443.473 608.091 443.579 609.344 444.017 610.444C444.467 611.531 445.197 612.393 446.204 613.029C447.212 613.652 448.445 613.964 449.903 613.964C451.375 613.964 452.72 613.652 453.94 613.029C455.16 612.393 456.167 611.531 456.963 610.444C457.758 609.344 458.269 608.091 458.494 606.686L462.73 581.271ZM468.602 621.998L475.363 581.271H485.207L479.798 614.004H496.741L495.389 621.998H468.602ZM496.225 589.265L497.577 581.271H532L530.648 589.265H518.299L512.89 621.998H503.185L508.594 589.265H496.225ZM543.292 581.271L536.53 621.998H526.687L533.448 581.271H543.292ZM562.876 597.896L561.663 605.373H542.83L544.043 597.896H562.876ZM565.661 589.265L567.013 581.271H601.436L600.084 589.265H587.734L582.325 621.998H572.621L578.03 589.265H565.661ZM596.122 621.998L602.884 581.271H631.281L629.929 589.265H611.375L610.023 597.617H627.125L625.773 605.632H608.671L607.318 614.004H625.872L624.52 621.998H596.122ZM668.748 581.271L661.987 621.998H653.634L641.365 598.492H641.086L637.168 621.998H627.325L634.086 581.271H642.558L654.728 604.737H655.066L658.924 581.271H668.748ZM673.626 621.998H663.046L683.549 581.271H696.654L703.634 621.998H693.055L688.58 591.532H688.262L673.626 621.998ZM674.899 605.97H697.012L695.74 613.447H673.626L674.899 605.97ZM746.083 581.271L739.321 621.998H730.969L718.699 598.492H718.421L714.503 621.998H704.659L711.421 581.271H719.892L732.063 604.737H732.401L736.259 581.271H746.083ZM783.395 596.026H773.571C773.624 594.992 773.525 594.071 773.273 593.262C773.021 592.44 772.624 591.738 772.08 591.154C771.536 590.558 770.86 590.107 770.052 589.802C769.243 589.497 768.302 589.345 767.228 589.345C765.173 589.345 763.31 589.855 761.64 590.876C759.969 591.897 758.571 593.368 757.444 595.291C756.317 597.213 755.528 599.52 755.077 602.211C754.666 604.81 754.673 606.977 755.097 608.714C755.535 610.451 756.343 611.757 757.523 612.632C758.703 613.493 760.201 613.924 762.017 613.924C763.197 613.924 764.291 613.785 765.299 613.507C766.32 613.215 767.241 612.797 768.063 612.254C768.885 611.71 769.594 611.054 770.191 610.285C770.801 609.503 771.271 608.634 771.603 607.68H781.506C781.016 609.47 780.207 611.253 779.08 613.029C777.966 614.793 776.561 616.39 774.864 617.822C773.167 619.254 771.198 620.401 768.958 621.262C766.717 622.124 764.225 622.555 761.481 622.555C757.729 622.555 754.494 621.713 751.776 620.029C749.071 618.346 747.116 615.906 745.91 612.711C744.716 609.503 744.491 605.618 745.233 601.058C745.963 596.643 747.401 592.924 749.549 589.901C751.71 586.879 754.335 584.592 757.424 583.041C760.526 581.49 763.834 580.714 767.347 580.714C769.892 580.714 772.179 581.059 774.208 581.748C776.249 582.424 777.98 583.419 779.398 584.731C780.817 586.03 781.871 587.628 782.56 589.524C783.263 591.419 783.541 593.587 783.395 596.026ZM786.125 581.271H797.123L802.89 598.313H803.307L814.702 581.271H825.699L806.31 608.396L804.043 621.998H794.259L796.546 608.396L786.125 581.271Z" fill="black"/>
</svg>
