<svg width="1200" height="900" viewBox="0 0 1200 900" fill="none" xmlns="http://www.w3.org/2000/svg">
<rect width="1200" height="900" fill="white"/>
<path d="M77.321 287.273H96.2841L116.312 336.136H117.165L137.193 287.273H156.156V360H141.241V312.663H140.638L121.817 359.645H111.661L92.8395 312.486H92.2358V360H77.321V287.273ZM200.888 336.776V305.455H216.016V360H201.492V350.092H200.923C199.692 353.288 197.645 355.857 194.78 357.798C191.939 359.74 188.471 360.71 184.375 360.71C180.729 360.71 177.521 359.882 174.752 358.224C171.982 356.567 169.816 354.212 168.253 351.158C166.714 348.104 165.933 344.446 165.909 340.185V305.455H181.037V337.486C181.061 340.705 181.925 343.25 183.629 345.121C185.334 346.991 187.619 347.926 190.483 347.926C192.306 347.926 194.011 347.512 195.597 346.683C197.183 345.831 198.461 344.576 199.432 342.919C200.426 341.262 200.912 339.214 200.888 336.776ZM240.613 287.273V360H225.485V287.273H240.613ZM279.112 305.455V316.818H246.264V305.455H279.112ZM253.721 292.386H268.849V343.239C268.849 344.635 269.062 345.724 269.488 346.506C269.915 347.263 270.506 347.796 271.264 348.104C272.045 348.411 272.945 348.565 273.963 348.565C274.673 348.565 275.383 348.506 276.094 348.388C276.804 348.246 277.348 348.139 277.727 348.068L280.106 359.325C279.349 359.562 278.283 359.834 276.91 360.142C275.537 360.473 273.868 360.675 271.903 360.746C268.257 360.888 265.061 360.402 262.315 359.29C259.593 358.177 257.474 356.449 255.959 354.105C254.443 351.761 253.698 348.802 253.721 345.227V292.386ZM286.335 360V305.455H301.463V360H286.335ZM293.934 298.423C291.685 298.423 289.756 297.678 288.146 296.186C286.56 294.671 285.767 292.86 285.767 290.753C285.767 288.67 286.56 286.882 288.146 285.391C289.756 283.875 291.685 283.118 293.934 283.118C296.183 283.118 298.101 283.875 299.687 285.391C301.297 286.882 302.102 288.67 302.102 290.753C302.102 292.86 301.297 294.671 299.687 296.186C298.101 297.678 296.183 298.423 293.934 298.423ZM344.934 324.134V336.136H311.766V324.134H344.934ZM384.206 305.455V316.818H351.358V305.455H384.206ZM358.815 292.386H373.943V343.239C373.943 344.635 374.156 345.724 374.582 346.506C375.008 347.263 375.6 347.796 376.358 348.104C377.139 348.411 378.038 348.565 379.056 348.565C379.767 348.565 380.477 348.506 381.187 348.388C381.897 348.246 382.442 348.139 382.821 348.068L385.2 359.325C384.442 359.562 383.377 359.834 382.004 360.142C380.631 360.473 378.962 360.675 376.997 360.746C373.351 360.888 370.155 360.402 367.409 359.29C364.686 358.177 362.567 356.449 361.052 354.105C359.537 351.761 358.791 348.802 358.815 345.227V292.386ZM415.7 361.065C410.09 361.065 405.26 359.929 401.212 357.656C397.187 355.36 394.086 352.116 391.908 347.926C389.73 343.712 388.641 338.729 388.641 332.976C388.641 327.365 389.73 322.441 391.908 318.203C394.086 313.965 397.152 310.663 401.105 308.295C405.083 305.928 409.746 304.744 415.097 304.744C418.695 304.744 422.045 305.324 425.146 306.484C428.271 307.621 430.994 309.337 433.314 311.634C435.658 313.93 437.481 316.818 438.783 320.298C440.085 323.755 440.736 327.803 440.736 332.443V336.598H394.678V327.223H426.496C426.496 325.045 426.022 323.116 425.075 321.435C424.128 319.754 422.815 318.44 421.134 317.493C419.476 316.522 417.547 316.037 415.345 316.037C413.049 316.037 411.013 316.57 409.237 317.635C407.485 318.677 406.112 320.085 405.118 321.861C404.124 323.613 403.615 325.566 403.591 327.72V336.634C403.591 339.332 404.088 341.664 405.083 343.629C406.1 345.594 407.533 347.109 409.379 348.175C411.226 349.24 413.416 349.773 415.949 349.773C417.63 349.773 419.169 349.536 420.565 349.062C421.962 348.589 423.158 347.879 424.152 346.932C425.146 345.985 425.904 344.825 426.425 343.452L440.416 344.375C439.706 347.737 438.25 350.672 436.048 353.182C433.87 355.668 431.053 357.609 427.597 359.006C424.164 360.379 420.199 361.065 415.7 361.065ZM463.104 328.466V360H447.976V305.455H462.394V315.078H463.033C464.241 311.906 466.265 309.396 469.106 307.55C471.947 305.679 475.391 304.744 479.44 304.744C483.227 304.744 486.53 305.573 489.347 307.23C492.164 308.887 494.354 311.255 495.917 314.332C497.479 317.386 498.261 321.032 498.261 325.27V360H483.133V327.969C483.156 324.631 482.304 322.027 480.576 320.156C478.848 318.262 476.468 317.315 473.438 317.315C471.402 317.315 469.603 317.753 468.04 318.629C466.502 319.505 465.294 320.784 464.418 322.464C463.566 324.122 463.128 326.122 463.104 328.466ZM523.106 361.03C519.626 361.03 516.524 360.426 513.802 359.219C511.079 357.988 508.925 356.177 507.339 353.786C505.776 351.371 504.995 348.364 504.995 344.766C504.995 341.735 505.551 339.19 506.664 337.131C507.777 335.071 509.292 333.414 511.21 332.159C513.127 330.904 515.305 329.957 517.744 329.318C520.206 328.679 522.786 328.229 525.485 327.969C528.658 327.637 531.214 327.33 533.156 327.045C535.097 326.738 536.506 326.288 537.381 325.696C538.257 325.104 538.695 324.228 538.695 323.068V322.855C538.695 320.606 537.985 318.866 536.565 317.635C535.168 316.404 533.179 315.788 530.599 315.788C527.876 315.788 525.71 316.392 524.1 317.599C522.49 318.783 521.425 320.275 520.904 322.074L506.913 320.938C507.623 317.623 509.02 314.759 511.103 312.344C513.186 309.905 515.873 308.035 519.164 306.733C522.479 305.407 526.314 304.744 530.67 304.744C533.7 304.744 536.6 305.099 539.37 305.81C542.164 306.52 544.638 307.621 546.792 309.112C548.97 310.604 550.686 312.521 551.941 314.865C553.196 317.185 553.823 319.967 553.823 323.21V360H539.477V352.436H539.051C538.175 354.141 537.003 355.644 535.535 356.946C534.067 358.224 532.303 359.231 530.244 359.964C528.184 360.675 525.805 361.03 523.106 361.03ZM527.438 350.589C529.664 350.589 531.629 350.152 533.333 349.276C535.038 348.376 536.375 347.169 537.346 345.653C538.317 344.138 538.802 342.422 538.802 340.504V334.716C538.328 335.024 537.677 335.308 536.849 335.568C536.044 335.805 535.132 336.03 534.114 336.243C533.096 336.432 532.078 336.61 531.06 336.776C530.042 336.918 529.119 337.048 528.291 337.166C526.515 337.427 524.964 337.841 523.639 338.409C522.313 338.977 521.283 339.747 520.549 340.717C519.815 341.664 519.448 342.848 519.448 344.268C519.448 346.328 520.194 347.902 521.685 348.991C523.201 350.057 525.118 350.589 527.438 350.589ZM578.056 328.466V360H562.928V305.455H577.346V315.078H577.985C579.192 311.906 581.217 309.396 584.057 307.55C586.898 305.679 590.343 304.744 594.391 304.744C598.179 304.744 601.482 305.573 604.299 307.23C607.116 308.887 609.306 311.255 610.869 314.332C612.431 317.386 613.212 321.032 613.212 325.27V360H598.084V327.969C598.108 324.631 597.256 322.027 595.528 320.156C593.799 318.262 591.42 317.315 588.39 317.315C586.354 317.315 584.555 317.753 582.992 318.629C581.453 319.505 580.246 320.784 579.37 322.464C578.518 324.122 578.08 326.122 578.056 328.466ZM647.148 361.065C641.561 361.065 636.756 359.882 632.731 357.514C628.73 355.123 625.652 351.809 623.498 347.571C621.367 343.333 620.302 338.456 620.302 332.94C620.302 327.353 621.379 322.453 623.533 318.239C625.711 314.001 628.801 310.698 632.802 308.331C636.803 305.94 641.561 304.744 647.077 304.744C651.836 304.744 656.003 305.608 659.577 307.337C663.152 309.065 665.981 311.491 668.065 314.616C670.148 317.741 671.296 321.411 671.509 325.625H657.234C656.831 322.902 655.766 320.713 654.038 319.055C652.333 317.375 650.096 316.534 647.326 316.534C644.982 316.534 642.934 317.173 641.183 318.452C639.454 319.706 638.105 321.541 637.134 323.956C636.164 326.371 635.678 329.295 635.678 332.727C635.678 336.207 636.152 339.167 637.099 341.605C638.069 344.044 639.431 345.902 641.183 347.18C642.934 348.459 644.982 349.098 647.326 349.098C649.054 349.098 650.605 348.743 651.978 348.033C653.375 347.322 654.523 346.293 655.423 344.943C656.346 343.57 656.95 341.925 657.234 340.007H671.509C671.273 344.174 670.136 347.843 668.1 351.016C666.088 354.164 663.306 356.626 659.755 358.402C656.204 360.178 652.002 361.065 647.148 361.065ZM687.903 380.455C685.985 380.455 684.186 380.301 682.505 379.993C680.848 379.709 679.475 379.342 678.386 378.892L681.795 367.599C683.571 368.144 685.169 368.44 686.589 368.487C688.033 368.535 689.276 368.203 690.318 367.493C691.383 366.783 692.247 365.575 692.91 363.871L693.798 361.562L674.231 305.455H690.14L701.433 345.511H702.001L713.4 305.455H729.416L708.215 365.895C707.197 368.83 705.813 371.387 704.061 373.565C702.332 375.767 700.143 377.46 697.491 378.643C694.84 379.851 691.644 380.455 687.903 380.455ZM77.321 444V371.273H92.4489V398.616H92.9105C93.5734 397.149 94.5322 395.657 95.7869 394.142C97.0653 392.603 98.7225 391.325 100.759 390.307C102.818 389.265 105.375 388.744 108.429 388.744C112.406 388.744 116.076 389.786 119.438 391.869C122.799 393.929 125.486 397.042 127.499 401.209C129.511 405.352 130.517 410.548 130.517 416.798C130.517 422.883 129.535 428.02 127.57 432.21C125.628 436.377 122.977 439.537 119.615 441.692C116.277 443.822 112.536 444.888 108.393 444.888C105.458 444.888 102.96 444.402 100.901 443.432C98.8646 442.461 97.1955 441.242 95.8935 439.774C94.5914 438.283 93.5971 436.779 92.9105 435.264H92.2358V444H77.321ZM92.1293 416.727C92.1293 419.971 92.5791 422.8 93.4787 425.214C94.3783 427.629 95.6804 429.511 97.3849 430.861C99.0895 432.187 101.161 432.849 103.599 432.849C106.062 432.849 108.145 432.175 109.849 430.825C111.554 429.452 112.844 427.558 113.72 425.143C114.62 422.705 115.07 419.9 115.07 416.727C115.07 413.579 114.632 410.809 113.756 408.418C112.88 406.027 111.589 404.156 109.885 402.807C108.18 401.457 106.085 400.783 103.599 400.783C101.137 400.783 99.054 401.434 97.3494 402.736C95.6686 404.038 94.3783 405.884 93.4787 408.276C92.5791 410.667 92.1293 413.484 92.1293 416.727ZM153.534 445.03C150.053 445.03 146.952 444.426 144.23 443.219C141.507 441.988 139.353 440.177 137.767 437.786C136.204 435.371 135.423 432.364 135.423 428.766C135.423 425.735 135.979 423.19 137.092 421.131C138.204 419.071 139.72 417.414 141.637 416.159C143.555 414.904 145.733 413.957 148.171 413.318C150.633 412.679 153.214 412.229 155.913 411.969C159.085 411.637 161.642 411.33 163.583 411.045C165.525 410.738 166.933 410.288 167.809 409.696C168.685 409.104 169.123 408.228 169.123 407.068V406.855C169.123 404.606 168.413 402.866 166.992 401.635C165.596 400.404 163.607 399.788 161.026 399.788C158.304 399.788 156.138 400.392 154.528 401.599C152.918 402.783 151.853 404.275 151.332 406.074L137.34 404.938C138.051 401.623 139.447 398.759 141.531 396.344C143.614 393.905 146.301 392.035 149.592 390.733C152.906 389.407 156.741 388.744 161.097 388.744C164.128 388.744 167.028 389.099 169.798 389.81C172.591 390.52 175.065 391.621 177.22 393.112C179.398 394.604 181.114 396.521 182.369 398.865C183.624 401.185 184.251 403.967 184.251 407.21V444H169.904V436.436H169.478C168.602 438.141 167.43 439.644 165.963 440.946C164.495 442.224 162.731 443.231 160.671 443.964C158.612 444.675 156.232 445.03 153.534 445.03ZM157.866 434.589C160.091 434.589 162.056 434.152 163.761 433.276C165.465 432.376 166.803 431.169 167.774 429.653C168.744 428.138 169.23 426.422 169.23 424.504V418.716C168.756 419.024 168.105 419.308 167.276 419.568C166.472 419.805 165.56 420.03 164.542 420.243C163.524 420.432 162.506 420.61 161.488 420.776C160.47 420.918 159.547 421.048 158.718 421.166C156.943 421.427 155.392 421.841 154.066 422.409C152.74 422.977 151.711 423.747 150.977 424.717C150.243 425.664 149.876 426.848 149.876 428.268C149.876 430.328 150.622 431.902 152.113 432.991C153.628 434.057 155.546 434.589 157.866 434.589ZM238.739 405.009L224.89 405.861C224.653 404.677 224.144 403.612 223.363 402.665C222.582 401.694 221.552 400.925 220.273 400.357C219.019 399.765 217.515 399.469 215.763 399.469C213.42 399.469 211.443 399.966 209.833 400.96C208.223 401.931 207.418 403.233 207.418 404.866C207.418 406.169 207.939 407.269 208.981 408.169C210.022 409.069 211.81 409.791 214.343 410.335L224.215 412.324C229.518 413.413 233.472 415.165 236.076 417.58C238.68 419.994 239.982 423.167 239.982 427.097C239.982 430.671 238.929 433.808 236.822 436.507C234.738 439.206 231.874 441.313 228.228 442.828C224.606 444.32 220.427 445.065 215.692 445.065C208.472 445.065 202.719 443.562 198.434 440.555C194.173 437.525 191.675 433.406 190.941 428.197L205.82 427.416C206.27 429.618 207.359 431.299 209.087 432.459C210.816 433.595 213.029 434.163 215.728 434.163C218.379 434.163 220.51 433.654 222.12 432.636C223.754 431.595 224.582 430.257 224.606 428.624C224.582 427.25 224.002 426.126 222.866 425.25C221.729 424.35 219.977 423.664 217.61 423.19L208.164 421.308C202.837 420.243 198.872 418.396 196.268 415.768C193.687 413.141 192.397 409.791 192.397 405.719C192.397 402.215 193.344 399.196 195.238 396.663C197.156 394.13 199.843 392.177 203.299 390.804C206.779 389.431 210.851 388.744 215.515 388.744C222.404 388.744 227.826 390.2 231.779 393.112C235.756 396.024 238.076 399.99 238.739 405.009ZM271.735 445.065C266.124 445.065 261.294 443.929 257.246 441.656C253.221 439.36 250.12 436.116 247.942 431.926C245.764 427.712 244.675 422.729 244.675 416.976C244.675 411.365 245.764 406.441 247.942 402.203C250.12 397.965 253.186 394.663 257.139 392.295C261.117 389.928 265.78 388.744 271.131 388.744C274.729 388.744 278.079 389.324 281.181 390.484C284.306 391.621 287.028 393.337 289.348 395.634C291.692 397.93 293.515 400.818 294.817 404.298C296.119 407.755 296.77 411.803 296.77 416.443V420.598H250.712V411.223H282.53C282.53 409.045 282.057 407.116 281.11 405.435C280.163 403.754 278.849 402.44 277.168 401.493C275.511 400.522 273.581 400.037 271.379 400.037C269.083 400.037 267.047 400.57 265.271 401.635C263.52 402.677 262.146 404.085 261.152 405.861C260.158 407.613 259.649 409.566 259.625 411.72V420.634C259.625 423.332 260.122 425.664 261.117 427.629C262.135 429.594 263.567 431.109 265.414 432.175C267.26 433.24 269.45 433.773 271.983 433.773C273.664 433.773 275.203 433.536 276.6 433.062C277.996 432.589 279.192 431.879 280.186 430.932C281.181 429.985 281.938 428.825 282.459 427.452L296.45 428.375C295.74 431.737 294.284 434.672 292.083 437.182C289.905 439.668 287.087 441.609 283.631 443.006C280.198 444.379 276.233 445.065 271.735 445.065ZM319.138 371.273V444H304.011V371.273H319.138ZM328.625 444V389.455H343.753V444H328.625ZM336.225 382.423C333.976 382.423 332.046 381.678 330.436 380.186C328.85 378.671 328.057 376.86 328.057 374.753C328.057 372.67 328.85 370.882 330.436 369.391C332.046 367.875 333.976 367.118 336.225 367.118C338.474 367.118 340.391 367.875 341.977 369.391C343.587 370.882 344.392 372.67 344.392 374.753C344.392 376.86 343.587 378.671 341.977 380.186C340.391 381.678 338.474 382.423 336.225 382.423ZM368.368 412.466V444H353.24V389.455H367.657V399.078H368.296C369.504 395.906 371.528 393.396 374.369 391.55C377.21 389.679 380.654 388.744 384.703 388.744C388.491 388.744 391.793 389.573 394.61 391.23C397.428 392.887 399.618 395.255 401.18 398.332C402.743 401.386 403.524 405.032 403.524 409.27V444H388.396V411.969C388.42 408.631 387.567 406.027 385.839 404.156C384.111 402.262 381.732 401.315 378.701 401.315C376.665 401.315 374.866 401.753 373.304 402.629C371.765 403.505 370.557 404.784 369.681 406.464C368.829 408.122 368.391 410.122 368.368 412.466ZM437.673 445.065C432.062 445.065 427.233 443.929 423.184 441.656C419.16 439.36 416.058 436.116 413.88 431.926C411.702 427.712 410.613 422.729 410.613 416.976C410.613 411.365 411.702 406.441 413.88 402.203C416.058 397.965 419.124 394.663 423.078 392.295C427.055 389.928 431.719 388.744 437.069 388.744C440.668 388.744 444.018 389.324 447.119 390.484C450.244 391.621 452.967 393.337 455.287 395.634C457.63 397.93 459.453 400.818 460.755 404.298C462.058 407.755 462.709 411.803 462.709 416.443V420.598H416.65V411.223H448.469C448.469 409.045 447.995 407.116 447.048 405.435C446.101 403.754 444.787 402.44 443.106 401.493C441.449 400.522 439.52 400.037 437.318 400.037C435.022 400.037 432.986 400.57 431.21 401.635C429.458 402.677 428.085 404.085 427.091 405.861C426.096 407.613 425.587 409.566 425.564 411.72V420.634C425.564 423.332 426.061 425.664 427.055 427.629C428.073 429.594 429.505 431.109 431.352 432.175C433.199 433.24 435.388 433.773 437.922 433.773C439.603 433.773 441.141 433.536 442.538 433.062C443.935 432.589 445.13 431.879 446.125 430.932C447.119 429.985 447.877 428.825 448.397 427.452L462.389 428.375C461.679 431.737 460.223 434.672 458.021 437.182C455.843 439.668 453.026 441.609 449.569 443.006C446.137 444.379 442.171 445.065 437.673 445.065Z" fill="black"/>
<rect x="71" y="498" width="1038" height="19" fill="black"/>
</svg>
