<svg width="1200" height="900" viewBox="0 0 1200 900" fill="none" xmlns="http://www.w3.org/2000/svg">
<rect width="1200" height="900" fill="white"/>
<path d="M103.102 450H77.321V377.273H103.315C110.631 377.273 116.928 378.729 122.207 381.641C127.487 384.529 131.547 388.684 134.388 394.105C137.252 399.527 138.685 406.013 138.685 413.565C138.685 421.141 137.252 427.652 134.388 433.097C131.547 438.542 127.463 442.72 122.136 445.632C116.833 448.544 110.489 450 103.102 450ZM92.6974 436.825H102.463C107.009 436.825 110.832 436.02 113.933 434.411C117.058 432.777 119.402 430.256 120.964 426.847C122.551 423.414 123.344 418.987 123.344 413.565C123.344 408.191 122.551 403.8 120.964 400.391C119.402 396.982 117.07 394.472 113.969 392.862C110.867 391.252 107.044 390.447 102.499 390.447H92.6974V436.825ZM172.017 451.065C166.406 451.065 161.577 449.929 157.529 447.656C153.504 445.36 150.403 442.116 148.225 437.926C146.047 433.712 144.958 428.729 144.958 422.976C144.958 417.365 146.047 412.441 148.225 408.203C150.403 403.965 153.468 400.663 157.422 398.295C161.399 395.928 166.063 394.744 171.414 394.744C175.012 394.744 178.362 395.324 181.463 396.484C184.588 397.621 187.311 399.337 189.631 401.634C191.975 403.93 193.798 406.818 195.1 410.298C196.402 413.755 197.053 417.803 197.053 422.443V426.598H150.994V417.223H182.813C182.813 415.045 182.339 413.116 181.392 411.435C180.445 409.754 179.131 408.44 177.45 407.493C175.793 406.522 173.864 406.037 171.662 406.037C169.366 406.037 167.33 406.57 165.554 407.635C163.802 408.677 162.429 410.085 161.435 411.861C160.441 413.613 159.932 415.566 159.908 417.72V426.634C159.908 429.332 160.405 431.664 161.399 433.629C162.417 435.594 163.85 437.109 165.696 438.175C167.543 439.24 169.733 439.773 172.266 439.773C173.947 439.773 175.485 439.536 176.882 439.062C178.279 438.589 179.475 437.879 180.469 436.932C181.463 435.985 182.221 434.825 182.742 433.452L196.733 434.375C196.023 437.737 194.567 440.672 192.365 443.182C190.187 445.668 187.37 447.609 183.914 449.006C180.481 450.379 176.515 451.065 172.017 451.065ZM204.293 450V395.455H218.711V405.078H219.35C220.486 401.882 222.38 399.361 225.032 397.514C227.683 395.668 230.856 394.744 234.549 394.744C238.29 394.744 241.474 395.679 244.102 397.55C246.729 399.396 248.481 401.906 249.357 405.078H249.925C251.038 401.953 253.05 399.455 255.962 397.585C258.898 395.691 262.366 394.744 266.367 394.744C271.457 394.744 275.588 396.366 278.761 399.609C281.957 402.829 283.555 407.398 283.555 413.317V450H268.462V416.3C268.462 413.269 267.657 410.997 266.048 409.482C264.438 407.966 262.425 407.209 260.011 407.209C257.264 407.209 255.122 408.085 253.583 409.837C252.044 411.565 251.275 413.849 251.275 416.69V450H236.609V415.98C236.609 413.305 235.839 411.174 234.3 409.588C232.785 408.002 230.785 407.209 228.299 407.209C226.618 407.209 225.103 407.635 223.754 408.487C222.428 409.316 221.374 410.488 220.593 412.003C219.812 413.494 219.421 415.246 219.421 417.259V450H204.293ZM317.518 451.065C312.001 451.065 307.231 449.893 303.206 447.55C299.206 445.182 296.116 441.892 293.938 437.678C291.76 433.44 290.671 428.527 290.671 422.94C290.671 417.306 291.76 412.382 293.938 408.168C296.116 403.93 299.206 400.639 303.206 398.295C307.231 395.928 312.001 394.744 317.518 394.744C323.034 394.744 327.792 395.928 331.793 398.295C335.818 400.639 338.919 403.93 341.097 408.168C343.275 412.382 344.364 417.306 344.364 422.94C344.364 428.527 343.275 433.44 341.097 437.678C338.919 441.892 335.818 445.182 331.793 447.55C327.792 449.893 323.034 451.065 317.518 451.065ZM317.589 439.347C320.098 439.347 322.193 438.636 323.874 437.216C325.555 435.772 326.822 433.807 327.674 431.321C328.55 428.835 328.988 426.006 328.988 422.834C328.988 419.661 328.55 416.832 327.674 414.347C326.822 411.861 325.555 409.896 323.874 408.452C322.193 407.008 320.098 406.286 317.589 406.286C315.055 406.286 312.925 407.008 311.197 408.452C309.492 409.896 308.202 411.861 307.326 414.347C306.474 416.832 306.047 419.661 306.047 422.834C306.047 426.006 306.474 428.835 307.326 431.321C308.202 433.807 309.492 435.772 311.197 437.216C312.925 438.636 315.055 439.347 317.589 439.347Z" fill="black"/>
<rect x="71" y="498" width="1038" height="19" fill="black"/>
</svg>
