<svg width="1200" height="900" viewBox="0 0 1200 900" fill="none" xmlns="http://www.w3.org/2000/svg">
<rect width="1200" height="900" fill="white"/>
<path d="M77.321 444V371.273H92.6974V403.339H93.6562L119.828 371.273H138.259L111.27 403.837L138.578 444H120.183L100.261 414.099L92.6974 423.332V444H77.321ZM158.905 445.03C155.425 445.03 152.323 444.426 149.601 443.219C146.878 441.988 144.724 440.177 143.138 437.786C141.575 435.371 140.794 432.364 140.794 428.766C140.794 425.735 141.35 423.19 142.463 421.131C143.576 419.071 145.091 417.414 147.008 416.159C148.926 414.904 151.104 413.957 153.542 413.318C156.005 412.679 158.585 412.229 161.284 411.969C164.456 411.637 167.013 411.33 168.954 411.045C170.896 410.738 172.304 410.288 173.18 409.696C174.056 409.104 174.494 408.228 174.494 407.068V406.855C174.494 404.606 173.784 402.866 172.363 401.635C170.967 400.404 168.978 399.788 166.398 399.788C163.675 399.788 161.509 400.392 159.899 401.599C158.289 402.783 157.224 404.275 156.703 406.074L142.711 404.938C143.422 401.623 144.818 398.759 146.902 396.344C148.985 393.905 151.672 392.035 154.963 390.733C158.277 389.407 162.113 388.744 166.469 388.744C169.499 388.744 172.399 389.099 175.169 389.81C177.962 390.52 180.436 391.621 182.591 393.112C184.769 394.604 186.485 396.521 187.74 398.865C188.995 401.185 189.622 403.967 189.622 407.21V444H175.275V436.436H174.849C173.973 438.141 172.801 439.644 171.334 440.946C169.866 442.224 168.102 443.231 166.042 443.964C163.983 444.675 161.604 445.03 158.905 445.03ZM163.237 434.589C165.462 434.589 167.427 434.152 169.132 433.276C170.836 432.376 172.174 431.169 173.145 429.653C174.115 428.138 174.601 426.422 174.601 424.504V418.716C174.127 419.024 173.476 419.308 172.648 419.568C171.843 419.805 170.931 420.03 169.913 420.243C168.895 420.432 167.877 420.61 166.859 420.776C165.841 420.918 164.918 421.048 164.089 421.166C162.314 421.427 160.763 421.841 159.437 422.409C158.112 422.977 157.082 423.747 156.348 424.717C155.614 425.664 155.247 426.848 155.247 428.268C155.247 430.328 155.993 431.902 157.484 432.991C158.999 434.057 160.917 434.589 163.237 434.589ZM198.727 444V389.455H213.393V398.972H213.961C214.956 395.586 216.625 393.029 218.968 391.301C221.312 389.549 224.011 388.673 227.065 388.673C227.823 388.673 228.639 388.721 229.515 388.815C230.391 388.91 231.161 389.04 231.823 389.206V402.629C231.113 402.416 230.131 402.227 228.876 402.061C227.621 401.895 226.473 401.812 225.431 401.812C223.206 401.812 221.217 402.298 219.466 403.268C217.737 404.215 216.364 405.541 215.346 407.246C214.352 408.95 213.855 410.915 213.855 413.141V444H198.727ZM237.013 444V389.455H251.431V399.078H252.07C253.206 395.882 255.1 393.361 257.752 391.514C260.403 389.668 263.576 388.744 267.269 388.744C271.01 388.744 274.194 389.679 276.822 391.55C279.449 393.396 281.201 395.906 282.077 399.078H282.645C283.758 395.953 285.77 393.455 288.682 391.585C291.618 389.691 295.086 388.744 299.087 388.744C304.177 388.744 308.308 390.366 311.481 393.609C314.677 396.829 316.275 401.398 316.275 407.317V444H301.182V410.3C301.182 407.269 300.377 404.997 298.768 403.482C297.158 401.966 295.145 401.209 292.731 401.209C289.984 401.209 287.842 402.085 286.303 403.837C284.764 405.565 283.995 407.849 283.995 410.69V444H269.329V409.98C269.329 407.305 268.559 405.174 267.02 403.588C265.505 402.002 263.505 401.209 261.019 401.209C259.338 401.209 257.823 401.635 256.474 402.487C255.148 403.316 254.094 404.488 253.313 406.003C252.532 407.494 252.141 409.246 252.141 411.259V444H237.013ZM341.147 445.03C337.667 445.03 334.565 444.426 331.843 443.219C329.12 441.988 326.966 440.177 325.38 437.786C323.817 435.371 323.036 432.364 323.036 428.766C323.036 425.735 323.592 423.19 324.705 421.131C325.818 419.071 327.333 417.414 329.25 416.159C331.168 414.904 333.346 413.957 335.784 413.318C338.247 412.679 340.827 412.229 343.526 411.969C346.698 411.637 349.255 411.33 351.196 411.045C353.138 410.738 354.546 410.288 355.422 409.696C356.298 409.104 356.736 408.228 356.736 407.068V406.855C356.736 404.606 356.026 402.866 354.605 401.635C353.209 400.404 351.22 399.788 348.64 399.788C345.917 399.788 343.751 400.392 342.141 401.599C340.531 402.783 339.466 404.275 338.945 406.074L324.953 404.938C325.664 401.623 327.06 398.759 329.144 396.344C331.227 393.905 333.914 392.035 337.205 390.733C340.519 389.407 344.354 388.744 348.711 388.744C351.741 388.744 354.641 389.099 357.411 389.81C360.204 390.52 362.678 391.621 364.833 393.112C367.011 394.604 368.727 396.521 369.982 398.865C371.237 401.185 371.864 403.967 371.864 407.21V444H357.517V436.436H357.091C356.215 438.141 355.043 439.644 353.576 440.946C352.108 442.224 350.344 443.231 348.284 443.964C346.225 444.675 343.845 445.03 341.147 445.03ZM345.479 434.589C347.704 434.589 349.669 434.152 351.374 433.276C353.078 432.376 354.416 431.169 355.387 429.653C356.357 428.138 356.843 426.422 356.843 424.504V418.716C356.369 419.024 355.718 419.308 354.89 419.568C354.085 419.805 353.173 420.03 352.155 420.243C351.137 420.432 350.119 420.61 349.101 420.776C348.083 420.918 347.16 421.048 346.331 421.166C344.556 421.427 343.005 421.841 341.679 422.409C340.354 422.977 339.324 423.747 338.59 424.717C337.856 425.664 337.489 426.848 337.489 428.268C337.489 430.328 338.235 431.902 339.726 432.991C341.241 434.057 343.159 434.589 345.479 434.589ZM401.068 444.888C396.925 444.888 393.173 443.822 389.811 441.692C386.473 439.537 383.822 436.377 381.857 432.21C379.915 428.02 378.945 422.883 378.945 416.798C378.945 410.548 379.951 405.352 381.963 401.209C383.976 397.042 386.651 393.929 389.989 391.869C393.351 389.786 397.032 388.744 401.033 388.744C404.087 388.744 406.632 389.265 408.668 390.307C410.727 391.325 412.385 392.603 413.639 394.142C414.918 395.657 415.888 397.149 416.551 398.616H417.013V371.273H432.105V444H417.19V435.264H416.551C415.841 436.779 414.835 438.283 413.533 439.774C412.254 441.242 410.585 442.461 408.526 443.432C406.49 444.402 404.004 444.888 401.068 444.888ZM405.862 432.849C408.301 432.849 410.36 432.187 412.041 430.861C413.746 429.511 415.048 427.629 415.948 425.214C416.871 422.8 417.333 419.971 417.333 416.727C417.333 413.484 416.883 410.667 415.983 408.276C415.083 405.884 413.781 404.038 412.077 402.736C410.372 401.434 408.301 400.783 405.862 400.783C403.377 400.783 401.281 401.457 399.577 402.807C397.872 404.156 396.582 406.027 395.706 408.418C394.83 410.809 394.392 413.579 394.392 416.727C394.392 419.9 394.83 422.705 395.706 425.143C396.606 427.558 397.896 429.452 399.577 430.825C401.281 432.175 403.377 432.849 405.862 432.849ZM457.466 445.03C453.985 445.03 450.884 444.426 448.162 443.219C445.439 441.988 443.285 440.177 441.698 437.786C440.136 435.371 439.355 432.364 439.355 428.766C439.355 425.735 439.911 423.19 441.024 421.131C442.136 419.071 443.652 417.414 445.569 416.159C447.487 414.904 449.665 413.957 452.103 413.318C454.565 412.679 457.146 412.229 459.845 411.969C463.017 411.637 465.574 411.33 467.515 411.045C469.457 410.738 470.865 410.288 471.741 409.696C472.617 409.104 473.055 408.228 473.055 407.068V406.855C473.055 404.606 472.345 402.866 470.924 401.635C469.528 400.404 467.539 399.788 464.958 399.788C462.236 399.788 460.07 400.392 458.46 401.599C456.85 402.783 455.785 404.275 455.264 406.074L441.272 404.938C441.983 401.623 443.379 398.759 445.463 396.344C447.546 393.905 450.233 392.035 453.524 390.733C456.838 389.407 460.673 388.744 465.029 388.744C468.06 388.744 470.96 389.099 473.73 389.81C476.523 390.52 478.997 391.621 481.152 393.112C483.33 394.604 485.046 396.521 486.301 398.865C487.555 401.185 488.183 403.967 488.183 407.21V444H473.836V436.436H473.41C472.534 438.141 471.362 439.644 469.894 440.946C468.427 442.224 466.663 443.231 464.603 443.964C462.544 444.675 460.164 445.03 457.466 445.03ZM461.798 434.589C464.023 434.589 465.988 434.152 467.693 433.276C469.397 432.376 470.735 431.169 471.706 429.653C472.676 428.138 473.162 426.422 473.162 424.504V418.716C472.688 419.024 472.037 419.308 471.208 419.568C470.403 419.805 469.492 420.03 468.474 420.243C467.456 420.432 466.438 420.61 465.42 420.776C464.402 420.918 463.479 421.048 462.65 421.166C460.875 421.427 459.324 421.841 457.998 422.409C456.672 422.977 455.643 423.747 454.909 424.717C454.175 425.664 453.808 426.848 453.808 428.268C453.808 430.328 454.554 431.902 456.045 432.991C457.56 434.057 459.478 434.589 461.798 434.589Z" fill="black"/>
<rect x="71" y="498" width="1038" height="19" fill="black"/>
</svg>
