<svg width="1200" height="900" viewBox="0 0 1200 900" fill="none" xmlns="http://www.w3.org/2000/svg">
<rect width="1200" height="900" fill="white"/>
<rect x="130" y="629" width="930" height="209" rx="21" fill="#317CD4"/>
<path d="M407.538 758H418.609V743.119L424.055 736.472L438.399 758H451.644L431.982 729.082L451.413 705.636H438.144L419.3 728.724H418.609V705.636H407.538V758ZM477.803 741.278C477.829 746.545 474.224 749.307 470.312 749.307C466.196 749.307 463.536 746.418 463.511 741.79V718.727H452.619V743.733C452.644 752.912 458.014 758.511 465.914 758.511C471.821 758.511 476.065 755.469 477.829 750.866H478.238V758H488.696V718.727H477.803V741.278ZM495.718 758H506.456V751.71H506.942C508.451 754.983 511.749 758.639 518.09 758.639C527.039 758.639 534.019 751.557 534.019 738.415C534.019 724.915 526.732 718.216 518.115 718.216C511.544 718.216 508.399 722.128 506.942 725.324H506.61V705.636H495.718V758ZM506.38 738.364C506.38 731.358 509.346 726.884 514.638 726.884C520.033 726.884 522.897 731.562 522.897 738.364C522.897 745.216 519.982 749.972 514.638 749.972C509.397 749.972 506.38 745.369 506.38 738.364ZM557.29 758.767C567.005 758.767 573.551 754.037 575.085 746.75L565.011 746.085C563.912 749.077 561.099 750.636 557.469 750.636C552.023 750.636 548.571 747.031 548.571 741.176V741.151H575.315V738.159C575.315 724.812 567.236 718.216 556.855 718.216C545.298 718.216 537.807 726.423 537.807 738.543C537.807 750.994 545.196 758.767 557.29 758.767ZM548.571 734.401C548.801 729.926 552.201 726.347 557.034 726.347C561.764 726.347 565.037 729.722 565.062 734.401H548.571ZM580.528 758H591.42V735.781C591.42 730.949 594.949 727.625 599.756 727.625C601.264 727.625 603.335 727.881 604.358 728.213V718.548C603.386 718.318 602.031 718.165 600.932 718.165C596.534 718.165 592.929 720.722 591.497 725.58H591.088V718.727H580.528V758ZM618.987 735.295C619.012 730.233 622.029 727.267 626.427 727.267C630.799 727.267 633.433 730.131 633.407 734.938V758H644.299V732.994C644.299 723.841 638.93 718.216 630.748 718.216C624.918 718.216 620.7 721.08 618.935 725.656H618.475V718.727H608.095V758H618.987V735.295ZM668.887 758.767C678.603 758.767 685.148 754.037 686.682 746.75L676.608 746.085C675.509 749.077 672.696 750.636 669.066 750.636C663.62 750.636 660.168 747.031 660.168 741.176V741.151H686.912V738.159C686.912 724.812 678.833 718.216 668.452 718.216C656.895 718.216 649.404 726.423 649.404 738.543C649.404 750.994 656.793 758.767 668.887 758.767ZM660.168 734.401C660.398 729.926 663.799 726.347 668.631 726.347C673.361 726.347 676.634 729.722 676.659 734.401H660.168ZM713.015 718.727H705.625V709.318H694.733V718.727H689.364V726.909H694.733V747.364C694.682 755.06 699.924 758.869 707.824 758.537C710.637 758.435 712.631 757.872 713.731 757.514L712.017 749.409C711.481 749.511 710.33 749.767 709.307 749.767C707.134 749.767 705.625 748.949 705.625 745.932V726.909H713.015V718.727ZM735.691 758.767C745.407 758.767 751.952 754.037 753.486 746.75L743.412 746.085C742.313 749.077 739.501 750.636 735.87 750.636C730.424 750.636 726.972 747.031 726.972 741.176V741.151H753.716V738.159C753.716 724.812 745.637 718.216 735.256 718.216C723.699 718.216 716.208 726.423 716.208 738.543C716.208 750.994 723.597 758.767 735.691 758.767ZM726.972 734.401C727.202 729.926 730.603 726.347 735.435 726.347C740.165 726.347 743.438 729.722 743.464 734.401H726.972ZM791.606 729.926C790.634 722.69 784.805 718.216 774.884 718.216C764.836 718.216 758.214 722.869 758.239 730.438C758.214 736.318 761.921 740.128 769.592 741.662L776.393 743.017C779.819 743.707 781.379 744.96 781.43 746.929C781.379 749.256 778.847 750.918 775.038 750.918C771.151 750.918 768.569 749.256 767.904 746.06L757.191 746.622C758.214 754.139 764.606 758.767 775.012 758.767C785.188 758.767 792.475 753.577 792.501 745.83C792.475 740.153 788.768 736.753 781.148 735.193L774.04 733.761C770.384 732.969 769.029 731.716 769.055 729.824C769.029 727.472 771.688 725.938 775.063 725.938C778.847 725.938 781.097 728.009 781.634 730.54L791.606 729.926Z" fill="white"/>
<rect x="130" y="404" width="930" height="209" rx="21" fill="#DFDFDF"/>
<path d="M364.013 482.636H377.667L392.087 517.818H392.701L407.121 482.636H420.774V535H410.036V500.918H409.601L396.05 534.744H388.738L375.186 500.79H374.752V535H364.013V482.636ZM453.797 518.278V495.727H464.689V535H454.232V527.866H453.823C452.936 530.168 451.462 532.017 449.399 533.415C447.354 534.812 444.857 535.511 441.908 535.511C439.283 535.511 436.973 534.915 434.979 533.722C432.985 532.528 431.425 530.832 430.3 528.634C429.192 526.435 428.629 523.801 428.612 520.733V495.727H439.504V518.79C439.522 521.108 440.144 522.94 441.371 524.287C442.598 525.634 444.243 526.307 446.306 526.307C447.618 526.307 448.845 526.009 449.987 525.412C451.129 524.798 452.05 523.895 452.749 522.702C453.465 521.509 453.814 520.034 453.797 518.278ZM483.215 482.636V535H472.323V482.636H483.215ZM511.75 495.727V503.909H488.099V495.727H511.75ZM493.469 486.318H504.361V522.932C504.361 523.937 504.514 524.722 504.821 525.284C505.128 525.83 505.554 526.213 506.099 526.435C506.662 526.656 507.31 526.767 508.043 526.767C508.554 526.767 509.065 526.724 509.577 526.639C510.088 526.537 510.48 526.46 510.753 526.409L512.466 534.514C511.92 534.685 511.153 534.881 510.165 535.102C509.176 535.341 507.974 535.486 506.56 535.537C503.935 535.639 501.634 535.29 499.656 534.489C497.696 533.687 496.17 532.443 495.08 530.756C493.989 529.068 493.452 526.937 493.469 524.364V486.318ZM517.766 535V495.727H528.658V535H517.766ZM523.238 490.665C521.618 490.665 520.229 490.128 519.07 489.054C517.928 487.963 517.357 486.659 517.357 485.142C517.357 483.642 517.928 482.355 519.07 481.281C520.229 480.19 521.618 479.645 523.238 479.645C524.857 479.645 526.238 480.19 527.38 481.281C528.539 482.355 529.118 483.642 529.118 485.142C529.118 486.659 528.539 487.963 527.38 489.054C526.238 490.128 524.857 490.665 523.238 490.665ZM560.773 509.176V517.818H536.893V509.176H560.773ZM589.865 495.727V503.909H566.214V495.727H589.865ZM571.583 486.318H582.475V522.932C582.475 523.937 582.629 524.722 582.936 525.284C583.243 525.83 583.669 526.213 584.214 526.435C584.777 526.656 585.424 526.767 586.157 526.767C586.669 526.767 587.18 526.724 587.691 526.639C588.203 526.537 588.595 526.46 588.868 526.409L590.581 534.514C590.035 534.685 589.268 534.881 588.279 535.102C587.291 535.341 586.089 535.486 584.674 535.537C582.049 535.639 579.748 535.29 577.771 534.489C575.811 533.687 574.285 532.443 573.194 530.756C572.103 529.068 571.566 526.937 571.583 524.364V486.318ZM613.357 535.767C609.317 535.767 605.84 534.949 602.925 533.312C600.027 531.659 597.794 529.324 596.226 526.307C594.658 523.273 593.874 519.685 593.874 515.543C593.874 511.503 594.658 507.957 596.226 504.906C597.794 501.855 600.002 499.477 602.848 497.773C605.712 496.068 609.07 495.216 612.922 495.216C615.513 495.216 617.925 495.634 620.158 496.469C622.408 497.287 624.368 498.523 626.039 500.176C627.726 501.83 629.039 503.909 629.976 506.415C630.914 508.903 631.382 511.818 631.382 515.159V518.151H598.22V511.401H621.13C621.13 509.832 620.789 508.443 620.107 507.233C619.425 506.023 618.479 505.077 617.269 504.395C616.076 503.696 614.686 503.347 613.101 503.347C611.448 503.347 609.982 503.73 608.703 504.497C607.442 505.247 606.453 506.261 605.737 507.54C605.022 508.801 604.655 510.207 604.638 511.759V518.176C604.638 520.119 604.996 521.798 605.712 523.213C606.445 524.628 607.476 525.719 608.806 526.486C610.135 527.253 611.712 527.636 613.536 527.636C614.746 527.636 615.854 527.466 616.86 527.125C617.865 526.784 618.726 526.273 619.442 525.591C620.158 524.909 620.703 524.074 621.078 523.085L631.152 523.75C630.641 526.17 629.593 528.284 628.007 530.091C626.439 531.881 624.411 533.278 621.922 534.284C619.451 535.273 616.595 535.767 613.357 535.767ZM648.303 512.295V535H637.411V495.727H647.792V502.656H648.252C649.122 500.372 650.579 498.565 652.624 497.236C654.67 495.889 657.15 495.216 660.065 495.216C662.792 495.216 665.17 495.812 667.198 497.006C669.227 498.199 670.803 499.903 671.928 502.119C673.053 504.318 673.616 506.943 673.616 509.994V535H662.724V511.938C662.741 509.534 662.127 507.659 660.883 506.312C659.639 504.949 657.926 504.267 655.744 504.267C654.278 504.267 652.982 504.582 651.857 505.213C650.749 505.844 649.88 506.764 649.249 507.974C648.636 509.168 648.32 510.608 648.303 512.295ZM692.32 535.741C689.815 535.741 687.582 535.307 685.621 534.438C683.661 533.551 682.11 532.247 680.968 530.526C679.843 528.787 679.281 526.622 679.281 524.031C679.281 521.849 679.681 520.017 680.482 518.534C681.283 517.051 682.374 515.858 683.755 514.955C685.136 514.051 686.704 513.369 688.46 512.909C690.232 512.449 692.09 512.125 694.033 511.938C696.317 511.699 698.158 511.477 699.556 511.273C700.954 511.051 701.968 510.727 702.599 510.301C703.229 509.875 703.545 509.244 703.545 508.409V508.256C703.545 506.636 703.033 505.384 702.011 504.497C701.005 503.611 699.573 503.168 697.715 503.168C695.755 503.168 694.195 503.602 693.036 504.472C691.877 505.324 691.11 506.398 690.735 507.693L680.661 506.875C681.173 504.489 682.178 502.426 683.678 500.688C685.178 498.932 687.113 497.585 689.482 496.648C691.869 495.693 694.63 495.216 697.766 495.216C699.948 495.216 702.036 495.472 704.031 495.983C706.042 496.494 707.823 497.287 709.374 498.361C710.942 499.435 712.178 500.815 713.082 502.503C713.985 504.173 714.437 506.176 714.437 508.511V535H704.107V529.554H703.8C703.17 530.781 702.326 531.864 701.269 532.801C700.212 533.722 698.942 534.446 697.46 534.974C695.977 535.486 694.263 535.741 692.32 535.741ZM695.44 528.224C697.042 528.224 698.457 527.909 699.684 527.278C700.911 526.631 701.874 525.761 702.573 524.67C703.272 523.58 703.621 522.344 703.621 520.963V516.795C703.281 517.017 702.812 517.222 702.215 517.409C701.636 517.58 700.979 517.741 700.246 517.895C699.513 518.031 698.781 518.159 698.048 518.278C697.315 518.381 696.65 518.474 696.053 518.56C694.775 518.747 693.658 519.045 692.704 519.455C691.749 519.864 691.008 520.418 690.479 521.116C689.951 521.798 689.687 522.651 689.687 523.673C689.687 525.156 690.224 526.29 691.298 527.074C692.388 527.841 693.769 528.224 695.44 528.224ZM732.7 512.295V535H721.808V495.727H732.189V502.656H732.649C733.518 500.372 734.976 498.565 737.021 497.236C739.067 495.889 741.547 495.216 744.462 495.216C747.189 495.216 749.567 495.812 751.595 497.006C753.623 498.199 755.2 499.903 756.325 502.119C757.45 504.318 758.013 506.943 758.013 509.994V535H747.121V511.938C747.138 509.534 746.524 507.659 745.28 506.312C744.035 504.949 742.322 504.267 740.141 504.267C738.675 504.267 737.379 504.582 736.254 505.213C735.146 505.844 734.277 506.764 733.646 507.974C733.033 509.168 732.717 510.608 732.7 512.295ZM783.263 535.767C779.24 535.767 775.78 534.915 772.882 533.21C770.001 531.489 767.785 529.102 766.234 526.051C764.7 523 763.933 519.489 763.933 515.517C763.933 511.494 764.709 507.966 766.26 504.932C767.828 501.881 770.052 499.503 772.933 497.798C775.814 496.077 779.24 495.216 783.211 495.216C786.638 495.216 789.638 495.838 792.211 497.082C794.785 498.327 796.822 500.074 798.322 502.324C799.822 504.574 800.649 507.216 800.802 510.25H790.524C790.234 508.29 789.467 506.713 788.223 505.52C786.996 504.31 785.385 503.705 783.39 503.705C781.703 503.705 780.229 504.165 778.967 505.085C777.723 505.989 776.751 507.31 776.052 509.048C775.354 510.787 775.004 512.892 775.004 515.364C775.004 517.869 775.345 520 776.027 521.756C776.726 523.511 777.706 524.849 778.967 525.77C780.229 526.69 781.703 527.151 783.39 527.151C784.635 527.151 785.751 526.895 786.74 526.384C787.746 525.872 788.572 525.131 789.22 524.159C789.885 523.17 790.319 521.986 790.524 520.605H800.802C800.632 523.605 799.814 526.247 798.348 528.531C796.899 530.798 794.896 532.571 792.339 533.849C789.782 535.128 786.757 535.767 783.263 535.767ZM813.422 549.727C812.041 549.727 810.745 549.616 809.535 549.395C808.342 549.19 807.353 548.926 806.569 548.602L809.024 540.472C810.302 540.864 811.453 541.077 812.476 541.111C813.515 541.145 814.41 540.906 815.16 540.395C815.927 539.884 816.549 539.014 817.027 537.787L817.666 536.125L803.578 495.727H815.032L823.163 524.568H823.572L831.78 495.727H843.311L828.047 539.244C827.314 541.358 826.316 543.199 825.055 544.767C823.811 546.352 822.234 547.571 820.325 548.423C818.416 549.293 816.115 549.727 813.422 549.727Z" fill="black"/>
<path fill-rule="evenodd" clip-rule="evenodd" d="M130 341C130 329.402 139.402 320 151 320H1039C1050.6 320 1060 329.402 1060 341V367C1060 378.598 1050.6 388 1039 388H151C139.402 388 130 378.598 130 367V341Z" fill="#F5A623"/>
<path d="M339.577 338.455V369H333.999L320.71 349.775H320.486V369H314.028V338.455H319.696L332.88 357.665H333.149V338.455H339.577ZM354.304 369.447C351.988 369.447 349.984 368.955 348.294 367.971C346.613 366.977 345.316 365.594 344.401 363.825C343.486 362.045 343.029 359.982 343.029 357.635C343.029 355.268 343.486 353.2 344.401 351.43C345.316 349.651 346.613 348.268 348.294 347.284C349.984 346.29 351.988 345.793 354.304 345.793C356.621 345.793 358.62 346.29 360.3 347.284C361.99 348.268 363.293 349.651 364.208 351.43C365.122 353.2 365.58 355.268 365.58 357.635C365.58 359.982 365.122 362.045 364.208 363.825C363.293 365.594 361.99 366.977 360.3 367.971C358.62 368.955 356.621 369.447 354.304 369.447ZM354.334 364.526C355.388 364.526 356.268 364.227 356.974 363.631C357.68 363.024 358.212 362.199 358.57 361.155C358.938 360.111 359.122 358.923 359.122 357.59C359.122 356.258 358.938 355.07 358.57 354.026C358.212 352.982 357.68 352.156 356.974 351.55C356.268 350.943 355.388 350.64 354.334 350.64C353.27 350.64 352.375 350.943 351.649 351.55C350.934 352.156 350.392 352.982 350.024 354.026C349.666 355.07 349.487 356.258 349.487 357.59C349.487 358.923 349.666 360.111 350.024 361.155C350.392 362.199 350.934 363.024 351.649 363.631C352.375 364.227 353.27 364.526 354.334 364.526ZM377.313 369.373C375.573 369.373 373.997 368.925 372.585 368.031C371.183 367.126 370.069 365.798 369.244 364.048C368.429 362.288 368.021 360.131 368.021 357.575C368.021 354.95 368.444 352.768 369.289 351.028C370.134 349.278 371.258 347.97 372.66 347.105C374.072 346.23 375.618 345.793 377.298 345.793C378.581 345.793 379.65 346.011 380.505 346.449C381.37 346.876 382.066 347.413 382.593 348.06C383.13 348.696 383.537 349.322 383.816 349.939H384.01V338.455H390.349V369H384.084V365.331H383.816C383.518 365.967 383.095 366.599 382.548 367.225C382.011 367.842 381.31 368.354 380.445 368.761C379.59 369.169 378.546 369.373 377.313 369.373ZM379.326 364.317C380.351 364.317 381.216 364.038 381.922 363.482C382.638 362.915 383.184 362.124 383.562 361.11C383.95 360.096 384.144 358.908 384.144 357.545C384.144 356.183 383.955 355 383.577 353.996C383.199 352.991 382.652 352.216 381.937 351.669C381.221 351.122 380.351 350.849 379.326 350.849C378.282 350.849 377.402 351.132 376.687 351.699C375.971 352.266 375.429 353.051 375.061 354.055C374.693 355.06 374.509 356.223 374.509 357.545C374.509 358.878 374.693 360.056 375.061 361.08C375.439 362.094 375.981 362.89 376.687 363.467C377.402 364.033 378.282 364.317 379.326 364.317ZM405.173 369.447C402.816 369.447 400.788 368.97 399.088 368.016C397.397 367.051 396.095 365.689 395.18 363.929C394.265 362.159 393.808 360.066 393.808 357.65C393.808 355.293 394.265 353.225 395.18 351.445C396.095 349.665 397.382 348.278 399.043 347.284C400.713 346.29 402.672 345.793 404.919 345.793C406.431 345.793 407.838 346.036 409.14 346.523C410.453 347.001 411.596 347.722 412.57 348.686C413.555 349.651 414.32 350.864 414.867 352.325C415.414 353.777 415.688 355.477 415.688 357.426V359.171H396.343V355.234H409.707C409.707 354.319 409.508 353.509 409.11 352.803C408.713 352.097 408.161 351.545 407.455 351.147C406.759 350.739 405.948 350.536 405.024 350.536C404.059 350.536 403.204 350.759 402.458 351.207C401.722 351.644 401.146 352.236 400.728 352.982C400.311 353.717 400.097 354.538 400.087 355.442V359.186C400.087 360.32 400.296 361.299 400.713 362.124C401.141 362.95 401.742 363.586 402.518 364.033C403.293 364.481 404.213 364.705 405.277 364.705C405.983 364.705 406.629 364.605 407.216 364.406C407.803 364.207 408.305 363.909 408.722 363.511C409.14 363.114 409.458 362.626 409.677 362.05L415.553 362.438C415.255 363.849 414.644 365.082 413.719 366.136C412.804 367.18 411.621 367.996 410.169 368.582C408.727 369.159 407.062 369.447 405.173 369.447ZM427.875 377.591V346.091H434.139V349.939H434.422C434.701 349.322 435.103 348.696 435.63 348.06C436.167 347.413 436.863 346.876 437.718 346.449C438.583 346.011 439.657 345.793 440.94 345.793C442.61 345.793 444.152 346.23 445.564 347.105C446.976 347.97 448.104 349.278 448.949 351.028C449.794 352.768 450.217 354.95 450.217 357.575C450.217 360.131 449.804 362.288 448.979 364.048C448.164 365.798 447.05 367.126 445.638 368.031C444.236 368.925 442.665 369.373 440.925 369.373C439.692 369.373 438.643 369.169 437.778 368.761C436.923 368.354 436.222 367.842 435.675 367.225C435.128 366.599 434.711 365.967 434.422 365.331H434.228V377.591H427.875ZM434.094 357.545C434.094 358.908 434.283 360.096 434.661 361.11C435.039 362.124 435.586 362.915 436.302 363.482C437.017 364.038 437.887 364.317 438.912 364.317C439.946 364.317 440.821 364.033 441.537 363.467C442.253 362.89 442.794 362.094 443.162 361.08C443.54 360.056 443.729 358.878 443.729 357.545C443.729 356.223 443.545 355.06 443.177 354.055C442.809 353.051 442.267 352.266 441.552 351.699C440.836 351.132 439.956 350.849 438.912 350.849C437.878 350.849 437.003 351.122 436.287 351.669C435.581 352.216 435.039 352.991 434.661 353.996C434.283 355 434.094 356.183 434.094 357.545ZM463.964 369.447C461.647 369.447 459.643 368.955 457.953 367.971C456.273 366.977 454.975 365.594 454.06 363.825C453.145 362.045 452.688 359.982 452.688 357.635C452.688 355.268 453.145 353.2 454.06 351.43C454.975 349.651 456.273 348.268 457.953 347.284C459.643 346.29 461.647 345.793 463.964 345.793C466.28 345.793 468.279 346.29 469.959 347.284C471.65 348.268 472.952 349.651 473.867 351.43C474.782 353.2 475.239 355.268 475.239 357.635C475.239 359.982 474.782 362.045 473.867 363.825C472.952 365.594 471.65 366.977 469.959 367.971C468.279 368.955 466.28 369.447 463.964 369.447ZM463.993 364.526C465.047 364.526 465.927 364.227 466.633 363.631C467.339 363.024 467.871 362.199 468.229 361.155C468.597 360.111 468.781 358.923 468.781 357.59C468.781 356.258 468.597 355.07 468.229 354.026C467.871 352.982 467.339 352.156 466.633 351.55C465.927 350.943 465.047 350.64 463.993 350.64C462.93 350.64 462.035 350.943 461.309 351.55C460.593 352.156 460.051 352.982 459.683 354.026C459.325 355.07 459.146 356.258 459.146 357.59C459.146 358.923 459.325 360.111 459.683 361.155C460.051 362.199 460.593 363.024 461.309 363.631C462.035 364.227 462.93 364.526 463.993 364.526ZM488.881 369.447C486.565 369.447 484.561 368.955 482.871 367.971C481.19 366.977 479.893 365.594 478.978 363.825C478.063 362.045 477.606 359.982 477.606 357.635C477.606 355.268 478.063 353.2 478.978 351.43C479.893 349.651 481.19 348.268 482.871 347.284C484.561 346.29 486.565 345.793 488.881 345.793C491.198 345.793 493.197 346.29 494.877 347.284C496.568 348.268 497.87 349.651 498.785 351.43C499.7 353.2 500.157 355.268 500.157 357.635C500.157 359.982 499.7 362.045 498.785 363.825C497.87 365.594 496.568 366.977 494.877 367.971C493.197 368.955 491.198 369.447 488.881 369.447ZM488.911 364.526C489.965 364.526 490.845 364.227 491.551 363.631C492.257 363.024 492.789 362.199 493.147 361.155C493.515 360.111 493.699 358.923 493.699 357.59C493.699 356.258 493.515 355.07 493.147 354.026C492.789 352.982 492.257 352.156 491.551 351.55C490.845 350.943 489.965 350.64 488.911 350.64C487.847 350.64 486.952 350.943 486.227 351.55C485.511 352.156 484.969 352.982 484.601 354.026C484.243 355.07 484.064 356.258 484.064 357.59C484.064 358.923 484.243 360.111 484.601 361.155C484.969 362.199 485.511 363.024 486.227 363.631C486.952 364.227 487.847 364.526 488.911 364.526ZM509.802 338.455V369H503.448V338.455H509.802ZM533.113 352.624L527.296 352.982C527.197 352.484 526.983 352.037 526.655 351.639C526.327 351.232 525.894 350.908 525.357 350.67C524.83 350.421 524.199 350.297 523.463 350.297C522.479 350.297 521.648 350.506 520.972 350.923C520.296 351.331 519.958 351.878 519.958 352.564C519.958 353.111 520.177 353.573 520.614 353.951C521.052 354.329 521.802 354.632 522.866 354.861L527.013 355.696C529.24 356.153 530.9 356.889 531.994 357.903C533.088 358.918 533.635 360.25 533.635 361.901C533.635 363.402 533.192 364.719 532.307 365.853C531.432 366.987 530.229 367.871 528.698 368.508C527.177 369.134 525.422 369.447 523.433 369.447C520.4 369.447 517.984 368.816 516.185 367.553C514.395 366.281 513.346 364.55 513.038 362.363L519.287 362.035C519.476 362.96 519.933 363.665 520.659 364.153C521.385 364.63 522.315 364.869 523.448 364.869C524.562 364.869 525.457 364.655 526.133 364.227C526.819 363.79 527.167 363.228 527.177 362.542C527.167 361.965 526.923 361.493 526.446 361.125C525.969 360.747 525.233 360.459 524.239 360.26L520.271 359.469C518.034 359.022 516.369 358.246 515.275 357.143C514.191 356.039 513.649 354.632 513.649 352.922C513.649 351.45 514.047 350.183 514.842 349.119C515.648 348.055 516.776 347.234 518.228 346.658C519.69 346.081 521.4 345.793 523.359 345.793C526.252 345.793 528.529 346.404 530.19 347.627C531.86 348.85 532.834 350.516 533.113 352.624ZM543.701 364.824L543.537 366.464C543.408 367.777 543.159 369.085 542.792 370.387C542.434 371.7 542.056 372.888 541.658 373.952C541.27 375.016 540.957 375.851 540.718 376.457H536.602C536.751 375.871 536.955 375.05 537.213 373.996C537.472 372.952 537.716 371.779 537.944 370.477C538.173 369.174 538.317 367.847 538.377 366.494L538.451 364.824H543.701ZM572.805 347.239C572.686 346.036 572.174 345.102 571.269 344.435C570.364 343.769 569.136 343.436 567.585 343.436C566.531 343.436 565.641 343.585 564.915 343.884C564.19 344.172 563.633 344.575 563.245 345.092C562.867 345.609 562.678 346.195 562.678 346.852C562.658 347.398 562.773 347.876 563.021 348.283C563.28 348.691 563.633 349.044 564.08 349.342C564.528 349.631 565.045 349.884 565.631 350.103C566.218 350.312 566.844 350.491 567.511 350.64L570.255 351.296C571.587 351.594 572.81 351.992 573.924 352.489C575.038 352.987 576.002 353.598 576.817 354.324C577.633 355.05 578.264 355.905 578.712 356.889C579.169 357.874 579.403 359.002 579.413 360.275C579.403 362.144 578.925 363.765 577.981 365.137C577.046 366.499 575.694 367.558 573.924 368.314C572.164 369.06 570.041 369.433 567.555 369.433C565.089 369.433 562.942 369.055 561.112 368.299C559.293 367.543 557.871 366.425 556.847 364.943C555.832 363.452 555.3 361.607 555.251 359.41H561.5C561.57 360.434 561.863 361.289 562.38 361.975C562.907 362.651 563.608 363.163 564.483 363.511C565.368 363.849 566.367 364.018 567.481 364.018C568.575 364.018 569.524 363.859 570.33 363.541C571.145 363.223 571.776 362.781 572.224 362.214C572.671 361.647 572.895 360.996 572.895 360.26C572.895 359.574 572.691 358.997 572.283 358.53C571.886 358.062 571.299 357.665 570.523 357.337C569.758 357.009 568.818 356.71 567.705 356.442L564.379 355.607C561.803 354.98 559.77 354.001 558.278 352.668C556.787 351.336 556.046 349.541 556.056 347.284C556.046 345.435 556.538 343.819 557.533 342.437C558.537 341.055 559.914 339.976 561.664 339.2C563.414 338.425 565.403 338.037 567.63 338.037C569.897 338.037 571.876 338.425 573.566 339.2C575.266 339.976 576.589 341.055 577.533 342.437C578.478 343.819 578.965 345.42 578.995 347.239H572.805ZM589.33 369.433C587.868 369.433 586.566 369.179 585.422 368.672C584.279 368.155 583.374 367.394 582.708 366.39C582.051 365.376 581.723 364.113 581.723 362.602C581.723 361.329 581.957 360.26 582.424 359.395C582.892 358.53 583.528 357.834 584.333 357.307C585.139 356.78 586.054 356.382 587.078 356.114C588.112 355.845 589.196 355.656 590.329 355.547C591.662 355.408 592.735 355.278 593.551 355.159C594.366 355.03 594.958 354.841 595.326 354.592C595.694 354.344 595.877 353.976 595.877 353.489V353.399C595.877 352.455 595.579 351.724 594.983 351.207C594.396 350.69 593.561 350.431 592.477 350.431C591.333 350.431 590.424 350.685 589.748 351.192C589.071 351.689 588.624 352.315 588.405 353.071L582.529 352.594C582.827 351.202 583.414 349.999 584.289 348.984C585.164 347.96 586.292 347.175 587.674 346.628C589.066 346.071 590.677 345.793 592.507 345.793C593.779 345.793 594.998 345.942 596.161 346.24C597.334 346.538 598.373 347.001 599.278 347.627C600.193 348.254 600.914 349.059 601.441 350.043C601.968 351.018 602.231 352.186 602.231 353.548V369H596.206V365.823H596.027C595.659 366.539 595.167 367.17 594.55 367.717C593.934 368.254 593.193 368.677 592.328 368.985C591.463 369.283 590.463 369.433 589.33 369.433ZM591.15 365.048C592.084 365.048 592.909 364.864 593.625 364.496C594.341 364.118 594.903 363.611 595.311 362.974C595.718 362.338 595.922 361.617 595.922 360.812V358.381C595.723 358.51 595.45 358.629 595.102 358.739C594.764 358.838 594.381 358.933 593.953 359.022C593.526 359.102 593.098 359.176 592.671 359.246C592.243 359.305 591.855 359.36 591.507 359.41C590.762 359.519 590.11 359.693 589.554 359.932C588.997 360.17 588.564 360.494 588.256 360.901C587.948 361.299 587.794 361.796 587.794 362.393C587.794 363.258 588.107 363.919 588.733 364.376C589.37 364.824 590.175 365.048 591.15 365.048ZM612.674 355.756V369H606.321V346.091H612.376V350.133H612.644C613.151 348.8 614.002 347.746 615.195 346.971C616.388 346.185 617.835 345.793 619.535 345.793C621.126 345.793 622.513 346.141 623.696 346.837C624.879 347.533 625.799 348.527 626.455 349.82C627.112 351.102 627.44 352.634 627.44 354.413V369H621.086V355.547C621.096 354.145 620.738 353.051 620.012 352.266C619.286 351.47 618.287 351.072 617.014 351.072C616.159 351.072 615.404 351.256 614.747 351.624C614.101 351.992 613.594 352.529 613.226 353.235C612.868 353.931 612.684 354.771 612.674 355.756ZM640.049 369.373C638.309 369.373 636.733 368.925 635.321 368.031C633.919 367.126 632.806 365.798 631.98 364.048C631.165 362.288 630.757 360.131 630.757 357.575C630.757 354.95 631.18 352.768 632.025 351.028C632.87 349.278 633.994 347.97 635.396 347.105C636.808 346.23 638.354 345.793 640.034 345.793C641.317 345.793 642.386 346.011 643.241 346.449C644.106 346.876 644.802 347.413 645.329 348.06C645.866 348.696 646.274 349.322 646.552 349.939H646.746V338.455H653.085V369H646.821V365.331H646.552C646.254 365.967 645.831 366.599 645.284 367.225C644.747 367.842 644.046 368.354 643.181 368.761C642.326 369.169 641.282 369.373 640.049 369.373ZM642.063 364.317C643.087 364.317 643.952 364.038 644.658 363.482C645.374 362.915 645.921 362.124 646.299 361.11C646.686 360.096 646.88 358.908 646.88 357.545C646.88 356.183 646.691 355 646.313 353.996C645.936 352.991 645.389 352.216 644.673 351.669C643.957 351.122 643.087 350.849 642.063 350.849C641.019 350.849 640.139 351.132 639.423 351.699C638.707 352.266 638.165 353.051 637.797 354.055C637.429 355.06 637.245 356.223 637.245 357.545C637.245 358.878 637.429 360.056 637.797 361.08C638.175 362.094 638.717 362.89 639.423 363.467C640.139 364.033 641.019 364.317 642.063 364.317ZM657.588 369V338.455H663.942V349.939H664.136C664.414 349.322 664.817 348.696 665.344 348.06C665.881 347.413 666.577 346.876 667.432 346.449C668.297 346.011 669.371 345.793 670.653 345.793C672.324 345.793 673.865 346.23 675.277 347.105C676.689 347.97 677.817 349.278 678.663 351.028C679.508 352.768 679.93 354.95 679.93 357.575C679.93 360.131 679.518 362.288 678.692 364.048C677.877 365.798 676.763 367.126 675.351 368.031C673.949 368.925 672.378 369.373 670.638 369.373C669.405 369.373 668.356 369.169 667.491 368.761C666.636 368.354 665.935 367.842 665.388 367.225C664.842 366.599 664.424 365.967 664.136 365.331H663.852V369H657.588ZM663.807 357.545C663.807 358.908 663.996 360.096 664.374 361.11C664.752 362.124 665.299 362.915 666.015 363.482C666.731 364.038 667.601 364.317 668.625 364.317C669.659 364.317 670.534 364.033 671.25 363.467C671.966 362.89 672.508 362.094 672.876 361.08C673.253 360.056 673.442 358.878 673.442 357.545C673.442 356.223 673.258 355.06 672.891 354.055C672.523 353.051 671.981 352.266 671.265 351.699C670.549 351.132 669.669 350.849 668.625 350.849C667.591 350.849 666.716 351.122 666 351.669C665.294 352.216 664.752 352.991 664.374 353.996C663.996 355 663.807 356.183 663.807 357.545ZM693.681 369.447C691.364 369.447 689.36 368.955 687.67 367.971C685.99 366.977 684.692 365.594 683.777 363.825C682.862 362.045 682.405 359.982 682.405 357.635C682.405 355.268 682.862 353.2 683.777 351.43C684.692 349.651 685.99 348.268 687.67 347.284C689.36 346.29 691.364 345.793 693.681 345.793C695.997 345.793 697.996 346.29 699.676 347.284C701.367 348.268 702.669 349.651 703.584 351.43C704.499 353.2 704.956 355.268 704.956 357.635C704.956 359.982 704.499 362.045 703.584 363.825C702.669 365.594 701.367 366.977 699.676 367.971C697.996 368.955 695.997 369.447 693.681 369.447ZM693.711 364.526C694.764 364.526 695.644 364.227 696.35 363.631C697.056 363.024 697.588 362.199 697.946 361.155C698.314 360.111 698.498 358.923 698.498 357.59C698.498 356.258 698.314 355.07 697.946 354.026C697.588 352.982 697.056 352.156 696.35 351.55C695.644 350.943 694.764 350.64 693.711 350.64C692.647 350.64 691.752 350.943 691.026 351.55C690.31 352.156 689.768 352.982 689.4 354.026C689.042 355.07 688.863 356.258 688.863 357.59C688.863 358.923 689.042 360.111 689.4 361.155C689.768 362.199 690.31 363.024 691.026 363.631C691.752 364.227 692.647 364.526 693.711 364.526ZM712.737 346.091L716.943 354.1L721.253 346.091H727.771L721.134 357.545L727.95 369H721.462L716.943 361.08L712.498 369H705.936L712.737 357.545L706.174 346.091H712.737ZM739.585 369V346.091H745.745V350.088H745.984C746.401 348.666 747.102 347.592 748.087 346.866C749.071 346.131 750.205 345.763 751.487 345.763C751.805 345.763 752.148 345.783 752.516 345.822C752.884 345.862 753.207 345.917 753.486 345.987V351.624C753.187 351.535 752.775 351.455 752.248 351.386C751.721 351.316 751.239 351.281 750.801 351.281C749.866 351.281 749.031 351.485 748.295 351.893C747.57 352.29 746.993 352.847 746.565 353.563C746.148 354.279 745.939 355.104 745.939 356.039V369H739.585ZM770.622 359.246V346.091H776.975V369H770.875V364.839H770.637C770.12 366.181 769.26 367.26 768.056 368.075C766.863 368.891 765.407 369.298 763.686 369.298C762.155 369.298 760.808 368.95 759.645 368.254C758.481 367.558 757.571 366.569 756.915 365.286C756.269 364.004 755.941 362.467 755.931 360.678V346.091H762.284V359.544C762.294 360.896 762.657 361.965 763.373 362.751C764.089 363.536 765.049 363.929 766.252 363.929C767.017 363.929 767.733 363.755 768.399 363.407C769.066 363.049 769.603 362.522 770.01 361.826C770.428 361.13 770.632 360.27 770.622 359.246ZM787.571 355.756V369H781.218V346.091H787.273V350.133H787.542C788.049 348.8 788.899 347.746 790.092 346.971C791.285 346.185 792.732 345.793 794.432 345.793C796.023 345.793 797.41 346.141 798.593 346.837C799.777 347.533 800.696 348.527 801.353 349.82C802.009 351.102 802.337 352.634 802.337 354.413V369H795.983V355.547C795.993 354.145 795.635 353.051 794.909 352.266C794.184 351.47 793.184 351.072 791.912 351.072C791.056 351.072 790.301 351.256 789.645 351.624C788.998 351.992 788.491 352.529 788.123 353.235C787.765 353.931 787.581 354.771 787.571 355.756ZM818.69 346.091V350.864H804.894V346.091H818.69ZM808.026 340.602H814.38V361.96C814.38 362.547 814.469 363.004 814.648 363.332C814.827 363.651 815.076 363.874 815.394 364.004C815.722 364.133 816.1 364.197 816.527 364.197C816.826 364.197 817.124 364.173 817.422 364.123C817.721 364.063 817.949 364.018 818.108 363.989L819.108 368.717C818.789 368.816 818.342 368.93 817.765 369.06C817.189 369.199 816.488 369.283 815.662 369.313C814.131 369.373 812.789 369.169 811.635 368.702C810.492 368.234 809.602 367.509 808.966 366.524C808.329 365.54 808.016 364.297 808.026 362.795V340.602ZM821.989 369V346.091H828.343V369H821.989ZM825.181 343.138C824.236 343.138 823.426 342.825 822.75 342.198C822.083 341.562 821.75 340.801 821.75 339.916C821.75 339.041 822.083 338.29 822.75 337.664C823.426 337.028 824.236 336.71 825.181 336.71C826.125 336.71 826.931 337.028 827.597 337.664C828.273 338.29 828.611 339.041 828.611 339.916C828.611 340.801 828.273 341.562 827.597 342.198C826.931 342.825 826.125 343.138 825.181 343.138ZM832.592 369V346.091H838.648V350.133H838.916C839.393 348.79 840.189 347.732 841.303 346.956C842.416 346.18 843.749 345.793 845.3 345.793C846.871 345.793 848.208 346.185 849.312 346.971C850.415 347.746 851.151 348.8 851.519 350.133H851.758C852.225 348.82 853.07 347.771 854.293 346.986C855.526 346.19 856.983 345.793 858.663 345.793C860.801 345.793 862.536 346.474 863.869 347.836C865.211 349.188 865.882 351.107 865.882 353.593V369H859.543V354.846C859.543 353.573 859.205 352.619 858.529 351.982C857.853 351.346 857.008 351.028 855.994 351.028C854.84 351.028 853.94 351.396 853.294 352.131C852.648 352.857 852.325 353.817 852.325 355.01V369H846.165V354.712C846.165 353.588 845.842 352.693 845.195 352.027C844.559 351.361 843.719 351.028 842.675 351.028C841.969 351.028 841.332 351.207 840.766 351.565C840.209 351.913 839.766 352.405 839.438 353.041C839.11 353.668 838.946 354.403 838.946 355.249V369H832.592ZM880.501 369.447C878.145 369.447 876.116 368.97 874.416 368.016C872.726 367.051 871.423 365.689 870.508 363.929C869.593 362.159 869.136 360.066 869.136 357.65C869.136 355.293 869.593 353.225 870.508 351.445C871.423 349.665 872.711 348.278 874.371 347.284C876.042 346.29 878 345.793 880.248 345.793C881.759 345.793 883.166 346.036 884.468 346.523C885.781 347.001 886.924 347.722 887.899 348.686C888.883 349.651 889.649 350.864 890.196 352.325C890.743 353.777 891.016 355.477 891.016 357.426V359.171H871.672V355.234H885.035C885.035 354.319 884.836 353.509 884.439 352.803C884.041 352.097 883.489 351.545 882.783 351.147C882.087 350.739 881.277 350.536 880.352 350.536C879.387 350.536 878.532 350.759 877.787 351.207C877.051 351.644 876.474 352.236 876.057 352.982C875.639 353.717 875.425 354.538 875.415 355.442V359.186C875.415 360.32 875.624 361.299 876.042 362.124C876.469 362.95 877.071 363.586 877.846 364.033C878.622 364.481 879.542 364.705 880.606 364.705C881.311 364.705 881.958 364.605 882.544 364.406C883.131 364.207 883.633 363.909 884.051 363.511C884.468 363.114 884.787 362.626 885.005 362.05L890.882 362.438C890.584 363.849 889.972 365.082 889.047 366.136C888.133 367.18 886.949 367.996 885.498 368.582C884.056 369.159 882.39 369.447 880.501 369.447Z" fill="black"/>
</svg>
