<svg width="1200" height="900" viewBox="0 0 1200 900" fill="none" xmlns="http://www.w3.org/2000/svg">
<rect width="1200" height="900" fill="white"/>
<rect x="130" y="629" width="930" height="209" rx="21" fill="#317CD4"/>
<path d="M407.538 758H418.609V743.119L424.055 736.472L438.399 758H451.644L431.982 729.082L451.413 705.636H438.144L419.3 728.724H418.609V705.636H407.538V758ZM477.803 741.278C477.829 746.545 474.224 749.307 470.312 749.307C466.196 749.307 463.536 746.418 463.511 741.79V718.727H452.619V743.733C452.644 752.912 458.014 758.511 465.914 758.511C471.821 758.511 476.065 755.469 477.829 750.866H478.238V758H488.696V718.727H477.803V741.278ZM495.718 758H506.456V751.71H506.942C508.451 754.983 511.749 758.639 518.09 758.639C527.039 758.639 534.019 751.557 534.019 738.415C534.019 724.915 526.732 718.216 518.115 718.216C511.544 718.216 508.399 722.128 506.942 725.324H506.61V705.636H495.718V758ZM506.38 738.364C506.38 731.358 509.346 726.884 514.638 726.884C520.033 726.884 522.897 731.562 522.897 738.364C522.897 745.216 519.982 749.972 514.638 749.972C509.397 749.972 506.38 745.369 506.38 738.364ZM557.29 758.767C567.005 758.767 573.551 754.037 575.085 746.75L565.011 746.085C563.912 749.077 561.099 750.636 557.469 750.636C552.023 750.636 548.571 747.031 548.571 741.176V741.151H575.315V738.159C575.315 724.812 567.236 718.216 556.855 718.216C545.298 718.216 537.807 726.423 537.807 738.543C537.807 750.994 545.196 758.767 557.29 758.767ZM548.571 734.401C548.801 729.926 552.201 726.347 557.034 726.347C561.764 726.347 565.037 729.722 565.062 734.401H548.571ZM580.528 758H591.42V735.781C591.42 730.949 594.949 727.625 599.756 727.625C601.264 727.625 603.335 727.881 604.358 728.213V718.548C603.386 718.318 602.031 718.165 600.932 718.165C596.534 718.165 592.929 720.722 591.497 725.58H591.088V718.727H580.528V758ZM618.987 735.295C619.012 730.233 622.029 727.267 626.427 727.267C630.799 727.267 633.433 730.131 633.407 734.938V758H644.299V732.994C644.299 723.841 638.93 718.216 630.748 718.216C624.918 718.216 620.7 721.08 618.935 725.656H618.475V718.727H608.095V758H618.987V735.295ZM668.887 758.767C678.603 758.767 685.148 754.037 686.682 746.75L676.608 746.085C675.509 749.077 672.696 750.636 669.066 750.636C663.62 750.636 660.168 747.031 660.168 741.176V741.151H686.912V738.159C686.912 724.812 678.833 718.216 668.452 718.216C656.895 718.216 649.404 726.423 649.404 738.543C649.404 750.994 656.793 758.767 668.887 758.767ZM660.168 734.401C660.398 729.926 663.799 726.347 668.631 726.347C673.361 726.347 676.634 729.722 676.659 734.401H660.168ZM713.015 718.727H705.625V709.318H694.733V718.727H689.364V726.909H694.733V747.364C694.682 755.06 699.924 758.869 707.824 758.537C710.637 758.435 712.631 757.872 713.731 757.514L712.017 749.409C711.481 749.511 710.33 749.767 709.307 749.767C707.134 749.767 705.625 748.949 705.625 745.932V726.909H713.015V718.727ZM735.691 758.767C745.407 758.767 751.952 754.037 753.486 746.75L743.412 746.085C742.313 749.077 739.501 750.636 735.87 750.636C730.424 750.636 726.972 747.031 726.972 741.176V741.151H753.716V738.159C753.716 724.812 745.637 718.216 735.256 718.216C723.699 718.216 716.208 726.423 716.208 738.543C716.208 750.994 723.597 758.767 735.691 758.767ZM726.972 734.401C727.202 729.926 730.603 726.347 735.435 726.347C740.165 726.347 743.438 729.722 743.464 734.401H726.972ZM791.606 729.926C790.634 722.69 784.805 718.216 774.884 718.216C764.836 718.216 758.214 722.869 758.239 730.438C758.214 736.318 761.921 740.128 769.592 741.662L776.393 743.017C779.819 743.707 781.379 744.96 781.43 746.929C781.379 749.256 778.847 750.918 775.038 750.918C771.151 750.918 768.569 749.256 767.904 746.06L757.191 746.622C758.214 754.139 764.606 758.767 775.012 758.767C785.188 758.767 792.475 753.577 792.501 745.83C792.475 740.153 788.768 736.753 781.148 735.193L774.04 733.761C770.384 732.969 769.029 731.716 769.055 729.824C769.029 727.472 771.688 725.938 775.063 725.938C778.847 725.938 781.097 728.009 781.634 730.54L791.606 729.926Z" fill="white"/>
<rect x="130" y="404" width="930" height="209" rx="21" fill="#DFDFDF"/>
<path d="M364.013 482.636H377.667L392.087 517.818H392.701L407.121 482.636H420.774V535H410.036V500.918H409.601L396.05 534.744H388.738L375.186 500.79H374.752V535H364.013V482.636ZM453.797 518.278V495.727H464.689V535H454.232V527.866H453.823C452.936 530.168 451.462 532.017 449.399 533.415C447.354 534.812 444.857 535.511 441.908 535.511C439.283 535.511 436.973 534.915 434.979 533.722C432.985 532.528 431.425 530.832 430.3 528.634C429.192 526.435 428.629 523.801 428.612 520.733V495.727H439.504V518.79C439.522 521.108 440.144 522.94 441.371 524.287C442.598 525.634 444.243 526.307 446.306 526.307C447.618 526.307 448.845 526.009 449.987 525.412C451.129 524.798 452.05 523.895 452.749 522.702C453.465 521.509 453.814 520.034 453.797 518.278ZM483.215 482.636V535H472.323V482.636H483.215ZM511.75 495.727V503.909H488.099V495.727H511.75ZM493.469 486.318H504.361V522.932C504.361 523.937 504.514 524.722 504.821 525.284C505.128 525.83 505.554 526.213 506.099 526.435C506.662 526.656 507.31 526.767 508.043 526.767C508.554 526.767 509.065 526.724 509.577 526.639C510.088 526.537 510.48 526.46 510.753 526.409L512.466 534.514C511.92 534.685 511.153 534.881 510.165 535.102C509.176 535.341 507.974 535.486 506.56 535.537C503.935 535.639 501.634 535.29 499.656 534.489C497.696 533.687 496.17 532.443 495.08 530.756C493.989 529.068 493.452 526.937 493.469 524.364V486.318ZM517.766 535V495.727H528.658V535H517.766ZM523.238 490.665C521.618 490.665 520.229 490.128 519.07 489.054C517.928 487.963 517.357 486.659 517.357 485.142C517.357 483.642 517.928 482.355 519.07 481.281C520.229 480.19 521.618 479.645 523.238 479.645C524.857 479.645 526.238 480.19 527.38 481.281C528.539 482.355 529.118 483.642 529.118 485.142C529.118 486.659 528.539 487.963 527.38 489.054C526.238 490.128 524.857 490.665 523.238 490.665ZM560.773 509.176V517.818H536.893V509.176H560.773ZM589.865 495.727V503.909H566.214V495.727H589.865ZM571.583 486.318H582.475V522.932C582.475 523.937 582.629 524.722 582.936 525.284C583.243 525.83 583.669 526.213 584.214 526.435C584.777 526.656 585.424 526.767 586.157 526.767C586.669 526.767 587.18 526.724 587.691 526.639C588.203 526.537 588.595 526.46 588.868 526.409L590.581 534.514C590.035 534.685 589.268 534.881 588.279 535.102C587.291 535.341 586.089 535.486 584.674 535.537C582.049 535.639 579.748 535.29 577.771 534.489C575.811 533.687 574.285 532.443 573.194 530.756C572.103 529.068 571.566 526.937 571.583 524.364V486.318ZM613.357 535.767C609.317 535.767 605.84 534.949 602.925 533.312C600.027 531.659 597.794 529.324 596.226 526.307C594.658 523.273 593.874 519.685 593.874 515.543C593.874 511.503 594.658 507.957 596.226 504.906C597.794 501.855 600.002 499.477 602.848 497.773C605.712 496.068 609.07 495.216 612.922 495.216C615.513 495.216 617.925 495.634 620.158 496.469C622.408 497.287 624.368 498.523 626.039 500.176C627.726 501.83 629.039 503.909 629.976 506.415C630.914 508.903 631.382 511.818 631.382 515.159V518.151H598.22V511.401H621.13C621.13 509.832 620.789 508.443 620.107 507.233C619.425 506.023 618.479 505.077 617.269 504.395C616.076 503.696 614.686 503.347 613.101 503.347C611.448 503.347 609.982 503.73 608.703 504.497C607.442 505.247 606.453 506.261 605.737 507.54C605.022 508.801 604.655 510.207 604.638 511.759V518.176C604.638 520.119 604.996 521.798 605.712 523.213C606.445 524.628 607.476 525.719 608.806 526.486C610.135 527.253 611.712 527.636 613.536 527.636C614.746 527.636 615.854 527.466 616.86 527.125C617.865 526.784 618.726 526.273 619.442 525.591C620.158 524.909 620.703 524.074 621.078 523.085L631.152 523.75C630.641 526.17 629.593 528.284 628.007 530.091C626.439 531.881 624.411 533.278 621.922 534.284C619.451 535.273 616.595 535.767 613.357 535.767ZM648.303 512.295V535H637.411V495.727H647.792V502.656H648.252C649.122 500.372 650.579 498.565 652.624 497.236C654.67 495.889 657.15 495.216 660.065 495.216C662.792 495.216 665.17 495.812 667.198 497.006C669.227 498.199 670.803 499.903 671.928 502.119C673.053 504.318 673.616 506.943 673.616 509.994V535H662.724V511.938C662.741 509.534 662.127 507.659 660.883 506.312C659.639 504.949 657.926 504.267 655.744 504.267C654.278 504.267 652.982 504.582 651.857 505.213C650.749 505.844 649.88 506.764 649.249 507.974C648.636 509.168 648.32 510.608 648.303 512.295ZM692.32 535.741C689.815 535.741 687.582 535.307 685.621 534.438C683.661 533.551 682.11 532.247 680.968 530.526C679.843 528.787 679.281 526.622 679.281 524.031C679.281 521.849 679.681 520.017 680.482 518.534C681.283 517.051 682.374 515.858 683.755 514.955C685.136 514.051 686.704 513.369 688.46 512.909C690.232 512.449 692.09 512.125 694.033 511.938C696.317 511.699 698.158 511.477 699.556 511.273C700.954 511.051 701.968 510.727 702.599 510.301C703.229 509.875 703.545 509.244 703.545 508.409V508.256C703.545 506.636 703.033 505.384 702.011 504.497C701.005 503.611 699.573 503.168 697.715 503.168C695.755 503.168 694.195 503.602 693.036 504.472C691.877 505.324 691.11 506.398 690.735 507.693L680.661 506.875C681.173 504.489 682.178 502.426 683.678 500.688C685.178 498.932 687.113 497.585 689.482 496.648C691.869 495.693 694.63 495.216 697.766 495.216C699.948 495.216 702.036 495.472 704.031 495.983C706.042 496.494 707.823 497.287 709.374 498.361C710.942 499.435 712.178 500.815 713.082 502.503C713.985 504.173 714.437 506.176 714.437 508.511V535H704.107V529.554H703.8C703.17 530.781 702.326 531.864 701.269 532.801C700.212 533.722 698.942 534.446 697.46 534.974C695.977 535.486 694.263 535.741 692.32 535.741ZM695.44 528.224C697.042 528.224 698.457 527.909 699.684 527.278C700.911 526.631 701.874 525.761 702.573 524.67C703.272 523.58 703.621 522.344 703.621 520.963V516.795C703.281 517.017 702.812 517.222 702.215 517.409C701.636 517.58 700.979 517.741 700.246 517.895C699.513 518.031 698.781 518.159 698.048 518.278C697.315 518.381 696.65 518.474 696.053 518.56C694.775 518.747 693.658 519.045 692.704 519.455C691.749 519.864 691.008 520.418 690.479 521.116C689.951 521.798 689.687 522.651 689.687 523.673C689.687 525.156 690.224 526.29 691.298 527.074C692.388 527.841 693.769 528.224 695.44 528.224ZM732.7 512.295V535H721.808V495.727H732.189V502.656H732.649C733.518 500.372 734.976 498.565 737.021 497.236C739.067 495.889 741.547 495.216 744.462 495.216C747.189 495.216 749.567 495.812 751.595 497.006C753.623 498.199 755.2 499.903 756.325 502.119C757.45 504.318 758.013 506.943 758.013 509.994V535H747.121V511.938C747.138 509.534 746.524 507.659 745.28 506.312C744.035 504.949 742.322 504.267 740.141 504.267C738.675 504.267 737.379 504.582 736.254 505.213C735.146 505.844 734.277 506.764 733.646 507.974C733.033 509.168 732.717 510.608 732.7 512.295ZM783.263 535.767C779.24 535.767 775.78 534.915 772.882 533.21C770.001 531.489 767.785 529.102 766.234 526.051C764.7 523 763.933 519.489 763.933 515.517C763.933 511.494 764.709 507.966 766.26 504.932C767.828 501.881 770.052 499.503 772.933 497.798C775.814 496.077 779.24 495.216 783.211 495.216C786.638 495.216 789.638 495.838 792.211 497.082C794.785 498.327 796.822 500.074 798.322 502.324C799.822 504.574 800.649 507.216 800.802 510.25H790.524C790.234 508.29 789.467 506.713 788.223 505.52C786.996 504.31 785.385 503.705 783.39 503.705C781.703 503.705 780.229 504.165 778.967 505.085C777.723 505.989 776.751 507.31 776.052 509.048C775.354 510.787 775.004 512.892 775.004 515.364C775.004 517.869 775.345 520 776.027 521.756C776.726 523.511 777.706 524.849 778.967 525.77C780.229 526.69 781.703 527.151 783.39 527.151C784.635 527.151 785.751 526.895 786.74 526.384C787.746 525.872 788.572 525.131 789.22 524.159C789.885 523.17 790.319 521.986 790.524 520.605H800.802C800.632 523.605 799.814 526.247 798.348 528.531C796.899 530.798 794.896 532.571 792.339 533.849C789.782 535.128 786.757 535.767 783.263 535.767ZM813.422 549.727C812.041 549.727 810.745 549.616 809.535 549.395C808.342 549.19 807.353 548.926 806.569 548.602L809.024 540.472C810.302 540.864 811.453 541.077 812.476 541.111C813.515 541.145 814.41 540.906 815.16 540.395C815.927 539.884 816.549 539.014 817.027 537.787L817.666 536.125L803.578 495.727H815.032L823.163 524.568H823.572L831.78 495.727H843.311L828.047 539.244C827.314 541.358 826.316 543.199 825.055 544.767C823.811 546.352 822.234 547.571 820.325 548.423C818.416 549.293 816.115 549.727 813.422 549.727Z" fill="black"/>
</svg>
