<svg width="1200" height="900" viewBox="0 0 1200 900" fill="none" xmlns="http://www.w3.org/2000/svg">
<rect width="1200" height="900" fill="white"/>
<path d="M221.703 478.488C221.28 465.184 222.899 453.92 226.56 444.699C230.22 435.477 235.535 428.473 242.504 423.686C249.544 418.899 257.815 416.505 267.319 416.505C273.936 416.505 280.271 417.878 286.325 420.623C292.379 423.369 299.243 428.121 306.916 434.879C310.999 438.469 314.448 441.214 317.264 443.115C320.08 444.945 323.318 445.86 326.979 445.86C331.977 445.86 336.095 443.924 339.333 440.053C342.571 436.11 344.085 429.88 343.874 421.363H378.297C378.79 434.738 377.171 446.036 373.44 455.258C369.709 464.48 364.324 471.484 357.284 476.271C350.244 481.058 342.043 483.451 332.681 483.451C325.712 483.451 319.165 482.008 313.04 479.122C306.986 476.165 300.264 471.449 292.872 464.973C288.508 461.101 285.023 458.32 282.419 456.631C279.814 454.871 276.716 453.991 273.126 453.991C268.128 453.991 264.01 455.892 260.772 459.693C257.534 463.424 256.02 469.689 256.231 478.488H221.703ZM485.335 585.032V314.714H502.652V585.032H485.335ZM531.268 403.94C530.423 395.422 526.797 388.805 520.391 384.088C513.985 379.372 505.292 377.014 494.31 377.014C486.848 377.014 480.548 378.069 475.409 380.181C470.27 382.223 466.328 385.074 463.582 388.734C460.907 392.395 459.57 396.548 459.57 401.194C459.429 405.066 460.239 408.445 461.998 411.331C463.829 414.217 466.328 416.717 469.496 418.828C472.663 420.87 476.324 422.665 480.477 424.214C484.631 425.692 489.065 426.959 493.782 428.015L513.211 432.661C522.644 434.773 531.303 437.589 539.187 441.108C547.071 444.628 553.9 448.958 559.672 454.096C565.444 459.235 569.915 465.289 573.082 472.258C576.321 479.228 577.975 487.217 578.045 496.228C577.975 509.462 574.596 520.937 567.908 530.651C561.291 540.296 551.717 547.793 539.187 553.143C526.727 558.422 511.698 561.062 494.099 561.062C476.641 561.062 461.435 558.387 448.483 553.037C435.6 547.687 425.534 539.768 418.283 529.279C411.103 518.719 407.336 505.661 406.985 490.104H451.228C451.721 497.354 453.797 503.408 457.458 508.266C461.189 513.053 466.152 516.678 472.347 519.142C478.612 521.535 485.687 522.732 493.571 522.732C501.314 522.732 508.037 521.606 513.739 519.353C519.511 517.1 523.982 513.968 527.149 509.955C530.317 505.943 531.901 501.332 531.901 496.122C531.901 491.265 530.458 487.182 527.572 483.874C524.756 480.565 520.603 477.749 515.112 475.426C509.691 473.103 503.039 470.991 495.155 469.091L471.607 463.177C453.375 458.743 438.979 451.809 428.42 442.376C417.861 432.943 412.616 420.236 412.687 404.257C412.616 391.163 416.101 379.724 423.14 369.939C430.25 360.154 440 352.516 452.39 347.025C464.779 341.534 478.858 338.789 494.627 338.789C510.677 338.789 524.686 341.534 536.653 347.025C548.69 352.516 558.053 360.154 564.741 369.939C571.428 379.724 574.877 391.057 575.089 403.94H531.268ZM686.376 562.752C668.214 562.681 652.587 558.211 639.493 549.341C626.47 540.472 616.439 527.624 609.399 510.8C602.43 493.975 598.98 473.737 599.051 450.084C599.051 426.501 602.535 406.404 609.505 389.79C616.544 373.177 626.575 360.541 639.599 351.882C652.692 343.153 668.285 338.789 686.376 338.789C704.468 338.789 720.025 343.153 733.048 351.882C746.142 360.611 756.209 373.283 763.248 389.896C770.288 406.439 773.772 426.501 773.702 450.084C773.702 473.807 770.182 494.081 763.142 510.906C756.173 527.73 746.177 540.577 733.154 549.447C720.131 558.317 704.538 562.752 686.376 562.752ZM686.376 524.844C698.766 524.844 708.656 518.614 716.048 506.154C723.439 493.694 727.1 475.004 727.03 450.084C727.03 433.682 725.34 420.025 721.961 409.114C718.653 398.203 713.936 390.001 707.812 384.511C701.758 379.02 694.613 376.274 686.376 376.274C674.057 376.274 664.202 382.434 656.81 394.753C649.419 407.072 645.688 425.516 645.617 450.084C645.617 466.697 647.272 480.565 650.58 491.688C653.959 502.74 658.711 511.046 664.835 516.608C670.96 522.098 678.14 524.844 686.376 524.844Z" fill="black"/>
<path d="M391.482 51.6137H385.431C385.321 50.8309 385.095 50.1356 384.754 49.5278C384.414 48.9107 383.976 48.3858 383.442 47.953C382.908 47.5201 382.291 47.1886 381.591 46.9584C380.9 46.7281 380.15 46.613 379.339 46.613C377.875 46.613 376.6 46.9768 375.513 47.7043C374.426 48.4227 373.584 49.4725 372.985 50.8539C372.386 52.2261 372.087 53.893 372.087 55.8545C372.087 57.8714 372.386 59.5659 372.985 60.9381C373.593 62.3103 374.44 63.3463 375.527 64.0462C376.613 64.7461 377.87 65.0961 379.298 65.0961C380.099 65.0961 380.84 64.9902 381.522 64.7783C382.213 64.5665 382.825 64.258 383.359 63.8528C383.893 63.4384 384.335 62.9365 384.685 62.3471C385.045 61.7577 385.293 61.0854 385.431 60.3303L391.482 60.3579C391.325 61.6564 390.934 62.9089 390.308 64.1153C389.691 65.3125 388.857 66.3854 387.807 67.3339C386.767 68.2733 385.523 69.0192 384.078 69.5718C382.641 70.1151 381.015 70.3868 379.201 70.3868C376.678 70.3868 374.422 69.8158 372.432 68.6739C370.452 67.5319 368.887 65.8788 367.736 63.7147C366.594 61.5505 366.023 58.9304 366.023 55.8545C366.023 52.7694 366.603 50.1448 367.763 47.9806C368.924 45.8164 370.498 44.168 372.488 43.0352C374.477 41.8933 376.715 41.3223 379.201 41.3223C380.84 41.3223 382.36 41.5525 383.76 42.013C385.169 42.4735 386.417 43.1457 387.503 44.0298C388.59 44.9047 389.474 45.9776 390.156 47.2485C390.846 48.5194 391.288 49.9744 391.482 51.6137ZM421.036 55.8545C421.036 58.9397 420.451 61.5643 419.281 63.7285C418.121 65.8927 416.537 67.5457 414.529 68.6877C412.531 69.8204 410.284 70.3868 407.788 70.3868C405.274 70.3868 403.018 69.8158 401.019 68.6739C399.021 67.5319 397.442 65.8788 396.281 63.7147C395.121 61.5505 394.541 58.9304 394.541 55.8545C394.541 52.7694 395.121 50.1448 396.281 47.9806C397.442 45.8164 399.021 44.168 401.019 43.0352C403.018 41.8933 405.274 41.3223 407.788 41.3223C410.284 41.3223 412.531 41.8933 414.529 43.0352C416.537 44.168 418.121 45.8164 419.281 47.9806C420.451 50.1448 421.036 52.7694 421.036 55.8545ZM414.971 55.8545C414.971 53.8561 414.672 52.1708 414.074 50.7986C413.484 49.4265 412.651 48.3858 411.573 47.6767C410.496 46.9676 409.234 46.613 407.788 46.613C406.342 46.613 405.081 46.9676 404.003 47.6767C402.926 48.3858 402.088 49.4265 401.489 50.7986C400.9 52.1708 400.605 53.8561 400.605 55.8545C400.605 57.853 400.9 59.5383 401.489 60.9104C402.088 62.2826 402.926 63.3233 404.003 64.0324C405.081 64.7415 406.342 65.0961 407.788 65.0961C409.234 65.0961 410.496 64.7415 411.573 64.0324C412.651 63.3233 413.484 62.2826 414.074 60.9104C414.672 59.5383 414.971 57.853 414.971 55.8545ZM440.081 49.8455C439.97 48.7312 439.496 47.8655 438.658 47.2485C437.82 46.6314 436.683 46.3229 435.246 46.3229C434.27 46.3229 433.446 46.4611 432.773 46.7374C432.101 47.0044 431.585 47.3774 431.226 47.8563C430.876 48.3352 430.701 48.8785 430.701 49.4863C430.683 49.9928 430.789 50.4349 431.019 50.8125C431.258 51.19 431.585 51.517 432 51.7933C432.414 52.0603 432.893 52.2952 433.436 52.4978C433.98 52.6912 434.56 52.8569 435.177 52.9951L437.719 53.6029C438.953 53.8792 440.085 54.2475 441.117 54.708C442.148 55.1685 443.042 55.7348 443.797 56.4071C444.552 57.0794 445.137 57.8714 445.551 58.7831C445.975 59.6948 446.191 60.7401 446.2 61.9189C446.191 63.6502 445.749 65.1513 444.874 66.4222C444.009 67.6839 442.756 68.6647 441.117 69.3646C439.487 70.0553 437.521 70.4006 435.218 70.4006C432.934 70.4006 430.945 70.0507 429.251 69.3507C427.565 68.6508 426.248 67.6148 425.3 66.2426C424.361 64.8612 423.868 63.1529 423.822 61.1176H429.61C429.674 62.0662 429.946 62.8582 430.425 63.4936C430.913 64.1199 431.562 64.5942 432.373 64.9165C433.192 65.2296 434.118 65.3862 435.149 65.3862C436.162 65.3862 437.042 65.2388 437.788 64.9441C438.543 64.6494 439.128 64.2396 439.542 63.7147C439.956 63.1897 440.164 62.5865 440.164 61.905C440.164 61.2696 439.975 60.7355 439.597 60.3026C439.229 59.8698 438.686 59.5014 437.967 59.1975C437.258 58.8936 436.388 58.6173 435.356 58.3687L432.276 57.5951C429.891 57.0149 428.007 56.1078 426.626 54.8738C425.245 53.6397 424.559 51.9774 424.568 49.8869C424.559 48.174 425.014 46.6775 425.935 45.3974C426.865 44.1173 428.141 43.1181 429.762 42.3998C431.383 41.6815 433.224 41.3223 435.287 41.3223C437.387 41.3223 439.22 41.6815 440.785 42.3998C442.36 43.1181 443.585 44.1173 444.46 45.3974C445.335 46.6775 445.786 48.1602 445.814 49.8455H440.081ZM448.413 46.6407V41.7091H471.648V46.6407H462.987V70H457.074V46.6407H448.413ZM490.089 49.8455C489.978 48.7312 489.504 47.8655 488.666 47.2485C487.828 46.6314 486.691 46.3229 485.254 46.3229C484.278 46.3229 483.454 46.4611 482.781 46.7374C482.109 47.0044 481.593 47.3774 481.234 47.8563C480.884 48.3352 480.709 48.8785 480.709 49.4863C480.691 49.9928 480.797 50.4349 481.027 50.8125C481.266 51.19 481.593 51.517 482.008 51.7933C482.422 52.0603 482.901 52.2952 483.444 52.4978C483.988 52.6912 484.568 52.8569 485.185 52.9951L487.727 53.6029C488.961 53.8792 490.093 54.2475 491.125 54.708C492.156 55.1685 493.05 55.7348 493.805 56.4071C494.56 57.0794 495.145 57.8714 495.559 58.7831C495.983 59.6948 496.199 60.7401 496.208 61.9189C496.199 63.6502 495.757 65.1513 494.882 66.4222C494.017 67.6839 492.764 68.6647 491.125 69.3646C489.495 70.0553 487.529 70.4006 485.226 70.4006C482.942 70.4006 480.953 70.0507 479.259 69.3507C477.573 68.6508 476.257 67.6148 475.308 66.2426C474.369 64.8612 473.876 63.1529 473.83 61.1176H479.618C479.682 62.0662 479.954 62.8582 480.433 63.4936C480.921 64.1199 481.57 64.5942 482.381 64.9165C483.2 65.2296 484.126 65.3862 485.157 65.3862C486.17 65.3862 487.05 65.2388 487.796 64.9441C488.551 64.6494 489.136 64.2396 489.55 63.7147C489.965 63.1897 490.172 62.5865 490.172 61.905C490.172 61.2696 489.983 60.7355 489.605 60.3026C489.237 59.8698 488.694 59.5014 487.975 59.1975C487.266 58.8936 486.396 58.6173 485.364 58.3687L482.284 57.5951C479.899 57.0149 478.015 56.1078 476.634 54.8738C475.253 53.6397 474.567 51.9774 474.576 49.8869C474.567 48.174 475.022 46.6775 475.943 45.3974C476.874 44.1173 478.149 43.1181 479.77 42.3998C481.391 41.6815 483.233 41.3223 485.295 41.3223C487.395 41.3223 489.228 41.6815 490.793 42.3998C492.368 43.1181 493.593 44.1173 494.468 45.3974C495.343 46.6775 495.794 48.1602 495.822 49.8455H490.089ZM507.769 70V41.7091H526.501V46.6407H513.75V53.3819H525.257V58.3134H513.75V70H507.769ZM555.789 55.8545C555.789 58.9397 555.204 61.5643 554.034 63.7285C552.874 65.8927 551.29 67.5457 549.282 68.6877C547.284 69.8204 545.037 70.3868 542.541 70.3868C540.027 70.3868 537.771 69.8158 535.772 68.6739C533.774 67.5319 532.194 65.8788 531.034 63.7147C529.874 61.5505 529.294 58.9304 529.294 55.8545C529.294 52.7694 529.874 50.1448 531.034 47.9806C532.194 45.8164 533.774 44.168 535.772 43.0352C537.771 41.8933 540.027 41.3223 542.541 41.3223C545.037 41.3223 547.284 41.8933 549.282 43.0352C551.29 44.168 552.874 45.8164 554.034 47.9806C555.204 50.1448 555.789 52.7694 555.789 55.8545ZM549.724 55.8545C549.724 53.8561 549.425 52.1708 548.826 50.7986C548.237 49.4265 547.404 48.3858 546.326 47.6767C545.249 46.9676 543.987 46.613 542.541 46.613C541.095 46.613 539.834 46.9676 538.756 47.6767C537.679 48.3858 536.841 49.4265 536.242 50.7986C535.653 52.1708 535.358 53.8561 535.358 55.8545C535.358 57.853 535.653 59.5383 536.242 60.9104C536.841 62.2826 537.679 63.3233 538.756 64.0324C539.834 64.7415 541.095 65.0961 542.541 65.0961C543.987 65.0961 545.249 64.7415 546.326 64.0324C547.404 63.3233 548.237 62.2826 548.826 60.9104C549.425 59.5383 549.724 57.853 549.724 55.8545ZM559.486 70V41.7091H570.648C572.785 41.7091 574.608 42.0913 576.118 42.8556C577.638 43.6108 578.794 44.6837 579.586 46.0743C580.387 47.4557 580.787 49.0811 580.787 50.9506C580.787 52.8293 580.382 54.4455 579.572 55.7993C578.761 57.1438 577.587 58.1753 576.049 58.8936C574.521 59.6119 572.669 59.9711 570.496 59.9711H563.023V55.1638H569.529C570.671 55.1638 571.62 55.0073 572.375 54.6942C573.13 54.3811 573.692 53.9114 574.06 53.2852C574.438 52.6589 574.626 51.8807 574.626 50.9506C574.626 50.0113 574.438 49.2193 574.06 48.5746C573.692 47.93 573.125 47.4419 572.361 47.1103C571.606 46.7696 570.653 46.5992 569.501 46.5992H565.468V70H559.486ZM574.765 57.1254L581.796 70H575.193L568.314 57.1254H574.765ZM602.719 70.3868C600.766 70.3868 599.026 70.0276 597.497 69.3093C595.978 68.591 594.771 67.601 593.878 66.3393C592.984 65.0776 592.519 63.6318 592.483 62.0017H598.284C598.349 63.0976 598.809 63.9863 599.666 64.6678C600.522 65.3493 601.54 65.6901 602.719 65.6901C603.658 65.6901 604.487 65.4828 605.205 65.0684C605.933 64.6448 606.499 64.06 606.904 63.3141C607.319 62.5589 607.526 61.6932 607.526 60.717C607.526 59.7224 607.314 58.8476 606.891 58.0924C606.476 57.3372 605.901 56.7478 605.164 56.3242C604.427 55.9006 603.584 55.6842 602.636 55.675C601.807 55.675 601.001 55.8453 600.218 56.1861C599.445 56.5268 598.842 56.9919 598.409 57.5813L593.09 56.6281L594.43 41.7091H611.725V46.5992H599.362L598.63 53.6858H598.796C599.293 52.9859 600.043 52.4057 601.047 51.9452C602.051 51.4847 603.175 51.2545 604.418 51.2545C606.122 51.2545 607.641 51.6551 608.976 52.4563C610.312 53.2575 611.366 54.358 612.14 55.7578C612.913 57.1484 613.296 58.7509 613.286 60.5651C613.296 62.4714 612.854 64.1659 611.96 65.6486C611.076 67.1221 609.837 68.2825 608.244 69.1297C606.66 69.9678 604.818 70.3868 602.719 70.3868ZM627.818 70.6216C625.442 70.6124 623.397 70.0276 621.684 68.8673C619.981 67.7069 618.668 66.0262 617.747 63.8252C616.836 61.6242 616.384 58.9765 616.394 55.8822C616.394 52.7971 616.849 50.1678 617.761 47.9944C618.682 45.821 619.994 44.168 621.698 43.0352C623.411 41.8933 625.451 41.3223 627.818 41.3223C630.184 41.3223 632.22 41.8933 633.923 43.0352C635.636 44.1772 636.953 45.8348 637.874 48.0082C638.795 50.1724 639.251 52.7971 639.242 55.8822C639.242 58.9857 638.781 61.638 637.86 63.839C636.949 66.04 635.641 67.7207 633.937 68.8811C632.234 70.0414 630.194 70.6216 627.818 70.6216ZM627.818 65.6624C629.439 65.6624 630.732 64.8474 631.699 63.2174C632.666 61.5873 633.145 59.1423 633.136 55.8822C633.136 53.7364 632.915 51.9498 632.473 50.5224C632.04 49.0949 631.423 48.0221 630.622 47.3037C629.83 46.5854 628.895 46.2262 627.818 46.2262C626.206 46.2262 624.917 47.0321 623.95 48.6437C622.983 50.2553 622.495 52.6681 622.486 55.8822C622.486 58.0556 622.702 59.8698 623.135 61.3249C623.577 62.7707 624.198 63.8574 625 64.5849C625.801 65.3033 626.74 65.6624 627.818 65.6624ZM650.132 46.6407V41.7091H673.367V46.6407H664.706V70H658.794V46.6407H650.132ZM676.461 70V41.7091H695.524V46.6407H682.442V53.3819H694.543V58.3134H682.442V65.0684H695.579V70H676.461ZM723.21 41.7091V70H718.043L705.735 52.1939H705.528V70H699.546V41.7091H704.796L717.007 59.5014H717.256V41.7091H723.21ZM732.295 70H725.885L735.652 41.7091H743.36L753.112 70H746.703L739.616 48.174H739.395L732.295 70ZM731.894 58.8798H747.034V63.5489H731.894V58.8798ZM779.448 41.7091V70H774.281L761.973 52.1939H761.766V70H755.784V41.7091H761.034L773.245 59.5014H773.494V41.7091H779.448ZM782.579 46.6407V41.7091H805.814V46.6407H797.153V70H791.24V46.6407H782.579ZM824.255 49.8455C824.144 48.7312 823.67 47.8655 822.832 47.2485C821.994 46.6314 820.857 46.3229 819.42 46.3229C818.444 46.3229 817.62 46.4611 816.947 46.7374C816.275 47.0044 815.759 47.3774 815.4 47.8563C815.05 48.3352 814.875 48.8785 814.875 49.4863C814.857 49.9928 814.963 50.4349 815.193 50.8125C815.432 51.19 815.759 51.517 816.174 51.7933C816.588 52.0603 817.067 52.2952 817.61 52.4978C818.154 52.6912 818.734 52.8569 819.351 52.9951L821.893 53.6029C823.127 53.8792 824.259 54.2475 825.291 54.708C826.322 55.1685 827.216 55.7348 827.971 56.4071C828.726 57.0794 829.311 57.8714 829.725 58.7831C830.149 59.6948 830.365 60.7401 830.374 61.9189C830.365 63.6502 829.923 65.1513 829.048 66.4222C828.183 67.6839 826.93 68.6647 825.291 69.3646C823.661 70.0553 821.695 70.4006 819.392 70.4006C817.108 70.4006 815.119 70.0507 813.425 69.3507C811.739 68.6508 810.423 67.6148 809.474 66.2426C808.535 64.8612 808.042 63.1529 807.996 61.1176H813.784C813.848 62.0662 814.12 62.8582 814.599 63.4936C815.087 64.1199 815.736 64.5942 816.547 64.9165C817.366 65.2296 818.292 65.3862 819.323 65.3862C820.336 65.3862 821.216 65.2388 821.962 64.9441C822.717 64.6494 823.302 64.2396 823.716 63.7147C824.131 63.1897 824.338 62.5865 824.338 61.905C824.338 61.2696 824.149 60.7355 823.771 60.3026C823.403 59.8698 822.86 59.5014 822.141 59.1975C821.432 58.8936 820.562 58.6173 819.531 58.3687L816.45 57.5951C814.065 57.0149 812.182 56.1078 810.8 54.8738C809.419 53.6397 808.733 51.9774 808.742 49.8869C808.733 48.174 809.188 46.6775 810.109 45.3974C811.04 44.1173 812.315 43.1181 813.936 42.3998C815.557 41.6815 817.399 41.3223 819.461 41.3223C821.561 41.3223 823.394 41.6815 824.959 42.3998C826.534 43.1181 827.759 44.1173 828.634 45.3974C829.509 46.6775 829.96 48.1602 829.988 49.8455H824.255Z" fill="#949494"/>
</svg>
