<svg width="1200" height="900" viewBox="0 0 1200 900" fill="none" xmlns="http://www.w3.org/2000/svg">
<rect width="1200" height="900" fill="white"/>
<path d="M348.551 559.95V547.273H408.281V559.95H386.016V620H370.817V559.95H348.551ZM429.014 588.466V620H413.886V547.273H428.588V575.078H429.227C430.458 571.858 432.447 569.337 435.193 567.514C437.939 565.668 441.384 564.744 445.527 564.744C449.315 564.744 452.617 565.573 455.435 567.23C458.276 568.864 460.477 571.219 462.04 574.297C463.626 577.351 464.407 581.009 464.384 585.27V620H449.256V587.969C449.279 584.607 448.427 581.991 446.699 580.121C444.994 578.25 442.603 577.315 439.526 577.315C437.466 577.315 435.643 577.753 434.057 578.629C432.494 579.505 431.263 580.784 430.364 582.464C429.488 584.122 429.038 586.122 429.014 588.466ZM487.895 621.03C484.415 621.03 481.314 620.426 478.591 619.219C475.869 617.988 473.715 616.177 472.128 613.786C470.566 611.371 469.785 608.364 469.785 604.766C469.785 601.735 470.341 599.19 471.454 597.131C472.566 595.071 474.081 593.414 475.999 592.159C477.917 590.904 480.095 589.957 482.533 589.318C484.995 588.679 487.576 588.229 490.275 587.969C493.447 587.637 496.004 587.33 497.945 587.045C499.886 586.738 501.295 586.288 502.171 585.696C503.047 585.104 503.485 584.228 503.485 583.068V582.855C503.485 580.606 502.775 578.866 501.354 577.635C499.957 576.404 497.969 575.788 495.388 575.788C492.666 575.788 490.5 576.392 488.89 577.599C487.28 578.783 486.215 580.275 485.694 582.074L471.702 580.938C472.412 577.623 473.809 574.759 475.893 572.344C477.976 569.905 480.663 568.035 483.954 566.733C487.268 565.407 491.103 564.744 495.459 564.744C498.49 564.744 501.39 565.099 504.16 565.81C506.953 566.52 509.427 567.621 511.581 569.112C513.76 570.604 515.476 572.521 516.731 574.865C517.985 577.185 518.613 579.967 518.613 583.21V620H504.266V612.436H503.84C502.964 614.141 501.792 615.644 500.324 616.946C498.857 618.224 497.093 619.231 495.033 619.964C492.974 620.675 490.594 621.03 487.895 621.03ZM492.228 610.589C494.453 610.589 496.418 610.152 498.123 609.276C499.827 608.376 501.165 607.169 502.135 605.653C503.106 604.138 503.591 602.422 503.591 600.504V594.716C503.118 595.024 502.467 595.308 501.638 595.568C500.833 595.805 499.922 596.03 498.904 596.243C497.886 596.432 496.868 596.61 495.85 596.776C494.832 596.918 493.909 597.048 493.08 597.166C491.304 597.427 489.754 597.841 488.428 598.409C487.102 598.977 486.072 599.747 485.339 600.717C484.605 601.664 484.238 602.848 484.238 604.268C484.238 606.328 484.983 607.902 486.475 608.991C487.99 610.057 489.908 610.589 492.228 610.589ZM541.53 588.466V620H526.402V565.455H540.819V575.078H541.459C542.666 571.906 544.69 569.396 547.531 567.55C550.372 565.679 553.817 564.744 557.865 564.744C561.653 564.744 564.955 565.573 567.773 567.23C570.59 568.887 572.78 571.255 574.342 574.332C575.905 577.386 576.686 581.032 576.686 585.27V620H561.558V587.969C561.582 584.631 560.73 582.027 559.001 580.156C557.273 578.262 554.894 577.315 551.864 577.315C549.828 577.315 548.028 577.753 546.466 578.629C544.927 579.505 543.72 580.784 542.844 582.464C541.991 584.122 541.553 586.122 541.53 588.466ZM598.369 604.304L598.404 586.158H600.606L618.078 565.455H635.443L611.97 592.869H608.383L598.369 604.304ZM584.662 620V547.273H599.789V620H584.662ZM618.752 620L602.701 596.243L612.787 585.554L636.473 620H618.752ZM667.454 640.455C665.536 640.455 663.737 640.301 662.056 639.993C660.399 639.709 659.026 639.342 657.937 638.892L661.346 627.599C663.122 628.144 664.72 628.44 666.14 628.487C667.584 628.535 668.827 628.203 669.869 627.493C670.934 626.783 671.798 625.575 672.461 623.871L673.349 621.562L653.782 565.455H669.691L680.984 605.511H681.552L692.951 565.455H708.967L687.766 625.895C686.748 628.83 685.364 631.387 683.612 633.565C681.883 635.767 679.694 637.46 677.042 638.643C674.39 639.851 671.194 640.455 667.454 640.455ZM735.648 621.065C730.132 621.065 725.361 619.893 721.337 617.55C717.336 615.182 714.246 611.892 712.068 607.678C709.89 603.44 708.801 598.527 708.801 592.94C708.801 587.306 709.89 582.382 712.068 578.168C714.246 573.93 717.336 570.639 721.337 568.295C725.361 565.928 730.132 564.744 735.648 564.744C741.164 564.744 745.923 565.928 749.923 568.295C753.948 570.639 757.049 573.93 759.227 578.168C761.405 582.382 762.495 587.306 762.495 592.94C762.495 598.527 761.405 603.44 759.227 607.678C757.049 611.892 753.948 615.182 749.923 617.55C745.923 619.893 741.164 621.065 735.648 621.065ZM735.719 609.347C738.228 609.347 740.324 608.636 742.004 607.216C743.685 605.772 744.952 603.807 745.804 601.321C746.68 598.835 747.118 596.006 747.118 592.834C747.118 589.661 746.68 586.832 745.804 584.347C744.952 581.861 743.685 579.896 742.004 578.452C740.324 577.008 738.228 576.286 735.719 576.286C733.186 576.286 731.055 577.008 729.327 578.452C727.622 579.896 726.332 581.861 725.456 584.347C724.604 586.832 724.178 589.661 724.178 592.834C724.178 596.006 724.604 598.835 725.456 601.321C726.332 603.807 727.622 605.772 729.327 607.216C731.055 608.636 733.186 609.347 735.719 609.347ZM803.362 596.776V565.455H818.49V620H803.966V610.092H803.398C802.167 613.288 800.119 615.857 797.255 617.798C794.414 619.74 790.945 620.71 786.85 620.71C783.204 620.71 779.996 619.882 777.226 618.224C774.456 616.567 772.29 614.212 770.728 611.158C769.189 608.104 768.407 604.446 768.384 600.185V565.455H783.512V597.486C783.535 600.705 784.399 603.25 786.104 605.121C787.808 606.991 790.093 607.926 792.958 607.926C794.781 607.926 796.485 607.512 798.071 606.683C799.657 605.831 800.936 604.576 801.906 602.919C802.901 601.262 803.386 599.214 803.362 596.776ZM844.719 547.273L843.334 598.196H830.337L828.916 547.273H844.719ZM836.835 620.923C834.491 620.923 832.479 620.095 830.798 618.438C829.117 616.757 828.289 614.744 828.312 612.401C828.289 610.08 829.117 608.092 830.798 606.435C832.479 604.777 834.491 603.949 836.835 603.949C839.084 603.949 841.061 604.777 842.766 606.435C844.47 608.092 845.334 610.08 845.358 612.401C845.334 613.963 844.92 615.395 844.115 616.697C843.334 617.976 842.304 619.006 841.026 619.787C839.747 620.545 838.35 620.923 836.835 620.923Z" fill="black"/>
<path d="M583.573 369.573C579.638 365.465 574.912 362.283 569.424 359.998C563.929 357.712 557.884 356.584 551.28 356.584C544.669 356.584 538.797 357.712 533.309 359.998C527.822 362.283 523.065 365.465 519.07 369.573C515.075 373.68 511.961 378.626 509.7 384.44C507.439 390.255 506.323 394.016 506.323 401.102C506.323 408.19 507.408 414.64 509.617 420.513C511.818 426.384 514.871 431.389 518.806 435.554C522.741 439.72 527.467 442.931 532.955 445.216C538.45 447.501 544.556 448.629 551.28 448.629C558.004 448.629 564.253 447.501 569.779 445.216C575.266 442.931 579.993 439.72 583.928 435.554C587.863 431.389 590.855 426.384 592.943 420.513C595.024 414.64 596.056 408.161 596.056 401.102C596.056 394.044 594.941 390.255 592.762 384.44C590.561 378.626 587.508 373.68 583.573 369.573ZM564.901 419.818C561.728 424.446 557.183 426.732 551.28 426.732C545.378 426.732 540.795 424.417 537.568 419.818C534.335 415.19 532.691 408.971 532.691 401.102C532.691 393.235 534.304 389.735 537.568 385.222C540.795 380.709 545.378 378.453 551.28 378.453C557.183 378.453 561.728 380.709 564.901 385.222C568.075 389.735 569.688 393.235 569.688 401.102C569.688 408.971 568.105 415.219 564.901 419.818Z" fill="#51A1FF"/>
<path d="M592.795 359.215V336.594L551.456 314.002L510.117 336.594V359.215L551.456 336.594L592.795 359.215Z" fill="#51A1FF"/>
<path d="M723.07 427.61C720.1 428.131 717.259 428.391 714.469 428.391C708.68 428.391 704.836 426.801 702.929 423.59C701.022 420.408 700.049 416.127 700.049 410.775V382.34H731.114V361.137H700.049V330.359L674.178 344.07V361.137H634.837V353.5C634.837 351.099 635.101 348.872 635.629 346.818C636.156 344.764 637.008 343 638.244 341.525C639.45 340.049 641.124 338.863 643.265 338.025C645.405 337.156 648.051 336.752 651.165 336.752C653.102 336.752 655.182 336.954 657.414 337.301C659.381 337.59 662.027 338.082 663.286 338.718L667.605 318.441C663.286 316.3 655.801 315.606 655.801 315.606C653.479 315.345 651.074 315.201 648.549 315.201C635.485 315.201 625.618 318.615 618.954 325.47C612.291 332.297 608.974 341.553 608.974 353.182V447.917H634.837V382.369H674.178V411.151C674.178 416.965 674.736 422.259 675.829 427.061C676.915 431.863 678.852 435.942 681.641 439.297C684.43 442.653 688.131 445.285 692.737 447.165C697.381 449.045 703.223 450 710.271 450C715.819 450 720.515 449.537 724.329 448.64C728.151 447.715 731.611 446.645 734.755 445.401L731.114 425.557C728.679 426.483 726.003 427.176 723.04 427.697L723.07 427.61Z" fill="#51A1FF"/>
<path d="M488.261 424.983C487.085 424.983 485.909 424.723 484.65 424.319C484.326 424.203 483.972 424.087 483.647 423.971C481.801 423.161 480.391 422.149 479.388 420.905C478.393 419.661 477.745 418.099 477.391 416.277C477.044 414.454 476.863 412.401 476.863 410.116V310L451 322.641V415.264C451 420.067 451.497 424.347 452.47 428.166C453.435 431.984 455.289 435.224 458.018 437.914C460.747 440.604 464.448 442.687 469.114 444.163C472.928 445.377 477.662 446.1 483.353 446.419L486.964 446.563C486.964 446.563 487.115 446.563 487.198 446.563C487.288 446.563 487.349 446.563 487.439 446.563C492.105 446.534 495.128 446.303 498.972 445.116C499.854 444.856 500.676 444.538 501.445 444.191L490.371 424.955C489.61 425.042 489.226 425.042 488.2 425.013L488.261 424.983Z" fill="#51A1FF"/>
</svg>
