<svg width="1200" height="900" viewBox="0 0 1200 900" fill="none" xmlns="http://www.w3.org/2000/svg">
<rect width="1200" height="900" fill="white"/>
<path d="M201.896 255.214V206.262H214.272V255.214H201.896ZM183.608 236.926V224.55H232.56V236.926H183.608ZM289.095 266.968C284.209 266.968 279.854 266.069 276.028 264.271C272.225 262.474 269.206 259.996 266.97 256.839C264.735 253.681 263.571 250.063 263.479 245.984H277.998C278.16 248.726 279.312 250.95 281.455 252.656C283.599 254.361 286.145 255.214 289.095 255.214C291.446 255.214 293.52 254.696 295.318 253.658C297.139 252.598 298.556 251.135 299.57 249.268C300.607 247.378 301.126 245.212 301.126 242.769C301.126 240.28 300.596 238.09 299.536 236.2C298.499 234.311 297.058 232.836 295.214 231.775C293.371 230.715 291.262 230.174 288.888 230.151C286.814 230.151 284.797 230.577 282.838 231.43C280.902 232.282 279.393 233.446 278.309 234.921L265 232.536L268.353 195.2H311.635V207.438H280.695L278.863 225.172H279.277C280.522 223.421 282.4 221.969 284.912 220.817C287.425 219.664 290.236 219.088 293.348 219.088C297.611 219.088 301.414 220.091 304.756 222.096C308.098 224.101 310.736 226.855 312.672 230.358C314.608 233.838 315.565 237.848 315.542 242.388C315.565 247.159 314.458 251.4 312.223 255.11C310.01 258.798 306.911 261.702 302.924 263.822C298.959 265.919 294.35 266.968 289.095 266.968ZM353.684 195.2V266H338.715V209.408H338.3L322.086 219.572V206.297L339.614 195.2H353.684ZM410.972 267.037C405.532 267.037 400.854 265.885 396.936 263.58C393.041 261.252 390.045 258.026 387.948 253.9C385.873 249.775 384.836 245.027 384.836 239.657C384.836 234.218 385.885 229.448 387.982 225.345C390.103 221.22 393.11 218.005 397.005 215.7C400.9 213.372 405.532 212.209 410.902 212.209C415.535 212.209 419.591 213.05 423.071 214.732C426.551 216.415 429.305 218.777 431.333 221.819C433.362 224.861 434.479 228.434 434.687 232.536H420.789C420.398 229.886 419.361 227.754 417.678 226.14C416.019 224.504 413.841 223.686 411.144 223.686C408.863 223.686 406.869 224.308 405.164 225.553C403.481 226.774 402.168 228.56 401.223 230.911C400.278 233.262 399.805 236.108 399.805 239.45C399.805 242.838 400.266 245.719 401.188 248.093C402.133 250.466 403.458 252.276 405.164 253.52C406.869 254.765 408.863 255.387 411.144 255.387C412.827 255.387 414.336 255.041 415.673 254.35C417.033 253.658 418.151 252.656 419.026 251.342C419.925 250.005 420.513 248.404 420.789 246.537H434.687C434.456 250.593 433.35 254.165 431.368 257.254C429.409 260.319 426.701 262.716 423.244 264.444C419.787 266.173 415.696 267.037 410.972 267.037ZM455.742 195.2V266H441.015V195.2H455.742ZM498.491 243.391V212.9H513.218V266H499.079V256.355H498.526C497.327 259.466 495.334 261.967 492.545 263.857C489.779 265.746 486.403 266.691 482.416 266.691C478.867 266.691 475.744 265.885 473.047 264.271C470.351 262.658 468.242 260.365 466.721 257.392C465.223 254.419 464.462 250.858 464.439 246.71V212.9H479.166V244.082C479.189 247.217 480.03 249.694 481.69 251.515C483.349 253.336 485.573 254.246 488.362 254.246C490.136 254.246 491.796 253.843 493.34 253.036C494.884 252.206 496.129 250.985 497.074 249.372C498.042 247.758 498.514 245.765 498.491 243.391ZM566.078 228.042L552.596 228.871C552.365 227.719 551.87 226.682 551.109 225.76C550.349 224.815 549.346 224.066 548.102 223.513C546.88 222.937 545.417 222.649 543.711 222.649C541.43 222.649 539.505 223.133 537.938 224.101C536.371 225.046 535.587 226.313 535.587 227.904C535.587 229.171 536.094 230.243 537.108 231.119C538.122 231.994 539.862 232.697 542.328 233.227L551.939 235.163C557.102 236.223 560.95 237.929 563.486 240.28C566.021 242.63 567.288 245.719 567.288 249.545C567.288 253.025 566.263 256.078 564.211 258.706C562.183 261.333 559.395 263.384 555.845 264.859C552.319 266.311 548.252 267.037 543.642 267.037C536.613 267.037 531.012 265.574 526.841 262.647C522.693 259.697 520.261 255.687 519.547 250.616L534.032 249.856C534.47 251.999 535.53 253.635 537.212 254.765C538.895 255.871 541.049 256.424 543.677 256.424C546.258 256.424 548.332 255.929 549.899 254.937C551.49 253.923 552.296 252.621 552.319 251.031C552.296 249.694 551.732 248.6 550.625 247.747C549.519 246.871 547.814 246.203 545.509 245.742L536.313 243.91C531.128 242.872 527.267 241.075 524.732 238.517C522.22 235.958 520.964 232.697 520.964 228.733C520.964 225.322 521.886 222.384 523.73 219.918C525.596 217.452 528.212 215.55 531.577 214.214C534.965 212.877 538.929 212.209 543.469 212.209C550.176 212.209 555.454 213.626 559.303 216.461C563.174 219.296 565.433 223.156 566.078 228.042ZM601.705 212.9V223.963H569.728V212.9H601.705ZM576.988 200.178H591.715V249.683C591.715 251.043 591.922 252.103 592.337 252.863C592.752 253.601 593.328 254.119 594.065 254.419C594.826 254.719 595.702 254.868 596.693 254.868C597.384 254.868 598.075 254.811 598.767 254.696C599.458 254.557 599.988 254.454 600.357 254.384L602.673 265.343C601.936 265.574 600.899 265.839 599.562 266.138C598.225 266.461 596.6 266.657 594.688 266.726C591.138 266.864 588.027 266.392 585.354 265.309C582.703 264.225 580.641 262.543 579.166 260.261C577.691 257.98 576.965 255.099 576.988 251.619V200.178ZM631.827 267.037C626.365 267.037 621.663 265.931 617.722 263.718C613.804 261.483 610.785 258.325 608.665 254.246C606.545 250.144 605.485 245.292 605.485 239.692C605.485 234.23 606.545 229.436 608.665 225.311C610.785 221.185 613.77 217.97 617.619 215.666C621.491 213.361 626.031 212.209 631.239 212.209C634.743 212.209 638.004 212.773 641.023 213.903C644.065 215.009 646.715 216.68 648.974 218.915C651.256 221.151 653.03 223.963 654.298 227.35C655.565 230.715 656.199 234.656 656.199 239.173V243.218H611.361V234.092H642.336C642.336 231.971 641.876 230.093 640.954 228.457C640.032 226.82 638.753 225.541 637.116 224.619C635.503 223.674 633.625 223.202 631.481 223.202C629.246 223.202 627.264 223.721 625.535 224.758C623.83 225.772 622.493 227.143 621.525 228.871C620.557 230.577 620.062 232.478 620.039 234.576V243.253C620.039 245.88 620.523 248.15 621.491 250.063C622.482 251.976 623.876 253.451 625.674 254.488C627.471 255.525 629.603 256.044 632.069 256.044C633.705 256.044 635.203 255.813 636.563 255.352C637.923 254.891 639.087 254.2 640.055 253.278C641.023 252.356 641.76 251.227 642.267 249.89L655.888 250.789C655.197 254.062 653.779 256.92 651.636 259.362C649.516 261.782 646.773 263.672 643.408 265.032C640.066 266.369 636.206 267.037 631.827 267.037ZM662.709 266V212.9H676.987V222.165H677.54C678.508 218.869 680.133 216.38 682.414 214.698C684.696 212.992 687.323 212.139 690.297 212.139C691.034 212.139 691.829 212.186 692.682 212.278C693.535 212.37 694.284 212.497 694.929 212.658V225.726C694.238 225.518 693.281 225.334 692.06 225.172C690.838 225.011 689.72 224.93 688.706 224.93C686.54 224.93 684.604 225.403 682.898 226.348C681.216 227.27 679.879 228.56 678.888 230.22C677.92 231.879 677.436 233.792 677.436 235.958V266H662.709ZM743.624 228.042L730.141 228.871C729.911 227.719 729.415 226.682 728.655 225.76C727.894 224.815 726.892 224.066 725.647 223.513C724.426 222.937 722.962 222.649 721.257 222.649C718.975 222.649 717.051 223.133 715.483 224.101C713.916 225.046 713.133 226.313 713.133 227.904C713.133 229.171 713.64 230.243 714.654 231.119C715.668 231.994 717.408 232.697 719.874 233.227L729.484 235.163C734.647 236.223 738.496 237.929 741.031 240.28C743.566 242.63 744.834 245.719 744.834 249.545C744.834 253.025 743.808 256.078 741.757 258.706C739.729 261.333 736.94 263.384 733.391 264.859C729.865 266.311 725.797 267.037 721.187 267.037C714.158 267.037 708.558 265.574 704.386 262.647C700.238 259.697 697.806 255.687 697.092 250.616L711.577 249.856C712.015 251.999 713.075 253.635 714.757 254.765C716.44 255.871 718.595 256.424 721.222 256.424C723.803 256.424 725.878 255.929 727.445 254.937C729.035 253.923 729.842 252.621 729.865 251.031C729.842 249.694 729.277 248.6 728.171 247.747C727.064 246.871 725.359 246.203 723.054 245.742L713.859 243.91C708.673 242.872 704.813 241.075 702.278 238.517C699.765 235.958 698.509 232.697 698.509 228.733C698.509 225.322 699.431 222.384 701.275 219.918C703.142 217.452 705.758 215.55 709.122 214.214C712.51 212.877 716.474 212.209 721.015 212.209C727.721 212.209 732.999 213.626 736.848 216.461C740.72 219.296 742.978 223.156 743.624 228.042ZM782.745 212.9L792.493 231.464L802.484 212.9H817.592L802.208 239.45L818.006 266H802.968L792.493 247.643L782.192 266H766.981L782.745 239.45L767.534 212.9H782.745ZM866.314 274.85V186.35H871.984V274.85H866.314ZM881.353 215.562C881.076 212.773 879.889 210.607 877.792 209.063C875.695 207.519 872.848 206.746 869.253 206.746C866.81 206.746 864.747 207.092 863.065 207.784C861.382 208.452 860.092 209.385 859.193 210.584C858.317 211.782 857.879 213.142 857.879 214.663C857.833 215.931 858.098 217.037 858.674 217.982C859.274 218.927 860.092 219.745 861.129 220.436C862.166 221.105 863.364 221.692 864.724 222.199C866.084 222.683 867.536 223.098 869.08 223.444L875.441 224.965C878.529 225.656 881.364 226.578 883.945 227.731C886.527 228.883 888.762 230.3 890.652 231.983C892.542 233.665 894.005 235.647 895.042 237.929C896.103 240.211 896.644 242.826 896.667 245.776C896.644 250.109 895.538 253.866 893.348 257.046C891.182 260.204 888.048 262.658 883.945 264.41C879.866 266.138 874.945 267.003 869.184 267.003C863.468 267.003 858.49 266.127 854.249 264.375C850.032 262.624 846.736 260.031 844.362 256.597C842.011 253.14 840.778 248.865 840.663 243.771H855.148C855.31 246.145 855.989 248.127 857.188 249.717C858.409 251.285 860.034 252.471 862.062 253.278C864.113 254.062 866.43 254.454 869.011 254.454C871.546 254.454 873.747 254.085 875.614 253.347C877.504 252.61 878.967 251.584 880.004 250.271C881.041 248.957 881.56 247.447 881.56 245.742C881.56 244.152 881.087 242.815 880.143 241.732C879.221 240.648 877.861 239.727 876.063 238.966C874.289 238.205 872.111 237.514 869.529 236.892L861.82 234.956C855.851 233.504 851.138 231.234 847.681 228.146C844.224 225.057 842.507 220.897 842.53 215.666C842.507 211.379 843.648 207.634 845.953 204.43C848.28 201.227 851.472 198.726 855.528 196.929C859.585 195.131 864.194 194.232 869.357 194.232C874.611 194.232 879.198 195.131 883.116 196.929C887.057 198.726 890.122 201.227 892.311 204.43C894.501 207.634 895.63 211.344 895.699 215.562H881.353ZM930.981 267.556C925.034 267.533 919.918 266.069 915.631 263.165C911.368 260.261 908.083 256.055 905.779 250.547C903.497 245.039 902.368 238.413 902.391 230.669C902.391 222.948 903.532 216.369 905.813 210.929C908.118 205.49 911.402 201.354 915.666 198.519C919.953 195.661 925.058 194.232 930.981 194.232C936.904 194.232 941.997 195.661 946.261 198.519C950.547 201.377 953.843 205.525 956.148 210.964C958.452 216.38 959.593 222.948 959.57 230.669C959.57 238.436 958.418 245.073 956.113 250.582C953.832 256.09 950.559 260.296 946.295 263.2C942.032 266.104 936.927 267.556 930.981 267.556ZM930.981 255.145C935.037 255.145 938.275 253.105 940.695 249.026C943.115 244.947 944.313 238.828 944.29 230.669C944.29 225.299 943.737 220.828 942.631 217.256C941.548 213.684 940.003 210.999 937.998 209.201C936.016 207.403 933.677 206.504 930.981 206.504C926.947 206.504 923.721 208.521 921.301 212.554C918.881 216.587 917.659 222.626 917.636 230.669C917.636 236.108 918.178 240.648 919.261 244.29C920.367 247.908 921.923 250.628 923.928 252.448C925.933 254.246 928.284 255.145 930.981 255.145Z" fill="black"/>
<path d="M201.896 371.214V322.262H214.272V371.214H201.896ZM183.608 352.926V340.55H232.56V352.926H183.608ZM289.095 382.968C284.209 382.968 279.854 382.069 276.028 380.271C272.225 378.474 269.206 375.996 266.97 372.839C264.735 369.681 263.571 366.063 263.479 361.984H277.998C278.16 364.726 279.312 366.95 281.455 368.656C283.599 370.361 286.145 371.214 289.095 371.214C291.446 371.214 293.52 370.696 295.318 369.658C297.139 368.598 298.556 367.135 299.57 365.268C300.607 363.378 301.126 361.212 301.126 358.769C301.126 356.28 300.596 354.09 299.536 352.2C298.499 350.311 297.058 348.836 295.214 347.775C293.371 346.715 291.262 346.174 288.888 346.151C286.814 346.151 284.797 346.577 282.838 347.43C280.902 348.282 279.393 349.446 278.309 350.921L265 348.536L268.353 311.2H311.635V323.438H280.695L278.863 341.172H279.277C280.522 339.421 282.4 337.969 284.912 336.817C287.425 335.664 290.236 335.088 293.348 335.088C297.611 335.088 301.414 336.091 304.756 338.096C308.098 340.101 310.736 342.855 312.672 346.358C314.608 349.838 315.565 353.848 315.542 358.388C315.565 363.159 314.458 367.4 312.223 371.11C310.01 374.798 306.911 377.702 302.924 379.822C298.959 381.919 294.35 382.968 289.095 382.968ZM353.684 311.2V382H338.715V325.408H338.3L322.086 335.572V322.297L339.614 311.2H353.684ZM401.707 351.302V382H386.98V328.9H401.015V338.269H401.638C402.813 335.18 404.783 332.737 407.549 330.94C410.315 329.119 413.668 328.209 417.609 328.209C421.297 328.209 424.512 329.015 427.254 330.629C429.997 332.242 432.129 334.546 433.65 337.543C435.171 340.516 435.931 344.065 435.931 348.19V382H421.204V350.818C421.227 347.568 420.398 345.033 418.715 343.212C417.033 341.368 414.717 340.446 411.767 340.446C409.785 340.446 408.033 340.873 406.512 341.726C405.014 342.578 403.838 343.823 402.986 345.459C402.156 347.072 401.73 349.02 401.707 351.302ZM468.43 383.037C463.06 383.037 458.416 381.896 454.498 379.615C450.603 377.31 447.595 374.106 445.475 370.004C443.355 365.879 442.295 361.096 442.295 355.657C442.295 350.172 443.355 345.379 445.475 341.276C447.595 337.151 450.603 333.947 454.498 331.666C458.416 329.361 463.06 328.209 468.43 328.209C473.8 328.209 478.432 329.361 482.327 331.666C486.245 333.947 489.264 337.151 491.384 341.276C493.505 345.379 494.565 350.172 494.565 355.657C494.565 361.096 493.505 365.879 491.384 370.004C489.264 374.106 486.245 377.31 482.327 379.615C478.432 381.896 473.8 383.037 468.43 383.037ZM468.499 371.629C470.942 371.629 472.981 370.938 474.618 369.555C476.254 368.149 477.487 366.236 478.317 363.816C479.17 361.396 479.596 358.642 479.596 355.554C479.596 352.465 479.17 349.711 478.317 347.291C477.487 344.871 476.254 342.959 474.618 341.553C472.981 340.147 470.942 339.444 468.499 339.444C466.033 339.444 463.959 340.147 462.276 341.553C460.617 342.959 459.361 344.871 458.508 347.291C457.678 349.711 457.264 352.465 457.264 355.554C457.264 358.642 457.678 361.396 458.508 363.816C459.361 366.236 460.617 368.149 462.276 369.555C463.959 370.938 466.033 371.629 468.499 371.629ZM520.607 382.864C516.574 382.864 512.921 381.827 509.649 379.753C506.399 377.656 503.818 374.579 501.905 370.523C500.015 366.443 499.07 361.442 499.07 355.519C499.07 349.435 500.05 344.376 502.008 340.343C503.967 336.287 506.572 333.256 509.821 331.251C513.094 329.223 516.678 328.209 520.573 328.209C523.546 328.209 526.023 328.716 528.005 329.73C530.01 330.721 531.624 331.965 532.845 333.463C534.09 334.938 535.035 336.39 535.68 337.819H536.129V311.2H550.822V382H536.302V373.496H535.68C534.989 374.971 534.009 376.434 532.742 377.886C531.497 379.315 529.872 380.502 527.867 381.447C525.885 382.392 523.465 382.864 520.607 382.864ZM525.274 371.145C527.648 371.145 529.653 370.5 531.29 369.209C532.949 367.895 534.217 366.063 535.092 363.712C535.991 361.362 536.441 358.607 536.441 355.45C536.441 352.293 536.003 349.55 535.127 347.222C534.251 344.895 532.983 343.097 531.324 341.829C529.665 340.562 527.648 339.928 525.274 339.928C522.854 339.928 520.815 340.585 519.155 341.898C517.496 343.212 516.24 345.033 515.387 347.361C514.534 349.688 514.108 352.385 514.108 355.45C514.108 358.538 514.534 361.269 515.387 363.643C516.263 365.994 517.519 367.838 519.155 369.174C520.815 370.488 522.854 371.145 525.274 371.145ZM584.029 383.037C578.567 383.037 573.865 381.931 569.924 379.718C566.006 377.483 562.987 374.325 560.867 370.246C558.747 366.144 557.686 361.292 557.686 355.692C557.686 350.23 558.747 345.436 560.867 341.311C562.987 337.185 565.972 333.97 569.821 331.666C573.692 329.361 578.233 328.209 583.441 328.209C586.944 328.209 590.205 328.773 593.225 329.903C596.267 331.009 598.917 332.68 601.176 334.915C603.457 337.151 605.232 339.963 606.5 343.35C607.767 346.715 608.401 350.656 608.401 355.173V359.218H563.563V350.092H594.538C594.538 347.971 594.077 346.093 593.155 344.457C592.234 342.82 590.955 341.541 589.318 340.619C587.705 339.674 585.827 339.202 583.683 339.202C581.448 339.202 579.466 339.721 577.737 340.758C576.032 341.772 574.695 343.143 573.727 344.871C572.759 346.577 572.264 348.478 572.24 350.576V359.253C572.24 361.88 572.724 364.15 573.692 366.063C574.683 367.976 576.078 369.451 577.875 370.488C579.673 371.525 581.805 372.044 584.271 372.044C585.907 372.044 587.405 371.813 588.765 371.352C590.125 370.891 591.289 370.2 592.257 369.278C593.225 368.356 593.962 367.227 594.469 365.89L608.09 366.789C607.398 370.062 605.981 372.92 603.838 375.362C601.717 377.782 598.975 379.672 595.61 381.032C592.268 382.369 588.408 383.037 584.029 383.037ZM659.092 344.042L645.61 344.871C645.379 343.719 644.884 342.682 644.123 341.76C643.363 340.815 642.36 340.066 641.116 339.513C639.894 338.937 638.431 338.649 636.725 338.649C634.443 338.649 632.519 339.133 630.952 340.101C629.385 341.046 628.601 342.313 628.601 343.904C628.601 345.171 629.108 346.243 630.122 347.119C631.136 347.994 632.876 348.697 635.342 349.227L644.953 351.163C650.115 352.223 653.964 353.929 656.499 356.28C659.034 358.63 660.302 361.719 660.302 365.545C660.302 369.025 659.276 372.078 657.225 374.706C655.197 377.333 652.408 379.384 648.859 380.859C645.333 382.311 641.265 383.037 636.656 383.037C629.627 383.037 624.026 381.574 619.855 378.647C615.706 375.697 613.275 371.687 612.56 366.616L627.045 365.856C627.483 367.999 628.543 369.635 630.226 370.765C631.908 371.871 634.063 372.424 636.691 372.424C639.272 372.424 641.346 371.929 642.913 370.937C644.503 369.923 645.31 368.621 645.333 367.031C645.31 365.694 644.745 364.6 643.639 363.747C642.533 362.871 640.827 362.203 638.523 361.742L629.327 359.91C624.141 358.872 620.281 357.075 617.746 354.517C615.234 351.958 613.978 348.697 613.978 344.733C613.978 341.322 614.9 338.384 616.743 335.918C618.61 333.452 621.226 331.55 624.591 330.214C627.979 328.877 631.943 328.209 636.483 328.209C643.19 328.209 648.467 329.626 652.316 332.461C656.188 335.296 658.447 339.156 659.092 344.042ZM698.213 328.9L707.962 347.464L717.953 328.9H733.06L717.676 355.45L733.475 382H718.437L707.962 363.643L697.66 382H682.449L698.213 355.45L683.002 328.9H698.213ZM781.783 390.85V302.35H787.452V390.85H781.783ZM796.821 331.562C796.544 328.773 795.358 326.607 793.26 325.063C791.163 323.519 788.317 322.746 784.721 322.746C782.278 322.746 780.216 323.092 778.533 323.784C776.851 324.452 775.56 325.385 774.661 326.584C773.786 327.782 773.348 329.142 773.348 330.663C773.302 331.931 773.567 333.037 774.143 333.982C774.742 334.927 775.56 335.745 776.597 336.436C777.634 337.105 778.833 337.692 780.193 338.199C781.552 338.683 783.004 339.098 784.549 339.444L790.909 340.965C793.998 341.656 796.833 342.578 799.414 343.731C801.995 344.883 804.231 346.3 806.12 347.983C808.01 349.665 809.474 351.647 810.511 353.929C811.571 356.211 812.113 358.826 812.136 361.776C812.113 366.109 811.006 369.866 808.817 373.046C806.651 376.204 803.516 378.658 799.414 380.41C795.334 382.138 790.414 383.003 784.652 383.003C778.937 383.003 773.959 382.127 769.718 380.375C765.5 378.624 762.205 376.031 759.831 372.597C757.48 369.14 756.247 364.865 756.132 359.771H770.617C770.778 362.145 771.458 364.127 772.656 365.717C773.878 367.285 775.503 368.471 777.531 369.278C779.582 370.062 781.898 370.454 784.479 370.454C787.015 370.454 789.216 370.085 791.082 369.347C792.972 368.61 794.436 367.584 795.473 366.271C796.51 364.957 797.028 363.447 797.028 361.742C797.028 360.152 796.556 358.815 795.611 357.732C794.689 356.648 793.329 355.727 791.532 354.966C789.757 354.205 787.579 353.514 784.998 352.892L777.289 350.956C771.32 349.504 766.607 347.234 763.15 344.146C759.693 341.057 757.976 336.897 757.999 331.666C757.976 327.379 759.116 323.634 761.421 320.43C763.749 317.227 766.941 314.726 770.997 312.929C775.053 311.131 779.663 310.232 784.825 310.232C790.08 310.232 794.666 311.131 798.584 312.929C802.525 314.726 805.59 317.227 807.78 320.43C809.969 323.634 811.099 327.344 811.168 331.562H796.821ZM849.491 311.2V382H834.522V325.408H834.107L817.894 335.572V322.297L835.421 311.2H849.491ZM863.218 382V371.214L888.42 347.879C890.563 345.805 892.361 343.938 893.813 342.279C895.288 340.619 896.406 338.995 897.166 337.404C897.927 335.791 898.307 334.051 898.307 332.184C898.307 330.11 897.834 328.324 896.89 326.826C895.945 325.305 894.654 324.141 893.018 323.334C891.381 322.504 889.526 322.09 887.452 322.09C885.285 322.09 883.396 322.528 881.782 323.403C880.169 324.279 878.924 325.535 878.049 327.171C877.173 328.808 876.735 330.755 876.735 333.014H862.527C862.527 328.381 863.575 324.36 865.673 320.949C867.77 317.538 870.708 314.899 874.488 313.032C878.268 311.165 882.624 310.232 887.556 310.232C892.626 310.232 897.039 311.131 900.796 312.929C904.576 314.703 907.514 317.169 909.611 320.327C911.709 323.484 912.757 327.102 912.757 331.182C912.757 333.855 912.227 336.494 911.167 339.098C910.13 341.703 908.275 344.595 905.601 347.775C902.928 350.933 899.16 354.724 894.297 359.149L883.96 369.278V369.762H913.691V382H863.218Z" fill="black"/>
<path d="M184.196 640.276V627.969H231.937V640.276H184.196ZM184.196 663.231V650.924H231.937V663.231H184.196ZM287.021 689.85V601.35H292.691V689.85H287.021ZM302.059 630.562C301.783 627.773 300.596 625.607 298.499 624.063C296.401 622.519 293.555 621.746 289.96 621.746C287.517 621.746 285.454 622.092 283.772 622.784C282.089 623.452 280.799 624.385 279.9 625.584C279.024 626.782 278.586 628.142 278.586 629.663C278.54 630.931 278.805 632.037 279.381 632.982C279.98 633.927 280.799 634.745 281.836 635.436C282.873 636.105 284.071 636.692 285.431 637.199C286.791 637.683 288.243 638.098 289.787 638.444L296.148 639.965C299.236 640.656 302.071 641.578 304.652 642.731C307.233 643.883 309.469 645.3 311.359 646.983C313.249 648.665 314.712 650.647 315.749 652.929C316.809 655.211 317.351 657.826 317.374 660.776C317.351 665.109 316.245 668.866 314.055 672.046C311.889 675.204 308.754 677.658 304.652 679.41C300.573 681.138 295.652 682.003 289.891 682.003C284.175 682.003 279.197 681.127 274.956 679.375C270.739 677.624 267.443 675.031 265.069 671.597C262.718 668.14 261.485 663.865 261.37 658.771H275.855C276.016 661.145 276.696 663.127 277.895 664.717C279.116 666.285 280.741 667.471 282.769 668.278C284.82 669.062 287.136 669.454 289.718 669.454C292.253 669.454 294.454 669.085 296.321 668.347C298.21 667.61 299.674 666.584 300.711 665.271C301.748 663.957 302.267 662.447 302.267 660.742C302.267 659.152 301.794 657.815 300.849 656.732C299.927 655.648 298.568 654.727 296.77 653.966C294.995 653.205 292.817 652.514 290.236 651.892L282.527 649.956C276.558 648.504 271.845 646.234 268.388 643.146C264.931 640.057 263.214 635.897 263.237 630.666C263.214 626.379 264.355 622.634 266.659 619.43C268.987 616.227 272.179 613.726 276.235 611.929C280.291 610.131 284.901 609.232 290.063 609.232C295.318 609.232 299.904 610.131 303.822 611.929C307.763 613.726 310.829 616.227 313.018 619.43C315.208 622.634 316.337 626.344 316.406 630.562H302.059ZM351.1 681.968C347.458 681.945 343.944 681.334 340.556 680.136C337.191 678.937 334.172 676.99 331.498 674.293C328.825 671.597 326.705 668.025 325.137 663.577C323.593 659.129 322.821 653.666 322.821 647.19C322.844 641.244 323.524 635.932 324.861 631.253C326.221 626.552 328.156 622.565 330.669 619.292C333.204 616.019 336.234 613.53 339.761 611.825C343.287 610.096 347.239 609.232 351.618 609.232C356.343 609.232 360.514 610.154 364.133 611.998C367.751 613.818 370.655 616.296 372.844 619.43C375.057 622.565 376.394 626.079 376.855 629.974H362.093C361.517 627.508 360.307 625.572 358.463 624.166C356.619 622.761 354.338 622.058 351.618 622.058C347.009 622.058 343.506 624.063 341.109 628.073C338.735 632.083 337.525 637.534 337.479 644.425H337.963C339.023 642.327 340.452 640.541 342.25 639.066C344.07 637.568 346.133 636.427 348.438 635.644C350.765 634.837 353.22 634.434 355.801 634.434C359.996 634.434 363.729 635.425 367.002 637.407C370.275 639.366 372.856 642.062 374.746 645.496C376.636 648.93 377.58 652.86 377.58 657.285C377.58 662.079 376.463 666.342 374.227 670.076C372.015 673.809 368.915 676.736 364.928 678.857C360.964 680.954 356.354 681.991 351.1 681.968ZM351.03 670.214C353.335 670.214 355.398 669.661 357.219 668.555C359.039 667.448 360.468 665.95 361.505 664.061C362.542 662.171 363.061 660.05 363.061 657.7C363.061 655.349 362.542 653.24 361.505 651.373C360.491 649.506 359.085 648.02 357.288 646.914C355.49 645.807 353.439 645.254 351.134 645.254C349.406 645.254 347.804 645.577 346.329 646.222C344.877 646.868 343.598 647.766 342.492 648.919C341.408 650.071 340.556 651.408 339.933 652.929C339.311 654.427 339 656.029 339 657.734C339 660.016 339.519 662.102 340.556 663.991C341.616 665.881 343.045 667.391 344.842 668.52C346.663 669.649 348.726 670.214 351.03 670.214ZM415.895 610.2V681H400.926V624.408H400.512L384.298 634.572V621.297L401.825 610.2H415.895ZM429.622 681V670.214L454.824 646.879C456.967 644.805 458.765 642.938 460.217 641.279C461.692 639.619 462.81 637.995 463.57 636.404C464.331 634.791 464.711 633.051 464.711 631.184C464.711 629.11 464.239 627.324 463.294 625.826C462.349 624.305 461.058 623.141 459.422 622.334C457.785 621.504 455.93 621.09 453.856 621.09C451.69 621.09 449.8 621.528 448.186 622.403C446.573 623.279 445.329 624.535 444.453 626.171C443.577 627.808 443.139 629.755 443.139 632.014H428.931C428.931 627.381 429.979 623.36 432.077 619.949C434.174 616.538 437.112 613.899 440.892 612.032C444.672 610.165 449.028 609.232 453.96 609.232C459.03 609.232 463.443 610.131 467.2 611.929C470.98 613.703 473.918 616.169 476.016 619.327C478.113 622.484 479.161 626.102 479.161 630.182C479.161 632.855 478.631 635.494 477.571 638.098C476.534 640.703 474.679 643.595 472.005 646.775C469.332 649.933 465.564 653.724 460.701 658.149L450.364 668.278V668.762H480.095V681H429.622ZM538.247 606.881L515.43 691.648H502.743L525.56 606.881H538.247ZM561.673 681V627.9H575.708V637.269H576.331C577.437 634.157 579.281 631.703 581.862 629.905C584.443 628.107 587.532 627.209 591.127 627.209C594.768 627.209 597.868 628.119 600.426 629.94C602.984 631.737 604.69 634.18 605.543 637.269H606.096C607.179 634.226 609.138 631.795 611.973 629.974C614.831 628.13 618.207 627.209 622.102 627.209C627.057 627.209 631.079 628.787 634.167 631.945C637.278 635.079 638.834 639.527 638.834 645.289V681H624.141V648.193C624.141 645.243 623.358 643.03 621.791 641.555C620.224 640.08 618.265 639.343 615.914 639.343C613.24 639.343 611.155 640.196 609.657 641.901C608.158 643.583 607.409 645.807 607.409 648.573V681H593.132V647.882C593.132 645.277 592.383 643.203 590.885 641.659C589.41 640.115 587.462 639.343 585.042 639.343C583.406 639.343 581.931 639.758 580.617 640.587C579.327 641.394 578.301 642.535 577.541 644.01C576.78 645.462 576.4 647.167 576.4 649.126V681H561.673ZM671.358 682.037C665.988 682.037 661.344 680.896 657.426 678.615C653.532 676.31 650.524 673.106 648.404 669.004C646.283 664.879 645.223 660.096 645.223 654.657C645.223 649.172 646.283 644.379 648.404 640.276C650.524 636.151 653.532 632.947 657.426 630.666C661.344 628.361 665.988 627.209 671.358 627.209C676.728 627.209 681.361 628.361 685.256 630.666C689.174 632.947 692.193 636.151 694.313 640.276C696.433 644.379 697.493 649.172 697.493 654.657C697.493 660.096 696.433 664.879 694.313 669.004C692.193 673.106 689.174 676.31 685.256 678.615C681.361 680.896 676.728 682.037 671.358 682.037ZM671.427 670.629C673.87 670.629 675.91 669.938 677.546 668.555C679.183 667.149 680.416 665.236 681.245 662.816C682.098 660.396 682.524 657.642 682.524 654.554C682.524 651.465 682.098 648.711 681.245 646.291C680.416 643.871 679.183 641.959 677.546 640.553C675.91 639.147 673.87 638.444 671.427 638.444C668.961 638.444 666.887 639.147 665.205 640.553C663.545 641.959 662.289 643.871 661.437 646.291C660.607 648.711 660.192 651.465 660.192 654.554C660.192 657.642 660.607 660.396 661.437 662.816C662.289 665.236 663.545 667.149 665.205 668.555C666.887 669.938 668.961 670.629 671.427 670.629ZM718.696 650.302V681H703.969V627.9H718.005V637.269H718.627C719.802 634.18 721.773 631.737 724.538 629.94C727.304 628.119 730.657 627.209 734.598 627.209C738.286 627.209 741.501 628.015 744.243 629.629C746.986 631.242 749.118 633.546 750.639 636.543C752.16 639.516 752.921 643.065 752.921 647.19V681H738.194V649.818C738.217 646.568 737.387 644.033 735.705 642.212C734.022 640.368 731.706 639.446 728.756 639.446C726.774 639.446 725.022 639.873 723.501 640.726C722.003 641.578 720.828 642.823 719.975 644.459C719.145 646.072 718.719 648.02 718.696 650.302ZM789.671 627.9V638.963H757.694V627.9H789.671ZM764.953 615.178H779.68V664.683C779.68 666.043 779.888 667.103 780.303 667.863C780.718 668.601 781.294 669.119 782.031 669.419C782.792 669.719 783.668 669.868 784.659 669.868C785.35 669.868 786.041 669.811 786.733 669.696C787.424 669.557 787.954 669.454 788.323 669.384L790.639 680.343C789.902 680.574 788.865 680.839 787.528 681.138C786.191 681.461 784.566 681.657 782.653 681.726C779.104 681.864 775.993 681.392 773.319 680.309C770.669 679.225 768.606 677.543 767.131 675.261C765.656 672.98 764.93 670.099 764.953 666.619V615.178ZM812.032 650.302V681H797.305V610.2H811.617V637.269H812.239C813.438 634.134 815.374 631.68 818.047 629.905C820.721 628.107 824.074 627.209 828.107 627.209C831.795 627.209 835.01 628.015 837.752 629.629C840.518 631.219 842.661 633.512 844.182 636.508C845.726 639.481 846.487 643.042 846.464 647.19V681H831.737V649.818C831.76 646.545 830.93 643.998 829.248 642.178C827.589 640.357 825.261 639.446 822.265 639.446C820.26 639.446 818.485 639.873 816.941 640.726C815.42 641.578 814.221 642.823 813.346 644.459C812.493 646.072 812.055 648.02 812.032 650.302Z" fill="black"/>
<path d="M271.448 760.921C271.346 757.728 271.735 755.026 272.613 752.813C273.491 750.6 274.767 748.92 276.439 747.771C278.128 746.622 280.113 746.048 282.393 746.048C283.981 746.048 285.501 746.377 286.954 747.036C288.407 747.695 290.054 748.835 291.895 750.457C292.874 751.318 293.702 751.977 294.378 752.433C295.054 752.872 295.831 753.092 296.709 753.092C297.908 753.092 298.896 752.627 299.673 751.698C300.45 750.752 300.814 749.257 300.763 747.213H309.023C309.141 750.423 308.753 753.134 307.857 755.347C306.962 757.56 305.67 759.24 303.981 760.389C302.292 761.538 300.324 762.112 298.077 762.112C296.405 762.112 294.834 761.766 293.364 761.073C291.912 760.364 290.299 759.232 288.525 757.678C287.478 756.749 286.642 756.082 286.017 755.676C285.392 755.254 284.648 755.043 283.787 755.043C282.588 755.043 281.599 755.499 280.822 756.411C280.045 757.306 279.682 758.81 279.733 760.921H271.448ZM334.707 786.486V721.623H338.862V786.486H334.707ZM345.729 743.033C345.526 740.989 344.656 739.401 343.119 738.269C341.582 737.138 339.496 736.572 336.86 736.572C335.07 736.572 333.558 736.825 332.325 737.332C331.092 737.822 330.146 738.506 329.487 739.384C328.845 740.263 328.524 741.259 328.524 742.374C328.491 743.303 328.685 744.114 329.107 744.806C329.546 745.499 330.146 746.099 330.906 746.605C331.666 747.095 332.545 747.526 333.541 747.898C334.538 748.252 335.602 748.556 336.734 748.81L341.396 749.925C343.659 750.431 345.737 751.107 347.629 751.952C349.521 752.796 351.159 753.835 352.544 755.068C353.929 756.301 355.002 757.754 355.762 759.426C356.539 761.098 356.936 763.016 356.953 765.178C356.936 768.353 356.125 771.107 354.521 773.438C352.933 775.752 350.636 777.551 347.629 778.834C344.639 780.101 341.033 780.735 336.81 780.735C332.621 780.735 328.972 780.093 325.864 778.809C322.773 777.525 320.357 775.625 318.618 773.108C316.895 770.575 315.991 767.441 315.906 763.708H326.523C326.641 765.448 327.139 766.901 328.018 768.066C328.913 769.215 330.104 770.085 331.59 770.676C333.094 771.25 334.791 771.537 336.683 771.537C338.541 771.537 340.154 771.267 341.523 770.727C342.908 770.186 343.98 769.434 344.74 768.472C345.501 767.509 345.881 766.402 345.881 765.152C345.881 763.987 345.534 763.007 344.842 762.213C344.166 761.419 343.169 760.744 341.852 760.186C340.551 759.629 338.955 759.122 337.063 758.666L331.413 757.247C327.038 756.183 323.584 754.519 321.05 752.256C318.516 749.992 317.258 746.943 317.275 743.109C317.258 739.967 318.094 737.222 319.783 734.874C321.489 732.526 323.829 730.694 326.802 729.376C329.774 728.058 333.153 727.4 336.936 727.4C340.788 727.4 344.149 728.058 347.021 729.376C349.909 730.694 352.156 732.526 353.76 734.874C355.365 737.222 356.193 739.942 356.244 743.033H345.729ZM385.177 728.109V780H374.206V738.523H373.902L362.019 745.972V736.242L374.865 728.109H385.177ZM396.083 780V772.095L414.554 754.992C416.125 753.472 417.442 752.104 418.507 750.887C419.588 749.671 420.407 748.48 420.964 747.315C421.522 746.132 421.8 744.857 421.8 743.489C421.8 741.969 421.454 740.66 420.762 739.562C420.069 738.447 419.123 737.594 417.924 737.003C416.725 736.394 415.365 736.09 413.844 736.09C412.257 736.09 410.872 736.411 409.689 737.053C408.507 737.695 407.595 738.616 406.953 739.815C406.311 741.014 405.99 742.442 405.99 744.097H395.576C395.576 740.702 396.345 737.754 397.882 735.254C399.419 732.754 401.573 730.82 404.343 729.452C407.113 728.084 410.306 727.4 413.921 727.4C417.637 727.4 420.871 728.058 423.625 729.376C426.395 730.677 428.549 732.484 430.086 734.798C431.623 737.112 432.391 739.764 432.391 742.754C432.391 744.714 432.003 746.648 431.226 748.556C430.466 750.465 429.106 752.585 427.147 754.916C425.187 757.23 422.425 760.009 418.861 763.252L411.285 770.676V771.031H433.076V780H396.083ZM477.387 725.677L460.664 787.804H451.366L468.088 725.677H477.387ZM496.247 780V741.082H506.534V747.948H506.99C507.801 745.668 509.152 743.869 511.044 742.551C512.936 741.234 515.199 740.575 517.835 740.575C520.503 740.575 522.775 741.242 524.65 742.577C526.525 743.894 527.775 745.685 528.4 747.948H528.806C529.6 745.719 531.035 743.936 533.113 742.602C535.208 741.251 537.682 740.575 540.537 740.575C544.169 740.575 547.116 741.732 549.38 744.046C551.66 746.344 552.8 749.604 552.8 753.827V780H542.032V755.955C542.032 753.793 541.457 752.171 540.309 751.09C539.16 750.009 537.724 749.468 536.001 749.468C534.042 749.468 532.513 750.093 531.415 751.343C530.317 752.577 529.768 754.207 529.768 756.234V780H519.304V755.727C519.304 753.818 518.755 752.298 517.657 751.166C516.576 750.034 515.149 749.468 513.375 749.468C512.176 749.468 511.095 749.773 510.132 750.381C509.186 750.972 508.434 751.808 507.877 752.889C507.32 753.953 507.041 755.203 507.041 756.639V780H496.247ZM577.483 780.76C573.548 780.76 570.144 779.924 567.272 778.252C564.418 776.563 562.213 774.215 560.659 771.208C559.105 768.184 558.328 764.679 558.328 760.693C558.328 756.673 559.105 753.159 560.659 750.153C562.213 747.129 564.418 744.781 567.272 743.109C570.144 741.42 573.548 740.575 577.483 740.575C581.419 740.575 584.814 741.42 587.669 743.109C590.54 744.781 592.753 747.129 594.307 750.153C595.861 753.159 596.638 756.673 596.638 760.693C596.638 764.679 595.861 768.184 594.307 771.208C592.753 774.215 590.54 776.563 587.669 778.252C584.814 779.924 581.419 780.76 577.483 780.76ZM577.534 772.399C579.324 772.399 580.819 771.892 582.019 770.879C583.218 769.848 584.122 768.446 584.73 766.673C585.355 764.899 585.667 762.88 585.667 760.617C585.667 758.353 585.355 756.335 584.73 754.561C584.122 752.788 583.218 751.386 582.019 750.355C580.819 749.325 579.324 748.81 577.534 748.81C575.727 748.81 574.206 749.325 572.973 750.355C571.757 751.386 570.836 752.788 570.211 754.561C569.603 756.335 569.299 758.353 569.299 760.617C569.299 762.88 569.603 764.899 570.211 766.673C570.836 768.446 571.757 769.848 572.973 770.879C574.206 771.892 575.727 772.399 577.534 772.399ZM613.023 757.5V780H602.23V741.082H612.517V747.948H612.973C613.834 745.685 615.279 743.894 617.306 742.577C619.332 741.242 621.79 740.575 624.679 740.575C627.381 740.575 629.738 741.166 631.748 742.349C633.758 743.531 635.32 745.22 636.435 747.416C637.55 749.595 638.107 752.196 638.107 755.22V780H627.314V757.146C627.331 754.764 626.723 752.906 625.489 751.571C624.256 750.22 622.559 749.544 620.397 749.544C618.944 749.544 617.66 749.857 616.545 750.482C615.447 751.107 614.586 752.019 613.961 753.218C613.353 754.401 613.04 755.828 613.023 757.5ZM665.888 741.082V749.19H642.451V741.082H665.888ZM647.772 731.758H658.566V768.041C658.566 769.037 658.718 769.814 659.022 770.372C659.326 770.912 659.748 771.292 660.289 771.512C660.846 771.732 661.488 771.841 662.214 771.841C662.721 771.841 663.228 771.799 663.734 771.715C664.241 771.613 664.63 771.537 664.9 771.487L666.598 779.519C666.057 779.688 665.297 779.882 664.317 780.101C663.337 780.338 662.147 780.481 660.745 780.532C658.143 780.633 655.863 780.287 653.904 779.493C651.961 778.699 650.449 777.466 649.368 775.794C648.287 774.122 647.755 772.01 647.772 769.46V731.758ZM683.122 757.5V780H672.328V728.109H682.818V747.948H683.274C684.152 745.651 685.571 743.852 687.531 742.551C689.49 741.234 691.948 740.575 694.904 740.575C697.607 740.575 699.963 741.166 701.973 742.349C704 743.514 705.571 745.195 706.686 747.391C707.818 749.57 708.375 752.18 708.358 755.22V780H697.564V757.146C697.581 754.747 696.973 752.881 695.74 751.546C694.524 750.212 692.818 749.544 690.622 749.544C689.152 749.544 687.852 749.857 686.72 750.482C685.605 751.107 684.727 752.019 684.085 753.218C683.46 754.401 683.139 755.828 683.122 757.5ZM753.113 725.677L736.39 787.804H727.092L743.814 725.677H753.113ZM792.674 741.082V749.19H769.237V741.082H792.674ZM774.558 731.758H785.351V768.041C785.351 769.037 785.503 769.814 785.807 770.372C786.111 770.912 786.534 771.292 787.074 771.512C787.632 771.732 788.273 771.841 789 771.841C789.507 771.841 790.013 771.799 790.52 771.715C791.027 771.613 791.415 771.537 791.686 771.487L793.383 779.519C792.843 779.688 792.083 779.882 791.103 780.101C790.123 780.338 788.932 780.481 787.53 780.532C784.929 780.633 782.649 780.287 780.689 779.493C778.747 778.699 777.235 777.466 776.154 775.794C775.073 774.122 774.541 772.01 774.558 769.46V731.758ZM815.596 780.76C811.593 780.76 808.147 779.949 805.258 778.328C802.387 776.689 800.174 774.375 798.62 771.385C797.066 768.379 796.289 764.823 796.289 760.718C796.289 756.715 797.066 753.202 798.62 750.178C800.174 747.154 802.361 744.798 805.182 743.109C808.02 741.42 811.348 740.575 815.165 740.575C817.733 740.575 820.123 740.989 822.336 741.817C824.565 742.627 826.508 743.852 828.163 745.491C829.836 747.129 831.136 749.19 832.065 751.673C832.994 754.139 833.459 757.027 833.459 760.338V763.303H800.596V756.614H823.298C823.298 755.06 822.961 753.683 822.285 752.484C821.609 751.284 820.672 750.347 819.473 749.671C818.29 748.979 816.913 748.632 815.343 748.632C813.704 748.632 812.251 749.012 810.985 749.773C809.735 750.516 808.755 751.521 808.045 752.788C807.336 754.038 806.973 755.431 806.956 756.968V763.328C806.956 765.254 807.311 766.917 808.02 768.319C808.746 769.721 809.768 770.803 811.086 771.563C812.403 772.323 813.966 772.703 815.773 772.703C816.973 772.703 818.071 772.534 819.067 772.196C820.064 771.858 820.917 771.352 821.626 770.676C822.336 770 822.876 769.173 823.248 768.193L833.231 768.852C832.724 771.25 831.685 773.345 830.114 775.135C828.56 776.909 826.55 778.294 824.084 779.291C821.635 780.27 818.805 780.76 815.596 780.76ZM849.869 757.5V780H839.076V741.082H849.363V747.948H849.819C850.68 745.685 852.124 743.894 854.151 742.577C856.178 741.242 858.636 740.575 861.524 740.575C864.227 740.575 866.583 741.166 868.594 742.349C870.604 743.531 872.166 745.22 873.281 747.416C874.396 749.595 874.953 752.196 874.953 755.22V780H864.16V757.146C864.176 754.764 863.568 752.906 862.335 751.571C861.102 750.22 859.405 749.544 857.242 749.544C855.79 749.544 854.506 749.857 853.391 750.482C852.293 751.107 851.432 752.019 850.807 753.218C850.199 754.401 849.886 755.828 849.869 757.5ZM893.131 780.735C890.648 780.735 888.435 780.304 886.493 779.443C884.55 778.564 883.013 777.272 881.881 775.566C880.766 773.843 880.209 771.698 880.209 769.13C880.209 766.968 880.606 765.152 881.4 763.683C882.194 762.213 883.275 761.031 884.643 760.136C886.011 759.24 887.565 758.565 889.305 758.109C891.062 757.652 892.903 757.332 894.829 757.146C897.092 756.909 898.916 756.69 900.301 756.487C901.687 756.267 902.692 755.946 903.317 755.524C903.942 755.102 904.254 754.477 904.254 753.649V753.497C904.254 751.892 903.747 750.651 902.734 749.773C901.737 748.894 900.318 748.455 898.477 748.455C896.535 748.455 894.989 748.886 893.84 749.747C892.692 750.592 891.932 751.656 891.56 752.94L881.577 752.129C882.084 749.764 883.081 747.72 884.567 745.997C886.053 744.257 887.971 742.923 890.319 741.994C892.683 741.048 895.42 740.575 898.528 740.575C900.69 740.575 902.759 740.828 904.736 741.335C906.729 741.842 908.494 742.627 910.031 743.692C911.585 744.756 912.81 746.124 913.705 747.796C914.6 749.452 915.048 751.436 915.048 753.75V780H904.812V774.603H904.507C903.882 775.819 903.046 776.892 901.999 777.821C900.952 778.733 899.693 779.451 898.224 779.975C896.754 780.481 895.057 780.735 893.131 780.735ZM896.222 773.286C897.81 773.286 899.212 772.973 900.428 772.348C901.644 771.706 902.599 770.845 903.291 769.764C903.984 768.683 904.33 767.458 904.33 766.09V761.96C903.992 762.179 903.528 762.382 902.937 762.568C902.362 762.737 901.712 762.897 900.986 763.049C900.259 763.184 899.533 763.311 898.807 763.429C898.08 763.531 897.421 763.624 896.83 763.708C895.563 763.894 894.457 764.189 893.511 764.595C892.565 765 891.83 765.549 891.307 766.242C890.783 766.917 890.521 767.762 890.521 768.776C890.521 770.245 891.053 771.368 892.118 772.145C893.199 772.906 894.567 773.286 896.222 773.286ZM932.789 757.5V780H921.995V741.082H932.282V747.948H932.738C933.599 745.685 935.044 743.894 937.071 742.577C939.098 741.242 941.555 740.575 944.444 740.575C947.146 740.575 949.503 741.166 951.513 742.349C953.523 743.531 955.085 745.22 956.2 747.416C957.315 749.595 957.873 752.196 957.873 755.22V780H947.079V757.146C947.096 754.764 946.488 752.906 945.255 751.571C944.021 750.22 942.324 749.544 940.162 749.544C938.709 749.544 937.425 749.857 936.31 750.482C935.213 751.107 934.351 752.019 933.726 753.218C933.118 754.401 932.805 755.828 932.789 757.5ZM985.653 741.082V749.19H962.216V741.082H985.653ZM967.537 731.758H978.331V768.041C978.331 769.037 978.483 769.814 978.787 770.372C979.091 770.912 979.513 771.292 980.054 771.512C980.611 771.732 981.253 771.841 981.979 771.841C982.486 771.841 982.993 771.799 983.499 771.715C984.006 771.613 984.395 771.537 984.665 771.487L986.363 779.519C985.822 779.688 985.062 779.882 984.082 780.101C983.103 780.338 981.912 780.481 980.51 780.532C977.908 780.633 975.628 780.287 973.669 779.493C971.726 778.699 970.214 777.466 969.133 775.794C968.052 774.122 967.52 772.01 967.537 769.46V731.758Z" fill="#AAAAAA"/>
<rect x="175" y="473" width="826" height="28" fill="black"/>
<path d="M391.482 51.6137H385.431C385.321 50.8309 385.095 50.1356 384.754 49.5278C384.414 48.9107 383.976 48.3858 383.442 47.953C382.908 47.5201 382.291 47.1886 381.591 46.9584C380.9 46.7281 380.15 46.613 379.339 46.613C377.875 46.613 376.6 46.9768 375.513 47.7043C374.426 48.4227 373.584 49.4725 372.985 50.8539C372.386 52.2261 372.087 53.893 372.087 55.8545C372.087 57.8714 372.386 59.5659 372.985 60.9381C373.593 62.3103 374.44 63.3463 375.527 64.0462C376.613 64.7461 377.87 65.0961 379.298 65.0961C380.099 65.0961 380.84 64.9902 381.522 64.7783C382.213 64.5665 382.825 64.258 383.359 63.8528C383.893 63.4384 384.335 62.9365 384.685 62.3471C385.045 61.7577 385.293 61.0854 385.431 60.3303L391.482 60.3579C391.325 61.6564 390.934 62.9089 390.308 64.1153C389.691 65.3125 388.857 66.3854 387.807 67.3339C386.767 68.2733 385.523 69.0192 384.078 69.5718C382.641 70.1151 381.015 70.3868 379.201 70.3868C376.678 70.3868 374.422 69.8158 372.432 68.6739C370.452 67.5319 368.887 65.8788 367.736 63.7147C366.594 61.5505 366.023 58.9304 366.023 55.8545C366.023 52.7694 366.603 50.1448 367.763 47.9806C368.924 45.8164 370.498 44.168 372.488 43.0352C374.477 41.8933 376.715 41.3223 379.201 41.3223C380.84 41.3223 382.36 41.5525 383.76 42.013C385.169 42.4735 386.417 43.1457 387.503 44.0298C388.59 44.9047 389.474 45.9776 390.156 47.2485C390.846 48.5194 391.288 49.9744 391.482 51.6137ZM421.036 55.8545C421.036 58.9397 420.451 61.5643 419.281 63.7285C418.121 65.8927 416.537 67.5457 414.529 68.6877C412.531 69.8204 410.284 70.3868 407.788 70.3868C405.274 70.3868 403.018 69.8158 401.019 68.6739C399.021 67.5319 397.442 65.8788 396.281 63.7147C395.121 61.5505 394.541 58.9304 394.541 55.8545C394.541 52.7694 395.121 50.1448 396.281 47.9806C397.442 45.8164 399.021 44.168 401.019 43.0352C403.018 41.8933 405.274 41.3223 407.788 41.3223C410.284 41.3223 412.531 41.8933 414.529 43.0352C416.537 44.168 418.121 45.8164 419.281 47.9806C420.451 50.1448 421.036 52.7694 421.036 55.8545ZM414.971 55.8545C414.971 53.8561 414.672 52.1708 414.074 50.7986C413.484 49.4265 412.651 48.3858 411.573 47.6767C410.496 46.9676 409.234 46.613 407.788 46.613C406.342 46.613 405.081 46.9676 404.003 47.6767C402.926 48.3858 402.088 49.4265 401.489 50.7986C400.9 52.1708 400.605 53.8561 400.605 55.8545C400.605 57.853 400.9 59.5383 401.489 60.9104C402.088 62.2826 402.926 63.3233 404.003 64.0324C405.081 64.7415 406.342 65.0961 407.788 65.0961C409.234 65.0961 410.496 64.7415 411.573 64.0324C412.651 63.3233 413.484 62.2826 414.074 60.9104C414.672 59.5383 414.971 57.853 414.971 55.8545ZM440.081 49.8455C439.97 48.7312 439.496 47.8655 438.658 47.2485C437.82 46.6314 436.683 46.3229 435.246 46.3229C434.27 46.3229 433.446 46.4611 432.773 46.7374C432.101 47.0044 431.585 47.3774 431.226 47.8563C430.876 48.3352 430.701 48.8785 430.701 49.4863C430.683 49.9928 430.789 50.4349 431.019 50.8125C431.258 51.19 431.585 51.517 432 51.7933C432.414 52.0603 432.893 52.2952 433.436 52.4978C433.98 52.6912 434.56 52.8569 435.177 52.9951L437.719 53.6029C438.953 53.8792 440.085 54.2475 441.117 54.708C442.148 55.1685 443.042 55.7348 443.797 56.4071C444.552 57.0794 445.137 57.8714 445.551 58.7831C445.975 59.6948 446.191 60.7401 446.2 61.9189C446.191 63.6502 445.749 65.1513 444.874 66.4222C444.009 67.6839 442.756 68.6647 441.117 69.3646C439.487 70.0553 437.521 70.4006 435.218 70.4006C432.934 70.4006 430.945 70.0507 429.251 69.3507C427.565 68.6508 426.248 67.6148 425.3 66.2426C424.361 64.8612 423.868 63.1529 423.822 61.1176H429.61C429.674 62.0662 429.946 62.8582 430.425 63.4936C430.913 64.1199 431.562 64.5942 432.373 64.9165C433.192 65.2296 434.118 65.3862 435.149 65.3862C436.162 65.3862 437.042 65.2388 437.788 64.9441C438.543 64.6494 439.128 64.2396 439.542 63.7147C439.956 63.1897 440.164 62.5865 440.164 61.905C440.164 61.2696 439.975 60.7355 439.597 60.3026C439.229 59.8698 438.686 59.5014 437.967 59.1975C437.258 58.8936 436.388 58.6173 435.356 58.3687L432.276 57.5951C429.891 57.0149 428.007 56.1078 426.626 54.8738C425.245 53.6397 424.559 51.9774 424.568 49.8869C424.559 48.174 425.014 46.6775 425.935 45.3974C426.865 44.1173 428.141 43.1181 429.762 42.3998C431.383 41.6815 433.224 41.3223 435.287 41.3223C437.387 41.3223 439.22 41.6815 440.785 42.3998C442.36 43.1181 443.585 44.1173 444.46 45.3974C445.335 46.6775 445.786 48.1602 445.814 49.8455H440.081ZM448.413 46.6407V41.7091H471.648V46.6407H462.987V70H457.074V46.6407H448.413ZM490.089 49.8455C489.978 48.7312 489.504 47.8655 488.666 47.2485C487.828 46.6314 486.691 46.3229 485.254 46.3229C484.278 46.3229 483.454 46.4611 482.781 46.7374C482.109 47.0044 481.593 47.3774 481.234 47.8563C480.884 48.3352 480.709 48.8785 480.709 49.4863C480.691 49.9928 480.797 50.4349 481.027 50.8125C481.266 51.19 481.593 51.517 482.008 51.7933C482.422 52.0603 482.901 52.2952 483.444 52.4978C483.988 52.6912 484.568 52.8569 485.185 52.9951L487.727 53.6029C488.961 53.8792 490.093 54.2475 491.125 54.708C492.156 55.1685 493.05 55.7348 493.805 56.4071C494.56 57.0794 495.145 57.8714 495.559 58.7831C495.983 59.6948 496.199 60.7401 496.208 61.9189C496.199 63.6502 495.757 65.1513 494.882 66.4222C494.017 67.6839 492.764 68.6647 491.125 69.3646C489.495 70.0553 487.529 70.4006 485.226 70.4006C482.942 70.4006 480.953 70.0507 479.259 69.3507C477.573 68.6508 476.257 67.6148 475.308 66.2426C474.369 64.8612 473.876 63.1529 473.83 61.1176H479.618C479.682 62.0662 479.954 62.8582 480.433 63.4936C480.921 64.1199 481.57 64.5942 482.381 64.9165C483.2 65.2296 484.126 65.3862 485.157 65.3862C486.17 65.3862 487.05 65.2388 487.796 64.9441C488.551 64.6494 489.136 64.2396 489.55 63.7147C489.965 63.1897 490.172 62.5865 490.172 61.905C490.172 61.2696 489.983 60.7355 489.605 60.3026C489.237 59.8698 488.694 59.5014 487.975 59.1975C487.266 58.8936 486.396 58.6173 485.364 58.3687L482.284 57.5951C479.899 57.0149 478.015 56.1078 476.634 54.8738C475.253 53.6397 474.567 51.9774 474.576 49.8869C474.567 48.174 475.022 46.6775 475.943 45.3974C476.874 44.1173 478.149 43.1181 479.77 42.3998C481.391 41.6815 483.233 41.3223 485.295 41.3223C487.395 41.3223 489.228 41.6815 490.793 42.3998C492.368 43.1181 493.593 44.1173 494.468 45.3974C495.343 46.6775 495.794 48.1602 495.822 49.8455H490.089ZM507.769 70V41.7091H526.501V46.6407H513.75V53.3819H525.257V58.3134H513.75V70H507.769ZM555.789 55.8545C555.789 58.9397 555.204 61.5643 554.034 63.7285C552.874 65.8927 551.29 67.5457 549.282 68.6877C547.284 69.8204 545.037 70.3868 542.541 70.3868C540.027 70.3868 537.771 69.8158 535.772 68.6739C533.774 67.5319 532.194 65.8788 531.034 63.7147C529.874 61.5505 529.294 58.9304 529.294 55.8545C529.294 52.7694 529.874 50.1448 531.034 47.9806C532.194 45.8164 533.774 44.168 535.772 43.0352C537.771 41.8933 540.027 41.3223 542.541 41.3223C545.037 41.3223 547.284 41.8933 549.282 43.0352C551.29 44.168 552.874 45.8164 554.034 47.9806C555.204 50.1448 555.789 52.7694 555.789 55.8545ZM549.724 55.8545C549.724 53.8561 549.425 52.1708 548.826 50.7986C548.237 49.4265 547.404 48.3858 546.326 47.6767C545.249 46.9676 543.987 46.613 542.541 46.613C541.095 46.613 539.834 46.9676 538.756 47.6767C537.679 48.3858 536.841 49.4265 536.242 50.7986C535.653 52.1708 535.358 53.8561 535.358 55.8545C535.358 57.853 535.653 59.5383 536.242 60.9104C536.841 62.2826 537.679 63.3233 538.756 64.0324C539.834 64.7415 541.095 65.0961 542.541 65.0961C543.987 65.0961 545.249 64.7415 546.326 64.0324C547.404 63.3233 548.237 62.2826 548.826 60.9104C549.425 59.5383 549.724 57.853 549.724 55.8545ZM559.486 70V41.7091H570.648C572.785 41.7091 574.608 42.0913 576.118 42.8556C577.638 43.6108 578.794 44.6837 579.586 46.0743C580.387 47.4557 580.787 49.0811 580.787 50.9506C580.787 52.8293 580.382 54.4455 579.572 55.7993C578.761 57.1438 577.587 58.1753 576.049 58.8936C574.521 59.6119 572.669 59.9711 570.496 59.9711H563.023V55.1638H569.529C570.671 55.1638 571.62 55.0073 572.375 54.6942C573.13 54.3811 573.692 53.9114 574.06 53.2852C574.438 52.6589 574.626 51.8807 574.626 50.9506C574.626 50.0113 574.438 49.2193 574.06 48.5746C573.692 47.93 573.125 47.4419 572.361 47.1103C571.606 46.7696 570.653 46.5992 569.501 46.5992H565.468V70H559.486ZM574.765 57.1254L581.796 70H575.193L568.314 57.1254H574.765ZM602.719 70.3868C600.766 70.3868 599.026 70.0276 597.497 69.3093C595.978 68.591 594.771 67.601 593.878 66.3393C592.984 65.0776 592.519 63.6318 592.483 62.0017H598.284C598.349 63.0976 598.809 63.9863 599.666 64.6678C600.522 65.3493 601.54 65.6901 602.719 65.6901C603.658 65.6901 604.487 65.4828 605.205 65.0684C605.933 64.6448 606.499 64.06 606.904 63.3141C607.319 62.5589 607.526 61.6932 607.526 60.717C607.526 59.7224 607.314 58.8476 606.891 58.0924C606.476 57.3372 605.901 56.7478 605.164 56.3242C604.427 55.9006 603.584 55.6842 602.636 55.675C601.807 55.675 601.001 55.8453 600.218 56.1861C599.445 56.5268 598.842 56.9919 598.409 57.5813L593.09 56.6281L594.43 41.7091H611.725V46.5992H599.362L598.63 53.6858H598.796C599.293 52.9859 600.043 52.4057 601.047 51.9452C602.051 51.4847 603.175 51.2545 604.418 51.2545C606.122 51.2545 607.641 51.6551 608.976 52.4563C610.312 53.2575 611.366 54.358 612.14 55.7578C612.913 57.1484 613.296 58.7509 613.286 60.5651C613.296 62.4714 612.854 64.1659 611.96 65.6486C611.076 67.1221 609.837 68.2825 608.244 69.1297C606.66 69.9678 604.818 70.3868 602.719 70.3868ZM627.818 70.6216C625.442 70.6124 623.397 70.0276 621.684 68.8673C619.981 67.7069 618.668 66.0262 617.747 63.8252C616.836 61.6242 616.384 58.9765 616.394 55.8822C616.394 52.7971 616.849 50.1678 617.761 47.9944C618.682 45.821 619.994 44.168 621.698 43.0352C623.411 41.8933 625.451 41.3223 627.818 41.3223C630.184 41.3223 632.22 41.8933 633.923 43.0352C635.636 44.1772 636.953 45.8348 637.874 48.0082C638.795 50.1724 639.251 52.7971 639.242 55.8822C639.242 58.9857 638.781 61.638 637.86 63.839C636.949 66.04 635.641 67.7207 633.937 68.8811C632.234 70.0414 630.194 70.6216 627.818 70.6216ZM627.818 65.6624C629.439 65.6624 630.732 64.8474 631.699 63.2174C632.666 61.5873 633.145 59.1423 633.136 55.8822C633.136 53.7364 632.915 51.9498 632.473 50.5224C632.04 49.0949 631.423 48.0221 630.622 47.3037C629.83 46.5854 628.895 46.2262 627.818 46.2262C626.206 46.2262 624.917 47.0321 623.95 48.6437C622.983 50.2553 622.495 52.6681 622.486 55.8822C622.486 58.0556 622.702 59.8698 623.135 61.3249C623.577 62.7707 624.198 63.8574 625 64.5849C625.801 65.3033 626.74 65.6624 627.818 65.6624ZM650.132 46.6407V41.7091H673.367V46.6407H664.706V70H658.794V46.6407H650.132ZM676.461 70V41.7091H695.524V46.6407H682.442V53.3819H694.543V58.3134H682.442V65.0684H695.579V70H676.461ZM723.21 41.7091V70H718.043L705.735 52.1939H705.528V70H699.546V41.7091H704.796L717.007 59.5014H717.256V41.7091H723.21ZM732.295 70H725.885L735.652 41.7091H743.36L753.112 70H746.703L739.616 48.174H739.395L732.295 70ZM731.894 58.8798H747.034V63.5489H731.894V58.8798ZM779.448 41.7091V70H774.281L761.973 52.1939H761.766V70H755.784V41.7091H761.034L773.245 59.5014H773.494V41.7091H779.448ZM782.579 46.6407V41.7091H805.814V46.6407H797.153V70H791.24V46.6407H782.579ZM824.255 49.8455C824.144 48.7312 823.67 47.8655 822.832 47.2485C821.994 46.6314 820.857 46.3229 819.42 46.3229C818.444 46.3229 817.62 46.4611 816.947 46.7374C816.275 47.0044 815.759 47.3774 815.4 47.8563C815.05 48.3352 814.875 48.8785 814.875 49.4863C814.857 49.9928 814.963 50.4349 815.193 50.8125C815.432 51.19 815.759 51.517 816.174 51.7933C816.588 52.0603 817.067 52.2952 817.61 52.4978C818.154 52.6912 818.734 52.8569 819.351 52.9951L821.893 53.6029C823.127 53.8792 824.259 54.2475 825.291 54.708C826.322 55.1685 827.216 55.7348 827.971 56.4071C828.726 57.0794 829.311 57.8714 829.725 58.7831C830.149 59.6948 830.365 60.7401 830.374 61.9189C830.365 63.6502 829.923 65.1513 829.048 66.4222C828.183 67.6839 826.93 68.6647 825.291 69.3646C823.661 70.0553 821.695 70.4006 819.392 70.4006C817.108 70.4006 815.119 70.0507 813.425 69.3507C811.739 68.6508 810.423 67.6148 809.474 66.2426C808.535 64.8612 808.042 63.1529 807.996 61.1176H813.784C813.848 62.0662 814.12 62.8582 814.599 63.4936C815.087 64.1199 815.736 64.5942 816.547 64.9165C817.366 65.2296 818.292 65.3862 819.323 65.3862C820.336 65.3862 821.216 65.2388 821.962 64.9441C822.717 64.6494 823.302 64.2396 823.716 63.7147C824.131 63.1897 824.338 62.5865 824.338 61.905C824.338 61.2696 824.149 60.7355 823.771 60.3026C823.403 59.8698 822.86 59.5014 822.141 59.1975C821.432 58.8936 820.562 58.6173 819.531 58.3687L816.45 57.5951C814.065 57.0149 812.182 56.1078 810.8 54.8738C809.419 53.6397 808.733 51.9774 808.742 49.8869C808.733 48.174 809.188 46.6775 810.109 45.3974C811.04 44.1173 812.315 43.1181 813.936 42.3998C815.557 41.6815 817.399 41.3223 819.461 41.3223C821.561 41.3223 823.394 41.6815 824.959 42.3998C826.534 43.1181 827.759 44.1173 828.634 45.3974C829.509 46.6775 829.96 48.1602 829.988 49.8455H824.255Z" fill="#949494"/>
</svg>
