<svg width="1200" height="900" viewBox="0 0 1200 900" fill="none" xmlns="http://www.w3.org/2000/svg">
<rect width="1200" height="900" fill="white"/>
<path d="M77.321 229.273H96.2841L116.312 278.136H117.165L137.193 229.273H156.156V302H141.241V254.663H140.638L121.817 301.645H111.661L92.8395 254.486H92.2358V302H77.321V229.273ZM199.572 278.776V247.455H214.7V302H200.176V292.092H199.608C198.377 295.288 196.329 297.857 193.464 299.798C190.623 301.74 187.155 302.71 183.059 302.71C179.414 302.71 176.206 301.882 173.436 300.224C170.666 298.567 168.5 296.212 166.937 293.158C165.398 290.104 164.617 286.446 164.593 282.185V247.455H179.721V279.486C179.745 282.705 180.609 285.25 182.314 287.121C184.018 288.991 186.303 289.926 189.167 289.926C190.99 289.926 192.695 289.512 194.281 288.683C195.867 287.831 197.146 286.576 198.116 284.919C199.111 283.262 199.596 281.214 199.572 278.776ZM237.981 229.273V302H222.853V229.273H237.981ZM275.165 247.455V258.818H242.317V247.455H275.165ZM249.774 234.386H264.902V285.239C264.902 286.635 265.115 287.724 265.541 288.506C265.967 289.263 266.559 289.796 267.317 290.104C268.098 290.411 268.998 290.565 270.015 290.565C270.726 290.565 271.436 290.506 272.146 290.388C272.856 290.246 273.401 290.139 273.78 290.068L276.159 301.325C275.401 301.562 274.336 301.834 272.963 302.142C271.59 302.473 269.921 302.675 267.956 302.746C264.31 302.888 261.114 302.402 258.368 301.29C255.645 300.177 253.526 298.449 252.011 296.105C250.496 293.761 249.75 290.802 249.774 287.227V234.386ZM281.072 302V247.455H296.2V302H281.072ZM288.671 240.423C286.422 240.423 284.493 239.678 282.883 238.186C281.297 236.671 280.503 234.86 280.503 232.753C280.503 230.67 281.297 228.882 282.883 227.391C284.493 225.875 286.422 225.118 288.671 225.118C290.92 225.118 292.838 225.875 294.424 227.391C296.034 228.882 296.839 230.67 296.839 232.753C296.839 234.86 296.034 236.671 294.424 238.186C292.838 239.678 290.92 240.423 288.671 240.423ZM338.355 266.134V278.136H305.187V266.134H338.355ZM376.311 247.455V258.818H343.463V247.455H376.311ZM350.92 234.386H366.048V285.239C366.048 286.635 366.261 287.724 366.687 288.506C367.113 289.263 367.705 289.796 368.463 290.104C369.244 290.411 370.144 290.565 371.162 290.565C371.872 290.565 372.582 290.506 373.292 290.388C374.003 290.246 374.547 290.139 374.926 290.068L377.305 301.325C376.548 301.562 375.482 301.834 374.109 302.142C372.736 302.473 371.067 302.675 369.102 302.746C365.456 302.888 362.26 302.402 359.514 301.29C356.791 300.177 354.673 298.449 353.157 296.105C351.642 293.761 350.897 290.802 350.92 287.227V234.386ZM406.49 303.065C400.879 303.065 396.05 301.929 392.001 299.656C387.977 297.36 384.875 294.116 382.697 289.926C380.519 285.712 379.43 280.729 379.43 274.976C379.43 269.365 380.519 264.441 382.697 260.203C384.875 255.965 387.941 252.663 391.895 250.295C395.872 247.928 400.536 246.744 405.886 246.744C409.485 246.744 412.835 247.324 415.936 248.484C419.061 249.621 421.783 251.337 424.104 253.634C426.447 255.93 428.27 258.818 429.572 262.298C430.874 265.755 431.525 269.803 431.525 274.443V278.598H385.467V269.223H417.285C417.285 267.045 416.812 265.116 415.865 263.435C414.918 261.754 413.604 260.44 411.923 259.493C410.266 258.522 408.336 258.037 406.135 258.037C403.838 258.037 401.802 258.57 400.027 259.635C398.275 260.677 396.902 262.085 395.908 263.861C394.913 265.613 394.404 267.566 394.381 269.72V278.634C394.381 281.332 394.878 283.664 395.872 285.629C396.89 287.594 398.322 289.109 400.169 290.175C402.015 291.24 404.205 291.773 406.738 291.773C408.419 291.773 409.958 291.536 411.355 291.062C412.752 290.589 413.947 289.879 414.942 288.932C415.936 287.985 416.693 286.825 417.214 285.452L431.206 286.375C430.496 289.737 429.04 292.672 426.838 295.182C424.66 297.668 421.843 299.609 418.386 301.006C414.953 302.379 410.988 303.065 406.49 303.065ZM452.578 270.466V302H437.45V247.455H451.868V257.078H452.507C453.714 253.906 455.739 251.396 458.579 249.55C461.42 247.679 464.865 246.744 468.913 246.744C472.701 246.744 476.004 247.573 478.821 249.23C481.638 250.887 483.828 253.255 485.391 256.332C486.953 259.386 487.734 263.032 487.734 267.27V302H472.606V269.969C472.63 266.631 471.778 264.027 470.05 262.156C468.321 260.262 465.942 259.315 462.912 259.315C460.876 259.315 459.077 259.753 457.514 260.629C455.975 261.505 454.768 262.784 453.892 264.464C453.04 266.122 452.602 268.122 452.578 270.466ZM511.264 303.03C507.784 303.03 504.682 302.426 501.96 301.219C499.237 299.988 497.083 298.177 495.497 295.786C493.934 293.371 493.153 290.364 493.153 286.766C493.153 283.735 493.709 281.19 494.822 279.131C495.935 277.071 497.45 275.414 499.368 274.159C501.285 272.904 503.463 271.957 505.902 271.318C508.364 270.679 510.944 270.229 513.643 269.969C516.815 269.637 519.372 269.33 521.314 269.045C523.255 268.738 524.663 268.288 525.539 267.696C526.415 267.104 526.853 266.228 526.853 265.068V264.855C526.853 262.606 526.143 260.866 524.723 259.635C523.326 258.404 521.337 257.788 518.757 257.788C516.034 257.788 513.868 258.392 512.258 259.599C510.648 260.783 509.583 262.275 509.062 264.074L495.071 262.938C495.781 259.623 497.178 256.759 499.261 254.344C501.344 251.905 504.031 250.035 507.322 248.733C510.636 247.407 514.472 246.744 518.828 246.744C521.858 246.744 524.758 247.099 527.528 247.81C530.322 248.52 532.796 249.621 534.95 251.112C537.128 252.604 538.844 254.521 540.099 256.865C541.354 259.185 541.981 261.967 541.981 265.21V302H527.635V294.436H527.208C526.332 296.141 525.161 297.644 523.693 298.946C522.225 300.224 520.461 301.231 518.402 301.964C516.342 302.675 513.963 303.03 511.264 303.03ZM515.596 292.589C517.822 292.589 519.787 292.152 521.491 291.276C523.196 290.376 524.533 289.169 525.504 287.653C526.475 286.138 526.96 284.422 526.96 282.504V276.716C526.486 277.024 525.835 277.308 525.007 277.568C524.202 277.805 523.29 278.03 522.272 278.243C521.254 278.432 520.236 278.61 519.218 278.776C518.2 278.918 517.277 279.048 516.448 279.166C514.673 279.427 513.122 279.841 511.796 280.409C510.471 280.977 509.441 281.747 508.707 282.717C507.973 283.664 507.606 284.848 507.606 286.268C507.606 288.328 508.352 289.902 509.843 290.991C511.359 292.057 513.276 292.589 515.596 292.589ZM564.898 270.466V302H549.77V247.455H564.188V257.078H564.827C566.034 253.906 568.059 251.396 570.9 249.55C573.74 247.679 577.185 246.744 581.233 246.744C585.021 246.744 588.324 247.573 591.141 249.23C593.958 250.887 596.148 253.255 597.711 256.332C599.273 259.386 600.054 263.032 600.054 267.27V302H584.927V269.969C584.95 266.631 584.098 264.027 582.37 262.156C580.641 260.262 578.262 259.315 575.232 259.315C573.196 259.315 571.397 259.753 569.834 260.629C568.295 261.505 567.088 262.784 566.212 264.464C565.36 266.122 564.922 268.122 564.898 270.466ZM637.043 247.455V258.818H604.195V247.455H637.043ZM611.652 234.386H626.78V285.239C626.78 286.635 626.993 287.724 627.419 288.506C627.845 289.263 628.437 289.796 629.195 290.104C629.976 290.411 630.876 290.565 631.894 290.565C632.604 290.565 633.314 290.506 634.024 290.388C634.735 290.246 635.279 290.139 635.658 290.068L638.037 301.325C637.28 301.562 636.214 301.834 634.841 302.142C633.468 302.473 631.799 302.675 629.834 302.746C626.188 302.888 622.992 302.402 620.246 301.29C617.523 300.177 615.405 298.449 613.889 296.105C612.374 293.761 611.628 290.802 611.652 287.227V234.386ZM662.147 322.455V247.455H677.062V256.616H677.736C678.399 255.149 679.358 253.657 680.613 252.142C681.891 250.603 683.548 249.325 685.584 248.307C687.644 247.265 690.201 246.744 693.255 246.744C697.232 246.744 700.902 247.786 704.263 249.869C707.625 251.929 710.312 255.042 712.324 259.209C714.337 263.352 715.343 268.548 715.343 274.798C715.343 280.883 714.36 286.02 712.395 290.21C710.454 294.377 707.803 297.537 704.441 299.692C701.103 301.822 697.362 302.888 693.219 302.888C690.284 302.888 687.786 302.402 685.726 301.432C683.69 300.461 682.021 299.242 680.719 297.774C679.417 296.283 678.423 294.779 677.736 293.264H677.275V322.455H662.147ZM676.955 274.727C676.955 277.971 677.405 280.8 678.305 283.214C679.204 285.629 680.506 287.511 682.211 288.861C683.915 290.187 685.987 290.849 688.425 290.849C690.887 290.849 692.971 290.175 694.675 288.825C696.38 287.452 697.67 285.558 698.546 283.143C699.446 280.705 699.895 277.9 699.895 274.727C699.895 271.579 699.458 268.809 698.582 266.418C697.706 264.027 696.415 262.156 694.711 260.807C693.006 259.457 690.911 258.783 688.425 258.783C685.963 258.783 683.88 259.434 682.175 260.736C680.494 262.038 679.204 263.884 678.305 266.276C677.405 268.667 676.955 271.484 676.955 274.727ZM736.609 229.273V302H721.481V229.273H736.609ZM760.334 303.03C756.853 303.03 753.752 302.426 751.03 301.219C748.307 299.988 746.153 298.177 744.566 295.786C743.004 293.371 742.223 290.364 742.223 286.766C742.223 283.735 742.779 281.19 743.892 279.131C745.004 277.071 746.52 275.414 748.437 274.159C750.355 272.904 752.533 271.957 754.971 271.318C757.433 270.679 760.014 270.229 762.713 269.969C765.885 269.637 768.442 269.33 770.383 269.045C772.325 268.738 773.733 268.288 774.609 267.696C775.485 267.104 775.923 266.228 775.923 265.068V264.855C775.923 262.606 775.213 260.866 773.792 259.635C772.396 258.404 770.407 257.788 767.826 257.788C765.104 257.788 762.938 258.392 761.328 259.599C759.718 260.783 758.653 262.275 758.132 264.074L744.14 262.938C744.851 259.623 746.247 256.759 748.331 254.344C750.414 251.905 753.101 250.035 756.392 248.733C759.706 247.407 763.541 246.744 767.897 246.744C770.928 246.744 773.828 247.099 776.598 247.81C779.391 248.52 781.865 249.621 784.02 251.112C786.198 252.604 787.914 254.521 789.169 256.865C790.423 259.185 791.051 261.967 791.051 265.21V302H776.704V294.436H776.278C775.402 296.141 774.23 297.644 772.763 298.946C771.295 300.224 769.531 301.231 767.471 301.964C765.412 302.675 763.032 303.03 760.334 303.03ZM764.666 292.589C766.891 292.589 768.856 292.152 770.561 291.276C772.265 290.376 773.603 289.169 774.574 287.653C775.544 286.138 776.03 284.422 776.03 282.504V276.716C775.556 277.024 774.905 277.308 774.076 277.568C773.271 277.805 772.36 278.03 771.342 278.243C770.324 278.432 769.306 278.61 768.288 278.776C767.27 278.918 766.347 279.048 765.518 279.166C763.743 279.427 762.192 279.841 760.866 280.409C759.54 280.977 758.511 281.747 757.777 282.717C757.043 283.664 756.676 284.848 756.676 286.268C756.676 288.328 757.422 289.902 758.913 290.991C760.428 292.057 762.346 292.589 764.666 292.589ZM827.853 247.455V258.818H795.005V247.455H827.853ZM802.462 234.386H817.59V285.239C817.59 286.635 817.803 287.724 818.229 288.506C818.655 289.263 819.247 289.796 820.005 290.104C820.786 290.411 821.686 290.565 822.704 290.565C823.414 290.565 824.124 290.506 824.834 290.388C825.545 290.246 826.089 290.139 826.468 290.068L828.847 301.325C828.089 301.562 827.024 301.834 825.651 302.142C824.278 302.473 822.609 302.675 820.644 302.746C816.998 302.888 813.802 302.402 811.056 301.29C808.333 300.177 806.214 298.449 804.699 296.105C803.184 293.761 802.438 290.802 802.462 287.227V234.386ZM863.092 247.455V258.818H829.427V247.455H863.092ZM837.133 302V243.513C837.133 239.559 837.903 236.28 839.442 233.676C841.004 231.072 843.135 229.119 845.834 227.817C848.533 226.515 851.598 225.864 855.031 225.864C857.351 225.864 859.47 226.041 861.388 226.396C863.329 226.751 864.773 227.071 865.72 227.355L863.021 238.719C862.429 238.529 861.695 238.352 860.819 238.186C859.967 238.02 859.091 237.938 858.192 237.938C855.966 237.938 854.416 238.458 853.54 239.5C852.664 240.518 852.226 241.95 852.226 243.797V302H837.133ZM891.078 303.065C885.562 303.065 880.792 301.893 876.767 299.55C872.766 297.182 869.677 293.892 867.499 289.678C865.321 285.44 864.232 280.527 864.232 274.94C864.232 269.306 865.321 264.382 867.499 260.168C869.677 255.93 872.766 252.639 876.767 250.295C880.792 247.928 885.562 246.744 891.078 246.744C896.595 246.744 901.353 247.928 905.354 250.295C909.379 252.639 912.48 255.93 914.658 260.168C916.836 264.382 917.925 269.306 917.925 274.94C917.925 280.527 916.836 285.44 914.658 289.678C912.48 293.892 909.379 297.182 905.354 299.55C901.353 301.893 896.595 303.065 891.078 303.065ZM891.149 291.347C893.659 291.347 895.754 290.636 897.435 289.216C899.116 287.772 900.382 285.807 901.235 283.321C902.111 280.835 902.549 278.006 902.549 274.834C902.549 271.661 902.111 268.832 901.235 266.347C900.382 263.861 899.116 261.896 897.435 260.452C895.754 259.008 893.659 258.286 891.149 258.286C888.616 258.286 886.486 259.008 884.757 260.452C883.053 261.896 881.763 263.861 880.887 266.347C880.034 268.832 879.608 271.661 879.608 274.834C879.608 278.006 880.034 280.835 880.887 283.321C881.763 285.807 883.053 287.772 884.757 289.216C886.486 290.636 888.616 291.347 891.149 291.347ZM923.814 302V247.455H938.48V256.972H939.049C940.043 253.586 941.712 251.029 944.056 249.301C946.4 247.549 949.098 246.673 952.152 246.673C952.91 246.673 953.727 246.721 954.603 246.815C955.479 246.91 956.248 247.04 956.911 247.206V260.629C956.201 260.416 955.218 260.227 953.963 260.061C952.709 259.895 951.56 259.812 950.519 259.812C948.293 259.812 946.305 260.298 944.553 261.268C942.825 262.215 941.452 263.541 940.434 265.246C939.439 266.95 938.942 268.915 938.942 271.141V302H923.814ZM960.785 302V247.455H975.202V257.078H975.842C976.978 253.882 978.872 251.361 981.523 249.514C984.175 247.668 987.347 246.744 991.041 246.744C994.781 246.744 997.965 247.679 1000.59 249.55C1003.22 251.396 1004.97 253.906 1005.85 257.078H1006.42C1007.53 253.953 1009.54 251.455 1012.45 249.585C1015.39 247.691 1018.86 246.744 1022.86 246.744C1027.95 246.744 1032.08 248.366 1035.25 251.609C1038.45 254.829 1040.05 259.398 1040.05 265.317V302H1024.95V268.3C1024.95 265.269 1024.15 262.997 1022.54 261.482C1020.93 259.966 1018.92 259.209 1016.5 259.209C1013.76 259.209 1011.61 260.085 1010.07 261.837C1008.54 263.565 1007.77 265.849 1007.77 268.69V302H993.1V267.98C993.1 265.305 992.331 263.174 990.792 261.588C989.277 260.002 987.276 259.209 984.791 259.209C983.11 259.209 981.595 259.635 980.245 260.487C978.919 261.316 977.866 262.488 977.085 264.003C976.303 265.494 975.913 267.246 975.913 269.259V302H960.785ZM106.369 370.455V381.818H72.7045V370.455H106.369ZM80.4105 425V366.513C80.4105 362.559 81.1799 359.28 82.7188 356.676C84.2812 354.072 86.4119 352.119 89.1108 350.817C91.8097 349.515 94.8755 348.864 98.3082 348.864C100.628 348.864 102.747 349.041 104.665 349.396C106.606 349.751 108.05 350.071 108.997 350.355L106.298 361.719C105.706 361.529 104.973 361.352 104.097 361.186C103.244 361.02 102.368 360.938 101.469 360.938C99.2434 360.938 97.6927 361.458 96.8168 362.5C95.9408 363.518 95.5028 364.95 95.5028 366.797V425H80.4105ZM111.664 425V370.455H126.33V379.972H126.898C127.892 376.586 129.562 374.029 131.905 372.301C134.249 370.549 136.948 369.673 140.002 369.673C140.759 369.673 141.576 369.721 142.452 369.815C143.328 369.91 144.097 370.04 144.76 370.206V383.629C144.05 383.416 143.068 383.227 141.813 383.061C140.558 382.895 139.41 382.812 138.368 382.812C136.143 382.812 134.154 383.298 132.402 384.268C130.674 385.215 129.301 386.541 128.283 388.246C127.289 389.95 126.792 391.915 126.792 394.141V425H111.664ZM170.74 426.065C165.224 426.065 160.454 424.893 156.429 422.55C152.428 420.182 149.339 416.892 147.161 412.678C144.983 408.44 143.894 403.527 143.894 397.94C143.894 392.306 144.983 387.382 147.161 383.168C149.339 378.93 152.428 375.639 156.429 373.295C160.454 370.928 165.224 369.744 170.74 369.744C176.256 369.744 181.015 370.928 185.016 373.295C189.04 375.639 192.142 378.93 194.32 383.168C196.498 387.382 197.587 392.306 197.587 397.94C197.587 403.527 196.498 408.44 194.32 412.678C192.142 416.892 189.04 420.182 185.016 422.55C181.015 424.893 176.256 426.065 170.74 426.065ZM170.811 414.347C173.321 414.347 175.416 413.636 177.097 412.216C178.778 410.772 180.044 408.807 180.896 406.321C181.772 403.835 182.21 401.006 182.21 397.834C182.21 394.661 181.772 391.832 180.896 389.347C180.044 386.861 178.778 384.896 177.097 383.452C175.416 382.008 173.321 381.286 170.811 381.286C168.278 381.286 166.147 382.008 164.419 383.452C162.715 384.896 161.424 386.861 160.548 389.347C159.696 391.832 159.27 394.661 159.27 397.834C159.27 401.006 159.696 403.835 160.548 406.321C161.424 408.807 162.715 410.772 164.419 412.216C166.147 413.636 168.278 414.347 170.811 414.347ZM203.476 425V370.455H217.894V380.078H218.533C219.669 376.882 221.563 374.361 224.215 372.514C226.866 370.668 230.039 369.744 233.732 369.744C237.472 369.744 240.656 370.679 243.284 372.55C245.912 374.396 247.664 376.906 248.54 380.078H249.108C250.221 376.953 252.233 374.455 255.145 372.585C258.081 370.691 261.549 369.744 265.55 369.744C270.64 369.744 274.771 371.366 277.943 374.609C281.139 377.829 282.737 382.398 282.737 388.317V425H267.645V391.3C267.645 388.269 266.84 385.997 265.23 384.482C263.62 382.966 261.608 382.209 259.193 382.209C256.447 382.209 254.305 383.085 252.766 384.837C251.227 386.565 250.458 388.849 250.458 391.69V425H235.791V390.98C235.791 388.305 235.022 386.174 233.483 384.588C231.968 383.002 229.968 382.209 227.482 382.209C225.801 382.209 224.286 382.635 222.936 383.487C221.611 384.316 220.557 385.488 219.776 387.003C218.995 388.494 218.604 390.246 218.604 392.259V425H203.476ZM355.32 386.009L341.471 386.861C341.234 385.677 340.725 384.612 339.944 383.665C339.163 382.694 338.133 381.925 336.854 381.357C335.6 380.765 334.096 380.469 332.344 380.469C330.001 380.469 328.024 380.966 326.414 381.96C324.804 382.931 323.999 384.233 323.999 385.866C323.999 387.169 324.52 388.269 325.562 389.169C326.603 390.069 328.391 390.791 330.924 391.335L340.796 393.324C346.099 394.413 350.053 396.165 352.657 398.58C355.261 400.994 356.563 404.167 356.563 408.097C356.563 411.671 355.51 414.808 353.403 417.507C351.319 420.206 348.455 422.313 344.809 423.828C341.187 425.32 337.008 426.065 332.273 426.065C325.053 426.065 319.3 424.562 315.015 421.555C310.754 418.525 308.256 414.406 307.522 409.197L322.401 408.416C322.851 410.618 323.94 412.299 325.668 413.459C327.397 414.595 329.61 415.163 332.309 415.163C334.96 415.163 337.091 414.654 338.701 413.636C340.335 412.595 341.163 411.257 341.187 409.624C341.163 408.25 340.583 407.126 339.447 406.25C338.31 405.35 336.558 404.664 334.191 404.19L324.745 402.308C319.418 401.243 315.453 399.396 312.849 396.768C310.268 394.141 308.978 390.791 308.978 386.719C308.978 383.215 309.925 380.196 311.819 377.663C313.737 375.13 316.424 373.177 319.88 371.804C323.36 370.431 327.432 369.744 332.096 369.744C338.985 369.744 344.407 371.2 348.36 374.112C352.337 377.024 354.657 380.99 355.32 386.009ZM386.787 426.065C381.2 426.065 376.394 424.882 372.369 422.514C368.368 420.123 365.29 416.809 363.136 412.571C361.005 408.333 359.94 403.456 359.94 397.94C359.94 392.353 361.017 387.453 363.172 383.239C365.35 379.001 368.439 375.698 372.44 373.331C376.441 370.94 381.2 369.744 386.716 369.744C391.474 369.744 395.641 370.608 399.216 372.337C402.79 374.065 405.62 376.491 407.703 379.616C409.786 382.741 410.934 386.411 411.147 390.625H396.872C396.469 387.902 395.404 385.713 393.676 384.055C391.971 382.375 389.734 381.534 386.964 381.534C384.62 381.534 382.573 382.173 380.821 383.452C379.093 384.706 377.743 386.541 376.772 388.956C375.802 391.371 375.317 394.295 375.317 397.727C375.317 401.207 375.79 404.167 376.737 406.605C377.708 409.044 379.069 410.902 380.821 412.18C382.573 413.459 384.62 414.098 386.964 414.098C388.692 414.098 390.243 413.743 391.616 413.033C393.013 412.322 394.161 411.293 395.061 409.943C395.984 408.57 396.588 406.925 396.872 405.007H411.147C410.911 409.174 409.774 412.843 407.738 416.016C405.726 419.164 402.944 421.626 399.393 423.402C395.842 425.178 391.64 426.065 386.787 426.065ZM416.886 425V370.455H431.552V379.972H432.12C433.115 376.586 434.784 374.029 437.127 372.301C439.471 370.549 442.17 369.673 445.224 369.673C445.981 369.673 446.798 369.721 447.674 369.815C448.55 369.91 449.32 370.04 449.982 370.206V383.629C449.272 383.416 448.29 383.227 447.035 383.061C445.78 382.895 444.632 382.812 443.59 382.812C441.365 382.812 439.376 383.298 437.624 384.268C435.896 385.215 434.523 386.541 433.505 388.246C432.511 389.95 432.014 391.915 432.014 394.141V425H416.886ZM467.848 426.03C464.368 426.03 461.266 425.426 458.544 424.219C455.821 422.988 453.667 421.177 452.081 418.786C450.518 416.371 449.737 413.364 449.737 409.766C449.737 406.735 450.293 404.19 451.406 402.131C452.519 400.071 454.034 398.414 455.952 397.159C457.869 395.904 460.047 394.957 462.486 394.318C464.948 393.679 467.528 393.229 470.227 392.969C473.4 392.637 475.956 392.33 477.898 392.045C479.839 391.738 481.248 391.288 482.123 390.696C482.999 390.104 483.437 389.228 483.437 388.068V387.855C483.437 385.606 482.727 383.866 481.307 382.635C479.91 381.404 477.921 380.788 475.341 380.788C472.618 380.788 470.452 381.392 468.842 382.599C467.232 383.783 466.167 385.275 465.646 387.074L451.655 385.938C452.365 382.623 453.762 379.759 455.845 377.344C457.928 374.905 460.615 373.035 463.906 371.733C467.221 370.407 471.056 369.744 475.412 369.744C478.442 369.744 481.342 370.099 484.112 370.81C486.906 371.52 489.38 372.621 491.534 374.112C493.712 375.604 495.428 377.521 496.683 379.865C497.938 382.185 498.565 384.967 498.565 388.21V425H484.219V417.436H483.793C482.917 419.141 481.745 420.644 480.277 421.946C478.809 423.224 477.045 424.231 474.986 424.964C472.926 425.675 470.547 426.03 467.848 426.03ZM472.18 415.589C474.406 415.589 476.371 415.152 478.075 414.276C479.78 413.376 481.117 412.169 482.088 410.653C483.059 409.138 483.544 407.422 483.544 405.504V399.716C483.07 400.024 482.419 400.308 481.591 400.568C480.786 400.805 479.874 401.03 478.856 401.243C477.838 401.432 476.82 401.61 475.802 401.776C474.784 401.918 473.861 402.048 473.033 402.166C471.257 402.427 469.706 402.841 468.381 403.409C467.055 403.977 466.025 404.747 465.291 405.717C464.557 406.664 464.19 407.848 464.19 409.268C464.19 411.328 464.936 412.902 466.427 413.991C467.943 415.057 469.86 415.589 472.18 415.589ZM535.367 370.455V381.818H502.519V370.455H535.367ZM509.977 357.386H525.104V408.239C525.104 409.635 525.317 410.724 525.744 411.506C526.17 412.263 526.762 412.796 527.519 413.104C528.3 413.411 529.2 413.565 530.218 413.565C530.928 413.565 531.638 413.506 532.349 413.388C533.059 413.246 533.603 413.139 533.982 413.068L536.361 424.325C535.604 424.562 534.539 424.834 533.165 425.142C531.792 425.473 530.123 425.675 528.158 425.746C524.513 425.888 521.316 425.402 518.57 424.29C515.848 423.177 513.729 421.449 512.214 419.105C510.699 416.761 509.953 413.802 509.977 410.227V357.386ZM565.333 426.065C559.746 426.065 554.94 424.882 550.916 422.514C546.915 420.123 543.837 416.809 541.683 412.571C539.552 408.333 538.487 403.456 538.487 397.94C538.487 392.353 539.564 387.453 541.718 383.239C543.896 379.001 546.986 375.698 550.987 373.331C554.987 370.94 559.746 369.744 565.262 369.744C570.021 369.744 574.187 370.608 577.762 372.337C581.337 374.065 584.166 376.491 586.249 379.616C588.333 382.741 589.481 386.411 589.694 390.625H575.418C575.016 387.902 573.951 385.713 572.222 384.055C570.518 382.375 568.281 381.534 565.511 381.534C563.167 381.534 561.119 382.173 559.367 383.452C557.639 384.706 556.29 386.541 555.319 388.956C554.348 391.371 553.863 394.295 553.863 397.727C553.863 401.207 554.336 404.167 555.283 406.605C556.254 409.044 557.615 410.902 559.367 412.18C561.119 413.459 563.167 414.098 565.511 414.098C567.239 414.098 568.79 413.743 570.163 413.033C571.559 412.322 572.708 411.293 573.607 409.943C574.531 408.57 575.134 406.925 575.418 405.007H589.694C589.457 409.174 588.321 412.843 586.285 416.016C584.273 419.164 581.491 421.626 577.94 423.402C574.389 425.178 570.186 426.065 565.333 426.065ZM610.56 393.466V425H595.432V352.273H610.134V380.078H610.773C612.004 376.858 613.993 374.337 616.739 372.514C619.485 370.668 622.93 369.744 627.073 369.744C630.861 369.744 634.163 370.573 636.981 372.23C639.822 373.864 642.023 376.219 643.586 379.297C645.172 382.351 645.953 386.009 645.929 390.27V425H630.802V392.969C630.825 389.607 629.973 386.991 628.245 385.121C626.54 383.25 624.149 382.315 621.072 382.315C619.012 382.315 617.189 382.753 615.603 383.629C614.04 384.505 612.809 385.784 611.91 387.464C611.034 389.122 610.584 391.122 610.56 393.466Z" fill="black"/>
<rect x="71" y="498" width="1038" height="19" fill="black"/>
<path d="M76.7528 626V573.636H95.4176C99.4744 573.636 102.841 574.335 105.517 575.733C108.21 577.131 110.222 579.065 111.551 581.537C112.881 583.991 113.545 586.83 113.545 590.051C113.545 593.256 112.872 596.077 111.526 598.514C110.196 600.935 108.185 602.818 105.491 604.165C102.815 605.511 99.4489 606.185 95.392 606.185H81.2528V599.384H94.6761C97.233 599.384 99.3125 599.017 100.915 598.284C102.534 597.551 103.719 596.486 104.469 595.088C105.219 593.69 105.594 592.011 105.594 590.051C105.594 588.074 105.21 586.361 104.443 584.912C103.693 583.463 102.509 582.355 100.889 581.588C99.2869 580.804 97.1818 580.412 94.5739 580.412H84.6534V626H76.7528ZM102.602 602.375L115.54 626H106.54L93.858 602.375H102.602ZM137.085 626.793C133.215 626.793 129.883 625.966 127.088 624.312C124.309 622.642 122.161 620.298 120.644 617.281C119.144 614.247 118.394 610.693 118.394 606.619C118.394 602.597 119.144 599.051 120.644 595.983C122.161 592.915 124.275 590.52 126.985 588.798C129.713 587.077 132.9 586.216 136.548 586.216C138.764 586.216 140.911 586.582 142.991 587.315C145.07 588.048 146.937 589.199 148.59 590.767C150.244 592.335 151.548 594.372 152.502 596.878C153.457 599.366 153.934 602.392 153.934 605.955V608.665H122.715V602.938H146.443C146.443 600.926 146.034 599.145 145.215 597.594C144.397 596.026 143.247 594.79 141.764 593.886C140.298 592.983 138.576 592.531 136.599 592.531C134.451 592.531 132.576 593.06 130.974 594.116C129.389 595.156 128.161 596.52 127.292 598.207C126.44 599.878 126.014 601.693 126.014 603.653V608.128C126.014 610.753 126.474 612.986 127.394 614.827C128.332 616.668 129.636 618.074 131.306 619.045C132.977 620 134.928 620.477 137.161 620.477C138.61 620.477 139.931 620.273 141.124 619.864C142.318 619.437 143.349 618.807 144.218 617.972C145.088 617.136 145.752 616.105 146.213 614.878L153.448 616.182C152.869 618.312 151.829 620.179 150.329 621.781C148.846 623.366 146.98 624.602 144.73 625.489C142.497 626.358 139.948 626.793 137.085 626.793ZM177.064 626.793C173.263 626.793 169.99 625.932 167.246 624.21C164.519 622.472 162.422 620.077 160.956 617.026C159.49 613.974 158.757 610.48 158.757 606.543C158.757 602.554 159.507 599.034 161.007 595.983C162.507 592.915 164.621 590.52 167.348 588.798C170.076 587.077 173.289 586.216 176.988 586.216C179.97 586.216 182.63 586.77 184.965 587.878C187.3 588.969 189.184 590.503 190.615 592.48C192.064 594.457 192.925 596.767 193.198 599.409H185.757C185.348 597.568 184.411 595.983 182.945 594.653C181.496 593.324 179.553 592.659 177.115 592.659C174.985 592.659 173.118 593.222 171.516 594.347C169.931 595.455 168.695 597.04 167.809 599.102C166.922 601.148 166.479 603.568 166.479 606.364C166.479 609.227 166.914 611.699 167.783 613.778C168.652 615.858 169.88 617.469 171.465 618.611C173.067 619.753 174.951 620.324 177.115 620.324C178.564 620.324 179.877 620.06 181.053 619.531C182.246 618.986 183.243 618.21 184.044 617.205C184.863 616.199 185.434 614.989 185.757 613.574H193.198C192.925 616.114 192.098 618.381 190.718 620.375C189.337 622.369 187.488 623.937 185.169 625.08C182.868 626.222 180.166 626.793 177.064 626.793ZM210.907 626.869C208.419 626.869 206.169 626.409 204.157 625.489C202.146 624.551 200.552 623.196 199.376 621.423C198.217 619.651 197.638 617.477 197.638 614.903C197.638 612.687 198.064 610.864 198.916 609.432C199.768 608 200.919 606.866 202.368 606.031C203.816 605.196 205.436 604.565 207.226 604.139C209.015 603.713 210.839 603.389 212.697 603.168C215.049 602.895 216.959 602.673 218.424 602.503C219.89 602.315 220.956 602.017 221.62 601.608C222.285 601.199 222.618 600.534 222.618 599.614V599.435C222.618 597.202 221.987 595.472 220.726 594.244C219.481 593.017 217.623 592.403 215.152 592.403C212.578 592.403 210.549 592.974 209.066 594.116C207.601 595.241 206.586 596.494 206.024 597.875L198.839 596.239C199.691 593.852 200.936 591.926 202.572 590.46C204.226 588.977 206.126 587.903 208.274 587.239C210.422 586.557 212.68 586.216 215.049 586.216C216.618 586.216 218.28 586.403 220.035 586.778C221.808 587.136 223.461 587.801 224.995 588.773C226.547 589.744 227.816 591.134 228.805 592.94C229.794 594.73 230.288 597.057 230.288 599.92V626H222.822V620.631H222.515C222.021 621.619 221.28 622.591 220.291 623.545C219.302 624.5 218.032 625.293 216.481 625.923C214.93 626.554 213.072 626.869 210.907 626.869ZM212.569 620.733C214.683 620.733 216.49 620.315 217.99 619.48C219.507 618.645 220.657 617.554 221.441 616.207C222.243 614.844 222.643 613.386 222.643 611.835V606.773C222.37 607.045 221.842 607.301 221.058 607.54C220.291 607.761 219.413 607.957 218.424 608.128C217.436 608.281 216.473 608.426 215.535 608.562C214.598 608.682 213.814 608.784 213.183 608.869C211.7 609.057 210.345 609.372 209.118 609.815C207.907 610.259 206.936 610.898 206.203 611.733C205.487 612.551 205.129 613.642 205.129 615.006C205.129 616.898 205.828 618.33 207.226 619.301C208.623 620.256 210.405 620.733 212.569 620.733ZM238.576 640.727V586.727H246.042V593.094H246.681C247.124 592.276 247.763 591.33 248.599 590.256C249.434 589.182 250.593 588.244 252.076 587.443C253.559 586.625 255.519 586.216 257.957 586.216C261.127 586.216 263.957 587.017 266.445 588.619C268.934 590.222 270.886 592.531 272.3 595.548C273.732 598.565 274.448 602.196 274.448 606.44C274.448 610.685 273.741 614.324 272.326 617.358C270.911 620.375 268.968 622.702 266.496 624.338C264.025 625.957 261.204 626.767 258.033 626.767C255.647 626.767 253.695 626.366 252.178 625.565C250.678 624.764 249.502 623.827 248.65 622.753C247.797 621.679 247.141 620.724 246.681 619.889H246.221V640.727H238.576ZM246.067 606.364C246.067 609.125 246.468 611.545 247.269 613.625C248.07 615.705 249.229 617.332 250.746 618.509C252.263 619.668 254.121 620.247 256.32 620.247C258.604 620.247 260.513 619.642 262.047 618.432C263.582 617.205 264.741 615.543 265.525 613.446C266.326 611.349 266.726 608.989 266.726 606.364C266.726 603.773 266.334 601.446 265.55 599.384C264.783 597.321 263.624 595.693 262.073 594.5C260.539 593.307 258.621 592.71 256.32 592.71C254.104 592.71 252.229 593.281 250.695 594.423C249.178 595.565 248.028 597.159 247.243 599.205C246.459 601.25 246.067 603.636 246.067 606.364Z" fill="black"/>
</svg>
