<svg width="1200" height="900" viewBox="0 0 1200 900" fill="none" xmlns="http://www.w3.org/2000/svg">
<rect width="1200" height="900" fill="white"/>
<path d="M77.321 444V371.273H92.6974V401.28H123.912V371.273H139.253V444H123.912V413.957H92.6974V444H77.321ZM158.354 464.455C156.437 464.455 154.637 464.301 152.956 463.993C151.299 463.709 149.926 463.342 148.837 462.892L152.246 451.599C154.022 452.144 155.62 452.44 157.04 452.487C158.484 452.535 159.727 452.203 160.769 451.493C161.834 450.783 162.698 449.575 163.361 447.871L164.249 445.562L144.682 389.455H160.591L171.884 429.511H172.452L183.851 389.455H199.867L178.667 449.895C177.649 452.83 176.264 455.387 174.512 457.565C172.784 459.767 170.594 461.46 167.942 462.643C165.291 463.851 162.095 464.455 158.354 464.455ZM204.977 464.455V389.455H219.892V398.616H220.566C221.229 397.149 222.188 395.657 223.443 394.142C224.721 392.603 226.378 391.325 228.414 390.307C230.474 389.265 233.031 388.744 236.085 388.744C240.062 388.744 243.732 389.786 247.093 391.869C250.455 393.929 253.142 397.042 255.154 401.209C257.167 405.352 258.173 410.548 258.173 416.798C258.173 422.883 257.19 428.02 255.225 432.21C253.284 436.377 250.633 439.537 247.271 441.692C243.933 443.822 240.192 444.888 236.049 444.888C233.114 444.888 230.616 444.402 228.556 443.432C226.52 442.461 224.851 441.242 223.549 439.774C222.247 438.283 221.253 436.779 220.566 435.264H220.105V464.455H204.977ZM219.785 416.727C219.785 419.971 220.235 422.8 221.135 425.214C222.034 427.629 223.336 429.511 225.041 430.861C226.745 432.187 228.817 432.849 231.255 432.849C233.717 432.849 235.801 432.175 237.505 430.825C239.21 429.452 240.5 427.558 241.376 425.143C242.276 422.705 242.725 419.9 242.725 416.727C242.725 413.579 242.288 410.809 241.412 408.418C240.536 406.027 239.245 404.156 237.541 402.807C235.836 401.457 233.741 400.783 231.255 400.783C228.793 400.783 226.71 401.434 225.005 402.736C223.324 404.038 222.034 405.884 221.135 408.276C220.235 410.667 219.785 413.484 219.785 416.727ZM290.485 445.065C284.874 445.065 280.044 443.929 275.996 441.656C271.971 439.36 268.87 436.116 266.692 431.926C264.514 427.712 263.425 422.729 263.425 416.976C263.425 411.365 264.514 406.441 266.692 402.203C268.87 397.965 271.936 394.663 275.889 392.295C279.867 389.928 284.53 388.744 289.881 388.744C293.479 388.744 296.829 389.324 299.931 390.484C303.056 391.621 305.778 393.337 308.098 395.634C310.442 397.93 312.265 400.818 313.567 404.298C314.869 407.755 315.52 411.803 315.52 416.443V420.598H269.462V411.223H301.28C301.28 409.045 300.807 407.116 299.86 405.435C298.913 403.754 297.599 402.44 295.918 401.493C294.261 400.522 292.331 400.037 290.129 400.037C287.833 400.037 285.797 400.57 284.021 401.635C282.27 402.677 280.896 404.085 279.902 405.861C278.908 407.613 278.399 409.566 278.375 411.72V420.634C278.375 423.332 278.872 425.664 279.867 427.629C280.885 429.594 282.317 431.109 284.164 432.175C286.01 433.24 288.2 433.773 290.733 433.773C292.414 433.773 293.953 433.536 295.35 433.062C296.746 432.589 297.942 431.879 298.936 430.932C299.931 429.985 300.688 428.825 301.209 427.452L315.2 428.375C314.49 431.737 313.034 434.672 310.833 437.182C308.655 439.668 305.837 441.609 302.381 443.006C298.948 444.379 294.983 445.065 290.485 445.065ZM322.761 444V389.455H337.427V398.972H337.995C338.989 395.586 340.658 393.029 343.002 391.301C345.346 389.549 348.045 388.673 351.099 388.673C351.856 388.673 352.673 388.721 353.549 388.815C354.425 388.91 355.194 389.04 355.857 389.206V402.629C355.147 402.416 354.164 402.227 352.91 402.061C351.655 401.895 350.507 401.812 349.465 401.812C347.24 401.812 345.251 402.298 343.499 403.268C341.771 404.215 340.398 405.541 339.38 407.246C338.386 408.95 337.888 410.915 337.888 413.141V444H322.761ZM406.431 405.009L392.581 405.861C392.344 404.677 391.835 403.612 391.054 402.665C390.273 401.694 389.243 400.925 387.965 400.357C386.71 399.765 385.207 399.469 383.455 399.469C381.111 399.469 379.134 399.966 377.524 400.96C375.914 401.931 375.11 403.233 375.11 404.866C375.11 406.169 375.63 407.269 376.672 408.169C377.714 409.069 379.501 409.791 382.034 410.335L391.906 412.324C397.209 413.413 401.163 415.165 403.767 417.58C406.371 419.994 407.673 423.167 407.673 427.097C407.673 430.671 406.62 433.808 404.513 436.507C402.43 439.206 399.565 441.313 395.919 442.828C392.297 444.32 388.118 445.065 383.384 445.065C376.163 445.065 370.41 443.562 366.125 440.555C361.864 437.525 359.366 433.406 358.632 428.197L373.511 427.416C373.961 429.618 375.05 431.299 376.779 432.459C378.507 433.595 380.72 434.163 383.419 434.163C386.071 434.163 388.201 433.654 389.811 432.636C391.445 431.595 392.273 430.257 392.297 428.624C392.273 427.25 391.693 426.126 390.557 425.25C389.421 424.35 387.669 423.664 385.301 423.19L375.855 421.308C370.529 420.243 366.563 418.396 363.959 415.768C361.378 413.141 360.088 409.791 360.088 405.719C360.088 402.215 361.035 399.196 362.929 396.663C364.847 394.13 367.534 392.177 370.99 390.804C374.47 389.431 378.542 388.744 383.206 388.744C390.095 388.744 395.517 390.2 399.47 393.112C403.448 396.024 405.768 399.99 406.431 405.009ZM429.696 412.466V444H414.568V371.273H429.269V399.078H429.909C431.14 395.858 433.128 393.337 435.875 391.514C438.621 389.668 442.065 388.744 446.208 388.744C449.996 388.744 453.299 389.573 456.116 391.23C458.957 392.864 461.159 395.219 462.721 398.297C464.307 401.351 465.089 405.009 465.065 409.27V444H449.937V411.969C449.961 408.607 449.109 405.991 447.38 404.121C445.676 402.25 443.285 401.315 440.207 401.315C438.147 401.315 436.324 401.753 434.738 402.629C433.176 403.505 431.945 404.784 431.045 406.464C430.169 408.122 429.719 410.122 429.696 412.466ZM474.339 444V389.455H489.466V444H474.339ZM481.938 382.423C479.689 382.423 477.759 381.678 476.15 380.186C474.563 378.671 473.77 376.86 473.77 374.753C473.77 372.67 474.563 370.882 476.15 369.391C477.759 367.875 479.689 367.118 481.938 367.118C484.187 367.118 486.105 367.875 487.691 369.391C489.301 370.882 490.106 372.67 490.106 374.753C490.106 376.86 489.301 378.671 487.691 380.186C486.105 381.678 484.187 382.423 481.938 382.423ZM528.285 389.455V400.818H494.621V389.455H528.285ZM502.327 444V385.513C502.327 381.559 503.096 378.28 504.635 375.676C506.197 373.072 508.328 371.119 511.027 369.817C513.726 368.515 516.792 367.864 520.224 367.864C522.544 367.864 524.663 368.041 526.581 368.396C528.522 368.751 529.966 369.071 530.913 369.355L528.214 380.719C527.623 380.529 526.889 380.352 526.013 380.186C525.16 380.02 524.284 379.938 523.385 379.938C521.159 379.938 519.609 380.458 518.733 381.5C517.857 382.518 517.419 383.95 517.419 385.797V444H502.327ZM563.908 389.455V400.818H531.06V389.455H563.908ZM538.518 376.386H553.646V427.239C553.646 428.635 553.859 429.724 554.285 430.506C554.711 431.263 555.303 431.796 556.06 432.104C556.842 432.411 557.741 432.565 558.759 432.565C559.47 432.565 560.18 432.506 560.89 432.388C561.6 432.246 562.145 432.139 562.524 432.068L564.903 443.325C564.145 443.562 563.08 443.834 561.707 444.142C560.334 444.473 558.665 444.675 556.7 444.746C553.054 444.888 549.858 444.402 547.112 443.29C544.389 442.177 542.27 440.449 540.755 438.105C539.24 435.761 538.494 432.802 538.518 429.227V376.386ZM602.807 367.864L579.37 454.938H566.337L589.775 367.864H602.807ZM607.749 444V371.273H623.125V403.339H624.084L650.256 371.273H668.686L641.697 403.837L669.006 444H650.611L630.689 414.099L623.125 423.332V444H607.749ZM689.332 445.03C685.852 445.03 682.751 444.426 680.028 443.219C677.306 441.988 675.151 440.177 673.565 437.786C672.003 435.371 671.222 432.364 671.222 428.766C671.222 425.735 671.778 423.19 672.891 421.131C674.003 419.071 675.518 417.414 677.436 416.159C679.354 414.904 681.532 413.957 683.97 413.318C686.432 412.679 689.013 412.229 691.712 411.969C694.884 411.637 697.441 411.33 699.382 411.045C701.323 410.738 702.732 410.288 703.608 409.696C704.484 409.104 704.922 408.228 704.922 407.068V406.855C704.922 404.606 704.212 402.866 702.791 401.635C701.394 400.404 699.406 399.788 696.825 399.788C694.103 399.788 691.936 400.392 690.327 401.599C688.717 402.783 687.651 404.275 687.131 406.074L673.139 404.938C673.849 401.623 675.246 398.759 677.329 396.344C679.413 393.905 682.1 392.035 685.391 390.733C688.705 389.407 692.54 388.744 696.896 388.744C699.927 388.744 702.827 389.099 705.597 389.81C708.39 390.52 710.864 391.621 713.018 393.112C715.196 394.604 716.913 396.521 718.168 398.865C719.422 401.185 720.05 403.967 720.05 407.21V444H705.703V436.436H705.277C704.401 438.141 703.229 439.644 701.761 440.946C700.293 442.224 698.53 443.231 696.47 443.964C694.41 444.675 692.031 445.03 689.332 445.03ZM693.665 434.589C695.89 434.589 697.855 434.152 699.56 433.276C701.264 432.376 702.602 431.169 703.572 429.653C704.543 428.138 705.028 426.422 705.028 424.504V418.716C704.555 419.024 703.904 419.308 703.075 419.568C702.27 419.805 701.359 420.03 700.341 420.243C699.323 420.432 698.305 420.61 697.287 420.776C696.269 420.918 695.346 421.048 694.517 421.166C692.741 421.427 691.191 421.841 689.865 422.409C688.539 422.977 687.509 423.747 686.775 424.717C686.042 425.664 685.675 426.848 685.675 428.268C685.675 430.328 686.42 431.902 687.912 432.991C689.427 434.057 691.345 434.589 693.665 434.589ZM729.155 444V389.455H743.572V399.078H744.211C745.348 395.882 747.242 393.361 749.893 391.514C752.545 389.668 755.717 388.744 759.41 388.744C763.151 388.744 766.335 389.679 768.963 391.55C771.591 393.396 773.343 395.906 774.218 399.078H774.787C775.899 395.953 777.912 393.455 780.824 391.585C783.759 389.691 787.227 388.744 791.228 388.744C796.318 388.744 800.45 390.366 803.622 393.609C806.818 396.829 808.416 401.398 808.416 407.317V444H793.324V410.3C793.324 407.269 792.519 404.997 790.909 403.482C789.299 401.966 787.287 401.209 784.872 401.209C782.126 401.209 779.983 402.085 778.444 403.837C776.905 405.565 776.136 407.849 776.136 410.69V444H761.47V409.98C761.47 407.305 760.7 405.174 759.162 403.588C757.646 402.002 755.646 401.209 753.16 401.209C751.479 401.209 749.964 401.635 748.615 402.487C747.289 403.316 746.236 404.488 745.454 406.003C744.673 407.494 744.282 409.246 744.282 411.259V444H729.155ZM833.288 445.03C829.808 445.03 826.706 444.426 823.984 443.219C821.261 441.988 819.107 440.177 817.521 437.786C815.958 435.371 815.177 432.364 815.177 428.766C815.177 425.735 815.733 423.19 816.846 421.131C817.959 419.071 819.474 417.414 821.392 416.159C823.309 414.904 825.487 413.957 827.926 413.318C830.388 412.679 832.968 412.229 835.667 411.969C838.839 411.637 841.396 411.33 843.338 411.045C845.279 410.738 846.687 410.288 847.563 409.696C848.439 409.104 848.877 408.228 848.877 407.068V406.855C848.877 404.606 848.167 402.866 846.747 401.635C845.35 400.404 843.361 399.788 840.781 399.788C838.058 399.788 835.892 400.392 834.282 401.599C832.672 402.783 831.607 404.275 831.086 406.074L817.095 404.938C817.805 401.623 819.202 398.759 821.285 396.344C823.368 393.905 826.055 392.035 829.346 390.733C832.661 389.407 836.496 388.744 840.852 388.744C843.882 388.744 846.782 389.099 849.552 389.81C852.346 390.52 854.82 391.621 856.974 393.112C859.152 394.604 860.868 396.521 862.123 398.865C863.378 401.185 864.005 403.967 864.005 407.21V444H849.659V436.436H849.232C848.357 438.141 847.185 439.644 845.717 440.946C844.249 442.224 842.485 443.231 840.426 443.964C838.366 444.675 835.987 445.03 833.288 445.03ZM837.62 434.589C839.846 434.589 841.811 434.152 843.515 433.276C845.22 432.376 846.557 431.169 847.528 429.653C848.499 428.138 848.984 426.422 848.984 424.504V418.716C848.51 419.024 847.859 419.308 847.031 419.568C846.226 419.805 845.314 420.03 844.296 420.243C843.278 420.432 842.26 420.61 841.242 420.776C840.224 420.918 839.301 421.048 838.473 421.166C836.697 421.427 835.146 421.841 833.821 422.409C832.495 422.977 831.465 423.747 830.731 424.717C829.997 425.664 829.63 426.848 829.63 428.268C829.63 430.328 830.376 431.902 831.867 432.991C833.383 434.057 835.3 434.589 837.62 434.589ZM873.11 389.455H888.238V446.699C888.238 450.913 887.409 454.322 885.752 456.926C884.095 459.53 881.716 461.436 878.614 462.643C875.537 463.851 871.855 464.455 867.57 464.455C867.05 464.455 866.552 464.443 866.079 464.419C865.582 464.419 865.061 464.407 864.516 464.384V452.558C864.919 452.582 865.274 452.594 865.582 452.594C865.866 452.617 866.174 452.629 866.505 452.629C868.943 452.629 870.648 452.108 871.619 451.067C872.613 450.049 873.11 448.51 873.11 446.45V389.455ZM880.639 382.423C878.413 382.423 876.496 381.678 874.886 380.186C873.276 378.671 872.471 376.86 872.471 374.753C872.471 372.67 873.276 370.882 874.886 369.391C876.496 367.875 878.413 367.118 880.639 367.118C882.911 367.118 884.841 367.875 886.427 369.391C888.037 370.882 888.842 372.67 888.842 374.753C888.842 376.86 888.037 378.671 886.427 380.186C884.841 381.678 882.911 382.423 880.639 382.423ZM897.725 444V389.455H912.852V444H897.725ZM905.324 382.423C903.075 382.423 901.146 381.678 899.536 380.186C897.95 378.671 897.156 376.86 897.156 374.753C897.156 372.67 897.95 370.882 899.536 369.391C901.146 367.875 903.075 367.118 905.324 367.118C907.573 367.118 909.491 367.875 911.077 369.391C912.687 370.882 913.492 372.67 913.492 374.753C913.492 376.86 912.687 378.671 911.077 380.186C909.491 381.678 907.573 382.423 905.324 382.423Z" fill="black"/>
<rect x="71" y="498" width="1038" height="19" fill="black"/>
</svg>
