<svg width="1200" height="900" viewBox="0 0 1200 900" fill="none" xmlns="http://www.w3.org/2000/svg">
<rect width="1200" height="900" fill="white"/>
<path d="M141.49 396.734H125.936C125.652 394.722 125.072 392.935 124.196 391.372C123.32 389.786 122.196 388.437 120.822 387.324C119.449 386.211 117.863 385.359 116.064 384.767C114.288 384.175 112.359 383.879 110.276 383.879C106.511 383.879 103.232 384.814 100.439 386.685C97.6454 388.531 95.4792 391.23 93.9403 394.781C92.4015 398.309 91.6321 402.594 91.6321 407.636C91.6321 412.821 92.4015 417.177 93.9403 420.705C95.5028 424.232 97.6809 426.895 100.474 428.695C103.268 430.494 106.5 431.393 110.169 431.393C112.229 431.393 114.134 431.121 115.886 430.577C117.662 430.032 119.236 429.239 120.609 428.197C121.982 427.132 123.119 425.842 124.018 424.327C124.942 422.812 125.581 421.083 125.936 419.142L141.49 419.213C141.088 422.551 140.081 425.771 138.472 428.872C136.885 431.95 134.743 434.708 132.044 437.146C129.369 439.561 126.173 441.479 122.456 442.899C118.763 444.296 114.584 444.994 109.92 444.994C103.434 444.994 97.6335 443.527 92.5199 440.591C87.4299 437.655 83.4053 433.406 80.446 427.842C77.5104 422.279 76.0426 415.544 76.0426 407.636C76.0426 399.705 77.5341 392.958 80.517 387.395C83.5 381.831 87.5483 377.594 92.6619 374.682C97.7756 371.746 103.528 370.278 109.92 370.278C114.134 370.278 118.041 370.87 121.639 372.054C125.261 373.238 128.469 374.966 131.263 377.239C134.056 379.488 136.329 382.246 138.081 385.513C139.857 388.78 140.993 392.52 141.49 396.734ZM174.246 445.065C168.729 445.065 163.959 443.893 159.934 441.55C155.934 439.182 152.844 435.892 150.666 431.678C148.488 427.44 147.399 422.527 147.399 416.94C147.399 411.306 148.488 406.382 150.666 402.168C152.844 397.93 155.934 394.639 159.934 392.295C163.959 389.928 168.729 388.744 174.246 388.744C179.762 388.744 184.52 389.928 188.521 392.295C192.546 394.639 195.647 397.93 197.825 402.168C200.003 406.382 201.092 411.306 201.092 416.94C201.092 422.527 200.003 427.44 197.825 431.678C195.647 435.892 192.546 439.182 188.521 441.55C184.52 443.893 179.762 445.065 174.246 445.065ZM174.317 433.347C176.826 433.347 178.921 432.636 180.602 431.216C182.283 429.772 183.55 427.807 184.402 425.321C185.278 422.835 185.716 420.006 185.716 416.834C185.716 413.661 185.278 410.832 184.402 408.347C183.55 405.861 182.283 403.896 180.602 402.452C178.921 401.008 176.826 400.286 174.317 400.286C171.783 400.286 169.653 401.008 167.925 402.452C166.22 403.896 164.93 405.861 164.054 408.347C163.202 410.832 162.775 413.661 162.775 416.834C162.775 420.006 163.202 422.835 164.054 425.321C164.93 427.807 166.22 429.772 167.925 431.216C169.653 432.636 171.783 433.347 174.317 433.347ZM253.681 405.009L239.831 405.861C239.595 404.677 239.086 403.612 238.304 402.665C237.523 401.694 236.493 400.925 235.215 400.357C233.96 399.765 232.457 399.469 230.705 399.469C228.361 399.469 226.384 399.966 224.774 400.96C223.165 401.931 222.36 403.233 222.36 404.866C222.36 406.169 222.881 407.269 223.922 408.169C224.964 409.069 226.751 409.791 229.284 410.335L239.157 412.324C244.46 413.413 248.413 415.165 251.017 417.58C253.622 419.994 254.924 423.167 254.924 427.097C254.924 430.671 253.87 433.808 251.763 436.507C249.68 439.206 246.815 441.313 243.169 442.828C239.547 444.32 235.369 445.065 230.634 445.065C223.413 445.065 217.66 443.562 213.375 440.555C209.114 437.525 206.616 433.406 205.882 428.197L220.762 427.416C221.212 429.618 222.301 431.299 224.029 432.459C225.757 433.595 227.971 434.163 230.669 434.163C233.321 434.163 235.452 433.654 237.061 432.636C238.695 431.595 239.524 430.257 239.547 428.624C239.524 427.25 238.944 426.126 237.807 425.25C236.671 424.35 234.919 423.664 232.551 423.19L223.105 421.308C217.779 420.243 213.813 418.396 211.209 415.768C208.629 413.141 207.338 409.791 207.338 405.719C207.338 402.215 208.285 399.196 210.179 396.663C212.097 394.13 214.784 392.177 218.24 390.804C221.721 389.431 225.792 388.744 230.456 388.744C237.346 388.744 242.767 390.2 246.721 393.112C250.698 396.024 253.018 399.99 253.681 405.009ZM290.831 389.455V400.818H257.983V389.455H290.831ZM265.44 376.386H280.568V427.239C280.568 428.635 280.781 429.724 281.207 430.506C281.633 431.263 282.225 431.796 282.983 432.104C283.764 432.411 284.664 432.565 285.682 432.565C286.392 432.565 287.102 432.506 287.812 432.388C288.523 432.246 289.067 432.139 289.446 432.068L291.825 443.325C291.068 443.562 290.002 443.834 288.629 444.142C287.256 444.473 285.587 444.675 283.622 444.746C279.976 444.888 276.78 444.402 274.034 443.29C271.311 442.177 269.193 440.449 267.677 438.105C266.162 435.761 265.416 432.802 265.44 429.227V376.386ZM342.754 405.009L328.904 405.861C328.667 404.677 328.158 403.612 327.377 402.665C326.596 401.694 325.566 400.925 324.288 400.357C323.033 399.765 321.53 399.469 319.778 399.469C317.434 399.469 315.457 399.966 313.847 400.96C312.237 401.931 311.432 403.233 311.432 404.866C311.432 406.169 311.953 407.269 312.995 408.169C314.037 409.069 315.824 409.791 318.357 410.335L328.229 412.324C333.532 413.413 337.486 415.165 340.09 417.58C342.694 419.994 343.996 423.167 343.996 427.097C343.996 430.671 342.943 433.808 340.836 436.507C338.753 439.206 335.888 441.313 332.242 442.828C328.62 444.32 324.441 445.065 319.707 445.065C312.486 445.065 306.733 443.562 302.448 440.555C298.187 437.525 295.689 433.406 294.955 428.197L309.834 427.416C310.284 429.618 311.373 431.299 313.102 432.459C314.83 433.595 317.043 434.163 319.742 434.163C322.394 434.163 324.524 433.654 326.134 432.636C327.768 431.595 328.596 430.257 328.62 428.624C328.596 427.25 328.016 426.126 326.88 425.25C325.744 424.35 323.992 423.664 321.624 423.19L312.178 421.308C306.852 420.243 302.886 418.396 300.282 415.768C297.701 413.141 296.411 409.791 296.411 405.719C296.411 402.215 297.358 399.196 299.252 396.663C301.17 394.13 303.857 392.177 307.313 390.804C310.793 389.431 314.865 388.744 319.529 388.744C326.418 388.744 331.84 390.2 335.793 393.112C339.771 396.024 342.091 399.99 342.754 405.009ZM368.327 412.182L369.215 398.439L357.709 406.145L352.95 397.764L365.344 391.727L352.95 385.69L357.709 377.31L369.215 385.016L368.327 371.273H377.879L376.956 385.016L388.462 377.31L393.22 385.69L380.862 391.727L393.22 397.764L388.462 406.145L376.956 398.439L377.879 412.182H368.327Z" fill="black"/>
<rect x="71" y="498" width="1038" height="19" fill="black"/>
</svg>
