<svg width="1200" height="900" viewBox="0 0 1200 900" fill="none" xmlns="http://www.w3.org/2000/svg">
<rect width="1200" height="900" fill="white"/>
<path d="M120 112L91.1325 162H148.868L120 112ZM125 772V157H115V772H125Z" fill="black"/>
<path d="M1080 772L1030 743.132L1030 800.868L1080 772ZM116 777L1035 777L1035 767L116 767L116 777Z" fill="black"/>
<path d="M205.326 851V814.636H213.014V829.64H228.621V814.636H236.291V851H228.621V835.979H213.014V851H205.326ZM272.046 814.636V851H265.405L249.585 828.113H249.318V851H241.63V814.636H248.377L264.073 837.506H264.393V814.636H272.046ZM309.482 827.367H301.705C301.563 826.361 301.273 825.467 300.835 824.686C300.397 823.893 299.835 823.218 299.149 822.662C298.462 822.106 297.669 821.679 296.769 821.384C295.881 821.088 294.917 820.94 293.875 820.94C291.993 820.94 290.354 821.407 288.957 822.342C287.56 823.266 286.477 824.615 285.707 826.391C284.938 828.154 284.553 830.297 284.553 832.818C284.553 835.411 284.938 837.589 285.707 839.352C286.489 841.116 287.578 842.448 288.975 843.347C290.371 844.247 291.987 844.697 293.822 844.697C294.852 844.697 295.805 844.561 296.68 844.288C297.568 844.016 298.355 843.62 299.042 843.099C299.729 842.566 300.297 841.921 300.747 841.163C301.208 840.406 301.528 839.542 301.705 838.571L309.482 838.607C309.281 840.276 308.778 841.885 307.973 843.436C307.18 844.975 306.109 846.354 304.759 847.573C303.422 848.781 301.824 849.739 299.965 850.45C298.119 851.148 296.029 851.497 293.698 851.497C290.454 851.497 287.554 850.763 284.997 849.295C282.452 847.828 280.44 845.703 278.96 842.921C277.493 840.139 276.759 836.772 276.759 832.818C276.759 828.853 277.504 825.479 278.996 822.697C280.487 819.916 282.511 817.797 285.068 816.341C287.625 814.873 290.502 814.139 293.698 814.139C295.805 814.139 297.758 814.435 299.557 815.027C301.368 815.619 302.972 816.483 304.369 817.619C305.765 818.744 306.902 820.123 307.778 821.756C308.666 823.39 309.234 825.26 309.482 827.367Z" fill="black"/>
<path d="M208.453 628.545V583.091H211.365V628.545H208.453ZM216.177 598.094C216.035 596.662 215.425 595.549 214.348 594.756C213.271 593.963 211.809 593.567 209.963 593.567C208.708 593.567 207.648 593.744 206.784 594.099C205.92 594.443 205.257 594.922 204.796 595.538C204.346 596.153 204.121 596.852 204.121 597.633C204.097 598.284 204.233 598.852 204.529 599.337C204.837 599.823 205.257 600.243 205.79 600.598C206.323 600.941 206.938 601.243 207.637 601.504C208.335 601.752 209.081 601.965 209.874 602.143L213.141 602.924C214.727 603.279 216.183 603.753 217.509 604.344C218.835 604.936 219.983 605.664 220.953 606.528C221.924 607.393 222.676 608.411 223.208 609.582C223.753 610.754 224.031 612.098 224.043 613.613C224.031 615.838 223.463 617.768 222.338 619.401C221.226 621.023 219.616 622.284 217.509 623.183C215.414 624.071 212.886 624.515 209.927 624.515C206.992 624.515 204.435 624.065 202.257 623.165C200.09 622.266 198.398 620.934 197.179 619.17C195.971 617.395 195.338 615.199 195.279 612.583H202.718C202.801 613.802 203.15 614.82 203.766 615.637C204.393 616.442 205.228 617.052 206.269 617.466C207.323 617.868 208.513 618.07 209.838 618.07C211.14 618.07 212.271 617.88 213.23 617.501C214.2 617.123 214.952 616.596 215.485 615.921C216.017 615.246 216.284 614.471 216.284 613.595C216.284 612.778 216.041 612.092 215.556 611.536C215.082 610.979 214.384 610.506 213.46 610.115C212.549 609.724 211.43 609.369 210.105 609.05L206.145 608.055C203.079 607.31 200.659 606.144 198.883 604.558C197.108 602.971 196.226 600.835 196.237 598.148C196.226 595.946 196.812 594.022 197.995 592.377C199.191 590.732 200.83 589.447 202.914 588.524C204.997 587.601 207.364 587.139 210.016 587.139C212.715 587.139 215.07 587.601 217.083 588.524C219.107 589.447 220.681 590.732 221.806 592.377C222.93 594.022 223.51 595.928 223.546 598.094H216.177ZM228.001 624V618.46L240.945 606.475C242.046 605.41 242.969 604.451 243.715 603.599C244.473 602.746 245.047 601.912 245.437 601.095C245.828 600.267 246.023 599.373 246.023 598.414C246.023 597.349 245.781 596.431 245.295 595.662C244.81 594.881 244.147 594.283 243.307 593.869C242.466 593.442 241.513 593.229 240.448 593.229C239.335 593.229 238.365 593.454 237.536 593.904C236.707 594.354 236.068 594.999 235.618 595.839C235.169 596.68 234.944 597.68 234.944 598.84H227.646C227.646 596.461 228.185 594.395 229.262 592.643C230.339 590.892 231.848 589.536 233.79 588.577C235.731 587.619 237.968 587.139 240.501 587.139C243.105 587.139 245.372 587.601 247.302 588.524C249.243 589.436 250.752 590.702 251.829 592.324C252.906 593.946 253.445 595.804 253.445 597.899C253.445 599.272 253.173 600.628 252.628 601.965C252.096 603.303 251.143 604.788 249.77 606.422C248.397 608.044 246.461 609.991 243.964 612.263L238.655 617.466V617.714H253.924V624H228.001ZM257.164 617.608V611.553L272.345 587.636H277.565V596.017H274.475L264.905 611.163V611.447H286.478V617.608H257.164ZM274.617 624V615.761L274.759 613.08V587.636H281.968V624H274.617ZM304.166 624.497C301.432 624.497 298.999 624.053 296.869 623.165C294.75 622.266 293.087 621.041 291.879 619.49C290.672 617.939 290.068 616.182 290.068 614.217C290.068 612.701 290.411 611.311 291.098 610.044C291.796 608.766 292.743 607.706 293.939 606.866C295.134 606.013 296.472 605.469 297.952 605.232V604.984C296.01 604.593 294.436 603.652 293.229 602.161C292.021 600.657 291.418 598.911 291.418 596.923C291.418 595.04 291.968 593.366 293.069 591.898C294.17 590.418 295.679 589.258 297.597 588.418C299.526 587.565 301.716 587.139 304.166 587.139C306.616 587.139 308.8 587.565 310.718 588.418C312.647 589.27 314.163 590.436 315.263 591.915C316.364 593.383 316.921 595.052 316.932 596.923C316.921 598.923 316.305 600.669 315.086 602.161C313.867 603.652 312.304 604.593 310.398 604.984V605.232C311.854 605.469 313.174 606.013 314.358 606.866C315.553 607.706 316.5 608.766 317.199 610.044C317.909 611.311 318.27 612.701 318.282 614.217C318.27 616.182 317.66 617.939 316.453 619.49C315.246 621.041 313.577 622.266 311.446 623.165C309.327 624.053 306.9 624.497 304.166 624.497ZM304.166 618.851C305.385 618.851 306.451 618.632 307.362 618.194C308.274 617.744 308.984 617.129 309.493 616.347C310.014 615.554 310.274 614.643 310.274 613.613C310.274 612.559 310.008 611.63 309.475 610.825C308.942 610.009 308.22 609.369 307.309 608.908C306.397 608.434 305.35 608.197 304.166 608.197C302.994 608.197 301.947 608.434 301.023 608.908C300.1 609.369 299.372 610.009 298.839 610.825C298.319 611.63 298.058 612.559 298.058 613.613C298.058 614.643 298.313 615.554 298.822 616.347C299.331 617.129 300.047 617.744 300.97 618.194C301.893 618.632 302.959 618.851 304.166 618.851ZM304.166 602.604C305.184 602.604 306.09 602.397 306.883 601.983C307.676 601.569 308.297 600.995 308.747 600.261C309.197 599.527 309.422 598.68 309.422 597.722C309.422 596.775 309.197 595.946 308.747 595.236C308.297 594.514 307.682 593.951 306.9 593.549C306.119 593.135 305.208 592.928 304.166 592.928C303.136 592.928 302.225 593.135 301.432 593.549C300.639 593.951 300.017 594.514 299.567 595.236C299.129 595.946 298.91 596.775 298.91 597.722C298.91 598.68 299.135 599.527 299.585 600.261C300.035 600.995 300.656 601.569 301.449 601.983C302.243 602.397 303.148 602.604 304.166 602.604Z" fill="black"/>
<path d="M537.33 557.545V512.091H540.242V557.545H537.33ZM545.054 527.094C544.912 525.662 544.302 524.549 543.225 523.756C542.148 522.963 540.686 522.567 538.84 522.567C537.585 522.567 536.525 522.744 535.661 523.099C534.797 523.443 534.134 523.922 533.673 524.538C533.223 525.153 532.998 525.852 532.998 526.633C532.974 527.284 533.11 527.852 533.406 528.337C533.714 528.823 534.134 529.243 534.667 529.598C535.2 529.941 535.815 530.243 536.514 530.504C537.212 530.752 537.958 530.965 538.751 531.143L542.018 531.924C543.604 532.279 545.06 532.753 546.386 533.344C547.712 533.936 548.86 534.664 549.83 535.528C550.801 536.393 551.553 537.411 552.085 538.582C552.63 539.754 552.908 541.098 552.92 542.613C552.908 544.838 552.34 546.768 551.215 548.401C550.103 550.023 548.493 551.284 546.386 552.183C544.291 553.071 541.763 553.515 538.804 553.515C535.868 553.515 533.312 553.065 531.134 552.165C528.967 551.266 527.275 549.934 526.055 548.17C524.848 546.395 524.215 544.199 524.156 541.583H531.595C531.678 542.802 532.027 543.82 532.643 544.637C533.27 545.442 534.105 546.052 535.146 546.466C536.2 546.868 537.39 547.07 538.715 547.07C540.017 547.07 541.148 546.88 542.107 546.501C543.077 546.123 543.829 545.596 544.362 544.921C544.894 544.246 545.161 543.471 545.161 542.595C545.161 541.778 544.918 541.092 544.433 540.536C543.959 539.979 543.261 539.506 542.337 539.115C541.426 538.724 540.307 538.369 538.982 538.05L535.022 537.055C531.956 536.31 529.536 535.144 527.76 533.558C525.984 531.971 525.103 529.835 525.114 527.148C525.103 524.946 525.689 523.022 526.872 521.377C528.068 519.732 529.707 518.447 531.791 517.524C533.874 516.601 536.241 516.139 538.893 516.139C541.592 516.139 543.947 516.601 545.96 517.524C547.984 518.447 549.558 519.732 550.683 521.377C551.807 523.022 552.387 524.928 552.423 527.094H545.054ZM556.328 546.608V540.553L571.509 516.636H576.729V525.017H573.639L564.069 540.163V540.447H585.642V546.608H556.328ZM573.782 553V544.761L573.924 542.08V516.636H581.132V553H573.782ZM603.721 553.497C601.851 553.485 600.045 553.172 598.305 552.556C596.577 551.941 595.026 550.94 593.653 549.555C592.28 548.17 591.191 546.336 590.386 544.051C589.593 541.767 589.197 538.961 589.197 535.635C589.208 532.581 589.558 529.853 590.244 527.45C590.943 525.035 591.937 522.987 593.227 521.306C594.529 519.625 596.086 518.347 597.897 517.471C599.708 516.583 601.738 516.139 603.987 516.139C606.414 516.139 608.556 516.613 610.415 517.56C612.273 518.495 613.765 519.767 614.889 521.377C616.025 522.987 616.712 524.792 616.949 526.793H609.367C609.071 525.526 608.45 524.532 607.503 523.81C606.556 523.088 605.384 522.727 603.987 522.727C601.62 522.727 599.82 523.756 598.589 525.816C597.37 527.876 596.749 530.675 596.725 534.214H596.974C597.518 533.137 598.252 532.22 599.175 531.462C600.11 530.693 601.17 530.107 602.354 529.705C603.549 529.29 604.81 529.083 606.136 529.083C608.29 529.083 610.208 529.592 611.888 530.61C613.569 531.616 614.895 533.001 615.866 534.765C616.836 536.529 617.322 538.547 617.322 540.82C617.322 543.282 616.748 545.472 615.599 547.389C614.463 549.307 612.871 550.81 610.823 551.899C608.787 552.976 606.42 553.509 603.721 553.497ZM603.685 547.46C604.869 547.46 605.928 547.176 606.864 546.608C607.799 546.04 608.533 545.27 609.065 544.3C609.598 543.329 609.864 542.24 609.864 541.033C609.864 539.825 609.598 538.742 609.065 537.783C608.544 536.825 607.822 536.061 606.899 535.493C605.976 534.925 604.922 534.641 603.739 534.641C602.851 534.641 602.028 534.806 601.271 535.138C600.525 535.469 599.868 535.931 599.3 536.523C598.743 537.115 598.305 537.801 597.986 538.582C597.666 539.352 597.506 540.174 597.506 541.05C597.506 542.222 597.773 543.294 598.305 544.264C598.85 545.235 599.584 546.01 600.507 546.59C601.442 547.17 602.502 547.46 603.685 547.46ZM634.93 516.139C636.8 516.139 638.599 516.453 640.327 517.08C642.067 517.708 643.618 518.708 644.979 520.081C646.352 521.454 647.436 523.277 648.229 525.55C649.034 527.811 649.442 530.586 649.454 533.877C649.454 536.967 649.105 539.725 648.406 542.151C647.72 544.566 646.731 546.62 645.441 548.312C644.151 550.005 642.594 551.295 640.771 552.183C638.948 553.059 636.912 553.497 634.663 553.497C632.237 553.497 630.094 553.03 628.236 552.094C626.377 551.147 624.88 549.863 623.744 548.241C622.619 546.608 621.938 544.773 621.702 542.737H629.283C629.579 544.063 630.201 545.093 631.148 545.827C632.095 546.549 633.266 546.91 634.663 546.91C637.031 546.91 638.83 545.88 640.061 543.82C641.292 541.749 641.914 538.914 641.925 535.315H641.677C641.132 536.381 640.398 537.298 639.475 538.067C638.552 538.825 637.492 539.411 636.297 539.825C635.113 540.24 633.852 540.447 632.515 540.447C630.372 540.447 628.461 539.944 626.78 538.938C625.099 537.931 623.773 536.546 622.802 534.783C621.832 533.019 621.347 531.007 621.347 528.746C621.335 526.307 621.897 524.135 623.033 522.229C624.17 520.324 625.756 518.832 627.792 517.755C629.84 516.666 632.219 516.127 634.93 516.139ZM634.983 522.176C633.787 522.176 632.722 522.46 631.787 523.028C630.864 523.597 630.13 524.36 629.585 525.319C629.052 526.278 628.792 527.349 628.804 528.533C628.804 529.728 629.064 530.805 629.585 531.764C630.118 532.711 630.84 533.469 631.751 534.037C632.675 534.593 633.728 534.871 634.912 534.871C635.8 534.871 636.622 534.706 637.38 534.374C638.137 534.043 638.794 533.587 639.351 533.007C639.919 532.415 640.363 531.735 640.682 530.965C641.002 530.196 641.162 529.379 641.162 528.515C641.15 527.367 640.878 526.313 640.345 525.354C639.812 524.396 639.079 523.626 638.143 523.046C637.208 522.466 636.155 522.176 634.983 522.176Z" fill="black"/>
<path d="M867.537 397.545V352.091H870.449V397.545H867.537ZM875.261 367.094C875.119 365.662 874.509 364.549 873.432 363.756C872.355 362.963 870.893 362.567 869.047 362.567C867.792 362.567 866.732 362.744 865.868 363.099C865.004 363.443 864.341 363.922 863.88 364.538C863.43 365.153 863.205 365.852 863.205 366.633C863.181 367.284 863.317 367.852 863.613 368.337C863.921 368.823 864.341 369.243 864.874 369.598C865.407 369.941 866.022 370.243 866.721 370.504C867.419 370.752 868.165 370.965 868.958 371.143L872.225 371.924C873.811 372.279 875.267 372.753 876.593 373.344C877.919 373.936 879.067 374.664 880.037 375.528C881.008 376.393 881.76 377.411 882.292 378.582C882.837 379.754 883.115 381.098 883.127 382.613C883.115 384.838 882.547 386.768 881.422 388.401C880.31 390.023 878.7 391.284 876.593 392.183C874.498 393.071 871.97 393.515 869.011 393.515C866.075 393.515 863.519 393.065 861.341 392.165C859.174 391.266 857.482 389.934 856.263 388.17C855.055 386.395 854.422 384.199 854.363 381.583H861.802C861.885 382.802 862.234 383.82 862.85 384.637C863.477 385.442 864.312 386.052 865.353 386.466C866.407 386.868 867.597 387.07 868.922 387.07C870.224 387.07 871.355 386.88 872.314 386.501C873.284 386.123 874.036 385.596 874.569 384.921C875.101 384.246 875.368 383.471 875.368 382.595C875.368 381.778 875.125 381.092 874.64 380.536C874.166 379.979 873.468 379.506 872.544 379.115C871.633 378.724 870.514 378.369 869.189 378.05L865.229 377.055C862.163 376.31 859.743 375.144 857.967 373.558C856.191 371.971 855.31 369.835 855.321 367.148C855.31 364.946 855.896 363.022 857.079 361.377C858.275 359.732 859.914 358.447 861.998 357.524C864.081 356.601 866.448 356.139 869.1 356.139C871.799 356.139 874.154 356.601 876.167 357.524C878.191 358.447 879.765 359.732 880.89 361.377C882.014 363.022 882.594 364.928 882.63 367.094H875.261ZM900.65 393.497C897.916 393.497 895.484 393.053 893.353 392.165C891.234 391.266 889.571 390.041 888.364 388.49C887.156 386.939 886.552 385.182 886.552 383.217C886.552 381.701 886.896 380.311 887.582 379.044C888.281 377.766 889.228 376.706 890.423 375.866C891.619 375.013 892.956 374.469 894.436 374.232V373.984C892.495 373.593 890.92 372.652 889.713 371.161C888.506 369.657 887.902 367.911 887.902 365.923C887.902 364.04 888.452 362.366 889.553 360.898C890.654 359.418 892.163 358.258 894.081 357.418C896.01 356.565 898.2 356.139 900.65 356.139C903.101 356.139 905.285 356.565 907.202 357.418C909.132 358.27 910.647 359.436 911.748 360.915C912.849 362.383 913.405 364.052 913.417 365.923C913.405 367.923 912.789 369.669 911.57 371.161C910.351 372.652 908.789 373.593 906.883 373.984V374.232C908.339 374.469 909.659 375.013 910.842 375.866C912.038 376.706 912.985 377.766 913.683 379.044C914.393 380.311 914.754 381.701 914.766 383.217C914.754 385.182 914.145 386.939 912.937 388.49C911.73 390.041 910.061 391.266 907.93 392.165C905.811 393.053 903.385 393.497 900.65 393.497ZM900.65 387.851C901.87 387.851 902.935 387.632 903.847 387.194C904.758 386.744 905.468 386.129 905.977 385.347C906.498 384.554 906.758 383.643 906.758 382.613C906.758 381.559 906.492 380.63 905.959 379.825C905.427 379.009 904.705 378.369 903.793 377.908C902.882 377.434 901.834 377.197 900.65 377.197C899.479 377.197 898.431 377.434 897.508 377.908C896.584 378.369 895.856 379.009 895.324 379.825C894.803 380.63 894.543 381.559 894.543 382.613C894.543 383.643 894.797 384.554 895.306 385.347C895.815 386.129 896.531 386.744 897.454 387.194C898.378 387.632 899.443 387.851 900.65 387.851ZM900.65 371.604C901.668 371.604 902.574 371.397 903.367 370.983C904.16 370.569 904.782 369.995 905.231 369.261C905.681 368.527 905.906 367.68 905.906 366.722C905.906 365.775 905.681 364.946 905.231 364.236C904.782 363.514 904.166 362.951 903.385 362.549C902.604 362.135 901.692 361.928 900.65 361.928C899.621 361.928 898.709 362.135 897.916 362.549C897.123 362.951 896.502 363.514 896.052 364.236C895.614 364.946 895.395 365.775 895.395 366.722C895.395 367.68 895.62 368.527 896.07 369.261C896.519 369.995 897.141 370.569 897.934 370.983C898.727 371.397 899.632 371.604 900.65 371.604ZM933.098 393.497C931.227 393.485 929.422 393.172 927.682 392.556C925.954 391.941 924.403 390.94 923.03 389.555C921.657 388.17 920.568 386.336 919.763 384.051C918.97 381.767 918.574 378.961 918.574 375.635C918.585 372.581 918.935 369.853 919.621 367.45C920.32 365.035 921.314 362.987 922.604 361.306C923.906 359.625 925.463 358.347 927.274 357.471C929.085 356.583 931.115 356.139 933.364 356.139C935.791 356.139 937.933 356.613 939.792 357.56C941.65 358.495 943.142 359.767 944.266 361.377C945.402 362.987 946.089 364.792 946.326 366.793H938.744C938.448 365.526 937.827 364.532 936.88 363.81C935.933 363.088 934.761 362.727 933.364 362.727C930.997 362.727 929.197 363.756 927.966 365.816C926.747 367.876 926.126 370.675 926.102 374.214H926.351C926.895 373.137 927.629 372.22 928.552 371.462C929.487 370.693 930.547 370.107 931.731 369.705C932.926 369.29 934.187 369.083 935.513 369.083C937.667 369.083 939.584 369.592 941.265 370.61C942.946 371.616 944.272 373.001 945.243 374.765C946.213 376.529 946.699 378.547 946.699 380.82C946.699 383.282 946.124 385.472 944.976 387.389C943.84 389.307 942.248 390.81 940.2 391.899C938.164 392.976 935.797 393.509 933.098 393.497ZM933.062 387.46C934.246 387.46 935.305 387.176 936.241 386.608C937.176 386.04 937.91 385.27 938.442 384.3C938.975 383.329 939.241 382.24 939.241 381.033C939.241 379.825 938.975 378.742 938.442 377.783C937.921 376.825 937.199 376.061 936.276 375.493C935.353 374.925 934.299 374.641 933.116 374.641C932.228 374.641 931.405 374.806 930.647 375.138C929.902 375.469 929.245 375.931 928.677 376.523C928.12 377.115 927.682 377.801 927.363 378.582C927.043 379.352 926.883 380.174 926.883 381.05C926.883 382.222 927.15 383.294 927.682 384.264C928.227 385.235 928.961 386.01 929.884 386.59C930.819 387.17 931.879 387.46 933.062 387.46ZM965.407 393.799C962.353 393.787 959.726 393.036 957.524 391.544C955.334 390.053 953.647 387.892 952.464 385.063C951.292 382.234 950.712 378.831 950.723 374.854C950.723 370.888 951.309 367.509 952.481 364.715C953.665 361.922 955.352 359.797 957.542 358.341C959.743 356.873 962.365 356.139 965.407 356.139C968.45 356.139 971.066 356.873 973.255 358.341C975.457 359.809 977.15 361.939 978.334 364.733C979.517 367.515 980.103 370.888 980.091 374.854C980.091 378.843 979.499 382.252 978.316 385.081C977.144 387.91 975.463 390.07 973.273 391.562C971.083 393.053 968.461 393.799 965.407 393.799ZM965.407 387.425C967.491 387.425 969.154 386.377 970.397 384.282C971.64 382.187 972.255 379.044 972.243 374.854C972.243 372.096 971.959 369.799 971.391 367.964C970.835 366.13 970.042 364.751 969.012 363.827C967.994 362.904 966.792 362.442 965.407 362.442C963.336 362.442 961.679 363.478 960.436 365.55C959.193 367.621 958.566 370.723 958.554 374.854C958.554 377.647 958.832 379.979 959.388 381.849C959.956 383.708 960.755 385.105 961.785 386.04C962.815 386.963 964.022 387.425 965.407 387.425Z" fill="black"/>
<path d="M514.855 823.727L505.32 851H496.797L487.262 823.727H495.252L500.917 843.241H501.201L506.847 823.727H514.855ZM549.952 827.367H542.175C542.033 826.361 541.743 825.467 541.305 824.686C540.867 823.893 540.305 823.218 539.618 822.662C538.932 822.106 538.139 821.679 537.239 821.384C536.351 821.088 535.386 820.94 534.345 820.94C532.463 820.94 530.823 821.407 529.426 822.342C528.03 823.266 526.947 824.615 526.177 826.391C525.408 828.154 525.023 830.297 525.023 832.818C525.023 835.411 525.408 837.589 526.177 839.352C526.958 841.116 528.047 842.448 529.444 843.347C530.841 844.247 532.457 844.697 534.292 844.697C535.321 844.697 536.274 844.561 537.15 844.288C538.038 844.016 538.825 843.62 539.512 843.099C540.198 842.566 540.766 841.921 541.216 841.163C541.678 840.406 541.998 839.542 542.175 838.571L549.952 838.607C549.751 840.276 549.248 841.885 548.443 843.436C547.65 844.975 546.578 846.354 545.229 847.573C543.891 848.781 542.293 849.739 540.435 850.45C538.588 851.148 536.499 851.497 534.167 851.497C530.924 851.497 528.024 850.763 525.467 849.295C522.922 847.828 520.91 845.703 519.43 842.921C517.962 840.139 517.228 836.772 517.228 832.818C517.228 828.853 517.974 825.479 519.466 822.697C520.957 819.916 522.981 817.797 525.538 816.341C528.095 814.873 530.971 814.139 534.167 814.139C536.274 814.139 538.227 814.435 540.027 815.027C541.838 815.619 543.442 816.483 544.838 817.619C546.235 818.744 547.372 820.123 548.248 821.756C549.135 823.39 549.703 825.26 549.952 827.367ZM561.887 814.636V851H554.323V814.636H561.887ZM584.436 839.388V823.727H591.999V851H584.737V846.046H584.453C583.838 847.644 582.814 848.929 581.382 849.899C579.961 850.87 578.227 851.355 576.179 851.355C574.356 851.355 572.752 850.941 571.367 850.112C569.982 849.284 568.899 848.106 568.118 846.579C567.349 845.052 566.958 843.223 566.946 841.092V823.727H574.51V839.743C574.522 841.353 574.954 842.625 575.806 843.56C576.659 844.496 577.801 844.963 579.233 844.963C580.145 844.963 580.997 844.756 581.79 844.342C582.583 843.915 583.222 843.288 583.708 842.46C584.205 841.631 584.447 840.607 584.436 839.388ZM619.741 831.504L612.817 831.93C612.698 831.339 612.444 830.806 612.053 830.332C611.663 829.847 611.148 829.462 610.509 829.178C609.881 828.882 609.129 828.734 608.254 828.734C607.082 828.734 606.093 828.983 605.288 829.48C604.483 829.965 604.081 830.616 604.081 831.433C604.081 832.084 604.341 832.635 604.862 833.085C605.383 833.534 606.277 833.895 607.543 834.168L612.479 835.162C615.131 835.706 617.108 836.582 618.41 837.79C619.712 838.997 620.363 840.583 620.363 842.548C620.363 844.336 619.836 845.904 618.783 847.254C617.741 848.603 616.309 849.656 614.486 850.414C612.675 851.16 610.585 851.533 608.218 851.533C604.608 851.533 601.731 850.781 599.589 849.278C597.458 847.763 596.209 845.703 595.842 843.099L603.282 842.708C603.507 843.809 604.051 844.649 604.915 845.229C605.78 845.798 606.886 846.082 608.236 846.082C609.562 846.082 610.627 845.827 611.432 845.318C612.249 844.797 612.663 844.129 612.675 843.312C612.663 842.625 612.373 842.063 611.805 841.625C611.237 841.175 610.361 840.832 609.177 840.595L604.454 839.654C601.79 839.121 599.808 838.198 598.506 836.884C597.215 835.57 596.57 833.895 596.57 831.859C596.57 830.107 597.044 828.598 597.991 827.332C598.95 826.065 600.293 825.089 602.021 824.402C603.761 823.715 605.797 823.372 608.129 823.372C611.574 823.372 614.285 824.1 616.261 825.556C618.25 827.012 619.41 828.995 619.741 831.504ZM638.632 823.727V829.409H622.208V823.727H638.632ZM625.937 817.193H633.501V842.619C633.501 843.318 633.607 843.862 633.82 844.253C634.034 844.632 634.329 844.898 634.708 845.052C635.099 845.206 635.549 845.283 636.058 845.283C636.413 845.283 636.768 845.253 637.123 845.194C637.478 845.123 637.75 845.07 637.94 845.034L639.129 850.663C638.751 850.781 638.218 850.917 637.531 851.071C636.845 851.237 636.01 851.337 635.028 851.373C633.205 851.444 631.607 851.201 630.234 850.645C628.873 850.089 627.813 849.224 627.056 848.053C626.298 846.881 625.925 845.401 625.937 843.614V817.193ZM654.695 851.533C651.89 851.533 649.475 850.964 647.451 849.828C645.439 848.68 643.888 847.058 642.799 844.963C641.71 842.856 641.166 840.364 641.166 837.488C641.166 834.683 641.71 832.22 642.799 830.102C643.888 827.983 645.421 826.331 647.398 825.148C649.387 823.964 651.718 823.372 654.394 823.372C656.193 823.372 657.868 823.662 659.419 824.242C660.981 824.81 662.342 825.669 663.502 826.817C664.674 827.965 665.586 829.409 666.237 831.149C666.888 832.877 667.213 834.902 667.213 837.222V839.299H644.184V834.612H660.093C660.093 833.522 659.856 832.558 659.383 831.717C658.91 830.877 658.253 830.22 657.412 829.746C656.584 829.261 655.619 829.018 654.518 829.018C653.37 829.018 652.352 829.285 651.464 829.817C650.588 830.338 649.901 831.043 649.404 831.93C648.907 832.806 648.653 833.783 648.641 834.86V839.317C648.641 840.666 648.889 841.832 649.387 842.815C649.896 843.797 650.612 844.555 651.535 845.087C652.458 845.62 653.553 845.886 654.82 845.886C655.66 845.886 656.43 845.768 657.128 845.531C657.826 845.295 658.424 844.939 658.921 844.466C659.419 843.992 659.797 843.412 660.058 842.726L667.053 843.188C666.698 844.868 665.97 846.336 664.869 847.591C663.78 848.834 662.372 849.804 660.644 850.503C658.927 851.189 656.945 851.533 654.695 851.533ZM671.149 851V823.727H678.482V828.486H678.767C679.264 826.793 680.098 825.515 681.27 824.651C682.442 823.775 683.791 823.337 685.318 823.337C685.697 823.337 686.106 823.36 686.544 823.408C686.981 823.455 687.366 823.52 687.698 823.603V830.315C687.343 830.208 686.851 830.113 686.224 830.031C685.597 829.948 685.022 829.906 684.502 829.906C683.389 829.906 682.395 830.149 681.519 830.634C680.655 831.108 679.968 831.771 679.459 832.623C678.962 833.475 678.713 834.458 678.713 835.57V851H671.149Z" fill="black"/>
<path d="M813.493 852V815.636H821.181V831.67H821.66L834.746 815.636H843.961L830.467 831.918L844.121 852H834.924L824.963 837.05L821.181 841.666V852H813.493ZM854.6 852.515C852.86 852.515 851.309 852.213 849.948 851.609C848.587 850.994 847.51 850.088 846.717 848.893C845.935 847.685 845.545 846.182 845.545 844.383C845.545 842.868 845.823 841.595 846.379 840.565C846.936 839.536 847.693 838.707 848.652 838.08C849.611 837.452 850.7 836.979 851.919 836.659C853.15 836.339 854.44 836.115 855.79 835.984C857.376 835.819 858.654 835.665 859.625 835.523C860.596 835.369 861.3 835.144 861.738 834.848C862.176 834.552 862.395 834.114 862.395 833.534V833.428C862.395 832.303 862.04 831.433 861.33 830.817C860.631 830.202 859.637 829.894 858.347 829.894C856.985 829.894 855.902 830.196 855.097 830.8C854.292 831.392 853.76 832.137 853.499 833.037L846.504 832.469C846.859 830.812 847.557 829.379 848.599 828.172C849.64 826.953 850.984 826.018 852.629 825.366C854.286 824.704 856.204 824.372 858.382 824.372C859.897 824.372 861.347 824.55 862.732 824.905C864.129 825.26 865.366 825.81 866.443 826.556C867.532 827.302 868.39 828.261 869.018 829.433C869.645 830.593 869.959 831.983 869.959 833.605V852H862.786V848.218H862.572C862.134 849.07 861.549 849.822 860.815 850.473C860.081 851.112 859.199 851.615 858.169 851.982C857.139 852.337 855.95 852.515 854.6 852.515ZM856.766 847.295C857.879 847.295 858.862 847.076 859.714 846.638C860.566 846.188 861.235 845.584 861.72 844.827C862.205 844.069 862.448 843.211 862.448 842.252V839.358C862.211 839.512 861.886 839.654 861.472 839.784C861.069 839.902 860.613 840.015 860.104 840.121C859.595 840.216 859.086 840.305 858.577 840.388C858.068 840.459 857.607 840.524 857.192 840.583C856.305 840.713 855.529 840.92 854.866 841.205C854.204 841.489 853.689 841.873 853.322 842.359C852.955 842.832 852.771 843.424 852.771 844.134C852.771 845.164 853.144 845.951 853.89 846.496C854.647 847.028 855.606 847.295 856.766 847.295ZM874.827 852V824.727H882.16V829.486H882.444C882.941 827.793 883.776 826.515 884.948 825.651C886.12 824.775 887.469 824.337 888.996 824.337C889.375 824.337 889.783 824.36 890.221 824.408C890.659 824.455 891.044 824.52 891.375 824.603V831.315C891.02 831.208 890.529 831.113 889.902 831.031C889.274 830.948 888.7 830.906 888.179 830.906C887.067 830.906 886.072 831.149 885.196 831.634C884.332 832.108 883.646 832.771 883.137 833.623C882.64 834.475 882.391 835.458 882.391 836.57V852H874.827ZM894.286 852V824.727H901.495V829.539H901.814C902.383 827.941 903.33 826.68 904.655 825.757C905.981 824.834 907.567 824.372 909.414 824.372C911.284 824.372 912.876 824.84 914.19 825.775C915.504 826.698 916.38 827.953 916.818 829.539H917.102C917.658 827.977 918.665 826.728 920.121 825.793C921.588 824.846 923.323 824.372 925.323 824.372C927.868 824.372 929.934 825.183 931.52 826.805C933.118 828.415 933.917 830.699 933.917 833.658V852H926.371V835.15C926.371 833.635 925.968 832.498 925.163 831.741C924.358 830.983 923.352 830.604 922.145 830.604C920.772 830.604 919.7 831.042 918.931 831.918C918.162 832.782 917.777 833.925 917.777 835.345V852H910.444V834.99C910.444 833.652 910.059 832.587 909.29 831.794C908.532 831.001 907.532 830.604 906.289 830.604C905.448 830.604 904.691 830.817 904.016 831.244C903.353 831.658 902.827 832.244 902.436 833.001C902.045 833.747 901.85 834.623 901.85 835.629V852H894.286ZM946.669 852.515C944.928 852.515 943.378 852.213 942.017 851.609C940.655 850.994 939.578 850.088 938.785 848.893C938.004 847.685 937.613 846.182 937.613 844.383C937.613 842.868 937.891 841.595 938.448 840.565C939.004 839.536 939.762 838.707 940.72 838.08C941.679 837.452 942.768 836.979 943.987 836.659C945.218 836.339 946.509 836.115 947.858 835.984C949.444 835.819 950.723 835.665 951.693 835.523C952.664 835.369 953.368 835.144 953.806 834.848C954.244 834.552 954.463 834.114 954.463 833.534V833.428C954.463 832.303 954.108 831.433 953.398 830.817C952.7 830.202 951.705 829.894 950.415 829.894C949.054 829.894 947.971 830.196 947.166 830.8C946.361 831.392 945.828 832.137 945.568 833.037L938.572 832.469C938.927 830.812 939.625 829.379 940.667 828.172C941.709 826.953 943.052 826.018 944.698 825.366C946.355 824.704 948.272 824.372 950.45 824.372C951.966 824.372 953.416 824.55 954.801 824.905C956.197 825.26 957.434 825.81 958.512 826.556C959.601 827.302 960.459 828.261 961.086 829.433C961.713 830.593 962.027 831.983 962.027 833.605V852H954.854V848.218H954.641C954.203 849.07 953.617 849.822 952.883 850.473C952.149 851.112 951.267 851.615 950.237 851.982C949.208 852.337 948.018 852.515 946.669 852.515ZM948.835 847.295C949.947 847.295 950.93 847.076 951.782 846.638C952.634 846.188 953.303 845.584 953.789 844.827C954.274 844.069 954.517 843.211 954.517 842.252V839.358C954.28 839.512 953.954 839.654 953.54 839.784C953.137 839.902 952.682 840.015 952.173 840.121C951.664 840.216 951.155 840.305 950.646 840.388C950.137 840.459 949.675 840.524 949.261 840.583C948.373 840.713 947.598 840.92 946.935 841.205C946.272 841.489 945.757 841.873 945.39 842.359C945.023 842.832 944.84 843.424 944.84 844.134C944.84 845.164 945.213 845.951 945.958 846.496C946.716 847.028 947.675 847.295 948.835 847.295ZM976.945 852.444C974.874 852.444 972.997 851.911 971.317 850.846C969.648 849.769 968.322 848.188 967.339 846.105C966.369 844.01 965.883 841.441 965.883 838.399C965.883 835.274 966.386 832.676 967.393 830.604C968.399 828.521 969.736 826.964 971.405 825.935C973.086 824.893 974.927 824.372 976.927 824.372C978.454 824.372 979.727 824.633 980.745 825.153C981.775 825.662 982.603 826.302 983.231 827.071C983.87 827.829 984.355 828.574 984.687 829.308H984.917V815.636H992.464V852H985.006V847.632H984.687C984.331 848.39 983.828 849.141 983.177 849.887C982.538 850.621 981.704 851.231 980.674 851.716C979.656 852.201 978.413 852.444 976.945 852.444ZM979.342 846.425C980.561 846.425 981.591 846.093 982.432 845.43C983.284 844.756 983.935 843.815 984.385 842.607C984.846 841.4 985.077 839.985 985.077 838.364C985.077 836.742 984.852 835.333 984.403 834.138C983.953 832.942 983.302 832.019 982.449 831.368C981.597 830.717 980.561 830.391 979.342 830.391C978.099 830.391 977.052 830.729 976.199 831.403C975.347 832.078 974.702 833.013 974.264 834.209C973.826 835.404 973.607 836.789 973.607 838.364C973.607 839.95 973.826 841.353 974.264 842.572C974.714 843.779 975.359 844.726 976.199 845.413C977.052 846.087 978.099 846.425 979.342 846.425ZM1005.46 852.515C1003.72 852.515 1002.17 852.213 1000.81 851.609C999.446 850.994 998.369 850.088 997.576 848.893C996.795 847.685 996.404 846.182 996.404 844.383C996.404 842.868 996.682 841.595 997.239 840.565C997.795 839.536 998.553 838.707 999.511 838.08C1000.47 837.452 1001.56 836.979 1002.78 836.659C1004.01 836.339 1005.3 836.115 1006.65 835.984C1008.24 835.819 1009.51 835.665 1010.48 835.523C1011.46 835.369 1012.16 835.144 1012.6 834.848C1013.04 834.552 1013.25 834.114 1013.25 833.534V833.428C1013.25 832.303 1012.9 831.433 1012.19 830.817C1011.49 830.202 1010.5 829.894 1009.21 829.894C1007.84 829.894 1006.76 830.196 1005.96 830.8C1005.15 831.392 1004.62 832.137 1004.36 833.037L997.363 832.469C997.718 830.812 998.416 829.379 999.458 828.172C1000.5 826.953 1001.84 826.018 1003.49 825.366C1005.15 824.704 1007.06 824.372 1009.24 824.372C1010.76 824.372 1012.21 824.55 1013.59 824.905C1014.99 825.26 1016.23 825.81 1017.3 826.556C1018.39 827.302 1019.25 828.261 1019.88 829.433C1020.5 830.593 1020.82 831.983 1020.82 833.605V852H1013.64V848.218H1013.43C1012.99 849.07 1012.41 849.822 1011.67 850.473C1010.94 851.112 1010.06 851.615 1009.03 851.982C1008 852.337 1006.81 852.515 1005.46 852.515ZM1007.63 847.295C1008.74 847.295 1009.72 847.076 1010.57 846.638C1011.43 846.188 1012.09 845.584 1012.58 844.827C1013.06 844.069 1013.31 843.211 1013.31 842.252V839.358C1013.07 839.512 1012.75 839.654 1012.33 839.784C1011.93 839.902 1011.47 840.015 1010.96 840.121C1010.45 840.216 1009.95 840.305 1009.44 840.388C1008.93 840.459 1008.47 840.524 1008.05 840.583C1007.16 840.713 1006.39 840.92 1005.73 841.205C1005.06 841.489 1004.55 841.873 1004.18 842.359C1003.81 842.832 1003.63 843.424 1003.63 844.134C1003.63 845.164 1004 845.951 1004.75 846.496C1005.51 847.028 1006.47 847.295 1007.63 847.295Z" fill="black"/>
<path d="M94.8593 58.3672H87.0823C86.9403 57.361 86.6502 56.4673 86.2123 55.6861C85.7743 54.893 85.212 54.2183 84.5255 53.6619C83.8389 53.1056 83.0458 52.6794 82.1462 52.3835C81.2584 52.0876 80.2937 51.9396 79.252 51.9396C77.3699 51.9396 75.7305 52.4072 74.3337 53.3423C72.9369 54.2656 71.8538 55.6151 71.0844 57.3906C70.315 59.1544 69.9303 61.2969 69.9303 63.8182C69.9303 66.4105 70.315 68.5885 71.0844 70.3523C71.8657 72.116 72.9547 73.4477 74.3515 74.3473C75.7483 75.2469 77.364 75.6967 79.1988 75.6967C80.2286 75.6967 81.1815 75.5606 82.0574 75.2884C82.9452 75.0161 83.7324 74.6196 84.4189 74.0987C85.1055 73.5661 85.6737 72.9209 86.1235 72.1634C86.5851 71.4058 86.9047 70.5417 87.0823 69.571L94.8593 69.6065C94.6581 71.2756 94.155 72.8854 93.3501 74.4361C92.557 75.9749 91.4857 77.3539 90.1363 78.5732C88.7987 79.7805 87.2007 80.7393 85.3422 81.4496C83.4957 82.148 81.4064 82.4972 79.0745 82.4972C75.8311 82.4972 72.931 81.7633 70.3742 80.2955C67.8292 78.8277 65.8169 76.7029 64.3373 73.9212C62.8695 71.1394 62.1356 67.7718 62.1356 63.8182C62.1356 59.8527 62.8813 56.4792 64.3728 53.6974C65.8643 50.9157 67.8884 48.7969 70.4452 47.3409C73.002 45.8731 75.8785 45.1392 79.0745 45.1392C81.1815 45.1392 83.1346 45.4351 84.9339 46.027C86.7449 46.6188 88.3489 47.483 89.7457 48.6193C91.1424 49.7438 92.2788 51.1229 93.1547 52.7564C94.0425 54.3899 94.6107 56.2602 94.8593 58.3672ZM111.553 82.5327C108.795 82.5327 106.41 81.9467 104.397 80.7749C102.397 79.5911 100.852 77.9458 99.7631 75.8388C98.674 73.7199 98.1295 71.2637 98.1295 68.4702C98.1295 65.6529 98.674 63.1908 99.7631 61.0838C100.852 58.965 102.397 57.3196 104.397 56.1477C106.41 54.964 108.795 54.3722 111.553 54.3722C114.311 54.3722 116.69 54.964 118.691 56.1477C120.703 57.3196 122.254 58.965 123.343 61.0838C124.432 63.1908 124.976 65.6529 124.976 68.4702C124.976 71.2637 124.432 73.7199 123.343 75.8388C122.254 77.9458 120.703 79.5911 118.691 80.7749C116.69 81.9467 114.311 82.5327 111.553 82.5327ZM111.588 76.6733C112.843 76.6733 113.891 76.3182 114.731 75.608C115.572 74.8859 116.205 73.9034 116.631 72.6605C117.069 71.4176 117.288 70.0031 117.288 68.4169C117.288 66.8307 117.069 65.4162 116.631 64.1733C116.205 62.9304 115.572 61.9479 114.731 61.2259C113.891 60.5038 112.843 60.1428 111.588 60.1428C110.322 60.1428 109.256 60.5038 108.392 61.2259C107.54 61.9479 106.895 62.9304 106.457 64.1733C106.031 65.4162 105.818 66.8307 105.818 68.4169C105.818 70.0031 106.031 71.4176 106.457 72.6605C106.895 73.9034 107.54 74.8859 108.392 75.608C109.256 76.3182 110.322 76.6733 111.588 76.6733ZM151.586 62.5043L144.661 62.9304C144.543 62.3385 144.289 61.8059 143.898 61.3324C143.507 60.8471 142.992 60.4624 142.353 60.1783C141.726 59.8823 140.974 59.7344 140.098 59.7344C138.926 59.7344 137.938 59.983 137.133 60.4801C136.328 60.9654 135.926 61.6165 135.926 62.4332C135.926 63.0843 136.186 63.6347 136.707 64.0845C137.228 64.5343 138.121 64.8954 139.388 65.1676L144.324 66.1619C146.976 66.7064 148.952 67.5824 150.255 68.7898C151.557 69.9972 152.208 71.5833 152.208 73.5483C152.208 75.3357 151.681 76.9041 150.627 78.2536C149.586 79.603 148.153 80.6565 146.331 81.4141C144.519 82.1598 142.43 82.5327 140.063 82.5327C136.452 82.5327 133.576 81.781 131.434 80.2777C129.303 78.7625 128.054 76.7029 127.687 74.0987L135.127 73.7081C135.352 74.8089 135.896 75.6494 136.76 76.2294C137.624 76.7976 138.731 77.0817 140.081 77.0817C141.406 77.0817 142.472 76.8272 143.277 76.3182C144.093 75.7973 144.508 75.1286 144.519 74.3118C144.508 73.6252 144.218 73.063 143.649 72.625C143.081 72.1752 142.205 71.8319 141.022 71.5952L136.299 70.6541C133.635 70.1214 131.652 69.1982 130.35 67.8842C129.06 66.5703 128.415 64.8954 128.415 62.8594C128.415 61.1075 128.889 59.5982 129.835 58.3317C130.794 57.0651 132.138 56.0885 133.866 55.402C135.606 54.7154 137.642 54.3722 139.974 54.3722C143.419 54.3722 146.129 55.1001 148.106 56.5561C150.095 58.0121 151.255 59.9948 151.586 62.5043ZM170.477 54.7273V60.4091H154.053V54.7273H170.477ZM157.782 48.1932H165.346V73.6193C165.346 74.3177 165.452 74.8622 165.665 75.2528C165.878 75.6316 166.174 75.898 166.553 76.0518C166.944 76.2057 167.393 76.2827 167.902 76.2827C168.258 76.2827 168.613 76.2531 168.968 76.1939C169.323 76.1229 169.595 76.0696 169.785 76.0341L170.974 81.6626C170.595 81.781 170.063 81.9171 169.376 82.071C168.69 82.2367 167.855 82.3374 166.873 82.3729C165.05 82.4439 163.452 82.2012 162.079 81.6449C160.717 81.0885 159.658 80.2244 158.9 79.0526C158.143 77.8807 157.77 76.401 157.782 74.6136V48.1932Z" fill="black"/>
<rect width="137" height="1" transform="matrix(1 0 0 -1 189 767)" fill="#419EDA"/>
<rect x="519" y="690" width="137" height="77" fill="#419EDA"/>
<rect x="519" y="582" width="137" height="108" fill="#FF003C"/>
<rect x="849" y="421" width="137" height="108" fill="#FF003C"/>
<rect x="189" y="658" width="137" height="108" fill="#FF003C"/>
<rect x="849" y="529" width="137" height="238" fill="#419EDA"/>
</svg>
