<svg width="1200" height="900" viewBox="0 0 1200 900" fill="none" xmlns="http://www.w3.org/2000/svg">
<rect width="1200" height="900" fill="white"/>
<path d="M120 112L91.1325 162H148.868L120 112ZM125 772V157H115V772H125Z" fill="black"/>
<path d="M1080 772L1030 743.132L1030 800.868L1080 772ZM116 777L1035 777L1035 767L116 767L116 777Z" fill="black"/>
<path d="M205.326 851V814.636H213.014V829.64H228.621V814.636H236.291V851H228.621V835.979H213.014V851H205.326ZM272.046 814.636V851H265.405L249.585 828.113H249.318V851H241.63V814.636H248.377L264.073 837.506H264.393V814.636H272.046ZM309.482 827.367H301.705C301.563 826.361 301.273 825.467 300.835 824.686C300.397 823.893 299.835 823.218 299.149 822.662C298.462 822.106 297.669 821.679 296.769 821.384C295.881 821.088 294.917 820.94 293.875 820.94C291.993 820.94 290.354 821.407 288.957 822.342C287.56 823.266 286.477 824.615 285.707 826.391C284.938 828.154 284.553 830.297 284.553 832.818C284.553 835.411 284.938 837.589 285.707 839.352C286.489 841.116 287.578 842.448 288.975 843.347C290.371 844.247 291.987 844.697 293.822 844.697C294.852 844.697 295.805 844.561 296.68 844.288C297.568 844.016 298.355 843.62 299.042 843.099C299.729 842.566 300.297 841.921 300.747 841.163C301.208 840.406 301.528 839.542 301.705 838.571L309.482 838.607C309.281 840.276 308.778 841.885 307.973 843.436C307.18 844.975 306.109 846.354 304.759 847.573C303.422 848.781 301.824 849.739 299.965 850.45C298.119 851.148 296.029 851.497 293.698 851.497C290.454 851.497 287.554 850.763 284.997 849.295C282.452 847.828 280.44 845.703 278.96 842.921C277.493 840.139 276.759 836.772 276.759 832.818C276.759 828.853 277.504 825.479 278.996 822.697C280.487 819.916 282.511 817.797 285.068 816.341C287.625 814.873 290.502 814.139 293.698 814.139C295.805 814.139 297.758 814.435 299.557 815.027C301.368 815.619 302.972 816.483 304.369 817.619C305.765 818.744 306.902 820.123 307.778 821.756C308.666 823.39 309.234 825.26 309.482 827.367Z" fill="black"/>
<path d="M514.855 823.727L505.32 851H496.797L487.262 823.727H495.252L500.917 843.241H501.201L506.847 823.727H514.855ZM549.952 827.367H542.175C542.033 826.361 541.743 825.467 541.305 824.686C540.867 823.893 540.305 823.218 539.618 822.662C538.932 822.106 538.139 821.679 537.239 821.384C536.351 821.088 535.386 820.94 534.345 820.94C532.463 820.94 530.823 821.407 529.426 822.342C528.03 823.266 526.947 824.615 526.177 826.391C525.408 828.154 525.023 830.297 525.023 832.818C525.023 835.411 525.408 837.589 526.177 839.352C526.958 841.116 528.047 842.448 529.444 843.347C530.841 844.247 532.457 844.697 534.292 844.697C535.321 844.697 536.274 844.561 537.15 844.288C538.038 844.016 538.825 843.62 539.512 843.099C540.198 842.566 540.766 841.921 541.216 841.163C541.678 840.406 541.998 839.542 542.175 838.571L549.952 838.607C549.751 840.276 549.248 841.885 548.443 843.436C547.65 844.975 546.578 846.354 545.229 847.573C543.891 848.781 542.293 849.739 540.435 850.45C538.588 851.148 536.499 851.497 534.167 851.497C530.924 851.497 528.024 850.763 525.467 849.295C522.922 847.828 520.91 845.703 519.43 842.921C517.962 840.139 517.228 836.772 517.228 832.818C517.228 828.853 517.974 825.479 519.466 822.697C520.957 819.916 522.981 817.797 525.538 816.341C528.095 814.873 530.971 814.139 534.167 814.139C536.274 814.139 538.227 814.435 540.027 815.027C541.838 815.619 543.442 816.483 544.838 817.619C546.235 818.744 547.372 820.123 548.248 821.756C549.135 823.39 549.703 825.26 549.952 827.367ZM561.887 814.636V851H554.323V814.636H561.887ZM584.436 839.388V823.727H591.999V851H584.737V846.046H584.453C583.838 847.644 582.814 848.929 581.382 849.899C579.961 850.87 578.227 851.355 576.179 851.355C574.356 851.355 572.752 850.941 571.367 850.112C569.982 849.284 568.899 848.106 568.118 846.579C567.349 845.052 566.958 843.223 566.946 841.092V823.727H574.51V839.743C574.522 841.353 574.954 842.625 575.806 843.56C576.659 844.496 577.801 844.963 579.233 844.963C580.145 844.963 580.997 844.756 581.79 844.342C582.583 843.915 583.222 843.288 583.708 842.46C584.205 841.631 584.447 840.607 584.436 839.388ZM619.741 831.504L612.817 831.93C612.698 831.339 612.444 830.806 612.053 830.332C611.663 829.847 611.148 829.462 610.509 829.178C609.881 828.882 609.129 828.734 608.254 828.734C607.082 828.734 606.093 828.983 605.288 829.48C604.483 829.965 604.081 830.616 604.081 831.433C604.081 832.084 604.341 832.635 604.862 833.085C605.383 833.534 606.277 833.895 607.543 834.168L612.479 835.162C615.131 835.706 617.108 836.582 618.41 837.79C619.712 838.997 620.363 840.583 620.363 842.548C620.363 844.336 619.836 845.904 618.783 847.254C617.741 848.603 616.309 849.656 614.486 850.414C612.675 851.16 610.585 851.533 608.218 851.533C604.608 851.533 601.731 850.781 599.589 849.278C597.458 847.763 596.209 845.703 595.842 843.099L603.282 842.708C603.507 843.809 604.051 844.649 604.915 845.229C605.78 845.798 606.886 846.082 608.236 846.082C609.562 846.082 610.627 845.827 611.432 845.318C612.249 844.797 612.663 844.129 612.675 843.312C612.663 842.625 612.373 842.063 611.805 841.625C611.237 841.175 610.361 840.832 609.177 840.595L604.454 839.654C601.79 839.121 599.808 838.198 598.506 836.884C597.215 835.57 596.57 833.895 596.57 831.859C596.57 830.107 597.044 828.598 597.991 827.332C598.95 826.065 600.293 825.089 602.021 824.402C603.761 823.715 605.797 823.372 608.129 823.372C611.574 823.372 614.285 824.1 616.261 825.556C618.25 827.012 619.41 828.995 619.741 831.504ZM638.632 823.727V829.409H622.208V823.727H638.632ZM625.937 817.193H633.501V842.619C633.501 843.318 633.607 843.862 633.82 844.253C634.034 844.632 634.329 844.898 634.708 845.052C635.099 845.206 635.549 845.283 636.058 845.283C636.413 845.283 636.768 845.253 637.123 845.194C637.478 845.123 637.75 845.07 637.94 845.034L639.129 850.663C638.751 850.781 638.218 850.917 637.531 851.071C636.845 851.237 636.01 851.337 635.028 851.373C633.205 851.444 631.607 851.201 630.234 850.645C628.873 850.089 627.813 849.224 627.056 848.053C626.298 846.881 625.925 845.401 625.937 843.614V817.193ZM654.695 851.533C651.89 851.533 649.475 850.964 647.451 849.828C645.439 848.68 643.888 847.058 642.799 844.963C641.71 842.856 641.166 840.364 641.166 837.488C641.166 834.683 641.71 832.22 642.799 830.102C643.888 827.983 645.421 826.331 647.398 825.148C649.387 823.964 651.718 823.372 654.394 823.372C656.193 823.372 657.868 823.662 659.419 824.242C660.981 824.81 662.342 825.669 663.502 826.817C664.674 827.965 665.586 829.409 666.237 831.149C666.888 832.877 667.213 834.902 667.213 837.222V839.299H644.184V834.612H660.093C660.093 833.522 659.856 832.558 659.383 831.717C658.91 830.877 658.253 830.22 657.412 829.746C656.584 829.261 655.619 829.018 654.518 829.018C653.37 829.018 652.352 829.285 651.464 829.817C650.588 830.338 649.901 831.043 649.404 831.93C648.907 832.806 648.653 833.783 648.641 834.86V839.317C648.641 840.666 648.889 841.832 649.387 842.815C649.896 843.797 650.612 844.555 651.535 845.087C652.458 845.62 653.553 845.886 654.82 845.886C655.66 845.886 656.43 845.768 657.128 845.531C657.826 845.295 658.424 844.939 658.921 844.466C659.419 843.992 659.797 843.412 660.058 842.726L667.053 843.188C666.698 844.868 665.97 846.336 664.869 847.591C663.78 848.834 662.372 849.804 660.644 850.503C658.927 851.189 656.945 851.533 654.695 851.533ZM671.149 851V823.727H678.482V828.486H678.767C679.264 826.793 680.098 825.515 681.27 824.651C682.442 823.775 683.791 823.337 685.318 823.337C685.697 823.337 686.106 823.36 686.544 823.408C686.981 823.455 687.366 823.52 687.698 823.603V830.315C687.343 830.208 686.851 830.113 686.224 830.031C685.597 829.948 685.022 829.906 684.502 829.906C683.389 829.906 682.395 830.149 681.519 830.634C680.655 831.108 679.968 831.771 679.459 832.623C678.962 833.475 678.713 834.458 678.713 835.57V851H671.149Z" fill="black"/>
<path d="M813.493 852V815.636H821.181V831.67H821.66L834.746 815.636H843.961L830.467 831.918L844.121 852H834.924L824.963 837.05L821.181 841.666V852H813.493ZM854.6 852.515C852.86 852.515 851.309 852.213 849.948 851.609C848.587 850.994 847.51 850.088 846.717 848.893C845.935 847.685 845.545 846.182 845.545 844.383C845.545 842.868 845.823 841.595 846.379 840.565C846.936 839.536 847.693 838.707 848.652 838.08C849.611 837.452 850.7 836.979 851.919 836.659C853.15 836.339 854.44 836.115 855.79 835.984C857.376 835.819 858.654 835.665 859.625 835.523C860.596 835.369 861.3 835.144 861.738 834.848C862.176 834.552 862.395 834.114 862.395 833.534V833.428C862.395 832.303 862.04 831.433 861.33 830.817C860.631 830.202 859.637 829.894 858.347 829.894C856.985 829.894 855.902 830.196 855.097 830.8C854.292 831.392 853.76 832.137 853.499 833.037L846.504 832.469C846.859 830.812 847.557 829.379 848.599 828.172C849.64 826.953 850.984 826.018 852.629 825.366C854.286 824.704 856.204 824.372 858.382 824.372C859.897 824.372 861.347 824.55 862.732 824.905C864.129 825.26 865.366 825.81 866.443 826.556C867.532 827.302 868.39 828.261 869.018 829.433C869.645 830.593 869.959 831.983 869.959 833.605V852H862.786V848.218H862.572C862.134 849.07 861.549 849.822 860.815 850.473C860.081 851.112 859.199 851.615 858.169 851.982C857.139 852.337 855.95 852.515 854.6 852.515ZM856.766 847.295C857.879 847.295 858.862 847.076 859.714 846.638C860.566 846.188 861.235 845.584 861.72 844.827C862.205 844.069 862.448 843.211 862.448 842.252V839.358C862.211 839.512 861.886 839.654 861.472 839.784C861.069 839.902 860.613 840.015 860.104 840.121C859.595 840.216 859.086 840.305 858.577 840.388C858.068 840.459 857.607 840.524 857.192 840.583C856.305 840.713 855.529 840.92 854.866 841.205C854.204 841.489 853.689 841.873 853.322 842.359C852.955 842.832 852.771 843.424 852.771 844.134C852.771 845.164 853.144 845.951 853.89 846.496C854.647 847.028 855.606 847.295 856.766 847.295ZM874.827 852V824.727H882.16V829.486H882.444C882.941 827.793 883.776 826.515 884.948 825.651C886.12 824.775 887.469 824.337 888.996 824.337C889.375 824.337 889.783 824.36 890.221 824.408C890.659 824.455 891.044 824.52 891.375 824.603V831.315C891.02 831.208 890.529 831.113 889.902 831.031C889.274 830.948 888.7 830.906 888.179 830.906C887.067 830.906 886.072 831.149 885.196 831.634C884.332 832.108 883.646 832.771 883.137 833.623C882.64 834.475 882.391 835.458 882.391 836.57V852H874.827ZM894.286 852V824.727H901.495V829.539H901.814C902.383 827.941 903.33 826.68 904.655 825.757C905.981 824.834 907.567 824.372 909.414 824.372C911.284 824.372 912.876 824.84 914.19 825.775C915.504 826.698 916.38 827.953 916.818 829.539H917.102C917.658 827.977 918.665 826.728 920.121 825.793C921.588 824.846 923.323 824.372 925.323 824.372C927.868 824.372 929.934 825.183 931.52 826.805C933.118 828.415 933.917 830.699 933.917 833.658V852H926.371V835.15C926.371 833.635 925.968 832.498 925.163 831.741C924.358 830.983 923.352 830.604 922.145 830.604C920.772 830.604 919.7 831.042 918.931 831.918C918.162 832.782 917.777 833.925 917.777 835.345V852H910.444V834.99C910.444 833.652 910.059 832.587 909.29 831.794C908.532 831.001 907.532 830.604 906.289 830.604C905.448 830.604 904.691 830.817 904.016 831.244C903.353 831.658 902.827 832.244 902.436 833.001C902.045 833.747 901.85 834.623 901.85 835.629V852H894.286ZM946.669 852.515C944.928 852.515 943.378 852.213 942.017 851.609C940.655 850.994 939.578 850.088 938.785 848.893C938.004 847.685 937.613 846.182 937.613 844.383C937.613 842.868 937.891 841.595 938.448 840.565C939.004 839.536 939.762 838.707 940.72 838.08C941.679 837.452 942.768 836.979 943.987 836.659C945.218 836.339 946.509 836.115 947.858 835.984C949.444 835.819 950.723 835.665 951.693 835.523C952.664 835.369 953.368 835.144 953.806 834.848C954.244 834.552 954.463 834.114 954.463 833.534V833.428C954.463 832.303 954.108 831.433 953.398 830.817C952.7 830.202 951.705 829.894 950.415 829.894C949.054 829.894 947.971 830.196 947.166 830.8C946.361 831.392 945.828 832.137 945.568 833.037L938.572 832.469C938.927 830.812 939.625 829.379 940.667 828.172C941.709 826.953 943.052 826.018 944.698 825.366C946.355 824.704 948.272 824.372 950.45 824.372C951.966 824.372 953.416 824.55 954.801 824.905C956.197 825.26 957.434 825.81 958.512 826.556C959.601 827.302 960.459 828.261 961.086 829.433C961.713 830.593 962.027 831.983 962.027 833.605V852H954.854V848.218H954.641C954.203 849.07 953.617 849.822 952.883 850.473C952.149 851.112 951.267 851.615 950.237 851.982C949.208 852.337 948.018 852.515 946.669 852.515ZM948.835 847.295C949.947 847.295 950.93 847.076 951.782 846.638C952.634 846.188 953.303 845.584 953.789 844.827C954.274 844.069 954.517 843.211 954.517 842.252V839.358C954.28 839.512 953.954 839.654 953.54 839.784C953.137 839.902 952.682 840.015 952.173 840.121C951.664 840.216 951.155 840.305 950.646 840.388C950.137 840.459 949.675 840.524 949.261 840.583C948.373 840.713 947.598 840.92 946.935 841.205C946.272 841.489 945.757 841.873 945.39 842.359C945.023 842.832 944.84 843.424 944.84 844.134C944.84 845.164 945.213 845.951 945.958 846.496C946.716 847.028 947.675 847.295 948.835 847.295ZM976.945 852.444C974.874 852.444 972.997 851.911 971.317 850.846C969.648 849.769 968.322 848.188 967.339 846.105C966.369 844.01 965.883 841.441 965.883 838.399C965.883 835.274 966.386 832.676 967.393 830.604C968.399 828.521 969.736 826.964 971.405 825.935C973.086 824.893 974.927 824.372 976.927 824.372C978.454 824.372 979.727 824.633 980.745 825.153C981.775 825.662 982.603 826.302 983.231 827.071C983.87 827.829 984.355 828.574 984.687 829.308H984.917V815.636H992.464V852H985.006V847.632H984.687C984.331 848.39 983.828 849.141 983.177 849.887C982.538 850.621 981.704 851.231 980.674 851.716C979.656 852.201 978.413 852.444 976.945 852.444ZM979.342 846.425C980.561 846.425 981.591 846.093 982.432 845.43C983.284 844.756 983.935 843.815 984.385 842.607C984.846 841.4 985.077 839.985 985.077 838.364C985.077 836.742 984.852 835.333 984.403 834.138C983.953 832.942 983.302 832.019 982.449 831.368C981.597 830.717 980.561 830.391 979.342 830.391C978.099 830.391 977.052 830.729 976.199 831.403C975.347 832.078 974.702 833.013 974.264 834.209C973.826 835.404 973.607 836.789 973.607 838.364C973.607 839.95 973.826 841.353 974.264 842.572C974.714 843.779 975.359 844.726 976.199 845.413C977.052 846.087 978.099 846.425 979.342 846.425ZM1005.46 852.515C1003.72 852.515 1002.17 852.213 1000.81 851.609C999.446 850.994 998.369 850.088 997.576 848.893C996.795 847.685 996.404 846.182 996.404 844.383C996.404 842.868 996.682 841.595 997.239 840.565C997.795 839.536 998.553 838.707 999.511 838.08C1000.47 837.452 1001.56 836.979 1002.78 836.659C1004.01 836.339 1005.3 836.115 1006.65 835.984C1008.24 835.819 1009.51 835.665 1010.48 835.523C1011.46 835.369 1012.16 835.144 1012.6 834.848C1013.04 834.552 1013.25 834.114 1013.25 833.534V833.428C1013.25 832.303 1012.9 831.433 1012.19 830.817C1011.49 830.202 1010.5 829.894 1009.21 829.894C1007.84 829.894 1006.76 830.196 1005.96 830.8C1005.15 831.392 1004.62 832.137 1004.36 833.037L997.363 832.469C997.718 830.812 998.416 829.379 999.458 828.172C1000.5 826.953 1001.84 826.018 1003.49 825.366C1005.15 824.704 1007.06 824.372 1009.24 824.372C1010.76 824.372 1012.21 824.55 1013.59 824.905C1014.99 825.26 1016.23 825.81 1017.3 826.556C1018.39 827.302 1019.25 828.261 1019.88 829.433C1020.5 830.593 1020.82 831.983 1020.82 833.605V852H1013.64V848.218H1013.43C1012.99 849.07 1012.41 849.822 1011.67 850.473C1010.94 851.112 1010.06 851.615 1009.03 851.982C1008 852.337 1006.81 852.515 1005.46 852.515ZM1007.63 847.295C1008.74 847.295 1009.72 847.076 1010.57 846.638C1011.43 846.188 1012.09 845.584 1012.58 844.827C1013.06 844.069 1013.31 843.211 1013.31 842.252V839.358C1013.07 839.512 1012.75 839.654 1012.33 839.784C1011.93 839.902 1011.47 840.015 1010.96 840.121C1010.45 840.216 1009.95 840.305 1009.44 840.388C1008.93 840.459 1008.47 840.524 1008.05 840.583C1007.16 840.713 1006.39 840.92 1005.73 841.205C1005.06 841.489 1004.55 841.873 1004.18 842.359C1003.81 842.832 1003.63 843.424 1003.63 844.134C1003.63 845.164 1004 845.951 1004.75 846.496C1005.51 847.028 1006.47 847.295 1007.63 847.295Z" fill="black"/>
<path d="M94.8593 58.3672H87.0823C86.9403 57.361 86.6502 56.4673 86.2123 55.6861C85.7743 54.893 85.212 54.2183 84.5255 53.6619C83.8389 53.1056 83.0458 52.6794 82.1462 52.3835C81.2584 52.0876 80.2937 51.9396 79.252 51.9396C77.3699 51.9396 75.7305 52.4072 74.3337 53.3423C72.9369 54.2656 71.8538 55.6151 71.0844 57.3906C70.315 59.1544 69.9303 61.2969 69.9303 63.8182C69.9303 66.4105 70.315 68.5885 71.0844 70.3523C71.8657 72.116 72.9547 73.4477 74.3515 74.3473C75.7483 75.2469 77.364 75.6967 79.1988 75.6967C80.2286 75.6967 81.1815 75.5606 82.0574 75.2884C82.9452 75.0161 83.7324 74.6196 84.4189 74.0987C85.1055 73.5661 85.6737 72.9209 86.1235 72.1634C86.5851 71.4058 86.9047 70.5417 87.0823 69.571L94.8593 69.6065C94.6581 71.2756 94.155 72.8854 93.3501 74.4361C92.557 75.9749 91.4857 77.3539 90.1363 78.5732C88.7987 79.7805 87.2007 80.7393 85.3422 81.4496C83.4957 82.148 81.4064 82.4972 79.0745 82.4972C75.8311 82.4972 72.931 81.7633 70.3742 80.2955C67.8292 78.8277 65.8169 76.7029 64.3373 73.9212C62.8695 71.1394 62.1356 67.7718 62.1356 63.8182C62.1356 59.8527 62.8813 56.4792 64.3728 53.6974C65.8643 50.9157 67.8884 48.7969 70.4452 47.3409C73.002 45.8731 75.8785 45.1392 79.0745 45.1392C81.1815 45.1392 83.1346 45.4351 84.9339 46.027C86.7449 46.6188 88.3489 47.483 89.7457 48.6193C91.1424 49.7438 92.2788 51.1229 93.1547 52.7564C94.0425 54.3899 94.6107 56.2602 94.8593 58.3672ZM111.553 82.5327C108.795 82.5327 106.41 81.9467 104.397 80.7749C102.397 79.5911 100.852 77.9458 99.7631 75.8388C98.674 73.7199 98.1295 71.2637 98.1295 68.4702C98.1295 65.6529 98.674 63.1908 99.7631 61.0838C100.852 58.965 102.397 57.3196 104.397 56.1477C106.41 54.964 108.795 54.3722 111.553 54.3722C114.311 54.3722 116.69 54.964 118.691 56.1477C120.703 57.3196 122.254 58.965 123.343 61.0838C124.432 63.1908 124.976 65.6529 124.976 68.4702C124.976 71.2637 124.432 73.7199 123.343 75.8388C122.254 77.9458 120.703 79.5911 118.691 80.7749C116.69 81.9467 114.311 82.5327 111.553 82.5327ZM111.588 76.6733C112.843 76.6733 113.891 76.3182 114.731 75.608C115.572 74.8859 116.205 73.9034 116.631 72.6605C117.069 71.4176 117.288 70.0031 117.288 68.4169C117.288 66.8307 117.069 65.4162 116.631 64.1733C116.205 62.9304 115.572 61.9479 114.731 61.2259C113.891 60.5038 112.843 60.1428 111.588 60.1428C110.322 60.1428 109.256 60.5038 108.392 61.2259C107.54 61.9479 106.895 62.9304 106.457 64.1733C106.031 65.4162 105.818 66.8307 105.818 68.4169C105.818 70.0031 106.031 71.4176 106.457 72.6605C106.895 73.9034 107.54 74.8859 108.392 75.608C109.256 76.3182 110.322 76.6733 111.588 76.6733ZM151.586 62.5043L144.661 62.9304C144.543 62.3385 144.289 61.8059 143.898 61.3324C143.507 60.8471 142.992 60.4624 142.353 60.1783C141.726 59.8823 140.974 59.7344 140.098 59.7344C138.926 59.7344 137.938 59.983 137.133 60.4801C136.328 60.9654 135.926 61.6165 135.926 62.4332C135.926 63.0843 136.186 63.6347 136.707 64.0845C137.228 64.5343 138.121 64.8954 139.388 65.1676L144.324 66.1619C146.976 66.7064 148.952 67.5824 150.255 68.7898C151.557 69.9972 152.208 71.5833 152.208 73.5483C152.208 75.3357 151.681 76.9041 150.627 78.2536C149.586 79.603 148.153 80.6565 146.331 81.4141C144.519 82.1598 142.43 82.5327 140.063 82.5327C136.452 82.5327 133.576 81.781 131.434 80.2777C129.303 78.7625 128.054 76.7029 127.687 74.0987L135.127 73.7081C135.352 74.8089 135.896 75.6494 136.76 76.2294C137.624 76.7976 138.731 77.0817 140.081 77.0817C141.406 77.0817 142.472 76.8272 143.277 76.3182C144.093 75.7973 144.508 75.1286 144.519 74.3118C144.508 73.6252 144.218 73.063 143.649 72.625C143.081 72.1752 142.205 71.8319 141.022 71.5952L136.299 70.6541C133.635 70.1214 131.652 69.1982 130.35 67.8842C129.06 66.5703 128.415 64.8954 128.415 62.8594C128.415 61.1075 128.889 59.5982 129.835 58.3317C130.794 57.0651 132.138 56.0885 133.866 55.402C135.606 54.7154 137.642 54.3722 139.974 54.3722C143.419 54.3722 146.129 55.1001 148.106 56.5561C150.095 58.0121 151.255 59.9948 151.586 62.5043ZM170.477 54.7273V60.4091H154.053V54.7273H170.477ZM157.782 48.1932H165.346V73.6193C165.346 74.3177 165.452 74.8622 165.665 75.2528C165.878 75.6316 166.174 75.898 166.553 76.0518C166.944 76.2057 167.393 76.2827 167.902 76.2827C168.258 76.2827 168.613 76.2531 168.968 76.1939C169.323 76.1229 169.595 76.0696 169.785 76.0341L170.974 81.6626C170.595 81.781 170.063 81.9171 169.376 82.071C168.69 82.2367 167.855 82.3374 166.873 82.3729C165.05 82.4439 163.452 82.2012 162.079 81.6449C160.717 81.0885 159.658 80.2244 158.9 79.0526C158.143 77.8807 157.77 76.401 157.782 74.6136V48.1932Z" fill="black"/>
<rect width="137" height="1" transform="matrix(1 0 0 -1 189 767)" fill="#419EDA"/>
<rect x="519" y="690" width="137" height="77" fill="#419EDA"/>
<rect x="519" y="582" width="137" height="108" fill="#FF003C"/>
<rect x="849" y="421" width="137" height="108" fill="#FF003C"/>
<rect x="189" y="658" width="137" height="108" fill="#FF003C"/>
<rect x="519" y="508" width="137" height="74" fill="#008F57"/>
<rect x="849" y="347" width="137" height="74" fill="#008F57"/>
<rect x="189" y="584" width="137" height="74" fill="#008F57"/>
<rect x="849" y="529" width="137" height="238" fill="#419EDA"/>
</svg>
