<svg width="1200" height="900" viewBox="0 0 1200 900" fill="none" xmlns="http://www.w3.org/2000/svg">
<rect width="1200" height="900" fill="white"/>
<path d="M120 112L91.1325 162H148.868L120 112ZM125 772V157H115V772H125Z" fill="black"/>
<path d="M1080 772L1030 743.132L1030 800.868L1080 772ZM116 777L1035 777L1035 767L116 767L116 777Z" fill="black"/>
<path d="M205.326 851V814.636H213.014V829.64H228.621V814.636H236.291V851H228.621V835.979H213.014V851H205.326ZM272.046 814.636V851H265.405L249.585 828.113H249.318V851H241.63V814.636H248.377L264.073 837.506H264.393V814.636H272.046ZM309.482 827.367H301.705C301.563 826.361 301.273 825.467 300.835 824.686C300.397 823.893 299.835 823.218 299.149 822.662C298.462 822.106 297.669 821.679 296.769 821.384C295.881 821.088 294.917 820.94 293.875 820.94C291.993 820.94 290.354 821.407 288.957 822.342C287.56 823.266 286.477 824.615 285.707 826.391C284.938 828.154 284.553 830.297 284.553 832.818C284.553 835.411 284.938 837.589 285.707 839.352C286.489 841.116 287.578 842.448 288.975 843.347C290.371 844.247 291.987 844.697 293.822 844.697C294.852 844.697 295.805 844.561 296.68 844.288C297.568 844.016 298.355 843.62 299.042 843.099C299.729 842.566 300.297 841.921 300.747 841.163C301.208 840.406 301.528 839.542 301.705 838.571L309.482 838.607C309.281 840.276 308.778 841.885 307.973 843.436C307.18 844.975 306.109 846.354 304.759 847.573C303.422 848.781 301.824 849.739 299.965 850.45C298.119 851.148 296.029 851.497 293.698 851.497C290.454 851.497 287.554 850.763 284.997 849.295C282.452 847.828 280.44 845.703 278.96 842.921C277.493 840.139 276.759 836.772 276.759 832.818C276.759 828.853 277.504 825.479 278.996 822.697C280.487 819.916 282.511 817.797 285.068 816.341C287.625 814.873 290.502 814.139 293.698 814.139C295.805 814.139 297.758 814.435 299.557 815.027C301.368 815.619 302.972 816.483 304.369 817.619C305.765 818.744 306.902 820.123 307.778 821.756C308.666 823.39 309.234 825.26 309.482 827.367Z" fill="black"/>
<path d="M514.855 823.727L505.32 851H496.797L487.262 823.727H495.252L500.917 843.241H501.201L506.847 823.727H514.855ZM549.952 827.367H542.175C542.033 826.361 541.743 825.467 541.305 824.686C540.867 823.893 540.305 823.218 539.618 822.662C538.932 822.106 538.139 821.679 537.239 821.384C536.351 821.088 535.386 820.94 534.345 820.94C532.463 820.94 530.823 821.407 529.426 822.342C528.03 823.266 526.947 824.615 526.177 826.391C525.408 828.154 525.023 830.297 525.023 832.818C525.023 835.411 525.408 837.589 526.177 839.352C526.958 841.116 528.047 842.448 529.444 843.347C530.841 844.247 532.457 844.697 534.292 844.697C535.321 844.697 536.274 844.561 537.15 844.288C538.038 844.016 538.825 843.62 539.512 843.099C540.198 842.566 540.766 841.921 541.216 841.163C541.678 840.406 541.998 839.542 542.175 838.571L549.952 838.607C549.751 840.276 549.248 841.885 548.443 843.436C547.65 844.975 546.578 846.354 545.229 847.573C543.891 848.781 542.293 849.739 540.435 850.45C538.588 851.148 536.499 851.497 534.167 851.497C530.924 851.497 528.024 850.763 525.467 849.295C522.922 847.828 520.91 845.703 519.43 842.921C517.962 840.139 517.228 836.772 517.228 832.818C517.228 828.853 517.974 825.479 519.466 822.697C520.957 819.916 522.981 817.797 525.538 816.341C528.095 814.873 530.971 814.139 534.167 814.139C536.274 814.139 538.227 814.435 540.027 815.027C541.838 815.619 543.442 816.483 544.838 817.619C546.235 818.744 547.372 820.123 548.248 821.756C549.135 823.39 549.703 825.26 549.952 827.367ZM561.887 814.636V851H554.323V814.636H561.887ZM584.436 839.388V823.727H591.999V851H584.737V846.046H584.453C583.838 847.644 582.814 848.929 581.382 849.899C579.961 850.87 578.227 851.355 576.179 851.355C574.356 851.355 572.752 850.941 571.367 850.112C569.982 849.284 568.899 848.106 568.118 846.579C567.349 845.052 566.958 843.223 566.946 841.092V823.727H574.51V839.743C574.522 841.353 574.954 842.625 575.806 843.56C576.659 844.496 577.801 844.963 579.233 844.963C580.145 844.963 580.997 844.756 581.79 844.342C582.583 843.915 583.222 843.288 583.708 842.46C584.205 841.631 584.447 840.607 584.436 839.388ZM619.741 831.504L612.817 831.93C612.698 831.339 612.444 830.806 612.053 830.332C611.663 829.847 611.148 829.462 610.509 829.178C609.881 828.882 609.129 828.734 608.254 828.734C607.082 828.734 606.093 828.983 605.288 829.48C604.483 829.965 604.081 830.616 604.081 831.433C604.081 832.084 604.341 832.635 604.862 833.085C605.383 833.534 606.277 833.895 607.543 834.168L612.479 835.162C615.131 835.706 617.108 836.582 618.41 837.79C619.712 838.997 620.363 840.583 620.363 842.548C620.363 844.336 619.836 845.904 618.783 847.254C617.741 848.603 616.309 849.656 614.486 850.414C612.675 851.16 610.585 851.533 608.218 851.533C604.608 851.533 601.731 850.781 599.589 849.278C597.458 847.763 596.209 845.703 595.842 843.099L603.282 842.708C603.507 843.809 604.051 844.649 604.915 845.229C605.78 845.798 606.886 846.082 608.236 846.082C609.562 846.082 610.627 845.827 611.432 845.318C612.249 844.797 612.663 844.129 612.675 843.312C612.663 842.625 612.373 842.063 611.805 841.625C611.237 841.175 610.361 840.832 609.177 840.595L604.454 839.654C601.79 839.121 599.808 838.198 598.506 836.884C597.215 835.57 596.57 833.895 596.57 831.859C596.57 830.107 597.044 828.598 597.991 827.332C598.95 826.065 600.293 825.089 602.021 824.402C603.761 823.715 605.797 823.372 608.129 823.372C611.574 823.372 614.285 824.1 616.261 825.556C618.25 827.012 619.41 828.995 619.741 831.504ZM638.632 823.727V829.409H622.208V823.727H638.632ZM625.937 817.193H633.501V842.619C633.501 843.318 633.607 843.862 633.82 844.253C634.034 844.632 634.329 844.898 634.708 845.052C635.099 845.206 635.549 845.283 636.058 845.283C636.413 845.283 636.768 845.253 637.123 845.194C637.478 845.123 637.75 845.07 637.94 845.034L639.129 850.663C638.751 850.781 638.218 850.917 637.531 851.071C636.845 851.237 636.01 851.337 635.028 851.373C633.205 851.444 631.607 851.201 630.234 850.645C628.873 850.089 627.813 849.224 627.056 848.053C626.298 846.881 625.925 845.401 625.937 843.614V817.193ZM654.695 851.533C651.89 851.533 649.475 850.964 647.451 849.828C645.439 848.68 643.888 847.058 642.799 844.963C641.71 842.856 641.166 840.364 641.166 837.488C641.166 834.683 641.71 832.22 642.799 830.102C643.888 827.983 645.421 826.331 647.398 825.148C649.387 823.964 651.718 823.372 654.394 823.372C656.193 823.372 657.868 823.662 659.419 824.242C660.981 824.81 662.342 825.669 663.502 826.817C664.674 827.965 665.586 829.409 666.237 831.149C666.888 832.877 667.213 834.902 667.213 837.222V839.299H644.184V834.612H660.093C660.093 833.522 659.856 832.558 659.383 831.717C658.91 830.877 658.253 830.22 657.412 829.746C656.584 829.261 655.619 829.018 654.518 829.018C653.37 829.018 652.352 829.285 651.464 829.817C650.588 830.338 649.901 831.043 649.404 831.93C648.907 832.806 648.653 833.783 648.641 834.86V839.317C648.641 840.666 648.889 841.832 649.387 842.815C649.896 843.797 650.612 844.555 651.535 845.087C652.458 845.62 653.553 845.886 654.82 845.886C655.66 845.886 656.43 845.768 657.128 845.531C657.826 845.295 658.424 844.939 658.921 844.466C659.419 843.992 659.797 843.412 660.058 842.726L667.053 843.188C666.698 844.868 665.97 846.336 664.869 847.591C663.78 848.834 662.372 849.804 660.644 850.503C658.927 851.189 656.945 851.533 654.695 851.533ZM671.149 851V823.727H678.482V828.486H678.767C679.264 826.793 680.098 825.515 681.27 824.651C682.442 823.775 683.791 823.337 685.318 823.337C685.697 823.337 686.106 823.36 686.544 823.408C686.981 823.455 687.366 823.52 687.698 823.603V830.315C687.343 830.208 686.851 830.113 686.224 830.031C685.597 829.948 685.022 829.906 684.502 829.906C683.389 829.906 682.395 830.149 681.519 830.634C680.655 831.108 679.968 831.771 679.459 832.623C678.962 833.475 678.713 834.458 678.713 835.57V851H671.149Z" fill="black"/>
<path d="M813.493 852V815.636H821.181V831.67H821.66L834.746 815.636H843.961L830.467 831.918L844.121 852H834.924L824.963 837.05L821.181 841.666V852H813.493ZM854.6 852.515C852.86 852.515 851.309 852.213 849.948 851.609C848.587 850.994 847.51 850.088 846.717 848.893C845.935 847.685 845.545 846.182 845.545 844.383C845.545 842.868 845.823 841.595 846.379 840.565C846.936 839.536 847.693 838.707 848.652 838.08C849.611 837.452 850.7 836.979 851.919 836.659C853.15 836.339 854.44 836.115 855.79 835.984C857.376 835.819 858.654 835.665 859.625 835.523C860.596 835.369 861.3 835.144 861.738 834.848C862.176 834.552 862.395 834.114 862.395 833.534V833.428C862.395 832.303 862.04 831.433 861.33 830.817C860.631 830.202 859.637 829.894 858.347 829.894C856.985 829.894 855.902 830.196 855.097 830.8C854.292 831.392 853.76 832.137 853.499 833.037L846.504 832.469C846.859 830.812 847.557 829.379 848.599 828.172C849.64 826.953 850.984 826.018 852.629 825.366C854.286 824.704 856.204 824.372 858.382 824.372C859.897 824.372 861.347 824.55 862.732 824.905C864.129 825.26 865.366 825.81 866.443 826.556C867.532 827.302 868.39 828.261 869.018 829.433C869.645 830.593 869.959 831.983 869.959 833.605V852H862.786V848.218H862.572C862.134 849.07 861.549 849.822 860.815 850.473C860.081 851.112 859.199 851.615 858.169 851.982C857.139 852.337 855.95 852.515 854.6 852.515ZM856.766 847.295C857.879 847.295 858.862 847.076 859.714 846.638C860.566 846.188 861.235 845.584 861.72 844.827C862.205 844.069 862.448 843.211 862.448 842.252V839.358C862.211 839.512 861.886 839.654 861.472 839.784C861.069 839.902 860.613 840.015 860.104 840.121C859.595 840.216 859.086 840.305 858.577 840.388C858.068 840.459 857.607 840.524 857.192 840.583C856.305 840.713 855.529 840.92 854.866 841.205C854.204 841.489 853.689 841.873 853.322 842.359C852.955 842.832 852.771 843.424 852.771 844.134C852.771 845.164 853.144 845.951 853.89 846.496C854.647 847.028 855.606 847.295 856.766 847.295ZM874.827 852V824.727H882.16V829.486H882.444C882.941 827.793 883.776 826.515 884.948 825.651C886.12 824.775 887.469 824.337 888.996 824.337C889.375 824.337 889.783 824.36 890.221 824.408C890.659 824.455 891.044 824.52 891.375 824.603V831.315C891.02 831.208 890.529 831.113 889.902 831.031C889.274 830.948 888.7 830.906 888.179 830.906C887.067 830.906 886.072 831.149 885.196 831.634C884.332 832.108 883.646 832.771 883.137 833.623C882.64 834.475 882.391 835.458 882.391 836.57V852H874.827ZM894.286 852V824.727H901.495V829.539H901.814C902.383 827.941 903.33 826.68 904.655 825.757C905.981 824.834 907.567 824.372 909.414 824.372C911.284 824.372 912.876 824.84 914.19 825.775C915.504 826.698 916.38 827.953 916.818 829.539H917.102C917.658 827.977 918.665 826.728 920.121 825.793C921.588 824.846 923.323 824.372 925.323 824.372C927.868 824.372 929.934 825.183 931.52 826.805C933.118 828.415 933.917 830.699 933.917 833.658V852H926.371V835.15C926.371 833.635 925.968 832.498 925.163 831.741C924.358 830.983 923.352 830.604 922.145 830.604C920.772 830.604 919.7 831.042 918.931 831.918C918.162 832.782 917.777 833.925 917.777 835.345V852H910.444V834.99C910.444 833.652 910.059 832.587 909.29 831.794C908.532 831.001 907.532 830.604 906.289 830.604C905.448 830.604 904.691 830.817 904.016 831.244C903.353 831.658 902.827 832.244 902.436 833.001C902.045 833.747 901.85 834.623 901.85 835.629V852H894.286ZM946.669 852.515C944.928 852.515 943.378 852.213 942.017 851.609C940.655 850.994 939.578 850.088 938.785 848.893C938.004 847.685 937.613 846.182 937.613 844.383C937.613 842.868 937.891 841.595 938.448 840.565C939.004 839.536 939.762 838.707 940.72 838.08C941.679 837.452 942.768 836.979 943.987 836.659C945.218 836.339 946.509 836.115 947.858 835.984C949.444 835.819 950.723 835.665 951.693 835.523C952.664 835.369 953.368 835.144 953.806 834.848C954.244 834.552 954.463 834.114 954.463 833.534V833.428C954.463 832.303 954.108 831.433 953.398 830.817C952.7 830.202 951.705 829.894 950.415 829.894C949.054 829.894 947.971 830.196 947.166 830.8C946.361 831.392 945.828 832.137 945.568 833.037L938.572 832.469C938.927 830.812 939.625 829.379 940.667 828.172C941.709 826.953 943.052 826.018 944.698 825.366C946.355 824.704 948.272 824.372 950.45 824.372C951.966 824.372 953.416 824.55 954.801 824.905C956.197 825.26 957.434 825.81 958.512 826.556C959.601 827.302 960.459 828.261 961.086 829.433C961.713 830.593 962.027 831.983 962.027 833.605V852H954.854V848.218H954.641C954.203 849.07 953.617 849.822 952.883 850.473C952.149 851.112 951.267 851.615 950.237 851.982C949.208 852.337 948.018 852.515 946.669 852.515ZM948.835 847.295C949.947 847.295 950.93 847.076 951.782 846.638C952.634 846.188 953.303 845.584 953.789 844.827C954.274 844.069 954.517 843.211 954.517 842.252V839.358C954.28 839.512 953.954 839.654 953.54 839.784C953.137 839.902 952.682 840.015 952.173 840.121C951.664 840.216 951.155 840.305 950.646 840.388C950.137 840.459 949.675 840.524 949.261 840.583C948.373 840.713 947.598 840.92 946.935 841.205C946.272 841.489 945.757 841.873 945.39 842.359C945.023 842.832 944.84 843.424 944.84 844.134C944.84 845.164 945.213 845.951 945.958 846.496C946.716 847.028 947.675 847.295 948.835 847.295ZM976.945 852.444C974.874 852.444 972.997 851.911 971.317 850.846C969.648 849.769 968.322 848.188 967.339 846.105C966.369 844.01 965.883 841.441 965.883 838.399C965.883 835.274 966.386 832.676 967.393 830.604C968.399 828.521 969.736 826.964 971.405 825.935C973.086 824.893 974.927 824.372 976.927 824.372C978.454 824.372 979.727 824.633 980.745 825.153C981.775 825.662 982.603 826.302 983.231 827.071C983.87 827.829 984.355 828.574 984.687 829.308H984.917V815.636H992.464V852H985.006V847.632H984.687C984.331 848.39 983.828 849.141 983.177 849.887C982.538 850.621 981.704 851.231 980.674 851.716C979.656 852.201 978.413 852.444 976.945 852.444ZM979.342 846.425C980.561 846.425 981.591 846.093 982.432 845.43C983.284 844.756 983.935 843.815 984.385 842.607C984.846 841.4 985.077 839.985 985.077 838.364C985.077 836.742 984.852 835.333 984.403 834.138C983.953 832.942 983.302 832.019 982.449 831.368C981.597 830.717 980.561 830.391 979.342 830.391C978.099 830.391 977.052 830.729 976.199 831.403C975.347 832.078 974.702 833.013 974.264 834.209C973.826 835.404 973.607 836.789 973.607 838.364C973.607 839.95 973.826 841.353 974.264 842.572C974.714 843.779 975.359 844.726 976.199 845.413C977.052 846.087 978.099 846.425 979.342 846.425ZM1005.46 852.515C1003.72 852.515 1002.17 852.213 1000.81 851.609C999.446 850.994 998.369 850.088 997.576 848.893C996.795 847.685 996.404 846.182 996.404 844.383C996.404 842.868 996.682 841.595 997.239 840.565C997.795 839.536 998.553 838.707 999.511 838.08C1000.47 837.452 1001.56 836.979 1002.78 836.659C1004.01 836.339 1005.3 836.115 1006.65 835.984C1008.24 835.819 1009.51 835.665 1010.48 835.523C1011.46 835.369 1012.16 835.144 1012.6 834.848C1013.04 834.552 1013.25 834.114 1013.25 833.534V833.428C1013.25 832.303 1012.9 831.433 1012.19 830.817C1011.49 830.202 1010.5 829.894 1009.21 829.894C1007.84 829.894 1006.76 830.196 1005.96 830.8C1005.15 831.392 1004.62 832.137 1004.36 833.037L997.363 832.469C997.718 830.812 998.416 829.379 999.458 828.172C1000.5 826.953 1001.84 826.018 1003.49 825.366C1005.15 824.704 1007.06 824.372 1009.24 824.372C1010.76 824.372 1012.21 824.55 1013.59 824.905C1014.99 825.26 1016.23 825.81 1017.3 826.556C1018.39 827.302 1019.25 828.261 1019.88 829.433C1020.5 830.593 1020.82 831.983 1020.82 833.605V852H1013.64V848.218H1013.43C1012.99 849.07 1012.41 849.822 1011.67 850.473C1010.94 851.112 1010.06 851.615 1009.03 851.982C1008 852.337 1006.81 852.515 1005.46 852.515ZM1007.63 847.295C1008.74 847.295 1009.72 847.076 1010.57 846.638C1011.43 846.188 1012.09 845.584 1012.58 844.827C1013.06 844.069 1013.31 843.211 1013.31 842.252V839.358C1013.07 839.512 1012.75 839.654 1012.33 839.784C1011.93 839.902 1011.47 840.015 1010.96 840.121C1010.45 840.216 1009.95 840.305 1009.44 840.388C1008.93 840.459 1008.47 840.524 1008.05 840.583C1007.16 840.713 1006.39 840.92 1005.73 841.205C1005.06 841.489 1004.55 841.873 1004.18 842.359C1003.81 842.832 1003.63 843.424 1003.63 844.134C1003.63 845.164 1004 845.951 1004.75 846.496C1005.51 847.028 1006.47 847.295 1007.63 847.295Z" fill="black"/>
<path d="M94.8593 58.3672H87.0823C86.9403 57.361 86.6502 56.4673 86.2123 55.6861C85.7743 54.893 85.212 54.2183 84.5255 53.6619C83.8389 53.1056 83.0458 52.6794 82.1462 52.3835C81.2584 52.0876 80.2937 51.9396 79.252 51.9396C77.3699 51.9396 75.7305 52.4072 74.3337 53.3423C72.9369 54.2656 71.8538 55.6151 71.0844 57.3906C70.315 59.1544 69.9303 61.2969 69.9303 63.8182C69.9303 66.4105 70.315 68.5885 71.0844 70.3523C71.8657 72.116 72.9547 73.4477 74.3515 74.3473C75.7483 75.2469 77.364 75.6967 79.1988 75.6967C80.2286 75.6967 81.1815 75.5606 82.0574 75.2884C82.9452 75.0161 83.7324 74.6196 84.4189 74.0987C85.1055 73.5661 85.6737 72.9209 86.1235 72.1634C86.5851 71.4058 86.9047 70.5417 87.0823 69.571L94.8593 69.6065C94.6581 71.2756 94.155 72.8854 93.3501 74.4361C92.557 75.9749 91.4857 77.3539 90.1363 78.5732C88.7987 79.7805 87.2007 80.7393 85.3422 81.4496C83.4957 82.148 81.4064 82.4972 79.0745 82.4972C75.8311 82.4972 72.931 81.7633 70.3742 80.2955C67.8292 78.8277 65.8169 76.7029 64.3373 73.9212C62.8695 71.1394 62.1356 67.7718 62.1356 63.8182C62.1356 59.8527 62.8813 56.4792 64.3728 53.6974C65.8643 50.9157 67.8884 48.7969 70.4452 47.3409C73.002 45.8731 75.8785 45.1392 79.0745 45.1392C81.1815 45.1392 83.1346 45.4351 84.9339 46.027C86.7449 46.6188 88.3489 47.483 89.7457 48.6193C91.1424 49.7438 92.2788 51.1229 93.1547 52.7564C94.0425 54.3899 94.6107 56.2602 94.8593 58.3672ZM111.553 82.5327C108.795 82.5327 106.41 81.9467 104.397 80.7749C102.397 79.5911 100.852 77.9458 99.7631 75.8388C98.674 73.7199 98.1295 71.2637 98.1295 68.4702C98.1295 65.6529 98.674 63.1908 99.7631 61.0838C100.852 58.965 102.397 57.3196 104.397 56.1477C106.41 54.964 108.795 54.3722 111.553 54.3722C114.311 54.3722 116.69 54.964 118.691 56.1477C120.703 57.3196 122.254 58.965 123.343 61.0838C124.432 63.1908 124.976 65.6529 124.976 68.4702C124.976 71.2637 124.432 73.7199 123.343 75.8388C122.254 77.9458 120.703 79.5911 118.691 80.7749C116.69 81.9467 114.311 82.5327 111.553 82.5327ZM111.588 76.6733C112.843 76.6733 113.891 76.3182 114.731 75.608C115.572 74.8859 116.205 73.9034 116.631 72.6605C117.069 71.4176 117.288 70.0031 117.288 68.4169C117.288 66.8307 117.069 65.4162 116.631 64.1733C116.205 62.9304 115.572 61.9479 114.731 61.2259C113.891 60.5038 112.843 60.1428 111.588 60.1428C110.322 60.1428 109.256 60.5038 108.392 61.2259C107.54 61.9479 106.895 62.9304 106.457 64.1733C106.031 65.4162 105.818 66.8307 105.818 68.4169C105.818 70.0031 106.031 71.4176 106.457 72.6605C106.895 73.9034 107.54 74.8859 108.392 75.608C109.256 76.3182 110.322 76.6733 111.588 76.6733ZM151.586 62.5043L144.661 62.9304C144.543 62.3385 144.289 61.8059 143.898 61.3324C143.507 60.8471 142.992 60.4624 142.353 60.1783C141.726 59.8823 140.974 59.7344 140.098 59.7344C138.926 59.7344 137.938 59.983 137.133 60.4801C136.328 60.9654 135.926 61.6165 135.926 62.4332C135.926 63.0843 136.186 63.6347 136.707 64.0845C137.228 64.5343 138.121 64.8954 139.388 65.1676L144.324 66.1619C146.976 66.7064 148.952 67.5824 150.255 68.7898C151.557 69.9972 152.208 71.5833 152.208 73.5483C152.208 75.3357 151.681 76.9041 150.627 78.2536C149.586 79.603 148.153 80.6565 146.331 81.4141C144.519 82.1598 142.43 82.5327 140.063 82.5327C136.452 82.5327 133.576 81.781 131.434 80.2777C129.303 78.7625 128.054 76.7029 127.687 74.0987L135.127 73.7081C135.352 74.8089 135.896 75.6494 136.76 76.2294C137.624 76.7976 138.731 77.0817 140.081 77.0817C141.406 77.0817 142.472 76.8272 143.277 76.3182C144.093 75.7973 144.508 75.1286 144.519 74.3118C144.508 73.6252 144.218 73.063 143.649 72.625C143.081 72.1752 142.205 71.8319 141.022 71.5952L136.299 70.6541C133.635 70.1214 131.652 69.1982 130.35 67.8842C129.06 66.5703 128.415 64.8954 128.415 62.8594C128.415 61.1075 128.889 59.5982 129.835 58.3317C130.794 57.0651 132.138 56.0885 133.866 55.402C135.606 54.7154 137.642 54.3722 139.974 54.3722C143.419 54.3722 146.129 55.1001 148.106 56.5561C150.095 58.0121 151.255 59.9948 151.586 62.5043ZM170.477 54.7273V60.4091H154.053V54.7273H170.477ZM157.782 48.1932H165.346V73.6193C165.346 74.3177 165.452 74.8622 165.665 75.2528C165.878 75.6316 166.174 75.898 166.553 76.0518C166.944 76.2057 167.393 76.2827 167.902 76.2827C168.258 76.2827 168.613 76.2531 168.968 76.1939C169.323 76.1229 169.595 76.0696 169.785 76.0341L170.974 81.6626C170.595 81.781 170.063 81.9171 169.376 82.071C168.69 82.2367 167.855 82.3374 166.873 82.3729C165.05 82.4439 163.452 82.2012 162.079 81.6449C160.717 81.0885 159.658 80.2244 158.9 79.0526C158.143 77.8807 157.77 76.401 157.782 74.6136V48.1932Z" fill="black"/>
<rect width="137" height="1" transform="matrix(1 0 0 -1 189 767)" fill="#419EDA"/>
<rect x="519" y="690" width="137" height="77" fill="#419EDA"/>
<rect x="519" y="687" width="137" height="3" fill="#FF003C"/>
<rect x="189" y="763" width="137" height="3" fill="#FF003C"/>
<rect x="849" y="529" width="137" height="238" fill="#419EDA"/>
<rect x="306" y="53" width="21.1461" height="21.1461" fill="#FF003C"/>
<rect x="306" y="82.4277" width="21.1461" height="21.1461" fill="#990024"/>
<rect x="306" y="111.854" width="21.1461" height="21.1461" fill="#660018"/>
<rect x="616.748" y="53" width="21.1461" height="21.1461" fill="#FF003C"/>
<rect x="616.748" y="82.4277" width="21.1461" height="21.1461" fill="#990024"/>
<rect x="616.748" y="111.854" width="21.1461" height="21.1461" fill="#660018"/>
<path d="M240.596 72.2131C239.602 72.2131 238.702 71.9574 237.895 71.446C237.094 70.929 236.457 70.1705 235.986 69.1705C235.52 68.1648 235.287 66.9318 235.287 65.4716C235.287 63.9716 235.528 62.7244 236.011 61.7301C236.494 60.7301 237.136 59.983 237.937 59.4886C238.744 58.9886 239.628 58.7386 240.588 58.7386C241.321 58.7386 241.932 58.8636 242.42 59.1136C242.915 59.358 243.312 59.6648 243.614 60.0341C243.92 60.3977 244.153 60.7557 244.312 61.108H244.423V54.5455H248.045V72H244.466V69.9034H244.312C244.142 70.267 243.9 70.6278 243.588 70.9858C243.281 71.3381 242.881 71.6307 242.386 71.8636C241.898 72.0966 241.301 72.2131 240.596 72.2131ZM241.747 69.3239C242.332 69.3239 242.827 69.1648 243.23 68.8466C243.639 68.5227 243.952 68.071 244.167 67.4915C244.389 66.9119 244.5 66.233 244.5 65.4545C244.5 64.6761 244.392 64 244.176 63.4261C243.96 62.8523 243.648 62.4091 243.239 62.0966C242.829 61.7841 242.332 61.6278 241.747 61.6278C241.15 61.6278 240.648 61.7898 240.239 62.1136C239.829 62.4375 239.52 62.8864 239.31 63.4602C239.099 64.0341 238.994 64.6989 238.994 65.4545C238.994 66.2159 239.099 66.8892 239.31 67.4744C239.525 68.054 239.835 68.5085 240.239 68.8381C240.648 69.1619 241.15 69.3239 241.747 69.3239ZM256.516 72.2557C255.17 72.2557 254.011 71.983 253.039 71.4375C252.073 70.8864 251.329 70.108 250.806 69.1023C250.283 68.0909 250.022 66.8949 250.022 65.5142C250.022 64.1676 250.283 62.9858 250.806 61.9688C251.329 60.9517 252.065 60.1591 253.013 59.5909C253.968 59.0227 255.087 58.7386 256.371 58.7386C257.235 58.7386 258.039 58.8778 258.783 59.1562C259.533 59.429 260.187 59.8409 260.744 60.392C261.306 60.9432 261.744 61.6364 262.056 62.4716C262.369 63.3011 262.525 64.2727 262.525 65.3864V66.3835H251.471V64.1335H259.107C259.107 63.6108 258.994 63.1477 258.766 62.7443C258.539 62.3409 258.224 62.0256 257.82 61.7983C257.423 61.5653 256.96 61.4489 256.431 61.4489C255.88 61.4489 255.391 61.5767 254.965 61.8324C254.545 62.0824 254.215 62.4205 253.977 62.8466C253.738 63.267 253.616 63.7358 253.61 64.2528V66.392C253.61 67.0398 253.729 67.5994 253.968 68.071C254.212 68.5426 254.556 68.9062 254.999 69.1619C255.442 69.4176 255.968 69.5455 256.576 69.5455C256.979 69.5455 257.349 69.4886 257.684 69.375C258.019 69.2614 258.306 69.0909 258.545 68.8636C258.783 68.6364 258.965 68.358 259.09 68.0284L262.448 68.25C262.278 69.0568 261.928 69.7614 261.4 70.3636C260.877 70.9602 260.201 71.4261 259.371 71.7614C258.548 72.0909 257.596 72.2557 256.516 72.2557ZM276.267 58.9091L271.69 72H267.6L263.023 58.9091H266.858L269.577 68.2756H269.713L272.423 58.9091H276.267Z" fill="black"/>
<rect x="340.527" y="53" width="21.1461" height="21.1461" fill="#FABE28"/>
<rect x="340.527" y="82.4277" width="21.1461" height="21.1461" fill="#EAA905"/>
<rect x="340.527" y="111.854" width="21.1461" height="21.1461" fill="#B88504"/>
<path d="M236.464 87.9091V90.6364H228.58V87.9091H236.464ZM230.37 84.7727H234.001V96.9773C234.001 97.3125 234.052 97.5739 234.154 97.7614C234.257 97.9432 234.399 98.071 234.58 98.1449C234.768 98.2187 234.984 98.2557 235.228 98.2557C235.399 98.2557 235.569 98.2415 235.74 98.2131C235.91 98.179 236.041 98.1534 236.132 98.1364L236.703 100.838C236.521 100.895 236.265 100.96 235.936 101.034C235.606 101.114 235.205 101.162 234.734 101.179C233.859 101.213 233.092 101.097 232.433 100.83C231.779 100.562 231.271 100.148 230.907 99.5852C230.544 99.0227 230.365 98.3125 230.37 97.4545V84.7727ZM244.174 101.256C242.828 101.256 241.669 100.983 240.697 100.438C239.731 99.8864 238.987 99.108 238.464 98.1023C237.941 97.0909 237.68 95.8949 237.68 94.5142C237.68 93.1676 237.941 91.9858 238.464 90.9688C238.987 89.9517 239.723 89.1591 240.671 88.5909C241.626 88.0227 242.745 87.7386 244.029 87.7386C244.893 87.7386 245.697 87.8778 246.441 88.1562C247.191 88.429 247.845 88.8409 248.402 89.392C248.964 89.9432 249.402 90.6364 249.714 91.4716C250.027 92.3011 250.183 93.2727 250.183 94.3864V95.3835H239.129V93.1335H246.765C246.765 92.6108 246.652 92.1477 246.424 91.7443C246.197 91.3409 245.882 91.0256 245.478 90.7983C245.081 90.5653 244.617 90.4489 244.089 90.4489C243.538 90.4489 243.049 90.5767 242.623 90.8324C242.203 91.0824 241.873 91.4205 241.635 91.8466C241.396 92.267 241.274 92.7358 241.268 93.2528V95.392C241.268 96.0398 241.387 96.5994 241.626 97.071C241.87 97.5426 242.214 97.9062 242.657 98.1619C243.1 98.4176 243.626 98.5455 244.234 98.5455C244.637 98.5455 245.007 98.4886 245.342 98.375C245.677 98.2614 245.964 98.0909 246.203 97.8636C246.441 97.6364 246.623 97.358 246.748 97.0284L250.106 97.25C249.936 98.0568 249.586 98.7614 249.058 99.3636C248.535 99.9602 247.859 100.426 247.029 100.761C246.206 101.091 245.254 101.256 244.174 101.256ZM262.964 91.642L259.64 91.8466C259.584 91.5625 259.461 91.3068 259.274 91.0795C259.086 90.8466 258.839 90.6619 258.532 90.5256C258.231 90.3835 257.87 90.3125 257.45 90.3125C256.887 90.3125 256.413 90.4318 256.027 90.6705C255.64 90.9034 255.447 91.2159 255.447 91.608C255.447 91.9205 255.572 92.1847 255.822 92.4006C256.072 92.6165 256.501 92.7898 257.109 92.9205L259.478 93.3977C260.751 93.6591 261.7 94.0795 262.325 94.6591C262.95 95.2386 263.262 96 263.262 96.9432C263.262 97.8011 263.01 98.554 262.504 99.2017C262.004 99.8494 261.316 100.355 260.441 100.719C259.572 101.077 258.569 101.256 257.433 101.256C255.7 101.256 254.319 100.895 253.291 100.173C252.268 99.446 251.669 98.4574 251.493 97.2074L255.064 97.0199C255.172 97.5483 255.433 97.9517 255.848 98.2301C256.262 98.5028 256.794 98.6392 257.441 98.6392C258.078 98.6392 258.589 98.517 258.976 98.2727C259.368 98.0227 259.566 97.7017 259.572 97.3097C259.566 96.9801 259.427 96.7102 259.155 96.5C258.882 96.2841 258.461 96.1193 257.893 96.0057L255.626 95.554C254.348 95.2983 253.396 94.8551 252.771 94.2244C252.152 93.5937 251.842 92.7898 251.842 91.8125C251.842 90.9716 252.069 90.2472 252.524 89.6392C252.984 89.0312 253.629 88.5625 254.459 88.233C255.294 87.9034 256.271 87.7386 257.39 87.7386C259.044 87.7386 260.345 88.0881 261.294 88.7869C262.248 89.4858 262.805 90.4375 262.964 91.642ZM272.032 87.9091V90.6364H264.148V87.9091H272.032ZM265.938 84.7727H269.569V96.9773C269.569 97.3125 269.62 97.5739 269.722 97.7614C269.824 97.9432 269.966 98.071 270.148 98.1449C270.336 98.2187 270.552 98.2557 270.796 98.2557C270.966 98.2557 271.137 98.2415 271.307 98.2131C271.478 98.179 271.608 98.1534 271.699 98.1364L272.27 100.838C272.089 100.895 271.833 100.96 271.503 101.034C271.174 101.114 270.773 101.162 270.302 101.179C269.427 101.213 268.66 101.097 268.001 100.83C267.347 100.562 266.839 100.148 266.475 99.5852C266.111 99.0227 265.932 98.3125 265.938 97.4545V84.7727Z" fill="black"/>
<rect x="375.055" y="53" width="21.1461" height="21.1461" fill="#00C176"/>
<rect x="375.055" y="82.4277" width="21.1461" height="21.1461" fill="#008F57"/>
<rect x="375.055" y="111.854" width="21.1461" height="21.1461" fill="#005C38"/>
<rect x="409.583" y="53" width="21.1461" height="21.1461" fill="#FF003C"/>
<rect x="409.583" y="82.4277" width="21.1461" height="21.1461" fill="#990024"/>
<rect x="409.583" y="111.854" width="21.1461" height="21.1461" fill="#660018"/>
<rect x="444.11" y="53" width="21.1461" height="21.1461" fill="#FABE28"/>
<rect x="444.11" y="82.4277" width="21.1461" height="21.1461" fill="#EAA905"/>
<rect x="444.11" y="111.854" width="21.1461" height="21.1461" fill="#B88504"/>
<rect x="478.638" y="53" width="21.1461" height="21.1461" fill="#00C176"/>
<rect x="478.638" y="82.4277" width="21.1461" height="21.1461" fill="#008F57"/>
<rect x="478.638" y="111.854" width="21.1461" height="21.1461" fill="#005C38"/>
<rect x="513.166" y="53" width="21.1461" height="21.1461" fill="#FF003C"/>
<rect x="513.166" y="82.4277" width="21.1461" height="21.1461" fill="#990024"/>
<rect x="513.166" y="111.854" width="21.1461" height="21.1461" fill="#660018"/>
<rect x="547.693" y="53" width="21.1461" height="21.1461" fill="#FABE28"/>
<rect x="547.693" y="82.4277" width="21.1461" height="21.1461" fill="#EAA905"/>
<rect x="547.693" y="111.854" width="21.1461" height="21.1461" fill="#B88504"/>
<rect x="582.221" y="53" width="21.1461" height="21.1461" fill="#00C176"/>
<rect x="582.221" y="82.4277" width="21.1461" height="21.1461" fill="#008F57"/>
<rect x="582.221" y="111.854" width="21.1461" height="21.1461" fill="#005C38"/>
<rect x="823.231" y="53" width="21.1461" height="21.1461" fill="#FF003C"/>
<rect x="823.231" y="82.4277" width="21.1461" height="21.1461" fill="#990024"/>
<rect x="823.231" y="111.854" width="21.1461" height="21.1461" fill="#660018"/>
<rect x="1133.98" y="53" width="21.1461" height="21.1461" fill="#FF003C"/>
<rect x="1133.98" y="82.4277" width="21.1461" height="21.1461" fill="#990024"/>
<rect x="1133.98" y="111.854" width="21.1461" height="21.1461" fill="#660018"/>
<rect x="857.758" y="53" width="21.1461" height="21.1461" fill="#FABE28"/>
<rect x="857.758" y="82.4277" width="21.1461" height="21.1461" fill="#EAA905"/>
<rect x="857.758" y="111.854" width="21.1461" height="21.1461" fill="#B88504"/>
<rect x="892.285" y="53" width="21.1461" height="21.1461" fill="#00C176"/>
<rect x="892.285" y="82.4277" width="21.1461" height="21.1461" fill="#008F57"/>
<rect x="892.285" y="111.854" width="21.1461" height="21.1461" fill="#005C38"/>
<rect x="926.813" y="53" width="21.1461" height="21.1461" fill="#FF003C"/>
<rect x="926.813" y="82.4277" width="21.1461" height="21.1461" fill="#990024"/>
<rect x="926.813" y="111.854" width="21.1461" height="21.1461" fill="#660018"/>
<rect x="961.341" y="53" width="21.1461" height="21.1461" fill="#FABE28"/>
<rect x="961.341" y="82.4277" width="21.1461" height="21.1461" fill="#EAA905"/>
<rect x="961.341" y="111.854" width="21.1461" height="21.1461" fill="#B88504"/>
<rect x="995.869" y="53" width="21.1461" height="21.1461" fill="#00C176"/>
<rect x="995.869" y="82.4277" width="21.1461" height="21.1461" fill="#008F57"/>
<rect x="995.869" y="111.854" width="21.1461" height="21.1461" fill="#005C38"/>
<rect x="1030.4" y="53" width="21.1461" height="21.1461" fill="#FF003C"/>
<rect x="1030.4" y="82.4277" width="21.1461" height="21.1461" fill="#990024"/>
<rect x="1030.4" y="111.854" width="21.1461" height="21.1461" fill="#660018"/>
<rect x="1064.92" y="53" width="21.1461" height="21.1461" fill="#FABE28"/>
<rect x="1064.92" y="82.4277" width="21.1461" height="21.1461" fill="#EAA905"/>
<rect x="1064.92" y="111.854" width="21.1461" height="21.1461" fill="#B88504"/>
<rect x="1099.45" y="53" width="21.1461" height="21.1461" fill="#00C176"/>
<rect x="1099.45" y="82.4277" width="21.1461" height="21.1461" fill="#008F57"/>
<rect x="1099.45" y="111.854" width="21.1461" height="21.1461" fill="#005C38"/>
<rect x="651.01" y="53" width="21.1461" height="21.1461" fill="#FABE28"/>
<rect x="651.01" y="82.4277" width="21.1461" height="21.1461" fill="#EAA905"/>
<rect x="651.01" y="111.854" width="21.1461" height="21.1461" fill="#B88504"/>
<rect x="685.538" y="53" width="21.1461" height="21.1461" fill="#00C176"/>
<rect x="685.538" y="82.4277" width="21.1461" height="21.1461" fill="#008F57"/>
<rect x="685.538" y="111.854" width="21.1461" height="21.1461" fill="#005C38"/>
<rect x="720.066" y="53" width="21.1461" height="21.1461" fill="#FF003C"/>
<rect x="720.066" y="82.4277" width="21.1461" height="21.1461" fill="#990024"/>
<rect x="720.066" y="111.854" width="21.1461" height="21.1461" fill="#660018"/>
<rect x="754.593" y="53" width="21.1461" height="21.1461" fill="#FABE28"/>
<rect x="754.593" y="82.4277" width="21.1461" height="21.1461" fill="#EAA905"/>
<rect x="754.593" y="111.854" width="21.1461" height="21.1461" fill="#B88504"/>
<rect x="789.121" y="53" width="21.1461" height="21.1461" fill="#00C176"/>
<rect x="789.121" y="82.4277" width="21.1461" height="21.1461" fill="#008F57"/>
<rect x="789.121" y="111.854" width="21.1461" height="21.1461" fill="#005C38"/>
<rect x="306" y="154" width="21.1461" height="21.1461" fill="#FF003C"/>
<rect x="306" y="183.428" width="21.1461" height="21.1461" fill="#990024"/>
<rect x="306" y="212.854" width="21.1461" height="21.1461" fill="#660018"/>
<rect x="616.748" y="154" width="21.1461" height="21.1461" fill="#FF003C"/>
<rect x="616.748" y="183.428" width="21.1461" height="21.1461" fill="#990024"/>
<rect x="616.748" y="212.854" width="21.1461" height="21.1461" fill="#660018"/>
<rect x="340.527" y="154" width="21.1461" height="21.1461" fill="#FABE28"/>
<rect x="340.527" y="183.428" width="21.1461" height="21.1461" fill="#EAA905"/>
<rect x="340.527" y="212.854" width="21.1461" height="21.1461" fill="#B88504"/>
<rect x="375.055" y="154" width="21.1461" height="21.1461" fill="#00C176"/>
<rect x="375.055" y="183.428" width="21.1461" height="21.1461" fill="#008F57"/>
<rect x="375.055" y="212.854" width="21.1461" height="21.1461" fill="#005C38"/>
<rect x="409.583" y="154" width="21.1461" height="21.1461" fill="#FF003C"/>
<rect x="409.583" y="183.428" width="21.1461" height="21.1461" fill="#990024"/>
<rect x="409.583" y="212.854" width="21.1461" height="21.1461" fill="#660018"/>
<rect x="444.11" y="154" width="21.1461" height="21.1461" fill="#FABE28"/>
<rect x="444.11" y="183.428" width="21.1461" height="21.1461" fill="#EAA905"/>
<rect x="444.11" y="212.854" width="21.1461" height="21.1461" fill="#B88504"/>
<rect x="478.638" y="154" width="21.1461" height="21.1461" fill="#00C176"/>
<rect x="478.638" y="183.428" width="21.1461" height="21.1461" fill="#008F57"/>
<rect x="478.638" y="212.854" width="21.1461" height="21.1461" fill="#005C38"/>
<rect x="513.166" y="154" width="21.1461" height="21.1461" fill="#FF003C"/>
<rect x="513.166" y="183.428" width="21.1461" height="21.1461" fill="#990024"/>
<rect x="513.166" y="212.854" width="21.1461" height="21.1461" fill="#660018"/>
<rect x="547.693" y="154" width="21.1461" height="21.1461" fill="#FABE28"/>
<rect x="547.693" y="183.428" width="21.1461" height="21.1461" fill="#EAA905"/>
<rect x="547.693" y="212.854" width="21.1461" height="21.1461" fill="#B88504"/>
<rect x="582.221" y="154" width="21.1461" height="21.1461" fill="#00C176"/>
<rect x="582.221" y="183.428" width="21.1461" height="21.1461" fill="#008F57"/>
<rect x="582.221" y="212.854" width="21.1461" height="21.1461" fill="#005C38"/>
<rect x="823.231" y="154" width="21.1461" height="21.1461" fill="#FF003C"/>
<rect x="823.231" y="183.428" width="21.1461" height="21.1461" fill="#990024"/>
<rect x="823.231" y="212.854" width="21.1461" height="21.1461" fill="#660018"/>
<rect x="1133.98" y="154" width="21.1461" height="21.1461" fill="#FF003C"/>
<rect x="1133.98" y="183.428" width="21.1461" height="21.1461" fill="#990024"/>
<rect x="1133.98" y="212.854" width="21.1461" height="21.1461" fill="#660018"/>
<rect x="857.758" y="154" width="21.1461" height="21.1461" fill="#FABE28"/>
<rect x="857.758" y="183.428" width="21.1461" height="21.1461" fill="#EAA905"/>
<rect x="857.758" y="212.854" width="21.1461" height="21.1461" fill="#B88504"/>
<rect x="892.285" y="154" width="21.1461" height="21.1461" fill="#00C176"/>
<rect x="892.285" y="183.428" width="21.1461" height="21.1461" fill="#008F57"/>
<rect x="892.285" y="212.854" width="21.1461" height="21.1461" fill="#005C38"/>
<rect x="926.813" y="154" width="21.1461" height="21.1461" fill="#FF003C"/>
<rect x="926.813" y="183.428" width="21.1461" height="21.1461" fill="#990024"/>
<rect x="926.813" y="212.854" width="21.1461" height="21.1461" fill="#660018"/>
<rect x="961.341" y="154" width="21.1461" height="21.1461" fill="#FABE28"/>
<rect x="961.341" y="183.428" width="21.1461" height="21.1461" fill="#EAA905"/>
<rect x="961.341" y="212.854" width="21.1461" height="21.1461" fill="#B88504"/>
<rect x="995.869" y="154" width="21.1461" height="21.1461" fill="#00C176"/>
<rect x="995.869" y="183.428" width="21.1461" height="21.1461" fill="#008F57"/>
<rect x="995.869" y="212.854" width="21.1461" height="21.1461" fill="#005C38"/>
<rect x="1030.4" y="154" width="21.1461" height="21.1461" fill="#FF003C"/>
<rect x="1030.4" y="183.428" width="21.1461" height="21.1461" fill="#990024"/>
<rect x="1030.4" y="212.854" width="21.1461" height="21.1461" fill="#660018"/>
<rect x="1064.92" y="154" width="21.1461" height="21.1461" fill="#FABE28"/>
<rect x="1064.92" y="183.428" width="21.1461" height="21.1461" fill="#EAA905"/>
<rect x="1064.92" y="212.854" width="21.1461" height="21.1461" fill="#B88504"/>
<rect x="1099.45" y="154" width="21.1461" height="21.1461" fill="#00C176"/>
<rect x="1099.45" y="183.428" width="21.1461" height="21.1461" fill="#008F57"/>
<rect x="1099.45" y="212.854" width="21.1461" height="21.1461" fill="#005C38"/>
<rect x="651.01" y="154" width="21.1461" height="21.1461" fill="#FABE28"/>
<rect x="651.01" y="183.428" width="21.1461" height="21.1461" fill="#EAA905"/>
<rect x="651.01" y="212.854" width="21.1461" height="21.1461" fill="#B88504"/>
<rect x="685.538" y="154" width="21.1461" height="21.1461" fill="#00C176"/>
<rect x="685.538" y="183.428" width="21.1461" height="21.1461" fill="#008F57"/>
<rect x="685.538" y="212.854" width="21.1461" height="21.1461" fill="#005C38"/>
<rect x="720.066" y="154" width="21.1461" height="21.1461" fill="#FF003C"/>
<rect x="720.066" y="183.428" width="21.1461" height="21.1461" fill="#990024"/>
<rect x="720.066" y="212.854" width="21.1461" height="21.1461" fill="#660018"/>
<rect x="754.593" y="154" width="21.1461" height="21.1461" fill="#FABE28"/>
<rect x="754.593" y="183.428" width="21.1461" height="21.1461" fill="#EAA905"/>
<rect x="754.593" y="212.854" width="21.1461" height="21.1461" fill="#B88504"/>
<rect x="789.121" y="154" width="21.1461" height="21.1461" fill="#00C176"/>
<rect x="789.121" y="183.428" width="21.1461" height="21.1461" fill="#008F57"/>
<rect x="789.121" y="212.854" width="21.1461" height="21.1461" fill="#005C38"/>
<path d="M221.481 134.909V116.909H225.061V119.108H225.223C225.382 118.756 225.612 118.398 225.913 118.034C226.22 117.665 226.618 117.358 227.106 117.114C227.601 116.864 228.214 116.739 228.947 116.739C229.902 116.739 230.782 116.989 231.589 117.489C232.396 117.983 233.041 118.73 233.524 119.73C234.007 120.724 234.248 121.972 234.248 123.472C234.248 124.932 234.013 126.165 233.541 127.17C233.075 128.17 232.439 128.929 231.632 129.446C230.831 129.957 229.933 130.213 228.939 130.213C228.234 130.213 227.635 130.097 227.14 129.864C226.652 129.631 226.251 129.338 225.939 128.986C225.626 128.628 225.388 128.267 225.223 127.903H225.112V134.909H221.481ZM225.035 123.455C225.035 124.233 225.143 124.912 225.359 125.491C225.575 126.071 225.888 126.523 226.297 126.847C226.706 127.165 227.203 127.324 227.788 127.324C228.379 127.324 228.879 127.162 229.288 126.838C229.697 126.509 230.007 126.054 230.217 125.474C230.433 124.889 230.541 124.216 230.541 123.455C230.541 122.699 230.436 122.034 230.226 121.46C230.015 120.886 229.706 120.437 229.297 120.114C228.888 119.79 228.385 119.628 227.788 119.628C227.197 119.628 226.697 119.784 226.288 120.097C225.885 120.409 225.575 120.852 225.359 121.426C225.143 122 225.035 122.676 225.035 123.455ZM236.189 130V116.909H239.709V119.193H239.845C240.084 118.381 240.484 117.767 241.047 117.352C241.609 116.932 242.257 116.722 242.99 116.722C243.172 116.722 243.368 116.733 243.578 116.756C243.788 116.778 243.973 116.81 244.132 116.849V120.071C243.962 120.02 243.726 119.974 243.425 119.935C243.124 119.895 242.848 119.875 242.598 119.875C242.064 119.875 241.587 119.991 241.166 120.224C240.751 120.452 240.422 120.77 240.177 121.179C239.939 121.588 239.82 122.06 239.82 122.594V130H236.189ZM250.835 130.256C249.511 130.256 248.366 129.974 247.4 129.412C246.44 128.844 245.698 128.054 245.175 127.043C244.653 126.026 244.391 124.847 244.391 123.506C244.391 122.153 244.653 120.972 245.175 119.96C245.698 118.943 246.44 118.153 247.4 117.591C248.366 117.023 249.511 116.739 250.835 116.739C252.158 116.739 253.3 117.023 254.261 117.591C255.227 118.153 255.971 118.943 256.494 119.96C257.016 120.972 257.278 122.153 257.278 123.506C257.278 124.847 257.016 126.026 256.494 127.043C255.971 128.054 255.227 128.844 254.261 129.412C253.3 129.974 252.158 130.256 250.835 130.256ZM250.852 127.443C251.454 127.443 251.957 127.273 252.36 126.932C252.764 126.585 253.068 126.114 253.272 125.517C253.482 124.92 253.587 124.241 253.587 123.48C253.587 122.719 253.482 122.04 253.272 121.443C253.068 120.847 252.764 120.375 252.36 120.028C251.957 119.682 251.454 119.509 250.852 119.509C250.244 119.509 249.732 119.682 249.318 120.028C248.908 120.375 248.599 120.847 248.389 121.443C248.184 122.04 248.082 122.719 248.082 123.48C248.082 124.241 248.184 124.92 248.389 125.517C248.599 126.114 248.908 126.585 249.318 126.932C249.732 127.273 250.244 127.443 250.852 127.443ZM263.982 130.213C262.988 130.213 262.088 129.957 261.281 129.446C260.48 128.929 259.843 128.17 259.372 127.17C258.906 126.165 258.673 124.932 258.673 123.472C258.673 121.972 258.914 120.724 259.397 119.73C259.88 118.73 260.522 117.983 261.323 117.489C262.13 116.989 263.014 116.739 263.974 116.739C264.707 116.739 265.318 116.864 265.806 117.114C266.301 117.358 266.698 117.665 266.999 118.034C267.306 118.398 267.539 118.756 267.698 119.108H267.809V112.545H271.431V130H267.852V127.903H267.698C267.528 128.267 267.286 128.628 266.974 128.986C266.667 129.338 266.267 129.631 265.772 129.864C265.284 130.097 264.687 130.213 263.982 130.213ZM265.133 127.324C265.718 127.324 266.213 127.165 266.616 126.847C267.025 126.523 267.338 126.071 267.553 125.491C267.775 124.912 267.886 124.233 267.886 123.455C267.886 122.676 267.778 122 267.562 121.426C267.346 120.852 267.034 120.409 266.624 120.097C266.215 119.784 265.718 119.628 265.133 119.628C264.536 119.628 264.034 119.79 263.624 120.114C263.215 120.437 262.906 120.886 262.695 121.46C262.485 122.034 262.38 122.699 262.38 123.455C262.38 124.216 262.485 124.889 262.695 125.474C262.911 126.054 263.221 126.509 263.624 126.838C264.034 127.162 264.536 127.324 265.133 127.324Z" fill="black"/>
<path d="M240.596 173.213C239.602 173.213 238.702 172.957 237.895 172.446C237.094 171.929 236.457 171.17 235.986 170.17C235.52 169.165 235.287 167.932 235.287 166.472C235.287 164.972 235.528 163.724 236.011 162.73C236.494 161.73 237.136 160.983 237.937 160.489C238.744 159.989 239.628 159.739 240.588 159.739C241.321 159.739 241.932 159.864 242.42 160.114C242.915 160.358 243.312 160.665 243.614 161.034C243.92 161.398 244.153 161.756 244.312 162.108H244.423V155.545H248.045V173H244.466V170.903H244.312C244.142 171.267 243.9 171.628 243.588 171.986C243.281 172.338 242.881 172.631 242.386 172.864C241.898 173.097 241.301 173.213 240.596 173.213ZM241.747 170.324C242.332 170.324 242.827 170.165 243.23 169.847C243.639 169.523 243.952 169.071 244.167 168.491C244.389 167.912 244.5 167.233 244.5 166.455C244.5 165.676 244.392 165 244.176 164.426C243.96 163.852 243.648 163.409 243.239 163.097C242.829 162.784 242.332 162.628 241.747 162.628C241.15 162.628 240.648 162.79 240.239 163.114C239.829 163.437 239.52 163.886 239.31 164.46C239.099 165.034 238.994 165.699 238.994 166.455C238.994 167.216 239.099 167.889 239.31 168.474C239.525 169.054 239.835 169.509 240.239 169.838C240.648 170.162 241.15 170.324 241.747 170.324ZM256.516 173.256C255.17 173.256 254.011 172.983 253.039 172.438C252.073 171.886 251.329 171.108 250.806 170.102C250.283 169.091 250.022 167.895 250.022 166.514C250.022 165.168 250.283 163.986 250.806 162.969C251.329 161.952 252.065 161.159 253.013 160.591C253.968 160.023 255.087 159.739 256.371 159.739C257.235 159.739 258.039 159.878 258.783 160.156C259.533 160.429 260.187 160.841 260.744 161.392C261.306 161.943 261.744 162.636 262.056 163.472C262.369 164.301 262.525 165.273 262.525 166.386V167.384H251.471V165.134H259.107C259.107 164.611 258.994 164.148 258.766 163.744C258.539 163.341 258.224 163.026 257.82 162.798C257.423 162.565 256.96 162.449 256.431 162.449C255.88 162.449 255.391 162.577 254.965 162.832C254.545 163.082 254.215 163.42 253.977 163.847C253.738 164.267 253.616 164.736 253.61 165.253V167.392C253.61 168.04 253.729 168.599 253.968 169.071C254.212 169.543 254.556 169.906 254.999 170.162C255.442 170.418 255.968 170.545 256.576 170.545C256.979 170.545 257.349 170.489 257.684 170.375C258.019 170.261 258.306 170.091 258.545 169.864C258.783 169.636 258.965 169.358 259.09 169.028L262.448 169.25C262.278 170.057 261.928 170.761 261.4 171.364C260.877 171.96 260.201 172.426 259.371 172.761C258.548 173.091 257.596 173.256 256.516 173.256ZM276.267 159.909L271.69 173H267.6L263.023 159.909H266.858L269.577 169.276H269.713L272.423 159.909H276.267Z" fill="black"/>
<path d="M236.464 188.909V191.636H228.58V188.909H236.464ZM230.37 185.773H234.001V197.977C234.001 198.312 234.052 198.574 234.154 198.761C234.257 198.943 234.399 199.071 234.58 199.145C234.768 199.219 234.984 199.256 235.228 199.256C235.399 199.256 235.569 199.241 235.74 199.213C235.91 199.179 236.041 199.153 236.132 199.136L236.703 201.838C236.521 201.895 236.265 201.96 235.936 202.034C235.606 202.114 235.205 202.162 234.734 202.179C233.859 202.213 233.092 202.097 232.433 201.83C231.779 201.562 231.271 201.148 230.907 200.585C230.544 200.023 230.365 199.312 230.37 198.455V185.773ZM244.174 202.256C242.828 202.256 241.669 201.983 240.697 201.438C239.731 200.886 238.987 200.108 238.464 199.102C237.941 198.091 237.68 196.895 237.68 195.514C237.68 194.168 237.941 192.986 238.464 191.969C238.987 190.952 239.723 190.159 240.671 189.591C241.626 189.023 242.745 188.739 244.029 188.739C244.893 188.739 245.697 188.878 246.441 189.156C247.191 189.429 247.845 189.841 248.402 190.392C248.964 190.943 249.402 191.636 249.714 192.472C250.027 193.301 250.183 194.273 250.183 195.386V196.384H239.129V194.134H246.765C246.765 193.611 246.652 193.148 246.424 192.744C246.197 192.341 245.882 192.026 245.478 191.798C245.081 191.565 244.617 191.449 244.089 191.449C243.538 191.449 243.049 191.577 242.623 191.832C242.203 192.082 241.873 192.42 241.635 192.847C241.396 193.267 241.274 193.736 241.268 194.253V196.392C241.268 197.04 241.387 197.599 241.626 198.071C241.87 198.543 242.214 198.906 242.657 199.162C243.1 199.418 243.626 199.545 244.234 199.545C244.637 199.545 245.007 199.489 245.342 199.375C245.677 199.261 245.964 199.091 246.203 198.864C246.441 198.636 246.623 198.358 246.748 198.028L250.106 198.25C249.936 199.057 249.586 199.761 249.058 200.364C248.535 200.96 247.859 201.426 247.029 201.761C246.206 202.091 245.254 202.256 244.174 202.256ZM262.964 192.642L259.64 192.847C259.584 192.562 259.461 192.307 259.274 192.08C259.086 191.847 258.839 191.662 258.532 191.526C258.231 191.384 257.87 191.312 257.45 191.312C256.887 191.312 256.413 191.432 256.027 191.67C255.64 191.903 255.447 192.216 255.447 192.608C255.447 192.92 255.572 193.185 255.822 193.401C256.072 193.616 256.501 193.79 257.109 193.92L259.478 194.398C260.751 194.659 261.7 195.08 262.325 195.659C262.95 196.239 263.262 197 263.262 197.943C263.262 198.801 263.01 199.554 262.504 200.202C262.004 200.849 261.316 201.355 260.441 201.719C259.572 202.077 258.569 202.256 257.433 202.256C255.7 202.256 254.319 201.895 253.291 201.173C252.268 200.446 251.669 199.457 251.493 198.207L255.064 198.02C255.172 198.548 255.433 198.952 255.848 199.23C256.262 199.503 256.794 199.639 257.441 199.639C258.078 199.639 258.589 199.517 258.976 199.273C259.368 199.023 259.566 198.702 259.572 198.31C259.566 197.98 259.427 197.71 259.155 197.5C258.882 197.284 258.461 197.119 257.893 197.006L255.626 196.554C254.348 196.298 253.396 195.855 252.771 195.224C252.152 194.594 251.842 193.79 251.842 192.812C251.842 191.972 252.069 191.247 252.524 190.639C252.984 190.031 253.629 189.562 254.459 189.233C255.294 188.903 256.271 188.739 257.39 188.739C259.044 188.739 260.345 189.088 261.294 189.787C262.248 190.486 262.805 191.437 262.964 192.642ZM272.032 188.909V191.636H264.148V188.909H272.032ZM265.938 185.773H269.569V197.977C269.569 198.312 269.62 198.574 269.722 198.761C269.824 198.943 269.966 199.071 270.148 199.145C270.336 199.219 270.552 199.256 270.796 199.256C270.966 199.256 271.137 199.241 271.307 199.213C271.478 199.179 271.608 199.153 271.699 199.136L272.27 201.838C272.089 201.895 271.833 201.96 271.503 202.034C271.174 202.114 270.773 202.162 270.302 202.179C269.427 202.213 268.66 202.097 268.001 201.83C267.347 201.562 266.839 201.148 266.475 200.585C266.111 200.023 265.932 199.312 265.938 198.455V185.773Z" fill="black"/>
<path d="M221.481 235.909V217.909H225.061V220.108H225.223C225.382 219.756 225.612 219.398 225.913 219.034C226.22 218.665 226.618 218.358 227.106 218.114C227.601 217.864 228.214 217.739 228.947 217.739C229.902 217.739 230.782 217.989 231.589 218.489C232.396 218.983 233.041 219.73 233.524 220.73C234.007 221.724 234.248 222.972 234.248 224.472C234.248 225.932 234.013 227.165 233.541 228.17C233.075 229.17 232.439 229.929 231.632 230.446C230.831 230.957 229.933 231.213 228.939 231.213C228.234 231.213 227.635 231.097 227.14 230.864C226.652 230.631 226.251 230.338 225.939 229.986C225.626 229.628 225.388 229.267 225.223 228.903H225.112V235.909H221.481ZM225.035 224.455C225.035 225.233 225.143 225.912 225.359 226.491C225.575 227.071 225.888 227.523 226.297 227.847C226.706 228.165 227.203 228.324 227.788 228.324C228.379 228.324 228.879 228.162 229.288 227.838C229.697 227.509 230.007 227.054 230.217 226.474C230.433 225.889 230.541 225.216 230.541 224.455C230.541 223.699 230.436 223.034 230.226 222.46C230.015 221.886 229.706 221.437 229.297 221.114C228.888 220.79 228.385 220.628 227.788 220.628C227.197 220.628 226.697 220.784 226.288 221.097C225.885 221.409 225.575 221.852 225.359 222.426C225.143 223 225.035 223.676 225.035 224.455ZM236.189 231V217.909H239.709V220.193H239.845C240.084 219.381 240.484 218.767 241.047 218.352C241.609 217.932 242.257 217.722 242.99 217.722C243.172 217.722 243.368 217.733 243.578 217.756C243.788 217.778 243.973 217.81 244.132 217.849V221.071C243.962 221.02 243.726 220.974 243.425 220.935C243.124 220.895 242.848 220.875 242.598 220.875C242.064 220.875 241.587 220.991 241.166 221.224C240.751 221.452 240.422 221.77 240.177 222.179C239.939 222.588 239.82 223.06 239.82 223.594V231H236.189ZM250.835 231.256C249.511 231.256 248.366 230.974 247.4 230.412C246.44 229.844 245.698 229.054 245.175 228.043C244.653 227.026 244.391 225.847 244.391 224.506C244.391 223.153 244.653 221.972 245.175 220.96C245.698 219.943 246.44 219.153 247.4 218.591C248.366 218.023 249.511 217.739 250.835 217.739C252.158 217.739 253.3 218.023 254.261 218.591C255.227 219.153 255.971 219.943 256.494 220.96C257.016 221.972 257.278 223.153 257.278 224.506C257.278 225.847 257.016 227.026 256.494 228.043C255.971 229.054 255.227 229.844 254.261 230.412C253.3 230.974 252.158 231.256 250.835 231.256ZM250.852 228.443C251.454 228.443 251.957 228.273 252.36 227.932C252.764 227.585 253.068 227.114 253.272 226.517C253.482 225.92 253.587 225.241 253.587 224.48C253.587 223.719 253.482 223.04 253.272 222.443C253.068 221.847 252.764 221.375 252.36 221.028C251.957 220.682 251.454 220.509 250.852 220.509C250.244 220.509 249.732 220.682 249.318 221.028C248.908 221.375 248.599 221.847 248.389 222.443C248.184 223.04 248.082 223.719 248.082 224.48C248.082 225.241 248.184 225.92 248.389 226.517C248.599 227.114 248.908 227.585 249.318 227.932C249.732 228.273 250.244 228.443 250.852 228.443ZM263.982 231.213C262.988 231.213 262.088 230.957 261.281 230.446C260.48 229.929 259.843 229.17 259.372 228.17C258.906 227.165 258.673 225.932 258.673 224.472C258.673 222.972 258.914 221.724 259.397 220.73C259.88 219.73 260.522 218.983 261.323 218.489C262.13 217.989 263.014 217.739 263.974 217.739C264.707 217.739 265.318 217.864 265.806 218.114C266.301 218.358 266.698 218.665 266.999 219.034C267.306 219.398 267.539 219.756 267.698 220.108H267.809V213.545H271.431V231H267.852V228.903H267.698C267.528 229.267 267.286 229.628 266.974 229.986C266.667 230.338 266.267 230.631 265.772 230.864C265.284 231.097 264.687 231.213 263.982 231.213ZM265.133 228.324C265.718 228.324 266.213 228.165 266.616 227.847C267.025 227.523 267.338 227.071 267.553 226.491C267.775 225.912 267.886 225.233 267.886 224.455C267.886 223.676 267.778 223 267.562 222.426C267.346 221.852 267.034 221.409 266.624 221.097C266.215 220.784 265.718 220.628 265.133 220.628C264.536 220.628 264.034 220.79 263.624 221.114C263.215 221.437 262.906 221.886 262.695 222.46C262.485 223.034 262.38 223.699 262.38 224.455C262.38 225.216 262.485 225.889 262.695 226.474C262.911 227.054 263.221 227.509 263.624 227.838C264.034 228.162 264.536 228.324 265.133 228.324Z" fill="black"/>
<rect x="607" y="267" width="268" height="77.086" rx="7.2043" fill="#121212" fill-opacity="0.9"/>
<path d="M684.871 324.513C683.824 324.513 682.804 324.108 682.023 323.336L658.258 299.542V320.4C658.258 322.609 656.457 324.421 654.242 324.421C652.027 324.421 650.226 322.719 650.226 320.4V289.853C650.226 288.224 651.209 286.761 652.707 286.136C654.205 285.51 655.924 285.86 657.081 287.01L680.846 310.804V289.853C680.846 287.645 682.648 285.832 684.862 285.832C687.077 285.832 688.878 287.635 688.878 289.853V320.4C688.878 322.609 687.077 324.421 684.862 324.421L684.871 324.513ZM703.453 285.777L702.351 287.838L693.804 303.369L692.701 305.329L693.804 307.289L702.351 322.314L703.499 324.375H725.831L726.933 322.112L733.311 309.249L736.16 303.415H729.69L713.378 303.461C711.265 303.434 709.307 305.357 709.307 307.482C709.307 309.608 711.255 311.531 713.378 311.503L723.211 311.457L720.804 316.334H708.177L701.9 305.274L708.223 293.818H721.677L724.801 300.259H732.888L727.797 288.04L726.694 285.777H703.444H703.453ZM744.118 285.731C742.005 285.758 740.13 287.7 740.167 289.798V300.287H748.199V289.798C748.226 287.663 746.361 285.703 744.137 285.731H744.118ZM757.002 324.513C754.797 324.513 752.986 322.71 752.986 320.492V289.917C752.986 287.709 754.788 285.896 757.002 285.896C759.217 285.896 761.018 287.7 761.018 289.917V310.868L784.783 287.074C785.932 285.924 787.66 285.584 789.158 286.2C790.656 286.816 791.639 288.289 791.639 289.917V320.584C791.639 322.793 789.838 324.605 787.623 324.605C785.408 324.605 783.607 322.802 783.607 320.584V299.624L759.842 323.418C759.089 324.173 758.068 324.596 756.993 324.596L757.002 324.513ZM821.368 305.219L833.866 292.76C835.428 291.196 835.428 288.647 833.875 287.074C832.322 285.501 829.767 285.51 828.196 287.065L815.698 299.551L803.2 287.065C801.637 285.501 799.083 285.501 797.52 287.074C795.958 288.647 795.958 291.196 797.53 292.76L810.028 305.219L797.539 317.64C795.976 319.204 795.976 321.753 797.53 323.326C798.283 324.09 799.303 324.522 800.286 324.522C801.27 324.522 802.336 324.136 803.117 323.345L815.588 310.896L828.058 323.345C828.812 324.099 829.832 324.522 830.889 324.522C831.945 324.522 832.947 324.127 833.646 323.326C835.208 321.762 835.208 319.213 833.636 317.64L821.184 305.219H821.368ZM743.934 324.486C741.821 324.458 739.946 322.517 739.983 320.419V303.581H748.015V320.4C748.042 322.535 746.177 324.495 743.953 324.467" fill="#00D600"/>
<path d="M883 304C925 292 1159 329 1163 277C1167 225 1194 193 1163 192" stroke="black"/>
<path d="M882 296C926 261 1091 307 1124 284C1157 261 1147 260 1149 242" stroke="black"/>
<path d="M884 277C934 237 1030 277 1059 277C1088 277 1117 292 1124 253C1131 214 1136 114 1124 93" stroke="black"/>
<path d="M878 262C892 252 943 240 995 251C1047 262 1082 284 1087 262C1092 240 1101 135 1094 121" stroke="black"/>
<path d="M598 307C511 314 405 352 319 340C233 328 263 70 300 61" stroke="black"/>
<path d="M598 296C544 296 423 348 345 322C267 296 265 144 296 90" stroke="black"/>
<path d="M596 286C578 285 324 365 347 246" stroke="black"/>
<path d="M599 276C563 276 420 356 406 287C392 218 378 94 406 94" stroke="black"/>
<path d="M604 267C572 257 537 299 494 287C451 275 460 200 474 193" stroke="black"/>
<path d="M619 258C594 250 560 197 540 194" stroke="black"/>
<path d="M632 262C637 228 620 198 609 194" stroke="black"/>
<path d="M652 259C655 205 631 100 609 93" stroke="black"/>
<path d="M666 258C668 222 655 67 680 63" stroke="black"/>
<path d="M679 258C685 234 675 98 716 93" stroke="black"/>
<path d="M696 255C706 212 688 166 716 162" stroke="black"/>
<path d="M866 256C883 226 934 195 956 195" stroke="black"/>
<path d="M853 257C859 186 914 189 943 178C972 167 939 120 957 120" stroke="black"/>
<path d="M835 256C836 217 908 195 917 152C926 109 937 63 917 62" stroke="black"/>
<path d="M821 254C823 205 889 144 887 96" stroke="black"/>
<path d="M806 256C807 198 829 153 852 143C875 133 888 83 852 83" stroke="black"/>
<path d="M789 256C790 222 847 132 818 96" stroke="black"/>
<path d="M770 256C767 236 765 239 765 223" stroke="black"/>
<path d="M754 254C745 217 738 192 754 192" stroke="black"/>
<path d="M732 255C732 223 721 161 751 162" stroke="black"/>
<path d="M340.069 506.914C340.097 506.149 340.326 505.392 340.755 504.641C341.221 503.892 341.778 503.129 342.427 502.35C343.113 501.573 343.836 500.761 344.597 499.913C345.394 499.067 346.121 498.164 346.777 497.203C347.433 496.242 348 495.205 348.479 494.092C348.958 492.979 349.223 491.748 349.273 490.4C349.343 487.52 348.162 486.4 345.73 487.04C343.335 487.681 339.882 490.289 335.371 494.865C335.19 494.822 335.028 494.761 334.885 494.683C334.744 494.568 334.624 494.345 334.527 494.013C334.431 493.645 334.342 493.112 334.258 492.416C334.174 491.72 334.137 490.751 334.147 489.511C334.193 488.273 334.268 486.725 334.373 484.868C334.479 483.011 334.655 480.72 334.902 477.992C334.261 477.567 333.841 477.078 333.643 476.523C333.446 475.932 333.394 475.346 333.489 474.766C333.585 474.149 333.788 473.573 334.1 473.037C334.413 472.465 334.759 472.004 335.137 471.653C335.552 471.267 335.962 471.027 336.367 470.932C336.81 470.803 337.171 470.889 337.452 471.192C337.78 471.204 338.049 471.323 338.26 471.55C338.508 471.741 338.682 471.967 338.782 472.226C338.918 472.486 338.998 472.781 339.023 473.11C339.085 473.405 339.148 473.68 339.211 473.938L356.144 470.352C356.181 470.353 356.29 470.357 356.472 470.364C356.692 470.335 356.857 470.323 356.966 470.327C357.294 470.339 357.601 470.424 357.887 470.58C358.173 470.737 358.309 471.016 358.294 471.416C358.28 471.781 358.195 472.106 358.039 472.392C357.92 472.643 357.727 472.928 357.46 473.246C355.649 472.887 353.881 472.858 352.155 473.159C350.467 473.425 348.739 473.78 346.971 474.226C344.764 474.728 343.049 475.211 341.828 475.677C340.608 476.106 339.674 476.71 339.025 477.488C338.377 478.231 337.956 479.255 337.762 480.561C337.569 481.831 337.431 483.577 337.349 485.799L337.312 486.783C337.296 487.22 337.279 487.694 337.26 488.204C337.277 488.715 337.277 489.226 337.258 489.736L337.221 490.72C338.057 489.839 338.854 488.993 339.614 488.182C340.411 487.336 341.223 486.599 342.049 485.973C342.911 485.349 343.823 484.853 344.785 484.488C345.785 484.087 346.904 483.91 348.143 483.955C348.908 483.984 349.539 484.19 350.036 484.573C350.569 484.957 350.971 485.428 351.242 485.986C351.55 486.544 351.764 487.172 351.884 487.87C352.004 488.568 352.052 489.226 352.029 489.845C351.961 491.704 351.584 493.496 350.9 495.221C350.252 496.949 349.389 498.595 348.309 500.16C347.266 501.727 346.081 503.197 344.753 504.571C343.461 505.946 342.138 507.192 340.784 508.309C340.388 508.148 340.158 507.958 340.093 507.736C340.066 507.48 340.058 507.206 340.069 506.914ZM368.352 479.122C369.907 479.471 371.067 480.171 371.831 481.221C372.596 482.234 373.117 483.439 373.394 484.836C373.671 486.196 373.819 487.643 373.835 489.176C373.887 490.71 373.963 492.117 374.061 493.398C374.038 494.017 373.971 494.854 373.859 495.908C373.785 496.926 373.653 498.034 373.462 499.231C373.273 500.392 373.01 501.586 372.673 502.814C372.337 504.005 371.877 505.101 371.292 506.101C370.746 507.066 370.06 507.843 369.236 508.433C368.448 509.024 367.507 509.299 366.414 509.258C365.748 509.526 365.08 509.337 364.411 508.692C363.778 508.048 363.193 507.096 362.656 505.836C362.119 504.575 361.645 503.08 361.235 501.35C360.861 499.622 360.617 497.825 360.504 495.96C360.392 494.059 360.425 492.181 360.603 490.327C360.818 488.475 361.227 486.775 361.832 485.229C362.438 483.646 363.272 482.309 364.334 481.217C365.396 480.125 366.735 479.427 368.352 479.122ZM362.959 488.773C362.815 492.671 362.843 495.864 363.042 498.353C363.278 500.842 363.609 502.752 364.034 504.081C364.459 505.41 364.957 506.249 365.528 506.599C366.136 506.913 366.74 506.881 367.337 506.502C367.972 506.124 368.598 505.454 369.218 504.492C369.838 503.493 370.355 502.345 370.768 501.047C371.218 499.75 371.56 498.376 371.796 496.926C372.034 495.439 372.105 494.019 372.009 492.665C372.048 491.609 372.016 490.495 371.914 489.323C371.848 488.153 371.688 487.053 371.434 486.022C371.218 484.956 370.87 484.013 370.39 483.192C369.911 482.336 369.295 481.711 368.544 481.318C367.888 481.294 367.222 481.543 366.546 482.065C365.906 482.589 365.317 483.223 364.779 483.97C364.277 484.717 363.847 485.504 363.488 486.33C363.129 487.156 362.938 487.86 362.917 488.443L362.909 488.661C362.907 488.698 362.924 488.735 362.959 488.773ZM384.542 513.323C384.013 513.814 383.512 514.033 383.04 513.979C382.604 513.926 382.247 513.73 381.967 513.392C381.724 513.054 381.559 512.61 381.469 512.06C381.417 511.511 381.546 510.968 381.858 510.432L385.9 495.861C385.308 495.11 384.536 494.278 383.585 493.367C382.67 492.458 381.756 491.53 380.842 490.584C379.965 489.64 379.161 488.698 378.429 487.759C377.699 486.783 377.259 485.873 377.108 485.028C377.143 484.081 377.652 483.626 378.636 483.662C379.259 483.576 379.749 483.649 380.105 483.881C380.498 484.114 380.832 484.455 381.107 484.903C381.384 485.314 381.656 485.835 381.925 486.465C382.23 487.097 382.589 487.749 383.002 488.421C383.451 489.094 384.009 489.79 384.676 490.507C385.38 491.19 386.287 491.826 387.396 492.414C387.638 491.803 387.874 490.827 388.106 489.485C388.34 488.108 388.54 486.656 388.706 485.13C388.909 483.568 389.076 482.024 389.206 480.496C389.335 478.969 389.418 477.713 389.455 476.73C389.569 476.588 389.792 476.487 390.123 476.426C390.491 476.33 390.875 476.308 391.274 476.359C391.675 476.374 392.037 476.46 392.359 476.618C392.683 476.74 392.877 476.929 392.94 477.187C393.064 478.76 392.97 480.308 392.659 481.828C392.385 483.314 392.037 484.815 391.616 486.332C391.233 487.813 390.868 489.296 390.521 490.779C390.174 492.262 390.046 493.771 390.135 495.307L399.5 505.449C399.535 505.487 399.584 505.635 399.648 505.893C399.711 506.15 399.741 506.334 399.737 506.443C399.729 506.662 399.702 506.88 399.658 507.097C399.613 507.314 399.514 507.529 399.36 507.743C399.244 507.921 399.075 508.06 398.852 508.162C398.666 508.264 398.41 508.291 398.083 508.242C397.628 507.715 397.05 507.073 396.348 506.318C395.685 505.527 394.948 504.715 394.14 503.883C393.333 503.014 392.507 502.18 391.661 501.383C390.815 500.585 389.999 499.953 389.214 499.486L388.94 499.476L388.888 499.42C388.706 499.413 388.538 499.516 388.384 499.729C388.231 499.906 388.01 500.463 387.72 501.401C387.467 502.304 387.088 503.694 386.58 505.573C386.111 507.416 385.431 509.999 384.542 513.323ZM428.209 510.453C428.297 508.085 428.335 505.587 428.323 502.96C428.347 500.334 428.354 497.689 428.343 495.025C428.37 492.327 428.45 489.685 428.582 487.099C428.714 484.514 428.968 482.097 429.343 479.849C429.417 479.815 429.582 479.803 429.837 479.812C430.13 479.787 430.331 479.776 430.44 479.78C430.95 479.799 431.348 479.905 431.632 480.098C431.955 480.256 432.106 480.608 432.086 481.154C432.006 483.304 431.901 485.653 431.77 488.202C431.677 490.716 431.563 493.284 431.43 495.906C431.334 498.493 431.239 501.061 431.144 503.612C431.05 506.162 431.001 508.477 430.997 510.556C431.01 511.177 430.868 511.573 430.569 511.744C430.306 511.953 429.974 512.051 429.574 512.036C429.136 512.02 428.776 511.897 428.493 511.667C428.208 511.474 428.114 511.07 428.209 510.453ZM428.457 471.279C428.473 470.842 428.629 470.556 428.926 470.421C429.223 470.286 429.554 470.225 429.918 470.239C430.647 470.266 431.093 470.519 431.258 471C431.422 471.48 431.493 472.03 431.47 472.649C431.237 473.042 430.953 473.323 430.618 473.493C430.285 473.627 429.937 473.651 429.576 473.564C429.252 473.443 428.969 473.195 428.728 472.821C428.523 472.449 428.432 471.935 428.457 471.279ZM437.049 511.163C436.83 506.23 436.648 501.298 436.502 496.367C436.394 491.402 436.257 486.252 436.089 480.92C436.122 480.045 436.611 479.626 437.559 479.661L437.996 479.677C438.105 479.681 438.227 479.831 438.362 480.128C438.497 480.425 438.623 480.977 438.739 481.784C438.893 482.556 439.031 483.747 439.154 485.356C439.314 486.931 439.493 488.999 439.69 491.56C439.887 494.121 440.097 497.321 440.319 501.16C441.176 498.711 441.867 496.329 442.39 494.013C442.914 491.698 443.557 489.606 444.319 487.737C445.083 485.831 446.111 484.173 447.404 482.762C448.733 481.352 450.594 480.344 452.988 479.74C454.292 480.007 455.319 480.848 456.069 482.262C456.82 483.639 457.396 485.339 457.795 487.36C458.195 489.382 458.442 491.58 458.536 493.955C458.632 496.293 458.658 498.538 458.615 500.689C458.572 502.84 458.519 504.771 458.455 506.484C458.393 508.16 458.385 509.363 458.431 510.095C458.311 510.382 458.137 510.631 457.911 510.842C457.684 511.052 457.423 511.207 457.127 511.305C456.87 511.369 456.614 511.377 456.36 511.331C456.108 511.249 455.879 511.04 455.672 510.704C455.687 510.303 455.681 509.482 455.654 508.241C455.627 506.999 455.589 505.557 455.541 503.913C455.493 502.233 455.431 500.462 455.354 498.598C455.315 496.699 455.271 494.928 455.223 493.285C455.212 491.606 455.193 490.146 455.166 488.905C455.139 487.663 455.115 486.842 455.093 486.439C454.378 485.063 453.641 484.27 452.883 484.059C452.161 483.85 451.405 484.059 450.616 484.687C449.863 485.315 449.116 486.291 448.373 487.613C447.631 488.936 446.919 490.442 446.236 492.131C445.554 493.784 444.906 495.529 444.291 497.367C443.675 499.205 443.135 500.991 442.669 502.725C442.205 504.423 441.801 505.976 441.457 507.387C441.151 508.762 440.947 509.83 440.846 510.593C440.727 510.844 440.481 511.09 440.107 511.331C439.771 511.538 439.401 511.688 438.996 511.783C438.627 511.879 438.243 511.901 437.844 511.85C437.482 511.763 437.217 511.534 437.049 511.163ZM464.758 534.299C467.971 534.235 470.516 533.49 472.393 532.064C474.306 530.639 475.762 528.76 476.761 526.425C477.759 524.091 478.406 521.397 478.702 518.343C478.996 515.326 479.13 512.193 479.105 508.945C479.079 505.697 478.981 502.447 478.809 499.193C478.676 495.905 478.679 492.859 478.819 490.055C477.083 494.587 475.47 498.249 473.98 501.039C472.491 503.793 471.119 505.877 469.863 507.289C468.644 508.667 467.537 509.502 466.541 509.793C465.583 510.05 464.747 509.964 464.034 509.536C463.321 509.072 462.745 508.376 462.305 507.447C461.903 506.484 461.629 505.507 461.483 504.516C461.618 502.843 462.014 501.015 462.671 499.033C463.366 497.016 464.223 495.059 465.242 493.163C466.299 491.232 467.495 489.453 468.833 487.824C470.171 486.159 471.569 484.879 473.025 483.984C474.482 483.053 475.976 482.598 477.508 482.618C479.041 482.602 480.495 483.239 481.87 484.531C481.905 484.569 481.941 485.062 481.979 486.012C482.055 486.927 482.119 488.152 482.171 489.686C482.262 491.185 482.345 492.885 482.42 494.785C482.534 496.65 482.627 498.55 482.702 500.487C482.777 502.387 482.837 504.213 482.882 505.966C482.926 507.719 482.98 509.235 483.042 510.514C483.11 512.596 482.938 514.797 482.523 517.116C482.146 519.437 481.588 521.679 480.851 523.84C480.113 526.039 479.198 528.084 478.107 529.977C477.052 531.872 475.845 533.414 474.488 534.604C473.167 535.796 471.699 536.526 470.083 536.794C468.503 537.101 466.837 536.765 465.086 535.788C464.977 535.784 464.813 535.76 464.596 535.716C464.377 535.707 464.197 535.646 464.056 535.531C463.95 535.418 463.938 535.272 464.017 535.092C464.097 534.913 464.344 534.648 464.758 534.299ZM464.339 504.239C464.662 505.382 465.114 505.983 465.695 506.041C466.315 506.064 466.985 505.705 467.705 504.966C468.427 504.19 469.215 503.106 470.069 501.715C470.96 500.325 471.837 498.807 472.701 497.161C473.564 495.515 474.411 493.831 475.241 492.111C476.109 490.355 476.917 488.725 477.666 487.221C477.681 486.82 477.603 486.452 477.433 486.118C477.264 485.747 476.868 485.622 476.243 485.745C475.215 485.926 474.194 486.381 473.182 487.109C472.207 487.839 471.279 488.754 470.399 489.852C469.557 490.915 468.765 492.108 468.023 493.431C467.319 494.718 466.686 496.026 466.126 497.355C465.604 498.649 465.175 499.892 464.839 501.084C464.54 502.276 464.373 503.328 464.339 504.239ZM487.238 487.356L487.254 486.919C487.267 486.555 487.404 486.305 487.665 486.168C487.962 486.033 488.292 485.973 488.656 485.986C488.948 485.997 489.22 486.044 489.472 486.126C489.726 486.172 489.919 486.38 490.051 486.749C490.14 487.3 490.221 488.069 490.294 489.057C490.368 490.008 490.457 491.069 490.559 492.241C490.662 493.412 490.761 494.656 490.859 495.973C490.994 497.255 491.112 498.481 491.215 499.653C491.355 500.789 491.5 501.816 491.648 502.733C491.796 503.651 491.971 504.351 492.172 504.832C492.192 501.331 492.414 498.311 492.836 495.773C493.26 493.198 493.957 491.126 494.927 489.557C495.935 487.952 497.252 486.87 498.878 486.31C500.542 485.715 502.588 485.645 505.015 486.1C506.144 486.141 506.687 486.763 506.642 487.966C506.625 488.439 506.303 488.756 505.677 488.915C505.052 489.038 504.356 489.122 503.588 489.166C502.822 489.174 502.073 489.201 501.341 489.247C500.61 489.293 500.075 489.455 499.736 489.735C498.398 490.415 497.427 491.51 496.824 493.02C496.257 494.531 495.826 496.321 495.53 498.39C495.235 500.458 494.986 502.729 494.785 505.203C494.622 507.641 494.292 510.146 493.795 512.718C493.782 513.082 493.626 513.35 493.328 513.522C493.03 513.693 492.662 513.771 492.225 513.754C491.824 513.74 491.427 513.634 491.033 513.437C490.675 513.241 490.394 512.957 490.189 512.585L487.238 487.356ZM510.472 502.774C510.288 502.804 510.013 502.848 509.646 502.908C509.279 502.967 508.896 502.971 508.496 502.92C508.097 502.868 507.755 502.746 507.47 502.553C507.149 502.359 506.997 502.043 507.013 501.606C507.022 501.351 507.084 501.171 507.197 501.066C507.31 500.96 507.499 500.803 507.762 500.594C508.587 499.968 509.293 499.155 509.877 498.155C510.499 497.12 511.068 496.028 511.585 494.88C512.103 493.695 512.639 492.529 513.192 491.382C513.783 490.2 514.443 489.149 515.17 488.227C515.897 487.305 516.782 486.572 517.823 486.027C518.865 485.482 520.132 485.255 521.625 485.347C522.244 485.37 522.931 485.541 523.685 485.861C524.439 486.181 525.135 486.608 525.772 487.142C526.41 487.64 526.935 488.243 527.347 488.952C527.758 489.66 527.948 490.433 527.917 491.271C528.089 491.569 527.891 491.982 527.324 492.508C526.794 493.036 526.061 493.61 525.126 494.232C524.192 494.818 523.13 495.435 521.938 496.084C520.785 496.698 519.669 497.277 518.59 497.821C517.512 498.365 516.564 498.841 515.747 499.248C514.929 499.656 514.388 499.964 514.125 500.173C513.93 500.531 513.768 500.944 513.642 501.414C513.515 501.883 513.407 502.335 513.318 502.77C513.266 503.169 513.216 503.551 513.166 503.914C513.154 504.241 513.144 504.496 513.138 504.679C513.112 505.371 513.047 506.135 512.943 506.97C512.876 507.806 512.883 508.609 512.964 509.379C513.082 510.113 513.369 510.743 513.824 511.271C514.28 511.762 515.073 512.029 516.202 512.071C517.404 512.115 518.545 511.865 519.623 511.322C520.702 510.741 521.714 510.031 522.657 509.19C523.6 508.35 524.455 507.433 525.221 506.44C526.024 505.448 526.733 504.526 527.349 503.673C528.002 502.785 528.576 502.058 529.071 501.493C529.566 500.927 529.978 500.651 530.306 500.663C530.67 500.676 531.05 500.763 531.445 500.924C531.879 501.05 532.086 501.349 532.069 501.823C532.044 502.479 531.742 503.252 531.162 504.142C530.618 505.034 529.89 505.974 528.978 506.962C528.102 507.951 527.081 508.935 525.914 509.913C524.784 510.856 523.64 511.708 522.481 512.467C521.323 513.191 520.188 513.787 519.076 514.257C517.966 514.69 516.991 514.891 516.153 514.86C514.514 514.799 513.29 514.352 512.482 513.52C511.673 512.687 511.109 511.663 510.79 510.447C510.506 509.233 510.371 507.951 510.385 506.601C510.436 505.217 510.465 503.941 510.472 502.774ZM521.074 488.391C520.455 488.368 519.787 488.653 519.072 489.247C518.358 489.804 517.676 490.509 517.024 491.36C516.41 492.177 515.886 493.033 515.451 493.929C515.054 494.79 514.845 495.512 514.824 496.095C515.37 496.115 516.161 495.943 517.196 495.58C518.269 495.182 519.327 494.693 520.37 494.111C521.413 493.529 522.33 492.907 523.12 492.243C523.911 491.579 524.318 490.937 524.341 490.318C524.353 489.99 524.236 489.712 523.989 489.484C523.742 489.256 523.439 489.062 523.08 488.903C522.757 488.745 522.415 488.623 522.054 488.537C521.692 488.45 521.366 488.402 521.074 488.391ZM538.647 514.817C538.646 514.854 539.036 514.649 539.819 514.204C540.638 513.76 541.59 513.175 542.675 512.449C543.798 511.688 544.941 510.873 546.104 510.004C547.268 509.099 548.23 508.24 548.99 507.429C549.75 506.619 550.159 505.922 550.217 505.341C550.312 504.724 549.835 504.305 548.786 504.084C547.481 503.853 546.369 503.83 545.45 504.015C544.567 504.201 543.756 504.426 543.017 504.691C542.278 504.955 541.575 505.203 540.91 505.434C540.281 505.666 539.586 505.731 538.823 505.63C537.22 505.571 536.127 505.038 535.544 504.031C534.999 502.989 534.758 501.612 534.822 499.9C534.885 498.188 535.328 496.58 536.149 495.079C536.972 493.54 538.006 492.229 539.25 491.144C540.494 490.059 541.912 489.218 543.503 488.62C545.095 487.986 546.711 487.699 548.351 487.76C549.006 487.784 549.569 487.859 550.039 487.986C550.508 488.113 550.729 488.541 550.702 489.269C550.684 489.78 550.447 490.263 549.992 490.721C549.539 491.142 549.039 491.342 548.492 491.322C548.456 491.321 548.365 491.299 548.221 491.257C548.078 491.179 547.936 491.082 547.794 490.968C547.652 490.853 547.509 490.775 547.365 490.733C547.222 490.655 547.132 490.615 547.096 490.613C545.942 490.242 544.806 490.364 543.689 490.98C542.572 491.595 541.555 492.451 540.639 493.548C539.76 494.61 539.042 495.788 538.483 497.08C537.926 498.337 537.628 499.475 537.59 500.495C537.576 500.896 537.636 501.226 537.773 501.487C537.947 501.712 538.159 501.884 538.41 502.003C538.698 502.123 539.005 502.207 539.331 502.256C539.695 502.269 540.06 502.283 540.424 502.296C541.153 502.323 541.886 502.241 542.622 502.049C543.396 501.859 544.134 501.631 544.837 501.365C545.576 501.101 546.314 500.873 547.051 500.681C547.824 500.491 548.612 500.411 549.413 500.44C549.777 500.454 550.174 500.578 550.603 500.813C551.034 501.011 551.424 501.317 551.773 501.732C552.124 502.11 552.417 502.558 552.654 503.078C552.891 503.561 553.017 504.095 553.032 504.679C553.232 505.197 553.134 505.868 552.739 506.693C552.38 507.519 551.837 508.392 551.109 509.314C550.382 510.236 549.508 511.17 548.488 512.117C547.469 513.028 546.453 513.866 545.44 514.631C544.428 515.36 543.439 515.943 542.474 516.382C541.508 516.857 540.698 517.064 540.044 517.003C539.315 516.976 538.886 516.742 538.756 516.299C538.663 515.858 538.627 515.364 538.647 514.817ZM559.141 515.576C559.139 515.613 559.53 515.408 560.313 514.963C561.132 514.519 562.084 513.934 563.169 513.208C564.291 512.447 565.434 511.632 566.597 510.763C567.762 509.858 568.724 509 569.484 508.189C570.243 507.378 570.652 506.681 570.71 506.1C570.806 505.483 570.329 505.064 569.279 504.843C567.975 504.612 566.863 504.589 565.944 504.774C565.061 504.96 564.25 505.186 563.511 505.45C562.771 505.714 562.069 505.962 561.404 506.193C560.775 506.425 560.079 506.49 559.317 506.389C557.714 506.33 556.621 505.797 556.038 504.79C555.493 503.748 555.252 502.371 555.315 500.659C555.379 498.947 555.821 497.34 556.643 495.838C557.466 494.299 558.5 492.988 559.744 491.903C560.988 490.818 562.406 489.977 563.997 489.379C565.589 488.745 567.205 488.458 568.844 488.519C569.5 488.543 570.063 488.619 570.532 488.745C571.002 488.872 571.223 489.3 571.196 490.029C571.177 490.539 570.941 491.022 570.486 491.48C570.032 491.901 569.532 492.101 568.986 492.081C568.949 492.08 568.859 492.058 568.715 492.016C568.572 491.938 568.429 491.842 568.288 491.727C568.146 491.612 568.003 491.534 567.859 491.492C567.715 491.414 567.626 491.374 567.589 491.373C566.436 491.002 565.3 491.124 564.183 491.739C563.066 492.354 562.049 493.21 561.133 494.307C560.254 495.369 559.536 496.547 558.977 497.839C558.42 499.096 558.122 500.234 558.084 501.254C558.069 501.655 558.13 501.985 558.266 502.246C558.44 502.471 558.653 502.643 558.904 502.762C559.191 502.882 559.498 502.966 559.825 503.015C560.189 503.029 560.554 503.042 560.918 503.056C561.647 503.083 562.379 503 563.116 502.809C563.889 502.618 564.627 502.39 565.33 502.124C566.07 501.86 566.808 501.632 567.545 501.44C568.318 501.25 569.105 501.17 569.907 501.199C570.271 501.213 570.668 501.337 571.097 501.572C571.527 501.77 571.917 502.077 572.267 502.491C572.618 502.869 572.911 503.317 573.147 503.837C573.385 504.32 573.511 504.854 573.526 505.438C573.726 505.956 573.628 506.627 573.232 507.452C572.873 508.278 572.33 509.151 571.603 510.073C570.876 510.995 570.002 511.929 568.982 512.876C567.963 513.787 566.947 514.625 565.934 515.39C564.921 516.119 563.933 516.703 562.968 517.141C562.002 517.616 561.192 517.823 560.537 517.762C559.809 517.735 559.38 517.501 559.25 517.058C559.157 516.617 559.12 516.123 559.141 515.576ZM329.775 585.376C329.933 584.069 330.095 582.652 330.261 581.126C330.428 579.563 330.649 578.021 330.925 576.499C331.236 574.978 331.6 573.532 332.016 572.161C332.468 570.791 333.023 569.59 333.681 568.556C334.378 567.487 335.211 566.661 336.181 566.077C337.153 565.456 338.312 565.189 339.658 565.275C340.569 565.309 341.247 565.717 341.693 566.5C342.174 567.284 342.486 568.226 342.628 569.325C342.806 570.426 342.873 571.56 342.83 572.726C342.825 573.857 342.809 574.786 342.782 575.515C342.053 575.488 341.463 575.156 341.013 574.519C340.563 573.846 340.227 573.085 340.003 572.238C339.779 571.391 339.627 570.564 339.547 569.758L339.442 568.168C339.405 568.166 339.333 568.164 339.223 568.159C339.152 568.12 339.098 568.1 339.061 568.099C338.442 568.076 337.846 568.4 337.274 569.072C336.738 569.746 336.213 570.62 335.699 571.696C335.223 572.736 334.796 573.924 334.418 575.26C334.042 576.559 333.72 577.843 333.455 579.11C333.189 580.377 332.963 581.554 332.777 582.642C332.628 583.694 332.543 584.512 332.521 585.095C332.414 586.039 332.375 587.078 332.406 588.21C332.437 589.342 332.617 590.407 332.944 591.404C333.272 592.401 333.751 593.276 334.38 594.029C335.01 594.746 335.867 595.252 336.95 595.547C338.298 595.597 339.398 595.455 340.249 595.122C341.101 594.789 341.793 594.322 342.326 593.722C342.896 593.122 343.34 592.446 343.66 591.691C343.98 590.937 344.282 590.164 344.567 589.372C344.889 588.545 345.211 587.736 345.532 586.945C345.853 586.154 346.3 585.423 346.872 584.751C347.313 584.658 347.622 584.687 347.799 584.84C348.014 584.957 348.153 585.127 348.218 585.348C348.283 585.569 348.31 585.826 348.299 586.117L348.277 586.718C348.22 588.248 347.911 589.715 347.348 591.117C346.785 592.519 345.991 593.766 344.965 594.859C343.941 595.916 342.724 596.764 341.314 597.405C339.942 598.011 338.381 598.282 336.632 598.217C335.175 598.163 333.971 597.662 333.021 596.715C332.109 595.733 331.404 594.576 330.906 593.244C330.445 591.913 330.131 590.534 329.965 589.105C329.8 587.639 329.737 586.396 329.775 585.376ZM351.392 591.266C351.199 589.581 351.131 587.955 351.19 586.388C351.249 584.785 351.4 583.167 351.643 581.535C351.922 579.903 352.276 578.22 352.706 576.485C353.172 574.714 353.699 572.818 354.284 570.797C354.299 570.396 354.422 570.036 354.653 569.716C354.885 569.36 355.187 569.079 355.56 568.874C355.933 568.633 356.323 568.446 356.729 568.315C357.136 568.185 357.521 568.126 357.885 568.139C358.687 568.169 359.406 568.451 360.043 568.985C360.68 569.52 361.24 570.161 361.723 570.908C362.242 571.657 362.669 572.457 363.002 573.309C363.373 574.125 363.675 574.83 363.909 575.422C364.153 576.708 364.299 578.173 364.348 579.816C364.434 581.425 364.392 583.065 364.221 584.737C364.049 586.409 363.733 588.057 363.271 589.682C362.811 591.27 362.192 592.724 361.413 594.045C360.634 595.367 359.645 596.461 358.446 597.329C357.283 598.198 355.914 598.712 354.339 598.873C353.501 598.842 352.873 598.545 352.457 597.982C352.041 597.383 351.739 596.679 351.55 595.869C351.399 595.024 351.32 594.182 351.315 593.343C351.346 592.505 351.372 591.813 351.392 591.266ZM354.185 591.206C354.172 591.57 354.159 591.916 354.147 592.244C354.171 592.573 354.195 592.903 354.22 593.232C354.282 593.526 354.342 593.857 354.402 594.224C354.499 594.556 354.612 594.943 354.742 595.385L355.07 595.398C355.944 595.43 356.702 595.166 357.343 594.606C357.984 594.046 358.54 593.319 359.011 592.424C359.483 591.493 359.886 590.468 360.219 589.35C360.554 588.195 360.814 587.073 361 585.986C361.224 584.863 361.372 583.829 361.444 582.883C361.553 581.902 361.618 581.12 361.64 580.537L361.68 579.444C361.698 578.97 361.699 578.441 361.684 577.857C361.671 577.236 361.621 576.614 361.535 575.991C361.486 575.332 361.38 574.745 361.217 574.228C361.055 573.675 360.834 573.229 360.555 572.89C360.276 572.551 359.899 572.373 359.426 572.355C358.633 572.071 357.939 572.1 357.343 572.442C356.783 572.787 356.304 573.389 355.908 574.25C355.549 575.076 355.255 576.105 355.027 577.337C354.799 578.569 354.639 579.931 354.547 581.423C354.456 582.916 354.379 584.5 354.317 586.176C354.291 587.853 354.247 589.53 354.185 591.206ZM368.41 598.683C368.192 593.749 368.01 588.817 367.864 583.887C367.756 578.921 367.618 573.772 367.451 568.439C367.483 567.565 367.973 567.145 368.921 567.18L369.358 567.196C369.467 567.2 369.589 567.351 369.724 567.648C369.859 567.944 369.984 568.496 370.101 569.303C370.254 570.075 370.393 571.266 370.515 572.876C370.676 574.45 370.855 576.518 371.052 579.08C371.249 581.641 371.459 584.841 371.681 588.68C372.538 586.231 373.228 583.848 373.752 581.533C374.275 579.217 374.918 577.125 375.681 575.256C376.445 573.351 377.473 571.692 378.766 570.281C380.095 568.871 381.956 567.863 384.35 567.259C385.654 567.526 386.68 568.367 387.431 569.781C388.182 571.159 388.758 572.858 389.157 574.88C389.557 576.901 389.804 579.099 389.898 581.474C389.994 583.813 390.02 586.057 389.977 588.208C389.934 590.359 389.88 592.291 389.817 594.003C389.755 595.679 389.747 596.883 389.793 597.614C389.673 597.901 389.499 598.15 389.272 598.361C389.046 598.571 388.785 598.726 388.489 598.824C388.231 598.888 387.976 598.897 387.722 598.851C387.47 598.768 387.24 598.559 387.034 598.223C387.049 597.823 387.043 597.001 387.016 595.76C386.989 594.519 386.951 593.076 386.902 591.433C386.855 589.753 386.793 587.981 386.716 586.117C386.677 584.219 386.633 582.448 386.585 580.804C386.574 579.125 386.555 577.665 386.528 576.424C386.501 575.183 386.477 574.361 386.455 573.959C385.74 572.582 385.003 571.789 384.245 571.578C383.523 571.369 382.767 571.578 381.978 572.206C381.225 572.835 380.477 573.81 379.735 575.133C378.993 576.455 378.28 577.961 377.598 579.65C376.916 581.303 376.268 583.049 375.653 584.887C375.037 586.724 374.497 588.51 374.031 590.244C373.567 591.942 373.163 593.496 372.819 594.906C372.512 596.281 372.309 597.349 372.207 598.112C372.089 598.363 371.842 598.609 371.469 598.851C371.133 599.057 370.762 599.208 370.357 599.302C369.989 599.398 369.605 599.42 369.206 599.369C368.844 599.282 368.579 599.054 368.41 598.683ZM395.48 577.029C395.109 577.198 394.756 577.385 394.42 577.592C394.122 577.763 393.823 577.935 393.525 578.106C393.228 578.241 392.933 578.339 392.639 578.402C392.344 578.464 392.035 578.452 391.71 578.367C391.491 578.359 391.313 578.225 391.177 577.964C391.042 577.667 390.944 577.354 390.884 577.023C390.788 576.655 390.728 576.306 390.704 575.977C390.681 575.611 390.691 575.338 390.734 575.157L396.092 572.346L396.938 558.367C397.028 557.896 397.326 557.725 397.832 557.853C398.34 557.945 398.864 558.074 399.405 558.24C399.478 558.242 399.586 558.283 399.729 558.361C399.91 558.404 400.036 558.446 400.107 558.485C399.998 559.466 399.867 560.537 399.715 561.699C399.6 562.826 399.485 563.971 399.369 565.134C399.254 566.26 399.158 567.37 399.081 568.461C399.041 569.554 399.059 570.54 399.136 571.419L407.418 569.427C407.565 569.396 407.671 569.509 407.734 569.767C407.835 569.99 407.916 570.266 407.977 570.597C408.074 570.929 408.135 571.259 408.159 571.589C408.183 571.918 408.196 572.082 408.196 572.082L398.759 575.673C398.747 576.001 398.736 576.785 398.727 578.025C398.754 579.267 398.772 580.745 398.782 582.46C398.792 584.138 398.798 585.963 398.798 587.933C398.799 589.867 398.805 591.673 398.816 593.351C398.827 595.03 398.827 596.508 398.816 597.784C398.807 599.024 398.796 599.808 398.784 600.136C398.67 601.226 398.322 601.761 397.739 601.739C397.193 601.719 396.602 601.423 395.966 600.853L395.48 577.029ZM409.145 574.526L409.161 574.088C409.175 573.724 409.312 573.474 409.572 573.337C409.869 573.202 410.199 573.142 410.564 573.155C410.855 573.166 411.127 573.213 411.38 573.295C411.633 573.341 411.826 573.549 411.958 573.918C412.047 574.469 412.128 575.238 412.201 576.226C412.275 577.177 412.364 578.238 412.466 579.41C412.569 580.581 412.669 581.825 412.766 583.142C412.901 584.424 413.02 585.651 413.122 586.822C413.263 587.958 413.407 588.985 413.555 589.902C413.704 590.82 413.878 591.52 414.08 592.001C414.1 588.5 414.321 585.48 414.743 582.942C415.167 580.367 415.864 578.295 416.834 576.726C417.842 575.121 419.159 574.039 420.785 573.479C422.449 572.884 424.495 572.814 426.922 573.269C428.052 573.31 428.594 573.933 428.55 575.135C428.532 575.608 428.21 575.925 427.584 576.084C426.959 576.207 426.263 576.291 425.495 576.335C424.729 576.343 423.98 576.37 423.249 576.416C422.517 576.462 421.982 576.625 421.644 576.904C420.305 577.584 419.334 578.679 418.731 580.189C418.164 581.7 417.733 583.49 417.438 585.559C417.142 587.627 416.894 589.898 416.693 592.372C416.529 594.81 416.199 597.315 415.703 599.887C415.689 600.252 415.533 600.519 415.235 600.691C414.937 600.862 414.569 600.94 414.132 600.924C413.731 600.909 413.334 600.803 412.94 600.606C412.582 600.41 412.301 600.126 412.096 599.754L409.145 574.526ZM430.58 594.2C430.387 592.514 430.319 590.888 430.377 589.322C430.437 587.719 430.588 586.101 430.831 584.468C431.11 582.836 431.464 581.153 431.893 579.418C432.36 577.647 432.887 575.752 433.472 573.73C433.487 573.329 433.61 572.969 433.841 572.649C434.073 572.293 434.375 572.012 434.747 571.807C435.121 571.566 435.511 571.38 435.917 571.249C436.324 571.118 436.709 571.059 437.073 571.073C437.875 571.102 438.594 571.384 439.231 571.919C439.868 572.453 440.428 573.094 440.911 573.842C441.43 574.59 441.857 575.391 442.19 576.242C442.561 577.058 442.863 577.763 443.097 578.355C443.341 579.641 443.487 581.106 443.536 582.749C443.622 584.358 443.58 585.998 443.408 587.67C443.237 589.342 442.921 590.99 442.459 592.615C441.999 594.203 441.38 595.658 440.601 596.979C439.822 598.3 438.833 599.394 437.634 600.262C436.47 601.131 435.102 601.646 433.527 601.806C432.689 601.775 432.061 601.478 431.644 600.916C431.229 600.316 430.927 599.612 430.738 598.802C430.587 597.958 430.508 597.116 430.503 596.276C430.534 595.438 430.56 594.746 430.58 594.2ZM433.373 594.139C433.36 594.503 433.347 594.849 433.335 595.177C433.359 595.507 433.383 595.836 433.407 596.165C433.469 596.459 433.53 596.79 433.59 597.157C433.687 597.489 433.8 597.876 433.93 598.319L434.258 598.331C435.132 598.363 435.89 598.099 436.531 597.539C437.172 596.979 437.727 596.252 438.198 595.357C438.671 594.426 439.073 593.401 439.407 592.283C439.741 591.128 440.002 590.006 440.188 588.919C440.412 587.796 440.56 586.762 440.631 585.816C440.741 584.835 440.806 584.053 440.828 583.47L440.868 582.377C440.886 581.903 440.887 581.374 440.872 580.79C440.859 580.169 440.809 579.547 440.722 578.924C440.674 578.265 440.568 577.678 440.405 577.161C440.243 576.608 440.022 576.162 439.743 575.823C439.464 575.484 439.087 575.306 438.613 575.289C437.821 575.004 437.127 575.033 436.531 575.376C435.971 575.72 435.492 576.322 435.096 577.183C434.737 578.009 434.443 579.038 434.215 580.27C433.987 581.502 433.827 582.864 433.735 584.357C433.644 585.849 433.567 587.433 433.505 589.109C433.479 590.786 433.435 592.463 433.373 594.139ZM446.527 599.497C446.845 597.83 447.086 595.741 447.252 593.23C447.455 590.72 447.59 588.044 447.659 585.201C447.764 582.359 447.818 579.424 447.821 576.396C447.824 573.368 447.784 570.502 447.702 567.8C447.621 565.06 447.492 562.611 447.317 560.452C447.178 558.295 447.004 556.592 446.795 555.344C447.131 555.137 447.41 554.983 447.633 554.882C447.893 554.746 448.187 554.684 448.515 554.696C448.77 554.705 448.987 554.768 449.165 554.884C449.344 554.964 449.483 555.151 449.582 555.447C450.046 562.615 450.271 569.828 450.258 577.088C450.281 584.349 450.232 591.571 450.112 598.754C450.1 599.082 450.083 599.537 450.061 600.12C450.041 600.667 450.012 600.957 449.974 600.992C449.455 601.229 448.995 601.339 448.594 601.324C448.195 601.273 447.834 601.15 447.513 600.956C447.193 600.725 446.947 600.479 446.774 600.217C446.602 599.955 446.519 599.715 446.527 599.497ZM454.233 599.782C454.55 598.116 454.792 596.027 454.958 593.516C455.16 591.006 455.296 588.329 455.365 585.486C455.47 582.644 455.524 579.709 455.527 576.681C455.529 573.653 455.49 570.788 455.407 568.085C455.326 565.346 455.198 562.897 455.023 560.738C454.884 558.58 454.71 556.877 454.5 555.629C454.836 555.422 455.116 555.269 455.338 555.167C455.599 555.031 455.893 554.969 456.221 554.981C456.476 554.991 456.693 555.053 456.871 555.169C457.05 555.249 457.189 555.437 457.288 555.732C457.752 562.9 457.977 570.114 457.964 577.374C457.986 584.635 457.938 591.857 457.818 599.039C457.806 599.367 457.789 599.823 457.767 600.406C457.747 600.952 457.718 601.243 457.68 601.278C457.161 601.514 456.7 601.625 456.3 601.61C455.9 601.559 455.54 601.436 455.219 601.241C454.899 601.011 454.653 600.764 454.48 600.503C454.307 600.241 454.225 600.001 454.233 599.782ZM462.71 591.066C462.526 591.096 462.251 591.141 461.884 591.2C461.517 591.259 461.134 591.263 460.734 591.212C460.335 591.161 459.993 591.039 459.708 590.846C459.387 590.652 459.235 590.336 459.251 589.899C459.26 589.644 459.322 589.463 459.435 589.358C459.548 589.253 459.737 589.096 460 588.887C460.826 588.26 461.531 587.447 462.115 586.448C462.737 585.413 463.306 584.321 463.823 583.173C464.341 581.988 464.877 580.822 465.43 579.675C466.021 578.493 466.681 577.441 467.408 576.519C468.135 575.598 469.02 574.864 470.061 574.319C471.103 573.774 472.37 573.547 473.863 573.639C474.482 573.662 475.169 573.834 475.923 574.153C476.678 574.473 477.373 574.9 478.01 575.435C478.648 575.933 479.173 576.536 479.585 577.244C479.996 577.953 480.187 578.726 480.156 579.564C480.327 579.862 480.129 580.274 479.562 580.8C479.032 581.328 478.299 581.903 477.364 582.525C476.431 583.111 475.368 583.728 474.176 584.377C473.023 584.991 471.907 585.57 470.829 586.114C469.75 586.657 468.802 587.133 467.985 587.541C467.167 587.948 466.627 588.256 466.363 588.466C466.168 588.823 466.007 589.237 465.88 589.706C465.753 590.176 465.645 590.628 465.556 591.062C465.505 591.462 465.454 591.843 465.404 592.206C465.392 592.534 465.382 592.789 465.376 592.971C465.35 593.663 465.285 594.427 465.181 595.262C465.114 596.099 465.121 596.902 465.202 597.671C465.32 598.405 465.607 599.036 466.062 599.564C466.518 600.055 467.311 600.321 468.44 600.363C469.642 600.408 470.783 600.158 471.861 599.614C472.94 599.034 473.952 598.324 474.895 597.483C475.838 596.642 476.693 595.725 477.459 594.732C478.262 593.74 478.971 592.818 479.587 591.965C480.24 591.077 480.814 590.351 481.309 589.785C481.804 589.22 482.216 588.943 482.544 588.955C482.908 588.969 483.288 589.056 483.683 589.217C484.117 589.342 484.324 589.642 484.307 590.115C484.283 590.771 483.98 591.544 483.4 592.435C482.856 593.327 482.128 594.267 481.216 595.254C480.34 596.243 479.319 597.227 478.152 598.205C477.022 599.149 475.878 600 474.719 600.76C473.561 601.483 472.426 602.08 471.314 602.549C470.204 602.982 469.229 603.183 468.391 603.152C466.752 603.092 465.528 602.645 464.72 601.812C463.912 600.98 463.348 599.956 463.028 598.74C462.744 597.525 462.609 596.243 462.623 594.894C462.674 593.51 462.703 592.234 462.71 591.066ZM473.312 576.683C472.693 576.661 472.026 576.946 471.31 577.54C470.597 578.097 469.914 578.801 469.262 579.653C468.648 580.469 468.124 581.325 467.689 582.221C467.293 583.082 467.083 583.804 467.062 584.387C467.608 584.407 468.399 584.236 469.434 583.873C470.507 583.475 471.565 582.985 472.608 582.403C473.651 581.822 474.568 581.199 475.358 580.535C476.149 579.871 476.556 579.23 476.579 578.61C476.591 578.282 476.474 578.005 476.227 577.776C475.98 577.548 475.677 577.355 475.318 577.196C474.995 577.038 474.653 576.916 474.292 576.829C473.93 576.743 473.604 576.694 473.312 576.683ZM487.513 577.428L487.529 576.991C487.543 576.627 487.68 576.377 487.94 576.24C488.237 576.105 488.568 576.045 488.932 576.058C489.223 576.069 489.495 576.115 489.748 576.198C490.001 576.244 490.194 576.451 490.327 576.821C490.416 577.372 490.497 578.141 490.569 579.129C490.644 580.08 490.732 581.141 490.835 582.312C490.937 583.484 491.037 584.728 491.134 586.045C491.269 587.327 491.388 588.553 491.49 589.725C491.631 590.861 491.775 591.888 491.923 592.805C492.072 593.723 492.247 594.423 492.448 594.904C492.468 591.403 492.689 588.383 493.112 585.845C493.535 583.27 494.232 581.198 495.203 579.629C496.21 578.024 497.528 576.942 499.154 576.382C500.817 575.787 502.863 575.717 505.291 576.172C506.42 576.213 506.962 576.835 506.918 578.038C506.9 578.511 506.578 578.828 505.952 578.987C505.328 579.11 504.631 579.193 503.864 579.238C503.097 579.246 502.348 579.273 501.617 579.319C500.885 579.365 500.35 579.527 500.012 579.807C498.673 580.487 497.702 581.582 497.099 583.092C496.532 584.603 496.101 586.393 495.806 588.462C495.51 590.53 495.262 592.801 495.061 595.275C494.897 597.713 494.568 600.218 494.071 602.79C494.057 603.154 493.902 603.422 493.603 603.594C493.305 603.765 492.937 603.843 492.5 603.826C492.099 603.812 491.702 603.706 491.308 603.509C490.95 603.313 490.669 603.029 490.464 602.656L487.513 577.428ZM513.073 603.932C513.072 603.968 513.462 603.764 514.245 603.318C515.064 602.875 516.016 602.29 517.101 601.564C518.224 600.803 519.366 599.988 520.53 599.119C521.694 598.213 522.656 597.355 523.416 596.544C524.176 595.733 524.585 595.037 524.643 594.455C524.738 593.838 524.261 593.419 523.212 593.198C521.907 592.967 520.795 592.944 519.876 593.129C518.993 593.315 518.182 593.541 517.443 593.805C516.704 594.07 516.001 594.317 515.336 594.548C514.707 594.78 514.011 594.846 513.249 594.744C511.646 594.685 510.553 594.152 509.97 593.145C509.425 592.104 509.184 590.727 509.248 589.014C509.311 587.302 509.754 585.695 510.575 584.193C511.398 582.655 512.432 581.343 513.676 580.258C514.92 579.173 516.338 578.332 517.929 577.734C519.521 577.1 521.137 576.813 522.776 576.874C523.432 576.898 523.995 576.974 524.465 577.101C524.934 577.227 525.155 577.655 525.128 578.384C525.11 578.894 524.873 579.378 524.418 579.835C523.965 580.256 523.465 580.457 522.918 580.436C522.882 580.435 522.791 580.413 522.647 580.372C522.504 580.293 522.362 580.197 522.22 580.082C522.078 579.967 521.935 579.889 521.791 579.847C521.648 579.769 521.558 579.729 521.522 579.728C520.368 579.357 519.232 579.479 518.115 580.094C516.998 580.71 515.981 581.566 515.065 582.663C514.186 583.725 513.468 584.902 512.909 586.195C512.352 587.451 512.054 588.589 512.016 589.609C512.002 590.01 512.062 590.341 512.199 590.601C512.373 590.827 512.585 590.999 512.836 591.117C513.124 591.237 513.431 591.322 513.757 591.37C514.121 591.384 514.486 591.397 514.85 591.411C515.579 591.438 516.312 591.356 517.048 591.164C517.821 590.974 518.56 590.746 519.263 590.48C520.002 590.215 520.74 589.987 521.477 589.796C522.25 589.605 523.038 589.525 523.839 589.555C524.203 589.568 524.6 589.692 525.029 589.927C525.46 590.126 525.85 590.432 526.199 590.846C526.55 591.224 526.843 591.673 527.08 592.192C527.317 592.675 527.443 593.209 527.458 593.793C527.658 594.311 527.56 594.983 527.165 595.807C526.806 596.633 526.263 597.507 525.535 598.428C524.808 599.35 523.934 600.284 522.914 601.232C521.895 602.143 520.879 602.98 519.866 603.746C518.854 604.474 517.865 605.058 516.9 605.496C515.934 605.971 515.124 606.178 514.47 606.118C513.741 606.091 513.312 605.856 513.182 605.413C513.089 604.972 513.053 604.478 513.073 603.932Z" fill="#333333"/>
<path d="M821.061 510.061C821.646 509.475 821.646 508.525 821.061 507.939L811.515 498.393C810.929 497.808 809.979 497.808 809.393 498.393C808.808 498.979 808.808 499.929 809.393 500.515L817.879 509L809.393 517.485C808.808 518.071 808.808 519.021 809.393 519.607C809.979 520.192 810.929 520.192 811.515 519.607L821.061 510.061ZM566.063 554.499C637.272 551.49 664.433 540.439 692.024 530.156C719.369 519.963 747.192 510.5 820 510.5V507.5C746.808 507.5 718.631 517.037 690.976 527.344C663.567 537.561 636.728 548.51 565.937 551.501L566.063 554.499Z" fill="black"/>
<rect x="849" y="421" width="137" height="108" fill="#FF003C"/>
</svg>
