<svg width="1200" height="900" viewBox="0 0 1200 900" fill="none" xmlns="http://www.w3.org/2000/svg">
<rect width="1200" height="900" fill="white"/>
<rect x="80" y="129" width="1040" height="710" rx="30" fill="#E8E8E8"/>
<g clip-path="url(#clip0_5_1541)">
<path d="M1043.1 695.919C1041.94 695.987 1040.81 696.286 1039.78 696.798L994.851 718.228C992.505 719.345 990.799 721.469 990.215 724.001L979.218 772.098C978.694 774.355 979.117 776.722 980.427 778.657C980.58 778.891 980.741 779.116 980.911 779.334L1011.95 817.929C1013.59 819.945 1016.06 821.102 1018.65 821.09H1068.44C1071.04 821.094 1073.51 819.88 1075.15 817.893L1106.17 779.29C1107.8 777.274 1108.41 774.613 1107.78 772.09L1096.71 723.953C1096.13 721.421 1094.41 719.297 1092.08 718.18L1047.22 696.802C1045.93 696.165 1044.5 695.861 1043.06 695.919H1043.1Z" fill="#326CE5"/>
<path d="M1043.51 712.31C1041.96 712.419 1040.79 713.745 1040.87 715.293V716.051C1040.94 716.909 1041.07 717.76 1041.24 718.603C1041.49 720.216 1041.58 721.85 1041.5 723.48C1041.35 724.017 1041.05 724.5 1040.63 724.871L1040.57 726.008C1038.93 726.145 1037.31 726.395 1035.72 726.758C1029 728.274 1022.88 731.757 1018.16 736.775L1017.2 736.09C1016.66 736.251 1016.09 736.191 1015.6 735.929C1014.3 734.96 1013.08 733.867 1011.99 732.664C1011.44 732.005 1010.85 731.38 1010.23 730.789L1009.63 730.313C1009.1 729.886 1008.44 729.64 1007.76 729.608C1007.36 729.586 1006.95 729.661 1006.58 729.827C1006.21 729.992 1005.88 730.243 1005.62 730.559C1004.71 731.837 1005.01 733.607 1006.28 734.522L1006.84 734.965C1007.56 735.442 1008.3 735.877 1009.07 736.268C1010.49 737.062 1011.84 737.993 1013.09 739.089C1013.41 739.545 1013.59 740.081 1013.62 740.637L1014.5 741.444C1009.76 748.563 1007.81 757.186 1009.03 765.655L1007.9 765.978C1007.61 766.445 1007.22 766.845 1006.75 767.139C1005.17 767.559 1003.56 767.825 1001.93 767.933C1001.07 767.951 1000.21 768.018 999.354 768.135L998.641 768.296H998.56C998.065 768.365 997.599 768.569 997.213 768.887C996.827 769.205 996.537 769.624 996.376 770.097C996.214 770.57 996.187 771.079 996.297 771.567C996.407 772.054 996.651 772.502 997 772.859C997.353 773.215 997.797 773.465 998.284 773.583C998.771 773.7 999.281 773.68 999.757 773.524H999.81L1000.54 773.444C1001.35 773.202 1002.16 772.904 1002.95 772.565C1004.46 771.96 1006.03 771.497 1007.63 771.194C1008.19 771.227 1008.72 771.416 1009.17 771.739L1010.38 771.537C1013 779.668 1018.51 786.557 1025.86 790.899L1025.37 791.927C1025.59 792.399 1025.68 792.923 1025.61 793.443C1024.94 794.983 1024.13 796.458 1023.18 797.845C1022.66 798.533 1022.18 799.25 1021.74 799.994L1021.39 800.719C1021.14 801.15 1021.02 801.642 1021.03 802.14C1021.05 802.637 1021.2 803.122 1021.47 803.539C1021.74 803.957 1022.12 804.291 1022.57 804.505C1023.02 804.72 1023.52 804.806 1024.01 804.754C1024.51 804.699 1024.98 804.506 1025.37 804.199C1025.77 803.891 1026.07 803.481 1026.24 803.013L1026.58 802.328C1026.88 801.521 1027.14 800.699 1027.35 799.869C1028.06 798.107 1028.45 796.216 1029.43 795.047C1029.75 794.747 1030.15 794.551 1030.58 794.483L1031.18 793.382C1039.16 796.446 1047.98 796.467 1055.96 793.443L1056.5 794.471C1057.05 794.551 1057.54 794.854 1057.87 795.297C1058.63 796.74 1059.24 798.252 1059.71 799.812C1059.92 800.647 1060.18 801.47 1060.49 802.275L1060.82 802.961C1061 803.427 1061.3 803.835 1061.69 804.141C1062.09 804.446 1062.56 804.637 1063.05 804.691C1063.55 804.746 1064.05 804.663 1064.5 804.45C1064.95 804.238 1065.33 803.905 1065.61 803.489C1065.88 803.07 1066.03 802.584 1066.04 802.085C1066.05 801.586 1065.92 801.094 1065.67 800.663L1065.32 799.937C1064.88 799.196 1064.4 798.482 1063.88 797.797C1062.95 796.458 1062.15 795.031 1061.46 793.535C1061.39 793.262 1061.39 792.978 1061.43 792.701C1061.48 792.424 1061.58 792.16 1061.73 791.923C1061.56 791.571 1061.41 791.209 1061.29 790.839C1068.62 786.465 1074.11 779.551 1076.7 771.408L1077.84 771.61C1078.25 771.235 1078.79 771.037 1079.35 771.053C1080.95 771.36 1082.51 771.859 1084.03 772.424C1084.82 772.787 1085.62 773.093 1086.44 773.351C1086.63 773.403 1086.92 773.448 1087.13 773.5H1087.19C1087.66 773.654 1088.17 773.672 1088.66 773.554C1089.14 773.435 1089.59 773.184 1089.94 772.828C1090.29 772.473 1090.54 772.027 1090.65 771.539C1090.76 771.052 1090.74 770.544 1090.58 770.07C1090.41 769.596 1090.12 769.177 1089.74 768.86C1089.35 768.542 1088.88 768.339 1088.38 768.272L1087.6 768.086C1086.75 767.969 1085.89 767.902 1085.02 767.885C1083.39 767.78 1081.78 767.514 1080.21 767.09C1079.73 766.82 1079.32 766.417 1079.05 765.929L1077.96 765.607C1079.12 757.141 1077.13 748.544 1072.37 741.448L1073.32 740.569C1073.28 740.017 1073.46 739.468 1073.82 739.045C1075.06 737.981 1076.4 737.042 1077.81 736.239C1078.58 735.848 1079.32 735.414 1080.04 734.937L1080.63 734.462C1081.06 734.193 1081.41 733.806 1081.63 733.348C1081.86 732.889 1081.94 732.377 1081.89 731.87C1081.83 731.363 1081.63 730.882 1081.32 730.483C1081 730.084 1080.57 729.784 1080.09 729.616C1079.61 729.448 1079.09 729.421 1078.6 729.535C1078.1 729.65 1077.65 729.903 1077.29 730.265L1076.69 730.741C1076.07 731.331 1075.48 731.957 1074.93 732.615C1073.86 733.833 1072.69 734.941 1071.41 735.933C1070.89 736.143 1070.33 736.204 1069.78 736.11L1068.76 736.836C1062.87 730.668 1054.95 726.838 1046.45 726.073C1046.45 725.669 1046.39 725.065 1046.39 724.875C1045.93 724.561 1045.61 724.081 1045.51 723.537C1045.45 721.909 1045.55 720.279 1045.81 718.671C1045.99 717.825 1046.11 716.978 1046.19 716.119V715.313C1046.27 713.765 1045.1 712.439 1043.54 712.33L1043.51 712.31ZM1040.15 733.135L1039.34 747.216H1039.28C1039.24 748.087 1038.73 748.829 1037.94 749.248C1037.16 749.667 1036.22 749.542 1035.52 749.03L1023.97 740.847C1027.65 737.236 1032.26 734.725 1037.29 733.595C1038.23 733.393 1039.18 733.24 1040.14 733.135H1040.15ZM1046.87 733.135C1052.94 733.889 1058.59 736.614 1062.96 740.891L1051.51 749.022C1050.81 749.587 1049.84 749.7 1049.02 749.313C1048.2 748.926 1047.68 748.103 1047.67 747.2L1046.87 733.135ZM1019.78 746.144L1030.34 755.569V755.63C1031 756.202 1031.29 757.093 1031.09 757.944C1030.9 758.794 1030.25 759.467 1029.41 759.697V759.737L1015.86 763.636C1015.19 757.53 1016.57 751.374 1019.78 746.14L1019.78 746.144ZM1067.16 746.144C1070.37 751.365 1071.79 757.488 1071.2 763.587L1057.63 759.677V759.625C1056.78 759.395 1056.13 758.722 1055.94 757.871C1055.76 757.02 1056.04 756.138 1056.69 755.557L1067.18 746.176L1067.16 746.144ZM1041.34 756.303H1045.67L1048.31 759.657L1047.35 763.849L1043.46 765.716L1039.57 763.849L1038.66 759.657L1041.34 756.303ZM1055.19 767.744C1055.37 767.723 1055.59 767.723 1055.73 767.744L1069.71 770.102C1067.69 775.907 1063.71 780.865 1058.52 784.183L1053.12 771.106C1052.97 770.755 1052.91 770.373 1052.94 769.994C1052.97 769.614 1053.09 769.247 1053.29 768.923C1053.49 768.599 1053.77 768.329 1054.09 768.134C1054.42 767.939 1054.79 767.826 1055.17 767.804L1055.19 767.744ZM1031.71 767.804C1032.5 767.816 1033.23 768.223 1033.66 768.884C1034.1 769.546 1034.16 770.376 1033.85 771.102V771.154L1028.48 784.127C1023.34 780.833 1019.44 775.935 1017.37 770.191L1031.22 767.84C1031.37 767.824 1031.53 767.824 1031.69 767.84L1031.71 767.804ZM1043.42 773.448C1043.86 773.434 1044.3 773.543 1044.68 773.762C1045.06 773.981 1045.37 774.302 1045.58 774.689H1045.64L1052.47 787.013L1049.74 787.819C1044.71 788.968 1039.47 788.698 1034.59 787.037L1041.44 774.714C1041.86 773.988 1042.62 773.544 1043.46 773.524L1043.42 773.448Z" fill="white" fill-opacity="0.9" stroke="white" stroke-opacity="0.9" stroke-width="0.606719"/>
</g>
<rect x="127" y="439" width="216" height="176" rx="10" fill="#F1C40F"/>
<rect x="275" y="137" width="372" height="107" rx="10" fill="#121212" fill-opacity="0.9"/>
<rect x="275" y="317" width="372" height="35" rx="10" fill="#CFCFCF"/>
<path d="M383.09 216.833C381.636 216.833 380.22 216.271 379.136 215.198L346.149 182.171V211.124C346.149 214.189 343.649 216.705 340.574 216.705C337.5 216.705 335 214.342 335 211.124V168.722C335 166.462 336.365 164.431 338.444 163.562C340.523 162.694 342.909 163.179 344.516 164.776L377.503 197.803V168.722C377.503 165.657 380.003 163.141 383.077 163.141C386.152 163.141 388.652 165.644 388.652 168.722V211.124C388.652 214.189 386.152 216.705 383.077 216.705L383.09 216.833ZM408.883 163.064L407.352 165.925L395.489 187.484L393.958 190.204L395.489 192.924L407.352 213.78L408.947 216.641H439.944L441.475 213.499L450.327 195.645L454.282 187.547H445.301L422.659 187.611C419.726 187.573 417.008 190.242 417.008 193.193C417.008 196.143 419.713 198.812 422.659 198.774L436.308 198.71L432.966 205.479H415.439L406.727 190.127L415.503 174.227H434.178L438.515 183.167H449.74L442.674 166.206L441.143 163.064H408.87H408.883ZM465.328 163C462.394 163.039 459.792 165.734 459.843 168.645V183.205H470.992V168.645C471.03 165.682 468.441 162.962 465.354 163H465.328ZM483.212 216.833C480.151 216.833 477.638 214.33 477.638 211.252V168.811C477.638 165.746 480.138 163.23 483.212 163.23C486.286 163.23 488.787 165.734 488.787 168.811V197.893L521.774 164.865C523.368 163.269 525.766 162.796 527.846 163.652C529.925 164.507 531.29 166.551 531.29 168.811V211.379C531.29 214.445 528.79 216.961 525.715 216.961C522.641 216.961 520.141 214.457 520.141 211.379V182.286L487.154 215.313C486.108 216.36 484.692 216.948 483.2 216.948L483.212 216.833ZM572.555 190.051L589.904 172.758C592.072 170.587 592.072 167.049 589.916 164.865C587.761 162.681 584.214 162.694 582.033 164.852L564.685 182.183L547.337 164.852C545.168 162.681 541.622 162.681 539.454 164.865C537.285 167.049 537.285 170.587 539.466 172.758L556.815 190.051L539.479 207.292C537.311 209.464 537.311 213.001 539.466 215.185C540.512 216.245 541.928 216.846 543.293 216.846C544.658 216.846 546.138 216.309 547.222 215.211L564.532 197.931L581.842 215.211C582.888 216.258 584.304 216.846 585.771 216.846C587.238 216.846 588.628 216.296 589.598 215.185C591.766 213.014 591.766 209.476 589.585 207.292L572.3 190.051H572.555ZM465.073 216.795C462.139 216.756 459.537 214.061 459.588 211.149V187.777H470.737V211.124C470.775 214.087 468.186 216.807 465.099 216.769" fill="#00D600"/>
<path d="M157.54 547V506.273H173.608C176.697 506.273 179.329 506.863 181.503 508.043C183.677 509.209 185.334 510.833 186.474 512.915C187.628 514.983 188.205 517.369 188.205 520.074C188.205 522.778 187.621 525.165 186.455 527.233C185.288 529.301 183.598 530.912 181.384 532.065C179.183 533.219 176.518 533.795 173.389 533.795H163.148V526.895H171.997C173.654 526.895 175.02 526.61 176.094 526.04C177.181 525.456 177.99 524.654 178.52 523.634C179.063 522.599 179.335 521.413 179.335 520.074C179.335 518.722 179.063 517.542 178.52 516.534C177.99 515.513 177.181 514.724 176.094 514.168C175.007 513.598 173.628 513.312 171.957 513.312H166.151V547H157.54ZM206.947 547.597C203.858 547.597 201.187 546.94 198.933 545.628C196.693 544.302 194.963 542.459 193.743 540.099C192.523 537.726 191.913 534.975 191.913 531.847C191.913 528.691 192.523 525.934 193.743 523.574C194.963 521.201 196.693 519.358 198.933 518.045C201.187 516.72 203.858 516.057 206.947 516.057C210.036 516.057 212.701 516.72 214.942 518.045C217.196 519.358 218.932 521.201 220.152 523.574C221.372 525.934 221.982 528.691 221.982 531.847C221.982 534.975 221.372 537.726 220.152 540.099C218.932 542.459 217.196 544.302 214.942 545.628C212.701 546.94 210.036 547.597 206.947 547.597ZM206.987 541.034C208.393 541.034 209.566 540.636 210.507 539.841C211.448 539.032 212.158 537.932 212.635 536.54C213.125 535.148 213.371 533.563 213.371 531.787C213.371 530.01 213.125 528.426 212.635 527.034C212.158 525.642 211.448 524.542 210.507 523.733C209.566 522.924 208.393 522.52 206.987 522.52C205.569 522.52 204.375 522.924 203.408 523.733C202.453 524.542 201.731 525.642 201.24 527.034C200.763 528.426 200.524 530.01 200.524 531.787C200.524 533.563 200.763 535.148 201.24 536.54C201.731 537.932 202.453 539.032 203.408 539.841C204.375 540.636 205.569 541.034 206.987 541.034ZM238.746 547.497C236.426 547.497 234.324 546.901 232.442 545.707C230.572 544.501 229.088 542.731 227.987 540.398C226.9 538.051 226.357 535.174 226.357 531.767C226.357 528.267 226.92 525.357 228.047 523.037C229.174 520.704 230.672 518.96 232.541 517.807C234.424 516.64 236.485 516.057 238.726 516.057C240.436 516.057 241.861 516.348 243.001 516.932C244.155 517.502 245.083 518.218 245.786 519.08C246.501 519.928 247.045 520.763 247.416 521.585H247.675V506.273H256.126V547H247.774V542.108H247.416C247.018 542.956 246.455 543.798 245.726 544.634C245.01 545.455 244.075 546.138 242.922 546.682C241.782 547.225 240.39 547.497 238.746 547.497ZM241.43 540.756C242.796 540.756 243.949 540.384 244.891 539.642C245.845 538.886 246.574 537.832 247.078 536.48C247.595 535.128 247.854 533.544 247.854 531.727C247.854 529.911 247.602 528.333 247.098 526.994C246.594 525.655 245.865 524.621 244.911 523.892C243.956 523.163 242.796 522.798 241.43 522.798C240.038 522.798 238.865 523.176 237.911 523.932C236.956 524.687 236.233 525.735 235.743 527.074C235.252 528.413 235.007 529.964 235.007 531.727C235.007 533.504 235.252 535.075 235.743 536.44C236.247 537.793 236.969 538.853 237.911 539.622C238.865 540.378 240.038 540.756 241.43 540.756ZM283.232 547H274.004L288.064 506.273H299.161L313.2 547H303.973L293.771 515.58H293.453L283.232 547ZM282.655 530.991H304.45V537.713H282.655V530.991Z" fill="black"/>
<rect x="275" y="639" width="216" height="176" rx="10" fill="#F1C40F"/>
<path d="M305.54 747V706.273H321.608C324.697 706.273 327.329 706.863 329.503 708.043C331.677 709.209 333.334 710.833 334.474 712.915C335.628 714.983 336.205 717.369 336.205 720.074C336.205 722.778 335.621 725.165 334.455 727.233C333.288 729.301 331.598 730.912 329.384 732.065C327.183 733.219 324.518 733.795 321.389 733.795H311.148V726.895H319.997C321.654 726.895 323.02 726.61 324.094 726.04C325.181 725.456 325.99 724.654 326.52 723.634C327.063 722.599 327.335 721.413 327.335 720.074C327.335 718.722 327.063 717.542 326.52 716.534C325.99 715.513 325.181 714.724 324.094 714.168C323.007 713.598 321.628 713.312 319.957 713.312H314.151V747H305.54ZM354.947 747.597C351.858 747.597 349.187 746.94 346.933 745.628C344.693 744.302 342.963 742.459 341.743 740.099C340.523 737.726 339.913 734.975 339.913 731.847C339.913 728.691 340.523 725.934 341.743 723.574C342.963 721.201 344.693 719.358 346.933 718.045C349.187 716.72 351.858 716.057 354.947 716.057C358.036 716.057 360.701 716.72 362.942 718.045C365.196 719.358 366.932 721.201 368.152 723.574C369.372 725.934 369.982 728.691 369.982 731.847C369.982 734.975 369.372 737.726 368.152 740.099C366.932 742.459 365.196 744.302 362.942 745.628C360.701 746.94 358.036 747.597 354.947 747.597ZM354.987 741.034C356.393 741.034 357.566 740.636 358.507 739.841C359.448 739.032 360.158 737.932 360.635 736.54C361.125 735.148 361.371 733.563 361.371 731.787C361.371 730.01 361.125 728.426 360.635 727.034C360.158 725.642 359.448 724.542 358.507 723.733C357.566 722.924 356.393 722.52 354.987 722.52C353.569 722.52 352.375 722.924 351.408 723.733C350.453 724.542 349.731 725.642 349.24 727.034C348.763 728.426 348.524 730.01 348.524 731.787C348.524 733.563 348.763 735.148 349.24 736.54C349.731 737.932 350.453 739.032 351.408 739.841C352.375 740.636 353.569 741.034 354.987 741.034ZM386.746 747.497C384.426 747.497 382.324 746.901 380.442 745.707C378.572 744.501 377.088 742.731 375.987 740.398C374.9 738.051 374.357 735.174 374.357 731.767C374.357 728.267 374.92 725.357 376.047 723.037C377.174 720.704 378.672 718.96 380.541 717.807C382.424 716.64 384.485 716.057 386.726 716.057C388.436 716.057 389.861 716.348 391.001 716.932C392.155 717.502 393.083 718.218 393.786 719.08C394.501 719.928 395.045 720.763 395.416 721.585H395.675V706.273H404.126V747H395.774V742.108H395.416C395.018 742.956 394.455 743.798 393.726 744.634C393.01 745.455 392.075 746.138 390.922 746.682C389.782 747.225 388.39 747.497 386.746 747.497ZM389.43 740.756C390.796 740.756 391.949 740.384 392.891 739.642C393.845 738.886 394.574 737.832 395.078 736.48C395.595 735.128 395.854 733.544 395.854 731.727C395.854 729.911 395.602 728.333 395.098 726.994C394.594 725.655 393.865 724.621 392.911 723.892C391.956 723.163 390.796 722.798 389.43 722.798C388.038 722.798 386.865 723.176 385.911 723.932C384.956 724.687 384.233 725.735 383.743 727.074C383.252 728.413 383.007 729.964 383.007 731.727C383.007 733.504 383.252 735.075 383.743 736.44C384.247 737.793 384.969 738.853 385.911 739.622C386.865 740.378 388.038 740.756 389.43 740.756ZM431.232 747H422.004L436.064 706.273H447.161L461.2 747H451.973L441.771 715.58H441.453L431.232 747ZM430.655 730.991H452.45V737.713H430.655V730.991Z" fill="black"/>
<rect x="506" y="439" width="216" height="176" rx="10" fill="#F1C40F"/>
<path d="M536.54 547V506.273H552.608C555.697 506.273 558.329 506.863 560.503 508.043C562.677 509.209 564.334 510.833 565.474 512.915C566.628 514.983 567.205 517.369 567.205 520.074C567.205 522.778 566.621 525.165 565.455 527.233C564.288 529.301 562.598 530.912 560.384 532.065C558.183 533.219 555.518 533.795 552.389 533.795H542.148V526.895H550.997C552.654 526.895 554.02 526.61 555.094 526.04C556.181 525.456 556.99 524.654 557.52 523.634C558.063 522.599 558.335 521.413 558.335 520.074C558.335 518.722 558.063 517.542 557.52 516.534C556.99 515.513 556.181 514.724 555.094 514.168C554.007 513.598 552.628 513.312 550.957 513.312H545.151V547H536.54ZM585.947 547.597C582.858 547.597 580.187 546.94 577.933 545.628C575.693 544.302 573.963 542.459 572.743 540.099C571.523 537.726 570.913 534.975 570.913 531.847C570.913 528.691 571.523 525.934 572.743 523.574C573.963 521.201 575.693 519.358 577.933 518.045C580.187 516.72 582.858 516.057 585.947 516.057C589.036 516.057 591.701 516.72 593.942 518.045C596.196 519.358 597.932 521.201 599.152 523.574C600.372 525.934 600.982 528.691 600.982 531.847C600.982 534.975 600.372 537.726 599.152 540.099C597.932 542.459 596.196 544.302 593.942 545.628C591.701 546.94 589.036 547.597 585.947 547.597ZM585.987 541.034C587.393 541.034 588.566 540.636 589.507 539.841C590.448 539.032 591.158 537.932 591.635 536.54C592.125 535.148 592.371 533.563 592.371 531.787C592.371 530.01 592.125 528.426 591.635 527.034C591.158 525.642 590.448 524.542 589.507 523.733C588.566 522.924 587.393 522.52 585.987 522.52C584.569 522.52 583.375 522.924 582.408 523.733C581.453 524.542 580.731 525.642 580.24 527.034C579.763 528.426 579.524 530.01 579.524 531.787C579.524 533.563 579.763 535.148 580.24 536.54C580.731 537.932 581.453 539.032 582.408 539.841C583.375 540.636 584.569 541.034 585.987 541.034ZM617.746 547.497C615.426 547.497 613.324 546.901 611.442 545.707C609.572 544.501 608.088 542.731 606.987 540.398C605.9 538.051 605.357 535.174 605.357 531.767C605.357 528.267 605.92 525.357 607.047 523.037C608.174 520.704 609.672 518.96 611.541 517.807C613.424 516.64 615.485 516.057 617.726 516.057C619.436 516.057 620.861 516.348 622.001 516.932C623.155 517.502 624.083 518.218 624.786 519.08C625.501 519.928 626.045 520.763 626.416 521.585H626.675V506.273H635.126V547H626.774V542.108H626.416C626.018 542.956 625.455 543.798 624.726 544.634C624.01 545.455 623.075 546.138 621.922 546.682C620.782 547.225 619.39 547.497 617.746 547.497ZM620.43 540.756C621.796 540.756 622.949 540.384 623.891 539.642C624.845 538.886 625.574 537.832 626.078 536.48C626.595 535.128 626.854 533.544 626.854 531.727C626.854 529.911 626.602 528.333 626.098 526.994C625.594 525.655 624.865 524.621 623.911 523.892C622.956 523.163 621.796 522.798 620.43 522.798C619.038 522.798 617.865 523.176 616.911 523.932C615.956 524.687 615.233 525.735 614.743 527.074C614.252 528.413 614.007 529.964 614.007 531.727C614.007 533.504 614.252 535.075 614.743 536.44C615.247 537.793 615.969 538.853 616.911 539.622C617.865 540.378 619.038 540.756 620.43 540.756ZM662.232 547H653.004L667.064 506.273H678.161L692.2 547H682.973L672.771 515.58H672.453L662.232 547ZM661.655 530.991H683.45V537.713H661.655V530.991Z" fill="black"/>
<path d="M992.045 878.384C990.034 878.384 988.304 877.957 986.855 877.105C985.415 876.244 984.307 875.051 983.531 873.526C982.764 872 982.381 870.244 982.381 868.259C982.381 866.247 982.768 864.483 983.544 862.966C984.328 861.44 985.44 860.251 986.881 859.399C988.321 858.538 990.034 858.108 992.02 858.108C993.733 858.108 995.233 858.419 996.52 859.041C997.807 859.663 998.825 860.537 999.575 861.662C1000.33 862.787 1000.74 864.108 1000.82 865.625H995.676C995.531 864.645 995.148 863.857 994.526 863.26C993.912 862.655 993.107 862.352 992.109 862.352C991.266 862.352 990.528 862.582 989.898 863.043C989.276 863.494 988.79 864.155 988.44 865.024C988.091 865.893 987.916 866.946 987.916 868.182C987.916 869.435 988.087 870.5 988.428 871.378C988.777 872.256 989.267 872.925 989.898 873.385C990.528 873.845 991.266 874.075 992.109 874.075C992.732 874.075 993.29 873.947 993.784 873.692C994.287 873.436 994.7 873.065 995.024 872.58C995.357 872.085 995.574 871.493 995.676 870.803H1000.82C1000.73 872.303 1000.32 873.624 999.588 874.766C998.864 875.899 997.862 876.786 996.584 877.425C995.305 878.064 993.793 878.384 992.045 878.384ZM1009.75 851.818V878H1004.3V851.818H1009.75ZM1026.7 869.639V858.364H1032.15V878H1026.92V874.433H1026.72C1026.27 875.584 1025.54 876.509 1024.5 877.207C1023.48 877.906 1022.23 878.256 1020.76 878.256C1019.45 878.256 1018.29 877.957 1017.29 877.361C1016.3 876.764 1015.52 875.916 1014.95 874.817C1014.4 873.717 1014.12 872.401 1014.11 870.866V858.364H1019.56V869.895C1019.57 871.054 1019.88 871.97 1020.49 872.643C1021.1 873.317 1021.93 873.653 1022.96 873.653C1023.61 873.653 1024.23 873.504 1024.8 873.206C1025.37 872.899 1025.83 872.447 1026.18 871.851C1026.54 871.254 1026.71 870.517 1026.7 869.639ZM1052.84 863.963L1047.86 864.27C1047.77 863.844 1047.59 863.46 1047.31 863.119C1047.03 862.77 1046.66 862.493 1046.2 862.288C1045.74 862.075 1045.2 861.969 1044.57 861.969C1043.73 861.969 1043.02 862.148 1042.44 862.506C1041.86 862.855 1041.57 863.324 1041.57 863.912C1041.57 864.381 1041.76 864.777 1042.13 865.101C1042.51 865.425 1043.15 865.685 1044.06 865.881L1047.61 866.597C1049.52 866.989 1050.95 867.619 1051.88 868.489C1052.82 869.358 1053.29 870.5 1053.29 871.915C1053.29 873.202 1052.91 874.331 1052.15 875.303C1051.4 876.274 1050.37 877.033 1049.06 877.578C1047.76 878.115 1046.25 878.384 1044.55 878.384C1041.95 878.384 1039.88 877.842 1038.33 876.76C1036.8 875.669 1035.9 874.186 1035.64 872.311L1040.99 872.03C1041.15 872.822 1041.55 873.428 1042.17 873.845C1042.79 874.254 1043.59 874.459 1044.56 874.459C1045.51 874.459 1046.28 874.276 1046.86 873.909C1047.45 873.534 1047.75 873.053 1047.76 872.464C1047.75 871.97 1047.54 871.565 1047.13 871.25C1046.72 870.926 1046.09 870.679 1045.24 870.509L1041.84 869.831C1039.92 869.447 1038.49 868.783 1037.55 867.837C1036.62 866.891 1036.16 865.685 1036.16 864.219C1036.16 862.957 1036.5 861.871 1037.18 860.959C1037.87 860.047 1038.84 859.344 1040.08 858.849C1041.34 858.355 1042.8 858.108 1044.48 858.108C1046.96 858.108 1048.91 858.632 1050.34 859.68C1051.77 860.729 1052.6 862.156 1052.84 863.963ZM1067.16 858.364V862.455H1055.34V858.364H1067.16ZM1058.02 853.659H1063.47V871.966C1063.47 872.469 1063.55 872.861 1063.7 873.142C1063.85 873.415 1064.07 873.607 1064.34 873.717C1064.62 873.828 1064.94 873.884 1065.31 873.884C1065.57 873.884 1065.82 873.862 1066.08 873.82C1066.33 873.768 1066.53 873.73 1066.67 873.705L1067.52 877.757C1067.25 877.842 1066.87 877.94 1066.37 878.051C1065.88 878.17 1065.28 878.243 1064.57 878.268C1063.26 878.32 1062.11 878.145 1061.12 877.744C1060.14 877.344 1059.38 876.722 1058.83 875.878C1058.28 875.034 1058.02 873.969 1058.02 872.682V853.659ZM1079.45 878.384C1077.43 878.384 1075.69 877.974 1074.23 877.156C1072.79 876.33 1071.67 875.162 1070.88 873.653C1070.1 872.136 1069.71 870.342 1069.71 868.271C1069.71 866.251 1070.1 864.479 1070.88 862.953C1071.67 861.428 1072.77 860.239 1074.2 859.386C1075.63 858.534 1077.31 858.108 1079.23 858.108C1080.53 858.108 1081.73 858.317 1082.85 858.734C1083.98 859.143 1084.96 859.761 1085.79 860.588C1086.63 861.415 1087.29 862.455 1087.76 863.707C1088.23 864.952 1088.46 866.409 1088.46 868.08V869.575H1071.88V866.2H1083.34C1083.34 865.416 1083.17 864.722 1082.83 864.116C1082.48 863.511 1082.01 863.038 1081.41 862.697C1080.81 862.348 1080.12 862.173 1079.32 862.173C1078.5 862.173 1077.76 862.365 1077.12 862.749C1076.49 863.124 1076 863.631 1075.64 864.27C1075.28 864.901 1075.1 865.604 1075.09 866.379V869.588C1075.09 870.56 1075.27 871.399 1075.63 872.107C1075.99 872.814 1076.51 873.359 1077.17 873.743C1077.84 874.126 1078.63 874.318 1079.54 874.318C1080.14 874.318 1080.7 874.233 1081.2 874.062C1081.7 873.892 1082.13 873.636 1082.49 873.295C1082.85 872.955 1083.12 872.537 1083.31 872.043L1088.35 872.375C1088.09 873.585 1087.57 874.642 1086.78 875.545C1085.99 876.44 1084.98 877.139 1083.73 877.642C1082.5 878.136 1081.07 878.384 1079.45 878.384ZM1092.02 878V858.364H1097.3V861.79H1097.5C1097.86 860.571 1098.46 859.651 1099.3 859.028C1100.15 858.398 1101.12 858.082 1102.22 858.082C1102.49 858.082 1102.79 858.099 1103.1 858.134C1103.42 858.168 1103.69 858.214 1103.93 858.274V863.107C1103.68 863.03 1103.32 862.962 1102.87 862.902C1102.42 862.842 1102.01 862.812 1101.63 862.812C1100.83 862.812 1100.11 862.987 1099.48 863.337C1098.86 863.678 1098.37 864.155 1098 864.768C1097.64 865.382 1097.46 866.089 1097.46 866.891V878H1092.02Z" fill="black"/>
<path d="M567.898 58.6484C567.534 58.8307 567.188 59.0312 566.859 59.25C566.568 59.4323 566.276 59.6146 565.984 59.7969C565.693 59.9427 565.401 60.0521 565.109 60.125C564.818 60.1979 564.508 60.1979 564.18 60.125C563.961 60.125 563.779 59.9974 563.633 59.7422C563.487 59.4505 563.378 59.1406 563.305 58.8125C563.195 58.4479 563.122 58.1016 563.086 57.7734C563.049 57.4089 563.049 57.1354 563.086 56.9531L568.336 53.9453L568.664 39.9453C568.737 39.4714 569.029 39.2891 569.539 39.3984C570.049 39.4714 570.578 39.5807 571.125 39.7266C571.198 39.7266 571.307 39.763 571.453 39.8359C571.635 39.8724 571.763 39.9089 571.836 39.9453C571.763 40.9297 571.672 42.0052 571.562 43.1719C571.49 44.3021 571.417 45.4505 571.344 46.6172C571.271 47.7474 571.216 48.8594 571.18 49.9531C571.18 51.0469 571.234 52.0312 571.344 52.9062L579.547 50.6094C579.693 50.5729 579.802 50.6823 579.875 50.9375C579.984 51.1562 580.076 51.4297 580.148 51.7578C580.258 52.0859 580.331 52.4141 580.367 52.7422C580.404 53.0703 580.422 53.2344 580.422 53.2344L571.125 57.1719C571.125 57.5 571.143 58.2839 571.18 59.5234C571.253 60.763 571.326 62.2396 571.398 63.9531C571.471 65.6302 571.544 67.4531 571.617 69.4219C571.69 71.3542 571.763 73.1589 571.836 74.8359C571.909 76.513 571.964 77.9896 572 79.2656C572.036 80.5052 572.055 81.2891 572.055 81.6172C571.982 82.7109 571.654 83.2578 571.07 83.2578C570.523 83.2578 569.922 82.9844 569.266 82.4375L567.898 58.6484ZM581.461 55.6406V55.2031C581.461 54.8385 581.589 54.5833 581.844 54.4375C582.135 54.2917 582.464 54.2188 582.828 54.2188C583.12 54.2188 583.393 54.2552 583.648 54.3281C583.904 54.3646 584.104 54.5651 584.25 54.9297C584.359 55.4766 584.469 56.2422 584.578 57.2266C584.688 58.1745 584.815 59.2318 584.961 60.3984C585.107 61.5651 585.253 62.8047 585.398 64.1172C585.581 65.3932 585.745 66.6146 585.891 67.7812C586.073 68.9115 586.255 69.9323 586.438 70.8438C586.62 71.7552 586.82 72.4479 587.039 72.9219C586.93 69.4219 587.039 66.3958 587.367 63.8438C587.695 61.2552 588.315 59.1589 589.227 57.5547C590.174 55.9141 591.451 54.7839 593.055 54.1641C594.695 53.5078 596.737 53.362 599.18 53.7266C600.31 53.7266 600.875 54.3281 600.875 55.5312C600.875 56.0052 600.565 56.3333 599.945 56.5156C599.326 56.6615 598.633 56.7708 597.867 56.8438C597.102 56.8802 596.354 56.9349 595.625 57.0078C594.896 57.0807 594.367 57.263 594.039 57.5547C592.727 58.2839 591.797 59.4141 591.25 60.9453C590.74 62.4766 590.375 64.2812 590.156 66.3594C589.938 68.4375 589.773 70.7161 589.664 73.1953C589.591 75.638 589.354 78.1536 588.953 80.7422C588.953 81.1068 588.807 81.3802 588.516 81.5625C588.224 81.7448 587.859 81.8359 587.422 81.8359C587.021 81.8359 586.62 81.7448 586.219 81.5625C585.854 81.3802 585.562 81.1068 585.344 80.7422L581.461 55.6406ZM619.195 80.5781C619.013 79.6302 618.849 78.5 618.703 77.1875C618.594 75.8385 618.466 74.4896 618.32 73.1406C618.174 71.7552 617.992 70.4609 617.773 69.2578C617.591 68.0547 617.299 67.0703 616.898 66.3047C615.039 70.0964 613.398 73.0859 611.977 75.2734C610.555 77.4245 609.297 78.974 608.203 79.9219C607.146 80.8333 606.253 81.2708 605.523 81.2344C604.794 81.1979 604.193 80.8698 603.719 80.25C603.245 79.6302 602.898 78.8464 602.68 77.8984C602.497 76.9141 602.37 76.0026 602.297 75.1641C602.297 74.362 602.479 73.2318 602.844 71.7734C603.208 70.3151 603.701 68.7292 604.32 67.0156C604.94 65.2656 605.669 63.4974 606.508 61.7109C607.383 59.9245 608.312 58.3021 609.297 56.8438C610.281 55.3854 611.302 54.1823 612.359 53.2344C613.417 52.2865 614.474 51.8125 615.531 51.8125C617.099 51.5573 618.247 51.9036 618.977 52.8516C619.742 53.763 619.888 55.3125 619.414 57.5C619.414 59.9062 619.505 61.9661 619.688 63.6797C619.906 65.3932 620.125 67.0339 620.344 68.6016C620.599 70.1693 620.818 71.8099 621 73.5234C621.219 75.237 621.328 77.2969 621.328 79.7031C621.328 80.1406 621.273 80.5234 621.164 80.8516C621.091 81.1432 620.654 81.2891 619.852 81.2891C619.742 81.2891 619.596 81.1979 619.414 81.0156C619.268 80.8333 619.195 80.6875 619.195 80.5781ZM616.242 56.1328C615.841 55.5495 615.294 55.4948 614.602 55.9688C613.909 56.4427 613.18 57.2266 612.414 58.3203C611.648 59.4141 610.865 60.7266 610.062 62.2578C609.26 63.7891 608.513 65.3385 607.82 66.9062C607.128 68.474 606.526 69.9688 606.016 71.3906C605.505 72.776 605.159 73.9245 604.977 74.8359C604.977 76.1484 605.177 76.8958 605.578 77.0781C605.979 77.224 606.471 77.0052 607.055 76.4219C607.638 75.8385 608.294 75 609.023 73.9062C609.789 72.8125 610.518 71.6458 611.211 70.4062C611.94 69.1667 612.615 67.9635 613.234 66.7969C613.891 65.6302 614.401 64.6823 614.766 63.9531C615.094 63.1875 615.349 62.4766 615.531 61.8203C615.714 61.1641 615.859 60.5443 615.969 59.9609C616.115 59.3411 616.188 58.7214 616.188 58.1016C616.224 57.4818 616.242 56.8255 616.242 56.1328ZM628.492 61.8203C628.346 61.8203 628.128 61.8932 627.836 62.0391C627.544 62.1484 627.234 62.2943 626.906 62.4766C626.615 62.6224 626.323 62.7682 626.031 62.9141C625.74 63.0599 625.484 63.1328 625.266 63.1328C624.901 63.1328 624.573 63.0599 624.281 62.9141C624.026 62.7682 623.898 62.4766 623.898 62.0391C623.898 61.6745 624.062 61.3281 624.391 61C624.755 60.6719 625.174 60.3438 625.648 60.0156C626.122 59.6875 626.596 59.3776 627.07 59.0859C627.544 58.7943 627.891 58.5026 628.109 58.2109C628.036 57.6276 627.982 56.5339 627.945 54.9297C627.909 53.3255 627.909 51.5026 627.945 49.4609C628.018 47.3828 628.146 45.25 628.328 43.0625C628.547 40.875 628.857 38.9245 629.258 37.2109C629.695 35.4609 630.26 34.0938 630.953 33.1094C631.646 32.125 632.539 31.8151 633.633 32.1797C634.398 32.1797 635.091 32.4167 635.711 32.8906C636.331 33.3281 636.859 33.8932 637.297 34.5859C637.734 35.2422 638.062 35.9714 638.281 36.7734C638.536 37.5755 638.664 38.3047 638.664 38.9609C638.664 39.3255 638.573 39.7266 638.391 40.1641C638.245 40.5651 637.953 40.7656 637.516 40.7656H637.352C637.315 40.7656 637.279 40.7474 637.242 40.7109C636.367 38.487 635.62 37.0833 635 36.5C634.417 35.8802 633.906 35.862 633.469 36.4453C633.068 37.0286 632.721 38.0677 632.43 39.5625C632.174 41.0573 631.956 42.7891 631.773 44.7578C631.591 46.6901 631.427 48.75 631.281 50.9375C631.135 53.0885 630.99 55.0938 630.844 56.9531C631.573 56.7708 632.174 56.5885 632.648 56.4062C633.159 56.224 633.615 56.0417 634.016 55.8594C634.417 55.6406 634.781 55.4401 635.109 55.2578C635.438 55.0391 635.802 54.8568 636.203 54.7109C636.969 54.3464 637.807 54 638.719 53.6719C639.667 53.3073 640.578 53.125 641.453 53.125C641.453 54.1823 641.253 55.0573 640.852 55.75C640.487 56.4427 639.995 57.0078 639.375 57.4453C638.792 57.8828 638.117 58.2109 637.352 58.4297C636.586 58.612 635.802 58.776 635 58.9219C634.234 59.0677 633.505 59.2135 632.812 59.3594C632.12 59.5052 631.518 59.6875 631.008 59.9062C631.117 62.276 631.263 64.3542 631.445 66.1406C631.664 67.9271 631.846 69.513 631.992 70.8984C632.174 72.2839 632.302 73.5599 632.375 74.7266C632.484 75.8568 632.484 76.987 632.375 78.1172C632.375 78.3724 632.375 78.737 632.375 79.2109C632.411 79.6484 632.393 80.0859 632.32 80.5234C632.284 80.9609 632.156 81.3438 631.938 81.6719C631.719 81.9635 631.372 82.1094 630.898 82.1094C630.461 82.1094 630.133 82.0182 629.914 81.8359C629.695 81.6172 629.549 81.1979 629.477 80.5781C629.258 77.625 629.076 75.1276 628.93 73.0859C628.82 71.0078 628.729 69.276 628.656 67.8906C628.583 66.4688 628.547 65.3568 628.547 64.5547V62.0391C628.547 61.8932 628.529 61.8203 628.492 61.8203ZM647.852 61.8203C647.706 61.8203 647.487 61.8932 647.195 62.0391C646.904 62.1484 646.594 62.2943 646.266 62.4766C645.974 62.6224 645.682 62.7682 645.391 62.9141C645.099 63.0599 644.844 63.1328 644.625 63.1328C644.26 63.1328 643.932 63.0599 643.641 62.9141C643.385 62.7682 643.258 62.4766 643.258 62.0391C643.258 61.6745 643.422 61.3281 643.75 61C644.115 60.6719 644.534 60.3438 645.008 60.0156C645.482 59.6875 645.956 59.3776 646.43 59.0859C646.904 58.7943 647.25 58.5026 647.469 58.2109C647.396 57.6276 647.341 56.5339 647.305 54.9297C647.268 53.3255 647.268 51.5026 647.305 49.4609C647.378 47.3828 647.505 45.25 647.688 43.0625C647.906 40.875 648.216 38.9245 648.617 37.2109C649.055 35.4609 649.62 34.0938 650.312 33.1094C651.005 32.125 651.898 31.8151 652.992 32.1797C653.758 32.1797 654.451 32.4167 655.07 32.8906C655.69 33.3281 656.219 33.8932 656.656 34.5859C657.094 35.2422 657.422 35.9714 657.641 36.7734C657.896 37.5755 658.023 38.3047 658.023 38.9609C658.023 39.3255 657.932 39.7266 657.75 40.1641C657.604 40.5651 657.312 40.7656 656.875 40.7656H656.711C656.674 40.7656 656.638 40.7474 656.602 40.7109C655.727 38.487 654.979 37.0833 654.359 36.5C653.776 35.8802 653.266 35.862 652.828 36.4453C652.427 37.0286 652.081 38.0677 651.789 39.5625C651.534 41.0573 651.315 42.7891 651.133 44.7578C650.951 46.6901 650.786 48.75 650.641 50.9375C650.495 53.0885 650.349 55.0938 650.203 56.9531C650.932 56.7708 651.534 56.5885 652.008 56.4062C652.518 56.224 652.974 56.0417 653.375 55.8594C653.776 55.6406 654.141 55.4401 654.469 55.2578C654.797 55.0391 655.161 54.8568 655.562 54.7109C656.328 54.3464 657.167 54 658.078 53.6719C659.026 53.3073 659.938 53.125 660.812 53.125C660.812 54.1823 660.612 55.0573 660.211 55.75C659.846 56.4427 659.354 57.0078 658.734 57.4453C658.151 57.8828 657.477 58.2109 656.711 58.4297C655.945 58.612 655.161 58.776 654.359 58.9219C653.594 59.0677 652.865 59.2135 652.172 59.3594C651.479 59.5052 650.878 59.6875 650.367 59.9062C650.477 62.276 650.622 64.3542 650.805 66.1406C651.023 67.9271 651.206 69.513 651.352 70.8984C651.534 72.2839 651.661 73.5599 651.734 74.7266C651.844 75.8568 651.844 76.987 651.734 78.1172C651.734 78.3724 651.734 78.737 651.734 79.2109C651.771 79.6484 651.753 80.0859 651.68 80.5234C651.643 80.9609 651.516 81.3438 651.297 81.6719C651.078 81.9635 650.732 82.1094 650.258 82.1094C649.82 82.1094 649.492 82.0182 649.273 81.8359C649.055 81.6172 648.909 81.1979 648.836 80.5781C648.617 77.625 648.435 75.1276 648.289 73.0859C648.18 71.0078 648.089 69.276 648.016 67.8906C647.943 66.4688 647.906 65.3568 647.906 64.5547V62.0391C647.906 61.8932 647.888 61.8203 647.852 61.8203ZM663.766 80.9062C663.766 78.5365 663.711 76.0391 663.602 73.4141C663.529 70.7891 663.438 68.1458 663.328 65.4844C663.255 62.7865 663.237 60.1432 663.273 57.5547C663.31 54.9661 663.474 52.5417 663.766 50.2812C663.839 50.2448 664.003 50.2266 664.258 50.2266C664.549 50.1901 664.75 50.1719 664.859 50.1719C665.37 50.1719 665.771 50.263 666.062 50.4453C666.391 50.5911 666.555 50.9375 666.555 51.4844C666.555 53.6354 666.536 55.987 666.5 58.5391C666.5 61.0547 666.482 63.625 666.445 66.25C666.445 68.8385 666.445 71.4089 666.445 73.9609C666.445 76.513 666.482 78.8281 666.555 80.9062C666.591 81.526 666.464 81.9271 666.172 82.1094C665.917 82.3281 665.589 82.4375 665.188 82.4375C664.75 82.4375 664.385 82.3281 664.094 82.1094C663.802 81.9271 663.693 81.526 663.766 80.9062ZM662.562 41.75C662.562 41.3125 662.708 41.0208 663 40.875C663.292 40.7292 663.62 40.6562 663.984 40.6562C664.714 40.6562 665.169 40.8932 665.352 41.3672C665.534 41.8411 665.625 42.388 665.625 43.0078C665.406 43.4089 665.133 43.7005 664.805 43.8828C664.477 44.0286 664.13 44.0651 663.766 43.9922C663.438 43.8828 663.146 43.6458 662.891 43.2812C662.672 42.9167 662.562 42.4062 662.562 41.75ZM670.328 69.4219C670.438 68.1094 670.547 66.6875 670.656 65.1562C670.766 63.5885 670.93 62.0391 671.148 60.5078C671.404 58.9766 671.714 57.5182 672.078 56.1328C672.479 54.7474 672.99 53.526 673.609 52.4688C674.266 51.375 675.068 50.5182 676.016 49.8984C676.964 49.2422 678.112 48.9323 679.461 48.9688C680.372 48.9688 681.065 49.3516 681.539 50.1172C682.049 50.8828 682.396 51.8125 682.578 52.9062C682.797 54 682.906 55.1302 682.906 56.2969C682.943 57.4271 682.961 58.3568 682.961 59.0859C682.232 59.0859 681.63 58.776 681.156 58.1562C680.682 57.5 680.318 56.7526 680.062 55.9141C679.807 55.0755 679.625 54.2552 679.516 53.4531L679.352 51.8672C679.315 51.8672 679.242 51.8672 679.133 51.8672C679.06 51.8307 679.005 51.8125 678.969 51.8125C678.349 51.8125 677.766 52.1589 677.219 52.8516C676.708 53.5443 676.216 54.4375 675.742 55.5312C675.305 56.5885 674.922 57.7917 674.594 59.1406C674.266 60.4531 673.992 61.7474 673.773 63.0234C673.555 64.2995 673.372 65.4844 673.227 66.5781C673.117 67.6354 673.062 68.4557 673.062 69.0391C672.99 69.987 672.99 71.026 673.062 72.1562C673.135 73.2865 673.354 74.3438 673.719 75.3281C674.083 76.3125 674.594 77.1693 675.25 77.8984C675.906 78.5911 676.781 79.0651 677.875 79.3203C679.224 79.3203 680.318 79.138 681.156 78.7734C681.995 78.4089 682.669 77.9167 683.18 77.2969C683.727 76.6771 684.146 75.9844 684.438 75.2188C684.729 74.4531 685.003 73.6693 685.258 72.8672C685.549 72.0286 685.841 71.2083 686.133 70.4062C686.424 69.6042 686.844 68.8568 687.391 68.1641C687.828 68.0547 688.138 68.0729 688.32 68.2188C688.539 68.3281 688.685 68.4922 688.758 68.7109C688.831 68.9297 688.867 69.1849 688.867 69.4766V70.0781C688.867 71.6094 688.612 73.0859 688.102 74.5078C687.591 75.9297 686.844 77.2057 685.859 78.3359C684.875 79.4297 683.69 80.3229 682.305 81.0156C680.956 81.6719 679.406 82 677.656 82C676.198 82 674.977 81.5443 673.992 80.6328C673.044 79.6849 672.297 78.5547 671.75 77.2422C671.24 75.9297 670.875 74.5625 670.656 73.1406C670.438 71.6823 670.328 70.4427 670.328 69.4219Z" fill="black"/>
<path d="M454.081 130.184C454.735 130.692 455.677 130.575 456.186 129.921L464.474 119.264C464.982 118.61 464.865 117.668 464.211 117.159C463.557 116.651 462.614 116.769 462.106 117.423L454.738 126.895L445.266 119.528C444.612 119.019 443.67 119.137 443.161 119.791C442.653 120.445 442.77 121.387 443.424 121.896L454.081 130.184ZM548.051 69.501C519.505 68.4994 499.065 69.6212 484.53 72.4018C470.015 75.1785 461.186 79.6474 456.115 85.5195C451.005 91.4365 449.931 98.5192 450.316 105.952C450.508 109.664 451.066 113.514 451.692 117.395C452.322 121.3 453.018 125.221 453.513 129.186L456.49 128.814C455.986 124.778 455.274 120.762 454.654 116.917C454.03 113.048 453.495 109.335 453.312 105.797C452.946 98.7305 453.996 92.5633 458.385 87.4803C462.814 82.3526 470.859 78.0715 485.094 75.3484C499.308 72.629 519.492 71.5008 547.946 72.4992L548.051 69.501Z" fill="black"/>
<path d="M226.939 434.061C227.525 434.646 228.475 434.646 229.061 434.061L238.607 424.515C239.193 423.929 239.193 422.98 238.607 422.394C238.021 421.808 237.071 421.808 236.486 422.394L228 430.879L219.515 422.393C218.929 421.807 217.98 421.807 217.394 422.393C216.808 422.979 216.808 423.929 217.394 424.514L226.939 434.061ZM393.5 244C393.5 250.348 391.048 256.663 386.591 263.078C382.131 269.499 375.719 275.94 367.938 282.51C352.35 295.671 331.587 309.095 310.639 323.772C289.756 338.402 268.753 354.238 252.97 372.101C237.178 389.974 226.501 410.001 226.5 433L229.5 433C229.501 410.999 239.699 391.651 255.219 374.087C270.748 356.512 291.494 340.848 312.36 326.228C333.161 311.655 354.148 298.079 369.873 284.802C377.748 278.154 384.382 271.517 389.055 264.789C393.732 258.056 396.5 251.152 396.5 244L393.5 244Z" fill="black"/>
<path d="M376.956 630.077C377.551 630.654 378.501 630.639 379.077 630.044L388.471 620.347C389.047 619.752 389.032 618.803 388.437 618.226C387.842 617.65 386.892 617.665 386.316 618.26L377.966 626.879L369.348 618.529C368.753 617.953 367.803 617.968 367.227 618.563C366.65 619.158 366.665 620.108 367.26 620.684L376.956 630.077ZM377.994 445L376.633 444.369L377.994 445ZM455.504 243C455.504 285.668 441.433 323.901 424.516 357.54C416.057 374.36 406.901 390.005 398.445 404.484C390.003 418.941 382.24 432.268 376.633 444.369L379.355 445.631C384.89 433.684 392.575 420.487 401.036 405.997C409.484 391.53 418.688 375.806 427.196 358.888C444.213 325.051 458.504 286.332 458.504 243H455.504ZM376.633 444.369C371.813 454.773 369.383 467.958 368.424 482.685C367.464 497.427 367.972 513.822 369.094 530.7C371.347 564.572 376.043 600.196 376.5 629.024L379.5 628.976C379.041 600.092 374.318 564.039 372.088 530.501C370.969 513.674 370.47 497.43 371.418 482.88C372.366 468.313 374.759 455.55 379.355 445.631L376.633 444.369Z" fill="black"/>
<path d="M609.939 430.561C610.525 431.146 611.475 431.146 612.061 430.561L621.607 421.015C622.192 420.429 622.192 419.479 621.607 418.893C621.021 418.308 620.071 418.308 619.485 418.893L611 427.379L602.515 418.893C601.929 418.308 600.979 418.308 600.393 418.893C599.808 419.479 599.808 420.429 600.393 421.015L609.939 430.561ZM500.5 242C500.498 293.587 528.081 330.823 555.403 360.025C562.235 367.327 569.067 374.142 575.448 380.549C581.839 386.965 587.771 392.963 592.848 398.669C603.079 410.167 609.5 420.126 609.5 429.5H612.5C612.5 418.874 605.296 408.145 595.089 396.675C589.947 390.896 583.957 384.84 577.574 378.432C571.181 372.014 564.387 365.236 557.594 357.975C530.416 328.927 503.498 292.413 503.5 242L500.5 242Z" fill="black"/>
<path d="M577.688 298.492H574.888C574.837 298.13 574.733 297.808 574.575 297.527C574.418 297.241 574.215 296.999 573.968 296.798C573.721 296.598 573.435 296.445 573.112 296.338C572.792 296.232 572.445 296.178 572.07 296.178C571.392 296.178 570.802 296.347 570.299 296.683C569.796 297.016 569.406 297.501 569.129 298.141C568.852 298.776 568.714 299.547 568.714 300.455C568.714 301.388 568.852 302.172 569.129 302.807C569.411 303.442 569.803 303.921 570.305 304.245C570.808 304.569 571.39 304.731 572.05 304.731C572.421 304.731 572.764 304.682 573.08 304.584C573.399 304.486 573.683 304.343 573.93 304.156C574.177 303.964 574.381 303.732 574.543 303.459C574.71 303.186 574.825 302.875 574.888 302.526L577.688 302.538C577.616 303.139 577.435 303.719 577.145 304.277C576.859 304.831 576.474 305.327 575.988 305.766C575.506 306.201 574.931 306.546 574.262 306.802C573.597 307.053 572.845 307.179 572.006 307.179C570.838 307.179 569.794 306.915 568.874 306.386C567.957 305.858 567.233 305.093 566.7 304.092C566.172 303.09 565.908 301.878 565.908 300.455C565.908 299.027 566.176 297.812 566.713 296.811C567.25 295.81 567.979 295.047 568.899 294.523C569.82 293.994 570.855 293.73 572.006 293.73C572.764 293.73 573.467 293.837 574.115 294.05C574.767 294.263 575.344 294.574 575.847 294.983C576.35 295.388 576.759 295.884 577.075 296.472C577.394 297.06 577.599 297.734 577.688 298.492ZM582.345 293.909V307H579.622V293.909H582.345ZM590.822 302.82V297.182H593.545V307H590.931V305.217H590.829C590.607 305.792 590.238 306.254 589.723 306.604C589.211 306.953 588.587 307.128 587.85 307.128C587.194 307.128 586.616 306.979 586.118 306.68C585.619 306.382 585.229 305.958 584.948 305.408C584.671 304.859 584.53 304.2 584.526 303.433V297.182H587.249V302.947C587.253 303.527 587.409 303.985 587.716 304.322C588.023 304.658 588.434 304.827 588.949 304.827C589.278 304.827 589.584 304.752 589.87 304.603C590.155 304.45 590.385 304.224 590.56 303.925C590.739 303.627 590.827 303.259 590.822 302.82ZM603.892 299.982L601.4 300.135C601.357 299.922 601.265 299.73 601.125 299.56C600.984 299.385 600.799 299.246 600.569 299.144C600.343 299.038 600.072 298.984 599.757 298.984C599.335 298.984 598.979 299.074 598.689 299.253C598.4 299.428 598.255 299.662 598.255 299.956C598.255 300.19 598.348 300.388 598.536 300.55C598.723 300.712 599.045 300.842 599.501 300.94L601.278 301.298C602.233 301.494 602.944 301.81 603.413 302.244C603.882 302.679 604.116 303.25 604.116 303.957C604.116 304.601 603.926 305.165 603.547 305.651C603.172 306.137 602.657 306.516 602 306.789C601.348 307.058 600.596 307.192 599.744 307.192C598.444 307.192 597.409 306.921 596.637 306.38C595.87 305.835 595.421 305.093 595.289 304.156L597.967 304.015C598.048 304.411 598.244 304.714 598.555 304.923C598.866 305.127 599.265 305.229 599.75 305.229C600.228 305.229 600.611 305.138 600.901 304.955C601.195 304.767 601.344 304.526 601.348 304.232C601.344 303.985 601.24 303.783 601.035 303.625C600.831 303.463 600.515 303.339 600.089 303.254L598.389 302.915C597.43 302.724 596.716 302.391 596.248 301.918C595.783 301.445 595.551 300.842 595.551 300.109C595.551 299.479 595.721 298.935 596.062 298.479C596.407 298.023 596.891 297.672 597.513 297.425C598.14 297.178 598.873 297.054 599.712 297.054C600.952 297.054 601.928 297.316 602.64 297.84C603.355 298.364 603.773 299.078 603.892 299.982ZM611.053 297.182V299.227H605.14V297.182H611.053ZM606.483 294.83H609.206V303.983C609.206 304.234 609.244 304.43 609.321 304.571C609.398 304.707 609.504 304.803 609.64 304.859C609.781 304.914 609.943 304.942 610.126 304.942C610.254 304.942 610.382 304.931 610.51 304.91C610.638 304.884 610.736 304.865 610.804 304.852L611.232 306.879C611.096 306.921 610.904 306.97 610.657 307.026C610.41 307.085 610.109 307.121 609.756 307.134C609.099 307.16 608.524 307.072 608.03 306.872C607.54 306.672 607.158 306.361 606.885 305.939C606.613 305.517 606.479 304.984 606.483 304.341V294.83ZM617.196 307.192C616.186 307.192 615.317 306.987 614.588 306.578C613.863 306.165 613.305 305.581 612.913 304.827C612.521 304.068 612.325 303.171 612.325 302.136C612.325 301.126 612.521 300.239 612.913 299.477C613.305 298.714 613.857 298.119 614.569 297.693C615.285 297.267 616.124 297.054 617.087 297.054C617.735 297.054 618.338 297.158 618.896 297.367C619.459 297.572 619.949 297.881 620.366 298.294C620.788 298.707 621.116 299.227 621.351 299.854C621.585 300.476 621.702 301.205 621.702 302.04V302.788H613.412V301.1H619.139C619.139 300.708 619.054 300.361 618.883 300.058C618.713 299.756 618.476 299.519 618.174 299.349C617.876 299.174 617.528 299.087 617.132 299.087C616.719 299.087 616.352 299.183 616.032 299.374C615.717 299.562 615.47 299.815 615.291 300.135C615.112 300.45 615.02 300.802 615.016 301.19V302.794C615.016 303.28 615.106 303.7 615.285 304.053C615.468 304.407 615.726 304.68 616.058 304.871C616.39 305.063 616.785 305.159 617.241 305.159C617.543 305.159 617.82 305.116 618.072 305.031C618.323 304.946 618.538 304.818 618.717 304.648C618.896 304.477 619.032 304.268 619.126 304.021L621.645 304.188C621.517 304.793 621.255 305.321 620.858 305.773C620.466 306.22 619.959 306.57 619.337 306.821C618.719 307.068 618.006 307.192 617.196 307.192ZM623.479 307V297.182H626.119V298.895H626.221C626.4 298.286 626.701 297.825 627.123 297.514C627.545 297.199 628.03 297.041 628.58 297.041C628.716 297.041 628.863 297.05 629.021 297.067C629.179 297.084 629.317 297.107 629.437 297.137V299.553C629.309 299.515 629.132 299.481 628.906 299.451C628.68 299.421 628.474 299.406 628.286 299.406C627.885 299.406 627.528 299.494 627.212 299.668C626.901 299.839 626.654 300.077 626.471 300.384C626.292 300.691 626.202 301.045 626.202 301.445V307H623.479ZM633.663 293.909V307H630.896V293.909H633.663ZM635.941 307V293.909H641.105C642.098 293.909 642.944 294.099 643.643 294.478C644.342 294.853 644.874 295.375 645.241 296.044C645.612 296.709 645.797 297.476 645.797 298.345C645.797 299.214 645.61 299.982 645.235 300.646C644.86 301.311 644.316 301.829 643.605 302.2C642.897 302.57 642.041 302.756 641.035 302.756H637.743V300.538H640.588C641.12 300.538 641.559 300.446 641.904 300.263C642.254 300.075 642.514 299.817 642.684 299.489C642.859 299.157 642.946 298.776 642.946 298.345C642.946 297.911 642.859 297.531 642.684 297.207C642.514 296.879 642.254 296.626 641.904 296.447C641.555 296.263 641.112 296.172 640.575 296.172H638.708V307H635.941Z" fill="#6C6C6C"/>
<rect x="874" y="345" width="202" height="35" rx="10" fill="#CFCFCF"/>
<path d="M1006.69 326.492H1003.89C1003.84 326.13 1003.73 325.808 1003.58 325.527C1003.42 325.241 1003.22 324.999 1002.97 324.798C1002.72 324.598 1002.44 324.445 1002.11 324.338C1001.79 324.232 1001.44 324.178 1001.07 324.178C1000.39 324.178 999.802 324.347 999.299 324.683C998.796 325.016 998.406 325.501 998.129 326.141C997.852 326.776 997.714 327.547 997.714 328.455C997.714 329.388 997.852 330.172 998.129 330.807C998.411 331.442 998.803 331.921 999.305 332.245C999.808 332.569 1000.39 332.731 1001.05 332.731C1001.42 332.731 1001.76 332.682 1002.08 332.584C1002.4 332.486 1002.68 332.343 1002.93 332.156C1003.18 331.964 1003.38 331.732 1003.54 331.459C1003.71 331.186 1003.82 330.875 1003.89 330.526L1006.69 330.538C1006.62 331.139 1006.43 331.719 1006.14 332.277C1005.86 332.831 1005.47 333.327 1004.99 333.766C1004.51 334.201 1003.93 334.546 1003.26 334.802C1002.6 335.053 1001.85 335.179 1001.01 335.179C999.838 335.179 998.794 334.915 997.874 334.386C996.957 333.858 996.233 333.093 995.7 332.092C995.172 331.09 994.908 329.878 994.908 328.455C994.908 327.027 995.176 325.812 995.713 324.811C996.25 323.81 996.979 323.047 997.899 322.523C998.82 321.994 999.855 321.73 1001.01 321.73C1001.76 321.73 1002.47 321.837 1003.12 322.05C1003.77 322.263 1004.34 322.574 1004.85 322.983C1005.35 323.388 1005.76 323.884 1006.07 324.472C1006.39 325.06 1006.6 325.734 1006.69 326.492ZM1011.34 321.909V335H1008.62V321.909H1011.34ZM1019.82 330.82V325.182H1022.55V335H1019.93V333.217H1019.83C1019.61 333.792 1019.24 334.254 1018.72 334.604C1018.21 334.953 1017.59 335.128 1016.85 335.128C1016.19 335.128 1015.62 334.979 1015.12 334.68C1014.62 334.382 1014.23 333.958 1013.95 333.408C1013.67 332.859 1013.53 332.2 1013.53 331.433V325.182H1016.25V330.947C1016.25 331.527 1016.41 331.985 1016.72 332.322C1017.02 332.658 1017.43 332.827 1017.95 332.827C1018.28 332.827 1018.58 332.752 1018.87 332.603C1019.16 332.45 1019.39 332.224 1019.56 331.925C1019.74 331.627 1019.83 331.259 1019.82 330.82ZM1032.89 327.982L1030.4 328.135C1030.36 327.922 1030.27 327.73 1030.12 327.56C1029.98 327.385 1029.8 327.246 1029.57 327.144C1029.34 327.038 1029.07 326.984 1028.76 326.984C1028.33 326.984 1027.98 327.074 1027.69 327.253C1027.4 327.428 1027.25 327.662 1027.25 327.956C1027.25 328.19 1027.35 328.388 1027.54 328.55C1027.72 328.712 1028.05 328.842 1028.5 328.94L1030.28 329.298C1031.23 329.494 1031.94 329.81 1032.41 330.244C1032.88 330.679 1033.12 331.25 1033.12 331.957C1033.12 332.601 1032.93 333.165 1032.55 333.651C1032.17 334.137 1031.66 334.516 1031 334.789C1030.35 335.058 1029.6 335.192 1028.74 335.192C1027.44 335.192 1026.41 334.921 1025.64 334.38C1024.87 333.835 1024.42 333.093 1024.29 332.156L1026.97 332.015C1027.05 332.411 1027.24 332.714 1027.56 332.923C1027.87 333.127 1028.26 333.229 1028.75 333.229C1029.23 333.229 1029.61 333.138 1029.9 332.955C1030.19 332.767 1030.34 332.526 1030.35 332.232C1030.34 331.985 1030.24 331.783 1030.04 331.625C1029.83 331.463 1029.52 331.339 1029.09 331.254L1027.39 330.915C1026.43 330.724 1025.72 330.391 1025.25 329.918C1024.78 329.445 1024.55 328.842 1024.55 328.109C1024.55 327.479 1024.72 326.935 1025.06 326.479C1025.41 326.023 1025.89 325.672 1026.51 325.425C1027.14 325.178 1027.87 325.054 1028.71 325.054C1029.95 325.054 1030.93 325.316 1031.64 325.84C1032.36 326.364 1032.77 327.078 1032.89 327.982ZM1040.05 325.182V327.227H1034.14V325.182H1040.05ZM1035.48 322.83H1038.21V331.983C1038.21 332.234 1038.24 332.43 1038.32 332.571C1038.4 332.707 1038.5 332.803 1038.64 332.859C1038.78 332.914 1038.94 332.942 1039.13 332.942C1039.25 332.942 1039.38 332.931 1039.51 332.91C1039.64 332.884 1039.74 332.865 1039.8 332.852L1040.23 334.879C1040.1 334.921 1039.9 334.97 1039.66 335.026C1039.41 335.085 1039.11 335.121 1038.76 335.134C1038.1 335.16 1037.52 335.072 1037.03 334.872C1036.54 334.672 1036.16 334.361 1035.89 333.939C1035.61 333.517 1035.48 332.984 1035.48 332.341V322.83ZM1046.2 335.192C1045.19 335.192 1044.32 334.987 1043.59 334.578C1042.86 334.165 1042.31 333.581 1041.91 332.827C1041.52 332.068 1041.33 331.171 1041.33 330.136C1041.33 329.126 1041.52 328.239 1041.91 327.477C1042.31 326.714 1042.86 326.119 1043.57 325.693C1044.28 325.267 1045.12 325.054 1046.09 325.054C1046.73 325.054 1047.34 325.158 1047.9 325.367C1048.46 325.572 1048.95 325.881 1049.37 326.294C1049.79 326.707 1050.12 327.227 1050.35 327.854C1050.59 328.476 1050.7 329.205 1050.7 330.04V330.788H1042.41V329.1H1048.14C1048.14 328.708 1048.05 328.361 1047.88 328.058C1047.71 327.756 1047.48 327.519 1047.17 327.349C1046.88 327.174 1046.53 327.087 1046.13 327.087C1045.72 327.087 1045.35 327.183 1045.03 327.374C1044.72 327.562 1044.47 327.815 1044.29 328.135C1044.11 328.45 1044.02 328.802 1044.02 329.19V330.794C1044.02 331.28 1044.11 331.7 1044.28 332.053C1044.47 332.407 1044.73 332.68 1045.06 332.871C1045.39 333.063 1045.78 333.159 1046.24 333.159C1046.54 333.159 1046.82 333.116 1047.07 333.031C1047.32 332.946 1047.54 332.818 1047.72 332.648C1047.9 332.477 1048.03 332.268 1048.13 332.021L1050.64 332.188C1050.52 332.793 1050.25 333.321 1049.86 333.773C1049.47 334.22 1048.96 334.57 1048.34 334.821C1047.72 335.068 1047.01 335.192 1046.2 335.192ZM1052.48 335V325.182H1055.12V326.895H1055.22C1055.4 326.286 1055.7 325.825 1056.12 325.514C1056.54 325.199 1057.03 325.041 1057.58 325.041C1057.72 325.041 1057.86 325.05 1058.02 325.067C1058.18 325.084 1058.32 325.107 1058.44 325.137V327.553C1058.31 327.515 1058.13 327.481 1057.91 327.451C1057.68 327.421 1057.47 327.406 1057.29 327.406C1056.89 327.406 1056.53 327.494 1056.21 327.668C1055.9 327.839 1055.65 328.077 1055.47 328.384C1055.29 328.691 1055.2 329.045 1055.2 329.445V335H1052.48ZM1062.66 321.909V335H1059.9V321.909H1062.66ZM1064.94 335V321.909H1070.11C1071.1 321.909 1071.94 322.099 1072.64 322.478C1073.34 322.853 1073.87 323.375 1074.24 324.044C1074.61 324.709 1074.8 325.476 1074.8 326.345C1074.8 327.214 1074.61 327.982 1074.23 328.646C1073.86 329.311 1073.32 329.829 1072.6 330.2C1071.9 330.57 1071.04 330.756 1070.03 330.756H1066.74V328.538H1069.59C1070.12 328.538 1070.56 328.446 1070.9 328.263C1071.25 328.075 1071.51 327.817 1071.68 327.489C1071.86 327.157 1071.95 326.776 1071.95 326.345C1071.95 325.911 1071.86 325.531 1071.68 325.207C1071.51 324.879 1071.25 324.626 1070.9 324.447C1070.55 324.263 1070.11 324.172 1069.57 324.172H1067.71V335H1064.94Z" fill="#6C6C6C"/>
<rect x="860" y="409" width="216" height="176" rx="10" fill="#51A1FF"/>
<path d="M887.54 517V476.273H903.608C906.697 476.273 909.329 476.863 911.503 478.043C913.677 479.209 915.334 480.833 916.474 482.915C917.628 484.983 918.205 487.369 918.205 490.074C918.205 492.778 917.621 495.165 916.455 497.233C915.288 499.301 913.598 500.912 911.384 502.065C909.183 503.219 906.518 503.795 903.389 503.795H893.148V496.895H901.997C903.654 496.895 905.02 496.61 906.094 496.04C907.181 495.456 907.99 494.654 908.52 493.634C909.063 492.599 909.335 491.413 909.335 490.074C909.335 488.722 909.063 487.542 908.52 486.534C907.99 485.513 907.181 484.724 906.094 484.168C905.007 483.598 903.628 483.312 901.957 483.312H896.151V517H887.54ZM936.947 517.597C933.858 517.597 931.187 516.94 928.933 515.628C926.693 514.302 924.963 512.459 923.743 510.099C922.523 507.726 921.913 504.975 921.913 501.847C921.913 498.691 922.523 495.934 923.743 493.574C924.963 491.201 926.693 489.358 928.933 488.045C931.187 486.72 933.858 486.057 936.947 486.057C940.036 486.057 942.701 486.72 944.942 488.045C947.196 489.358 948.932 491.201 950.152 493.574C951.372 495.934 951.982 498.691 951.982 501.847C951.982 504.975 951.372 507.726 950.152 510.099C948.932 512.459 947.196 514.302 944.942 515.628C942.701 516.94 940.036 517.597 936.947 517.597ZM936.987 511.034C938.393 511.034 939.566 510.636 940.507 509.841C941.448 509.032 942.158 507.932 942.635 506.54C943.125 505.148 943.371 503.563 943.371 501.787C943.371 500.01 943.125 498.426 942.635 497.034C942.158 495.642 941.448 494.542 940.507 493.733C939.566 492.924 938.393 492.52 936.987 492.52C935.569 492.52 934.375 492.924 933.408 493.733C932.453 494.542 931.731 495.642 931.24 497.034C930.763 498.426 930.524 500.01 930.524 501.787C930.524 503.563 930.763 505.148 931.24 506.54C931.731 507.932 932.453 509.032 933.408 509.841C934.375 510.636 935.569 511.034 936.987 511.034ZM968.746 517.497C966.426 517.497 964.324 516.901 962.442 515.707C960.572 514.501 959.088 512.731 957.987 510.398C956.9 508.051 956.357 505.174 956.357 501.767C956.357 498.267 956.92 495.357 958.047 493.037C959.174 490.704 960.672 488.96 962.541 487.807C964.424 486.64 966.485 486.057 968.726 486.057C970.436 486.057 971.861 486.348 973.001 486.932C974.155 487.502 975.083 488.218 975.786 489.08C976.501 489.928 977.045 490.763 977.416 491.585H977.675V476.273H986.126V517H977.774V512.108H977.416C977.018 512.956 976.455 513.798 975.726 514.634C975.01 515.455 974.075 516.138 972.922 516.682C971.782 517.225 970.39 517.497 968.746 517.497ZM971.43 510.756C972.796 510.756 973.949 510.384 974.891 509.642C975.845 508.886 976.574 507.832 977.078 506.48C977.595 505.128 977.854 503.544 977.854 501.727C977.854 499.911 977.602 498.333 977.098 496.994C976.594 495.655 975.865 494.621 974.911 493.892C973.956 493.163 972.796 492.798 971.43 492.798C970.038 492.798 968.865 493.176 967.911 493.932C966.956 494.687 966.233 495.735 965.743 497.074C965.252 498.413 965.007 499.964 965.007 501.727C965.007 503.504 965.252 505.075 965.743 506.44C966.247 507.793 966.969 508.853 967.911 509.622C968.865 510.378 970.038 510.756 971.43 510.756ZM1006.21 517V476.273H1022.52C1025.51 476.273 1028.01 476.717 1030.02 477.605C1032.02 478.493 1033.52 479.726 1034.53 481.304C1035.54 482.868 1036.04 484.671 1036.04 486.713C1036.04 488.304 1035.72 489.703 1035.09 490.909C1034.45 492.102 1033.58 493.083 1032.46 493.852C1031.36 494.608 1030.1 495.145 1028.68 495.463V495.861C1030.23 495.927 1031.69 496.365 1033.04 497.173C1034.4 497.982 1035.51 499.116 1036.36 500.574C1037.21 502.019 1037.63 503.742 1037.63 505.744C1037.63 507.905 1037.1 509.834 1036.02 511.531C1034.96 513.215 1033.39 514.547 1031.31 515.528C1029.23 516.509 1026.66 517 1023.61 517H1006.21ZM1014.82 509.96H1021.84C1024.24 509.96 1025.99 509.503 1027.09 508.588C1028.19 507.66 1028.74 506.427 1028.74 504.889C1028.74 503.762 1028.47 502.768 1027.93 501.906C1027.38 501.045 1026.61 500.368 1025.6 499.878C1024.61 499.387 1023.42 499.142 1022.04 499.142H1014.82V509.96ZM1014.82 493.315H1021.21C1022.39 493.315 1023.43 493.11 1024.35 492.699C1025.28 492.275 1026.01 491.678 1026.54 490.909C1027.08 490.14 1027.35 489.219 1027.35 488.145C1027.35 486.673 1026.83 485.487 1025.78 484.585C1024.75 483.684 1023.27 483.233 1021.37 483.233H1014.82V493.315Z" fill="black"/>
<path d="M964.939 404.061C965.525 404.646 966.475 404.646 967.061 404.061L976.607 394.515C977.192 393.929 977.192 392.979 976.607 392.393C976.021 391.808 975.071 391.808 974.485 392.393L966 400.879L957.515 392.393C956.929 391.808 955.979 391.808 955.393 392.393C954.808 392.979 954.808 393.929 955.393 394.515L964.939 404.061ZM558.5 237C558.5 247.605 565.482 254.853 576.84 259.861C588.17 264.856 604.229 267.818 623.284 269.773C642.371 271.732 664.621 272.694 688.403 273.62C712.201 274.546 737.548 275.436 762.893 277.246C813.624 280.87 864.12 288.172 901.902 306.691C920.77 315.939 936.404 327.955 947.323 343.65C958.233 359.33 964.5 378.775 964.5 403H967.5C967.5 378.225 961.08 358.17 949.786 341.936C938.502 325.717 922.417 313.405 903.223 303.997C864.88 285.203 813.876 277.88 763.107 274.254C737.702 272.439 712.299 271.548 688.519 270.622C664.723 269.696 642.567 268.737 623.591 266.789C604.584 264.838 588.924 261.91 578.05 257.116C567.205 252.334 561.5 245.895 561.5 237H558.5Z" fill="black"/>
<defs>
<clipPath id="clip0_5_1541">
<rect width="129" height="129" fill="white" transform="translate(979 694)"/>
</clipPath>
</defs>
</svg>
