<svg width="1200" height="900" viewBox="0 0 1200 900" fill="none" xmlns="http://www.w3.org/2000/svg">
<rect width="1200" height="900" fill="white"/>
<g clip-path="url(#clip0_5_2436)">
<rect x="73" y="36" width="1055" height="828" rx="15" fill="#FCF6E5"/>
<ellipse cx="109.017" cy="70.5" rx="10.505" ry="10.5" fill="#F92672"/>
<ellipse cx="139.031" cy="70.5" rx="10.505" ry="10.5" fill="#F4BF75"/>
<ellipse cx="169.046" cy="70.5" rx="10.505" ry="10.5" fill="#A6E22E"/>
</g>
<path d="M119.044 178.624V173.58C119.044 170.745 119.909 168.487 121.639 166.806C123.368 165.076 125.626 164.212 128.412 164.212C130.19 164.212 131.679 164.524 132.88 165.148C134.081 165.773 135.09 166.566 135.907 167.527C136.724 168.439 137.444 169.376 138.069 170.337C138.741 171.25 139.438 172.018 140.159 172.643C140.879 173.267 141.72 173.58 142.681 173.58C143.786 173.58 144.626 173.243 145.203 172.571C145.779 171.898 146.068 170.913 146.068 169.616V164.572H152.193V169.616C152.193 172.403 151.328 174.661 149.599 176.39C147.917 178.12 145.659 178.984 142.825 178.984C141.047 178.984 139.558 178.672 138.357 178.048C137.156 177.423 136.147 176.654 135.33 175.742C134.514 174.781 133.769 173.844 133.096 172.931C132.472 171.97 131.799 171.178 131.079 170.553C130.358 169.929 129.517 169.616 128.557 169.616C127.5 169.616 126.659 169.953 126.034 170.625C125.458 171.298 125.17 172.283 125.17 173.58V178.624H119.044Z" fill="#D0021B"/>
<path d="M177.026 207.089V197.649C172.51 197.264 168.955 195.823 166.361 193.325C163.815 190.779 162.494 187.44 162.398 183.308H168.883C168.883 185.662 169.58 187.584 170.973 189.073C172.414 190.562 174.432 191.475 177.026 191.812V172.931L175.081 172.355C171.478 171.25 168.691 169.4 166.721 166.806C164.8 164.212 163.839 161.161 163.839 157.654C163.839 153.811 165.016 150.64 167.37 148.142C169.772 145.644 172.991 144.202 177.026 143.818V134.306H181.35V143.746C185.337 144.13 188.532 145.572 190.934 148.07C193.336 150.568 194.561 153.787 194.61 157.726H188.124C188.124 155.468 187.523 153.643 186.322 152.249C185.169 150.808 183.512 149.919 181.35 149.583V167.454L184.233 168.391C187.74 169.496 190.454 171.37 192.376 174.012C194.297 176.654 195.258 179.753 195.258 183.308C195.258 187.248 193.985 190.514 191.439 193.109C188.941 195.703 185.578 197.216 181.35 197.649V207.089H177.026ZM181.35 191.812C183.704 191.427 185.53 190.514 186.827 189.073C188.124 187.632 188.772 185.758 188.772 183.452C188.772 181.338 188.196 179.513 187.043 177.976C185.938 176.39 184.329 175.261 182.215 174.589L181.35 174.3V191.812ZM177.026 168.968V149.583C174.912 149.919 173.255 150.736 172.054 152.033C170.901 153.33 170.325 155.012 170.325 157.078C170.325 159.576 171.093 161.689 172.631 163.419C174.168 165.1 176.378 166.157 179.26 166.59L177.026 168.968Z" fill="#4A90E2"/>
<path d="M265.823 197.721C262.652 197.721 259.866 197.12 257.464 195.919C255.11 194.718 253.26 192.989 251.915 190.731C250.618 188.425 249.969 185.71 249.969 182.588V171.778C249.969 168.607 250.618 165.893 251.915 163.635C253.26 161.377 255.11 159.648 257.464 158.447C259.866 157.246 262.652 156.645 265.823 156.645C270.387 156.645 274.062 157.87 276.848 160.32C279.683 162.77 281.172 166.109 281.316 170.337H274.831C274.686 167.791 273.822 165.845 272.236 164.5C270.651 163.107 268.513 162.41 265.823 162.41C262.988 162.41 260.706 163.227 258.977 164.86C257.295 166.446 256.455 168.728 256.455 171.706V182.588C256.455 185.566 257.295 187.872 258.977 189.506C260.706 191.139 262.988 191.956 265.823 191.956C268.513 191.956 270.651 191.259 272.236 189.866C273.822 188.473 274.686 186.527 274.831 184.029H281.316C281.172 188.256 279.683 191.595 276.848 194.045C274.062 196.496 270.387 197.721 265.823 197.721ZM304.996 197.721C300.913 197.721 297.67 196.592 295.268 194.334C292.866 192.028 291.665 189.025 291.665 185.326C291.665 182.876 292.217 180.738 293.322 178.912C294.427 177.087 295.965 175.67 297.934 174.661C299.904 173.604 302.162 173.075 304.708 173.075H316.959V169.977C316.959 167.382 316.262 165.461 314.869 164.212C313.476 162.915 311.362 162.266 308.528 162.266C306.029 162.266 304.012 162.722 302.474 163.635C300.937 164.548 300.12 165.821 300.024 167.454H293.539C293.779 164.332 295.22 161.762 297.862 159.744C300.553 157.678 304.108 156.645 308.528 156.645C313.332 156.645 317.007 157.798 319.553 160.104C322.147 162.41 323.444 165.629 323.444 169.76V197H317.031V189.794H315.95L316.959 188.353C316.959 190.274 316.478 191.932 315.518 193.325C314.557 194.718 313.188 195.799 311.41 196.568C309.632 197.336 307.495 197.721 304.996 197.721ZM306.582 192.244C309.753 192.244 312.275 191.475 314.148 189.938C316.022 188.401 316.959 186.311 316.959 183.668V178.12H305.429C303.315 178.12 301.586 178.768 300.24 180.065C298.943 181.314 298.295 182.996 298.295 185.11C298.295 187.32 299.015 189.073 300.457 190.37C301.946 191.619 303.988 192.244 306.582 192.244ZM355.628 197C352.361 197 349.743 196.063 347.773 194.19C345.804 192.268 344.819 189.722 344.819 186.551V163.275H333.433V157.366H344.819V146.196H351.304V157.366H367.518V163.275H351.304V186.551C351.304 187.896 351.689 189.001 352.457 189.866C353.274 190.683 354.331 191.091 355.628 191.091H367.158V197H355.628ZM433.831 197L420.356 157.366H427.346L435.993 184.029C436.522 185.614 436.978 187.151 437.362 188.641C437.747 190.082 438.035 191.211 438.227 192.028C438.467 191.211 438.756 190.082 439.092 188.641C439.428 187.151 439.837 185.614 440.317 184.029L448.964 157.366H455.81L442.335 197H433.831ZM477.833 197.721C473.75 197.721 470.507 196.592 468.105 194.334C465.703 192.028 464.502 189.025 464.502 185.326C464.502 182.876 465.054 180.738 466.159 178.912C467.264 177.087 468.801 175.67 470.771 174.661C472.741 173.604 474.999 173.075 477.545 173.075H489.796V169.977C489.796 167.382 489.099 165.461 487.706 164.212C486.313 162.915 484.199 162.266 481.364 162.266C478.866 162.266 476.848 162.722 475.311 163.635C473.774 164.548 472.957 165.821 472.861 167.454H466.375C466.616 164.332 468.057 161.762 470.699 159.744C473.389 157.678 476.945 156.645 481.364 156.645C486.168 156.645 489.844 157.798 492.39 160.104C494.984 162.41 496.281 165.629 496.281 169.76V197H489.868V189.794H488.787L489.796 188.353C489.796 190.274 489.315 191.932 488.354 193.325C487.394 194.718 486.024 195.799 484.247 196.568C482.469 197.336 480.331 197.721 477.833 197.721ZM479.419 192.244C482.589 192.244 485.112 191.475 486.985 189.938C488.859 188.401 489.796 186.311 489.796 183.668V178.12H478.266C476.152 178.12 474.422 178.768 473.077 180.065C471.78 181.314 471.131 182.996 471.131 185.11C471.131 187.32 471.852 189.073 473.293 190.37C474.783 191.619 476.824 192.244 479.419 192.244ZM530.266 197C527.96 197 525.943 196.544 524.213 195.631C522.484 194.718 521.139 193.421 520.178 191.739C519.217 190.058 518.736 188.088 518.736 185.83V150.304H505.045V144.395H525.222V185.83C525.222 187.464 525.678 188.761 526.591 189.722C527.504 190.635 528.729 191.091 530.266 191.091H542.517V197H530.266ZM567.639 197.721C563.075 197.721 559.423 196.375 556.685 193.685C553.947 190.947 552.578 187.248 552.578 182.588V157.366H559.063V182.588C559.063 185.47 559.832 187.776 561.369 189.506C562.907 191.187 564.996 192.028 567.639 192.028C570.329 192.028 572.443 191.187 573.98 189.506C575.565 187.776 576.358 185.47 576.358 182.588V157.366H582.844V182.588C582.844 187.248 581.451 190.947 578.664 193.685C575.878 196.375 572.203 197.721 567.639 197.721ZM610.92 197.721C607.797 197.721 605.059 197.096 602.705 195.847C600.399 194.55 598.597 192.724 597.3 190.37C596.003 187.968 595.354 185.134 595.354 181.867V172.499C595.354 169.184 596.003 166.35 597.3 163.995C598.597 161.641 600.399 159.84 602.705 158.591C605.059 157.294 607.797 156.645 610.92 156.645C614.043 156.645 616.757 157.27 619.063 158.519C621.417 159.768 623.242 161.521 624.54 163.779C625.837 166.037 626.485 168.704 626.485 171.778V178.84H601.696V182.588C601.696 185.518 602.537 187.848 604.218 189.578C605.9 191.259 608.133 192.1 610.92 192.1C613.322 192.1 615.292 191.643 616.829 190.731C618.414 189.77 619.375 188.497 619.711 186.911H626.197C625.765 190.226 624.155 192.868 621.369 194.838C618.582 196.76 615.099 197.721 610.92 197.721ZM620.144 174.445V171.778C620.144 168.656 619.327 166.253 617.694 164.572C616.108 162.842 613.85 161.978 610.92 161.978C607.989 161.978 605.707 162.842 604.074 164.572C602.489 166.253 601.696 168.656 601.696 171.778V173.796H620.648L620.144 174.445ZM652.544 197.576C649.613 197.576 647.091 197.144 644.977 196.279C642.911 195.367 641.326 194.069 640.221 192.388C639.164 190.659 638.636 188.569 638.636 186.119H645.121C645.121 187.944 645.77 189.385 647.067 190.442C648.364 191.451 650.19 191.956 652.544 191.956H655.714C658.116 191.956 659.966 191.427 661.263 190.37C662.608 189.313 663.281 187.824 663.281 185.902C663.281 184.173 662.897 182.828 662.128 181.867C661.359 180.906 660.182 180.33 658.597 180.137L647.643 178.552C644.953 178.168 642.863 177.063 641.374 175.237C639.885 173.364 639.14 170.913 639.14 167.887C639.14 164.428 640.317 161.714 642.671 159.744C645.073 157.774 648.364 156.789 652.544 156.789H655.714C659.558 156.789 662.68 157.75 665.083 159.672C667.533 161.545 668.854 164.02 669.046 167.094H662.488C662.392 165.701 661.72 164.548 660.471 163.635C659.269 162.722 657.684 162.266 655.714 162.266H652.544C650.334 162.266 648.604 162.77 647.355 163.779C646.106 164.788 645.482 166.157 645.482 167.887C645.482 169.232 645.794 170.313 646.418 171.13C647.091 171.946 648.052 172.451 649.301 172.643L659.534 174.084C662.897 174.565 665.419 175.79 667.1 177.759C668.782 179.729 669.622 182.443 669.622 185.902C669.622 189.602 668.397 192.484 665.947 194.55C663.545 196.568 660.134 197.576 655.714 197.576H652.544ZM697.338 197.721C695.561 197.721 694.119 197.192 693.015 196.135C691.958 195.078 691.429 193.709 691.429 192.028C691.429 190.25 691.958 188.809 693.015 187.704C694.119 186.599 695.561 186.047 697.338 186.047C699.116 186.047 700.533 186.599 701.59 187.704C702.695 188.809 703.247 190.25 703.247 192.028C703.247 193.709 702.695 195.078 701.59 196.135C700.533 197.192 699.116 197.721 697.338 197.721ZM731.756 209.971L737.593 194.55L722.82 157.366H729.81L739.178 181.867C739.563 182.828 739.923 183.837 740.259 184.894C740.595 185.95 740.836 186.863 740.98 187.632C741.124 186.863 741.364 185.95 741.7 184.894C742.037 183.837 742.373 182.828 742.709 181.867L751.429 157.366H758.275L738.53 209.971H731.756ZM780.298 197.721C776.214 197.721 772.971 196.592 770.569 194.334C768.167 192.028 766.966 189.025 766.966 185.326C766.966 182.876 767.519 180.738 768.624 178.912C769.728 177.087 771.266 175.67 773.236 174.661C775.205 173.604 777.463 173.075 780.009 173.075H792.26V169.977C792.26 167.382 791.563 165.461 790.17 164.212C788.777 162.915 786.663 162.266 783.829 162.266C781.331 162.266 779.313 162.722 777.775 163.635C776.238 164.548 775.421 165.821 775.325 167.454H768.84C769.08 164.332 770.521 161.762 773.163 159.744C775.854 157.678 779.409 156.645 783.829 156.645C788.633 156.645 792.308 157.798 794.854 160.104C797.448 162.41 798.746 165.629 798.746 169.76V197H792.332V189.794H791.251L792.26 188.353C792.26 190.274 791.78 191.932 790.819 193.325C789.858 194.718 788.489 195.799 786.711 196.568C784.934 197.336 782.796 197.721 780.298 197.721ZM781.883 192.244C785.054 192.244 787.576 191.475 789.45 189.938C791.323 188.401 792.26 186.311 792.26 183.668V178.12H780.73C778.616 178.12 776.887 178.768 775.542 180.065C774.244 181.314 773.596 182.996 773.596 185.11C773.596 187.32 774.316 189.073 775.758 190.37C777.247 191.619 779.289 192.244 781.883 192.244ZM809.671 197V157.366H815.292V162.626H816.733L815.364 163.851C815.364 161.738 815.964 160.008 817.165 158.663C818.414 157.318 820.048 156.645 822.066 156.645C824.372 156.645 826.197 157.51 827.542 159.239C828.888 160.969 829.56 163.227 829.56 166.013L827.614 162.266H830.641L828.984 163.851C829.032 161.641 829.68 159.888 830.929 158.591C832.178 157.294 833.836 156.645 835.902 156.645C838.448 156.645 840.466 157.606 841.955 159.528C843.492 161.401 844.261 163.851 844.261 166.878V197H838.208V166.806C838.208 165.221 837.823 163.971 837.055 163.059C836.286 162.098 835.229 161.617 833.884 161.617C832.587 161.617 831.554 162.074 830.785 162.987C830.016 163.899 829.632 165.148 829.632 166.734V197H824.3V166.806C824.3 165.221 823.915 163.971 823.147 163.059C822.378 162.098 821.345 161.617 820.048 161.617C818.703 161.617 817.646 162.074 816.877 162.987C816.108 163.899 815.724 165.148 815.724 166.734V197H809.671ZM875.94 197C873.634 197 871.616 196.544 869.887 195.631C868.157 194.718 866.812 193.421 865.851 191.739C864.891 190.058 864.41 188.088 864.41 185.83V150.304H850.718V144.395H870.896V185.83C870.896 187.464 871.352 188.761 872.265 189.722C873.178 190.635 874.403 191.091 875.94 191.091H888.191V197H875.94ZM142.913 387.721C141.135 387.721 139.718 387.192 138.661 386.135C137.556 385.078 137.004 383.709 137.004 382.028C137.004 380.25 137.556 378.809 138.661 377.704C139.718 376.599 141.135 376.047 142.913 376.047C144.69 376.047 146.131 376.599 147.236 377.704C148.293 378.809 148.822 380.25 148.822 382.028C148.822 383.709 148.293 385.078 147.236 386.135C146.131 387.192 144.69 387.721 142.913 387.721ZM178.872 387.721C177.094 387.721 175.677 387.192 174.62 386.135C173.515 385.078 172.963 383.709 172.963 382.028C172.963 380.25 173.515 378.809 174.62 377.704C175.677 376.599 177.094 376.047 178.872 376.047C180.649 376.047 182.091 376.599 183.196 377.704C184.252 378.809 184.781 380.25 184.781 382.028C184.781 383.709 184.252 385.078 183.196 386.135C182.091 387.192 180.649 387.721 178.872 387.721ZM214.831 387.721C213.053 387.721 211.612 387.192 210.507 386.135C209.45 385.078 208.922 383.709 208.922 382.028C208.922 380.25 209.45 378.809 210.507 377.704C211.612 376.599 213.053 376.047 214.831 376.047C216.608 376.047 218.026 376.599 219.083 377.704C220.187 378.809 220.74 380.25 220.74 382.028C220.74 383.709 220.187 385.078 219.083 386.135C218.026 387.192 216.608 387.721 214.831 387.721ZM122.071 482V442.366H128.557V449.932H129.926L128.557 451.662C128.557 448.587 129.493 446.161 131.367 444.384C133.289 442.558 135.931 441.645 139.294 441.645C143.425 441.645 146.596 442.894 148.806 445.392C151.064 447.842 152.193 451.35 152.193 455.913V459.3H145.707V455.913C145.707 452.983 144.987 450.821 143.546 449.428C142.104 447.987 140.014 447.266 137.276 447.266C134.442 447.266 132.28 448.083 130.791 449.716C129.301 451.35 128.557 453.704 128.557 456.778V482H122.071ZM178.828 482.721C175.705 482.721 172.967 482.096 170.613 480.847C168.307 479.55 166.505 477.724 165.208 475.37C163.911 472.968 163.262 470.134 163.262 466.867V457.499C163.262 454.184 163.911 451.35 165.208 448.995C166.505 446.641 168.307 444.84 170.613 443.591C172.967 442.294 175.705 441.645 178.828 441.645C181.951 441.645 184.665 442.27 186.971 443.519C189.325 444.768 191.151 446.521 192.448 448.779C193.745 451.037 194.393 453.704 194.393 456.778V463.84H169.604V467.588C169.604 470.518 170.445 472.848 172.126 474.578C173.808 476.259 176.041 477.1 178.828 477.1C181.23 477.1 183.2 476.643 184.737 475.731C186.322 474.77 187.283 473.497 187.619 471.911H194.105C193.673 475.226 192.063 477.868 189.277 479.838C186.49 481.76 183.007 482.721 178.828 482.721ZM188.052 459.445V456.778C188.052 453.656 187.235 451.253 185.602 449.572C184.016 447.842 181.758 446.978 178.828 446.978C175.897 446.978 173.615 447.842 171.982 449.572C170.397 451.253 169.604 453.656 169.604 456.778V458.796H188.556L188.052 459.445ZM220.452 482.576C217.521 482.576 214.999 482.144 212.885 481.279C210.819 480.367 209.234 479.069 208.129 477.388C207.072 475.659 206.544 473.569 206.544 471.119H213.029C213.029 472.944 213.678 474.385 214.975 475.442C216.272 476.451 218.098 476.956 220.452 476.956H223.622C226.025 476.956 227.874 476.427 229.171 475.37C230.516 474.313 231.189 472.824 231.189 470.902C231.189 469.173 230.805 467.828 230.036 466.867C229.267 465.906 228.09 465.33 226.505 465.137L215.551 463.552C212.861 463.168 210.771 462.063 209.282 460.237C207.793 458.364 207.048 455.913 207.048 452.887C207.048 449.428 208.225 446.714 210.579 444.744C212.981 442.774 216.272 441.789 220.452 441.789H223.622C227.466 441.789 230.588 442.75 232.991 444.672C235.441 446.545 236.762 449.02 236.954 452.094H230.396C230.3 450.701 229.628 449.548 228.379 448.635C227.178 447.722 225.592 447.266 223.622 447.266H220.452C218.242 447.266 216.512 447.77 215.263 448.779C214.014 449.788 213.39 451.157 213.39 452.887C213.39 454.232 213.702 455.313 214.326 456.13C214.999 456.946 215.96 457.451 217.209 457.643L227.442 459.084C230.805 459.565 233.327 460.79 235.008 462.759C236.69 464.729 237.53 467.443 237.53 470.902C237.53 474.602 236.305 477.484 233.855 479.55C231.453 481.568 228.042 482.576 223.622 482.576H220.452ZM265.246 482.576C262.076 482.576 259.313 481.952 256.959 480.703C254.653 479.454 252.852 477.652 251.554 475.298C250.305 472.896 249.681 470.038 249.681 466.723V457.643C249.681 454.28 250.305 451.422 251.554 449.068C252.852 446.714 254.653 444.912 256.959 443.663C259.313 442.414 262.076 441.789 265.246 441.789C268.465 441.789 271.227 442.414 273.533 443.663C275.839 444.912 277.617 446.714 278.866 449.068C280.163 451.422 280.812 454.28 280.812 457.643V466.723C280.812 470.038 280.163 472.896 278.866 475.298C277.617 477.652 275.815 479.454 273.461 480.703C271.155 481.952 268.417 482.576 265.246 482.576ZM265.246 476.812C268.081 476.812 270.291 476.019 271.876 474.433C273.509 472.848 274.326 470.518 274.326 467.443V456.922C274.326 453.848 273.509 451.518 271.876 449.932C270.291 448.347 268.081 447.554 265.246 447.554C262.46 447.554 260.25 448.347 258.617 449.932C256.983 451.518 256.166 453.848 256.166 456.922V467.443C256.166 470.518 256.983 472.848 258.617 474.433C260.25 476.019 262.46 476.812 265.246 476.812ZM308.383 482.721C303.819 482.721 300.168 481.375 297.43 478.685C294.692 475.947 293.322 472.248 293.322 467.588V442.366H299.808V467.588C299.808 470.47 300.577 472.776 302.114 474.506C303.651 476.187 305.741 477.028 308.383 477.028C311.074 477.028 313.188 476.187 314.725 474.506C316.31 472.776 317.103 470.47 317.103 467.588V442.366H323.589V467.588C323.589 472.248 322.195 475.947 319.409 478.685C316.623 481.375 312.947 482.721 308.383 482.721ZM338.117 482V442.366H344.603V449.932H345.972L344.603 451.662C344.603 448.587 345.539 446.161 347.413 444.384C349.335 442.558 351.977 441.645 355.34 441.645C359.471 441.645 362.642 442.894 364.852 445.392C367.11 447.842 368.239 451.35 368.239 455.913V459.3H361.753V455.913C361.753 452.983 361.033 450.821 359.592 449.428C358.15 447.987 356.06 447.266 353.322 447.266C350.488 447.266 348.326 448.083 346.836 449.716C345.347 451.35 344.603 453.704 344.603 456.778V482H338.117ZM395.45 482.721C392.28 482.721 389.493 482.12 387.091 480.919C384.737 479.718 382.888 477.989 381.542 475.731C380.245 473.425 379.597 470.71 379.597 467.588V456.778C379.597 453.607 380.245 450.893 381.542 448.635C382.888 446.377 384.737 444.648 387.091 443.447C389.493 442.246 392.28 441.645 395.45 441.645C400.014 441.645 403.689 442.87 406.476 445.32C409.31 447.77 410.8 451.109 410.944 455.337H404.458C404.314 452.791 403.449 450.845 401.864 449.5C400.279 448.107 398.141 447.41 395.45 447.41C392.616 447.41 390.334 448.227 388.604 449.86C386.923 451.446 386.082 453.728 386.082 456.706V467.588C386.082 470.566 386.923 472.872 388.604 474.506C390.334 476.139 392.616 476.956 395.45 476.956C398.141 476.956 400.279 476.259 401.864 474.866C403.449 473.473 404.314 471.527 404.458 469.029H410.944C410.8 473.256 409.31 476.595 406.476 479.045C403.689 481.496 400.014 482.721 395.45 482.721ZM438.083 482.721C434.96 482.721 432.222 482.096 429.868 480.847C427.562 479.55 425.76 477.724 424.463 475.37C423.166 472.968 422.518 470.134 422.518 466.867V457.499C422.518 454.184 423.166 451.35 424.463 448.995C425.76 446.641 427.562 444.84 429.868 443.591C432.222 442.294 434.96 441.645 438.083 441.645C441.206 441.645 443.92 442.27 446.226 443.519C448.58 444.768 450.406 446.521 451.703 448.779C453 451.037 453.649 453.704 453.649 456.778V463.84H428.859V467.588C428.859 470.518 429.7 472.848 431.381 474.578C433.063 476.259 435.297 477.1 438.083 477.1C440.485 477.1 442.455 476.643 443.992 475.731C445.578 474.77 446.538 473.497 446.875 471.911H453.36C452.928 475.226 451.318 477.868 448.532 479.838C445.746 481.76 442.263 482.721 438.083 482.721ZM447.307 459.445V456.778C447.307 453.656 446.49 451.253 444.857 449.572C443.272 447.842 441.014 446.978 438.083 446.978C435.153 446.978 432.871 447.842 431.237 449.572C429.652 451.253 428.859 453.656 428.859 456.778V458.796H447.811L447.307 459.445ZM479.707 482.576C476.776 482.576 474.254 482.144 472.14 481.279C470.075 480.367 468.489 479.069 467.384 477.388C466.327 475.659 465.799 473.569 465.799 471.119H472.284C472.284 472.944 472.933 474.385 474.23 475.442C475.527 476.451 477.353 476.956 479.707 476.956H482.878C485.28 476.956 487.129 476.427 488.426 475.37C489.772 474.313 490.444 472.824 490.444 470.902C490.444 469.173 490.06 467.828 489.291 466.867C488.523 465.906 487.345 465.33 485.76 465.137L474.807 463.552C472.116 463.168 470.027 462.063 468.537 460.237C467.048 458.364 466.303 455.913 466.303 452.887C466.303 449.428 467.48 446.714 469.834 444.744C472.236 442.774 475.527 441.789 479.707 441.789H482.878C486.721 441.789 489.844 442.75 492.246 444.672C494.696 446.545 496.017 449.02 496.209 452.094H489.651C489.555 450.701 488.883 449.548 487.634 448.635C486.433 447.722 484.847 447.266 482.878 447.266H479.707C477.497 447.266 475.767 447.77 474.518 448.779C473.269 449.788 472.645 451.157 472.645 452.887C472.645 454.232 472.957 455.313 473.582 456.13C474.254 456.946 475.215 457.451 476.464 457.643L486.697 459.084C490.06 459.565 492.582 460.79 494.263 462.759C495.945 464.729 496.786 467.443 496.786 470.902C496.786 474.602 495.561 477.484 493.11 479.55C490.708 481.568 487.297 482.576 482.878 482.576H479.707ZM524.501 452.31C522.532 452.31 521.042 451.83 520.034 450.869C519.025 449.908 518.52 448.611 518.52 446.978C518.52 445.344 519.025 444.047 520.034 443.086C521.042 442.126 522.532 441.645 524.501 441.645C526.471 441.645 527.96 442.126 528.969 443.086C529.978 444.047 530.483 445.344 530.483 446.978C530.483 448.611 529.978 449.908 528.969 450.869C527.96 451.83 526.471 452.31 524.501 452.31ZM524.501 482.721C522.532 482.721 521.042 482.24 520.034 481.279C519.025 480.319 518.52 479.021 518.52 477.388C518.52 475.755 519.025 474.457 520.034 473.497C521.042 472.536 522.532 472.055 524.501 472.055C526.471 472.055 527.96 472.536 528.969 473.497C529.978 474.457 530.483 475.755 530.483 477.388C530.483 479.021 529.978 480.319 528.969 481.279C527.96 482.24 526.471 482.721 524.501 482.721ZM208.489 577V537.366H214.975V544.932H216.344L214.975 546.662C214.975 543.587 215.912 541.161 217.785 539.384C219.707 537.558 222.349 536.645 225.712 536.645C229.844 536.645 233.015 537.894 235.224 540.392C237.482 542.842 238.611 546.35 238.611 550.913V554.3H232.126V550.913C232.126 547.983 231.405 545.821 229.964 544.428C228.523 542.987 226.433 542.266 223.695 542.266C220.86 542.266 218.698 543.083 217.209 544.716C215.72 546.35 214.975 548.704 214.975 551.778V577H208.489ZM265.246 577.721C262.124 577.721 259.385 577.096 257.031 575.847C254.725 574.55 252.924 572.724 251.627 570.37C250.329 567.968 249.681 565.134 249.681 561.867V552.499C249.681 549.184 250.329 546.35 251.627 543.995C252.924 541.641 254.725 539.84 257.031 538.591C259.385 537.294 262.124 536.645 265.246 536.645C268.369 536.645 271.083 537.27 273.389 538.519C275.743 539.768 277.569 541.521 278.866 543.779C280.163 546.037 280.812 548.704 280.812 551.778V558.84H256.022V562.588C256.022 565.518 256.863 567.848 258.544 569.578C260.226 571.259 262.46 572.1 265.246 572.1C267.648 572.1 269.618 571.643 271.155 570.731C272.741 569.77 273.702 568.497 274.038 566.911H280.523C280.091 570.226 278.482 572.868 275.695 574.838C272.909 576.76 269.426 577.721 265.246 577.721ZM274.47 554.445V551.778C274.47 548.656 273.654 546.253 272.02 544.572C270.435 542.842 268.177 541.978 265.246 541.978C262.316 541.978 260.034 542.842 258.4 544.572C256.815 546.253 256.022 548.656 256.022 551.778V553.796H274.975L274.47 554.445ZM316.959 589.971V578.441L317.103 569.433H315.662L316.959 567.92C316.959 570.899 315.974 573.277 314.004 575.054C312.035 576.832 309.416 577.721 306.149 577.721C302.162 577.721 298.991 576.399 296.637 573.757C294.283 571.115 293.106 567.512 293.106 562.948V551.346C293.106 546.782 294.283 543.203 296.637 540.609C299.039 537.966 302.21 536.645 306.149 536.645C309.416 536.645 312.035 537.534 314.004 539.311C315.974 541.041 316.959 543.419 316.959 546.446L315.662 544.932H316.959V537.366H323.444V589.971H316.959ZM308.311 572.1C311.002 572.1 313.115 571.259 314.653 569.578C316.19 567.896 316.959 565.566 316.959 562.588V551.778C316.959 548.8 316.19 546.47 314.653 544.788C313.115 543.107 311.002 542.266 308.311 542.266C305.573 542.266 303.435 542.963 301.898 544.356C300.36 545.749 299.592 547.983 299.592 551.058V563.308C299.592 566.383 300.36 568.617 301.898 570.01C303.435 571.403 305.573 572.1 308.311 572.1ZM351.593 577.721C347.029 577.721 343.378 576.375 340.639 573.685C337.901 570.947 336.532 567.248 336.532 562.588V537.366H343.017V562.588C343.017 565.47 343.786 567.776 345.323 569.506C346.861 571.187 348.95 572.028 351.593 572.028C354.283 572.028 356.397 571.187 357.934 569.506C359.519 567.776 360.312 565.47 360.312 562.588V537.366H366.798V562.588C366.798 567.248 365.405 570.947 362.618 573.685C359.832 576.375 356.157 577.721 351.593 577.721ZM394.874 577.721C391.751 577.721 389.013 577.096 386.659 575.847C384.353 574.55 382.551 572.724 381.254 570.37C379.957 567.968 379.308 565.134 379.308 561.867V552.499C379.308 549.184 379.957 546.35 381.254 543.995C382.551 541.641 384.353 539.84 386.659 538.591C389.013 537.294 391.751 536.645 394.874 536.645C397.997 536.645 400.711 537.27 403.017 538.519C405.371 539.768 407.197 541.521 408.494 543.779C409.791 546.037 410.439 548.704 410.439 551.778V558.84H385.65V562.588C385.65 565.518 386.491 567.848 388.172 569.578C389.854 571.259 392.087 572.1 394.874 572.1C397.276 572.1 399.246 571.643 400.783 570.731C402.368 569.77 403.329 568.497 403.665 566.911H410.151C409.719 570.226 408.109 572.868 405.323 574.838C402.536 576.76 399.053 577.721 394.874 577.721ZM404.098 554.445V551.778C404.098 548.656 403.281 546.253 401.648 544.572C400.062 542.842 397.804 541.978 394.874 541.978C391.943 541.978 389.661 542.842 388.028 544.572C386.443 546.253 385.65 548.656 385.65 551.778V553.796H404.602L404.098 554.445ZM436.498 577.576C433.567 577.576 431.045 577.144 428.931 576.279C426.865 575.367 425.28 574.069 424.175 572.388C423.118 570.659 422.59 568.569 422.59 566.119H429.075C429.075 567.944 429.724 569.385 431.021 570.442C432.318 571.451 434.144 571.956 436.498 571.956H439.668C442.071 571.956 443.92 571.427 445.217 570.37C446.562 569.313 447.235 567.824 447.235 565.902C447.235 564.173 446.851 562.828 446.082 561.867C445.313 560.906 444.136 560.33 442.551 560.137L431.597 558.552C428.907 558.168 426.817 557.063 425.328 555.237C423.839 553.364 423.094 550.913 423.094 547.887C423.094 544.428 424.271 541.714 426.625 539.744C429.027 537.774 432.318 536.789 436.498 536.789H439.668C443.512 536.789 446.634 537.75 449.037 539.672C451.487 541.545 452.808 544.02 453 547.094H446.442C446.346 545.701 445.674 544.548 444.425 543.635C443.224 542.722 441.638 542.266 439.668 542.266H436.498C434.288 542.266 432.558 542.77 431.309 543.779C430.06 544.788 429.436 546.157 429.436 547.887C429.436 549.232 429.748 550.313 430.372 551.13C431.045 551.946 432.006 552.451 433.255 552.643L443.488 554.084C446.851 554.565 449.373 555.79 451.054 557.759C452.736 559.729 453.576 562.443 453.576 565.902C453.576 569.602 452.351 572.484 449.901 574.55C447.499 576.568 444.088 577.576 439.668 577.576H436.498ZM485.256 577C481.989 577 479.371 576.063 477.401 574.19C475.431 572.268 474.446 569.722 474.446 566.551V543.275H463.061V537.366H474.446V526.196H480.932V537.366H497.146V543.275H480.932V566.551C480.932 567.896 481.316 569.001 482.085 569.866C482.902 570.683 483.959 571.091 485.256 571.091H496.786V577H485.256ZM522.916 577.576C519.986 577.576 517.463 577.144 515.35 576.279C513.284 575.367 511.698 574.069 510.593 572.388C509.537 570.659 509.008 568.569 509.008 566.119H515.494C515.494 567.944 516.142 569.385 517.439 570.442C518.736 571.451 520.562 571.956 522.916 571.956H526.087C528.489 571.956 530.338 571.427 531.636 570.37C532.981 569.313 533.653 567.824 533.653 565.902C533.653 564.173 533.269 562.828 532.5 561.867C531.732 560.906 530.555 560.33 528.969 560.137L518.016 558.552C515.326 558.168 513.236 557.063 511.746 555.237C510.257 553.364 509.513 550.913 509.513 547.887C509.513 544.428 510.69 541.714 513.044 539.744C515.446 537.774 518.736 536.789 522.916 536.789H526.087C529.93 536.789 533.053 537.75 535.455 539.672C537.905 541.545 539.226 544.02 539.418 547.094H532.861C532.765 545.701 532.092 544.548 530.843 543.635C529.642 542.722 528.057 542.266 526.087 542.266H522.916C520.706 542.266 518.977 542.77 517.728 543.779C516.479 544.788 515.854 546.157 515.854 547.887C515.854 549.232 516.166 550.313 516.791 551.13C517.463 551.946 518.424 552.451 519.673 552.643L529.906 554.084C533.269 554.565 535.791 555.79 537.473 557.759C539.154 559.729 539.995 562.443 539.995 565.902C539.995 569.602 538.77 572.484 536.32 574.55C533.918 576.568 530.507 577.576 526.087 577.576H522.916ZM567.711 547.31C565.741 547.31 564.252 546.83 563.243 545.869C562.234 544.908 561.729 543.611 561.729 541.978C561.729 540.344 562.234 539.047 563.243 538.086C564.252 537.126 565.741 536.645 567.711 536.645C569.68 536.645 571.17 537.126 572.179 538.086C573.187 539.047 573.692 540.344 573.692 541.978C573.692 543.611 573.187 544.908 572.179 545.869C571.17 546.83 569.68 547.31 567.711 547.31ZM567.711 577.721C565.741 577.721 564.252 577.24 563.243 576.279C562.234 575.319 561.729 574.021 561.729 572.388C561.729 570.755 562.234 569.457 563.243 568.497C564.252 567.536 565.741 567.055 567.711 567.055C569.68 567.055 571.17 567.536 572.179 568.497C573.187 569.457 573.692 570.755 573.692 572.388C573.692 574.021 573.187 575.319 572.179 576.279C571.17 577.24 569.68 577.721 567.711 577.721ZM309.032 672.721C305.861 672.721 303.075 672.12 300.673 670.919C298.319 669.718 296.469 667.989 295.124 665.731C293.827 663.425 293.178 660.71 293.178 657.588V646.778C293.178 643.607 293.827 640.893 295.124 638.635C296.469 636.377 298.319 634.648 300.673 633.447C303.075 632.246 305.861 631.645 309.032 631.645C313.596 631.645 317.271 632.87 320.057 635.32C322.892 637.77 324.381 641.109 324.525 645.337H318.04C317.896 642.791 317.031 640.845 315.446 639.5C313.86 638.107 311.722 637.41 309.032 637.41C306.198 637.41 303.916 638.227 302.186 639.86C300.505 641.446 299.664 643.728 299.664 646.706V657.588C299.664 660.566 300.505 662.872 302.186 664.506C303.916 666.139 306.198 666.956 309.032 666.956C311.722 666.956 313.86 666.259 315.446 664.866C317.031 663.473 317.896 661.527 318.04 659.029H324.525C324.381 663.256 322.892 666.595 320.057 669.045C317.271 671.496 313.596 672.721 309.032 672.721ZM336.676 684.971V632.366H343.161V639.932H344.458L343.161 641.446C343.161 638.419 344.146 636.041 346.116 634.311C348.086 632.534 350.704 631.645 353.971 631.645C356.613 631.645 358.895 632.246 360.817 633.447C362.786 634.6 364.3 636.281 365.356 638.491C366.461 640.701 367.014 643.319 367.014 646.346V657.948C367.014 660.974 366.485 663.593 365.429 665.803C364.372 668.013 362.858 669.718 360.889 670.919C358.967 672.12 356.661 672.721 353.971 672.721C350.752 672.721 348.134 671.832 346.116 670.054C344.146 668.277 343.161 665.899 343.161 662.92L344.458 664.433H343.017L343.161 673.441V684.971H336.676ZM351.809 667.1C354.547 667.1 356.685 666.379 358.222 664.938C359.76 663.497 360.528 661.167 360.528 657.948V646.418C360.528 643.151 359.76 640.821 358.222 639.428C356.685 637.987 354.547 637.266 351.809 637.266C349.167 637.266 347.053 638.107 345.467 639.788C343.93 641.47 343.161 643.8 343.161 646.778V657.588C343.161 660.566 343.93 662.896 345.467 664.578C347.053 666.259 349.167 667.1 351.809 667.1ZM394.802 672.721C390.238 672.721 386.587 671.375 383.848 668.685C381.11 665.947 379.741 662.248 379.741 657.588V632.366H386.226V657.588C386.226 660.47 386.995 662.776 388.532 664.506C390.07 666.187 392.16 667.028 394.802 667.028C397.492 667.028 399.606 666.187 401.143 664.506C402.729 662.776 403.521 660.47 403.521 657.588V632.366H410.007V657.588C410.007 662.248 408.614 665.947 405.827 668.685C403.041 671.375 399.366 672.721 394.802 672.721ZM438.083 642.31C436.113 642.31 434.624 641.83 433.615 640.869C432.606 639.908 432.102 638.611 432.102 636.978C432.102 635.344 432.606 634.047 433.615 633.086C434.624 632.126 436.113 631.645 438.083 631.645C440.053 631.645 441.542 632.126 442.551 633.086C443.56 634.047 444.064 635.344 444.064 636.978C444.064 638.611 443.56 639.908 442.551 640.869C441.542 641.83 440.053 642.31 438.083 642.31ZM438.083 672.721C436.113 672.721 434.624 672.24 433.615 671.279C432.606 670.319 432.102 669.021 432.102 667.388C432.102 665.755 432.606 664.457 433.615 663.497C434.624 662.536 436.113 662.055 438.083 662.055C440.053 662.055 441.542 662.536 442.551 663.497C443.56 664.457 444.064 665.755 444.064 667.388C444.064 669.021 443.56 670.319 442.551 671.279C441.542 672.24 440.053 672.721 438.083 672.721ZM509.368 672V666.091H523.637V625.015L509.368 635.681V628.258L521.259 619.395H530.122V666.091H541.796V672H509.368ZM567.711 672.721C564.492 672.721 561.681 672.096 559.279 670.847C556.925 669.55 555.1 667.748 553.803 665.442C552.506 663.088 551.857 660.35 551.857 657.227V634.167C551.857 630.997 552.506 628.258 553.803 625.952C555.1 623.646 556.925 621.869 559.279 620.62C561.681 619.322 564.492 618.674 567.711 618.674C570.977 618.674 573.788 619.322 576.142 620.62C578.496 621.869 580.322 623.646 581.619 625.952C582.916 628.258 583.564 630.997 583.564 634.167V657.227C583.564 660.35 582.916 663.088 581.619 665.442C580.322 667.748 578.472 669.55 576.07 670.847C573.716 672.096 570.929 672.721 567.711 672.721ZM567.711 667.172C570.593 667.172 572.899 666.259 574.629 664.433C576.406 662.56 577.295 660.158 577.295 657.227V634.167C577.295 631.237 576.406 628.859 574.629 627.033C572.899 625.16 570.593 624.223 567.711 624.223C564.828 624.223 562.498 625.16 560.721 627.033C558.991 628.859 558.126 631.237 558.126 634.167V657.227C558.126 660.158 558.991 662.56 560.721 664.433C562.498 666.259 564.828 667.172 567.711 667.172ZM567.711 649.661C566.414 649.661 565.357 649.3 564.54 648.58C563.771 647.859 563.387 646.826 563.387 645.481C563.387 644.184 563.771 643.199 564.54 642.527C565.357 641.806 566.414 641.446 567.711 641.446C569.008 641.446 570.041 641.806 570.809 642.527C571.626 643.199 572.034 644.184 572.034 645.481C572.034 646.826 571.626 647.859 570.809 648.58C570.041 649.3 569.008 649.661 567.711 649.661ZM610.92 672.721C607.701 672.721 604.891 672.096 602.489 670.847C600.135 669.55 598.309 667.748 597.012 665.442C595.715 663.088 595.066 660.35 595.066 657.227V634.167C595.066 630.997 595.715 628.258 597.012 625.952C598.309 623.646 600.135 621.869 602.489 620.62C604.891 619.322 607.701 618.674 610.92 618.674C614.187 618.674 616.997 619.322 619.351 620.62C621.705 621.869 623.531 623.646 624.828 625.952C626.125 628.258 626.774 630.997 626.774 634.167V657.227C626.774 660.35 626.125 663.088 624.828 665.442C623.531 667.748 621.681 669.55 619.279 670.847C616.925 672.096 614.139 672.721 610.92 672.721ZM610.92 667.172C613.802 667.172 616.108 666.259 617.838 664.433C619.615 662.56 620.504 660.158 620.504 657.227V634.167C620.504 631.237 619.615 628.859 617.838 627.033C616.108 625.16 613.802 624.223 610.92 624.223C608.037 624.223 605.707 625.16 603.93 627.033C602.2 628.859 601.336 631.237 601.336 634.167V657.227C601.336 660.158 602.2 662.56 603.93 664.433C605.707 666.259 608.037 667.172 610.92 667.172ZM610.92 649.661C609.623 649.661 608.566 649.3 607.749 648.58C606.98 647.859 606.596 646.826 606.596 645.481C606.596 644.184 606.98 643.199 607.749 642.527C608.566 641.806 609.623 641.446 610.92 641.446C612.217 641.446 613.25 641.806 614.019 642.527C614.835 643.199 615.244 644.184 615.244 645.481C615.244 646.826 614.835 647.859 614.019 648.58C613.25 649.3 612.217 649.661 610.92 649.661ZM636.834 672V632.366H642.455V637.626H643.896L642.527 638.851C642.527 636.738 643.128 635.008 644.329 633.663C645.578 632.318 647.211 631.645 649.229 631.645C651.535 631.645 653.36 632.51 654.706 634.239C656.051 635.969 656.723 638.227 656.723 641.013L654.778 637.266H657.804L656.147 638.851C656.195 636.641 656.843 634.888 658.092 633.591C659.342 632.294 660.999 631.645 663.065 631.645C665.611 631.645 667.629 632.606 669.118 634.528C670.655 636.401 671.424 638.851 671.424 641.878V672H665.371V641.806C665.371 640.221 664.986 638.971 664.218 638.059C663.449 637.098 662.392 636.617 661.047 636.617C659.75 636.617 658.717 637.074 657.948 637.987C657.18 638.899 656.795 640.148 656.795 641.734V672H651.463V641.806C651.463 640.221 651.078 638.971 650.31 638.059C649.541 637.098 648.508 636.617 647.211 636.617C645.866 636.617 644.809 637.074 644.04 637.987C643.272 638.899 642.887 640.148 642.887 641.734V672H636.834ZM291.161 767V727.366H296.781V732.626H298.223L296.853 733.851C296.853 731.738 297.454 730.008 298.655 728.663C299.904 727.318 301.537 726.645 303.555 726.645C305.861 726.645 307.687 727.51 309.032 729.239C310.377 730.969 311.05 733.227 311.05 736.013L309.104 732.266H312.131L310.473 733.851C310.521 731.641 311.17 729.888 312.419 728.591C313.668 727.294 315.325 726.645 317.391 726.645C319.937 726.645 321.955 727.606 323.444 729.528C324.982 731.401 325.75 733.851 325.75 736.878V767H319.697V736.806C319.697 735.221 319.313 733.971 318.544 733.059C317.776 732.098 316.719 731.617 315.373 731.617C314.076 731.617 313.043 732.074 312.275 732.987C311.506 733.899 311.122 735.148 311.122 736.734V767H305.789V736.806C305.789 735.221 305.405 733.971 304.636 733.059C303.868 732.098 302.835 731.617 301.537 731.617C300.192 731.617 299.135 732.074 298.367 732.987C297.598 733.899 297.214 735.148 297.214 736.734V767H291.161ZM351.665 767.721C348.542 767.721 345.804 767.096 343.45 765.847C341.144 764.55 339.342 762.724 338.045 760.37C336.748 757.968 336.099 755.134 336.099 751.867V742.499C336.099 739.184 336.748 736.35 338.045 733.995C339.342 731.641 341.144 729.84 343.45 728.591C345.804 727.294 348.542 726.645 351.665 726.645C354.787 726.645 357.502 727.27 359.808 728.519C362.162 729.768 363.987 731.521 365.284 733.779C366.582 736.037 367.23 738.704 367.23 741.778V748.84H342.441V752.588C342.441 755.518 343.281 757.848 344.963 759.578C346.644 761.259 348.878 762.1 351.665 762.1C354.067 762.1 356.036 761.643 357.574 760.731C359.159 759.77 360.12 758.497 360.456 756.911H366.942C366.509 760.226 364.9 762.868 362.114 764.838C359.327 766.76 355.844 767.721 351.665 767.721ZM360.889 744.445V741.778C360.889 738.656 360.072 736.253 358.439 734.572C356.853 732.842 354.595 731.978 351.665 731.978C348.734 731.978 346.452 732.842 344.819 734.572C343.233 736.253 342.441 738.656 342.441 741.778V743.796H361.393L360.889 744.445ZM377.579 767V727.366H383.2V732.626H384.641L383.272 733.851C383.272 731.738 383.872 730.008 385.073 728.663C386.322 727.318 387.956 726.645 389.974 726.645C392.28 726.645 394.105 727.51 395.45 729.239C396.796 730.969 397.468 733.227 397.468 736.013L395.522 732.266H398.549L396.892 733.851C396.94 731.641 397.588 729.888 398.837 728.591C400.086 727.294 401.744 726.645 403.81 726.645C406.356 726.645 408.374 727.606 409.863 729.528C411.4 731.401 412.169 733.851 412.169 736.878V767H406.116V736.806C406.116 735.221 405.731 733.971 404.963 733.059C404.194 732.098 403.137 731.617 401.792 731.617C400.495 731.617 399.462 732.074 398.693 732.987C397.924 733.899 397.54 735.148 397.54 736.734V767H392.208V736.806C392.208 735.221 391.823 733.971 391.055 733.059C390.286 732.098 389.253 731.617 387.956 731.617C386.611 731.617 385.554 732.074 384.785 732.987C384.016 733.899 383.632 735.148 383.632 736.734V767H377.579ZM438.083 767.576C434.912 767.576 432.15 766.952 429.796 765.703C427.49 764.454 425.688 762.652 424.391 760.298C423.142 757.896 422.518 755.038 422.518 751.723V742.643C422.518 739.28 423.142 736.422 424.391 734.068C425.688 731.714 427.49 729.912 429.796 728.663C432.15 727.414 434.912 726.789 438.083 726.789C441.302 726.789 444.064 727.414 446.37 728.663C448.676 729.912 450.454 731.714 451.703 734.068C453 736.422 453.649 739.28 453.649 742.643V751.723C453.649 755.038 453 757.896 451.703 760.298C450.454 762.652 448.652 764.454 446.298 765.703C443.992 766.952 441.254 767.576 438.083 767.576ZM438.083 761.812C440.918 761.812 443.127 761.019 444.713 759.433C446.346 757.848 447.163 755.518 447.163 752.443V741.922C447.163 738.848 446.346 736.518 444.713 734.932C443.127 733.347 440.918 732.554 438.083 732.554C435.297 732.554 433.087 733.347 431.453 734.932C429.82 736.518 429.003 738.848 429.003 741.922V752.443C429.003 755.518 429.82 757.848 431.453 759.433C433.087 761.019 435.297 761.812 438.083 761.812ZM467.745 767V727.366H474.23V734.932H475.599L474.23 736.662C474.23 733.587 475.167 731.161 477.041 729.384C478.962 727.558 481.605 726.645 484.967 726.645C489.099 726.645 492.27 727.894 494.48 730.392C496.738 732.842 497.867 736.35 497.867 740.913V744.3H491.381V740.913C491.381 737.983 490.66 735.821 489.219 734.428C487.778 732.987 485.688 732.266 482.95 732.266C480.115 732.266 477.953 733.083 476.464 734.716C474.975 736.35 474.23 738.704 474.23 741.778V767H467.745ZM515.71 779.971L521.547 764.55L506.774 727.366H513.764L523.132 751.867C523.517 752.828 523.877 753.837 524.213 754.894C524.549 755.95 524.79 756.863 524.934 757.632C525.078 756.863 525.318 755.95 525.654 754.894C525.991 753.837 526.327 752.828 526.663 751.867L535.383 727.366H542.229L522.484 779.971H515.71ZM567.711 737.31C565.741 737.31 564.252 736.83 563.243 735.869C562.234 734.908 561.729 733.611 561.729 731.978C561.729 730.344 562.234 729.047 563.243 728.086C564.252 727.126 565.741 726.645 567.711 726.645C569.68 726.645 571.17 727.126 572.179 728.086C573.187 729.047 573.692 730.344 573.692 731.978C573.692 733.611 573.187 734.908 572.179 735.869C571.17 736.83 569.68 737.31 567.711 737.31ZM567.711 767.721C565.741 767.721 564.252 767.24 563.243 766.279C562.234 765.319 561.729 764.021 561.729 762.388C561.729 760.755 562.234 759.457 563.243 758.497C564.252 757.536 565.741 757.055 567.711 757.055C569.68 757.055 571.17 757.536 572.179 758.497C573.187 759.457 573.692 760.755 573.692 762.388C573.692 764.021 573.187 765.319 572.179 766.279C571.17 767.24 569.68 767.721 567.711 767.721ZM646.563 767L659.534 744.445L659.318 744.3C658.981 744.781 658.453 745.213 657.732 745.598C657.06 745.982 656.267 746.294 655.354 746.534C654.441 746.726 653.456 746.823 652.4 746.823C649.373 746.823 646.707 746.15 644.401 744.805C642.143 743.412 640.365 741.514 639.068 739.112C637.771 736.71 637.122 733.923 637.122 730.753C637.122 727.342 637.843 724.363 639.284 721.817C640.725 719.271 642.719 717.277 645.265 715.836C647.812 714.395 650.742 713.674 654.057 713.674C657.468 713.674 660.447 714.395 662.993 715.836C665.539 717.229 667.533 719.199 668.974 721.745C670.415 724.243 671.136 727.15 671.136 730.464C671.136 732.77 670.703 735.148 669.839 737.599C668.974 740.001 667.797 742.523 666.308 745.165L654.129 767H646.563ZM654.129 741.778C657.252 741.778 659.774 740.745 661.696 738.68C663.665 736.614 664.65 733.923 664.65 730.609C664.65 728.399 664.194 726.453 663.281 724.772C662.416 723.09 661.191 721.793 659.606 720.88C658.068 719.919 656.243 719.439 654.129 719.439C652.063 719.439 650.238 719.919 648.652 720.88C647.067 721.793 645.818 723.09 644.905 724.772C644.04 726.453 643.608 728.399 643.608 730.609C643.608 732.818 644.04 734.764 644.905 736.446C645.818 738.127 647.067 739.448 648.652 740.409C650.238 741.322 652.063 741.778 654.129 741.778ZM697.338 767.721C694.119 767.721 691.309 767.096 688.907 765.847C686.553 764.55 684.727 762.748 683.43 760.442C682.133 758.088 681.485 755.35 681.485 752.227V729.167C681.485 725.997 682.133 723.258 683.43 720.952C684.727 718.646 686.553 716.869 688.907 715.62C691.309 714.322 694.119 713.674 697.338 713.674C700.605 713.674 703.416 714.322 705.77 715.62C708.124 716.869 709.949 718.646 711.246 720.952C712.543 723.258 713.192 725.997 713.192 729.167V752.227C713.192 755.35 712.543 758.088 711.246 760.442C709.949 762.748 708.1 764.55 705.698 765.847C703.343 767.096 700.557 767.721 697.338 767.721ZM697.338 762.172C700.221 762.172 702.527 761.259 704.256 759.433C706.034 757.56 706.923 755.158 706.923 752.227V729.167C706.923 726.237 706.034 723.859 704.256 722.033C702.527 720.16 700.221 719.223 697.338 719.223C694.456 719.223 692.126 720.16 690.348 722.033C688.619 723.859 687.754 726.237 687.754 729.167V752.227C687.754 755.158 688.619 757.56 690.348 759.433C692.126 761.259 694.456 762.172 697.338 762.172ZM697.338 744.661C696.041 744.661 694.984 744.3 694.168 743.58C693.399 742.859 693.015 741.826 693.015 740.481C693.015 739.184 693.399 738.199 694.168 737.527C694.984 736.806 696.041 736.446 697.338 736.446C698.635 736.446 699.668 736.806 700.437 737.527C701.254 738.199 701.662 739.184 701.662 740.481C701.662 741.826 701.254 742.859 700.437 743.58C699.668 744.3 698.635 744.661 697.338 744.661ZM724.117 767V714.395H733.702L740.403 737.166L747.393 714.395H756.978V767H750.708V742.139C750.708 739.784 750.732 737.094 750.78 734.068C750.876 730.993 750.996 727.894 751.141 724.772C751.285 721.649 751.453 718.838 751.645 716.34L743.142 743.508H737.521L729.378 716.989C729.666 719.343 729.882 721.865 730.026 724.555C730.17 727.246 730.267 730.056 730.315 732.987C730.363 735.917 730.387 738.968 730.387 742.139V767H724.117ZM768.263 767V761.091H782.315V733.275H769.704V727.366H788.801V761.091H802.132V767H768.263ZM784.838 720.232C783.252 720.232 782.003 719.823 781.09 719.007C780.178 718.19 779.721 717.085 779.721 715.692C779.721 714.25 780.178 713.121 781.09 712.305C782.003 711.44 783.252 711.008 784.838 711.008C786.423 711.008 787.672 711.44 788.585 712.305C789.498 713.121 789.954 714.25 789.954 715.692C789.954 717.085 789.498 718.19 788.585 719.007C787.672 719.823 786.423 720.232 784.838 720.232Z" fill="black"/>
<path d="M693.196 411.884C693.222 409.938 693.204 407.886 693.143 405.729C693.112 403.572 693.066 401.4 693.006 399.213C692.975 396.996 692.989 394.825 693.048 392.699C693.106 390.573 693.268 388.584 693.532 386.73C693.592 386.701 693.727 386.688 693.937 386.691C694.177 386.664 694.342 386.651 694.431 386.653C694.851 386.658 695.179 386.737 695.417 386.89C695.685 387.014 695.816 387.3 695.81 387.749C695.786 389.516 695.745 391.447 695.687 393.543C695.66 395.609 695.616 397.72 695.558 399.876C695.529 402.002 695.501 404.113 695.473 406.209C695.445 408.305 695.449 410.207 695.487 411.915C695.51 412.424 695.4 412.752 695.159 412.899C694.947 413.076 694.676 413.162 694.347 413.158C693.987 413.153 693.689 413.059 693.452 412.876C693.214 412.723 693.129 412.393 693.196 411.884ZM692.637 379.71C692.642 379.351 692.765 379.113 693.006 378.996C693.248 378.88 693.518 378.823 693.817 378.827C694.416 378.835 694.788 379.035 694.932 379.426C695.077 379.817 695.146 380.268 695.139 380.777C694.955 381.104 694.727 381.34 694.456 381.486C694.185 381.603 693.9 381.629 693.601 381.565C693.333 381.471 693.096 381.274 692.89 380.971C692.714 380.669 692.63 380.249 692.637 379.71ZM700.468 412.296C700.193 408.249 699.947 404.202 699.732 400.156C699.547 396.08 699.334 391.855 699.093 387.479C699.102 386.76 699.496 386.406 700.275 386.416L700.634 386.421C700.724 386.422 700.827 386.543 700.944 386.785C701.061 387.026 701.174 387.476 701.285 388.137C701.427 388.768 701.563 389.743 701.695 391.063C701.858 392.353 702.045 394.047 702.256 396.147C702.468 398.246 702.702 400.87 702.96 404.018C703.616 401.99 704.136 400.02 704.521 398.109C704.906 396.197 705.394 394.466 705.984 392.917C706.574 391.337 707.386 389.956 708.42 388.771C709.484 387.588 710.993 386.724 712.947 386.181C714.023 386.375 714.882 387.046 715.526 388.192C716.17 389.309 716.676 390.694 717.043 392.346C717.41 393.998 717.656 395.798 717.779 397.747C717.904 399.665 717.969 401.508 717.975 403.275C717.981 405.043 717.975 406.63 717.956 408.037C717.938 409.415 717.955 410.403 718.007 411.003C717.914 411.241 717.776 411.449 717.594 411.626C717.412 411.804 717.2 411.936 716.96 412.022C716.749 412.079 716.539 412.092 716.33 412.059C716.121 411.996 715.929 411.829 715.753 411.557C715.757 411.228 715.736 410.553 715.69 409.534C715.644 408.515 715.585 407.332 715.513 405.983C715.441 404.604 715.356 403.15 715.257 401.622C715.188 400.063 715.117 398.61 715.045 397.261C715.004 395.883 714.96 394.684 714.914 393.665C714.868 392.646 714.832 391.972 714.806 391.642C714.192 390.526 713.572 389.888 712.945 389.73C712.348 389.573 711.731 389.759 711.095 390.29C710.489 390.821 709.894 391.636 709.31 392.737C708.727 393.837 708.171 395.088 707.643 396.488C707.116 397.859 706.617 399.305 706.147 400.826C705.678 402.347 705.269 403.824 704.92 405.257C704.572 406.66 704.27 407.944 704.015 409.109C703.79 410.244 703.644 411.126 703.575 411.754C703.483 411.962 703.285 412.169 702.983 412.375C702.711 412.551 702.41 412.681 702.079 412.767C701.779 412.853 701.464 412.878 701.135 412.844C700.836 412.78 700.614 412.598 700.468 412.296ZM723.673 430.756C726.31 430.642 728.385 429.981 729.899 428.773C731.443 427.566 732.602 425.994 733.376 424.057C734.151 422.121 734.63 419.896 734.813 417.383C734.996 414.899 735.046 412.324 734.962 409.657C734.877 406.991 734.733 404.323 734.529 401.655C734.356 398.957 734.299 396.455 734.36 394.15C733.022 397.906 731.769 400.944 730.599 403.264C729.431 405.555 728.344 407.293 727.34 408.477C726.366 409.632 725.473 410.339 724.661 410.598C723.879 410.827 723.191 410.773 722.597 410.435C722.002 410.068 721.516 409.507 721.137 408.754C720.788 407.97 720.544 407.173 720.405 406.363C720.483 404.986 720.773 403.477 721.274 401.837C721.805 400.167 722.471 398.543 723.271 396.967C724.101 395.36 725.049 393.876 726.116 392.512C727.183 391.119 728.305 390.04 729.484 389.278C730.662 388.485 731.881 388.082 733.139 388.068C734.397 388.025 735.604 388.521 736.758 389.554C736.787 389.585 736.827 389.99 736.876 390.769C736.956 391.519 737.033 392.523 737.106 393.782C737.209 395.012 737.31 396.406 737.409 397.964C737.538 399.494 737.652 401.052 737.751 402.641C737.85 404.2 737.935 405.699 738.005 407.137C738.076 408.576 738.149 409.82 738.225 410.869C738.322 412.577 738.223 414.388 737.928 416.301C737.663 418.214 737.248 420.066 736.685 421.855C736.122 423.675 735.41 425.372 734.551 426.948C733.721 428.525 732.76 429.815 731.669 430.818C730.607 431.822 729.416 432.45 728.094 432.702C726.803 432.985 725.428 432.742 723.971 431.973C723.881 431.972 723.747 431.955 723.567 431.923C723.388 431.921 723.238 431.874 723.12 431.782C723.031 431.691 723.018 431.571 723.08 431.422C723.142 431.273 723.339 431.051 723.673 430.756ZM722.745 406.08C723.032 407.012 723.415 407.496 723.893 407.533C724.402 407.539 724.946 407.232 725.523 406.611C726.101 405.96 726.727 405.055 727.401 403.896C728.106 402.737 728.796 401.473 729.474 400.105C730.151 398.736 730.813 397.337 731.461 395.908C732.14 394.45 732.772 393.095 733.358 391.845C733.362 391.516 733.291 391.215 733.145 390.944C732.999 390.642 732.671 390.548 732.161 390.661C731.32 390.83 730.491 391.223 729.674 391.841C728.887 392.459 728.143 393.228 727.442 394.147C726.771 395.037 726.144 396.032 725.56 397.132C725.006 398.203 724.513 399.289 724.079 400.392C723.675 401.465 723.347 402.494 723.094 403.479C722.871 404.464 722.755 405.331 722.745 406.08ZM741.221 391.771L741.226 391.411C741.23 391.112 741.337 390.904 741.548 390.787C741.79 390.67 742.06 390.614 742.359 390.618C742.599 390.621 742.823 390.654 743.032 390.717C743.241 390.749 743.404 390.916 743.519 391.217C743.603 391.668 743.685 392.298 743.764 393.107C743.843 393.887 743.936 394.757 744.043 395.717C744.15 396.677 744.256 397.696 744.362 398.776C744.498 399.826 744.619 400.831 744.726 401.791C744.863 402.721 745.002 403.562 745.141 404.312C745.281 405.063 745.438 405.634 745.613 406.026C745.561 403.15 745.684 400.666 745.982 398.573C746.28 396.451 746.812 394.736 747.578 393.428C748.375 392.091 749.435 391.177 750.76 390.685C752.114 390.164 753.793 390.067 755.795 390.393C756.723 390.405 757.181 390.906 757.168 391.894C757.163 392.283 756.904 392.549 756.393 392.692C755.883 392.805 755.313 392.887 754.683 392.939C754.054 392.96 753.439 392.997 752.839 393.049C752.24 393.101 751.804 393.245 751.531 393.481C750.445 394.065 749.669 394.983 749.203 396.235C748.767 397.487 748.448 398.965 748.245 400.67C748.043 402.374 747.883 404.244 747.766 406.279C747.679 408.285 747.457 410.348 747.099 412.47C747.095 412.77 746.972 412.993 746.731 413.139C746.489 413.286 746.189 413.356 745.829 413.352C745.5 413.347 745.171 413.268 744.844 413.114C744.547 412.96 744.31 412.732 744.134 412.431L741.221 391.771ZM760.6 403.98C760.45 404.008 760.225 404.05 759.925 404.106C759.625 404.162 759.31 404.172 758.981 404.138C758.652 404.104 758.369 404.01 758.131 403.857C757.864 403.704 757.732 403.447 757.737 403.088C757.74 402.878 757.787 402.729 757.878 402.641C757.969 402.552 758.12 402.419 758.332 402.242C758.998 401.712 759.562 401.031 760.022 400.198C760.513 399.336 760.959 398.429 761.361 397.476C761.764 396.493 762.181 395.525 762.613 394.572C763.075 393.59 763.596 392.714 764.176 391.943C764.755 391.172 765.467 390.552 766.312 390.084C767.157 389.616 768.193 389.406 769.42 389.452C769.929 389.459 770.497 389.586 771.122 389.834C771.748 390.082 772.328 390.419 772.861 390.846C773.395 391.242 773.838 391.727 774.189 392.301C774.541 392.875 774.712 393.506 774.703 394.195C774.85 394.436 774.695 394.779 774.24 395.222C773.815 395.666 773.224 396.152 772.468 396.681C771.713 397.18 770.852 397.708 769.887 398.264C768.951 398.79 768.046 399.287 767.171 399.755C766.296 400.222 765.527 400.631 764.863 400.982C764.2 401.332 763.762 401.596 763.55 401.773C763.396 402.07 763.272 402.413 763.177 402.801C763.082 403.189 763.002 403.563 762.937 403.921C762.903 404.25 762.869 404.564 762.835 404.863C762.831 405.133 762.828 405.342 762.826 405.492C762.819 406.061 762.78 406.69 762.711 407.378C762.672 408.066 762.693 408.725 762.775 409.355C762.887 409.956 763.134 410.468 763.518 410.893C763.902 411.287 764.558 411.491 765.487 411.503C766.475 411.516 767.406 411.289 768.281 410.821C769.156 410.324 769.973 409.721 770.731 409.012C771.489 408.304 772.174 407.534 772.784 406.704C773.424 405.873 773.988 405.102 774.477 404.39C774.996 403.648 775.453 403.04 775.849 402.566C776.245 402.092 776.577 401.857 776.847 401.861C777.146 401.865 777.46 401.929 777.788 402.053C778.146 402.148 778.322 402.39 778.317 402.779C778.31 403.318 778.077 403.959 777.618 404.702C777.188 405.445 776.609 406.231 775.879 407.059C775.179 407.889 774.359 408.716 773.42 409.542C772.511 410.339 771.587 411.06 770.65 411.707C769.714 412.323 768.793 412.835 767.889 413.242C766.986 413.62 766.19 413.804 765.501 413.794C764.153 413.776 763.14 413.433 762.46 412.765C761.78 412.097 761.297 411.267 761.01 410.275C760.754 409.283 760.618 408.233 760.603 407.125C760.618 405.987 760.617 404.939 760.6 403.98ZM769.027 391.963C768.518 391.956 767.976 392.203 767.4 392.705C766.825 393.176 766.278 393.768 765.759 394.48C765.271 395.162 764.857 395.875 764.517 396.619C764.208 397.334 764.051 397.931 764.044 398.41C764.493 398.416 765.139 398.26 765.982 397.942C766.856 397.594 767.715 397.171 768.56 396.674C769.405 396.176 770.146 395.646 770.783 395.086C771.419 394.525 771.741 393.991 771.748 393.481C771.751 393.212 771.649 392.986 771.442 392.804C771.235 392.621 770.982 392.468 770.684 392.344C770.417 392.221 770.133 392.127 769.835 392.063C769.536 391.999 769.267 391.966 769.027 391.963ZM783.972 413.322C783.971 413.352 784.288 413.177 784.922 412.796C785.586 412.416 786.357 411.917 787.233 411.299C788.141 410.653 789.063 409.961 790.002 409.225C790.94 408.459 791.714 407.735 792.322 407.055C792.93 406.374 793.252 405.794 793.289 405.315C793.355 404.807 792.955 404.472 792.089 404.311C791.013 404.147 790.099 404.15 789.348 404.319C788.627 404.489 787.966 404.69 787.364 404.922C786.761 405.153 786.19 405.37 785.648 405.573C785.136 405.775 784.566 405.843 783.938 405.774C782.62 405.757 781.712 405.34 781.214 404.525C780.746 403.68 780.522 402.554 780.54 401.147C780.559 399.739 780.891 398.411 781.537 397.161C782.183 395.882 783.006 394.785 784.007 393.87C785.008 392.955 786.155 392.236 787.45 391.715C788.746 391.163 790.067 390.896 791.414 390.914C791.953 390.921 792.417 390.972 792.805 391.067C793.193 391.162 793.383 391.509 793.375 392.108C793.37 392.528 793.185 392.929 792.82 393.314C792.456 393.668 792.049 393.843 791.6 393.837C791.57 393.836 791.495 393.82 791.376 393.789C791.257 393.727 791.138 393.651 791.02 393.559C790.901 393.468 790.782 393.406 790.663 393.375C790.544 393.313 790.469 393.282 790.439 393.282C789.485 393 788.555 393.122 787.649 393.649C786.743 394.176 785.925 394.899 785.194 395.818C784.493 396.707 783.926 397.688 783.492 398.76C783.059 399.803 782.837 400.743 782.826 401.581C782.821 401.911 782.878 402.181 782.995 402.392C783.142 402.574 783.32 402.711 783.528 402.804C783.767 402.897 784.02 402.96 784.289 402.994C784.589 402.998 784.888 403.002 785.188 403.006C785.787 403.014 786.387 402.932 786.988 402.76C787.619 402.589 788.221 402.387 788.793 402.155C789.395 401.924 789.997 401.722 790.598 401.551C791.23 401.379 791.875 401.298 792.533 401.307C792.833 401.311 793.161 401.405 793.518 401.59C793.875 401.744 794.202 401.988 794.497 402.321C794.792 402.625 795.042 402.988 795.246 403.41C795.45 403.802 795.564 404.238 795.588 404.717C795.762 405.139 795.695 405.692 795.386 406.377C795.107 407.062 794.678 407.79 794.099 408.561C793.519 409.332 792.82 410.116 792.001 410.914C791.182 411.682 790.364 412.39 789.546 413.038C788.729 413.656 787.929 414.154 787.145 414.533C786.361 414.942 785.7 415.128 785.161 415.09C784.562 415.082 784.205 414.898 784.09 414.537C784.005 414.176 783.966 413.772 783.972 413.322ZM800.816 413.548C800.815 413.578 801.132 413.402 801.766 413.021C802.43 412.641 803.201 412.142 804.078 411.525C804.985 410.878 805.907 410.186 806.846 409.45C807.785 408.684 808.558 407.96 809.166 407.28C809.774 406.599 810.096 406.019 810.133 405.541C810.199 405.032 809.8 404.697 808.933 404.536C807.857 404.372 806.944 404.375 806.193 404.544C805.471 404.714 804.81 404.915 804.208 405.147C803.606 405.378 803.034 405.595 802.492 405.798C801.98 406.001 801.41 406.068 800.782 406C799.464 405.982 798.556 405.565 798.058 404.75C797.59 403.905 797.366 402.779 797.385 401.372C797.403 399.964 797.736 398.636 798.381 397.387C799.027 396.107 799.851 395.01 800.851 394.095C801.852 393.18 803 392.462 804.294 391.94C805.59 391.388 806.911 391.121 808.259 391.139C808.798 391.146 809.261 391.198 809.649 391.293C810.037 391.388 810.227 391.735 810.219 392.333C810.214 392.753 810.029 393.155 809.664 393.539C809.3 393.894 808.893 394.068 808.444 394.062C808.414 394.061 808.34 394.045 808.22 394.014C808.101 393.952 807.982 393.876 807.864 393.785C807.745 393.693 807.626 393.632 807.507 393.6C807.388 393.539 807.313 393.508 807.284 393.507C806.329 393.225 805.399 393.347 804.493 393.874C803.588 394.401 802.769 395.124 802.038 396.043C801.337 396.932 800.77 397.913 800.337 398.985C799.903 400.028 799.681 400.968 799.67 401.807C799.666 402.136 799.722 402.406 799.839 402.618C799.986 402.799 800.164 402.936 800.372 403.029C800.611 403.122 800.865 403.185 801.134 403.219C801.433 403.223 801.733 403.227 802.032 403.231C802.631 403.239 803.231 403.157 803.832 402.985C804.464 402.814 805.065 402.613 805.637 402.381C806.24 402.149 806.841 401.947 807.443 401.776C808.074 401.604 808.719 401.523 809.378 401.532C809.677 401.536 810.005 401.63 810.362 401.815C810.72 401.969 811.046 402.213 811.341 402.547C811.636 402.85 811.886 403.213 812.09 403.635C812.294 404.027 812.408 404.463 812.432 404.942C812.606 405.364 812.539 405.917 812.23 406.602C811.951 407.287 811.522 408.015 810.943 408.786C810.364 409.557 809.664 410.341 808.845 411.139C808.026 411.907 807.208 412.615 806.391 413.263C805.574 413.881 804.773 414.379 803.989 414.758C803.205 415.167 802.544 415.353 802.005 415.316C801.406 415.308 801.049 415.123 800.934 414.762C800.849 414.402 800.81 413.997 800.816 413.548ZM813.641 405.228C813.643 405.108 813.72 404.9 813.874 404.602C814.028 404.305 814.15 404.127 814.241 404.068C815.559 403.996 816.881 403.729 818.205 403.267C819.559 402.806 820.898 402.315 822.223 401.794C823.548 401.242 824.843 400.75 826.106 400.318C827.4 399.856 828.646 399.633 829.844 399.649C829.994 399.651 830.113 399.728 830.2 399.879C830.288 400.029 830.346 400.21 830.373 400.42C830.43 400.6 830.458 400.781 830.456 400.96L830.451 401.275C830.45 401.394 830.433 401.544 830.4 401.723C830.368 401.873 830.352 401.962 830.352 401.992L817.048 405.813C816.987 405.842 816.792 405.869 816.463 405.895C816.163 405.891 815.924 405.887 815.744 405.885L815.384 405.925C815.174 405.922 814.935 405.904 814.666 405.871C814.397 405.837 814.158 405.774 813.95 405.681C813.741 405.589 813.638 405.438 813.641 405.228ZM834.368 414.086C834.093 410.039 833.848 405.992 833.632 401.946C833.447 397.87 833.234 393.644 832.993 389.268C833.002 388.55 833.397 388.196 834.175 388.206L834.535 388.211C834.624 388.212 834.728 388.333 834.844 388.574C834.961 388.816 835.074 389.266 835.185 389.927C835.327 390.558 835.463 391.533 835.596 392.852C835.758 394.142 835.945 395.837 836.157 397.937C836.368 400.036 836.603 402.66 836.86 405.808C837.516 403.78 838.037 401.81 838.422 399.899C838.807 397.987 839.294 396.256 839.884 394.707C840.474 393.127 841.286 391.745 842.32 390.561C843.384 389.377 844.893 388.514 846.847 387.971C847.923 388.165 848.783 388.836 849.426 389.982C850.07 391.099 850.576 392.484 850.943 394.136C851.31 395.788 851.556 397.588 851.68 399.537C851.804 401.455 851.869 403.298 851.875 405.065C851.882 406.832 851.875 408.42 851.857 409.827C851.838 411.205 851.855 412.193 851.907 412.793C851.814 413.031 851.676 413.239 851.494 413.416C851.312 413.594 851.101 413.726 850.86 413.812C850.649 413.869 850.44 413.881 850.23 413.849C850.022 413.786 849.829 413.619 849.653 413.347C849.657 413.017 849.636 412.343 849.59 411.324C849.544 410.305 849.485 409.122 849.413 407.773C849.342 406.394 849.256 404.94 849.157 403.412C849.088 401.853 849.017 400.4 848.946 399.051C848.904 397.673 848.86 396.474 848.814 395.455C848.768 394.436 848.732 393.762 848.706 393.432C848.092 392.316 847.472 391.678 846.845 391.52C846.248 391.362 845.632 391.549 844.995 392.08C844.389 392.611 843.794 393.426 843.211 394.527C842.627 395.627 842.071 396.877 841.543 398.278C841.016 399.649 840.517 401.095 840.048 402.616C839.578 404.137 839.169 405.614 838.82 407.047C838.472 408.45 838.17 409.734 837.915 410.899C837.69 412.034 837.544 412.915 837.475 413.543C837.383 413.752 837.185 413.959 836.883 414.164C836.611 414.341 836.31 414.471 835.979 414.557C835.679 414.643 835.364 414.668 835.035 414.634C834.736 414.57 834.514 414.387 834.368 414.086ZM857.573 432.546C860.21 432.432 862.285 431.771 863.799 430.563C865.343 429.355 866.502 427.784 867.277 425.847C868.051 423.911 868.53 421.686 868.714 419.172C868.897 416.689 868.946 414.114 868.862 411.447C868.778 408.78 868.634 406.113 868.43 403.445C868.256 400.747 868.2 398.245 868.26 395.94C866.922 399.696 865.669 402.734 864.5 405.054C863.331 407.345 862.244 409.082 861.24 410.267C860.266 411.422 859.373 412.129 858.561 412.388C857.779 412.617 857.091 412.563 856.497 412.225C855.903 411.858 855.416 411.297 855.037 410.544C854.688 409.76 854.444 408.963 854.305 408.153C854.383 406.776 854.673 405.267 855.174 403.627C855.706 401.957 856.371 400.333 857.171 398.757C858.001 397.15 858.949 395.665 860.016 394.302C861.083 392.909 862.205 391.83 863.384 391.067C864.562 390.274 865.781 389.871 867.039 389.858C868.297 389.815 869.504 390.311 870.658 391.344C870.688 391.375 870.727 391.78 870.776 392.559C870.856 393.309 870.933 394.313 871.006 395.572C871.109 396.801 871.21 398.195 871.309 399.754C871.439 401.283 871.553 402.842 871.651 404.431C871.75 405.99 871.835 407.488 871.905 408.927C871.976 410.366 872.049 411.61 872.125 412.659C872.222 414.367 872.123 416.178 871.828 418.091C871.563 420.004 871.149 421.856 870.586 423.645C870.022 425.465 869.311 427.162 868.451 428.738C867.621 430.314 866.66 431.604 865.569 432.608C864.507 433.612 863.316 434.24 861.995 434.492C860.703 434.774 859.328 434.531 857.871 433.763C857.781 433.762 857.647 433.745 857.467 433.713C857.288 433.71 857.139 433.664 857.02 433.572C856.931 433.481 856.918 433.361 856.98 433.212C857.042 433.063 857.239 432.841 857.573 432.546ZM856.645 407.869C856.932 408.802 857.315 409.286 857.793 409.322C858.303 409.329 858.846 409.022 859.423 408.401C860.001 407.75 860.627 406.844 861.301 405.685C862.006 404.527 862.697 403.263 863.374 401.894C864.051 400.526 864.714 399.127 865.362 397.698C866.04 396.239 866.672 394.885 867.258 393.635C867.262 393.306 867.191 393.005 867.045 392.734C866.9 392.432 866.571 392.338 866.061 392.451C865.22 392.619 864.391 393.013 863.574 393.631C862.787 394.249 862.043 395.018 861.342 395.937C860.671 396.827 860.044 397.822 859.46 398.922C858.907 399.993 858.413 401.079 857.979 402.182C857.575 403.255 857.247 404.283 856.994 405.268C856.771 406.254 856.655 407.121 856.645 407.869ZM875.562 414.322C875.588 412.376 875.571 410.324 875.51 408.167C875.479 406.01 875.433 403.838 875.372 401.65C875.342 399.434 875.356 397.262 875.414 395.137C875.473 393.011 875.634 391.022 875.898 389.168C875.959 389.139 876.094 389.126 876.303 389.129C876.543 389.102 876.708 389.089 876.798 389.09C877.217 389.096 877.546 389.175 877.783 389.328C878.051 389.451 878.182 389.738 878.176 390.187C878.152 391.954 878.112 393.885 878.054 395.981C878.026 398.047 877.983 400.158 877.924 402.314C877.896 404.44 877.867 406.551 877.839 408.647C877.811 410.743 877.816 412.645 877.853 414.353C877.876 414.862 877.767 415.19 877.525 415.337C877.313 415.514 877.043 415.6 876.713 415.595C876.354 415.591 876.056 415.497 875.819 415.314C875.581 415.161 875.496 414.83 875.562 414.322ZM875.004 382.148C875.009 381.788 875.132 381.55 875.373 381.434C875.614 381.317 875.884 381.261 876.184 381.265C876.783 381.273 877.154 381.473 877.299 381.864C877.443 382.255 877.512 382.705 877.506 383.214C877.321 383.541 877.094 383.778 876.822 383.924C876.551 384.04 876.266 384.066 875.967 384.003C875.699 383.909 875.462 383.711 875.257 383.409C875.081 383.107 874.997 382.687 875.004 382.148ZM882.835 414.734C882.559 410.687 882.314 406.64 882.098 402.594C881.913 398.518 881.7 394.292 881.459 389.916C881.469 389.198 881.863 388.843 882.642 388.854L883.001 388.859C883.091 388.86 883.194 388.981 883.31 389.222C883.427 389.463 883.541 389.914 883.652 390.575C883.793 391.205 883.93 392.181 884.062 393.5C884.224 394.79 884.411 396.485 884.623 398.584C884.835 400.684 885.069 403.308 885.326 406.456C885.982 404.428 886.503 402.458 886.888 400.546C887.273 398.635 887.76 396.904 888.35 395.355C888.94 393.775 889.752 392.393 890.787 391.209C891.851 390.025 893.36 389.162 895.314 388.619C896.389 388.813 897.249 389.483 897.893 390.63C898.537 391.747 899.042 393.131 899.409 394.784C899.777 396.436 900.022 398.236 900.146 400.185C900.27 402.103 900.335 403.946 900.342 405.713C900.348 407.48 900.342 409.068 900.323 410.475C900.304 411.852 900.321 412.841 900.373 413.441C900.28 413.679 900.142 413.887 899.96 414.064C899.778 414.241 899.567 414.373 899.326 414.46C899.116 414.517 898.906 414.529 898.697 414.497C898.488 414.434 898.295 414.267 898.119 413.995C898.124 413.665 898.103 412.991 898.057 411.972C898.01 410.953 897.951 409.769 897.879 408.421C897.808 407.042 897.723 405.588 897.623 404.059C897.554 402.501 897.484 401.048 897.412 399.699C897.37 398.32 897.327 397.122 897.28 396.103C897.234 395.084 897.198 394.41 897.173 394.08C896.559 392.963 895.938 392.326 895.311 392.168C894.714 392.01 894.098 392.197 893.462 392.727C892.856 393.258 892.261 394.074 891.677 395.174C891.093 396.275 890.537 397.525 890.01 398.926C889.482 400.297 888.984 401.743 888.514 403.264C888.044 404.785 887.635 406.262 887.287 407.695C886.938 409.098 886.637 410.382 886.382 411.547C886.157 412.682 886.01 413.563 885.942 414.191C885.849 414.4 885.652 414.607 885.35 414.812C885.078 414.988 884.776 415.119 884.446 415.205C884.145 415.29 883.83 415.316 883.501 415.282C883.203 415.218 882.98 415.035 882.835 414.734ZM909.695 418.462C909.271 418.876 908.864 419.065 908.475 419.03C908.116 418.995 907.818 418.842 907.583 418.569C907.377 418.297 907.232 417.935 907.148 417.485C907.094 417.035 907.19 416.587 907.435 416.141L910.472 404.096C909.97 403.491 909.32 402.823 908.522 402.094C907.753 401.364 906.984 400.62 906.215 399.861C905.477 399.103 904.798 398.345 904.179 397.588C903.561 396.801 903.181 396.062 903.041 395.371C903.051 394.593 903.46 394.209 904.269 394.22C904.779 394.137 905.183 394.187 905.48 394.371C905.807 394.555 906.088 394.828 906.323 395.191C906.558 395.523 906.792 395.946 907.024 396.458C907.287 396.97 907.595 397.499 907.947 398.043C908.329 398.587 908.801 399.147 909.362 399.724C909.954 400.271 910.711 400.775 911.633 401.237C911.819 400.73 911.995 399.924 912.159 398.818C912.324 397.682 912.46 396.486 912.567 395.229C912.704 393.943 912.811 392.672 912.887 391.415C912.964 390.158 913.008 389.125 913.019 388.317C913.11 388.198 913.291 388.11 913.561 388.054C913.862 387.968 914.177 387.943 914.506 387.977C914.835 387.981 915.134 388.045 915.402 388.169C915.67 388.262 915.833 388.414 915.89 388.624C916.022 389.914 915.975 391.186 915.749 392.441C915.553 393.667 915.297 394.906 914.98 396.16C914.694 397.384 914.423 398.608 914.168 399.833C913.912 401.057 913.835 402.299 913.938 403.559L921.826 411.706C921.855 411.736 921.899 411.857 921.956 412.067C922.013 412.277 922.041 412.428 922.04 412.517C922.037 412.697 922.02 412.877 921.988 413.056C921.955 413.235 921.878 413.414 921.756 413.592C921.664 413.74 921.528 413.858 921.347 413.946C921.196 414.034 920.986 414.061 920.717 414.027C920.333 413.603 919.846 413.087 919.255 412.48C918.694 411.844 918.074 411.191 917.394 410.523C916.715 409.826 916.02 409.157 915.309 408.519C914.599 407.88 913.917 407.377 913.263 407.009L913.038 407.006L912.994 406.96C912.844 406.958 912.708 407.046 912.586 407.225C912.464 407.373 912.293 407.835 912.073 408.61C911.884 409.357 911.599 410.506 911.219 412.058C910.869 413.581 910.361 415.716 909.695 418.462ZM958.452 400.784C958.119 401.019 957.53 401.371 956.686 401.839C955.871 402.277 954.996 402.76 954.06 403.286C953.125 403.813 952.235 404.325 951.389 404.823C950.544 405.291 949.956 405.642 949.623 405.878C948.958 406.378 948.501 406.956 948.252 407.611C948.004 408.267 947.874 408.984 947.864 409.763C947.854 410.511 947.918 411.306 948.057 412.146C948.196 412.957 948.289 413.782 948.338 414.621C948.333 415.04 948.193 415.428 947.918 415.783C947.644 416.139 947.297 416.314 946.878 416.309C946.698 416.306 946.504 416.259 946.296 416.166C946.088 416.044 945.985 415.877 945.988 415.668L945.34 386.862C945.342 386.682 945.405 386.443 945.529 386.145C945.683 385.848 945.805 385.685 945.895 385.656C945.985 385.657 946.104 385.674 946.254 385.706C946.433 385.738 946.612 385.8 946.79 385.893C946.969 385.955 947.133 386.032 947.281 386.124C947.46 386.186 947.579 386.248 947.638 386.308C947.742 387.508 947.799 388.886 947.808 390.444C947.817 392.001 947.826 393.574 947.835 395.161C947.873 396.749 947.927 398.292 947.997 399.791C948.097 401.26 948.275 402.505 948.531 403.527C949.826 403.005 951.046 402.512 952.19 402.048C953.334 401.584 954.33 401.044 955.177 400.426C956.024 399.808 956.693 399.054 957.184 398.162C957.675 397.24 957.915 396.09 957.904 394.712C957.914 393.963 957.908 393.304 957.885 392.735C957.863 392.166 957.811 391.611 957.728 391.071C957.646 390.5 957.519 389.9 957.348 389.268C957.207 388.608 957.022 387.856 956.794 387.015C956.741 386.475 956.836 386.132 957.077 385.985C957.319 385.839 957.604 385.768 957.934 385.772C958.323 385.777 958.621 385.871 958.828 386.054C959.036 386.236 959.197 386.478 959.313 386.779C959.459 387.08 959.544 387.411 959.569 387.771C959.595 388.1 959.62 388.415 959.646 388.715C959.7 389.195 959.765 389.915 959.842 390.874C959.919 391.834 959.994 392.928 960.068 394.157C960.172 395.356 960.274 396.631 960.376 397.98C960.508 399.329 960.626 400.604 960.729 401.803C960.833 403.002 960.909 404.082 960.956 405.041C961.033 406 961.098 406.72 961.151 407.2C961.226 408.339 961.331 409.463 961.466 410.573C961.601 411.683 961.66 412.822 961.645 413.99L961.635 414.709C961.632 414.948 961.599 415.188 961.536 415.426C961.503 415.636 961.395 415.829 961.213 416.006C961.062 416.154 960.806 416.27 960.445 416.355C959.911 415.959 959.603 415.52 959.519 415.04C959.436 414.56 959.368 414.035 959.316 413.465C959.29 413.135 959.267 412.641 959.246 411.981C959.225 411.292 959.175 410.543 959.096 409.733C959.047 408.894 958.984 408.024 958.906 407.125C958.859 406.196 958.795 405.326 958.716 404.517C958.668 403.677 958.618 402.928 958.567 402.268C958.516 401.609 958.477 401.114 958.452 400.784ZM965.74 406.722C965.59 406.75 965.365 406.792 965.065 406.848C964.764 406.904 964.45 406.914 964.121 406.88C963.792 406.846 963.508 406.752 963.271 406.599C963.003 406.446 962.872 406.19 962.877 405.83C962.88 405.621 962.927 405.471 963.018 405.383C963.109 405.294 963.26 405.161 963.472 404.985C964.138 404.454 964.701 403.773 965.162 402.941C965.653 402.079 966.099 401.171 966.501 400.218C966.904 399.235 967.321 398.267 967.753 397.315C968.215 396.332 968.736 395.456 969.315 394.685C969.895 393.914 970.607 393.294 971.452 392.826C972.297 392.359 973.333 392.148 974.56 392.194C975.069 392.201 975.637 392.328 976.262 392.576C976.888 392.824 977.467 393.161 978.001 393.588C978.535 393.984 978.977 394.47 979.329 395.043C979.681 395.617 979.852 396.248 979.843 396.937C979.989 397.179 979.835 397.521 979.38 397.964C978.955 398.408 978.364 398.894 977.608 399.423C976.853 399.922 975.992 400.45 975.026 401.006C974.091 401.532 973.186 402.029 972.311 402.497C971.436 402.965 970.667 403.374 970.003 403.724C969.34 404.075 968.902 404.338 968.69 404.515C968.536 404.813 968.412 405.155 968.317 405.543C968.222 405.932 968.142 406.305 968.077 406.663C968.043 406.992 968.009 407.306 967.975 407.606C967.971 407.875 967.968 408.085 967.966 408.234C967.959 408.803 967.92 409.432 967.851 410.12C967.812 410.808 967.833 411.467 967.915 412.097C968.026 412.698 968.274 413.21 968.658 413.635C969.042 414.029 969.698 414.233 970.626 414.245C971.615 414.258 972.546 414.031 973.421 413.564C974.296 413.066 975.113 412.463 975.871 411.754C976.629 411.046 977.314 410.276 977.924 409.446C978.564 408.616 979.128 407.844 979.617 407.132C980.136 406.39 980.593 405.782 980.989 405.309C981.385 404.835 981.717 404.599 981.987 404.603C982.286 404.607 982.6 404.671 982.928 404.795C983.286 404.89 983.462 405.132 983.457 405.521C983.45 406.06 983.217 406.701 982.757 407.444C982.328 408.187 981.749 408.973 981.019 409.802C980.319 410.631 979.499 411.458 978.56 412.285C977.65 413.081 976.727 413.802 975.79 414.449C974.853 415.065 973.933 415.577 973.029 415.984C972.126 416.362 971.329 416.546 970.641 416.536C969.293 416.518 968.279 416.175 967.6 415.507C966.92 414.839 966.436 414.009 966.15 413.017C965.894 412.025 965.758 410.975 965.743 409.867C965.758 408.729 965.757 407.681 965.74 406.722ZM974.167 394.705C973.658 394.698 973.116 394.945 972.54 395.447C971.965 395.918 971.418 396.51 970.899 397.222C970.411 397.904 969.997 398.617 969.657 399.362C969.348 400.076 969.191 400.673 969.184 401.152C969.633 401.158 970.279 401.002 971.122 400.684C971.995 400.336 972.855 399.914 973.7 399.416C974.545 398.918 975.286 398.389 975.922 397.828C976.559 397.268 976.881 396.733 976.887 396.224C976.891 395.954 976.789 395.728 976.582 395.546C976.375 395.363 976.122 395.21 975.824 395.086C975.556 394.963 975.273 394.869 974.975 394.805C974.676 394.741 974.407 394.708 974.167 394.705ZM986.528 414.413C986.756 413.038 986.914 411.318 987.001 409.253C987.119 407.188 987.178 404.987 987.179 402.651C987.211 400.315 987.198 397.904 987.141 395.417C987.085 392.931 986.996 390.578 986.876 388.36C986.756 386.112 986.604 384.104 986.418 382.334C986.262 380.565 986.086 379.17 985.89 378.149C986.161 377.973 986.388 377.841 986.569 377.754C986.78 377.637 987.02 377.58 987.29 377.584C987.499 377.586 987.678 377.634 987.827 377.726C987.976 377.788 988.094 377.939 988.18 378.18C988.701 384.057 989.026 389.976 989.156 395.938C989.316 401.901 989.416 407.832 989.457 413.733C989.454 414.003 989.449 414.377 989.442 414.856C989.436 415.305 989.418 415.545 989.388 415.574C988.966 415.778 988.59 415.878 988.261 415.873C987.932 415.839 987.633 415.745 987.366 415.592C987.099 415.409 986.892 415.211 986.745 415C986.598 414.788 986.526 414.592 986.528 414.413ZM993.686 416.665C993.607 415.825 993.548 414.686 993.507 413.248C993.466 411.81 993.427 410.252 993.39 408.574C993.353 406.867 993.301 405.099 993.236 403.271C993.201 401.443 993.149 399.706 993.081 398.057C993.013 396.409 992.914 394.91 992.782 393.561C992.68 392.212 992.56 391.132 992.421 390.321C992.429 389.722 992.568 389.38 992.839 389.294C993.11 389.177 993.455 389.122 993.874 389.128C993.934 389.129 994.069 389.13 994.279 389.133C994.488 389.136 994.638 389.153 994.727 389.184C994.985 390.086 995.134 391.256 995.174 392.694C995.245 394.103 995.285 395.646 995.292 397.323C995.33 399.001 995.351 400.738 995.357 402.536C995.393 404.333 995.475 406.041 995.603 407.66C996.054 405.3 996.425 403.343 996.715 401.79C997.035 400.237 997.322 398.998 997.574 398.073C997.856 397.118 998.105 396.417 998.32 395.971C998.566 395.495 998.825 395.184 999.097 395.038C999.398 394.892 999.713 394.837 1000.04 394.871C1000.4 394.876 1000.82 394.881 1001.3 394.888C1001.84 394.895 1002.27 395.11 1002.59 395.534C1002.95 395.958 1003.21 396.501 1003.38 397.162C1003.58 397.823 1003.72 398.544 1003.8 399.324C1003.91 400.104 1004.01 400.869 1004.09 401.619C1004.17 402.339 1004.25 402.999 1004.33 403.599C1004.44 404.199 1004.61 404.621 1004.85 404.864C1005.63 402.658 1006.3 400.855 1006.85 399.455C1007.41 398.054 1007.89 396.953 1008.29 396.149C1008.69 395.316 1009.04 394.722 1009.35 394.366C1009.65 394.011 1009.93 393.805 1010.17 393.748C1010.41 393.662 1010.62 393.649 1010.8 393.712C1011 393.774 1011.21 393.807 1011.42 393.81C1012.23 393.821 1012.84 394.248 1013.25 395.092C1013.71 396.446 1014.02 397.738 1014.18 398.968C1014.35 400.169 1014.44 401.338 1014.45 402.476C1014.47 403.585 1014.45 404.648 1014.41 405.665C1014.4 406.684 1014.41 407.672 1014.46 408.631C1014.54 409.591 1014.69 410.536 1014.92 411.468C1015.17 412.4 1015.61 413.319 1016.23 414.226C1015.98 414.702 1015.74 415.028 1015.49 415.204C1015.25 415.351 1014.92 415.421 1014.5 415.416C1014.14 415.411 1013.83 415.287 1013.56 415.044C1013.3 414.771 1013.08 414.453 1012.9 414.091C1012.73 413.7 1012.58 413.308 1012.47 412.918C1012.39 412.527 1012.3 412.181 1012.21 411.881C1012.15 407.597 1012 404.315 1011.76 402.036C1011.55 399.727 1011.2 398.509 1010.69 398.383C1010.18 398.256 1009.51 399.25 1008.67 401.366C1007.86 403.451 1006.85 406.732 1005.62 411.209C1005.53 411.357 1005.39 411.445 1005.21 411.473C1005.03 411.5 1004.84 411.513 1004.63 411.51C1004.45 411.507 1004.25 411.505 1004.04 411.502C1003.86 411.47 1003.68 411.467 1003.5 411.495C1002.81 407.083 1002.23 403.915 1001.74 401.992C1001.29 400.039 1000.81 399.284 1000.29 399.726C999.777 400.169 999.186 401.778 998.52 404.555C997.854 407.301 996.994 411.168 995.939 416.156L993.686 416.665ZM1039.37 407.077C1039.47 406 1039.58 404.834 1039.69 403.577C1039.79 402.291 1039.94 401.02 1040.14 399.765C1040.37 398.51 1040.64 397.315 1040.95 396.181C1041.3 395.048 1041.73 394.05 1042.25 393.189C1042.8 392.298 1043.47 391.603 1044.25 391.104C1045.04 390.575 1045.99 390.334 1047.09 390.378C1047.84 390.388 1048.41 390.71 1048.79 391.344C1049.2 391.979 1049.47 392.746 1049.61 393.647C1049.78 394.547 1049.86 395.477 1049.84 396.435C1049.86 397.364 1049.87 398.128 1049.86 398.727C1049.26 398.719 1048.77 398.457 1048.39 397.943C1048 397.399 1047.71 396.781 1047.51 396.089C1047.31 395.398 1047.17 394.722 1047.09 394.062L1046.97 392.758C1046.94 392.757 1046.88 392.757 1046.79 392.755C1046.73 392.725 1046.69 392.709 1046.66 392.709C1046.15 392.702 1045.67 392.98 1045.21 393.543C1044.78 394.106 1044.37 394.834 1043.97 395.728C1043.6 396.591 1043.27 397.575 1042.99 398.68C1042.7 399.754 1042.46 400.814 1042.27 401.86C1042.08 402.905 1041.91 403.877 1041.78 404.773C1041.68 405.641 1041.63 406.314 1041.62 406.793C1041.55 407.571 1041.54 408.424 1041.58 409.353C1041.63 410.282 1041.8 411.153 1042.09 411.966C1042.38 412.778 1042.79 413.487 1043.32 414.094C1043.85 414.67 1044.56 415.069 1045.46 415.29C1046.57 415.305 1047.47 415.167 1048.16 414.877C1048.85 414.587 1049.41 414.19 1049.84 413.687C1050.29 413.184 1050.65 412.619 1050.89 411.994C1051.14 411.368 1051.38 410.727 1051.59 410.071C1051.84 409.386 1052.09 408.715 1052.34 408.059C1052.59 407.404 1052.94 406.794 1053.4 406.232C1053.76 406.146 1054.01 406.165 1054.16 406.287C1054.34 406.379 1054.46 406.515 1054.51 406.696C1054.57 406.876 1054.6 407.086 1054.6 407.326L1054.59 407.82C1054.57 409.078 1054.35 410.288 1053.91 411.45C1053.48 412.612 1052.85 413.652 1052.03 414.569C1051.21 415.457 1050.22 416.178 1049.08 416.731C1047.96 417.256 1046.69 417.508 1045.25 417.489C1044.05 417.473 1043.05 417.085 1042.26 416.326C1041.49 415.537 1040.89 414.6 1040.45 413.516C1040.05 412.433 1039.76 411.306 1039.6 410.135C1039.43 408.935 1039.36 407.916 1039.37 407.077ZM1073.59 398.235C1072.48 397.801 1071.42 397.951 1070.39 398.686C1069.36 399.422 1068.37 400.472 1067.43 401.837C1066.48 403.172 1065.58 404.702 1064.72 406.428C1063.85 408.153 1063.05 409.79 1062.31 411.337C1061.57 412.885 1060.9 414.209 1060.28 415.309C1059.7 416.409 1059.17 417.016 1058.69 417.129C1058.33 417.125 1058.04 417.061 1057.84 416.938C1057.66 416.786 1057.57 416.441 1057.58 415.902L1058 384.324C1058.01 384.055 1058.11 383.892 1058.32 383.834C1058.56 383.778 1058.82 383.766 1059.09 383.8C1059.36 383.833 1059.61 383.912 1059.85 384.035C1060.09 384.128 1060.24 384.234 1060.29 384.355L1060.54 409.652C1060.88 409.117 1061.19 408.372 1061.47 407.418C1061.78 406.433 1062.14 405.39 1062.54 404.287C1062.95 403.154 1063.41 402.038 1063.94 400.936C1064.49 399.806 1065.16 398.796 1065.95 397.908C1066.74 397.02 1067.7 396.344 1068.81 395.88C1069.96 395.386 1071.29 395.224 1072.82 395.394C1073.83 395.408 1074.65 395.748 1075.27 396.416C1075.89 397.053 1076.21 397.896 1076.23 398.944L1076.44 416.872C1076.44 416.992 1076.4 417.172 1076.34 417.41C1076.31 417.619 1076.18 417.798 1075.97 417.944C1075.79 418.122 1075.52 418.223 1075.16 418.248C1074.83 418.304 1074.4 418.223 1073.86 418.006L1073.59 398.235ZM1091.44 416.938C1091.3 416.158 1091.18 415.228 1091.07 414.148C1091 413.039 1090.91 411.929 1090.8 410.82C1090.7 409.68 1090.56 408.615 1090.4 407.625C1090.26 406.634 1090.03 405.823 1089.71 405.189C1088.14 408.283 1086.76 410.721 1085.57 412.502C1084.38 414.253 1083.33 415.512 1082.42 416.279C1081.54 417.016 1080.8 417.365 1080.2 417.327C1079.61 417.289 1079.12 417.013 1078.73 416.499C1078.35 415.985 1078.07 415.337 1077.91 414.556C1077.77 413.745 1077.67 412.995 1077.62 412.306C1077.63 411.647 1077.79 410.721 1078.11 409.527C1078.42 408.333 1078.84 407.036 1079.37 405.635C1079.9 404.205 1080.52 402.76 1081.23 401.302C1081.97 399.845 1082.75 398.522 1083.57 397.335C1084.4 396.148 1085.25 395.171 1086.13 394.404C1087.01 393.637 1087.88 393.26 1088.75 393.271C1090.04 393.079 1090.98 393.376 1091.57 394.162C1092.18 394.92 1092.29 396.194 1091.87 397.985C1091.85 399.962 1091.9 401.655 1092.03 403.064C1092.19 404.474 1092.35 405.824 1092.52 407.114C1092.71 408.404 1092.87 409.754 1093 411.164C1093.16 412.573 1093.23 414.267 1093.2 416.243C1093.2 416.602 1093.15 416.916 1093.06 417.184C1092.99 417.423 1092.63 417.538 1091.97 417.529C1091.88 417.528 1091.76 417.452 1091.62 417.3C1091.5 417.149 1091.44 417.028 1091.44 416.938ZM1089.28 396.828C1088.96 396.344 1088.51 396.293 1087.94 396.675C1087.36 397.056 1086.76 397.692 1086.12 398.582C1085.47 399.472 1084.82 400.542 1084.14 401.79C1083.47 403.039 1082.83 404.304 1082.25 405.584C1081.66 406.864 1081.15 408.085 1080.72 409.247C1080.28 410.38 1079.99 411.319 1079.83 412.066C1079.81 413.144 1079.97 413.76 1080.29 413.914C1080.62 414.038 1081.03 413.864 1081.51 413.391C1082 412.918 1082.55 412.237 1083.16 411.347C1083.8 410.457 1084.41 409.506 1084.99 408.496C1085.61 407.486 1086.17 406.505 1086.7 405.553C1087.25 404.602 1087.68 403.829 1087.99 403.235C1088.26 402.609 1088.48 402.028 1088.64 401.491C1088.79 400.954 1088.92 400.447 1089.02 399.969C1089.14 399.461 1089.21 398.953 1089.22 398.444C1089.25 397.935 1089.28 397.396 1089.28 396.828ZM1095.8 396.51L1095.81 396.151C1095.81 395.852 1095.92 395.643 1096.13 395.526C1096.37 395.41 1096.64 395.353 1096.94 395.357C1097.18 395.361 1097.4 395.394 1097.61 395.456C1097.82 395.489 1097.99 395.656 1098.1 395.957C1098.18 396.407 1098.27 397.037 1098.35 397.847C1098.42 398.627 1098.52 399.497 1098.62 400.457C1098.73 401.416 1098.84 402.436 1098.94 403.516C1099.08 404.566 1099.2 405.571 1099.31 406.531C1099.44 407.461 1099.58 408.302 1099.72 409.052C1099.86 409.803 1100.02 410.374 1100.19 410.766C1100.14 407.89 1100.27 405.405 1100.56 403.313C1100.86 401.19 1101.39 399.475 1102.16 398.168C1102.96 396.831 1104.02 395.916 1105.34 395.425C1106.7 394.904 1108.37 394.806 1110.38 395.133C1111.31 395.145 1111.76 395.645 1111.75 396.634C1111.74 397.023 1111.49 397.289 1110.98 397.432C1110.46 397.545 1109.89 397.627 1109.26 397.679C1108.64 397.7 1108.02 397.737 1107.42 397.789C1106.82 397.841 1106.39 397.985 1106.11 398.221C1105.03 398.805 1104.25 399.723 1103.78 400.975C1103.35 402.227 1103.03 403.705 1102.83 405.41C1102.62 407.114 1102.46 408.984 1102.35 411.019C1102.26 413.025 1102.04 415.088 1101.68 417.21C1101.68 417.509 1101.55 417.732 1101.31 417.879C1101.07 418.025 1100.77 418.096 1100.41 418.091C1100.08 418.087 1099.75 418.008 1099.43 417.854C1099.13 417.7 1098.89 417.472 1098.72 417.17L1095.8 396.51ZM1115.22 399.241C1114.92 399.387 1114.63 399.547 1114.36 399.723C1114.12 399.87 1113.88 400.017 1113.63 400.163C1113.39 400.28 1113.15 400.366 1112.91 400.423C1112.67 400.48 1112.42 400.476 1112.15 400.413C1111.97 400.41 1111.82 400.304 1111.7 400.092C1111.59 399.851 1111.5 399.595 1111.44 399.325C1111.36 399.024 1111.3 398.739 1111.28 398.469C1111.25 398.169 1111.25 397.945 1111.28 397.796L1115.63 395.383L1116.05 383.887C1116.12 383.499 1116.36 383.352 1116.78 383.448C1117.2 383.513 1117.63 383.609 1118.08 383.735C1118.14 383.735 1118.23 383.767 1118.34 383.828C1118.49 383.86 1118.6 383.891 1118.66 383.922C1118.59 384.73 1118.5 385.612 1118.4 386.569C1118.33 387.497 1118.25 388.439 1118.18 389.397C1118.11 390.324 1118.05 391.237 1118.01 392.135C1118 393.033 1118.03 393.842 1118.11 394.562L1124.87 392.766C1124.99 392.737 1125.08 392.828 1125.14 393.039C1125.23 393.22 1125.3 393.445 1125.36 393.716C1125.44 393.986 1125.5 394.257 1125.52 394.527C1125.55 394.796 1125.56 394.931 1125.56 394.931L1117.89 398.063C1117.88 398.333 1117.89 398.977 1117.9 399.996C1117.95 401.014 1117.99 402.228 1118.04 403.636C1118.08 405.015 1118.12 406.513 1118.15 408.13C1118.19 409.718 1118.23 411.201 1118.28 412.58C1118.32 413.958 1118.35 415.171 1118.36 416.22C1118.38 417.238 1118.38 417.882 1118.38 418.152C1118.31 419.049 1118.03 419.495 1117.55 419.489C1117.1 419.483 1116.61 419.251 1116.08 418.795L1115.22 399.241Z" fill="#333333"/>
<path d="M609.061 213.939C608.475 213.354 607.525 213.354 606.939 213.939L597.393 223.485C596.808 224.071 596.808 225.021 597.393 225.607C597.979 226.192 598.929 226.192 599.515 225.607L608 217.121L616.485 225.607C617.071 226.192 618.021 226.192 618.607 225.607C619.192 225.021 619.192 224.071 618.607 223.485L609.061 213.939ZM951.47 360.7C946.289 335.315 921.624 319.835 888.585 309.197C855.438 298.525 813.172 292.509 771.715 286.515C730.168 280.509 689.453 274.526 659.118 263.958C628.681 253.355 609.5 238.434 609.5 215L606.5 215C606.5 240.566 627.569 256.145 658.132 266.792C688.797 277.474 729.832 283.491 771.285 289.485C812.828 295.491 854.812 301.475 887.665 312.053C920.626 322.665 943.711 337.685 948.53 361.3L951.47 360.7Z" fill="black"/>
<defs>
<clipPath id="clip0_5_2436">
<rect width="1055" height="828" fill="white" transform="translate(73 36)"/>
</clipPath>
</defs>
</svg>
