<svg width="1200" height="900" viewBox="0 0 1200 900" fill="none" xmlns="http://www.w3.org/2000/svg">
<rect width="1200" height="900" fill="white"/>
<path d="M108.536 371.273V444H93.1591V385.868H92.733L76.0781 396.308V382.672L94.0824 371.273H108.536ZM194.696 389.455L175.627 444H158.581L139.512 389.455H155.492L166.82 428.482H167.388L178.681 389.455H194.696ZM245.19 405.009L231.34 405.861C231.104 404.677 230.595 403.612 229.813 402.665C229.032 401.694 228.002 400.925 226.724 400.357C225.469 399.765 223.966 399.469 222.214 399.469C219.87 399.469 217.893 399.966 216.284 400.96C214.674 401.931 213.869 403.233 213.869 404.866C213.869 406.169 214.39 407.269 215.431 408.169C216.473 409.069 218.26 409.791 220.793 410.335L230.666 412.324C235.969 413.413 239.922 415.165 242.526 417.58C245.131 419.994 246.433 423.167 246.433 427.097C246.433 430.671 245.379 433.808 243.272 436.507C241.189 439.206 238.324 441.313 234.678 442.828C231.056 444.32 226.878 445.065 222.143 445.065C214.922 445.065 209.169 443.562 204.884 440.555C200.623 437.525 198.125 433.406 197.391 428.197L212.271 427.416C212.721 429.618 213.81 431.299 215.538 432.459C217.266 433.595 219.48 434.163 222.178 434.163C224.83 434.163 226.961 433.654 228.57 432.636C230.204 431.595 231.033 430.257 231.056 428.624C231.033 427.25 230.453 426.126 229.316 425.25C228.18 424.35 226.428 423.664 224.061 423.19L214.614 421.308C209.288 420.243 205.322 418.396 202.718 415.768C200.138 413.141 198.847 409.791 198.847 405.719C198.847 402.215 199.794 399.196 201.688 396.663C203.606 394.13 206.293 392.177 209.749 390.804C213.23 389.431 217.302 388.744 221.965 388.744C228.855 388.744 234.276 390.2 238.23 393.112C242.207 396.024 244.527 399.99 245.19 405.009ZM273.84 444V389.455H288.258V399.078H288.897C290.033 395.882 291.927 393.361 294.579 391.514C297.23 389.668 300.402 388.744 304.096 388.744C307.836 388.744 311.02 389.679 313.648 391.55C316.276 393.396 318.028 395.906 318.904 399.078H319.472C320.585 395.953 322.597 393.455 325.509 391.585C328.445 389.691 331.913 388.744 335.914 388.744C341.004 388.744 345.135 390.366 348.307 393.609C351.503 396.829 353.101 401.398 353.101 407.317V444H338.009V410.3C338.009 407.269 337.204 404.997 335.594 403.482C333.984 401.966 331.972 401.209 329.557 401.209C326.811 401.209 324.669 402.085 323.13 403.837C321.591 405.565 320.822 407.849 320.822 410.69V444H306.155V409.98C306.155 407.305 305.386 405.174 303.847 403.588C302.332 402.002 300.331 401.209 297.846 401.209C296.165 401.209 294.65 401.635 293.3 402.487C291.974 403.316 290.921 404.488 290.14 406.003C289.358 407.494 288.968 409.246 288.968 411.259V444H273.84ZM377.973 445.03C374.493 445.03 371.392 444.426 368.669 443.219C365.947 441.988 363.792 440.177 362.206 437.786C360.644 435.371 359.863 432.364 359.863 428.766C359.863 425.735 360.419 423.19 361.532 421.131C362.644 419.071 364.159 417.414 366.077 416.159C367.995 414.904 370.173 413.957 372.611 413.318C375.073 412.679 377.654 412.229 380.353 411.969C383.525 411.637 386.082 411.33 388.023 411.045C389.964 410.738 391.373 410.288 392.249 409.696C393.125 409.104 393.563 408.228 393.563 407.068V406.855C393.563 404.606 392.853 402.866 391.432 401.635C390.035 400.404 388.047 399.788 385.466 399.788C382.744 399.788 380.577 400.392 378.968 401.599C377.358 402.783 376.292 404.275 375.772 406.074L361.78 404.938C362.49 401.623 363.887 398.759 365.97 396.344C368.054 393.905 370.741 392.035 374.032 390.733C377.346 389.407 381.181 388.744 385.537 388.744C388.568 388.744 391.468 389.099 394.238 389.81C397.031 390.52 399.505 391.621 401.659 393.112C403.837 394.604 405.554 396.521 406.809 398.865C408.063 401.185 408.691 403.967 408.691 407.21V444H394.344V436.436H393.918C393.042 438.141 391.87 439.644 390.402 440.946C388.934 442.224 387.171 443.231 385.111 443.964C383.051 444.675 380.672 445.03 377.973 445.03ZM382.306 434.589C384.531 434.589 386.496 434.152 388.201 433.276C389.905 432.376 391.243 431.169 392.213 429.653C393.184 428.138 393.669 426.422 393.669 424.504V418.716C393.196 419.024 392.545 419.308 391.716 419.568C390.911 419.805 390 420.03 388.982 420.243C387.964 420.432 386.946 420.61 385.928 420.776C384.91 420.918 383.987 421.048 383.158 421.166C381.382 421.427 379.832 421.841 378.506 422.409C377.18 422.977 376.15 423.747 375.417 424.717C374.683 425.664 374.316 426.848 374.316 428.268C374.316 430.328 375.061 431.902 376.553 432.991C378.068 434.057 379.986 434.589 382.306 434.589ZM432.923 412.466V444H417.796V389.455H432.213V399.078H432.852C434.06 395.906 436.084 393.396 438.925 391.55C441.766 389.679 445.21 388.744 449.259 388.744C453.047 388.744 456.349 389.573 459.166 391.23C461.984 392.887 464.173 395.255 465.736 398.332C467.298 401.386 468.08 405.032 468.08 409.27V444H452.952V411.969C452.975 408.631 452.123 406.027 450.395 404.156C448.667 402.262 446.288 401.315 443.257 401.315C441.221 401.315 439.422 401.753 437.859 402.629C436.321 403.505 435.113 404.784 434.237 406.464C433.385 408.122 432.947 410.122 432.923 412.466ZM484.757 464.455C482.84 464.455 481.041 464.301 479.36 463.993C477.702 463.709 476.329 463.342 475.24 462.892L478.649 451.599C480.425 452.144 482.023 452.44 483.443 452.487C484.888 452.535 486.13 452.203 487.172 451.493C488.237 450.783 489.102 449.575 489.764 447.871L490.652 445.562L471.085 389.455H486.995L498.287 429.511H498.855L510.255 389.455H526.27L505.07 449.895C504.052 452.83 502.667 455.387 500.915 457.565C499.187 459.767 496.997 461.46 494.345 462.643C491.694 463.851 488.498 464.455 484.757 464.455ZM540.222 444.923C537.879 444.923 535.866 444.095 534.185 442.438C532.528 440.757 531.7 438.744 531.7 436.401C531.7 434.08 532.528 432.092 534.185 430.435C535.866 428.777 537.879 427.949 540.222 427.949C542.495 427.949 544.484 428.777 546.188 430.435C547.893 432.092 548.745 434.08 548.745 436.401C548.745 437.963 548.343 439.395 547.538 440.697C546.756 441.976 545.727 443.006 544.448 443.787C543.17 444.545 541.761 444.923 540.222 444.923ZM540.222 406.713C537.879 406.713 535.866 405.884 534.185 404.227C532.528 402.57 531.7 400.558 531.7 398.19C531.7 395.87 532.528 393.893 534.185 392.26C535.866 390.603 537.879 389.774 540.222 389.774C542.495 389.774 544.484 390.603 546.188 392.26C547.893 393.893 548.745 395.87 548.745 398.19C548.745 399.777 548.343 401.221 547.538 402.523C546.756 403.801 545.727 404.819 544.448 405.577C543.17 406.334 541.761 406.713 540.222 406.713ZM579.047 444V389.455H593.713V398.972H594.281C595.275 395.586 596.944 393.029 599.288 391.301C601.632 389.549 604.331 388.673 607.385 388.673C608.142 388.673 608.959 388.721 609.835 388.815C610.711 388.91 611.48 389.04 612.143 389.206V402.629C611.433 402.416 610.45 402.227 609.196 402.061C607.941 401.895 606.793 401.812 605.751 401.812C603.526 401.812 601.537 402.298 599.785 403.268C598.057 404.215 596.684 405.541 595.666 407.246C594.672 408.95 594.174 410.915 594.174 413.141V444H579.047ZM639.652 445.065C634.041 445.065 629.212 443.929 625.163 441.656C621.139 439.36 618.037 436.116 615.859 431.926C613.681 427.712 612.592 422.729 612.592 416.976C612.592 411.365 613.681 406.441 615.859 402.203C618.037 397.965 621.103 394.663 625.057 392.295C629.034 389.928 633.698 388.744 639.048 388.744C642.647 388.744 645.997 389.324 649.098 390.484C652.223 391.621 654.945 393.337 657.266 395.634C659.609 397.93 661.432 400.818 662.734 404.298C664.036 407.755 664.687 411.803 664.687 416.443V420.598H618.629V411.223H650.447C650.447 409.045 649.974 407.116 649.027 405.435C648.08 403.754 646.766 402.44 645.085 401.493C643.428 400.522 641.498 400.037 639.297 400.037C637 400.037 634.964 400.57 633.189 401.635C631.437 402.677 630.064 404.085 629.07 405.861C628.075 407.613 627.566 409.566 627.543 411.72V420.634C627.543 423.332 628.04 425.664 629.034 427.629C630.052 429.594 631.484 431.109 633.331 432.175C635.177 433.24 637.367 433.773 639.9 433.773C641.581 433.773 643.12 433.536 644.517 433.062C645.914 432.589 647.109 431.879 648.104 430.932C649.098 429.985 649.856 428.825 650.376 427.452L664.368 428.375C663.658 431.737 662.202 434.672 660 437.182C657.822 439.668 655.005 441.609 651.548 443.006C648.115 444.379 644.15 445.065 639.652 445.065ZM717.312 405.009L703.462 405.861C703.225 404.677 702.716 403.612 701.935 402.665C701.154 401.694 700.124 400.925 698.846 400.357C697.591 399.765 696.088 399.469 694.336 399.469C691.992 399.469 690.015 399.966 688.405 400.96C686.795 401.931 685.99 403.233 685.99 404.866C685.99 406.169 686.511 407.269 687.553 408.169C688.595 409.069 690.382 409.791 692.915 410.335L702.787 412.324C708.09 413.413 712.044 415.165 714.648 417.58C717.252 419.994 718.554 423.167 718.554 427.097C718.554 430.671 717.501 433.808 715.394 436.507C713.311 439.206 710.446 441.313 706.8 442.828C703.178 444.32 698.999 445.065 694.265 445.065C687.044 445.065 681.291 443.562 677.006 440.555C672.745 437.525 670.247 433.406 669.513 428.197L684.392 427.416C684.842 429.618 685.931 431.299 687.66 432.459C689.388 433.595 691.601 434.163 694.3 434.163C696.952 434.163 699.082 433.654 700.692 432.636C702.326 431.595 703.154 430.257 703.178 428.624C703.154 427.25 702.574 426.126 701.438 425.25C700.302 424.35 698.55 423.664 696.182 423.19L686.736 421.308C681.41 420.243 677.444 418.396 674.84 415.768C672.259 413.141 670.969 409.791 670.969 405.719C670.969 402.215 671.916 399.196 673.81 396.663C675.728 394.13 678.415 392.177 681.871 390.804C685.351 389.431 689.423 388.744 694.087 388.744C700.976 388.744 706.398 390.2 710.351 393.112C714.329 396.024 716.649 399.99 717.312 405.009ZM750.094 445.065C744.578 445.065 739.807 443.893 735.783 441.55C731.782 439.182 728.692 435.892 726.514 431.678C724.336 427.44 723.247 422.527 723.247 416.94C723.247 411.306 724.336 406.382 726.514 402.168C728.692 397.93 731.782 394.639 735.783 392.295C739.807 389.928 744.578 388.744 750.094 388.744C755.61 388.744 760.368 389.928 764.369 392.295C768.394 394.639 771.495 397.93 773.673 402.168C775.851 406.382 776.94 411.306 776.94 416.94C776.94 422.527 775.851 427.44 773.673 431.678C771.495 435.892 768.394 439.182 764.369 441.55C760.368 443.893 755.61 445.065 750.094 445.065ZM750.165 433.347C752.674 433.347 754.769 432.636 756.45 431.216C758.131 429.772 759.398 427.807 760.25 425.321C761.126 422.835 761.564 420.006 761.564 416.834C761.564 413.661 761.126 410.832 760.25 408.347C759.398 405.861 758.131 403.896 756.45 402.452C754.769 401.008 752.674 400.286 750.165 400.286C747.632 400.286 745.501 401.008 743.773 402.452C742.068 403.896 740.778 405.861 739.902 408.347C739.05 410.832 738.623 413.661 738.623 416.834C738.623 420.006 739.05 422.835 739.902 425.321C740.778 427.807 742.068 429.772 743.773 431.216C745.501 432.636 747.632 433.347 750.165 433.347ZM819.124 420.776V389.455H834.252V444H819.728V434.092H819.159C817.928 437.288 815.881 439.857 813.016 441.798C810.175 443.74 806.707 444.71 802.611 444.71C798.965 444.71 795.757 443.882 792.988 442.224C790.218 440.567 788.052 438.212 786.489 435.158C784.95 432.104 784.169 428.446 784.145 424.185V389.455H799.273V421.486C799.297 424.705 800.161 427.25 801.865 429.121C803.57 430.991 805.855 431.926 808.719 431.926C810.542 431.926 812.247 431.512 813.833 430.683C815.419 429.831 816.697 428.576 817.668 426.919C818.662 425.262 819.148 423.214 819.124 420.776ZM843.721 444V389.455H858.387V398.972H858.955C859.949 395.586 861.618 393.029 863.962 391.301C866.306 389.549 869.005 388.673 872.059 388.673C872.816 388.673 873.633 388.721 874.509 388.815C875.385 388.91 876.154 389.04 876.817 389.206V402.629C876.107 402.416 875.125 402.227 873.87 402.061C872.615 401.895 871.467 401.812 870.425 401.812C868.2 401.812 866.211 402.298 864.459 403.268C862.731 404.215 861.358 405.541 860.34 407.246C859.346 408.95 858.849 410.915 858.849 413.141V444H843.721ZM904.113 445.065C898.526 445.065 893.72 443.882 889.695 441.514C885.694 439.123 882.617 435.809 880.462 431.571C878.332 427.333 877.266 422.456 877.266 416.94C877.266 411.353 878.344 406.453 880.498 402.239C882.676 398.001 885.765 394.698 889.766 392.331C893.767 389.94 898.526 388.744 904.042 388.744C908.8 388.744 912.967 389.608 916.542 391.337C920.117 393.065 922.946 395.491 925.029 398.616C927.112 401.741 928.261 405.411 928.474 409.625H914.198C913.796 406.902 912.73 404.713 911.002 403.055C909.298 401.375 907.06 400.534 904.291 400.534C901.947 400.534 899.899 401.173 898.147 402.452C896.419 403.706 895.069 405.541 894.099 407.956C893.128 410.371 892.643 413.295 892.643 416.727C892.643 420.207 893.116 423.167 894.063 425.605C895.034 428.044 896.395 429.902 898.147 431.18C899.899 432.459 901.947 433.098 904.291 433.098C906.019 433.098 907.569 432.743 908.943 432.033C910.339 431.322 911.487 430.293 912.387 428.943C913.31 427.57 913.914 425.925 914.198 424.007H928.474C928.237 428.174 927.101 431.843 925.065 435.016C923.052 438.164 920.271 440.626 916.72 442.402C913.168 444.178 908.966 445.065 904.113 445.065ZM960.386 445.065C954.775 445.065 949.946 443.929 945.897 441.656C941.873 439.36 938.771 436.116 936.593 431.926C934.415 427.712 933.326 422.729 933.326 416.976C933.326 411.365 934.415 406.441 936.593 402.203C938.771 397.965 941.837 394.663 945.791 392.295C949.768 389.928 954.432 388.744 959.782 388.744C963.381 388.744 966.731 389.324 969.832 390.484C972.957 391.621 975.679 393.337 977.999 395.634C980.343 397.93 982.166 400.818 983.468 404.298C984.77 407.755 985.421 411.803 985.421 416.443V420.598H939.363V411.223H971.181C971.181 409.045 970.708 407.116 969.761 405.435C968.814 403.754 967.5 402.44 965.819 401.493C964.162 400.522 962.232 400.037 960.031 400.037C957.734 400.037 955.698 400.57 953.923 401.635C952.171 402.677 950.798 404.085 949.803 405.861C948.809 407.613 948.3 409.566 948.276 411.72V420.634C948.276 423.332 948.774 425.664 949.768 427.629C950.786 429.594 952.218 431.109 954.065 432.175C955.911 433.24 958.101 433.773 960.634 433.773C962.315 433.773 963.854 433.536 965.251 433.062C966.648 432.589 967.843 431.879 968.838 430.932C969.832 429.985 970.589 428.825 971.11 427.452L985.102 428.375C984.392 431.737 982.936 434.672 980.734 437.182C978.556 439.668 975.739 441.609 972.282 443.006C968.849 444.379 964.884 445.065 960.386 445.065ZM1038.05 405.009L1024.2 405.861C1023.96 404.677 1023.45 403.612 1022.67 402.665C1021.89 401.694 1020.86 400.925 1019.58 400.357C1018.32 399.765 1016.82 399.469 1015.07 399.469C1012.73 399.469 1010.75 399.966 1009.14 400.96C1007.53 401.931 1006.72 403.233 1006.72 404.866C1006.72 406.169 1007.25 407.269 1008.29 408.169C1009.33 409.069 1011.12 409.791 1013.65 410.335L1023.52 412.324C1028.82 413.413 1032.78 415.165 1035.38 417.58C1037.99 419.994 1039.29 423.167 1039.29 427.097C1039.29 430.671 1038.23 433.808 1036.13 436.507C1034.04 439.206 1031.18 441.313 1027.53 442.828C1023.91 444.32 1019.73 445.065 1015 445.065C1007.78 445.065 1002.03 443.562 997.74 440.555C993.479 437.525 990.981 433.406 990.247 428.197L1005.13 427.416C1005.58 429.618 1006.67 431.299 1008.39 432.459C1010.12 433.595 1012.34 434.163 1015.03 434.163C1017.69 434.163 1019.82 433.654 1021.43 432.636C1023.06 431.595 1023.89 430.257 1023.91 428.624C1023.89 427.25 1023.31 426.126 1022.17 425.25C1021.04 424.35 1019.28 423.664 1016.92 423.19L1007.47 421.308C1002.14 420.243 998.178 418.396 995.574 415.768C992.993 413.141 991.703 409.791 991.703 405.719C991.703 402.215 992.65 399.196 994.544 396.663C996.462 394.13 999.149 392.177 1002.61 390.804C1006.09 389.431 1010.16 388.744 1014.82 388.744C1021.71 388.744 1027.13 390.2 1031.09 393.112C1035.06 396.024 1037.38 399.99 1038.05 405.009Z" fill="black"/>
<rect x="71" y="498" width="1038" height="19" fill="black"/>
</svg>
