<svg width="1200" height="900" viewBox="0 0 1200 900" fill="none" xmlns="http://www.w3.org/2000/svg">
<rect width="1200" height="900" fill="white"/>
<path d="M151.524 417.291V483H137.632V430.478H137.247L122.199 439.91V427.59L138.466 417.291H151.524ZM190.028 484.444C184.509 484.422 179.761 483.064 175.782 480.369C171.825 477.674 168.777 473.77 166.638 468.658C164.521 463.546 163.473 457.397 163.494 450.21C163.494 443.044 164.553 436.937 166.67 431.889C168.809 426.841 171.857 423.002 175.814 420.371C179.793 417.719 184.531 416.393 190.028 416.393C195.525 416.393 200.252 417.719 204.209 420.371C208.188 423.023 211.246 426.873 213.385 431.921C215.524 436.948 216.583 443.044 216.562 450.21C216.562 457.418 215.492 463.578 213.353 468.69C211.236 473.802 208.198 477.706 204.241 480.401C200.284 483.096 195.546 484.444 190.028 484.444ZM190.028 472.925C193.792 472.925 196.798 471.032 199.044 467.247C201.29 463.461 202.402 457.782 202.38 450.21C202.38 445.226 201.867 441.076 200.84 437.761C199.835 434.445 198.402 431.954 196.541 430.285C194.702 428.617 192.53 427.783 190.028 427.783C186.285 427.783 183.29 429.654 181.044 433.397C178.798 437.141 177.665 442.745 177.643 450.21C177.643 455.258 178.146 459.471 179.151 462.851C180.178 466.209 181.622 468.733 183.483 470.423C185.344 472.091 187.525 472.925 190.028 472.925ZM249.354 484.444C243.836 484.422 239.087 483.064 235.109 480.369C231.152 477.674 228.104 473.77 225.965 468.658C223.847 463.546 222.799 457.397 222.82 450.21C222.82 443.044 223.879 436.937 225.997 431.889C228.136 426.841 231.184 423.002 235.141 420.371C239.119 417.719 243.857 416.393 249.354 416.393C254.851 416.393 259.579 417.719 263.536 420.371C267.514 423.023 270.573 426.873 272.712 431.921C274.851 436.948 275.91 443.044 275.888 450.21C275.888 457.418 274.819 463.578 272.68 468.69C270.562 473.802 267.525 477.706 263.568 480.401C259.611 483.096 254.873 484.444 249.354 484.444ZM249.354 472.925C253.119 472.925 256.124 471.032 258.37 467.247C260.616 463.461 261.728 457.782 261.707 450.21C261.707 445.226 261.194 441.076 260.167 437.761C259.162 434.445 257.728 431.954 255.868 430.285C254.028 428.617 251.857 427.783 249.354 427.783C245.611 427.783 242.617 429.654 240.371 433.397C238.125 437.141 236.991 442.745 236.97 450.21C236.97 455.258 237.472 459.471 238.478 462.851C239.504 466.209 240.948 468.733 242.809 470.423C244.67 472.091 246.852 472.925 249.354 472.925ZM283.045 483V433.718H296.072V442.413H296.649C297.676 439.525 299.387 437.247 301.783 435.579C304.178 433.911 307.044 433.076 310.381 433.076C313.761 433.076 316.638 433.921 319.012 435.611C321.386 437.28 322.969 439.547 323.761 442.413H324.274C325.279 439.59 327.097 437.333 329.728 435.643C332.381 433.932 335.514 433.076 339.129 433.076C343.728 433.076 347.46 434.542 350.327 437.472C353.214 440.381 354.658 444.509 354.658 449.857V483H341.022V452.552C341.022 449.814 340.295 447.761 338.84 446.392C337.386 445.023 335.568 444.338 333.386 444.338C330.905 444.338 328.969 445.13 327.579 446.712C326.188 448.274 325.493 450.338 325.493 452.905V483H312.242V452.263C312.242 449.846 311.547 447.921 310.157 446.488C308.788 445.055 306.98 444.338 304.734 444.338C303.216 444.338 301.847 444.723 300.628 445.493C299.43 446.242 298.478 447.301 297.772 448.67C297.066 450.017 296.713 451.6 296.713 453.418V483H283.045Z" fill="black"/>
<path d="M168.593 626.393C171.973 626.393 175.224 626.959 178.347 628.093C181.491 629.227 184.293 631.034 186.753 633.515C189.234 635.997 191.191 639.291 192.625 643.397C194.079 647.483 194.817 652.499 194.838 658.445C194.838 664.028 194.207 669.011 192.945 673.396C191.705 677.76 189.919 681.471 187.587 684.53C185.256 687.588 182.443 689.92 179.149 691.524C175.855 693.107 172.176 693.898 168.112 693.898C163.727 693.898 159.856 693.053 156.497 691.364C153.139 689.653 150.433 687.332 148.38 684.401C146.348 681.45 145.118 678.134 144.69 674.455H158.39C158.925 676.851 160.048 678.712 161.759 680.038C163.47 681.343 165.588 681.995 168.112 681.995C172.39 681.995 175.641 680.134 177.866 676.412C180.09 672.669 181.213 667.546 181.235 661.044H180.785C179.801 662.969 178.475 664.627 176.807 666.017C175.138 667.386 173.224 668.445 171.064 669.193C168.925 669.942 166.647 670.316 164.23 670.316C160.358 670.316 156.904 669.407 153.866 667.589C150.829 665.771 148.433 663.268 146.68 660.081C144.926 656.894 144.049 653.258 144.049 649.173C144.027 644.766 145.043 640.841 147.097 637.398C149.15 633.954 152.016 631.259 155.695 629.312C159.396 627.344 163.695 626.371 168.593 626.393ZM168.689 637.301C166.529 637.301 164.604 637.815 162.914 638.841C161.246 639.868 159.92 641.248 158.936 642.98C157.973 644.713 157.503 646.649 157.524 648.788C157.524 650.948 157.995 652.894 158.936 654.627C159.898 656.338 161.203 657.707 162.85 658.734C164.518 659.739 166.422 660.242 168.561 660.242C170.165 660.242 171.652 659.942 173.021 659.343C174.39 658.744 175.577 657.921 176.582 656.873C177.609 655.803 178.411 654.573 178.989 653.183C179.566 651.793 179.855 650.317 179.855 648.755C179.834 646.681 179.342 644.777 178.379 643.044C177.416 641.312 176.09 639.922 174.401 638.873C172.711 637.825 170.807 637.301 168.689 637.301ZM227.35 694.444C221.832 694.422 217.083 693.064 213.105 690.369C209.148 687.674 206.1 683.77 203.961 678.658C201.843 673.546 200.795 667.397 200.816 660.21C200.816 653.044 201.875 646.937 203.993 641.889C206.132 636.841 209.18 633.002 213.137 630.371C217.115 627.719 221.853 626.393 227.35 626.393C232.847 626.393 237.574 627.719 241.532 630.371C245.51 633.023 248.569 636.873 250.708 641.921C252.847 646.948 253.905 653.044 253.884 660.21C253.884 667.418 252.815 673.578 250.676 678.69C248.558 683.802 245.521 687.706 241.564 690.401C237.607 693.096 232.869 694.444 227.35 694.444ZM227.35 682.925C231.115 682.925 234.12 681.032 236.366 677.247C238.612 673.461 239.724 667.782 239.703 660.21C239.703 655.226 239.189 651.076 238.163 647.761C237.157 644.445 235.724 641.954 233.863 640.285C232.024 638.617 229.853 637.783 227.35 637.783C223.607 637.783 220.612 639.654 218.367 643.397C216.121 647.141 214.987 652.745 214.966 660.21C214.966 665.258 215.468 669.471 216.474 672.851C217.5 676.209 218.944 678.733 220.805 680.423C222.666 682.091 224.848 682.925 227.35 682.925ZM261.298 627.291H278.431L296.527 671.439H297.297L315.392 627.291H332.525V693H319.05V650.231H318.505L301.5 692.679H292.324L275.319 650.071H274.773V693H261.298V627.291ZM340.838 693V643.718H354.506V693H340.838ZM347.704 637.365C345.672 637.365 343.928 636.692 342.474 635.344C341.041 633.975 340.324 632.339 340.324 630.435C340.324 628.553 341.041 626.938 342.474 625.59C343.928 624.221 345.672 623.537 347.704 623.537C349.736 623.537 351.468 624.221 352.901 625.59C354.356 626.938 355.083 628.553 355.083 630.435C355.083 632.339 354.356 633.975 352.901 635.344C351.468 636.692 349.736 637.365 347.704 637.365Z" fill="black"/>
<path d="M304.443 366.928H298.167C298.052 366.116 297.818 365.395 297.465 364.765C297.111 364.125 296.657 363.58 296.103 363.131C295.549 362.682 294.909 362.338 294.183 362.1C293.467 361.861 292.688 361.741 291.848 361.741C290.329 361.741 289.006 362.119 287.879 362.873C286.751 363.618 285.877 364.707 285.256 366.14C284.636 367.564 284.325 369.293 284.325 371.327C284.325 373.419 284.636 375.177 285.256 376.6C285.887 378.024 286.766 379.098 287.893 379.824C289.02 380.55 290.324 380.913 291.805 380.913C292.636 380.913 293.405 380.803 294.112 380.584C294.828 380.364 295.463 380.044 296.017 379.624C296.571 379.194 297.03 378.673 297.393 378.062C297.766 377.45 298.023 376.753 298.167 375.97L304.443 375.998C304.28 377.345 303.874 378.645 303.225 379.896C302.585 381.138 301.72 382.251 300.631 383.235C299.552 384.209 298.262 384.983 296.762 385.556C295.272 386.119 293.586 386.401 291.704 386.401C289.087 386.401 286.747 385.809 284.683 384.624C282.629 383.44 281.006 381.725 279.811 379.48C278.627 377.236 278.035 374.518 278.035 371.327C278.035 368.127 278.637 365.405 279.84 363.16C281.044 360.915 282.677 359.205 284.741 358.03C286.804 356.846 289.125 356.253 291.704 356.253C293.405 356.253 294.981 356.492 296.433 356.97C297.894 357.447 299.189 358.145 300.316 359.062C301.443 359.969 302.36 361.082 303.067 362.4C303.784 363.719 304.242 365.228 304.443 366.928ZM308.085 386V356.655H319.663C321.888 356.655 323.784 357.08 325.351 357.93C326.918 358.77 328.112 359.941 328.933 361.44C329.764 362.931 330.18 364.65 330.18 366.599C330.18 368.547 329.76 370.267 328.919 371.757C328.078 373.247 326.86 374.408 325.265 375.239C323.679 376.07 321.759 376.486 319.505 376.486H312.126V371.514H318.502C319.696 371.514 320.68 371.308 321.454 370.897C322.237 370.477 322.82 369.899 323.202 369.164C323.593 368.419 323.789 367.564 323.789 366.599C323.789 365.624 323.593 364.774 323.202 364.048C322.82 363.313 322.237 362.744 321.454 362.343C320.67 361.932 319.677 361.727 318.473 361.727H314.289V386H308.085ZM351.529 356.655H357.733V375.712C357.733 377.852 357.222 379.724 356.2 381.329C355.187 382.934 353.769 384.185 351.944 385.083C350.12 385.971 347.994 386.416 345.568 386.416C343.132 386.416 341.002 385.971 339.177 385.083C337.353 384.185 335.934 382.934 334.922 381.329C333.909 379.724 333.403 377.852 333.403 375.712V356.655H339.607V375.182C339.607 376.299 339.851 377.293 340.338 378.162C340.835 379.031 341.532 379.714 342.43 380.211C343.328 380.708 344.374 380.956 345.568 380.956C346.772 380.956 347.818 380.708 348.706 380.211C349.604 379.714 350.297 379.031 350.784 378.162C351.28 377.293 351.529 376.299 351.529 375.182V356.655Z" fill="#636363"/>
<path d="M182.976 566.655H190.628L198.709 586.371H199.053L207.135 566.655H214.786V596H208.768V576.9H208.525L200.93 595.857H196.832L189.238 576.828H188.995V596H182.976V566.655ZM219.091 596V566.655H238.865V571.77H225.296V578.762H237.848V583.878H225.296V590.885H238.922V596H219.091ZM242.991 566.655H250.642L258.724 586.371H259.068L267.149 566.655H274.801V596H268.783V576.9H268.539L260.945 595.857H256.847L249.252 576.828H249.009V596H242.991V566.655ZM306.072 581.327C306.072 584.527 305.466 587.25 304.253 589.495C303.049 591.74 301.406 593.454 299.324 594.639C297.251 595.814 294.92 596.401 292.331 596.401C289.723 596.401 287.383 595.809 285.31 594.624C283.237 593.44 281.599 591.725 280.395 589.48C279.192 587.236 278.59 584.518 278.59 581.327C278.59 578.127 279.192 575.405 280.395 573.16C281.599 570.915 283.237 569.205 285.31 568.03C287.383 566.846 289.723 566.253 292.331 566.253C294.92 566.253 297.251 566.846 299.324 568.03C301.406 569.205 303.049 570.915 304.253 573.16C305.466 575.405 306.072 578.127 306.072 581.327ZM299.782 581.327C299.782 579.254 299.472 577.506 298.851 576.083C298.239 574.66 297.375 573.58 296.257 572.845C295.14 572.109 293.831 571.741 292.331 571.741C290.831 571.741 289.523 572.109 288.405 572.845C287.287 573.58 286.418 574.66 285.797 576.083C285.186 577.506 284.88 579.254 284.88 581.327C284.88 583.4 285.186 585.148 285.797 586.572C286.418 587.995 287.287 589.074 288.405 589.81C289.523 590.545 290.831 590.913 292.331 590.913C293.831 590.913 295.14 590.545 296.257 589.81C297.375 589.074 298.239 587.995 298.851 586.572C299.472 585.148 299.782 583.4 299.782 581.327ZM309.861 596V566.655H321.439C323.655 566.655 325.547 567.051 327.113 567.844C328.689 568.627 329.888 569.74 330.71 571.182C331.541 572.615 331.956 574.301 331.956 576.241C331.956 578.189 331.536 579.866 330.696 581.27C329.855 582.665 328.637 583.735 327.042 584.48C325.456 585.225 323.536 585.597 321.281 585.597H313.53V580.611H320.278C321.463 580.611 322.447 580.448 323.23 580.124C324.014 579.799 324.596 579.312 324.978 578.662C325.37 578.013 325.566 577.205 325.566 576.241C325.566 575.266 325.37 574.445 324.978 573.776C324.596 573.107 324.009 572.601 323.216 572.257C322.433 571.904 321.444 571.727 320.25 571.727H316.066V596H309.861ZM325.709 582.646L333.002 596H326.153L319.018 582.646H325.709ZM332.593 566.655H339.543L346.234 579.293H346.521L353.212 566.655H360.162L349.458 585.626V596H343.297V585.626L332.593 566.655Z" fill="#636363"/>
<path d="M93.0473 207.913C92.9042 206.471 92.2904 205.35 91.2056 204.552C90.1209 203.753 88.6488 203.354 86.7893 203.354C85.5258 203.354 84.4589 203.533 83.5888 203.89C82.7186 204.236 82.0511 204.719 81.5862 205.338C81.1333 205.958 80.9068 206.662 80.9068 207.448C80.8829 208.104 81.02 208.676 81.318 209.165C81.6279 209.653 82.0511 210.077 82.5875 210.434C83.1239 210.78 83.7437 211.084 84.447 211.346C85.1503 211.596 85.9013 211.811 86.6999 211.99L89.9898 212.776C91.5871 213.134 93.0532 213.611 94.3883 214.207C95.7233 214.803 96.8796 215.536 97.857 216.406C98.8344 217.276 99.5914 218.301 100.128 219.481C100.676 220.662 100.956 222.014 100.968 223.54C100.956 225.781 100.384 227.724 99.2516 229.369C98.1312 231.002 96.51 232.272 94.3883 233.178C92.2784 234.072 89.7335 234.519 86.7535 234.519C83.7974 234.519 81.2227 234.066 79.0294 233.16C76.848 232.254 75.1435 230.913 73.9157 229.137C72.6999 227.349 72.0622 225.137 72.0026 222.503H79.4943C79.5777 223.731 79.9293 224.756 80.5492 225.579C81.1809 226.389 82.0213 227.003 83.0703 227.42C84.1311 227.825 85.3291 228.028 86.6641 228.028C87.9753 228.028 89.1137 227.837 90.0792 227.456C91.0566 227.074 91.8136 226.544 92.35 225.865C92.8864 225.185 93.1546 224.404 93.1546 223.522C93.1546 222.7 92.9102 222.008 92.4215 221.448C91.9447 220.888 91.2414 220.411 90.3116 220.018C89.3938 219.625 88.2674 219.267 86.9323 218.945L82.9451 217.944C79.8578 217.193 77.4202 216.019 75.6322 214.421C73.8442 212.824 72.9562 210.673 72.9681 207.967C72.9562 205.75 73.5462 203.813 74.7382 202.156C75.9421 200.499 77.593 199.206 79.6909 198.276C81.7889 197.346 84.1729 196.881 86.8429 196.881C89.5607 196.881 91.9328 197.346 93.9592 198.276C95.9975 199.206 97.5828 200.499 98.7152 202.156C99.8476 203.813 100.432 205.732 100.467 207.913H93.0473ZM105.026 234V206.536H112.642V234H105.026ZM108.852 202.996C107.72 202.996 106.748 202.621 105.937 201.87C105.139 201.107 104.74 200.195 104.74 199.134C104.74 198.085 105.139 197.185 105.937 196.434C106.748 195.671 107.72 195.29 108.852 195.29C109.984 195.29 110.95 195.671 111.748 196.434C112.559 197.185 112.964 198.085 112.964 199.134C112.964 200.195 112.559 201.107 111.748 201.87C110.95 202.621 109.984 202.996 108.852 202.996ZM125.354 218.123V234H117.737V206.536H124.996V211.382H125.318C125.926 209.785 126.945 208.521 128.376 207.591C129.806 206.65 131.54 206.179 133.579 206.179C135.486 206.179 137.149 206.596 138.567 207.43C139.986 208.265 141.088 209.457 141.875 211.006C142.662 212.544 143.055 214.38 143.055 216.513V234H135.438V217.872C135.45 216.192 135.021 214.88 134.151 213.939C133.281 212.985 132.083 212.508 130.557 212.508C129.532 212.508 128.626 212.729 127.839 213.17C127.064 213.611 126.456 214.255 126.015 215.101C125.586 215.935 125.366 216.943 125.354 218.123ZM160.424 244.871C157.957 244.871 155.841 244.531 154.077 243.852C152.325 243.184 150.93 242.272 149.893 241.116C148.856 239.96 148.182 238.661 147.872 237.218L154.917 236.271C155.132 236.819 155.471 237.332 155.936 237.808C156.401 238.285 157.015 238.667 157.778 238.953C158.553 239.251 159.494 239.4 160.603 239.4C162.26 239.4 163.625 238.994 164.698 238.184C165.782 237.385 166.325 236.044 166.325 234.161V229.137H166.003C165.669 229.9 165.168 230.621 164.501 231.3C163.833 231.98 162.975 232.534 161.926 232.963C160.877 233.392 159.626 233.607 158.171 233.607C156.109 233.607 154.232 233.13 152.539 232.176C150.858 231.211 149.517 229.739 148.516 227.76C147.527 225.769 147.032 223.254 147.032 220.215C147.032 217.103 147.539 214.505 148.552 212.419C149.565 210.333 150.912 208.771 152.593 207.734C154.285 206.697 156.139 206.179 158.153 206.179C159.691 206.179 160.978 206.441 162.016 206.965C163.053 207.478 163.887 208.122 164.519 208.897C165.162 209.659 165.657 210.41 166.003 211.149H166.289V206.536H173.852V234.268C173.852 236.605 173.28 238.559 172.136 240.133C170.991 241.706 169.406 242.886 167.38 243.673C165.365 244.472 163.047 244.871 160.424 244.871ZM160.585 227.885C161.813 227.885 162.85 227.581 163.696 226.973C164.554 226.353 165.21 225.471 165.663 224.327C166.128 223.171 166.36 221.788 166.36 220.179C166.36 218.57 166.134 217.175 165.681 215.995C165.228 214.803 164.572 213.879 163.714 213.223C162.856 212.568 161.813 212.24 160.585 212.24C159.334 212.24 158.279 212.58 157.42 213.259C156.562 213.927 155.912 214.857 155.471 216.049C155.03 217.241 154.81 218.617 154.81 220.179C154.81 221.764 155.03 223.135 155.471 224.291C155.924 225.435 156.574 226.324 157.42 226.955C158.279 227.575 159.334 227.885 160.585 227.885ZM186.523 197.382V234H178.906V197.382H186.523ZM204.134 234.536C201.309 234.536 198.877 233.964 196.839 232.82C194.812 231.664 193.251 230.031 192.154 227.921C191.058 225.799 190.509 223.29 190.509 220.393C190.509 217.568 191.058 215.089 192.154 212.955C193.251 210.822 194.794 209.159 196.785 207.967C198.788 206.775 201.136 206.179 203.83 206.179C205.642 206.179 207.328 206.471 208.89 207.055C210.463 207.627 211.834 208.491 213.002 209.647C214.182 210.804 215.1 212.258 215.756 214.01C216.411 215.751 216.739 217.789 216.739 220.125V222.217H193.549V217.497H209.569C209.569 216.4 209.331 215.429 208.854 214.582C208.377 213.736 207.716 213.074 206.869 212.598C206.035 212.109 205.064 211.865 203.955 211.865C202.799 211.865 201.774 212.133 200.88 212.669C199.998 213.194 199.306 213.903 198.806 214.797C198.305 215.679 198.049 216.662 198.037 217.747V222.235C198.037 223.594 198.287 224.768 198.788 225.757C199.3 226.747 200.021 227.51 200.951 228.046C201.881 228.582 202.983 228.851 204.259 228.851C205.105 228.851 205.88 228.731 206.583 228.493C207.287 228.255 207.889 227.897 208.389 227.42C208.89 226.943 209.271 226.359 209.534 225.668L216.578 226.133C216.221 227.825 215.488 229.304 214.379 230.567C213.282 231.819 211.864 232.796 210.124 233.499C208.395 234.191 206.399 234.536 204.134 234.536ZM239.234 197.382V234H231.492V197.382H239.234ZM252.071 218.123V234H244.454V206.536H251.713V211.382H252.035C252.643 209.785 253.662 208.521 255.092 207.591C256.523 206.65 258.257 206.179 260.295 206.179C262.203 206.179 263.865 206.596 265.284 207.43C266.702 208.265 267.805 209.457 268.592 211.006C269.378 212.544 269.772 214.38 269.772 216.513V234H262.155V217.872C262.167 216.192 261.738 214.88 260.868 213.939C259.997 212.985 258.8 212.508 257.274 212.508C256.249 212.508 255.343 212.729 254.556 213.17C253.781 213.611 253.173 214.255 252.732 215.101C252.303 215.935 252.083 216.943 252.071 218.123ZM287.141 244.871C284.674 244.871 282.558 244.531 280.794 243.852C279.041 243.184 277.647 242.272 276.61 241.116C275.573 239.96 274.899 238.661 274.589 237.218L281.634 236.271C281.849 236.819 282.188 237.332 282.653 237.808C283.118 238.285 283.732 238.667 284.495 238.953C285.27 239.251 286.211 239.4 287.32 239.4C288.977 239.4 290.342 238.994 291.414 238.184C292.499 237.385 293.041 236.044 293.041 234.161V229.137H292.72C292.386 229.9 291.885 230.621 291.218 231.3C290.55 231.98 289.692 232.534 288.643 232.963C287.594 233.392 286.342 233.607 284.888 233.607C282.826 233.607 280.949 233.13 279.256 232.176C277.575 231.211 276.234 229.739 275.233 227.76C274.244 225.769 273.749 223.254 273.749 220.215C273.749 217.103 274.255 214.505 275.269 212.419C276.282 210.333 277.629 208.771 279.31 207.734C281.002 206.697 282.856 206.179 284.87 206.179C286.408 206.179 287.695 206.441 288.732 206.965C289.769 207.478 290.604 208.122 291.236 208.897C291.879 209.659 292.374 210.41 292.72 211.149H293.006V206.536H300.569V234.268C300.569 236.605 299.997 238.559 298.852 240.133C297.708 241.706 296.123 242.886 294.096 243.673C292.082 244.472 289.763 244.871 287.141 244.871ZM287.302 227.885C288.53 227.885 289.567 227.581 290.413 226.973C291.271 226.353 291.927 225.471 292.38 224.327C292.845 223.171 293.077 221.788 293.077 220.179C293.077 218.57 292.851 217.175 292.398 215.995C291.945 214.803 291.289 213.879 290.431 213.223C289.573 212.568 288.53 212.24 287.302 212.24C286.05 212.24 284.995 212.58 284.137 213.259C283.279 213.927 282.629 214.857 282.188 216.049C281.747 217.241 281.527 218.617 281.527 220.179C281.527 221.764 281.747 223.135 282.188 224.291C282.641 225.435 283.291 226.324 284.137 226.955C284.995 227.575 286.05 227.885 287.302 227.885ZM305.623 234V206.536H313.008V211.328H313.294C313.794 209.624 314.635 208.336 315.815 207.466C316.995 206.584 318.354 206.143 319.891 206.143C320.273 206.143 320.684 206.167 321.125 206.215C321.566 206.262 321.954 206.328 322.287 206.411V213.17C321.93 213.063 321.435 212.967 320.803 212.884C320.171 212.8 319.593 212.759 319.069 212.759C317.948 212.759 316.947 213.003 316.065 213.492C315.195 213.968 314.504 214.636 313.991 215.494C313.49 216.352 313.24 217.342 313.24 218.462V234H305.623ZM336.456 234.536C333.631 234.536 331.199 233.964 329.161 232.82C327.134 231.664 325.573 230.031 324.476 227.921C323.38 225.799 322.831 223.29 322.831 220.393C322.831 217.568 323.38 215.089 324.476 212.955C325.573 210.822 327.117 209.159 329.107 207.967C331.11 206.775 333.458 206.179 336.152 206.179C337.964 206.179 339.65 206.471 341.212 207.055C342.785 207.627 344.156 208.491 345.324 209.647C346.504 210.804 347.422 212.258 348.078 214.01C348.733 215.751 349.061 217.789 349.061 220.125V222.217H325.871V217.497H341.891C341.891 216.4 341.653 215.429 341.176 214.582C340.699 213.736 340.038 213.074 339.192 212.598C338.357 212.109 337.386 211.865 336.277 211.865C335.121 211.865 334.096 212.133 333.202 212.669C332.32 213.194 331.628 213.903 331.128 214.797C330.627 215.679 330.371 216.662 330.359 217.747V222.235C330.359 223.594 330.609 224.768 331.11 225.757C331.622 226.747 332.344 227.51 333.273 228.046C334.203 228.582 335.306 228.851 336.581 228.851C337.427 228.851 338.202 228.731 338.905 228.493C339.609 228.255 340.211 227.897 340.711 227.42C341.212 226.943 341.593 226.359 341.856 225.668L348.9 226.133C348.543 227.825 347.81 229.304 346.701 230.567C345.604 231.819 344.186 232.796 342.446 233.499C340.717 234.191 338.721 234.536 336.456 234.536ZM375.876 214.368L368.902 214.797C368.783 214.201 368.527 213.665 368.133 213.188C367.74 212.699 367.222 212.312 366.578 212.026C365.946 211.728 365.189 211.579 364.307 211.579C363.127 211.579 362.132 211.829 361.321 212.329C360.511 212.818 360.105 213.474 360.105 214.296C360.105 214.952 360.368 215.506 360.892 215.959C361.417 216.412 362.317 216.776 363.592 217.05L368.563 218.051C371.233 218.599 373.223 219.481 374.535 220.697C375.846 221.913 376.501 223.51 376.501 225.489C376.501 227.289 375.971 228.868 374.91 230.227C373.861 231.586 372.419 232.647 370.583 233.41C368.759 234.161 366.655 234.536 364.271 234.536C360.636 234.536 357.739 233.779 355.582 232.266C353.436 230.74 352.179 228.666 351.809 226.043L359.301 225.65C359.527 226.759 360.076 227.605 360.946 228.189C361.816 228.761 362.93 229.047 364.289 229.047C365.624 229.047 366.697 228.791 367.508 228.278C368.33 227.754 368.747 227.08 368.759 226.258C368.747 225.567 368.455 225 367.883 224.559C367.311 224.106 366.429 223.761 365.237 223.522L360.481 222.575C357.799 222.038 355.802 221.109 354.491 219.785C353.192 218.462 352.542 216.776 352.542 214.725C352.542 212.961 353.019 211.441 353.973 210.166C354.938 208.891 356.291 207.907 358.031 207.216C359.784 206.524 361.834 206.179 364.182 206.179C367.651 206.179 370.38 206.912 372.371 208.378C374.374 209.844 375.542 211.841 375.876 214.368ZM403.141 214.368L396.168 214.797C396.049 214.201 395.793 213.665 395.399 213.188C395.006 212.699 394.487 212.312 393.844 212.026C393.212 211.728 392.455 211.579 391.573 211.579C390.393 211.579 389.397 211.829 388.587 212.329C387.776 212.818 387.371 213.474 387.371 214.296C387.371 214.952 387.633 215.506 388.158 215.959C388.682 216.412 389.582 216.776 390.858 217.05L395.828 218.051C398.498 218.599 400.489 219.481 401.8 220.697C403.111 221.913 403.767 223.51 403.767 225.489C403.767 227.289 403.237 228.868 402.176 230.227C401.127 231.586 399.684 232.647 397.849 233.41C396.025 234.161 393.921 234.536 391.537 234.536C387.902 234.536 385.005 233.779 382.847 232.266C380.702 230.74 379.444 228.666 379.075 226.043L386.567 225.65C386.793 226.759 387.341 227.605 388.211 228.189C389.082 228.761 390.196 229.047 391.555 229.047C392.89 229.047 393.963 228.791 394.773 228.278C395.596 227.754 396.013 227.08 396.025 226.258C396.013 225.567 395.721 225 395.149 224.559C394.577 224.106 393.695 223.761 392.503 223.522L387.747 222.575C385.065 222.038 383.068 221.109 381.757 219.785C380.458 218.462 379.808 216.776 379.808 214.725C379.808 212.961 380.285 211.441 381.238 210.166C382.204 208.891 383.557 207.907 385.297 207.216C387.049 206.524 389.099 206.179 391.448 206.179C394.916 206.179 397.646 206.912 399.637 208.378C401.639 209.844 402.807 211.841 403.141 214.368Z" fill="black"/>
</svg>
