<svg width="1200" height="900" viewBox="0 0 1200 900" fill="none" xmlns="http://www.w3.org/2000/svg">
<rect width="1200" height="900" fill="white"/>
<path d="M151.524 417.291V483H137.632V430.478H137.247L122.199 439.91V427.59L138.466 417.291H151.524ZM190.028 484.444C184.509 484.422 179.761 483.064 175.782 480.369C171.825 477.674 168.777 473.77 166.638 468.658C164.521 463.546 163.473 457.397 163.494 450.21C163.494 443.044 164.553 436.937 166.67 431.889C168.809 426.841 171.857 423.002 175.814 420.371C179.793 417.719 184.531 416.393 190.028 416.393C195.525 416.393 200.252 417.719 204.209 420.371C208.188 423.023 211.246 426.873 213.385 431.921C215.524 436.948 216.583 443.044 216.562 450.21C216.562 457.418 215.492 463.578 213.353 468.69C211.236 473.802 208.198 477.706 204.241 480.401C200.284 483.096 195.546 484.444 190.028 484.444ZM190.028 472.925C193.792 472.925 196.798 471.032 199.044 467.247C201.29 463.461 202.402 457.782 202.38 450.21C202.38 445.226 201.867 441.076 200.84 437.761C199.835 434.445 198.402 431.954 196.541 430.285C194.702 428.617 192.53 427.783 190.028 427.783C186.285 427.783 183.29 429.654 181.044 433.397C178.798 437.141 177.665 442.745 177.643 450.21C177.643 455.258 178.146 459.471 179.151 462.851C180.178 466.209 181.622 468.733 183.483 470.423C185.344 472.091 187.525 472.925 190.028 472.925ZM249.354 484.444C243.836 484.422 239.087 483.064 235.109 480.369C231.152 477.674 228.104 473.77 225.965 468.658C223.847 463.546 222.799 457.397 222.82 450.21C222.82 443.044 223.879 436.937 225.997 431.889C228.136 426.841 231.184 423.002 235.141 420.371C239.119 417.719 243.857 416.393 249.354 416.393C254.851 416.393 259.579 417.719 263.536 420.371C267.514 423.023 270.573 426.873 272.712 431.921C274.851 436.948 275.91 443.044 275.888 450.21C275.888 457.418 274.819 463.578 272.68 468.69C270.562 473.802 267.525 477.706 263.568 480.401C259.611 483.096 254.873 484.444 249.354 484.444ZM249.354 472.925C253.119 472.925 256.124 471.032 258.37 467.247C260.616 463.461 261.728 457.782 261.707 450.21C261.707 445.226 261.194 441.076 260.167 437.761C259.162 434.445 257.728 431.954 255.868 430.285C254.028 428.617 251.857 427.783 249.354 427.783C245.611 427.783 242.617 429.654 240.371 433.397C238.125 437.141 236.991 442.745 236.97 450.21C236.97 455.258 237.472 459.471 238.478 462.851C239.504 466.209 240.948 468.733 242.809 470.423C244.67 472.091 246.852 472.925 249.354 472.925ZM283.045 483V433.718H296.072V442.413H296.649C297.676 439.525 299.387 437.247 301.783 435.579C304.178 433.911 307.044 433.076 310.381 433.076C313.761 433.076 316.638 433.921 319.012 435.611C321.386 437.28 322.969 439.547 323.761 442.413H324.274C325.279 439.59 327.097 437.333 329.728 435.643C332.381 433.932 335.514 433.076 339.129 433.076C343.728 433.076 347.46 434.542 350.327 437.472C353.214 440.381 354.658 444.509 354.658 449.857V483H341.022V452.552C341.022 449.814 340.295 447.761 338.84 446.392C337.386 445.023 335.568 444.338 333.386 444.338C330.905 444.338 328.969 445.13 327.579 446.712C326.188 448.274 325.493 450.338 325.493 452.905V483H312.242V452.263C312.242 449.846 311.547 447.921 310.157 446.488C308.788 445.055 306.98 444.338 304.734 444.338C303.216 444.338 301.847 444.723 300.628 445.493C299.43 446.242 298.478 447.301 297.772 448.67C297.066 450.017 296.713 451.6 296.713 453.418V483H283.045Z" fill="black"/>
<path d="M168.593 626.393C171.973 626.393 175.224 626.959 178.347 628.093C181.491 629.227 184.293 631.034 186.753 633.515C189.234 635.997 191.191 639.291 192.625 643.397C194.079 647.483 194.817 652.499 194.838 658.445C194.838 664.028 194.207 669.011 192.945 673.396C191.705 677.76 189.919 681.471 187.587 684.53C185.256 687.588 182.443 689.92 179.149 691.524C175.855 693.107 172.176 693.898 168.112 693.898C163.727 693.898 159.856 693.053 156.497 691.364C153.139 689.653 150.433 687.332 148.38 684.401C146.348 681.45 145.118 678.134 144.69 674.455H158.39C158.925 676.851 160.048 678.712 161.759 680.038C163.47 681.343 165.588 681.995 168.112 681.995C172.39 681.995 175.641 680.134 177.866 676.412C180.09 672.669 181.213 667.546 181.235 661.044H180.785C179.801 662.969 178.475 664.627 176.807 666.017C175.138 667.386 173.224 668.445 171.064 669.193C168.925 669.942 166.647 670.316 164.23 670.316C160.358 670.316 156.904 669.407 153.866 667.589C150.829 665.771 148.433 663.268 146.68 660.081C144.926 656.894 144.049 653.258 144.049 649.173C144.027 644.766 145.043 640.841 147.097 637.398C149.15 633.954 152.016 631.259 155.695 629.312C159.396 627.344 163.695 626.371 168.593 626.393ZM168.689 637.301C166.529 637.301 164.604 637.815 162.914 638.841C161.246 639.868 159.92 641.248 158.936 642.98C157.973 644.713 157.503 646.649 157.524 648.788C157.524 650.948 157.995 652.894 158.936 654.627C159.898 656.338 161.203 657.707 162.85 658.734C164.518 659.739 166.422 660.242 168.561 660.242C170.165 660.242 171.652 659.942 173.021 659.343C174.39 658.744 175.577 657.921 176.582 656.873C177.609 655.803 178.411 654.573 178.989 653.183C179.566 651.793 179.855 650.317 179.855 648.755C179.834 646.681 179.342 644.777 178.379 643.044C177.416 641.312 176.09 639.922 174.401 638.873C172.711 637.825 170.807 637.301 168.689 637.301ZM227.35 694.444C221.832 694.422 217.083 693.064 213.105 690.369C209.148 687.674 206.1 683.77 203.961 678.658C201.843 673.546 200.795 667.397 200.816 660.21C200.816 653.044 201.875 646.937 203.993 641.889C206.132 636.841 209.18 633.002 213.137 630.371C217.115 627.719 221.853 626.393 227.35 626.393C232.847 626.393 237.574 627.719 241.532 630.371C245.51 633.023 248.569 636.873 250.708 641.921C252.847 646.948 253.905 653.044 253.884 660.21C253.884 667.418 252.815 673.578 250.676 678.69C248.558 683.802 245.521 687.706 241.564 690.401C237.607 693.096 232.869 694.444 227.35 694.444ZM227.35 682.925C231.115 682.925 234.12 681.032 236.366 677.247C238.612 673.461 239.724 667.782 239.703 660.21C239.703 655.226 239.189 651.076 238.163 647.761C237.157 644.445 235.724 641.954 233.863 640.285C232.024 638.617 229.853 637.783 227.35 637.783C223.607 637.783 220.612 639.654 218.367 643.397C216.121 647.141 214.987 652.745 214.966 660.21C214.966 665.258 215.468 669.471 216.474 672.851C217.5 676.209 218.944 678.733 220.805 680.423C222.666 682.091 224.848 682.925 227.35 682.925ZM261.298 627.291H278.431L296.527 671.439H297.297L315.392 627.291H332.525V693H319.05V650.231H318.505L301.5 692.679H292.324L275.319 650.071H274.773V693H261.298V627.291ZM340.838 693V643.718H354.506V693H340.838ZM347.704 637.365C345.672 637.365 343.928 636.692 342.474 635.344C341.041 633.975 340.324 632.339 340.324 630.435C340.324 628.553 341.041 626.938 342.474 625.59C343.928 624.221 345.672 623.537 347.704 623.537C349.736 623.537 351.468 624.221 352.901 625.59C354.356 626.938 355.083 628.553 355.083 630.435C355.083 632.339 354.356 633.975 352.901 635.344C351.468 636.692 349.736 637.365 347.704 637.365Z" fill="black"/>
<path d="M304.443 366.928H298.167C298.052 366.116 297.818 365.395 297.465 364.765C297.111 364.125 296.657 363.58 296.103 363.131C295.549 362.682 294.909 362.338 294.183 362.1C293.467 361.861 292.688 361.741 291.848 361.741C290.329 361.741 289.006 362.119 287.879 362.873C286.751 363.618 285.877 364.707 285.256 366.14C284.636 367.564 284.325 369.293 284.325 371.327C284.325 373.419 284.636 375.177 285.256 376.6C285.887 378.024 286.766 379.098 287.893 379.824C289.02 380.55 290.324 380.913 291.805 380.913C292.636 380.913 293.405 380.803 294.112 380.584C294.828 380.364 295.463 380.044 296.017 379.624C296.571 379.194 297.03 378.673 297.393 378.062C297.766 377.45 298.023 376.753 298.167 375.97L304.443 375.998C304.28 377.345 303.874 378.645 303.225 379.896C302.585 381.138 301.72 382.251 300.631 383.235C299.552 384.209 298.262 384.983 296.762 385.556C295.272 386.119 293.586 386.401 291.704 386.401C289.087 386.401 286.747 385.809 284.683 384.624C282.629 383.44 281.006 381.725 279.811 379.48C278.627 377.236 278.035 374.518 278.035 371.327C278.035 368.127 278.637 365.405 279.84 363.16C281.044 360.915 282.677 359.205 284.741 358.03C286.804 356.846 289.125 356.253 291.704 356.253C293.405 356.253 294.981 356.492 296.433 356.97C297.894 357.447 299.189 358.145 300.316 359.062C301.443 359.969 302.36 361.082 303.067 362.4C303.784 363.719 304.242 365.228 304.443 366.928ZM308.085 386V356.655H319.663C321.888 356.655 323.784 357.08 325.351 357.93C326.918 358.77 328.112 359.941 328.933 361.44C329.764 362.931 330.18 364.65 330.18 366.599C330.18 368.547 329.76 370.267 328.919 371.757C328.078 373.247 326.86 374.408 325.265 375.239C323.679 376.07 321.759 376.486 319.505 376.486H312.126V371.514H318.502C319.696 371.514 320.68 371.308 321.454 370.897C322.237 370.477 322.82 369.899 323.202 369.164C323.593 368.419 323.789 367.564 323.789 366.599C323.789 365.624 323.593 364.774 323.202 364.048C322.82 363.313 322.237 362.744 321.454 362.343C320.67 361.932 319.677 361.727 318.473 361.727H314.289V386H308.085ZM351.529 356.655H357.733V375.712C357.733 377.852 357.222 379.724 356.2 381.329C355.187 382.934 353.769 384.185 351.944 385.083C350.12 385.971 347.994 386.416 345.568 386.416C343.132 386.416 341.002 385.971 339.177 385.083C337.353 384.185 335.934 382.934 334.922 381.329C333.909 379.724 333.403 377.852 333.403 375.712V356.655H339.607V375.182C339.607 376.299 339.851 377.293 340.338 378.162C340.835 379.031 341.532 379.714 342.43 380.211C343.328 380.708 344.374 380.956 345.568 380.956C346.772 380.956 347.818 380.708 348.706 380.211C349.604 379.714 350.297 379.031 350.784 378.162C351.28 377.293 351.529 376.299 351.529 375.182V356.655Z" fill="#636363"/>
<path d="M182.976 566.655H190.628L198.709 586.371H199.053L207.135 566.655H214.786V596H208.768V576.9H208.525L200.93 595.857H196.832L189.238 576.828H188.995V596H182.976V566.655ZM219.091 596V566.655H238.865V571.77H225.296V578.762H237.848V583.878H225.296V590.885H238.922V596H219.091ZM242.991 566.655H250.642L258.724 586.371H259.068L267.149 566.655H274.801V596H268.783V576.9H268.539L260.945 595.857H256.847L249.252 576.828H249.009V596H242.991V566.655ZM306.072 581.327C306.072 584.527 305.466 587.25 304.253 589.495C303.049 591.74 301.406 593.454 299.324 594.639C297.251 595.814 294.92 596.401 292.331 596.401C289.723 596.401 287.383 595.809 285.31 594.624C283.237 593.44 281.599 591.725 280.395 589.48C279.192 587.236 278.59 584.518 278.59 581.327C278.59 578.127 279.192 575.405 280.395 573.16C281.599 570.915 283.237 569.205 285.31 568.03C287.383 566.846 289.723 566.253 292.331 566.253C294.92 566.253 297.251 566.846 299.324 568.03C301.406 569.205 303.049 570.915 304.253 573.16C305.466 575.405 306.072 578.127 306.072 581.327ZM299.782 581.327C299.782 579.254 299.472 577.506 298.851 576.083C298.239 574.66 297.375 573.58 296.257 572.845C295.14 572.109 293.831 571.741 292.331 571.741C290.831 571.741 289.523 572.109 288.405 572.845C287.287 573.58 286.418 574.66 285.797 576.083C285.186 577.506 284.88 579.254 284.88 581.327C284.88 583.4 285.186 585.148 285.797 586.572C286.418 587.995 287.287 589.074 288.405 589.81C289.523 590.545 290.831 590.913 292.331 590.913C293.831 590.913 295.14 590.545 296.257 589.81C297.375 589.074 298.239 587.995 298.851 586.572C299.472 585.148 299.782 583.4 299.782 581.327ZM309.861 596V566.655H321.439C323.655 566.655 325.547 567.051 327.113 567.844C328.689 568.627 329.888 569.74 330.71 571.182C331.541 572.615 331.956 574.301 331.956 576.241C331.956 578.189 331.536 579.866 330.696 581.27C329.855 582.665 328.637 583.735 327.042 584.48C325.456 585.225 323.536 585.597 321.281 585.597H313.53V580.611H320.278C321.463 580.611 322.447 580.448 323.23 580.124C324.014 579.799 324.596 579.312 324.978 578.662C325.37 578.013 325.566 577.205 325.566 576.241C325.566 575.266 325.37 574.445 324.978 573.776C324.596 573.107 324.009 572.601 323.216 572.257C322.433 571.904 321.444 571.727 320.25 571.727H316.066V596H309.861ZM325.709 582.646L333.002 596H326.153L319.018 582.646H325.709ZM332.593 566.655H339.543L346.234 579.293H346.521L353.212 566.655H360.162L349.458 585.626V596H343.297V585.626L332.593 566.655Z" fill="#636363"/>
<path d="M93.0473 207.913C92.9042 206.471 92.2904 205.35 91.2056 204.552C90.1209 203.753 88.6488 203.354 86.7893 203.354C85.5258 203.354 84.4589 203.533 83.5888 203.89C82.7186 204.236 82.0511 204.719 81.5862 205.338C81.1333 205.958 80.9068 206.662 80.9068 207.448C80.8829 208.104 81.02 208.676 81.318 209.165C81.6279 209.653 82.0511 210.077 82.5875 210.434C83.1239 210.78 83.7437 211.084 84.447 211.346C85.1503 211.596 85.9013 211.811 86.6999 211.99L89.9898 212.776C91.5871 213.134 93.0532 213.611 94.3883 214.207C95.7233 214.803 96.8796 215.536 97.857 216.406C98.8344 217.276 99.5914 218.301 100.128 219.481C100.676 220.662 100.956 222.014 100.968 223.54C100.956 225.781 100.384 227.724 99.2516 229.369C98.1312 231.002 96.51 232.272 94.3883 233.178C92.2784 234.072 89.7335 234.519 86.7535 234.519C83.7974 234.519 81.2227 234.066 79.0294 233.16C76.848 232.254 75.1435 230.913 73.9157 229.137C72.6999 227.349 72.0622 225.137 72.0026 222.503H79.4943C79.5777 223.731 79.9293 224.756 80.5492 225.579C81.1809 226.389 82.0213 227.003 83.0703 227.42C84.1311 227.825 85.3291 228.028 86.6641 228.028C87.9753 228.028 89.1137 227.837 90.0792 227.456C91.0566 227.074 91.8136 226.544 92.35 225.865C92.8864 225.185 93.1546 224.404 93.1546 223.522C93.1546 222.7 92.9102 222.008 92.4215 221.448C91.9447 220.888 91.2414 220.411 90.3116 220.018C89.3938 219.625 88.2674 219.267 86.9323 218.945L82.9451 217.944C79.8578 217.193 77.4202 216.019 75.6322 214.421C73.8442 212.824 72.9562 210.673 72.9681 207.967C72.9562 205.75 73.5462 203.813 74.7382 202.156C75.9421 200.499 77.593 199.206 79.6909 198.276C81.7889 197.346 84.1729 196.881 86.8429 196.881C89.5607 196.881 91.9328 197.346 93.9592 198.276C95.9975 199.206 97.5828 200.499 98.7152 202.156C99.8476 203.813 100.432 205.732 100.467 207.913H93.0473ZM105.026 234V206.536H112.642V234H105.026ZM108.852 202.996C107.72 202.996 106.748 202.621 105.937 201.87C105.139 201.107 104.74 200.195 104.74 199.134C104.74 198.085 105.139 197.185 105.937 196.434C106.748 195.671 107.72 195.29 108.852 195.29C109.984 195.29 110.95 195.671 111.748 196.434C112.559 197.185 112.964 198.085 112.964 199.134C112.964 200.195 112.559 201.107 111.748 201.87C110.95 202.621 109.984 202.996 108.852 202.996ZM125.354 218.123V234H117.737V206.536H124.996V211.382H125.318C125.926 209.785 126.945 208.521 128.376 207.591C129.806 206.65 131.54 206.179 133.579 206.179C135.486 206.179 137.149 206.596 138.567 207.43C139.986 208.265 141.088 209.457 141.875 211.006C142.662 212.544 143.055 214.38 143.055 216.513V234H135.438V217.872C135.45 216.192 135.021 214.88 134.151 213.939C133.281 212.985 132.083 212.508 130.557 212.508C129.532 212.508 128.626 212.729 127.839 213.17C127.064 213.611 126.456 214.255 126.015 215.101C125.586 215.935 125.366 216.943 125.354 218.123ZM160.424 244.871C157.957 244.871 155.841 244.531 154.077 243.852C152.325 243.184 150.93 242.272 149.893 241.116C148.856 239.96 148.182 238.661 147.872 237.218L154.917 236.271C155.132 236.819 155.471 237.332 155.936 237.808C156.401 238.285 157.015 238.667 157.778 238.953C158.553 239.251 159.494 239.4 160.603 239.4C162.26 239.4 163.625 238.994 164.698 238.184C165.782 237.385 166.325 236.044 166.325 234.161V229.137H166.003C165.669 229.9 165.168 230.621 164.501 231.3C163.833 231.98 162.975 232.534 161.926 232.963C160.877 233.392 159.626 233.607 158.171 233.607C156.109 233.607 154.232 233.13 152.539 232.176C150.858 231.211 149.517 229.739 148.516 227.76C147.527 225.769 147.032 223.254 147.032 220.215C147.032 217.103 147.539 214.505 148.552 212.419C149.565 210.333 150.912 208.771 152.593 207.734C154.285 206.697 156.139 206.179 158.153 206.179C159.691 206.179 160.978 206.441 162.016 206.965C163.053 207.478 163.887 208.122 164.519 208.897C165.162 209.659 165.657 210.41 166.003 211.149H166.289V206.536H173.852V234.268C173.852 236.605 173.28 238.559 172.136 240.133C170.991 241.706 169.406 242.886 167.38 243.673C165.365 244.472 163.047 244.871 160.424 244.871ZM160.585 227.885C161.813 227.885 162.85 227.581 163.696 226.973C164.554 226.353 165.21 225.471 165.663 224.327C166.128 223.171 166.36 221.788 166.36 220.179C166.36 218.57 166.134 217.175 165.681 215.995C165.228 214.803 164.572 213.879 163.714 213.223C162.856 212.568 161.813 212.24 160.585 212.24C159.334 212.24 158.279 212.58 157.42 213.259C156.562 213.927 155.912 214.857 155.471 216.049C155.03 217.241 154.81 218.617 154.81 220.179C154.81 221.764 155.03 223.135 155.471 224.291C155.924 225.435 156.574 226.324 157.42 226.955C158.279 227.575 159.334 227.885 160.585 227.885ZM186.523 197.382V234H178.906V197.382H186.523ZM204.134 234.536C201.309 234.536 198.877 233.964 196.839 232.82C194.812 231.664 193.251 230.031 192.154 227.921C191.058 225.799 190.509 223.29 190.509 220.393C190.509 217.568 191.058 215.089 192.154 212.955C193.251 210.822 194.794 209.159 196.785 207.967C198.788 206.775 201.136 206.179 203.83 206.179C205.642 206.179 207.328 206.471 208.89 207.055C210.463 207.627 211.834 208.491 213.002 209.647C214.182 210.804 215.1 212.258 215.756 214.01C216.411 215.751 216.739 217.789 216.739 220.125V222.217H193.549V217.497H209.569C209.569 216.4 209.331 215.429 208.854 214.582C208.377 213.736 207.716 213.074 206.869 212.598C206.035 212.109 205.064 211.865 203.955 211.865C202.799 211.865 201.774 212.133 200.88 212.669C199.998 213.194 199.306 213.903 198.806 214.797C198.305 215.679 198.049 216.662 198.037 217.747V222.235C198.037 223.594 198.287 224.768 198.788 225.757C199.3 226.747 200.021 227.51 200.951 228.046C201.881 228.582 202.983 228.851 204.259 228.851C205.105 228.851 205.88 228.731 206.583 228.493C207.287 228.255 207.889 227.897 208.389 227.42C208.89 226.943 209.271 226.359 209.534 225.668L216.578 226.133C216.221 227.825 215.488 229.304 214.379 230.567C213.282 231.819 211.864 232.796 210.124 233.499C208.395 234.191 206.399 234.536 204.134 234.536ZM239.234 197.382V234H231.492V197.382H239.234ZM252.071 218.123V234H244.454V206.536H251.713V211.382H252.035C252.643 209.785 253.662 208.521 255.092 207.591C256.523 206.65 258.257 206.179 260.295 206.179C262.203 206.179 263.865 206.596 265.284 207.43C266.702 208.265 267.805 209.457 268.592 211.006C269.378 212.544 269.772 214.38 269.772 216.513V234H262.155V217.872C262.167 216.192 261.738 214.88 260.868 213.939C259.997 212.985 258.8 212.508 257.274 212.508C256.249 212.508 255.343 212.729 254.556 213.17C253.781 213.611 253.173 214.255 252.732 215.101C252.303 215.935 252.083 216.943 252.071 218.123ZM287.141 244.871C284.674 244.871 282.558 244.531 280.794 243.852C279.041 243.184 277.647 242.272 276.61 241.116C275.573 239.96 274.899 238.661 274.589 237.218L281.634 236.271C281.849 236.819 282.188 237.332 282.653 237.808C283.118 238.285 283.732 238.667 284.495 238.953C285.27 239.251 286.211 239.4 287.32 239.4C288.977 239.4 290.342 238.994 291.414 238.184C292.499 237.385 293.041 236.044 293.041 234.161V229.137H292.72C292.386 229.9 291.885 230.621 291.218 231.3C290.55 231.98 289.692 232.534 288.643 232.963C287.594 233.392 286.342 233.607 284.888 233.607C282.826 233.607 280.949 233.13 279.256 232.176C277.575 231.211 276.234 229.739 275.233 227.76C274.244 225.769 273.749 223.254 273.749 220.215C273.749 217.103 274.255 214.505 275.269 212.419C276.282 210.333 277.629 208.771 279.31 207.734C281.002 206.697 282.856 206.179 284.87 206.179C286.408 206.179 287.695 206.441 288.732 206.965C289.769 207.478 290.604 208.122 291.236 208.897C291.879 209.659 292.374 210.41 292.72 211.149H293.006V206.536H300.569V234.268C300.569 236.605 299.997 238.559 298.852 240.133C297.708 241.706 296.123 242.886 294.096 243.673C292.082 244.472 289.763 244.871 287.141 244.871ZM287.302 227.885C288.53 227.885 289.567 227.581 290.413 226.973C291.271 226.353 291.927 225.471 292.38 224.327C292.845 223.171 293.077 221.788 293.077 220.179C293.077 218.57 292.851 217.175 292.398 215.995C291.945 214.803 291.289 213.879 290.431 213.223C289.573 212.568 288.53 212.24 287.302 212.24C286.05 212.24 284.995 212.58 284.137 213.259C283.279 213.927 282.629 214.857 282.188 216.049C281.747 217.241 281.527 218.617 281.527 220.179C281.527 221.764 281.747 223.135 282.188 224.291C282.641 225.435 283.291 226.324 284.137 226.955C284.995 227.575 286.05 227.885 287.302 227.885ZM305.623 234V206.536H313.008V211.328H313.294C313.794 209.624 314.635 208.336 315.815 207.466C316.995 206.584 318.354 206.143 319.891 206.143C320.273 206.143 320.684 206.167 321.125 206.215C321.566 206.262 321.954 206.328 322.287 206.411V213.17C321.93 213.063 321.435 212.967 320.803 212.884C320.171 212.8 319.593 212.759 319.069 212.759C317.948 212.759 316.947 213.003 316.065 213.492C315.195 213.968 314.504 214.636 313.991 215.494C313.49 216.352 313.24 217.342 313.24 218.462V234H305.623ZM336.456 234.536C333.631 234.536 331.199 233.964 329.161 232.82C327.134 231.664 325.573 230.031 324.476 227.921C323.38 225.799 322.831 223.29 322.831 220.393C322.831 217.568 323.38 215.089 324.476 212.955C325.573 210.822 327.117 209.159 329.107 207.967C331.11 206.775 333.458 206.179 336.152 206.179C337.964 206.179 339.65 206.471 341.212 207.055C342.785 207.627 344.156 208.491 345.324 209.647C346.504 210.804 347.422 212.258 348.078 214.01C348.733 215.751 349.061 217.789 349.061 220.125V222.217H325.871V217.497H341.891C341.891 216.4 341.653 215.429 341.176 214.582C340.699 213.736 340.038 213.074 339.192 212.598C338.357 212.109 337.386 211.865 336.277 211.865C335.121 211.865 334.096 212.133 333.202 212.669C332.32 213.194 331.628 213.903 331.128 214.797C330.627 215.679 330.371 216.662 330.359 217.747V222.235C330.359 223.594 330.609 224.768 331.11 225.757C331.622 226.747 332.344 227.51 333.273 228.046C334.203 228.582 335.306 228.851 336.581 228.851C337.427 228.851 338.202 228.731 338.905 228.493C339.609 228.255 340.211 227.897 340.711 227.42C341.212 226.943 341.593 226.359 341.856 225.668L348.9 226.133C348.543 227.825 347.81 229.304 346.701 230.567C345.604 231.819 344.186 232.796 342.446 233.499C340.717 234.191 338.721 234.536 336.456 234.536ZM375.876 214.368L368.902 214.797C368.783 214.201 368.527 213.665 368.133 213.188C367.74 212.699 367.222 212.312 366.578 212.026C365.946 211.728 365.189 211.579 364.307 211.579C363.127 211.579 362.132 211.829 361.321 212.329C360.511 212.818 360.105 213.474 360.105 214.296C360.105 214.952 360.368 215.506 360.892 215.959C361.417 216.412 362.317 216.776 363.592 217.05L368.563 218.051C371.233 218.599 373.223 219.481 374.535 220.697C375.846 221.913 376.501 223.51 376.501 225.489C376.501 227.289 375.971 228.868 374.91 230.227C373.861 231.586 372.419 232.647 370.583 233.41C368.759 234.161 366.655 234.536 364.271 234.536C360.636 234.536 357.739 233.779 355.582 232.266C353.436 230.74 352.179 228.666 351.809 226.043L359.301 225.65C359.527 226.759 360.076 227.605 360.946 228.189C361.816 228.761 362.93 229.047 364.289 229.047C365.624 229.047 366.697 228.791 367.508 228.278C368.33 227.754 368.747 227.08 368.759 226.258C368.747 225.567 368.455 225 367.883 224.559C367.311 224.106 366.429 223.761 365.237 223.522L360.481 222.575C357.799 222.038 355.802 221.109 354.491 219.785C353.192 218.462 352.542 216.776 352.542 214.725C352.542 212.961 353.019 211.441 353.973 210.166C354.938 208.891 356.291 207.907 358.031 207.216C359.784 206.524 361.834 206.179 364.182 206.179C367.651 206.179 370.38 206.912 372.371 208.378C374.374 209.844 375.542 211.841 375.876 214.368ZM403.141 214.368L396.168 214.797C396.049 214.201 395.793 213.665 395.399 213.188C395.006 212.699 394.487 212.312 393.844 212.026C393.212 211.728 392.455 211.579 391.573 211.579C390.393 211.579 389.397 211.829 388.587 212.329C387.776 212.818 387.371 213.474 387.371 214.296C387.371 214.952 387.633 215.506 388.158 215.959C388.682 216.412 389.582 216.776 390.858 217.05L395.828 218.051C398.498 218.599 400.489 219.481 401.8 220.697C403.111 221.913 403.767 223.51 403.767 225.489C403.767 227.289 403.237 228.868 402.176 230.227C401.127 231.586 399.684 232.647 397.849 233.41C396.025 234.161 393.921 234.536 391.537 234.536C387.902 234.536 385.005 233.779 382.847 232.266C380.702 230.74 379.444 228.666 379.075 226.043L386.567 225.65C386.793 226.759 387.341 227.605 388.211 228.189C389.082 228.761 390.196 229.047 391.555 229.047C392.89 229.047 393.963 228.791 394.773 228.278C395.596 227.754 396.013 227.08 396.025 226.258C396.013 225.567 395.721 225 395.149 224.559C394.577 224.106 393.695 223.761 392.503 223.522L387.747 222.575C385.065 222.038 383.068 221.109 381.757 219.785C380.458 218.462 379.808 216.776 379.808 214.725C379.808 212.961 380.285 211.441 381.238 210.166C382.204 208.891 383.557 207.907 385.297 207.216C387.049 206.524 389.099 206.179 391.448 206.179C394.916 206.179 397.646 206.912 399.637 208.378C401.639 209.844 402.807 211.841 403.141 214.368Z" fill="black"/>
<path d="M494.281 483.898C489.489 483.898 485.222 483.075 481.479 481.428C477.757 479.759 474.816 477.471 472.656 474.562C470.517 471.631 469.415 468.252 469.351 464.423H483.34C483.425 466.027 483.949 467.439 484.912 468.658C485.896 469.856 487.201 470.786 488.826 471.45C490.452 472.113 492.281 472.444 494.313 472.444C496.43 472.444 498.302 472.07 499.927 471.321C501.553 470.573 502.826 469.535 503.745 468.209C504.665 466.883 505.125 465.354 505.125 463.621C505.125 461.867 504.633 460.316 503.649 458.969C502.687 457.6 501.296 456.53 499.478 455.76C497.682 454.99 495.543 454.605 493.061 454.605H486.933V444.402H493.061C495.158 444.402 497.008 444.039 498.612 443.311C500.238 442.584 501.5 441.579 502.398 440.296C503.296 438.991 503.745 437.472 503.745 435.74C503.745 434.093 503.35 432.649 502.558 431.408C501.788 430.146 500.697 429.162 499.286 428.456C497.895 427.75 496.27 427.398 494.409 427.398C492.527 427.398 490.805 427.74 489.243 428.424C487.682 429.087 486.431 430.039 485.489 431.28C484.548 432.52 484.046 433.975 483.981 435.643H470.666C470.731 431.857 471.811 428.52 473.907 425.633C476.003 422.745 478.827 420.489 482.377 418.863C485.949 417.216 489.981 416.393 494.473 416.393C499.008 416.393 502.975 417.216 506.376 418.863C509.777 420.51 512.419 422.735 514.301 425.537C516.205 428.317 517.146 431.44 517.125 434.905C517.146 438.584 516.002 441.654 513.692 444.114C511.403 446.573 508.419 448.135 504.74 448.798V449.311C509.574 449.932 513.253 451.611 515.777 454.349C518.323 457.065 519.585 460.466 519.563 464.551C519.585 468.295 518.504 471.621 516.323 474.53C514.162 477.439 511.178 479.727 507.371 481.396C503.564 483.064 499.2 483.898 494.281 483.898ZM572.745 433.718L555.516 483H540.115L522.886 433.718H537.324L547.559 468.979H548.072L558.275 433.718H572.745ZM635.096 440.296H621.043C620.786 438.477 620.262 436.862 619.471 435.451C618.679 434.018 617.663 432.798 616.423 431.793C615.182 430.788 613.749 430.018 612.123 429.483C610.519 428.948 608.776 428.681 606.894 428.681C603.493 428.681 600.53 429.526 598.006 431.216C595.482 432.884 593.525 435.322 592.135 438.531C590.744 441.718 590.049 445.589 590.049 450.145C590.049 454.83 590.744 458.765 592.135 461.953C593.546 465.14 595.514 467.546 598.038 469.172C600.562 470.797 603.482 471.61 606.797 471.61C608.658 471.61 610.38 471.364 611.963 470.872C613.567 470.38 614.99 469.664 616.23 468.722C617.471 467.76 618.497 466.594 619.31 465.225C620.144 463.856 620.722 462.295 621.043 460.541L635.096 460.605C634.732 463.621 633.823 466.53 632.369 469.332C630.936 472.113 629 474.605 626.561 476.808C624.144 478.989 621.257 480.722 617.899 482.005C614.562 483.267 610.786 483.898 606.573 483.898C600.712 483.898 595.471 482.572 590.851 479.92C586.253 477.268 582.616 473.428 579.943 468.402C577.29 463.375 575.964 457.29 575.964 450.145C575.964 442.98 577.312 436.884 580.007 431.857C582.702 426.831 586.359 423.002 590.98 420.371C595.6 417.719 600.798 416.393 606.573 416.393C610.38 416.393 613.909 416.927 617.161 417.997C620.433 419.066 623.332 420.628 625.856 422.681C628.38 424.713 630.433 427.205 632.016 430.157C633.62 433.109 634.647 436.488 635.096 440.296ZM642.181 483V417.291H668.105C673.089 417.291 677.335 418.243 680.843 420.146C684.35 422.029 687.024 424.649 688.864 428.007C690.725 431.344 691.655 435.194 691.655 439.558C691.655 443.921 690.714 447.771 688.832 451.108C686.949 454.445 684.222 457.044 680.65 458.905C677.099 460.765 672.8 461.696 667.752 461.696H651.229V450.563H665.506C668.18 450.563 670.383 450.103 672.116 449.183C673.87 448.242 675.174 446.948 676.03 445.301C676.907 443.632 677.345 441.718 677.345 439.558C677.345 437.376 676.907 435.472 676.03 433.847C675.174 432.2 673.87 430.927 672.116 430.028C670.362 429.109 668.137 428.649 665.442 428.649H656.073V483H642.181ZM738.388 417.291H752.281V459.963C752.281 464.755 751.137 468.947 748.848 472.54C746.581 476.134 743.404 478.936 739.319 480.947C735.233 482.936 730.474 483.93 725.041 483.93C719.587 483.93 714.817 482.936 710.731 480.947C706.646 478.936 703.47 476.134 701.202 472.54C698.935 468.947 697.801 464.755 697.801 459.963V417.291H711.694V458.776C711.694 461.279 712.239 463.503 713.33 465.45C714.443 467.396 716.004 468.926 718.015 470.038C720.025 471.15 722.367 471.706 725.041 471.706C727.736 471.706 730.078 471.15 732.068 470.038C734.078 468.926 735.629 467.396 736.72 465.45C737.832 463.503 738.388 461.279 738.388 458.776V417.291Z" fill="black"/>
<path d="M511.285 693V682.99L534.675 661.333C536.664 659.408 538.333 657.675 539.68 656.135C541.049 654.595 542.086 653.087 542.792 651.611C543.498 650.114 543.851 648.499 543.851 646.766C543.851 644.841 543.413 643.183 542.536 641.793C541.659 640.381 540.461 639.301 538.942 638.553C537.424 637.783 535.702 637.398 533.777 637.398C531.766 637.398 530.012 637.804 528.515 638.617C527.017 639.43 525.862 640.595 525.05 642.114C524.237 643.633 523.83 645.44 523.83 647.536H510.644C510.644 643.237 511.617 639.504 513.563 636.339C515.51 633.173 518.237 630.724 521.745 628.991C525.253 627.259 529.295 626.393 533.873 626.393C538.579 626.393 542.675 627.227 546.161 628.895C549.669 630.542 552.396 632.831 554.343 635.761C556.289 638.692 557.262 642.05 557.262 645.836C557.262 648.317 556.771 650.766 555.787 653.183C554.824 655.6 553.102 658.285 550.621 661.236C548.14 664.167 544.643 667.685 540.129 671.792L530.536 681.193V681.642H558.129V693H511.285ZM573.435 693.834C571.318 693.834 569.5 693.086 567.981 691.588C566.484 690.07 565.735 688.251 565.735 686.134C565.735 684.038 566.484 682.241 567.981 680.744C569.5 679.246 571.318 678.498 573.435 678.498C575.489 678.498 577.285 679.246 578.825 680.744C580.366 682.241 581.136 684.038 581.136 686.134C581.136 687.546 580.772 688.84 580.045 690.016C579.339 691.171 578.408 692.102 577.253 692.807C576.098 693.492 574.826 693.834 573.435 693.834ZM589.48 693L616.719 639.098V638.649H584.988V627.291H631.093V638.809L603.821 693H589.48ZM681.693 648.531C681.244 646.969 680.613 645.59 679.8 644.392C678.987 643.173 677.992 642.146 676.816 641.312C675.661 640.456 674.335 639.804 672.837 639.355C671.362 638.906 669.725 638.681 667.929 638.681C664.57 638.681 661.619 639.515 659.073 641.184C656.549 642.852 654.581 645.28 653.17 648.467C651.758 651.632 651.052 655.504 651.052 660.081C651.052 664.659 651.747 668.552 653.138 671.76C654.528 674.969 656.496 677.418 659.041 679.107C661.587 680.776 664.592 681.61 668.057 681.61C671.201 681.61 673.886 681.054 676.11 679.942C678.356 678.808 680.067 677.214 681.244 675.161C682.441 673.108 683.04 670.68 683.04 667.878L685.864 668.295H668.923V657.835H696.42V666.113C696.42 671.888 695.2 676.851 692.762 681C690.324 685.129 686.965 688.316 682.687 690.562C678.409 692.786 673.511 693.898 667.993 693.898C661.832 693.898 656.421 692.54 651.758 689.824C647.095 687.086 643.459 683.204 640.849 678.177C638.261 673.129 636.967 667.14 636.967 660.21C636.967 654.884 637.737 650.135 639.277 645.964C640.839 641.772 643.02 638.221 645.822 635.312C648.624 632.403 651.886 630.189 655.608 628.671C659.33 627.152 663.362 626.393 667.704 626.393C671.426 626.393 674.891 626.938 678.099 628.029C681.308 629.098 684.153 630.617 686.634 632.585C689.136 634.553 691.179 636.895 692.762 639.611C694.345 642.306 695.361 645.28 695.81 648.531H681.693ZM703.978 693V627.291H730.287C735.121 627.291 739.153 628.007 742.383 629.441C745.613 630.874 748.04 632.863 749.666 635.408C751.292 637.932 752.104 640.841 752.104 644.135C752.104 646.702 751.591 648.959 750.564 650.905C749.538 652.83 748.126 654.413 746.329 655.654C744.554 656.873 742.522 657.739 740.233 658.252V658.894C742.736 659.001 745.078 659.707 747.26 661.012C749.463 662.317 751.249 664.145 752.618 666.498C753.987 668.83 754.671 671.61 754.671 674.84C754.671 678.327 753.805 681.439 752.072 684.177C750.361 686.893 747.827 689.043 744.468 690.626C741.11 692.209 736.971 693 732.052 693H703.978ZM717.87 681.642H729.196C733.068 681.642 735.891 680.904 737.666 679.428C739.442 677.931 740.329 675.942 740.329 673.461C740.329 671.642 739.891 670.038 739.014 668.648C738.137 667.258 736.886 666.167 735.26 665.375C733.656 664.584 731.741 664.188 729.517 664.188H717.87V681.642ZM717.87 654.787H728.169C730.073 654.787 731.763 654.456 733.239 653.793C734.736 653.108 735.912 652.146 736.768 650.905C737.645 649.665 738.084 648.178 738.084 646.445C738.084 644.071 737.239 642.157 735.549 640.702C733.88 639.248 731.506 638.52 728.426 638.52H717.87V654.787Z" fill="black"/>
<path d="M702.443 366.928H696.167C696.052 366.116 695.818 365.395 695.465 364.765C695.111 364.125 694.657 363.58 694.103 363.131C693.549 362.682 692.909 362.338 692.183 362.1C691.467 361.861 690.688 361.741 689.848 361.741C688.329 361.741 687.006 362.119 685.879 362.873C684.751 363.618 683.877 364.707 683.256 366.14C682.636 367.564 682.325 369.293 682.325 371.327C682.325 373.419 682.636 375.177 683.256 376.6C683.887 378.024 684.766 379.098 685.893 379.824C687.02 380.55 688.324 380.913 689.805 380.913C690.636 380.913 691.405 380.803 692.112 380.584C692.828 380.364 693.463 380.044 694.017 379.624C694.571 379.194 695.03 378.673 695.393 378.062C695.766 377.45 696.023 376.753 696.167 375.97L702.443 375.998C702.28 377.345 701.874 378.645 701.225 379.896C700.585 381.138 699.72 382.251 698.631 383.235C697.552 384.209 696.262 384.983 694.762 385.556C693.272 386.119 691.586 386.401 689.704 386.401C687.087 386.401 684.747 385.809 682.683 384.624C680.629 383.44 679.006 381.725 677.811 379.48C676.627 377.236 676.035 374.518 676.035 371.327C676.035 368.127 676.637 365.405 677.84 363.16C679.044 360.915 680.677 359.205 682.741 358.03C684.804 356.846 687.125 356.253 689.704 356.253C691.405 356.253 692.981 356.492 694.433 356.97C695.894 357.447 697.189 358.145 698.316 359.062C699.443 359.969 700.36 361.082 701.067 362.4C701.784 363.719 702.242 365.228 702.443 366.928ZM706.085 386V356.655H717.663C719.888 356.655 721.784 357.08 723.351 357.93C724.918 358.77 726.112 359.941 726.933 361.44C727.764 362.931 728.18 364.65 728.18 366.599C728.18 368.547 727.76 370.267 726.919 371.757C726.078 373.247 724.86 374.408 723.265 375.239C721.679 376.07 719.759 376.486 717.505 376.486H710.126V371.514H716.502C717.696 371.514 718.68 371.308 719.454 370.897C720.237 370.477 720.82 369.899 721.202 369.164C721.593 368.419 721.789 367.564 721.789 366.599C721.789 365.624 721.593 364.774 721.202 364.048C720.82 363.313 720.237 362.744 719.454 362.343C718.67 361.932 717.677 361.727 716.473 361.727H712.289V386H706.085ZM749.529 356.655H755.733V375.712C755.733 377.852 755.222 379.724 754.2 381.329C753.187 382.934 751.769 384.185 749.944 385.083C748.12 385.971 745.994 386.416 743.568 386.416C741.132 386.416 739.002 385.971 737.177 385.083C735.353 384.185 733.934 382.934 732.922 381.329C731.909 379.724 731.403 377.852 731.403 375.712V356.655H737.607V375.182C737.607 376.299 737.851 377.293 738.338 378.162C738.835 379.031 739.532 379.714 740.43 380.211C741.328 380.708 742.374 380.956 743.568 380.956C744.772 380.956 745.818 380.708 746.706 380.211C747.604 379.714 748.297 379.031 748.784 378.162C749.28 377.293 749.529 376.299 749.529 375.182V356.655Z" fill="#636363"/>
<path d="M580.976 566.655H588.628L596.709 586.371H597.053L605.135 566.655H612.786V596H606.768V576.9H606.525L598.93 595.857H594.832L587.238 576.828H586.995V596H580.976V566.655ZM617.091 596V566.655H636.865V571.77H623.296V578.762H635.848V583.878H623.296V590.885H636.922V596H617.091ZM640.991 566.655H648.642L656.724 586.371H657.068L665.149 566.655H672.801V596H666.783V576.9H666.539L658.945 595.857H654.847L647.252 576.828H647.009V596H640.991V566.655ZM704.072 581.327C704.072 584.527 703.466 587.25 702.253 589.495C701.049 591.74 699.406 593.454 697.324 594.639C695.251 595.814 692.92 596.401 690.331 596.401C687.723 596.401 685.383 595.809 683.31 594.624C681.237 593.44 679.599 591.725 678.395 589.48C677.192 587.236 676.59 584.518 676.59 581.327C676.59 578.127 677.192 575.405 678.395 573.16C679.599 570.915 681.237 569.205 683.31 568.03C685.383 566.846 687.723 566.253 690.331 566.253C692.92 566.253 695.251 566.846 697.324 568.03C699.406 569.205 701.049 570.915 702.253 573.16C703.466 575.405 704.072 578.127 704.072 581.327ZM697.782 581.327C697.782 579.254 697.472 577.506 696.851 576.083C696.239 574.66 695.375 573.58 694.257 572.845C693.14 572.109 691.831 571.741 690.331 571.741C688.831 571.741 687.523 572.109 686.405 572.845C685.287 573.58 684.418 574.66 683.797 576.083C683.186 577.506 682.88 579.254 682.88 581.327C682.88 583.4 683.186 585.148 683.797 586.572C684.418 587.995 685.287 589.074 686.405 589.81C687.523 590.545 688.831 590.913 690.331 590.913C691.831 590.913 693.14 590.545 694.257 589.81C695.375 589.074 696.239 587.995 696.851 586.572C697.472 585.148 697.782 583.4 697.782 581.327ZM707.861 596V566.655H719.439C721.655 566.655 723.547 567.051 725.113 567.844C726.689 568.627 727.888 569.74 728.71 571.182C729.541 572.615 729.956 574.301 729.956 576.241C729.956 578.189 729.536 579.866 728.696 581.27C727.855 582.665 726.637 583.735 725.042 584.48C723.456 585.225 721.536 585.597 719.281 585.597H711.53V580.611H718.278C719.463 580.611 720.447 580.448 721.23 580.124C722.014 579.799 722.596 579.312 722.978 578.662C723.37 578.013 723.566 577.205 723.566 576.241C723.566 575.266 723.37 574.445 722.978 573.776C722.596 573.107 722.009 572.601 721.216 572.257C720.433 571.904 719.444 571.727 718.25 571.727H714.066V596H707.861ZM723.709 582.646L731.002 596H724.153L717.018 582.646H723.709ZM730.593 566.655H737.543L744.234 579.293H744.521L751.212 566.655H758.162L747.458 585.626V596H741.297V585.626L730.593 566.655Z" fill="#636363"/>
<path d="M614.899 197.382V234H607.157V204.73H606.943L598.557 209.987V203.121L607.622 197.382H614.899ZM636.953 234.805C633.877 234.793 631.231 234.036 629.014 232.534C626.809 231.032 625.11 228.857 623.918 226.008C622.738 223.159 622.154 219.732 622.166 215.727C622.166 211.733 622.756 208.33 623.936 205.517C625.128 202.704 626.827 200.564 629.032 199.098C631.249 197.62 633.889 196.881 636.953 196.881C640.016 196.881 642.651 197.62 644.856 199.098C647.073 200.576 648.777 202.722 649.969 205.535C651.161 208.336 651.751 211.733 651.74 215.727C651.74 219.744 651.144 223.177 649.952 226.026C648.771 228.874 647.079 231.05 644.874 232.552C642.668 234.054 640.028 234.805 636.953 234.805ZM636.953 228.386C639.051 228.386 640.725 227.331 641.977 225.221C643.229 223.111 643.849 219.946 643.837 215.727C643.837 212.949 643.551 210.637 642.978 208.789C642.418 206.942 641.619 205.553 640.582 204.623C639.557 203.693 638.347 203.229 636.953 203.229C634.867 203.229 633.198 204.272 631.946 206.358C630.695 208.444 630.063 211.567 630.051 215.727C630.051 218.54 630.331 220.888 630.892 222.771C631.464 224.643 632.268 226.049 633.305 226.991C634.342 227.921 635.558 228.386 636.953 228.386ZM689.374 228.922L668.008 207.591L672.692 202.853L694.077 224.238L689.374 228.922ZM672.692 228.922L668.008 224.238L689.374 202.853L694.077 207.591L672.692 228.922ZM724.296 234.501C721.626 234.501 719.248 234.042 717.162 233.124C715.088 232.194 713.449 230.919 712.245 229.298C711.053 227.665 710.439 225.781 710.403 223.647H718.199C718.247 224.541 718.539 225.328 719.075 226.008C719.623 226.675 720.35 227.194 721.256 227.563C722.162 227.933 723.181 228.117 724.314 228.117C725.494 228.117 726.537 227.909 727.443 227.492C728.349 227.074 729.058 226.496 729.571 225.757C730.083 225.018 730.339 224.166 730.339 223.2C730.339 222.223 730.065 221.359 729.517 220.608C728.98 219.845 728.206 219.249 727.193 218.82C726.191 218.391 724.999 218.176 723.617 218.176H720.201V212.49H723.617C724.785 212.49 725.816 212.288 726.71 211.882C727.616 211.477 728.319 210.917 728.82 210.202C729.32 209.475 729.571 208.628 729.571 207.663C729.571 206.745 729.35 205.94 728.909 205.249C728.48 204.546 727.872 203.997 727.085 203.604C726.31 203.211 725.405 203.014 724.367 203.014C723.319 203.014 722.359 203.205 721.489 203.586C720.619 203.956 719.921 204.486 719.397 205.177C718.872 205.869 718.592 206.679 718.556 207.609H711.136C711.172 205.499 711.774 203.64 712.942 202.031C714.11 200.421 715.684 199.164 717.662 198.258C719.653 197.34 721.9 196.881 724.403 196.881C726.93 196.881 729.141 197.34 731.037 198.258C732.932 199.176 734.404 200.415 735.453 201.977C736.514 203.527 737.038 205.267 737.026 207.198C737.038 209.248 736.401 210.959 735.113 212.329C733.838 213.7 732.175 214.57 730.125 214.94V215.226C732.819 215.572 734.869 216.507 736.276 218.033C737.694 219.547 738.397 221.442 738.385 223.719C738.397 225.805 737.795 227.659 736.579 229.28C735.376 230.901 733.713 232.176 731.591 233.106C729.469 234.036 727.038 234.501 724.296 234.501Z" fill="black"/>
<path d="M867.315 483.898C862.781 483.898 858.738 483.064 855.187 481.396C851.658 479.727 848.856 477.428 846.781 474.498C844.706 471.567 843.626 468.209 843.541 464.423H857.016C857.166 466.968 858.235 469.033 860.225 470.615C862.214 472.198 864.577 472.99 867.315 472.99C869.497 472.99 871.422 472.508 873.09 471.546C874.78 470.562 876.096 469.204 877.037 467.471C877.999 465.717 878.481 463.707 878.481 461.439C878.481 459.129 877.989 457.097 877.005 455.343C876.042 453.589 874.705 452.22 872.994 451.236C871.283 450.252 869.326 449.75 867.123 449.728C865.198 449.728 863.326 450.124 861.508 450.915C859.711 451.707 858.31 452.787 857.305 454.156L844.952 451.942L848.065 417.291H888.234V428.649H859.519L857.818 445.108H858.203C859.358 443.483 861.102 442.135 863.433 441.066C865.765 439.996 868.374 439.461 871.262 439.461C875.219 439.461 878.748 440.392 881.85 442.253C884.951 444.114 887.4 446.67 889.197 449.921C890.994 453.151 891.881 456.873 891.86 461.086C891.881 465.514 890.855 469.45 888.78 472.893C886.726 476.316 883.849 479.011 880.149 480.979C876.47 482.925 872.192 483.898 867.315 483.898ZM944.745 433.718L927.516 483H912.115L894.886 433.718H909.324L919.559 468.979H920.072L930.275 433.718H944.745ZM1007.1 440.296H993.043C992.786 438.477 992.262 436.862 991.471 435.451C990.679 434.018 989.663 432.798 988.423 431.793C987.182 430.788 985.749 430.018 984.123 429.483C982.519 428.948 980.776 428.681 978.894 428.681C975.493 428.681 972.53 429.526 970.006 431.216C967.482 432.884 965.525 435.322 964.135 438.531C962.744 441.718 962.049 445.589 962.049 450.145C962.049 454.83 962.744 458.765 964.135 461.953C965.546 465.14 967.514 467.546 970.038 469.172C972.562 470.797 975.482 471.61 978.797 471.61C980.658 471.61 982.38 471.364 983.963 470.872C985.567 470.38 986.99 469.664 988.23 468.722C989.471 467.76 990.497 466.594 991.31 465.225C992.144 463.856 992.722 462.295 993.043 460.541L1007.1 460.605C1006.73 463.621 1005.82 466.53 1004.37 469.332C1002.94 472.113 1001 474.605 998.561 476.808C996.144 478.989 993.257 480.722 989.899 482.005C986.562 483.267 982.786 483.898 978.573 483.898C972.712 483.898 967.471 482.572 962.851 479.92C958.253 477.268 954.616 473.428 951.943 468.402C949.29 463.375 947.964 457.29 947.964 450.145C947.964 442.98 949.312 436.884 952.007 431.857C954.702 426.831 958.359 423.002 962.98 420.371C967.6 417.719 972.798 416.393 978.573 416.393C982.38 416.393 985.909 416.927 989.161 417.997C992.433 419.066 995.332 420.628 997.856 422.681C1000.38 424.713 1002.43 427.205 1004.02 430.157C1005.62 433.109 1006.65 436.488 1007.1 440.296ZM1014.18 483V417.291H1040.11C1045.09 417.291 1049.33 418.243 1052.84 420.146C1056.35 422.029 1059.02 424.649 1060.86 428.007C1062.72 431.344 1063.66 435.194 1063.66 439.558C1063.66 443.921 1062.71 447.771 1060.83 451.108C1058.95 454.445 1056.22 457.044 1052.65 458.905C1049.1 460.765 1044.8 461.696 1039.75 461.696H1023.23V450.563H1037.51C1040.18 450.563 1042.38 450.103 1044.12 449.183C1045.87 448.242 1047.17 446.948 1048.03 445.301C1048.91 443.632 1049.35 441.718 1049.35 439.558C1049.35 437.376 1048.91 435.472 1048.03 433.847C1047.17 432.2 1045.87 430.927 1044.12 430.028C1042.36 429.109 1040.14 428.649 1037.44 428.649H1028.07V483H1014.18ZM1110.39 417.291H1124.28V459.963C1124.28 464.755 1123.14 468.947 1120.85 472.54C1118.58 476.134 1115.4 478.936 1111.32 480.947C1107.23 482.936 1102.47 483.93 1097.04 483.93C1091.59 483.93 1086.82 482.936 1082.73 480.947C1078.65 478.936 1075.47 476.134 1073.2 472.54C1070.94 468.947 1069.8 464.755 1069.8 459.963V417.291H1083.69V458.776C1083.69 461.279 1084.24 463.503 1085.33 465.45C1086.44 467.396 1088 468.926 1090.01 470.038C1092.03 471.15 1094.37 471.706 1097.04 471.706C1099.74 471.706 1102.08 471.15 1104.07 470.038C1106.08 468.926 1107.63 467.396 1108.72 465.45C1109.83 463.503 1110.39 461.279 1110.39 458.776V417.291Z" fill="black"/>
<path d="M872.762 681.45V670.509L900.194 627.291H909.627V642.435H904.044L886.75 669.803V670.316H925.733V681.45H872.762ZM904.301 693V678.113L904.557 673.268V627.291H917.584V693H904.301ZM938.994 693.834C936.877 693.834 935.059 693.086 933.54 691.588C932.043 690.07 931.294 688.251 931.294 686.134C931.294 684.038 932.043 682.241 933.54 680.744C935.059 679.246 936.877 678.498 938.994 678.498C941.048 678.498 942.844 679.246 944.384 680.744C945.925 682.241 946.695 684.038 946.695 686.134C946.695 687.546 946.331 688.84 945.604 690.016C944.898 691.171 943.967 692.102 942.812 692.807C941.657 693.492 940.385 693.834 938.994 693.834ZM978.38 693.898C973.846 693.898 969.803 693.064 966.252 691.396C962.723 689.727 959.921 687.428 957.846 684.498C955.771 681.567 954.691 678.209 954.606 674.423H968.081C968.231 676.968 969.3 679.033 971.29 680.615C973.279 682.198 975.642 682.99 978.38 682.99C980.562 682.99 982.487 682.508 984.155 681.546C985.845 680.562 987.161 679.204 988.102 677.471C989.064 675.717 989.546 673.707 989.546 671.439C989.546 669.129 989.054 667.097 988.07 665.343C987.107 663.589 985.77 662.22 984.059 661.236C982.348 660.252 980.391 659.75 978.188 659.728C976.263 659.728 974.391 660.124 972.573 660.915C970.776 661.707 969.375 662.787 968.37 664.156L956.017 661.942L959.13 627.291H999.299V638.649H970.584L968.883 655.108H969.268C970.423 653.483 972.167 652.135 974.498 651.066C976.829 649.996 979.439 649.461 982.327 649.461C986.284 649.461 989.813 650.392 992.915 652.253C996.016 654.114 998.465 656.67 1000.26 659.921C1002.06 663.151 1002.95 666.873 1002.92 671.086C1002.95 675.514 1001.92 679.45 999.845 682.893C997.791 686.316 994.914 689.011 991.214 690.979C987.535 692.925 983.257 693.898 978.38 693.898ZM1053.69 648.531C1053.24 646.969 1052.61 645.59 1051.8 644.392C1050.99 643.173 1049.99 642.146 1048.82 641.312C1047.66 640.456 1046.33 639.804 1044.84 639.355C1043.36 638.906 1041.73 638.681 1039.93 638.681C1036.57 638.681 1033.62 639.515 1031.07 641.184C1028.55 642.852 1026.58 645.28 1025.17 648.467C1023.76 651.632 1023.05 655.504 1023.05 660.081C1023.05 664.659 1023.75 668.552 1025.14 671.76C1026.53 674.969 1028.5 677.418 1031.04 679.107C1033.59 680.776 1036.59 681.61 1040.06 681.61C1043.2 681.61 1045.89 681.054 1048.11 679.942C1050.36 678.808 1052.07 677.214 1053.24 675.161C1054.44 673.108 1055.04 670.68 1055.04 667.878L1057.86 668.295H1040.92V657.835H1068.42V666.113C1068.42 671.888 1067.2 676.851 1064.76 681C1062.32 685.129 1058.97 688.316 1054.69 690.562C1050.41 692.786 1045.51 693.898 1039.99 693.898C1033.83 693.898 1028.42 692.54 1023.76 689.824C1019.09 687.086 1015.46 683.204 1012.85 678.177C1010.26 673.129 1008.97 667.14 1008.97 660.21C1008.97 654.884 1009.74 650.135 1011.28 645.964C1012.84 641.772 1015.02 638.221 1017.82 635.312C1020.62 632.403 1023.89 630.189 1027.61 628.671C1031.33 627.152 1035.36 626.393 1039.7 626.393C1043.43 626.393 1046.89 626.938 1050.1 628.029C1053.31 629.098 1056.15 630.617 1058.63 632.585C1061.14 634.553 1063.18 636.895 1064.76 639.611C1066.34 642.306 1067.36 645.28 1067.81 648.531H1053.69ZM1075.98 693V627.291H1102.29C1107.12 627.291 1111.15 628.007 1114.38 629.441C1117.61 630.874 1120.04 632.863 1121.67 635.408C1123.29 637.932 1124.1 640.841 1124.1 644.135C1124.1 646.702 1123.59 648.959 1122.56 650.905C1121.54 652.83 1120.13 654.413 1118.33 655.654C1116.55 656.873 1114.52 657.739 1112.23 658.252V658.894C1114.74 659.001 1117.08 659.707 1119.26 661.012C1121.46 662.317 1123.25 664.145 1124.62 666.498C1125.99 668.83 1126.67 671.61 1126.67 674.84C1126.67 678.327 1125.8 681.439 1124.07 684.177C1122.36 686.893 1119.83 689.043 1116.47 690.626C1113.11 692.209 1108.97 693 1104.05 693H1075.98ZM1089.87 681.642H1101.2C1105.07 681.642 1107.89 680.904 1109.67 679.428C1111.44 677.931 1112.33 675.942 1112.33 673.461C1112.33 671.642 1111.89 670.038 1111.01 668.648C1110.14 667.258 1108.89 666.167 1107.26 665.375C1105.66 664.584 1103.74 664.188 1101.52 664.188H1089.87V681.642ZM1089.87 654.787H1100.17C1102.07 654.787 1103.76 654.456 1105.24 653.793C1106.74 653.108 1107.91 652.146 1108.77 650.905C1109.65 649.665 1110.08 648.178 1110.08 646.445C1110.08 644.071 1109.24 642.157 1107.55 640.702C1105.88 639.248 1103.51 638.52 1100.43 638.52H1089.87V654.787Z" fill="black"/>
<path d="M1074.44 366.928H1068.17C1068.05 366.116 1067.82 365.395 1067.46 364.765C1067.11 364.125 1066.66 363.58 1066.1 363.131C1065.55 362.682 1064.91 362.338 1064.18 362.1C1063.47 361.861 1062.69 361.741 1061.85 361.741C1060.33 361.741 1059.01 362.119 1057.88 362.873C1056.75 363.618 1055.88 364.707 1055.26 366.14C1054.64 367.564 1054.33 369.293 1054.33 371.327C1054.33 373.419 1054.64 375.177 1055.26 376.6C1055.89 378.024 1056.77 379.098 1057.89 379.824C1059.02 380.55 1060.32 380.913 1061.8 380.913C1062.64 380.913 1063.4 380.803 1064.11 380.584C1064.83 380.364 1065.46 380.044 1066.02 379.624C1066.57 379.194 1067.03 378.673 1067.39 378.062C1067.77 377.45 1068.02 376.753 1068.17 375.97L1074.44 375.998C1074.28 377.345 1073.87 378.645 1073.22 379.896C1072.58 381.138 1071.72 382.251 1070.63 383.235C1069.55 384.209 1068.26 384.983 1066.76 385.556C1065.27 386.119 1063.59 386.401 1061.7 386.401C1059.09 386.401 1056.75 385.809 1054.68 384.624C1052.63 383.44 1051.01 381.725 1049.81 379.48C1048.63 377.236 1048.03 374.518 1048.03 371.327C1048.03 368.127 1048.64 365.405 1049.84 363.16C1051.04 360.915 1052.68 359.205 1054.74 358.03C1056.8 356.846 1059.13 356.253 1061.7 356.253C1063.4 356.253 1064.98 356.492 1066.43 356.97C1067.89 357.447 1069.19 358.145 1070.32 359.062C1071.44 359.969 1072.36 361.082 1073.07 362.4C1073.78 363.719 1074.24 365.228 1074.44 366.928ZM1078.08 386V356.655H1089.66C1091.89 356.655 1093.78 357.08 1095.35 357.93C1096.92 358.77 1098.11 359.941 1098.93 361.44C1099.76 362.931 1100.18 364.65 1100.18 366.599C1100.18 368.547 1099.76 370.267 1098.92 371.757C1098.08 373.247 1096.86 374.408 1095.27 375.239C1093.68 376.07 1091.76 376.486 1089.5 376.486H1082.13V371.514H1088.5C1089.7 371.514 1090.68 371.308 1091.45 370.897C1092.24 370.477 1092.82 369.899 1093.2 369.164C1093.59 368.419 1093.79 367.564 1093.79 366.599C1093.79 365.624 1093.59 364.774 1093.2 364.048C1092.82 363.313 1092.24 362.744 1091.45 362.343C1090.67 361.932 1089.68 361.727 1088.47 361.727H1084.29V386H1078.08ZM1121.53 356.655H1127.73V375.712C1127.73 377.852 1127.22 379.724 1126.2 381.329C1125.19 382.934 1123.77 384.185 1121.94 385.083C1120.12 385.971 1117.99 386.416 1115.57 386.416C1113.13 386.416 1111 385.971 1109.18 385.083C1107.35 384.185 1105.93 382.934 1104.92 381.329C1103.91 379.724 1103.4 377.852 1103.4 375.712V356.655H1109.61V375.182C1109.61 376.299 1109.85 377.293 1110.34 378.162C1110.83 379.031 1111.53 379.714 1112.43 380.211C1113.33 380.708 1114.37 380.956 1115.57 380.956C1116.77 380.956 1117.82 380.708 1118.71 380.211C1119.6 379.714 1120.3 379.031 1120.78 378.162C1121.28 377.293 1121.53 376.299 1121.53 375.182V356.655Z" fill="#636363"/>
<path d="M952.976 566.655H960.628L968.709 586.371H969.053L977.135 566.655H984.786V596H978.768V576.9H978.525L970.93 595.857H966.832L959.238 576.828H958.995V596H952.976V566.655ZM989.091 596V566.655H1008.87V571.77H995.296V578.762H1007.85V583.878H995.296V590.885H1008.92V596H989.091ZM1012.99 566.655H1020.64L1028.72 586.371H1029.07L1037.15 566.655H1044.8V596H1038.78V576.9H1038.54L1030.94 595.857H1026.85L1019.25 576.828H1019.01V596H1012.99V566.655ZM1076.07 581.327C1076.07 584.527 1075.47 587.25 1074.25 589.495C1073.05 591.74 1071.41 593.454 1069.32 594.639C1067.25 595.814 1064.92 596.401 1062.33 596.401C1059.72 596.401 1057.38 595.809 1055.31 594.624C1053.24 593.44 1051.6 591.725 1050.4 589.48C1049.19 587.236 1048.59 584.518 1048.59 581.327C1048.59 578.127 1049.19 575.405 1050.4 573.16C1051.6 570.915 1053.24 569.205 1055.31 568.03C1057.38 566.846 1059.72 566.253 1062.33 566.253C1064.92 566.253 1067.25 566.846 1069.32 568.03C1071.41 569.205 1073.05 570.915 1074.25 573.16C1075.47 575.405 1076.07 578.127 1076.07 581.327ZM1069.78 581.327C1069.78 579.254 1069.47 577.506 1068.85 576.083C1068.24 574.66 1067.37 573.58 1066.26 572.845C1065.14 572.109 1063.83 571.741 1062.33 571.741C1060.83 571.741 1059.52 572.109 1058.4 572.845C1057.29 573.58 1056.42 574.66 1055.8 576.083C1055.19 577.506 1054.88 579.254 1054.88 581.327C1054.88 583.4 1055.19 585.148 1055.8 586.572C1056.42 587.995 1057.29 589.074 1058.4 589.81C1059.52 590.545 1060.83 590.913 1062.33 590.913C1063.83 590.913 1065.14 590.545 1066.26 589.81C1067.37 589.074 1068.24 587.995 1068.85 586.572C1069.47 585.148 1069.78 583.4 1069.78 581.327ZM1079.86 596V566.655H1091.44C1093.66 566.655 1095.55 567.051 1097.11 567.844C1098.69 568.627 1099.89 569.74 1100.71 571.182C1101.54 572.615 1101.96 574.301 1101.96 576.241C1101.96 578.189 1101.54 579.866 1100.7 581.27C1099.85 582.665 1098.64 583.735 1097.04 584.48C1095.46 585.225 1093.54 585.597 1091.28 585.597H1083.53V580.611H1090.28C1091.46 580.611 1092.45 580.448 1093.23 580.124C1094.01 579.799 1094.6 579.312 1094.98 578.662C1095.37 578.013 1095.57 577.205 1095.57 576.241C1095.57 575.266 1095.37 574.445 1094.98 573.776C1094.6 573.107 1094.01 572.601 1093.22 572.257C1092.43 571.904 1091.44 571.727 1090.25 571.727H1086.07V596H1079.86ZM1095.71 582.646L1103 596H1096.15L1089.02 582.646H1095.71ZM1102.59 566.655H1109.54L1116.23 579.293H1116.52L1123.21 566.655H1130.16L1119.46 585.626V596H1113.3V585.626L1102.59 566.655Z" fill="#636363"/>
<path d="M984.342 234.501C981.815 234.501 979.562 234.036 977.584 233.106C975.617 232.176 974.055 230.895 972.899 229.262C971.743 227.629 971.141 225.757 971.093 223.647H978.603C978.686 225.066 979.282 226.216 980.391 227.098C981.499 227.98 982.817 228.421 984.342 228.421C985.558 228.421 986.631 228.153 987.561 227.617C988.502 227.069 989.235 226.312 989.76 225.346C990.296 224.369 990.565 223.248 990.565 221.985C990.565 220.697 990.29 219.565 989.742 218.587C989.206 217.61 988.461 216.847 987.507 216.299C986.553 215.751 985.463 215.47 984.235 215.458C983.162 215.458 982.119 215.679 981.106 216.12C980.105 216.561 979.324 217.163 978.764 217.926L971.88 216.692L973.614 197.382H996V203.711H979.997L979.05 212.884H979.264C979.908 211.978 980.88 211.227 982.179 210.631C983.478 210.035 984.932 209.737 986.542 209.737C988.747 209.737 990.714 210.255 992.442 211.292C994.17 212.329 995.535 213.754 996.536 215.566C997.538 217.366 998.032 219.44 998.02 221.788C998.032 224.255 997.46 226.449 996.304 228.368C995.16 230.275 993.556 231.777 991.494 232.874C989.444 233.958 987.06 234.501 984.342 234.501ZM1016.77 234.805C1013.7 234.793 1011.05 234.036 1008.83 232.534C1006.63 231.032 1004.93 228.857 1003.74 226.008C1002.56 223.159 1001.97 219.732 1001.98 215.727C1001.98 211.733 1002.57 208.33 1003.75 205.517C1004.95 202.704 1006.64 200.564 1008.85 199.098C1011.07 197.62 1013.71 196.881 1016.77 196.881C1019.83 196.881 1022.47 197.62 1024.67 199.098C1026.89 200.576 1028.6 202.722 1029.79 205.535C1030.98 208.336 1031.57 211.733 1031.56 215.727C1031.56 219.744 1030.96 223.177 1029.77 226.026C1028.59 228.874 1026.9 231.05 1024.69 232.552C1022.49 234.054 1019.85 234.805 1016.77 234.805ZM1016.77 228.386C1018.87 228.386 1020.54 227.331 1021.8 225.221C1023.05 223.111 1023.67 219.946 1023.65 215.727C1023.65 212.949 1023.37 210.637 1022.8 208.789C1022.24 206.942 1021.44 205.553 1020.4 204.623C1019.38 203.693 1018.17 203.229 1016.77 203.229C1014.68 203.229 1013.02 204.272 1011.76 206.358C1010.51 208.444 1009.88 211.567 1009.87 215.727C1009.87 218.54 1010.15 220.888 1010.71 222.771C1011.28 224.643 1012.09 226.049 1013.12 226.991C1014.16 227.921 1015.38 228.386 1016.77 228.386ZM1069.19 228.922L1047.83 207.591L1052.51 202.853L1073.89 224.238L1069.19 228.922ZM1052.51 228.922L1047.83 224.238L1069.19 202.853L1073.89 207.591L1052.51 228.922ZM1104.11 234.501C1101.44 234.501 1099.07 234.042 1096.98 233.124C1094.91 232.194 1093.27 230.919 1092.06 229.298C1090.87 227.665 1090.26 225.781 1090.22 223.647H1098.02C1098.06 224.541 1098.36 225.328 1098.89 226.008C1099.44 226.675 1100.17 227.194 1101.07 227.563C1101.98 227.933 1103 228.117 1104.13 228.117C1105.31 228.117 1106.35 227.909 1107.26 227.492C1108.17 227.074 1108.88 226.496 1109.39 225.757C1109.9 225.018 1110.16 224.166 1110.16 223.2C1110.16 222.223 1109.88 221.359 1109.33 220.608C1108.8 219.845 1108.02 219.249 1107.01 218.82C1106.01 218.391 1104.82 218.176 1103.43 218.176H1100.02V212.49H1103.43C1104.6 212.49 1105.63 212.288 1106.53 211.882C1107.43 211.477 1108.14 210.917 1108.64 210.202C1109.14 209.475 1109.39 208.628 1109.39 207.663C1109.39 206.745 1109.17 205.94 1108.73 205.249C1108.3 204.546 1107.69 203.997 1106.9 203.604C1106.13 203.211 1105.22 203.014 1104.19 203.014C1103.14 203.014 1102.18 203.205 1101.31 203.586C1100.44 203.956 1099.74 204.486 1099.21 205.177C1098.69 205.869 1098.41 206.679 1098.37 207.609H1090.95C1090.99 205.499 1091.59 203.64 1092.76 202.031C1093.93 200.421 1095.5 199.164 1097.48 198.258C1099.47 197.34 1101.72 196.881 1104.22 196.881C1106.75 196.881 1108.96 197.34 1110.85 198.258C1112.75 199.176 1114.22 200.415 1115.27 201.977C1116.33 203.527 1116.86 205.267 1116.84 207.198C1116.86 209.248 1116.22 210.959 1114.93 212.329C1113.66 213.7 1111.99 214.57 1109.94 214.94V215.226C1112.64 215.572 1114.69 216.507 1116.09 218.033C1117.51 219.547 1118.22 221.442 1118.2 223.719C1118.22 225.805 1117.61 227.659 1116.4 229.28C1115.19 230.901 1113.53 232.176 1111.41 233.106C1109.29 234.036 1106.86 234.501 1104.11 234.501Z" fill="black"/>
</svg>
