<svg width="1200" height="900" viewBox="0 0 1200 900" fill="none" xmlns="http://www.w3.org/2000/svg">
<rect width="1200" height="900" fill="white"/>
<path d="M968 449.5C968 653.017 803.017 818 599.5 818C395.983 818 231 653.017 231 449.5C231 245.983 395.983 81 599.5 81C803.017 81 968 245.983 968 449.5Z" fill="#1D1D1F"/>
<path d="M933.486 449.5C933.486 633.954 783.955 783.486 599.5 783.486C415.046 783.486 265.514 633.954 265.514 449.5C265.514 265.046 415.046 115.514 599.5 115.514C783.955 115.514 933.486 265.046 933.486 449.5Z" fill="#CCCFD0"/>
<path d="M905.344 449.5C905.344 618.412 768.413 755.344 599.5 755.344C430.587 755.344 293.656 618.412 293.656 449.5C293.656 280.587 430.587 143.655 599.5 143.655C768.413 143.655 905.344 280.587 905.344 449.5Z" fill="#EDEDED"/>
<path d="M600.164 187.198V208.437C666.706 208.615 726.911 235.756 770.428 279.512L785.446 264.493C785.133 264.18 784.82 263.866 784.506 263.553C737.223 216.508 672.095 187.373 600.164 187.198Z" fill="#FFC83F"/>
<path d="M414.493 263.553L429.512 278.572C473.098 235.226 533.17 208.435 599.5 208.435C599.72 208.435 599.943 208.435 600.164 208.438V187.198C599.943 187.196 599.72 187.196 599.5 187.196C599.28 187.196 599.057 187.196 598.836 187.198C526.904 187.376 461.777 216.506 414.493 263.553Z" fill="#D4DE4E"/>
<path d="M337.196 449.5H358.435C358.435 382.695 385.611 322.235 429.512 278.572L414.493 263.554C414.18 263.867 413.867 264.178 413.554 264.494C366.363 311.921 337.196 377.306 337.196 449.5Z" fill="#78C567"/>
<path d="M770.428 279.512C813.774 323.097 840.565 383.17 840.565 449.5H861.804C861.804 377.305 832.637 311.923 785.447 264.493L770.428 279.512Z" fill="#ED7C41"/>
<path d="M704.156 345.783C730.548 372.409 746.847 409.05 746.847 449.5H840.565C840.565 383.17 813.774 323.097 770.428 279.512L704.156 345.783Z" fill="#E95605"/>
<path d="M600.164 208.438V302.156C640.351 302.331 676.736 318.595 703.216 344.844C703.532 345.152 703.848 345.468 704.156 345.784L770.428 279.512C726.911 235.757 666.706 208.616 600.164 208.438Z" fill="#F8BA0E"/>
<path d="M429.512 278.572L495.781 344.841C522.261 318.597 558.649 302.331 598.836 302.156C599.057 302.153 599.28 302.153 599.5 302.153C599.72 302.153 599.943 302.153 600.164 302.156V208.438C599.943 208.435 599.72 208.435 599.5 208.435C533.17 208.435 473.098 235.226 429.512 278.572Z" fill="#C9D81D"/>
<path d="M358.435 449.5H452.153C452.153 409.05 468.452 372.407 494.841 345.781C495.152 345.465 495.465 345.152 495.781 344.841L429.512 278.572C385.611 322.235 358.435 382.695 358.435 449.5Z" fill="#4DB236"/>
<path d="M382 402.962C382 402.962 554.397 477.25 589.406 484.889C608.739 489.108 627.833 476.854 632.05 457.518C636.269 438.185 624.014 419.095 604.68 414.876C569.674 407.236 382 402.962 382 402.962Z" fill="#1D1D1F"/>
<path d="M599.481 434.925C607.646 436.706 612.821 444.771 611.04 452.936C609.258 461.101 601.194 466.276 593.028 464.495C584.863 462.713 579.688 454.649 581.47 446.484C583.251 438.318 591.315 433.144 599.481 434.925Z" fill="#EDEDED"/>
<path d="M747.327 480V464.727H757.619V467.39H750.556V471.029H757.089V473.691H750.556V477.338H757.648V480H747.327ZM762.794 464.727L765.873 469.933H765.993L769.088 464.727H772.734L768.073 472.364L772.839 480H769.125L765.993 474.787H765.873L762.741 480H759.042L763.823 472.364L759.132 464.727H762.794ZM774.358 480V464.727H780.383C781.541 464.727 782.528 464.949 783.344 465.391C784.159 465.828 784.78 466.437 785.208 467.218C785.641 467.994 785.857 468.888 785.857 469.903C785.857 470.917 785.638 471.812 785.201 472.587C784.763 473.363 784.129 473.967 783.299 474.4C782.474 474.832 781.474 475.048 780.301 475.048H776.461V472.461H779.779C780.401 472.461 780.913 472.354 781.315 472.14C781.723 471.921 782.026 471.62 782.225 471.238C782.429 470.85 782.531 470.405 782.531 469.903C782.531 469.396 782.429 468.953 782.225 468.575C782.026 468.192 781.723 467.897 781.315 467.688C780.908 467.474 780.391 467.367 779.764 467.367H777.587V480H774.358ZM787.534 480V464.727H797.825V467.39H790.763V471.029H797.296V473.691H790.763V477.338H797.855V480H787.534ZM812.747 464.727V480H809.958L803.314 470.387H803.202V480H799.973V464.727H802.806L809.399 474.332H809.533V464.727H812.747ZM823.28 469.12C823.22 468.518 822.964 468.051 822.512 467.718C822.06 467.385 821.446 467.218 820.67 467.218C820.143 467.218 819.698 467.293 819.335 467.442C818.972 467.586 818.694 467.787 818.5 468.046C818.311 468.304 818.217 468.598 818.217 468.926C818.207 469.199 818.264 469.438 818.388 469.642C818.517 469.846 818.694 470.022 818.918 470.171C819.141 470.315 819.4 470.442 819.693 470.551C819.986 470.656 820.3 470.745 820.633 470.82L822.005 471.148C822.671 471.297 823.283 471.496 823.839 471.745C824.396 471.993 824.879 472.299 825.286 472.662C825.694 473.025 826.01 473.452 826.233 473.945C826.462 474.437 826.579 475.001 826.584 475.637C826.579 476.572 826.34 477.382 825.868 478.069C825.401 478.75 824.724 479.279 823.839 479.657C822.959 480.03 821.898 480.216 820.655 480.216C819.422 480.216 818.348 480.027 817.434 479.65C816.524 479.272 815.813 478.712 815.301 477.972C814.794 477.226 814.528 476.304 814.503 475.205H817.627C817.662 475.717 817.809 476.145 818.067 476.488C818.331 476.826 818.681 477.082 819.119 477.256C819.561 477.425 820.061 477.509 820.618 477.509C821.165 477.509 821.64 477.43 822.042 477.271C822.45 477.112 822.766 476.89 822.989 476.607C823.213 476.324 823.325 475.998 823.325 475.63C823.325 475.287 823.223 474.999 823.019 474.765C822.82 474.531 822.527 474.332 822.139 474.168C821.756 474.004 821.287 473.855 820.73 473.721L819.067 473.303C817.779 472.99 816.762 472.5 816.017 471.834C815.271 471.168 814.901 470.271 814.906 469.142C814.901 468.217 815.147 467.409 815.644 466.718C816.146 466.027 816.834 465.488 817.709 465.1C818.584 464.712 819.579 464.518 820.692 464.518C821.826 464.518 822.815 464.712 823.66 465.1C824.511 465.488 825.172 466.027 825.644 466.718C826.116 467.409 826.36 468.21 826.375 469.12H823.28ZM831.565 464.727V480H828.336V464.727H831.565ZM836.561 464.727L840.252 476.331H840.394L844.093 464.727H847.672L842.407 480H838.246L832.974 464.727H836.561ZM849.09 480V464.727H859.382V467.39H852.32V471.029H858.852V473.691H852.32V477.338H859.411V480H849.09Z" fill="black"/>
<path d="M751.207 485.545V503H747.517V485.545H751.207ZM763.232 490.565C763.164 489.878 762.872 489.344 762.355 488.963C761.837 488.582 761.136 488.392 760.249 488.392C759.647 488.392 759.139 488.477 758.724 488.648C758.309 488.812 757.991 489.043 757.769 489.338C757.553 489.634 757.445 489.969 757.445 490.344C757.434 490.656 757.499 490.929 757.641 491.162C757.789 491.395 757.991 491.597 758.247 491.767C758.502 491.932 758.798 492.077 759.133 492.202C759.468 492.321 759.826 492.423 760.207 492.509L761.775 492.884C762.536 493.054 763.235 493.281 763.872 493.565C764.508 493.849 765.059 494.199 765.525 494.614C765.991 495.028 766.352 495.517 766.607 496.08C766.869 496.642 767.002 497.287 767.008 498.014C767.002 499.082 766.73 500.009 766.19 500.793C765.656 501.571 764.883 502.176 763.872 502.608C762.866 503.034 761.653 503.247 760.232 503.247C758.823 503.247 757.596 503.031 756.551 502.599C755.511 502.168 754.698 501.528 754.113 500.682C753.533 499.83 753.23 498.776 753.201 497.52H756.772C756.812 498.105 756.98 498.594 757.275 498.986C757.576 499.372 757.977 499.665 758.477 499.864C758.982 500.057 759.553 500.153 760.19 500.153C760.815 500.153 761.357 500.062 761.818 499.881C762.283 499.699 762.644 499.446 762.9 499.122C763.156 498.798 763.283 498.426 763.283 498.006C763.283 497.614 763.167 497.284 762.934 497.017C762.707 496.75 762.372 496.523 761.928 496.335C761.491 496.148 760.954 495.977 760.318 495.824L758.417 495.347C756.945 494.989 755.783 494.429 754.931 493.668C754.079 492.906 753.656 491.881 753.661 490.591C753.656 489.534 753.937 488.611 754.505 487.821C755.079 487.031 755.866 486.415 756.866 485.972C757.866 485.528 759.002 485.307 760.275 485.307C761.57 485.307 762.701 485.528 763.667 485.972C764.639 486.415 765.394 487.031 765.934 487.821C766.474 488.611 766.752 489.526 766.769 490.565H763.232ZM785.05 494.273C785.05 496.176 784.689 497.795 783.968 499.131C783.252 500.466 782.274 501.486 781.036 502.19C779.803 502.889 778.416 503.239 776.877 503.239C775.326 503.239 773.933 502.886 772.701 502.182C771.468 501.477 770.493 500.457 769.777 499.122C769.061 497.787 768.703 496.17 768.703 494.273C768.703 492.369 769.061 490.75 769.777 489.415C770.493 488.08 771.468 487.062 772.701 486.364C773.933 485.659 775.326 485.307 776.877 485.307C778.416 485.307 779.803 485.659 781.036 486.364C782.274 487.062 783.252 488.08 783.968 489.415C784.689 490.75 785.05 492.369 785.05 494.273ZM781.308 494.273C781.308 493.04 781.124 492 780.754 491.153C780.391 490.307 779.877 489.665 779.212 489.227C778.547 488.79 777.769 488.571 776.877 488.571C775.985 488.571 775.206 488.79 774.541 489.227C773.877 489.665 773.36 490.307 772.99 491.153C772.627 492 772.445 493.04 772.445 494.273C772.445 495.506 772.627 496.545 772.99 497.392C773.36 498.239 773.877 498.881 774.541 499.318C775.206 499.756 775.985 499.974 776.877 499.974C777.769 499.974 778.547 499.756 779.212 499.318C779.877 498.881 780.391 498.239 780.754 497.392C781.124 496.545 781.308 495.506 781.308 494.273ZM787.304 503V485.545H790.994V499.957H798.477V503H787.304ZM803.895 503H799.94L805.966 485.545H810.721L816.738 503H812.784L808.412 489.534H808.275L803.895 503ZM803.647 496.139H812.988V499.02H803.647V496.139ZM815.562 488.588V485.545H829.897V488.588H824.553V503H820.905V488.588H815.562ZM831.778 503V485.545H843.539V488.588H835.468V492.747H842.934V495.79H835.468V499.957H843.573V503H831.778ZM852.18 503H845.993V485.545H852.232C853.987 485.545 855.499 485.895 856.766 486.594C858.033 487.287 859.007 488.284 859.689 489.585C860.377 490.886 860.72 492.443 860.72 494.256C860.72 496.074 860.377 497.636 859.689 498.943C859.007 500.25 858.027 501.253 856.749 501.952C855.476 502.651 853.953 503 852.18 503ZM849.683 499.838H852.027C853.118 499.838 854.036 499.645 854.78 499.259C855.53 498.866 856.092 498.261 856.467 497.443C856.848 496.619 857.038 495.557 857.038 494.256C857.038 492.966 856.848 491.912 856.467 491.094C856.092 490.276 855.533 489.673 854.788 489.287C854.044 488.901 853.127 488.707 852.036 488.707H849.683V499.838Z" fill="black"/>
<path d="M360.967 466.93H355.678C355.582 466.246 355.384 465.638 355.087 465.107C354.789 464.567 354.406 464.108 353.94 463.73C353.473 463.352 352.933 463.062 352.322 462.861C351.718 462.66 351.062 462.559 350.354 462.559C349.074 462.559 347.959 462.877 347.009 463.513C346.059 464.141 345.323 465.058 344.8 466.266C344.277 467.465 344.015 468.922 344.015 470.636C344.015 472.399 344.277 473.88 344.8 475.08C345.331 476.279 346.071 477.184 347.021 477.796C347.971 478.408 349.07 478.714 350.317 478.714C351.018 478.714 351.666 478.621 352.261 478.436C352.865 478.251 353.4 477.981 353.867 477.627C354.334 477.265 354.72 476.826 355.026 476.311C355.34 475.796 355.558 475.208 355.678 474.548L360.967 474.572C360.83 475.707 360.488 476.802 359.94 477.857C359.401 478.903 358.673 479.841 357.755 480.67C356.845 481.491 355.759 482.143 354.495 482.626C353.239 483.101 351.819 483.338 350.233 483.338C348.027 483.338 346.055 482.839 344.317 481.841C342.586 480.843 341.218 479.398 340.212 477.506C339.214 475.615 338.714 473.325 338.714 470.636C338.714 467.94 339.222 465.646 340.236 463.754C341.25 461.863 342.626 460.422 344.365 459.432C346.104 458.434 348.06 457.935 350.233 457.935C351.666 457.935 352.994 458.136 354.217 458.538C355.449 458.941 356.54 459.528 357.489 460.301C358.439 461.066 359.212 462.004 359.808 463.114C360.411 464.225 360.798 465.497 360.967 466.93ZM364.036 483V458.273H369.264V468.475H379.876V458.273H385.092V483H379.876V472.786H369.264V483H364.036ZM388.723 483V458.273H405.385V462.583H393.951V468.475H404.527V472.786H393.951V478.69H405.433V483H388.723ZM413.123 483H407.521L416.057 458.273H422.794L431.318 483H425.716L419.522 463.923H419.329L413.123 483ZM412.773 473.281H426.006V477.362H412.773V473.281ZM433.615 483V458.273H443.37C445.246 458.273 446.844 458.631 448.164 459.347C449.484 460.056 450.49 461.042 451.182 462.305C451.882 463.561 452.233 465.01 452.233 466.652C452.233 468.294 451.878 469.743 451.17 470.999C450.462 472.254 449.435 473.232 448.091 473.933C446.755 474.633 445.137 474.983 443.238 474.983H437.02V470.793H442.392C443.399 470.793 444.228 470.62 444.88 470.274C445.54 469.92 446.031 469.433 446.353 468.813C446.683 468.185 446.848 467.465 446.848 466.652C446.848 465.831 446.683 465.115 446.353 464.503C446.031 463.883 445.54 463.404 444.88 463.066C444.22 462.72 443.382 462.547 442.368 462.547H438.843V483H433.615Z" fill="black"/>
<path d="M350.817 494.493C350.737 493.691 350.396 493.068 349.793 492.624C349.189 492.179 348.371 491.957 347.337 491.957C346.634 491.957 346.041 492.057 345.557 492.256C345.073 492.448 344.702 492.716 344.443 493.061C344.191 493.406 344.065 493.797 344.065 494.234C344.052 494.599 344.128 494.917 344.294 495.189C344.466 495.461 344.702 495.696 345 495.895C345.298 496.087 345.643 496.256 346.034 496.402C346.425 496.541 346.843 496.661 347.287 496.76L349.116 497.197C350.005 497.396 350.82 497.661 351.562 497.993C352.305 498.324 352.948 498.732 353.491 499.216C354.035 499.7 354.456 500.27 354.754 500.926C355.059 501.582 355.215 502.335 355.222 503.183C355.215 504.429 354.897 505.51 354.267 506.425C353.644 507.333 352.742 508.039 351.562 508.543C350.389 509.04 348.974 509.288 347.317 509.288C345.673 509.288 344.241 509.036 343.021 508.533C341.808 508.029 340.86 507.283 340.178 506.295C339.501 505.301 339.147 504.071 339.114 502.607H343.28C343.326 503.289 343.522 503.859 343.866 504.317C344.218 504.768 344.685 505.109 345.268 505.341C345.858 505.566 346.525 505.679 347.267 505.679C347.996 505.679 348.629 505.573 349.166 505.361C349.71 505.149 350.131 504.854 350.429 504.476C350.727 504.098 350.876 503.664 350.876 503.173C350.876 502.716 350.741 502.331 350.469 502.02C350.204 501.708 349.813 501.443 349.295 501.224C348.785 501.006 348.159 500.807 347.416 500.628L345.199 500.071C343.482 499.653 342.126 499 341.132 498.112C340.138 497.224 339.644 496.027 339.651 494.523C339.644 493.29 339.972 492.213 340.635 491.291C341.304 490.37 342.223 489.651 343.389 489.134C344.556 488.616 345.882 488.358 347.366 488.358C348.878 488.358 350.197 488.616 351.324 489.134C352.457 489.651 353.339 490.37 353.969 491.291C354.598 492.213 354.923 493.28 354.943 494.493H350.817ZM357.558 509V488.636H361.863V497.038H370.603V488.636H374.898V509H370.603V500.588H361.863V509H357.558ZM381.398 509H376.784L383.814 488.636H389.363L396.382 509H391.769L386.668 493.29H386.509L381.398 509ZM381.11 500.996H392.007V504.357H381.11V500.996ZM398.273 509V488.636H406.308C407.845 488.636 409.158 488.911 410.245 489.462C411.339 490.005 412.171 490.777 412.741 491.778C413.318 492.773 413.606 493.943 413.606 495.288C413.606 496.641 413.314 497.804 412.731 498.778C412.148 499.746 411.302 500.489 410.195 501.006C409.095 501.523 407.763 501.781 406.198 501.781H400.819V498.321H405.502C406.324 498.321 407.007 498.208 407.55 497.983C408.094 497.758 408.498 497.42 408.764 496.969C409.035 496.518 409.171 495.958 409.171 495.288C409.171 494.612 409.035 494.042 408.764 493.578C408.498 493.114 408.091 492.763 407.541 492.524C406.997 492.279 406.311 492.156 405.482 492.156H402.579V509H398.273ZM409.271 499.733L414.332 509H409.579L404.627 499.733H409.271ZM416.088 509V488.636H429.81V492.186H420.394V497.038H429.104V500.588H420.394V505.45H429.85V509H416.088ZM439.892 509H432.673V488.636H439.951C442 488.636 443.763 489.044 445.241 489.859C446.719 490.668 447.856 491.831 448.652 493.349C449.454 494.867 449.855 496.684 449.855 498.798C449.855 500.92 449.454 502.742 448.652 504.267C447.856 505.792 446.713 506.962 445.221 507.777C443.736 508.592 441.96 509 439.892 509ZM436.978 505.311H439.713C440.986 505.311 442.056 505.086 442.924 504.635C443.799 504.178 444.456 503.472 444.893 502.517C445.337 501.556 445.559 500.316 445.559 498.798C445.559 497.294 445.337 496.064 444.893 495.109C444.456 494.155 443.803 493.452 442.934 493.001C442.066 492.551 440.995 492.325 439.723 492.325H436.978V505.311Z" fill="black"/>
<path d="M389.771 583.273H401.961L408.126 608.489H408.603L423.12 583.273H435.311L428.549 624H418.964L423.12 598.983H422.782L408.901 623.741H402.796L397.149 598.844H396.811L392.595 624H383.009L389.771 583.273ZM462.73 583.273H472.554L468.198 609.543C467.695 612.579 466.535 615.223 464.718 617.477C462.915 619.718 460.615 621.455 457.818 622.688C455.02 623.907 451.905 624.517 448.471 624.517C445.024 624.517 442.114 623.907 439.741 622.688C437.368 621.455 435.651 619.718 434.59 617.477C433.53 615.223 433.245 612.579 433.735 609.543L438.09 583.273H447.934L443.698 608.688C443.473 610.093 443.579 611.346 444.017 612.446C444.467 613.533 445.197 614.395 446.204 615.031C447.212 615.654 448.445 615.966 449.903 615.966C451.375 615.966 452.72 615.654 453.94 615.031C455.16 614.395 456.167 613.533 456.963 612.446C457.758 611.346 458.269 610.093 458.494 608.688L462.73 583.273ZM468.602 624L475.363 583.273H485.207L479.798 616.006H496.741L495.389 624H468.602ZM496.225 591.267L497.577 583.273H532L530.648 591.267H518.299L512.89 624H503.185L508.594 591.267H496.225ZM543.292 583.273L536.53 624H526.687L533.448 583.273H543.292ZM562.876 599.898L561.663 607.375H542.83L544.043 599.898H562.876ZM565.661 591.267L567.013 583.273H601.436L600.084 591.267H587.734L582.325 624H572.621L578.03 591.267H565.661ZM596.122 624L602.884 583.273H631.281L629.929 591.267H611.375L610.023 599.619H627.125L625.773 607.634H608.671L607.318 616.006H625.872L624.52 624H596.122ZM668.748 583.273L661.987 624H653.634L641.365 600.494H641.086L637.168 624H627.325L634.086 583.273H642.558L654.728 606.739H655.066L658.924 583.273H668.748ZM673.626 624H663.046L683.549 583.273H696.654L703.635 624H693.055L688.581 593.534H688.262L673.626 624ZM674.899 607.972H697.012L695.74 615.449H673.626L674.899 607.972ZM746.083 583.273L739.321 624H730.969L718.699 600.494H718.421L714.503 624H704.659L711.421 583.273H719.892L732.063 606.739H732.401L736.259 583.273H746.083ZM783.395 598.028H773.571C773.624 596.994 773.525 596.073 773.273 595.264C773.021 594.442 772.624 593.74 772.08 593.156C771.536 592.56 770.86 592.109 770.052 591.804C769.243 591.499 768.302 591.347 767.228 591.347C765.173 591.347 763.31 591.857 761.64 592.878C759.969 593.899 758.571 595.37 757.444 597.293C756.317 599.215 755.528 601.522 755.077 604.213C754.666 606.812 754.673 608.979 755.097 610.716C755.535 612.453 756.343 613.759 757.523 614.634C758.703 615.495 760.201 615.926 762.017 615.926C763.197 615.926 764.291 615.787 765.299 615.509C766.32 615.217 767.241 614.799 768.063 614.256C768.885 613.712 769.594 613.056 770.191 612.287C770.801 611.505 771.271 610.636 771.603 609.682H781.506C781.016 611.472 780.207 613.255 779.08 615.031C777.966 616.795 776.561 618.392 774.864 619.824C773.167 621.256 771.198 622.402 768.958 623.264C766.717 624.126 764.225 624.557 761.481 624.557C757.729 624.557 754.494 623.715 751.776 622.031C749.071 620.348 747.116 617.908 745.91 614.713C744.716 611.505 744.491 607.62 745.233 603.06C745.963 598.645 747.401 594.926 749.549 591.903C751.71 588.881 754.335 586.594 757.424 585.043C760.526 583.491 763.834 582.716 767.347 582.716C769.892 582.716 772.179 583.061 774.208 583.75C776.249 584.426 777.98 585.42 779.398 586.733C780.817 588.032 781.871 589.63 782.56 591.526C783.263 593.421 783.541 595.589 783.395 598.028ZM786.126 583.273H797.123L802.89 600.315H803.307L814.702 583.273H825.699L806.31 610.398L804.043 624H794.259L796.546 610.398L786.126 583.273Z" fill="black"/>
</svg>
