<svg width="1200" height="900" viewBox="0 0 1200 900" fill="none" xmlns="http://www.w3.org/2000/svg">
<rect width="1200" height="900" fill="white"/>
<rect x="228" y="307" width="21.1461" height="21.1461" fill="#FF003C"/>
<rect x="228" y="336.427" width="21.1461" height="21.1461" fill="#990024"/>
<rect x="228" y="365.854" width="21.1461" height="21.1461" fill="#660018"/>
<rect x="538.748" y="307" width="21.1461" height="21.1461" fill="#FF003C"/>
<rect x="538.748" y="336.427" width="21.1461" height="21.1461" fill="#990024"/>
<rect x="538.748" y="365.854" width="21.1461" height="21.1461" fill="#660018"/>
<path d="M162.596 326.213C161.602 326.213 160.702 325.957 159.895 325.446C159.094 324.929 158.457 324.17 157.986 323.17C157.52 322.165 157.287 320.932 157.287 319.472C157.287 317.972 157.528 316.724 158.011 315.73C158.494 314.73 159.136 313.983 159.937 313.489C160.744 312.989 161.628 312.739 162.588 312.739C163.321 312.739 163.932 312.864 164.42 313.114C164.915 313.358 165.312 313.665 165.614 314.034C165.92 314.398 166.153 314.756 166.312 315.108H166.423V308.545H170.045V326H166.466V323.903H166.312C166.142 324.267 165.9 324.628 165.588 324.986C165.281 325.338 164.881 325.631 164.386 325.864C163.898 326.097 163.301 326.213 162.596 326.213ZM163.747 323.324C164.332 323.324 164.827 323.165 165.23 322.847C165.639 322.523 165.952 322.071 166.167 321.491C166.389 320.912 166.5 320.233 166.5 319.455C166.5 318.676 166.392 318 166.176 317.426C165.96 316.852 165.648 316.409 165.239 316.097C164.829 315.784 164.332 315.628 163.747 315.628C163.15 315.628 162.648 315.79 162.239 316.114C161.829 316.437 161.52 316.886 161.31 317.46C161.099 318.034 160.994 318.699 160.994 319.455C160.994 320.216 161.099 320.889 161.31 321.474C161.525 322.054 161.835 322.509 162.239 322.838C162.648 323.162 163.15 323.324 163.747 323.324ZM178.516 326.256C177.17 326.256 176.011 325.983 175.039 325.438C174.073 324.886 173.329 324.108 172.806 323.102C172.283 322.091 172.022 320.895 172.022 319.514C172.022 318.168 172.283 316.986 172.806 315.969C173.329 314.952 174.065 314.159 175.013 313.591C175.968 313.023 177.087 312.739 178.371 312.739C179.235 312.739 180.039 312.878 180.783 313.156C181.533 313.429 182.187 313.841 182.744 314.392C183.306 314.943 183.744 315.636 184.056 316.472C184.369 317.301 184.525 318.273 184.525 319.386V320.384H173.471V318.134H181.107C181.107 317.611 180.994 317.148 180.766 316.744C180.539 316.341 180.224 316.026 179.82 315.798C179.423 315.565 178.96 315.449 178.431 315.449C177.88 315.449 177.391 315.577 176.965 315.832C176.545 316.082 176.215 316.42 175.977 316.847C175.738 317.267 175.616 317.736 175.61 318.253V320.392C175.61 321.04 175.729 321.599 175.968 322.071C176.212 322.543 176.556 322.906 176.999 323.162C177.442 323.418 177.968 323.545 178.576 323.545C178.979 323.545 179.349 323.489 179.684 323.375C180.019 323.261 180.306 323.091 180.545 322.864C180.783 322.636 180.965 322.358 181.09 322.028L184.448 322.25C184.278 323.057 183.928 323.761 183.4 324.364C182.877 324.96 182.201 325.426 181.371 325.761C180.548 326.091 179.596 326.256 178.516 326.256ZM198.267 312.909L193.69 326H189.6L185.023 312.909H188.858L191.577 322.276H191.713L194.423 312.909H198.267Z" fill="black"/>
<rect x="262.527" y="307" width="21.1461" height="21.1461" fill="#FABE28"/>
<rect x="262.527" y="336.427" width="21.1461" height="21.1461" fill="#EAA905"/>
<rect x="262.527" y="365.854" width="21.1461" height="21.1461" fill="#B88504"/>
<path d="M158.464 341.909V344.636H150.58V341.909H158.464ZM152.37 338.773H156.001V350.977C156.001 351.312 156.052 351.574 156.154 351.761C156.257 351.943 156.399 352.071 156.58 352.145C156.768 352.219 156.984 352.256 157.228 352.256C157.399 352.256 157.569 352.241 157.74 352.213C157.91 352.179 158.041 352.153 158.132 352.136L158.703 354.838C158.521 354.895 158.265 354.96 157.936 355.034C157.606 355.114 157.205 355.162 156.734 355.179C155.859 355.213 155.092 355.097 154.433 354.83C153.779 354.562 153.271 354.148 152.907 353.585C152.544 353.023 152.365 352.312 152.37 351.455V338.773ZM166.174 355.256C164.828 355.256 163.669 354.983 162.697 354.438C161.731 353.886 160.987 353.108 160.464 352.102C159.941 351.091 159.68 349.895 159.68 348.514C159.68 347.168 159.941 345.986 160.464 344.969C160.987 343.952 161.723 343.159 162.671 342.591C163.626 342.023 164.745 341.739 166.029 341.739C166.893 341.739 167.697 341.878 168.441 342.156C169.191 342.429 169.845 342.841 170.402 343.392C170.964 343.943 171.402 344.636 171.714 345.472C172.027 346.301 172.183 347.273 172.183 348.386V349.384H161.129V347.134H168.765C168.765 346.611 168.652 346.148 168.424 345.744C168.197 345.341 167.882 345.026 167.478 344.798C167.081 344.565 166.617 344.449 166.089 344.449C165.538 344.449 165.049 344.577 164.623 344.832C164.203 345.082 163.873 345.42 163.635 345.847C163.396 346.267 163.274 346.736 163.268 347.253V349.392C163.268 350.04 163.387 350.599 163.626 351.071C163.87 351.543 164.214 351.906 164.657 352.162C165.1 352.418 165.626 352.545 166.234 352.545C166.637 352.545 167.007 352.489 167.342 352.375C167.677 352.261 167.964 352.091 168.203 351.864C168.441 351.636 168.623 351.358 168.748 351.028L172.106 351.25C171.936 352.057 171.586 352.761 171.058 353.364C170.535 353.96 169.859 354.426 169.029 354.761C168.206 355.091 167.254 355.256 166.174 355.256ZM184.964 345.642L181.64 345.847C181.584 345.562 181.461 345.307 181.274 345.08C181.086 344.847 180.839 344.662 180.532 344.526C180.231 344.384 179.87 344.312 179.45 344.312C178.887 344.312 178.413 344.432 178.027 344.67C177.64 344.903 177.447 345.216 177.447 345.608C177.447 345.92 177.572 346.185 177.822 346.401C178.072 346.616 178.501 346.79 179.109 346.92L181.478 347.398C182.751 347.659 183.7 348.08 184.325 348.659C184.95 349.239 185.262 350 185.262 350.943C185.262 351.801 185.01 352.554 184.504 353.202C184.004 353.849 183.316 354.355 182.441 354.719C181.572 355.077 180.569 355.256 179.433 355.256C177.7 355.256 176.319 354.895 175.291 354.173C174.268 353.446 173.669 352.457 173.493 351.207L177.064 351.02C177.172 351.548 177.433 351.952 177.848 352.23C178.262 352.503 178.794 352.639 179.441 352.639C180.078 352.639 180.589 352.517 180.976 352.273C181.368 352.023 181.566 351.702 181.572 351.31C181.566 350.98 181.427 350.71 181.155 350.5C180.882 350.284 180.461 350.119 179.893 350.006L177.626 349.554C176.348 349.298 175.396 348.855 174.771 348.224C174.152 347.594 173.842 346.79 173.842 345.812C173.842 344.972 174.069 344.247 174.524 343.639C174.984 343.031 175.629 342.562 176.459 342.233C177.294 341.903 178.271 341.739 179.39 341.739C181.044 341.739 182.345 342.088 183.294 342.787C184.248 343.486 184.805 344.437 184.964 345.642ZM194.032 341.909V344.636H186.148V341.909H194.032ZM187.938 338.773H191.569V350.977C191.569 351.312 191.62 351.574 191.722 351.761C191.824 351.943 191.966 352.071 192.148 352.145C192.336 352.219 192.552 352.256 192.796 352.256C192.966 352.256 193.137 352.241 193.307 352.213C193.478 352.179 193.608 352.153 193.699 352.136L194.27 354.838C194.089 354.895 193.833 354.96 193.503 355.034C193.174 355.114 192.773 355.162 192.302 355.179C191.427 355.213 190.66 355.097 190.001 354.83C189.347 354.562 188.839 354.148 188.475 353.585C188.111 353.023 187.932 352.312 187.938 351.455V338.773Z" fill="black"/>
<rect x="297.055" y="307" width="21.1461" height="21.1461" fill="#00C176"/>
<rect x="297.055" y="336.427" width="21.1461" height="21.1461" fill="#008F57"/>
<rect x="297.055" y="365.854" width="21.1461" height="21.1461" fill="#005C38"/>
<rect x="331.583" y="307" width="21.1461" height="21.1461" fill="#FF003C"/>
<rect x="331.583" y="336.427" width="21.1461" height="21.1461" fill="#990024"/>
<rect x="331.583" y="365.854" width="21.1461" height="21.1461" fill="#660018"/>
<rect x="366.11" y="307" width="21.1461" height="21.1461" fill="#FABE28"/>
<rect x="366.11" y="336.427" width="21.1461" height="21.1461" fill="#EAA905"/>
<rect x="366.11" y="365.854" width="21.1461" height="21.1461" fill="#B88504"/>
<rect x="400.638" y="307" width="21.1461" height="21.1461" fill="#00C176"/>
<rect x="400.638" y="336.427" width="21.1461" height="21.1461" fill="#008F57"/>
<rect x="400.638" y="365.854" width="21.1461" height="21.1461" fill="#005C38"/>
<rect x="435.166" y="307" width="21.1461" height="21.1461" fill="#FF003C"/>
<rect x="435.166" y="336.427" width="21.1461" height="21.1461" fill="#990024"/>
<rect x="435.166" y="365.854" width="21.1461" height="21.1461" fill="#660018"/>
<rect x="469.693" y="307" width="21.1461" height="21.1461" fill="#FABE28"/>
<rect x="469.693" y="336.427" width="21.1461" height="21.1461" fill="#EAA905"/>
<rect x="469.693" y="365.854" width="21.1461" height="21.1461" fill="#B88504"/>
<rect x="504.221" y="307" width="21.1461" height="21.1461" fill="#00C176"/>
<rect x="504.221" y="336.427" width="21.1461" height="21.1461" fill="#008F57"/>
<rect x="504.221" y="365.854" width="21.1461" height="21.1461" fill="#005C38"/>
<rect x="745.231" y="307" width="21.1461" height="21.1461" fill="#FF003C"/>
<rect x="745.231" y="336.427" width="21.1461" height="21.1461" fill="#990024"/>
<rect x="745.231" y="365.854" width="21.1461" height="21.1461" fill="#660018"/>
<rect x="1055.98" y="307" width="21.1461" height="21.1461" fill="#FF003C"/>
<rect x="1055.98" y="336.427" width="21.1461" height="21.1461" fill="#990024"/>
<rect x="1055.98" y="365.854" width="21.1461" height="21.1461" fill="#660018"/>
<rect x="779.758" y="307" width="21.1461" height="21.1461" fill="#FABE28"/>
<rect x="779.758" y="336.427" width="21.1461" height="21.1461" fill="#EAA905"/>
<rect x="779.758" y="365.854" width="21.1461" height="21.1461" fill="#B88504"/>
<rect x="814.285" y="307" width="21.1461" height="21.1461" fill="#00C176"/>
<rect x="814.285" y="336.427" width="21.1461" height="21.1461" fill="#008F57"/>
<rect x="814.285" y="365.854" width="21.1461" height="21.1461" fill="#005C38"/>
<rect x="848.813" y="307" width="21.1461" height="21.1461" fill="#FF003C"/>
<rect x="848.813" y="336.427" width="21.1461" height="21.1461" fill="#990024"/>
<rect x="848.813" y="365.854" width="21.1461" height="21.1461" fill="#660018"/>
<rect x="883.341" y="307" width="21.1461" height="21.1461" fill="#FABE28"/>
<rect x="883.341" y="336.427" width="21.1461" height="21.1461" fill="#EAA905"/>
<rect x="883.341" y="365.854" width="21.1461" height="21.1461" fill="#B88504"/>
<rect x="917.869" y="307" width="21.1461" height="21.1461" fill="#00C176"/>
<rect x="917.869" y="336.427" width="21.1461" height="21.1461" fill="#008F57"/>
<rect x="917.869" y="365.854" width="21.1461" height="21.1461" fill="#005C38"/>
<rect x="952.396" y="307" width="21.1461" height="21.1461" fill="#FF003C"/>
<rect x="952.396" y="336.427" width="21.1461" height="21.1461" fill="#990024"/>
<rect x="952.396" y="365.854" width="21.1461" height="21.1461" fill="#660018"/>
<rect x="986.924" y="307" width="21.1461" height="21.1461" fill="#FABE28"/>
<rect x="986.924" y="336.427" width="21.1461" height="21.1461" fill="#EAA905"/>
<rect x="986.924" y="365.854" width="21.1461" height="21.1461" fill="#B88504"/>
<rect x="1021.45" y="307" width="21.1461" height="21.1461" fill="#00C176"/>
<rect x="1021.45" y="336.427" width="21.1461" height="21.1461" fill="#008F57"/>
<rect x="1021.45" y="365.854" width="21.1461" height="21.1461" fill="#005C38"/>
<rect x="573.01" y="307" width="21.1461" height="21.1461" fill="#FABE28"/>
<rect x="573.01" y="336.427" width="21.1461" height="21.1461" fill="#EAA905"/>
<rect x="573.01" y="365.854" width="21.1461" height="21.1461" fill="#B88504"/>
<rect x="607.538" y="307" width="21.1461" height="21.1461" fill="#00C176"/>
<rect x="607.538" y="336.427" width="21.1461" height="21.1461" fill="#008F57"/>
<rect x="607.538" y="365.854" width="21.1461" height="21.1461" fill="#005C38"/>
<rect x="642.066" y="307" width="21.1461" height="21.1461" fill="#FF003C"/>
<rect x="642.066" y="336.427" width="21.1461" height="21.1461" fill="#990024"/>
<rect x="642.066" y="365.854" width="21.1461" height="21.1461" fill="#660018"/>
<rect x="676.593" y="307" width="21.1461" height="21.1461" fill="#FABE28"/>
<rect x="676.593" y="336.427" width="21.1461" height="21.1461" fill="#EAA905"/>
<rect x="676.593" y="365.854" width="21.1461" height="21.1461" fill="#B88504"/>
<rect x="711.121" y="307" width="21.1461" height="21.1461" fill="#00C176"/>
<rect x="711.121" y="336.427" width="21.1461" height="21.1461" fill="#008F57"/>
<rect x="711.121" y="365.854" width="21.1461" height="21.1461" fill="#005C38"/>
<rect x="228" y="408" width="21.1461" height="21.1461" fill="#FF003C"/>
<rect x="228" y="437.427" width="21.1461" height="21.1461" fill="#990024"/>
<rect x="228" y="466.854" width="21.1461" height="21.1461" fill="#660018"/>
<rect x="538.748" y="408" width="21.1461" height="21.1461" fill="#FF003C"/>
<rect x="538.748" y="437.427" width="21.1461" height="21.1461" fill="#990024"/>
<rect x="538.748" y="466.854" width="21.1461" height="21.1461" fill="#660018"/>
<rect x="262.527" y="408" width="21.1461" height="21.1461" fill="#FABE28"/>
<rect x="262.527" y="437.427" width="21.1461" height="21.1461" fill="#EAA905"/>
<rect x="262.527" y="466.854" width="21.1461" height="21.1461" fill="#B88504"/>
<rect x="297.055" y="408" width="21.1461" height="21.1461" fill="#00C176"/>
<rect x="297.055" y="437.427" width="21.1461" height="21.1461" fill="#008F57"/>
<rect x="297.055" y="466.854" width="21.1461" height="21.1461" fill="#005C38"/>
<rect x="331.583" y="408" width="21.1461" height="21.1461" fill="#FF003C"/>
<rect x="331.583" y="437.427" width="21.1461" height="21.1461" fill="#990024"/>
<rect x="331.583" y="466.854" width="21.1461" height="21.1461" fill="#660018"/>
<rect x="366.11" y="408" width="21.1461" height="21.1461" fill="#FABE28"/>
<rect x="366.11" y="437.427" width="21.1461" height="21.1461" fill="#EAA905"/>
<rect x="366.11" y="466.854" width="21.1461" height="21.1461" fill="#B88504"/>
<rect x="400.638" y="408" width="21.1461" height="21.1461" fill="#00C176"/>
<rect x="400.638" y="437.427" width="21.1461" height="21.1461" fill="#008F57"/>
<rect x="400.638" y="466.854" width="21.1461" height="21.1461" fill="#005C38"/>
<rect x="435.166" y="408" width="21.1461" height="21.1461" fill="#FF003C"/>
<rect x="435.166" y="437.427" width="21.1461" height="21.1461" fill="#990024"/>
<rect x="435.166" y="466.854" width="21.1461" height="21.1461" fill="#660018"/>
<rect x="469.693" y="408" width="21.1461" height="21.1461" fill="#FABE28"/>
<rect x="469.693" y="437.427" width="21.1461" height="21.1461" fill="#EAA905"/>
<rect x="469.693" y="466.854" width="21.1461" height="21.1461" fill="#B88504"/>
<rect x="504.221" y="408" width="21.1461" height="21.1461" fill="#00C176"/>
<rect x="504.221" y="437.427" width="21.1461" height="21.1461" fill="#008F57"/>
<rect x="504.221" y="466.854" width="21.1461" height="21.1461" fill="#005C38"/>
<rect x="745.231" y="408" width="21.1461" height="21.1461" fill="#FF003C"/>
<rect x="745.231" y="437.427" width="21.1461" height="21.1461" fill="#990024"/>
<rect x="745.231" y="466.854" width="21.1461" height="21.1461" fill="#660018"/>
<rect x="1055.98" y="408" width="21.1461" height="21.1461" fill="#FF003C"/>
<rect x="1055.98" y="437.427" width="21.1461" height="21.1461" fill="#990024"/>
<rect x="1055.98" y="466.854" width="21.1461" height="21.1461" fill="#660018"/>
<rect x="779.758" y="408" width="21.1461" height="21.1461" fill="#FABE28"/>
<rect x="779.758" y="437.427" width="21.1461" height="21.1461" fill="#EAA905"/>
<rect x="779.758" y="466.854" width="21.1461" height="21.1461" fill="#B88504"/>
<rect x="814.285" y="408" width="21.1461" height="21.1461" fill="#00C176"/>
<rect x="814.285" y="437.427" width="21.1461" height="21.1461" fill="#008F57"/>
<rect x="814.285" y="466.854" width="21.1461" height="21.1461" fill="#005C38"/>
<rect x="848.813" y="408" width="21.1461" height="21.1461" fill="#FF003C"/>
<rect x="848.813" y="437.427" width="21.1461" height="21.1461" fill="#990024"/>
<rect x="848.813" y="466.854" width="21.1461" height="21.1461" fill="#660018"/>
<rect x="883.341" y="408" width="21.1461" height="21.1461" fill="#FABE28"/>
<rect x="883.341" y="437.427" width="21.1461" height="21.1461" fill="#EAA905"/>
<rect x="883.341" y="466.854" width="21.1461" height="21.1461" fill="#B88504"/>
<rect x="917.869" y="408" width="21.1461" height="21.1461" fill="#00C176"/>
<rect x="917.869" y="437.427" width="21.1461" height="21.1461" fill="#008F57"/>
<rect x="917.869" y="466.854" width="21.1461" height="21.1461" fill="#005C38"/>
<rect x="952.396" y="408" width="21.1461" height="21.1461" fill="#FF003C"/>
<rect x="952.396" y="437.427" width="21.1461" height="21.1461" fill="#990024"/>
<rect x="952.396" y="466.854" width="21.1461" height="21.1461" fill="#660018"/>
<rect x="986.924" y="408" width="21.1461" height="21.1461" fill="#FABE28"/>
<rect x="986.924" y="437.427" width="21.1461" height="21.1461" fill="#EAA905"/>
<rect x="986.924" y="466.854" width="21.1461" height="21.1461" fill="#B88504"/>
<rect x="1021.45" y="408" width="21.1461" height="21.1461" fill="#00C176"/>
<rect x="1021.45" y="437.427" width="21.1461" height="21.1461" fill="#008F57"/>
<rect x="1021.45" y="466.854" width="21.1461" height="21.1461" fill="#005C38"/>
<rect x="573.01" y="408" width="21.1461" height="21.1461" fill="#FABE28"/>
<rect x="573.01" y="437.427" width="21.1461" height="21.1461" fill="#EAA905"/>
<rect x="573.01" y="466.854" width="21.1461" height="21.1461" fill="#B88504"/>
<rect x="607.538" y="408" width="21.1461" height="21.1461" fill="#00C176"/>
<rect x="607.538" y="437.427" width="21.1461" height="21.1461" fill="#008F57"/>
<rect x="607.538" y="466.854" width="21.1461" height="21.1461" fill="#005C38"/>
<rect x="642.066" y="408" width="21.1461" height="21.1461" fill="#FF003C"/>
<rect x="642.066" y="437.427" width="21.1461" height="21.1461" fill="#990024"/>
<rect x="642.066" y="466.854" width="21.1461" height="21.1461" fill="#660018"/>
<rect x="676.593" y="408" width="21.1461" height="21.1461" fill="#FABE28"/>
<rect x="676.593" y="437.427" width="21.1461" height="21.1461" fill="#EAA905"/>
<rect x="676.593" y="466.854" width="21.1461" height="21.1461" fill="#B88504"/>
<rect x="711.121" y="408" width="21.1461" height="21.1461" fill="#00C176"/>
<rect x="711.121" y="437.427" width="21.1461" height="21.1461" fill="#008F57"/>
<rect x="711.121" y="466.854" width="21.1461" height="21.1461" fill="#005C38"/>
<path d="M143.481 388.909V370.909H147.061V373.108H147.223C147.382 372.756 147.612 372.398 147.913 372.034C148.22 371.665 148.618 371.358 149.106 371.114C149.601 370.864 150.214 370.739 150.947 370.739C151.902 370.739 152.782 370.989 153.589 371.489C154.396 371.983 155.041 372.73 155.524 373.73C156.007 374.724 156.248 375.972 156.248 377.472C156.248 378.932 156.013 380.165 155.541 381.17C155.075 382.17 154.439 382.929 153.632 383.446C152.831 383.957 151.933 384.213 150.939 384.213C150.234 384.213 149.635 384.097 149.14 383.864C148.652 383.631 148.251 383.338 147.939 382.986C147.626 382.628 147.388 382.267 147.223 381.903H147.112V388.909H143.481ZM147.035 377.455C147.035 378.233 147.143 378.912 147.359 379.491C147.575 380.071 147.888 380.523 148.297 380.847C148.706 381.165 149.203 381.324 149.788 381.324C150.379 381.324 150.879 381.162 151.288 380.838C151.697 380.509 152.007 380.054 152.217 379.474C152.433 378.889 152.541 378.216 152.541 377.455C152.541 376.699 152.436 376.034 152.226 375.46C152.015 374.886 151.706 374.437 151.297 374.114C150.888 373.79 150.385 373.628 149.788 373.628C149.197 373.628 148.697 373.784 148.288 374.097C147.885 374.409 147.575 374.852 147.359 375.426C147.143 376 147.035 376.676 147.035 377.455ZM158.189 384V370.909H161.709V373.193H161.845C162.084 372.381 162.484 371.767 163.047 371.352C163.609 370.932 164.257 370.722 164.99 370.722C165.172 370.722 165.368 370.733 165.578 370.756C165.788 370.778 165.973 370.81 166.132 370.849V374.071C165.962 374.02 165.726 373.974 165.425 373.935C165.124 373.895 164.848 373.875 164.598 373.875C164.064 373.875 163.587 373.991 163.166 374.224C162.751 374.452 162.422 374.77 162.177 375.179C161.939 375.588 161.82 376.06 161.82 376.594V384H158.189ZM172.835 384.256C171.511 384.256 170.366 383.974 169.4 383.412C168.44 382.844 167.698 382.054 167.175 381.043C166.653 380.026 166.391 378.847 166.391 377.506C166.391 376.153 166.653 374.972 167.175 373.96C167.698 372.943 168.44 372.153 169.4 371.591C170.366 371.023 171.511 370.739 172.835 370.739C174.158 370.739 175.3 371.023 176.261 371.591C177.227 372.153 177.971 372.943 178.494 373.96C179.016 374.972 179.278 376.153 179.278 377.506C179.278 378.847 179.016 380.026 178.494 381.043C177.971 382.054 177.227 382.844 176.261 383.412C175.3 383.974 174.158 384.256 172.835 384.256ZM172.852 381.443C173.454 381.443 173.957 381.273 174.36 380.932C174.764 380.585 175.068 380.114 175.272 379.517C175.482 378.92 175.587 378.241 175.587 377.48C175.587 376.719 175.482 376.04 175.272 375.443C175.068 374.847 174.764 374.375 174.36 374.028C173.957 373.682 173.454 373.509 172.852 373.509C172.244 373.509 171.732 373.682 171.318 374.028C170.908 374.375 170.599 374.847 170.389 375.443C170.184 376.04 170.082 376.719 170.082 377.48C170.082 378.241 170.184 378.92 170.389 379.517C170.599 380.114 170.908 380.585 171.318 380.932C171.732 381.273 172.244 381.443 172.852 381.443ZM185.982 384.213C184.988 384.213 184.088 383.957 183.281 383.446C182.48 382.929 181.843 382.17 181.372 381.17C180.906 380.165 180.673 378.932 180.673 377.472C180.673 375.972 180.914 374.724 181.397 373.73C181.88 372.73 182.522 371.983 183.323 371.489C184.13 370.989 185.014 370.739 185.974 370.739C186.707 370.739 187.318 370.864 187.806 371.114C188.301 371.358 188.698 371.665 188.999 372.034C189.306 372.398 189.539 372.756 189.698 373.108H189.809V366.545H193.431V384H189.852V381.903H189.698C189.528 382.267 189.286 382.628 188.974 382.986C188.667 383.338 188.267 383.631 187.772 383.864C187.284 384.097 186.687 384.213 185.982 384.213ZM187.133 381.324C187.718 381.324 188.213 381.165 188.616 380.847C189.025 380.523 189.338 380.071 189.553 379.491C189.775 378.912 189.886 378.233 189.886 377.455C189.886 376.676 189.778 376 189.562 375.426C189.346 374.852 189.034 374.409 188.624 374.097C188.215 373.784 187.718 373.628 187.133 373.628C186.536 373.628 186.034 373.79 185.624 374.114C185.215 374.437 184.906 374.886 184.695 375.46C184.485 376.034 184.38 376.699 184.38 377.455C184.38 378.216 184.485 378.889 184.695 379.474C184.911 380.054 185.221 380.509 185.624 380.838C186.034 381.162 186.536 381.324 187.133 381.324Z" fill="black"/>
<path d="M162.596 427.213C161.602 427.213 160.702 426.957 159.895 426.446C159.094 425.929 158.457 425.17 157.986 424.17C157.52 423.165 157.287 421.932 157.287 420.472C157.287 418.972 157.528 417.724 158.011 416.73C158.494 415.73 159.136 414.983 159.937 414.489C160.744 413.989 161.628 413.739 162.588 413.739C163.321 413.739 163.932 413.864 164.42 414.114C164.915 414.358 165.312 414.665 165.614 415.034C165.92 415.398 166.153 415.756 166.312 416.108H166.423V409.545H170.045V427H166.466V424.903H166.312C166.142 425.267 165.9 425.628 165.588 425.986C165.281 426.338 164.881 426.631 164.386 426.864C163.898 427.097 163.301 427.213 162.596 427.213ZM163.747 424.324C164.332 424.324 164.827 424.165 165.23 423.847C165.639 423.523 165.952 423.071 166.167 422.491C166.389 421.912 166.5 421.233 166.5 420.455C166.5 419.676 166.392 419 166.176 418.426C165.96 417.852 165.648 417.409 165.239 417.097C164.829 416.784 164.332 416.628 163.747 416.628C163.15 416.628 162.648 416.79 162.239 417.114C161.829 417.437 161.52 417.886 161.31 418.46C161.099 419.034 160.994 419.699 160.994 420.455C160.994 421.216 161.099 421.889 161.31 422.474C161.525 423.054 161.835 423.509 162.239 423.838C162.648 424.162 163.15 424.324 163.747 424.324ZM178.516 427.256C177.17 427.256 176.011 426.983 175.039 426.438C174.073 425.886 173.329 425.108 172.806 424.102C172.283 423.091 172.022 421.895 172.022 420.514C172.022 419.168 172.283 417.986 172.806 416.969C173.329 415.952 174.065 415.159 175.013 414.591C175.968 414.023 177.087 413.739 178.371 413.739C179.235 413.739 180.039 413.878 180.783 414.156C181.533 414.429 182.187 414.841 182.744 415.392C183.306 415.943 183.744 416.636 184.056 417.472C184.369 418.301 184.525 419.273 184.525 420.386V421.384H173.471V419.134H181.107C181.107 418.611 180.994 418.148 180.766 417.744C180.539 417.341 180.224 417.026 179.82 416.798C179.423 416.565 178.96 416.449 178.431 416.449C177.88 416.449 177.391 416.577 176.965 416.832C176.545 417.082 176.215 417.42 175.977 417.847C175.738 418.267 175.616 418.736 175.61 419.253V421.392C175.61 422.04 175.729 422.599 175.968 423.071C176.212 423.543 176.556 423.906 176.999 424.162C177.442 424.418 177.968 424.545 178.576 424.545C178.979 424.545 179.349 424.489 179.684 424.375C180.019 424.261 180.306 424.091 180.545 423.864C180.783 423.636 180.965 423.358 181.09 423.028L184.448 423.25C184.278 424.057 183.928 424.761 183.4 425.364C182.877 425.96 182.201 426.426 181.371 426.761C180.548 427.091 179.596 427.256 178.516 427.256ZM198.267 413.909L193.69 427H189.6L185.023 413.909H188.858L191.577 423.276H191.713L194.423 413.909H198.267Z" fill="black"/>
<path d="M158.464 442.909V445.636H150.58V442.909H158.464ZM152.37 439.773H156.001V451.977C156.001 452.312 156.052 452.574 156.154 452.761C156.257 452.943 156.399 453.071 156.58 453.145C156.768 453.219 156.984 453.256 157.228 453.256C157.399 453.256 157.569 453.241 157.74 453.213C157.91 453.179 158.041 453.153 158.132 453.136L158.703 455.838C158.521 455.895 158.265 455.96 157.936 456.034C157.606 456.114 157.205 456.162 156.734 456.179C155.859 456.213 155.092 456.097 154.433 455.83C153.779 455.562 153.271 455.148 152.907 454.585C152.544 454.023 152.365 453.312 152.37 452.455V439.773ZM166.174 456.256C164.828 456.256 163.669 455.983 162.697 455.438C161.731 454.886 160.987 454.108 160.464 453.102C159.941 452.091 159.68 450.895 159.68 449.514C159.68 448.168 159.941 446.986 160.464 445.969C160.987 444.952 161.723 444.159 162.671 443.591C163.626 443.023 164.745 442.739 166.029 442.739C166.893 442.739 167.697 442.878 168.441 443.156C169.191 443.429 169.845 443.841 170.402 444.392C170.964 444.943 171.402 445.636 171.714 446.472C172.027 447.301 172.183 448.273 172.183 449.386V450.384H161.129V448.134H168.765C168.765 447.611 168.652 447.148 168.424 446.744C168.197 446.341 167.882 446.026 167.478 445.798C167.081 445.565 166.617 445.449 166.089 445.449C165.538 445.449 165.049 445.577 164.623 445.832C164.203 446.082 163.873 446.42 163.635 446.847C163.396 447.267 163.274 447.736 163.268 448.253V450.392C163.268 451.04 163.387 451.599 163.626 452.071C163.87 452.543 164.214 452.906 164.657 453.162C165.1 453.418 165.626 453.545 166.234 453.545C166.637 453.545 167.007 453.489 167.342 453.375C167.677 453.261 167.964 453.091 168.203 452.864C168.441 452.636 168.623 452.358 168.748 452.028L172.106 452.25C171.936 453.057 171.586 453.761 171.058 454.364C170.535 454.96 169.859 455.426 169.029 455.761C168.206 456.091 167.254 456.256 166.174 456.256ZM184.964 446.642L181.64 446.847C181.584 446.562 181.461 446.307 181.274 446.08C181.086 445.847 180.839 445.662 180.532 445.526C180.231 445.384 179.87 445.312 179.45 445.312C178.887 445.312 178.413 445.432 178.027 445.67C177.64 445.903 177.447 446.216 177.447 446.608C177.447 446.92 177.572 447.185 177.822 447.401C178.072 447.616 178.501 447.79 179.109 447.92L181.478 448.398C182.751 448.659 183.7 449.08 184.325 449.659C184.95 450.239 185.262 451 185.262 451.943C185.262 452.801 185.01 453.554 184.504 454.202C184.004 454.849 183.316 455.355 182.441 455.719C181.572 456.077 180.569 456.256 179.433 456.256C177.7 456.256 176.319 455.895 175.291 455.173C174.268 454.446 173.669 453.457 173.493 452.207L177.064 452.02C177.172 452.548 177.433 452.952 177.848 453.23C178.262 453.503 178.794 453.639 179.441 453.639C180.078 453.639 180.589 453.517 180.976 453.273C181.368 453.023 181.566 452.702 181.572 452.31C181.566 451.98 181.427 451.71 181.155 451.5C180.882 451.284 180.461 451.119 179.893 451.006L177.626 450.554C176.348 450.298 175.396 449.855 174.771 449.224C174.152 448.594 173.842 447.79 173.842 446.812C173.842 445.972 174.069 445.247 174.524 444.639C174.984 444.031 175.629 443.562 176.459 443.233C177.294 442.903 178.271 442.739 179.39 442.739C181.044 442.739 182.345 443.088 183.294 443.787C184.248 444.486 184.805 445.437 184.964 446.642ZM194.032 442.909V445.636H186.148V442.909H194.032ZM187.938 439.773H191.569V451.977C191.569 452.312 191.62 452.574 191.722 452.761C191.824 452.943 191.966 453.071 192.148 453.145C192.336 453.219 192.552 453.256 192.796 453.256C192.966 453.256 193.137 453.241 193.307 453.213C193.478 453.179 193.608 453.153 193.699 453.136L194.27 455.838C194.089 455.895 193.833 455.96 193.503 456.034C193.174 456.114 192.773 456.162 192.302 456.179C191.427 456.213 190.66 456.097 190.001 455.83C189.347 455.562 188.839 455.148 188.475 454.585C188.111 454.023 187.932 453.312 187.938 452.455V439.773Z" fill="black"/>
<path d="M143.481 489.909V471.909H147.061V474.108H147.223C147.382 473.756 147.612 473.398 147.913 473.034C148.22 472.665 148.618 472.358 149.106 472.114C149.601 471.864 150.214 471.739 150.947 471.739C151.902 471.739 152.782 471.989 153.589 472.489C154.396 472.983 155.041 473.73 155.524 474.73C156.007 475.724 156.248 476.972 156.248 478.472C156.248 479.932 156.013 481.165 155.541 482.17C155.075 483.17 154.439 483.929 153.632 484.446C152.831 484.957 151.933 485.213 150.939 485.213C150.234 485.213 149.635 485.097 149.14 484.864C148.652 484.631 148.251 484.338 147.939 483.986C147.626 483.628 147.388 483.267 147.223 482.903H147.112V489.909H143.481ZM147.035 478.455C147.035 479.233 147.143 479.912 147.359 480.491C147.575 481.071 147.888 481.523 148.297 481.847C148.706 482.165 149.203 482.324 149.788 482.324C150.379 482.324 150.879 482.162 151.288 481.838C151.697 481.509 152.007 481.054 152.217 480.474C152.433 479.889 152.541 479.216 152.541 478.455C152.541 477.699 152.436 477.034 152.226 476.46C152.015 475.886 151.706 475.437 151.297 475.114C150.888 474.79 150.385 474.628 149.788 474.628C149.197 474.628 148.697 474.784 148.288 475.097C147.885 475.409 147.575 475.852 147.359 476.426C147.143 477 147.035 477.676 147.035 478.455ZM158.189 485V471.909H161.709V474.193H161.845C162.084 473.381 162.484 472.767 163.047 472.352C163.609 471.932 164.257 471.722 164.99 471.722C165.172 471.722 165.368 471.733 165.578 471.756C165.788 471.778 165.973 471.81 166.132 471.849V475.071C165.962 475.02 165.726 474.974 165.425 474.935C165.124 474.895 164.848 474.875 164.598 474.875C164.064 474.875 163.587 474.991 163.166 475.224C162.751 475.452 162.422 475.77 162.177 476.179C161.939 476.588 161.82 477.06 161.82 477.594V485H158.189ZM172.835 485.256C171.511 485.256 170.366 484.974 169.4 484.412C168.44 483.844 167.698 483.054 167.175 482.043C166.653 481.026 166.391 479.847 166.391 478.506C166.391 477.153 166.653 475.972 167.175 474.96C167.698 473.943 168.44 473.153 169.4 472.591C170.366 472.023 171.511 471.739 172.835 471.739C174.158 471.739 175.3 472.023 176.261 472.591C177.227 473.153 177.971 473.943 178.494 474.96C179.016 475.972 179.278 477.153 179.278 478.506C179.278 479.847 179.016 481.026 178.494 482.043C177.971 483.054 177.227 483.844 176.261 484.412C175.3 484.974 174.158 485.256 172.835 485.256ZM172.852 482.443C173.454 482.443 173.957 482.273 174.36 481.932C174.764 481.585 175.068 481.114 175.272 480.517C175.482 479.92 175.587 479.241 175.587 478.48C175.587 477.719 175.482 477.04 175.272 476.443C175.068 475.847 174.764 475.375 174.36 475.028C173.957 474.682 173.454 474.509 172.852 474.509C172.244 474.509 171.732 474.682 171.318 475.028C170.908 475.375 170.599 475.847 170.389 476.443C170.184 477.04 170.082 477.719 170.082 478.48C170.082 479.241 170.184 479.92 170.389 480.517C170.599 481.114 170.908 481.585 171.318 481.932C171.732 482.273 172.244 482.443 172.852 482.443ZM185.982 485.213C184.988 485.213 184.088 484.957 183.281 484.446C182.48 483.929 181.843 483.17 181.372 482.17C180.906 481.165 180.673 479.932 180.673 478.472C180.673 476.972 180.914 475.724 181.397 474.73C181.88 473.73 182.522 472.983 183.323 472.489C184.13 471.989 185.014 471.739 185.974 471.739C186.707 471.739 187.318 471.864 187.806 472.114C188.301 472.358 188.698 472.665 188.999 473.034C189.306 473.398 189.539 473.756 189.698 474.108H189.809V467.545H193.431V485H189.852V482.903H189.698C189.528 483.267 189.286 483.628 188.974 483.986C188.667 484.338 188.267 484.631 187.772 484.864C187.284 485.097 186.687 485.213 185.982 485.213ZM187.133 482.324C187.718 482.324 188.213 482.165 188.616 481.847C189.025 481.523 189.338 481.071 189.553 480.491C189.775 479.912 189.886 479.233 189.886 478.455C189.886 477.676 189.778 477 189.562 476.426C189.346 475.852 189.034 475.409 188.624 475.097C188.215 474.784 187.718 474.628 187.133 474.628C186.536 474.628 186.034 474.79 185.624 475.114C185.215 475.437 184.906 475.886 184.695 476.46C184.485 477.034 184.38 477.699 184.38 478.455C184.38 479.216 184.485 479.889 184.695 480.474C184.911 481.054 185.221 481.509 185.624 481.838C186.034 482.162 186.536 482.324 187.133 482.324Z" fill="black"/>
<path d="M805 558C847 546 1081 583 1085 531C1089 479 1116 447 1085 446" stroke="black"/>
<path d="M804 550C848 515 1013 561 1046 538C1079 515 1069 514 1071 496" stroke="black"/>
<path d="M806 531C856 491 952 531 981 531C1010 531 1039 546 1046 507C1053 468 1058 368 1046 347" stroke="black"/>
<path d="M800 516C814 506 865 494 917 505C969 516 1004 538 1009 516C1014 494 1023 389 1016 375" stroke="black"/>
<path d="M520 561C433 568 327 606 241 594C155 582 185 324 222 315" stroke="black"/>
<path d="M520 550C466 550 345 602 267 576C189 550 187 398 218 344" stroke="black"/>
<path d="M518 540C500 539 246 619 269 500" stroke="black"/>
<path d="M521 530C485 530 342 610 328 541C314 472 300 348 328 348" stroke="black"/>
<path d="M526 521C494 511 459 553 416 541C373 529 382 454 396 447" stroke="black"/>
<path d="M541 512C516 504 482 451 462 448" stroke="black"/>
<path d="M554 516C559 482 542 452 531 448" stroke="black"/>
<path d="M574 513C577 459 553 354 531 347" stroke="black"/>
<path d="M588 512C590 476 577 321 602 317" stroke="black"/>
<path d="M601 512C607 488 597 352 638 347" stroke="black"/>
<path d="M618 509C628 466 610 420 638 416" stroke="black"/>
<path d="M788 510C805 480 856 449 878 449" stroke="black"/>
<path d="M775 511C781 440 836 443 865 432C894 421 861 374 879 374" stroke="black"/>
<path d="M757 510C758 471 830 449 839 406C848 363 859 317 839 316" stroke="black"/>
<path d="M743 508C745 459 811 398 809 350" stroke="black"/>
<path d="M728 510C729 452 751 407 774 397C797 387 810 337 774 337" stroke="black"/>
<path d="M711 510C712 476 769 386 740 350" stroke="black"/>
<path d="M692 510C689 490 687 493 687 477" stroke="black"/>
<path d="M676 508C667 471 660 446 676 446" stroke="black"/>
<path d="M654 509C654 477 643 415 673 416" stroke="black"/>
<rect x="535" y="516" width="265" height="56.5968" rx="5.28942" fill="#EBEBEB" fill-opacity="0.9"/>
<path d="M577.572 522.355C565.453 522.355 555.629 532.179 555.629 544.298C555.629 556.418 565.453 566.241 577.572 566.241C589.69 566.241 599.515 556.417 599.515 544.298C599.515 532.18 589.69 522.355 577.572 522.355ZM577.572 563.424C574.124 563.424 571.329 561.121 571.329 558.28H583.815C583.815 561.12 581.018 563.424 577.572 563.424ZM587.883 556.577H567.257V552.835H587.87V556.577H587.883ZM587.81 550.912H567.318L567.114 550.675C565.003 548.111 564.505 546.773 564.024 545.411C564.016 545.366 566.584 545.936 568.405 546.345C569.17 546.517 569.939 546.672 570.712 546.811C569.396 545.27 568.615 543.31 568.615 541.306C568.615 536.908 571.989 533.064 570.771 529.957C571.955 530.053 573.222 532.457 573.307 536.216C574.568 534.476 575.093 531.298 575.093 529.349C575.093 527.331 576.423 524.988 577.752 524.908C576.566 526.861 578.059 528.537 579.385 532.691C579.884 534.253 579.818 536.879 580.203 538.543C580.33 535.083 580.925 530.035 583.12 528.294C582.152 530.486 583.264 533.234 584.023 534.554C585.25 536.683 585.993 538.296 585.993 541.35C585.993 543.398 585.238 545.323 583.963 546.828C585.412 546.557 586.413 546.311 586.413 546.311L591.118 545.392C591.118 545.392 590.436 548.202 587.807 550.912H587.81Z" fill="#DA4E31"/>
<path d="M609.438 531.864C610.865 531.626 612.734 531.424 615.111 531.424C618.032 531.424 620.172 532.102 621.53 533.326C622.753 534.413 623.534 536.077 623.534 538.116C623.534 540.188 622.923 541.821 621.768 543.007C620.172 544.672 617.66 545.52 614.77 545.52C613.886 545.52 613.071 545.483 612.391 545.336V554.506H609.457L609.438 531.864ZM612.373 542.905C613.018 543.075 613.834 543.143 614.819 543.143C618.386 543.143 620.559 541.377 620.559 538.283C620.559 535.226 618.386 533.766 615.158 533.766C613.867 533.766 612.884 533.869 612.371 534.004L612.373 542.905ZM626.848 543.176L626.712 538.046H629.328L629.463 541.307H629.566C630.314 539.099 632.148 537.705 634.151 537.705C634.457 537.705 634.694 537.742 634.967 537.773V540.592C634.661 540.524 634.356 540.524 633.947 540.524C631.842 540.524 630.347 542.087 629.938 544.33C629.868 544.791 629.834 545.257 629.836 545.723V554.49H626.846V543.178L626.848 543.176ZM652.513 546.11C652.513 552.192 648.267 554.84 644.326 554.84C639.91 554.84 636.445 551.579 636.445 546.382C636.445 540.913 640.08 537.685 644.599 537.685C649.322 537.685 652.513 541.115 652.513 546.11ZM639.503 546.281C639.503 549.883 641.52 552.599 644.462 552.599C647.315 552.599 649.456 549.916 649.456 546.213C649.456 543.425 648.062 539.928 644.529 539.928C641.03 539.928 639.504 543.189 639.504 546.281H639.503ZM656.287 542.474L656.151 538.024H658.767L658.902 540.707H659.005C659.922 539.145 661.452 537.681 664.202 537.681C666.411 537.681 668.109 539.039 668.824 540.977H668.892C669.349 540.134 669.987 539.403 670.761 538.837C671.746 538.09 672.778 537.681 674.361 537.681C676.569 537.681 679.797 539.108 679.797 544.834V554.481H676.875V545.208C676.875 542.017 675.683 540.146 673.308 540.146C671.575 540.146 670.282 541.402 669.741 542.829C669.588 543.313 669.508 543.817 669.503 544.324V554.481H666.579V544.632C666.579 542.017 665.424 540.148 663.15 540.148C661.316 540.148 659.922 541.643 659.445 543.137C659.275 543.545 659.207 544.091 659.207 544.599V554.503H656.285V542.508L656.287 542.474ZM686.285 546.793C686.353 550.835 688.901 552.5 691.925 552.5C694.065 552.5 695.409 552.126 696.477 551.651L697.02 553.791C695.967 554.268 694.133 554.844 691.518 554.844C686.456 554.844 683.434 551.48 683.434 546.521C683.434 541.562 686.355 537.689 691.145 537.689C696.546 537.689 697.94 542.376 697.94 545.401C697.95 545.867 697.915 546.334 697.838 546.794L686.285 546.793ZM695.052 544.652C695.088 542.782 694.27 539.829 690.907 539.829C687.85 539.829 686.56 542.58 686.322 544.652H695.052ZM705.239 534.089V538.032H709.52V540.306H705.239V549.173C705.239 551.19 705.817 552.364 707.482 552.364C708.299 552.364 708.774 552.296 709.216 552.181L709.351 554.455C708.774 554.638 707.857 554.862 706.701 554.862C705.307 554.862 704.189 554.385 703.473 553.606C702.657 552.689 702.318 551.227 702.318 549.29V540.304H699.774V538.03H702.342V534.993L705.239 534.089ZM712.887 530.334H715.877V540.629H715.944C716.449 539.733 717.189 538.993 718.085 538.488C719.015 537.953 720.069 537.672 721.142 537.672C723.35 537.672 726.882 539.029 726.882 544.671V554.453H723.893V545.025C723.893 542.375 722.908 540.165 720.087 540.165C718.151 540.165 716.658 541.522 716.078 543.099C715.91 543.539 715.895 543.983 715.895 544.526V554.429H712.905V530.353L712.887 530.334ZM733.406 546.774C733.473 550.816 736.021 552.482 739.045 552.482C741.185 552.482 742.53 552.107 743.597 551.632L744.14 553.773C743.087 554.249 741.253 554.825 738.638 554.825C733.576 554.825 730.568 551.462 730.568 546.503C730.568 541.544 733.49 537.67 738.28 537.67C743.681 537.67 745.075 542.358 745.075 545.382C745.086 545.849 745.051 546.316 744.972 546.776L733.406 546.774ZM742.172 544.634C742.209 542.763 741.391 539.811 738.027 539.811C734.97 539.811 733.681 542.562 733.442 544.634H742.172ZM762.518 549.971L762.654 554.49H760.002L759.831 551.807H759.745C758.997 553.131 757.233 554.864 754.309 554.864C751.727 554.864 748.637 553.402 748.637 547.662V538.048H751.626V547.117C751.626 550.242 752.611 552.381 755.294 552.381C757.299 552.381 758.691 550.987 759.237 549.63C759.424 549.142 759.516 548.623 759.509 548.1V538.044H762.498L762.518 549.971ZM767.072 551.464C767.989 552.007 769.551 552.619 771.046 552.619C773.186 552.619 774.204 551.566 774.204 550.173C774.204 548.746 773.355 547.999 771.178 547.183C768.189 546.096 766.777 544.5 766.777 542.529C766.777 539.878 768.95 537.705 772.449 537.705C774.114 537.705 775.574 538.145 776.458 538.725L775.725 540.898C775.079 540.491 773.891 539.913 772.361 539.913C770.595 539.913 769.643 540.933 769.643 542.156C769.643 543.513 770.593 544.126 772.733 544.975C775.552 546.028 777.047 547.455 777.047 549.901C777.047 552.823 774.773 554.86 770.932 554.86C769.131 554.86 767.448 554.383 766.311 553.705L767.072 551.464Z" fill="#E6522C"/>
</svg>
