<svg width="1200" height="900" viewBox="0 0 1200 900" fill="none" xmlns="http://www.w3.org/2000/svg">
<rect width="1200" height="900" fill="white"/>
<path d="M141.49 312.734H125.936C125.652 310.722 125.072 308.935 124.196 307.372C123.32 305.786 122.196 304.437 120.822 303.324C119.449 302.211 117.863 301.359 116.064 300.767C114.288 300.175 112.359 299.879 110.276 299.879C106.511 299.879 103.232 300.814 100.439 302.685C97.6454 304.531 95.4792 307.23 93.9403 310.781C92.4015 314.309 91.6321 318.594 91.6321 323.636C91.6321 328.821 92.4015 333.177 93.9403 336.705C95.5028 340.232 97.6809 342.895 100.474 344.695C103.268 346.494 106.5 347.393 110.169 347.393C112.229 347.393 114.134 347.121 115.886 346.577C117.662 346.032 119.236 345.239 120.609 344.197C121.982 343.132 123.119 341.842 124.018 340.327C124.942 338.812 125.581 337.083 125.936 335.142L141.49 335.213C141.088 338.551 140.081 341.771 138.472 344.872C136.885 347.95 134.743 350.708 132.044 353.146C129.369 355.561 126.173 357.479 122.456 358.899C118.763 360.296 114.584 360.994 109.92 360.994C103.434 360.994 97.6335 359.527 92.5199 356.591C87.4299 353.655 83.4053 349.406 80.446 343.842C77.5104 338.279 76.0426 331.544 76.0426 323.636C76.0426 315.705 77.5341 308.958 80.517 303.395C83.5 297.831 87.5483 293.594 92.6619 290.682C97.7756 287.746 103.528 286.278 109.92 286.278C114.134 286.278 118.041 286.87 121.639 288.054C125.261 289.238 128.469 290.966 131.263 293.239C134.056 295.488 136.329 298.246 138.081 301.513C139.857 304.78 140.993 308.52 141.49 312.734ZM174.246 361.065C168.729 361.065 163.959 359.893 159.934 357.55C155.934 355.182 152.844 351.892 150.666 347.678C148.488 343.44 147.399 338.527 147.399 332.94C147.399 327.306 148.488 322.382 150.666 318.168C152.844 313.93 155.934 310.639 159.934 308.295C163.959 305.928 168.729 304.744 174.246 304.744C179.762 304.744 184.52 305.928 188.521 308.295C192.546 310.639 195.647 313.93 197.825 318.168C200.003 322.382 201.092 327.306 201.092 332.94C201.092 338.527 200.003 343.44 197.825 347.678C195.647 351.892 192.546 355.182 188.521 357.55C184.52 359.893 179.762 361.065 174.246 361.065ZM174.317 349.347C176.826 349.347 178.921 348.636 180.602 347.216C182.283 345.772 183.55 343.807 184.402 341.321C185.278 338.835 185.716 336.006 185.716 332.834C185.716 329.661 185.278 326.832 184.402 324.347C183.55 321.861 182.283 319.896 180.602 318.452C178.921 317.008 176.826 316.286 174.317 316.286C171.783 316.286 169.653 317.008 167.925 318.452C166.22 319.896 164.93 321.861 164.054 324.347C163.202 326.832 162.775 329.661 162.775 332.834C162.775 336.006 163.202 338.835 164.054 341.321C164.93 343.807 166.22 345.772 167.925 347.216C169.653 348.636 171.783 349.347 174.317 349.347ZM208.297 360V305.455H222.715V315.078H223.354C224.49 311.882 226.384 309.361 229.036 307.514C231.687 305.668 234.86 304.744 238.553 304.744C242.293 304.744 245.478 305.679 248.105 307.55C250.733 309.396 252.485 311.906 253.361 315.078H253.929C255.042 311.953 257.054 309.455 259.966 307.585C262.902 305.691 266.37 304.744 270.371 304.744C275.461 304.744 279.592 306.366 282.765 309.609C285.961 312.829 287.559 317.398 287.559 323.317V360H272.466V326.3C272.466 323.269 271.661 320.997 270.051 319.482C268.442 317.966 266.429 317.209 264.015 317.209C261.268 317.209 259.126 318.085 257.587 319.837C256.048 321.565 255.279 323.849 255.279 326.69V360H240.613V325.98C240.613 323.305 239.843 321.174 238.304 319.588C236.789 318.002 234.789 317.209 232.303 317.209C230.622 317.209 229.107 317.635 227.757 318.487C226.432 319.316 225.378 320.488 224.597 322.003C223.816 323.494 223.425 325.246 223.425 327.259V360H208.297ZM296.877 380.455V305.455H311.791V314.616H312.466C313.129 313.149 314.088 311.657 315.342 310.142C316.621 308.603 318.278 307.325 320.314 306.307C322.374 305.265 324.931 304.744 327.985 304.744C331.962 304.744 335.631 305.786 338.993 307.869C342.355 309.929 345.042 313.042 347.054 317.209C349.066 321.352 350.073 326.548 350.073 332.798C350.073 338.883 349.09 344.02 347.125 348.21C345.184 352.377 342.532 355.537 339.171 357.692C335.833 359.822 332.092 360.888 327.949 360.888C325.013 360.888 322.516 360.402 320.456 359.432C318.42 358.461 316.751 357.242 315.449 355.774C314.147 354.283 313.153 352.779 312.466 351.264H312.004V380.455H296.877ZM311.685 332.727C311.685 335.971 312.135 338.8 313.034 341.214C313.934 343.629 315.236 345.511 316.94 346.861C318.645 348.187 320.717 348.849 323.155 348.849C325.617 348.849 327.7 348.175 329.405 346.825C331.11 345.452 332.4 343.558 333.276 341.143C334.175 338.705 334.625 335.9 334.625 332.727C334.625 329.579 334.187 326.809 333.311 324.418C332.435 322.027 331.145 320.156 329.44 318.807C327.736 317.457 325.641 316.783 323.155 316.783C320.693 316.783 318.61 317.434 316.905 318.736C315.224 320.038 313.934 321.884 313.034 324.276C312.135 326.667 311.685 329.484 311.685 332.727ZM373.08 361.03C369.6 361.03 366.499 360.426 363.776 359.219C361.054 357.988 358.899 356.177 357.313 353.786C355.751 351.371 354.969 348.364 354.969 344.766C354.969 341.735 355.526 339.19 356.638 337.131C357.751 335.071 359.266 333.414 361.184 332.159C363.102 330.904 365.28 329.957 367.718 329.318C370.18 328.679 372.761 328.229 375.459 327.969C378.632 327.637 381.189 327.33 383.13 327.045C385.071 326.738 386.48 326.288 387.356 325.696C388.232 325.104 388.67 324.228 388.67 323.068V322.855C388.67 320.606 387.959 318.866 386.539 317.635C385.142 316.404 383.154 315.788 380.573 315.788C377.851 315.788 375.684 316.392 374.075 317.599C372.465 318.783 371.399 320.275 370.879 322.074L356.887 320.938C357.597 317.623 358.994 314.759 361.077 312.344C363.161 309.905 365.848 308.035 369.138 306.733C372.453 305.407 376.288 304.744 380.644 304.744C383.674 304.744 386.575 305.099 389.344 305.81C392.138 306.52 394.612 307.621 396.766 309.112C398.944 310.604 400.661 312.521 401.915 314.865C403.17 317.185 403.798 319.967 403.798 323.21V360H389.451V352.436H389.025C388.149 354.141 386.977 355.644 385.509 356.946C384.041 358.224 382.278 359.231 380.218 359.964C378.158 360.675 375.779 361.03 373.08 361.03ZM377.413 350.589C379.638 350.589 381.603 350.152 383.308 349.276C385.012 348.376 386.35 347.169 387.32 345.653C388.291 344.138 388.776 342.422 388.776 340.504V334.716C388.303 335.024 387.652 335.308 386.823 335.568C386.018 335.805 385.107 336.03 384.089 336.243C383.071 336.432 382.053 336.61 381.035 336.776C380.017 336.918 379.093 337.048 378.265 337.166C376.489 337.427 374.939 337.841 373.613 338.409C372.287 338.977 371.257 339.747 370.523 340.717C369.79 341.664 369.423 342.848 369.423 344.268C369.423 346.328 370.168 347.902 371.66 348.991C373.175 350.057 375.093 350.589 377.413 350.589ZM412.902 360V305.455H427.569V314.972H428.137C429.131 311.586 430.8 309.029 433.144 307.301C435.488 305.549 438.187 304.673 441.241 304.673C441.998 304.673 442.815 304.721 443.691 304.815C444.567 304.91 445.336 305.04 445.999 305.206V318.629C445.289 318.416 444.306 318.227 443.052 318.061C441.797 317.895 440.649 317.812 439.607 317.812C437.382 317.812 435.393 318.298 433.641 319.268C431.913 320.215 430.54 321.541 429.522 323.246C428.527 324.95 428.03 326.915 428.03 329.141V360H412.902ZM451.189 360V305.455H466.317V360H451.189ZM458.788 298.423C456.539 298.423 454.61 297.678 453 296.186C451.414 294.671 450.621 292.86 450.621 290.753C450.621 288.67 451.414 286.882 453 285.391C454.61 283.875 456.539 283.118 458.788 283.118C461.037 283.118 462.955 283.875 464.541 285.391C466.151 286.882 466.956 288.67 466.956 290.753C466.956 292.86 466.151 294.671 464.541 296.186C462.955 297.678 461.037 298.423 458.788 298.423ZM490.931 328.466V360H475.803V305.455H490.221V315.078H490.86C492.068 311.906 494.092 309.396 496.933 307.55C499.774 305.679 503.218 304.744 507.266 304.744C511.054 304.744 514.357 305.573 517.174 307.23C519.991 308.887 522.181 311.255 523.744 314.332C525.306 317.386 526.087 321.032 526.087 325.27V360H510.96V327.969C510.983 324.631 510.131 322.027 508.403 320.156C506.675 318.262 504.295 317.315 501.265 317.315C499.229 317.315 497.43 317.753 495.867 318.629C494.328 319.505 493.121 320.784 492.245 322.464C491.393 324.122 490.955 326.122 490.931 328.466ZM559.953 381.591C555.052 381.591 550.85 380.916 547.346 379.567C543.866 378.241 541.096 376.43 539.036 374.134C536.977 371.837 535.639 369.257 535.024 366.392L549.015 364.51C549.441 365.599 550.116 366.617 551.039 367.564C551.963 368.511 553.182 369.268 554.697 369.837C556.236 370.429 558.106 370.724 560.308 370.724C563.599 370.724 566.309 369.92 568.44 368.31C570.594 366.723 571.671 364.06 571.671 360.32V350.341H571.032C570.369 351.856 569.375 353.288 568.049 354.638C566.724 355.987 565.019 357.088 562.936 357.94C560.852 358.793 558.367 359.219 555.478 359.219C551.383 359.219 547.654 358.272 544.292 356.378C540.954 354.46 538.291 351.536 536.302 347.607C534.337 343.653 533.355 338.658 533.355 332.621C533.355 326.442 534.361 321.281 536.373 317.138C538.385 312.995 541.061 309.893 544.399 307.834C547.76 305.774 551.442 304.744 555.443 304.744C558.497 304.744 561.054 305.265 563.113 306.307C565.173 307.325 566.83 308.603 568.085 310.142C569.363 311.657 570.346 313.149 571.032 314.616H571.6V305.455H586.622V360.533C586.622 365.173 585.485 369.055 583.213 372.18C580.94 375.305 577.791 377.649 573.767 379.212C569.766 380.798 565.161 381.591 559.953 381.591ZM560.272 347.855C562.711 347.855 564.77 347.251 566.451 346.044C568.156 344.813 569.458 343.061 570.358 340.788C571.281 338.492 571.742 335.746 571.742 332.55C571.742 329.354 571.293 326.584 570.393 324.24C569.493 321.873 568.191 320.038 566.487 318.736C564.782 317.434 562.711 316.783 560.272 316.783C557.786 316.783 555.691 317.457 553.987 318.807C552.282 320.133 550.992 321.979 550.116 324.347C549.24 326.714 548.802 329.448 548.802 332.55C548.802 335.698 549.24 338.421 550.116 340.717C551.016 342.99 552.306 344.754 553.987 346.009C555.691 347.24 557.786 347.855 560.272 347.855ZM616.541 360V305.455H630.959V315.078H631.598C632.735 311.882 634.629 309.361 637.28 307.514C639.932 305.668 643.104 304.744 646.797 304.744C650.538 304.744 653.722 305.679 656.35 307.55C658.978 309.396 660.729 311.906 661.605 315.078H662.174C663.286 311.953 665.299 309.455 668.21 307.585C671.146 305.691 674.614 304.744 678.615 304.744C683.705 304.744 687.836 306.366 691.009 309.609C694.205 312.829 695.803 317.398 695.803 323.317V360H680.71V326.3C680.71 323.269 679.906 320.997 678.296 319.482C676.686 317.966 674.674 317.209 672.259 317.209C669.513 317.209 667.37 318.085 665.831 319.837C664.292 321.565 663.523 323.849 663.523 326.69V360H648.857V325.98C648.857 323.305 648.087 321.174 646.549 319.588C645.033 318.002 643.033 317.209 640.547 317.209C638.866 317.209 637.351 317.635 636.002 318.487C634.676 319.316 633.622 320.488 632.841 322.003C632.06 323.494 631.669 325.246 631.669 327.259V360H616.541ZM740.099 336.776V305.455H755.227V360H740.703V350.092H740.135C738.904 353.288 736.856 355.857 733.992 357.798C731.151 359.74 727.682 360.71 723.587 360.71C719.941 360.71 716.733 359.882 713.963 358.224C711.193 356.567 709.027 354.212 707.465 351.158C705.926 348.104 705.144 344.446 705.121 340.185V305.455H720.249V337.486C720.272 340.705 721.136 343.25 722.841 345.121C724.546 346.991 726.83 347.926 729.695 347.926C731.518 347.926 733.222 347.512 734.808 346.683C736.394 345.831 737.673 344.576 738.644 342.919C739.638 341.262 740.123 339.214 740.099 336.776ZM779.824 287.273V360H764.696V287.273H779.824ZM818.324 305.455V316.818H785.476V305.455H818.324ZM792.933 292.386H808.061V343.239C808.061 344.635 808.274 345.724 808.7 346.506C809.126 347.263 809.718 347.796 810.476 348.104C811.257 348.411 812.156 348.565 813.174 348.565C813.885 348.565 814.595 348.506 815.305 348.388C816.015 348.246 816.56 348.139 816.939 348.068L819.318 359.325C818.56 359.562 817.495 359.834 816.122 360.142C814.749 360.473 813.08 360.675 811.115 360.746C807.469 360.888 804.273 360.402 801.527 359.29C798.804 358.177 796.685 356.449 795.17 354.105C793.655 351.761 792.909 348.802 792.933 345.227V292.386ZM825.546 360V305.455H840.674V360H825.546ZM833.146 298.423C830.897 298.423 828.967 297.678 827.357 296.186C825.771 294.671 824.978 292.86 824.978 290.753C824.978 288.67 825.771 286.882 827.357 285.391C828.967 283.875 830.897 283.118 833.146 283.118C835.395 283.118 837.312 283.875 838.899 285.391C840.509 286.882 841.313 288.67 841.313 290.753C841.313 292.86 840.509 294.671 838.899 296.186C837.312 297.678 835.395 298.423 833.146 298.423ZM884.145 324.134V336.136H850.978V324.134H884.145ZM106.05 389.455V400.818H73.2017V389.455H106.05ZM80.6591 376.386H95.7869V427.239C95.7869 428.635 96 429.724 96.4261 430.506C96.8523 431.263 97.4441 431.796 98.2017 432.104C98.983 432.411 99.8826 432.565 100.901 432.565C101.611 432.565 102.321 432.506 103.031 432.388C103.741 432.246 104.286 432.139 104.665 432.068L107.044 443.325C106.286 443.562 105.221 443.834 103.848 444.142C102.475 444.473 100.806 444.675 98.8409 444.746C95.1951 444.888 91.9991 444.402 89.2528 443.29C86.5303 442.177 84.4115 440.449 82.8963 438.105C81.3812 435.761 80.6354 432.802 80.6591 429.227V376.386ZM137.545 445.065C131.934 445.065 127.104 443.929 123.056 441.656C119.031 439.36 115.93 436.116 113.752 431.926C111.574 427.712 110.485 422.729 110.485 416.976C110.485 411.365 111.574 406.441 113.752 402.203C115.93 397.965 118.996 394.663 122.949 392.295C126.927 389.928 131.59 388.744 136.941 388.744C140.539 388.744 143.889 389.324 146.991 390.484C150.116 391.621 152.838 393.337 155.158 395.634C157.502 397.93 159.325 400.818 160.627 404.298C161.929 407.755 162.58 411.803 162.58 416.443V420.598H116.522V411.223H148.34C148.34 409.045 147.867 407.116 146.92 405.435C145.973 403.754 144.659 402.44 142.978 401.493C141.321 400.522 139.391 400.037 137.189 400.037C134.893 400.037 132.857 400.57 131.081 401.635C129.33 402.677 127.956 404.085 126.962 405.861C125.968 407.613 125.459 409.566 125.435 411.72V420.634C125.435 423.332 125.932 425.664 126.927 427.629C127.945 429.594 129.377 431.109 131.224 432.175C133.07 433.24 135.26 433.773 137.793 433.773C139.474 433.773 141.013 433.536 142.41 433.062C143.806 432.589 145.002 431.879 145.996 430.932C146.991 429.985 147.748 428.825 148.269 427.452L162.26 428.375C161.55 431.737 160.094 434.672 157.893 437.182C155.715 439.668 152.897 441.609 149.441 443.006C146.008 444.379 142.043 445.065 137.545 445.065ZM184.948 412.466V444H169.821V389.455H184.238V399.078H184.877C186.085 395.906 188.109 393.396 190.95 391.55C193.791 389.679 197.235 388.744 201.284 388.744C205.072 388.744 208.374 389.573 211.191 391.23C214.009 392.887 216.198 395.255 217.761 398.332C219.323 401.386 220.105 405.032 220.105 409.27V444H204.977V411.969C205.001 408.631 204.148 406.027 202.42 404.156C200.692 402.262 198.313 401.315 195.282 401.315C193.246 401.315 191.447 401.753 189.885 402.629C188.346 403.505 187.138 404.784 186.262 406.464C185.41 408.122 184.972 410.122 184.948 412.466ZM244.95 445.03C241.47 445.03 238.369 444.426 235.646 443.219C232.924 441.988 230.769 440.177 229.183 437.786C227.621 435.371 226.839 432.364 226.839 428.766C226.839 425.735 227.396 423.19 228.508 421.131C229.621 419.071 231.136 417.414 233.054 416.159C234.971 414.904 237.149 413.957 239.588 413.318C242.05 412.679 244.63 412.229 247.329 411.969C250.502 411.637 253.059 411.33 255 411.045C256.941 410.738 258.35 410.288 259.226 409.696C260.102 409.104 260.54 408.228 260.54 407.068V406.855C260.54 404.606 259.829 402.866 258.409 401.635C257.012 400.404 255.023 399.788 252.443 399.788C249.72 399.788 247.554 400.392 245.944 401.599C244.335 402.783 243.269 404.275 242.748 406.074L228.757 404.938C229.467 401.623 230.864 398.759 232.947 396.344C235.031 393.905 237.718 392.035 241.008 390.733C244.323 389.407 248.158 388.744 252.514 388.744C255.544 388.744 258.444 389.099 261.214 389.81C264.008 390.52 266.482 391.621 268.636 393.112C270.814 394.604 272.531 396.521 273.785 398.865C275.04 401.185 275.667 403.967 275.667 407.21V444H261.321V436.436H260.895C260.019 438.141 258.847 439.644 257.379 440.946C255.911 442.224 254.148 443.231 252.088 443.964C250.028 444.675 247.649 445.03 244.95 445.03ZM249.282 434.589C251.508 434.589 253.473 434.152 255.177 433.276C256.882 432.376 258.219 431.169 259.19 429.653C260.161 428.138 260.646 426.422 260.646 424.504V418.716C260.173 419.024 259.522 419.308 258.693 419.568C257.888 419.805 256.977 420.03 255.959 420.243C254.941 420.432 253.923 420.61 252.905 420.776C251.887 420.918 250.963 421.048 250.135 421.166C248.359 421.427 246.809 421.841 245.483 422.409C244.157 422.977 243.127 423.747 242.393 424.717C241.659 425.664 241.292 426.848 241.292 428.268C241.292 430.328 242.038 431.902 243.53 432.991C245.045 434.057 246.962 434.589 249.282 434.589ZM299.9 412.466V444H284.772V389.455H299.19V399.078H299.829C301.037 395.906 303.061 393.396 305.902 391.55C308.742 389.679 312.187 388.744 316.235 388.744C320.023 388.744 323.326 389.573 326.143 391.23C328.96 392.887 331.15 395.255 332.713 398.332C334.275 401.386 335.056 405.032 335.056 409.27V444H319.929V411.969C319.952 408.631 319.1 406.027 317.372 404.156C315.644 402.262 313.264 401.315 310.234 401.315C308.198 401.315 306.399 401.753 304.836 402.629C303.297 403.505 302.09 404.784 301.214 406.464C300.362 408.122 299.924 410.122 299.9 412.466ZM368.993 445.065C363.406 445.065 358.6 443.882 354.575 441.514C350.574 439.123 347.496 435.809 345.342 431.571C343.211 427.333 342.146 422.456 342.146 416.94C342.146 411.353 343.223 406.453 345.378 402.239C347.556 398.001 350.645 394.698 354.646 392.331C358.647 389.94 363.406 388.744 368.922 388.744C373.68 388.744 377.847 389.608 381.422 391.337C384.996 393.065 387.826 395.491 389.909 398.616C391.992 401.741 393.14 405.411 393.353 409.625H379.078C378.675 406.902 377.61 404.713 375.882 403.055C374.177 401.375 371.94 400.534 369.17 400.534C366.826 400.534 364.779 401.173 363.027 402.452C361.299 403.706 359.949 405.541 358.978 407.956C358.008 410.371 357.523 413.295 357.523 416.727C357.523 420.207 357.996 423.167 358.943 425.605C359.914 428.044 361.275 429.902 363.027 431.18C364.779 432.459 366.826 433.098 369.17 433.098C370.898 433.098 372.449 432.743 373.822 432.033C375.219 431.322 376.367 430.293 377.267 428.943C378.19 427.57 378.794 425.925 379.078 424.007H393.353C393.117 428.174 391.98 431.843 389.944 435.016C387.932 438.164 385.15 440.626 381.599 442.402C378.048 444.178 373.846 445.065 368.993 445.065ZM409.747 464.455C407.83 464.455 406.03 464.301 404.349 463.993C402.692 463.709 401.319 463.342 400.23 462.892L403.639 451.599C405.415 452.144 407.013 452.44 408.433 452.487C409.877 452.535 411.12 452.203 412.162 451.493C413.227 450.783 414.091 449.575 414.754 447.871L415.642 445.562L396.075 389.455H411.984L423.277 429.511H423.845L435.244 389.455H451.26L430.06 449.895C429.042 452.83 427.657 455.387 425.905 457.565C424.177 459.767 421.987 461.46 419.335 462.643C416.684 463.851 413.488 464.455 409.747 464.455ZM505.896 389.455V400.818H473.047V389.455H505.896ZM480.505 376.386H495.633V427.239C495.633 428.635 495.846 429.724 496.272 430.506C496.698 431.263 497.29 431.796 498.048 432.104C498.829 432.411 499.728 432.565 500.746 432.565C501.457 432.565 502.167 432.506 502.877 432.388C503.587 432.246 504.132 432.139 504.511 432.068L506.89 443.325C506.132 443.562 505.067 443.834 503.694 444.142C502.321 444.473 500.652 444.675 498.687 444.746C495.041 444.888 491.845 444.402 489.099 443.29C486.376 442.177 484.257 440.449 482.742 438.105C481.227 435.761 480.481 432.802 480.505 429.227V376.386ZM537.177 445.065C531.661 445.065 526.891 443.893 522.866 441.55C518.865 439.182 515.776 435.892 513.598 431.678C511.42 427.44 510.331 422.527 510.331 416.94C510.331 411.306 511.42 406.382 513.598 402.168C515.776 397.93 518.865 394.639 522.866 392.295C526.891 389.928 531.661 388.744 537.177 388.744C542.693 388.744 547.452 389.928 551.453 392.295C555.477 394.639 558.579 397.93 560.757 402.168C562.935 406.382 564.024 411.306 564.024 416.94C564.024 422.527 562.935 427.44 560.757 431.678C558.579 435.892 555.477 439.182 551.453 441.55C547.452 443.893 542.693 445.065 537.177 445.065ZM537.248 433.347C539.758 433.347 541.853 432.636 543.534 431.216C545.215 429.772 546.481 427.807 547.334 425.321C548.209 422.835 548.647 420.006 548.647 416.834C548.647 413.661 548.209 410.832 547.334 408.347C546.481 405.861 545.215 403.896 543.534 402.452C541.853 401.008 539.758 400.286 537.248 400.286C534.715 400.286 532.584 401.008 530.856 402.452C529.152 403.896 527.861 405.861 526.986 408.347C526.133 410.832 525.707 413.661 525.707 416.834C525.707 420.006 526.133 422.835 526.986 425.321C527.861 427.807 529.152 429.772 530.856 431.216C532.584 432.636 534.715 433.347 537.248 433.347ZM595.874 445.065C590.358 445.065 585.587 443.893 581.563 441.55C577.562 439.182 574.472 435.892 572.294 431.678C570.116 427.44 569.027 422.527 569.027 416.94C569.027 411.306 570.116 406.382 572.294 402.168C574.472 397.93 577.562 394.639 581.563 392.295C585.587 389.928 590.358 388.744 595.874 388.744C601.39 388.744 606.148 389.928 610.149 392.295C614.174 394.639 617.275 397.93 619.453 402.168C621.631 406.382 622.72 411.306 622.72 416.94C622.72 422.527 621.631 427.44 619.453 431.678C617.275 435.892 614.174 439.182 610.149 441.55C606.148 443.893 601.39 445.065 595.874 445.065ZM595.945 433.347C598.454 433.347 600.549 432.636 602.23 431.216C603.911 429.772 605.178 427.807 606.03 425.321C606.906 422.835 607.344 420.006 607.344 416.834C607.344 413.661 606.906 410.832 606.03 408.347C605.178 405.861 603.911 403.896 602.23 402.452C600.549 401.008 598.454 400.286 595.945 400.286C593.412 400.286 591.281 401.008 589.553 402.452C587.848 403.896 586.558 405.861 585.682 408.347C584.83 410.832 584.404 413.661 584.404 416.834C584.404 420.006 584.83 422.835 585.682 425.321C586.558 427.807 587.848 429.772 589.553 431.216C591.281 432.636 593.412 433.347 595.945 433.347ZM645.053 371.273V444H629.925V371.273H645.053ZM699.924 405.009L686.074 405.861C685.837 404.677 685.328 403.612 684.547 402.665C683.766 401.694 682.736 400.925 681.458 400.357C680.203 399.765 678.7 399.469 676.948 399.469C674.604 399.469 672.627 399.966 671.017 400.96C669.407 401.931 668.603 403.233 668.603 404.866C668.603 406.169 669.123 407.269 670.165 408.169C671.207 409.069 672.994 409.791 675.527 410.335L685.399 412.324C690.702 413.413 694.656 415.165 697.26 417.58C699.864 419.994 701.166 423.167 701.166 427.097C701.166 430.671 700.113 433.808 698.006 436.507C695.923 439.206 693.058 441.313 689.412 442.828C685.79 444.32 681.612 445.065 676.877 445.065C669.656 445.065 663.903 443.562 659.618 440.555C655.357 437.525 652.859 433.406 652.125 428.197L667.005 427.416C667.454 429.618 668.543 431.299 670.272 432.459C672 433.595 674.213 434.163 676.912 434.163C679.564 434.163 681.694 433.654 683.304 432.636C684.938 431.595 685.766 430.257 685.79 428.624C685.766 427.25 685.186 426.126 684.05 425.25C682.914 424.35 681.162 423.664 678.794 423.19L669.348 421.308C664.022 420.243 660.056 418.396 657.452 415.768C654.871 413.141 653.581 409.791 653.581 405.719C653.581 402.215 654.528 399.196 656.422 396.663C658.34 394.13 661.027 392.177 664.483 390.804C667.963 389.431 672.035 388.744 676.699 388.744C683.588 388.744 689.01 390.2 692.963 393.112C696.941 396.024 699.261 399.99 699.924 405.009Z" fill="black"/>
<rect x="71" y="498" width="1038" height="19" fill="black"/>
</svg>
