<svg viewBox="0 0 120 54" fill="none" xmlns="http://www.w3.org/2000/svg">
    <path fill-rule="evenodd" clip-rule="evenodd" d="M4 36H8V32H4V36ZM4 8H8V4H4V8ZM26 26V14H17L12 9V0H0V12H9L14 17V23L9 28H0V40H12V31L17 26H26Z" fill="#FFAE1A"/>
    <path fill-rule="evenodd" clip-rule="evenodd" d="M43.03 16.75C44.2892 16.75 45.2444 16.9247 46.026 17.274V21.8591C45.4615 21.4661 44.7668 21.3351 44.1155 21.3351C42.4655 21.3351 41.4669 22.2521 41.4669 24.0425V26.0075H45.5049V30.3742H41.4669V45.5268H36.1696V30.3742H33V26.0075H36.1696V23.6931C36.1696 19.2827 38.9051 16.75 43.03 16.75ZM55.7921 25.5709C61.4367 25.5709 65.3011 29.7629 65.3011 35.789C65.3011 41.7715 61.4367 45.9635 55.7921 45.9635C50.1475 45.9635 46.2832 41.7715 46.2832 35.789C46.2832 29.7629 50.1475 25.5709 55.7921 25.5709ZM59.9603 35.7889C59.9603 39.0203 58.4841 41.3783 55.792 41.3783C53.1 41.3783 51.6237 39.0203 51.6237 35.7889C51.6237 32.5138 53.1 30.1558 55.792 30.1558C58.4841 30.1558 59.9603 32.5138 59.9603 35.7889ZM77.4552 25.5709C78.367 25.5709 79.192 25.7455 79.4959 25.9202V31.335C78.7578 30.8983 77.8025 30.68 76.8039 30.68C74.9803 30.68 73.504 31.6406 73.1132 33.431V45.5269H67.7291V26.0075H73.1132V27.9289C73.9382 26.5316 75.5447 25.5709 77.4552 25.5709ZM94.0382 44.2168C94.0382 47.3609 92.6054 48.9766 89.8699 48.9766C87.7858 48.9766 86.4832 48.0596 86.049 46.2255H80.8386C81.4031 50.5923 84.8332 53.1687 89.8699 53.1687C95.3408 53.1687 99.3789 50.0683 99.3789 43.3872V26.0075H94.0382V27.5359C93.1699 26.5316 91.3896 25.5709 89.2621 25.5709C83.6609 25.5709 80.4478 30.1123 80.4478 35.3087C80.4478 40.5488 83.6609 45.0902 89.2621 45.0902C91.3896 45.0902 93.1699 44.1295 94.0382 43.0815V44.2168ZM90.391 40.5488C91.9975 40.5488 93.3869 39.6318 94.0382 38.4965V32.121C93.3869 31.0293 91.9975 30.1123 90.391 30.1123C87.5252 30.1123 85.8319 32.2957 85.8319 35.3088C85.8319 38.3655 87.5252 40.5488 90.391 40.5488ZM114.876 39.1514C114.442 40.8108 113.096 41.5968 111.273 41.5968C108.884 41.5968 107.235 39.8501 107.061 36.9244H120V35.265C120 29.5446 116.874 25.5709 111.186 25.5709C105.758 25.5709 101.85 29.8939 101.85 35.789C101.85 41.8151 105.628 45.9635 111.273 45.9635C116.136 45.9635 119.175 43.2998 119.87 39.1514H114.876ZM114.703 33.6492C114.659 31.5969 113.444 29.9812 111.229 29.9812C109.145 29.9812 107.669 31.2475 107.191 33.6492H114.703Z" fill="#1A1919"/>
</svg>
