<svg width="1200" height="900" viewBox="0 0 1200 900" fill="none" xmlns="http://www.w3.org/2000/svg">
<g clip-path="url(#clip0_1_2)">
<rect width="1200" height="900" fill="white"/>
<ellipse cx="692" cy="900" rx="764" ry="179" fill="url(#paint0_radial_1_2)" fill-opacity="0.8"/>
<g filter="url(#filter0_d_1_2)">
<path d="M112.321 291V218.273H141.44C146.791 218.273 151.253 219.066 154.828 220.652C158.403 222.238 161.09 224.44 162.889 227.257C164.688 230.051 165.588 233.27 165.588 236.916C165.588 239.757 165.02 242.255 163.884 244.409C162.747 246.54 161.185 248.292 159.196 249.665C157.231 251.014 154.982 251.973 152.449 252.541V253.251C155.219 253.37 157.811 254.151 160.226 255.595C162.664 257.039 164.641 259.063 166.156 261.668C167.671 264.248 168.429 267.326 168.429 270.901C168.429 274.759 167.47 278.204 165.553 281.234C163.659 284.241 160.853 286.62 157.136 288.372C153.42 290.124 148.839 291 143.393 291H112.321ZM127.697 278.429H140.233C144.518 278.429 147.643 277.612 149.608 275.979C151.573 274.321 152.555 272.12 152.555 269.374C152.555 267.361 152.07 265.586 151.099 264.047C150.129 262.508 148.744 261.301 146.945 260.425C145.169 259.549 143.05 259.111 140.588 259.111H127.697V278.429ZM127.697 248.706H139.097C141.204 248.706 143.074 248.339 144.707 247.605C146.365 246.848 147.667 245.782 148.614 244.409C149.584 243.036 150.07 241.391 150.07 239.473C150.07 236.845 149.134 234.726 147.264 233.116C145.418 231.507 142.79 230.702 139.381 230.702H127.697V248.706ZM191.073 292.03C187.592 292.03 184.491 291.426 181.769 290.219C179.046 288.988 176.892 287.177 175.306 284.786C173.743 282.371 172.962 279.364 172.962 275.766C172.962 272.735 173.518 270.19 174.631 268.131C175.744 266.071 177.259 264.414 179.176 263.159C181.094 261.904 183.272 260.957 185.71 260.318C188.173 259.679 190.753 259.229 193.452 258.969C196.624 258.637 199.181 258.33 201.122 258.045C203.064 257.738 204.472 257.288 205.348 256.696C206.224 256.104 206.662 255.228 206.662 254.068V253.855C206.662 251.606 205.952 249.866 204.531 248.635C203.135 247.404 201.146 246.788 198.566 246.788C195.843 246.788 193.677 247.392 192.067 248.599C190.457 249.783 189.392 251.275 188.871 253.074L174.879 251.938C175.59 248.623 176.986 245.759 179.07 243.344C181.153 240.905 183.84 239.035 187.131 237.733C190.445 236.407 194.28 235.744 198.637 235.744C201.667 235.744 204.567 236.099 207.337 236.81C210.13 237.52 212.604 238.621 214.759 240.112C216.937 241.604 218.653 243.521 219.908 245.865C221.163 248.185 221.79 250.967 221.79 254.21V291H207.443V283.436H207.017C206.141 285.141 204.969 286.644 203.502 287.946C202.034 289.224 200.27 290.231 198.21 290.964C196.151 291.675 193.771 292.03 191.073 292.03ZM195.405 281.589C197.63 281.589 199.595 281.152 201.3 280.276C203.004 279.376 204.342 278.169 205.313 276.653C206.283 275.138 206.769 273.422 206.769 271.504V265.716C206.295 266.024 205.644 266.308 204.816 266.568C204.011 266.805 203.099 267.03 202.081 267.243C201.063 267.432 200.045 267.61 199.027 267.776C198.009 267.918 197.086 268.048 196.257 268.166C194.482 268.427 192.931 268.841 191.605 269.409C190.28 269.977 189.25 270.747 188.516 271.717C187.782 272.664 187.415 273.848 187.415 275.268C187.415 277.328 188.161 278.902 189.652 279.991C191.167 281.057 193.085 281.589 195.405 281.589ZM246.023 218.273V291H230.895V218.273H246.023ZM271.063 292.03C267.583 292.03 264.482 291.426 261.759 290.219C259.037 288.988 256.882 287.177 255.296 284.786C253.734 282.371 252.953 279.364 252.953 275.766C252.953 272.735 253.509 270.19 254.622 268.131C255.734 266.071 257.249 264.414 259.167 263.159C261.085 261.904 263.263 260.957 265.701 260.318C268.163 259.679 270.744 259.229 273.443 258.969C276.615 258.637 279.172 258.33 281.113 258.045C283.054 257.738 284.463 257.288 285.339 256.696C286.215 256.104 286.653 255.228 286.653 254.068V253.855C286.653 251.606 285.943 249.866 284.522 248.635C283.125 247.404 281.137 246.788 278.556 246.788C275.834 246.788 273.668 247.392 272.058 248.599C270.448 249.783 269.382 251.275 268.862 253.074L254.87 251.938C255.58 248.623 256.977 245.759 259.061 243.344C261.144 240.905 263.831 239.035 267.122 237.733C270.436 236.407 274.271 235.744 278.627 235.744C281.658 235.744 284.558 236.099 287.328 236.81C290.121 237.52 292.595 238.621 294.749 240.112C296.927 241.604 298.644 243.521 299.899 245.865C301.153 248.185 301.781 250.967 301.781 254.21V291H287.434V283.436H287.008C286.132 285.141 284.96 286.644 283.492 287.946C282.025 289.224 280.261 290.231 278.201 290.964C276.141 291.675 273.762 292.03 271.063 292.03ZM275.396 281.589C277.621 281.589 279.586 281.152 281.291 280.276C282.995 279.376 284.333 278.169 285.303 276.653C286.274 275.138 286.759 273.422 286.759 271.504V265.716C286.286 266.024 285.635 266.308 284.806 266.568C284.001 266.805 283.09 267.03 282.072 267.243C281.054 267.432 280.036 267.61 279.018 267.776C278 267.918 277.077 268.048 276.248 268.166C274.472 268.427 272.922 268.841 271.596 269.409C270.27 269.977 269.24 270.747 268.507 271.717C267.773 272.664 267.406 273.848 267.406 275.268C267.406 277.328 268.151 278.902 269.643 279.991C271.158 281.057 273.076 281.589 275.396 281.589ZM326.013 259.466V291H310.886V236.455H325.303V246.078H325.942C327.15 242.906 329.174 240.396 332.015 238.55C334.856 236.679 338.3 235.744 342.349 235.744C346.137 235.744 349.439 236.573 352.256 238.23C355.074 239.887 357.263 242.255 358.826 245.332C360.388 248.386 361.17 252.032 361.17 256.27V291H346.042V258.969C346.066 255.631 345.213 253.027 343.485 251.156C341.757 249.262 339.378 248.315 336.347 248.315C334.311 248.315 332.512 248.753 330.95 249.629C329.411 250.505 328.203 251.784 327.327 253.464C326.475 255.122 326.037 257.122 326.013 259.466ZM395.106 292.065C389.519 292.065 384.713 290.882 380.688 288.514C376.687 286.123 373.61 282.809 371.455 278.571C369.325 274.333 368.259 269.456 368.259 263.94C368.259 258.353 369.337 253.453 371.491 249.239C373.669 245.001 376.758 241.698 380.759 239.331C384.76 236.94 389.519 235.744 395.035 235.744C399.793 235.744 403.96 236.608 407.535 238.337C411.11 240.065 413.939 242.491 416.022 245.616C418.105 248.741 419.254 252.411 419.467 256.625H405.191C404.789 253.902 403.723 251.713 401.995 250.055C400.291 248.375 398.053 247.534 395.284 247.534C392.94 247.534 390.892 248.173 389.14 249.452C387.412 250.706 386.062 252.541 385.092 254.956C384.121 257.371 383.636 260.295 383.636 263.727C383.636 267.207 384.109 270.167 385.056 272.605C386.027 275.044 387.388 276.902 389.14 278.18C390.892 279.459 392.94 280.098 395.284 280.098C397.012 280.098 398.562 279.743 399.935 279.033C401.332 278.322 402.48 277.293 403.38 275.943C404.303 274.57 404.907 272.925 405.191 271.007H419.467C419.23 275.174 418.094 278.843 416.058 282.016C414.045 285.164 411.264 287.626 407.712 289.402C404.161 291.178 399.959 292.065 395.106 292.065ZM426.521 291V236.455H441.649V291H426.521ZM434.12 229.423C431.871 229.423 429.942 228.678 428.332 227.186C426.746 225.671 425.953 223.86 425.953 221.753C425.953 219.67 426.746 217.882 428.332 216.391C429.942 214.875 431.871 214.118 434.12 214.118C436.369 214.118 438.287 214.875 439.873 216.391C441.483 217.882 442.288 219.67 442.288 221.753C442.288 223.86 441.483 225.671 439.873 227.186C438.287 228.678 436.369 229.423 434.12 229.423ZM466.263 259.466V291H451.135V236.455H465.553V246.078H466.192C467.4 242.906 469.424 240.396 472.265 238.55C475.106 236.679 478.55 235.744 482.598 235.744C486.386 235.744 489.689 236.573 492.506 238.23C495.323 239.887 497.513 242.255 499.076 245.332C500.638 248.386 501.42 252.032 501.42 256.27V291H486.292V258.969C486.315 255.631 485.463 253.027 483.735 251.156C482.007 249.262 479.627 248.315 476.597 248.315C474.561 248.315 472.762 248.753 471.199 249.629C469.661 250.505 468.453 251.784 467.577 253.464C466.725 255.122 466.287 257.122 466.263 259.466ZM535.285 312.591C530.384 312.591 526.182 311.916 522.678 310.567C519.198 309.241 516.428 307.43 514.369 305.134C512.309 302.837 510.971 300.257 510.356 297.392L524.347 295.51C524.773 296.599 525.448 297.617 526.371 298.564C527.295 299.511 528.514 300.268 530.029 300.837C531.568 301.429 533.438 301.724 535.64 301.724C538.931 301.724 541.641 300.92 543.772 299.31C545.926 297.723 547.003 295.06 547.003 291.32V281.341H546.364C545.701 282.856 544.707 284.288 543.381 285.638C542.056 286.987 540.351 288.088 538.268 288.94C536.184 289.793 533.699 290.219 530.81 290.219C526.715 290.219 522.986 289.272 519.624 287.378C516.286 285.46 513.623 282.536 511.634 278.607C509.669 274.653 508.687 269.658 508.687 263.621C508.687 257.442 509.693 252.281 511.705 248.138C513.717 243.995 516.393 240.893 519.731 238.834C523.092 236.774 526.774 235.744 530.775 235.744C533.829 235.744 536.386 236.265 538.445 237.307C540.505 238.325 542.162 239.603 543.417 241.142C544.695 242.657 545.678 244.149 546.364 245.616H546.932V236.455H561.954V291.533C561.954 296.173 560.817 300.055 558.545 303.18C556.272 306.305 553.123 308.649 549.099 310.212C545.098 311.798 540.493 312.591 535.285 312.591ZM535.604 278.855C538.043 278.855 540.102 278.251 541.783 277.044C543.488 275.813 544.79 274.061 545.69 271.788C546.613 269.492 547.074 266.746 547.074 263.55C547.074 260.354 546.625 257.584 545.725 255.24C544.825 252.873 543.523 251.038 541.819 249.736C540.114 248.434 538.043 247.783 535.604 247.783C533.119 247.783 531.023 248.457 529.319 249.807C527.614 251.133 526.324 252.979 525.448 255.347C524.572 257.714 524.134 260.448 524.134 263.55C524.134 266.698 524.572 269.421 525.448 271.717C526.348 273.99 527.638 275.754 529.319 277.009C531.023 278.24 533.119 278.855 535.604 278.855ZM607.534 218.273V291H592.158V218.273H607.534ZM662.653 252.009L648.803 252.861C648.567 251.677 648.058 250.612 647.276 249.665C646.495 248.694 645.465 247.925 644.187 247.357C642.932 246.765 641.429 246.469 639.677 246.469C637.333 246.469 635.356 246.966 633.747 247.96C632.137 248.931 631.332 250.233 631.332 251.866C631.332 253.169 631.853 254.269 632.894 255.169C633.936 256.069 635.723 256.791 638.256 257.335L648.129 259.324C653.432 260.413 657.385 262.165 659.989 264.58C662.594 266.994 663.896 270.167 663.896 274.097C663.896 277.671 662.842 280.808 660.735 283.507C658.652 286.206 655.787 288.313 652.141 289.828C648.519 291.32 644.341 292.065 639.606 292.065C632.385 292.065 626.632 290.562 622.347 287.555C618.086 284.525 615.588 280.406 614.854 275.197L629.734 274.416C630.184 276.618 631.273 278.299 633.001 279.459C634.729 280.595 636.943 281.163 639.641 281.163C642.293 281.163 644.424 280.654 646.033 279.636C647.667 278.595 648.496 277.257 648.519 275.624C648.496 274.25 647.916 273.126 646.779 272.25C645.643 271.35 643.891 270.664 641.524 270.19L632.078 268.308C626.751 267.243 622.785 265.396 620.181 262.768C617.601 260.141 616.31 256.791 616.31 252.719C616.31 249.215 617.257 246.196 619.151 243.663C621.069 241.13 623.756 239.177 627.212 237.804C630.693 236.431 634.765 235.744 639.428 235.744C646.318 235.744 651.739 237.2 655.693 240.112C659.67 243.024 661.99 246.99 662.653 252.009ZM695.435 292.065C689.919 292.065 685.148 290.893 681.124 288.55C677.123 286.182 674.033 282.892 671.855 278.678C669.677 274.44 668.588 269.527 668.588 263.94C668.588 258.306 669.677 253.382 671.855 249.168C674.033 244.93 677.123 241.639 681.124 239.295C685.148 236.928 689.919 235.744 695.435 235.744C700.951 235.744 705.71 236.928 709.711 239.295C713.735 241.639 716.836 244.93 719.014 249.168C721.193 253.382 722.282 258.306 722.282 263.94C722.282 269.527 721.193 274.44 719.014 278.678C716.836 282.892 713.735 286.182 709.711 288.55C705.71 290.893 700.951 292.065 695.435 292.065ZM695.506 280.347C698.015 280.347 700.111 279.636 701.791 278.216C703.472 276.772 704.739 274.807 705.591 272.321C706.467 269.835 706.905 267.006 706.905 263.834C706.905 260.661 706.467 257.832 705.591 255.347C704.739 252.861 703.472 250.896 701.791 249.452C700.111 248.008 698.015 247.286 695.506 247.286C692.973 247.286 690.842 248.008 689.114 249.452C687.409 250.896 686.119 252.861 685.243 255.347C684.391 257.832 683.965 260.661 683.965 263.834C683.965 267.006 684.391 269.835 685.243 272.321C686.119 274.807 687.409 276.772 689.114 278.216C690.842 279.636 692.973 280.347 695.506 280.347ZM744.614 218.273V291H729.487V218.273H744.614ZM769.655 292.03C766.175 292.03 763.074 291.426 760.351 290.219C757.629 288.988 755.474 287.177 753.888 284.786C752.326 282.371 751.544 279.364 751.544 275.766C751.544 272.735 752.101 270.19 753.213 268.131C754.326 266.071 755.841 264.414 757.759 263.159C759.676 261.904 761.854 260.957 764.293 260.318C766.755 259.679 769.335 259.229 772.034 258.969C775.207 258.637 777.763 258.33 779.705 258.045C781.646 257.738 783.055 257.288 783.931 256.696C784.807 256.104 785.245 255.228 785.245 254.068V253.855C785.245 251.606 784.534 249.866 783.114 248.635C781.717 247.404 779.728 246.788 777.148 246.788C774.425 246.788 772.259 247.392 770.649 248.599C769.04 249.783 767.974 251.275 767.453 253.074L753.462 251.938C754.172 248.623 755.569 245.759 757.652 243.344C759.736 240.905 762.423 239.035 765.713 237.733C769.028 236.407 772.863 235.744 777.219 235.744C780.249 235.744 783.149 236.099 785.919 236.81C788.713 237.52 791.187 238.621 793.341 240.112C795.519 241.604 797.236 243.521 798.49 245.865C799.745 248.185 800.372 250.967 800.372 254.21V291H786.026V283.436H785.6C784.724 285.141 783.552 286.644 782.084 287.946C780.616 289.224 778.853 290.231 776.793 290.964C774.733 291.675 772.354 292.03 769.655 292.03ZM773.987 281.589C776.213 281.589 778.178 281.152 779.882 280.276C781.587 279.376 782.924 278.169 783.895 276.653C784.866 275.138 785.351 273.422 785.351 271.504V265.716C784.878 266.024 784.227 266.308 783.398 266.568C782.593 266.805 781.682 267.03 780.664 267.243C779.646 267.432 778.628 267.61 777.61 267.776C776.592 267.918 775.668 268.048 774.84 268.166C773.064 268.427 771.513 268.841 770.188 269.409C768.862 269.977 767.832 270.747 767.098 271.717C766.364 272.664 765.997 273.848 765.997 275.268C765.997 277.328 766.743 278.902 768.235 279.991C769.75 281.057 771.667 281.589 773.987 281.589ZM838.49 236.455V247.818H805.642V236.455H838.49ZM813.099 223.386H828.227V274.239C828.227 275.635 828.44 276.724 828.867 277.506C829.293 278.263 829.884 278.796 830.642 279.104C831.423 279.411 832.323 279.565 833.341 279.565C834.051 279.565 834.761 279.506 835.472 279.388C836.182 279.246 836.726 279.139 837.105 279.068L839.484 290.325C838.727 290.562 837.661 290.834 836.288 291.142C834.915 291.473 833.246 291.675 831.281 291.746C827.635 291.888 824.439 291.402 821.693 290.29C818.971 289.177 816.852 287.449 815.337 285.105C813.822 282.761 813.076 279.802 813.099 276.227V223.386ZM845.713 291V236.455H860.841V291H845.713ZM853.312 229.423C851.063 229.423 849.134 228.678 847.524 227.186C845.938 225.671 845.145 223.86 845.145 221.753C845.145 219.67 845.938 217.882 847.524 216.391C849.134 214.875 851.063 214.118 853.312 214.118C855.561 214.118 857.479 214.875 859.065 216.391C860.675 217.882 861.48 219.67 861.48 221.753C861.48 223.86 860.675 225.671 859.065 227.186C857.479 228.678 855.561 229.423 853.312 229.423ZM894.972 292.065C889.456 292.065 884.686 290.893 880.661 288.55C876.66 286.182 873.571 282.892 871.393 278.678C869.215 274.44 868.126 269.527 868.126 263.94C868.126 258.306 869.215 253.382 871.393 249.168C873.571 244.93 876.66 241.639 880.661 239.295C884.686 236.928 889.456 235.744 894.972 235.744C900.488 235.744 905.247 236.928 909.248 239.295C913.273 241.639 916.374 244.93 918.552 249.168C920.73 253.382 921.819 258.306 921.819 263.94C921.819 269.527 920.73 274.44 918.552 278.678C916.374 282.892 913.273 286.182 909.248 288.55C905.247 290.893 900.488 292.065 894.972 292.065ZM895.043 280.347C897.553 280.347 899.648 279.636 901.329 278.216C903.01 276.772 904.276 274.807 905.129 272.321C906.005 269.835 906.443 267.006 906.443 263.834C906.443 260.661 906.005 257.832 905.129 255.347C904.276 252.861 903.01 250.896 901.329 249.452C899.648 248.008 897.553 247.286 895.043 247.286C892.51 247.286 890.38 248.008 888.651 249.452C886.947 250.896 885.657 252.861 884.781 255.347C883.928 257.832 883.502 260.661 883.502 263.834C883.502 267.006 883.928 269.835 884.781 272.321C885.657 274.807 886.947 276.772 888.651 278.216C890.38 279.636 892.51 280.347 895.043 280.347ZM944.152 259.466V291H929.024V236.455H943.442V246.078H944.081C945.288 242.906 947.312 240.396 950.153 238.55C952.994 236.679 956.439 235.744 960.487 235.744C964.275 235.744 967.577 236.573 970.395 238.23C973.212 239.887 975.402 242.255 976.964 245.332C978.527 248.386 979.308 252.032 979.308 256.27V291H964.18V258.969C964.204 255.631 963.352 253.027 961.623 251.156C959.895 249.262 957.516 248.315 954.486 248.315C952.45 248.315 950.65 248.753 949.088 249.629C947.549 250.505 946.342 251.784 945.466 253.464C944.613 255.122 944.176 257.122 944.152 259.466ZM127.591 396.03C124.111 396.03 121.009 395.426 118.287 394.219C115.564 392.988 113.41 391.177 111.824 388.786C110.261 386.371 109.48 383.364 109.48 379.766C109.48 376.735 110.036 374.19 111.149 372.131C112.262 370.071 113.777 368.414 115.695 367.159C117.612 365.904 119.79 364.957 122.229 364.318C124.691 363.679 127.271 363.229 129.97 362.969C133.143 362.637 135.699 362.33 137.641 362.045C139.582 361.738 140.991 361.288 141.866 360.696C142.742 360.104 143.18 359.228 143.18 358.068V357.855C143.18 355.606 142.47 353.866 141.05 352.635C139.653 351.404 137.664 350.788 135.084 350.788C132.361 350.788 130.195 351.392 128.585 352.599C126.975 353.783 125.91 355.275 125.389 357.074L111.398 355.938C112.108 352.623 113.505 349.759 115.588 347.344C117.671 344.905 120.358 343.035 123.649 341.733C126.964 340.407 130.799 339.744 135.155 339.744C138.185 339.744 141.085 340.099 143.855 340.81C146.649 341.52 149.123 342.621 151.277 344.112C153.455 345.604 155.171 347.521 156.426 349.865C157.681 352.185 158.308 354.967 158.308 358.21V395H143.962V387.436H143.536C142.66 389.141 141.488 390.644 140.02 391.946C138.552 393.224 136.788 394.231 134.729 394.964C132.669 395.675 130.29 396.03 127.591 396.03ZM131.923 385.589C134.149 385.589 136.114 385.152 137.818 384.276C139.523 383.376 140.86 382.169 141.831 380.653C142.802 379.138 143.287 377.422 143.287 375.504V369.716C142.813 370.024 142.162 370.308 141.334 370.568C140.529 370.805 139.617 371.03 138.599 371.243C137.581 371.432 136.563 371.61 135.545 371.776C134.527 371.918 133.604 372.048 132.776 372.166C131 372.427 129.449 372.841 128.124 373.409C126.798 373.977 125.768 374.747 125.034 375.717C124.3 376.664 123.933 377.848 123.933 379.268C123.933 381.328 124.679 382.902 126.17 383.991C127.686 385.057 129.603 385.589 131.923 385.589ZM182.541 363.466V395H167.413V340.455H181.831V350.078H182.47C183.677 346.906 185.702 344.396 188.542 342.55C191.383 340.679 194.828 339.744 198.876 339.744C202.664 339.744 205.967 340.573 208.784 342.23C211.601 343.887 213.791 346.255 215.354 349.332C216.916 352.386 217.697 356.032 217.697 360.27V395H202.569V362.969C202.593 359.631 201.741 357.027 200.013 355.156C198.284 353.262 195.905 352.315 192.875 352.315C190.839 352.315 189.04 352.753 187.477 353.629C185.938 354.505 184.731 355.784 183.855 357.464C183.003 359.122 182.565 361.122 182.541 363.466ZM247.088 395.888C242.945 395.888 239.193 394.822 235.831 392.692C232.493 390.537 229.841 387.377 227.876 383.21C225.935 379.02 224.964 373.883 224.964 367.798C224.964 361.548 225.971 356.352 227.983 352.209C229.995 348.042 232.67 344.929 236.009 342.869C239.37 340.786 243.052 339.744 247.053 339.744C250.107 339.744 252.651 340.265 254.687 341.307C256.747 342.325 258.404 343.603 259.659 345.142C260.937 346.657 261.908 348.149 262.571 349.616H263.033V322.273H278.125V395H263.21V386.264H262.571C261.861 387.779 260.855 389.283 259.553 390.774C258.274 392.242 256.605 393.461 254.545 394.432C252.509 395.402 250.024 395.888 247.088 395.888ZM251.882 383.849C254.321 383.849 256.38 383.187 258.061 381.861C259.766 380.511 261.068 378.629 261.967 376.214C262.891 373.8 263.352 370.971 263.352 367.727C263.352 364.484 262.902 361.667 262.003 359.276C261.103 356.884 259.801 355.038 258.097 353.736C256.392 352.434 254.321 351.783 251.882 351.783C249.396 351.783 247.301 352.457 245.597 353.807C243.892 355.156 242.602 357.027 241.726 359.418C240.85 361.809 240.412 364.579 240.412 367.727C240.412 370.9 240.85 373.705 241.726 376.143C242.625 378.558 243.916 380.452 245.597 381.825C247.301 383.175 249.396 383.849 251.882 383.849ZM372.897 347.734H357.343C357.059 345.722 356.479 343.935 355.603 342.372C354.727 340.786 353.603 339.437 352.23 338.324C350.857 337.211 349.27 336.359 347.471 335.767C345.696 335.175 343.766 334.879 341.683 334.879C337.919 334.879 334.64 335.814 331.846 337.685C329.053 339.531 326.886 342.23 325.348 345.781C323.809 349.309 323.039 353.594 323.039 358.636C323.039 363.821 323.809 368.177 325.348 371.705C326.91 375.232 329.088 377.895 331.882 379.695C334.675 381.494 337.907 382.393 341.576 382.393C343.636 382.393 345.542 382.121 347.294 381.577C349.069 381.032 350.644 380.239 352.017 379.197C353.39 378.132 354.526 376.842 355.426 375.327C356.349 373.812 356.988 372.083 357.343 370.142L372.897 370.213C372.495 373.551 371.489 376.771 369.879 379.872C368.293 382.95 366.15 385.708 363.451 388.146C360.776 390.561 357.58 392.479 353.863 393.899C350.17 395.296 345.992 395.994 341.328 395.994C334.841 395.994 329.041 394.527 323.927 391.591C318.837 388.655 314.813 384.406 311.853 378.842C308.918 373.279 307.45 366.544 307.45 358.636C307.45 350.705 308.941 343.958 311.924 338.395C314.907 332.831 318.956 328.594 324.069 325.682C329.183 322.746 334.936 321.278 341.328 321.278C345.542 321.278 349.448 321.87 353.046 323.054C356.669 324.238 359.876 325.966 362.67 328.239C365.464 330.488 367.736 333.246 369.488 336.513C371.264 339.78 372.4 343.52 372.897 347.734ZM405.653 396.065C400.137 396.065 395.366 394.893 391.342 392.55C387.341 390.182 384.251 386.892 382.073 382.678C379.895 378.44 378.806 373.527 378.806 367.94C378.806 362.306 379.895 357.382 382.073 353.168C384.251 348.93 387.341 345.639 391.342 343.295C395.366 340.928 400.137 339.744 405.653 339.744C411.169 339.744 415.927 340.928 419.928 343.295C423.953 345.639 427.054 348.93 429.232 353.168C431.41 357.382 432.499 362.306 432.499 367.94C432.499 373.527 431.41 378.44 429.232 382.678C427.054 386.892 423.953 390.182 419.928 392.55C415.927 394.893 411.169 396.065 405.653 396.065ZM405.724 384.347C408.233 384.347 410.328 383.636 412.009 382.216C413.69 380.772 414.957 378.807 415.809 376.321C416.685 373.835 417.123 371.006 417.123 367.834C417.123 364.661 416.685 361.832 415.809 359.347C414.957 356.861 413.69 354.896 412.009 353.452C410.328 352.008 408.233 351.286 405.724 351.286C403.191 351.286 401.06 352.008 399.332 353.452C397.627 354.896 396.337 356.861 395.461 359.347C394.609 361.832 394.183 364.661 394.183 367.834C394.183 371.006 394.609 373.835 395.461 376.321C396.337 378.807 397.627 380.772 399.332 382.216C401.06 383.636 403.191 384.347 405.724 384.347ZM439.705 395V340.455H454.122V350.078H454.761C455.898 346.882 457.792 344.361 460.443 342.514C463.095 340.668 466.267 339.744 469.96 339.744C473.701 339.744 476.885 340.679 479.513 342.55C482.141 344.396 483.892 346.906 484.768 350.078H485.337C486.449 346.953 488.462 344.455 491.374 342.585C494.309 340.691 497.777 339.744 501.778 339.744C506.868 339.744 510.999 341.366 514.172 344.609C517.368 347.829 518.966 352.398 518.966 358.317V395H503.874V361.3C503.874 358.269 503.069 355.997 501.459 354.482C499.849 352.966 497.837 352.209 495.422 352.209C492.676 352.209 490.533 353.085 488.994 354.837C487.455 356.565 486.686 358.849 486.686 361.69V395H472.02V360.98C472.02 358.305 471.25 356.174 469.712 354.588C468.196 353.002 466.196 352.209 463.71 352.209C462.029 352.209 460.514 352.635 459.165 353.487C457.839 354.316 456.785 355.488 456.004 357.003C455.223 358.494 454.832 360.246 454.832 362.259V395H439.705ZM528.284 415.455V340.455H543.199V349.616H543.873C544.536 348.149 545.495 346.657 546.75 345.142C548.028 343.603 549.685 342.325 551.721 341.307C553.781 340.265 556.338 339.744 559.392 339.744C563.369 339.744 567.039 340.786 570.4 342.869C573.762 344.929 576.449 348.042 578.461 352.209C580.474 356.352 581.48 361.548 581.48 367.798C581.48 373.883 580.497 379.02 578.532 383.21C576.591 387.377 573.94 390.537 570.578 392.692C567.24 394.822 563.499 395.888 559.356 395.888C556.421 395.888 553.923 395.402 551.863 394.432C549.827 393.461 548.158 392.242 546.856 390.774C545.554 389.283 544.56 387.779 543.873 386.264H543.412V415.455H528.284ZM543.092 367.727C543.092 370.971 543.542 373.8 544.442 376.214C545.341 378.629 546.643 380.511 548.348 381.861C550.052 383.187 552.124 383.849 554.562 383.849C557.024 383.849 559.108 383.175 560.812 381.825C562.517 380.452 563.807 378.558 564.683 376.143C565.583 373.705 566.032 370.9 566.032 367.727C566.032 364.579 565.594 361.809 564.719 359.418C563.843 357.027 562.552 355.156 560.848 353.807C559.143 352.457 557.048 351.783 554.562 351.783C552.1 351.783 550.017 352.434 548.312 353.736C546.631 355.038 545.341 356.884 544.442 359.276C543.542 361.667 543.092 364.484 543.092 367.727ZM604.061 322.273V395H588.934V322.273H604.061ZM638.406 396.065C632.795 396.065 627.966 394.929 623.917 392.656C619.893 390.36 616.791 387.116 614.613 382.926C612.435 378.712 611.346 373.729 611.346 367.976C611.346 362.365 612.435 357.441 614.613 353.203C616.791 348.965 619.857 345.663 623.811 343.295C627.788 340.928 632.452 339.744 637.802 339.744C641.401 339.744 644.751 340.324 647.852 341.484C650.977 342.621 653.7 344.337 656.02 346.634C658.363 348.93 660.186 351.818 661.488 355.298C662.79 358.755 663.442 362.803 663.442 367.443V371.598H617.383V362.223H649.201C649.201 360.045 648.728 358.116 647.781 356.435C646.834 354.754 645.52 353.44 643.839 352.493C642.182 351.522 640.253 351.037 638.051 351.037C635.754 351.037 633.718 351.57 631.943 352.635C630.191 353.677 628.818 355.085 627.824 356.861C626.829 358.613 626.32 360.566 626.297 362.72V371.634C626.297 374.332 626.794 376.664 627.788 378.629C628.806 380.594 630.238 382.109 632.085 383.175C633.932 384.24 636.121 384.773 638.655 384.773C640.335 384.773 641.874 384.536 643.271 384.062C644.668 383.589 645.863 382.879 646.858 381.932C647.852 380.985 648.61 379.825 649.13 378.452L663.122 379.375C662.412 382.737 660.956 385.672 658.754 388.182C656.576 390.668 653.759 392.609 650.302 394.006C646.87 395.379 642.904 396.065 638.406 396.065ZM682.348 340.455L692.362 359.524L702.625 340.455H718.143L702.34 367.727L718.569 395H703.122L692.362 376.143L681.779 395H666.154L682.348 367.727L666.723 340.455H682.348ZM724.496 395V340.455H739.624V395H724.496ZM732.095 333.423C729.846 333.423 727.917 332.678 726.307 331.186C724.721 329.671 723.928 327.86 723.928 325.753C723.928 323.67 724.721 321.882 726.307 320.391C727.917 318.875 729.846 318.118 732.095 318.118C734.344 318.118 736.262 318.875 737.848 320.391C739.458 321.882 740.263 323.67 740.263 325.753C740.263 327.86 739.458 329.671 737.848 331.186C736.262 332.678 734.344 333.423 732.095 333.423ZM778.123 340.455V351.818H745.275V340.455H778.123ZM752.733 327.386H767.86V378.239C767.86 379.635 768.073 380.724 768.5 381.506C768.926 382.263 769.518 382.796 770.275 383.104C771.056 383.411 771.956 383.565 772.974 383.565C773.684 383.565 774.394 383.506 775.105 383.388C775.815 383.246 776.359 383.139 776.738 383.068L779.117 394.325C778.36 394.562 777.295 394.834 775.921 395.142C774.548 395.473 772.879 395.675 770.914 395.746C767.269 395.888 764.072 395.402 761.326 394.29C758.604 393.177 756.485 391.449 754.97 389.105C753.455 386.761 752.709 383.802 752.733 380.227V327.386ZM794.685 415.455C792.768 415.455 790.969 415.301 789.288 414.993C787.631 414.709 786.257 414.342 785.168 413.892L788.577 402.599C790.353 403.144 791.951 403.44 793.372 403.487C794.816 403.535 796.059 403.203 797.1 402.493C798.166 401.783 799.03 400.575 799.693 398.871L800.58 396.562L781.014 340.455H796.923L808.215 380.511H808.783L820.183 340.455H836.198L814.998 400.895C813.98 403.83 812.595 406.387 810.843 408.565C809.115 410.767 806.925 412.46 804.274 413.643C801.622 414.851 798.426 415.455 794.685 415.455ZM861.821 395V340.455H876.949V395H861.821ZM869.42 333.423C867.171 333.423 865.242 332.678 863.632 331.186C862.046 329.671 861.253 327.86 861.253 325.753C861.253 323.67 862.046 321.882 863.632 320.391C865.242 318.875 867.171 318.118 869.42 318.118C871.67 318.118 873.587 318.875 875.173 320.391C876.783 321.882 877.588 323.67 877.588 325.753C877.588 327.86 876.783 329.671 875.173 331.186C873.587 332.678 871.67 333.423 869.42 333.423ZM901.563 363.466V395H886.436V340.455H900.853V350.078H901.492C902.7 346.906 904.724 344.396 907.565 342.55C910.406 340.679 913.85 339.744 917.899 339.744C921.686 339.744 924.989 340.573 927.806 342.23C930.624 343.887 932.813 346.255 934.376 349.332C935.938 352.386 936.72 356.032 936.72 360.27V395H921.592V362.969C921.615 359.631 920.763 357.027 919.035 355.156C917.307 353.262 914.928 352.315 911.897 352.315C909.861 352.315 908.062 352.753 906.499 353.629C904.961 354.505 903.753 355.784 902.877 357.464C902.025 359.122 901.587 361.122 901.563 363.466ZM982.078 396.03C978.598 396.03 975.497 395.426 972.774 394.219C970.051 392.988 967.897 391.177 966.311 388.786C964.748 386.371 963.967 383.364 963.967 379.766C963.967 376.735 964.524 374.19 965.636 372.131C966.749 370.071 968.264 368.414 970.182 367.159C972.099 365.904 974.277 364.957 976.716 364.318C979.178 363.679 981.758 363.229 984.457 362.969C987.63 362.637 990.186 362.33 992.128 362.045C994.069 361.738 995.478 361.288 996.354 360.696C997.229 360.104 997.667 359.228 997.667 358.068V357.855C997.667 355.606 996.957 353.866 995.537 352.635C994.14 351.404 992.151 350.788 989.571 350.788C986.848 350.788 984.682 351.392 983.072 352.599C981.462 353.783 980.397 355.275 979.876 357.074L965.885 355.938C966.595 352.623 967.992 349.759 970.075 347.344C972.158 344.905 974.845 343.035 978.136 341.733C981.451 340.407 985.286 339.744 989.642 339.744C992.672 339.744 995.572 340.099 998.342 340.81C1001.14 341.52 1003.61 342.621 1005.76 344.112C1007.94 345.604 1009.66 347.521 1010.91 349.865C1012.17 352.185 1012.8 354.967 1012.8 358.21V395H998.449V387.436H998.023C997.147 389.141 995.975 390.644 994.507 391.946C993.039 393.224 991.275 394.231 989.216 394.964C987.156 395.675 984.777 396.03 982.078 396.03ZM986.41 385.589C988.636 385.589 990.601 385.152 992.305 384.276C994.01 383.376 995.347 382.169 996.318 380.653C997.289 379.138 997.774 377.422 997.774 375.504V369.716C997.301 370.024 996.649 370.308 995.821 370.568C995.016 370.805 994.104 371.03 993.086 371.243C992.069 371.432 991.051 371.61 990.033 371.776C989.015 371.918 988.091 372.048 987.263 372.166C985.487 372.427 983.936 372.841 982.611 373.409C981.285 373.977 980.255 374.747 979.521 375.717C978.787 376.664 978.42 377.848 978.42 379.268C978.42 381.328 979.166 382.902 980.658 383.991C982.173 385.057 984.09 385.589 986.41 385.589ZM112.321 499V426.273H127.697V458.339H128.656L154.828 426.273H173.259L146.27 458.837L173.578 499H155.183L135.261 469.099L127.697 478.332V499H112.321ZM209.911 475.776V444.455H225.039V499H210.515V489.092H209.947C208.716 492.288 206.668 494.857 203.803 496.798C200.963 498.74 197.494 499.71 193.399 499.71C189.753 499.71 186.545 498.882 183.775 497.224C181.005 495.567 178.839 493.212 177.276 490.158C175.738 487.104 174.956 483.446 174.933 479.185V444.455H190.061V476.486C190.084 479.705 190.948 482.25 192.653 484.121C194.357 485.991 196.642 486.926 199.507 486.926C201.329 486.926 203.034 486.512 204.62 485.683C206.206 484.831 207.485 483.576 208.455 481.919C209.45 480.262 209.935 478.214 209.911 475.776ZM234.792 499V426.273H249.92V453.616H250.382C251.045 452.149 252.003 450.657 253.258 449.142C254.537 447.603 256.194 446.325 258.23 445.307C260.289 444.265 262.846 443.744 265.9 443.744C269.877 443.744 273.547 444.786 276.909 446.869C280.27 448.929 282.957 452.042 284.97 456.209C286.982 460.352 287.988 465.548 287.988 471.798C287.988 477.883 287.006 483.02 285.041 487.21C283.1 491.377 280.448 494.537 277.086 496.692C273.748 498.822 270.008 499.888 265.865 499.888C262.929 499.888 260.431 499.402 258.372 498.432C256.336 497.461 254.667 496.242 253.365 494.774C252.063 493.283 251.068 491.779 250.382 490.264H249.707V499H234.792ZM249.6 471.727C249.6 474.971 250.05 477.8 250.95 480.214C251.85 482.629 253.152 484.511 254.856 485.861C256.561 487.187 258.632 487.849 261.071 487.849C263.533 487.849 265.616 487.175 267.321 485.825C269.025 484.452 270.315 482.558 271.191 480.143C272.091 477.705 272.541 474.9 272.541 471.727C272.541 468.579 272.103 465.809 271.227 463.418C270.351 461.027 269.061 459.156 267.356 457.807C265.652 456.457 263.556 455.783 261.071 455.783C258.609 455.783 256.525 456.434 254.821 457.736C253.14 459.038 251.85 460.884 250.95 463.276C250.05 465.667 249.6 468.484 249.6 471.727ZM320.309 500.065C314.698 500.065 309.868 498.929 305.82 496.656C301.795 494.36 298.694 491.116 296.516 486.926C294.338 482.712 293.249 477.729 293.249 471.976C293.249 466.365 294.338 461.441 296.516 457.203C298.694 452.965 301.76 449.663 305.714 447.295C309.691 444.928 314.355 443.744 319.705 443.744C323.304 443.744 326.653 444.324 329.755 445.484C332.88 446.621 335.602 448.337 337.922 450.634C340.266 452.93 342.089 455.818 343.391 459.298C344.693 462.755 345.344 466.803 345.344 471.443V475.598H299.286V466.223H331.104C331.104 464.045 330.631 462.116 329.684 460.435C328.737 458.754 327.423 457.44 325.742 456.493C324.085 455.522 322.155 455.037 319.954 455.037C317.657 455.037 315.621 455.57 313.846 456.635C312.094 457.677 310.721 459.085 309.726 460.861C308.732 462.613 308.223 464.566 308.199 466.72V475.634C308.199 478.332 308.697 480.664 309.691 482.629C310.709 484.594 312.141 486.109 313.988 487.175C315.834 488.24 318.024 488.773 320.557 488.773C322.238 488.773 323.777 488.536 325.174 488.062C326.571 487.589 327.766 486.879 328.76 485.932C329.755 484.985 330.512 483.825 331.033 482.452L345.025 483.375C344.314 486.737 342.858 489.672 340.657 492.182C338.479 494.668 335.661 496.609 332.205 498.006C328.772 499.379 324.807 500.065 320.309 500.065ZM352.585 499V444.455H367.251V453.972H367.819C368.814 450.586 370.483 448.029 372.826 446.301C375.17 444.549 377.869 443.673 380.923 443.673C381.68 443.673 382.497 443.721 383.373 443.815C384.249 443.91 385.019 444.04 385.681 444.206V457.629C384.971 457.416 383.989 457.227 382.734 457.061C381.479 456.895 380.331 456.812 379.289 456.812C377.064 456.812 375.075 457.298 373.323 458.268C371.595 459.215 370.222 460.541 369.204 462.246C368.21 463.95 367.713 465.915 367.713 468.141V499H352.585ZM405.999 467.466V499H390.871V444.455H405.289V454.078H405.928C407.135 450.906 409.16 448.396 412 446.55C414.841 444.679 418.286 443.744 422.334 443.744C426.122 443.744 429.425 444.573 432.242 446.23C435.059 447.887 437.249 450.255 438.812 453.332C440.374 456.386 441.155 460.032 441.155 464.27V499H426.027V466.969C426.051 463.631 425.199 461.027 423.471 459.156C421.742 457.262 419.363 456.315 416.333 456.315C414.297 456.315 412.498 456.753 410.935 457.629C409.396 458.505 408.189 459.784 407.313 461.464C406.461 463.122 406.023 465.122 405.999 467.466ZM475.305 500.065C469.694 500.065 464.864 498.929 460.816 496.656C456.791 494.36 453.69 491.116 451.512 486.926C449.334 482.712 448.245 477.729 448.245 471.976C448.245 466.365 449.334 461.441 451.512 457.203C453.69 452.965 456.756 449.663 460.709 447.295C464.687 444.928 469.351 443.744 474.701 443.744C478.299 443.744 481.649 444.324 484.751 445.484C487.876 446.621 490.598 448.337 492.918 450.634C495.262 452.93 497.085 455.818 498.387 459.298C499.689 462.755 500.34 466.803 500.34 471.443V475.598H454.282V466.223H486.1C486.1 464.045 485.627 462.116 484.68 460.435C483.733 458.754 482.419 457.44 480.738 456.493C479.081 455.522 477.151 455.037 474.95 455.037C472.653 455.037 470.617 455.57 468.842 456.635C467.09 457.677 465.717 459.085 464.722 460.861C463.728 462.613 463.219 464.566 463.195 466.72V475.634C463.195 478.332 463.692 480.664 464.687 482.629C465.705 484.594 467.137 486.109 468.984 487.175C470.83 488.24 473.02 488.773 475.553 488.773C477.234 488.773 478.773 488.536 480.17 488.062C481.566 487.589 482.762 486.879 483.756 485.932C484.751 484.985 485.508 483.825 486.029 482.452L500.021 483.375C499.31 486.737 497.854 489.672 495.653 492.182C493.475 494.668 490.657 496.609 487.201 498.006C483.768 499.379 479.803 500.065 475.305 500.065ZM536.594 444.455V455.818H503.745V444.455H536.594ZM511.203 431.386H526.331V482.239C526.331 483.635 526.544 484.724 526.97 485.506C527.396 486.263 527.988 486.796 528.745 487.104C529.527 487.411 530.426 487.565 531.444 487.565C532.155 487.565 532.865 487.506 533.575 487.388C534.285 487.246 534.83 487.139 535.209 487.068L537.588 498.325C536.83 498.562 535.765 498.834 534.392 499.142C533.019 499.473 531.35 499.675 529.385 499.746C525.739 499.888 522.543 499.402 519.797 498.29C517.074 497.177 514.955 495.449 513.44 493.105C511.925 490.761 511.179 487.802 511.203 484.227V431.386ZM568.088 500.065C562.478 500.065 557.648 498.929 553.6 496.656C549.575 494.36 546.474 491.116 544.296 486.926C542.118 482.712 541.029 477.729 541.029 471.976C541.029 466.365 542.118 461.441 544.296 457.203C546.474 452.965 549.54 449.663 553.493 447.295C557.47 444.928 562.134 443.744 567.485 443.744C571.083 443.744 574.433 444.324 577.534 445.484C580.659 446.621 583.382 448.337 585.702 450.634C588.046 452.93 589.869 455.818 591.171 459.298C592.473 462.755 593.124 466.803 593.124 471.443V475.598H547.066V466.223H578.884C578.884 464.045 578.41 462.116 577.463 460.435C576.516 458.754 575.202 457.44 573.522 456.493C571.864 455.522 569.935 455.037 567.733 455.037C565.437 455.037 563.401 455.57 561.625 456.635C559.873 457.677 558.5 459.085 557.506 460.861C556.512 462.613 556.003 464.566 555.979 466.72V475.634C555.979 478.332 556.476 480.664 557.47 482.629C558.488 484.594 559.921 486.109 561.767 487.175C563.614 488.24 565.804 488.773 568.337 488.773C570.018 488.773 571.557 488.536 572.953 488.062C574.35 487.589 575.546 486.879 576.54 485.932C577.534 484.985 578.292 483.825 578.813 482.452L592.804 483.375C592.094 486.737 590.638 489.672 588.436 492.182C586.258 494.668 583.441 496.609 579.985 498.006C576.552 499.379 572.586 500.065 568.088 500.065ZM645.748 460.009L631.899 460.861C631.662 459.677 631.153 458.612 630.372 457.665C629.59 456.694 628.56 455.925 627.282 455.357C626.027 454.765 624.524 454.469 622.772 454.469C620.428 454.469 618.452 454.966 616.842 455.96C615.232 456.931 614.427 458.233 614.427 459.866C614.427 461.169 614.948 462.269 615.989 463.169C617.031 464.069 618.819 464.791 621.352 465.335L631.224 467.324C636.527 468.413 640.48 470.165 643.085 472.58C645.689 474.994 646.991 478.167 646.991 482.097C646.991 485.671 645.937 488.808 643.83 491.507C641.747 494.206 638.882 496.313 635.237 497.828C631.614 499.32 627.436 500.065 622.701 500.065C615.48 500.065 609.728 498.562 605.443 495.555C601.181 492.525 598.684 488.406 597.95 483.197L612.829 482.416C613.279 484.618 614.368 486.299 616.096 487.459C617.824 488.595 620.038 489.163 622.737 489.163C625.388 489.163 627.519 488.654 629.129 487.636C630.762 486.595 631.591 485.257 631.614 483.624C631.591 482.25 631.011 481.126 629.874 480.25C628.738 479.35 626.986 478.664 624.619 478.19L615.173 476.308C609.846 475.243 605.881 473.396 603.276 470.768C600.696 468.141 599.406 464.791 599.406 460.719C599.406 457.215 600.353 454.196 602.247 451.663C604.164 449.13 606.851 447.177 610.308 445.804C613.788 444.431 617.86 443.744 622.524 443.744C629.413 443.744 634.834 445.2 638.788 448.112C642.765 451.024 645.085 454.99 645.748 460.009ZM674.682 499V426.273H703.375C708.892 426.273 713.591 427.326 717.473 429.433C721.356 431.517 724.315 434.417 726.351 438.134C728.411 441.827 729.441 446.088 729.441 450.918C729.441 455.747 728.399 460.009 726.316 463.702C724.232 467.395 721.214 470.271 717.26 472.331C713.33 474.391 708.572 475.42 702.985 475.42H684.696V463.098H700.499C703.458 463.098 705.897 462.589 707.814 461.571C709.756 460.529 711.2 459.097 712.147 457.274C713.117 455.428 713.603 453.309 713.603 450.918C713.603 448.503 713.117 446.396 712.147 444.597C711.2 442.774 709.756 441.365 707.814 440.371C705.873 439.353 703.411 438.844 700.428 438.844H690.059V499H674.682ZM751.641 426.273V499H736.513V426.273H751.641ZM776.681 500.03C773.201 500.03 770.1 499.426 767.377 498.219C764.655 496.988 762.5 495.177 760.914 492.786C759.352 490.371 758.57 487.364 758.57 483.766C758.57 480.735 759.127 478.19 760.239 476.131C761.352 474.071 762.867 472.414 764.785 471.159C766.702 469.904 768.881 468.957 771.319 468.318C773.781 467.679 776.362 467.229 779.06 466.969C782.233 466.637 784.79 466.33 786.731 466.045C788.672 465.738 790.081 465.288 790.957 464.696C791.833 464.104 792.271 463.228 792.271 462.068V461.855C792.271 459.606 791.56 457.866 790.14 456.635C788.743 455.404 786.755 454.788 784.174 454.788C781.452 454.788 779.285 455.392 777.675 456.599C776.066 457.783 775 459.275 774.479 461.074L760.488 459.938C761.198 456.623 762.595 453.759 764.678 451.344C766.762 448.905 769.449 447.035 772.739 445.733C776.054 444.407 779.889 443.744 784.245 443.744C787.275 443.744 790.175 444.099 792.945 444.81C795.739 445.52 798.213 446.621 800.367 448.112C802.545 449.604 804.262 451.521 805.516 453.865C806.771 456.185 807.399 458.967 807.399 462.21V499H793.052V491.436H792.626C791.75 493.141 790.578 494.644 789.11 495.946C787.642 497.224 785.879 498.231 783.819 498.964C781.759 499.675 779.38 500.03 776.681 500.03ZM781.014 489.589C783.239 489.589 785.204 489.152 786.908 488.276C788.613 487.376 789.951 486.169 790.921 484.653C791.892 483.138 792.377 481.422 792.377 479.504V473.716C791.904 474.024 791.253 474.308 790.424 474.568C789.619 474.805 788.708 475.03 787.69 475.243C786.672 475.432 785.654 475.61 784.636 475.776C783.618 475.918 782.694 476.048 781.866 476.166C780.09 476.427 778.54 476.841 777.214 477.409C775.888 477.977 774.858 478.747 774.124 479.717C773.39 480.664 773.024 481.848 773.024 483.268C773.024 485.328 773.769 486.902 775.261 487.991C776.776 489.057 778.693 489.589 781.014 489.589ZM845.516 444.455V455.818H812.668V444.455H845.516ZM820.126 431.386H835.253V482.239C835.253 483.635 835.466 484.724 835.893 485.506C836.319 486.263 836.911 486.796 837.668 487.104C838.449 487.411 839.349 487.565 840.367 487.565C841.077 487.565 841.788 487.506 842.498 487.388C843.208 487.246 843.752 487.139 844.131 487.068L846.511 498.325C845.753 498.562 844.688 498.834 843.315 499.142C841.941 499.473 840.272 499.675 838.307 499.746C834.662 499.888 831.466 499.402 828.719 498.29C825.997 497.177 823.878 495.449 822.363 493.105C820.848 490.761 820.102 487.802 820.126 484.227V431.386ZM882.071 444.455V455.818H848.407V444.455H882.071ZM856.113 499V440.513C856.113 436.559 856.882 433.28 858.421 430.676C859.983 428.072 862.114 426.119 864.813 424.817C867.512 423.515 870.578 422.864 874.01 422.864C876.33 422.864 878.449 423.041 880.367 423.396C882.308 423.751 883.752 424.071 884.699 424.355L882 435.719C881.409 435.529 880.675 435.352 879.799 435.186C878.946 435.02 878.07 434.938 877.171 434.938C874.945 434.938 873.395 435.458 872.519 436.5C871.643 437.518 871.205 438.95 871.205 440.797V499H856.113ZM911.373 500.065C905.857 500.065 901.087 498.893 897.062 496.55C893.061 494.182 889.972 490.892 887.794 486.678C885.616 482.44 884.527 477.527 884.527 471.94C884.527 466.306 885.616 461.382 887.794 457.168C889.972 452.93 893.061 449.639 897.062 447.295C901.087 444.928 905.857 443.744 911.373 443.744C916.89 443.744 921.648 444.928 925.649 447.295C929.674 449.639 932.775 452.93 934.953 457.168C937.131 461.382 938.22 466.306 938.22 471.94C938.22 477.527 937.131 482.44 934.953 486.678C932.775 490.892 929.674 494.182 925.649 496.55C921.648 498.893 916.89 500.065 911.373 500.065ZM911.444 488.347C913.954 488.347 916.049 487.636 917.73 486.216C919.411 484.772 920.677 482.807 921.53 480.321C922.406 477.835 922.844 475.006 922.844 471.834C922.844 468.661 922.406 465.832 921.53 463.347C920.677 460.861 919.411 458.896 917.73 457.452C916.049 456.008 913.954 455.286 911.444 455.286C908.911 455.286 906.781 456.008 905.052 457.452C903.348 458.896 902.058 460.861 901.182 463.347C900.329 465.832 899.903 468.661 899.903 471.834C899.903 475.006 900.329 477.835 901.182 480.321C902.058 482.807 903.348 484.772 905.052 486.216C906.781 487.636 908.911 488.347 911.444 488.347ZM945.425 499V444.455H960.091V453.972H960.659C961.654 450.586 963.323 448.029 965.667 446.301C968.01 444.549 970.709 443.673 973.763 443.673C974.521 443.673 975.338 443.721 976.213 443.815C977.089 443.91 977.859 444.04 978.522 444.206V457.629C977.811 457.416 976.829 457.227 975.574 457.061C974.32 456.895 973.171 456.812 972.13 456.812C969.904 456.812 967.916 457.298 966.164 458.268C964.436 459.215 963.062 460.541 962.044 462.246C961.05 463.95 960.553 465.915 960.553 468.141V499H945.425ZM983.711 499V444.455H998.129V454.078H998.768C999.905 450.882 1001.8 448.361 1004.45 446.514C1007.1 444.668 1010.27 443.744 1013.97 443.744C1017.71 443.744 1020.89 444.679 1023.52 446.55C1026.15 448.396 1027.9 450.906 1028.78 454.078H1029.34C1030.46 450.953 1032.47 448.455 1035.38 446.585C1038.32 444.691 1041.78 443.744 1045.79 443.744C1050.88 443.744 1055.01 445.366 1058.18 448.609C1061.37 451.829 1062.97 456.398 1062.97 462.317V499H1047.88V465.3C1047.88 462.269 1047.08 459.997 1045.47 458.482C1043.86 456.966 1041.84 456.209 1039.43 456.209C1036.68 456.209 1034.54 457.085 1033 458.837C1031.46 460.565 1030.69 462.849 1030.69 465.69V499H1016.03V464.98C1016.03 462.305 1015.26 460.174 1013.72 458.588C1012.2 457.002 1010.2 456.209 1007.72 456.209C1006.04 456.209 1004.52 456.635 1003.17 457.487C1001.85 458.316 1000.79 459.488 1000.01 461.003C999.23 462.494 998.839 464.246 998.839 466.259V499H983.711Z" fill="black"/>
</g>
<path d="M141.565 600.48H135.804C135.582 599.249 135.17 598.166 134.567 597.23C133.964 596.295 133.225 595.5 132.351 594.848C131.477 594.196 130.498 593.703 129.415 593.371C128.344 593.038 127.205 592.872 125.999 592.872C123.82 592.872 121.868 593.42 120.145 594.516C118.434 595.611 117.08 597.218 116.082 599.335C115.098 601.453 114.605 604.038 114.605 607.091C114.605 610.169 115.098 612.766 116.082 614.884C117.08 617.001 118.44 618.601 120.163 619.685C121.887 620.768 123.826 621.31 125.98 621.31C127.174 621.31 128.307 621.15 129.378 620.83C130.461 620.497 131.44 620.011 132.314 619.371C133.188 618.731 133.927 617.949 134.53 617.026C135.145 616.09 135.57 615.019 135.804 613.812L141.565 613.831C141.258 615.69 140.661 617.401 139.774 618.964C138.9 620.516 137.774 621.857 136.395 622.99C135.028 624.11 133.465 624.978 131.705 625.594C129.944 626.209 128.024 626.517 125.943 626.517C122.669 626.517 119.751 625.741 117.19 624.19C114.63 622.627 112.611 620.393 111.134 617.487C109.669 614.582 108.936 611.116 108.936 607.091C108.936 603.053 109.675 599.588 111.152 596.695C112.629 593.789 114.648 591.561 117.209 590.01C119.769 588.446 122.681 587.665 125.943 587.665C127.95 587.665 129.821 587.954 131.557 588.533C133.305 589.099 134.875 589.936 136.266 591.044C137.657 592.14 138.808 593.482 139.719 595.07C140.63 596.645 141.245 598.449 141.565 600.48ZM151.576 609.159V626H146.055V588.182H151.503V602.253H151.853C152.518 600.726 153.534 599.514 154.9 598.615C156.267 597.716 158.052 597.267 160.255 597.267C162.201 597.267 163.899 597.667 165.352 598.467C166.817 599.268 167.95 600.462 168.75 602.05C169.562 603.625 169.969 605.595 169.969 607.959V626H164.447V608.624C164.447 606.543 163.912 604.93 162.841 603.786C161.77 602.628 160.28 602.05 158.372 602.05C157.067 602.05 155.898 602.327 154.863 602.881C153.842 603.435 153.035 604.247 152.444 605.318C151.866 606.377 151.576 607.657 151.576 609.159ZM175.442 626V597.636H180.778V602.142H181.074C181.591 600.616 182.502 599.415 183.807 598.541C185.124 597.655 186.614 597.212 188.276 597.212C188.62 597.212 189.026 597.224 189.494 597.249C189.974 597.273 190.35 597.304 190.621 597.341V602.622C190.399 602.561 190.005 602.493 189.439 602.419C188.873 602.333 188.306 602.29 187.74 602.29C186.435 602.29 185.272 602.567 184.25 603.121C183.24 603.662 182.44 604.42 181.849 605.392C181.258 606.352 180.963 607.448 180.963 608.679V626H175.442ZM193.504 626V597.636H199.025V626H193.504ZM196.292 593.26C195.332 593.26 194.507 592.94 193.818 592.3C193.141 591.647 192.802 590.872 192.802 589.973C192.802 589.062 193.141 588.286 193.818 587.646C194.507 586.994 195.332 586.668 196.292 586.668C197.253 586.668 198.071 586.994 198.748 587.646C199.438 588.286 199.782 589.062 199.782 589.973C199.782 590.872 199.438 591.647 198.748 592.3C198.071 592.94 197.253 593.26 196.292 593.26ZM225.813 604.561L220.808 605.447C220.599 604.807 220.267 604.198 219.811 603.619C219.368 603.041 218.765 602.567 218.002 602.197C217.238 601.828 216.284 601.643 215.139 601.643C213.576 601.643 212.271 601.994 211.225 602.696C210.178 603.385 209.655 604.278 209.655 605.374C209.655 606.321 210.006 607.085 210.708 607.663C211.409 608.242 212.542 608.716 214.105 609.085L218.611 610.119C221.221 610.723 223.166 611.652 224.446 612.908C225.727 614.163 226.367 615.795 226.367 617.801C226.367 619.5 225.874 621.014 224.889 622.344C223.917 623.661 222.557 624.695 220.808 625.446C219.073 626.197 217.06 626.572 214.77 626.572C211.594 626.572 209.003 625.895 206.996 624.541C204.989 623.175 203.758 621.236 203.303 618.724L208.639 617.912C208.972 619.303 209.655 620.356 210.689 621.07C211.723 621.771 213.071 622.122 214.733 622.122C216.543 622.122 217.989 621.747 219.073 620.996C220.156 620.232 220.698 619.303 220.698 618.207C220.698 617.321 220.365 616.576 219.701 615.973C219.048 615.37 218.045 614.914 216.691 614.607L211.889 613.554C209.243 612.951 207.285 611.991 206.017 610.673C204.762 609.356 204.134 607.688 204.134 605.669C204.134 603.995 204.602 602.53 205.537 601.274C206.473 600.018 207.765 599.04 209.415 598.338C211.065 597.624 212.954 597.267 215.084 597.267C218.149 597.267 220.562 597.932 222.323 599.261C224.083 600.579 225.246 602.345 225.813 604.561ZM273.377 588.182V626H268.133L248.91 598.264H248.559V626H242.853V588.182H248.134L267.376 615.955H267.726V588.182H273.377ZM291.587 626.572C288.792 626.572 286.386 625.975 284.367 624.781C282.36 623.575 280.809 621.882 279.713 619.703C278.63 617.512 278.088 614.945 278.088 612.003C278.088 609.098 278.63 606.537 279.713 604.321C280.809 602.105 282.336 600.375 284.293 599.132C286.263 597.889 288.565 597.267 291.199 597.267C292.8 597.267 294.351 597.532 295.853 598.061C297.355 598.59 298.703 599.421 299.897 600.554C301.091 601.687 302.033 603.158 302.722 604.967C303.411 606.765 303.756 608.95 303.756 611.523V613.48H281.209V609.344H298.346C298.346 607.891 298.05 606.605 297.459 605.484C296.868 604.352 296.037 603.459 294.966 602.807C293.908 602.154 292.664 601.828 291.236 601.828C289.685 601.828 288.331 602.21 287.174 602.973C286.029 603.724 285.142 604.709 284.515 605.928C283.899 607.134 283.591 608.445 283.591 609.861V613.092C283.591 614.988 283.924 616.601 284.588 617.93C285.265 619.26 286.207 620.276 287.414 620.977C288.62 621.667 290.03 622.011 291.642 622.011C292.689 622.011 293.643 621.864 294.505 621.568C295.366 621.26 296.111 620.805 296.739 620.202C297.367 619.598 297.847 618.854 298.179 617.967L303.405 618.909C302.987 620.448 302.236 621.796 301.152 622.953C300.081 624.098 298.733 624.991 297.108 625.631C295.496 626.259 293.655 626.572 291.587 626.572ZM329.242 604.561L324.237 605.447C324.028 604.807 323.696 604.198 323.24 603.619C322.797 603.041 322.194 602.567 321.431 602.197C320.667 601.828 319.713 601.643 318.568 601.643C317.005 601.643 315.7 601.994 314.654 602.696C313.607 603.385 313.084 604.278 313.084 605.374C313.084 606.321 313.435 607.085 314.136 607.663C314.838 608.242 315.971 608.716 317.534 609.085L322.04 610.119C324.65 610.723 326.595 611.652 327.875 612.908C329.155 614.163 329.796 615.795 329.796 617.801C329.796 619.5 329.303 621.014 328.318 622.344C327.346 623.661 325.985 624.695 324.237 625.446C322.502 626.197 320.489 626.572 318.199 626.572C315.023 626.572 312.431 625.895 310.425 624.541C308.418 623.175 307.187 621.236 306.732 618.724L312.068 617.912C312.401 619.303 313.084 620.356 314.118 621.07C315.152 621.771 316.5 622.122 318.162 622.122C319.972 622.122 321.418 621.747 322.502 620.996C323.585 620.232 324.127 619.303 324.127 618.207C324.127 617.321 323.794 616.576 323.129 615.973C322.477 615.37 321.474 614.914 320.119 614.607L315.318 613.554C312.672 612.951 310.714 611.991 309.446 610.673C308.19 609.356 307.563 607.688 307.563 605.669C307.563 603.995 308.03 602.53 308.966 601.274C309.902 600.018 311.194 599.04 312.844 598.338C314.493 597.624 316.383 597.267 318.513 597.267C321.578 597.267 323.991 597.932 325.752 599.261C327.512 600.579 328.675 602.345 329.242 604.561ZM334.415 626V588.182H339.936V602.234H340.268C340.588 601.643 341.05 600.96 341.653 600.185C342.257 599.409 343.094 598.732 344.165 598.153C345.236 597.562 346.651 597.267 348.412 597.267C350.702 597.267 352.745 597.846 354.543 599.003C356.34 600.16 357.749 601.828 358.771 604.007C359.805 606.186 360.322 608.808 360.322 611.874C360.322 614.939 359.811 617.567 358.79 619.759C357.768 621.937 356.365 623.618 354.579 624.8C352.794 625.969 350.757 626.554 348.467 626.554C346.744 626.554 345.334 626.265 344.239 625.686C343.155 625.107 342.306 624.43 341.69 623.655C341.075 622.879 340.601 622.19 340.268 621.587H339.807V626H334.415ZM339.825 611.818C339.825 613.812 340.115 615.561 340.693 617.062C341.272 618.564 342.109 619.74 343.204 620.589C344.3 621.427 345.642 621.845 347.23 621.845C348.88 621.845 350.258 621.408 351.366 620.534C352.474 619.648 353.311 618.447 353.878 616.933C354.456 615.419 354.746 613.714 354.746 611.818C354.746 609.947 354.463 608.267 353.896 606.777C353.342 605.287 352.505 604.112 351.385 603.25C350.277 602.388 348.892 601.957 347.23 601.957C345.63 601.957 344.275 602.37 343.168 603.195C342.072 604.019 341.241 605.17 340.675 606.648C340.108 608.125 339.825 609.848 339.825 611.818ZM364.628 626V597.636H370.149V626H364.628ZM367.416 593.26C366.456 593.26 365.631 592.94 364.941 592.3C364.264 591.647 363.926 590.872 363.926 589.973C363.926 589.062 364.264 588.286 364.941 587.646C365.631 586.994 366.456 586.668 367.416 586.668C368.376 586.668 369.195 586.994 369.872 587.646C370.561 588.286 370.906 589.062 370.906 589.973C370.906 590.872 370.561 591.647 369.872 592.3C369.195 592.94 368.376 593.26 367.416 593.26ZM388.922 597.636V602.068H373.429V597.636H388.922ZM377.584 590.841H383.105V617.672C383.105 618.743 383.265 619.549 383.585 620.091C383.906 620.62 384.318 620.983 384.823 621.18C385.34 621.365 385.9 621.457 386.503 621.457C386.946 621.457 387.334 621.427 387.666 621.365C387.999 621.304 388.257 621.254 388.442 621.217L389.439 625.778C389.119 625.902 388.664 626.025 388.073 626.148C387.482 626.283 386.743 626.357 385.857 626.369C384.404 626.394 383.05 626.135 381.794 625.594C380.539 625.052 379.523 624.215 378.747 623.082C377.972 621.95 377.584 620.528 377.584 618.817V590.841ZM406.375 597.636V602.068H390.882V597.636H406.375ZM395.037 590.841H400.558V617.672C400.558 618.743 400.718 619.549 401.038 620.091C401.358 620.62 401.771 620.983 402.276 621.18C402.793 621.365 403.353 621.457 403.956 621.457C404.399 621.457 404.787 621.427 405.119 621.365C405.452 621.304 405.71 621.254 405.895 621.217L406.892 625.778C406.572 625.902 406.116 626.025 405.526 626.148C404.935 626.283 404.196 626.357 403.31 626.369C401.857 626.394 400.503 626.135 399.247 625.594C397.991 625.052 396.976 624.215 396.2 623.082C395.425 621.95 395.037 620.528 395.037 618.817V590.841ZM426.335 607.626V612.409H409.568V607.626H426.335ZM452.868 598.116C452.671 596.368 451.859 595.014 450.431 594.054C449.003 593.081 447.205 592.595 445.039 592.595C443.488 592.595 442.146 592.841 441.013 593.334C439.881 593.814 439 594.479 438.372 595.328C437.757 596.165 437.449 597.119 437.449 598.19C437.449 599.089 437.658 599.865 438.077 600.517C438.508 601.17 439.068 601.717 439.757 602.161C440.459 602.591 441.21 602.955 442.01 603.25C442.81 603.533 443.58 603.767 444.319 603.952L448.012 604.912C449.218 605.207 450.455 605.607 451.723 606.112C452.991 606.617 454.167 607.282 455.25 608.107C456.334 608.931 457.208 609.953 457.872 611.172C458.55 612.391 458.888 613.849 458.888 615.548C458.888 617.69 458.334 619.592 457.226 621.254C456.131 622.916 454.536 624.227 452.444 625.188C450.363 626.148 447.845 626.628 444.891 626.628C442.06 626.628 439.61 626.179 437.542 625.28C435.473 624.381 433.854 623.107 432.685 621.457C431.515 619.795 430.869 617.826 430.746 615.548H436.47C436.581 616.915 437.024 618.054 437.8 618.964C438.588 619.863 439.591 620.534 440.81 620.977C442.041 621.408 443.389 621.624 444.854 621.624C446.467 621.624 447.901 621.371 449.157 620.866C450.425 620.349 451.422 619.635 452.148 618.724C452.874 617.801 453.238 616.724 453.238 615.493C453.238 614.373 452.917 613.455 452.277 612.741C451.649 612.027 450.794 611.437 449.711 610.969C448.64 610.501 447.427 610.089 446.073 609.732L441.604 608.513C438.576 607.688 436.175 606.475 434.402 604.875C432.642 603.275 431.762 601.157 431.762 598.523C431.762 596.344 432.353 594.442 433.534 592.817C434.716 591.192 436.317 589.93 438.336 589.031C440.354 588.12 442.632 587.665 445.168 587.665C447.729 587.665 449.988 588.114 451.945 589.013C453.915 589.911 455.466 591.149 456.598 592.724C457.731 594.288 458.322 596.085 458.371 598.116H452.868ZM463.369 626V597.636H468.668V602.253H469.019C469.61 600.689 470.577 599.471 471.918 598.597C473.26 597.71 474.867 597.267 476.738 597.267C478.634 597.267 480.222 597.71 481.502 598.597C482.795 599.483 483.749 600.702 484.364 602.253H484.66C485.337 600.739 486.414 599.532 487.891 598.634C489.369 597.723 491.129 597.267 493.173 597.267C495.746 597.267 497.845 598.073 499.47 599.686C501.107 601.299 501.926 603.73 501.926 606.98V626H496.404V607.497C496.404 605.577 495.881 604.186 494.835 603.324C493.788 602.462 492.539 602.031 491.086 602.031C489.289 602.031 487.891 602.585 486.894 603.693C485.897 604.789 485.399 606.198 485.399 607.922V626H479.896V607.146C479.896 605.607 479.416 604.37 478.455 603.435C477.495 602.499 476.246 602.031 474.707 602.031C473.66 602.031 472.694 602.308 471.808 602.862C470.934 603.404 470.226 604.161 469.684 605.134C469.155 606.106 468.89 607.232 468.89 608.513V626H463.369ZM507.431 626V597.636H512.952V626H507.431ZM510.219 593.26C509.259 593.26 508.434 592.94 507.745 592.3C507.068 591.647 506.729 590.872 506.729 589.973C506.729 589.062 507.068 588.286 507.745 587.646C508.434 586.994 509.259 586.668 510.219 586.668C511.18 586.668 511.998 586.994 512.675 587.646C513.365 588.286 513.709 589.062 513.709 589.973C513.709 590.872 513.365 591.647 512.675 592.3C511.998 592.94 511.18 593.26 510.219 593.26ZM531.726 597.636V602.068H516.233V597.636H531.726ZM520.387 590.841H525.909V617.672C525.909 618.743 526.069 619.549 526.389 620.091C526.709 620.62 527.121 620.983 527.626 621.18C528.143 621.365 528.703 621.457 529.307 621.457C529.75 621.457 530.137 621.427 530.47 621.365C530.802 621.304 531.061 621.254 531.245 621.217L532.243 625.778C531.923 625.902 531.467 626.025 530.876 626.148C530.285 626.283 529.547 626.357 528.66 626.369C527.208 626.394 525.853 626.135 524.598 625.594C523.342 625.052 522.326 624.215 521.551 623.082C520.775 621.95 520.387 620.528 520.387 618.817V590.841ZM542.069 609.159V626H536.548V588.182H541.995V602.253H542.346C543.011 600.726 544.026 599.514 545.393 598.615C546.759 597.716 548.544 597.267 550.748 597.267C552.693 597.267 554.392 597.667 555.845 598.467C557.31 599.268 558.442 600.462 559.242 602.05C560.055 603.625 560.461 605.595 560.461 607.959V626H554.94V608.624C554.94 606.543 554.404 604.93 553.333 603.786C552.262 602.628 550.773 602.05 548.865 602.05C547.56 602.05 546.39 602.327 545.356 602.881C544.334 603.435 543.528 604.247 542.937 605.318C542.358 606.377 542.069 607.657 542.069 609.159Z" fill="black"/>
<path d="M917.45 827.395L951.05 794.845L985.7 827.395L951.05 861.345L917.45 827.395Z" fill="white"/>
<path d="M954.199 790.645C952.672 789.118 950.197 789.118 948.67 790.645L914.046 825.269C912.518 826.796 912.518 829.272 914.046 830.799L948.67 865.423C950.197 866.95 952.672 866.95 954.199 865.423L988.823 830.799C990.35 829.272 990.35 826.796 988.823 825.269L954.199 790.645Z" fill="white"/>
<path d="M969.528 825.155C967.945 825.155 966.656 826.444 966.656 828.027C966.656 829.609 967.945 830.897 969.528 830.897C971.11 830.897 972.399 829.609 972.399 828.027C972.399 826.444 971.11 825.155 969.528 825.155Z" fill="#326CE5"/>
<path d="M969.528 834.486C967.241 834.486 965.236 833.295 964.088 831.501C963.156 833.763 962.231 836.351 961.528 838.319C958.934 845.583 957.136 850.309 954.768 851.917C953.595 853.116 951.961 853.864 950.149 853.864C946.583 853.864 943.69 850.972 943.69 847.405C943.69 845.118 944.882 843.113 946.675 841.965C944.413 841.033 941.825 840.108 939.857 839.405C932.593 836.81 927.867 835.012 926.261 832.645C925.06 831.472 924.313 829.838 924.313 828.027C924.313 824.46 927.204 821.567 930.772 821.567C933.058 821.567 935.063 822.759 936.211 824.552C937.143 822.29 938.068 819.702 938.771 817.734C941.366 810.47 943.164 805.744 945.532 804.138C946.704 802.937 948.338 802.19 950.149 802.19C953.717 802.19 956.609 805.081 956.609 808.649C956.609 810.935 955.418 812.94 953.624 814.088C955.886 815.02 958.475 815.945 960.442 816.648C967.706 819.243 972.433 821.041 974.04 823.409C975.239 824.581 975.987 826.215 975.987 828.027C975.987 831.594 973.095 834.486 969.528 834.486ZM954.199 790.645C952.672 789.118 950.197 789.118 948.67 790.645L914.046 825.269C912.518 826.796 912.518 829.272 914.046 830.799L948.67 865.423C950.197 866.95 952.672 866.95 954.199 865.423L988.823 830.799C990.35 829.272 990.35 826.796 988.823 825.269L954.199 790.645Z" fill="#326CE5"/>
<path d="M930.772 825.155C929.189 825.155 927.9 826.444 927.9 828.027C927.9 829.609 929.189 830.897 930.772 830.897C932.354 830.897 933.643 829.609 933.643 828.027C933.643 826.444 932.354 825.155 930.772 825.155Z" fill="#326CE5"/>
<path d="M950.149 844.534C948.567 844.534 947.278 845.821 947.278 847.405C947.278 848.988 948.567 850.275 950.149 850.275C951.732 850.275 953.021 848.988 953.021 847.405C953.021 845.821 951.732 844.534 950.149 844.534Z" fill="#326CE5"/>
<path d="M945.638 813.267C945.287 812.923 944.977 812.539 944.711 812.123C943.778 814.385 942.854 816.974 942.151 818.941C939.556 826.205 937.758 830.931 935.39 832.538C935.046 832.89 934.662 833.199 934.247 833.466C936.508 834.398 939.096 835.323 941.064 836.026C948.328 838.62 953.054 840.419 954.661 842.787C955.013 843.13 955.323 843.514 955.589 843.929C956.522 841.668 957.446 839.08 958.149 837.112C960.743 829.848 962.541 825.122 964.909 823.515C965.253 823.163 965.637 822.853 966.053 822.587C963.792 821.656 961.203 820.73 959.235 820.027C951.972 817.433 947.245 815.635 945.638 813.267Z" fill="#326CE5"/>
<path d="M950.149 811.52C951.732 811.52 953.021 810.231 953.021 808.648C953.021 807.066 951.732 805.778 950.149 805.778C948.567 805.778 947.278 807.066 947.278 808.648C947.278 810.231 948.567 811.52 950.149 811.52Z" fill="#326CE5"/>
<path d="M1007.82 834.933C1007.62 834.74 1007.48 834.484 1007.4 834.164C1007.31 833.842 1007.27 833.436 1007.27 832.943V812.886L1004.29 813.4V833.424C1004.29 835.008 1004.67 836.175 1005.44 836.923C1006.21 837.672 1007.52 838.068 1009.36 838.11L1009.77 835.607C1009.3 835.543 1008.91 835.463 1008.59 835.367C1008.27 835.27 1008.01 835.126 1007.82 834.933Z" fill="#326CE5"/>
<path d="M1015.36 827.841C1015.42 827.263 1015.55 826.696 1015.76 826.14C1015.96 825.583 1016.24 825.092 1016.61 824.663C1016.97 824.236 1017.42 823.888 1017.94 823.62C1018.47 823.353 1019.07 823.219 1019.75 823.219C1020.97 823.219 1021.93 823.652 1022.63 824.519C1023.32 825.386 1023.66 826.494 1023.64 827.841H1015.36ZM1019.79 820.685C1018.82 820.685 1017.88 820.866 1016.96 821.229C1016.04 821.593 1015.23 822.14 1014.52 822.866C1013.82 823.594 1013.25 824.509 1012.82 825.611C1012.39 826.713 1012.18 828.001 1012.18 829.478C1012.18 830.74 1012.35 831.9 1012.68 832.96C1013.01 834.018 1013.52 834.933 1014.2 835.703C1014.89 836.474 1015.76 837.078 1016.82 837.516C1017.88 837.955 1019.13 838.175 1020.59 838.175C1021.74 838.175 1022.78 838.067 1023.69 837.853C1024.59 837.64 1025.23 837.436 1025.59 837.244L1025.18 834.74C1024.81 834.912 1024.27 835.088 1023.56 835.27C1022.84 835.452 1021.96 835.543 1020.91 835.543C1019.05 835.543 1017.68 835.093 1016.8 834.194C1015.92 833.296 1015.42 831.981 1015.29 830.247H1026.72C1026.74 830.076 1026.75 829.889 1026.75 829.686V829.189C1026.75 826.323 1026.15 824.188 1024.95 822.786C1023.75 821.386 1022.03 820.685 1019.79 820.685Z" fill="#326CE5"/>
<path d="M1039.94 835.414C1039.58 835.501 1039.12 835.56 1038.58 835.592C1038.03 835.623 1037.41 835.639 1036.7 835.639C1035.52 835.639 1034.59 835.431 1033.91 835.013C1033.22 834.597 1032.88 833.854 1032.88 832.784C1032.88 832.206 1033.02 831.74 1033.3 831.388C1033.57 831.034 1033.92 830.757 1034.34 830.553C1034.76 830.35 1035.22 830.216 1035.72 830.152C1036.22 830.088 1036.7 830.055 1037.15 830.055C1037.83 830.055 1038.42 830.093 1038.9 830.167C1039.38 830.243 1039.73 830.335 1039.94 830.44V835.414ZM1041.46 822.466C1040.96 821.899 1040.3 821.46 1039.47 821.149C1038.65 820.839 1037.64 820.685 1036.44 820.685C1035.39 820.685 1034.42 820.764 1033.52 820.926C1032.62 821.086 1031.98 821.252 1031.6 821.423L1031.95 823.894C1032.31 823.744 1032.86 823.601 1033.6 823.46C1034.34 823.322 1035.2 823.252 1036.19 823.252C1036.96 823.252 1037.58 823.364 1038.06 823.589C1038.54 823.814 1038.92 824.113 1039.2 824.488C1039.48 824.863 1039.67 825.29 1039.78 825.771C1039.89 826.252 1039.94 826.739 1039.94 827.231V828.066C1039.85 828.045 1039.7 828.012 1039.49 827.969C1039.28 827.927 1039.02 827.878 1038.74 827.826C1038.45 827.772 1038.14 827.73 1037.82 827.697C1037.5 827.664 1037.19 827.649 1036.89 827.649C1035.95 827.649 1035.05 827.744 1034.2 827.937C1033.34 828.13 1032.59 828.43 1031.95 828.836C1031.31 829.243 1030.8 829.778 1030.42 830.44C1030.05 831.104 1029.86 831.895 1029.86 832.816C1029.86 833.778 1030.02 834.602 1030.34 835.287C1030.67 835.972 1031.12 836.522 1031.69 836.939C1032.27 837.357 1032.95 837.661 1033.75 837.854C1034.54 838.046 1035.4 838.143 1036.35 838.143C1037.01 838.143 1037.68 838.116 1038.35 838.063C1039.02 838.009 1039.65 837.95 1040.23 837.886C1040.81 837.821 1041.32 837.753 1041.79 837.678C1042.25 837.602 1042.6 837.545 1042.86 837.502V827.071C1042.86 826.13 1042.75 825.269 1042.54 824.488C1042.33 823.706 1041.97 823.033 1041.46 822.466Z" fill="#326CE5"/>
<path d="M1055.83 820.925C1055.5 820.872 1055.18 820.829 1054.85 820.797C1054.51 820.765 1054.22 820.749 1053.96 820.749C1052.66 820.749 1051.48 820.861 1050.43 821.085C1049.38 821.31 1048.51 821.551 1047.8 821.808V837.789H1050.79V823.765C1050.96 823.722 1051.32 823.642 1051.86 823.525C1052.41 823.408 1052.96 823.348 1053.51 823.348C1054.37 823.348 1055.07 823.408 1055.62 823.525C1056.16 823.642 1056.55 823.745 1056.79 823.83L1057.3 821.23C1057.17 821.188 1056.97 821.139 1056.71 821.085C1056.44 821.033 1056.15 820.979 1055.83 820.925Z" fill="#326CE5"/>
<path d="M1072.24 822.883C1071.71 822.209 1071.01 821.684 1070.14 821.311C1069.26 820.936 1068.16 820.75 1066.83 820.75C1065.36 820.75 1064.05 820.845 1062.92 821.038C1061.78 821.231 1060.87 821.412 1060.19 821.584V837.79H1063.17V823.701C1063.28 823.681 1063.46 823.648 1063.7 823.606C1063.95 823.563 1064.23 823.525 1064.54 823.493C1064.85 823.46 1065.17 823.434 1065.52 823.413C1065.86 823.391 1066.19 823.381 1066.51 823.381C1067.3 823.381 1067.97 823.481 1068.5 823.685C1069.04 823.889 1069.46 824.215 1069.78 824.663C1070.11 825.113 1070.33 825.703 1070.47 826.429C1070.61 827.157 1070.68 828.033 1070.68 829.06V837.79H1073.67V828.419C1073.67 827.285 1073.56 826.247 1073.35 825.306C1073.13 824.365 1072.76 823.557 1072.24 822.883Z" fill="#326CE5"/>
<path d="M1091.19 832.871C1090.55 832.014 1089.88 831.183 1089.2 830.38C1088.51 829.577 1087.85 828.885 1087.21 828.306C1088.49 827.046 1089.67 825.824 1090.76 824.639C1091.84 823.455 1092.94 822.211 1094.08 820.909H1088.39C1088.09 821.271 1087.73 821.696 1087.32 822.185C1086.9 822.675 1086.46 823.19 1085.99 823.733C1085.52 824.275 1085.03 824.823 1084.53 825.375C1084.03 825.929 1083.54 826.461 1083.07 826.97V812.887L1078.29 813.656V837.789H1083.07V830.39C1083.6 830.821 1084.14 831.345 1084.69 831.968C1085.23 832.588 1085.75 833.238 1086.24 833.912C1086.73 834.589 1087.2 835.264 1087.63 835.939C1088.07 836.616 1088.46 837.232 1088.8 837.789H1094.3C1093.94 837.082 1093.49 836.3 1092.95 835.443C1092.42 834.586 1091.83 833.728 1091.19 832.871Z" fill="#326CE5"/>
<path d="M1106.18 833.583C1105.66 834.12 1104.85 834.388 1103.74 834.388C1103.16 834.388 1102.67 834.303 1102.26 834.131C1101.85 833.959 1101.52 833.744 1101.27 833.487C1101.01 833.23 1100.82 832.946 1100.7 832.636C1100.59 832.325 1100.53 832.04 1100.53 831.782C1100.53 830.945 1100.73 830.227 1101.14 829.626C1101.54 829.026 1102.05 828.501 1102.65 828.05C1103.24 828.242 1103.81 828.452 1104.33 828.678C1104.85 828.903 1105.31 829.16 1105.69 829.449C1106.08 829.738 1106.38 830.077 1106.61 830.463C1106.83 830.848 1106.95 831.288 1106.95 831.782C1106.95 832.447 1106.69 833.047 1106.18 833.583ZM1101.17 820.489C1101.28 820.211 1101.44 819.949 1101.67 819.705C1101.89 819.459 1102.17 819.261 1102.52 819.112C1102.86 818.963 1103.27 818.888 1103.74 818.888C1104.23 818.888 1104.65 818.967 1104.99 819.128C1105.33 819.288 1105.61 819.486 1105.84 819.719C1106.06 819.955 1106.22 820.205 1106.32 820.472C1106.42 820.739 1106.46 820.989 1106.46 821.224C1106.46 822.035 1106.28 822.717 1105.92 823.272C1105.55 823.827 1105.03 824.318 1104.35 824.744C1103.13 824.318 1102.27 823.805 1101.76 823.208C1101.26 822.612 1101.01 821.971 1101.01 821.288C1101.01 821.032 1101.06 820.766 1101.17 820.489ZM1108.23 826.06C1109.04 825.548 1109.72 824.847 1110.27 823.961C1110.81 823.075 1111.09 822.119 1111.09 821.093C1111.09 820.387 1110.95 819.677 1110.68 818.963C1110.42 818.247 1109.98 817.6 1109.38 817.024C1108.79 816.447 1108.02 815.972 1107.09 815.598C1106.16 815.224 1105.04 815.036 1103.74 815.036C1102.62 815.036 1101.61 815.214 1100.7 815.566C1099.79 815.919 1099.02 816.388 1098.38 816.976C1097.74 817.562 1097.24 818.253 1096.89 819.043C1096.53 819.833 1096.36 820.655 1096.36 821.511C1096.36 822.642 1096.57 823.572 1097.01 824.298C1097.45 825.025 1098.13 825.762 1099.05 826.509C1098.62 826.831 1098.22 827.174 1097.85 827.538C1097.47 827.901 1097.14 828.303 1096.84 828.742C1096.54 829.182 1096.3 829.67 1096.13 830.205C1095.96 830.741 1095.87 831.33 1095.87 831.973C1095.87 832.595 1096 833.274 1096.26 834.013C1096.52 834.751 1096.95 835.432 1097.56 836.054C1098.17 836.676 1098.97 837.195 1099.97 837.612C1100.96 838.03 1102.21 838.239 1103.7 838.239C1105.01 838.239 1106.16 838.072 1107.16 837.741C1108.15 837.409 1108.98 836.943 1109.64 836.343C1110.3 835.743 1110.8 835.042 1111.13 834.239C1111.47 833.435 1111.63 832.55 1111.63 831.587C1111.63 830.43 1111.37 829.419 1110.85 828.55C1110.32 827.683 1109.45 826.852 1108.23 826.06Z" fill="#326CE5"/>
<path d="M1126.86 831.322C1126.7 830.789 1126.42 830.303 1126.02 829.865C1125.63 829.428 1125.09 829.02 1124.4 828.643C1123.72 828.267 1122.85 827.883 1121.81 827.494C1121.29 827.3 1120.87 827.123 1120.54 826.96C1120.2 826.799 1119.94 826.648 1119.75 826.509C1119.56 826.37 1119.43 826.226 1119.37 826.076C1119.3 825.927 1119.27 825.755 1119.27 825.562C1119.27 824.729 1120.02 824.311 1121.52 824.311C1122.33 824.311 1123.06 824.387 1123.71 824.535C1124.37 824.685 1124.97 824.856 1125.53 825.049L1126.36 821.326C1125.81 821.112 1125.06 820.915 1124.11 820.733C1123.17 820.551 1122.19 820.46 1121.16 820.46C1119.11 820.46 1117.49 820.92 1116.32 821.841C1115.14 822.761 1114.55 824.011 1114.55 825.594C1114.55 826.408 1114.67 827.103 1114.91 827.681C1115.14 828.258 1115.47 828.755 1115.9 829.173C1116.33 829.59 1116.85 829.949 1117.46 830.247C1118.07 830.548 1118.74 830.837 1119.49 831.115C1120.46 831.478 1121.17 831.805 1121.64 832.093C1122.12 832.382 1122.35 832.718 1122.35 833.104C1122.35 833.596 1122.17 833.929 1121.81 834.1C1121.44 834.271 1120.82 834.356 1119.94 834.356C1119.11 834.356 1118.26 834.265 1117.41 834.083C1116.55 833.901 1115.72 833.649 1114.91 833.328L1114.1 837.211C1114.49 837.383 1115.18 837.597 1116.17 837.853C1117.17 838.11 1118.41 838.239 1119.91 838.239C1122.2 838.239 1123.97 837.811 1125.22 836.958C1126.47 836.104 1127.1 834.845 1127.1 833.18C1127.1 832.476 1127.02 831.856 1126.86 831.322Z" fill="#326CE5"/>
</g>
<defs>
<filter id="filter0_d_1_2" x="105.48" y="214.118" width="961.493" height="293.947" filterUnits="userSpaceOnUse" color-interpolation-filters="sRGB">
<feFlood flood-opacity="0" result="BackgroundImageFix"/>
<feColorMatrix in="SourceAlpha" type="matrix" values="0 0 0 0 0 0 0 0 0 0 0 0 0 0 0 0 0 0 127 0" result="hardAlpha"/>
<feOffset dy="4"/>
<feGaussianBlur stdDeviation="2"/>
<feComposite in2="hardAlpha" operator="out"/>
<feColorMatrix type="matrix" values="0 0 0 0 0 0 0 0 0 0 0 0 0 0 0 0 0 0 0.25 0"/>
<feBlend mode="normal" in2="BackgroundImageFix" result="effect1_dropShadow_1_2"/>
<feBlend mode="normal" in="SourceGraphic" in2="effect1_dropShadow_1_2" result="shape"/>
</filter>
<radialGradient id="paint0_radial_1_2" cx="0" cy="0" r="1" gradientUnits="userSpaceOnUse" gradientTransform="translate(692 900) rotate(90) scale(179 764)">
<stop stop-color="white"/>
<stop offset="1" stop-color="white" stop-opacity="0"/>
</radialGradient>
<clipPath id="clip0_1_2">
<rect width="1200" height="900" fill="white"/>
</clipPath>
</defs>
</svg>
