<svg width="1200" height="900" viewBox="0 0 1200 900" fill="none" xmlns="http://www.w3.org/2000/svg">
<rect width="1200" height="900" fill="white"/>
<path d="M73.0597 371.273H90.2827L106.866 402.594H107.577L124.161 371.273H141.384L114.857 418.29V444H99.5866V418.29L73.0597 371.273ZM160.085 445.065C154.569 445.065 149.799 443.893 145.774 441.55C141.773 439.182 138.684 435.892 136.506 431.678C134.328 427.44 133.239 422.527 133.239 416.94C133.239 411.306 134.328 406.382 136.506 402.168C138.684 397.93 141.773 394.639 145.774 392.295C149.799 389.928 154.569 388.744 160.085 388.744C165.601 388.744 170.36 389.928 174.361 392.295C178.386 394.639 181.487 397.93 183.665 402.168C185.843 406.382 186.932 411.306 186.932 416.94C186.932 422.527 185.843 427.44 183.665 431.678C181.487 435.892 178.386 439.182 174.361 441.55C170.36 443.893 165.601 445.065 160.085 445.065ZM160.156 433.347C162.666 433.347 164.761 432.636 166.442 431.216C168.123 429.772 169.389 427.807 170.242 425.321C171.118 422.835 171.556 420.006 171.556 416.834C171.556 413.661 171.118 410.832 170.242 408.347C169.389 405.861 168.123 403.896 166.442 402.452C164.761 401.008 162.666 400.286 160.156 400.286C157.623 400.286 155.493 401.008 153.764 402.452C152.06 403.896 150.77 405.861 149.894 408.347C149.041 410.832 148.615 413.661 148.615 416.834C148.615 420.006 149.041 422.835 149.894 425.321C150.77 427.807 152.06 429.772 153.764 431.216C155.493 432.636 157.623 433.347 160.156 433.347ZM229.116 420.776V389.455H244.244V444H229.719V434.092H229.151C227.92 437.288 225.872 439.857 223.008 441.798C220.167 443.74 216.699 444.71 212.603 444.71C208.957 444.71 205.749 443.882 202.979 442.224C200.209 440.567 198.043 438.212 196.481 435.158C194.942 432.104 194.161 428.446 194.137 424.185V389.455H209.265V421.486C209.289 424.705 210.153 427.25 211.857 429.121C213.562 430.991 215.846 431.926 218.711 431.926C220.534 431.926 222.238 431.512 223.825 430.683C225.411 429.831 226.689 428.576 227.66 426.919C228.654 425.262 229.139 423.214 229.116 420.776ZM253.713 444V389.455H268.379V398.972H268.947C269.941 395.586 271.61 393.029 273.954 391.301C276.298 389.549 278.997 388.673 282.051 388.673C282.808 388.673 283.625 388.721 284.501 388.815C285.377 388.91 286.146 389.04 286.809 389.206V402.629C286.099 402.416 285.116 402.227 283.862 402.061C282.607 401.895 281.459 401.812 280.417 401.812C278.192 401.812 276.203 402.298 274.451 403.268C272.723 404.215 271.35 405.541 270.332 407.246C269.338 408.95 268.84 410.915 268.84 413.141V444H253.713ZM337.157 445.065C331.641 445.065 326.87 443.893 322.846 441.55C318.845 439.182 315.755 435.892 313.577 431.678C311.399 427.44 310.31 422.527 310.31 416.94C310.31 411.306 311.399 406.382 313.577 402.168C315.755 397.93 318.845 394.639 322.846 392.295C326.87 389.928 331.641 388.744 337.157 388.744C342.673 388.744 347.431 389.928 351.432 392.295C355.457 394.639 358.558 397.93 360.736 402.168C362.914 406.382 364.003 411.306 364.003 416.94C364.003 422.527 362.914 427.44 360.736 431.678C358.558 435.892 355.457 439.182 351.432 441.55C347.431 443.893 342.673 445.065 337.157 445.065ZM337.228 433.347C339.737 433.347 341.832 432.636 343.513 431.216C345.194 429.772 346.461 427.807 347.313 425.321C348.189 422.835 348.627 420.006 348.627 416.834C348.627 413.661 348.189 410.832 347.313 408.347C346.461 405.861 345.194 403.896 343.513 402.452C341.832 401.008 339.737 400.286 337.228 400.286C334.695 400.286 332.564 401.008 330.836 402.452C329.131 403.896 327.841 405.861 326.965 408.347C326.113 410.832 325.687 413.661 325.687 416.834C325.687 420.006 326.113 422.835 326.965 425.321C327.841 427.807 329.131 429.772 330.836 431.216C332.564 432.636 334.695 433.347 337.228 433.347ZM371.208 464.455V389.455H386.123V398.616H386.798C387.461 397.149 388.42 395.657 389.674 394.142C390.953 392.603 392.61 391.325 394.646 390.307C396.706 389.265 399.262 388.744 402.316 388.744C406.294 388.744 409.963 389.786 413.325 391.869C416.687 393.929 419.374 397.042 421.386 401.209C423.398 405.352 424.404 410.548 424.404 416.798C424.404 422.883 423.422 428.02 421.457 432.21C419.516 436.377 416.864 439.537 413.502 441.692C410.164 443.822 406.424 444.888 402.281 444.888C399.345 444.888 396.848 444.402 394.788 443.432C392.752 442.461 391.083 441.242 389.781 439.774C388.479 438.283 387.484 436.779 386.798 435.264H386.336V464.455H371.208ZM386.017 416.727C386.017 419.971 386.466 422.8 387.366 425.214C388.266 427.629 389.568 429.511 391.272 430.861C392.977 432.187 395.048 432.849 397.487 432.849C399.949 432.849 402.032 432.175 403.737 430.825C405.441 429.452 406.732 427.558 407.608 425.143C408.507 422.705 408.957 419.9 408.957 416.727C408.957 413.579 408.519 410.809 407.643 408.418C406.767 406.027 405.477 404.156 403.772 402.807C402.068 401.457 399.973 400.783 397.487 400.783C395.025 400.783 392.941 401.434 391.237 402.736C389.556 404.038 388.266 405.884 387.366 408.276C386.466 410.667 386.017 413.484 386.017 416.727ZM460.871 389.455V400.818H428.023V389.455H460.871ZM435.48 376.386H450.608V427.239C450.608 428.635 450.821 429.724 451.247 430.506C451.673 431.263 452.265 431.796 453.023 432.104C453.804 432.411 454.704 432.565 455.722 432.565C456.432 432.565 457.142 432.506 457.852 432.388C458.563 432.246 459.107 432.139 459.486 432.068L461.865 443.325C461.108 443.562 460.042 443.834 458.669 444.142C457.296 444.473 455.627 444.675 453.662 444.746C450.016 444.888 446.82 444.402 444.074 443.29C441.351 442.177 439.233 440.449 437.717 438.105C436.202 435.761 435.457 432.802 435.48 429.227V376.386ZM468.094 444V389.455H483.222V444H468.094ZM475.693 382.423C473.444 382.423 471.515 381.678 469.905 380.186C468.319 378.671 467.525 376.86 467.525 374.753C467.525 372.67 468.319 370.882 469.905 369.391C471.515 367.875 473.444 367.118 475.693 367.118C477.942 367.118 479.86 367.875 481.446 369.391C483.056 370.882 483.861 372.67 483.861 374.753C483.861 376.86 483.056 378.671 481.446 380.186C479.86 381.678 477.942 382.423 475.693 382.423ZM517.353 445.065C511.837 445.065 507.067 443.893 503.042 441.55C499.041 439.182 495.952 435.892 493.774 431.678C491.596 427.44 490.506 422.527 490.506 416.94C490.506 411.306 491.596 406.382 493.774 402.168C495.952 397.93 499.041 394.639 503.042 392.295C507.067 389.928 511.837 388.744 517.353 388.744C522.869 388.744 527.628 389.928 531.629 392.295C535.653 394.639 538.755 397.93 540.933 402.168C543.111 406.382 544.2 411.306 544.2 416.94C544.2 422.527 543.111 427.44 540.933 431.678C538.755 435.892 535.653 439.182 531.629 441.55C527.628 443.893 522.869 445.065 517.353 445.065ZM517.424 433.347C519.934 433.347 522.029 432.636 523.71 431.216C525.39 429.772 526.657 427.807 527.509 425.321C528.385 422.835 528.823 420.006 528.823 416.834C528.823 413.661 528.385 410.832 527.509 408.347C526.657 405.861 525.39 403.896 523.71 402.452C522.029 401.008 519.934 400.286 517.424 400.286C514.891 400.286 512.76 401.008 511.032 402.452C509.328 403.896 508.037 405.861 507.161 408.347C506.309 410.832 505.883 413.661 505.883 416.834C505.883 420.006 506.309 422.835 507.161 425.321C508.037 427.807 509.328 429.772 511.032 431.216C512.76 432.636 514.891 433.347 517.424 433.347ZM566.533 412.466V444H551.405V389.455H565.822V399.078H566.462C567.669 395.906 569.693 393.396 572.534 391.55C575.375 389.679 578.82 388.744 582.868 388.744C586.656 388.744 589.958 389.573 592.775 391.23C595.593 392.887 597.783 395.255 599.345 398.332C600.908 401.386 601.689 405.032 601.689 409.27V444H586.561V411.969C586.585 408.631 585.732 406.027 584.004 404.156C582.276 402.262 579.897 401.315 576.866 401.315C574.83 401.315 573.031 401.753 571.469 402.629C569.93 403.505 568.722 404.784 567.846 406.464C566.994 408.122 566.556 410.122 566.533 412.466ZM656.364 405.009L642.514 405.861C642.278 404.677 641.769 403.612 640.987 402.665C640.206 401.694 639.176 400.925 637.898 400.357C636.643 399.765 635.14 399.469 633.388 399.469C631.044 399.469 629.067 399.966 627.457 400.96C625.848 401.931 625.043 403.233 625.043 404.866C625.043 406.169 625.564 407.269 626.605 408.169C627.647 409.069 629.434 409.791 631.967 410.335L641.84 412.324C647.143 413.413 651.096 415.165 653.7 417.58C656.305 419.994 657.607 423.167 657.607 427.097C657.607 430.671 656.553 433.808 654.446 436.507C652.363 439.206 649.498 441.313 645.852 442.828C642.23 444.32 638.052 445.065 633.317 445.065C626.096 445.065 620.343 443.562 616.058 440.555C611.797 437.525 609.299 433.406 608.565 428.197L623.445 427.416C623.894 429.618 624.983 431.299 626.712 432.459C628.44 433.595 630.653 434.163 633.352 434.163C636.004 434.163 638.135 433.654 639.744 432.636C641.378 431.595 642.206 430.257 642.23 428.624C642.206 427.25 641.626 426.126 640.49 425.25C639.354 424.35 637.602 423.664 635.234 423.19L625.788 421.308C620.462 420.243 616.496 418.396 613.892 415.768C611.312 413.141 610.021 409.791 610.021 405.719C610.021 402.215 610.968 399.196 612.862 396.663C614.78 394.13 617.467 392.177 620.923 390.804C624.403 389.431 628.475 388.744 633.139 388.744C640.028 388.744 645.45 390.2 649.403 393.112C653.381 396.024 655.701 399.99 656.364 405.009Z" fill="black"/>
<rect x="71" y="498" width="1038" height="19" fill="black"/>
<path d="M105.312 587.392C105.04 584.972 103.915 583.097 101.938 581.767C99.9602 580.42 97.4716 579.747 94.4716 579.747C92.3239 579.747 90.4659 580.088 88.8977 580.77C87.3295 581.435 86.1108 582.355 85.2415 583.531C84.3892 584.69 83.9631 586.011 83.9631 587.494C83.9631 588.739 84.2528 589.812 84.8324 590.716C85.429 591.619 86.2045 592.378 87.1591 592.991C88.1307 593.588 89.1705 594.091 90.2784 594.5C91.3864 594.892 92.4517 595.216 93.4744 595.472L98.5881 596.801C100.259 597.21 101.972 597.764 103.727 598.463C105.483 599.162 107.111 600.082 108.611 601.224C110.111 602.366 111.321 603.781 112.241 605.469C113.179 607.156 113.648 609.176 113.648 611.528C113.648 614.494 112.881 617.128 111.347 619.429C109.83 621.73 107.622 623.545 104.724 624.875C101.844 626.205 98.358 626.869 94.267 626.869C90.3466 626.869 86.9545 626.247 84.0909 625.003C81.2273 623.759 78.9858 621.994 77.3665 619.71C75.7472 617.409 74.8523 614.682 74.6818 611.528H82.608C82.7614 613.42 83.375 614.997 84.4489 616.259C85.5398 617.503 86.929 618.432 88.6165 619.045C90.321 619.642 92.1875 619.94 94.2159 619.94C96.4489 619.94 98.4347 619.591 100.173 618.892C101.929 618.176 103.31 617.187 104.315 615.926C105.321 614.648 105.824 613.156 105.824 611.452C105.824 609.901 105.381 608.631 104.494 607.642C103.625 606.653 102.44 605.835 100.94 605.188C99.4574 604.54 97.7784 603.969 95.9034 603.474L89.7159 601.787C85.5227 600.645 82.1989 598.966 79.7443 596.75C77.3068 594.534 76.0881 591.602 76.0881 587.955C76.0881 584.937 76.9063 582.304 78.5426 580.054C80.179 577.804 82.3949 576.057 85.1903 574.812C87.9858 573.551 91.1392 572.92 94.6506 572.92C98.196 572.92 101.324 573.543 104.034 574.787C106.761 576.031 108.909 577.744 110.477 579.926C112.045 582.091 112.864 584.58 112.932 587.392H105.312ZM128.225 602.682V626H120.58V573.636H128.123V593.119H128.609C129.529 591.006 130.936 589.327 132.828 588.082C134.72 586.838 137.191 586.216 140.242 586.216C142.936 586.216 145.288 586.77 147.299 587.878C149.328 588.986 150.896 590.639 152.004 592.838C153.129 595.02 153.691 597.747 153.691 601.02V626H146.046V601.94C146.046 599.06 145.305 596.827 143.822 595.241C142.339 593.639 140.276 592.838 137.634 592.838C135.828 592.838 134.208 593.222 132.776 593.989C131.362 594.756 130.245 595.881 129.427 597.364C128.626 598.83 128.225 600.602 128.225 602.682ZM173.427 626.869C170.939 626.869 168.689 626.409 166.677 625.489C164.666 624.551 163.072 623.196 161.896 621.423C160.737 619.651 160.157 617.477 160.157 614.903C160.157 612.687 160.583 610.864 161.436 609.432C162.288 608 163.439 606.866 164.887 606.031C166.336 605.196 167.956 604.565 169.745 604.139C171.535 603.713 173.359 603.389 175.217 603.168C177.569 602.895 179.478 602.673 180.944 602.503C182.41 602.315 183.475 602.017 184.14 601.608C184.805 601.199 185.137 600.534 185.137 599.614V599.435C185.137 597.202 184.507 595.472 183.245 594.244C182.001 593.017 180.143 592.403 177.671 592.403C175.098 592.403 173.069 592.974 171.586 594.116C170.12 595.241 169.106 596.494 168.544 597.875L161.359 596.239C162.211 593.852 163.456 591.926 165.092 590.46C166.745 588.977 168.646 587.903 170.794 587.239C172.941 586.557 175.2 586.216 177.569 586.216C179.137 586.216 180.799 586.403 182.555 586.778C184.328 587.136 185.981 587.801 187.515 588.773C189.066 589.744 190.336 591.134 191.325 592.94C192.314 594.73 192.808 597.057 192.808 599.92V626H185.342V620.631H185.035C184.541 621.619 183.799 622.591 182.811 623.545C181.822 624.5 180.552 625.293 179.001 625.923C177.45 626.554 175.592 626.869 173.427 626.869ZM175.089 620.733C177.203 620.733 179.01 620.315 180.51 619.48C182.027 618.645 183.177 617.554 183.961 616.207C184.762 614.844 185.163 613.386 185.163 611.835V606.773C184.89 607.045 184.362 607.301 183.578 607.54C182.811 607.761 181.933 607.957 180.944 608.128C179.956 608.281 178.992 608.426 178.055 608.562C177.117 608.682 176.333 608.784 175.703 608.869C174.22 609.057 172.865 609.372 171.637 609.815C170.427 610.259 169.456 610.898 168.723 611.733C168.007 612.551 167.649 613.642 167.649 615.006C167.649 616.898 168.348 618.33 169.745 619.301C171.143 620.256 172.924 620.733 175.089 620.733ZM201.096 626V586.727H208.485V592.966H208.894C209.61 590.852 210.871 589.19 212.678 587.98C214.502 586.753 216.564 586.139 218.866 586.139C219.343 586.139 219.905 586.156 220.553 586.19C221.218 586.224 221.738 586.267 222.113 586.318V593.631C221.806 593.545 221.26 593.452 220.476 593.349C219.692 593.23 218.908 593.17 218.124 593.17C216.317 593.17 214.706 593.554 213.292 594.321C211.894 595.071 210.786 596.119 209.968 597.466C209.15 598.795 208.741 600.312 208.741 602.017V626H201.096ZM226.834 626V586.727H234.479V626H226.834ZM230.694 580.668C229.365 580.668 228.223 580.224 227.268 579.338C226.331 578.435 225.862 577.361 225.862 576.116C225.862 574.855 226.331 573.781 227.268 572.895C228.223 571.991 229.365 571.54 230.694 571.54C232.024 571.54 233.158 571.991 234.095 572.895C235.05 573.781 235.527 574.855 235.527 576.116C235.527 577.361 235.05 578.435 234.095 579.338C233.158 580.224 232.024 580.668 230.694 580.668ZM250.514 602.682V626H242.869V586.727H250.207V593.119H250.693C251.596 591.04 253.011 589.369 254.937 588.108C256.88 586.847 259.326 586.216 262.275 586.216C264.951 586.216 267.295 586.778 269.306 587.903C271.318 589.011 272.877 590.665 273.985 592.864C275.093 595.062 275.647 597.781 275.647 601.02V626H268.002V601.94C268.002 599.094 267.261 596.869 265.778 595.267C264.295 593.648 262.258 592.838 259.667 592.838C257.894 592.838 256.318 593.222 254.937 593.989C253.573 594.756 252.491 595.881 251.69 597.364C250.906 598.83 250.514 600.602 250.514 602.682ZM300.471 641.545C297.352 641.545 294.667 641.136 292.417 640.318C290.184 639.5 288.36 638.418 286.945 637.071C285.531 635.724 284.474 634.25 283.775 632.648L290.346 629.938C290.806 630.688 291.42 631.48 292.187 632.315C292.971 633.168 294.028 633.892 295.357 634.489C296.704 635.085 298.434 635.384 300.548 635.384C303.445 635.384 305.84 634.676 307.732 633.261C309.624 631.864 310.57 629.631 310.57 626.562V618.841H310.085C309.624 619.676 308.96 620.605 308.09 621.628C307.238 622.651 306.062 623.537 304.562 624.287C303.062 625.037 301.11 625.412 298.707 625.412C295.605 625.412 292.809 624.687 290.32 623.239C287.849 621.773 285.889 619.616 284.44 616.77C283.008 613.906 282.292 610.386 282.292 606.21C282.292 602.034 282.999 598.455 284.414 595.472C285.846 592.489 287.806 590.205 290.295 588.619C292.784 587.017 295.605 586.216 298.758 586.216C301.195 586.216 303.164 586.625 304.664 587.443C306.164 588.244 307.332 589.182 308.167 590.256C309.019 591.33 309.676 592.276 310.136 593.094H310.698V586.727H318.19V626.869C318.19 630.244 317.406 633.014 315.838 635.179C314.269 637.344 312.147 638.946 309.471 639.986C306.812 641.026 303.812 641.545 300.471 641.545ZM300.394 619.071C302.593 619.071 304.451 618.56 305.968 617.537C307.502 616.497 308.661 615.014 309.445 613.088C310.247 611.145 310.647 608.818 310.647 606.108C310.647 603.466 310.255 601.139 309.471 599.128C308.687 597.116 307.536 595.548 306.019 594.423C304.502 593.281 302.627 592.71 300.394 592.71C298.093 592.71 296.176 593.307 294.642 594.5C293.107 595.676 291.948 597.278 291.164 599.307C290.397 601.335 290.014 603.602 290.014 606.108C290.014 608.682 290.406 610.94 291.19 612.884C291.974 614.827 293.133 616.344 294.667 617.435C296.218 618.526 298.127 619.071 300.394 619.071ZM343.708 626V586.727H351.097V592.966H351.506C352.222 590.852 353.483 589.19 355.29 587.98C357.114 586.753 359.177 586.139 361.478 586.139C361.955 586.139 362.518 586.156 363.165 586.19C363.83 586.224 364.35 586.267 364.725 586.318V593.631C364.418 593.545 363.873 593.452 363.089 593.349C362.304 593.23 361.52 593.17 360.736 593.17C358.929 593.17 357.319 593.554 355.904 594.321C354.506 595.071 353.398 596.119 352.58 597.466C351.762 598.795 351.353 600.312 351.353 602.017V626H343.708ZM384.966 626.793C381.097 626.793 377.764 625.966 374.969 624.312C372.19 622.642 370.043 620.298 368.525 617.281C367.025 614.247 366.275 610.693 366.275 606.619C366.275 602.597 367.025 599.051 368.525 595.983C370.043 592.915 372.156 590.52 374.866 588.798C377.594 587.077 380.781 586.216 384.429 586.216C386.645 586.216 388.793 586.582 390.872 587.315C392.952 588.048 394.818 589.199 396.472 590.767C398.125 592.335 399.429 594.372 400.383 596.878C401.338 599.366 401.815 602.392 401.815 605.955V608.665H370.597V602.938H394.324C394.324 600.926 393.915 599.145 393.097 597.594C392.278 596.026 391.128 594.79 389.645 593.886C388.179 592.983 386.457 592.531 384.48 592.531C382.332 592.531 380.457 593.06 378.855 594.116C377.27 595.156 376.043 596.52 375.173 598.207C374.321 599.878 373.895 601.693 373.895 603.653V608.128C373.895 610.753 374.355 612.986 375.275 614.827C376.213 616.668 377.517 618.074 379.187 619.045C380.858 620 382.81 620.477 385.043 620.477C386.491 620.477 387.812 620.273 389.006 619.864C390.199 619.437 391.23 618.807 392.099 617.972C392.969 617.136 393.633 616.105 394.094 614.878L401.329 616.182C400.75 618.312 399.71 620.179 398.21 621.781C396.727 623.366 394.861 624.602 392.611 625.489C390.378 626.358 387.829 626.793 384.966 626.793ZM437.832 596.315L430.903 597.543C430.613 596.656 430.153 595.812 429.522 595.011C428.908 594.21 428.073 593.554 427.016 593.043C425.96 592.531 424.639 592.276 423.053 592.276C420.889 592.276 419.082 592.761 417.633 593.733C416.184 594.687 415.46 595.923 415.46 597.44C415.46 598.753 415.945 599.81 416.917 600.611C417.889 601.412 419.457 602.068 421.622 602.58L427.86 604.011C431.474 604.847 434.167 606.134 435.94 607.872C437.712 609.611 438.599 611.869 438.599 614.648C438.599 617 437.917 619.097 436.553 620.938C435.207 622.761 433.323 624.193 430.903 625.233C428.499 626.273 425.712 626.793 422.542 626.793C418.144 626.793 414.556 625.855 411.778 623.98C408.999 622.088 407.295 619.403 406.664 615.926L414.053 614.801C414.514 616.727 415.46 618.185 416.891 619.173C418.323 620.145 420.19 620.631 422.491 620.631C424.997 620.631 426.999 620.111 428.499 619.071C429.999 618.014 430.749 616.727 430.749 615.21C430.749 613.983 430.289 612.952 429.369 612.116C428.465 611.281 427.076 610.651 425.201 610.224L418.553 608.767C414.889 607.932 412.178 606.602 410.423 604.778C408.684 602.955 407.815 600.645 407.815 597.849C407.815 595.531 408.462 593.503 409.758 591.764C411.053 590.026 412.843 588.67 415.127 587.699C417.411 586.71 420.028 586.216 422.977 586.216C427.221 586.216 430.562 587.136 432.999 588.977C435.437 590.801 437.048 593.247 437.832 596.315ZM461.652 626.793C457.97 626.793 454.757 625.949 452.013 624.261C449.269 622.574 447.138 620.213 445.621 617.179C444.104 614.145 443.345 610.599 443.345 606.543C443.345 602.469 444.104 598.906 445.621 595.855C447.138 592.804 449.269 590.435 452.013 588.747C454.757 587.06 457.97 586.216 461.652 586.216C465.334 586.216 468.547 587.06 471.291 588.747C474.036 590.435 476.166 592.804 477.683 595.855C479.201 598.906 479.959 602.469 479.959 606.543C479.959 610.599 479.201 614.145 477.683 617.179C476.166 620.213 474.036 622.574 471.291 624.261C468.547 625.949 465.334 626.793 461.652 626.793ZM461.678 620.375C464.064 620.375 466.041 619.744 467.61 618.483C469.178 617.222 470.337 615.543 471.087 613.446C471.854 611.349 472.237 609.04 472.237 606.517C472.237 604.011 471.854 601.71 471.087 599.614C470.337 597.5 469.178 595.804 467.61 594.526C466.041 593.247 464.064 592.608 461.678 592.608C459.274 592.608 457.28 593.247 455.695 594.526C454.127 595.804 452.959 597.5 452.192 599.614C451.442 601.71 451.067 604.011 451.067 606.517C451.067 609.04 451.442 611.349 452.192 613.446C452.959 615.543 454.127 617.222 455.695 618.483C457.28 619.744 459.274 620.375 461.678 620.375ZM511.476 609.713V586.727H519.146V626H511.629V619.199H511.22C510.316 621.295 508.868 623.043 506.873 624.44C504.896 625.821 502.433 626.511 499.484 626.511C496.961 626.511 494.728 625.957 492.785 624.849C490.859 623.724 489.342 622.062 488.234 619.864C487.143 617.665 486.598 614.946 486.598 611.707V586.727H494.243V610.787C494.243 613.463 494.984 615.594 496.467 617.179C497.95 618.764 499.876 619.557 502.245 619.557C503.677 619.557 505.101 619.199 506.515 618.483C507.947 617.767 509.132 616.685 510.069 615.236C511.024 613.787 511.493 611.946 511.476 609.713ZM527.523 626V586.727H534.912V592.966H535.322C536.037 590.852 537.299 589.19 539.106 587.98C540.929 586.753 542.992 586.139 545.293 586.139C545.77 586.139 546.333 586.156 546.981 586.19C547.645 586.224 548.165 586.267 548.54 586.318V593.631C548.233 593.545 547.688 593.452 546.904 593.349C546.12 593.23 545.336 593.17 544.552 593.17C542.745 593.17 541.134 593.554 539.719 594.321C538.322 595.071 537.214 596.119 536.395 597.466C535.577 598.795 535.168 600.312 535.168 602.017V626H527.523ZM568.398 626.793C564.597 626.793 561.324 625.932 558.58 624.21C555.852 622.472 553.756 620.077 552.29 617.026C550.824 613.974 550.091 610.48 550.091 606.543C550.091 602.554 550.841 599.034 552.341 595.983C553.841 592.915 555.955 590.52 558.682 588.798C561.409 587.077 564.622 586.216 568.321 586.216C571.304 586.216 573.963 586.77 576.298 587.878C578.633 588.969 580.517 590.503 581.949 592.48C583.398 594.457 584.258 596.767 584.531 599.409H577.091C576.682 597.568 575.744 595.983 574.278 594.653C572.83 593.324 570.886 592.659 568.449 592.659C566.318 592.659 564.452 593.222 562.849 594.347C561.264 595.455 560.028 597.04 559.142 599.102C558.256 601.148 557.812 603.568 557.812 606.364C557.812 609.227 558.247 611.699 559.116 613.778C559.986 615.858 561.213 617.469 562.798 618.611C564.401 619.753 566.284 620.324 568.449 620.324C569.898 620.324 571.21 620.06 572.386 619.531C573.58 618.986 574.577 618.21 575.378 617.205C576.196 616.199 576.767 614.989 577.091 613.574H584.531C584.258 616.114 583.432 618.381 582.051 620.375C580.67 622.369 578.821 623.937 576.503 625.08C574.202 626.222 571.5 626.793 568.398 626.793ZM607.738 626.793C603.869 626.793 600.536 625.966 597.741 624.312C594.962 622.642 592.815 620.298 591.298 617.281C589.798 614.247 589.048 610.693 589.048 606.619C589.048 602.597 589.798 599.051 591.298 595.983C592.815 592.915 594.928 590.52 597.639 588.798C600.366 587.077 603.553 586.216 607.201 586.216C609.417 586.216 611.565 586.582 613.644 587.315C615.724 588.048 617.59 589.199 619.244 590.767C620.897 592.335 622.201 594.372 623.156 596.878C624.11 599.366 624.587 602.392 624.587 605.955V608.665H593.369V602.938H617.096C617.096 600.926 616.687 599.145 615.869 597.594C615.051 596.026 613.9 594.79 612.417 593.886C610.951 592.983 609.229 592.531 607.252 592.531C605.104 592.531 603.229 593.06 601.627 594.116C600.042 595.156 598.815 596.52 597.945 598.207C597.093 599.878 596.667 601.693 596.667 603.653V608.128C596.667 610.753 597.127 612.986 598.048 614.827C598.985 616.668 600.289 618.074 601.96 619.045C603.63 620 605.582 620.477 607.815 620.477C609.264 620.477 610.585 620.273 611.778 619.864C612.971 619.437 614.002 618.807 614.872 617.972C615.741 617.136 616.406 616.105 616.866 614.878L624.102 616.182C623.522 618.312 622.482 620.179 620.982 621.781C619.499 623.366 617.633 624.602 615.383 625.489C613.15 626.358 610.602 626.793 607.738 626.793ZM660.604 596.315L653.675 597.543C653.385 596.656 652.925 595.812 652.294 595.011C651.681 594.21 650.845 593.554 649.789 593.043C648.732 592.531 647.411 592.276 645.826 592.276C643.661 592.276 641.854 592.761 640.405 593.733C638.956 594.687 638.232 595.923 638.232 597.44C638.232 598.753 638.718 599.81 639.689 600.611C640.661 601.412 642.229 602.068 644.394 602.58L650.632 604.011C654.246 604.847 656.939 606.134 658.712 607.872C660.485 609.611 661.371 611.869 661.371 614.648C661.371 617 660.689 619.097 659.326 620.938C657.979 622.761 656.095 624.193 653.675 625.233C651.272 626.273 648.485 626.793 645.314 626.793C640.916 626.793 637.328 625.855 634.55 623.98C631.772 622.088 630.067 619.403 629.436 615.926L636.826 614.801C637.286 616.727 638.232 618.185 639.664 619.173C641.095 620.145 642.962 620.631 645.263 620.631C647.769 620.631 649.772 620.111 651.272 619.071C652.772 618.014 653.522 616.727 653.522 615.21C653.522 613.983 653.061 612.952 652.141 612.116C651.237 611.281 649.848 610.651 647.973 610.224L641.326 608.767C637.661 607.932 634.951 606.602 633.195 604.778C631.456 602.955 630.587 600.645 630.587 597.849C630.587 595.531 631.235 593.503 632.53 591.764C633.826 590.026 635.615 588.67 637.899 587.699C640.183 586.71 642.8 586.216 645.749 586.216C649.993 586.216 653.334 587.136 655.772 588.977C658.209 590.801 659.82 593.247 660.604 596.315Z" fill="black"/>
</svg>
