<svg width="1200" height="900" viewBox="0 0 1200 900" fill="none" xmlns="http://www.w3.org/2000/svg">
<rect width="1200" height="900" fill="white"/>
<rect x="71" y="159" width="1038" height="8" fill="black"/>
<path d="M74.0664 320.147V309.2H125.643V320.147H106.417V372H93.2928V320.147H74.0664ZM145.592 372.92C140.829 372.92 136.71 371.908 133.235 369.884C129.78 367.84 127.112 364.998 125.231 361.36C123.351 357.7 122.41 353.458 122.41 348.634C122.41 343.769 123.351 339.517 125.231 335.878C127.112 332.218 129.78 329.377 133.235 327.353C136.71 325.309 140.829 324.287 145.592 324.287C150.356 324.287 154.465 325.309 157.919 327.353C161.395 329.377 164.073 332.218 165.953 335.878C167.834 339.517 168.774 343.769 168.774 348.634C168.774 353.458 167.834 357.7 165.953 361.36C164.073 364.998 161.395 367.84 157.919 369.884C154.465 371.908 150.356 372.92 145.592 372.92ZM145.654 362.801C147.821 362.801 149.63 362.188 151.081 360.961C152.533 359.714 153.626 358.017 154.362 355.871C155.119 353.724 155.497 351.281 155.497 348.542C155.497 345.803 155.119 343.36 154.362 341.213C153.626 339.067 152.533 337.37 151.081 336.123C149.63 334.876 147.821 334.253 145.654 334.253C143.466 334.253 141.627 334.876 140.134 336.123C138.662 337.37 137.548 339.067 136.792 341.213C136.056 343.36 135.688 345.803 135.688 348.542C135.688 351.281 136.056 353.724 136.792 355.871C137.548 358.017 138.662 359.714 140.134 360.961C141.627 362.188 143.466 362.801 145.654 362.801ZM195.799 372.92C191.036 372.92 186.917 371.908 183.442 369.884C179.987 367.84 177.319 364.998 175.438 361.36C173.558 357.7 172.617 353.458 172.617 348.634C172.617 343.769 173.558 339.517 175.438 335.878C177.319 332.218 179.987 329.377 183.442 327.353C186.917 325.309 191.036 324.287 195.799 324.287C200.562 324.287 204.671 325.309 208.126 327.353C211.601 329.377 214.279 332.218 216.16 335.878C218.041 339.517 218.981 343.769 218.981 348.634C218.981 353.458 218.041 357.7 216.16 361.36C214.279 364.998 211.601 367.84 208.126 369.884C204.671 371.908 200.562 372.92 195.799 372.92ZM195.861 362.801C198.028 362.801 199.837 362.188 201.288 360.961C202.74 359.714 203.833 358.017 204.569 355.871C205.326 353.724 205.704 351.281 205.704 348.542C205.704 345.803 205.326 343.36 204.569 341.213C203.833 339.067 202.74 337.37 201.288 336.123C199.837 334.876 198.028 334.253 195.861 334.253C193.673 334.253 191.833 334.876 190.341 336.123C188.869 337.37 187.755 339.067 186.999 341.213C186.263 343.36 185.895 345.803 185.895 348.542C185.895 351.281 186.263 353.724 186.999 355.871C187.755 358.017 188.869 359.714 190.341 360.961C191.833 362.188 193.673 362.801 195.861 362.801ZM241.961 372V324.9H254.41V333.21H254.962C255.943 330.45 257.579 328.273 259.868 326.679C262.158 325.084 264.897 324.287 268.086 324.287C271.316 324.287 274.066 325.094 276.335 326.709C278.604 328.304 280.117 330.471 280.873 333.21H281.364C282.325 330.512 284.062 328.355 286.577 326.74C289.112 325.104 292.107 324.287 295.561 324.287C299.957 324.287 303.524 325.687 306.263 328.488C309.023 331.268 310.403 335.213 310.403 340.324V372H297.371V342.9C297.371 340.283 296.675 338.321 295.285 337.012C293.895 335.704 292.158 335.05 290.072 335.05C287.701 335.05 285.851 335.806 284.522 337.319C283.193 338.811 282.529 340.784 282.529 343.237V372H269.865V342.624C269.865 340.314 269.2 338.474 267.872 337.104C266.563 335.735 264.836 335.05 262.689 335.05C261.238 335.05 259.93 335.418 258.764 336.154C257.62 336.869 256.71 337.881 256.035 339.189C255.361 340.477 255.023 341.99 255.023 343.728V372H241.961ZM331.402 372.889C328.397 372.889 325.719 372.368 323.368 371.325C321.017 370.262 319.157 368.699 317.787 366.634C316.438 364.549 315.763 361.952 315.763 358.845C315.763 356.228 316.244 354.031 317.205 352.252C318.165 350.474 319.474 349.043 321.13 347.959C322.785 346.876 324.666 346.058 326.772 345.506C328.898 344.954 331.126 344.566 333.457 344.341C336.196 344.055 338.404 343.789 340.08 343.544C341.756 343.278 342.973 342.89 343.729 342.379C344.485 341.867 344.864 341.111 344.864 340.109V339.925C344.864 337.983 344.25 336.481 343.024 335.418C341.818 334.355 340.1 333.823 337.872 333.823C335.521 333.823 333.651 334.345 332.261 335.387C330.871 336.409 329.951 337.697 329.501 339.251L317.419 338.27C318.033 335.408 319.239 332.934 321.038 330.849C322.837 328.743 325.157 327.128 327.998 326.004C330.86 324.859 334.172 324.287 337.933 324.287C340.55 324.287 343.054 324.593 345.446 325.207C347.858 325.82 349.995 326.771 351.855 328.058C353.736 329.346 355.218 331.002 356.301 333.026C357.385 335.029 357.926 337.431 357.926 340.232V372H345.538V365.469H345.17C344.414 366.94 343.402 368.239 342.134 369.363C340.867 370.467 339.344 371.336 337.566 371.969C335.787 372.583 333.733 372.889 331.402 372.889ZM335.143 363.874C337.065 363.874 338.761 363.496 340.233 362.739C341.705 361.963 342.86 360.92 343.698 359.612C344.536 358.303 344.956 356.821 344.956 355.165V350.167C344.547 350.433 343.985 350.678 343.269 350.903C342.574 351.108 341.787 351.302 340.908 351.486C340.029 351.649 339.15 351.803 338.271 351.946C337.392 352.068 336.594 352.181 335.879 352.283C334.346 352.508 333.007 352.866 331.862 353.356C330.717 353.847 329.828 354.511 329.194 355.349C328.561 356.167 328.244 357.189 328.244 358.416C328.244 360.194 328.888 361.554 330.175 362.494C331.484 363.414 333.14 363.874 335.143 363.874ZM378.374 344.77V372H365.311V324.9H377.761V333.21H378.313C379.355 330.471 381.103 328.304 383.556 326.709C386.009 325.094 388.984 324.287 392.479 324.287C395.75 324.287 398.602 325.002 401.035 326.433C403.467 327.864 405.358 329.908 406.707 332.566C408.057 335.203 408.731 338.351 408.731 342.011V372H395.668V344.341C395.689 341.459 394.953 339.21 393.461 337.595C391.968 335.96 389.914 335.142 387.297 335.142C385.539 335.142 383.985 335.52 382.636 336.276C381.307 337.033 380.265 338.137 379.508 339.588C378.772 341.019 378.394 342.746 378.374 344.77ZM422.655 389.663C420.999 389.663 419.445 389.53 417.994 389.264C416.563 389.019 415.377 388.702 414.437 388.313L417.381 378.562C418.914 379.032 420.294 379.288 421.52 379.329C422.767 379.37 423.841 379.083 424.74 378.47C425.66 377.857 426.406 376.814 426.978 375.342L427.745 373.349L410.849 324.9H424.587L434.338 359.489H434.828L444.672 324.9H458.501L440.195 377.09C439.316 379.625 438.12 381.833 436.607 383.714C435.115 385.615 433.224 387.076 430.934 388.099C428.645 389.141 425.885 389.663 422.655 389.663ZM518.86 338.331L506.901 339.067C506.696 338.045 506.257 337.125 505.582 336.307C504.908 335.469 504.018 334.804 502.915 334.314C501.831 333.803 500.533 333.547 499.02 333.547C496.996 333.547 495.289 333.977 493.899 334.835C492.509 335.673 491.814 336.798 491.814 338.208C491.814 339.333 492.264 340.283 493.163 341.06C494.063 341.837 495.606 342.46 497.794 342.93L506.318 344.648C510.897 345.588 514.311 347.101 516.56 349.186C518.809 351.271 519.933 354.01 519.933 357.404C519.933 360.491 519.023 363.199 517.204 365.53C515.405 367.86 512.931 369.68 509.783 370.988C506.656 372.276 503.047 372.92 498.959 372.92C492.724 372.92 487.756 371.622 484.056 369.026C480.376 366.409 478.22 362.852 477.586 358.354L490.434 357.68C490.823 359.581 491.763 361.032 493.255 362.034C494.748 363.015 496.659 363.506 498.99 363.506C501.279 363.506 503.119 363.067 504.509 362.187C505.92 361.288 506.635 360.133 506.656 358.722C506.635 357.537 506.134 356.566 505.153 355.809C504.172 355.033 502.659 354.44 500.615 354.031L492.458 352.406C487.858 351.486 484.434 349.891 482.186 347.622C479.957 345.353 478.843 342.46 478.843 338.944C478.843 335.919 479.661 333.312 481.296 331.125C482.952 328.937 485.272 327.251 488.257 326.065C491.262 324.88 494.778 324.287 498.806 324.287C504.754 324.287 509.436 325.544 512.85 328.058C516.284 330.573 518.287 333.997 518.86 338.331ZM546.874 372.92C542.029 372.92 537.858 371.939 534.363 369.976C530.887 367.993 528.209 365.193 526.329 361.574C524.448 357.935 523.508 353.632 523.508 348.665C523.508 343.82 524.448 339.568 526.329 335.908C528.209 332.249 530.857 329.397 534.271 327.353C537.705 325.309 541.732 324.287 546.352 324.287C549.46 324.287 552.352 324.788 555.03 325.789C557.729 326.771 560.08 328.253 562.083 330.236C564.107 332.218 565.681 334.713 566.805 337.718C567.93 340.702 568.492 344.198 568.492 348.205V351.792H528.72V343.697H556.195C556.195 341.816 555.787 340.15 554.969 338.699C554.151 337.247 553.017 336.113 551.565 335.295C550.134 334.457 548.468 334.038 546.567 334.038C544.584 334.038 542.826 334.498 541.293 335.418C539.78 336.317 538.594 337.534 537.736 339.067C536.877 340.58 536.438 342.266 536.417 344.126V351.823C536.417 354.154 536.846 356.167 537.705 357.864C538.584 359.561 539.821 360.869 541.415 361.789C543.01 362.709 544.901 363.169 547.088 363.169C548.54 363.169 549.868 362.964 551.075 362.555C552.281 362.147 553.313 361.533 554.172 360.716C555.03 359.898 555.684 358.896 556.134 357.711L568.216 358.508C567.602 361.411 566.345 363.946 564.444 366.112C562.563 368.259 560.131 369.935 557.146 371.141C554.182 372.327 550.758 372.92 546.874 372.92ZM574.266 372V324.9H586.931V333.118H587.421C588.28 330.195 589.721 327.987 591.745 326.495C593.769 324.982 596.099 324.225 598.736 324.225C599.39 324.225 600.096 324.266 600.852 324.348C601.608 324.43 602.273 324.542 602.845 324.685V336.276C602.232 336.092 601.384 335.929 600.3 335.786C599.217 335.643 598.225 335.571 597.326 335.571C595.404 335.571 593.687 335.99 592.174 336.828C590.682 337.646 589.496 338.791 588.617 340.263C587.759 341.735 587.329 343.431 587.329 345.353V372H574.266ZM652.193 324.9L635.727 372H621.008L604.542 324.9H618.34L628.122 358.6H628.613L638.364 324.9H652.193ZM656.128 372V324.9H669.191V372H656.128ZM662.69 318.829C660.748 318.829 659.082 318.185 657.692 316.897C656.322 315.588 655.638 314.024 655.638 312.205C655.638 310.406 656.322 308.863 657.692 307.575C659.082 306.266 660.748 305.612 662.69 305.612C664.632 305.612 666.288 306.266 667.658 307.575C669.048 308.863 669.743 310.406 669.743 312.205C669.743 314.024 669.048 315.588 667.658 316.897C666.288 318.185 664.632 318.829 662.69 318.829ZM698.186 372.92C693.362 372.92 689.212 371.898 685.737 369.854C682.282 367.789 679.624 364.927 677.764 361.268C675.924 357.608 675.004 353.397 675.004 348.634C675.004 343.81 675.934 339.578 677.795 335.939C679.675 332.28 682.343 329.428 685.798 327.384C689.253 325.319 693.362 324.287 698.125 324.287C702.234 324.287 705.832 325.033 708.919 326.525C712.005 328.018 714.448 330.113 716.247 332.811C718.046 335.51 719.038 338.678 719.222 342.317H706.895C706.547 339.966 705.627 338.075 704.135 336.644C702.663 335.193 700.731 334.467 698.339 334.467C696.316 334.467 694.547 335.019 693.035 336.123C691.542 337.207 690.377 338.791 689.539 340.876C688.701 342.961 688.282 345.486 688.282 348.45C688.282 351.455 688.69 354.01 689.508 356.116C690.346 358.222 691.522 359.826 693.035 360.93C694.547 362.034 696.316 362.586 698.339 362.586C699.832 362.586 701.171 362.279 702.356 361.666C703.563 361.053 704.554 360.164 705.331 358.998C706.128 357.813 706.649 356.392 706.895 354.736H719.222C719.017 358.334 718.036 361.503 716.278 364.242C714.54 366.961 712.138 369.087 709.072 370.62C706.005 372.153 702.377 372.92 698.186 372.92ZM746.3 372.92C741.455 372.92 737.285 371.939 733.789 369.976C730.314 367.993 727.636 365.193 725.755 361.574C723.874 357.935 722.934 353.632 722.934 348.665C722.934 343.82 723.874 339.568 725.755 335.908C727.636 332.249 730.283 329.397 733.697 327.353C737.132 325.309 741.159 324.287 745.779 324.287C748.886 324.287 751.779 324.788 754.457 325.789C757.155 326.771 759.506 328.253 761.509 330.236C763.533 332.218 765.107 334.713 766.232 337.718C767.356 340.702 767.918 344.198 767.918 348.205V351.792H728.147V343.697H755.622C755.622 341.816 755.213 340.15 754.395 338.699C753.578 337.247 752.443 336.113 750.992 335.295C749.561 334.457 747.895 334.038 745.993 334.038C744.011 334.038 742.252 334.498 740.719 335.418C739.206 336.317 738.021 337.534 737.162 339.067C736.304 340.58 735.864 342.266 735.844 344.126V351.823C735.844 354.154 736.273 356.167 737.132 357.864C738.011 359.561 739.247 360.869 740.842 361.789C742.436 362.709 744.327 363.169 746.515 363.169C747.966 363.169 749.295 362.964 750.501 362.555C751.707 362.147 752.74 361.533 753.598 360.716C754.457 359.898 755.111 358.896 755.561 357.711L767.642 358.508C767.029 361.411 765.772 363.946 763.871 366.112C761.99 368.259 759.557 369.935 756.573 371.141C753.608 372.327 750.184 372.92 746.3 372.92ZM812.882 338.331L800.923 339.067C800.718 338.045 800.279 337.125 799.604 336.307C798.929 335.469 798.04 334.804 796.936 334.314C795.853 333.803 794.555 333.547 793.042 333.547C791.018 333.547 789.311 333.977 787.921 334.835C786.531 335.673 785.836 336.798 785.836 338.208C785.836 339.333 786.286 340.283 787.185 341.06C788.085 341.837 789.628 342.46 791.815 342.93L800.34 344.648C804.919 345.588 808.333 347.101 810.582 349.186C812.83 351.271 813.955 354.01 813.955 357.404C813.955 360.491 813.045 363.199 811.226 365.53C809.427 367.86 806.953 369.68 803.805 370.988C800.677 372.276 797.069 372.92 792.981 372.92C786.746 372.92 781.778 371.622 778.078 369.026C774.398 366.409 772.241 362.852 771.608 358.354L784.456 357.68C784.844 359.581 785.785 361.032 787.277 362.034C788.769 363.015 790.681 363.506 793.011 363.506C795.301 363.506 797.141 363.067 798.531 362.187C799.941 361.288 800.657 360.133 800.677 358.722C800.657 357.537 800.156 356.566 799.175 355.809C798.194 355.033 796.681 354.44 794.636 354.031L786.48 352.406C781.88 351.486 778.456 349.891 776.207 347.622C773.979 345.353 772.865 342.46 772.865 338.944C772.865 335.919 773.683 333.312 775.318 331.125C776.974 328.937 779.294 327.251 782.279 326.065C785.284 324.88 788.8 324.287 792.827 324.287C798.776 324.287 803.458 325.544 806.871 328.058C810.306 330.573 812.309 333.997 812.882 338.331Z" fill="#D2D2D2"/>
<path d="M99.8404 492.994C94.6027 492.994 90.0943 491.934 86.3152 489.812C82.5583 487.668 79.6632 484.641 77.63 480.729C75.5968 476.795 74.5802 472.143 74.5802 466.773C74.5802 461.535 75.5968 456.939 77.63 452.983C79.6632 449.027 82.5251 445.944 86.2158 443.734C89.9286 441.524 94.2823 440.419 99.2768 440.419C102.636 440.419 105.763 440.96 108.658 442.043C111.575 443.104 114.117 444.706 116.283 446.85C118.471 448.994 120.172 451.69 121.388 454.938C122.603 458.165 123.211 461.944 123.211 466.276V470.154H80.2157V461.403H109.918C109.918 459.369 109.476 457.568 108.592 455.999C107.708 454.43 106.481 453.204 104.912 452.32C103.365 451.414 101.564 450.96 99.5089 450.96C97.3652 450.96 95.4646 451.458 93.8071 452.452C92.1717 453.425 90.8899 454.74 89.9617 456.397C89.0335 458.032 88.5584 459.856 88.5363 461.867V470.187C88.5363 472.707 89.0004 474.884 89.9286 476.718C90.8789 478.552 92.2159 479.967 93.9397 480.961C95.6635 481.956 97.7077 482.453 100.072 482.453C101.642 482.453 103.078 482.232 104.382 481.79C105.686 481.348 106.802 480.685 107.73 479.801C108.658 478.917 109.365 477.834 109.852 476.552L122.913 477.414C122.25 480.552 120.891 483.293 118.835 485.635C116.802 487.956 114.172 489.768 110.946 491.072C107.741 492.354 104.039 492.994 99.8404 492.994ZM143.576 462.563V492H129.454V441.082H142.913V450.065H143.509C144.636 447.104 146.526 444.761 149.178 443.038C151.83 441.292 155.045 440.419 158.825 440.419C162.361 440.419 165.443 441.192 168.073 442.739C170.703 444.286 172.747 446.496 174.206 449.369C175.665 452.22 176.394 455.624 176.394 459.579V492H162.272V462.099C162.294 458.983 161.499 456.552 159.885 454.806C158.272 453.038 156.051 452.154 153.222 452.154C151.322 452.154 149.642 452.563 148.183 453.38C146.747 454.198 145.62 455.392 144.802 456.961C144.007 458.508 143.598 460.375 143.576 462.563ZM199.071 492.961C195.822 492.961 192.927 492.398 190.385 491.271C187.844 490.122 185.833 488.431 184.352 486.199C182.894 483.945 182.164 481.138 182.164 477.779C182.164 474.95 182.684 472.574 183.722 470.651C184.761 468.729 186.175 467.182 187.966 466.011C189.756 464.839 191.789 463.955 194.065 463.359C196.363 462.762 198.772 462.342 201.292 462.099C204.253 461.789 206.64 461.502 208.452 461.237C210.264 460.95 211.579 460.53 212.397 459.977C213.215 459.425 213.624 458.607 213.624 457.524V457.325C213.624 455.226 212.961 453.601 211.635 452.452C210.331 451.303 208.474 450.728 206.065 450.728C203.524 450.728 201.502 451.292 199.999 452.419C198.496 453.524 197.502 454.916 197.015 456.596L183.954 455.535C184.617 452.441 185.921 449.767 187.866 447.513C189.811 445.237 192.319 443.491 195.391 442.275C198.485 441.038 202.065 440.419 206.132 440.419C208.96 440.419 211.668 440.75 214.253 441.413C216.861 442.076 219.171 443.104 221.182 444.496C223.215 445.889 224.817 447.679 225.988 449.867C227.16 452.032 227.745 454.629 227.745 457.657V492H214.353V484.939H213.955C213.137 486.53 212.043 487.934 210.673 489.149C209.303 490.343 207.657 491.282 205.734 491.967C203.811 492.63 201.59 492.961 199.071 492.961ZM203.115 483.215C205.192 483.215 207.027 482.806 208.618 481.989C210.209 481.149 211.458 480.022 212.364 478.607C213.27 477.193 213.723 475.591 213.723 473.801V468.397C213.281 468.685 212.673 468.95 211.9 469.193C211.148 469.414 210.297 469.624 209.347 469.823C208.397 470 207.447 470.165 206.496 470.32C205.546 470.453 204.684 470.574 203.911 470.685C202.253 470.928 200.806 471.314 199.568 471.845C198.33 472.375 197.369 473.094 196.684 474C195.999 474.884 195.656 475.989 195.656 477.315C195.656 479.237 196.352 480.707 197.745 481.724C199.159 482.718 200.949 483.215 203.115 483.215ZM235.994 492V424.109H250.115V449.634H250.546C251.165 448.264 252.06 446.872 253.232 445.458C254.425 444.021 255.972 442.828 257.873 441.877C259.795 440.905 262.182 440.419 265.033 440.419C268.746 440.419 272.171 441.391 275.309 443.336C278.448 445.259 280.956 448.165 282.834 452.054C284.713 455.922 285.652 460.773 285.652 466.607C285.652 472.287 284.735 477.083 282.901 480.994C281.089 484.884 278.613 487.834 275.475 489.845C272.359 491.834 268.867 492.829 265 492.829C262.259 492.829 259.928 492.376 258.005 491.47C256.105 490.564 254.547 489.425 253.331 488.055C252.116 486.663 251.187 485.26 250.546 483.845H249.917V492H235.994ZM249.817 466.541C249.817 469.569 250.237 472.21 251.077 474.464C251.917 476.718 253.132 478.475 254.723 479.735C256.315 480.972 258.248 481.591 260.525 481.591C262.823 481.591 264.768 480.961 266.359 479.701C267.95 478.42 269.155 476.652 269.972 474.397C270.812 472.121 271.232 469.502 271.232 466.541C271.232 463.602 270.823 461.016 270.005 458.784C269.188 456.552 267.983 454.806 266.392 453.546C264.801 452.286 262.845 451.657 260.525 451.657C258.226 451.657 256.281 452.264 254.69 453.48C253.121 454.695 251.917 456.419 251.077 458.651C250.237 460.883 249.817 463.513 249.817 466.541ZM306.224 424.109V492H292.102V424.109H306.224ZM337.768 492.994C332.531 492.994 328.022 491.934 324.243 489.812C320.486 487.668 317.591 484.641 315.558 480.729C313.525 476.795 312.508 472.143 312.508 466.773C312.508 461.535 313.525 456.939 315.558 452.983C317.591 449.027 320.453 445.944 324.144 443.734C327.856 441.524 332.21 440.419 337.205 440.419C340.564 440.419 343.691 440.96 346.586 442.043C349.503 443.104 352.045 444.706 354.211 446.85C356.398 448.994 358.1 451.69 359.316 454.938C360.531 458.165 361.139 461.944 361.139 466.276V470.154H318.144V461.403H347.846C347.846 459.369 347.404 457.568 346.52 455.999C345.636 454.43 344.409 453.204 342.84 452.32C341.293 451.414 339.492 450.96 337.437 450.96C335.293 450.96 333.392 451.458 331.735 452.452C330.1 453.425 328.818 454.74 327.89 456.397C326.961 458.032 326.486 459.856 326.464 461.867V470.187C326.464 472.707 326.928 474.884 327.856 476.718C328.807 478.552 330.144 479.967 331.868 480.961C333.591 481.956 335.636 482.453 338 482.453C339.569 482.453 341.006 482.232 342.31 481.79C343.614 481.348 344.73 480.685 345.658 479.801C346.586 478.917 347.293 477.834 347.78 476.552L360.841 477.414C360.178 480.552 358.818 483.293 356.763 485.635C354.73 487.956 352.1 489.768 348.873 491.072C345.669 492.354 341.967 492.994 337.768 492.994ZM404.476 443.634C404.211 440.96 403.073 438.883 401.062 437.402C399.051 435.921 396.321 435.181 392.874 435.181C390.531 435.181 388.553 435.513 386.94 436.176C385.327 436.817 384.089 437.712 383.227 438.861C382.387 440.01 381.968 441.314 381.968 442.772C381.923 443.988 382.178 445.049 382.73 445.955C383.305 446.861 384.089 447.645 385.084 448.308C386.078 448.949 387.227 449.513 388.531 449.999C389.835 450.463 391.227 450.861 392.708 451.193L398.808 452.651C401.769 453.314 404.487 454.198 406.963 455.303C409.438 456.408 411.581 457.767 413.394 459.381C415.206 460.994 416.609 462.894 417.604 465.082C418.62 467.27 419.14 469.779 419.162 472.607C419.14 476.762 418.079 480.364 415.979 483.414C413.902 486.442 410.896 488.796 406.963 490.475C403.051 492.133 398.333 492.961 392.808 492.961C387.327 492.961 382.553 492.122 378.487 490.442C374.443 488.762 371.282 486.276 369.006 482.983C366.752 479.668 365.569 475.569 365.459 470.685H379.349C379.503 472.961 380.155 474.862 381.305 476.386C382.476 477.889 384.034 479.027 385.979 479.801C387.946 480.552 390.167 480.928 392.642 480.928C395.073 480.928 397.183 480.574 398.973 479.867C400.786 479.16 402.189 478.177 403.183 476.917C404.178 475.657 404.675 474.21 404.675 472.574C404.675 471.049 404.222 469.767 403.316 468.729C402.432 467.69 401.128 466.806 399.404 466.077C397.703 465.348 395.614 464.685 393.139 464.088L385.747 462.231C380.023 460.839 375.503 458.662 372.188 455.701C368.873 452.74 367.227 448.75 367.249 443.734C367.227 439.623 368.321 436.032 370.531 432.96C372.763 429.888 375.824 427.49 379.713 425.767C383.603 424.043 388.023 423.181 392.973 423.181C398.012 423.181 402.41 424.043 406.167 425.767C409.946 427.49 412.885 429.888 414.985 432.96C417.084 436.032 418.167 439.59 418.234 443.634H404.476ZM448.783 492.994C443.546 492.994 439.037 491.934 435.258 489.812C431.501 487.668 428.606 484.641 426.573 480.729C424.54 476.795 423.523 472.143 423.523 466.773C423.523 461.535 424.54 456.939 426.573 452.983C428.606 449.027 431.468 445.944 435.159 443.734C438.872 441.524 443.225 440.419 448.22 440.419C451.579 440.419 454.706 440.96 457.601 442.043C460.518 443.104 463.06 444.706 465.226 446.85C467.414 448.994 469.115 451.69 470.331 454.938C471.546 458.165 472.154 461.944 472.154 466.276V470.154H429.159V461.403H458.861C458.861 459.369 458.419 457.568 457.535 455.999C456.651 454.43 455.424 453.204 453.855 452.32C452.308 451.414 450.507 450.96 448.452 450.96C446.308 450.96 444.408 451.458 442.75 452.452C441.115 453.425 439.833 454.74 438.905 456.397C437.977 458.032 437.501 459.856 437.479 461.867V470.187C437.479 472.707 437.943 474.884 438.872 476.718C439.822 478.552 441.159 479.967 442.883 480.961C444.606 481.956 446.651 482.453 449.015 482.453C450.585 482.453 452.021 482.232 453.325 481.79C454.629 481.348 455.745 480.685 456.673 479.801C457.601 478.917 458.308 477.834 458.795 476.552L471.856 477.414C471.193 480.552 469.834 483.293 467.778 485.635C465.745 487.956 463.115 489.768 459.889 491.072C456.684 492.354 452.982 492.994 448.783 492.994ZM478.397 492V441.082H492.088V449.966H492.618C493.546 446.806 495.104 444.419 497.292 442.806C499.48 441.17 501.999 440.353 504.85 440.353C505.558 440.353 506.32 440.397 507.138 440.485C507.955 440.574 508.674 440.695 509.292 440.85V453.38C508.629 453.182 507.712 453.005 506.541 452.85C505.37 452.695 504.298 452.618 503.325 452.618C501.248 452.618 499.392 453.071 497.756 453.977C496.143 454.861 494.861 456.099 493.911 457.69C492.983 459.281 492.519 461.115 492.519 463.193V492H478.397ZM562.641 441.082L544.84 492H528.928L511.126 441.082H526.044L536.618 477.514H537.149L547.69 441.082H562.641ZM566.895 492V441.082H581.017V492H566.895ZM573.989 434.518C571.889 434.518 570.088 433.822 568.585 432.43C567.105 431.015 566.364 429.325 566.364 427.358C566.364 425.413 567.105 423.744 568.585 422.352C570.088 420.938 571.889 420.231 573.989 420.231C576.088 420.231 577.878 420.938 579.359 422.352C580.862 423.744 581.613 425.413 581.613 427.358C581.613 429.325 580.862 431.015 579.359 432.43C577.878 433.822 576.088 434.518 573.989 434.518ZM612.362 492.994C607.147 492.994 602.66 491.89 598.903 489.68C595.168 487.447 592.295 484.353 590.284 480.398C588.295 476.442 587.301 471.889 587.301 466.74C587.301 461.524 588.306 456.95 590.317 453.016C592.351 449.06 595.235 445.977 598.97 443.767C602.704 441.535 607.147 440.419 612.296 440.419C616.738 440.419 620.627 441.225 623.965 442.839C627.302 444.452 629.943 446.717 631.887 449.634C633.832 452.552 634.904 455.977 635.103 459.911H621.777C621.401 457.369 620.406 455.325 618.793 453.778C617.202 452.209 615.114 451.425 612.528 451.425C610.34 451.425 608.428 452.021 606.793 453.215C605.18 454.386 603.92 456.099 603.014 458.353C602.108 460.607 601.655 463.336 601.655 466.541C601.655 469.79 602.097 472.552 602.981 474.828C603.887 477.105 605.158 478.84 606.793 480.033C608.428 481.226 610.34 481.823 612.528 481.823C614.141 481.823 615.589 481.491 616.871 480.828C618.174 480.166 619.246 479.204 620.086 477.944C620.948 476.663 621.511 475.127 621.777 473.337H635.103C634.882 477.226 633.821 480.652 631.921 483.613C630.042 486.552 627.445 488.851 624.13 490.508C620.815 492.166 616.893 492.994 612.362 492.994ZM664.377 492.994C659.139 492.994 654.63 491.934 650.851 489.812C647.094 487.668 644.199 484.641 642.166 480.729C640.133 476.795 639.116 472.143 639.116 466.773C639.116 461.535 640.133 456.939 642.166 452.983C644.199 449.027 647.061 445.944 650.752 443.734C654.465 441.524 658.818 440.419 663.813 440.419C667.172 440.419 670.299 440.96 673.194 442.043C676.112 443.104 678.653 444.706 680.819 446.85C683.007 448.994 684.708 451.69 685.924 454.938C687.139 458.165 687.747 461.944 687.747 466.276V470.154H644.752V461.403H674.454C674.454 459.369 674.012 457.568 673.128 455.999C672.244 454.43 671.018 453.204 669.448 452.32C667.901 451.414 666.1 450.96 664.045 450.96C661.901 450.96 660.001 451.458 658.343 452.452C656.708 453.425 655.426 454.74 654.498 456.397C653.57 458.032 653.095 459.856 653.072 461.867V470.187C653.072 472.707 653.537 474.884 654.465 476.718C655.415 478.552 656.752 479.967 658.476 480.961C660.2 481.956 662.244 482.453 664.609 482.453C666.178 482.453 667.614 482.232 668.918 481.79C670.222 481.348 671.338 480.685 672.266 479.801C673.194 478.917 673.902 477.834 674.388 476.552L687.449 477.414C686.786 480.552 685.427 483.293 683.371 485.635C681.338 487.956 678.708 489.768 675.482 491.072C672.277 492.354 668.575 492.994 664.377 492.994ZM694.255 492V424.109H708.609V480.166H737.715V492H694.255ZM743.982 492V441.082H758.104V492H743.982ZM751.076 434.518C748.977 434.518 747.176 433.822 745.673 432.43C744.192 431.015 743.452 429.325 743.452 427.358C743.452 425.413 744.192 423.744 745.673 422.352C747.176 420.938 748.977 420.231 751.076 420.231C753.176 420.231 754.966 420.938 756.447 422.352C757.949 423.744 758.701 425.413 758.701 427.358C758.701 429.325 757.949 431.015 756.447 432.43C754.966 433.822 753.176 434.518 751.076 434.518ZM780.565 462.563V492H766.443V441.082H779.902V450.065H780.499C781.626 447.104 783.516 444.761 786.168 443.038C788.82 441.292 792.035 440.419 795.814 440.419C799.35 440.419 802.433 441.192 805.063 442.739C807.693 444.286 809.737 446.496 811.196 449.369C812.654 452.22 813.384 455.624 813.384 459.579V492H799.262V462.099C799.284 458.983 798.488 456.552 796.875 454.806C795.262 453.038 793.041 452.154 790.212 452.154C788.311 452.154 786.632 452.563 785.173 453.38C783.737 454.198 782.61 455.392 781.792 456.961C780.996 458.508 780.587 460.375 780.565 462.563ZM834.337 477.348L834.37 460.408H836.425L852.735 441.082H868.945L847.033 466.674H843.685L834.337 477.348ZM821.541 492V424.109H835.663V492H821.541ZM853.365 492L838.381 469.823L847.795 459.845L869.906 492H853.365ZM915.266 455.601L902.338 456.397C902.117 455.292 901.641 454.298 900.912 453.414C900.183 452.507 899.221 451.789 898.028 451.259C896.857 450.706 895.453 450.43 893.818 450.43C891.63 450.43 889.785 450.894 888.282 451.822C886.779 452.728 886.028 453.944 886.028 455.469C886.028 456.684 886.514 457.712 887.486 458.552C888.459 459.392 890.127 460.066 892.492 460.574L901.708 462.43C906.658 463.447 910.349 465.082 912.78 467.337C915.211 469.591 916.426 472.552 916.426 476.221C916.426 479.558 915.443 482.486 913.476 485.005C911.531 487.525 908.857 489.492 905.454 490.906C902.072 492.298 898.172 492.994 893.752 492.994C887.011 492.994 881.641 491.591 877.641 488.784C873.663 485.956 871.331 482.11 870.646 477.248L884.536 476.519C884.956 478.574 885.973 480.143 887.586 481.226C889.199 482.287 891.266 482.817 893.785 482.817C896.26 482.817 898.249 482.342 899.752 481.392C901.277 480.42 902.05 479.171 902.072 477.646C902.05 476.364 901.509 475.315 900.448 474.497C899.387 473.657 897.752 473.016 895.542 472.574L886.724 470.817C881.752 469.823 878.05 468.099 875.619 465.646C873.21 463.193 872.005 460.066 872.005 456.264C872.005 452.994 872.889 450.176 874.657 447.811C876.448 445.447 878.956 443.623 882.182 442.342C885.431 441.06 889.232 440.419 893.586 440.419C900.017 440.419 905.078 441.778 908.769 444.496C912.481 447.215 914.647 450.916 915.266 455.601Z" fill="#D2D2D2"/>
<path d="M76.711 611V545.291H120.218V556.745H90.6036V572.402H117.33V583.856H90.6036V611H76.711ZM139.864 611.93C136.719 611.93 133.917 611.385 131.457 610.294C128.998 609.182 127.051 607.546 125.618 605.385C124.206 603.203 123.5 600.487 123.5 597.236C123.5 594.498 124.003 592.198 125.008 590.338C126.014 588.477 127.383 586.979 129.115 585.846C130.848 584.712 132.816 583.856 135.019 583.279C137.243 582.701 139.575 582.295 142.013 582.06C144.879 581.76 147.19 581.482 148.944 581.226C150.697 580.948 151.97 580.541 152.762 580.006C153.553 579.472 153.949 578.68 153.949 577.632V577.44C153.949 575.408 153.307 573.835 152.024 572.723C150.762 571.611 148.965 571.055 146.633 571.055C144.174 571.055 142.216 571.6 140.762 572.691C139.307 573.761 138.345 575.108 137.874 576.734L125.233 575.707C125.875 572.712 127.137 570.124 129.019 567.943C130.901 565.739 133.329 564.05 136.302 562.873C139.297 561.675 142.762 561.076 146.698 561.076C149.435 561.076 152.056 561.397 154.558 562.039C157.082 562.681 159.318 563.675 161.264 565.023C163.232 566.37 164.783 568.103 165.916 570.221C167.05 572.317 167.617 574.83 167.617 577.76V611H154.655V604.166H154.27C153.478 605.706 152.419 607.064 151.093 608.241C149.767 609.396 148.173 610.305 146.313 610.968C144.452 611.61 142.302 611.93 139.864 611.93ZM143.778 602.498C145.789 602.498 147.564 602.102 149.104 601.31C150.644 600.498 151.853 599.407 152.729 598.038C153.606 596.669 154.045 595.118 154.045 593.386V588.156C153.617 588.434 153.029 588.691 152.28 588.926C151.553 589.14 150.73 589.343 149.81 589.535C148.89 589.707 147.97 589.867 147.051 590.017C146.131 590.145 145.297 590.263 144.548 590.37C142.944 590.605 141.543 590.979 140.345 591.493C139.147 592.006 138.217 592.701 137.554 593.578C136.89 594.434 136.559 595.503 136.559 596.787C136.559 598.647 137.233 600.07 138.58 601.054C139.949 602.016 141.682 602.498 143.778 602.498ZM175.343 611V561.718H189.011V611H175.343ZM182.209 555.365C180.177 555.365 178.434 554.692 176.98 553.344C175.546 551.975 174.83 550.339 174.83 548.435C174.83 546.553 175.546 544.938 176.98 543.59C178.434 542.221 180.177 541.537 182.209 541.537C184.241 541.537 185.974 542.221 187.407 543.59C188.862 544.938 189.589 546.553 189.589 548.435C189.589 550.339 188.862 551.975 187.407 553.344C185.974 554.692 184.241 555.365 182.209 555.365ZM210.751 545.291V611H197.083V545.291H210.751ZM218.822 611V561.718H232.49V611H218.822ZM225.688 555.365C223.656 555.365 221.913 554.692 220.458 553.344C219.025 551.975 218.309 550.339 218.309 548.435C218.309 546.553 219.025 544.938 220.458 543.59C221.913 542.221 223.656 541.537 225.688 541.537C227.72 541.537 229.453 542.221 230.886 543.59C232.34 544.938 233.068 546.553 233.068 548.435C233.068 550.339 232.34 551.975 230.886 553.344C229.453 554.692 227.72 555.365 225.688 555.365ZM254.23 582.509V611H240.562V561.718H253.588V570.413H254.165C255.256 567.547 257.085 565.28 259.652 563.611C262.219 561.921 265.331 561.076 268.988 561.076C272.411 561.076 275.395 561.825 277.94 563.322C280.485 564.82 282.464 566.959 283.876 569.739C285.287 572.499 285.993 575.793 285.993 579.621V611H272.325V582.06C272.347 579.044 271.577 576.691 270.015 575.001C268.454 573.29 266.304 572.434 263.566 572.434C261.727 572.434 260.101 572.83 258.689 573.622C257.299 574.413 256.208 575.568 255.417 577.087C254.647 578.584 254.251 580.391 254.23 582.509ZM316.091 630.507C311.663 630.507 307.866 629.898 304.701 628.679C301.556 627.481 299.054 625.844 297.193 623.77C295.332 621.695 294.124 619.363 293.567 616.775L306.209 615.075C306.594 616.059 307.203 616.978 308.038 617.834C308.872 618.69 309.973 619.374 311.342 619.887C312.733 620.422 314.422 620.69 316.412 620.69C319.385 620.69 321.834 619.962 323.759 618.508C325.705 617.075 326.679 614.668 326.679 611.289V602.273H326.101C325.502 603.642 324.604 604.936 323.406 606.155C322.208 607.374 320.668 608.369 318.786 609.139C316.904 609.909 314.658 610.294 312.048 610.294C308.348 610.294 304.979 609.439 301.941 607.727C298.926 605.995 296.519 603.353 294.722 599.803C292.947 596.23 292.059 591.717 292.059 586.263C292.059 580.68 292.969 576.017 294.787 572.274C296.605 568.531 299.022 565.729 302.038 563.868C305.075 562.007 308.401 561.076 312.016 561.076C314.775 561.076 317.085 561.547 318.946 562.488C320.807 563.408 322.304 564.563 323.438 565.953C324.593 567.322 325.481 568.67 326.101 569.996H326.614V561.718H340.186V611.481C340.186 615.674 339.16 619.182 337.106 622.005C335.053 624.828 332.208 626.946 328.572 628.358C324.957 629.791 320.796 630.507 316.091 630.507ZM316.38 600.027C318.583 600.027 320.444 599.482 321.962 598.391C323.502 597.279 324.679 595.696 325.492 593.642C326.326 591.567 326.743 589.086 326.743 586.199C326.743 583.311 326.336 580.808 325.524 578.691C324.711 576.552 323.534 574.894 321.994 573.718C320.454 572.541 318.583 571.953 316.38 571.953C314.134 571.953 312.241 572.563 310.701 573.782C309.16 574.98 307.995 576.648 307.203 578.787C306.412 580.926 306.016 583.397 306.016 586.199C306.016 589.043 306.412 591.503 307.203 593.578C308.016 595.632 309.182 597.225 310.701 598.359C312.241 599.471 314.134 600.027 316.38 600.027ZM389.769 611H366.476V545.291H389.962C396.571 545.291 402.261 546.606 407.031 549.237C411.801 551.847 415.469 555.601 418.036 560.499C420.624 565.397 421.918 571.258 421.918 578.081C421.918 584.926 420.624 590.808 418.036 595.728C415.469 600.647 411.779 604.423 406.967 607.054C402.175 609.685 396.443 611 389.769 611ZM380.368 599.097H389.192C393.299 599.097 396.753 598.369 399.555 596.915C402.378 595.439 404.496 593.161 405.908 590.081C407.341 586.979 408.057 582.98 408.057 578.081C408.057 573.226 407.341 569.258 405.908 566.178C404.496 563.098 402.389 560.831 399.587 559.376C396.785 557.922 393.331 557.194 389.224 557.194H380.368V599.097ZM484.292 545.291V611H472.293L443.705 569.643H443.224V611H429.332V545.291H441.524L469.886 586.616H470.464V545.291H484.292ZM528.539 564.189C528.282 561.601 527.181 559.59 525.234 558.157C523.288 556.724 520.646 556.007 517.31 556.007C515.042 556.007 513.128 556.328 511.566 556.97C510.005 557.59 508.807 558.456 507.973 559.569C507.16 560.681 506.754 561.943 506.754 563.354C506.711 564.531 506.957 565.558 507.492 566.435C508.048 567.312 508.807 568.071 509.77 568.713C510.732 569.333 511.844 569.878 513.106 570.349C514.368 570.798 515.716 571.183 517.149 571.504L523.053 572.916C525.919 573.557 528.55 574.413 530.945 575.482C533.341 576.552 535.416 577.867 537.17 579.429C538.924 580.99 540.282 582.83 541.245 584.947C542.229 587.065 542.731 589.493 542.753 592.231C542.731 596.252 541.704 599.738 539.672 602.69C537.662 605.62 534.753 607.898 530.945 609.524C527.159 611.128 522.593 611.93 517.245 611.93C511.941 611.93 507.321 611.118 503.385 609.492C499.471 607.866 496.412 605.46 494.209 602.273C492.027 599.065 490.883 595.097 490.776 590.37H504.219C504.369 592.573 505 594.412 506.112 595.888C507.246 597.343 508.754 598.444 510.636 599.193C512.54 599.92 514.689 600.284 517.085 600.284C519.438 600.284 521.481 599.942 523.213 599.257C524.967 598.573 526.325 597.621 527.288 596.402C528.25 595.182 528.732 593.781 528.732 592.198C528.732 590.723 528.293 589.482 527.416 588.477C526.561 587.471 525.299 586.616 523.63 585.91C521.983 585.204 519.962 584.562 517.566 583.985L510.411 582.188C504.871 580.841 500.497 578.734 497.289 575.867C494.08 573.001 492.487 569.14 492.508 564.285C492.487 560.306 493.546 556.831 495.685 553.857C497.845 550.884 500.807 548.564 504.572 546.895C508.337 545.227 512.615 544.393 517.406 544.393C522.283 544.393 526.539 545.227 530.175 546.895C533.833 548.564 536.678 550.884 538.71 553.857C540.742 556.831 541.79 560.274 541.854 564.189H528.539Z" fill="#010101"/>
<path d="M103.569 105.727V141H97.1273L81.7816 118.8H81.5233V141H74.0657V105.727H80.6104L95.8356 127.911H96.1456V105.727H103.569ZM120.104 141.517C117.383 141.517 115.04 140.966 113.077 139.863C111.125 138.75 109.621 137.176 108.565 135.144C107.508 133.1 106.98 130.683 106.98 127.893C106.98 125.172 107.508 122.784 108.565 120.729C109.621 118.673 111.108 117.071 113.025 115.923C114.954 114.775 117.216 114.201 119.811 114.201C121.556 114.201 123.181 114.482 124.685 115.045C126.201 115.596 127.521 116.429 128.647 117.542C129.783 118.656 130.667 120.057 131.299 121.745C131.93 123.421 132.246 125.384 132.246 127.635V129.65H109.908V125.103H125.34C125.34 124.047 125.11 123.111 124.651 122.296C124.192 121.481 123.554 120.843 122.739 120.384C121.935 119.913 121 119.678 119.932 119.678C118.818 119.678 117.831 119.936 116.969 120.453C116.12 120.958 115.454 121.641 114.972 122.502C114.489 123.352 114.242 124.299 114.231 125.344V129.667C114.231 130.976 114.472 132.107 114.954 133.06C115.448 134.013 116.143 134.748 117.038 135.265C117.934 135.781 118.996 136.04 120.225 136.04C121.04 136.04 121.786 135.925 122.464 135.695C123.141 135.466 123.721 135.121 124.203 134.662C124.685 134.203 125.053 133.64 125.305 132.974L132.091 133.422C131.747 135.052 131.041 136.476 129.973 137.693C128.916 138.899 127.55 139.84 125.874 140.518C124.209 141.184 122.286 141.517 120.104 141.517ZM149.561 114.545V120.057H133.63V114.545H149.561ZM137.246 108.207H144.583V132.871C144.583 133.548 144.687 134.076 144.893 134.455C145.1 134.823 145.387 135.081 145.755 135.23C146.133 135.38 146.57 135.454 147.063 135.454C147.408 135.454 147.752 135.425 148.097 135.368C148.441 135.299 148.705 135.248 148.889 135.213L150.043 140.673C149.676 140.788 149.159 140.92 148.493 141.069C147.827 141.23 147.018 141.327 146.065 141.362C144.296 141.431 142.746 141.195 141.414 140.656C140.094 140.116 139.066 139.278 138.331 138.141C137.597 137.004 137.235 135.569 137.246 133.835V108.207ZM158.014 141L150.815 114.545H158.238L162.337 132.32H162.578L166.85 114.545H174.135L178.475 132.216H178.699L182.729 114.545H190.135L182.953 141H175.186L170.639 124.363H170.311L165.765 141H158.014ZM203.794 141.517C201.119 141.517 198.805 140.948 196.853 139.812C194.913 138.663 193.414 137.067 192.358 135.024C191.302 132.968 190.774 130.586 190.774 127.876C190.774 125.143 191.302 122.755 192.358 120.711C193.414 118.656 194.913 117.06 196.853 115.923C198.805 114.775 201.119 114.201 203.794 114.201C206.469 114.201 208.777 114.775 210.718 115.923C212.67 117.06 214.174 118.656 215.23 120.711C216.287 122.755 216.815 125.143 216.815 127.876C216.815 130.586 216.287 132.968 215.23 135.024C214.174 137.067 212.67 138.663 210.718 139.812C208.777 140.948 206.469 141.517 203.794 141.517ZM203.829 135.833C205.046 135.833 206.062 135.489 206.877 134.8C207.692 134.099 208.307 133.146 208.72 131.941C209.145 130.735 209.357 129.363 209.357 127.824C209.357 126.286 209.145 124.914 208.72 123.708C208.307 122.502 207.692 121.549 206.877 120.849C206.062 120.149 205.046 119.798 203.829 119.798C202.6 119.798 201.567 120.149 200.728 120.849C199.902 121.549 199.276 122.502 198.851 123.708C198.438 124.914 198.231 126.286 198.231 127.824C198.231 129.363 198.438 130.735 198.851 131.941C199.276 133.146 199.902 134.099 200.728 134.8C201.567 135.489 202.6 135.833 203.829 135.833ZM220.041 141V114.545H227.154V119.161H227.43C227.912 117.519 228.721 116.279 229.858 115.441C230.995 114.591 232.304 114.167 233.785 114.167C234.152 114.167 234.548 114.19 234.973 114.235C235.398 114.281 235.771 114.345 236.093 114.425V120.935C235.748 120.832 235.272 120.74 234.663 120.66C234.055 120.579 233.498 120.539 232.993 120.539C231.913 120.539 230.949 120.774 230.099 121.245C229.261 121.704 228.595 122.347 228.101 123.174C227.619 124.001 227.378 124.954 227.378 126.033V141H220.041ZM244.99 133.387L245.007 124.586H246.075L254.548 114.545H262.97L251.586 127.842H249.847L244.99 133.387ZM238.342 141V105.727H245.679V141H238.342ZM254.876 141L247.091 129.478L251.982 124.294L263.47 141H254.876ZM286.659 141.517C283.949 141.517 281.618 140.943 279.666 139.794C277.726 138.635 276.233 137.027 275.188 134.972C274.155 132.917 273.638 130.551 273.638 127.876C273.638 125.166 274.161 122.79 275.205 120.746C276.262 118.69 277.76 117.089 279.701 115.941C281.641 114.781 283.949 114.201 286.624 114.201C288.932 114.201 290.953 114.62 292.687 115.458C294.421 116.296 295.793 117.473 296.803 118.989C297.814 120.505 298.37 122.284 298.474 124.328H291.55C291.355 123.008 290.838 121.946 290 121.142C289.173 120.327 288.088 119.919 286.745 119.919C285.608 119.919 284.615 120.229 283.765 120.849C282.927 121.458 282.273 122.347 281.802 123.519C281.331 124.69 281.096 126.108 281.096 127.773C281.096 129.461 281.325 130.896 281.785 132.078C282.255 133.261 282.916 134.162 283.765 134.782C284.615 135.403 285.608 135.713 286.745 135.713C287.583 135.713 288.335 135.54 289.001 135.196C289.679 134.851 290.235 134.352 290.672 133.697C291.12 133.031 291.412 132.233 291.55 131.303H298.474C298.359 133.324 297.808 135.104 296.82 136.643C295.844 138.17 294.495 139.364 292.773 140.225C291.051 141.086 289.013 141.517 286.659 141.517ZM313.58 141.517C310.904 141.517 308.591 140.948 306.639 139.812C304.698 138.663 303.2 137.067 302.143 135.024C301.087 132.968 300.559 130.586 300.559 127.876C300.559 125.143 301.087 122.755 302.143 120.711C303.2 118.656 304.698 117.06 306.639 115.923C308.591 114.775 310.904 114.201 313.58 114.201C316.255 114.201 318.563 114.775 320.503 115.923C322.455 117.06 323.959 118.656 325.016 120.711C326.072 122.755 326.6 125.143 326.6 127.876C326.6 130.586 326.072 132.968 325.016 135.024C323.959 137.067 322.455 138.663 320.503 139.812C318.563 140.948 316.255 141.517 313.58 141.517ZM313.614 135.833C314.831 135.833 315.847 135.489 316.662 134.8C317.478 134.099 318.092 133.146 318.505 131.941C318.93 130.735 319.143 129.363 319.143 127.824C319.143 126.286 318.93 124.914 318.505 123.708C318.092 122.502 317.478 121.549 316.662 120.849C315.847 120.149 314.831 119.798 313.614 119.798C312.385 119.798 311.352 120.149 310.514 120.849C309.687 121.549 309.061 122.502 308.637 123.708C308.223 124.914 308.016 126.286 308.016 127.824C308.016 129.363 308.223 130.735 308.637 131.941C309.061 133.146 309.687 134.099 310.514 134.8C311.352 135.489 312.385 135.833 313.614 135.833ZM329.826 141V114.545H336.819V119.213H337.129C337.68 117.663 338.599 116.44 339.885 115.544C341.171 114.649 342.709 114.201 344.5 114.201C346.314 114.201 347.859 114.655 349.133 115.562C350.408 116.457 351.257 117.674 351.682 119.213H351.958C352.498 117.697 353.473 116.486 354.886 115.579C356.31 114.66 357.992 114.201 359.932 114.201C362.401 114.201 364.404 114.988 365.943 116.561C367.493 118.122 368.268 120.338 368.268 123.209V141H360.948V124.655C360.948 123.186 360.558 122.083 359.777 121.349C358.996 120.614 358.02 120.246 356.849 120.246C355.517 120.246 354.478 120.671 353.732 121.521C352.985 122.359 352.612 123.467 352.612 124.845V141H345.499V124.5C345.499 123.203 345.126 122.17 344.38 121.4C343.645 120.631 342.675 120.246 341.469 120.246C340.654 120.246 339.919 120.453 339.264 120.866C338.622 121.268 338.111 121.837 337.732 122.571C337.353 123.295 337.163 124.144 337.163 125.12V141H329.826ZM372.519 150.92V114.545H379.753V118.989H380.08C380.401 118.277 380.866 117.554 381.475 116.819C382.095 116.073 382.899 115.453 383.886 114.959C384.885 114.454 386.125 114.201 387.606 114.201C389.535 114.201 391.315 114.706 392.945 115.717C394.576 116.716 395.879 118.225 396.855 120.246C397.831 122.256 398.319 124.776 398.319 127.807C398.319 130.758 397.843 133.25 396.89 135.282C395.948 137.303 394.662 138.836 393.032 139.881C391.413 140.914 389.598 141.431 387.589 141.431C386.165 141.431 384.954 141.195 383.955 140.724C382.968 140.254 382.158 139.662 381.527 138.95C380.895 138.227 380.413 137.498 380.08 136.763H379.856V150.92H372.519ZM379.701 127.773C379.701 129.346 379.919 130.718 380.355 131.889C380.792 133.06 381.423 133.973 382.25 134.627C383.077 135.27 384.081 135.592 385.264 135.592C386.458 135.592 387.469 135.265 388.295 134.61C389.122 133.944 389.748 133.026 390.173 131.855C390.609 130.672 390.827 129.311 390.827 127.773C390.827 126.246 390.615 124.902 390.19 123.743C389.765 122.583 389.139 121.676 388.313 121.021C387.486 120.367 386.47 120.04 385.264 120.04C384.07 120.04 383.059 120.355 382.233 120.987C381.418 121.618 380.792 122.514 380.355 123.674C379.919 124.833 379.701 126.2 379.701 127.773ZM409.003 105.727V141H401.666V105.727H409.003ZM425.392 141.517C422.67 141.517 420.328 140.966 418.365 139.863C416.413 138.75 414.909 137.176 413.852 135.144C412.796 133.1 412.268 130.683 412.268 127.893C412.268 125.172 412.796 122.784 413.852 120.729C414.909 118.673 416.396 117.071 418.313 115.923C420.242 114.775 422.504 114.201 425.099 114.201C426.844 114.201 428.469 114.482 429.973 115.045C431.489 115.596 432.809 116.429 433.934 117.542C435.071 118.656 435.955 120.057 436.587 121.745C437.218 123.421 437.534 125.384 437.534 127.635V129.65H415.196V125.103H430.628C430.628 124.047 430.398 123.111 429.939 122.296C429.479 121.481 428.842 120.843 428.027 120.384C427.223 119.913 426.287 119.678 425.219 119.678C424.106 119.678 423.118 119.936 422.257 120.453C421.407 120.958 420.741 121.641 420.259 122.502C419.777 123.352 419.53 124.299 419.519 125.344V129.667C419.519 130.976 419.76 132.107 420.242 133.06C420.736 134.013 421.43 134.748 422.326 135.265C423.222 135.781 424.284 136.04 425.512 136.04C426.327 136.04 427.074 135.925 427.751 135.695C428.429 135.466 429.009 135.121 429.491 134.662C429.973 134.203 430.34 133.64 430.593 132.974L437.379 133.422C437.034 135.052 436.328 136.476 435.26 137.693C434.204 138.899 432.838 139.84 431.161 140.518C429.497 141.184 427.573 141.517 425.392 141.517ZM446.435 114.545L451.292 123.794L456.269 114.545H463.796L456.132 127.773L464.003 141H456.511L451.292 131.855L446.16 141H438.581L446.435 127.773L438.857 114.545H446.435ZM466.609 141V114.545H473.946V141H466.609ZM470.294 111.135C469.204 111.135 468.268 110.774 467.487 110.05C466.718 109.315 466.333 108.437 466.333 107.415C466.333 106.405 466.718 105.538 467.487 104.814C468.268 104.08 469.204 103.712 470.294 103.712C471.385 103.712 472.315 104.08 473.085 104.814C473.865 105.538 474.256 106.405 474.256 107.415C474.256 108.437 473.865 109.315 473.085 110.05C472.315 110.774 471.385 111.135 470.294 111.135ZM492.35 114.545V120.057H476.418V114.545H492.35ZM480.035 108.207H487.372V132.871C487.372 133.548 487.476 134.076 487.682 134.455C487.889 134.823 488.176 135.081 488.543 135.23C488.922 135.38 489.359 135.454 489.852 135.454C490.197 135.454 490.541 135.425 490.886 135.368C491.23 135.299 491.494 135.248 491.678 135.213L492.832 140.673C492.465 140.788 491.948 140.92 491.282 141.069C490.616 141.23 489.806 141.327 488.853 141.362C487.085 141.431 485.535 141.195 484.203 140.656C482.883 140.116 481.855 139.278 481.12 138.141C480.385 137.004 480.024 135.569 480.035 133.835V108.207ZM500.114 150.92C499.184 150.92 498.311 150.846 497.496 150.697C496.693 150.559 496.027 150.381 495.498 150.163L497.152 144.686C498.013 144.95 498.788 145.093 499.477 145.116C500.177 145.139 500.78 144.979 501.285 144.634C501.802 144.29 502.221 143.704 502.543 142.877L502.973 141.758L493.483 114.545H501.199L506.676 133.973H506.952L512.48 114.545H520.248L509.966 143.859C509.472 145.283 508.8 146.523 507.951 147.579C507.112 148.647 506.05 149.468 504.764 150.042C503.478 150.628 501.928 150.92 500.114 150.92Z" fill="black"/>
</svg>
