<svg width="1200" height="900" viewBox="0 0 1200 900" fill="none" xmlns="http://www.w3.org/2000/svg">
<rect width="1200" height="900" fill="white"/>
<path d="M405.78 444V371.273H454.786V383.95H421.157V401.28H452.265V413.957H421.157V431.322H454.928V444H405.78ZM476.737 389.455L486.751 408.524L497.014 389.455H512.532L496.73 416.727L512.959 444H497.511L486.751 425.143L476.169 444H460.544L476.737 416.727L461.112 389.455H476.737ZM534.146 445.03C530.666 445.03 527.565 444.426 524.842 443.219C522.12 441.988 519.965 440.177 518.379 437.786C516.817 435.371 516.036 432.364 516.036 428.766C516.036 425.735 516.592 423.19 517.705 421.131C518.817 419.071 520.332 417.414 522.25 416.159C524.168 414.904 526.346 413.957 528.784 413.318C531.246 412.679 533.827 412.229 536.526 411.969C539.698 411.637 542.255 411.33 544.196 411.045C546.137 410.738 547.546 410.288 548.422 409.696C549.298 409.104 549.736 408.228 549.736 407.068V406.855C549.736 404.606 549.026 402.866 547.605 401.635C546.208 400.404 544.22 399.788 541.639 399.788C538.917 399.788 536.75 400.392 535.141 401.599C533.531 402.783 532.465 404.275 531.945 406.074L517.953 404.938C518.663 401.623 520.06 398.759 522.143 396.344C524.227 393.905 526.914 392.035 530.205 390.733C533.519 389.407 537.354 388.744 541.71 388.744C544.741 388.744 547.641 389.099 550.411 389.81C553.204 390.52 555.678 391.621 557.832 393.112C560.01 394.604 561.727 396.521 562.982 398.865C564.236 401.185 564.864 403.967 564.864 407.21V444H550.517V436.436H550.091C549.215 438.141 548.043 439.644 546.575 440.946C545.107 442.224 543.344 443.231 541.284 443.964C539.224 444.675 536.845 445.03 534.146 445.03ZM538.479 434.589C540.704 434.589 542.669 434.152 544.374 433.276C546.078 432.376 547.416 431.169 548.386 429.653C549.357 428.138 549.842 426.422 549.842 424.504V418.716C549.369 419.024 548.718 419.308 547.889 419.568C547.084 419.805 546.173 420.03 545.155 420.243C544.137 420.432 543.119 420.61 542.101 420.776C541.083 420.918 540.16 421.048 539.331 421.166C537.555 421.427 536.005 421.841 534.679 422.409C533.353 422.977 532.323 423.747 531.589 424.717C530.856 425.664 530.489 426.848 530.489 428.268C530.489 430.328 531.234 431.902 532.726 432.991C534.241 434.057 536.159 434.589 538.479 434.589ZM573.969 444V389.455H588.386V399.078H589.025C590.162 395.882 592.056 393.361 594.707 391.514C597.359 389.668 600.531 388.744 604.224 388.744C607.965 388.744 611.149 389.679 613.777 391.55C616.405 393.396 618.157 395.906 619.032 399.078H619.601C620.713 395.953 622.726 393.455 625.638 391.585C628.573 389.691 632.041 388.744 636.042 388.744C641.132 388.744 645.264 390.366 648.436 393.609C651.632 396.829 653.23 401.398 653.23 407.317V444H638.138V410.3C638.138 407.269 637.333 404.997 635.723 403.482C634.113 401.966 632.101 401.209 629.686 401.209C626.94 401.209 624.797 402.085 623.258 403.837C621.72 405.565 620.95 407.849 620.95 410.69V444H606.284V409.98C606.284 407.305 605.515 405.174 603.976 403.588C602.461 402.002 600.46 401.209 597.974 401.209C596.293 401.209 594.778 401.635 593.429 402.487C592.103 403.316 591.05 404.488 590.268 406.003C589.487 407.494 589.096 409.246 589.096 411.259V444H573.969ZM662.548 464.455V389.455H677.463V398.616H678.137C678.8 397.149 679.759 395.657 681.014 394.142C682.292 392.603 683.949 391.325 685.985 390.307C688.045 389.265 690.602 388.744 693.656 388.744C697.633 388.744 701.303 389.786 704.664 391.869C708.026 393.929 710.713 397.042 712.725 401.209C714.738 405.352 715.744 410.548 715.744 416.798C715.744 422.883 714.761 428.02 712.796 432.21C710.855 436.377 708.204 439.537 704.842 441.692C701.504 443.822 697.763 444.888 693.62 444.888C690.685 444.888 688.187 444.402 686.127 443.432C684.091 442.461 682.422 441.242 681.12 439.774C679.818 438.283 678.824 436.779 678.137 435.264H677.676V464.455H662.548ZM677.356 416.727C677.356 419.971 677.806 422.8 678.706 425.214C679.605 427.629 680.907 429.511 682.612 430.861C684.316 432.187 686.388 432.849 688.826 432.849C691.288 432.849 693.372 432.175 695.076 430.825C696.781 429.452 698.071 427.558 698.947 425.143C699.847 422.705 700.296 419.9 700.296 416.727C700.296 413.579 699.859 410.809 698.983 408.418C698.107 406.027 696.816 404.156 695.112 402.807C693.407 401.457 691.312 400.783 688.826 400.783C686.364 400.783 684.281 401.434 682.576 402.736C680.895 404.038 679.605 405.884 678.706 408.276C677.806 410.667 677.356 413.484 677.356 416.727ZM738.325 371.273V444H723.198V371.273H738.325ZM772.67 445.065C767.059 445.065 762.23 443.929 758.181 441.656C754.157 439.36 751.055 436.116 748.877 431.926C746.699 427.712 745.61 422.729 745.61 416.976C745.61 411.365 746.699 406.441 748.877 402.203C751.055 397.965 754.121 394.663 758.075 392.295C762.052 389.928 766.716 388.744 772.066 388.744C775.665 388.744 779.015 389.324 782.116 390.484C785.241 391.621 787.964 393.337 790.284 395.634C792.627 397.93 794.45 400.818 795.752 404.298C797.055 407.755 797.706 411.803 797.706 416.443V420.598H751.647V411.223H783.465C783.465 409.045 782.992 407.116 782.045 405.435C781.098 403.754 779.784 402.44 778.103 401.493C776.446 400.522 774.517 400.037 772.315 400.037C770.019 400.037 767.983 400.57 766.207 401.635C764.455 402.677 763.082 404.085 762.088 405.861C761.093 407.613 760.584 409.566 760.561 411.72V420.634C760.561 423.332 761.058 425.664 762.052 427.629C763.07 429.594 764.502 431.109 766.349 432.175C768.196 433.24 770.385 433.773 772.919 433.773C774.599 433.773 776.138 433.536 777.535 433.062C778.932 432.589 780.127 431.879 781.122 430.932C782.116 429.985 782.874 428.825 783.394 427.452L797.386 428.375C796.676 431.737 795.22 434.672 793.018 437.182C790.84 439.668 788.023 441.609 784.566 443.006C781.134 444.379 777.168 445.065 772.67 445.065Z" fill="black"/>
<rect x="71" y="627" width="1038" height="8" fill="black"/>
</svg>
