<svg width="1200" height="900" viewBox="0 0 1200 900" fill="none" xmlns="http://www.w3.org/2000/svg">
<rect width="1200" height="900" fill="white"/>
<path d="M512.264 570H515.339V565.284H517.925C521.27 565.284 523.216 563.288 523.216 560.384C523.216 557.493 521.305 555.455 518.003 555.455H512.264V570ZM515.339 562.82V557.969H517.413C519.189 557.969 520.048 558.935 520.048 560.384C520.048 561.825 519.189 562.82 517.428 562.82H515.339ZM529.91 570.213C533.219 570.213 535.279 567.947 535.279 564.588C535.279 561.207 533.219 558.949 529.91 558.949C526.6 558.949 524.54 561.207 524.54 564.588C524.54 567.947 526.6 570.213 529.91 570.213ZM529.924 567.869C528.397 567.869 527.616 566.47 527.616 564.567C527.616 562.663 528.397 561.257 529.924 561.257C531.423 561.257 532.204 562.663 532.204 564.567C532.204 566.47 531.423 567.869 529.924 567.869ZM541.266 570.178C543.028 570.178 543.944 569.162 544.363 568.253H544.491V570H547.474V555.455H544.455V560.923H544.363C543.958 560.036 543.085 558.949 541.259 558.949C538.866 558.949 536.842 560.81 536.842 564.56C536.842 568.21 538.781 570.178 541.266 570.178ZM542.225 567.77C540.741 567.77 539.931 566.449 539.931 564.545C539.931 562.656 540.727 561.357 542.225 561.357C543.695 561.357 544.519 562.599 544.519 564.545C544.519 566.491 543.681 567.77 542.225 567.77ZM554.562 570H564.931V567.486H558.823V567.386L560.947 565.305C563.937 562.578 564.739 561.214 564.739 559.56C564.739 557.038 562.68 555.256 559.562 555.256C556.508 555.256 554.413 557.081 554.42 559.936H557.339C557.332 558.544 558.212 557.692 559.54 557.692C560.819 557.692 561.771 558.487 561.771 559.766C561.771 560.923 561.06 561.719 559.739 562.99L554.562 567.784V570Z" fill="#4A4A4A"/>
<path fill-rule="evenodd" clip-rule="evenodd" d="M700 747.079C700 748.14 699.377 749 698.608 749H502.392C501.623 749 501 748.14 501 747.079V585.204C501 581.778 503.778 579 507.204 579H693.796C697.222 579 700 581.778 700 585.204V747.079Z" fill="#00C176"/>
<path d="M501 585.204C501 581.778 503.778 579 507.204 579H693.796C697.222 579 700 581.778 700 585.204V607.54H501V585.204Z" fill="#CCCCCC"/>
<path fill-rule="evenodd" clip-rule="evenodd" d="M522.095 594.511C522.095 597.595 519.595 600.095 516.511 600.095C513.427 600.095 510.927 597.595 510.927 594.511C510.927 591.426 513.427 588.927 516.511 588.927C519.595 588.927 522.095 591.426 522.095 594.511Z" fill="#E74C3C"/>
<path fill-rule="evenodd" clip-rule="evenodd" d="M541.949 594.511C541.949 597.595 539.449 600.095 536.365 600.095C533.281 600.095 530.781 597.595 530.781 594.511C530.781 591.426 533.281 588.927 536.365 588.927C539.449 588.927 541.949 591.426 541.949 594.511Z" fill="#F1C40F"/>
<path fill-rule="evenodd" clip-rule="evenodd" d="M560.562 594.511C560.562 597.595 558.062 600.095 554.978 600.095C551.894 600.095 549.394 597.595 549.394 594.511C549.394 591.426 551.894 588.927 554.978 588.927C558.062 588.927 560.562 591.426 560.562 594.511Z" fill="#2ECC71"/>
<path fill-rule="evenodd" clip-rule="evenodd" d="M327 377.068C327 378.135 326.374 379 325.601 379H128.399C127.626 379 127 378.135 127 377.068V213C127 210.239 129.239 208 132 208H322C324.761 208 327 210.239 327 213V377.068Z" fill="#FF003C"/>
<path d="M127 213C127 210.239 129.239 208 132 208H322C324.761 208 327 210.239 327 213V231H127V213Z" fill="#CCCCCC"/>
<path fill-rule="evenodd" clip-rule="evenodd" d="M144 220.5C144 222.986 141.986 225 139.5 225C137.014 225 135 222.986 135 220.5C135 218.014 137.014 216 139.5 216C141.986 216 144 218.014 144 220.5Z" fill="#E74C3C"/>
<path fill-rule="evenodd" clip-rule="evenodd" d="M160 220.5C160 222.986 157.986 225 155.5 225C153.014 225 151 222.986 151 220.5C151 218.014 153.014 216 155.5 216C157.986 216 160 218.014 160 220.5Z" fill="#F1C40F"/>
<path fill-rule="evenodd" clip-rule="evenodd" d="M175 220.5C175 222.986 172.986 225 170.5 225C168.014 225 166 222.986 166 220.5C166 218.014 168.014 216 170.5 216C172.986 216 175 218.014 175 220.5Z" fill="#2ECC71"/>
<path d="M136.264 199H139.339V194.284H141.925C145.27 194.284 147.216 192.288 147.216 189.384C147.216 186.493 145.305 184.455 142.003 184.455H136.264V199ZM139.339 191.82V186.969H141.413C143.189 186.969 144.048 187.935 144.048 189.384C144.048 190.825 143.189 191.82 141.428 191.82H139.339ZM153.91 199.213C157.219 199.213 159.279 196.947 159.279 193.588C159.279 190.207 157.219 187.949 153.91 187.949C150.6 187.949 148.54 190.207 148.54 193.588C148.54 196.947 150.6 199.213 153.91 199.213ZM153.924 196.869C152.397 196.869 151.616 195.47 151.616 193.567C151.616 191.663 152.397 190.257 153.924 190.257C155.423 190.257 156.204 191.663 156.204 193.567C156.204 195.47 155.423 196.869 153.924 196.869ZM165.266 199.178C167.028 199.178 167.944 198.162 168.363 197.253H168.491V199H171.474V184.455H168.455V189.923H168.363C167.958 189.036 167.085 187.949 165.259 187.949C162.866 187.949 160.842 189.81 160.842 193.56C160.842 197.21 162.781 199.178 165.266 199.178ZM166.225 196.77C164.741 196.77 163.931 195.449 163.931 193.545C163.931 191.656 164.727 190.357 166.225 190.357C167.695 190.357 168.519 191.599 168.519 193.545C168.519 195.491 167.681 196.77 166.225 196.77ZM184.89 184.455H181.999L178.398 186.734V189.462L181.729 187.374H181.815V199H184.89V184.455Z" fill="#4A4A4A"/>
<path fill-rule="evenodd" clip-rule="evenodd" d="M1072 377.068C1072 378.135 1071.37 379 1070.6 379H873.399C872.626 379 872 378.135 872 377.068V213C872 210.239 874.239 208 877 208H1067C1069.76 208 1072 210.239 1072 213V377.068Z" fill="#FABE28"/>
<path d="M872 213C872 210.239 874.239 208 877 208H1067C1069.76 208 1072 210.239 1072 213V231H872V213Z" fill="#CCCCCC"/>
<path fill-rule="evenodd" clip-rule="evenodd" d="M889 220.5C889 222.986 886.986 225 884.5 225C882.014 225 880 222.986 880 220.5C880 218.014 882.014 216 884.5 216C886.986 216 889 218.014 889 220.5Z" fill="#E74C3C"/>
<path fill-rule="evenodd" clip-rule="evenodd" d="M905 220.5C905 222.986 902.986 225 900.5 225C898.014 225 896 222.986 896 220.5C896 218.014 898.014 216 900.5 216C902.986 216 905 218.014 905 220.5Z" fill="#F1C40F"/>
<path fill-rule="evenodd" clip-rule="evenodd" d="M920 220.5C920 222.986 917.986 225 915.5 225C913.014 225 911 222.986 911 220.5C911 218.014 913.014 216 915.5 216C917.986 216 920 218.014 920 220.5Z" fill="#2ECC71"/>
<path d="M881.264 199H884.339V194.284H886.925C890.27 194.284 892.216 192.288 892.216 189.384C892.216 186.493 890.305 184.455 887.003 184.455H881.264V199ZM884.339 191.82V186.969H886.413C888.189 186.969 889.048 187.935 889.048 189.384C889.048 190.825 888.189 191.82 886.428 191.82H884.339ZM898.91 199.213C902.219 199.213 904.279 196.947 904.279 193.588C904.279 190.207 902.219 187.949 898.91 187.949C895.6 187.949 893.54 190.207 893.54 193.588C893.54 196.947 895.6 199.213 898.91 199.213ZM898.924 196.869C897.397 196.869 896.616 195.47 896.616 193.567C896.616 191.663 897.397 190.257 898.924 190.257C900.423 190.257 901.204 191.663 901.204 193.567C901.204 195.47 900.423 196.869 898.924 196.869ZM910.266 199.178C912.028 199.178 912.944 198.162 913.363 197.253H913.491V199H916.474V184.455H913.455V189.923H913.363C912.958 189.036 912.085 187.949 910.259 187.949C907.866 187.949 905.842 189.81 905.842 193.56C905.842 197.21 907.781 199.178 910.266 199.178ZM911.225 196.77C909.741 196.77 908.931 195.449 908.931 193.545C908.931 191.656 909.727 190.357 911.225 190.357C912.695 190.357 913.519 191.599 913.519 193.545C913.519 195.491 912.681 196.77 911.225 196.77ZM928.938 199.199C932.205 199.199 934.542 197.402 934.535 194.916C934.542 193.105 933.391 191.812 931.254 191.543V191.429C932.88 191.138 934.002 189.987 933.995 188.354C934.002 186.06 931.992 184.256 928.981 184.256C925.998 184.256 923.754 186.003 923.711 188.517H926.658C926.694 187.409 927.71 186.692 928.967 186.692C930.21 186.692 931.04 187.445 931.033 188.538C931.04 189.682 930.067 190.456 928.668 190.456H927.312V192.714H928.668C930.316 192.714 931.346 193.538 931.339 194.71C931.346 195.868 930.352 196.663 928.945 196.663C927.589 196.663 926.573 195.953 926.516 194.888H923.42C923.469 197.43 925.742 199.199 928.938 199.199Z" fill="#4A4A4A"/>
<path d="M72 470H1128" stroke="#F0F0F0" stroke-width="17"/>
<path d="M501 694H188V379" stroke="#00C176" stroke-width="13" stroke-dasharray="12"/>
<path d="M502 644H268V379" stroke="#FF3C00" stroke-width="13" stroke-dasharray="12"/>
<path d="M701 694H1014V379" stroke="#00C176" stroke-width="13" stroke-dasharray="12"/>
<path d="M700 644H934V379" stroke="#FF3C00" stroke-width="13" stroke-dasharray="12"/>
<path d="M872 268H327" stroke="#00C176" stroke-width="13" stroke-dasharray="12"/>
<path d="M872 328H327" stroke="#00C176" stroke-width="13" stroke-dasharray="12"/>
<path d="M873.466 799.386C873.48 796.574 875.156 794.926 877.599 794.926C880.028 794.926 881.491 796.517 881.477 799.188V812H887.528V798.108C887.528 793.023 884.545 789.898 880 789.898C876.761 789.898 874.418 791.489 873.438 794.031H873.182V790.182H867.415V812H873.466V799.386ZM902.127 820.636C908.363 820.636 912.795 817.795 912.795 812.213V790.182H906.786V793.847H906.559C905.749 792.071 903.974 789.898 900.323 789.898C895.536 789.898 891.488 793.619 891.488 801.048C891.488 808.307 895.423 811.688 900.337 811.688C903.817 811.688 905.763 809.94 906.559 808.136H906.815V812.128C906.815 815.125 904.897 816.29 902.269 816.29C899.599 816.29 898.249 815.125 897.752 813.804L892.156 814.557C892.88 817.994 896.246 820.636 902.127 820.636ZM902.255 807.142C899.286 807.142 897.667 804.784 897.667 801.02C897.667 797.312 899.258 794.713 902.255 794.713C905.195 794.713 906.843 797.199 906.843 801.02C906.843 804.869 905.167 807.142 902.255 807.142ZM917.61 812H923.661V790.182H917.61V812ZM920.65 787.369C922.454 787.369 923.931 785.991 923.931 784.301C923.931 782.625 922.454 781.247 920.65 781.247C918.86 781.247 917.383 782.625 917.383 784.301C917.383 785.991 918.86 787.369 920.65 787.369ZM934.56 799.386C934.574 796.574 936.25 794.926 938.693 794.926C941.122 794.926 942.585 796.517 942.571 799.188V812H948.622V798.108C948.622 793.023 945.639 789.898 941.094 789.898C937.855 789.898 935.511 791.489 934.531 794.031H934.276V790.182H928.509V812H934.56V799.386ZM958.448 790.182H952.198L958.448 801.091L951.971 812H958.221L962.454 804.457L966.758 812H972.937L966.445 801.091L972.766 790.182H966.559L962.454 797.81L958.448 790.182ZM989.055 797.653H975.788V802.455H989.055V797.653ZM994.212 812H1000.26V790.182H994.212V812ZM997.251 787.369C999.055 787.369 1000.53 785.991 1000.53 784.301C1000.53 782.625 999.055 781.247 997.251 781.247C995.462 781.247 993.984 782.625 993.984 784.301C993.984 785.991 995.462 787.369 997.251 787.369ZM1011.16 799.386C1011.18 796.574 1012.85 794.926 1015.29 794.926C1017.72 794.926 1019.19 796.517 1019.17 799.188V812H1025.22V798.108C1025.22 793.023 1022.24 789.898 1017.7 789.898C1014.46 789.898 1012.11 791.489 1011.13 794.031H1010.88V790.182H1005.11V812H1011.16V799.386ZM1039.82 820.636C1046.06 820.636 1050.49 817.795 1050.49 812.213V790.182H1044.48V793.847H1044.25C1043.44 792.071 1041.67 789.898 1038.02 789.898C1033.23 789.898 1029.18 793.619 1029.18 801.048C1029.18 808.307 1033.12 811.688 1038.03 811.688C1041.51 811.688 1043.46 809.94 1044.25 808.136H1044.51V812.128C1044.51 815.125 1042.59 816.29 1039.96 816.29C1037.29 816.29 1035.94 815.125 1035.45 813.804L1029.85 814.557C1030.58 817.994 1033.94 820.636 1039.82 820.636ZM1039.95 807.142C1036.98 807.142 1035.36 804.784 1035.36 801.02C1035.36 797.312 1036.95 794.713 1039.95 794.713C1042.89 794.713 1044.54 797.199 1044.54 801.02C1044.54 804.869 1042.86 807.142 1039.95 807.142ZM1055.31 812H1061.36V799.656C1061.36 796.972 1063.32 795.125 1065.99 795.125C1066.83 795.125 1067.98 795.267 1068.54 795.452V790.082C1068 789.955 1067.25 789.869 1066.64 789.869C1064.2 789.869 1062.19 791.29 1061.4 793.989H1061.17V790.182H1055.31V812ZM1080.6 812.426C1086 812.426 1089.63 809.798 1090.49 805.75L1084.89 805.381C1084.28 807.043 1082.72 807.909 1080.7 807.909C1077.67 807.909 1075.76 805.906 1075.76 802.653V802.639H1090.61V800.977C1090.61 793.562 1086.13 789.898 1080.36 789.898C1073.94 789.898 1069.78 794.457 1069.78 801.19C1069.78 808.108 1073.88 812.426 1080.6 812.426ZM1075.76 798.889C1075.88 796.403 1077.77 794.415 1080.46 794.415C1083.09 794.415 1084.9 796.29 1084.92 798.889H1075.76ZM1112.72 796.403C1112.18 792.384 1108.94 789.898 1103.43 789.898C1097.84 789.898 1094.17 792.483 1094.18 796.688C1094.17 799.955 1096.23 802.071 1100.49 802.923L1104.26 803.676C1106.17 804.06 1107.03 804.756 1107.06 805.849C1107.03 807.142 1105.63 808.065 1103.51 808.065C1101.35 808.065 1099.92 807.142 1099.55 805.366L1093.6 805.679C1094.17 809.855 1097.72 812.426 1103.5 812.426C1109.15 812.426 1113.2 809.543 1113.21 805.239C1113.2 802.085 1111.14 800.196 1106.91 799.33L1102.96 798.534C1100.93 798.094 1100.17 797.398 1100.19 796.347C1100.17 795.04 1101.65 794.188 1103.53 794.188C1105.63 794.188 1106.88 795.338 1107.18 796.744L1112.72 796.403ZM1135.18 796.403C1134.64 792.384 1131.4 789.898 1125.89 789.898C1120.31 789.898 1116.63 792.483 1116.64 796.688C1116.63 799.955 1118.69 802.071 1122.95 802.923L1126.73 803.676C1128.63 804.06 1129.5 804.756 1129.52 805.849C1129.5 807.142 1128.09 808.065 1125.97 808.065C1123.81 808.065 1122.38 807.142 1122.01 805.366L1116.06 805.679C1116.63 809.855 1120.18 812.426 1125.96 812.426C1131.61 812.426 1135.66 809.543 1135.67 805.239C1135.66 802.085 1133.6 800.196 1129.37 799.33L1125.42 798.534C1123.39 798.094 1122.63 797.398 1122.65 796.347C1122.63 795.04 1124.11 794.188 1125.99 794.188C1128.09 794.188 1129.34 795.338 1129.64 796.744L1135.18 796.403Z" fill="black"/>
<path d="M878.43 825.455H875.369V834.602H875.241L868.963 825.455H866.264V840H869.339V830.845H869.446L875.774 840H878.43V825.455ZM883.478 840L884.558 836.683H889.806L890.886 840H894.181L889.167 825.455H885.204L880.183 840H883.478ZM885.339 834.283L887.129 828.778H887.243L889.032 834.283H885.339ZM895.932 825.455V840H898.915V830.497H899.036L902.8 839.929H904.831L908.596 830.533H908.716V840H911.699V825.455H907.907L903.901 835.227H903.73L899.725 825.455H895.932ZM914.233 840H924.062V837.464H917.308V833.991H923.53V831.456H917.308V827.99H924.034V825.455H914.233V840ZM934.37 829.638H937.317C937.275 827.045 935.144 825.256 931.905 825.256C928.716 825.256 926.38 827.017 926.394 829.659C926.387 831.804 927.9 833.033 930.357 833.622L931.941 834.02C933.525 834.403 934.405 834.858 934.412 835.838C934.405 836.903 933.397 837.628 931.834 837.628C930.236 837.628 929.086 836.889 928.986 835.433H926.01C926.088 838.58 928.34 840.206 931.87 840.206C935.421 840.206 937.509 838.509 937.516 835.845C937.509 833.423 935.684 832.138 933.155 831.57L931.848 831.257C930.584 830.966 929.526 830.497 929.547 829.453C929.547 828.516 930.378 827.827 931.884 827.827C933.354 827.827 934.256 828.494 934.37 829.638ZM939.585 840H942.66V835.284H945.245C948.59 835.284 950.536 833.288 950.536 830.384C950.536 827.493 948.626 825.455 945.323 825.455H939.585V840ZM942.66 832.82V827.969H944.734C946.509 827.969 947.369 828.935 947.369 830.384C947.369 831.825 946.509 832.82 944.748 832.82H942.66ZM953.361 840L954.441 836.683H959.689L960.769 840H964.064L959.05 825.455H955.087L950.066 840H953.361ZM955.222 834.283L957.012 828.778H957.125L958.915 834.283H955.222ZM977.965 830.547C977.56 827.188 975.018 825.256 971.651 825.256C967.809 825.256 964.876 827.969 964.876 832.727C964.876 837.472 967.759 840.199 971.651 840.199C975.38 840.199 977.631 837.72 977.965 835.043L974.854 835.028C974.563 836.584 973.342 837.479 971.701 837.479C969.492 837.479 967.994 835.838 967.994 832.727C967.994 829.702 969.471 827.976 971.722 827.976C973.406 827.976 974.62 828.949 974.854 830.547H977.965ZM980.17 840H990V837.464H983.246V833.991H989.467V831.456H983.246V827.99H989.972V825.455H980.17V840Z" fill="#C2C2C2"/>
<path d="M875.455 73.3551C878.977 73.3551 880.81 71.3239 881.648 69.5057H881.903V73H887.869V43.9091H881.832V54.8466H881.648C880.838 53.071 879.091 50.8977 875.44 50.8977C870.653 50.8977 866.605 54.6193 866.605 62.1193C866.605 69.4205 870.483 73.3551 875.455 73.3551ZM877.372 68.5398C874.403 68.5398 872.784 65.8977 872.784 62.0909C872.784 58.3125 874.375 55.7131 877.372 55.7131C880.312 55.7131 881.96 58.1989 881.96 62.0909C881.96 65.983 880.284 68.5398 877.372 68.5398ZM902.788 73.4261C908.185 73.4261 911.822 70.7983 912.674 66.75L907.077 66.3807C906.467 68.0426 904.904 68.9091 902.887 68.9091C899.862 68.9091 897.944 66.9062 897.944 63.6534V63.6392H912.802V61.9773C912.802 54.5625 908.313 50.8977 902.546 50.8977C896.126 50.8977 891.964 55.4574 891.964 62.1903C891.964 69.108 896.069 73.4261 902.788 73.4261ZM897.944 59.8892C898.072 57.4034 899.961 55.4148 902.646 55.4148C905.273 55.4148 907.092 57.2898 907.106 59.8892H897.944ZM928.484 51.1818H924.151V49.7188C924.151 48.2415 924.748 47.375 926.523 47.375C927.248 47.375 927.987 47.5312 928.469 47.6875L929.535 43.142C928.782 42.9148 927.12 42.5455 925.259 42.5455C921.154 42.5455 918.1 44.8608 918.1 49.6051V51.1818H915.018V55.7273H918.1V73H924.151V55.7273H928.484V51.1818ZM937.621 73.4119C940.845 73.4119 942.933 72.0057 943.999 69.9744H944.169V73H949.908V58.2841C949.908 53.0852 945.504 50.8977 940.646 50.8977C935.419 50.8977 931.982 53.3977 931.143 57.375L936.74 57.8295C937.152 56.3807 938.445 55.3153 940.618 55.3153C942.678 55.3153 943.857 56.3523 943.857 58.142V58.2273C943.857 59.6335 942.365 59.8182 938.572 60.1875C934.254 60.5852 930.376 62.0341 930.376 66.9062C930.376 71.2244 933.459 73.4119 937.621 73.4119ZM939.354 69.2358C937.493 69.2358 936.158 68.3693 936.158 66.7074C936.158 65.0028 937.564 64.1648 939.695 63.8665C941.016 63.6818 943.175 63.3693 943.899 62.8864V65.2017C943.899 67.4886 942.01 69.2358 939.354 69.2358ZM968.594 63.7102C968.608 66.6364 966.605 68.1705 964.432 68.1705C962.145 68.1705 960.668 66.5653 960.653 63.9943V51.1818H954.602V65.0739C954.616 70.1733 957.599 73.2841 961.989 73.2841C965.27 73.2841 967.628 71.5938 968.608 69.0369H968.835V73H974.645V51.1818H968.594V63.7102ZM985.536 43.9091H979.485V73H985.536V43.9091ZM1001.99 51.1818H997.884V45.9545H991.832V51.1818H988.849V55.7273H991.832V67.0909C991.804 71.3665 994.716 73.483 999.105 73.2983C1000.67 73.2415 1001.78 72.929 1002.39 72.7301L1001.43 68.2273C1001.14 68.2841 1000.5 68.4261 999.929 68.4261C998.722 68.4261 997.884 67.9716 997.884 66.2955V55.7273H1001.99V51.1818Z" fill="black"/>
<path d="M878.43 86.4545H875.369V95.6023H875.241L868.963 86.4545H866.264V101H869.339V91.8452H869.446L875.774 101H878.43V86.4545ZM883.478 101L884.558 97.6832H889.806L890.886 101H894.181L889.167 86.4545H885.204L880.183 101H883.478ZM885.339 95.2827L887.129 89.7784H887.243L889.032 95.2827H885.339ZM895.932 86.4545V101H898.915V91.4972H899.036L902.8 100.929H904.831L908.596 91.5327H908.716V101H911.699V86.4545H907.907L903.901 96.2273H903.73L899.725 86.4545H895.932ZM914.233 101H924.062V98.4645H917.308V94.9915H923.53V92.456H917.308V88.9901H924.034V86.4545H914.233V101ZM934.37 90.6378H937.317C937.275 88.0455 935.144 86.2557 931.905 86.2557C928.716 86.2557 926.38 88.017 926.394 90.6591C926.387 92.804 927.9 94.0327 930.357 94.6222L931.941 95.0199C933.525 95.4034 934.405 95.858 934.412 96.8381C934.405 97.9034 933.397 98.6278 931.834 98.6278C930.236 98.6278 929.086 97.8892 928.986 96.4332H926.01C926.088 99.5795 928.34 101.206 931.87 101.206C935.421 101.206 937.509 99.5085 937.516 96.8452C937.509 94.4233 935.684 93.1378 933.155 92.5696L931.848 92.2571C930.584 91.9659 929.526 91.4972 929.547 90.4531C929.547 89.5156 930.378 88.8267 931.884 88.8267C933.354 88.8267 934.256 89.4943 934.37 90.6378ZM939.585 101H942.66V96.2841H945.245C948.59 96.2841 950.536 94.2884 950.536 91.3835C950.536 88.4929 948.626 86.4545 945.323 86.4545H939.585V101ZM942.66 93.8196V88.9688H944.734C946.509 88.9688 947.369 89.9347 947.369 91.3835C947.369 92.8253 946.509 93.8196 944.748 93.8196H942.66ZM953.361 101L954.441 97.6832H959.689L960.769 101H964.064L959.05 86.4545H955.087L950.066 101H953.361ZM955.222 95.2827L957.012 89.7784H957.125L958.915 95.2827H955.222ZM977.965 91.5469C977.56 88.1875 975.018 86.2557 971.651 86.2557C967.809 86.2557 964.876 88.9688 964.876 93.7273C964.876 98.4716 967.759 101.199 971.651 101.199C975.38 101.199 977.631 98.7202 977.965 96.0426L974.854 96.0284C974.563 97.5838 973.342 98.4787 971.701 98.4787C969.492 98.4787 967.994 96.8381 967.994 93.7273C967.994 90.7017 969.471 88.9759 971.722 88.9759C973.406 88.9759 974.62 89.9489 974.854 91.5469H977.965ZM980.17 101H990V98.4645H983.246V94.9915H989.467V92.456H983.246V88.9901H989.972V86.4545H980.17V101Z" fill="#C2C2C2"/>
<circle cx="335" cy="425" r="26" fill="white"/>
<path fill-rule="evenodd" clip-rule="evenodd" d="M335 391C344.067 391 352.594 394.562 359.071 400.93C365.439 407.298 369 415.933 369 425C369 434.067 365.439 442.594 359.071 449.07C352.594 455.439 344.067 459 335 459C325.933 459 317.406 455.439 310.93 449.07C304.562 442.701 301 434.067 301 425C301 415.933 304.562 407.406 310.93 400.93C317.299 394.562 325.933 391 335 391ZM344.067 440.219L350.219 434.067L341.153 425L350.219 415.933L344.067 409.781L335 418.848L325.933 409.781L319.781 415.933L328.848 425L319.781 434.067L325.933 440.219L335 431.152L344.067 440.219Z" fill="#FF003C"/>
<circle cx="874" cy="425" r="26" fill="white"/>
<path fill-rule="evenodd" clip-rule="evenodd" d="M874 391C883.067 391 891.594 394.562 898.071 400.93C904.439 407.298 908 415.933 908 425C908 434.067 904.439 442.594 898.071 449.07C891.594 455.439 883.067 459 874 459C864.933 459 856.406 455.439 849.93 449.07C843.562 442.701 840 434.067 840 425C840 415.933 843.562 407.406 849.93 400.93C856.299 394.562 864.933 391 874 391ZM883.067 440.219L889.219 434.067L880.153 425L889.219 415.933L883.067 409.781L874 418.848L864.933 409.781L858.781 415.933L867.848 425L858.781 434.067L864.933 440.219L874 431.152L883.067 440.219Z" fill="#FF003C"/>
</svg>
