<svg width="1200" height="900" viewBox="0 0 1200 900" fill="none" xmlns="http://www.w3.org/2000/svg">
<rect width="1200" height="900" fill="white"/>
<g clip-path="url(#clip0_16_4164)">
<path d="M715.339 47.4545H712.264V62H715.339V47.4545ZM720.838 55.6932C720.846 54.2869 721.684 53.4631 722.905 53.4631C724.12 53.4631 724.851 54.2585 724.844 55.5938V62H727.87V55.054C727.87 52.5114 726.378 50.9489 724.105 50.9489C722.486 50.9489 721.314 51.7443 720.824 53.0156H720.696V51.0909H717.813V62H720.838V55.6932ZM735.169 66.3182C738.287 66.3182 740.503 64.8977 740.503 62.1065V51.0909H737.499V52.9233H737.385C736.98 52.0355 736.092 50.9489 734.267 50.9489C731.874 50.9489 729.849 52.8097 729.849 56.5241C729.849 60.1534 731.817 61.8438 734.274 61.8438C736.014 61.8438 736.987 60.9702 737.385 60.0682H737.513V62.0639C737.513 63.5625 736.554 64.1449 735.24 64.1449C733.905 64.1449 733.23 63.5625 732.982 62.902L730.183 63.2784C730.545 64.9972 732.229 66.3182 735.169 66.3182ZM735.233 59.571C733.749 59.571 732.939 58.392 732.939 56.5099C732.939 54.6562 733.734 53.3565 735.233 53.3565C736.703 53.3565 737.527 54.5994 737.527 56.5099C737.527 58.4347 736.689 59.571 735.233 59.571ZM742.911 62H745.936V55.8281C745.936 54.4858 746.916 53.5625 748.251 53.5625C748.67 53.5625 749.246 53.6335 749.53 53.7259V51.0412C749.26 50.9773 748.884 50.9347 748.578 50.9347C747.357 50.9347 746.355 51.6449 745.957 52.9943H745.844V51.0909H742.911V62ZM755.558 62.2131C758.257 62.2131 760.075 60.8991 760.501 58.875L757.703 58.6903C757.397 59.5213 756.616 59.9545 755.608 59.9545C754.095 59.9545 753.136 58.9531 753.136 57.3267V57.3196H760.565V56.4886C760.565 52.7812 758.321 50.9489 755.437 50.9489C752.227 50.9489 750.146 53.2287 750.146 56.5952C750.146 60.054 752.199 62.2131 755.558 62.2131ZM753.136 55.4446C753.2 54.2017 754.145 53.2074 755.487 53.2074C756.801 53.2074 757.71 54.1449 757.717 55.4446H753.136ZM771.616 54.2017C771.346 52.1918 769.727 50.9489 766.971 50.9489C764.18 50.9489 762.341 52.2415 762.348 54.3438C762.341 55.9773 763.37 57.0355 765.501 57.4616L767.39 57.8381C768.342 58.0298 768.775 58.3778 768.789 58.9247C768.775 59.571 768.072 60.0327 767.014 60.0327C765.934 60.0327 765.217 59.571 765.032 58.6832L762.056 58.8395C762.341 60.9276 764.116 62.2131 767.007 62.2131C769.833 62.2131 771.858 60.7713 771.865 58.6193C771.858 57.0426 770.828 56.098 768.711 55.6648L766.737 55.267C765.721 55.0469 765.345 54.6989 765.352 54.1733C765.345 53.5199 766.083 53.0938 767.021 53.0938C768.072 53.0938 768.697 53.669 768.846 54.3722L771.616 54.2017ZM782.847 54.2017C782.577 52.1918 780.957 50.9489 778.202 50.9489C775.411 50.9489 773.571 52.2415 773.578 54.3438C773.571 55.9773 774.601 57.0355 776.732 57.4616L778.621 57.8381C779.572 58.0298 780.006 58.3778 780.02 58.9247C780.006 59.571 779.303 60.0327 778.244 60.0327C777.165 60.0327 776.447 59.571 776.263 58.6832L773.287 58.8395C773.571 60.9276 775.347 62.2131 778.237 62.2131C781.064 62.2131 783.088 60.7713 783.095 58.6193C783.088 57.0426 782.058 56.098 779.942 55.6648L777.967 55.267C776.952 55.0469 776.575 54.6989 776.582 54.1733C776.575 53.5199 777.314 53.0938 778.251 53.0938C779.303 53.0938 779.928 53.669 780.077 54.3722L782.847 54.2017ZM789.686 62H792.761V57.2841H795.347C798.692 57.2841 800.638 55.2884 800.638 52.3835C800.638 49.4929 798.727 47.4545 795.425 47.4545H789.686V62ZM792.761 54.8196V49.9688H794.835C796.611 49.9688 797.47 50.9347 797.47 52.3835C797.47 53.8253 796.611 54.8196 794.849 54.8196H792.761ZM807.332 62.2131C810.641 62.2131 812.701 59.9474 812.701 56.5881C812.701 53.2074 810.641 50.9489 807.332 50.9489C804.022 50.9489 801.962 53.2074 801.962 56.5881C801.962 59.9474 804.022 62.2131 807.332 62.2131ZM807.346 59.8693C805.819 59.8693 805.038 58.4702 805.038 56.5668C805.038 54.6634 805.819 53.2571 807.346 53.2571C808.844 53.2571 809.626 54.6634 809.626 56.5668C809.626 58.4702 808.844 59.8693 807.346 59.8693ZM818.688 62.1776C820.45 62.1776 821.366 61.1619 821.785 60.2528H821.913V62H824.896V47.4545H821.877V52.9233H821.785C821.38 52.0355 820.506 50.9489 818.681 50.9489C816.288 50.9489 814.263 52.8097 814.263 56.5597C814.263 60.2102 816.202 62.1776 818.688 62.1776ZM819.647 59.7699C818.163 59.7699 817.353 58.4489 817.353 56.5455C817.353 54.6562 818.148 53.3565 819.647 53.3565C821.117 53.3565 821.941 54.5994 821.941 56.5455C821.941 58.4915 821.103 59.7699 819.647 59.7699Z" fill="#4A4A4A"/>
</g>
<path d="M918 231C920.761 231 923 233.239 923 236V256H277V236C277 233.239 279.239 231 282 231H918Z" fill="#D2D2D2"/>
<rect x="284" y="237" width="4" height="4" fill="#A3A3A3"/>
<rect x="290" y="237" width="4" height="4" fill="#A3A3A3"/>
<rect x="296" y="237" width="4" height="4" fill="#A3A3A3"/>
<path d="M918 625C920.761 625 923 627.239 923 630V650H277V630C277 627.239 279.239 625 282 625H918Z" fill="#D2D2D2"/>
<rect x="284" y="631" width="4" height="4" fill="#A3A3A3"/>
<rect x="290" y="631" width="4" height="4" fill="#A3A3A3"/>
<rect x="296" y="631" width="4" height="4" fill="#A3A3A3"/>
<g clip-path="url(#clip1_16_4164)">
<path fill-rule="evenodd" clip-rule="evenodd" d="M477 510.068C477 511.135 476.374 512 475.601 512H278.399C277.626 512 277 511.135 277 510.068V346C277 343.239 279.239 341 282 341H472C474.761 341 477 343.239 477 346V510.068Z" fill="#FF003C"/>
<path d="M277 346C277 343.239 279.239 341 282 341H472C474.761 341 477 343.239 477 346V364H277V346Z" fill="#CCCCCC"/>
<path fill-rule="evenodd" clip-rule="evenodd" d="M294 353.5C294 355.986 291.986 358 289.5 358C287.014 358 285 355.986 285 353.5C285 351.014 287.014 349 289.5 349C291.986 349 294 351.014 294 353.5Z" fill="#E74C3C"/>
<path fill-rule="evenodd" clip-rule="evenodd" d="M310 353.5C310 355.986 307.986 358 305.5 358C303.014 358 301 355.986 301 353.5C301 351.014 303.014 349 305.5 349C307.986 349 310 351.014 310 353.5Z" fill="#F1C40F"/>
<path fill-rule="evenodd" clip-rule="evenodd" d="M325 353.5C325 355.986 322.986 358 320.5 358C318.014 358 316 355.986 316 353.5C316 351.014 318.014 349 320.5 349C322.986 349 325 351.014 325 353.5Z" fill="#2ECC71"/>
<path d="M286.264 327H289.339V322.284H291.925C295.27 322.284 297.216 320.288 297.216 317.384C297.216 314.493 295.305 312.455 292.003 312.455H286.264V327ZM289.339 319.82V314.969H291.413C293.189 314.969 294.048 315.935 294.048 317.384C294.048 318.825 293.189 319.82 291.428 319.82H289.339ZM303.91 327.213C307.219 327.213 309.279 324.947 309.279 321.588C309.279 318.207 307.219 315.949 303.91 315.949C300.6 315.949 298.54 318.207 298.54 321.588C298.54 324.947 300.6 327.213 303.91 327.213ZM303.924 324.869C302.397 324.869 301.616 323.47 301.616 321.567C301.616 319.663 302.397 318.257 303.924 318.257C305.423 318.257 306.204 319.663 306.204 321.567C306.204 323.47 305.423 324.869 303.924 324.869ZM315.266 327.178C317.028 327.178 317.944 326.162 318.363 325.253H318.491V327H321.474V312.455H318.455V317.923H318.363C317.958 317.036 317.085 315.949 315.259 315.949C312.866 315.949 310.842 317.81 310.842 321.56C310.842 325.21 312.781 327.178 315.266 327.178ZM316.225 324.77C314.741 324.77 313.931 323.449 313.931 321.545C313.931 319.656 314.727 318.357 316.225 318.357C317.695 318.357 318.519 319.599 318.519 321.545C318.519 323.491 317.681 324.77 316.225 324.77ZM334.89 312.455H331.999L328.398 314.734V317.462L331.729 315.374H331.815V327H334.89V312.455Z" fill="#4A4A4A"/>
</g>
<path fill-rule="evenodd" clip-rule="evenodd" d="M701 510.068C701 511.135 700.374 512 699.601 512H502.399C501.626 512 501 511.135 501 510.068V346C501 343.239 503.239 341 506 341H696C698.761 341 701 343.239 701 346V510.068Z" fill="#FF003C"/>
<path d="M501 346C501 343.239 503.239 341 506 341H696C698.761 341 701 343.239 701 346V364H501V346Z" fill="#CCCCCC"/>
<path fill-rule="evenodd" clip-rule="evenodd" d="M518 353.5C518 355.986 515.986 358 513.5 358C511.014 358 509 355.986 509 353.5C509 351.014 511.014 349 513.5 349C515.986 349 518 351.014 518 353.5Z" fill="#E74C3C"/>
<path fill-rule="evenodd" clip-rule="evenodd" d="M534 353.5C534 355.986 531.986 358 529.5 358C527.014 358 525 355.986 525 353.5C525 351.014 527.014 349 529.5 349C531.986 349 534 351.014 534 353.5Z" fill="#F1C40F"/>
<path fill-rule="evenodd" clip-rule="evenodd" d="M549 353.5C549 355.986 546.986 358 544.5 358C542.014 358 540 355.986 540 353.5C540 351.014 542.014 349 544.5 349C546.986 349 549 351.014 549 353.5Z" fill="#2ECC71"/>
<path d="M507.264 327H510.339V322.284H512.925C516.27 322.284 518.216 320.288 518.216 317.384C518.216 314.493 516.305 312.455 513.003 312.455H507.264V327ZM510.339 319.82V314.969H512.413C514.189 314.969 515.048 315.935 515.048 317.384C515.048 318.825 514.189 319.82 512.428 319.82H510.339ZM524.91 327.213C528.219 327.213 530.279 324.947 530.279 321.588C530.279 318.207 528.219 315.949 524.91 315.949C521.6 315.949 519.54 318.207 519.54 321.588C519.54 324.947 521.6 327.213 524.91 327.213ZM524.924 324.869C523.397 324.869 522.616 323.47 522.616 321.567C522.616 319.663 523.397 318.257 524.924 318.257C526.423 318.257 527.204 319.663 527.204 321.567C527.204 323.47 526.423 324.869 524.924 324.869ZM536.266 327.178C538.028 327.178 538.944 326.162 539.363 325.253H539.491V327H542.474V312.455H539.455V317.923H539.363C538.958 317.036 538.085 315.949 536.259 315.949C533.866 315.949 531.842 317.81 531.842 321.56C531.842 325.21 533.781 327.178 536.266 327.178ZM537.225 324.77C535.741 324.77 534.931 323.449 534.931 321.545C534.931 319.656 535.727 318.357 537.225 318.357C538.695 318.357 539.519 319.599 539.519 321.545C539.519 323.491 538.681 324.77 537.225 324.77ZM549.562 327H559.931V324.486H553.823V324.386L555.947 322.305C558.937 319.578 559.739 318.214 559.739 316.56C559.739 314.038 557.68 312.256 554.562 312.256C551.508 312.256 549.413 314.081 549.42 316.936H552.339C552.332 315.544 553.212 314.692 554.54 314.692C555.819 314.692 556.771 315.487 556.771 316.766C556.771 317.923 556.06 318.719 554.739 319.99L549.562 324.784V327Z" fill="#4A4A4A"/>
<path d="M732.264 327H735.339V322.284H737.925C741.27 322.284 743.216 320.288 743.216 317.384C743.216 314.493 741.305 312.455 738.003 312.455H732.264V327ZM735.339 319.82V314.969H737.413C739.189 314.969 740.048 315.935 740.048 317.384C740.048 318.825 739.189 319.82 737.428 319.82H735.339ZM749.91 327.213C753.219 327.213 755.279 324.947 755.279 321.588C755.279 318.207 753.219 315.949 749.91 315.949C746.6 315.949 744.54 318.207 744.54 321.588C744.54 324.947 746.6 327.213 749.91 327.213ZM749.924 324.869C748.397 324.869 747.616 323.47 747.616 321.567C747.616 319.663 748.397 318.257 749.924 318.257C751.423 318.257 752.204 319.663 752.204 321.567C752.204 323.47 751.423 324.869 749.924 324.869ZM761.266 327.178C763.028 327.178 763.944 326.162 764.363 325.253H764.491V327H767.474V312.455H764.455V317.923H764.363C763.958 317.036 763.085 315.949 761.259 315.949C758.866 315.949 756.842 317.81 756.842 321.56C756.842 325.21 758.781 327.178 761.266 327.178ZM762.225 324.77C760.741 324.77 759.931 323.449 759.931 321.545C759.931 319.656 760.727 318.357 762.225 318.357C763.695 318.357 764.519 319.599 764.519 321.545C764.519 323.491 763.681 324.77 762.225 324.77ZM779.938 327.199C783.205 327.199 785.542 325.402 785.535 322.916C785.542 321.105 784.391 319.812 782.254 319.543V319.429C783.88 319.138 785.002 317.987 784.995 316.354C785.002 314.06 782.992 312.256 779.981 312.256C776.998 312.256 774.754 314.003 774.711 316.517H777.658C777.694 315.409 778.71 314.692 779.967 314.692C781.21 314.692 782.04 315.445 782.033 316.538C782.04 317.682 781.067 318.456 779.668 318.456H778.312V320.714H779.668C781.316 320.714 782.346 321.538 782.339 322.71C782.346 323.868 781.352 324.663 779.945 324.663C778.589 324.663 777.573 323.953 777.516 322.888H774.42C774.469 325.43 776.742 327.199 779.938 327.199Z" fill="#4A4A4A"/>
<path fill-rule="evenodd" clip-rule="evenodd" d="M698 173.509C698 174.332 697.374 175 696.601 175H499.399C498.626 175 498 174.332 498 173.509V48C498 45.2386 500.239 43 503 43H693C695.761 43 698 45.2386 698 48V173.509Z" fill="#F0F0F0"/>
<path d="M518.481 112.127V132.15C518.481 134.272 516.806 135.992 514.74 135.992C512.675 135.992 511 134.272 511 132.15V102.85C511 99.4268 515.029 97.7125 517.385 100.133L539.519 122.873V102.85C539.519 100.728 541.194 99.0077 543.26 99.0077C545.325 99.0077 547 100.728 547 102.85V132.15C547 135.573 542.971 137.287 540.615 134.867L518.481 112.127Z" fill="#009900"/>
<path d="M562.132 99L561.09 100.922L553.042 115.406L552 117.234L553.042 119.062L561.09 133.078L562.179 135H564.404H580.88H583.247L584.289 132.891L590.301 120.891L593 115.453H586.893L571.506 115.5C569.505 115.472 567.664 117.269 567.664 119.25C567.664 121.231 569.505 123.028 571.506 123L580.785 122.953L578.513 127.5H566.582L560.664 117.188L566.629 106.5H579.321L582.28 112.512H589.902L585.097 101.109L584.055 99H581.688H564.404H562.132Z" fill="#009900"/>
<path d="M599.95 99.0003C597.856 99.0256 595.974 100.892 596 102.918V113H604V102.918C604.026 100.86 602.078 98.9746 599.95 99.0003Z" fill="#009900"/>
<path d="M615.481 122.873V102.85C615.481 100.728 613.806 99.0077 611.74 99.0077C609.675 99.0077 608 100.728 608 102.85V132.15C608 135.573 612.029 137.287 614.385 134.867L636.519 112.127V132.15C636.519 134.272 638.194 135.992 640.26 135.992C642.325 135.992 644 134.272 644 132.15V102.85C644 99.4268 639.971 97.7125 637.615 100.133L615.481 122.873Z" fill="#009900"/>
<path d="M649.194 130.376L678.404 101.188C682.018 97.5772 687.419 103.013 683.806 106.624L654.596 135.812C650.982 139.423 645.581 133.987 649.194 130.376Z" fill="#009900"/>
<path d="M650.099 105.579C648.637 104.078 648.633 101.639 650.09 100.133C651.547 98.6261 653.913 98.6219 655.374 100.123L683.901 129.421C685.363 130.922 685.367 133.361 683.91 134.867C682.453 136.374 680.087 136.378 678.626 134.877L650.099 105.579Z" fill="#009900"/>
<path d="M599.95 136C597.856 135.975 595.974 134.119 596 132.104V116H604V132.104C604.026 134.151 602.078 136.025 599.95 136Z" fill="#009900"/>
<path d="M498 48C498 45.2386 500.239 43 503 43H693C695.761 43 698 45.2386 698 48V66H498V48Z" fill="#353535"/>
<path fill-rule="evenodd" clip-rule="evenodd" d="M515 55.5C515 57.9856 512.986 60 510.5 60C508.014 60 506 57.9856 506 55.5C506 53.0144 508.014 51 510.5 51C512.986 51 515 53.0144 515 55.5Z" fill="#E74C3C"/>
<path fill-rule="evenodd" clip-rule="evenodd" d="M531 55.5C531 57.9856 528.986 60 526.5 60C524.014 60 522 57.9856 522 55.5C522 53.0144 524.014 51 526.5 51C528.986 51 531 53.0144 531 55.5Z" fill="#F1C40F"/>
<path fill-rule="evenodd" clip-rule="evenodd" d="M546 55.5C546 57.9856 543.986 60 541.5 60C539.014 60 537 57.9856 537 55.5C537 53.0144 539.014 51 541.5 51C543.986 51 546 53.0144 546 55.5Z" fill="#2ECC71"/>
<path fill-rule="evenodd" clip-rule="evenodd" d="M923 510.068C923 511.135 922.374 512 921.601 512H724.399C723.626 512 723 511.135 723 510.068V346C723 343.239 725.239 341 728 341H918C920.761 341 923 343.239 923 346V510.068Z" fill="#FABE28"/>
<path d="M723 346C723 343.239 725.239 341 728 341H918C920.761 341 923 343.239 923 346V364H723V346Z" fill="#CCCCCC"/>
<path fill-rule="evenodd" clip-rule="evenodd" d="M740 353.5C740 355.986 737.986 358 735.5 358C733.014 358 731 355.986 731 353.5C731 351.014 733.014 349 735.5 349C737.986 349 740 351.014 740 353.5Z" fill="#E74C3C"/>
<path fill-rule="evenodd" clip-rule="evenodd" d="M756 353.5C756 355.986 753.986 358 751.5 358C749.014 358 747 355.986 747 353.5C747 351.014 749.014 349 751.5 349C753.986 349 756 351.014 756 353.5Z" fill="#F1C40F"/>
<path fill-rule="evenodd" clip-rule="evenodd" d="M771 353.5C771 355.986 768.986 358 766.5 358C764.014 358 762 355.986 762 353.5C762 351.014 764.014 349 766.5 349C768.986 349 771 351.014 771 353.5Z" fill="#2ECC71"/>
<path d="M556 148V309H380V327" stroke="#FF9500" stroke-opacity="0.3" stroke-width="13" stroke-dasharray="12"/>
<path d="M648 148V309H824V326" stroke="#FF9500" stroke-opacity="0.3" stroke-width="13" stroke-dasharray="12"/>
<path d="M601 148V330" stroke="#FF9500" stroke-opacity="0.3" stroke-width="13" stroke-dasharray="12"/>
<path fill-rule="evenodd" clip-rule="evenodd" d="M590 855.079C590 856.14 589.377 857 588.608 857H392.392C391.623 857 391 856.14 391 855.079V693.204C391 689.778 393.778 687 397.204 687H583.796C587.222 687 590 689.778 590 693.204V855.079Z" fill="#00C176"/>
<path d="M391 693.204C391 689.778 393.778 687 397.204 687H583.796C587.222 687 590 689.778 590 693.204V715.54H391V693.204Z" fill="#CCCCCC"/>
<path fill-rule="evenodd" clip-rule="evenodd" d="M412.095 702.512C412.095 705.596 409.595 708.096 406.511 708.096C403.427 708.096 400.927 705.596 400.927 702.512C400.927 699.427 403.427 696.928 406.511 696.928C409.595 696.928 412.095 699.427 412.095 702.512Z" fill="#E74C3C"/>
<path fill-rule="evenodd" clip-rule="evenodd" d="M431.949 702.512C431.949 705.596 429.449 708.096 426.365 708.096C423.281 708.096 420.781 705.596 420.781 702.512C420.781 699.427 423.281 696.928 426.365 696.928C429.449 696.928 431.949 699.427 431.949 702.512Z" fill="#F1C40F"/>
<path fill-rule="evenodd" clip-rule="evenodd" d="M450.562 702.512C450.562 705.596 448.062 708.096 444.978 708.096C441.894 708.096 439.394 705.596 439.394 702.512C439.394 699.427 441.894 696.928 444.978 696.928C448.062 696.928 450.562 699.427 450.562 702.512Z" fill="#2ECC71"/>
<path fill-rule="evenodd" clip-rule="evenodd" d="M812 855.079C812 856.14 811.377 857 810.608 857H614.392C613.623 857 613 856.14 613 855.079V693.204C613 689.778 615.778 687 619.204 687H805.796C809.222 687 812 689.778 812 693.204V855.079Z" fill="#326DE5"/>
<path d="M613 693.204C613 689.778 615.778 687 619.204 687H805.796C809.222 687 812 689.778 812 693.204V715.54H613V693.204Z" fill="#CCCCCC"/>
<path fill-rule="evenodd" clip-rule="evenodd" d="M634.095 702.512C634.095 705.596 631.595 708.096 628.511 708.096C625.427 708.096 622.927 705.596 622.927 702.512C622.927 699.427 625.427 696.928 628.511 696.928C631.595 696.928 634.095 699.427 634.095 702.512Z" fill="#E74C3C"/>
<path fill-rule="evenodd" clip-rule="evenodd" d="M653.949 702.512C653.949 705.596 651.449 708.096 648.365 708.096C645.281 708.096 642.781 705.596 642.781 702.512C642.781 699.427 645.281 696.928 648.365 696.928C651.449 696.928 653.949 699.427 653.949 702.512Z" fill="#F1C40F"/>
<path fill-rule="evenodd" clip-rule="evenodd" d="M672.562 702.512C672.562 705.596 670.062 708.096 666.978 708.096C663.894 708.096 661.394 705.596 661.394 702.512C661.394 699.427 663.894 696.928 666.978 696.928C670.062 696.928 672.562 699.427 672.562 702.512Z" fill="#2ECC71"/>
<path d="M492 679V553H774V464" stroke="#FF9500" stroke-width="13" stroke-dasharray="12"/>
<path d="M717 678V593H869V464" stroke="#FF9500" stroke-width="13" stroke-dasharray="12"/>
<path d="M1055.88 62.2629C1054.36 62.3402 1052.86 62.7209 1051.49 63.3825L991.529 92.2286C988.386 93.7402 986.102 96.5991 985.326 99.996L970.533 164.792C969.843 167.808 970.405 170.975 972.09 173.571C972.292 173.885 972.51 174.189 972.742 174.482L1014.24 226.437C1016.42 229.161 1019.72 230.746 1023.21 230.746L1089.76 230.73C1093.25 230.733 1096.55 229.15 1098.73 226.429L1140.21 174.466C1142.39 171.742 1143.21 168.175 1142.43 164.776L1127.61 99.9806C1126.84 96.5837 1124.55 93.7248 1121.41 92.2131L1061.44 63.3825C1059.71 62.5502 1057.8 62.1653 1055.88 62.2629Z" fill="#D7D7D7" stroke="white" stroke-width="0.5"/>
<path d="M980.852 33.3477C980.224 28.1406 976.283 25.1463 971.065 25.1463C965.11 25.1463 960.563 29.3516 960.563 36.7273C960.563 44.081 965.033 48.3082 971.065 48.3082C976.845 48.3082 980.335 44.4663 980.852 40.3161L976.03 40.294C975.579 42.7049 973.685 44.092 971.142 44.092C967.719 44.092 965.396 41.549 965.396 36.7273C965.396 32.0376 967.686 29.3626 971.175 29.3626C973.784 29.3626 975.667 30.8707 976.03 33.3477H980.852ZM990.506 48.3303C995.636 48.3303 998.829 44.8185 998.829 39.6115C998.829 34.3714 995.636 30.8707 990.506 30.8707C985.376 30.8707 982.184 34.3714 982.184 39.6115C982.184 44.8185 985.376 48.3303 990.506 48.3303ZM990.528 44.6974C988.161 44.6974 986.95 42.5288 986.95 39.5785C986.95 36.6282 988.161 34.4485 990.528 34.4485C992.851 34.4485 994.062 36.6282 994.062 39.5785C994.062 42.5288 992.851 44.6974 990.528 44.6974ZM1005.25 38.2244C1005.26 36.0447 1006.56 34.7678 1008.46 34.7678C1010.34 34.7678 1011.47 36.0007 1011.46 38.0703V48H1016.15V37.2337C1016.15 33.2926 1013.84 30.8707 1010.32 30.8707C1007.81 30.8707 1005.99 32.1037 1005.23 34.0742H1005.03V31.0909H1000.56V48H1005.25V38.2244ZM1027.52 31.0909H1024.34V27.0398H1019.65V31.0909H1017.34V34.6136H1019.65V43.4205C1019.63 46.734 1021.89 48.3743 1025.29 48.2312C1026.5 48.1871 1027.36 47.945 1027.83 47.7908L1027.1 44.3011C1026.86 44.3452 1026.37 44.4553 1025.93 44.4553C1024.99 44.4553 1024.34 44.103 1024.34 42.804V34.6136H1027.52V31.0909ZM1029.26 48H1033.95V38.4336C1033.95 36.353 1035.47 34.9219 1037.54 34.9219C1038.19 34.9219 1039.08 35.032 1039.52 35.1751V31.0138C1039.11 30.9148 1038.52 30.8487 1038.05 30.8487C1036.15 30.8487 1034.6 31.9496 1033.99 34.0412H1033.81V31.0909H1029.26V48ZM1047.49 48.3303C1052.62 48.3303 1055.81 44.8185 1055.81 39.6115C1055.81 34.3714 1052.62 30.8707 1047.49 30.8707C1042.36 30.8707 1039.16 34.3714 1039.16 39.6115C1039.16 44.8185 1042.36 48.3303 1047.49 48.3303ZM1047.51 44.6974C1045.14 44.6974 1043.93 42.5288 1043.93 39.5785C1043.93 36.6282 1045.14 34.4485 1047.51 34.4485C1049.83 34.4485 1051.04 36.6282 1051.04 39.5785C1051.04 42.5288 1049.83 44.6974 1047.51 44.6974ZM1062.23 25.4545H1057.54V48H1062.23V25.4545ZM1070.53 54.3409H1075.22V45.2919H1075.36C1076.01 46.701 1077.43 48.2752 1080.16 48.2752C1084.02 48.2752 1087.02 45.2259 1087.02 39.5675C1087.02 33.755 1083.88 30.8707 1080.17 30.8707C1077.34 30.8707 1075.99 32.555 1075.36 33.9311H1075.15V31.0909H1070.53V54.3409ZM1075.12 39.5455C1075.12 36.5291 1076.4 34.6026 1078.68 34.6026C1081 34.6026 1082.23 36.6172 1082.23 39.5455C1082.23 42.4957 1080.98 44.5433 1078.68 44.5433C1076.42 44.5433 1075.12 42.5618 1075.12 39.5455ZM1093.52 25.4545H1088.83V48H1093.52V25.4545ZM1100.78 48.3192C1103.28 48.3192 1104.9 47.2294 1105.73 45.6552H1105.86V48H1110.31V36.5952C1110.31 32.5661 1106.89 30.8707 1103.13 30.8707C1099.08 30.8707 1096.41 32.8082 1095.76 35.8906L1100.1 36.2429C1100.42 35.12 1101.42 34.2944 1103.11 34.2944C1104.7 34.2944 1105.62 35.098 1105.62 36.4851V36.5511C1105.62 37.641 1104.46 37.7841 1101.52 38.0703C1098.18 38.3786 1095.17 39.5014 1095.17 43.2773C1095.17 46.6239 1097.56 48.3192 1100.78 48.3192ZM1102.13 45.0827C1100.69 45.0827 1099.65 44.4112 1099.65 43.1232C1099.65 41.8022 1100.74 41.1527 1102.39 40.9215C1103.42 40.7784 1105.09 40.5362 1105.65 40.1619V41.9563C1105.65 43.7287 1104.19 45.0827 1102.13 45.0827ZM1117.32 38.2244C1117.33 36.0447 1118.63 34.7678 1120.52 34.7678C1122.4 34.7678 1123.54 36.0007 1123.53 38.0703V48H1128.22V37.2337C1128.22 33.2926 1125.91 30.8707 1122.38 30.8707C1119.87 30.8707 1118.06 32.1037 1117.3 34.0742H1117.1V31.0909H1112.63V48H1117.32V38.2244ZM1138.3 48.3303C1142.49 48.3303 1145.3 46.2937 1145.97 43.1562L1141.63 42.87C1141.15 44.158 1139.94 44.8295 1138.38 44.8295C1136.04 44.8295 1134.55 43.2773 1134.55 40.7564V40.7454H1146.06V39.4574C1146.06 33.7109 1142.59 30.8707 1138.12 30.8707C1133.14 30.8707 1129.92 34.4045 1129.92 39.6225C1129.92 44.9837 1133.1 48.3303 1138.3 48.3303ZM1134.55 37.8391C1134.65 35.9126 1136.11 34.3714 1138.19 34.3714C1140.23 34.3714 1141.64 35.8246 1141.65 37.8391H1134.55Z" fill="black"/>
<g clip-path="url(#clip2_16_4164)">
<path d="M1017 183.007H1097L1047.01 198L1017 183.007ZM1017 178L1047.01 172.994V118L1017 178ZM1051.99 172.994L1097 178L1051.99 78V172.994Z" fill="#466BB0"/>
</g>
<rect x="338" y="327" width="81.3793" height="80" rx="6.89655" fill="#290B53"/>
<path fill-rule="evenodd" clip-rule="evenodd" d="M350.819 379.279L359.946 384.945L363.994 383.187L367.65 385.447L360.923 388.35C360.895 388.364 360.867 388.371 360.84 388.378C360.812 388.385 360.784 388.392 360.756 388.406C360.225 388.546 359.611 388.462 359.109 388.155L348.167 381.372C347.609 381.037 347.246 380.451 347.246 379.865L346.967 368.477C346.939 367.89 347.274 367.388 347.832 367.137L354.978 364.066L355.062 367.863L350.596 369.788L350.819 379.279ZM366.673 366.661L362.682 364.177L362.765 367.973L366.757 370.457L366.673 366.661ZM372.423 379.949L372.339 376.237L368.85 374.06C368.794 374.032 368.739 373.976 368.711 373.948L368.794 377.688L372.423 379.949Z" fill="#B31AAB"/>
<path fill-rule="evenodd" clip-rule="evenodd" d="M388.361 362.197C389.031 362.588 389.422 363.286 389.45 363.956L389.757 377.717L389.534 377.8L385.514 375.316L385.263 364.653L374.74 358.122L374.656 354.13L375.075 353.963L388.361 362.197ZM361.175 375.038L373.54 382.686L378.983 380.397L383.226 383.021L374.684 386.705C374.628 386.705 374.573 386.733 374.517 386.761C373.903 386.956 373.177 386.845 372.591 386.482L358.104 377.494C357.434 377.103 357.016 376.433 357.016 375.736L356.653 360.663C356.625 359.965 357.016 359.379 357.658 359.1L366.394 355.331L366.506 359.77L360.868 362.198L361.175 375.038Z" fill="#D163CE"/>
<path fill-rule="evenodd" clip-rule="evenodd" d="M389.729 341.9L408.291 353.4C409.045 353.875 409.519 354.628 409.547 355.41L409.994 374.725C410.022 375.507 409.575 376.205 408.849 376.512L390.734 384.327C390.706 384.341 390.671 384.355 390.636 384.369C390.602 384.383 390.567 384.397 390.539 384.411C389.841 384.634 389.004 384.523 388.334 384.104L369.772 372.604C369.018 372.157 368.544 371.376 368.516 370.594L368.069 351.279C368.041 350.469 368.488 349.799 369.214 349.492L387.329 341.677C387.357 341.663 387.392 341.649 387.426 341.635C387.461 341.621 387.496 341.607 387.524 341.593C388.222 341.37 389.031 341.482 389.729 341.9ZM373.289 369.785L389.422 379.778L405.165 372.995L404.774 356.22L388.641 346.227L372.898 353.01L373.289 369.785Z" fill="#E13EAF"/>
<rect x="560" y="327" width="81.3793" height="80" rx="6.89655" fill="#290B53"/>
<path fill-rule="evenodd" clip-rule="evenodd" d="M572.819 379.279L581.946 384.945L585.994 383.187L589.65 385.447L582.923 388.35C582.895 388.364 582.867 388.371 582.84 388.378C582.812 388.385 582.784 388.392 582.756 388.406C582.225 388.546 581.611 388.462 581.109 388.155L570.167 381.372C569.609 381.037 569.246 380.451 569.246 379.865L568.967 368.477C568.939 367.89 569.274 367.388 569.832 367.137L576.978 364.066L577.062 367.863L572.596 369.788L572.819 379.279ZM588.673 366.661L584.682 364.177L584.765 367.973L588.757 370.457L588.673 366.661ZM594.423 379.949L594.339 376.237L590.85 374.06C590.794 374.032 590.739 373.976 590.711 373.948L590.794 377.688L594.423 379.949Z" fill="#B31AAB"/>
<path fill-rule="evenodd" clip-rule="evenodd" d="M610.361 362.197C611.031 362.588 611.422 363.286 611.45 363.956L611.757 377.717L611.534 377.8L607.514 375.316L607.263 364.653L596.74 358.122L596.656 354.13L597.075 353.963L610.361 362.197ZM583.175 375.038L595.54 382.686L600.983 380.397L605.226 383.021L596.684 386.705C596.628 386.705 596.573 386.733 596.517 386.761C595.903 386.956 595.177 386.845 594.591 386.482L580.104 377.494C579.434 377.103 579.016 376.433 579.016 375.736L578.653 360.663C578.625 359.965 579.016 359.379 579.658 359.1L588.394 355.331L588.506 359.77L582.868 362.198L583.175 375.038Z" fill="#D163CE"/>
<path fill-rule="evenodd" clip-rule="evenodd" d="M611.729 341.9L630.291 353.4C631.045 353.875 631.519 354.628 631.547 355.41L631.994 374.725C632.022 375.507 631.575 376.205 630.849 376.512L612.734 384.327C612.706 384.341 612.671 384.355 612.636 384.369C612.602 384.383 612.567 384.397 612.539 384.411C611.841 384.634 611.004 384.523 610.334 384.104L591.772 372.604C591.018 372.157 590.544 371.376 590.516 370.594L590.069 351.279C590.041 350.469 590.488 349.799 591.214 349.492L609.329 341.677C609.357 341.663 609.392 341.649 609.426 341.635C609.461 341.621 609.496 341.607 609.524 341.593C610.222 341.37 611.031 341.482 611.729 341.9ZM595.289 369.785L611.422 379.778L627.165 372.995L626.774 356.22L610.641 346.227L594.898 353.01L595.289 369.785Z" fill="#E13EAF"/>
<rect x="783" y="327" width="81.3793" height="80" rx="6.89655" fill="#290B53"/>
<path fill-rule="evenodd" clip-rule="evenodd" d="M795.819 379.279L804.946 384.945L808.994 383.187L812.65 385.447L805.923 388.35C805.895 388.364 805.867 388.371 805.84 388.378C805.812 388.385 805.784 388.392 805.756 388.406C805.225 388.546 804.611 388.462 804.109 388.155L793.167 381.372C792.609 381.037 792.246 380.451 792.246 379.865L791.967 368.477C791.939 367.89 792.274 367.388 792.832 367.137L799.978 364.066L800.062 367.863L795.596 369.788L795.819 379.279ZM811.673 366.661L807.682 364.177L807.765 367.973L811.757 370.457L811.673 366.661ZM817.423 379.949L817.339 376.237L813.85 374.06C813.794 374.032 813.739 373.976 813.711 373.948L813.794 377.688L817.423 379.949Z" fill="#B31AAB"/>
<path fill-rule="evenodd" clip-rule="evenodd" d="M833.361 362.197C834.031 362.588 834.422 363.286 834.45 363.956L834.757 377.717L834.534 377.8L830.514 375.316L830.263 364.653L819.74 358.122L819.656 354.13L820.075 353.963L833.361 362.197ZM806.175 375.038L818.54 382.686L823.983 380.397L828.226 383.021L819.684 386.705C819.628 386.705 819.573 386.733 819.517 386.761C818.903 386.956 818.177 386.845 817.591 386.482L803.104 377.494C802.434 377.103 802.016 376.433 802.016 375.736L801.653 360.663C801.625 359.965 802.016 359.379 802.658 359.1L811.394 355.331L811.506 359.77L805.868 362.198L806.175 375.038Z" fill="#D163CE"/>
<path fill-rule="evenodd" clip-rule="evenodd" d="M834.729 341.9L853.291 353.4C854.045 353.875 854.519 354.628 854.547 355.41L854.994 374.725C855.022 375.507 854.575 376.205 853.849 376.512L835.734 384.327C835.706 384.341 835.671 384.355 835.636 384.369C835.602 384.383 835.567 384.397 835.539 384.411C834.841 384.634 834.004 384.523 833.334 384.104L814.772 372.604C814.018 372.157 813.544 371.376 813.516 370.594L813.069 351.279C813.041 350.469 813.488 349.799 814.214 349.492L832.329 341.677C832.357 341.663 832.392 341.649 832.426 341.635C832.461 341.621 832.496 341.607 832.524 341.593C833.222 341.37 834.031 341.482 834.729 341.9ZM818.289 369.785L834.422 379.778L850.165 372.995L849.774 356.22L833.641 346.227L817.898 353.01L818.289 369.785Z" fill="#E13EAF"/>
<rect x="451" y="672" width="81.3793" height="80" rx="6.89655" fill="#290B53"/>
<path fill-rule="evenodd" clip-rule="evenodd" d="M463.819 724.279L472.946 729.945L476.994 728.187L480.65 730.447L473.923 733.35C473.895 733.364 473.867 733.371 473.84 733.378C473.812 733.385 473.784 733.392 473.756 733.406C473.225 733.546 472.611 733.462 472.109 733.155L461.167 726.372C460.609 726.037 460.246 725.451 460.246 724.865L459.967 713.477C459.939 712.89 460.274 712.388 460.832 712.137L467.978 709.066L468.062 712.863L463.596 714.788L463.819 724.279ZM479.673 711.661L475.682 709.177L475.765 712.973L479.757 715.457L479.673 711.661ZM485.423 724.949L485.339 721.237L481.85 719.06C481.794 719.032 481.739 718.976 481.711 718.948L481.794 722.688L485.423 724.949Z" fill="#B31AAB"/>
<path fill-rule="evenodd" clip-rule="evenodd" d="M501.361 707.197C502.031 707.588 502.422 708.286 502.45 708.956L502.757 722.717L502.534 722.8L498.514 720.316L498.263 709.653L487.74 703.122L487.656 699.13L488.075 698.963L501.361 707.197ZM474.175 720.038L486.54 727.686L491.983 725.397L496.226 728.021L487.684 731.705C487.628 731.705 487.573 731.733 487.517 731.761C486.903 731.956 486.177 731.845 485.591 731.482L471.104 722.494C470.434 722.103 470.016 721.433 470.016 720.736L469.653 705.663C469.625 704.965 470.016 704.379 470.658 704.1L479.394 700.331L479.506 704.77L473.868 707.198L474.175 720.038Z" fill="#D163CE"/>
<path fill-rule="evenodd" clip-rule="evenodd" d="M502.729 686.9L521.291 698.4C522.045 698.875 522.519 699.628 522.547 700.41L522.994 719.725C523.022 720.507 522.575 721.205 521.849 721.512L503.734 729.327C503.706 729.341 503.671 729.355 503.636 729.369C503.602 729.383 503.567 729.397 503.539 729.411C502.841 729.634 502.004 729.523 501.334 729.104L482.772 717.604C482.018 717.157 481.544 716.376 481.516 715.594L481.069 696.279C481.041 695.469 481.488 694.799 482.214 694.492L500.329 686.677C500.357 686.663 500.392 686.649 500.426 686.635C500.461 686.621 500.496 686.607 500.524 686.593C501.222 686.37 502.031 686.482 502.729 686.9ZM486.289 714.785L502.422 724.778L518.165 717.995L517.774 701.22L501.641 691.227L485.898 698.01L486.289 714.785Z" fill="#E13EAF"/>
<rect x="676" y="672" width="81.3793" height="80" rx="6.89655" fill="#290B53"/>
<path fill-rule="evenodd" clip-rule="evenodd" d="M688.819 724.279L697.946 729.945L701.994 728.187L705.65 730.447L698.923 733.35C698.895 733.364 698.867 733.371 698.84 733.378C698.812 733.385 698.784 733.392 698.756 733.406C698.225 733.546 697.611 733.462 697.109 733.155L686.167 726.372C685.609 726.037 685.246 725.451 685.246 724.865L684.967 713.477C684.939 712.89 685.274 712.388 685.832 712.137L692.978 709.066L693.062 712.863L688.596 714.788L688.819 724.279ZM704.673 711.661L700.682 709.177L700.765 712.973L704.757 715.457L704.673 711.661ZM710.423 724.949L710.339 721.237L706.85 719.06C706.794 719.032 706.739 718.976 706.711 718.948L706.794 722.688L710.423 724.949Z" fill="#B31AAB"/>
<path fill-rule="evenodd" clip-rule="evenodd" d="M726.361 707.197C727.031 707.588 727.422 708.286 727.45 708.956L727.757 722.717L727.534 722.8L723.514 720.316L723.263 709.653L712.74 703.122L712.656 699.13L713.075 698.963L726.361 707.197ZM699.175 720.038L711.54 727.686L716.983 725.397L721.226 728.021L712.684 731.705C712.628 731.705 712.573 731.733 712.517 731.761C711.903 731.956 711.177 731.845 710.591 731.482L696.104 722.494C695.434 722.103 695.016 721.433 695.016 720.736L694.653 705.663C694.625 704.965 695.016 704.379 695.658 704.1L704.394 700.331L704.506 704.77L698.868 707.198L699.175 720.038Z" fill="#D163CE"/>
<path fill-rule="evenodd" clip-rule="evenodd" d="M727.729 686.9L746.291 698.4C747.045 698.875 747.519 699.628 747.547 700.41L747.994 719.725C748.022 720.507 747.575 721.205 746.849 721.512L728.734 729.327C728.706 729.341 728.671 729.355 728.636 729.369C728.602 729.383 728.567 729.397 728.539 729.411C727.841 729.634 727.004 729.523 726.334 729.104L707.772 717.604C707.018 717.157 706.544 716.376 706.516 715.594L706.069 696.279C706.041 695.469 706.488 694.799 707.214 694.492L725.329 686.677C725.357 686.663 725.392 686.649 725.426 686.635C725.461 686.621 725.496 686.607 725.524 686.593C726.222 686.37 727.031 686.482 727.729 686.9ZM711.289 714.785L727.422 724.778L743.165 717.995L742.774 701.22L726.641 691.227L710.898 698.01L711.289 714.785Z" fill="#E13EAF"/>
<path fill-rule="evenodd" clip-rule="evenodd" d="M936 558C936 539.2 951.2 524 970 524C988.8 524 1004 539.2 1004 558C1004 576.8 988.8 592 970 592C951.2 592 936 576.8 936 558ZM964.9 575.8L971.5 569.2L991.1 549.6L984.5 543L964.9 562.6L955.6 553.3L949 559.9L958.3 569.2L964.9 575.8Z" fill="#00C176"/>
<circle cx="970" cy="659" r="26" fill="white"/>
<path fill-rule="evenodd" clip-rule="evenodd" d="M970 625C979.067 625 987.594 628.562 994.071 634.93C1000.44 641.298 1004 649.933 1004 659C1004 668.067 1000.44 676.594 994.071 683.07C987.594 689.439 979.067 693 970 693C960.933 693 952.406 689.439 945.93 683.07C939.562 676.701 936 668.067 936 659C936 649.933 939.562 641.406 945.93 634.93C952.299 628.562 960.933 625 970 625ZM979.067 674.219L985.219 668.067L976.153 659L985.219 649.933L979.067 643.781L970 652.848L960.933 643.781L954.781 649.933L963.848 659L954.781 668.067L960.933 674.219L970 665.152L979.067 674.219Z" fill="#FF003C"/>
<path d="M1023.08 558.2C1022.13 558.2 1021.31 558.027 1020.62 557.68C1019.93 557.32 1019.39 556.82 1019 556.18C1018.63 555.527 1018.44 554.76 1018.44 553.88V547.52C1018.44 546.64 1018.63 545.88 1019 545.24C1019.39 544.587 1019.93 544.087 1020.62 543.74C1021.31 543.38 1022.13 543.2 1023.08 543.2C1024.01 543.2 1024.83 543.38 1025.52 543.74C1026.21 544.087 1026.75 544.587 1027.14 545.24C1027.53 545.88 1027.72 546.64 1027.72 547.52H1025.2C1025.2 546.84 1025.01 546.32 1024.64 545.96C1024.28 545.587 1023.76 545.4 1023.08 545.4C1022.4 545.4 1021.87 545.58 1021.5 545.94C1021.13 546.3 1020.94 546.82 1020.94 547.5V553.88C1020.94 554.56 1021.13 555.087 1021.5 555.46C1021.87 555.833 1022.4 556.02 1023.08 556.02C1023.76 556.02 1024.28 555.833 1024.64 555.46C1025.01 555.087 1025.2 554.56 1025.2 553.88V552.4H1022.72V550.24H1027.72V553.88C1027.72 554.76 1027.53 555.527 1027.14 556.18C1026.75 556.82 1026.21 557.32 1025.52 557.68C1024.83 558.027 1024.01 558.2 1023.08 558.2ZM1030.75 558V543.4H1039.51V545.6H1033.21V549.4H1038.81V551.52H1033.21V555.8H1039.51V558H1030.75ZM1045.72 558V545.66H1041.9V543.4H1052.06V545.66H1048.24V558H1045.72ZM1066.17 560.2L1073.17 541.4H1075.77L1068.77 560.2H1066.17ZM1077.66 558L1081.34 543.4H1084.56L1088.26 558H1085.7L1084.9 554.46H1081.02L1080.22 558H1077.66ZM1081.48 552.42H1084.44L1083.56 548.5C1083.41 547.847 1083.29 547.26 1083.18 546.74C1083.07 546.207 1083 545.82 1082.96 545.58C1082.92 545.82 1082.85 546.207 1082.74 546.74C1082.63 547.26 1082.51 547.84 1082.36 548.48L1081.48 552.42ZM1090.49 558V543.4H1095.35C1096.33 543.4 1097.17 543.587 1097.89 543.96C1098.63 544.333 1099.19 544.86 1099.59 545.54C1099.99 546.207 1100.19 546.993 1100.19 547.9C1100.19 548.807 1099.99 549.6 1099.59 550.28C1099.19 550.947 1098.63 551.467 1097.89 551.84C1097.17 552.213 1096.33 552.4 1095.35 552.4H1092.99V558H1090.49ZM1092.99 550.2H1095.35C1096.06 550.2 1096.62 549.987 1097.03 549.56C1097.45 549.133 1097.65 548.58 1097.65 547.9C1097.65 547.22 1097.45 546.667 1097.03 546.24C1096.62 545.813 1096.06 545.6 1095.35 545.6H1092.99V550.2ZM1102.75 558V555.74H1105.69V545.66H1102.75V543.4H1111.15V545.66H1108.21V555.74H1111.15V558H1102.75ZM1114.14 560.2L1121.14 541.4H1123.74L1116.74 560.2H1114.14ZM1126.73 558V555.74H1129.67V545.66H1126.73V543.4H1135.13V545.66H1132.19V555.74H1135.13V558H1126.73ZM1138.36 558V543.4H1141.42L1145.48 555.2C1145.44 554.773 1145.4 554.273 1145.36 553.7C1145.32 553.113 1145.28 552.52 1145.24 551.92C1145.22 551.32 1145.2 550.787 1145.2 550.32V543.4H1147.48V558H1144.42L1140.4 546.2C1140.43 546.587 1140.46 547.053 1140.5 547.6C1140.54 548.147 1140.58 548.707 1140.6 549.28C1140.63 549.853 1140.64 550.38 1140.64 550.86V558H1138.36ZM1150.51 558V543.4H1159.59V545.72H1152.97V549.62H1159.07V551.94H1153.01V558H1150.51ZM1166.91 558.2C1165.51 558.2 1164.39 557.813 1163.57 557.04C1162.75 556.253 1162.35 555.2 1162.35 553.88V547.52C1162.35 546.2 1162.75 545.153 1163.57 544.38C1164.39 543.593 1165.51 543.2 1166.91 543.2C1168.31 543.2 1169.41 543.593 1170.23 544.38C1171.05 545.153 1171.47 546.193 1171.47 547.5V553.88C1171.47 555.2 1171.05 556.253 1170.23 557.04C1169.41 557.813 1168.31 558.2 1166.91 558.2ZM1166.91 556C1167.59 556 1168.1 555.82 1168.45 555.46C1168.79 555.087 1168.97 554.56 1168.97 553.88V547.52C1168.97 546.84 1168.79 546.32 1168.45 545.96C1168.1 545.587 1167.59 545.4 1166.91 545.4C1166.23 545.4 1165.71 545.587 1165.37 545.96C1165.02 546.32 1164.85 546.84 1164.85 547.52V553.88C1164.85 554.56 1165.02 555.087 1165.37 555.46C1165.71 555.82 1166.23 556 1166.91 556Z" fill="black"/>
<path d="M1018.54 666V651.4H1023.4C1024.37 651.4 1025.22 651.587 1025.94 651.96C1026.67 652.333 1027.24 652.86 1027.64 653.54C1028.04 654.207 1028.24 654.993 1028.24 655.9C1028.24 656.807 1028.04 657.6 1027.64 658.28C1027.24 658.947 1026.67 659.467 1025.94 659.84C1025.22 660.213 1024.37 660.4 1023.4 660.4H1021.04V666H1018.54ZM1021.04 658.2H1023.4C1024.11 658.2 1024.67 657.987 1025.08 657.56C1025.49 657.133 1025.7 656.58 1025.7 655.9C1025.7 655.22 1025.49 654.667 1025.08 654.24C1024.67 653.813 1024.11 653.6 1023.4 653.6H1021.04V658.2ZM1034.99 666.2C1033.59 666.2 1032.48 665.813 1031.65 665.04C1030.84 664.253 1030.43 663.2 1030.43 661.88V655.52C1030.43 654.2 1030.84 653.153 1031.65 652.38C1032.48 651.593 1033.59 651.2 1034.99 651.2C1036.39 651.2 1037.5 651.593 1038.31 652.38C1039.14 653.153 1039.55 654.193 1039.55 655.5V661.88C1039.55 663.2 1039.14 664.253 1038.31 665.04C1037.5 665.813 1036.39 666.2 1034.99 666.2ZM1034.99 664C1035.67 664 1036.19 663.82 1036.53 663.46C1036.88 663.087 1037.05 662.56 1037.05 661.88V655.52C1037.05 654.84 1036.88 654.32 1036.53 653.96C1036.19 653.587 1035.67 653.4 1034.99 653.4C1034.31 653.4 1033.8 653.587 1033.45 653.96C1033.11 654.32 1032.93 654.84 1032.93 655.52V661.88C1032.93 662.56 1033.11 663.087 1033.45 663.46C1033.8 663.82 1034.31 664 1034.99 664ZM1047.02 666.2C1046.02 666.2 1045.16 666.033 1044.42 665.7C1043.7 665.353 1043.14 664.873 1042.72 664.26C1042.32 663.633 1042.12 662.9 1042.12 662.06H1044.62C1044.62 662.66 1044.84 663.14 1045.28 663.5C1045.72 663.847 1046.31 664.02 1047.04 664.02C1047.76 664.02 1048.32 663.847 1048.72 663.5C1049.14 663.153 1049.34 662.68 1049.34 662.08C1049.34 661.587 1049.2 661.167 1048.92 660.82C1048.64 660.46 1048.26 660.213 1047.76 660.08L1046 659.6C1044.87 659.293 1043.99 658.767 1043.36 658.02C1042.74 657.26 1042.42 656.347 1042.42 655.28C1042.42 654.04 1042.84 653.053 1043.66 652.32C1044.49 651.573 1045.6 651.2 1047 651.2C1048.42 651.2 1049.54 651.567 1050.36 652.3C1051.2 653.02 1051.62 653.993 1051.62 655.22H1049.12C1049.12 654.66 1048.93 654.213 1048.54 653.88C1048.17 653.547 1047.65 653.38 1046.98 653.38C1046.33 653.38 1045.82 653.547 1045.44 653.88C1045.08 654.2 1044.9 654.653 1044.9 655.24C1044.9 655.693 1045.04 656.087 1045.3 656.42C1045.58 656.753 1045.98 656.987 1046.5 657.12L1048.28 657.62C1049.42 657.927 1050.29 658.46 1050.9 659.22C1051.53 659.967 1051.84 660.893 1051.84 662C1051.84 662.84 1051.64 663.58 1051.24 664.22C1050.84 664.847 1050.28 665.333 1049.56 665.68C1048.84 666.027 1048 666.2 1047.02 666.2ZM1057.72 666V653.66H1053.9V651.4H1064.06V653.66H1060.24V666H1057.72ZM1078.16 668.2L1085.16 649.4H1087.76L1080.76 668.2H1078.16ZM1089.65 666L1093.33 651.4H1096.55L1100.25 666H1097.69L1096.89 662.46H1093.01L1092.21 666H1089.65ZM1093.47 660.42H1096.43L1095.55 656.5C1095.41 655.847 1095.28 655.26 1095.17 654.74C1095.07 654.207 1094.99 653.82 1094.95 653.58C1094.91 653.82 1094.84 654.207 1094.73 654.74C1094.63 655.26 1094.5 655.84 1094.35 656.48L1093.47 660.42ZM1102.49 666V651.4H1107.35C1108.32 651.4 1109.17 651.587 1109.89 651.96C1110.62 652.333 1111.19 652.86 1111.59 653.54C1111.99 654.207 1112.19 654.993 1112.19 655.9C1112.19 656.807 1111.99 657.6 1111.59 658.28C1111.19 658.947 1110.62 659.467 1109.89 659.84C1109.17 660.213 1108.32 660.4 1107.35 660.4H1104.99V666H1102.49ZM1104.99 658.2H1107.35C1108.05 658.2 1108.61 657.987 1109.03 657.56C1109.44 657.133 1109.65 656.58 1109.65 655.9C1109.65 655.22 1109.44 654.667 1109.03 654.24C1108.61 653.813 1108.05 653.6 1107.35 653.6H1104.99V658.2ZM1114.74 666V663.74H1117.68V653.66H1114.74V651.4H1123.14V653.66H1120.2V663.74H1123.14V666H1114.74ZM1126.13 668.2L1133.13 649.4H1135.73L1128.73 668.2H1126.13ZM1138.42 666V651.4H1142.76C1143.75 651.4 1144.6 651.593 1145.32 651.98C1146.06 652.353 1146.62 652.88 1147.02 653.56C1147.42 654.24 1147.62 655.04 1147.62 655.96V661.42C1147.62 662.34 1147.42 663.147 1147.02 663.84C1146.62 664.52 1146.06 665.053 1145.32 665.44C1144.6 665.813 1143.75 666 1142.76 666H1138.42ZM1140.92 663.76H1142.76C1143.48 663.76 1144.06 663.553 1144.48 663.14C1144.91 662.713 1145.12 662.14 1145.12 661.42V655.96C1145.12 655.253 1144.91 654.693 1144.48 654.28C1144.06 653.853 1143.48 653.64 1142.76 653.64H1140.92V663.76ZM1149.61 666L1153.29 651.4H1156.51L1160.21 666H1157.65L1156.85 662.46H1152.97L1152.17 666H1149.61ZM1153.43 660.42H1156.39L1155.51 656.5C1155.37 655.847 1155.24 655.26 1155.13 654.74C1155.03 654.207 1154.95 653.82 1154.91 653.58C1154.87 653.82 1154.8 654.207 1154.69 654.74C1154.59 655.26 1154.46 655.84 1154.31 656.48L1153.43 660.42ZM1165.65 666V653.66H1161.83V651.4H1171.99V653.66H1168.17V666H1165.65ZM1173.6 666L1177.28 651.4H1180.5L1184.2 666H1181.64L1180.84 662.46H1176.96L1176.16 666H1173.6ZM1177.42 660.42H1180.38L1179.5 656.5C1179.35 655.847 1179.23 655.26 1179.12 654.74C1179.01 654.207 1178.94 653.82 1178.9 653.58C1178.86 653.82 1178.79 654.207 1178.68 654.74C1178.57 655.26 1178.45 655.84 1178.3 656.48L1177.42 660.42Z" fill="black"/>
<defs>
<clipPath id="clip0_16_4164">
<rect width="116" height="24" fill="white" transform="translate(711 43)"/>
</clipPath>
<clipPath id="clip1_16_4164">
<rect width="200" height="204" fill="white" transform="translate(277 308)"/>
</clipPath>
<clipPath id="clip2_16_4164">
<rect width="120" height="120" fill="white" transform="translate(997 78)"/>
</clipPath>
</defs>
</svg>
