<svg width="1200" height="900" viewBox="0 0 1200 900" fill="none" xmlns="http://www.w3.org/2000/svg">
<rect width="1200" height="900" fill="white"/>
<path fill-rule="evenodd" clip-rule="evenodd" d="M1087 793.066V836.257C1087 836.391 1086.99 836.524 1086.98 836.657C1086.97 836.789 1086.96 836.921 1086.94 837.052C1086.92 837.183 1086.9 837.312 1086.87 837.44C1086.84 837.567 1086.81 837.693 1086.77 837.816C1086.73 837.939 1086.69 838.06 1086.64 838.178C1086.59 838.295 1086.54 838.41 1086.49 838.52C1086.43 838.631 1086.37 838.738 1086.31 838.842C1086.25 838.945 1086.18 839.043 1086.11 839.138C1086.04 839.232 1085.97 839.322 1085.89 839.406C1085.82 839.491 1085.74 839.57 1085.65 839.644C1085.57 839.718 1085.49 839.787 1085.4 839.85C1085.31 839.913 1085.22 839.97 1085.13 840.021C1085.04 840.072 1084.95 840.117 1084.85 840.155C1084.76 840.194 1084.66 840.227 1084.56 840.253C1084.47 840.279 1084.37 840.298 1084.27 840.311C1084.17 840.324 1084.07 840.331 1083.97 840.331H816.902C816.803 840.331 816.705 840.324 816.606 840.311C816.507 840.298 816.409 840.279 816.312 840.253C816.215 840.227 816.119 840.194 816.024 840.155C815.929 840.117 815.836 840.072 815.745 840.021C815.653 839.97 815.564 839.913 815.476 839.85C815.389 839.787 815.304 839.718 815.222 839.644C815.139 839.57 815.06 839.491 814.983 839.406C814.907 839.322 814.833 839.232 814.763 839.138C814.693 839.043 814.627 838.945 814.564 838.842C814.501 838.738 814.442 838.631 814.387 838.52C814.332 838.41 814.281 838.295 814.234 838.178C814.187 838.06 814.145 837.939 814.107 837.816C814.069 837.693 814.036 837.567 814.007 837.44C813.978 837.312 813.954 837.183 813.935 837.052C813.916 836.921 813.901 836.789 813.892 836.657C813.882 836.524 813.877 836.391 813.877 836.257V793.066C813.877 792.932 813.882 792.799 813.892 792.666C813.901 792.534 813.916 792.402 813.935 792.271C813.954 792.14 813.978 792.011 814.007 791.883C814.036 791.756 814.069 791.63 814.107 791.507C814.145 791.384 814.187 791.263 814.234 791.145C814.281 791.028 814.332 790.913 814.387 790.803C814.442 790.692 814.501 790.585 814.564 790.481C814.627 790.378 814.693 790.28 814.763 790.185C814.833 790.091 814.907 790.001 814.983 789.917C815.06 789.832 815.139 789.753 815.222 789.679C815.304 789.605 815.389 789.536 815.476 789.473C815.564 789.41 815.653 789.353 815.745 789.302C815.836 789.251 815.929 789.206 816.024 789.168C816.119 789.129 816.215 789.096 816.312 789.07C816.409 789.044 816.507 789.025 816.606 789.012C816.705 788.999 816.803 788.992 816.902 788.992H1083.97C1084.07 788.992 1084.17 788.999 1084.27 789.012C1084.37 789.025 1084.47 789.044 1084.56 789.07C1084.66 789.096 1084.76 789.129 1084.85 789.168C1084.95 789.206 1085.04 789.251 1085.13 789.302C1085.22 789.353 1085.31 789.41 1085.4 789.473C1085.49 789.536 1085.57 789.605 1085.65 789.679C1085.74 789.753 1085.82 789.832 1085.89 789.917C1085.97 790.001 1086.04 790.091 1086.11 790.185C1086.18 790.28 1086.25 790.378 1086.31 790.481C1086.37 790.585 1086.43 790.692 1086.49 790.803C1086.54 790.913 1086.59 791.028 1086.64 791.145C1086.69 791.263 1086.73 791.384 1086.77 791.507C1086.81 791.63 1086.84 791.756 1086.87 791.883C1086.9 792.011 1086.92 792.14 1086.94 792.271C1086.96 792.402 1086.97 792.534 1086.98 792.666C1086.99 792.799 1087 792.932 1087 793.066Z" fill="#D2D2D2"/>
<path fill-rule="evenodd" clip-rule="evenodd" d="M864.187 800.285H1014.1V806.446H864.187V800.285Z" fill="#ABABAB"/>
<path fill-rule="evenodd" clip-rule="evenodd" d="M826.197 799.791H841.713V806.691H826.197V799.791Z" fill="#ABABAB"/>
<path fill-rule="evenodd" clip-rule="evenodd" d="M1048.21 799.791H1055.1V806.691H1048.21V799.791Z" fill="#FFCF00"/>
<path fill-rule="evenodd" clip-rule="evenodd" d="M1037.86 799.791H1044.76V806.691H1037.86V799.791Z" fill="#FF3C00"/>
<path fill-rule="evenodd" clip-rule="evenodd" d="M1060.27 799.791H1075.79V806.691H1060.27V799.791Z" fill="#00CD00"/>
<path fill-rule="evenodd" clip-rule="evenodd" d="M864.187 810.555H1014.1V817.742H864.187V810.555Z" fill="#ABABAB"/>
<path fill-rule="evenodd" clip-rule="evenodd" d="M826.196 811.006H841.712V817.906H826.196V811.006Z" fill="#ABABAB"/>
<path fill-rule="evenodd" clip-rule="evenodd" d="M1048.2 811.006H1055.1V817.906H1048.2V811.006Z" fill="#FFCF00"/>
<path fill-rule="evenodd" clip-rule="evenodd" d="M1037.86 811.006H1044.76V817.906H1037.86V811.006Z" fill="#FF3C00"/>
<path fill-rule="evenodd" clip-rule="evenodd" d="M1060.27 811.006H1075.79V817.906H1060.27V811.006Z" fill="#00CD00"/>
<path fill-rule="evenodd" clip-rule="evenodd" d="M864.188 821.848H1014.1V829.035H864.188V821.848Z" fill="#ABABAB"/>
<path fill-rule="evenodd" clip-rule="evenodd" d="M826.197 822.219H841.713V829.119H826.197V822.219Z" fill="#ABABAB"/>
<path fill-rule="evenodd" clip-rule="evenodd" d="M1048.21 822.219H1055.1V829.119H1048.21V822.219Z" fill="#FFCF00"/>
<path fill-rule="evenodd" clip-rule="evenodd" d="M1037.86 822.219H1044.76V829.119H1037.86V822.219Z" fill="#FF3C00"/>
<path fill-rule="evenodd" clip-rule="evenodd" d="M1060.27 822.219H1075.79V829.119H1060.27V822.219Z" fill="#00CD00"/>
<rect x="813.877" y="282" width="273.123" height="499.303" rx="8.53509" fill="#D2D2D2"/>
<path fill-rule="evenodd" clip-rule="evenodd" d="M827.67 312.57H1074.24C1074.28 312.57 1074.33 312.574 1074.38 312.581C1074.43 312.588 1074.47 312.599 1074.52 312.613C1074.57 312.628 1074.62 312.645 1074.66 312.667C1074.71 312.688 1074.75 312.713 1074.8 312.741C1074.84 312.769 1074.89 312.8 1074.93 312.835C1074.97 312.869 1075.01 312.907 1075.05 312.947C1075.09 312.988 1075.13 313.032 1075.17 313.078C1075.21 313.125 1075.24 313.174 1075.28 313.226C1075.31 313.278 1075.34 313.332 1075.37 313.389C1075.4 313.445 1075.43 313.504 1075.46 313.565C1075.48 313.626 1075.51 313.689 1075.53 313.753C1075.55 313.818 1075.58 313.884 1075.59 313.952C1075.61 314.02 1075.63 314.089 1075.64 314.159C1075.66 314.229 1075.67 314.3 1075.68 314.372C1075.69 314.444 1075.69 314.516 1075.7 314.589C1075.7 314.662 1075.71 314.735 1075.71 314.808V746.711C1075.71 746.784 1075.7 746.857 1075.7 746.93C1075.69 747.003 1075.69 747.076 1075.68 747.147C1075.67 747.219 1075.66 747.29 1075.64 747.36C1075.63 747.43 1075.61 747.499 1075.59 747.567C1075.58 747.635 1075.55 747.701 1075.53 747.766C1075.51 747.83 1075.48 747.894 1075.46 747.955C1075.43 748.015 1075.4 748.074 1075.37 748.13C1075.34 748.187 1075.31 748.241 1075.28 748.293C1075.24 748.345 1075.21 748.394 1075.17 748.441C1075.13 748.488 1075.09 748.531 1075.05 748.572C1075.01 748.613 1074.97 748.65 1074.93 748.685C1074.89 748.719 1074.84 748.75 1074.8 748.779C1074.75 748.806 1074.71 748.831 1074.66 748.853C1074.62 748.874 1074.57 748.891 1074.52 748.906C1074.47 748.921 1074.43 748.931 1074.38 748.938C1074.33 748.945 1074.28 748.949 1074.24 748.949H827.67C827.622 748.949 827.574 748.945 827.526 748.938C827.478 748.931 827.431 748.921 827.383 748.906C827.336 748.891 827.289 748.874 827.243 748.853C827.197 748.831 827.152 748.806 827.107 748.779C827.063 748.75 827.02 748.719 826.977 748.685C826.935 748.65 826.893 748.613 826.853 748.572C826.813 748.531 826.775 748.488 826.737 748.441C826.7 748.394 826.664 748.345 826.63 748.294C826.596 748.242 826.564 748.187 826.534 748.13C826.503 748.074 826.474 748.015 826.448 747.955C826.421 747.894 826.396 747.83 826.373 747.766C826.351 747.701 826.33 747.635 826.312 747.567C826.293 747.499 826.277 747.43 826.263 747.36C826.249 747.29 826.237 747.219 826.228 747.147C826.219 747.076 826.212 747.003 826.207 746.93C826.202 746.857 826.2 746.784 826.2 746.711V314.808C826.2 314.735 826.202 314.662 826.207 314.589C826.212 314.516 826.219 314.444 826.228 314.372C826.237 314.3 826.249 314.229 826.263 314.159C826.277 314.089 826.293 314.02 826.312 313.952C826.33 313.884 826.351 313.818 826.373 313.753C826.396 313.689 826.421 313.626 826.448 313.565C826.474 313.504 826.503 313.445 826.534 313.389C826.564 313.332 826.596 313.278 826.63 313.226C826.664 313.174 826.7 313.125 826.737 313.078C826.775 313.032 826.813 312.988 826.853 312.947C826.893 312.907 826.935 312.869 826.977 312.835C827.02 312.8 827.063 312.769 827.107 312.741C827.152 312.713 827.197 312.688 827.243 312.667C827.289 312.645 827.336 312.628 827.383 312.613C827.431 312.599 827.478 312.588 827.526 312.581C827.574 312.574 827.622 312.57 827.67 312.57Z" fill="white"/>
<path fill-rule="evenodd" clip-rule="evenodd" d="M826.2 761.27H1075.71V767.43H826.2V761.27Z" fill="#ABABAB"/>
<path fill-rule="evenodd" clip-rule="evenodd" d="M737.06 793.07V836.261C737.06 836.395 737.055 836.528 737.045 836.661C737.035 836.793 737.021 836.925 737.001 837.056C736.982 837.187 736.958 837.316 736.93 837.444C736.901 837.571 736.868 837.697 736.83 837.82C736.791 837.943 736.749 838.064 736.703 838.181C736.656 838.299 736.605 838.413 736.55 838.524C736.495 838.635 736.436 838.742 736.373 838.845C736.31 838.949 736.244 839.047 736.174 839.142C736.104 839.236 736.03 839.325 735.954 839.41C735.877 839.495 735.797 839.574 735.715 839.648C735.633 839.722 735.548 839.791 735.46 839.854C735.373 839.917 735.284 839.974 735.192 840.025C735.1 840.076 735.007 840.121 734.913 840.159C734.818 840.198 734.722 840.23 734.624 840.256C734.527 840.283 734.43 840.302 734.331 840.315C734.232 840.328 734.133 840.335 734.034 840.335H466.964C466.864 840.335 466.766 840.328 466.667 840.315C466.568 840.302 466.47 840.283 466.373 840.256C466.276 840.23 466.18 840.198 466.085 840.159C465.99 840.121 465.897 840.076 465.806 840.025C465.714 839.974 465.625 839.917 465.537 839.854C465.45 839.791 465.365 839.722 465.283 839.648C465.2 839.574 465.121 839.495 465.044 839.41C464.968 839.325 464.894 839.236 464.824 839.142C464.754 839.047 464.688 838.949 464.625 838.845C464.562 838.742 464.503 838.635 464.448 838.524C464.393 838.413 464.342 838.299 464.295 838.181C464.249 838.064 464.206 837.943 464.168 837.82C464.13 837.697 464.097 837.571 464.068 837.444C464.04 837.316 464.015 837.187 463.996 837.056C463.977 836.925 463.962 836.793 463.953 836.661C463.943 836.528 463.938 836.395 463.938 836.261V793.07C463.938 792.936 463.943 792.803 463.953 792.67C463.962 792.538 463.977 792.406 463.996 792.275C464.015 792.144 464.04 792.015 464.068 791.887C464.097 791.759 464.13 791.634 464.168 791.511C464.206 791.387 464.249 791.267 464.295 791.149C464.342 791.032 464.393 790.917 464.448 790.806C464.503 790.696 464.562 790.589 464.625 790.485C464.688 790.382 464.754 790.284 464.824 790.189C464.894 790.095 464.968 790.005 465.044 789.921C465.121 789.836 465.2 789.757 465.283 789.683C465.365 789.608 465.45 789.54 465.537 789.477C465.625 789.414 465.714 789.357 465.806 789.306C465.897 789.255 465.99 789.21 466.085 789.171C466.18 789.133 466.276 789.1 466.373 789.074C466.47 789.048 466.568 789.029 466.667 789.016C466.766 789.003 466.864 788.996 466.964 788.996H734.034C734.133 788.996 734.232 789.003 734.331 789.016C734.43 789.029 734.527 789.048 734.624 789.074C734.722 789.1 734.818 789.133 734.913 789.171C735.007 789.21 735.1 789.255 735.192 789.306C735.284 789.357 735.373 789.414 735.46 789.477C735.548 789.54 735.633 789.608 735.715 789.683C735.797 789.757 735.877 789.836 735.954 789.921C736.03 790.005 736.104 790.095 736.174 790.189C736.244 790.284 736.31 790.382 736.373 790.485C736.436 790.589 736.495 790.696 736.55 790.806C736.605 790.917 736.656 791.032 736.703 791.149C736.749 791.267 736.791 791.387 736.83 791.511C736.868 791.634 736.901 791.759 736.93 791.887C736.958 792.015 736.982 792.144 737.001 792.275C737.021 792.406 737.035 792.538 737.045 792.67C737.055 792.803 737.06 792.936 737.06 793.07Z" fill="#D2D2D2"/>
<path fill-rule="evenodd" clip-rule="evenodd" d="M514.25 800.289H664.159V806.45H514.25V800.289Z" fill="#ABABAB"/>
<path fill-rule="evenodd" clip-rule="evenodd" d="M476.259 799.795H491.775V806.695H476.259V799.795Z" fill="#ABABAB"/>
<path fill-rule="evenodd" clip-rule="evenodd" d="M698.268 799.795H705.164V806.695H698.268V799.795Z" fill="#FFCF00"/>
<path fill-rule="evenodd" clip-rule="evenodd" d="M687.924 799.795H694.821V806.695H687.924V799.795Z" fill="#FF3C00"/>
<path fill-rule="evenodd" clip-rule="evenodd" d="M710.337 799.795H725.854V806.695H710.337V799.795Z" fill="#00CD00"/>
<path fill-rule="evenodd" clip-rule="evenodd" d="M514.25 810.557H664.159V817.744H514.25V810.557Z" fill="#ABABAB"/>
<path fill-rule="evenodd" clip-rule="evenodd" d="M476.259 811.008H491.775V817.908H476.259V811.008Z" fill="#ABABAB"/>
<path fill-rule="evenodd" clip-rule="evenodd" d="M698.268 811.008H705.164V817.908H698.268V811.008Z" fill="#FFCF00"/>
<path fill-rule="evenodd" clip-rule="evenodd" d="M687.924 811.008H694.82V817.908H687.924V811.008Z" fill="#FF3C00"/>
<path fill-rule="evenodd" clip-rule="evenodd" d="M710.337 811.008H725.853V817.908H710.337V811.008Z" fill="#00CD00"/>
<path fill-rule="evenodd" clip-rule="evenodd" d="M514.25 821.855H664.159V829.043H514.25V821.855Z" fill="#ABABAB"/>
<path fill-rule="evenodd" clip-rule="evenodd" d="M476.259 822.227H491.775V829.126H476.259V822.227Z" fill="#ABABAB"/>
<path fill-rule="evenodd" clip-rule="evenodd" d="M698.268 822.227H705.164V829.126H698.268V822.227Z" fill="#FFCF00"/>
<path fill-rule="evenodd" clip-rule="evenodd" d="M687.924 822.227H694.82V829.126H687.924V822.227Z" fill="#FF3C00"/>
<path fill-rule="evenodd" clip-rule="evenodd" d="M710.337 822.227H725.853V829.126H710.337V822.227Z" fill="#00CD00"/>
<rect x="463.939" y="282.006" width="273.123" height="499.303" rx="8.53509" fill="#D2D2D2"/>
<path fill-rule="evenodd" clip-rule="evenodd" d="M477.73 312.572H724.295C724.343 312.572 724.391 312.576 724.439 312.583C724.487 312.59 724.535 312.601 724.582 312.615C724.629 312.63 724.676 312.647 724.722 312.669C724.768 312.69 724.813 312.715 724.858 312.743C724.903 312.771 724.946 312.802 724.988 312.837C725.031 312.871 725.072 312.909 725.113 312.949C725.152 312.99 725.191 313.034 725.228 313.08C725.265 313.127 725.301 313.176 725.335 313.228C725.369 313.28 725.401 313.334 725.432 313.391C725.463 313.447 725.491 313.506 725.518 313.567C725.545 313.628 725.57 313.691 725.592 313.755C725.615 313.82 725.635 313.886 725.654 313.954C725.672 314.022 725.688 314.091 725.703 314.161C725.717 314.231 725.729 314.302 725.738 314.374C725.747 314.446 725.754 314.518 725.758 314.591C725.763 314.664 725.766 314.737 725.766 314.81V746.713C725.766 746.786 725.763 746.859 725.758 746.932C725.754 747.005 725.747 747.078 725.738 747.149C725.729 747.221 725.717 747.292 725.703 747.362C725.688 747.432 725.672 747.501 725.654 747.569C725.635 747.637 725.615 747.703 725.592 747.767C725.57 747.832 725.545 747.895 725.518 747.957C725.491 748.017 725.463 748.076 725.432 748.132C725.401 748.189 725.369 748.243 725.335 748.295C725.301 748.347 725.265 748.396 725.228 748.443C725.191 748.49 725.152 748.533 725.113 748.574C725.072 748.615 725.031 748.652 724.988 748.687C724.946 748.721 724.903 748.752 724.858 748.781C724.813 748.808 724.768 748.833 724.722 748.855C724.676 748.876 724.629 748.893 724.582 748.908C724.535 748.923 724.487 748.933 724.439 748.94C724.391 748.947 724.343 748.951 724.295 748.951H477.73C477.682 748.951 477.634 748.947 477.586 748.94C477.538 748.933 477.491 748.923 477.444 748.908C477.396 748.893 477.35 748.876 477.304 748.855C477.257 748.833 477.212 748.808 477.168 748.781C477.123 748.752 477.08 748.721 477.037 748.687C476.995 748.652 476.953 748.615 476.913 748.574C476.873 748.533 476.835 748.49 476.798 748.443C476.76 748.396 476.725 748.347 476.691 748.296C476.657 748.244 476.624 748.189 476.594 748.132C476.563 748.076 476.534 748.017 476.508 747.957C476.481 747.895 476.456 747.832 476.434 747.767C476.411 747.703 476.39 747.637 476.372 747.569C476.353 747.501 476.337 747.432 476.323 747.362C476.309 747.292 476.298 747.221 476.288 747.149C476.279 747.078 476.272 747.005 476.267 746.932C476.262 746.859 476.26 746.786 476.26 746.713V314.81C476.26 314.737 476.262 314.664 476.267 314.591C476.272 314.518 476.279 314.446 476.288 314.374C476.298 314.302 476.309 314.231 476.323 314.161C476.337 314.091 476.353 314.022 476.372 313.954C476.39 313.886 476.411 313.82 476.434 313.755C476.456 313.691 476.481 313.628 476.508 313.567C476.534 313.506 476.563 313.447 476.594 313.391C476.624 313.334 476.657 313.28 476.691 313.228C476.725 313.176 476.76 313.127 476.798 313.08C476.835 313.034 476.873 312.99 476.913 312.949C476.953 312.909 476.995 312.871 477.037 312.837C477.08 312.802 477.123 312.771 477.168 312.743C477.212 312.715 477.257 312.69 477.304 312.669C477.35 312.647 477.396 312.63 477.444 312.615C477.491 312.601 477.538 312.59 477.586 312.583C477.634 312.576 477.682 312.572 477.73 312.572Z" fill="white"/>
<path fill-rule="evenodd" clip-rule="evenodd" d="M476.26 761.275H725.766V767.436H476.26V761.275Z" fill="#ABABAB"/>
<path fill-rule="evenodd" clip-rule="evenodd" d="M387.122 793.066V836.257C387.122 836.391 387.117 836.524 387.108 836.657C387.097 836.789 387.083 836.921 387.064 837.052C387.045 837.183 387.021 837.312 386.992 837.44C386.963 837.567 386.93 837.693 386.892 837.816C386.854 837.939 386.811 838.06 386.765 838.178C386.718 838.295 386.667 838.41 386.612 838.52C386.557 838.631 386.498 838.738 386.435 838.842C386.372 838.945 386.306 839.043 386.236 839.138C386.166 839.232 386.092 839.322 386.016 839.406C385.939 839.491 385.86 839.57 385.778 839.644C385.695 839.718 385.61 839.787 385.523 839.85C385.435 839.913 385.346 839.97 385.254 840.021C385.163 840.072 385.07 840.117 384.975 840.155C384.88 840.194 384.784 840.227 384.687 840.253C384.59 840.279 384.492 840.298 384.393 840.311C384.294 840.324 384.195 840.331 384.096 840.331H117.026C116.927 840.331 116.828 840.324 116.729 840.311C116.631 840.298 116.533 840.279 116.436 840.253C116.338 840.227 116.242 840.194 116.148 840.155C116.053 840.117 115.959 840.072 115.868 840.021C115.776 839.97 115.687 839.913 115.6 839.85C115.512 839.787 115.427 839.718 115.345 839.644C115.262 839.57 115.183 839.491 115.106 839.406C115.03 839.322 114.956 839.232 114.886 839.138C114.816 839.043 114.75 838.945 114.687 838.842C114.624 838.738 114.565 838.631 114.51 838.52C114.455 838.41 114.404 838.295 114.357 838.178C114.311 838.06 114.268 837.939 114.231 837.816C114.193 837.693 114.159 837.567 114.131 837.44C114.102 837.312 114.078 837.183 114.058 837.052C114.039 836.921 114.025 836.789 114.015 836.657C114.005 836.524 114 836.391 114 836.257V793.066C114 792.932 114.005 792.799 114.015 792.666C114.025 792.534 114.039 792.402 114.058 792.271C114.078 792.14 114.102 792.011 114.131 791.883C114.159 791.756 114.193 791.63 114.231 791.507C114.268 791.384 114.311 791.263 114.357 791.145C114.404 791.028 114.455 790.913 114.51 790.803C114.565 790.692 114.624 790.585 114.687 790.481C114.75 790.378 114.816 790.28 114.886 790.185C114.956 790.091 115.03 790.001 115.106 789.917C115.183 789.832 115.262 789.753 115.345 789.679C115.427 789.605 115.512 789.536 115.6 789.473C115.687 789.41 115.776 789.353 115.868 789.302C115.959 789.251 116.053 789.206 116.148 789.168C116.242 789.129 116.338 789.096 116.436 789.07C116.533 789.044 116.631 789.025 116.729 789.012C116.828 788.999 116.927 788.992 117.026 788.992H384.096C384.195 788.992 384.294 788.999 384.393 789.012C384.492 789.025 384.59 789.044 384.687 789.07C384.784 789.096 384.88 789.129 384.975 789.168C385.07 789.206 385.163 789.251 385.254 789.302C385.346 789.353 385.435 789.41 385.523 789.473C385.61 789.536 385.695 789.605 385.778 789.679C385.86 789.753 385.939 789.832 386.016 789.917C386.092 790.001 386.166 790.091 386.236 790.185C386.306 790.28 386.372 790.378 386.435 790.481C386.498 790.585 386.557 790.692 386.612 790.803C386.667 790.913 386.718 791.028 386.765 791.145C386.811 791.263 386.854 791.384 386.892 791.507C386.93 791.63 386.963 791.756 386.992 791.883C387.021 792.011 387.045 792.14 387.064 792.271C387.083 792.402 387.097 792.534 387.108 792.666C387.117 792.799 387.122 792.932 387.122 793.066Z" fill="#D2D2D2"/>
<path fill-rule="evenodd" clip-rule="evenodd" d="M164.312 800.285H314.221V806.446H164.312V800.285Z" fill="#ABABAB"/>
<path fill-rule="evenodd" clip-rule="evenodd" d="M126.32 799.791H141.836V806.691H126.32V799.791Z" fill="#ABABAB"/>
<path fill-rule="evenodd" clip-rule="evenodd" d="M348.331 799.791H355.227V806.691H348.331V799.791Z" fill="#FFCF00"/>
<path fill-rule="evenodd" clip-rule="evenodd" d="M337.987 799.791H344.883V806.691H337.987V799.791Z" fill="#FF3C00"/>
<path fill-rule="evenodd" clip-rule="evenodd" d="M360.4 799.791H375.916V806.691H360.4V799.791Z" fill="#00CD00"/>
<path fill-rule="evenodd" clip-rule="evenodd" d="M164.31 810.555H314.219V817.742H164.31V810.555Z" fill="#ABABAB"/>
<path fill-rule="evenodd" clip-rule="evenodd" d="M126.319 811.006H141.835V817.906H126.319V811.006Z" fill="#ABABAB"/>
<path fill-rule="evenodd" clip-rule="evenodd" d="M348.328 811.006H355.224V817.906H348.328V811.006Z" fill="#FFCF00"/>
<path fill-rule="evenodd" clip-rule="evenodd" d="M337.984 811.006H344.88V817.906H337.984V811.006Z" fill="#FF3C00"/>
<path fill-rule="evenodd" clip-rule="evenodd" d="M360.397 811.006H375.914V817.906H360.397V811.006Z" fill="#00CD00"/>
<path fill-rule="evenodd" clip-rule="evenodd" d="M164.31 821.852H314.219V829.039H164.31V821.852Z" fill="#ABABAB"/>
<path fill-rule="evenodd" clip-rule="evenodd" d="M126.319 822.223H141.835V829.123H126.319V822.223Z" fill="#ABABAB"/>
<path fill-rule="evenodd" clip-rule="evenodd" d="M348.328 822.223H355.224V829.123H348.328V822.223Z" fill="#FFCF00"/>
<path fill-rule="evenodd" clip-rule="evenodd" d="M337.984 822.223H344.88V829.123H337.984V822.223Z" fill="#FF3C00"/>
<path fill-rule="evenodd" clip-rule="evenodd" d="M360.397 822.223H375.913V829.123H360.397V822.223Z" fill="#00CD00"/>
<rect x="114" y="282" width="273.123" height="499.303" rx="8.53509" fill="#D2D2D2"/>
<path fill-rule="evenodd" clip-rule="evenodd" d="M127.793 312.57H374.358C374.406 312.57 374.454 312.574 374.502 312.581C374.55 312.588 374.597 312.599 374.645 312.613C374.692 312.628 374.738 312.645 374.784 312.667C374.83 312.688 374.876 312.713 374.92 312.741C374.965 312.769 375.008 312.8 375.051 312.835C375.093 312.869 375.135 312.907 375.175 312.947C375.215 312.988 375.253 313.032 375.29 313.078C375.328 313.125 375.363 313.174 375.398 313.226C375.432 313.278 375.464 313.332 375.494 313.389C375.525 313.445 375.554 313.504 375.58 313.565C375.607 313.626 375.632 313.689 375.655 313.753C375.677 313.818 375.698 313.884 375.716 313.952C375.734 314.02 375.751 314.089 375.765 314.159C375.779 314.229 375.791 314.3 375.8 314.372C375.81 314.444 375.816 314.516 375.821 314.589C375.826 314.662 375.828 314.735 375.828 314.808V746.711C375.828 746.784 375.826 746.857 375.821 746.93C375.816 747.003 375.81 747.076 375.8 747.147C375.791 747.219 375.779 747.29 375.765 747.36C375.751 747.43 375.734 747.499 375.716 747.567C375.698 747.635 375.677 747.701 375.655 747.766C375.632 747.83 375.607 747.894 375.58 747.955C375.554 748.015 375.525 748.074 375.494 748.13C375.464 748.187 375.432 748.241 375.398 748.293C375.363 748.345 375.328 748.394 375.29 748.441C375.253 748.488 375.215 748.531 375.175 748.572C375.135 748.613 375.093 748.65 375.051 748.685C375.008 748.719 374.965 748.75 374.92 748.779C374.876 748.806 374.83 748.831 374.784 748.853C374.738 748.874 374.692 748.891 374.645 748.906C374.597 748.921 374.55 748.931 374.502 748.938C374.454 748.945 374.406 748.949 374.358 748.949H127.793C127.745 748.949 127.697 748.945 127.649 748.938C127.601 748.931 127.553 748.921 127.506 748.906C127.459 748.891 127.412 748.874 127.366 748.853C127.32 748.831 127.275 748.806 127.23 748.779C127.186 748.75 127.142 748.719 127.1 748.685C127.057 748.65 127.016 748.613 126.976 748.572C126.936 748.531 126.897 748.488 126.86 748.441C126.823 748.394 126.787 748.345 126.753 748.294C126.719 748.242 126.687 748.187 126.656 748.13C126.626 748.074 126.597 748.015 126.57 747.955C126.543 747.894 126.519 747.83 126.496 747.766C126.473 747.701 126.453 747.635 126.434 747.567C126.416 747.499 126.4 747.43 126.386 747.36C126.372 747.29 126.36 747.219 126.351 747.147C126.341 747.076 126.334 747.003 126.329 746.93C126.325 746.857 126.322 746.784 126.322 746.711V314.808C126.322 314.735 126.325 314.662 126.329 314.589C126.334 314.516 126.341 314.444 126.351 314.372C126.36 314.3 126.372 314.229 126.386 314.159C126.4 314.089 126.416 314.02 126.434 313.952C126.453 313.884 126.473 313.818 126.496 313.753C126.519 313.689 126.543 313.626 126.57 313.565C126.597 313.504 126.626 313.445 126.656 313.389C126.687 313.332 126.719 313.278 126.753 313.226C126.787 313.174 126.823 313.125 126.86 313.078C126.897 313.032 126.936 312.988 126.976 312.947C127.016 312.907 127.057 312.869 127.1 312.835C127.142 312.8 127.186 312.769 127.23 312.741C127.275 312.713 127.32 312.688 127.366 312.667C127.412 312.645 127.459 312.628 127.506 312.613C127.553 312.599 127.601 312.588 127.649 312.581C127.697 312.574 127.745 312.57 127.793 312.57Z" fill="white"/>
<path fill-rule="evenodd" clip-rule="evenodd" d="M126.322 761.27H375.828V767.43H126.322V761.27Z" fill="#ABABAB"/>
<path fill-rule="evenodd" clip-rule="evenodd" d="M362 508.91C362 510.064 361.286 511 360.405 511H135.595C134.714 511 134 510.064 134 508.91V333.113C134 329.184 137.184 326 141.113 326H354.887C358.816 326 362 329.184 362 333.113V508.91Z" fill="#BC5090"/>
<path d="M134 333.113C134 329.184 137.184 326 141.113 326H354.887C358.816 326 362 329.184 362 333.113V358.718H134V333.113Z" fill="#CCCCCC"/>
<path fill-rule="evenodd" clip-rule="evenodd" d="M158.183 343.782C158.183 347.318 155.317 350.183 151.781 350.183C148.246 350.183 145.38 347.318 145.38 343.782C145.38 340.246 148.246 337.381 151.781 337.381C155.317 337.381 158.183 340.246 158.183 343.782Z" fill="#E74C3C"/>
<path fill-rule="evenodd" clip-rule="evenodd" d="M180.943 343.782C180.943 347.318 178.077 350.183 174.542 350.183C171.006 350.183 168.14 347.318 168.14 343.782C168.14 340.246 171.006 337.381 174.542 337.381C178.077 337.381 180.943 340.246 180.943 343.782Z" fill="#F1C40F"/>
<path fill-rule="evenodd" clip-rule="evenodd" d="M202.281 343.782C202.281 347.318 199.415 350.183 195.879 350.183C192.344 350.183 189.478 347.318 189.478 343.782C189.478 340.246 192.344 337.381 195.879 337.381C199.415 337.381 202.281 340.246 202.281 343.782Z" fill="#2ECC71"/>
<path fill-rule="evenodd" clip-rule="evenodd" d="M1065 509.008C1065 510.162 1064.29 511.098 1063.41 511.098H838.595C837.714 511.098 837 510.162 837 509.008V333.21C837 329.282 840.184 326.098 844.112 326.098H1057.89C1061.82 326.098 1065 329.282 1065 333.21V509.008Z" fill="#FFA600"/>
<path d="M837 333.21C837 329.282 840.184 326.098 844.112 326.098H1057.89C1061.82 326.098 1065 329.282 1065 333.21V358.815H837V333.21Z" fill="#CCCCCC"/>
<path fill-rule="evenodd" clip-rule="evenodd" d="M861.182 343.88C861.182 347.415 858.317 350.281 854.781 350.281C851.245 350.281 848.38 347.415 848.38 343.88C848.38 340.344 851.245 337.479 854.781 337.479C858.317 337.479 861.182 340.344 861.182 343.88Z" fill="#E74C3C"/>
<path fill-rule="evenodd" clip-rule="evenodd" d="M883.942 343.88C883.942 347.415 881.077 350.281 877.541 350.281C874.005 350.281 871.14 347.415 871.14 343.88C871.14 340.344 874.005 337.479 877.541 337.479C881.077 337.479 883.942 340.344 883.942 343.88Z" fill="#F1C40F"/>
<path fill-rule="evenodd" clip-rule="evenodd" d="M905.279 343.88C905.279 347.415 902.414 350.281 898.878 350.281C895.343 350.281 892.477 347.415 892.477 343.88C892.477 340.344 895.343 337.479 898.878 337.479C902.414 337.479 905.279 340.344 905.279 343.88Z" fill="#2ECC71"/>
<path d="M951 347.437L971.532 311.874H930.468L951 347.437ZM947.444 287.691V315.43H954.556V287.691H947.444Z" fill="#FFA600"/>
<path d="M922.778 427.648C921.927 428.5 921.211 429.454 920.7 430.476C921.245 429.488 921.927 428.5 922.778 427.648Z" fill="url(#paint0_linear_16_5404)"/>
<path d="M958.205 402.578C959.806 402.578 961.407 403.191 962.633 404.418L966.278 408.062L962.633 404.418C961.407 403.191 959.806 402.578 958.205 402.578Z" fill="url(#paint1_linear_16_5404)"/>
<path d="M922.779 406.972C926.798 402.952 933.372 402.918 937.392 406.972L940.424 410.003L949.893 400.533C954.492 395.935 961.918 395.935 966.517 400.533L970.161 404.178L979.257 395.083L959.431 375.292C953.709 369.569 944.375 369.569 938.686 375.292L897.776 416.203C892.938 421.04 892.223 428.534 895.595 434.155L895.732 434.018L922.779 406.972Z" fill="url(#paint2_linear_16_5404)"/>
<path d="M976.191 442.568C972.137 446.622 965.597 446.588 961.577 442.568L957.967 438.958L946.044 450.88C941.445 455.479 934.02 455.479 929.421 450.88L926.355 447.814L917.499 456.671L935.723 474.895C941.445 480.618 950.779 480.618 956.468 474.895L997.379 433.984C1001.64 429.726 1002.73 423.424 1000.61 418.145L999.286 419.473L976.191 442.568Z" fill="url(#paint3_linear_16_5404)"/>
<path d="M942.161 447.03C941.548 447.643 940.832 448.086 940.083 448.393C939.334 448.699 938.516 448.836 937.733 448.836C936.132 448.836 934.531 448.223 933.304 446.996L926.696 440.388C925.47 439.161 924.856 437.56 924.856 435.959C924.856 435.142 925.027 434.358 925.299 433.609C925.606 432.86 926.049 432.144 926.662 431.531L953.777 404.416C954.659 403.529 955.786 402.924 957.013 402.679C957.407 402.611 957.805 402.577 958.205 402.577C959.806 402.577 961.407 403.19 962.633 404.416L966.278 408.061L970.161 404.178L966.517 400.533C961.918 395.934 954.492 395.934 949.893 400.533L922.778 427.648C921.927 428.499 921.212 429.453 920.701 430.475C920.53 430.816 920.36 431.156 920.224 431.531C918.929 434.699 919.1 438.344 920.701 441.41C921.246 442.432 921.927 443.385 922.778 444.237L929.387 450.845C933.986 455.444 941.411 455.444 946.01 450.845L957.932 438.923L954.049 435.04L942.161 447.03Z" fill="white"/>
<path d="M999.286 419.472L1000.61 418.144C1000.14 416.917 999.456 415.759 998.639 414.703C998.945 416.27 999.15 417.871 999.286 419.472Z" fill="#2C256C"/>
<path d="M895.732 434.018L895.595 434.154C895.663 434.29 895.766 434.426 895.834 434.563L895.732 434.018Z" fill="#5B2D82"/>
<path d="M953.981 420.36L966.278 408.062L962.633 404.418C961.407 403.191 959.806 402.578 958.205 402.578C957.796 402.578 957.387 402.612 957.013 402.68C955.785 402.925 954.659 403.53 953.777 404.418L944.307 413.887L944.988 414.569C949.008 418.588 949.008 425.163 944.988 429.182L930.204 443.966L933.27 447.032C934.496 448.258 936.097 448.871 937.698 448.871C938.516 448.871 939.299 448.701 940.049 448.428C940.798 448.122 941.514 447.679 942.127 447.066L954.049 435.143L953.947 435.041C949.927 430.953 949.927 424.413 953.981 420.36Z" fill="url(#paint4_linear_16_5404)"/>
<path d="M953.981 420.36L966.278 408.062L962.633 404.418C961.407 403.191 959.806 402.578 958.205 402.578C957.796 402.578 957.387 402.612 957.013 402.68C955.785 402.925 954.659 403.53 953.777 404.418L944.307 413.887L944.988 414.569C949.008 418.588 949.008 425.163 944.988 429.182L930.204 443.966L933.27 447.032C934.496 448.258 936.097 448.871 937.698 448.871C938.516 448.871 939.299 448.701 940.049 448.428C940.798 448.122 941.514 447.679 942.127 447.066L954.049 435.143L953.947 435.041C949.927 430.953 949.927 424.413 953.981 420.36Z" fill="url(#paint5_linear_16_5404)"/>
<path d="M942.161 447.031C941.548 447.644 940.832 448.087 940.083 448.394C940.832 448.087 941.548 447.644 942.161 447.031Z" fill="white"/>
<path d="M942.161 447.031C941.548 447.644 940.832 448.087 940.083 448.394C940.832 448.087 941.548 447.644 942.161 447.031Z" fill="url(#paint6_linear_16_5404)"/>
<path d="M930.204 443.965L933.27 447.031C934.496 448.257 936.097 448.87 937.698 448.87C936.097 448.87 934.496 448.257 933.27 447.031L930.204 443.965Z" fill="white"/>
<path d="M930.204 443.965L933.27 447.031C934.496 448.257 936.097 448.87 937.698 448.87C936.097 448.87 934.496 448.257 933.27 447.031L930.204 443.965Z" fill="url(#paint7_linear_16_5404)"/>
<path d="M953.777 404.417C954.659 403.529 955.785 402.925 957.013 402.68C955.82 402.952 954.696 403.497 953.777 404.417Z" fill="white"/>
<path d="M953.777 404.417C954.659 403.529 955.785 402.925 957.013 402.68C955.82 402.952 954.696 403.497 953.777 404.417Z" fill="url(#paint8_linear_16_5404)"/>
<path d="M897.775 436.948C897.026 436.198 896.413 435.415 895.834 434.563C895.732 434.427 895.664 434.291 895.595 434.154L891.712 438.038C887.658 442.091 887.658 448.631 891.712 452.651L899.308 460.247C902.578 463.517 907.45 464.131 911.333 462.121C912.253 461.644 913.138 461.031 913.922 460.247L917.499 456.671L897.775 436.948Z" fill="#2C256C"/>
<path d="M922.778 444.272C921.927 443.42 921.212 442.467 920.701 441.445C919.1 438.379 918.929 434.734 920.224 431.566C920.368 431.208 920.528 430.856 920.701 430.51C921.246 429.488 921.927 428.534 922.778 427.683L940.424 410.038L937.392 407.006C933.338 402.952 926.798 402.986 922.778 407.006L895.732 434.053L895.834 434.598C896.379 435.449 897.026 436.233 897.776 436.982L917.499 456.705L926.355 447.849L922.778 444.272Z" fill="#5B2D82"/>
<path fill-rule="evenodd" clip-rule="evenodd" d="M944.988 429.181L930.204 443.965L926.696 440.388C925.47 439.162 924.856 437.561 924.856 435.96C924.856 435.177 924.993 434.359 925.299 433.61C925.606 432.86 926.049 432.145 926.662 431.532L944.307 413.887L944.988 414.568C949.008 418.588 949.008 425.162 944.988 429.181ZM920.224 431.532C919.647 432.943 919.361 434.448 919.363 435.955C919.364 434.455 919.65 432.95 920.224 431.532ZM920.701 441.41C919.809 439.721 919.361 437.842 919.363 435.955C919.365 437.832 919.813 439.71 920.701 441.41Z" fill="#5B2D82"/>
<path fill-rule="evenodd" clip-rule="evenodd" d="M926.662 440.389C925.435 439.163 924.822 437.562 924.822 435.961C924.822 437.562 925.435 439.197 926.662 440.389Z" fill="#5B2D82"/>
<path d="M966.278 408.062L953.981 420.36C949.928 424.413 949.928 430.953 953.981 434.973L954.083 435.075L969.242 419.917C970.129 419.034 970.734 417.908 970.979 416.681C971.047 416.287 971.081 415.888 971.081 415.488C971.081 413.887 970.468 412.286 969.242 411.06L966.278 408.062Z" fill="#2C256C"/>
<path d="M969.276 419.918C970.163 419.035 970.768 417.909 971.013 416.682C970.741 417.874 970.162 418.998 969.276 419.918Z" fill="#2C256C"/>
<path fill-rule="evenodd" clip-rule="evenodd" d="M969.276 411.061C970.502 412.287 971.115 413.888 971.115 415.489C971.081 413.888 970.502 412.287 969.276 411.061Z" fill="#623393"/>
<path fill-rule="evenodd" clip-rule="evenodd" d="M999.661 389.293L1007.26 396.889C1011.28 400.943 1011.28 407.483 1007.26 411.503L1000.61 418.145C1000.1 416.919 999.456 415.761 998.639 414.705C998.264 414.16 997.855 413.683 997.379 413.206L979.257 395.084L985.047 389.293L985.047 389.293C985.286 389.055 985.524 388.816 985.797 388.612C989.85 385.273 995.88 385.512 999.661 389.293ZM976.089 418.826C975.986 419.201 975.85 419.576 975.714 419.917C975.135 421.313 974.283 422.642 973.125 423.8L957.967 438.958L954.083 435.075L969.242 419.917C970.129 419.034 970.734 417.908 970.979 416.68C971.047 416.306 971.081 415.897 971.081 415.488C971.081 413.887 970.468 412.286 969.242 411.06L966.244 408.062L970.127 404.179L973.125 407.177C976.293 410.31 977.281 414.841 976.089 418.826Z" fill="#623393"/>
<path d="M973.125 407.177C976.293 410.345 977.247 414.841 976.089 418.827C975.986 419.201 975.85 419.542 975.714 419.917C975.135 421.347 974.283 422.642 973.125 423.8L957.967 438.958L961.577 442.569C965.631 446.623 972.171 446.623 976.191 442.569L999.286 419.474C999.15 417.873 998.945 416.272 998.639 414.705C998.264 414.194 997.821 413.683 997.379 413.206L979.257 395.084L970.161 404.179L973.125 407.177Z" fill="#2C256C"/>
<path d="M973.125 407.177C976.293 410.345 977.247 414.842 976.089 418.827C977.281 414.842 976.293 410.311 973.125 407.177L970.127 404.18L973.125 407.177Z" fill="#2C256C"/>
<rect width="254" height="18" rx="8.3366" transform="matrix(1 0 0 -1 823 306)" fill="#FFA600"/>
<path d="M952.99 273.109C953.602 273.667 954.551 273.623 955.109 273.011L964.201 263.031C964.759 262.419 964.715 261.47 964.102 260.912C963.49 260.354 962.541 260.399 961.983 261.011L953.901 269.881L945.031 261.799C944.419 261.241 943.47 261.286 942.912 261.898C942.354 262.51 942.398 263.459 943.011 264.017L952.99 273.109ZM249.458 324.352C252.817 310.438 265.92 296.336 286.867 282.663C307.745 269.034 336.123 256.018 369.502 244.164C436.249 220.459 522.76 201.48 608.673 191.49C694.601 181.498 779.806 180.514 843.97 192.724C876.059 198.83 902.764 208.215 921.661 221.326C940.514 234.408 951.528 251.142 952.502 272.07L955.498 271.931C954.472 249.858 942.799 232.342 923.371 218.862C903.986 205.411 876.816 195.92 844.53 189.777C779.944 177.486 694.399 178.502 608.327 188.51C522.24 198.52 435.501 217.541 368.498 241.337C335.002 253.233 306.38 266.342 285.227 280.15C264.142 293.914 250.183 308.562 246.542 323.648L249.458 324.352Z" fill="black"/>
<path d="M516.379 126.906C516.379 126.177 516.835 125.247 517.746 124.117C518.658 122.951 519.788 121.638 521.137 120.18C522.486 118.721 523.962 117.135 525.566 115.422C527.171 113.708 528.647 111.94 529.996 110.117C531.345 108.258 532.475 106.38 533.387 104.484C534.298 102.552 534.754 100.656 534.754 98.7969C534.754 97.8125 534.48 96.974 533.934 96.2812C533.387 95.5521 532.676 94.9323 531.801 94.4219C530.962 93.9115 529.996 93.5104 528.902 93.2188C527.845 92.9271 526.77 92.7083 525.676 92.5625C524.582 92.3802 523.543 92.2708 522.559 92.2344C521.574 92.1615 520.736 92.125 520.043 92.125C519.861 92.125 519.624 92.1432 519.332 92.1797C519.04 92.1797 518.73 92.1979 518.402 92.2344C518.111 92.2344 517.837 92.2526 517.582 92.2891C517.327 92.3255 517.181 92.3438 517.145 92.3438L516.434 93C516.434 93.0729 516.415 93.3828 516.379 93.9297C516.379 94.4766 516.361 95.0964 516.324 95.7891C516.324 96.4818 516.324 97.1927 516.324 97.9219V99.6172C516.324 103.299 516.452 106.964 516.707 110.609C516.999 114.219 517.145 117.865 517.145 121.547C517.145 121.766 517.145 122.003 517.145 122.258C517.181 122.513 517.181 122.768 517.145 123.023C517.108 123.242 516.999 123.443 516.816 123.625C516.671 123.771 516.434 123.844 516.105 123.844C515.887 123.844 515.668 123.789 515.449 123.68C515.23 123.57 515.103 123.388 515.066 123.133L512.934 94.3672C512.824 94.4401 512.624 94.5495 512.332 94.6953C512.077 94.8047 511.803 94.9323 511.512 95.0781C511.22 95.224 510.928 95.388 510.637 95.5703C510.382 95.7161 510.217 95.7891 510.145 95.7891C510.108 95.7891 510.035 95.8073 509.926 95.8438C509.853 95.8438 509.798 95.8438 509.762 95.8438C509.579 95.8438 509.361 95.8073 509.105 95.7344C508.887 95.625 508.777 95.4062 508.777 95.0781C508.777 94.5312 508.887 94.0938 509.105 93.7656C509.361 93.401 509.671 93.0729 510.035 92.7812C510.436 92.4896 510.855 92.1979 511.293 91.9062C511.73 91.6146 512.132 91.25 512.496 90.8125C512.897 90.3385 513.207 89.7552 513.426 89.0625C513.681 88.3698 513.809 87.4948 513.809 86.4375C514.538 86.4375 514.993 86.5651 515.176 86.8203C515.358 87.0755 515.467 87.3854 515.504 87.75C515.54 88.0781 515.577 88.4245 515.613 88.7891C515.686 89.1172 515.96 89.3542 516.434 89.5C517.454 89.4635 518.676 89.4635 520.098 89.5C521.556 89.5365 523.069 89.6641 524.637 89.8828C526.241 90.0651 527.809 90.3568 529.34 90.7578C530.908 91.1589 532.293 91.724 533.496 92.4531C534.736 93.1823 535.702 94.112 536.395 95.2422C537.124 96.3359 537.452 97.6849 537.379 99.2891C536.905 102.096 535.993 104.794 534.645 107.383C533.332 109.971 531.764 112.469 529.941 114.875C528.155 117.245 526.204 119.523 524.09 121.711C522.012 123.898 519.934 125.995 517.855 128C517.819 128 517.764 128 517.691 128C517.618 128.036 517.564 128.055 517.527 128.055C517.199 128.055 516.926 127.945 516.707 127.727C516.488 127.508 516.379 127.234 516.379 126.906ZM540.332 94.3672V91.7422C540.77 91.7422 541.262 91.888 541.809 92.1797C542.355 92.4714 542.884 92.8177 543.395 93.2188C543.905 93.6198 544.379 94.0755 544.816 94.5859C545.254 95.0599 545.6 95.4609 545.855 95.7891L561.988 117.5C562.098 116.88 562.189 115.732 562.262 114.055C562.371 112.378 562.408 110.482 562.371 108.367C562.371 106.216 562.316 103.974 562.207 101.641C562.134 99.3073 562.007 97.138 561.824 95.1328C561.678 93.0911 561.496 91.3776 561.277 89.9922C561.095 88.5703 560.84 87.7135 560.512 87.4219C560.512 86.875 560.603 86.3646 560.785 85.8906C561.004 85.4167 561.405 85.1797 561.988 85.1797C562.572 85.1797 563.046 85.5078 563.41 86.1641C563.775 86.8203 564.048 87.5677 564.23 88.4062C564.413 89.2083 564.54 90.0104 564.613 90.8125C564.723 91.5781 564.777 92.0885 564.777 92.3438C564.814 93 564.85 94.0026 564.887 95.3516C564.923 96.6641 564.96 98.1771 564.996 99.8906C565.033 101.568 565.069 103.354 565.105 105.25C565.178 107.146 565.233 108.932 565.27 110.609C565.342 112.286 565.379 113.818 565.379 115.203C565.415 116.552 565.452 117.555 565.488 118.211C565.488 118.685 565.561 119.122 565.707 119.523C565.889 119.924 566.053 120.326 566.199 120.727C566.382 121.128 566.546 121.529 566.691 121.93C566.837 122.331 566.91 122.75 566.91 123.188C566.91 123.917 566.637 124.464 566.09 124.828C565.579 125.156 564.996 125.32 564.34 125.32C563.975 125.32 563.647 125.284 563.355 125.211C563.1 125.102 562.882 124.938 562.699 124.719C562.553 124.464 562.462 124.154 562.426 123.789C562.426 123.424 562.499 122.951 562.645 122.367C562.243 121.893 561.624 121.128 560.785 120.07C559.947 118.977 558.999 117.773 557.941 116.461C556.921 115.112 555.827 113.708 554.66 112.25C553.493 110.792 552.382 109.406 551.324 108.094C550.267 106.745 549.319 105.542 548.48 104.484L546.621 102.133C546.548 102.023 546.421 101.878 546.238 101.695L544.926 100.383C544.743 100.201 544.598 100.073 544.488 100C544.342 102.115 544.361 104.247 544.543 106.398C544.725 108.513 544.962 110.628 545.254 112.742C545.582 114.857 545.892 116.971 546.184 119.086C546.512 121.164 546.676 123.26 546.676 125.375C546.676 125.958 546.621 126.487 546.512 126.961C546.402 127.398 545.965 127.745 545.199 128C544.47 127.745 543.978 127.271 543.723 126.578C543.467 125.849 543.486 125.156 543.777 124.5L540.332 94.3672ZM575.551 125.43C575.624 125.065 576.079 124.719 576.918 124.391C577.757 124.062 578.796 123.716 580.035 123.352C581.275 122.987 582.642 122.586 584.137 122.148C585.632 121.711 587.072 121.219 588.457 120.672C589.842 120.125 591.1 119.505 592.23 118.812C593.397 118.12 594.254 117.318 594.801 116.406C594.801 115.859 594.436 115.44 593.707 115.148C593.014 114.857 592.066 114.62 590.863 114.438C589.697 114.219 588.348 114.055 586.816 113.945C585.322 113.799 583.772 113.617 582.168 113.398C580.6 113.143 579.051 112.852 577.52 112.523C576.025 112.159 574.676 111.667 573.473 111.047C572.306 110.391 571.358 109.57 570.629 108.586C569.936 107.602 569.59 106.398 569.59 104.977C569.59 103.555 569.9 102.151 570.52 100.766C571.139 99.3438 571.96 97.9766 572.98 96.6641C574.038 95.3516 575.223 94.1302 576.535 93C577.884 91.8698 579.288 90.8854 580.746 90.0469C582.204 89.2083 583.645 88.5521 585.066 88.0781C586.525 87.6042 587.874 87.3672 589.113 87.3672C589.441 87.3672 589.788 87.3672 590.152 87.3672C590.517 87.3307 590.827 87.349 591.082 87.4219C591.374 87.4583 591.611 87.5859 591.793 87.8047C591.975 88.0234 592.066 88.3516 592.066 88.7891C592.066 89.8464 591.72 90.612 591.027 91.0859C590.335 91.5234 589.496 91.7422 588.512 91.7422L586.379 90.2109C585.54 90.2109 584.611 90.4479 583.59 90.9219C582.605 91.3958 581.585 92.0339 580.527 92.8359C579.507 93.6016 578.504 94.4948 577.52 95.5156C576.535 96.5365 575.66 97.5938 574.895 98.6875C574.165 99.7812 573.564 100.875 573.09 101.969C572.652 103.062 572.434 104.047 572.434 104.922C572.434 106.198 572.78 107.237 573.473 108.039C574.202 108.805 575.15 109.424 576.316 109.898C577.52 110.336 578.887 110.664 580.418 110.883C581.949 111.102 583.499 111.284 585.066 111.43C586.634 111.576 588.184 111.721 589.715 111.867C591.246 111.977 592.595 112.195 593.762 112.523C594.965 112.852 595.913 113.289 596.605 113.836C597.335 114.383 597.699 115.13 597.699 116.078C598.1 116.661 598.009 117.336 597.426 118.102C596.879 118.831 596.004 119.578 594.801 120.344C593.634 121.073 592.23 121.82 590.59 122.586C588.986 123.315 587.327 123.99 585.613 124.609C583.9 125.193 582.241 125.703 580.637 126.141C579.033 126.542 577.665 126.797 576.535 126.906C576.207 126.906 575.915 126.797 575.66 126.578C575.441 126.359 575.405 125.977 575.551 125.43ZM641.012 114C640.866 115.021 640.665 116.188 640.41 117.5C640.155 118.812 639.663 120.07 638.934 121.273C638.241 122.477 637.202 123.534 635.816 124.445C634.467 125.32 632.572 125.812 630.129 125.922C628.488 125.922 627.322 125.448 626.629 124.5C625.936 123.552 625.59 122.258 625.59 120.617C625.59 119.596 625.754 118.43 626.082 117.117C626.447 115.805 626.921 114.474 627.504 113.125C628.124 111.74 628.853 110.391 629.691 109.078C630.53 107.766 631.441 106.599 632.426 105.578C633.41 104.521 634.449 103.682 635.543 103.062C636.637 102.406 637.767 102.078 638.934 102.078C640.355 102.078 641.358 102.424 641.941 103.117C642.525 103.81 642.908 104.867 643.09 106.289L648.176 143.367H645.223C645.15 143.258 645.04 142.784 644.895 141.945C644.785 141.107 644.639 140.031 644.457 138.719C644.311 137.406 644.129 135.93 643.91 134.289C643.728 132.648 643.527 130.953 643.309 129.203C643.09 127.49 642.871 125.776 642.652 124.062C642.47 122.349 642.27 120.799 642.051 119.414C641.868 118.029 641.686 116.862 641.504 115.914C641.322 114.93 641.158 114.292 641.012 114ZM628.379 121.055C628.379 121.857 628.47 122.422 628.652 122.75C628.871 123.042 629.4 123.188 630.238 123.188C631.332 123.589 632.353 123.552 633.301 123.078C634.249 122.568 635.087 121.784 635.816 120.727C636.582 119.633 637.257 118.375 637.84 116.953C638.423 115.495 638.897 114.018 639.262 112.523C639.663 110.992 639.936 109.552 640.082 108.203C640.264 106.818 640.337 105.651 640.301 104.703C638.587 104.703 637.001 105.268 635.543 106.398C634.085 107.529 632.827 108.932 631.77 110.609C630.712 112.286 629.874 114.073 629.254 115.969C628.671 117.865 628.379 119.56 628.379 121.055ZM662.613 121.656C662.467 122.094 662.103 122.695 661.52 123.461C660.973 124.19 660.316 124.938 659.551 125.703C658.785 126.432 657.983 127.089 657.145 127.672C656.342 128.219 655.632 128.492 655.012 128.492C653.845 128.492 652.879 127.945 652.113 126.852C651.384 125.758 650.819 124.354 650.418 122.641C650.017 120.927 649.743 119.031 649.598 116.953C649.452 114.839 649.361 112.779 649.324 110.773C649.288 108.768 649.27 106.945 649.27 105.305C649.27 103.664 649.215 102.424 649.105 101.586C649.251 101.221 649.434 101.003 649.652 100.93C649.908 100.857 650.199 100.82 650.527 100.82C650.819 100.82 651.074 100.857 651.293 100.93C651.548 101.003 651.767 101.221 651.949 101.586C651.949 101.987 651.949 102.661 651.949 103.609C651.986 104.557 652.04 105.633 652.113 106.836C652.186 108.003 652.259 109.242 652.332 110.555C652.405 111.831 652.46 113.052 652.496 114.219C652.569 115.385 652.624 116.443 652.66 117.391C652.733 118.302 652.788 118.977 652.824 119.414C652.861 119.669 652.897 120.089 652.934 120.672C653.007 121.255 653.098 121.875 653.207 122.531C653.353 123.151 653.517 123.716 653.699 124.227C653.918 124.737 654.191 125.01 654.52 125.047C655.066 125.047 655.613 124.81 656.16 124.336C656.743 123.862 657.309 123.26 657.855 122.531C658.402 121.802 658.913 121 659.387 120.125C659.861 119.25 660.28 118.411 660.645 117.609C661.046 116.771 661.337 116.023 661.52 115.367C661.738 114.711 661.866 114.237 661.902 113.945C661.975 113.326 662.048 112.451 662.121 111.32C662.194 110.154 662.249 108.914 662.285 107.602C662.322 106.289 662.34 105.049 662.34 103.883C662.376 102.716 662.395 101.823 662.395 101.203L665.402 101.367C665.439 104.32 665.421 107 665.348 109.406C665.275 111.776 665.257 114.018 665.293 116.133C665.329 118.211 665.493 120.234 665.785 122.203C666.077 124.172 666.605 126.214 667.371 128.328C667.262 128.438 667.043 128.583 666.715 128.766C666.387 128.984 666.15 129.094 666.004 129.094C665.092 129.094 664.473 128.784 664.145 128.164C663.853 127.581 663.652 126.888 663.543 126.086C663.47 125.247 663.397 124.427 663.324 123.625C663.288 122.786 663.051 122.13 662.613 121.656ZM672.02 116.188C671.837 116.224 671.564 116.279 671.199 116.352C670.835 116.424 670.452 116.443 670.051 116.406C669.65 116.37 669.303 116.26 669.012 116.078C668.684 115.896 668.52 115.586 668.52 115.148C668.52 114.893 668.574 114.711 668.684 114.602C668.793 114.492 668.975 114.328 669.23 114.109C670.033 113.453 670.707 112.615 671.254 111.594C671.837 110.536 672.366 109.424 672.84 108.258C673.314 107.055 673.806 105.87 674.316 104.703C674.863 103.5 675.483 102.424 676.176 101.477C676.868 100.529 677.725 99.763 678.746 99.1797C679.767 98.5964 681.025 98.3229 682.52 98.3594C683.139 98.3594 683.832 98.5052 684.598 98.7969C685.363 99.0885 686.074 99.4896 686.73 100C687.387 100.474 687.934 101.057 688.371 101.75C688.809 102.443 689.027 103.208 689.027 104.047C689.21 104.339 689.027 104.758 688.48 105.305C687.97 105.852 687.259 106.453 686.348 107.109C685.436 107.729 684.397 108.385 683.23 109.078C682.1 109.734 681.007 110.354 679.949 110.938C678.892 111.521 677.962 112.031 677.16 112.469C676.358 112.906 675.829 113.234 675.574 113.453C675.392 113.818 675.246 114.237 675.137 114.711C675.027 115.185 674.936 115.641 674.863 116.078C674.827 116.479 674.79 116.862 674.754 117.227C674.754 117.555 674.754 117.81 674.754 117.992C674.754 118.685 674.717 119.451 674.645 120.289C674.608 121.128 674.645 121.93 674.754 122.695C674.9 123.424 675.21 124.044 675.684 124.555C676.158 125.029 676.96 125.266 678.09 125.266C679.293 125.266 680.423 124.974 681.48 124.391C682.538 123.771 683.522 123.023 684.434 122.148C685.345 121.273 686.165 120.326 686.895 119.305C687.66 118.284 688.335 117.336 688.918 116.461C689.538 115.549 690.085 114.802 690.559 114.219C691.033 113.635 691.434 113.344 691.762 113.344C692.126 113.344 692.509 113.417 692.91 113.562C693.348 113.672 693.566 113.964 693.566 114.438C693.566 115.094 693.293 115.878 692.746 116.789C692.236 117.701 691.543 118.667 690.668 119.688C689.829 120.708 688.845 121.729 687.715 122.75C686.621 123.734 685.509 124.628 684.379 125.43C683.249 126.195 682.137 126.833 681.043 127.344C679.949 127.818 678.983 128.055 678.145 128.055C676.504 128.055 675.264 127.654 674.426 126.852C673.587 126.049 672.986 125.047 672.621 123.844C672.293 122.641 672.111 121.365 672.074 120.016C672.074 118.63 672.056 117.354 672.02 116.188ZM682.082 101.422C681.462 101.422 680.806 101.732 680.113 102.352C679.421 102.935 678.764 103.664 678.145 104.539C677.561 105.378 677.069 106.253 676.668 107.164C676.303 108.039 676.121 108.768 676.121 109.352C676.668 109.352 677.452 109.151 678.473 108.75C679.53 108.312 680.569 107.784 681.59 107.164C682.611 106.544 683.504 105.888 684.27 105.195C685.035 104.503 685.418 103.846 685.418 103.227C685.418 102.898 685.29 102.625 685.035 102.406C684.78 102.188 684.47 102.005 684.105 101.859C683.777 101.714 683.431 101.604 683.066 101.531C682.702 101.458 682.374 101.422 682.082 101.422ZM696.301 101.641V101.203C696.301 100.839 696.428 100.583 696.684 100.438C696.975 100.292 697.303 100.219 697.668 100.219C697.96 100.219 698.233 100.255 698.488 100.328C698.743 100.365 698.944 100.565 699.09 100.93C699.199 101.477 699.309 102.242 699.418 103.227C699.527 104.174 699.655 105.232 699.801 106.398C699.947 107.565 700.092 108.805 700.238 110.117C700.421 111.393 700.585 112.615 700.73 113.781C700.913 114.911 701.095 115.932 701.277 116.844C701.46 117.755 701.66 118.448 701.879 118.922C701.77 115.422 701.879 112.396 702.207 109.844C702.535 107.255 703.155 105.159 704.066 103.555C705.014 101.914 706.29 100.784 707.895 100.164C709.535 99.5078 711.577 99.362 714.02 99.7266C715.15 99.7266 715.715 100.328 715.715 101.531C715.715 102.005 715.405 102.333 714.785 102.516C714.165 102.661 713.473 102.771 712.707 102.844C711.941 102.88 711.194 102.935 710.465 103.008C709.736 103.081 709.207 103.263 708.879 103.555C707.566 104.284 706.637 105.414 706.09 106.945C705.579 108.477 705.215 110.281 704.996 112.359C704.777 114.438 704.613 116.716 704.504 119.195C704.431 121.638 704.194 124.154 703.793 126.742C703.793 127.107 703.647 127.38 703.355 127.562C703.064 127.745 702.699 127.836 702.262 127.836C701.861 127.836 701.46 127.745 701.059 127.562C700.694 127.38 700.402 127.107 700.184 126.742L696.301 101.641ZM732.559 127.781L718.449 105.195C718.413 105.159 718.376 105.031 718.34 104.812C718.303 104.557 718.285 104.357 718.285 104.211C718.285 103.737 718.358 103.336 718.504 103.008C718.686 102.643 719.124 102.461 719.816 102.461C719.962 102.461 720.217 102.552 720.582 102.734C720.947 102.88 721.165 103.026 721.238 103.172C722.04 104.448 722.861 105.87 723.699 107.438C724.574 109.005 725.467 110.573 726.379 112.141C727.327 113.708 728.311 115.221 729.332 116.68C730.353 118.102 731.428 119.323 732.559 120.344L733.871 98.9062C733.908 98.9062 733.999 98.9062 734.145 98.9062C734.327 98.8698 734.454 98.8516 734.527 98.8516C734.855 98.8516 735.184 98.9062 735.512 99.0156C735.84 99.0885 736.077 99.3255 736.223 99.7266C736.259 101.039 736.259 102.661 736.223 104.594C736.223 106.526 736.186 108.513 736.113 110.555C736.077 112.596 736.022 114.565 735.949 116.461C735.913 118.32 735.876 119.815 735.84 120.945C735.803 121.674 735.73 122.768 735.621 124.227C735.548 125.685 735.439 127.326 735.293 129.148C735.184 131.008 735.038 132.958 734.855 135C734.71 137.042 734.564 138.974 734.418 140.797C734.272 142.62 734.145 144.26 734.035 145.719C733.926 147.214 733.835 148.289 733.762 148.945H730.918L732.559 127.781Z" fill="black"/>
<path d="M222.722 561.412C221.33 561.412 220.09 561.17 219.001 560.688C217.912 560.195 217.05 559.471 216.415 558.514C215.79 557.548 215.478 556.346 215.478 554.906C215.478 553.694 215.701 552.676 216.146 551.852C216.591 551.028 217.197 550.366 217.964 549.864C218.731 549.362 219.602 548.983 220.577 548.727C221.562 548.472 222.594 548.292 223.674 548.188C224.943 548.055 225.966 547.932 226.742 547.818C227.519 547.695 228.082 547.515 228.433 547.278C228.783 547.042 228.958 546.691 228.958 546.227V546.142C228.958 545.242 228.674 544.546 228.106 544.054C227.547 543.562 226.752 543.315 225.719 543.315C224.63 543.315 223.764 543.557 223.12 544.04C222.476 544.513 222.05 545.11 221.842 545.83L216.245 545.375C216.529 544.049 217.088 542.903 217.921 541.938C218.754 540.962 219.829 540.214 221.146 539.693C222.471 539.163 224.005 538.898 225.748 538.898C226.96 538.898 228.12 539.04 229.228 539.324C230.345 539.608 231.335 540.048 232.197 540.645C233.068 541.241 233.754 542.009 234.256 542.946C234.758 543.874 235.009 544.987 235.009 546.284V561H229.271V557.974H229.1C228.75 558.656 228.281 559.258 227.694 559.778C227.107 560.29 226.401 560.692 225.577 560.986C224.754 561.27 223.802 561.412 222.722 561.412ZM224.455 557.236C225.345 557.236 226.131 557.061 226.813 556.71C227.495 556.35 228.03 555.867 228.418 555.261C228.807 554.655 229.001 553.969 229.001 553.202V550.886C228.811 551.009 228.551 551.123 228.219 551.227C227.897 551.322 227.533 551.412 227.126 551.497C226.719 551.573 226.311 551.644 225.904 551.71C225.497 551.767 225.128 551.819 224.796 551.866C224.086 551.971 223.466 552.136 222.935 552.364C222.405 552.591 221.993 552.899 221.7 553.287C221.406 553.666 221.259 554.139 221.259 554.707C221.259 555.531 221.558 556.161 222.154 556.597C222.76 557.023 223.527 557.236 224.455 557.236ZM239.704 569.182V539.182H245.67V542.847H245.94C246.205 542.259 246.588 541.663 247.09 541.057C247.602 540.441 248.264 539.93 249.079 539.523C249.903 539.106 250.925 538.898 252.147 538.898C253.738 538.898 255.206 539.314 256.55 540.148C257.895 540.972 258.97 542.217 259.775 543.884C260.58 545.541 260.982 547.619 260.982 550.119C260.982 552.553 260.589 554.608 259.803 556.284C259.027 557.951 257.966 559.215 256.621 560.077C255.286 560.929 253.79 561.355 252.133 561.355C250.959 561.355 249.96 561.161 249.136 560.773C248.321 560.384 247.654 559.897 247.133 559.31C246.612 558.713 246.214 558.112 245.94 557.506H245.755V569.182H239.704ZM245.627 550.091C245.627 551.388 245.807 552.52 246.167 553.486C246.527 554.452 247.048 555.205 247.729 555.744C248.411 556.275 249.24 556.54 250.215 556.54C251.2 556.54 252.033 556.27 252.715 555.73C253.397 555.181 253.913 554.423 254.263 553.457C254.623 552.482 254.803 551.36 254.803 550.091C254.803 548.831 254.628 547.723 254.278 546.767C253.927 545.811 253.411 545.062 252.729 544.523C252.048 543.983 251.21 543.713 250.215 543.713C249.23 543.713 248.397 543.973 247.715 544.494C247.043 545.015 246.527 545.754 246.167 546.71C245.807 547.667 245.627 548.794 245.627 550.091ZM265.016 569.182V539.182H270.982V542.847H271.252C271.517 542.259 271.901 541.663 272.403 541.057C272.914 540.441 273.577 539.93 274.391 539.523C275.215 539.106 276.238 538.898 277.46 538.898C279.05 538.898 280.518 539.314 281.863 540.148C283.208 540.972 284.282 542.217 285.087 543.884C285.892 545.541 286.295 547.619 286.295 550.119C286.295 552.553 285.902 554.608 285.116 556.284C284.339 557.951 283.279 559.215 281.934 560.077C280.599 560.929 279.103 561.355 277.445 561.355C276.271 561.355 275.272 561.161 274.448 560.773C273.634 560.384 272.966 559.897 272.445 559.31C271.924 558.713 271.527 558.112 271.252 557.506H271.067V569.182H265.016ZM270.94 550.091C270.94 551.388 271.12 552.52 271.479 553.486C271.839 554.452 272.36 555.205 273.042 555.744C273.724 556.275 274.552 556.54 275.528 556.54C276.513 556.54 277.346 556.27 278.028 555.73C278.71 555.181 279.226 554.423 279.576 553.457C279.936 552.482 280.116 551.36 280.116 550.091C280.116 548.831 279.941 547.723 279.59 546.767C279.24 545.811 278.724 545.062 278.042 544.523C277.36 543.983 276.522 543.713 275.528 543.713C274.543 543.713 273.71 543.973 273.028 544.494C272.355 545.015 271.839 545.754 271.479 546.71C271.12 547.667 270.94 548.794 270.94 550.091Z" fill="black"/>
<path d="M895.899 542.094H889.678C889.564 541.289 889.332 540.574 888.982 539.949C888.631 539.314 888.181 538.775 887.632 538.33C887.083 537.884 886.448 537.544 885.729 537.307C885.018 537.07 884.247 536.952 883.413 536.952C881.908 536.952 880.596 537.326 879.479 538.074C878.361 538.812 877.495 539.892 876.879 541.312C876.264 542.723 875.956 544.437 875.956 546.455C875.956 548.528 876.264 550.271 876.879 551.682C877.504 553.093 878.375 554.158 879.493 554.878C880.61 555.598 881.903 555.957 883.371 555.957C884.195 555.957 884.957 555.848 885.658 555.631C886.368 555.413 886.998 555.096 887.547 554.679C888.096 554.253 888.551 553.737 888.911 553.131C889.28 552.525 889.536 551.833 889.678 551.057L895.899 551.085C895.738 552.42 895.336 553.708 894.692 554.949C894.057 556.18 893.2 557.283 892.121 558.259C891.051 559.224 889.772 559.991 888.286 560.56C886.808 561.118 885.137 561.398 883.271 561.398C880.677 561.398 878.357 560.811 876.311 559.636C874.275 558.462 872.665 556.762 871.482 554.537C870.307 552.312 869.72 549.617 869.72 546.455C869.72 543.282 870.317 540.583 871.51 538.358C872.703 536.133 874.322 534.437 876.368 533.273C878.413 532.098 880.714 531.511 883.271 531.511C884.957 531.511 886.519 531.748 887.959 532.222C889.408 532.695 890.691 533.386 891.808 534.295C892.926 535.195 893.835 536.298 894.536 537.605C895.246 538.912 895.7 540.408 895.899 542.094ZM910.054 561.426C907.848 561.426 905.939 560.957 904.33 560.02C902.729 559.073 901.493 557.757 900.622 556.071C899.751 554.376 899.315 552.411 899.315 550.176C899.315 547.922 899.751 545.953 900.622 544.267C901.493 542.572 902.729 541.256 904.33 540.318C905.939 539.371 907.848 538.898 910.054 538.898C912.26 538.898 914.164 539.371 915.764 540.318C917.374 541.256 918.615 542.572 919.486 544.267C920.357 545.953 920.793 547.922 920.793 550.176C920.793 552.411 920.357 554.376 919.486 556.071C918.615 557.757 917.374 559.073 915.764 560.02C914.164 560.957 912.26 561.426 910.054 561.426ZM910.082 556.739C911.086 556.739 911.924 556.455 912.597 555.886C913.269 555.309 913.776 554.523 914.116 553.528C914.467 552.534 914.642 551.402 914.642 550.134C914.642 548.865 914.467 547.733 914.116 546.739C913.776 545.744 913.269 544.958 912.597 544.381C911.924 543.803 911.086 543.514 910.082 543.514C909.069 543.514 908.217 543.803 907.526 544.381C906.844 544.958 906.328 545.744 905.977 546.739C905.636 547.733 905.466 548.865 905.466 550.134C905.466 551.402 905.636 552.534 905.977 553.528C906.328 554.523 906.844 555.309 907.526 555.886C908.217 556.455 909.069 556.739 910.082 556.739ZM924.727 561V539.182H930.594V542.989H930.821C931.219 541.634 931.886 540.612 932.824 539.92C933.761 539.22 934.841 538.869 936.062 538.869C936.366 538.869 936.692 538.888 937.043 538.926C937.393 538.964 937.701 539.016 937.966 539.082V544.452C937.682 544.366 937.289 544.291 936.787 544.224C936.285 544.158 935.826 544.125 935.409 544.125C934.519 544.125 933.723 544.319 933.023 544.707C932.331 545.086 931.782 545.616 931.375 546.298C930.977 546.98 930.778 547.766 930.778 548.656V561H924.727ZM950.022 561.426C947.778 561.426 945.846 560.972 944.227 560.062C942.617 559.144 941.376 557.847 940.505 556.17C939.634 554.485 939.198 552.491 939.198 550.19C939.198 547.946 939.634 545.976 940.505 544.281C941.376 542.586 942.603 541.265 944.184 540.318C945.775 539.371 947.64 538.898 949.781 538.898C951.22 538.898 952.56 539.13 953.8 539.594C955.05 540.048 956.139 540.735 957.067 541.653C958.005 542.572 958.734 543.727 959.255 545.119C959.776 546.502 960.036 548.121 960.036 549.977V551.639H941.613V547.889H954.34C954.34 547.018 954.151 546.246 953.772 545.574C953.393 544.902 952.868 544.376 952.195 543.997C951.532 543.609 950.761 543.415 949.88 543.415C948.961 543.415 948.147 543.628 947.437 544.054C946.736 544.471 946.187 545.034 945.789 545.744C945.391 546.445 945.188 547.226 945.178 548.088V551.653C945.178 552.733 945.377 553.666 945.775 554.452C946.182 555.238 946.755 555.844 947.494 556.27C948.232 556.696 949.108 556.909 950.121 556.909C950.794 556.909 951.409 556.814 951.968 556.625C952.527 556.436 953.005 556.152 953.403 555.773C953.8 555.394 954.103 554.93 954.312 554.381L959.908 554.75C959.624 556.095 959.042 557.269 958.161 558.273C957.29 559.267 956.163 560.044 954.781 560.602C953.407 561.152 951.821 561.426 950.022 561.426ZM974.411 561H964.099V531.909H974.496C977.423 531.909 979.942 532.491 982.053 533.656C984.165 534.812 985.789 536.473 986.925 538.642C988.071 540.811 988.644 543.405 988.644 546.426C988.644 549.456 988.071 552.061 986.925 554.239C985.789 556.417 984.156 558.088 982.025 559.253C979.904 560.418 977.366 561 974.411 561ZM970.249 555.73H974.156C975.974 555.73 977.503 555.408 978.744 554.764C979.994 554.111 980.931 553.102 981.556 551.739C982.191 550.366 982.508 548.595 982.508 546.426C982.508 544.277 982.191 542.52 981.556 541.156C980.931 539.793 979.998 538.789 978.758 538.145C977.517 537.501 975.988 537.179 974.17 537.179H970.249V555.73ZM1017.53 531.909V561H1012.22L999.564 542.69H999.351V561H993.2V531.909H998.598L1011.15 550.205H1011.41V531.909H1017.53ZM1038.4 540.276C1038.28 539.13 1037.79 538.24 1036.93 537.605C1036.07 536.971 1034.9 536.653 1033.42 536.653C1032.42 536.653 1031.57 536.795 1030.88 537.08C1030.19 537.354 1029.66 537.738 1029.29 538.23C1028.93 538.723 1028.75 539.281 1028.75 539.906C1028.73 540.427 1028.84 540.882 1029.08 541.27C1029.32 541.658 1029.66 541.994 1030.09 542.278C1030.51 542.553 1031 542.795 1031.56 543.003C1032.12 543.202 1032.72 543.372 1033.35 543.514L1035.97 544.139C1037.24 544.423 1038.4 544.802 1039.46 545.276C1040.52 545.749 1041.44 546.331 1042.22 547.023C1042.99 547.714 1043.59 548.528 1044.02 549.466C1044.46 550.403 1044.68 551.478 1044.69 552.69C1044.68 554.471 1044.22 556.014 1043.32 557.321C1042.43 558.618 1041.15 559.627 1039.46 560.347C1037.78 561.057 1035.76 561.412 1033.4 561.412C1031.05 561.412 1029 561.052 1027.26 560.332C1025.53 559.613 1024.17 558.547 1023.2 557.136C1022.23 555.716 1021.72 553.959 1021.68 551.866H1027.63C1027.69 552.842 1027.97 553.656 1028.47 554.31C1028.97 554.954 1029.64 555.441 1030.47 555.773C1031.31 556.095 1032.26 556.256 1033.32 556.256C1034.37 556.256 1035.27 556.104 1036.04 555.801C1036.81 555.498 1037.42 555.077 1037.84 554.537C1038.27 553.997 1038.48 553.377 1038.48 552.676C1038.48 552.023 1038.29 551.473 1037.9 551.028C1037.52 550.583 1036.96 550.205 1036.22 549.892C1035.49 549.58 1034.6 549.295 1033.54 549.04L1030.37 548.244C1027.92 547.648 1025.98 546.715 1024.56 545.446C1023.14 544.177 1022.43 542.468 1022.44 540.318C1022.43 538.557 1022.9 537.018 1023.85 535.702C1024.81 534.385 1026.12 533.358 1027.78 532.619C1029.45 531.881 1031.35 531.511 1033.47 531.511C1035.63 531.511 1037.51 531.881 1039.12 532.619C1040.74 533.358 1042 534.385 1042.9 535.702C1043.8 537.018 1044.26 538.543 1044.29 540.276H1038.4Z" fill="black"/>
<defs>
<linearGradient id="paint0_linear_16_5404" x1="1800.11" y1="1528.17" x2="2577.25" y2="1219.67" gradientUnits="userSpaceOnUse">
<stop stop-color="#623393"/>
<stop offset="0.574" stop-color="#452B7C"/>
<stop offset="1" stop-color="#2C256C"/>
</linearGradient>
<linearGradient id="paint1_linear_16_5404" x1="4192.82" y1="3822.31" x2="4937.7" y2="1446.26" gradientUnits="userSpaceOnUse">
<stop stop-color="#623393"/>
<stop offset="0.574" stop-color="#452B7C"/>
<stop offset="1" stop-color="#2C256C"/>
</linearGradient>
<linearGradient id="paint2_linear_16_5404" x1="29790" y1="30727.8" x2="39188.5" y2="7205.82" gradientUnits="userSpaceOnUse">
<stop stop-color="#754FA0"/>
<stop offset="0.181" stop-color="#6E4A99"/>
<stop offset="0.457" stop-color="#5C3F8B"/>
<stop offset="0.791" stop-color="#413079"/>
<stop offset="1" stop-color="#2C256C"/>
</linearGradient>
<linearGradient id="paint3_linear_16_5404" x1="36958.3" y1="40483.8" x2="45891" y2="17072.4" gradientUnits="userSpaceOnUse">
<stop stop-color="#754FA0"/>
<stop offset="0.181" stop-color="#6E4A99"/>
<stop offset="0.457" stop-color="#5C3F8B"/>
<stop offset="0.791" stop-color="#413079"/>
<stop offset="1" stop-color="#2C256C"/>
</linearGradient>
<linearGradient id="paint4_linear_16_5404" x1="16867.4" y1="19118.8" x2="28894.5" y2="13427.8" gradientUnits="userSpaceOnUse">
<stop stop-color="#623393"/>
<stop offset="0.574" stop-color="#452B7C"/>
<stop offset="1" stop-color="#2C256C"/>
</linearGradient>
<linearGradient id="paint5_linear_16_5404" x1="16503.9" y1="21300.1" x2="30948.1" y2="14465.4" gradientUnits="userSpaceOnUse">
<stop stop-color="#754FA0"/>
<stop offset="0.181" stop-color="#6E4A99"/>
<stop offset="0.457" stop-color="#5C3F8B"/>
<stop offset="0.791" stop-color="#413079"/>
<stop offset="1" stop-color="#2C256C"/>
</linearGradient>
<linearGradient id="paint6_linear_16_5404" x1="1919.56" y1="1527.87" x2="2132.78" y2="771.681" gradientUnits="userSpaceOnUse">
<stop stop-color="#623393"/>
<stop offset="0.574" stop-color="#452B7C"/>
<stop offset="1" stop-color="#2C256C"/>
</linearGradient>
<linearGradient id="paint7_linear_16_5404" x1="4376.59" y1="4205" x2="5142.52" y2="1473.69" gradientUnits="userSpaceOnUse">
<stop stop-color="#623393"/>
<stop offset="0.574" stop-color="#452B7C"/>
<stop offset="1" stop-color="#2C256C"/>
</linearGradient>
<linearGradient id="paint8_linear_16_5404" x1="2739.76" y1="2101.01" x2="2954.23" y2="714.79" gradientUnits="userSpaceOnUse">
<stop stop-color="#623393"/>
<stop offset="0.574" stop-color="#452B7C"/>
<stop offset="1" stop-color="#2C256C"/>
</linearGradient>
</defs>
</svg>
