<svg width="1200" height="900" viewBox="0 0 1200 900" fill="none" xmlns="http://www.w3.org/2000/svg">
<rect width="1200" height="900" fill="white"/>
<path d="M93.6918 444L72.8821 371.273H89.679L101.717 421.805H102.321L115.602 371.273H129.984L143.23 421.912H143.869L155.908 371.273H172.705L151.895 444H136.909L123.06 396.45H122.491L108.678 444H93.6918ZM196.804 445.065C191.288 445.065 186.518 443.893 182.493 441.55C178.492 439.182 175.403 435.892 173.225 431.678C171.047 427.44 169.958 422.527 169.958 416.94C169.958 411.306 171.047 406.382 173.225 402.168C175.403 397.93 178.492 394.639 182.493 392.295C186.518 389.928 191.288 388.744 196.804 388.744C202.32 388.744 207.079 389.928 211.08 392.295C215.104 394.639 218.206 397.93 220.384 402.168C222.562 406.382 223.651 411.306 223.651 416.94C223.651 422.527 222.562 427.44 220.384 431.678C218.206 435.892 215.104 439.182 211.08 441.55C207.079 443.893 202.32 445.065 196.804 445.065ZM196.875 433.347C199.385 433.347 201.48 432.636 203.161 431.216C204.842 429.772 206.108 427.807 206.96 425.321C207.836 422.835 208.274 420.006 208.274 416.834C208.274 413.661 207.836 410.832 206.96 408.347C206.108 405.861 204.842 403.896 203.161 402.452C201.48 401.008 199.385 400.286 196.875 400.286C194.342 400.286 192.211 401.008 190.483 402.452C188.779 403.896 187.488 405.861 186.612 408.347C185.76 410.832 185.334 413.661 185.334 416.834C185.334 420.006 185.76 422.835 186.612 425.321C187.488 427.807 188.779 429.772 190.483 431.216C192.211 432.636 194.342 433.347 196.875 433.347ZM230.856 444V389.455H245.522V398.972H246.09C247.085 395.586 248.754 393.029 251.097 391.301C253.441 389.549 256.14 388.673 259.194 388.673C259.951 388.673 260.768 388.721 261.644 388.815C262.52 388.91 263.29 389.04 263.952 389.206V402.629C263.242 402.416 262.26 402.227 261.005 402.061C259.75 401.895 258.602 401.812 257.56 401.812C255.335 401.812 253.346 402.298 251.594 403.268C249.866 404.215 248.493 405.541 247.475 407.246C246.481 408.95 245.984 410.915 245.984 413.141V444H230.856ZM282.85 428.304L282.885 410.158H285.087L302.558 389.455H319.923L296.45 416.869H292.864L282.85 428.304ZM269.142 444V371.273H284.27V444H269.142ZM303.233 444L287.182 420.243L297.267 409.554L320.953 444H303.233ZM339.842 371.273V444H324.714V371.273H339.842ZM373.973 445.065C368.457 445.065 363.687 443.893 359.662 441.55C355.661 439.182 352.572 435.892 350.394 431.678C348.216 427.44 347.127 422.527 347.127 416.94C347.127 411.306 348.216 406.382 350.394 402.168C352.572 397.93 355.661 394.639 359.662 392.295C363.687 389.928 368.457 388.744 373.973 388.744C379.489 388.744 384.248 389.928 388.249 392.295C392.273 394.639 395.375 397.93 397.553 402.168C399.731 406.382 400.82 411.306 400.82 416.94C400.82 422.527 399.731 427.44 397.553 431.678C395.375 435.892 392.273 439.182 388.249 441.55C384.248 443.893 379.489 445.065 373.973 445.065ZM374.044 433.347C376.554 433.347 378.649 432.636 380.33 431.216C382.011 429.772 383.277 427.807 384.129 425.321C385.005 422.835 385.443 420.006 385.443 416.834C385.443 413.661 385.005 410.832 384.129 408.347C383.277 405.861 382.011 403.896 380.33 402.452C378.649 401.008 376.554 400.286 374.044 400.286C371.511 400.286 369.38 401.008 367.652 402.452C365.948 403.896 364.657 405.861 363.781 408.347C362.929 410.832 362.503 413.661 362.503 416.834C362.503 420.006 362.929 422.835 363.781 425.321C364.657 427.807 365.948 429.772 367.652 431.216C369.38 432.636 371.511 433.347 374.044 433.347ZM423.579 445.03C420.099 445.03 416.997 444.426 414.275 443.219C411.552 441.988 409.398 440.177 407.812 437.786C406.249 435.371 405.468 432.364 405.468 428.766C405.468 425.735 406.024 423.19 407.137 421.131C408.25 419.071 409.765 417.414 411.682 416.159C413.6 414.904 415.778 413.957 418.217 413.318C420.679 412.679 423.259 412.229 425.958 411.969C429.13 411.637 431.687 411.33 433.629 411.045C435.57 410.738 436.978 410.288 437.854 409.696C438.73 409.104 439.168 408.228 439.168 407.068V406.855C439.168 404.606 438.458 402.866 437.038 401.635C435.641 400.404 433.652 399.788 431.072 399.788C428.349 399.788 426.183 400.392 424.573 401.599C422.963 402.783 421.898 404.275 421.377 406.074L407.386 404.938C408.096 401.623 409.493 398.759 411.576 396.344C413.659 393.905 416.346 392.035 419.637 390.733C422.951 389.407 426.787 388.744 431.143 388.744C434.173 388.744 437.073 389.099 439.843 389.81C442.637 390.52 445.111 391.621 447.265 393.112C449.443 394.604 451.159 396.521 452.414 398.865C453.669 401.185 454.296 403.967 454.296 407.21V444H439.95V436.436H439.523C438.647 438.141 437.476 439.644 436.008 440.946C434.54 442.224 432.776 443.231 430.717 443.964C428.657 444.675 426.278 445.03 423.579 445.03ZM427.911 434.589C430.137 434.589 432.102 434.152 433.806 433.276C435.511 432.376 436.848 431.169 437.819 429.653C438.789 428.138 439.275 426.422 439.275 424.504V418.716C438.801 419.024 438.15 419.308 437.322 419.568C436.517 419.805 435.605 420.03 434.587 420.243C433.569 420.432 432.551 420.61 431.533 420.776C430.515 420.918 429.592 421.048 428.763 421.166C426.988 421.427 425.437 421.841 424.111 422.409C422.786 422.977 421.756 423.747 421.022 424.717C420.288 425.664 419.921 426.848 419.921 428.268C419.921 430.328 420.667 431.902 422.158 432.991C423.673 434.057 425.591 434.589 427.911 434.589ZM483.5 444.888C479.357 444.888 475.605 443.822 472.243 441.692C468.905 439.537 466.254 436.377 464.289 432.21C462.348 428.02 461.377 422.883 461.377 416.798C461.377 410.548 462.383 405.352 464.395 401.209C466.408 397.042 469.083 393.929 472.421 391.869C475.783 389.786 479.464 388.744 483.465 388.744C486.519 388.744 489.064 389.265 491.1 390.307C493.16 391.325 494.817 392.603 496.071 394.142C497.35 395.657 498.321 397.149 498.983 398.616H499.445V371.273H514.537V444H499.623V435.264H498.983C498.273 436.779 497.267 438.283 495.965 439.774C494.687 441.242 493.018 442.461 490.958 443.432C488.922 444.402 486.436 444.888 483.5 444.888ZM488.295 432.849C490.733 432.849 492.793 432.187 494.473 430.861C496.178 429.511 497.48 427.629 498.38 425.214C499.303 422.8 499.765 419.971 499.765 416.727C499.765 413.484 499.315 410.667 498.415 408.276C497.516 405.884 496.214 404.038 494.509 402.736C492.804 401.434 490.733 400.783 488.295 400.783C485.809 400.783 483.714 401.457 482.009 402.807C480.304 404.156 479.014 406.027 478.138 408.418C477.262 410.809 476.824 413.579 476.824 416.727C476.824 419.9 477.262 422.705 478.138 425.143C479.038 427.558 480.328 429.452 482.009 430.825C483.714 432.175 485.809 432.849 488.295 432.849ZM544.857 444V389.455H559.984V444H544.857ZM552.456 382.423C550.207 382.423 548.278 381.678 546.668 380.186C545.082 378.671 544.288 376.86 544.288 374.753C544.288 372.67 545.082 370.882 546.668 369.391C548.278 367.875 550.207 367.118 552.456 367.118C554.705 367.118 556.623 367.875 558.209 369.391C559.819 370.882 560.624 372.67 560.624 374.753C560.624 376.86 559.819 378.671 558.209 380.186C556.623 381.678 554.705 382.423 552.456 382.423ZM614.855 405.009L601.005 405.861C600.768 404.677 600.259 403.612 599.478 402.665C598.697 401.694 597.667 400.925 596.389 400.357C595.134 399.765 593.631 399.469 591.879 399.469C589.535 399.469 587.558 399.966 585.948 400.96C584.339 401.931 583.534 403.233 583.534 404.866C583.534 406.169 584.054 407.269 585.096 408.169C586.138 409.069 587.925 409.791 590.458 410.335L600.331 412.324C605.634 413.413 609.587 415.165 612.191 417.58C614.795 419.994 616.098 423.167 616.098 427.097C616.098 430.671 615.044 433.808 612.937 436.507C610.854 439.206 607.989 441.313 604.343 442.828C600.721 444.32 596.543 445.065 591.808 445.065C584.587 445.065 578.834 443.562 574.549 440.555C570.288 437.525 567.79 433.406 567.056 428.197L581.936 427.416C582.385 429.618 583.474 431.299 585.203 432.459C586.931 433.595 589.144 434.163 591.843 434.163C594.495 434.163 596.625 433.654 598.235 432.636C599.869 431.595 600.697 430.257 600.721 428.624C600.697 427.25 600.117 426.126 598.981 425.25C597.845 424.35 596.093 423.664 593.725 423.19L584.279 421.308C578.953 420.243 574.987 418.396 572.383 415.768C569.803 413.141 568.512 409.791 568.512 405.719C568.512 402.215 569.459 399.196 571.353 396.663C573.271 394.13 575.958 392.177 579.414 390.804C582.894 389.431 586.966 388.744 591.63 388.744C598.519 388.744 603.941 390.2 607.894 393.112C611.872 396.024 614.192 399.99 614.855 405.009ZM647.637 445.065C642.121 445.065 637.35 443.893 633.326 441.55C629.325 439.182 626.235 435.892 624.057 431.678C621.879 427.44 620.79 422.527 620.79 416.94C620.79 411.306 621.879 406.382 624.057 402.168C626.235 397.93 629.325 394.639 633.326 392.295C637.35 389.928 642.121 388.744 647.637 388.744C653.153 388.744 657.911 389.928 661.912 392.295C665.937 394.639 669.038 397.93 671.216 402.168C673.394 406.382 674.483 411.306 674.483 416.94C674.483 422.527 673.394 427.44 671.216 431.678C669.038 435.892 665.937 439.182 661.912 441.55C657.911 443.893 653.153 445.065 647.637 445.065ZM647.708 433.347C650.217 433.347 652.312 432.636 653.993 431.216C655.674 429.772 656.941 427.807 657.793 425.321C658.669 422.835 659.107 420.006 659.107 416.834C659.107 413.661 658.669 410.832 657.793 408.347C656.941 405.861 655.674 403.896 653.993 402.452C652.312 401.008 650.217 400.286 647.708 400.286C645.175 400.286 643.044 401.008 641.316 402.452C639.611 403.896 638.321 405.861 637.445 408.347C636.593 410.832 636.167 413.661 636.167 416.834C636.167 420.006 636.593 422.835 637.445 425.321C638.321 427.807 639.611 429.772 641.316 431.216C643.044 432.636 645.175 433.347 647.708 433.347ZM696.816 371.273V444H681.688V371.273H696.816ZM721.857 445.03C718.377 445.03 715.276 444.426 712.553 443.219C709.83 441.988 707.676 440.177 706.09 437.786C704.527 435.371 703.746 432.364 703.746 428.766C703.746 425.735 704.303 423.19 705.415 421.131C706.528 419.071 708.043 417.414 709.961 416.159C711.878 414.904 714.056 413.957 716.495 413.318C718.957 412.679 721.537 412.229 724.236 411.969C727.409 411.637 729.965 411.33 731.907 411.045C733.848 410.738 735.257 410.288 736.133 409.696C737.008 409.104 737.446 408.228 737.446 407.068V406.855C737.446 404.606 736.736 402.866 735.316 401.635C733.919 400.404 731.93 399.788 729.35 399.788C726.627 399.788 724.461 400.392 722.851 401.599C721.241 402.783 720.176 404.275 719.655 406.074L705.664 404.938C706.374 401.623 707.771 398.759 709.854 396.344C711.937 393.905 714.624 392.035 717.915 390.733C721.23 389.407 725.065 388.744 729.421 388.744C732.451 388.744 735.351 389.099 738.121 389.81C740.915 390.52 743.389 391.621 745.543 393.112C747.721 394.604 749.437 396.521 750.692 398.865C751.947 401.185 752.574 403.967 752.574 407.21V444H738.228V436.436H737.802C736.926 438.141 735.754 439.644 734.286 440.946C732.818 442.224 731.054 443.231 728.995 443.964C726.935 444.675 724.556 445.03 721.857 445.03ZM726.189 434.589C728.415 434.589 730.38 434.152 732.084 433.276C733.789 432.376 735.126 431.169 736.097 429.653C737.068 428.138 737.553 426.422 737.553 424.504V418.716C737.08 419.024 736.428 419.308 735.6 419.568C734.795 419.805 733.883 420.03 732.865 420.243C731.847 420.432 730.83 420.61 729.812 420.776C728.794 420.918 727.87 421.048 727.042 421.166C725.266 421.427 723.715 421.841 722.39 422.409C721.064 422.977 720.034 423.747 719.3 424.717C718.566 425.664 718.199 426.848 718.199 428.268C718.199 430.328 718.945 431.902 720.437 432.991C721.952 434.057 723.869 434.589 726.189 434.589ZM790.692 389.455V400.818H757.844V389.455H790.692ZM765.301 376.386H780.429V427.239C780.429 428.635 780.642 429.724 781.068 430.506C781.495 431.263 782.086 431.796 782.844 432.104C783.625 432.411 784.525 432.565 785.543 432.565C786.253 432.565 786.963 432.506 787.674 432.388C788.384 432.246 788.928 432.139 789.307 432.068L791.686 443.325C790.929 443.562 789.863 443.834 788.49 444.142C787.117 444.473 785.448 444.675 783.483 444.746C779.837 444.888 776.641 444.402 773.895 443.29C771.173 442.177 769.054 440.449 767.539 438.105C766.023 435.761 765.278 432.802 765.301 429.227V376.386ZM797.915 444V389.455H813.043V444H797.915ZM805.514 382.423C803.265 382.423 801.336 381.678 799.726 380.186C798.14 378.671 797.347 376.86 797.347 374.753C797.347 372.67 798.14 370.882 799.726 369.391C801.336 367.875 803.265 367.118 805.514 367.118C807.763 367.118 809.681 367.875 811.267 369.391C812.877 370.882 813.682 372.67 813.682 374.753C813.682 376.86 812.877 378.671 811.267 380.186C809.681 381.678 807.763 382.423 805.514 382.423ZM847.174 445.065C841.658 445.065 836.888 443.893 832.863 441.55C828.862 439.182 825.773 435.892 823.595 431.678C821.417 427.44 820.328 422.527 820.328 416.94C820.328 411.306 821.417 406.382 823.595 402.168C825.773 397.93 828.862 394.639 832.863 392.295C836.888 389.928 841.658 388.744 847.174 388.744C852.69 388.744 857.449 389.928 861.45 392.295C865.474 394.639 868.576 397.93 870.754 402.168C872.932 406.382 874.021 411.306 874.021 416.94C874.021 422.527 872.932 427.44 870.754 431.678C868.576 435.892 865.474 439.182 861.45 441.55C857.449 443.893 852.69 445.065 847.174 445.065ZM847.245 433.347C849.755 433.347 851.85 432.636 853.531 431.216C855.212 429.772 856.478 427.807 857.33 425.321C858.206 422.835 858.644 420.006 858.644 416.834C858.644 413.661 858.206 410.832 857.33 408.347C856.478 405.861 855.212 403.896 853.531 402.452C851.85 401.008 849.755 400.286 847.245 400.286C844.712 400.286 842.581 401.008 840.853 402.452C839.149 403.896 837.858 405.861 836.982 408.347C836.13 410.832 835.704 413.661 835.704 416.834C835.704 420.006 836.13 422.835 836.982 425.321C837.858 427.807 839.149 429.772 840.853 431.216C842.581 432.636 844.712 433.347 847.245 433.347ZM896.354 412.466V444H881.226V389.455H895.644V399.078H896.283C897.49 395.906 899.514 393.396 902.355 391.55C905.196 389.679 908.641 388.744 912.689 388.744C916.477 388.744 919.779 389.573 922.597 391.23C925.414 392.887 927.604 395.255 929.166 398.332C930.729 401.386 931.51 405.032 931.51 409.27V444H916.382V411.969C916.406 408.631 915.554 406.027 913.825 404.156C912.097 402.262 909.718 401.315 906.688 401.315C904.652 401.315 902.852 401.753 901.29 402.629C899.751 403.505 898.544 404.784 897.668 406.464C896.815 408.122 896.377 410.122 896.354 412.466Z" fill="black"/>
<rect x="71" y="498" width="1038" height="19" fill="black"/>
<path d="M120.244 590.665H112.267C111.96 588.96 111.389 587.46 110.554 586.165C109.719 584.869 108.696 583.77 107.486 582.866C106.276 581.963 104.92 581.281 103.42 580.821C101.938 580.361 100.361 580.131 98.6903 580.131C95.6733 580.131 92.9716 580.889 90.5852 582.406C88.2159 583.923 86.3409 586.148 84.9602 589.08C83.5966 592.011 82.9148 595.591 82.9148 599.818C82.9148 604.08 83.5966 607.676 84.9602 610.608C86.3409 613.54 88.2244 615.756 90.6108 617.256C92.9972 618.756 95.6818 619.506 98.6648 619.506C100.318 619.506 101.886 619.284 103.369 618.841C104.869 618.381 106.224 617.707 107.435 616.821C108.645 615.935 109.668 614.852 110.503 613.574C111.355 612.278 111.943 610.795 112.267 609.125L120.244 609.151C119.818 611.724 118.991 614.094 117.764 616.259C116.554 618.406 114.994 620.264 113.085 621.832C111.193 623.384 109.028 624.585 106.591 625.438C104.153 626.29 101.494 626.716 98.6136 626.716C94.0795 626.716 90.0398 625.642 86.4943 623.494C82.9489 621.33 80.1534 618.236 78.108 614.213C76.0795 610.19 75.0653 605.392 75.0653 599.818C75.0653 594.227 76.0881 589.429 78.1335 585.423C80.179 581.401 82.9744 578.315 86.5199 576.168C90.0653 574.003 94.0966 572.92 98.6136 572.92C101.392 572.92 103.983 573.321 106.386 574.122C108.807 574.906 110.98 576.065 112.906 577.599C114.832 579.116 116.426 580.974 117.688 583.173C118.949 585.355 119.801 587.852 120.244 590.665ZM134.835 602.682V626H127.19V573.636H134.732V593.119H135.218C136.139 591.006 137.545 589.327 139.437 588.082C141.329 586.838 143.801 586.216 146.852 586.216C149.545 586.216 151.897 586.77 153.909 587.878C155.937 588.986 157.505 590.639 158.613 592.838C159.738 595.02 160.301 597.747 160.301 601.02V626H152.656V601.94C152.656 599.06 151.914 596.827 150.431 595.241C148.948 593.639 146.886 592.838 144.244 592.838C142.437 592.838 140.818 593.222 139.386 593.989C137.971 594.756 136.855 595.881 136.036 597.364C135.235 598.83 134.835 600.602 134.835 602.682ZM180.037 626.869C177.548 626.869 175.298 626.409 173.287 625.489C171.275 624.551 169.681 623.196 168.505 621.423C167.346 619.651 166.767 617.477 166.767 614.903C166.767 612.687 167.193 610.864 168.045 609.432C168.897 608 170.048 606.866 171.497 606.031C172.946 605.196 174.565 604.565 176.355 604.139C178.144 603.713 179.968 603.389 181.826 603.168C184.179 602.895 186.088 602.673 187.554 602.503C189.019 602.315 190.085 602.017 190.75 601.608C191.414 601.199 191.747 600.534 191.747 599.614V599.435C191.747 597.202 191.116 595.472 189.855 594.244C188.61 593.017 186.752 592.403 184.281 592.403C181.707 592.403 179.679 592.974 178.196 594.116C176.73 595.241 175.715 596.494 175.153 597.875L167.968 596.239C168.821 593.852 170.065 591.926 171.701 590.46C173.355 588.977 175.255 587.903 177.403 587.239C179.551 586.557 181.809 586.216 184.179 586.216C185.747 586.216 187.409 586.403 189.164 586.778C190.937 587.136 192.59 587.801 194.125 588.773C195.676 589.744 196.946 591.134 197.934 592.94C198.923 594.73 199.417 597.057 199.417 599.92V626H191.951V620.631H191.644C191.15 621.619 190.409 622.591 189.42 623.545C188.431 624.5 187.162 625.293 185.61 625.923C184.059 626.554 182.201 626.869 180.037 626.869ZM181.698 620.733C183.812 620.733 185.619 620.315 187.119 619.48C188.636 618.645 189.787 617.554 190.571 616.207C191.372 614.844 191.772 613.386 191.772 611.835V606.773C191.5 607.045 190.971 607.301 190.187 607.54C189.42 607.761 188.542 607.957 187.554 608.128C186.565 608.281 185.602 608.426 184.664 608.562C183.727 608.682 182.943 608.784 182.312 608.869C180.829 609.057 179.474 609.372 178.247 609.815C177.037 610.259 176.065 610.898 175.332 611.733C174.616 612.551 174.258 613.642 174.258 615.006C174.258 616.898 174.957 618.33 176.355 619.301C177.752 620.256 179.534 620.733 181.698 620.733ZM215.35 573.636V626H207.705V573.636H215.35ZM231.385 573.636V626H223.74V573.636H231.385ZM256.701 626.793C252.832 626.793 249.499 625.966 246.704 624.312C243.925 622.642 241.778 620.298 240.261 617.281C238.761 614.247 238.011 610.693 238.011 606.619C238.011 602.597 238.761 599.051 240.261 595.983C241.778 592.915 243.891 590.52 246.602 588.798C249.329 587.077 252.516 586.216 256.164 586.216C258.38 586.216 260.528 586.582 262.607 587.315C264.687 588.048 266.553 589.199 268.207 590.767C269.86 592.335 271.164 594.372 272.119 596.878C273.073 599.366 273.55 602.392 273.55 605.955V608.665H242.332V602.938H266.059C266.059 600.926 265.65 599.145 264.832 597.594C264.014 596.026 262.863 594.79 261.38 593.886C259.914 592.983 258.193 592.531 256.215 592.531C254.068 592.531 252.193 593.06 250.59 594.116C249.005 595.156 247.778 596.52 246.908 598.207C246.056 599.878 245.63 601.693 245.63 603.653V608.128C245.63 610.753 246.09 612.986 247.011 614.827C247.948 616.668 249.252 618.074 250.923 619.045C252.593 620 254.545 620.477 256.778 620.477C258.227 620.477 259.548 620.273 260.741 619.864C261.934 619.437 262.965 618.807 263.835 617.972C264.704 617.136 265.369 616.105 265.829 614.878L273.065 616.182C272.485 618.312 271.445 620.179 269.945 621.781C268.462 623.366 266.596 624.602 264.346 625.489C262.113 626.358 259.565 626.793 256.701 626.793ZM287.783 602.682V626H280.138V586.727H287.476V593.119H287.962C288.865 591.04 290.28 589.369 292.206 588.108C294.149 586.847 296.595 586.216 299.544 586.216C302.22 586.216 304.564 586.778 306.575 587.903C308.587 589.011 310.146 590.665 311.254 592.864C312.362 595.062 312.916 597.781 312.916 601.02V626H305.271V601.94C305.271 599.094 304.53 596.869 303.047 595.267C301.564 593.648 299.527 592.838 296.936 592.838C295.164 592.838 293.587 593.222 292.206 593.989C290.843 594.756 289.76 595.881 288.959 597.364C288.175 598.83 287.783 600.602 287.783 602.682ZM337.74 641.545C334.621 641.545 331.936 641.136 329.686 640.318C327.453 639.5 325.63 638.418 324.215 637.071C322.8 635.724 321.743 634.25 321.044 632.648L327.615 629.938C328.076 630.688 328.689 631.48 329.456 632.315C330.24 633.168 331.297 633.892 332.627 634.489C333.973 635.085 335.703 635.384 337.817 635.384C340.715 635.384 343.11 634.676 345.002 633.261C346.894 631.864 347.84 629.631 347.84 626.562V618.841H347.354C346.894 619.676 346.229 620.605 345.36 621.628C344.507 622.651 343.331 623.537 341.831 624.287C340.331 625.037 338.38 625.412 335.976 625.412C332.874 625.412 330.078 624.687 327.59 623.239C325.118 621.773 323.158 619.616 321.709 616.77C320.277 613.906 319.561 610.386 319.561 606.21C319.561 602.034 320.269 598.455 321.684 595.472C323.115 592.489 325.076 590.205 327.564 588.619C330.053 587.017 332.874 586.216 336.027 586.216C338.465 586.216 340.434 586.625 341.934 587.443C343.434 588.244 344.601 589.182 345.436 590.256C346.289 591.33 346.945 592.276 347.405 593.094H347.968V586.727H355.459V626.869C355.459 630.244 354.675 633.014 353.107 635.179C351.539 637.344 349.417 638.946 346.74 639.986C344.081 641.026 341.081 641.545 337.74 641.545ZM337.664 619.071C339.863 619.071 341.721 618.56 343.238 617.537C344.772 616.497 345.931 615.014 346.715 613.088C347.516 611.145 347.917 608.818 347.917 606.108C347.917 603.466 347.524 601.139 346.74 599.128C345.956 597.116 344.806 595.548 343.289 594.423C341.772 593.281 339.897 592.71 337.664 592.71C335.363 592.71 333.445 593.307 331.911 594.5C330.377 595.676 329.218 597.278 328.434 599.307C327.667 601.335 327.283 603.602 327.283 606.108C327.283 608.682 327.675 610.94 328.459 612.884C329.243 614.827 330.402 616.344 331.936 617.435C333.488 618.526 335.397 619.071 337.664 619.071ZM380.743 626.793C376.874 626.793 373.542 625.966 370.746 624.312C367.968 622.642 365.82 620.298 364.303 617.281C362.803 614.247 362.053 610.693 362.053 606.619C362.053 602.597 362.803 599.051 364.303 595.983C365.82 592.915 367.934 590.52 370.644 588.798C373.371 587.077 376.559 586.216 380.206 586.216C382.422 586.216 384.57 586.582 386.65 587.315C388.729 588.048 390.596 589.199 392.249 590.767C393.902 592.335 395.206 594.372 396.161 596.878C397.116 599.366 397.593 602.392 397.593 605.955V608.665H366.374V602.938H390.101C390.101 600.926 389.692 599.145 388.874 597.594C388.056 596.026 386.905 594.79 385.422 593.886C383.956 592.983 382.235 592.531 380.258 592.531C378.11 592.531 376.235 593.06 374.633 594.116C373.047 595.156 371.82 596.52 370.951 598.207C370.098 599.878 369.672 601.693 369.672 603.653V608.128C369.672 610.753 370.133 612.986 371.053 614.827C371.991 616.668 373.295 618.074 374.965 619.045C376.635 620 378.587 620.477 380.82 620.477C382.269 620.477 383.59 620.273 384.783 619.864C385.976 619.437 387.008 618.807 387.877 617.972C388.746 617.136 389.411 616.105 389.871 614.878L397.107 616.182C396.527 618.312 395.488 620.179 393.988 621.781C392.505 623.366 390.638 624.602 388.388 625.489C386.155 626.358 383.607 626.793 380.743 626.793ZM439.468 626.716C435.957 626.716 432.82 626.111 430.059 624.901C427.315 623.69 425.141 622.011 423.539 619.864C421.954 617.699 421.102 615.193 420.982 612.347H429.011C429.113 613.898 429.633 615.244 430.57 616.386C431.525 617.511 432.769 618.381 434.303 618.994C435.837 619.608 437.542 619.915 439.417 619.915C441.479 619.915 443.303 619.557 444.889 618.841C446.491 618.125 447.744 617.128 448.647 615.849C449.551 614.554 450.002 613.062 450.002 611.375C450.002 609.619 449.551 608.077 448.647 606.747C447.761 605.401 446.457 604.344 444.735 603.577C443.031 602.81 440.968 602.426 438.548 602.426H434.124V595.983H438.548C440.491 595.983 442.195 595.634 443.661 594.935C445.144 594.236 446.303 593.264 447.139 592.02C447.974 590.759 448.391 589.284 448.391 587.597C448.391 585.977 448.025 584.571 447.292 583.378C446.576 582.168 445.553 581.222 444.224 580.54C442.911 579.858 441.36 579.517 439.57 579.517C437.866 579.517 436.272 579.832 434.789 580.463C433.323 581.077 432.13 581.963 431.21 583.122C430.289 584.264 429.795 585.636 429.727 587.239H422.082C422.167 584.409 423.002 581.92 424.587 579.773C426.19 577.625 428.303 575.946 430.928 574.736C433.553 573.526 436.468 572.92 439.673 572.92C443.031 572.92 445.928 573.577 448.366 574.889C450.82 576.185 452.712 577.915 454.042 580.08C455.389 582.244 456.053 584.614 456.036 587.188C456.053 590.119 455.235 592.608 453.582 594.653C451.945 596.699 449.764 598.071 447.036 598.77V599.179C450.514 599.707 453.207 601.088 455.116 603.321C457.042 605.554 457.997 608.324 457.979 611.631C457.997 614.511 457.195 617.094 455.576 619.378C453.974 621.662 451.783 623.46 449.005 624.773C446.227 626.068 443.048 626.716 439.468 626.716Z" fill="black"/>
</svg>
