<svg width="1200" height="900" viewBox="0 0 1200 900" fill="none" xmlns="http://www.w3.org/2000/svg">
<rect width="1200" height="900" fill="white"/>
<rect x="135" y="568" width="929" height="91" rx="20" fill="#2463AD"/>
<rect x="135" y="450" width="929" height="90" rx="20" fill="#E74C3C"/>
<path d="M511.725 533.682C522.326 533.682 529.86 528.852 529.86 519.362V481.909H519.646V488.139H519.259C517.883 485.121 514.864 481.426 508.658 481.426C500.521 481.426 493.639 487.753 493.639 500.382C493.639 512.722 500.328 518.469 508.683 518.469C514.599 518.469 517.907 515.499 519.259 512.432H519.694V519.217C519.694 524.312 516.434 526.293 511.967 526.293C507.427 526.293 505.133 524.312 504.288 522.067L494.774 523.347C496.005 529.19 501.728 533.682 511.725 533.682ZM511.943 510.741C506.896 510.741 504.143 506.733 504.143 500.334C504.143 494.031 506.847 489.612 511.943 489.612C516.941 489.612 519.742 493.838 519.742 500.334C519.742 506.878 516.893 510.741 511.943 510.741ZM546.583 469.545H534.968L552.04 519H565.515L582.563 469.545H570.972L558.995 507.119H558.536L546.583 469.545ZM587.731 519H598.018V481.909H587.731V519ZM592.898 477.128C595.965 477.128 598.477 474.786 598.477 471.912C598.477 469.062 595.965 466.72 592.898 466.72C589.856 466.72 587.344 469.062 587.344 471.912C587.344 474.786 589.856 477.128 592.898 477.128ZM636.528 492.486C635.61 485.652 630.104 481.426 620.735 481.426C611.245 481.426 604.991 485.821 605.015 492.969C604.991 498.523 608.492 502.121 615.736 503.57L622.16 504.849C625.396 505.501 626.869 506.685 626.917 508.544C626.869 510.741 624.478 512.311 620.88 512.311C617.21 512.311 614.771 510.741 614.143 507.723L604.025 508.254C604.991 515.354 611.028 519.724 620.856 519.724C630.467 519.724 637.349 514.822 637.373 507.506C637.349 502.145 633.847 498.933 626.651 497.46L619.938 496.108C616.485 495.359 615.205 494.176 615.229 492.389C615.205 490.168 617.717 488.719 620.904 488.719C624.478 488.719 626.603 490.675 627.11 493.065L636.528 492.486ZM660.018 519.724C671.271 519.724 678.273 512.021 678.273 500.599C678.273 489.105 671.271 481.426 660.018 481.426C648.765 481.426 641.762 489.105 641.762 500.599C641.762 512.021 648.765 519.724 660.018 519.724ZM660.066 511.756C654.874 511.756 652.218 506.999 652.218 500.527C652.218 494.055 654.874 489.274 660.066 489.274C665.161 489.274 667.817 494.055 667.817 500.527C667.817 506.999 665.161 511.756 660.066 511.756ZM684.371 519H694.658V498.016C694.658 493.452 697.99 490.312 702.53 490.312C703.955 490.312 705.911 490.554 706.877 490.868V481.74C705.959 481.523 704.679 481.378 703.641 481.378C699.487 481.378 696.083 483.793 694.73 488.381H694.344V481.909H684.371V519Z" fill="white"/>
<path d="M498.23 635H508.686V620.946L513.829 614.668L527.376 635H539.885L521.315 607.689L539.667 585.545H527.135L509.338 607.351H508.686V585.545H498.23V635ZM558.509 635.724C567.685 635.724 573.867 631.257 575.316 624.375L565.801 623.747C564.763 626.572 562.107 628.045 558.678 628.045C553.534 628.045 550.274 624.641 550.274 619.111V619.087H575.533V616.261C575.533 603.656 567.902 597.426 558.098 597.426C547.183 597.426 540.108 605.178 540.108 616.624C540.108 628.384 547.087 635.724 558.509 635.724ZM550.274 612.712C550.492 608.486 553.703 605.105 558.267 605.105C562.735 605.105 565.826 608.293 565.85 612.712H550.274ZM581.655 635H591.942V614.016C591.942 609.452 595.274 606.312 599.814 606.312C601.238 606.312 603.194 606.554 604.16 606.868V597.74C603.243 597.523 601.963 597.378 600.925 597.378C596.771 597.378 593.366 599.793 592.014 604.381H591.628V597.909H581.655V635ZM619.175 613.557C619.199 608.776 622.048 605.974 626.202 605.974C630.331 605.974 632.818 608.679 632.794 613.219V635H643.081V611.384C643.081 602.739 638.01 597.426 630.282 597.426C624.777 597.426 620.792 600.131 619.126 604.453H618.692V597.909H608.888V635H619.175V613.557ZM667.5 635.724C676.677 635.724 682.858 631.257 684.307 624.375L674.793 623.747C673.755 626.572 671.098 628.045 667.669 628.045C662.526 628.045 659.266 624.641 659.266 619.111V619.087H684.525V616.261C684.525 603.656 676.894 597.426 667.09 597.426C656.175 597.426 649.1 605.178 649.1 616.624C649.1 628.384 656.079 635.724 667.5 635.724ZM659.266 612.712C659.483 608.486 662.695 605.105 667.259 605.105C671.726 605.105 674.817 608.293 674.841 612.712H659.266ZM700.933 585.545H690.646V635H700.933V585.545Z" fill="white"/>
<g clip-path="url(#clip0_16_8552)">
<rect x="135" y="700" width="210" height="73" rx="20" fill="#F2CA87"/>
<path d="M198.507 751H204.504V739.283H216.04V734.339H204.504V727.581H217.287V722.636H198.507V751ZM220.87 751H226.77V729.727H220.87V751ZM223.834 726.985C225.593 726.985 227.033 725.642 227.033 723.994C227.033 722.359 225.593 721.016 223.834 721.016C222.089 721.016 220.649 722.359 220.649 723.994C220.649 725.642 222.089 726.985 223.834 726.985ZM237.057 722.636H231.157V751H237.057V722.636ZM251.139 751.415C256.401 751.415 259.947 748.853 260.778 744.906L255.321 744.546C254.726 746.167 253.202 747.011 251.236 747.011C248.286 747.011 246.416 745.059 246.416 741.887V741.873H260.902V740.253C260.902 733.023 256.526 729.45 250.903 729.45C244.643 729.45 240.585 733.896 240.585 740.461C240.585 747.205 244.588 751.415 251.139 751.415ZM246.416 738.217C246.541 735.793 248.383 733.854 251 733.854C253.562 733.854 255.335 735.683 255.349 738.217H246.416ZM282.113 735.793C281.587 731.874 278.429 729.45 273.055 729.45C267.613 729.45 264.026 731.971 264.04 736.07C264.026 739.256 266.034 741.319 270.189 742.15L273.873 742.884C275.728 743.258 276.573 743.937 276.601 745.003C276.573 746.263 275.202 747.164 273.139 747.164C271.033 747.164 269.635 746.263 269.275 744.532L263.472 744.837C264.026 748.909 267.488 751.415 273.125 751.415C278.637 751.415 282.584 748.604 282.598 744.408C282.584 741.333 280.576 739.491 276.449 738.646L272.598 737.871C270.618 737.441 269.884 736.763 269.898 735.738C269.884 734.464 271.324 733.633 273.152 733.633C275.202 733.633 276.421 734.755 276.712 736.126L282.113 735.793Z" fill="black"/>
</g>
<g clip-path="url(#clip1_16_8552)">
<rect x="360" y="700" width="254" height="73" rx="20" fill="#F2CA87"/>
<path d="M433.526 722.636H427.557V740.474H427.308L415.065 722.636H409.802V751H415.799V733.148H416.007L428.347 751H433.526V722.636ZM447.726 751.415C452.989 751.415 456.534 748.853 457.365 744.906L451.908 744.546C451.313 746.167 449.789 747.011 447.823 747.011C444.873 747.011 443.003 745.059 443.003 741.887V741.873H457.49V740.253C457.49 733.023 453.113 729.45 447.49 729.45C441.23 729.45 437.173 733.896 437.173 740.461C437.173 747.205 441.175 751.415 447.726 751.415ZM443.003 738.217C443.128 735.793 444.97 733.854 447.587 733.854C450.149 733.854 451.922 735.683 451.936 738.217H443.003ZM472.316 729.727H468.313V724.631H462.413V729.727H459.505V734.159H462.413V745.239C462.386 749.407 465.225 751.471 469.504 751.291C471.028 751.235 472.108 750.931 472.703 750.737L471.776 746.347C471.485 746.402 470.861 746.54 470.307 746.54C469.13 746.54 468.313 746.097 468.313 744.463V734.159H472.316V729.727ZM480.016 751H486.248L489.905 737.621H490.168L493.824 751H500.07L505.845 729.727H499.89L496.649 743.937H496.469L492.979 729.727H487.121L483.686 744.02H483.492L480.196 729.727H474.227L480.016 751ZM517.732 751.415C524.186 751.415 528.202 746.998 528.202 740.447C528.202 733.854 524.186 729.45 517.732 729.45C511.278 729.45 507.262 733.854 507.262 740.447C507.262 746.998 511.278 751.415 517.732 751.415ZM517.759 746.845C514.782 746.845 513.258 744.117 513.258 740.405C513.258 736.694 514.782 733.951 517.759 733.951C520.682 733.951 522.205 736.694 522.205 740.405C522.205 744.117 520.682 746.845 517.759 746.845ZM531.699 751H537.599V738.965C537.599 736.347 539.51 734.547 542.114 734.547C542.931 734.547 544.053 734.685 544.607 734.865V729.63C544.08 729.506 543.346 729.423 542.751 729.423C540.369 729.423 538.416 730.808 537.64 733.439H537.419V729.727H531.699V751ZM547.318 751H553.218V744.241L554.811 742.427L560.613 751H567.524L559.228 738.937L567.123 729.727H560.35L553.536 737.801H553.218V722.636H547.318V751Z" fill="black"/>
</g>
<g clip-path="url(#clip2_16_8552)">
<rect x="629" y="700" width="254" height="73" rx="20" fill="#F2CA87"/>
<path d="M666.375 751H672.372V739.283H684.545V751H690.528V722.636H684.545V734.339H672.372V722.636H666.375V751ZM701.089 751.402C704.232 751.402 706.268 750.031 707.307 748.05H707.473V751H713.068V736.652C713.068 731.583 708.775 729.45 704.039 729.45C698.942 729.45 695.59 731.888 694.773 735.766L700.23 736.209C700.632 734.796 701.892 733.757 704.011 733.757C706.019 733.757 707.168 734.768 707.168 736.513V736.597C707.168 737.968 705.714 738.148 702.017 738.508C697.806 738.896 694.025 740.308 694.025 745.059C694.025 749.269 697.031 751.402 701.089 751.402ZM702.778 747.33C700.964 747.33 699.662 746.485 699.662 744.865C699.662 743.203 701.033 742.386 703.111 742.095C704.399 741.915 706.504 741.61 707.21 741.139V743.397C707.21 745.626 705.368 747.33 702.778 747.33ZM717.306 751H723.206V738.965C723.206 736.347 725.118 734.547 727.721 734.547C728.538 734.547 729.66 734.685 730.214 734.865V729.63C729.688 729.506 728.954 729.423 728.358 729.423C725.976 729.423 724.023 730.808 723.248 733.439H723.026V729.727H717.306V751ZM739.774 751.346C743.209 751.346 744.995 749.366 745.812 747.593H746.062V751H751.878V722.636H745.992V733.3H745.812C745.023 731.569 743.319 729.45 739.76 729.45C735.093 729.45 731.146 733.079 731.146 740.391C731.146 747.51 734.927 751.346 739.774 751.346ZM741.644 746.651C738.749 746.651 737.17 744.075 737.17 740.364C737.17 736.68 738.721 734.145 741.644 734.145C744.51 734.145 746.117 736.569 746.117 740.364C746.117 744.158 744.483 746.651 741.644 746.651ZM760.586 751H766.819L770.475 737.621H770.738L774.394 751H780.64L786.415 729.727H780.46L777.219 743.937H777.039L773.549 729.727H767.691L764.256 744.02H764.063L760.766 729.727H754.797L760.586 751ZM795.29 751.402C798.434 751.402 800.469 750.031 801.508 748.05H801.674V751H807.269V736.652C807.269 731.583 802.976 729.45 798.24 729.45C793.143 729.45 789.791 731.888 788.974 735.766L794.431 736.209C794.833 734.796 796.093 733.757 798.212 733.757C800.22 733.757 801.37 734.768 801.37 736.513V736.597C801.37 737.968 799.915 738.148 796.218 738.508C792.007 738.896 788.226 740.308 788.226 745.059C788.226 749.269 791.232 751.402 795.29 751.402ZM796.979 747.33C795.165 747.33 793.863 746.485 793.863 744.865C793.863 743.203 795.234 742.386 797.312 742.095C798.6 741.915 800.705 741.61 801.411 741.139V743.397C801.411 745.626 799.569 747.33 796.979 747.33ZM811.508 751H817.407V738.965C817.407 736.347 819.319 734.547 821.922 734.547C822.739 734.547 823.861 734.685 824.415 734.865V729.63C823.889 729.506 823.155 729.423 822.559 729.423C820.177 729.423 818.225 730.808 817.449 733.439H817.227V729.727H811.508V751ZM835.831 751.415C841.094 751.415 844.639 748.853 845.47 744.906L840.013 744.546C839.418 746.167 837.894 747.011 835.928 747.011C832.978 747.011 831.108 745.059 831.108 741.887V741.873H845.595V740.253C845.595 733.023 841.218 729.45 835.595 729.45C829.335 729.45 825.278 733.896 825.278 740.461C825.278 747.205 829.28 751.415 835.831 751.415ZM831.108 738.217C831.233 735.793 833.075 733.854 835.692 733.854C838.254 733.854 840.027 735.683 840.041 738.217H831.108Z" fill="black"/>
</g>
<g clip-path="url(#clip3_16_8552)">
<rect x="898" y="700" width="166" height="73" rx="20" fill="#F2CA87"/>
<path d="M967.317 732.566C966.527 726.016 961.569 722.249 955.004 722.249C947.512 722.249 941.792 727.539 941.792 736.818C941.792 746.07 947.415 751.388 955.004 751.388C962.275 751.388 966.666 746.554 967.317 741.333L961.251 741.305C960.683 744.338 958.301 746.083 955.101 746.083C950.794 746.083 947.872 742.884 947.872 736.818C947.872 730.918 950.753 727.553 955.143 727.553C958.425 727.553 960.793 729.45 961.251 732.566H967.317ZM971.278 751H977.275V741.804H982.316C988.839 741.804 992.634 737.912 992.634 732.248C992.634 726.611 988.908 722.636 982.468 722.636H971.278V751ZM977.275 736.998V727.539H981.319C984.781 727.539 986.457 729.423 986.457 732.248C986.457 735.059 984.781 736.998 981.346 736.998H977.275ZM1013.71 722.636V740.544C1013.71 743.784 1011.44 746.125 1007.95 746.125C1004.47 746.125 1002.19 743.784 1002.19 740.544V722.636H996.19V741.056C996.19 747.261 1000.87 751.402 1007.95 751.402C1015 751.402 1019.71 747.261 1019.71 741.056V722.636H1013.71Z" fill="black"/>
</g>
<path fill-rule="evenodd" clip-rule="evenodd" d="M218.607 273.955C218.607 273.955 213.401 276.972 222.315 277.99C233.116 279.218 238.635 279.041 250.534 276.801C250.534 276.801 253.669 278.754 258.039 280.445C231.356 291.829 197.651 279.786 218.607 273.955Z" fill="#0074BD"/>
<path fill-rule="evenodd" clip-rule="evenodd" d="M215.345 259.098C215.345 259.098 209.506 263.403 218.426 264.321C229.964 265.507 239.073 265.604 254.844 262.582C254.844 262.582 257.02 264.783 260.447 265.986C228.192 275.381 192.266 266.725 215.345 259.098Z" fill="#0074BD"/>
<path fill-rule="evenodd" clip-rule="evenodd" d="M242.83 233.892C249.407 241.432 241.105 248.212 241.105 248.212C241.105 248.212 257.797 239.632 250.133 228.884C242.972 218.864 237.482 213.887 267.204 196.723C267.205 196.723 220.547 208.323 242.83 233.892Z" fill="#EA2D2E"/>
<path fill-rule="evenodd" clip-rule="evenodd" d="M278.119 284.946C278.119 284.946 281.972 288.109 273.874 290.555C258.477 295.2 209.776 296.6 196.249 290.741C191.39 288.634 200.507 285.713 203.375 285.096C206.366 284.451 208.073 284.569 208.073 284.569C202.666 280.777 173.12 292.017 193.068 295.24C247.466 304.02 292.227 291.285 278.119 284.946Z" fill="#0074BD"/>
<path fill-rule="evenodd" clip-rule="evenodd" d="M221.112 243.702C221.112 243.702 196.343 249.562 212.341 251.692C219.098 252.592 232.56 252.385 245.108 251.337C255.361 250.48 265.65 248.647 265.65 248.647C265.65 248.647 262.037 250.19 259.422 251.968C234.264 258.557 185.673 255.488 199.664 248.752C211.491 243.054 221.112 243.702 221.112 243.702Z" fill="#0074BD"/>
<path fill-rule="evenodd" clip-rule="evenodd" d="M265.548 268.432C291.12 255.204 279.295 242.49 271.042 244.202C269.024 244.621 268.118 244.985 268.118 244.985C268.118 244.985 268.87 243.812 270.302 243.307C286.629 237.594 299.183 260.163 265.037 269.102C265.036 269.102 265.429 268.747 265.548 268.432Z" fill="#0074BD"/>
<path fill-rule="evenodd" clip-rule="evenodd" d="M250.133 169C250.133 169 264.292 183.107 236.7 204.794C214.572 222.198 231.654 232.117 236.692 243.456C223.774 231.852 214.3 221.635 220.655 212.128C229.987 198.174 255.845 191.406 250.133 169Z" fill="#EA2D2E"/>
<path fill-rule="evenodd" clip-rule="evenodd" d="M223.626 304.291C248.166 305.853 285.862 303.422 286.754 291.857C286.754 291.857 285.039 296.241 266.471 299.72C245.523 303.647 219.68 303.19 204.358 300.67C204.358 300.67 207.497 303.257 223.626 304.291Z" fill="#0074BD"/>
<path d="M338.53 221.473V265.768C338.499 271.879 335.769 275.105 330.806 275.105C326.122 275.105 323.082 272.189 322.989 267.133H309.62C309.558 279.82 318.615 285.869 330.123 285.869C342.996 285.869 351.775 278.083 351.806 265.768V221.473H338.53ZM374.388 221.473H359.468L381.398 285H398.707L420.606 221.473H405.717L390.332 269.739H389.742L374.388 221.473ZM428.253 221.473V285H441.281V243.496H441.808L458.248 284.69H467.12L483.56 243.651H484.087V285H497.115V221.473H480.551L463.056 264.155H462.312L444.817 221.473H428.253Z" fill="#EC001A"/>
<path fill-rule="evenodd" clip-rule="evenodd" d="M837.975 182C837.689 182.004 837.399 182.072 837.143 182.222C836.632 182.522 836.311 183.073 836.311 183.665V226.115C836.311 226.532 836.116 226.904 835.756 227.114C835.394 227.323 834.953 227.323 834.59 227.114L827.654 223.118C826.621 222.522 825.359 222.523 824.325 223.118L796.635 239.099C795.6 239.697 794.971 240.846 794.971 242.04V274.003C794.971 275.197 795.601 276.29 796.635 276.888L824.325 292.869C825.36 293.467 826.619 293.467 827.654 292.869L855.344 276.888C856.378 276.29 857.008 275.197 857.008 274.003V194.319C857.008 193.107 856.347 191.969 855.288 191.378L838.808 182.167C838.549 182.022 838.262 181.997 837.975 182V182ZM659.852 221.897C659.324 221.919 658.828 222.011 658.354 222.286L630.665 238.267C629.633 238.863 629 239.95 629 241.153L629.055 284.046C629.055 284.643 629.363 285.197 629.888 285.489C630.402 285.797 631.04 285.797 631.552 285.489L647.977 276.056C649.018 275.438 649.698 274.362 649.698 273.17V253.138C649.698 251.944 650.326 250.847 651.362 250.253L658.354 246.202C658.876 245.901 659.436 245.758 660.019 245.758C660.589 245.758 661.176 245.9 661.684 246.202L668.675 250.253C669.711 250.847 670.34 251.944 670.34 253.138V273.17C670.34 274.362 671.026 275.444 672.06 276.056L688.485 285.489C689.001 285.797 689.638 285.797 690.15 285.489C690.66 285.197 690.982 284.643 690.982 284.046L691.038 241.153C691.038 239.95 690.412 238.863 689.373 238.267L661.683 222.286C661.215 222.011 660.717 221.919 660.185 221.897H659.852H659.852ZM908.67 222.286C908.091 222.285 907.524 222.432 907.005 222.73L879.315 238.711C878.281 239.308 877.651 240.402 877.651 241.596V273.559C877.651 274.76 878.328 275.85 879.371 276.444L906.839 292.092C907.853 292.672 909.091 292.715 910.112 292.147L926.759 282.88C927.288 282.587 927.645 282.04 927.647 281.438C927.651 280.835 927.337 280.295 926.815 279.995L898.959 264.014C898.437 263.716 898.071 263.114 898.071 262.516V252.527C898.071 251.93 898.442 251.383 898.959 251.085L907.615 246.09C908.13 245.793 908.763 245.793 909.28 246.09L917.936 251.085C918.454 251.383 918.769 251.93 918.769 252.527V260.407C918.769 261.005 919.084 261.552 919.601 261.85C920.121 262.149 920.749 262.15 921.266 261.85L937.857 252.195C938.887 251.596 939.522 250.5 939.522 249.309V241.596C939.522 240.405 938.89 239.309 937.857 238.71L910.334 222.729C909.816 222.429 909.248 222.286 908.67 222.285V222.286ZM825.879 246.147C826.023 246.147 826.193 246.182 826.322 246.257L835.811 251.75C836.069 251.899 836.255 252.174 836.255 252.472V263.459C836.255 263.757 836.071 264.032 835.811 264.18L826.322 269.673C826.064 269.821 825.749 269.821 825.49 269.673L816.001 264.18C815.743 264.031 815.557 263.757 815.557 263.459V252.472C815.557 252.174 815.744 251.9 816.001 251.75L825.49 246.258C825.62 246.183 825.734 246.148 825.879 246.148V246.147Z" fill="#404137"/>
<path fill-rule="evenodd" clip-rule="evenodd" d="M991.914 221.9C990.954 221.9 990.021 222.099 989.195 222.566L963.059 237.66C961.368 238.633 960.34 240.474 960.34 242.432V272.563C960.34 274.519 961.368 276.358 963.059 277.335L969.884 281.275C973.201 282.909 974.424 282.884 975.933 282.884C980.843 282.884 983.646 279.905 983.646 274.727V244.984C983.646 244.564 983.282 244.263 982.869 244.263H979.595C979.176 244.263 978.818 244.564 978.818 244.984V274.727C978.818 277.022 976.428 279.33 972.548 277.39L965.445 273.229C965.194 273.092 965.001 272.851 965.001 272.563V242.432C965.001 242.146 965.192 241.855 965.445 241.71L991.526 226.673C991.77 226.532 992.06 226.532 992.302 226.673L1018.38 241.71C1018.63 241.86 1018.83 242.137 1018.83 242.432V272.563C1018.83 272.851 1018.68 273.145 1018.44 273.284L992.302 288.322C992.078 288.455 991.77 288.455 991.526 288.322L984.811 284.327C984.612 284.21 984.339 284.218 984.145 284.327C982.292 285.377 981.944 285.5 980.206 286.102C979.777 286.252 979.127 286.484 980.428 287.212L989.195 292.373C990.03 292.856 990.96 293.094 991.914 293.094C992.882 293.094 993.798 292.856 994.633 292.373L1020.77 277.335C1022.46 276.351 1023.49 274.519 1023.49 272.563V242.432C1023.49 240.474 1022.46 238.637 1020.77 237.66L994.633 222.566C993.814 222.099 992.874 221.9 991.914 221.9ZM743.319 222.511C742.742 222.511 742.171 222.656 741.654 222.955L713.965 238.88C712.929 239.477 712.3 240.627 712.3 241.821V273.783C712.3 274.979 712.93 276.071 713.965 276.669L741.654 292.65C742.689 293.248 743.948 293.248 744.983 292.65L772.673 276.669C773.706 276.071 774.338 274.979 774.338 273.783V241.821C774.338 240.626 773.708 239.477 772.673 238.88L744.983 222.955C744.467 222.656 743.896 222.511 743.319 222.511ZM1030.7 222.678V223.454H1032.87V229.17H1033.75V223.454H1035.97V222.678H1030.7ZM1036.75 222.678V229.17H1037.58V225.341C1037.58 225.185 1037.59 224.943 1037.58 224.62C1037.57 224.29 1037.58 224.003 1037.58 223.843V223.676L1039.41 229.169H1040.3L1042.19 223.676C1042.19 224.025 1042.14 224.363 1042.13 224.675C1042.13 224.978 1042.13 225.206 1042.13 225.341V229.169H1042.96V222.677H1041.74L1039.86 228.171L1038.03 222.677H1036.75L1036.75 222.678ZM998.906 243.431C991.463 243.431 987.031 246.598 987.031 251.865C987.031 257.579 991.43 259.149 998.573 259.856C1007.12 260.692 1007.78 261.947 1007.78 263.629C1007.78 266.547 1005.46 267.791 999.96 267.791C993.053 267.791 991.534 266.067 991.026 262.63C990.966 262.262 990.682 261.965 990.305 261.965H986.92C986.503 261.965 986.143 262.323 986.143 262.741C986.143 267.14 988.536 272.341 999.96 272.341C1008.23 272.341 1013 269.095 1013 263.407C1013 257.769 1009.15 256.255 1001.13 255.195C993.019 254.122 992.247 253.597 992.247 251.699C992.247 250.132 992.902 248.036 998.906 248.036C1004.27 248.036 1006.25 249.193 1007.06 252.809C1007.13 253.149 1007.43 253.419 1007.78 253.419H1011.17C1011.38 253.419 1011.58 253.291 1011.72 253.142C1011.87 252.982 1011.97 252.802 1011.95 252.587C1011.42 246.36 1007.27 243.431 998.906 243.431ZM908.901 251.033C908.79 251.033 908.668 251.033 908.568 251.088L903.241 254.196C903.041 254.309 902.908 254.521 902.908 254.75V260.854C902.908 261.084 903.041 261.295 903.241 261.409L908.568 264.461C908.768 264.577 908.981 264.577 909.178 264.461L914.505 261.409C914.703 261.296 914.838 261.084 914.838 260.854V254.75C914.838 254.521 914.703 254.31 914.505 254.196L909.178 251.088C909.08 251.03 909.012 251.033 908.901 251.033Z" fill="#83CD29"/>
<path d="M378 307C378 304.239 375.761 302 373 302C370.239 302 368 304.239 368 307H378ZM243 706L271.868 656H214.132L243 706ZM243 622V617H238V622H243ZM373 622V627H378V622H373ZM368 307V479.5H378V307H368ZM238 622V661H248V622H238ZM368 479.5V622H378V479.5H368ZM373 617H243V627H373V617Z" fill="#D87A00"/>
<path d="M455.912 369.613H463.134C463.029 363.261 457.809 358.876 449.874 358.876C442.061 358.876 436.337 363.192 436.371 369.665C436.354 374.92 440.06 377.93 446.081 379.374L449.961 380.349C453.842 381.288 455.999 382.402 456.017 384.803C455.999 387.413 453.528 389.188 449.7 389.188C445.785 389.188 442.966 387.379 442.723 383.811H435.432C435.623 391.52 441.139 395.505 449.787 395.505C458.488 395.505 463.603 391.346 463.621 384.821C463.603 378.887 459.131 375.738 452.937 374.346L449.735 373.58C446.638 372.866 444.045 371.718 444.097 369.16C444.097 366.863 446.133 365.175 449.822 365.175C453.424 365.175 455.634 366.811 455.912 369.613ZM472.7 405.023C478.216 405.023 481.139 402.204 482.653 397.888L493.041 368.308L485.193 368.273L479.608 387.901H479.329L473.796 368.273H466.001L475.588 395.766L475.153 396.897C474.179 399.402 472.317 399.524 469.707 398.724L468.036 404.257C469.098 404.71 470.82 405.023 472.7 405.023ZM518.646 375.894C517.985 370.97 514.018 367.925 507.266 367.925C500.428 367.925 495.921 371.092 495.938 376.242C495.921 380.244 498.444 382.837 503.664 383.881L508.293 384.803C510.624 385.273 511.686 386.126 511.721 387.466C511.686 389.049 509.963 390.18 507.371 390.18C504.726 390.18 502.968 389.049 502.516 386.874L495.225 387.257C495.921 392.373 500.271 395.522 507.353 395.522C514.279 395.522 519.238 391.99 519.255 386.717C519.238 382.854 516.715 380.54 511.529 379.479L506.692 378.504C504.204 377.965 503.281 377.112 503.299 375.825C503.281 374.224 505.091 373.18 507.388 373.18C509.963 373.18 511.495 374.589 511.86 376.312L518.646 375.894ZM537.713 368.273H532.684V361.869H525.272V368.273H521.618V373.841H525.272V387.761C525.237 392.999 528.804 395.592 534.181 395.365C536.095 395.296 537.452 394.913 538.2 394.669L537.034 389.153C536.669 389.223 535.886 389.397 535.19 389.397C533.711 389.397 532.684 388.84 532.684 386.787V373.841H537.713V368.273ZM554.009 395.522C560.621 395.522 565.076 392.303 566.12 387.344L559.264 386.891C558.516 388.927 556.602 389.989 554.131 389.989C550.424 389.989 548.075 387.535 548.075 383.55V383.533H566.276V381.497C566.276 372.414 560.778 367.925 553.713 367.925C545.848 367.925 540.75 373.51 540.75 381.758C540.75 390.232 545.778 395.522 554.009 395.522ZM548.075 378.939C548.232 375.894 550.546 373.458 553.835 373.458C557.054 373.458 559.281 375.755 559.299 378.939H548.075ZM570.688 395H578.1V378.957C578.1 375.999 579.979 374.032 582.45 374.032C584.886 374.032 586.522 375.703 586.522 378.33V395H593.709V378.678C593.709 375.912 595.292 374.032 597.989 374.032C600.356 374.032 602.13 375.511 602.13 378.487V395H609.526V377.025C609.526 371.231 606.08 367.925 601.104 367.925C597.189 367.925 594.144 369.926 593.047 372.988H592.769C591.916 369.891 589.184 367.925 585.513 367.925C581.911 367.925 579.179 369.839 578.065 372.988H577.752V368.273H570.688V395ZM637.946 395.522C645.062 395.522 649.534 391.346 649.882 385.203H642.887C642.452 388.057 640.573 389.658 638.033 389.658C634.57 389.658 632.325 386.752 632.325 381.636C632.325 376.59 634.587 373.702 638.033 373.702C640.747 373.702 642.487 375.494 642.887 378.156H649.882C649.569 371.979 644.888 367.925 637.911 367.925C629.802 367.925 624.791 373.545 624.791 381.741C624.791 389.867 629.715 395.522 637.946 395.522ZM661.824 395.505C665.774 395.505 668.332 393.782 669.637 391.294H669.845V395H676.875V376.973C676.875 370.604 671.481 367.925 665.53 367.925C659.127 367.925 654.916 370.987 653.889 375.859L660.745 376.416C661.25 374.641 662.833 373.336 665.495 373.336C668.018 373.336 669.463 374.607 669.463 376.799V376.903C669.463 378.626 667.636 378.852 662.99 379.305C657.7 379.792 652.949 381.567 652.949 387.535C652.949 392.825 656.725 395.505 661.824 395.505ZM663.947 390.389C661.667 390.389 660.031 389.327 660.031 387.292C660.031 385.203 661.754 384.177 664.364 383.811C665.982 383.585 668.627 383.202 669.515 382.611V385.447C669.515 388.249 667.201 390.389 663.947 390.389ZM689.613 359.364H682.2V395H689.613V359.364ZM702.537 359.364H695.125V395H702.537V359.364Z" fill="black"/>
<defs>
<clipPath id="clip0_16_8552">
<rect width="210" height="73" fill="white" transform="translate(135 700)"/>
</clipPath>
<clipPath id="clip1_16_8552">
<rect width="254" height="73" fill="white" transform="translate(360 700)"/>
</clipPath>
<clipPath id="clip2_16_8552">
<rect width="254" height="73" fill="white" transform="translate(629 700)"/>
</clipPath>
<clipPath id="clip3_16_8552">
<rect width="166" height="73" fill="white" transform="translate(898 700)"/>
</clipPath>
</defs>
</svg>
