<svg width="1200" height="900" viewBox="0 0 1200 900" fill="none" xmlns="http://www.w3.org/2000/svg">
<rect width="1200" height="900" fill="white"/>
<rect x="71" y="159" width="1038" height="8" fill="black"/>
<path d="M82.0055 141L71.9128 105.727H80.0593L85.8979 130.236H86.1907L92.6321 105.727H99.6074L106.032 130.287H106.342L112.18 105.727H120.327L110.234 141H102.966L96.2489 117.938H95.9734L89.2736 141H82.0055ZM131.747 141.517C129.071 141.517 126.758 140.948 124.806 139.812C122.865 138.663 121.367 137.067 120.311 135.024C119.254 132.968 118.726 130.586 118.726 127.876C118.726 125.143 119.254 122.755 120.311 120.711C121.367 118.656 122.865 117.06 124.806 115.923C126.758 114.775 129.071 114.201 131.747 114.201C134.422 114.201 136.73 114.775 138.67 115.923C140.622 117.06 142.126 118.656 143.183 120.711C144.239 122.755 144.767 125.143 144.767 127.876C144.767 130.586 144.239 132.968 143.183 135.024C142.126 137.067 140.622 138.663 138.67 139.812C136.73 140.948 134.422 141.517 131.747 141.517ZM131.781 135.833C132.998 135.833 134.014 135.489 134.83 134.8C135.645 134.099 136.259 133.146 136.673 131.941C137.097 130.735 137.31 129.363 137.31 127.824C137.31 126.286 137.097 124.914 136.673 123.708C136.259 122.502 135.645 121.549 134.83 120.849C134.014 120.149 132.998 119.798 131.781 119.798C130.553 119.798 129.519 120.149 128.681 120.849C127.854 121.549 127.229 122.502 126.804 123.708C126.39 124.914 126.184 126.286 126.184 127.824C126.184 129.363 126.39 130.735 126.804 131.941C127.229 133.146 127.854 134.099 128.681 134.8C129.519 135.489 130.553 135.833 131.781 135.833ZM147.994 141V114.545H155.107V119.161H155.382C155.864 117.519 156.674 116.279 157.811 115.441C158.947 114.591 160.256 114.167 161.737 114.167C162.105 114.167 162.501 114.19 162.926 114.235C163.351 114.281 163.724 114.345 164.045 114.425V120.935C163.701 120.832 163.224 120.74 162.616 120.66C162.007 120.579 161.45 120.539 160.945 120.539C159.866 120.539 158.901 120.774 158.052 121.245C157.214 121.704 156.548 122.347 156.054 123.174C155.572 124.001 155.331 124.954 155.331 126.033V141H147.994ZM172.942 133.387L172.959 124.586H174.027L182.501 114.545H190.923L179.539 127.842H177.799L172.942 133.387ZM166.294 141V105.727H173.631V141H166.294ZM182.828 141L175.043 129.478L179.935 124.294L191.423 141H182.828ZM200.315 105.727V141H192.978V105.727H200.315ZM216.601 141.517C213.925 141.517 211.612 140.948 209.66 139.812C207.719 138.663 206.221 137.067 205.165 135.024C204.108 132.968 203.58 130.586 203.58 127.876C203.58 125.143 204.108 122.755 205.165 120.711C206.221 118.656 207.719 117.06 209.66 115.923C211.612 114.775 213.925 114.201 216.601 114.201C219.276 114.201 221.584 114.775 223.524 115.923C225.476 117.06 226.98 118.656 228.037 120.711C229.093 122.755 229.621 125.143 229.621 127.876C229.621 130.586 229.093 132.968 228.037 135.024C226.98 137.067 225.476 138.663 223.524 139.812C221.584 140.948 219.276 141.517 216.601 141.517ZM216.635 135.833C217.852 135.833 218.868 135.489 219.684 134.8C220.499 134.099 221.113 133.146 221.526 131.941C221.951 130.735 222.164 129.363 222.164 127.824C222.164 126.286 221.951 124.914 221.526 123.708C221.113 122.502 220.499 121.549 219.684 120.849C218.868 120.149 217.852 119.798 216.635 119.798C215.406 119.798 214.373 120.149 213.535 120.849C212.708 121.549 212.082 122.502 211.658 123.708C211.244 124.914 211.038 126.286 211.038 127.824C211.038 129.363 211.244 130.735 211.658 131.941C212.082 133.146 212.708 134.099 213.535 134.8C214.373 135.489 215.406 135.833 216.635 135.833ZM240.391 141.499C238.703 141.499 237.199 141.207 235.879 140.621C234.558 140.024 233.513 139.146 232.744 137.986C231.986 136.815 231.607 135.357 231.607 133.611C231.607 132.142 231.877 130.907 232.417 129.908C232.956 128.909 233.691 128.106 234.621 127.497C235.551 126.889 236.608 126.429 237.79 126.119C238.985 125.809 240.236 125.591 241.545 125.465C243.084 125.304 244.324 125.155 245.265 125.017C246.207 124.868 246.89 124.65 247.315 124.363C247.74 124.076 247.952 123.651 247.952 123.088V122.985C247.952 121.894 247.608 121.05 246.919 120.453C246.241 119.856 245.277 119.557 244.025 119.557C242.705 119.557 241.654 119.85 240.873 120.436C240.093 121.01 239.576 121.733 239.323 122.606L232.537 122.055C232.882 120.447 233.559 119.058 234.57 117.887C235.58 116.704 236.883 115.797 238.479 115.165C240.087 114.522 241.947 114.201 244.06 114.201C245.529 114.201 246.936 114.373 248.279 114.718C249.634 115.062 250.834 115.596 251.879 116.319C252.935 117.043 253.768 117.973 254.376 119.11C254.985 120.235 255.289 121.584 255.289 123.157V141H248.331V137.331H248.124C247.699 138.158 247.131 138.887 246.419 139.519C245.707 140.139 244.852 140.627 243.853 140.983C242.854 141.327 241.7 141.499 240.391 141.499ZM242.492 136.436C243.572 136.436 244.525 136.223 245.351 135.799C246.178 135.362 246.827 134.777 247.298 134.042C247.768 133.307 248.004 132.475 248.004 131.545V128.737C247.774 128.886 247.458 129.024 247.056 129.151C246.666 129.265 246.224 129.374 245.73 129.478C245.236 129.57 244.743 129.656 244.249 129.736C243.755 129.805 243.308 129.868 242.906 129.926C242.044 130.052 241.292 130.253 240.649 130.528C240.006 130.804 239.507 131.177 239.151 131.648C238.795 132.107 238.617 132.681 238.617 133.37C238.617 134.369 238.979 135.133 239.702 135.661C240.437 136.178 241.367 136.436 242.492 136.436ZM269.185 141.431C267.175 141.431 265.356 140.914 263.725 139.881C262.106 138.836 260.82 137.303 259.867 135.282C258.926 133.25 258.455 130.758 258.455 127.807C258.455 124.776 258.943 122.256 259.919 120.246C260.895 118.225 262.192 116.716 263.811 115.717C265.442 114.706 267.227 114.201 269.168 114.201C270.649 114.201 271.883 114.454 272.871 114.959C273.869 115.453 274.673 116.073 275.282 116.819C275.902 117.554 276.373 118.277 276.694 118.989H276.918V105.727H284.238V141H277.004V136.763H276.694C276.35 137.498 275.862 138.227 275.23 138.95C274.61 139.662 273.801 140.254 272.802 140.724C271.814 141.195 270.609 141.431 269.185 141.431ZM271.51 135.592C272.693 135.592 273.692 135.27 274.507 134.627C275.333 133.973 275.965 133.06 276.401 131.889C276.849 130.718 277.073 129.346 277.073 127.773C277.073 126.2 276.855 124.833 276.418 123.674C275.982 122.514 275.351 121.618 274.524 120.987C273.697 120.355 272.693 120.04 271.51 120.04C270.304 120.04 269.288 120.367 268.461 121.021C267.635 121.676 267.009 122.583 266.584 123.743C266.159 124.902 265.947 126.246 265.947 127.773C265.947 129.311 266.159 130.672 266.584 131.855C267.02 133.026 267.646 133.944 268.461 134.61C269.288 135.265 270.304 135.592 271.51 135.592ZM298.406 141V114.545H305.743V141H298.406ZM302.092 111.135C301.001 111.135 300.065 110.774 299.284 110.05C298.515 109.315 298.13 108.437 298.13 107.415C298.13 106.405 298.515 105.538 299.284 104.814C300.065 104.08 301.001 103.712 302.092 103.712C303.183 103.712 304.113 104.08 304.882 104.814C305.663 105.538 306.053 106.405 306.053 107.415C306.053 108.437 305.663 109.315 304.882 110.05C304.113 110.774 303.183 111.135 302.092 111.135ZM332.087 122.089L325.37 122.502C325.255 121.928 325.008 121.412 324.629 120.952C324.25 120.482 323.751 120.108 323.131 119.833C322.522 119.546 321.793 119.402 320.944 119.402C319.807 119.402 318.848 119.643 318.067 120.126C317.287 120.596 316.896 121.228 316.896 122.02C316.896 122.652 317.149 123.186 317.654 123.622C318.159 124.058 319.026 124.408 320.255 124.673L325.043 125.637C327.615 126.165 329.532 127.015 330.795 128.186C332.058 129.357 332.69 130.896 332.69 132.802C332.69 134.536 332.179 136.057 331.157 137.366C330.146 138.675 328.757 139.697 326.989 140.432C325.232 141.155 323.205 141.517 320.909 141.517C317.407 141.517 314.617 140.788 312.539 139.329C310.472 137.86 309.261 135.862 308.905 133.336L316.121 132.957C316.339 134.025 316.867 134.84 317.706 135.403C318.544 135.954 319.617 136.229 320.926 136.229C322.212 136.229 323.246 135.982 324.026 135.489C324.819 134.983 325.221 134.335 325.232 133.542C325.221 132.876 324.939 132.331 324.388 131.906C323.837 131.47 322.987 131.137 321.839 130.907L317.258 129.994C314.674 129.478 312.751 128.582 311.488 127.308C310.237 126.033 309.611 124.408 309.611 122.434C309.611 120.734 310.07 119.27 310.989 118.042C311.919 116.813 313.222 115.866 314.898 115.2C316.586 114.534 318.561 114.201 320.823 114.201C324.164 114.201 326.794 114.907 328.711 116.319C330.64 117.732 331.765 119.655 332.087 122.089ZM347.718 141.517C345.043 141.517 342.729 140.948 340.777 139.812C338.837 138.663 337.338 137.067 336.282 135.024C335.225 132.968 334.697 130.586 334.697 127.876C334.697 125.143 335.225 122.755 336.282 120.711C337.338 118.656 338.837 117.06 340.777 115.923C342.729 114.775 345.043 114.201 347.718 114.201C350.393 114.201 352.701 114.775 354.642 115.923C356.593 117.06 358.098 118.656 359.154 120.711C360.21 122.755 360.738 125.143 360.738 127.876C360.738 130.586 360.21 132.968 359.154 135.024C358.098 137.067 356.593 138.663 354.642 139.812C352.701 140.948 350.393 141.517 347.718 141.517ZM347.752 135.833C348.969 135.833 349.986 135.489 350.801 134.8C351.616 134.099 352.23 133.146 352.644 131.941C353.068 130.735 353.281 129.363 353.281 127.824C353.281 126.286 353.068 124.914 352.644 123.708C352.23 122.502 351.616 121.549 350.801 120.849C349.986 120.149 348.969 119.798 347.752 119.798C346.524 119.798 345.49 120.149 344.652 120.849C343.825 121.549 343.2 122.502 342.775 123.708C342.362 124.914 342.155 126.286 342.155 127.824C342.155 129.363 342.362 130.735 342.775 131.941C343.2 133.146 343.825 134.099 344.652 134.8C345.49 135.489 346.524 135.833 347.752 135.833ZM371.302 105.727V141H363.965V105.727H371.302ZM383.178 141.499C381.49 141.499 379.986 141.207 378.666 140.621C377.345 140.024 376.3 139.146 375.531 137.986C374.773 136.815 374.394 135.357 374.394 133.611C374.394 132.142 374.664 130.907 375.204 129.908C375.744 128.909 376.478 128.106 377.408 127.497C378.338 126.889 379.395 126.429 380.577 126.119C381.772 125.809 383.023 125.591 384.332 125.465C385.871 125.304 387.111 125.155 388.052 125.017C388.994 124.868 389.677 124.65 390.102 124.363C390.527 124.076 390.739 123.651 390.739 123.088V122.985C390.739 121.894 390.395 121.05 389.706 120.453C389.028 119.856 388.064 119.557 386.812 119.557C385.492 119.557 384.441 119.85 383.66 120.436C382.88 121.01 382.363 121.733 382.11 122.606L375.324 122.055C375.669 120.447 376.346 119.058 377.357 117.887C378.367 116.704 379.67 115.797 381.266 115.165C382.874 114.522 384.734 114.201 386.847 114.201C388.316 114.201 389.723 114.373 391.066 114.718C392.421 115.062 393.621 115.596 394.666 116.319C395.722 117.043 396.555 117.973 397.163 119.11C397.772 120.235 398.076 121.584 398.076 123.157V141H391.118V137.331H390.911C390.486 138.158 389.918 138.887 389.206 139.519C388.494 140.139 387.639 140.627 386.64 140.983C385.641 141.327 384.487 141.499 383.178 141.499ZM385.279 136.436C386.359 136.436 387.312 136.223 388.138 135.799C388.965 135.362 389.614 134.777 390.085 134.042C390.555 133.307 390.791 132.475 390.791 131.545V128.737C390.561 128.886 390.245 129.024 389.843 129.151C389.453 129.265 389.011 129.374 388.517 129.478C388.024 129.57 387.53 129.656 387.036 129.736C386.542 129.805 386.095 129.868 385.693 129.926C384.832 130.052 384.079 130.253 383.436 130.528C382.793 130.804 382.294 131.177 381.938 131.648C381.582 132.107 381.404 132.681 381.404 133.37C381.404 134.369 381.766 135.133 382.489 135.661C383.224 136.178 384.154 136.436 385.279 136.436ZM416.295 114.545V120.057H400.364V114.545H416.295ZM403.98 108.207H411.317V132.871C411.317 133.548 411.421 134.076 411.627 134.455C411.834 134.823 412.121 135.081 412.489 135.23C412.867 135.38 413.304 135.454 413.797 135.454C414.142 135.454 414.486 135.425 414.831 135.368C415.175 135.299 415.439 135.248 415.623 135.213L416.777 140.673C416.41 140.788 415.893 140.92 415.227 141.069C414.561 141.23 413.752 141.327 412.799 141.362C411.03 141.431 409.48 141.195 408.148 140.656C406.828 140.116 405.8 139.278 405.065 138.141C404.331 137.004 403.969 135.569 403.98 133.835V108.207ZM419.53 141V114.545H426.867V141H419.53ZM423.215 111.135C422.125 111.135 421.189 110.774 420.408 110.05C419.639 109.315 419.254 108.437 419.254 107.415C419.254 106.405 419.639 105.538 420.408 104.814C421.189 104.08 422.125 103.712 423.215 103.712C424.306 103.712 425.236 104.08 426.005 104.814C426.786 105.538 427.177 106.405 427.177 107.415C427.177 108.437 426.786 109.315 426.005 110.05C425.236 110.774 424.306 111.135 423.215 111.135ZM443.152 141.517C440.477 141.517 438.163 140.948 436.211 139.812C434.271 138.663 432.772 137.067 431.716 135.024C430.66 132.968 430.132 130.586 430.132 127.876C430.132 125.143 430.66 122.755 431.716 120.711C432.772 118.656 434.271 117.06 436.211 115.923C438.163 114.775 440.477 114.201 443.152 114.201C445.827 114.201 448.135 114.775 450.076 115.923C452.028 117.06 453.532 118.656 454.588 120.711C455.645 122.755 456.173 125.143 456.173 127.876C456.173 130.586 455.645 132.968 454.588 135.024C453.532 137.067 452.028 138.663 450.076 139.812C448.135 140.948 445.827 141.517 443.152 141.517ZM443.187 135.833C444.404 135.833 445.42 135.489 446.235 134.8C447.05 134.099 447.665 133.146 448.078 131.941C448.503 130.735 448.715 129.363 448.715 127.824C448.715 126.286 448.503 124.914 448.078 123.708C447.665 122.502 447.05 121.549 446.235 120.849C445.42 120.149 444.404 119.798 443.187 119.798C441.958 119.798 440.925 120.149 440.086 120.849C439.26 121.549 438.634 122.502 438.209 123.708C437.796 124.914 437.589 126.286 437.589 127.824C437.589 129.363 437.796 130.735 438.209 131.941C438.634 133.146 439.26 134.099 440.086 134.8C440.925 135.489 441.958 135.833 443.187 135.833ZM466.736 125.706V141H459.399V114.545H466.391V119.213H466.702C467.287 117.674 468.269 116.457 469.647 115.562C471.024 114.655 472.695 114.201 474.659 114.201C476.496 114.201 478.097 114.603 479.464 115.407C480.83 116.21 481.892 117.359 482.65 118.851C483.408 120.332 483.787 122.101 483.787 124.156V141H476.45V125.465C476.461 123.846 476.048 122.583 475.21 121.676C474.371 120.757 473.218 120.298 471.748 120.298C470.76 120.298 469.888 120.51 469.13 120.935C468.384 121.36 467.798 121.98 467.373 122.795C466.96 123.599 466.747 124.569 466.736 125.706Z" fill="black"/>
<path d="M136.913 311.427H150.729C150.53 299.276 140.542 290.886 125.361 290.886C110.413 290.886 99.4599 299.142 99.5265 311.527C99.4932 321.581 106.584 327.341 118.103 330.104L125.527 331.968C132.952 333.766 137.08 335.897 137.113 340.491C137.08 345.485 132.352 348.881 125.028 348.881C117.537 348.881 112.144 345.418 111.678 338.593H97.7287C98.0949 353.342 108.648 360.965 125.195 360.965C141.84 360.965 151.628 353.009 151.662 340.524C151.628 329.172 143.072 323.146 131.22 320.483L125.095 319.018C119.169 317.653 114.208 315.455 114.308 310.562C114.308 306.167 118.203 302.938 125.261 302.938C132.153 302.938 136.381 306.067 136.913 311.427ZM181.296 360.999C193.946 360.999 202.469 354.84 204.467 345.352L191.35 344.486C189.918 348.381 186.256 350.412 181.529 350.412C174.437 350.412 169.943 345.718 169.943 338.094V338.061H204.766V334.165C204.766 316.787 194.246 308.198 180.73 308.198C165.682 308.198 155.927 318.884 155.927 334.665C155.927 350.878 165.548 360.999 181.296 360.999ZM169.943 329.272C170.243 323.445 174.67 318.785 180.963 318.785C187.122 318.785 191.383 323.179 191.416 329.272H169.943ZM234.026 360.999C247.642 360.999 256.198 353.009 256.864 341.257H243.481C242.648 346.717 239.053 349.779 234.192 349.779C227.567 349.779 223.272 344.22 223.272 334.432C223.272 324.777 227.6 319.251 234.192 319.251C239.386 319.251 242.715 322.68 243.481 327.773H256.864C256.265 315.955 247.309 308.198 233.959 308.198C218.445 308.198 208.857 318.951 208.857 334.632C208.857 350.179 218.279 360.999 234.026 360.999ZM295.637 338.227C295.67 345.085 290.976 348.681 285.882 348.681C280.522 348.681 277.06 344.919 277.026 338.893V308.864H262.844V341.423C262.877 353.375 269.869 360.666 280.156 360.666C287.846 360.666 293.373 356.704 295.67 350.712H296.202V360H309.819V308.864H295.637V338.227ZM318.063 360H332.245V331.069C332.245 324.777 336.839 320.449 343.098 320.449C345.063 320.449 347.759 320.782 349.091 321.215V308.631C347.826 308.331 346.061 308.131 344.63 308.131C338.904 308.131 334.209 311.46 332.345 317.786H331.812V308.864H318.063V360ZM353.323 360H367.505V308.864H353.323V360ZM360.448 302.272C364.676 302.272 368.138 299.043 368.138 295.081C368.138 291.152 364.676 287.923 360.448 287.923C356.253 287.923 352.79 291.152 352.79 295.081C352.79 299.043 356.253 302.272 360.448 302.272ZM402.965 308.864H393.344V296.612H379.162V308.864H372.17V319.517H379.162V346.151C379.095 356.171 385.92 361.132 396.207 360.699C399.869 360.566 402.466 359.834 403.898 359.367L401.667 348.814C400.968 348.947 399.47 349.28 398.138 349.28C395.308 349.28 393.344 348.215 393.344 344.286V319.517H402.965V308.864ZM417.859 379.176C428.413 379.176 434.006 373.783 436.902 365.526L456.778 308.93L441.763 308.864L431.076 346.417H430.544L419.957 308.864H405.042L423.386 361.465L422.554 363.629C420.689 368.423 417.127 368.656 412.133 367.124L408.937 377.711C410.968 378.577 414.264 379.176 417.859 379.176ZM521.36 315.688C519.462 299.941 507.544 290.886 491.763 290.886C473.752 290.886 460.003 303.604 460.003 325.909C460.003 348.148 473.519 360.932 491.763 360.932C509.242 360.932 519.795 349.313 521.36 336.762L506.778 336.696C505.413 343.987 499.687 348.181 491.996 348.181C481.643 348.181 474.618 340.491 474.618 325.909C474.618 311.727 481.543 303.637 492.096 303.637C499.986 303.637 505.679 308.198 506.778 315.688H521.36ZM551.435 360.999C566.949 360.999 576.604 350.379 576.604 334.632C576.604 318.785 566.949 308.198 551.435 308.198C535.921 308.198 526.266 318.785 526.266 334.632C526.266 350.379 535.921 360.999 551.435 360.999ZM551.501 350.012C544.344 350.012 540.682 343.454 540.682 334.532C540.682 325.609 544.344 319.018 551.501 319.018C558.526 319.018 562.188 325.609 562.188 334.532C562.188 343.454 558.526 350.012 551.501 350.012ZM596.907 330.437C596.941 323.845 600.869 319.983 606.595 319.983C612.288 319.983 615.717 323.712 615.684 329.971V360H629.866V327.441C629.866 315.522 622.875 308.198 612.222 308.198C604.631 308.198 599.138 311.926 596.841 317.886H596.242V308.864H582.725V360H596.907V330.437ZM665.143 308.864H655.522V296.612H641.34V308.864H634.348V319.517H641.34V346.151C641.273 356.171 648.098 361.132 658.385 360.699C662.047 360.566 664.644 359.834 666.075 359.367L663.845 348.814C663.146 348.947 661.648 349.28 660.316 349.28C657.486 349.28 655.522 348.215 655.522 344.286V319.517H665.143V308.864ZM694.036 360.999C706.687 360.999 715.21 354.84 717.208 345.352L704.091 344.486C702.659 348.381 698.997 350.412 694.27 350.412C687.178 350.412 682.684 345.718 682.684 338.094V338.061H717.507V334.165C717.507 316.787 706.987 308.198 693.471 308.198C678.423 308.198 668.668 318.884 668.668 334.665C668.668 350.878 678.289 360.999 694.036 360.999ZM682.684 329.272C682.984 323.445 687.411 318.785 693.704 318.785C699.863 318.785 704.124 323.179 704.157 329.272H682.684ZM734.69 308.864H720.042L734.69 334.432L719.509 360H734.157L744.078 342.322L754.166 360H768.648L753.433 334.432L768.248 308.864H753.7L744.078 326.741L734.69 308.864ZM800.77 308.864H791.149V296.612H776.967V308.864H769.975V319.517H776.967V346.151C776.9 356.171 783.725 361.132 794.012 360.699C797.674 360.566 800.271 359.834 801.702 359.367L799.472 348.814C798.773 348.947 797.275 349.28 795.943 349.28C793.113 349.28 791.149 348.215 791.149 344.286V319.517H800.77V308.864Z" fill="black"/>
<path d="M123.8 499.019C138.976 499.019 149.762 492.105 149.762 478.519V424.9H135.139V433.819H134.586C132.615 429.498 128.294 424.209 119.409 424.209C107.759 424.209 97.9064 433.266 97.9064 451.346C97.9064 469.012 107.482 477.239 119.444 477.239C127.913 477.239 132.65 472.987 134.586 468.597H135.208V478.311C135.208 485.605 130.541 488.44 124.145 488.44C117.646 488.44 114.362 485.605 113.152 482.39L99.5313 484.223C101.294 492.589 109.487 499.019 123.8 499.019ZM124.111 466.177C116.886 466.177 112.945 460.438 112.945 451.277C112.945 442.254 116.816 435.928 124.111 435.928C131.267 435.928 135.277 441.978 135.277 451.277C135.277 460.646 131.198 466.177 124.111 466.177ZM171.449 407.2H154.82L179.261 478H198.552L222.958 407.2H206.365L189.218 460.991H188.561L171.449 407.2ZM228.103 478H242.83V424.9H228.103V478ZM235.501 418.055C239.891 418.055 243.487 414.702 243.487 410.588C243.487 406.509 239.891 403.155 235.501 403.155C231.145 403.155 227.55 406.509 227.55 410.588C227.55 414.702 231.145 418.055 235.501 418.055ZM295.708 440.042C294.394 430.258 286.512 424.209 273.099 424.209C259.512 424.209 250.559 430.5 250.593 440.733C250.559 448.684 255.571 453.835 265.943 455.91L275.138 457.742C279.771 458.675 281.879 460.369 281.949 463.031C281.879 466.177 278.457 468.424 273.306 468.424C268.051 468.424 264.56 466.177 263.661 461.856L249.176 462.616C250.559 472.78 259.201 479.037 273.271 479.037C287.03 479.037 296.883 472.019 296.918 461.545C296.883 453.87 291.87 449.272 281.568 447.163L271.958 445.227C267.014 444.156 265.182 442.462 265.217 439.904C265.182 436.723 268.777 434.649 273.341 434.649C278.457 434.649 281.499 437.449 282.225 440.871L295.708 440.042ZM327.083 479.037C343.192 479.037 353.218 468.009 353.218 451.657C353.218 435.202 343.192 424.209 327.083 424.209C310.973 424.209 300.947 435.202 300.947 451.657C300.947 468.009 310.973 479.037 327.083 479.037ZM327.152 467.629C319.719 467.629 315.916 460.819 315.916 451.554C315.916 442.289 319.719 435.444 327.152 435.444C334.446 435.444 338.249 442.289 338.249 451.554C338.249 460.819 334.446 467.629 327.152 467.629ZM359.693 478H374.42V447.958C374.42 441.425 379.191 436.93 385.69 436.93C387.73 436.93 390.53 437.276 391.913 437.726V424.658C390.599 424.347 388.767 424.139 387.28 424.139C381.334 424.139 376.46 427.596 374.524 434.165H373.971V424.9H359.693V478Z" fill="#D2D2D2"/>
<path d="M138.561 551.562C138.285 548.773 137.098 546.607 135 545.063C132.903 543.519 130.057 542.746 126.462 542.746C124.019 542.746 121.956 543.092 120.273 543.784C118.591 544.452 117.3 545.385 116.402 546.584C115.526 547.782 115.088 549.142 115.088 550.663C115.042 551.931 115.307 553.037 115.883 553.982C116.482 554.927 117.3 555.745 118.337 556.436C119.375 557.105 120.573 557.692 121.933 558.199C123.293 558.683 124.745 559.098 126.289 559.444L132.65 560.965C135.738 561.656 138.573 562.578 141.154 563.731C143.735 564.883 145.971 566.3 147.861 567.983C149.75 569.665 151.214 571.647 152.251 573.929C153.311 576.211 153.853 578.826 153.876 581.776C153.853 586.109 152.746 589.866 150.557 593.046C148.391 596.204 145.256 598.658 141.154 600.41C137.075 602.138 132.154 603.003 126.392 603.003C120.677 603.003 115.699 602.127 111.458 600.375C107.24 598.624 103.945 596.031 101.571 592.597C99.2201 589.14 97.9871 584.865 97.8719 579.771H112.357C112.518 582.145 113.198 584.127 114.396 585.717C115.618 587.285 117.243 588.471 119.271 589.278C121.322 590.062 123.638 590.454 126.22 590.454C128.755 590.454 130.956 590.085 132.822 589.347C134.712 588.61 136.176 587.584 137.213 586.271C138.25 584.957 138.769 583.447 138.769 581.742C138.769 580.152 138.296 578.815 137.351 577.732C136.429 576.648 135.07 575.727 133.272 574.966C131.497 574.205 129.319 573.514 126.738 572.892L119.029 570.956C113.06 569.504 108.347 567.234 104.89 564.146C101.433 561.057 99.7156 556.897 99.7387 551.666C99.7156 547.379 100.856 543.634 103.161 540.43C105.489 537.227 108.681 534.726 112.737 532.929C116.793 531.131 121.403 530.232 126.565 530.232C131.82 530.232 136.406 531.131 140.324 532.929C144.265 534.726 147.33 537.227 149.52 540.43C151.709 543.634 152.839 547.344 152.908 551.562H138.561ZM175.709 603.003C172.321 603.003 169.302 602.415 166.652 601.239C164.001 600.041 161.904 598.278 160.36 595.95C158.839 593.599 158.078 590.672 158.078 587.169C158.078 584.219 158.62 581.742 159.703 579.737C160.786 577.732 162.261 576.118 164.128 574.897C165.995 573.675 168.115 572.754 170.489 572.131C172.886 571.509 175.398 571.071 178.026 570.818C181.114 570.495 183.603 570.195 185.493 569.919C187.383 569.619 188.754 569.181 189.607 568.605C190.459 568.029 190.886 567.176 190.886 566.047V565.839C190.886 563.65 190.194 561.956 188.811 560.758C187.452 559.559 185.516 558.96 183.004 558.96C180.353 558.96 178.244 559.548 176.677 560.723C175.11 561.875 174.073 563.327 173.566 565.079L159.945 563.973C160.637 560.746 161.996 557.957 164.025 555.607C166.053 553.233 168.668 551.412 171.872 550.145C175.099 548.854 178.832 548.209 183.073 548.209C186.023 548.209 188.846 548.554 191.543 549.246C194.262 549.937 196.67 551.009 198.768 552.461C200.888 553.913 202.559 555.779 203.78 558.061C205.002 560.32 205.613 563.028 205.613 566.185V602H191.646V594.637H191.231C190.379 596.296 189.238 597.759 187.809 599.027C186.38 600.271 184.663 601.251 182.658 601.965C180.653 602.657 178.337 603.003 175.709 603.003ZM179.927 592.839C182.093 592.839 184.006 592.412 185.666 591.56C187.325 590.684 188.627 589.509 189.572 588.034C190.517 586.559 190.989 584.888 190.989 583.021V577.386C190.528 577.686 189.895 577.962 189.088 578.216C188.304 578.446 187.417 578.665 186.426 578.872C185.435 579.057 184.444 579.23 183.453 579.391C182.462 579.529 181.563 579.656 180.757 579.771C179.028 580.025 177.518 580.428 176.228 580.981C174.937 581.534 173.935 582.283 173.22 583.228C172.506 584.15 172.149 585.303 172.149 586.685C172.149 588.69 172.875 590.223 174.326 591.283C175.801 592.32 177.668 592.839 179.927 592.839ZM228.665 571.302V602H213.938V548.9H227.973V558.269H228.596C229.771 555.18 231.741 552.737 234.507 550.94C237.273 549.119 240.626 548.209 244.567 548.209C248.255 548.209 251.47 549.015 254.212 550.629C256.955 552.242 259.087 554.546 260.608 557.543C262.129 560.516 262.889 564.065 262.889 568.19V602H248.162V570.818C248.185 567.568 247.356 565.033 245.673 563.212C243.991 561.368 241.675 560.446 238.725 560.446C236.743 560.446 234.991 560.873 233.47 561.726C231.972 562.578 230.797 563.823 229.944 565.459C229.114 567.072 228.688 569.02 228.665 571.302ZM290.963 602.864C286.93 602.864 283.277 601.827 280.004 599.753C276.754 597.656 274.173 594.579 272.26 590.523C270.37 586.443 269.426 581.442 269.426 575.519C269.426 569.435 270.405 564.376 272.364 560.343C274.323 556.287 276.927 553.256 280.177 551.251C283.45 549.223 287.033 548.209 290.928 548.209C293.901 548.209 296.379 548.716 298.361 549.73C300.366 550.721 301.979 551.965 303.201 553.463C304.445 554.938 305.39 556.39 306.035 557.819H306.485V531.2H321.177V602H306.658V593.496H306.035C305.344 594.971 304.365 596.434 303.097 597.886C301.852 599.315 300.228 600.502 298.223 601.447C296.241 602.392 293.821 602.864 290.963 602.864ZM295.63 591.145C298.004 591.145 300.009 590.5 301.645 589.209C303.304 587.895 304.572 586.063 305.448 583.712C306.347 581.362 306.796 578.607 306.796 575.45C306.796 572.293 306.358 569.55 305.482 567.222C304.607 564.895 303.339 563.097 301.68 561.829C300.02 560.562 298.004 559.928 295.63 559.928C293.21 559.928 291.17 560.585 289.511 561.898C287.851 563.212 286.595 565.033 285.743 567.361C284.89 569.688 284.464 572.385 284.464 575.45C284.464 578.538 284.89 581.269 285.743 583.643C286.618 585.994 287.875 587.838 289.511 589.174C291.17 590.488 293.21 591.145 295.63 591.145ZM330.462 602V531.2H345.189V557.819H345.638C346.283 556.39 347.217 554.938 348.438 553.463C349.683 551.965 351.296 550.721 353.278 549.73C355.283 548.716 357.772 548.209 360.745 548.209C364.617 548.209 368.189 549.223 371.462 551.251C374.735 553.256 377.351 556.287 379.31 560.343C381.269 564.376 382.248 569.435 382.248 575.519C382.248 581.442 381.292 586.443 379.379 590.523C377.489 594.579 374.908 597.656 371.635 599.753C368.385 601.827 364.744 602.864 360.711 602.864C357.853 602.864 355.422 602.392 353.416 601.447C351.434 600.502 349.81 599.315 348.542 597.886C347.274 596.434 346.306 594.971 345.638 593.496H344.981V602H330.462ZM344.878 575.45C344.878 578.607 345.315 581.362 346.191 583.712C347.067 586.063 348.335 587.895 349.994 589.209C351.653 590.5 353.67 591.145 356.044 591.145C358.441 591.145 360.469 590.488 362.128 589.174C363.788 587.838 365.044 585.994 365.896 583.643C366.772 581.269 367.21 578.538 367.21 575.45C367.21 572.385 366.784 569.688 365.931 567.361C365.078 565.033 363.822 563.212 362.163 561.898C360.503 560.585 358.464 559.928 356.044 559.928C353.647 559.928 351.619 560.562 349.959 561.829C348.323 563.097 347.067 564.895 346.191 567.222C345.315 569.55 344.878 572.293 344.878 575.45ZM412.966 603.037C407.596 603.037 402.952 601.896 399.034 599.615C395.139 597.31 392.132 594.106 390.011 590.004C387.891 585.879 386.831 581.096 386.831 575.657C386.831 570.172 387.891 565.379 390.011 561.276C392.132 557.151 395.139 553.947 399.034 551.666C402.952 549.361 407.596 548.209 412.966 548.209C418.336 548.209 422.969 549.361 426.863 551.666C430.781 553.947 433.801 557.151 435.921 561.276C438.041 565.379 439.101 570.172 439.101 575.657C439.101 581.096 438.041 585.879 435.921 590.004C433.801 594.106 430.781 597.31 426.863 599.615C422.969 601.896 418.336 603.037 412.966 603.037ZM413.035 591.629C415.478 591.629 417.518 590.938 419.154 589.555C420.791 588.149 422.024 586.236 422.853 583.816C423.706 581.396 424.132 578.642 424.132 575.554C424.132 572.465 423.706 569.711 422.853 567.291C422.024 564.871 420.791 562.959 419.154 561.553C417.518 560.147 415.478 559.444 413.035 559.444C410.569 559.444 408.495 560.147 406.813 561.553C405.153 562.959 403.897 564.871 403.044 567.291C402.215 569.711 401.8 572.465 401.8 575.554C401.8 578.642 402.215 581.396 403.044 583.816C403.897 586.236 405.153 588.149 406.813 589.555C408.495 590.938 410.569 591.629 413.035 591.629ZM455.983 548.9L465.731 567.464L475.722 548.9H490.83L475.446 575.45L491.244 602H476.206L465.731 583.643L455.43 602H440.219L455.983 575.45L440.772 548.9H455.983ZM518.773 603.037C513.311 603.037 508.61 601.931 504.669 599.718C500.751 597.483 497.732 594.325 495.611 590.246C493.491 586.144 492.431 581.292 492.431 575.692C492.431 570.23 493.491 565.436 495.611 561.311C497.732 557.185 500.716 553.97 504.565 551.666C508.437 549.361 512.977 548.209 518.186 548.209C521.689 548.209 524.95 548.773 527.969 549.903C531.011 551.009 533.662 552.68 535.92 554.915C538.202 557.151 539.976 559.963 541.244 563.35C542.512 566.715 543.145 570.656 543.145 575.173V579.218H498.308V570.092H529.283C529.283 567.971 528.822 566.093 527.9 564.457C526.978 562.82 525.699 561.541 524.063 560.619C522.449 559.674 520.571 559.202 518.428 559.202C516.192 559.202 514.21 559.721 512.482 560.758C510.776 561.772 509.439 563.143 508.471 564.871C507.503 566.577 507.008 568.478 506.985 570.576V579.253C506.985 581.88 507.469 584.15 508.437 586.063C509.428 587.976 510.822 589.451 512.62 590.488C514.417 591.525 516.549 592.044 519.015 592.044C520.652 592.044 522.15 591.813 523.509 591.352C524.869 590.891 526.033 590.2 527.001 589.278C527.969 588.356 528.707 587.227 529.214 585.89L542.834 586.789C542.143 590.062 540.725 592.92 538.582 595.362C536.462 597.782 533.719 599.672 530.354 601.032C527.013 602.369 523.152 603.037 518.773 603.037ZM569.222 602.864C565.189 602.864 561.536 601.827 558.264 599.753C555.014 597.656 552.433 594.579 550.52 590.523C548.63 586.443 547.685 581.442 547.685 575.519C547.685 569.435 548.665 564.376 550.624 560.343C552.583 556.287 555.187 553.256 558.436 551.251C561.709 549.223 565.293 548.209 569.188 548.209C572.161 548.209 574.638 548.716 576.62 549.73C578.626 550.721 580.239 551.965 581.46 553.463C582.705 554.938 583.65 556.39 584.295 557.819H584.745V531.2H599.437V602H584.917V593.496H584.295C583.604 594.971 582.624 596.434 581.357 597.886C580.112 599.315 578.487 600.502 576.482 601.447C574.5 602.392 572.08 602.864 569.222 602.864ZM573.889 591.145C576.263 591.145 578.268 590.5 579.905 589.209C581.564 587.895 582.832 586.063 583.707 583.712C584.606 581.362 585.056 578.607 585.056 575.45C585.056 572.293 584.618 569.55 583.742 567.222C582.866 564.895 581.599 563.097 579.939 561.829C578.28 560.562 576.263 559.928 573.889 559.928C571.47 559.928 569.43 560.585 567.77 561.898C566.111 563.212 564.855 565.033 564.002 567.361C563.15 569.688 562.723 572.385 562.723 575.45C562.723 578.538 563.15 581.269 564.002 583.643C564.878 585.994 566.134 587.838 567.77 589.174C569.43 590.488 571.47 591.145 573.889 591.145ZM627.876 602V548.9H642.153V558.165H642.706C643.674 554.869 645.299 552.38 647.581 550.698C649.862 548.992 652.49 548.139 655.463 548.139C656.2 548.139 656.995 548.186 657.848 548.278C658.701 548.37 659.45 548.497 660.095 548.658V561.726C659.404 561.518 658.447 561.334 657.226 561.172C656.004 561.011 654.887 560.93 653.873 560.93C651.706 560.93 649.77 561.403 648.065 562.348C646.382 563.27 645.046 564.56 644.055 566.22C643.087 567.879 642.603 569.792 642.603 571.958V602H627.876ZM698.661 579.391V548.9H713.388V602H699.248V592.355H698.695C697.497 595.466 695.503 597.967 692.715 599.857C689.949 601.746 686.573 602.691 682.586 602.691C679.036 602.691 675.914 601.885 673.217 600.271C670.521 598.658 668.412 596.365 666.891 593.392C665.393 590.419 664.632 586.858 664.609 582.71V548.9H679.336V580.082C679.359 583.217 680.2 585.694 681.86 587.515C683.519 589.336 685.743 590.246 688.532 590.246C690.306 590.246 691.966 589.843 693.51 589.036C695.054 588.206 696.298 586.985 697.243 585.372C698.211 583.758 698.684 581.765 698.661 579.391ZM736.794 571.302V602H722.067V548.9H736.103V558.269H736.725C737.9 555.18 739.871 552.737 742.637 550.94C745.402 549.119 748.756 548.209 752.697 548.209C756.384 548.209 759.599 549.015 762.342 550.629C765.084 552.242 767.216 554.546 768.737 557.543C770.258 560.516 771.019 564.065 771.019 568.19V602H756.292V570.818C756.315 567.568 755.485 565.033 753.803 563.212C752.12 561.368 749.804 560.446 746.854 560.446C744.872 560.446 743.121 560.873 741.599 561.726C740.101 562.578 738.926 563.823 738.073 565.459C737.244 567.072 736.817 569.02 736.794 571.302ZM807.769 548.9V559.963H775.792V548.9H807.769ZM783.052 536.178H797.779V585.683C797.779 587.043 797.986 588.103 798.401 588.863C798.816 589.601 799.392 590.119 800.129 590.419C800.89 590.719 801.766 590.868 802.757 590.868C803.448 590.868 804.14 590.811 804.831 590.696C805.522 590.557 806.052 590.454 806.421 590.384L808.737 601.343C808 601.574 806.963 601.839 805.626 602.138C804.289 602.461 802.665 602.657 800.752 602.726C797.202 602.864 794.091 602.392 791.418 601.309C788.767 600.225 786.705 598.543 785.23 596.261C783.755 593.98 783.029 591.099 783.052 587.619V536.178ZM814.262 602V548.9H828.989V602H814.262ZM821.66 542.055C819.471 542.055 817.593 541.329 816.025 539.877C814.481 538.402 813.709 536.639 813.709 534.588C813.709 532.56 814.481 530.82 816.025 529.368C817.593 527.893 819.471 527.155 821.66 527.155C823.85 527.155 825.717 527.893 827.261 529.368C828.828 530.82 829.612 532.56 829.612 534.588C829.612 536.639 828.828 538.402 827.261 539.877C825.717 541.329 823.85 542.055 821.66 542.055ZM837.686 602V548.9H851.722V558.269H852.344C853.45 555.157 855.294 552.703 857.875 550.905C860.456 549.107 863.545 548.209 867.14 548.209C870.781 548.209 873.881 549.119 876.439 550.94C878.998 552.737 880.703 555.18 881.556 558.269H882.109C883.192 555.226 885.151 552.795 887.986 550.974C890.844 549.13 894.22 548.209 898.115 548.209C903.07 548.209 907.092 549.787 910.18 552.945C913.291 556.079 914.847 560.527 914.847 566.289V602H900.155V569.193C900.155 566.243 899.371 564.03 897.804 562.555C896.237 561.08 894.278 560.343 891.927 560.343C889.253 560.343 887.168 561.196 885.67 562.901C884.172 564.583 883.423 566.807 883.423 569.573V602H869.145V568.882C869.145 566.277 868.396 564.203 866.898 562.659C865.423 561.115 863.476 560.343 861.056 560.343C859.419 560.343 857.944 560.758 856.631 561.587C855.34 562.394 854.314 563.535 853.554 565.01C852.793 566.462 852.413 568.167 852.413 570.126V602H837.686ZM947.579 603.037C942.117 603.037 937.415 601.931 933.474 599.718C929.556 597.483 926.537 594.325 924.417 590.246C922.296 586.144 921.236 581.292 921.236 575.692C921.236 570.23 922.296 565.436 924.417 561.311C926.537 557.185 929.522 553.97 933.37 551.666C937.242 549.361 941.783 548.209 946.991 548.209C950.494 548.209 953.755 548.773 956.775 549.903C959.817 551.009 962.467 552.68 964.726 554.915C967.007 557.151 968.782 559.963 970.05 563.35C971.317 566.715 971.951 570.656 971.951 575.173V579.218H927.113V570.092H958.088C958.088 567.971 957.627 566.093 956.705 564.457C955.784 562.82 954.504 561.541 952.868 560.619C951.255 559.674 949.377 559.202 947.233 559.202C944.998 559.202 943.016 559.721 941.287 560.758C939.582 561.772 938.245 563.143 937.277 564.871C936.309 566.577 935.813 568.478 935.79 570.576V579.253C935.79 581.88 936.274 584.15 937.242 586.063C938.233 587.976 939.628 589.451 941.425 590.488C943.223 591.525 945.355 592.044 947.821 592.044C949.457 592.044 950.955 591.813 952.315 591.352C953.675 590.891 954.839 590.2 955.807 589.278C956.775 588.356 957.512 587.227 958.019 585.89L971.64 586.789C970.948 590.062 969.531 592.92 967.388 595.362C965.267 597.782 962.525 599.672 959.16 601.032C955.818 602.369 951.958 603.037 947.579 603.037ZM1022.64 564.042L1009.16 564.871C1008.93 563.719 1008.43 562.682 1007.67 561.76C1006.91 560.815 1005.91 560.066 1004.67 559.513C1003.44 558.937 1001.98 558.649 1000.28 558.649C997.993 558.649 996.069 559.133 994.502 560.101C992.935 561.046 992.151 562.313 992.151 563.904C992.151 565.171 992.658 566.243 993.672 567.119C994.686 567.994 996.426 568.697 998.892 569.227L1008.5 571.163C1013.67 572.223 1017.51 573.929 1020.05 576.28C1022.58 578.63 1023.85 581.719 1023.85 585.545C1023.85 589.025 1022.83 592.078 1020.78 594.706C1018.75 597.333 1015.96 599.384 1012.41 600.859C1008.88 602.311 1004.82 603.037 1000.21 603.037C993.177 603.037 987.576 601.574 983.405 598.647C979.256 595.697 976.825 591.687 976.11 586.616L990.595 585.856C991.033 587.999 992.093 589.635 993.776 590.765C995.458 591.871 997.613 592.424 1000.24 592.424C1002.82 592.424 1004.9 591.929 1006.46 590.937C1008.05 589.923 1008.86 588.621 1008.88 587.031C1008.86 585.694 1008.3 584.6 1007.19 583.747C1006.08 582.871 1004.38 582.203 1002.07 581.742L992.877 579.91C987.691 578.872 983.831 577.075 981.296 574.517C978.784 571.958 977.528 568.697 977.528 564.733C977.528 561.322 978.45 558.384 980.293 555.918C982.16 553.452 984.776 551.55 988.141 550.214C991.529 548.877 995.493 548.209 1000.03 548.209C1006.74 548.209 1012.02 549.626 1015.87 552.461C1019.74 555.296 1022 559.156 1022.64 564.042Z" fill="#D2D2D2"/>
</svg>
