<svg width="1200" height="900" viewBox="0 0 1200 900" fill="none" xmlns="http://www.w3.org/2000/svg">
<rect width="1200" height="900" fill="white"/>
<path d="M73.0597 371.273H90.2827L106.866 402.594H107.577L124.161 371.273H141.384L114.857 418.29V444H99.5866V418.29L73.0597 371.273ZM160.085 445.065C154.569 445.065 149.799 443.893 145.774 441.55C141.773 439.182 138.684 435.892 136.506 431.678C134.328 427.44 133.239 422.527 133.239 416.94C133.239 411.306 134.328 406.382 136.506 402.168C138.684 397.93 141.773 394.639 145.774 392.295C149.799 389.928 154.569 388.744 160.085 388.744C165.601 388.744 170.36 389.928 174.361 392.295C178.386 394.639 181.487 397.93 183.665 402.168C185.843 406.382 186.932 411.306 186.932 416.94C186.932 422.527 185.843 427.44 183.665 431.678C181.487 435.892 178.386 439.182 174.361 441.55C170.36 443.893 165.601 445.065 160.085 445.065ZM160.156 433.347C162.666 433.347 164.761 432.636 166.442 431.216C168.123 429.772 169.389 427.807 170.242 425.321C171.118 422.835 171.556 420.006 171.556 416.834C171.556 413.661 171.118 410.832 170.242 408.347C169.389 405.861 168.123 403.896 166.442 402.452C164.761 401.008 162.666 400.286 160.156 400.286C157.623 400.286 155.493 401.008 153.764 402.452C152.06 403.896 150.77 405.861 149.894 408.347C149.041 410.832 148.615 413.661 148.615 416.834C148.615 420.006 149.041 422.835 149.894 425.321C150.77 427.807 152.06 429.772 153.764 431.216C155.493 432.636 157.623 433.347 160.156 433.347ZM229.116 420.776V389.455H244.244V444H229.719V434.092H229.151C227.92 437.288 225.872 439.857 223.008 441.798C220.167 443.74 216.699 444.71 212.603 444.71C208.957 444.71 205.749 443.882 202.979 442.224C200.209 440.567 198.043 438.212 196.481 435.158C194.942 432.104 194.161 428.446 194.137 424.185V389.455H209.265V421.486C209.289 424.705 210.153 427.25 211.857 429.121C213.562 430.991 215.846 431.926 218.711 431.926C220.534 431.926 222.238 431.512 223.825 430.683C225.411 429.831 226.689 428.576 227.66 426.919C228.654 425.262 229.139 423.214 229.116 420.776ZM253.713 444V389.455H268.379V398.972H268.947C269.941 395.586 271.61 393.029 273.954 391.301C276.298 389.549 278.997 388.673 282.051 388.673C282.808 388.673 283.625 388.721 284.501 388.815C285.377 388.91 286.146 389.04 286.809 389.206V402.629C286.099 402.416 285.116 402.227 283.862 402.061C282.607 401.895 281.459 401.812 280.417 401.812C278.192 401.812 276.203 402.298 274.451 403.268C272.723 404.215 271.35 405.541 270.332 407.246C269.338 408.95 268.84 410.915 268.84 413.141V444H253.713ZM337.157 445.065C331.641 445.065 326.87 443.893 322.846 441.55C318.845 439.182 315.755 435.892 313.577 431.678C311.399 427.44 310.31 422.527 310.31 416.94C310.31 411.306 311.399 406.382 313.577 402.168C315.755 397.93 318.845 394.639 322.846 392.295C326.87 389.928 331.641 388.744 337.157 388.744C342.673 388.744 347.431 389.928 351.432 392.295C355.457 394.639 358.558 397.93 360.736 402.168C362.914 406.382 364.003 411.306 364.003 416.94C364.003 422.527 362.914 427.44 360.736 431.678C358.558 435.892 355.457 439.182 351.432 441.55C347.431 443.893 342.673 445.065 337.157 445.065ZM337.228 433.347C339.737 433.347 341.832 432.636 343.513 431.216C345.194 429.772 346.461 427.807 347.313 425.321C348.189 422.835 348.627 420.006 348.627 416.834C348.627 413.661 348.189 410.832 347.313 408.347C346.461 405.861 345.194 403.896 343.513 402.452C341.832 401.008 339.737 400.286 337.228 400.286C334.695 400.286 332.564 401.008 330.836 402.452C329.131 403.896 327.841 405.861 326.965 408.347C326.113 410.832 325.687 413.661 325.687 416.834C325.687 420.006 326.113 422.835 326.965 425.321C327.841 427.807 329.131 429.772 330.836 431.216C332.564 432.636 334.695 433.347 337.228 433.347ZM371.208 464.455V389.455H386.123V398.616H386.798C387.461 397.149 388.42 395.657 389.674 394.142C390.953 392.603 392.61 391.325 394.646 390.307C396.706 389.265 399.262 388.744 402.316 388.744C406.294 388.744 409.963 389.786 413.325 391.869C416.687 393.929 419.374 397.042 421.386 401.209C423.398 405.352 424.404 410.548 424.404 416.798C424.404 422.883 423.422 428.02 421.457 432.21C419.516 436.377 416.864 439.537 413.502 441.692C410.164 443.822 406.424 444.888 402.281 444.888C399.345 444.888 396.848 444.402 394.788 443.432C392.752 442.461 391.083 441.242 389.781 439.774C388.479 438.283 387.484 436.779 386.798 435.264H386.336V464.455H371.208ZM386.017 416.727C386.017 419.971 386.466 422.8 387.366 425.214C388.266 427.629 389.568 429.511 391.272 430.861C392.977 432.187 395.048 432.849 397.487 432.849C399.949 432.849 402.032 432.175 403.737 430.825C405.441 429.452 406.732 427.558 407.608 425.143C408.507 422.705 408.957 419.9 408.957 416.727C408.957 413.579 408.519 410.809 407.643 408.418C406.767 406.027 405.477 404.156 403.772 402.807C402.068 401.457 399.973 400.783 397.487 400.783C395.025 400.783 392.941 401.434 391.237 402.736C389.556 404.038 388.266 405.884 387.366 408.276C386.466 410.667 386.017 413.484 386.017 416.727ZM460.871 389.455V400.818H428.023V389.455H460.871ZM435.48 376.386H450.608V427.239C450.608 428.635 450.821 429.724 451.247 430.506C451.673 431.263 452.265 431.796 453.023 432.104C453.804 432.411 454.704 432.565 455.722 432.565C456.432 432.565 457.142 432.506 457.852 432.388C458.563 432.246 459.107 432.139 459.486 432.068L461.865 443.325C461.108 443.562 460.042 443.834 458.669 444.142C457.296 444.473 455.627 444.675 453.662 444.746C450.016 444.888 446.82 444.402 444.074 443.29C441.351 442.177 439.233 440.449 437.717 438.105C436.202 435.761 435.457 432.802 435.48 429.227V376.386ZM468.094 444V389.455H483.222V444H468.094ZM475.693 382.423C473.444 382.423 471.515 381.678 469.905 380.186C468.319 378.671 467.525 376.86 467.525 374.753C467.525 372.67 468.319 370.882 469.905 369.391C471.515 367.875 473.444 367.118 475.693 367.118C477.942 367.118 479.86 367.875 481.446 369.391C483.056 370.882 483.861 372.67 483.861 374.753C483.861 376.86 483.056 378.671 481.446 380.186C479.86 381.678 477.942 382.423 475.693 382.423ZM517.353 445.065C511.837 445.065 507.067 443.893 503.042 441.55C499.041 439.182 495.952 435.892 493.774 431.678C491.596 427.44 490.506 422.527 490.506 416.94C490.506 411.306 491.596 406.382 493.774 402.168C495.952 397.93 499.041 394.639 503.042 392.295C507.067 389.928 511.837 388.744 517.353 388.744C522.869 388.744 527.628 389.928 531.629 392.295C535.653 394.639 538.755 397.93 540.933 402.168C543.111 406.382 544.2 411.306 544.2 416.94C544.2 422.527 543.111 427.44 540.933 431.678C538.755 435.892 535.653 439.182 531.629 441.55C527.628 443.893 522.869 445.065 517.353 445.065ZM517.424 433.347C519.934 433.347 522.029 432.636 523.71 431.216C525.39 429.772 526.657 427.807 527.509 425.321C528.385 422.835 528.823 420.006 528.823 416.834C528.823 413.661 528.385 410.832 527.509 408.347C526.657 405.861 525.39 403.896 523.71 402.452C522.029 401.008 519.934 400.286 517.424 400.286C514.891 400.286 512.76 401.008 511.032 402.452C509.328 403.896 508.037 405.861 507.161 408.347C506.309 410.832 505.883 413.661 505.883 416.834C505.883 420.006 506.309 422.835 507.161 425.321C508.037 427.807 509.328 429.772 511.032 431.216C512.76 432.636 514.891 433.347 517.424 433.347ZM566.533 412.466V444H551.405V389.455H565.822V399.078H566.462C567.669 395.906 569.693 393.396 572.534 391.55C575.375 389.679 578.82 388.744 582.868 388.744C586.656 388.744 589.958 389.573 592.775 391.23C595.593 392.887 597.783 395.255 599.345 398.332C600.908 401.386 601.689 405.032 601.689 409.27V444H586.561V411.969C586.585 408.631 585.732 406.027 584.004 404.156C582.276 402.262 579.897 401.315 576.866 401.315C574.83 401.315 573.031 401.753 571.469 402.629C569.93 403.505 568.722 404.784 567.846 406.464C566.994 408.122 566.556 410.122 566.533 412.466ZM656.364 405.009L642.514 405.861C642.278 404.677 641.769 403.612 640.987 402.665C640.206 401.694 639.176 400.925 637.898 400.357C636.643 399.765 635.14 399.469 633.388 399.469C631.044 399.469 629.067 399.966 627.457 400.96C625.848 401.931 625.043 403.233 625.043 404.866C625.043 406.169 625.564 407.269 626.605 408.169C627.647 409.069 629.434 409.791 631.967 410.335L641.84 412.324C647.143 413.413 651.096 415.165 653.7 417.58C656.305 419.994 657.607 423.167 657.607 427.097C657.607 430.671 656.553 433.808 654.446 436.507C652.363 439.206 649.498 441.313 645.852 442.828C642.23 444.32 638.052 445.065 633.317 445.065C626.096 445.065 620.343 443.562 616.058 440.555C611.797 437.525 609.299 433.406 608.565 428.197L623.445 427.416C623.894 429.618 624.983 431.299 626.712 432.459C628.44 433.595 630.653 434.163 633.352 434.163C636.004 434.163 638.135 433.654 639.744 432.636C641.378 431.595 642.206 430.257 642.23 428.624C642.206 427.25 641.626 426.126 640.49 425.25C639.354 424.35 637.602 423.664 635.234 423.19L625.788 421.308C620.462 420.243 616.496 418.396 613.892 415.768C611.312 413.141 610.021 409.791 610.021 405.719C610.021 402.215 610.968 399.196 612.862 396.663C614.78 394.13 617.467 392.177 620.923 390.804C624.403 389.431 628.475 388.744 633.139 388.744C640.028 388.744 645.45 390.2 649.403 393.112C653.381 396.024 655.701 399.99 656.364 405.009Z" fill="black"/>
<rect x="71" y="498" width="1038" height="19" fill="black"/>
</svg>
