<svg width="1200" height="900" viewBox="0 0 1200 900" fill="none" xmlns="http://www.w3.org/2000/svg">
<rect width="1200" height="900" fill="white"/>
<rect x="71" y="159" width="1038" height="8" fill="black"/>
<path d="M115.248 309.2H128.526V349.983C128.526 354.562 127.432 358.569 125.245 362.004C123.078 365.438 120.042 368.116 116.138 370.037C112.233 371.939 107.684 372.889 102.492 372.889C97.2791 372.889 92.7204 371.939 88.8158 370.037C84.9113 368.116 81.8755 365.438 79.7086 362.004C77.5417 358.569 76.4582 354.562 76.4582 349.983V309.2H89.7357V348.849C89.7357 351.24 90.257 353.366 91.2996 355.227C92.3626 357.087 93.8549 358.549 95.7766 359.612C97.6982 360.675 99.9367 361.206 102.492 361.206C105.068 361.206 107.306 360.675 109.207 359.612C111.129 358.549 112.611 357.087 113.654 355.227C114.717 353.366 115.248 351.24 115.248 348.849V309.2ZM175.643 338.331L163.684 339.067C163.48 338.045 163.04 337.125 162.366 336.307C161.691 335.469 160.802 334.804 159.698 334.314C158.614 333.803 157.316 333.547 155.804 333.547C153.78 333.547 152.073 333.977 150.683 334.835C149.293 335.673 148.598 336.798 148.598 338.208C148.598 339.333 149.047 340.283 149.947 341.06C150.846 341.837 152.39 342.46 154.577 342.93L163.102 344.648C167.681 345.588 171.095 347.101 173.343 349.186C175.592 351.271 176.716 354.01 176.716 357.404C176.716 360.491 175.807 363.199 173.987 365.53C172.188 367.86 169.715 369.68 166.567 370.988C163.439 372.276 159.831 372.92 155.742 372.92C149.507 372.92 144.54 371.622 140.84 369.026C137.16 366.409 135.003 362.852 134.369 358.354L147.218 357.68C147.606 359.581 148.546 361.032 150.039 362.034C151.531 363.015 153.442 363.506 155.773 363.506C158.062 363.506 159.902 363.067 161.292 362.187C162.703 361.288 163.418 360.133 163.439 358.722C163.418 357.537 162.918 356.566 161.936 355.809C160.955 355.033 159.442 354.44 157.398 354.031L149.241 352.406C144.642 351.486 141.218 349.891 138.969 347.622C136.741 345.353 135.627 342.46 135.627 338.944C135.627 335.919 136.444 333.312 138.08 331.125C139.736 328.937 142.056 327.251 145.04 326.065C148.046 324.88 151.562 324.287 155.589 324.287C161.538 324.287 166.219 325.544 169.633 328.058C173.067 330.573 175.071 333.997 175.643 338.331ZM203.657 372.92C198.812 372.92 194.642 371.939 191.146 369.976C187.671 367.993 184.993 365.193 183.112 361.574C181.231 357.935 180.291 353.632 180.291 348.665C180.291 343.82 181.231 339.568 183.112 335.908C184.993 332.249 187.64 329.397 191.054 327.353C194.488 325.309 198.516 324.287 203.136 324.287C206.243 324.287 209.136 324.788 211.814 325.789C214.512 326.771 216.863 328.253 218.866 330.236C220.89 332.218 222.464 334.713 223.589 337.718C224.713 340.702 225.275 344.198 225.275 348.205V351.792H185.504V343.697H212.979C212.979 341.816 212.57 340.15 211.752 338.699C210.935 337.247 209.8 336.113 208.349 335.295C206.918 334.457 205.251 334.038 203.35 334.038C201.367 334.038 199.609 334.498 198.076 335.418C196.563 336.317 195.378 337.534 194.519 339.067C193.66 340.58 193.221 342.266 193.2 344.126V351.823C193.2 354.154 193.63 356.167 194.488 357.864C195.367 359.561 196.604 360.869 198.199 361.789C199.793 362.709 201.684 363.169 203.872 363.169C205.323 363.169 206.652 362.964 207.858 362.555C209.064 362.147 210.096 361.533 210.955 360.716C211.814 359.898 212.468 358.896 212.917 357.711L224.999 358.508C224.386 361.411 223.129 363.946 221.227 366.112C219.347 368.259 216.914 369.935 213.929 371.141C210.965 372.327 207.541 372.92 203.657 372.92ZM231.05 372V324.9H243.714V333.118H244.205C245.063 330.195 246.504 327.987 248.528 326.495C250.552 324.982 252.883 324.225 255.52 324.225C256.174 324.225 256.879 324.266 257.635 324.348C258.392 324.43 259.056 324.542 259.629 324.685V336.276C259.015 336.092 258.167 335.929 257.083 335.786C256 335.643 255.009 335.571 254.109 335.571C252.187 335.571 250.47 335.99 248.958 336.828C247.465 337.646 246.28 338.791 245.4 340.263C244.542 341.735 244.113 343.431 244.113 345.353V372H231.05ZM293.931 344.77V372H280.868V324.9H293.317V333.21H293.869C294.912 330.471 296.66 328.304 299.113 326.709C301.566 325.094 304.54 324.287 308.036 324.287C311.307 324.287 314.159 325.002 316.591 326.433C319.024 327.864 320.915 329.908 322.264 332.566C323.613 335.203 324.288 338.351 324.288 342.011V372H311.225V344.341C311.246 341.459 310.51 339.21 309.017 337.595C307.525 335.96 305.47 335.142 302.854 335.142C301.096 335.142 299.542 335.52 298.193 336.276C296.864 337.033 295.822 338.137 295.065 339.588C294.329 341.019 293.951 342.746 293.931 344.77ZM345.264 372.889C342.259 372.889 339.581 372.368 337.23 371.325C334.879 370.262 333.019 368.699 331.649 366.634C330.3 364.549 329.626 361.952 329.626 358.845C329.626 356.228 330.106 354.031 331.067 352.252C332.028 350.474 333.336 349.043 334.992 347.959C336.648 346.876 338.528 346.058 340.634 345.506C342.76 344.954 344.988 344.566 347.319 344.341C350.058 344.055 352.266 343.789 353.942 343.544C355.619 343.278 356.835 342.89 357.591 342.379C358.348 341.867 358.726 341.111 358.726 340.109V339.925C358.726 337.983 358.113 336.481 356.886 335.418C355.68 334.355 353.963 333.823 351.734 333.823C349.383 333.823 347.513 334.345 346.123 335.387C344.733 336.409 343.813 337.697 343.363 339.251L331.281 338.27C331.895 335.408 333.101 332.934 334.9 330.849C336.699 328.743 339.019 327.128 341.861 326.004C344.723 324.859 348.034 324.287 351.796 324.287C354.412 324.287 356.917 324.593 359.308 325.207C361.721 325.82 363.857 326.771 365.717 328.058C367.598 329.346 369.08 331.002 370.164 333.026C371.247 335.029 371.789 337.431 371.789 340.232V372H359.4V365.469H359.032C358.276 366.94 357.264 368.239 355.997 369.363C354.729 370.467 353.206 371.336 351.428 371.969C349.649 372.583 347.595 372.889 345.264 372.889ZM349.005 363.874C350.927 363.874 352.624 363.496 354.096 362.739C355.567 361.963 356.722 360.92 357.561 359.612C358.399 358.303 358.818 356.821 358.818 355.165V350.167C358.409 350.433 357.847 350.678 357.131 350.903C356.436 351.108 355.649 351.302 354.77 351.486C353.891 351.649 353.012 351.803 352.133 351.946C351.254 352.068 350.457 352.181 349.741 352.283C348.208 352.508 346.869 352.866 345.724 353.356C344.579 353.847 343.69 354.511 343.056 355.349C342.423 356.167 342.106 357.189 342.106 358.416C342.106 360.194 342.75 361.554 344.038 362.494C345.346 363.414 347.002 363.874 349.005 363.874ZM379.173 372V324.9H391.623V333.21H392.175C393.156 330.45 394.791 328.273 397.081 326.679C399.371 325.084 402.11 324.287 405.299 324.287C408.529 324.287 411.278 325.094 413.548 326.709C415.817 328.304 417.33 330.471 418.086 333.21H418.577C419.537 330.512 421.275 328.355 423.789 326.74C426.324 325.104 429.319 324.287 432.774 324.287C437.169 324.287 440.736 325.687 443.476 328.488C446.235 331.268 447.615 335.213 447.615 340.324V372H434.583V342.9C434.583 340.283 433.888 338.321 432.498 337.012C431.108 335.704 429.37 335.05 427.285 335.05C424.914 335.05 423.064 335.806 421.735 337.319C420.406 338.811 419.742 340.784 419.742 343.237V372H407.077V342.624C407.077 340.314 406.413 338.474 405.084 337.104C403.776 335.735 402.049 335.05 399.902 335.05C398.451 335.05 397.142 335.418 395.977 336.154C394.832 336.869 393.923 337.881 393.248 339.189C392.573 340.477 392.236 341.99 392.236 343.728V372H379.173ZM476.649 372.92C471.804 372.92 467.633 371.939 464.138 369.976C460.662 367.993 457.984 365.193 456.104 361.574C454.223 357.935 453.283 353.632 453.283 348.665C453.283 343.82 454.223 339.568 456.104 335.908C457.984 332.249 460.632 329.397 464.046 327.353C467.48 325.309 471.507 324.287 476.127 324.287C479.235 324.287 482.127 324.788 484.805 325.789C487.504 326.771 489.855 328.253 491.858 330.236C493.882 332.218 495.456 334.713 496.58 337.718C497.705 340.702 498.267 344.198 498.267 348.205V351.792H458.496V343.697H485.971C485.971 341.816 485.562 340.15 484.744 338.699C483.926 337.247 482.792 336.113 481.34 335.295C479.909 334.457 478.243 334.038 476.342 334.038C474.359 334.038 472.601 334.498 471.068 335.418C469.555 336.317 468.369 337.534 467.511 339.067C466.652 340.58 466.213 342.266 466.192 344.126V351.823C466.192 354.154 466.622 356.167 467.48 357.864C468.359 359.561 469.596 360.869 471.19 361.789C472.785 362.709 474.676 363.169 476.863 363.169C478.315 363.169 479.644 362.964 480.85 362.555C482.056 362.147 483.088 361.533 483.947 360.716C484.805 359.898 485.459 358.896 485.909 357.711L497.991 358.508C497.378 361.411 496.12 363.946 494.219 366.112C492.338 368.259 489.906 369.935 486.921 371.141C483.957 372.327 480.533 372.92 476.649 372.92ZM543.23 338.331L531.271 339.067C531.067 338.045 530.627 337.125 529.953 336.307C529.278 335.469 528.389 334.804 527.285 334.314C526.201 333.803 524.903 333.547 523.39 333.547C521.367 333.547 519.66 333.977 518.27 334.835C516.879 335.673 516.184 336.798 516.184 338.208C516.184 339.333 516.634 340.283 517.534 341.06C518.433 341.837 519.977 342.46 522.164 342.93L530.689 344.648C535.268 345.588 538.682 347.101 540.93 349.186C543.179 351.271 544.303 354.01 544.303 357.404C544.303 360.491 543.394 363.199 541.574 365.53C539.775 367.86 537.302 369.68 534.154 370.988C531.026 372.276 527.418 372.92 523.329 372.92C517.094 372.92 512.127 371.622 508.426 369.026C504.747 366.409 502.59 362.852 501.956 358.354L514.805 357.68C515.193 359.581 516.133 361.032 517.626 362.034C519.118 363.015 521.029 363.506 523.36 363.506C525.649 363.506 527.489 363.067 528.879 362.187C530.29 361.288 531.005 360.133 531.026 358.722C531.005 357.537 530.505 356.566 529.523 355.809C528.542 355.033 527.029 354.44 524.985 354.031L516.828 352.406C512.229 351.486 508.805 349.891 506.556 347.622C504.328 345.353 503.214 342.46 503.214 338.944C503.214 335.919 504.031 333.312 505.667 331.125C507.322 328.937 509.643 327.251 512.627 326.065C515.632 324.88 519.149 324.287 523.176 324.287C529.125 324.287 533.806 325.544 537.22 328.058C540.654 330.573 542.658 333.997 543.23 338.331ZM549.779 389.663V324.9H562.658V332.811H563.241C563.813 331.544 564.641 330.256 565.724 328.948C566.828 327.619 568.259 326.515 570.017 325.636C571.796 324.736 574.004 324.287 576.641 324.287C580.075 324.287 583.244 325.186 586.147 326.985C589.049 328.764 591.37 331.452 593.107 335.05C594.845 338.627 595.714 343.114 595.714 348.511C595.714 353.765 594.865 358.201 593.169 361.82C591.492 365.417 589.203 368.147 586.3 370.007C583.417 371.847 580.188 372.767 576.61 372.767C574.075 372.767 571.918 372.348 570.14 371.509C568.382 370.671 566.941 369.618 565.816 368.351C564.692 367.063 563.833 365.765 563.241 364.457H562.842V389.663H549.779ZM562.566 348.45C562.566 351.251 562.954 353.694 563.731 355.779C564.508 357.864 565.632 359.489 567.104 360.654C568.576 361.799 570.365 362.371 572.47 362.371C574.596 362.371 576.395 361.789 577.867 360.624C579.339 359.438 580.453 357.803 581.21 355.717C581.986 353.612 582.375 351.189 582.375 348.45C582.375 345.731 581.997 343.339 581.24 341.275C580.484 339.21 579.37 337.595 577.898 336.43C576.426 335.264 574.617 334.682 572.47 334.682C570.344 334.682 568.545 335.244 567.074 336.368C565.622 337.493 564.508 339.087 563.731 341.152C562.954 343.217 562.566 345.649 562.566 348.45ZM615.103 372.889C612.098 372.889 609.42 372.368 607.069 371.325C604.718 370.262 602.858 368.699 601.488 366.634C600.139 364.549 599.465 361.952 599.465 358.845C599.465 356.228 599.945 354.031 600.906 352.252C601.867 350.474 603.175 349.043 604.831 347.959C606.487 346.876 608.367 346.058 610.473 345.506C612.599 344.954 614.827 344.566 617.158 344.341C619.897 344.055 622.105 343.789 623.781 343.544C625.457 343.278 626.674 342.89 627.43 342.379C628.187 341.867 628.565 341.111 628.565 340.109V339.925C628.565 337.983 627.951 336.481 626.725 335.418C625.519 334.355 623.802 333.823 621.573 333.823C619.222 333.823 617.352 334.345 615.962 335.387C614.572 336.409 613.652 337.697 613.202 339.251L601.12 338.27C601.734 335.408 602.94 332.934 604.739 330.849C606.538 328.743 608.858 327.128 611.7 326.004C614.561 324.859 617.873 324.287 621.635 324.287C624.251 324.287 626.756 324.593 629.147 325.207C631.56 325.82 633.696 326.771 635.556 328.058C637.437 329.346 638.919 331.002 640.002 333.026C641.086 335.029 641.628 337.431 641.628 340.232V372H629.239V365.469H628.871C628.115 366.94 627.103 368.239 625.836 369.363C624.568 370.467 623.045 371.336 621.267 371.969C619.488 372.583 617.434 372.889 615.103 372.889ZM618.844 363.874C620.766 363.874 622.463 363.496 623.934 362.739C625.406 361.963 626.561 360.92 627.4 359.612C628.238 358.303 628.657 356.821 628.657 355.165V350.167C628.248 350.433 627.686 350.678 626.97 350.903C626.275 351.108 625.488 351.302 624.609 351.486C623.73 351.649 622.851 351.803 621.972 351.946C621.093 352.068 620.296 352.181 619.58 352.283C618.047 352.508 616.708 352.866 615.563 353.356C614.418 353.847 613.529 354.511 612.895 355.349C612.262 356.167 611.945 357.189 611.945 358.416C611.945 360.194 612.589 361.554 613.877 362.494C615.185 363.414 616.841 363.874 618.844 363.874ZM670.293 372.92C665.468 372.92 661.319 371.898 657.843 369.854C654.389 367.789 651.731 364.927 649.871 361.268C648.031 357.608 647.111 353.397 647.111 348.634C647.111 343.81 648.041 339.578 649.901 335.939C651.782 332.28 654.45 329.428 657.905 327.384C661.359 325.319 665.468 324.287 670.232 324.287C674.341 324.287 677.939 325.033 681.025 326.525C684.112 328.018 686.555 330.113 688.354 332.811C690.153 335.51 691.145 338.678 691.328 342.317H679.002C678.654 339.966 677.734 338.075 676.242 336.644C674.77 335.193 672.838 334.467 670.446 334.467C668.422 334.467 666.654 335.019 665.141 336.123C663.649 337.207 662.484 338.791 661.646 340.876C660.808 342.961 660.388 345.486 660.388 348.45C660.388 351.455 660.797 354.01 661.615 356.116C662.453 358.222 663.629 359.826 665.141 360.93C666.654 362.034 668.422 362.586 670.446 362.586C671.939 362.586 673.278 362.279 674.463 361.666C675.669 361.053 676.661 360.164 677.438 358.998C678.235 357.813 678.756 356.392 679.002 354.736H691.328C691.124 358.334 690.143 361.503 688.385 364.242C686.647 366.961 684.245 369.087 681.179 370.62C678.112 372.153 674.484 372.92 670.293 372.92ZM718.407 372.92C713.562 372.92 709.392 371.939 705.896 369.976C702.421 367.993 699.743 365.193 697.862 361.574C695.981 357.935 695.041 353.632 695.041 348.665C695.041 343.82 695.981 339.568 697.862 335.908C699.743 332.249 702.39 329.397 705.804 327.353C709.238 325.309 713.266 324.287 717.886 324.287C720.993 324.287 723.886 324.788 726.564 325.789C729.262 326.771 731.613 328.253 733.616 330.236C735.64 332.218 737.214 334.713 738.339 337.718C739.463 340.702 740.025 344.198 740.025 348.205V351.792H700.254V343.697H727.729C727.729 341.816 727.32 340.15 726.502 338.699C725.685 337.247 724.55 336.113 723.099 335.295C721.668 334.457 720.002 334.038 718.1 334.038C716.117 334.038 714.359 334.498 712.826 335.418C711.313 336.317 710.128 337.534 709.269 339.067C708.41 340.58 707.971 342.266 707.951 344.126V351.823C707.951 354.154 708.38 356.167 709.238 357.864C710.117 359.561 711.354 360.869 712.949 361.789C714.543 362.709 716.434 363.169 718.622 363.169C720.073 363.169 721.402 362.964 722.608 362.555C723.814 362.147 724.846 361.533 725.705 360.716C726.564 359.898 727.218 358.896 727.668 357.711L739.749 358.508C739.136 361.411 737.879 363.946 735.977 366.112C734.097 368.259 731.664 369.935 728.679 371.141C725.715 372.327 722.291 372.92 718.407 372.92ZM784.988 338.331L773.029 339.067C772.825 338.045 772.385 337.125 771.711 336.307C771.036 335.469 770.147 334.804 769.043 334.314C767.96 333.803 766.662 333.547 765.149 333.547C763.125 333.547 761.418 333.977 760.028 334.835C758.638 335.673 757.943 336.798 757.943 338.208C757.943 339.333 758.392 340.283 759.292 341.06C760.191 341.837 761.735 342.46 763.922 342.93L772.447 344.648C777.026 345.588 780.44 347.101 782.689 349.186C784.937 351.271 786.062 354.01 786.062 357.404C786.062 360.491 785.152 363.199 783.333 365.53C781.534 367.86 779.06 369.68 775.912 370.988C772.784 372.276 769.176 372.92 765.087 372.92C758.852 372.92 753.885 371.622 750.185 369.026C746.505 366.409 744.348 362.852 743.715 358.354L756.563 357.68C756.951 359.581 757.892 361.032 759.384 362.034C760.876 363.015 762.788 363.506 765.118 363.506C767.408 363.506 769.248 363.067 770.638 362.187C772.048 361.288 772.764 360.133 772.784 358.722C772.764 357.537 772.263 356.566 771.282 355.809C770.3 355.033 768.788 354.44 766.743 354.031L758.587 352.406C753.987 351.486 750.563 349.891 748.314 347.622C746.086 345.353 744.972 342.46 744.972 338.944C744.972 335.919 745.79 333.312 747.425 331.125C749.081 328.937 751.401 327.251 754.386 326.065C757.391 324.88 760.907 324.287 764.934 324.287C770.883 324.287 775.564 325.544 778.978 328.058C782.413 330.573 784.416 333.997 784.988 338.331Z" fill="#D2D2D2"/>
<path d="M113.73 491.634C113.465 488.96 112.327 486.883 110.316 485.402C108.305 483.921 105.575 483.181 102.128 483.181C99.7851 483.181 97.8072 483.513 96.1939 484.176C94.5806 484.817 93.343 485.712 92.4811 486.861C91.6413 488.01 91.2214 489.314 91.2214 490.772C91.1772 491.988 91.4314 493.049 91.9839 493.955C92.5585 494.861 93.343 495.645 94.3375 496.308C95.332 496.949 96.4812 497.513 97.7851 497.999C99.089 498.463 100.481 498.861 101.962 499.193L108.062 500.651C111.023 501.314 113.741 502.198 116.216 503.303C118.692 504.408 120.835 505.767 122.647 507.381C124.46 508.994 125.863 510.894 126.858 513.082C127.874 515.27 128.393 517.779 128.416 520.607C128.393 524.762 127.333 528.364 125.233 531.414C123.156 534.442 120.15 536.796 116.216 538.475C112.305 540.133 107.586 540.961 102.061 540.961C96.5806 540.961 91.8071 540.122 87.7407 538.442C83.6964 536.762 80.5361 534.276 78.2598 530.983C76.0056 527.668 74.8233 523.569 74.7128 518.685H88.6026C88.7573 520.961 89.4092 522.862 90.5584 524.386C91.7297 525.889 93.2878 527.027 95.2325 527.801C97.1994 528.552 99.4205 528.928 101.896 528.928C104.327 528.928 106.437 528.574 108.227 527.867C110.039 527.16 111.443 526.177 112.437 524.917C113.432 523.657 113.929 522.21 113.929 520.574C113.929 519.049 113.476 517.767 112.57 516.729C111.686 515.69 110.382 514.806 108.658 514.077C106.957 513.348 104.868 512.685 102.393 512.088L95.0005 510.231C89.2766 508.839 84.7572 506.662 81.4422 503.701C78.1272 500.74 76.4808 496.75 76.5029 491.734C76.4808 487.623 77.5747 484.032 79.7847 480.96C82.0168 477.888 85.0776 475.49 88.9672 473.767C92.8568 472.043 97.2768 471.181 102.227 471.181C107.266 471.181 111.664 472.043 115.421 473.767C119.2 475.49 122.139 477.888 124.239 480.96C126.338 484.032 127.421 487.59 127.487 491.634H113.73ZM149.352 540.961C146.103 540.961 143.208 540.398 140.667 539.271C138.125 538.122 136.114 536.431 134.633 534.199C133.175 531.945 132.446 529.138 132.446 525.779C132.446 522.95 132.965 520.574 134.004 518.651C135.042 516.729 136.457 515.182 138.247 514.011C140.037 512.839 142.07 511.955 144.346 511.359C146.645 510.762 149.054 510.342 151.573 510.099C154.534 509.789 156.921 509.502 158.733 509.237C160.546 508.95 161.861 508.53 162.678 507.977C163.496 507.425 163.905 506.607 163.905 505.524V505.325C163.905 503.226 163.242 501.601 161.916 500.452C160.612 499.303 158.755 498.728 156.347 498.728C153.805 498.728 151.783 499.292 150.28 500.419C148.777 501.524 147.783 502.916 147.297 504.596L134.236 503.535C134.899 500.441 136.203 497.767 138.147 495.513C140.092 493.237 142.6 491.491 145.672 490.275C148.766 489.038 152.346 488.419 156.413 488.419C159.242 488.419 161.949 488.75 164.535 489.413C167.142 490.076 169.452 491.104 171.463 492.496C173.496 493.889 175.098 495.679 176.27 497.867C177.441 500.032 178.027 502.629 178.027 505.657V540H164.634V532.939H164.236C163.419 534.53 162.325 535.934 160.954 537.149C159.584 538.343 157.938 539.282 156.015 539.967C154.092 540.63 151.871 540.961 149.352 540.961ZM153.396 531.215C155.474 531.215 157.308 530.806 158.899 529.989C160.49 529.149 161.739 528.022 162.645 526.607C163.551 525.193 164.004 523.591 164.004 521.801V516.397C163.562 516.685 162.954 516.95 162.181 517.193C161.43 517.414 160.579 517.624 159.628 517.823C158.678 518 157.728 518.165 156.778 518.32C155.827 518.453 154.965 518.574 154.192 518.685C152.534 518.928 151.087 519.314 149.849 519.845C148.612 520.375 147.65 521.094 146.965 522C146.28 522.884 145.938 523.989 145.938 525.315C145.938 527.237 146.634 528.707 148.026 529.724C149.44 530.718 151.23 531.215 153.396 531.215ZM200.132 510.563V540H186.01V489.082H199.469V498.065H200.065C201.192 495.104 203.082 492.761 205.734 491.038C208.386 489.292 211.601 488.419 215.38 488.419C218.916 488.419 221.999 489.192 224.629 490.739C227.259 492.286 229.303 494.496 230.762 497.369C232.221 500.22 232.95 503.624 232.95 507.579V540H218.828V510.099C218.85 506.983 218.055 504.552 216.441 502.806C214.828 501.038 212.607 500.154 209.778 500.154C207.878 500.154 206.198 500.563 204.739 501.38C203.303 502.198 202.176 503.392 201.358 504.961C200.562 506.508 200.154 508.375 200.132 510.563ZM259.87 540.829C256.002 540.829 252.5 539.834 249.361 537.845C246.245 535.834 243.77 532.884 241.936 528.994C240.124 525.083 239.217 520.287 239.217 514.607C239.217 508.773 240.157 503.922 242.035 500.054C243.914 496.165 246.411 493.259 249.527 491.336C252.665 489.391 256.102 488.419 259.837 488.419C262.688 488.419 265.063 488.905 266.964 489.877C268.887 490.828 270.434 492.021 271.605 493.458C272.798 494.872 273.704 496.264 274.323 497.634H274.754V472.109H288.843V540H274.92V531.845H274.323C273.66 533.26 272.721 534.663 271.505 536.055C270.312 537.425 268.754 538.564 266.831 539.47C264.931 540.376 262.61 540.829 259.87 540.829ZM264.345 529.591C266.621 529.591 268.544 528.972 270.113 527.735C271.704 526.475 272.92 524.718 273.76 522.464C274.622 520.21 275.052 517.569 275.052 514.541C275.052 511.513 274.633 508.883 273.793 506.651C272.953 504.419 271.737 502.695 270.146 501.48C268.555 500.264 266.621 499.657 264.345 499.657C262.025 499.657 260.069 500.286 258.478 501.546C256.886 502.806 255.682 504.552 254.864 506.784C254.046 509.016 253.638 511.602 253.638 514.541C253.638 517.502 254.046 520.121 254.864 522.397C255.704 524.652 256.908 526.42 258.478 527.701C260.069 528.961 262.025 529.591 264.345 529.591ZM297.746 540V472.109H311.868V497.634H312.299C312.917 496.264 313.812 494.872 314.984 493.458C316.177 492.021 317.724 490.828 319.625 489.877C321.547 488.905 323.934 488.419 326.785 488.419C330.498 488.419 333.923 489.391 337.062 491.336C340.2 493.259 342.708 496.165 344.587 500.054C346.465 503.922 347.404 508.773 347.404 514.607C347.404 520.287 346.487 525.083 344.653 528.994C342.841 532.884 340.365 535.834 337.227 537.845C334.111 539.834 330.619 540.829 326.752 540.829C324.012 540.829 321.68 540.376 319.757 539.47C317.857 538.564 316.299 537.425 315.083 536.055C313.868 534.663 312.939 533.26 312.299 531.845H311.669V540H297.746ZM311.569 514.541C311.569 517.569 311.989 520.21 312.829 522.464C313.669 524.718 314.884 526.475 316.475 527.735C318.067 528.972 320 529.591 322.277 529.591C324.575 529.591 326.52 528.961 328.111 527.701C329.702 526.42 330.907 524.652 331.724 522.397C332.564 520.121 332.984 517.502 332.984 514.541C332.984 511.602 332.575 509.016 331.758 506.784C330.94 504.552 329.735 502.806 328.144 501.546C326.553 500.286 324.597 499.657 322.277 499.657C319.978 499.657 318.034 500.264 316.442 501.48C314.873 502.695 313.669 504.419 312.829 506.651C311.989 508.883 311.569 511.513 311.569 514.541ZM376.86 540.994C371.711 540.994 367.258 539.901 363.501 537.713C359.766 535.503 356.882 532.431 354.849 528.497C352.815 524.541 351.799 519.955 351.799 514.74C351.799 509.48 352.815 504.883 354.849 500.949C356.882 496.994 359.766 493.922 363.501 491.734C367.258 489.524 371.711 488.419 376.86 488.419C382.009 488.419 386.452 489.524 390.186 491.734C393.943 493.922 396.839 496.994 398.872 500.949C400.905 504.883 401.921 509.48 401.921 514.74C401.921 519.955 400.905 524.541 398.872 528.497C396.839 532.431 393.943 535.503 390.186 537.713C386.452 539.901 382.009 540.994 376.86 540.994ZM376.926 530.055C379.269 530.055 381.225 529.392 382.794 528.066C384.363 526.718 385.545 524.884 386.341 522.563C387.159 520.243 387.568 517.602 387.568 514.64C387.568 511.679 387.159 509.038 386.341 506.718C385.545 504.397 384.363 502.563 382.794 501.215C381.225 499.867 379.269 499.193 376.926 499.193C374.562 499.193 372.573 499.867 370.96 501.215C369.368 502.563 368.164 504.397 367.346 506.718C366.551 509.038 366.153 511.679 366.153 514.64C366.153 517.602 366.551 520.243 367.346 522.563C368.164 524.884 369.368 526.718 370.96 528.066C372.573 529.392 374.562 530.055 376.926 530.055ZM418.109 489.082L427.457 506.883L437.038 489.082H451.524L436.773 514.541L451.922 540H437.502L427.457 522.397L417.579 540H402.993L418.109 514.541L403.523 489.082H418.109ZM478.32 540.994C473.082 540.994 468.574 539.934 464.795 537.812C461.038 535.668 458.143 532.641 456.109 528.729C454.076 524.795 453.06 520.143 453.06 514.773C453.06 509.535 454.076 504.939 456.109 500.983C458.143 497.027 461.005 493.944 464.695 491.734C468.408 489.524 472.762 488.419 477.756 488.419C481.116 488.419 484.243 488.96 487.138 490.043C490.055 491.104 492.596 492.706 494.762 494.85C496.95 496.994 498.652 499.69 499.867 502.938C501.083 506.165 501.691 509.944 501.691 514.276V518.154H458.695V509.403H488.397C488.397 507.369 487.955 505.568 487.071 503.999C486.187 502.43 484.961 501.204 483.392 500.32C481.845 499.414 480.044 498.96 477.988 498.96C475.845 498.96 473.944 499.458 472.287 500.452C470.651 501.425 469.369 502.74 468.441 504.397C467.513 506.032 467.038 507.856 467.016 509.867V518.187C467.016 520.707 467.48 522.884 468.408 524.718C469.358 526.552 470.695 527.967 472.419 528.961C474.143 529.956 476.187 530.453 478.552 530.453C480.121 530.453 481.558 530.232 482.861 529.79C484.165 529.348 485.281 528.685 486.21 527.801C487.138 526.917 487.845 525.834 488.331 524.552L501.392 525.414C500.729 528.552 499.37 531.293 497.315 533.635C495.282 535.956 492.652 537.768 489.425 539.072C486.221 540.354 482.519 540.994 478.32 540.994ZM526.696 540.829C522.829 540.829 519.326 539.834 516.188 537.845C513.071 535.834 510.596 532.884 508.762 528.994C506.95 525.083 506.044 520.287 506.044 514.607C506.044 508.773 506.983 503.922 508.861 500.054C510.74 496.165 513.237 493.259 516.353 491.336C519.492 489.391 522.928 488.419 526.663 488.419C529.514 488.419 531.89 488.905 533.79 489.877C535.713 490.828 537.26 492.021 538.431 493.458C539.625 494.872 540.531 496.264 541.149 497.634H541.58V472.109H555.669V540H541.746V531.845H541.149C540.486 533.26 539.547 534.663 538.332 536.055C537.138 537.425 535.58 538.564 533.658 539.47C531.757 540.376 529.436 540.829 526.696 540.829ZM531.171 529.591C533.448 529.591 535.37 528.972 536.939 527.735C538.531 526.475 539.746 524.718 540.586 522.464C541.448 520.21 541.879 517.569 541.879 514.541C541.879 511.513 541.459 508.883 540.619 506.651C539.779 504.419 538.564 502.695 536.973 501.48C535.381 500.264 533.448 499.657 531.171 499.657C528.851 499.657 526.895 500.286 525.304 501.546C523.713 502.806 522.508 504.552 521.69 506.784C520.873 509.016 520.464 511.602 520.464 514.541C520.464 517.502 520.873 520.121 521.69 522.397C522.53 524.652 523.735 526.42 525.304 527.701C526.895 528.961 528.851 529.591 531.171 529.591ZM582.939 540V489.082H596.63V497.966H597.161C598.089 494.806 599.647 492.419 601.835 490.806C604.023 489.17 606.542 488.353 609.393 488.353C610.1 488.353 610.863 488.397 611.68 488.485C612.498 488.574 613.216 488.695 613.835 488.85V501.38C613.172 501.182 612.255 501.005 611.084 500.85C609.912 500.695 608.84 500.618 607.868 500.618C605.791 500.618 603.934 501.071 602.299 501.977C600.686 502.861 599.404 504.099 598.454 505.69C597.525 507.281 597.061 509.115 597.061 511.193V540H582.939ZM650.816 518.32V489.082H664.938V540H651.38V530.751H650.849C649.7 533.735 647.788 536.133 645.114 537.945C642.462 539.757 639.225 540.663 635.401 540.663C631.998 540.663 629.003 539.89 626.418 538.343C623.832 536.796 621.81 534.597 620.351 531.746C618.915 528.895 618.185 525.48 618.163 521.502V489.082H632.285V518.983C632.307 521.989 633.114 524.364 634.705 526.11C636.296 527.856 638.429 528.729 641.103 528.729C642.805 528.729 644.396 528.342 645.877 527.569C647.357 526.773 648.551 525.602 649.457 524.055C650.385 522.508 650.838 520.596 650.816 518.32ZM687.382 510.563V540H673.261V489.082H686.72V498.065H687.316C688.443 495.104 690.333 492.761 692.985 491.038C695.637 489.292 698.852 488.419 702.631 488.419C706.167 488.419 709.25 489.192 711.88 490.739C714.51 492.286 716.554 494.496 718.013 497.369C719.472 500.22 720.201 503.624 720.201 507.579V540H706.079V510.099C706.101 506.983 705.306 504.552 703.692 502.806C702.079 501.038 699.858 500.154 697.029 500.154C695.129 500.154 693.449 500.563 691.99 501.38C690.554 502.198 689.427 503.392 688.609 504.961C687.813 506.508 687.405 508.375 687.382 510.563ZM755.441 489.082V499.69H724.778V489.082H755.441ZM731.739 476.883H745.861V524.353C745.861 525.657 746.06 526.674 746.458 527.403C746.856 528.11 747.408 528.607 748.115 528.895C748.845 529.182 749.684 529.326 750.635 529.326C751.298 529.326 751.961 529.27 752.624 529.16C753.287 529.027 753.795 528.928 754.149 528.862L756.37 539.37C755.662 539.591 754.668 539.845 753.386 540.133C752.104 540.442 750.546 540.63 748.712 540.696C745.309 540.829 742.325 540.376 739.762 539.337C737.22 538.298 735.242 536.685 733.828 534.497C732.413 532.309 731.717 529.547 731.739 526.21V476.883ZM761.668 540V489.082H775.789V540H761.668ZM768.762 482.518C766.662 482.518 764.861 481.822 763.358 480.43C761.878 479.015 761.137 477.325 761.137 475.358C761.137 473.413 761.878 471.744 763.358 470.352C764.861 468.938 766.662 468.231 768.762 468.231C770.861 468.231 772.651 468.938 774.132 470.352C775.635 471.744 776.386 473.413 776.386 475.358C776.386 477.325 775.635 479.015 774.132 480.43C772.651 481.822 770.861 482.518 768.762 482.518ZM784.129 540V489.082H797.588V498.065H798.184C799.245 495.082 801.013 492.728 803.488 491.005C805.964 489.281 808.925 488.419 812.373 488.419C815.864 488.419 818.837 489.292 821.29 491.038C823.743 492.761 825.378 495.104 826.196 498.065H826.726C827.765 495.148 829.644 492.817 832.362 491.071C835.102 489.303 838.34 488.419 842.075 488.419C846.826 488.419 850.683 489.933 853.644 492.96C856.628 495.966 858.119 500.231 858.119 505.756V540H844.031V508.541C844.031 505.712 843.279 503.59 841.776 502.176C840.274 500.762 838.395 500.054 836.141 500.054C833.577 500.054 831.577 500.872 830.141 502.508C828.704 504.121 827.986 506.253 827.986 508.905V540H814.295V508.242C814.295 505.745 813.577 503.756 812.141 502.275C810.726 500.795 808.859 500.054 806.538 500.054C804.969 500.054 803.555 500.452 802.295 501.248C801.057 502.021 800.074 503.115 799.345 504.53C798.615 505.922 798.251 507.557 798.251 509.436V540H784.129ZM889.506 540.994C884.269 540.994 879.76 539.934 875.981 537.812C872.224 535.668 869.329 532.641 867.296 528.729C865.263 524.795 864.246 520.143 864.246 514.773C864.246 509.535 865.263 504.939 867.296 500.983C869.329 497.027 872.191 493.944 875.882 491.734C879.594 489.524 883.948 488.419 888.943 488.419C892.302 488.419 895.429 488.96 898.324 490.043C901.241 491.104 903.783 492.706 905.949 494.85C908.136 496.994 909.838 499.69 911.054 502.938C912.269 506.165 912.877 509.944 912.877 514.276V518.154H869.882V509.403H899.584C899.584 507.369 899.142 505.568 898.258 503.999C897.374 502.43 896.147 501.204 894.578 500.32C893.031 499.414 891.23 498.96 889.175 498.96C887.031 498.96 885.13 499.458 883.473 500.452C881.838 501.425 880.556 502.74 879.628 504.397C878.699 506.032 878.224 507.856 878.202 509.867V518.187C878.202 520.707 878.666 522.884 879.594 524.718C880.545 526.552 881.882 527.967 883.606 528.961C885.329 529.956 887.374 530.453 889.738 530.453C891.307 530.453 892.744 530.232 894.048 529.79C895.352 529.348 896.468 528.685 897.396 527.801C898.324 526.917 899.031 525.834 899.518 524.552L912.579 525.414C911.916 528.552 910.556 531.293 908.501 533.635C906.468 535.956 903.838 537.768 900.611 539.072C897.407 540.354 893.705 540.994 889.506 540.994ZM961.485 503.601L948.557 504.397C948.336 503.292 947.861 502.298 947.131 501.414C946.402 500.507 945.441 499.789 944.247 499.259C943.076 498.706 941.673 498.43 940.037 498.43C937.849 498.43 936.004 498.894 934.501 499.822C932.998 500.728 932.247 501.944 932.247 503.469C932.247 504.684 932.733 505.712 933.706 506.552C934.678 507.392 936.347 508.066 938.711 508.574L947.927 510.43C952.877 511.447 956.568 513.082 958.999 515.337C961.43 517.591 962.645 520.552 962.645 524.221C962.645 527.558 961.662 530.486 959.695 533.005C957.75 535.525 955.076 537.492 951.673 538.906C948.292 540.298 944.391 540.994 939.971 540.994C933.23 540.994 927.86 539.591 923.86 536.784C919.882 533.956 917.551 530.11 916.865 525.248L930.755 524.519C931.175 526.574 932.192 528.143 933.805 529.226C935.418 530.287 937.485 530.817 940.004 530.817C942.479 530.817 944.468 530.342 945.971 529.392C947.496 528.42 948.269 527.171 948.292 525.646C948.269 524.364 947.728 523.315 946.667 522.497C945.606 521.657 943.971 521.016 941.761 520.574L932.943 518.817C927.971 517.823 924.269 516.099 921.838 513.646C919.429 511.193 918.225 508.066 918.225 504.264C918.225 500.994 919.109 498.176 920.877 495.811C922.667 493.447 925.175 491.623 928.402 490.342C931.65 489.06 935.451 488.419 939.805 488.419C946.236 488.419 951.297 489.778 954.988 492.496C958.701 495.215 960.866 498.916 961.485 503.601Z" fill="black"/>
<path d="M82.0055 141L71.9128 105.727H80.0593L85.8979 130.236H86.1907L92.6321 105.727H99.6074L106.032 130.287H106.342L112.18 105.727H120.327L110.234 141H102.966L96.2489 117.938H95.9734L89.2736 141H82.0055ZM131.747 141.517C129.071 141.517 126.758 140.948 124.806 139.812C122.865 138.663 121.367 137.067 120.311 135.024C119.254 132.968 118.726 130.586 118.726 127.876C118.726 125.143 119.254 122.755 120.311 120.711C121.367 118.656 122.865 117.06 124.806 115.923C126.758 114.775 129.071 114.201 131.747 114.201C134.422 114.201 136.73 114.775 138.67 115.923C140.622 117.06 142.126 118.656 143.183 120.711C144.239 122.755 144.767 125.143 144.767 127.876C144.767 130.586 144.239 132.968 143.183 135.024C142.126 137.067 140.622 138.663 138.67 139.812C136.73 140.948 134.422 141.517 131.747 141.517ZM131.781 135.833C132.998 135.833 134.014 135.489 134.83 134.8C135.645 134.099 136.259 133.146 136.673 131.941C137.097 130.735 137.31 129.363 137.31 127.824C137.31 126.286 137.097 124.914 136.673 123.708C136.259 122.502 135.645 121.549 134.83 120.849C134.014 120.149 132.998 119.798 131.781 119.798C130.553 119.798 129.519 120.149 128.681 120.849C127.854 121.549 127.229 122.502 126.804 123.708C126.39 124.914 126.184 126.286 126.184 127.824C126.184 129.363 126.39 130.735 126.804 131.941C127.229 133.146 127.854 134.099 128.681 134.8C129.519 135.489 130.553 135.833 131.781 135.833ZM147.994 141V114.545H155.107V119.161H155.382C155.864 117.519 156.674 116.279 157.811 115.441C158.947 114.591 160.256 114.167 161.737 114.167C162.105 114.167 162.501 114.19 162.926 114.235C163.351 114.281 163.724 114.345 164.045 114.425V120.935C163.701 120.832 163.224 120.74 162.616 120.66C162.007 120.579 161.45 120.539 160.945 120.539C159.866 120.539 158.901 120.774 158.052 121.245C157.214 121.704 156.548 122.347 156.054 123.174C155.572 124.001 155.331 124.954 155.331 126.033V141H147.994ZM172.942 133.387L172.959 124.586H174.027L182.501 114.545H190.923L179.539 127.842H177.799L172.942 133.387ZM166.294 141V105.727H173.631V141H166.294ZM182.828 141L175.043 129.478L179.935 124.294L191.423 141H182.828ZM200.315 105.727V141H192.978V105.727H200.315ZM216.601 141.517C213.925 141.517 211.612 140.948 209.66 139.812C207.719 138.663 206.221 137.067 205.165 135.024C204.108 132.968 203.58 130.586 203.58 127.876C203.58 125.143 204.108 122.755 205.165 120.711C206.221 118.656 207.719 117.06 209.66 115.923C211.612 114.775 213.925 114.201 216.601 114.201C219.276 114.201 221.584 114.775 223.524 115.923C225.476 117.06 226.98 118.656 228.037 120.711C229.093 122.755 229.621 125.143 229.621 127.876C229.621 130.586 229.093 132.968 228.037 135.024C226.98 137.067 225.476 138.663 223.524 139.812C221.584 140.948 219.276 141.517 216.601 141.517ZM216.635 135.833C217.852 135.833 218.868 135.489 219.684 134.8C220.499 134.099 221.113 133.146 221.526 131.941C221.951 130.735 222.164 129.363 222.164 127.824C222.164 126.286 221.951 124.914 221.526 123.708C221.113 122.502 220.499 121.549 219.684 120.849C218.868 120.149 217.852 119.798 216.635 119.798C215.406 119.798 214.373 120.149 213.535 120.849C212.708 121.549 212.082 122.502 211.658 123.708C211.244 124.914 211.038 126.286 211.038 127.824C211.038 129.363 211.244 130.735 211.658 131.941C212.082 133.146 212.708 134.099 213.535 134.8C214.373 135.489 215.406 135.833 216.635 135.833ZM240.391 141.499C238.703 141.499 237.199 141.207 235.879 140.621C234.558 140.024 233.513 139.146 232.744 137.986C231.986 136.815 231.607 135.357 231.607 133.611C231.607 132.142 231.877 130.907 232.417 129.908C232.956 128.909 233.691 128.106 234.621 127.497C235.551 126.889 236.608 126.429 237.79 126.119C238.985 125.809 240.236 125.591 241.545 125.465C243.084 125.304 244.324 125.155 245.265 125.017C246.207 124.868 246.89 124.65 247.315 124.363C247.74 124.076 247.952 123.651 247.952 123.088V122.985C247.952 121.894 247.608 121.05 246.919 120.453C246.241 119.856 245.277 119.557 244.025 119.557C242.705 119.557 241.654 119.85 240.873 120.436C240.093 121.01 239.576 121.733 239.323 122.606L232.537 122.055C232.882 120.447 233.559 119.058 234.57 117.887C235.58 116.704 236.883 115.797 238.479 115.165C240.087 114.522 241.947 114.201 244.06 114.201C245.529 114.201 246.936 114.373 248.279 114.718C249.634 115.062 250.834 115.596 251.879 116.319C252.935 117.043 253.768 117.973 254.376 119.11C254.985 120.235 255.289 121.584 255.289 123.157V141H248.331V137.331H248.124C247.699 138.158 247.131 138.887 246.419 139.519C245.707 140.139 244.852 140.627 243.853 140.983C242.854 141.327 241.7 141.499 240.391 141.499ZM242.492 136.436C243.572 136.436 244.525 136.223 245.351 135.799C246.178 135.362 246.827 134.777 247.298 134.042C247.768 133.307 248.004 132.475 248.004 131.545V128.737C247.774 128.886 247.458 129.024 247.056 129.151C246.666 129.265 246.224 129.374 245.73 129.478C245.236 129.57 244.743 129.656 244.249 129.736C243.755 129.805 243.308 129.868 242.906 129.926C242.044 130.052 241.292 130.253 240.649 130.528C240.006 130.804 239.507 131.177 239.151 131.648C238.795 132.107 238.617 132.681 238.617 133.37C238.617 134.369 238.979 135.133 239.702 135.661C240.437 136.178 241.367 136.436 242.492 136.436ZM269.185 141.431C267.175 141.431 265.356 140.914 263.725 139.881C262.106 138.836 260.82 137.303 259.867 135.282C258.926 133.25 258.455 130.758 258.455 127.807C258.455 124.776 258.943 122.256 259.919 120.246C260.895 118.225 262.192 116.716 263.811 115.717C265.442 114.706 267.227 114.201 269.168 114.201C270.649 114.201 271.883 114.454 272.871 114.959C273.869 115.453 274.673 116.073 275.282 116.819C275.902 117.554 276.373 118.277 276.694 118.989H276.918V105.727H284.238V141H277.004V136.763H276.694C276.35 137.498 275.862 138.227 275.23 138.95C274.61 139.662 273.801 140.254 272.802 140.724C271.814 141.195 270.609 141.431 269.185 141.431ZM271.51 135.592C272.693 135.592 273.692 135.27 274.507 134.627C275.333 133.973 275.965 133.06 276.401 131.889C276.849 130.718 277.073 129.346 277.073 127.773C277.073 126.2 276.855 124.833 276.418 123.674C275.982 122.514 275.351 121.618 274.524 120.987C273.697 120.355 272.693 120.04 271.51 120.04C270.304 120.04 269.288 120.367 268.461 121.021C267.635 121.676 267.009 122.583 266.584 123.743C266.159 124.902 265.947 126.246 265.947 127.773C265.947 129.311 266.159 130.672 266.584 131.855C267.02 133.026 267.646 133.944 268.461 134.61C269.288 135.265 270.304 135.592 271.51 135.592ZM298.406 141V114.545H305.743V141H298.406ZM302.092 111.135C301.001 111.135 300.065 110.774 299.284 110.05C298.515 109.315 298.13 108.437 298.13 107.415C298.13 106.405 298.515 105.538 299.284 104.814C300.065 104.08 301.001 103.712 302.092 103.712C303.183 103.712 304.113 104.08 304.882 104.814C305.663 105.538 306.053 106.405 306.053 107.415C306.053 108.437 305.663 109.315 304.882 110.05C304.113 110.774 303.183 111.135 302.092 111.135ZM332.087 122.089L325.37 122.502C325.255 121.928 325.008 121.412 324.629 120.952C324.25 120.482 323.751 120.108 323.131 119.833C322.522 119.546 321.793 119.402 320.944 119.402C319.807 119.402 318.848 119.643 318.067 120.126C317.287 120.596 316.896 121.228 316.896 122.02C316.896 122.652 317.149 123.186 317.654 123.622C318.159 124.058 319.026 124.408 320.255 124.673L325.043 125.637C327.615 126.165 329.532 127.015 330.795 128.186C332.058 129.357 332.69 130.896 332.69 132.802C332.69 134.536 332.179 136.057 331.157 137.366C330.146 138.675 328.757 139.697 326.989 140.432C325.232 141.155 323.205 141.517 320.909 141.517C317.407 141.517 314.617 140.788 312.539 139.329C310.472 137.86 309.261 135.862 308.905 133.336L316.121 132.957C316.339 134.025 316.867 134.84 317.706 135.403C318.544 135.954 319.617 136.229 320.926 136.229C322.212 136.229 323.246 135.982 324.026 135.489C324.819 134.983 325.221 134.335 325.232 133.542C325.221 132.876 324.939 132.331 324.388 131.906C323.837 131.47 322.987 131.137 321.839 130.907L317.258 129.994C314.674 129.478 312.751 128.582 311.488 127.308C310.237 126.033 309.611 124.408 309.611 122.434C309.611 120.734 310.07 119.27 310.989 118.042C311.919 116.813 313.222 115.866 314.898 115.2C316.586 114.534 318.561 114.201 320.823 114.201C324.164 114.201 326.794 114.907 328.711 116.319C330.64 117.732 331.765 119.655 332.087 122.089ZM347.718 141.517C345.043 141.517 342.729 140.948 340.777 139.812C338.837 138.663 337.338 137.067 336.282 135.024C335.225 132.968 334.697 130.586 334.697 127.876C334.697 125.143 335.225 122.755 336.282 120.711C337.338 118.656 338.837 117.06 340.777 115.923C342.729 114.775 345.043 114.201 347.718 114.201C350.393 114.201 352.701 114.775 354.642 115.923C356.593 117.06 358.098 118.656 359.154 120.711C360.21 122.755 360.738 125.143 360.738 127.876C360.738 130.586 360.21 132.968 359.154 135.024C358.098 137.067 356.593 138.663 354.642 139.812C352.701 140.948 350.393 141.517 347.718 141.517ZM347.752 135.833C348.969 135.833 349.986 135.489 350.801 134.8C351.616 134.099 352.23 133.146 352.644 131.941C353.068 130.735 353.281 129.363 353.281 127.824C353.281 126.286 353.068 124.914 352.644 123.708C352.23 122.502 351.616 121.549 350.801 120.849C349.986 120.149 348.969 119.798 347.752 119.798C346.524 119.798 345.49 120.149 344.652 120.849C343.825 121.549 343.2 122.502 342.775 123.708C342.362 124.914 342.155 126.286 342.155 127.824C342.155 129.363 342.362 130.735 342.775 131.941C343.2 133.146 343.825 134.099 344.652 134.8C345.49 135.489 346.524 135.833 347.752 135.833ZM371.302 105.727V141H363.965V105.727H371.302ZM383.178 141.499C381.49 141.499 379.986 141.207 378.666 140.621C377.345 140.024 376.3 139.146 375.531 137.986C374.773 136.815 374.394 135.357 374.394 133.611C374.394 132.142 374.664 130.907 375.204 129.908C375.744 128.909 376.478 128.106 377.408 127.497C378.338 126.889 379.395 126.429 380.577 126.119C381.772 125.809 383.023 125.591 384.332 125.465C385.871 125.304 387.111 125.155 388.052 125.017C388.994 124.868 389.677 124.65 390.102 124.363C390.527 124.076 390.739 123.651 390.739 123.088V122.985C390.739 121.894 390.395 121.05 389.706 120.453C389.028 119.856 388.064 119.557 386.812 119.557C385.492 119.557 384.441 119.85 383.66 120.436C382.88 121.01 382.363 121.733 382.11 122.606L375.324 122.055C375.669 120.447 376.346 119.058 377.357 117.887C378.367 116.704 379.67 115.797 381.266 115.165C382.874 114.522 384.734 114.201 386.847 114.201C388.316 114.201 389.723 114.373 391.066 114.718C392.421 115.062 393.621 115.596 394.666 116.319C395.722 117.043 396.555 117.973 397.163 119.11C397.772 120.235 398.076 121.584 398.076 123.157V141H391.118V137.331H390.911C390.486 138.158 389.918 138.887 389.206 139.519C388.494 140.139 387.639 140.627 386.64 140.983C385.641 141.327 384.487 141.499 383.178 141.499ZM385.279 136.436C386.359 136.436 387.312 136.223 388.138 135.799C388.965 135.362 389.614 134.777 390.085 134.042C390.555 133.307 390.791 132.475 390.791 131.545V128.737C390.561 128.886 390.245 129.024 389.843 129.151C389.453 129.265 389.011 129.374 388.517 129.478C388.024 129.57 387.53 129.656 387.036 129.736C386.542 129.805 386.095 129.868 385.693 129.926C384.832 130.052 384.079 130.253 383.436 130.528C382.793 130.804 382.294 131.177 381.938 131.648C381.582 132.107 381.404 132.681 381.404 133.37C381.404 134.369 381.766 135.133 382.489 135.661C383.224 136.178 384.154 136.436 385.279 136.436ZM416.295 114.545V120.057H400.364V114.545H416.295ZM403.98 108.207H411.317V132.871C411.317 133.548 411.421 134.076 411.627 134.455C411.834 134.823 412.121 135.081 412.489 135.23C412.867 135.38 413.304 135.454 413.797 135.454C414.142 135.454 414.486 135.425 414.831 135.368C415.175 135.299 415.439 135.248 415.623 135.213L416.777 140.673C416.41 140.788 415.893 140.92 415.227 141.069C414.561 141.23 413.752 141.327 412.799 141.362C411.03 141.431 409.48 141.195 408.148 140.656C406.828 140.116 405.8 139.278 405.065 138.141C404.331 137.004 403.969 135.569 403.98 133.835V108.207ZM419.53 141V114.545H426.867V141H419.53ZM423.215 111.135C422.125 111.135 421.189 110.774 420.408 110.05C419.639 109.315 419.254 108.437 419.254 107.415C419.254 106.405 419.639 105.538 420.408 104.814C421.189 104.08 422.125 103.712 423.215 103.712C424.306 103.712 425.236 104.08 426.005 104.814C426.786 105.538 427.177 106.405 427.177 107.415C427.177 108.437 426.786 109.315 426.005 110.05C425.236 110.774 424.306 111.135 423.215 111.135ZM443.152 141.517C440.477 141.517 438.163 140.948 436.211 139.812C434.271 138.663 432.772 137.067 431.716 135.024C430.66 132.968 430.132 130.586 430.132 127.876C430.132 125.143 430.66 122.755 431.716 120.711C432.772 118.656 434.271 117.06 436.211 115.923C438.163 114.775 440.477 114.201 443.152 114.201C445.827 114.201 448.135 114.775 450.076 115.923C452.028 117.06 453.532 118.656 454.588 120.711C455.645 122.755 456.173 125.143 456.173 127.876C456.173 130.586 455.645 132.968 454.588 135.024C453.532 137.067 452.028 138.663 450.076 139.812C448.135 140.948 445.827 141.517 443.152 141.517ZM443.187 135.833C444.404 135.833 445.42 135.489 446.235 134.8C447.05 134.099 447.665 133.146 448.078 131.941C448.503 130.735 448.715 129.363 448.715 127.824C448.715 126.286 448.503 124.914 448.078 123.708C447.665 122.502 447.05 121.549 446.235 120.849C445.42 120.149 444.404 119.798 443.187 119.798C441.958 119.798 440.925 120.149 440.086 120.849C439.26 121.549 438.634 122.502 438.209 123.708C437.796 124.914 437.589 126.286 437.589 127.824C437.589 129.363 437.796 130.735 438.209 131.941C438.634 133.146 439.26 134.099 440.086 134.8C440.925 135.489 441.958 135.833 443.187 135.833ZM466.736 125.706V141H459.399V114.545H466.391V119.213H466.702C467.287 117.674 468.269 116.457 469.647 115.562C471.024 114.655 472.695 114.201 474.659 114.201C476.496 114.201 478.097 114.603 479.464 115.407C480.83 116.21 481.892 117.359 482.65 118.851C483.408 120.332 483.787 122.101 483.787 124.156V141H476.45V125.465C476.461 123.846 476.048 122.583 475.21 121.676C474.371 120.757 473.218 120.298 471.748 120.298C470.76 120.298 469.888 120.51 469.13 120.935C468.384 121.36 467.798 121.98 467.373 122.795C466.96 123.599 466.747 124.569 466.736 125.706Z" fill="black"/>
<path d="M811.912 340.298L812.741 327.469L802 334.662L797.558 326.839L809.127 321.203L797.558 315.568L802 307.745L812.741 314.938L811.912 302.109H820.829L819.967 314.938L830.708 307.745L835.15 315.568L823.614 321.203L835.15 326.839L830.708 334.662L819.967 327.469L820.829 340.298H811.912Z" fill="#D2D2D2"/>
</svg>
