<svg width="1200" height="900" viewBox="0 0 1200 900" fill="none" xmlns="http://www.w3.org/2000/svg">
<rect width="1200" height="900" fill="white"/>
<path d="M45 227H234V297L45 302V227Z" fill="#D95F4C"/>
<path d="M234 227H423V295L234 298V227Z" fill="#E4749B"/>
<rect x="423" y="227" width="190" height="68" fill="#E4A040"/>
<rect x="613" y="227" width="190" height="68" fill="#E6C050"/>
<rect x="803" y="227" width="189" height="68" fill="#EBE170"/>
<rect x="992" y="227" width="189" height="68" fill="#C0CF51"/>
<path d="M1177.06 297.561C1177.65 296.975 1177.65 296.025 1177.06 295.439L1167.51 285.893C1166.93 285.308 1165.98 285.308 1165.39 285.893C1164.81 286.479 1164.81 287.429 1165.39 288.015L1173.88 296.5L1165.39 304.985C1164.81 305.571 1164.81 306.521 1165.39 307.107C1165.98 307.692 1166.93 307.692 1167.51 307.107L1177.06 297.561ZM48.0868 303.998C255.029 292.001 974.942 298 1176 298V295C975.058 295 254.971 288.999 47.9132 301.003L48.0868 303.998Z" fill="black"/>
<path d="M55.8963 353V331.182H60.5092V349.197H69.8629V353H55.8963ZM79.69 353.32C78.0067 353.32 76.5578 352.979 75.3434 352.297C74.136 351.608 73.2056 350.635 72.5522 349.378C71.8988 348.114 71.5721 346.619 71.5721 344.893C71.5721 343.21 71.8988 341.732 72.5522 340.461C73.2056 339.19 74.1253 338.199 75.3114 337.489C76.5046 336.778 77.9037 336.423 79.5088 336.423C80.5884 336.423 81.5934 336.597 82.5238 336.945C83.4613 337.286 84.278 337.801 84.974 338.49C85.6772 339.179 86.224 340.045 86.6147 341.089C87.0053 342.126 87.2006 343.341 87.2006 344.733V345.979H73.3831V343.167H82.9286C82.9286 342.513 82.7865 341.935 82.5025 341.43C82.2184 340.926 81.8242 340.532 81.3199 340.248C80.8228 339.957 80.2439 339.811 79.5834 339.811C78.8945 339.811 78.2837 339.971 77.751 340.29C77.2255 340.603 76.8135 341.026 76.5152 341.558C76.2169 342.084 76.0642 342.67 76.0571 343.316V345.99C76.0571 346.8 76.2063 347.499 76.5046 348.089C76.81 348.678 77.2397 349.133 77.7936 349.452C78.3476 349.772 79.0046 349.932 79.7645 349.932C80.2688 349.932 80.7304 349.861 81.1495 349.719C81.5685 349.577 81.9272 349.364 82.2255 349.08C82.5238 348.795 82.751 348.447 82.9073 348.036L87.1047 348.312C86.8917 349.321 86.4549 350.202 85.7944 350.955C85.1409 351.7 84.2958 352.283 83.2588 352.702C82.229 353.114 81.0394 353.32 79.69 353.32ZM103.177 341.303L99.0225 341.558C98.9515 341.203 98.7988 340.884 98.5644 340.599C98.33 340.308 98.0211 340.077 97.6375 339.907C97.2611 339.729 96.8101 339.641 96.2846 339.641C95.5814 339.641 94.9884 339.79 94.5054 340.088C94.0225 340.379 93.781 340.77 93.781 341.26C93.781 341.651 93.9373 341.981 94.2498 342.251C94.5623 342.521 95.0985 342.737 95.8584 342.901L98.8201 343.497C100.411 343.824 101.597 344.349 102.378 345.074C103.16 345.798 103.55 346.75 103.55 347.929C103.55 349.001 103.234 349.942 102.602 350.752C101.977 351.562 101.118 352.194 100.024 352.648C98.9373 353.096 97.6837 353.32 96.2632 353.32C94.0971 353.32 92.3712 352.869 91.0857 351.967C89.8073 351.058 89.058 349.822 88.8378 348.259L93.3016 348.025C93.4365 348.685 93.7632 349.19 94.2817 349.538C94.8002 349.879 95.4642 350.049 96.2739 350.049C97.0694 350.049 97.7086 349.896 98.1915 349.591C98.6816 349.278 98.9301 348.877 98.9373 348.387C98.9301 347.975 98.7561 347.638 98.4152 347.375C98.0743 347.105 97.5488 346.899 96.8385 346.757L94.0047 346.192C92.4067 345.873 91.2171 345.319 90.4358 344.531C89.6617 343.742 89.2746 342.737 89.2746 341.516C89.2746 340.464 89.5587 339.559 90.1269 338.799C90.7022 338.039 91.5083 337.453 92.5452 337.041C93.5892 336.629 94.8108 336.423 96.21 336.423C98.2767 336.423 99.9032 336.86 101.089 337.734C102.282 338.607 102.978 339.797 103.177 341.303ZM119.423 341.303L115.268 341.558C115.197 341.203 115.044 340.884 114.81 340.599C114.576 340.308 114.267 340.077 113.883 339.907C113.507 339.729 113.056 339.641 112.53 339.641C111.827 339.641 111.234 339.79 110.751 340.088C110.268 340.379 110.027 340.77 110.027 341.26C110.027 341.651 110.183 341.981 110.495 342.251C110.808 342.521 111.344 342.737 112.104 342.901L115.066 343.497C116.657 343.824 117.843 344.349 118.624 345.074C119.405 345.798 119.796 346.75 119.796 347.929C119.796 349.001 119.48 349.942 118.848 350.752C118.223 351.562 117.363 352.194 116.27 352.648C115.183 353.096 113.929 353.32 112.509 353.32C110.343 353.32 108.617 352.869 107.331 351.967C106.053 351.058 105.304 349.822 105.084 348.259L109.547 348.025C109.682 348.685 110.009 349.19 110.527 349.538C111.046 349.879 111.71 350.049 112.52 350.049C113.315 350.049 113.954 349.896 114.437 349.591C114.927 349.278 115.176 348.877 115.183 348.387C115.176 347.975 115.002 347.638 114.661 347.375C114.32 347.105 113.794 346.899 113.084 346.757L110.25 346.192C108.652 345.873 107.463 345.319 106.682 344.531C105.907 343.742 105.52 342.737 105.52 341.516C105.52 340.464 105.804 339.559 106.373 338.799C106.948 338.039 107.754 337.453 108.791 337.041C109.835 336.629 111.057 336.423 112.456 336.423C114.522 336.423 116.149 336.86 117.335 337.734C118.528 338.607 119.224 339.797 119.423 341.303ZM142.012 341.303L137.857 341.558C137.786 341.203 137.634 340.884 137.399 340.599C137.165 340.308 136.856 340.077 136.472 339.907C136.096 339.729 135.645 339.641 135.119 339.641C134.416 339.641 133.823 339.79 133.34 340.088C132.857 340.379 132.616 340.77 132.616 341.26C132.616 341.651 132.772 341.981 133.085 342.251C133.397 342.521 133.933 342.737 134.693 342.901L137.655 343.497C139.246 343.824 140.432 344.349 141.213 345.074C141.994 345.798 142.385 346.75 142.385 347.929C142.385 349.001 142.069 349.942 141.437 350.752C140.812 351.562 139.952 352.194 138.859 352.648C137.772 353.096 136.518 353.32 135.098 353.32C132.932 353.32 131.206 352.869 129.92 351.967C128.642 351.058 127.893 349.822 127.673 348.259L132.136 348.025C132.271 348.685 132.598 349.19 133.116 349.538C133.635 349.879 134.299 350.049 135.109 350.049C135.904 350.049 136.543 349.896 137.026 349.591C137.516 349.278 137.765 348.877 137.772 348.387C137.765 347.975 137.591 347.638 137.25 347.375C136.909 347.105 136.384 346.899 135.673 346.757L132.839 346.192C131.241 345.873 130.052 345.319 129.271 344.531C128.496 343.742 128.109 342.737 128.109 341.516C128.109 340.464 128.393 339.559 128.962 338.799C129.537 338.039 130.343 337.453 131.38 337.041C132.424 336.629 133.646 336.423 135.045 336.423C137.112 336.423 138.738 336.86 139.924 337.734C141.117 338.607 141.813 339.797 142.012 341.303ZM152.1 353.32C150.417 353.32 148.968 352.979 147.754 352.297C146.546 351.608 145.616 350.635 144.962 349.378C144.309 348.114 143.982 346.619 143.982 344.893C143.982 343.21 144.309 341.732 144.962 340.461C145.616 339.19 146.535 338.199 147.722 337.489C148.915 336.778 150.314 336.423 151.919 336.423C152.999 336.423 154.004 336.597 154.934 336.945C155.871 337.286 156.688 337.801 157.384 338.49C158.087 339.179 158.634 340.045 159.025 341.089C159.415 342.126 159.611 343.341 159.611 344.733V345.979H145.793V343.167H155.339C155.339 342.513 155.197 341.935 154.913 341.43C154.629 340.926 154.234 340.532 153.73 340.248C153.233 339.957 152.654 339.811 151.994 339.811C151.305 339.811 150.694 339.971 150.161 340.29C149.636 340.603 149.224 341.026 148.925 341.558C148.627 342.084 148.474 342.67 148.467 343.316V345.99C148.467 346.8 148.616 347.499 148.915 348.089C149.22 348.678 149.65 349.133 150.204 349.452C150.758 349.772 151.415 349.932 152.175 349.932C152.679 349.932 153.141 349.861 153.56 349.719C153.979 349.577 154.337 349.364 154.636 349.08C154.934 348.795 155.161 348.447 155.317 348.036L159.515 348.312C159.302 349.321 158.865 350.202 158.205 350.955C157.551 351.7 156.706 352.283 155.669 352.702C154.639 353.114 153.45 353.32 152.1 353.32ZM169.366 353.32C167.69 353.32 166.248 352.964 165.041 352.254C163.84 351.537 162.917 350.543 162.271 349.271C161.632 348 161.312 346.537 161.312 344.882C161.312 343.206 161.635 341.736 162.281 340.472C162.935 339.2 163.862 338.21 165.062 337.499C166.262 336.782 167.69 336.423 169.345 336.423C170.772 336.423 172.022 336.683 173.095 337.201C174.167 337.719 175.016 338.447 175.641 339.385C176.266 340.322 176.61 341.423 176.674 342.688H172.391C172.271 341.871 171.951 341.214 171.433 340.717C170.921 340.212 170.25 339.96 169.419 339.96C168.716 339.96 168.102 340.152 167.576 340.536C167.058 340.912 166.653 341.462 166.362 342.187C166.07 342.911 165.925 343.788 165.925 344.818C165.925 345.862 166.067 346.75 166.351 347.482C166.642 348.213 167.051 348.771 167.576 349.154C168.102 349.538 168.716 349.729 169.419 349.729C169.938 349.729 170.403 349.623 170.815 349.41C171.234 349.197 171.578 348.888 171.848 348.483C172.125 348.071 172.306 347.577 172.391 347.002H176.674C176.603 348.252 176.262 349.353 175.651 350.305C175.048 351.249 174.213 351.988 173.148 352.521C172.082 353.053 170.822 353.32 169.366 353.32ZM189.473 346.033V336.636H194.012V353H189.655V350.028H189.484C189.115 350.987 188.5 351.757 187.641 352.339C186.789 352.922 185.748 353.213 184.52 353.213C183.426 353.213 182.463 352.964 181.633 352.467C180.802 351.97 180.152 351.263 179.683 350.347C179.221 349.431 178.987 348.334 178.98 347.055V336.636H183.518V346.246C183.525 347.212 183.785 347.975 184.296 348.536C184.807 349.097 185.493 349.378 186.352 349.378C186.899 349.378 187.41 349.254 187.886 349.005C188.362 348.749 188.745 348.373 189.037 347.876C189.335 347.379 189.481 346.764 189.473 346.033ZM197.042 353V336.636H201.442V339.491H201.612C201.911 338.476 202.411 337.709 203.114 337.19C203.818 336.665 204.627 336.402 205.543 336.402C205.771 336.402 206.016 336.416 206.278 336.445C206.541 336.473 206.772 336.512 206.971 336.562V340.589C206.758 340.525 206.463 340.468 206.087 340.418C205.71 340.369 205.366 340.344 205.053 340.344C204.386 340.344 203.789 340.489 203.264 340.781C202.745 341.065 202.333 341.462 202.028 341.974C201.729 342.485 201.58 343.075 201.58 343.742V353H197.042ZM215.413 353.32C213.73 353.32 212.281 352.979 211.066 352.297C209.859 351.608 208.929 350.635 208.275 349.378C207.622 348.114 207.295 346.619 207.295 344.893C207.295 343.21 207.622 341.732 208.275 340.461C208.929 339.19 209.848 338.199 211.034 337.489C212.228 336.778 213.627 336.423 215.232 336.423C216.311 336.423 217.316 336.597 218.247 336.945C219.184 337.286 220.001 337.801 220.697 338.49C221.4 339.179 221.947 340.045 222.338 341.089C222.728 342.126 222.924 343.341 222.924 344.733V345.979H209.106V343.167H218.652C218.652 342.513 218.51 341.935 218.225 341.43C217.941 340.926 217.547 340.532 217.043 340.248C216.546 339.957 215.967 339.811 215.306 339.811C214.618 339.811 214.007 339.971 213.474 340.29C212.949 340.603 212.537 341.026 212.238 341.558C211.94 342.084 211.787 342.67 211.78 343.316V345.99C211.78 346.8 211.929 347.499 212.228 348.089C212.533 348.678 212.963 349.133 213.517 349.452C214.071 349.772 214.728 349.932 215.488 349.932C215.992 349.932 216.453 349.861 216.873 349.719C217.292 349.577 217.65 349.364 217.949 349.08C218.247 348.795 218.474 348.447 218.63 348.036L222.828 348.312C222.615 349.321 222.178 350.202 221.517 350.955C220.864 351.7 220.019 352.283 218.982 352.702C217.952 353.114 216.762 353.32 215.413 353.32Z" fill="#989898"/>
<path d="M993.896 331.182H999.585L1005.59 345.841H1005.85L1011.86 331.182H1017.55V353H1013.07V338.799H1012.89L1007.25 352.893H1004.2L998.552 338.746H998.371V353H993.896V331.182ZM1028.06 353.32C1026.4 353.32 1024.97 352.968 1023.76 352.265C1022.56 351.555 1021.64 350.567 1020.98 349.303C1020.33 348.032 1020 346.558 1020 344.882C1020 343.192 1020.33 341.714 1020.98 340.45C1021.64 339.179 1022.56 338.192 1023.76 337.489C1024.97 336.778 1026.4 336.423 1028.06 336.423C1029.71 336.423 1031.14 336.778 1032.34 337.489C1033.55 338.192 1034.48 339.179 1035.13 340.45C1035.78 341.714 1036.11 343.192 1036.11 344.882C1036.11 346.558 1035.78 348.032 1035.13 349.303C1034.48 350.567 1033.55 351.555 1032.34 352.265C1031.14 352.968 1029.71 353.32 1028.06 353.32ZM1028.08 349.804C1028.83 349.804 1029.46 349.591 1029.96 349.165C1030.47 348.732 1030.85 348.142 1031.1 347.396C1031.37 346.651 1031.5 345.802 1031.5 344.85C1031.5 343.898 1031.37 343.05 1031.1 342.304C1030.85 341.558 1030.47 340.969 1029.96 340.536C1029.46 340.102 1028.83 339.886 1028.08 339.886C1027.32 339.886 1026.68 340.102 1026.16 340.536C1025.65 340.969 1025.26 341.558 1025 342.304C1024.74 343.05 1024.61 343.898 1024.61 344.85C1024.61 345.802 1024.74 346.651 1025 347.396C1025.26 348.142 1025.65 348.732 1026.16 349.165C1026.68 349.591 1027.32 349.804 1028.08 349.804ZM1038.46 353V336.636H1042.86V339.491H1043.03C1043.33 338.476 1043.83 337.709 1044.53 337.19C1045.24 336.665 1046.05 336.402 1046.96 336.402C1047.19 336.402 1047.43 336.416 1047.7 336.445C1047.96 336.473 1048.19 336.512 1048.39 336.562V340.589C1048.18 340.525 1047.88 340.468 1047.51 340.418C1047.13 340.369 1046.78 340.344 1046.47 340.344C1045.8 340.344 1045.21 340.489 1044.68 340.781C1044.16 341.065 1043.75 341.462 1043.45 341.974C1043.15 342.485 1043 343.075 1043 343.742V353H1038.46ZM1056.83 353.32C1055.15 353.32 1053.7 352.979 1052.49 352.297C1051.28 351.608 1050.35 350.635 1049.69 349.378C1049.04 348.114 1048.71 346.619 1048.71 344.893C1048.71 343.21 1049.04 341.732 1049.69 340.461C1050.35 339.19 1051.27 338.199 1052.45 337.489C1053.65 336.778 1055.05 336.423 1056.65 336.423C1057.73 336.423 1058.74 336.597 1059.67 336.945C1060.6 337.286 1061.42 337.801 1062.12 338.49C1062.82 339.179 1063.37 340.045 1063.76 341.089C1064.15 342.126 1064.34 343.341 1064.34 344.733V345.979H1050.52V343.167H1060.07C1060.07 342.513 1059.93 341.935 1059.64 341.43C1059.36 340.926 1058.97 340.532 1058.46 340.248C1057.96 339.957 1057.39 339.811 1056.73 339.811C1056.04 339.811 1055.43 339.971 1054.89 340.29C1054.37 340.603 1053.96 341.026 1053.66 341.558C1053.36 342.084 1053.21 342.67 1053.2 343.316V345.99C1053.2 346.8 1053.35 347.499 1053.65 348.089C1053.95 348.678 1054.38 349.133 1054.94 349.452C1055.49 349.772 1056.15 349.932 1056.91 349.932C1057.41 349.932 1057.87 349.861 1058.29 349.719C1058.71 349.577 1059.07 349.364 1059.37 349.08C1059.67 348.795 1059.89 348.447 1060.05 348.036L1064.25 348.312C1064.03 349.321 1063.6 350.202 1062.94 350.955C1062.28 351.7 1061.44 352.283 1060.4 352.702C1059.37 353.114 1058.18 353.32 1056.83 353.32ZM1086.66 341.303L1082.51 341.558C1082.44 341.203 1082.28 340.884 1082.05 340.599C1081.82 340.308 1081.51 340.077 1081.12 339.907C1080.75 339.729 1080.3 339.641 1079.77 339.641C1079.07 339.641 1078.47 339.79 1077.99 340.088C1077.51 340.379 1077.27 340.77 1077.27 341.26C1077.27 341.651 1077.42 341.981 1077.73 342.251C1078.05 342.521 1078.58 342.737 1079.34 342.901L1082.31 343.497C1083.9 343.824 1085.08 344.349 1085.86 345.074C1086.64 345.798 1087.04 346.75 1087.04 347.929C1087.04 349.001 1086.72 349.942 1086.09 350.752C1085.46 351.562 1084.6 352.194 1083.51 352.648C1082.42 353.096 1081.17 353.32 1079.75 353.32C1077.58 353.32 1075.86 352.869 1074.57 351.967C1073.29 351.058 1072.54 349.822 1072.32 348.259L1076.79 348.025C1076.92 348.685 1077.25 349.19 1077.77 349.538C1078.29 349.879 1078.95 350.049 1079.76 350.049C1080.55 350.049 1081.19 349.896 1081.68 349.591C1082.17 349.278 1082.42 348.877 1082.42 348.387C1082.42 347.975 1082.24 347.638 1081.9 347.375C1081.56 347.105 1081.03 346.899 1080.32 346.757L1077.49 346.192C1075.89 345.873 1074.7 345.319 1073.92 344.531C1073.15 343.742 1072.76 342.737 1072.76 341.516C1072.76 340.464 1073.04 339.559 1073.61 338.799C1074.19 338.039 1074.99 337.453 1076.03 337.041C1077.07 336.629 1078.3 336.423 1079.7 336.423C1081.76 336.423 1083.39 336.86 1084.57 337.734C1085.77 338.607 1086.46 339.797 1086.66 341.303ZM1096.75 353.32C1095.07 353.32 1093.62 352.979 1092.4 352.297C1091.2 351.608 1090.27 350.635 1089.61 349.378C1088.96 348.114 1088.63 346.619 1088.63 344.893C1088.63 343.21 1088.96 341.732 1089.61 340.461C1090.27 339.19 1091.19 338.199 1092.37 337.489C1093.57 336.778 1094.96 336.423 1096.57 336.423C1097.65 336.423 1098.65 336.597 1099.58 336.945C1100.52 337.286 1101.34 337.801 1102.03 338.49C1102.74 339.179 1103.28 340.045 1103.68 341.089C1104.07 342.126 1104.26 343.341 1104.26 344.733V345.979H1090.44V343.167H1099.99C1099.99 342.513 1099.85 341.935 1099.56 341.43C1099.28 340.926 1098.88 340.532 1098.38 340.248C1097.88 339.957 1097.3 339.811 1096.64 339.811C1095.96 339.811 1095.34 339.971 1094.81 340.29C1094.29 340.603 1093.87 341.026 1093.58 341.558C1093.28 342.084 1093.12 342.67 1093.12 343.316V345.99C1093.12 346.8 1093.27 347.499 1093.57 348.089C1093.87 348.678 1094.3 349.133 1094.85 349.452C1095.41 349.772 1096.07 349.932 1096.83 349.932C1097.33 349.932 1097.79 349.861 1098.21 349.719C1098.63 349.577 1098.99 349.364 1099.29 349.08C1099.58 348.795 1099.81 348.447 1099.97 348.036L1104.17 348.312C1103.95 349.321 1103.52 350.202 1102.85 350.955C1102.2 351.7 1101.36 352.283 1100.32 352.702C1099.29 353.114 1098.1 353.32 1096.75 353.32ZM1114.02 353.32C1112.34 353.32 1110.9 352.964 1109.69 352.254C1108.49 351.537 1107.57 350.543 1106.92 349.271C1106.28 348 1105.96 346.537 1105.96 344.882C1105.96 343.206 1106.29 341.736 1106.93 340.472C1107.59 339.2 1108.51 338.21 1109.71 337.499C1110.91 336.782 1112.34 336.423 1113.99 336.423C1115.42 336.423 1116.67 336.683 1117.74 337.201C1118.82 337.719 1119.67 338.447 1120.29 339.385C1120.92 340.322 1121.26 341.423 1121.32 342.688H1117.04C1116.92 341.871 1116.6 341.214 1116.08 340.717C1115.57 340.212 1114.9 339.96 1114.07 339.96C1113.37 339.96 1112.75 340.152 1112.23 340.536C1111.71 340.912 1111.3 341.462 1111.01 342.187C1110.72 342.911 1110.58 343.788 1110.58 344.818C1110.58 345.862 1110.72 346.75 1111 347.482C1111.29 348.213 1111.7 348.771 1112.23 349.154C1112.75 349.538 1113.37 349.729 1114.07 349.729C1114.59 349.729 1115.05 349.623 1115.47 349.41C1115.88 349.197 1116.23 348.888 1116.5 348.483C1116.78 348.071 1116.96 347.577 1117.04 347.002H1121.32C1121.25 348.252 1120.91 349.353 1120.3 350.305C1119.7 351.249 1118.86 351.988 1117.8 352.521C1116.73 353.053 1115.47 353.32 1114.02 353.32ZM1134.12 346.033V336.636H1138.66V353H1134.3V350.028H1134.13C1133.77 350.987 1133.15 351.757 1132.29 352.339C1131.44 352.922 1130.4 353.213 1129.17 353.213C1128.08 353.213 1127.11 352.964 1126.28 352.467C1125.45 351.97 1124.8 351.263 1124.33 350.347C1123.87 349.431 1123.64 348.334 1123.63 347.055V336.636H1128.17V346.246C1128.18 347.212 1128.43 347.975 1128.95 348.536C1129.46 349.097 1130.14 349.378 1131 349.378C1131.55 349.378 1132.06 349.254 1132.54 349.005C1133.01 348.749 1133.4 348.373 1133.69 347.876C1133.99 347.379 1134.13 346.764 1134.12 346.033ZM1141.69 353V336.636H1146.09V339.491H1146.26C1146.56 338.476 1147.06 337.709 1147.76 337.19C1148.47 336.665 1149.28 336.402 1150.19 336.402C1150.42 336.402 1150.67 336.416 1150.93 336.445C1151.19 336.473 1151.42 336.512 1151.62 336.562V340.589C1151.41 340.525 1151.11 340.468 1150.74 340.418C1150.36 340.369 1150.02 340.344 1149.7 340.344C1149.04 340.344 1148.44 340.489 1147.91 340.781C1147.4 341.065 1146.98 341.462 1146.68 341.974C1146.38 342.485 1146.23 343.075 1146.23 343.742V353H1141.69ZM1160.06 353.32C1158.38 353.32 1156.93 352.979 1155.72 352.297C1154.51 351.608 1153.58 350.635 1152.93 349.378C1152.27 348.114 1151.95 346.619 1151.95 344.893C1151.95 343.21 1152.27 341.732 1152.93 340.461C1153.58 339.19 1154.5 338.199 1155.68 337.489C1156.88 336.778 1158.28 336.423 1159.88 336.423C1160.96 336.423 1161.97 336.597 1162.9 336.945C1163.83 337.286 1164.65 337.801 1165.35 338.49C1166.05 339.179 1166.6 340.045 1166.99 341.089C1167.38 342.126 1167.57 343.341 1167.57 344.733V345.979H1153.76V343.167H1163.3C1163.3 342.513 1163.16 341.935 1162.88 341.43C1162.59 340.926 1162.2 340.532 1161.69 340.248C1161.2 339.957 1160.62 339.811 1159.96 339.811C1159.27 339.811 1158.66 339.971 1158.12 340.29C1157.6 340.603 1157.19 341.026 1156.89 341.558C1156.59 342.084 1156.44 342.67 1156.43 343.316V345.99C1156.43 346.8 1156.58 347.499 1156.88 348.089C1157.18 348.678 1157.61 349.133 1158.17 349.452C1158.72 349.772 1159.38 349.932 1160.14 349.932C1160.64 349.932 1161.1 349.861 1161.52 349.719C1161.94 349.577 1162.3 349.364 1162.6 349.08C1162.9 348.795 1163.12 348.447 1163.28 348.036L1167.48 348.312C1167.27 349.321 1166.83 350.202 1166.17 350.955C1165.51 351.7 1164.67 352.283 1163.63 352.702C1162.6 353.114 1161.41 353.32 1160.06 353.32Z" fill="#989898"/>
</svg>
