<svg width="1200" height="900" viewBox="0 0 1200 900" fill="none" xmlns="http://www.w3.org/2000/svg">
<rect width="1200" height="900" fill="white"/>
<path d="M918 231C920.761 231 923 233.239 923 236V256H277V236C277 233.239 279.239 231 282 231H918Z" fill="#D2D2D2"/>
<rect x="284" y="237" width="4" height="4" fill="#A3A3A3"/>
<rect x="290" y="237" width="4" height="4" fill="#A3A3A3"/>
<rect x="296" y="237" width="4" height="4" fill="#A3A3A3"/>
<path d="M918 625C920.761 625 923 627.239 923 630V650H277V630C277 627.239 279.239 625 282 625H918Z" fill="#D2D2D2"/>
<rect x="284" y="631" width="4" height="4" fill="#A3A3A3"/>
<rect x="290" y="631" width="4" height="4" fill="#A3A3A3"/>
<rect x="296" y="631" width="4" height="4" fill="#A3A3A3"/>
<g clip-path="url(#clip0_18_4344)">
<path fill-rule="evenodd" clip-rule="evenodd" d="M477 510.068C477 511.135 476.374 512 475.601 512H278.399C277.626 512 277 511.135 277 510.068V346C277 343.239 279.239 341 282 341H472C474.761 341 477 343.239 477 346V510.068Z" fill="#FF003C"/>
<path d="M277 346C277 343.239 279.239 341 282 341H472C474.761 341 477 343.239 477 346V364H277V346Z" fill="#CCCCCC"/>
<path fill-rule="evenodd" clip-rule="evenodd" d="M294 353.5C294 355.986 291.986 358 289.5 358C287.014 358 285 355.986 285 353.5C285 351.014 287.014 349 289.5 349C291.986 349 294 351.014 294 353.5Z" fill="#E74C3C"/>
<path fill-rule="evenodd" clip-rule="evenodd" d="M310 353.5C310 355.986 307.986 358 305.5 358C303.014 358 301 355.986 301 353.5C301 351.014 303.014 349 305.5 349C307.986 349 310 351.014 310 353.5Z" fill="#F1C40F"/>
<path fill-rule="evenodd" clip-rule="evenodd" d="M325 353.5C325 355.986 322.986 358 320.5 358C318.014 358 316 355.986 316 353.5C316 351.014 318.014 349 320.5 349C322.986 349 325 351.014 325 353.5Z" fill="#2ECC71"/>
<path d="M286.264 327H289.339V322.284H291.925C295.27 322.284 297.216 320.288 297.216 317.384C297.216 314.493 295.305 312.455 292.003 312.455H286.264V327ZM289.339 319.82V314.969H291.413C293.189 314.969 294.048 315.935 294.048 317.384C294.048 318.825 293.189 319.82 291.428 319.82H289.339ZM303.91 327.213C307.219 327.213 309.279 324.947 309.279 321.588C309.279 318.207 307.219 315.949 303.91 315.949C300.6 315.949 298.54 318.207 298.54 321.588C298.54 324.947 300.6 327.213 303.91 327.213ZM303.924 324.869C302.397 324.869 301.616 323.47 301.616 321.567C301.616 319.663 302.397 318.257 303.924 318.257C305.423 318.257 306.204 319.663 306.204 321.567C306.204 323.47 305.423 324.869 303.924 324.869ZM315.266 327.178C317.028 327.178 317.944 326.162 318.363 325.253H318.491V327H321.474V312.455H318.455V317.923H318.363C317.958 317.036 317.085 315.949 315.259 315.949C312.866 315.949 310.842 317.81 310.842 321.56C310.842 325.21 312.781 327.178 315.266 327.178ZM316.225 324.77C314.741 324.77 313.931 323.449 313.931 321.545C313.931 319.656 314.727 318.357 316.225 318.357C317.695 318.357 318.519 319.599 318.519 321.545C318.519 323.491 317.681 324.77 316.225 324.77ZM334.89 312.455H331.999L328.398 314.734V317.462L331.729 315.374H331.815V327H334.89V312.455Z" fill="#4A4A4A"/>
</g>
<path fill-rule="evenodd" clip-rule="evenodd" d="M701 510.068C701 511.135 700.374 512 699.601 512H502.399C501.626 512 501 511.135 501 510.068V346C501 343.239 503.239 341 506 341H696C698.761 341 701 343.239 701 346V510.068Z" fill="#FF003C"/>
<path d="M501 346C501 343.239 503.239 341 506 341H696C698.761 341 701 343.239 701 346V364H501V346Z" fill="#CCCCCC"/>
<path fill-rule="evenodd" clip-rule="evenodd" d="M518 353.5C518 355.986 515.986 358 513.5 358C511.014 358 509 355.986 509 353.5C509 351.014 511.014 349 513.5 349C515.986 349 518 351.014 518 353.5Z" fill="#E74C3C"/>
<path fill-rule="evenodd" clip-rule="evenodd" d="M534 353.5C534 355.986 531.986 358 529.5 358C527.014 358 525 355.986 525 353.5C525 351.014 527.014 349 529.5 349C531.986 349 534 351.014 534 353.5Z" fill="#F1C40F"/>
<path fill-rule="evenodd" clip-rule="evenodd" d="M549 353.5C549 355.986 546.986 358 544.5 358C542.014 358 540 355.986 540 353.5C540 351.014 542.014 349 544.5 349C546.986 349 549 351.014 549 353.5Z" fill="#2ECC71"/>
<path d="M507.264 327H510.339V322.284H512.925C516.27 322.284 518.216 320.288 518.216 317.384C518.216 314.493 516.305 312.455 513.003 312.455H507.264V327ZM510.339 319.82V314.969H512.413C514.189 314.969 515.048 315.935 515.048 317.384C515.048 318.825 514.189 319.82 512.428 319.82H510.339ZM524.91 327.213C528.219 327.213 530.279 324.947 530.279 321.588C530.279 318.207 528.219 315.949 524.91 315.949C521.6 315.949 519.54 318.207 519.54 321.588C519.54 324.947 521.6 327.213 524.91 327.213ZM524.924 324.869C523.397 324.869 522.616 323.47 522.616 321.567C522.616 319.663 523.397 318.257 524.924 318.257C526.423 318.257 527.204 319.663 527.204 321.567C527.204 323.47 526.423 324.869 524.924 324.869ZM536.266 327.178C538.028 327.178 538.944 326.162 539.363 325.253H539.491V327H542.474V312.455H539.455V317.923H539.363C538.958 317.036 538.085 315.949 536.259 315.949C533.866 315.949 531.842 317.81 531.842 321.56C531.842 325.21 533.781 327.178 536.266 327.178ZM537.225 324.77C535.741 324.77 534.931 323.449 534.931 321.545C534.931 319.656 535.727 318.357 537.225 318.357C538.695 318.357 539.519 319.599 539.519 321.545C539.519 323.491 538.681 324.77 537.225 324.77ZM549.562 327H559.931V324.486H553.823V324.386L555.947 322.305C558.937 319.578 559.739 318.214 559.739 316.56C559.739 314.038 557.68 312.256 554.562 312.256C551.508 312.256 549.413 314.081 549.42 316.936H552.339C552.332 315.544 553.212 314.692 554.54 314.692C555.819 314.692 556.771 315.487 556.771 316.766C556.771 317.923 556.06 318.719 554.739 319.99L549.562 324.784V327Z" fill="#4A4A4A"/>
<path d="M732.264 327H735.339V322.284H737.925C741.27 322.284 743.216 320.288 743.216 317.384C743.216 314.493 741.305 312.455 738.003 312.455H732.264V327ZM735.339 319.82V314.969H737.413C739.189 314.969 740.048 315.935 740.048 317.384C740.048 318.825 739.189 319.82 737.428 319.82H735.339ZM749.91 327.213C753.219 327.213 755.279 324.947 755.279 321.588C755.279 318.207 753.219 315.949 749.91 315.949C746.6 315.949 744.54 318.207 744.54 321.588C744.54 324.947 746.6 327.213 749.91 327.213ZM749.924 324.869C748.397 324.869 747.616 323.47 747.616 321.567C747.616 319.663 748.397 318.257 749.924 318.257C751.423 318.257 752.204 319.663 752.204 321.567C752.204 323.47 751.423 324.869 749.924 324.869ZM761.266 327.178C763.028 327.178 763.944 326.162 764.363 325.253H764.491V327H767.474V312.455H764.455V317.923H764.363C763.958 317.036 763.085 315.949 761.259 315.949C758.866 315.949 756.842 317.81 756.842 321.56C756.842 325.21 758.781 327.178 761.266 327.178ZM762.225 324.77C760.741 324.77 759.931 323.449 759.931 321.545C759.931 319.656 760.727 318.357 762.225 318.357C763.695 318.357 764.519 319.599 764.519 321.545C764.519 323.491 763.681 324.77 762.225 324.77ZM779.938 327.199C783.205 327.199 785.542 325.402 785.535 322.916C785.542 321.105 784.391 319.812 782.254 319.543V319.429C783.88 319.138 785.002 317.987 784.995 316.354C785.002 314.06 782.992 312.256 779.981 312.256C776.998 312.256 774.754 314.003 774.711 316.517H777.658C777.694 315.409 778.71 314.692 779.967 314.692C781.21 314.692 782.04 315.445 782.033 316.538C782.04 317.682 781.067 318.456 779.668 318.456H778.312V320.714H779.668C781.316 320.714 782.346 321.538 782.339 322.71C782.346 323.868 781.352 324.663 779.945 324.663C778.589 324.663 777.573 323.953 777.516 322.888H774.42C774.469 325.43 776.742 327.199 779.938 327.199Z" fill="#4A4A4A"/>
<path fill-rule="evenodd" clip-rule="evenodd" d="M923 510.068C923 511.135 922.374 512 921.601 512H724.399C723.626 512 723 511.135 723 510.068V346C723 343.239 725.239 341 728 341H918C920.761 341 923 343.239 923 346V510.068Z" fill="#FABE28"/>
<path d="M723 346C723 343.239 725.239 341 728 341H918C920.761 341 923 343.239 923 346V364H723V346Z" fill="#CCCCCC"/>
<path fill-rule="evenodd" clip-rule="evenodd" d="M740 353.5C740 355.986 737.986 358 735.5 358C733.014 358 731 355.986 731 353.5C731 351.014 733.014 349 735.5 349C737.986 349 740 351.014 740 353.5Z" fill="#E74C3C"/>
<path fill-rule="evenodd" clip-rule="evenodd" d="M756 353.5C756 355.986 753.986 358 751.5 358C749.014 358 747 355.986 747 353.5C747 351.014 749.014 349 751.5 349C753.986 349 756 351.014 756 353.5Z" fill="#F1C40F"/>
<path fill-rule="evenodd" clip-rule="evenodd" d="M771 353.5C771 355.986 768.986 358 766.5 358C764.014 358 762 355.986 762 353.5C762 351.014 764.014 349 766.5 349C768.986 349 771 351.014 771 353.5Z" fill="#2ECC71"/>
<path d="M556 148V309H380V327" stroke="#FF9500" stroke-opacity="0.3" stroke-width="13" stroke-dasharray="12"/>
<path d="M648 148V309H824V326" stroke="#FF9500" stroke-opacity="0.3" stroke-width="13" stroke-dasharray="12"/>
<path d="M601 148V330" stroke="#FF9500" stroke-opacity="0.3" stroke-width="13" stroke-dasharray="12"/>
<path fill-rule="evenodd" clip-rule="evenodd" d="M590 855.079C590 856.14 589.377 857 588.608 857H392.392C391.623 857 391 856.14 391 855.079V693.204C391 689.778 393.778 687 397.204 687H583.796C587.222 687 590 689.778 590 693.204V855.079Z" fill="#00C176"/>
<path d="M391 693.204C391 689.778 393.778 687 397.204 687H583.796C587.222 687 590 689.778 590 693.204V715.54H391V693.204Z" fill="#CCCCCC"/>
<path fill-rule="evenodd" clip-rule="evenodd" d="M412.095 702.511C412.095 705.595 409.595 708.095 406.511 708.095C403.426 708.095 400.927 705.595 400.927 702.511C400.927 699.427 403.426 696.927 406.511 696.927C409.595 696.927 412.095 699.427 412.095 702.511Z" fill="#E74C3C"/>
<path fill-rule="evenodd" clip-rule="evenodd" d="M431.949 702.511C431.949 705.595 429.449 708.095 426.365 708.095C423.281 708.095 420.781 705.595 420.781 702.511C420.781 699.427 423.281 696.927 426.365 696.927C429.449 696.927 431.949 699.427 431.949 702.511Z" fill="#F1C40F"/>
<path fill-rule="evenodd" clip-rule="evenodd" d="M450.562 702.511C450.562 705.595 448.063 708.095 444.978 708.095C441.894 708.095 439.395 705.595 439.395 702.511C439.395 699.427 441.894 696.927 444.978 696.927C448.063 696.927 450.562 699.427 450.562 702.511Z" fill="#2ECC71"/>
<path fill-rule="evenodd" clip-rule="evenodd" d="M812 855.079C812 856.14 811.377 857 810.608 857H614.392C613.623 857 613 856.14 613 855.079V693.204C613 689.778 615.778 687 619.204 687H805.796C809.222 687 812 689.778 812 693.204V855.079Z" fill="#326DE5"/>
<path d="M613 693.204C613 689.778 615.778 687 619.204 687H805.796C809.222 687 812 689.778 812 693.204V715.54H613V693.204Z" fill="#CCCCCC"/>
<path fill-rule="evenodd" clip-rule="evenodd" d="M634.095 702.511C634.095 705.595 631.595 708.095 628.511 708.095C625.426 708.095 622.927 705.595 622.927 702.511C622.927 699.427 625.426 696.927 628.511 696.927C631.595 696.927 634.095 699.427 634.095 702.511Z" fill="#E74C3C"/>
<path fill-rule="evenodd" clip-rule="evenodd" d="M653.949 702.511C653.949 705.595 651.449 708.095 648.365 708.095C645.281 708.095 642.781 705.595 642.781 702.511C642.781 699.427 645.281 696.927 648.365 696.927C651.449 696.927 653.949 699.427 653.949 702.511Z" fill="#F1C40F"/>
<path fill-rule="evenodd" clip-rule="evenodd" d="M672.562 702.511C672.562 705.595 670.063 708.095 666.978 708.095C663.894 708.095 661.395 705.595 661.395 702.511C661.395 699.427 663.894 696.927 666.978 696.927C670.063 696.927 672.562 699.427 672.562 702.511Z" fill="#2ECC71"/>
<path d="M492 679V553H774V464" stroke="#FF9500" stroke-opacity="0.3" stroke-width="13" stroke-dasharray="12"/>
<path d="M717 678V593H869V464" stroke="#FF9500" stroke-opacity="0.3" stroke-width="13" stroke-dasharray="12"/>
<g clip-path="url(#clip1_18_4344)">
<path d="M521 144.317L521.023 101.381C521.024 100.438 521.788 99.6741 522.73 99.6741C533.755 99.6732 544.78 99.6732 555.805 99.6732C556.488 99.4049 556.244 99.2341 556.146 99.0633C554.024 95.5504 552.634 91.7692 552.098 87.6707C550.902 78.2786 553.561 70.1061 559.951 63.1047C560.317 62.7144 560.683 62.3484 561.073 61.9825C561.39 61.6654 561.39 61.6654 561.098 61.3726C560.098 60.4212 559.195 59.3722 558.439 58.2012C556.732 55.4934 555.78 52.5415 555.707 49.3213C555.683 48.5163 555.854 48.4187 556.585 48.7847C557.366 49.175 558.171 49.5165 559.024 49.7849C559.122 48.3699 558.951 47.199 558.927 46.0036C558.927 45.5645 558.902 45.1498 558.927 44.7106C558.927 44.1008 559.146 43.9544 559.683 44.2715C560.537 44.7594 561.39 45.1985 562.293 45.5645C562.829 45.784 562.829 45.784 562.78 45.1985C562.634 43.6616 562.61 42.1247 562.78 40.5878C562.927 40.0023 563.195 39.9048 563.39 40.0755C563.537 40.1975 563.634 40.3683 563.756 40.5146C565.634 42.8566 567.732 44.9546 570.244 46.6379C572.439 48.1016 574.805 48.9066 577.439 48.931C579.415 48.9554 581.317 48.5407 583.146 47.8332C584.854 47.1746 586.561 46.4915 588.341 46.1012C590.146 45.7108 591.976 45.5401 593.78 45.9792C596.854 46.7354 598.927 48.7115 600.22 51.5413C600.707 52.6147 600.976 53.7369 601.146 54.9079C601.22 55.347 601.22 55.347 601.683 55.3226C604.366 55.1274 606.951 55.5421 609.293 56.9327C612.098 58.616 613.659 61.1531 614.268 64.3001C614.707 66.6176 614.585 68.9108 614.22 71.2283C613.927 73.0336 613.439 74.8144 612.854 76.5465C612.707 76.9856 612.61 76.9612 613.146 77.1564C615.878 78.0834 617.585 79.9618 618.073 82.7917C618.756 86.6705 616.268 90.1103 612.659 90.9641C612 91.1105 611.317 91.2081 610.634 91.1349C610.341 91.0861 610.244 91.2325 610.171 91.5008C609.659 93.3548 608.951 95.1601 608.098 96.8922C606.341 100.381 604 103.381 601.073 105.943C600.415 106.406 600.366 106.675 600.512 107.041C600.854 107.992 601.146 108.968 601.463 109.919C603.439 116.067 605.439 122.19 607.39 128.338C607.537 128.777 607.732 128.948 608.171 129.021C610.098 129.435 611.317 130.631 611.829 132.534C611.927 132.948 612 133.388 612.073 133.802C612.537 133.534 612.732 133.266 613.024 133.022C613.854 132.339 614.78 132.192 615.78 132.534C616.805 132.9 617.415 133.656 617.561 134.729C617.61 135.095 617.707 135.193 618.073 135.242C619.78 135.51 620.78 137.193 620.22 138.852C620.073 139.267 620.122 139.56 620.415 139.901C621.171 140.804 621.61 141.853 621.756 143.024C621.829 143.536 621.756 143.536 622.317 143.536H632.39C632.39 142.511 632.073 141.706 631.902 140.828C630.756 140.901 629.976 141.096 629.22 141.34C628.78 141.487 628.561 141.389 628.488 141.145C628.415 140.926 628.585 140.755 629 140.633C629.707 140.413 630.415 140.218 631.122 139.999C631.829 139.779 631.707 139.95 631.707 139.169C631.732 138.803 631.585 138.754 631.39 138.754H627.878C627.244 138.73 627.146 138.608 627.146 138.413C627.61 138.047 627.732 138.071 627.878 138.071H631.341C631.659 138.071 631.78 137.974 631.829 137.657C631.951 136.827 631.976 136.827 631.146 136.583C630.463 136.364 629.756 136.169 629.073 135.973C628.537 135.754 628.463 135.607 628.512 135.437C629.049 135.193 629.195 135.242 629.366 135.29C630.195 135.534 631 135.778 631.829 136.047C632.951 134.315 633.902 133.095 635.195 132.168C635.439 131.997 635.488 131.802 635.488 131.533V123.995C635.537 123.654 635.78 123.532 636.073 123.703C638.488 125.947 640.61 127.923 642.707 129.875C643.268 130.411 643.098 130.411 643.732 129.948C648.293 126.703 654.415 126.703 658.976 129.948C659.561 130.363 659.39 130.46 660.024 129.875C662.171 127.899 664.293 125.947 666.439 123.971C666.634 123.8 666.805 123.507 667.122 123.629C667.463 123.751 667.341 124.093 667.341 124.337V135.29C667.341 135.998 667.341 135.998 668 135.803C668.585 135.632 669.146 135.461 669.732 135.29C670.561 135.632 670.512 135.803 670.293 135.876L668.902 136.315L667.659 136.681C667.317 137.242 667.317 137.608 667.341 137.949C669.098 138.096 670.171 138.096 671.244 138.096C671.854 138.169 671.976 138.291 671.951 138.462C671.512 138.803 671.341 138.803 671.195 138.803H667.805C667.317 138.803 667.293 138.803 667.293 139.267C667.293 140.023 667.244 139.852 667.878 140.047C668.537 140.267 669.22 140.438 669.902 140.657C670.463 140.901 670.537 141.048 670.463 141.243C669.024 141.17 668.366 140.95 667.683 140.755C667.293 141.755 667.293 142.463 667.293 143.194C667.293 143.463 667.366 143.609 667.659 143.585H678.195C678.463 143.585 678.732 143.56 679 143.707V144.17C678.39 144.317 678.22 144.317 678.024 144.317H521Z" fill="#151D38"/>
<path d="M549.294 140.046C549.294 140.022 549.294 140.022 549.294 139.998C558.317 139.998 567.34 139.998 576.364 139.998C576.413 139.998 576.437 139.998 576.486 139.998C577.124 139.998 577.124 139.998 577.124 139.366C577.124 139.318 577.124 139.245 577.124 139.196C577.124 126.784 577.124 114.372 577.124 101.935C577.124 101.789 577.124 101.668 577.124 101.522C577.099 100.866 576.732 100.478 576.069 100.405C575.849 100.38 575.628 100.405 575.432 100.405C558.047 100.405 540.662 100.405 523.302 100.405C523.155 100.405 523.033 100.405 522.885 100.405C521.978 100.429 521.61 100.818 521.61 101.692C521.61 114.274 521.61 126.881 521.61 139.463C521.61 140.022 521.61 140.022 522.199 140.022C522.346 140.022 522.469 140.022 522.616 140.022C531.492 140.046 540.393 140.046 549.294 140.046Z" fill="#CCD6DA"/>
<path d="M566.89 99.6682C568.712 99.6682 570.534 99.6682 572.38 99.6682C573.497 99.6682 574.639 99.6682 575.756 99.6682C576.679 99.6682 577.384 100.207 577.554 101.039C577.602 101.259 577.602 101.455 577.602 101.675C577.602 105.052 577.602 108.405 577.602 111.782C577.602 112.344 577.651 112.32 578.088 112.369C581.659 112.809 585.181 112.614 588.655 111.708C596.574 109.628 602.574 104.979 606.679 97.8818C607.845 95.8752 608.719 93.7217 609.351 91.4703C609.472 91.0298 609.472 91.0298 609.059 90.9075C608.841 90.8341 608.622 90.7606 608.403 90.6872C607.99 90.5159 607.869 90.3691 607.942 90.1244C608.015 89.8552 608.233 89.8307 608.671 89.9776C609.837 90.418 611.003 90.5159 612.217 90.2957C615.812 89.586 618.12 85.9153 617.172 82.3669C616.201 78.7452 612.46 76.6896 608.962 77.8642C608.792 77.9131 608.646 78.011 608.476 78.0355C608.306 78.06 608.185 77.9621 608.112 77.8152C608.039 77.6439 608.088 77.4971 608.209 77.3992C608.306 77.3258 608.403 77.2769 608.525 77.2524C608.792 77.1545 609.035 77.0811 609.302 77.0077C609.351 76.9832 609.424 76.9587 609.448 76.9098C609.497 76.7874 609.375 76.8119 609.302 76.7874C609.205 76.7385 609.084 76.714 608.962 76.6651C607.14 76.0288 605.391 75.2213 603.788 74.1445C600.873 72.2358 598.614 69.7397 597.157 66.5339C596.477 65.0167 596.015 63.426 595.748 61.762C595.675 61.2725 595.651 61.2725 595.238 61.4928C595.092 61.5662 594.971 61.6396 594.825 61.7375C592.663 63.01 590.452 64.0868 588.12 64.9677C583.092 66.852 577.943 67.6107 572.623 66.6563C568.931 65.9955 565.481 64.6741 562.469 62.3493C562.081 62.0556 562.081 62.0556 561.765 62.3738C559.044 64.9922 556.882 68.0022 555.328 71.4282C552.923 76.7874 552.194 82.3669 553.093 88.1667C553.7 92.1066 555.109 95.7528 557.198 99.1299C557.441 99.5459 557.708 99.7172 558.218 99.7172C561.085 99.6438 563.975 99.6682 566.89 99.6682Z" fill="#FAE0D6"/>
<path d="M577.761 126.632C577.761 130.508 577.761 134.36 577.761 138.236C577.761 138.776 577.761 139.34 577.761 139.88C577.761 140.174 577.835 140.297 578.152 140.297C578.81 140.272 579.469 140.297 580.152 140.297C582.616 140.297 585.08 140.272 587.52 140.272C588.032 140.272 588.081 140.346 588.081 140.861C588.081 141.671 588.081 142.48 588.081 143.265C588.081 143.658 588.032 143.707 588.471 143.707C591.618 143.707 594.765 143.707 597.888 143.707C598.205 143.707 598.278 143.584 598.302 143.314C598.4 142.431 598.668 141.572 599.132 140.812C599.302 140.542 599.327 140.297 599.205 139.978C598.693 138.457 598.205 136.911 597.717 135.39C596.521 131.661 595.302 127.933 594.106 124.204C594.057 124.081 594.009 123.934 593.984 123.811C593.935 123.59 594.033 123.419 594.253 123.37C594.448 123.32 594.594 123.419 594.667 123.59C594.692 123.664 594.716 123.738 594.741 123.811C595.594 126.461 596.448 129.11 597.302 131.76C598.107 134.262 598.912 136.764 599.742 139.242C599.888 139.659 599.888 139.683 600.205 139.389C601.083 138.53 602.108 137.966 603.303 137.696C603.669 137.598 603.694 137.598 603.596 137.23C603.401 136.421 603.181 135.587 603.011 134.777C602.449 132.324 603.938 129.797 606.353 129.159C606.499 129.11 606.67 129.11 606.816 129.061C606.987 129.036 607.06 128.938 606.987 128.767C606.963 128.668 606.938 128.57 606.889 128.497C604.987 122.56 603.059 116.599 601.157 110.662C600.815 109.558 600.449 108.454 600.083 107.35C600.01 107.105 599.888 107.007 599.693 107.227C599.62 107.301 599.546 107.35 599.449 107.399C597.839 108.601 596.107 109.656 594.277 110.49C590.715 112.134 586.958 113.066 583.031 113.213C581.372 113.287 579.713 113.262 578.079 113.017C577.81 112.968 577.713 113.066 577.737 113.311C577.737 113.459 577.737 113.63 577.737 113.777C577.761 118.071 577.761 122.364 577.761 126.632Z" fill="#FFF3A2"/>
<path d="M655.592 143.657C659.145 143.657 662.722 143.657 666.276 143.657C666.787 143.657 666.787 143.657 666.787 143.14C666.787 143.066 666.787 142.992 666.787 142.893C666.787 137.073 666.787 131.252 666.787 125.432C666.787 125.309 666.787 125.186 666.787 125.087C666.787 124.988 666.835 124.865 666.738 124.816C666.592 124.742 666.543 124.89 666.446 124.964C665.132 126.197 663.818 127.405 662.479 128.638C661.676 129.378 660.873 130.143 660.07 130.883C659.729 131.203 659.68 131.178 659.315 130.932C659.194 130.858 659.096 130.759 658.999 130.685C657.076 129.23 654.935 128.367 652.55 128.194C649.361 127.948 646.465 128.836 643.91 130.809C643.35 131.252 643.35 131.252 642.839 130.784C642.815 130.759 642.79 130.735 642.742 130.71C640.819 128.885 638.872 127.06 636.925 125.235C636.779 125.087 636.633 124.816 636.439 124.89C636.292 124.964 636.366 125.235 636.366 125.432C636.366 127.553 636.366 129.699 636.366 131.82C636.366 132.116 636.341 132.362 636.025 132.56C632.52 134.952 631.693 139.613 633.737 143.213C633.932 143.559 634.151 143.707 634.565 143.707C637.144 143.682 639.748 143.707 642.328 143.682C642.498 143.682 642.742 143.756 642.815 143.608C642.888 143.46 642.644 143.337 642.523 143.213C641.257 141.832 640.868 140.229 641.403 138.454C641.939 136.678 643.18 135.618 644.932 135.198C645.297 135.1 645.662 135.05 646.027 135.1C646.222 135.124 646.344 135.248 646.344 135.47C646.344 135.642 646.246 135.766 646.052 135.79C645.833 135.815 645.638 135.84 645.419 135.864C643.74 136.086 642.304 137.369 641.963 139.021C641.598 140.723 642.328 142.449 643.788 143.361C644.153 143.583 644.543 143.707 645.005 143.707C648.607 143.633 652.112 143.657 655.592 143.657Z" fill="#C27659"/>
<path d="M549.339 140.682C544.362 140.704 539.386 140.704 534.41 140.704C530.414 140.704 526.418 140.704 522.422 140.704C522.275 140.704 522.104 140.704 521.957 140.704C521.711 140.704 521.589 140.791 521.613 141.008C521.613 141.443 521.613 141.879 521.613 142.314C521.613 143.097 521.613 143.097 522.496 143.097C529.482 143.097 536.493 143.097 543.48 143.075C554.389 143.075 565.273 143.053 576.181 143.053C576.329 143.053 576.5 143.053 576.647 143.053C576.99 143.031 577.113 142.923 577.113 142.618C577.137 142.053 577.113 141.509 577.113 140.943C577.113 140.704 576.99 140.639 576.745 140.66C576.598 140.66 576.476 140.66 576.329 140.66C573.73 140.66 571.156 140.682 568.558 140.682C562.159 140.682 555.761 140.682 549.339 140.682Z" fill="#CCD6DA"/>
<path d="M610.042 143.682C613.468 143.682 616.917 143.682 620.343 143.682C620.488 143.682 620.608 143.682 620.753 143.682C620.97 143.707 621.067 143.632 621.043 143.384C620.922 142.343 620.56 141.401 619.933 140.558C619.837 140.409 619.74 140.434 619.692 140.607C619.668 140.682 619.644 140.756 619.595 140.831C618.799 142.541 616.821 143.012 615.373 141.822C615.108 141.599 614.939 141.55 614.626 141.698C613.733 142.07 612.889 141.946 612.093 141.401C611.248 140.806 610.862 139.963 610.935 138.897C610.959 138.525 610.935 138.5 610.621 138.599C609.873 138.797 609.174 138.723 608.498 138.326C608.329 138.227 608.184 138.227 607.991 138.227C606.882 138.227 605.748 138.202 604.638 138.227C602.081 138.277 599.886 140.087 599.234 142.64C599.162 142.913 599.114 143.186 599.089 143.459C599.065 143.632 599.138 143.707 599.307 143.707C599.451 143.707 599.62 143.707 599.765 143.707C603.215 143.682 606.64 143.682 610.042 143.682Z" fill="#CCD6DA"/>
<path d="M605.8 137.171C606.253 137.171 606.681 137.171 607.135 137.171C607.311 137.171 607.412 137.124 607.336 136.935C606.832 135.638 606.757 134.247 606.455 132.902C606.379 132.596 606.505 132.407 606.732 132.36C606.958 132.313 607.109 132.454 607.185 132.761C607.26 133.067 607.311 133.398 607.361 133.704C607.512 134.506 607.638 135.308 607.815 136.086C608.066 137.148 609.099 137.761 610.232 137.572C611.34 137.36 612.045 136.417 611.869 135.355C611.718 134.435 611.567 133.539 611.34 132.643C610.862 130.638 608.721 129.364 606.581 129.742C604.541 130.096 603.055 132.1 603.407 134.058C603.584 135.001 603.886 135.921 604.113 136.865C604.163 137.077 604.289 137.171 604.541 137.171C604.969 137.171 605.397 137.171 605.8 137.171Z" fill="#FAE0D6"/>
<path d="M611.896 139.221C611.945 139.907 612.17 140.445 612.718 140.837C613.865 141.669 615.41 141.253 615.909 139.931C616.382 138.634 616.831 137.312 617.28 135.99C617.329 135.843 617.354 135.696 617.379 135.525C617.454 134.57 616.881 133.714 615.934 133.42C615.011 133.151 613.989 133.542 613.541 134.399C613.242 134.987 612.992 135.623 612.893 136.284C612.818 136.773 612.668 137.214 612.419 137.655C612.12 138.169 611.945 138.707 611.896 139.221Z" fill="#FAE0D6"/>
<path d="M582.515 143.097V143.075C583.828 143.075 585.116 143.075 586.429 143.075C586.652 143.075 586.875 143.075 587.073 143.075C587.321 143.053 587.494 142.965 587.494 142.723C587.494 142.107 587.494 141.492 587.494 140.876C587.494 140.722 587.395 140.656 587.222 140.656C587.073 140.656 586.899 140.656 586.751 140.656C584.893 140.656 583.035 140.656 581.177 140.656C580.161 140.656 579.145 140.678 578.155 140.678C577.857 140.678 577.733 140.766 577.733 141.03C577.758 141.58 577.733 142.129 577.733 142.657C577.733 143.075 577.733 143.097 578.229 143.097C579.666 143.097 581.078 143.097 582.515 143.097Z" fill="#CCD6DA"/>
<path d="M619.826 138.459C619.826 137.367 619.124 136.584 618.057 136.417C617.589 136.346 617.537 136.37 617.381 136.773C617.095 137.533 616.835 138.293 616.549 139.029C616.289 139.693 616.159 140.429 615.639 140.999C615.456 141.189 615.613 141.307 615.743 141.426C616.835 142.257 618.499 141.901 619.072 140.666C619.332 140.097 619.54 139.503 619.748 138.91C619.826 138.72 619.826 138.53 619.826 138.459Z" fill="#FAE0D6"/>
<path d="M556.372 120.65C556.178 123.617 554.341 125.83 551.634 126.462C548.153 127.289 544.72 124.882 544.236 121.307C543.825 118.291 545.759 115.227 548.902 114.497C549.579 114.351 549.627 114.375 549.724 115.056C550.135 117.367 551.682 119.069 553.93 119.58C554.462 119.701 554.994 119.726 555.55 119.677C556.275 119.604 556.347 119.677 556.372 120.407C556.396 120.528 556.372 120.65 556.372 120.65Z" fill="#151D38"/>
<path d="M550.388 126.015C550.758 125.99 551.251 125.94 551.744 125.815C553.939 125.215 555.665 123.116 555.763 120.867C555.788 120.367 555.788 120.367 555.32 120.367C552.386 120.417 549.821 118.418 549.156 115.519C549.008 114.869 548.934 115.019 548.539 115.144C546 115.994 544.422 118.643 544.866 121.367C545.285 124.016 547.627 126.04 550.388 126.015Z" fill="white"/>
<path d="M577.01 77.4349C579.688 77.4349 582.367 77.4349 585.045 77.4349C586.276 77.4349 587.507 77.4843 588.737 77.509C589.317 77.5337 589.461 77.7315 589.196 78.2258C587.386 81.6615 584.732 84.059 580.943 84.8747C577.13 85.6904 573.776 84.6275 570.904 81.9334C569.77 80.8705 568.901 79.5852 568.202 78.1764C568.129 78.0281 568.057 77.9045 568.008 77.7562C567.912 77.4596 568.008 77.3113 568.322 77.2371C568.443 77.2124 568.564 77.2124 568.66 77.2124C571.025 77.2371 573.414 77.2618 575.779 77.2866C576.189 77.2866 576.575 77.336 576.985 77.336C577.01 77.3854 577.01 77.4101 577.01 77.4349Z" fill="#151D38"/>
<path d="M578.998 77.9164C578.264 77.9164 577.553 77.9164 576.818 77.9164C575.912 77.9164 575.03 77.9164 574.123 77.8694C572.58 77.8223 571.037 77.8223 569.493 77.8223C569.15 77.8223 569.126 77.8458 569.297 78.1283C569.91 79.2349 570.694 80.2237 571.649 81.0713C574.344 83.4256 577.48 84.3909 581.056 83.7081C584.339 83.0725 586.74 81.2361 588.504 78.5521C588.822 78.0577 588.822 78.0342 588.21 78.0342C585.147 77.9871 582.061 77.94 578.998 77.9164Z" fill="white"/>
<path d="M555.772 81.1778C555.772 79.1833 557.268 77.2364 559.761 77.2126C561.946 77.1889 563.703 78.9934 563.703 81.1778C563.703 83.3859 561.946 85.1429 559.738 85.1429C557.553 85.1192 555.772 83.3622 555.772 81.1778Z" fill="#E5384A"/>
<path d="M602.739 81.7998C602.834 83.7049 601.192 85.729 598.789 85.7528C596.599 85.7528 594.838 83.9906 594.814 81.7998C594.814 79.5614 596.552 77.8231 598.789 77.8231C601.145 77.7755 602.858 79.7996 602.739 81.7998Z" fill="#E5384A"/>
<path d="M565.215 72.3322C566.42 72.3322 567.389 73.2753 567.363 74.4804C567.363 75.6593 566.42 76.6024 565.267 76.6024C564.062 76.6024 563.093 75.6593 563.093 74.4542C563.093 73.3015 564.036 72.3584 565.215 72.3322Z" fill="#151D38"/>
<path d="M592.692 72.9425C593.897 72.9425 594.814 73.8854 594.814 75.1164C594.788 76.2951 593.845 77.2379 592.666 77.2118C591.514 77.2118 590.544 76.2427 590.544 75.0902C590.518 73.8854 591.487 72.9163 592.692 72.9425Z" fill="#151D38"/>
<path d="M614.946 83.9593C614.922 86.4404 612.379 88.189 609.958 87.3856C609.885 87.3619 609.811 87.3383 609.738 87.2911C609.494 87.1965 609.396 87.0311 609.494 86.7948C609.567 86.5822 609.787 86.5585 609.983 86.6058C610.105 86.6294 610.252 86.7003 610.374 86.7239C612.061 87.1729 613.821 86.1332 614.164 84.5028C614.506 82.8251 613.332 81.2419 611.596 81.0056C611.45 80.982 611.278 80.9583 611.132 80.9347C610.961 80.9111 610.863 80.7693 610.863 80.6039C610.863 80.3912 610.985 80.2967 611.181 80.2731C611.303 80.2494 611.45 80.2731 611.596 80.2731C613.528 80.4857 614.971 82.0689 614.946 83.9593Z" fill="#151D38"/>
<path d="M578.952 72.1399C578.952 72.3133 578.816 72.4123 578.658 72.4866C578.182 72.759 577.683 73.0314 577.207 73.279C577.003 73.3781 576.958 73.4771 577.162 73.6257C577.57 73.9228 577.955 74.2448 578.363 74.5419C578.476 74.6162 578.567 74.6905 578.658 74.7896C578.771 74.9134 578.771 75.0867 578.68 75.2353C578.59 75.3839 578.454 75.4086 578.295 75.3591C578.204 75.3343 578.136 75.2848 578.068 75.2105C577.457 74.74 576.822 74.2695 576.21 73.7743C575.78 73.4276 575.802 73.18 576.278 72.9076C576.958 72.5114 577.66 72.1399 578.363 71.7685C578.703 71.6447 578.975 71.7685 578.952 72.1399Z" fill="#151D38"/>
<path d="M560.043 73.5055C560.112 71.7377 561.269 70.2729 562.912 69.9446C563.097 69.8941 563.282 69.8689 563.467 69.9194C563.606 69.9446 563.699 70.0709 563.699 70.2224C563.722 70.3992 563.653 70.5507 563.491 70.6012C563.329 70.6518 563.167 70.677 563.005 70.7023C561.755 70.9801 560.922 71.9902 560.783 73.354C560.76 73.5055 560.76 73.6318 560.76 73.7833C560.737 74.0106 560.645 74.1621 560.413 74.1621C560.182 74.1621 560.089 73.9853 560.066 73.758C560.043 73.6823 560.043 73.6065 560.043 73.5055Z" fill="#151D38"/>
<path d="M597.255 73.4927C597.255 73.5918 597.255 73.7654 597.231 73.9142C597.183 74.0877 597.064 74.1621 596.897 74.1621C596.73 74.1621 596.61 74.0629 596.587 73.8894C596.563 73.7654 596.587 73.6414 596.563 73.5423C596.491 72.0794 595.56 70.9636 594.176 70.6909C594.104 70.6661 594.033 70.6661 593.961 70.6413C593.722 70.5917 593.555 70.4678 593.603 70.195C593.651 69.9223 593.865 69.8727 594.08 69.8975C594.892 69.9967 595.584 70.319 596.181 70.8893C596.849 71.6083 597.207 72.4513 597.255 73.4927Z" fill="#151D38"/>
<path d="M651.341 141.871C650.426 141.845 649.807 141.583 649.337 140.954C649.139 140.718 649.065 140.718 648.867 140.954C648.001 141.976 646.739 142.159 645.725 141.451C645.379 141.216 645.107 140.875 644.909 140.482C644.81 140.272 644.785 140.01 645.032 139.879C645.28 139.748 645.428 139.879 645.552 140.115C645.626 140.272 645.725 140.43 645.849 140.587C646.665 141.504 648.1 141.216 648.545 140.063C648.644 139.801 648.669 139.643 648.348 139.565C647.902 139.434 647.63 139.067 647.333 138.726C647.209 138.595 647.135 138.412 647.111 138.228C647.036 137.861 647.16 137.626 647.531 137.626C648.57 137.599 649.634 137.599 650.673 137.626C651.019 137.626 651.143 137.861 651.044 138.228C650.896 138.831 650.45 139.145 650.005 139.46C649.857 139.565 649.609 139.539 649.56 139.722C649.51 139.958 649.659 140.194 649.807 140.403C650.475 141.373 651.811 141.373 652.504 140.403C652.578 140.298 652.652 140.141 652.727 140.036C652.85 139.853 653.023 139.827 653.197 139.905C653.37 140.01 653.419 140.194 653.345 140.377C653.197 140.744 652.974 141.058 652.677 141.32C652.232 141.687 651.737 141.897 651.341 141.871Z" fill="#151D38"/>
<path d="M659.479 135.167C660.524 135.167 661.309 135.977 661.309 136.996C661.309 138.042 660.472 138.852 659.427 138.826C658.407 138.8 657.623 137.989 657.649 136.944C657.623 135.925 658.433 135.141 659.479 135.167Z" fill="#151D38"/>
<path d="M638.114 138.826C637.102 138.826 636.297 138.048 636.297 137.009C636.297 135.971 637.05 135.192 638.088 135.166C639.152 135.166 639.957 135.945 639.957 136.983C639.931 138.022 639.152 138.826 638.114 138.826Z" fill="#151D38"/>
<path d="M638.647 83.1267V92H636.771V83.1267H638.647ZM642.002 88.1526V92H640.156V85.345H641.915V86.5192H641.993C642.14 86.1321 642.387 85.826 642.734 85.6007C643.081 85.3725 643.501 85.2584 643.995 85.2584C644.457 85.2584 644.86 85.3595 645.204 85.5617C645.547 85.7639 645.815 86.0527 646.005 86.4282C646.196 86.8008 646.291 87.2456 646.291 87.7627V92H644.445V88.0919C644.448 87.6847 644.344 87.3669 644.133 87.1388C643.923 86.9077 643.632 86.7921 643.263 86.7921C643.014 86.7921 642.795 86.8456 642.604 86.9525C642.416 87.0593 642.269 87.2153 642.162 87.4204C642.058 87.6226 642.005 87.8666 642.002 88.1526ZM650.753 92.13C650.071 92.13 649.485 91.9856 648.994 91.6967C648.506 91.405 648.13 91.0006 647.867 90.4836C647.607 89.9665 647.477 89.3715 647.477 88.6985C647.477 88.0168 647.609 87.4189 647.871 86.9048C648.137 86.3878 648.514 85.9848 649.002 85.696C649.49 85.4042 650.071 85.2584 650.744 85.2584C651.325 85.2584 651.833 85.3638 652.269 85.5747C652.705 85.7855 653.05 86.0816 653.305 86.4629C653.559 86.8441 653.699 87.2918 653.725 87.806H651.983C651.934 87.4738 651.804 87.2066 651.593 87.0044C651.385 86.7994 651.112 86.6968 650.774 86.6968C650.488 86.6968 650.239 86.7748 650.025 86.9308C649.814 87.0839 649.649 87.3077 649.531 87.6023C649.412 87.897 649.353 88.2537 649.353 88.6725C649.353 89.0971 649.411 89.4582 649.527 89.7557C649.645 90.0532 649.811 90.2799 650.025 90.4359C650.239 90.5919 650.488 90.6699 650.774 90.6699C650.985 90.6699 651.174 90.6265 651.342 90.5399C651.512 90.4532 651.652 90.3276 651.762 90.163C651.875 89.9954 651.949 89.7947 651.983 89.5607H653.725C653.696 90.0691 653.557 90.5168 653.309 90.9038C653.063 91.288 652.724 91.5884 652.291 91.805C651.858 92.0217 651.345 92.13 650.753 92.13ZM657.914 92.13C657.241 92.13 656.658 91.987 656.167 91.701C655.679 91.4122 655.302 91.0107 655.037 90.4966C654.771 89.9795 654.638 89.3802 654.638 88.6985C654.638 88.0111 654.771 87.4103 655.037 86.8961C655.302 86.3791 655.679 85.9776 656.167 85.6916C656.658 85.4028 657.241 85.2584 657.914 85.2584C658.587 85.2584 659.167 85.4028 659.655 85.6916C660.146 85.9776 660.525 86.3791 660.79 86.8961C661.056 87.4103 661.189 88.0111 661.189 88.6985C661.189 89.3802 661.056 89.9795 660.79 90.4966C660.525 91.0107 660.146 91.4122 659.655 91.701C659.167 91.987 658.587 92.13 657.914 92.13ZM657.922 90.7002C658.228 90.7002 658.484 90.6135 658.689 90.4402C658.894 90.264 659.049 90.0243 659.153 89.721C659.26 89.4177 659.313 89.0726 659.313 88.6855C659.313 88.2985 659.26 87.9533 659.153 87.65C659.049 87.3467 658.894 87.107 658.689 86.9308C658.484 86.7546 658.228 86.6665 657.922 86.6665C657.613 86.6665 657.353 86.7546 657.142 86.9308C656.934 87.107 656.777 87.3467 656.67 87.65C656.566 87.9533 656.514 88.2985 656.514 88.6855C656.514 89.0726 656.566 89.4177 656.67 89.721C656.777 90.0243 656.934 90.264 657.142 90.4402C657.353 90.6135 657.613 90.7002 657.922 90.7002ZM662.389 92V85.345H664.148V86.5192H664.226C664.365 86.1292 664.596 85.8216 664.919 85.5963C665.243 85.371 665.63 85.2584 666.081 85.2584C666.537 85.2584 666.925 85.3725 667.246 85.6007C667.567 85.826 667.78 86.1321 667.887 86.5192H667.957C668.092 86.1379 668.338 85.8332 668.693 85.605C669.051 85.3739 669.474 85.2584 669.963 85.2584C670.584 85.2584 671.088 85.4562 671.475 85.852C671.865 86.2448 672.06 86.8023 672.06 87.5244V92H670.218V87.8883C670.218 87.5186 670.12 87.2413 669.924 87.0564C669.727 86.8716 669.482 86.7791 669.187 86.7791C668.852 86.7791 668.591 86.886 668.403 87.0998C668.215 87.3106 668.121 87.5894 668.121 87.936V92H666.332V87.8493C666.332 87.5229 666.238 87.263 666.05 87.0694C665.865 86.8759 665.621 86.7791 665.318 86.7791C665.113 86.7791 664.928 86.8311 664.763 86.9351C664.602 87.0362 664.473 87.1792 664.378 87.3641C664.283 87.546 664.235 87.7598 664.235 88.0053V92H662.389ZM673.518 92V85.345H675.363V92H673.518ZM674.445 84.4872C674.17 84.4872 673.935 84.3962 673.739 84.2142C673.545 84.0293 673.448 83.8084 673.448 83.5513C673.448 83.2971 673.545 83.0791 673.739 82.8971C673.935 82.7122 674.17 82.6198 674.445 82.6198C674.719 82.6198 674.953 82.7122 675.147 82.8971C675.343 83.0791 675.441 83.2971 675.441 83.5513C675.441 83.8084 675.343 84.0293 675.147 84.2142C674.953 84.3962 674.719 84.4872 674.445 84.4872ZM678.688 88.1526V92H676.842V85.345H678.601V86.5192H678.679C678.826 86.1321 679.073 85.826 679.42 85.6007C679.766 85.3725 680.187 85.2584 680.681 85.2584C681.143 85.2584 681.546 85.3595 681.889 85.5617C682.233 85.7639 682.5 86.0527 682.691 86.4282C682.882 86.8008 682.977 87.2456 682.977 87.7627V92H681.131V88.0919C681.134 87.6847 681.03 87.3669 680.819 87.1388C680.608 86.9077 680.318 86.7921 679.948 86.7921C679.7 86.7921 679.48 86.8456 679.29 86.9525C679.102 87.0593 678.955 87.2153 678.848 87.4204C678.744 87.6226 678.69 87.8666 678.688 88.1526ZM687.43 94.6343C686.832 94.6343 686.319 94.5519 685.892 94.3873C685.467 94.2255 685.129 94.0046 684.878 93.7244C684.627 93.4442 684.463 93.1294 684.388 92.7799L686.095 92.5502C686.147 92.6831 686.23 92.8073 686.342 92.9229C686.455 93.0384 686.604 93.1308 686.789 93.2001C686.976 93.2724 687.204 93.3085 687.473 93.3085C687.875 93.3085 688.205 93.2103 688.465 93.0138C688.728 92.8203 688.86 92.4954 688.86 92.039V90.8215H688.782C688.701 91.0064 688.579 91.1811 688.418 91.3458C688.256 91.5104 688.048 91.6447 687.794 91.7487C687.54 91.8527 687.236 91.9047 686.884 91.9047C686.384 91.9047 685.929 91.7891 685.519 91.5581C685.112 91.3241 684.787 90.9674 684.544 90.4879C684.304 90.0055 684.185 89.3961 684.185 88.6595C684.185 87.9056 684.307 87.276 684.553 86.7705C684.798 86.265 685.125 85.8866 685.532 85.6353C685.942 85.384 686.391 85.2584 686.88 85.2584C687.252 85.2584 687.564 85.3219 687.815 85.449C688.067 85.5732 688.269 85.7292 688.422 85.9169C688.578 86.1018 688.698 86.2838 688.782 86.4629H688.851V85.345H690.684V92.065C690.684 92.6311 690.545 93.1048 690.268 93.4861C689.99 93.8674 689.606 94.1533 689.115 94.344C688.627 94.5375 688.065 94.6343 687.43 94.6343ZM687.469 90.5182C687.766 90.5182 688.018 90.4446 688.223 90.2973C688.431 90.1471 688.589 89.9333 688.699 89.656C688.812 89.3759 688.868 89.0408 688.868 88.6509C688.868 88.2609 688.813 87.923 688.704 87.637C688.594 87.3482 688.435 87.1243 688.227 86.9654C688.019 86.8066 687.766 86.7272 687.469 86.7272C687.165 86.7272 686.91 86.8095 686.702 86.9741C686.494 87.1359 686.336 87.3612 686.23 87.65C686.123 87.9389 686.069 88.2725 686.069 88.6509C686.069 89.035 686.123 89.3672 686.23 89.6474C686.339 89.9247 686.497 90.1398 686.702 90.2929C686.91 90.4431 687.165 90.5182 687.469 90.5182ZM640.276 100.345V101.731H636.269V100.345H640.276ZM637.178 98.7506H639.024V104.955C639.024 105.125 639.05 105.258 639.102 105.354C639.154 105.446 639.226 105.511 639.319 105.549C639.414 105.586 639.524 105.605 639.648 105.605C639.735 105.605 639.821 105.598 639.908 105.583C639.995 105.566 640.061 105.553 640.107 105.544L640.398 106.918C640.305 106.947 640.175 106.98 640.008 107.017C639.84 107.058 639.637 107.082 639.397 107.091C638.952 107.108 638.562 107.049 638.227 106.913C637.895 106.778 637.636 106.567 637.451 106.281C637.267 105.995 637.176 105.634 637.178 105.198V98.7506ZM641.479 107V100.345H643.268V101.506H643.337C643.459 101.093 643.662 100.781 643.948 100.57C644.234 100.357 644.564 100.25 644.936 100.25C645.029 100.25 645.128 100.255 645.235 100.267C645.342 100.279 645.436 100.294 645.517 100.315V101.952C645.43 101.926 645.31 101.903 645.157 101.883C645.004 101.863 644.864 101.853 644.737 101.853C644.465 101.853 644.223 101.912 644.009 102.03C643.798 102.146 643.631 102.308 643.506 102.516C643.385 102.724 643.324 102.963 643.324 103.235V107H641.479ZM648.178 107.126C647.753 107.126 647.375 107.052 647.043 106.905C646.711 106.754 646.448 106.534 646.254 106.242C646.064 105.947 645.968 105.58 645.968 105.141C645.968 104.772 646.036 104.461 646.172 104.21C646.308 103.958 646.493 103.756 646.727 103.603C646.961 103.45 647.226 103.335 647.524 103.257C647.824 103.179 648.139 103.124 648.468 103.092C648.855 103.052 649.167 103.014 649.404 102.979C649.641 102.942 649.813 102.887 649.92 102.815C650.027 102.742 650.08 102.636 650.08 102.494V102.468C650.08 102.194 649.993 101.981 649.82 101.831C649.65 101.681 649.407 101.606 649.092 101.606C648.76 101.606 648.496 101.679 648.299 101.827C648.103 101.971 647.973 102.153 647.909 102.373L646.202 102.234C646.289 101.83 646.459 101.48 646.714 101.186C646.968 100.888 647.296 100.66 647.697 100.501C648.101 100.339 648.569 100.258 649.101 100.258C649.471 100.258 649.824 100.302 650.162 100.388C650.503 100.475 650.805 100.609 651.068 100.791C651.334 100.973 651.543 101.207 651.696 101.493C651.849 101.776 651.926 102.116 651.926 102.511V107H650.175V106.077H650.123C650.017 106.285 649.874 106.469 649.694 106.627C649.515 106.783 649.3 106.906 649.049 106.996C648.798 107.082 648.507 107.126 648.178 107.126ZM648.707 105.852C648.978 105.852 649.218 105.798 649.426 105.692C649.634 105.582 649.797 105.434 649.915 105.25C650.034 105.065 650.093 104.855 650.093 104.621V103.915C650.035 103.953 649.956 103.987 649.855 104.019C649.757 104.048 649.645 104.075 649.521 104.101C649.397 104.125 649.273 104.146 649.149 104.166C649.024 104.184 648.912 104.2 648.811 104.214C648.594 104.246 648.405 104.296 648.243 104.366C648.081 104.435 647.956 104.529 647.866 104.647C647.777 104.763 647.732 104.907 647.732 105.081C647.732 105.332 647.823 105.524 648.005 105.657C648.19 105.787 648.424 105.852 648.707 105.852ZM656.936 100.345V101.731H652.829V100.345H656.936ZM653.769 107V99.8641C653.769 99.3817 653.863 98.9817 654.051 98.664C654.242 98.3462 654.502 98.1079 654.831 97.9491C655.16 97.7902 655.534 97.7108 655.953 97.7108C656.236 97.7108 656.495 97.7324 656.729 97.7758C656.965 97.8191 657.142 97.8581 657.257 97.8927L656.928 99.2792C656.856 99.2561 656.766 99.2344 656.659 99.2142C656.555 99.194 656.448 99.1839 656.339 99.1839C656.067 99.1839 655.878 99.2474 655.771 99.3745C655.664 99.4987 655.611 99.6735 655.611 99.8988V107H653.769ZM661.643 100.345V101.731H657.535V100.345H661.643ZM658.476 107V99.8641C658.476 99.3817 658.57 98.9817 658.757 98.664C658.948 98.3462 659.208 98.1079 659.537 97.9491C659.866 97.7902 660.241 97.7108 660.659 97.7108C660.942 97.7108 661.201 97.7324 661.435 97.7758C661.672 97.8191 661.848 97.8581 661.963 97.8927L661.634 99.2792C661.562 99.2561 661.472 99.2344 661.366 99.2142C661.262 99.194 661.155 99.1839 661.045 99.1839C660.773 99.1839 660.584 99.2474 660.477 99.3745C660.37 99.4987 660.317 99.6735 660.317 99.8988V107H658.476ZM662.77 107V100.345H664.616V107H662.77ZM663.698 99.4872C663.423 99.4872 663.188 99.3962 662.991 99.2142C662.798 99.0293 662.701 98.8084 662.701 98.5513C662.701 98.2971 662.798 98.0791 662.991 97.8971C663.188 97.7122 663.423 97.6198 663.698 97.6198C663.972 97.6198 664.206 97.7122 664.4 97.8971C664.596 98.0791 664.694 98.2971 664.694 98.5513C664.694 98.8084 664.596 99.0293 664.4 99.2142C664.206 99.3962 663.972 99.4872 663.698 99.4872ZM669.102 107.13C668.42 107.13 667.833 106.986 667.342 106.697C666.854 106.405 666.479 106.001 666.216 105.484C665.956 104.967 665.826 104.372 665.826 103.699C665.826 103.017 665.957 102.419 666.22 101.905C666.486 101.388 666.863 100.985 667.351 100.696C667.839 100.404 668.42 100.258 669.093 100.258C669.673 100.258 670.182 100.364 670.618 100.575C671.054 100.786 671.399 101.082 671.653 101.463C671.908 101.844 672.048 102.292 672.074 102.806H670.332C670.283 102.474 670.153 102.207 669.942 102.004C669.734 101.799 669.461 101.697 669.123 101.697C668.837 101.697 668.587 101.775 668.374 101.931C668.163 102.084 667.998 102.308 667.88 102.602C667.761 102.897 667.702 103.254 667.702 103.673C667.702 104.097 667.76 104.458 667.875 104.756C667.994 105.053 668.16 105.28 668.374 105.436C668.587 105.592 668.837 105.67 669.123 105.67C669.334 105.67 669.523 105.627 669.691 105.54C669.861 105.453 670.001 105.328 670.111 105.163C670.224 104.995 670.297 104.795 670.332 104.561H672.074C672.045 105.069 671.906 105.517 671.658 105.904C671.412 106.288 671.073 106.588 670.64 106.805C670.206 107.022 669.694 107.13 669.102 107.13Z" fill="#7DA159"/>
</g>
<path d="M67.789 124.938C67.7885 124.975 68.1743 124.761 68.9464 124.298C69.755 123.835 70.6932 123.228 71.761 122.477C72.8657 121.69 73.9895 120.849 75.1322 119.953C76.2754 119.021 77.2174 118.141 77.9581 117.313C78.6989 116.484 79.0915 115.779 79.136 115.196C79.2175 114.577 78.7309 114.169 77.6763 113.972C76.3664 113.772 75.2543 113.775 74.3399 113.981C73.462 114.188 72.6564 114.432 71.9233 114.713C71.1901 114.995 70.4937 115.258 69.834 115.505C69.2107 115.751 68.5168 115.833 67.7523 115.749C66.1482 115.727 65.0432 115.219 64.4371 114.227C63.868 113.198 63.5953 111.827 63.619 110.113C63.6428 108.4 64.048 106.783 64.8348 105.262C65.6221 103.705 66.6251 102.37 67.8437 101.257C69.0624 100.143 70.4601 99.2695 72.0367 98.635C73.6139 97.9641 75.2227 97.64 76.8632 97.6628C77.5194 97.6718 78.0836 97.7344 78.556 97.8503C79.0284 97.9662 79.2596 98.3887 79.2495 99.1178C79.2424 99.6282 79.0169 100.117 78.5728 100.585C78.1293 101.017 77.6341 101.228 77.0873 101.221C77.0509 101.22 76.96 101.201 76.8147 101.162C76.6698 101.087 76.5253 100.994 76.381 100.883C76.2367 100.772 76.0919 100.697 75.9466 100.658C75.8018 100.583 75.7111 100.546 75.6747 100.545C74.5127 100.201 73.3803 100.349 72.2775 100.99C71.1748 101.631 70.1781 102.511 69.2876 103.629C68.434 104.711 67.7429 105.904 67.2143 107.21C66.6863 108.478 66.4152 109.623 66.401 110.644C66.3954 111.045 66.4638 111.374 66.6061 111.631C66.7853 111.853 67.0018 112.02 67.2555 112.133C67.5456 112.246 67.8544 112.323 68.182 112.364C68.5466 112.369 68.9111 112.374 69.2757 112.379C70.0048 112.389 70.7354 112.29 71.4675 112.082C72.2361 111.873 72.9687 111.628 73.6654 111.346C74.3985 111.065 75.1312 110.82 75.8633 110.611C76.6319 110.403 77.4172 110.304 78.2192 110.316C78.5837 110.321 78.9832 110.436 79.4177 110.66C79.8526 110.849 80.2495 111.146 80.6085 111.552C80.968 111.922 81.2718 112.363 81.5199 112.877C81.7686 113.355 81.9071 113.885 81.9354 114.469C82.1471 114.982 82.0648 115.656 81.6887 116.489C81.3489 117.323 80.8262 118.209 80.1204 119.147C79.4146 120.086 78.5628 121.04 77.5649 122.011C76.5674 122.945 75.571 123.806 74.5756 124.595C73.5808 125.346 72.6061 125.953 71.6517 126.414C70.6968 126.911 69.8915 127.137 69.2358 127.091C68.5067 127.081 68.0723 126.856 67.9326 126.417C67.8293 125.978 67.7814 125.485 67.789 124.938ZM84.8536 124.901C84.8865 122.532 84.8664 120.034 84.7934 117.407C84.7569 114.782 84.7024 112.137 84.6299 109.475C84.5944 106.776 84.6128 104.133 84.6851 101.545C84.7574 98.9572 84.9551 96.5352 85.2781 94.279C85.3515 94.2436 85.5158 94.2277 85.771 94.2312C86.0631 94.1988 86.2638 94.1833 86.3732 94.1848C86.8836 94.1919 87.2833 94.2886 87.5724 94.4749C87.8985 94.6253 88.0578 94.9739 88.0502 95.5207C88.0204 97.6715 87.9695 100.023 87.8977 102.574C87.8629 105.089 87.809 107.659 87.7362 110.283C87.7003 112.872 87.6647 115.442 87.6293 117.994C87.5939 120.545 87.5983 122.861 87.6424 124.94C87.6703 125.56 87.5371 125.959 87.243 126.137C86.9848 126.353 86.6552 126.457 86.2541 126.452C85.8167 126.446 85.4537 126.331 85.1651 126.109C84.8759 125.922 84.7721 125.52 84.8536 124.901ZM84.1933 85.7319C84.1993 85.2945 84.3492 85.0049 84.6429 84.8631C84.9365 84.7213 85.2656 84.653 85.6302 84.658C86.3593 84.6681 86.8117 84.9114 86.9874 85.3878C87.1631 85.8643 87.2466 86.4123 87.238 87.0321C87.0138 87.43 86.7363 87.7179 86.4057 87.8956C86.0756 88.0369 85.7287 88.0686 85.3652 87.9906C85.0386 87.8767 84.7503 87.6357 84.5001 87.2676C84.2865 86.9 84.1842 86.3881 84.1933 85.7319ZM93.7069 125.407C93.3741 120.48 93.0777 115.553 92.8178 110.627C92.5949 105.665 92.3381 100.521 92.0473 95.1933C92.0594 94.3183 92.5394 93.8875 93.4872 93.9006L93.9247 93.9067C94.034 93.9082 94.1596 94.0558 94.3014 94.3494C94.4432 94.6431 94.5814 95.1919 94.7161 95.9959C94.8878 96.764 95.0536 97.9513 95.2137 99.5579C95.4107 101.128 95.6373 103.192 95.8936 105.748C96.1498 108.303 96.4337 111.498 96.7452 115.331C97.5451 112.862 98.18 110.465 98.6498 108.138C99.1196 105.811 99.7139 103.704 100.433 101.818C101.152 99.8954 102.142 98.2137 103.401 96.7726C104.698 95.3321 106.535 94.282 108.914 93.6222C110.224 93.8591 111.27 94.6758 112.053 96.0722C112.836 97.4321 113.451 99.1179 113.897 101.129C114.343 103.141 114.641 105.333 114.79 107.705C114.94 110.041 115.018 112.284 115.025 114.435C115.032 116.587 115.023 118.519 114.999 120.233C114.976 121.909 114.996 123.113 115.059 123.843C114.945 124.133 114.778 124.386 114.556 124.602C114.334 124.817 114.077 124.978 113.784 125.083C113.527 125.153 113.272 125.167 113.017 125.127C112.763 125.051 112.529 124.847 112.315 124.516C112.32 124.115 112.295 123.294 112.239 122.054C112.184 120.813 112.113 119.372 112.026 117.73C111.94 116.052 111.837 114.282 111.717 112.421C111.634 110.523 111.549 108.754 111.462 107.112C111.412 105.434 111.36 103.975 111.304 102.734C111.248 101.494 111.205 100.673 111.174 100.271C110.427 98.9119 109.672 98.1357 108.909 97.9428C108.183 97.7505 107.432 97.9771 106.657 98.6226C105.919 99.2687 105.194 100.261 104.483 101.601C103.772 102.94 103.094 104.462 102.451 106.167C101.808 107.835 101.2 109.595 100.628 111.447C100.055 113.298 99.556 115.096 99.1308 116.84C98.706 118.548 98.338 120.111 98.0266 121.529C97.7523 122.91 97.5733 123.984 97.4898 124.748C97.3769 125.002 97.1364 125.254 96.7683 125.504C96.4372 125.718 96.0704 125.877 95.6678 125.981C95.3018 126.085 94.9185 126.116 94.518 126.074C94.1545 125.996 93.8841 125.774 93.7069 125.407ZM121.945 147.894C125.155 147.756 127.682 146.953 129.526 145.483C131.406 144.014 132.818 142.101 133.762 139.744C134.706 137.387 135.291 134.679 135.515 131.619C135.74 128.596 135.801 125.461 135.7 122.215C135.6 118.968 135.426 115.721 135.179 112.472C134.969 109.188 134.902 106.142 134.978 103.336C133.346 107.907 131.818 111.605 130.394 114.43C128.97 117.217 127.646 119.332 126.423 120.774C125.236 122.179 124.149 123.039 123.16 123.354C122.208 123.632 121.37 123.566 120.647 123.155C119.924 122.707 119.332 122.024 118.87 121.107C118.446 120.153 118.15 119.182 117.981 118.196C118.077 116.52 118.431 114.683 119.042 112.686C119.69 110.653 120.501 108.677 121.476 106.758C122.487 104.804 123.643 102.996 124.942 101.337C126.242 99.6415 127.609 98.3296 129.044 97.4015C130.479 96.4369 131.963 95.947 133.494 95.9318C135.026 95.8801 136.495 96.4838 137.899 97.743C137.935 97.78 137.983 98.2729 138.043 99.2217C138.139 100.135 138.232 101.357 138.32 102.89C138.445 104.387 138.567 106.084 138.687 107.981C138.844 109.843 138.981 111.741 139.1 113.675C139.22 115.573 139.322 117.397 139.407 119.149C139.492 120.9 139.581 122.415 139.673 123.692C139.79 125.772 139.668 127.976 139.307 130.305C138.983 132.634 138.478 134.887 137.792 137.066C137.105 139.28 136.237 141.347 135.19 143.265C134.179 145.183 133.009 146.753 131.679 147.974C130.386 149.196 128.935 149.96 127.327 150.266C125.754 150.608 124.081 150.312 122.307 149.376C122.198 149.374 122.034 149.354 121.816 149.314C121.597 149.311 121.415 149.254 121.271 149.143C121.163 149.032 121.147 148.886 121.223 148.704C121.298 148.523 121.539 148.253 121.945 147.894ZM120.83 117.852C121.179 118.987 121.644 119.577 122.227 119.622C122.847 119.63 123.508 119.257 124.212 118.501C124.915 117.708 125.678 116.607 126.5 115.196C127.358 113.786 128.2 112.248 129.025 110.582C129.85 108.916 130.658 107.214 131.448 105.475C132.274 103.699 133.045 102.051 133.759 100.53C133.764 100.129 133.678 99.7628 133.5 99.4322C133.323 99.0651 132.924 98.9502 132.302 99.0874C131.278 99.292 130.269 99.7703 129.274 100.522C128.315 101.275 127.409 102.21 126.555 103.329C125.738 104.411 124.974 105.622 124.262 106.961C123.588 108.264 122.986 109.587 122.457 110.929C121.965 112.235 121.565 113.487 121.257 114.686C120.985 115.885 120.842 116.941 120.83 117.852ZM144.153 124.028C144.431 122.354 144.624 120.26 144.732 117.746C144.876 115.232 144.95 112.553 144.953 109.709C144.992 106.866 144.978 103.93 144.911 100.903C144.843 97.8757 144.737 95.012 144.592 92.3118C144.448 89.5752 144.263 87.1297 144.038 84.9753C143.849 82.8214 143.635 81.123 143.397 79.88C143.728 79.6658 144.004 79.5056 144.224 79.3992C144.482 79.2569 144.774 79.1881 145.102 79.1926C145.357 79.1962 145.575 79.2539 145.756 79.3658C145.937 79.4412 146.081 79.6255 146.186 79.9186C146.816 87.0739 147.208 94.2805 147.363 101.539C147.554 108.797 147.673 116.018 147.719 123.202C147.715 123.53 147.708 123.986 147.7 124.569C147.693 125.116 147.67 125.407 147.633 125.443C147.119 125.691 146.662 125.812 146.261 125.807C145.861 125.765 145.498 125.65 145.172 125.464C144.847 125.24 144.595 125 144.416 124.742C144.238 124.484 144.15 124.246 144.153 124.028ZM152.425 115.118C152.243 115.152 151.968 115.203 151.603 115.271C151.237 115.338 150.854 115.351 150.454 115.309C150.053 115.267 149.708 115.153 149.419 114.967C149.094 114.78 148.934 114.468 148.94 114.03C148.944 113.775 149.001 113.594 149.112 113.486C149.223 113.378 149.407 113.216 149.665 113.001C150.476 112.356 151.163 111.527 151.724 110.514C152.321 109.465 152.865 108.36 153.356 107.2C153.846 106.004 154.355 104.826 154.881 103.666C155.445 102.471 156.079 101.404 156.785 100.466C157.491 99.5277 158.358 98.774 159.387 98.2049C160.416 97.6358 161.677 97.3798 163.171 97.437C163.791 97.4456 164.482 97.601 165.243 97.9032C166.005 98.2055 166.71 98.6163 167.359 99.1358C168.009 99.6188 168.548 100.21 168.975 100.908C169.403 101.607 169.611 102.376 169.6 103.214C169.778 103.508 169.59 103.925 169.036 104.464C168.518 105.004 167.798 105.596 166.878 106.239C165.958 106.846 164.91 107.488 163.734 108.165C162.595 108.805 161.492 109.41 160.427 109.978C159.362 110.547 158.425 111.044 157.617 111.471C156.809 111.897 156.276 112.218 156.018 112.433C155.83 112.795 155.679 113.212 155.563 113.685C155.447 114.157 155.349 114.611 155.27 115.048C155.228 115.448 155.187 115.831 155.145 116.195C155.141 116.523 155.137 116.778 155.134 116.96C155.125 117.653 155.078 118.418 154.993 119.255C154.945 120.093 154.971 120.896 155.069 121.663C155.205 122.394 155.506 123.018 155.973 123.535C156.44 124.016 157.239 124.264 158.369 124.279C159.572 124.296 160.706 124.02 161.772 123.451C162.838 122.846 163.832 122.113 164.756 121.25C165.679 120.388 166.513 119.452 167.256 118.441C168.035 117.431 168.723 116.492 169.318 115.625C169.951 114.723 170.508 113.983 170.99 113.406C171.472 112.83 171.877 112.543 172.205 112.548C172.57 112.553 172.951 112.631 173.35 112.783C173.786 112.898 174.001 113.193 173.994 113.667C173.985 114.323 173.701 115.103 173.142 116.007C172.619 116.911 171.913 117.867 171.024 118.876C170.171 119.885 169.172 120.892 168.028 121.897C166.921 122.866 165.797 123.744 164.655 124.53C163.515 125.28 162.394 125.903 161.293 126.398C160.193 126.857 159.224 127.08 158.385 127.069C156.745 127.046 155.511 126.628 154.684 125.814C153.856 125.001 153.269 123.99 152.921 122.782C152.609 121.574 152.445 120.296 152.427 118.946C152.446 117.561 152.446 116.285 152.425 115.118ZM162.692 100.493C162.072 100.485 161.411 100.785 160.71 101.395C160.009 101.969 159.343 102.689 158.711 103.555C158.116 104.386 157.612 105.254 157.198 106.16C156.822 107.03 156.629 107.756 156.621 108.339C157.168 108.347 157.955 108.157 158.981 107.771C160.044 107.348 161.091 106.834 162.12 106.228C163.149 105.622 164.051 104.979 164.827 104.297C165.602 103.614 165.994 102.964 166.002 102.344C166.007 102.016 165.883 101.741 165.631 101.518C165.379 101.296 165.071 101.109 164.709 100.959C164.383 100.808 164.038 100.694 163.674 100.616C163.311 100.538 162.983 100.497 162.692 100.493ZM201.714 141.999C202.168 138.177 202.437 134.534 202.522 131.071C202.642 127.646 202.671 124.255 202.608 120.9C202.581 117.545 202.501 114.153 202.366 110.724C202.231 107.294 202.172 103.666 202.189 99.8373C202.305 99.3285 202.438 98.9474 202.588 98.6943C202.774 98.4052 203.231 98.3386 203.958 98.4945C204.721 98.6874 205.17 99.1312 205.306 99.8258C205.443 100.484 205.469 101.232 205.385 102.069C205.3 102.907 205.179 103.744 205.022 104.58C204.864 105.417 204.855 106.091 204.994 106.603C206.172 105.781 207.424 104.923 208.749 104.03C210.074 103.137 211.452 102.354 212.883 101.681C214.315 100.972 215.799 100.463 217.334 100.157C218.87 99.8133 220.402 99.8163 221.928 100.166C223.818 100.629 225.121 101.304 225.838 102.189C226.592 103.038 226.87 104.026 226.672 105.154C226.511 106.245 225.984 107.459 225.09 108.796C224.197 110.096 223.103 111.412 221.809 112.743C220.514 114.074 219.074 115.385 217.488 116.676C215.902 117.967 214.354 119.167 212.844 120.276C211.334 121.349 209.917 122.296 208.593 123.116C207.306 123.937 206.277 124.542 205.505 124.933C205.463 125.37 205.399 126.061 205.313 127.008C205.263 127.919 205.194 128.957 205.105 130.123C205.053 131.289 204.981 132.509 204.89 133.784C204.836 135.06 204.765 136.28 204.676 137.446C204.623 138.612 204.554 139.65 204.468 140.56C204.419 141.471 204.392 142.145 204.386 142.583C204.312 142.618 204.184 142.653 204.001 142.687C203.819 142.721 203.6 142.736 203.344 142.732C203.089 142.765 202.852 142.78 202.633 142.777C202.414 142.811 202.268 142.809 202.195 142.771C202.086 142.77 201.978 142.659 201.872 142.439C201.765 142.255 201.712 142.108 201.714 141.999ZM205.191 112.075C205.075 112.584 205.03 113.222 205.055 113.988C205.118 114.718 205.18 115.503 205.242 116.342C205.34 117.146 205.438 117.931 205.537 118.698C205.636 119.465 205.7 120.122 205.729 120.67C207.129 119.632 208.747 118.578 210.585 117.51C212.46 116.442 214.262 115.282 215.993 114.03C217.761 112.778 219.33 111.378 220.701 109.829C222.071 108.28 222.989 106.525 223.454 104.562C223.61 103.799 223.544 103.287 223.256 103.028C223.005 102.733 222.552 102.526 221.897 102.408C220.516 102.097 218.929 102.184 217.135 102.67C215.343 103.119 213.601 103.806 211.911 104.73C210.257 105.655 208.802 106.766 207.544 108.061C206.286 109.356 205.502 110.694 205.191 112.075ZM229.127 101.633L229.134 101.195C229.139 100.831 229.27 100.577 229.527 100.435C229.821 100.293 230.15 100.225 230.514 100.23C230.806 100.234 231.079 100.274 231.333 100.351C231.588 100.391 231.785 100.594 231.926 100.96C232.028 101.509 232.127 102.276 232.222 103.262C232.319 104.211 232.432 105.27 232.561 106.439C232.691 107.607 232.819 108.849 232.947 110.163C233.112 111.441 233.259 112.665 233.388 113.834C233.555 114.966 233.723 115.989 233.893 116.903C234.062 117.817 234.253 118.513 234.466 118.99C234.405 115.488 234.556 112.464 234.919 109.917C235.283 107.333 235.932 105.246 236.866 103.654C237.836 102.027 239.128 100.914 240.741 100.317C242.39 99.6835 244.434 99.566 246.871 99.9644C248.001 99.98 248.558 100.589 248.541 101.792C248.535 102.266 248.22 102.59 247.598 102.764C246.976 102.901 246.282 103.001 245.515 103.063C244.749 103.089 244.001 103.133 243.271 103.196C242.541 103.259 242.01 103.434 241.678 103.721C240.355 104.432 239.41 105.549 238.842 107.073C238.31 108.597 237.921 110.396 237.673 112.471C237.426 114.546 237.23 116.822 237.087 119.299C236.98 121.741 236.708 124.253 236.271 126.836C236.266 127.2 236.116 127.472 235.822 127.65C235.528 127.828 235.162 127.914 234.725 127.908C234.324 127.903 233.924 127.806 233.526 127.618C233.164 127.431 232.876 127.153 232.662 126.786L229.127 101.633ZM251.012 120.805C250.78 119.125 250.675 117.501 250.697 115.933C250.719 114.329 250.833 112.708 251.038 111.07C251.279 109.433 251.594 107.742 251.983 105.997C252.409 104.216 252.891 102.308 253.43 100.274C253.435 99.873 253.55 99.51 253.773 99.1849C253.997 98.8234 254.293 98.5358 254.66 98.3222C255.028 98.072 255.414 97.8768 255.817 97.7366C256.22 97.5963 256.604 97.5287 256.968 97.5338C257.77 97.5449 258.496 97.8102 259.145 98.3296C259.794 98.8491 260.369 99.4769 260.869 100.213C261.406 100.95 261.85 101.74 262.203 102.583C262.593 103.391 262.912 104.088 263.159 104.675C263.433 105.955 263.613 107.416 263.7 109.058C263.823 110.664 263.819 112.305 263.686 113.98C263.554 115.655 263.275 117.311 262.852 118.945C262.428 120.544 261.843 122.013 261.095 123.351C260.347 124.69 259.384 125.807 258.205 126.702C257.062 127.598 255.705 128.144 254.135 128.341C253.296 128.33 252.662 128.047 252.232 127.494C251.803 126.905 251.484 126.208 251.277 125.403C251.106 124.562 251.008 123.722 250.983 122.883C250.995 122.044 251.005 121.352 251.012 120.805ZM253.803 120.68C253.798 121.044 253.794 121.39 253.789 121.719C253.821 122.047 253.853 122.376 253.885 122.704C253.954 122.997 254.022 123.326 254.09 123.692C254.195 124.021 254.317 124.406 254.457 124.845L254.785 124.85C255.66 124.862 256.411 124.581 257.039 124.006C257.667 123.431 258.206 122.691 258.656 121.786C259.106 120.844 259.485 119.81 259.793 118.684C260.1 117.522 260.335 116.395 260.496 115.303C260.694 114.176 260.817 113.138 260.867 112.191C260.954 111.207 261.001 110.424 261.009 109.841L261.024 108.747C261.031 108.273 261.02 107.745 260.991 107.161C260.964 106.541 260.899 105.92 260.798 105.299C260.735 104.641 260.615 104.056 260.44 103.543C260.265 102.994 260.034 102.553 259.747 102.221C259.46 101.889 259.08 101.72 258.606 101.713C257.807 101.447 257.114 101.492 256.526 101.848C255.974 102.205 255.509 102.819 255.133 103.689C254.793 104.523 254.523 105.558 254.324 106.795C254.125 108.032 253.996 109.397 253.939 110.891C253.882 112.386 253.842 113.971 253.818 115.648C253.832 117.326 253.827 119.003 253.803 120.68ZM266.066 115.927C266.193 114.616 266.322 113.196 266.453 111.667C266.584 110.101 266.77 108.553 267.009 107.025C267.286 105.498 267.616 104.044 268 102.664C268.42 101.284 268.947 100.07 269.582 99.0212C270.253 97.9367 271.067 97.0911 272.023 96.4845C272.98 95.8414 274.133 95.5475 275.481 95.6026C276.392 95.6153 277.08 96.0076 277.543 96.7798C278.043 97.5524 278.376 98.4868 278.543 99.583C278.747 100.68 278.841 101.811 278.825 102.978C278.845 104.108 278.851 105.038 278.841 105.767C278.111 105.757 277.514 105.439 277.049 104.813C276.584 104.15 276.23 103.398 275.986 102.556C275.743 101.714 275.572 100.891 275.474 100.087L275.332 98.4993C275.295 98.4988 275.222 98.4978 275.113 98.4962C275.04 98.4588 274.986 98.4398 274.95 98.4393C274.33 98.4307 273.742 98.7689 273.185 99.454C272.665 100.14 272.161 101.026 271.672 102.113C271.22 103.164 270.82 104.362 270.473 105.706C270.127 107.014 269.836 108.304 269.599 109.577C269.363 110.85 269.164 112.032 269.003 113.124C268.879 114.18 268.813 114.999 268.805 115.582C268.719 116.529 268.705 117.568 268.762 118.699C268.819 119.83 269.023 120.891 269.374 121.88C269.725 122.869 270.224 123.733 270.87 124.471C271.516 125.173 272.385 125.659 273.475 125.929C274.824 125.948 275.92 125.781 276.763 125.428C277.607 125.075 278.288 124.592 278.807 123.98C279.362 123.367 279.791 122.681 280.093 121.919C280.396 121.158 280.68 120.378 280.946 119.579C281.249 118.745 281.552 117.929 281.855 117.131C282.158 116.333 282.588 115.591 283.144 114.906C283.583 114.803 283.893 114.825 284.073 114.974C284.29 115.086 284.434 115.252 284.503 115.472C284.573 115.692 284.606 115.947 284.602 116.239L284.594 116.84C284.573 118.371 284.297 119.844 283.767 121.259C283.237 122.674 282.472 123.939 281.472 125.056C280.472 126.136 279.275 127.012 277.88 127.686C276.523 128.323 274.969 128.63 273.219 128.606C271.761 128.585 270.546 128.113 269.574 127.188C268.639 126.227 267.908 125.086 267.379 123.766C266.887 122.447 266.541 121.075 266.342 119.65C266.144 118.189 266.052 116.948 266.066 115.927ZM289.514 117.018C289.331 117.052 289.057 117.103 288.691 117.171C288.326 117.238 287.943 117.251 287.542 117.209C287.142 117.167 286.797 117.053 286.508 116.867C286.182 116.68 286.022 116.368 286.029 115.93C286.032 115.675 286.089 115.494 286.2 115.386C286.311 115.278 286.496 115.117 286.754 114.901C287.565 114.256 288.251 113.427 288.812 112.414C289.41 111.365 289.954 110.26 290.444 109.1C290.935 107.904 291.443 106.726 291.97 105.566C292.533 104.371 293.168 103.304 293.874 102.366C294.579 101.428 295.447 100.674 296.475 100.105C297.504 99.5358 298.766 99.2798 300.26 99.337C300.88 99.3456 301.57 99.501 302.332 99.8033C303.093 100.106 303.799 100.516 304.448 101.036C305.097 101.519 305.636 102.11 306.064 102.808C306.492 103.507 306.7 104.276 306.688 105.114C306.866 105.408 306.678 105.825 306.124 106.364C305.606 106.904 304.887 107.496 303.966 108.139C303.046 108.746 301.998 109.388 300.822 110.065C299.683 110.705 298.581 111.31 297.515 111.878C296.45 112.447 295.514 112.944 294.705 113.371C293.897 113.797 293.364 114.118 293.106 114.333C292.919 114.695 292.767 115.112 292.651 115.585C292.535 116.057 292.438 116.512 292.359 116.948C292.317 117.348 292.275 117.731 292.234 118.095C292.229 118.423 292.225 118.678 292.223 118.86C292.213 119.553 292.166 120.318 292.082 121.155C292.034 121.993 292.059 122.796 292.158 123.563C292.293 124.294 292.595 124.918 293.062 125.435C293.529 125.916 294.328 126.164 295.458 126.179C296.661 126.196 297.795 125.92 298.86 125.351C299.926 124.746 300.921 124.013 301.844 123.15C302.768 122.288 303.601 121.352 304.344 120.341C305.124 119.331 305.811 118.392 306.407 117.526C307.039 116.623 307.596 115.883 308.078 115.306C308.56 114.73 308.965 114.443 309.294 114.448C309.658 114.453 310.04 114.531 310.439 114.683C310.875 114.798 311.089 115.093 311.083 115.567C311.074 116.223 310.789 117.003 310.23 117.907C309.707 118.811 309.001 119.767 308.112 120.776C307.259 121.785 306.261 122.792 305.117 123.797C304.009 124.766 302.885 125.644 301.744 126.43C300.603 127.18 299.482 127.803 298.382 128.298C297.282 128.757 296.312 128.98 295.474 128.969C293.833 128.946 292.599 128.528 291.772 127.714C290.945 126.901 290.357 125.89 290.009 124.682C289.698 123.474 289.533 122.196 289.515 120.846C289.535 119.461 289.534 118.185 289.514 117.018ZM299.78 102.393C299.16 102.385 298.5 102.685 297.799 103.295C297.098 103.869 296.432 104.589 295.8 105.455C295.205 106.286 294.7 107.154 294.287 108.06C293.91 108.93 293.718 109.656 293.71 110.239C294.257 110.247 295.043 110.057 296.069 109.671C297.133 109.248 298.179 108.734 299.208 108.128C300.238 107.522 301.14 106.879 301.915 106.197C302.69 105.515 303.082 104.864 303.091 104.244C303.095 103.916 302.971 103.641 302.719 103.418C302.467 103.196 302.16 103.01 301.797 102.859C301.471 102.708 301.126 102.594 300.763 102.516C300.399 102.438 300.072 102.397 299.78 102.393ZM317.96 128.405C317.96 128.442 318.346 128.228 319.118 127.765C319.926 127.302 320.864 126.696 321.932 125.945C323.037 125.158 324.161 124.316 325.304 123.421C326.447 122.489 327.389 121.608 328.129 120.78C328.87 119.952 329.263 119.246 329.307 118.663C329.389 118.045 328.902 117.637 327.848 117.44C326.538 117.239 325.426 117.242 324.511 117.448C323.633 117.655 322.828 117.899 322.095 118.18C321.361 118.462 320.665 118.726 320.005 118.972C319.382 119.219 318.688 119.3 317.924 119.217C316.32 119.194 315.214 118.687 314.608 117.694C314.039 116.665 313.767 115.294 313.79 113.581C313.814 111.867 314.219 110.25 315.006 108.73C315.793 107.173 316.796 105.838 318.015 104.724C319.234 103.611 320.631 102.737 322.208 102.102C323.785 101.431 325.394 101.107 327.034 101.13C327.691 101.139 328.255 101.202 328.727 101.318C329.2 101.434 329.431 101.856 329.421 102.585C329.414 103.096 329.188 103.585 328.744 104.053C328.301 104.484 327.805 104.696 327.259 104.688C327.222 104.688 327.131 104.668 326.986 104.63C326.841 104.555 326.697 104.462 326.552 104.35C326.408 104.239 326.263 104.164 326.118 104.126C325.973 104.051 325.882 104.013 325.846 104.012C324.684 103.668 323.552 103.816 322.449 104.458C321.346 105.099 320.349 105.978 319.459 107.096C318.605 108.178 317.914 109.372 317.386 110.677C316.858 111.946 316.586 113.091 316.572 114.111C316.567 114.512 316.635 114.841 316.777 115.099C316.957 115.32 317.173 115.487 317.427 115.6C317.717 115.713 318.026 115.791 318.353 115.832C318.718 115.837 319.082 115.842 319.447 115.847C320.176 115.857 320.907 115.758 321.639 115.549C322.407 115.341 323.14 115.096 323.837 114.814C324.57 114.532 325.302 114.287 326.035 114.078C326.803 113.87 327.588 113.772 328.39 113.783C328.755 113.788 329.155 113.903 329.589 114.128C330.024 114.316 330.421 114.613 330.78 115.019C331.139 115.389 331.443 115.831 331.691 116.345C331.94 116.822 332.078 117.353 332.107 117.936C332.318 118.45 332.236 119.123 331.86 119.957C331.52 120.791 330.997 121.677 330.292 122.615C329.586 123.553 328.734 124.507 327.736 125.478C326.739 126.412 325.742 127.274 324.747 128.062C323.752 128.814 322.777 129.42 321.823 129.881C320.868 130.378 320.063 130.604 319.407 130.558C318.678 130.548 318.244 130.324 318.104 129.884C318.001 129.445 317.953 128.952 317.96 128.405ZM338.466 128.69C338.466 128.726 338.851 128.513 339.624 128.049C340.432 127.587 341.37 126.98 342.438 126.229C343.543 125.442 344.667 124.601 345.809 123.705C346.953 122.773 347.895 121.893 348.635 121.064C349.376 120.236 349.769 119.53 349.813 118.948C349.895 118.329 349.408 117.921 348.353 117.724C347.044 117.524 345.931 117.526 345.017 117.732C344.139 117.939 343.334 118.183 342.6 118.465C341.867 118.746 341.171 119.01 340.511 119.256C339.888 119.503 339.194 119.584 338.429 119.501C336.825 119.479 335.72 118.971 335.114 117.978C334.545 116.949 334.272 115.578 334.296 113.865C334.32 112.151 334.725 110.534 335.512 109.014C336.299 107.457 337.302 106.122 338.521 105.008C339.74 103.895 341.137 103.021 342.714 102.387C344.291 101.716 345.9 101.392 347.54 101.414C348.196 101.423 348.761 101.486 349.233 101.602C349.706 101.718 349.937 102.14 349.927 102.869C349.92 103.38 349.694 103.869 349.25 104.337C348.806 104.768 348.311 104.98 347.764 104.972C347.728 104.972 347.637 104.952 347.492 104.914C347.347 104.839 347.202 104.746 347.058 104.635C346.914 104.523 346.769 104.448 346.624 104.41C346.479 104.335 346.388 104.297 346.352 104.297C345.19 103.952 344.057 104.101 342.955 104.742C341.852 105.383 340.855 106.262 339.965 107.38C339.111 108.462 338.42 109.656 337.891 110.961C337.363 112.23 337.092 113.375 337.078 114.396C337.073 114.797 337.141 115.126 337.283 115.383C337.462 115.604 337.679 115.771 337.933 115.884C338.223 115.998 338.532 116.075 338.859 116.116C339.224 116.121 339.588 116.126 339.953 116.131C340.682 116.141 341.413 116.042 342.145 115.833C342.913 115.625 343.646 115.38 344.343 115.098C345.076 114.816 345.808 114.571 346.54 114.363C347.309 114.155 348.094 114.056 348.896 114.067C349.261 114.072 349.66 114.187 350.095 114.412C350.53 114.6 350.927 114.897 351.286 115.304C351.645 115.673 351.949 116.115 352.197 116.629C352.446 117.106 352.584 117.637 352.613 118.221C352.824 118.734 352.742 119.407 352.366 120.241C352.026 121.075 351.503 121.961 350.798 122.899C350.092 123.837 349.24 124.792 348.242 125.762C347.245 126.697 346.248 127.558 345.253 128.346C344.258 129.098 343.283 129.704 342.329 130.165C341.374 130.662 340.569 130.888 339.913 130.843C339.184 130.833 338.749 130.608 338.61 130.168C338.506 129.729 338.459 129.236 338.466 128.69ZM67.1861 190.139C67.6402 186.317 67.9094 182.674 67.9939 179.212C68.1143 175.786 68.143 172.395 68.0802 169.04C68.0537 165.685 67.9731 162.293 67.8384 158.864C67.7036 155.435 67.6445 151.806 67.6611 147.978C67.7775 147.469 67.9104 147.088 68.0598 146.835C68.2461 146.545 68.7028 146.479 69.4299 146.635C70.1929 146.828 70.6425 147.271 70.7787 147.966C70.9154 148.624 70.9415 149.372 70.857 150.21C70.7725 151.047 70.6515 151.884 70.4941 152.72C70.3366 153.557 70.3273 154.231 70.466 154.744C71.6442 153.921 72.8958 153.064 74.2208 152.17C75.5458 151.277 76.924 150.494 78.3553 149.821C79.7871 149.112 81.2709 148.604 82.8065 148.297C84.3427 147.954 85.8741 147.957 87.4006 148.306C89.2902 148.77 90.5935 149.444 91.3104 150.329C92.0644 151.178 92.3424 152.166 92.1444 153.294C91.9835 154.386 91.4562 155.6 90.5626 156.936C89.6695 158.237 88.5756 159.552 87.281 160.884C85.9864 162.215 84.5462 163.526 82.9604 164.816C81.3747 166.107 79.8267 167.307 78.3163 168.416C76.8065 169.489 75.3896 170.436 74.0656 171.256C72.7781 172.077 71.7488 172.682 70.9777 173.073C70.9352 173.51 70.8709 174.202 70.7848 175.148C70.7357 176.059 70.6667 177.098 70.5776 178.263C70.525 179.429 70.4533 180.65 70.3628 181.925C70.3086 183.2 70.237 184.42 70.1479 185.586C70.0953 186.752 70.0262 187.79 69.9407 188.701C69.8916 189.611 69.864 190.286 69.858 190.723C69.7845 190.758 69.6564 190.793 69.4737 190.827C69.2909 190.861 69.0719 190.876 68.8167 190.873C68.561 190.906 68.3238 190.921 68.1051 190.918C67.8859 190.951 67.74 190.949 67.6676 190.911C67.5583 190.91 67.4504 190.799 67.3441 190.579C67.2373 190.395 67.1846 190.248 67.1861 190.139ZM70.6636 160.216C70.5472 160.725 70.5019 161.362 70.5277 162.128C70.5906 162.858 70.6526 163.643 70.7139 164.482C70.8121 165.286 70.9106 166.071 71.0094 166.838C71.1081 167.605 71.172 168.263 71.2008 168.81C72.6008 167.772 74.2197 166.719 76.0576 165.65C77.9319 164.582 79.7347 163.422 81.4657 162.17C83.2332 160.919 84.8023 159.518 86.1728 157.969C87.5434 156.421 88.461 154.665 88.9258 152.702C89.0822 151.939 89.0164 151.427 88.7283 151.168C88.4771 150.873 88.0242 150.666 87.3695 150.548C85.9883 150.237 84.401 150.324 82.6076 150.81C80.8148 151.259 79.0733 151.946 77.3833 152.871C75.7297 153.796 74.274 154.906 73.0164 156.201C71.7587 157.496 70.9745 158.834 70.6636 160.216ZM95.9839 164.34C95.8011 164.374 95.527 164.425 95.1614 164.493C94.7958 164.561 94.4128 164.574 94.0123 164.532C93.6118 164.49 93.267 164.376 92.9779 164.189C92.6523 164.003 92.4926 163.69 92.4986 163.253C92.5022 162.998 92.5594 162.816 92.6703 162.708C92.7811 162.601 92.9657 162.439 93.2239 162.224C94.035 161.579 94.721 160.75 95.282 159.736C95.8799 158.687 96.424 157.583 96.914 156.423C97.4046 155.226 97.9132 154.048 98.4397 152.889C99.0032 151.694 99.6379 150.627 100.344 149.688C101.049 148.75 101.917 147.997 102.946 147.427C103.974 146.858 105.236 146.602 106.73 146.659C107.35 146.668 108.04 146.824 108.802 147.126C109.563 147.428 110.269 147.839 110.918 148.358C111.567 148.841 112.106 149.432 112.534 150.131C112.962 150.83 113.17 151.598 113.158 152.437C113.337 152.731 113.148 153.148 112.594 153.687C112.076 154.227 111.357 154.818 110.436 155.462C109.517 156.069 108.468 156.711 107.292 157.387C106.153 158.028 105.051 158.632 103.986 159.201C102.92 159.769 101.984 160.267 101.176 160.693C100.368 161.12 99.8344 161.44 99.5761 161.656C99.3888 162.018 99.2372 162.435 99.1213 162.907C99.0053 163.38 98.9079 163.834 98.8289 164.27C98.7869 164.671 98.7451 165.053 98.7036 165.417C98.6991 165.745 98.6955 166.001 98.693 166.183C98.6834 166.875 98.6363 167.64 98.5518 168.478C98.5037 169.316 98.5291 170.118 98.6278 170.885C98.7635 171.617 99.0648 172.241 99.5317 172.758C99.999 173.238 100.798 173.486 101.928 173.502C103.131 173.518 104.265 173.242 105.33 172.674C106.396 172.069 107.391 171.335 108.314 170.473C109.238 169.611 110.071 168.674 110.814 167.663C111.594 166.653 112.282 165.715 112.877 164.848C113.509 163.945 114.066 163.205 114.548 162.629C115.03 162.052 115.436 161.766 115.764 161.771C116.128 161.776 116.51 161.854 116.909 162.005C117.345 162.121 117.56 162.415 117.553 162.889C117.544 163.545 117.26 164.325 116.7 165.229C116.177 166.133 115.471 167.09 114.582 168.099C113.729 169.108 112.731 170.115 111.587 171.12C110.479 172.089 109.355 172.967 108.214 173.753C107.073 174.503 105.953 175.125 104.852 175.621C103.752 176.079 102.782 176.303 101.944 176.291C100.303 176.269 99.0695 175.85 98.2421 175.037C97.4148 174.223 96.8272 173.212 96.4793 172.004C96.1679 170.797 96.0033 169.518 95.9855 168.169C96.0047 166.784 96.0042 165.507 95.9839 164.34ZM106.25 149.716C105.63 149.707 104.97 150.008 104.269 150.618C103.568 151.192 102.902 151.912 102.27 152.778C101.675 153.608 101.171 154.476 100.757 155.382C100.38 156.252 100.188 156.979 100.18 157.562C100.727 157.57 101.513 157.38 102.539 156.993C103.603 156.57 104.649 156.056 105.678 155.45C106.708 154.845 107.61 154.201 108.385 153.519C109.16 152.837 109.552 152.186 109.561 151.566C109.565 151.238 109.441 150.963 109.189 150.741C108.937 150.519 108.63 150.332 108.267 150.181C107.941 150.031 107.596 149.917 107.233 149.839C106.869 149.761 106.542 149.72 106.25 149.716ZM120.464 150.131L120.47 149.694C120.476 149.329 120.607 149.076 120.864 148.934C121.158 148.792 121.487 148.724 121.851 148.729C122.143 148.733 122.416 148.773 122.67 148.849C122.925 148.889 123.122 149.093 123.263 149.459C123.365 150.008 123.464 150.775 123.559 151.76C123.656 152.71 123.769 153.769 123.898 154.937C124.028 156.106 124.156 157.347 124.284 158.662C124.449 159.94 124.596 161.164 124.725 162.332C124.892 163.465 125.06 164.488 125.23 165.402C125.399 166.316 125.59 167.011 125.803 167.488C125.742 163.987 125.893 160.963 126.256 158.416C126.62 155.832 127.269 153.744 128.203 152.153C129.173 150.526 130.465 149.413 132.078 148.816C133.727 148.182 135.771 148.065 138.208 148.463C139.338 148.479 139.895 149.088 139.878 150.291C139.872 150.765 139.557 151.089 138.935 151.263C138.313 151.4 137.619 151.5 136.852 151.562C136.086 151.588 135.338 151.632 134.608 151.695C133.878 151.758 133.347 151.933 133.015 152.22C131.692 152.931 130.747 154.048 130.179 155.571C129.647 157.095 129.258 158.895 129.01 160.97C128.763 163.045 128.567 165.321 128.423 167.798C128.317 170.24 128.045 172.752 127.608 175.334C127.603 175.699 127.453 175.97 127.159 176.149C126.865 176.327 126.499 176.413 126.062 176.407C125.661 176.401 125.261 176.305 124.863 176.117C124.501 175.929 124.213 175.652 123.999 175.284L120.464 150.131ZM167.683 164.568C167.81 163.258 167.94 161.837 168.07 160.308C168.201 158.742 168.387 157.195 168.627 155.667C168.903 154.139 169.233 152.685 169.617 151.305C170.037 149.925 170.564 148.711 171.199 147.662C171.87 146.578 172.684 145.732 173.64 145.126C174.597 144.483 175.75 144.189 177.098 144.244C178.01 144.256 178.697 144.649 179.16 145.421C179.66 146.194 179.994 147.128 180.161 148.224C180.364 149.321 180.458 150.452 180.442 151.619C180.463 152.75 180.468 153.679 180.458 154.409C179.729 154.398 179.131 154.08 178.666 153.454C178.201 152.791 177.847 152.039 177.604 151.197C177.36 150.355 177.189 149.532 177.091 148.729L176.949 147.14C176.912 147.14 176.839 147.139 176.73 147.137C176.658 147.1 176.603 147.081 176.567 147.081C175.947 147.072 175.359 147.41 174.803 148.095C174.283 148.781 173.778 149.667 173.289 150.754C172.837 151.805 172.437 153.003 172.091 154.347C171.744 155.655 171.453 156.945 171.217 158.218C170.98 159.491 170.781 160.674 170.621 161.765C170.496 162.821 170.43 163.64 170.422 164.224C170.336 165.17 170.322 166.209 170.379 167.34C170.436 168.472 170.64 169.532 170.991 170.521C171.342 171.51 171.841 172.374 172.487 173.112C173.133 173.814 174.002 174.3 175.092 174.571C176.441 174.589 177.537 174.422 178.38 174.069C179.224 173.716 179.905 173.233 180.424 172.621C180.98 172.009 181.408 171.322 181.711 170.56C182.013 169.799 182.297 169.019 182.563 168.22C182.867 167.386 183.17 166.57 183.472 165.772C183.775 164.974 184.205 164.232 184.761 163.547C185.2 163.444 185.51 163.466 185.69 163.615C185.907 163.727 186.051 163.893 186.121 164.113C186.191 164.333 186.224 164.588 186.219 164.88L186.211 165.482C186.19 167.013 185.914 168.486 185.384 169.9C184.854 171.315 184.089 172.58 183.089 173.697C182.09 174.777 180.893 175.654 179.498 176.327C178.14 176.965 176.586 177.271 174.836 177.247C173.378 177.227 172.163 176.754 171.191 175.829C170.257 174.868 169.525 173.728 168.996 172.408C168.504 171.088 168.159 169.716 167.96 168.291C167.761 166.83 167.669 165.589 167.683 164.568ZM189.431 169.956C189.199 168.276 189.094 166.652 189.115 165.084C189.138 163.48 189.251 161.859 189.456 160.221C189.698 158.584 190.013 156.893 190.402 155.148C190.827 153.367 191.31 151.46 191.848 149.425C191.854 149.024 191.968 148.661 192.192 148.336C192.415 147.975 192.711 147.687 193.079 147.473C193.447 147.223 193.832 147.028 194.235 146.888C194.638 146.748 195.022 146.68 195.387 146.685C196.189 146.696 196.914 146.961 197.563 147.481C198.212 148 198.787 148.628 199.287 149.364C199.824 150.101 200.269 150.891 200.622 151.735C201.012 152.542 201.33 153.239 201.577 153.826C201.851 155.106 202.032 156.567 202.118 158.209C202.242 159.815 202.237 161.456 202.105 163.131C201.972 164.807 201.694 166.462 201.27 168.097C200.847 169.695 200.261 171.164 199.514 172.503C198.766 173.841 197.802 174.958 196.623 175.853C195.48 176.749 194.124 177.295 192.553 177.492C191.715 177.481 191.08 177.199 190.651 176.646C190.221 176.056 189.903 175.359 189.695 174.554C189.524 173.713 189.427 172.873 189.402 172.034C189.413 171.196 189.423 170.503 189.431 169.956ZM192.222 169.831C192.217 170.195 192.212 170.542 192.207 170.87C192.239 171.198 192.271 171.527 192.303 171.856C192.372 172.148 192.44 172.477 192.508 172.843C192.613 173.173 192.735 173.557 192.875 173.997L193.203 174.001C194.078 174.013 194.829 173.732 195.457 173.157C196.085 172.583 196.624 171.843 197.074 170.937C197.525 169.996 197.904 168.962 198.211 167.836C198.519 166.673 198.753 165.546 198.914 164.454C199.112 163.327 199.236 162.289 199.285 161.342C199.372 160.359 199.419 159.575 199.427 158.992L199.442 157.899C199.449 157.425 199.438 156.896 199.41 156.312C199.382 155.692 199.318 155.071 199.217 154.45C199.153 153.793 199.034 153.208 198.858 152.695C198.684 152.145 198.453 151.705 198.166 151.372C197.879 151.04 197.498 150.871 197.024 150.864C196.226 150.598 195.532 150.643 194.944 151C194.392 151.357 193.928 151.97 193.551 152.84C193.211 153.674 192.942 154.709 192.742 155.946C192.543 157.183 192.415 158.549 192.357 160.043C192.3 161.537 192.26 163.122 192.237 164.799C192.25 166.477 192.245 168.154 192.222 169.831ZM206.616 176.976C206.283 172.049 205.987 167.123 205.727 162.197C205.504 157.235 205.248 152.09 204.957 146.763C204.969 145.888 205.449 145.457 206.397 145.47L206.834 145.476C206.943 145.478 207.069 145.625 207.211 145.919C207.353 146.213 207.491 146.762 207.626 147.566C207.797 148.334 207.963 149.521 208.123 151.128C208.32 152.698 208.547 154.761 208.803 157.317C209.059 159.873 209.343 163.068 209.655 166.9C210.455 164.432 211.089 162.034 211.559 159.707C212.029 157.38 212.623 155.274 213.342 153.388C214.062 151.465 215.051 149.783 216.311 148.342C217.607 146.902 219.445 145.852 221.824 145.192C223.133 145.429 224.179 146.245 224.962 147.642C225.745 149.002 226.36 150.688 226.806 152.699C227.252 154.711 227.55 156.903 227.7 159.275C227.85 161.61 227.928 163.854 227.934 166.005C227.941 168.156 227.933 170.089 227.909 171.802C227.886 173.479 227.905 174.683 227.968 175.413C227.855 175.703 227.687 175.956 227.465 176.172C227.244 176.387 226.986 176.548 226.693 176.653C226.437 176.722 226.181 176.737 225.927 176.697C225.673 176.621 225.438 176.417 225.224 176.086C225.23 175.685 225.205 174.864 225.149 173.624C225.093 172.383 225.022 170.942 224.935 169.3C224.849 167.621 224.746 165.852 224.626 163.99C224.543 162.093 224.458 160.324 224.372 158.682C224.322 157.004 224.269 155.544 224.213 154.304C224.158 153.064 224.114 152.243 224.083 151.841C223.337 150.482 222.582 149.705 221.819 149.513C221.092 149.32 220.341 149.547 219.567 150.192C218.829 150.838 218.104 151.831 217.393 153.17C216.681 154.51 216.004 156.032 215.36 157.736C214.717 159.405 214.11 161.165 213.537 163.016C212.964 164.868 212.465 166.666 212.04 168.41C211.615 170.118 211.247 171.681 210.936 173.098C210.662 174.48 210.483 175.553 210.399 176.318C210.286 176.571 210.046 176.823 209.678 177.074C209.347 177.288 208.98 177.447 208.577 177.55C208.211 177.655 207.828 177.686 207.427 177.644C207.064 177.566 206.794 177.343 206.616 176.976ZM233.178 154.702C232.81 154.879 232.461 155.075 232.13 155.289C231.836 155.467 231.542 155.645 231.248 155.824C230.954 155.965 230.661 156.071 230.368 156.139C230.076 156.208 229.766 156.204 229.439 156.127C229.22 156.124 229.039 155.993 228.897 155.736C228.755 155.443 228.65 155.131 228.582 154.802C228.478 154.436 228.41 154.089 228.378 153.76C228.346 153.395 228.35 153.122 228.389 152.94L233.68 150.005L234.202 136.011C234.282 135.538 234.576 135.36 235.085 135.476C235.594 135.556 236.121 135.673 236.666 135.826C236.739 135.827 236.848 135.865 236.993 135.94C237.174 135.979 237.301 136.018 237.374 136.055C237.287 137.038 237.181 138.112 237.056 139.277C236.967 140.407 236.878 141.554 236.789 142.719C236.701 143.848 236.631 144.96 236.579 146.053C236.564 147.146 236.605 148.131 236.702 149.008L244.936 146.825C245.083 146.79 245.19 146.901 245.26 147.158C245.366 147.378 245.453 147.652 245.522 147.982C245.627 148.311 245.695 148.64 245.727 148.969C245.759 149.297 245.775 149.462 245.775 149.462L236.424 153.27C236.42 153.598 236.427 154.382 236.446 155.622C236.502 156.863 236.555 158.34 236.604 160.054C236.653 161.732 236.701 163.556 236.747 165.526C236.793 167.459 236.841 169.264 236.89 170.942C236.94 172.62 236.974 174.097 236.993 175.374C237.012 176.614 237.02 177.398 237.015 177.726C236.927 178.819 236.591 179.361 236.008 179.353C235.461 179.345 234.864 179.063 234.215 178.507L233.178 154.702ZM261.965 177.033C261.795 176.082 261.647 174.95 261.519 173.635C261.429 172.285 261.32 170.934 261.193 169.584C261.066 168.196 260.902 166.9 260.7 165.694C260.534 164.488 260.256 163.5 259.866 162.729C257.954 166.494 256.272 169.461 254.82 171.628C253.368 173.759 252.089 175.291 250.983 176.224C249.913 177.121 249.014 177.546 248.285 177.499C247.556 177.453 246.959 177.116 246.494 176.49C246.029 175.864 245.693 175.075 245.488 174.124C245.319 173.137 245.204 172.224 245.143 171.385C245.154 170.583 245.352 169.455 245.737 168.002C246.121 166.549 246.635 164.97 247.279 163.265C247.923 161.524 248.677 159.766 249.54 157.991C250.439 156.217 251.392 154.608 252.396 153.163C253.401 151.719 254.438 150.53 255.508 149.597C256.579 148.663 257.642 148.204 258.7 148.219C260.271 147.985 261.414 148.348 262.13 149.306C262.883 150.228 263.007 151.779 262.503 153.96C262.47 156.366 262.532 158.427 262.691 160.143C262.886 161.859 263.082 163.502 263.279 165.073C263.512 166.644 263.708 168.288 263.867 170.004C264.062 171.72 264.143 173.781 264.109 176.187C264.103 176.625 264.043 177.007 263.929 177.333C263.852 177.624 263.413 177.764 262.611 177.752C262.502 177.751 262.357 177.658 262.177 177.473C262.034 177.289 261.963 177.142 261.965 177.033ZM259.351 152.549C258.958 151.96 258.412 151.898 257.712 152.362C257.013 152.826 256.273 153.6 255.492 154.683C254.712 155.766 253.91 157.067 253.087 158.587C252.263 160.107 251.495 161.646 250.78 163.204C250.066 164.762 249.444 166.249 248.913 167.663C248.384 169.041 248.022 170.185 247.827 171.094C247.809 172.406 247.999 173.156 248.397 173.344C248.796 173.496 249.291 173.284 249.883 172.708C250.474 172.133 251.142 171.304 251.886 170.22C252.667 169.137 253.412 167.981 254.122 166.751C254.868 165.522 255.559 164.328 256.195 163.17C256.868 162.013 257.391 161.072 257.766 160.348C258.104 159.587 258.369 158.879 258.561 158.226C258.752 157.572 258.907 156.954 259.024 156.373C259.178 155.755 259.26 155.136 259.269 154.516C259.314 153.897 259.341 153.241 259.351 152.549ZM267.811 177.442C267.844 175.072 267.824 172.574 267.751 169.948C267.714 167.322 267.66 164.678 267.587 162.015C267.552 159.317 267.57 156.673 267.643 154.086C267.715 151.498 267.912 149.076 268.235 146.82C268.309 146.784 268.473 146.768 268.728 146.772C269.02 146.739 269.221 146.724 269.331 146.725C269.841 146.733 270.241 146.829 270.53 147.016C270.856 147.166 271.015 147.514 271.008 148.061C270.978 150.212 270.927 152.563 270.855 155.115C270.82 157.63 270.766 160.2 270.694 162.824C270.658 165.412 270.622 167.982 270.587 170.534C270.551 173.086 270.556 175.401 270.6 177.48C270.628 178.101 270.495 178.5 270.2 178.678C269.942 178.893 269.613 178.998 269.212 178.993C268.774 178.986 268.411 178.872 268.122 178.649C267.833 178.463 267.73 178.06 267.811 177.442ZM267.151 138.273C267.157 137.835 267.307 137.545 267.6 137.404C267.894 137.262 268.223 137.194 268.588 137.199C269.317 137.209 269.769 137.452 269.945 137.928C270.12 138.405 270.204 138.953 270.195 139.573C269.971 139.971 269.694 140.258 269.363 140.436C269.033 140.577 268.686 140.609 268.323 140.531C267.996 140.417 267.708 140.176 267.458 139.808C267.244 139.441 267.142 138.929 267.151 138.273ZM276.664 177.947C276.331 173.02 276.035 168.094 275.775 163.168C275.552 158.206 275.295 153.061 275.005 147.734C275.017 146.859 275.497 146.428 276.445 146.441L276.882 146.447C276.991 146.449 277.117 146.596 277.259 146.89C277.401 147.184 277.539 147.733 277.674 148.537C277.845 149.305 278.011 150.492 278.171 152.098C278.368 153.669 278.595 155.732 278.851 158.288C279.107 160.844 279.391 164.038 279.703 167.871C280.503 165.403 281.137 163.005 281.607 160.678C282.077 158.351 282.671 156.245 283.39 154.359C284.11 152.436 285.099 150.754 286.359 149.313C287.655 147.873 289.493 146.823 291.872 146.163C293.181 146.4 294.227 147.216 295.01 148.613C295.793 149.973 296.408 151.658 296.854 153.67C297.3 155.682 297.598 157.873 297.748 160.246C297.897 162.581 297.976 164.825 297.982 166.976C297.989 169.127 297.981 171.06 297.957 172.773C297.934 174.45 297.953 175.654 298.016 176.384C297.903 176.674 297.735 176.927 297.513 177.142C297.292 177.358 297.034 177.519 296.741 177.624C296.485 177.693 296.229 177.708 295.975 177.668C295.721 177.592 295.486 177.388 295.272 177.057C295.278 176.656 295.253 175.835 295.197 174.594C295.141 173.354 295.07 171.913 294.983 170.271C294.897 168.592 294.794 166.822 294.674 164.961C294.591 163.064 294.506 161.294 294.42 159.652C294.37 157.975 294.317 156.515 294.261 155.275C294.206 154.034 294.162 153.213 294.131 152.812C293.385 151.452 292.63 150.676 291.867 150.483C291.14 150.291 290.389 150.518 289.615 151.163C288.877 151.809 288.152 152.802 287.441 154.141C286.729 155.48 286.052 157.002 285.408 158.707C284.765 160.376 284.158 162.136 283.585 163.987C283.012 165.839 282.513 167.637 282.088 169.381C281.663 171.089 281.295 172.652 280.984 174.069C280.71 175.451 280.531 176.524 280.447 177.289C280.334 177.542 280.094 177.794 279.726 178.044C279.395 178.259 279.028 178.418 278.625 178.521C278.259 178.626 277.876 178.657 277.475 178.615C277.112 178.537 276.841 178.314 276.664 177.947ZM303.175 167.212C302.992 167.246 302.718 167.297 302.352 167.365C301.987 167.433 301.604 167.446 301.203 167.404C300.803 167.361 300.458 167.247 300.169 167.061C299.843 166.874 299.684 166.562 299.69 166.125C299.693 165.869 299.75 165.688 299.861 165.58C299.972 165.472 300.157 165.311 300.415 165.095C301.226 164.45 301.912 163.621 302.473 162.608C303.071 161.559 303.615 160.454 304.105 159.295C304.596 158.098 305.104 156.92 305.631 155.761C306.194 154.565 306.829 153.498 307.535 152.56C308.24 151.622 309.108 150.868 310.137 150.299C311.165 149.73 312.427 149.474 313.921 149.531C314.541 149.54 315.231 149.695 315.993 149.997C316.754 150.3 317.46 150.711 318.109 151.23C318.758 151.713 319.297 152.304 319.725 153.003C320.153 153.701 320.361 154.47 320.349 155.308C320.528 155.602 320.34 156.019 319.785 156.558C319.267 157.098 318.548 157.69 317.628 158.333C316.708 158.94 315.66 159.582 314.483 160.259C313.344 160.899 312.242 161.504 311.177 162.072C310.111 162.641 309.175 163.139 308.367 163.565C307.559 163.991 307.025 164.312 306.767 164.527C306.58 164.889 306.428 165.306 306.312 165.779C306.196 166.251 306.099 166.706 306.02 167.142C305.978 167.543 305.936 167.925 305.895 168.289C305.89 168.617 305.887 168.872 305.884 169.054C305.874 169.747 305.827 170.512 305.743 171.35C305.695 172.188 305.72 172.99 305.819 173.757C305.955 174.488 306.256 175.112 306.723 175.629C307.19 176.11 307.989 176.358 309.119 176.373C310.322 176.39 311.456 176.114 312.521 175.546C313.587 174.94 314.582 174.207 315.505 173.344C316.429 172.482 317.262 171.546 318.005 170.535C318.785 169.525 319.473 168.586 320.068 167.72C320.7 166.817 321.258 166.077 321.74 165.5C322.222 164.924 322.627 164.638 322.955 164.642C323.319 164.647 323.701 164.725 324.1 164.877C324.536 164.992 324.751 165.287 324.744 165.761C324.735 166.417 324.451 167.197 323.891 168.101C323.368 169.005 322.662 169.962 321.773 170.97C320.92 171.979 319.922 172.986 318.778 173.991C317.671 174.961 316.546 175.838 315.405 176.625C314.264 177.375 313.144 177.997 312.043 178.492C310.943 178.951 309.973 179.175 309.135 179.163C307.494 179.14 306.261 178.722 305.433 177.908C304.606 177.095 304.018 176.084 303.67 174.876C303.359 173.668 303.194 172.39 303.177 171.041C303.196 169.655 303.195 168.379 303.175 167.212ZM313.441 152.587C312.821 152.579 312.161 152.879 311.46 153.49C310.759 154.063 310.093 154.783 309.461 155.65C308.866 156.48 308.362 157.348 307.948 158.254C307.571 159.124 307.379 159.85 307.371 160.434C307.918 160.441 308.704 160.252 309.731 159.865C310.794 159.442 311.84 158.928 312.869 158.322C313.899 157.717 314.801 157.073 315.576 156.391C316.351 155.709 316.743 155.058 316.752 154.438C316.756 154.11 316.632 153.835 316.38 153.613C316.128 153.39 315.821 153.204 315.458 153.053C315.132 152.902 314.787 152.788 314.424 152.71C314.06 152.632 313.733 152.591 313.441 152.587ZM327.655 153.003L327.662 152.566C327.667 152.201 327.798 151.948 328.055 151.805C328.349 151.664 328.678 151.595 329.042 151.6C329.334 151.604 329.607 151.645 329.861 151.721C330.116 151.761 330.313 151.964 330.454 152.331C330.556 152.879 330.655 153.646 330.75 154.632C330.847 155.581 330.96 156.64 331.089 157.809C331.219 158.978 331.347 160.219 331.475 161.533C331.64 162.812 331.787 164.035 331.916 165.204C332.083 166.337 332.251 167.36 332.421 168.274C332.591 169.188 332.781 169.883 332.994 170.36C332.933 166.859 333.084 163.835 333.447 161.287C333.811 158.704 334.46 156.616 335.394 155.025C336.364 153.397 337.656 152.285 339.269 151.687C340.918 151.054 342.962 150.936 345.399 151.335C346.529 151.35 347.086 151.96 347.069 153.163C347.063 153.637 346.748 153.96 346.126 154.134C345.504 154.271 344.81 154.371 344.043 154.433C343.277 154.459 342.529 154.504 341.799 154.566C341.069 154.629 340.538 154.804 340.206 155.091C338.883 155.802 337.938 156.919 337.37 158.443C336.838 159.967 336.449 161.766 336.201 163.841C335.954 165.916 335.758 168.192 335.615 170.67C335.508 173.111 335.236 175.623 334.799 178.206C334.794 178.571 334.644 178.842 334.35 179.02C334.056 179.198 333.69 179.285 333.253 179.278C332.852 179.273 332.452 179.176 332.054 178.988C331.692 178.801 331.404 178.524 331.19 178.156L327.655 153.003Z" fill="#333333"/>
<path d="M272.99 432.127C273.612 431.581 273.674 430.633 273.127 430.01L264.22 419.866C263.673 419.243 262.726 419.182 262.103 419.728C261.481 420.275 261.419 421.223 261.966 421.845L269.883 430.863L260.866 438.78C260.244 439.327 260.182 440.275 260.729 440.897C261.275 441.52 262.223 441.581 262.846 441.034L272.99 432.127ZM181.503 182.913C177.5 251.466 180.487 312.432 194.191 356.941C207.902 401.471 232.507 429.939 271.903 432.497L272.097 429.503C234.493 427.061 210.597 400.029 197.059 356.059C183.514 312.068 180.501 251.534 184.498 183.087L181.503 182.913Z" fill="black"/>
<path d="M501.08 498.041C501.655 497.445 501.638 496.496 501.041 495.92L491.325 486.548C490.729 485.973 489.779 485.99 489.204 486.586C488.629 487.182 488.646 488.132 489.242 488.707L497.879 497.038L489.548 505.675C488.973 506.271 488.99 507.221 489.586 507.796C490.182 508.371 491.132 508.354 491.707 507.758L501.08 498.041ZM182.58 185.516C178.976 196.081 173.412 208.98 167.359 223.562C161.318 238.112 154.818 254.278 149.399 271.263C138.572 305.2 131.996 342.615 142.186 377.174C152.407 411.835 179.398 443.325 235.053 465.549C290.65 487.75 374.942 500.751 500.027 498.5L499.973 495.5C375.058 497.749 291.225 484.75 236.166 462.763C181.164 440.8 154.968 409.915 145.064 376.326C135.129 342.635 141.49 305.925 152.257 272.175C157.635 255.316 164.095 239.247 170.129 224.712C176.151 210.207 181.774 197.169 185.42 186.484L182.58 185.516Z" fill="black"/>
<path d="M826.427 512.538C826.172 511.75 825.326 511.318 824.538 511.573L811.694 515.731C810.906 515.987 810.474 516.832 810.729 517.621C810.985 518.409 811.83 518.841 812.619 518.586L824.035 514.889L827.731 526.306C827.987 527.094 828.832 527.526 829.621 527.271C830.409 527.015 830.841 526.17 830.586 525.382L826.427 512.538ZM180.834 185.056C99.5855 285.363 91.6189 370.886 127.863 439.032C164.006 506.99 243.887 557.191 337.286 587.552C430.735 617.929 538.019 628.548 629.374 617.098C720.619 605.661 796.48 572.128 826.336 513.682L823.664 512.318C794.52 569.372 720.006 602.714 629.001 614.121C538.105 625.514 431.265 614.946 338.213 584.698C245.112 554.434 166.118 504.573 130.511 437.624C95.0051 370.864 102.414 286.637 183.165 186.944L180.834 185.056Z" fill="black"/>
<path d="M610.988 793.129C611.611 792.583 611.674 791.635 611.128 791.012L602.236 780.854C601.69 780.231 600.743 780.168 600.119 780.714C599.496 781.26 599.433 782.207 599.979 782.831L607.883 791.859L598.854 799.764C598.231 800.31 598.168 801.257 598.714 801.88C599.259 802.504 600.207 802.567 600.83 802.021L610.988 793.129ZM181.227 184.715C69.8181 251.761 48.9358 395.761 119.805 526.838C190.715 657.99 353.475 776.468 609.901 793.497L610.099 790.503C354.525 773.532 192.785 655.51 122.444 525.412C52.0642 395.239 73.1819 253.239 182.773 187.285L181.227 184.715Z" fill="black"/>
<path d="M390.04 819.08C390.637 818.506 390.655 817.556 390.08 816.959L380.715 807.236C380.141 806.639 379.191 806.621 378.594 807.196C377.998 807.771 377.98 808.72 378.555 809.317L386.879 817.96L378.236 826.285C377.639 826.859 377.621 827.809 378.196 828.405C378.771 829.002 379.72 829.02 380.317 828.445L390.04 819.08ZM182.424 182.615C128.462 205.057 84.4183 255.6 56.1771 318.731C27.9276 381.881 15.4135 457.782 24.6363 531.187C33.8605 604.603 64.8387 675.581 123.634 728.769C182.437 781.963 268.934 817.244 388.972 819.5L389.028 816.5C269.566 814.256 183.812 779.162 125.647 726.544C67.4732 673.919 36.7638 603.647 27.6129 530.813C18.4605 457.968 30.8838 382.619 58.9156 319.956C86.9558 257.275 130.537 207.443 183.576 185.385L182.424 182.615Z" fill="black"/>
<defs>
<clipPath id="clip0_18_4344">
<rect width="200" height="204" fill="white" transform="translate(277 308)"/>
</clipPath>
<clipPath id="clip1_18_4344">
<rect width="158" height="139.089" fill="white" transform="translate(521 40)"/>
</clipPath>
</defs>
</svg>
