<svg width="1200" height="900" viewBox="0 0 1200 900" fill="none" xmlns="http://www.w3.org/2000/svg">
<rect width="1200" height="900" fill="white"/>
<g clip-path="url(#clip0_18_4657)">
<g clip-path="url(#clip1_18_4657)">
<path fill-rule="evenodd" clip-rule="evenodd" d="M1155.8 480C1158.12 480 1160 481.88 1160 484.2V526.2C1160 528.52 1158.12 530.4 1155.8 530.4H44.2C41.8804 530.4 40 528.52 40 526.2V484.2C40 481.88 41.8804 480 44.2 480H1155.8Z" fill="#7C7C7C"/>
<g clip-path="url(#clip2_18_4657)">
<rect x="91.0996" y="490.5" width="997" height="7" fill="#D8D8D8"/>
<path fill-rule="evenodd" clip-rule="evenodd" d="M50.5 490.5H65.9V497.5H50.5V490.5Z" fill="#D7D7D7"/>
<rect x="1120.7" y="490.5" width="7" height="7" fill="#D7D400"/>
<rect x="1110.9" y="490.5" width="7" height="7" fill="#FF3C00"/>
<path fill-rule="evenodd" clip-rule="evenodd" d="M1132.6 490.5H1148V497.344H1132.6V490.5Z" fill="#00CD00"/>
</g>
<g clip-path="url(#clip3_18_4657)">
<rect x="91.0996" y="501.7" width="997" height="7" fill="#D8D8D8"/>
<path fill-rule="evenodd" clip-rule="evenodd" d="M50.5 501.7H65.9V508.7H50.5V501.7Z" fill="#D7D7D7"/>
<rect x="1120.7" y="501.7" width="7" height="7" fill="#D7D400"/>
<rect x="1110.9" y="501.7" width="7" height="7" fill="#FF3C00"/>
<path fill-rule="evenodd" clip-rule="evenodd" d="M1132.6 501.7H1148V508.545H1132.6V501.7Z" fill="#00CD00"/>
</g>
<g clip-path="url(#clip4_18_4657)">
<rect x="91.0996" y="512.9" width="997" height="7" fill="#D8D8D8"/>
<path fill-rule="evenodd" clip-rule="evenodd" d="M50.5 512.9H65.9V519.9H50.5V512.9Z" fill="#D7D7D7"/>
<rect x="1120.7" y="512.9" width="7" height="7" fill="#D7D400"/>
<rect x="1110.9" y="512.9" width="7" height="7" fill="#FF3C00"/>
<path fill-rule="evenodd" clip-rule="evenodd" d="M1132.6 512.9H1148V519.744H1132.6V512.9Z" fill="#00CD00"/>
</g>
</g>
<path fill-rule="evenodd" clip-rule="evenodd" d="M1154.8 26C1157.12 26 1159 27.8804 1159 30.2V468.8C1159 471.12 1157.12 473 1154.8 473H44.1999C41.8804 473 40 471.12 40 468.8V30.2C40 27.8804 41.8804 26 44.2 26H1154.8Z" fill="#7C7C7C"/>
<rect x="51" y="53" width="1097" height="389" rx="1.68" fill="white"/>
<path fill-rule="evenodd" clip-rule="evenodd" d="M51 36H1148V43H51V36Z" fill="#D7D7D7"/>
<path fill-rule="evenodd" clip-rule="evenodd" d="M51 452H1148V459H51V452Z" fill="#D7D7D7"/>
<path d="M258.118 361.264C257.751 361.441 257.402 361.637 257.07 361.851C256.776 362.03 256.482 362.208 256.188 362.386C255.894 362.528 255.601 362.633 255.309 362.702C255.016 362.771 254.706 362.767 254.379 362.689C254.16 362.686 253.98 362.556 253.837 362.299C253.696 362.005 253.591 361.694 253.522 361.365C253.418 360.999 253.35 360.651 253.318 360.323C253.286 359.958 253.29 359.684 253.329 359.502L258.62 356.568L259.143 342.574C259.222 342.101 259.516 341.922 260.025 342.039C260.534 342.119 261.061 342.236 261.606 342.389C261.679 342.39 261.788 342.428 261.933 342.503C262.115 342.542 262.242 342.58 262.314 342.617C262.228 343.601 262.121 344.675 261.996 345.84C261.907 346.969 261.819 348.116 261.729 349.282C261.641 350.411 261.571 351.522 261.519 352.615C261.504 353.709 261.545 354.694 261.642 355.57L269.876 353.387C270.023 353.353 270.131 353.464 270.2 353.72C270.306 353.94 270.394 354.215 270.462 354.544C270.567 354.874 270.635 355.203 270.667 355.531C270.699 355.86 270.715 356.024 270.715 356.024L261.364 359.833C261.36 360.161 261.367 360.945 261.387 362.185C261.442 363.425 261.495 364.903 261.544 366.617C261.594 368.295 261.641 370.119 261.687 372.088C261.733 374.021 261.781 375.827 261.831 377.505C261.88 379.183 261.914 380.66 261.933 381.936C261.952 383.176 261.96 383.96 261.955 384.288C261.867 385.381 261.532 385.923 260.948 385.915C260.401 385.908 259.804 385.626 259.155 385.07L258.118 361.264ZM273.105 373.012C272.922 373.046 272.648 373.097 272.282 373.165C271.917 373.233 271.534 373.246 271.133 373.204C270.733 373.162 270.388 373.047 270.099 372.861C269.773 372.674 269.614 372.362 269.62 371.925C269.623 371.669 269.68 371.488 269.791 371.38C269.902 371.272 270.087 371.111 270.345 370.896C271.156 370.25 271.842 369.421 272.403 368.408C273.001 367.359 273.545 366.255 274.035 365.095C274.526 363.898 275.034 362.72 275.561 361.561C276.124 360.365 276.759 359.298 277.465 358.36C278.17 357.422 279.038 356.668 280.066 356.099C281.095 355.53 282.357 355.274 283.851 355.331C284.471 355.34 285.161 355.495 285.923 355.798C286.684 356.1 287.39 356.511 288.039 357.03C288.688 357.513 289.227 358.104 289.655 358.803C290.083 359.501 290.291 360.27 290.279 361.108C290.457 361.403 290.269 361.819 289.715 362.359C289.197 362.898 288.478 363.49 287.557 364.133C286.637 364.741 285.589 365.382 284.413 366.059C283.274 366.699 282.172 367.304 281.107 367.873C280.041 368.441 279.105 368.939 278.297 369.365C277.488 369.791 276.955 370.112 276.697 370.327C276.51 370.689 276.358 371.107 276.242 371.579C276.126 372.051 276.029 372.506 275.95 372.942C275.908 373.343 275.866 373.725 275.825 374.089C275.82 374.417 275.816 374.672 275.814 374.855C275.804 375.547 275.757 376.312 275.673 377.15C275.625 377.988 275.65 378.79 275.749 379.557C275.884 380.288 276.186 380.912 276.653 381.429C277.12 381.91 277.919 382.158 279.049 382.174C280.252 382.19 281.386 381.914 282.451 381.346C283.517 380.741 284.512 380.007 285.435 379.145C286.359 378.282 287.192 377.346 287.935 376.335C288.715 375.325 289.402 374.387 289.998 373.52C290.63 372.617 291.187 371.877 291.669 371.301C292.151 370.724 292.556 370.438 292.885 370.442C293.249 370.447 293.631 370.526 294.03 370.677C294.466 370.792 294.68 371.087 294.674 371.561C294.665 372.217 294.381 372.997 293.821 373.901C293.298 374.805 292.592 375.762 291.703 376.77C290.85 377.779 289.852 378.786 288.708 379.792C287.6 380.761 286.476 381.638 285.335 382.425C284.194 383.175 283.074 383.797 281.973 384.292C280.873 384.751 279.903 384.975 279.065 384.963C277.424 384.94 276.19 384.522 275.363 383.709C274.536 382.895 273.948 381.884 273.6 380.676C273.289 379.468 273.124 378.19 273.106 376.841C273.126 375.455 273.125 374.179 273.105 373.012ZM283.371 358.387C282.751 358.379 282.091 358.68 281.39 359.29C280.689 359.863 280.023 360.583 279.391 361.45C278.796 362.28 278.292 363.148 277.878 364.054C277.501 364.924 277.309 365.65 277.301 366.234C277.848 366.241 278.634 366.052 279.66 365.665C280.724 365.242 281.77 364.728 282.799 364.122C283.829 363.517 284.731 362.873 285.506 362.191C286.281 361.509 286.673 360.858 286.682 360.238C286.686 359.91 286.562 359.635 286.31 359.413C286.058 359.19 285.751 359.004 285.388 358.853C285.062 358.703 284.717 358.588 284.354 358.51C283.99 358.432 283.663 358.391 283.371 358.387ZM299.527 384.481C299.194 379.554 298.897 374.628 298.638 369.702C298.415 364.74 298.158 359.595 297.867 354.268C297.879 353.393 298.359 352.962 299.307 352.975L299.744 352.981C299.854 352.982 299.979 353.13 300.121 353.424C300.263 353.717 300.401 354.266 300.536 355.07C300.707 355.838 300.873 357.026 301.033 358.632C301.23 360.203 301.457 362.266 301.713 364.822C301.97 367.378 302.253 370.572 302.565 374.405C303.365 371.937 304 369.539 304.469 367.212C304.939 364.885 305.534 362.778 306.253 360.892C306.972 358.97 307.962 357.288 309.221 355.847C310.517 354.406 312.355 353.356 314.734 352.696C316.043 352.933 317.09 353.75 317.872 355.146C318.656 356.506 319.27 358.192 319.717 360.204C320.163 362.215 320.46 364.407 320.61 366.779C320.76 369.115 320.838 371.358 320.845 373.51C320.851 375.661 320.843 377.593 320.819 379.307C320.796 380.984 320.816 382.187 320.878 382.917C320.765 383.207 320.597 383.46 320.376 383.676C320.154 383.892 319.896 384.052 319.603 384.158C319.347 384.227 319.092 384.242 318.837 384.202C318.583 384.125 318.349 383.921 318.134 383.59C318.14 383.189 318.115 382.369 318.059 381.128C318.003 379.888 317.932 378.446 317.846 376.804C317.76 375.126 317.656 373.356 317.536 371.495C317.453 369.598 317.368 367.828 317.282 366.186C317.232 364.508 317.179 363.049 317.124 361.809C317.068 360.568 317.025 359.747 316.994 359.346C316.247 357.986 315.492 357.21 314.729 357.017C314.002 356.825 313.252 357.051 312.477 357.697C311.739 358.343 311.014 359.336 310.303 360.675C309.591 362.014 308.914 363.536 308.271 365.241C307.628 366.909 307.02 368.669 306.447 370.521C305.875 372.372 305.376 374.17 304.95 375.915C304.526 377.623 304.158 379.185 303.846 380.603C303.572 381.985 303.393 383.058 303.309 383.822C303.197 384.076 302.956 384.328 302.588 384.578C302.257 384.792 301.89 384.951 301.488 385.055C301.121 385.159 300.738 385.191 300.338 385.149C299.974 385.071 299.704 384.848 299.527 384.481ZM339.837 384.329C339.668 383.378 339.52 382.246 339.392 380.932C339.301 379.581 339.193 378.231 339.065 376.88C338.939 375.492 338.774 374.196 338.572 372.99C338.407 371.784 338.129 370.796 337.738 370.025C335.827 373.79 334.145 376.757 332.693 378.924C331.241 381.056 329.962 382.587 328.855 383.52C327.785 384.417 326.886 384.842 326.158 384.795C325.429 384.749 324.832 384.412 324.367 383.786C323.901 383.16 323.566 382.371 323.36 381.42C323.192 380.434 323.077 379.52 323.015 378.681C323.027 377.879 323.224 376.751 323.609 375.298C323.994 373.845 324.508 372.266 325.152 370.561C325.796 368.82 326.549 367.062 327.412 365.287C328.312 363.513 329.264 361.904 330.269 360.459C331.273 359.015 332.311 357.826 333.381 356.893C334.451 355.96 335.515 355.5 336.572 355.515C338.143 355.282 339.287 355.644 340.003 356.602C340.756 357.524 340.88 359.075 340.376 361.256C340.342 363.662 340.405 365.723 340.564 367.439C340.759 369.155 340.955 370.799 341.152 372.369C341.385 373.94 341.581 375.584 341.74 377.3C341.934 379.016 342.015 381.077 341.982 383.483C341.976 383.921 341.916 384.303 341.802 384.629C341.725 384.92 341.286 385.06 340.484 385.049C340.374 385.047 340.23 384.954 340.05 384.769C339.907 384.585 339.836 384.438 339.837 384.329ZM337.223 359.845C336.83 359.256 336.284 359.194 335.585 359.658C334.886 360.122 334.146 360.896 333.365 361.979C332.584 363.062 331.782 364.364 330.959 365.884C330.136 367.404 329.367 368.943 328.653 370.5C327.938 372.058 327.316 373.545 326.786 374.959C326.257 376.338 325.894 377.481 325.699 378.39C325.681 379.702 325.871 380.452 326.27 380.64C326.669 380.792 327.164 380.58 327.755 380.005C328.347 379.429 329.015 378.6 329.759 377.516C330.539 376.433 331.285 375.277 331.995 374.047C332.741 372.818 333.432 371.624 334.068 370.466C334.74 369.309 335.264 368.368 335.638 367.644C335.977 366.883 336.242 366.176 336.433 365.522C336.625 364.868 336.779 364.251 336.897 363.669C337.051 363.051 337.133 362.432 337.141 361.813C337.186 361.193 337.214 360.537 337.223 359.845ZM347.1 385.14C346.767 380.213 346.471 375.287 346.211 370.361C345.988 365.399 345.731 360.254 345.441 354.927C345.453 354.052 345.933 353.621 346.88 353.634L347.318 353.64C347.427 353.642 347.553 353.789 347.695 354.083C347.836 354.377 347.975 354.926 348.109 355.73C348.281 356.498 348.447 357.685 348.607 359.292C348.804 360.862 349.031 362.925 349.287 365.481C349.543 368.037 349.827 371.231 350.138 375.064C350.938 372.596 351.573 370.198 352.043 367.871C352.513 365.544 353.107 363.438 353.826 361.552C354.546 359.629 355.535 357.947 356.795 356.506C358.091 355.066 359.929 354.016 362.308 353.356C363.617 353.593 364.663 354.409 365.446 355.806C366.229 357.166 366.844 358.852 367.29 360.863C367.736 362.875 368.034 365.067 368.183 367.439C368.333 369.774 368.412 372.018 368.418 374.169C368.425 376.32 368.416 378.253 368.393 379.966C368.369 381.643 368.389 382.847 368.452 383.577C368.339 383.867 368.171 384.12 367.949 384.335C367.727 384.551 367.47 384.712 367.177 384.817C366.921 384.886 366.665 384.901 366.411 384.861C366.156 384.785 365.922 384.581 365.708 384.25C365.714 383.849 365.688 383.028 365.633 381.787C365.577 380.547 365.506 379.106 365.419 377.464C365.333 375.785 365.23 374.016 365.11 372.154C365.027 370.257 364.942 368.488 364.855 366.846C364.806 365.168 364.753 363.708 364.697 362.468C364.642 361.228 364.598 360.407 364.567 360.005C363.82 358.646 363.066 357.869 362.302 357.677C361.576 357.484 360.825 357.711 360.051 358.356C359.312 359.002 358.588 359.995 357.876 361.334C357.165 362.674 356.488 364.196 355.844 365.9C355.201 367.569 354.593 369.329 354.021 371.18C353.448 373.032 352.949 374.83 352.524 376.574C352.099 378.282 351.731 379.845 351.42 381.262C351.146 382.644 350.967 383.717 350.883 384.482C350.77 384.735 350.53 384.987 350.162 385.237C349.83 385.452 349.464 385.611 349.061 385.714C348.695 385.819 348.312 385.85 347.911 385.808C347.548 385.73 347.277 385.507 347.1 385.14ZM373.661 362.866C373.294 363.043 372.945 363.239 372.614 363.453C372.32 363.631 372.026 363.809 371.732 363.987C371.438 364.129 371.145 364.235 370.852 364.303C370.559 364.372 370.25 364.368 369.923 364.291C369.704 364.288 369.523 364.157 369.381 363.9C369.239 363.607 369.134 363.295 369.066 362.966C368.961 362.6 368.893 362.253 368.861 361.924C368.83 361.559 368.834 361.286 368.873 361.104L374.164 358.169L374.686 344.175C374.766 343.702 375.06 343.524 375.569 343.64C376.078 343.72 376.605 343.837 377.15 343.99C377.223 343.991 377.332 344.029 377.476 344.104C377.658 344.143 377.785 344.181 377.858 344.219C377.771 345.202 377.665 346.276 377.54 347.441C377.451 348.57 377.362 349.718 377.273 350.883C377.185 352.012 377.114 353.124 377.063 354.217C377.048 355.31 377.089 356.295 377.186 357.172L385.42 354.989C385.566 354.954 385.674 355.065 385.744 355.321C385.85 355.542 385.937 355.816 386.006 356.145C386.11 356.475 386.179 356.804 386.211 357.133C386.243 357.461 386.259 357.626 386.259 357.626L376.908 361.434C376.904 361.762 376.911 362.546 376.93 363.786C376.986 365.027 377.038 366.504 377.088 368.218C377.137 369.896 377.185 371.72 377.23 373.69C377.277 375.623 377.324 377.428 377.374 379.106C377.424 380.784 377.458 382.261 377.477 383.538C377.496 384.778 377.503 385.562 377.499 385.89C377.411 386.982 377.075 387.525 376.492 387.517C375.945 387.509 375.347 387.227 374.699 386.671L373.661 362.866ZM413.266 386.057C412.942 383.1 412.745 380.235 412.674 377.462C412.603 374.654 412.587 371.901 412.624 369.203C412.699 366.47 412.791 363.736 412.902 361.003C413.013 358.27 413.052 355.426 413.02 352.473C413.022 352.363 413.115 352.219 413.3 352.039C413.484 351.859 413.631 351.77 413.741 351.772C413.85 351.773 414.086 351.868 414.448 352.055C414.81 352.242 415.045 352.391 415.153 352.502C415.143 353.231 415.144 354.416 415.158 356.057C415.209 357.662 415.22 359.486 415.192 361.527C415.2 363.533 415.207 365.666 415.212 367.926C415.255 370.151 415.28 372.285 415.288 374.326C415.333 376.333 415.363 378.138 415.377 379.742C415.391 381.347 415.393 382.532 415.382 383.297C415.381 383.37 415.378 383.625 415.372 384.063C415.366 384.5 415.361 384.81 415.359 384.993C415.355 385.248 415.352 385.485 415.349 385.703C415.382 385.923 415.361 386.123 415.286 386.304C415.211 386.449 415.063 386.575 414.843 386.681C414.66 386.751 414.368 386.784 413.967 386.778C413.857 386.777 413.713 386.683 413.533 386.499C413.353 386.314 413.264 386.167 413.266 386.057Z" fill="#333333"/>
<path d="M704.908 339.109C704.541 339.286 704.192 339.482 703.861 339.696C703.566 339.874 703.272 340.052 702.978 340.231C702.684 340.372 702.391 340.478 702.099 340.547C701.806 340.616 701.496 340.611 701.169 340.534C700.95 340.531 700.77 340.401 700.628 340.143C700.486 339.85 700.381 339.538 700.312 339.209C700.208 338.843 700.14 338.496 700.108 338.167C700.077 337.802 700.08 337.529 700.119 337.347L705.411 334.412L705.933 320.418C706.012 319.945 706.306 319.767 706.815 319.883C707.325 319.963 707.852 320.08 708.396 320.234C708.469 320.235 708.578 320.273 708.723 320.347C708.905 320.386 709.032 320.425 709.104 320.462C709.018 321.445 708.912 322.52 708.786 323.685C708.698 324.814 708.609 325.961 708.52 327.127C708.431 328.256 708.361 329.367 708.309 330.46C708.294 331.554 708.335 332.539 708.432 333.415L716.667 331.232C716.813 331.198 716.921 331.308 716.99 331.565C717.097 331.785 717.184 332.06 717.252 332.389C717.357 332.718 717.425 333.047 717.457 333.376C717.489 333.705 717.505 333.869 717.505 333.869L708.155 337.677C708.15 338.005 708.157 338.789 708.177 340.029C708.232 341.27 708.285 342.747 708.334 344.462C708.384 346.14 708.431 347.963 708.477 349.933C708.523 351.866 708.571 353.671 708.621 355.349C708.67 357.027 708.705 358.505 708.723 359.781C708.743 361.021 708.75 361.805 708.745 362.133C708.657 363.226 708.322 363.768 707.738 363.76C707.192 363.752 706.594 363.471 705.945 362.915L704.908 339.109ZM719.895 350.857C719.712 350.891 719.438 350.942 719.072 351.009C718.707 351.077 718.324 351.09 717.923 351.048C717.523 351.006 717.178 350.892 716.889 350.706C716.563 350.519 716.404 350.207 716.41 349.769C716.413 349.514 716.47 349.333 716.581 349.225C716.692 349.117 716.877 348.955 717.135 348.74C717.946 348.095 718.632 347.266 719.193 346.253C719.791 345.204 720.335 344.099 720.825 342.939C721.316 341.743 721.824 340.565 722.351 339.405C722.914 338.21 723.549 337.143 724.255 336.205C724.96 335.267 725.828 334.513 726.857 333.944C727.885 333.375 729.147 333.119 730.641 333.176C731.261 333.184 731.951 333.34 732.713 333.642C733.474 333.944 734.18 334.355 734.829 334.875C735.478 335.358 736.017 335.949 736.445 336.647C736.873 337.346 737.081 338.115 737.069 338.953C737.248 339.247 737.06 339.664 736.505 340.203C735.987 340.743 735.268 341.335 734.348 341.978C733.428 342.585 732.38 343.227 731.203 343.903C730.064 344.544 728.962 345.149 727.897 345.717C726.831 346.286 725.895 346.783 725.087 347.21C724.279 347.636 723.745 347.957 723.487 348.172C723.3 348.534 723.148 348.951 723.032 349.424C722.916 349.896 722.819 350.35 722.74 350.787C722.698 351.187 722.656 351.57 722.615 351.934C722.61 352.262 722.607 352.517 722.604 352.699C722.594 353.392 722.547 354.157 722.463 354.994C722.415 355.832 722.44 356.635 722.539 357.402C722.675 358.133 722.976 358.757 723.443 359.274C723.91 359.754 724.709 360.002 725.839 360.018C727.042 360.035 728.176 359.759 729.241 359.19C730.307 358.585 731.302 357.851 732.225 356.989C733.149 356.127 733.982 355.19 734.725 354.18C735.505 353.17 736.193 352.231 736.788 351.364C737.42 350.462 737.978 349.722 738.46 349.145C738.942 348.568 739.347 348.282 739.675 348.287C740.039 348.292 740.421 348.37 740.82 348.522C741.256 348.637 741.471 348.932 741.464 349.406C741.455 350.062 741.171 350.842 740.611 351.746C740.088 352.65 739.382 353.606 738.493 354.615C737.641 355.624 736.642 356.631 735.498 357.636C734.391 358.605 733.266 359.483 732.125 360.269C730.984 361.019 729.864 361.642 728.763 362.137C727.663 362.596 726.693 362.819 725.855 362.808C724.214 362.785 722.981 362.367 722.153 361.553C721.326 360.74 720.738 359.729 720.39 358.521C720.079 357.313 719.914 356.035 719.897 354.685C719.916 353.3 719.915 352.024 719.895 350.857ZM730.161 336.232C729.541 336.223 728.881 336.524 728.18 337.134C727.479 337.708 726.813 338.428 726.181 339.294C725.586 340.125 725.082 340.993 724.668 341.899C724.291 342.768 724.099 343.495 724.091 344.078C724.638 344.086 725.424 343.896 726.451 343.509C727.514 343.087 728.56 342.572 729.589 341.967C730.619 341.361 731.521 340.717 732.296 340.035C733.071 339.353 733.463 338.702 733.472 338.083C733.476 337.755 733.352 337.479 733.1 337.257C732.848 337.035 732.541 336.848 732.178 336.698C731.852 336.547 731.507 336.433 731.144 336.355C730.78 336.277 730.453 336.236 730.161 336.232ZM746.317 362.326C745.984 357.399 745.688 352.472 745.428 347.546C745.205 342.584 744.948 337.44 744.657 332.112C744.669 331.237 745.149 330.806 746.097 330.82L746.535 330.826C746.644 330.827 746.769 330.975 746.911 331.268C747.053 331.562 747.191 332.111 747.326 332.915C747.498 333.683 747.663 334.87 747.824 336.477C748.021 338.047 748.247 340.111 748.503 342.667C748.76 345.222 749.044 348.417 749.355 352.25C750.155 349.781 750.79 347.384 751.26 345.057C751.729 342.729 752.324 340.623 753.043 338.737C753.762 336.814 754.752 335.133 756.011 333.692C757.307 332.251 759.145 331.201 761.524 330.541C762.834 330.778 763.88 331.595 764.662 332.991C765.446 334.351 766.061 336.037 766.507 338.048C766.953 340.06 767.251 342.252 767.4 344.624C767.55 346.96 767.628 349.203 767.635 351.354C767.641 353.506 767.633 355.438 767.609 357.151C767.586 358.828 767.606 360.032 767.669 360.762C767.555 361.052 767.388 361.305 767.166 361.521C766.944 361.736 766.687 361.897 766.393 362.002C766.137 362.072 765.882 362.086 765.627 362.046C765.373 361.97 765.139 361.766 764.925 361.435C764.93 361.034 764.905 360.213 764.849 358.973C764.794 357.732 764.722 356.291 764.636 354.649C764.55 352.971 764.447 351.201 764.327 349.34C764.243 347.442 764.159 345.673 764.072 344.031C764.022 342.353 763.97 340.894 763.914 339.653C763.858 338.413 763.815 337.592 763.784 337.19C763.037 335.831 762.282 335.055 761.519 334.862C760.793 334.669 760.042 334.896 759.267 335.542C758.529 336.188 757.804 337.18 757.093 338.52C756.382 339.859 755.704 341.381 755.061 343.086C754.418 344.754 753.81 346.514 753.237 348.365C752.665 350.217 752.166 352.015 751.741 353.759C751.316 355.467 750.948 357.03 750.636 358.448C750.362 359.829 750.183 360.902 750.1 361.667C749.987 361.921 749.746 362.173 749.378 362.423C749.047 362.637 748.68 362.796 748.278 362.9C747.912 363.004 747.528 363.035 747.128 362.993C746.764 362.915 746.494 362.693 746.317 362.326ZM786.627 362.173C786.458 361.223 786.31 360.091 786.182 358.776C786.092 357.426 785.983 356.075 785.856 354.724C785.729 353.337 785.565 352.04 785.363 350.834C785.197 349.629 784.919 348.641 784.529 347.869C782.617 351.635 780.935 354.602 779.483 356.769C778.031 358.9 776.752 360.432 775.645 361.365C774.576 362.262 773.676 362.687 772.948 362.64C772.219 362.593 771.622 362.257 771.157 361.631C770.692 361.004 770.356 360.216 770.15 359.265C769.982 358.278 769.867 357.365 769.806 356.526C769.817 355.724 770.015 354.596 770.399 353.143C770.784 351.69 771.298 350.111 771.942 348.406C772.586 346.665 773.339 344.907 774.203 343.132C775.102 341.358 776.054 339.749 777.059 338.304C778.063 336.859 779.101 335.671 780.171 334.737C781.241 333.804 782.305 333.345 783.362 333.36C784.933 333.126 786.077 333.488 786.793 334.446C787.546 335.368 787.67 336.92 787.166 339.1C787.133 341.506 787.195 343.567 787.354 345.283C787.549 347 787.745 348.643 787.942 350.214C788.175 351.785 788.371 353.428 788.53 355.144C788.725 356.861 788.805 358.922 788.772 361.328C788.766 361.765 788.706 362.147 788.592 362.474C788.515 362.765 788.076 362.904 787.274 362.893C787.164 362.892 787.02 362.799 786.84 362.614C786.697 362.43 786.626 362.283 786.627 362.173ZM784.013 337.689C783.62 337.101 783.074 337.038 782.375 337.503C781.676 337.967 780.936 338.741 780.155 339.824C779.375 340.907 778.573 342.208 777.749 343.728C776.926 345.248 776.157 346.787 775.443 348.345C774.729 349.903 774.106 351.389 773.576 352.804C773.047 354.182 772.684 355.326 772.49 356.235C772.471 357.547 772.662 358.297 773.06 358.485C773.459 358.636 773.954 358.424 774.546 357.849C775.137 357.274 775.805 356.445 776.549 355.361C777.33 354.278 778.075 353.122 778.785 351.892C779.531 350.662 780.222 349.469 780.858 348.311C781.53 347.153 782.054 346.213 782.429 345.489C782.767 344.728 783.032 344.02 783.224 343.367C783.415 342.713 783.569 342.095 783.687 341.513C783.841 340.896 783.923 340.277 783.931 339.657C783.976 339.038 784.004 338.382 784.013 337.689ZM793.89 362.985C793.557 358.058 793.261 353.132 793.001 348.206C792.778 343.244 792.521 338.099 792.231 332.772C792.243 331.897 792.723 331.466 793.671 331.479L794.108 331.485C794.217 331.486 794.343 331.634 794.485 331.928C794.627 332.221 794.765 332.77 794.9 333.574C795.071 334.342 795.237 335.53 795.397 337.136C795.594 338.707 795.821 340.77 796.077 343.326C796.333 345.882 796.617 349.076 796.929 352.909C797.729 350.441 798.363 348.043 798.833 345.716C799.303 343.389 799.897 341.282 800.616 339.396C801.336 337.474 802.325 335.792 803.585 334.351C804.881 332.91 806.719 331.86 809.098 331.2C810.407 331.437 811.453 332.254 812.236 333.65C813.019 335.01 813.634 336.696 814.08 338.708C814.526 340.719 814.824 342.911 814.974 345.283C815.123 347.619 815.202 349.862 815.208 352.014C815.215 354.165 815.207 356.097 815.183 357.811C815.16 359.488 815.179 360.691 815.242 361.421C815.129 361.711 814.961 361.964 814.739 362.18C814.518 362.396 814.26 362.556 813.967 362.662C813.711 362.731 813.455 362.746 813.201 362.706C812.946 362.629 812.712 362.425 812.498 362.094C812.504 361.693 812.479 360.873 812.423 359.632C812.367 358.392 812.296 356.95 812.209 355.308C812.123 353.63 812.02 351.86 811.9 349.999C811.817 348.102 811.732 346.332 811.645 344.69C811.596 343.012 811.543 341.553 811.487 340.313C811.432 339.072 811.388 338.251 811.357 337.85C810.611 336.49 809.856 335.714 809.093 335.521C808.366 335.329 807.615 335.555 806.841 336.201C806.103 336.847 805.378 337.84 804.667 339.179C803.955 340.518 803.278 342.04 802.634 343.745C801.991 345.413 801.384 347.173 800.811 349.025C800.238 350.876 799.739 352.674 799.314 354.419C798.889 356.127 798.521 357.689 798.21 359.107C797.936 360.489 797.757 361.562 797.673 362.326C797.56 362.58 797.32 362.832 796.952 363.082C796.621 363.296 796.254 363.455 795.851 363.559C795.485 363.663 795.102 363.695 794.701 363.653C794.338 363.575 794.067 363.352 793.89 362.985ZM820.451 340.71C820.084 340.888 819.735 341.083 819.404 341.297C819.11 341.476 818.816 341.654 818.522 341.832C818.228 341.974 817.935 342.079 817.642 342.148C817.35 342.217 817.04 342.213 816.713 342.135C816.494 342.132 816.313 342.002 816.171 341.745C816.029 341.451 815.924 341.14 815.856 340.811C815.752 340.445 815.683 340.097 815.652 339.769C815.62 339.404 815.624 339.13 815.663 338.948L820.954 336.014L821.476 322.02C821.556 321.547 821.85 321.368 822.359 321.485C822.868 321.565 823.395 321.682 823.94 321.835C824.013 321.836 824.122 321.874 824.267 321.949C824.448 321.988 824.575 322.026 824.648 322.064C824.561 323.047 824.455 324.121 824.33 325.286C824.241 326.415 824.152 327.562 824.063 328.728C823.975 329.857 823.905 330.968 823.853 332.061C823.838 333.155 823.879 334.14 823.976 335.016L832.21 332.833C832.357 332.799 832.464 332.91 832.534 333.166C832.64 333.386 832.727 333.661 832.796 333.99C832.901 334.32 832.969 334.649 833.001 334.977C833.033 335.306 833.049 335.47 833.049 335.47L823.698 339.279C823.694 339.607 823.701 340.391 823.72 341.631C823.776 342.871 823.828 344.349 823.878 346.063C823.927 347.741 823.975 349.565 824.021 351.534C824.067 353.467 824.115 355.273 824.164 356.951C824.214 358.629 824.248 360.106 824.267 361.382C824.286 362.622 824.294 363.406 824.289 363.734C824.201 364.827 823.865 365.369 823.282 365.361C822.735 365.354 822.137 365.072 821.489 364.516L820.451 340.71ZM863.575 362.529C864.657 360.757 865.703 358.949 866.713 357.103C867.76 355.222 868.68 353.338 869.471 351.453C870.3 349.532 870.965 347.591 871.466 345.629C871.968 343.63 872.252 341.574 872.318 339.46C871.97 338.252 871.582 337.317 871.153 336.655C870.762 335.957 870.164 335.693 869.359 335.864C868.555 335.999 867.453 336.622 866.052 337.733C864.651 338.844 862.749 340.567 860.347 342.904C860.022 342.681 859.697 342.439 859.372 342.18C859.085 341.884 858.944 341.554 858.949 341.189C858.949 341.153 858.95 341.098 858.951 341.025C858.989 340.916 859.008 340.844 859.009 340.807C859.712 340.051 860.508 339.187 861.396 338.215C862.321 337.243 863.318 336.327 864.388 335.467C865.457 334.607 866.561 333.911 867.698 333.38C868.873 332.813 870.116 332.538 871.429 332.557C872.697 333.158 873.595 334.118 874.123 335.438C874.653 336.722 874.905 338.22 874.882 339.933C874.895 341.611 874.688 343.413 874.26 345.339C873.832 347.229 873.259 349.117 872.54 351.004C871.858 352.89 871.086 354.684 870.223 356.386C869.398 358.088 868.594 359.536 867.811 360.728L882.528 356.502C882.564 356.502 882.655 356.504 882.801 356.506C882.984 356.472 883.13 356.455 883.239 356.457C883.422 356.46 883.64 356.481 883.895 356.521C884.149 356.561 884.367 356.618 884.549 356.694C884.766 356.77 884.947 356.882 885.091 357.03C885.271 357.178 885.36 357.361 885.357 357.58C884.033 358.4 882.492 359.072 880.735 359.594C879.014 360.118 877.22 360.621 875.354 361.106C873.525 361.555 871.732 362.004 869.975 362.453C868.219 362.903 866.643 363.446 865.249 364.083C864.775 364.077 864.375 364.017 864.048 363.903C863.722 363.752 863.565 363.294 863.575 362.529Z" fill="#333333"/>
<path d="M694.917 150.963C694.344 151.561 694.364 152.511 694.963 153.084L704.714 162.42C705.312 162.993 706.262 162.972 706.835 162.374C707.408 161.775 707.387 160.826 706.789 160.253L698.121 151.954L706.42 143.286C706.993 142.688 706.972 141.738 706.374 141.165C705.775 140.593 704.826 140.613 704.253 141.212L694.917 150.963ZM793.5 307.983C793 264.002 792.5 232.066 790.589 208.97C788.683 185.945 785.36 171.375 778.973 162.382C772.46 153.21 762.958 150.076 749.62 149.284C736.39 148.498 718.813 150.004 695.967 150.5L696.033 153.5C719.187 152.996 736.36 151.502 749.442 152.279C762.417 153.049 770.79 156.04 776.527 164.119C782.39 172.375 785.692 186.18 787.599 209.218C789.5 232.184 790 263.999 790.5 308.017L793.5 307.983Z" fill="black"/>
<path d="M239 254.882C238.383 254.33 237.435 254.382 236.882 255L227.88 265.061C227.328 265.678 227.381 266.626 227.998 267.179C228.615 267.731 229.564 267.678 230.116 267.061L238.118 258.118L247.061 266.12C247.678 266.672 248.626 266.619 249.179 266.002C249.731 265.385 249.678 264.436 249.061 263.884L239 254.882ZM319.483 343.772C318.394 336.695 312.626 329.883 305.087 323.22C297.492 316.507 287.718 309.633 278.142 302.544C268.517 295.419 259.059 288.056 251.885 280.265C244.7 272.464 239.969 264.409 239.498 255.917L236.502 256.083C237.031 265.591 242.3 274.286 249.678 282.297C257.066 290.319 266.733 297.831 276.358 304.956C286.032 312.117 295.633 318.868 303.1 325.468C310.624 332.117 315.606 338.305 316.517 344.228L319.483 343.772Z" fill="black"/>
</g>
<path fill-rule="evenodd" clip-rule="evenodd" d="M347.844 124.115H358.249V114.655H347.844V124.115ZM335.546 124.115H345.951V114.655H335.546V124.115ZM323.249 124.115H333.655V114.655H323.249V124.115ZM310.952 124.115H321.357V114.655H310.952V124.115ZM298.654 124.115H309.06V114.655H298.654V124.115ZM310.952 112.763H321.357V103.304H310.952V112.763ZM323.249 112.763H333.655V103.304H323.249V112.763ZM335.546 112.763H345.951V103.304H335.546V112.763ZM335.546 101.412H345.951V91.9525H335.546V101.412ZM389.52 118.599C387.247 117.079 382.026 116.521 378.008 117.28C377.49 113.494 375.381 110.213 371.544 107.247L369.338 105.775L367.866 107.984C365.982 110.825 365.041 114.762 365.35 118.537C365.488 119.865 365.925 122.241 367.291 124.329C365.925 125.063 363.226 126.074 359.668 126.006H291.234L291.1 126.795C290.457 130.589 290.471 142.428 298.158 151.528C304.001 158.445 312.761 161.953 324.195 161.953C348.981 161.953 367.319 150.543 375.907 129.803C379.284 129.87 386.555 129.823 390.29 122.686C390.387 122.522 390.611 122.094 391.263 120.742L391.621 120.001L389.52 118.599Z" fill="white"/>
<path fill-rule="evenodd" clip-rule="evenodd" d="M362 237.102C362 238.15 361.108 239 360.006 239H78.9936C77.8924 239 77 238.15 77 237.102V76C77 73.2386 79.2386 71 82 71H357C359.761 71 362 73.2386 362 76V237.102Z" fill="#FABE28"/>
<path d="M174.797 155.711C174.574 154.933 174.259 154.246 173.855 153.65C173.45 153.043 172.954 152.531 172.368 152.116C171.793 151.69 171.133 151.365 170.387 151.141C169.652 150.917 168.837 150.805 167.942 150.805C166.269 150.805 164.799 151.221 163.531 152.052C162.274 152.883 161.294 154.092 160.591 155.679C159.888 157.256 159.536 159.184 159.536 161.464C159.536 163.744 159.883 165.683 160.575 167.281C161.268 168.879 162.248 170.099 163.515 170.94C164.783 171.771 166.28 172.187 168.006 172.187C169.572 172.187 170.909 171.91 172.017 171.356C173.135 170.791 173.988 169.997 174.574 168.975C175.17 167.952 175.469 166.743 175.469 165.347L176.875 165.555H168.437V160.345H182.132V164.468C182.132 167.345 181.525 169.816 180.311 171.883C179.096 173.939 177.423 175.527 175.293 176.645C173.162 177.753 170.722 178.307 167.974 178.307C164.906 178.307 162.21 177.631 159.888 176.278C157.566 174.914 155.754 172.98 154.455 170.477C153.166 167.963 152.521 164.98 152.521 161.528C152.521 158.875 152.905 156.51 153.672 154.433C154.449 152.345 155.536 150.576 156.932 149.127C158.327 147.679 159.952 146.576 161.806 145.819C163.659 145.063 165.667 144.685 167.83 144.685C169.684 144.685 171.41 144.957 173.008 145.5C174.606 146.033 176.023 146.789 177.258 147.769C178.505 148.749 179.522 149.916 180.311 151.269C181.099 152.611 181.605 154.092 181.829 155.711H174.797ZM186.24 177.86V153.314H193.048V177.86H186.24ZM189.66 150.15C188.648 150.15 187.779 149.815 187.055 149.143C186.341 148.462 185.984 147.647 185.984 146.698C185.984 145.761 186.341 144.957 187.055 144.285C187.779 143.604 188.648 143.263 189.66 143.263C190.672 143.263 191.535 143.604 192.249 144.285C192.973 144.957 193.335 145.761 193.335 146.698C193.335 147.647 192.973 148.462 192.249 149.143C191.535 149.815 190.672 150.15 189.66 150.15ZM209.057 153.314V158.428H194.275V153.314H209.057ZM197.631 147.433H204.438V170.317C204.438 170.946 204.534 171.436 204.726 171.787C204.918 172.128 205.184 172.368 205.525 172.506C205.877 172.645 206.281 172.714 206.739 172.714C207.059 172.714 207.379 172.687 207.698 172.634C208.018 172.57 208.263 172.522 208.433 172.49L209.504 177.556C209.163 177.663 208.684 177.785 208.066 177.924C207.448 178.073 206.697 178.163 205.813 178.195C204.172 178.259 202.734 178.041 201.498 177.54C200.273 177.039 199.319 176.262 198.638 175.207C197.956 174.152 197.62 172.821 197.631 171.212V147.433ZM211.646 177.86V145.132H224.558C227.04 145.132 229.155 145.606 230.902 146.555C232.649 147.492 233.981 148.797 234.897 150.47C235.824 152.132 236.288 154.049 236.288 156.223C236.288 158.396 235.819 160.313 234.881 161.975C233.944 163.637 232.585 164.932 230.806 165.859C229.038 166.785 226.897 167.249 224.382 167.249H216.153V161.704H223.264C224.595 161.704 225.693 161.475 226.556 161.017C227.429 160.548 228.079 159.903 228.505 159.083C228.942 158.252 229.16 157.299 229.16 156.223C229.16 155.136 228.942 154.188 228.505 153.378C228.079 152.558 227.429 151.924 226.556 151.476C225.682 151.018 224.574 150.789 223.232 150.789H218.566V177.86H211.646ZM248.849 178.339C246.367 178.339 244.22 177.812 242.409 176.757C240.608 175.692 239.218 174.211 238.238 172.315C237.258 170.408 236.768 168.197 236.768 165.683C236.768 163.147 237.258 160.931 238.238 159.035C239.218 157.128 240.608 155.647 242.409 154.593C244.22 153.527 246.367 152.995 248.849 152.995C251.331 152.995 253.472 153.527 255.273 154.593C257.084 155.647 258.479 157.128 259.46 159.035C260.44 160.931 260.93 163.147 260.93 165.683C260.93 168.197 260.44 170.408 259.46 172.315C258.479 174.211 257.084 175.692 255.273 176.757C253.472 177.812 251.331 178.339 248.849 178.339ZM248.881 173.066C250.01 173.066 250.953 172.746 251.709 172.107C252.466 171.457 253.036 170.573 253.419 169.454C253.813 168.335 254.01 167.062 254.01 165.635C254.01 164.207 253.813 162.934 253.419 161.816C253.036 160.697 252.466 159.813 251.709 159.163C250.953 158.513 250.01 158.188 248.881 158.188C247.741 158.188 246.782 158.513 246.004 159.163C245.237 159.813 244.657 160.697 244.263 161.816C243.879 162.934 243.687 164.207 243.687 165.635C243.687 167.062 243.879 168.335 244.263 169.454C244.657 170.573 245.237 171.457 246.004 172.107C246.782 172.746 247.741 173.066 248.881 173.066ZM271.901 178.259C270.037 178.259 268.348 177.78 266.835 176.821C265.333 175.851 264.14 174.429 263.256 172.554C262.382 170.669 261.945 168.357 261.945 165.619C261.945 162.806 262.398 160.468 263.304 158.604C264.209 156.729 265.413 155.328 266.915 154.401C268.428 153.463 270.085 152.995 271.885 152.995C273.259 152.995 274.405 153.229 275.321 153.698C276.248 154.156 276.993 154.731 277.558 155.424C278.133 156.105 278.57 156.777 278.868 157.437H279.076V145.132H285.868V177.86H279.156V173.929H278.868C278.549 174.61 278.096 175.287 277.51 175.958C276.935 176.618 276.184 177.167 275.257 177.604C274.341 178.041 273.222 178.259 271.901 178.259ZM274.058 172.842C275.156 172.842 276.082 172.544 276.839 171.947C277.606 171.34 278.192 170.493 278.597 169.406C279.012 168.319 279.22 167.046 279.22 165.587C279.22 164.127 279.017 162.86 278.613 161.784C278.208 160.708 277.622 159.877 276.855 159.291C276.088 158.705 275.156 158.412 274.058 158.412C272.94 158.412 271.997 158.715 271.23 159.323C270.463 159.93 269.882 160.772 269.488 161.848C269.094 162.924 268.897 164.17 268.897 165.587C268.897 167.014 269.094 168.277 269.488 169.374C269.893 170.461 270.473 171.313 271.23 171.931C271.997 172.538 272.94 172.842 274.058 172.842Z" fill="black"/>
<path d="M77 76C77 73.2386 79.2386 71 82 71H357C359.761 71 362 73.2386 362 76V94H77V76Z" fill="#CCCCCC"/>
<path fill-rule="evenodd" clip-rule="evenodd" d="M94 83.5C94 85.9856 91.9856 88 89.5 88C87.0144 88 85 85.9856 85 83.5C85 81.0144 87.0144 79 89.5 79C91.9856 79 94 81.0144 94 83.5Z" fill="#E74C3C"/>
<path fill-rule="evenodd" clip-rule="evenodd" d="M110 83.5C110 85.9856 107.986 88 105.5 88C103.014 88 101 85.9856 101 83.5C101 81.0144 103.014 79 105.5 79C107.986 79 110 81.0144 110 83.5Z" fill="#F1C40F"/>
<path fill-rule="evenodd" clip-rule="evenodd" d="M125 83.5C125 85.9856 122.986 88 120.5 88C118.014 88 116 85.9856 116 83.5C116 81.0144 118.014 79 120.5 79C122.986 79 125 81.0144 125 83.5Z" fill="#2ECC71"/>
<path fill-rule="evenodd" clip-rule="evenodd" d="M677 237.102C677 238.15 676.108 239 675.006 239H393.994C392.892 239 392 238.15 392 237.102V76C392 73.2386 394.239 71 397 71H672C674.761 71 677 73.2386 677 76V237.102Z" fill="#FABE28"/>
<path d="M489.797 155.711C489.574 154.933 489.259 154.246 488.855 153.65C488.45 153.043 487.954 152.531 487.368 152.116C486.793 151.69 486.133 151.365 485.387 151.141C484.652 150.917 483.837 150.805 482.942 150.805C481.269 150.805 479.799 151.221 478.531 152.052C477.274 152.883 476.294 154.092 475.591 155.679C474.888 157.256 474.536 159.184 474.536 161.464C474.536 163.744 474.883 165.683 475.575 167.281C476.268 168.879 477.248 170.099 478.515 170.94C479.783 171.771 481.28 172.187 483.006 172.187C484.572 172.187 485.909 171.91 487.017 171.356C488.135 170.791 488.988 169.997 489.574 168.975C490.17 167.952 490.469 166.743 490.469 165.347L491.875 165.555H483.437V160.345H497.132V164.468C497.132 167.345 496.525 169.816 495.311 171.883C494.096 173.939 492.423 175.527 490.293 176.645C488.162 177.753 485.722 178.307 482.974 178.307C479.906 178.307 477.21 177.631 474.888 176.278C472.566 174.914 470.754 172.98 469.455 170.477C468.166 167.963 467.521 164.98 467.521 161.528C467.521 158.875 467.905 156.51 468.672 154.433C469.449 152.345 470.536 150.576 471.932 149.127C473.327 147.679 474.952 146.576 476.806 145.819C478.659 145.063 480.667 144.685 482.83 144.685C484.684 144.685 486.41 144.957 488.008 145.5C489.606 146.033 491.023 146.789 492.258 147.769C493.505 148.749 494.522 149.916 495.311 151.269C496.099 152.611 496.605 154.092 496.829 155.711H489.797ZM501.24 177.86V153.314H508.048V177.86H501.24ZM504.66 150.15C503.648 150.15 502.779 149.815 502.055 149.143C501.341 148.462 500.984 147.647 500.984 146.698C500.984 145.761 501.341 144.957 502.055 144.285C502.779 143.604 503.648 143.263 504.66 143.263C505.672 143.263 506.535 143.604 507.249 144.285C507.973 144.957 508.335 145.761 508.335 146.698C508.335 147.647 507.973 148.462 507.249 149.143C506.535 149.815 505.672 150.15 504.66 150.15ZM524.057 153.314V158.428H509.275V153.314H524.057ZM512.631 147.433H519.438V170.317C519.438 170.946 519.534 171.436 519.726 171.787C519.918 172.128 520.184 172.368 520.525 172.506C520.877 172.645 521.281 172.714 521.739 172.714C522.059 172.714 522.379 172.687 522.698 172.634C523.018 172.57 523.263 172.522 523.433 172.49L524.504 177.556C524.163 177.663 523.684 177.785 523.066 177.924C522.448 178.073 521.697 178.163 520.813 178.195C519.172 178.259 517.734 178.041 516.498 177.54C515.273 177.039 514.319 176.262 513.638 175.207C512.956 174.152 512.62 172.821 512.631 171.212V147.433ZM526.646 177.86V145.132H539.558C542.04 145.132 544.155 145.606 545.902 146.555C547.649 147.492 548.981 148.797 549.897 150.47C550.824 152.132 551.288 154.049 551.288 156.223C551.288 158.396 550.819 160.313 549.881 161.975C548.944 163.637 547.585 164.932 545.806 165.859C544.038 166.785 541.897 167.249 539.382 167.249H531.153V161.704H538.264C539.595 161.704 540.693 161.475 541.556 161.017C542.429 160.548 543.079 159.903 543.505 159.083C543.942 158.252 544.16 157.299 544.16 156.223C544.16 155.136 543.942 154.188 543.505 153.378C543.079 152.558 542.429 151.924 541.556 151.476C540.682 151.018 539.574 150.789 538.232 150.789H533.566V177.86H526.646ZM563.849 178.339C561.367 178.339 559.22 177.812 557.409 176.757C555.608 175.692 554.218 174.211 553.238 172.315C552.258 170.408 551.768 168.197 551.768 165.683C551.768 163.147 552.258 160.931 553.238 159.035C554.218 157.128 555.608 155.647 557.409 154.593C559.22 153.527 561.367 152.995 563.849 152.995C566.331 152.995 568.472 153.527 570.273 154.593C572.084 155.647 573.479 157.128 574.46 159.035C575.44 160.931 575.93 163.147 575.93 165.683C575.93 168.197 575.44 170.408 574.46 172.315C573.479 174.211 572.084 175.692 570.273 176.757C568.472 177.812 566.331 178.339 563.849 178.339ZM563.881 173.066C565.01 173.066 565.953 172.746 566.709 172.107C567.466 171.457 568.036 170.573 568.419 169.454C568.813 168.335 569.01 167.062 569.01 165.635C569.01 164.207 568.813 162.934 568.419 161.816C568.036 160.697 567.466 159.813 566.709 159.163C565.953 158.513 565.01 158.188 563.881 158.188C562.741 158.188 561.782 158.513 561.004 159.163C560.237 159.813 559.657 160.697 559.263 161.816C558.879 162.934 558.687 164.207 558.687 165.635C558.687 167.062 558.879 168.335 559.263 169.454C559.657 170.573 560.237 171.457 561.004 172.107C561.782 172.746 562.741 173.066 563.881 173.066ZM586.901 178.259C585.037 178.259 583.348 177.78 581.835 176.821C580.333 175.851 579.14 174.429 578.256 172.554C577.382 170.669 576.945 168.357 576.945 165.619C576.945 162.806 577.398 160.468 578.304 158.604C579.209 156.729 580.413 155.328 581.915 154.401C583.428 153.463 585.085 152.995 586.885 152.995C588.259 152.995 589.405 153.229 590.321 153.698C591.248 154.156 591.993 154.731 592.558 155.424C593.133 156.105 593.57 156.777 593.868 157.437H594.076V145.132H600.868V177.86H594.156V173.929H593.868C593.549 174.61 593.096 175.287 592.51 175.958C591.935 176.618 591.184 177.167 590.257 177.604C589.341 178.041 588.222 178.259 586.901 178.259ZM589.058 172.842C590.156 172.842 591.082 172.544 591.839 171.947C592.606 171.34 593.192 170.493 593.597 169.406C594.012 168.319 594.22 167.046 594.22 165.587C594.22 164.127 594.017 162.86 593.613 161.784C593.208 160.708 592.622 159.877 591.855 159.291C591.088 158.705 590.156 158.412 589.058 158.412C587.94 158.412 586.997 158.715 586.23 159.323C585.463 159.93 584.882 160.772 584.488 161.848C584.094 162.924 583.897 164.17 583.897 165.587C583.897 167.014 584.094 168.277 584.488 169.374C584.893 170.461 585.473 171.313 586.23 171.931C586.997 172.538 587.94 172.842 589.058 172.842Z" fill="black"/>
<path d="M392 76C392 73.2386 394.239 71 397 71H672C674.761 71 677 73.2386 677 76V94H392V76Z" fill="#CCCCCC"/>
<path fill-rule="evenodd" clip-rule="evenodd" d="M409 83.5C409 85.9856 406.986 88 404.5 88C402.014 88 400 85.9856 400 83.5C400 81.0144 402.014 79 404.5 79C406.986 79 409 81.0144 409 83.5Z" fill="#E74C3C"/>
<path fill-rule="evenodd" clip-rule="evenodd" d="M425 83.5C425 85.9856 422.986 88 420.5 88C418.014 88 416 85.9856 416 83.5C416 81.0144 418.014 79 420.5 79C422.986 79 425 81.0144 425 83.5Z" fill="#F1C40F"/>
<path fill-rule="evenodd" clip-rule="evenodd" d="M440 83.5C440 85.9856 437.986 88 435.5 88C433.014 88 431 85.9856 431 83.5C431 81.0144 433.014 79 435.5 79C437.986 79 440 81.0144 440 83.5Z" fill="#2ECC71"/>
<defs>
<clipPath id="clip0_18_4657">
<rect width="1120" height="505" fill="white" transform="translate(40 26)"/>
</clipPath>
<clipPath id="clip1_18_4657">
<rect width="1120" height="51" fill="white" transform="translate(40 480)"/>
</clipPath>
<clipPath id="clip2_18_4657">
<rect width="1098" height="8" fill="white" transform="translate(50.2197 490.22)"/>
</clipPath>
<clipPath id="clip3_18_4657">
<rect width="1098" height="8" fill="white" transform="translate(50.2197 501.42)"/>
</clipPath>
<clipPath id="clip4_18_4657">
<rect width="1098" height="8" fill="white" transform="translate(50.2197 512.62)"/>
</clipPath>
</defs>
</svg>
