<svg width="1200" height="900" viewBox="0 0 1200 900" fill="none" xmlns="http://www.w3.org/2000/svg">
<rect width="1200" height="900" fill="white"/>
<rect width="528" height="396" transform="translate(37 336)" fill="white"/>
<path d="M143.48 385.28L130.778 407.28H156.182L143.48 385.28ZM145.68 675.68V405.08H141.28V675.68H145.68Z" fill="black"/>
<path d="M512.2 675.68L490.2 662.978L490.2 688.382L512.2 675.68ZM141.28 677.88L492.4 677.88L492.4 673.48L141.28 673.48L141.28 677.88Z" fill="black"/>
<path d="M101.643 356.52H105.815L110.221 367.27H110.408L114.815 356.52H118.986V372.52H115.705V362.106H115.572L111.432 372.442H109.197L105.057 362.067H104.924V372.52H101.643V356.52ZM126.74 372.754C125.505 372.754 124.443 372.504 123.552 372.004C122.667 371.499 121.985 370.786 121.505 369.864C121.026 368.937 120.787 367.84 120.787 366.575C120.787 365.34 121.026 364.257 121.505 363.325C121.985 362.392 122.659 361.666 123.529 361.145C124.404 360.624 125.43 360.364 126.607 360.364C127.399 360.364 128.136 360.491 128.818 360.747C129.505 360.997 130.104 361.374 130.615 361.879C131.13 362.385 131.531 363.02 131.818 363.786C132.104 364.546 132.248 365.437 132.248 366.458V367.372H122.115V365.309H129.115C129.115 364.83 129.011 364.405 128.802 364.036C128.594 363.666 128.305 363.377 127.935 363.168C127.571 362.955 127.146 362.848 126.662 362.848C126.156 362.848 125.709 362.965 125.318 363.2C124.933 363.429 124.63 363.739 124.412 364.129C124.193 364.515 124.081 364.944 124.076 365.418V367.379C124.076 367.973 124.185 368.486 124.404 368.918C124.628 369.351 124.943 369.684 125.349 369.918C125.755 370.153 126.237 370.27 126.795 370.27C127.164 370.27 127.503 370.218 127.81 370.114C128.117 370.01 128.38 369.853 128.599 369.645C128.818 369.437 128.985 369.181 129.099 368.879L132.177 369.083C132.021 369.822 131.701 370.468 131.216 371.02C130.737 371.567 130.117 371.994 129.357 372.301C128.602 372.603 127.729 372.754 126.74 372.754ZM133.98 372.52V360.52H137.151V362.637H137.292C137.542 361.934 137.959 361.379 138.542 360.973C139.125 360.567 139.823 360.364 140.636 360.364C141.459 360.364 142.159 360.569 142.737 360.981C143.315 361.387 143.701 361.939 143.894 362.637H144.019C144.263 361.95 144.706 361.4 145.347 360.989C145.993 360.572 146.756 360.364 147.636 360.364C148.756 360.364 149.664 360.721 150.362 361.434C151.065 362.142 151.417 363.148 151.417 364.45V372.52H148.097V365.106C148.097 364.439 147.92 363.939 147.565 363.606C147.211 363.273 146.769 363.106 146.237 363.106C145.633 363.106 145.162 363.299 144.823 363.684C144.485 364.064 144.315 364.567 144.315 365.192V372.52H141.089V365.036C141.089 364.447 140.92 363.978 140.581 363.629C140.248 363.28 139.808 363.106 139.261 363.106C138.891 363.106 138.558 363.2 138.261 363.387C137.969 363.569 137.737 363.827 137.565 364.161C137.394 364.489 137.308 364.874 137.308 365.317V372.52H133.98ZM159.028 372.754C157.814 372.754 156.765 372.497 155.879 371.981C154.999 371.46 154.319 370.736 153.84 369.809C153.361 368.877 153.122 367.796 153.122 366.567C153.122 365.327 153.361 364.244 153.84 363.317C154.319 362.385 154.999 361.661 155.879 361.145C156.765 360.624 157.814 360.364 159.028 360.364C160.241 360.364 161.288 360.624 162.168 361.145C163.054 361.661 163.736 362.385 164.215 363.317C164.694 364.244 164.934 365.327 164.934 366.567C164.934 367.796 164.694 368.877 164.215 369.809C163.736 370.736 163.054 371.46 162.168 371.981C161.288 372.497 160.241 372.754 159.028 372.754ZM159.043 370.176C159.595 370.176 160.056 370.02 160.426 369.708C160.796 369.39 161.075 368.958 161.262 368.411C161.455 367.864 161.551 367.241 161.551 366.543C161.551 365.846 161.455 365.223 161.262 364.676C161.075 364.129 160.796 363.697 160.426 363.379C160.056 363.062 159.595 362.903 159.043 362.903C158.486 362.903 158.017 363.062 157.637 363.379C157.262 363.697 156.978 364.129 156.786 364.676C156.598 365.223 156.504 365.846 156.504 366.543C156.504 367.241 156.598 367.864 156.786 368.411C156.978 368.958 157.262 369.39 157.637 369.708C158.017 370.02 158.486 370.176 159.043 370.176ZM166.658 372.52V360.52H169.885V362.614H170.01C170.228 361.869 170.596 361.306 171.111 360.926C171.627 360.541 172.221 360.348 172.892 360.348C173.059 360.348 173.239 360.359 173.432 360.379C173.624 360.4 173.794 360.429 173.939 360.465V363.418C173.783 363.372 173.567 363.33 173.291 363.293C173.015 363.257 172.762 363.239 172.533 363.239C172.044 363.239 171.606 363.346 171.221 363.559C170.84 363.767 170.538 364.059 170.314 364.434C170.096 364.809 169.986 365.241 169.986 365.731V372.52H166.658ZM177.64 377.02C177.218 377.02 176.822 376.986 176.452 376.918C176.088 376.856 175.786 376.775 175.546 376.676L176.296 374.192C176.687 374.312 177.038 374.377 177.351 374.387C177.669 374.398 177.942 374.325 178.171 374.168C178.406 374.012 178.596 373.747 178.742 373.372L178.937 372.864L174.632 360.52H178.132L180.617 369.333H180.742L183.249 360.52H186.773L182.109 373.817C181.885 374.463 181.58 375.025 181.195 375.504C180.814 375.989 180.333 376.361 179.749 376.622C179.166 376.887 178.463 377.02 177.64 377.02Z" fill="black"/>
<path d="M82.4991 522.828V520.164L89.1788 509.64H91.4756V513.328H90.1163L85.9053 519.992V520.117H95.3975V522.828H82.4991ZM90.1788 525.64V522.015L90.2413 520.835V509.64H93.4131V525.64H90.1788ZM107.915 514.812C107.805 514.432 107.652 514.096 107.454 513.804C107.256 513.507 107.013 513.257 106.727 513.054C106.446 512.846 106.123 512.687 105.758 512.578C105.399 512.468 105 512.414 104.563 512.414C103.745 512.414 103.027 512.617 102.407 513.023C101.792 513.429 101.313 514.02 100.969 514.796C100.625 515.567 100.454 516.51 100.454 517.625C100.454 518.739 100.623 519.687 100.961 520.468C101.3 521.25 101.779 521.846 102.399 522.257C103.019 522.664 103.75 522.867 104.594 522.867C105.36 522.867 106.013 522.731 106.555 522.46C107.102 522.184 107.519 521.796 107.805 521.296C108.097 520.796 108.243 520.205 108.243 519.523L108.93 519.625H104.805V517.078H111.5V519.093C111.5 520.5 111.204 521.708 110.61 522.718C110.016 523.723 109.198 524.5 108.157 525.046C107.115 525.588 105.922 525.859 104.579 525.859C103.079 525.859 101.761 525.528 100.625 524.867C99.4901 524.2 98.6046 523.255 97.9692 522.031C97.339 520.802 97.0239 519.343 97.0239 517.656C97.0239 516.359 97.2114 515.203 97.5864 514.187C97.9666 513.166 98.4979 512.302 99.1802 511.593C99.8625 510.885 100.657 510.346 101.563 509.976C102.469 509.606 103.451 509.421 104.508 509.421C105.415 509.421 106.258 509.554 107.04 509.82C107.821 510.08 108.513 510.45 109.118 510.929C109.727 511.408 110.224 511.979 110.61 512.64C110.995 513.296 111.243 514.02 111.352 514.812H107.915ZM113.601 525.64V509.64H120.008C121.185 509.64 122.167 509.815 122.953 510.164C123.74 510.513 124.331 510.997 124.726 511.617C125.122 512.231 125.32 512.94 125.32 513.742C125.32 514.367 125.195 514.916 124.945 515.39C124.695 515.859 124.351 516.244 123.914 516.546C123.482 516.843 122.987 517.054 122.43 517.179V517.335C123.039 517.361 123.609 517.533 124.141 517.851C124.677 518.169 125.112 518.614 125.445 519.187C125.779 519.755 125.945 520.432 125.945 521.218C125.945 522.067 125.734 522.825 125.312 523.492C124.896 524.153 124.279 524.677 123.461 525.062C122.643 525.447 121.635 525.64 120.437 525.64H113.601ZM116.984 522.875H119.742C120.685 522.875 121.372 522.695 121.805 522.335C122.237 521.971 122.453 521.486 122.453 520.882C122.453 520.44 122.346 520.049 122.133 519.71C121.919 519.372 121.615 519.106 121.219 518.914C120.828 518.721 120.362 518.625 119.82 518.625H116.984V522.875ZM116.984 516.335H119.492C119.956 516.335 120.367 516.255 120.726 516.093C121.091 515.927 121.378 515.692 121.586 515.39C121.799 515.088 121.906 514.726 121.906 514.304C121.906 513.726 121.7 513.26 121.289 512.906C120.883 512.552 120.305 512.375 119.555 512.375H116.984V516.335Z" fill="black"/>
<path d="M462.709 704.269V701.48H475.85V704.269H470.951V717.48H467.607V704.269H462.709ZM477.511 717.48V705.48H480.839V717.48H477.511ZM479.183 703.933C478.688 703.933 478.264 703.769 477.91 703.441C477.561 703.108 477.386 702.709 477.386 702.246C477.386 701.787 477.561 701.394 477.91 701.066C478.264 700.733 478.688 700.566 479.183 700.566C479.678 700.566 480.1 700.733 480.449 701.066C480.803 701.394 480.98 701.787 480.98 702.246C480.98 702.709 480.803 703.108 480.449 703.441C480.1 703.769 479.678 703.933 479.183 703.933ZM483.065 717.48V705.48H486.237V707.597H486.378C486.628 706.894 487.045 706.339 487.628 705.933C488.211 705.527 488.909 705.324 489.722 705.324C490.545 705.324 491.245 705.529 491.823 705.941C492.401 706.347 492.787 706.899 492.979 707.597H493.104C493.349 706.91 493.792 706.36 494.433 705.949C495.078 705.532 495.841 705.324 496.722 705.324C497.841 705.324 498.75 705.681 499.448 706.394C500.151 707.102 500.503 708.108 500.503 709.41V717.48H497.183V710.066C497.183 709.399 497.005 708.899 496.651 708.566C496.297 708.233 495.854 708.066 495.323 708.066C494.719 708.066 494.248 708.259 493.909 708.644C493.571 709.024 493.401 709.527 493.401 710.152V717.48H490.175V709.996C490.175 709.407 490.005 708.938 489.667 708.589C489.334 708.24 488.894 708.066 488.347 708.066C487.977 708.066 487.644 708.16 487.347 708.347C487.055 708.529 486.823 708.787 486.651 709.121C486.479 709.449 486.394 709.834 486.394 710.277V717.48H483.065ZM508.161 717.714C506.926 717.714 505.864 717.464 504.973 716.964C504.088 716.459 503.405 715.746 502.926 714.824C502.447 713.897 502.207 712.8 502.207 711.535C502.207 710.3 502.447 709.217 502.926 708.285C503.405 707.352 504.08 706.626 504.95 706.105C505.825 705.584 506.851 705.324 508.028 705.324C508.819 705.324 509.556 705.451 510.239 705.707C510.926 705.957 511.525 706.334 512.036 706.839C512.551 707.345 512.952 707.98 513.239 708.746C513.525 709.506 513.668 710.397 513.668 711.417V712.332H503.536V710.269H510.536C510.536 709.79 510.431 709.365 510.223 708.996C510.015 708.626 509.726 708.337 509.356 708.128C508.991 707.915 508.567 707.808 508.082 707.808C507.577 707.808 507.129 707.925 506.739 708.16C506.353 708.389 506.051 708.699 505.832 709.089C505.614 709.475 505.502 709.904 505.496 710.378V712.339C505.496 712.933 505.606 713.446 505.825 713.878C506.049 714.311 506.364 714.644 506.77 714.878C507.176 715.113 507.658 715.23 508.215 715.23C508.585 715.23 508.924 715.178 509.231 715.074C509.538 714.97 509.801 714.813 510.02 714.605C510.239 714.397 510.405 714.141 510.52 713.839L513.598 714.042C513.442 714.782 513.121 715.428 512.637 715.98C512.158 716.527 511.538 716.954 510.778 717.261C510.023 717.563 509.15 717.714 508.161 717.714Z" fill="black"/>
<path d="M141.497 712.992C140.153 712.986 138.997 712.656 138.028 712C137.065 711.343 136.323 710.393 135.802 709.148C135.286 707.903 135.031 706.406 135.036 704.656C135.036 702.911 135.294 701.424 135.81 700.195C136.33 698.966 137.073 698.031 138.036 697.39C139.005 696.744 140.159 696.421 141.497 696.421C142.836 696.421 143.987 696.744 144.95 697.39C145.919 698.036 146.664 698.973 147.185 700.203C147.705 701.427 147.963 702.911 147.958 704.656C147.958 706.411 147.698 707.911 147.177 709.156C146.661 710.401 145.922 711.351 144.958 712.007C143.994 712.664 142.841 712.992 141.497 712.992ZM141.497 710.187C142.414 710.187 143.145 709.726 143.692 708.804C144.239 707.882 144.51 706.5 144.505 704.656C144.505 703.442 144.38 702.432 144.13 701.625C143.885 700.817 143.536 700.21 143.083 699.804C142.635 699.398 142.106 699.195 141.497 699.195C140.586 699.195 139.856 699.651 139.31 700.562C138.763 701.473 138.487 702.838 138.481 704.656C138.481 705.885 138.604 706.911 138.849 707.734C139.099 708.552 139.45 709.166 139.903 709.578C140.356 709.984 140.888 710.187 141.497 710.187Z" fill="black"/>
<rect x="145.68" y="450.4" width="366.08" height="66.44" fill="#FCE5E3"/>
<path d="M414.724 504.08V488.08H421.037C422.245 488.08 423.276 488.296 424.13 488.729C424.99 489.156 425.643 489.762 426.091 490.549C426.544 491.33 426.771 492.249 426.771 493.307C426.771 494.369 426.542 495.283 426.083 496.049C425.625 496.809 424.961 497.393 424.091 497.799C423.227 498.205 422.18 498.408 420.951 498.408H416.724V495.689H420.404C421.05 495.689 421.586 495.601 422.013 495.424C422.44 495.247 422.758 494.981 422.966 494.627C423.18 494.273 423.287 493.833 423.287 493.307C423.287 492.775 423.18 492.327 422.966 491.963C422.758 491.598 422.438 491.322 422.005 491.135C421.578 490.942 421.039 490.846 420.388 490.846H418.107V504.08H414.724ZM423.365 496.799L427.341 504.08H423.607L419.716 496.799H423.365ZM433.934 504.314C432.7 504.314 431.638 504.064 430.747 503.564C429.862 503.059 429.179 502.346 428.7 501.424C428.221 500.497 427.981 499.4 427.981 498.135C427.981 496.9 428.221 495.817 428.7 494.885C429.179 493.952 429.854 493.226 430.723 492.705C431.598 492.184 432.625 491.924 433.802 491.924C434.593 491.924 435.33 492.051 436.013 492.307C436.7 492.557 437.299 492.934 437.809 493.439C438.325 493.945 438.726 494.58 439.013 495.346C439.299 496.106 439.442 496.997 439.442 498.018V498.932H429.309V496.869H436.309C436.309 496.39 436.205 495.965 435.997 495.596C435.789 495.226 435.5 494.937 435.13 494.729C434.765 494.515 434.341 494.408 433.856 494.408C433.351 494.408 432.903 494.525 432.513 494.76C432.127 494.989 431.825 495.299 431.606 495.689C431.388 496.075 431.276 496.505 431.27 496.979V498.939C431.27 499.533 431.38 500.046 431.598 500.479C431.822 500.911 432.138 501.244 432.544 501.479C432.95 501.713 433.432 501.83 433.989 501.83C434.359 501.83 434.697 501.778 435.005 501.674C435.312 501.57 435.575 501.413 435.794 501.205C436.013 500.997 436.179 500.742 436.294 500.439L439.372 500.643C439.216 501.382 438.895 502.028 438.411 502.58C437.932 503.127 437.312 503.554 436.552 503.861C435.796 504.163 434.924 504.314 433.934 504.314ZM449.104 508.58V502.158H449.002C448.846 502.492 448.625 502.822 448.338 503.15C448.057 503.473 447.69 503.742 447.237 503.955C446.789 504.169 446.242 504.275 445.596 504.275C444.685 504.275 443.859 504.041 443.119 503.572C442.385 503.098 441.802 502.403 441.369 501.486C440.942 500.564 440.729 499.434 440.729 498.096C440.729 496.721 440.95 495.577 441.393 494.666C441.836 493.749 442.424 493.064 443.158 492.611C443.898 492.153 444.708 491.924 445.588 491.924C446.26 491.924 446.82 492.038 447.268 492.268C447.721 492.492 448.086 492.773 448.362 493.111C448.643 493.445 448.856 493.773 449.002 494.096H449.143V492.08H452.424V508.58H449.104ZM446.651 501.627C447.187 501.627 447.64 501.481 448.01 501.189C448.385 500.893 448.672 500.479 448.869 499.947C449.073 499.416 449.174 498.794 449.174 498.08C449.174 497.367 449.075 496.747 448.877 496.221C448.679 495.695 448.393 495.288 448.018 495.002C447.643 494.715 447.187 494.572 446.651 494.572C446.104 494.572 445.643 494.721 445.268 495.018C444.893 495.314 444.609 495.726 444.416 496.252C444.224 496.778 444.127 497.387 444.127 498.08C444.127 498.778 444.224 499.395 444.416 499.932C444.614 500.463 444.898 500.88 445.268 501.182C445.643 501.479 446.104 501.627 446.651 501.627ZM462.351 498.971V492.08H465.679V504.08H462.484V501.9H462.359C462.088 502.604 461.638 503.169 461.008 503.596C460.383 504.023 459.62 504.236 458.718 504.236C457.916 504.236 457.211 504.054 456.601 503.689C455.992 503.325 455.515 502.807 455.172 502.135C454.833 501.463 454.661 500.658 454.656 499.721V492.08H457.984V499.127C457.989 499.835 458.179 500.395 458.554 500.807C458.929 501.218 459.432 501.424 460.062 501.424C460.463 501.424 460.838 501.333 461.187 501.15C461.536 500.963 461.817 500.687 462.031 500.322C462.25 499.958 462.357 499.507 462.351 498.971ZM473.37 504.314C472.136 504.314 471.073 504.064 470.183 503.564C469.297 503.059 468.615 502.346 468.136 501.424C467.657 500.497 467.417 499.4 467.417 498.135C467.417 496.9 467.657 495.817 468.136 494.885C468.615 493.952 469.29 493.226 470.159 492.705C471.034 492.184 472.06 491.924 473.237 491.924C474.029 491.924 474.766 492.051 475.448 492.307C476.136 492.557 476.735 492.934 477.245 493.439C477.761 493.945 478.162 494.58 478.448 495.346C478.735 496.106 478.878 496.997 478.878 498.018V498.932H468.745V496.869H475.745C475.745 496.39 475.641 495.965 475.433 495.596C475.224 495.226 474.935 494.937 474.566 494.729C474.201 494.515 473.777 494.408 473.292 494.408C472.787 494.408 472.339 494.525 471.948 494.76C471.563 494.989 471.261 495.299 471.042 495.689C470.823 496.075 470.711 496.505 470.706 496.979V498.939C470.706 499.533 470.816 500.046 471.034 500.479C471.258 500.911 471.573 501.244 471.98 501.479C472.386 501.713 472.868 501.83 473.425 501.83C473.795 501.83 474.133 501.778 474.441 501.674C474.748 501.57 475.011 501.413 475.23 501.205C475.448 500.997 475.615 500.742 475.73 500.439L478.808 500.643C478.652 501.382 478.331 502.028 477.847 502.58C477.368 503.127 476.748 503.554 475.987 503.861C475.232 504.163 474.36 504.314 473.37 504.314ZM490.594 495.502L487.547 495.689C487.495 495.429 487.383 495.195 487.212 494.986C487.04 494.773 486.813 494.604 486.532 494.479C486.256 494.348 485.925 494.283 485.54 494.283C485.024 494.283 484.589 494.393 484.235 494.611C483.881 494.825 483.704 495.111 483.704 495.471C483.704 495.757 483.818 495.999 484.047 496.197C484.277 496.395 484.67 496.554 485.227 496.674L487.399 497.111C488.566 497.351 489.436 497.736 490.008 498.268C490.581 498.799 490.868 499.497 490.868 500.361C490.868 501.148 490.636 501.838 490.172 502.432C489.714 503.025 489.084 503.489 488.282 503.822C487.485 504.15 486.566 504.314 485.524 504.314C483.936 504.314 482.67 503.984 481.727 503.322C480.79 502.656 480.24 501.749 480.079 500.604L483.352 500.432C483.451 500.916 483.691 501.286 484.071 501.541C484.451 501.791 484.938 501.916 485.532 501.916C486.115 501.916 486.584 501.804 486.938 501.58C487.297 501.351 487.48 501.057 487.485 500.697C487.48 500.395 487.352 500.148 487.102 499.955C486.852 499.757 486.467 499.606 485.946 499.502L483.868 499.088C482.696 498.854 481.824 498.447 481.251 497.869C480.683 497.291 480.399 496.554 480.399 495.658C480.399 494.887 480.607 494.223 481.024 493.666C481.446 493.109 482.037 492.679 482.797 492.377C483.563 492.075 484.459 491.924 485.485 491.924C487.001 491.924 488.193 492.244 489.063 492.885C489.938 493.525 490.449 494.398 490.594 495.502ZM498.906 492.08V494.58H491.68V492.08H498.906ZM493.32 489.205H496.648V500.393C496.648 500.7 496.695 500.939 496.789 501.111C496.883 501.278 497.013 501.395 497.18 501.463C497.352 501.531 497.55 501.564 497.773 501.564C497.93 501.564 498.086 501.551 498.242 501.525C498.398 501.494 498.518 501.471 498.602 501.455L499.125 503.932C498.958 503.984 498.724 504.044 498.422 504.111C498.12 504.184 497.753 504.229 497.32 504.244C496.518 504.275 495.815 504.169 495.211 503.924C494.612 503.679 494.146 503.299 493.813 502.783C493.479 502.268 493.315 501.617 493.32 500.83V489.205Z" fill="#005261"/>
<path d="M145.68 516.84L511.76 516.84" stroke="#00A8C6" stroke-width="5.28"/>
<path d="M145.24 550.28L232.36 480.32L325.64 463.6L417.16 509.36L503.4 463.6" stroke="#FBBC04" stroke-width="5.28"/>
<path d="M176.684 428.84H173.059L178.583 412.84H182.942L188.458 428.84H184.833L180.825 416.496H180.7L176.684 428.84ZM176.458 422.551H185.02V425.191H176.458V422.551ZM194.744 429.074C193.515 429.074 192.458 428.814 191.572 428.293C190.692 427.767 190.015 427.038 189.541 426.105C189.072 425.173 188.838 424.1 188.838 422.887C188.838 421.658 189.075 420.579 189.549 419.652C190.028 418.72 190.708 417.993 191.588 417.473C192.468 416.947 193.515 416.684 194.728 416.684C195.775 416.684 196.692 416.874 197.478 417.254C198.265 417.634 198.887 418.168 199.346 418.855C199.804 419.543 200.057 420.35 200.103 421.277H196.963C196.874 420.678 196.64 420.197 196.26 419.832C195.885 419.462 195.393 419.277 194.783 419.277C194.268 419.277 193.817 419.418 193.432 419.699C193.051 419.975 192.755 420.379 192.541 420.91C192.327 421.441 192.221 422.085 192.221 422.84C192.221 423.605 192.325 424.257 192.533 424.793C192.747 425.329 193.046 425.738 193.432 426.02C193.817 426.301 194.268 426.441 194.783 426.441C195.163 426.441 195.505 426.363 195.807 426.207C196.114 426.051 196.367 425.824 196.564 425.527C196.768 425.225 196.9 424.863 196.963 424.441H200.103C200.051 425.358 199.801 426.165 199.353 426.863C198.911 427.556 198.299 428.098 197.518 428.488C196.736 428.879 195.812 429.074 194.744 429.074ZM208.177 416.84V419.34H200.951V416.84H208.177ZM202.591 413.965H205.919V425.152C205.919 425.46 205.966 425.699 206.06 425.871C206.154 426.038 206.284 426.155 206.451 426.223C206.622 426.29 206.82 426.324 207.044 426.324C207.201 426.324 207.357 426.311 207.513 426.285C207.669 426.254 207.789 426.23 207.872 426.215L208.396 428.691C208.229 428.743 207.995 428.803 207.693 428.871C207.391 428.944 207.024 428.988 206.591 429.004C205.789 429.035 205.086 428.928 204.482 428.684C203.883 428.439 203.417 428.059 203.083 427.543C202.75 427.027 202.586 426.376 202.591 425.59V413.965ZM217.6 423.73V416.84H220.929V428.84H217.733V426.66H217.608C217.337 427.363 216.887 427.928 216.257 428.355C215.632 428.783 214.869 428.996 213.968 428.996C213.166 428.996 212.46 428.814 211.85 428.449C211.241 428.085 210.765 427.566 210.421 426.895C210.082 426.223 209.91 425.418 209.905 424.48V416.84H213.233V423.887C213.238 424.595 213.429 425.155 213.804 425.566C214.179 425.978 214.681 426.184 215.311 426.184C215.712 426.184 216.087 426.092 216.436 425.91C216.785 425.723 217.067 425.447 217.28 425.082C217.499 424.717 217.606 424.267 217.6 423.73ZM226.573 429.066C225.807 429.066 225.125 428.934 224.526 428.668C223.927 428.397 223.453 427.999 223.104 427.473C222.76 426.941 222.588 426.28 222.588 425.488C222.588 424.822 222.711 424.262 222.955 423.809C223.2 423.355 223.533 422.991 223.955 422.715C224.377 422.439 224.856 422.23 225.393 422.09C225.935 421.949 226.502 421.85 227.096 421.793C227.794 421.72 228.356 421.652 228.783 421.59C229.211 421.522 229.52 421.423 229.713 421.293C229.906 421.163 230.002 420.97 230.002 420.715V420.668C230.002 420.173 229.846 419.79 229.533 419.52C229.226 419.249 228.789 419.113 228.221 419.113C227.622 419.113 227.145 419.246 226.791 419.512C226.437 419.772 226.203 420.1 226.088 420.496L223.01 420.246C223.166 419.517 223.474 418.887 223.932 418.355C224.39 417.819 224.981 417.408 225.705 417.121C226.435 416.829 227.278 416.684 228.237 416.684C228.903 416.684 229.541 416.762 230.151 416.918C230.765 417.074 231.31 417.316 231.783 417.645C232.263 417.973 232.64 418.395 232.916 418.91C233.192 419.421 233.33 420.033 233.33 420.746V428.84H230.174V427.176H230.08C229.888 427.551 229.63 427.882 229.307 428.168C228.984 428.449 228.596 428.671 228.143 428.832C227.69 428.988 227.166 429.066 226.573 429.066ZM227.526 426.77C228.015 426.77 228.448 426.673 228.823 426.48C229.198 426.283 229.492 426.017 229.705 425.684C229.919 425.35 230.026 424.973 230.026 424.551V423.277C229.922 423.345 229.778 423.408 229.596 423.465C229.419 423.517 229.218 423.566 228.994 423.613C228.77 423.655 228.547 423.694 228.323 423.73C228.099 423.762 227.895 423.79 227.713 423.816C227.323 423.874 226.981 423.965 226.69 424.09C226.398 424.215 226.172 424.384 226.01 424.598C225.849 424.806 225.768 425.066 225.768 425.379C225.768 425.832 225.932 426.178 226.26 426.418C226.593 426.652 227.015 426.77 227.526 426.77ZM238.801 412.84V428.84H235.472V412.84H238.801ZM245.678 428.84V416.84H248.85V418.957H248.991C249.241 418.254 249.658 417.699 250.241 417.293C250.824 416.887 251.522 416.684 252.335 416.684C253.158 416.684 253.858 416.889 254.436 417.301C255.014 417.707 255.4 418.259 255.592 418.957H255.717C255.962 418.27 256.405 417.72 257.046 417.309C257.691 416.892 258.454 416.684 259.335 416.684C260.454 416.684 261.363 417.04 262.061 417.754C262.764 418.462 263.116 419.467 263.116 420.77V428.84H259.796V421.426C259.796 420.759 259.618 420.259 259.264 419.926C258.91 419.592 258.467 419.426 257.936 419.426C257.332 419.426 256.861 419.618 256.522 420.004C256.184 420.384 256.014 420.887 256.014 421.512V428.84H252.788V421.355C252.788 420.767 252.618 420.298 252.28 419.949C251.947 419.6 251.506 419.426 250.96 419.426C250.59 419.426 250.256 419.52 249.96 419.707C249.668 419.889 249.436 420.147 249.264 420.48C249.092 420.809 249.006 421.194 249.006 421.637V428.84H245.678ZM270.773 429.074C269.539 429.074 268.477 428.824 267.586 428.324C266.701 427.819 266.018 427.105 265.539 426.184C265.06 425.257 264.82 424.16 264.82 422.895C264.82 421.66 265.06 420.577 265.539 419.645C266.018 418.712 266.693 417.986 267.563 417.465C268.438 416.944 269.464 416.684 270.641 416.684C271.432 416.684 272.169 416.811 272.852 417.066C273.539 417.316 274.138 417.694 274.648 418.199C275.164 418.704 275.565 419.34 275.852 420.105C276.138 420.866 276.281 421.757 276.281 422.777V423.691H266.148V421.629H273.148C273.148 421.15 273.044 420.725 272.836 420.355C272.628 419.986 272.339 419.697 271.969 419.488C271.604 419.275 271.18 419.168 270.695 419.168C270.19 419.168 269.742 419.285 269.352 419.52C268.966 419.749 268.664 420.059 268.445 420.449C268.227 420.835 268.115 421.264 268.109 421.738V423.699C268.109 424.293 268.219 424.806 268.438 425.238C268.662 425.671 268.977 426.004 269.383 426.238C269.789 426.473 270.271 426.59 270.828 426.59C271.198 426.59 271.537 426.538 271.844 426.434C272.151 426.329 272.414 426.173 272.633 425.965C272.852 425.757 273.018 425.501 273.133 425.199L276.211 425.402C276.055 426.142 275.734 426.788 275.25 427.34C274.771 427.887 274.151 428.314 273.391 428.621C272.635 428.923 271.763 429.074 270.773 429.074ZM278.013 428.84V416.84H281.185V418.957H281.326C281.576 418.254 281.992 417.699 282.576 417.293C283.159 416.887 283.857 416.684 284.669 416.684C285.492 416.684 286.193 416.889 286.771 417.301C287.349 417.707 287.735 418.259 287.927 418.957H288.052C288.297 418.27 288.74 417.72 289.38 417.309C290.026 416.892 290.789 416.684 291.669 416.684C292.789 416.684 293.698 417.04 294.396 417.754C295.099 418.462 295.451 419.467 295.451 420.77V428.84H292.13V421.426C292.13 420.759 291.953 420.259 291.599 419.926C291.245 419.592 290.802 419.426 290.271 419.426C289.667 419.426 289.195 419.618 288.857 420.004C288.518 420.384 288.349 420.887 288.349 421.512V428.84H285.123V421.355C285.123 420.767 284.953 420.298 284.615 419.949C284.281 419.6 283.841 419.426 283.294 419.426C282.925 419.426 282.591 419.52 282.294 419.707C282.003 419.889 281.771 420.147 281.599 420.48C281.427 420.809 281.341 421.194 281.341 421.637V428.84H278.013ZM303.061 429.074C301.848 429.074 300.798 428.816 299.913 428.301C299.033 427.78 298.353 427.056 297.874 426.129C297.395 425.197 297.155 424.116 297.155 422.887C297.155 421.647 297.395 420.564 297.874 419.637C298.353 418.704 299.033 417.98 299.913 417.465C300.798 416.944 301.848 416.684 303.061 416.684C304.275 416.684 305.322 416.944 306.202 417.465C307.088 417.98 307.77 418.704 308.249 419.637C308.728 420.564 308.968 421.647 308.968 422.887C308.968 424.116 308.728 425.197 308.249 426.129C307.77 427.056 307.088 427.78 306.202 428.301C305.322 428.816 304.275 429.074 303.061 429.074ZM303.077 426.496C303.629 426.496 304.09 426.34 304.46 426.027C304.83 425.71 305.108 425.277 305.296 424.73C305.489 424.184 305.585 423.561 305.585 422.863C305.585 422.165 305.489 421.543 305.296 420.996C305.108 420.449 304.83 420.017 304.46 419.699C304.09 419.382 303.629 419.223 303.077 419.223C302.52 419.223 302.051 419.382 301.671 419.699C301.296 420.017 301.012 420.449 300.819 420.996C300.632 421.543 300.538 422.165 300.538 422.863C300.538 423.561 300.632 424.184 300.819 424.73C301.012 425.277 301.296 425.71 301.671 426.027C302.051 426.34 302.52 426.496 303.077 426.496ZM310.692 428.84V416.84H313.918V418.934H314.043C314.262 418.189 314.629 417.626 315.145 417.246C315.661 416.861 316.254 416.668 316.926 416.668C317.093 416.668 317.273 416.678 317.465 416.699C317.658 416.72 317.827 416.749 317.973 416.785V419.738C317.817 419.691 317.601 419.65 317.325 419.613C317.049 419.577 316.796 419.559 316.567 419.559C316.077 419.559 315.64 419.665 315.254 419.879C314.874 420.087 314.572 420.379 314.348 420.754C314.129 421.129 314.02 421.561 314.02 422.051V428.84H310.692ZM321.674 433.34C321.252 433.34 320.856 433.306 320.486 433.238C320.122 433.176 319.819 433.095 319.58 432.996L320.33 430.512C320.721 430.632 321.072 430.697 321.385 430.707C321.702 430.717 321.976 430.645 322.205 430.488C322.439 430.332 322.629 430.066 322.775 429.691L322.971 429.184L318.666 416.84H322.166L324.65 425.652H324.775L327.283 416.84H330.806L326.142 430.137C325.918 430.783 325.614 431.345 325.228 431.824C324.848 432.309 324.366 432.681 323.783 432.941C323.2 433.207 322.497 433.34 321.674 433.34ZM344.417 423.73V416.84H347.745V428.84H344.549V426.66H344.424C344.154 427.363 343.703 427.928 343.073 428.355C342.448 428.783 341.685 428.996 340.784 428.996C339.982 428.996 339.276 428.814 338.667 428.449C338.057 428.085 337.581 427.566 337.237 426.895C336.898 426.223 336.727 425.418 336.721 424.48V416.84H340.049V423.887C340.055 424.595 340.245 425.155 340.62 425.566C340.995 425.978 341.497 426.184 342.128 426.184C342.529 426.184 342.904 426.092 343.253 425.91C343.602 425.723 343.883 425.447 344.096 425.082C344.315 424.717 344.422 424.267 344.417 423.73ZM359.951 420.262L356.904 420.449C356.852 420.189 356.74 419.954 356.568 419.746C356.397 419.533 356.17 419.363 355.889 419.238C355.613 419.108 355.282 419.043 354.897 419.043C354.381 419.043 353.946 419.152 353.592 419.371C353.238 419.585 353.061 419.871 353.061 420.23C353.061 420.517 353.175 420.759 353.404 420.957C353.634 421.155 354.027 421.314 354.584 421.434L356.756 421.871C357.923 422.111 358.792 422.496 359.365 423.027C359.938 423.559 360.225 424.257 360.225 425.121C360.225 425.908 359.993 426.598 359.529 427.191C359.071 427.785 358.441 428.249 357.639 428.582C356.842 428.91 355.923 429.074 354.881 429.074C353.292 429.074 352.027 428.743 351.084 428.082C350.147 427.415 349.597 426.509 349.436 425.363L352.709 425.191C352.808 425.676 353.048 426.046 353.428 426.301C353.808 426.551 354.295 426.676 354.889 426.676C355.472 426.676 355.941 426.564 356.295 426.34C356.654 426.111 356.837 425.816 356.842 425.457C356.837 425.155 356.709 424.908 356.459 424.715C356.209 424.517 355.824 424.366 355.303 424.262L353.225 423.848C352.053 423.613 351.18 423.207 350.608 422.629C350.04 422.051 349.756 421.314 349.756 420.418C349.756 419.647 349.964 418.983 350.381 418.426C350.803 417.868 351.394 417.439 352.154 417.137C352.92 416.835 353.816 416.684 354.842 416.684C356.358 416.684 357.55 417.004 358.42 417.645C359.295 418.285 359.805 419.158 359.951 420.262ZM365.302 429.066C364.537 429.066 363.854 428.934 363.255 428.668C362.657 428.397 362.183 427.999 361.834 427.473C361.49 426.941 361.318 426.28 361.318 425.488C361.318 424.822 361.44 424.262 361.685 423.809C361.93 423.355 362.263 422.991 362.685 422.715C363.107 422.439 363.586 422.23 364.123 422.09C364.664 421.949 365.232 421.85 365.826 421.793C366.524 421.72 367.086 421.652 367.513 421.59C367.94 421.522 368.25 421.423 368.443 421.293C368.636 421.163 368.732 420.97 368.732 420.715V420.668C368.732 420.173 368.576 419.79 368.263 419.52C367.956 419.249 367.518 419.113 366.951 419.113C366.352 419.113 365.875 419.246 365.521 419.512C365.167 419.772 364.933 420.1 364.818 420.496L361.74 420.246C361.896 419.517 362.203 418.887 362.662 418.355C363.12 417.819 363.711 417.408 364.435 417.121C365.164 416.829 366.008 416.684 366.966 416.684C367.633 416.684 368.271 416.762 368.88 416.918C369.495 417.074 370.039 417.316 370.513 417.645C370.992 417.973 371.37 418.395 371.646 418.91C371.922 419.421 372.06 420.033 372.06 420.746V428.84H368.904V427.176H368.81C368.617 427.551 368.36 427.882 368.037 428.168C367.714 428.449 367.326 428.671 366.873 428.832C366.42 428.988 365.896 429.066 365.302 429.066ZM366.255 426.77C366.745 426.77 367.177 426.673 367.552 426.48C367.927 426.283 368.222 426.017 368.435 425.684C368.649 425.35 368.755 424.973 368.755 424.551V423.277C368.651 423.345 368.508 423.408 368.326 423.465C368.149 423.517 367.948 423.566 367.724 423.613C367.5 423.655 367.276 423.694 367.052 423.73C366.828 423.762 366.625 423.79 366.443 423.816C366.052 423.874 365.711 423.965 365.42 424.09C365.128 424.215 364.901 424.384 364.74 424.598C364.578 424.806 364.498 425.066 364.498 425.379C364.498 425.832 364.662 426.178 364.99 426.418C365.323 426.652 365.745 426.77 366.255 426.77ZM379.608 433.59C378.53 433.59 377.606 433.441 376.835 433.145C376.069 432.853 375.46 432.454 375.007 431.949C374.554 431.444 374.259 430.876 374.124 430.246L377.202 429.832C377.296 430.072 377.444 430.296 377.647 430.504C377.851 430.712 378.119 430.879 378.452 431.004C378.791 431.134 379.202 431.199 379.687 431.199C380.411 431.199 381.007 431.022 381.476 430.668C381.95 430.319 382.187 429.733 382.187 428.91V426.715H382.046C381.9 427.048 381.681 427.363 381.39 427.66C381.098 427.957 380.723 428.199 380.265 428.387C379.806 428.574 379.259 428.668 378.624 428.668C377.723 428.668 376.903 428.46 376.163 428.043C375.429 427.621 374.843 426.978 374.405 426.113C373.973 425.243 373.757 424.145 373.757 422.816C373.757 421.457 373.978 420.322 374.421 419.41C374.864 418.499 375.452 417.816 376.187 417.363C376.926 416.91 377.736 416.684 378.616 416.684C379.288 416.684 379.851 416.798 380.304 417.027C380.757 417.251 381.121 417.533 381.397 417.871C381.679 418.204 381.895 418.533 382.046 418.855H382.171V416.84H385.476V428.957C385.476 429.978 385.226 430.832 384.726 431.52C384.226 432.207 383.533 432.723 382.647 433.066C381.767 433.415 380.754 433.59 379.608 433.59ZM379.679 426.168C380.215 426.168 380.668 426.035 381.038 425.77C381.413 425.499 381.7 425.113 381.897 424.613C382.101 424.108 382.202 423.504 382.202 422.801C382.202 422.098 382.103 421.488 381.905 420.973C381.707 420.452 381.421 420.048 381.046 419.762C380.671 419.475 380.215 419.332 379.679 419.332C379.132 419.332 378.671 419.48 378.296 419.777C377.921 420.069 377.637 420.475 377.444 420.996C377.252 421.517 377.155 422.118 377.155 422.801C377.155 423.493 377.252 424.092 377.444 424.598C377.642 425.098 377.926 425.486 378.296 425.762C378.671 426.033 379.132 426.168 379.679 426.168ZM393.153 429.074C391.918 429.074 390.856 428.824 389.965 428.324C389.08 427.819 388.398 427.105 387.918 426.184C387.439 425.257 387.2 424.16 387.2 422.895C387.2 421.66 387.439 420.577 387.918 419.645C388.398 418.712 389.072 417.986 389.942 417.465C390.817 416.944 391.843 416.684 393.02 416.684C393.812 416.684 394.549 416.811 395.231 417.066C395.918 417.316 396.517 417.694 397.028 418.199C397.543 418.704 397.944 419.34 398.231 420.105C398.517 420.866 398.661 421.757 398.661 422.777V423.691H388.528V421.629H395.528C395.528 421.15 395.424 420.725 395.215 420.355C395.007 419.986 394.718 419.697 394.348 419.488C393.984 419.275 393.559 419.168 393.075 419.168C392.569 419.168 392.122 419.285 391.731 419.52C391.346 419.749 391.043 420.059 390.825 420.449C390.606 420.835 390.494 421.264 390.489 421.738V423.699C390.489 424.293 390.598 424.806 390.817 425.238C391.041 425.671 391.356 426.004 391.762 426.238C392.168 426.473 392.65 426.59 393.207 426.59C393.577 426.59 393.916 426.538 394.223 426.434C394.53 426.329 394.793 426.173 395.012 425.965C395.231 425.757 395.398 425.501 395.512 425.199L398.59 425.402C398.434 426.142 398.114 426.788 397.629 427.34C397.15 427.887 396.53 428.314 395.77 428.621C395.015 428.923 394.142 429.074 393.153 429.074Z" fill="#977102"/>
<path d="M613 250.111C664.546 250.111 706.333 208.324 706.333 156.778C706.333 105.231 664.546 63.4443 613 63.4443C561.453 63.4443 519.667 105.231 519.667 156.778C519.667 208.324 561.453 250.111 613 250.111Z" fill="#FCEA2B"/>
<path d="M547.278 258.277C546.111 253.611 545.722 248.944 546.111 244.277C546.889 240 555.056 219 556.611 215.889C558.167 212.778 562.056 198.389 565.944 197.222C569.833 196.055 570.611 197.611 570.222 199.944C569.833 202.277 567.889 229.889 567.889 229.889L604.444 219C604.444 219 634.389 211.611 635.167 215.111C643.333 222.889 614.167 232.611 606 232.222C606 232.222 610.278 234.555 609.5 237.277C608.722 240 606.389 241.944 605.611 241.944C604.833 241.944 607.556 243.889 607.944 247.389C611.445 254.389 597.056 256.333 597.056 256.333C602.111 255.555 609.889 264.5 597.444 266.833C593.556 268 578.778 272.277 578.778 272.277C578.778 272.277 565.945 276.944 558.556 271.889C553.889 268.778 549.611 264.111 547.278 258.277Z" fill="#FCEA2B"/>
<path d="M585.389 189.056C594.722 186.333 631.667 191 640.222 197.222" stroke="black" stroke-width="2" stroke-linecap="round" stroke-linejoin="round"/>
<path d="M560.111 103.5C565.167 99.9999 571 98.4444 577.222 99.2222C583.445 99.2222 589.278 101.555 593.556 105.833" stroke="black" stroke-width="2" stroke-linecap="round" stroke-linejoin="round"/>
<path d="M671.722 119.055C661.222 116.333 650.333 115.944 639.833 117.889" stroke="black" stroke-width="2" stroke-linecap="round" stroke-linejoin="round"/>
<path d="M636.333 243.111C684.167 230.278 712.167 181.278 699.333 133.444C686.5 85.6111 637.5 57.6111 589.667 70.4444C550.778 80.9444 523.556 116.333 523.556 156.778C523.556 174.667 529 192.555 539.111 207.333" stroke="black" stroke-width="2" stroke-linecap="round" stroke-linejoin="round"/>
<path d="M593.556 135.389C593.556 142 588.5 147.056 581.889 147.056C575.278 147.056 570.222 142 570.222 135.389C570.222 128.778 575.278 123.722 581.889 123.722C588.5 123.722 593.556 128.778 593.556 135.389Z" fill="black"/>
<path d="M659.667 147.055C659.667 153.666 654.611 158.722 648 158.722C641.389 158.722 636.333 153.666 636.333 147.055C636.333 140.444 641.389 135.389 648 135.389C654.611 135.389 659.667 140.444 659.667 147.055Z" fill="black"/>
<path d="M549.611 236.5C545.722 242.722 544.945 250.889 547.667 257.889C551.945 270.722 563.222 278.111 575.667 274.222L594.722 268.778L598.611 267.611C601.722 266.833 603.667 263.333 602.889 260.611C602.111 258.666 600.556 257.111 598.222 256.722L602.889 255.555C606 254.778 607.945 251.278 607.167 248.555C606.389 246.611 604.833 244.666 602.5 244.278L607.167 242.722C610.278 241.944 612.222 238.444 611.445 235.722C611.056 233.778 609.5 232.222 607.556 231.833L632.445 224.444C635.556 223.666 637.5 220.166 636.722 217.444C635.945 214.722 632.445 212.389 629.722 213.166L590.056 224.833L570.222 230.666L572.556 200.333C572.945 196.833 566.722 195.666 564.389 201.111L549.611 236.5Z" stroke="black" stroke-width="2" stroke-linecap="round" stroke-linejoin="round"/>
<path d="M281.85 340.963C282.381 341.598 283.327 341.682 283.963 341.15L294.316 332.487C294.952 331.956 295.036 331.01 294.504 330.374C293.972 329.739 293.026 329.655 292.391 330.186L283.188 337.887L275.487 328.684C274.956 328.048 274.01 327.964 273.374 328.496C272.739 329.028 272.655 329.974 273.186 330.609L281.85 340.963ZM498.959 148.501C425.614 150.51 373.227 175.643 338.174 211.704C303.144 247.743 285.531 294.587 281.506 339.867L284.494 340.133C288.469 295.413 305.856 249.257 340.326 213.796C374.773 178.357 426.386 153.49 499.041 151.499L498.959 148.501Z" fill="black"/>
<path d="M197.862 200.851C197.637 201.191 197.438 201.538 197.263 201.891C197.101 202.195 196.94 202.499 196.779 202.802C196.599 203.074 196.401 203.315 196.185 203.524C195.969 203.733 195.7 203.888 195.38 203.989C195.19 204.098 194.969 204.079 194.715 203.931C194.443 203.751 194.193 203.537 193.966 203.29C193.689 203.029 193.452 202.765 193.257 202.499C193.043 202.202 192.906 201.965 192.847 201.789L195.889 196.559L189.173 184.27C189 183.824 189.161 183.52 189.658 183.359C190.136 183.167 190.649 182.998 191.195 182.851C191.258 182.814 191.371 182.791 191.534 182.781C191.71 182.722 191.839 182.689 191.92 182.685C192.349 183.573 192.808 184.55 193.297 185.616C193.799 186.631 194.31 187.662 194.83 188.709C195.332 189.724 195.841 190.714 196.356 191.68C196.903 192.627 197.442 193.452 197.975 194.155L203.93 188.064C204.038 187.96 204.188 188 204.379 188.184C204.583 188.319 204.798 188.51 205.025 188.758C205.284 188.988 205.511 189.235 205.707 189.501C205.903 189.767 206.001 189.9 206.001 189.9L199.918 197.959C200.082 198.243 200.49 198.913 201.141 199.968C201.824 201.005 202.626 202.247 203.545 203.695C204.447 205.111 205.422 206.653 206.469 208.321C207.499 209.958 208.464 211.485 209.366 212.901C210.267 214.317 211.053 215.568 211.723 216.655C212.374 217.71 212.782 218.38 212.946 218.664C213.43 219.648 213.419 220.285 212.914 220.577C212.44 220.85 211.782 220.914 210.941 220.769L197.862 200.851ZM216.75 203.27C216.611 203.392 216.401 203.576 216.122 203.822C215.843 204.067 215.52 204.274 215.155 204.443C214.789 204.612 214.435 204.691 214.091 204.679C213.716 204.685 213.419 204.499 213.2 204.12C213.072 203.899 213.028 203.713 213.068 203.564C213.109 203.415 213.184 203.181 213.296 202.864C213.662 201.895 213.827 200.832 213.791 199.674C213.767 198.467 213.669 197.239 213.496 195.992C213.305 194.713 213.139 193.441 212.997 192.175C212.869 190.86 212.868 189.619 212.994 188.451C213.12 187.284 213.48 186.193 214.072 185.177C214.664 184.161 215.617 183.296 216.93 182.58C217.466 182.27 218.139 182.05 218.948 181.92C219.757 181.79 220.573 181.781 221.397 181.895C222.202 181.978 222.967 182.209 223.693 182.591C224.418 182.972 224.99 183.525 225.409 184.252C225.713 184.413 225.765 184.867 225.565 185.614C225.396 186.343 225.081 187.22 224.62 188.244C224.14 189.236 223.569 190.324 222.905 191.507C222.254 192.641 221.617 193.724 220.993 194.758C220.369 195.792 219.819 196.699 219.343 197.479C218.867 198.259 218.573 198.807 218.462 199.124C218.486 199.531 218.569 199.967 218.712 200.432C218.854 200.897 219.003 201.338 219.159 201.753C219.327 202.118 219.487 202.468 219.638 202.802C219.802 203.086 219.93 203.307 220.021 203.465C220.367 204.065 220.718 204.746 221.075 205.509C221.462 206.254 221.895 206.93 222.372 207.538C222.863 208.097 223.442 208.479 224.107 208.684C224.755 208.857 225.568 208.661 226.547 208.096C227.588 207.495 228.421 206.677 229.045 205.643C229.651 204.578 230.13 203.438 230.482 202.225C230.834 201.011 231.07 199.78 231.191 198.532C231.344 197.265 231.454 196.107 231.522 195.057C231.603 193.958 231.703 193.037 231.821 192.295C231.94 191.553 232.142 191.1 232.426 190.936C232.742 190.753 233.11 190.625 233.53 190.551C233.963 190.427 234.299 190.57 234.536 190.981C234.864 191.549 235.019 192.364 235.001 193.427C235.015 194.472 234.898 195.655 234.65 196.976C234.435 198.28 234.093 199.656 233.624 201.105C233.169 202.505 232.653 203.834 232.075 205.094C231.479 206.322 230.835 207.431 230.143 208.419C229.433 209.377 228.715 210.065 227.988 210.484C226.568 211.305 225.294 211.577 224.166 211.302C223.039 211.026 222.017 210.459 221.1 209.599C220.214 208.721 219.418 207.707 218.712 206.557C218.019 205.358 217.365 204.262 216.75 203.27ZM218.082 185.451C217.545 185.761 217.132 186.357 216.842 187.24C216.534 188.092 216.33 189.052 216.231 190.119C216.145 191.137 216.156 192.141 216.264 193.131C216.386 194.071 216.593 194.793 216.885 195.299C217.358 195.025 217.937 194.46 218.62 193.602C219.317 192.694 219.953 191.717 220.527 190.67C221.101 189.623 221.546 188.608 221.863 187.625C222.18 186.642 222.183 185.883 221.873 185.346C221.709 185.062 221.462 184.889 221.132 184.827C220.801 184.765 220.442 184.762 220.053 184.818C219.696 184.856 219.341 184.934 218.989 185.053C218.637 185.173 218.335 185.305 218.082 185.451ZM230.505 178.531L230.286 178.152C230.104 177.836 230.087 177.552 230.235 177.298C230.415 177.025 230.663 176.798 230.978 176.616C231.231 176.47 231.486 176.365 231.743 176.301C231.983 176.205 232.257 176.278 232.565 176.521C232.933 176.94 233.411 177.548 233.998 178.346C234.566 179.112 235.206 179.964 235.915 180.901C236.625 181.839 237.371 182.839 238.153 183.903C238.949 184.917 239.702 185.893 240.412 186.83C241.135 187.718 241.803 188.511 242.417 189.209C243.03 189.907 243.55 190.407 243.977 190.708C242.132 187.731 240.714 185.056 239.722 182.682C238.712 180.276 238.2 178.151 238.187 176.306C238.188 174.411 238.728 172.794 239.807 171.455C240.9 170.067 242.595 168.92 244.893 168.014C245.872 167.449 246.662 167.687 247.264 168.729C247.501 169.14 247.396 169.579 246.951 170.047C246.487 170.483 245.942 170.924 245.315 171.37C244.67 171.784 244.05 172.205 243.455 172.633C242.86 173.061 242.494 173.483 242.355 173.9C241.583 175.187 241.343 176.631 241.635 178.23C241.959 179.812 242.545 181.557 243.395 183.466C244.245 185.375 245.242 187.43 246.387 189.632C247.545 191.784 248.597 194.081 249.544 196.523C249.727 196.839 249.737 197.149 249.576 197.453C249.414 197.756 249.144 198.018 248.765 198.236C248.418 198.437 248.025 198.558 247.587 198.601C247.18 198.625 246.79 198.535 246.419 198.328L230.505 178.531ZM249.734 167.429L249.515 167.051C249.333 166.735 249.316 166.45 249.464 166.196C249.643 165.924 249.891 165.697 250.207 165.514C250.459 165.369 250.714 165.263 250.972 165.199C251.211 165.103 251.485 165.176 251.794 165.419C252.162 165.838 252.639 166.446 253.226 167.244C253.795 168.01 254.434 168.862 255.144 169.8C255.853 170.737 256.599 171.738 257.382 172.802C258.178 173.816 258.931 174.791 259.64 175.729C260.363 176.616 261.031 177.409 261.645 178.107C262.259 178.806 262.779 179.305 263.205 179.606C261.36 176.63 259.942 173.955 258.95 171.58C257.94 169.175 257.429 167.049 257.416 165.204C257.417 163.309 257.957 161.693 259.036 160.354C260.129 158.965 261.824 157.818 264.122 156.912C265.1 156.347 265.89 156.586 266.492 157.628C266.729 158.038 266.625 158.477 266.179 158.945C265.715 159.381 265.17 159.822 264.543 160.268C263.899 160.683 263.279 161.104 262.684 161.531C262.089 161.959 261.722 162.381 261.584 162.798C260.812 164.086 260.572 165.529 260.864 167.129C261.187 168.71 261.774 170.455 262.623 172.364C263.473 174.274 264.47 176.329 265.615 178.531C266.773 180.683 267.826 182.98 268.773 185.422C268.955 185.738 268.966 186.047 268.804 186.351C268.643 186.655 268.373 186.916 267.994 187.135C267.646 187.335 267.253 187.457 266.815 187.499C266.408 187.524 266.019 187.433 265.647 187.227L249.734 167.429ZM282.353 177.771C281.168 175.719 279.872 173.583 278.465 171.365C277.089 169.128 275.688 166.884 274.263 164.634C272.851 162.334 271.513 160.054 270.251 157.794C268.988 155.534 267.918 153.352 267.04 151.249C267.085 151.181 267.218 151.083 267.439 150.956C267.673 150.778 267.838 150.662 267.933 150.607C268.375 150.352 268.768 150.231 269.111 150.243C269.468 150.205 269.784 150.423 270.057 150.896C271.133 152.759 272.293 154.805 273.537 157.033C274.795 159.212 276.064 161.447 277.345 163.738C278.64 165.98 279.925 168.206 281.201 170.416C282.477 172.627 283.666 174.613 284.768 176.376C285.11 176.895 285.2 177.306 285.038 177.61C284.927 177.927 284.697 178.186 284.35 178.386C283.971 178.605 283.6 178.692 283.238 178.649C282.895 178.637 282.599 178.344 282.353 177.771ZM261.733 144.462C261.514 144.083 261.494 143.758 261.674 143.486C261.854 143.214 262.101 142.986 262.417 142.804C263.049 142.44 263.562 142.417 263.957 142.736C264.351 143.056 264.704 143.484 265.014 144.02C265.025 144.477 264.934 144.866 264.741 145.188C264.53 145.479 264.248 145.683 263.896 145.802C263.557 145.872 263.186 145.812 262.782 145.624C262.411 145.418 262.061 145.031 261.733 144.462ZM289.149 174.668C287.551 172.265 285.957 169.649 284.366 166.821C282.807 163.974 281.136 160.898 279.353 157.591C277.57 154.284 275.616 150.718 273.492 146.893C271.381 143.017 268.991 138.841 266.321 134.362C266.668 134.161 267.022 133.936 267.383 133.686C267.725 133.404 268.047 133.197 268.35 133.064C268.684 132.913 268.991 132.862 269.272 132.911C269.584 132.941 269.858 133.161 270.095 133.572C270.77 134.74 271.506 136.125 272.305 137.727C273.117 139.279 273.988 141.007 274.919 142.911C275.832 144.784 276.842 146.789 277.951 148.928C279.091 151.048 280.326 153.261 281.657 155.566C281.923 153.475 282.266 151.699 282.685 150.236C283.103 148.774 283.584 147.528 284.126 146.499C284.651 145.439 285.287 144.608 286.035 144.008C286.765 143.376 287.542 142.864 288.368 142.471C289.284 141.943 290.172 141.767 291.032 141.944C291.923 142.103 292.746 142.47 293.499 143.046C294.252 143.621 294.965 144.346 295.639 145.22C296.293 146.063 296.876 146.926 297.387 147.81C297.751 148.442 298.096 149.148 298.42 149.929C298.758 150.66 299.031 151.534 299.239 152.55C299.447 153.567 299.516 154.706 299.444 155.968C299.386 157.18 299.128 158.593 298.67 160.204C298.211 161.816 297.486 163.624 296.496 165.627C295.537 167.612 294.249 169.829 292.632 172.278C292.002 172.937 291.468 173.434 291.031 173.771C290.607 174.058 290.253 174.283 289.969 174.447C289.698 174.561 289.491 174.639 289.346 174.681C289.233 174.704 289.167 174.7 289.149 174.668ZM289.545 170.651C289.648 170.465 289.956 170.013 290.468 169.297C290.963 168.548 291.528 167.632 292.166 166.549C292.803 165.465 293.455 164.225 294.123 162.829C294.79 161.434 295.29 159.966 295.623 158.427C295.987 156.87 296.136 155.268 296.069 153.623C296.003 151.977 295.596 150.36 294.847 148.771C294.592 148.329 294.255 147.892 293.837 147.46C293.419 147.028 292.941 146.673 292.401 146.395C291.894 146.098 291.352 145.927 290.778 145.88C290.185 145.801 289.605 145.925 289.036 146.254C287.868 146.928 286.945 147.882 286.268 149.115C285.622 150.33 285.146 151.657 284.841 153.096C284.535 154.536 284.37 155.999 284.345 157.487C284.302 158.943 284.339 160.248 284.457 161.401L289.545 170.651ZM309.637 160.061C309.02 158.481 308.114 156.583 306.919 154.368C305.756 152.135 304.448 149.796 302.994 147.351C301.572 144.889 300.058 142.374 298.45 139.808C296.842 137.242 295.285 134.837 293.778 132.591C292.253 130.315 290.842 128.308 289.546 126.573C288.281 124.82 287.228 123.47 286.387 122.524C286.562 122.171 286.716 121.892 286.851 121.688C286.999 121.434 287.215 121.225 287.5 121.061C287.721 120.933 287.937 120.871 288.15 120.875C288.344 120.847 288.562 120.932 288.802 121.13C293.007 126.953 297.033 132.943 300.882 139.099C304.762 145.236 308.561 151.378 312.278 157.526C312.442 157.81 312.67 158.204 312.962 158.71C313.235 159.183 313.365 159.445 313.352 159.495C313.038 159.971 312.707 160.309 312.359 160.51C311.994 160.679 311.623 160.766 311.248 160.772C310.855 160.747 310.515 160.669 310.23 160.54C309.944 160.41 309.747 160.25 309.637 160.061ZM312.182 148.172C312.043 148.295 311.833 148.479 311.554 148.724C311.275 148.97 310.952 149.177 310.587 149.346C310.221 149.515 309.867 149.593 309.523 149.581C309.148 149.587 308.851 149.401 308.632 149.022C308.504 148.801 308.46 148.616 308.5 148.466C308.54 148.317 308.616 148.084 308.728 147.767C309.094 146.797 309.259 145.734 309.222 144.576C309.199 143.369 309.101 142.142 308.928 140.894C308.737 139.616 308.571 138.343 308.429 137.078C308.301 135.762 308.3 134.521 308.426 133.354C308.552 132.186 308.911 131.095 309.504 130.079C310.096 129.064 311.049 128.198 312.362 127.482C312.898 127.172 313.571 126.952 314.38 126.822C315.189 126.692 316.005 126.684 316.829 126.798C317.634 126.88 318.399 127.112 319.125 127.493C319.85 127.874 320.422 128.428 320.841 129.154C321.145 129.315 321.197 129.77 320.997 130.517C320.828 131.245 320.513 132.122 320.052 133.146C319.572 134.138 319.001 135.226 318.337 136.41C317.686 137.543 317.049 138.627 316.425 139.66C315.801 140.694 315.251 141.601 314.775 142.381C314.299 143.161 314.005 143.709 313.894 144.027C313.918 144.433 314.001 144.869 314.144 145.335C314.286 145.8 314.435 146.24 314.59 146.655C314.759 147.021 314.919 147.371 315.07 147.705C315.234 147.989 315.362 148.21 315.453 148.368C315.799 148.968 316.15 149.649 316.506 150.411C316.894 151.156 317.327 151.832 317.804 152.441C318.295 152.999 318.873 153.381 319.539 153.586C320.187 153.76 321 153.564 321.978 152.999C323.02 152.397 323.853 151.579 324.477 150.546C325.083 149.48 325.562 148.341 325.914 147.127C326.266 145.914 326.502 144.683 326.623 143.434C326.776 142.167 326.886 141.009 326.954 139.959C327.035 138.86 327.135 137.94 327.253 137.197C327.372 136.455 327.574 136.002 327.858 135.838C328.173 135.656 328.541 135.527 328.962 135.453C329.395 135.329 329.731 135.472 329.968 135.883C330.296 136.451 330.451 137.267 330.433 138.33C330.447 139.374 330.33 140.557 330.082 141.879C329.867 143.182 329.525 144.558 329.056 146.008C328.601 147.407 328.085 148.736 327.507 149.996C326.911 151.224 326.267 152.333 325.575 153.322C324.865 154.279 324.147 154.967 323.42 155.387C322 156.207 320.726 156.479 319.598 156.204C318.471 155.929 317.449 155.361 316.531 154.502C315.646 153.624 314.85 152.61 314.144 151.46C313.451 150.26 312.797 149.164 312.182 148.172ZM313.514 130.353C312.977 130.663 312.564 131.26 312.274 132.143C311.966 132.994 311.762 133.954 311.663 135.022C311.577 136.039 311.588 137.043 311.696 138.033C311.818 138.973 312.025 139.696 312.316 140.201C312.79 139.928 313.369 139.362 314.052 138.504C314.749 137.597 315.385 136.619 315.959 135.572C316.533 134.525 316.978 133.51 317.295 132.527C317.612 131.545 317.615 130.785 317.305 130.248C317.141 129.964 316.894 129.791 316.564 129.729C316.233 129.667 315.874 129.664 315.485 129.72C315.128 129.758 314.773 129.837 314.421 129.956C314.069 130.075 313.767 130.207 313.514 130.353ZM366.318 119C366.422 119.909 366.494 120.983 366.536 122.221C366.609 123.442 366.561 124.67 366.39 125.905C366.25 127.122 365.928 128.277 365.422 129.369C364.915 130.461 364.141 131.308 363.099 131.91C362.626 132.183 362.22 132.354 361.881 132.424C361.555 132.443 361.218 132.406 360.87 132.313C360.552 132.201 360.208 132.042 359.836 131.836C359.496 131.611 359.09 131.383 358.619 131.15C357.631 129.657 356.611 128.036 355.559 126.286C354.52 124.486 353.584 122.648 352.753 120.77C351.903 118.861 351.244 116.99 350.774 115.156C350.336 113.304 350.209 111.588 350.392 110.009C350.606 108.412 351.208 107.012 352.198 105.809C353.187 104.606 354.701 103.69 356.737 103.062C356.321 102.123 355.654 100.93 354.734 99.4824C353.814 98.0349 352.817 96.5267 351.743 94.9578C350.668 93.3888 349.631 91.8831 348.629 90.4404C347.61 88.9662 346.802 87.7489 346.205 86.7883C346.041 86.5041 346.049 86.226 346.228 85.9539C346.421 85.6319 346.667 85.364 346.964 85.1502C347.262 84.9363 347.562 84.7631 347.864 84.6306C348.198 84.4799 348.431 84.4088 348.562 84.4172C350.741 88.3373 352.931 92.1668 355.132 95.9059C357.314 99.6134 359.497 103.321 361.679 107.028C363.875 110.686 366.062 114.328 368.24 117.954C370.418 121.58 372.564 125.224 374.678 128.887C374.879 129.234 375.057 129.616 375.213 130.031C375.418 130.46 375.268 130.82 374.763 131.112C374.574 131.221 374.348 131.267 374.085 131.25C373.841 131.265 373.624 131.18 373.433 130.995L366.318 119ZM356.352 106.442C355.337 106.944 354.649 107.867 354.289 109.212C353.942 110.506 353.835 111.999 353.969 113.69C354.135 115.362 354.493 117.113 355.044 118.942C355.577 120.74 356.224 122.408 356.986 123.946C357.762 125.435 358.604 126.675 359.513 127.666C360.453 128.638 361.389 129.129 362.321 129.139C363.015 128.738 363.508 128.096 363.798 127.213C364.069 126.298 364.212 125.268 364.225 124.124C364.238 122.98 364.133 121.778 363.91 120.517C363.669 119.225 363.393 118.016 363.08 116.892C362.799 115.749 362.494 114.746 362.164 113.884C361.848 112.972 361.572 112.311 361.335 111.9C361.153 111.584 360.877 111.07 360.507 110.357C360.138 109.644 359.721 108.959 359.257 108.301C358.793 107.643 358.295 107.109 357.764 106.7C357.265 106.272 356.794 106.186 356.352 106.442ZM384.905 123.741C384.718 124.438 384.41 124.889 383.982 125.094C383.585 125.282 383.178 125.306 382.761 125.168C382.376 125.011 381.999 124.723 381.631 124.305C381.295 123.867 381.116 123.339 381.095 122.72L376.771 108.23C375.869 107.908 374.774 107.614 373.484 107.349C372.225 107.065 370.958 106.765 369.681 106.45C368.436 106.116 367.254 105.746 366.135 105.34C364.998 104.902 364.141 104.365 363.564 103.73C363.09 102.909 363.279 102.253 364.132 101.76C364.614 101.356 365.068 101.157 365.493 101.164C365.949 101.153 366.413 101.264 366.885 101.497C367.338 101.699 367.846 101.995 368.408 102.386C369.002 102.758 369.653 103.12 370.36 103.469C371.098 103.801 371.941 104.093 372.887 104.347C373.847 104.55 374.952 104.606 376.205 104.515C376.084 103.869 375.766 102.916 375.249 101.657C374.714 100.366 374.111 99.0298 373.441 97.6491C372.783 96.2185 372.103 94.8219 371.4 93.4593C370.698 92.0968 370.101 90.9892 369.608 90.1368C369.63 89.9558 369.765 89.7517 370.013 89.5245C370.274 89.2474 370.587 89.0245 370.953 88.8555C371.3 88.655 371.652 88.5359 372.009 88.4981C372.348 88.4287 372.613 88.4864 372.804 88.6709C373.745 89.9374 374.488 91.2976 375.033 92.7513C375.591 94.1552 376.095 95.6113 376.545 97.1197C377.008 98.5783 377.487 100.028 377.982 101.468C378.477 102.908 379.17 104.255 380.062 105.508L393.387 109.119C393.437 109.132 393.557 109.231 393.748 109.416C393.938 109.6 394.061 109.74 394.116 109.835C394.225 110.024 394.319 110.223 394.397 110.43C394.474 110.638 394.505 110.873 394.488 111.135C394.484 111.348 394.415 111.556 394.28 111.76C394.177 111.946 393.974 112.105 393.672 112.238C393.006 112.033 392.175 111.797 391.179 111.53C390.197 111.213 389.142 110.917 388.014 110.642C386.869 110.335 385.726 110.069 384.585 109.843C383.445 109.618 382.418 109.516 381.504 109.538L381.268 109.675L381.193 109.655C381.035 109.746 380.948 109.923 380.931 110.185C380.896 110.416 381.004 111.005 381.257 111.954C381.524 112.853 381.941 114.232 382.51 116.093C383.093 117.904 383.891 120.453 384.905 123.741Z" fill="black"/>
<path d="M182.639 774.167C182.536 773.125 182.092 772.316 181.309 771.74C180.526 771.163 179.463 770.875 178.121 770.875C177.209 770.875 176.439 771.004 175.81 771.262C175.182 771.512 174.7 771.86 174.365 772.308C174.038 772.755 173.874 773.263 173.874 773.831C173.857 774.304 173.956 774.717 174.171 775.07C174.395 775.423 174.7 775.729 175.087 775.987C175.475 776.236 175.922 776.456 176.43 776.645C176.938 776.826 177.48 776.981 178.056 777.11L180.432 777.678C181.585 777.936 182.643 778.28 183.607 778.71C184.571 779.141 185.406 779.67 186.111 780.298C186.817 780.926 187.363 781.666 187.751 782.518C188.146 783.37 188.349 784.347 188.357 785.449C188.349 787.066 187.936 788.469 187.118 789.657C186.309 790.836 185.139 791.752 183.607 792.406C182.084 793.052 180.247 793.374 178.095 793.374C175.961 793.374 174.102 793.047 172.519 792.393C170.944 791.739 169.713 790.771 168.827 789.489C167.949 788.198 167.489 786.602 167.446 784.7H172.854C172.915 785.586 173.168 786.326 173.616 786.92C174.072 787.505 174.679 787.949 175.436 788.25C176.202 788.542 177.067 788.689 178.031 788.689C178.977 788.689 179.799 788.551 180.496 788.276C181.202 788 181.748 787.617 182.135 787.127C182.523 786.636 182.716 786.073 182.716 785.436C182.716 784.842 182.54 784.343 182.187 783.938C181.843 783.534 181.335 783.19 180.664 782.906C180.001 782.622 179.188 782.363 178.224 782.131L175.346 781.408C173.117 780.866 171.357 780.018 170.066 778.865C168.775 777.712 168.134 776.159 168.143 774.205C168.134 772.605 168.56 771.206 169.421 770.01C170.29 768.814 171.482 767.88 172.996 767.209C174.511 766.538 176.232 766.202 178.16 766.202C180.122 766.202 181.834 766.538 183.297 767.209C184.769 767.88 185.913 768.814 186.731 770.01C187.548 771.206 187.97 772.592 187.996 774.167H182.639ZM196.786 766.564V793H191.287V766.564H196.786ZM209.422 793.387C207.417 793.387 205.683 792.961 204.22 792.109C202.766 791.249 201.643 790.053 200.851 788.521C200.059 786.98 199.663 785.195 199.663 783.164C199.663 781.116 200.059 779.326 200.851 777.794C201.643 776.254 202.766 775.057 204.22 774.205C205.683 773.345 207.417 772.915 209.422 772.915C211.427 772.915 213.157 773.345 214.611 774.205C216.074 775.057 217.201 776.254 217.993 777.794C218.785 779.326 219.181 781.116 219.181 783.164C219.181 785.195 218.785 786.98 217.993 788.521C217.201 790.053 216.074 791.249 214.611 792.109C213.157 792.961 211.427 793.387 209.422 793.387ZM209.448 789.127C210.36 789.127 211.122 788.869 211.733 788.353C212.344 787.828 212.804 787.114 213.114 786.21C213.432 785.307 213.591 784.278 213.591 783.125C213.591 781.972 213.432 780.944 213.114 780.04C212.804 779.136 212.344 778.422 211.733 777.897C211.122 777.372 210.36 777.11 209.448 777.11C208.527 777.11 207.752 777.372 207.124 777.897C206.505 778.422 206.036 779.136 205.717 780.04C205.407 780.944 205.253 781.972 205.253 783.125C205.253 784.278 205.407 785.307 205.717 786.21C206.036 787.114 206.505 787.828 207.124 788.353C207.752 788.869 208.527 789.127 209.448 789.127ZM225.444 793L220.048 773.173H225.611L228.684 786.494H228.864L232.066 773.173H237.526L240.779 786.417H240.947L243.967 773.173H249.518L244.135 793H238.313L234.905 780.531H234.66L231.252 793H225.444ZM259.41 793V773.173H264.909V793H259.41ZM262.173 770.617C261.355 770.617 260.654 770.346 260.069 769.804C259.492 769.253 259.204 768.595 259.204 767.829C259.204 767.071 259.492 766.422 260.069 765.879C260.654 765.329 261.355 765.053 262.173 765.053C262.99 765.053 263.687 765.329 264.264 765.879C264.849 766.422 265.142 767.071 265.142 767.829C265.142 768.595 264.849 769.253 264.264 769.804C263.687 770.346 262.99 770.617 262.173 770.617ZM274.086 781.537V793H268.587V773.173H273.828V776.671H274.06C274.499 775.518 275.235 774.606 276.268 773.934C277.3 773.254 278.552 772.915 280.024 772.915C281.401 772.915 282.601 773.216 283.625 773.818C284.649 774.421 285.446 775.281 286.013 776.4C286.581 777.51 286.865 778.835 286.865 780.376V793H281.366V781.357C281.375 780.143 281.065 779.197 280.437 778.517C279.809 777.828 278.944 777.484 277.842 777.484C277.102 777.484 276.448 777.643 275.88 777.962C275.321 778.28 274.882 778.745 274.564 779.356C274.254 779.958 274.095 780.685 274.086 781.537ZM301.019 773.173V777.303H289.078V773.173H301.019ZM291.789 768.422H297.288V786.907C297.288 787.415 297.365 787.811 297.52 788.095C297.675 788.37 297.89 788.564 298.166 788.676C298.45 788.788 298.777 788.844 299.147 788.844C299.405 788.844 299.663 788.822 299.921 788.779C300.18 788.727 300.377 788.689 300.515 788.663L301.38 792.755C301.105 792.841 300.717 792.94 300.218 793.052C299.719 793.172 299.112 793.245 298.398 793.271C297.073 793.323 295.911 793.146 294.913 792.742C293.923 792.337 293.153 791.709 292.602 790.857C292.052 790.005 291.78 788.93 291.789 787.63V768.422ZM312.697 793.387C310.657 793.387 308.901 792.974 307.43 792.148C305.967 791.313 304.84 790.134 304.048 788.611C303.256 787.079 302.86 785.268 302.86 783.177C302.86 781.137 303.256 779.347 304.048 777.807C304.84 776.266 305.954 775.066 307.391 774.205C308.837 773.345 310.532 772.915 312.477 772.915C313.785 772.915 315.003 773.125 316.13 773.547C317.266 773.96 318.256 774.584 319.099 775.419C319.951 776.254 320.614 777.303 321.087 778.568C321.56 779.825 321.797 781.296 321.797 782.983V784.493H305.055V781.086H316.621C316.621 780.294 316.449 779.592 316.104 778.981C315.76 778.371 315.282 777.893 314.671 777.549C314.069 777.196 313.368 777.019 312.567 777.019C311.733 777.019 310.993 777.213 310.347 777.6C309.71 777.979 309.211 778.491 308.85 779.136C308.488 779.773 308.303 780.483 308.295 781.266V784.506C308.295 785.487 308.475 786.335 308.837 787.049C309.207 787.764 309.728 788.314 310.399 788.702C311.07 789.089 311.866 789.282 312.787 789.282C313.398 789.282 313.957 789.196 314.465 789.024C314.973 788.852 315.407 788.594 315.769 788.25C316.13 787.905 316.406 787.484 316.595 786.985L321.681 787.32C321.423 788.542 320.893 789.609 320.093 790.522C319.301 791.425 318.277 792.131 317.021 792.639C315.773 793.138 314.332 793.387 312.697 793.387ZM330.157 766.564V793H324.658V766.564H330.157ZM339.334 766.564V793H333.835V766.564H339.334ZM343.012 793V773.173H348.511V793H343.012ZM345.775 770.617C344.957 770.617 344.256 770.346 343.671 769.804C343.094 769.253 342.806 768.595 342.806 767.829C342.806 767.071 343.094 766.422 343.671 765.879C344.256 765.329 344.957 765.053 345.775 765.053C346.592 765.053 347.289 765.329 347.866 765.879C348.451 766.422 348.744 767.071 348.744 767.829C348.744 768.595 348.451 769.253 347.866 769.804C347.289 770.346 346.592 770.617 345.775 770.617ZM368.686 778.827L363.652 779.136C363.566 778.706 363.381 778.319 363.097 777.975C362.813 777.622 362.439 777.342 361.974 777.136C361.518 776.92 360.971 776.813 360.335 776.813C359.483 776.813 358.764 776.994 358.179 777.355C357.594 777.708 357.301 778.181 357.301 778.775C357.301 779.248 357.49 779.648 357.869 779.975C358.248 780.302 358.897 780.565 359.818 780.763L363.407 781.486C365.334 781.882 366.771 782.518 367.718 783.396C368.665 784.274 369.138 785.427 369.138 786.856C369.138 788.155 368.755 789.295 367.989 790.276C367.232 791.257 366.191 792.023 364.865 792.574C363.549 793.116 362.03 793.387 360.309 793.387C357.684 793.387 355.593 792.841 354.035 791.748C352.486 790.646 351.578 789.149 351.312 787.256L356.72 786.972C356.884 787.772 357.28 788.383 357.908 788.805C358.536 789.218 359.341 789.424 360.322 789.424C361.285 789.424 362.06 789.239 362.645 788.869C363.239 788.491 363.54 788.004 363.549 787.411C363.54 786.912 363.329 786.503 362.916 786.184C362.503 785.857 361.866 785.608 361.006 785.436L357.572 784.752C355.636 784.364 354.194 783.693 353.248 782.738C352.31 781.783 351.841 780.565 351.841 779.085C351.841 777.811 352.185 776.714 352.873 775.793C353.571 774.872 354.547 774.162 355.804 773.663C357.069 773.164 358.549 772.915 360.244 772.915C362.748 772.915 364.719 773.444 366.156 774.502C367.602 775.561 368.445 777.002 368.686 778.827ZM380.91 793.387C378.87 793.387 377.114 792.974 375.643 792.148C374.18 791.313 373.053 790.134 372.261 788.611C371.469 787.079 371.073 785.268 371.073 783.177C371.073 781.137 371.469 779.347 372.261 777.807C373.053 776.266 374.167 775.066 375.604 774.205C377.05 773.345 378.745 772.915 380.69 772.915C381.998 772.915 383.216 773.125 384.343 773.547C385.479 773.96 386.469 774.584 387.312 775.419C388.164 776.254 388.827 777.303 389.3 778.568C389.773 779.825 390.01 781.296 390.01 782.983V784.493H373.268V781.086H384.834C384.834 780.294 384.662 779.592 384.317 778.981C383.973 778.371 383.496 777.893 382.885 777.549C382.282 777.196 381.581 777.019 380.78 777.019C379.946 777.019 379.206 777.213 378.56 777.6C377.923 777.979 377.424 778.491 377.063 779.136C376.701 779.773 376.516 780.483 376.508 781.266V784.506C376.508 785.487 376.689 786.335 377.05 787.049C377.42 787.764 377.941 788.314 378.612 788.702C379.283 789.089 380.079 789.282 381 789.282C381.611 789.282 382.17 789.196 382.678 789.024C383.186 788.852 383.62 788.594 383.982 788.25C384.343 787.905 384.619 787.484 384.808 786.985L389.894 787.32C389.636 788.542 389.106 789.609 388.306 790.522C387.514 791.425 386.49 792.131 385.234 792.639C383.986 793.138 382.545 793.387 380.91 793.387ZM398.37 781.537V793H392.871V773.173H398.112V776.671H398.345C398.784 775.518 399.519 774.606 400.552 773.934C401.585 773.254 402.837 772.915 404.308 772.915C405.685 772.915 406.886 773.216 407.91 773.818C408.934 774.421 409.73 775.281 410.298 776.4C410.866 777.51 411.15 778.835 411.15 780.376V793H405.651V781.357C405.659 780.143 405.35 779.197 404.721 778.517C404.093 777.828 403.228 777.484 402.127 777.484C401.387 777.484 400.733 777.643 400.165 777.962C399.605 778.28 399.166 778.745 398.848 779.356C398.538 779.958 398.379 780.685 398.37 781.537ZM431.254 778.827L426.219 779.136C426.133 778.706 425.948 778.319 425.664 777.975C425.38 777.622 425.006 777.342 424.541 777.136C424.085 776.92 423.539 776.813 422.902 776.813C422.05 776.813 421.331 776.994 420.746 777.355C420.161 777.708 419.868 778.181 419.868 778.775C419.868 779.248 420.058 779.648 420.436 779.975C420.815 780.302 421.465 780.565 422.386 780.763L425.974 781.486C427.902 781.882 429.339 782.518 430.286 783.396C431.232 784.274 431.705 785.427 431.705 786.856C431.705 788.155 431.322 789.295 430.557 790.276C429.799 791.257 428.758 792.023 427.433 792.574C426.116 793.116 424.597 793.387 422.876 793.387C420.251 793.387 418.16 792.841 416.603 791.748C415.054 790.646 414.146 789.149 413.879 787.256L419.288 786.972C419.451 787.772 419.847 788.383 420.475 788.805C421.103 789.218 421.908 789.424 422.889 789.424C423.853 789.424 424.627 789.239 425.213 788.869C425.806 788.491 426.108 788.004 426.116 787.411C426.108 786.912 425.897 786.503 425.484 786.184C425.071 785.857 424.434 785.608 423.573 785.436L420.14 784.752C418.203 784.364 416.762 783.693 415.815 782.738C414.877 781.783 414.408 780.565 414.408 779.085C414.408 777.811 414.752 776.714 415.441 775.793C416.138 774.872 417.115 774.162 418.371 773.663C419.636 773.164 421.116 772.915 422.812 772.915C425.316 772.915 427.286 773.444 428.724 774.502C430.169 775.561 431.013 777.002 431.254 778.827ZM443.477 793.387C441.437 793.387 439.682 792.974 438.21 792.148C436.747 791.313 435.62 790.134 434.828 788.611C434.037 787.079 433.641 785.268 433.641 783.177C433.641 781.137 434.037 779.347 434.828 777.807C435.62 776.266 436.735 775.066 438.172 774.205C439.617 773.345 441.313 772.915 443.258 772.915C444.566 772.915 445.783 773.125 446.911 773.547C448.047 773.96 449.036 774.584 449.88 775.419C450.732 776.254 451.394 777.303 451.867 778.568C452.341 779.825 452.577 781.296 452.577 782.983V784.493H435.835V781.086H447.401C447.401 780.294 447.229 779.592 446.885 778.981C446.541 778.371 446.063 777.893 445.452 777.549C444.85 777.196 444.148 777.019 443.348 777.019C442.513 777.019 441.773 777.213 441.128 777.6C440.491 777.979 439.992 778.491 439.63 779.136C439.269 779.773 439.084 780.483 439.075 781.266V784.506C439.075 785.487 439.256 786.335 439.617 787.049C439.987 787.764 440.508 788.314 441.179 788.702C441.851 789.089 442.647 789.282 443.567 789.282C444.178 789.282 444.738 789.196 445.245 789.024C445.753 788.852 446.188 788.594 446.549 788.25C446.911 787.905 447.186 787.484 447.375 786.985L452.461 787.32C452.203 788.542 451.674 789.609 450.873 790.522C450.082 791.425 449.058 792.131 447.801 792.639C446.553 793.138 445.112 793.387 443.477 793.387Z" fill="black"/>
<path d="M182.639 828.167C182.536 827.125 182.092 826.316 181.309 825.74C180.526 825.163 179.463 824.875 178.121 824.875C177.209 824.875 176.439 825.004 175.81 825.262C175.182 825.512 174.7 825.86 174.365 826.308C174.038 826.755 173.874 827.263 173.874 827.831C173.857 828.304 173.956 828.717 174.171 829.07C174.395 829.423 174.7 829.729 175.087 829.987C175.475 830.236 175.922 830.456 176.43 830.645C176.938 830.826 177.48 830.981 178.056 831.11L180.432 831.678C181.585 831.936 182.643 832.28 183.607 832.71C184.571 833.141 185.406 833.67 186.111 834.298C186.817 834.926 187.363 835.666 187.751 836.518C188.146 837.37 188.349 838.347 188.357 839.449C188.349 841.066 187.936 842.469 187.118 843.657C186.309 844.836 185.139 845.752 183.607 846.406C182.084 847.052 180.247 847.374 178.095 847.374C175.961 847.374 174.102 847.047 172.519 846.393C170.944 845.739 169.713 844.771 168.827 843.489C167.949 842.198 167.489 840.602 167.446 838.7H172.854C172.915 839.586 173.168 840.326 173.616 840.92C174.072 841.505 174.679 841.949 175.436 842.25C176.202 842.542 177.067 842.689 178.031 842.689C178.977 842.689 179.799 842.551 180.496 842.276C181.202 842 181.748 841.617 182.135 841.127C182.523 840.636 182.716 840.073 182.716 839.436C182.716 838.842 182.54 838.343 182.187 837.938C181.843 837.534 181.335 837.19 180.664 836.906C180.001 836.622 179.188 836.363 178.224 836.131L175.346 835.408C173.117 834.866 171.357 834.018 170.066 832.865C168.775 831.712 168.134 830.159 168.143 828.205C168.134 826.605 168.56 825.206 169.421 824.01C170.29 822.814 171.482 821.88 172.996 821.209C174.511 820.538 176.232 820.202 178.16 820.202C180.122 820.202 181.834 820.538 183.297 821.209C184.769 821.88 185.913 822.814 186.731 824.01C187.548 825.206 187.97 826.592 187.996 828.167H182.639ZM196.786 820.564V847H191.287V820.564H196.786ZM209.422 847.387C207.417 847.387 205.683 846.961 204.22 846.109C202.766 845.249 201.643 844.053 200.851 842.521C200.059 840.98 199.663 839.195 199.663 837.164C199.663 835.116 200.059 833.326 200.851 831.794C201.643 830.254 202.766 829.057 204.22 828.205C205.683 827.345 207.417 826.915 209.422 826.915C211.427 826.915 213.157 827.345 214.611 828.205C216.074 829.057 217.201 830.254 217.993 831.794C218.785 833.326 219.181 835.116 219.181 837.164C219.181 839.195 218.785 840.98 217.993 842.521C217.201 844.053 216.074 845.249 214.611 846.109C213.157 846.961 211.427 847.387 209.422 847.387ZM209.448 843.127C210.36 843.127 211.122 842.869 211.733 842.353C212.344 841.828 212.804 841.114 213.114 840.21C213.432 839.307 213.591 838.278 213.591 837.125C213.591 835.972 213.432 834.944 213.114 834.04C212.804 833.136 212.344 832.422 211.733 831.897C211.122 831.372 210.36 831.11 209.448 831.11C208.527 831.11 207.752 831.372 207.124 831.897C206.505 832.422 206.036 833.136 205.717 834.04C205.407 834.944 205.253 835.972 205.253 837.125C205.253 838.278 205.407 839.307 205.717 840.21C206.036 841.114 206.505 841.828 207.124 842.353C207.752 842.869 208.527 843.127 209.448 843.127ZM225.444 847L220.048 827.173H225.611L228.684 840.494H228.864L232.066 827.173H237.526L240.779 840.417H240.947L243.967 827.173H249.518L244.135 847H238.313L234.905 834.531H234.66L231.252 847H225.444ZM259.513 847V820.564H265.012V830.503H265.18C265.421 829.97 265.77 829.427 266.226 828.877C266.691 828.317 267.293 827.853 268.033 827.483C268.782 827.104 269.711 826.915 270.821 826.915C272.267 826.915 273.601 827.293 274.823 828.05C276.045 828.799 277.022 829.931 277.753 831.445C278.484 832.951 278.85 834.84 278.85 837.112C278.85 839.324 278.493 841.191 277.779 842.714C277.073 844.229 276.109 845.378 274.887 846.161C273.674 846.935 272.314 847.323 270.808 847.323C269.741 847.323 268.833 847.146 268.085 846.793C267.345 846.441 266.738 845.997 266.265 845.464C265.791 844.922 265.43 844.375 265.18 843.825H264.935V847H259.513ZM264.896 837.086C264.896 838.265 265.06 839.294 265.387 840.171C265.714 841.049 266.187 841.733 266.807 842.224C267.426 842.706 268.179 842.947 269.066 842.947C269.961 842.947 270.718 842.702 271.338 842.211C271.957 841.712 272.426 841.023 272.745 840.146C273.072 839.259 273.235 838.24 273.235 837.086C273.235 835.942 273.076 834.935 272.757 834.066C272.439 833.197 271.97 832.517 271.35 832.026C270.731 831.536 269.969 831.291 269.066 831.291C268.171 831.291 267.413 831.527 266.794 832C266.183 832.474 265.714 833.145 265.387 834.014C265.06 834.883 264.896 835.907 264.896 837.086ZM294.507 838.558V827.173H300.006V847H294.727V843.399H294.52C294.073 844.56 293.328 845.494 292.287 846.2C291.254 846.905 289.994 847.258 288.505 847.258C287.18 847.258 286.013 846.957 285.007 846.355C284 845.752 283.212 844.896 282.644 843.786C282.085 842.676 281.801 841.346 281.792 839.797V827.173H287.291V838.816C287.3 839.986 287.614 840.912 288.234 841.591C288.853 842.271 289.684 842.611 290.725 842.611C291.388 842.611 292.007 842.461 292.584 842.159C293.16 841.85 293.625 841.393 293.978 840.791C294.339 840.189 294.516 839.444 294.507 838.558ZM303.678 847V827.173H309.177V847H303.678ZM306.44 824.617C305.623 824.617 304.921 824.346 304.336 823.804C303.759 823.253 303.471 822.595 303.471 821.829C303.471 821.071 303.759 820.422 304.336 819.879C304.921 819.329 305.623 819.053 306.44 819.053C307.258 819.053 307.955 819.329 308.531 819.879C309.116 820.422 309.409 821.071 309.409 821.829C309.409 822.595 309.116 823.253 308.531 823.804C307.955 824.346 307.258 824.617 306.44 824.617ZM318.354 820.564V847H312.855V820.564H318.354ZM329.338 847.323C327.832 847.323 326.468 846.935 325.246 846.161C324.032 845.378 323.069 844.229 322.354 842.714C321.649 841.191 321.296 839.324 321.296 837.112C321.296 834.84 321.662 832.951 322.393 831.445C323.125 829.931 324.097 828.799 325.31 828.05C326.532 827.293 327.87 826.915 329.325 826.915C330.435 826.915 331.36 827.104 332.1 827.483C332.849 827.853 333.451 828.317 333.907 828.877C334.372 829.427 334.725 829.97 334.966 830.503H335.134V820.564H340.62V847H335.198V843.825H334.966C334.708 844.375 334.342 844.922 333.869 845.464C333.404 845.997 332.797 846.441 332.049 846.793C331.308 847.146 330.405 847.323 329.338 847.323ZM331.08 842.947C331.967 842.947 332.715 842.706 333.326 842.224C333.946 841.733 334.419 841.049 334.746 840.171C335.082 839.294 335.25 838.265 335.25 837.086C335.25 835.907 335.086 834.883 334.759 834.014C334.432 833.145 333.959 832.474 333.339 832C332.72 831.527 331.967 831.291 331.08 831.291C330.177 831.291 329.415 831.536 328.796 832.026C328.176 832.517 327.707 833.197 327.389 834.066C327.07 834.935 326.911 835.942 326.911 837.086C326.911 838.24 327.07 839.259 327.389 840.146C327.716 841.023 328.185 841.712 328.796 842.211C329.415 842.702 330.177 842.947 331.08 842.947ZM360.911 832.827L355.876 833.136C355.79 832.706 355.605 832.319 355.321 831.975C355.037 831.622 354.663 831.342 354.198 831.136C353.742 830.92 353.196 830.813 352.559 830.813C351.707 830.813 350.988 830.994 350.403 831.355C349.818 831.708 349.526 832.181 349.526 832.775C349.526 833.248 349.715 833.648 350.094 833.975C350.472 834.302 351.122 834.565 352.043 834.763L355.631 835.486C357.559 835.882 358.996 836.518 359.943 837.396C360.889 838.274 361.363 839.427 361.363 840.856C361.363 842.155 360.98 843.295 360.214 844.276C359.456 845.257 358.415 846.023 357.09 846.574C355.773 847.116 354.254 847.387 352.533 847.387C349.908 847.387 347.817 846.841 346.26 845.748C344.711 844.646 343.803 843.149 343.536 841.256L348.945 840.972C349.108 841.772 349.504 842.383 350.132 842.805C350.76 843.218 351.565 843.424 352.546 843.424C353.51 843.424 354.284 843.239 354.87 842.869C355.463 842.491 355.765 842.004 355.773 841.411C355.765 840.912 355.554 840.503 355.141 840.184C354.728 839.857 354.091 839.608 353.23 839.436L349.797 838.752C347.86 838.364 346.419 837.693 345.472 836.738C344.534 835.783 344.065 834.565 344.065 833.085C344.065 831.811 344.41 830.714 345.098 829.793C345.795 828.872 346.772 828.162 348.028 827.663C349.293 827.164 350.773 826.915 352.469 826.915C354.973 826.915 356.944 827.444 358.381 828.502C359.826 829.561 360.67 831.002 360.911 832.827Z" fill="black"/>
</svg>
