<svg width="1200" height="900" viewBox="0 0 1200 900" fill="none" xmlns="http://www.w3.org/2000/svg">
<rect width="1200" height="900" fill="white"/>
<path d="M77.321 287.273H96.2841L116.312 336.136H117.165L137.193 287.273H156.156V360H141.241V312.663H140.638L121.817 359.645H111.661L92.8395 312.486H92.2358V360H77.321V287.273ZM190.554 361.065C185.038 361.065 180.268 359.893 176.243 357.55C172.242 355.182 169.153 351.892 166.975 347.678C164.797 343.44 163.708 338.527 163.708 332.94C163.708 327.306 164.797 322.382 166.975 318.168C169.153 313.93 172.242 310.639 176.243 308.295C180.268 305.928 185.038 304.744 190.554 304.744C196.07 304.744 200.829 305.928 204.83 308.295C208.854 310.639 211.956 313.93 214.134 318.168C216.312 322.382 217.401 327.306 217.401 332.94C217.401 338.527 216.312 343.44 214.134 347.678C211.956 351.892 208.854 355.182 204.83 357.55C200.829 359.893 196.07 361.065 190.554 361.065ZM190.625 349.347C193.135 349.347 195.23 348.636 196.911 347.216C198.592 345.772 199.858 343.807 200.71 341.321C201.586 338.835 202.024 336.006 202.024 332.834C202.024 329.661 201.586 326.832 200.71 324.347C199.858 321.861 198.592 319.896 196.911 318.452C195.23 317.008 193.135 316.286 190.625 316.286C188.092 316.286 185.961 317.008 184.233 318.452C182.529 319.896 181.238 321.861 180.362 324.347C179.51 326.832 179.084 329.661 179.084 332.834C179.084 336.006 179.51 338.835 180.362 341.321C181.238 343.807 182.529 345.772 184.233 347.216C185.961 348.636 188.092 349.347 190.625 349.347ZM224.606 360V305.455H239.272V314.972H239.84C240.835 311.586 242.504 309.029 244.847 307.301C247.191 305.549 249.89 304.673 252.944 304.673C253.701 304.673 254.518 304.721 255.394 304.815C256.27 304.91 257.04 305.04 257.702 305.206V318.629C256.992 318.416 256.01 318.227 254.755 318.061C253.5 317.895 252.352 317.812 251.31 317.812C249.085 317.812 247.096 318.298 245.344 319.268C243.616 320.215 242.243 321.541 241.225 323.246C240.231 324.95 239.734 326.915 239.734 329.141V360H224.606ZM285.211 361.065C279.6 361.065 274.771 359.929 270.722 357.656C266.698 355.36 263.597 352.116 261.418 347.926C259.24 343.712 258.151 338.729 258.151 332.976C258.151 327.365 259.24 322.441 261.418 318.203C263.597 313.965 266.662 310.663 270.616 308.295C274.593 305.928 279.257 304.744 284.607 304.744C288.206 304.744 291.556 305.324 294.657 306.484C297.782 307.621 300.505 309.337 302.825 311.634C305.168 313.93 306.991 316.818 308.293 320.298C309.596 323.755 310.247 327.803 310.247 332.443V336.598H264.188V327.223H296.007C296.007 325.045 295.533 323.116 294.586 321.435C293.639 319.754 292.325 318.44 290.644 317.493C288.987 316.522 287.058 316.037 284.856 316.037C282.56 316.037 280.524 316.57 278.748 317.635C276.996 318.677 275.623 320.085 274.629 321.861C273.634 323.613 273.125 325.566 273.102 327.72V336.634C273.102 339.332 273.599 341.664 274.593 343.629C275.611 345.594 277.043 347.109 278.89 348.175C280.737 349.24 282.927 349.773 285.46 349.773C287.141 349.773 288.679 349.536 290.076 349.062C291.473 348.589 292.668 347.879 293.663 346.932C294.657 345.985 295.415 344.825 295.936 343.452L309.927 344.375C309.217 347.737 307.761 350.672 305.559 353.182C303.381 355.668 300.564 357.609 297.107 359.006C293.675 360.379 289.709 361.065 285.211 361.065ZM353.128 328.466V360H338V305.455H352.418V315.078H353.057C354.264 311.906 356.288 309.396 359.129 307.55C361.97 305.679 365.415 304.744 369.463 304.744C373.251 304.744 376.554 305.573 379.371 307.23C382.188 308.887 384.378 311.255 385.94 314.332C387.503 317.386 388.284 321.032 388.284 325.27V360H373.156V327.969C373.18 324.631 372.328 322.027 370.6 320.156C368.871 318.262 366.492 317.315 363.462 317.315C361.426 317.315 359.627 317.753 358.064 318.629C356.525 319.505 355.318 320.784 354.442 322.464C353.59 324.122 353.152 326.122 353.128 328.466ZM422.434 361.065C416.823 361.065 411.993 359.929 407.945 357.656C403.92 355.36 400.819 352.116 398.641 347.926C396.463 343.712 395.374 338.729 395.374 332.976C395.374 327.365 396.463 322.441 398.641 318.203C400.819 313.965 403.885 310.663 407.838 308.295C411.816 305.928 416.479 304.744 421.83 304.744C425.428 304.744 428.778 305.324 431.88 306.484C435.005 307.621 437.727 309.337 440.047 311.634C442.391 313.93 444.214 316.818 445.516 320.298C446.818 323.755 447.469 327.803 447.469 332.443V336.598H401.411V327.223H433.229C433.229 325.045 432.756 323.116 431.809 321.435C430.862 319.754 429.548 318.44 427.867 317.493C426.21 316.522 424.28 316.037 422.078 316.037C419.782 316.037 417.746 316.57 415.97 317.635C414.219 318.677 412.845 320.085 411.851 321.861C410.857 323.613 410.348 325.566 410.324 327.72V336.634C410.324 339.332 410.821 341.664 411.816 343.629C412.834 345.594 414.266 347.109 416.113 348.175C417.959 349.24 420.149 349.773 422.682 349.773C424.363 349.773 425.902 349.536 427.299 349.062C428.695 348.589 429.891 347.879 430.885 346.932C431.88 345.985 432.637 344.825 433.158 343.452L447.149 344.375C446.439 347.737 444.983 350.672 442.782 353.182C440.604 355.668 437.786 357.609 434.33 359.006C430.897 360.379 426.932 361.065 422.434 361.065ZM483.722 305.455V316.818H450.874V305.455H483.722ZM458.332 292.386H473.46V343.239C473.46 344.635 473.673 345.724 474.099 346.506C474.525 347.263 475.117 347.796 475.874 348.104C476.656 348.411 477.555 348.565 478.573 348.565C479.283 348.565 479.994 348.506 480.704 348.388C481.414 348.246 481.959 348.139 482.337 348.068L484.717 359.325C483.959 359.562 482.894 359.834 481.521 360.142C480.148 360.473 478.479 360.675 476.514 360.746C472.868 360.888 469.672 360.402 466.926 359.29C464.203 358.177 462.084 356.449 460.569 354.105C459.054 351.761 458.308 348.802 458.332 345.227V292.386ZM501.705 360L486.861 305.455H502.167L510.619 342.102H511.116L519.923 305.455H534.944L543.893 341.889H544.354L552.664 305.455H567.934L553.126 360H537.11L527.735 325.696H527.06L517.685 360H501.705ZM596.65 361.065C591.134 361.065 586.364 359.893 582.339 357.55C578.338 355.182 575.248 351.892 573.07 347.678C570.892 343.44 569.803 338.527 569.803 332.94C569.803 327.306 570.892 322.382 573.07 318.168C575.248 313.93 578.338 310.639 582.339 308.295C586.364 305.928 591.134 304.744 596.65 304.744C602.166 304.744 606.925 305.928 610.926 308.295C614.95 310.639 618.051 313.93 620.23 318.168C622.408 322.382 623.497 327.306 623.497 332.94C623.497 338.527 622.408 343.44 620.23 347.678C618.051 351.892 614.95 355.182 610.926 357.55C606.925 359.893 602.166 361.065 596.65 361.065ZM596.721 349.347C599.23 349.347 601.326 348.636 603.006 347.216C604.687 345.772 605.954 343.807 606.806 341.321C607.682 338.835 608.12 336.006 608.12 332.834C608.12 329.661 607.682 326.832 606.806 324.347C605.954 321.861 604.687 319.896 603.006 318.452C601.326 317.008 599.23 316.286 596.721 316.286C594.188 316.286 592.057 317.008 590.329 318.452C588.624 319.896 587.334 321.861 586.458 324.347C585.606 326.832 585.18 329.661 585.18 332.834C585.18 336.006 585.606 338.835 586.458 341.321C587.334 343.807 588.624 345.772 590.329 347.216C592.057 348.636 594.188 349.347 596.721 349.347ZM630.702 360V305.455H645.368V314.972H645.936C646.93 311.586 648.599 309.029 650.943 307.301C653.287 305.549 655.986 304.673 659.04 304.673C659.797 304.673 660.614 304.721 661.49 304.815C662.366 304.91 663.135 305.04 663.798 305.206V318.629C663.088 318.416 662.105 318.227 660.851 318.061C659.596 317.895 658.448 317.812 657.406 317.812C655.181 317.812 653.192 318.298 651.44 319.268C649.712 320.215 648.339 321.541 647.321 323.246C646.327 324.95 645.829 326.915 645.829 329.141V360H630.702ZM682.695 344.304L682.731 326.158H684.933L702.404 305.455H719.769L696.296 332.869H692.71L682.695 344.304ZM668.988 360V287.273H684.116V360H668.988ZM703.079 360L687.028 336.243L697.113 325.554L720.799 360H703.079ZM101.682 445.065C96.0947 445.065 91.2888 443.882 87.2642 441.514C83.2633 439.123 80.1856 435.809 78.0312 431.571C75.9006 427.333 74.8352 422.456 74.8352 416.94C74.8352 411.353 75.9124 406.453 78.0668 402.239C80.2448 398.001 83.3343 394.698 87.3352 392.331C91.3362 389.94 96.0947 388.744 101.611 388.744C106.369 388.744 110.536 389.608 114.111 391.337C117.686 393.065 120.515 395.491 122.598 398.616C124.681 401.741 125.83 405.411 126.043 409.625H111.767C111.365 406.902 110.299 404.713 108.571 403.055C106.866 401.375 104.629 400.534 101.859 400.534C99.5156 400.534 97.4678 401.173 95.7159 402.452C93.9877 403.706 92.6383 405.541 91.6676 407.956C90.697 410.371 90.2116 413.295 90.2116 416.727C90.2116 420.207 90.6851 423.167 91.6321 425.605C92.6027 428.044 93.964 429.902 95.7159 431.18C97.4678 432.459 99.5156 433.098 101.859 433.098C103.588 433.098 105.138 432.743 106.511 432.033C107.908 431.322 109.056 430.293 109.956 428.943C110.879 427.57 111.483 425.925 111.767 424.007H126.043C125.806 428.174 124.67 431.843 122.634 435.016C120.621 438.164 117.839 440.626 114.288 442.402C110.737 444.178 106.535 445.065 101.682 445.065ZM157.742 445.065C152.226 445.065 147.455 443.893 143.431 441.55C139.43 439.182 136.34 435.892 134.162 431.678C131.984 427.44 130.895 422.527 130.895 416.94C130.895 411.306 131.984 406.382 134.162 402.168C136.34 397.93 139.43 394.639 143.431 392.295C147.455 389.928 152.226 388.744 157.742 388.744C163.258 388.744 168.016 389.928 172.017 392.295C176.042 394.639 179.143 397.93 181.321 402.168C183.499 406.382 184.588 411.306 184.588 416.94C184.588 422.527 183.499 427.44 181.321 431.678C179.143 435.892 176.042 439.182 172.017 441.55C168.016 443.893 163.258 445.065 157.742 445.065ZM157.813 433.347C160.322 433.347 162.417 432.636 164.098 431.216C165.779 429.772 167.046 427.807 167.898 425.321C168.774 422.835 169.212 420.006 169.212 416.834C169.212 413.661 168.774 410.832 167.898 408.347C167.046 405.861 165.779 403.896 164.098 402.452C162.417 401.008 160.322 400.286 157.813 400.286C155.28 400.286 153.149 401.008 151.421 402.452C149.716 403.896 148.426 405.861 147.55 408.347C146.698 410.832 146.271 413.661 146.271 416.834C146.271 420.006 146.698 422.835 147.55 425.321C148.426 427.807 149.716 429.772 151.421 431.216C153.149 432.636 155.28 433.347 157.813 433.347ZM191.793 444V389.455H206.211V399.078H206.85C207.986 395.882 209.88 393.361 212.532 391.514C215.183 389.668 218.356 388.744 222.049 388.744C225.79 388.744 228.974 389.679 231.602 391.55C234.229 393.396 235.981 395.906 236.857 399.078H237.425C238.538 395.953 240.55 393.455 243.462 391.585C246.398 389.691 249.866 388.744 253.867 388.744C258.957 388.744 263.088 390.366 266.261 393.609C269.457 396.829 271.055 401.398 271.055 407.317V444H255.962V410.3C255.962 407.269 255.157 404.997 253.548 403.482C251.938 401.966 249.925 401.209 247.511 401.209C244.764 401.209 242.622 402.085 241.083 403.837C239.544 405.565 238.775 407.849 238.775 410.69V444H224.109V409.98C224.109 407.305 223.339 405.174 221.8 403.588C220.285 402.002 218.285 401.209 215.799 401.209C214.118 401.209 212.603 401.635 211.254 402.487C209.928 403.316 208.874 404.488 208.093 406.003C207.312 407.494 206.921 409.246 206.921 411.259V444H191.793ZM280.373 464.455V389.455H295.287V398.616H295.962C296.625 397.149 297.584 395.657 298.839 394.142C300.117 392.603 301.774 391.325 303.81 390.307C305.87 389.265 308.427 388.744 311.481 388.744C315.458 388.744 319.127 389.786 322.489 391.869C325.851 393.929 328.538 397.042 330.55 401.209C332.563 405.352 333.569 410.548 333.569 416.798C333.569 422.883 332.586 428.02 330.621 432.21C328.68 436.377 326.028 439.537 322.667 441.692C319.329 443.822 315.588 444.888 311.445 444.888C308.51 444.888 306.012 444.402 303.952 443.432C301.916 442.461 300.247 441.242 298.945 439.774C297.643 438.283 296.649 436.779 295.962 435.264H295.501V464.455H280.373ZM295.181 416.727C295.181 419.971 295.631 422.8 296.53 425.214C297.43 427.629 298.732 429.511 300.437 430.861C302.141 432.187 304.213 432.849 306.651 432.849C309.113 432.849 311.197 432.175 312.901 430.825C314.606 429.452 315.896 427.558 316.772 425.143C317.671 422.705 318.121 419.9 318.121 416.727C318.121 413.579 317.683 410.809 316.807 408.418C315.931 406.027 314.641 404.156 312.937 402.807C311.232 401.457 309.137 400.783 306.651 400.783C304.189 400.783 302.106 401.434 300.401 402.736C298.72 404.038 297.43 405.884 296.53 408.276C295.631 410.667 295.181 413.484 295.181 416.727ZM356.15 371.273V444H341.022V371.273H356.15ZM390.495 445.065C384.884 445.065 380.054 443.929 376.006 441.656C371.982 439.36 368.88 436.116 366.702 431.926C364.524 427.712 363.435 422.729 363.435 416.976C363.435 411.365 364.524 406.441 366.702 402.203C368.88 397.965 371.946 394.663 375.9 392.295C379.877 389.928 384.541 388.744 389.891 388.744C393.49 388.744 396.839 389.324 399.941 390.484C403.066 391.621 405.788 393.337 408.108 395.634C410.452 397.93 412.275 400.818 413.577 404.298C414.879 407.755 415.53 411.803 415.53 416.443V420.598H369.472V411.223H401.29C401.29 409.045 400.817 407.116 399.87 405.435C398.923 403.754 397.609 402.44 395.928 401.493C394.271 400.522 392.341 400.037 390.14 400.037C387.843 400.037 385.807 400.57 384.032 401.635C382.28 402.677 380.907 404.085 379.912 405.861C378.918 407.613 378.409 409.566 378.385 411.72V420.634C378.385 423.332 378.883 425.664 379.877 427.629C380.895 429.594 382.327 431.109 384.174 432.175C386.02 433.24 388.21 433.773 390.743 433.773C392.424 433.773 393.963 433.536 395.36 433.062C396.757 432.589 397.952 431.879 398.947 430.932C399.941 429.985 400.698 428.825 401.219 427.452L415.211 428.375C414.5 431.737 413.045 434.672 410.843 437.182C408.665 439.668 405.848 441.609 402.391 443.006C398.958 444.379 394.993 445.065 390.495 445.065ZM434.436 389.455L444.451 408.524L454.713 389.455H470.232L454.429 416.727L470.658 444H455.211L444.451 425.143L433.868 444H418.243L434.436 416.727L418.811 389.455H434.436ZM476.585 444V389.455H491.712V444H476.585ZM484.184 382.423C481.935 382.423 480.006 381.678 478.396 380.186C476.81 378.671 476.016 376.86 476.016 374.753C476.016 372.67 476.81 370.882 478.396 369.391C480.006 367.875 481.935 367.118 484.184 367.118C486.433 367.118 488.351 367.875 489.937 369.391C491.547 370.882 492.352 372.67 492.352 374.753C492.352 376.86 491.547 378.671 489.937 380.186C488.351 381.678 486.433 382.423 484.184 382.423ZM530.212 389.455V400.818H497.364V389.455H530.212ZM504.821 376.386H519.949V427.239C519.949 428.635 520.162 429.724 520.588 430.506C521.014 431.263 521.606 431.796 522.364 432.104C523.145 432.411 524.045 432.565 525.063 432.565C525.773 432.565 526.483 432.506 527.193 432.388C527.904 432.246 528.448 432.139 528.827 432.068L531.206 443.325C530.449 443.562 529.383 443.834 528.01 444.142C526.637 444.473 524.968 444.675 523.003 444.746C519.357 444.888 516.161 444.402 513.415 443.29C510.693 442.177 508.574 440.449 507.059 438.105C505.543 435.761 504.798 432.802 504.821 429.227V376.386ZM546.774 464.455C544.857 464.455 543.057 464.301 541.377 463.993C539.719 463.709 538.346 463.342 537.257 462.892L540.666 451.599C542.442 452.144 544.04 452.44 545.46 452.487C546.904 452.535 548.147 452.203 549.189 451.493C550.254 450.783 551.118 449.575 551.781 447.871L552.669 445.562L533.102 389.455H549.011L560.304 429.511H560.872L572.271 389.455H588.287L567.087 449.895C566.069 452.83 564.684 455.387 562.932 457.565C561.204 459.767 559.014 461.46 556.362 462.643C553.711 463.851 550.515 464.455 546.774 464.455Z" fill="black"/>
<rect x="71" y="498" width="1038" height="19" fill="black"/>
</svg>
