<svg width="1200" height="900" viewBox="0 0 1200 900" fill="none" xmlns="http://www.w3.org/2000/svg">
<rect width="1200" height="900" fill="white"/>
<path d="M77.321 444V371.273H92.6974V401.28H123.912V371.273H139.253V444H123.912V413.957H92.6974V444H77.321ZM173.66 445.065C168.144 445.065 163.373 443.893 159.349 441.55C155.348 439.182 152.258 435.892 150.08 431.678C147.902 427.44 146.813 422.527 146.813 416.94C146.813 411.306 147.902 406.382 150.08 402.168C152.258 397.93 155.348 394.639 159.349 392.295C163.373 389.928 168.144 388.744 173.66 388.744C179.176 388.744 183.934 389.928 187.935 392.295C191.96 394.639 195.061 397.93 197.239 402.168C199.417 406.382 200.506 411.306 200.506 416.94C200.506 422.527 199.417 427.44 197.239 431.678C195.061 435.892 191.96 439.182 187.935 441.55C183.934 443.893 179.176 445.065 173.66 445.065ZM173.731 433.347C176.24 433.347 178.335 432.636 180.016 431.216C181.697 429.772 182.964 427.807 183.816 425.321C184.692 422.835 185.13 420.006 185.13 416.834C185.13 413.661 184.692 410.832 183.816 408.347C182.964 405.861 181.697 403.896 180.016 402.452C178.335 401.008 176.24 400.286 173.731 400.286C171.197 400.286 169.067 401.008 167.339 402.452C165.634 403.896 164.344 405.861 163.468 408.347C162.616 410.832 162.189 413.661 162.189 416.834C162.189 420.006 162.616 422.835 163.468 425.321C164.344 427.807 165.634 429.772 167.339 431.216C169.067 432.636 171.197 433.347 173.731 433.347ZM217.104 444L202.26 389.455H217.566L226.017 426.102H226.515L235.321 389.455H250.343L259.292 425.889H259.753L268.063 389.455H283.333L268.524 444H252.509L243.134 409.696H242.459L233.084 444H217.104ZM349.021 392.189C348.737 389.324 347.518 387.099 345.364 385.513C343.209 383.927 340.285 383.134 336.592 383.134C334.083 383.134 331.964 383.489 330.236 384.199C328.508 384.885 327.182 385.844 326.258 387.075C325.359 388.306 324.909 389.703 324.909 391.266C324.862 392.568 325.134 393.704 325.726 394.675C326.341 395.645 327.182 396.486 328.247 397.196C329.312 397.883 330.544 398.486 331.94 399.007C333.337 399.504 334.829 399.93 336.415 400.286L342.949 401.848C346.121 402.558 349.033 403.505 351.685 404.689C354.336 405.873 356.633 407.329 358.574 409.057C360.515 410.785 362.018 412.821 363.084 415.165C364.173 417.509 364.729 420.196 364.753 423.226C364.729 427.677 363.593 431.536 361.344 434.803C359.118 438.046 355.899 440.567 351.685 442.366C347.494 444.142 342.44 445.03 336.521 445.03C330.65 445.03 325.536 444.13 321.18 442.331C316.848 440.532 313.463 437.868 311.024 434.341C308.609 430.79 307.343 426.398 307.224 421.166H322.104C322.269 423.605 322.968 425.641 324.199 427.274C325.454 428.884 327.123 430.103 329.206 430.932C331.313 431.737 333.692 432.139 336.344 432.139C338.948 432.139 341.209 431.76 343.126 431.003C345.068 430.245 346.571 429.192 347.636 427.842C348.702 426.493 349.234 424.942 349.234 423.19C349.234 421.557 348.749 420.184 347.778 419.071C346.831 417.958 345.435 417.011 343.588 416.23C341.765 415.449 339.528 414.739 336.876 414.099L328.957 412.111C322.826 410.619 317.984 408.287 314.433 405.115C310.882 401.943 309.118 397.67 309.142 392.295C309.118 387.892 310.29 384.045 312.658 380.754C315.049 377.464 318.328 374.895 322.494 373.048C326.661 371.202 331.396 370.278 336.699 370.278C342.097 370.278 346.808 371.202 350.832 373.048C354.881 374.895 358.029 377.464 360.278 380.754C362.527 384.045 363.687 387.857 363.758 392.189H349.021ZM397.038 445.065C391.427 445.065 386.597 443.929 382.549 441.656C378.525 439.36 375.423 436.116 373.245 431.926C371.067 427.712 369.978 422.729 369.978 416.976C369.978 411.365 371.067 406.441 373.245 402.203C375.423 397.965 378.489 394.663 382.443 392.295C386.42 389.928 391.084 388.744 396.434 388.744C400.033 388.744 403.382 389.324 406.484 390.484C409.609 391.621 412.331 393.337 414.651 395.634C416.995 397.93 418.818 400.818 420.12 404.298C421.422 407.755 422.073 411.803 422.073 416.443V420.598H376.015V411.223H407.833C407.833 409.045 407.36 407.116 406.413 405.435C405.466 403.754 404.152 402.44 402.471 401.493C400.814 400.522 398.884 400.037 396.683 400.037C394.386 400.037 392.35 400.57 390.575 401.635C388.823 402.677 387.45 404.085 386.455 405.861C385.461 407.613 384.952 409.566 384.928 411.72V420.634C384.928 423.332 385.426 425.664 386.42 427.629C387.438 429.594 388.87 431.109 390.717 432.175C392.563 433.24 394.753 433.773 397.286 433.773C398.967 433.773 400.506 433.536 401.903 433.062C403.3 432.589 404.495 431.879 405.489 430.932C406.484 429.985 407.241 428.825 407.762 427.452L421.754 428.375C421.043 431.737 419.587 434.672 417.386 437.182C415.208 439.668 412.391 441.609 408.934 443.006C405.501 444.379 401.536 445.065 397.038 445.065ZM429.314 444V389.455H443.98V398.972H444.548C445.543 395.586 447.212 393.029 449.555 391.301C451.899 389.549 454.598 388.673 457.652 388.673C458.41 388.673 459.226 388.721 460.102 388.815C460.978 388.91 461.748 389.04 462.41 389.206V402.629C461.7 402.416 460.718 402.227 459.463 402.061C458.208 401.895 457.06 401.812 456.018 401.812C453.793 401.812 451.804 402.298 450.053 403.268C448.324 404.215 446.951 405.541 445.933 407.246C444.939 408.95 444.442 410.915 444.442 413.141V444H429.314ZM520.113 389.455L501.043 444H483.998L464.928 389.455H480.908L492.236 428.482H492.804L504.097 389.455H520.113ZM525.223 444V389.455H540.35V444H525.223ZM532.822 382.423C530.573 382.423 528.643 381.678 527.034 380.186C525.447 378.671 524.654 376.86 524.654 374.753C524.654 372.67 525.447 370.882 527.034 369.391C528.643 367.875 530.573 367.118 532.822 367.118C535.071 367.118 536.989 367.875 538.575 369.391C540.185 370.882 540.99 372.67 540.99 374.753C540.99 376.86 540.185 378.671 538.575 380.186C536.989 381.678 535.071 382.423 532.822 382.423ZM574.482 445.065C568.895 445.065 564.089 443.882 560.064 441.514C556.063 439.123 552.986 435.809 550.831 431.571C548.701 427.333 547.635 422.456 547.635 416.94C547.635 411.353 548.713 406.453 550.867 402.239C553.045 398.001 556.134 394.698 560.135 392.331C564.136 389.94 568.895 388.744 574.411 388.744C579.169 388.744 583.336 389.608 586.911 391.337C590.486 393.065 593.315 395.491 595.398 398.616C597.482 401.741 598.63 405.411 598.843 409.625H584.567C584.165 406.902 583.099 404.713 581.371 403.055C579.667 401.375 577.429 400.534 574.66 400.534C572.316 400.534 570.268 401.173 568.516 402.452C566.788 403.706 565.438 405.541 564.468 407.956C563.497 410.371 563.012 413.295 563.012 416.727C563.012 420.207 563.485 423.167 564.432 425.605C565.403 428.044 566.764 429.902 568.516 431.18C570.268 432.459 572.316 433.098 574.66 433.098C576.388 433.098 577.938 432.743 579.312 432.033C580.708 431.322 581.857 430.293 582.756 428.943C583.679 427.57 584.283 425.925 584.567 424.007H598.843C598.606 428.174 597.47 431.843 595.434 435.016C593.421 438.164 590.64 440.626 587.089 442.402C583.537 444.178 579.335 445.065 574.482 445.065ZM630.755 445.065C625.144 445.065 620.315 443.929 616.266 441.656C612.242 439.36 609.14 436.116 606.962 431.926C604.784 427.712 603.695 422.729 603.695 416.976C603.695 411.365 604.784 406.441 606.962 402.203C609.14 397.965 612.206 394.663 616.16 392.295C620.137 389.928 624.801 388.744 630.151 388.744C633.75 388.744 637.1 389.324 640.201 390.484C643.326 391.621 646.048 393.337 648.369 395.634C650.712 397.93 652.535 400.818 653.837 404.298C655.139 407.755 655.79 411.803 655.79 416.443V420.598H609.732V411.223H641.55C641.55 409.045 641.077 407.116 640.13 405.435C639.183 403.754 637.869 402.44 636.188 401.493C634.531 400.522 632.601 400.037 630.4 400.037C628.103 400.037 626.067 400.57 624.292 401.635C622.54 402.677 621.167 404.085 620.172 405.861C619.178 407.613 618.669 409.566 618.645 411.72V420.634C618.645 423.332 619.143 425.664 620.137 427.629C621.155 429.594 622.587 431.109 624.434 432.175C626.28 433.24 628.47 433.773 631.003 433.773C632.684 433.773 634.223 433.536 635.62 433.062C637.017 432.589 638.212 431.879 639.207 430.932C640.201 429.985 640.958 428.825 641.479 427.452L655.471 428.375C654.761 431.737 653.305 434.672 651.103 437.182C648.925 439.668 646.108 441.609 642.651 443.006C639.218 444.379 635.253 445.065 630.755 445.065ZM708.414 405.009L694.565 405.861C694.328 404.677 693.819 403.612 693.038 402.665C692.257 401.694 691.227 400.925 689.949 400.357C688.694 399.765 687.191 399.469 685.439 399.469C683.095 399.469 681.118 399.966 679.508 400.96C677.898 401.931 677.093 403.233 677.093 404.866C677.093 406.169 677.614 407.269 678.656 408.169C679.698 409.069 681.485 409.791 684.018 410.335L693.89 412.324C699.193 413.413 703.147 415.165 705.751 417.58C708.355 419.994 709.657 423.167 709.657 427.097C709.657 430.671 708.604 433.808 706.497 436.507C704.414 439.206 701.549 441.313 697.903 442.828C694.281 444.32 690.102 445.065 685.368 445.065C678.147 445.065 672.394 443.562 668.109 440.555C663.848 437.525 661.35 433.406 660.616 428.197L675.495 427.416C675.945 429.618 677.034 431.299 678.762 432.459C680.491 433.595 682.704 434.163 685.403 434.163C688.055 434.163 690.185 433.654 691.795 432.636C693.429 431.595 694.257 430.257 694.281 428.624C694.257 427.25 693.677 426.126 692.541 425.25C691.405 424.35 689.653 423.664 687.285 423.19L677.839 421.308C672.512 420.243 668.547 418.396 665.943 415.768C663.362 413.141 662.072 409.791 662.072 405.719C662.072 402.215 663.019 399.196 664.913 396.663C666.831 394.13 669.518 392.177 672.974 390.804C676.454 389.431 680.526 388.744 685.19 388.744C692.079 388.744 697.501 390.2 701.454 393.112C705.432 396.024 707.752 399.99 708.414 405.009ZM747.825 444L732.981 389.455H748.286L756.738 426.102H757.235L766.042 389.455H781.063L790.012 425.889H790.474L798.783 389.455H814.053L799.245 444H783.229L773.854 409.696H773.18L763.805 444H747.825ZM842.769 445.065C837.253 445.065 832.483 443.893 828.458 441.55C824.457 439.182 821.368 435.892 819.19 431.678C817.012 427.44 815.923 422.527 815.923 416.94C815.923 411.306 817.012 406.382 819.19 402.168C821.368 397.93 824.457 394.639 828.458 392.295C832.483 389.928 837.253 388.744 842.769 388.744C848.286 388.744 853.044 389.928 857.045 392.295C861.07 394.639 864.171 397.93 866.349 402.168C868.527 406.382 869.616 411.306 869.616 416.94C869.616 422.527 868.527 427.44 866.349 431.678C864.171 435.892 861.07 439.182 857.045 441.55C853.044 443.893 848.286 445.065 842.769 445.065ZM842.84 433.347C845.35 433.347 847.445 432.636 849.126 431.216C850.807 429.772 852.073 427.807 852.926 425.321C853.802 422.835 854.24 420.006 854.24 416.834C854.24 413.661 853.802 410.832 852.926 408.347C852.073 405.861 850.807 403.896 849.126 402.452C847.445 401.008 845.35 400.286 842.84 400.286C840.307 400.286 838.177 401.008 836.448 402.452C834.744 403.896 833.454 405.861 832.578 408.347C831.725 410.832 831.299 413.661 831.299 416.834C831.299 420.006 831.725 422.835 832.578 425.321C833.454 427.807 834.744 429.772 836.448 431.216C838.177 432.636 840.307 433.347 842.84 433.347ZM876.821 444V389.455H891.487V398.972H892.055C893.05 395.586 894.719 393.029 897.063 391.301C899.406 389.549 902.105 388.673 905.159 388.673C905.917 388.673 906.733 388.721 907.609 388.815C908.485 388.91 909.255 389.04 909.918 389.206V402.629C909.207 402.416 908.225 402.227 906.97 402.061C905.715 401.895 904.567 401.812 903.526 401.812C901.3 401.812 899.312 402.298 897.56 403.268C895.831 404.215 894.458 405.541 893.44 407.246C892.446 408.95 891.949 410.915 891.949 413.141V444H876.821ZM928.815 428.304L928.85 410.158H931.052L948.524 389.455H965.889L942.416 416.869H938.829L928.815 428.304ZM915.107 444V371.273H930.235V444H915.107ZM949.198 444L933.147 420.243L943.232 409.554L966.919 444H949.198Z" fill="black"/>
<rect x="71" y="498" width="1038" height="19" fill="black"/>
</svg>
