<svg width="1200" height="900" viewBox="0 0 1200 900" fill="none" xmlns="http://www.w3.org/2000/svg">
<rect width="1200" height="900" fill="white"/>
<path d="M116.774 392.189C116.49 389.324 115.271 387.099 113.116 385.513C110.962 383.927 108.038 383.134 104.345 383.134C101.836 383.134 99.7169 383.489 97.9886 384.199C96.2604 384.885 94.9347 385.844 94.0114 387.075C93.1117 388.306 92.6619 389.703 92.6619 391.266C92.6146 392.568 92.8868 393.704 93.4787 394.675C94.0942 395.645 94.9347 396.486 96 397.196C97.0653 397.883 98.2964 398.486 99.6932 399.007C101.09 399.504 102.581 399.93 104.168 400.286L110.702 401.848C113.874 402.558 116.786 403.505 119.438 404.689C122.089 405.873 124.385 407.329 126.327 409.057C128.268 410.785 129.771 412.821 130.837 415.165C131.926 417.509 132.482 420.196 132.506 423.226C132.482 427.677 131.346 431.536 129.097 434.803C126.871 438.046 123.652 440.567 119.438 442.366C115.247 444.142 110.193 445.03 104.274 445.03C98.4029 445.03 93.2893 444.13 88.9332 442.331C84.6009 440.532 81.2154 437.868 78.777 434.341C76.3622 430.79 75.0956 426.398 74.9773 421.166H89.8565C90.0223 423.605 90.7206 425.641 91.9517 427.274C93.2064 428.884 94.8755 430.103 96.9588 430.932C99.0658 431.737 101.445 432.139 104.097 432.139C106.701 432.139 108.962 431.76 110.879 431.003C112.821 430.245 114.324 429.192 115.389 427.842C116.455 426.493 116.987 424.942 116.987 423.19C116.987 421.557 116.502 420.184 115.531 419.071C114.584 417.958 113.188 417.011 111.341 416.23C109.518 415.449 107.281 414.739 104.629 414.099L96.7102 412.111C90.5786 410.619 85.7372 408.287 82.1861 405.115C78.6349 401.943 76.8712 397.67 76.8949 392.295C76.8712 387.892 78.0431 384.045 80.4105 380.754C82.8016 377.464 86.0805 374.895 90.2472 373.048C94.4138 371.202 99.1487 370.278 104.452 370.278C109.849 370.278 114.561 371.202 118.585 373.048C122.634 374.895 125.782 377.464 128.031 380.754C130.28 384.045 131.44 387.857 131.511 392.189H116.774ZM164.791 445.065C159.18 445.065 154.35 443.929 150.302 441.656C146.277 439.36 143.176 436.116 140.998 431.926C138.82 427.712 137.731 422.729 137.731 416.976C137.731 411.365 138.82 406.441 140.998 402.203C143.176 397.965 146.242 394.663 150.195 392.295C154.173 389.928 158.837 388.744 164.187 388.744C167.785 388.744 171.135 389.324 174.237 390.484C177.362 391.621 180.084 393.337 182.404 395.634C184.748 397.93 186.571 400.818 187.873 404.298C189.175 407.755 189.826 411.803 189.826 416.443V420.598H143.768V411.223H175.586C175.586 409.045 175.113 407.116 174.166 405.435C173.219 403.754 171.905 402.44 170.224 401.493C168.567 400.522 166.637 400.037 164.436 400.037C162.139 400.037 160.103 400.57 158.328 401.635C156.576 402.677 155.203 404.085 154.208 405.861C153.214 407.613 152.705 409.566 152.681 411.72V420.634C152.681 423.332 153.178 425.664 154.173 427.629C155.191 429.594 156.623 431.109 158.47 432.175C160.316 433.24 162.506 433.773 165.039 433.773C166.72 433.773 168.259 433.536 169.656 433.062C171.052 432.589 172.248 431.879 173.242 430.932C174.237 429.985 174.994 428.825 175.515 427.452L189.507 428.375C188.796 431.737 187.34 434.672 185.139 437.182C182.961 439.668 180.143 441.609 176.687 443.006C173.254 444.379 169.289 445.065 164.791 445.065ZM197.067 444V389.455H211.733V398.972H212.301C213.295 395.586 214.964 393.029 217.308 391.301C219.652 389.549 222.351 388.673 225.405 388.673C226.162 388.673 226.979 388.721 227.855 388.815C228.731 388.91 229.5 389.04 230.163 389.206V402.629C229.453 402.416 228.471 402.227 227.216 402.061C225.961 401.895 224.813 401.812 223.771 401.812C221.546 401.812 219.557 402.298 217.805 403.268C216.077 404.215 214.704 405.541 213.686 407.246C212.692 408.95 212.195 410.915 212.195 413.141V444H197.067ZM287.866 389.455L268.796 444H251.751L232.681 389.455H248.661L259.989 428.482H260.557L271.85 389.455H287.866ZM292.975 444V389.455H308.103V444H292.975ZM300.575 382.423C298.326 382.423 296.396 381.678 294.787 380.186C293.2 378.671 292.407 376.86 292.407 374.753C292.407 372.67 293.2 370.882 294.787 369.391C296.396 367.875 298.326 367.118 300.575 367.118C302.824 367.118 304.742 367.875 306.328 369.391C307.938 370.882 308.743 372.67 308.743 374.753C308.743 376.86 307.938 378.671 306.328 380.186C304.742 381.678 302.824 382.423 300.575 382.423ZM342.235 445.065C336.648 445.065 331.842 443.882 327.817 441.514C323.816 439.123 320.739 435.809 318.584 431.571C316.454 427.333 315.388 422.456 315.388 416.94C315.388 411.353 316.465 406.453 318.62 402.239C320.798 398.001 323.887 394.698 327.888 392.331C331.889 389.94 336.648 388.744 342.164 388.744C346.922 388.744 351.089 389.608 354.664 391.337C358.239 393.065 361.068 395.491 363.151 398.616C365.234 401.741 366.383 405.411 366.596 409.625H352.32C351.918 406.902 350.852 404.713 349.124 403.055C347.42 401.375 345.182 400.534 342.412 400.534C340.069 400.534 338.021 401.173 336.269 402.452C334.541 403.706 333.191 405.541 332.221 407.956C331.25 410.371 330.765 413.295 330.765 416.727C330.765 420.207 331.238 423.167 332.185 425.605C333.156 428.044 334.517 429.902 336.269 431.18C338.021 432.459 340.069 433.098 342.412 433.098C344.141 433.098 345.691 432.743 347.064 432.033C348.461 431.322 349.609 430.293 350.509 428.943C351.432 427.57 352.036 425.925 352.32 424.007H366.596C366.359 428.174 365.223 431.843 363.187 435.016C361.174 438.164 358.393 440.626 354.841 442.402C351.29 444.178 347.088 445.065 342.235 445.065ZM398.508 445.065C392.897 445.065 388.067 443.929 384.019 441.656C379.995 439.36 376.893 436.116 374.715 431.926C372.537 427.712 371.448 422.729 371.448 416.976C371.448 411.365 372.537 406.441 374.715 402.203C376.893 397.965 379.959 394.663 383.913 392.295C387.89 389.928 392.554 388.744 397.904 388.744C401.503 388.744 404.852 389.324 407.954 390.484C411.079 391.621 413.801 393.337 416.121 395.634C418.465 397.93 420.288 400.818 421.59 404.298C422.892 407.755 423.543 411.803 423.543 416.443V420.598H377.485V411.223H409.303C409.303 409.045 408.83 407.116 407.883 405.435C406.936 403.754 405.622 402.44 403.941 401.493C402.284 400.522 400.354 400.037 398.153 400.037C395.856 400.037 393.82 400.57 392.045 401.635C390.293 402.677 388.92 404.085 387.925 405.861C386.931 407.613 386.422 409.566 386.398 411.72V420.634C386.398 423.332 386.896 425.664 387.89 427.629C388.908 429.594 390.34 431.109 392.187 432.175C394.033 433.24 396.223 433.773 398.756 433.773C400.437 433.773 401.976 433.536 403.373 433.062C404.77 432.589 405.965 431.879 406.959 430.932C407.954 429.985 408.711 428.825 409.232 427.452L423.224 428.375C422.513 431.737 421.057 434.672 418.856 437.182C416.678 439.668 413.861 441.609 410.404 443.006C406.971 444.379 403.006 445.065 398.508 445.065ZM476.167 405.009L462.318 405.861C462.081 404.677 461.572 403.612 460.791 402.665C460.01 401.694 458.98 400.925 457.701 400.357C456.447 399.765 454.943 399.469 453.192 399.469C450.848 399.469 448.871 399.966 447.261 400.96C445.651 401.931 444.846 403.233 444.846 404.866C444.846 406.169 445.367 407.269 446.409 408.169C447.451 409.069 449.238 409.791 451.771 410.335L461.643 412.324C466.946 413.413 470.9 415.165 473.504 417.58C476.108 419.994 477.41 423.167 477.41 427.097C477.41 430.671 476.357 433.808 474.25 436.507C472.166 439.206 469.302 441.313 465.656 442.828C462.034 444.32 457.855 445.065 453.12 445.065C445.9 445.065 440.147 443.562 435.862 440.555C431.601 437.525 429.103 433.406 428.369 428.197L443.248 427.416C443.698 429.618 444.787 431.299 446.515 432.459C448.244 433.595 450.457 434.163 453.156 434.163C455.808 434.163 457.938 433.654 459.548 432.636C461.182 431.595 462.01 430.257 462.034 428.624C462.01 427.25 461.43 426.126 460.294 425.25C459.157 424.35 457.406 423.664 455.038 423.19L445.592 421.308C440.265 420.243 436.3 418.396 433.696 415.768C431.115 413.141 429.825 409.791 429.825 405.719C429.825 402.215 430.772 399.196 432.666 396.663C434.584 394.13 437.271 392.177 440.727 390.804C444.207 389.431 448.279 388.744 452.943 388.744C459.832 388.744 465.254 390.2 469.207 393.112C473.184 396.024 475.504 399.99 476.167 405.009ZM520.372 445.03C516.891 445.03 513.79 444.426 511.068 443.219C508.345 441.988 506.191 440.177 504.605 437.786C503.042 435.371 502.261 432.364 502.261 428.766C502.261 425.735 502.817 423.19 503.93 421.131C505.042 419.071 506.558 417.414 508.475 416.159C510.393 414.904 512.571 413.957 515.009 413.318C517.471 412.679 520.052 412.229 522.751 411.969C525.923 411.637 528.48 411.33 530.421 411.045C532.363 410.738 533.771 410.288 534.647 409.696C535.523 409.104 535.961 408.228 535.961 407.068V406.855C535.961 404.606 535.251 402.866 533.83 401.635C532.434 400.404 530.445 399.788 527.864 399.788C525.142 399.788 522.976 400.392 521.366 401.599C519.756 402.783 518.691 404.275 518.17 406.074L504.178 404.938C504.889 401.623 506.285 398.759 508.369 396.344C510.452 393.905 513.139 392.035 516.43 390.733C519.744 389.407 523.579 388.744 527.935 388.744C530.966 388.744 533.866 389.099 536.636 389.81C539.429 390.52 541.903 391.621 544.058 393.112C546.236 394.604 547.952 396.521 549.207 398.865C550.462 401.185 551.089 403.967 551.089 407.21V444H536.742V436.436H536.316C535.44 438.141 534.268 439.644 532.801 440.946C531.333 442.224 529.569 443.231 527.509 443.964C525.45 444.675 523.07 445.03 520.372 445.03ZM524.704 434.589C526.929 434.589 528.894 434.152 530.599 433.276C532.303 432.376 533.641 431.169 534.612 429.653C535.582 428.138 536.068 426.422 536.068 424.504V418.716C535.594 419.024 534.943 419.308 534.114 419.568C533.31 419.805 532.398 420.03 531.38 420.243C530.362 420.432 529.344 420.61 528.326 420.776C527.308 420.918 526.385 421.048 525.556 421.166C523.781 421.427 522.23 421.841 520.904 422.409C519.578 422.977 518.549 423.747 517.815 424.717C517.081 425.664 516.714 426.848 516.714 428.268C516.714 430.328 517.46 431.902 518.951 432.991C520.466 434.057 522.384 434.589 524.704 434.589ZM589.207 389.455V400.818H556.359V389.455H589.207ZM563.816 376.386H578.944V427.239C578.944 428.635 579.157 429.724 579.583 430.506C580.009 431.263 580.601 431.796 581.359 432.104C582.14 432.411 583.039 432.565 584.057 432.565C584.768 432.565 585.478 432.506 586.188 432.388C586.898 432.246 587.443 432.139 587.822 432.068L590.201 443.325C589.443 443.562 588.378 443.834 587.005 444.142C585.632 444.473 583.963 444.675 581.998 444.746C578.352 444.888 575.156 444.402 572.41 443.29C569.687 442.177 567.568 440.449 566.053 438.105C564.538 435.761 563.792 432.802 563.816 429.227V376.386ZM662.326 405.009L648.476 405.861C648.24 404.677 647.731 403.612 646.949 402.665C646.168 401.694 645.138 400.925 643.86 400.357C642.605 399.765 641.102 399.469 639.35 399.469C637.006 399.469 635.03 399.966 633.42 400.96C631.81 401.931 631.005 403.233 631.005 404.866C631.005 406.169 631.526 407.269 632.567 408.169C633.609 409.069 635.396 409.791 637.93 410.335L647.802 412.324C653.105 413.413 657.058 415.165 659.663 417.58C662.267 419.994 663.569 423.167 663.569 427.097C663.569 430.671 662.515 433.808 660.408 436.507C658.325 439.206 655.46 441.313 651.815 442.828C648.192 444.32 644.014 445.065 639.279 445.065C632.058 445.065 626.306 443.562 622.021 440.555C617.759 437.525 615.262 433.406 614.528 428.197L629.407 427.416C629.857 429.618 630.946 431.299 632.674 432.459C634.402 433.595 636.616 434.163 639.315 434.163C641.966 434.163 644.097 433.654 645.707 432.636C647.34 431.595 648.169 430.257 648.192 428.624C648.169 427.25 647.589 426.126 646.452 425.25C645.316 424.35 643.564 423.664 641.197 423.19L631.751 421.308C626.424 420.243 622.458 418.396 619.854 415.768C617.274 413.141 615.984 409.791 615.984 405.719C615.984 402.215 616.931 399.196 618.824 396.663C620.742 394.13 623.429 392.177 626.886 390.804C630.366 389.431 634.438 388.744 639.101 388.744C645.991 388.744 651.412 390.2 655.366 393.112C659.343 396.024 661.663 399.99 662.326 405.009ZM695.108 445.065C689.521 445.065 684.715 443.882 680.69 441.514C676.689 439.123 673.612 435.809 671.457 431.571C669.327 427.333 668.261 422.456 668.261 416.94C668.261 411.353 669.339 406.453 671.493 402.239C673.671 398.001 676.76 394.698 680.761 392.331C684.762 389.94 689.521 388.744 695.037 388.744C699.796 388.744 703.962 389.608 707.537 391.337C711.112 393.065 713.941 395.491 716.024 398.616C718.108 401.741 719.256 405.411 719.469 409.625H705.193C704.791 406.902 703.725 404.713 701.997 403.055C700.293 401.375 698.055 400.534 695.286 400.534C692.942 400.534 690.894 401.173 689.142 402.452C687.414 403.706 686.064 405.541 685.094 407.956C684.123 410.371 683.638 413.295 683.638 416.727C683.638 420.207 684.111 423.167 685.058 425.605C686.029 428.044 687.39 429.902 689.142 431.18C690.894 432.459 692.942 433.098 695.286 433.098C697.014 433.098 698.564 432.743 699.938 432.033C701.334 431.322 702.483 430.293 703.382 428.943C704.305 427.57 704.909 425.925 705.193 424.007H719.469C719.232 428.174 718.096 431.843 716.06 435.016C714.047 438.164 711.266 440.626 707.715 442.402C704.163 444.178 699.961 445.065 695.108 445.065ZM742.077 445.03C738.597 445.03 735.495 444.426 732.773 443.219C730.05 441.988 727.896 440.177 726.31 437.786C724.747 435.371 723.966 432.364 723.966 428.766C723.966 425.735 724.522 423.19 725.635 421.131C726.748 419.071 728.263 417.414 730.181 416.159C732.098 414.904 734.276 413.957 736.715 413.318C739.177 412.679 741.757 412.229 744.456 411.969C747.629 411.637 750.185 411.33 752.127 411.045C754.068 410.738 755.477 410.288 756.353 409.696C757.228 409.104 757.666 408.228 757.666 407.068V406.855C757.666 404.606 756.956 402.866 755.536 401.635C754.139 400.404 752.15 399.788 749.57 399.788C746.847 399.788 744.681 400.392 743.071 401.599C741.461 402.783 740.396 404.275 739.875 406.074L725.884 404.938C726.594 401.623 727.991 398.759 730.074 396.344C732.157 393.905 734.844 392.035 738.135 390.733C741.45 389.407 745.285 388.744 749.641 388.744C752.671 388.744 755.571 389.099 758.341 389.81C761.135 390.52 763.609 391.621 765.763 393.112C767.941 394.604 769.657 396.521 770.912 398.865C772.167 401.185 772.794 403.967 772.794 407.21V444H758.448V436.436H758.022C757.146 438.141 755.974 439.644 754.506 440.946C753.038 442.224 751.274 443.231 749.215 443.964C747.155 444.675 744.776 445.03 742.077 445.03ZM746.409 434.589C748.635 434.589 750.6 434.152 752.304 433.276C754.009 432.376 755.346 431.169 756.317 429.653C757.288 428.138 757.773 426.422 757.773 424.504V418.716C757.299 419.024 756.648 419.308 755.82 419.568C755.015 419.805 754.103 420.03 753.085 420.243C752.067 420.432 751.049 420.61 750.031 420.776C749.013 420.918 748.09 421.048 747.262 421.166C745.486 421.427 743.935 421.841 742.61 422.409C741.284 422.977 740.254 423.747 739.52 424.717C738.786 425.664 738.419 426.848 738.419 428.268C738.419 430.328 739.165 431.902 740.656 432.991C742.172 434.057 744.089 434.589 746.409 434.589ZM797.027 371.273V444H781.899V371.273H797.027ZM831.372 445.065C825.761 445.065 820.931 443.929 816.883 441.656C812.858 439.36 809.757 436.116 807.579 431.926C805.401 427.712 804.312 422.729 804.312 416.976C804.312 411.365 805.401 406.441 807.579 402.203C809.757 397.965 812.823 394.663 816.776 392.295C820.754 389.928 825.418 388.744 830.768 388.744C834.366 388.744 837.716 389.324 840.818 390.484C843.943 391.621 846.665 393.337 848.985 395.634C851.329 397.93 853.152 400.818 854.454 404.298C855.756 407.755 856.407 411.803 856.407 416.443V420.598H810.349V411.223H842.167C842.167 409.045 841.694 407.116 840.747 405.435C839.8 403.754 838.486 402.44 836.805 401.493C835.148 400.522 833.218 400.037 831.017 400.037C828.72 400.037 826.684 400.57 824.909 401.635C823.157 402.677 821.784 404.085 820.789 405.861C819.795 407.613 819.286 409.566 819.262 411.72V420.634C819.262 423.332 819.759 425.664 820.754 427.629C821.772 429.594 823.204 431.109 825.051 432.175C826.897 433.24 829.087 433.773 831.62 433.773C833.301 433.773 834.84 433.536 836.237 433.062C837.633 432.589 838.829 431.879 839.823 430.932C840.818 429.985 841.575 428.825 842.096 427.452L856.088 428.375C855.377 431.737 853.921 434.672 851.72 437.182C849.542 439.668 846.724 441.609 843.268 443.006C839.835 444.379 835.87 445.065 831.372 445.065Z" fill="black"/>
<rect x="71" y="498" width="1038" height="19" fill="black"/>
</svg>
