<svg width="1200" height="900" viewBox="0 0 1200 900" fill="none" xmlns="http://www.w3.org/2000/svg">
<rect width="1200" height="900" fill="white"/>
<path d="M116.774 308.189C116.49 305.324 115.271 303.099 113.116 301.513C110.962 299.927 108.038 299.134 104.345 299.134C101.836 299.134 99.7169 299.489 97.9886 300.199C96.2604 300.885 94.9347 301.844 94.0114 303.075C93.1117 304.306 92.6619 305.703 92.6619 307.266C92.6146 308.568 92.8868 309.704 93.4787 310.675C94.0942 311.645 94.9347 312.486 96 313.196C97.0653 313.883 98.2964 314.486 99.6932 315.007C101.09 315.504 102.581 315.93 104.168 316.286L110.702 317.848C113.874 318.558 116.786 319.505 119.438 320.689C122.089 321.873 124.385 323.329 126.327 325.057C128.268 326.785 129.771 328.821 130.837 331.165C131.926 333.509 132.482 336.196 132.506 339.226C132.482 343.677 131.346 347.536 129.097 350.803C126.871 354.046 123.652 356.567 119.438 358.366C115.247 360.142 110.193 361.03 104.274 361.03C98.4029 361.03 93.2893 360.13 88.9332 358.331C84.6009 356.532 81.2154 353.868 78.777 350.341C76.3622 346.79 75.0956 342.398 74.9773 337.166H89.8565C90.0223 339.605 90.7206 341.641 91.9517 343.274C93.2064 344.884 94.8755 346.103 96.9588 346.932C99.0658 347.737 101.445 348.139 104.097 348.139C106.701 348.139 108.962 347.76 110.879 347.003C112.821 346.245 114.324 345.192 115.389 343.842C116.455 342.493 116.987 340.942 116.987 339.19C116.987 337.557 116.502 336.184 115.531 335.071C114.584 333.958 113.188 333.011 111.341 332.23C109.518 331.449 107.281 330.739 104.629 330.099L96.7102 328.111C90.5786 326.619 85.7372 324.287 82.1861 321.115C78.6349 317.943 76.8712 313.67 76.8949 308.295C76.8712 303.892 78.0431 300.045 80.4105 296.754C82.8016 293.464 86.0805 290.895 90.2472 289.048C94.4138 287.202 99.1487 286.278 104.452 286.278C109.849 286.278 114.561 287.202 118.585 289.048C122.634 290.895 125.782 293.464 128.031 296.754C130.28 300.045 131.44 303.857 131.511 308.189H116.774ZM164.791 361.065C159.18 361.065 154.35 359.929 150.302 357.656C146.277 355.36 143.176 352.116 140.998 347.926C138.82 343.712 137.731 338.729 137.731 332.976C137.731 327.365 138.82 322.441 140.998 318.203C143.176 313.965 146.242 310.663 150.195 308.295C154.173 305.928 158.837 304.744 164.187 304.744C167.785 304.744 171.135 305.324 174.237 306.484C177.362 307.621 180.084 309.337 182.404 311.634C184.748 313.93 186.571 316.818 187.873 320.298C189.175 323.755 189.826 327.803 189.826 332.443V336.598H143.768V327.223H175.586C175.586 325.045 175.113 323.116 174.166 321.435C173.219 319.754 171.905 318.44 170.224 317.493C168.567 316.522 166.637 316.037 164.436 316.037C162.139 316.037 160.103 316.57 158.328 317.635C156.576 318.677 155.203 320.085 154.208 321.861C153.214 323.613 152.705 325.566 152.681 327.72V336.634C152.681 339.332 153.178 341.664 154.173 343.629C155.191 345.594 156.623 347.109 158.47 348.175C160.316 349.24 162.506 349.773 165.039 349.773C166.72 349.773 168.259 349.536 169.656 349.062C171.052 348.589 172.248 347.879 173.242 346.932C174.237 345.985 174.994 344.825 175.515 343.452L189.507 344.375C188.796 347.737 187.34 350.672 185.139 353.182C182.961 355.668 180.143 357.609 176.687 359.006C173.254 360.379 169.289 361.065 164.791 361.065ZM221.712 361.065C216.125 361.065 211.319 359.882 207.294 357.514C203.293 355.123 200.215 351.809 198.061 347.571C195.93 343.333 194.865 338.456 194.865 332.94C194.865 327.353 195.942 322.453 198.097 318.239C200.275 314.001 203.364 310.698 207.365 308.331C211.366 305.94 216.125 304.744 221.641 304.744C226.399 304.744 230.566 305.608 234.141 307.337C237.715 309.065 240.544 311.491 242.628 314.616C244.711 317.741 245.859 321.411 246.072 325.625H231.797C231.394 322.902 230.329 320.713 228.601 319.055C226.896 317.375 224.659 316.534 221.889 316.534C219.545 316.534 217.498 317.173 215.746 318.452C214.017 319.706 212.668 321.541 211.697 323.956C210.727 326.371 210.241 329.295 210.241 332.727C210.241 336.207 210.715 339.167 211.662 341.605C212.633 344.044 213.994 345.902 215.746 347.18C217.498 348.459 219.545 349.098 221.889 349.098C223.617 349.098 225.168 348.743 226.541 348.033C227.938 347.322 229.086 346.293 229.986 344.943C230.909 343.57 231.513 341.925 231.797 340.007H246.072C245.836 344.174 244.699 347.843 242.663 351.016C240.651 354.164 237.869 356.626 234.318 358.402C230.767 360.178 226.565 361.065 221.712 361.065ZM288.105 336.776V305.455H303.233V360H288.709V350.092H288.141C286.91 353.288 284.862 355.857 281.997 357.798C279.156 359.74 275.688 360.71 271.592 360.71C267.947 360.71 264.739 359.882 261.969 358.224C259.199 356.567 257.033 354.212 255.47 351.158C253.932 348.104 253.15 344.446 253.127 340.185V305.455H268.254V337.486C268.278 340.705 269.142 343.25 270.847 345.121C272.551 346.991 274.836 347.926 277.7 347.926C279.523 347.926 281.228 347.512 282.814 346.683C284.4 345.831 285.679 344.576 286.649 342.919C287.644 341.262 288.129 339.214 288.105 336.776ZM312.702 360V305.455H327.368V314.972H327.936C328.931 311.586 330.6 309.029 332.943 307.301C335.287 305.549 337.986 304.673 341.04 304.673C341.798 304.673 342.614 304.721 343.49 304.815C344.366 304.91 345.136 305.04 345.799 305.206V318.629C345.088 318.416 344.106 318.227 342.851 318.061C341.596 317.895 340.448 317.812 339.407 317.812C337.181 317.812 335.193 318.298 333.441 319.268C331.712 320.215 330.339 321.541 329.321 323.246C328.327 324.95 327.83 326.915 327.83 329.141V360H312.702ZM350.988 360V305.455H366.116V360H350.988ZM358.588 298.423C356.339 298.423 354.409 297.678 352.799 296.186C351.213 294.671 350.42 292.86 350.42 290.753C350.42 288.67 351.213 286.882 352.799 285.391C354.409 283.875 356.339 283.118 358.588 283.118C360.837 283.118 362.755 283.875 364.341 285.391C365.951 286.882 366.755 288.67 366.755 290.753C366.755 292.86 365.951 294.671 364.341 296.186C362.755 297.678 360.837 298.423 358.588 298.423ZM404.616 305.455V316.818H371.768V305.455H404.616ZM379.225 292.386H394.353V343.239C394.353 344.635 394.566 345.724 394.992 346.506C395.418 347.263 396.01 347.796 396.768 348.104C397.549 348.411 398.449 348.565 399.467 348.565C400.177 348.565 400.887 348.506 401.597 348.388C402.307 348.246 402.852 348.139 403.231 348.068L405.61 359.325C404.852 359.562 403.787 359.834 402.414 360.142C401.041 360.473 399.372 360.675 397.407 360.746C393.761 360.888 390.565 360.402 387.819 359.29C385.096 358.177 382.977 356.449 381.462 354.105C379.947 351.761 379.201 348.802 379.225 345.227V292.386ZM421.178 380.455C419.26 380.455 417.461 380.301 415.78 379.993C414.123 379.709 412.75 379.342 411.661 378.892L415.07 367.599C416.846 368.144 418.444 368.44 419.864 368.487C421.308 368.535 422.551 368.203 423.593 367.493C424.658 366.783 425.522 365.575 426.185 363.871L427.073 361.562L407.506 305.455H423.415L434.708 345.511H435.276L446.675 305.455H462.691L441.491 365.895C440.473 368.83 439.088 371.387 437.336 373.565C435.607 375.767 433.418 377.46 430.766 378.643C428.115 379.851 424.919 380.455 421.178 380.455ZM488.314 360V305.455H503.442V360H488.314ZM495.913 298.423C493.664 298.423 491.735 297.678 490.125 296.186C488.539 294.671 487.745 292.86 487.745 290.753C487.745 288.67 488.539 286.882 490.125 285.391C491.735 283.875 493.664 283.118 495.913 283.118C498.162 283.118 500.08 283.875 501.666 285.391C503.276 286.882 504.081 288.67 504.081 290.753C504.081 292.86 503.276 294.671 501.666 296.186C500.08 297.678 498.162 298.423 495.913 298.423ZM528.056 328.466V360H512.928V305.455H527.346V315.078H527.985C529.192 311.906 531.217 309.396 534.057 307.55C536.898 305.679 540.343 304.744 544.391 304.744C548.179 304.744 551.482 305.573 554.299 307.23C557.116 308.887 559.306 311.255 560.869 314.332C562.431 317.386 563.212 321.032 563.212 325.27V360H548.084V327.969C548.108 324.631 547.256 322.027 545.528 320.156C543.799 318.262 541.42 317.315 538.39 317.315C536.354 317.315 534.555 317.753 532.992 318.629C531.453 319.505 530.246 320.784 529.37 322.464C528.518 324.122 528.08 326.122 528.056 328.466ZM593.017 360V305.455H607.434V315.078H608.073C609.21 311.882 611.104 309.361 613.755 307.514C616.407 305.668 619.579 304.744 623.272 304.744C627.013 304.744 630.197 305.679 632.825 307.55C635.453 309.396 637.205 311.906 638.081 315.078H638.649C639.761 311.953 641.774 309.455 644.686 307.585C647.621 305.691 651.09 304.744 655.09 304.744C660.18 304.744 664.312 306.366 667.484 309.609C670.68 312.829 672.278 317.398 672.278 323.317V360H657.186V326.3C657.186 323.269 656.381 320.997 654.771 319.482C653.161 317.966 651.149 317.209 648.734 317.209C645.988 317.209 643.845 318.085 642.306 319.837C640.768 321.565 639.998 323.849 639.998 326.69V360H625.332V325.98C625.332 323.305 624.563 321.174 623.024 319.588C621.509 318.002 619.508 317.209 617.022 317.209C615.341 317.209 613.826 317.635 612.477 318.487C611.151 319.316 610.098 320.488 609.316 322.003C608.535 323.494 608.144 325.246 608.144 327.259V360H593.017ZM716.575 336.776V305.455H731.702V360H717.178V350.092H716.61C715.379 353.288 713.331 355.857 710.467 357.798C707.626 359.74 704.158 360.71 700.062 360.71C696.416 360.71 693.208 359.882 690.438 358.224C687.668 356.567 685.502 354.212 683.94 351.158C682.401 348.104 681.62 344.446 681.596 340.185V305.455H696.724V337.486C696.747 340.705 697.612 343.25 699.316 345.121C701.021 346.991 703.305 347.926 706.17 347.926C707.993 347.926 709.697 347.512 711.283 346.683C712.87 345.831 714.148 344.576 715.119 342.919C716.113 341.262 716.598 339.214 716.575 336.776ZM756.299 287.273V360H741.171V287.273H756.299ZM794.799 305.455V316.818H761.951V305.455H794.799ZM769.408 292.386H784.536V343.239C784.536 344.635 784.749 345.724 785.175 346.506C785.601 347.263 786.193 347.796 786.951 348.104C787.732 348.411 788.632 348.565 789.65 348.565C790.36 348.565 791.07 348.506 791.78 348.388C792.49 348.246 793.035 348.139 793.414 348.068L795.793 359.325C795.035 359.562 793.97 359.834 792.597 360.142C791.224 360.473 789.555 360.675 787.59 360.746C783.944 360.888 780.748 360.402 778.002 359.29C775.279 358.177 773.16 356.449 771.645 354.105C770.13 351.761 769.384 348.802 769.408 345.227V292.386ZM802.021 360V305.455H817.149V360H802.021ZM809.621 298.423C807.372 298.423 805.442 297.678 803.833 296.186C802.246 294.671 801.453 292.86 801.453 290.753C801.453 288.67 802.246 286.882 803.833 285.391C805.442 283.875 807.372 283.118 809.621 283.118C811.87 283.118 813.788 283.875 815.374 285.391C816.984 286.882 817.789 288.67 817.789 290.753C817.789 292.86 816.984 294.671 815.374 296.186C813.788 297.678 811.87 298.423 809.621 298.423ZM860.62 324.134V336.136H827.453V324.134H860.62ZM106.05 389.455V400.818H73.2017V389.455H106.05ZM80.6591 376.386H95.7869V427.239C95.7869 428.635 96 429.724 96.4261 430.506C96.8523 431.263 97.4441 431.796 98.2017 432.104C98.983 432.411 99.8826 432.565 100.901 432.565C101.611 432.565 102.321 432.506 103.031 432.388C103.741 432.246 104.286 432.139 104.665 432.068L107.044 443.325C106.286 443.562 105.221 443.834 103.848 444.142C102.475 444.473 100.806 444.675 98.8409 444.746C95.1951 444.888 91.9991 444.402 89.2528 443.29C86.5303 442.177 84.4115 440.449 82.8963 438.105C81.3812 435.761 80.6354 432.802 80.6591 429.227V376.386ZM137.545 445.065C131.934 445.065 127.104 443.929 123.056 441.656C119.031 439.36 115.93 436.116 113.752 431.926C111.574 427.712 110.485 422.729 110.485 416.976C110.485 411.365 111.574 406.441 113.752 402.203C115.93 397.965 118.996 394.663 122.949 392.295C126.927 389.928 131.59 388.744 136.941 388.744C140.539 388.744 143.889 389.324 146.991 390.484C150.116 391.621 152.838 393.337 155.158 395.634C157.502 397.93 159.325 400.818 160.627 404.298C161.929 407.755 162.58 411.803 162.58 416.443V420.598H116.522V411.223H148.34C148.34 409.045 147.867 407.116 146.92 405.435C145.973 403.754 144.659 402.44 142.978 401.493C141.321 400.522 139.391 400.037 137.189 400.037C134.893 400.037 132.857 400.57 131.081 401.635C129.33 402.677 127.956 404.085 126.962 405.861C125.968 407.613 125.459 409.566 125.435 411.72V420.634C125.435 423.332 125.932 425.664 126.927 427.629C127.945 429.594 129.377 431.109 131.224 432.175C133.07 433.24 135.26 433.773 137.793 433.773C139.474 433.773 141.013 433.536 142.41 433.062C143.806 432.589 145.002 431.879 145.996 430.932C146.991 429.985 147.748 428.825 148.269 427.452L162.26 428.375C161.55 431.737 160.094 434.672 157.893 437.182C155.715 439.668 152.897 441.609 149.441 443.006C146.008 444.379 142.043 445.065 137.545 445.065ZM184.948 412.466V444H169.821V389.455H184.238V399.078H184.877C186.085 395.906 188.109 393.396 190.95 391.55C193.791 389.679 197.235 388.744 201.284 388.744C205.072 388.744 208.374 389.573 211.191 391.23C214.009 392.887 216.198 395.255 217.761 398.332C219.323 401.386 220.105 405.032 220.105 409.27V444H204.977V411.969C205.001 408.631 204.148 406.027 202.42 404.156C200.692 402.262 198.313 401.315 195.282 401.315C193.246 401.315 191.447 401.753 189.885 402.629C188.346 403.505 187.138 404.784 186.262 406.464C185.41 408.122 184.972 410.122 184.948 412.466ZM244.95 445.03C241.47 445.03 238.369 444.426 235.646 443.219C232.924 441.988 230.769 440.177 229.183 437.786C227.621 435.371 226.839 432.364 226.839 428.766C226.839 425.735 227.396 423.19 228.508 421.131C229.621 419.071 231.136 417.414 233.054 416.159C234.971 414.904 237.149 413.957 239.588 413.318C242.05 412.679 244.63 412.229 247.329 411.969C250.502 411.637 253.059 411.33 255 411.045C256.941 410.738 258.35 410.288 259.226 409.696C260.102 409.104 260.54 408.228 260.54 407.068V406.855C260.54 404.606 259.829 402.866 258.409 401.635C257.012 400.404 255.023 399.788 252.443 399.788C249.72 399.788 247.554 400.392 245.944 401.599C244.335 402.783 243.269 404.275 242.748 406.074L228.757 404.938C229.467 401.623 230.864 398.759 232.947 396.344C235.031 393.905 237.718 392.035 241.008 390.733C244.323 389.407 248.158 388.744 252.514 388.744C255.544 388.744 258.444 389.099 261.214 389.81C264.008 390.52 266.482 391.621 268.636 393.112C270.814 394.604 272.531 396.521 273.785 398.865C275.04 401.185 275.667 403.967 275.667 407.21V444H261.321V436.436H260.895C260.019 438.141 258.847 439.644 257.379 440.946C255.911 442.224 254.148 443.231 252.088 443.964C250.028 444.675 247.649 445.03 244.95 445.03ZM249.282 434.589C251.508 434.589 253.473 434.152 255.177 433.276C256.882 432.376 258.219 431.169 259.19 429.653C260.161 428.138 260.646 426.422 260.646 424.504V418.716C260.173 419.024 259.522 419.308 258.693 419.568C257.888 419.805 256.977 420.03 255.959 420.243C254.941 420.432 253.923 420.61 252.905 420.776C251.887 420.918 250.963 421.048 250.135 421.166C248.359 421.427 246.809 421.841 245.483 422.409C244.157 422.977 243.127 423.747 242.393 424.717C241.659 425.664 241.292 426.848 241.292 428.268C241.292 430.328 242.038 431.902 243.53 432.991C245.045 434.057 246.962 434.589 249.282 434.589ZM299.9 412.466V444H284.772V389.455H299.19V399.078H299.829C301.037 395.906 303.061 393.396 305.902 391.55C308.742 389.679 312.187 388.744 316.235 388.744C320.023 388.744 323.326 389.573 326.143 391.23C328.96 392.887 331.15 395.255 332.713 398.332C334.275 401.386 335.056 405.032 335.056 409.27V444H319.929V411.969C319.952 408.631 319.1 406.027 317.372 404.156C315.644 402.262 313.264 401.315 310.234 401.315C308.198 401.315 306.399 401.753 304.836 402.629C303.297 403.505 302.09 404.784 301.214 406.464C300.362 408.122 299.924 410.122 299.9 412.466ZM373.361 389.455V400.818H340.513V389.455H373.361ZM347.97 376.386H363.098V427.239C363.098 428.635 363.311 429.724 363.737 430.506C364.163 431.263 364.755 431.796 365.513 432.104C366.294 432.411 367.193 432.565 368.211 432.565C368.922 432.565 369.632 432.506 370.342 432.388C371.052 432.246 371.597 432.139 371.976 432.068L374.355 443.325C373.597 443.562 372.532 443.834 371.159 444.142C369.786 444.473 368.117 444.675 366.152 444.746C362.506 444.888 359.31 444.402 356.564 443.29C353.841 442.177 351.722 440.449 350.207 438.105C348.692 435.761 347.946 432.802 347.97 429.227V376.386ZM425.954 445.065C420.344 445.065 415.514 443.929 411.466 441.656C407.441 439.36 404.34 436.116 402.162 431.926C399.984 427.712 398.895 422.729 398.895 416.976C398.895 411.365 399.984 406.441 402.162 402.203C404.34 397.965 407.406 394.663 411.359 392.295C415.336 389.928 420 388.744 425.351 388.744C428.949 388.744 432.299 389.324 435.4 390.484C438.525 391.621 441.248 393.337 443.568 395.634C445.912 397.93 447.735 400.818 449.037 404.298C450.339 407.755 450.99 411.803 450.99 416.443V420.598H404.932V411.223H436.75C436.75 409.045 436.276 407.116 435.329 405.435C434.382 403.754 433.068 402.44 431.388 401.493C429.73 400.522 427.801 400.037 425.599 400.037C423.303 400.037 421.267 400.57 419.491 401.635C417.739 402.677 416.366 404.085 415.372 405.861C414.378 407.613 413.869 409.566 413.845 411.72V420.634C413.845 423.332 414.342 425.664 415.336 427.629C416.354 429.594 417.787 431.109 419.633 432.175C421.48 433.24 423.67 433.773 426.203 433.773C427.884 433.773 429.423 433.536 430.819 433.062C432.216 432.589 433.412 431.879 434.406 430.932C435.4 429.985 436.158 428.825 436.679 427.452L450.67 428.375C449.96 431.737 448.504 434.672 446.302 437.182C444.124 439.668 441.307 441.609 437.851 443.006C434.418 444.379 430.452 445.065 425.954 445.065ZM473.358 412.466V444H458.23V389.455H472.648V399.078H473.287C474.495 395.906 476.519 393.396 479.36 391.55C482.201 389.679 485.645 388.744 489.693 388.744C493.481 388.744 496.784 389.573 499.601 391.23C502.418 392.887 504.608 395.255 506.171 398.332C507.733 401.386 508.514 405.032 508.514 409.27V444H493.387V411.969C493.41 408.631 492.558 406.027 490.83 404.156C489.102 402.262 486.722 401.315 483.692 401.315C481.656 401.315 479.857 401.753 478.294 402.629C476.755 403.505 475.548 404.784 474.672 406.464C473.82 408.122 473.382 410.122 473.358 412.466ZM566.705 389.455L547.635 444H530.59L511.52 389.455H527.5L538.829 428.482H539.397L550.689 389.455H566.705ZM571.815 444V389.455H586.943V444H571.815ZM579.414 382.423C577.165 382.423 575.236 381.678 573.626 380.186C572.04 378.671 571.247 376.86 571.247 374.753C571.247 372.67 572.04 370.882 573.626 369.391C575.236 367.875 577.165 367.118 579.414 367.118C581.663 367.118 583.581 367.875 585.167 369.391C586.777 370.882 587.582 372.67 587.582 374.753C587.582 376.86 586.777 378.671 585.167 380.186C583.581 381.678 581.663 382.423 579.414 382.423ZM596.429 444V389.455H611.096V398.972H611.664C612.658 395.586 614.327 393.029 616.671 391.301C619.015 389.549 621.713 388.673 624.767 388.673C625.525 388.673 626.342 388.721 627.218 388.815C628.094 388.91 628.863 389.04 629.526 389.206V402.629C628.816 402.416 627.833 402.227 626.579 402.061C625.324 401.895 624.176 401.812 623.134 401.812C620.909 401.812 618.92 402.298 617.168 403.268C615.44 404.215 614.067 405.541 613.049 407.246C612.054 408.95 611.557 410.915 611.557 413.141V444H596.429ZM656.822 445.065C651.306 445.065 646.535 443.893 642.511 441.55C638.51 439.182 635.42 435.892 633.242 431.678C631.064 427.44 629.975 422.527 629.975 416.94C629.975 411.306 631.064 406.382 633.242 402.168C635.42 397.93 638.51 394.639 642.511 392.295C646.535 389.928 651.306 388.744 656.822 388.744C662.338 388.744 667.096 389.928 671.097 392.295C675.122 394.639 678.223 397.93 680.401 402.168C682.579 406.382 683.668 411.306 683.668 416.94C683.668 422.527 682.579 427.44 680.401 431.678C678.223 435.892 675.122 439.182 671.097 441.55C667.096 443.893 662.338 445.065 656.822 445.065ZM656.893 433.347C659.402 433.347 661.497 432.636 663.178 431.216C664.859 429.772 666.126 427.807 666.978 425.321C667.854 422.835 668.292 420.006 668.292 416.834C668.292 413.661 667.854 410.832 666.978 408.347C666.126 405.861 664.859 403.896 663.178 402.452C661.497 401.008 659.402 400.286 656.893 400.286C654.36 400.286 652.229 401.008 650.501 402.452C648.796 403.896 647.506 405.861 646.63 408.347C645.778 410.832 645.351 413.661 645.351 416.834C645.351 420.006 645.778 422.835 646.63 425.321C647.506 427.807 648.796 429.772 650.501 431.216C652.229 432.636 654.36 433.347 656.893 433.347ZM706.001 412.466V444H690.873V389.455H705.291V399.078H705.93C707.138 395.906 709.162 393.396 712.003 391.55C714.843 389.679 718.288 388.744 722.336 388.744C726.124 388.744 729.427 389.573 732.244 391.23C735.061 392.887 737.251 395.255 738.814 398.332C740.376 401.386 741.157 405.032 741.157 409.27V444H726.03V411.969C726.053 408.631 725.201 406.027 723.473 404.156C721.745 402.262 719.365 401.315 716.335 401.315C714.299 401.315 712.5 401.753 710.937 402.629C709.398 403.505 708.191 404.784 707.315 406.464C706.463 408.122 706.025 410.122 706.001 412.466ZM750.449 444V389.455H764.866V399.078H765.506C766.642 395.882 768.536 393.361 771.187 391.514C773.839 389.668 777.011 388.744 780.704 388.744C784.445 388.744 787.629 389.679 790.257 391.55C792.885 393.396 794.637 395.906 795.513 399.078H796.081C797.194 395.953 799.206 393.455 802.118 391.585C805.053 389.691 808.522 388.744 812.523 388.744C817.613 388.744 821.744 390.366 824.916 393.609C828.112 396.829 829.71 401.398 829.71 407.317V444H814.618V410.3C814.618 407.269 813.813 404.997 812.203 403.482C810.593 401.966 808.581 401.209 806.166 401.209C803.42 401.209 801.277 402.085 799.739 403.837C798.2 405.565 797.43 407.849 797.43 410.69V444H782.764V409.98C782.764 407.305 781.995 405.174 780.456 403.588C778.941 402.002 776.94 401.209 774.454 401.209C772.774 401.209 771.258 401.635 769.909 402.487C768.583 403.316 767.53 404.488 766.748 406.003C765.967 407.494 765.577 409.246 765.577 411.259V444H750.449ZM863.886 445.065C858.275 445.065 853.446 443.929 849.397 441.656C845.373 439.36 842.271 436.116 840.093 431.926C837.915 427.712 836.826 422.729 836.826 416.976C836.826 411.365 837.915 406.441 840.093 402.203C842.271 397.965 845.337 394.663 849.291 392.295C853.268 389.928 857.932 388.744 863.282 388.744C866.881 388.744 870.231 389.324 873.332 390.484C876.457 391.621 879.18 393.337 881.5 395.634C883.843 397.93 885.666 400.818 886.968 404.298C888.271 407.755 888.922 411.803 888.922 416.443V420.598H842.863V411.223H874.681C874.681 409.045 874.208 407.116 873.261 405.435C872.314 403.754 871 402.44 869.319 401.493C867.662 400.522 865.733 400.037 863.531 400.037C861.235 400.037 859.199 400.57 857.423 401.635C855.671 402.677 854.298 404.085 853.304 405.861C852.309 407.613 851.8 409.566 851.777 411.72V420.634C851.777 423.332 852.274 425.664 853.268 427.629C854.286 429.594 855.718 431.109 857.565 432.175C859.412 433.24 861.601 433.773 864.135 433.773C865.815 433.773 867.354 433.536 868.751 433.062C870.148 432.589 871.343 431.879 872.338 430.932C873.332 429.985 874.09 428.825 874.61 427.452L888.602 428.375C887.892 431.737 886.436 434.672 884.234 437.182C882.056 439.668 879.239 441.609 875.782 443.006C872.35 444.379 868.384 445.065 863.886 445.065ZM911.29 412.466V444H896.162V389.455H910.58V399.078H911.219C912.426 395.906 914.45 393.396 917.291 391.55C920.132 389.679 923.577 388.744 927.625 388.744C931.413 388.744 934.716 389.573 937.533 391.23C940.35 392.887 942.54 395.255 944.102 398.332C945.665 401.386 946.446 405.032 946.446 409.27V444H931.318V411.969C931.342 408.631 930.49 406.027 928.762 404.156C927.033 402.262 924.654 401.315 921.624 401.315C919.588 401.315 917.789 401.753 916.226 402.629C914.687 403.505 913.48 404.784 912.604 406.464C911.752 408.122 911.314 410.122 911.29 412.466ZM984.75 389.455V400.818H951.902V389.455H984.75ZM959.36 376.386H974.488V427.239C974.488 428.635 974.701 429.724 975.127 430.506C975.553 431.263 976.145 431.796 976.902 432.104C977.684 432.411 978.583 432.565 979.601 432.565C980.311 432.565 981.022 432.506 981.732 432.388C982.442 432.246 982.987 432.139 983.365 432.068L985.745 443.325C984.987 443.562 983.922 443.834 982.549 444.142C981.176 444.473 979.507 444.675 977.542 444.746C973.896 444.888 970.7 444.402 967.954 443.29C965.231 442.177 963.112 440.449 961.597 438.105C960.082 435.761 959.336 432.802 959.36 429.227V376.386ZM1036.67 405.009L1022.82 405.861C1022.59 404.677 1022.08 403.612 1021.3 402.665C1020.52 401.694 1019.49 400.925 1018.21 400.357C1016.95 399.765 1015.45 399.469 1013.7 399.469C1011.35 399.469 1009.38 399.966 1007.77 400.96C1006.16 401.931 1005.35 403.233 1005.35 404.866C1005.35 406.169 1005.87 407.269 1006.91 408.169C1007.96 409.069 1009.74 409.791 1012.28 410.335L1022.15 412.324C1027.45 413.413 1031.41 415.165 1034.01 417.58C1036.61 419.994 1037.92 423.167 1037.92 427.097C1037.92 430.671 1036.86 433.808 1034.76 436.507C1032.67 439.206 1029.81 441.313 1026.16 442.828C1022.54 444.32 1018.36 445.065 1013.63 445.065C1006.41 445.065 1000.65 443.562 996.368 440.555C992.106 437.525 989.609 433.406 988.875 428.197L1003.75 427.416C1004.2 429.618 1005.29 431.299 1007.02 432.459C1008.75 433.595 1010.96 434.163 1013.66 434.163C1016.31 434.163 1018.44 433.654 1020.05 432.636C1021.69 431.595 1022.52 430.257 1022.54 428.624C1022.52 427.25 1021.94 426.126 1020.8 425.25C1019.66 424.35 1017.91 423.664 1015.54 423.19L1006.1 421.308C1000.77 420.243 996.806 418.396 994.202 415.768C991.621 413.141 990.331 409.791 990.331 405.719C990.331 402.215 991.278 399.196 993.172 396.663C995.089 394.13 997.776 392.177 1001.23 390.804C1004.71 389.431 1008.78 388.744 1013.45 388.744C1020.34 388.744 1025.76 390.2 1029.71 393.112C1033.69 396.024 1036.01 399.99 1036.67 405.009Z" fill="black"/>
<rect x="71" y="498" width="1038" height="19" fill="black"/>
</svg>
