<svg width="1200" height="900" viewBox="0 0 1200 900" fill="none" xmlns="http://www.w3.org/2000/svg">
<rect width="1200" height="900" fill="white"/>
<circle cx="715.5" cy="141.5" r="141.5" fill="#EBBE62"/>
<circle cx="534.5" cy="492.5" r="141.5" fill="#54A3DA"/>
<circle cx="207.5" cy="209.5" r="141.5" fill="#00C176"/>
<circle cx="207.5" cy="705.5" r="141.5" fill="#FAE0D6"/>
<path d="M942.875 486.686C941.036 488.525 939.491 490.585 938.387 492.792C939.564 490.658 941.036 488.525 942.875 486.686Z" fill="url(#paint0_linear_20_9562)"/>
<path d="M1019.39 432.537C1022.85 432.537 1026.31 433.861 1028.95 436.51L1036.83 444.382L1028.95 436.51C1026.31 433.861 1022.85 432.537 1019.39 432.537Z" fill="url(#paint1_linear_20_9562)"/>
<path d="M942.875 442.026C951.557 433.345 965.756 433.271 974.438 442.026L980.986 448.574L1001.44 428.121C1011.37 418.189 1027.41 418.189 1037.34 428.121L1045.21 435.993L1064.86 416.35L1022.04 373.604C1009.68 361.244 989.52 361.244 977.234 373.604L888.873 461.964C878.426 472.412 876.881 488.598 884.165 500.737L884.459 500.443L942.875 442.026Z" fill="url(#paint2_linear_20_9562)"/>
<path d="M1058.24 518.91C1049.48 527.665 1035.36 527.591 1026.67 518.91L1018.88 511.111L993.125 536.861C983.193 546.793 967.154 546.793 957.222 536.861L950.6 530.24L931.471 549.368L970.833 588.73C983.193 601.09 1003.35 601.09 1015.64 588.73L1104 500.369C1113.2 491.173 1115.55 477.562 1110.99 466.158L1108.12 469.028L1058.24 518.91Z" fill="url(#paint3_linear_20_9562)"/>
<path d="M984.738 528.547C983.414 529.872 981.869 530.828 980.25 531.49C978.632 532.152 976.866 532.447 975.174 532.447C971.716 532.447 968.258 531.122 965.609 528.474L951.336 514.201C948.688 511.552 947.363 508.094 947.363 504.636C947.363 502.871 947.731 501.178 948.32 499.56C948.982 497.941 949.938 496.396 951.263 495.072L1009.83 436.508C1011.73 434.591 1014.16 433.285 1016.82 432.756C1017.67 432.61 1018.53 432.536 1019.39 432.535C1022.85 432.535 1026.31 433.86 1028.95 436.508L1036.83 444.381L1045.21 435.993L1037.34 428.121C1027.41 418.189 1011.37 418.189 1001.44 428.121L942.875 486.685C941.036 488.524 939.491 490.584 938.387 492.791C938.02 493.527 937.652 494.263 937.357 495.072C934.562 501.914 934.93 509.786 938.387 516.408C939.565 518.615 941.036 520.675 942.875 522.514L957.148 536.787C967.081 546.72 983.119 546.72 993.052 536.787L1018.8 511.037L1010.41 502.65L984.738 528.547Z" fill="white"/>
<path d="M1108.12 469.025L1110.99 466.155C1109.96 463.507 1108.49 461.005 1106.72 458.725C1107.38 462.109 1107.82 465.567 1108.12 469.025Z" fill="#2C256C"/>
<path d="M884.459 500.441L884.164 500.736C884.311 501.03 884.532 501.324 884.679 501.619L884.459 500.441Z" fill="#5B2D82"/>
<path d="M1010.27 470.944L1036.83 444.384L1028.95 436.512C1026.31 433.863 1022.85 432.539 1019.39 432.539C1018.51 432.539 1017.62 432.613 1016.82 432.76C1014.16 433.289 1011.73 434.595 1009.83 436.512L989.373 456.965L990.844 458.437C999.526 467.118 999.526 481.318 990.844 489.999L958.914 521.929L965.536 528.551C968.184 531.2 971.642 532.524 975.1 532.524C976.866 532.524 978.558 532.156 980.176 531.567C981.795 530.905 983.34 529.949 984.664 528.625L1010.41 502.874L1010.19 502.653C1001.51 493.825 1001.51 479.699 1010.27 470.944Z" fill="url(#paint4_linear_20_9562)"/>
<path d="M1010.27 470.944L1036.83 444.384L1028.95 436.512C1026.31 433.863 1022.85 432.539 1019.39 432.539C1018.51 432.539 1017.62 432.613 1016.82 432.76C1014.16 433.289 1011.73 434.595 1009.83 436.512L989.373 456.965L990.844 458.437C999.526 467.118 999.526 481.318 990.844 489.999L958.914 521.929L965.536 528.551C968.184 531.2 971.642 532.524 975.1 532.524C976.866 532.524 978.558 532.156 980.176 531.567C981.795 530.905 983.34 529.949 984.664 528.625L1010.41 502.874L1010.19 502.653C1001.51 493.825 1001.51 479.699 1010.27 470.944Z" fill="url(#paint5_linear_20_9562)"/>
<path d="M984.738 528.547C983.414 529.871 981.869 530.828 980.25 531.49C981.869 530.828 983.414 529.871 984.738 528.547Z" fill="white"/>
<path d="M984.738 528.547C983.414 529.871 981.869 530.828 980.25 531.49C981.869 530.828 983.414 529.871 984.738 528.547Z" fill="url(#paint6_linear_20_9562)"/>
<path d="M958.914 521.926L965.535 528.547C968.184 531.196 971.642 532.52 975.1 532.52C971.642 532.52 968.184 531.196 965.535 528.547L958.914 521.926Z" fill="white"/>
<path d="M958.914 521.926L965.535 528.547C968.184 531.196 971.642 532.52 975.1 532.52C971.642 532.52 968.184 531.196 965.535 528.547L958.914 521.926Z" fill="url(#paint7_linear_20_9562)"/>
<path d="M1009.83 436.508C1011.73 434.591 1014.16 433.285 1016.82 432.756C1014.24 433.344 1011.81 434.522 1009.83 436.508Z" fill="white"/>
<path d="M1009.83 436.508C1011.73 434.591 1014.16 433.285 1016.82 432.756C1014.24 433.344 1011.81 434.522 1009.83 436.508Z" fill="url(#paint8_linear_20_9562)"/>
<path d="M888.873 506.769C887.255 505.151 885.93 503.459 884.68 501.619C884.459 501.325 884.312 501.031 884.165 500.736L875.777 509.124C867.022 517.879 867.022 532.005 875.777 540.686L892.184 557.093C899.247 564.156 909.768 565.48 918.155 561.139C920.141 560.109 922.054 558.785 923.746 557.093L931.472 549.368L888.873 506.769Z" fill="#2C256C"/>
<path d="M942.875 522.589C941.036 520.75 939.491 518.69 938.387 516.483C934.93 509.861 934.562 501.989 937.357 495.147C937.67 494.373 938.014 493.612 938.387 492.866C939.565 490.659 941.036 488.599 942.875 486.76L980.986 448.649L974.438 442.101C965.683 433.346 951.557 433.42 942.875 442.101L884.459 500.518L884.68 501.695C885.857 503.534 887.255 505.226 888.873 506.845L931.472 549.443L950.6 530.314L942.875 522.589Z" fill="#5B2D82"/>
<path fill-rule="evenodd" clip-rule="evenodd" d="M990.845 489.997L958.915 521.927L951.337 514.202C948.688 511.554 947.364 508.096 947.364 504.638C947.364 502.946 947.658 501.18 948.32 499.561C948.982 497.943 949.939 496.398 951.263 495.073L989.373 456.963L990.845 458.434C999.526 467.116 999.526 481.315 990.845 489.997ZM937.358 495.072C936.112 498.12 935.495 501.371 935.498 504.626C935.502 501.386 936.119 498.135 937.358 495.072ZM935.498 504.626C935.503 508.679 936.47 512.736 938.388 516.408C936.461 512.76 935.494 508.701 935.498 504.626Z" fill="#5B2D82"/>
<path fill-rule="evenodd" clip-rule="evenodd" d="M951.262 514.205C948.614 511.556 947.29 508.099 947.29 504.641C947.29 508.099 948.614 511.63 951.262 514.205Z" fill="#5B2D82"/>
<path d="M1036.83 444.381L1010.27 470.94C1001.51 479.696 1001.51 493.821 1010.27 502.503L1010.49 502.724L1043.23 469.984C1045.14 468.078 1046.45 465.645 1046.98 462.995C1047.13 462.144 1047.2 461.283 1047.2 460.42C1047.2 456.962 1045.88 453.504 1043.23 450.855L1036.83 444.381Z" fill="#2C256C"/>
<path d="M1043.3 469.985C1045.22 468.08 1046.52 465.647 1047.05 462.996C1046.47 465.571 1045.21 467.999 1043.3 469.985Z" fill="#2C256C"/>
<path fill-rule="evenodd" clip-rule="evenodd" d="M1043.3 450.859C1045.95 453.508 1047.28 456.966 1047.28 460.424C1047.2 456.966 1045.95 453.508 1043.3 450.859Z" fill="#623393"/>
<path fill-rule="evenodd" clip-rule="evenodd" d="M1108.93 403.842L1125.34 420.249C1134.02 429.004 1134.02 443.13 1125.34 451.812L1110.99 466.158C1109.88 463.51 1108.49 461.008 1106.72 458.727C1105.91 457.55 1105.03 456.52 1104 455.49L1064.86 416.35L1077.37 403.842C1077.88 403.327 1078.4 402.812 1078.98 402.371C1087.74 395.161 1100.76 395.676 1108.93 403.842ZM1058.02 467.632C1057.8 468.441 1057.5 469.25 1057.21 469.986C1055.96 473.002 1054.12 475.872 1051.62 478.373L1018.88 511.113L1010.49 502.726L1043.23 469.986C1045.15 468.08 1046.45 465.647 1046.98 462.996C1047.13 462.187 1047.2 461.304 1047.2 460.421C1047.2 456.964 1045.88 453.506 1043.23 450.857L1036.75 444.383L1045.14 435.995L1051.62 442.47C1058.46 449.238 1060.59 459.024 1058.02 467.632Z" fill="#623393"/>
<path d="M1051.61 442.468C1058.46 449.31 1060.52 459.022 1058.02 467.63C1057.79 468.439 1057.5 469.175 1057.21 469.984C1055.96 473.074 1054.12 475.87 1051.61 478.371L1018.88 511.111L1026.67 518.909C1035.43 527.665 1049.55 527.665 1058.24 518.909L1108.12 469.027C1107.82 465.569 1107.38 462.112 1106.72 458.727C1105.91 457.624 1104.95 456.52 1104 455.49L1064.86 416.35L1045.21 435.993L1051.61 442.468Z" fill="#2C256C"/>
<path d="M1051.61 442.47C1058.46 449.313 1060.52 459.024 1058.02 467.632C1060.59 459.024 1058.46 449.239 1051.61 442.47L1045.14 435.996L1051.61 442.47Z" fill="#2C256C"/>
<path d="M1039.4 319.094H1033.18C1033.06 318.289 1032.83 317.574 1032.48 316.949C1032.13 316.314 1031.68 315.775 1031.13 315.33C1030.58 314.884 1029.95 314.544 1029.23 314.307C1028.52 314.07 1027.75 313.952 1026.91 313.952C1025.41 313.952 1024.1 314.326 1022.98 315.074C1021.86 315.812 1020.99 316.892 1020.38 318.312C1019.76 319.723 1019.46 321.437 1019.46 323.455C1019.46 325.528 1019.76 327.271 1020.38 328.682C1021 330.093 1021.88 331.158 1022.99 331.878C1024.11 332.598 1025.4 332.957 1026.87 332.957C1027.69 332.957 1028.46 332.848 1029.16 332.631C1029.87 332.413 1030.5 332.096 1031.05 331.679C1031.6 331.253 1032.05 330.737 1032.41 330.131C1032.78 329.525 1033.04 328.833 1033.18 328.057L1039.4 328.085C1039.24 329.42 1038.84 330.708 1038.19 331.949C1037.56 333.18 1036.7 334.283 1035.62 335.259C1034.55 336.224 1033.27 336.991 1031.79 337.56C1030.31 338.118 1028.64 338.398 1026.77 338.398C1024.18 338.398 1021.86 337.811 1019.81 336.636C1017.78 335.462 1016.17 333.762 1014.98 331.537C1013.81 329.312 1013.22 326.617 1013.22 323.455C1013.22 320.282 1013.82 317.583 1015.01 315.358C1016.2 313.133 1017.82 311.437 1019.87 310.273C1021.91 309.098 1024.21 308.511 1026.77 308.511C1028.46 308.511 1030.02 308.748 1031.46 309.222C1032.91 309.695 1034.19 310.386 1035.31 311.295C1036.43 312.195 1037.33 313.298 1038.04 314.605C1038.75 315.912 1039.2 317.408 1039.4 319.094ZM1053.55 338.426C1051.35 338.426 1049.44 337.957 1047.83 337.02C1046.23 336.073 1044.99 334.757 1044.12 333.071C1043.25 331.376 1042.82 329.411 1042.82 327.176C1042.82 324.922 1043.25 322.953 1044.12 321.267C1044.99 319.572 1046.23 318.256 1047.83 317.318C1049.44 316.371 1051.35 315.898 1053.55 315.898C1055.76 315.898 1057.66 316.371 1059.26 317.318C1060.87 318.256 1062.11 319.572 1062.99 321.267C1063.86 322.953 1064.29 324.922 1064.29 327.176C1064.29 329.411 1063.86 331.376 1062.99 333.071C1062.11 334.757 1060.87 336.073 1059.26 337.02C1057.66 337.957 1055.76 338.426 1053.55 338.426ZM1053.58 333.739C1054.59 333.739 1055.42 333.455 1056.1 332.886C1056.77 332.309 1057.28 331.523 1057.62 330.528C1057.97 329.534 1058.14 328.402 1058.14 327.134C1058.14 325.865 1057.97 324.733 1057.62 323.739C1057.28 322.744 1056.77 321.958 1056.1 321.381C1055.42 320.803 1054.59 320.514 1053.58 320.514C1052.57 320.514 1051.72 320.803 1051.03 321.381C1050.34 321.958 1049.83 322.744 1049.48 323.739C1049.14 324.733 1048.97 325.865 1048.97 327.134C1048.97 328.402 1049.14 329.534 1049.48 330.528C1049.83 331.523 1050.34 332.309 1051.03 332.886C1051.72 333.455 1052.57 333.739 1053.58 333.739ZM1068.23 338V316.182H1074.09V319.989H1074.32C1074.72 318.634 1075.39 317.612 1076.32 316.92C1077.26 316.22 1078.34 315.869 1079.56 315.869C1079.87 315.869 1080.19 315.888 1080.54 315.926C1080.89 315.964 1081.2 316.016 1081.47 316.082V321.452C1081.18 321.366 1080.79 321.291 1080.29 321.224C1079.79 321.158 1079.33 321.125 1078.91 321.125C1078.02 321.125 1077.22 321.319 1076.52 321.707C1075.83 322.086 1075.28 322.616 1074.88 323.298C1074.48 323.98 1074.28 324.766 1074.28 325.656V338H1068.23ZM1093.52 338.426C1091.28 338.426 1089.35 337.972 1087.73 337.062C1086.12 336.144 1084.88 334.847 1084 333.17C1083.13 331.485 1082.7 329.491 1082.7 327.19C1082.7 324.946 1083.13 322.976 1084 321.281C1084.88 319.586 1086.1 318.265 1087.68 317.318C1089.27 316.371 1091.14 315.898 1093.28 315.898C1094.72 315.898 1096.06 316.13 1097.3 316.594C1098.55 317.048 1099.64 317.735 1100.57 318.653C1101.5 319.572 1102.23 320.727 1102.75 322.119C1103.28 323.502 1103.54 325.121 1103.54 326.977V328.639H1085.11V324.889H1097.84C1097.84 324.018 1097.65 323.246 1097.27 322.574C1096.89 321.902 1096.37 321.376 1095.7 320.997C1095.03 320.609 1094.26 320.415 1093.38 320.415C1092.46 320.415 1091.65 320.628 1090.94 321.054C1090.24 321.471 1089.69 322.034 1089.29 322.744C1088.89 323.445 1088.69 324.226 1088.68 325.088V328.653C1088.68 329.733 1088.88 330.666 1089.27 331.452C1089.68 332.238 1090.25 332.844 1090.99 333.27C1091.73 333.696 1092.61 333.909 1093.62 333.909C1094.29 333.909 1094.91 333.814 1095.47 333.625C1096.03 333.436 1096.5 333.152 1096.9 332.773C1097.3 332.394 1097.6 331.93 1097.81 331.381L1103.41 331.75C1103.12 333.095 1102.54 334.269 1101.66 335.273C1100.79 336.267 1099.66 337.044 1098.28 337.602C1096.91 338.152 1095.32 338.426 1093.52 338.426ZM1117.91 338H1107.6V308.909H1118C1120.92 308.909 1123.44 309.491 1125.55 310.656C1127.67 311.812 1129.29 313.473 1130.43 315.642C1131.57 317.811 1132.14 320.405 1132.14 323.426C1132.14 326.456 1131.57 329.061 1130.43 331.239C1129.29 333.417 1127.66 335.088 1125.52 336.253C1123.4 337.418 1120.87 338 1117.91 338ZM1113.75 332.73H1117.66C1119.47 332.73 1121 332.408 1122.24 331.764C1123.49 331.111 1124.43 330.102 1125.06 328.739C1125.69 327.366 1126.01 325.595 1126.01 323.426C1126.01 321.277 1125.69 319.52 1125.06 318.156C1124.43 316.793 1123.5 315.789 1122.26 315.145C1121.02 314.501 1119.49 314.179 1117.67 314.179H1113.75V332.73ZM1161.03 308.909V338H1155.72L1143.06 319.69H1142.85V338H1136.7V308.909H1142.1L1154.65 327.205H1154.91V308.909H1161.03ZM1181.9 317.276C1181.78 316.13 1181.29 315.24 1180.43 314.605C1179.57 313.971 1178.4 313.653 1176.92 313.653C1175.92 313.653 1175.07 313.795 1174.38 314.08C1173.69 314.354 1173.16 314.738 1172.79 315.23C1172.43 315.723 1172.25 316.281 1172.25 316.906C1172.23 317.427 1172.34 317.882 1172.58 318.27C1172.82 318.658 1173.16 318.994 1173.59 319.278C1174.01 319.553 1174.5 319.795 1175.06 320.003C1175.62 320.202 1176.22 320.372 1176.85 320.514L1179.47 321.139C1180.74 321.423 1181.9 321.802 1182.96 322.276C1184.02 322.749 1184.94 323.331 1185.72 324.023C1186.49 324.714 1187.09 325.528 1187.52 326.466C1187.96 327.403 1188.18 328.478 1188.19 329.69C1188.18 331.471 1187.72 333.014 1186.82 334.321C1185.93 335.618 1184.65 336.627 1182.96 337.347C1181.28 338.057 1179.26 338.412 1176.9 338.412C1174.55 338.412 1172.5 338.052 1170.76 337.332C1169.03 336.613 1167.67 335.547 1166.7 334.136C1165.73 332.716 1165.22 330.959 1165.18 328.866H1171.13C1171.19 329.842 1171.47 330.656 1171.97 331.31C1172.47 331.954 1173.14 332.441 1173.97 332.773C1174.81 333.095 1175.76 333.256 1176.82 333.256C1177.87 333.256 1178.77 333.104 1179.54 332.801C1180.31 332.498 1180.92 332.077 1181.34 331.537C1181.77 330.997 1181.98 330.377 1181.98 329.676C1181.98 329.023 1181.79 328.473 1181.4 328.028C1181.02 327.583 1180.46 327.205 1179.72 326.892C1178.99 326.58 1178.1 326.295 1177.04 326.04L1173.87 325.244C1171.42 324.648 1169.48 323.715 1168.06 322.446C1166.64 321.177 1165.93 319.468 1165.94 317.318C1165.93 315.557 1166.4 314.018 1167.35 312.702C1168.31 311.385 1169.62 310.358 1171.28 309.619C1172.95 308.881 1174.85 308.511 1176.97 308.511C1179.13 308.511 1181.01 308.881 1182.62 309.619C1184.24 310.358 1185.5 311.385 1186.4 312.702C1187.3 314.018 1187.76 315.543 1187.79 317.276H1181.9Z" fill="black"/>
<path d="M453.518 480.98V475.909H477.41V480.98H468.504V505H462.424V480.98H453.518ZM488.01 505.426C485.766 505.426 483.834 504.972 482.215 504.062C480.605 503.144 479.364 501.847 478.493 500.17C477.622 498.485 477.186 496.491 477.186 494.19C477.186 491.946 477.622 489.976 478.493 488.281C479.364 486.586 480.591 485.265 482.172 484.318C483.763 483.371 485.629 482.898 487.769 482.898C489.208 482.898 490.548 483.13 491.789 483.594C493.039 484.048 494.128 484.735 495.056 485.653C495.993 486.572 496.722 487.727 497.243 489.119C497.764 490.502 498.025 492.121 498.025 493.977V495.639H479.601V491.889H492.328C492.328 491.018 492.139 490.246 491.76 489.574C491.382 488.902 490.856 488.376 490.184 487.997C489.521 487.609 488.749 487.415 487.868 487.415C486.95 487.415 486.135 487.628 485.425 488.054C484.724 488.471 484.175 489.034 483.777 489.744C483.38 490.445 483.176 491.226 483.167 492.088V495.653C483.167 496.733 483.365 497.666 483.763 498.452C484.17 499.238 484.743 499.844 485.482 500.27C486.221 500.696 487.096 500.909 488.11 500.909C488.782 500.909 489.398 500.814 489.956 500.625C490.515 500.436 490.993 500.152 491.391 499.773C491.789 499.394 492.092 498.93 492.3 498.381L497.897 498.75C497.613 500.095 497.03 501.269 496.15 502.273C495.278 503.267 494.151 504.044 492.769 504.602C491.396 505.152 489.81 505.426 488.01 505.426ZM508.025 492.386V505H501.973V483.182H507.74V487.031H507.996C508.479 485.762 509.289 484.759 510.425 484.02C511.561 483.272 512.939 482.898 514.559 482.898C516.074 482.898 517.395 483.229 518.522 483.892C519.649 484.555 520.525 485.502 521.15 486.733C521.775 487.955 522.087 489.413 522.087 491.108V505H516.036V492.188C516.045 490.852 515.704 489.811 515.013 489.062C514.322 488.305 513.37 487.926 512.158 487.926C511.344 487.926 510.624 488.101 509.999 488.452C509.383 488.802 508.9 489.313 508.55 489.986C508.209 490.649 508.034 491.449 508.025 492.386ZM533.078 505.412C531.686 505.412 530.445 505.17 529.356 504.688C528.267 504.195 527.405 503.471 526.771 502.514C526.146 501.548 525.833 500.346 525.833 498.906C525.833 497.694 526.056 496.676 526.501 495.852C526.946 495.028 527.552 494.366 528.319 493.864C529.086 493.362 529.958 492.983 530.933 492.727C531.918 492.472 532.95 492.292 534.029 492.188C535.298 492.055 536.321 491.932 537.098 491.818C537.874 491.695 538.438 491.515 538.788 491.278C539.138 491.042 539.314 490.691 539.314 490.227V490.142C539.314 489.242 539.029 488.546 538.461 488.054C537.903 487.562 537.107 487.315 536.075 487.315C534.986 487.315 534.119 487.557 533.475 488.04C532.832 488.513 532.405 489.11 532.197 489.83L526.6 489.375C526.885 488.049 527.443 486.903 528.277 485.938C529.11 484.962 530.185 484.214 531.501 483.693C532.827 483.163 534.361 482.898 536.103 482.898C537.315 482.898 538.475 483.04 539.583 483.324C540.701 483.608 541.69 484.048 542.552 484.645C543.423 485.241 544.11 486.009 544.612 486.946C545.114 487.874 545.365 488.987 545.365 490.284V505H539.626V501.974H539.456C539.105 502.656 538.636 503.258 538.049 503.778C537.462 504.29 536.757 504.692 535.933 504.986C535.109 505.27 534.157 505.412 533.078 505.412ZM534.811 501.236C535.701 501.236 536.487 501.061 537.169 500.71C537.85 500.35 538.386 499.867 538.774 499.261C539.162 498.655 539.356 497.969 539.356 497.202V494.886C539.167 495.009 538.906 495.123 538.575 495.227C538.253 495.322 537.888 495.412 537.481 495.497C537.074 495.573 536.667 495.644 536.26 495.71C535.852 495.767 535.483 495.819 535.152 495.866C534.441 495.971 533.821 496.136 533.291 496.364C532.761 496.591 532.349 496.899 532.055 497.287C531.761 497.666 531.615 498.139 531.615 498.707C531.615 499.531 531.913 500.161 532.51 500.597C533.116 501.023 533.883 501.236 534.811 501.236ZM556.11 492.386V505H550.059V483.182H555.826V487.031H556.082C556.565 485.762 557.375 484.759 558.511 484.02C559.647 483.272 561.025 482.898 562.645 482.898C564.16 482.898 565.481 483.229 566.608 483.892C567.734 484.555 568.61 485.502 569.235 486.733C569.86 487.955 570.173 489.413 570.173 491.108V505H564.122V492.188C564.131 490.852 563.79 489.811 563.099 489.062C562.408 488.305 561.456 487.926 560.244 487.926C559.43 487.926 558.71 488.101 558.085 488.452C557.469 488.802 556.986 489.313 556.636 489.986C556.295 490.649 556.12 491.449 556.11 492.386ZM586.547 483.182V487.727H573.408V483.182H586.547ZM576.391 477.955H582.442V498.295C582.442 498.854 582.527 499.29 582.698 499.602C582.868 499.905 583.105 500.118 583.408 500.241C583.721 500.365 584.08 500.426 584.488 500.426C584.772 500.426 585.056 500.402 585.34 500.355C585.624 500.298 585.842 500.256 585.993 500.227L586.945 504.73C586.642 504.825 586.216 504.934 585.667 505.057C585.117 505.189 584.45 505.27 583.664 505.298C582.205 505.355 580.927 505.161 579.828 504.716C578.739 504.271 577.892 503.58 577.286 502.642C576.68 501.705 576.382 500.521 576.391 499.091V477.955ZM612.346 475.909V505H606.196V481.747H606.025L599.363 485.923V480.469L606.565 475.909H612.346Z" fill="black"/>
<path d="M631.706 132.98V127.909H655.598V132.98H646.691V157H640.612V132.98H631.706ZM666.198 157.426C663.953 157.426 662.022 156.972 660.402 156.062C658.792 155.144 657.552 153.847 656.681 152.17C655.81 150.485 655.374 148.491 655.374 146.19C655.374 143.946 655.81 141.976 656.681 140.281C657.552 138.586 658.778 137.265 660.36 136.318C661.951 135.371 663.816 134.898 665.956 134.898C667.396 134.898 668.736 135.13 669.976 135.594C671.226 136.048 672.315 136.735 673.243 137.653C674.181 138.572 674.91 139.727 675.431 141.119C675.952 142.502 676.212 144.121 676.212 145.977V147.639H657.789V143.889H670.516C670.516 143.018 670.327 142.246 669.948 141.574C669.569 140.902 669.043 140.376 668.371 139.997C667.708 139.609 666.936 139.415 666.056 139.415C665.137 139.415 664.323 139.628 663.613 140.054C662.912 140.471 662.363 141.034 661.965 141.744C661.567 142.445 661.364 143.226 661.354 144.088V147.653C661.354 148.733 661.553 149.666 661.951 150.452C662.358 151.238 662.931 151.844 663.669 152.27C664.408 152.696 665.284 152.909 666.297 152.909C666.97 152.909 667.585 152.814 668.144 152.625C668.703 152.436 669.181 152.152 669.578 151.773C669.976 151.394 670.279 150.93 670.488 150.381L676.084 150.75C675.8 152.095 675.218 153.269 674.337 154.273C673.466 155.267 672.339 156.044 670.956 156.602C669.583 157.152 667.997 157.426 666.198 157.426ZM686.212 144.386V157H680.161V135.182H685.928V139.031H686.184C686.667 137.762 687.476 136.759 688.613 136.02C689.749 135.272 691.127 134.898 692.746 134.898C694.261 134.898 695.582 135.229 696.709 135.892C697.836 136.555 698.712 137.502 699.337 138.733C699.962 139.955 700.275 141.413 700.275 143.108V157H694.223V144.188C694.233 142.852 693.892 141.811 693.201 141.062C692.509 140.305 691.558 139.926 690.346 139.926C689.531 139.926 688.811 140.101 688.186 140.452C687.571 140.802 687.088 141.313 686.738 141.986C686.397 142.649 686.221 143.449 686.212 144.386ZM711.265 157.412C709.873 157.412 708.633 157.17 707.544 156.688C706.455 156.195 705.593 155.471 704.958 154.514C704.333 153.548 704.021 152.346 704.021 150.906C704.021 149.694 704.243 148.676 704.689 147.852C705.134 147.028 705.74 146.366 706.507 145.864C707.274 145.362 708.145 144.983 709.12 144.727C710.105 144.472 711.137 144.292 712.217 144.188C713.486 144.055 714.509 143.932 715.285 143.818C716.062 143.695 716.625 143.515 716.975 143.278C717.326 143.042 717.501 142.691 717.501 142.227V142.142C717.501 141.242 717.217 140.546 716.649 140.054C716.09 139.562 715.295 139.315 714.262 139.315C713.173 139.315 712.307 139.557 711.663 140.04C711.019 140.513 710.593 141.11 710.385 141.83L704.788 141.375C705.072 140.049 705.631 138.903 706.464 137.938C707.297 136.962 708.372 136.214 709.689 135.693C711.014 135.163 712.548 134.898 714.291 134.898C715.503 134.898 716.663 135.04 717.771 135.324C718.888 135.608 719.878 136.048 720.74 136.645C721.611 137.241 722.297 138.009 722.799 138.946C723.301 139.874 723.552 140.987 723.552 142.284V157H717.814V153.974H717.643C717.293 154.656 716.824 155.258 716.237 155.778C715.65 156.29 714.944 156.692 714.12 156.986C713.297 157.27 712.345 157.412 711.265 157.412ZM712.998 153.236C713.888 153.236 714.674 153.061 715.356 152.71C716.038 152.35 716.573 151.867 716.961 151.261C717.35 150.655 717.544 149.969 717.544 149.202V146.886C717.354 147.009 717.094 147.123 716.762 147.227C716.44 147.322 716.076 147.412 715.669 147.497C715.261 147.573 714.854 147.644 714.447 147.71C714.04 147.767 713.671 147.819 713.339 147.866C712.629 147.971 712.009 148.136 711.478 148.364C710.948 148.591 710.536 148.899 710.243 149.287C709.949 149.666 709.802 150.139 709.802 150.707C709.802 151.531 710.1 152.161 710.697 152.597C711.303 153.023 712.07 153.236 712.998 153.236ZM734.298 144.386V157H728.247V135.182H734.014V139.031H734.27C734.752 137.762 735.562 136.759 736.699 136.02C737.835 135.272 739.213 134.898 740.832 134.898C742.347 134.898 743.668 135.229 744.795 135.892C745.922 136.555 746.798 137.502 747.423 138.733C748.048 139.955 748.36 141.413 748.36 143.108V157H742.309V144.188C742.319 142.852 741.978 141.811 741.287 141.062C740.595 140.305 739.644 139.926 738.431 139.926C737.617 139.926 736.897 140.101 736.272 140.452C735.657 140.802 735.174 141.313 734.824 141.986C734.483 142.649 734.307 143.449 734.298 144.386ZM764.735 135.182V139.727H751.596V135.182H764.735ZM754.578 129.955H760.63V150.295C760.63 150.854 760.715 151.29 760.885 151.602C761.056 151.905 761.292 152.118 761.596 152.241C761.908 152.365 762.268 152.426 762.675 152.426C762.959 152.426 763.243 152.402 763.527 152.355C763.811 152.298 764.029 152.256 764.181 152.227L765.132 156.73C764.829 156.825 764.403 156.934 763.854 157.057C763.305 157.189 762.637 157.27 761.851 157.298C760.393 157.355 759.114 157.161 758.016 156.716C756.927 156.271 756.079 155.58 755.473 154.642C754.867 153.705 754.569 152.521 754.578 151.091V129.955ZM777.877 157V152.568L788.233 142.98C789.113 142.128 789.852 141.361 790.449 140.679C791.055 139.997 791.514 139.33 791.826 138.676C792.139 138.013 792.295 137.298 792.295 136.531C792.295 135.679 792.101 134.945 791.713 134.33C791.324 133.705 790.794 133.226 790.122 132.895C789.449 132.554 788.687 132.384 787.835 132.384C786.945 132.384 786.168 132.563 785.505 132.923C784.842 133.283 784.331 133.799 783.971 134.472C783.611 135.144 783.431 135.944 783.431 136.872H777.593C777.593 134.969 778.024 133.316 778.886 131.915C779.748 130.513 780.955 129.429 782.508 128.662C784.061 127.895 785.851 127.511 787.877 127.511C789.961 127.511 791.774 127.881 793.318 128.619C794.871 129.348 796.078 130.362 796.94 131.659C797.802 132.956 798.233 134.443 798.233 136.119C798.233 137.218 798.015 138.302 797.579 139.372C797.153 140.442 796.391 141.631 795.292 142.938C794.194 144.235 792.645 145.793 790.647 147.611L786.4 151.773V151.972H798.616V157H777.877Z" fill="black"/>
<path d="M122.62 200.98V195.909H146.512V200.98H137.605V225H131.526V200.98H122.62ZM157.112 225.426C154.868 225.426 152.936 224.972 151.316 224.062C149.707 223.144 148.466 221.847 147.595 220.17C146.724 218.485 146.288 216.491 146.288 214.19C146.288 211.946 146.724 209.976 147.595 208.281C148.466 206.586 149.692 205.265 151.274 204.318C152.865 203.371 154.73 202.898 156.87 202.898C158.31 202.898 159.65 203.13 160.89 203.594C162.14 204.048 163.229 204.735 164.157 205.653C165.095 206.572 165.824 207.727 166.345 209.119C166.866 210.502 167.126 212.121 167.126 213.977V215.639H148.703V211.889H161.43C161.43 211.018 161.241 210.246 160.862 209.574C160.483 208.902 159.958 208.376 159.285 207.997C158.622 207.609 157.85 207.415 156.97 207.415C156.051 207.415 155.237 207.628 154.527 208.054C153.826 208.471 153.277 209.034 152.879 209.744C152.481 210.445 152.278 211.226 152.268 212.088V215.653C152.268 216.733 152.467 217.666 152.865 218.452C153.272 219.238 153.845 219.844 154.583 220.27C155.322 220.696 156.198 220.909 157.211 220.909C157.884 220.909 158.499 220.814 159.058 220.625C159.617 220.436 160.095 220.152 160.493 219.773C160.89 219.394 161.193 218.93 161.402 218.381L166.998 218.75C166.714 220.095 166.132 221.269 165.251 222.273C164.38 223.267 163.253 224.044 161.87 224.602C160.497 225.152 158.911 225.426 157.112 225.426ZM177.126 212.386V225H171.075V203.182H176.842V207.031H177.098C177.581 205.762 178.39 204.759 179.527 204.02C180.663 203.272 182.041 202.898 183.66 202.898C185.175 202.898 186.496 203.229 187.623 203.892C188.75 204.555 189.626 205.502 190.251 206.733C190.876 207.955 191.189 209.413 191.189 211.108V225H185.137V212.188C185.147 210.852 184.806 209.811 184.115 209.062C183.423 208.305 182.472 207.926 181.26 207.926C180.445 207.926 179.725 208.101 179.1 208.452C178.485 208.802 178.002 209.313 177.652 209.986C177.311 210.649 177.136 211.449 177.126 212.386ZM202.179 225.412C200.787 225.412 199.547 225.17 198.458 224.688C197.369 224.195 196.507 223.471 195.873 222.514C195.248 221.548 194.935 220.346 194.935 218.906C194.935 217.694 195.158 216.676 195.603 215.852C196.048 215.028 196.654 214.366 197.421 213.864C198.188 213.362 199.059 212.983 200.034 212.727C201.019 212.472 202.051 212.292 203.131 212.188C204.4 212.055 205.423 211.932 206.199 211.818C206.976 211.695 207.539 211.515 207.89 211.278C208.24 211.042 208.415 210.691 208.415 210.227V210.142C208.415 209.242 208.131 208.546 207.563 208.054C207.004 207.562 206.209 207.315 205.176 207.315C204.087 207.315 203.221 207.557 202.577 208.04C201.933 208.513 201.507 209.11 201.299 209.83L195.702 209.375C195.986 208.049 196.545 206.903 197.378 205.938C198.212 204.962 199.286 204.214 200.603 203.693C201.928 203.163 203.462 202.898 205.205 202.898C206.417 202.898 207.577 203.04 208.685 203.324C209.802 203.608 210.792 204.048 211.654 204.645C212.525 205.241 213.212 206.009 213.713 206.946C214.215 207.874 214.466 208.987 214.466 210.284V225H208.728V221.974H208.557C208.207 222.656 207.738 223.258 207.151 223.778C206.564 224.29 205.858 224.692 205.034 224.986C204.211 225.27 203.259 225.412 202.179 225.412ZM203.912 221.236C204.802 221.236 205.588 221.061 206.27 220.71C206.952 220.35 207.487 219.867 207.875 219.261C208.264 218.655 208.458 217.969 208.458 217.202V214.886C208.268 215.009 208.008 215.123 207.676 215.227C207.355 215.322 206.99 215.412 206.583 215.497C206.176 215.573 205.768 215.644 205.361 215.71C204.954 215.767 204.585 215.819 204.253 215.866C203.543 215.971 202.923 216.136 202.392 216.364C201.862 216.591 201.45 216.899 201.157 217.287C200.863 217.666 200.716 218.139 200.716 218.707C200.716 219.531 201.015 220.161 201.611 220.597C202.217 221.023 202.984 221.236 203.912 221.236ZM225.212 212.386V225H219.161V203.182H224.928V207.031H225.184C225.667 205.762 226.476 204.759 227.613 204.02C228.749 203.272 230.127 202.898 231.746 202.898C233.261 202.898 234.582 203.229 235.709 203.892C236.836 204.555 237.712 205.502 238.337 206.733C238.962 207.955 239.275 209.413 239.275 211.108V225H233.223V212.188C233.233 210.852 232.892 209.811 232.201 209.062C231.509 208.305 230.558 207.926 229.346 207.926C228.531 207.926 227.811 208.101 227.186 208.452C226.571 208.802 226.088 209.313 225.738 209.986C225.397 210.649 225.221 211.449 225.212 212.386ZM255.649 203.182V207.727H242.51V203.182H255.649ZM245.493 197.955H251.544V218.295C251.544 218.854 251.629 219.29 251.799 219.602C251.97 219.905 252.207 220.118 252.51 220.241C252.822 220.365 253.182 220.426 253.589 220.426C253.873 220.426 254.157 220.402 254.441 220.355C254.725 220.298 254.943 220.256 255.095 220.227L256.047 224.73C255.743 224.825 255.317 224.934 254.768 225.057C254.219 225.189 253.551 225.27 252.765 225.298C251.307 225.355 250.029 225.161 248.93 224.716C247.841 224.271 246.993 223.58 246.387 222.642C245.781 221.705 245.483 220.521 245.493 219.091V197.955ZM279.544 225.398C277.423 225.398 275.534 225.033 273.877 224.304C272.229 223.565 270.927 222.552 269.971 221.264C269.024 219.967 268.536 218.471 268.507 216.776H274.701C274.739 217.486 274.971 218.111 275.397 218.651C275.832 219.181 276.41 219.593 277.13 219.886C277.849 220.18 278.659 220.327 279.559 220.327C280.496 220.327 281.325 220.161 282.044 219.83C282.764 219.498 283.328 219.039 283.735 218.452C284.142 217.865 284.346 217.187 284.346 216.42C284.346 215.644 284.128 214.957 283.692 214.361C283.266 213.755 282.65 213.281 281.846 212.94C281.05 212.599 280.103 212.429 279.005 212.429H276.292V207.912H279.005C279.933 207.912 280.752 207.751 281.462 207.429C282.182 207.107 282.74 206.662 283.138 206.094C283.536 205.516 283.735 204.844 283.735 204.077C283.735 203.348 283.56 202.708 283.209 202.159C282.868 201.6 282.385 201.165 281.76 200.852C281.145 200.54 280.425 200.384 279.601 200.384C278.768 200.384 278.006 200.535 277.314 200.838C276.623 201.132 276.069 201.553 275.652 202.102C275.236 202.652 275.013 203.295 274.985 204.034H269.09C269.118 202.358 269.596 200.881 270.525 199.602C271.453 198.324 272.703 197.325 274.275 196.605C275.856 195.876 277.641 195.511 279.63 195.511C281.637 195.511 283.394 195.876 284.9 196.605C286.405 197.334 287.575 198.319 288.408 199.56C289.251 200.791 289.667 202.173 289.658 203.707C289.667 205.336 289.161 206.695 288.138 207.784C287.125 208.873 285.804 209.564 284.175 209.858V210.085C286.315 210.36 287.944 211.103 289.061 212.315C290.188 213.518 290.747 215.024 290.738 216.832C290.747 218.49 290.269 219.962 289.303 221.25C288.346 222.538 287.025 223.551 285.34 224.29C283.654 225.028 281.722 225.398 279.544 225.398Z" fill="black"/>
<path d="M123.749 696.98V691.909H147.641V696.98H138.734V721H132.655V696.98H123.749ZM158.241 721.426C155.996 721.426 154.065 720.972 152.445 720.062C150.835 719.144 149.595 717.847 148.724 716.17C147.853 714.485 147.417 712.491 147.417 710.19C147.417 707.946 147.853 705.976 148.724 704.281C149.595 702.586 150.821 701.265 152.403 700.318C153.994 699.371 155.859 698.898 157.999 698.898C159.439 698.898 160.779 699.13 162.019 699.594C163.269 700.048 164.358 700.735 165.286 701.653C166.224 702.572 166.953 703.727 167.474 705.119C167.995 706.502 168.255 708.121 168.255 709.977V711.639H149.832V707.889H162.559C162.559 707.018 162.37 706.246 161.991 705.574C161.612 704.902 161.086 704.376 160.414 703.997C159.751 703.609 158.979 703.415 158.099 703.415C157.18 703.415 156.366 703.628 155.656 704.054C154.955 704.471 154.406 705.034 154.008 705.744C153.61 706.445 153.406 707.226 153.397 708.088V711.653C153.397 712.733 153.596 713.666 153.994 714.452C154.401 715.238 154.974 715.844 155.712 716.27C156.451 716.696 157.327 716.909 158.34 716.909C159.013 716.909 159.628 716.814 160.187 716.625C160.746 716.436 161.224 716.152 161.621 715.773C162.019 715.394 162.322 714.93 162.531 714.381L168.127 714.75C167.843 716.095 167.261 717.269 166.38 718.273C165.509 719.267 164.382 720.044 162.999 720.602C161.626 721.152 160.04 721.426 158.241 721.426ZM178.255 708.386V721H172.204V699.182H177.971V703.031H178.227C178.71 701.762 179.519 700.759 180.656 700.02C181.792 699.272 183.17 698.898 184.789 698.898C186.304 698.898 187.625 699.229 188.752 699.892C189.879 700.555 190.755 701.502 191.38 702.733C192.005 703.955 192.317 705.413 192.317 707.108V721H186.266V708.188C186.276 706.852 185.935 705.811 185.244 705.062C184.552 704.305 183.601 703.926 182.388 703.926C181.574 703.926 180.854 704.101 180.229 704.452C179.614 704.802 179.131 705.313 178.781 705.986C178.44 706.649 178.264 707.449 178.255 708.386ZM203.308 721.412C201.916 721.412 200.676 721.17 199.587 720.688C198.498 720.195 197.636 719.471 197.001 718.514C196.376 717.548 196.064 716.346 196.064 714.906C196.064 713.694 196.286 712.676 196.732 711.852C197.177 711.028 197.783 710.366 198.55 709.864C199.317 709.362 200.188 708.983 201.163 708.727C202.148 708.472 203.18 708.292 204.26 708.188C205.529 708.055 206.552 707.932 207.328 707.818C208.105 707.695 208.668 707.515 209.018 707.278C209.369 707.042 209.544 706.691 209.544 706.227V706.142C209.544 705.242 209.26 704.546 208.692 704.054C208.133 703.562 207.338 703.315 206.305 703.315C205.216 703.315 204.35 703.557 203.706 704.04C203.062 704.513 202.636 705.11 202.428 705.83L196.831 705.375C197.115 704.049 197.674 702.903 198.507 701.938C199.34 700.962 200.415 700.214 201.732 699.693C203.057 699.163 204.591 698.898 206.334 698.898C207.546 698.898 208.706 699.04 209.814 699.324C210.931 699.608 211.921 700.048 212.783 700.645C213.654 701.241 214.34 702.009 214.842 702.946C215.344 703.874 215.595 704.987 215.595 706.284V721H209.857V717.974H209.686C209.336 718.656 208.867 719.258 208.28 719.778C207.693 720.29 206.987 720.692 206.163 720.986C205.339 721.27 204.388 721.412 203.308 721.412ZM205.041 717.236C205.931 717.236 206.717 717.061 207.399 716.71C208.081 716.35 208.616 715.867 209.004 715.261C209.393 714.655 209.587 713.969 209.587 713.202V710.886C209.397 711.009 209.137 711.123 208.805 711.227C208.483 711.322 208.119 711.412 207.712 711.497C207.304 711.573 206.897 711.644 206.49 711.71C206.083 711.767 205.714 711.819 205.382 711.866C204.672 711.971 204.052 712.136 203.521 712.364C202.991 712.591 202.579 712.899 202.286 713.287C201.992 713.666 201.845 714.139 201.845 714.707C201.845 715.531 202.143 716.161 202.74 716.597C203.346 717.023 204.113 717.236 205.041 717.236ZM226.341 708.386V721H220.29V699.182H226.057V703.031H226.312C226.795 701.762 227.605 700.759 228.741 700.02C229.878 699.272 231.256 698.898 232.875 698.898C234.39 698.898 235.711 699.229 236.838 699.892C237.965 700.555 238.841 701.502 239.466 702.733C240.091 703.955 240.403 705.413 240.403 707.108V721H234.352V708.188C234.362 706.852 234.021 705.811 233.33 705.062C232.638 704.305 231.687 703.926 230.474 703.926C229.66 703.926 228.94 704.101 228.315 704.452C227.7 704.802 227.217 705.313 226.866 705.986C226.526 706.649 226.35 707.449 226.341 708.386ZM256.778 699.182V703.727H243.638V699.182H256.778ZM246.621 693.955H252.673V714.295C252.673 714.854 252.758 715.29 252.928 715.602C253.099 715.905 253.335 716.118 253.638 716.241C253.951 716.365 254.311 716.426 254.718 716.426C255.002 716.426 255.286 716.402 255.57 716.355C255.854 716.298 256.072 716.256 256.224 716.227L257.175 720.73C256.872 720.825 256.446 720.934 255.897 721.057C255.348 721.189 254.68 721.27 253.894 721.298C252.436 721.355 251.157 721.161 250.059 720.716C248.97 720.271 248.122 719.58 247.516 718.642C246.91 717.705 246.612 716.521 246.621 715.091V693.955ZM269.48 715.886V711.043L281.625 691.909H285.801V698.614H283.33L275.673 710.73V710.957H292.932V715.886H269.48ZM283.443 721V714.409L283.557 712.264V691.909H289.324V721H283.443Z" fill="black"/>
<path d="M979.191 351.956C979.719 352.594 980.664 352.684 981.303 352.156L991.709 343.556C992.347 343.028 992.437 342.083 991.909 341.444C991.382 340.805 990.436 340.716 989.798 341.243L980.548 348.888L972.903 339.639C972.375 339 971.43 338.91 970.791 339.438C970.153 339.966 970.063 340.911 970.591 341.55L979.191 351.956ZM861.862 134.494C894.018 137.468 917.727 148.203 935.145 163.616C952.576 179.039 963.802 199.233 970.835 221.269C984.918 265.39 982.106 316.62 978.854 350.858L981.841 351.142C985.095 316.88 987.978 265.11 973.693 220.356C966.543 197.954 955.071 177.242 937.133 161.369C919.181 145.484 894.85 134.532 862.138 131.506L861.862 134.494Z" fill="black"/>
<path d="M879.469 564.806C879.637 563.995 879.116 563.201 878.305 563.032L865.088 560.284C864.277 560.116 863.483 560.636 863.314 561.447C863.145 562.259 863.666 563.053 864.477 563.221L876.226 565.664L873.783 577.413C873.615 578.224 874.135 579.018 874.946 579.187C875.758 579.355 876.552 578.835 876.72 578.024L879.469 564.806ZM672.068 565.999C759.974 562.004 803.758 566.999 829.36 570.487C842.103 572.224 850.595 573.632 857.762 573.312C865.085 572.985 871.03 570.865 878.823 565.755L877.177 563.247C869.72 568.137 864.29 570.017 857.628 570.315C850.812 570.62 842.709 569.278 829.765 567.515C803.992 564.003 760.026 558.998 671.932 563.002L672.068 565.999Z" fill="black"/>
<path d="M897.019 434.908C897.796 434.621 898.194 433.759 897.908 432.981L893.24 420.314C892.954 419.536 892.092 419.138 891.314 419.425C890.537 419.711 890.139 420.574 890.425 421.351L894.574 432.611L883.314 436.76C882.536 437.046 882.138 437.908 882.425 438.686C882.711 439.463 883.574 439.861 884.351 439.575L897.019 434.908ZM366.816 184.489C411.111 189.963 464.68 207.557 520.589 231.117C576.479 254.668 634.618 284.142 688.031 313.316C741.441 342.489 790.108 371.351 827.052 393.674C845.535 404.842 861.055 414.355 872.807 421.476C884.499 428.561 892.524 433.317 895.871 434.862L897.129 432.138C893.976 430.683 886.142 426.048 874.361 418.91C862.641 411.809 847.075 402.267 828.604 391.107C791.642 368.774 742.934 339.886 689.469 310.684C636.007 281.483 577.771 251.957 521.754 228.352C465.758 204.756 411.889 187.037 367.184 181.511L366.816 184.489Z" fill="black"/>
<path d="M856.364 442.955C857.168 442.754 857.656 441.94 857.455 441.136L854.181 428.039C853.98 427.236 853.166 426.747 852.362 426.948C851.558 427.149 851.07 427.963 851.271 428.767L854.181 440.409L842.539 443.319C841.736 443.52 841.247 444.334 841.448 445.138C841.649 445.942 842.463 446.43 843.267 446.229L856.364 442.955ZM358.846 234.992C610.92 260.948 825.035 424.67 855.228 442.786L856.772 440.214C826.965 422.33 612.08 258.052 359.154 232.008L358.846 234.992Z" fill="black"/>
<path d="M952.431 580.55C952.183 579.76 951.341 579.321 950.55 579.569L937.671 583.617C936.881 583.865 936.442 584.707 936.69 585.497C936.938 586.288 937.781 586.727 938.571 586.479L950.019 582.881L953.617 594.329C953.865 595.119 954.707 595.558 955.497 595.31C956.288 595.062 956.727 594.219 956.479 593.429L952.431 580.55ZM363.074 721.498C423.724 718.491 566.344 692.335 695.96 662.65C760.789 647.802 822.421 632.059 868.984 617.865C892.261 610.769 911.806 604.05 926.112 598.014C933.263 594.997 939.143 592.134 943.539 589.462C947.862 586.834 950.998 584.247 952.33 581.694L949.67 580.306C948.752 582.065 946.271 584.291 941.98 586.899C937.763 589.463 932.032 592.26 924.946 595.25C910.78 601.227 891.348 607.911 868.109 614.995C821.641 629.16 760.086 644.885 695.29 659.725C565.656 689.415 423.276 715.509 362.926 718.502L363.074 721.498Z" fill="#FF3C00"/>
<path d="M956.495 603.126C956.564 602.301 955.952 601.575 955.126 601.505L941.674 600.369C940.849 600.299 940.123 600.911 940.053 601.737C939.984 602.562 940.596 603.288 941.422 603.358L953.379 604.368L952.369 616.326C952.299 617.151 952.911 617.877 953.737 617.947C954.562 618.016 955.288 617.404 955.358 616.578L956.495 603.126ZM353.036 754C479.462 750.995 620.473 721.711 734.662 689.13C791.764 672.837 842.184 655.713 880.75 640.623C900.031 633.079 916.363 626.038 929.091 619.858C941.78 613.697 951 608.34 955.968 604.146L954.032 601.854C949.375 605.785 940.454 611.006 927.78 617.159C915.145 623.294 898.891 630.304 879.657 637.83C841.191 652.88 790.861 669.975 733.838 686.245C619.777 718.789 479.038 748.005 352.964 751L353.036 754Z" fill="#FF3C00"/>
<path d="M974.448 614.609C974.233 613.81 973.409 613.336 972.609 613.552L959.575 617.067C958.775 617.282 958.302 618.106 958.517 618.905C958.733 619.705 959.556 620.179 960.356 619.963L971.942 616.839L975.067 628.425C975.282 629.225 976.106 629.698 976.905 629.483C977.705 629.267 978.179 628.444 977.963 627.644L974.448 614.609ZM348.963 786.5C429.95 788.505 578.009 760.075 709.77 724.135C775.678 706.157 837.579 686.281 885.055 667.354C908.79 657.893 928.954 648.655 944.221 639.995C951.854 635.665 958.29 631.465 963.345 627.437C968.385 623.422 972.134 619.514 974.3 615.748L971.7 614.252C969.804 617.549 966.385 621.18 961.476 625.091C956.583 628.989 950.291 633.103 942.74 637.386C927.64 645.951 907.616 655.131 883.945 664.568C836.608 683.438 774.822 703.281 708.98 721.24C577.241 757.175 429.55 785.495 349.037 783.5L348.963 786.5Z" fill="#FF3C00"/>
<path d="M980.412 644.992C980.131 644.213 979.272 643.808 978.492 644.088L965.789 648.656C965.009 648.936 964.604 649.796 964.885 650.575C965.165 651.355 966.024 651.759 966.804 651.479L978.096 647.419L982.156 658.711C982.436 659.491 983.296 659.896 984.075 659.615C984.855 659.335 985.259 658.476 984.979 657.696L980.412 644.992ZM322.5 820.5C399.452 820.5 556.609 792.206 697.993 756.392C768.709 738.478 835.549 718.666 886.511 699.537C911.988 689.975 933.538 680.568 949.632 671.637C957.679 667.172 964.395 662.807 969.566 658.58C974.719 654.368 978.438 650.213 980.357 646.139L977.643 644.861C976 648.349 972.672 652.167 967.668 656.257C962.682 660.332 956.132 664.599 948.176 669.014C932.267 677.842 910.871 687.19 885.457 696.728C834.639 715.803 767.916 735.584 697.257 753.483C555.891 789.294 399.048 817.5 322.5 817.5V820.5Z" fill="#FF3C00"/>
<path d="M977.931 588.55C977.683 587.76 976.841 587.321 976.05 587.569L963.171 591.617C962.381 591.865 961.942 592.707 962.19 593.497C962.438 594.288 963.281 594.727 964.071 594.479L975.519 590.881L979.117 602.329C979.365 603.119 980.207 603.558 980.997 603.31C981.788 603.062 982.227 602.219 981.979 601.429L977.931 588.55ZM388.574 729.498C449.224 726.491 591.844 700.335 721.46 670.65C786.289 655.802 847.921 640.059 894.484 625.865C917.761 618.769 937.306 612.05 951.612 606.014C958.763 602.997 964.643 600.134 969.039 597.462C973.362 594.834 976.498 592.247 977.83 589.694L975.17 588.306C974.252 590.065 971.771 592.291 967.48 594.899C963.263 597.463 957.532 600.26 950.446 603.25C936.28 609.227 916.848 615.911 893.609 622.995C847.141 637.16 785.586 652.885 720.79 667.725C591.156 697.415 448.776 723.509 388.426 726.502L388.574 729.498Z" fill="#FF3C00"/>
<path d="M981.995 611.126C982.064 610.301 981.452 609.575 980.626 609.505L967.174 608.369C966.349 608.299 965.623 608.911 965.553 609.737C965.484 610.562 966.096 611.288 966.922 611.358L978.879 612.368L977.869 624.326C977.799 625.151 978.411 625.877 979.237 625.947C980.062 626.016 980.788 625.404 980.858 624.578L981.995 611.126ZM378.536 762C504.962 758.995 645.973 729.711 760.162 697.13C817.264 680.837 867.684 663.713 906.25 648.623C925.531 641.079 941.863 634.038 954.591 627.858C967.28 621.697 976.5 616.34 981.468 612.146L979.532 609.854C974.875 613.785 965.954 619.006 953.28 625.159C940.645 631.294 924.391 638.304 905.157 645.83C866.691 660.88 816.361 677.975 759.338 694.245C645.277 726.789 504.538 756.005 378.464 759L378.536 762Z" fill="#FF3C00"/>
<path d="M999.948 622.609C999.733 621.81 998.909 621.336 998.109 621.552L985.075 625.067C984.275 625.282 983.802 626.106 984.017 626.905C984.233 627.705 985.056 628.179 985.856 627.963L997.442 624.839L1000.57 636.425C1000.78 637.225 1001.61 637.698 1002.41 637.483C1003.21 637.267 1003.68 636.444 1003.46 635.644L999.948 622.609ZM374.463 794.5C455.45 796.505 603.509 768.075 735.27 732.135C801.178 714.157 863.079 694.281 910.555 675.354C934.29 665.893 954.454 656.655 969.721 647.995C977.354 643.665 983.79 639.465 988.845 635.437C993.885 631.422 997.634 627.514 999.8 623.748L997.2 622.252C995.304 625.549 991.885 629.18 986.976 633.091C982.083 636.989 975.791 641.103 968.24 645.386C953.14 653.951 933.116 663.131 909.445 672.568C862.108 691.438 800.322 711.281 734.48 729.24C602.741 765.175 455.05 793.495 374.537 791.5L374.463 794.5Z" fill="#FF3C00"/>
<path d="M1005.91 652.992C1005.63 652.213 1004.77 651.808 1003.99 652.088L991.289 656.656C990.509 656.936 990.104 657.796 990.385 658.575C990.665 659.355 991.524 659.759 992.304 659.479L1003.6 655.419L1007.66 666.711C1007.94 667.491 1008.8 667.896 1009.58 667.615C1010.35 667.335 1010.76 666.476 1010.48 665.696L1005.91 652.992ZM348 828.5C424.952 828.5 582.109 800.206 723.493 764.392C794.209 746.478 861.049 726.666 912.011 707.537C937.488 697.975 959.038 688.568 975.132 679.637C983.179 675.172 989.895 670.807 995.066 666.58C1000.22 662.368 1003.94 658.213 1005.86 654.139L1003.14 652.861C1001.5 656.349 998.172 660.167 993.168 664.257C988.182 668.332 981.632 672.599 973.676 677.014C957.767 685.842 936.371 695.19 910.957 704.728C860.139 723.803 793.416 743.584 722.757 761.483C581.391 797.294 424.548 825.5 348 825.5V828.5Z" fill="#FF3C00"/>
<path d="M793.645 817.906C793.645 817.177 794.1 816.247 795.012 815.117C795.923 813.951 797.053 812.638 798.402 811.18C799.751 809.721 801.228 808.135 802.832 806.422C804.436 804.708 805.913 802.94 807.262 801.117C808.611 799.258 809.741 797.38 810.652 795.484C811.564 793.552 812.02 791.656 812.02 789.797C812.02 788.812 811.746 787.974 811.199 787.281C810.652 786.552 809.941 785.932 809.066 785.422C808.228 784.911 807.262 784.51 806.168 784.219C805.111 783.927 804.035 783.708 802.941 783.562C801.848 783.38 800.809 783.271 799.824 783.234C798.84 783.161 798.001 783.125 797.309 783.125C797.126 783.125 796.889 783.143 796.598 783.18C796.306 783.18 795.996 783.198 795.668 783.234C795.376 783.234 795.103 783.253 794.848 783.289C794.592 783.326 794.447 783.344 794.41 783.344L793.699 784C793.699 784.073 793.681 784.383 793.645 784.93C793.645 785.477 793.626 786.096 793.59 786.789C793.59 787.482 793.59 788.193 793.59 788.922V790.617C793.59 794.299 793.717 797.964 793.973 801.609C794.264 805.219 794.41 808.865 794.41 812.547C794.41 812.766 794.41 813.003 794.41 813.258C794.447 813.513 794.447 813.768 794.41 814.023C794.374 814.242 794.264 814.443 794.082 814.625C793.936 814.771 793.699 814.844 793.371 814.844C793.152 814.844 792.934 814.789 792.715 814.68C792.496 814.57 792.368 814.388 792.332 814.133L790.199 785.367C790.09 785.44 789.889 785.549 789.598 785.695C789.342 785.805 789.069 785.932 788.777 786.078C788.486 786.224 788.194 786.388 787.902 786.57C787.647 786.716 787.483 786.789 787.41 786.789C787.374 786.789 787.301 786.807 787.191 786.844C787.118 786.844 787.064 786.844 787.027 786.844C786.845 786.844 786.626 786.807 786.371 786.734C786.152 786.625 786.043 786.406 786.043 786.078C786.043 785.531 786.152 785.094 786.371 784.766C786.626 784.401 786.936 784.073 787.301 783.781C787.702 783.49 788.121 783.198 788.559 782.906C788.996 782.615 789.397 782.25 789.762 781.812C790.163 781.339 790.473 780.755 790.691 780.062C790.947 779.37 791.074 778.495 791.074 777.438C791.803 777.438 792.259 777.565 792.441 777.82C792.624 778.076 792.733 778.385 792.77 778.75C792.806 779.078 792.842 779.424 792.879 779.789C792.952 780.117 793.225 780.354 793.699 780.5C794.72 780.464 795.941 780.464 797.363 780.5C798.822 780.536 800.335 780.664 801.902 780.883C803.507 781.065 805.074 781.357 806.605 781.758C808.173 782.159 809.559 782.724 810.762 783.453C812.001 784.182 812.967 785.112 813.66 786.242C814.389 787.336 814.717 788.685 814.645 790.289C814.171 793.096 813.259 795.794 811.91 798.383C810.598 800.971 809.03 803.469 807.207 805.875C805.421 808.245 803.47 810.523 801.355 812.711C799.277 814.898 797.199 816.995 795.121 819C795.085 819 795.03 819 794.957 819C794.884 819.036 794.829 819.055 794.793 819.055C794.465 819.055 794.191 818.945 793.973 818.727C793.754 818.508 793.645 818.234 793.645 817.906ZM817.598 785.367V782.742C818.035 782.742 818.527 782.888 819.074 783.18C819.621 783.471 820.15 783.818 820.66 784.219C821.171 784.62 821.645 785.076 822.082 785.586C822.52 786.06 822.866 786.461 823.121 786.789L839.254 808.5C839.363 807.88 839.454 806.732 839.527 805.055C839.637 803.378 839.673 801.482 839.637 799.367C839.637 797.216 839.582 794.974 839.473 792.641C839.4 790.307 839.272 788.138 839.09 786.133C838.944 784.091 838.762 782.378 838.543 780.992C838.361 779.57 838.105 778.714 837.777 778.422C837.777 777.875 837.868 777.365 838.051 776.891C838.27 776.417 838.671 776.18 839.254 776.18C839.837 776.18 840.311 776.508 840.676 777.164C841.04 777.82 841.314 778.568 841.496 779.406C841.678 780.208 841.806 781.01 841.879 781.812C841.988 782.578 842.043 783.089 842.043 783.344C842.079 784 842.116 785.003 842.152 786.352C842.189 787.664 842.225 789.177 842.262 790.891C842.298 792.568 842.335 794.354 842.371 796.25C842.444 798.146 842.499 799.932 842.535 801.609C842.608 803.286 842.645 804.818 842.645 806.203C842.681 807.552 842.717 808.555 842.754 809.211C842.754 809.685 842.827 810.122 842.973 810.523C843.155 810.924 843.319 811.326 843.465 811.727C843.647 812.128 843.811 812.529 843.957 812.93C844.103 813.331 844.176 813.75 844.176 814.188C844.176 814.917 843.902 815.464 843.355 815.828C842.845 816.156 842.262 816.32 841.605 816.32C841.241 816.32 840.913 816.284 840.621 816.211C840.366 816.102 840.147 815.938 839.965 815.719C839.819 815.464 839.728 815.154 839.691 814.789C839.691 814.424 839.764 813.951 839.91 813.367C839.509 812.893 838.889 812.128 838.051 811.07C837.212 809.977 836.264 808.773 835.207 807.461C834.186 806.112 833.092 804.708 831.926 803.25C830.759 801.792 829.647 800.406 828.59 799.094C827.533 797.745 826.585 796.542 825.746 795.484L823.887 793.133C823.814 793.023 823.686 792.878 823.504 792.695L822.191 791.383C822.009 791.201 821.863 791.073 821.754 791C821.608 793.115 821.626 795.247 821.809 797.398C821.991 799.513 822.228 801.628 822.52 803.742C822.848 805.857 823.158 807.971 823.449 810.086C823.777 812.164 823.941 814.26 823.941 816.375C823.941 816.958 823.887 817.487 823.777 817.961C823.668 818.398 823.23 818.745 822.465 819C821.736 818.745 821.243 818.271 820.988 817.578C820.733 816.849 820.751 816.156 821.043 815.5L817.598 785.367ZM852.816 816.43C852.889 816.065 853.345 815.719 854.184 815.391C855.022 815.062 856.061 814.716 857.301 814.352C858.54 813.987 859.908 813.586 861.402 813.148C862.897 812.711 864.337 812.219 865.723 811.672C867.108 811.125 868.366 810.505 869.496 809.812C870.663 809.12 871.52 808.318 872.066 807.406C872.066 806.859 871.702 806.44 870.973 806.148C870.28 805.857 869.332 805.62 868.129 805.438C866.962 805.219 865.613 805.055 864.082 804.945C862.587 804.799 861.038 804.617 859.434 804.398C857.866 804.143 856.316 803.852 854.785 803.523C853.29 803.159 851.941 802.667 850.738 802.047C849.572 801.391 848.624 800.57 847.895 799.586C847.202 798.602 846.855 797.398 846.855 795.977C846.855 794.555 847.165 793.151 847.785 791.766C848.405 790.344 849.225 788.977 850.246 787.664C851.303 786.352 852.488 785.13 853.801 784C855.15 782.87 856.553 781.885 858.012 781.047C859.47 780.208 860.91 779.552 862.332 779.078C863.79 778.604 865.139 778.367 866.379 778.367C866.707 778.367 867.053 778.367 867.418 778.367C867.783 778.331 868.092 778.349 868.348 778.422C868.639 778.458 868.876 778.586 869.059 778.805C869.241 779.023 869.332 779.352 869.332 779.789C869.332 780.846 868.986 781.612 868.293 782.086C867.6 782.523 866.762 782.742 865.777 782.742L863.645 781.211C862.806 781.211 861.876 781.448 860.855 781.922C859.871 782.396 858.85 783.034 857.793 783.836C856.772 784.602 855.77 785.495 854.785 786.516C853.801 787.536 852.926 788.594 852.16 789.688C851.431 790.781 850.829 791.875 850.355 792.969C849.918 794.062 849.699 795.047 849.699 795.922C849.699 797.198 850.046 798.237 850.738 799.039C851.467 799.805 852.415 800.424 853.582 800.898C854.785 801.336 856.152 801.664 857.684 801.883C859.215 802.102 860.764 802.284 862.332 802.43C863.9 802.576 865.449 802.721 866.98 802.867C868.512 802.977 869.861 803.195 871.027 803.523C872.23 803.852 873.178 804.289 873.871 804.836C874.6 805.383 874.965 806.13 874.965 807.078C875.366 807.661 875.275 808.336 874.691 809.102C874.145 809.831 873.27 810.578 872.066 811.344C870.9 812.073 869.496 812.82 867.855 813.586C866.251 814.315 864.592 814.99 862.879 815.609C861.165 816.193 859.507 816.703 857.902 817.141C856.298 817.542 854.931 817.797 853.801 817.906C853.473 817.906 853.181 817.797 852.926 817.578C852.707 817.359 852.671 816.977 852.816 816.43ZM918.277 805C918.132 806.021 917.931 807.188 917.676 808.5C917.421 809.812 916.928 811.07 916.199 812.273C915.507 813.477 914.467 814.534 913.082 815.445C911.733 816.32 909.837 816.812 907.395 816.922C905.754 816.922 904.587 816.448 903.895 815.5C903.202 814.552 902.855 813.258 902.855 811.617C902.855 810.596 903.02 809.43 903.348 808.117C903.712 806.805 904.186 805.474 904.77 804.125C905.389 802.74 906.118 801.391 906.957 800.078C907.796 798.766 908.707 797.599 909.691 796.578C910.676 795.521 911.715 794.682 912.809 794.062C913.902 793.406 915.033 793.078 916.199 793.078C917.621 793.078 918.624 793.424 919.207 794.117C919.79 794.81 920.173 795.867 920.355 797.289L925.441 834.367H922.488C922.415 834.258 922.306 833.784 922.16 832.945C922.051 832.107 921.905 831.031 921.723 829.719C921.577 828.406 921.395 826.93 921.176 825.289C920.993 823.648 920.793 821.953 920.574 820.203C920.355 818.49 920.137 816.776 919.918 815.062C919.736 813.349 919.535 811.799 919.316 810.414C919.134 809.029 918.952 807.862 918.77 806.914C918.587 805.93 918.423 805.292 918.277 805ZM905.645 812.055C905.645 812.857 905.736 813.422 905.918 813.75C906.137 814.042 906.665 814.188 907.504 814.188C908.598 814.589 909.618 814.552 910.566 814.078C911.514 813.568 912.353 812.784 913.082 811.727C913.848 810.633 914.522 809.375 915.105 807.953C915.689 806.495 916.163 805.018 916.527 803.523C916.928 801.992 917.202 800.552 917.348 799.203C917.53 797.818 917.603 796.651 917.566 795.703C915.853 795.703 914.267 796.268 912.809 797.398C911.35 798.529 910.092 799.932 909.035 801.609C907.978 803.286 907.139 805.073 906.52 806.969C905.936 808.865 905.645 810.56 905.645 812.055ZM939.879 812.656C939.733 813.094 939.368 813.695 938.785 814.461C938.238 815.19 937.582 815.938 936.816 816.703C936.051 817.432 935.249 818.089 934.41 818.672C933.608 819.219 932.897 819.492 932.277 819.492C931.111 819.492 930.145 818.945 929.379 817.852C928.65 816.758 928.085 815.354 927.684 813.641C927.283 811.927 927.009 810.031 926.863 807.953C926.717 805.839 926.626 803.779 926.59 801.773C926.553 799.768 926.535 797.945 926.535 796.305C926.535 794.664 926.48 793.424 926.371 792.586C926.517 792.221 926.699 792.003 926.918 791.93C927.173 791.857 927.465 791.82 927.793 791.82C928.085 791.82 928.34 791.857 928.559 791.93C928.814 792.003 929.033 792.221 929.215 792.586C929.215 792.987 929.215 793.661 929.215 794.609C929.251 795.557 929.306 796.633 929.379 797.836C929.452 799.003 929.525 800.242 929.598 801.555C929.671 802.831 929.725 804.052 929.762 805.219C929.835 806.385 929.889 807.443 929.926 808.391C929.999 809.302 930.053 809.977 930.09 810.414C930.126 810.669 930.163 811.089 930.199 811.672C930.272 812.255 930.363 812.875 930.473 813.531C930.618 814.151 930.783 814.716 930.965 815.227C931.184 815.737 931.457 816.01 931.785 816.047C932.332 816.047 932.879 815.81 933.426 815.336C934.009 814.862 934.574 814.26 935.121 813.531C935.668 812.802 936.178 812 936.652 811.125C937.126 810.25 937.546 809.411 937.91 808.609C938.311 807.771 938.603 807.023 938.785 806.367C939.004 805.711 939.132 805.237 939.168 804.945C939.241 804.326 939.314 803.451 939.387 802.32C939.46 801.154 939.514 799.914 939.551 798.602C939.587 797.289 939.605 796.049 939.605 794.883C939.642 793.716 939.66 792.823 939.66 792.203L942.668 792.367C942.704 795.32 942.686 798 942.613 800.406C942.54 802.776 942.522 805.018 942.559 807.133C942.595 809.211 942.759 811.234 943.051 813.203C943.342 815.172 943.871 817.214 944.637 819.328C944.527 819.438 944.309 819.583 943.98 819.766C943.652 819.984 943.415 820.094 943.27 820.094C942.358 820.094 941.738 819.784 941.41 819.164C941.118 818.581 940.918 817.888 940.809 817.086C940.736 816.247 940.663 815.427 940.59 814.625C940.553 813.786 940.316 813.13 939.879 812.656ZM949.285 807.188C949.103 807.224 948.829 807.279 948.465 807.352C948.1 807.424 947.717 807.443 947.316 807.406C946.915 807.37 946.569 807.26 946.277 807.078C945.949 806.896 945.785 806.586 945.785 806.148C945.785 805.893 945.84 805.711 945.949 805.602C946.059 805.492 946.241 805.328 946.496 805.109C947.298 804.453 947.973 803.615 948.52 802.594C949.103 801.536 949.632 800.424 950.105 799.258C950.579 798.055 951.072 796.87 951.582 795.703C952.129 794.5 952.749 793.424 953.441 792.477C954.134 791.529 954.991 790.763 956.012 790.18C957.033 789.596 958.29 789.323 959.785 789.359C960.405 789.359 961.098 789.505 961.863 789.797C962.629 790.089 963.34 790.49 963.996 791C964.652 791.474 965.199 792.057 965.637 792.75C966.074 793.443 966.293 794.208 966.293 795.047C966.475 795.339 966.293 795.758 965.746 796.305C965.236 796.852 964.525 797.453 963.613 798.109C962.702 798.729 961.663 799.385 960.496 800.078C959.366 800.734 958.272 801.354 957.215 801.938C956.158 802.521 955.228 803.031 954.426 803.469C953.624 803.906 953.095 804.234 952.84 804.453C952.658 804.818 952.512 805.237 952.402 805.711C952.293 806.185 952.202 806.641 952.129 807.078C952.092 807.479 952.056 807.862 952.02 808.227C952.02 808.555 952.02 808.81 952.02 808.992C952.02 809.685 951.983 810.451 951.91 811.289C951.874 812.128 951.91 812.93 952.02 813.695C952.165 814.424 952.475 815.044 952.949 815.555C953.423 816.029 954.225 816.266 955.355 816.266C956.559 816.266 957.689 815.974 958.746 815.391C959.803 814.771 960.788 814.023 961.699 813.148C962.611 812.273 963.431 811.326 964.16 810.305C964.926 809.284 965.6 808.336 966.184 807.461C966.803 806.549 967.35 805.802 967.824 805.219C968.298 804.635 968.699 804.344 969.027 804.344C969.392 804.344 969.775 804.417 970.176 804.562C970.613 804.672 970.832 804.964 970.832 805.438C970.832 806.094 970.559 806.878 970.012 807.789C969.501 808.701 968.809 809.667 967.934 810.688C967.095 811.708 966.111 812.729 964.98 813.75C963.887 814.734 962.775 815.628 961.645 816.43C960.514 817.195 959.402 817.833 958.309 818.344C957.215 818.818 956.249 819.055 955.41 819.055C953.77 819.055 952.53 818.654 951.691 817.852C950.853 817.049 950.251 816.047 949.887 814.844C949.559 813.641 949.376 812.365 949.34 811.016C949.34 809.63 949.322 808.354 949.285 807.188ZM959.348 792.422C958.728 792.422 958.072 792.732 957.379 793.352C956.686 793.935 956.03 794.664 955.41 795.539C954.827 796.378 954.335 797.253 953.934 798.164C953.569 799.039 953.387 799.768 953.387 800.352C953.934 800.352 954.717 800.151 955.738 799.75C956.796 799.312 957.835 798.784 958.855 798.164C959.876 797.544 960.77 796.888 961.535 796.195C962.301 795.503 962.684 794.846 962.684 794.227C962.684 793.898 962.556 793.625 962.301 793.406C962.046 793.188 961.736 793.005 961.371 792.859C961.043 792.714 960.697 792.604 960.332 792.531C959.967 792.458 959.639 792.422 959.348 792.422ZM973.566 792.641V792.203C973.566 791.839 973.694 791.583 973.949 791.438C974.241 791.292 974.569 791.219 974.934 791.219C975.225 791.219 975.499 791.255 975.754 791.328C976.009 791.365 976.21 791.565 976.355 791.93C976.465 792.477 976.574 793.242 976.684 794.227C976.793 795.174 976.921 796.232 977.066 797.398C977.212 798.565 977.358 799.805 977.504 801.117C977.686 802.393 977.85 803.615 977.996 804.781C978.178 805.911 978.361 806.932 978.543 807.844C978.725 808.755 978.926 809.448 979.145 809.922C979.035 806.422 979.145 803.396 979.473 800.844C979.801 798.255 980.421 796.159 981.332 794.555C982.28 792.914 983.556 791.784 985.16 791.164C986.801 790.508 988.842 790.362 991.285 790.727C992.415 790.727 992.98 791.328 992.98 792.531C992.98 793.005 992.671 793.333 992.051 793.516C991.431 793.661 990.738 793.771 989.973 793.844C989.207 793.88 988.46 793.935 987.73 794.008C987.001 794.081 986.473 794.263 986.145 794.555C984.832 795.284 983.902 796.414 983.355 797.945C982.845 799.477 982.48 801.281 982.262 803.359C982.043 805.438 981.879 807.716 981.77 810.195C981.697 812.638 981.46 815.154 981.059 817.742C981.059 818.107 980.913 818.38 980.621 818.562C980.329 818.745 979.965 818.836 979.527 818.836C979.126 818.836 978.725 818.745 978.324 818.562C977.96 818.38 977.668 818.107 977.449 817.742L973.566 792.641ZM996.645 817.906C996.645 815.536 996.59 813.039 996.48 810.414C996.408 807.789 996.316 805.146 996.207 802.484C996.134 799.786 996.116 797.143 996.152 794.555C996.189 791.966 996.353 789.542 996.645 787.281C996.717 787.245 996.882 787.227 997.137 787.227C997.428 787.19 997.629 787.172 997.738 787.172C998.249 787.172 998.65 787.263 998.941 787.445C999.27 787.591 999.434 787.938 999.434 788.484C999.434 790.635 999.415 792.987 999.379 795.539C999.379 798.055 999.361 800.625 999.324 803.25C999.324 805.839 999.324 808.409 999.324 810.961C999.324 813.513 999.361 815.828 999.434 817.906C999.47 818.526 999.342 818.927 999.051 819.109C998.796 819.328 998.467 819.438 998.066 819.438C997.629 819.438 997.264 819.328 996.973 819.109C996.681 818.927 996.572 818.526 996.645 817.906ZM995.441 778.75C995.441 778.312 995.587 778.021 995.879 777.875C996.171 777.729 996.499 777.656 996.863 777.656C997.592 777.656 998.048 777.893 998.23 778.367C998.413 778.841 998.504 779.388 998.504 780.008C998.285 780.409 998.012 780.701 997.684 780.883C997.355 781.029 997.009 781.065 996.645 780.992C996.316 780.883 996.025 780.646 995.77 780.281C995.551 779.917 995.441 779.406 995.441 778.75ZM1004.79 807.188C1004.61 807.224 1004.34 807.279 1003.97 807.352C1003.61 807.424 1003.23 807.443 1002.82 807.406C1002.42 807.37 1002.08 807.26 1001.79 807.078C1001.46 806.896 1001.29 806.586 1001.29 806.148C1001.29 805.893 1001.35 805.711 1001.46 805.602C1001.57 805.492 1001.75 805.328 1002 805.109C1002.81 804.453 1003.48 803.615 1004.03 802.594C1004.61 801.536 1005.14 800.424 1005.61 799.258C1006.09 798.055 1006.58 796.87 1007.09 795.703C1007.64 794.5 1008.26 793.424 1008.95 792.477C1009.64 791.529 1010.5 790.763 1011.52 790.18C1012.54 789.596 1013.8 789.323 1015.29 789.359C1015.91 789.359 1016.61 789.505 1017.37 789.797C1018.14 790.089 1018.85 790.49 1019.5 791C1020.16 791.474 1020.71 792.057 1021.14 792.75C1021.58 793.443 1021.8 794.208 1021.8 795.047C1021.98 795.339 1021.8 795.758 1021.25 796.305C1020.74 796.852 1020.03 797.453 1019.12 798.109C1018.21 798.729 1017.17 799.385 1016 800.078C1014.87 800.734 1013.78 801.354 1012.72 801.938C1011.67 802.521 1010.74 803.031 1009.93 803.469C1009.13 803.906 1008.6 804.234 1008.35 804.453C1008.17 804.818 1008.02 805.237 1007.91 805.711C1007.8 806.185 1007.71 806.641 1007.64 807.078C1007.6 807.479 1007.56 807.862 1007.53 808.227C1007.53 808.555 1007.53 808.81 1007.53 808.992C1007.53 809.685 1007.49 810.451 1007.42 811.289C1007.38 812.128 1007.42 812.93 1007.53 813.695C1007.67 814.424 1007.98 815.044 1008.46 815.555C1008.93 816.029 1009.73 816.266 1010.86 816.266C1012.07 816.266 1013.2 815.974 1014.25 815.391C1015.31 814.771 1016.3 814.023 1017.21 813.148C1018.12 812.273 1018.94 811.326 1019.67 810.305C1020.43 809.284 1021.11 808.336 1021.69 807.461C1022.31 806.549 1022.86 805.802 1023.33 805.219C1023.81 804.635 1024.21 804.344 1024.54 804.344C1024.9 804.344 1025.28 804.417 1025.68 804.562C1026.12 804.672 1026.34 804.964 1026.34 805.438C1026.34 806.094 1026.07 806.878 1025.52 807.789C1025.01 808.701 1024.32 809.667 1023.44 810.688C1022.6 811.708 1021.62 812.729 1020.49 813.75C1019.39 814.734 1018.28 815.628 1017.15 816.43C1016.02 817.195 1014.91 817.833 1013.82 818.344C1012.72 818.818 1011.76 819.055 1010.92 819.055C1009.28 819.055 1008.04 818.654 1007.2 817.852C1006.36 817.049 1005.76 816.047 1005.39 814.844C1005.07 813.641 1004.88 812.365 1004.85 811.016C1004.85 809.63 1004.83 808.354 1004.79 807.188ZM1014.86 792.422C1014.24 792.422 1013.58 792.732 1012.89 793.352C1012.19 793.935 1011.54 794.664 1010.92 795.539C1010.33 796.378 1009.84 797.253 1009.44 798.164C1009.08 799.039 1008.89 799.768 1008.89 800.352C1009.44 800.352 1010.23 800.151 1011.25 799.75C1012.3 799.312 1013.34 798.784 1014.36 798.164C1015.38 797.544 1016.28 796.888 1017.04 796.195C1017.81 795.503 1018.19 794.846 1018.19 794.227C1018.19 793.898 1018.06 793.625 1017.81 793.406C1017.55 793.188 1017.24 793.005 1016.88 792.859C1016.55 792.714 1016.2 792.604 1015.84 792.531C1015.48 792.458 1015.15 792.422 1014.86 792.422ZM1033.39 818.18C1033.39 818.216 1033.78 817.997 1034.54 817.523C1035.35 817.049 1036.27 816.43 1037.33 815.664C1038.43 814.862 1039.54 814.005 1040.67 813.094C1041.8 812.146 1042.73 811.253 1043.46 810.414C1044.19 809.576 1044.57 808.865 1044.61 808.281C1044.68 807.661 1044.19 807.26 1043.13 807.078C1041.82 806.896 1040.7 806.914 1039.79 807.133C1038.92 807.352 1038.12 807.607 1037.39 807.898C1036.66 808.19 1035.96 808.464 1035.31 808.719C1034.69 808.974 1034 809.065 1033.23 808.992C1031.63 808.992 1030.51 808.5 1029.89 807.516C1029.31 806.495 1029.02 805.128 1029.02 803.414C1029.02 801.701 1029.4 800.078 1030.17 798.547C1030.93 796.979 1031.92 795.63 1033.12 794.5C1034.32 793.37 1035.71 792.477 1037.28 791.82C1038.85 791.128 1040.45 790.781 1042.09 790.781C1042.75 790.781 1043.31 790.836 1043.79 790.945C1044.26 791.055 1044.5 791.474 1044.5 792.203C1044.5 792.714 1044.28 793.206 1043.84 793.68C1043.4 794.117 1042.91 794.336 1042.36 794.336C1042.33 794.336 1042.24 794.318 1042.09 794.281C1041.94 794.208 1041.8 794.117 1041.65 794.008C1041.51 793.898 1041.36 793.826 1041.21 793.789C1041.07 793.716 1040.98 793.68 1040.94 793.68C1039.77 793.352 1038.64 793.516 1037.55 794.172C1036.46 794.828 1035.47 795.721 1034.6 796.852C1033.76 797.945 1033.08 799.148 1032.57 800.461C1032.06 801.737 1031.81 802.885 1031.81 803.906C1031.81 804.307 1031.88 804.635 1032.03 804.891C1032.21 805.109 1032.43 805.273 1032.68 805.383C1032.98 805.492 1033.29 805.565 1033.61 805.602C1033.98 805.602 1034.34 805.602 1034.71 805.602C1035.44 805.602 1036.17 805.492 1036.89 805.273C1037.66 805.055 1038.39 804.799 1039.08 804.508C1039.81 804.216 1040.54 803.961 1041.27 803.742C1042.04 803.523 1042.82 803.414 1043.62 803.414C1043.99 803.414 1044.39 803.523 1044.82 803.742C1045.26 803.924 1045.66 804.216 1046.03 804.617C1046.39 804.982 1046.7 805.419 1046.96 805.93C1047.21 806.404 1047.36 806.932 1047.39 807.516C1047.61 808.026 1047.54 808.701 1047.18 809.539C1046.85 810.378 1046.34 811.271 1045.64 812.219C1044.95 813.167 1044.11 814.133 1043.13 815.117C1042.14 816.065 1041.16 816.94 1040.18 817.742C1039.19 818.508 1038.23 819.128 1037.28 819.602C1036.33 820.112 1035.53 820.349 1034.87 820.312C1034.14 820.312 1033.7 820.094 1033.56 819.656C1033.45 819.219 1033.39 818.727 1033.39 818.18Z" fill="black"/>
<defs>
<linearGradient id="paint0_linear_20_9562" x1="2837.75" y1="2863.62" x2="4516.25" y2="2197.32" gradientUnits="userSpaceOnUse">
<stop stop-color="#623393"/>
<stop offset="0.574" stop-color="#452B7C"/>
<stop offset="1" stop-color="#2C256C"/>
</linearGradient>
<linearGradient id="paint1_linear_20_9562" x1="8005.6" y1="7818.56" x2="9614.41" y2="2686.72" gradientUnits="userSpaceOnUse">
<stop stop-color="#623393"/>
<stop offset="0.574" stop-color="#452B7C"/>
<stop offset="1" stop-color="#2C256C"/>
</linearGradient>
<linearGradient id="paint2_linear_20_9562" x1="63291.2" y1="65929.9" x2="83590.3" y2="15126.4" gradientUnits="userSpaceOnUse">
<stop stop-color="#754FA0"/>
<stop offset="0.181" stop-color="#6E4A99"/>
<stop offset="0.457" stop-color="#5C3F8B"/>
<stop offset="0.791" stop-color="#413079"/>
<stop offset="1" stop-color="#2C256C"/>
</linearGradient>
<linearGradient id="paint3_linear_20_9562" x1="78773.5" y1="87001.2" x2="98066.5" y2="36436.4" gradientUnits="userSpaceOnUse">
<stop stop-color="#754FA0"/>
<stop offset="0.181" stop-color="#6E4A99"/>
<stop offset="0.457" stop-color="#5C3F8B"/>
<stop offset="0.791" stop-color="#413079"/>
<stop offset="1" stop-color="#2C256C"/>
</linearGradient>
<linearGradient id="paint4_linear_20_9562" x1="35380.4" y1="40856.4" x2="61356.9" y2="28564.7" gradientUnits="userSpaceOnUse">
<stop stop-color="#623393"/>
<stop offset="0.574" stop-color="#452B7C"/>
<stop offset="1" stop-color="#2C256C"/>
</linearGradient>
<linearGradient id="paint5_linear_20_9562" x1="34595.5" y1="45567.5" x2="65792.4" y2="30805.8" gradientUnits="userSpaceOnUse">
<stop stop-color="#754FA0"/>
<stop offset="0.181" stop-color="#6E4A99"/>
<stop offset="0.457" stop-color="#5C3F8B"/>
<stop offset="0.791" stop-color="#413079"/>
<stop offset="1" stop-color="#2C256C"/>
</linearGradient>
<linearGradient id="paint6_linear_20_9562" x1="3095.76" y1="2862.98" x2="3556.28" y2="1229.73" gradientUnits="userSpaceOnUse">
<stop stop-color="#623393"/>
<stop offset="0.574" stop-color="#452B7C"/>
<stop offset="1" stop-color="#2C256C"/>
</linearGradient>
<linearGradient id="paint7_linear_20_9562" x1="8402.51" y1="8645.13" x2="10056.8" y2="2745.95" gradientUnits="userSpaceOnUse">
<stop stop-color="#623393"/>
<stop offset="0.574" stop-color="#452B7C"/>
<stop offset="1" stop-color="#2C256C"/>
</linearGradient>
<linearGradient id="paint8_linear_20_9562" x1="4867.25" y1="4100.86" x2="5330.47" y2="1106.86" gradientUnits="userSpaceOnUse">
<stop stop-color="#623393"/>
<stop offset="0.574" stop-color="#452B7C"/>
<stop offset="1" stop-color="#2C256C"/>
</linearGradient>
</defs>
</svg>
