<svg width="1200" height="900" viewBox="0 0 1200 900" fill="none" xmlns="http://www.w3.org/2000/svg">
<rect width="1200" height="900" fill="white"/>
<path d="M73.0597 371.273H90.2827L106.866 402.594H107.577L124.161 371.273H141.384L114.857 418.29V444H99.5866V418.29L73.0597 371.273ZM160.085 445.065C154.569 445.065 149.799 443.893 145.774 441.55C141.773 439.182 138.684 435.892 136.506 431.678C134.328 427.44 133.239 422.527 133.239 416.94C133.239 411.306 134.328 406.382 136.506 402.168C138.684 397.93 141.773 394.639 145.774 392.295C149.799 389.928 154.569 388.744 160.085 388.744C165.601 388.744 170.36 389.928 174.361 392.295C178.386 394.639 181.487 397.93 183.665 402.168C185.843 406.382 186.932 411.306 186.932 416.94C186.932 422.527 185.843 427.44 183.665 431.678C181.487 435.892 178.386 439.182 174.361 441.55C170.36 443.893 165.601 445.065 160.085 445.065ZM160.156 433.347C162.666 433.347 164.761 432.636 166.442 431.216C168.123 429.772 169.389 427.807 170.242 425.321C171.118 422.835 171.556 420.006 171.556 416.834C171.556 413.661 171.118 410.832 170.242 408.347C169.389 405.861 168.123 403.896 166.442 402.452C164.761 401.008 162.666 400.286 160.156 400.286C157.623 400.286 155.493 401.008 153.764 402.452C152.06 403.896 150.77 405.861 149.894 408.347C149.041 410.832 148.615 413.661 148.615 416.834C148.615 420.006 149.041 422.835 149.894 425.321C150.77 427.807 152.06 429.772 153.764 431.216C155.493 432.636 157.623 433.347 160.156 433.347ZM229.116 420.776V389.455H244.244V444H229.719V434.092H229.151C227.92 437.288 225.872 439.857 223.008 441.798C220.167 443.74 216.699 444.71 212.603 444.71C208.957 444.71 205.749 443.882 202.979 442.224C200.209 440.567 198.043 438.212 196.481 435.158C194.942 432.104 194.161 428.446 194.137 424.185V389.455H209.265V421.486C209.289 424.705 210.153 427.25 211.857 429.121C213.562 430.991 215.846 431.926 218.711 431.926C220.534 431.926 222.238 431.512 223.825 430.683C225.411 429.831 226.689 428.576 227.66 426.919C228.654 425.262 229.139 423.214 229.116 420.776ZM253.713 444V389.455H268.379V398.972H268.947C269.941 395.586 271.61 393.029 273.954 391.301C276.298 389.549 278.997 388.673 282.051 388.673C282.808 388.673 283.625 388.721 284.501 388.815C285.377 388.91 286.146 389.04 286.809 389.206V402.629C286.099 402.416 285.116 402.227 283.862 402.061C282.607 401.895 281.459 401.812 280.417 401.812C278.192 401.812 276.203 402.298 274.451 403.268C272.723 404.215 271.35 405.541 270.332 407.246C269.338 408.95 268.84 410.915 268.84 413.141V444H253.713ZM337.157 445.065C331.641 445.065 326.87 443.893 322.846 441.55C318.845 439.182 315.755 435.892 313.577 431.678C311.399 427.44 310.31 422.527 310.31 416.94C310.31 411.306 311.399 406.382 313.577 402.168C315.755 397.93 318.845 394.639 322.846 392.295C326.87 389.928 331.641 388.744 337.157 388.744C342.673 388.744 347.431 389.928 351.432 392.295C355.457 394.639 358.558 397.93 360.736 402.168C362.914 406.382 364.003 411.306 364.003 416.94C364.003 422.527 362.914 427.44 360.736 431.678C358.558 435.892 355.457 439.182 351.432 441.55C347.431 443.893 342.673 445.065 337.157 445.065ZM337.228 433.347C339.737 433.347 341.832 432.636 343.513 431.216C345.194 429.772 346.461 427.807 347.313 425.321C348.189 422.835 348.627 420.006 348.627 416.834C348.627 413.661 348.189 410.832 347.313 408.347C346.461 405.861 345.194 403.896 343.513 402.452C341.832 401.008 339.737 400.286 337.228 400.286C334.695 400.286 332.564 401.008 330.836 402.452C329.131 403.896 327.841 405.861 326.965 408.347C326.113 410.832 325.687 413.661 325.687 416.834C325.687 420.006 326.113 422.835 326.965 425.321C327.841 427.807 329.131 429.772 330.836 431.216C332.564 432.636 334.695 433.347 337.228 433.347ZM371.208 464.455V389.455H386.123V398.616H386.798C387.461 397.149 388.42 395.657 389.674 394.142C390.953 392.603 392.61 391.325 394.646 390.307C396.706 389.265 399.262 388.744 402.316 388.744C406.294 388.744 409.963 389.786 413.325 391.869C416.687 393.929 419.374 397.042 421.386 401.209C423.398 405.352 424.404 410.548 424.404 416.798C424.404 422.883 423.422 428.02 421.457 432.21C419.516 436.377 416.864 439.537 413.502 441.692C410.164 443.822 406.424 444.888 402.281 444.888C399.345 444.888 396.848 444.402 394.788 443.432C392.752 442.461 391.083 441.242 389.781 439.774C388.479 438.283 387.484 436.779 386.798 435.264H386.336V464.455H371.208ZM386.017 416.727C386.017 419.971 386.466 422.8 387.366 425.214C388.266 427.629 389.568 429.511 391.272 430.861C392.977 432.187 395.048 432.849 397.487 432.849C399.949 432.849 402.032 432.175 403.737 430.825C405.441 429.452 406.732 427.558 407.608 425.143C408.507 422.705 408.957 419.9 408.957 416.727C408.957 413.579 408.519 410.809 407.643 408.418C406.767 406.027 405.477 404.156 403.772 402.807C402.068 401.457 399.973 400.783 397.487 400.783C395.025 400.783 392.941 401.434 391.237 402.736C389.556 404.038 388.266 405.884 387.366 408.276C386.466 410.667 386.017 413.484 386.017 416.727ZM460.871 389.455V400.818H428.023V389.455H460.871ZM435.48 376.386H450.608V427.239C450.608 428.635 450.821 429.724 451.247 430.506C451.673 431.263 452.265 431.796 453.023 432.104C453.804 432.411 454.704 432.565 455.722 432.565C456.432 432.565 457.142 432.506 457.852 432.388C458.563 432.246 459.107 432.139 459.486 432.068L461.865 443.325C461.108 443.562 460.042 443.834 458.669 444.142C457.296 444.473 455.627 444.675 453.662 444.746C450.016 444.888 446.82 444.402 444.074 443.29C441.351 442.177 439.233 440.449 437.717 438.105C436.202 435.761 435.457 432.802 435.48 429.227V376.386ZM468.094 444V389.455H483.222V444H468.094ZM475.693 382.423C473.444 382.423 471.515 381.678 469.905 380.186C468.319 378.671 467.525 376.86 467.525 374.753C467.525 372.67 468.319 370.882 469.905 369.391C471.515 367.875 473.444 367.118 475.693 367.118C477.942 367.118 479.86 367.875 481.446 369.391C483.056 370.882 483.861 372.67 483.861 374.753C483.861 376.86 483.056 378.671 481.446 380.186C479.86 381.678 477.942 382.423 475.693 382.423ZM517.353 445.065C511.837 445.065 507.067 443.893 503.042 441.55C499.041 439.182 495.952 435.892 493.774 431.678C491.596 427.44 490.506 422.527 490.506 416.94C490.506 411.306 491.596 406.382 493.774 402.168C495.952 397.93 499.041 394.639 503.042 392.295C507.067 389.928 511.837 388.744 517.353 388.744C522.869 388.744 527.628 389.928 531.629 392.295C535.653 394.639 538.755 397.93 540.933 402.168C543.111 406.382 544.2 411.306 544.2 416.94C544.2 422.527 543.111 427.44 540.933 431.678C538.755 435.892 535.653 439.182 531.629 441.55C527.628 443.893 522.869 445.065 517.353 445.065ZM517.424 433.347C519.934 433.347 522.029 432.636 523.71 431.216C525.39 429.772 526.657 427.807 527.509 425.321C528.385 422.835 528.823 420.006 528.823 416.834C528.823 413.661 528.385 410.832 527.509 408.347C526.657 405.861 525.39 403.896 523.71 402.452C522.029 401.008 519.934 400.286 517.424 400.286C514.891 400.286 512.76 401.008 511.032 402.452C509.328 403.896 508.037 405.861 507.161 408.347C506.309 410.832 505.883 413.661 505.883 416.834C505.883 420.006 506.309 422.835 507.161 425.321C508.037 427.807 509.328 429.772 511.032 431.216C512.76 432.636 514.891 433.347 517.424 433.347ZM566.533 412.466V444H551.405V389.455H565.822V399.078H566.462C567.669 395.906 569.693 393.396 572.534 391.55C575.375 389.679 578.82 388.744 582.868 388.744C586.656 388.744 589.958 389.573 592.775 391.23C595.593 392.887 597.783 395.255 599.345 398.332C600.908 401.386 601.689 405.032 601.689 409.27V444H586.561V411.969C586.585 408.631 585.732 406.027 584.004 404.156C582.276 402.262 579.897 401.315 576.866 401.315C574.83 401.315 573.031 401.753 571.469 402.629C569.93 403.505 568.722 404.784 567.846 406.464C566.994 408.122 566.556 410.122 566.533 412.466ZM656.364 405.009L642.514 405.861C642.278 404.677 641.769 403.612 640.987 402.665C640.206 401.694 639.176 400.925 637.898 400.357C636.643 399.765 635.14 399.469 633.388 399.469C631.044 399.469 629.067 399.966 627.457 400.96C625.848 401.931 625.043 403.233 625.043 404.866C625.043 406.169 625.564 407.269 626.605 408.169C627.647 409.069 629.434 409.791 631.967 410.335L641.84 412.324C647.143 413.413 651.096 415.165 653.7 417.58C656.305 419.994 657.607 423.167 657.607 427.097C657.607 430.671 656.553 433.808 654.446 436.507C652.363 439.206 649.498 441.313 645.852 442.828C642.23 444.32 638.052 445.065 633.317 445.065C626.096 445.065 620.343 443.562 616.058 440.555C611.797 437.525 609.299 433.406 608.565 428.197L623.445 427.416C623.894 429.618 624.983 431.299 626.712 432.459C628.44 433.595 630.653 434.163 633.352 434.163C636.004 434.163 638.135 433.654 639.744 432.636C641.378 431.595 642.206 430.257 642.23 428.624C642.206 427.25 641.626 426.126 640.49 425.25C639.354 424.35 637.602 423.664 635.234 423.19L625.788 421.308C620.462 420.243 616.496 418.396 613.892 415.768C611.312 413.141 610.021 409.791 610.021 405.719C610.021 402.215 610.968 399.196 612.862 396.663C614.78 394.13 617.467 392.177 620.923 390.804C624.403 389.431 628.475 388.744 633.139 388.744C640.028 388.744 645.45 390.2 649.403 393.112C653.381 396.024 655.701 399.99 656.364 405.009Z" fill="black"/>
<rect x="71" y="498" width="1038" height="19" fill="black"/>
<path d="M93.7045 626H76.7528V573.636H94.2415C99.3722 573.636 103.778 574.685 107.46 576.781C111.142 578.861 113.963 581.852 115.923 585.756C117.901 589.642 118.889 594.304 118.889 599.741C118.889 605.196 117.892 609.884 115.898 613.804C113.92 617.724 111.057 620.741 107.307 622.855C103.557 624.952 99.0227 626 93.7045 626ZM84.6534 619.097H93.2699C97.2585 619.097 100.574 618.347 103.216 616.847C105.858 615.33 107.835 613.139 109.148 610.276C110.46 607.395 111.116 603.884 111.116 599.741C111.116 595.634 110.46 592.148 109.148 589.284C107.852 586.42 105.918 584.247 103.344 582.764C100.77 581.281 97.5739 580.54 93.7557 580.54H84.6534V619.097ZM169.083 573.636V626H161.822L135.205 587.597H134.72V626H126.819V573.636H134.132L160.774 612.091H161.259V573.636H169.083ZM207.273 587.392C207 584.972 205.875 583.097 203.898 581.767C201.921 580.42 199.432 579.747 196.432 579.747C194.284 579.747 192.426 580.088 190.858 580.77C189.29 581.435 188.071 582.355 187.202 583.531C186.35 584.69 185.924 586.011 185.924 587.494C185.924 588.739 186.213 589.812 186.793 590.716C187.39 591.619 188.165 592.378 189.12 592.991C190.091 593.588 191.131 594.091 192.239 594.5C193.347 594.892 194.412 595.216 195.435 595.472L200.549 596.801C202.219 597.21 203.932 597.764 205.688 598.463C207.443 599.162 209.071 600.082 210.571 601.224C212.071 602.366 213.282 603.781 214.202 605.469C215.14 607.156 215.608 609.176 215.608 611.528C215.608 614.494 214.841 617.128 213.307 619.429C211.79 621.73 209.583 623.545 206.685 624.875C203.804 626.205 200.318 626.869 196.228 626.869C192.307 626.869 188.915 626.247 186.051 625.003C183.188 623.759 180.946 621.994 179.327 619.71C177.708 617.409 176.813 614.682 176.642 611.528H184.568C184.722 613.42 185.336 614.997 186.409 616.259C187.5 617.503 188.89 618.432 190.577 619.045C192.282 619.642 194.148 619.94 196.176 619.94C198.409 619.94 200.395 619.591 202.134 618.892C203.89 618.176 205.27 617.187 206.276 615.926C207.282 614.648 207.784 613.156 207.784 611.452C207.784 609.901 207.341 608.631 206.455 607.642C205.586 606.653 204.401 605.835 202.901 605.188C201.418 604.54 199.739 603.969 197.864 603.474L191.676 601.787C187.483 600.645 184.159 598.966 181.705 596.75C179.267 594.534 178.049 591.602 178.049 587.955C178.049 584.937 178.867 582.304 180.503 580.054C182.14 577.804 184.355 576.057 187.151 574.812C189.946 573.551 193.1 572.92 196.611 572.92C200.157 572.92 203.284 573.543 205.995 574.787C208.722 576.031 210.87 577.744 212.438 579.926C214.006 582.091 214.824 584.58 214.892 587.392H207.273ZM269.13 596.315L262.201 597.543C261.911 596.656 261.451 595.812 260.82 595.011C260.207 594.21 259.371 593.554 258.315 593.043C257.258 592.531 255.937 592.276 254.351 592.276C252.187 592.276 250.38 592.761 248.931 593.733C247.482 594.687 246.758 595.923 246.758 597.44C246.758 598.753 247.243 599.81 248.215 600.611C249.187 601.412 250.755 602.068 252.92 602.58L259.158 604.011C262.772 604.847 265.465 606.134 267.238 607.872C269.011 609.611 269.897 611.869 269.897 614.648C269.897 617 269.215 619.097 267.851 620.938C266.505 622.761 264.621 624.193 262.201 625.233C259.797 626.273 257.011 626.793 253.84 626.793C249.442 626.793 245.854 625.855 243.076 623.98C240.297 622.088 238.593 619.403 237.962 615.926L245.351 614.801C245.812 616.727 246.758 618.185 248.19 619.173C249.621 620.145 251.488 620.631 253.789 620.631C256.295 620.631 258.297 620.111 259.797 619.071C261.297 618.014 262.047 616.727 262.047 615.21C262.047 613.983 261.587 612.952 260.667 612.116C259.763 611.281 258.374 610.651 256.499 610.224L249.851 608.767C246.187 607.932 243.476 606.602 241.721 604.778C239.982 602.955 239.113 600.645 239.113 597.849C239.113 595.531 239.761 593.503 241.056 591.764C242.351 590.026 244.141 588.67 246.425 587.699C248.709 586.71 251.326 586.216 254.275 586.216C258.519 586.216 261.86 587.136 264.297 588.977C266.735 590.801 268.346 593.247 269.13 596.315ZM292.95 626.793C289.149 626.793 285.876 625.932 283.132 624.21C280.405 622.472 278.308 620.077 276.842 617.026C275.376 613.974 274.644 610.48 274.644 606.543C274.644 602.554 275.394 599.034 276.894 595.983C278.394 592.915 280.507 590.52 283.234 588.798C285.962 587.077 289.175 586.216 292.874 586.216C295.857 586.216 298.516 586.77 300.851 587.878C303.186 588.969 305.07 590.503 306.501 592.48C307.95 594.457 308.811 596.767 309.084 599.409H301.644C301.234 597.568 300.297 595.983 298.831 594.653C297.382 593.324 295.439 592.659 293.001 592.659C290.871 592.659 289.004 593.222 287.402 594.347C285.817 595.455 284.581 597.04 283.695 599.102C282.808 601.148 282.365 603.568 282.365 606.364C282.365 609.227 282.8 611.699 283.669 613.778C284.538 615.858 285.766 617.469 287.351 618.611C288.953 619.753 290.837 620.324 293.001 620.324C294.45 620.324 295.763 620.06 296.939 619.531C298.132 618.986 299.129 618.21 299.93 617.205C300.749 616.199 301.32 614.989 301.644 613.574H309.084C308.811 616.114 307.984 618.381 306.604 620.375C305.223 622.369 303.374 623.937 301.055 625.08C298.754 626.222 296.053 626.793 292.95 626.793ZM326.794 626.869C324.305 626.869 322.055 626.409 320.044 625.489C318.032 624.551 316.438 623.196 315.262 621.423C314.103 619.651 313.524 617.477 313.524 614.903C313.524 612.687 313.95 610.864 314.802 609.432C315.654 608 316.805 606.866 318.254 606.031C319.703 605.196 321.322 604.565 323.112 604.139C324.901 603.713 326.725 603.389 328.583 603.168C330.936 602.895 332.845 602.673 334.311 602.503C335.776 602.315 336.842 602.017 337.507 601.608C338.171 601.199 338.504 600.534 338.504 599.614V599.435C338.504 597.202 337.873 595.472 336.612 594.244C335.367 593.017 333.509 592.403 331.038 592.403C328.464 592.403 326.436 592.974 324.953 594.116C323.487 595.241 322.472 596.494 321.91 597.875L314.725 596.239C315.578 593.852 316.822 591.926 318.458 590.46C320.112 588.977 322.012 587.903 324.16 587.239C326.308 586.557 328.566 586.216 330.936 586.216C332.504 586.216 334.166 586.403 335.921 586.778C337.694 587.136 339.347 587.801 340.882 588.773C342.433 589.744 343.703 591.134 344.691 592.94C345.68 594.73 346.174 597.057 346.174 599.92V626H338.708V620.631H338.401C337.907 621.619 337.166 622.591 336.177 623.545C335.188 624.5 333.919 625.293 332.367 625.923C330.816 626.554 328.958 626.869 326.794 626.869ZM328.455 620.733C330.569 620.733 332.376 620.315 333.876 619.48C335.393 618.645 336.544 617.554 337.328 616.207C338.129 614.844 338.529 613.386 338.529 611.835V606.773C338.257 607.045 337.728 607.301 336.944 607.54C336.177 607.761 335.299 607.957 334.311 608.128C333.322 608.281 332.359 608.426 331.421 608.562C330.484 608.682 329.7 608.784 329.069 608.869C327.586 609.057 326.231 609.372 325.004 609.815C323.794 610.259 322.822 610.898 322.089 611.733C321.373 612.551 321.015 613.642 321.015 615.006C321.015 616.898 321.714 618.33 323.112 619.301C324.509 620.256 326.291 620.733 328.455 620.733ZM362.107 573.636V626H354.462V573.636H362.107ZM370.497 626V586.727H378.142V626H370.497ZM374.358 580.668C373.028 580.668 371.886 580.224 370.932 579.338C369.994 578.435 369.525 577.361 369.525 576.116C369.525 574.855 369.994 573.781 370.932 572.895C371.886 571.991 373.028 571.54 374.358 571.54C375.687 571.54 376.821 571.991 377.758 572.895C378.713 573.781 379.19 574.855 379.19 576.116C379.19 577.361 378.713 578.435 377.758 579.338C376.821 580.224 375.687 580.668 374.358 580.668ZM394.177 602.682V626H386.532V586.727H393.87V593.119H394.356C395.259 591.04 396.674 589.369 398.6 588.108C400.543 586.847 402.989 586.216 405.938 586.216C408.614 586.216 410.958 586.778 412.969 587.903C414.981 589.011 416.54 590.665 417.648 592.864C418.756 595.062 419.31 597.781 419.31 601.02V626H411.665V601.94C411.665 599.094 410.924 596.869 409.441 595.267C407.958 593.648 405.921 592.838 403.33 592.838C401.557 592.838 399.981 593.222 398.6 593.989C397.236 594.756 396.154 595.881 395.353 597.364C394.569 598.83 394.177 600.602 394.177 602.682ZM444.134 641.545C441.015 641.545 438.33 641.136 436.08 640.318C433.847 639.5 432.024 638.418 430.609 637.071C429.194 635.724 428.137 634.25 427.438 632.648L434.009 629.938C434.47 630.688 435.083 631.48 435.85 632.315C436.634 633.168 437.691 633.892 439.021 634.489C440.367 635.085 442.097 635.384 444.211 635.384C447.109 635.384 449.504 634.676 451.396 633.261C453.288 631.864 454.234 629.631 454.234 626.562V618.841H453.748C453.288 619.676 452.623 620.605 451.754 621.628C450.901 622.651 449.725 623.537 448.225 624.287C446.725 625.037 444.774 625.412 442.37 625.412C439.268 625.412 436.472 624.687 433.984 623.239C431.512 621.773 429.552 619.616 428.103 616.77C426.671 613.906 425.955 610.386 425.955 606.21C425.955 602.034 426.663 598.455 428.078 595.472C429.509 592.489 431.47 590.205 433.958 588.619C436.447 587.017 439.268 586.216 442.421 586.216C444.859 586.216 446.828 586.625 448.328 587.443C449.828 588.244 450.995 589.182 451.83 590.256C452.683 591.33 453.339 592.276 453.799 593.094H454.362V586.727H461.853V626.869C461.853 630.244 461.069 633.014 459.501 635.179C457.933 637.344 455.81 638.946 453.134 639.986C450.475 641.026 447.475 641.545 444.134 641.545ZM444.058 619.071C446.256 619.071 448.114 618.56 449.631 617.537C451.166 616.497 452.325 615.014 453.109 613.088C453.91 611.145 454.31 608.818 454.31 606.108C454.31 603.466 453.918 601.139 453.134 599.128C452.35 597.116 451.2 595.548 449.683 594.423C448.166 593.281 446.291 592.71 444.058 592.71C441.756 592.71 439.839 593.307 438.305 594.5C436.771 595.676 435.612 597.278 434.828 599.307C434.06 601.335 433.677 603.602 433.677 606.108C433.677 608.682 434.069 610.94 434.853 612.884C435.637 614.827 436.796 616.344 438.33 617.435C439.881 618.526 441.791 619.071 444.058 619.071Z" fill="black"/>
</svg>
