<svg width="1200" height="900" viewBox="0 0 1200 900" fill="none" xmlns="http://www.w3.org/2000/svg">
<rect width="1200" height="900" fill="white"/>
<path d="M116.774 392.189C116.49 389.324 115.271 387.099 113.116 385.513C110.962 383.927 108.038 383.134 104.345 383.134C101.836 383.134 99.7169 383.489 97.9886 384.199C96.2604 384.885 94.9347 385.844 94.0114 387.075C93.1117 388.306 92.6619 389.703 92.6619 391.266C92.6146 392.568 92.8868 393.704 93.4787 394.675C94.0942 395.645 94.9347 396.486 96 397.196C97.0653 397.883 98.2964 398.486 99.6932 399.007C101.09 399.504 102.581 399.93 104.168 400.286L110.702 401.848C113.874 402.558 116.786 403.505 119.438 404.689C122.089 405.873 124.385 407.329 126.327 409.057C128.268 410.785 129.771 412.821 130.837 415.165C131.926 417.509 132.482 420.196 132.506 423.226C132.482 427.677 131.346 431.536 129.097 434.803C126.871 438.046 123.652 440.567 119.438 442.366C115.247 444.142 110.193 445.03 104.274 445.03C98.4029 445.03 93.2893 444.13 88.9332 442.331C84.6009 440.532 81.2154 437.868 78.777 434.341C76.3622 430.79 75.0956 426.398 74.9773 421.166H89.8565C90.0223 423.605 90.7206 425.641 91.9517 427.274C93.2064 428.884 94.8755 430.103 96.9588 430.932C99.0658 431.737 101.445 432.139 104.097 432.139C106.701 432.139 108.962 431.76 110.879 431.003C112.821 430.245 114.324 429.192 115.389 427.842C116.455 426.493 116.987 424.942 116.987 423.19C116.987 421.557 116.502 420.184 115.531 419.071C114.584 417.958 113.188 417.011 111.341 416.23C109.518 415.449 107.281 414.739 104.629 414.099L96.7102 412.111C90.5786 410.619 85.7372 408.287 82.1861 405.115C78.6349 401.943 76.8712 397.67 76.8949 392.295C76.8712 387.892 78.0431 384.045 80.4105 380.754C82.8016 377.464 86.0805 374.895 90.2472 373.048C94.4138 371.202 99.1487 370.278 104.452 370.278C109.849 370.278 114.561 371.202 118.585 373.048C122.634 374.895 125.782 377.464 128.031 380.754C130.28 384.045 131.44 387.857 131.511 392.189H116.774ZM155.487 445.03C152.007 445.03 148.905 444.426 146.183 443.219C143.46 441.988 141.306 440.177 139.72 437.786C138.157 435.371 137.376 432.364 137.376 428.766C137.376 425.735 137.932 423.19 139.045 421.131C140.158 419.071 141.673 417.414 143.59 416.159C145.508 414.904 147.686 413.957 150.124 413.318C152.587 412.679 155.167 412.229 157.866 411.969C161.038 411.637 163.595 411.33 165.536 411.045C167.478 410.738 168.886 410.288 169.762 409.696C170.638 409.104 171.076 408.228 171.076 407.068V406.855C171.076 404.606 170.366 402.866 168.945 401.635C167.549 400.404 165.56 399.788 162.98 399.788C160.257 399.788 158.091 400.392 156.481 401.599C154.871 402.783 153.806 404.275 153.285 406.074L139.293 404.938C140.004 401.623 141.4 398.759 143.484 396.344C145.567 393.905 148.254 392.035 151.545 390.733C154.859 389.407 158.695 388.744 163.051 388.744C166.081 388.744 168.981 389.099 171.751 389.81C174.544 390.52 177.018 391.621 179.173 393.112C181.351 394.604 183.067 396.521 184.322 398.865C185.577 401.185 186.204 403.967 186.204 407.21V444H171.857V436.436H171.431C170.555 438.141 169.383 439.644 167.916 440.946C166.448 442.224 164.684 443.231 162.624 443.964C160.565 444.675 158.186 445.03 155.487 445.03ZM159.819 434.589C162.044 434.589 164.009 434.152 165.714 433.276C167.418 432.376 168.756 431.169 169.727 429.653C170.697 428.138 171.183 426.422 171.183 424.504V418.716C170.709 419.024 170.058 419.308 169.23 419.568C168.425 419.805 167.513 420.03 166.495 420.243C165.477 420.432 164.459 420.61 163.441 420.776C162.423 420.918 161.5 421.048 160.671 421.166C158.896 421.427 157.345 421.841 156.019 422.409C154.694 422.977 153.664 423.747 152.93 424.717C152.196 425.664 151.829 426.848 151.829 428.268C151.829 430.328 152.575 431.902 154.066 432.991C155.581 434.057 157.499 434.589 159.819 434.589ZM210.437 412.466V444H195.309V389.455H209.727V399.078H210.366C211.573 395.906 213.597 393.396 216.438 391.55C219.279 389.679 222.724 388.744 226.772 388.744C230.56 388.744 233.862 389.573 236.68 391.23C239.497 392.887 241.687 395.255 243.249 398.332C244.812 401.386 245.593 405.032 245.593 409.27V444H230.465V411.969C230.489 408.631 229.637 406.027 227.908 404.156C226.18 402.262 223.801 401.315 220.771 401.315C218.735 401.315 216.935 401.753 215.373 402.629C213.834 403.505 212.627 404.784 211.751 406.464C210.898 408.122 210.46 410.122 210.437 412.466ZM274.984 444.888C270.841 444.888 267.088 443.822 263.727 441.692C260.389 439.537 257.737 436.377 255.772 432.21C253.831 428.02 252.86 422.883 252.86 416.798C252.86 410.548 253.866 405.352 255.879 401.209C257.891 397.042 260.566 393.929 263.904 391.869C267.266 389.786 270.947 388.744 274.948 388.744C278.002 388.744 280.547 389.265 282.583 390.307C284.643 391.325 286.3 392.603 287.555 394.142C288.833 395.657 289.804 397.149 290.467 398.616H290.928V371.273H306.021V444H291.106V435.264H290.467C289.757 436.779 288.75 438.283 287.448 439.774C286.17 441.242 284.501 442.461 282.441 443.432C280.405 444.402 277.919 444.888 274.984 444.888ZM279.778 432.849C282.216 432.849 284.276 432.187 285.957 430.861C287.661 429.511 288.963 427.629 289.863 425.214C290.786 422.8 291.248 419.971 291.248 416.727C291.248 413.484 290.798 410.667 289.899 408.276C288.999 405.884 287.697 404.038 285.992 402.736C284.288 401.434 282.216 400.783 279.778 400.783C277.292 400.783 275.197 401.457 273.492 402.807C271.788 404.156 270.498 406.027 269.622 408.418C268.746 410.809 268.308 413.579 268.308 416.727C268.308 419.9 268.746 422.705 269.622 425.143C270.521 427.558 271.811 429.452 273.492 430.825C275.197 432.175 277.292 432.849 279.778 432.849ZM316.111 444V371.273H331.239V398.616H331.701C332.363 397.149 333.322 395.657 334.577 394.142C335.855 392.603 337.513 391.325 339.549 390.307C341.608 389.265 344.165 388.744 347.219 388.744C351.196 388.744 354.866 389.786 358.228 391.869C361.589 393.929 364.276 397.042 366.289 401.209C368.301 405.352 369.307 410.548 369.307 416.798C369.307 422.883 368.325 428.02 366.36 432.21C364.418 436.377 361.767 439.537 358.405 441.692C355.067 443.822 351.327 444.888 347.184 444.888C344.248 444.888 341.75 444.402 339.691 443.432C337.655 442.461 335.986 441.242 334.684 439.774C333.381 438.283 332.387 436.779 331.701 435.264H331.026V444H316.111ZM330.919 416.727C330.919 419.971 331.369 422.8 332.269 425.214C333.168 427.629 334.47 429.511 336.175 430.861C337.88 432.187 339.951 432.849 342.39 432.849C344.852 432.849 346.935 432.175 348.64 430.825C350.344 429.452 351.634 427.558 352.51 425.143C353.41 422.705 353.86 419.9 353.86 416.727C353.86 413.579 353.422 410.809 352.546 408.418C351.67 406.027 350.38 404.156 348.675 402.807C346.97 401.457 344.875 400.783 342.39 400.783C339.927 400.783 337.844 401.434 336.14 402.736C334.459 404.038 333.168 405.884 332.269 408.276C331.369 410.667 330.919 413.484 330.919 416.727ZM401.415 445.065C395.898 445.065 391.128 443.893 387.103 441.55C383.103 439.182 380.013 435.892 377.835 431.678C375.657 427.44 374.568 422.527 374.568 416.94C374.568 411.306 375.657 406.382 377.835 402.168C380.013 397.93 383.103 394.639 387.103 392.295C391.128 389.928 395.898 388.744 401.415 388.744C406.931 388.744 411.689 389.928 415.69 392.295C419.715 394.639 422.816 397.93 424.994 402.168C427.172 406.382 428.261 411.306 428.261 416.94C428.261 422.527 427.172 427.44 424.994 431.678C422.816 435.892 419.715 439.182 415.69 441.55C411.689 443.893 406.931 445.065 401.415 445.065ZM401.486 433.347C403.995 433.347 406.09 432.636 407.771 431.216C409.452 429.772 410.719 427.807 411.571 425.321C412.447 422.835 412.885 420.006 412.885 416.834C412.885 413.661 412.447 410.832 411.571 408.347C410.719 405.861 409.452 403.896 407.771 402.452C406.09 401.008 403.995 400.286 401.486 400.286C398.952 400.286 396.822 401.008 395.094 402.452C393.389 403.896 392.099 405.861 391.223 408.347C390.371 410.832 389.944 413.661 389.944 416.834C389.944 420.006 390.371 422.835 391.223 425.321C392.099 427.807 393.389 429.772 395.094 431.216C396.822 432.636 398.952 433.347 401.486 433.347ZM446.155 389.455L456.169 408.524L466.432 389.455H481.951L466.148 416.727L482.377 444H466.929L456.169 425.143L445.587 444H429.962L446.155 416.727L430.53 389.455H446.155ZM508.816 444V389.455H523.483V398.972H524.051C525.045 395.586 526.714 393.029 529.058 391.301C531.402 389.549 534.1 388.673 537.154 388.673C537.912 388.673 538.729 388.721 539.605 388.815C540.481 388.91 541.25 389.04 541.913 389.206V402.629C541.203 402.416 540.22 402.227 538.965 402.061C537.711 401.895 536.563 401.812 535.521 401.812C533.295 401.812 531.307 402.298 529.555 403.268C527.827 404.215 526.454 405.541 525.436 407.246C524.441 408.95 523.944 410.915 523.944 413.141V444H508.816ZM582.081 420.776V389.455H597.209V444H582.685V434.092H582.117C580.886 437.288 578.838 439.857 575.973 441.798C573.133 443.74 569.664 444.71 565.569 444.71C561.923 444.71 558.715 443.882 555.945 442.224C553.175 440.567 551.009 438.212 549.446 435.158C547.908 432.104 547.126 428.446 547.103 424.185V389.455H562.231V421.486C562.254 424.705 563.118 427.25 564.823 429.121C566.527 430.991 568.812 431.926 571.677 431.926C573.5 431.926 575.204 431.512 576.79 430.683C578.376 429.831 579.655 428.576 580.625 426.919C581.62 425.262 582.105 423.214 582.081 420.776ZM621.806 412.466V444H606.678V389.455H621.096V399.078H621.735C622.942 395.906 624.967 393.396 627.807 391.55C630.648 389.679 634.093 388.744 638.141 388.744C641.929 388.744 645.232 389.573 648.049 391.23C650.866 392.887 653.056 395.255 654.619 398.332C656.181 401.386 656.962 405.032 656.962 409.27V444H641.834V411.969C641.858 408.631 641.006 406.027 639.278 404.156C637.549 402.262 635.17 401.315 632.14 401.315C630.104 401.315 628.305 401.753 626.742 402.629C625.203 403.505 623.996 404.784 623.12 406.464C622.268 408.122 621.83 410.122 621.806 412.466ZM695.266 389.455V400.818H662.418V389.455H695.266ZM669.876 376.386H685.004V427.239C685.004 428.635 685.217 429.724 685.643 430.506C686.069 431.263 686.661 431.796 687.418 432.104C688.2 432.411 689.099 432.565 690.117 432.565C690.827 432.565 691.538 432.506 692.248 432.388C692.958 432.246 693.503 432.139 693.881 432.068L696.261 443.325C695.503 443.562 694.438 443.834 693.065 444.142C691.692 444.473 690.023 444.675 688.058 444.746C684.412 444.888 681.216 444.402 678.47 443.29C675.747 442.177 673.628 440.449 672.113 438.105C670.598 435.761 669.852 432.802 669.876 429.227V376.386ZM702.489 444V389.455H717.617V444H702.489ZM710.089 382.423C707.84 382.423 705.91 381.678 704.3 380.186C702.714 378.671 701.921 376.86 701.921 374.753C701.921 372.67 702.714 370.882 704.3 369.391C705.91 367.875 707.84 367.118 710.089 367.118C712.338 367.118 714.255 367.875 715.842 369.391C717.451 370.882 718.256 372.67 718.256 374.753C718.256 376.86 717.451 378.671 715.842 380.186C714.255 381.678 712.338 382.423 710.089 382.423ZM727.104 444V389.455H741.521V399.078H742.161C743.297 395.882 745.191 393.361 747.842 391.514C750.494 389.668 753.666 388.744 757.359 388.744C761.1 388.744 764.284 389.679 766.912 391.55C769.54 393.396 771.292 395.906 772.168 399.078H772.736C773.849 395.953 775.861 393.455 778.773 391.585C781.708 389.691 785.177 388.744 789.178 388.744C794.268 388.744 798.399 390.366 801.571 393.609C804.767 396.829 806.365 401.398 806.365 407.317V444H791.273V410.3C791.273 407.269 790.468 404.997 788.858 403.482C787.248 401.966 785.236 401.209 782.821 401.209C780.075 401.209 777.932 402.085 776.394 403.837C774.855 405.565 774.085 407.849 774.085 410.69V444H759.419V409.98C759.419 407.305 758.65 405.174 757.111 403.588C755.596 402.002 753.595 401.209 751.109 401.209C749.429 401.209 747.913 401.635 746.564 402.487C745.238 403.316 744.185 404.488 743.403 406.003C742.622 407.494 742.232 409.246 742.232 411.259V444H727.104ZM840.541 445.065C834.93 445.065 830.101 443.929 826.052 441.656C822.028 439.36 818.926 436.116 816.748 431.926C814.57 427.712 813.481 422.729 813.481 416.976C813.481 411.365 814.57 406.441 816.748 402.203C818.926 397.965 821.992 394.663 825.946 392.295C829.923 389.928 834.587 388.744 839.937 388.744C843.536 388.744 846.886 389.324 849.987 390.484C853.112 391.621 855.835 393.337 858.155 395.634C860.498 397.93 862.321 400.818 863.623 404.298C864.926 407.755 865.577 411.803 865.577 416.443V420.598H819.518V411.223H851.337C851.337 409.045 850.863 407.116 849.916 405.435C848.969 403.754 847.655 402.44 845.974 401.493C844.317 400.522 842.388 400.037 840.186 400.037C837.89 400.037 835.854 400.57 834.078 401.635C832.326 402.677 830.953 404.085 829.959 405.861C828.964 407.613 828.455 409.566 828.432 411.72V420.634C828.432 423.332 828.929 425.664 829.923 427.629C830.941 429.594 832.373 431.109 834.22 432.175C836.067 433.24 838.257 433.773 840.79 433.773C842.471 433.773 844.009 433.536 845.406 433.062C846.803 432.589 847.998 431.879 848.993 430.932C849.987 429.985 850.745 428.825 851.265 427.452L865.257 428.375C864.547 431.737 863.091 434.672 860.889 437.182C858.711 439.668 855.894 441.609 852.437 443.006C849.005 444.379 845.039 445.065 840.541 445.065ZM918.201 405.009L904.351 405.861C904.114 404.677 903.605 403.612 902.824 402.665C902.043 401.694 901.013 400.925 899.735 400.357C898.48 399.765 896.977 399.469 895.225 399.469C892.881 399.469 890.904 399.966 889.294 400.96C887.685 401.931 886.88 403.233 886.88 404.866C886.88 406.169 887.4 407.269 888.442 408.169C889.484 409.069 891.271 409.791 893.804 410.335L903.677 412.324C908.98 413.413 912.933 415.165 915.537 417.58C918.141 419.994 919.444 423.167 919.444 427.097C919.444 430.671 918.39 433.808 916.283 436.507C914.2 439.206 911.335 441.313 907.689 442.828C904.067 444.32 899.889 445.065 895.154 445.065C887.933 445.065 882.18 443.562 877.895 440.555C873.634 437.525 871.136 433.406 870.402 428.197L885.282 427.416C885.731 429.618 886.82 431.299 888.549 432.459C890.277 433.595 892.49 434.163 895.189 434.163C897.841 434.163 899.972 433.654 901.581 432.636C903.215 431.595 904.043 430.257 904.067 428.624C904.043 427.25 903.463 426.126 902.327 425.25C901.191 424.35 899.439 423.664 897.071 423.19L887.625 421.308C882.299 420.243 878.333 418.396 875.729 415.768C873.149 413.141 871.858 409.791 871.858 405.719C871.858 402.215 872.805 399.196 874.699 396.663C876.617 394.13 879.304 392.177 882.76 390.804C886.24 389.431 890.312 388.744 894.976 388.744C901.865 388.744 907.287 390.2 911.24 393.112C915.218 396.024 917.538 399.99 918.201 405.009Z" fill="black"/>
<rect x="71" y="498" width="1038" height="19" fill="black"/>
</svg>
