<svg width="1200" height="900" viewBox="0 0 1200 900" fill="none" xmlns="http://www.w3.org/2000/svg">
<rect width="1200" height="900" fill="white"/>
<path d="M122.243 371.273H137.619V418.503C137.619 423.806 136.353 428.446 133.82 432.423C131.31 436.401 127.795 439.502 123.273 441.727C118.751 443.929 113.483 445.03 107.47 445.03C101.433 445.03 96.1539 443.929 91.6321 441.727C87.1103 439.502 83.5947 436.401 81.0852 432.423C78.5758 428.446 77.321 423.806 77.321 418.503V371.273H92.6974V417.189C92.6974 419.959 93.3011 422.421 94.5085 424.575C95.7396 426.73 97.4678 428.422 99.6932 429.653C101.919 430.884 104.511 431.5 107.47 431.5C110.453 431.5 113.045 430.884 115.247 429.653C117.473 428.422 119.189 426.73 120.396 424.575C121.627 422.421 122.243 419.959 122.243 417.189V371.273ZM192.738 405.009L178.889 405.861C178.652 404.677 178.143 403.612 177.362 402.665C176.58 401.694 175.551 400.925 174.272 400.357C173.017 399.765 171.514 399.469 169.762 399.469C167.418 399.469 165.442 399.966 163.832 400.96C162.222 401.931 161.417 403.233 161.417 404.866C161.417 406.169 161.938 407.269 162.98 408.169C164.021 409.069 165.809 409.791 168.342 410.335L178.214 412.324C183.517 413.413 187.471 415.165 190.075 417.58C192.679 419.994 193.981 423.167 193.981 427.097C193.981 430.671 192.927 433.808 190.82 436.507C188.737 439.206 185.873 441.313 182.227 442.828C178.605 444.32 174.426 445.065 169.691 445.065C162.471 445.065 156.718 443.562 152.433 440.555C148.171 437.525 145.674 433.406 144.94 428.197L159.819 427.416C160.269 429.618 161.358 431.299 163.086 432.459C164.814 433.595 167.028 434.163 169.727 434.163C172.378 434.163 174.509 433.654 176.119 432.636C177.752 431.595 178.581 430.257 178.605 428.624C178.581 427.25 178.001 426.126 176.865 425.25C175.728 424.35 173.976 423.664 171.609 423.19L162.163 421.308C156.836 420.243 152.871 418.396 150.267 415.768C147.686 413.141 146.396 409.791 146.396 405.719C146.396 402.215 147.343 399.196 149.237 396.663C151.154 394.13 153.841 392.177 157.298 390.804C160.778 389.431 164.85 388.744 169.514 388.744C176.403 388.744 181.824 390.2 185.778 393.112C189.755 396.024 192.075 399.99 192.738 405.009ZM225.733 445.065C220.122 445.065 215.293 443.929 211.245 441.656C207.22 439.36 204.119 436.116 201.941 431.926C199.763 427.712 198.674 422.729 198.674 416.976C198.674 411.365 199.763 406.441 201.941 402.203C204.119 397.965 207.185 394.663 211.138 392.295C215.115 389.928 219.779 388.744 225.13 388.744C228.728 388.744 232.078 389.324 235.179 390.484C238.304 391.621 241.027 393.337 243.347 395.634C245.691 397.93 247.514 400.818 248.816 404.298C250.118 407.755 250.769 411.803 250.769 416.443V420.598H204.711V411.223H236.529C236.529 409.045 236.055 407.116 235.108 405.435C234.161 403.754 232.847 402.44 231.167 401.493C229.509 400.522 227.58 400.037 225.378 400.037C223.082 400.037 221.046 400.57 219.27 401.635C217.518 402.677 216.145 404.085 215.151 405.861C214.157 407.613 213.648 409.566 213.624 411.72V420.634C213.624 423.332 214.121 425.664 215.115 427.629C216.133 429.594 217.566 431.109 219.412 432.175C221.259 433.24 223.449 433.773 225.982 433.773C227.663 433.773 229.202 433.536 230.598 433.062C231.995 432.589 233.191 431.879 234.185 430.932C235.179 429.985 235.937 428.825 236.458 427.452L250.449 428.375C249.739 431.737 248.283 434.672 246.081 437.182C243.903 439.668 241.086 441.609 237.63 443.006C234.197 444.379 230.231 445.065 225.733 445.065ZM258.009 444V389.455H272.676V398.972H273.244C274.238 395.586 275.907 393.029 278.251 391.301C280.595 389.549 283.293 388.673 286.347 388.673C287.105 388.673 287.922 388.721 288.798 388.815C289.674 388.91 290.443 389.04 291.106 389.206V402.629C290.396 402.416 289.413 402.227 288.159 402.061C286.904 401.895 285.756 401.812 284.714 401.812C282.489 401.812 280.5 402.298 278.748 403.268C277.02 404.215 275.647 405.541 274.629 407.246C273.634 408.95 273.137 410.915 273.137 413.141V444H258.009ZM331.937 412.466V444H316.809V389.455H331.226V399.078H331.866C333.073 395.906 335.097 393.396 337.938 391.55C340.779 389.679 344.223 388.744 348.272 388.744C352.06 388.744 355.362 389.573 358.179 391.23C360.997 392.887 363.187 395.255 364.749 398.332C366.312 401.386 367.093 405.032 367.093 409.27V444H351.965V411.969C351.989 408.631 351.136 406.027 349.408 404.156C347.68 402.262 345.301 401.315 342.27 401.315C340.234 401.315 338.435 401.753 336.873 402.629C335.334 403.505 334.126 404.784 333.25 406.464C332.398 408.122 331.96 410.122 331.937 412.466ZM391.938 445.03C388.458 445.03 385.357 444.426 382.634 443.219C379.912 441.988 377.757 440.177 376.171 437.786C374.609 435.371 373.827 432.364 373.827 428.766C373.827 425.735 374.384 423.19 375.496 421.131C376.609 419.071 378.124 417.414 380.042 416.159C381.959 414.904 384.138 413.957 386.576 413.318C389.038 412.679 391.619 412.229 394.317 411.969C397.49 411.637 400.047 411.33 401.988 411.045C403.929 410.738 405.338 410.288 406.214 409.696C407.09 409.104 407.528 408.228 407.528 407.068V406.855C407.528 404.606 406.817 402.866 405.397 401.635C404 400.404 402.012 399.788 399.431 399.788C396.709 399.788 394.542 400.392 392.932 401.599C391.323 402.783 390.257 404.275 389.736 406.074L375.745 404.938C376.455 401.623 377.852 398.759 379.935 396.344C382.019 393.905 384.706 392.035 387.996 390.733C391.311 389.407 395.146 388.744 399.502 388.744C402.532 388.744 405.432 389.099 408.202 389.81C410.996 390.52 413.47 391.621 415.624 393.112C417.802 394.604 419.519 396.521 420.773 398.865C422.028 401.185 422.655 403.967 422.655 407.21V444H408.309V436.436H407.883C407.007 438.141 405.835 439.644 404.367 440.946C402.899 442.224 401.136 443.231 399.076 443.964C397.016 444.675 394.637 445.03 391.938 445.03ZM396.271 434.589C398.496 434.589 400.461 434.152 402.165 433.276C403.87 432.376 405.208 431.169 406.178 429.653C407.149 428.138 407.634 426.422 407.634 424.504V418.716C407.161 419.024 406.51 419.308 405.681 419.568C404.876 419.805 403.965 420.03 402.947 420.243C401.929 420.432 400.911 420.61 399.893 420.776C398.875 420.918 397.951 421.048 397.123 421.166C395.347 421.427 393.797 421.841 392.471 422.409C391.145 422.977 390.115 423.747 389.381 424.717C388.647 425.664 388.28 426.848 388.28 428.268C388.28 430.328 389.026 431.902 390.518 432.991C392.033 434.057 393.95 434.589 396.271 434.589ZM431.76 444V389.455H446.178V399.078H446.817C447.954 395.882 449.848 393.361 452.499 391.514C455.151 389.668 458.323 388.744 462.016 388.744C465.757 388.744 468.941 389.679 471.569 391.55C474.196 393.396 475.948 395.906 476.824 399.078H477.393C478.505 395.953 480.518 393.455 483.429 391.585C486.365 389.691 489.833 388.744 493.834 388.744C498.924 388.744 503.055 390.366 506.228 393.609C509.424 396.829 511.022 401.398 511.022 407.317V444H495.929V410.3C495.929 407.269 495.125 404.997 493.515 403.482C491.905 401.966 489.893 401.209 487.478 401.209C484.732 401.209 482.589 402.085 481.05 403.837C479.511 405.565 478.742 407.849 478.742 410.69V444H464.076V409.98C464.076 407.305 463.306 405.174 461.768 403.588C460.252 402.002 458.252 401.209 455.766 401.209C454.085 401.209 452.57 401.635 451.221 402.487C449.895 403.316 448.841 404.488 448.06 406.003C447.279 407.494 446.888 409.246 446.888 411.259V444H431.76ZM545.198 445.065C539.587 445.065 534.757 443.929 530.709 441.656C526.684 439.36 523.583 436.116 521.405 431.926C519.227 427.712 518.138 422.729 518.138 416.976C518.138 411.365 519.227 406.441 521.405 402.203C523.583 397.965 526.649 394.663 530.603 392.295C534.58 389.928 539.244 388.744 544.594 388.744C548.193 388.744 551.542 389.324 554.644 390.484C557.769 391.621 560.491 393.337 562.811 395.634C565.155 397.93 566.978 400.818 568.28 404.298C569.582 407.755 570.233 411.803 570.233 416.443V420.598H524.175V411.223H555.993C555.993 409.045 555.52 407.116 554.573 405.435C553.626 403.754 552.312 402.44 550.631 401.493C548.974 400.522 547.044 400.037 544.843 400.037C542.546 400.037 540.51 400.57 538.735 401.635C536.983 402.677 535.61 404.085 534.615 405.861C533.621 407.613 533.112 409.566 533.088 411.72V420.634C533.088 423.332 533.585 425.664 534.58 427.629C535.598 429.594 537.03 431.109 538.877 432.175C540.723 433.24 542.913 433.773 545.446 433.773C547.127 433.773 548.666 433.536 550.063 433.062C551.46 432.589 552.655 431.879 553.649 430.932C554.644 429.985 555.401 428.825 555.922 427.452L569.914 428.375C569.203 431.737 567.747 434.672 565.546 437.182C563.368 439.668 560.55 441.609 557.094 443.006C553.661 444.379 549.696 445.065 545.198 445.065ZM622.857 405.009L609.008 405.861C608.771 404.677 608.262 403.612 607.481 402.665C606.7 401.694 605.67 400.925 604.391 400.357C603.137 399.765 601.633 399.469 599.881 399.469C597.538 399.469 595.561 399.966 593.951 400.96C592.341 401.931 591.536 403.233 591.536 404.866C591.536 406.169 592.057 407.269 593.099 408.169C594.14 409.069 595.928 409.791 598.461 410.335L608.333 412.324C613.636 413.413 617.59 415.165 620.194 417.58C622.798 419.994 624.1 423.167 624.1 427.097C624.1 430.671 623.047 433.808 620.94 436.507C618.856 439.206 615.992 441.313 612.346 442.828C608.724 444.32 604.545 445.065 599.81 445.065C592.59 445.065 586.837 443.562 582.552 440.555C578.291 437.525 575.793 433.406 575.059 428.197L589.938 427.416C590.388 429.618 591.477 431.299 593.205 432.459C594.934 433.595 597.147 434.163 599.846 434.163C602.497 434.163 604.628 433.654 606.238 432.636C607.872 431.595 608.7 430.257 608.724 428.624C608.7 427.25 608.12 426.126 606.984 425.25C605.847 424.35 604.096 423.664 601.728 423.19L592.282 421.308C586.955 420.243 582.99 418.396 580.386 415.768C577.805 413.141 576.515 409.791 576.515 405.719C576.515 402.215 577.462 399.196 579.356 396.663C581.274 394.13 583.961 392.177 587.417 390.804C590.897 389.431 594.969 388.744 599.633 388.744C606.522 388.744 611.944 390.2 615.897 393.112C619.874 396.024 622.194 399.99 622.857 405.009ZM630.995 464.455V389.455H645.909V398.616H646.584C647.247 397.149 648.206 395.657 649.46 394.142C650.739 392.603 652.396 391.325 654.432 390.307C656.492 389.265 659.049 388.744 662.103 388.744C666.08 388.744 669.749 389.786 673.111 391.869C676.473 393.929 679.16 397.042 681.172 401.209C683.184 405.352 684.191 410.548 684.191 416.798C684.191 422.883 683.208 428.02 681.243 432.21C679.302 436.377 676.65 439.537 673.289 441.692C669.951 443.822 666.21 444.888 662.067 444.888C659.131 444.888 656.634 444.402 654.574 443.432C652.538 442.461 650.869 441.242 649.567 439.774C648.265 438.283 647.271 436.779 646.584 435.264H646.122V464.455H630.995ZM645.803 416.727C645.803 419.971 646.253 422.8 647.152 425.214C648.052 427.629 649.354 429.511 651.058 430.861C652.763 432.187 654.835 432.849 657.273 432.849C659.735 432.849 661.818 432.175 663.523 430.825C665.228 429.452 666.518 427.558 667.394 425.143C668.293 422.705 668.743 419.9 668.743 416.727C668.743 413.579 668.305 410.809 667.429 408.418C666.553 406.027 665.263 404.156 663.558 402.807C661.854 401.457 659.759 400.783 657.273 400.783C654.811 400.783 652.728 401.434 651.023 402.736C649.342 404.038 648.052 405.884 647.152 408.276C646.253 410.667 645.803 413.484 645.803 416.727ZM707.198 445.03C703.718 445.03 700.617 444.426 697.894 443.219C695.172 441.988 693.017 440.177 691.431 437.786C689.869 435.371 689.087 432.364 689.087 428.766C689.087 425.735 689.644 423.19 690.756 421.131C691.869 419.071 693.384 417.414 695.302 416.159C697.22 414.904 699.398 413.957 701.836 413.318C704.298 412.679 706.879 412.229 709.577 411.969C712.75 411.637 715.307 411.33 717.248 411.045C719.189 410.738 720.598 410.288 721.474 409.696C722.35 409.104 722.788 408.228 722.788 407.068V406.855C722.788 404.606 722.077 402.866 720.657 401.635C719.26 400.404 717.272 399.788 714.691 399.788C711.969 399.788 709.802 400.392 708.193 401.599C706.583 402.783 705.517 404.275 704.997 406.074L691.005 404.938C691.715 401.623 693.112 398.759 695.195 396.344C697.279 393.905 699.966 392.035 703.256 390.733C706.571 389.407 710.406 388.744 714.762 388.744C717.792 388.744 720.693 389.099 723.462 389.81C726.256 390.52 728.73 391.621 730.884 393.112C733.062 394.604 734.779 396.521 736.033 398.865C737.288 401.185 737.916 403.967 737.916 407.21V444H723.569V436.436H723.143C722.267 438.141 721.095 439.644 719.627 440.946C718.159 442.224 716.396 443.231 714.336 443.964C712.276 444.675 709.897 445.03 707.198 445.03ZM711.531 434.589C713.756 434.589 715.721 434.152 717.425 433.276C719.13 432.376 720.468 431.169 721.438 429.653C722.409 428.138 722.894 426.422 722.894 424.504V418.716C722.421 419.024 721.77 419.308 720.941 419.568C720.136 419.805 719.225 420.03 718.207 420.243C717.189 420.432 716.171 420.61 715.153 420.776C714.135 420.918 713.211 421.048 712.383 421.166C710.607 421.427 709.057 421.841 707.731 422.409C706.405 422.977 705.375 423.747 704.641 424.717C703.907 425.664 703.541 426.848 703.541 428.268C703.541 430.328 704.286 431.902 705.778 432.991C707.293 434.057 709.211 434.589 711.531 434.589ZM771.665 445.065C766.078 445.065 761.272 443.882 757.248 441.514C753.247 439.123 750.169 435.809 748.015 431.571C745.884 427.333 744.819 422.456 744.819 416.94C744.819 411.353 745.896 406.453 748.05 402.239C750.228 398.001 753.318 394.698 757.319 392.331C761.32 389.94 766.078 388.744 771.594 388.744C776.353 388.744 780.52 389.608 784.094 391.337C787.669 393.065 790.498 395.491 792.582 398.616C794.665 401.741 795.813 405.411 796.026 409.625H781.751C781.348 406.902 780.283 404.713 778.555 403.055C776.85 401.375 774.613 400.534 771.843 400.534C769.499 400.534 767.451 401.173 765.699 402.452C763.971 403.706 762.622 405.541 761.651 407.956C760.681 410.371 760.195 413.295 760.195 416.727C760.195 420.207 760.669 423.167 761.616 425.605C762.586 428.044 763.948 429.902 765.699 431.18C767.451 432.459 769.499 433.098 771.843 433.098C773.571 433.098 775.122 432.743 776.495 432.033C777.892 431.322 779.04 430.293 779.94 428.943C780.863 427.57 781.467 425.925 781.751 424.007H796.026C795.789 428.174 794.653 431.843 792.617 435.016C790.605 438.164 787.823 440.626 784.272 442.402C780.721 444.178 776.519 445.065 771.665 445.065ZM827.938 445.065C822.327 445.065 817.498 443.929 813.45 441.656C809.425 439.36 806.324 436.116 804.146 431.926C801.968 427.712 800.879 422.729 800.879 416.976C800.879 411.365 801.968 406.441 804.146 402.203C806.324 397.965 809.39 394.663 813.343 392.295C817.32 389.928 821.984 388.744 827.335 388.744C830.933 388.744 834.283 389.324 837.384 390.484C840.509 391.621 843.232 393.337 845.552 395.634C847.896 397.93 849.719 400.818 851.021 404.298C852.323 407.755 852.974 411.803 852.974 416.443V420.598H806.916V411.223H838.734C838.734 409.045 838.26 407.116 837.313 405.435C836.366 403.754 835.052 402.44 833.372 401.493C831.714 400.522 829.785 400.037 827.583 400.037C825.287 400.037 823.251 400.57 821.475 401.635C819.723 402.677 818.35 404.085 817.356 405.861C816.362 407.613 815.853 409.566 815.829 411.72V420.634C815.829 423.332 816.326 425.664 817.32 427.629C818.338 429.594 819.771 431.109 821.617 432.175C823.464 433.24 825.654 433.773 828.187 433.773C829.868 433.773 831.407 433.536 832.803 433.062C834.2 432.589 835.396 431.879 836.39 430.932C837.384 429.985 838.142 428.825 838.663 427.452L852.654 428.375C851.944 431.737 850.488 434.672 848.286 437.182C846.108 439.668 843.291 441.609 839.835 443.006C836.402 444.379 832.436 445.065 827.938 445.065ZM905.598 405.009L891.748 405.861C891.512 404.677 891.003 403.612 890.221 402.665C889.44 401.694 888.41 400.925 887.132 400.357C885.877 399.765 884.374 399.469 882.622 399.469C880.278 399.469 878.301 399.966 876.692 400.96C875.082 401.931 874.277 403.233 874.277 404.866C874.277 406.169 874.798 407.269 875.839 408.169C876.881 409.069 878.668 409.791 881.202 410.335L891.074 412.324C896.377 413.413 900.33 415.165 902.935 417.58C905.539 419.994 906.841 423.167 906.841 427.097C906.841 430.671 905.787 433.808 903.68 436.507C901.597 439.206 898.732 441.313 895.087 442.828C891.464 444.32 887.286 445.065 882.551 445.065C875.33 445.065 869.578 443.562 865.292 440.555C861.031 437.525 858.533 433.406 857.8 428.197L872.679 427.416C873.129 429.618 874.218 431.299 875.946 432.459C877.674 433.595 879.888 434.163 882.587 434.163C885.238 434.163 887.369 433.654 888.979 432.636C890.612 431.595 891.441 430.257 891.464 428.624C891.441 427.25 890.861 426.126 889.724 425.25C888.588 424.35 886.836 423.664 884.469 423.19L875.023 421.308C869.696 420.243 865.73 418.396 863.126 415.768C860.546 413.141 859.256 409.791 859.256 405.719C859.256 402.215 860.203 399.196 862.096 396.663C864.014 394.13 866.701 392.177 870.158 390.804C873.638 389.431 877.71 388.744 882.373 388.744C889.263 388.744 894.684 390.2 898.638 393.112C902.615 396.024 904.935 399.99 905.598 405.009Z" fill="black"/>
<rect x="71" y="498" width="1038" height="19" fill="black"/>
</svg>
