<svg width="1200" height="900" viewBox="0 0 1200 900" fill="none" xmlns="http://www.w3.org/2000/svg">
<rect width="1200" height="900" fill="white"/>
<path d="M73.0597 371.273H90.2827L106.866 402.594H107.577L124.161 371.273H141.384L114.857 418.29V444H99.5866V418.29L73.0597 371.273ZM160.085 445.065C154.569 445.065 149.799 443.893 145.774 441.55C141.773 439.182 138.684 435.892 136.506 431.678C134.328 427.44 133.239 422.527 133.239 416.94C133.239 411.306 134.328 406.382 136.506 402.168C138.684 397.93 141.773 394.639 145.774 392.295C149.799 389.928 154.569 388.744 160.085 388.744C165.601 388.744 170.36 389.928 174.361 392.295C178.386 394.639 181.487 397.93 183.665 402.168C185.843 406.382 186.932 411.306 186.932 416.94C186.932 422.527 185.843 427.44 183.665 431.678C181.487 435.892 178.386 439.182 174.361 441.55C170.36 443.893 165.601 445.065 160.085 445.065ZM160.156 433.347C162.666 433.347 164.761 432.636 166.442 431.216C168.123 429.772 169.389 427.807 170.242 425.321C171.118 422.835 171.556 420.006 171.556 416.834C171.556 413.661 171.118 410.832 170.242 408.347C169.389 405.861 168.123 403.896 166.442 402.452C164.761 401.008 162.666 400.286 160.156 400.286C157.623 400.286 155.493 401.008 153.764 402.452C152.06 403.896 150.77 405.861 149.894 408.347C149.041 410.832 148.615 413.661 148.615 416.834C148.615 420.006 149.041 422.835 149.894 425.321C150.77 427.807 152.06 429.772 153.764 431.216C155.493 432.636 157.623 433.347 160.156 433.347ZM229.116 420.776V389.455H244.244V444H229.719V434.092H229.151C227.92 437.288 225.872 439.857 223.008 441.798C220.167 443.74 216.699 444.71 212.603 444.71C208.957 444.71 205.749 443.882 202.979 442.224C200.209 440.567 198.043 438.212 196.481 435.158C194.942 432.104 194.161 428.446 194.137 424.185V389.455H209.265V421.486C209.289 424.705 210.153 427.25 211.857 429.121C213.562 430.991 215.846 431.926 218.711 431.926C220.534 431.926 222.238 431.512 223.825 430.683C225.411 429.831 226.689 428.576 227.66 426.919C228.654 425.262 229.139 423.214 229.116 420.776ZM253.713 444V389.455H268.379V398.972H268.947C269.941 395.586 271.61 393.029 273.954 391.301C276.298 389.549 278.997 388.673 282.051 388.673C282.808 388.673 283.625 388.721 284.501 388.815C285.377 388.91 286.146 389.04 286.809 389.206V402.629C286.099 402.416 285.116 402.227 283.862 402.061C282.607 401.895 281.459 401.812 280.417 401.812C278.192 401.812 276.203 402.298 274.451 403.268C272.723 404.215 271.35 405.541 270.332 407.246C269.338 408.95 268.84 410.915 268.84 413.141V444H253.713ZM337.157 445.065C331.641 445.065 326.87 443.893 322.846 441.55C318.845 439.182 315.755 435.892 313.577 431.678C311.399 427.44 310.31 422.527 310.31 416.94C310.31 411.306 311.399 406.382 313.577 402.168C315.755 397.93 318.845 394.639 322.846 392.295C326.87 389.928 331.641 388.744 337.157 388.744C342.673 388.744 347.431 389.928 351.432 392.295C355.457 394.639 358.558 397.93 360.736 402.168C362.914 406.382 364.003 411.306 364.003 416.94C364.003 422.527 362.914 427.44 360.736 431.678C358.558 435.892 355.457 439.182 351.432 441.55C347.431 443.893 342.673 445.065 337.157 445.065ZM337.228 433.347C339.737 433.347 341.832 432.636 343.513 431.216C345.194 429.772 346.461 427.807 347.313 425.321C348.189 422.835 348.627 420.006 348.627 416.834C348.627 413.661 348.189 410.832 347.313 408.347C346.461 405.861 345.194 403.896 343.513 402.452C341.832 401.008 339.737 400.286 337.228 400.286C334.695 400.286 332.564 401.008 330.836 402.452C329.131 403.896 327.841 405.861 326.965 408.347C326.113 410.832 325.687 413.661 325.687 416.834C325.687 420.006 326.113 422.835 326.965 425.321C327.841 427.807 329.131 429.772 330.836 431.216C332.564 432.636 334.695 433.347 337.228 433.347ZM371.208 464.455V389.455H386.123V398.616H386.798C387.461 397.149 388.42 395.657 389.674 394.142C390.953 392.603 392.61 391.325 394.646 390.307C396.706 389.265 399.262 388.744 402.316 388.744C406.294 388.744 409.963 389.786 413.325 391.869C416.687 393.929 419.374 397.042 421.386 401.209C423.398 405.352 424.404 410.548 424.404 416.798C424.404 422.883 423.422 428.02 421.457 432.21C419.516 436.377 416.864 439.537 413.502 441.692C410.164 443.822 406.424 444.888 402.281 444.888C399.345 444.888 396.848 444.402 394.788 443.432C392.752 442.461 391.083 441.242 389.781 439.774C388.479 438.283 387.484 436.779 386.798 435.264H386.336V464.455H371.208ZM386.017 416.727C386.017 419.971 386.466 422.8 387.366 425.214C388.266 427.629 389.568 429.511 391.272 430.861C392.977 432.187 395.048 432.849 397.487 432.849C399.949 432.849 402.032 432.175 403.737 430.825C405.441 429.452 406.732 427.558 407.608 425.143C408.507 422.705 408.957 419.9 408.957 416.727C408.957 413.579 408.519 410.809 407.643 408.418C406.767 406.027 405.477 404.156 403.772 402.807C402.068 401.457 399.973 400.783 397.487 400.783C395.025 400.783 392.941 401.434 391.237 402.736C389.556 404.038 388.266 405.884 387.366 408.276C386.466 410.667 386.017 413.484 386.017 416.727ZM460.871 389.455V400.818H428.023V389.455H460.871ZM435.48 376.386H450.608V427.239C450.608 428.635 450.821 429.724 451.247 430.506C451.673 431.263 452.265 431.796 453.023 432.104C453.804 432.411 454.704 432.565 455.722 432.565C456.432 432.565 457.142 432.506 457.852 432.388C458.563 432.246 459.107 432.139 459.486 432.068L461.865 443.325C461.108 443.562 460.042 443.834 458.669 444.142C457.296 444.473 455.627 444.675 453.662 444.746C450.016 444.888 446.82 444.402 444.074 443.29C441.351 442.177 439.233 440.449 437.717 438.105C436.202 435.761 435.457 432.802 435.48 429.227V376.386ZM468.094 444V389.455H483.222V444H468.094ZM475.693 382.423C473.444 382.423 471.515 381.678 469.905 380.186C468.319 378.671 467.525 376.86 467.525 374.753C467.525 372.67 468.319 370.882 469.905 369.391C471.515 367.875 473.444 367.118 475.693 367.118C477.942 367.118 479.86 367.875 481.446 369.391C483.056 370.882 483.861 372.67 483.861 374.753C483.861 376.86 483.056 378.671 481.446 380.186C479.86 381.678 477.942 382.423 475.693 382.423ZM517.353 445.065C511.837 445.065 507.067 443.893 503.042 441.55C499.041 439.182 495.952 435.892 493.774 431.678C491.596 427.44 490.506 422.527 490.506 416.94C490.506 411.306 491.596 406.382 493.774 402.168C495.952 397.93 499.041 394.639 503.042 392.295C507.067 389.928 511.837 388.744 517.353 388.744C522.869 388.744 527.628 389.928 531.629 392.295C535.653 394.639 538.755 397.93 540.933 402.168C543.111 406.382 544.2 411.306 544.2 416.94C544.2 422.527 543.111 427.44 540.933 431.678C538.755 435.892 535.653 439.182 531.629 441.55C527.628 443.893 522.869 445.065 517.353 445.065ZM517.424 433.347C519.934 433.347 522.029 432.636 523.71 431.216C525.39 429.772 526.657 427.807 527.509 425.321C528.385 422.835 528.823 420.006 528.823 416.834C528.823 413.661 528.385 410.832 527.509 408.347C526.657 405.861 525.39 403.896 523.71 402.452C522.029 401.008 519.934 400.286 517.424 400.286C514.891 400.286 512.76 401.008 511.032 402.452C509.328 403.896 508.037 405.861 507.161 408.347C506.309 410.832 505.883 413.661 505.883 416.834C505.883 420.006 506.309 422.835 507.161 425.321C508.037 427.807 509.328 429.772 511.032 431.216C512.76 432.636 514.891 433.347 517.424 433.347ZM566.533 412.466V444H551.405V389.455H565.822V399.078H566.462C567.669 395.906 569.693 393.396 572.534 391.55C575.375 389.679 578.82 388.744 582.868 388.744C586.656 388.744 589.958 389.573 592.775 391.23C595.593 392.887 597.783 395.255 599.345 398.332C600.908 401.386 601.689 405.032 601.689 409.27V444H586.561V411.969C586.585 408.631 585.732 406.027 584.004 404.156C582.276 402.262 579.897 401.315 576.866 401.315C574.83 401.315 573.031 401.753 571.469 402.629C569.93 403.505 568.722 404.784 567.846 406.464C566.994 408.122 566.556 410.122 566.533 412.466ZM656.364 405.009L642.514 405.861C642.278 404.677 641.769 403.612 640.987 402.665C640.206 401.694 639.176 400.925 637.898 400.357C636.643 399.765 635.14 399.469 633.388 399.469C631.044 399.469 629.067 399.966 627.457 400.96C625.848 401.931 625.043 403.233 625.043 404.866C625.043 406.169 625.564 407.269 626.605 408.169C627.647 409.069 629.434 409.791 631.967 410.335L641.84 412.324C647.143 413.413 651.096 415.165 653.7 417.58C656.305 419.994 657.607 423.167 657.607 427.097C657.607 430.671 656.553 433.808 654.446 436.507C652.363 439.206 649.498 441.313 645.852 442.828C642.23 444.32 638.052 445.065 633.317 445.065C626.096 445.065 620.343 443.562 616.058 440.555C611.797 437.525 609.299 433.406 608.565 428.197L623.445 427.416C623.894 429.618 624.983 431.299 626.712 432.459C628.44 433.595 630.653 434.163 633.352 434.163C636.004 434.163 638.135 433.654 639.744 432.636C641.378 431.595 642.206 430.257 642.23 428.624C642.206 427.25 641.626 426.126 640.49 425.25C639.354 424.35 637.602 423.664 635.234 423.19L625.788 421.308C620.462 420.243 616.496 418.396 613.892 415.768C611.312 413.141 610.021 409.791 610.021 405.719C610.021 402.215 610.968 399.196 612.862 396.663C614.78 394.13 617.467 392.177 620.923 390.804C624.403 389.431 628.475 388.744 633.139 388.744C640.028 388.744 645.45 390.2 649.403 393.112C653.381 396.024 655.701 399.99 656.364 405.009Z" fill="black"/>
<rect x="71" y="498" width="1038" height="19" fill="black"/>
<path d="M105.312 587.392C105.04 584.972 103.915 583.097 101.938 581.767C99.9602 580.42 97.4716 579.747 94.4716 579.747C92.3239 579.747 90.4659 580.088 88.8977 580.77C87.3295 581.435 86.1108 582.355 85.2415 583.531C84.3892 584.69 83.9631 586.011 83.9631 587.494C83.9631 588.739 84.2528 589.812 84.8324 590.716C85.429 591.619 86.2045 592.378 87.1591 592.991C88.1307 593.588 89.1705 594.091 90.2784 594.5C91.3864 594.892 92.4517 595.216 93.4744 595.472L98.5881 596.801C100.259 597.21 101.972 597.764 103.727 598.463C105.483 599.162 107.111 600.082 108.611 601.224C110.111 602.366 111.321 603.781 112.241 605.469C113.179 607.156 113.648 609.176 113.648 611.528C113.648 614.494 112.881 617.128 111.347 619.429C109.83 621.73 107.622 623.545 104.724 624.875C101.844 626.205 98.358 626.869 94.267 626.869C90.3466 626.869 86.9545 626.247 84.0909 625.003C81.2273 623.759 78.9858 621.994 77.3665 619.71C75.7472 617.409 74.8523 614.682 74.6818 611.528H82.608C82.7614 613.42 83.375 614.997 84.4489 616.259C85.5398 617.503 86.929 618.432 88.6165 619.045C90.321 619.642 92.1875 619.94 94.2159 619.94C96.4489 619.94 98.4347 619.591 100.173 618.892C101.929 618.176 103.31 617.187 104.315 615.926C105.321 614.648 105.824 613.156 105.824 611.452C105.824 609.901 105.381 608.631 104.494 607.642C103.625 606.653 102.44 605.835 100.94 605.188C99.4574 604.54 97.7784 603.969 95.9034 603.474L89.7159 601.787C85.5227 600.645 82.1989 598.966 79.7443 596.75C77.3068 594.534 76.0881 591.602 76.0881 587.955C76.0881 584.937 76.9063 582.304 78.5426 580.054C80.179 577.804 82.3949 576.057 85.1903 574.812C87.9858 573.551 91.1392 572.92 94.6506 572.92C98.196 572.92 101.324 573.543 104.034 574.787C106.761 576.031 108.909 577.744 110.477 579.926C112.045 582.091 112.864 584.58 112.932 587.392H105.312ZM137.507 626.793C133.637 626.793 130.305 625.966 127.509 624.312C124.731 622.642 122.583 620.298 121.066 617.281C119.566 614.247 118.816 610.693 118.816 606.619C118.816 602.597 119.566 599.051 121.066 595.983C122.583 592.915 124.697 590.52 127.407 588.798C130.134 587.077 133.322 586.216 136.97 586.216C139.186 586.216 141.333 586.582 143.413 587.315C145.492 588.048 147.359 589.199 149.012 590.767C150.666 592.335 151.97 594.372 152.924 596.878C153.879 599.366 154.356 602.392 154.356 605.955V608.665H123.137V602.938H146.864C146.864 600.926 146.455 599.145 145.637 597.594C144.819 596.026 143.668 594.79 142.186 593.886C140.72 592.983 138.998 592.531 137.021 592.531C134.873 592.531 132.998 593.06 131.396 594.116C129.811 595.156 128.583 596.52 127.714 598.207C126.862 599.878 126.436 601.693 126.436 603.653V608.128C126.436 610.753 126.896 612.986 127.816 614.827C128.754 616.668 130.058 618.074 131.728 619.045C133.399 620 135.35 620.477 137.583 620.477C139.032 620.477 140.353 620.273 141.546 619.864C142.739 619.437 143.771 618.807 144.64 617.972C145.509 617.136 146.174 616.105 146.634 614.878L153.87 616.182C153.291 618.312 152.251 620.179 150.751 621.781C149.268 623.366 147.401 624.602 145.151 625.489C142.918 626.358 140.37 626.793 137.507 626.793ZM160.943 626V586.727H168.333V592.966H168.742C169.458 590.852 170.719 589.19 172.526 587.98C174.35 586.753 176.412 586.139 178.713 586.139C179.191 586.139 179.753 586.156 180.401 586.19C181.066 586.224 181.586 586.267 181.961 586.318V593.631C181.654 593.545 181.108 593.452 180.324 593.349C179.54 593.23 178.756 593.17 177.972 593.17C176.165 593.17 174.554 593.554 173.14 594.321C171.742 595.071 170.634 596.119 169.816 597.466C168.997 598.795 168.588 600.312 168.588 602.017V626H160.943ZM221.473 586.727L207.232 626H199.05L184.783 586.727H192.991L202.937 616.949H203.346L213.266 586.727H221.473ZM226.763 626V586.727H234.408V626H226.763ZM230.624 580.668C229.295 580.668 228.153 580.224 227.198 579.338C226.261 578.435 225.792 577.361 225.792 576.116C225.792 574.855 226.261 573.781 227.198 572.895C228.153 571.991 229.295 571.54 230.624 571.54C231.954 571.54 233.087 571.991 234.025 572.895C234.979 573.781 235.457 574.855 235.457 576.116C235.457 577.361 234.979 578.435 234.025 579.338C233.087 580.224 231.954 580.668 230.624 580.668ZM259.341 626.793C255.54 626.793 252.267 625.932 249.523 624.21C246.795 622.472 244.699 620.077 243.233 617.026C241.767 613.974 241.034 610.48 241.034 606.543C241.034 602.554 241.784 599.034 243.284 595.983C244.784 592.915 246.898 590.52 249.625 588.798C252.352 587.077 255.565 586.216 259.264 586.216C262.247 586.216 264.906 586.77 267.242 587.878C269.577 588.969 271.46 590.503 272.892 592.48C274.341 594.457 275.202 596.767 275.474 599.409H268.034C267.625 597.568 266.688 595.983 265.222 594.653C263.773 593.324 261.83 592.659 259.392 592.659C257.261 592.659 255.395 593.222 253.793 594.347C252.207 595.455 250.972 597.04 250.085 599.102C249.199 601.148 248.756 603.568 248.756 606.364C248.756 609.227 249.19 611.699 250.06 613.778C250.929 615.858 252.156 617.469 253.742 618.611C255.344 619.753 257.227 620.324 259.392 620.324C260.841 620.324 262.153 620.06 263.33 619.531C264.523 618.986 265.52 618.21 266.321 617.205C267.139 616.199 267.71 614.989 268.034 613.574H275.474C275.202 616.114 274.375 618.381 272.994 620.375C271.614 622.369 269.764 623.937 267.446 625.08C265.145 626.222 262.443 626.793 259.341 626.793ZM298.681 626.793C294.812 626.793 291.48 625.966 288.684 624.312C285.906 622.642 283.758 620.298 282.241 617.281C280.741 614.247 279.991 610.693 279.991 606.619C279.991 602.597 280.741 599.051 282.241 595.983C283.758 592.915 285.872 590.52 288.582 588.798C291.309 587.077 294.497 586.216 298.144 586.216C300.36 586.216 302.508 586.582 304.588 587.315C306.667 588.048 308.534 589.199 310.187 590.767C311.84 592.335 313.144 594.372 314.099 596.878C315.053 599.366 315.531 602.392 315.531 605.955V608.665H284.312V602.938H308.039C308.039 600.926 307.63 599.145 306.812 597.594C305.994 596.026 304.843 594.79 303.36 593.886C301.894 592.983 300.173 592.531 298.195 592.531C296.048 592.531 294.173 593.06 292.57 594.116C290.985 595.156 289.758 596.52 288.889 598.207C288.036 599.878 287.61 601.693 287.61 603.653V608.128C287.61 610.753 288.07 612.986 288.991 614.827C289.928 616.668 291.232 618.074 292.903 619.045C294.573 620 296.525 620.477 298.758 620.477C300.207 620.477 301.528 620.273 302.721 619.864C303.914 619.437 304.945 618.807 305.815 617.972C306.684 617.136 307.349 616.105 307.809 614.878L315.045 616.182C314.465 618.312 313.426 620.179 311.926 621.781C310.443 623.366 308.576 624.602 306.326 625.489C304.093 626.358 301.545 626.793 298.681 626.793ZM339.278 626V586.727H346.616V593.119H347.102C347.92 590.955 349.258 589.267 351.116 588.057C352.974 586.83 355.199 586.216 357.79 586.216C360.415 586.216 362.613 586.83 364.386 588.057C366.176 589.284 367.497 590.972 368.349 593.119H368.758C369.696 591.023 371.187 589.352 373.233 588.108C375.278 586.847 377.716 586.216 380.545 586.216C384.108 586.216 387.014 587.332 389.264 589.565C391.531 591.798 392.665 595.165 392.665 599.665V626H385.02V600.381C385.02 597.722 384.295 595.795 382.846 594.602C381.398 593.409 379.667 592.812 377.656 592.812C375.167 592.812 373.233 593.58 371.852 595.114C370.471 596.631 369.781 598.582 369.781 600.969V626H362.162V599.895C362.162 597.764 361.497 596.051 360.167 594.756C358.838 593.46 357.108 592.812 354.977 592.812C353.528 592.812 352.19 593.196 350.963 593.963C349.753 594.713 348.773 595.761 348.022 597.108C347.29 598.455 346.923 600.014 346.923 601.787V626H339.278ZM417.942 626.793C414.073 626.793 410.741 625.966 407.945 624.312C405.167 622.642 403.019 620.298 401.502 617.281C400.002 614.247 399.252 610.693 399.252 606.619C399.252 602.597 400.002 599.051 401.502 595.983C403.019 592.915 405.133 590.52 407.843 588.798C410.57 587.077 413.758 586.216 417.405 586.216C419.621 586.216 421.769 586.582 423.849 587.315C425.928 588.048 427.795 589.199 429.448 590.767C431.101 592.335 432.405 594.372 433.36 596.878C434.315 599.366 434.792 602.392 434.792 605.955V608.665H403.573V602.938H427.3C427.3 600.926 426.891 599.145 426.073 597.594C425.255 596.026 424.104 594.79 422.621 593.886C421.155 592.983 419.434 592.531 417.457 592.531C415.309 592.531 413.434 593.06 411.832 594.116C410.246 595.156 409.019 596.52 408.15 598.207C407.297 599.878 406.871 601.693 406.871 603.653V608.128C406.871 610.753 407.332 612.986 408.252 614.827C409.19 616.668 410.494 618.074 412.164 619.045C413.834 620 415.786 620.477 418.019 620.477C419.468 620.477 420.789 620.273 421.982 619.864C423.175 619.437 424.207 618.807 425.076 617.972C425.945 617.136 426.61 616.105 427.07 614.878L434.306 616.182C433.726 618.312 432.687 620.179 431.187 621.781C429.704 623.366 427.837 624.602 425.587 625.489C423.354 626.358 420.806 626.793 417.942 626.793ZM470.808 596.315L463.879 597.543C463.59 596.656 463.129 595.812 462.499 595.011C461.885 594.21 461.05 593.554 459.993 593.043C458.936 592.531 457.615 592.276 456.03 592.276C453.865 592.276 452.058 592.761 450.609 593.733C449.161 594.687 448.436 595.923 448.436 597.44C448.436 598.753 448.922 599.81 449.894 600.611C450.865 601.412 452.433 602.068 454.598 602.58L460.837 604.011C464.45 604.847 467.144 606.134 468.916 607.872C470.689 609.611 471.575 611.869 471.575 614.648C471.575 617 470.894 619.097 469.53 620.938C468.183 622.761 466.3 624.193 463.879 625.233C461.476 626.273 458.689 626.793 455.519 626.793C451.121 626.793 447.533 625.855 444.754 623.98C441.976 622.088 440.271 619.403 439.641 615.926L447.03 614.801C447.49 616.727 448.436 618.185 449.868 619.173C451.3 620.145 453.166 620.631 455.467 620.631C457.973 620.631 459.976 620.111 461.476 619.071C462.976 618.014 463.726 616.727 463.726 615.21C463.726 613.983 463.266 612.952 462.345 612.116C461.442 611.281 460.053 610.651 458.178 610.224L451.53 608.767C447.865 607.932 445.155 606.602 443.399 604.778C441.661 602.955 440.791 600.645 440.791 597.849C440.791 595.531 441.439 593.503 442.734 591.764C444.03 590.026 445.82 588.67 448.104 587.699C450.388 586.71 453.004 586.216 455.953 586.216C460.198 586.216 463.538 587.136 465.976 588.977C468.413 590.801 470.024 593.247 470.808 596.315ZM485.731 602.682V626H478.086V573.636H485.629V593.119H486.115C487.035 591.006 488.441 589.327 490.333 588.082C492.225 586.838 494.697 586.216 497.748 586.216C500.441 586.216 502.794 586.77 504.805 587.878C506.833 588.986 508.402 590.639 509.509 592.838C510.634 595.02 511.197 597.747 511.197 601.02V626H503.552V601.94C503.552 599.06 502.811 596.827 501.328 595.241C499.845 593.639 497.782 592.838 495.14 592.838C493.333 592.838 491.714 593.222 490.282 593.989C488.867 594.756 487.751 595.881 486.933 597.364C486.132 598.83 485.731 600.602 485.731 602.682ZM536.43 626.793C532.561 626.793 529.228 625.966 526.433 624.312C523.654 622.642 521.507 620.298 519.99 617.281C518.49 614.247 517.74 610.693 517.74 606.619C517.74 602.597 518.49 599.051 519.99 595.983C521.507 592.915 523.62 590.52 526.331 588.798C529.058 587.077 532.245 586.216 535.893 586.216C538.109 586.216 540.257 586.582 542.336 587.315C544.416 588.048 546.282 589.199 547.936 590.767C549.589 592.335 550.893 594.372 551.848 596.878C552.802 599.366 553.279 602.392 553.279 605.955V608.665H522.061V602.938H545.788C545.788 600.926 545.379 599.145 544.561 597.594C543.743 596.026 542.592 594.79 541.109 593.886C539.643 592.983 537.922 592.531 535.944 592.531C533.797 592.531 531.922 593.06 530.319 594.116C528.734 595.156 527.507 596.52 526.637 598.207C525.785 599.878 525.359 601.693 525.359 603.653V608.128C525.359 610.753 525.819 612.986 526.74 614.827C527.677 616.668 528.981 618.074 530.652 619.045C532.322 620 534.274 620.477 536.507 620.477C537.956 620.477 539.277 620.273 540.47 619.864C541.663 619.437 542.694 618.807 543.564 617.972C544.433 617.136 545.098 616.105 545.558 614.878L552.794 616.182C552.214 618.312 551.174 620.179 549.674 621.781C548.191 623.366 546.325 624.602 544.075 625.489C541.842 626.358 539.294 626.793 536.43 626.793ZM589.296 596.315L582.367 597.543C582.077 596.656 581.617 595.812 580.986 595.011C580.373 594.21 579.537 593.554 578.481 593.043C577.424 592.531 576.103 592.276 574.518 592.276C572.353 592.276 570.546 592.761 569.097 593.733C567.648 594.687 566.924 595.923 566.924 597.44C566.924 598.753 567.41 599.81 568.381 600.611C569.353 601.412 570.921 602.068 573.086 602.58L579.324 604.011C582.938 604.847 585.631 606.134 587.404 607.872C589.177 609.611 590.063 611.869 590.063 614.648C590.063 617 589.381 619.097 588.018 620.938C586.671 622.761 584.787 624.193 582.367 625.233C579.964 626.273 577.177 626.793 574.006 626.793C569.608 626.793 566.02 625.855 563.242 623.98C560.464 622.088 558.759 619.403 558.128 615.926L565.518 614.801C565.978 616.727 566.924 618.185 568.356 619.173C569.787 620.145 571.654 620.631 573.955 620.631C576.461 620.631 578.464 620.111 579.964 619.071C581.464 618.014 582.214 616.727 582.214 615.21C582.214 613.983 581.753 612.952 580.833 612.116C579.929 611.281 578.54 610.651 576.665 610.224L570.018 608.767C566.353 607.932 563.643 606.602 561.887 604.778C560.148 602.955 559.279 600.645 559.279 597.849C559.279 595.531 559.927 593.503 561.222 591.764C562.518 590.026 564.307 588.67 566.591 587.699C568.876 586.71 571.492 586.216 574.441 586.216C578.685 586.216 582.026 587.136 584.464 588.977C586.901 590.801 588.512 593.247 589.296 596.315Z" fill="black"/>
</svg>
