<svg width="1200" height="900" viewBox="0 0 1200 900" fill="none" xmlns="http://www.w3.org/2000/svg">
<rect width="1200" height="900" fill="white"/>
<path d="M73.0597 371.273H90.2827L106.866 402.594H107.577L124.161 371.273H141.384L114.857 418.29V444H99.5866V418.29L73.0597 371.273ZM160.085 445.065C154.569 445.065 149.799 443.893 145.774 441.55C141.773 439.182 138.684 435.892 136.506 431.678C134.328 427.44 133.239 422.527 133.239 416.94C133.239 411.306 134.328 406.382 136.506 402.168C138.684 397.93 141.773 394.639 145.774 392.295C149.799 389.928 154.569 388.744 160.085 388.744C165.601 388.744 170.36 389.928 174.361 392.295C178.386 394.639 181.487 397.93 183.665 402.168C185.843 406.382 186.932 411.306 186.932 416.94C186.932 422.527 185.843 427.44 183.665 431.678C181.487 435.892 178.386 439.182 174.361 441.55C170.36 443.893 165.601 445.065 160.085 445.065ZM160.156 433.347C162.666 433.347 164.761 432.636 166.442 431.216C168.123 429.772 169.389 427.807 170.242 425.321C171.118 422.835 171.556 420.006 171.556 416.834C171.556 413.661 171.118 410.832 170.242 408.347C169.389 405.861 168.123 403.896 166.442 402.452C164.761 401.008 162.666 400.286 160.156 400.286C157.623 400.286 155.493 401.008 153.764 402.452C152.06 403.896 150.77 405.861 149.894 408.347C149.041 410.832 148.615 413.661 148.615 416.834C148.615 420.006 149.041 422.835 149.894 425.321C150.77 427.807 152.06 429.772 153.764 431.216C155.493 432.636 157.623 433.347 160.156 433.347ZM229.116 420.776V389.455H244.244V444H229.719V434.092H229.151C227.92 437.288 225.872 439.857 223.008 441.798C220.167 443.74 216.699 444.71 212.603 444.71C208.957 444.71 205.749 443.882 202.979 442.224C200.209 440.567 198.043 438.212 196.481 435.158C194.942 432.104 194.161 428.446 194.137 424.185V389.455H209.265V421.486C209.289 424.705 210.153 427.25 211.857 429.121C213.562 430.991 215.846 431.926 218.711 431.926C220.534 431.926 222.238 431.512 223.825 430.683C225.411 429.831 226.689 428.576 227.66 426.919C228.654 425.262 229.139 423.214 229.116 420.776ZM253.713 444V389.455H268.379V398.972H268.947C269.941 395.586 271.61 393.029 273.954 391.301C276.298 389.549 278.997 388.673 282.051 388.673C282.808 388.673 283.625 388.721 284.501 388.815C285.377 388.91 286.146 389.04 286.809 389.206V402.629C286.099 402.416 285.116 402.227 283.862 402.061C282.607 401.895 281.459 401.812 280.417 401.812C278.192 401.812 276.203 402.298 274.451 403.268C272.723 404.215 271.35 405.541 270.332 407.246C269.338 408.95 268.84 410.915 268.84 413.141V444H253.713ZM337.157 445.065C331.641 445.065 326.87 443.893 322.846 441.55C318.845 439.182 315.755 435.892 313.577 431.678C311.399 427.44 310.31 422.527 310.31 416.94C310.31 411.306 311.399 406.382 313.577 402.168C315.755 397.93 318.845 394.639 322.846 392.295C326.87 389.928 331.641 388.744 337.157 388.744C342.673 388.744 347.431 389.928 351.432 392.295C355.457 394.639 358.558 397.93 360.736 402.168C362.914 406.382 364.003 411.306 364.003 416.94C364.003 422.527 362.914 427.44 360.736 431.678C358.558 435.892 355.457 439.182 351.432 441.55C347.431 443.893 342.673 445.065 337.157 445.065ZM337.228 433.347C339.737 433.347 341.832 432.636 343.513 431.216C345.194 429.772 346.461 427.807 347.313 425.321C348.189 422.835 348.627 420.006 348.627 416.834C348.627 413.661 348.189 410.832 347.313 408.347C346.461 405.861 345.194 403.896 343.513 402.452C341.832 401.008 339.737 400.286 337.228 400.286C334.695 400.286 332.564 401.008 330.836 402.452C329.131 403.896 327.841 405.861 326.965 408.347C326.113 410.832 325.687 413.661 325.687 416.834C325.687 420.006 326.113 422.835 326.965 425.321C327.841 427.807 329.131 429.772 330.836 431.216C332.564 432.636 334.695 433.347 337.228 433.347ZM371.208 464.455V389.455H386.123V398.616H386.798C387.461 397.149 388.42 395.657 389.674 394.142C390.953 392.603 392.61 391.325 394.646 390.307C396.706 389.265 399.262 388.744 402.316 388.744C406.294 388.744 409.963 389.786 413.325 391.869C416.687 393.929 419.374 397.042 421.386 401.209C423.398 405.352 424.404 410.548 424.404 416.798C424.404 422.883 423.422 428.02 421.457 432.21C419.516 436.377 416.864 439.537 413.502 441.692C410.164 443.822 406.424 444.888 402.281 444.888C399.345 444.888 396.848 444.402 394.788 443.432C392.752 442.461 391.083 441.242 389.781 439.774C388.479 438.283 387.484 436.779 386.798 435.264H386.336V464.455H371.208ZM386.017 416.727C386.017 419.971 386.466 422.8 387.366 425.214C388.266 427.629 389.568 429.511 391.272 430.861C392.977 432.187 395.048 432.849 397.487 432.849C399.949 432.849 402.032 432.175 403.737 430.825C405.441 429.452 406.732 427.558 407.608 425.143C408.507 422.705 408.957 419.9 408.957 416.727C408.957 413.579 408.519 410.809 407.643 408.418C406.767 406.027 405.477 404.156 403.772 402.807C402.068 401.457 399.973 400.783 397.487 400.783C395.025 400.783 392.941 401.434 391.237 402.736C389.556 404.038 388.266 405.884 387.366 408.276C386.466 410.667 386.017 413.484 386.017 416.727ZM460.871 389.455V400.818H428.023V389.455H460.871ZM435.48 376.386H450.608V427.239C450.608 428.635 450.821 429.724 451.247 430.506C451.673 431.263 452.265 431.796 453.023 432.104C453.804 432.411 454.704 432.565 455.722 432.565C456.432 432.565 457.142 432.506 457.852 432.388C458.563 432.246 459.107 432.139 459.486 432.068L461.865 443.325C461.108 443.562 460.042 443.834 458.669 444.142C457.296 444.473 455.627 444.675 453.662 444.746C450.016 444.888 446.82 444.402 444.074 443.29C441.351 442.177 439.233 440.449 437.717 438.105C436.202 435.761 435.457 432.802 435.48 429.227V376.386ZM468.094 444V389.455H483.222V444H468.094ZM475.693 382.423C473.444 382.423 471.515 381.678 469.905 380.186C468.319 378.671 467.525 376.86 467.525 374.753C467.525 372.67 468.319 370.882 469.905 369.391C471.515 367.875 473.444 367.118 475.693 367.118C477.942 367.118 479.86 367.875 481.446 369.391C483.056 370.882 483.861 372.67 483.861 374.753C483.861 376.86 483.056 378.671 481.446 380.186C479.86 381.678 477.942 382.423 475.693 382.423ZM517.353 445.065C511.837 445.065 507.067 443.893 503.042 441.55C499.041 439.182 495.952 435.892 493.774 431.678C491.596 427.44 490.506 422.527 490.506 416.94C490.506 411.306 491.596 406.382 493.774 402.168C495.952 397.93 499.041 394.639 503.042 392.295C507.067 389.928 511.837 388.744 517.353 388.744C522.869 388.744 527.628 389.928 531.629 392.295C535.653 394.639 538.755 397.93 540.933 402.168C543.111 406.382 544.2 411.306 544.2 416.94C544.2 422.527 543.111 427.44 540.933 431.678C538.755 435.892 535.653 439.182 531.629 441.55C527.628 443.893 522.869 445.065 517.353 445.065ZM517.424 433.347C519.934 433.347 522.029 432.636 523.71 431.216C525.39 429.772 526.657 427.807 527.509 425.321C528.385 422.835 528.823 420.006 528.823 416.834C528.823 413.661 528.385 410.832 527.509 408.347C526.657 405.861 525.39 403.896 523.71 402.452C522.029 401.008 519.934 400.286 517.424 400.286C514.891 400.286 512.76 401.008 511.032 402.452C509.328 403.896 508.037 405.861 507.161 408.347C506.309 410.832 505.883 413.661 505.883 416.834C505.883 420.006 506.309 422.835 507.161 425.321C508.037 427.807 509.328 429.772 511.032 431.216C512.76 432.636 514.891 433.347 517.424 433.347ZM566.533 412.466V444H551.405V389.455H565.822V399.078H566.462C567.669 395.906 569.693 393.396 572.534 391.55C575.375 389.679 578.82 388.744 582.868 388.744C586.656 388.744 589.958 389.573 592.775 391.23C595.593 392.887 597.783 395.255 599.345 398.332C600.908 401.386 601.689 405.032 601.689 409.27V444H586.561V411.969C586.585 408.631 585.732 406.027 584.004 404.156C582.276 402.262 579.897 401.315 576.866 401.315C574.83 401.315 573.031 401.753 571.469 402.629C569.93 403.505 568.722 404.784 567.846 406.464C566.994 408.122 566.556 410.122 566.533 412.466ZM656.364 405.009L642.514 405.861C642.278 404.677 641.769 403.612 640.987 402.665C640.206 401.694 639.176 400.925 637.898 400.357C636.643 399.765 635.14 399.469 633.388 399.469C631.044 399.469 629.067 399.966 627.457 400.96C625.848 401.931 625.043 403.233 625.043 404.866C625.043 406.169 625.564 407.269 626.605 408.169C627.647 409.069 629.434 409.791 631.967 410.335L641.84 412.324C647.143 413.413 651.096 415.165 653.7 417.58C656.305 419.994 657.607 423.167 657.607 427.097C657.607 430.671 656.553 433.808 654.446 436.507C652.363 439.206 649.498 441.313 645.852 442.828C642.23 444.32 638.052 445.065 633.317 445.065C626.096 445.065 620.343 443.562 616.058 440.555C611.797 437.525 609.299 433.406 608.565 428.197L623.445 427.416C623.894 429.618 624.983 431.299 626.712 432.459C628.44 433.595 630.653 434.163 633.352 434.163C636.004 434.163 638.135 433.654 639.744 432.636C641.378 431.595 642.206 430.257 642.23 428.624C642.206 427.25 641.626 426.126 640.49 425.25C639.354 424.35 637.602 423.664 635.234 423.19L625.788 421.308C620.462 420.243 616.496 418.396 613.892 415.768C611.312 413.141 610.021 409.791 610.021 405.719C610.021 402.215 610.968 399.196 612.862 396.663C614.78 394.13 617.467 392.177 620.923 390.804C624.403 389.431 628.475 388.744 633.139 388.744C640.028 388.744 645.45 390.2 649.403 393.112C653.381 396.024 655.701 399.99 656.364 405.009Z" fill="black"/>
<rect x="71" y="498" width="1038" height="19" fill="black"/>
<path d="M105.312 587.392C105.04 584.972 103.915 583.097 101.938 581.767C99.9602 580.42 97.4716 579.747 94.4716 579.747C92.3239 579.747 90.4659 580.088 88.8977 580.77C87.3295 581.435 86.1108 582.355 85.2415 583.531C84.3892 584.69 83.9631 586.011 83.9631 587.494C83.9631 588.739 84.2528 589.812 84.8324 590.716C85.429 591.619 86.2045 592.378 87.1591 592.991C88.1307 593.588 89.1705 594.091 90.2784 594.5C91.3864 594.892 92.4517 595.216 93.4744 595.472L98.5881 596.801C100.259 597.21 101.972 597.764 103.727 598.463C105.483 599.162 107.111 600.082 108.611 601.224C110.111 602.366 111.321 603.781 112.241 605.469C113.179 607.156 113.648 609.176 113.648 611.528C113.648 614.494 112.881 617.128 111.347 619.429C109.83 621.73 107.622 623.545 104.724 624.875C101.844 626.205 98.358 626.869 94.267 626.869C90.3466 626.869 86.9545 626.247 84.0909 625.003C81.2273 623.759 78.9858 621.994 77.3665 619.71C75.7472 617.409 74.8523 614.682 74.6818 611.528H82.608C82.7614 613.42 83.375 614.997 84.4489 616.259C85.5398 617.503 86.929 618.432 88.6165 619.045C90.321 619.642 92.1875 619.94 94.2159 619.94C96.4489 619.94 98.4347 619.591 100.173 618.892C101.929 618.176 103.31 617.187 104.315 615.926C105.321 614.648 105.824 613.156 105.824 611.452C105.824 609.901 105.381 608.631 104.494 607.642C103.625 606.653 102.44 605.835 100.94 605.188C99.4574 604.54 97.7784 603.969 95.9034 603.474L89.7159 601.787C85.5227 600.645 82.1989 598.966 79.7443 596.75C77.3068 594.534 76.0881 591.602 76.0881 587.955C76.0881 584.937 76.9063 582.304 78.5426 580.054C80.179 577.804 82.3949 576.057 85.1903 574.812C87.9858 573.551 91.1392 572.92 94.6506 572.92C98.196 572.92 101.324 573.543 104.034 574.787C106.761 576.031 108.909 577.744 110.477 579.926C112.045 582.091 112.864 584.58 112.932 587.392H105.312ZM137.507 626.793C133.637 626.793 130.305 625.966 127.509 624.312C124.731 622.642 122.583 620.298 121.066 617.281C119.566 614.247 118.816 610.693 118.816 606.619C118.816 602.597 119.566 599.051 121.066 595.983C122.583 592.915 124.697 590.52 127.407 588.798C130.134 587.077 133.322 586.216 136.97 586.216C139.186 586.216 141.333 586.582 143.413 587.315C145.492 588.048 147.359 589.199 149.012 590.767C150.666 592.335 151.97 594.372 152.924 596.878C153.879 599.366 154.356 602.392 154.356 605.955V608.665H123.137V602.938H146.864C146.864 600.926 146.455 599.145 145.637 597.594C144.819 596.026 143.668 594.79 142.186 593.886C140.72 592.983 138.998 592.531 137.021 592.531C134.873 592.531 132.998 593.06 131.396 594.116C129.811 595.156 128.583 596.52 127.714 598.207C126.862 599.878 126.436 601.693 126.436 603.653V608.128C126.436 610.753 126.896 612.986 127.816 614.827C128.754 616.668 130.058 618.074 131.728 619.045C133.399 620 135.35 620.477 137.583 620.477C139.032 620.477 140.353 620.273 141.546 619.864C142.739 619.437 143.771 618.807 144.64 617.972C145.509 617.136 146.174 616.105 146.634 614.878L153.87 616.182C153.291 618.312 152.251 620.179 150.751 621.781C149.268 623.366 147.401 624.602 145.151 625.489C142.918 626.358 140.37 626.793 137.507 626.793ZM160.943 626V586.727H168.333V592.966H168.742C169.458 590.852 170.719 589.19 172.526 587.98C174.35 586.753 176.412 586.139 178.713 586.139C179.191 586.139 179.753 586.156 180.401 586.19C181.066 586.224 181.586 586.267 181.961 586.318V593.631C181.654 593.545 181.108 593.452 180.324 593.349C179.54 593.23 178.756 593.17 177.972 593.17C176.165 593.17 174.554 593.554 173.14 594.321C171.742 595.071 170.634 596.119 169.816 597.466C168.997 598.795 168.588 600.312 168.588 602.017V626H160.943ZM221.473 586.727L207.232 626H199.05L184.783 586.727H192.991L202.937 616.949H203.346L213.266 586.727H221.473ZM226.763 626V586.727H234.408V626H226.763ZM230.624 580.668C229.295 580.668 228.153 580.224 227.198 579.338C226.261 578.435 225.792 577.361 225.792 576.116C225.792 574.855 226.261 573.781 227.198 572.895C228.153 571.991 229.295 571.54 230.624 571.54C231.954 571.54 233.087 571.991 234.025 572.895C234.979 573.781 235.457 574.855 235.457 576.116C235.457 577.361 234.979 578.435 234.025 579.338C233.087 580.224 231.954 580.668 230.624 580.668ZM259.341 626.793C255.54 626.793 252.267 625.932 249.523 624.21C246.795 622.472 244.699 620.077 243.233 617.026C241.767 613.974 241.034 610.48 241.034 606.543C241.034 602.554 241.784 599.034 243.284 595.983C244.784 592.915 246.898 590.52 249.625 588.798C252.352 587.077 255.565 586.216 259.264 586.216C262.247 586.216 264.906 586.77 267.242 587.878C269.577 588.969 271.46 590.503 272.892 592.48C274.341 594.457 275.202 596.767 275.474 599.409H268.034C267.625 597.568 266.688 595.983 265.222 594.653C263.773 593.324 261.83 592.659 259.392 592.659C257.261 592.659 255.395 593.222 253.793 594.347C252.207 595.455 250.972 597.04 250.085 599.102C249.199 601.148 248.756 603.568 248.756 606.364C248.756 609.227 249.19 611.699 250.06 613.778C250.929 615.858 252.156 617.469 253.742 618.611C255.344 619.753 257.227 620.324 259.392 620.324C260.841 620.324 262.153 620.06 263.33 619.531C264.523 618.986 265.52 618.21 266.321 617.205C267.139 616.199 267.71 614.989 268.034 613.574H275.474C275.202 616.114 274.375 618.381 272.994 620.375C271.614 622.369 269.764 623.937 267.446 625.08C265.145 626.222 262.443 626.793 259.341 626.793ZM298.681 626.793C294.812 626.793 291.48 625.966 288.684 624.312C285.906 622.642 283.758 620.298 282.241 617.281C280.741 614.247 279.991 610.693 279.991 606.619C279.991 602.597 280.741 599.051 282.241 595.983C283.758 592.915 285.872 590.52 288.582 588.798C291.309 587.077 294.497 586.216 298.144 586.216C300.36 586.216 302.508 586.582 304.588 587.315C306.667 588.048 308.534 589.199 310.187 590.767C311.84 592.335 313.144 594.372 314.099 596.878C315.053 599.366 315.531 602.392 315.531 605.955V608.665H284.312V602.938H308.039C308.039 600.926 307.63 599.145 306.812 597.594C305.994 596.026 304.843 594.79 303.36 593.886C301.894 592.983 300.173 592.531 298.195 592.531C296.048 592.531 294.173 593.06 292.57 594.116C290.985 595.156 289.758 596.52 288.889 598.207C288.036 599.878 287.61 601.693 287.61 603.653V608.128C287.61 610.753 288.07 612.986 288.991 614.827C289.928 616.668 291.232 618.074 292.903 619.045C294.573 620 296.525 620.477 298.758 620.477C300.207 620.477 301.528 620.273 302.721 619.864C303.914 619.437 304.945 618.807 305.815 617.972C306.684 617.136 307.349 616.105 307.809 614.878L315.045 616.182C314.465 618.312 313.426 620.179 311.926 621.781C310.443 623.366 308.576 624.602 306.326 625.489C304.093 626.358 301.545 626.793 298.681 626.793ZM351.547 596.315L344.618 597.543C344.328 596.656 343.868 595.812 343.238 595.011C342.624 594.21 341.789 593.554 340.732 593.043C339.675 592.531 338.354 592.276 336.769 592.276C334.604 592.276 332.797 592.761 331.348 593.733C329.899 594.687 329.175 595.923 329.175 597.44C329.175 598.753 329.661 599.81 330.632 600.611C331.604 601.412 333.172 602.068 335.337 602.58L341.576 604.011C345.189 604.847 347.882 606.134 349.655 607.872C351.428 609.611 352.314 611.869 352.314 614.648C352.314 617 351.632 619.097 350.269 620.938C348.922 622.761 347.039 624.193 344.618 625.233C342.215 626.273 339.428 626.793 336.257 626.793C331.86 626.793 328.272 625.855 325.493 623.98C322.715 622.088 321.01 619.403 320.38 615.926L327.769 614.801C328.229 616.727 329.175 618.185 330.607 619.173C332.039 620.145 333.905 620.631 336.206 620.631C338.712 620.631 340.715 620.111 342.215 619.071C343.715 618.014 344.465 616.727 344.465 615.21C344.465 613.983 344.005 612.952 343.084 612.116C342.181 611.281 340.792 610.651 338.917 610.224L332.269 608.767C328.604 607.932 325.894 606.602 324.138 604.778C322.399 602.955 321.53 600.645 321.53 597.849C321.53 595.531 322.178 593.503 323.473 591.764C324.769 590.026 326.559 588.67 328.843 587.699C331.127 586.71 333.743 586.216 336.692 586.216C340.936 586.216 344.277 587.136 346.715 588.977C349.152 590.801 350.763 593.247 351.547 596.315ZM387.414 626.869C384.925 626.869 382.675 626.409 380.664 625.489C378.653 624.551 377.059 623.196 375.883 621.423C374.724 619.651 374.144 617.477 374.144 614.903C374.144 612.687 374.57 610.864 375.422 609.432C376.275 608 377.425 606.866 378.874 606.031C380.323 605.196 381.942 604.565 383.732 604.139C385.522 603.713 387.346 603.389 389.204 603.168C391.556 602.895 393.465 602.673 394.931 602.503C396.397 602.315 397.462 602.017 398.127 601.608C398.792 601.199 399.124 600.534 399.124 599.614V599.435C399.124 597.202 398.494 595.472 397.232 594.244C395.988 593.017 394.13 592.403 391.658 592.403C389.084 592.403 387.056 592.974 385.573 594.116C384.107 595.241 383.093 596.494 382.53 597.875L375.346 596.239C376.198 593.852 377.442 591.926 379.079 590.46C380.732 588.977 382.633 587.903 384.78 587.239C386.928 586.557 389.187 586.216 391.556 586.216C393.124 586.216 394.786 586.403 396.542 586.778C398.315 587.136 399.968 587.801 401.502 588.773C403.053 589.744 404.323 591.134 405.312 592.94C406.3 594.73 406.795 597.057 406.795 599.92V626H399.329V620.631H399.022C398.528 621.619 397.786 622.591 396.797 623.545C395.809 624.5 394.539 625.293 392.988 625.923C391.437 626.554 389.579 626.869 387.414 626.869ZM389.076 620.733C391.19 620.733 392.996 620.315 394.496 619.48C396.013 618.645 397.164 617.554 397.948 616.207C398.749 614.844 399.15 613.386 399.15 611.835V606.773C398.877 607.045 398.349 607.301 397.565 607.54C396.798 607.761 395.92 607.957 394.931 608.128C393.942 608.281 392.979 608.426 392.042 608.562C391.104 608.682 390.32 608.784 389.69 608.869C388.207 609.057 386.851 609.372 385.624 609.815C384.414 610.259 383.442 610.898 382.709 611.733C381.994 612.551 381.636 613.642 381.636 615.006C381.636 616.898 382.334 618.33 383.732 619.301C385.13 620.256 386.911 620.733 389.076 620.733ZM433.415 586.727V592.864H411.963V586.727H433.415ZM417.716 577.318H425.361V614.469C425.361 615.952 425.582 617.068 426.026 617.818C426.469 618.551 427.04 619.054 427.739 619.327C428.455 619.582 429.23 619.71 430.065 619.71C430.679 619.71 431.216 619.668 431.676 619.582C432.136 619.497 432.494 619.429 432.75 619.378L434.131 625.693C433.688 625.864 433.057 626.034 432.239 626.205C431.421 626.392 430.398 626.494 429.171 626.511C427.159 626.545 425.284 626.188 423.546 625.438C421.807 624.688 420.401 623.528 419.327 621.96C418.253 620.392 417.716 618.423 417.716 616.054V577.318ZM486.566 596.315L479.637 597.543C479.347 596.656 478.887 595.812 478.256 595.011C477.642 594.21 476.807 593.554 475.75 593.043C474.694 592.531 473.373 592.276 471.787 592.276C469.623 592.276 467.816 592.761 466.367 593.733C464.918 594.687 464.194 595.923 464.194 597.44C464.194 598.753 464.679 599.81 465.651 600.611C466.623 601.412 468.191 602.068 470.355 602.58L476.594 604.011C480.208 604.847 482.901 606.134 484.674 607.872C486.446 609.611 487.333 611.869 487.333 614.648C487.333 617 486.651 619.097 485.287 620.938C483.941 622.761 482.057 624.193 479.637 625.233C477.233 626.273 474.446 626.793 471.276 626.793C466.878 626.793 463.29 625.855 460.512 623.98C457.733 622.088 456.029 619.403 455.398 615.926L462.787 614.801C463.248 616.727 464.194 618.185 465.625 619.173C467.057 620.145 468.924 620.631 471.225 620.631C473.73 620.631 475.733 620.111 477.233 619.071C478.733 618.014 479.483 616.727 479.483 615.21C479.483 613.983 479.023 612.952 478.103 612.116C477.199 611.281 475.81 610.651 473.935 610.224L467.287 608.767C463.623 607.932 460.912 606.602 459.157 604.778C457.418 602.955 456.549 600.645 456.549 597.849C456.549 595.531 457.196 593.503 458.492 591.764C459.787 590.026 461.577 588.67 463.861 587.699C466.145 586.71 468.762 586.216 471.711 586.216C475.955 586.216 479.296 587.136 481.733 588.977C484.171 590.801 485.782 593.247 486.566 596.315ZM510.386 626.793C506.585 626.793 503.312 625.932 500.568 624.21C497.841 622.472 495.744 620.077 494.278 617.026C492.812 613.974 492.079 610.48 492.079 606.543C492.079 602.554 492.829 599.034 494.329 595.983C495.829 592.915 497.943 590.52 500.67 588.798C503.398 587.077 506.611 586.216 510.309 586.216C513.292 586.216 515.952 586.77 518.287 587.878C520.622 588.969 522.505 590.503 523.937 592.48C525.386 594.457 526.247 596.767 526.52 599.409H519.079C518.67 597.568 517.733 595.983 516.267 594.653C514.818 593.324 512.875 592.659 510.437 592.659C508.307 592.659 506.44 593.222 504.838 594.347C503.253 595.455 502.017 597.04 501.13 599.102C500.244 601.148 499.801 603.568 499.801 606.364C499.801 609.227 500.236 611.699 501.105 613.778C501.974 615.858 503.202 617.469 504.787 618.611C506.389 619.753 508.273 620.324 510.437 620.324C511.886 620.324 513.199 620.06 514.375 619.531C515.568 618.986 516.565 618.21 517.366 617.205C518.184 616.199 518.755 614.989 519.079 613.574H526.52C526.247 616.114 525.42 618.381 524.04 620.375C522.659 622.369 520.809 623.937 518.491 625.08C516.19 626.222 513.488 626.793 510.386 626.793ZM544.229 626.869C541.741 626.869 539.491 626.409 537.479 625.489C535.468 624.551 533.874 623.196 532.698 621.423C531.539 619.651 530.959 617.477 530.959 614.903C530.959 612.687 531.386 610.864 532.238 609.432C533.09 608 534.241 606.866 535.69 606.031C537.138 605.196 538.758 604.565 540.548 604.139C542.337 603.713 544.161 603.389 546.019 603.168C548.371 602.895 550.281 602.673 551.746 602.503C553.212 602.315 554.278 602.017 554.942 601.608C555.607 601.199 555.94 600.534 555.94 599.614V599.435C555.94 597.202 555.309 595.472 554.048 594.244C552.803 593.017 550.945 592.403 548.474 592.403C545.9 592.403 543.871 592.974 542.388 594.116C540.923 595.241 539.908 596.494 539.346 597.875L532.161 596.239C533.013 593.852 534.258 591.926 535.894 590.46C537.548 588.977 539.448 587.903 541.596 587.239C543.744 586.557 546.002 586.216 548.371 586.216C549.94 586.216 551.602 586.403 553.357 586.778C555.13 587.136 556.783 587.801 558.317 588.773C559.869 589.744 561.138 591.134 562.127 592.94C563.116 594.73 563.61 597.057 563.61 599.92V626H556.144V620.631H555.837C555.343 621.619 554.602 622.591 553.613 623.545C552.624 624.5 551.354 625.293 549.803 625.923C548.252 626.554 546.394 626.869 544.229 626.869ZM545.891 620.733C548.005 620.733 549.812 620.315 551.312 619.48C552.829 618.645 553.979 617.554 554.763 616.207C555.565 614.844 555.965 613.386 555.965 611.835V606.773C555.692 607.045 555.164 607.301 554.38 607.54C553.613 607.761 552.735 607.957 551.746 608.128C550.758 608.281 549.795 608.426 548.857 608.562C547.92 608.682 547.136 608.784 546.505 608.869C545.022 609.057 543.667 609.372 542.44 609.815C541.229 610.259 540.258 610.898 539.525 611.733C538.809 612.551 538.451 613.642 538.451 615.006C538.451 616.898 539.15 618.33 540.548 619.301C541.945 620.256 543.727 620.733 545.891 620.733ZM579.543 573.636V626H571.898V573.636H579.543ZM604.859 626.793C600.99 626.793 597.657 625.966 594.862 624.312C592.083 622.642 589.936 620.298 588.419 617.281C586.919 614.247 586.169 610.693 586.169 606.619C586.169 602.597 586.919 599.051 588.419 595.983C589.936 592.915 592.049 590.52 594.759 588.798C597.487 587.077 600.674 586.216 604.322 586.216C606.538 586.216 608.686 586.582 610.765 587.315C612.845 588.048 614.711 589.199 616.365 590.767C618.018 592.335 619.322 594.372 620.277 596.878C621.231 599.366 621.708 602.392 621.708 605.955V608.665H590.49V602.938H614.217C614.217 600.926 613.808 599.145 612.99 597.594C612.171 596.026 611.021 594.79 609.538 593.886C608.072 592.983 606.35 592.531 604.373 592.531C602.225 592.531 600.35 593.06 598.748 594.116C597.163 595.156 595.936 596.52 595.066 598.207C594.214 599.878 593.788 601.693 593.788 603.653V608.128C593.788 610.753 594.248 612.986 595.169 614.827C596.106 616.668 597.41 618.074 599.081 619.045C600.751 620 602.703 620.477 604.936 620.477C606.384 620.477 607.706 620.273 608.899 619.864C610.092 619.437 611.123 618.807 611.992 617.972C612.862 617.136 613.527 616.105 613.987 614.878L621.223 616.182C620.643 618.312 619.603 620.179 618.103 621.781C616.62 623.366 614.754 624.602 612.504 625.489C610.271 626.358 607.723 626.793 604.859 626.793Z" fill="black"/>
</svg>
