<svg width="1200" height="900" viewBox="0 0 1200 900" fill="none" xmlns="http://www.w3.org/2000/svg">
<rect width="1200" height="900" fill="white"/>
<rect x="600" y="74" width="542" height="368" fill="#EFFFBD"/>
<rect x="58" y="442" width="542" height="368" fill="#EFFFBD"/>
<path d="M599 112L570.132 162H627.868L599 112ZM604 772V157H594V772H604Z" fill="black"/>
<path d="M1124 442L1074 413.132V470.868L1124 442ZM74 447L1079 447V437L74 437V447Z" fill="black"/>
<path d="M480.684 82V45.6364H505.187V51.9751H488.372V60.6399H503.926V66.9787H488.372V75.6612H505.258V82H480.684ZM516.478 54.7273L521.485 64.2621L526.617 54.7273H534.376L526.475 68.3636L534.589 82H526.865L521.485 72.5717L516.194 82H508.382L516.478 68.3636L508.666 54.7273H516.478ZM537.868 92.2273V54.7273H545.325V59.3082H545.663C545.994 58.5743 546.474 57.8286 547.101 57.071C547.74 56.3016 548.569 55.6624 549.587 55.1534C550.617 54.6326 551.895 54.3722 553.422 54.3722C555.411 54.3722 557.245 54.893 558.926 55.9347C560.607 56.9645 561.951 58.5211 562.957 60.6044C563.963 62.6759 564.466 65.2741 564.466 68.3991C564.466 71.4413 563.975 74.0099 562.992 76.1051C562.022 78.1884 560.696 79.7687 559.015 80.8459C557.346 81.9112 555.476 82.4439 553.404 82.4439C551.936 82.4439 550.688 82.2012 549.658 81.7159C548.64 81.2306 547.805 80.621 547.154 79.8871C546.503 79.1413 546.006 78.3897 545.663 77.6321H545.432V92.2273H537.868ZM545.272 68.3636C545.272 69.9853 545.497 71.3999 545.947 72.6072C546.397 73.8146 547.048 74.7557 547.9 75.4304C548.752 76.0933 549.788 76.4247 551.007 76.4247C552.238 76.4247 553.28 76.0874 554.132 75.4126C554.985 74.7261 555.63 73.7791 556.068 72.5717C556.517 71.3525 556.742 69.9498 556.742 68.3636C556.742 66.7893 556.523 65.4044 556.085 64.2088C555.647 63.0133 555.002 62.0781 554.15 61.4034C553.298 60.7287 552.25 60.3913 551.007 60.3913C549.776 60.3913 548.735 60.7169 547.882 61.3679C547.042 62.0189 546.397 62.9422 545.947 64.1378C545.497 65.3333 545.272 66.742 545.272 68.3636ZM580.938 82.5327C578.132 82.5327 575.718 81.9645 573.693 80.8281C571.681 79.6799 570.13 78.0582 569.041 75.9631C567.952 73.8561 567.408 71.3643 567.408 68.4879C567.408 65.6825 567.952 63.2204 569.041 61.1016C570.13 58.9827 571.663 57.3314 573.64 56.1477C575.629 54.964 577.961 54.3722 580.636 54.3722C582.435 54.3722 584.11 54.6622 585.661 55.2422C587.223 55.8104 588.584 56.6686 589.744 57.8168C590.916 58.965 591.828 60.4091 592.479 62.1491C593.13 63.8774 593.455 65.9015 593.455 68.2216V70.299H570.426V65.6115H586.335C586.335 64.5225 586.099 63.5578 585.625 62.7173C585.152 61.8769 584.495 61.2199 583.654 60.7464C582.826 60.2611 581.861 60.0185 580.76 60.0185C579.612 60.0185 578.594 60.2848 577.706 60.8175C576.83 61.3383 576.144 62.0426 575.646 62.9304C575.149 63.8063 574.895 64.7829 574.883 65.8601V70.3168C574.883 71.6662 575.132 72.8321 575.629 73.8146C576.138 74.7971 576.854 75.5547 577.777 76.0874C578.7 76.62 579.795 76.8864 581.062 76.8864C581.902 76.8864 582.672 76.768 583.37 76.5312C584.069 76.2945 584.666 75.9394 585.164 75.4659C585.661 74.9924 586.039 74.4124 586.3 73.7259L593.296 74.1875C592.941 75.8684 592.213 77.3362 591.112 78.5909C590.023 79.8338 588.614 80.8045 586.886 81.5028C585.169 82.1894 583.187 82.5327 580.938 82.5327ZM604.955 66.233V82H597.392V54.7273H604.6V59.5391H604.92C605.524 57.9529 606.536 56.6982 607.956 55.7749C609.377 54.8397 611.099 54.3722 613.123 54.3722C615.017 54.3722 616.668 54.7865 618.077 55.6151C619.486 56.4437 620.58 57.6274 621.362 59.1662C622.143 60.6932 622.534 62.5161 622.534 64.6349V82H614.97V65.9844C614.981 64.3153 614.555 63.0133 613.691 62.0781C612.827 61.1312 611.637 60.6577 610.122 60.6577C609.104 60.6577 608.205 60.8767 607.423 61.3146C606.654 61.7526 606.05 62.3918 605.612 63.2322C605.186 64.0608 604.967 65.0611 604.955 66.233ZM650.187 62.5043L643.262 62.9304C643.144 62.3385 642.889 61.8059 642.499 61.3324C642.108 60.8471 641.593 60.4624 640.954 60.1783C640.326 59.8823 639.575 59.7344 638.699 59.7344C637.527 59.7344 636.539 59.983 635.734 60.4801C634.929 60.9654 634.526 61.6165 634.526 62.4332C634.526 63.0843 634.787 63.6347 635.308 64.0845C635.828 64.5343 636.722 64.8954 637.989 65.1676L642.925 66.1619C645.576 66.7064 647.553 67.5824 648.855 68.7898C650.157 69.9972 650.808 71.5833 650.808 73.5483C650.808 75.3357 650.281 76.9041 649.228 78.2536C648.186 79.603 646.754 80.6565 644.931 81.4141C643.12 82.1598 641.031 82.5327 638.663 82.5327C635.053 82.5327 632.177 81.781 630.034 80.2777C627.903 78.7625 626.655 76.7029 626.288 74.0987L633.727 73.7081C633.952 74.8089 634.497 75.6494 635.361 76.2294C636.225 76.7976 637.332 77.0817 638.681 77.0817C640.007 77.0817 641.072 76.8272 641.877 76.3182C642.694 75.7973 643.108 75.1286 643.12 74.3118C643.108 73.6252 642.818 73.063 642.25 72.625C641.682 72.1752 640.806 71.8319 639.622 71.5952L634.899 70.6541C632.236 70.1214 630.253 69.1982 628.951 67.8842C627.661 66.5703 627.016 64.8954 627.016 62.8594C627.016 61.1075 627.489 59.5982 628.436 58.3317C629.395 57.0651 630.738 56.0885 632.467 55.402C634.207 54.7154 636.243 54.3722 638.575 54.3722C642.019 54.3722 644.73 55.1001 646.707 56.5561C648.695 58.0121 649.855 59.9948 650.187 62.5043ZM654.571 82V54.7273H662.135V82H654.571ZM658.371 51.2116C657.246 51.2116 656.282 50.8388 655.477 50.093C654.684 49.3355 654.287 48.4299 654.287 47.3764C654.287 46.3348 654.684 45.4411 655.477 44.6953C656.282 43.9377 657.246 43.5589 658.371 43.5589C659.495 43.5589 660.454 43.9377 661.247 44.6953C662.052 45.4411 662.455 46.3348 662.455 47.3764C662.455 48.4299 662.052 49.3355 661.247 50.093C660.454 50.8388 659.495 51.2116 658.371 51.2116ZM692.62 54.7273L683.086 82H674.563L665.028 54.7273H673.018L678.682 74.2408H678.966L684.613 54.7273H692.62ZM707.041 82.5327C704.236 82.5327 701.821 81.9645 699.797 80.8281C697.785 79.6799 696.234 78.0582 695.145 75.9631C694.056 73.8561 693.511 71.3643 693.511 68.4879C693.511 65.6825 694.056 63.2204 695.145 61.1016C696.234 58.9827 697.767 57.3314 699.744 56.1477C701.732 54.964 704.064 54.3722 706.739 54.3722C708.539 54.3722 710.214 54.6622 711.764 55.2422C713.327 55.8104 714.688 56.6686 715.848 57.8168C717.02 58.965 717.931 60.4091 718.582 62.1491C719.233 63.8774 719.559 65.9015 719.559 68.2216V70.299H696.53V65.6115H712.439C712.439 64.5225 712.202 63.5578 711.729 62.7173C711.255 61.8769 710.598 61.2199 709.758 60.7464C708.929 60.2611 707.964 60.0185 706.864 60.0185C705.715 60.0185 704.697 60.2848 703.81 60.8175C702.934 61.3383 702.247 62.0426 701.75 62.9304C701.253 63.8063 700.998 64.7829 700.987 65.8601V70.3168C700.987 71.6662 701.235 72.8321 701.732 73.8146C702.241 74.7971 702.957 75.5547 703.881 76.0874C704.804 76.62 705.899 76.8864 707.165 76.8864C708.006 76.8864 708.775 76.768 709.474 76.5312C710.172 76.2945 710.77 75.9394 711.267 75.4659C711.764 74.9924 712.143 74.4124 712.403 73.7259L719.399 74.1875C719.044 75.8684 718.316 77.3362 717.215 78.5909C716.126 79.8338 714.718 80.8045 712.989 81.5028C711.273 82.1894 709.29 82.5327 707.041 82.5327Z" fill="black"/>
<path d="M557.082 816.367H549.305C549.163 815.361 548.873 814.467 548.435 813.686C547.997 812.893 547.435 812.218 546.748 811.662C546.062 811.106 545.268 810.679 544.369 810.384C543.481 810.088 542.516 809.94 541.475 809.94C539.593 809.94 537.953 810.407 536.556 811.342C535.16 812.266 534.076 813.615 533.307 815.391C532.538 817.154 532.153 819.297 532.153 821.818C532.153 824.411 532.538 826.589 533.307 828.352C534.088 830.116 535.177 831.448 536.574 832.347C537.971 833.247 539.587 833.697 541.421 833.697C542.451 833.697 543.404 833.561 544.28 833.288C545.168 833.016 545.955 832.62 546.642 832.099C547.328 831.566 547.896 830.921 548.346 830.163C548.808 829.406 549.127 828.542 549.305 827.571L557.082 827.607C556.881 829.276 556.378 830.885 555.573 832.436C554.78 833.975 553.708 835.354 552.359 836.573C551.021 837.781 549.423 838.739 547.565 839.45C545.718 840.148 543.629 840.497 541.297 840.497C538.054 840.497 535.154 839.763 532.597 838.295C530.052 836.828 528.04 834.703 526.56 831.921C525.092 829.139 524.358 825.772 524.358 821.818C524.358 817.853 525.104 814.479 526.595 811.697C528.087 808.916 530.111 806.797 532.668 805.341C535.225 803.873 538.101 803.139 541.297 803.139C543.404 803.139 545.357 803.435 547.157 804.027C548.968 804.619 550.572 805.483 551.968 806.619C553.365 807.744 554.501 809.123 555.377 810.756C556.265 812.39 556.833 814.26 557.082 816.367ZM569.017 824.233V840H561.453V803.636H568.804V817.539H569.123C569.739 815.929 570.733 814.669 572.106 813.757C573.48 812.834 575.202 812.372 577.273 812.372C579.167 812.372 580.819 812.786 582.227 813.615C583.648 814.432 584.748 815.61 585.53 817.148C586.323 818.675 586.713 820.504 586.702 822.635V840H579.138V823.984C579.15 822.304 578.723 820.996 577.859 820.06C577.007 819.125 575.811 818.658 574.273 818.658C573.243 818.658 572.331 818.877 571.538 819.315C570.757 819.753 570.141 820.392 569.692 821.232C569.254 822.061 569.029 823.061 569.017 824.233ZM604.083 840.533C601.278 840.533 598.863 839.964 596.839 838.828C594.827 837.68 593.276 836.058 592.187 833.963C591.098 831.856 590.553 829.364 590.553 826.488C590.553 823.683 591.098 821.22 592.187 819.102C593.276 816.983 594.809 815.331 596.786 814.148C598.774 812.964 601.106 812.372 603.781 812.372C605.581 812.372 607.256 812.662 608.806 813.242C610.369 813.81 611.73 814.669 612.89 815.817C614.062 816.965 614.973 818.409 615.624 820.149C616.275 821.877 616.601 823.902 616.601 826.222V828.299H593.572V823.612H609.481C609.481 822.522 609.244 821.558 608.771 820.717C608.297 819.877 607.64 819.22 606.8 818.746C605.971 818.261 605.006 818.018 603.906 818.018C602.757 818.018 601.739 818.285 600.852 818.817C599.976 819.338 599.289 820.043 598.792 820.93C598.295 821.806 598.04 822.783 598.028 823.86V828.317C598.028 829.666 598.277 830.832 598.774 831.815C599.283 832.797 599.999 833.555 600.923 834.087C601.846 834.62 602.941 834.886 604.207 834.886C605.048 834.886 605.817 834.768 606.516 834.531C607.214 834.295 607.812 833.939 608.309 833.466C608.806 832.992 609.185 832.412 609.445 831.726L616.441 832.188C616.086 833.868 615.358 835.336 614.257 836.591C613.168 837.834 611.76 838.804 610.031 839.503C608.315 840.189 606.332 840.533 604.083 840.533ZM628.314 840.515C626.574 840.515 625.023 840.213 623.662 839.609C622.301 838.994 621.224 838.088 620.43 836.893C619.649 835.685 619.259 834.182 619.259 832.383C619.259 830.868 619.537 829.595 620.093 828.565C620.649 827.536 621.407 826.707 622.366 826.08C623.325 825.452 624.414 824.979 625.633 824.659C626.864 824.339 628.154 824.115 629.504 823.984C631.09 823.819 632.368 823.665 633.339 823.523C634.31 823.369 635.014 823.144 635.452 822.848C635.89 822.552 636.109 822.114 636.109 821.534V821.428C636.109 820.303 635.754 819.433 635.043 818.817C634.345 818.202 633.351 817.894 632.06 817.894C630.699 817.894 629.616 818.196 628.811 818.8C628.006 819.392 627.474 820.137 627.213 821.037L620.217 820.469C620.573 818.812 621.271 817.379 622.313 816.172C623.354 814.953 624.698 814.018 626.343 813.366C628 812.704 629.918 812.372 632.096 812.372C633.611 812.372 635.061 812.55 636.446 812.905C637.843 813.26 639.08 813.81 640.157 814.556C641.246 815.302 642.104 816.261 642.732 817.433C643.359 818.593 643.673 819.983 643.673 821.605V840H636.499V836.218H636.286C635.848 837.07 635.262 837.822 634.528 838.473C633.795 839.112 632.913 839.615 631.883 839.982C630.853 840.337 629.663 840.515 628.314 840.515ZM630.48 835.295C631.593 835.295 632.575 835.076 633.428 834.638C634.28 834.188 634.949 833.584 635.434 832.827C635.919 832.069 636.162 831.211 636.162 830.252V827.358C635.925 827.512 635.6 827.654 635.185 827.784C634.783 827.902 634.327 828.015 633.818 828.121C633.309 828.216 632.8 828.305 632.291 828.388C631.782 828.459 631.321 828.524 630.906 828.583C630.019 828.713 629.243 828.92 628.58 829.205C627.917 829.489 627.403 829.873 627.036 830.359C626.669 830.832 626.485 831.424 626.485 832.134C626.485 833.164 626.858 833.951 627.604 834.496C628.361 835.028 629.32 835.295 630.48 835.295ZM648.541 850.227V812.727H655.998V817.308H656.336C656.667 816.574 657.147 815.829 657.774 815.071C658.413 814.302 659.242 813.662 660.26 813.153C661.29 812.633 662.568 812.372 664.095 812.372C666.084 812.372 667.918 812.893 669.599 813.935C671.28 814.964 672.624 816.521 673.63 818.604C674.636 820.676 675.139 823.274 675.139 826.399C675.139 829.441 674.648 832.01 673.665 834.105C672.695 836.188 671.369 837.769 669.688 838.846C668.019 839.911 666.149 840.444 664.077 840.444C662.609 840.444 661.361 840.201 660.331 839.716C659.313 839.231 658.478 838.621 657.827 837.887C657.176 837.141 656.679 836.39 656.336 835.632H656.105V850.227H648.541ZM655.945 826.364C655.945 827.985 656.17 829.4 656.62 830.607C657.07 831.815 657.721 832.756 658.573 833.43C659.425 834.093 660.461 834.425 661.68 834.425C662.911 834.425 663.953 834.087 664.805 833.413C665.657 832.726 666.303 831.779 666.741 830.572C667.19 829.353 667.415 827.95 667.415 826.364C667.415 824.789 667.196 823.404 666.758 822.209C666.32 821.013 665.675 820.078 664.823 819.403C663.971 818.729 662.923 818.391 661.68 818.391C660.449 818.391 659.407 818.717 658.555 819.368C657.715 820.019 657.07 820.942 656.62 822.138C656.17 823.333 655.945 824.742 655.945 826.364Z" fill="black"/>
<path d="M132.362 477.636V514H125.722L109.901 491.113H109.635V514H101.947V477.636H108.694L124.39 500.506H124.709V477.636H132.362ZM149.895 514.533C147.137 514.533 144.751 513.947 142.739 512.775C140.739 511.591 139.194 509.946 138.105 507.839C137.016 505.72 136.471 503.264 136.471 500.47C136.471 497.653 137.016 495.191 138.105 493.084C139.194 490.965 140.739 489.32 142.739 488.148C144.751 486.964 147.137 486.372 149.895 486.372C152.653 486.372 155.032 486.964 157.032 488.148C159.045 489.32 160.595 490.965 161.684 493.084C162.773 495.191 163.318 497.653 163.318 500.47C163.318 503.264 162.773 505.72 161.684 507.839C160.595 509.946 159.045 511.591 157.032 512.775C155.032 513.947 152.653 514.533 149.895 514.533ZM149.93 508.673C151.185 508.673 152.232 508.318 153.073 507.608C153.913 506.886 154.547 505.903 154.973 504.661C155.411 503.418 155.63 502.003 155.63 500.417C155.63 498.831 155.411 497.416 154.973 496.173C154.547 494.93 153.913 493.948 153.073 493.226C152.232 492.504 151.185 492.143 149.93 492.143C148.664 492.143 147.598 492.504 146.734 493.226C145.882 493.948 145.237 494.93 144.799 496.173C144.373 497.416 144.16 498.831 144.16 500.417C144.16 502.003 144.373 503.418 144.799 504.661C145.237 505.903 145.882 506.886 146.734 507.608C147.598 508.318 148.664 508.673 149.93 508.673ZM167.236 514V486.727H174.8V514H167.236ZM171.036 483.212C169.911 483.212 168.947 482.839 168.142 482.093C167.349 481.335 166.952 480.43 166.952 479.376C166.952 478.335 167.349 477.441 168.142 476.695C168.947 475.938 169.911 475.559 171.036 475.559C172.16 475.559 173.119 475.938 173.912 476.695C174.717 477.441 175.12 478.335 175.12 479.376C175.12 480.43 174.717 481.335 173.912 482.093C173.119 482.839 172.16 483.212 171.036 483.212ZM202.551 494.504L195.626 494.93C195.508 494.339 195.253 493.806 194.863 493.332C194.472 492.847 193.957 492.462 193.318 492.178C192.691 491.882 191.939 491.734 191.063 491.734C189.891 491.734 188.903 491.983 188.098 492.48C187.293 492.965 186.891 493.616 186.891 494.433C186.891 495.084 187.151 495.635 187.672 496.085C188.193 496.534 189.086 496.895 190.353 497.168L195.289 498.162C197.94 498.706 199.917 499.582 201.219 500.79C202.521 501.997 203.172 503.583 203.172 505.548C203.172 507.336 202.646 508.904 201.592 510.254C200.551 511.603 199.118 512.656 197.295 513.414C195.484 514.16 193.395 514.533 191.028 514.533C187.417 514.533 184.541 513.781 182.398 512.278C180.268 510.763 179.019 508.703 178.652 506.099L186.092 505.708C186.316 506.809 186.861 507.649 187.725 508.229C188.589 508.798 189.696 509.082 191.045 509.082C192.371 509.082 193.436 508.827 194.241 508.318C195.058 507.797 195.472 507.129 195.484 506.312C195.472 505.625 195.182 505.063 194.614 504.625C194.046 504.175 193.17 503.832 191.986 503.595L187.263 502.654C184.6 502.121 182.617 501.198 181.315 499.884C180.025 498.57 179.38 496.895 179.38 494.859C179.38 493.107 179.853 491.598 180.8 490.332C181.759 489.065 183.103 488.089 184.831 487.402C186.571 486.715 188.607 486.372 190.939 486.372C194.383 486.372 197.094 487.1 199.071 488.556C201.06 490.012 202.22 491.995 202.551 494.504ZM211.605 524.227C210.646 524.227 209.747 524.15 208.906 523.996C208.078 523.854 207.391 523.671 206.847 523.446L208.551 517.8C209.439 518.072 210.238 518.22 210.948 518.244C211.67 518.267 212.292 518.102 212.813 517.746C213.345 517.391 213.777 516.788 214.109 515.935L214.553 514.781L204.769 486.727H212.724L218.37 506.756H218.654L224.354 486.727H232.362L221.761 516.947C221.252 518.415 220.56 519.694 219.684 520.783C218.82 521.884 217.725 522.73 216.399 523.322C215.073 523.925 213.475 524.227 211.605 524.227ZM40.8119 559.233V575H33.248V547.727H40.4568V552.539H40.7764C41.3801 550.953 42.3921 549.698 43.8126 548.775C45.233 547.84 46.9553 547.372 48.9795 547.372C50.8734 547.372 52.5247 547.786 53.9333 548.615C55.3419 549.444 56.4369 550.627 57.2181 552.166C57.9994 553.693 58.39 555.516 58.39 557.635V575H50.8261V558.984C50.8379 557.315 50.4118 556.013 49.5477 555.078C48.6836 554.131 47.4939 553.658 45.9788 553.658C44.9608 553.658 44.0612 553.877 43.2799 554.315C42.5105 554.753 41.9068 555.392 41.4688 556.232C41.0427 557.061 40.8237 558.061 40.8119 559.233ZM75.7805 575.533C72.9751 575.533 70.5603 574.964 68.5361 573.828C66.5238 572.68 64.9732 571.058 63.8841 568.963C62.7951 566.856 62.2506 564.364 62.2506 561.488C62.2506 558.683 62.7951 556.22 63.8841 554.102C64.9732 551.983 66.5061 550.331 68.4829 549.148C70.4715 547.964 72.8034 547.372 75.4786 547.372C77.2778 547.372 78.9528 547.662 80.5035 548.242C82.066 548.81 83.4272 549.669 84.5873 550.817C85.7591 551.965 86.6706 553.409 87.3216 555.149C87.9727 556.877 88.2982 558.902 88.2982 561.222V563.299H65.2691V558.612H81.1782C81.1782 557.522 80.9414 556.558 80.468 555.717C79.9945 554.877 79.3375 554.22 78.4971 553.746C77.6685 553.261 76.7037 553.018 75.6029 553.018C74.4547 553.018 73.4367 553.285 72.5489 553.817C71.673 554.338 70.9864 555.043 70.4893 555.93C69.9921 556.806 69.7376 557.783 69.7258 558.86V563.317C69.7258 564.666 69.9743 565.832 70.4715 566.815C70.9805 567.797 71.6966 568.555 72.6199 569.087C73.5432 569.62 74.6382 569.886 75.9047 569.886C76.7452 569.886 77.5146 569.768 78.213 569.531C78.9114 569.295 79.5091 568.939 80.0063 568.466C80.5035 567.992 80.8823 567.412 81.1427 566.726L88.1384 567.188C87.7833 568.868 87.0553 570.336 85.9545 571.591C84.8654 572.834 83.4568 573.804 81.7286 574.503C80.0122 575.189 78.0295 575.533 75.7805 575.533ZM92.2343 575V547.727H99.7982V575H92.2343ZM96.034 544.212C94.9095 544.212 93.9448 543.839 93.1398 543.093C92.3467 542.335 91.9502 541.43 91.9502 540.376C91.9502 539.335 92.3467 538.441 93.1398 537.695C93.9448 536.938 94.9095 536.559 96.034 536.559C97.1585 536.559 98.1173 536.938 98.9104 537.695C99.7153 538.441 100.118 539.335 100.118 540.376C100.118 541.43 99.7153 542.335 98.9104 543.093C98.1173 543.839 97.1585 544.212 96.034 544.212ZM117.144 585.795C114.694 585.795 112.593 585.458 110.841 584.783C109.101 584.121 107.716 583.215 106.686 582.067C105.656 580.919 104.988 579.628 104.68 578.196L111.676 577.255C111.889 577.799 112.226 578.308 112.688 578.782C113.149 579.255 113.759 579.634 114.516 579.918C115.286 580.214 116.221 580.362 117.322 580.362C118.967 580.362 120.323 579.96 121.388 579.155C122.465 578.362 123.004 577.03 123.004 575.16V570.17H122.684C122.353 570.928 121.855 571.644 121.193 572.319C120.53 572.994 119.677 573.544 118.636 573.97C117.594 574.396 116.351 574.609 114.907 574.609C112.859 574.609 110.995 574.136 109.314 573.189C107.645 572.23 106.313 570.768 105.319 568.803C104.336 566.826 103.845 564.329 103.845 561.31C103.845 558.221 104.348 555.64 105.354 553.569C106.361 551.497 107.698 549.947 109.367 548.917C111.048 547.887 112.889 547.372 114.889 547.372C116.416 547.372 117.695 547.633 118.725 548.153C119.754 548.662 120.583 549.302 121.21 550.071C121.85 550.829 122.341 551.574 122.684 552.308H122.968V547.727H130.479V575.266C130.479 577.586 129.911 579.528 128.774 581.09C127.638 582.653 126.064 583.825 124.051 584.606C122.051 585.399 119.748 585.795 117.144 585.795ZM117.304 568.928C118.523 568.928 119.553 568.626 120.394 568.022C121.246 567.406 121.897 566.531 122.347 565.394C122.808 564.246 123.039 562.873 123.039 561.275C123.039 559.677 122.814 558.292 122.364 557.12C121.915 555.936 121.264 555.019 120.411 554.368C119.559 553.717 118.523 553.391 117.304 553.391C116.061 553.391 115.014 553.729 114.161 554.403C113.309 555.066 112.664 555.99 112.226 557.173C111.788 558.357 111.569 559.724 111.569 561.275C111.569 562.849 111.788 564.21 112.226 565.359C112.676 566.495 113.321 567.377 114.161 568.004C115.014 568.62 116.061 568.928 117.304 568.928ZM143.062 559.233V575H135.498V538.636H142.849V552.539H143.168C143.784 550.929 144.778 549.669 146.151 548.757C147.524 547.834 149.247 547.372 151.318 547.372C153.212 547.372 154.863 547.786 156.272 548.615C157.693 549.432 158.793 550.61 159.575 552.148C160.368 553.675 160.758 555.504 160.747 557.635V575H153.183V558.984C153.194 557.304 152.768 555.996 151.904 555.06C151.052 554.125 149.856 553.658 148.318 553.658C147.288 553.658 146.376 553.877 145.583 554.315C144.802 554.753 144.186 555.392 143.737 556.232C143.299 557.061 143.074 558.061 143.062 559.233ZM165.841 575V538.636H173.405V552.308H173.636C173.967 551.574 174.447 550.829 175.074 550.071C175.713 549.302 176.542 548.662 177.56 548.153C178.59 547.633 179.868 547.372 181.395 547.372C183.384 547.372 185.219 547.893 186.899 548.935C188.58 549.964 189.924 551.521 190.93 553.604C191.936 555.676 192.439 558.274 192.439 561.399C192.439 564.441 191.948 567.01 190.965 569.105C189.995 571.188 188.669 572.769 186.988 573.846C185.319 574.911 183.449 575.444 181.377 575.444C179.91 575.444 178.661 575.201 177.631 574.716C176.613 574.231 175.778 573.621 175.127 572.887C174.476 572.141 173.979 571.39 173.636 570.632H173.299V575H165.841ZM173.245 561.364C173.245 562.985 173.47 564.4 173.92 565.607C174.37 566.815 175.021 567.756 175.873 568.43C176.725 569.093 177.761 569.425 178.98 569.425C180.211 569.425 181.253 569.087 182.105 568.413C182.958 567.726 183.603 566.779 184.041 565.572C184.491 564.353 184.715 562.95 184.715 561.364C184.715 559.789 184.496 558.404 184.059 557.209C183.621 556.013 182.975 555.078 182.123 554.403C181.271 553.729 180.223 553.391 178.98 553.391C177.749 553.391 176.708 553.717 175.855 554.368C175.015 555.019 174.37 555.942 173.92 557.138C173.47 558.333 173.245 559.742 173.245 561.364ZM208.809 575.533C206.051 575.533 203.665 574.947 201.653 573.775C199.653 572.591 198.108 570.946 197.019 568.839C195.93 566.72 195.385 564.264 195.385 561.47C195.385 558.653 195.93 556.191 197.019 554.084C198.108 551.965 199.653 550.32 201.653 549.148C203.665 547.964 206.051 547.372 208.809 547.372C211.567 547.372 213.946 547.964 215.946 549.148C217.959 550.32 219.509 551.965 220.598 554.084C221.687 556.191 222.232 558.653 222.232 561.47C222.232 564.264 221.687 566.72 220.598 568.839C219.509 570.946 217.959 572.591 215.946 573.775C213.946 574.947 211.567 575.533 208.809 575.533ZM208.844 569.673C210.099 569.673 211.147 569.318 211.987 568.608C212.827 567.886 213.461 566.903 213.887 565.661C214.325 564.418 214.544 563.003 214.544 561.417C214.544 559.831 214.325 558.416 213.887 557.173C213.461 555.93 212.827 554.948 211.987 554.226C211.147 553.504 210.099 553.143 208.844 553.143C207.578 553.143 206.512 553.504 205.648 554.226C204.796 554.948 204.151 555.93 203.713 557.173C203.287 558.416 203.074 559.831 203.074 561.417C203.074 563.003 203.287 564.418 203.713 565.661C204.151 566.903 204.796 567.886 205.648 568.608C206.512 569.318 207.578 569.673 208.844 569.673ZM243.64 563.388V547.727H251.204V575H243.941V570.046H243.657C243.042 571.644 242.018 572.929 240.586 573.899C239.165 574.87 237.431 575.355 235.383 575.355C233.56 575.355 231.956 574.941 230.571 574.112C229.187 573.284 228.103 572.106 227.322 570.579C226.553 569.052 226.162 567.223 226.15 565.092V547.727H233.714V563.743C233.726 565.353 234.158 566.625 235.01 567.56C235.863 568.496 237.005 568.963 238.437 568.963C239.349 568.963 240.201 568.756 240.994 568.342C241.787 567.915 242.426 567.288 242.912 566.46C243.409 565.631 243.651 564.607 243.64 563.388ZM256.254 575V547.727H263.587V552.486H263.871C264.368 550.793 265.203 549.515 266.375 548.651C267.546 547.775 268.896 547.337 270.423 547.337C270.802 547.337 271.21 547.36 271.648 547.408C272.086 547.455 272.471 547.52 272.802 547.603V554.315C272.447 554.208 271.956 554.113 271.328 554.031C270.701 553.948 270.127 553.906 269.606 553.906C268.493 553.906 267.499 554.149 266.623 554.634C265.759 555.108 265.072 555.771 264.563 556.623C264.066 557.475 263.818 558.458 263.818 559.57V575H256.254ZM298.405 555.504L291.48 555.93C291.361 555.339 291.107 554.806 290.716 554.332C290.326 553.847 289.811 553.462 289.172 553.178C288.544 552.882 287.793 552.734 286.917 552.734C285.745 552.734 284.756 552.983 283.951 553.48C283.147 553.965 282.744 554.616 282.744 555.433C282.744 556.084 283.004 556.635 283.525 557.085C284.046 557.534 284.94 557.895 286.206 558.168L291.142 559.162C293.794 559.706 295.771 560.582 297.073 561.79C298.375 562.997 299.026 564.583 299.026 566.548C299.026 568.336 298.499 569.904 297.446 571.254C296.404 572.603 294.972 573.656 293.149 574.414C291.338 575.16 289.249 575.533 286.881 575.533C283.271 575.533 280.394 574.781 278.252 573.278C276.121 571.763 274.872 569.703 274.505 567.099L281.945 566.708C282.17 567.809 282.714 568.649 283.579 569.229C284.443 569.798 285.549 570.082 286.899 570.082C288.225 570.082 289.29 569.827 290.095 569.318C290.912 568.797 291.326 568.129 291.338 567.312C291.326 566.625 291.036 566.063 290.468 565.625C289.9 565.175 289.024 564.832 287.84 564.595L283.117 563.654C280.454 563.121 278.471 562.198 277.169 560.884C275.879 559.57 275.233 557.895 275.233 555.859C275.233 554.107 275.707 552.598 276.654 551.332C277.613 550.065 278.956 549.089 280.684 548.402C282.424 547.715 284.46 547.372 286.792 547.372C290.237 547.372 292.948 548.1 294.924 549.556C296.913 551.012 298.073 552.995 298.405 555.504Z" fill="black"/>
<path d="M977.568 322V285.636H1001.64V291.975H985.256V300.64H1000.05V306.979H985.256V322H977.568ZM1021.45 310.388V294.727H1029.02V322H1021.76V317.046H1021.47C1020.86 318.644 1019.83 319.929 1018.4 320.899C1016.98 321.87 1015.25 322.355 1013.2 322.355C1011.37 322.355 1009.77 321.941 1008.39 321.112C1007 320.284 1005.92 319.106 1005.14 317.579C1004.37 316.052 1003.98 314.223 1003.96 312.092V294.727H1011.53V310.743C1011.54 312.353 1011.97 313.625 1012.82 314.56C1013.68 315.496 1014.82 315.963 1016.25 315.963C1017.16 315.963 1018.02 315.756 1018.81 315.342C1019.6 314.915 1020.24 314.288 1020.73 313.46C1021.22 312.631 1021.47 311.607 1021.45 310.388ZM1041.63 285.636V322H1034.07V285.636H1041.63ZM1054.26 285.636V322H1046.69V285.636H1054.26ZM1063.98 332.227C1063.03 332.227 1062.13 332.15 1061.29 331.996C1060.46 331.854 1059.77 331.671 1059.23 331.446L1060.93 325.8C1061.82 326.072 1062.62 326.22 1063.33 326.244C1064.05 326.267 1064.67 326.102 1065.19 325.746C1065.72 325.391 1066.16 324.788 1066.49 323.935L1066.93 322.781L1057.15 294.727H1065.1L1070.75 314.756H1071.03L1076.73 294.727H1084.74L1074.14 324.947C1073.63 326.415 1072.94 327.694 1072.06 328.783C1071.2 329.884 1070.1 330.73 1068.78 331.322C1067.45 331.925 1065.85 332.227 1063.98 332.227ZM938.118 383V355.727H945.682V383H938.118ZM941.918 352.212C940.793 352.212 939.829 351.839 939.024 351.093C938.231 350.335 937.834 349.43 937.834 348.376C937.834 347.335 938.231 346.441 939.024 345.695C939.829 344.938 940.793 344.559 941.918 344.559C943.042 344.559 944.001 344.938 944.794 345.695C945.599 346.441 946.002 347.335 946.002 348.376C946.002 349.43 945.599 350.335 944.794 351.093C944.001 351.839 943.042 352.212 941.918 352.212ZM973.433 363.504L966.508 363.93C966.39 363.339 966.135 362.806 965.745 362.332C965.354 361.847 964.839 361.462 964.2 361.178C963.573 360.882 962.821 360.734 961.945 360.734C960.773 360.734 959.785 360.983 958.98 361.48C958.175 361.965 957.772 362.616 957.772 363.433C957.772 364.084 958.033 364.635 958.554 365.085C959.074 365.534 959.968 365.895 961.235 366.168L966.171 367.162C968.822 367.706 970.799 368.582 972.101 369.79C973.403 370.997 974.054 372.583 974.054 374.548C974.054 376.336 973.528 377.904 972.474 379.254C971.432 380.603 970 381.656 968.177 382.414C966.366 383.16 964.277 383.533 961.909 383.533C958.299 383.533 955.423 382.781 953.28 381.278C951.15 379.763 949.901 377.703 949.534 375.099L956.973 374.708C957.198 375.809 957.743 376.649 958.607 377.229C959.471 377.798 960.578 378.082 961.927 378.082C963.253 378.082 964.318 377.827 965.123 377.318C965.94 376.797 966.354 376.129 966.366 375.312C966.354 374.625 966.064 374.063 965.496 373.625C964.928 373.175 964.052 372.832 962.868 372.595L958.145 371.654C955.482 371.121 953.499 370.198 952.197 368.884C950.907 367.57 950.262 365.895 950.262 363.859C950.262 362.107 950.735 360.598 951.682 359.332C952.641 358.065 953.984 357.089 955.713 356.402C957.453 355.715 959.489 355.372 961.821 355.372C965.265 355.372 967.976 356.1 969.953 357.556C971.941 359.012 973.101 360.995 973.433 363.504ZM990.14 383.533C987.382 383.533 984.997 382.947 982.984 381.775C980.984 380.591 979.439 378.946 978.35 376.839C977.261 374.72 976.716 372.264 976.716 369.47C976.716 366.653 977.261 364.191 978.35 362.084C979.439 359.965 980.984 358.32 982.984 357.148C984.997 355.964 987.382 355.372 990.14 355.372C992.898 355.372 995.277 355.964 997.278 357.148C999.29 358.32 1000.84 359.965 1001.93 362.084C1003.02 364.191 1003.56 366.653 1003.56 369.47C1003.56 372.264 1003.02 374.72 1001.93 376.839C1000.84 378.946 999.29 380.591 997.278 381.775C995.277 382.947 992.898 383.533 990.14 383.533ZM990.175 377.673C991.43 377.673 992.478 377.318 993.318 376.608C994.158 375.886 994.792 374.903 995.218 373.661C995.656 372.418 995.875 371.003 995.875 369.417C995.875 367.831 995.656 366.416 995.218 365.173C994.792 363.93 994.158 362.948 993.318 362.226C992.478 361.504 991.43 361.143 990.175 361.143C988.909 361.143 987.843 361.504 986.979 362.226C986.127 362.948 985.482 363.93 985.044 365.173C984.618 366.416 984.405 367.831 984.405 369.417C984.405 371.003 984.618 372.418 985.044 373.661C985.482 374.903 986.127 375.886 986.979 376.608C987.843 377.318 988.909 377.673 990.175 377.673ZM1015.05 346.636V383H1007.48V346.636H1015.05ZM1027.88 383.515C1026.14 383.515 1024.59 383.213 1023.23 382.609C1021.87 381.994 1020.79 381.088 1020 379.893C1019.22 378.685 1018.83 377.182 1018.83 375.383C1018.83 373.868 1019.1 372.595 1019.66 371.565C1020.22 370.536 1020.97 369.707 1021.93 369.08C1022.89 368.452 1023.98 367.979 1025.2 367.659C1026.43 367.339 1027.72 367.115 1029.07 366.984C1030.66 366.819 1031.94 366.665 1032.91 366.523C1033.88 366.369 1034.58 366.144 1035.02 365.848C1035.46 365.552 1035.68 365.114 1035.68 364.534V364.428C1035.68 363.303 1035.32 362.433 1034.61 361.817C1033.91 361.202 1032.92 360.894 1031.63 360.894C1030.27 360.894 1029.18 361.196 1028.38 361.8C1027.57 362.392 1027.04 363.137 1026.78 364.037L1019.78 363.469C1020.14 361.812 1020.84 360.379 1021.88 359.172C1022.92 357.953 1024.27 357.018 1025.91 356.366C1027.57 355.704 1029.49 355.372 1031.66 355.372C1033.18 355.372 1034.63 355.55 1036.01 355.905C1037.41 356.26 1038.65 356.81 1039.72 357.556C1040.81 358.302 1041.67 359.261 1042.3 360.433C1042.93 361.593 1043.24 362.983 1043.24 364.605V383H1036.07V379.218H1035.85C1035.42 380.07 1034.83 380.822 1034.1 381.473C1033.36 382.112 1032.48 382.615 1031.45 382.982C1030.42 383.337 1029.23 383.515 1027.88 383.515ZM1030.05 378.295C1031.16 378.295 1032.14 378.076 1033 377.638C1033.85 377.188 1034.52 376.584 1035 375.827C1035.49 375.069 1035.73 374.211 1035.73 373.252V370.358C1035.49 370.512 1035.17 370.654 1034.75 370.784C1034.35 370.902 1033.89 371.015 1033.39 371.121C1032.88 371.216 1032.37 371.305 1031.86 371.388C1031.35 371.459 1030.89 371.524 1030.47 371.583C1029.59 371.713 1028.81 371.92 1028.15 372.205C1027.48 372.489 1026.97 372.873 1026.6 373.359C1026.24 373.832 1026.05 374.424 1026.05 375.134C1026.05 376.164 1026.43 376.951 1027.17 377.496C1027.93 378.028 1028.89 378.295 1030.05 378.295ZM1062.61 355.727V361.409H1046.19V355.727H1062.61ZM1049.92 349.193H1057.48V374.619C1057.48 375.318 1057.59 375.862 1057.8 376.253C1058.02 376.632 1058.31 376.898 1058.69 377.052C1059.08 377.206 1059.53 377.283 1060.04 377.283C1060.4 377.283 1060.75 377.253 1061.11 377.194C1061.46 377.123 1061.73 377.07 1061.92 377.034L1063.11 382.663C1062.73 382.781 1062.2 382.917 1061.51 383.071C1060.83 383.237 1059.99 383.337 1059.01 383.373C1057.19 383.444 1055.59 383.201 1054.22 382.645C1052.85 382.089 1051.8 381.224 1051.04 380.053C1050.28 378.881 1049.91 377.401 1049.92 375.614V349.193ZM1078.68 383.533C1075.87 383.533 1073.46 382.964 1071.43 381.828C1069.42 380.68 1067.87 379.058 1066.78 376.963C1065.69 374.856 1065.15 372.364 1065.15 369.488C1065.15 366.683 1065.69 364.22 1066.78 362.102C1067.87 359.983 1069.4 358.331 1071.38 357.148C1073.37 355.964 1075.7 355.372 1078.38 355.372C1080.18 355.372 1081.85 355.662 1083.4 356.242C1084.96 356.81 1086.32 357.669 1087.48 358.817C1088.66 359.965 1089.57 361.409 1090.22 363.149C1090.87 364.877 1091.2 366.902 1091.2 369.222V371.299H1068.17V366.612H1084.08C1084.08 365.522 1083.84 364.558 1083.37 363.717C1082.89 362.877 1082.23 362.22 1081.39 361.746C1080.57 361.261 1079.6 361.018 1078.5 361.018C1077.35 361.018 1076.33 361.285 1075.45 361.817C1074.57 362.338 1073.88 363.043 1073.39 363.93C1072.89 364.806 1072.64 365.783 1072.62 366.86V371.317C1072.62 372.666 1072.87 373.832 1073.37 374.815C1073.88 375.797 1074.59 376.555 1075.52 377.087C1076.44 377.62 1077.54 377.886 1078.8 377.886C1079.64 377.886 1080.41 377.768 1081.11 377.531C1081.81 377.295 1082.41 376.939 1082.9 376.466C1083.4 375.992 1083.78 375.412 1084.04 374.726L1091.04 375.188C1090.68 376.868 1089.95 378.336 1088.85 379.591C1087.76 380.834 1086.35 381.804 1084.63 382.503C1082.91 383.189 1080.93 383.533 1078.68 383.533ZM1105.18 383.444C1103.11 383.444 1101.23 382.911 1099.55 381.846C1097.88 380.769 1096.56 379.188 1095.58 377.105C1094.6 375.01 1094.12 372.441 1094.12 369.399C1094.12 366.274 1094.62 363.676 1095.63 361.604C1096.64 359.521 1097.97 357.964 1099.64 356.935C1101.32 355.893 1103.16 355.372 1105.16 355.372C1106.69 355.372 1107.96 355.633 1108.98 356.153C1110.01 356.662 1110.84 357.302 1111.47 358.071C1112.11 358.829 1112.59 359.574 1112.92 360.308H1113.15V346.636H1120.7V383H1113.24V378.632H1112.92C1112.57 379.39 1112.06 380.141 1111.41 380.887C1110.77 381.621 1109.94 382.231 1108.91 382.716C1107.89 383.201 1106.65 383.444 1105.18 383.444ZM1107.58 377.425C1108.8 377.425 1109.83 377.093 1110.67 376.43C1111.52 375.756 1112.17 374.815 1112.62 373.607C1113.08 372.4 1113.31 370.985 1113.31 369.364C1113.31 367.742 1113.09 366.333 1112.64 365.138C1112.19 363.942 1111.54 363.019 1110.69 362.368C1109.83 361.717 1108.8 361.391 1107.58 361.391C1106.34 361.391 1105.29 361.729 1104.44 362.403C1103.58 363.078 1102.94 364.013 1102.5 365.209C1102.06 366.404 1101.84 367.789 1101.84 369.364C1101.84 370.95 1102.06 372.353 1102.5 373.572C1102.95 374.779 1103.6 375.726 1104.44 376.413C1105.29 377.087 1106.34 377.425 1107.58 377.425Z" fill="black"/>
<circle cx="458" cy="551" r="49" fill="#00A8C6"/>
<path d="M468.658 488.671C469.029 489.412 469.93 489.712 470.671 489.342L482.746 483.304C483.487 482.934 483.787 482.033 483.416 481.292C483.046 480.551 482.145 480.25 481.404 480.621L470.671 485.988L465.304 475.254C464.934 474.513 464.033 474.213 463.292 474.584C462.551 474.954 462.25 475.855 462.621 476.596L468.658 488.671ZM389.858 251.493C410.239 253.434 426.26 266.289 438.646 285.47C451.039 304.661 459.677 330.026 465.282 356.56C470.885 383.077 473.439 410.666 473.719 434.237C474 457.86 471.994 477.275 468.577 487.526L471.423 488.474C475.006 477.725 477 457.89 476.719 434.201C476.436 410.459 473.865 382.673 468.218 355.94C462.573 329.224 453.836 303.464 441.166 283.843C428.49 264.211 411.761 250.566 390.142 248.507L389.858 251.493Z" fill="black"/>
<path d="M141.586 207.641V207.203C141.586 206.839 141.714 206.583 141.969 206.438C142.26 206.292 142.589 206.219 142.953 206.219C143.245 206.219 143.518 206.255 143.773 206.328C144.029 206.365 144.229 206.565 144.375 206.93C144.484 207.477 144.594 208.242 144.703 209.227C144.812 210.174 144.94 211.232 145.086 212.398C145.232 213.565 145.378 214.805 145.523 216.117C145.706 217.393 145.87 218.615 146.016 219.781C146.198 220.911 146.38 221.932 146.562 222.844C146.745 223.755 146.945 224.448 147.164 224.922C147.055 221.422 147.164 218.396 147.492 215.844C147.82 213.255 148.44 211.159 149.352 209.555C150.299 207.914 151.576 206.784 153.18 206.164C154.82 205.508 156.862 205.362 159.305 205.727C160.435 205.727 161 206.328 161 207.531C161 208.005 160.69 208.333 160.07 208.516C159.451 208.661 158.758 208.771 157.992 208.844C157.227 208.88 156.479 208.935 155.75 209.008C155.021 209.081 154.492 209.263 154.164 209.555C152.852 210.284 151.922 211.414 151.375 212.945C150.865 214.477 150.5 216.281 150.281 218.359C150.062 220.438 149.898 222.716 149.789 225.195C149.716 227.638 149.479 230.154 149.078 232.742C149.078 233.107 148.932 233.38 148.641 233.562C148.349 233.745 147.984 233.836 147.547 233.836C147.146 233.836 146.745 233.745 146.344 233.562C145.979 233.38 145.688 233.107 145.469 232.742L141.586 207.641ZM165.375 222.188C165.193 222.224 164.919 222.279 164.555 222.352C164.19 222.424 163.807 222.443 163.406 222.406C163.005 222.37 162.659 222.26 162.367 222.078C162.039 221.896 161.875 221.586 161.875 221.148C161.875 220.893 161.93 220.711 162.039 220.602C162.148 220.492 162.331 220.328 162.586 220.109C163.388 219.453 164.062 218.615 164.609 217.594C165.193 216.536 165.721 215.424 166.195 214.258C166.669 213.055 167.161 211.87 167.672 210.703C168.219 209.5 168.839 208.424 169.531 207.477C170.224 206.529 171.081 205.763 172.102 205.18C173.122 204.596 174.38 204.323 175.875 204.359C176.495 204.359 177.188 204.505 177.953 204.797C178.719 205.089 179.43 205.49 180.086 206C180.742 206.474 181.289 207.057 181.727 207.75C182.164 208.443 182.383 209.208 182.383 210.047C182.565 210.339 182.383 210.758 181.836 211.305C181.326 211.852 180.615 212.453 179.703 213.109C178.792 213.729 177.753 214.385 176.586 215.078C175.456 215.734 174.362 216.354 173.305 216.938C172.247 217.521 171.318 218.031 170.516 218.469C169.714 218.906 169.185 219.234 168.93 219.453C168.747 219.818 168.602 220.237 168.492 220.711C168.383 221.185 168.292 221.641 168.219 222.078C168.182 222.479 168.146 222.862 168.109 223.227C168.109 223.555 168.109 223.81 168.109 223.992C168.109 224.685 168.073 225.451 168 226.289C167.964 227.128 168 227.93 168.109 228.695C168.255 229.424 168.565 230.044 169.039 230.555C169.513 231.029 170.315 231.266 171.445 231.266C172.648 231.266 173.779 230.974 174.836 230.391C175.893 229.771 176.878 229.023 177.789 228.148C178.701 227.273 179.521 226.326 180.25 225.305C181.016 224.284 181.69 223.336 182.273 222.461C182.893 221.549 183.44 220.802 183.914 220.219C184.388 219.635 184.789 219.344 185.117 219.344C185.482 219.344 185.865 219.417 186.266 219.562C186.703 219.672 186.922 219.964 186.922 220.438C186.922 221.094 186.648 221.878 186.102 222.789C185.591 223.701 184.898 224.667 184.023 225.688C183.185 226.708 182.201 227.729 181.07 228.75C179.977 229.734 178.865 230.628 177.734 231.43C176.604 232.195 175.492 232.833 174.398 233.344C173.305 233.818 172.339 234.055 171.5 234.055C169.859 234.055 168.62 233.654 167.781 232.852C166.943 232.049 166.341 231.047 165.977 229.844C165.648 228.641 165.466 227.365 165.43 226.016C165.43 224.63 165.411 223.354 165.375 222.188ZM175.438 207.422C174.818 207.422 174.161 207.732 173.469 208.352C172.776 208.935 172.12 209.664 171.5 210.539C170.917 211.378 170.424 212.253 170.023 213.164C169.659 214.039 169.477 214.768 169.477 215.352C170.023 215.352 170.807 215.151 171.828 214.75C172.885 214.312 173.924 213.784 174.945 213.164C175.966 212.544 176.859 211.888 177.625 211.195C178.391 210.503 178.773 209.846 178.773 209.227C178.773 208.898 178.646 208.625 178.391 208.406C178.135 208.188 177.826 208.005 177.461 207.859C177.133 207.714 176.786 207.604 176.422 207.531C176.057 207.458 175.729 207.422 175.438 207.422ZM193.977 233.18C193.977 233.216 194.359 232.997 195.125 232.523C195.927 232.049 196.857 231.43 197.914 230.664C199.008 229.862 200.12 229.005 201.25 228.094C202.38 227.146 203.31 226.253 204.039 225.414C204.768 224.576 205.151 223.865 205.188 223.281C205.26 222.661 204.768 222.26 203.711 222.078C202.398 221.896 201.286 221.914 200.375 222.133C199.5 222.352 198.698 222.607 197.969 222.898C197.24 223.19 196.547 223.464 195.891 223.719C195.271 223.974 194.578 224.065 193.812 223.992C192.208 223.992 191.096 223.5 190.477 222.516C189.893 221.495 189.602 220.128 189.602 218.414C189.602 216.701 189.984 215.078 190.75 213.547C191.516 211.979 192.5 210.63 193.703 209.5C194.906 208.37 196.292 207.477 197.859 206.82C199.427 206.128 201.031 205.781 202.672 205.781C203.328 205.781 203.893 205.836 204.367 205.945C204.841 206.055 205.078 206.474 205.078 207.203C205.078 207.714 204.859 208.206 204.422 208.68C203.984 209.117 203.492 209.336 202.945 209.336C202.909 209.336 202.818 209.318 202.672 209.281C202.526 209.208 202.38 209.117 202.234 209.008C202.089 208.898 201.943 208.826 201.797 208.789C201.651 208.716 201.56 208.68 201.523 208.68C200.357 208.352 199.227 208.516 198.133 209.172C197.039 209.828 196.055 210.721 195.18 211.852C194.341 212.945 193.667 214.148 193.156 215.461C192.646 216.737 192.391 217.885 192.391 218.906C192.391 219.307 192.464 219.635 192.609 219.891C192.792 220.109 193.01 220.273 193.266 220.383C193.557 220.492 193.867 220.565 194.195 220.602C194.56 220.602 194.924 220.602 195.289 220.602C196.018 220.602 196.747 220.492 197.477 220.273C198.242 220.055 198.971 219.799 199.664 219.508C200.393 219.216 201.122 218.961 201.852 218.742C202.617 218.523 203.401 218.414 204.203 218.414C204.568 218.414 204.969 218.523 205.406 218.742C205.844 218.924 206.245 219.216 206.609 219.617C206.974 219.982 207.284 220.419 207.539 220.93C207.794 221.404 207.94 221.932 207.977 222.516C208.195 223.026 208.122 223.701 207.758 224.539C207.43 225.378 206.919 226.271 206.227 227.219C205.534 228.167 204.695 229.133 203.711 230.117C202.727 231.065 201.742 231.94 200.758 232.742C199.773 233.508 198.807 234.128 197.859 234.602C196.911 235.112 196.109 235.349 195.453 235.312C194.724 235.312 194.286 235.094 194.141 234.656C194.031 234.219 193.977 233.727 193.977 233.18ZM210.109 226.508C209.854 224.831 209.727 223.208 209.727 221.641C209.727 220.036 209.818 218.414 210 216.773C210.219 215.133 210.51 213.438 210.875 211.688C211.276 209.901 211.732 207.987 212.242 205.945C212.242 205.544 212.352 205.18 212.57 204.852C212.789 204.487 213.081 204.195 213.445 203.977C213.81 203.721 214.193 203.521 214.594 203.375C214.995 203.229 215.378 203.156 215.742 203.156C216.544 203.156 217.273 203.411 217.93 203.922C218.586 204.432 219.169 205.052 219.68 205.781C220.227 206.51 220.682 207.294 221.047 208.133C221.448 208.935 221.776 209.628 222.031 210.211C222.323 211.487 222.523 212.945 222.633 214.586C222.779 216.19 222.797 217.831 222.688 219.508C222.578 221.185 222.323 222.844 221.922 224.484C221.521 226.089 220.956 227.565 220.227 228.914C219.497 230.263 218.549 231.393 217.383 232.305C216.253 233.216 214.904 233.781 213.336 234C212.497 234 211.859 233.727 211.422 233.18C210.984 232.596 210.656 231.904 210.438 231.102C210.255 230.263 210.146 229.424 210.109 228.586C210.109 227.747 210.109 227.055 210.109 226.508ZM212.898 226.344C212.898 226.708 212.898 227.055 212.898 227.383C212.935 227.711 212.971 228.039 213.008 228.367C213.081 228.659 213.154 228.987 213.227 229.352C213.336 229.68 213.464 230.062 213.609 230.5H213.938C214.812 230.5 215.56 230.208 216.18 229.625C216.799 229.042 217.328 228.294 217.766 227.383C218.203 226.435 218.568 225.396 218.859 224.266C219.151 223.099 219.37 221.969 219.516 220.875C219.698 219.745 219.807 218.706 219.844 217.758C219.917 216.773 219.953 215.99 219.953 215.406V214.312C219.953 213.839 219.935 213.31 219.898 212.727C219.862 212.107 219.789 211.487 219.68 210.867C219.607 210.211 219.479 209.628 219.297 209.117C219.115 208.57 218.878 208.133 218.586 207.805C218.294 207.477 217.911 207.312 217.438 207.312C216.635 207.057 215.943 207.112 215.359 207.477C214.812 207.841 214.357 208.461 213.992 209.336C213.664 210.174 213.409 211.214 213.227 212.453C213.044 213.693 212.935 215.06 212.898 216.555C212.862 218.049 212.844 219.635 212.844 221.312C212.88 222.99 212.898 224.667 212.898 226.344ZM238.984 227.656C238.839 228.094 238.474 228.695 237.891 229.461C237.344 230.19 236.688 230.938 235.922 231.703C235.156 232.432 234.354 233.089 233.516 233.672C232.714 234.219 232.003 234.492 231.383 234.492C230.216 234.492 229.25 233.945 228.484 232.852C227.755 231.758 227.19 230.354 226.789 228.641C226.388 226.927 226.115 225.031 225.969 222.953C225.823 220.839 225.732 218.779 225.695 216.773C225.659 214.768 225.641 212.945 225.641 211.305C225.641 209.664 225.586 208.424 225.477 207.586C225.622 207.221 225.805 207.003 226.023 206.93C226.279 206.857 226.57 206.82 226.898 206.82C227.19 206.82 227.445 206.857 227.664 206.93C227.919 207.003 228.138 207.221 228.32 207.586C228.32 207.987 228.32 208.661 228.32 209.609C228.357 210.557 228.411 211.633 228.484 212.836C228.557 214.003 228.63 215.242 228.703 216.555C228.776 217.831 228.831 219.052 228.867 220.219C228.94 221.385 228.995 222.443 229.031 223.391C229.104 224.302 229.159 224.977 229.195 225.414C229.232 225.669 229.268 226.089 229.305 226.672C229.378 227.255 229.469 227.875 229.578 228.531C229.724 229.151 229.888 229.716 230.07 230.227C230.289 230.737 230.562 231.01 230.891 231.047C231.438 231.047 231.984 230.81 232.531 230.336C233.115 229.862 233.68 229.26 234.227 228.531C234.773 227.802 235.284 227 235.758 226.125C236.232 225.25 236.651 224.411 237.016 223.609C237.417 222.771 237.708 222.023 237.891 221.367C238.109 220.711 238.237 220.237 238.273 219.945C238.346 219.326 238.419 218.451 238.492 217.32C238.565 216.154 238.62 214.914 238.656 213.602C238.693 212.289 238.711 211.049 238.711 209.883C238.747 208.716 238.766 207.823 238.766 207.203L241.773 207.367C241.81 210.32 241.792 213 241.719 215.406C241.646 217.776 241.628 220.018 241.664 222.133C241.701 224.211 241.865 226.234 242.156 228.203C242.448 230.172 242.977 232.214 243.742 234.328C243.633 234.438 243.414 234.583 243.086 234.766C242.758 234.984 242.521 235.094 242.375 235.094C241.464 235.094 240.844 234.784 240.516 234.164C240.224 233.581 240.023 232.888 239.914 232.086C239.841 231.247 239.768 230.427 239.695 229.625C239.659 228.786 239.422 228.13 238.984 227.656ZM246.805 207.641V207.203C246.805 206.839 246.932 206.583 247.188 206.438C247.479 206.292 247.807 206.219 248.172 206.219C248.464 206.219 248.737 206.255 248.992 206.328C249.247 206.365 249.448 206.565 249.594 206.93C249.703 207.477 249.812 208.242 249.922 209.227C250.031 210.174 250.159 211.232 250.305 212.398C250.451 213.565 250.596 214.805 250.742 216.117C250.924 217.393 251.089 218.615 251.234 219.781C251.417 220.911 251.599 221.932 251.781 222.844C251.964 223.755 252.164 224.448 252.383 224.922C252.273 221.422 252.383 218.396 252.711 215.844C253.039 213.255 253.659 211.159 254.57 209.555C255.518 207.914 256.794 206.784 258.398 206.164C260.039 205.508 262.081 205.362 264.523 205.727C265.654 205.727 266.219 206.328 266.219 207.531C266.219 208.005 265.909 208.333 265.289 208.516C264.669 208.661 263.977 208.771 263.211 208.844C262.445 208.88 261.698 208.935 260.969 209.008C260.24 209.081 259.711 209.263 259.383 209.555C258.07 210.284 257.141 211.414 256.594 212.945C256.083 214.477 255.719 216.281 255.5 218.359C255.281 220.438 255.117 222.716 255.008 225.195C254.935 227.638 254.698 230.154 254.297 232.742C254.297 233.107 254.151 233.38 253.859 233.562C253.568 233.745 253.203 233.836 252.766 233.836C252.365 233.836 251.964 233.745 251.562 233.562C251.198 233.38 250.906 233.107 250.688 232.742L246.805 207.641ZM269.008 221.422C269.117 220.109 269.227 218.688 269.336 217.156C269.445 215.589 269.609 214.039 269.828 212.508C270.083 210.977 270.393 209.518 270.758 208.133C271.159 206.747 271.669 205.526 272.289 204.469C272.945 203.375 273.747 202.518 274.695 201.898C275.643 201.242 276.792 200.932 278.141 200.969C279.052 200.969 279.745 201.352 280.219 202.117C280.729 202.883 281.076 203.812 281.258 204.906C281.477 206 281.586 207.13 281.586 208.297C281.622 209.427 281.641 210.357 281.641 211.086C280.911 211.086 280.31 210.776 279.836 210.156C279.362 209.5 278.997 208.753 278.742 207.914C278.487 207.076 278.305 206.255 278.195 205.453L278.031 203.867C277.995 203.867 277.922 203.867 277.812 203.867C277.74 203.831 277.685 203.812 277.648 203.812C277.029 203.812 276.445 204.159 275.898 204.852C275.388 205.544 274.896 206.438 274.422 207.531C273.984 208.589 273.602 209.792 273.273 211.141C272.945 212.453 272.672 213.747 272.453 215.023C272.234 216.299 272.052 217.484 271.906 218.578C271.797 219.635 271.742 220.456 271.742 221.039C271.669 221.987 271.669 223.026 271.742 224.156C271.815 225.286 272.034 226.344 272.398 227.328C272.763 228.312 273.273 229.169 273.93 229.898C274.586 230.591 275.461 231.065 276.555 231.32C277.904 231.32 278.997 231.138 279.836 230.773C280.674 230.409 281.349 229.917 281.859 229.297C282.406 228.677 282.826 227.984 283.117 227.219C283.409 226.453 283.682 225.669 283.938 224.867C284.229 224.029 284.521 223.208 284.812 222.406C285.104 221.604 285.523 220.857 286.07 220.164C286.508 220.055 286.818 220.073 287 220.219C287.219 220.328 287.365 220.492 287.438 220.711C287.51 220.93 287.547 221.185 287.547 221.477V222.078C287.547 223.609 287.292 225.086 286.781 226.508C286.271 227.93 285.523 229.206 284.539 230.336C283.555 231.43 282.37 232.323 280.984 233.016C279.635 233.672 278.086 234 276.336 234C274.878 234 273.656 233.544 272.672 232.633C271.724 231.685 270.977 230.555 270.43 229.242C269.919 227.93 269.555 226.562 269.336 225.141C269.117 223.682 269.008 222.443 269.008 221.422ZM292.469 222.188C292.286 222.224 292.013 222.279 291.648 222.352C291.284 222.424 290.901 222.443 290.5 222.406C290.099 222.37 289.753 222.26 289.461 222.078C289.133 221.896 288.969 221.586 288.969 221.148C288.969 220.893 289.023 220.711 289.133 220.602C289.242 220.492 289.424 220.328 289.68 220.109C290.482 219.453 291.156 218.615 291.703 217.594C292.286 216.536 292.815 215.424 293.289 214.258C293.763 213.055 294.255 211.87 294.766 210.703C295.312 209.5 295.932 208.424 296.625 207.477C297.318 206.529 298.174 205.763 299.195 205.18C300.216 204.596 301.474 204.323 302.969 204.359C303.589 204.359 304.281 204.505 305.047 204.797C305.812 205.089 306.523 205.49 307.18 206C307.836 206.474 308.383 207.057 308.82 207.75C309.258 208.443 309.477 209.208 309.477 210.047C309.659 210.339 309.477 210.758 308.93 211.305C308.419 211.852 307.708 212.453 306.797 213.109C305.885 213.729 304.846 214.385 303.68 215.078C302.549 215.734 301.456 216.354 300.398 216.938C299.341 217.521 298.411 218.031 297.609 218.469C296.807 218.906 296.279 219.234 296.023 219.453C295.841 219.818 295.695 220.237 295.586 220.711C295.477 221.185 295.385 221.641 295.312 222.078C295.276 222.479 295.24 222.862 295.203 223.227C295.203 223.555 295.203 223.81 295.203 223.992C295.203 224.685 295.167 225.451 295.094 226.289C295.057 227.128 295.094 227.93 295.203 228.695C295.349 229.424 295.659 230.044 296.133 230.555C296.607 231.029 297.409 231.266 298.539 231.266C299.742 231.266 300.872 230.974 301.93 230.391C302.987 229.771 303.971 229.023 304.883 228.148C305.794 227.273 306.615 226.326 307.344 225.305C308.109 224.284 308.784 223.336 309.367 222.461C309.987 221.549 310.534 220.802 311.008 220.219C311.482 219.635 311.883 219.344 312.211 219.344C312.576 219.344 312.958 219.417 313.359 219.562C313.797 219.672 314.016 219.964 314.016 220.438C314.016 221.094 313.742 221.878 313.195 222.789C312.685 223.701 311.992 224.667 311.117 225.688C310.279 226.708 309.294 227.729 308.164 228.75C307.07 229.734 305.958 230.628 304.828 231.43C303.698 232.195 302.586 232.833 301.492 233.344C300.398 233.818 299.432 234.055 298.594 234.055C296.953 234.055 295.714 233.654 294.875 232.852C294.036 232.049 293.435 231.047 293.07 229.844C292.742 228.641 292.56 227.365 292.523 226.016C292.523 224.63 292.505 223.354 292.469 222.188ZM302.531 207.422C301.911 207.422 301.255 207.732 300.562 208.352C299.87 208.935 299.214 209.664 298.594 210.539C298.01 211.378 297.518 212.253 297.117 213.164C296.753 214.039 296.57 214.768 296.57 215.352C297.117 215.352 297.901 215.151 298.922 214.75C299.979 214.312 301.018 213.784 302.039 213.164C303.06 212.544 303.953 211.888 304.719 211.195C305.484 210.503 305.867 209.846 305.867 209.227C305.867 208.898 305.74 208.625 305.484 208.406C305.229 208.188 304.919 208.005 304.555 207.859C304.227 207.714 303.88 207.604 303.516 207.531C303.151 207.458 302.823 207.422 302.531 207.422ZM321.07 233.18C321.07 233.216 321.453 232.997 322.219 232.523C323.021 232.049 323.951 231.43 325.008 230.664C326.102 229.862 327.214 229.005 328.344 228.094C329.474 227.146 330.404 226.253 331.133 225.414C331.862 224.576 332.245 223.865 332.281 223.281C332.354 222.661 331.862 222.26 330.805 222.078C329.492 221.896 328.38 221.914 327.469 222.133C326.594 222.352 325.792 222.607 325.062 222.898C324.333 223.19 323.641 223.464 322.984 223.719C322.365 223.974 321.672 224.065 320.906 223.992C319.302 223.992 318.19 223.5 317.57 222.516C316.987 221.495 316.695 220.128 316.695 218.414C316.695 216.701 317.078 215.078 317.844 213.547C318.609 211.979 319.594 210.63 320.797 209.5C322 208.37 323.385 207.477 324.953 206.82C326.521 206.128 328.125 205.781 329.766 205.781C330.422 205.781 330.987 205.836 331.461 205.945C331.935 206.055 332.172 206.474 332.172 207.203C332.172 207.714 331.953 208.206 331.516 208.68C331.078 209.117 330.586 209.336 330.039 209.336C330.003 209.336 329.911 209.318 329.766 209.281C329.62 209.208 329.474 209.117 329.328 209.008C329.182 208.898 329.036 208.826 328.891 208.789C328.745 208.716 328.654 208.68 328.617 208.68C327.451 208.352 326.32 208.516 325.227 209.172C324.133 209.828 323.148 210.721 322.273 211.852C321.435 212.945 320.76 214.148 320.25 215.461C319.74 216.737 319.484 217.885 319.484 218.906C319.484 219.307 319.557 219.635 319.703 219.891C319.885 220.109 320.104 220.273 320.359 220.383C320.651 220.492 320.961 220.565 321.289 220.602C321.654 220.602 322.018 220.602 322.383 220.602C323.112 220.602 323.841 220.492 324.57 220.273C325.336 220.055 326.065 219.799 326.758 219.508C327.487 219.216 328.216 218.961 328.945 218.742C329.711 218.523 330.495 218.414 331.297 218.414C331.661 218.414 332.062 218.523 332.5 218.742C332.938 218.924 333.339 219.216 333.703 219.617C334.068 219.982 334.378 220.419 334.633 220.93C334.888 221.404 335.034 221.932 335.07 222.516C335.289 223.026 335.216 223.701 334.852 224.539C334.523 225.378 334.013 226.271 333.32 227.219C332.628 228.167 331.789 229.133 330.805 230.117C329.82 231.065 328.836 231.94 327.852 232.742C326.867 233.508 325.901 234.128 324.953 234.602C324.005 235.112 323.203 235.349 322.547 235.312C321.818 235.312 321.38 235.094 321.234 234.656C321.125 234.219 321.07 233.727 321.07 233.18ZM103.113 286.508C102.858 284.831 102.73 283.208 102.73 281.641C102.73 280.036 102.822 278.414 103.004 276.773C103.223 275.133 103.514 273.438 103.879 271.688C104.28 269.901 104.736 267.987 105.246 265.945C105.246 265.544 105.355 265.18 105.574 264.852C105.793 264.487 106.085 264.195 106.449 263.977C106.814 263.721 107.197 263.521 107.598 263.375C107.999 263.229 108.382 263.156 108.746 263.156C109.548 263.156 110.277 263.411 110.934 263.922C111.59 264.432 112.173 265.052 112.684 265.781C113.23 266.51 113.686 267.294 114.051 268.133C114.452 268.935 114.78 269.628 115.035 270.211C115.327 271.487 115.527 272.945 115.637 274.586C115.783 276.19 115.801 277.831 115.691 279.508C115.582 281.185 115.327 282.844 114.926 284.484C114.525 286.089 113.96 287.565 113.23 288.914C112.501 290.263 111.553 291.393 110.387 292.305C109.257 293.216 107.908 293.781 106.34 294C105.501 294 104.863 293.727 104.426 293.18C103.988 292.596 103.66 291.904 103.441 291.102C103.259 290.263 103.15 289.424 103.113 288.586C103.113 287.747 103.113 287.055 103.113 286.508ZM105.902 286.344C105.902 286.708 105.902 287.055 105.902 287.383C105.939 287.711 105.975 288.039 106.012 288.367C106.085 288.659 106.158 288.987 106.23 289.352C106.34 289.68 106.467 290.062 106.613 290.5H106.941C107.816 290.5 108.564 290.208 109.184 289.625C109.803 289.042 110.332 288.294 110.77 287.383C111.207 286.435 111.572 285.396 111.863 284.266C112.155 283.099 112.374 281.969 112.52 280.875C112.702 279.745 112.811 278.706 112.848 277.758C112.921 276.773 112.957 275.99 112.957 275.406V274.312C112.957 273.839 112.939 273.31 112.902 272.727C112.866 272.107 112.793 271.487 112.684 270.867C112.611 270.211 112.483 269.628 112.301 269.117C112.118 268.57 111.882 268.133 111.59 267.805C111.298 267.477 110.915 267.312 110.441 267.312C109.639 267.057 108.947 267.112 108.363 267.477C107.816 267.841 107.361 268.461 106.996 269.336C106.668 270.174 106.413 271.214 106.23 272.453C106.048 273.693 105.939 275.06 105.902 276.555C105.866 278.049 105.848 279.635 105.848 281.312C105.884 282.99 105.902 284.667 105.902 286.344ZM117.387 271.633C117.387 271.596 117.368 271.542 117.332 271.469C117.332 271.359 117.332 271.286 117.332 271.25C117.332 270.703 117.551 270.393 117.988 270.32C118.426 270.211 118.827 270.156 119.191 270.156C119.592 270.156 120.048 270.503 120.559 271.195C121.069 271.852 121.634 272.745 122.254 273.875C122.91 274.969 123.566 276.172 124.223 277.484C124.915 278.797 125.608 280.091 126.301 281.367C127.03 282.607 127.759 283.737 128.488 284.758C129.254 285.779 129.983 286.526 130.676 287C130.895 283.682 131.059 280.857 131.168 278.523C131.277 276.19 131.35 274.221 131.387 272.617C131.46 271.013 131.496 269.755 131.496 268.844C131.496 267.896 131.478 267.167 131.441 266.656C131.441 266.146 131.423 265.818 131.387 265.672C131.387 265.49 131.387 265.362 131.387 265.289C131.387 264.633 131.496 264.232 131.715 264.086C131.97 263.94 132.298 263.867 132.699 263.867C133.173 263.867 133.665 263.94 134.176 264.086C134.686 264.232 134.941 264.596 134.941 265.18C135.051 267.549 135.051 269.956 134.941 272.398C134.868 274.805 134.741 277.211 134.559 279.617C134.376 281.987 134.23 284.32 134.121 286.617C134.012 288.914 134.012 291.138 134.121 293.289C134.048 293.362 133.884 293.453 133.629 293.562C133.374 293.635 133.1 293.708 132.809 293.781C132.517 293.854 132.225 293.909 131.934 293.945C131.678 293.982 131.496 294 131.387 294C131.022 293.927 130.457 293.435 129.691 292.523C128.926 291.576 128.069 290.391 127.121 288.969C126.173 287.547 125.189 285.961 124.168 284.211C123.147 282.461 122.163 280.766 121.215 279.125C120.303 277.484 119.501 275.99 118.809 274.641C118.116 273.292 117.642 272.289 117.387 271.633ZM139.535 282.188C139.353 282.224 139.079 282.279 138.715 282.352C138.35 282.424 137.967 282.443 137.566 282.406C137.165 282.37 136.819 282.26 136.527 282.078C136.199 281.896 136.035 281.586 136.035 281.148C136.035 280.893 136.09 280.711 136.199 280.602C136.309 280.492 136.491 280.328 136.746 280.109C137.548 279.453 138.223 278.615 138.77 277.594C139.353 276.536 139.882 275.424 140.355 274.258C140.829 273.055 141.322 271.87 141.832 270.703C142.379 269.5 142.999 268.424 143.691 267.477C144.384 266.529 145.241 265.763 146.262 265.18C147.283 264.596 148.54 264.323 150.035 264.359C150.655 264.359 151.348 264.505 152.113 264.797C152.879 265.089 153.59 265.49 154.246 266C154.902 266.474 155.449 267.057 155.887 267.75C156.324 268.443 156.543 269.208 156.543 270.047C156.725 270.339 156.543 270.758 155.996 271.305C155.486 271.852 154.775 272.453 153.863 273.109C152.952 273.729 151.913 274.385 150.746 275.078C149.616 275.734 148.522 276.354 147.465 276.938C146.408 277.521 145.478 278.031 144.676 278.469C143.874 278.906 143.345 279.234 143.09 279.453C142.908 279.818 142.762 280.237 142.652 280.711C142.543 281.185 142.452 281.641 142.379 282.078C142.342 282.479 142.306 282.862 142.27 283.227C142.27 283.555 142.27 283.81 142.27 283.992C142.27 284.685 142.233 285.451 142.16 286.289C142.124 287.128 142.16 287.93 142.27 288.695C142.415 289.424 142.725 290.044 143.199 290.555C143.673 291.029 144.475 291.266 145.605 291.266C146.809 291.266 147.939 290.974 148.996 290.391C150.053 289.771 151.038 289.023 151.949 288.148C152.861 287.273 153.681 286.326 154.41 285.305C155.176 284.284 155.85 283.336 156.434 282.461C157.053 281.549 157.6 280.802 158.074 280.219C158.548 279.635 158.949 279.344 159.277 279.344C159.642 279.344 160.025 279.417 160.426 279.562C160.863 279.672 161.082 279.964 161.082 280.438C161.082 281.094 160.809 281.878 160.262 282.789C159.751 283.701 159.059 284.667 158.184 285.688C157.345 286.708 156.361 287.729 155.23 288.75C154.137 289.734 153.025 290.628 151.895 291.43C150.764 292.195 149.652 292.833 148.559 293.344C147.465 293.818 146.499 294.055 145.66 294.055C144.02 294.055 142.78 293.654 141.941 292.852C141.103 292.049 140.501 291.047 140.137 289.844C139.809 288.641 139.626 287.365 139.59 286.016C139.59 284.63 139.572 283.354 139.535 282.188ZM149.598 267.422C148.978 267.422 148.322 267.732 147.629 268.352C146.936 268.935 146.28 269.664 145.66 270.539C145.077 271.378 144.585 272.253 144.184 273.164C143.819 274.039 143.637 274.768 143.637 275.352C144.184 275.352 144.967 275.151 145.988 274.75C147.046 274.312 148.085 273.784 149.105 273.164C150.126 272.544 151.02 271.888 151.785 271.195C152.551 270.503 152.934 269.846 152.934 269.227C152.934 268.898 152.806 268.625 152.551 268.406C152.296 268.188 151.986 268.005 151.621 267.859C151.293 267.714 150.947 267.604 150.582 267.531C150.217 267.458 149.889 267.422 149.598 267.422ZM163.816 267.641V267.203C163.816 266.839 163.944 266.583 164.199 266.438C164.491 266.292 164.819 266.219 165.184 266.219C165.475 266.219 165.749 266.255 166.004 266.328C166.259 266.365 166.46 266.565 166.605 266.93C166.715 267.477 166.824 268.242 166.934 269.227C167.043 270.174 167.171 271.232 167.316 272.398C167.462 273.565 167.608 274.805 167.754 276.117C167.936 277.393 168.1 278.615 168.246 279.781C168.428 280.911 168.611 281.932 168.793 282.844C168.975 283.755 169.176 284.448 169.395 284.922C169.285 281.422 169.395 278.396 169.723 275.844C170.051 273.255 170.671 271.159 171.582 269.555C172.53 267.914 173.806 266.784 175.41 266.164C177.051 265.508 179.092 265.362 181.535 265.727C182.665 265.727 183.23 266.328 183.23 267.531C183.23 268.005 182.921 268.333 182.301 268.516C181.681 268.661 180.988 268.771 180.223 268.844C179.457 268.88 178.71 268.935 177.98 269.008C177.251 269.081 176.723 269.263 176.395 269.555C175.082 270.284 174.152 271.414 173.605 272.945C173.095 274.477 172.73 276.281 172.512 278.359C172.293 280.438 172.129 282.716 172.02 285.195C171.947 287.638 171.71 290.154 171.309 292.742C171.309 293.107 171.163 293.38 170.871 293.562C170.579 293.745 170.215 293.836 169.777 293.836C169.376 293.836 168.975 293.745 168.574 293.562C168.21 293.38 167.918 293.107 167.699 292.742L163.816 267.641ZM190.34 293.18C190.34 293.216 190.723 292.997 191.488 292.523C192.29 292.049 193.22 291.43 194.277 290.664C195.371 289.862 196.483 289.005 197.613 288.094C198.743 287.146 199.673 286.253 200.402 285.414C201.132 284.576 201.514 283.865 201.551 283.281C201.624 282.661 201.132 282.26 200.074 282.078C198.762 281.896 197.65 281.914 196.738 282.133C195.863 282.352 195.061 282.607 194.332 282.898C193.603 283.19 192.91 283.464 192.254 283.719C191.634 283.974 190.941 284.065 190.176 283.992C188.572 283.992 187.46 283.5 186.84 282.516C186.257 281.495 185.965 280.128 185.965 278.414C185.965 276.701 186.348 275.078 187.113 273.547C187.879 271.979 188.863 270.63 190.066 269.5C191.27 268.37 192.655 267.477 194.223 266.82C195.79 266.128 197.395 265.781 199.035 265.781C199.691 265.781 200.257 265.836 200.73 265.945C201.204 266.055 201.441 266.474 201.441 267.203C201.441 267.714 201.223 268.206 200.785 268.68C200.348 269.117 199.855 269.336 199.309 269.336C199.272 269.336 199.181 269.318 199.035 269.281C198.889 269.208 198.743 269.117 198.598 269.008C198.452 268.898 198.306 268.826 198.16 268.789C198.014 268.716 197.923 268.68 197.887 268.68C196.72 268.352 195.59 268.516 194.496 269.172C193.402 269.828 192.418 270.721 191.543 271.852C190.704 272.945 190.03 274.148 189.52 275.461C189.009 276.737 188.754 277.885 188.754 278.906C188.754 279.307 188.827 279.635 188.973 279.891C189.155 280.109 189.374 280.273 189.629 280.383C189.921 280.492 190.23 280.565 190.559 280.602C190.923 280.602 191.288 280.602 191.652 280.602C192.382 280.602 193.111 280.492 193.84 280.273C194.605 280.055 195.335 279.799 196.027 279.508C196.757 279.216 197.486 278.961 198.215 278.742C198.98 278.523 199.764 278.414 200.566 278.414C200.931 278.414 201.332 278.523 201.77 278.742C202.207 278.924 202.608 279.216 202.973 279.617C203.337 279.982 203.647 280.419 203.902 280.93C204.158 281.404 204.303 281.932 204.34 282.516C204.559 283.026 204.486 283.701 204.121 284.539C203.793 285.378 203.283 286.271 202.59 287.219C201.897 288.167 201.059 289.133 200.074 290.117C199.09 291.065 198.105 291.94 197.121 292.742C196.137 293.508 195.171 294.128 194.223 294.602C193.275 295.112 192.473 295.349 191.816 295.312C191.087 295.312 190.65 295.094 190.504 294.656C190.395 294.219 190.34 293.727 190.34 293.18ZM220.418 287.656C220.272 288.094 219.908 288.695 219.324 289.461C218.777 290.19 218.121 290.938 217.355 291.703C216.59 292.432 215.788 293.089 214.949 293.672C214.147 294.219 213.436 294.492 212.816 294.492C211.65 294.492 210.684 293.945 209.918 292.852C209.189 291.758 208.624 290.354 208.223 288.641C207.822 286.927 207.548 285.031 207.402 282.953C207.257 280.839 207.165 278.779 207.129 276.773C207.092 274.768 207.074 272.945 207.074 271.305C207.074 269.664 207.02 268.424 206.91 267.586C207.056 267.221 207.238 267.003 207.457 266.93C207.712 266.857 208.004 266.82 208.332 266.82C208.624 266.82 208.879 266.857 209.098 266.93C209.353 267.003 209.572 267.221 209.754 267.586C209.754 267.987 209.754 268.661 209.754 269.609C209.79 270.557 209.845 271.633 209.918 272.836C209.991 274.003 210.064 275.242 210.137 276.555C210.21 277.831 210.264 279.052 210.301 280.219C210.374 281.385 210.428 282.443 210.465 283.391C210.538 284.302 210.592 284.977 210.629 285.414C210.665 285.669 210.702 286.089 210.738 286.672C210.811 287.255 210.902 287.875 211.012 288.531C211.158 289.151 211.322 289.716 211.504 290.227C211.723 290.737 211.996 291.01 212.324 291.047C212.871 291.047 213.418 290.81 213.965 290.336C214.548 289.862 215.113 289.26 215.66 288.531C216.207 287.802 216.717 287 217.191 286.125C217.665 285.25 218.085 284.411 218.449 283.609C218.85 282.771 219.142 282.023 219.324 281.367C219.543 280.711 219.671 280.237 219.707 279.945C219.78 279.326 219.853 278.451 219.926 277.32C219.999 276.154 220.053 274.914 220.09 273.602C220.126 272.289 220.145 271.049 220.145 269.883C220.181 268.716 220.199 267.823 220.199 267.203L223.207 267.367C223.243 270.32 223.225 273 223.152 275.406C223.079 277.776 223.061 280.018 223.098 282.133C223.134 284.211 223.298 286.234 223.59 288.203C223.882 290.172 224.41 292.214 225.176 294.328C225.066 294.438 224.848 294.583 224.52 294.766C224.191 294.984 223.954 295.094 223.809 295.094C222.897 295.094 222.277 294.784 221.949 294.164C221.658 293.581 221.457 292.888 221.348 292.086C221.275 291.247 221.202 290.427 221.129 289.625C221.092 288.786 220.855 288.13 220.418 287.656ZM229.113 293.617C228.931 290.737 228.858 287.674 228.895 284.43C228.967 281.185 229.059 277.685 229.168 273.93C229.277 270.174 229.368 266.109 229.441 261.734C229.551 257.323 229.569 252.51 229.496 247.297C229.897 247.297 230.316 247.279 230.754 247.242C231.191 247.169 231.574 247.151 231.902 247.188C232.267 247.224 232.559 247.333 232.777 247.516C233.033 247.698 233.16 248.026 233.16 248.5C233.16 249.849 233.105 251.417 232.996 253.203C232.923 254.953 232.814 256.885 232.668 259C232.522 261.078 232.395 263.32 232.285 265.727C232.212 268.133 232.176 270.667 232.176 273.328C233.452 271.651 234.637 270.284 235.73 269.227C236.824 268.169 237.863 267.331 238.848 266.711C239.832 266.055 240.798 265.654 241.746 265.508C242.694 265.326 243.624 265.271 244.535 265.344C245.592 265.344 246.449 265.635 247.105 266.219C247.798 266.802 248.327 267.531 248.691 268.406C249.056 269.281 249.311 270.266 249.457 271.359C249.603 272.417 249.676 273.456 249.676 274.477C249.676 275.206 249.621 275.99 249.512 276.828C249.439 277.63 249.238 278.523 248.91 279.508C248.582 280.492 248.072 281.513 247.379 282.57C246.723 283.591 245.793 284.685 244.59 285.852C243.387 287.018 241.855 288.221 239.996 289.461C238.173 290.701 235.949 291.977 233.324 293.289C232.449 293.544 231.738 293.708 231.191 293.781C230.681 293.818 230.262 293.836 229.934 293.836C229.642 293.799 229.423 293.763 229.277 293.727C229.168 293.69 229.113 293.654 229.113 293.617ZM231.465 290.336C231.647 290.227 232.139 289.99 232.941 289.625C233.743 289.224 234.691 288.714 235.785 288.094C236.879 287.474 238.064 286.727 239.34 285.852C240.616 284.977 241.783 283.956 242.84 282.789C243.934 281.622 244.863 280.31 245.629 278.852C246.395 277.393 246.85 275.789 246.996 274.039C246.996 273.529 246.923 272.982 246.777 272.398C246.632 271.815 246.395 271.268 246.066 270.758C245.775 270.247 245.392 269.828 244.918 269.5C244.444 269.135 243.879 268.953 243.223 268.953C241.874 268.953 240.598 269.318 239.395 270.047C238.228 270.776 237.152 271.688 236.168 272.781C235.184 273.875 234.309 275.06 233.543 276.336C232.777 277.576 232.158 278.724 231.684 279.781L231.465 290.336ZM257.332 293.18C257.332 293.216 257.715 292.997 258.48 292.523C259.283 292.049 260.212 291.43 261.27 290.664C262.363 289.862 263.475 289.005 264.605 288.094C265.736 287.146 266.665 286.253 267.395 285.414C268.124 284.576 268.507 283.865 268.543 283.281C268.616 282.661 268.124 282.26 267.066 282.078C265.754 281.896 264.642 281.914 263.73 282.133C262.855 282.352 262.053 282.607 261.324 282.898C260.595 283.19 259.902 283.464 259.246 283.719C258.626 283.974 257.934 284.065 257.168 283.992C255.564 283.992 254.452 283.5 253.832 282.516C253.249 281.495 252.957 280.128 252.957 278.414C252.957 276.701 253.34 275.078 254.105 273.547C254.871 271.979 255.855 270.63 257.059 269.5C258.262 268.37 259.647 267.477 261.215 266.82C262.783 266.128 264.387 265.781 266.027 265.781C266.684 265.781 267.249 265.836 267.723 265.945C268.197 266.055 268.434 266.474 268.434 267.203C268.434 267.714 268.215 268.206 267.777 268.68C267.34 269.117 266.848 269.336 266.301 269.336C266.264 269.336 266.173 269.318 266.027 269.281C265.882 269.208 265.736 269.117 265.59 269.008C265.444 268.898 265.298 268.826 265.152 268.789C265.007 268.716 264.915 268.68 264.879 268.68C263.712 268.352 262.582 268.516 261.488 269.172C260.395 269.828 259.41 270.721 258.535 271.852C257.697 272.945 257.022 274.148 256.512 275.461C256.001 276.737 255.746 277.885 255.746 278.906C255.746 279.307 255.819 279.635 255.965 279.891C256.147 280.109 256.366 280.273 256.621 280.383C256.913 280.492 257.223 280.565 257.551 280.602C257.915 280.602 258.28 280.602 258.645 280.602C259.374 280.602 260.103 280.492 260.832 280.273C261.598 280.055 262.327 279.799 263.02 279.508C263.749 279.216 264.478 278.961 265.207 278.742C265.973 278.523 266.757 278.414 267.559 278.414C267.923 278.414 268.324 278.523 268.762 278.742C269.199 278.924 269.6 279.216 269.965 279.617C270.329 279.982 270.639 280.419 270.895 280.93C271.15 281.404 271.296 281.932 271.332 282.516C271.551 283.026 271.478 283.701 271.113 284.539C270.785 285.378 270.275 286.271 269.582 287.219C268.889 288.167 268.051 289.133 267.066 290.117C266.082 291.065 265.098 291.94 264.113 292.742C263.129 293.508 262.163 294.128 261.215 294.602C260.267 295.112 259.465 295.349 258.809 295.312C258.079 295.312 257.642 295.094 257.496 294.656C257.387 294.219 257.332 293.727 257.332 293.18ZM273.52 281.422C273.629 280.109 273.738 278.688 273.848 277.156C273.957 275.589 274.121 274.039 274.34 272.508C274.595 270.977 274.905 269.518 275.27 268.133C275.671 266.747 276.181 265.526 276.801 264.469C277.457 263.375 278.259 262.518 279.207 261.898C280.155 261.242 281.303 260.932 282.652 260.969C283.564 260.969 284.257 261.352 284.73 262.117C285.241 262.883 285.587 263.812 285.77 264.906C285.988 266 286.098 267.13 286.098 268.297C286.134 269.427 286.152 270.357 286.152 271.086C285.423 271.086 284.822 270.776 284.348 270.156C283.874 269.5 283.509 268.753 283.254 267.914C282.999 267.076 282.816 266.255 282.707 265.453L282.543 263.867C282.507 263.867 282.434 263.867 282.324 263.867C282.251 263.831 282.197 263.812 282.16 263.812C281.54 263.812 280.957 264.159 280.41 264.852C279.9 265.544 279.408 266.438 278.934 267.531C278.496 268.589 278.113 269.792 277.785 271.141C277.457 272.453 277.184 273.747 276.965 275.023C276.746 276.299 276.564 277.484 276.418 278.578C276.309 279.635 276.254 280.456 276.254 281.039C276.181 281.987 276.181 283.026 276.254 284.156C276.327 285.286 276.546 286.344 276.91 287.328C277.275 288.312 277.785 289.169 278.441 289.898C279.098 290.591 279.973 291.065 281.066 291.32C282.415 291.32 283.509 291.138 284.348 290.773C285.186 290.409 285.861 289.917 286.371 289.297C286.918 288.677 287.337 287.984 287.629 287.219C287.921 286.453 288.194 285.669 288.449 284.867C288.741 284.029 289.033 283.208 289.324 282.406C289.616 281.604 290.035 280.857 290.582 280.164C291.02 280.055 291.329 280.073 291.512 280.219C291.73 280.328 291.876 280.492 291.949 280.711C292.022 280.93 292.059 281.185 292.059 281.477V282.078C292.059 283.609 291.803 285.086 291.293 286.508C290.783 287.93 290.035 289.206 289.051 290.336C288.066 291.43 286.882 292.323 285.496 293.016C284.147 293.672 282.598 294 280.848 294C279.389 294 278.168 293.544 277.184 292.633C276.236 291.685 275.488 290.555 274.941 289.242C274.431 287.93 274.066 286.562 273.848 285.141C273.629 283.682 273.52 282.443 273.52 281.422ZM295.395 267.641V267.203C295.395 266.839 295.522 266.583 295.777 266.438C296.069 266.292 296.397 266.219 296.762 266.219C297.053 266.219 297.327 266.255 297.582 266.328C297.837 266.365 298.038 266.565 298.184 266.93C298.293 267.477 298.402 268.242 298.512 269.227C298.621 270.174 298.749 271.232 298.895 272.398C299.04 273.565 299.186 274.805 299.332 276.117C299.514 277.393 299.678 278.615 299.824 279.781C300.007 280.911 300.189 281.932 300.371 282.844C300.553 283.755 300.754 284.448 300.973 284.922C300.863 281.422 300.973 278.396 301.301 275.844C301.629 273.255 302.249 271.159 303.16 269.555C304.108 267.914 305.384 266.784 306.988 266.164C308.629 265.508 310.671 265.362 313.113 265.727C314.243 265.727 314.809 266.328 314.809 267.531C314.809 268.005 314.499 268.333 313.879 268.516C313.259 268.661 312.566 268.771 311.801 268.844C311.035 268.88 310.288 268.935 309.559 269.008C308.829 269.081 308.301 269.263 307.973 269.555C306.66 270.284 305.73 271.414 305.184 272.945C304.673 274.477 304.309 276.281 304.09 278.359C303.871 280.438 303.707 282.716 303.598 285.195C303.525 287.638 303.288 290.154 302.887 292.742C302.887 293.107 302.741 293.38 302.449 293.562C302.158 293.745 301.793 293.836 301.355 293.836C300.954 293.836 300.553 293.745 300.152 293.562C299.788 293.38 299.496 293.107 299.277 292.742L295.395 267.641ZM318.473 292.906C318.473 290.536 318.418 288.039 318.309 285.414C318.236 282.789 318.145 280.146 318.035 277.484C317.962 274.786 317.944 272.143 317.98 269.555C318.017 266.966 318.181 264.542 318.473 262.281C318.546 262.245 318.71 262.227 318.965 262.227C319.257 262.19 319.457 262.172 319.566 262.172C320.077 262.172 320.478 262.263 320.77 262.445C321.098 262.591 321.262 262.938 321.262 263.484C321.262 265.635 321.243 267.987 321.207 270.539C321.207 273.055 321.189 275.625 321.152 278.25C321.152 280.839 321.152 283.409 321.152 285.961C321.152 288.513 321.189 290.828 321.262 292.906C321.298 293.526 321.171 293.927 320.879 294.109C320.624 294.328 320.296 294.438 319.895 294.438C319.457 294.438 319.092 294.328 318.801 294.109C318.509 293.927 318.4 293.526 318.473 292.906ZM317.27 253.75C317.27 253.312 317.415 253.021 317.707 252.875C317.999 252.729 318.327 252.656 318.691 252.656C319.421 252.656 319.876 252.893 320.059 253.367C320.241 253.841 320.332 254.388 320.332 255.008C320.113 255.409 319.84 255.701 319.512 255.883C319.184 256.029 318.837 256.065 318.473 255.992C318.145 255.883 317.853 255.646 317.598 255.281C317.379 254.917 317.27 254.406 317.27 253.75ZM325.91 293.617C325.728 290.737 325.655 287.674 325.691 284.43C325.764 281.185 325.855 277.685 325.965 273.93C326.074 270.174 326.165 266.109 326.238 261.734C326.348 257.323 326.366 252.51 326.293 247.297C326.694 247.297 327.113 247.279 327.551 247.242C327.988 247.169 328.371 247.151 328.699 247.188C329.064 247.224 329.355 247.333 329.574 247.516C329.829 247.698 329.957 248.026 329.957 248.5C329.957 249.849 329.902 251.417 329.793 253.203C329.72 254.953 329.611 256.885 329.465 259C329.319 261.078 329.191 263.32 329.082 265.727C329.009 268.133 328.973 270.667 328.973 273.328C330.249 271.651 331.434 270.284 332.527 269.227C333.621 268.169 334.66 267.331 335.645 266.711C336.629 266.055 337.595 265.654 338.543 265.508C339.491 265.326 340.421 265.271 341.332 265.344C342.389 265.344 343.246 265.635 343.902 266.219C344.595 266.802 345.124 267.531 345.488 268.406C345.853 269.281 346.108 270.266 346.254 271.359C346.4 272.417 346.473 273.456 346.473 274.477C346.473 275.206 346.418 275.99 346.309 276.828C346.236 277.63 346.035 278.523 345.707 279.508C345.379 280.492 344.868 281.513 344.176 282.57C343.52 283.591 342.59 284.685 341.387 285.852C340.184 287.018 338.652 288.221 336.793 289.461C334.97 290.701 332.746 291.977 330.121 293.289C329.246 293.544 328.535 293.708 327.988 293.781C327.478 293.818 327.059 293.836 326.73 293.836C326.439 293.799 326.22 293.763 326.074 293.727C325.965 293.69 325.91 293.654 325.91 293.617ZM328.262 290.336C328.444 290.227 328.936 289.99 329.738 289.625C330.54 289.224 331.488 288.714 332.582 288.094C333.676 287.474 334.861 286.727 336.137 285.852C337.413 284.977 338.579 283.956 339.637 282.789C340.73 281.622 341.66 280.31 342.426 278.852C343.191 277.393 343.647 275.789 343.793 274.039C343.793 273.529 343.72 272.982 343.574 272.398C343.428 271.815 343.191 271.268 342.863 270.758C342.572 270.247 342.189 269.828 341.715 269.5C341.241 269.135 340.676 268.953 340.02 268.953C338.671 268.953 337.395 269.318 336.191 270.047C335.025 270.776 333.949 271.688 332.965 272.781C331.98 273.875 331.105 275.06 330.34 276.336C329.574 277.576 328.954 278.724 328.48 279.781L328.262 290.336ZM351.395 282.188C351.212 282.224 350.939 282.279 350.574 282.352C350.21 282.424 349.827 282.443 349.426 282.406C349.025 282.37 348.678 282.26 348.387 282.078C348.059 281.896 347.895 281.586 347.895 281.148C347.895 280.893 347.949 280.711 348.059 280.602C348.168 280.492 348.35 280.328 348.605 280.109C349.408 279.453 350.082 278.615 350.629 277.594C351.212 276.536 351.741 275.424 352.215 274.258C352.689 273.055 353.181 271.87 353.691 270.703C354.238 269.5 354.858 268.424 355.551 267.477C356.243 266.529 357.1 265.763 358.121 265.18C359.142 264.596 360.4 264.323 361.895 264.359C362.514 264.359 363.207 264.505 363.973 264.797C364.738 265.089 365.449 265.49 366.105 266C366.762 266.474 367.309 267.057 367.746 267.75C368.184 268.443 368.402 269.208 368.402 270.047C368.585 270.339 368.402 270.758 367.855 271.305C367.345 271.852 366.634 272.453 365.723 273.109C364.811 273.729 363.772 274.385 362.605 275.078C361.475 275.734 360.382 276.354 359.324 276.938C358.267 277.521 357.337 278.031 356.535 278.469C355.733 278.906 355.204 279.234 354.949 279.453C354.767 279.818 354.621 280.237 354.512 280.711C354.402 281.185 354.311 281.641 354.238 282.078C354.202 282.479 354.165 282.862 354.129 283.227C354.129 283.555 354.129 283.81 354.129 283.992C354.129 284.685 354.092 285.451 354.02 286.289C353.983 287.128 354.02 287.93 354.129 288.695C354.275 289.424 354.585 290.044 355.059 290.555C355.533 291.029 356.335 291.266 357.465 291.266C358.668 291.266 359.798 290.974 360.855 290.391C361.913 289.771 362.897 289.023 363.809 288.148C364.72 287.273 365.54 286.326 366.27 285.305C367.035 284.284 367.71 283.336 368.293 282.461C368.913 281.549 369.46 280.802 369.934 280.219C370.408 279.635 370.809 279.344 371.137 279.344C371.501 279.344 371.884 279.417 372.285 279.562C372.723 279.672 372.941 279.964 372.941 280.438C372.941 281.094 372.668 281.878 372.121 282.789C371.611 283.701 370.918 284.667 370.043 285.688C369.204 286.708 368.22 287.729 367.09 288.75C365.996 289.734 364.884 290.628 363.754 291.43C362.624 292.195 361.512 292.833 360.418 293.344C359.324 293.818 358.358 294.055 357.52 294.055C355.879 294.055 354.639 293.654 353.801 292.852C352.962 292.049 352.361 291.047 351.996 289.844C351.668 288.641 351.486 287.365 351.449 286.016C351.449 284.63 351.431 283.354 351.395 282.188ZM361.457 267.422C360.837 267.422 360.181 267.732 359.488 268.352C358.796 268.935 358.139 269.664 357.52 270.539C356.936 271.378 356.444 272.253 356.043 273.164C355.678 274.039 355.496 274.768 355.496 275.352C356.043 275.352 356.827 275.151 357.848 274.75C358.905 274.312 359.944 273.784 360.965 273.164C361.986 272.544 362.879 271.888 363.645 271.195C364.41 270.503 364.793 269.846 364.793 269.227C364.793 268.898 364.665 268.625 364.41 268.406C364.155 268.188 363.845 268.005 363.48 267.859C363.152 267.714 362.806 267.604 362.441 267.531C362.077 267.458 361.749 267.422 361.457 267.422Z" fill="black"/>
</svg>
