<svg width="1200" height="900" viewBox="0 0 1200 900" fill="none" xmlns="http://www.w3.org/2000/svg">
<rect width="1200" height="900" fill="white"/>
<rect x="71" y="159" width="1038" height="8" fill="black"/>
<path d="M134.168 340.6C134.168 347.448 132.87 353.274 130.274 358.079C127.698 362.883 124.182 366.552 119.725 369.087C115.289 371.601 110.301 372.859 104.761 372.859C99.1803 372.859 94.1718 371.591 89.7357 369.056C85.2997 366.521 81.7938 362.852 79.218 358.048C76.6422 353.244 75.3543 347.428 75.3543 340.6C75.3543 333.752 76.6422 327.926 79.218 323.121C81.7938 318.317 85.2997 314.658 89.7357 312.144C94.1718 309.609 99.1803 308.341 104.761 308.341C110.301 308.341 115.289 309.609 119.725 312.144C124.182 314.658 127.698 318.317 130.274 323.121C132.87 327.926 134.168 333.752 134.168 340.6ZM120.706 340.6C120.706 336.164 120.042 332.423 118.713 329.377C117.405 326.331 115.555 324.021 113.163 322.447C110.771 320.873 107.971 320.086 104.761 320.086C101.552 320.086 98.751 320.873 96.3592 322.447C93.9674 324.021 92.1071 326.331 90.7783 329.377C89.47 332.423 88.8158 336.164 88.8158 340.6C88.8158 345.036 89.47 348.777 90.7783 351.823C92.1071 354.869 93.9674 357.179 96.3592 358.753C98.751 360.327 101.552 361.114 104.761 361.114C107.971 361.114 110.771 360.327 113.163 358.753C115.555 357.179 117.405 354.869 118.713 351.823C120.042 348.777 120.706 345.036 120.706 340.6ZM141.008 389.663V324.9H153.887V332.811H154.47C155.042 331.544 155.87 330.256 156.953 328.948C158.057 327.619 159.488 326.515 161.246 325.636C163.025 324.736 165.233 324.287 167.87 324.287C171.304 324.287 174.473 325.186 177.376 326.985C180.279 328.764 182.599 331.452 184.336 335.05C186.074 338.627 186.943 343.114 186.943 348.511C186.943 353.765 186.095 358.201 184.398 361.82C182.722 365.417 180.432 368.147 177.529 370.007C174.647 371.847 171.417 372.767 167.839 372.767C165.304 372.767 163.148 372.348 161.369 371.509C159.611 370.671 158.17 369.618 157.045 368.351C155.921 367.063 155.063 365.765 154.47 364.457H154.071V389.663H141.008ZM153.795 348.45C153.795 351.251 154.183 353.694 154.96 355.779C155.737 357.864 156.861 359.489 158.333 360.654C159.805 361.799 161.594 362.371 163.7 362.371C165.826 362.371 167.625 361.789 169.096 360.624C170.568 359.438 171.682 357.803 172.439 355.717C173.216 353.612 173.604 351.189 173.604 348.45C173.604 345.731 173.226 343.339 172.469 341.275C171.713 339.21 170.599 337.595 169.127 336.43C167.655 335.264 165.846 334.682 163.7 334.682C161.574 334.682 159.775 335.244 158.303 336.368C156.851 337.493 155.737 339.087 154.96 341.152C154.183 343.217 153.795 345.649 153.795 348.45ZM214.366 372.92C209.521 372.92 205.351 371.939 201.855 369.976C198.38 367.993 195.702 365.193 193.821 361.574C191.941 357.935 191 353.632 191 348.665C191 343.82 191.941 339.568 193.821 335.908C195.702 332.249 198.349 329.397 201.763 327.353C205.198 325.309 209.225 324.287 213.845 324.287C216.952 324.287 219.845 324.788 222.523 325.789C225.221 326.771 227.572 328.253 229.576 330.236C231.6 332.218 233.174 334.713 234.298 337.718C235.422 340.702 235.985 344.198 235.985 348.205V351.792H196.213V343.697H223.688C223.688 341.816 223.279 340.15 222.462 338.699C221.644 337.247 220.509 336.113 219.058 335.295C217.627 334.457 215.961 334.038 214.06 334.038C212.077 334.038 210.319 334.498 208.785 335.418C207.273 336.317 206.087 337.534 205.228 339.067C204.37 340.58 203.93 342.266 203.91 344.126V351.823C203.91 354.154 204.339 356.167 205.198 357.864C206.077 359.561 207.314 360.869 208.908 361.789C210.503 362.709 212.394 363.169 214.581 363.169C216.032 363.169 217.361 362.964 218.567 362.555C219.773 362.147 220.806 361.533 221.664 360.716C222.523 359.898 223.177 358.896 223.627 357.711L235.709 358.508C235.095 361.411 233.838 363.946 231.937 366.112C230.056 368.259 227.623 369.935 224.639 371.141C221.675 372.327 218.25 372.92 214.366 372.92ZM254.822 344.77V372H241.759V324.9H254.209V333.21H254.761C255.803 330.471 257.551 328.304 260.004 326.709C262.457 325.094 265.432 324.287 268.927 324.287C272.198 324.287 275.05 325.002 277.483 326.433C279.915 327.864 281.806 329.908 283.156 332.566C284.505 335.203 285.179 338.351 285.179 342.011V372H272.117V344.341C272.137 341.459 271.401 339.21 269.909 337.595C268.416 335.96 266.362 335.142 263.745 335.142C261.987 335.142 260.434 335.52 259.084 336.276C257.756 337.033 256.713 338.137 255.957 339.588C255.221 341.019 254.842 342.746 254.822 344.77ZM349.149 338.331L337.19 339.067C336.985 338.045 336.546 337.125 335.871 336.307C335.197 335.469 334.307 334.804 333.204 334.314C332.12 333.803 330.822 333.547 329.309 333.547C327.285 333.547 325.578 333.977 324.188 334.835C322.798 335.673 322.103 336.798 322.103 338.208C322.103 339.333 322.553 340.283 323.452 341.06C324.352 341.837 325.895 342.46 328.083 342.93L336.607 344.648C341.186 345.588 344.6 347.101 346.849 349.186C349.098 351.271 350.222 354.01 350.222 357.404C350.222 360.491 349.312 363.199 347.493 365.53C345.694 367.86 343.22 369.68 340.072 370.988C336.945 372.276 333.336 372.92 329.248 372.92C323.013 372.92 318.045 371.622 314.345 369.026C310.665 366.409 308.509 362.852 307.875 358.354L320.723 357.68C321.112 359.581 322.052 361.032 323.544 362.034C325.037 363.015 326.948 363.506 329.279 363.506C331.568 363.506 333.408 363.067 334.798 362.187C336.209 361.288 336.924 360.133 336.945 358.722C336.924 357.537 336.423 356.566 335.442 355.809C334.461 355.033 332.948 354.44 330.904 354.031L322.747 352.406C318.148 351.486 314.723 349.891 312.475 347.622C310.246 345.353 309.132 342.46 309.132 338.944C309.132 335.919 309.95 333.312 311.585 331.125C313.241 328.937 315.562 327.251 318.546 326.065C321.551 324.88 325.067 324.287 329.095 324.287C335.043 324.287 339.725 325.544 343.139 328.058C346.573 330.573 348.576 333.997 349.149 338.331ZM376.979 372.92C372.215 372.92 368.096 371.908 364.621 369.884C361.166 367.84 358.498 364.998 356.618 361.36C354.737 357.7 353.797 353.458 353.797 348.634C353.797 343.769 354.737 339.517 356.618 335.878C358.498 332.218 361.166 329.377 364.621 327.353C368.096 325.309 372.215 324.287 376.979 324.287C381.742 324.287 385.851 325.309 389.306 327.353C392.781 329.377 395.459 332.218 397.34 335.878C399.22 339.517 400.161 343.769 400.161 348.634C400.161 353.458 399.22 357.7 397.34 361.36C395.459 364.998 392.781 367.84 389.306 369.884C385.851 371.908 381.742 372.92 376.979 372.92ZM377.04 362.801C379.207 362.801 381.016 362.188 382.467 360.961C383.919 359.714 385.013 358.017 385.749 355.871C386.505 353.724 386.883 351.281 386.883 348.542C386.883 345.803 386.505 343.36 385.749 341.213C385.013 339.067 383.919 337.37 382.467 336.123C381.016 334.876 379.207 334.253 377.04 334.253C374.853 334.253 373.013 334.876 371.52 336.123C370.049 337.37 368.934 339.067 368.178 341.213C367.442 343.36 367.074 345.803 367.074 348.542C367.074 351.281 367.442 353.724 368.178 355.871C368.934 358.017 370.049 359.714 371.52 360.961C373.013 362.188 374.853 362.801 377.04 362.801ZM436.109 351.946V324.9H449.172V372H436.63V363.445H436.139C435.076 366.204 433.308 368.423 430.834 370.099C428.381 371.775 425.387 372.613 421.85 372.613C418.702 372.613 415.932 371.898 413.54 370.467C411.148 369.036 409.278 367.002 407.928 364.365C406.6 361.728 405.925 358.569 405.905 354.889V324.9H418.967V352.559C418.988 355.339 419.734 357.537 421.206 359.152C422.678 360.767 424.651 361.574 427.124 361.574C428.698 361.574 430.17 361.216 431.54 360.501C432.909 359.765 434.013 358.682 434.851 357.251C435.71 355.82 436.129 354.051 436.109 351.946ZM456.87 372V324.9H469.535V333.118H470.025C470.884 330.195 472.325 327.987 474.349 326.495C476.373 324.982 478.703 324.225 481.34 324.225C481.994 324.225 482.7 324.266 483.456 324.348C484.212 324.43 484.877 324.542 485.449 324.685V336.276C484.836 336.092 483.988 335.929 482.904 335.786C481.821 335.643 480.829 335.571 479.93 335.571C478.008 335.571 476.291 335.99 474.778 336.828C473.286 337.646 472.1 338.791 471.221 340.263C470.363 341.735 469.933 343.431 469.933 345.353V372H456.87ZM508.541 372.92C503.717 372.92 499.567 371.898 496.092 369.854C492.637 367.789 489.979 364.927 488.119 361.268C486.279 357.608 485.359 353.397 485.359 348.634C485.359 343.81 486.289 339.578 488.15 335.939C490.031 332.28 492.698 329.428 496.153 327.384C499.608 325.319 503.717 324.287 508.48 324.287C512.589 324.287 516.187 325.033 519.274 326.525C522.361 328.018 524.804 330.113 526.603 332.811C528.401 335.51 529.393 338.678 529.577 342.317H517.25C516.902 339.966 515.983 338.075 514.49 336.644C513.018 335.193 511.087 334.467 508.695 334.467C506.671 334.467 504.903 335.019 503.39 336.123C501.898 337.207 500.732 338.791 499.894 340.876C499.056 342.961 498.637 345.486 498.637 348.45C498.637 351.455 499.046 354.01 499.863 356.116C500.702 358.222 501.877 359.826 503.39 360.93C504.903 362.034 506.671 362.586 508.695 362.586C510.187 362.586 511.526 362.279 512.712 361.666C513.918 361.053 514.909 360.164 515.686 358.998C516.483 357.813 517.005 356.392 517.25 354.736H529.577C529.373 358.334 528.391 361.503 526.633 364.242C524.896 366.961 522.494 369.087 519.427 370.62C516.361 372.153 512.732 372.92 508.541 372.92ZM556.655 372.92C551.811 372.92 547.64 371.939 544.144 369.976C540.669 367.993 537.991 365.193 536.111 361.574C534.23 357.935 533.289 353.632 533.289 348.665C533.289 343.82 534.23 339.568 536.111 335.908C537.991 332.249 540.639 329.397 544.052 327.353C547.487 325.309 551.514 324.287 556.134 324.287C559.241 324.287 562.134 324.788 564.812 325.789C567.511 326.771 569.861 328.253 571.865 330.236C573.889 332.218 575.463 334.713 576.587 337.718C577.711 340.702 578.274 344.198 578.274 348.205V351.792H538.502V343.697H565.977C565.977 341.816 565.568 340.15 564.751 338.699C563.933 337.247 562.798 336.113 561.347 335.295C559.916 334.457 558.25 334.038 556.349 334.038C554.366 334.038 552.608 334.498 551.075 335.418C549.562 336.317 548.376 337.534 547.518 339.067C546.659 340.58 546.219 342.266 546.199 344.126V351.823C546.199 354.154 546.628 356.167 547.487 357.864C548.366 359.561 549.603 360.869 551.197 361.789C552.792 362.709 554.683 363.169 556.87 363.169C558.322 363.169 559.65 362.964 560.856 362.555C562.063 362.147 563.095 361.533 563.953 360.716C564.812 359.898 565.466 358.896 565.916 357.711L577.998 358.508C577.384 361.411 576.127 363.946 574.226 366.112C572.345 368.259 569.913 369.935 566.928 371.141C563.964 372.327 560.54 372.92 556.655 372.92Z" fill="#D2D2D2"/>
<path d="M89.1661 424.109L105.575 475.69H106.205L122.647 424.109H138.559L115.156 492H96.658L73.221 424.109H89.1661ZM180.587 443.634C180.322 440.96 179.184 438.883 177.173 437.402C175.162 435.921 172.433 435.181 168.985 435.181C166.642 435.181 164.664 435.513 163.051 436.176C161.438 436.817 160.2 437.712 159.338 438.861C158.499 440.01 158.079 441.314 158.079 442.772C158.034 443.988 158.289 445.049 158.841 445.955C159.416 446.861 160.2 447.645 161.195 448.308C162.189 448.949 163.338 449.513 164.642 449.999C165.946 450.463 167.339 450.861 168.819 451.193L174.919 452.651C177.88 453.314 180.598 454.198 183.074 455.303C185.549 456.408 187.693 457.767 189.505 459.381C191.317 460.994 192.72 462.894 193.715 465.082C194.731 467.27 195.251 469.779 195.273 472.607C195.251 476.762 194.19 480.364 192.09 483.414C190.013 486.442 187.007 488.796 183.074 490.475C179.162 492.133 174.444 492.961 168.919 492.961C163.438 492.961 158.664 492.122 154.598 490.442C150.554 488.762 147.393 486.276 145.117 482.983C142.863 479.668 141.681 475.569 141.57 470.685H155.46C155.615 472.961 156.266 474.862 157.416 476.386C158.587 477.889 160.145 479.027 162.09 479.801C164.057 480.552 166.278 480.928 168.753 480.928C171.184 480.928 173.294 480.574 175.085 479.867C176.897 479.16 178.3 478.177 179.295 476.917C180.289 475.657 180.786 474.21 180.786 472.574C180.786 471.049 180.333 469.767 179.427 468.729C178.543 467.69 177.239 466.806 175.515 466.077C173.814 465.348 171.725 464.685 169.25 464.088L161.858 462.231C156.134 460.839 151.614 458.662 148.299 455.701C144.984 452.74 143.338 448.75 143.36 443.734C143.338 439.623 144.432 436.032 146.642 432.96C148.874 429.888 151.935 427.49 155.824 425.767C159.714 424.043 164.134 423.181 169.084 423.181C174.123 423.181 178.521 424.043 182.278 425.767C186.057 427.49 188.996 429.888 191.096 432.96C193.195 436.032 194.278 439.59 194.345 443.634H180.587ZM280.489 447.878H265.969C265.704 445.999 265.163 444.331 264.345 442.872C263.527 441.391 262.478 440.132 261.196 439.093C259.914 438.054 258.433 437.259 256.754 436.706C255.096 436.154 253.295 435.877 251.35 435.877C247.836 435.877 244.776 436.75 242.168 438.496C239.56 440.22 237.538 442.739 236.101 446.054C234.665 449.347 233.947 453.347 233.947 458.055C233.947 462.894 234.665 466.961 236.101 470.254C237.56 473.547 239.593 476.033 242.201 477.712C244.809 479.392 247.825 480.232 251.251 480.232C253.174 480.232 254.953 479.978 256.588 479.469C258.245 478.961 259.715 478.221 260.997 477.248C262.279 476.254 263.34 475.049 264.179 473.635C265.041 472.221 265.638 470.607 265.969 468.795L280.489 468.861C280.113 471.977 279.174 474.983 277.671 477.878C276.191 480.751 274.191 483.326 271.671 485.602C269.174 487.856 266.19 489.646 262.721 490.972C259.273 492.276 255.372 492.928 251.019 492.928C244.963 492.928 239.549 491.558 234.775 488.818C230.024 486.077 226.267 482.11 223.504 476.917C220.764 471.723 219.394 465.436 219.394 458.055C219.394 450.651 220.786 444.353 223.571 439.159C226.355 433.966 230.134 430.01 234.908 427.291C239.682 424.551 245.052 423.181 251.019 423.181C254.953 423.181 258.599 423.733 261.958 424.838C265.34 425.943 268.334 427.557 270.942 429.678C273.55 431.778 275.671 434.352 277.307 437.402C278.964 440.452 280.025 443.944 280.489 447.878ZM310.55 492.994C305.401 492.994 300.948 491.901 297.191 489.713C293.456 487.503 290.572 484.431 288.538 480.497C286.505 476.541 285.489 471.955 285.489 466.74C285.489 461.48 286.505 456.883 288.538 452.949C290.572 448.994 293.456 445.922 297.191 443.734C300.948 441.524 305.401 440.419 310.55 440.419C315.699 440.419 320.141 441.524 323.876 443.734C327.633 445.922 330.528 448.994 332.561 452.949C334.595 456.883 335.611 461.48 335.611 466.74C335.611 471.955 334.595 476.541 332.561 480.497C330.528 484.431 327.633 487.503 323.876 489.713C320.141 491.901 315.699 492.994 310.55 492.994ZM310.616 482.055C312.959 482.055 314.915 481.392 316.484 480.066C318.053 478.718 319.235 476.884 320.031 474.563C320.848 472.243 321.257 469.602 321.257 466.64C321.257 463.679 320.848 461.038 320.031 458.718C319.235 456.397 318.053 454.563 316.484 453.215C314.915 451.867 312.959 451.193 310.616 451.193C308.252 451.193 306.263 451.867 304.649 453.215C303.058 454.563 301.854 456.397 301.036 458.718C300.24 461.038 299.843 463.679 299.843 466.64C299.843 469.602 300.24 472.243 301.036 474.563C301.854 476.884 303.058 478.718 304.649 480.066C306.263 481.392 308.252 482.055 310.616 482.055ZM360.584 492.829C356.716 492.829 353.213 491.834 350.075 489.845C346.959 487.834 344.484 484.884 342.65 480.994C340.837 477.083 339.931 472.287 339.931 466.607C339.931 460.773 340.871 455.922 342.749 452.054C344.627 448.165 347.125 445.259 350.241 443.336C353.379 441.391 356.816 440.419 360.55 440.419C363.401 440.419 365.777 440.905 367.678 441.877C369.6 442.828 371.147 444.021 372.319 445.458C373.512 446.872 374.418 448.264 375.037 449.634H375.468V424.109H389.557V492H375.634V483.845H375.037C374.374 485.26 373.435 486.663 372.219 488.055C371.026 489.425 369.468 490.564 367.545 491.47C365.645 492.376 363.324 492.829 360.584 492.829ZM365.059 481.591C367.335 481.591 369.258 480.972 370.827 479.735C372.418 478.475 373.634 476.718 374.473 474.464C375.335 472.21 375.766 469.569 375.766 466.541C375.766 463.513 375.346 460.883 374.507 458.651C373.667 456.419 372.451 454.695 370.86 453.48C369.269 452.264 367.335 451.657 365.059 451.657C362.738 451.657 360.783 452.286 359.191 453.546C357.6 454.806 356.396 456.552 355.578 458.784C354.76 461.016 354.351 463.602 354.351 466.541C354.351 469.502 354.76 472.121 355.578 474.397C356.418 476.652 357.622 478.42 359.191 479.701C360.783 480.961 362.738 481.591 365.059 481.591ZM421.399 492.994C416.162 492.994 411.653 491.934 407.874 489.812C404.117 487.668 401.222 484.641 399.189 480.729C397.156 476.795 396.139 472.143 396.139 466.773C396.139 461.535 397.156 456.939 399.189 452.983C401.222 449.027 404.084 445.944 407.775 443.734C411.487 441.524 415.841 440.419 420.836 440.419C424.195 440.419 427.322 440.96 430.217 442.043C433.134 443.104 435.676 444.706 437.842 446.85C440.03 448.994 441.731 451.69 442.947 454.938C444.162 458.165 444.77 461.944 444.77 466.276V470.154H401.775V461.403H431.477C431.477 459.369 431.035 457.568 430.151 455.999C429.267 454.43 428.04 453.204 426.471 452.32C424.924 451.414 423.123 450.96 421.068 450.96C418.924 450.96 417.024 451.458 415.366 452.452C413.731 453.425 412.449 454.74 411.521 456.397C410.592 458.032 410.117 459.856 410.095 461.867V470.187C410.095 472.707 410.559 474.884 411.487 476.718C412.438 478.552 413.775 479.967 415.499 480.961C417.222 481.956 419.267 482.453 421.631 482.453C423.2 482.453 424.637 482.232 425.941 481.79C427.245 481.348 428.361 480.685 429.289 479.801C430.217 478.917 430.924 477.834 431.411 476.552L444.472 477.414C443.809 480.552 442.449 483.293 440.394 485.635C438.361 487.956 435.731 489.768 432.505 491.072C429.3 492.354 425.598 492.994 421.399 492.994ZM469.645 492V441.082H483.767V492H469.645ZM476.739 434.518C474.64 434.518 472.839 433.822 471.336 432.43C469.855 431.015 469.115 429.325 469.115 427.358C469.115 425.413 469.855 423.744 471.336 422.352C472.839 420.938 474.64 420.231 476.739 420.231C478.839 420.231 480.629 420.938 482.11 422.352C483.612 423.744 484.364 425.413 484.364 427.358C484.364 429.325 483.612 431.015 482.11 432.43C480.629 433.822 478.839 434.518 476.739 434.518ZM506.228 462.563V492H492.106V441.082H505.565V450.065H506.162C507.289 447.104 509.179 444.761 511.831 443.038C514.483 441.292 517.698 440.419 521.477 440.419C525.013 440.419 528.096 441.192 530.726 442.739C533.356 444.286 535.4 446.496 536.859 449.369C538.317 452.22 539.047 455.624 539.047 459.579V492H524.925V462.099C524.947 458.983 524.151 456.552 522.538 454.806C520.925 453.038 518.704 452.154 515.875 452.154C513.974 452.154 512.295 452.563 510.836 453.38C509.4 454.198 508.273 455.392 507.455 456.961C506.659 458.508 506.25 460.375 506.228 462.563ZM592.92 441.082V451.69H562.256V441.082H592.92ZM569.218 428.883H583.339V476.353C583.339 477.657 583.538 478.674 583.936 479.403C584.334 480.11 584.886 480.607 585.594 480.895C586.323 481.182 587.163 481.326 588.113 481.326C588.776 481.326 589.439 481.27 590.102 481.16C590.765 481.027 591.273 480.928 591.627 480.862L593.848 491.37C593.141 491.591 592.146 491.845 590.864 492.133C589.583 492.442 588.025 492.63 586.19 492.696C582.787 492.829 579.803 492.376 577.24 491.337C574.698 490.298 572.72 488.685 571.306 486.497C569.892 484.309 569.195 481.547 569.218 478.21V428.883ZM614.362 462.563V492H600.24V424.109H613.964V450.065H614.561C615.71 447.06 617.566 444.706 620.13 443.005C622.693 441.281 625.909 440.419 629.776 440.419C633.312 440.419 636.395 441.192 639.025 442.739C641.677 444.264 643.732 446.463 645.191 449.336C646.672 452.187 647.401 455.601 647.379 459.579V492H633.257V462.099C633.279 458.961 632.484 456.519 630.87 454.773C629.279 453.027 627.047 452.154 624.174 452.154C622.251 452.154 620.55 452.563 619.069 453.38C617.61 454.198 616.461 455.392 615.621 456.961C614.804 458.508 614.384 460.375 614.362 462.563ZM678.724 492.994C673.487 492.994 668.978 491.934 665.199 489.812C661.442 487.668 658.547 484.641 656.514 480.729C654.481 476.795 653.464 472.143 653.464 466.773C653.464 461.535 654.481 456.939 656.514 452.983C658.547 449.027 661.409 445.944 665.1 443.734C668.813 441.524 673.166 440.419 678.161 440.419C681.52 440.419 684.647 440.96 687.542 442.043C690.459 443.104 693.001 444.706 695.167 446.85C697.355 448.994 699.056 451.69 700.272 454.938C701.487 458.165 702.095 461.944 702.095 466.276V470.154H659.1V461.403H688.802C688.802 459.369 688.36 457.568 687.476 455.999C686.592 454.43 685.365 453.204 683.796 452.32C682.249 451.414 680.448 450.96 678.393 450.96C676.249 450.96 674.349 451.458 672.691 452.452C671.056 453.425 669.774 454.74 668.846 456.397C667.918 458.032 667.442 459.856 667.42 461.867V470.187C667.42 472.707 667.884 474.884 668.813 476.718C669.763 478.552 671.1 479.967 672.824 480.961C674.548 481.956 676.592 482.453 678.956 482.453C680.526 482.453 681.962 482.232 683.266 481.79C684.57 481.348 685.686 480.685 686.614 479.801C687.542 478.917 688.249 477.834 688.736 476.552L701.797 477.414C701.134 480.552 699.775 483.293 697.719 485.635C695.686 487.956 693.056 489.768 689.83 491.072C686.625 492.354 682.923 492.994 678.724 492.994ZM749.976 492.994C744.761 492.994 740.274 491.89 736.517 489.68C732.783 487.447 729.91 484.353 727.898 480.398C725.909 476.442 724.915 471.889 724.915 466.74C724.915 461.524 725.921 456.95 727.932 453.016C729.965 449.06 732.849 445.977 736.584 443.767C740.319 441.535 744.761 440.419 749.91 440.419C754.352 440.419 758.242 441.225 761.579 442.839C764.916 444.452 767.557 446.717 769.502 449.634C771.446 452.552 772.518 455.977 772.717 459.911H759.391C759.015 457.369 758.021 455.325 756.407 453.778C754.816 452.209 752.728 451.425 750.142 451.425C747.954 451.425 746.042 452.021 744.407 453.215C742.794 454.386 741.534 456.099 740.628 458.353C739.722 460.607 739.269 463.336 739.269 466.541C739.269 469.79 739.711 472.552 740.595 474.828C741.501 477.105 742.772 478.84 744.407 480.033C746.042 481.226 747.954 481.823 750.142 481.823C751.755 481.823 753.203 481.491 754.485 480.828C755.789 480.166 756.86 479.204 757.7 477.944C758.562 476.663 759.126 475.127 759.391 473.337H772.717C772.496 477.226 771.435 480.652 769.535 483.613C767.656 486.552 765.059 488.851 761.744 490.508C758.429 492.166 754.507 492.994 749.976 492.994ZM792.908 424.109V492H778.786V424.109H792.908ZM824.253 492.994C819.104 492.994 814.651 491.901 810.894 489.713C807.159 487.503 804.275 484.431 802.242 480.497C800.208 476.541 799.192 471.955 799.192 466.74C799.192 461.48 800.208 456.883 802.242 452.949C804.275 448.994 807.159 445.922 810.894 443.734C814.651 441.524 819.104 440.419 824.253 440.419C829.402 440.419 833.844 441.524 837.579 443.734C841.336 445.922 844.231 448.994 846.265 452.949C848.298 456.883 849.314 461.48 849.314 466.74C849.314 471.955 848.298 476.541 846.265 480.497C844.231 484.431 841.336 487.503 837.579 489.713C833.844 491.901 829.402 492.994 824.253 492.994ZM824.319 482.055C826.662 482.055 828.618 481.392 830.187 480.066C831.756 478.718 832.938 476.884 833.734 474.563C834.552 472.243 834.96 469.602 834.96 466.64C834.96 463.679 834.552 461.038 833.734 458.718C832.938 456.397 831.756 454.563 830.187 453.215C828.618 451.867 826.662 451.193 824.319 451.193C821.955 451.193 819.966 451.867 818.352 453.215C816.761 454.563 815.557 456.397 814.739 458.718C813.943 461.038 813.546 463.679 813.546 466.64C813.546 469.602 813.943 472.243 814.739 474.563C815.557 476.884 816.761 478.718 818.352 480.066C819.966 481.392 821.955 482.055 824.319 482.055ZM888.177 470.32V441.082H902.298V492H888.74V482.751H888.21C887.06 485.735 885.149 488.133 882.475 489.945C879.823 491.757 876.585 492.663 872.762 492.663C869.358 492.663 866.364 491.89 863.778 490.343C861.193 488.796 859.17 486.597 857.712 483.746C856.275 480.895 855.546 477.48 855.524 473.502V441.082H869.646V470.983C869.668 473.989 870.474 476.364 872.066 478.11C873.657 479.856 875.79 480.729 878.464 480.729C880.165 480.729 881.756 480.342 883.237 479.569C884.718 478.773 885.911 477.602 886.817 476.055C887.746 474.508 888.199 472.596 888.177 470.32ZM929.384 492.829C925.517 492.829 922.014 491.834 918.876 489.845C915.759 487.834 913.284 484.884 911.45 480.994C909.638 477.083 908.732 472.287 908.732 466.607C908.732 460.773 909.671 455.922 911.549 452.054C913.428 448.165 915.925 445.259 919.041 443.336C922.18 441.391 925.616 440.419 929.351 440.419C932.202 440.419 934.578 440.905 936.478 441.877C938.401 442.828 939.948 444.021 941.119 445.458C942.313 446.872 943.219 448.264 943.837 449.634H944.268V424.109H958.357V492H944.434V483.845H943.837C943.174 485.26 942.235 486.663 941.02 488.055C939.826 489.425 938.268 490.564 936.346 491.47C934.445 492.376 932.124 492.829 929.384 492.829ZM933.859 481.591C936.136 481.591 938.058 480.972 939.627 479.735C941.219 478.475 942.434 476.718 943.274 474.464C944.136 472.21 944.567 469.569 944.567 466.541C944.567 463.513 944.147 460.883 943.307 458.651C942.467 456.419 941.252 454.695 939.661 453.48C938.069 452.264 936.136 451.657 933.859 451.657C931.539 451.657 929.583 452.286 927.992 453.546C926.401 454.806 925.196 456.552 924.378 458.784C923.561 461.016 923.152 463.602 923.152 466.541C923.152 469.502 923.561 472.121 924.378 474.397C925.218 476.652 926.423 478.42 927.992 479.701C929.583 480.961 931.539 481.591 933.859 481.591Z" fill="#D2D2D2"/>
<path d="M100.004 611H76.711V545.291H100.197C106.806 545.291 112.496 546.606 117.266 549.237C122.036 551.847 125.704 555.601 128.271 560.499C130.859 565.397 132.153 571.258 132.153 578.081C132.153 584.926 130.859 590.808 128.271 595.728C125.704 600.647 122.014 604.423 117.202 607.054C112.41 609.685 106.678 611 100.004 611ZM90.6036 599.097H99.4269C103.534 599.097 106.988 598.369 109.79 596.915C112.614 595.439 114.731 593.161 116.143 590.081C117.576 586.979 118.293 582.98 118.293 578.081C118.293 573.226 117.576 569.258 116.143 566.178C114.731 563.098 112.624 560.831 109.822 559.376C107.02 557.922 103.566 557.194 99.459 557.194H90.6036V599.097ZM161.769 611.963C156.7 611.963 152.336 610.936 148.679 608.882C145.043 606.808 142.241 603.877 140.273 600.091C138.305 596.284 137.321 591.781 137.321 586.584C137.321 581.514 138.305 577.065 140.273 573.237C142.241 569.408 145.01 566.424 148.583 564.285C152.176 562.146 156.39 561.076 161.224 561.076C164.475 561.076 167.502 561.601 170.304 562.649C173.127 563.675 175.587 565.226 177.683 567.301C179.801 569.376 181.448 571.985 182.624 575.13C183.801 578.252 184.389 581.91 184.389 586.102V589.856H142.775V581.386H171.523C171.523 579.418 171.095 577.675 170.24 576.156C169.384 574.638 168.197 573.45 166.678 572.595C165.181 571.718 163.438 571.279 161.448 571.279C159.374 571.279 157.534 571.761 155.93 572.723C154.347 573.664 153.106 574.937 152.208 576.541C151.31 578.124 150.85 579.889 150.828 581.835V589.888C150.828 592.327 151.278 594.434 152.176 596.209C153.096 597.984 154.39 599.353 156.058 600.316C157.727 601.278 159.705 601.76 161.994 601.76C163.513 601.76 164.903 601.546 166.165 601.118C167.427 600.69 168.507 600.048 169.405 599.193C170.304 598.337 170.988 597.289 171.459 596.049L184.1 596.883C183.458 599.92 182.143 602.572 180.154 604.84C178.186 607.086 175.641 608.84 172.518 610.102C169.416 611.342 165.833 611.963 161.769 611.963ZM208.591 611.802C204.848 611.802 201.457 610.84 198.42 608.915C195.404 606.968 193.008 604.113 191.233 600.348C189.479 596.562 188.602 591.92 188.602 586.423C188.602 580.776 189.511 576.081 191.329 572.338C193.147 568.574 195.565 565.761 198.58 563.9C201.618 562.018 204.944 561.076 208.559 561.076C211.318 561.076 213.617 561.547 215.457 562.488C217.318 563.408 218.815 564.563 219.949 565.953C221.104 567.322 221.981 568.67 222.58 569.996H222.997V545.291H236.633V611H223.157V603.107H222.58C221.938 604.476 221.029 605.834 219.852 607.182C218.697 608.508 217.189 609.61 215.329 610.487C213.489 611.364 211.243 611.802 208.591 611.802ZM212.922 600.925C215.125 600.925 216.986 600.327 218.505 599.129C220.045 597.91 221.221 596.209 222.034 594.027C222.868 591.846 223.286 589.289 223.286 586.359C223.286 583.429 222.879 580.883 222.066 578.723C221.254 576.563 220.077 574.894 218.537 573.718C216.997 572.541 215.125 571.953 212.922 571.953C210.676 571.953 208.783 572.563 207.243 573.782C205.703 575.001 204.537 576.691 203.746 578.851C202.955 581.012 202.559 583.514 202.559 586.359C202.559 589.225 202.955 591.76 203.746 593.963C204.559 596.145 205.725 597.856 207.243 599.097C208.783 600.316 210.676 600.925 212.922 600.925ZM244.993 611V561.718H258.661V611H244.993ZM251.859 555.365C249.827 555.365 248.084 554.692 246.629 553.344C245.196 551.975 244.48 550.339 244.48 548.435C244.48 546.553 245.196 544.938 246.629 543.59C248.084 542.221 249.827 541.537 251.859 541.537C253.891 541.537 255.624 542.221 257.057 543.59C258.511 544.938 259.238 546.553 259.238 548.435C259.238 550.339 258.511 551.975 257.057 553.344C255.624 554.692 253.891 555.365 251.859 555.365ZM288.999 611.963C283.951 611.963 279.609 610.893 275.973 608.754C272.358 606.594 269.577 603.599 267.631 599.77C265.706 595.942 264.743 591.535 264.743 586.552C264.743 581.504 265.716 577.076 267.663 573.269C269.631 569.44 272.422 566.456 276.037 564.317C279.652 562.157 283.951 561.076 288.935 561.076C293.234 561.076 296.999 561.857 300.229 563.419C303.458 564.98 306.014 567.173 307.897 569.996C309.779 572.819 310.816 576.135 311.009 579.942H298.111C297.747 577.482 296.785 575.504 295.223 574.007C293.683 572.488 291.662 571.729 289.159 571.729C287.042 571.729 285.192 572.306 283.609 573.461C282.047 574.595 280.828 576.252 279.951 578.434C279.074 580.616 278.636 583.258 278.636 586.359C278.636 589.503 279.064 592.177 279.919 594.38C280.796 596.583 282.026 598.262 283.609 599.417C285.192 600.573 287.042 601.15 289.159 601.15C290.721 601.15 292.122 600.829 293.363 600.188C294.624 599.546 295.662 598.615 296.475 597.396C297.309 596.156 297.854 594.669 298.111 592.936H311.009C310.795 596.701 309.768 600.016 307.929 602.883C306.111 605.727 303.597 607.952 300.389 609.556C297.181 611.16 293.384 611.963 288.999 611.963ZM330.936 611.93C327.791 611.93 324.989 611.385 322.53 610.294C320.07 609.182 318.123 607.546 316.69 605.385C315.278 603.203 314.573 600.487 314.573 597.236C314.573 594.498 315.075 592.198 316.081 590.338C317.086 588.477 318.455 586.979 320.187 585.846C321.92 584.712 323.888 583.856 326.091 583.279C328.315 582.701 330.647 582.295 333.085 582.06C335.952 581.76 338.262 581.482 340.016 581.226C341.77 580.948 343.042 580.541 343.834 580.006C344.625 579.472 345.021 578.68 345.021 577.632V577.44C345.021 575.408 344.379 573.835 343.096 572.723C341.834 571.611 340.037 571.055 337.706 571.055C335.246 571.055 333.289 571.6 331.834 572.691C330.38 573.761 329.417 575.108 328.946 576.734L316.305 575.707C316.947 572.712 318.209 570.124 320.091 567.943C321.973 565.739 324.401 564.05 327.374 562.873C330.369 561.675 333.834 561.076 337.77 561.076C340.508 561.076 343.128 561.397 345.63 562.039C348.154 562.681 350.39 563.675 352.336 565.023C354.304 566.37 355.855 568.103 356.988 570.221C358.122 572.317 358.689 574.83 358.689 577.76V611H345.727V604.166H345.342C344.55 605.706 343.491 607.064 342.165 608.241C340.839 609.396 339.246 610.305 337.385 610.968C335.524 611.61 333.374 611.93 330.936 611.93ZM334.85 602.498C336.861 602.498 338.636 602.102 340.176 601.31C341.716 600.498 342.925 599.407 343.802 598.038C344.679 596.669 345.117 595.118 345.117 593.386V588.156C344.689 588.434 344.101 588.691 343.352 588.926C342.625 589.14 341.802 589.343 340.882 589.535C339.962 589.707 339.042 589.867 338.123 590.017C337.203 590.145 336.369 590.263 335.62 590.37C334.016 590.605 332.615 590.979 331.417 591.493C330.219 592.006 329.289 592.701 328.626 593.578C327.963 594.434 327.631 595.503 327.631 596.787C327.631 598.647 328.305 600.07 329.652 601.054C331.021 602.016 332.754 602.498 334.85 602.498ZM392.628 561.718V571.985H362.95V561.718H392.628ZM369.688 549.911H383.356V595.856C383.356 597.118 383.548 598.102 383.933 598.808C384.318 599.492 384.853 599.974 385.538 600.252C386.244 600.53 387.056 600.669 387.976 600.669C388.618 600.669 389.259 600.615 389.901 600.508C390.543 600.38 391.035 600.284 391.377 600.22L393.527 610.39C392.842 610.604 391.88 610.85 390.639 611.128C389.399 611.428 387.891 611.61 386.115 611.674C382.821 611.802 379.934 611.364 377.452 610.358C374.993 609.353 373.078 607.792 371.709 605.674C370.34 603.556 369.667 600.883 369.688 597.653V549.911ZM420.584 611.963C415.515 611.963 411.151 610.936 407.494 608.882C403.857 606.808 401.055 603.877 399.088 600.091C397.12 596.284 396.136 591.781 396.136 586.584C396.136 581.514 397.12 577.065 399.088 573.237C401.055 569.408 403.825 566.424 407.397 564.285C410.991 562.146 415.205 561.076 420.039 561.076C423.29 561.076 426.317 561.601 429.119 562.649C431.942 563.675 434.402 565.226 436.498 567.301C438.616 569.376 440.263 571.985 441.439 575.13C442.616 578.252 443.204 581.91 443.204 586.102V589.856H401.59V581.386H430.338C430.338 579.418 429.91 577.675 429.054 576.156C428.199 574.638 427.012 573.45 425.493 572.595C423.996 571.718 422.253 571.279 420.263 571.279C418.189 571.279 416.349 571.761 414.745 572.723C413.162 573.664 411.921 574.937 411.023 576.541C410.125 578.124 409.665 579.889 409.643 581.835V589.888C409.643 592.327 410.093 594.434 410.991 596.209C411.911 597.984 413.205 599.353 414.873 600.316C416.542 601.278 418.52 601.76 420.809 601.76C422.327 601.76 423.718 601.546 424.98 601.118C426.242 600.69 427.322 600.048 428.22 599.193C429.119 598.337 429.803 597.289 430.274 596.049L442.915 596.883C442.273 599.92 440.958 602.572 438.969 604.84C437.001 607.086 434.455 608.84 431.332 610.102C428.231 611.342 424.648 611.963 420.584 611.963ZM467.406 611.802C463.663 611.802 460.272 610.84 457.235 608.915C454.219 606.968 451.823 604.113 450.048 600.348C448.294 596.562 447.417 591.92 447.417 586.423C447.417 580.776 448.326 576.081 450.144 572.338C451.962 568.574 454.379 565.761 457.395 563.9C460.433 562.018 463.759 561.076 467.374 561.076C470.133 561.076 472.432 561.547 474.272 562.488C476.133 563.408 477.63 564.563 478.764 565.953C479.919 567.322 480.796 568.67 481.395 569.996H481.812V545.291H495.448V611H481.972V603.107H481.395C480.753 604.476 479.844 605.834 478.667 607.182C477.512 608.508 476.004 609.61 474.143 610.487C472.304 611.364 470.058 611.802 467.406 611.802ZM471.737 600.925C473.94 600.925 475.801 600.327 477.32 599.129C478.86 597.91 480.036 596.209 480.849 594.027C481.683 591.846 482.1 589.289 482.1 586.359C482.1 583.429 481.694 580.883 480.881 578.723C480.068 576.563 478.892 574.894 477.352 573.718C475.812 572.541 473.94 571.953 471.737 571.953C469.491 571.953 467.598 572.563 466.058 573.782C464.518 575.001 463.352 576.691 462.561 578.851C461.77 581.012 461.374 583.514 461.374 586.359C461.374 589.225 461.77 591.76 462.561 593.963C463.374 596.145 464.539 597.856 466.058 599.097C467.598 600.316 469.491 600.925 471.737 600.925ZM544.301 611.963C539.231 611.963 534.868 610.936 531.21 608.882C527.574 606.808 524.772 603.877 522.804 600.091C520.836 596.284 519.852 591.781 519.852 586.584C519.852 581.514 520.836 577.065 522.804 573.237C524.772 569.408 527.542 566.424 531.114 564.285C534.707 562.146 538.921 561.076 543.755 561.076C547.006 561.076 550.033 561.601 552.835 562.649C555.659 563.675 558.118 565.226 560.215 567.301C562.332 569.376 563.979 571.985 565.156 575.13C566.332 578.252 566.92 581.91 566.92 586.102V589.856H525.307V581.386H554.054C554.054 579.418 553.627 577.675 552.771 576.156C551.915 574.638 550.728 573.45 549.21 572.595C547.712 571.718 545.969 571.279 543.98 571.279C541.905 571.279 540.065 571.761 538.461 572.723C536.878 573.664 535.638 574.937 534.739 576.541C533.841 578.124 533.381 579.889 533.36 581.835V589.888C533.36 592.327 533.809 594.434 534.707 596.209C535.627 597.984 536.921 599.353 538.59 600.316C540.258 601.278 542.237 601.76 544.525 601.76C546.044 601.76 547.434 601.546 548.696 601.118C549.958 600.69 551.038 600.048 551.937 599.193C552.835 598.337 553.52 597.289 553.99 596.049L566.631 596.883C565.99 599.92 564.674 602.572 562.685 604.84C560.717 607.086 558.172 608.84 555.049 610.102C551.947 611.342 548.365 611.963 544.301 611.963ZM586.63 582.509V611H572.962V561.718H585.989V570.413H586.566C587.657 567.547 589.486 565.28 592.053 563.611C594.619 561.921 597.732 561.076 601.389 561.076C604.812 561.076 607.795 561.825 610.341 563.322C612.886 564.82 614.865 566.959 616.276 569.739C617.688 572.499 618.394 575.793 618.394 579.621V611H604.726V582.06C604.747 579.044 603.977 576.691 602.416 575.001C600.854 573.29 598.705 572.434 595.967 572.434C594.127 572.434 592.502 572.83 591.09 573.622C589.7 574.413 588.609 575.568 587.817 577.087C587.047 578.584 586.652 580.391 586.63 582.509ZM670.469 561.718L653.24 611H637.839L620.61 561.718H635.048L645.283 596.979H645.796L655.999 561.718H670.469ZM674.586 611V561.718H688.254V611H674.586ZM681.453 555.365C679.421 555.365 677.677 554.692 676.223 553.344C674.79 551.975 674.073 550.339 674.073 548.435C674.073 546.553 674.79 544.938 676.223 543.59C677.677 542.221 679.421 541.537 681.453 541.537C683.485 541.537 685.217 542.221 686.65 543.59C688.105 544.938 688.832 546.553 688.832 548.435C688.832 550.339 688.105 551.975 686.65 553.344C685.217 554.692 683.485 555.365 681.453 555.365ZM696.326 611V561.718H709.577V570.317H710.09C710.989 567.258 712.496 564.948 714.614 563.387C716.732 561.804 719.17 561.012 721.929 561.012C722.614 561.012 723.352 561.055 724.143 561.141C724.935 561.226 725.63 561.344 726.229 561.494V573.622C725.587 573.429 724.699 573.258 723.566 573.108C722.432 572.958 721.395 572.884 720.453 572.884C718.443 572.884 716.646 573.322 715.063 574.199C713.502 575.055 712.261 576.252 711.341 577.793C710.443 579.333 709.994 581.108 709.994 583.119V611H696.326ZM750.391 611.963C745.407 611.963 741.097 610.904 737.46 608.786C733.846 606.647 731.054 603.674 729.086 599.867C727.119 596.038 726.135 591.6 726.135 586.552C726.135 581.461 727.119 577.012 729.086 573.204C731.054 569.376 733.846 566.403 737.46 564.285C741.097 562.146 745.407 561.076 750.391 561.076C755.374 561.076 759.674 562.146 763.288 564.285C766.925 566.403 769.727 569.376 771.695 573.204C773.662 577.012 774.646 581.461 774.646 586.552C774.646 591.6 773.662 596.038 771.695 599.867C769.727 603.674 766.925 606.647 763.288 608.786C759.674 610.904 755.374 611.963 750.391 611.963ZM750.455 601.375C752.722 601.375 754.615 600.733 756.134 599.45C757.652 598.145 758.797 596.369 759.567 594.124C760.358 591.878 760.754 589.322 760.754 586.455C760.754 583.589 760.358 581.033 759.567 578.787C758.797 576.541 757.652 574.766 756.134 573.461C754.615 572.156 752.722 571.504 750.455 571.504C748.166 571.504 746.241 572.156 744.679 573.461C743.139 574.766 741.974 576.541 741.182 578.787C740.412 581.033 740.027 583.589 740.027 586.455C740.027 589.322 740.412 591.878 741.182 594.124C741.974 596.369 743.139 598.145 744.679 599.45C746.241 600.733 748.166 601.375 750.455 601.375ZM794.324 582.509V611H780.656V561.718H793.683V570.413H794.26C795.351 567.547 797.18 565.28 799.747 563.611C802.313 561.921 805.426 561.076 809.083 561.076C812.506 561.076 815.489 561.825 818.035 563.322C820.58 564.82 822.559 566.959 823.97 569.739C825.382 572.499 826.088 575.793 826.088 579.621V611H812.42V582.06C812.441 579.044 811.671 576.691 810.11 575.001C808.549 573.29 806.399 572.434 803.661 572.434C801.821 572.434 800.196 572.83 798.784 573.622C797.394 574.413 796.303 575.568 795.512 577.087C794.741 578.584 794.346 580.391 794.324 582.509ZM833.983 611V561.718H847.009V570.413H847.587C848.614 567.525 850.325 565.247 852.72 563.579C855.116 561.911 857.982 561.076 861.319 561.076C864.699 561.076 867.576 561.921 869.95 563.611C872.324 565.28 873.907 567.547 874.698 570.413H875.212C876.217 567.59 878.035 565.333 880.666 563.643C883.318 561.932 886.452 561.076 890.067 561.076C894.666 561.076 898.398 562.542 901.264 565.472C904.152 568.381 905.596 572.509 905.596 577.857V611H891.96V580.552C891.96 577.814 891.233 575.761 889.778 574.392C888.324 573.023 886.505 572.338 884.324 572.338C881.842 572.338 879.907 573.13 878.516 574.712C877.126 576.274 876.431 578.338 876.431 580.905V611H863.18V580.263C863.18 577.846 862.485 575.921 861.094 574.488C859.726 573.055 857.918 572.338 855.672 572.338C854.154 572.338 852.785 572.723 851.565 573.493C850.368 574.242 849.416 575.301 848.71 576.67C848.004 578.017 847.651 579.6 847.651 581.418V611H833.983ZM935.974 611.963C930.905 611.963 926.541 610.936 922.883 608.882C919.247 606.808 916.445 603.877 914.477 600.091C912.509 596.284 911.525 591.781 911.525 586.584C911.525 581.514 912.509 577.065 914.477 573.237C916.445 569.408 919.215 566.424 922.787 564.285C926.381 562.146 930.594 561.076 935.428 561.076C938.68 561.076 941.706 561.601 944.508 562.649C947.332 563.675 949.792 565.226 951.888 567.301C954.005 569.376 955.652 571.985 956.829 575.13C958.005 578.252 958.593 581.91 958.593 586.102V589.856H916.98V581.386H945.728C945.728 579.418 945.3 577.675 944.444 576.156C943.589 574.638 942.401 573.45 940.883 572.595C939.386 571.718 937.642 571.279 935.653 571.279C933.578 571.279 931.739 571.761 930.135 572.723C928.552 573.664 927.311 574.937 926.413 576.541C925.514 578.124 925.054 579.889 925.033 581.835V589.888C925.033 592.327 925.482 594.434 926.381 596.209C927.3 597.984 928.594 599.353 930.263 600.316C931.931 601.278 933.91 601.76 936.198 601.76C937.717 601.76 939.107 601.546 940.369 601.118C941.631 600.69 942.712 600.048 943.61 599.193C944.508 598.337 945.193 597.289 945.663 596.049L958.305 596.883C957.663 599.92 956.348 602.572 954.358 604.84C952.39 607.086 949.845 608.84 946.722 610.102C943.621 611.342 940.038 611.963 935.974 611.963ZM978.304 582.509V611H964.636V561.718H977.662V570.413H978.239C979.33 567.547 981.159 565.28 983.726 563.611C986.293 561.921 989.405 561.076 993.062 561.076C996.485 561.076 999.469 561.825 1002.01 563.322C1004.56 564.82 1006.54 566.959 1007.95 569.739C1009.36 572.499 1010.07 575.793 1010.07 579.621V611H996.399V582.06C996.421 579.044 995.651 576.691 994.089 575.001C992.528 573.29 990.378 572.434 987.64 572.434C985.801 572.434 984.175 572.83 982.763 573.622C981.373 574.413 980.282 575.568 979.491 577.087C978.721 578.584 978.325 580.391 978.304 582.509ZM1044.18 561.718V571.985H1014.5V561.718H1044.18ZM1021.23 549.911H1034.9V595.856C1034.9 597.118 1035.1 598.102 1035.48 598.808C1035.87 599.492 1036.4 599.974 1037.08 600.252C1037.79 600.53 1038.6 600.669 1039.52 600.669C1040.16 600.669 1040.81 600.615 1041.45 600.508C1042.09 600.38 1042.58 600.284 1042.92 600.22L1045.07 610.39C1044.39 610.604 1043.43 610.85 1042.19 611.128C1040.95 611.428 1039.44 611.61 1037.66 611.674C1034.37 611.802 1031.48 611.364 1029 610.358C1026.54 609.353 1024.63 607.792 1023.26 605.674C1021.89 603.556 1021.21 600.883 1021.23 597.653V549.911Z" fill="black"/>
<path d="M97.4545 117.129C97.2134 116.291 96.8747 115.55 96.4384 114.907C96.0021 114.253 95.4682 113.702 94.8366 113.254C94.2166 112.794 93.5047 112.444 92.701 112.203C91.9087 111.962 91.0304 111.841 90.0659 111.841C88.2632 111.841 86.6787 112.289 85.3123 113.185C83.9574 114.08 82.9011 115.384 82.1433 117.094C81.3855 118.794 81.0066 120.872 81.0066 123.329C81.0066 125.786 81.3797 127.876 82.1261 129.598C82.8724 131.321 83.9287 132.635 85.2951 133.542C86.6615 134.438 88.2747 134.886 90.1348 134.886C91.8226 134.886 93.2636 134.587 94.4577 133.99C95.6634 133.382 96.5819 132.526 97.2134 131.424C97.8564 130.322 98.1779 129.019 98.1779 127.514L99.6935 127.738H90.5998V122.124H105.36V126.567C105.36 129.667 104.705 132.331 103.396 134.559C102.088 136.775 100.285 138.485 97.9885 139.691C95.6921 140.885 93.0627 141.482 90.1003 141.482C86.7935 141.482 83.8886 140.753 81.3855 139.295C78.8824 137.825 76.9305 135.741 75.5297 133.043C74.1403 130.333 73.4457 127.118 73.4457 123.398C73.4457 120.539 73.859 117.99 74.6857 115.751C75.5239 113.501 76.6951 111.595 78.1992 110.033C79.7034 108.471 81.4544 107.283 83.4522 106.468C85.4501 105.653 87.6145 105.245 89.9453 105.245C91.9432 105.245 93.8033 105.538 95.5256 106.123C97.2479 106.698 98.775 107.513 100.107 108.569C101.45 109.625 102.547 110.883 103.396 112.341C104.246 113.788 104.792 115.384 105.033 117.129H97.4545ZM110.937 141V114.545H118.274V141H110.937ZM114.623 111.135C113.532 111.135 112.596 110.774 111.815 110.05C111.046 109.315 110.661 108.437 110.661 107.415C110.661 106.405 111.046 105.538 111.815 104.814C112.596 104.08 113.532 103.712 114.623 103.712C115.714 103.712 116.644 104.08 117.413 104.814C118.194 105.538 118.584 106.405 118.584 107.415C118.584 108.437 118.194 109.315 117.413 110.05C116.644 110.774 115.714 111.135 114.623 111.135ZM136.678 114.545V120.057H120.747V114.545H136.678ZM124.364 108.207H131.701V132.871C131.701 133.548 131.804 134.076 132.011 134.455C132.217 134.823 132.504 135.081 132.872 135.23C133.251 135.38 133.687 135.454 134.181 135.454C134.525 135.454 134.87 135.425 135.214 135.368C135.559 135.299 135.823 135.248 136.006 135.213L137.16 140.673C136.793 140.788 136.276 140.92 135.61 141.069C134.944 141.23 134.135 141.327 133.182 141.362C131.414 141.431 129.863 141.195 128.532 140.656C127.211 140.116 126.183 139.278 125.449 138.141C124.714 137.004 124.352 135.569 124.364 133.835V108.207ZM140.619 141V105.727H154.535C157.21 105.727 159.49 106.238 161.373 107.26C163.256 108.271 164.691 109.677 165.678 111.48C166.677 113.271 167.177 115.338 167.177 117.68C167.177 120.022 166.672 122.089 165.661 123.88C164.651 125.672 163.187 127.067 161.269 128.066C159.363 129.064 157.055 129.564 154.346 129.564H145.476V123.588H153.14C154.575 123.588 155.758 123.341 156.688 122.847C157.63 122.342 158.33 121.647 158.789 120.763C159.26 119.867 159.495 118.84 159.495 117.68C159.495 116.509 159.26 115.487 158.789 114.614C158.33 113.73 157.63 113.047 156.688 112.565C155.746 112.071 154.552 111.824 153.106 111.824H148.077V141H140.619ZM181.865 141.517C179.19 141.517 176.876 140.948 174.924 139.812C172.984 138.663 171.485 137.067 170.429 135.024C169.373 132.968 168.844 130.586 168.844 127.876C168.844 125.143 169.373 122.755 170.429 120.711C171.485 118.656 172.984 117.06 174.924 115.923C176.876 114.775 179.19 114.201 181.865 114.201C184.54 114.201 186.848 114.775 188.789 115.923C190.741 117.06 192.245 118.656 193.301 120.711C194.357 122.755 194.886 125.143 194.886 127.876C194.886 130.586 194.357 132.968 193.301 135.024C192.245 137.067 190.741 138.663 188.789 139.812C186.848 140.948 184.54 141.517 181.865 141.517ZM181.899 135.833C183.116 135.833 184.133 135.489 184.948 134.8C185.763 134.099 186.377 133.146 186.791 131.941C187.216 130.735 187.428 129.363 187.428 127.824C187.428 126.286 187.216 124.914 186.791 123.708C186.377 122.502 185.763 121.549 184.948 120.849C184.133 120.149 183.116 119.798 181.899 119.798C180.671 119.798 179.637 120.149 178.799 120.849C177.973 121.549 177.347 122.502 176.922 123.708C176.509 124.914 176.302 126.286 176.302 127.824C176.302 129.363 176.509 130.735 176.922 131.941C177.347 133.146 177.973 134.099 178.799 134.8C179.637 135.489 180.671 135.833 181.899 135.833ZM207.86 141.431C205.851 141.431 204.031 140.914 202.4 139.881C200.781 138.836 199.495 137.303 198.542 135.282C197.601 133.25 197.13 130.758 197.13 127.807C197.13 124.776 197.618 122.256 198.594 120.246C199.57 118.225 200.867 116.716 202.486 115.717C204.117 114.706 205.902 114.201 207.843 114.201C209.324 114.201 210.558 114.454 211.546 114.959C212.545 115.453 213.348 116.073 213.957 116.819C214.577 117.554 215.048 118.277 215.369 118.989H215.593V105.727H222.913V141H215.679V136.763H215.369C215.025 137.498 214.537 138.227 213.905 138.95C213.285 139.662 212.476 140.254 211.477 140.724C210.489 141.195 209.284 141.431 207.86 141.431ZM210.185 135.592C211.368 135.592 212.367 135.27 213.182 134.627C214.009 133.973 214.64 133.06 215.076 131.889C215.524 130.718 215.748 129.346 215.748 127.773C215.748 126.2 215.53 124.833 215.094 123.674C214.657 122.514 214.026 121.618 213.199 120.987C212.372 120.355 211.368 120.04 210.185 120.04C208.979 120.04 207.963 120.367 207.137 121.021C206.31 121.676 205.684 122.583 205.259 123.743C204.834 124.902 204.622 126.246 204.622 127.773C204.622 129.311 204.834 130.672 205.259 131.855C205.696 133.026 206.321 133.944 207.137 134.61C207.963 135.265 208.979 135.592 210.185 135.592Z" fill="black"/>
</svg>
