<svg width="1200" height="900" viewBox="0 0 1200 900" fill="none" xmlns="http://www.w3.org/2000/svg">
<rect width="1200" height="900" fill="white"/>
<path d="M141.49 396.734H125.936C125.652 394.722 125.072 392.935 124.196 391.372C123.32 389.786 122.196 388.437 120.822 387.324C119.449 386.211 117.863 385.359 116.064 384.767C114.288 384.175 112.359 383.879 110.276 383.879C106.511 383.879 103.232 384.814 100.439 386.685C97.6454 388.531 95.4792 391.23 93.9403 394.781C92.4015 398.309 91.6321 402.594 91.6321 407.636C91.6321 412.821 92.4015 417.177 93.9403 420.705C95.5028 424.232 97.6809 426.895 100.474 428.695C103.268 430.494 106.5 431.393 110.169 431.393C112.229 431.393 114.134 431.121 115.886 430.577C117.662 430.032 119.236 429.239 120.609 428.197C121.982 427.132 123.119 425.842 124.018 424.327C124.942 422.812 125.581 421.083 125.936 419.142L141.49 419.213C141.088 422.551 140.081 425.771 138.472 428.872C136.885 431.95 134.743 434.708 132.044 437.146C129.369 439.561 126.173 441.479 122.456 442.899C118.763 444.296 114.584 444.994 109.92 444.994C103.434 444.994 97.6335 443.527 92.5199 440.591C87.4299 437.655 83.4053 433.406 80.446 427.842C77.5104 422.279 76.0426 415.544 76.0426 407.636C76.0426 399.705 77.5341 392.958 80.517 387.395C83.5 381.831 87.5483 377.594 92.6619 374.682C97.7756 371.746 103.528 370.278 109.92 370.278C114.134 370.278 118.041 370.87 121.639 372.054C125.261 373.238 128.469 374.966 131.263 377.239C134.056 379.488 136.329 382.246 138.081 385.513C139.857 388.78 140.993 392.52 141.49 396.734ZM165.155 445.03C161.675 445.03 158.573 444.426 155.851 443.219C153.128 441.988 150.974 440.177 149.388 437.786C147.825 435.371 147.044 432.364 147.044 428.766C147.044 425.735 147.6 423.19 148.713 421.131C149.826 419.071 151.341 417.414 153.258 416.159C155.176 414.904 157.354 413.957 159.792 413.318C162.255 412.679 164.835 412.229 167.534 411.969C170.706 411.637 173.263 411.33 175.204 411.045C177.146 410.738 178.554 410.288 179.43 409.696C180.306 409.104 180.744 408.228 180.744 407.068V406.855C180.744 404.606 180.034 402.866 178.613 401.635C177.217 400.404 175.228 399.788 172.648 399.788C169.925 399.788 167.759 400.392 166.149 401.599C164.539 402.783 163.474 404.275 162.953 406.074L148.961 404.938C149.672 401.623 151.068 398.759 153.152 396.344C155.235 393.905 157.922 392.035 161.213 390.733C164.527 389.407 168.363 388.744 172.719 388.744C175.749 388.744 178.649 389.099 181.419 389.81C184.212 390.52 186.686 391.621 188.841 393.112C191.019 394.604 192.735 396.521 193.99 398.865C195.245 401.185 195.872 403.967 195.872 407.21V444H181.525V436.436H181.099C180.223 438.141 179.051 439.644 177.584 440.946C176.116 442.224 174.352 443.231 172.292 443.964C170.233 444.675 167.854 445.03 165.155 445.03ZM169.487 434.589C171.712 434.589 173.677 434.152 175.382 433.276C177.086 432.376 178.424 431.169 179.395 429.653C180.365 428.138 180.851 426.422 180.851 424.504V418.716C180.377 419.024 179.726 419.308 178.898 419.568C178.093 419.805 177.181 420.03 176.163 420.243C175.145 420.432 174.127 420.61 173.109 420.776C172.091 420.918 171.168 421.048 170.339 421.166C168.564 421.427 167.013 421.841 165.687 422.409C164.362 422.977 163.332 423.747 162.598 424.717C161.864 425.664 161.497 426.848 161.497 428.268C161.497 430.328 162.243 431.902 163.734 432.991C165.249 434.057 167.167 434.589 169.487 434.589ZM250.36 405.009L236.511 405.861C236.274 404.677 235.765 403.612 234.984 402.665C234.203 401.694 233.173 400.925 231.895 400.357C230.64 399.765 229.136 399.469 227.385 399.469C225.041 399.469 223.064 399.966 221.454 400.96C219.844 401.931 219.039 403.233 219.039 404.866C219.039 406.169 219.56 407.269 220.602 408.169C221.644 409.069 223.431 409.791 225.964 410.335L235.836 412.324C241.139 413.413 245.093 415.165 247.697 417.58C250.301 419.994 251.603 423.167 251.603 427.097C251.603 430.671 250.55 433.808 248.443 436.507C246.359 439.206 243.495 441.313 239.849 442.828C236.227 444.32 232.048 445.065 227.314 445.065C220.093 445.065 214.34 443.562 210.055 440.555C205.794 437.525 203.296 433.406 202.562 428.197L217.441 427.416C217.891 429.618 218.98 431.299 220.708 432.459C222.437 433.595 224.65 434.163 227.349 434.163C230.001 434.163 232.131 433.654 233.741 432.636C235.375 431.595 236.203 430.257 236.227 428.624C236.203 427.25 235.623 426.126 234.487 425.25C233.35 424.35 231.599 423.664 229.231 423.19L219.785 421.308C214.458 420.243 210.493 418.396 207.889 415.768C205.308 413.141 204.018 409.791 204.018 405.719C204.018 402.215 204.965 399.196 206.859 396.663C208.777 394.13 211.464 392.177 214.92 390.804C218.4 389.431 222.472 388.744 227.136 388.744C234.025 388.744 239.447 390.2 243.4 393.112C247.377 396.024 249.698 399.99 250.36 405.009ZM283.356 445.065C277.745 445.065 272.915 443.929 268.867 441.656C264.842 439.36 261.741 436.116 259.563 431.926C257.385 427.712 256.296 422.729 256.296 416.976C256.296 411.365 257.385 406.441 259.563 402.203C261.741 397.965 264.807 394.663 268.76 392.295C272.738 389.928 277.402 388.744 282.752 388.744C286.35 388.744 289.7 389.324 292.802 390.484C295.927 391.621 298.649 393.337 300.969 395.634C303.313 397.93 305.136 400.818 306.438 404.298C307.74 407.755 308.391 411.803 308.391 416.443V420.598H262.333V411.223H294.151C294.151 409.045 293.678 407.116 292.731 405.435C291.784 403.754 290.47 402.44 288.789 401.493C287.132 400.522 285.202 400.037 283.001 400.037C280.704 400.037 278.668 400.57 276.893 401.635C275.141 402.677 273.768 404.085 272.773 405.861C271.779 407.613 271.27 409.566 271.246 411.72V420.634C271.246 423.332 271.743 425.664 272.738 427.629C273.756 429.594 275.188 431.109 277.035 432.175C278.881 433.24 281.071 433.773 283.604 433.773C285.285 433.773 286.824 433.536 288.221 433.062C289.617 432.589 290.813 431.879 291.807 430.932C292.802 429.985 293.559 428.825 294.08 427.452L308.072 428.375C307.361 431.737 305.905 434.672 303.704 437.182C301.526 439.668 298.708 441.609 295.252 443.006C291.819 444.379 287.854 445.065 283.356 445.065ZM381.528 405.009L367.679 405.861C367.442 404.677 366.933 403.612 366.152 402.665C365.371 401.694 364.341 400.925 363.062 400.357C361.808 399.765 360.304 399.469 358.552 399.469C356.209 399.469 354.232 399.966 352.622 400.96C351.012 401.931 350.207 403.233 350.207 404.866C350.207 406.169 350.728 407.269 351.77 408.169C352.811 409.069 354.599 409.791 357.132 410.335L367.004 412.324C372.307 413.413 376.261 415.165 378.865 417.58C381.469 419.994 382.771 423.167 382.771 427.097C382.771 430.671 381.718 433.808 379.611 436.507C377.527 439.206 374.663 441.313 371.017 442.828C367.395 444.32 363.216 445.065 358.481 445.065C351.261 445.065 345.508 443.562 341.223 440.555C336.961 437.525 334.464 433.406 333.73 428.197L348.609 427.416C349.059 429.618 350.148 431.299 351.876 432.459C353.604 433.595 355.818 434.163 358.517 434.163C361.168 434.163 363.299 433.654 364.909 432.636C366.542 431.595 367.371 430.257 367.395 428.624C367.371 427.25 366.791 426.126 365.655 425.25C364.518 424.35 362.766 423.664 360.399 423.19L350.953 421.308C345.626 420.243 341.661 418.396 339.057 415.768C336.476 413.141 335.186 409.791 335.186 405.719C335.186 402.215 336.133 399.196 338.027 396.663C339.944 394.13 342.631 392.177 346.088 390.804C349.568 389.431 353.64 388.744 358.304 388.744C365.193 388.744 370.614 390.2 374.568 393.112C378.545 396.024 380.865 399.99 381.528 405.009ZM418.678 389.455V400.818H385.83V389.455H418.678ZM393.288 376.386H408.415V427.239C408.415 428.635 408.629 429.724 409.055 430.506C409.481 431.263 410.073 431.796 410.83 432.104C411.611 432.411 412.511 432.565 413.529 432.565C414.239 432.565 414.95 432.506 415.66 432.388C416.37 432.246 416.914 432.139 417.293 432.068L419.673 443.325C418.915 443.562 417.85 443.834 416.477 444.142C415.103 444.473 413.434 444.675 411.469 444.746C407.824 444.888 404.628 444.402 401.881 443.29C399.159 442.177 397.04 440.449 395.525 438.105C394.01 435.761 393.264 432.802 393.288 429.227V376.386ZM460.88 420.776V389.455H476.008V444H461.483V434.092H460.915C459.684 437.288 457.636 439.857 454.772 441.798C451.931 443.74 448.463 444.71 444.367 444.71C440.721 444.71 437.513 443.882 434.743 442.224C431.973 440.567 429.807 438.212 428.245 435.158C426.706 432.104 425.925 428.446 425.901 424.185V389.455H441.029V421.486C441.053 424.705 441.917 427.25 443.621 429.121C445.326 430.991 447.61 431.926 450.475 431.926C452.298 431.926 454.002 431.512 455.589 430.683C457.175 429.831 458.453 428.576 459.424 426.919C460.418 425.262 460.903 423.214 460.88 420.776ZM505.576 444.888C501.433 444.888 497.681 443.822 494.319 441.692C490.981 439.537 488.329 436.377 486.364 432.21C484.423 428.02 483.452 422.883 483.452 416.798C483.452 410.548 484.458 405.352 486.471 401.209C488.483 397.042 491.158 393.929 494.496 391.869C497.858 389.786 501.539 388.744 505.54 388.744C508.594 388.744 511.139 389.265 513.175 390.307C515.235 391.325 516.892 392.603 518.147 394.142C519.425 395.657 520.396 397.149 521.059 398.616H521.521V371.273H536.613V444H521.698V435.264H521.059C520.349 436.779 519.342 438.283 518.04 439.774C516.762 441.242 515.093 442.461 513.033 443.432C510.997 444.402 508.512 444.888 505.576 444.888ZM510.37 432.849C512.808 432.849 514.868 432.187 516.549 430.861C518.253 429.511 519.556 427.629 520.455 425.214C521.378 422.8 521.84 419.971 521.84 416.727C521.84 413.484 521.39 410.667 520.491 408.276C519.591 405.884 518.289 404.038 516.584 402.736C514.88 401.434 512.808 400.783 510.37 400.783C507.884 400.783 505.789 401.457 504.084 402.807C502.38 404.156 501.09 406.027 500.214 408.418C499.338 410.809 498.9 413.579 498.9 416.727C498.9 419.9 499.338 422.705 500.214 425.143C501.113 427.558 502.404 429.452 504.084 430.825C505.789 432.175 507.884 432.849 510.37 432.849ZM555.759 464.455C553.841 464.455 552.042 464.301 550.361 463.993C548.704 463.709 547.331 463.342 546.242 462.892L549.651 451.599C551.426 452.144 553.024 452.44 554.445 452.487C555.889 452.535 557.132 452.203 558.173 451.493C559.239 450.783 560.103 449.575 560.766 447.871L561.654 445.562L542.087 389.455H557.996L569.288 429.511H569.857L581.256 389.455H597.271L576.071 449.895C575.053 452.83 573.668 455.387 571.916 457.565C570.188 459.767 567.998 461.46 565.347 462.643C562.695 463.851 559.499 464.455 555.759 464.455Z" fill="black"/>
<rect x="71" y="498" width="1038" height="19" fill="black"/>
<path d="M112.19 590.179C111.696 588.628 111.031 587.239 110.196 586.011C109.378 584.767 108.398 583.71 107.256 582.841C106.114 581.955 104.81 581.281 103.344 580.821C101.895 580.361 100.301 580.131 98.5625 580.131C95.6136 580.131 92.9545 580.889 90.5852 582.406C88.2159 583.923 86.3409 586.148 84.9602 589.08C83.5966 591.994 82.9148 595.565 82.9148 599.793C82.9148 604.037 83.6051 607.625 84.9858 610.557C86.3665 613.489 88.2585 615.713 90.6619 617.23C93.0653 618.747 95.8011 619.506 98.8693 619.506C101.716 619.506 104.196 618.926 106.31 617.767C108.44 616.608 110.085 614.972 111.244 612.858C112.42 610.727 113.009 608.222 113.009 605.341L115.054 605.724H100.071V599.205H120.653V605.162C120.653 609.56 119.716 613.378 117.841 616.616C115.983 619.838 113.409 622.327 110.119 624.082C106.847 625.838 103.097 626.716 98.8693 626.716C94.1307 626.716 89.9716 625.625 86.392 623.443C82.8295 621.261 80.0511 618.168 78.0568 614.162C76.0625 610.139 75.0653 605.366 75.0653 599.844C75.0653 595.668 75.6449 591.918 76.804 588.594C77.9631 585.27 79.5909 582.449 81.6875 580.131C83.8011 577.795 86.2812 576.014 89.1278 574.787C91.9915 573.543 95.1193 572.92 98.5114 572.92C101.341 572.92 103.974 573.338 106.412 574.173C108.866 575.009 111.048 576.193 112.957 577.727C114.884 579.261 116.477 581.085 117.739 583.199C119 585.295 119.852 587.622 120.295 590.179H112.19ZM130.635 626V586.727H138.28V626H130.635ZM134.496 580.668C133.166 580.668 132.024 580.224 131.07 579.338C130.132 578.435 129.664 577.361 129.664 576.116C129.664 574.855 130.132 573.781 131.07 572.895C132.024 571.991 133.166 571.54 134.496 571.54C135.825 571.54 136.959 571.991 137.896 572.895C138.851 573.781 139.328 574.855 139.328 576.116C139.328 577.361 138.851 578.435 137.896 579.338C136.959 580.224 135.825 580.668 134.496 580.668ZM165.002 586.727V592.864H143.551V586.727H165.002ZM149.304 577.318H156.948V614.469C156.948 615.952 157.17 617.068 157.613 617.818C158.056 618.551 158.627 619.054 159.326 619.327C160.042 619.582 160.818 619.71 161.653 619.71C162.267 619.71 162.804 619.668 163.264 619.582C163.724 619.497 164.082 619.429 164.338 619.378L165.718 625.693C165.275 625.864 164.644 626.034 163.826 626.205C163.008 626.392 161.985 626.494 160.758 626.511C158.747 626.545 156.872 626.188 155.133 625.438C153.394 624.688 151.988 623.528 150.914 621.96C149.84 620.392 149.304 618.423 149.304 616.054V577.318ZM173.022 626V573.636H191.687C195.76 573.636 199.135 574.378 201.812 575.861C204.488 577.344 206.491 579.372 207.82 581.946C209.15 584.503 209.814 587.384 209.814 590.588C209.814 593.81 209.141 596.707 207.794 599.281C206.465 601.838 204.454 603.866 201.76 605.366C199.084 606.849 195.718 607.591 191.661 607.591H178.826V600.892H190.945C193.519 600.892 195.607 600.449 197.209 599.562C198.812 598.659 199.988 597.432 200.738 595.881C201.488 594.33 201.863 592.565 201.863 590.588C201.863 588.611 201.488 586.855 200.738 585.321C199.988 583.787 198.803 582.585 197.184 581.716C195.581 580.847 193.468 580.412 190.843 580.412H180.922V626H173.022ZM232.618 626.793C228.937 626.793 225.724 625.949 222.979 624.261C220.235 622.574 218.104 620.213 216.587 617.179C215.07 614.145 214.312 610.599 214.312 606.543C214.312 602.469 215.07 598.906 216.587 595.855C218.104 592.804 220.235 590.435 222.979 588.747C225.724 587.06 228.937 586.216 232.618 586.216C236.3 586.216 239.513 587.06 242.258 588.747C245.002 590.435 247.133 592.804 248.65 595.855C250.167 598.906 250.925 602.469 250.925 606.543C250.925 610.599 250.167 614.145 248.65 617.179C247.133 620.213 245.002 622.574 242.258 624.261C239.513 625.949 236.3 626.793 232.618 626.793ZM232.644 620.375C235.03 620.375 237.008 619.744 238.576 618.483C240.144 617.222 241.303 615.543 242.053 613.446C242.82 611.349 243.204 609.04 243.204 606.517C243.204 604.011 242.82 601.71 242.053 599.614C241.303 597.5 240.144 595.804 238.576 594.526C237.008 593.247 235.03 592.608 232.644 592.608C230.241 592.608 228.246 593.247 226.661 594.526C225.093 595.804 223.925 597.5 223.158 599.614C222.408 601.71 222.033 604.011 222.033 606.517C222.033 609.04 222.408 611.349 223.158 613.446C223.925 615.543 225.093 617.222 226.661 618.483C228.246 619.744 230.241 620.375 232.644 620.375ZM272.266 626.767C269.095 626.767 266.266 625.957 263.777 624.338C261.305 622.702 259.362 620.375 257.947 617.358C256.55 614.324 255.851 610.685 255.851 606.44C255.851 602.196 256.558 598.565 257.973 595.548C259.405 592.531 261.365 590.222 263.854 588.619C266.342 587.017 269.163 586.216 272.317 586.216C274.754 586.216 276.715 586.625 278.197 587.443C279.697 588.244 280.857 589.182 281.675 590.256C282.51 591.33 283.158 592.276 283.618 593.094H284.078V573.636H291.723V626H284.257V619.889H283.618C283.158 620.724 282.493 621.679 281.624 622.753C280.771 623.827 279.595 624.764 278.095 625.565C276.595 626.366 274.652 626.767 272.266 626.767ZM273.953 620.247C276.152 620.247 278.01 619.668 279.527 618.509C281.061 617.332 282.22 615.705 283.004 613.625C283.805 611.545 284.206 609.125 284.206 606.364C284.206 603.636 283.814 601.25 283.03 599.205C282.246 597.159 281.095 595.565 279.578 594.423C278.061 593.281 276.186 592.71 273.953 592.71C271.652 592.71 269.734 593.307 268.2 594.5C266.666 595.693 265.507 597.321 264.723 599.384C263.956 601.446 263.572 603.773 263.572 606.364C263.572 608.989 263.965 611.349 264.749 613.446C265.533 615.543 266.692 617.205 268.226 618.432C269.777 619.642 271.686 620.247 273.953 620.247Z" fill="black"/>
</svg>
