<svg width="1200" height="900" viewBox="0 0 1200 900" fill="none" xmlns="http://www.w3.org/2000/svg">
<rect width="1200" height="900" fill="white"/>
<path d="M138.152 371.273V444H124.871L93.2301 398.226H92.6974V444H77.321V371.273H90.8153L122.207 417.011H122.847V371.273H138.152ZM172.798 445.065C167.188 445.065 162.358 443.929 158.31 441.656C154.285 439.36 151.184 436.116 149.006 431.926C146.828 427.712 145.739 422.729 145.739 416.976C145.739 411.365 146.828 406.441 149.006 402.203C151.184 397.965 154.25 394.663 158.203 392.295C162.181 389.928 166.844 388.744 172.195 388.744C175.793 388.744 179.143 389.324 182.244 390.484C185.369 391.621 188.092 393.337 190.412 395.634C192.756 397.93 194.579 400.818 195.881 404.298C197.183 407.755 197.834 411.803 197.834 416.443V420.598H151.776V411.223H183.594C183.594 409.045 183.12 407.116 182.173 405.435C181.226 403.754 179.913 402.44 178.232 401.493C176.575 400.522 174.645 400.037 172.443 400.037C170.147 400.037 168.111 400.57 166.335 401.635C164.584 402.677 163.21 404.085 162.216 405.861C161.222 407.613 160.713 409.566 160.689 411.72V420.634C160.689 423.332 161.186 425.664 162.181 427.629C163.199 429.594 164.631 431.109 166.477 432.175C168.324 433.24 170.514 433.773 173.047 433.773C174.728 433.773 176.267 433.536 177.664 433.062C179.06 432.589 180.256 431.879 181.25 430.932C182.244 429.985 183.002 428.825 183.523 427.452L197.514 428.375C196.804 431.737 195.348 434.672 193.146 437.182C190.968 439.668 188.151 441.609 184.695 443.006C181.262 444.379 177.297 445.065 172.798 445.065ZM234.087 389.455V400.818H201.239V389.455H234.087ZM208.697 376.386H223.825V427.239C223.825 428.635 224.038 429.724 224.464 430.506C224.89 431.263 225.482 431.796 226.239 432.104C227.021 432.411 227.92 432.565 228.938 432.565C229.648 432.565 230.359 432.506 231.069 432.388C231.779 432.246 232.324 432.139 232.702 432.068L235.082 443.325C234.324 443.562 233.259 443.834 231.886 444.142C230.513 444.473 228.844 444.675 226.879 444.746C223.233 444.888 220.037 444.402 217.29 443.29C214.568 442.177 212.449 440.449 210.934 438.105C209.419 435.761 208.673 432.802 208.697 429.227V376.386ZM252.07 444L237.226 389.455H252.532L260.983 426.102H261.481L270.287 389.455H285.309L294.258 425.889H294.719L303.029 389.455H318.299L303.491 444H287.475L278.1 409.696H277.425L268.05 444H252.07ZM347.015 445.065C341.499 445.065 336.728 443.893 332.704 441.55C328.703 439.182 325.613 435.892 323.435 431.678C321.257 427.44 320.168 422.527 320.168 416.94C320.168 411.306 321.257 406.382 323.435 402.168C325.613 397.93 328.703 394.639 332.704 392.295C336.728 389.928 341.499 388.744 347.015 388.744C352.531 388.744 357.289 389.928 361.29 392.295C365.315 394.639 368.416 397.93 370.594 402.168C372.772 406.382 373.861 411.306 373.861 416.94C373.861 422.527 372.772 427.44 370.594 431.678C368.416 435.892 365.315 439.182 361.29 441.55C357.289 443.893 352.531 445.065 347.015 445.065ZM347.086 433.347C349.595 433.347 351.691 432.636 353.371 431.216C355.052 429.772 356.319 427.807 357.171 425.321C358.047 422.835 358.485 420.006 358.485 416.834C358.485 413.661 358.047 410.832 357.171 408.347C356.319 405.861 355.052 403.896 353.371 402.452C351.691 401.008 349.595 400.286 347.086 400.286C344.553 400.286 342.422 401.008 340.694 402.452C338.989 403.896 337.699 405.861 336.823 408.347C335.971 410.832 335.545 413.661 335.545 416.834C335.545 420.006 335.971 422.835 336.823 425.321C337.699 427.807 338.989 429.772 340.694 431.216C342.422 432.636 344.553 433.347 347.086 433.347ZM381.067 444V389.455H395.733V398.972H396.301C397.295 395.586 398.964 393.029 401.308 391.301C403.652 389.549 406.351 388.673 409.405 388.673C410.162 388.673 410.979 388.721 411.855 388.815C412.731 388.91 413.5 389.04 414.163 389.206V402.629C413.453 402.416 412.47 402.227 411.216 402.061C409.961 401.895 408.813 401.812 407.771 401.812C405.546 401.812 403.557 402.298 401.805 403.268C400.077 404.215 398.704 405.541 397.686 407.246C396.692 408.95 396.194 410.915 396.194 413.141V444H381.067ZM433.06 428.304L433.096 410.158H435.298L452.769 389.455H470.134L446.661 416.869H443.075L433.06 428.304ZM419.353 444V371.273H434.481V444H419.353ZM453.444 444L437.393 420.243L447.478 409.554L471.164 444H453.444ZM520.082 445.065C514.495 445.065 509.689 443.882 505.665 441.514C501.664 439.123 498.586 435.809 496.432 431.571C494.301 427.333 493.236 422.456 493.236 416.94C493.236 411.353 494.313 406.453 496.467 402.239C498.645 398.001 501.735 394.698 505.736 392.331C509.737 389.94 514.495 388.744 520.011 388.744C524.77 388.744 528.936 389.608 532.511 391.337C536.086 393.065 538.915 395.491 540.998 398.616C543.082 401.741 544.23 405.411 544.443 409.625H530.168C529.765 406.902 528.7 404.713 526.972 403.055C525.267 401.375 523.03 400.534 520.26 400.534C517.916 400.534 515.868 401.173 514.116 402.452C512.388 403.706 511.039 405.541 510.068 407.956C509.097 410.371 508.612 413.295 508.612 416.727C508.612 420.207 509.086 423.167 510.033 425.605C511.003 428.044 512.364 429.902 514.116 431.18C515.868 432.459 517.916 433.098 520.26 433.098C521.988 433.098 523.539 432.743 524.912 432.033C526.309 431.322 527.457 430.293 528.356 428.943C529.28 427.57 529.883 425.925 530.168 424.007H544.443C544.206 428.174 543.07 431.843 541.034 435.016C539.022 438.164 536.24 440.626 532.689 442.402C529.138 444.178 524.936 445.065 520.082 445.065ZM576.142 445.065C570.626 445.065 565.856 443.893 561.831 441.55C557.83 439.182 554.741 435.892 552.563 431.678C550.385 427.44 549.296 422.527 549.296 416.94C549.296 411.306 550.385 406.382 552.563 402.168C554.741 397.93 557.83 394.639 561.831 392.295C565.856 389.928 570.626 388.744 576.142 388.744C581.658 388.744 586.417 389.928 590.418 392.295C594.442 394.639 597.544 397.93 599.722 402.168C601.9 406.382 602.989 411.306 602.989 416.94C602.989 422.527 601.9 427.44 599.722 431.678C597.544 435.892 594.442 439.182 590.418 441.55C586.417 443.893 581.658 445.065 576.142 445.065ZM576.213 433.347C578.723 433.347 580.818 432.636 582.499 431.216C584.18 429.772 585.446 427.807 586.298 425.321C587.174 422.835 587.612 420.006 587.612 416.834C587.612 413.661 587.174 410.832 586.298 408.347C585.446 405.861 584.18 403.896 582.499 402.452C580.818 401.008 578.723 400.286 576.213 400.286C573.68 400.286 571.549 401.008 569.821 402.452C568.117 403.896 566.826 405.861 565.95 408.347C565.098 410.832 564.672 413.661 564.672 416.834C564.672 420.006 565.098 422.835 565.95 425.321C566.826 427.807 568.117 429.772 569.821 431.216C571.549 432.636 573.68 433.347 576.213 433.347ZM610.194 444V389.455H624.611V399.078H625.251C626.387 395.882 628.281 393.361 630.932 391.514C633.584 389.668 636.756 388.744 640.449 388.744C644.19 388.744 647.374 389.679 650.002 391.55C652.63 393.396 654.382 395.906 655.258 399.078H655.826C656.939 395.953 658.951 393.455 661.863 391.585C664.798 389.691 668.267 388.744 672.268 388.744C677.358 388.744 681.489 390.366 684.661 393.609C687.857 396.829 689.455 401.398 689.455 407.317V444H674.363V410.3C674.363 407.269 673.558 404.997 671.948 403.482C670.338 401.966 668.326 401.209 665.911 401.209C663.165 401.209 661.022 402.085 659.484 403.837C657.945 405.565 657.175 407.849 657.175 410.69V444H642.509V409.98C642.509 407.305 641.74 405.174 640.201 403.588C638.686 402.002 636.685 401.209 634.199 401.209C632.519 401.209 631.003 401.635 629.654 402.487C628.328 403.316 627.275 404.488 626.494 406.003C625.712 407.494 625.322 409.246 625.322 411.259V444H610.194ZM698.773 464.455V389.455H713.688V398.616H714.363C715.026 397.149 715.984 395.657 717.239 394.142C718.517 392.603 720.175 391.325 722.211 390.307C724.27 389.265 726.827 388.744 729.881 388.744C733.858 388.744 737.528 389.786 740.89 391.869C744.251 393.929 746.938 397.042 748.951 401.209C750.963 405.352 751.969 410.548 751.969 416.798C751.969 422.883 750.987 428.02 749.022 432.21C747.08 436.377 744.429 439.537 741.067 441.692C737.729 443.822 733.989 444.888 729.846 444.888C726.91 444.888 724.412 444.402 722.353 443.432C720.317 442.461 718.648 441.242 717.346 439.774C716.043 438.283 715.049 436.779 714.363 435.264H713.901V464.455H698.773ZM713.581 416.727C713.581 419.971 714.031 422.8 714.931 425.214C715.83 427.629 717.133 429.511 718.837 430.861C720.542 432.187 722.613 432.849 725.052 432.849C727.514 432.849 729.597 432.175 731.302 430.825C733.006 429.452 734.296 427.558 735.172 425.143C736.072 422.705 736.522 419.9 736.522 416.727C736.522 413.579 736.084 410.809 735.208 408.418C734.332 406.027 733.042 404.156 731.337 402.807C729.633 401.457 727.537 400.783 725.052 400.783C722.589 400.783 720.506 401.434 718.802 402.736C717.121 404.038 715.83 405.884 714.931 408.276C714.031 410.667 713.581 413.484 713.581 416.727ZM774.551 371.273V444H759.423V371.273H774.551ZM808.895 445.065C803.285 445.065 798.455 443.929 794.407 441.656C790.382 439.36 787.281 436.116 785.103 431.926C782.925 427.712 781.836 422.729 781.836 416.976C781.836 411.365 782.925 406.441 785.103 402.203C787.281 397.965 790.347 394.663 794.3 392.295C798.277 389.928 802.941 388.744 808.292 388.744C811.89 388.744 815.24 389.324 818.341 390.484C821.466 391.621 824.189 393.337 826.509 395.634C828.853 397.93 830.676 400.818 831.978 404.298C833.28 407.755 833.931 411.803 833.931 416.443V420.598H787.873V411.223H819.691C819.691 409.045 819.217 407.116 818.27 405.435C817.323 403.754 816.009 402.44 814.329 401.493C812.671 400.522 810.742 400.037 808.54 400.037C806.244 400.037 804.208 400.57 802.432 401.635C800.68 402.677 799.307 404.085 798.313 405.861C797.319 407.613 796.81 409.566 796.786 411.72V420.634C796.786 423.332 797.283 425.664 798.277 427.629C799.295 429.594 800.728 431.109 802.574 432.175C804.421 433.24 806.611 433.773 809.144 433.773C810.825 433.773 812.364 433.536 813.76 433.062C815.157 432.589 816.353 431.879 817.347 430.932C818.341 429.985 819.099 428.825 819.62 427.452L833.611 428.375C832.901 431.737 831.445 434.672 829.243 437.182C827.065 439.668 824.248 441.609 820.792 443.006C817.359 444.379 813.393 445.065 808.895 445.065ZM852.837 389.455L862.851 408.524L873.114 389.455H888.632L872.83 416.727L889.058 444H873.611L862.851 425.143L852.269 444H836.644L852.837 416.727L837.212 389.455H852.837ZM894.985 444V389.455H910.113V444H894.985ZM902.585 382.423C900.335 382.423 898.406 381.678 896.796 380.186C895.21 378.671 894.417 376.86 894.417 374.753C894.417 372.67 895.21 370.882 896.796 369.391C898.406 367.875 900.335 367.118 902.585 367.118C904.834 367.118 906.751 367.875 908.337 369.391C909.947 370.882 910.752 372.67 910.752 374.753C910.752 376.86 909.947 378.671 908.337 380.186C906.751 381.678 904.834 382.423 902.585 382.423ZM948.612 389.455V400.818H915.764V389.455H948.612ZM923.222 376.386H938.35V427.239C938.35 428.635 938.563 429.724 938.989 430.506C939.415 431.263 940.007 431.796 940.764 432.104C941.546 432.411 942.445 432.565 943.463 432.565C944.173 432.565 944.884 432.506 945.594 432.388C946.304 432.246 946.849 432.139 947.227 432.068L949.607 443.325C948.849 443.562 947.784 443.834 946.411 444.142C945.038 444.473 943.369 444.675 941.404 444.746C937.758 444.888 934.562 444.402 931.816 443.29C929.093 442.177 926.974 440.449 925.459 438.105C923.944 435.761 923.198 432.802 923.222 429.227V376.386ZM965.175 464.455C963.257 464.455 961.458 464.301 959.777 463.993C958.12 463.709 956.747 463.342 955.658 462.892L959.067 451.599C960.842 452.144 962.44 452.44 963.861 452.487C965.305 452.535 966.548 452.203 967.59 451.493C968.655 450.783 969.519 449.575 970.182 447.871L971.07 445.562L951.503 389.455H967.412L978.705 429.511H979.273L990.672 389.455H1006.69L985.487 449.895C984.469 452.83 983.084 455.387 981.332 457.565C979.604 459.767 977.414 461.46 974.763 462.643C972.111 463.851 968.915 464.455 965.175 464.455Z" fill="black"/>
<rect x="71" y="498" width="1038" height="19" fill="black"/>
<path d="M120.244 590.665H112.267C111.96 588.96 111.389 587.46 110.554 586.165C109.719 584.869 108.696 583.77 107.486 582.866C106.276 581.963 104.92 581.281 103.42 580.821C101.938 580.361 100.361 580.131 98.6903 580.131C95.6733 580.131 92.9716 580.889 90.5852 582.406C88.2159 583.923 86.3409 586.148 84.9602 589.08C83.5966 592.011 82.9148 595.591 82.9148 599.818C82.9148 604.08 83.5966 607.676 84.9602 610.608C86.3409 613.54 88.2244 615.756 90.6108 617.256C92.9972 618.756 95.6818 619.506 98.6648 619.506C100.318 619.506 101.886 619.284 103.369 618.841C104.869 618.381 106.224 617.707 107.435 616.821C108.645 615.935 109.668 614.852 110.503 613.574C111.355 612.278 111.943 610.795 112.267 609.125L120.244 609.151C119.818 611.724 118.991 614.094 117.764 616.259C116.554 618.406 114.994 620.264 113.085 621.832C111.193 623.384 109.028 624.585 106.591 625.438C104.153 626.29 101.494 626.716 98.6136 626.716C94.0795 626.716 90.0398 625.642 86.4943 623.494C82.9489 621.33 80.1534 618.236 78.108 614.213C76.0795 610.19 75.0653 605.392 75.0653 599.818C75.0653 594.227 76.0881 589.429 78.1335 585.423C80.179 581.401 82.9744 578.315 86.5199 576.168C90.0653 574.003 94.0966 572.92 98.6136 572.92C101.392 572.92 103.983 573.321 106.386 574.122C108.807 574.906 110.98 576.065 112.906 577.599C114.832 579.116 116.426 580.974 117.688 583.173C118.949 585.355 119.801 587.852 120.244 590.665ZM134.835 602.682V626H127.19V573.636H134.732V593.119H135.218C136.139 591.006 137.545 589.327 139.437 588.082C141.329 586.838 143.801 586.216 146.852 586.216C149.545 586.216 151.897 586.77 153.909 587.878C155.937 588.986 157.505 590.639 158.613 592.838C159.738 595.02 160.301 597.747 160.301 601.02V626H152.656V601.94C152.656 599.06 151.914 596.827 150.431 595.241C148.948 593.639 146.886 592.838 144.244 592.838C142.437 592.838 140.818 593.222 139.386 593.989C137.971 594.756 136.855 595.881 136.036 597.364C135.235 598.83 134.835 600.602 134.835 602.682ZM180.037 626.869C177.548 626.869 175.298 626.409 173.287 625.489C171.275 624.551 169.681 623.196 168.505 621.423C167.346 619.651 166.767 617.477 166.767 614.903C166.767 612.687 167.193 610.864 168.045 609.432C168.897 608 170.048 606.866 171.497 606.031C172.946 605.196 174.565 604.565 176.355 604.139C178.144 603.713 179.968 603.389 181.826 603.168C184.179 602.895 186.088 602.673 187.554 602.503C189.019 602.315 190.085 602.017 190.75 601.608C191.414 601.199 191.747 600.534 191.747 599.614V599.435C191.747 597.202 191.116 595.472 189.855 594.244C188.61 593.017 186.752 592.403 184.281 592.403C181.707 592.403 179.679 592.974 178.196 594.116C176.73 595.241 175.715 596.494 175.153 597.875L167.968 596.239C168.821 593.852 170.065 591.926 171.701 590.46C173.355 588.977 175.255 587.903 177.403 587.239C179.551 586.557 181.809 586.216 184.179 586.216C185.747 586.216 187.409 586.403 189.164 586.778C190.937 587.136 192.59 587.801 194.125 588.773C195.676 589.744 196.946 591.134 197.934 592.94C198.923 594.73 199.417 597.057 199.417 599.92V626H191.951V620.631H191.644C191.15 621.619 190.409 622.591 189.42 623.545C188.431 624.5 187.162 625.293 185.61 625.923C184.059 626.554 182.201 626.869 180.037 626.869ZM181.698 620.733C183.812 620.733 185.619 620.315 187.119 619.48C188.636 618.645 189.787 617.554 190.571 616.207C191.372 614.844 191.772 613.386 191.772 611.835V606.773C191.5 607.045 190.971 607.301 190.187 607.54C189.42 607.761 188.542 607.957 187.554 608.128C186.565 608.281 185.602 608.426 184.664 608.562C183.727 608.682 182.943 608.784 182.312 608.869C180.829 609.057 179.474 609.372 178.247 609.815C177.037 610.259 176.065 610.898 175.332 611.733C174.616 612.551 174.258 613.642 174.258 615.006C174.258 616.898 174.957 618.33 176.355 619.301C177.752 620.256 179.534 620.733 181.698 620.733ZM215.35 573.636V626H207.705V573.636H215.35ZM231.385 573.636V626H223.74V573.636H231.385ZM256.701 626.793C252.832 626.793 249.499 625.966 246.704 624.312C243.925 622.642 241.778 620.298 240.261 617.281C238.761 614.247 238.011 610.693 238.011 606.619C238.011 602.597 238.761 599.051 240.261 595.983C241.778 592.915 243.891 590.52 246.602 588.798C249.329 587.077 252.516 586.216 256.164 586.216C258.38 586.216 260.528 586.582 262.607 587.315C264.687 588.048 266.553 589.199 268.207 590.767C269.86 592.335 271.164 594.372 272.119 596.878C273.073 599.366 273.55 602.392 273.55 605.955V608.665H242.332V602.938H266.059C266.059 600.926 265.65 599.145 264.832 597.594C264.014 596.026 262.863 594.79 261.38 593.886C259.914 592.983 258.193 592.531 256.215 592.531C254.068 592.531 252.193 593.06 250.59 594.116C249.005 595.156 247.778 596.52 246.908 598.207C246.056 599.878 245.63 601.693 245.63 603.653V608.128C245.63 610.753 246.09 612.986 247.011 614.827C247.948 616.668 249.252 618.074 250.923 619.045C252.593 620 254.545 620.477 256.778 620.477C258.227 620.477 259.548 620.273 260.741 619.864C261.934 619.437 262.965 618.807 263.835 617.972C264.704 617.136 265.369 616.105 265.829 614.878L273.065 616.182C272.485 618.312 271.445 620.179 269.945 621.781C268.462 623.366 266.596 624.602 264.346 625.489C262.113 626.358 259.565 626.793 256.701 626.793ZM287.783 602.682V626H280.138V586.727H287.476V593.119H287.962C288.865 591.04 290.28 589.369 292.206 588.108C294.149 586.847 296.595 586.216 299.544 586.216C302.22 586.216 304.564 586.778 306.575 587.903C308.587 589.011 310.146 590.665 311.254 592.864C312.362 595.062 312.916 597.781 312.916 601.02V626H305.271V601.94C305.271 599.094 304.53 596.869 303.047 595.267C301.564 593.648 299.527 592.838 296.936 592.838C295.164 592.838 293.587 593.222 292.206 593.989C290.843 594.756 289.76 595.881 288.959 597.364C288.175 598.83 287.783 600.602 287.783 602.682ZM337.74 641.545C334.621 641.545 331.936 641.136 329.686 640.318C327.453 639.5 325.63 638.418 324.215 637.071C322.8 635.724 321.743 634.25 321.044 632.648L327.615 629.938C328.076 630.688 328.689 631.48 329.456 632.315C330.24 633.168 331.297 633.892 332.627 634.489C333.973 635.085 335.703 635.384 337.817 635.384C340.715 635.384 343.11 634.676 345.002 633.261C346.894 631.864 347.84 629.631 347.84 626.562V618.841H347.354C346.894 619.676 346.229 620.605 345.36 621.628C344.507 622.651 343.331 623.537 341.831 624.287C340.331 625.037 338.38 625.412 335.976 625.412C332.874 625.412 330.078 624.687 327.59 623.239C325.118 621.773 323.158 619.616 321.709 616.77C320.277 613.906 319.561 610.386 319.561 606.21C319.561 602.034 320.269 598.455 321.684 595.472C323.115 592.489 325.076 590.205 327.564 588.619C330.053 587.017 332.874 586.216 336.027 586.216C338.465 586.216 340.434 586.625 341.934 587.443C343.434 588.244 344.601 589.182 345.436 590.256C346.289 591.33 346.945 592.276 347.405 593.094H347.968V586.727H355.459V626.869C355.459 630.244 354.675 633.014 353.107 635.179C351.539 637.344 349.417 638.946 346.74 639.986C344.081 641.026 341.081 641.545 337.74 641.545ZM337.664 619.071C339.863 619.071 341.721 618.56 343.238 617.537C344.772 616.497 345.931 615.014 346.715 613.088C347.516 611.145 347.917 608.818 347.917 606.108C347.917 603.466 347.524 601.139 346.74 599.128C345.956 597.116 344.806 595.548 343.289 594.423C341.772 593.281 339.897 592.71 337.664 592.71C335.363 592.71 333.445 593.307 331.911 594.5C330.377 595.676 329.218 597.278 328.434 599.307C327.667 601.335 327.283 603.602 327.283 606.108C327.283 608.682 327.675 610.94 328.459 612.884C329.243 614.827 330.402 616.344 331.936 617.435C333.488 618.526 335.397 619.071 337.664 619.071ZM380.743 626.793C376.874 626.793 373.542 625.966 370.746 624.312C367.968 622.642 365.82 620.298 364.303 617.281C362.803 614.247 362.053 610.693 362.053 606.619C362.053 602.597 362.803 599.051 364.303 595.983C365.82 592.915 367.934 590.52 370.644 588.798C373.371 587.077 376.559 586.216 380.206 586.216C382.422 586.216 384.57 586.582 386.65 587.315C388.729 588.048 390.596 589.199 392.249 590.767C393.902 592.335 395.206 594.372 396.161 596.878C397.116 599.366 397.593 602.392 397.593 605.955V608.665H366.374V602.938H390.101C390.101 600.926 389.692 599.145 388.874 597.594C388.056 596.026 386.905 594.79 385.422 593.886C383.956 592.983 382.235 592.531 380.258 592.531C378.11 592.531 376.235 593.06 374.633 594.116C373.047 595.156 371.82 596.52 370.951 598.207C370.098 599.878 369.672 601.693 369.672 603.653V608.128C369.672 610.753 370.133 612.986 371.053 614.827C371.991 616.668 373.295 618.074 374.965 619.045C376.635 620 378.587 620.477 380.82 620.477C382.269 620.477 383.59 620.273 384.783 619.864C385.976 619.437 387.008 618.807 387.877 617.972C388.746 617.136 389.411 616.105 389.871 614.878L397.107 616.182C396.527 618.312 395.488 620.179 393.988 621.781C392.505 623.366 390.638 624.602 388.388 625.489C386.155 626.358 383.607 626.793 380.743 626.793ZM421.238 626V620.273L438.957 601.915C440.849 599.92 442.408 598.173 443.636 596.673C444.88 595.156 445.809 593.716 446.423 592.352C447.036 590.989 447.343 589.54 447.343 588.006C447.343 586.267 446.934 584.767 446.116 583.506C445.298 582.227 444.181 581.247 442.766 580.565C441.352 579.866 439.758 579.517 437.985 579.517C436.11 579.517 434.474 579.901 433.076 580.668C431.678 581.435 430.604 582.517 429.854 583.915C429.104 585.312 428.729 586.949 428.729 588.824H421.187C421.187 585.636 421.92 582.849 423.386 580.463C424.852 578.077 426.863 576.227 429.42 574.915C431.977 573.585 434.883 572.92 438.139 572.92C441.428 572.92 444.326 573.577 446.832 574.889C449.354 576.185 451.323 577.957 452.738 580.207C454.153 582.44 454.86 584.963 454.86 587.776C454.86 589.719 454.494 591.619 453.761 593.477C453.045 595.335 451.792 597.406 450.002 599.69C448.212 601.957 445.724 604.71 442.536 607.949L432.13 618.841V619.224H455.704V626H421.238Z" fill="black"/>
</svg>
