<svg width="1200" height="900" viewBox="0 0 1200 900" fill="none" xmlns="http://www.w3.org/2000/svg">
<rect width="1200" height="900" fill="white"/>
<path fill-rule="evenodd" clip-rule="evenodd" d="M981 839.837C981 841.934 978.611 843.633 975.663 843.633H223.337C220.389 843.633 218 841.934 218 839.837V521.026C218 513.629 223.996 507.633 231.393 507.633H967.607C975.004 507.633 981 513.629 981 521.026V839.837Z" fill="#FABE28"/>
<path d="M479.761 693.026C479.162 690.943 478.32 689.102 477.235 687.504C476.151 685.878 474.824 684.508 473.255 683.395C471.714 682.254 469.945 681.383 467.947 680.784C465.978 680.185 463.795 679.885 461.398 679.885C456.918 679.885 452.98 680.998 449.584 683.224C446.217 685.45 443.592 688.688 441.708 692.94C439.825 697.164 438.883 702.329 438.883 708.435C438.883 714.542 439.811 719.735 441.665 724.016C443.52 728.296 446.146 731.564 449.541 733.818C452.937 736.044 456.946 737.157 461.569 737.157C465.764 737.157 469.345 736.415 472.313 734.931C475.309 733.418 477.592 731.293 479.162 728.553C480.76 725.814 481.559 722.575 481.559 718.837L485.325 719.393H462.725V705.439H499.408V716.482C499.408 724.187 497.781 730.807 494.528 736.343C491.275 741.851 486.795 746.103 481.088 749.099C475.381 752.067 468.846 753.551 461.484 753.551C453.265 753.551 446.046 751.739 439.825 748.114C433.604 744.462 428.753 739.283 425.272 732.577C421.819 725.842 420.092 717.852 420.092 708.606C420.092 701.501 421.12 695.166 423.174 689.602C425.257 684.009 428.168 679.272 431.906 675.391C435.644 671.51 439.996 668.556 444.961 666.53C449.927 664.504 455.306 663.491 461.098 663.491C466.064 663.491 470.686 664.219 474.967 665.674C479.247 667.101 483.043 669.127 486.353 671.752C489.691 674.378 492.417 677.502 494.528 681.126C496.64 684.722 497.995 688.688 498.595 693.026H479.761ZM510.411 752.352V686.605H528.645V752.352H510.411ZM519.571 678.13C516.86 678.13 514.534 677.231 512.594 675.433C510.682 673.607 509.726 671.424 509.726 668.884C509.726 666.373 510.682 664.219 512.594 662.421C514.534 660.595 516.86 659.682 519.571 659.682C522.282 659.682 524.593 660.595 526.505 662.421C528.446 664.219 529.416 666.373 529.416 668.884C529.416 671.424 528.446 673.607 526.505 675.433C524.593 677.231 522.282 678.13 519.571 678.13ZM571.526 686.605V700.303H531.933V686.605H571.526ZM540.922 670.853H559.156V732.149C559.156 733.832 559.413 735.145 559.927 736.087C560.44 737 561.154 737.642 562.067 738.013C563.009 738.384 564.093 738.569 565.32 738.569C566.176 738.569 567.032 738.498 567.888 738.355C568.744 738.184 569.401 738.056 569.857 737.97L572.725 751.539C571.812 751.824 570.528 752.152 568.873 752.523C567.218 752.923 565.206 753.165 562.837 753.251C558.443 753.422 554.59 752.837 551.28 751.496C547.999 750.155 545.445 748.072 543.618 745.247C541.792 742.422 540.893 738.855 540.922 734.546V670.853ZM578.463 752.352V664.69H613.049C619.697 664.69 625.362 665.96 630.042 668.499C634.722 671.01 638.289 674.506 640.743 678.986C643.225 683.438 644.467 688.574 644.467 694.396C644.467 700.217 643.211 705.353 640.7 709.805C638.189 714.257 634.55 717.724 629.785 720.206C625.048 722.689 619.312 723.93 612.578 723.93H590.534V709.077H609.582C613.148 709.077 616.088 708.464 618.399 707.237C620.739 705.981 622.48 704.255 623.621 702.057C624.791 699.832 625.376 697.278 625.376 694.396C625.376 691.485 624.791 688.945 623.621 686.777C622.48 684.579 620.739 682.881 618.399 681.683C616.059 680.456 613.091 679.842 609.496 679.842H596.997V752.352H578.463ZM678.113 753.636C671.464 753.636 665.714 752.224 660.863 749.399C656.04 746.545 652.316 742.578 649.691 737.499C647.066 732.391 645.753 726.47 645.753 719.735C645.753 712.944 647.066 707.008 649.691 701.929C652.316 696.821 656.04 692.855 660.863 690.03C665.714 687.176 671.464 685.749 678.113 685.749C684.762 685.749 690.497 687.176 695.32 690.03C700.171 692.855 703.909 696.821 706.535 701.929C709.16 707.008 710.473 712.944 710.473 719.735C710.473 726.47 709.16 732.391 706.535 737.499C703.909 742.578 700.171 746.545 695.32 749.399C690.497 752.224 684.762 753.636 678.113 753.636ZM678.198 739.511C681.223 739.511 683.749 738.655 685.775 736.943C687.801 735.202 689.328 732.833 690.355 729.837C691.411 726.841 691.939 723.431 691.939 719.607C691.939 715.783 691.411 712.373 690.355 709.377C689.328 706.381 687.801 704.012 685.775 702.272C683.749 700.531 681.223 699.66 678.198 699.66C675.145 699.66 672.577 700.531 670.494 702.272C668.439 704.012 666.884 706.381 665.828 709.377C664.801 712.373 664.287 715.783 664.287 719.607C664.287 723.431 664.801 726.841 665.828 729.837C666.884 732.833 668.439 735.202 670.494 736.943C672.577 738.655 675.145 739.511 678.198 739.511ZM739.86 753.422C734.866 753.422 730.343 752.138 726.291 749.57C722.267 746.973 719.071 743.163 716.703 738.141C714.363 733.09 713.193 726.898 713.193 719.564C713.193 712.031 714.406 705.767 716.831 700.773C719.257 695.751 722.481 691.999 726.505 689.516C730.557 687.005 734.994 685.749 739.817 685.749C743.498 685.749 746.566 686.377 749.02 687.633C751.503 688.86 753.5 690.401 755.012 692.255C756.553 694.082 757.723 695.879 758.522 697.649H759.079V664.69H777.27V752.352H759.293V741.822H758.522C757.666 743.649 756.453 745.461 754.884 747.258C753.343 749.028 751.331 750.497 748.849 751.667C746.395 752.837 743.398 753.422 739.86 753.422ZM745.638 738.912C748.578 738.912 751.06 738.113 753.086 736.515C755.141 734.888 756.71 732.619 757.795 729.709C758.908 726.798 759.464 723.388 759.464 719.479C759.464 715.569 758.922 712.173 757.837 709.291C756.753 706.409 755.184 704.183 753.129 702.614C751.074 701.044 748.578 700.26 745.638 700.26C742.642 700.26 740.117 701.073 738.062 702.7C736.008 704.326 734.452 706.58 733.396 709.463C732.341 712.345 731.813 715.683 731.813 719.479C731.813 723.302 732.341 726.684 733.396 729.623C734.481 732.534 736.036 734.817 738.062 736.472C740.117 738.098 742.642 738.912 745.638 738.912Z" fill="black"/>
<path d="M218 521.026C218 513.629 223.996 507.633 231.393 507.633H967.607C975.004 507.633 981 513.629 981 521.026V569.24H218V521.026Z" fill="#CCCCCC"/>
<path fill-rule="evenodd" clip-rule="evenodd" d="M263.536 541.116C263.536 547.773 258.14 553.169 251.482 553.169C244.825 553.169 239.429 547.773 239.429 541.116C239.429 534.458 244.825 529.062 251.482 529.062C258.14 529.062 263.536 534.458 263.536 541.116Z" fill="#E74C3C"/>
<path fill-rule="evenodd" clip-rule="evenodd" d="M306.393 541.116C306.393 547.773 300.997 553.169 294.339 553.169C287.681 553.169 282.286 547.773 282.286 541.116C282.286 534.458 287.681 529.062 294.339 529.062C300.997 529.062 306.393 534.458 306.393 541.116Z" fill="#F1C40F"/>
<path fill-rule="evenodd" clip-rule="evenodd" d="M346.571 541.116C346.571 547.773 341.176 553.169 334.518 553.169C327.86 553.169 322.464 547.773 322.464 541.116C322.464 534.458 327.86 529.062 334.518 529.062C341.176 529.062 346.571 534.458 346.571 541.116Z" fill="#2ECC71"/>
<path d="M784 385.633L760.906 425.633H807.094L784 385.633ZM762.667 621.633C762.667 633.415 772.218 642.967 784 642.967C795.782 642.967 805.333 633.415 805.333 621.633C805.333 609.851 795.782 600.3 784 600.3C772.218 600.3 762.667 609.851 762.667 621.633ZM780 421.633V621.633H788V421.633H780Z" fill="black"/>
<path d="M544 385.633L520.906 425.633H567.094L544 385.633ZM522.667 621.633C522.667 633.415 532.218 642.967 544 642.967C555.782 642.967 565.333 633.415 565.333 621.633C565.333 609.851 555.782 600.3 544 600.3C532.218 600.3 522.667 609.851 522.667 621.633ZM540 421.633V621.633H548V421.633H540Z" fill="black"/>
<path d="M292 385.633L268.906 425.633H315.094L292 385.633ZM270.667 621.633C270.667 633.415 280.218 642.967 292 642.967C303.782 642.967 313.333 633.415 313.333 621.633C313.333 609.851 303.782 600.3 292 600.3C280.218 600.3 270.667 609.851 270.667 621.633ZM288 421.633V621.633H296V421.633H288Z" fill="black"/>
<path d="M843.094 471.633V447.779H852.506C854.315 447.779 855.856 448.124 857.13 448.815C858.403 449.499 859.374 450.45 860.042 451.669C860.717 452.88 861.055 454.278 861.055 455.862C861.055 457.446 860.713 458.844 860.03 460.055C859.347 461.267 858.357 462.21 857.06 462.886C855.771 463.561 854.21 463.899 852.378 463.899H846.379V459.857H851.562C852.533 459.857 853.333 459.69 853.962 459.357C854.598 459.015 855.072 458.545 855.383 457.947C855.701 457.342 855.86 456.647 855.86 455.862C855.86 455.07 855.701 454.379 855.383 453.789C855.072 453.191 854.598 452.729 853.962 452.403C853.325 452.069 852.517 451.902 851.539 451.902H848.138V471.633H843.094ZM884.94 459.706C884.94 462.307 884.447 464.52 883.461 466.345C882.482 468.17 881.147 469.564 879.454 470.527C877.769 471.482 875.874 471.959 873.77 471.959C871.65 471.959 869.748 471.478 868.063 470.515C866.377 469.552 865.046 468.158 864.067 466.334C863.089 464.509 862.6 462.3 862.6 459.706C862.6 457.105 863.089 454.892 864.067 453.067C865.046 451.242 866.377 449.852 868.063 448.897C869.748 447.934 871.65 447.453 873.77 447.453C875.874 447.453 877.769 447.934 879.454 448.897C881.147 449.852 882.482 451.242 883.461 453.067C884.447 454.892 884.94 457.105 884.94 459.706ZM879.827 459.706C879.827 458.021 879.574 456.6 879.07 455.443C878.573 454.286 877.87 453.408 876.961 452.811C876.053 452.213 874.989 451.914 873.77 451.914C872.551 451.914 871.487 452.213 870.578 452.811C869.67 453.408 868.963 454.286 868.459 455.443C867.962 456.6 867.713 458.021 867.713 459.706C867.713 461.391 867.962 462.812 868.459 463.969C868.963 465.126 869.67 466.004 870.578 466.601C871.487 467.199 872.551 467.498 873.77 467.498C874.989 467.498 876.053 467.199 876.961 466.601C877.87 466.004 878.573 465.126 879.07 463.969C879.574 462.812 879.827 461.391 879.827 459.706ZM887.364 471.633V447.779H896.775C898.577 447.779 900.114 448.101 901.388 448.746C902.669 449.382 903.644 450.287 904.312 451.459C904.987 452.624 905.325 453.995 905.325 455.571C905.325 457.155 904.983 458.518 904.3 459.659C903.617 460.793 902.627 461.663 901.33 462.269C900.041 462.874 898.48 463.177 896.647 463.177H890.346V459.124H895.832C896.795 459.124 897.595 458.992 898.231 458.728C898.868 458.464 899.342 458.068 899.652 457.54C899.971 457.012 900.13 456.355 900.13 455.571C900.13 454.779 899.971 454.111 899.652 453.568C899.342 453.024 898.864 452.613 898.22 452.333C897.583 452.046 896.779 451.902 895.809 451.902H892.408V471.633H887.364ZM900.246 460.778L906.175 471.633H900.608L894.807 460.778H900.246ZM906.669 451.937V447.779H926.26V451.937H918.957V471.633H913.972V451.937H906.669ZM943.213 471.959C941.419 471.959 939.823 471.668 938.426 471.086C937.036 470.496 935.945 469.692 935.153 468.675C934.361 467.658 933.965 466.504 933.965 465.215C933.965 464.221 934.19 463.309 934.64 462.478C935.098 461.64 935.72 460.945 936.504 460.393C937.288 459.834 938.166 459.477 939.136 459.322V459.159C937.863 458.902 936.83 458.285 936.038 457.307C935.246 456.32 934.85 455.175 934.85 453.871C934.85 452.636 935.211 451.537 935.933 450.574C936.655 449.604 937.645 448.843 938.903 448.291C940.169 447.732 941.606 447.453 943.213 447.453C944.82 447.453 946.253 447.732 947.511 448.291C948.777 448.85 949.771 449.615 950.493 450.586C951.215 451.549 951.58 452.644 951.588 453.871C951.58 455.183 951.176 456.328 950.376 457.307C949.577 458.285 948.552 458.902 947.301 459.159V459.322C948.256 459.477 949.122 459.834 949.899 460.393C950.683 460.945 951.304 461.64 951.762 462.478C952.228 463.309 952.465 464.221 952.473 465.215C952.465 466.504 952.065 467.658 951.273 468.675C950.481 469.692 949.386 470.496 947.989 471.086C946.599 471.668 945.007 471.959 943.213 471.959ZM943.213 468.255C944.013 468.255 944.712 468.112 945.31 467.824C945.907 467.529 946.373 467.126 946.707 466.613C947.049 466.093 947.22 465.495 947.22 464.819C947.22 464.128 947.045 463.519 946.696 462.991C946.346 462.455 945.873 462.036 945.275 461.733C944.677 461.422 943.989 461.267 943.213 461.267C942.444 461.267 941.757 461.422 941.151 461.733C940.546 462.036 940.068 462.455 939.719 462.991C939.377 463.519 939.206 464.128 939.206 464.819C939.206 465.495 939.373 466.093 939.707 466.613C940.041 467.126 940.511 467.529 941.116 467.824C941.722 468.112 942.421 468.255 943.213 468.255ZM943.213 457.598C943.881 457.598 944.475 457.462 944.995 457.19C945.515 456.918 945.923 456.542 946.218 456.06C946.513 455.579 946.661 455.024 946.661 454.395C946.661 453.773 946.513 453.23 946.218 452.764C945.923 452.29 945.519 451.921 945.007 451.657C944.494 451.386 943.896 451.25 943.213 451.25C942.537 451.25 941.939 451.386 941.419 451.657C940.899 451.921 940.491 452.29 940.196 452.764C939.909 453.23 939.765 453.773 939.765 454.395C939.765 455.024 939.913 455.579 940.208 456.06C940.503 456.542 940.911 456.918 941.431 457.19C941.951 457.462 942.545 457.598 943.213 457.598ZM964.04 472.157C962.037 472.15 960.313 471.657 958.869 470.678C957.432 469.7 956.326 468.283 955.549 466.427C954.78 464.571 954.4 462.338 954.408 459.729C954.408 457.128 954.792 454.911 955.561 453.078C956.337 451.246 957.444 449.852 958.88 448.897C960.325 447.934 962.045 447.453 964.04 447.453C966.036 447.453 967.752 447.934 969.189 448.897C970.633 449.86 971.743 451.258 972.52 453.09C973.296 454.915 973.681 457.128 973.673 459.729C973.673 462.346 973.285 464.583 972.508 466.438C971.74 468.294 970.637 469.711 969.2 470.69C967.764 471.668 966.044 472.157 964.04 472.157ZM964.04 467.976C965.407 467.976 966.498 467.289 967.313 465.914C968.129 464.54 968.533 462.478 968.525 459.729C968.525 457.92 968.338 456.414 967.966 455.21C967.601 454.006 967.08 453.102 966.405 452.496C965.737 451.89 964.949 451.588 964.04 451.588C962.681 451.588 961.594 452.267 960.779 453.626C959.964 454.985 959.552 457.019 959.544 459.729C959.544 461.562 959.727 463.092 960.092 464.319C960.465 465.538 960.989 466.454 961.664 467.067C962.34 467.673 963.132 467.976 964.04 467.976ZM984.856 471.959C983.062 471.959 981.467 471.668 980.069 471.086C978.679 470.496 977.588 469.692 976.796 468.675C976.004 467.658 975.608 466.504 975.608 465.215C975.608 464.221 975.833 463.309 976.283 462.478C976.742 461.64 977.363 460.945 978.147 460.393C978.931 459.834 979.809 459.477 980.779 459.322V459.159C979.506 458.902 978.473 458.285 977.681 457.307C976.889 456.32 976.493 455.175 976.493 453.871C976.493 452.636 976.854 451.537 977.576 450.574C978.298 449.604 979.289 448.843 980.547 448.291C981.812 447.732 983.249 447.453 984.856 447.453C986.464 447.453 987.896 447.732 989.154 448.291C990.42 448.85 991.414 449.615 992.136 450.586C992.858 451.549 993.223 452.644 993.231 453.871C993.223 455.183 992.819 456.328 992.02 457.307C991.22 458.285 990.195 458.902 988.945 459.159V459.322C989.9 459.477 990.765 459.834 991.542 460.393C992.326 460.945 992.947 461.64 993.406 462.478C993.872 463.309 994.108 464.221 994.116 465.215C994.108 466.504 993.708 467.658 992.916 468.675C992.124 469.692 991.029 470.496 989.632 471.086C988.242 471.668 986.65 471.959 984.856 471.959ZM984.856 468.255C985.656 468.255 986.355 468.112 986.953 467.824C987.551 467.529 988.017 467.126 988.35 466.613C988.692 466.093 988.863 465.495 988.863 464.819C988.863 464.128 988.688 463.519 988.339 462.991C987.989 462.455 987.516 462.036 986.918 461.733C986.32 461.422 985.633 461.267 984.856 461.267C984.087 461.267 983.4 461.422 982.795 461.733C982.189 462.036 981.711 462.455 981.362 462.991C981.02 463.519 980.849 464.128 980.849 464.819C980.849 465.495 981.016 466.093 981.35 466.613C981.684 467.126 982.154 467.529 982.76 467.824C983.365 468.112 984.064 468.255 984.856 468.255ZM984.856 457.598C985.524 457.598 986.118 457.462 986.638 457.19C987.159 456.918 987.566 456.542 987.861 456.06C988.156 455.579 988.304 455.024 988.304 454.395C988.304 453.773 988.156 453.23 987.861 452.764C987.566 452.29 987.162 451.921 986.65 451.657C986.137 451.386 985.539 451.25 984.856 451.25C984.181 451.25 983.583 451.386 983.062 451.657C982.542 451.921 982.134 452.29 981.839 452.764C981.552 453.23 981.408 453.773 981.408 454.395C981.408 455.024 981.556 455.579 981.851 456.06C982.146 456.542 982.554 456.918 983.074 457.19C983.594 457.462 984.188 457.598 984.856 457.598ZM1005.68 472.157C1003.68 472.15 1001.96 471.657 1000.51 470.678C999.075 469.7 997.969 468.283 997.192 466.427C996.424 464.571 996.043 462.338 996.051 459.729C996.051 457.128 996.435 454.911 997.204 453.078C997.981 451.246 999.087 449.852 1000.52 448.897C1001.97 447.934 1003.69 447.453 1005.68 447.453C1007.68 447.453 1009.4 447.934 1010.83 448.897C1012.28 449.86 1013.39 451.258 1014.16 453.09C1014.94 454.915 1015.32 457.128 1015.32 459.729C1015.32 462.346 1014.93 464.583 1014.15 466.438C1013.38 468.294 1012.28 469.711 1010.84 470.69C1009.41 471.668 1007.69 472.157 1005.68 472.157ZM1005.68 467.976C1007.05 467.976 1008.14 467.289 1008.96 465.914C1009.77 464.54 1010.18 462.478 1010.17 459.729C1010.17 457.92 1009.98 456.414 1009.61 455.21C1009.24 454.006 1008.72 453.102 1008.05 452.496C1007.38 451.89 1006.59 451.588 1005.68 451.588C1004.32 451.588 1003.24 452.267 1002.42 453.626C1001.61 454.985 1001.2 457.019 1001.19 459.729C1001.19 461.562 1001.37 463.092 1001.73 464.319C1002.11 465.538 1002.63 466.454 1003.31 467.067C1003.98 467.673 1004.78 467.976 1005.68 467.976Z" fill="black"/>
<path d="M585.139 471.633V447.779H594.55C596.36 447.779 597.901 448.124 599.174 448.815C600.448 449.499 601.419 450.45 602.086 451.669C602.762 452.88 603.1 454.278 603.1 455.862C603.1 457.446 602.758 458.844 602.075 460.055C601.391 461.267 600.401 462.21 599.104 462.886C597.815 463.561 596.255 463.899 594.422 463.899H588.424V459.857H593.607C594.577 459.857 595.377 459.69 596.006 459.357C596.643 459.015 597.117 458.545 597.427 457.947C597.746 457.342 597.905 456.647 597.905 455.862C597.905 455.07 597.746 454.379 597.427 453.789C597.117 453.191 596.643 452.729 596.006 452.403C595.369 452.069 594.562 451.902 593.583 451.902H590.182V471.633H585.139ZM626.985 459.706C626.985 462.307 626.492 464.52 625.505 466.345C624.527 468.17 623.191 469.564 621.499 470.527C619.813 471.482 617.919 471.959 615.814 471.959C613.695 471.959 611.792 471.478 610.107 470.515C608.422 469.552 607.09 468.158 606.112 466.334C605.133 464.509 604.644 462.3 604.644 459.706C604.644 457.105 605.133 454.892 606.112 453.067C607.09 451.242 608.422 449.852 610.107 448.897C611.792 447.934 613.695 447.453 615.814 447.453C617.919 447.453 619.813 447.934 621.499 448.897C623.191 449.852 624.527 451.242 625.505 453.067C626.492 454.892 626.985 457.105 626.985 459.706ZM621.871 459.706C621.871 458.021 621.619 456.6 621.114 455.443C620.617 454.286 619.914 453.408 619.006 452.811C618.097 452.213 617.034 451.914 615.814 451.914C614.595 451.914 613.531 452.213 612.623 452.811C611.714 453.408 611.008 454.286 610.503 455.443C610.006 456.6 609.758 458.021 609.758 459.706C609.758 461.391 610.006 462.812 610.503 463.969C611.008 465.126 611.714 466.004 612.623 466.601C613.531 467.199 614.595 467.498 615.814 467.498C617.034 467.498 618.097 467.199 619.006 466.601C619.914 466.004 620.617 465.126 621.114 463.969C621.619 462.812 621.871 461.391 621.871 459.706ZM629.409 471.633V447.779H638.82C640.621 447.779 642.159 448.101 643.432 448.746C644.714 449.382 645.688 450.287 646.356 451.459C647.032 452.624 647.369 453.995 647.369 455.571C647.369 457.155 647.028 458.518 646.344 459.659C645.661 460.793 644.671 461.663 643.374 462.269C642.085 462.874 640.524 463.177 638.692 463.177H632.39V459.124H637.877C638.839 459.124 639.639 458.992 640.276 458.728C640.913 458.464 641.386 458.068 641.697 457.54C642.015 457.012 642.175 456.355 642.175 455.571C642.175 454.779 642.015 454.111 641.697 453.568C641.386 453.024 640.909 452.613 640.264 452.333C639.628 452.046 638.824 451.902 637.853 451.902H634.452V471.633H629.409ZM642.291 460.778L648.22 471.633H642.652L636.852 460.778H642.291ZM648.713 451.937V447.779H668.305V451.937H661.001V471.633H656.016V451.937H648.713ZM685.071 471.959C683.425 471.959 681.957 471.657 680.668 471.051C679.387 470.445 678.37 469.61 677.617 468.547C676.863 467.483 676.471 466.264 676.44 464.889H681.332C681.387 465.813 681.775 466.563 682.497 467.137C683.219 467.712 684.077 467.999 685.071 467.999C685.863 467.999 686.562 467.824 687.168 467.475C687.781 467.118 688.259 466.625 688.6 465.996C688.95 465.359 689.125 464.629 689.125 463.806C689.125 462.967 688.946 462.23 688.589 461.593C688.239 460.956 687.754 460.459 687.133 460.102C686.512 459.745 685.801 459.562 685.001 459.555C684.302 459.555 683.623 459.698 682.963 459.986C682.311 460.273 681.802 460.665 681.437 461.162L676.953 460.358L678.082 447.779H692.665V451.902H682.241L681.623 457.877H681.763C682.182 457.287 682.815 456.798 683.662 456.41C684.508 456.021 685.456 455.827 686.504 455.827C687.94 455.827 689.222 456.165 690.348 456.841C691.473 457.516 692.363 458.444 693.015 459.624C693.667 460.797 693.989 462.148 693.982 463.678C693.989 465.285 693.617 466.714 692.863 467.964C692.118 469.207 691.074 470.185 689.73 470.899C688.395 471.606 686.842 471.959 685.071 471.959ZM705.54 472.157C703.537 472.15 701.813 471.657 700.369 470.678C698.932 469.7 697.826 468.283 697.049 466.427C696.28 464.571 695.9 462.338 695.908 459.729C695.908 457.128 696.292 454.911 697.061 453.078C697.837 451.246 698.944 449.852 700.38 448.897C701.825 447.934 703.545 447.453 705.54 447.453C707.536 447.453 709.252 447.934 710.689 448.897C712.133 449.86 713.243 451.258 714.02 453.09C714.796 454.915 715.181 457.128 715.173 459.729C715.173 462.346 714.785 464.583 714.008 466.438C713.24 468.294 712.137 469.711 710.7 470.69C709.264 471.668 707.544 472.157 705.54 472.157ZM705.54 467.976C706.907 467.976 707.998 467.289 708.813 465.914C709.629 464.54 710.033 462.478 710.025 459.729C710.025 457.92 709.838 456.414 709.466 455.21C709.101 454.006 708.58 453.102 707.905 452.496C707.237 451.89 706.449 451.588 705.54 451.588C704.181 451.588 703.094 452.267 702.279 453.626C701.464 454.985 701.052 457.019 701.044 459.729C701.044 461.562 701.227 463.092 701.592 464.319C701.965 465.538 702.489 466.454 703.164 467.067C703.84 467.673 704.632 467.976 705.54 467.976ZM726.81 472.157C724.807 472.15 723.083 471.657 721.639 470.678C720.202 469.7 719.096 468.283 718.319 466.427C717.55 464.571 717.17 462.338 717.178 459.729C717.178 457.128 717.562 454.911 718.331 453.078C719.107 451.246 720.214 449.852 721.65 448.897C723.095 447.934 724.815 447.453 726.81 447.453C728.806 447.453 730.522 447.934 731.959 448.897C733.403 449.86 734.513 451.258 735.29 453.09C736.066 454.915 736.451 457.128 736.443 459.729C736.443 462.346 736.055 464.583 735.278 466.438C734.51 468.294 733.407 469.711 731.97 470.69C730.534 471.668 728.814 472.157 726.81 472.157ZM726.81 467.976C728.177 467.976 729.268 467.289 730.083 465.914C730.899 464.54 731.303 462.478 731.295 459.729C731.295 457.92 731.108 456.414 730.736 455.21C730.371 454.006 729.85 453.102 729.175 452.496C728.507 451.89 727.719 451.588 726.81 451.588C725.452 451.588 724.364 452.267 723.549 453.626C722.734 454.985 722.322 457.019 722.314 459.729C722.314 461.562 722.497 463.092 722.862 464.319C723.235 465.538 723.759 466.454 724.434 467.067C725.11 467.673 725.902 467.976 726.81 467.976ZM747.44 471.959C745.794 471.959 744.326 471.657 743.037 471.051C741.756 470.445 740.738 469.61 739.985 468.547C739.232 467.483 738.84 466.264 738.809 464.889H743.701C743.755 465.813 744.144 466.563 744.866 467.137C745.588 467.712 746.446 467.999 747.44 467.999C748.232 467.999 748.931 467.824 749.536 467.475C750.15 467.118 750.627 466.625 750.969 465.996C751.319 465.359 751.493 464.629 751.493 463.806C751.493 462.967 751.315 462.23 750.957 461.593C750.608 460.956 750.123 460.459 749.501 460.102C748.88 459.745 748.17 459.562 747.37 459.555C746.671 459.555 745.992 459.698 745.332 459.986C744.679 460.273 744.171 460.665 743.806 461.162L739.321 460.358L740.451 447.779H755.034V451.902H744.609L743.992 457.877H744.132C744.551 457.287 745.184 456.798 746.03 456.41C746.877 456.021 747.824 455.827 748.872 455.827C750.309 455.827 751.59 456.165 752.716 456.841C753.842 457.516 754.731 458.444 755.384 459.624C756.036 460.797 756.358 462.148 756.35 463.678C756.358 465.285 755.985 466.714 755.232 467.964C754.487 469.207 753.442 470.185 752.099 470.899C750.763 471.606 749.21 471.959 747.44 471.959Z" fill="black"/>
<path d="M323.536 471.633V447.779H332.947C334.756 447.779 336.298 448.124 337.571 448.815C338.845 449.499 339.815 450.45 340.483 451.669C341.159 452.88 341.497 454.278 341.497 455.862C341.497 457.446 341.155 458.844 340.472 460.055C339.788 461.267 338.798 462.21 337.501 462.886C336.212 463.561 334.652 463.899 332.819 463.899H326.82V459.857H332.004C332.974 459.857 333.774 459.69 334.403 459.357C335.04 459.015 335.513 458.545 335.824 457.947C336.142 457.342 336.302 456.647 336.302 455.862C336.302 455.07 336.142 454.379 335.824 453.789C335.513 453.191 335.04 452.729 334.403 452.403C333.766 452.069 332.959 451.902 331.98 451.902H328.579V471.633H323.536ZM365.381 459.706C365.381 462.307 364.888 464.52 363.902 466.345C362.924 468.17 361.588 469.564 359.895 470.527C358.21 471.482 356.316 471.959 354.211 471.959C352.091 471.959 350.189 471.478 348.504 470.515C346.819 469.552 345.487 468.158 344.509 466.334C343.53 464.509 343.041 462.3 343.041 459.706C343.041 457.105 343.53 454.892 344.509 453.067C345.487 451.242 346.819 449.852 348.504 448.897C350.189 447.934 352.091 447.453 354.211 447.453C356.316 447.453 358.21 447.934 359.895 448.897C361.588 449.852 362.924 451.242 363.902 453.067C364.888 454.892 365.381 457.105 365.381 459.706ZM360.268 459.706C360.268 458.021 360.016 456.6 359.511 455.443C359.014 454.286 358.311 453.408 357.403 452.811C356.494 452.213 355.43 451.914 354.211 451.914C352.992 451.914 351.928 452.213 351.02 452.811C350.111 453.408 349.405 454.286 348.9 455.443C348.403 456.6 348.154 458.021 348.154 459.706C348.154 461.391 348.403 462.812 348.9 463.969C349.405 465.126 350.111 466.004 351.02 466.601C351.928 467.199 352.992 467.498 354.211 467.498C355.43 467.498 356.494 467.199 357.403 466.601C358.311 466.004 359.014 465.126 359.511 463.969C360.016 462.812 360.268 461.391 360.268 459.706ZM367.806 471.633V447.779H377.217C379.018 447.779 380.556 448.101 381.829 448.746C383.111 449.382 384.085 450.287 384.753 451.459C385.429 452.624 385.766 453.995 385.766 455.571C385.766 457.155 385.425 458.518 384.741 459.659C384.058 460.793 383.068 461.663 381.771 462.269C380.482 462.874 378.921 463.177 377.089 463.177H370.787V459.124H376.273C377.236 459.124 378.036 458.992 378.673 458.728C379.31 458.464 379.783 458.068 380.094 457.54C380.412 457.012 380.571 456.355 380.571 455.571C380.571 454.779 380.412 454.111 380.094 453.568C379.783 453.024 379.306 452.613 378.661 452.333C378.024 452.046 377.221 451.902 376.25 451.902H372.849V471.633H367.806ZM380.688 460.778L386.617 471.633H381.049L375.248 460.778H380.688ZM387.11 451.937V447.779H406.701V451.937H399.398V471.633H394.413V451.937H387.11ZM423.468 471.959C421.822 471.959 420.354 471.657 419.065 471.051C417.784 470.445 416.767 469.61 416.013 468.547C415.26 467.483 414.868 466.264 414.837 464.889H419.729C419.783 465.813 420.172 466.563 420.894 467.137C421.616 467.712 422.474 467.999 423.468 467.999C424.26 467.999 424.959 467.824 425.565 467.475C426.178 467.118 426.656 466.625 426.997 465.996C427.347 465.359 427.521 464.629 427.521 463.806C427.521 462.967 427.343 462.23 426.986 461.593C426.636 460.956 426.151 460.459 425.53 460.102C424.908 459.745 424.198 459.562 423.398 459.555C422.699 459.555 422.02 459.698 421.36 459.986C420.707 460.273 420.199 460.665 419.834 461.162L415.35 460.358L416.479 447.779H431.062V451.902H420.638L420.02 457.877H420.16C420.579 457.287 421.212 456.798 422.059 456.41C422.905 456.021 423.852 455.827 424.901 455.827C426.337 455.827 427.618 456.165 428.744 456.841C429.87 457.516 430.759 458.444 431.412 459.624C432.064 460.797 432.386 462.148 432.379 463.678C432.386 465.285 432.014 466.714 431.26 467.964C430.515 469.207 429.47 470.185 428.127 470.899C426.791 471.606 425.238 471.959 423.468 471.959ZM434.223 467.44V463.468L444.182 447.779H447.606V453.276H445.58L439.301 463.212V463.398H453.453V467.44H434.223ZM445.673 471.633V466.229L445.766 464.47V447.779H450.495V471.633H445.673ZM464.319 471.959C462.58 471.959 461.031 471.66 459.672 471.063C458.321 470.457 457.253 469.626 456.469 468.57C455.692 467.506 455.292 466.279 455.269 464.889H460.347C460.378 465.472 460.569 465.984 460.918 466.427C461.275 466.862 461.749 467.199 462.339 467.44C462.929 467.681 463.593 467.801 464.331 467.801C465.1 467.801 465.779 467.665 466.369 467.394C466.959 467.122 467.421 466.745 467.755 466.264C468.089 465.782 468.256 465.227 468.256 464.598C468.256 463.961 468.077 463.398 467.72 462.909C467.371 462.412 466.866 462.024 466.206 461.744C465.554 461.465 464.777 461.325 463.877 461.325H461.652V457.621H463.877C464.638 457.621 465.309 457.489 465.892 457.225C466.482 456.961 466.94 456.596 467.266 456.13C467.592 455.656 467.755 455.105 467.755 454.476C467.755 453.878 467.612 453.354 467.324 452.904C467.045 452.446 466.649 452.088 466.136 451.832C465.631 451.576 465.041 451.448 464.366 451.448C463.682 451.448 463.057 451.572 462.49 451.821C461.924 452.061 461.469 452.407 461.128 452.857C460.786 453.308 460.604 453.836 460.58 454.441H455.746C455.77 453.067 456.162 451.855 456.923 450.807C457.684 449.759 458.709 448.94 459.998 448.349C461.295 447.752 462.758 447.453 464.389 447.453C466.035 447.453 467.476 447.752 468.71 448.349C469.945 448.947 470.904 449.755 471.587 450.772C472.278 451.782 472.62 452.915 472.612 454.173C472.62 455.509 472.205 456.623 471.366 457.516C470.535 458.409 469.452 458.976 468.116 459.217V459.403C469.871 459.628 471.207 460.238 472.123 461.232C473.047 462.218 473.505 463.453 473.498 464.936C473.505 466.295 473.113 467.502 472.321 468.558C471.537 469.614 470.454 470.445 469.071 471.051C467.689 471.657 466.105 471.959 464.319 471.959ZM475.811 471.633V467.999L484.302 460.137C485.024 459.438 485.63 458.809 486.119 458.25C486.616 457.691 486.993 457.144 487.249 456.608C487.505 456.064 487.633 455.478 487.633 454.849C487.633 454.15 487.474 453.548 487.156 453.044C486.837 452.531 486.403 452.139 485.851 451.867C485.3 451.588 484.675 451.448 483.976 451.448C483.246 451.448 482.609 451.595 482.066 451.89C481.522 452.185 481.103 452.609 480.808 453.16C480.513 453.711 480.365 454.367 480.365 455.128H475.578C475.578 453.568 475.931 452.213 476.638 451.063C477.345 449.914 478.335 449.025 479.608 448.396C480.882 447.767 482.349 447.453 484.011 447.453C485.719 447.453 487.206 447.755 488.472 448.361C489.745 448.959 490.736 449.79 491.442 450.854C492.149 451.918 492.502 453.137 492.502 454.511C492.502 455.412 492.324 456.301 491.966 457.178C491.617 458.056 490.992 459.03 490.091 460.102C489.19 461.166 487.921 462.443 486.282 463.934L482.8 467.347V467.51H492.817V471.633H475.811Z" fill="black"/>
<rect x="218" y="308.633" width="763" height="74" rx="5" fill="#D9D9D9"/>
<path d="M559.481 340.639C559.388 339.7 558.988 338.97 558.281 338.449C557.575 337.929 556.616 337.669 555.404 337.669C554.581 337.669 553.886 337.786 553.32 338.019C552.753 338.244 552.318 338.558 552.015 338.962C551.72 339.366 551.572 339.824 551.572 340.336C551.557 340.764 551.646 341.136 551.84 341.455C552.042 341.773 552.318 342.049 552.667 342.282C553.017 342.507 553.42 342.705 553.879 342.876C554.337 343.039 554.826 343.178 555.346 343.295L557.489 343.807C558.53 344.04 559.485 344.351 560.355 344.739C561.224 345.128 561.978 345.605 562.614 346.172C563.251 346.739 563.744 347.407 564.094 348.175C564.451 348.944 564.633 349.825 564.641 350.819C564.633 352.279 564.261 353.545 563.523 354.617C562.793 355.68 561.737 356.507 560.355 357.098C558.98 357.68 557.322 357.971 555.381 357.971C553.455 357.971 551.778 357.676 550.349 357.086C548.928 356.496 547.818 355.622 547.018 354.465C546.226 353.3 545.811 351.86 545.772 350.144H550.652C550.707 350.944 550.936 351.611 551.339 352.147C551.751 352.675 552.298 353.075 552.982 353.347C553.673 353.611 554.453 353.743 555.323 353.743C556.177 353.743 556.919 353.619 557.548 353.37C558.184 353.122 558.677 352.776 559.027 352.334C559.376 351.891 559.551 351.382 559.551 350.808C559.551 350.272 559.392 349.822 559.073 349.457C558.763 349.092 558.305 348.781 557.699 348.525C557.101 348.269 556.367 348.036 555.498 347.826L552.9 347.174C550.889 346.684 549.301 345.92 548.136 344.879C546.972 343.839 546.393 342.437 546.401 340.674C546.393 339.23 546.777 337.968 547.554 336.889C548.338 335.809 549.414 334.967 550.78 334.361C552.147 333.755 553.7 333.453 555.439 333.453C557.21 333.453 558.755 333.755 560.075 334.361C561.403 334.967 562.436 335.809 563.173 336.889C563.911 337.968 564.292 339.218 564.315 340.639H559.481ZM566.722 357.633V333.779H582.795V337.937H571.765V343.621H581.968V347.779H571.765V353.475H582.842V357.633H566.722ZM585.493 357.633V333.779H594.904C596.706 333.779 598.243 334.101 599.517 334.746C600.798 335.382 601.773 336.287 602.441 337.459C603.116 338.624 603.454 339.995 603.454 341.571C603.454 343.155 603.112 344.518 602.429 345.659C601.746 346.793 600.756 347.663 599.459 348.269C598.17 348.874 596.609 349.177 594.776 349.177H588.475V345.124H593.961C594.924 345.124 595.724 344.992 596.36 344.728C596.997 344.464 597.471 344.068 597.781 343.54C598.1 343.012 598.259 342.355 598.259 341.571C598.259 340.779 598.1 340.111 597.781 339.568C597.471 339.024 596.993 338.613 596.349 338.333C595.712 338.046 594.908 337.902 593.938 337.902H590.537V357.633H585.493ZM598.375 346.778L604.304 357.633H598.737L592.936 346.778H598.375ZM609.375 333.779L615.141 351.903H615.362L621.139 333.779H626.73L618.507 357.633H612.008L603.773 333.779H609.375ZM633.333 333.779V357.633H628.289V333.779H633.333ZM657.218 342.13H652.116C652.023 341.47 651.833 340.884 651.545 340.371C651.258 339.851 650.889 339.408 650.439 339.044C649.988 338.679 649.468 338.399 648.878 338.205C648.296 338.011 647.663 337.914 646.979 337.914C645.745 337.914 644.669 338.22 643.753 338.834C642.837 339.44 642.126 340.325 641.622 341.49C641.117 342.647 640.864 344.052 640.864 345.706C640.864 347.407 641.117 348.835 641.622 349.992C642.134 351.149 642.848 352.023 643.765 352.613C644.681 353.203 645.741 353.498 646.945 353.498C647.62 353.498 648.245 353.409 648.82 353.23C649.402 353.052 649.919 352.792 650.369 352.45C650.819 352.101 651.192 351.677 651.487 351.18C651.79 350.683 652 350.117 652.116 349.48L657.218 349.503C657.086 350.598 656.756 351.654 656.228 352.671C655.708 353.681 655.005 354.585 654.12 355.385C653.242 356.177 652.194 356.806 650.975 357.272C649.763 357.73 648.393 357.959 646.863 357.959C644.735 357.959 642.833 357.478 641.156 356.515C639.486 355.552 638.166 354.158 637.195 352.334C636.233 350.509 635.751 348.3 635.751 345.706C635.751 343.105 636.24 340.892 637.219 339.067C638.197 337.242 639.525 335.852 641.202 334.897C642.879 333.934 644.766 333.453 646.863 333.453C648.245 333.453 649.526 333.647 650.707 334.035C651.895 334.423 652.947 334.99 653.863 335.736C654.78 336.473 655.525 337.378 656.1 338.449C656.682 339.521 657.055 340.748 657.218 342.13ZM659.522 357.633V333.779H675.596V337.937H664.566V343.621H674.769V347.779H664.566V353.475H675.643V357.633H659.522Z" fill="black"/>
<rect x="218" y="183.633" width="763" height="72" rx="5" fill="black"/>
<path d="M551.123 207.779V231.633H546.08V207.779H551.123ZM573.913 207.779V231.633H569.557L559.179 216.619H559.004V231.633H553.961V207.779H558.387L568.683 222.781H568.893V207.779H573.913ZM592.586 215.49C592.423 214.923 592.194 214.422 591.899 213.987C591.603 213.544 591.242 213.172 590.815 212.869C590.396 212.558 589.915 212.321 589.371 212.158C588.835 211.995 588.241 211.914 587.589 211.914C586.37 211.914 585.298 212.217 584.374 212.822C583.458 213.428 582.743 214.309 582.231 215.466C581.718 216.615 581.462 218.021 581.462 219.683C581.462 221.344 581.715 222.758 582.219 223.923C582.724 225.087 583.438 225.976 584.362 226.59C585.286 227.196 586.377 227.498 587.635 227.498C588.777 227.498 589.751 227.296 590.559 226.893C591.374 226.481 591.996 225.903 592.423 225.157C592.858 224.412 593.075 223.53 593.075 222.513L594.1 222.665H587.95V218.867H597.932V221.873C597.932 223.969 597.489 225.771 596.604 227.277C595.719 228.776 594.5 229.933 592.947 230.748C591.394 231.556 589.616 231.959 587.612 231.959C585.376 231.959 583.411 231.466 581.718 230.48C580.026 229.486 578.706 228.077 577.758 226.252C576.819 224.419 576.349 222.245 576.349 219.729C576.349 217.796 576.628 216.072 577.187 214.558C577.754 213.036 578.546 211.747 579.564 210.691C580.581 209.635 581.765 208.831 583.116 208.28C584.467 207.728 585.931 207.453 587.507 207.453C588.858 207.453 590.116 207.651 591.281 208.047C592.446 208.435 593.479 208.986 594.379 209.701C595.288 210.415 596.03 211.265 596.604 212.251C597.179 213.23 597.548 214.309 597.711 215.49H592.586ZM600.408 231.633V207.779H609.82C611.621 207.779 613.159 208.101 614.432 208.746C615.714 209.382 616.688 210.287 617.356 211.459C618.031 212.624 618.369 213.995 618.369 215.571C618.369 217.155 618.028 218.518 617.344 219.659C616.661 220.793 615.671 221.663 614.374 222.269C613.085 222.874 611.524 223.177 609.692 223.177H603.39V219.124H608.876C609.839 219.124 610.639 218.992 611.276 218.728C611.913 218.464 612.386 218.068 612.697 217.54C613.015 217.012 613.174 216.355 613.174 215.571C613.174 214.779 613.015 214.111 612.697 213.568C612.386 213.024 611.909 212.613 611.264 212.333C610.627 212.046 609.824 211.902 608.853 211.902H605.452V231.633H600.408ZM613.291 220.778L619.22 231.633H613.652L607.851 220.778H613.291ZM620.621 231.633V207.779H636.695V211.937H625.665V217.621H635.868V221.779H625.665V227.475H636.742V231.633H620.621ZM652.334 214.639C652.24 213.7 651.841 212.97 651.134 212.449C650.427 211.929 649.468 211.669 648.257 211.669C647.434 211.669 646.739 211.786 646.172 212.019C645.605 212.244 645.17 212.558 644.867 212.962C644.572 213.366 644.425 213.824 644.425 214.336C644.409 214.764 644.499 215.136 644.693 215.455C644.895 215.773 645.17 216.049 645.52 216.282C645.869 216.507 646.273 216.705 646.731 216.876C647.189 217.039 647.678 217.178 648.199 217.295L650.342 217.807C651.382 218.04 652.338 218.351 653.207 218.739C654.077 219.128 654.83 219.605 655.467 220.172C656.104 220.739 656.597 221.407 656.946 222.175C657.303 222.944 657.486 223.825 657.494 224.819C657.486 226.279 657.113 227.545 656.375 228.617C655.646 229.68 654.589 230.507 653.207 231.098C651.833 231.68 650.175 231.971 648.234 231.971C646.308 231.971 644.631 231.676 643.202 231.086C641.781 230.496 640.67 229.622 639.871 228.465C639.079 227.3 638.663 225.86 638.624 224.144H643.505C643.559 224.944 643.788 225.611 644.192 226.147C644.603 226.675 645.151 227.075 645.834 227.347C646.525 227.611 647.306 227.743 648.175 227.743C649.03 227.743 649.771 227.619 650.4 227.37C651.037 227.122 651.53 226.776 651.879 226.334C652.229 225.891 652.404 225.382 652.404 224.808C652.404 224.272 652.244 223.822 651.926 223.457C651.615 223.092 651.157 222.781 650.552 222.525C649.954 222.269 649.22 222.036 648.35 221.826L645.753 221.174C643.742 220.684 642.154 219.92 640.989 218.879C639.824 217.839 639.246 216.437 639.253 214.674C639.246 213.23 639.63 211.968 640.406 210.889C641.191 209.809 642.266 208.967 643.633 208.361C644.999 207.755 646.553 207.453 648.292 207.453C650.062 207.453 651.608 207.755 652.928 208.361C654.256 208.967 655.288 209.809 656.026 210.889C656.764 211.968 657.144 213.218 657.167 214.639H652.334ZM672.515 214.639C672.421 213.7 672.022 212.97 671.315 212.449C670.608 211.929 669.649 211.669 668.438 211.669C667.615 211.669 666.92 211.786 666.353 212.019C665.786 212.244 665.351 212.558 665.048 212.962C664.753 213.366 664.606 213.824 664.606 214.336C664.59 214.764 664.68 215.136 664.874 215.455C665.076 215.773 665.351 216.049 665.701 216.282C666.05 216.507 666.454 216.705 666.912 216.876C667.37 217.039 667.859 217.178 668.38 217.295L670.523 217.807C671.563 218.04 672.519 218.351 673.388 218.739C674.258 219.128 675.011 219.605 675.648 220.172C676.285 220.739 676.778 221.407 677.127 222.175C677.484 222.944 677.667 223.825 677.675 224.819C677.667 226.279 677.294 227.545 676.556 228.617C675.826 229.68 674.77 230.507 673.388 231.098C672.014 231.68 670.356 231.971 668.415 231.971C666.489 231.971 664.812 231.676 663.383 231.086C661.962 230.496 660.851 229.622 660.052 228.465C659.26 227.3 658.844 225.86 658.805 224.144H663.686C663.74 224.944 663.969 225.611 664.373 226.147C664.784 226.675 665.332 227.075 666.015 227.347C666.706 227.611 667.487 227.743 668.356 227.743C669.211 227.743 669.952 227.619 670.581 227.37C671.218 227.122 671.711 226.776 672.06 226.334C672.41 225.891 672.585 225.382 672.585 224.808C672.585 224.272 672.425 223.822 672.107 223.457C671.796 223.092 671.338 222.781 670.733 222.525C670.135 222.269 669.401 222.036 668.531 221.826L665.934 221.174C663.923 220.684 662.335 219.92 661.17 218.879C660.005 217.839 659.426 216.437 659.434 214.674C659.426 213.23 659.811 211.968 660.587 210.889C661.372 209.809 662.447 208.967 663.814 208.361C665.18 207.755 666.733 207.453 668.473 207.453C670.243 207.453 671.789 207.755 673.109 208.361C674.437 208.967 675.469 209.809 676.207 210.889C676.945 211.968 677.325 213.218 677.348 214.639H672.515Z" fill="white"/>
<path d="M612 308.633V256.633" stroke="black" stroke-width="8"/>
<g clip-path="url(#clip0_4_1452)">
<path d="M533 120.317L533.023 77.3809C533.024 76.4381 533.788 75.6741 534.73 75.6741C545.755 75.6732 556.78 75.6732 567.805 75.6732C568.488 75.4049 568.244 75.2341 568.146 75.0633C566.024 71.5504 564.634 67.7692 564.098 63.6707C562.902 54.2786 565.561 46.1061 571.951 39.1047C572.317 38.7144 572.683 38.3484 573.073 37.9825C573.39 37.6654 573.39 37.6654 573.098 37.3726C572.098 36.4212 571.195 35.3722 570.439 34.2012C568.732 31.4934 567.78 28.5415 567.707 25.3213C567.683 24.5163 567.854 24.4187 568.585 24.7847C569.366 25.175 570.171 25.5165 571.024 25.7849C571.122 24.3699 570.951 23.199 570.927 22.0036C570.927 21.5645 570.902 21.1498 570.927 20.7106C570.927 20.1008 571.146 19.9544 571.683 20.2715C572.537 20.7594 573.39 21.1985 574.293 21.5645C574.829 21.784 574.829 21.784 574.78 21.1985C574.634 19.6616 574.61 18.1247 574.78 16.5878C574.927 16.0023 575.195 15.9048 575.39 16.0755C575.537 16.1975 575.634 16.3683 575.756 16.5146C577.634 18.8566 579.732 20.9546 582.244 22.6379C584.439 24.1016 586.805 24.9066 589.439 24.931C591.415 24.9554 593.317 24.5407 595.146 23.8332C596.854 23.1746 598.561 22.4915 600.341 22.1012C602.146 21.7108 603.976 21.5401 605.78 21.9792C608.854 22.7354 610.927 24.7115 612.22 27.5413C612.707 28.6147 612.976 29.7369 613.146 30.9079C613.22 31.347 613.22 31.347 613.683 31.3226C616.366 31.1274 618.951 31.5421 621.293 32.9327C624.098 34.616 625.659 37.1531 626.268 40.3001C626.707 42.6176 626.585 44.9108 626.22 47.2283C625.927 49.0336 625.439 50.8144 624.854 52.5465C624.707 52.9856 624.61 52.9612 625.146 53.1564C627.878 54.0834 629.585 55.9618 630.073 58.7917C630.756 62.6705 628.268 66.1103 624.659 66.9641C624 67.1105 623.317 67.2081 622.634 67.1349C622.341 67.0861 622.244 67.2325 622.171 67.5008C621.659 69.3548 620.951 71.1601 620.098 72.8922C618.341 76.3807 616 79.3813 613.073 81.9428C612.415 82.4063 612.366 82.6747 612.512 83.0406C612.854 83.992 613.146 84.9678 613.463 85.9193C615.439 92.0669 617.439 98.1901 619.39 104.338C619.537 104.777 619.732 104.948 620.171 105.021C622.098 105.435 623.317 106.631 623.829 108.534C623.927 108.948 624 109.388 624.073 109.802C624.537 109.534 624.732 109.266 625.024 109.022C625.854 108.339 626.78 108.192 627.78 108.534C628.805 108.9 629.415 109.656 629.561 110.729C629.61 111.095 629.707 111.193 630.073 111.242C631.78 111.51 632.78 113.193 632.22 114.852C632.073 115.267 632.122 115.56 632.415 115.901C633.171 116.804 633.61 117.853 633.756 119.024C633.829 119.536 633.756 119.536 634.317 119.536H644.39C644.39 118.511 644.073 117.706 643.902 116.828C642.756 116.901 641.976 117.096 641.22 117.34C640.78 117.487 640.561 117.389 640.488 117.145C640.415 116.926 640.585 116.755 641 116.633C641.707 116.413 642.415 116.218 643.122 115.999C643.829 115.779 643.707 115.95 643.707 115.169C643.732 114.803 643.585 114.754 643.39 114.754H639.878C639.244 114.73 639.146 114.608 639.146 114.413C639.61 114.047 639.732 114.071 639.878 114.071H643.341C643.659 114.071 643.78 113.974 643.829 113.657C643.951 112.827 643.976 112.827 643.146 112.583C642.463 112.364 641.756 112.169 641.073 111.973C640.537 111.754 640.463 111.607 640.512 111.437C641.049 111.193 641.195 111.242 641.366 111.29C642.195 111.534 643 111.778 643.829 112.047C644.951 110.315 645.902 109.095 647.195 108.168C647.439 107.997 647.488 107.802 647.488 107.533V99.9953C647.537 99.6538 647.78 99.5318 648.073 99.7026C650.488 101.947 652.61 103.923 654.707 105.875C655.268 106.411 655.098 106.411 655.732 105.948C660.293 102.703 666.415 102.703 670.976 105.948C671.561 106.363 671.39 106.46 672.024 105.875C674.171 103.899 676.293 101.947 678.439 99.9709C678.634 99.8002 678.805 99.5074 679.122 99.6294C679.463 99.7514 679.341 100.093 679.341 100.337V111.29C679.341 111.998 679.341 111.998 680 111.803C680.585 111.632 681.146 111.461 681.732 111.29C682.561 111.632 682.512 111.803 682.293 111.876L680.902 112.315L679.659 112.681C679.317 113.242 679.317 113.608 679.341 113.949C681.098 114.096 682.171 114.096 683.244 114.096C683.854 114.169 683.976 114.291 683.951 114.462C683.512 114.803 683.341 114.803 683.195 114.803H679.805C679.317 114.803 679.293 114.803 679.293 115.267C679.293 116.023 679.244 115.852 679.878 116.047C680.537 116.267 681.22 116.438 681.902 116.657C682.463 116.901 682.537 117.048 682.463 117.243C681.024 117.17 680.366 116.95 679.683 116.755C679.293 117.755 679.293 118.463 679.293 119.194C679.293 119.463 679.366 119.609 679.659 119.585H690.195C690.463 119.585 690.732 119.56 691 119.707V120.17C690.39 120.317 690.22 120.317 690.024 120.317H533Z" fill="#151D38"/>
<path d="M561.294 116.047C561.294 116.022 561.294 116.022 561.294 115.998C570.317 115.998 579.34 115.998 588.364 115.998C588.413 115.998 588.437 115.998 588.486 115.998C589.124 115.998 589.124 115.998 589.124 115.366C589.124 115.318 589.124 115.245 589.124 115.196C589.124 102.784 589.124 90.3717 589.124 77.9351C589.124 77.7894 589.124 77.6679 589.124 77.5222C589.099 76.8664 588.732 76.4777 588.069 76.4048C587.849 76.3805 587.628 76.4048 587.432 76.4048C570.047 76.4048 552.662 76.4048 535.302 76.4048C535.155 76.4048 535.033 76.4048 534.885 76.4048C533.978 76.4291 533.61 76.8178 533.61 77.6922C533.61 90.2746 533.61 102.881 533.61 115.464C533.61 116.022 533.61 116.022 534.199 116.022C534.346 116.022 534.469 116.022 534.616 116.022C543.492 116.047 552.393 116.047 561.294 116.047Z" fill="#CCD6DA"/>
<path d="M578.891 75.6684C580.712 75.6684 582.534 75.6684 584.38 75.6684C585.498 75.6684 586.639 75.6684 587.757 75.6684C588.68 75.6684 589.384 76.2067 589.554 77.0388C589.603 77.259 589.603 77.4548 589.603 77.675C589.603 81.0521 589.603 84.4047 589.603 87.7817C589.603 88.3446 589.652 88.3201 590.089 88.369C593.66 88.8095 597.182 88.6138 600.655 87.7083C608.574 85.6283 614.574 80.9787 618.679 73.882C619.845 71.8753 620.72 69.7218 621.351 67.4704C621.473 67.0299 621.473 67.0299 621.06 66.9076C620.841 66.8342 620.623 66.7608 620.404 66.6873C619.991 66.516 619.87 66.3692 619.942 66.1245C620.015 65.8553 620.234 65.8308 620.671 65.9777C621.837 66.4182 623.003 66.5161 624.218 66.2958C627.813 65.5861 630.12 61.9154 629.173 58.3671C628.201 54.7453 624.461 52.6897 620.963 53.8643C620.793 53.9133 620.647 54.0111 620.477 54.0356C620.307 54.0601 620.185 53.9622 620.112 53.8154C620.04 53.6441 620.088 53.4972 620.21 53.3994C620.307 53.3259 620.404 53.277 620.525 53.2525C620.793 53.1546 621.035 53.0812 621.303 53.0078C621.351 52.9833 621.424 52.9589 621.448 52.9099C621.497 52.7876 621.376 52.812 621.303 52.7876C621.206 52.7386 621.084 52.7142 620.963 52.6652C619.141 52.029 617.392 51.2214 615.789 50.1447C612.874 48.2359 610.615 45.7398 609.157 42.534C608.477 41.0168 608.016 39.4262 607.748 37.7621C607.675 37.2727 607.651 37.2727 607.238 37.4929C607.092 37.5663 606.971 37.6397 606.825 37.7376C604.663 39.0101 602.453 40.0869 600.121 40.9679C595.093 42.8522 589.943 43.6108 584.623 42.6564C580.931 41.9957 577.482 40.6742 574.47 38.3494C574.081 38.0558 574.081 38.0558 573.765 38.3739C571.045 40.9923 568.883 44.0023 567.328 47.4283C564.923 52.7876 564.195 58.3671 565.093 64.1668C565.701 68.1067 567.11 71.7529 569.199 75.13C569.441 75.546 569.709 75.7173 570.219 75.7173C573.085 75.6439 575.976 75.6684 578.891 75.6684Z" fill="#FAE0D6"/>
<path d="M589.762 102.632C589.762 106.509 589.762 110.36 589.762 114.236C589.762 114.776 589.762 115.34 589.762 115.88C589.762 116.174 589.835 116.297 590.152 116.297C590.811 116.272 591.47 116.297 592.153 116.297C594.617 116.297 597.08 116.272 599.52 116.272C600.032 116.272 600.081 116.346 600.081 116.861C600.081 117.671 600.081 118.48 600.081 119.265C600.081 119.658 600.032 119.707 600.471 119.707C603.618 119.707 606.765 119.707 609.888 119.707C610.205 119.707 610.278 119.584 610.303 119.314C610.4 118.431 610.669 117.573 611.132 116.812C611.303 116.542 611.327 116.297 611.205 115.978C610.693 114.457 610.205 112.911 609.717 111.39C608.522 107.662 607.302 103.933 606.107 100.204C606.058 100.081 606.009 99.9339 605.985 99.8112C605.936 99.5904 606.034 99.4187 606.253 99.3696C606.448 99.3206 606.595 99.4187 606.668 99.5904C606.692 99.664 606.717 99.7376 606.741 99.8112C607.595 102.461 608.449 105.11 609.303 107.76C610.108 110.262 610.913 112.764 611.742 115.242C611.888 115.659 611.888 115.684 612.206 115.389C613.084 114.531 614.108 113.966 615.304 113.696C615.67 113.598 615.694 113.598 615.597 113.23C615.401 112.421 615.182 111.587 615.011 110.777C614.45 108.324 615.938 105.797 618.353 105.159C618.5 105.11 618.67 105.11 618.817 105.061C618.987 105.037 619.061 104.938 618.987 104.767C618.963 104.669 618.939 104.57 618.89 104.497C616.987 98.5601 615.06 92.5988 613.157 86.662C612.815 85.558 612.45 84.4541 612.084 83.3502C612.01 83.1048 611.888 83.0067 611.693 83.2275C611.62 83.3011 611.547 83.3502 611.449 83.3992C609.839 84.6013 608.107 85.6562 606.278 86.4903C602.716 88.1339 598.959 89.0661 595.031 89.2133C593.372 89.2869 591.714 89.2624 590.079 89.0171C589.811 88.968 589.713 89.0661 589.737 89.3115C589.737 89.4587 589.737 89.6304 589.737 89.7776C589.762 94.0707 589.762 98.3638 589.762 102.632Z" fill="#FFF3A2"/>
<path d="M667.592 119.657C671.145 119.657 674.722 119.657 678.276 119.657C678.787 119.657 678.787 119.657 678.787 119.139C678.787 119.065 678.787 118.991 678.787 118.893C678.787 113.073 678.787 107.252 678.787 101.432C678.787 101.309 678.787 101.186 678.787 101.087C678.787 100.988 678.835 100.865 678.738 100.816C678.592 100.742 678.543 100.89 678.446 100.964C677.132 102.197 675.818 103.405 674.479 104.638C673.676 105.378 672.873 106.143 672.07 106.882C671.729 107.203 671.68 107.178 671.315 106.932C671.194 106.858 671.096 106.759 670.999 106.685C669.076 105.23 666.935 104.367 664.55 104.194C661.361 103.948 658.465 104.835 655.91 106.808C655.35 107.252 655.35 107.252 654.839 106.784C654.815 106.759 654.79 106.734 654.742 106.71C652.819 104.885 650.872 103.06 648.925 101.235C648.779 101.087 648.633 100.816 648.439 100.89C648.292 100.964 648.366 101.235 648.366 101.432C648.366 103.553 648.366 105.699 648.366 107.82C648.366 108.116 648.341 108.362 648.025 108.559C644.52 110.952 643.693 115.613 645.737 119.213C645.932 119.559 646.151 119.707 646.565 119.707C649.144 119.682 651.748 119.707 654.328 119.682C654.498 119.682 654.742 119.756 654.815 119.608C654.888 119.46 654.644 119.337 654.523 119.213C653.257 117.832 652.868 116.229 653.403 114.454C653.939 112.678 655.18 111.617 656.932 111.198C657.297 111.1 657.662 111.05 658.027 111.1C658.222 111.124 658.344 111.248 658.344 111.47C658.344 111.642 658.246 111.765 658.052 111.79C657.833 111.815 657.638 111.839 657.419 111.864C655.74 112.086 654.304 113.368 653.963 115.021C653.598 116.723 654.328 118.449 655.788 119.361C656.153 119.583 656.543 119.707 657.005 119.707C660.607 119.633 664.112 119.657 667.592 119.657Z" fill="#C27659"/>
<path d="M561.339 116.682C556.362 116.704 551.386 116.704 546.41 116.704C542.414 116.704 538.418 116.704 534.422 116.704C534.275 116.704 534.104 116.704 533.957 116.704C533.711 116.704 533.589 116.791 533.613 117.009C533.613 117.444 533.613 117.879 533.613 118.314C533.613 119.097 533.613 119.097 534.496 119.097C541.482 119.097 548.493 119.097 555.48 119.075C566.389 119.075 577.273 119.053 588.181 119.053C588.329 119.053 588.5 119.053 588.647 119.053C588.99 119.032 589.113 118.923 589.113 118.618C589.137 118.053 589.113 117.509 589.113 116.943C589.113 116.704 588.99 116.639 588.745 116.661C588.598 116.661 588.476 116.661 588.329 116.661C585.73 116.661 583.156 116.682 580.558 116.682C574.159 116.682 567.761 116.682 561.339 116.682Z" fill="#CCD6DA"/>
<path d="M622.042 119.682C625.468 119.682 628.917 119.682 632.343 119.682C632.488 119.682 632.608 119.682 632.753 119.682C632.97 119.707 633.067 119.632 633.043 119.384C632.922 118.343 632.56 117.401 631.933 116.558C631.837 116.409 631.74 116.434 631.692 116.607C631.668 116.682 631.644 116.756 631.595 116.831C630.799 118.541 628.821 119.012 627.373 117.822C627.108 117.599 626.939 117.55 626.626 117.698C625.733 118.07 624.889 117.946 624.093 117.401C623.248 116.806 622.862 115.963 622.935 114.897C622.959 114.525 622.935 114.5 622.621 114.599C621.873 114.798 621.174 114.723 620.498 114.327C620.329 114.227 620.184 114.227 619.991 114.227C618.882 114.227 617.748 114.203 616.638 114.227C614.081 114.277 611.886 116.087 611.234 118.641C611.162 118.913 611.114 119.186 611.089 119.459C611.065 119.632 611.138 119.707 611.307 119.707C611.451 119.707 611.62 119.707 611.765 119.707C615.215 119.682 618.64 119.682 622.042 119.682Z" fill="#CCD6DA"/>
<path d="M617.799 113.171C618.253 113.171 618.681 113.171 619.134 113.171C619.31 113.171 619.411 113.124 619.336 112.936C618.832 111.638 618.756 110.247 618.454 108.902C618.379 108.596 618.504 108.407 618.731 108.36C618.958 108.313 619.109 108.454 619.184 108.761C619.26 109.068 619.31 109.398 619.361 109.704C619.512 110.506 619.638 111.308 619.814 112.086C620.066 113.148 621.098 113.761 622.232 113.572C623.34 113.36 624.045 112.417 623.869 111.355C623.717 110.435 623.566 109.539 623.34 108.643C622.861 106.638 620.721 105.365 618.58 105.742C616.54 106.096 615.054 108.1 615.407 110.058C615.583 111.002 615.885 111.921 616.112 112.865C616.162 113.077 616.288 113.171 616.54 113.171C616.968 113.171 617.396 113.171 617.799 113.171Z" fill="#FAE0D6"/>
<path d="M623.896 115.221C623.945 115.907 624.17 116.445 624.718 116.837C625.865 117.669 627.41 117.253 627.909 115.931C628.382 114.634 628.831 113.312 629.28 111.99C629.329 111.843 629.354 111.696 629.379 111.525C629.454 110.57 628.881 109.714 627.934 109.42C627.011 109.151 625.989 109.542 625.541 110.399C625.242 110.987 624.992 111.623 624.893 112.284C624.818 112.773 624.668 113.214 624.419 113.655C624.12 114.169 623.945 114.707 623.896 115.221Z" fill="#FAE0D6"/>
<path d="M594.515 119.097V119.075C595.828 119.075 597.116 119.075 598.429 119.075C598.652 119.075 598.875 119.075 599.073 119.075C599.321 119.053 599.495 118.965 599.495 118.723C599.495 118.108 599.495 117.492 599.495 116.877C599.495 116.723 599.395 116.657 599.222 116.657C599.073 116.657 598.9 116.657 598.751 116.657C596.893 116.657 595.035 116.657 593.177 116.657C592.162 116.657 591.146 116.679 590.155 116.679C589.858 116.679 589.734 116.767 589.734 117.03C589.759 117.58 589.734 118.13 589.734 118.657C589.734 119.075 589.734 119.097 590.229 119.097C591.666 119.097 593.078 119.097 594.515 119.097Z" fill="#CCD6DA"/>
<path d="M631.826 114.459C631.826 113.367 631.124 112.584 630.058 112.418C629.59 112.346 629.538 112.37 629.382 112.774C629.096 113.533 628.835 114.293 628.549 115.029C628.289 115.693 628.159 116.429 627.639 116.999C627.457 117.189 627.613 117.307 627.743 117.426C628.835 118.257 630.5 117.901 631.072 116.667C631.332 116.097 631.54 115.503 631.748 114.91C631.826 114.72 631.826 114.53 631.826 114.459Z" fill="#FAE0D6"/>
<path d="M568.372 96.65C568.178 99.617 566.341 101.83 563.634 102.462C560.153 103.289 556.72 100.882 556.236 97.3066C555.825 94.2909 557.759 91.2266 560.902 90.497C561.579 90.3511 561.627 90.3754 561.724 91.0564C562.135 93.3668 563.682 95.0692 565.93 95.5799C566.462 95.7015 566.994 95.7258 567.55 95.6772C568.275 95.6042 568.347 95.6772 568.372 96.4068C568.396 96.5284 568.372 96.65 568.372 96.65Z" fill="#151D38"/>
<path d="M562.389 102.015C562.759 101.99 563.252 101.94 563.745 101.815C565.939 101.215 567.665 99.1162 567.764 96.8671C567.789 96.3673 567.789 96.3673 567.32 96.3673C564.386 96.4172 561.822 94.418 561.156 91.5191C561.008 90.8693 560.934 91.0193 560.54 91.1442C558 91.9939 556.422 94.6429 556.866 97.3669C557.285 100.016 559.627 102.04 562.389 102.015Z" fill="white"/>
<path d="M589.01 53.4349C591.688 53.4349 594.367 53.4349 597.045 53.4349C598.276 53.4349 599.507 53.4843 600.737 53.509C601.317 53.5337 601.461 53.7315 601.196 54.2258C599.386 57.6615 596.732 60.059 592.943 60.8747C589.13 61.6904 585.776 60.6275 582.904 57.9334C581.77 56.8705 580.901 55.5852 580.202 54.1764C580.129 54.0281 580.057 53.9045 580.008 53.7562C579.912 53.4596 580.008 53.3113 580.322 53.2371C580.443 53.2124 580.564 53.2124 580.66 53.2124C583.025 53.2371 585.414 53.2618 587.779 53.2866C588.189 53.2866 588.575 53.336 588.985 53.336C589.01 53.3854 589.01 53.4101 589.01 53.4349Z" fill="#151D38"/>
<path d="M590.998 53.9164C590.264 53.9164 589.553 53.9164 588.818 53.9164C587.912 53.9164 587.03 53.9164 586.123 53.8694C584.58 53.8223 583.037 53.8223 581.493 53.8223C581.15 53.8223 581.126 53.8458 581.297 54.1283C581.91 55.2349 582.694 56.2237 583.649 57.0713C586.344 59.4256 589.48 60.3909 593.056 59.7081C596.339 59.0725 598.74 57.2361 600.504 54.5521C600.822 54.0577 600.822 54.0342 600.21 54.0342C597.147 53.9871 594.061 53.94 590.998 53.9164Z" fill="white"/>
<path d="M567.772 57.1778C567.772 55.1833 569.268 53.2364 571.761 53.2126C573.945 53.1889 575.702 54.9934 575.702 57.1778C575.702 59.3859 573.945 61.1429 571.737 61.1429C569.553 61.1192 567.772 59.3622 567.772 57.1778Z" fill="#E5384A"/>
<path d="M614.739 57.7998C614.834 59.7049 613.192 61.729 610.789 61.7528C608.599 61.7528 606.838 59.9906 606.814 57.7998C606.814 55.5614 608.552 53.8231 610.789 53.8231C613.145 53.7755 614.858 55.7996 614.739 57.7998Z" fill="#E5384A"/>
<path d="M577.215 48.332C578.42 48.332 579.389 49.2752 579.363 50.4803C579.363 51.6592 578.42 52.6023 577.267 52.6023C576.062 52.6023 575.093 51.6592 575.093 50.4541C575.093 49.3014 576.036 48.3582 577.215 48.332Z" fill="#151D38"/>
<path d="M604.693 48.9424C605.898 48.9424 606.815 49.8853 606.815 51.1163C606.789 52.2949 605.845 53.2378 604.667 53.2116C603.514 53.2116 602.545 52.2425 602.545 51.0901C602.519 49.8853 603.488 48.9162 604.693 48.9424Z" fill="#151D38"/>
<path d="M626.946 59.9594C626.921 62.4405 624.378 64.1891 621.958 63.3857C621.884 63.3621 621.811 63.3384 621.738 63.2912C621.493 63.1967 621.395 63.0313 621.493 62.795C621.566 62.5823 621.786 62.5587 621.982 62.6059C622.104 62.6295 622.251 62.7004 622.373 62.7241C624.06 63.173 625.821 62.1333 626.163 60.5029C626.505 58.8252 625.332 57.242 623.596 57.0057C623.449 56.9821 623.278 56.9585 623.131 56.9348C622.96 56.9112 622.862 56.7694 622.862 56.604C622.862 56.3913 622.985 56.2968 623.18 56.2732C623.302 56.2496 623.449 56.2732 623.596 56.2732C625.527 56.4859 626.97 58.069 626.946 59.9594Z" fill="#151D38"/>
<path d="M590.953 48.14C590.953 48.3134 590.817 48.4124 590.658 48.4867C590.182 48.7591 589.684 49.0315 589.208 49.2791C589.004 49.3782 588.958 49.4772 589.162 49.6258C589.57 49.923 589.956 50.2449 590.363 50.542C590.477 50.6163 590.567 50.6906 590.658 50.7897C590.771 50.9135 590.771 51.0868 590.681 51.2354C590.59 51.384 590.454 51.4087 590.295 51.3592C590.205 51.3345 590.137 51.2849 590.069 51.2106C589.457 50.7401 588.822 50.2697 588.211 49.7744C587.78 49.4277 587.803 49.1801 588.279 48.9077C588.958 48.5115 589.661 48.14 590.363 47.7686C590.703 47.6448 590.975 47.7686 590.953 48.14Z" fill="#151D38"/>
<path d="M572.042 49.5057C572.112 47.7379 573.269 46.2732 574.912 45.9449C575.097 45.8944 575.282 45.8691 575.467 45.9196C575.606 45.9449 575.698 46.0711 575.698 46.2227C575.722 46.3995 575.652 46.551 575.49 46.6015C575.328 46.652 575.166 46.6773 575.004 46.7025C573.755 46.9803 572.922 47.9905 572.783 49.3542C572.76 49.5057 572.76 49.632 572.76 49.7835C572.737 50.0108 572.644 50.1624 572.413 50.1624C572.181 50.1624 572.089 49.9856 572.066 49.7583C572.042 49.6825 572.042 49.6068 572.042 49.5057Z" fill="#151D38"/>
<path d="M609.255 49.4929C609.255 49.5921 609.255 49.7657 609.231 49.9144C609.183 50.088 609.064 50.1624 608.897 50.1624C608.73 50.1624 608.61 50.0632 608.587 49.8896C608.563 49.7657 608.587 49.6417 608.563 49.5425C608.491 48.0796 607.56 46.9639 606.176 46.6911C606.104 46.6664 606.033 46.6664 605.961 46.6416C605.722 46.592 605.555 46.468 605.603 46.1953C605.651 45.9225 605.865 45.8729 606.08 45.8977C606.892 45.9969 607.584 46.3192 608.181 46.8895C608.849 47.6085 609.207 48.4515 609.255 49.4929Z" fill="#151D38"/>
<path d="M663.341 117.871C662.426 117.845 661.807 117.583 661.337 116.954C661.139 116.718 661.065 116.718 660.867 116.954C660.001 117.976 658.739 118.159 657.725 117.451C657.379 117.216 657.107 116.875 656.909 116.482C656.81 116.272 656.785 116.01 657.032 115.879C657.28 115.748 657.428 115.879 657.552 116.115C657.626 116.272 657.725 116.43 657.849 116.587C658.665 117.504 660.1 117.216 660.545 116.063C660.644 115.801 660.669 115.643 660.348 115.565C659.902 115.434 659.63 115.067 659.333 114.726C659.209 114.595 659.135 114.412 659.111 114.228C659.036 113.861 659.16 113.626 659.531 113.626C660.57 113.599 661.634 113.599 662.673 113.626C663.019 113.626 663.143 113.861 663.044 114.228C662.896 114.831 662.45 115.145 662.005 115.46C661.857 115.565 661.609 115.539 661.56 115.722C661.51 115.958 661.659 116.194 661.807 116.403C662.475 117.373 663.811 117.373 664.504 116.403C664.578 116.298 664.652 116.141 664.727 116.036C664.85 115.853 665.023 115.827 665.197 115.905C665.37 116.01 665.419 116.194 665.345 116.377C665.197 116.744 664.974 117.058 664.677 117.32C664.232 117.687 663.737 117.897 663.341 117.871Z" fill="#151D38"/>
<path d="M671.479 111.167C672.524 111.167 673.309 111.977 673.309 112.996C673.309 114.042 672.472 114.852 671.427 114.826C670.407 114.799 669.623 113.989 669.649 112.944C669.623 111.925 670.433 111.141 671.479 111.167Z" fill="#151D38"/>
<path d="M650.114 114.826C649.102 114.826 648.297 114.047 648.297 113.009C648.297 111.971 649.05 111.192 650.089 111.166C651.153 111.166 651.958 111.945 651.958 112.983C651.932 114.022 651.153 114.826 650.114 114.826Z" fill="#151D38"/>
<path d="M628.983 128.933V137.807H627.107V128.933H628.983ZM632.338 133.959V137.807H630.492V131.152H632.251V132.326H632.329C632.476 131.939 632.723 131.633 633.07 131.407C633.417 131.179 633.837 131.065 634.331 131.065C634.793 131.065 635.196 131.166 635.54 131.368C635.883 131.57 636.15 131.859 636.341 132.235C636.532 132.607 636.627 133.052 636.627 133.569V137.807H634.781V133.899C634.784 133.491 634.68 133.174 634.469 132.945C634.259 132.714 633.968 132.599 633.599 132.599C633.35 132.599 633.131 132.652 632.94 132.759C632.752 132.866 632.605 133.022 632.498 133.227C632.394 133.429 632.341 133.673 632.338 133.959ZM641.089 137.937C640.407 137.937 639.821 137.792 639.33 137.503C638.841 137.212 638.466 136.807 638.203 136.29C637.943 135.773 637.813 135.178 637.813 134.505C637.813 133.823 637.945 133.226 638.207 132.711C638.473 132.194 638.85 131.791 639.338 131.503C639.826 131.211 640.407 131.065 641.08 131.065C641.661 131.065 642.169 131.17 642.605 131.381C643.041 131.592 643.386 131.888 643.641 132.27C643.895 132.651 644.035 133.098 644.061 133.613H642.319C642.27 133.28 642.14 133.013 641.929 132.811C641.721 132.606 641.448 132.503 641.11 132.503C640.824 132.503 640.575 132.581 640.361 132.737C640.15 132.891 639.985 133.114 639.867 133.409C639.748 133.704 639.689 134.06 639.689 134.479C639.689 134.904 639.747 135.265 639.863 135.562C639.981 135.86 640.147 136.087 640.361 136.243C640.575 136.399 640.824 136.477 641.11 136.477C641.321 136.477 641.51 136.433 641.678 136.347C641.848 136.26 641.988 136.134 642.098 135.97C642.211 135.802 642.284 135.601 642.319 135.367H644.061C644.032 135.876 643.893 136.323 643.645 136.71C643.399 137.095 643.06 137.395 642.627 137.612C642.193 137.828 641.681 137.937 641.089 137.937ZM648.249 137.937C647.576 137.937 646.994 137.794 646.503 137.508C646.015 137.219 645.638 136.817 645.373 136.303C645.107 135.786 644.974 135.187 644.974 134.505C644.974 133.818 645.107 133.217 645.373 132.703C645.638 132.186 646.015 131.784 646.503 131.498C646.994 131.209 647.576 131.065 648.249 131.065C648.922 131.065 649.503 131.209 649.991 131.498C650.482 131.784 650.861 132.186 651.126 132.703C651.392 133.217 651.525 133.818 651.525 134.505C651.525 135.187 651.392 135.786 651.126 136.303C650.861 136.817 650.482 137.219 649.991 137.508C649.503 137.794 648.922 137.937 648.249 137.937ZM648.258 136.507C648.564 136.507 648.82 136.42 649.025 136.247C649.23 136.071 649.385 135.831 649.489 135.528C649.595 135.224 649.649 134.879 649.649 134.492C649.649 134.105 649.595 133.76 649.489 133.457C649.385 133.153 649.23 132.914 649.025 132.737C648.82 132.561 648.564 132.473 648.258 132.473C647.949 132.473 647.689 132.561 647.478 132.737C647.27 132.914 647.113 133.153 647.006 133.457C646.902 133.76 646.85 134.105 646.85 134.492C646.85 134.879 646.902 135.224 647.006 135.528C647.113 135.831 647.27 136.071 647.478 136.247C647.689 136.42 647.949 136.507 648.258 136.507ZM652.725 137.807V131.152H654.484V132.326H654.562C654.701 131.936 654.932 131.628 655.255 131.403C655.579 131.178 655.966 131.065 656.417 131.065C656.873 131.065 657.261 131.179 657.582 131.407C657.903 131.633 658.116 131.939 658.223 132.326H658.293C658.428 131.945 658.674 131.64 659.029 131.412C659.387 131.181 659.81 131.065 660.299 131.065C660.92 131.065 661.424 131.263 661.811 131.659C662.201 132.051 662.396 132.609 662.396 133.331V137.807H660.554V133.695C660.554 133.325 660.456 133.048 660.26 132.863C660.063 132.678 659.818 132.586 659.523 132.586C659.188 132.586 658.927 132.693 658.739 132.906C658.551 133.117 658.457 133.396 658.457 133.743V137.807H656.668V133.656C656.668 133.33 656.574 133.07 656.386 132.876C656.201 132.683 655.957 132.586 655.654 132.586C655.449 132.586 655.264 132.638 655.099 132.742C654.938 132.843 654.809 132.986 654.714 133.171C654.618 133.353 654.571 133.566 654.571 133.812V137.807H652.725ZM663.854 137.807V131.152H665.699V137.807H663.854ZM664.781 130.294C664.506 130.294 664.271 130.203 664.074 130.021C663.881 129.836 663.784 129.615 663.784 129.358C663.784 129.104 663.881 128.886 664.074 128.704C664.271 128.519 664.506 128.426 664.781 128.426C665.055 128.426 665.289 128.519 665.483 128.704C665.679 128.886 665.777 129.104 665.777 129.358C665.777 129.615 665.679 129.836 665.483 130.021C665.289 130.203 665.055 130.294 664.781 130.294ZM669.023 133.959V137.807H667.178V131.152H668.937V132.326H669.015C669.162 131.939 669.409 131.633 669.756 131.407C670.102 131.179 670.523 131.065 671.016 131.065C671.479 131.065 671.882 131.166 672.225 131.368C672.569 131.57 672.836 131.859 673.027 132.235C673.217 132.607 673.313 133.052 673.313 133.569V137.807H671.467V133.899C671.47 133.491 671.366 133.174 671.155 132.945C670.944 132.714 670.654 132.599 670.284 132.599C670.036 132.599 669.816 132.652 669.626 132.759C669.438 132.866 669.291 133.022 669.184 133.227C669.08 133.429 669.026 133.673 669.023 133.959ZM677.766 140.441C677.168 140.441 676.655 140.359 676.228 140.194C675.803 140.032 675.465 139.811 675.214 139.531C674.962 139.251 674.799 138.936 674.724 138.587L676.431 138.357C676.483 138.49 676.566 138.614 676.678 138.729C676.791 138.845 676.94 138.937 677.124 139.007C677.312 139.079 677.54 139.115 677.809 139.115C678.211 139.115 678.541 139.017 678.801 138.82C679.064 138.627 679.195 138.302 679.195 137.846V136.628H679.117C679.037 136.813 678.915 136.988 678.754 137.152C678.592 137.317 678.384 137.451 678.13 137.555C677.875 137.659 677.572 137.711 677.22 137.711C676.72 137.711 676.265 137.596 675.855 137.365C675.448 137.131 675.123 136.774 674.88 136.295C674.64 135.812 674.521 135.203 674.521 134.466C674.521 133.712 674.643 133.083 674.889 132.577C675.134 132.072 675.461 131.693 675.868 131.442C676.278 131.191 676.727 131.065 677.215 131.065C677.588 131.065 677.9 131.129 678.151 131.256C678.403 131.38 678.605 131.536 678.758 131.724C678.914 131.908 679.034 132.09 679.117 132.27H679.187V131.152H681.02V137.872C681.02 138.438 680.881 138.911 680.604 139.293C680.326 139.674 679.942 139.96 679.451 140.151C678.963 140.344 678.401 140.441 677.766 140.441ZM677.805 136.325C678.102 136.325 678.353 136.251 678.559 136.104C678.767 135.954 678.925 135.74 679.035 135.463C679.148 135.182 679.204 134.847 679.204 134.457C679.204 134.068 679.149 133.73 679.04 133.444C678.93 133.155 678.771 132.931 678.563 132.772C678.355 132.613 678.102 132.534 677.805 132.534C677.501 132.534 677.246 132.616 677.038 132.781C676.83 132.943 676.672 133.168 676.566 133.457C676.459 133.745 676.405 134.079 676.405 134.457C676.405 134.842 676.459 135.174 676.566 135.454C676.675 135.731 676.833 135.946 677.038 136.1C677.246 136.25 677.501 136.325 677.805 136.325ZM630.612 146.152V147.538H626.605V146.152H630.612ZM627.514 144.557H629.36V150.762C629.36 150.932 629.386 151.065 629.438 151.16C629.49 151.253 629.562 151.318 629.655 151.355C629.75 151.393 629.86 151.412 629.984 151.412C630.071 151.412 630.157 151.404 630.244 151.39C630.331 151.373 630.397 151.36 630.443 151.351L630.734 152.724C630.641 152.753 630.511 152.786 630.344 152.824C630.176 152.864 629.972 152.889 629.733 152.898C629.288 152.915 628.898 152.856 628.563 152.72C628.231 152.584 627.972 152.373 627.787 152.087C627.603 151.801 627.512 151.44 627.514 151.004V144.557ZM631.815 152.807V146.152H633.604V147.313H633.673C633.795 146.9 633.998 146.588 634.284 146.377C634.57 146.163 634.899 146.056 635.272 146.056C635.364 146.056 635.464 146.062 635.571 146.074C635.678 146.085 635.772 146.101 635.853 146.121V147.759C635.766 147.733 635.646 147.71 635.493 147.69C635.34 147.67 635.2 147.659 635.073 147.659C634.801 147.659 634.559 147.719 634.345 147.837C634.134 147.953 633.966 148.114 633.842 148.322C633.721 148.53 633.66 148.77 633.66 149.042V152.807H631.815ZM638.514 152.932C638.089 152.932 637.711 152.859 637.379 152.711C637.047 152.561 636.784 152.34 636.59 152.048C636.4 151.754 636.304 151.387 636.304 150.948C636.304 150.578 636.372 150.268 636.508 150.016C636.644 149.765 636.829 149.563 637.063 149.41C637.296 149.257 637.562 149.141 637.86 149.063C638.16 148.985 638.475 148.93 638.804 148.899C639.191 148.858 639.503 148.821 639.74 148.786C639.977 148.748 640.149 148.694 640.256 148.621C640.363 148.549 640.416 148.442 640.416 148.301V148.275C640.416 148 640.329 147.788 640.156 147.638C639.986 147.488 639.743 147.412 639.428 147.412C639.096 147.412 638.832 147.486 638.635 147.633C638.439 147.778 638.309 147.96 638.245 148.179L636.538 148.041C636.625 147.636 636.795 147.287 637.05 146.992C637.304 146.695 637.632 146.467 638.033 146.308C638.437 146.146 638.905 146.065 639.437 146.065C639.807 146.065 640.16 146.108 640.498 146.195C640.839 146.282 641.141 146.416 641.404 146.598C641.67 146.78 641.879 147.014 642.032 147.3C642.185 147.583 642.262 147.922 642.262 148.318V152.807H640.511V151.884H640.459C640.352 152.092 640.209 152.275 640.03 152.434C639.851 152.59 639.636 152.713 639.385 152.802C639.134 152.889 638.843 152.932 638.514 152.932ZM639.043 151.658C639.314 151.658 639.554 151.605 639.762 151.498C639.97 151.388 640.133 151.241 640.251 151.056C640.37 150.871 640.429 150.662 640.429 150.428V149.722C640.371 149.759 640.292 149.794 640.191 149.826C640.092 149.855 639.981 149.882 639.857 149.908C639.733 149.931 639.609 149.953 639.484 149.973C639.36 149.99 639.248 150.006 639.147 150.021C638.93 150.053 638.741 150.103 638.579 150.172C638.417 150.242 638.292 150.336 638.202 150.454C638.112 150.57 638.068 150.714 638.068 150.887C638.068 151.139 638.159 151.331 638.341 151.464C638.526 151.593 638.759 151.658 639.043 151.658ZM647.272 146.152V147.538H643.165V146.152H647.272ZM644.105 152.807V145.671C644.105 145.188 644.199 144.788 644.387 144.471C644.578 144.153 644.837 143.915 645.167 143.756C645.496 143.597 645.87 143.517 646.289 143.517C646.572 143.517 646.831 143.539 647.064 143.582C647.301 143.626 647.478 143.665 647.593 143.699L647.264 145.086C647.192 145.063 647.102 145.041 646.995 145.021C646.891 145.001 646.784 144.991 646.675 144.991C646.403 144.991 646.214 145.054 646.107 145.181C646 145.305 645.947 145.48 645.947 145.705V152.807H644.105ZM651.979 146.152V147.538H647.871V146.152H651.979ZM648.812 152.807V145.671C648.812 145.188 648.905 144.788 649.093 144.471C649.284 144.153 649.544 143.915 649.873 143.756C650.202 143.597 650.576 143.517 650.995 143.517C651.278 143.517 651.537 143.539 651.771 143.582C652.008 143.626 652.184 143.665 652.299 143.699L651.97 145.086C651.898 145.063 651.808 145.041 651.701 145.021C651.598 145.001 651.491 144.991 651.381 144.991C651.109 144.991 650.92 145.054 650.813 145.181C650.706 145.305 650.653 145.48 650.653 145.705V152.807H648.812ZM653.106 152.807V146.152H654.952V152.807H653.106ZM654.034 145.294C653.759 145.294 653.524 145.203 653.327 145.021C653.134 144.836 653.037 144.615 653.037 144.358C653.037 144.104 653.134 143.886 653.327 143.704C653.524 143.519 653.759 143.426 654.034 143.426C654.308 143.426 654.542 143.519 654.735 143.704C654.932 143.886 655.03 144.104 655.03 144.358C655.03 144.615 654.932 144.836 654.735 145.021C654.542 145.203 654.308 145.294 654.034 145.294ZM659.437 152.937C658.756 152.937 658.169 152.792 657.678 152.503C657.19 152.212 656.815 151.807 656.552 151.29C656.292 150.773 656.162 150.178 656.162 149.505C656.162 148.823 656.293 148.226 656.556 147.711C656.822 147.194 657.199 146.791 657.687 146.503C658.175 146.211 658.756 146.065 659.429 146.065C660.009 146.065 660.518 146.17 660.954 146.381C661.39 146.592 661.735 146.888 661.989 147.27C662.244 147.651 662.384 148.098 662.41 148.613H660.668C660.619 148.28 660.489 148.013 660.278 147.811C660.07 147.606 659.797 147.503 659.459 147.503C659.173 147.503 658.923 147.581 658.71 147.737C658.499 147.891 658.334 148.114 658.216 148.409C658.097 148.704 658.038 149.06 658.038 149.479C658.038 149.904 658.096 150.265 658.211 150.562C658.33 150.86 658.496 151.087 658.71 151.243C658.923 151.399 659.173 151.477 659.459 151.477C659.67 151.477 659.859 151.433 660.027 151.347C660.197 151.26 660.337 151.134 660.447 150.97C660.56 150.802 660.633 150.601 660.668 150.367H662.41C662.381 150.876 662.242 151.323 661.994 151.71C661.748 152.095 661.409 152.395 660.976 152.612C660.542 152.828 660.03 152.937 659.437 152.937Z" fill="#7DA159"/>
</g>
<path d="M615.965 125.319L615.936 121.354L608.006 121.412L608.035 125.377L615.965 125.319ZM612.61 208.837L635.213 169.019L589.427 169.353L612.61 208.837ZM608.035 125.377L608.384 173.18L616.314 173.122L615.965 125.319L608.035 125.377Z" fill="#B8E986"/>
<path d="M909.523 96.9922C909.159 97.8307 908.685 98.7969 908.102 99.8906C907.555 100.984 906.898 102.023 906.133 103.008C905.404 103.992 904.547 104.831 903.562 105.523C902.578 106.216 901.484 106.562 900.281 106.562C899.734 106.562 899.297 106.508 898.969 106.398C898.677 106.253 898.404 106.052 898.148 105.797C897.93 105.542 897.711 105.232 897.492 104.867C897.31 104.503 897.073 104.102 896.781 103.664C896.672 101.878 896.599 99.9635 896.562 97.9219C896.562 95.8438 896.672 93.7839 896.891 91.7422C897.109 89.6641 897.474 87.7135 897.984 85.8906C898.531 84.0677 899.279 82.5182 900.227 81.2422C901.211 79.9661 902.432 79.0547 903.891 78.5078C905.349 77.9609 907.117 77.9245 909.195 78.3984C909.305 77.3776 909.323 76.0104 909.25 74.2969C909.177 72.5833 909.068 70.7786 908.922 68.8828C908.776 66.987 908.63 65.1641 908.484 63.4141C908.339 61.6276 908.247 60.1693 908.211 59.0391C908.211 58.7109 908.357 58.474 908.648 58.3281C908.977 58.1458 909.323 58.0365 909.688 58C910.052 57.9635 910.398 57.9635 910.727 58C911.091 58.0365 911.328 58.0911 911.438 58.1641C911.365 62.6484 911.346 67.0599 911.383 71.3984C911.419 75.7005 911.456 80.0026 911.492 84.3047C911.565 88.5703 911.638 92.8177 911.711 97.0469C911.784 101.276 911.82 105.505 911.82 109.734C911.82 110.135 911.784 110.555 911.711 110.992C911.674 111.466 911.365 111.703 910.781 111.703C910.562 111.703 910.344 111.63 910.125 111.484C909.906 111.375 909.76 111.193 909.688 110.938L909.523 96.9922ZM907.172 81.1328C906.042 81.0599 904.984 81.5156 904 82.5C903.052 83.4479 902.214 84.6875 901.484 86.2188C900.792 87.75 900.227 89.4453 899.789 91.3047C899.352 93.1276 899.078 94.8958 898.969 96.6094C898.896 98.2865 899.005 99.7812 899.297 101.094C899.625 102.406 900.19 103.299 900.992 103.773C901.794 103.773 902.542 103.464 903.234 102.844C903.927 102.188 904.565 101.367 905.148 100.383C905.732 99.3984 906.242 98.3047 906.68 97.1016C907.117 95.862 907.482 94.6771 907.773 93.5469C908.102 92.4167 908.339 91.3958 908.484 90.4844C908.667 89.5365 908.758 88.8255 908.758 88.3516C908.758 87.987 908.776 87.4036 908.812 86.6016C908.849 85.7995 908.831 84.9974 908.758 84.1953C908.685 83.3932 908.521 82.6823 908.266 82.0625C908.047 81.4427 907.682 81.1328 907.172 81.1328ZM916.852 95.1875C916.669 95.224 916.396 95.2786 916.031 95.3516C915.667 95.4245 915.284 95.4427 914.883 95.4062C914.482 95.3698 914.135 95.2604 913.844 95.0781C913.516 94.8958 913.352 94.5859 913.352 94.1484C913.352 93.8932 913.406 93.7109 913.516 93.6016C913.625 93.4922 913.807 93.3281 914.062 93.1094C914.865 92.4531 915.539 91.6146 916.086 90.5938C916.669 89.5365 917.198 88.4245 917.672 87.2578C918.146 86.0547 918.638 84.8698 919.148 83.7031C919.695 82.5 920.315 81.4245 921.008 80.4766C921.701 79.5286 922.557 78.763 923.578 78.1797C924.599 77.5964 925.857 77.3229 927.352 77.3594C927.971 77.3594 928.664 77.5052 929.43 77.7969C930.195 78.0885 930.906 78.4896 931.562 79C932.219 79.474 932.766 80.0573 933.203 80.75C933.641 81.4427 933.859 82.2083 933.859 83.0469C934.042 83.3385 933.859 83.7578 933.312 84.3047C932.802 84.8516 932.091 85.4531 931.18 86.1094C930.268 86.7292 929.229 87.3854 928.062 88.0781C926.932 88.7344 925.839 89.3542 924.781 89.9375C923.724 90.5208 922.794 91.0312 921.992 91.4688C921.19 91.9062 920.661 92.2344 920.406 92.4531C920.224 92.8177 920.078 93.237 919.969 93.7109C919.859 94.1849 919.768 94.6406 919.695 95.0781C919.659 95.4792 919.622 95.862 919.586 96.2266C919.586 96.5547 919.586 96.8099 919.586 96.9922C919.586 97.6849 919.549 98.4505 919.477 99.2891C919.44 100.128 919.477 100.93 919.586 101.695C919.732 102.424 920.042 103.044 920.516 103.555C920.99 104.029 921.792 104.266 922.922 104.266C924.125 104.266 925.255 103.974 926.312 103.391C927.37 102.771 928.354 102.023 929.266 101.148C930.177 100.273 930.997 99.3255 931.727 98.3047C932.492 97.2839 933.167 96.3359 933.75 95.4609C934.37 94.5495 934.917 93.8021 935.391 93.2188C935.865 92.6354 936.266 92.3438 936.594 92.3438C936.958 92.3438 937.341 92.4167 937.742 92.5625C938.18 92.6719 938.398 92.9635 938.398 93.4375C938.398 94.0938 938.125 94.8776 937.578 95.7891C937.068 96.7005 936.375 97.6667 935.5 98.6875C934.661 99.7083 933.677 100.729 932.547 101.75C931.453 102.734 930.341 103.628 929.211 104.43C928.081 105.195 926.969 105.833 925.875 106.344C924.781 106.818 923.815 107.055 922.977 107.055C921.336 107.055 920.096 106.654 919.258 105.852C918.419 105.049 917.818 104.047 917.453 102.844C917.125 101.641 916.943 100.365 916.906 99.0156C916.906 97.6302 916.888 96.3542 916.852 95.1875ZM926.914 80.4219C926.294 80.4219 925.638 80.7318 924.945 81.3516C924.253 81.9349 923.596 82.6641 922.977 83.5391C922.393 84.3776 921.901 85.2526 921.5 86.1641C921.135 87.0391 920.953 87.7682 920.953 88.3516C921.5 88.3516 922.284 88.151 923.305 87.75C924.362 87.3125 925.401 86.7839 926.422 86.1641C927.443 85.5443 928.336 84.888 929.102 84.1953C929.867 83.5026 930.25 82.8464 930.25 82.2266C930.25 81.8984 930.122 81.625 929.867 81.4062C929.612 81.1875 929.302 81.0052 928.938 80.8594C928.609 80.7135 928.263 80.6042 927.898 80.5312C927.534 80.4583 927.206 80.4219 926.914 80.4219ZM953.109 96.9922C952.745 97.8307 952.271 98.7969 951.688 99.8906C951.141 100.984 950.484 102.023 949.719 103.008C948.99 103.992 948.133 104.831 947.148 105.523C946.164 106.216 945.07 106.562 943.867 106.562C943.32 106.562 942.883 106.508 942.555 106.398C942.263 106.253 941.99 106.052 941.734 105.797C941.516 105.542 941.297 105.232 941.078 104.867C940.896 104.503 940.659 104.102 940.367 103.664C940.258 101.878 940.185 99.9635 940.148 97.9219C940.148 95.8438 940.258 93.7839 940.477 91.7422C940.695 89.6641 941.06 87.7135 941.57 85.8906C942.117 84.0677 942.865 82.5182 943.812 81.2422C944.797 79.9661 946.018 79.0547 947.477 78.5078C948.935 77.9609 950.703 77.9245 952.781 78.3984C952.891 77.3776 952.909 76.0104 952.836 74.2969C952.763 72.5833 952.654 70.7786 952.508 68.8828C952.362 66.987 952.216 65.1641 952.07 63.4141C951.924 61.6276 951.833 60.1693 951.797 59.0391C951.797 58.7109 951.943 58.474 952.234 58.3281C952.562 58.1458 952.909 58.0365 953.273 58C953.638 57.9635 953.984 57.9635 954.312 58C954.677 58.0365 954.914 58.0911 955.023 58.1641C954.951 62.6484 954.932 67.0599 954.969 71.3984C955.005 75.7005 955.042 80.0026 955.078 84.3047C955.151 88.5703 955.224 92.8177 955.297 97.0469C955.37 101.276 955.406 105.505 955.406 109.734C955.406 110.135 955.37 110.555 955.297 110.992C955.26 111.466 954.951 111.703 954.367 111.703C954.148 111.703 953.93 111.63 953.711 111.484C953.492 111.375 953.346 111.193 953.273 110.938L953.109 96.9922ZM950.758 81.1328C949.628 81.0599 948.57 81.5156 947.586 82.5C946.638 83.4479 945.799 84.6875 945.07 86.2188C944.378 87.75 943.812 89.4453 943.375 91.3047C942.938 93.1276 942.664 94.8958 942.555 96.6094C942.482 98.2865 942.591 99.7812 942.883 101.094C943.211 102.406 943.776 103.299 944.578 103.773C945.38 103.773 946.128 103.464 946.82 102.844C947.513 102.188 948.151 101.367 948.734 100.383C949.318 99.3984 949.828 98.3047 950.266 97.1016C950.703 95.862 951.068 94.6771 951.359 93.5469C951.688 92.4167 951.924 91.3958 952.07 90.4844C952.253 89.5365 952.344 88.8255 952.344 88.3516C952.344 87.987 952.362 87.4036 952.398 86.6016C952.435 85.7995 952.417 84.9974 952.344 84.1953C952.271 83.3932 952.107 82.6823 951.852 82.0625C951.633 81.4427 951.268 81.1328 950.758 81.1328ZM959.727 105.906C959.727 103.536 959.672 101.039 959.562 98.4141C959.49 95.7891 959.398 93.1458 959.289 90.4844C959.216 87.7865 959.198 85.1432 959.234 82.5547C959.271 79.9661 959.435 77.5417 959.727 75.2812C959.799 75.2448 959.964 75.2266 960.219 75.2266C960.51 75.1901 960.711 75.1719 960.82 75.1719C961.331 75.1719 961.732 75.263 962.023 75.4453C962.352 75.5911 962.516 75.9375 962.516 76.4844C962.516 78.6354 962.497 80.987 962.461 83.5391C962.461 86.0547 962.443 88.625 962.406 91.25C962.406 93.8385 962.406 96.4089 962.406 98.9609C962.406 101.513 962.443 103.828 962.516 105.906C962.552 106.526 962.424 106.927 962.133 107.109C961.878 107.328 961.549 107.438 961.148 107.438C960.711 107.438 960.346 107.328 960.055 107.109C959.763 106.927 959.654 106.526 959.727 105.906ZM958.523 66.75C958.523 66.3125 958.669 66.0208 958.961 65.875C959.253 65.7292 959.581 65.6562 959.945 65.6562C960.674 65.6562 961.13 65.8932 961.312 66.3672C961.495 66.8411 961.586 67.388 961.586 68.0078C961.367 68.4089 961.094 68.7005 960.766 68.8828C960.438 69.0286 960.091 69.0651 959.727 68.9922C959.398 68.8828 959.107 68.6458 958.852 68.2812C958.633 67.9167 958.523 67.4062 958.523 66.75ZM966.289 94.4219C966.398 93.1094 966.508 91.6875 966.617 90.1562C966.727 88.5885 966.891 87.0391 967.109 85.5078C967.365 83.9766 967.674 82.5182 968.039 81.1328C968.44 79.7474 968.951 78.526 969.57 77.4688C970.227 76.375 971.029 75.5182 971.977 74.8984C972.924 74.2422 974.073 73.9323 975.422 73.9688C976.333 73.9688 977.026 74.3516 977.5 75.1172C978.01 75.8828 978.357 76.8125 978.539 77.9062C978.758 79 978.867 80.1302 978.867 81.2969C978.904 82.4271 978.922 83.3568 978.922 84.0859C978.193 84.0859 977.591 83.776 977.117 83.1562C976.643 82.5 976.279 81.7526 976.023 80.9141C975.768 80.0755 975.586 79.2552 975.477 78.4531L975.312 76.8672C975.276 76.8672 975.203 76.8672 975.094 76.8672C975.021 76.8307 974.966 76.8125 974.93 76.8125C974.31 76.8125 973.727 77.1589 973.18 77.8516C972.669 78.5443 972.177 79.4375 971.703 80.5312C971.266 81.5885 970.883 82.7917 970.555 84.1406C970.227 85.4531 969.953 86.7474 969.734 88.0234C969.516 89.2995 969.333 90.4844 969.188 91.5781C969.078 92.6354 969.023 93.4557 969.023 94.0391C968.951 94.987 968.951 96.026 969.023 97.1562C969.096 98.2865 969.315 99.3438 969.68 100.328C970.044 101.312 970.555 102.169 971.211 102.898C971.867 103.591 972.742 104.065 973.836 104.32C975.185 104.32 976.279 104.138 977.117 103.773C977.956 103.409 978.63 102.917 979.141 102.297C979.688 101.677 980.107 100.984 980.398 100.219C980.69 99.4531 980.964 98.6693 981.219 97.8672C981.51 97.0286 981.802 96.2083 982.094 95.4062C982.385 94.6042 982.805 93.8568 983.352 93.1641C983.789 93.0547 984.099 93.0729 984.281 93.2188C984.5 93.3281 984.646 93.4922 984.719 93.7109C984.792 93.9297 984.828 94.1849 984.828 94.4766V95.0781C984.828 96.6094 984.573 98.0859 984.062 99.5078C983.552 100.93 982.805 102.206 981.82 103.336C980.836 104.43 979.651 105.323 978.266 106.016C976.917 106.672 975.367 107 973.617 107C972.159 107 970.938 106.544 969.953 105.633C969.005 104.685 968.258 103.555 967.711 102.242C967.201 100.93 966.836 99.5625 966.617 98.1406C966.398 96.6823 966.289 95.4427 966.289 94.4219ZM1003.7 105.578C1003.51 104.63 1003.35 103.5 1003.2 102.188C1003.09 100.839 1002.97 99.4896 1002.82 98.1406C1002.67 96.7552 1002.49 95.4609 1002.27 94.2578C1002.09 93.0547 1001.8 92.0703 1001.4 91.3047C999.539 95.0964 997.898 98.0859 996.477 100.273C995.055 102.424 993.797 103.974 992.703 104.922C991.646 105.833 990.753 106.271 990.023 106.234C989.294 106.198 988.693 105.87 988.219 105.25C987.745 104.63 987.398 103.846 987.18 102.898C986.997 101.914 986.87 101.003 986.797 100.164C986.797 99.362 986.979 98.2318 987.344 96.7734C987.708 95.3151 988.201 93.7292 988.82 92.0156C989.44 90.2656 990.169 88.4974 991.008 86.7109C991.883 84.9245 992.812 83.3021 993.797 81.8438C994.781 80.3854 995.802 79.1823 996.859 78.2344C997.917 77.2865 998.974 76.8125 1000.03 76.8125C1001.6 76.5573 1002.75 76.9036 1003.48 77.8516C1004.24 78.763 1004.39 80.3125 1003.91 82.5C1003.91 84.9062 1004.01 86.9661 1004.19 88.6797C1004.41 90.3932 1004.62 92.0339 1004.84 93.6016C1005.1 95.1693 1005.32 96.8099 1005.5 98.5234C1005.72 100.237 1005.83 102.297 1005.83 104.703C1005.83 105.141 1005.77 105.523 1005.66 105.852C1005.59 106.143 1005.15 106.289 1004.35 106.289C1004.24 106.289 1004.1 106.198 1003.91 106.016C1003.77 105.833 1003.7 105.688 1003.7 105.578ZM1000.74 81.1328C1000.34 80.5495 999.794 80.4948 999.102 80.9688C998.409 81.4427 997.68 82.2266 996.914 83.3203C996.148 84.4141 995.365 85.7266 994.562 87.2578C993.76 88.7891 993.013 90.3385 992.32 91.9062C991.628 93.474 991.026 94.9688 990.516 96.3906C990.005 97.776 989.659 98.9245 989.477 99.8359C989.477 101.148 989.677 101.896 990.078 102.078C990.479 102.224 990.971 102.005 991.555 101.422C992.138 100.839 992.794 100 993.523 98.9062C994.289 97.8125 995.018 96.6458 995.711 95.4062C996.44 94.1667 997.115 92.9635 997.734 91.7969C998.391 90.6302 998.901 89.6823 999.266 88.9531C999.594 88.1875 999.849 87.4766 1000.03 86.8203C1000.21 86.1641 1000.36 85.5443 1000.47 84.9609C1000.61 84.3411 1000.69 83.7214 1000.69 83.1016C1000.72 82.4818 1000.74 81.8255 1000.74 81.1328ZM1010.15 83.6484C1009.78 83.8307 1009.44 84.0312 1009.11 84.25C1008.82 84.4323 1008.53 84.6146 1008.23 84.7969C1007.94 84.9427 1007.65 85.0521 1007.36 85.125C1007.07 85.1979 1006.76 85.1979 1006.43 85.125C1006.21 85.125 1006.03 84.9974 1005.88 84.7422C1005.74 84.4505 1005.63 84.1406 1005.55 83.8125C1005.45 83.4479 1005.37 83.1016 1005.34 82.7734C1005.3 82.4089 1005.3 82.1354 1005.34 81.9531L1010.59 78.9453L1010.91 64.9453C1010.99 64.4714 1011.28 64.2891 1011.79 64.3984C1012.3 64.4714 1012.83 64.5807 1013.38 64.7266C1013.45 64.7266 1013.56 64.763 1013.7 64.8359C1013.89 64.8724 1014.01 64.9089 1014.09 64.9453C1014.01 65.9297 1013.92 67.0052 1013.81 68.1719C1013.74 69.3021 1013.67 70.4505 1013.59 71.6172C1013.52 72.7474 1013.47 73.8594 1013.43 74.9531C1013.43 76.0469 1013.48 77.0312 1013.59 77.9062L1021.8 75.6094C1021.94 75.5729 1022.05 75.6823 1022.12 75.9375C1022.23 76.1562 1022.33 76.4297 1022.4 76.7578C1022.51 77.0859 1022.58 77.4141 1022.62 77.7422C1022.65 78.0703 1022.67 78.2344 1022.67 78.2344L1013.38 82.1719C1013.38 82.5 1013.39 83.2839 1013.43 84.5234C1013.5 85.763 1013.58 87.2396 1013.65 88.9531C1013.72 90.6302 1013.79 92.4531 1013.87 94.4219C1013.94 96.3542 1014.01 98.1589 1014.09 99.8359C1014.16 101.513 1014.21 102.99 1014.25 104.266C1014.29 105.505 1014.3 106.289 1014.3 106.617C1014.23 107.711 1013.9 108.258 1013.32 108.258C1012.77 108.258 1012.17 107.984 1011.52 107.438L1010.15 83.6484ZM1025.3 95.1875C1025.11 95.224 1024.84 95.2786 1024.48 95.3516C1024.11 95.4245 1023.73 95.4427 1023.33 95.4062C1022.93 95.3698 1022.58 95.2604 1022.29 95.0781C1021.96 94.8958 1021.8 94.5859 1021.8 94.1484C1021.8 93.8932 1021.85 93.7109 1021.96 93.6016C1022.07 93.4922 1022.25 93.3281 1022.51 93.1094C1023.31 92.4531 1023.98 91.6146 1024.53 90.5938C1025.11 89.5365 1025.64 88.4245 1026.12 87.2578C1026.59 86.0547 1027.08 84.8698 1027.59 83.7031C1028.14 82.5 1028.76 81.4245 1029.45 80.4766C1030.15 79.5286 1031 78.763 1032.02 78.1797C1033.04 77.5964 1034.3 77.3229 1035.8 77.3594C1036.42 77.3594 1037.11 77.5052 1037.88 77.7969C1038.64 78.0885 1039.35 78.4896 1040.01 79C1040.66 79.474 1041.21 80.0573 1041.65 80.75C1042.09 81.4427 1042.3 82.2083 1042.3 83.0469C1042.49 83.3385 1042.3 83.7578 1041.76 84.3047C1041.25 84.8516 1040.54 85.4531 1039.62 86.1094C1038.71 86.7292 1037.67 87.3854 1036.51 88.0781C1035.38 88.7344 1034.28 89.3542 1033.23 89.9375C1032.17 90.5208 1031.24 91.0312 1030.44 91.4688C1029.64 91.9062 1029.11 92.2344 1028.85 92.4531C1028.67 92.8177 1028.52 93.237 1028.41 93.7109C1028.3 94.1849 1028.21 94.6406 1028.14 95.0781C1028.1 95.4792 1028.07 95.862 1028.03 96.2266C1028.03 96.5547 1028.03 96.8099 1028.03 96.9922C1028.03 97.6849 1027.99 98.4505 1027.92 99.2891C1027.89 100.128 1027.92 100.93 1028.03 101.695C1028.18 102.424 1028.49 103.044 1028.96 103.555C1029.43 104.029 1030.24 104.266 1031.37 104.266C1032.57 104.266 1033.7 103.974 1034.76 103.391C1035.82 102.771 1036.8 102.023 1037.71 101.148C1038.62 100.273 1039.44 99.3255 1040.17 98.3047C1040.94 97.2839 1041.61 96.3359 1042.2 95.4609C1042.82 94.5495 1043.36 93.8021 1043.84 93.2188C1044.31 92.6354 1044.71 92.3438 1045.04 92.3438C1045.4 92.3438 1045.79 92.4167 1046.19 92.5625C1046.62 92.6719 1046.84 92.9635 1046.84 93.4375C1046.84 94.0938 1046.57 94.8776 1046.02 95.7891C1045.51 96.7005 1044.82 97.6667 1043.95 98.6875C1043.11 99.7083 1042.12 100.729 1040.99 101.75C1039.9 102.734 1038.79 103.628 1037.66 104.43C1036.53 105.195 1035.41 105.833 1034.32 106.344C1033.23 106.818 1032.26 107.055 1031.42 107.055C1029.78 107.055 1028.54 106.654 1027.7 105.852C1026.86 105.049 1026.26 104.047 1025.9 102.844C1025.57 101.641 1025.39 100.365 1025.35 99.0156C1025.35 97.6302 1025.33 96.3542 1025.3 95.1875ZM1035.36 80.4219C1034.74 80.4219 1034.08 80.7318 1033.39 81.3516C1032.7 81.9349 1032.04 82.6641 1031.42 83.5391C1030.84 84.3776 1030.35 85.2526 1029.95 86.1641C1029.58 87.0391 1029.4 87.7682 1029.4 88.3516C1029.95 88.3516 1030.73 88.151 1031.75 87.75C1032.81 87.3125 1033.85 86.7839 1034.87 86.1641C1035.89 85.5443 1036.78 84.888 1037.55 84.1953C1038.31 83.5026 1038.7 82.8464 1038.7 82.2266C1038.7 81.8984 1038.57 81.625 1038.31 81.4062C1038.06 81.1875 1037.75 81.0052 1037.38 80.8594C1037.05 80.7135 1036.71 80.6042 1036.34 80.5312C1035.98 80.4583 1035.65 80.4219 1035.36 80.4219ZM1061.55 96.9922C1061.19 97.8307 1060.72 98.7969 1060.13 99.8906C1059.59 100.984 1058.93 102.023 1058.16 103.008C1057.43 103.992 1056.58 104.831 1055.59 105.523C1054.61 106.216 1053.52 106.562 1052.31 106.562C1051.77 106.562 1051.33 106.508 1051 106.398C1050.71 106.253 1050.43 106.052 1050.18 105.797C1049.96 105.542 1049.74 105.232 1049.52 104.867C1049.34 104.503 1049.1 104.102 1048.81 103.664C1048.7 101.878 1048.63 99.9635 1048.59 97.9219C1048.59 95.8438 1048.7 93.7839 1048.92 91.7422C1049.14 89.6641 1049.51 87.7135 1050.02 85.8906C1050.56 84.0677 1051.31 82.5182 1052.26 81.2422C1053.24 79.9661 1054.46 79.0547 1055.92 78.5078C1057.38 77.9609 1059.15 77.9245 1061.23 78.3984C1061.34 77.3776 1061.35 76.0104 1061.28 74.2969C1061.21 72.5833 1061.1 70.7786 1060.95 68.8828C1060.81 66.987 1060.66 65.1641 1060.52 63.4141C1060.37 61.6276 1060.28 60.1693 1060.24 59.0391C1060.24 58.7109 1060.39 58.474 1060.68 58.3281C1061.01 58.1458 1061.35 58.0365 1061.72 58C1062.08 57.9635 1062.43 57.9635 1062.76 58C1063.12 58.0365 1063.36 58.0911 1063.47 58.1641C1063.4 62.6484 1063.38 67.0599 1063.41 71.3984C1063.45 75.7005 1063.49 80.0026 1063.52 84.3047C1063.6 88.5703 1063.67 92.8177 1063.74 97.0469C1063.82 101.276 1063.85 105.505 1063.85 109.734C1063.85 110.135 1063.82 110.555 1063.74 110.992C1063.71 111.466 1063.4 111.703 1062.81 111.703C1062.59 111.703 1062.38 111.63 1062.16 111.484C1061.94 111.375 1061.79 111.193 1061.72 110.938L1061.55 96.9922ZM1059.2 81.1328C1058.07 81.0599 1057.02 81.5156 1056.03 82.5C1055.08 83.4479 1054.24 84.6875 1053.52 86.2188C1052.82 87.75 1052.26 89.4453 1051.82 91.3047C1051.38 93.1276 1051.11 94.8958 1051 96.6094C1050.93 98.2865 1051.04 99.7812 1051.33 101.094C1051.66 102.406 1052.22 103.299 1053.02 103.773C1053.83 103.773 1054.57 103.464 1055.27 102.844C1055.96 102.188 1056.6 101.367 1057.18 100.383C1057.76 99.3984 1058.27 98.3047 1058.71 97.1016C1059.15 95.862 1059.51 94.6771 1059.8 93.5469C1060.13 92.4167 1060.37 91.3958 1060.52 90.4844C1060.7 89.5365 1060.79 88.8255 1060.79 88.3516C1060.79 87.987 1060.81 87.4036 1060.84 86.6016C1060.88 85.7995 1060.86 84.9974 1060.79 84.1953C1060.72 83.3932 1060.55 82.6823 1060.3 82.0625C1060.08 81.4427 1059.71 81.1328 1059.2 81.1328Z" fill="black"/>
<path d="M1014.96 220.916C1014.36 221.488 1014.34 222.438 1014.92 223.037L1024.24 232.795C1024.82 233.393 1025.77 233.415 1026.37 232.842C1026.96 232.27 1026.99 231.32 1026.41 230.721L1018.12 222.048L1026.79 213.755C1027.39 213.183 1027.41 212.233 1026.84 211.634C1026.27 211.036 1025.32 211.014 1024.72 211.587L1014.96 220.916ZM1087.94 87.4989C1100.31 87.9746 1113.06 96.5878 1122.51 109.54C1131.93 122.457 1137.85 139.429 1136.75 156.152C1135.66 172.812 1127.59 189.316 1108.84 201.46C1090.03 213.641 1060.37 221.497 1016.03 220.5L1015.97 223.5C1060.63 224.503 1090.97 216.609 1110.47 203.978C1130.03 191.309 1138.59 173.938 1139.75 156.348C1140.9 138.821 1134.7 121.168 1124.93 107.772C1115.19 94.4122 1101.69 85.0254 1088.06 84.5011L1087.94 87.4989Z" fill="black"/>
<defs>
<clipPath id="clip0_4_1452">
<rect width="158" height="139.089" fill="white" transform="translate(533 16)"/>
</clipPath>
</defs>
</svg>
