<svg width="1200" height="900" viewBox="0 0 1200 900" fill="none" xmlns="http://www.w3.org/2000/svg">
<rect width="1200" height="900" fill="white"/>
<path d="M77.321 369V296.273H106.014C111.507 296.273 116.194 297.255 120.077 299.22C123.983 301.161 126.954 303.92 128.99 307.494C131.05 311.045 132.08 315.224 132.08 320.03C132.08 324.859 131.038 329.014 128.955 332.494C126.871 335.951 123.853 338.602 119.899 340.449C115.969 342.295 111.211 343.219 105.624 343.219H86.4119V330.861H103.138C106.073 330.861 108.512 330.458 110.453 329.653C112.394 328.848 113.839 327.641 114.786 326.031C115.756 324.421 116.241 322.421 116.241 320.03C116.241 317.615 115.756 315.579 114.786 313.922C113.839 312.265 112.383 311.01 110.418 310.158C108.476 309.282 106.026 308.844 103.067 308.844H92.6974V369H77.321ZM116.597 335.903L134.672 369H117.697L100.013 335.903H116.597ZM164.009 370.065C158.399 370.065 153.569 368.929 149.521 366.656C145.496 364.36 142.395 361.116 140.217 356.926C138.039 352.712 136.95 347.729 136.95 341.976C136.95 336.365 138.039 331.441 140.217 327.203C142.395 322.965 145.461 319.663 149.414 317.295C153.392 314.928 158.055 313.744 163.406 313.744C167.004 313.744 170.354 314.324 173.455 315.484C176.58 316.621 179.303 318.337 181.623 320.634C183.967 322.93 185.79 325.818 187.092 329.298C188.394 332.755 189.045 336.803 189.045 341.443V345.598H142.987V336.223H174.805C174.805 334.045 174.331 332.116 173.384 330.435C172.437 328.754 171.124 327.44 169.443 326.493C167.785 325.522 165.856 325.037 163.654 325.037C161.358 325.037 159.322 325.57 157.546 326.635C155.794 327.677 154.421 329.085 153.427 330.861C152.433 332.613 151.924 334.566 151.9 336.72V345.634C151.9 348.332 152.397 350.664 153.392 352.629C154.409 354.594 155.842 356.109 157.688 357.175C159.535 358.24 161.725 358.773 164.258 358.773C165.939 358.773 167.478 358.536 168.874 358.062C170.271 357.589 171.467 356.879 172.461 355.932C173.455 354.985 174.213 353.825 174.734 352.452L188.725 353.375C188.015 356.737 186.559 359.672 184.357 362.182C182.179 364.668 179.362 366.609 175.906 368.006C172.473 369.379 168.508 370.065 164.009 370.065ZM241.669 330.009L227.82 330.861C227.583 329.677 227.074 328.612 226.293 327.665C225.511 326.694 224.482 325.925 223.203 325.357C221.948 324.765 220.445 324.469 218.693 324.469C216.349 324.469 214.373 324.966 212.763 325.96C211.153 326.931 210.348 328.233 210.348 329.866C210.348 331.169 210.869 332.269 211.91 333.169C212.952 334.069 214.74 334.791 217.273 335.335L227.145 337.324C232.448 338.413 236.401 340.165 239.006 342.58C241.61 344.994 242.912 348.167 242.912 352.097C242.912 355.671 241.858 358.808 239.751 361.507C237.668 364.206 234.803 366.313 231.158 367.828C227.535 369.32 223.357 370.065 218.622 370.065C211.401 370.065 205.649 368.562 201.364 365.555C197.102 362.525 194.605 358.406 193.871 353.197L208.75 352.416C209.2 354.618 210.289 356.299 212.017 357.459C213.745 358.595 215.959 359.163 218.658 359.163C221.309 359.163 223.44 358.654 225.05 357.636C226.683 356.595 227.512 355.257 227.535 353.624C227.512 352.25 226.932 351.126 225.795 350.25C224.659 349.35 222.907 348.664 220.54 348.19L211.094 346.308C205.767 345.243 201.802 343.396 199.197 340.768C196.617 338.141 195.327 334.791 195.327 330.719C195.327 327.215 196.274 324.196 198.168 321.663C200.085 319.13 202.772 317.177 206.229 315.804C209.709 314.431 213.781 313.744 218.445 313.744C225.334 313.744 230.755 315.2 234.709 318.112C238.686 321.024 241.006 324.99 241.669 330.009ZM274.451 370.065C268.935 370.065 264.165 368.893 260.14 366.55C256.139 364.182 253.05 360.892 250.872 356.678C248.694 352.44 247.605 347.527 247.605 341.94C247.605 336.306 248.694 331.382 250.872 327.168C253.05 322.93 256.139 319.639 260.14 317.295C264.165 314.928 268.935 313.744 274.451 313.744C279.967 313.744 284.726 314.928 288.727 317.295C292.751 319.639 295.853 322.93 298.031 327.168C300.209 331.382 301.298 336.306 301.298 341.94C301.298 347.527 300.209 352.44 298.031 356.678C295.853 360.892 292.751 364.182 288.727 366.55C284.726 368.893 279.967 370.065 274.451 370.065ZM274.522 358.347C277.032 358.347 279.127 357.636 280.808 356.216C282.489 354.772 283.755 352.807 284.607 350.321C285.483 347.835 285.921 345.006 285.921 341.834C285.921 338.661 285.483 335.832 284.607 333.347C283.755 330.861 282.489 328.896 280.808 327.452C279.127 326.008 277.032 325.286 274.522 325.286C271.989 325.286 269.858 326.008 268.13 327.452C266.426 328.896 265.135 330.861 264.259 333.347C263.407 335.832 262.981 338.661 262.981 341.834C262.981 345.006 263.407 347.835 264.259 350.321C265.135 352.807 266.426 354.772 268.13 356.216C269.858 357.636 271.989 358.347 274.522 358.347ZM343.481 345.776V314.455H358.609V369H344.085V359.092H343.517C342.286 362.288 340.238 364.857 337.374 366.798C334.533 368.74 331.064 369.71 326.969 369.71C323.323 369.71 320.115 368.882 317.345 367.224C314.575 365.567 312.409 363.212 310.847 360.158C309.308 357.104 308.526 353.446 308.503 349.185V314.455H323.631V346.486C323.654 349.705 324.518 352.25 326.223 354.121C327.928 355.991 330.212 356.926 333.077 356.926C334.9 356.926 336.604 356.512 338.19 355.683C339.776 354.831 341.055 353.576 342.026 351.919C343.02 350.262 343.505 348.214 343.481 345.776ZM368.078 369V314.455H382.744V323.972H383.313C384.307 320.586 385.976 318.029 388.32 316.301C390.663 314.549 393.362 313.673 396.416 313.673C397.174 313.673 397.991 313.721 398.867 313.815C399.743 313.91 400.512 314.04 401.175 314.206V327.629C400.465 327.416 399.482 327.227 398.227 327.061C396.973 326.895 395.824 326.812 394.783 326.812C392.557 326.812 390.569 327.298 388.817 328.268C387.089 329.215 385.716 330.541 384.698 332.246C383.703 333.95 383.206 335.915 383.206 338.141V369H368.078ZM428.47 370.065C422.883 370.065 418.077 368.882 414.053 366.514C410.052 364.123 406.974 360.809 404.82 356.571C402.689 352.333 401.624 347.456 401.624 341.94C401.624 336.353 402.701 331.453 404.855 327.239C407.033 323.001 410.123 319.698 414.124 317.331C418.125 314.94 422.883 313.744 428.399 313.744C433.158 313.744 437.325 314.608 440.899 316.337C444.474 318.065 447.303 320.491 449.387 323.616C451.47 326.741 452.618 330.411 452.831 334.625H438.556C438.153 331.902 437.088 329.713 435.36 328.055C433.655 326.375 431.418 325.534 428.648 325.534C426.304 325.534 424.256 326.173 422.505 327.452C420.776 328.706 419.427 330.541 418.456 332.956C417.486 335.371 417 338.295 417 341.727C417 345.207 417.474 348.167 418.421 350.605C419.391 353.044 420.753 354.902 422.505 356.18C424.256 357.459 426.304 358.098 428.648 358.098C430.376 358.098 431.927 357.743 433.3 357.033C434.697 356.322 435.845 355.293 436.745 353.943C437.668 352.57 438.272 350.925 438.556 349.007H452.831C452.595 353.174 451.458 356.843 449.422 360.016C447.41 363.164 444.628 365.626 441.077 367.402C437.526 369.178 433.324 370.065 428.47 370.065ZM484.743 370.065C479.133 370.065 474.303 368.929 470.255 366.656C466.23 364.36 463.129 361.116 460.951 356.926C458.773 352.712 457.684 347.729 457.684 341.976C457.684 336.365 458.773 331.441 460.951 327.203C463.129 322.965 466.195 319.663 470.148 317.295C474.125 314.928 478.789 313.744 484.14 313.744C487.738 313.744 491.088 314.324 494.189 315.484C497.314 316.621 500.037 318.337 502.357 320.634C504.701 322.93 506.524 325.818 507.826 329.298C509.128 332.755 509.779 336.803 509.779 341.443V345.598H463.721V336.223H495.539C495.539 334.045 495.065 332.116 494.118 330.435C493.171 328.754 491.857 327.44 490.177 326.493C488.519 325.522 486.59 325.037 484.388 325.037C482.092 325.037 480.056 325.57 478.28 326.635C476.528 327.677 475.155 329.085 474.161 330.861C473.167 332.613 472.658 334.566 472.634 336.72V345.634C472.634 348.332 473.131 350.664 474.125 352.629C475.143 354.594 476.576 356.109 478.422 357.175C480.269 358.24 482.459 358.773 484.992 358.773C486.673 358.773 488.212 358.536 489.608 358.062C491.005 357.589 492.201 356.879 493.195 355.932C494.189 354.985 494.947 353.825 495.468 352.452L509.459 353.375C508.749 356.737 507.293 359.672 505.091 362.182C502.913 364.668 500.096 366.609 496.64 368.006C493.207 369.379 489.241 370.065 484.743 370.065ZM77.0369 453V398.455H91.4545V408.078H92.0938C93.2301 404.882 95.1241 402.361 97.7756 400.514C100.427 398.668 103.599 397.744 107.293 397.744C111.033 397.744 114.217 398.679 116.845 400.55C119.473 402.396 121.225 404.906 122.101 408.078H122.669C123.782 404.953 125.794 402.455 128.706 400.585C131.642 398.691 135.11 397.744 139.111 397.744C144.201 397.744 148.332 399.366 151.504 402.609C154.7 405.829 156.298 410.398 156.298 416.317V453H141.206V419.3C141.206 416.269 140.401 413.997 138.791 412.482C137.181 410.966 135.169 410.209 132.754 410.209C130.008 410.209 127.866 411.085 126.327 412.837C124.788 414.565 124.018 416.849 124.018 419.69V453H109.352V418.98C109.352 416.305 108.583 414.174 107.044 412.588C105.529 411.002 103.528 410.209 101.043 410.209C99.3617 410.209 97.8466 410.635 96.4972 411.487C95.1714 412.316 94.1179 413.488 93.3366 415.003C92.5554 416.494 92.1648 418.246 92.1648 420.259V453H77.0369ZM181.17 454.03C177.69 454.03 174.589 453.426 171.866 452.219C169.144 450.988 166.989 449.177 165.403 446.786C163.841 444.371 163.059 441.364 163.059 437.766C163.059 434.735 163.616 432.19 164.729 430.131C165.841 428.071 167.356 426.414 169.274 425.159C171.192 423.904 173.37 422.957 175.808 422.318C178.27 421.679 180.851 421.229 183.55 420.969C186.722 420.637 189.279 420.33 191.22 420.045C193.161 419.738 194.57 419.288 195.446 418.696C196.322 418.104 196.76 417.228 196.76 416.068V415.855C196.76 413.606 196.05 411.866 194.629 410.635C193.232 409.404 191.244 408.788 188.663 408.788C185.941 408.788 183.774 409.392 182.165 410.599C180.555 411.783 179.489 413.275 178.969 415.074L164.977 413.938C165.687 410.623 167.084 407.759 169.167 405.344C171.251 402.905 173.938 401.035 177.229 399.733C180.543 398.407 184.378 397.744 188.734 397.744C191.764 397.744 194.665 398.099 197.434 398.81C200.228 399.52 202.702 400.621 204.856 402.112C207.034 403.604 208.751 405.521 210.005 407.865C211.26 410.185 211.888 412.967 211.888 416.21V453H197.541V445.436H197.115C196.239 447.141 195.067 448.644 193.599 449.946C192.131 451.224 190.368 452.231 188.308 452.964C186.248 453.675 183.869 454.03 181.17 454.03ZM185.503 443.589C187.728 443.589 189.693 443.152 191.398 442.276C193.102 441.376 194.44 440.169 195.41 438.653C196.381 437.138 196.866 435.422 196.866 433.504V427.716C196.393 428.024 195.742 428.308 194.913 428.568C194.108 428.805 193.197 429.03 192.179 429.243C191.161 429.432 190.143 429.61 189.125 429.776C188.107 429.918 187.184 430.048 186.355 430.166C184.579 430.427 183.029 430.841 181.703 431.409C180.377 431.977 179.347 432.747 178.613 433.717C177.88 434.664 177.513 435.848 177.513 437.268C177.513 439.328 178.258 440.902 179.75 441.991C181.265 443.057 183.183 443.589 185.503 443.589ZM236.12 421.466V453H220.993V398.455H235.41V408.078H236.049C237.257 404.906 239.281 402.396 242.122 400.55C244.963 398.679 248.407 397.744 252.456 397.744C256.243 397.744 259.546 398.573 262.363 400.23C265.181 401.887 267.37 404.255 268.933 407.332C270.495 410.386 271.277 414.032 271.277 418.27V453H256.149V420.969C256.172 417.631 255.32 415.027 253.592 413.156C251.864 411.262 249.484 410.315 246.454 410.315C244.418 410.315 242.619 410.753 241.056 411.629C239.518 412.505 238.31 413.784 237.434 415.464C236.582 417.122 236.144 419.122 236.12 421.466ZM296.122 454.03C292.642 454.03 289.541 453.426 286.818 452.219C284.095 450.988 281.941 449.177 280.355 446.786C278.792 444.371 278.011 441.364 278.011 437.766C278.011 434.735 278.568 432.19 279.68 430.131C280.793 428.071 282.308 426.414 284.226 425.159C286.143 423.904 288.321 422.957 290.76 422.318C293.222 421.679 295.802 421.229 298.501 420.969C301.674 420.637 304.23 420.33 306.172 420.045C308.113 419.738 309.522 419.288 310.398 418.696C311.273 418.104 311.711 417.228 311.711 416.068V415.855C311.711 413.606 311.001 411.866 309.581 410.635C308.184 409.404 306.195 408.788 303.615 408.788C300.892 408.788 298.726 409.392 297.116 410.599C295.506 411.783 294.441 413.275 293.92 415.074L279.929 413.938C280.639 410.623 282.036 407.759 284.119 405.344C286.202 402.905 288.889 401.035 292.18 399.733C295.495 398.407 299.33 397.744 303.686 397.744C306.716 397.744 309.616 398.099 312.386 398.81C315.18 399.52 317.654 400.621 319.808 402.112C321.986 403.604 323.702 405.521 324.957 407.865C326.212 410.185 326.839 412.967 326.839 416.21V453H312.493V445.436H312.067C311.191 447.141 310.019 448.644 308.551 449.946C307.083 451.224 305.319 452.231 303.26 452.964C301.2 453.675 298.821 454.03 296.122 454.03ZM300.454 443.589C302.68 443.589 304.645 443.152 306.349 442.276C308.054 441.376 309.391 440.169 310.362 438.653C311.333 437.138 311.818 435.422 311.818 433.504V427.716C311.345 428.024 310.693 428.308 309.865 428.568C309.06 428.805 308.148 429.03 307.13 429.243C306.112 429.432 305.094 429.61 304.077 429.776C303.059 429.918 302.135 430.048 301.307 430.166C299.531 430.427 297.98 430.841 296.655 431.409C295.329 431.977 294.299 432.747 293.565 433.717C292.831 434.664 292.464 435.848 292.464 437.268C292.464 439.328 293.21 440.902 294.702 441.991C296.217 443.057 298.134 443.589 300.454 443.589ZM360.518 474.591C355.618 474.591 351.415 473.916 347.912 472.567C344.431 471.241 341.662 469.43 339.602 467.134C337.542 464.837 336.205 462.257 335.589 459.392L349.581 457.51C350.007 458.599 350.681 459.617 351.605 460.564C352.528 461.511 353.747 462.268 355.262 462.837C356.801 463.429 358.671 463.724 360.873 463.724C364.164 463.724 366.875 462.92 369.005 461.31C371.16 459.723 372.237 457.06 372.237 453.32V443.341H371.598C370.935 444.856 369.94 446.288 368.615 447.638C367.289 448.987 365.584 450.088 363.501 450.94C361.418 451.793 358.932 452.219 356.044 452.219C351.948 452.219 348.219 451.272 344.858 449.378C341.52 447.46 338.856 444.536 336.868 440.607C334.903 436.653 333.92 431.658 333.92 425.621C333.92 419.442 334.926 414.281 336.939 410.138C338.951 405.995 341.626 402.893 344.964 400.834C348.326 398.774 352.007 397.744 356.008 397.744C359.062 397.744 361.619 398.265 363.679 399.307C365.738 400.325 367.395 401.603 368.65 403.142C369.929 404.657 370.911 406.149 371.598 407.616H372.166V398.455H387.187V453.533C387.187 458.173 386.051 462.055 383.778 465.18C381.505 468.305 378.357 470.649 374.332 472.212C370.331 473.798 365.726 474.591 360.518 474.591ZM360.838 440.855C363.276 440.855 365.336 440.251 367.017 439.044C368.721 437.813 370.023 436.061 370.923 433.788C371.846 431.492 372.308 428.746 372.308 425.55C372.308 422.354 371.858 419.584 370.958 417.24C370.059 414.873 368.757 413.038 367.052 411.736C365.348 410.434 363.276 409.783 360.838 409.783C358.352 409.783 356.257 410.457 354.552 411.807C352.848 413.133 351.557 414.979 350.681 417.347C349.805 419.714 349.368 422.448 349.368 425.55C349.368 428.698 349.805 431.421 350.681 433.717C351.581 435.99 352.871 437.754 354.552 439.009C356.257 440.24 358.352 440.855 360.838 440.855ZM421.452 454.065C415.841 454.065 411.011 452.929 406.963 450.656C402.939 448.36 399.837 445.116 397.659 440.926C395.481 436.712 394.392 431.729 394.392 425.976C394.392 420.365 395.481 415.441 397.659 411.203C399.837 406.965 402.903 403.663 406.857 401.295C410.834 398.928 415.498 397.744 420.848 397.744C424.447 397.744 427.797 398.324 430.898 399.484C434.023 400.621 436.745 402.337 439.065 404.634C441.409 406.93 443.232 409.818 444.534 413.298C445.836 416.755 446.487 420.803 446.487 425.443V429.598H400.429V420.223H432.247C432.247 418.045 431.774 416.116 430.827 414.435C429.88 412.754 428.566 411.44 426.885 410.493C425.228 409.522 423.298 409.037 421.097 409.037C418.8 409.037 416.764 409.57 414.989 410.635C413.237 411.677 411.864 413.085 410.869 414.861C409.875 416.613 409.366 418.566 409.342 420.72V429.634C409.342 432.332 409.84 434.664 410.834 436.629C411.852 438.594 413.284 440.109 415.131 441.175C416.977 442.24 419.167 442.773 421.7 442.773C423.381 442.773 424.92 442.536 426.317 442.062C427.714 441.589 428.909 440.879 429.904 439.932C430.898 438.985 431.655 437.825 432.176 436.452L446.168 437.375C445.458 440.737 444.002 443.672 441.8 446.182C439.622 448.668 436.805 450.609 433.348 452.006C429.915 453.379 425.95 454.065 421.452 454.065ZM453.728 453V398.455H468.146V408.078H468.785C469.921 404.882 471.815 402.361 474.467 400.514C477.118 398.668 480.29 397.744 483.984 397.744C487.724 397.744 490.908 398.679 493.536 400.55C496.164 402.396 497.916 404.906 498.792 408.078H499.36C500.473 404.953 502.485 402.455 505.397 400.585C508.333 398.691 511.801 397.744 515.802 397.744C520.892 397.744 525.023 399.366 528.195 402.609C531.391 405.829 532.989 410.398 532.989 416.317V453H517.897V419.3C517.897 416.269 517.092 413.997 515.482 412.482C513.872 410.966 511.86 410.209 509.445 410.209C506.699 410.209 504.557 411.085 503.018 412.837C501.479 414.565 500.709 416.849 500.709 419.69V453H486.043V418.98C486.043 416.305 485.274 414.174 483.735 412.588C482.22 411.002 480.219 410.209 477.734 410.209C476.053 410.209 474.538 410.635 473.188 411.487C471.862 412.316 470.809 413.488 470.028 415.003C469.246 416.494 468.856 418.246 468.856 420.259V453H453.728ZM567.165 454.065C561.554 454.065 556.725 452.929 552.677 450.656C548.652 448.36 545.551 445.116 543.373 440.926C541.195 436.712 540.106 431.729 540.106 425.976C540.106 420.365 541.195 415.441 543.373 411.203C545.551 406.965 548.616 403.663 552.57 401.295C556.547 398.928 561.211 397.744 566.562 397.744C570.16 397.744 573.51 398.324 576.611 399.484C579.736 400.621 582.459 402.337 584.779 404.634C587.123 406.93 588.946 409.818 590.248 413.298C591.55 416.755 592.201 420.803 592.201 425.443V429.598H546.143V420.223H577.961C577.961 418.045 577.487 416.116 576.54 414.435C575.593 412.754 574.279 411.44 572.598 410.493C570.941 409.522 569.012 409.037 566.81 409.037C564.514 409.037 562.478 409.57 560.702 410.635C558.95 411.677 557.577 413.085 556.583 414.861C555.589 416.613 555.08 418.566 555.056 420.72V429.634C555.056 432.332 555.553 434.664 556.547 436.629C557.565 438.594 558.998 440.109 560.844 441.175C562.691 442.24 564.881 442.773 567.414 442.773C569.095 442.773 570.634 442.536 572.03 442.062C573.427 441.589 574.623 440.879 575.617 439.932C576.611 438.985 577.369 437.825 577.89 436.452L591.881 437.375C591.171 440.737 589.715 443.672 587.513 446.182C585.335 448.668 582.518 450.609 579.062 452.006C575.629 453.379 571.663 454.065 567.165 454.065ZM614.569 421.466V453H599.441V398.455H613.859V408.078H614.498C615.706 404.906 617.73 402.396 620.571 400.55C623.412 398.679 626.856 397.744 630.904 397.744C634.692 397.744 637.995 398.573 640.812 400.23C643.629 401.887 645.819 404.255 647.382 407.332C648.944 410.386 649.725 414.032 649.725 418.27V453H634.598V420.969C634.621 417.631 633.769 415.027 632.041 413.156C630.313 411.262 627.933 410.315 624.903 410.315C622.867 410.315 621.068 410.753 619.505 411.629C617.966 412.505 616.759 413.784 615.883 415.464C615.031 417.122 614.593 419.122 614.569 421.466ZM688.03 398.455V409.818H655.182V398.455H688.03ZM662.639 385.386H677.767V436.239C677.767 437.635 677.98 438.724 678.406 439.506C678.832 440.263 679.424 440.796 680.182 441.104C680.963 441.411 681.862 441.565 682.88 441.565C683.591 441.565 684.301 441.506 685.011 441.388C685.721 441.246 686.266 441.139 686.645 441.068L689.024 452.325C688.266 452.562 687.201 452.834 685.828 453.142C684.455 453.473 682.786 453.675 680.821 453.746C677.175 453.888 673.979 453.402 671.233 452.29C668.51 451.177 666.391 449.449 664.876 447.105C663.361 444.761 662.615 441.802 662.639 438.227V385.386Z" fill="black"/>
<rect x="71" y="498" width="1038" height="19" fill="black"/>
<path d="M120.244 590.665H112.267C111.96 588.96 111.389 587.46 110.554 586.165C109.719 584.869 108.696 583.77 107.486 582.866C106.276 581.963 104.92 581.281 103.42 580.821C101.938 580.361 100.361 580.131 98.6903 580.131C95.6733 580.131 92.9716 580.889 90.5852 582.406C88.2159 583.923 86.3409 586.148 84.9602 589.08C83.5966 592.011 82.9148 595.591 82.9148 599.818C82.9148 604.08 83.5966 607.676 84.9602 610.608C86.3409 613.54 88.2244 615.756 90.6108 617.256C92.9972 618.756 95.6818 619.506 98.6648 619.506C100.318 619.506 101.886 619.284 103.369 618.841C104.869 618.381 106.224 617.707 107.435 616.821C108.645 615.935 109.668 614.852 110.503 613.574C111.355 612.278 111.943 610.795 112.267 609.125L120.244 609.151C119.818 611.724 118.991 614.094 117.764 616.259C116.554 618.406 114.994 620.264 113.085 621.832C111.193 623.384 109.028 624.585 106.591 625.438C104.153 626.29 101.494 626.716 98.6136 626.716C94.0795 626.716 90.0398 625.642 86.4943 623.494C82.9489 621.33 80.1534 618.236 78.108 614.213C76.0795 610.19 75.0653 605.392 75.0653 599.818C75.0653 594.227 76.0881 589.429 78.1335 585.423C80.179 581.401 82.9744 578.315 86.5199 576.168C90.0653 574.003 94.0966 572.92 98.6136 572.92C101.392 572.92 103.983 573.321 106.386 574.122C108.807 574.906 110.98 576.065 112.906 577.599C114.832 579.116 116.426 580.974 117.688 583.173C118.949 585.355 119.801 587.852 120.244 590.665ZM134.835 602.682V626H127.19V573.636H134.732V593.119H135.218C136.139 591.006 137.545 589.327 139.437 588.082C141.329 586.838 143.801 586.216 146.852 586.216C149.545 586.216 151.897 586.77 153.909 587.878C155.937 588.986 157.505 590.639 158.613 592.838C159.738 595.02 160.301 597.747 160.301 601.02V626H152.656V601.94C152.656 599.06 151.914 596.827 150.431 595.241C148.948 593.639 146.886 592.838 144.244 592.838C142.437 592.838 140.818 593.222 139.386 593.989C137.971 594.756 136.855 595.881 136.036 597.364C135.235 598.83 134.835 600.602 134.835 602.682ZM180.037 626.869C177.548 626.869 175.298 626.409 173.287 625.489C171.275 624.551 169.681 623.196 168.505 621.423C167.346 619.651 166.767 617.477 166.767 614.903C166.767 612.687 167.193 610.864 168.045 609.432C168.897 608 170.048 606.866 171.497 606.031C172.946 605.196 174.565 604.565 176.355 604.139C178.144 603.713 179.968 603.389 181.826 603.168C184.179 602.895 186.088 602.673 187.554 602.503C189.019 602.315 190.085 602.017 190.75 601.608C191.414 601.199 191.747 600.534 191.747 599.614V599.435C191.747 597.202 191.116 595.472 189.855 594.244C188.61 593.017 186.752 592.403 184.281 592.403C181.707 592.403 179.679 592.974 178.196 594.116C176.73 595.241 175.715 596.494 175.153 597.875L167.968 596.239C168.821 593.852 170.065 591.926 171.701 590.46C173.355 588.977 175.255 587.903 177.403 587.239C179.551 586.557 181.809 586.216 184.179 586.216C185.747 586.216 187.409 586.403 189.164 586.778C190.937 587.136 192.59 587.801 194.125 588.773C195.676 589.744 196.946 591.134 197.934 592.94C198.923 594.73 199.417 597.057 199.417 599.92V626H191.951V620.631H191.644C191.15 621.619 190.409 622.591 189.42 623.545C188.431 624.5 187.162 625.293 185.61 625.923C184.059 626.554 182.201 626.869 180.037 626.869ZM181.698 620.733C183.812 620.733 185.619 620.315 187.119 619.48C188.636 618.645 189.787 617.554 190.571 616.207C191.372 614.844 191.772 613.386 191.772 611.835V606.773C191.5 607.045 190.971 607.301 190.187 607.54C189.42 607.761 188.542 607.957 187.554 608.128C186.565 608.281 185.602 608.426 184.664 608.562C183.727 608.682 182.943 608.784 182.312 608.869C180.829 609.057 179.474 609.372 178.247 609.815C177.037 610.259 176.065 610.898 175.332 611.733C174.616 612.551 174.258 613.642 174.258 615.006C174.258 616.898 174.957 618.33 176.355 619.301C177.752 620.256 179.534 620.733 181.698 620.733ZM215.35 573.636V626H207.705V573.636H215.35ZM231.385 573.636V626H223.74V573.636H231.385ZM256.701 626.793C252.832 626.793 249.499 625.966 246.704 624.312C243.925 622.642 241.778 620.298 240.261 617.281C238.761 614.247 238.011 610.693 238.011 606.619C238.011 602.597 238.761 599.051 240.261 595.983C241.778 592.915 243.891 590.52 246.602 588.798C249.329 587.077 252.516 586.216 256.164 586.216C258.38 586.216 260.528 586.582 262.607 587.315C264.687 588.048 266.553 589.199 268.207 590.767C269.86 592.335 271.164 594.372 272.119 596.878C273.073 599.366 273.55 602.392 273.55 605.955V608.665H242.332V602.938H266.059C266.059 600.926 265.65 599.145 264.832 597.594C264.014 596.026 262.863 594.79 261.38 593.886C259.914 592.983 258.193 592.531 256.215 592.531C254.068 592.531 252.193 593.06 250.59 594.116C249.005 595.156 247.778 596.52 246.908 598.207C246.056 599.878 245.63 601.693 245.63 603.653V608.128C245.63 610.753 246.09 612.986 247.011 614.827C247.948 616.668 249.252 618.074 250.923 619.045C252.593 620 254.545 620.477 256.778 620.477C258.227 620.477 259.548 620.273 260.741 619.864C261.934 619.437 262.965 618.807 263.835 617.972C264.704 617.136 265.369 616.105 265.829 614.878L273.065 616.182C272.485 618.312 271.445 620.179 269.945 621.781C268.462 623.366 266.596 624.602 264.346 625.489C262.113 626.358 259.565 626.793 256.701 626.793ZM287.783 602.682V626H280.138V586.727H287.476V593.119H287.962C288.865 591.04 290.28 589.369 292.206 588.108C294.149 586.847 296.595 586.216 299.544 586.216C302.22 586.216 304.564 586.778 306.575 587.903C308.587 589.011 310.146 590.665 311.254 592.864C312.362 595.062 312.916 597.781 312.916 601.02V626H305.271V601.94C305.271 599.094 304.53 596.869 303.047 595.267C301.564 593.648 299.527 592.838 296.936 592.838C295.164 592.838 293.587 593.222 292.206 593.989C290.843 594.756 289.76 595.881 288.959 597.364C288.175 598.83 287.783 600.602 287.783 602.682ZM337.74 641.545C334.621 641.545 331.936 641.136 329.686 640.318C327.453 639.5 325.63 638.418 324.215 637.071C322.8 635.724 321.743 634.25 321.044 632.648L327.615 629.938C328.076 630.688 328.689 631.48 329.456 632.315C330.24 633.168 331.297 633.892 332.627 634.489C333.973 635.085 335.703 635.384 337.817 635.384C340.715 635.384 343.11 634.676 345.002 633.261C346.894 631.864 347.84 629.631 347.84 626.562V618.841H347.354C346.894 619.676 346.229 620.605 345.36 621.628C344.507 622.651 343.331 623.537 341.831 624.287C340.331 625.037 338.38 625.412 335.976 625.412C332.874 625.412 330.078 624.687 327.59 623.239C325.118 621.773 323.158 619.616 321.709 616.77C320.277 613.906 319.561 610.386 319.561 606.21C319.561 602.034 320.269 598.455 321.684 595.472C323.115 592.489 325.076 590.205 327.564 588.619C330.053 587.017 332.874 586.216 336.027 586.216C338.465 586.216 340.434 586.625 341.934 587.443C343.434 588.244 344.601 589.182 345.436 590.256C346.289 591.33 346.945 592.276 347.405 593.094H347.968V586.727H355.459V626.869C355.459 630.244 354.675 633.014 353.107 635.179C351.539 637.344 349.417 638.946 346.74 639.986C344.081 641.026 341.081 641.545 337.74 641.545ZM337.664 619.071C339.863 619.071 341.721 618.56 343.238 617.537C344.772 616.497 345.931 615.014 346.715 613.088C347.516 611.145 347.917 608.818 347.917 606.108C347.917 603.466 347.524 601.139 346.74 599.128C345.956 597.116 344.806 595.548 343.289 594.423C341.772 593.281 339.897 592.71 337.664 592.71C335.363 592.71 333.445 593.307 331.911 594.5C330.377 595.676 329.218 597.278 328.434 599.307C327.667 601.335 327.283 603.602 327.283 606.108C327.283 608.682 327.675 610.94 328.459 612.884C329.243 614.827 330.402 616.344 331.936 617.435C333.488 618.526 335.397 619.071 337.664 619.071ZM380.743 626.793C376.874 626.793 373.542 625.966 370.746 624.312C367.968 622.642 365.82 620.298 364.303 617.281C362.803 614.247 362.053 610.693 362.053 606.619C362.053 602.597 362.803 599.051 364.303 595.983C365.82 592.915 367.934 590.52 370.644 588.798C373.371 587.077 376.559 586.216 380.206 586.216C382.422 586.216 384.57 586.582 386.65 587.315C388.729 588.048 390.596 589.199 392.249 590.767C393.902 592.335 395.206 594.372 396.161 596.878C397.116 599.366 397.593 602.392 397.593 605.955V608.665H366.374V602.938H390.101C390.101 600.926 389.692 599.145 388.874 597.594C388.056 596.026 386.905 594.79 385.422 593.886C383.956 592.983 382.235 592.531 380.258 592.531C378.11 592.531 376.235 593.06 374.633 594.116C373.047 595.156 371.82 596.52 370.951 598.207C370.098 599.878 369.672 601.693 369.672 603.653V608.128C369.672 610.753 370.133 612.986 371.053 614.827C371.991 616.668 373.295 618.074 374.965 619.045C376.635 620 378.587 620.477 380.82 620.477C382.269 620.477 383.59 620.273 384.783 619.864C385.976 619.437 387.008 618.807 387.877 617.972C388.746 617.136 389.411 616.105 389.871 614.878L397.107 616.182C396.527 618.312 395.488 620.179 393.988 621.781C392.505 623.366 390.638 624.602 388.388 625.489C386.155 626.358 383.607 626.793 380.743 626.793ZM441.104 573.636V626H433.178V581.562H432.872L420.343 589.744V582.176L433.408 573.636H441.104Z" fill="black"/>
</svg>
