<svg width="1200" height="900" viewBox="0 0 1200 900" fill="none" xmlns="http://www.w3.org/2000/svg">
<rect width="1200" height="900" fill="white"/>
<path fill-rule="evenodd" clip-rule="evenodd" d="M912.316 106.345V804.292C912.316 813.548 904.807 821.051 895.545 821.051H305.567C296.307 821.051 288.796 813.548 288.796 804.292V106.345C288.796 97.0891 296.305 89.5859 305.567 89.5859H895.545C904.805 89.5859 912.316 97.0891 912.316 106.345Z" fill="#D2D2D2"/>
<path fill-rule="evenodd" clip-rule="evenodd" d="M395.76 787.534H888.168V800.398H395.76V787.534ZM395.76 766.832H888.168V779.696H395.76V766.832ZM395.76 747.116H888.168V759.98H395.76V747.116ZM312.46 112.259H888.168V125.075H312.46V112.259Z" fill="#A3A3A3"/>
<path fill-rule="evenodd" clip-rule="evenodd" d="M319.182 147.787H881.927C882.808 147.787 883.681 147.96 884.495 148.297C885.309 148.634 886.048 149.128 886.671 149.751C887.294 150.374 887.789 151.113 888.126 151.927C888.463 152.741 888.637 153.613 888.637 154.494V717.175C888.637 718.954 887.93 720.661 886.672 721.919C885.414 723.177 883.708 723.884 881.929 723.884H319.181C317.402 723.884 315.696 723.177 314.437 721.919C313.179 720.661 312.473 718.954 312.473 717.175V154.494C312.473 152.715 313.18 151.009 314.438 149.752C315.696 148.494 317.402 147.787 319.181 147.787H319.182Z" fill="#FDDFE1"/>
<path d="M312.213 178.308H888.907V718.035C888.907 719.669 888.258 721.236 887.102 722.391C885.947 723.547 884.38 724.196 882.746 724.196H318.374C316.74 724.196 315.173 723.547 314.017 722.391C312.862 721.236 312.213 719.669 312.213 718.035V178.308Z" fill="#EFFFBD"/>
<path d="M312.213 527.036H888.907V718.035C888.907 719.669 888.258 721.236 887.102 722.392C885.947 723.547 884.38 724.197 882.746 724.197H318.374C316.74 724.197 315.173 723.547 314.017 722.392C312.862 721.236 312.213 719.669 312.213 718.035V527.036Z" fill="#66E8FF"/>
<path d="M312.213 662.582H888.907V714.337C888.907 716.951 887.868 719.459 886.02 721.307C884.171 723.156 881.664 724.195 879.049 724.195H322.071C319.456 724.195 316.949 723.156 315.1 721.307C313.252 719.459 312.213 716.951 312.213 714.337V662.582Z" fill="#00A8C6"/>
<path d="M288.796 178.308L912.316 179.54" stroke="black" stroke-width="13.5548" stroke-dasharray="36.97 36.97"/>
<rect opacity="0.8" x="209" y="367.21" width="264.325" height="216.115" fill="#DEFC83"/>
<rect opacity="0.8" x="209" y="126.159" width="264.325" height="216.115" fill="#DEFC83"/>
<path d="M215.42 569.302C215.02 570.806 215.916 572.349 217.42 572.749L241.929 579.261C243.433 579.661 244.977 578.765 245.376 577.261C245.776 575.757 244.881 574.214 243.377 573.814L221.59 568.026L227.379 546.239C227.778 544.735 226.883 543.192 225.379 542.792C223.875 542.393 222.332 543.288 221.932 544.792L215.42 569.302ZM325.618 504.416L216.729 567.588L219.557 572.463L328.446 509.291L325.618 504.416Z" fill="black"/>
<rect opacity="0.8" width="264.325" height="216.115" transform="matrix(-1 0 0 1 992 367.21)" fill="#DEFC83"/>
<path d="M985.58 569.302C985.98 570.806 985.084 572.349 983.58 572.749L959.071 579.261C957.567 579.661 956.023 578.765 955.624 577.261C955.224 575.757 956.119 574.214 957.623 573.814L979.41 568.026L973.621 546.239C973.222 544.735 974.117 543.192 975.621 542.792C977.125 542.393 978.668 543.288 979.068 544.792L985.58 569.302ZM875.382 504.416L984.271 567.588L981.443 572.463L872.554 509.291L875.382 504.416Z" fill="black"/>
<path d="M215.42 137.065C215.02 135.561 215.916 134.018 217.42 133.618L241.929 127.106C243.433 126.706 244.977 127.602 245.376 129.106C245.776 130.61 244.881 132.153 243.377 132.553L221.59 138.341L227.379 160.128C227.778 161.632 226.883 163.175 225.379 163.575C223.875 163.974 222.332 163.079 221.932 161.575L215.42 137.065ZM325.618 201.951L216.729 138.779L219.557 133.904L328.446 197.076L325.618 201.951Z" fill="black"/>
<rect opacity="0.8" width="264.325" height="216.115" transform="matrix(-1 0 0 1 992 126.159)" fill="#DEFC83"/>
<rect opacity="0.8" width="264.325" height="216.115" transform="matrix(-4.37114e-08 1 1 4.37114e-08 493.274 77.9492)" fill="#DEFC83"/>
<path d="M985.58 137.065C985.98 135.561 985.084 134.018 983.58 133.618L959.071 127.106C957.567 126.706 956.023 127.602 955.624 129.106C955.224 130.61 956.119 132.153 957.623 132.553L979.41 138.341L973.621 160.128C973.222 161.632 974.117 163.175 975.621 163.575C977.125 163.974 978.668 163.079 979.068 161.575L985.58 137.065ZM875.382 201.951L984.271 138.779L981.443 133.904L872.554 197.076L875.382 201.951Z" fill="black"/>
<path d="M605.999 81.4559C604.899 80.3555 603.115 80.3555 602.014 81.4559L584.082 99.3883C582.981 100.489 582.981 102.273 584.082 103.373C585.182 104.474 586.966 104.474 588.067 103.373L604.007 87.4334L619.947 103.373C621.047 104.474 622.831 104.474 623.932 103.373C625.032 102.273 625.032 100.489 623.932 99.3883L605.999 81.4559ZM606.824 202.63L606.825 83.4484L601.189 83.4484L601.189 202.63L606.824 202.63Z" fill="black"/>
<rect opacity="0.8" x="493.274" y="631.535" width="264.325" height="216.115" transform="rotate(-90 493.274 631.535)" fill="#DEFC83"/>
<path d="M605.999 628.028C604.899 629.128 603.115 629.128 602.014 628.028L584.082 610.096C582.981 608.995 582.981 607.211 584.082 606.111C585.182 605.01 586.966 605.01 588.067 606.111L604.007 622.05L619.947 606.111C621.047 605.01 622.831 605.01 623.932 606.111C625.032 607.211 625.032 608.995 623.932 610.096L605.999 628.028ZM606.824 506.854L606.825 626.035L601.189 626.035L601.189 506.854L606.824 506.854Z" fill="black"/>
<rect x="531.51" y="368.873" width="137.981" height="137.981" fill="#8FBE00"/>
<rect x="727.675" y="368.873" width="137.981" height="137.981" fill="#8FBE00"/>
<rect x="335.344" y="204.293" width="137.981" height="137.981" fill="#8FBE00"/>
<rect x="531.51" y="204.293" width="137.981" height="137.981" fill="#8FBE00"/>
<rect x="727.675" y="204.293" width="137.981" height="137.981" fill="#8FBE00"/>
<rect x="335.344" y="368.873" width="137.981" height="137.981" fill="#8FBE00"/>
</svg>
