<svg width="1200" height="900" viewBox="0 0 1200 900" fill="none" xmlns="http://www.w3.org/2000/svg">
<rect opacity="0.6" x="152" y="158" width="890.214" height="572.709" fill="#FCC936"/>
<path fill-rule="evenodd" clip-rule="evenodd" d="M157 163.026H152V158H167V169H157V163.026ZM177 158V169H187V158H177ZM197 158V169H207V158H197ZM217 158V169H227V158H217ZM237 158V169H247V158H237ZM257 158V169H267V158H257ZM277 158V169H287V158H277ZM297 158V169H307V158H297ZM317 158V169H327V158H317ZM337 158V169H347V158H337ZM357 158V169H367V158H357ZM377 158V169H387V158H377ZM397 158V169H407V158H397ZM417 158V169H427V158H417ZM437 158V169H447V158H437ZM457 158V169H467V158H457ZM477 158V169H487V158H477ZM497 158V169H507V158H497ZM517 158V169H527V158H517ZM537 158V169H547V158H537ZM557 158V169H567V158H557ZM577 158V169H587V158H577ZM597 158V169H607V158H597ZM617 158V169H627V158H617ZM637 158V169H647V158H637ZM657 158V169H667V158H657ZM677 158V169H687V158H677ZM697 158V169H707V158H697ZM717 158V169H727V158H717ZM737 158V169H747V158H737ZM757 158V169H767V158H757ZM777 158V169H787V158H777ZM797 158V169H807V158H797ZM817 158V169H827V158H817ZM837 158V169H847V158H837ZM857 158V169H867V158H857ZM877 158V169H887V158H877ZM897 158V169H907V158H897ZM917 158V169H927V158H917ZM937 158V169H947V158H937ZM957 158V169H967V158H957ZM977 158V169H987V158H977ZM997 158V169H1007V158H997ZM1017 158V169H1027V158H1017ZM1037 158V163.026H1031V173.079H1042V158H1037ZM1042 183.131H1031V193.184H1042V183.131ZM1042 203.237H1031V213.289H1042V203.237ZM1042 223.342H1031V233.395H1042V223.342ZM1042 243.447H1031V253.5H1042V243.447ZM1042 263.552H1031V273.605H1042V263.552ZM1042 283.658H1031V293.71H1042V283.658ZM1042 303.763H1031V313.816H1042V303.763ZM1042 323.868H1031V333.921H1042V323.868ZM1042 343.974H1031V354.026H1042V343.974ZM1042 364.079H1031V374.132H1042V364.079ZM1042 384.184H1031V394.237H1042V384.184ZM1042 404.289H1031V414.342H1042V404.289ZM1042 424.395H1031V434.447H1042V424.395ZM1042 444.5H1031V454.553H1042V444.5ZM1042 464.605H1031V474.658H1042V464.605ZM1042 484.711H1031V494.763H1042V484.711ZM1042 504.816H1031V514.868H1042V504.816ZM1042 524.921H1031V534.974H1042V524.921ZM1042 545.026H1031V555.079H1042V545.026ZM1042 565.132H1031V575.184H1042V565.132ZM1042 585.237H1031V595.289H1042V585.237ZM1042 605.342H1031V615.395H1042V605.342ZM1042 625.447H1031V635.5H1042V625.447ZM1042 645.553H1031V655.605H1042V645.553ZM1042 665.658H1031V675.711H1042V665.658ZM1042 685.763H1031V695.816H1042V685.763ZM1042 705.868H1031V715.921H1042V705.868ZM1042 725.974H1037V720H1027V731H1042V725.974ZM1017 731V720H1007V731H1017ZM997 731V720H987V731H997ZM977 731V720H967V731H977ZM957 731V720H947V731H957ZM937 731V720H927V731H937ZM917 731V720H907V731H917ZM897 731V720H887V731H897ZM877 731V720H867V731H877ZM857 731V720H847V731H857ZM837 731V720H827V731H837ZM817 731V720H807V731H817ZM797 731V720H787V731H797ZM777 731V720H767V731H777ZM757 731V720H747V731H757ZM737 731V720H727V731H737ZM717 731V720H707V731H717ZM697 731V720H687V731H697ZM677 731V720H667V731H677ZM657 731V720H647V731H657ZM637 731V720H627V731H637ZM617 731V720H607V731H617ZM597 731V720H587V731H597ZM577 731V720H567V731H577ZM557 731V720H547V731H557ZM537 731V720H527V731H537ZM517 731V720H507V731H517ZM497 731V720H487V731H497ZM477 731V720H467V731H477ZM457 731V720H447V731H457ZM437 731V720H427V731H437ZM417 731V720H407V731H417ZM397 731V720H387V731H397ZM377 731V720H367V731H377ZM357 731V720H347V731H357ZM337 731V720H327V731H337ZM317 731V720H307V731H317ZM297 731V720H287V731H297ZM277 731V720H267V731H277ZM257 731V720H247V731H257ZM237 731V720H227V731H237ZM217 731V720H207V731H217ZM197 731V720H187V731H197ZM177 731V720H167V731H177ZM157 731V725.974H163V715.921H152V731H157ZM152 705.869H163V695.816H152V705.869ZM152 685.763H163V675.711H152V685.763ZM152 665.658H163V655.605H152V665.658ZM152 645.553H163V635.5H152V645.553ZM152 625.448H163V615.395H152V625.448ZM152 605.342H163V595.29H152V605.342ZM152 585.237H163V575.184H152V585.237ZM152 565.132H163V555.079H152V565.132ZM152 545.026H163V534.974H152V545.026ZM152 524.921H163V514.868H152V524.921ZM152 504.816H163V494.763H152V504.816ZM152 484.711H163V474.658H152V484.711ZM152 464.605H163V454.553H152V464.605ZM152 444.5H163V434.447H152V444.5ZM152 424.395H163V414.342H152V424.395ZM152 404.289H163V394.237H152V404.289ZM152 384.184H163V374.132H152V384.184ZM152 364.079H163V354.026H152V364.079ZM152 343.974H163V333.921H152V343.974ZM152 323.868H163V313.816H152V323.868ZM152 303.763H163V293.71H152V303.763ZM152 283.658H163V273.605H152V283.658ZM152 263.553H163V253.5H152V263.553ZM152 243.447H163V233.395H152V243.447ZM152 223.342H163V213.289H152V223.342ZM152 203.237H163V193.184H152V203.237ZM152 183.132H163V173.079H152V183.132Z" fill="#8EBE00"/>
<rect x="152.312" y="473.539" width="364.233" height="257.599" fill="#8FBE00"/>
<path d="M916.46 133.729H941.004V127.046H924.567V95.3892H916.46V133.729ZM944.64 133.729H952.616V104.974H944.64V133.729ZM948.647 101.268C951.024 101.268 952.971 99.4516 952.971 97.2238C952.971 95.0148 951.024 93.1988 948.647 93.1988C946.288 93.1988 944.341 95.0148 944.341 97.2238C944.341 99.4516 946.288 101.268 948.647 101.268ZM957.422 133.729H965.398V116.469C965.398 113.286 967.419 111.171 970.078 111.171C972.699 111.171 974.458 112.968 974.458 115.795V133.729H982.19V116.169C982.19 113.193 983.894 111.171 986.796 111.171C989.342 111.171 991.251 112.762 991.251 115.963V133.729H999.207V114.391C999.207 108.157 995.501 104.6 990.147 104.6C985.934 104.6 982.658 106.753 981.479 110.048H981.179C980.262 106.715 977.323 104.6 973.373 104.6C969.497 104.6 966.558 106.659 965.36 110.048H965.023V104.974H957.422V133.729ZM1003.93 133.729H1011.9V104.974H1003.93V133.729ZM1007.93 101.268C1010.31 101.268 1012.26 99.4516 1012.26 97.2238C1012.26 95.0148 1010.31 93.1988 1007.93 93.1988C1005.57 93.1988 1003.63 95.0148 1003.63 97.2238C1003.63 99.4516 1005.57 101.268 1007.93 101.268ZM1032 104.974H1026.59V98.085H1018.62V104.974H1014.69V110.965H1018.62V125.942C1018.58 131.577 1022.42 134.366 1028.2 134.123C1030.26 134.048 1031.72 133.636 1032.53 133.374L1031.27 127.439C1030.88 127.514 1030.04 127.701 1029.29 127.701C1027.7 127.701 1026.59 127.102 1026.59 124.893V110.965H1032V104.974Z" fill="black"/>
<path d="M304.224 774.405C308.88 774.405 312.045 771.372 312.035 767.145C312.045 763.142 309.248 760.262 305.48 760.262C303.642 760.262 302.059 761.028 301.324 762.059H301.201L301.742 756.821H310.881V753.206H298.097L297.106 764.234L301.038 764.939C301.681 764.071 302.927 763.53 304.162 763.53C306.266 763.54 307.777 765.061 307.777 767.257C307.777 769.432 306.296 770.933 304.224 770.933C302.467 770.933 301.048 769.83 300.946 768.207H296.657C296.739 771.821 299.894 774.405 304.224 774.405ZM323.355 753.206H319.199L314.022 756.484V760.405L318.811 757.403H318.933V774.119H323.355V753.206ZM327.463 774.119H342.371V770.504H333.589V770.361L336.643 767.369C340.942 763.448 342.095 761.487 342.095 759.108C342.095 755.483 339.134 752.92 334.651 752.92C330.26 752.92 327.248 755.544 327.258 759.649H331.455C331.445 757.648 332.711 756.423 334.621 756.423C336.459 756.423 337.827 757.566 337.827 759.404C337.827 761.069 336.806 762.212 334.907 764.04L327.463 770.933V774.119ZM344.835 753.206V774.119H349.124V760.456H349.297L354.709 774.017H357.63L363.042 760.507H363.215V774.119H367.504V753.206H362.051L356.292 767.257H356.047L350.288 753.206H344.835ZM370.284 774.119H379.219C383.917 774.119 386.418 771.668 386.418 768.339C386.418 765.245 384.202 763.377 381.823 763.264V763.06C383.998 762.57 385.601 761.028 385.601 758.567C385.601 755.432 383.273 753.206 378.658 753.206H370.284V774.119ZM374.706 770.504V764.949H378.413C380.537 764.949 381.854 766.174 381.854 767.9C381.854 769.473 380.782 770.504 378.311 770.504H374.706ZM374.706 761.957V756.78H378.065C380.026 756.78 381.139 757.791 381.139 759.302C381.139 760.956 379.791 761.957 377.984 761.957H374.706Z" fill="black"/>
<path d="M127.46 664.93C127.46 659.672 123.457 656.496 116.564 656.486C109.722 656.475 105.801 659.692 105.801 664.93C105.801 670.179 109.712 673.365 116.564 673.375C123.436 673.396 127.449 670.199 127.46 664.93ZM123.794 664.93C123.794 667.33 121.384 668.882 116.564 668.872C111.816 668.862 109.426 667.32 109.426 664.93C109.426 662.551 111.816 660.999 116.564 660.999C121.384 660.989 123.794 662.541 123.794 664.93ZM127.265 652.482C127.265 651.175 126.173 650.042 124.815 650.032C123.477 650.042 122.384 651.175 122.384 652.482C122.384 653.83 123.477 654.943 124.815 654.933C126.173 654.943 127.265 653.83 127.265 652.482ZM127 647.364L127 632.455L123.385 632.455L123.385 641.237L123.242 641.237L120.25 638.184C116.329 633.885 114.369 632.731 111.989 632.731C108.364 632.731 105.801 635.692 105.801 640.175C105.801 644.566 108.425 647.578 112.53 647.568L112.53 643.371C110.529 643.381 109.304 642.115 109.304 640.206C109.304 638.368 110.447 636.999 112.285 636.999C113.95 636.999 115.094 638.02 116.921 639.92L123.814 647.364L127 647.364ZM127.286 622.476C127.286 617.82 124.253 614.654 120.026 614.664C116.023 614.654 113.143 617.452 113.143 621.22C113.143 623.058 113.909 624.641 114.94 625.376L114.94 625.499L109.702 624.957L109.702 615.818L106.087 615.818L106.087 628.603L117.115 629.593L117.82 625.662C116.952 625.019 116.411 623.773 116.411 622.537C116.421 620.434 117.943 618.922 120.138 618.922C122.313 618.922 123.814 620.403 123.814 622.476C123.814 624.232 122.711 625.652 121.088 625.754L121.088 630.043C124.702 629.961 127.286 626.806 127.286 622.476ZM111.315 591.987L111.315 596.592L122.538 599.839L122.538 600.003L111.315 603.26L111.315 607.855L127 602.372L127 597.47L111.315 591.987ZM113.409 572.09C108.579 572.672 105.801 576.328 105.801 581.168C105.801 586.692 109.702 590.909 116.544 590.909C123.365 590.909 127.286 586.764 127.286 581.168C127.286 575.807 123.722 572.57 119.872 572.09L119.852 576.562C122.088 576.981 123.375 578.737 123.375 581.096C123.375 584.272 121.016 586.427 116.544 586.427C112.193 586.427 109.712 584.303 109.712 581.066C109.712 578.646 111.111 576.899 113.409 576.562L113.409 572.09ZM127 569.782L127 565.36L120.22 565.36L120.22 561.643C120.22 556.834 117.35 554.036 113.174 554.036C109.018 554.036 106.087 556.783 106.087 561.531L106.087 569.782L127 569.782ZM116.676 565.36L109.702 565.36L109.702 562.379C109.702 559.826 111.091 558.59 113.174 558.59C115.247 558.59 116.676 559.826 116.676 562.358L116.676 565.36ZM106.087 539.109L119.29 539.109C121.68 539.109 123.406 540.784 123.406 543.357C123.406 545.92 121.68 547.605 119.29 547.605L106.087 547.605L106.087 552.027L119.668 552.027C124.243 552.027 127.296 548.575 127.296 543.357C127.296 538.16 124.243 534.688 119.668 534.688L106.087 534.688L106.087 539.109Z" fill="black"/>
<path d="M540.639 116.207H559.042V122.946H566.792V116.207H571.547V109.711H566.792V84.606H556.645L540.639 109.823V116.207ZM559.192 109.711H548.801V109.411L558.892 93.4422H559.192V109.711ZM601.014 96.9992H609.251C608.203 89.4172 601.52 84.0818 592.852 84.0818C582.724 84.0818 574.917 91.3829 574.917 103.814C574.917 115.945 582.219 123.47 593.02 123.47C602.699 123.47 609.607 117.349 609.607 107.258V102.428H593.563V108.531H601.801C601.688 113.286 598.45 116.3 593.058 116.3C586.974 116.3 583.136 111.751 583.136 103.739C583.136 95.7636 587.123 91.2519 592.983 91.2519C597.158 91.2519 599.985 93.4048 601.014 96.9992ZM614.115 122.946H630.495C639.107 122.946 643.694 118.453 643.694 112.35C643.694 106.678 639.631 103.252 635.269 103.046V102.672C639.257 101.773 642.196 98.9461 642.196 94.4344C642.196 88.6871 637.928 84.606 629.466 84.606H614.115V122.946ZM622.221 116.319V106.135H629.016C632.91 106.135 635.325 108.381 635.325 111.545C635.325 114.428 633.36 116.319 628.829 116.319H622.221ZM622.221 100.65V91.1583H628.38C631.974 91.1583 634.015 93.0116 634.015 95.7823C634.015 98.8151 631.544 100.65 628.23 100.65H622.221Z" fill="black"/>
<path d="M1122.34 383.098L1122.34 375.479L1116.33 365.987L1109.14 365.987L1114.65 374.767L1114.65 374.992L1084 374.992L1084 383.098L1122.34 383.098ZM1112.76 417.512L1112.76 409.069L1092.18 403.116L1092.18 402.816L1112.76 396.844L1112.76 388.42L1084 398.473L1084 407.459L1112.76 417.512ZM1108.92 453.99C1117.77 452.923 1122.86 446.221 1122.86 437.347C1122.86 427.219 1115.71 419.487 1103.17 419.487C1090.66 419.487 1083.48 427.088 1083.48 437.347C1083.48 447.176 1090.01 453.11 1097.07 453.99L1097.1 445.79C1093 445.023 1090.65 441.803 1090.65 437.478C1090.65 431.656 1094.97 427.706 1103.17 427.706C1111.15 427.706 1115.69 431.6 1115.69 437.534C1115.69 441.971 1113.13 445.172 1108.92 445.79L1108.92 453.99ZM1084 458.221L1084 466.327L1096.43 466.327L1096.43 473.142C1096.43 481.959 1101.69 487.089 1109.35 487.089C1116.97 487.089 1122.34 482.053 1122.34 473.348L1122.34 458.221L1084 458.221ZM1102.93 466.327L1115.71 466.327L1115.71 471.794C1115.71 476.474 1113.17 478.739 1109.35 478.739C1105.55 478.739 1102.93 476.474 1102.93 471.831L1102.93 466.327ZM1122.34 514.454L1098.13 514.454C1093.75 514.454 1090.59 511.384 1090.59 506.667C1090.59 501.968 1093.75 498.879 1098.13 498.879L1122.34 498.879L1122.34 490.773L1097.44 490.773C1089.05 490.773 1083.46 497.1 1083.46 506.667C1083.46 516.195 1089.05 522.561 1097.44 522.561L1122.34 522.561L1122.34 514.454Z" fill="black"/>
<path d="M1023.81 185.866C1024.41 183.627 1023.08 181.331 1020.84 180.735L984.366 171.036C982.128 170.44 979.831 171.772 979.236 174.01C978.641 176.249 979.973 178.546 982.211 179.141L1014.63 187.763L1006.01 220.184C1005.41 222.422 1006.75 224.719 1008.98 225.314C1011.22 225.909 1013.52 224.577 1014.11 222.339L1023.81 185.866ZM534.225 471.176L1021.87 188.416L1017.66 181.16L530.018 463.92L534.225 471.176Z" fill="black"/>
<path d="M249.45 598.083H241.251C241.101 597.022 240.795 596.079 240.333 595.256C239.872 594.419 239.279 593.708 238.555 593.122C237.831 592.535 236.995 592.086 236.046 591.774C235.11 591.462 234.093 591.306 232.995 591.306C231.01 591.306 229.282 591.799 227.809 592.785C226.336 593.758 225.194 595.181 224.383 597.053C223.572 598.912 223.166 601.171 223.166 603.83C223.166 606.563 223.572 608.86 224.383 610.719C225.207 612.579 226.355 613.983 227.828 614.931C229.301 615.88 231.004 616.354 232.939 616.354C234.024 616.354 235.029 616.211 235.953 615.924C236.889 615.636 237.719 615.218 238.443 614.669C239.166 614.108 239.765 613.427 240.24 612.629C240.726 611.83 241.063 610.919 241.251 609.895L249.45 609.933C249.238 611.693 248.708 613.39 247.859 615.025C247.023 616.647 245.893 618.101 244.471 619.387C243.06 620.66 241.375 621.671 239.416 622.42C237.469 623.156 235.266 623.524 232.808 623.524C229.388 623.524 226.33 622.75 223.634 621.203C220.951 619.655 218.829 617.415 217.269 614.482C215.722 611.549 214.948 607.998 214.948 603.83C214.948 599.649 215.734 596.092 217.307 593.159C218.879 590.226 221.013 587.992 223.709 586.457C226.405 584.909 229.438 584.135 232.808 584.135C235.029 584.135 237.088 584.448 238.985 585.072C240.895 585.696 242.586 586.607 244.059 587.805C245.532 588.99 246.73 590.444 247.653 592.167C248.589 593.889 249.188 595.861 249.45 598.083ZM266.524 623.562C263.616 623.562 261.101 622.944 258.98 621.708C256.87 620.46 255.242 618.725 254.094 616.504C252.945 614.27 252.371 611.68 252.371 608.735C252.371 605.764 252.945 603.168 254.094 600.947C255.242 598.713 256.87 596.978 258.98 595.742C261.101 594.494 263.616 593.87 266.524 593.87C269.432 593.87 271.941 594.494 274.05 595.742C276.172 596.978 277.807 598.713 278.955 600.947C280.103 603.168 280.677 605.764 280.677 608.735C280.677 611.68 280.103 614.27 278.955 616.504C277.807 618.725 276.172 620.46 274.05 621.708C271.941 622.944 269.432 623.562 266.524 623.562ZM266.562 617.384C267.885 617.384 268.989 617.009 269.875 616.26C270.761 615.499 271.429 614.463 271.878 613.153C272.34 611.842 272.571 610.351 272.571 608.679C272.571 607.006 272.34 605.515 271.878 604.204C271.429 602.894 270.761 601.858 269.875 601.097C268.989 600.335 267.885 599.955 266.562 599.955C265.226 599.955 264.103 600.335 263.192 601.097C262.293 601.858 261.613 602.894 261.151 604.204C260.702 605.515 260.477 607.006 260.477 608.679C260.477 610.351 260.702 611.842 261.151 613.153C261.613 614.463 262.293 615.499 263.192 616.26C264.103 617.009 265.226 617.384 266.562 617.384ZM292.256 606.376V623H284.281V594.245H291.882V599.318H292.219C292.855 597.646 293.923 596.323 295.42 595.349C296.918 594.363 298.734 593.87 300.868 593.87C302.865 593.87 304.606 594.307 306.091 595.181C307.576 596.054 308.731 597.302 309.554 598.925C310.378 600.535 310.79 602.457 310.79 604.691V623H302.815V606.114C302.827 604.354 302.378 602.981 301.467 601.995C300.556 600.997 299.302 600.498 297.704 600.498C296.631 600.498 295.682 600.728 294.859 601.19C294.047 601.652 293.411 602.326 292.949 603.212C292.5 604.086 292.269 605.14 292.256 606.376ZM330.789 594.245V600.235H313.472V594.245H330.789ZM317.404 587.355H325.379V614.164C325.379 614.9 325.491 615.474 325.716 615.886C325.94 616.285 326.252 616.566 326.652 616.729C327.064 616.891 327.538 616.972 328.074 616.972C328.449 616.972 328.823 616.941 329.198 616.878C329.572 616.803 329.859 616.747 330.059 616.71L331.313 622.644C330.914 622.769 330.352 622.913 329.628 623.075C328.904 623.25 328.025 623.356 326.989 623.393C325.067 623.468 323.382 623.212 321.934 622.626C320.499 622.039 319.382 621.128 318.583 619.892C317.784 618.657 317.391 617.097 317.404 615.212V587.355ZM342.602 623.543C340.768 623.543 339.133 623.225 337.697 622.588C336.262 621.939 335.126 620.984 334.29 619.724C333.466 618.451 333.055 616.866 333.055 614.969C333.055 613.371 333.348 612.03 333.934 610.944C334.521 609.858 335.32 608.984 336.331 608.323C337.342 607.661 338.49 607.162 339.775 606.825C341.073 606.488 342.434 606.251 343.857 606.114C345.529 605.939 346.877 605.777 347.9 605.627C348.924 605.465 349.666 605.228 350.128 604.916C350.59 604.604 350.821 604.142 350.821 603.53V603.418C350.821 602.232 350.446 601.315 349.697 600.666C348.961 600.017 347.913 599.693 346.552 599.693C345.117 599.693 343.975 600.011 343.126 600.647C342.278 601.271 341.716 602.058 341.442 603.006L334.066 602.407C334.44 600.66 335.176 599.15 336.275 597.877C337.373 596.591 338.789 595.605 340.524 594.919C342.272 594.22 344.293 593.87 346.59 593.87C348.187 593.87 349.716 594.058 351.176 594.432C352.649 594.806 353.953 595.387 355.089 596.173C356.237 596.959 357.142 597.97 357.804 599.206C358.465 600.429 358.796 601.895 358.796 603.605V623H351.233V619.012H351.008C350.546 619.911 349.928 620.704 349.155 621.39C348.381 622.064 347.451 622.594 346.365 622.981C345.279 623.356 344.025 623.543 342.602 623.543ZM344.886 618.039C346.059 618.039 347.095 617.808 347.994 617.346C348.892 616.872 349.598 616.236 350.109 615.437C350.621 614.638 350.877 613.733 350.877 612.722V609.671C350.627 609.833 350.284 609.983 349.847 610.12C349.423 610.245 348.942 610.363 348.406 610.476C347.869 610.576 347.332 610.669 346.796 610.757C346.259 610.831 345.772 610.9 345.335 610.962C344.399 611.1 343.582 611.318 342.883 611.618C342.184 611.917 341.641 612.323 341.254 612.835C340.867 613.334 340.674 613.958 340.674 614.707C340.674 615.792 341.067 616.622 341.853 617.197C342.652 617.758 343.663 618.039 344.886 618.039ZM363.401 623V594.245H371.377V623H363.401ZM367.408 590.538C366.222 590.538 365.205 590.145 364.356 589.359C363.52 588.56 363.102 587.605 363.102 586.494C363.102 585.396 363.52 584.454 364.356 583.667C365.205 582.869 366.222 582.469 367.408 582.469C368.593 582.469 369.604 582.869 370.441 583.667C371.289 584.454 371.714 585.396 371.714 586.494C371.714 587.605 371.289 588.56 370.441 589.359C369.604 590.145 368.593 590.538 367.408 590.538ZM384.159 606.376V623H376.184V594.245H383.784V599.318H384.121C384.758 597.646 385.825 596.323 387.322 595.349C388.82 594.363 390.636 593.87 392.77 593.87C394.767 593.87 396.508 594.307 397.993 595.181C399.479 596.054 400.633 597.302 401.457 598.925C402.28 600.535 402.692 602.457 402.692 604.691V623H394.717V606.114C394.73 604.354 394.28 602.981 393.369 601.995C392.458 600.997 391.204 600.498 389.606 600.498C388.533 600.498 387.585 600.728 386.761 601.19C385.95 601.652 385.313 602.326 384.851 603.212C384.402 604.086 384.171 605.14 384.159 606.376ZM420.501 623.562C417.543 623.562 414.997 622.963 412.863 621.764C410.741 620.554 409.106 618.844 407.958 616.635C406.81 614.413 406.236 611.786 406.236 608.753C406.236 605.796 406.81 603.2 407.958 600.966C409.106 598.732 410.722 596.99 412.807 595.742C414.903 594.494 417.362 593.87 420.183 593.87C422.08 593.87 423.846 594.176 425.481 594.788C427.128 595.387 428.563 596.292 429.786 597.502C431.022 598.713 431.983 600.235 432.669 602.07C433.356 603.892 433.699 606.026 433.699 608.473V610.663H409.418V605.721H426.192C426.192 604.572 425.942 603.555 425.443 602.669C424.944 601.783 424.251 601.09 423.365 600.591C422.492 600.079 421.474 599.824 420.314 599.824C419.103 599.824 418.03 600.104 417.094 600.666C416.17 601.215 415.446 601.958 414.922 602.894C414.398 603.817 414.13 604.847 414.117 605.983V610.682C414.117 612.104 414.379 613.334 414.903 614.37C415.44 615.406 416.195 616.204 417.169 616.766C418.142 617.328 419.296 617.608 420.632 617.608C421.518 617.608 422.329 617.484 423.066 617.234C423.802 616.984 424.432 616.61 424.956 616.111C425.481 615.611 425.88 615 426.155 614.276L433.531 614.763C433.156 616.535 432.389 618.083 431.228 619.406C430.08 620.716 428.595 621.739 426.772 622.476C424.963 623.2 422.872 623.562 420.501 623.562ZM437.322 623V594.245H445.054V599.262H445.353C445.877 597.477 446.757 596.129 447.993 595.218C449.228 594.295 450.651 593.833 452.261 593.833C452.661 593.833 453.091 593.858 453.553 593.908C454.015 593.958 454.42 594.026 454.77 594.114V601.19C454.395 601.078 453.877 600.978 453.216 600.891C452.554 600.803 451.949 600.76 451.4 600.76C450.227 600.76 449.178 601.015 448.255 601.527C447.344 602.026 446.62 602.725 446.083 603.624C445.559 604.523 445.297 605.558 445.297 606.732V623H437.322Z" fill="#242A09"/>
</svg>
