<svg width="1200" height="900" viewBox="0 0 1200 900" fill="none" xmlns="http://www.w3.org/2000/svg">
<rect width="1200" height="900" fill="white"/>
<path d="M74.5511 383.95V371.273H134.281V383.95H112.016V444H96.8168V383.95H74.5511ZM156.33 412.466V444H141.202V371.273H155.904V399.078H156.543C157.774 395.858 159.763 393.337 162.509 391.514C165.255 389.668 168.7 388.744 172.843 388.744C176.631 388.744 179.933 389.573 182.751 391.23C185.591 392.864 187.793 395.219 189.356 398.297C190.942 401.351 191.723 405.009 191.699 409.27V444H176.572V411.969C176.595 408.607 175.743 405.991 174.015 404.121C172.31 402.25 169.919 401.315 166.841 401.315C164.782 401.315 162.959 401.753 161.373 402.629C159.81 403.505 158.579 404.784 157.68 406.464C156.804 408.122 156.354 410.122 156.33 412.466ZM225.831 445.065C220.22 445.065 215.391 443.929 211.342 441.656C207.318 439.36 204.216 436.116 202.038 431.926C199.86 427.712 198.771 422.729 198.771 416.976C198.771 411.365 199.86 406.441 202.038 402.203C204.216 397.965 207.282 394.663 211.236 392.295C215.213 389.928 219.877 388.744 225.227 388.744C228.826 388.744 232.176 389.324 235.277 390.484C238.402 391.621 241.125 393.337 243.445 395.634C245.788 397.93 247.611 400.818 248.913 404.298C250.215 407.755 250.866 411.803 250.866 416.443V420.598H204.808V411.223H236.626C236.626 409.045 236.153 407.116 235.206 405.435C234.259 403.754 232.945 402.44 231.264 401.493C229.607 400.522 227.678 400.037 225.476 400.037C223.179 400.037 221.143 400.57 219.368 401.635C217.616 402.677 216.243 404.085 215.249 405.861C214.254 407.613 213.745 409.566 213.722 411.72V420.634C213.722 423.332 214.219 425.664 215.213 427.629C216.231 429.594 217.663 431.109 219.51 432.175C221.357 433.24 223.546 433.773 226.08 433.773C227.76 433.773 229.299 433.536 230.696 433.062C232.093 432.589 233.288 431.879 234.283 430.932C235.277 429.985 236.035 428.825 236.555 427.452L250.547 428.375C249.837 431.737 248.381 434.672 246.179 437.182C244.001 439.668 241.184 441.609 237.727 443.006C234.294 444.379 230.329 445.065 225.831 445.065ZM303.265 445.065C297.678 445.065 292.872 443.882 288.847 441.514C284.846 439.123 281.769 435.809 279.614 431.571C277.484 427.333 276.418 422.456 276.418 416.94C276.418 411.353 277.495 406.453 279.65 402.239C281.828 398.001 284.917 394.698 288.918 392.331C292.919 389.94 297.678 388.744 303.194 388.744C307.952 388.744 312.119 389.608 315.694 391.337C319.269 393.065 322.098 395.491 324.181 398.616C326.264 401.741 327.413 405.411 327.626 409.625H313.35C312.948 406.902 311.882 404.713 310.154 403.055C308.45 401.375 306.212 400.534 303.442 400.534C301.099 400.534 299.051 401.173 297.299 402.452C295.571 403.706 294.221 405.541 293.251 407.956C292.28 410.371 291.795 413.295 291.795 416.727C291.795 420.207 292.268 423.167 293.215 425.605C294.186 428.044 295.547 429.902 297.299 431.18C299.051 432.459 301.099 433.098 303.442 433.098C305.171 433.098 306.721 432.743 308.094 432.033C309.491 431.322 310.639 430.293 311.539 428.943C312.462 427.57 313.066 425.925 313.35 424.007H327.626C327.389 428.174 326.253 431.843 324.217 435.016C322.204 438.164 319.423 440.626 315.871 442.402C312.32 444.178 308.118 445.065 303.265 445.065ZM349.808 412.466V444H334.68V371.273H349.382V399.078H350.021C351.252 395.858 353.24 393.337 355.987 391.514C358.733 389.668 362.177 388.744 366.32 388.744C370.108 388.744 373.411 389.573 376.228 391.23C379.069 392.864 381.271 395.219 382.833 398.297C384.419 401.351 385.201 405.009 385.177 409.27V444H370.049V411.969C370.073 408.607 369.221 405.991 367.492 404.121C365.788 402.25 363.397 401.315 360.319 401.315C358.259 401.315 356.436 401.753 354.85 402.629C353.288 403.505 352.057 404.784 351.157 406.464C350.281 408.122 349.831 410.122 349.808 412.466ZM410.005 445.03C406.524 445.03 403.423 444.426 400.701 443.219C397.978 441.988 395.824 440.177 394.238 437.786C392.675 435.371 391.894 432.364 391.894 428.766C391.894 425.735 392.45 423.19 393.563 421.131C394.676 419.071 396.191 417.414 398.108 416.159C400.026 414.904 402.204 413.957 404.642 413.318C407.104 412.679 409.685 412.229 412.384 411.969C415.556 411.637 418.113 411.33 420.054 411.045C421.996 410.738 423.404 410.288 424.28 409.696C425.156 409.104 425.594 408.228 425.594 407.068V406.855C425.594 404.606 424.884 402.866 423.463 401.635C422.067 400.404 420.078 399.788 417.497 399.788C414.775 399.788 412.609 400.392 410.999 401.599C409.389 402.783 408.324 404.275 407.803 406.074L393.811 404.938C394.522 401.623 395.918 398.759 398.002 396.344C400.085 393.905 402.772 392.035 406.063 390.733C409.377 389.407 413.212 388.744 417.568 388.744C420.599 388.744 423.499 389.099 426.269 389.81C429.062 390.52 431.536 391.621 433.691 393.112C435.869 394.604 437.585 396.521 438.84 398.865C440.095 401.185 440.722 403.967 440.722 407.21V444H426.375V436.436H425.949C425.073 438.141 423.901 439.644 422.434 440.946C420.966 442.224 419.202 443.231 417.142 443.964C415.083 444.675 412.703 445.03 410.005 445.03ZM414.337 434.589C416.562 434.589 418.527 434.152 420.232 433.276C421.936 432.376 423.274 431.169 424.245 429.653C425.215 428.138 425.701 426.422 425.701 424.504V418.716C425.227 419.024 424.576 419.308 423.747 419.568C422.943 419.805 422.031 420.03 421.013 420.243C419.995 420.432 418.977 420.61 417.959 420.776C416.941 420.918 416.018 421.048 415.189 421.166C413.414 421.427 411.863 421.841 410.537 422.409C409.211 422.977 408.182 423.747 407.448 424.717C406.714 425.664 406.347 426.848 406.347 428.268C406.347 430.328 407.093 431.902 408.584 432.991C410.099 434.057 412.017 434.589 414.337 434.589ZM464.955 371.273V444H449.827V371.273H464.955ZM489.569 371.273V444H474.441V371.273H489.569ZM523.914 445.065C518.303 445.065 513.473 443.929 509.425 441.656C505.401 439.36 502.299 436.116 500.121 431.926C497.943 427.712 496.854 422.729 496.854 416.976C496.854 411.365 497.943 406.441 500.121 402.203C502.299 397.965 505.365 394.663 509.319 392.295C513.296 389.928 517.96 388.744 523.31 388.744C526.909 388.744 530.259 389.324 533.36 390.484C536.485 391.621 539.207 393.337 541.527 395.634C543.871 397.93 545.694 400.818 546.996 404.298C548.298 407.755 548.949 411.803 548.949 416.443V420.598H502.891V411.223H534.709C534.709 409.045 534.236 407.116 533.289 405.435C532.342 403.754 531.028 402.44 529.347 401.493C527.69 400.522 525.76 400.037 523.559 400.037C521.262 400.037 519.226 400.57 517.451 401.635C515.699 402.677 514.326 404.085 513.331 405.861C512.337 407.613 511.828 409.566 511.804 411.72V420.634C511.804 423.332 512.302 425.664 513.296 427.629C514.314 429.594 515.746 431.109 517.593 432.175C519.439 433.24 521.629 433.773 524.162 433.773C525.843 433.773 527.382 433.536 528.779 433.062C530.176 432.589 531.371 431.879 532.366 430.932C533.36 429.985 534.117 428.825 534.638 427.452L548.63 428.375C547.919 431.737 546.464 434.672 544.262 437.182C542.084 439.668 539.267 441.609 535.81 443.006C532.377 444.379 528.412 445.065 523.914 445.065ZM571.318 412.466V444H556.19V389.455H570.608V399.078H571.247C572.454 395.906 574.478 393.396 577.319 391.55C580.16 389.679 583.605 388.744 587.653 388.744C591.441 388.744 594.743 389.573 597.561 391.23C600.378 392.887 602.568 395.255 604.13 398.332C605.693 401.386 606.474 405.032 606.474 409.27V444H591.346V411.969C591.37 408.631 590.518 406.027 588.789 404.156C587.061 402.262 584.682 401.315 581.652 401.315C579.616 401.315 577.816 401.753 576.254 402.629C574.715 403.505 573.508 404.784 572.632 406.464C571.779 408.122 571.341 410.122 571.318 412.466ZM640.339 465.591C635.439 465.591 631.236 464.916 627.733 463.567C624.253 462.241 621.483 460.43 619.423 458.134C617.363 455.837 616.026 453.257 615.41 450.392L629.402 448.51C629.828 449.599 630.503 450.617 631.426 451.564C632.349 452.511 633.568 453.268 635.084 453.837C636.622 454.429 638.493 454.724 640.694 454.724C643.985 454.724 646.696 453.92 648.826 452.31C650.981 450.723 652.058 448.06 652.058 444.32V434.341H651.419C650.756 435.856 649.762 437.288 648.436 438.638C647.11 439.987 645.405 441.088 643.322 441.94C641.239 442.793 638.753 443.219 635.865 443.219C631.769 443.219 628.04 442.272 624.679 440.378C621.341 438.46 618.677 435.536 616.689 431.607C614.724 427.653 613.741 422.658 613.741 416.621C613.741 410.442 614.747 405.281 616.76 401.138C618.772 396.995 621.447 393.893 624.785 391.834C628.147 389.774 631.828 388.744 635.829 388.744C638.883 388.744 641.44 389.265 643.5 390.307C645.559 391.325 647.217 392.603 648.471 394.142C649.75 395.657 650.732 397.149 651.419 398.616H651.987V389.455H667.008V444.533C667.008 449.173 665.872 453.055 663.599 456.18C661.326 459.305 658.178 461.649 654.153 463.212C650.152 464.798 645.548 465.591 640.339 465.591ZM640.659 431.855C643.097 431.855 645.157 431.251 646.838 430.044C648.542 428.813 649.844 427.061 650.744 424.788C651.667 422.492 652.129 419.746 652.129 416.55C652.129 413.354 651.679 410.584 650.78 408.24C649.88 405.873 648.578 404.038 646.873 402.736C645.169 401.434 643.097 400.783 640.659 400.783C638.173 400.783 636.078 401.457 634.373 402.807C632.669 404.133 631.378 405.979 630.503 408.347C629.627 410.714 629.189 413.448 629.189 416.55C629.189 419.698 629.627 422.421 630.503 424.717C631.402 426.99 632.692 428.754 634.373 430.009C636.078 431.24 638.173 431.855 640.659 431.855ZM701.273 445.065C695.662 445.065 690.833 443.929 686.784 441.656C682.76 439.36 679.658 436.116 677.48 431.926C675.302 427.712 674.213 422.729 674.213 416.976C674.213 411.365 675.302 406.441 677.48 402.203C679.658 397.965 682.724 394.663 686.678 392.295C690.655 389.928 695.319 388.744 700.669 388.744C704.268 388.744 707.618 389.324 710.719 390.484C713.844 391.621 716.567 393.337 718.887 395.634C721.23 397.93 723.053 400.818 724.355 404.298C725.657 407.755 726.309 411.803 726.309 416.443V420.598H680.25V411.223H712.068C712.068 409.045 711.595 407.116 710.648 405.435C709.701 403.754 708.387 402.44 706.706 401.493C705.049 400.522 703.12 400.037 700.918 400.037C698.621 400.037 696.586 400.57 694.81 401.635C693.058 402.677 691.685 404.085 690.691 405.861C689.696 407.613 689.187 409.566 689.164 411.72V420.634C689.164 423.332 689.661 425.664 690.655 427.629C691.673 429.594 693.105 431.109 694.952 432.175C696.799 433.24 698.988 433.773 701.522 433.773C703.202 433.773 704.741 433.536 706.138 433.062C707.535 432.589 708.73 431.879 709.725 430.932C710.719 429.985 711.477 428.825 711.997 427.452L725.989 428.375C725.279 431.737 723.823 434.672 721.621 437.182C719.443 439.668 716.626 441.609 713.169 443.006C709.737 444.379 705.771 445.065 701.273 445.065Z" fill="black"/>
<rect x="71" y="498" width="1038" height="19" fill="black"/>
</svg>
