<svg width="1200" height="900" viewBox="0 0 1200 900" fill="none" xmlns="http://www.w3.org/2000/svg">
<rect width="1200" height="900" fill="white"/>
<path d="M242 112L213.132 162H270.868L242 112ZM247 772V157H237V772H247Z" fill="black"/>
<path d="M1080 772L1030 743.132L1030 800.868L1080 772ZM237 777L1035 777L1035 767L237 767L237 777Z" fill="black"/>
<path d="M146.915 45.6364H156.397L166.411 70.0682H166.837L176.851 45.6364H186.333V82H178.876V58.3317H178.574L169.163 81.8224H164.085L154.675 58.2429H154.373V82H146.915V45.6364ZM203.954 82.5327C201.149 82.5327 198.734 81.9645 196.71 80.8281C194.698 79.6799 193.147 78.0582 192.058 75.9631C190.969 73.8561 190.424 71.3643 190.424 68.4879C190.424 65.6825 190.969 63.2204 192.058 61.1016C193.147 58.9827 194.68 57.3314 196.657 56.1477C198.645 54.964 200.977 54.3722 203.652 54.3722C205.452 54.3722 207.127 54.6622 208.677 55.2422C210.24 55.8104 211.601 56.6686 212.761 57.8168C213.933 58.965 214.844 60.4091 215.495 62.1491C216.147 63.8774 216.472 65.9015 216.472 68.2216V70.299H193.443V65.6115H209.352C209.352 64.5225 209.115 63.5578 208.642 62.7173C208.168 61.8769 207.511 61.2199 206.671 60.7464C205.842 60.2611 204.878 60.0185 203.777 60.0185C202.629 60.0185 201.611 60.2848 200.723 60.8175C199.847 61.3383 199.16 62.0426 198.663 62.9304C198.166 63.8063 197.911 64.7829 197.9 65.8601V70.3168C197.9 71.6662 198.148 72.8321 198.645 73.8146C199.154 74.7971 199.87 75.5547 200.794 76.0874C201.717 76.62 202.812 76.8864 204.079 76.8864C204.919 76.8864 205.688 76.768 206.387 76.5312C207.085 76.2945 207.683 75.9394 208.18 75.4659C208.677 74.9924 209.056 74.4124 209.316 73.7259L216.312 74.1875C215.957 75.8684 215.229 77.3362 214.128 78.5909C213.039 79.8338 211.631 80.8045 209.902 81.5028C208.186 82.1894 206.203 82.5327 203.954 82.5327ZM220.408 82V54.7273H227.617V59.5391H227.937C228.505 57.9411 229.452 56.6804 230.777 55.7571C232.103 54.8338 233.689 54.3722 235.536 54.3722C237.406 54.3722 238.998 54.8397 240.312 55.7749C241.626 56.6982 242.502 57.9529 242.94 59.5391H243.224C243.781 57.9766 244.787 56.7277 246.243 55.7926C247.71 54.8456 249.445 54.3722 251.445 54.3722C253.99 54.3722 256.056 55.183 257.642 56.8047C259.24 58.4145 260.039 60.6991 260.039 63.6584V82H252.493V65.1499C252.493 63.6347 252.09 62.4983 251.285 61.7408C250.48 60.9832 249.474 60.6044 248.267 60.6044C246.894 60.6044 245.822 61.0424 245.053 61.9183C244.284 62.7824 243.899 63.9247 243.899 65.3452V82H236.566V64.9901C236.566 63.6525 236.181 62.5871 235.412 61.794C234.654 61.0009 233.654 60.6044 232.411 60.6044C231.571 60.6044 230.813 60.8175 230.138 61.2436C229.475 61.6579 228.949 62.2438 228.558 63.0014C228.167 63.7472 227.972 64.6231 227.972 65.6293V82H220.408ZM277.336 82.5327C274.578 82.5327 272.193 81.9467 270.18 80.7749C268.18 79.5911 266.635 77.9458 265.546 75.8388C264.457 73.7199 263.913 71.2637 263.913 68.4702C263.913 65.6529 264.457 63.1908 265.546 61.0838C266.635 58.965 268.18 57.3196 270.18 56.1477C272.193 54.964 274.578 54.3722 277.336 54.3722C280.094 54.3722 282.473 54.964 284.474 56.1477C286.486 57.3196 288.037 58.965 289.126 61.0838C290.215 63.1908 290.759 65.6529 290.759 68.4702C290.759 71.2637 290.215 73.7199 289.126 75.8388C288.037 77.9458 286.486 79.5911 284.474 80.7749C282.473 81.9467 280.094 82.5327 277.336 82.5327ZM277.372 76.6733C278.626 76.6733 279.674 76.3182 280.514 75.608C281.355 74.8859 281.988 73.9034 282.414 72.6605C282.852 71.4176 283.071 70.0031 283.071 68.4169C283.071 66.8307 282.852 65.4162 282.414 64.1733C281.988 62.9304 281.355 61.9479 280.514 61.2259C279.674 60.5038 278.626 60.1428 277.372 60.1428C276.105 60.1428 275.04 60.5038 274.176 61.2259C273.323 61.9479 272.678 62.9304 272.24 64.1733C271.814 65.4162 271.601 66.8307 271.601 68.4169C271.601 70.0031 271.814 71.4176 272.24 72.6605C272.678 73.9034 273.323 74.8859 274.176 75.608C275.04 76.3182 276.105 76.6733 277.372 76.6733ZM294.678 82V54.7273H302.011V59.4858H302.295C302.792 57.7931 303.627 56.5147 304.798 55.6506C305.97 54.7746 307.32 54.3366 308.847 54.3366C309.225 54.3366 309.634 54.3603 310.072 54.4077C310.51 54.455 310.895 54.5201 311.226 54.603V61.3146C310.871 61.2081 310.38 61.1134 309.752 61.0305C309.125 60.9477 308.551 60.9062 308.03 60.9062C306.917 60.9062 305.923 61.1489 305.047 61.6342C304.183 62.1077 303.496 62.7706 302.987 63.6229C302.49 64.4751 302.242 65.4576 302.242 66.5703V82H294.678ZM319.636 92.2273C318.678 92.2273 317.778 92.1503 316.938 91.9964C316.109 91.8544 315.422 91.6709 314.878 91.446L316.582 85.7997C317.47 86.072 318.269 86.2199 318.979 86.2436C319.702 86.2673 320.323 86.1016 320.844 85.7464C321.377 85.3913 321.809 84.7876 322.14 83.9354L322.584 82.7812L312.801 54.7273H320.755L326.401 74.7557H326.685L332.385 54.7273H340.393L329.793 84.9474C329.284 86.4152 328.591 87.6937 327.715 88.7827C326.851 89.8835 325.756 90.7299 324.43 91.3217C323.105 91.9254 321.507 92.2273 319.636 92.2273Z" fill="black"/>
<path d="M103.407 423.608V417.553L118.588 393.636H123.808V402.017H120.719L111.148 417.163V417.447H132.721V423.608H103.407ZM120.861 430V421.761L121.003 419.08V393.636H128.211V430H120.861ZM161.169 405.391C160.921 404.527 160.571 403.763 160.122 403.1C159.672 402.425 159.121 401.857 158.47 401.396C157.831 400.922 157.097 400.561 156.269 400.312C155.452 400.064 154.546 399.94 153.552 399.94C151.694 399.94 150.06 400.401 148.651 401.325C147.255 402.248 146.166 403.591 145.384 405.355C144.603 407.107 144.213 409.25 144.213 411.783C144.213 414.316 144.597 416.47 145.367 418.246C146.136 420.021 147.225 421.377 148.634 422.312C150.042 423.235 151.705 423.697 153.623 423.697C155.363 423.697 156.849 423.389 158.08 422.773C159.323 422.146 160.27 421.264 160.921 420.128C161.584 418.991 161.915 417.648 161.915 416.097L163.477 416.328H154.102V410.54H169.319V415.121C169.319 418.317 168.644 421.063 167.295 423.359C165.945 425.644 164.087 427.408 161.72 428.651C159.352 429.882 156.642 430.497 153.588 430.497C150.178 430.497 147.184 429.746 144.603 428.242C142.023 426.727 140.01 424.579 138.566 421.797C137.134 419.003 136.418 415.689 136.418 411.854C136.418 408.906 136.844 406.278 137.696 403.97C138.56 401.65 139.768 399.685 141.318 398.075C142.869 396.465 144.674 395.24 146.734 394.4C148.794 393.559 151.025 393.139 153.428 393.139C155.487 393.139 157.405 393.441 159.181 394.045C160.956 394.637 162.53 395.477 163.904 396.566C165.289 397.655 166.419 398.951 167.295 400.455C168.171 401.946 168.733 403.591 168.982 405.391H161.169ZM174.094 430V393.636H188.654C191.329 393.636 193.56 394.033 195.348 394.826C197.135 395.619 198.479 396.72 199.378 398.129C200.278 399.525 200.728 401.135 200.728 402.958C200.728 404.379 200.444 405.627 199.875 406.705C199.307 407.77 198.526 408.646 197.532 409.332C196.549 410.007 195.425 410.487 194.158 410.771V411.126C195.543 411.185 196.839 411.576 198.047 412.298C199.266 413.02 200.254 414.032 201.012 415.334C201.769 416.624 202.148 418.163 202.148 419.95C202.148 421.88 201.669 423.602 200.71 425.117C199.763 426.621 198.36 427.81 196.502 428.686C194.643 429.562 192.353 430 189.63 430H174.094ZM181.782 423.714H188.05C190.193 423.714 191.755 423.306 192.738 422.489C193.72 421.661 194.211 420.56 194.211 419.187C194.211 418.181 193.969 417.293 193.483 416.523C192.998 415.754 192.306 415.15 191.406 414.712C190.518 414.274 189.459 414.055 188.228 414.055H181.782V423.714ZM181.782 408.853H187.482C188.535 408.853 189.471 408.67 190.287 408.303C191.116 407.924 191.767 407.391 192.24 406.705C192.726 406.018 192.968 405.195 192.968 404.237C192.968 402.923 192.501 401.863 191.566 401.058C190.642 400.253 189.328 399.851 187.624 399.851H181.782V408.853Z" fill="black"/>
<path d="M967.521 835.975V829.636H997.386V835.975H986.253V866H978.653V835.975H967.521ZM1001.16 866V838.727H1008.73V866H1001.16ZM1004.96 835.212C1003.84 835.212 1002.87 834.839 1002.07 834.093C1001.27 833.335 1000.88 832.43 1000.88 831.376C1000.88 830.335 1001.27 829.441 1002.07 828.695C1002.87 827.938 1003.84 827.559 1004.96 827.559C1006.09 827.559 1007.05 827.938 1007.84 828.695C1008.64 829.441 1009.05 830.335 1009.05 831.376C1009.05 832.43 1008.64 833.335 1007.84 834.093C1007.05 834.839 1006.09 835.212 1004.96 835.212ZM1013.79 866V838.727H1020.99V843.539H1021.31C1021.88 841.941 1022.83 840.68 1024.15 839.757C1025.48 838.834 1027.07 838.372 1028.91 838.372C1030.78 838.372 1032.38 838.84 1033.69 839.775C1035 840.698 1035.88 841.953 1036.32 843.539H1036.6C1037.16 841.977 1038.16 840.728 1039.62 839.793C1041.09 838.846 1042.82 838.372 1044.82 838.372C1047.37 838.372 1049.43 839.183 1051.02 840.805C1052.62 842.415 1053.42 844.699 1053.42 847.658V866H1045.87V849.15C1045.87 847.635 1045.47 846.498 1044.66 845.741C1043.86 844.983 1042.85 844.604 1041.64 844.604C1040.27 844.604 1039.2 845.042 1038.43 845.918C1037.66 846.782 1037.28 847.925 1037.28 849.345V866H1029.94V848.99C1029.94 847.652 1029.56 846.587 1028.79 845.794C1028.03 845.001 1027.03 844.604 1025.79 844.604C1024.95 844.604 1024.19 844.817 1023.52 845.244C1022.85 845.658 1022.33 846.244 1021.93 847.001C1021.54 847.747 1021.35 848.623 1021.35 849.629V866H1013.79ZM1070.82 866.533C1068.01 866.533 1065.6 865.964 1063.58 864.828C1061.56 863.68 1060.01 862.058 1058.92 859.963C1057.83 857.856 1057.29 855.364 1057.29 852.488C1057.29 849.683 1057.83 847.22 1058.92 845.102C1060.01 842.983 1061.55 841.331 1063.52 840.148C1065.51 838.964 1067.84 838.372 1070.52 838.372C1072.32 838.372 1073.99 838.662 1075.54 839.242C1077.11 839.81 1078.47 840.669 1079.63 841.817C1080.8 842.965 1081.71 844.409 1082.36 846.149C1083.01 847.877 1083.34 849.902 1083.34 852.222V854.299H1060.31V849.612H1076.22C1076.22 848.522 1075.98 847.558 1075.51 846.717C1075.03 845.877 1074.38 845.22 1073.54 844.746C1072.71 844.261 1071.74 844.018 1070.64 844.018C1069.49 844.018 1068.48 844.285 1067.59 844.817C1066.71 845.338 1066.03 846.043 1065.53 846.93C1065.03 847.806 1064.78 848.783 1064.76 849.86V854.317C1064.76 855.666 1065.01 856.832 1065.51 857.815C1066.02 858.797 1066.74 859.555 1067.66 860.087C1068.58 860.62 1069.68 860.886 1070.94 860.886C1071.78 860.886 1072.55 860.768 1073.25 860.531C1073.95 860.295 1074.55 859.939 1075.05 859.466C1075.54 858.992 1075.92 858.412 1076.18 857.726L1083.18 858.188C1082.82 859.868 1082.09 861.336 1080.99 862.591C1079.9 863.834 1078.5 864.804 1076.77 865.503C1075.05 866.189 1073.07 866.533 1070.82 866.533Z" fill="black"/>
<path d="M237.493 855.799C234.439 855.787 231.812 855.036 229.61 853.544C227.42 852.053 225.733 849.892 224.549 847.063C223.378 844.234 222.798 840.831 222.809 836.854C222.809 832.888 223.395 829.509 224.567 826.715C225.751 823.922 227.438 821.797 229.628 820.341C231.829 818.873 234.451 818.139 237.493 818.139C240.535 818.139 243.151 818.873 245.341 820.341C247.543 821.809 249.236 823.939 250.419 826.733C251.603 829.515 252.189 832.888 252.177 836.854C252.177 840.843 251.585 844.252 250.402 847.081C249.23 849.91 247.549 852.07 245.359 853.562C243.169 855.053 240.547 855.799 237.493 855.799ZM237.493 849.425C239.577 849.425 241.24 848.377 242.483 846.282C243.726 844.187 244.341 841.044 244.329 836.854C244.329 834.096 244.045 831.799 243.477 829.964C242.921 828.13 242.128 826.751 241.098 825.827C240.08 824.904 238.878 824.442 237.493 824.442C235.422 824.442 233.765 825.478 232.522 827.55C231.279 829.621 230.651 832.723 230.64 836.854C230.64 839.647 230.918 841.979 231.474 843.849C232.042 845.708 232.841 847.105 233.871 848.04C234.901 848.963 236.108 849.425 237.493 849.425Z" fill="black"/>
<rect x="247" y="260" width="832" height="151" fill="#FCE5E3"/>
<path d="M858.464 381V344.636H872.811C875.557 344.636 877.901 345.128 879.842 346.11C881.795 347.081 883.281 348.46 884.299 350.247C885.329 352.023 885.843 354.112 885.843 356.515C885.843 358.93 885.323 361.007 884.281 362.747C883.239 364.475 881.73 365.801 879.753 366.724C877.788 367.648 875.409 368.109 872.616 368.109H863.01V361.93H871.373C872.84 361.93 874.06 361.729 875.03 361.327C876.001 360.924 876.723 360.321 877.196 359.516C877.682 358.711 877.924 357.71 877.924 356.515C877.924 355.308 877.682 354.29 877.196 353.461C876.723 352.632 875.995 352.005 875.013 351.579C874.042 351.141 872.817 350.922 871.337 350.922H866.152V381H858.464ZM878.102 364.452L887.14 381H878.652L869.81 364.452H878.102ZM902.124 381.533C899.319 381.533 896.904 380.964 894.88 379.828C892.868 378.68 891.317 377.058 890.228 374.963C889.139 372.856 888.594 370.364 888.594 367.488C888.594 364.683 889.139 362.22 890.228 360.102C891.317 357.983 892.85 356.331 894.827 355.148C896.815 353.964 899.147 353.372 901.822 353.372C903.622 353.372 905.297 353.662 906.847 354.242C908.41 354.81 909.771 355.669 910.931 356.817C912.103 357.965 913.014 359.409 913.665 361.149C914.316 362.877 914.642 364.902 914.642 367.222V369.299H891.613V364.612H907.522C907.522 363.522 907.285 362.558 906.812 361.717C906.338 360.877 905.681 360.22 904.841 359.746C904.012 359.261 903.047 359.018 901.947 359.018C900.798 359.018 899.78 359.285 898.893 359.817C898.017 360.338 897.33 361.043 896.833 361.93C896.336 362.806 896.081 363.783 896.07 364.86V369.317C896.07 370.666 896.318 371.832 896.815 372.815C897.324 373.797 898.04 374.555 898.964 375.087C899.887 375.62 900.982 375.886 902.248 375.886C903.089 375.886 903.858 375.768 904.557 375.531C905.255 375.295 905.853 374.939 906.35 374.466C906.847 373.992 907.226 373.412 907.486 372.726L914.482 373.188C914.127 374.868 913.399 376.336 912.298 377.591C911.209 378.834 909.801 379.804 908.072 380.503C906.356 381.189 904.373 381.533 902.124 381.533ZM936.6 391.227V376.632H936.369C936.014 377.39 935.511 378.141 934.86 378.887C934.221 379.621 933.386 380.231 932.356 380.716C931.338 381.201 930.096 381.444 928.628 381.444C926.556 381.444 924.68 380.911 922.999 379.846C921.33 378.769 920.004 377.188 919.022 375.105C918.051 373.01 917.566 370.441 917.566 367.399C917.566 364.274 918.069 361.676 919.075 359.604C920.081 357.521 921.419 355.964 923.088 354.935C924.769 353.893 926.61 353.372 928.61 353.372C930.137 353.372 931.409 353.633 932.427 354.153C933.457 354.662 934.286 355.302 934.913 356.071C935.552 356.829 936.038 357.574 936.369 358.308H936.689V353.727H944.146V391.227H936.6ZM931.025 375.425C932.244 375.425 933.274 375.093 934.114 374.43C934.967 373.756 935.618 372.815 936.067 371.607C936.529 370.4 936.76 368.985 936.76 367.364C936.76 365.742 936.535 364.333 936.085 363.138C935.635 361.942 934.984 361.019 934.132 360.368C933.28 359.717 932.244 359.391 931.025 359.391C929.782 359.391 928.734 359.729 927.882 360.403C927.03 361.078 926.385 362.013 925.947 363.209C925.509 364.404 925.29 365.789 925.29 367.364C925.29 368.95 925.509 370.353 925.947 371.572C926.396 372.779 927.042 373.726 927.882 374.413C928.734 375.087 929.782 375.425 931.025 375.425ZM966.708 369.388V353.727H974.272V381H967.01V376.046H966.726C966.11 377.644 965.086 378.929 963.654 379.899C962.234 380.87 960.499 381.355 958.452 381.355C956.629 381.355 955.025 380.941 953.64 380.112C952.255 379.284 951.172 378.106 950.391 376.579C949.621 375.052 949.23 373.223 949.219 371.092V353.727H956.783V369.743C956.794 371.353 957.226 372.625 958.079 373.56C958.931 374.496 960.073 374.963 961.506 374.963C962.417 374.963 963.269 374.756 964.062 374.342C964.855 373.915 965.495 373.288 965.98 372.46C966.477 371.631 966.72 370.607 966.708 369.388ZM991.751 381.533C988.946 381.533 986.531 380.964 984.507 379.828C982.495 378.68 980.944 377.058 979.855 374.963C978.766 372.856 978.221 370.364 978.221 367.488C978.221 364.683 978.766 362.22 979.855 360.102C980.944 357.983 982.477 356.331 984.454 355.148C986.442 353.964 988.774 353.372 991.449 353.372C993.249 353.372 994.924 353.662 996.474 354.242C998.037 354.81 999.398 355.669 1000.56 356.817C1001.73 357.965 1002.64 359.409 1003.29 361.149C1003.94 362.877 1004.27 364.902 1004.27 367.222V369.299H981.24V364.612H997.149C997.149 363.522 996.912 362.558 996.439 361.717C995.965 360.877 995.308 360.22 994.468 359.746C993.639 359.261 992.674 359.018 991.574 359.018C990.425 359.018 989.407 359.285 988.52 359.817C987.644 360.338 986.957 361.043 986.46 361.93C985.963 362.806 985.708 363.783 985.696 364.86V369.317C985.696 370.666 985.945 371.832 986.442 372.815C986.951 373.797 987.667 374.555 988.591 375.087C989.514 375.62 990.609 375.886 991.875 375.886C992.716 375.886 993.485 375.768 994.184 375.531C994.882 375.295 995.48 374.939 995.977 374.466C996.474 373.992 996.853 373.412 997.113 372.726L1004.11 373.188C1003.75 374.868 1003.03 376.336 1001.93 377.591C1000.84 378.834 999.428 379.804 997.699 380.503C995.983 381.189 994 381.533 991.751 381.533ZM1030.9 361.504L1023.97 361.93C1023.85 361.339 1023.6 360.806 1023.21 360.332C1022.82 359.847 1022.3 359.462 1021.66 359.178C1021.04 358.882 1020.28 358.734 1019.41 358.734C1018.24 358.734 1017.25 358.983 1016.44 359.48C1015.64 359.965 1015.24 360.616 1015.24 361.433C1015.24 362.084 1015.5 362.635 1016.02 363.085C1016.54 363.534 1017.43 363.895 1018.7 364.168L1023.63 365.162C1026.29 365.706 1028.26 366.582 1029.57 367.79C1030.87 368.997 1031.52 370.583 1031.52 372.548C1031.52 374.336 1030.99 375.904 1029.94 377.254C1028.9 378.603 1027.46 379.656 1025.64 380.414C1023.83 381.16 1021.74 381.533 1019.37 381.533C1015.76 381.533 1012.89 380.781 1010.74 379.278C1008.61 377.763 1007.36 375.703 1007 373.099L1014.44 372.708C1014.66 373.809 1015.21 374.649 1016.07 375.229C1016.93 375.798 1018.04 376.082 1019.39 376.082C1020.72 376.082 1021.78 375.827 1022.59 375.318C1023.4 374.797 1023.82 374.129 1023.83 373.312C1023.82 372.625 1023.53 372.063 1022.96 371.625C1022.39 371.175 1021.52 370.832 1020.33 370.595L1015.61 369.654C1012.95 369.121 1010.96 368.198 1009.66 366.884C1008.37 365.57 1007.73 363.895 1007.73 361.859C1007.73 360.107 1008.2 358.598 1009.15 357.332C1010.1 356.065 1011.45 355.089 1013.18 354.402C1014.92 353.715 1016.95 353.372 1019.28 353.372C1022.73 353.372 1025.44 354.1 1027.42 355.556C1029.41 357.012 1030.57 358.995 1030.9 361.504ZM1049.79 353.727V359.409H1033.36V353.727H1049.79ZM1037.09 347.193H1044.66V372.619C1044.66 373.318 1044.76 373.862 1044.98 374.253C1045.19 374.632 1045.48 374.898 1045.86 375.052C1046.25 375.206 1046.7 375.283 1047.21 375.283C1047.57 375.283 1047.92 375.253 1048.28 375.194C1048.63 375.123 1048.91 375.07 1049.1 375.034L1050.28 380.663C1049.91 380.781 1049.37 380.917 1048.69 381.071C1048 381.237 1047.17 381.337 1046.18 381.373C1044.36 381.444 1042.76 381.201 1041.39 380.645C1040.03 380.089 1038.97 379.224 1038.21 378.053C1037.45 376.881 1037.08 375.401 1037.09 373.614V347.193Z" fill="#005261"/>
<path d="M247 411L1079 411" stroke="#00A8C6" stroke-width="12"/>
<path d="M246 487L444 328L656 290L864 394L1060 290" stroke="#FBBC04" stroke-width="12"/>
<path d="M317.509 210H309.271L321.824 173.636H331.732L344.267 210H336.028L326.92 181.946H326.636L317.509 210ZM316.994 195.707H336.455V201.708H316.994V195.707ZM358.555 210.533C355.761 210.533 353.358 209.941 351.346 208.757C349.345 207.562 347.807 205.904 346.729 203.786C345.664 201.667 345.131 199.228 345.131 196.47C345.131 193.677 345.67 191.226 346.747 189.119C347.836 187 349.381 185.349 351.381 184.165C353.382 182.97 355.761 182.372 358.519 182.372C360.899 182.372 362.982 182.804 364.769 183.668C366.557 184.532 367.971 185.746 369.013 187.308C370.055 188.871 370.629 190.705 370.735 192.812H363.597C363.396 191.451 362.863 190.356 361.999 189.528C361.147 188.687 360.028 188.267 358.644 188.267C357.472 188.267 356.448 188.587 355.572 189.226C354.708 189.853 354.033 190.771 353.548 191.978C353.062 193.185 352.82 194.647 352.82 196.364C352.82 198.104 353.056 199.583 353.53 200.803C354.015 202.022 354.696 202.951 355.572 203.59C356.448 204.229 357.472 204.549 358.644 204.549C359.508 204.549 360.283 204.371 360.97 204.016C361.668 203.661 362.242 203.146 362.692 202.472C363.153 201.785 363.455 200.962 363.597 200.004H370.735C370.617 202.087 370.049 203.922 369.031 205.508C368.024 207.082 366.634 208.313 364.858 209.201C363.082 210.089 360.981 210.533 358.555 210.533ZM389.084 182.727V188.409H372.66V182.727H389.084ZM376.389 176.193H383.953V201.619C383.953 202.318 384.06 202.862 384.273 203.253C384.486 203.632 384.782 203.898 385.16 204.052C385.551 204.206 386.001 204.283 386.51 204.283C386.865 204.283 387.22 204.253 387.575 204.194C387.93 204.123 388.203 204.07 388.392 204.034L389.582 209.663C389.203 209.781 388.67 209.917 387.984 210.071C387.297 210.237 386.463 210.337 385.48 210.373C383.657 210.444 382.059 210.201 380.686 209.645C379.325 209.089 378.265 208.224 377.508 207.053C376.75 205.881 376.377 204.401 376.389 202.614V176.193ZM410.501 198.388V182.727H418.065V210H410.803V205.046H410.519C409.903 206.644 408.879 207.929 407.447 208.899C406.027 209.87 404.292 210.355 402.245 210.355C400.422 210.355 398.818 209.941 397.433 209.112C396.048 208.284 394.965 207.106 394.184 205.579C393.414 204.052 393.023 202.223 393.012 200.092V182.727H400.576V198.743C400.587 200.353 401.019 201.625 401.872 202.56C402.724 203.496 403.866 203.963 405.299 203.963C406.21 203.963 407.062 203.756 407.855 203.342C408.648 202.915 409.288 202.288 409.773 201.46C410.27 200.631 410.513 199.607 410.501 198.388ZM430.892 210.515C429.152 210.515 427.601 210.213 426.24 209.609C424.879 208.994 423.802 208.088 423.009 206.893C422.227 205.685 421.837 204.182 421.837 202.383C421.837 200.868 422.115 199.595 422.671 198.565C423.228 197.536 423.985 196.707 424.944 196.08C425.903 195.452 426.992 194.979 428.211 194.659C429.442 194.339 430.732 194.115 432.082 193.984C433.668 193.819 434.946 193.665 435.917 193.523C436.888 193.369 437.592 193.144 438.03 192.848C438.468 192.552 438.687 192.114 438.687 191.534V191.428C438.687 190.303 438.332 189.433 437.622 188.817C436.923 188.202 435.929 187.894 434.639 187.894C433.277 187.894 432.194 188.196 431.389 188.8C430.584 189.392 430.052 190.137 429.791 191.037L422.796 190.469C423.151 188.812 423.849 187.379 424.891 186.172C425.932 184.953 427.276 184.018 428.921 183.366C430.578 182.704 432.496 182.372 434.674 182.372C436.189 182.372 437.639 182.55 439.024 182.905C440.421 183.26 441.658 183.81 442.735 184.556C443.824 185.302 444.682 186.261 445.31 187.433C445.937 188.593 446.251 189.983 446.251 191.605V210H439.078V206.218H438.864C438.426 207.07 437.841 207.822 437.107 208.473C436.373 209.112 435.491 209.615 434.461 209.982C433.431 210.337 432.242 210.515 430.892 210.515ZM433.058 205.295C434.171 205.295 435.153 205.076 436.006 204.638C436.858 204.188 437.527 203.584 438.012 202.827C438.497 202.069 438.74 201.211 438.74 200.252V197.358C438.503 197.512 438.178 197.654 437.764 197.784C437.361 197.902 436.905 198.015 436.396 198.121C435.887 198.216 435.378 198.305 434.869 198.388C434.36 198.459 433.899 198.524 433.484 198.583C432.597 198.713 431.821 198.92 431.158 199.205C430.496 199.489 429.981 199.873 429.614 200.359C429.247 200.832 429.063 201.424 429.063 202.134C429.063 203.164 429.436 203.951 430.182 204.496C430.939 205.028 431.898 205.295 433.058 205.295ZM458.683 173.636V210H451.119V173.636H458.683ZM474.314 210V182.727H481.523V187.539H481.843C482.411 185.941 483.358 184.68 484.684 183.757C486.009 182.834 487.596 182.372 489.442 182.372C491.312 182.372 492.905 182.84 494.218 183.775C495.532 184.698 496.408 185.953 496.846 187.539H497.13C497.687 185.977 498.693 184.728 500.149 183.793C501.617 182.846 503.351 182.372 505.351 182.372C507.896 182.372 509.962 183.183 511.548 184.805C513.146 186.415 513.945 188.699 513.945 191.658V210H506.399V193.15C506.399 191.635 505.996 190.498 505.191 189.741C504.387 188.983 503.38 188.604 502.173 188.604C500.8 188.604 499.729 189.042 498.959 189.918C498.19 190.782 497.805 191.925 497.805 193.345V210H490.472V192.99C490.472 191.652 490.087 190.587 489.318 189.794C488.56 189.001 487.56 188.604 486.317 188.604C485.477 188.604 484.719 188.817 484.044 189.244C483.382 189.658 482.855 190.244 482.464 191.001C482.074 191.747 481.878 192.623 481.878 193.629V210H474.314ZM531.349 210.533C528.543 210.533 526.129 209.964 524.104 208.828C522.092 207.68 520.542 206.058 519.453 203.963C518.363 201.856 517.819 199.364 517.819 196.488C517.819 193.683 518.363 191.22 519.453 189.102C520.542 186.983 522.074 185.331 524.051 184.148C526.04 182.964 528.372 182.372 531.047 182.372C532.846 182.372 534.521 182.662 536.072 183.242C537.634 183.81 538.996 184.669 540.156 185.817C541.328 186.965 542.239 188.409 542.89 190.149C543.541 191.877 543.867 193.902 543.867 196.222V198.299H520.837V193.612H536.747C536.747 192.522 536.51 191.558 536.036 190.717C535.563 189.877 534.906 189.22 534.065 188.746C533.237 188.261 532.272 188.018 531.171 188.018C530.023 188.018 529.005 188.285 528.117 188.817C527.241 189.338 526.555 190.043 526.058 190.93C525.56 191.806 525.306 192.783 525.294 193.86V198.317C525.294 199.666 525.543 200.832 526.04 201.815C526.549 202.797 527.265 203.555 528.188 204.087C529.112 204.62 530.207 204.886 531.473 204.886C532.314 204.886 533.083 204.768 533.781 204.531C534.48 204.295 535.078 203.939 535.575 203.466C536.072 202.992 536.451 202.412 536.711 201.726L543.707 202.188C543.352 203.868 542.624 205.336 541.523 206.591C540.434 207.834 539.025 208.804 537.297 209.503C535.581 210.189 533.598 210.533 531.349 210.533ZM547.803 210V182.727H555.011V187.539H555.331C555.899 185.941 556.846 184.68 558.172 183.757C559.498 182.834 561.084 182.372 562.93 182.372C564.801 182.372 566.393 182.84 567.707 183.775C569.021 184.698 569.897 185.953 570.335 187.539H570.619C571.175 185.977 572.181 184.728 573.637 183.793C575.105 182.846 576.839 182.372 578.84 182.372C581.385 182.372 583.45 183.183 585.036 184.805C586.634 186.415 587.433 188.699 587.433 191.658V210H579.887V193.15C579.887 191.635 579.485 190.498 578.68 189.741C577.875 188.983 576.869 188.604 575.661 188.604C574.288 188.604 573.217 189.042 572.448 189.918C571.678 190.782 571.293 191.925 571.293 193.345V210H563.96V192.99C563.96 191.652 563.576 190.587 562.806 189.794C562.049 189.001 561.048 188.604 559.805 188.604C558.965 188.604 558.207 188.817 557.533 189.244C556.87 189.658 556.343 190.244 555.953 191.001C555.562 191.747 555.367 192.623 555.367 193.629V210H547.803ZM604.731 210.533C601.973 210.533 599.587 209.947 597.575 208.775C595.575 207.591 594.03 205.946 592.941 203.839C591.852 201.72 591.307 199.264 591.307 196.47C591.307 193.653 591.852 191.191 592.941 189.084C594.03 186.965 595.575 185.32 597.575 184.148C599.587 182.964 601.973 182.372 604.731 182.372C607.489 182.372 609.868 182.964 611.868 184.148C613.881 185.32 615.431 186.965 616.52 189.084C617.609 191.191 618.154 193.653 618.154 196.47C618.154 199.264 617.609 201.72 616.52 203.839C615.431 205.946 613.881 207.591 611.868 208.775C609.868 209.947 607.489 210.533 604.731 210.533ZM604.766 204.673C606.021 204.673 607.068 204.318 607.909 203.608C608.749 202.886 609.383 201.903 609.809 200.661C610.247 199.418 610.466 198.003 610.466 196.417C610.466 194.831 610.247 193.416 609.809 192.173C609.383 190.93 608.749 189.948 607.909 189.226C607.068 188.504 606.021 188.143 604.766 188.143C603.499 188.143 602.434 188.504 601.57 189.226C600.718 189.948 600.073 190.93 599.635 192.173C599.209 193.416 598.995 194.831 598.995 196.417C598.995 198.003 599.209 199.418 599.635 200.661C600.073 201.903 600.718 202.886 601.57 203.608C602.434 204.318 603.499 204.673 604.766 204.673ZM622.072 210V182.727H629.405V187.486H629.689C630.187 185.793 631.021 184.515 632.193 183.651C633.365 182.775 634.714 182.337 636.241 182.337C636.62 182.337 637.028 182.36 637.466 182.408C637.904 182.455 638.289 182.52 638.62 182.603V189.315C638.265 189.208 637.774 189.113 637.147 189.031C636.519 188.948 635.945 188.906 635.424 188.906C634.312 188.906 633.317 189.149 632.441 189.634C631.577 190.108 630.891 190.771 630.382 191.623C629.885 192.475 629.636 193.458 629.636 194.57V210H622.072ZM647.031 220.227C646.072 220.227 645.173 220.15 644.332 219.996C643.504 219.854 642.817 219.671 642.272 219.446L643.977 213.8C644.865 214.072 645.664 214.22 646.374 214.244C647.096 214.267 647.718 214.102 648.238 213.746C648.771 213.391 649.203 212.788 649.535 211.935L649.978 210.781L640.195 182.727H648.15L653.796 202.756H654.08L659.78 182.727H667.787L657.187 212.947C656.678 214.415 655.986 215.694 655.11 216.783C654.246 217.884 653.151 218.73 651.825 219.322C650.499 219.925 648.901 220.227 647.031 220.227ZM698.72 198.388V182.727H706.284V210H699.022V205.046H698.737C698.122 206.644 697.098 207.929 695.666 208.899C694.245 209.87 692.511 210.355 690.463 210.355C688.64 210.355 687.036 209.941 685.652 209.112C684.267 208.284 683.184 207.106 682.402 205.579C681.633 204.052 681.242 202.223 681.23 200.092V182.727H688.794V198.743C688.806 200.353 689.238 201.625 690.09 202.56C690.943 203.496 692.085 203.963 693.517 203.963C694.429 203.963 695.281 203.756 696.074 203.342C696.867 202.915 697.506 202.288 697.992 201.46C698.489 200.631 698.732 199.607 698.72 198.388ZM734.026 190.504L727.101 190.93C726.983 190.339 726.728 189.806 726.337 189.332C725.947 188.847 725.432 188.462 724.793 188.178C724.165 187.882 723.414 187.734 722.538 187.734C721.366 187.734 720.377 187.983 719.573 188.48C718.768 188.965 718.365 189.616 718.365 190.433C718.365 191.084 718.626 191.635 719.146 192.085C719.667 192.534 720.561 192.895 721.828 193.168L726.764 194.162C729.415 194.706 731.392 195.582 732.694 196.79C733.996 197.997 734.647 199.583 734.647 201.548C734.647 203.336 734.12 204.904 733.067 206.254C732.025 207.603 730.593 208.656 728.77 209.414C726.959 210.16 724.87 210.533 722.502 210.533C718.892 210.533 716.015 209.781 713.873 208.278C711.742 206.763 710.493 204.703 710.127 202.099L717.566 201.708C717.791 202.809 718.336 203.649 719.2 204.229C720.064 204.798 721.171 205.082 722.52 205.082C723.846 205.082 724.911 204.827 725.716 204.318C726.533 203.797 726.947 203.129 726.959 202.312C726.947 201.625 726.657 201.063 726.089 200.625C725.521 200.175 724.645 199.832 723.461 199.595L718.738 198.654C716.075 198.121 714.092 197.198 712.79 195.884C711.5 194.57 710.854 192.895 710.854 190.859C710.854 189.107 711.328 187.598 712.275 186.332C713.234 185.065 714.577 184.089 716.305 183.402C718.046 182.715 720.082 182.372 722.413 182.372C725.858 182.372 728.569 183.1 730.546 184.556C732.534 186.012 733.694 187.995 734.026 190.504ZM746.187 210.515C744.447 210.515 742.896 210.213 741.535 209.609C740.174 208.994 739.097 208.088 738.304 206.893C737.522 205.685 737.132 204.182 737.132 202.383C737.132 200.868 737.41 199.595 737.966 198.565C738.523 197.536 739.28 196.707 740.239 196.08C741.198 195.452 742.287 194.979 743.506 194.659C744.737 194.339 746.027 194.115 747.377 193.984C748.963 193.819 750.241 193.665 751.212 193.523C752.183 193.369 752.887 193.144 753.325 192.848C753.763 192.552 753.982 192.114 753.982 191.534V191.428C753.982 190.303 753.627 189.433 752.916 188.817C752.218 188.202 751.224 187.894 749.934 187.894C748.572 187.894 747.489 188.196 746.684 188.8C745.879 189.392 745.347 190.137 745.086 191.037L738.09 190.469C738.446 188.812 739.144 187.379 740.186 186.172C741.227 184.953 742.571 184.018 744.216 183.366C745.873 182.704 747.791 182.372 749.969 182.372C751.484 182.372 752.934 182.55 754.319 182.905C755.716 183.26 756.953 183.81 758.03 184.556C759.119 185.302 759.977 186.261 760.605 187.433C761.232 188.593 761.546 189.983 761.546 191.605V210H754.372V206.218H754.159C753.721 207.07 753.135 207.822 752.402 208.473C751.668 209.112 750.786 209.615 749.756 209.982C748.726 210.337 747.536 210.515 746.187 210.515ZM748.353 205.295C749.466 205.295 750.448 205.076 751.301 204.638C752.153 204.188 752.822 203.584 753.307 202.827C753.792 202.069 754.035 201.211 754.035 200.252V197.358C753.798 197.512 753.473 197.654 753.059 197.784C752.656 197.902 752.2 198.015 751.691 198.121C751.182 198.216 750.673 198.305 750.164 198.388C749.655 198.459 749.194 198.524 748.779 198.583C747.892 198.713 747.116 198.92 746.453 199.205C745.791 199.489 745.276 199.873 744.909 200.359C744.542 200.832 744.358 201.424 744.358 202.134C744.358 203.164 744.731 203.951 745.477 204.496C746.234 205.028 747.193 205.295 748.353 205.295ZM778.701 220.795C776.251 220.795 774.15 220.458 772.398 219.783C770.658 219.121 769.273 218.215 768.243 217.067C767.213 215.919 766.544 214.628 766.236 213.196L773.232 212.255C773.445 212.799 773.783 213.308 774.244 213.782C774.706 214.255 775.315 214.634 776.073 214.918C776.842 215.214 777.778 215.362 778.878 215.362C780.524 215.362 781.879 214.96 782.945 214.155C784.022 213.362 784.56 212.03 784.56 210.16V205.17H784.241C783.909 205.928 783.412 206.644 782.749 207.319C782.086 207.994 781.234 208.544 780.192 208.97C779.151 209.396 777.908 209.609 776.464 209.609C774.416 209.609 772.552 209.136 770.871 208.189C769.202 207.23 767.87 205.768 766.876 203.803C765.893 201.826 765.402 199.329 765.402 196.31C765.402 193.221 765.905 190.64 766.911 188.569C767.917 186.497 769.255 184.947 770.924 183.917C772.605 182.887 774.445 182.372 776.446 182.372C777.973 182.372 779.251 182.633 780.281 183.153C781.311 183.662 782.14 184.302 782.767 185.071C783.406 185.829 783.897 186.574 784.241 187.308H784.525V182.727H792.035V210.266C792.035 212.586 791.467 214.528 790.331 216.09C789.195 217.653 787.62 218.825 785.608 219.606C783.607 220.399 781.305 220.795 778.701 220.795ZM778.861 203.928C780.08 203.928 781.11 203.626 781.95 203.022C782.802 202.406 783.454 201.531 783.903 200.394C784.365 199.246 784.596 197.873 784.596 196.275C784.596 194.677 784.371 193.292 783.921 192.12C783.471 190.936 782.82 190.019 781.968 189.368C781.116 188.717 780.08 188.391 778.861 188.391C777.618 188.391 776.57 188.729 775.718 189.403C774.866 190.066 774.221 190.99 773.783 192.173C773.345 193.357 773.126 194.724 773.126 196.275C773.126 197.849 773.345 199.21 773.783 200.359C774.232 201.495 774.878 202.377 775.718 203.004C776.57 203.62 777.618 203.928 778.861 203.928ZM809.484 210.533C806.678 210.533 804.263 209.964 802.239 208.828C800.227 207.68 798.676 206.058 797.587 203.963C796.498 201.856 795.954 199.364 795.954 196.488C795.954 193.683 796.498 191.22 797.587 189.102C798.676 186.983 800.209 185.331 802.186 184.148C804.175 182.964 806.507 182.372 809.182 182.372C810.981 182.372 812.656 182.662 814.207 183.242C815.769 183.81 817.13 184.669 818.29 185.817C819.462 186.965 820.374 188.409 821.025 190.149C821.676 191.877 822.001 193.902 822.001 196.222V198.299H798.972V193.612H814.881C814.881 192.522 814.645 191.558 814.171 190.717C813.698 189.877 813.041 189.22 812.2 188.746C811.372 188.261 810.407 188.018 809.306 188.018C808.158 188.018 807.14 188.285 806.252 188.817C805.376 189.338 804.69 190.043 804.192 190.93C803.695 191.806 803.441 192.783 803.429 193.86V198.317C803.429 199.666 803.677 200.832 804.175 201.815C804.684 202.797 805.4 203.555 806.323 204.087C807.246 204.62 808.341 204.886 809.608 204.886C810.448 204.886 811.218 204.768 811.916 204.531C812.614 204.295 813.212 203.939 813.709 203.466C814.207 202.992 814.585 202.412 814.846 201.726L821.842 202.188C821.486 203.868 820.758 205.336 819.658 206.591C818.569 207.834 817.16 208.804 815.432 209.503C813.715 210.189 811.733 210.533 809.484 210.533Z" fill="#977102"/>
</svg>
