<svg width="1200" height="900" viewBox="0 0 1200 900" fill="none" xmlns="http://www.w3.org/2000/svg">
<rect width="1200" height="900" fill="white"/>
<path fill-rule="evenodd" clip-rule="evenodd" d="M712.52 106.345V804.292C712.52 813.548 705.01 821.051 695.749 821.051H105.771C96.5106 821.051 89 813.548 89 804.292V106.345C89 97.0891 96.5093 89.5859 105.771 89.5859H695.749C705.009 89.5859 712.52 97.0891 712.52 106.345Z" fill="#D2D2D2"/>
<path fill-rule="evenodd" clip-rule="evenodd" d="M195.964 787.534H688.372V800.398H195.964V787.534ZM195.964 766.832H688.372V779.696H195.964V766.832ZM195.964 747.116H688.372V759.98H195.964V747.116ZM112.664 112.259H688.372V125.075H112.664V112.259Z" fill="#A3A3A3"/>
<path fill-rule="evenodd" clip-rule="evenodd" d="M119.386 147.787H682.131C683.012 147.787 683.885 147.96 684.699 148.297C685.513 148.634 686.252 149.128 686.875 149.751C687.498 150.374 687.993 151.113 688.33 151.927C688.667 152.741 688.841 153.613 688.841 154.494V717.175C688.841 718.954 688.134 720.66 686.876 721.918C685.618 723.177 683.912 723.883 682.133 723.883H119.385C117.606 723.883 115.9 723.177 114.642 721.918C113.384 720.66 112.677 718.954 112.677 717.175V154.494C112.677 152.715 113.384 151.009 114.642 149.751C115.9 148.493 117.606 147.787 119.385 147.787H119.386Z" fill="#FDDFE1"/>
<path d="M112.417 178.308H689.111V718.034C689.111 719.668 688.462 721.236 687.307 722.391C686.151 723.547 684.584 724.196 682.95 724.196H118.578C116.944 724.196 115.377 723.547 114.222 722.391C113.066 721.236 112.417 719.668 112.417 718.034V178.308Z" fill="#EFFFBD"/>
<path d="M112.417 527.036H689.111V718.035C689.111 719.67 688.462 721.237 687.307 722.392C686.151 723.548 684.584 724.197 682.95 724.197H118.578C116.944 724.197 115.377 723.548 114.222 722.392C113.066 721.237 112.417 719.67 112.417 718.035V527.036Z" fill="#66E8FF"/>
<path d="M112.417 662.582H689.111V714.337C689.111 716.951 688.073 719.459 686.224 721.307C684.375 723.156 681.868 724.195 679.253 724.195H122.275C119.661 724.195 117.153 723.156 115.304 721.307C113.456 719.459 112.417 716.951 112.417 714.337V662.582Z" fill="#00A8C6"/>
<path d="M89 178.308L712.52 179.54" stroke="black" stroke-width="13.5548" stroke-dasharray="36.97 36.97"/>
<rect x="274" y="342" width="254" height="185" fill="#FCC936"/>
<rect x="300" y="353" width="201" height="166" fill="#8FBE00"/>
<rect x="333.213" y="370.373" width="134.981" height="134.981" stroke="#415700" stroke-width="3"/>
<rect x="529.379" y="370.373" width="134.981" height="134.981" stroke="#8FBE00" stroke-width="3"/>
<rect x="137.048" y="205.793" width="134.981" height="134.981" stroke="#8FBE00" stroke-width="3"/>
<rect x="333.213" y="205.793" width="134.981" height="134.981" stroke="#8FBE00" stroke-width="3"/>
<rect x="529.379" y="205.793" width="134.981" height="134.981" stroke="#8FBE00" stroke-width="3"/>
<rect x="137.048" y="370.373" width="134.981" height="134.981" stroke="#8FBE00" stroke-width="3"/>
<path d="M830.125 645.578C829.943 644.63 829.779 643.5 829.633 642.188C829.523 640.839 829.396 639.49 829.25 638.141C829.104 636.755 828.922 635.461 828.703 634.258C828.521 633.055 828.229 632.07 827.828 631.305C825.969 635.096 824.328 638.086 822.906 640.273C821.484 642.424 820.227 643.974 819.133 644.922C818.076 645.833 817.182 646.271 816.453 646.234C815.724 646.198 815.122 645.87 814.648 645.25C814.174 644.63 813.828 643.846 813.609 642.898C813.427 641.914 813.299 641.003 813.227 640.164C813.227 639.362 813.409 638.232 813.773 636.773C814.138 635.315 814.63 633.729 815.25 632.016C815.87 630.266 816.599 628.497 817.438 626.711C818.312 624.924 819.242 623.302 820.227 621.844C821.211 620.385 822.232 619.182 823.289 618.234C824.346 617.286 825.404 616.812 826.461 616.812C828.029 616.557 829.177 616.904 829.906 617.852C830.672 618.763 830.818 620.312 830.344 622.5C830.344 624.906 830.435 626.966 830.617 628.68C830.836 630.393 831.055 632.034 831.273 633.602C831.529 635.169 831.747 636.81 831.93 638.523C832.148 640.237 832.258 642.297 832.258 644.703C832.258 645.141 832.203 645.523 832.094 645.852C832.021 646.143 831.583 646.289 830.781 646.289C830.672 646.289 830.526 646.198 830.344 646.016C830.198 645.833 830.125 645.688 830.125 645.578ZM827.172 621.133C826.771 620.549 826.224 620.495 825.531 620.969C824.839 621.443 824.109 622.227 823.344 623.32C822.578 624.414 821.794 625.727 820.992 627.258C820.19 628.789 819.443 630.339 818.75 631.906C818.057 633.474 817.456 634.969 816.945 636.391C816.435 637.776 816.089 638.924 815.906 639.836C815.906 641.148 816.107 641.896 816.508 642.078C816.909 642.224 817.401 642.005 817.984 641.422C818.568 640.839 819.224 640 819.953 638.906C820.719 637.812 821.448 636.646 822.141 635.406C822.87 634.167 823.544 632.964 824.164 631.797C824.82 630.63 825.331 629.682 825.695 628.953C826.023 628.188 826.279 627.477 826.461 626.82C826.643 626.164 826.789 625.544 826.898 624.961C827.044 624.341 827.117 623.721 827.117 623.102C827.154 622.482 827.172 621.826 827.172 621.133ZM835.102 634.422C835.211 633.109 835.32 631.688 835.43 630.156C835.539 628.589 835.703 627.039 835.922 625.508C836.177 623.977 836.487 622.518 836.852 621.133C837.253 619.747 837.763 618.526 838.383 617.469C839.039 616.375 839.841 615.518 840.789 614.898C841.737 614.242 842.885 613.932 844.234 613.969C845.146 613.969 845.839 614.352 846.312 615.117C846.823 615.883 847.169 616.812 847.352 617.906C847.57 619 847.68 620.13 847.68 621.297C847.716 622.427 847.734 623.357 847.734 624.086C847.005 624.086 846.404 623.776 845.93 623.156C845.456 622.5 845.091 621.753 844.836 620.914C844.581 620.076 844.398 619.255 844.289 618.453L844.125 616.867C844.089 616.867 844.016 616.867 843.906 616.867C843.833 616.831 843.779 616.812 843.742 616.812C843.122 616.812 842.539 617.159 841.992 617.852C841.482 618.544 840.99 619.438 840.516 620.531C840.078 621.589 839.695 622.792 839.367 624.141C839.039 625.453 838.766 626.747 838.547 628.023C838.328 629.299 838.146 630.484 838 631.578C837.891 632.635 837.836 633.456 837.836 634.039C837.763 634.987 837.763 636.026 837.836 637.156C837.909 638.286 838.128 639.344 838.492 640.328C838.857 641.312 839.367 642.169 840.023 642.898C840.68 643.591 841.555 644.065 842.648 644.32C843.997 644.32 845.091 644.138 845.93 643.773C846.768 643.409 847.443 642.917 847.953 642.297C848.5 641.677 848.919 640.984 849.211 640.219C849.503 639.453 849.776 638.669 850.031 637.867C850.323 637.029 850.615 636.208 850.906 635.406C851.198 634.604 851.617 633.857 852.164 633.164C852.602 633.055 852.911 633.073 853.094 633.219C853.312 633.328 853.458 633.492 853.531 633.711C853.604 633.93 853.641 634.185 853.641 634.477V635.078C853.641 636.609 853.385 638.086 852.875 639.508C852.365 640.93 851.617 642.206 850.633 643.336C849.648 644.43 848.464 645.323 847.078 646.016C845.729 646.672 844.18 647 842.43 647C840.971 647 839.75 646.544 838.766 645.633C837.818 644.685 837.07 643.555 836.523 642.242C836.013 640.93 835.648 639.562 835.43 638.141C835.211 636.682 835.102 635.443 835.102 634.422ZM858.453 623.648C858.089 623.831 857.742 624.031 857.414 624.25C857.122 624.432 856.831 624.615 856.539 624.797C856.247 624.943 855.956 625.052 855.664 625.125C855.372 625.198 855.062 625.198 854.734 625.125C854.516 625.125 854.333 624.997 854.188 624.742C854.042 624.451 853.932 624.141 853.859 623.812C853.75 623.448 853.677 623.102 853.641 622.773C853.604 622.409 853.604 622.135 853.641 621.953L858.891 618.945L859.219 604.945C859.292 604.471 859.583 604.289 860.094 604.398C860.604 604.471 861.133 604.581 861.68 604.727C861.753 604.727 861.862 604.763 862.008 604.836C862.19 604.872 862.318 604.909 862.391 604.945C862.318 605.93 862.227 607.005 862.117 608.172C862.044 609.302 861.971 610.451 861.898 611.617C861.826 612.747 861.771 613.859 861.734 614.953C861.734 616.047 861.789 617.031 861.898 617.906L870.102 615.609C870.247 615.573 870.357 615.682 870.43 615.938C870.539 616.156 870.63 616.43 870.703 616.758C870.812 617.086 870.885 617.414 870.922 617.742C870.958 618.07 870.977 618.234 870.977 618.234L861.68 622.172C861.68 622.5 861.698 623.284 861.734 624.523C861.807 625.763 861.88 627.24 861.953 628.953C862.026 630.63 862.099 632.453 862.172 634.422C862.245 636.354 862.318 638.159 862.391 639.836C862.464 641.513 862.518 642.99 862.555 644.266C862.591 645.505 862.609 646.289 862.609 646.617C862.536 647.711 862.208 648.258 861.625 648.258C861.078 648.258 860.477 647.984 859.82 647.438L858.453 623.648ZM885.906 640.656C885.76 641.094 885.396 641.695 884.812 642.461C884.266 643.19 883.609 643.938 882.844 644.703C882.078 645.432 881.276 646.089 880.438 646.672C879.635 647.219 878.924 647.492 878.305 647.492C877.138 647.492 876.172 646.945 875.406 645.852C874.677 644.758 874.112 643.354 873.711 641.641C873.31 639.927 873.036 638.031 872.891 635.953C872.745 633.839 872.654 631.779 872.617 629.773C872.581 627.768 872.562 625.945 872.562 624.305C872.562 622.664 872.508 621.424 872.398 620.586C872.544 620.221 872.727 620.003 872.945 619.93C873.201 619.857 873.492 619.82 873.82 619.82C874.112 619.82 874.367 619.857 874.586 619.93C874.841 620.003 875.06 620.221 875.242 620.586C875.242 620.987 875.242 621.661 875.242 622.609C875.279 623.557 875.333 624.633 875.406 625.836C875.479 627.003 875.552 628.242 875.625 629.555C875.698 630.831 875.753 632.052 875.789 633.219C875.862 634.385 875.917 635.443 875.953 636.391C876.026 637.302 876.081 637.977 876.117 638.414C876.154 638.669 876.19 639.089 876.227 639.672C876.299 640.255 876.391 640.875 876.5 641.531C876.646 642.151 876.81 642.716 876.992 643.227C877.211 643.737 877.484 644.01 877.812 644.047C878.359 644.047 878.906 643.81 879.453 643.336C880.036 642.862 880.602 642.26 881.148 641.531C881.695 640.802 882.206 640 882.68 639.125C883.154 638.25 883.573 637.411 883.938 636.609C884.339 635.771 884.63 635.023 884.812 634.367C885.031 633.711 885.159 633.237 885.195 632.945C885.268 632.326 885.341 631.451 885.414 630.32C885.487 629.154 885.542 627.914 885.578 626.602C885.615 625.289 885.633 624.049 885.633 622.883C885.669 621.716 885.688 620.823 885.688 620.203L888.695 620.367C888.732 623.32 888.714 626 888.641 628.406C888.568 630.776 888.549 633.018 888.586 635.133C888.622 637.211 888.786 639.234 889.078 641.203C889.37 643.172 889.898 645.214 890.664 647.328C890.555 647.438 890.336 647.583 890.008 647.766C889.68 647.984 889.443 648.094 889.297 648.094C888.385 648.094 887.766 647.784 887.438 647.164C887.146 646.581 886.945 645.888 886.836 645.086C886.763 644.247 886.69 643.427 886.617 642.625C886.581 641.786 886.344 641.13 885.906 640.656ZM909.258 645.578C909.076 644.63 908.911 643.5 908.766 642.188C908.656 640.839 908.529 639.49 908.383 638.141C908.237 636.755 908.055 635.461 907.836 634.258C907.654 633.055 907.362 632.07 906.961 631.305C905.102 635.096 903.461 638.086 902.039 640.273C900.617 642.424 899.359 643.974 898.266 644.922C897.208 645.833 896.315 646.271 895.586 646.234C894.857 646.198 894.255 645.87 893.781 645.25C893.307 644.63 892.961 643.846 892.742 642.898C892.56 641.914 892.432 641.003 892.359 640.164C892.359 639.362 892.542 638.232 892.906 636.773C893.271 635.315 893.763 633.729 894.383 632.016C895.003 630.266 895.732 628.497 896.57 626.711C897.445 624.924 898.375 623.302 899.359 621.844C900.344 620.385 901.365 619.182 902.422 618.234C903.479 617.286 904.536 616.812 905.594 616.812C907.161 616.557 908.31 616.904 909.039 617.852C909.805 618.763 909.951 620.312 909.477 622.5C909.477 624.906 909.568 626.966 909.75 628.68C909.969 630.393 910.188 632.034 910.406 633.602C910.661 635.169 910.88 636.81 911.062 638.523C911.281 640.237 911.391 642.297 911.391 644.703C911.391 645.141 911.336 645.523 911.227 645.852C911.154 646.143 910.716 646.289 909.914 646.289C909.805 646.289 909.659 646.198 909.477 646.016C909.331 645.833 909.258 645.688 909.258 645.578ZM906.305 621.133C905.904 620.549 905.357 620.495 904.664 620.969C903.971 621.443 903.242 622.227 902.477 623.32C901.711 624.414 900.927 625.727 900.125 627.258C899.323 628.789 898.576 630.339 897.883 631.906C897.19 633.474 896.589 634.969 896.078 636.391C895.568 637.776 895.221 638.924 895.039 639.836C895.039 641.148 895.24 641.896 895.641 642.078C896.042 642.224 896.534 642.005 897.117 641.422C897.701 640.839 898.357 640 899.086 638.906C899.852 637.812 900.581 636.646 901.273 635.406C902.003 634.167 902.677 632.964 903.297 631.797C903.953 630.63 904.464 629.682 904.828 628.953C905.156 628.188 905.411 627.477 905.594 626.82C905.776 626.164 905.922 625.544 906.031 624.961C906.177 624.341 906.25 623.721 906.25 623.102C906.286 622.482 906.305 621.826 906.305 621.133ZM915.383 644.211C915.638 642.534 915.802 640.438 915.875 637.922C915.984 635.406 916.021 632.727 915.984 629.883C915.984 627.039 915.93 624.104 915.82 621.078C915.711 618.052 915.565 615.19 915.383 612.492C915.201 609.758 914.982 607.315 914.727 605.164C914.508 603.013 914.271 601.318 914.016 600.078C914.344 599.859 914.617 599.695 914.836 599.586C915.091 599.44 915.383 599.367 915.711 599.367C915.966 599.367 916.185 599.422 916.367 599.531C916.549 599.604 916.695 599.786 916.805 600.078C917.534 607.224 918.026 614.424 918.281 621.68C918.573 628.935 918.792 636.154 918.938 643.336C918.938 643.664 918.938 644.12 918.938 644.703C918.938 645.25 918.919 645.542 918.883 645.578C918.372 645.833 917.917 645.961 917.516 645.961C917.115 645.924 916.75 645.815 916.422 645.633C916.094 645.414 915.839 645.177 915.656 644.922C915.474 644.667 915.383 644.43 915.383 644.211ZM961.047 640.656C960.901 641.094 960.536 641.695 959.953 642.461C959.406 643.19 958.75 643.938 957.984 644.703C957.219 645.432 956.417 646.089 955.578 646.672C954.776 647.219 954.065 647.492 953.445 647.492C952.279 647.492 951.312 646.945 950.547 645.852C949.818 644.758 949.253 643.354 948.852 641.641C948.451 639.927 948.177 638.031 948.031 635.953C947.885 633.839 947.794 631.779 947.758 629.773C947.721 627.768 947.703 625.945 947.703 624.305C947.703 622.664 947.648 621.424 947.539 620.586C947.685 620.221 947.867 620.003 948.086 619.93C948.341 619.857 948.633 619.82 948.961 619.82C949.253 619.82 949.508 619.857 949.727 619.93C949.982 620.003 950.201 620.221 950.383 620.586C950.383 620.987 950.383 621.661 950.383 622.609C950.419 623.557 950.474 624.633 950.547 625.836C950.62 627.003 950.693 628.242 950.766 629.555C950.839 630.831 950.893 632.052 950.93 633.219C951.003 634.385 951.057 635.443 951.094 636.391C951.167 637.302 951.221 637.977 951.258 638.414C951.294 638.669 951.331 639.089 951.367 639.672C951.44 640.255 951.531 640.875 951.641 641.531C951.786 642.151 951.951 642.716 952.133 643.227C952.352 643.737 952.625 644.01 952.953 644.047C953.5 644.047 954.047 643.81 954.594 643.336C955.177 642.862 955.742 642.26 956.289 641.531C956.836 640.802 957.346 640 957.82 639.125C958.294 638.25 958.714 637.411 959.078 636.609C959.479 635.771 959.771 635.023 959.953 634.367C960.172 633.711 960.299 633.237 960.336 632.945C960.409 632.326 960.482 631.451 960.555 630.32C960.628 629.154 960.682 627.914 960.719 626.602C960.755 625.289 960.773 624.049 960.773 622.883C960.81 621.716 960.828 620.823 960.828 620.203L963.836 620.367C963.872 623.32 963.854 626 963.781 628.406C963.708 630.776 963.69 633.018 963.727 635.133C963.763 637.211 963.927 639.234 964.219 641.203C964.51 643.172 965.039 645.214 965.805 647.328C965.695 647.438 965.477 647.583 965.148 647.766C964.82 647.984 964.583 648.094 964.438 648.094C963.526 648.094 962.906 647.784 962.578 647.164C962.286 646.581 962.086 645.888 961.977 645.086C961.904 644.247 961.831 643.427 961.758 642.625C961.721 641.786 961.484 641.13 961.047 640.656ZM973.188 646.18C973.188 646.216 973.57 645.997 974.336 645.523C975.138 645.049 976.068 644.43 977.125 643.664C978.219 642.862 979.331 642.005 980.461 641.094C981.591 640.146 982.521 639.253 983.25 638.414C983.979 637.576 984.362 636.865 984.398 636.281C984.471 635.661 983.979 635.26 982.922 635.078C981.609 634.896 980.497 634.914 979.586 635.133C978.711 635.352 977.909 635.607 977.18 635.898C976.451 636.19 975.758 636.464 975.102 636.719C974.482 636.974 973.789 637.065 973.023 636.992C971.419 636.992 970.307 636.5 969.688 635.516C969.104 634.495 968.812 633.128 968.812 631.414C968.812 629.701 969.195 628.078 969.961 626.547C970.727 624.979 971.711 623.63 972.914 622.5C974.117 621.37 975.503 620.477 977.07 619.82C978.638 619.128 980.242 618.781 981.883 618.781C982.539 618.781 983.104 618.836 983.578 618.945C984.052 619.055 984.289 619.474 984.289 620.203C984.289 620.714 984.07 621.206 983.633 621.68C983.195 622.117 982.703 622.336 982.156 622.336C982.12 622.336 982.029 622.318 981.883 622.281C981.737 622.208 981.591 622.117 981.445 622.008C981.299 621.898 981.154 621.826 981.008 621.789C980.862 621.716 980.771 621.68 980.734 621.68C979.568 621.352 978.438 621.516 977.344 622.172C976.25 622.828 975.266 623.721 974.391 624.852C973.552 625.945 972.878 627.148 972.367 628.461C971.857 629.737 971.602 630.885 971.602 631.906C971.602 632.307 971.674 632.635 971.82 632.891C972.003 633.109 972.221 633.273 972.477 633.383C972.768 633.492 973.078 633.565 973.406 633.602C973.771 633.602 974.135 633.602 974.5 633.602C975.229 633.602 975.958 633.492 976.688 633.273C977.453 633.055 978.182 632.799 978.875 632.508C979.604 632.216 980.333 631.961 981.062 631.742C981.828 631.523 982.612 631.414 983.414 631.414C983.779 631.414 984.18 631.523 984.617 631.742C985.055 631.924 985.456 632.216 985.82 632.617C986.185 632.982 986.495 633.419 986.75 633.93C987.005 634.404 987.151 634.932 987.188 635.516C987.406 636.026 987.333 636.701 986.969 637.539C986.641 638.378 986.13 639.271 985.438 640.219C984.745 641.167 983.906 642.133 982.922 643.117C981.938 644.065 980.953 644.94 979.969 645.742C978.984 646.508 978.018 647.128 977.07 647.602C976.122 648.112 975.32 648.349 974.664 648.312C973.935 648.312 973.497 648.094 973.352 647.656C973.242 647.219 973.188 646.727 973.188 646.18ZM1004.91 645.578C1004.72 644.63 1004.56 643.5 1004.41 642.188C1004.3 640.839 1004.18 639.49 1004.03 638.141C1003.89 636.755 1003.7 635.461 1003.48 634.258C1003.3 633.055 1003.01 632.07 1002.61 631.305C1000.75 635.096 999.109 638.086 997.688 640.273C996.266 642.424 995.008 643.974 993.914 644.922C992.857 645.833 991.964 646.271 991.234 646.234C990.505 646.198 989.904 645.87 989.43 645.25C988.956 644.63 988.609 643.846 988.391 642.898C988.208 641.914 988.081 641.003 988.008 640.164C988.008 639.362 988.19 638.232 988.555 636.773C988.919 635.315 989.411 633.729 990.031 632.016C990.651 630.266 991.38 628.497 992.219 626.711C993.094 624.924 994.023 623.302 995.008 621.844C995.992 620.385 997.013 619.182 998.07 618.234C999.128 617.286 1000.18 616.812 1001.24 616.812C1002.81 616.557 1003.96 616.904 1004.69 617.852C1005.45 618.763 1005.6 620.312 1005.12 622.5C1005.12 624.906 1005.22 626.966 1005.4 628.68C1005.62 630.393 1005.84 632.034 1006.05 633.602C1006.31 635.169 1006.53 636.81 1006.71 638.523C1006.93 640.237 1007.04 642.297 1007.04 644.703C1007.04 645.141 1006.98 645.523 1006.88 645.852C1006.8 646.143 1006.36 646.289 1005.56 646.289C1005.45 646.289 1005.31 646.198 1005.12 646.016C1004.98 645.833 1004.91 645.688 1004.91 645.578ZM1001.95 621.133C1001.55 620.549 1001.01 620.495 1000.31 620.969C999.62 621.443 998.891 622.227 998.125 623.32C997.359 624.414 996.576 625.727 995.773 627.258C994.971 628.789 994.224 630.339 993.531 631.906C992.839 633.474 992.237 634.969 991.727 636.391C991.216 637.776 990.87 638.924 990.688 639.836C990.688 641.148 990.888 641.896 991.289 642.078C991.69 642.224 992.182 642.005 992.766 641.422C993.349 640.839 994.005 640 994.734 638.906C995.5 637.812 996.229 636.646 996.922 635.406C997.651 634.167 998.326 632.964 998.945 631.797C999.602 630.63 1000.11 629.682 1000.48 628.953C1000.8 628.188 1001.06 627.477 1001.24 626.82C1001.42 626.164 1001.57 625.544 1001.68 624.961C1001.83 624.341 1001.9 623.721 1001.9 623.102C1001.93 622.482 1001.95 621.826 1001.95 621.133ZM1013.66 668.383C1016.86 668.201 1019.38 667.362 1021.2 665.867C1023.06 664.372 1024.45 662.44 1025.36 660.07C1026.27 657.701 1026.82 654.984 1027 651.922C1027.18 648.896 1027.2 645.76 1027.05 642.516C1026.91 639.271 1026.69 636.026 1026.4 632.781C1026.14 629.5 1026.03 626.456 1026.07 623.648C1024.5 628.242 1023.03 631.961 1021.64 634.805C1020.26 637.612 1018.96 639.745 1017.76 641.203C1016.59 642.625 1015.52 643.5 1014.53 643.828C1013.58 644.12 1012.74 644.065 1012.02 643.664C1011.29 643.227 1010.68 642.552 1010.21 641.641C1009.77 640.693 1009.46 639.727 1009.28 638.742C1009.35 637.065 1009.68 635.224 1010.27 633.219C1010.89 631.177 1011.67 629.19 1012.62 627.258C1013.6 625.289 1014.73 623.466 1016.01 621.789C1017.28 620.076 1018.63 618.745 1020.05 617.797C1021.48 616.812 1022.95 616.302 1024.48 616.266C1026.02 616.193 1027.49 616.776 1028.91 618.016C1028.95 618.052 1029.01 618.544 1029.08 619.492C1029.19 620.404 1029.3 621.625 1029.41 623.156C1029.55 624.651 1029.7 626.346 1029.84 628.242C1030.03 630.102 1030.19 631.997 1030.34 633.93C1030.48 635.826 1030.61 637.648 1030.72 639.398C1030.83 641.148 1030.94 642.661 1031.05 643.938C1031.19 646.016 1031.1 648.221 1030.77 650.555C1030.48 652.888 1030.01 655.148 1029.35 657.336C1028.7 659.56 1027.86 661.638 1026.84 663.57C1025.85 665.503 1024.7 667.089 1023.39 668.328C1022.11 669.568 1020.67 670.352 1019.07 670.68C1017.5 671.044 1015.83 670.771 1014.04 669.859C1013.93 669.859 1013.77 669.841 1013.55 669.805C1013.33 669.805 1013.15 669.75 1013 669.641C1012.89 669.531 1012.87 669.385 1012.95 669.203C1013.02 669.021 1013.26 668.747 1013.66 668.383ZM1012.12 638.359C1012.49 639.49 1012.96 640.073 1013.55 640.109C1014.17 640.109 1014.82 639.727 1015.52 638.961C1016.21 638.159 1016.96 637.047 1017.76 635.625C1018.6 634.203 1019.42 632.654 1020.22 630.977C1021.02 629.299 1021.8 627.586 1022.57 625.836C1023.37 624.049 1024.12 622.391 1024.81 620.859C1024.81 620.458 1024.72 620.094 1024.54 619.766C1024.36 619.401 1023.96 619.292 1023.34 619.438C1022.32 619.656 1021.31 620.148 1020.33 620.914C1019.38 621.68 1018.49 622.628 1017.65 623.758C1016.85 624.852 1016.1 626.073 1015.41 627.422C1014.75 628.734 1014.17 630.065 1013.66 631.414C1013.18 632.727 1012.8 633.984 1012.51 635.188C1012.25 636.391 1012.12 637.448 1012.12 638.359ZM1035.97 635.188C1035.79 635.224 1035.51 635.279 1035.15 635.352C1034.78 635.424 1034.4 635.443 1034 635.406C1033.6 635.37 1033.25 635.26 1032.96 635.078C1032.63 634.896 1032.47 634.586 1032.47 634.148C1032.47 633.893 1032.52 633.711 1032.63 633.602C1032.74 633.492 1032.92 633.328 1033.18 633.109C1033.98 632.453 1034.66 631.615 1035.2 630.594C1035.79 629.536 1036.32 628.424 1036.79 627.258C1037.26 626.055 1037.76 624.87 1038.27 623.703C1038.81 622.5 1039.43 621.424 1040.12 620.477C1040.82 619.529 1041.67 618.763 1042.7 618.18C1043.72 617.596 1044.97 617.323 1046.47 617.359C1047.09 617.359 1047.78 617.505 1048.55 617.797C1049.31 618.089 1050.02 618.49 1050.68 619C1051.34 619.474 1051.88 620.057 1052.32 620.75C1052.76 621.443 1052.98 622.208 1052.98 623.047C1053.16 623.339 1052.98 623.758 1052.43 624.305C1051.92 624.852 1051.21 625.453 1050.3 626.109C1049.39 626.729 1048.35 627.385 1047.18 628.078C1046.05 628.734 1044.96 629.354 1043.9 629.938C1042.84 630.521 1041.91 631.031 1041.11 631.469C1040.31 631.906 1039.78 632.234 1039.52 632.453C1039.34 632.818 1039.2 633.237 1039.09 633.711C1038.98 634.185 1038.89 634.641 1038.81 635.078C1038.78 635.479 1038.74 635.862 1038.7 636.227C1038.7 636.555 1038.7 636.81 1038.7 636.992C1038.7 637.685 1038.67 638.451 1038.59 639.289C1038.56 640.128 1038.59 640.93 1038.7 641.695C1038.85 642.424 1039.16 643.044 1039.63 643.555C1040.11 644.029 1040.91 644.266 1042.04 644.266C1043.24 644.266 1044.37 643.974 1045.43 643.391C1046.49 642.771 1047.47 642.023 1048.38 641.148C1049.29 640.273 1050.11 639.326 1050.84 638.305C1051.61 637.284 1052.28 636.336 1052.87 635.461C1053.49 634.549 1054.03 633.802 1054.51 633.219C1054.98 632.635 1055.38 632.344 1055.71 632.344C1056.08 632.344 1056.46 632.417 1056.86 632.562C1057.3 632.672 1057.52 632.964 1057.52 633.438C1057.52 634.094 1057.24 634.878 1056.7 635.789C1056.18 636.701 1055.49 637.667 1054.62 638.688C1053.78 639.708 1052.79 640.729 1051.66 641.75C1050.57 642.734 1049.46 643.628 1048.33 644.43C1047.2 645.195 1046.09 645.833 1044.99 646.344C1043.9 646.818 1042.93 647.055 1042.09 647.055C1040.45 647.055 1039.21 646.654 1038.38 645.852C1037.54 645.049 1036.93 644.047 1036.57 642.844C1036.24 641.641 1036.06 640.365 1036.02 639.016C1036.02 637.63 1036.01 636.354 1035.97 635.188ZM1046.03 620.422C1045.41 620.422 1044.76 620.732 1044.06 621.352C1043.37 621.935 1042.71 622.664 1042.09 623.539C1041.51 624.378 1041.02 625.253 1040.62 626.164C1040.25 627.039 1040.07 627.768 1040.07 628.352C1040.62 628.352 1041.4 628.151 1042.42 627.75C1043.48 627.312 1044.52 626.784 1045.54 626.164C1046.56 625.544 1047.45 624.888 1048.22 624.195C1048.98 623.503 1049.37 622.846 1049.37 622.227C1049.37 621.898 1049.24 621.625 1048.98 621.406C1048.73 621.188 1048.42 621.005 1048.05 620.859C1047.73 620.714 1047.38 620.604 1047.02 620.531C1046.65 620.458 1046.32 620.422 1046.03 620.422Z" fill="black"/>
<path d="M934.543 350.211C934.798 348.534 934.962 346.438 935.035 343.922C935.145 341.406 935.181 338.727 935.145 335.883C935.145 333.039 935.09 330.104 934.98 327.078C934.871 324.052 934.725 321.19 934.543 318.492C934.361 315.758 934.142 313.315 933.887 311.164C933.668 309.013 933.431 307.318 933.176 306.078C933.504 305.859 933.777 305.695 933.996 305.586C934.251 305.44 934.543 305.367 934.871 305.367C935.126 305.367 935.345 305.422 935.527 305.531C935.71 305.604 935.855 305.786 935.965 306.078C936.694 313.224 937.186 320.424 937.441 327.68C937.733 334.935 937.952 342.154 938.098 349.336C938.098 349.664 938.098 350.12 938.098 350.703C938.098 351.25 938.079 351.542 938.043 351.578C937.533 351.833 937.077 351.961 936.676 351.961C936.275 351.924 935.91 351.815 935.582 351.633C935.254 351.414 934.999 351.177 934.816 350.922C934.634 350.667 934.543 350.43 934.543 350.211ZM941.98 351.906C941.98 349.536 941.926 347.039 941.816 344.414C941.743 341.789 941.652 339.146 941.543 336.484C941.47 333.786 941.452 331.143 941.488 328.555C941.525 325.966 941.689 323.542 941.98 321.281C942.053 321.245 942.217 321.227 942.473 321.227C942.764 321.19 942.965 321.172 943.074 321.172C943.585 321.172 943.986 321.263 944.277 321.445C944.605 321.591 944.77 321.938 944.77 322.484C944.77 324.635 944.751 326.987 944.715 329.539C944.715 332.055 944.697 334.625 944.66 337.25C944.66 339.839 944.66 342.409 944.66 344.961C944.66 347.513 944.697 349.828 944.77 351.906C944.806 352.526 944.678 352.927 944.387 353.109C944.132 353.328 943.803 353.438 943.402 353.438C942.965 353.438 942.6 353.328 942.309 353.109C942.017 352.927 941.908 352.526 941.98 351.906ZM940.777 312.75C940.777 312.312 940.923 312.021 941.215 311.875C941.507 311.729 941.835 311.656 942.199 311.656C942.928 311.656 943.384 311.893 943.566 312.367C943.749 312.841 943.84 313.388 943.84 314.008C943.621 314.409 943.348 314.701 943.02 314.883C942.691 315.029 942.345 315.065 941.98 314.992C941.652 314.883 941.361 314.646 941.105 314.281C940.887 313.917 940.777 313.406 940.777 312.75ZM950.73 352.836C950.621 351.815 950.53 350.43 950.457 348.68C950.384 346.93 950.311 345.034 950.238 342.992C950.165 340.914 950.074 338.763 949.965 336.539C949.892 334.315 949.801 332.201 949.691 330.195C949.582 328.19 949.436 326.367 949.254 324.727C949.108 323.086 948.944 321.773 948.762 320.789C948.762 320.06 948.926 319.641 949.254 319.531C949.582 319.385 950.001 319.312 950.512 319.312C950.585 319.312 950.749 319.312 951.004 319.312C951.259 319.312 951.441 319.331 951.551 319.367C951.879 320.461 952.079 321.883 952.152 323.633C952.262 325.346 952.335 327.224 952.371 329.266C952.444 331.307 952.499 333.422 952.535 335.609C952.608 337.797 952.736 339.875 952.918 341.844C953.428 338.964 953.848 336.576 954.176 334.68C954.54 332.784 954.868 331.271 955.16 330.141C955.488 328.974 955.78 328.117 956.035 327.57C956.327 326.987 956.637 326.604 956.965 326.422C957.329 326.24 957.712 326.167 958.113 326.203C958.551 326.203 959.061 326.203 959.645 326.203C960.301 326.203 960.829 326.458 961.23 326.969C961.668 327.479 961.996 328.135 962.215 328.938C962.47 329.74 962.652 330.615 962.762 331.562C962.908 332.51 963.035 333.44 963.145 334.352C963.254 335.227 963.363 336.029 963.473 336.758C963.618 337.487 963.837 337.997 964.129 338.289C965.04 335.591 965.824 333.385 966.48 331.672C967.137 329.958 967.702 328.609 968.176 327.625C968.65 326.604 969.069 325.875 969.434 325.438C969.798 325 970.126 324.745 970.418 324.672C970.71 324.562 970.965 324.544 971.184 324.617C971.439 324.69 971.694 324.727 971.949 324.727C972.934 324.727 973.681 325.237 974.191 326.258C974.775 327.898 975.176 329.466 975.395 330.961C975.613 332.419 975.741 333.841 975.777 335.227C975.814 336.576 975.814 337.87 975.777 339.109C975.777 340.349 975.814 341.552 975.887 342.719C975.996 343.885 976.197 345.034 976.488 346.164C976.816 347.294 977.363 348.406 978.129 349.5C977.837 350.083 977.546 350.484 977.254 350.703C976.962 350.885 976.561 350.977 976.051 350.977C975.613 350.977 975.23 350.831 974.902 350.539C974.574 350.211 974.301 349.828 974.082 349.391C973.863 348.917 973.681 348.443 973.535 347.969C973.426 347.495 973.316 347.076 973.207 346.711C973.061 341.497 972.824 337.505 972.496 334.734C972.204 331.927 971.749 330.451 971.129 330.305C970.509 330.159 969.707 331.38 968.723 333.969C967.775 336.521 966.59 340.531 965.168 346C965.059 346.182 964.895 346.292 964.676 346.328C964.457 346.365 964.22 346.383 963.965 346.383C963.746 346.383 963.509 346.383 963.254 346.383C963.035 346.346 962.816 346.346 962.598 346.383C961.686 341.023 960.921 337.177 960.301 334.844C959.717 332.474 959.116 331.562 958.496 332.109C957.876 332.656 957.184 334.625 956.418 338.016C955.652 341.37 954.668 346.091 953.465 352.18L950.73 352.836ZM981.848 351.906C981.848 349.536 981.793 347.039 981.684 344.414C981.611 341.789 981.52 339.146 981.41 336.484C981.337 333.786 981.319 331.143 981.355 328.555C981.392 325.966 981.556 323.542 981.848 321.281C981.921 321.245 982.085 321.227 982.34 321.227C982.632 321.19 982.832 321.172 982.941 321.172C983.452 321.172 983.853 321.263 984.145 321.445C984.473 321.591 984.637 321.938 984.637 322.484C984.637 324.635 984.618 326.987 984.582 329.539C984.582 332.055 984.564 334.625 984.527 337.25C984.527 339.839 984.527 342.409 984.527 344.961C984.527 347.513 984.564 349.828 984.637 351.906C984.673 352.526 984.546 352.927 984.254 353.109C983.999 353.328 983.671 353.438 983.27 353.438C982.832 353.438 982.467 353.328 982.176 353.109C981.884 352.927 981.775 352.526 981.848 351.906ZM980.645 312.75C980.645 312.312 980.79 312.021 981.082 311.875C981.374 311.729 981.702 311.656 982.066 311.656C982.796 311.656 983.251 311.893 983.434 312.367C983.616 312.841 983.707 313.388 983.707 314.008C983.488 314.409 983.215 314.701 982.887 314.883C982.559 315.029 982.212 315.065 981.848 314.992C981.52 314.883 981.228 314.646 980.973 314.281C980.754 313.917 980.645 313.406 980.645 312.75ZM989.887 329.648C989.522 329.831 989.176 330.031 988.848 330.25C988.556 330.432 988.264 330.615 987.973 330.797C987.681 330.943 987.389 331.052 987.098 331.125C986.806 331.198 986.496 331.198 986.168 331.125C985.949 331.125 985.767 330.997 985.621 330.742C985.475 330.451 985.366 330.141 985.293 329.812C985.184 329.448 985.111 329.102 985.074 328.773C985.038 328.409 985.038 328.135 985.074 327.953L990.324 324.945L990.652 310.945C990.725 310.471 991.017 310.289 991.527 310.398C992.038 310.471 992.566 310.581 993.113 310.727C993.186 310.727 993.296 310.763 993.441 310.836C993.624 310.872 993.751 310.909 993.824 310.945C993.751 311.93 993.66 313.005 993.551 314.172C993.478 315.302 993.405 316.451 993.332 317.617C993.259 318.747 993.204 319.859 993.168 320.953C993.168 322.047 993.223 323.031 993.332 323.906L1001.54 321.609C1001.68 321.573 1001.79 321.682 1001.86 321.938C1001.97 322.156 1002.06 322.43 1002.14 322.758C1002.25 323.086 1002.32 323.414 1002.36 323.742C1002.39 324.07 1002.41 324.234 1002.41 324.234L993.113 328.172C993.113 328.5 993.132 329.284 993.168 330.523C993.241 331.763 993.314 333.24 993.387 334.953C993.46 336.63 993.533 338.453 993.605 340.422C993.678 342.354 993.751 344.159 993.824 345.836C993.897 347.513 993.952 348.99 993.988 350.266C994.025 351.505 994.043 352.289 994.043 352.617C993.97 353.711 993.642 354.258 993.059 354.258C992.512 354.258 991.91 353.984 991.254 353.438L989.887 329.648Z" fill="black"/>
<path d="M825.395 121.641V121.203C825.395 120.839 825.522 120.583 825.777 120.438C826.069 120.292 826.397 120.219 826.762 120.219C827.053 120.219 827.327 120.255 827.582 120.328C827.837 120.365 828.038 120.565 828.184 120.93C828.293 121.477 828.402 122.242 828.512 123.227C828.621 124.174 828.749 125.232 828.895 126.398C829.04 127.565 829.186 128.805 829.332 130.117C829.514 131.393 829.678 132.615 829.824 133.781C830.007 134.911 830.189 135.932 830.371 136.844C830.553 137.755 830.754 138.448 830.973 138.922C830.863 135.422 830.973 132.396 831.301 129.844C831.629 127.255 832.249 125.159 833.16 123.555C834.108 121.914 835.384 120.784 836.988 120.164C838.629 119.508 840.671 119.362 843.113 119.727C844.243 119.727 844.809 120.328 844.809 121.531C844.809 122.005 844.499 122.333 843.879 122.516C843.259 122.661 842.566 122.771 841.801 122.844C841.035 122.88 840.288 122.935 839.559 123.008C838.829 123.081 838.301 123.263 837.973 123.555C836.66 124.284 835.73 125.414 835.184 126.945C834.673 128.477 834.309 130.281 834.09 132.359C833.871 134.438 833.707 136.716 833.598 139.195C833.525 141.638 833.288 144.154 832.887 146.742C832.887 147.107 832.741 147.38 832.449 147.562C832.158 147.745 831.793 147.836 831.355 147.836C830.954 147.836 830.553 147.745 830.152 147.562C829.788 147.38 829.496 147.107 829.277 146.742L825.395 121.641ZM849.184 136.188C849.001 136.224 848.728 136.279 848.363 136.352C847.999 136.424 847.616 136.443 847.215 136.406C846.814 136.37 846.467 136.26 846.176 136.078C845.848 135.896 845.684 135.586 845.684 135.148C845.684 134.893 845.738 134.711 845.848 134.602C845.957 134.492 846.139 134.328 846.395 134.109C847.197 133.453 847.871 132.615 848.418 131.594C849.001 130.536 849.53 129.424 850.004 128.258C850.478 127.055 850.97 125.87 851.48 124.703C852.027 123.5 852.647 122.424 853.34 121.477C854.033 120.529 854.889 119.763 855.91 119.18C856.931 118.596 858.189 118.323 859.684 118.359C860.303 118.359 860.996 118.505 861.762 118.797C862.527 119.089 863.238 119.49 863.895 120C864.551 120.474 865.098 121.057 865.535 121.75C865.973 122.443 866.191 123.208 866.191 124.047C866.374 124.339 866.191 124.758 865.645 125.305C865.134 125.852 864.423 126.453 863.512 127.109C862.6 127.729 861.561 128.385 860.395 129.078C859.264 129.734 858.171 130.354 857.113 130.938C856.056 131.521 855.126 132.031 854.324 132.469C853.522 132.906 852.993 133.234 852.738 133.453C852.556 133.818 852.41 134.237 852.301 134.711C852.191 135.185 852.1 135.641 852.027 136.078C851.991 136.479 851.954 136.862 851.918 137.227C851.918 137.555 851.918 137.81 851.918 137.992C851.918 138.685 851.882 139.451 851.809 140.289C851.772 141.128 851.809 141.93 851.918 142.695C852.064 143.424 852.374 144.044 852.848 144.555C853.322 145.029 854.124 145.266 855.254 145.266C856.457 145.266 857.587 144.974 858.645 144.391C859.702 143.771 860.686 143.023 861.598 142.148C862.509 141.273 863.329 140.326 864.059 139.305C864.824 138.284 865.499 137.336 866.082 136.461C866.702 135.549 867.249 134.802 867.723 134.219C868.197 133.635 868.598 133.344 868.926 133.344C869.29 133.344 869.673 133.417 870.074 133.562C870.512 133.672 870.73 133.964 870.73 134.438C870.73 135.094 870.457 135.878 869.91 136.789C869.4 137.701 868.707 138.667 867.832 139.688C866.993 140.708 866.009 141.729 864.879 142.75C863.785 143.734 862.673 144.628 861.543 145.43C860.413 146.195 859.301 146.833 858.207 147.344C857.113 147.818 856.147 148.055 855.309 148.055C853.668 148.055 852.428 147.654 851.59 146.852C850.751 146.049 850.15 145.047 849.785 143.844C849.457 142.641 849.275 141.365 849.238 140.016C849.238 138.63 849.22 137.354 849.184 136.188ZM859.246 121.422C858.626 121.422 857.97 121.732 857.277 122.352C856.585 122.935 855.928 123.664 855.309 124.539C854.725 125.378 854.233 126.253 853.832 127.164C853.467 128.039 853.285 128.768 853.285 129.352C853.832 129.352 854.616 129.151 855.637 128.75C856.694 128.312 857.733 127.784 858.754 127.164C859.775 126.544 860.668 125.888 861.434 125.195C862.199 124.503 862.582 123.846 862.582 123.227C862.582 122.898 862.454 122.625 862.199 122.406C861.944 122.188 861.634 122.005 861.27 121.859C860.941 121.714 860.595 121.604 860.23 121.531C859.866 121.458 859.538 121.422 859.246 121.422ZM888.613 134C888.467 135.021 888.267 136.188 888.012 137.5C887.757 138.812 887.264 140.07 886.535 141.273C885.842 142.477 884.803 143.534 883.418 144.445C882.069 145.32 880.173 145.812 877.73 145.922C876.09 145.922 874.923 145.448 874.23 144.5C873.538 143.552 873.191 142.258 873.191 140.617C873.191 139.596 873.355 138.43 873.684 137.117C874.048 135.805 874.522 134.474 875.105 133.125C875.725 131.74 876.454 130.391 877.293 129.078C878.132 127.766 879.043 126.599 880.027 125.578C881.012 124.521 882.051 123.682 883.145 123.062C884.238 122.406 885.368 122.078 886.535 122.078C887.957 122.078 888.96 122.424 889.543 123.117C890.126 123.81 890.509 124.867 890.691 126.289L895.777 163.367H892.824C892.751 163.258 892.642 162.784 892.496 161.945C892.387 161.107 892.241 160.031 892.059 158.719C891.913 157.406 891.73 155.93 891.512 154.289C891.329 152.648 891.129 150.953 890.91 149.203C890.691 147.49 890.473 145.776 890.254 144.062C890.072 142.349 889.871 140.799 889.652 139.414C889.47 138.029 889.288 136.862 889.105 135.914C888.923 134.93 888.759 134.292 888.613 134ZM875.98 141.055C875.98 141.857 876.072 142.422 876.254 142.75C876.473 143.042 877.001 143.188 877.84 143.188C878.934 143.589 879.954 143.552 880.902 143.078C881.85 142.568 882.689 141.784 883.418 140.727C884.184 139.633 884.858 138.375 885.441 136.953C886.025 135.495 886.499 134.018 886.863 132.523C887.264 130.992 887.538 129.552 887.684 128.203C887.866 126.818 887.939 125.651 887.902 124.703C886.189 124.703 884.603 125.268 883.145 126.398C881.686 127.529 880.428 128.932 879.371 130.609C878.314 132.286 877.475 134.073 876.855 135.969C876.272 137.865 875.98 139.56 875.98 141.055ZM910.215 141.656C910.069 142.094 909.704 142.695 909.121 143.461C908.574 144.19 907.918 144.938 907.152 145.703C906.387 146.432 905.585 147.089 904.746 147.672C903.944 148.219 903.233 148.492 902.613 148.492C901.447 148.492 900.48 147.945 899.715 146.852C898.986 145.758 898.421 144.354 898.02 142.641C897.618 140.927 897.345 139.031 897.199 136.953C897.053 134.839 896.962 132.779 896.926 130.773C896.889 128.768 896.871 126.945 896.871 125.305C896.871 123.664 896.816 122.424 896.707 121.586C896.853 121.221 897.035 121.003 897.254 120.93C897.509 120.857 897.801 120.82 898.129 120.82C898.421 120.82 898.676 120.857 898.895 120.93C899.15 121.003 899.368 121.221 899.551 121.586C899.551 121.987 899.551 122.661 899.551 123.609C899.587 124.557 899.642 125.633 899.715 126.836C899.788 128.003 899.861 129.242 899.934 130.555C900.007 131.831 900.061 133.052 900.098 134.219C900.171 135.385 900.225 136.443 900.262 137.391C900.335 138.302 900.389 138.977 900.426 139.414C900.462 139.669 900.499 140.089 900.535 140.672C900.608 141.255 900.699 141.875 900.809 142.531C900.954 143.151 901.118 143.716 901.301 144.227C901.52 144.737 901.793 145.01 902.121 145.047C902.668 145.047 903.215 144.81 903.762 144.336C904.345 143.862 904.91 143.26 905.457 142.531C906.004 141.802 906.514 141 906.988 140.125C907.462 139.25 907.882 138.411 908.246 137.609C908.647 136.771 908.939 136.023 909.121 135.367C909.34 134.711 909.467 134.237 909.504 133.945C909.577 133.326 909.65 132.451 909.723 131.32C909.796 130.154 909.85 128.914 909.887 127.602C909.923 126.289 909.941 125.049 909.941 123.883C909.978 122.716 909.996 121.823 909.996 121.203L913.004 121.367C913.04 124.32 913.022 127 912.949 129.406C912.876 131.776 912.858 134.018 912.895 136.133C912.931 138.211 913.095 140.234 913.387 142.203C913.678 144.172 914.207 146.214 914.973 148.328C914.863 148.438 914.645 148.583 914.316 148.766C913.988 148.984 913.751 149.094 913.605 149.094C912.694 149.094 912.074 148.784 911.746 148.164C911.454 147.581 911.254 146.888 911.145 146.086C911.072 145.247 910.999 144.427 910.926 143.625C910.889 142.786 910.652 142.13 910.215 141.656ZM919.621 136.188C919.439 136.224 919.165 136.279 918.801 136.352C918.436 136.424 918.053 136.443 917.652 136.406C917.251 136.37 916.905 136.26 916.613 136.078C916.285 135.896 916.121 135.586 916.121 135.148C916.121 134.893 916.176 134.711 916.285 134.602C916.395 134.492 916.577 134.328 916.832 134.109C917.634 133.453 918.309 132.615 918.855 131.594C919.439 130.536 919.967 129.424 920.441 128.258C920.915 127.055 921.408 125.87 921.918 124.703C922.465 123.5 923.085 122.424 923.777 121.477C924.47 120.529 925.327 119.763 926.348 119.18C927.368 118.596 928.626 118.323 930.121 118.359C930.741 118.359 931.434 118.505 932.199 118.797C932.965 119.089 933.676 119.49 934.332 120C934.988 120.474 935.535 121.057 935.973 121.75C936.41 122.443 936.629 123.208 936.629 124.047C936.811 124.339 936.629 124.758 936.082 125.305C935.572 125.852 934.861 126.453 933.949 127.109C933.038 127.729 931.999 128.385 930.832 129.078C929.702 129.734 928.608 130.354 927.551 130.938C926.493 131.521 925.564 132.031 924.762 132.469C923.96 132.906 923.431 133.234 923.176 133.453C922.993 133.818 922.848 134.237 922.738 134.711C922.629 135.185 922.538 135.641 922.465 136.078C922.428 136.479 922.392 136.862 922.355 137.227C922.355 137.555 922.355 137.81 922.355 137.992C922.355 138.685 922.319 139.451 922.246 140.289C922.21 141.128 922.246 141.93 922.355 142.695C922.501 143.424 922.811 144.044 923.285 144.555C923.759 145.029 924.561 145.266 925.691 145.266C926.895 145.266 928.025 144.974 929.082 144.391C930.139 143.771 931.124 143.023 932.035 142.148C932.947 141.273 933.767 140.326 934.496 139.305C935.262 138.284 935.936 137.336 936.52 136.461C937.139 135.549 937.686 134.802 938.16 134.219C938.634 133.635 939.035 133.344 939.363 133.344C939.728 133.344 940.111 133.417 940.512 133.562C940.949 133.672 941.168 133.964 941.168 134.438C941.168 135.094 940.895 135.878 940.348 136.789C939.837 137.701 939.145 138.667 938.27 139.688C937.431 140.708 936.447 141.729 935.316 142.75C934.223 143.734 933.111 144.628 931.98 145.43C930.85 146.195 929.738 146.833 928.645 147.344C927.551 147.818 926.585 148.055 925.746 148.055C924.105 148.055 922.866 147.654 922.027 146.852C921.189 146.049 920.587 145.047 920.223 143.844C919.895 142.641 919.712 141.365 919.676 140.016C919.676 138.63 919.658 137.354 919.621 136.188ZM929.684 121.422C929.064 121.422 928.408 121.732 927.715 122.352C927.022 122.935 926.366 123.664 925.746 124.539C925.163 125.378 924.671 126.253 924.27 127.164C923.905 128.039 923.723 128.768 923.723 129.352C924.27 129.352 925.053 129.151 926.074 128.75C927.132 128.312 928.171 127.784 929.191 127.164C930.212 126.544 931.105 125.888 931.871 125.195C932.637 124.503 933.02 123.846 933.02 123.227C933.02 122.898 932.892 122.625 932.637 122.406C932.382 122.188 932.072 122.005 931.707 121.859C931.379 121.714 931.033 121.604 930.668 121.531C930.303 121.458 929.975 121.422 929.684 121.422ZM948.223 147.18C948.223 147.216 948.605 146.997 949.371 146.523C950.173 146.049 951.103 145.43 952.16 144.664C953.254 143.862 954.366 143.005 955.496 142.094C956.626 141.146 957.556 140.253 958.285 139.414C959.014 138.576 959.397 137.865 959.434 137.281C959.507 136.661 959.014 136.26 957.957 136.078C956.645 135.896 955.533 135.914 954.621 136.133C953.746 136.352 952.944 136.607 952.215 136.898C951.486 137.19 950.793 137.464 950.137 137.719C949.517 137.974 948.824 138.065 948.059 137.992C946.454 137.992 945.342 137.5 944.723 136.516C944.139 135.495 943.848 134.128 943.848 132.414C943.848 130.701 944.23 129.078 944.996 127.547C945.762 125.979 946.746 124.63 947.949 123.5C949.152 122.37 950.538 121.477 952.105 120.82C953.673 120.128 955.277 119.781 956.918 119.781C957.574 119.781 958.139 119.836 958.613 119.945C959.087 120.055 959.324 120.474 959.324 121.203C959.324 121.714 959.105 122.206 958.668 122.68C958.23 123.117 957.738 123.336 957.191 123.336C957.155 123.336 957.064 123.318 956.918 123.281C956.772 123.208 956.626 123.117 956.48 123.008C956.335 122.898 956.189 122.826 956.043 122.789C955.897 122.716 955.806 122.68 955.77 122.68C954.603 122.352 953.473 122.516 952.379 123.172C951.285 123.828 950.301 124.721 949.426 125.852C948.587 126.945 947.913 128.148 947.402 129.461C946.892 130.737 946.637 131.885 946.637 132.906C946.637 133.307 946.71 133.635 946.855 133.891C947.038 134.109 947.257 134.273 947.512 134.383C947.803 134.492 948.113 134.565 948.441 134.602C948.806 134.602 949.171 134.602 949.535 134.602C950.264 134.602 950.993 134.492 951.723 134.273C952.488 134.055 953.217 133.799 953.91 133.508C954.639 133.216 955.368 132.961 956.098 132.742C956.863 132.523 957.647 132.414 958.449 132.414C958.814 132.414 959.215 132.523 959.652 132.742C960.09 132.924 960.491 133.216 960.855 133.617C961.22 133.982 961.53 134.419 961.785 134.93C962.04 135.404 962.186 135.932 962.223 136.516C962.441 137.026 962.368 137.701 962.004 138.539C961.676 139.378 961.165 140.271 960.473 141.219C959.78 142.167 958.941 143.133 957.957 144.117C956.973 145.065 955.988 145.94 955.004 146.742C954.02 147.508 953.053 148.128 952.105 148.602C951.158 149.112 950.355 149.349 949.699 149.312C948.97 149.312 948.533 149.094 948.387 148.656C948.277 148.219 948.223 147.727 948.223 147.18ZM965.887 124.648C965.522 124.831 965.176 125.031 964.848 125.25C964.556 125.432 964.264 125.615 963.973 125.797C963.681 125.943 963.389 126.052 963.098 126.125C962.806 126.198 962.496 126.198 962.168 126.125C961.949 126.125 961.767 125.997 961.621 125.742C961.475 125.451 961.366 125.141 961.293 124.812C961.184 124.448 961.111 124.102 961.074 123.773C961.038 123.409 961.038 123.135 961.074 122.953L966.324 119.945L966.652 105.945C966.725 105.471 967.017 105.289 967.527 105.398C968.038 105.471 968.566 105.581 969.113 105.727C969.186 105.727 969.296 105.763 969.441 105.836C969.624 105.872 969.751 105.909 969.824 105.945C969.751 106.93 969.66 108.005 969.551 109.172C969.478 110.302 969.405 111.451 969.332 112.617C969.259 113.747 969.204 114.859 969.168 115.953C969.168 117.047 969.223 118.031 969.332 118.906L977.535 116.609C977.681 116.573 977.79 116.682 977.863 116.938C977.973 117.156 978.064 117.43 978.137 117.758C978.246 118.086 978.319 118.414 978.355 118.742C978.392 119.07 978.41 119.234 978.41 119.234L969.113 123.172C969.113 123.5 969.132 124.284 969.168 125.523C969.241 126.763 969.314 128.24 969.387 129.953C969.46 131.63 969.533 133.453 969.605 135.422C969.678 137.354 969.751 139.159 969.824 140.836C969.897 142.513 969.952 143.99 969.988 145.266C970.025 146.505 970.043 147.289 970.043 147.617C969.97 148.711 969.642 149.258 969.059 149.258C968.512 149.258 967.91 148.984 967.254 148.438L965.887 124.648Z" fill="black"/>
<path d="M499.935 422.95C499.351 423.538 499.356 424.488 499.944 425.071L509.533 434.574C510.122 435.157 511.071 435.153 511.655 434.564C512.238 433.976 512.233 433.026 511.645 432.443L503.121 423.996L511.568 415.473C512.151 414.884 512.147 413.934 511.558 413.351C510.97 412.768 510.02 412.772 509.437 413.361L499.935 422.95ZM927.441 583.583C921.647 563.574 903.061 543.523 876.03 524.75C848.944 505.939 813.143 488.249 772.514 473.046C691.259 442.641 590.475 422.1 500.993 422.506L501.007 425.506C590.078 425.102 690.501 445.56 771.462 475.855C811.941 491.002 847.5 508.588 874.319 527.214C901.195 545.879 919.061 565.428 924.559 584.417L927.441 583.583Z" fill="black"/>
<path d="M533.096 391.303C532.435 391.803 532.304 392.743 532.803 393.404L540.941 404.175C541.441 404.836 542.382 404.967 543.042 404.468C543.703 403.969 543.834 403.028 543.335 402.367L536.101 392.793L545.675 385.559C546.336 385.059 546.467 384.118 545.968 383.458C545.469 382.797 544.528 382.666 543.867 383.165L533.096 391.303ZM957.666 374.753C936.426 388.954 906.797 398.158 872.318 403.675C837.862 409.188 798.689 411 758.456 410.5C677.991 409.501 593.442 399.262 534.207 391.014L533.793 393.986C593.058 402.238 677.759 412.499 758.419 413.5C798.749 414 838.107 412.187 872.792 406.637C907.453 401.092 937.574 391.796 959.334 377.247L957.666 374.753Z" fill="black"/>
<path d="M404.412 367.032C404.982 367.633 405.931 367.658 406.532 367.088L416.328 357.798C416.929 357.228 416.954 356.279 416.384 355.678C415.814 355.077 414.864 355.052 414.263 355.622L405.556 363.879L397.299 355.172C396.728 354.571 395.779 354.546 395.178 355.116C394.577 355.686 394.552 356.636 395.122 357.237L404.412 367.032ZM807.529 125.5C781.219 124.994 742.988 135.058 700.552 151.484C658.063 167.93 611.18 190.825 567.498 216.14C523.821 241.451 483.295 269.209 453.54 295.397C438.665 308.489 426.444 321.223 417.866 333.093C409.312 344.932 404.262 356.076 404.001 365.96L406.999 366.04C407.238 357.049 411.876 346.505 420.298 334.85C428.697 323.226 440.741 310.659 455.522 297.649C485.08 271.634 525.429 243.986 569.002 218.735C612.57 193.487 659.312 170.664 701.635 154.282C744.012 137.879 781.781 128.006 807.471 128.5L807.529 125.5Z" fill="black"/>
</svg>
