<svg width="1200" height="900" viewBox="0 0 1200 900" fill="none" xmlns="http://www.w3.org/2000/svg">
<rect width="1200" height="900" fill="white"/>
<path fill-rule="evenodd" clip-rule="evenodd" d="M712.52 106.345V804.292C712.52 813.548 705.01 821.051 695.749 821.051H105.771C96.5106 821.051 89 813.548 89 804.292V106.345C89 97.0891 96.5093 89.5859 105.771 89.5859H695.749C705.009 89.5859 712.52 97.0891 712.52 106.345Z" fill="#D2D2D2"/>
<path fill-rule="evenodd" clip-rule="evenodd" d="M195.964 787.534H688.372V800.398H195.964V787.534ZM195.964 766.832H688.372V779.696H195.964V766.832ZM195.964 747.116H688.372V759.98H195.964V747.116ZM112.664 112.259H688.372V125.075H112.664V112.259Z" fill="#A3A3A3"/>
<path fill-rule="evenodd" clip-rule="evenodd" d="M119.386 147.787H682.131C683.012 147.787 683.885 147.96 684.699 148.297C685.513 148.634 686.252 149.128 686.875 149.751C687.498 150.374 687.993 151.113 688.33 151.927C688.667 152.741 688.841 153.613 688.841 154.494V717.175C688.841 718.954 688.134 720.66 686.876 721.918C685.618 723.177 683.912 723.883 682.133 723.883H119.385C117.606 723.883 115.9 723.177 114.642 721.918C113.384 720.66 112.677 718.954 112.677 717.175V154.494C112.677 152.715 113.384 151.009 114.642 149.751C115.9 148.493 117.606 147.787 119.385 147.787H119.386Z" fill="#FDDFE1"/>
<path d="M112.417 178.308H689.111V718.034C689.111 719.668 688.462 721.236 687.307 722.391C686.151 723.547 684.584 724.196 682.95 724.196H118.578C116.944 724.196 115.377 723.547 114.222 722.391C113.066 721.236 112.417 719.668 112.417 718.034V178.308Z" fill="#EFFFBD"/>
<path d="M112.417 527.036H689.111V718.035C689.111 719.67 688.462 721.237 687.307 722.392C686.151 723.548 684.584 724.197 682.95 724.197H118.578C116.944 724.197 115.377 723.548 114.222 722.392C113.066 721.237 112.417 719.67 112.417 718.035V527.036Z" fill="#66E8FF"/>
<path d="M112.417 662.582H689.111V714.337C689.111 716.951 688.073 719.459 686.224 721.307C684.375 723.156 681.868 724.195 679.253 724.195H122.275C119.661 724.195 117.153 723.156 115.304 721.307C113.456 719.459 112.417 716.951 112.417 714.337V662.582Z" fill="#00A8C6"/>
<path d="M89 178.308L712.52 179.54" stroke="black" stroke-width="13.5548" stroke-dasharray="36.97 36.97"/>
<rect x="274" y="342" width="254" height="185" fill="#FCC936"/>
<rect x="333.213" y="370.373" width="134.981" height="134.981" stroke="#415700" stroke-width="3"/>
<rect x="529.379" y="370.373" width="134.981" height="134.981" stroke="#8FBE00" stroke-width="3"/>
<rect x="137.048" y="205.793" width="134.981" height="134.981" stroke="#8FBE00" stroke-width="3"/>
<rect x="333.213" y="205.793" width="134.981" height="134.981" stroke="#8FBE00" stroke-width="3"/>
<rect x="529.379" y="205.793" width="134.981" height="134.981" stroke="#8FBE00" stroke-width="3"/>
<rect x="137.048" y="370.373" width="134.981" height="134.981" stroke="#8FBE00" stroke-width="3"/>
<path d="M934.543 350.211C934.798 348.534 934.962 346.438 935.035 343.922C935.145 341.406 935.181 338.727 935.145 335.883C935.145 333.039 935.09 330.104 934.98 327.078C934.871 324.052 934.725 321.19 934.543 318.492C934.361 315.758 934.142 313.315 933.887 311.164C933.668 309.013 933.431 307.318 933.176 306.078C933.504 305.859 933.777 305.695 933.996 305.586C934.251 305.44 934.543 305.367 934.871 305.367C935.126 305.367 935.345 305.422 935.527 305.531C935.71 305.604 935.855 305.786 935.965 306.078C936.694 313.224 937.186 320.424 937.441 327.68C937.733 334.935 937.952 342.154 938.098 349.336C938.098 349.664 938.098 350.12 938.098 350.703C938.098 351.25 938.079 351.542 938.043 351.578C937.533 351.833 937.077 351.961 936.676 351.961C936.275 351.924 935.91 351.815 935.582 351.633C935.254 351.414 934.999 351.177 934.816 350.922C934.634 350.667 934.543 350.43 934.543 350.211ZM941.98 351.906C941.98 349.536 941.926 347.039 941.816 344.414C941.743 341.789 941.652 339.146 941.543 336.484C941.47 333.786 941.452 331.143 941.488 328.555C941.525 325.966 941.689 323.542 941.98 321.281C942.053 321.245 942.217 321.227 942.473 321.227C942.764 321.19 942.965 321.172 943.074 321.172C943.585 321.172 943.986 321.263 944.277 321.445C944.605 321.591 944.77 321.938 944.77 322.484C944.77 324.635 944.751 326.987 944.715 329.539C944.715 332.055 944.697 334.625 944.66 337.25C944.66 339.839 944.66 342.409 944.66 344.961C944.66 347.513 944.697 349.828 944.77 351.906C944.806 352.526 944.678 352.927 944.387 353.109C944.132 353.328 943.803 353.438 943.402 353.438C942.965 353.438 942.6 353.328 942.309 353.109C942.017 352.927 941.908 352.526 941.98 351.906ZM940.777 312.75C940.777 312.312 940.923 312.021 941.215 311.875C941.507 311.729 941.835 311.656 942.199 311.656C942.928 311.656 943.384 311.893 943.566 312.367C943.749 312.841 943.84 313.388 943.84 314.008C943.621 314.409 943.348 314.701 943.02 314.883C942.691 315.029 942.345 315.065 941.98 314.992C941.652 314.883 941.361 314.646 941.105 314.281C940.887 313.917 940.777 313.406 940.777 312.75ZM950.73 352.836C950.621 351.815 950.53 350.43 950.457 348.68C950.384 346.93 950.311 345.034 950.238 342.992C950.165 340.914 950.074 338.763 949.965 336.539C949.892 334.315 949.801 332.201 949.691 330.195C949.582 328.19 949.436 326.367 949.254 324.727C949.108 323.086 948.944 321.773 948.762 320.789C948.762 320.06 948.926 319.641 949.254 319.531C949.582 319.385 950.001 319.312 950.512 319.312C950.585 319.312 950.749 319.312 951.004 319.312C951.259 319.312 951.441 319.331 951.551 319.367C951.879 320.461 952.079 321.883 952.152 323.633C952.262 325.346 952.335 327.224 952.371 329.266C952.444 331.307 952.499 333.422 952.535 335.609C952.608 337.797 952.736 339.875 952.918 341.844C953.428 338.964 953.848 336.576 954.176 334.68C954.54 332.784 954.868 331.271 955.16 330.141C955.488 328.974 955.78 328.117 956.035 327.57C956.327 326.987 956.637 326.604 956.965 326.422C957.329 326.24 957.712 326.167 958.113 326.203C958.551 326.203 959.061 326.203 959.645 326.203C960.301 326.203 960.829 326.458 961.23 326.969C961.668 327.479 961.996 328.135 962.215 328.938C962.47 329.74 962.652 330.615 962.762 331.562C962.908 332.51 963.035 333.44 963.145 334.352C963.254 335.227 963.363 336.029 963.473 336.758C963.618 337.487 963.837 337.997 964.129 338.289C965.04 335.591 965.824 333.385 966.48 331.672C967.137 329.958 967.702 328.609 968.176 327.625C968.65 326.604 969.069 325.875 969.434 325.438C969.798 325 970.126 324.745 970.418 324.672C970.71 324.562 970.965 324.544 971.184 324.617C971.439 324.69 971.694 324.727 971.949 324.727C972.934 324.727 973.681 325.237 974.191 326.258C974.775 327.898 975.176 329.466 975.395 330.961C975.613 332.419 975.741 333.841 975.777 335.227C975.814 336.576 975.814 337.87 975.777 339.109C975.777 340.349 975.814 341.552 975.887 342.719C975.996 343.885 976.197 345.034 976.488 346.164C976.816 347.294 977.363 348.406 978.129 349.5C977.837 350.083 977.546 350.484 977.254 350.703C976.962 350.885 976.561 350.977 976.051 350.977C975.613 350.977 975.23 350.831 974.902 350.539C974.574 350.211 974.301 349.828 974.082 349.391C973.863 348.917 973.681 348.443 973.535 347.969C973.426 347.495 973.316 347.076 973.207 346.711C973.061 341.497 972.824 337.505 972.496 334.734C972.204 331.927 971.749 330.451 971.129 330.305C970.509 330.159 969.707 331.38 968.723 333.969C967.775 336.521 966.59 340.531 965.168 346C965.059 346.182 964.895 346.292 964.676 346.328C964.457 346.365 964.22 346.383 963.965 346.383C963.746 346.383 963.509 346.383 963.254 346.383C963.035 346.346 962.816 346.346 962.598 346.383C961.686 341.023 960.921 337.177 960.301 334.844C959.717 332.474 959.116 331.562 958.496 332.109C957.876 332.656 957.184 334.625 956.418 338.016C955.652 341.37 954.668 346.091 953.465 352.18L950.73 352.836ZM981.848 351.906C981.848 349.536 981.793 347.039 981.684 344.414C981.611 341.789 981.52 339.146 981.41 336.484C981.337 333.786 981.319 331.143 981.355 328.555C981.392 325.966 981.556 323.542 981.848 321.281C981.921 321.245 982.085 321.227 982.34 321.227C982.632 321.19 982.832 321.172 982.941 321.172C983.452 321.172 983.853 321.263 984.145 321.445C984.473 321.591 984.637 321.938 984.637 322.484C984.637 324.635 984.618 326.987 984.582 329.539C984.582 332.055 984.564 334.625 984.527 337.25C984.527 339.839 984.527 342.409 984.527 344.961C984.527 347.513 984.564 349.828 984.637 351.906C984.673 352.526 984.546 352.927 984.254 353.109C983.999 353.328 983.671 353.438 983.27 353.438C982.832 353.438 982.467 353.328 982.176 353.109C981.884 352.927 981.775 352.526 981.848 351.906ZM980.645 312.75C980.645 312.312 980.79 312.021 981.082 311.875C981.374 311.729 981.702 311.656 982.066 311.656C982.796 311.656 983.251 311.893 983.434 312.367C983.616 312.841 983.707 313.388 983.707 314.008C983.488 314.409 983.215 314.701 982.887 314.883C982.559 315.029 982.212 315.065 981.848 314.992C981.52 314.883 981.228 314.646 980.973 314.281C980.754 313.917 980.645 313.406 980.645 312.75ZM989.887 329.648C989.522 329.831 989.176 330.031 988.848 330.25C988.556 330.432 988.264 330.615 987.973 330.797C987.681 330.943 987.389 331.052 987.098 331.125C986.806 331.198 986.496 331.198 986.168 331.125C985.949 331.125 985.767 330.997 985.621 330.742C985.475 330.451 985.366 330.141 985.293 329.812C985.184 329.448 985.111 329.102 985.074 328.773C985.038 328.409 985.038 328.135 985.074 327.953L990.324 324.945L990.652 310.945C990.725 310.471 991.017 310.289 991.527 310.398C992.038 310.471 992.566 310.581 993.113 310.727C993.186 310.727 993.296 310.763 993.441 310.836C993.624 310.872 993.751 310.909 993.824 310.945C993.751 311.93 993.66 313.005 993.551 314.172C993.478 315.302 993.405 316.451 993.332 317.617C993.259 318.747 993.204 319.859 993.168 320.953C993.168 322.047 993.223 323.031 993.332 323.906L1001.54 321.609C1001.68 321.573 1001.79 321.682 1001.86 321.938C1001.97 322.156 1002.06 322.43 1002.14 322.758C1002.25 323.086 1002.32 323.414 1002.36 323.742C1002.39 324.07 1002.41 324.234 1002.41 324.234L993.113 328.172C993.113 328.5 993.132 329.284 993.168 330.523C993.241 331.763 993.314 333.24 993.387 334.953C993.46 336.63 993.533 338.453 993.605 340.422C993.678 342.354 993.751 344.159 993.824 345.836C993.897 347.513 993.952 348.99 993.988 350.266C994.025 351.505 994.043 352.289 994.043 352.617C993.97 353.711 993.642 354.258 993.059 354.258C992.512 354.258 991.91 353.984 991.254 353.438L989.887 329.648Z" fill="black"/>
<path d="M825.395 121.641V121.203C825.395 120.839 825.522 120.583 825.777 120.438C826.069 120.292 826.397 120.219 826.762 120.219C827.053 120.219 827.327 120.255 827.582 120.328C827.837 120.365 828.038 120.565 828.184 120.93C828.293 121.477 828.402 122.242 828.512 123.227C828.621 124.174 828.749 125.232 828.895 126.398C829.04 127.565 829.186 128.805 829.332 130.117C829.514 131.393 829.678 132.615 829.824 133.781C830.007 134.911 830.189 135.932 830.371 136.844C830.553 137.755 830.754 138.448 830.973 138.922C830.863 135.422 830.973 132.396 831.301 129.844C831.629 127.255 832.249 125.159 833.16 123.555C834.108 121.914 835.384 120.784 836.988 120.164C838.629 119.508 840.671 119.362 843.113 119.727C844.243 119.727 844.809 120.328 844.809 121.531C844.809 122.005 844.499 122.333 843.879 122.516C843.259 122.661 842.566 122.771 841.801 122.844C841.035 122.88 840.288 122.935 839.559 123.008C838.829 123.081 838.301 123.263 837.973 123.555C836.66 124.284 835.73 125.414 835.184 126.945C834.673 128.477 834.309 130.281 834.09 132.359C833.871 134.438 833.707 136.716 833.598 139.195C833.525 141.638 833.288 144.154 832.887 146.742C832.887 147.107 832.741 147.38 832.449 147.562C832.158 147.745 831.793 147.836 831.355 147.836C830.954 147.836 830.553 147.745 830.152 147.562C829.788 147.38 829.496 147.107 829.277 146.742L825.395 121.641ZM849.184 136.188C849.001 136.224 848.728 136.279 848.363 136.352C847.999 136.424 847.616 136.443 847.215 136.406C846.814 136.37 846.467 136.26 846.176 136.078C845.848 135.896 845.684 135.586 845.684 135.148C845.684 134.893 845.738 134.711 845.848 134.602C845.957 134.492 846.139 134.328 846.395 134.109C847.197 133.453 847.871 132.615 848.418 131.594C849.001 130.536 849.53 129.424 850.004 128.258C850.478 127.055 850.97 125.87 851.48 124.703C852.027 123.5 852.647 122.424 853.34 121.477C854.033 120.529 854.889 119.763 855.91 119.18C856.931 118.596 858.189 118.323 859.684 118.359C860.303 118.359 860.996 118.505 861.762 118.797C862.527 119.089 863.238 119.49 863.895 120C864.551 120.474 865.098 121.057 865.535 121.75C865.973 122.443 866.191 123.208 866.191 124.047C866.374 124.339 866.191 124.758 865.645 125.305C865.134 125.852 864.423 126.453 863.512 127.109C862.6 127.729 861.561 128.385 860.395 129.078C859.264 129.734 858.171 130.354 857.113 130.938C856.056 131.521 855.126 132.031 854.324 132.469C853.522 132.906 852.993 133.234 852.738 133.453C852.556 133.818 852.41 134.237 852.301 134.711C852.191 135.185 852.1 135.641 852.027 136.078C851.991 136.479 851.954 136.862 851.918 137.227C851.918 137.555 851.918 137.81 851.918 137.992C851.918 138.685 851.882 139.451 851.809 140.289C851.772 141.128 851.809 141.93 851.918 142.695C852.064 143.424 852.374 144.044 852.848 144.555C853.322 145.029 854.124 145.266 855.254 145.266C856.457 145.266 857.587 144.974 858.645 144.391C859.702 143.771 860.686 143.023 861.598 142.148C862.509 141.273 863.329 140.326 864.059 139.305C864.824 138.284 865.499 137.336 866.082 136.461C866.702 135.549 867.249 134.802 867.723 134.219C868.197 133.635 868.598 133.344 868.926 133.344C869.29 133.344 869.673 133.417 870.074 133.562C870.512 133.672 870.73 133.964 870.73 134.438C870.73 135.094 870.457 135.878 869.91 136.789C869.4 137.701 868.707 138.667 867.832 139.688C866.993 140.708 866.009 141.729 864.879 142.75C863.785 143.734 862.673 144.628 861.543 145.43C860.413 146.195 859.301 146.833 858.207 147.344C857.113 147.818 856.147 148.055 855.309 148.055C853.668 148.055 852.428 147.654 851.59 146.852C850.751 146.049 850.15 145.047 849.785 143.844C849.457 142.641 849.275 141.365 849.238 140.016C849.238 138.63 849.22 137.354 849.184 136.188ZM859.246 121.422C858.626 121.422 857.97 121.732 857.277 122.352C856.585 122.935 855.928 123.664 855.309 124.539C854.725 125.378 854.233 126.253 853.832 127.164C853.467 128.039 853.285 128.768 853.285 129.352C853.832 129.352 854.616 129.151 855.637 128.75C856.694 128.312 857.733 127.784 858.754 127.164C859.775 126.544 860.668 125.888 861.434 125.195C862.199 124.503 862.582 123.846 862.582 123.227C862.582 122.898 862.454 122.625 862.199 122.406C861.944 122.188 861.634 122.005 861.27 121.859C860.941 121.714 860.595 121.604 860.23 121.531C859.866 121.458 859.538 121.422 859.246 121.422ZM888.613 134C888.467 135.021 888.267 136.188 888.012 137.5C887.757 138.812 887.264 140.07 886.535 141.273C885.842 142.477 884.803 143.534 883.418 144.445C882.069 145.32 880.173 145.812 877.73 145.922C876.09 145.922 874.923 145.448 874.23 144.5C873.538 143.552 873.191 142.258 873.191 140.617C873.191 139.596 873.355 138.43 873.684 137.117C874.048 135.805 874.522 134.474 875.105 133.125C875.725 131.74 876.454 130.391 877.293 129.078C878.132 127.766 879.043 126.599 880.027 125.578C881.012 124.521 882.051 123.682 883.145 123.062C884.238 122.406 885.368 122.078 886.535 122.078C887.957 122.078 888.96 122.424 889.543 123.117C890.126 123.81 890.509 124.867 890.691 126.289L895.777 163.367H892.824C892.751 163.258 892.642 162.784 892.496 161.945C892.387 161.107 892.241 160.031 892.059 158.719C891.913 157.406 891.73 155.93 891.512 154.289C891.329 152.648 891.129 150.953 890.91 149.203C890.691 147.49 890.473 145.776 890.254 144.062C890.072 142.349 889.871 140.799 889.652 139.414C889.47 138.029 889.288 136.862 889.105 135.914C888.923 134.93 888.759 134.292 888.613 134ZM875.98 141.055C875.98 141.857 876.072 142.422 876.254 142.75C876.473 143.042 877.001 143.188 877.84 143.188C878.934 143.589 879.954 143.552 880.902 143.078C881.85 142.568 882.689 141.784 883.418 140.727C884.184 139.633 884.858 138.375 885.441 136.953C886.025 135.495 886.499 134.018 886.863 132.523C887.264 130.992 887.538 129.552 887.684 128.203C887.866 126.818 887.939 125.651 887.902 124.703C886.189 124.703 884.603 125.268 883.145 126.398C881.686 127.529 880.428 128.932 879.371 130.609C878.314 132.286 877.475 134.073 876.855 135.969C876.272 137.865 875.98 139.56 875.98 141.055ZM910.215 141.656C910.069 142.094 909.704 142.695 909.121 143.461C908.574 144.19 907.918 144.938 907.152 145.703C906.387 146.432 905.585 147.089 904.746 147.672C903.944 148.219 903.233 148.492 902.613 148.492C901.447 148.492 900.48 147.945 899.715 146.852C898.986 145.758 898.421 144.354 898.02 142.641C897.618 140.927 897.345 139.031 897.199 136.953C897.053 134.839 896.962 132.779 896.926 130.773C896.889 128.768 896.871 126.945 896.871 125.305C896.871 123.664 896.816 122.424 896.707 121.586C896.853 121.221 897.035 121.003 897.254 120.93C897.509 120.857 897.801 120.82 898.129 120.82C898.421 120.82 898.676 120.857 898.895 120.93C899.15 121.003 899.368 121.221 899.551 121.586C899.551 121.987 899.551 122.661 899.551 123.609C899.587 124.557 899.642 125.633 899.715 126.836C899.788 128.003 899.861 129.242 899.934 130.555C900.007 131.831 900.061 133.052 900.098 134.219C900.171 135.385 900.225 136.443 900.262 137.391C900.335 138.302 900.389 138.977 900.426 139.414C900.462 139.669 900.499 140.089 900.535 140.672C900.608 141.255 900.699 141.875 900.809 142.531C900.954 143.151 901.118 143.716 901.301 144.227C901.52 144.737 901.793 145.01 902.121 145.047C902.668 145.047 903.215 144.81 903.762 144.336C904.345 143.862 904.91 143.26 905.457 142.531C906.004 141.802 906.514 141 906.988 140.125C907.462 139.25 907.882 138.411 908.246 137.609C908.647 136.771 908.939 136.023 909.121 135.367C909.34 134.711 909.467 134.237 909.504 133.945C909.577 133.326 909.65 132.451 909.723 131.32C909.796 130.154 909.85 128.914 909.887 127.602C909.923 126.289 909.941 125.049 909.941 123.883C909.978 122.716 909.996 121.823 909.996 121.203L913.004 121.367C913.04 124.32 913.022 127 912.949 129.406C912.876 131.776 912.858 134.018 912.895 136.133C912.931 138.211 913.095 140.234 913.387 142.203C913.678 144.172 914.207 146.214 914.973 148.328C914.863 148.438 914.645 148.583 914.316 148.766C913.988 148.984 913.751 149.094 913.605 149.094C912.694 149.094 912.074 148.784 911.746 148.164C911.454 147.581 911.254 146.888 911.145 146.086C911.072 145.247 910.999 144.427 910.926 143.625C910.889 142.786 910.652 142.13 910.215 141.656ZM919.621 136.188C919.439 136.224 919.165 136.279 918.801 136.352C918.436 136.424 918.053 136.443 917.652 136.406C917.251 136.37 916.905 136.26 916.613 136.078C916.285 135.896 916.121 135.586 916.121 135.148C916.121 134.893 916.176 134.711 916.285 134.602C916.395 134.492 916.577 134.328 916.832 134.109C917.634 133.453 918.309 132.615 918.855 131.594C919.439 130.536 919.967 129.424 920.441 128.258C920.915 127.055 921.408 125.87 921.918 124.703C922.465 123.5 923.085 122.424 923.777 121.477C924.47 120.529 925.327 119.763 926.348 119.18C927.368 118.596 928.626 118.323 930.121 118.359C930.741 118.359 931.434 118.505 932.199 118.797C932.965 119.089 933.676 119.49 934.332 120C934.988 120.474 935.535 121.057 935.973 121.75C936.41 122.443 936.629 123.208 936.629 124.047C936.811 124.339 936.629 124.758 936.082 125.305C935.572 125.852 934.861 126.453 933.949 127.109C933.038 127.729 931.999 128.385 930.832 129.078C929.702 129.734 928.608 130.354 927.551 130.938C926.493 131.521 925.564 132.031 924.762 132.469C923.96 132.906 923.431 133.234 923.176 133.453C922.993 133.818 922.848 134.237 922.738 134.711C922.629 135.185 922.538 135.641 922.465 136.078C922.428 136.479 922.392 136.862 922.355 137.227C922.355 137.555 922.355 137.81 922.355 137.992C922.355 138.685 922.319 139.451 922.246 140.289C922.21 141.128 922.246 141.93 922.355 142.695C922.501 143.424 922.811 144.044 923.285 144.555C923.759 145.029 924.561 145.266 925.691 145.266C926.895 145.266 928.025 144.974 929.082 144.391C930.139 143.771 931.124 143.023 932.035 142.148C932.947 141.273 933.767 140.326 934.496 139.305C935.262 138.284 935.936 137.336 936.52 136.461C937.139 135.549 937.686 134.802 938.16 134.219C938.634 133.635 939.035 133.344 939.363 133.344C939.728 133.344 940.111 133.417 940.512 133.562C940.949 133.672 941.168 133.964 941.168 134.438C941.168 135.094 940.895 135.878 940.348 136.789C939.837 137.701 939.145 138.667 938.27 139.688C937.431 140.708 936.447 141.729 935.316 142.75C934.223 143.734 933.111 144.628 931.98 145.43C930.85 146.195 929.738 146.833 928.645 147.344C927.551 147.818 926.585 148.055 925.746 148.055C924.105 148.055 922.866 147.654 922.027 146.852C921.189 146.049 920.587 145.047 920.223 143.844C919.895 142.641 919.712 141.365 919.676 140.016C919.676 138.63 919.658 137.354 919.621 136.188ZM929.684 121.422C929.064 121.422 928.408 121.732 927.715 122.352C927.022 122.935 926.366 123.664 925.746 124.539C925.163 125.378 924.671 126.253 924.27 127.164C923.905 128.039 923.723 128.768 923.723 129.352C924.27 129.352 925.053 129.151 926.074 128.75C927.132 128.312 928.171 127.784 929.191 127.164C930.212 126.544 931.105 125.888 931.871 125.195C932.637 124.503 933.02 123.846 933.02 123.227C933.02 122.898 932.892 122.625 932.637 122.406C932.382 122.188 932.072 122.005 931.707 121.859C931.379 121.714 931.033 121.604 930.668 121.531C930.303 121.458 929.975 121.422 929.684 121.422ZM948.223 147.18C948.223 147.216 948.605 146.997 949.371 146.523C950.173 146.049 951.103 145.43 952.16 144.664C953.254 143.862 954.366 143.005 955.496 142.094C956.626 141.146 957.556 140.253 958.285 139.414C959.014 138.576 959.397 137.865 959.434 137.281C959.507 136.661 959.014 136.26 957.957 136.078C956.645 135.896 955.533 135.914 954.621 136.133C953.746 136.352 952.944 136.607 952.215 136.898C951.486 137.19 950.793 137.464 950.137 137.719C949.517 137.974 948.824 138.065 948.059 137.992C946.454 137.992 945.342 137.5 944.723 136.516C944.139 135.495 943.848 134.128 943.848 132.414C943.848 130.701 944.23 129.078 944.996 127.547C945.762 125.979 946.746 124.63 947.949 123.5C949.152 122.37 950.538 121.477 952.105 120.82C953.673 120.128 955.277 119.781 956.918 119.781C957.574 119.781 958.139 119.836 958.613 119.945C959.087 120.055 959.324 120.474 959.324 121.203C959.324 121.714 959.105 122.206 958.668 122.68C958.23 123.117 957.738 123.336 957.191 123.336C957.155 123.336 957.064 123.318 956.918 123.281C956.772 123.208 956.626 123.117 956.48 123.008C956.335 122.898 956.189 122.826 956.043 122.789C955.897 122.716 955.806 122.68 955.77 122.68C954.603 122.352 953.473 122.516 952.379 123.172C951.285 123.828 950.301 124.721 949.426 125.852C948.587 126.945 947.913 128.148 947.402 129.461C946.892 130.737 946.637 131.885 946.637 132.906C946.637 133.307 946.71 133.635 946.855 133.891C947.038 134.109 947.257 134.273 947.512 134.383C947.803 134.492 948.113 134.565 948.441 134.602C948.806 134.602 949.171 134.602 949.535 134.602C950.264 134.602 950.993 134.492 951.723 134.273C952.488 134.055 953.217 133.799 953.91 133.508C954.639 133.216 955.368 132.961 956.098 132.742C956.863 132.523 957.647 132.414 958.449 132.414C958.814 132.414 959.215 132.523 959.652 132.742C960.09 132.924 960.491 133.216 960.855 133.617C961.22 133.982 961.53 134.419 961.785 134.93C962.04 135.404 962.186 135.932 962.223 136.516C962.441 137.026 962.368 137.701 962.004 138.539C961.676 139.378 961.165 140.271 960.473 141.219C959.78 142.167 958.941 143.133 957.957 144.117C956.973 145.065 955.988 145.94 955.004 146.742C954.02 147.508 953.053 148.128 952.105 148.602C951.158 149.112 950.355 149.349 949.699 149.312C948.97 149.312 948.533 149.094 948.387 148.656C948.277 148.219 948.223 147.727 948.223 147.18ZM965.887 124.648C965.522 124.831 965.176 125.031 964.848 125.25C964.556 125.432 964.264 125.615 963.973 125.797C963.681 125.943 963.389 126.052 963.098 126.125C962.806 126.198 962.496 126.198 962.168 126.125C961.949 126.125 961.767 125.997 961.621 125.742C961.475 125.451 961.366 125.141 961.293 124.812C961.184 124.448 961.111 124.102 961.074 123.773C961.038 123.409 961.038 123.135 961.074 122.953L966.324 119.945L966.652 105.945C966.725 105.471 967.017 105.289 967.527 105.398C968.038 105.471 968.566 105.581 969.113 105.727C969.186 105.727 969.296 105.763 969.441 105.836C969.624 105.872 969.751 105.909 969.824 105.945C969.751 106.93 969.66 108.005 969.551 109.172C969.478 110.302 969.405 111.451 969.332 112.617C969.259 113.747 969.204 114.859 969.168 115.953C969.168 117.047 969.223 118.031 969.332 118.906L977.535 116.609C977.681 116.573 977.79 116.682 977.863 116.938C977.973 117.156 978.064 117.43 978.137 117.758C978.246 118.086 978.319 118.414 978.355 118.742C978.392 119.07 978.41 119.234 978.41 119.234L969.113 123.172C969.113 123.5 969.132 124.284 969.168 125.523C969.241 126.763 969.314 128.24 969.387 129.953C969.46 131.63 969.533 133.453 969.605 135.422C969.678 137.354 969.751 139.159 969.824 140.836C969.897 142.513 969.952 143.99 969.988 145.266C970.025 146.505 970.043 147.289 970.043 147.617C969.97 148.711 969.642 149.258 969.059 149.258C968.512 149.258 967.91 148.984 967.254 148.438L965.887 124.648Z" fill="black"/>
<path d="M533.096 391.303C532.435 391.803 532.304 392.743 532.803 393.404L540.941 404.175C541.441 404.836 542.382 404.967 543.042 404.468C543.703 403.969 543.834 403.028 543.335 402.367L536.101 392.793L545.675 385.559C546.336 385.059 546.467 384.118 545.968 383.458C545.469 382.797 544.528 382.666 543.867 383.165L533.096 391.303ZM957.666 374.753C936.426 388.954 906.797 398.158 872.318 403.675C837.862 409.188 798.689 411 758.456 410.5C677.991 409.501 593.442 399.262 534.207 391.014L533.793 393.986C593.058 402.238 677.759 412.499 758.419 413.5C798.749 414 838.107 412.187 872.792 406.637C907.453 401.092 937.574 391.796 959.334 377.247L957.666 374.753Z" fill="black"/>
<path d="M404.412 367.032C404.982 367.633 405.931 367.658 406.532 367.088L416.328 357.798C416.929 357.228 416.954 356.279 416.384 355.678C415.814 355.077 414.864 355.052 414.263 355.622L405.556 363.879L397.299 355.172C396.728 354.571 395.779 354.546 395.178 355.116C394.577 355.686 394.552 356.636 395.122 357.237L404.412 367.032ZM807.529 125.5C781.219 124.994 742.988 135.058 700.552 151.484C658.063 167.93 611.18 190.825 567.498 216.14C523.821 241.451 483.295 269.209 453.54 295.397C438.665 308.489 426.444 321.223 417.866 333.093C409.312 344.932 404.262 356.076 404.001 365.96L406.999 366.04C407.238 357.049 411.876 346.505 420.298 334.85C428.697 323.226 440.741 310.659 455.522 297.649C485.08 271.634 525.429 243.986 569.002 218.735C612.57 193.487 659.312 170.664 701.635 154.282C744.012 137.879 781.781 128.006 807.471 128.5L807.529 125.5Z" fill="black"/>
</svg>
