<svg width="1200" height="900" viewBox="0 0 1200 900" fill="none" xmlns="http://www.w3.org/2000/svg">
<rect width="1200" height="900" fill="white"/>
<path fill-rule="evenodd" clip-rule="evenodd" d="M712.52 106.345V804.292C712.52 813.548 705.01 821.051 695.749 821.051H105.771C96.5106 821.051 89 813.548 89 804.292V106.345C89 97.0891 96.5093 89.5859 105.771 89.5859H695.749C705.009 89.5859 712.52 97.0891 712.52 106.345Z" fill="#D2D2D2"/>
<path fill-rule="evenodd" clip-rule="evenodd" d="M195.964 787.534H688.372V800.398H195.964V787.534ZM195.964 766.832H688.372V779.696H195.964V766.832ZM195.964 747.116H688.372V759.98H195.964V747.116ZM112.664 112.259H688.372V125.075H112.664V112.259Z" fill="#A3A3A3"/>
<path fill-rule="evenodd" clip-rule="evenodd" d="M119.386 147.787H682.131C683.012 147.787 683.885 147.96 684.699 148.297C685.513 148.634 686.252 149.128 686.875 149.751C687.498 150.374 687.993 151.113 688.33 151.927C688.667 152.741 688.841 153.613 688.841 154.494V717.175C688.841 718.954 688.134 720.66 686.876 721.918C685.618 723.177 683.912 723.883 682.133 723.883H119.385C117.606 723.883 115.9 723.177 114.642 721.918C113.384 720.66 112.677 718.954 112.677 717.175V154.494C112.677 152.715 113.384 151.009 114.642 149.751C115.9 148.493 117.606 147.787 119.385 147.787H119.386Z" fill="#FDDFE1"/>
<path d="M112.417 178.308H689.111V718.034C689.111 719.668 688.462 721.236 687.307 722.391C686.151 723.547 684.584 724.196 682.95 724.196H118.578C116.944 724.196 115.377 723.547 114.222 722.391C113.066 721.236 112.417 719.668 112.417 718.034V178.308Z" fill="#EFFFBD"/>
<path d="M112.417 527.036H689.111V718.035C689.111 719.67 688.462 721.237 687.307 722.392C686.151 723.548 684.584 724.197 682.95 724.197H118.578C116.944 724.197 115.377 723.548 114.222 722.392C113.066 721.237 112.417 719.67 112.417 718.035V527.036Z" fill="#66E8FF"/>
<path d="M112.417 662.582H689.111V714.337C689.111 716.951 688.073 719.459 686.224 721.307C684.375 723.156 681.868 724.195 679.253 724.195H122.275C119.661 724.195 117.153 723.156 115.304 721.307C113.456 719.459 112.417 716.951 112.417 714.337V662.582Z" fill="#00A8C6"/>
<path d="M89 178.308L712.52 179.54" stroke="black" stroke-width="13.5548" stroke-dasharray="36.97 36.97"/>
<rect x="333.213" y="370.373" width="134.981" height="134.981" stroke="#8FBE00" stroke-width="3"/>
<rect x="529.379" y="370.373" width="134.981" height="134.981" stroke="#8FBE00" stroke-width="3"/>
<rect x="137.048" y="205.793" width="134.981" height="134.981" stroke="#8FBE00" stroke-width="3"/>
<rect x="531" y="273" width="69" height="69" fill="#8FBE00"/>
<rect x="333.213" y="205.793" width="134.981" height="134.981" stroke="#8FBE00" stroke-width="3"/>
<rect x="529.379" y="205.793" width="134.981" height="134.981" fill="#FBBC04" fill-opacity="0.38" stroke="#8FBE00" stroke-width="3"/>
<rect x="137.048" y="370.373" width="134.981" height="134.981" stroke="#8FBE00" stroke-width="3"/>
<path d="M874.125 496.578C873.943 495.63 873.779 494.5 873.633 493.188C873.523 491.839 873.396 490.49 873.25 489.141C873.104 487.755 872.922 486.461 872.703 485.258C872.521 484.055 872.229 483.07 871.828 482.305C869.969 486.096 868.328 489.086 866.906 491.273C865.484 493.424 864.227 494.974 863.133 495.922C862.076 496.833 861.182 497.271 860.453 497.234C859.724 497.198 859.122 496.87 858.648 496.25C858.174 495.63 857.828 494.846 857.609 493.898C857.427 492.914 857.299 492.003 857.227 491.164C857.227 490.362 857.409 489.232 857.773 487.773C858.138 486.315 858.63 484.729 859.25 483.016C859.87 481.266 860.599 479.497 861.438 477.711C862.312 475.924 863.242 474.302 864.227 472.844C865.211 471.385 866.232 470.182 867.289 469.234C868.346 468.286 869.404 467.812 870.461 467.812C872.029 467.557 873.177 467.904 873.906 468.852C874.672 469.763 874.818 471.312 874.344 473.5C874.344 475.906 874.435 477.966 874.617 479.68C874.836 481.393 875.055 483.034 875.273 484.602C875.529 486.169 875.747 487.81 875.93 489.523C876.148 491.237 876.258 493.297 876.258 495.703C876.258 496.141 876.203 496.523 876.094 496.852C876.021 497.143 875.583 497.289 874.781 497.289C874.672 497.289 874.526 497.198 874.344 497.016C874.198 496.833 874.125 496.688 874.125 496.578ZM871.172 472.133C870.771 471.549 870.224 471.495 869.531 471.969C868.839 472.443 868.109 473.227 867.344 474.32C866.578 475.414 865.794 476.727 864.992 478.258C864.19 479.789 863.443 481.339 862.75 482.906C862.057 484.474 861.456 485.969 860.945 487.391C860.435 488.776 860.089 489.924 859.906 490.836C859.906 492.148 860.107 492.896 860.508 493.078C860.909 493.224 861.401 493.005 861.984 492.422C862.568 491.839 863.224 491 863.953 489.906C864.719 488.812 865.448 487.646 866.141 486.406C866.87 485.167 867.544 483.964 868.164 482.797C868.82 481.63 869.331 480.682 869.695 479.953C870.023 479.188 870.279 478.477 870.461 477.82C870.643 477.164 870.789 476.544 870.898 475.961C871.044 475.341 871.117 474.721 871.117 474.102C871.154 473.482 871.172 472.826 871.172 472.133ZM879.102 485.422C879.211 484.109 879.32 482.688 879.43 481.156C879.539 479.589 879.703 478.039 879.922 476.508C880.177 474.977 880.487 473.518 880.852 472.133C881.253 470.747 881.763 469.526 882.383 468.469C883.039 467.375 883.841 466.518 884.789 465.898C885.737 465.242 886.885 464.932 888.234 464.969C889.146 464.969 889.839 465.352 890.312 466.117C890.823 466.883 891.169 467.812 891.352 468.906C891.57 470 891.68 471.13 891.68 472.297C891.716 473.427 891.734 474.357 891.734 475.086C891.005 475.086 890.404 474.776 889.93 474.156C889.456 473.5 889.091 472.753 888.836 471.914C888.581 471.076 888.398 470.255 888.289 469.453L888.125 467.867C888.089 467.867 888.016 467.867 887.906 467.867C887.833 467.831 887.779 467.812 887.742 467.812C887.122 467.812 886.539 468.159 885.992 468.852C885.482 469.544 884.99 470.438 884.516 471.531C884.078 472.589 883.695 473.792 883.367 475.141C883.039 476.453 882.766 477.747 882.547 479.023C882.328 480.299 882.146 481.484 882 482.578C881.891 483.635 881.836 484.456 881.836 485.039C881.763 485.987 881.763 487.026 881.836 488.156C881.909 489.286 882.128 490.344 882.492 491.328C882.857 492.312 883.367 493.169 884.023 493.898C884.68 494.591 885.555 495.065 886.648 495.32C887.997 495.32 889.091 495.138 889.93 494.773C890.768 494.409 891.443 493.917 891.953 493.297C892.5 492.677 892.919 491.984 893.211 491.219C893.503 490.453 893.776 489.669 894.031 488.867C894.323 488.029 894.615 487.208 894.906 486.406C895.198 485.604 895.617 484.857 896.164 484.164C896.602 484.055 896.911 484.073 897.094 484.219C897.312 484.328 897.458 484.492 897.531 484.711C897.604 484.93 897.641 485.185 897.641 485.477V486.078C897.641 487.609 897.385 489.086 896.875 490.508C896.365 491.93 895.617 493.206 894.633 494.336C893.648 495.43 892.464 496.323 891.078 497.016C889.729 497.672 888.18 498 886.43 498C884.971 498 883.75 497.544 882.766 496.633C881.818 495.685 881.07 494.555 880.523 493.242C880.013 491.93 879.648 490.562 879.43 489.141C879.211 487.682 879.102 486.443 879.102 485.422ZM902.453 474.648C902.089 474.831 901.742 475.031 901.414 475.25C901.122 475.432 900.831 475.615 900.539 475.797C900.247 475.943 899.956 476.052 899.664 476.125C899.372 476.198 899.062 476.198 898.734 476.125C898.516 476.125 898.333 475.997 898.188 475.742C898.042 475.451 897.932 475.141 897.859 474.812C897.75 474.448 897.677 474.102 897.641 473.773C897.604 473.409 897.604 473.135 897.641 472.953L902.891 469.945L903.219 455.945C903.292 455.471 903.583 455.289 904.094 455.398C904.604 455.471 905.133 455.581 905.68 455.727C905.753 455.727 905.862 455.763 906.008 455.836C906.19 455.872 906.318 455.909 906.391 455.945C906.318 456.93 906.227 458.005 906.117 459.172C906.044 460.302 905.971 461.451 905.898 462.617C905.826 463.747 905.771 464.859 905.734 465.953C905.734 467.047 905.789 468.031 905.898 468.906L914.102 466.609C914.247 466.573 914.357 466.682 914.43 466.938C914.539 467.156 914.63 467.43 914.703 467.758C914.812 468.086 914.885 468.414 914.922 468.742C914.958 469.07 914.977 469.234 914.977 469.234L905.68 473.172C905.68 473.5 905.698 474.284 905.734 475.523C905.807 476.763 905.88 478.24 905.953 479.953C906.026 481.63 906.099 483.453 906.172 485.422C906.245 487.354 906.318 489.159 906.391 490.836C906.464 492.513 906.518 493.99 906.555 495.266C906.591 496.505 906.609 497.289 906.609 497.617C906.536 498.711 906.208 499.258 905.625 499.258C905.078 499.258 904.477 498.984 903.82 498.438L902.453 474.648ZM929.906 491.656C929.76 492.094 929.396 492.695 928.812 493.461C928.266 494.19 927.609 494.938 926.844 495.703C926.078 496.432 925.276 497.089 924.438 497.672C923.635 498.219 922.924 498.492 922.305 498.492C921.138 498.492 920.172 497.945 919.406 496.852C918.677 495.758 918.112 494.354 917.711 492.641C917.31 490.927 917.036 489.031 916.891 486.953C916.745 484.839 916.654 482.779 916.617 480.773C916.581 478.768 916.562 476.945 916.562 475.305C916.562 473.664 916.508 472.424 916.398 471.586C916.544 471.221 916.727 471.003 916.945 470.93C917.201 470.857 917.492 470.82 917.82 470.82C918.112 470.82 918.367 470.857 918.586 470.93C918.841 471.003 919.06 471.221 919.242 471.586C919.242 471.987 919.242 472.661 919.242 473.609C919.279 474.557 919.333 475.633 919.406 476.836C919.479 478.003 919.552 479.242 919.625 480.555C919.698 481.831 919.753 483.052 919.789 484.219C919.862 485.385 919.917 486.443 919.953 487.391C920.026 488.302 920.081 488.977 920.117 489.414C920.154 489.669 920.19 490.089 920.227 490.672C920.299 491.255 920.391 491.875 920.5 492.531C920.646 493.151 920.81 493.716 920.992 494.227C921.211 494.737 921.484 495.01 921.812 495.047C922.359 495.047 922.906 494.81 923.453 494.336C924.036 493.862 924.602 493.26 925.148 492.531C925.695 491.802 926.206 491 926.68 490.125C927.154 489.25 927.573 488.411 927.938 487.609C928.339 486.771 928.63 486.023 928.812 485.367C929.031 484.711 929.159 484.237 929.195 483.945C929.268 483.326 929.341 482.451 929.414 481.32C929.487 480.154 929.542 478.914 929.578 477.602C929.615 476.289 929.633 475.049 929.633 473.883C929.669 472.716 929.688 471.823 929.688 471.203L932.695 471.367C932.732 474.32 932.714 477 932.641 479.406C932.568 481.776 932.549 484.018 932.586 486.133C932.622 488.211 932.786 490.234 933.078 492.203C933.37 494.172 933.898 496.214 934.664 498.328C934.555 498.438 934.336 498.583 934.008 498.766C933.68 498.984 933.443 499.094 933.297 499.094C932.385 499.094 931.766 498.784 931.438 498.164C931.146 497.581 930.945 496.888 930.836 496.086C930.763 495.247 930.69 494.427 930.617 493.625C930.581 492.786 930.344 492.13 929.906 491.656ZM953.258 496.578C953.076 495.63 952.911 494.5 952.766 493.188C952.656 491.839 952.529 490.49 952.383 489.141C952.237 487.755 952.055 486.461 951.836 485.258C951.654 484.055 951.362 483.07 950.961 482.305C949.102 486.096 947.461 489.086 946.039 491.273C944.617 493.424 943.359 494.974 942.266 495.922C941.208 496.833 940.315 497.271 939.586 497.234C938.857 497.198 938.255 496.87 937.781 496.25C937.307 495.63 936.961 494.846 936.742 493.898C936.56 492.914 936.432 492.003 936.359 491.164C936.359 490.362 936.542 489.232 936.906 487.773C937.271 486.315 937.763 484.729 938.383 483.016C939.003 481.266 939.732 479.497 940.57 477.711C941.445 475.924 942.375 474.302 943.359 472.844C944.344 471.385 945.365 470.182 946.422 469.234C947.479 468.286 948.536 467.812 949.594 467.812C951.161 467.557 952.31 467.904 953.039 468.852C953.805 469.763 953.951 471.312 953.477 473.5C953.477 475.906 953.568 477.966 953.75 479.68C953.969 481.393 954.188 483.034 954.406 484.602C954.661 486.169 954.88 487.81 955.062 489.523C955.281 491.237 955.391 493.297 955.391 495.703C955.391 496.141 955.336 496.523 955.227 496.852C955.154 497.143 954.716 497.289 953.914 497.289C953.805 497.289 953.659 497.198 953.477 497.016C953.331 496.833 953.258 496.688 953.258 496.578ZM950.305 472.133C949.904 471.549 949.357 471.495 948.664 471.969C947.971 472.443 947.242 473.227 946.477 474.32C945.711 475.414 944.927 476.727 944.125 478.258C943.323 479.789 942.576 481.339 941.883 482.906C941.19 484.474 940.589 485.969 940.078 487.391C939.568 488.776 939.221 489.924 939.039 490.836C939.039 492.148 939.24 492.896 939.641 493.078C940.042 493.224 940.534 493.005 941.117 492.422C941.701 491.839 942.357 491 943.086 489.906C943.852 488.812 944.581 487.646 945.273 486.406C946.003 485.167 946.677 483.964 947.297 482.797C947.953 481.63 948.464 480.682 948.828 479.953C949.156 479.188 949.411 478.477 949.594 477.82C949.776 477.164 949.922 476.544 950.031 475.961C950.177 475.341 950.25 474.721 950.25 474.102C950.286 473.482 950.305 472.826 950.305 472.133ZM959.383 495.211C959.638 493.534 959.802 491.438 959.875 488.922C959.984 486.406 960.021 483.727 959.984 480.883C959.984 478.039 959.93 475.104 959.82 472.078C959.711 469.052 959.565 466.19 959.383 463.492C959.201 460.758 958.982 458.315 958.727 456.164C958.508 454.013 958.271 452.318 958.016 451.078C958.344 450.859 958.617 450.695 958.836 450.586C959.091 450.44 959.383 450.367 959.711 450.367C959.966 450.367 960.185 450.422 960.367 450.531C960.549 450.604 960.695 450.786 960.805 451.078C961.534 458.224 962.026 465.424 962.281 472.68C962.573 479.935 962.792 487.154 962.938 494.336C962.938 494.664 962.938 495.12 962.938 495.703C962.938 496.25 962.919 496.542 962.883 496.578C962.372 496.833 961.917 496.961 961.516 496.961C961.115 496.924 960.75 496.815 960.422 496.633C960.094 496.414 959.839 496.177 959.656 495.922C959.474 495.667 959.383 495.43 959.383 495.211ZM1005.05 491.656C1004.9 492.094 1004.54 492.695 1003.95 493.461C1003.41 494.19 1002.75 494.938 1001.98 495.703C1001.22 496.432 1000.42 497.089 999.578 497.672C998.776 498.219 998.065 498.492 997.445 498.492C996.279 498.492 995.312 497.945 994.547 496.852C993.818 495.758 993.253 494.354 992.852 492.641C992.451 490.927 992.177 489.031 992.031 486.953C991.885 484.839 991.794 482.779 991.758 480.773C991.721 478.768 991.703 476.945 991.703 475.305C991.703 473.664 991.648 472.424 991.539 471.586C991.685 471.221 991.867 471.003 992.086 470.93C992.341 470.857 992.633 470.82 992.961 470.82C993.253 470.82 993.508 470.857 993.727 470.93C993.982 471.003 994.201 471.221 994.383 471.586C994.383 471.987 994.383 472.661 994.383 473.609C994.419 474.557 994.474 475.633 994.547 476.836C994.62 478.003 994.693 479.242 994.766 480.555C994.839 481.831 994.893 483.052 994.93 484.219C995.003 485.385 995.057 486.443 995.094 487.391C995.167 488.302 995.221 488.977 995.258 489.414C995.294 489.669 995.331 490.089 995.367 490.672C995.44 491.255 995.531 491.875 995.641 492.531C995.786 493.151 995.951 493.716 996.133 494.227C996.352 494.737 996.625 495.01 996.953 495.047C997.5 495.047 998.047 494.81 998.594 494.336C999.177 493.862 999.742 493.26 1000.29 492.531C1000.84 491.802 1001.35 491 1001.82 490.125C1002.29 489.25 1002.71 488.411 1003.08 487.609C1003.48 486.771 1003.77 486.023 1003.95 485.367C1004.17 484.711 1004.3 484.237 1004.34 483.945C1004.41 483.326 1004.48 482.451 1004.55 481.32C1004.63 480.154 1004.68 478.914 1004.72 477.602C1004.76 476.289 1004.77 475.049 1004.77 473.883C1004.81 472.716 1004.83 471.823 1004.83 471.203L1007.84 471.367C1007.87 474.32 1007.85 477 1007.78 479.406C1007.71 481.776 1007.69 484.018 1007.73 486.133C1007.76 488.211 1007.93 490.234 1008.22 492.203C1008.51 494.172 1009.04 496.214 1009.8 498.328C1009.7 498.438 1009.48 498.583 1009.15 498.766C1008.82 498.984 1008.58 499.094 1008.44 499.094C1007.53 499.094 1006.91 498.784 1006.58 498.164C1006.29 497.581 1006.09 496.888 1005.98 496.086C1005.9 495.247 1005.83 494.427 1005.76 493.625C1005.72 492.786 1005.48 492.13 1005.05 491.656ZM1017.19 497.18C1017.19 497.216 1017.57 496.997 1018.34 496.523C1019.14 496.049 1020.07 495.43 1021.12 494.664C1022.22 493.862 1023.33 493.005 1024.46 492.094C1025.59 491.146 1026.52 490.253 1027.25 489.414C1027.98 488.576 1028.36 487.865 1028.4 487.281C1028.47 486.661 1027.98 486.26 1026.92 486.078C1025.61 485.896 1024.5 485.914 1023.59 486.133C1022.71 486.352 1021.91 486.607 1021.18 486.898C1020.45 487.19 1019.76 487.464 1019.1 487.719C1018.48 487.974 1017.79 488.065 1017.02 487.992C1015.42 487.992 1014.31 487.5 1013.69 486.516C1013.1 485.495 1012.81 484.128 1012.81 482.414C1012.81 480.701 1013.2 479.078 1013.96 477.547C1014.73 475.979 1015.71 474.63 1016.91 473.5C1018.12 472.37 1019.5 471.477 1021.07 470.82C1022.64 470.128 1024.24 469.781 1025.88 469.781C1026.54 469.781 1027.1 469.836 1027.58 469.945C1028.05 470.055 1028.29 470.474 1028.29 471.203C1028.29 471.714 1028.07 472.206 1027.63 472.68C1027.2 473.117 1026.7 473.336 1026.16 473.336C1026.12 473.336 1026.03 473.318 1025.88 473.281C1025.74 473.208 1025.59 473.117 1025.45 473.008C1025.3 472.898 1025.15 472.826 1025.01 472.789C1024.86 472.716 1024.77 472.68 1024.73 472.68C1023.57 472.352 1022.44 472.516 1021.34 473.172C1020.25 473.828 1019.27 474.721 1018.39 475.852C1017.55 476.945 1016.88 478.148 1016.37 479.461C1015.86 480.737 1015.6 481.885 1015.6 482.906C1015.6 483.307 1015.67 483.635 1015.82 483.891C1016 484.109 1016.22 484.273 1016.48 484.383C1016.77 484.492 1017.08 484.565 1017.41 484.602C1017.77 484.602 1018.14 484.602 1018.5 484.602C1019.23 484.602 1019.96 484.492 1020.69 484.273C1021.45 484.055 1022.18 483.799 1022.88 483.508C1023.6 483.216 1024.33 482.961 1025.06 482.742C1025.83 482.523 1026.61 482.414 1027.41 482.414C1027.78 482.414 1028.18 482.523 1028.62 482.742C1029.05 482.924 1029.46 483.216 1029.82 483.617C1030.18 483.982 1030.49 484.419 1030.75 484.93C1031.01 485.404 1031.15 485.932 1031.19 486.516C1031.41 487.026 1031.33 487.701 1030.97 488.539C1030.64 489.378 1030.13 490.271 1029.44 491.219C1028.74 492.167 1027.91 493.133 1026.92 494.117C1025.94 495.065 1024.95 495.94 1023.97 496.742C1022.98 497.508 1022.02 498.128 1021.07 498.602C1020.12 499.112 1019.32 499.349 1018.66 499.312C1017.93 499.312 1017.5 499.094 1017.35 498.656C1017.24 498.219 1017.19 497.727 1017.19 497.18ZM1048.91 496.578C1048.72 495.63 1048.56 494.5 1048.41 493.188C1048.3 491.839 1048.18 490.49 1048.03 489.141C1047.89 487.755 1047.7 486.461 1047.48 485.258C1047.3 484.055 1047.01 483.07 1046.61 482.305C1044.75 486.096 1043.11 489.086 1041.69 491.273C1040.27 493.424 1039.01 494.974 1037.91 495.922C1036.86 496.833 1035.96 497.271 1035.23 497.234C1034.51 497.198 1033.9 496.87 1033.43 496.25C1032.96 495.63 1032.61 494.846 1032.39 493.898C1032.21 492.914 1032.08 492.003 1032.01 491.164C1032.01 490.362 1032.19 489.232 1032.55 487.773C1032.92 486.315 1033.41 484.729 1034.03 483.016C1034.65 481.266 1035.38 479.497 1036.22 477.711C1037.09 475.924 1038.02 474.302 1039.01 472.844C1039.99 471.385 1041.01 470.182 1042.07 469.234C1043.13 468.286 1044.18 467.812 1045.24 467.812C1046.81 467.557 1047.96 467.904 1048.69 468.852C1049.45 469.763 1049.6 471.312 1049.12 473.5C1049.12 475.906 1049.22 477.966 1049.4 479.68C1049.62 481.393 1049.84 483.034 1050.05 484.602C1050.31 486.169 1050.53 487.81 1050.71 489.523C1050.93 491.237 1051.04 493.297 1051.04 495.703C1051.04 496.141 1050.98 496.523 1050.88 496.852C1050.8 497.143 1050.36 497.289 1049.56 497.289C1049.45 497.289 1049.31 497.198 1049.12 497.016C1048.98 496.833 1048.91 496.688 1048.91 496.578ZM1045.95 472.133C1045.55 471.549 1045.01 471.495 1044.31 471.969C1043.62 472.443 1042.89 473.227 1042.12 474.32C1041.36 475.414 1040.58 476.727 1039.77 478.258C1038.97 479.789 1038.22 481.339 1037.53 482.906C1036.84 484.474 1036.24 485.969 1035.73 487.391C1035.22 488.776 1034.87 489.924 1034.69 490.836C1034.69 492.148 1034.89 492.896 1035.29 493.078C1035.69 493.224 1036.18 493.005 1036.77 492.422C1037.35 491.839 1038.01 491 1038.73 489.906C1039.5 488.812 1040.23 487.646 1040.92 486.406C1041.65 485.167 1042.33 483.964 1042.95 482.797C1043.6 481.63 1044.11 480.682 1044.48 479.953C1044.8 479.188 1045.06 478.477 1045.24 477.82C1045.42 477.164 1045.57 476.544 1045.68 475.961C1045.83 475.341 1045.9 474.721 1045.9 474.102C1045.93 473.482 1045.95 472.826 1045.95 472.133ZM1057.66 519.383C1060.86 519.201 1063.38 518.362 1065.2 516.867C1067.06 515.372 1068.45 513.44 1069.36 511.07C1070.27 508.701 1070.82 505.984 1071 502.922C1071.18 499.896 1071.2 496.76 1071.05 493.516C1070.91 490.271 1070.69 487.026 1070.4 483.781C1070.14 480.5 1070.03 477.456 1070.07 474.648C1068.5 479.242 1067.03 482.961 1065.64 485.805C1064.26 488.612 1062.96 490.745 1061.76 492.203C1060.59 493.625 1059.52 494.5 1058.53 494.828C1057.58 495.12 1056.74 495.065 1056.02 494.664C1055.29 494.227 1054.68 493.552 1054.21 492.641C1053.77 491.693 1053.46 490.727 1053.28 489.742C1053.35 488.065 1053.68 486.224 1054.27 484.219C1054.89 482.177 1055.67 480.19 1056.62 478.258C1057.6 476.289 1058.73 474.466 1060.01 472.789C1061.28 471.076 1062.63 469.745 1064.05 468.797C1065.48 467.812 1066.95 467.302 1068.48 467.266C1070.02 467.193 1071.49 467.776 1072.91 469.016C1072.95 469.052 1073.01 469.544 1073.08 470.492C1073.19 471.404 1073.3 472.625 1073.41 474.156C1073.55 475.651 1073.7 477.346 1073.84 479.242C1074.03 481.102 1074.19 482.997 1074.34 484.93C1074.48 486.826 1074.61 488.648 1074.72 490.398C1074.83 492.148 1074.94 493.661 1075.05 494.938C1075.19 497.016 1075.1 499.221 1074.77 501.555C1074.48 503.888 1074.01 506.148 1073.35 508.336C1072.7 510.56 1071.86 512.638 1070.84 514.57C1069.85 516.503 1068.7 518.089 1067.39 519.328C1066.11 520.568 1064.67 521.352 1063.07 521.68C1061.5 522.044 1059.83 521.771 1058.04 520.859C1057.93 520.859 1057.77 520.841 1057.55 520.805C1057.33 520.805 1057.15 520.75 1057 520.641C1056.89 520.531 1056.87 520.385 1056.95 520.203C1057.02 520.021 1057.26 519.747 1057.66 519.383ZM1056.12 489.359C1056.49 490.49 1056.96 491.073 1057.55 491.109C1058.17 491.109 1058.82 490.727 1059.52 489.961C1060.21 489.159 1060.96 488.047 1061.76 486.625C1062.6 485.203 1063.42 483.654 1064.22 481.977C1065.02 480.299 1065.8 478.586 1066.57 476.836C1067.37 475.049 1068.12 473.391 1068.81 471.859C1068.81 471.458 1068.72 471.094 1068.54 470.766C1068.36 470.401 1067.96 470.292 1067.34 470.438C1066.32 470.656 1065.31 471.148 1064.33 471.914C1063.38 472.68 1062.49 473.628 1061.65 474.758C1060.85 475.852 1060.1 477.073 1059.41 478.422C1058.75 479.734 1058.17 481.065 1057.66 482.414C1057.18 483.727 1056.8 484.984 1056.51 486.188C1056.25 487.391 1056.12 488.448 1056.12 489.359ZM1079.97 486.188C1079.79 486.224 1079.51 486.279 1079.15 486.352C1078.78 486.424 1078.4 486.443 1078 486.406C1077.6 486.37 1077.25 486.26 1076.96 486.078C1076.63 485.896 1076.47 485.586 1076.47 485.148C1076.47 484.893 1076.52 484.711 1076.63 484.602C1076.74 484.492 1076.92 484.328 1077.18 484.109C1077.98 483.453 1078.66 482.615 1079.2 481.594C1079.79 480.536 1080.32 479.424 1080.79 478.258C1081.26 477.055 1081.76 475.87 1082.27 474.703C1082.81 473.5 1083.43 472.424 1084.12 471.477C1084.82 470.529 1085.67 469.763 1086.7 469.18C1087.72 468.596 1088.97 468.323 1090.47 468.359C1091.09 468.359 1091.78 468.505 1092.55 468.797C1093.31 469.089 1094.02 469.49 1094.68 470C1095.34 470.474 1095.88 471.057 1096.32 471.75C1096.76 472.443 1096.98 473.208 1096.98 474.047C1097.16 474.339 1096.98 474.758 1096.43 475.305C1095.92 475.852 1095.21 476.453 1094.3 477.109C1093.39 477.729 1092.35 478.385 1091.18 479.078C1090.05 479.734 1088.96 480.354 1087.9 480.938C1086.84 481.521 1085.91 482.031 1085.11 482.469C1084.31 482.906 1083.78 483.234 1083.52 483.453C1083.34 483.818 1083.2 484.237 1083.09 484.711C1082.98 485.185 1082.89 485.641 1082.81 486.078C1082.78 486.479 1082.74 486.862 1082.7 487.227C1082.7 487.555 1082.7 487.81 1082.7 487.992C1082.7 488.685 1082.67 489.451 1082.59 490.289C1082.56 491.128 1082.59 491.93 1082.7 492.695C1082.85 493.424 1083.16 494.044 1083.63 494.555C1084.11 495.029 1084.91 495.266 1086.04 495.266C1087.24 495.266 1088.37 494.974 1089.43 494.391C1090.49 493.771 1091.47 493.023 1092.38 492.148C1093.29 491.273 1094.11 490.326 1094.84 489.305C1095.61 488.284 1096.28 487.336 1096.87 486.461C1097.49 485.549 1098.03 484.802 1098.51 484.219C1098.98 483.635 1099.38 483.344 1099.71 483.344C1100.08 483.344 1100.46 483.417 1100.86 483.562C1101.3 483.672 1101.52 483.964 1101.52 484.438C1101.52 485.094 1101.24 485.878 1100.7 486.789C1100.18 487.701 1099.49 488.667 1098.62 489.688C1097.78 490.708 1096.79 491.729 1095.66 492.75C1094.57 493.734 1093.46 494.628 1092.33 495.43C1091.2 496.195 1090.09 496.833 1088.99 497.344C1087.9 497.818 1086.93 498.055 1086.09 498.055C1084.45 498.055 1083.21 497.654 1082.38 496.852C1081.54 496.049 1080.93 495.047 1080.57 493.844C1080.24 492.641 1080.06 491.365 1080.02 490.016C1080.02 488.63 1080.01 487.354 1079.97 486.188ZM1090.03 471.422C1089.41 471.422 1088.76 471.732 1088.06 472.352C1087.37 472.935 1086.71 473.664 1086.09 474.539C1085.51 475.378 1085.02 476.253 1084.62 477.164C1084.25 478.039 1084.07 478.768 1084.07 479.352C1084.62 479.352 1085.4 479.151 1086.42 478.75C1087.48 478.312 1088.52 477.784 1089.54 477.164C1090.56 476.544 1091.45 475.888 1092.22 475.195C1092.98 474.503 1093.37 473.846 1093.37 473.227C1093.37 472.898 1093.24 472.625 1092.98 472.406C1092.73 472.188 1092.42 472.005 1092.05 471.859C1091.73 471.714 1091.38 471.604 1091.02 471.531C1090.65 471.458 1090.32 471.422 1090.03 471.422Z" fill="black"/>
<path d="M843.258 162.656C843.112 163.094 842.747 163.695 842.164 164.461C841.617 165.19 840.961 165.938 840.195 166.703C839.43 167.432 838.628 168.089 837.789 168.672C836.987 169.219 836.276 169.492 835.656 169.492C834.49 169.492 833.523 168.945 832.758 167.852C832.029 166.758 831.464 165.354 831.062 163.641C830.661 161.927 830.388 160.031 830.242 157.953C830.096 155.839 830.005 153.779 829.969 151.773C829.932 149.768 829.914 147.945 829.914 146.305C829.914 144.664 829.859 143.424 829.75 142.586C829.896 142.221 830.078 142.003 830.297 141.93C830.552 141.857 830.844 141.82 831.172 141.82C831.464 141.82 831.719 141.857 831.938 141.93C832.193 142.003 832.411 142.221 832.594 142.586C832.594 142.987 832.594 143.661 832.594 144.609C832.63 145.557 832.685 146.633 832.758 147.836C832.831 149.003 832.904 150.242 832.977 151.555C833.049 152.831 833.104 154.052 833.141 155.219C833.214 156.385 833.268 157.443 833.305 158.391C833.378 159.302 833.432 159.977 833.469 160.414C833.505 160.669 833.542 161.089 833.578 161.672C833.651 162.255 833.742 162.875 833.852 163.531C833.997 164.151 834.161 164.716 834.344 165.227C834.562 165.737 834.836 166.01 835.164 166.047C835.711 166.047 836.258 165.81 836.805 165.336C837.388 164.862 837.953 164.26 838.5 163.531C839.047 162.802 839.557 162 840.031 161.125C840.505 160.25 840.924 159.411 841.289 158.609C841.69 157.771 841.982 157.023 842.164 156.367C842.383 155.711 842.51 155.237 842.547 154.945C842.62 154.326 842.693 153.451 842.766 152.32C842.839 151.154 842.893 149.914 842.93 148.602C842.966 147.289 842.984 146.049 842.984 144.883C843.021 143.716 843.039 142.823 843.039 142.203L846.047 142.367C846.083 145.32 846.065 148 845.992 150.406C845.919 152.776 845.901 155.018 845.938 157.133C845.974 159.211 846.138 161.234 846.43 163.203C846.721 165.172 847.25 167.214 848.016 169.328C847.906 169.438 847.688 169.583 847.359 169.766C847.031 169.984 846.794 170.094 846.648 170.094C845.737 170.094 845.117 169.784 844.789 169.164C844.497 168.581 844.297 167.888 844.188 167.086C844.115 166.247 844.042 165.427 843.969 164.625C843.932 163.786 843.695 163.13 843.258 162.656ZM853.375 168.289C852.974 163.367 852.609 158.445 852.281 153.523C851.99 148.565 851.661 143.424 851.297 138.102C851.297 137.227 851.771 136.789 852.719 136.789H853.156C853.266 136.789 853.393 136.935 853.539 137.227C853.685 137.518 853.831 138.065 853.977 138.867C854.159 139.633 854.341 140.818 854.523 142.422C854.742 143.99 854.997 146.049 855.289 148.602C855.581 151.154 855.909 154.344 856.273 158.172C857.039 155.693 857.641 153.286 858.078 150.953C858.516 148.62 859.081 146.505 859.773 144.609C860.466 142.677 861.432 140.982 862.672 139.523C863.948 138.065 865.771 136.99 868.141 136.297C869.453 136.516 870.51 137.318 871.312 138.703C872.115 140.052 872.753 141.729 873.227 143.734C873.701 145.74 874.029 147.927 874.211 150.297C874.393 152.63 874.503 154.872 874.539 157.023C874.576 159.174 874.594 161.107 874.594 162.82C874.594 164.497 874.63 165.701 874.703 166.43C874.594 166.721 874.43 166.977 874.211 167.195C873.992 167.414 873.737 167.578 873.445 167.688C873.19 167.76 872.935 167.779 872.68 167.742C872.424 167.669 872.188 167.469 871.969 167.141C871.969 166.74 871.932 165.919 871.859 164.68C871.786 163.44 871.695 162 871.586 160.359C871.477 158.682 871.349 156.914 871.203 155.055C871.094 153.159 870.984 151.391 870.875 149.75C870.802 148.073 870.729 146.615 870.656 145.375C870.583 144.135 870.529 143.315 870.492 142.914C869.727 141.565 868.961 140.799 868.195 140.617C867.466 140.435 866.719 140.672 865.953 141.328C865.224 141.984 864.513 142.987 863.82 144.336C863.128 145.685 862.471 147.216 861.852 148.93C861.232 150.607 860.648 152.375 860.102 154.234C859.555 156.094 859.081 157.898 858.68 159.648C858.279 161.362 857.932 162.93 857.641 164.352C857.385 165.737 857.221 166.812 857.148 167.578C857.039 167.833 856.802 168.089 856.438 168.344C856.109 168.562 855.745 168.727 855.344 168.836C854.979 168.945 854.596 168.982 854.195 168.945C853.831 168.872 853.557 168.654 853.375 168.289ZM890.125 158.992C889.76 159.831 889.286 160.797 888.703 161.891C888.156 162.984 887.5 164.023 886.734 165.008C886.005 165.992 885.148 166.831 884.164 167.523C883.18 168.216 882.086 168.562 880.883 168.562C880.336 168.562 879.898 168.508 879.57 168.398C879.279 168.253 879.005 168.052 878.75 167.797C878.531 167.542 878.312 167.232 878.094 166.867C877.911 166.503 877.674 166.102 877.383 165.664C877.273 163.878 877.201 161.964 877.164 159.922C877.164 157.844 877.273 155.784 877.492 153.742C877.711 151.664 878.076 149.714 878.586 147.891C879.133 146.068 879.88 144.518 880.828 143.242C881.812 141.966 883.034 141.055 884.492 140.508C885.951 139.961 887.719 139.924 889.797 140.398C889.906 139.378 889.924 138.01 889.852 136.297C889.779 134.583 889.669 132.779 889.523 130.883C889.378 128.987 889.232 127.164 889.086 125.414C888.94 123.628 888.849 122.169 888.812 121.039C888.812 120.711 888.958 120.474 889.25 120.328C889.578 120.146 889.924 120.036 890.289 120C890.654 119.964 891 119.964 891.328 120C891.693 120.036 891.93 120.091 892.039 120.164C891.966 124.648 891.948 129.06 891.984 133.398C892.021 137.701 892.057 142.003 892.094 146.305C892.167 150.57 892.24 154.818 892.312 159.047C892.385 163.276 892.422 167.505 892.422 171.734C892.422 172.135 892.385 172.555 892.312 172.992C892.276 173.466 891.966 173.703 891.383 173.703C891.164 173.703 890.945 173.63 890.727 173.484C890.508 173.375 890.362 173.193 890.289 172.938L890.125 158.992ZM887.773 143.133C886.643 143.06 885.586 143.516 884.602 144.5C883.654 145.448 882.815 146.688 882.086 148.219C881.393 149.75 880.828 151.445 880.391 153.305C879.953 155.128 879.68 156.896 879.57 158.609C879.497 160.286 879.607 161.781 879.898 163.094C880.227 164.406 880.792 165.299 881.594 165.773C882.396 165.773 883.143 165.464 883.836 164.844C884.529 164.188 885.167 163.367 885.75 162.383C886.333 161.398 886.844 160.305 887.281 159.102C887.719 157.862 888.083 156.677 888.375 155.547C888.703 154.417 888.94 153.396 889.086 152.484C889.268 151.536 889.359 150.826 889.359 150.352C889.359 149.987 889.378 149.404 889.414 148.602C889.451 147.799 889.432 146.997 889.359 146.195C889.286 145.393 889.122 144.682 888.867 144.062C888.648 143.443 888.284 143.133 887.773 143.133ZM897.453 157.188C897.271 157.224 896.997 157.279 896.633 157.352C896.268 157.424 895.885 157.443 895.484 157.406C895.083 157.37 894.737 157.26 894.445 157.078C894.117 156.896 893.953 156.586 893.953 156.148C893.953 155.893 894.008 155.711 894.117 155.602C894.227 155.492 894.409 155.328 894.664 155.109C895.466 154.453 896.141 153.615 896.688 152.594C897.271 151.536 897.799 150.424 898.273 149.258C898.747 148.055 899.24 146.87 899.75 145.703C900.297 144.5 900.917 143.424 901.609 142.477C902.302 141.529 903.159 140.763 904.18 140.18C905.201 139.596 906.458 139.323 907.953 139.359C908.573 139.359 909.266 139.505 910.031 139.797C910.797 140.089 911.508 140.49 912.164 141C912.82 141.474 913.367 142.057 913.805 142.75C914.242 143.443 914.461 144.208 914.461 145.047C914.643 145.339 914.461 145.758 913.914 146.305C913.404 146.852 912.693 147.453 911.781 148.109C910.87 148.729 909.831 149.385 908.664 150.078C907.534 150.734 906.44 151.354 905.383 151.938C904.326 152.521 903.396 153.031 902.594 153.469C901.792 153.906 901.263 154.234 901.008 154.453C900.826 154.818 900.68 155.237 900.57 155.711C900.461 156.185 900.37 156.641 900.297 157.078C900.26 157.479 900.224 157.862 900.188 158.227C900.188 158.555 900.188 158.81 900.188 158.992C900.188 159.685 900.151 160.451 900.078 161.289C900.042 162.128 900.078 162.93 900.188 163.695C900.333 164.424 900.643 165.044 901.117 165.555C901.591 166.029 902.393 166.266 903.523 166.266C904.727 166.266 905.857 165.974 906.914 165.391C907.971 164.771 908.956 164.023 909.867 163.148C910.779 162.273 911.599 161.326 912.328 160.305C913.094 159.284 913.768 158.336 914.352 157.461C914.971 156.549 915.518 155.802 915.992 155.219C916.466 154.635 916.867 154.344 917.195 154.344C917.56 154.344 917.943 154.417 918.344 154.562C918.781 154.672 919 154.964 919 155.438C919 156.094 918.727 156.878 918.18 157.789C917.669 158.701 916.977 159.667 916.102 160.688C915.263 161.708 914.279 162.729 913.148 163.75C912.055 164.734 910.943 165.628 909.812 166.43C908.682 167.195 907.57 167.833 906.477 168.344C905.383 168.818 904.417 169.055 903.578 169.055C901.938 169.055 900.698 168.654 899.859 167.852C899.021 167.049 898.419 166.047 898.055 164.844C897.727 163.641 897.544 162.365 897.508 161.016C897.508 159.63 897.49 158.354 897.453 157.188ZM907.516 142.422C906.896 142.422 906.24 142.732 905.547 143.352C904.854 143.935 904.198 144.664 903.578 145.539C902.995 146.378 902.503 147.253 902.102 148.164C901.737 149.039 901.555 149.768 901.555 150.352C902.102 150.352 902.885 150.151 903.906 149.75C904.964 149.312 906.003 148.784 907.023 148.164C908.044 147.544 908.938 146.888 909.703 146.195C910.469 145.503 910.852 144.846 910.852 144.227C910.852 143.898 910.724 143.625 910.469 143.406C910.214 143.188 909.904 143.005 909.539 142.859C909.211 142.714 908.865 142.604 908.5 142.531C908.135 142.458 907.807 142.422 907.516 142.422ZM921.734 142.641V142.203C921.734 141.839 921.862 141.583 922.117 141.438C922.409 141.292 922.737 141.219 923.102 141.219C923.393 141.219 923.667 141.255 923.922 141.328C924.177 141.365 924.378 141.565 924.523 141.93C924.633 142.477 924.742 143.242 924.852 144.227C924.961 145.174 925.089 146.232 925.234 147.398C925.38 148.565 925.526 149.805 925.672 151.117C925.854 152.393 926.018 153.615 926.164 154.781C926.346 155.911 926.529 156.932 926.711 157.844C926.893 158.755 927.094 159.448 927.312 159.922C927.203 156.422 927.312 153.396 927.641 150.844C927.969 148.255 928.589 146.159 929.5 144.555C930.448 142.914 931.724 141.784 933.328 141.164C934.969 140.508 937.01 140.362 939.453 140.727C940.583 140.727 941.148 141.328 941.148 142.531C941.148 143.005 940.839 143.333 940.219 143.516C939.599 143.661 938.906 143.771 938.141 143.844C937.375 143.88 936.628 143.935 935.898 144.008C935.169 144.081 934.641 144.263 934.312 144.555C933 145.284 932.07 146.414 931.523 147.945C931.013 149.477 930.648 151.281 930.43 153.359C930.211 155.438 930.047 157.716 929.938 160.195C929.865 162.638 929.628 165.154 929.227 167.742C929.227 168.107 929.081 168.38 928.789 168.562C928.497 168.745 928.133 168.836 927.695 168.836C927.294 168.836 926.893 168.745 926.492 168.562C926.128 168.38 925.836 168.107 925.617 167.742L921.734 142.641ZM957.828 162.656C957.682 163.094 957.318 163.695 956.734 164.461C956.188 165.19 955.531 165.938 954.766 166.703C954 167.432 953.198 168.089 952.359 168.672C951.557 169.219 950.846 169.492 950.227 169.492C949.06 169.492 948.094 168.945 947.328 167.852C946.599 166.758 946.034 165.354 945.633 163.641C945.232 161.927 944.958 160.031 944.812 157.953C944.667 155.839 944.576 153.779 944.539 151.773C944.503 149.768 944.484 147.945 944.484 146.305C944.484 144.664 944.43 143.424 944.32 142.586C944.466 142.221 944.648 142.003 944.867 141.93C945.122 141.857 945.414 141.82 945.742 141.82C946.034 141.82 946.289 141.857 946.508 141.93C946.763 142.003 946.982 142.221 947.164 142.586C947.164 142.987 947.164 143.661 947.164 144.609C947.201 145.557 947.255 146.633 947.328 147.836C947.401 149.003 947.474 150.242 947.547 151.555C947.62 152.831 947.674 154.052 947.711 155.219C947.784 156.385 947.839 157.443 947.875 158.391C947.948 159.302 948.003 159.977 948.039 160.414C948.076 160.669 948.112 161.089 948.148 161.672C948.221 162.255 948.312 162.875 948.422 163.531C948.568 164.151 948.732 164.716 948.914 165.227C949.133 165.737 949.406 166.01 949.734 166.047C950.281 166.047 950.828 165.81 951.375 165.336C951.958 164.862 952.523 164.26 953.07 163.531C953.617 162.802 954.128 162 954.602 161.125C955.076 160.25 955.495 159.411 955.859 158.609C956.26 157.771 956.552 157.023 956.734 156.367C956.953 155.711 957.081 155.237 957.117 154.945C957.19 154.326 957.263 153.451 957.336 152.32C957.409 151.154 957.464 149.914 957.5 148.602C957.536 147.289 957.555 146.049 957.555 144.883C957.591 143.716 957.609 142.823 957.609 142.203L960.617 142.367C960.654 145.32 960.635 148 960.562 150.406C960.49 152.776 960.471 155.018 960.508 157.133C960.544 159.211 960.708 161.234 961 163.203C961.292 165.172 961.82 167.214 962.586 169.328C962.477 169.438 962.258 169.583 961.93 169.766C961.602 169.984 961.365 170.094 961.219 170.094C960.307 170.094 959.688 169.784 959.359 169.164C959.068 168.581 958.867 167.888 958.758 167.086C958.685 166.247 958.612 165.427 958.539 164.625C958.503 163.786 958.266 163.13 957.828 162.656ZM967.125 145.648C966.76 145.831 966.414 146.031 966.086 146.25C965.794 146.432 965.503 146.615 965.211 146.797C964.919 146.943 964.628 147.052 964.336 147.125C964.044 147.198 963.734 147.198 963.406 147.125C963.188 147.125 963.005 146.997 962.859 146.742C962.714 146.451 962.604 146.141 962.531 145.812C962.422 145.448 962.349 145.102 962.312 144.773C962.276 144.409 962.276 144.135 962.312 143.953L967.562 140.945L967.891 126.945C967.964 126.471 968.255 126.289 968.766 126.398C969.276 126.471 969.805 126.581 970.352 126.727C970.424 126.727 970.534 126.763 970.68 126.836C970.862 126.872 970.99 126.909 971.062 126.945C970.99 127.93 970.898 129.005 970.789 130.172C970.716 131.302 970.643 132.451 970.57 133.617C970.497 134.747 970.443 135.859 970.406 136.953C970.406 138.047 970.461 139.031 970.57 139.906L978.773 137.609C978.919 137.573 979.029 137.682 979.102 137.938C979.211 138.156 979.302 138.43 979.375 138.758C979.484 139.086 979.557 139.414 979.594 139.742C979.63 140.07 979.648 140.234 979.648 140.234L970.352 144.172C970.352 144.5 970.37 145.284 970.406 146.523C970.479 147.763 970.552 149.24 970.625 150.953C970.698 152.63 970.771 154.453 970.844 156.422C970.917 158.354 970.99 160.159 971.062 161.836C971.135 163.513 971.19 164.99 971.227 166.266C971.263 167.505 971.281 168.289 971.281 168.617C971.208 169.711 970.88 170.258 970.297 170.258C969.75 170.258 969.148 169.984 968.492 169.438L967.125 145.648ZM981.562 167.906C981.562 165.536 981.508 163.039 981.398 160.414C981.326 157.789 981.234 155.146 981.125 152.484C981.052 149.786 981.034 147.143 981.07 144.555C981.107 141.966 981.271 139.542 981.562 137.281C981.635 137.245 981.799 137.227 982.055 137.227C982.346 137.19 982.547 137.172 982.656 137.172C983.167 137.172 983.568 137.263 983.859 137.445C984.188 137.591 984.352 137.938 984.352 138.484C984.352 140.635 984.333 142.987 984.297 145.539C984.297 148.055 984.279 150.625 984.242 153.25C984.242 155.839 984.242 158.409 984.242 160.961C984.242 163.513 984.279 165.828 984.352 167.906C984.388 168.526 984.26 168.927 983.969 169.109C983.714 169.328 983.385 169.438 982.984 169.438C982.547 169.438 982.182 169.328 981.891 169.109C981.599 168.927 981.49 168.526 981.562 167.906ZM980.359 128.75C980.359 128.312 980.505 128.021 980.797 127.875C981.089 127.729 981.417 127.656 981.781 127.656C982.51 127.656 982.966 127.893 983.148 128.367C983.331 128.841 983.422 129.388 983.422 130.008C983.203 130.409 982.93 130.701 982.602 130.883C982.273 131.029 981.927 131.065 981.562 130.992C981.234 130.883 980.943 130.646 980.688 130.281C980.469 129.917 980.359 129.406 980.359 128.75ZM989.273 166.211C989.529 164.534 989.693 162.438 989.766 159.922C989.875 157.406 989.911 154.727 989.875 151.883C989.875 149.039 989.82 146.104 989.711 143.078C989.602 140.052 989.456 137.19 989.273 134.492C989.091 131.758 988.872 129.315 988.617 127.164C988.398 125.013 988.161 123.318 987.906 122.078C988.234 121.859 988.508 121.695 988.727 121.586C988.982 121.44 989.273 121.367 989.602 121.367C989.857 121.367 990.076 121.422 990.258 121.531C990.44 121.604 990.586 121.786 990.695 122.078C991.424 129.224 991.917 136.424 992.172 143.68C992.464 150.935 992.682 158.154 992.828 165.336C992.828 165.664 992.828 166.12 992.828 166.703C992.828 167.25 992.81 167.542 992.773 167.578C992.263 167.833 991.807 167.961 991.406 167.961C991.005 167.924 990.641 167.815 990.312 167.633C989.984 167.414 989.729 167.177 989.547 166.922C989.365 166.667 989.273 166.43 989.273 166.211ZM996.711 167.906C996.711 165.536 996.656 163.039 996.547 160.414C996.474 157.789 996.383 155.146 996.273 152.484C996.201 149.786 996.182 147.143 996.219 144.555C996.255 141.966 996.419 139.542 996.711 137.281C996.784 137.245 996.948 137.227 997.203 137.227C997.495 137.19 997.695 137.172 997.805 137.172C998.315 137.172 998.716 137.263 999.008 137.445C999.336 137.591 999.5 137.938 999.5 138.484C999.5 140.635 999.482 142.987 999.445 145.539C999.445 148.055 999.427 150.625 999.391 153.25C999.391 155.839 999.391 158.409 999.391 160.961C999.391 163.513 999.427 165.828 999.5 167.906C999.536 168.526 999.409 168.927 999.117 169.109C998.862 169.328 998.534 169.438 998.133 169.438C997.695 169.438 997.331 169.328 997.039 169.109C996.747 168.927 996.638 168.526 996.711 167.906ZM995.508 128.75C995.508 128.312 995.654 128.021 995.945 127.875C996.237 127.729 996.565 127.656 996.93 127.656C997.659 127.656 998.115 127.893 998.297 128.367C998.479 128.841 998.57 129.388 998.57 130.008C998.352 130.409 998.078 130.701 997.75 130.883C997.422 131.029 997.076 131.065 996.711 130.992C996.383 130.883 996.091 130.646 995.836 130.281C995.617 129.917 995.508 129.406 995.508 128.75ZM1010.71 169.547C1010.53 168.708 1010.58 167.633 1010.88 166.32C1011.2 164.971 1011.66 163.513 1012.24 161.945C1012.83 160.378 1013.5 158.755 1014.27 157.078C1015.07 155.401 1015.83 153.815 1016.56 152.32C1017.33 150.789 1018 149.404 1018.59 148.164C1019.17 146.924 1019.57 145.94 1019.79 145.211C1019.79 145.174 1019.79 145.138 1019.79 145.102C1019.83 145.029 1019.84 144.956 1019.84 144.883C1019.84 144.81 1019.83 144.737 1019.79 144.664C1019.79 144.591 1019.79 144.536 1019.79 144.5C1018.77 144.901 1017.64 145.357 1016.4 145.867C1015.2 146.341 1013.97 146.815 1012.73 147.289C1011.49 147.727 1010.27 148.146 1009.07 148.547C1007.9 148.911 1006.83 149.203 1005.84 149.422C1005.7 149.531 1005.44 149.495 1005.08 149.312C1004.71 149.13 1004.37 148.893 1004.04 148.602C1003.71 148.273 1003.47 147.945 1003.33 147.617C1003.22 147.253 1003.35 146.924 1003.71 146.633C1004.91 146.633 1006.34 146.396 1007.98 145.922C1009.62 145.411 1011.28 144.828 1012.95 144.172C1014.67 143.516 1016.33 142.878 1017.93 142.258C1019.57 141.602 1021.01 141.146 1022.25 140.891C1023.45 140.891 1024.05 141.492 1024.05 142.695C1024.05 144.008 1023.82 145.302 1023.34 146.578C1022.91 147.818 1022.34 149.039 1021.65 150.242C1020.99 151.445 1020.26 152.63 1019.46 153.797C1018.7 154.964 1017.97 156.148 1017.27 157.352C1016.62 158.555 1016.05 159.776 1015.58 161.016C1015.1 162.255 1014.87 163.531 1014.87 164.844V165.5L1034.88 161.398H1035.27C1035.78 161.398 1036.23 161.562 1036.63 161.891C1037.07 162.182 1037.38 162.529 1037.56 162.93C1037.78 163.294 1037.8 163.677 1037.62 164.078C1037.43 164.479 1036.98 164.771 1036.25 164.953C1036.1 164.953 1035.94 164.971 1035.76 165.008C1035.61 165.044 1035.27 165.117 1034.72 165.227C1034.21 165.299 1033.44 165.427 1032.42 165.609C1031.4 165.755 1029.96 165.992 1028.1 166.32C1026.28 166.648 1023.95 167.086 1021.1 167.633C1018.29 168.143 1014.83 168.781 1010.71 169.547ZM1039.48 157.188C1039.29 157.224 1039.02 157.279 1038.66 157.352C1038.29 157.424 1037.91 157.443 1037.51 157.406C1037.11 157.37 1036.76 157.26 1036.47 157.078C1036.14 156.896 1035.98 156.586 1035.98 156.148C1035.98 155.893 1036.03 155.711 1036.14 155.602C1036.25 155.492 1036.43 155.328 1036.69 155.109C1037.49 154.453 1038.16 153.615 1038.71 152.594C1039.29 151.536 1039.82 150.424 1040.3 149.258C1040.77 148.055 1041.26 146.87 1041.77 145.703C1042.32 144.5 1042.94 143.424 1043.63 142.477C1044.33 141.529 1045.18 140.763 1046.2 140.18C1047.22 139.596 1048.48 139.323 1049.98 139.359C1050.6 139.359 1051.29 139.505 1052.05 139.797C1052.82 140.089 1053.53 140.49 1054.19 141C1054.84 141.474 1055.39 142.057 1055.83 142.75C1056.27 143.443 1056.48 144.208 1056.48 145.047C1056.67 145.339 1056.48 145.758 1055.94 146.305C1055.43 146.852 1054.72 147.453 1053.8 148.109C1052.89 148.729 1051.85 149.385 1050.69 150.078C1049.56 150.734 1048.46 151.354 1047.41 151.938C1046.35 152.521 1045.42 153.031 1044.62 153.469C1043.82 153.906 1043.29 154.234 1043.03 154.453C1042.85 154.818 1042.7 155.237 1042.59 155.711C1042.48 156.185 1042.39 156.641 1042.32 157.078C1042.28 157.479 1042.25 157.862 1042.21 158.227C1042.21 158.555 1042.21 158.81 1042.21 158.992C1042.21 159.685 1042.17 160.451 1042.1 161.289C1042.07 162.128 1042.1 162.93 1042.21 163.695C1042.36 164.424 1042.67 165.044 1043.14 165.555C1043.61 166.029 1044.42 166.266 1045.55 166.266C1046.75 166.266 1047.88 165.974 1048.94 165.391C1049.99 164.771 1050.98 164.023 1051.89 163.148C1052.8 162.273 1053.62 161.326 1054.35 160.305C1055.12 159.284 1055.79 158.336 1056.38 157.461C1056.99 156.549 1057.54 155.802 1058.02 155.219C1058.49 154.635 1058.89 154.344 1059.22 154.344C1059.58 154.344 1059.97 154.417 1060.37 154.562C1060.8 154.672 1061.02 154.964 1061.02 155.438C1061.02 156.094 1060.75 156.878 1060.2 157.789C1059.69 158.701 1059 159.667 1058.12 160.688C1057.29 161.708 1056.3 162.729 1055.17 163.75C1054.08 164.734 1052.97 165.628 1051.84 166.43C1050.71 167.195 1049.59 167.833 1048.5 168.344C1047.41 168.818 1046.44 169.055 1045.6 169.055C1043.96 169.055 1042.72 168.654 1041.88 167.852C1041.04 167.049 1040.44 166.047 1040.08 164.844C1039.75 163.641 1039.57 162.365 1039.53 161.016C1039.53 159.63 1039.51 158.354 1039.48 157.188ZM1049.54 142.422C1048.92 142.422 1048.26 142.732 1047.57 143.352C1046.88 143.935 1046.22 144.664 1045.6 145.539C1045.02 146.378 1044.53 147.253 1044.12 148.164C1043.76 149.039 1043.58 149.768 1043.58 150.352C1044.12 150.352 1044.91 150.151 1045.93 149.75C1046.99 149.312 1048.03 148.784 1049.05 148.164C1050.07 147.544 1050.96 146.888 1051.73 146.195C1052.49 145.503 1052.88 144.846 1052.88 144.227C1052.88 143.898 1052.75 143.625 1052.49 143.406C1052.24 143.188 1051.93 143.005 1051.56 142.859C1051.23 142.714 1050.89 142.604 1050.52 142.531C1050.16 142.458 1049.83 142.422 1049.54 142.422ZM1075.73 158.992C1075.37 159.831 1074.9 160.797 1074.31 161.891C1073.77 162.984 1073.11 164.023 1072.34 165.008C1071.61 165.992 1070.76 166.831 1069.77 167.523C1068.79 168.216 1067.7 168.562 1066.49 168.562C1065.95 168.562 1065.51 168.508 1065.18 168.398C1064.89 168.253 1064.61 168.052 1064.36 167.797C1064.14 167.542 1063.92 167.232 1063.7 166.867C1063.52 166.503 1063.28 166.102 1062.99 165.664C1062.88 163.878 1062.81 161.964 1062.77 159.922C1062.77 157.844 1062.88 155.784 1063.1 153.742C1063.32 151.664 1063.68 149.714 1064.2 147.891C1064.74 146.068 1065.49 144.518 1066.44 143.242C1067.42 141.966 1068.64 141.055 1070.1 140.508C1071.56 139.961 1073.33 139.924 1075.41 140.398C1075.52 139.378 1075.53 138.01 1075.46 136.297C1075.39 134.583 1075.28 132.779 1075.13 130.883C1074.99 128.987 1074.84 127.164 1074.7 125.414C1074.55 123.628 1074.46 122.169 1074.42 121.039C1074.42 120.711 1074.57 120.474 1074.86 120.328C1075.19 120.146 1075.53 120.036 1075.9 120C1076.26 119.964 1076.61 119.964 1076.94 120C1077.3 120.036 1077.54 120.091 1077.65 120.164C1077.58 124.648 1077.56 129.06 1077.59 133.398C1077.63 137.701 1077.67 142.003 1077.7 146.305C1077.78 150.57 1077.85 154.818 1077.92 159.047C1077.99 163.276 1078.03 167.505 1078.03 171.734C1078.03 172.135 1077.99 172.555 1077.92 172.992C1077.89 173.466 1077.58 173.703 1076.99 173.703C1076.77 173.703 1076.55 173.63 1076.34 173.484C1076.12 173.375 1075.97 173.193 1075.9 172.938L1075.73 158.992ZM1073.38 143.133C1072.25 143.06 1071.2 143.516 1070.21 144.5C1069.26 145.448 1068.42 146.688 1067.7 148.219C1067 149.75 1066.44 151.445 1066 153.305C1065.56 155.128 1065.29 156.896 1065.18 158.609C1065.11 160.286 1065.22 161.781 1065.51 163.094C1065.84 164.406 1066.4 165.299 1067.2 165.773C1068.01 165.773 1068.75 165.464 1069.45 164.844C1070.14 164.188 1070.78 163.367 1071.36 162.383C1071.94 161.398 1072.45 160.305 1072.89 159.102C1073.33 157.862 1073.69 156.677 1073.98 155.547C1074.31 154.417 1074.55 153.396 1074.7 152.484C1074.88 151.536 1074.97 150.826 1074.97 150.352C1074.97 149.987 1074.99 149.404 1075.02 148.602C1075.06 147.799 1075.04 146.997 1074.97 146.195C1074.9 145.393 1074.73 144.682 1074.48 144.062C1074.26 143.443 1073.89 143.133 1073.38 143.133Z" fill="black"/>
<path d="M612.927 302.995C612.348 303.588 612.359 304.537 612.952 305.117L622.606 314.553C623.198 315.132 624.148 315.121 624.727 314.529C625.306 313.936 625.295 312.987 624.703 312.407L616.121 304.02L624.509 295.438C625.088 294.846 625.077 293.896 624.485 293.317C623.892 292.738 622.943 292.749 622.364 293.341L612.927 302.995ZM987.368 431.385C976.94 408.165 956.63 388.448 930.11 371.961C903.581 355.466 870.733 342.138 835.054 331.737C763.699 310.935 680.812 301.781 613.983 302.544L614.017 305.544C680.595 304.784 763.183 313.909 834.215 334.617C869.729 344.97 902.302 358.204 928.526 374.508C954.76 390.819 974.536 410.136 984.632 432.615L987.368 431.385Z" fill="black"/>
<path d="M655.1 252.8C654.437 253.297 654.303 254.237 654.8 254.9L662.9 265.7C663.397 266.363 664.337 266.497 665 266C665.663 265.503 665.797 264.563 665.3 263.9L658.1 254.3L667.7 247.1C668.363 246.603 668.497 245.663 668 245C667.503 244.337 666.563 244.203 665.9 244.7L655.1 252.8ZM954.658 195.329C946.409 211.828 928.212 224.398 904.083 233.758C879.998 243.1 850.262 249.143 819.326 252.76C757.453 259.995 691.083 257.497 656.212 252.515L655.788 255.485C690.917 260.503 757.547 263.005 819.674 255.74C850.738 252.107 880.752 246.025 905.167 236.555C929.538 227.102 948.591 214.172 957.342 196.671L954.658 195.329Z" fill="black"/>
</svg>
