<svg width="1200" height="900" viewBox="0 0 1200 900" fill="none" xmlns="http://www.w3.org/2000/svg">
<rect width="1200" height="900" fill="white"/>
<path fill-rule="evenodd" clip-rule="evenodd" d="M712.52 106.345V804.292C712.52 813.548 705.01 821.051 695.749 821.051H105.771C96.5106 821.051 89 813.548 89 804.292V106.345C89 97.0891 96.5093 89.5859 105.771 89.5859H695.749C705.009 89.5859 712.52 97.0891 712.52 106.345Z" fill="#D2D2D2"/>
<path fill-rule="evenodd" clip-rule="evenodd" d="M195.964 787.534H688.372V800.398H195.964V787.534ZM195.964 766.832H688.372V779.696H195.964V766.832ZM195.964 747.116H688.372V759.98H195.964V747.116ZM112.664 112.259H688.372V125.075H112.664V112.259Z" fill="#A3A3A3"/>
<path fill-rule="evenodd" clip-rule="evenodd" d="M119.386 147.787H682.131C683.012 147.787 683.885 147.96 684.699 148.297C685.513 148.634 686.252 149.128 686.875 149.751C687.498 150.374 687.993 151.113 688.33 151.927C688.667 152.741 688.841 153.613 688.841 154.494V717.175C688.841 718.954 688.134 720.66 686.876 721.918C685.618 723.177 683.912 723.883 682.133 723.883H119.385C117.606 723.883 115.9 723.177 114.642 721.918C113.384 720.66 112.677 718.954 112.677 717.175V154.494C112.677 152.715 113.384 151.009 114.642 149.751C115.9 148.493 117.606 147.787 119.385 147.787H119.386Z" fill="#FDDFE1"/>
<path d="M112.417 178.308H689.111V718.034C689.111 719.668 688.462 721.236 687.307 722.391C686.151 723.547 684.584 724.196 682.95 724.196H118.578C116.944 724.196 115.377 723.547 114.222 722.391C113.066 721.236 112.417 719.668 112.417 718.034V178.308Z" fill="#EFFFBD"/>
<path d="M112.417 527.036H689.111V718.035C689.111 719.67 688.462 721.237 687.307 722.392C686.151 723.548 684.584 724.197 682.95 724.197H118.578C116.944 724.197 115.377 723.548 114.222 722.392C113.066 721.237 112.417 719.67 112.417 718.035V527.036Z" fill="#66E8FF"/>
<path d="M112.417 662.582H689.111V714.337C689.111 716.951 688.073 719.459 686.224 721.307C684.375 723.156 681.868 724.195 679.253 724.195H122.275C119.661 724.195 117.153 723.156 115.304 721.307C113.456 719.459 112.417 716.951 112.417 714.337V662.582Z" fill="#00A8C6"/>
<path d="M89 178.308L712.52 179.54" stroke="black" stroke-width="13.5548" stroke-dasharray="36.97 36.97"/>
<rect x="333.213" y="370.373" width="134.981" height="134.981" stroke="#8FBE00" stroke-width="3"/>
<rect x="529.379" y="370.373" width="134.981" height="134.981" stroke="#8FBE00" stroke-width="3"/>
<rect x="137.048" y="205.793" width="134.981" height="134.981" stroke="#8FBE00" stroke-width="3"/>
<rect x="333.213" y="205.793" width="134.981" height="134.981" stroke="#8FBE00" stroke-width="3"/>
<rect x="529.379" y="205.793" width="134.981" height="134.981" stroke="#8FBE00" stroke-width="3"/>
<rect x="137.048" y="370.373" width="134.981" height="134.981" stroke="#8FBE00" stroke-width="3"/>
<path d="M889.141 475.641V475.203C889.141 474.839 889.268 474.583 889.523 474.438C889.815 474.292 890.143 474.219 890.508 474.219C890.799 474.219 891.073 474.255 891.328 474.328C891.583 474.365 891.784 474.565 891.93 474.93C892.039 475.477 892.148 476.242 892.258 477.227C892.367 478.174 892.495 479.232 892.641 480.398C892.786 481.565 892.932 482.805 893.078 484.117C893.26 485.393 893.424 486.615 893.57 487.781C893.753 488.911 893.935 489.932 894.117 490.844C894.299 491.755 894.5 492.448 894.719 492.922C894.609 489.422 894.719 486.396 895.047 483.844C895.375 481.255 895.995 479.159 896.906 477.555C897.854 475.914 899.13 474.784 900.734 474.164C902.375 473.508 904.417 473.362 906.859 473.727C907.99 473.727 908.555 474.328 908.555 475.531C908.555 476.005 908.245 476.333 907.625 476.516C907.005 476.661 906.312 476.771 905.547 476.844C904.781 476.88 904.034 476.935 903.305 477.008C902.576 477.081 902.047 477.263 901.719 477.555C900.406 478.284 899.477 479.414 898.93 480.945C898.419 482.477 898.055 484.281 897.836 486.359C897.617 488.438 897.453 490.716 897.344 493.195C897.271 495.638 897.034 498.154 896.633 500.742C896.633 501.107 896.487 501.38 896.195 501.562C895.904 501.745 895.539 501.836 895.102 501.836C894.701 501.836 894.299 501.745 893.898 501.562C893.534 501.38 893.242 501.107 893.023 500.742L889.141 475.641ZM912.93 490.188C912.747 490.224 912.474 490.279 912.109 490.352C911.745 490.424 911.362 490.443 910.961 490.406C910.56 490.37 910.214 490.26 909.922 490.078C909.594 489.896 909.43 489.586 909.43 489.148C909.43 488.893 909.484 488.711 909.594 488.602C909.703 488.492 909.885 488.328 910.141 488.109C910.943 487.453 911.617 486.615 912.164 485.594C912.747 484.536 913.276 483.424 913.75 482.258C914.224 481.055 914.716 479.87 915.227 478.703C915.773 477.5 916.393 476.424 917.086 475.477C917.779 474.529 918.635 473.763 919.656 473.18C920.677 472.596 921.935 472.323 923.43 472.359C924.049 472.359 924.742 472.505 925.508 472.797C926.273 473.089 926.984 473.49 927.641 474C928.297 474.474 928.844 475.057 929.281 475.75C929.719 476.443 929.938 477.208 929.938 478.047C930.12 478.339 929.938 478.758 929.391 479.305C928.88 479.852 928.169 480.453 927.258 481.109C926.346 481.729 925.307 482.385 924.141 483.078C923.01 483.734 921.917 484.354 920.859 484.938C919.802 485.521 918.872 486.031 918.07 486.469C917.268 486.906 916.74 487.234 916.484 487.453C916.302 487.818 916.156 488.237 916.047 488.711C915.938 489.185 915.846 489.641 915.773 490.078C915.737 490.479 915.701 490.862 915.664 491.227C915.664 491.555 915.664 491.81 915.664 491.992C915.664 492.685 915.628 493.451 915.555 494.289C915.518 495.128 915.555 495.93 915.664 496.695C915.81 497.424 916.12 498.044 916.594 498.555C917.068 499.029 917.87 499.266 919 499.266C920.203 499.266 921.333 498.974 922.391 498.391C923.448 497.771 924.432 497.023 925.344 496.148C926.255 495.273 927.076 494.326 927.805 493.305C928.57 492.284 929.245 491.336 929.828 490.461C930.448 489.549 930.995 488.802 931.469 488.219C931.943 487.635 932.344 487.344 932.672 487.344C933.036 487.344 933.419 487.417 933.82 487.562C934.258 487.672 934.477 487.964 934.477 488.438C934.477 489.094 934.203 489.878 933.656 490.789C933.146 491.701 932.453 492.667 931.578 493.688C930.74 494.708 929.755 495.729 928.625 496.75C927.531 497.734 926.419 498.628 925.289 499.43C924.159 500.195 923.047 500.833 921.953 501.344C920.859 501.818 919.893 502.055 919.055 502.055C917.414 502.055 916.174 501.654 915.336 500.852C914.497 500.049 913.896 499.047 913.531 497.844C913.203 496.641 913.021 495.365 912.984 494.016C912.984 492.63 912.966 491.354 912.93 490.188ZM922.992 475.422C922.372 475.422 921.716 475.732 921.023 476.352C920.331 476.935 919.674 477.664 919.055 478.539C918.471 479.378 917.979 480.253 917.578 481.164C917.214 482.039 917.031 482.768 917.031 483.352C917.578 483.352 918.362 483.151 919.383 482.75C920.44 482.312 921.479 481.784 922.5 481.164C923.521 480.544 924.414 479.888 925.18 479.195C925.945 478.503 926.328 477.846 926.328 477.227C926.328 476.898 926.201 476.625 925.945 476.406C925.69 476.188 925.38 476.005 925.016 475.859C924.688 475.714 924.341 475.604 923.977 475.531C923.612 475.458 923.284 475.422 922.992 475.422ZM952.359 488C952.214 489.021 952.013 490.188 951.758 491.5C951.503 492.812 951.01 494.07 950.281 495.273C949.589 496.477 948.549 497.534 947.164 498.445C945.815 499.32 943.919 499.812 941.477 499.922C939.836 499.922 938.669 499.448 937.977 498.5C937.284 497.552 936.938 496.258 936.938 494.617C936.938 493.596 937.102 492.43 937.43 491.117C937.794 489.805 938.268 488.474 938.852 487.125C939.471 485.74 940.201 484.391 941.039 483.078C941.878 481.766 942.789 480.599 943.773 479.578C944.758 478.521 945.797 477.682 946.891 477.062C947.984 476.406 949.115 476.078 950.281 476.078C951.703 476.078 952.706 476.424 953.289 477.117C953.872 477.81 954.255 478.867 954.438 480.289L959.523 517.367H956.57C956.497 517.258 956.388 516.784 956.242 515.945C956.133 515.107 955.987 514.031 955.805 512.719C955.659 511.406 955.477 509.93 955.258 508.289C955.076 506.648 954.875 504.953 954.656 503.203C954.438 501.49 954.219 499.776 954 498.062C953.818 496.349 953.617 494.799 953.398 493.414C953.216 492.029 953.034 490.862 952.852 489.914C952.669 488.93 952.505 488.292 952.359 488ZM939.727 495.055C939.727 495.857 939.818 496.422 940 496.75C940.219 497.042 940.747 497.188 941.586 497.188C942.68 497.589 943.701 497.552 944.648 497.078C945.596 496.568 946.435 495.784 947.164 494.727C947.93 493.633 948.604 492.375 949.188 490.953C949.771 489.495 950.245 488.018 950.609 486.523C951.01 484.992 951.284 483.552 951.43 482.203C951.612 480.818 951.685 479.651 951.648 478.703C949.935 478.703 948.349 479.268 946.891 480.398C945.432 481.529 944.174 482.932 943.117 484.609C942.06 486.286 941.221 488.073 940.602 489.969C940.018 491.865 939.727 493.56 939.727 495.055ZM973.961 495.656C973.815 496.094 973.451 496.695 972.867 497.461C972.32 498.19 971.664 498.938 970.898 499.703C970.133 500.432 969.331 501.089 968.492 501.672C967.69 502.219 966.979 502.492 966.359 502.492C965.193 502.492 964.227 501.945 963.461 500.852C962.732 499.758 962.167 498.354 961.766 496.641C961.365 494.927 961.091 493.031 960.945 490.953C960.799 488.839 960.708 486.779 960.672 484.773C960.635 482.768 960.617 480.945 960.617 479.305C960.617 477.664 960.562 476.424 960.453 475.586C960.599 475.221 960.781 475.003 961 474.93C961.255 474.857 961.547 474.82 961.875 474.82C962.167 474.82 962.422 474.857 962.641 474.93C962.896 475.003 963.115 475.221 963.297 475.586C963.297 475.987 963.297 476.661 963.297 477.609C963.333 478.557 963.388 479.633 963.461 480.836C963.534 482.003 963.607 483.242 963.68 484.555C963.753 485.831 963.807 487.052 963.844 488.219C963.917 489.385 963.971 490.443 964.008 491.391C964.081 492.302 964.135 492.977 964.172 493.414C964.208 493.669 964.245 494.089 964.281 494.672C964.354 495.255 964.445 495.875 964.555 496.531C964.701 497.151 964.865 497.716 965.047 498.227C965.266 498.737 965.539 499.01 965.867 499.047C966.414 499.047 966.961 498.81 967.508 498.336C968.091 497.862 968.656 497.26 969.203 496.531C969.75 495.802 970.26 495 970.734 494.125C971.208 493.25 971.628 492.411 971.992 491.609C972.393 490.771 972.685 490.023 972.867 489.367C973.086 488.711 973.214 488.237 973.25 487.945C973.323 487.326 973.396 486.451 973.469 485.32C973.542 484.154 973.596 482.914 973.633 481.602C973.669 480.289 973.688 479.049 973.688 477.883C973.724 476.716 973.742 475.823 973.742 475.203L976.75 475.367C976.786 478.32 976.768 481 976.695 483.406C976.622 485.776 976.604 488.018 976.641 490.133C976.677 492.211 976.841 494.234 977.133 496.203C977.424 498.172 977.953 500.214 978.719 502.328C978.609 502.438 978.391 502.583 978.062 502.766C977.734 502.984 977.497 503.094 977.352 503.094C976.44 503.094 975.82 502.784 975.492 502.164C975.201 501.581 975 500.888 974.891 500.086C974.818 499.247 974.745 498.427 974.672 497.625C974.635 496.786 974.398 496.13 973.961 495.656ZM983.367 490.188C983.185 490.224 982.911 490.279 982.547 490.352C982.182 490.424 981.799 490.443 981.398 490.406C980.997 490.37 980.651 490.26 980.359 490.078C980.031 489.896 979.867 489.586 979.867 489.148C979.867 488.893 979.922 488.711 980.031 488.602C980.141 488.492 980.323 488.328 980.578 488.109C981.38 487.453 982.055 486.615 982.602 485.594C983.185 484.536 983.714 483.424 984.188 482.258C984.661 481.055 985.154 479.87 985.664 478.703C986.211 477.5 986.831 476.424 987.523 475.477C988.216 474.529 989.073 473.763 990.094 473.18C991.115 472.596 992.372 472.323 993.867 472.359C994.487 472.359 995.18 472.505 995.945 472.797C996.711 473.089 997.422 473.49 998.078 474C998.734 474.474 999.281 475.057 999.719 475.75C1000.16 476.443 1000.38 477.208 1000.38 478.047C1000.56 478.339 1000.38 478.758 999.828 479.305C999.318 479.852 998.607 480.453 997.695 481.109C996.784 481.729 995.745 482.385 994.578 483.078C993.448 483.734 992.354 484.354 991.297 484.938C990.24 485.521 989.31 486.031 988.508 486.469C987.706 486.906 987.177 487.234 986.922 487.453C986.74 487.818 986.594 488.237 986.484 488.711C986.375 489.185 986.284 489.641 986.211 490.078C986.174 490.479 986.138 490.862 986.102 491.227C986.102 491.555 986.102 491.81 986.102 491.992C986.102 492.685 986.065 493.451 985.992 494.289C985.956 495.128 985.992 495.93 986.102 496.695C986.247 497.424 986.557 498.044 987.031 498.555C987.505 499.029 988.307 499.266 989.438 499.266C990.641 499.266 991.771 498.974 992.828 498.391C993.885 497.771 994.87 497.023 995.781 496.148C996.693 495.273 997.513 494.326 998.242 493.305C999.008 492.284 999.682 491.336 1000.27 490.461C1000.89 489.549 1001.43 488.802 1001.91 488.219C1002.38 487.635 1002.78 487.344 1003.11 487.344C1003.47 487.344 1003.86 487.417 1004.26 487.562C1004.7 487.672 1004.91 487.964 1004.91 488.438C1004.91 489.094 1004.64 489.878 1004.09 490.789C1003.58 491.701 1002.89 492.667 1002.02 493.688C1001.18 494.708 1000.19 495.729 999.062 496.75C997.969 497.734 996.857 498.628 995.727 499.43C994.596 500.195 993.484 500.833 992.391 501.344C991.297 501.818 990.331 502.055 989.492 502.055C987.852 502.055 986.612 501.654 985.773 500.852C984.935 500.049 984.333 499.047 983.969 497.844C983.641 496.641 983.458 495.365 983.422 494.016C983.422 492.63 983.404 491.354 983.367 490.188ZM993.43 475.422C992.81 475.422 992.154 475.732 991.461 476.352C990.768 476.935 990.112 477.664 989.492 478.539C988.909 479.378 988.417 480.253 988.016 481.164C987.651 482.039 987.469 482.768 987.469 483.352C988.016 483.352 988.799 483.151 989.82 482.75C990.878 482.312 991.917 481.784 992.938 481.164C993.958 480.544 994.852 479.888 995.617 479.195C996.383 478.503 996.766 477.846 996.766 477.227C996.766 476.898 996.638 476.625 996.383 476.406C996.128 476.188 995.818 476.005 995.453 475.859C995.125 475.714 994.779 475.604 994.414 475.531C994.049 475.458 993.721 475.422 993.43 475.422ZM1011.97 501.18C1011.97 501.216 1012.35 500.997 1013.12 500.523C1013.92 500.049 1014.85 499.43 1015.91 498.664C1017 497.862 1018.11 497.005 1019.24 496.094C1020.37 495.146 1021.3 494.253 1022.03 493.414C1022.76 492.576 1023.14 491.865 1023.18 491.281C1023.25 490.661 1022.76 490.26 1021.7 490.078C1020.39 489.896 1019.28 489.914 1018.37 490.133C1017.49 490.352 1016.69 490.607 1015.96 490.898C1015.23 491.19 1014.54 491.464 1013.88 491.719C1013.26 491.974 1012.57 492.065 1011.8 491.992C1010.2 491.992 1009.09 491.5 1008.47 490.516C1007.89 489.495 1007.59 488.128 1007.59 486.414C1007.59 484.701 1007.98 483.078 1008.74 481.547C1009.51 479.979 1010.49 478.63 1011.7 477.5C1012.9 476.37 1014.28 475.477 1015.85 474.82C1017.42 474.128 1019.02 473.781 1020.66 473.781C1021.32 473.781 1021.89 473.836 1022.36 473.945C1022.83 474.055 1023.07 474.474 1023.07 475.203C1023.07 475.714 1022.85 476.206 1022.41 476.68C1021.98 477.117 1021.48 477.336 1020.94 477.336C1020.9 477.336 1020.81 477.318 1020.66 477.281C1020.52 477.208 1020.37 477.117 1020.23 477.008C1020.08 476.898 1019.93 476.826 1019.79 476.789C1019.64 476.716 1019.55 476.68 1019.52 476.68C1018.35 476.352 1017.22 476.516 1016.12 477.172C1015.03 477.828 1014.05 478.721 1013.17 479.852C1012.33 480.945 1011.66 482.148 1011.15 483.461C1010.64 484.737 1010.38 485.885 1010.38 486.906C1010.38 487.307 1010.46 487.635 1010.6 487.891C1010.78 488.109 1011 488.273 1011.26 488.383C1011.55 488.492 1011.86 488.565 1012.19 488.602C1012.55 488.602 1012.92 488.602 1013.28 488.602C1014.01 488.602 1014.74 488.492 1015.47 488.273C1016.23 488.055 1016.96 487.799 1017.66 487.508C1018.39 487.216 1019.11 486.961 1019.84 486.742C1020.61 486.523 1021.39 486.414 1022.2 486.414C1022.56 486.414 1022.96 486.523 1023.4 486.742C1023.84 486.924 1024.24 487.216 1024.6 487.617C1024.97 487.982 1025.28 488.419 1025.53 488.93C1025.79 489.404 1025.93 489.932 1025.97 490.516C1026.19 491.026 1026.11 491.701 1025.75 492.539C1025.42 493.378 1024.91 494.271 1024.22 495.219C1023.53 496.167 1022.69 497.133 1021.7 498.117C1020.72 499.065 1019.73 499.94 1018.75 500.742C1017.77 501.508 1016.8 502.128 1015.85 502.602C1014.9 503.112 1014.1 503.349 1013.45 503.312C1012.72 503.312 1012.28 503.094 1012.13 502.656C1012.02 502.219 1011.97 501.727 1011.97 501.18ZM1029.63 478.648C1029.27 478.831 1028.92 479.031 1028.59 479.25C1028.3 479.432 1028.01 479.615 1027.72 479.797C1027.43 479.943 1027.14 480.052 1026.84 480.125C1026.55 480.198 1026.24 480.198 1025.91 480.125C1025.7 480.125 1025.51 479.997 1025.37 479.742C1025.22 479.451 1025.11 479.141 1025.04 478.812C1024.93 478.448 1024.86 478.102 1024.82 477.773C1024.78 477.409 1024.78 477.135 1024.82 476.953L1030.07 473.945L1030.4 459.945C1030.47 459.471 1030.76 459.289 1031.27 459.398C1031.78 459.471 1032.31 459.581 1032.86 459.727C1032.93 459.727 1033.04 459.763 1033.19 459.836C1033.37 459.872 1033.5 459.909 1033.57 459.945C1033.5 460.93 1033.41 462.005 1033.3 463.172C1033.22 464.302 1033.15 465.451 1033.08 466.617C1033.01 467.747 1032.95 468.859 1032.91 469.953C1032.91 471.047 1032.97 472.031 1033.08 472.906L1041.28 470.609C1041.43 470.573 1041.54 470.682 1041.61 470.938C1041.72 471.156 1041.81 471.43 1041.88 471.758C1041.99 472.086 1042.07 472.414 1042.1 472.742C1042.14 473.07 1042.16 473.234 1042.16 473.234L1032.86 477.172C1032.86 477.5 1032.88 478.284 1032.91 479.523C1032.99 480.763 1033.06 482.24 1033.13 483.953C1033.21 485.63 1033.28 487.453 1033.35 489.422C1033.42 491.354 1033.5 493.159 1033.57 494.836C1033.64 496.513 1033.7 497.99 1033.73 499.266C1033.77 500.505 1033.79 501.289 1033.79 501.617C1033.72 502.711 1033.39 503.258 1032.8 503.258C1032.26 503.258 1031.66 502.984 1031 502.438L1029.63 478.648ZM1047.52 501.18C1047.52 501.216 1047.9 500.997 1048.66 500.523C1049.47 500.049 1050.4 499.43 1051.45 498.664C1052.55 497.862 1053.66 497.005 1054.79 496.094C1055.92 495.146 1056.85 494.253 1057.58 493.414C1058.31 492.576 1058.69 491.865 1058.73 491.281C1058.8 490.661 1058.31 490.26 1057.25 490.078C1055.94 489.896 1054.83 489.914 1053.91 490.133C1053.04 490.352 1052.24 490.607 1051.51 490.898C1050.78 491.19 1050.09 491.464 1049.43 491.719C1048.81 491.974 1048.12 492.065 1047.35 491.992C1045.75 491.992 1044.64 491.5 1044.02 490.516C1043.43 489.495 1043.14 488.128 1043.14 486.414C1043.14 484.701 1043.52 483.078 1044.29 481.547C1045.05 479.979 1046.04 478.63 1047.24 477.5C1048.45 476.37 1049.83 475.477 1051.4 474.82C1052.97 474.128 1054.57 473.781 1056.21 473.781C1056.87 473.781 1057.43 473.836 1057.91 473.945C1058.38 474.055 1058.62 474.474 1058.62 475.203C1058.62 475.714 1058.4 476.206 1057.96 476.68C1057.52 477.117 1057.03 477.336 1056.48 477.336C1056.45 477.336 1056.36 477.318 1056.21 477.281C1056.07 477.208 1055.92 477.117 1055.77 477.008C1055.63 476.898 1055.48 476.826 1055.34 476.789C1055.19 476.716 1055.1 476.68 1055.06 476.68C1053.9 476.352 1052.77 476.516 1051.67 477.172C1050.58 477.828 1049.59 478.721 1048.72 479.852C1047.88 480.945 1047.21 482.148 1046.7 483.461C1046.18 484.737 1045.93 485.885 1045.93 486.906C1045.93 487.307 1046 487.635 1046.15 487.891C1046.33 488.109 1046.55 488.273 1046.8 488.383C1047.1 488.492 1047.41 488.565 1047.73 488.602C1048.1 488.602 1048.46 488.602 1048.83 488.602C1049.56 488.602 1050.29 488.492 1051.02 488.273C1051.78 488.055 1052.51 487.799 1053.2 487.508C1053.93 487.216 1054.66 486.961 1055.39 486.742C1056.16 486.523 1056.94 486.414 1057.74 486.414C1058.11 486.414 1058.51 486.523 1058.95 486.742C1059.38 486.924 1059.78 487.216 1060.15 487.617C1060.51 487.982 1060.82 488.419 1061.08 488.93C1061.33 489.404 1061.48 489.932 1061.52 490.516C1061.73 491.026 1061.66 491.701 1061.3 492.539C1060.97 493.378 1060.46 494.271 1059.77 495.219C1059.07 496.167 1058.23 497.133 1057.25 498.117C1056.27 499.065 1055.28 499.94 1054.3 500.742C1053.31 501.508 1052.35 502.128 1051.4 502.602C1050.45 503.112 1049.65 503.349 1048.99 503.312C1048.26 503.312 1047.83 503.094 1047.68 502.656C1047.57 502.219 1047.52 501.727 1047.52 501.18ZM957.664 590.578C957.482 589.63 957.318 588.5 957.172 587.188C957.062 585.839 956.935 584.49 956.789 583.141C956.643 581.755 956.461 580.461 956.242 579.258C956.06 578.055 955.768 577.07 955.367 576.305C953.508 580.096 951.867 583.086 950.445 585.273C949.023 587.424 947.766 588.974 946.672 589.922C945.615 590.833 944.721 591.271 943.992 591.234C943.263 591.198 942.661 590.87 942.188 590.25C941.714 589.63 941.367 588.846 941.148 587.898C940.966 586.914 940.839 586.003 940.766 585.164C940.766 584.362 940.948 583.232 941.312 581.773C941.677 580.315 942.169 578.729 942.789 577.016C943.409 575.266 944.138 573.497 944.977 571.711C945.852 569.924 946.781 568.302 947.766 566.844C948.75 565.385 949.771 564.182 950.828 563.234C951.885 562.286 952.943 561.812 954 561.812C955.568 561.557 956.716 561.904 957.445 562.852C958.211 563.763 958.357 565.312 957.883 567.5C957.883 569.906 957.974 571.966 958.156 573.68C958.375 575.393 958.594 577.034 958.812 578.602C959.068 580.169 959.286 581.81 959.469 583.523C959.688 585.237 959.797 587.297 959.797 589.703C959.797 590.141 959.742 590.523 959.633 590.852C959.56 591.143 959.122 591.289 958.32 591.289C958.211 591.289 958.065 591.198 957.883 591.016C957.737 590.833 957.664 590.688 957.664 590.578ZM954.711 566.133C954.31 565.549 953.763 565.495 953.07 565.969C952.378 566.443 951.648 567.227 950.883 568.32C950.117 569.414 949.333 570.727 948.531 572.258C947.729 573.789 946.982 575.339 946.289 576.906C945.596 578.474 944.995 579.969 944.484 581.391C943.974 582.776 943.628 583.924 943.445 584.836C943.445 586.148 943.646 586.896 944.047 587.078C944.448 587.224 944.94 587.005 945.523 586.422C946.107 585.839 946.763 585 947.492 583.906C948.258 582.812 948.987 581.646 949.68 580.406C950.409 579.167 951.083 577.964 951.703 576.797C952.359 575.63 952.87 574.682 953.234 573.953C953.562 573.188 953.818 572.477 954 571.82C954.182 571.164 954.328 570.544 954.438 569.961C954.583 569.341 954.656 568.721 954.656 568.102C954.693 567.482 954.711 566.826 954.711 566.133ZM962.641 565.641V565.203C962.641 564.839 962.768 564.583 963.023 564.438C963.315 564.292 963.643 564.219 964.008 564.219C964.299 564.219 964.573 564.255 964.828 564.328C965.083 564.365 965.284 564.565 965.43 564.93C965.539 565.477 965.648 566.242 965.758 567.227C965.867 568.174 965.995 569.232 966.141 570.398C966.286 571.565 966.432 572.805 966.578 574.117C966.76 575.393 966.924 576.615 967.07 577.781C967.253 578.911 967.435 579.932 967.617 580.844C967.799 581.755 968 582.448 968.219 582.922C968.109 579.422 968.219 576.396 968.547 573.844C968.875 571.255 969.495 569.159 970.406 567.555C971.354 565.914 972.63 564.784 974.234 564.164C975.875 563.508 977.917 563.362 980.359 563.727C981.49 563.727 982.055 564.328 982.055 565.531C982.055 566.005 981.745 566.333 981.125 566.516C980.505 566.661 979.812 566.771 979.047 566.844C978.281 566.88 977.534 566.935 976.805 567.008C976.076 567.081 975.547 567.263 975.219 567.555C973.906 568.284 972.977 569.414 972.43 570.945C971.919 572.477 971.555 574.281 971.336 576.359C971.117 578.438 970.953 580.716 970.844 583.195C970.771 585.638 970.534 588.154 970.133 590.742C970.133 591.107 969.987 591.38 969.695 591.562C969.404 591.745 969.039 591.836 968.602 591.836C968.201 591.836 967.799 591.745 967.398 591.562C967.034 591.38 966.742 591.107 966.523 590.742L962.641 565.641ZM986.43 580.188C986.247 580.224 985.974 580.279 985.609 580.352C985.245 580.424 984.862 580.443 984.461 580.406C984.06 580.37 983.714 580.26 983.422 580.078C983.094 579.896 982.93 579.586 982.93 579.148C982.93 578.893 982.984 578.711 983.094 578.602C983.203 578.492 983.385 578.328 983.641 578.109C984.443 577.453 985.117 576.615 985.664 575.594C986.247 574.536 986.776 573.424 987.25 572.258C987.724 571.055 988.216 569.87 988.727 568.703C989.273 567.5 989.893 566.424 990.586 565.477C991.279 564.529 992.135 563.763 993.156 563.18C994.177 562.596 995.435 562.323 996.93 562.359C997.549 562.359 998.242 562.505 999.008 562.797C999.773 563.089 1000.48 563.49 1001.14 564C1001.8 564.474 1002.34 565.057 1002.78 565.75C1003.22 566.443 1003.44 567.208 1003.44 568.047C1003.62 568.339 1003.44 568.758 1002.89 569.305C1002.38 569.852 1001.67 570.453 1000.76 571.109C999.846 571.729 998.807 572.385 997.641 573.078C996.51 573.734 995.417 574.354 994.359 574.938C993.302 575.521 992.372 576.031 991.57 576.469C990.768 576.906 990.24 577.234 989.984 577.453C989.802 577.818 989.656 578.237 989.547 578.711C989.438 579.185 989.346 579.641 989.273 580.078C989.237 580.479 989.201 580.862 989.164 581.227C989.164 581.555 989.164 581.81 989.164 581.992C989.164 582.685 989.128 583.451 989.055 584.289C989.018 585.128 989.055 585.93 989.164 586.695C989.31 587.424 989.62 588.044 990.094 588.555C990.568 589.029 991.37 589.266 992.5 589.266C993.703 589.266 994.833 588.974 995.891 588.391C996.948 587.771 997.932 587.023 998.844 586.148C999.755 585.273 1000.58 584.326 1001.3 583.305C1002.07 582.284 1002.74 581.336 1003.33 580.461C1003.95 579.549 1004.49 578.802 1004.97 578.219C1005.44 577.635 1005.84 577.344 1006.17 577.344C1006.54 577.344 1006.92 577.417 1007.32 577.562C1007.76 577.672 1007.98 577.964 1007.98 578.438C1007.98 579.094 1007.7 579.878 1007.16 580.789C1006.65 581.701 1005.95 582.667 1005.08 583.688C1004.24 584.708 1003.26 585.729 1002.12 586.75C1001.03 587.734 999.919 588.628 998.789 589.43C997.659 590.195 996.547 590.833 995.453 591.344C994.359 591.818 993.393 592.055 992.555 592.055C990.914 592.055 989.674 591.654 988.836 590.852C987.997 590.049 987.396 589.047 987.031 587.844C986.703 586.641 986.521 585.365 986.484 584.016C986.484 582.63 986.466 581.354 986.43 580.188ZM996.492 565.422C995.872 565.422 995.216 565.732 994.523 566.352C993.831 566.935 993.174 567.664 992.555 568.539C991.971 569.378 991.479 570.253 991.078 571.164C990.714 572.039 990.531 572.768 990.531 573.352C991.078 573.352 991.862 573.151 992.883 572.75C993.94 572.312 994.979 571.784 996 571.164C997.021 570.544 997.914 569.888 998.68 569.195C999.445 568.503 999.828 567.846 999.828 567.227C999.828 566.898 999.701 566.625 999.445 566.406C999.19 566.188 998.88 566.005 998.516 565.859C998.188 565.714 997.841 565.604 997.477 565.531C997.112 565.458 996.784 565.422 996.492 565.422ZM882.633 703.383C885.841 703.201 888.357 702.362 890.18 700.867C892.039 699.372 893.424 697.44 894.336 695.07C895.247 692.701 895.794 689.984 895.977 686.922C896.159 683.896 896.177 680.76 896.031 677.516C895.885 674.271 895.667 671.026 895.375 667.781C895.12 664.5 895.01 661.456 895.047 658.648C893.479 663.242 892.003 666.961 890.617 669.805C889.232 672.612 887.938 674.745 886.734 676.203C885.568 677.625 884.492 678.5 883.508 678.828C882.56 679.12 881.721 679.065 880.992 678.664C880.263 678.227 879.661 677.552 879.188 676.641C878.75 675.693 878.44 674.727 878.258 673.742C878.331 672.065 878.659 670.224 879.242 668.219C879.862 666.177 880.646 664.19 881.594 662.258C882.578 660.289 883.708 658.466 884.984 656.789C886.26 655.076 887.609 653.745 889.031 652.797C890.453 651.812 891.93 651.302 893.461 651.266C894.992 651.193 896.469 651.776 897.891 653.016C897.927 653.052 897.982 653.544 898.055 654.492C898.164 655.404 898.273 656.625 898.383 658.156C898.529 659.651 898.674 661.346 898.82 663.242C899.003 665.102 899.167 666.997 899.312 668.93C899.458 670.826 899.586 672.648 899.695 674.398C899.805 676.148 899.914 677.661 900.023 678.938C900.169 681.016 900.078 683.221 899.75 685.555C899.458 687.888 898.984 690.148 898.328 692.336C897.672 694.56 896.833 696.638 895.812 698.57C894.828 700.503 893.68 702.089 892.367 703.328C891.091 704.568 889.651 705.352 888.047 705.68C886.479 706.044 884.802 705.771 883.016 704.859C882.906 704.859 882.742 704.841 882.523 704.805C882.305 704.805 882.122 704.75 881.977 704.641C881.867 704.531 881.849 704.385 881.922 704.203C881.995 704.021 882.232 703.747 882.633 703.383ZM881.102 673.359C881.466 674.49 881.94 675.073 882.523 675.109C883.143 675.109 883.799 674.727 884.492 673.961C885.185 673.159 885.932 672.047 886.734 670.625C887.573 669.203 888.393 667.654 889.195 665.977C889.997 664.299 890.781 662.586 891.547 660.836C892.349 659.049 893.096 657.391 893.789 655.859C893.789 655.458 893.698 655.094 893.516 654.766C893.333 654.401 892.932 654.292 892.312 654.438C891.292 654.656 890.289 655.148 889.305 655.914C888.357 656.68 887.464 657.628 886.625 658.758C885.823 659.852 885.076 661.073 884.383 662.422C883.727 663.734 883.143 665.065 882.633 666.414C882.159 667.727 881.776 668.984 881.484 670.188C881.229 671.391 881.102 672.448 881.102 673.359ZM917.25 675.656C917.104 676.094 916.74 676.695 916.156 677.461C915.609 678.19 914.953 678.938 914.188 679.703C913.422 680.432 912.62 681.089 911.781 681.672C910.979 682.219 910.268 682.492 909.648 682.492C908.482 682.492 907.516 681.945 906.75 680.852C906.021 679.758 905.456 678.354 905.055 676.641C904.654 674.927 904.38 673.031 904.234 670.953C904.089 668.839 903.997 666.779 903.961 664.773C903.924 662.768 903.906 660.945 903.906 659.305C903.906 657.664 903.852 656.424 903.742 655.586C903.888 655.221 904.07 655.003 904.289 654.93C904.544 654.857 904.836 654.82 905.164 654.82C905.456 654.82 905.711 654.857 905.93 654.93C906.185 655.003 906.404 655.221 906.586 655.586C906.586 655.987 906.586 656.661 906.586 657.609C906.622 658.557 906.677 659.633 906.75 660.836C906.823 662.003 906.896 663.242 906.969 664.555C907.042 665.831 907.096 667.052 907.133 668.219C907.206 669.385 907.26 670.443 907.297 671.391C907.37 672.302 907.424 672.977 907.461 673.414C907.497 673.669 907.534 674.089 907.57 674.672C907.643 675.255 907.734 675.875 907.844 676.531C907.99 677.151 908.154 677.716 908.336 678.227C908.555 678.737 908.828 679.01 909.156 679.047C909.703 679.047 910.25 678.81 910.797 678.336C911.38 677.862 911.945 677.26 912.492 676.531C913.039 675.802 913.549 675 914.023 674.125C914.497 673.25 914.917 672.411 915.281 671.609C915.682 670.771 915.974 670.023 916.156 669.367C916.375 668.711 916.503 668.237 916.539 667.945C916.612 667.326 916.685 666.451 916.758 665.32C916.831 664.154 916.885 662.914 916.922 661.602C916.958 660.289 916.977 659.049 916.977 657.883C917.013 656.716 917.031 655.823 917.031 655.203L920.039 655.367C920.076 658.32 920.057 661 919.984 663.406C919.911 665.776 919.893 668.018 919.93 670.133C919.966 672.211 920.13 674.234 920.422 676.203C920.714 678.172 921.242 680.214 922.008 682.328C921.898 682.438 921.68 682.583 921.352 682.766C921.023 682.984 920.786 683.094 920.641 683.094C919.729 683.094 919.109 682.784 918.781 682.164C918.49 681.581 918.289 680.888 918.18 680.086C918.107 679.247 918.034 678.427 917.961 677.625C917.924 676.786 917.688 676.13 917.25 675.656ZM940.602 680.578C940.419 679.63 940.255 678.5 940.109 677.188C940 675.839 939.872 674.49 939.727 673.141C939.581 671.755 939.398 670.461 939.18 669.258C938.997 668.055 938.706 667.07 938.305 666.305C936.445 670.096 934.805 673.086 933.383 675.273C931.961 677.424 930.703 678.974 929.609 679.922C928.552 680.833 927.659 681.271 926.93 681.234C926.201 681.198 925.599 680.87 925.125 680.25C924.651 679.63 924.305 678.846 924.086 677.898C923.904 676.914 923.776 676.003 923.703 675.164C923.703 674.362 923.885 673.232 924.25 671.773C924.615 670.315 925.107 668.729 925.727 667.016C926.346 665.266 927.076 663.497 927.914 661.711C928.789 659.924 929.719 658.302 930.703 656.844C931.688 655.385 932.708 654.182 933.766 653.234C934.823 652.286 935.88 651.812 936.938 651.812C938.505 651.557 939.654 651.904 940.383 652.852C941.148 653.763 941.294 655.312 940.82 657.5C940.82 659.906 940.911 661.966 941.094 663.68C941.312 665.393 941.531 667.034 941.75 668.602C942.005 670.169 942.224 671.81 942.406 673.523C942.625 675.237 942.734 677.297 942.734 679.703C942.734 680.141 942.68 680.523 942.57 680.852C942.497 681.143 942.06 681.289 941.258 681.289C941.148 681.289 941.003 681.198 940.82 681.016C940.674 680.833 940.602 680.688 940.602 680.578ZM937.648 656.133C937.247 655.549 936.701 655.495 936.008 655.969C935.315 656.443 934.586 657.227 933.82 658.32C933.055 659.414 932.271 660.727 931.469 662.258C930.667 663.789 929.919 665.339 929.227 666.906C928.534 668.474 927.932 669.969 927.422 671.391C926.911 672.776 926.565 673.924 926.383 674.836C926.383 676.148 926.583 676.896 926.984 677.078C927.385 677.224 927.878 677.005 928.461 676.422C929.044 675.839 929.701 675 930.43 673.906C931.195 672.812 931.924 671.646 932.617 670.406C933.346 669.167 934.021 667.964 934.641 666.797C935.297 665.63 935.807 664.682 936.172 663.953C936.5 663.188 936.755 662.477 936.938 661.82C937.12 661.164 937.266 660.544 937.375 659.961C937.521 659.341 937.594 658.721 937.594 658.102C937.63 657.482 937.648 656.826 937.648 656.133ZM945.578 655.641V655.203C945.578 654.839 945.706 654.583 945.961 654.438C946.253 654.292 946.581 654.219 946.945 654.219C947.237 654.219 947.51 654.255 947.766 654.328C948.021 654.365 948.221 654.565 948.367 654.93C948.477 655.477 948.586 656.242 948.695 657.227C948.805 658.174 948.932 659.232 949.078 660.398C949.224 661.565 949.37 662.805 949.516 664.117C949.698 665.393 949.862 666.615 950.008 667.781C950.19 668.911 950.372 669.932 950.555 670.844C950.737 671.755 950.938 672.448 951.156 672.922C951.047 669.422 951.156 666.396 951.484 663.844C951.812 661.255 952.432 659.159 953.344 657.555C954.292 655.914 955.568 654.784 957.172 654.164C958.812 653.508 960.854 653.362 963.297 653.727C964.427 653.727 964.992 654.328 964.992 655.531C964.992 656.005 964.682 656.333 964.062 656.516C963.443 656.661 962.75 656.771 961.984 656.844C961.219 656.88 960.471 656.935 959.742 657.008C959.013 657.081 958.484 657.263 958.156 657.555C956.844 658.284 955.914 659.414 955.367 660.945C954.857 662.477 954.492 664.281 954.273 666.359C954.055 668.438 953.891 670.716 953.781 673.195C953.708 675.638 953.471 678.154 953.07 680.742C953.07 681.107 952.924 681.38 952.633 681.562C952.341 681.745 951.977 681.836 951.539 681.836C951.138 681.836 950.737 681.745 950.336 681.562C949.971 681.38 949.68 681.107 949.461 680.742L945.578 655.641ZM983.312 680.578C983.13 679.63 982.966 678.5 982.82 677.188C982.711 675.839 982.583 674.49 982.438 673.141C982.292 671.755 982.109 670.461 981.891 669.258C981.708 668.055 981.417 667.07 981.016 666.305C979.156 670.096 977.516 673.086 976.094 675.273C974.672 677.424 973.414 678.974 972.32 679.922C971.263 680.833 970.37 681.271 969.641 681.234C968.911 681.198 968.31 680.87 967.836 680.25C967.362 679.63 967.016 678.846 966.797 677.898C966.615 676.914 966.487 676.003 966.414 675.164C966.414 674.362 966.596 673.232 966.961 671.773C967.326 670.315 967.818 668.729 968.438 667.016C969.057 665.266 969.786 663.497 970.625 661.711C971.5 659.924 972.43 658.302 973.414 656.844C974.398 655.385 975.419 654.182 976.477 653.234C977.534 652.286 978.591 651.812 979.648 651.812C981.216 651.557 982.365 651.904 983.094 652.852C983.859 653.763 984.005 655.312 983.531 657.5C983.531 659.906 983.622 661.966 983.805 663.68C984.023 665.393 984.242 667.034 984.461 668.602C984.716 670.169 984.935 671.81 985.117 673.523C985.336 675.237 985.445 677.297 985.445 679.703C985.445 680.141 985.391 680.523 985.281 680.852C985.208 681.143 984.771 681.289 983.969 681.289C983.859 681.289 983.714 681.198 983.531 681.016C983.385 680.833 983.312 680.688 983.312 680.578ZM980.359 656.133C979.958 655.549 979.411 655.495 978.719 655.969C978.026 656.443 977.297 657.227 976.531 658.32C975.766 659.414 974.982 660.727 974.18 662.258C973.378 663.789 972.63 665.339 971.938 666.906C971.245 668.474 970.643 669.969 970.133 671.391C969.622 672.776 969.276 673.924 969.094 674.836C969.094 676.148 969.294 676.896 969.695 677.078C970.096 677.224 970.589 677.005 971.172 676.422C971.755 675.839 972.411 675 973.141 673.906C973.906 672.812 974.635 671.646 975.328 670.406C976.057 669.167 976.732 667.964 977.352 666.797C978.008 665.63 978.518 664.682 978.883 663.953C979.211 663.188 979.466 662.477 979.648 661.82C979.831 661.164 979.977 660.544 980.086 659.961C980.232 659.341 980.305 658.721 980.305 658.102C980.341 657.482 980.359 656.826 980.359 656.133ZM990.586 681.289C990.185 676.367 989.82 671.445 989.492 666.523C989.201 661.565 988.872 656.424 988.508 651.102C988.508 650.227 988.982 649.789 989.93 649.789H990.367C990.477 649.789 990.604 649.935 990.75 650.227C990.896 650.518 991.042 651.065 991.188 651.867C991.37 652.633 991.552 653.818 991.734 655.422C991.953 656.99 992.208 659.049 992.5 661.602C992.792 664.154 993.12 667.344 993.484 671.172C994.25 668.693 994.852 666.286 995.289 663.953C995.727 661.62 996.292 659.505 996.984 657.609C997.677 655.677 998.643 653.982 999.883 652.523C1001.16 651.065 1002.98 649.99 1005.35 649.297C1006.66 649.516 1007.72 650.318 1008.52 651.703C1009.33 653.052 1009.96 654.729 1010.44 656.734C1010.91 658.74 1011.24 660.927 1011.42 663.297C1011.6 665.63 1011.71 667.872 1011.75 670.023C1011.79 672.174 1011.8 674.107 1011.8 675.82C1011.8 677.497 1011.84 678.701 1011.91 679.43C1011.8 679.721 1011.64 679.977 1011.42 680.195C1011.2 680.414 1010.95 680.578 1010.66 680.688C1010.4 680.76 1010.15 680.779 1009.89 680.742C1009.64 680.669 1009.4 680.469 1009.18 680.141C1009.18 679.74 1009.14 678.919 1009.07 677.68C1009 676.44 1008.91 675 1008.8 673.359C1008.69 671.682 1008.56 669.914 1008.41 668.055C1008.3 666.159 1008.2 664.391 1008.09 662.75C1008.01 661.073 1007.94 659.615 1007.87 658.375C1007.79 657.135 1007.74 656.315 1007.7 655.914C1006.94 654.565 1006.17 653.799 1005.41 653.617C1004.68 653.435 1003.93 653.672 1003.16 654.328C1002.43 654.984 1001.72 655.987 1001.03 657.336C1000.34 658.685 999.682 660.216 999.062 661.93C998.443 663.607 997.859 665.375 997.312 667.234C996.766 669.094 996.292 670.898 995.891 672.648C995.49 674.362 995.143 675.93 994.852 677.352C994.596 678.737 994.432 679.812 994.359 680.578C994.25 680.833 994.013 681.089 993.648 681.344C993.32 681.562 992.956 681.727 992.555 681.836C992.19 681.945 991.807 681.982 991.406 681.945C991.042 681.872 990.768 681.654 990.586 681.289ZM1016.84 658.648C1016.47 658.831 1016.12 659.031 1015.8 659.25C1015.51 659.432 1015.21 659.615 1014.92 659.797C1014.63 659.943 1014.34 660.052 1014.05 660.125C1013.76 660.198 1013.45 660.198 1013.12 660.125C1012.9 660.125 1012.72 659.997 1012.57 659.742C1012.42 659.451 1012.32 659.141 1012.24 658.812C1012.13 658.448 1012.06 658.102 1012.02 657.773C1011.99 657.409 1011.99 657.135 1012.02 656.953L1017.27 653.945L1017.6 639.945C1017.67 639.471 1017.97 639.289 1018.48 639.398C1018.99 639.471 1019.52 639.581 1020.06 639.727C1020.14 639.727 1020.24 639.763 1020.39 639.836C1020.57 639.872 1020.7 639.909 1020.77 639.945C1020.7 640.93 1020.61 642.005 1020.5 643.172C1020.43 644.302 1020.35 645.451 1020.28 646.617C1020.21 647.747 1020.15 648.859 1020.12 649.953C1020.12 651.047 1020.17 652.031 1020.28 652.906L1028.48 650.609C1028.63 650.573 1028.74 650.682 1028.81 650.938C1028.92 651.156 1029.01 651.43 1029.09 651.758C1029.2 652.086 1029.27 652.414 1029.3 652.742C1029.34 653.07 1029.36 653.234 1029.36 653.234L1020.06 657.172C1020.06 657.5 1020.08 658.284 1020.12 659.523C1020.19 660.763 1020.26 662.24 1020.34 663.953C1020.41 665.63 1020.48 667.453 1020.55 669.422C1020.63 671.354 1020.7 673.159 1020.77 674.836C1020.85 676.513 1020.9 677.99 1020.94 679.266C1020.97 680.505 1020.99 681.289 1020.99 681.617C1020.92 682.711 1020.59 683.258 1020.01 683.258C1019.46 683.258 1018.86 682.984 1018.2 682.438L1016.84 658.648ZM1031.98 670.188C1031.8 670.224 1031.53 670.279 1031.16 670.352C1030.8 670.424 1030.42 670.443 1030.02 670.406C1029.61 670.37 1029.27 670.26 1028.98 670.078C1028.65 669.896 1028.48 669.586 1028.48 669.148C1028.48 668.893 1028.54 668.711 1028.65 668.602C1028.76 668.492 1028.94 668.328 1029.2 668.109C1030 667.453 1030.67 666.615 1031.22 665.594C1031.8 664.536 1032.33 663.424 1032.8 662.258C1033.28 661.055 1033.77 659.87 1034.28 658.703C1034.83 657.5 1035.45 656.424 1036.14 655.477C1036.83 654.529 1037.69 653.763 1038.71 653.18C1039.73 652.596 1040.99 652.323 1042.48 652.359C1043.1 652.359 1043.8 652.505 1044.56 652.797C1045.33 653.089 1046.04 653.49 1046.7 654C1047.35 654.474 1047.9 655.057 1048.34 655.75C1048.77 656.443 1048.99 657.208 1048.99 658.047C1049.17 658.339 1048.99 658.758 1048.45 659.305C1047.93 659.852 1047.22 660.453 1046.31 661.109C1045.4 661.729 1044.36 662.385 1043.2 663.078C1042.07 663.734 1040.97 664.354 1039.91 664.938C1038.86 665.521 1037.93 666.031 1037.12 666.469C1036.32 666.906 1035.79 667.234 1035.54 667.453C1035.36 667.818 1035.21 668.237 1035.1 668.711C1034.99 669.185 1034.9 669.641 1034.83 670.078C1034.79 670.479 1034.76 670.862 1034.72 671.227C1034.72 671.555 1034.72 671.81 1034.72 671.992C1034.72 672.685 1034.68 673.451 1034.61 674.289C1034.57 675.128 1034.61 675.93 1034.72 676.695C1034.86 677.424 1035.17 678.044 1035.65 678.555C1036.12 679.029 1036.92 679.266 1038.05 679.266C1039.26 679.266 1040.39 678.974 1041.45 678.391C1042.5 677.771 1043.49 677.023 1044.4 676.148C1045.31 675.273 1046.13 674.326 1046.86 673.305C1047.62 672.284 1048.3 671.336 1048.88 670.461C1049.5 669.549 1050.05 668.802 1050.52 668.219C1051 667.635 1051.4 667.344 1051.73 667.344C1052.09 667.344 1052.47 667.417 1052.88 667.562C1053.31 667.672 1053.53 667.964 1053.53 668.438C1053.53 669.094 1053.26 669.878 1052.71 670.789C1052.2 671.701 1051.51 672.667 1050.63 673.688C1049.79 674.708 1048.81 675.729 1047.68 676.75C1046.59 677.734 1045.47 678.628 1044.34 679.43C1043.21 680.195 1042.1 680.833 1041.01 681.344C1039.91 681.818 1038.95 682.055 1038.11 682.055C1036.47 682.055 1035.23 681.654 1034.39 680.852C1033.55 680.049 1032.95 679.047 1032.59 677.844C1032.26 676.641 1032.08 675.365 1032.04 674.016C1032.04 672.63 1032.02 671.354 1031.98 670.188ZM1042.05 655.422C1041.43 655.422 1040.77 655.732 1040.08 656.352C1039.39 656.935 1038.73 657.664 1038.11 658.539C1037.53 659.378 1037.03 660.253 1036.63 661.164C1036.27 662.039 1036.09 662.768 1036.09 663.352C1036.63 663.352 1037.42 663.151 1038.44 662.75C1039.49 662.312 1040.53 661.784 1041.55 661.164C1042.58 660.544 1043.47 659.888 1044.23 659.195C1045 658.503 1045.38 657.846 1045.38 657.227C1045.38 656.898 1045.26 656.625 1045 656.406C1044.74 656.188 1044.43 656.005 1044.07 655.859C1043.74 655.714 1043.4 655.604 1043.03 655.531C1042.67 655.458 1042.34 655.422 1042.05 655.422ZM1068.24 671.992C1067.88 672.831 1067.4 673.797 1066.82 674.891C1066.27 675.984 1065.62 677.023 1064.85 678.008C1064.12 678.992 1063.27 679.831 1062.28 680.523C1061.3 681.216 1060.2 681.562 1059 681.562C1058.45 681.562 1058.02 681.508 1057.69 681.398C1057.4 681.253 1057.12 681.052 1056.87 680.797C1056.65 680.542 1056.43 680.232 1056.21 679.867C1056.03 679.503 1055.79 679.102 1055.5 678.664C1055.39 676.878 1055.32 674.964 1055.28 672.922C1055.28 670.844 1055.39 668.784 1055.61 666.742C1055.83 664.664 1056.19 662.714 1056.7 660.891C1057.25 659.068 1058 657.518 1058.95 656.242C1059.93 654.966 1061.15 654.055 1062.61 653.508C1064.07 652.961 1065.84 652.924 1067.91 653.398C1068.02 652.378 1068.04 651.01 1067.97 649.297C1067.9 647.583 1067.79 645.779 1067.64 643.883C1067.49 641.987 1067.35 640.164 1067.2 638.414C1067.06 636.628 1066.97 635.169 1066.93 634.039C1066.93 633.711 1067.08 633.474 1067.37 633.328C1067.7 633.146 1068.04 633.036 1068.41 633C1068.77 632.964 1069.12 632.964 1069.45 633C1069.81 633.036 1070.05 633.091 1070.16 633.164C1070.08 637.648 1070.07 642.06 1070.1 646.398C1070.14 650.701 1070.17 655.003 1070.21 659.305C1070.28 663.57 1070.36 667.818 1070.43 672.047C1070.5 676.276 1070.54 680.505 1070.54 684.734C1070.54 685.135 1070.5 685.555 1070.43 685.992C1070.39 686.466 1070.08 686.703 1069.5 686.703C1069.28 686.703 1069.06 686.63 1068.84 686.484C1068.62 686.375 1068.48 686.193 1068.41 685.938L1068.24 671.992ZM1065.89 656.133C1064.76 656.06 1063.7 656.516 1062.72 657.5C1061.77 658.448 1060.93 659.688 1060.2 661.219C1059.51 662.75 1058.95 664.445 1058.51 666.305C1058.07 668.128 1057.8 669.896 1057.69 671.609C1057.61 673.286 1057.72 674.781 1058.02 676.094C1058.34 677.406 1058.91 678.299 1059.71 678.773C1060.51 678.773 1061.26 678.464 1061.95 677.844C1062.65 677.188 1063.28 676.367 1063.87 675.383C1064.45 674.398 1064.96 673.305 1065.4 672.102C1065.84 670.862 1066.2 669.677 1066.49 668.547C1066.82 667.417 1067.06 666.396 1067.2 665.484C1067.39 664.536 1067.48 663.826 1067.48 663.352C1067.48 662.987 1067.49 662.404 1067.53 661.602C1067.57 660.799 1067.55 659.997 1067.48 659.195C1067.4 658.393 1067.24 657.682 1066.98 657.062C1066.77 656.443 1066.4 656.133 1065.89 656.133Z" fill="black"/>
<path d="M664.921 263.016C664.346 263.611 664.362 264.561 664.958 265.137L674.669 274.515C675.265 275.09 676.214 275.074 676.79 274.478C677.365 273.882 677.349 272.932 676.753 272.357L668.121 264.021L676.457 255.389C677.033 254.793 677.016 253.843 676.42 253.268C675.824 252.692 674.875 252.709 674.299 253.305L664.921 263.016ZM987.439 431.576C969.608 370.999 917.841 328.252 856.403 300.924C794.942 273.586 723.55 261.555 665.974 262.558L666.026 265.557C723.208 264.561 794.161 276.522 855.183 303.665C916.227 330.818 967.082 373.042 984.561 432.424L987.439 431.576Z" fill="black"/>
</svg>
