<svg width="1200" height="900" viewBox="0 0 1200 900" fill="none" xmlns="http://www.w3.org/2000/svg">
<rect opacity="0.6" x="152" y="158" width="890.214" height="572.709" fill="#FCC936"/>
<path fill-rule="evenodd" clip-rule="evenodd" d="M157 163.026H152V158H167V169H157V163.026ZM177 158V169H187V158H177ZM197 158V169H207V158H197ZM217 158V169H227V158H217ZM237 158V169H247V158H237ZM257 158V169H267V158H257ZM277 158V169H287V158H277ZM297 158V169H307V158H297ZM317 158V169H327V158H317ZM337 158V169H347V158H337ZM357 158V169H367V158H357ZM377 158V169H387V158H377ZM397 158V169H407V158H397ZM417 158V169H427V158H417ZM437 158V169H447V158H437ZM457 158V169H467V158H457ZM477 158V169H487V158H477ZM497 158V169H507V158H497ZM517 158V169H527V158H517ZM537 158V169H547V158H537ZM557 158V169H567V158H557ZM577 158V169H587V158H577ZM597 158V169H607V158H597ZM617 158V169H627V158H617ZM637 158V169H647V158H637ZM657 158V169H667V158H657ZM677 158V169H687V158H677ZM697 158V169H707V158H697ZM717 158V169H727V158H717ZM737 158V169H747V158H737ZM757 158V169H767V158H757ZM777 158V169H787V158H777ZM797 158V169H807V158H797ZM817 158V169H827V158H817ZM837 158V169H847V158H837ZM857 158V169H867V158H857ZM877 158V169H887V158H877ZM897 158V169H907V158H897ZM917 158V169H927V158H917ZM937 158V169H947V158H937ZM957 158V169H967V158H957ZM977 158V169H987V158H977ZM997 158V169H1007V158H997ZM1017 158V169H1027V158H1017ZM1037 158V163.026H1031V173.079H1042V158H1037ZM1042 183.131H1031V193.184H1042V183.131ZM1042 203.237H1031V213.289H1042V203.237ZM1042 223.342H1031V233.395H1042V223.342ZM1042 243.447H1031V253.5H1042V243.447ZM1042 263.552H1031V273.605H1042V263.552ZM1042 283.658H1031V293.71H1042V283.658ZM1042 303.763H1031V313.816H1042V303.763ZM1042 323.868H1031V333.921H1042V323.868ZM1042 343.974H1031V354.026H1042V343.974ZM1042 364.079H1031V374.132H1042V364.079ZM1042 384.184H1031V394.237H1042V384.184ZM1042 404.289H1031V414.342H1042V404.289ZM1042 424.395H1031V434.447H1042V424.395ZM1042 444.5H1031V454.553H1042V444.5ZM1042 464.605H1031V474.658H1042V464.605ZM1042 484.711H1031V494.763H1042V484.711ZM1042 504.816H1031V514.868H1042V504.816ZM1042 524.921H1031V534.974H1042V524.921ZM1042 545.026H1031V555.079H1042V545.026ZM1042 565.132H1031V575.184H1042V565.132ZM1042 585.237H1031V595.289H1042V585.237ZM1042 605.342H1031V615.395H1042V605.342ZM1042 625.447H1031V635.5H1042V625.447ZM1042 645.553H1031V655.605H1042V645.553ZM1042 665.658H1031V675.711H1042V665.658ZM1042 685.763H1031V695.816H1042V685.763ZM1042 705.868H1031V715.921H1042V705.868ZM1042 725.974H1037V720H1027V731H1042V725.974ZM1017 731V720H1007V731H1017ZM997 731V720H987V731H997ZM977 731V720H967V731H977ZM957 731V720H947V731H957ZM937 731V720H927V731H937ZM917 731V720H907V731H917ZM897 731V720H887V731H897ZM877 731V720H867V731H877ZM857 731V720H847V731H857ZM837 731V720H827V731H837ZM817 731V720H807V731H817ZM797 731V720H787V731H797ZM777 731V720H767V731H777ZM757 731V720H747V731H757ZM737 731V720H727V731H737ZM717 731V720H707V731H717ZM697 731V720H687V731H697ZM677 731V720H667V731H677ZM657 731V720H647V731H657ZM637 731V720H627V731H637ZM617 731V720H607V731H617ZM597 731V720H587V731H597ZM577 731V720H567V731H577ZM557 731V720H547V731H557ZM537 731V720H527V731H537ZM517 731V720H507V731H517ZM497 731V720H487V731H497ZM477 731V720H467V731H477ZM457 731V720H447V731H457ZM437 731V720H427V731H437ZM417 731V720H407V731H417ZM397 731V720H387V731H397ZM377 731V720H367V731H377ZM357 731V720H347V731H357ZM337 731V720H327V731H337ZM317 731V720H307V731H317ZM297 731V720H287V731H297ZM277 731V720H267V731H277ZM257 731V720H247V731H257ZM237 731V720H227V731H237ZM217 731V720H207V731H217ZM197 731V720H187V731H197ZM177 731V720H167V731H177ZM157 731V725.974H163V715.921H152V731H157ZM152 705.869H163V695.816H152V705.869ZM152 685.763H163V675.711H152V685.763ZM152 665.658H163V655.605H152V665.658ZM152 645.553H163V635.5H152V645.553ZM152 625.448H163V615.395H152V625.448ZM152 605.342H163V595.29H152V605.342ZM152 585.237H163V575.184H152V585.237ZM152 565.132H163V555.079H152V565.132ZM152 545.026H163V534.974H152V545.026ZM152 524.921H163V514.868H152V524.921ZM152 504.816H163V494.763H152V504.816ZM152 484.711H163V474.658H152V484.711ZM152 464.605H163V454.553H152V464.605ZM152 444.5H163V434.447H152V444.5ZM152 424.395H163V414.342H152V424.395ZM152 404.289H163V394.237H152V404.289ZM152 384.184H163V374.132H152V384.184ZM152 364.079H163V354.026H152V364.079ZM152 343.974H163V333.921H152V343.974ZM152 323.868H163V313.816H152V323.868ZM152 303.763H163V293.71H152V303.763ZM152 283.658H163V273.605H152V283.658ZM152 263.553H163V253.5H152V263.553ZM152 243.447H163V233.395H152V243.447ZM152 223.342H163V213.289H152V223.342ZM152 203.237H163V193.184H152V203.237ZM152 183.132H163V173.079H152V183.132Z" fill="#8EBE00"/>
<rect x="152.312" y="473.539" width="364.233" height="257.599" fill="#8FBE00"/>
<path d="M289.156 623H297.262V610.569H304.077C312.894 610.569 318.024 605.309 318.024 597.652C318.024 590.033 312.988 584.66 304.283 584.66H289.156V623ZM297.262 604.073V591.287H302.729C307.409 591.287 309.674 593.833 309.674 597.652C309.674 601.452 307.409 604.073 302.766 604.073H297.262ZM334.087 623.562C342.811 623.562 348.24 617.59 348.24 608.735C348.24 599.824 342.811 593.87 334.087 593.87C325.363 593.87 319.934 599.824 319.934 608.735C319.934 617.59 325.363 623.562 334.087 623.562ZM334.124 617.384C330.099 617.384 328.04 613.696 328.04 608.679C328.04 603.661 330.099 599.955 334.124 599.955C338.074 599.955 340.133 603.661 340.133 608.679C340.133 613.696 338.074 617.384 334.124 617.384ZM362.44 623.468C367.082 623.468 369.497 620.791 370.602 618.395H370.939V623H378.802V584.66H370.845V599.075H370.602C369.535 596.735 367.232 593.87 362.421 593.87C356.112 593.87 350.777 598.775 350.777 608.66C350.777 618.282 355.887 623.468 362.44 623.468ZM364.967 617.122C361.054 617.122 358.92 613.64 358.92 608.622C358.92 603.643 361.017 600.217 364.967 600.217C368.842 600.217 371.014 603.493 371.014 608.622C371.014 613.752 368.805 617.122 364.967 617.122Z" fill="#242A09"/>
<path d="M916.46 133.729H941.003V127.046H924.566V95.3892H916.46V133.729ZM944.64 133.729H952.615V104.974H944.64V133.729ZM948.646 101.268C951.024 101.268 952.971 99.4516 952.971 97.2238C952.971 95.0148 951.024 93.1988 948.646 93.1988C946.288 93.1988 944.341 95.0148 944.341 97.2238C944.341 99.4516 946.288 101.268 948.646 101.268ZM957.422 133.729H965.397V116.469C965.397 113.286 967.419 111.171 970.078 111.171C972.698 111.171 974.458 112.968 974.458 115.795V133.729H982.19V116.169C982.19 113.193 983.894 111.171 986.795 111.171C989.341 111.171 991.251 112.762 991.251 115.963V133.729H999.207V114.391C999.207 108.157 995.5 104.6 990.146 104.6C985.934 104.6 982.658 106.753 981.479 110.048H981.179C980.262 106.715 977.323 104.6 973.372 104.6C969.497 104.6 966.558 106.659 965.36 110.048H965.023V104.974H957.422V133.729ZM1003.93 133.729H1011.9V104.974H1003.93V133.729ZM1007.93 101.268C1010.31 101.268 1012.26 99.4516 1012.26 97.2238C1012.26 95.0148 1010.31 93.1988 1007.93 93.1988C1005.57 93.1988 1003.63 95.0148 1003.63 97.2238C1003.63 99.4516 1005.57 101.268 1007.93 101.268ZM1032 104.974H1026.59V98.085H1018.62V104.974H1014.69V110.965H1018.62V125.942C1018.58 131.577 1022.42 134.366 1028.2 134.123C1030.26 134.048 1031.72 133.636 1032.53 133.374L1031.27 127.439C1030.88 127.514 1030.04 127.701 1029.29 127.701C1027.7 127.701 1026.59 127.102 1026.59 124.893V110.965H1032V104.974Z" fill="black"/>
<rect x="152" y="532" width="293" height="199" fill="#DEFC83"/>
<path d="M167.422 631L168.974 626.231H176.521L178.073 631H182.811L175.602 610.087H169.904L162.684 631H167.422ZM170.098 622.78L172.671 614.866H172.834L175.408 622.78H170.098ZM190.74 631.306C194.917 631.306 197.541 628.856 197.745 625.251H193.64C193.385 626.926 192.282 627.865 190.791 627.865C188.759 627.865 187.442 626.16 187.442 623.158C187.442 620.196 188.769 618.501 190.791 618.501C192.384 618.501 193.405 619.553 193.64 621.115H197.745C197.561 617.49 194.814 615.111 190.72 615.111C185.961 615.111 183.02 618.409 183.02 623.219C183.02 627.988 185.91 631.306 190.74 631.306ZM208.01 615.315H205.059V611.558H200.709V615.315H198.565V618.583H200.709V626.752C200.689 629.826 202.782 631.347 205.937 631.214C207.061 631.174 207.857 630.949 208.296 630.806L207.612 627.569C207.398 627.61 206.938 627.712 206.53 627.712C205.662 627.712 205.059 627.385 205.059 626.18V618.583H208.01V615.315ZM220.04 624.322C220.05 626.425 218.61 627.528 217.048 627.528C215.404 627.528 214.342 626.374 214.331 624.526V615.315H209.981V625.302C209.992 628.968 212.136 631.204 215.291 631.204C217.65 631.204 219.345 629.989 220.05 628.151H220.213V631H224.39V615.315H220.04V624.322ZM231.479 631.296C233.797 631.296 235.298 630.285 236.064 628.825H236.186V631H240.312V620.421C240.312 616.684 237.146 615.111 233.654 615.111C229.896 615.111 227.425 616.908 226.823 619.767L230.846 620.094C231.142 619.053 232.071 618.287 233.634 618.287C235.114 618.287 235.962 619.032 235.962 620.319V620.38C235.962 621.391 234.89 621.524 232.163 621.789C229.059 622.075 226.271 623.117 226.271 626.619C226.271 629.724 228.487 631.296 231.479 631.296ZM232.725 628.294C231.387 628.294 230.427 627.671 230.427 626.476C230.427 625.251 231.438 624.649 232.97 624.434C233.92 624.301 235.472 624.077 235.992 623.729V625.394C235.992 627.038 234.634 628.294 232.725 628.294ZM247.174 610.087H242.824V631H247.174V610.087ZM255.589 631H259.939V621.585C259.939 619.849 261.042 618.695 262.492 618.695C263.921 618.695 264.881 619.676 264.881 621.217V631H269.098V621.422C269.098 619.798 270.028 618.695 271.61 618.695C272.999 618.695 274.041 619.563 274.041 621.309V631H278.381V620.452C278.381 617.051 276.359 615.111 273.438 615.111C271.141 615.111 269.354 616.285 268.71 618.083H268.547C268.047 616.265 266.443 615.111 264.289 615.111C262.175 615.111 260.572 616.234 259.918 618.083H259.735V615.315H255.589V631ZM288.102 631.306C291.982 631.306 294.596 629.417 295.209 626.507L291.186 626.241C290.747 627.436 289.623 628.059 288.173 628.059C285.998 628.059 284.62 626.619 284.62 624.281V624.271H295.301V623.076C295.301 617.746 292.074 615.111 287.928 615.111C283.313 615.111 280.321 618.389 280.321 623.229C280.321 628.202 283.272 631.306 288.102 631.306ZM284.62 621.575C284.712 619.788 286.07 618.358 288 618.358C289.889 618.358 291.196 619.706 291.206 621.575H284.62ZM297.277 631H301.627V621.585C301.627 619.849 302.73 618.695 304.18 618.695C305.61 618.695 306.569 619.676 306.569 621.217V631H310.787V621.422C310.787 619.798 311.716 618.695 313.299 618.695C314.687 618.695 315.729 619.563 315.729 621.309V631H320.069V620.452C320.069 617.051 318.047 615.111 315.127 615.111C312.829 615.111 311.042 616.285 310.399 618.083H310.235C309.735 616.265 308.132 615.111 305.977 615.111C303.863 615.111 302.26 616.234 301.607 618.083H301.423V615.315H297.277V631ZM329.729 631.306C334.488 631.306 337.449 628.049 337.449 623.219C337.449 618.358 334.488 615.111 329.729 615.111C324.971 615.111 322.009 618.358 322.009 623.219C322.009 628.049 324.971 631.306 329.729 631.306ZM329.749 627.937C327.554 627.937 326.431 625.925 326.431 623.188C326.431 620.452 327.554 618.43 329.749 618.43C331.904 618.43 333.027 620.452 333.027 623.188C333.027 625.925 331.904 627.937 329.749 627.937ZM339.415 631H343.765V622.126C343.765 620.196 345.174 618.869 347.094 618.869C347.696 618.869 348.523 618.971 348.932 619.104V615.244C348.544 615.152 348.003 615.091 347.563 615.091C345.807 615.091 344.367 616.112 343.795 618.052H343.632V615.315H339.415V631ZM353.481 636.882C356.718 636.882 358.434 635.228 359.322 632.695L365.418 615.336L360.813 615.315L357.535 626.834H357.372L354.124 615.315H349.55L355.176 631.449L354.921 632.113C354.349 633.583 353.256 633.655 351.725 633.185L350.744 636.432C351.367 636.698 352.378 636.882 353.481 636.882ZM374.261 609.107H370.514L363.774 634.145H367.522L374.261 609.107ZM394.028 617.409C393.446 612.579 389.791 609.801 384.95 609.801C379.426 609.801 375.209 613.702 375.209 620.544C375.209 627.365 379.355 631.286 384.95 631.286C390.311 631.286 393.548 627.722 394.028 623.872L389.556 623.852C389.137 626.088 387.381 627.375 385.022 627.375C381.846 627.375 379.692 625.016 379.692 620.544C379.692 616.193 381.816 613.712 385.053 613.712C387.473 613.712 389.219 615.111 389.556 617.409H394.028ZM396.336 631H400.758V624.22H404.475C409.284 624.22 412.082 621.35 412.082 617.174C412.082 613.018 409.335 610.087 404.587 610.087H396.336V631ZM400.758 620.676V613.702H403.74C406.292 613.702 407.528 615.091 407.528 617.174C407.528 619.247 406.292 620.676 403.76 620.676H400.758ZM427.009 610.087V623.29C427.009 625.68 425.334 627.406 422.761 627.406C420.198 627.406 418.513 625.68 418.513 623.29V610.087H414.092V623.668C414.092 628.243 417.543 631.296 422.761 631.296C427.959 631.296 431.431 628.243 431.431 623.668V610.087H427.009Z" fill="black"/>
<path d="M304.224 774.405C308.88 774.405 312.046 771.372 312.036 767.145C312.046 763.142 309.248 760.262 305.48 760.262C303.642 760.262 302.059 761.028 301.324 762.06H301.201L301.742 756.821H310.882V753.206H298.097L297.106 764.235L301.038 764.939C301.681 764.071 302.927 763.53 304.163 763.53C306.266 763.54 307.777 765.062 307.777 767.257C307.777 769.432 306.297 770.933 304.224 770.933C302.467 770.933 301.048 769.83 300.946 768.207H296.657C296.739 771.822 299.894 774.405 304.224 774.405ZM323.355 753.206H319.199L314.022 756.484V760.405L318.811 757.403H318.934V774.119H323.355V753.206ZM327.463 774.119H342.371V770.504H333.59V770.361L336.643 767.369C340.942 763.448 342.096 761.488 342.096 759.108C342.096 755.483 339.134 752.92 334.652 752.92C330.261 752.92 327.248 755.545 327.259 759.65H331.455C331.445 757.648 332.711 756.423 334.621 756.423C336.459 756.423 337.827 757.566 337.827 759.405C337.827 761.069 336.806 762.213 334.907 764.041L327.463 770.933V774.119ZM344.835 753.206V774.119H349.124V760.456H349.297L354.709 774.017H357.63L363.042 760.507H363.216V774.119H367.504V753.206H362.051L356.292 767.257H356.047L350.288 753.206H344.835ZM370.285 774.119H379.22C383.917 774.119 386.419 771.668 386.419 768.339C386.419 765.245 384.203 763.377 381.823 763.264V763.06C383.998 762.57 385.602 761.028 385.602 758.567C385.602 755.432 383.273 753.206 378.658 753.206H370.285V774.119ZM374.706 770.504V764.949H378.413C380.537 764.949 381.854 766.175 381.854 767.9C381.854 769.473 380.782 770.504 378.311 770.504H374.706ZM374.706 761.957V756.78H378.066C380.026 756.78 381.139 757.791 381.139 759.302C381.139 760.957 379.791 761.957 377.984 761.957H374.706Z" fill="black"/>
<path d="M127.46 664.93C127.46 659.672 123.457 656.496 116.564 656.486C109.722 656.475 105.801 659.692 105.801 664.93C105.801 670.179 109.712 673.365 116.564 673.375C123.436 673.396 127.449 670.199 127.46 664.93ZM123.794 664.93C123.794 667.33 121.384 668.882 116.564 668.872C111.816 668.862 109.426 667.32 109.426 664.93C109.426 662.551 111.816 660.999 116.564 660.999C121.384 660.989 123.794 662.541 123.794 664.93ZM127.265 652.482C127.265 651.175 126.173 650.042 124.815 650.032C123.477 650.042 122.384 651.175 122.384 652.482C122.384 653.83 123.477 654.943 124.815 654.933C126.173 654.943 127.265 653.83 127.265 652.482ZM127 647.364L127 632.455L123.385 632.455L123.385 641.237L123.242 641.237L120.25 638.184C116.329 633.885 114.369 632.731 111.989 632.731C108.364 632.731 105.801 635.692 105.801 640.175C105.801 644.566 108.425 647.578 112.53 647.568L112.53 643.371C110.529 643.381 109.304 642.115 109.304 640.206C109.304 638.368 110.447 636.999 112.285 636.999C113.95 636.999 115.094 638.02 116.921 639.92L123.814 647.364L127 647.364ZM127.286 622.476C127.286 617.82 124.253 614.654 120.026 614.664C116.023 614.654 113.143 617.452 113.143 621.22C113.143 623.058 113.909 624.641 114.94 625.376L114.94 625.499L109.702 624.957L109.702 615.818L106.087 615.818L106.087 628.603L117.115 629.593L117.82 625.662C116.952 625.019 116.411 623.773 116.411 622.537C116.421 620.434 117.943 618.922 120.138 618.922C122.313 618.922 123.814 620.403 123.814 622.476C123.814 624.232 122.711 625.652 121.088 625.754L121.088 630.043C124.702 629.961 127.286 626.806 127.286 622.476ZM111.315 591.987L111.315 596.592L122.538 599.839L122.538 600.003L111.315 603.26L111.315 607.855L127 602.372L127 597.47L111.315 591.987ZM113.409 572.09C108.579 572.672 105.801 576.328 105.801 581.168C105.801 586.692 109.702 590.909 116.544 590.909C123.365 590.909 127.286 586.764 127.286 581.168C127.286 575.807 123.722 572.57 119.872 572.09L119.852 576.562C122.088 576.981 123.375 578.737 123.375 581.096C123.375 584.272 121.016 586.427 116.544 586.427C112.193 586.427 109.712 584.303 109.712 581.066C109.712 578.646 111.111 576.899 113.409 576.562L113.409 572.09ZM127 569.782L127 565.36L120.22 565.36L120.22 561.643C120.22 556.834 117.35 554.036 113.174 554.036C109.018 554.036 106.087 556.783 106.087 561.531L106.087 569.782L127 569.782ZM116.676 565.36L109.702 565.36L109.702 562.379C109.702 559.826 111.091 558.59 113.174 558.59C115.247 558.59 116.676 559.826 116.676 562.358L116.676 565.36ZM106.087 539.109L119.29 539.109C121.68 539.109 123.406 540.784 123.406 543.357C123.406 545.92 121.68 547.605 119.29 547.605L106.087 547.605L106.087 552.027L119.668 552.027C124.243 552.027 127.296 548.575 127.296 543.357C127.296 538.16 124.243 534.688 119.668 534.688L106.087 534.688L106.087 539.109Z" fill="black"/>
<path d="M540.639 116.207H559.042V122.946H566.792V116.207H571.547V109.711H566.792V84.606H556.645L540.639 109.823V116.207ZM559.192 109.711H548.801V109.411L558.892 93.4422H559.192V109.711ZM601.014 96.9992H609.251C608.203 89.4172 601.52 84.0818 592.852 84.0818C582.724 84.0818 574.917 91.3829 574.917 103.814C574.917 115.945 582.219 123.47 593.02 123.47C602.699 123.47 609.607 117.349 609.607 107.258V102.428H593.563V108.531H601.801C601.688 113.286 598.45 116.3 593.058 116.3C586.974 116.3 583.136 111.751 583.136 103.739C583.136 95.7636 587.123 91.2519 592.983 91.2519C597.158 91.2519 599.985 93.4048 601.014 96.9992ZM614.115 122.946H630.495C639.107 122.946 643.694 118.453 643.694 112.35C643.694 106.678 639.631 103.252 635.269 103.046V102.672C639.257 101.773 642.196 98.9461 642.196 94.4344C642.196 88.6871 637.928 84.606 629.466 84.606H614.115V122.946ZM622.221 116.319V106.135H629.016C632.91 106.135 635.325 108.381 635.325 111.545C635.325 114.428 633.36 116.319 628.829 116.319H622.221ZM622.221 100.65V91.1583H628.38C631.974 91.1583 634.015 93.0116 634.015 95.7823C634.015 98.8151 631.544 100.65 628.23 100.65H622.221Z" fill="black"/>
<path d="M1122.34 383.098L1122.34 375.479L1116.33 365.987L1109.14 365.987L1114.65 374.767L1114.65 374.992L1084 374.992L1084 383.098L1122.34 383.098ZM1112.76 417.512L1112.76 409.069L1092.18 403.116L1092.18 402.816L1112.76 396.844L1112.76 388.42L1084 398.473L1084 407.459L1112.76 417.512ZM1108.92 453.99C1117.77 452.923 1122.86 446.221 1122.86 437.347C1122.86 427.219 1115.71 419.487 1103.17 419.487C1090.66 419.487 1083.48 427.088 1083.48 437.347C1083.48 447.176 1090.01 453.11 1097.07 453.99L1097.1 445.79C1093 445.023 1090.65 441.803 1090.65 437.478C1090.65 431.656 1094.97 427.706 1103.17 427.706C1111.15 427.706 1115.69 431.6 1115.69 437.534C1115.69 441.971 1113.13 445.172 1108.92 445.79L1108.92 453.99ZM1084 458.221L1084 466.327L1096.43 466.327L1096.43 473.142C1096.43 481.959 1101.69 487.089 1109.35 487.089C1116.97 487.089 1122.34 482.053 1122.34 473.348L1122.34 458.221L1084 458.221ZM1102.93 466.327L1115.71 466.327L1115.71 471.794C1115.71 476.474 1113.17 478.739 1109.35 478.739C1105.55 478.739 1102.93 476.474 1102.93 471.831L1102.93 466.327ZM1122.34 514.454L1098.13 514.454C1093.75 514.454 1090.59 511.384 1090.59 506.667C1090.59 501.968 1093.75 498.879 1098.13 498.879L1122.34 498.879L1122.34 490.773L1097.44 490.773C1089.05 490.773 1083.46 497.1 1083.46 506.667C1083.46 516.195 1089.05 522.561 1097.44 522.561L1122.34 522.561L1122.34 514.454Z" fill="black"/>
<path d="M1023.81 185.866C1024.41 183.627 1023.08 181.331 1020.84 180.735L984.366 171.036C982.128 170.44 979.831 171.772 979.236 174.01C978.641 176.249 979.973 178.546 982.211 179.141L1014.63 187.763L1006.01 220.184C1005.41 222.422 1006.75 224.719 1008.98 225.314C1011.22 225.909 1013.52 224.577 1014.11 222.339L1023.81 185.866ZM534.225 471.176L1021.87 188.416L1017.66 181.16L530.018 463.92L534.225 471.176Z" fill="black"/>
</svg>
