<svg width="1200" height="900" viewBox="0 0 1200 900" fill="none" xmlns="http://www.w3.org/2000/svg">
<rect width="1200" height="900" fill="white"/>
<path fill-rule="evenodd" clip-rule="evenodd" d="M712.52 106.345V804.292C712.52 813.548 705.01 821.051 695.749 821.051H105.771C96.5106 821.051 89 813.548 89 804.292V106.345C89 97.0891 96.5093 89.5859 105.771 89.5859H695.749C705.009 89.5859 712.52 97.0891 712.52 106.345Z" fill="#D2D2D2"/>
<path fill-rule="evenodd" clip-rule="evenodd" d="M195.964 787.534H688.372V800.398H195.964V787.534ZM195.964 766.832H688.372V779.696H195.964V766.832ZM195.964 747.116H688.372V759.98H195.964V747.116ZM112.664 112.259H688.372V125.075H112.664V112.259Z" fill="#A3A3A3"/>
<path fill-rule="evenodd" clip-rule="evenodd" d="M119.386 147.787H682.131C683.012 147.787 683.885 147.96 684.699 148.297C685.513 148.634 686.252 149.128 686.875 149.751C687.498 150.374 687.993 151.113 688.33 151.927C688.667 152.741 688.841 153.613 688.841 154.494V717.175C688.841 718.954 688.134 720.661 686.876 721.919C685.618 723.177 683.912 723.884 682.133 723.884H119.385C117.606 723.884 115.9 723.177 114.642 721.919C113.384 720.661 112.677 718.954 112.677 717.175V154.494C112.677 152.715 113.384 151.009 114.642 149.752C115.9 148.494 117.606 147.787 119.385 147.787H119.386Z" fill="#FDDFE1"/>
<path d="M112.417 178.308H689.111V718.034C689.111 719.668 688.462 721.235 687.307 722.391C686.151 723.546 684.584 724.195 682.95 724.195H118.578C116.944 724.195 115.377 723.546 114.222 722.391C113.066 721.235 112.417 719.668 112.417 718.034V178.308Z" fill="#EFFFBD"/>
<path d="M112.417 527.036H689.111V718.035C689.111 719.669 688.462 721.236 687.307 722.392C686.151 723.547 684.584 724.197 682.95 724.197H118.578C116.944 724.197 115.377 723.547 114.222 722.392C113.066 721.236 112.417 719.669 112.417 718.035V527.036Z" fill="#66E8FF"/>
<path d="M112.417 662.582H689.111V714.337C689.111 716.951 688.073 719.459 686.224 721.307C684.375 723.156 681.868 724.195 679.253 724.195H122.275C119.661 724.195 117.153 723.156 115.304 721.307C113.456 719.459 112.417 716.951 112.417 714.337V662.582Z" fill="#00A8C6"/>
<path d="M89 178.308L712.52 179.54" stroke="black" stroke-width="13.5548" stroke-dasharray="36.97 36.97"/>
<rect x="333.213" y="370.373" width="134.981" height="134.981" stroke="#8FBE00" stroke-width="3"/>
<rect x="529.379" y="370.373" width="134.981" height="134.981" stroke="#8FBE00" stroke-width="3"/>
<rect x="137.048" y="205.793" width="134.981" height="134.981" stroke="#8FBE00" stroke-width="3"/>
<rect x="531" y="273" width="69" height="69" fill="#8FBE00"/>
<rect x="333.213" y="205.793" width="134.981" height="134.981" stroke="#8FBE00" stroke-width="3"/>
<rect x="529.379" y="205.793" width="134.981" height="134.981" fill="#FBBC04" fill-opacity="0.38" stroke="#8FBE00" stroke-width="3"/>
<rect x="137.048" y="370.373" width="134.981" height="134.981" stroke="#8FBE00" stroke-width="3"/>
<path d="M874.125 496.578C873.943 495.63 873.779 494.5 873.633 493.188C873.523 491.839 873.396 490.49 873.25 489.141C873.104 487.755 872.922 486.461 872.703 485.258C872.521 484.055 872.229 483.07 871.828 482.305C869.969 486.096 868.328 489.086 866.906 491.273C865.484 493.424 864.227 494.974 863.133 495.922C862.076 496.833 861.182 497.271 860.453 497.234C859.724 497.198 859.122 496.87 858.648 496.25C858.174 495.63 857.828 494.846 857.609 493.898C857.427 492.914 857.299 492.003 857.227 491.164C857.227 490.362 857.409 489.232 857.773 487.773C858.138 486.315 858.63 484.729 859.25 483.016C859.87 481.266 860.599 479.497 861.438 477.711C862.312 475.924 863.242 474.302 864.227 472.844C865.211 471.385 866.232 470.182 867.289 469.234C868.346 468.286 869.404 467.812 870.461 467.812C872.029 467.557 873.177 467.904 873.906 468.852C874.672 469.763 874.818 471.312 874.344 473.5C874.344 475.906 874.435 477.966 874.617 479.68C874.836 481.393 875.055 483.034 875.273 484.602C875.529 486.169 875.747 487.81 875.93 489.523C876.148 491.237 876.258 493.297 876.258 495.703C876.258 496.141 876.203 496.523 876.094 496.852C876.021 497.143 875.583 497.289 874.781 497.289C874.672 497.289 874.526 497.198 874.344 497.016C874.198 496.833 874.125 496.688 874.125 496.578ZM871.172 472.133C870.771 471.549 870.224 471.495 869.531 471.969C868.839 472.443 868.109 473.227 867.344 474.32C866.578 475.414 865.794 476.727 864.992 478.258C864.19 479.789 863.443 481.339 862.75 482.906C862.057 484.474 861.456 485.969 860.945 487.391C860.435 488.776 860.089 489.924 859.906 490.836C859.906 492.148 860.107 492.896 860.508 493.078C860.909 493.224 861.401 493.005 861.984 492.422C862.568 491.839 863.224 491 863.953 489.906C864.719 488.812 865.448 487.646 866.141 486.406C866.87 485.167 867.544 483.964 868.164 482.797C868.82 481.63 869.331 480.682 869.695 479.953C870.023 479.188 870.279 478.477 870.461 477.82C870.643 477.164 870.789 476.544 870.898 475.961C871.044 475.341 871.117 474.721 871.117 474.102C871.154 473.482 871.172 472.826 871.172 472.133ZM879.102 485.422C879.211 484.109 879.32 482.688 879.43 481.156C879.539 479.589 879.703 478.039 879.922 476.508C880.177 474.977 880.487 473.518 880.852 472.133C881.253 470.747 881.763 469.526 882.383 468.469C883.039 467.375 883.841 466.518 884.789 465.898C885.737 465.242 886.885 464.932 888.234 464.969C889.146 464.969 889.839 465.352 890.312 466.117C890.823 466.883 891.169 467.812 891.352 468.906C891.57 470 891.68 471.13 891.68 472.297C891.716 473.427 891.734 474.357 891.734 475.086C891.005 475.086 890.404 474.776 889.93 474.156C889.456 473.5 889.091 472.753 888.836 471.914C888.581 471.076 888.398 470.255 888.289 469.453L888.125 467.867C888.089 467.867 888.016 467.867 887.906 467.867C887.833 467.831 887.779 467.812 887.742 467.812C887.122 467.812 886.539 468.159 885.992 468.852C885.482 469.544 884.99 470.438 884.516 471.531C884.078 472.589 883.695 473.792 883.367 475.141C883.039 476.453 882.766 477.747 882.547 479.023C882.328 480.299 882.146 481.484 882 482.578C881.891 483.635 881.836 484.456 881.836 485.039C881.763 485.987 881.763 487.026 881.836 488.156C881.909 489.286 882.128 490.344 882.492 491.328C882.857 492.312 883.367 493.169 884.023 493.898C884.68 494.591 885.555 495.065 886.648 495.32C887.997 495.32 889.091 495.138 889.93 494.773C890.768 494.409 891.443 493.917 891.953 493.297C892.5 492.677 892.919 491.984 893.211 491.219C893.503 490.453 893.776 489.669 894.031 488.867C894.323 488.029 894.615 487.208 894.906 486.406C895.198 485.604 895.617 484.857 896.164 484.164C896.602 484.055 896.911 484.073 897.094 484.219C897.312 484.328 897.458 484.492 897.531 484.711C897.604 484.93 897.641 485.185 897.641 485.477V486.078C897.641 487.609 897.385 489.086 896.875 490.508C896.365 491.93 895.617 493.206 894.633 494.336C893.648 495.43 892.464 496.323 891.078 497.016C889.729 497.672 888.18 498 886.43 498C884.971 498 883.75 497.544 882.766 496.633C881.818 495.685 881.07 494.555 880.523 493.242C880.013 491.93 879.648 490.562 879.43 489.141C879.211 487.682 879.102 486.443 879.102 485.422ZM902.453 474.648C902.089 474.831 901.742 475.031 901.414 475.25C901.122 475.432 900.831 475.615 900.539 475.797C900.247 475.943 899.956 476.052 899.664 476.125C899.372 476.198 899.062 476.198 898.734 476.125C898.516 476.125 898.333 475.997 898.188 475.742C898.042 475.451 897.932 475.141 897.859 474.812C897.75 474.448 897.677 474.102 897.641 473.773C897.604 473.409 897.604 473.135 897.641 472.953L902.891 469.945L903.219 455.945C903.292 455.471 903.583 455.289 904.094 455.398C904.604 455.471 905.133 455.581 905.68 455.727C905.753 455.727 905.862 455.763 906.008 455.836C906.19 455.872 906.318 455.909 906.391 455.945C906.318 456.93 906.227 458.005 906.117 459.172C906.044 460.302 905.971 461.451 905.898 462.617C905.826 463.747 905.771 464.859 905.734 465.953C905.734 467.047 905.789 468.031 905.898 468.906L914.102 466.609C914.247 466.573 914.357 466.682 914.43 466.938C914.539 467.156 914.63 467.43 914.703 467.758C914.812 468.086 914.885 468.414 914.922 468.742C914.958 469.07 914.977 469.234 914.977 469.234L905.68 473.172C905.68 473.5 905.698 474.284 905.734 475.523C905.807 476.763 905.88 478.24 905.953 479.953C906.026 481.63 906.099 483.453 906.172 485.422C906.245 487.354 906.318 489.159 906.391 490.836C906.464 492.513 906.518 493.99 906.555 495.266C906.591 496.505 906.609 497.289 906.609 497.617C906.536 498.711 906.208 499.258 905.625 499.258C905.078 499.258 904.477 498.984 903.82 498.438L902.453 474.648ZM929.906 491.656C929.76 492.094 929.396 492.695 928.812 493.461C928.266 494.19 927.609 494.938 926.844 495.703C926.078 496.432 925.276 497.089 924.438 497.672C923.635 498.219 922.924 498.492 922.305 498.492C921.138 498.492 920.172 497.945 919.406 496.852C918.677 495.758 918.112 494.354 917.711 492.641C917.31 490.927 917.036 489.031 916.891 486.953C916.745 484.839 916.654 482.779 916.617 480.773C916.581 478.768 916.562 476.945 916.562 475.305C916.562 473.664 916.508 472.424 916.398 471.586C916.544 471.221 916.727 471.003 916.945 470.93C917.201 470.857 917.492 470.82 917.82 470.82C918.112 470.82 918.367 470.857 918.586 470.93C918.841 471.003 919.06 471.221 919.242 471.586C919.242 471.987 919.242 472.661 919.242 473.609C919.279 474.557 919.333 475.633 919.406 476.836C919.479 478.003 919.552 479.242 919.625 480.555C919.698 481.831 919.753 483.052 919.789 484.219C919.862 485.385 919.917 486.443 919.953 487.391C920.026 488.302 920.081 488.977 920.117 489.414C920.154 489.669 920.19 490.089 920.227 490.672C920.299 491.255 920.391 491.875 920.5 492.531C920.646 493.151 920.81 493.716 920.992 494.227C921.211 494.737 921.484 495.01 921.812 495.047C922.359 495.047 922.906 494.81 923.453 494.336C924.036 493.862 924.602 493.26 925.148 492.531C925.695 491.802 926.206 491 926.68 490.125C927.154 489.25 927.573 488.411 927.938 487.609C928.339 486.771 928.63 486.023 928.812 485.367C929.031 484.711 929.159 484.237 929.195 483.945C929.268 483.326 929.341 482.451 929.414 481.32C929.487 480.154 929.542 478.914 929.578 477.602C929.615 476.289 929.633 475.049 929.633 473.883C929.669 472.716 929.688 471.823 929.688 471.203L932.695 471.367C932.732 474.32 932.714 477 932.641 479.406C932.568 481.776 932.549 484.018 932.586 486.133C932.622 488.211 932.786 490.234 933.078 492.203C933.37 494.172 933.898 496.214 934.664 498.328C934.555 498.438 934.336 498.583 934.008 498.766C933.68 498.984 933.443 499.094 933.297 499.094C932.385 499.094 931.766 498.784 931.438 498.164C931.146 497.581 930.945 496.888 930.836 496.086C930.763 495.247 930.69 494.427 930.617 493.625C930.581 492.786 930.344 492.13 929.906 491.656ZM953.258 496.578C953.076 495.63 952.911 494.5 952.766 493.188C952.656 491.839 952.529 490.49 952.383 489.141C952.237 487.755 952.055 486.461 951.836 485.258C951.654 484.055 951.362 483.07 950.961 482.305C949.102 486.096 947.461 489.086 946.039 491.273C944.617 493.424 943.359 494.974 942.266 495.922C941.208 496.833 940.315 497.271 939.586 497.234C938.857 497.198 938.255 496.87 937.781 496.25C937.307 495.63 936.961 494.846 936.742 493.898C936.56 492.914 936.432 492.003 936.359 491.164C936.359 490.362 936.542 489.232 936.906 487.773C937.271 486.315 937.763 484.729 938.383 483.016C939.003 481.266 939.732 479.497 940.57 477.711C941.445 475.924 942.375 474.302 943.359 472.844C944.344 471.385 945.365 470.182 946.422 469.234C947.479 468.286 948.536 467.812 949.594 467.812C951.161 467.557 952.31 467.904 953.039 468.852C953.805 469.763 953.951 471.312 953.477 473.5C953.477 475.906 953.568 477.966 953.75 479.68C953.969 481.393 954.188 483.034 954.406 484.602C954.661 486.169 954.88 487.81 955.062 489.523C955.281 491.237 955.391 493.297 955.391 495.703C955.391 496.141 955.336 496.523 955.227 496.852C955.154 497.143 954.716 497.289 953.914 497.289C953.805 497.289 953.659 497.198 953.477 497.016C953.331 496.833 953.258 496.688 953.258 496.578ZM950.305 472.133C949.904 471.549 949.357 471.495 948.664 471.969C947.971 472.443 947.242 473.227 946.477 474.32C945.711 475.414 944.927 476.727 944.125 478.258C943.323 479.789 942.576 481.339 941.883 482.906C941.19 484.474 940.589 485.969 940.078 487.391C939.568 488.776 939.221 489.924 939.039 490.836C939.039 492.148 939.24 492.896 939.641 493.078C940.042 493.224 940.534 493.005 941.117 492.422C941.701 491.839 942.357 491 943.086 489.906C943.852 488.812 944.581 487.646 945.273 486.406C946.003 485.167 946.677 483.964 947.297 482.797C947.953 481.63 948.464 480.682 948.828 479.953C949.156 479.188 949.411 478.477 949.594 477.82C949.776 477.164 949.922 476.544 950.031 475.961C950.177 475.341 950.25 474.721 950.25 474.102C950.286 473.482 950.305 472.826 950.305 472.133ZM959.383 495.211C959.638 493.534 959.802 491.438 959.875 488.922C959.984 486.406 960.021 483.727 959.984 480.883C959.984 478.039 959.93 475.104 959.82 472.078C959.711 469.052 959.565 466.19 959.383 463.492C959.201 460.758 958.982 458.315 958.727 456.164C958.508 454.013 958.271 452.318 958.016 451.078C958.344 450.859 958.617 450.695 958.836 450.586C959.091 450.44 959.383 450.367 959.711 450.367C959.966 450.367 960.185 450.422 960.367 450.531C960.549 450.604 960.695 450.786 960.805 451.078C961.534 458.224 962.026 465.424 962.281 472.68C962.573 479.935 962.792 487.154 962.938 494.336C962.938 494.664 962.938 495.12 962.938 495.703C962.938 496.25 962.919 496.542 962.883 496.578C962.372 496.833 961.917 496.961 961.516 496.961C961.115 496.924 960.75 496.815 960.422 496.633C960.094 496.414 959.839 496.177 959.656 495.922C959.474 495.667 959.383 495.43 959.383 495.211ZM1005.05 491.656C1004.9 492.094 1004.54 492.695 1003.95 493.461C1003.41 494.19 1002.75 494.938 1001.98 495.703C1001.22 496.432 1000.42 497.089 999.578 497.672C998.776 498.219 998.065 498.492 997.445 498.492C996.279 498.492 995.312 497.945 994.547 496.852C993.818 495.758 993.253 494.354 992.852 492.641C992.451 490.927 992.177 489.031 992.031 486.953C991.885 484.839 991.794 482.779 991.758 480.773C991.721 478.768 991.703 476.945 991.703 475.305C991.703 473.664 991.648 472.424 991.539 471.586C991.685 471.221 991.867 471.003 992.086 470.93C992.341 470.857 992.633 470.82 992.961 470.82C993.253 470.82 993.508 470.857 993.727 470.93C993.982 471.003 994.201 471.221 994.383 471.586C994.383 471.987 994.383 472.661 994.383 473.609C994.419 474.557 994.474 475.633 994.547 476.836C994.62 478.003 994.693 479.242 994.766 480.555C994.839 481.831 994.893 483.052 994.93 484.219C995.003 485.385 995.057 486.443 995.094 487.391C995.167 488.302 995.221 488.977 995.258 489.414C995.294 489.669 995.331 490.089 995.367 490.672C995.44 491.255 995.531 491.875 995.641 492.531C995.786 493.151 995.951 493.716 996.133 494.227C996.352 494.737 996.625 495.01 996.953 495.047C997.5 495.047 998.047 494.81 998.594 494.336C999.177 493.862 999.742 493.26 1000.29 492.531C1000.84 491.802 1001.35 491 1001.82 490.125C1002.29 489.25 1002.71 488.411 1003.08 487.609C1003.48 486.771 1003.77 486.023 1003.95 485.367C1004.17 484.711 1004.3 484.237 1004.34 483.945C1004.41 483.326 1004.48 482.451 1004.55 481.32C1004.63 480.154 1004.68 478.914 1004.72 477.602C1004.76 476.289 1004.77 475.049 1004.77 473.883C1004.81 472.716 1004.83 471.823 1004.83 471.203L1007.84 471.367C1007.87 474.32 1007.85 477 1007.78 479.406C1007.71 481.776 1007.69 484.018 1007.73 486.133C1007.76 488.211 1007.93 490.234 1008.22 492.203C1008.51 494.172 1009.04 496.214 1009.8 498.328C1009.7 498.438 1009.48 498.583 1009.15 498.766C1008.82 498.984 1008.58 499.094 1008.44 499.094C1007.53 499.094 1006.91 498.784 1006.58 498.164C1006.29 497.581 1006.09 496.888 1005.98 496.086C1005.9 495.247 1005.83 494.427 1005.76 493.625C1005.72 492.786 1005.48 492.13 1005.05 491.656ZM1017.19 497.18C1017.19 497.216 1017.57 496.997 1018.34 496.523C1019.14 496.049 1020.07 495.43 1021.12 494.664C1022.22 493.862 1023.33 493.005 1024.46 492.094C1025.59 491.146 1026.52 490.253 1027.25 489.414C1027.98 488.576 1028.36 487.865 1028.4 487.281C1028.47 486.661 1027.98 486.26 1026.92 486.078C1025.61 485.896 1024.5 485.914 1023.59 486.133C1022.71 486.352 1021.91 486.607 1021.18 486.898C1020.45 487.19 1019.76 487.464 1019.1 487.719C1018.48 487.974 1017.79 488.065 1017.02 487.992C1015.42 487.992 1014.31 487.5 1013.69 486.516C1013.1 485.495 1012.81 484.128 1012.81 482.414C1012.81 480.701 1013.2 479.078 1013.96 477.547C1014.73 475.979 1015.71 474.63 1016.91 473.5C1018.12 472.37 1019.5 471.477 1021.07 470.82C1022.64 470.128 1024.24 469.781 1025.88 469.781C1026.54 469.781 1027.1 469.836 1027.58 469.945C1028.05 470.055 1028.29 470.474 1028.29 471.203C1028.29 471.714 1028.07 472.206 1027.63 472.68C1027.2 473.117 1026.7 473.336 1026.16 473.336C1026.12 473.336 1026.03 473.318 1025.88 473.281C1025.74 473.208 1025.59 473.117 1025.45 473.008C1025.3 472.898 1025.15 472.826 1025.01 472.789C1024.86 472.716 1024.77 472.68 1024.73 472.68C1023.57 472.352 1022.44 472.516 1021.34 473.172C1020.25 473.828 1019.27 474.721 1018.39 475.852C1017.55 476.945 1016.88 478.148 1016.37 479.461C1015.86 480.737 1015.6 481.885 1015.6 482.906C1015.6 483.307 1015.67 483.635 1015.82 483.891C1016 484.109 1016.22 484.273 1016.48 484.383C1016.77 484.492 1017.08 484.565 1017.41 484.602C1017.77 484.602 1018.14 484.602 1018.5 484.602C1019.23 484.602 1019.96 484.492 1020.69 484.273C1021.45 484.055 1022.18 483.799 1022.88 483.508C1023.6 483.216 1024.33 482.961 1025.06 482.742C1025.83 482.523 1026.61 482.414 1027.41 482.414C1027.78 482.414 1028.18 482.523 1028.62 482.742C1029.05 482.924 1029.46 483.216 1029.82 483.617C1030.18 483.982 1030.49 484.419 1030.75 484.93C1031.01 485.404 1031.15 485.932 1031.19 486.516C1031.41 487.026 1031.33 487.701 1030.97 488.539C1030.64 489.378 1030.13 490.271 1029.44 491.219C1028.74 492.167 1027.91 493.133 1026.92 494.117C1025.94 495.065 1024.95 495.94 1023.97 496.742C1022.98 497.508 1022.02 498.128 1021.07 498.602C1020.12 499.112 1019.32 499.349 1018.66 499.312C1017.93 499.312 1017.5 499.094 1017.35 498.656C1017.24 498.219 1017.19 497.727 1017.19 497.18ZM1048.91 496.578C1048.72 495.63 1048.56 494.5 1048.41 493.188C1048.3 491.839 1048.18 490.49 1048.03 489.141C1047.89 487.755 1047.7 486.461 1047.48 485.258C1047.3 484.055 1047.01 483.07 1046.61 482.305C1044.75 486.096 1043.11 489.086 1041.69 491.273C1040.27 493.424 1039.01 494.974 1037.91 495.922C1036.86 496.833 1035.96 497.271 1035.23 497.234C1034.51 497.198 1033.9 496.87 1033.43 496.25C1032.96 495.63 1032.61 494.846 1032.39 493.898C1032.21 492.914 1032.08 492.003 1032.01 491.164C1032.01 490.362 1032.19 489.232 1032.55 487.773C1032.92 486.315 1033.41 484.729 1034.03 483.016C1034.65 481.266 1035.38 479.497 1036.22 477.711C1037.09 475.924 1038.02 474.302 1039.01 472.844C1039.99 471.385 1041.01 470.182 1042.07 469.234C1043.13 468.286 1044.18 467.812 1045.24 467.812C1046.81 467.557 1047.96 467.904 1048.69 468.852C1049.45 469.763 1049.6 471.312 1049.12 473.5C1049.12 475.906 1049.22 477.966 1049.4 479.68C1049.62 481.393 1049.84 483.034 1050.05 484.602C1050.31 486.169 1050.53 487.81 1050.71 489.523C1050.93 491.237 1051.04 493.297 1051.04 495.703C1051.04 496.141 1050.98 496.523 1050.88 496.852C1050.8 497.143 1050.36 497.289 1049.56 497.289C1049.45 497.289 1049.31 497.198 1049.12 497.016C1048.98 496.833 1048.91 496.688 1048.91 496.578ZM1045.95 472.133C1045.55 471.549 1045.01 471.495 1044.31 471.969C1043.62 472.443 1042.89 473.227 1042.12 474.32C1041.36 475.414 1040.58 476.727 1039.77 478.258C1038.97 479.789 1038.22 481.339 1037.53 482.906C1036.84 484.474 1036.24 485.969 1035.73 487.391C1035.22 488.776 1034.87 489.924 1034.69 490.836C1034.69 492.148 1034.89 492.896 1035.29 493.078C1035.69 493.224 1036.18 493.005 1036.77 492.422C1037.35 491.839 1038.01 491 1038.73 489.906C1039.5 488.812 1040.23 487.646 1040.92 486.406C1041.65 485.167 1042.33 483.964 1042.95 482.797C1043.6 481.63 1044.11 480.682 1044.48 479.953C1044.8 479.188 1045.06 478.477 1045.24 477.82C1045.42 477.164 1045.57 476.544 1045.68 475.961C1045.83 475.341 1045.9 474.721 1045.9 474.102C1045.93 473.482 1045.95 472.826 1045.95 472.133ZM1057.66 519.383C1060.86 519.201 1063.38 518.362 1065.2 516.867C1067.06 515.372 1068.45 513.44 1069.36 511.07C1070.27 508.701 1070.82 505.984 1071 502.922C1071.18 499.896 1071.2 496.76 1071.05 493.516C1070.91 490.271 1070.69 487.026 1070.4 483.781C1070.14 480.5 1070.03 477.456 1070.07 474.648C1068.5 479.242 1067.03 482.961 1065.64 485.805C1064.26 488.612 1062.96 490.745 1061.76 492.203C1060.59 493.625 1059.52 494.5 1058.53 494.828C1057.58 495.12 1056.74 495.065 1056.02 494.664C1055.29 494.227 1054.68 493.552 1054.21 492.641C1053.77 491.693 1053.46 490.727 1053.28 489.742C1053.35 488.065 1053.68 486.224 1054.27 484.219C1054.89 482.177 1055.67 480.19 1056.62 478.258C1057.6 476.289 1058.73 474.466 1060.01 472.789C1061.28 471.076 1062.63 469.745 1064.05 468.797C1065.48 467.812 1066.95 467.302 1068.48 467.266C1070.02 467.193 1071.49 467.776 1072.91 469.016C1072.95 469.052 1073.01 469.544 1073.08 470.492C1073.19 471.404 1073.3 472.625 1073.41 474.156C1073.55 475.651 1073.7 477.346 1073.84 479.242C1074.03 481.102 1074.19 482.997 1074.34 484.93C1074.48 486.826 1074.61 488.648 1074.72 490.398C1074.83 492.148 1074.94 493.661 1075.05 494.938C1075.19 497.016 1075.1 499.221 1074.77 501.555C1074.48 503.888 1074.01 506.148 1073.35 508.336C1072.7 510.56 1071.86 512.638 1070.84 514.57C1069.85 516.503 1068.7 518.089 1067.39 519.328C1066.11 520.568 1064.67 521.352 1063.07 521.68C1061.5 522.044 1059.83 521.771 1058.04 520.859C1057.93 520.859 1057.77 520.841 1057.55 520.805C1057.33 520.805 1057.15 520.75 1057 520.641C1056.89 520.531 1056.87 520.385 1056.95 520.203C1057.02 520.021 1057.26 519.747 1057.66 519.383ZM1056.12 489.359C1056.49 490.49 1056.96 491.073 1057.55 491.109C1058.17 491.109 1058.82 490.727 1059.52 489.961C1060.21 489.159 1060.96 488.047 1061.76 486.625C1062.6 485.203 1063.42 483.654 1064.22 481.977C1065.02 480.299 1065.8 478.586 1066.57 476.836C1067.37 475.049 1068.12 473.391 1068.81 471.859C1068.81 471.458 1068.72 471.094 1068.54 470.766C1068.36 470.401 1067.96 470.292 1067.34 470.438C1066.32 470.656 1065.31 471.148 1064.33 471.914C1063.38 472.68 1062.49 473.628 1061.65 474.758C1060.85 475.852 1060.1 477.073 1059.41 478.422C1058.75 479.734 1058.17 481.065 1057.66 482.414C1057.18 483.727 1056.8 484.984 1056.51 486.188C1056.25 487.391 1056.12 488.448 1056.12 489.359ZM1079.97 486.188C1079.79 486.224 1079.51 486.279 1079.15 486.352C1078.78 486.424 1078.4 486.443 1078 486.406C1077.6 486.37 1077.25 486.26 1076.96 486.078C1076.63 485.896 1076.47 485.586 1076.47 485.148C1076.47 484.893 1076.52 484.711 1076.63 484.602C1076.74 484.492 1076.92 484.328 1077.18 484.109C1077.98 483.453 1078.66 482.615 1079.2 481.594C1079.79 480.536 1080.32 479.424 1080.79 478.258C1081.26 477.055 1081.76 475.87 1082.27 474.703C1082.81 473.5 1083.43 472.424 1084.12 471.477C1084.82 470.529 1085.67 469.763 1086.7 469.18C1087.72 468.596 1088.97 468.323 1090.47 468.359C1091.09 468.359 1091.78 468.505 1092.55 468.797C1093.31 469.089 1094.02 469.49 1094.68 470C1095.34 470.474 1095.88 471.057 1096.32 471.75C1096.76 472.443 1096.98 473.208 1096.98 474.047C1097.16 474.339 1096.98 474.758 1096.43 475.305C1095.92 475.852 1095.21 476.453 1094.3 477.109C1093.39 477.729 1092.35 478.385 1091.18 479.078C1090.05 479.734 1088.96 480.354 1087.9 480.938C1086.84 481.521 1085.91 482.031 1085.11 482.469C1084.31 482.906 1083.78 483.234 1083.52 483.453C1083.34 483.818 1083.2 484.237 1083.09 484.711C1082.98 485.185 1082.89 485.641 1082.81 486.078C1082.78 486.479 1082.74 486.862 1082.7 487.227C1082.7 487.555 1082.7 487.81 1082.7 487.992C1082.7 488.685 1082.67 489.451 1082.59 490.289C1082.56 491.128 1082.59 491.93 1082.7 492.695C1082.85 493.424 1083.16 494.044 1083.63 494.555C1084.11 495.029 1084.91 495.266 1086.04 495.266C1087.24 495.266 1088.37 494.974 1089.43 494.391C1090.49 493.771 1091.47 493.023 1092.38 492.148C1093.29 491.273 1094.11 490.326 1094.84 489.305C1095.61 488.284 1096.28 487.336 1096.87 486.461C1097.49 485.549 1098.03 484.802 1098.51 484.219C1098.98 483.635 1099.38 483.344 1099.71 483.344C1100.08 483.344 1100.46 483.417 1100.86 483.562C1101.3 483.672 1101.52 483.964 1101.52 484.438C1101.52 485.094 1101.24 485.878 1100.7 486.789C1100.18 487.701 1099.49 488.667 1098.62 489.688C1097.78 490.708 1096.79 491.729 1095.66 492.75C1094.57 493.734 1093.46 494.628 1092.33 495.43C1091.2 496.195 1090.09 496.833 1088.99 497.344C1087.9 497.818 1086.93 498.055 1086.09 498.055C1084.45 498.055 1083.21 497.654 1082.38 496.852C1081.54 496.049 1080.93 495.047 1080.57 493.844C1080.24 492.641 1080.06 491.365 1080.02 490.016C1080.02 488.63 1080.01 487.354 1079.97 486.188ZM1090.03 471.422C1089.41 471.422 1088.76 471.732 1088.06 472.352C1087.37 472.935 1086.71 473.664 1086.09 474.539C1085.51 475.378 1085.02 476.253 1084.62 477.164C1084.25 478.039 1084.07 478.768 1084.07 479.352C1084.62 479.352 1085.4 479.151 1086.42 478.75C1087.48 478.312 1088.52 477.784 1089.54 477.164C1090.56 476.544 1091.45 475.888 1092.22 475.195C1092.98 474.503 1093.37 473.846 1093.37 473.227C1093.37 472.898 1093.24 472.625 1092.98 472.406C1092.73 472.188 1092.42 472.005 1092.05 471.859C1091.73 471.714 1091.38 471.604 1091.02 471.531C1090.65 471.458 1090.32 471.422 1090.03 471.422Z" fill="black"/>
<path d="M844.699 225.383C847.908 225.201 850.423 224.362 852.246 222.867C854.105 221.372 855.491 219.44 856.402 217.07C857.314 214.701 857.861 211.984 858.043 208.922C858.225 205.896 858.243 202.76 858.098 199.516C857.952 196.271 857.733 193.026 857.441 189.781C857.186 186.5 857.077 183.456 857.113 180.648C855.546 185.242 854.069 188.961 852.684 191.805C851.298 194.612 850.004 196.745 848.801 198.203C847.634 199.625 846.559 200.5 845.574 200.828C844.626 201.12 843.788 201.065 843.059 200.664C842.329 200.227 841.728 199.552 841.254 198.641C840.816 197.693 840.507 196.727 840.324 195.742C840.397 194.065 840.725 192.224 841.309 190.219C841.928 188.177 842.712 186.19 843.66 184.258C844.645 182.289 845.775 180.466 847.051 178.789C848.327 177.076 849.676 175.745 851.098 174.797C852.52 173.812 853.996 173.302 855.527 173.266C857.059 173.193 858.535 173.776 859.957 175.016C859.993 175.052 860.048 175.544 860.121 176.492C860.23 177.404 860.34 178.625 860.449 180.156C860.595 181.651 860.741 183.346 860.887 185.242C861.069 187.102 861.233 188.997 861.379 190.93C861.525 192.826 861.652 194.648 861.762 196.398C861.871 198.148 861.98 199.661 862.09 200.938C862.236 203.016 862.145 205.221 861.816 207.555C861.525 209.888 861.051 212.148 860.395 214.336C859.738 216.56 858.9 218.638 857.879 220.57C856.895 222.503 855.746 224.089 854.434 225.328C853.158 226.568 851.717 227.352 850.113 227.68C848.546 228.044 846.868 227.771 845.082 226.859C844.973 226.859 844.809 226.841 844.59 226.805C844.371 226.805 844.189 226.75 844.043 226.641C843.934 226.531 843.915 226.385 843.988 226.203C844.061 226.021 844.298 225.747 844.699 225.383ZM843.168 195.359C843.533 196.49 844.007 197.073 844.59 197.109C845.21 197.109 845.866 196.727 846.559 195.961C847.251 195.159 847.999 194.047 848.801 192.625C849.639 191.203 850.46 189.654 851.262 187.977C852.064 186.299 852.848 184.586 853.613 182.836C854.415 181.049 855.163 179.391 855.855 177.859C855.855 177.458 855.764 177.094 855.582 176.766C855.4 176.401 854.999 176.292 854.379 176.438C853.358 176.656 852.355 177.148 851.371 177.914C850.423 178.68 849.53 179.628 848.691 180.758C847.889 181.852 847.142 183.073 846.449 184.422C845.793 185.734 845.21 187.065 844.699 188.414C844.225 189.727 843.842 190.984 843.551 192.188C843.296 193.391 843.168 194.448 843.168 195.359ZM879.316 197.656C879.171 198.094 878.806 198.695 878.223 199.461C877.676 200.19 877.02 200.938 876.254 201.703C875.488 202.432 874.686 203.089 873.848 203.672C873.046 204.219 872.335 204.492 871.715 204.492C870.548 204.492 869.582 203.945 868.816 202.852C868.087 201.758 867.522 200.354 867.121 198.641C866.72 196.927 866.447 195.031 866.301 192.953C866.155 190.839 866.064 188.779 866.027 186.773C865.991 184.768 865.973 182.945 865.973 181.305C865.973 179.664 865.918 178.424 865.809 177.586C865.954 177.221 866.137 177.003 866.355 176.93C866.611 176.857 866.902 176.82 867.23 176.82C867.522 176.82 867.777 176.857 867.996 176.93C868.251 177.003 868.47 177.221 868.652 177.586C868.652 177.987 868.652 178.661 868.652 179.609C868.689 180.557 868.743 181.633 868.816 182.836C868.889 184.003 868.962 185.242 869.035 186.555C869.108 187.831 869.163 189.052 869.199 190.219C869.272 191.385 869.327 192.443 869.363 193.391C869.436 194.302 869.491 194.977 869.527 195.414C869.564 195.669 869.6 196.089 869.637 196.672C869.71 197.255 869.801 197.875 869.91 198.531C870.056 199.151 870.22 199.716 870.402 200.227C870.621 200.737 870.895 201.01 871.223 201.047C871.77 201.047 872.316 200.81 872.863 200.336C873.447 199.862 874.012 199.26 874.559 198.531C875.105 197.802 875.616 197 876.09 196.125C876.564 195.25 876.983 194.411 877.348 193.609C877.749 192.771 878.04 192.023 878.223 191.367C878.441 190.711 878.569 190.237 878.605 189.945C878.678 189.326 878.751 188.451 878.824 187.32C878.897 186.154 878.952 184.914 878.988 183.602C879.025 182.289 879.043 181.049 879.043 179.883C879.079 178.716 879.098 177.823 879.098 177.203L882.105 177.367C882.142 180.32 882.124 183 882.051 185.406C881.978 187.776 881.96 190.018 881.996 192.133C882.033 194.211 882.197 196.234 882.488 198.203C882.78 200.172 883.309 202.214 884.074 204.328C883.965 204.438 883.746 204.583 883.418 204.766C883.09 204.984 882.853 205.094 882.707 205.094C881.796 205.094 881.176 204.784 880.848 204.164C880.556 203.581 880.355 202.888 880.246 202.086C880.173 201.247 880.1 200.427 880.027 199.625C879.991 198.786 879.754 198.13 879.316 197.656ZM902.668 202.578C902.486 201.63 902.322 200.5 902.176 199.188C902.066 197.839 901.939 196.49 901.793 195.141C901.647 193.755 901.465 192.461 901.246 191.258C901.064 190.055 900.772 189.07 900.371 188.305C898.512 192.096 896.871 195.086 895.449 197.273C894.027 199.424 892.77 200.974 891.676 201.922C890.618 202.833 889.725 203.271 888.996 203.234C888.267 203.198 887.665 202.87 887.191 202.25C886.717 201.63 886.371 200.846 886.152 199.898C885.97 198.914 885.842 198.003 885.77 197.164C885.77 196.362 885.952 195.232 886.316 193.773C886.681 192.315 887.173 190.729 887.793 189.016C888.413 187.266 889.142 185.497 889.98 183.711C890.855 181.924 891.785 180.302 892.77 178.844C893.754 177.385 894.775 176.182 895.832 175.234C896.889 174.286 897.947 173.812 899.004 173.812C900.572 173.557 901.72 173.904 902.449 174.852C903.215 175.763 903.361 177.312 902.887 179.5C902.887 181.906 902.978 183.966 903.16 185.68C903.379 187.393 903.598 189.034 903.816 190.602C904.072 192.169 904.29 193.81 904.473 195.523C904.691 197.237 904.801 199.297 904.801 201.703C904.801 202.141 904.746 202.523 904.637 202.852C904.564 203.143 904.126 203.289 903.324 203.289C903.215 203.289 903.069 203.198 902.887 203.016C902.741 202.833 902.668 202.688 902.668 202.578ZM899.715 178.133C899.314 177.549 898.767 177.495 898.074 177.969C897.382 178.443 896.652 179.227 895.887 180.32C895.121 181.414 894.337 182.727 893.535 184.258C892.733 185.789 891.986 187.339 891.293 188.906C890.6 190.474 889.999 191.969 889.488 193.391C888.978 194.776 888.632 195.924 888.449 196.836C888.449 198.148 888.65 198.896 889.051 199.078C889.452 199.224 889.944 199.005 890.527 198.422C891.111 197.839 891.767 197 892.496 195.906C893.262 194.812 893.991 193.646 894.684 192.406C895.413 191.167 896.087 189.964 896.707 188.797C897.363 187.63 897.874 186.682 898.238 185.953C898.566 185.188 898.822 184.477 899.004 183.82C899.186 183.164 899.332 182.544 899.441 181.961C899.587 181.341 899.66 180.721 899.66 180.102C899.697 179.482 899.715 178.826 899.715 178.133ZM907.645 177.641V177.203C907.645 176.839 907.772 176.583 908.027 176.438C908.319 176.292 908.647 176.219 909.012 176.219C909.303 176.219 909.577 176.255 909.832 176.328C910.087 176.365 910.288 176.565 910.434 176.93C910.543 177.477 910.652 178.242 910.762 179.227C910.871 180.174 910.999 181.232 911.145 182.398C911.29 183.565 911.436 184.805 911.582 186.117C911.764 187.393 911.928 188.615 912.074 189.781C912.257 190.911 912.439 191.932 912.621 192.844C912.803 193.755 913.004 194.448 913.223 194.922C913.113 191.422 913.223 188.396 913.551 185.844C913.879 183.255 914.499 181.159 915.41 179.555C916.358 177.914 917.634 176.784 919.238 176.164C920.879 175.508 922.921 175.362 925.363 175.727C926.493 175.727 927.059 176.328 927.059 177.531C927.059 178.005 926.749 178.333 926.129 178.516C925.509 178.661 924.816 178.771 924.051 178.844C923.285 178.88 922.538 178.935 921.809 179.008C921.079 179.081 920.551 179.263 920.223 179.555C918.91 180.284 917.98 181.414 917.434 182.945C916.923 184.477 916.559 186.281 916.34 188.359C916.121 190.438 915.957 192.716 915.848 195.195C915.775 197.638 915.538 200.154 915.137 202.742C915.137 203.107 914.991 203.38 914.699 203.562C914.408 203.745 914.043 203.836 913.605 203.836C913.204 203.836 912.803 203.745 912.402 203.562C912.038 203.38 911.746 203.107 911.527 202.742L907.645 177.641ZM945.379 202.578C945.197 201.63 945.033 200.5 944.887 199.188C944.777 197.839 944.65 196.49 944.504 195.141C944.358 193.755 944.176 192.461 943.957 191.258C943.775 190.055 943.483 189.07 943.082 188.305C941.223 192.096 939.582 195.086 938.16 197.273C936.738 199.424 935.48 200.974 934.387 201.922C933.329 202.833 932.436 203.271 931.707 203.234C930.978 203.198 930.376 202.87 929.902 202.25C929.428 201.63 929.082 200.846 928.863 199.898C928.681 198.914 928.553 198.003 928.48 197.164C928.48 196.362 928.663 195.232 929.027 193.773C929.392 192.315 929.884 190.729 930.504 189.016C931.124 187.266 931.853 185.497 932.691 183.711C933.566 181.924 934.496 180.302 935.48 178.844C936.465 177.385 937.486 176.182 938.543 175.234C939.6 174.286 940.658 173.812 941.715 173.812C943.283 173.557 944.431 173.904 945.16 174.852C945.926 175.763 946.072 177.312 945.598 179.5C945.598 181.906 945.689 183.966 945.871 185.68C946.09 187.393 946.309 189.034 946.527 190.602C946.783 192.169 947.001 193.81 947.184 195.523C947.402 197.237 947.512 199.297 947.512 201.703C947.512 202.141 947.457 202.523 947.348 202.852C947.275 203.143 946.837 203.289 946.035 203.289C945.926 203.289 945.78 203.198 945.598 203.016C945.452 202.833 945.379 202.688 945.379 202.578ZM942.426 178.133C942.025 177.549 941.478 177.495 940.785 177.969C940.092 178.443 939.363 179.227 938.598 180.32C937.832 181.414 937.048 182.727 936.246 184.258C935.444 185.789 934.697 187.339 934.004 188.906C933.311 190.474 932.71 191.969 932.199 193.391C931.689 194.776 931.342 195.924 931.16 196.836C931.16 198.148 931.361 198.896 931.762 199.078C932.163 199.224 932.655 199.005 933.238 198.422C933.822 197.839 934.478 197 935.207 195.906C935.973 194.812 936.702 193.646 937.395 192.406C938.124 191.167 938.798 189.964 939.418 188.797C940.074 187.63 940.585 186.682 940.949 185.953C941.277 185.188 941.533 184.477 941.715 183.82C941.897 183.164 942.043 182.544 942.152 181.961C942.298 181.341 942.371 180.721 942.371 180.102C942.408 179.482 942.426 178.826 942.426 178.133ZM952.652 203.289C952.251 198.367 951.887 193.445 951.559 188.523C951.267 183.565 950.939 178.424 950.574 173.102C950.574 172.227 951.048 171.789 951.996 171.789H952.434C952.543 171.789 952.671 171.935 952.816 172.227C952.962 172.518 953.108 173.065 953.254 173.867C953.436 174.633 953.618 175.818 953.801 177.422C954.02 178.99 954.275 181.049 954.566 183.602C954.858 186.154 955.186 189.344 955.551 193.172C956.316 190.693 956.918 188.286 957.355 185.953C957.793 183.62 958.358 181.505 959.051 179.609C959.743 177.677 960.71 175.982 961.949 174.523C963.225 173.065 965.048 171.99 967.418 171.297C968.73 171.516 969.788 172.318 970.59 173.703C971.392 175.052 972.03 176.729 972.504 178.734C972.978 180.74 973.306 182.927 973.488 185.297C973.671 187.63 973.78 189.872 973.816 192.023C973.853 194.174 973.871 196.107 973.871 197.82C973.871 199.497 973.908 200.701 973.98 201.43C973.871 201.721 973.707 201.977 973.488 202.195C973.27 202.414 973.014 202.578 972.723 202.688C972.467 202.76 972.212 202.779 971.957 202.742C971.702 202.669 971.465 202.469 971.246 202.141C971.246 201.74 971.21 200.919 971.137 199.68C971.064 198.44 970.973 197 970.863 195.359C970.754 193.682 970.626 191.914 970.48 190.055C970.371 188.159 970.262 186.391 970.152 184.75C970.079 183.073 970.007 181.615 969.934 180.375C969.861 179.135 969.806 178.315 969.77 177.914C969.004 176.565 968.238 175.799 967.473 175.617C966.743 175.435 965.996 175.672 965.23 176.328C964.501 176.984 963.79 177.987 963.098 179.336C962.405 180.685 961.749 182.216 961.129 183.93C960.509 185.607 959.926 187.375 959.379 189.234C958.832 191.094 958.358 192.898 957.957 194.648C957.556 196.362 957.21 197.93 956.918 199.352C956.663 200.737 956.499 201.812 956.426 202.578C956.316 202.833 956.079 203.089 955.715 203.344C955.387 203.562 955.022 203.727 954.621 203.836C954.257 203.945 953.874 203.982 953.473 203.945C953.108 203.872 952.835 203.654 952.652 203.289ZM978.902 180.648C978.538 180.831 978.191 181.031 977.863 181.25C977.572 181.432 977.28 181.615 976.988 181.797C976.697 181.943 976.405 182.052 976.113 182.125C975.822 182.198 975.512 182.198 975.184 182.125C974.965 182.125 974.783 181.997 974.637 181.742C974.491 181.451 974.382 181.141 974.309 180.812C974.199 180.448 974.126 180.102 974.09 179.773C974.053 179.409 974.053 179.135 974.09 178.953L979.34 175.945L979.668 161.945C979.741 161.471 980.033 161.289 980.543 161.398C981.053 161.471 981.582 161.581 982.129 161.727C982.202 161.727 982.311 161.763 982.457 161.836C982.639 161.872 982.767 161.909 982.84 161.945C982.767 162.93 982.676 164.005 982.566 165.172C982.493 166.302 982.421 167.451 982.348 168.617C982.275 169.747 982.22 170.859 982.184 171.953C982.184 173.047 982.238 174.031 982.348 174.906L990.551 172.609C990.697 172.573 990.806 172.682 990.879 172.938C990.988 173.156 991.079 173.43 991.152 173.758C991.262 174.086 991.335 174.414 991.371 174.742C991.408 175.07 991.426 175.234 991.426 175.234L982.129 179.172C982.129 179.5 982.147 180.284 982.184 181.523C982.257 182.763 982.329 184.24 982.402 185.953C982.475 187.63 982.548 189.453 982.621 191.422C982.694 193.354 982.767 195.159 982.84 196.836C982.913 198.513 982.967 199.99 983.004 201.266C983.04 202.505 983.059 203.289 983.059 203.617C982.986 204.711 982.658 205.258 982.074 205.258C981.527 205.258 980.926 204.984 980.27 204.438L978.902 180.648ZM994.051 192.188C993.868 192.224 993.595 192.279 993.23 192.352C992.866 192.424 992.483 192.443 992.082 192.406C991.681 192.37 991.335 192.26 991.043 192.078C990.715 191.896 990.551 191.586 990.551 191.148C990.551 190.893 990.605 190.711 990.715 190.602C990.824 190.492 991.007 190.328 991.262 190.109C992.064 189.453 992.738 188.615 993.285 187.594C993.868 186.536 994.397 185.424 994.871 184.258C995.345 183.055 995.837 181.87 996.348 180.703C996.895 179.5 997.514 178.424 998.207 177.477C998.9 176.529 999.757 175.763 1000.78 175.18C1001.8 174.596 1003.06 174.323 1004.55 174.359C1005.17 174.359 1005.86 174.505 1006.63 174.797C1007.39 175.089 1008.11 175.49 1008.76 176C1009.42 176.474 1009.96 177.057 1010.4 177.75C1010.84 178.443 1011.06 179.208 1011.06 180.047C1011.24 180.339 1011.06 180.758 1010.51 181.305C1010 181.852 1009.29 182.453 1008.38 183.109C1007.47 183.729 1006.43 184.385 1005.26 185.078C1004.13 185.734 1003.04 186.354 1001.98 186.938C1000.92 187.521 999.993 188.031 999.191 188.469C998.389 188.906 997.861 189.234 997.605 189.453C997.423 189.818 997.277 190.237 997.168 190.711C997.059 191.185 996.967 191.641 996.895 192.078C996.858 192.479 996.822 192.862 996.785 193.227C996.785 193.555 996.785 193.81 996.785 193.992C996.785 194.685 996.749 195.451 996.676 196.289C996.639 197.128 996.676 197.93 996.785 198.695C996.931 199.424 997.241 200.044 997.715 200.555C998.189 201.029 998.991 201.266 1000.12 201.266C1001.32 201.266 1002.45 200.974 1003.51 200.391C1004.57 199.771 1005.55 199.023 1006.46 198.148C1007.38 197.273 1008.2 196.326 1008.93 195.305C1009.69 194.284 1010.37 193.336 1010.95 192.461C1011.57 191.549 1012.12 190.802 1012.59 190.219C1013.06 189.635 1013.46 189.344 1013.79 189.344C1014.16 189.344 1014.54 189.417 1014.94 189.562C1015.38 189.672 1015.6 189.964 1015.6 190.438C1015.6 191.094 1015.32 191.878 1014.78 192.789C1014.27 193.701 1013.57 194.667 1012.7 195.688C1011.86 196.708 1010.88 197.729 1009.75 198.75C1008.65 199.734 1007.54 200.628 1006.41 201.43C1005.28 202.195 1004.17 202.833 1003.07 203.344C1001.98 203.818 1001.01 204.055 1000.18 204.055C998.535 204.055 997.296 203.654 996.457 202.852C995.618 202.049 995.017 201.047 994.652 199.844C994.324 198.641 994.142 197.365 994.105 196.016C994.105 194.63 994.087 193.354 994.051 192.188ZM1004.11 177.422C1003.49 177.422 1002.84 177.732 1002.14 178.352C1001.45 178.935 1000.8 179.664 1000.18 180.539C999.592 181.378 999.1 182.253 998.699 183.164C998.335 184.039 998.152 184.768 998.152 185.352C998.699 185.352 999.483 185.151 1000.5 184.75C1001.56 184.312 1002.6 183.784 1003.62 183.164C1004.64 182.544 1005.54 181.888 1006.3 181.195C1007.07 180.503 1007.45 179.846 1007.45 179.227C1007.45 178.898 1007.32 178.625 1007.07 178.406C1006.81 178.188 1006.5 178.005 1006.14 177.859C1005.81 177.714 1005.46 177.604 1005.1 177.531C1004.73 177.458 1004.4 177.422 1004.11 177.422ZM1019.92 192.188C1019.74 192.224 1019.46 192.279 1019.1 192.352C1018.73 192.424 1018.35 192.443 1017.95 192.406C1017.55 192.37 1017.2 192.26 1016.91 192.078C1016.58 191.896 1016.42 191.586 1016.42 191.148C1016.42 190.893 1016.47 190.711 1016.58 190.602C1016.69 190.492 1016.87 190.328 1017.13 190.109C1017.93 189.453 1018.61 188.615 1019.15 187.594C1019.74 186.536 1020.26 185.424 1020.74 184.258C1021.21 183.055 1021.7 181.87 1022.21 180.703C1022.76 179.5 1023.38 178.424 1024.07 177.477C1024.77 176.529 1025.62 175.763 1026.64 175.18C1027.67 174.596 1028.92 174.323 1030.42 174.359C1031.04 174.359 1031.73 174.505 1032.5 174.797C1033.26 175.089 1033.97 175.49 1034.63 176C1035.29 176.474 1035.83 177.057 1036.27 177.75C1036.71 178.443 1036.93 179.208 1036.93 180.047C1037.11 180.339 1036.93 180.758 1036.38 181.305C1035.87 181.852 1035.16 182.453 1034.25 183.109C1033.33 183.729 1032.3 184.385 1031.13 185.078C1030 185.734 1028.9 186.354 1027.85 186.938C1026.79 187.521 1025.86 188.031 1025.06 188.469C1024.26 188.906 1023.73 189.234 1023.47 189.453C1023.29 189.818 1023.14 190.237 1023.04 190.711C1022.93 191.185 1022.83 191.641 1022.76 192.078C1022.73 192.479 1022.69 192.862 1022.65 193.227C1022.65 193.555 1022.65 193.81 1022.65 193.992C1022.65 194.685 1022.62 195.451 1022.54 196.289C1022.51 197.128 1022.54 197.93 1022.65 198.695C1022.8 199.424 1023.11 200.044 1023.58 200.555C1024.06 201.029 1024.86 201.266 1025.99 201.266C1027.19 201.266 1028.32 200.974 1029.38 200.391C1030.44 199.771 1031.42 199.023 1032.33 198.148C1033.24 197.273 1034.06 196.326 1034.79 195.305C1035.56 194.284 1036.23 193.336 1036.82 192.461C1037.44 191.549 1037.98 190.802 1038.46 190.219C1038.93 189.635 1039.33 189.344 1039.66 189.344C1040.02 189.344 1040.41 189.417 1040.81 189.562C1041.25 189.672 1041.46 189.964 1041.46 190.438C1041.46 191.094 1041.19 191.878 1040.64 192.789C1040.13 193.701 1039.44 194.667 1038.57 195.688C1037.73 196.708 1036.74 197.729 1035.61 198.75C1034.52 199.734 1033.41 200.628 1032.28 201.43C1031.15 202.195 1030.04 202.833 1028.94 203.344C1027.85 203.818 1026.88 204.055 1026.04 204.055C1024.4 204.055 1023.16 203.654 1022.32 202.852C1021.49 202.049 1020.88 201.047 1020.52 199.844C1020.19 198.641 1020.01 197.365 1019.97 196.016C1019.97 194.63 1019.95 193.354 1019.92 192.188ZM1029.98 177.422C1029.36 177.422 1028.7 177.732 1028.01 178.352C1027.32 178.935 1026.66 179.664 1026.04 180.539C1025.46 181.378 1024.97 182.253 1024.57 183.164C1024.2 184.039 1024.02 184.768 1024.02 185.352C1024.57 185.352 1025.35 185.151 1026.37 184.75C1027.43 184.312 1028.47 183.784 1029.49 183.164C1030.51 182.544 1031.4 181.888 1032.17 181.195C1032.93 180.503 1033.32 179.846 1033.32 179.227C1033.32 178.898 1033.19 178.625 1032.93 178.406C1032.68 178.188 1032.37 178.005 1032 177.859C1031.68 177.714 1031.33 177.604 1030.96 177.531C1030.6 177.458 1030.27 177.422 1029.98 177.422ZM1056.18 193.992C1055.81 194.831 1055.34 195.797 1054.75 196.891C1054.21 197.984 1053.55 199.023 1052.79 200.008C1052.06 200.992 1051.2 201.831 1050.21 202.523C1049.23 203.216 1048.14 203.562 1046.93 203.562C1046.39 203.562 1045.95 203.508 1045.62 203.398C1045.33 203.253 1045.06 203.052 1044.8 202.797C1044.58 202.542 1044.36 202.232 1044.14 201.867C1043.96 201.503 1043.73 201.102 1043.43 200.664C1043.32 198.878 1043.25 196.964 1043.21 194.922C1043.21 192.844 1043.32 190.784 1043.54 188.742C1043.76 186.664 1044.13 184.714 1044.64 182.891C1045.18 181.068 1045.93 179.518 1046.88 178.242C1047.86 176.966 1049.08 176.055 1050.54 175.508C1052 174.961 1053.77 174.924 1055.85 175.398C1055.96 174.378 1055.98 173.01 1055.9 171.297C1055.83 169.583 1055.72 167.779 1055.57 165.883C1055.43 163.987 1055.28 162.164 1055.14 160.414C1054.99 158.628 1054.9 157.169 1054.86 156.039C1054.86 155.711 1055.01 155.474 1055.3 155.328C1055.63 155.146 1055.98 155.036 1056.34 155C1056.7 154.964 1057.05 154.964 1057.38 155C1057.74 155.036 1057.98 155.091 1058.09 155.164C1058.02 159.648 1058 164.06 1058.04 168.398C1058.07 172.701 1058.11 177.003 1058.14 181.305C1058.22 185.57 1058.29 189.818 1058.36 194.047C1058.44 198.276 1058.47 202.505 1058.47 206.734C1058.47 207.135 1058.44 207.555 1058.36 207.992C1058.33 208.466 1058.02 208.703 1057.43 208.703C1057.21 208.703 1057 208.63 1056.78 208.484C1056.56 208.375 1056.41 208.193 1056.34 207.938L1056.18 193.992ZM1053.82 178.133C1052.69 178.06 1051.64 178.516 1050.65 179.5C1049.7 180.448 1048.87 181.688 1048.14 183.219C1047.44 184.75 1046.88 186.445 1046.44 188.305C1046 190.128 1045.73 191.896 1045.62 193.609C1045.55 195.286 1045.66 196.781 1045.95 198.094C1046.28 199.406 1046.84 200.299 1047.64 200.773C1048.45 200.773 1049.19 200.464 1049.89 199.844C1050.58 199.188 1051.22 198.367 1051.8 197.383C1052.38 196.398 1052.89 195.305 1053.33 194.102C1053.77 192.862 1054.13 191.677 1054.43 190.547C1054.75 189.417 1054.99 188.396 1055.14 187.484C1055.32 186.536 1055.41 185.826 1055.41 185.352C1055.41 184.987 1055.43 184.404 1055.46 183.602C1055.5 182.799 1055.48 181.997 1055.41 181.195C1055.34 180.393 1055.17 179.682 1054.92 179.062C1054.7 178.443 1054.33 178.133 1053.82 178.133ZM853.586 267.641V267.203C853.586 266.839 853.714 266.583 853.969 266.438C854.26 266.292 854.589 266.219 854.953 266.219C855.245 266.219 855.518 266.255 855.773 266.328C856.029 266.365 856.229 266.565 856.375 266.93C856.484 267.477 856.594 268.242 856.703 269.227C856.812 270.174 856.94 271.232 857.086 272.398C857.232 273.565 857.378 274.805 857.523 276.117C857.706 277.393 857.87 278.615 858.016 279.781C858.198 280.911 858.38 281.932 858.562 282.844C858.745 283.755 858.945 284.448 859.164 284.922C859.055 281.422 859.164 278.396 859.492 275.844C859.82 273.255 860.44 271.159 861.352 269.555C862.299 267.914 863.576 266.784 865.18 266.164C866.82 265.508 868.862 265.362 871.305 265.727C872.435 265.727 873 266.328 873 267.531C873 268.005 872.69 268.333 872.07 268.516C871.451 268.661 870.758 268.771 869.992 268.844C869.227 268.88 868.479 268.935 867.75 269.008C867.021 269.081 866.492 269.263 866.164 269.555C864.852 270.284 863.922 271.414 863.375 272.945C862.865 274.477 862.5 276.281 862.281 278.359C862.062 280.438 861.898 282.716 861.789 285.195C861.716 287.638 861.479 290.154 861.078 292.742C861.078 293.107 860.932 293.38 860.641 293.562C860.349 293.745 859.984 293.836 859.547 293.836C859.146 293.836 858.745 293.745 858.344 293.562C857.979 293.38 857.688 293.107 857.469 292.742L853.586 267.641ZM877.375 282.188C877.193 282.224 876.919 282.279 876.555 282.352C876.19 282.424 875.807 282.443 875.406 282.406C875.005 282.37 874.659 282.26 874.367 282.078C874.039 281.896 873.875 281.586 873.875 281.148C873.875 280.893 873.93 280.711 874.039 280.602C874.148 280.492 874.331 280.328 874.586 280.109C875.388 279.453 876.062 278.615 876.609 277.594C877.193 276.536 877.721 275.424 878.195 274.258C878.669 273.055 879.161 271.87 879.672 270.703C880.219 269.5 880.839 268.424 881.531 267.477C882.224 266.529 883.081 265.763 884.102 265.18C885.122 264.596 886.38 264.323 887.875 264.359C888.495 264.359 889.188 264.505 889.953 264.797C890.719 265.089 891.43 265.49 892.086 266C892.742 266.474 893.289 267.057 893.727 267.75C894.164 268.443 894.383 269.208 894.383 270.047C894.565 270.339 894.383 270.758 893.836 271.305C893.326 271.852 892.615 272.453 891.703 273.109C890.792 273.729 889.753 274.385 888.586 275.078C887.456 275.734 886.362 276.354 885.305 276.938C884.247 277.521 883.318 278.031 882.516 278.469C881.714 278.906 881.185 279.234 880.93 279.453C880.747 279.818 880.602 280.237 880.492 280.711C880.383 281.185 880.292 281.641 880.219 282.078C880.182 282.479 880.146 282.862 880.109 283.227C880.109 283.555 880.109 283.81 880.109 283.992C880.109 284.685 880.073 285.451 880 286.289C879.964 287.128 880 287.93 880.109 288.695C880.255 289.424 880.565 290.044 881.039 290.555C881.513 291.029 882.315 291.266 883.445 291.266C884.648 291.266 885.779 290.974 886.836 290.391C887.893 289.771 888.878 289.023 889.789 288.148C890.701 287.273 891.521 286.326 892.25 285.305C893.016 284.284 893.69 283.336 894.273 282.461C894.893 281.549 895.44 280.802 895.914 280.219C896.388 279.635 896.789 279.344 897.117 279.344C897.482 279.344 897.865 279.417 898.266 279.562C898.703 279.672 898.922 279.964 898.922 280.438C898.922 281.094 898.648 281.878 898.102 282.789C897.591 283.701 896.898 284.667 896.023 285.688C895.185 286.708 894.201 287.729 893.07 288.75C891.977 289.734 890.865 290.628 889.734 291.43C888.604 292.195 887.492 292.833 886.398 293.344C885.305 293.818 884.339 294.055 883.5 294.055C881.859 294.055 880.62 293.654 879.781 292.852C878.943 292.049 878.341 291.047 877.977 289.844C877.648 288.641 877.466 287.365 877.43 286.016C877.43 284.63 877.411 283.354 877.375 282.188ZM887.438 267.422C886.818 267.422 886.161 267.732 885.469 268.352C884.776 268.935 884.12 269.664 883.5 270.539C882.917 271.378 882.424 272.253 882.023 273.164C881.659 274.039 881.477 274.768 881.477 275.352C882.023 275.352 882.807 275.151 883.828 274.75C884.885 274.312 885.924 273.784 886.945 273.164C887.966 272.544 888.859 271.888 889.625 271.195C890.391 270.503 890.773 269.846 890.773 269.227C890.773 268.898 890.646 268.625 890.391 268.406C890.135 268.188 889.826 268.005 889.461 267.859C889.133 267.714 888.786 267.604 888.422 267.531C888.057 267.458 887.729 267.422 887.438 267.422ZM905.977 293.18C905.977 293.216 906.359 292.997 907.125 292.523C907.927 292.049 908.857 291.43 909.914 290.664C911.008 289.862 912.12 289.005 913.25 288.094C914.38 287.146 915.31 286.253 916.039 285.414C916.768 284.576 917.151 283.865 917.188 283.281C917.26 282.661 916.768 282.26 915.711 282.078C914.398 281.896 913.286 281.914 912.375 282.133C911.5 282.352 910.698 282.607 909.969 282.898C909.24 283.19 908.547 283.464 907.891 283.719C907.271 283.974 906.578 284.065 905.812 283.992C904.208 283.992 903.096 283.5 902.477 282.516C901.893 281.495 901.602 280.128 901.602 278.414C901.602 276.701 901.984 275.078 902.75 273.547C903.516 271.979 904.5 270.63 905.703 269.5C906.906 268.37 908.292 267.477 909.859 266.82C911.427 266.128 913.031 265.781 914.672 265.781C915.328 265.781 915.893 265.836 916.367 265.945C916.841 266.055 917.078 266.474 917.078 267.203C917.078 267.714 916.859 268.206 916.422 268.68C915.984 269.117 915.492 269.336 914.945 269.336C914.909 269.336 914.818 269.318 914.672 269.281C914.526 269.208 914.38 269.117 914.234 269.008C914.089 268.898 913.943 268.826 913.797 268.789C913.651 268.716 913.56 268.68 913.523 268.68C912.357 268.352 911.227 268.516 910.133 269.172C909.039 269.828 908.055 270.721 907.18 271.852C906.341 272.945 905.667 274.148 905.156 275.461C904.646 276.737 904.391 277.885 904.391 278.906C904.391 279.307 904.464 279.635 904.609 279.891C904.792 280.109 905.01 280.273 905.266 280.383C905.557 280.492 905.867 280.565 906.195 280.602C906.56 280.602 906.924 280.602 907.289 280.602C908.018 280.602 908.747 280.492 909.477 280.273C910.242 280.055 910.971 279.799 911.664 279.508C912.393 279.216 913.122 278.961 913.852 278.742C914.617 278.523 915.401 278.414 916.203 278.414C916.568 278.414 916.969 278.523 917.406 278.742C917.844 278.924 918.245 279.216 918.609 279.617C918.974 279.982 919.284 280.419 919.539 280.93C919.794 281.404 919.94 281.932 919.977 282.516C920.195 283.026 920.122 283.701 919.758 284.539C919.43 285.378 918.919 286.271 918.227 287.219C917.534 288.167 916.695 289.133 915.711 290.117C914.727 291.065 913.742 291.94 912.758 292.742C911.773 293.508 910.807 294.128 909.859 294.602C908.911 295.112 908.109 295.349 907.453 295.312C906.724 295.312 906.286 295.094 906.141 294.656C906.031 294.219 905.977 293.727 905.977 293.18ZM922.109 286.508C921.854 284.831 921.727 283.208 921.727 281.641C921.727 280.036 921.818 278.414 922 276.773C922.219 275.133 922.51 273.438 922.875 271.688C923.276 269.901 923.732 267.987 924.242 265.945C924.242 265.544 924.352 265.18 924.57 264.852C924.789 264.487 925.081 264.195 925.445 263.977C925.81 263.721 926.193 263.521 926.594 263.375C926.995 263.229 927.378 263.156 927.742 263.156C928.544 263.156 929.273 263.411 929.93 263.922C930.586 264.432 931.169 265.052 931.68 265.781C932.227 266.51 932.682 267.294 933.047 268.133C933.448 268.935 933.776 269.628 934.031 270.211C934.323 271.487 934.523 272.945 934.633 274.586C934.779 276.19 934.797 277.831 934.688 279.508C934.578 281.185 934.323 282.844 933.922 284.484C933.521 286.089 932.956 287.565 932.227 288.914C931.497 290.263 930.549 291.393 929.383 292.305C928.253 293.216 926.904 293.781 925.336 294C924.497 294 923.859 293.727 923.422 293.18C922.984 292.596 922.656 291.904 922.438 291.102C922.255 290.263 922.146 289.424 922.109 288.586C922.109 287.747 922.109 287.055 922.109 286.508ZM924.898 286.344C924.898 286.708 924.898 287.055 924.898 287.383C924.935 287.711 924.971 288.039 925.008 288.367C925.081 288.659 925.154 288.987 925.227 289.352C925.336 289.68 925.464 290.062 925.609 290.5H925.938C926.812 290.5 927.56 290.208 928.18 289.625C928.799 289.042 929.328 288.294 929.766 287.383C930.203 286.435 930.568 285.396 930.859 284.266C931.151 283.099 931.37 281.969 931.516 280.875C931.698 279.745 931.807 278.706 931.844 277.758C931.917 276.773 931.953 275.99 931.953 275.406V274.312C931.953 273.839 931.935 273.31 931.898 272.727C931.862 272.107 931.789 271.487 931.68 270.867C931.607 270.211 931.479 269.628 931.297 269.117C931.115 268.57 930.878 268.133 930.586 267.805C930.294 267.477 929.911 267.312 929.438 267.312C928.635 267.057 927.943 267.112 927.359 267.477C926.812 267.841 926.357 268.461 925.992 269.336C925.664 270.174 925.409 271.214 925.227 272.453C925.044 273.693 924.935 275.06 924.898 276.555C924.862 278.049 924.844 279.635 924.844 281.312C924.88 282.99 924.898 284.667 924.898 286.344ZM950.984 287.656C950.839 288.094 950.474 288.695 949.891 289.461C949.344 290.19 948.688 290.938 947.922 291.703C947.156 292.432 946.354 293.089 945.516 293.672C944.714 294.219 944.003 294.492 943.383 294.492C942.216 294.492 941.25 293.945 940.484 292.852C939.755 291.758 939.19 290.354 938.789 288.641C938.388 286.927 938.115 285.031 937.969 282.953C937.823 280.839 937.732 278.779 937.695 276.773C937.659 274.768 937.641 272.945 937.641 271.305C937.641 269.664 937.586 268.424 937.477 267.586C937.622 267.221 937.805 267.003 938.023 266.93C938.279 266.857 938.57 266.82 938.898 266.82C939.19 266.82 939.445 266.857 939.664 266.93C939.919 267.003 940.138 267.221 940.32 267.586C940.32 267.987 940.32 268.661 940.32 269.609C940.357 270.557 940.411 271.633 940.484 272.836C940.557 274.003 940.63 275.242 940.703 276.555C940.776 277.831 940.831 279.052 940.867 280.219C940.94 281.385 940.995 282.443 941.031 283.391C941.104 284.302 941.159 284.977 941.195 285.414C941.232 285.669 941.268 286.089 941.305 286.672C941.378 287.255 941.469 287.875 941.578 288.531C941.724 289.151 941.888 289.716 942.07 290.227C942.289 290.737 942.562 291.01 942.891 291.047C943.438 291.047 943.984 290.81 944.531 290.336C945.115 289.862 945.68 289.26 946.227 288.531C946.773 287.802 947.284 287 947.758 286.125C948.232 285.25 948.651 284.411 949.016 283.609C949.417 282.771 949.708 282.023 949.891 281.367C950.109 280.711 950.237 280.237 950.273 279.945C950.346 279.326 950.419 278.451 950.492 277.32C950.565 276.154 950.62 274.914 950.656 273.602C950.693 272.289 950.711 271.049 950.711 269.883C950.747 268.716 950.766 267.823 950.766 267.203L953.773 267.367C953.81 270.32 953.792 273 953.719 275.406C953.646 277.776 953.628 280.018 953.664 282.133C953.701 284.211 953.865 286.234 954.156 288.203C954.448 290.172 954.977 292.214 955.742 294.328C955.633 294.438 955.414 294.583 955.086 294.766C954.758 294.984 954.521 295.094 954.375 295.094C953.464 295.094 952.844 294.784 952.516 294.164C952.224 293.581 952.023 292.888 951.914 292.086C951.841 291.247 951.768 290.427 951.695 289.625C951.659 288.786 951.422 288.13 950.984 287.656ZM958.805 267.641V267.203C958.805 266.839 958.932 266.583 959.188 266.438C959.479 266.292 959.807 266.219 960.172 266.219C960.464 266.219 960.737 266.255 960.992 266.328C961.247 266.365 961.448 266.565 961.594 266.93C961.703 267.477 961.812 268.242 961.922 269.227C962.031 270.174 962.159 271.232 962.305 272.398C962.451 273.565 962.596 274.805 962.742 276.117C962.924 277.393 963.089 278.615 963.234 279.781C963.417 280.911 963.599 281.932 963.781 282.844C963.964 283.755 964.164 284.448 964.383 284.922C964.273 281.422 964.383 278.396 964.711 275.844C965.039 273.255 965.659 271.159 966.57 269.555C967.518 267.914 968.794 266.784 970.398 266.164C972.039 265.508 974.081 265.362 976.523 265.727C977.654 265.727 978.219 266.328 978.219 267.531C978.219 268.005 977.909 268.333 977.289 268.516C976.669 268.661 975.977 268.771 975.211 268.844C974.445 268.88 973.698 268.935 972.969 269.008C972.24 269.081 971.711 269.263 971.383 269.555C970.07 270.284 969.141 271.414 968.594 272.945C968.083 274.477 967.719 276.281 967.5 278.359C967.281 280.438 967.117 282.716 967.008 285.195C966.935 287.638 966.698 290.154 966.297 292.742C966.297 293.107 966.151 293.38 965.859 293.562C965.568 293.745 965.203 293.836 964.766 293.836C964.365 293.836 963.964 293.745 963.562 293.562C963.198 293.38 962.906 293.107 962.688 292.742L958.805 267.641ZM981.008 281.422C981.117 280.109 981.227 278.688 981.336 277.156C981.445 275.589 981.609 274.039 981.828 272.508C982.083 270.977 982.393 269.518 982.758 268.133C983.159 266.747 983.669 265.526 984.289 264.469C984.945 263.375 985.747 262.518 986.695 261.898C987.643 261.242 988.792 260.932 990.141 260.969C991.052 260.969 991.745 261.352 992.219 262.117C992.729 262.883 993.076 263.812 993.258 264.906C993.477 266 993.586 267.13 993.586 268.297C993.622 269.427 993.641 270.357 993.641 271.086C992.911 271.086 992.31 270.776 991.836 270.156C991.362 269.5 990.997 268.753 990.742 267.914C990.487 267.076 990.305 266.255 990.195 265.453L990.031 263.867C989.995 263.867 989.922 263.867 989.812 263.867C989.74 263.831 989.685 263.812 989.648 263.812C989.029 263.812 988.445 264.159 987.898 264.852C987.388 265.544 986.896 266.438 986.422 267.531C985.984 268.589 985.602 269.792 985.273 271.141C984.945 272.453 984.672 273.747 984.453 275.023C984.234 276.299 984.052 277.484 983.906 278.578C983.797 279.635 983.742 280.456 983.742 281.039C983.669 281.987 983.669 283.026 983.742 284.156C983.815 285.286 984.034 286.344 984.398 287.328C984.763 288.312 985.273 289.169 985.93 289.898C986.586 290.591 987.461 291.065 988.555 291.32C989.904 291.32 990.997 291.138 991.836 290.773C992.674 290.409 993.349 289.917 993.859 289.297C994.406 288.677 994.826 287.984 995.117 287.219C995.409 286.453 995.682 285.669 995.938 284.867C996.229 284.029 996.521 283.208 996.812 282.406C997.104 281.604 997.523 280.857 998.07 280.164C998.508 280.055 998.818 280.073 999 280.219C999.219 280.328 999.365 280.492 999.438 280.711C999.51 280.93 999.547 281.185 999.547 281.477V282.078C999.547 283.609 999.292 285.086 998.781 286.508C998.271 287.93 997.523 289.206 996.539 290.336C995.555 291.43 994.37 292.323 992.984 293.016C991.635 293.672 990.086 294 988.336 294C986.878 294 985.656 293.544 984.672 292.633C983.724 291.685 982.977 290.555 982.43 289.242C981.919 287.93 981.555 286.562 981.336 285.141C981.117 283.682 981.008 282.443 981.008 281.422ZM1004.47 282.188C1004.29 282.224 1004.01 282.279 1003.65 282.352C1003.28 282.424 1002.9 282.443 1002.5 282.406C1002.1 282.37 1001.75 282.26 1001.46 282.078C1001.13 281.896 1000.97 281.586 1000.97 281.148C1000.97 280.893 1001.02 280.711 1001.13 280.602C1001.24 280.492 1001.42 280.328 1001.68 280.109C1002.48 279.453 1003.16 278.615 1003.7 277.594C1004.29 276.536 1004.82 275.424 1005.29 274.258C1005.76 273.055 1006.26 271.87 1006.77 270.703C1007.31 269.5 1007.93 268.424 1008.62 267.477C1009.32 266.529 1010.17 265.763 1011.2 265.18C1012.22 264.596 1013.47 264.323 1014.97 264.359C1015.59 264.359 1016.28 264.505 1017.05 264.797C1017.81 265.089 1018.52 265.49 1019.18 266C1019.84 266.474 1020.38 267.057 1020.82 267.75C1021.26 268.443 1021.48 269.208 1021.48 270.047C1021.66 270.339 1021.48 270.758 1020.93 271.305C1020.42 271.852 1019.71 272.453 1018.8 273.109C1017.89 273.729 1016.85 274.385 1015.68 275.078C1014.55 275.734 1013.46 276.354 1012.4 276.938C1011.34 277.521 1010.41 278.031 1009.61 278.469C1008.81 278.906 1008.28 279.234 1008.02 279.453C1007.84 279.818 1007.7 280.237 1007.59 280.711C1007.48 281.185 1007.39 281.641 1007.31 282.078C1007.28 282.479 1007.24 282.862 1007.2 283.227C1007.2 283.555 1007.2 283.81 1007.2 283.992C1007.2 284.685 1007.17 285.451 1007.09 286.289C1007.06 287.128 1007.09 287.93 1007.2 288.695C1007.35 289.424 1007.66 290.044 1008.13 290.555C1008.61 291.029 1009.41 291.266 1010.54 291.266C1011.74 291.266 1012.87 290.974 1013.93 290.391C1014.99 289.771 1015.97 289.023 1016.88 288.148C1017.79 287.273 1018.61 286.326 1019.34 285.305C1020.11 284.284 1020.78 283.336 1021.37 282.461C1021.99 281.549 1022.53 280.802 1023.01 280.219C1023.48 279.635 1023.88 279.344 1024.21 279.344C1024.58 279.344 1024.96 279.417 1025.36 279.562C1025.8 279.672 1026.02 279.964 1026.02 280.438C1026.02 281.094 1025.74 281.878 1025.2 282.789C1024.68 283.701 1023.99 284.667 1023.12 285.688C1022.28 286.708 1021.29 287.729 1020.16 288.75C1019.07 289.734 1017.96 290.628 1016.83 291.43C1015.7 292.195 1014.59 292.833 1013.49 293.344C1012.4 293.818 1011.43 294.055 1010.59 294.055C1008.95 294.055 1007.71 293.654 1006.88 292.852C1006.04 292.049 1005.43 291.047 1005.07 289.844C1004.74 288.641 1004.56 287.365 1004.52 286.016C1004.52 284.63 1004.51 283.354 1004.47 282.188ZM1014.53 267.422C1013.91 267.422 1013.26 267.732 1012.56 268.352C1011.87 268.935 1011.21 269.664 1010.59 270.539C1010.01 271.378 1009.52 272.253 1009.12 273.164C1008.75 274.039 1008.57 274.768 1008.57 275.352C1009.12 275.352 1009.9 275.151 1010.92 274.75C1011.98 274.312 1013.02 273.784 1014.04 273.164C1015.06 272.544 1015.95 271.888 1016.72 271.195C1017.48 270.503 1017.87 269.846 1017.87 269.227C1017.87 268.898 1017.74 268.625 1017.48 268.406C1017.23 268.188 1016.92 268.005 1016.55 267.859C1016.23 267.714 1015.88 267.604 1015.52 267.531C1015.15 267.458 1014.82 267.422 1014.53 267.422ZM1033.07 293.18C1033.07 293.216 1033.45 292.997 1034.22 292.523C1035.02 292.049 1035.95 291.43 1037.01 290.664C1038.1 289.862 1039.21 289.005 1040.34 288.094C1041.47 287.146 1042.4 286.253 1043.13 285.414C1043.86 284.576 1044.24 283.865 1044.28 283.281C1044.35 282.661 1043.86 282.26 1042.8 282.078C1041.49 281.896 1040.38 281.914 1039.47 282.133C1038.59 282.352 1037.79 282.607 1037.06 282.898C1036.33 283.19 1035.64 283.464 1034.98 283.719C1034.36 283.974 1033.67 284.065 1032.91 283.992C1031.3 283.992 1030.19 283.5 1029.57 282.516C1028.99 281.495 1028.7 280.128 1028.7 278.414C1028.7 276.701 1029.08 275.078 1029.84 273.547C1030.61 271.979 1031.59 270.63 1032.8 269.5C1034 268.37 1035.39 267.477 1036.95 266.82C1038.52 266.128 1040.12 265.781 1041.77 265.781C1042.42 265.781 1042.99 265.836 1043.46 265.945C1043.93 266.055 1044.17 266.474 1044.17 267.203C1044.17 267.714 1043.95 268.206 1043.52 268.68C1043.08 269.117 1042.59 269.336 1042.04 269.336C1042 269.336 1041.91 269.318 1041.77 269.281C1041.62 269.208 1041.47 269.117 1041.33 269.008C1041.18 268.898 1041.04 268.826 1040.89 268.789C1040.74 268.716 1040.65 268.68 1040.62 268.68C1039.45 268.352 1038.32 268.516 1037.23 269.172C1036.13 269.828 1035.15 270.721 1034.27 271.852C1033.43 272.945 1032.76 274.148 1032.25 275.461C1031.74 276.737 1031.48 277.885 1031.48 278.906C1031.48 279.307 1031.56 279.635 1031.7 279.891C1031.89 280.109 1032.1 280.273 1032.36 280.383C1032.65 280.492 1032.96 280.565 1033.29 280.602C1033.65 280.602 1034.02 280.602 1034.38 280.602C1035.11 280.602 1035.84 280.492 1036.57 280.273C1037.34 280.055 1038.07 279.799 1038.76 279.508C1039.49 279.216 1040.22 278.961 1040.95 278.742C1041.71 278.523 1042.49 278.414 1043.3 278.414C1043.66 278.414 1044.06 278.523 1044.5 278.742C1044.94 278.924 1045.34 279.216 1045.7 279.617C1046.07 279.982 1046.38 280.419 1046.63 280.93C1046.89 281.404 1047.03 281.932 1047.07 282.516C1047.29 283.026 1047.22 283.701 1046.85 284.539C1046.52 285.378 1046.01 286.271 1045.32 287.219C1044.63 288.167 1043.79 289.133 1042.8 290.117C1041.82 291.065 1040.84 291.94 1039.85 292.742C1038.87 293.508 1037.9 294.128 1036.95 294.602C1036.01 295.112 1035.2 295.349 1034.55 295.312C1033.82 295.312 1033.38 295.094 1033.23 294.656C1033.12 294.219 1033.07 293.727 1033.07 293.18Z" fill="black"/>
<path d="M612.927 302.995C612.348 303.588 612.359 304.537 612.952 305.117L622.606 314.553C623.198 315.132 624.148 315.121 624.727 314.529C625.306 313.936 625.295 312.987 624.703 312.407L616.121 304.02L624.509 295.438C625.088 294.846 625.077 293.896 624.485 293.317C623.892 292.738 622.943 292.749 622.364 293.341L612.927 302.995ZM987.368 431.385C976.94 408.165 956.63 388.448 930.11 371.961C903.581 355.466 870.733 342.138 835.054 331.737C763.699 310.935 680.812 301.781 613.983 302.544L614.017 305.544C680.595 304.784 763.183 313.909 834.215 334.617C869.729 344.97 902.302 358.204 928.526 374.508C954.76 390.819 974.536 410.136 984.632 432.615L987.368 431.385Z" fill="black"/>
<path d="M655.1 252.8C654.437 253.297 654.303 254.237 654.8 254.9L662.9 265.7C663.397 266.363 664.337 266.497 665 266C665.663 265.503 665.797 264.563 665.3 263.9L658.1 254.3L667.7 247.1C668.363 246.603 668.497 245.663 668 245C667.503 244.337 666.563 244.203 665.9 244.7L655.1 252.8ZM824.527 202.595C812.069 197.924 799.548 199.522 786.824 204.218C774.14 208.899 761.072 216.732 747.491 224.706C720.18 240.742 690.62 257.431 656.212 252.515L655.788 255.485C691.38 260.569 721.82 243.258 749.009 227.294C762.678 219.268 775.485 211.601 787.863 207.032C800.202 202.478 811.931 201.076 823.473 205.404L824.527 202.595Z" fill="black"/>
<path d="M878.395 657.641V657.203C878.395 656.839 878.522 656.583 878.777 656.438C879.069 656.292 879.397 656.219 879.762 656.219C880.053 656.219 880.327 656.255 880.582 656.328C880.837 656.365 881.038 656.565 881.184 656.93C881.293 657.477 881.402 658.242 881.512 659.227C881.621 660.174 881.749 661.232 881.895 662.398C882.04 663.565 882.186 664.805 882.332 666.117C882.514 667.393 882.678 668.615 882.824 669.781C883.007 670.911 883.189 671.932 883.371 672.844C883.553 673.755 883.754 674.448 883.973 674.922C883.863 671.422 883.973 668.396 884.301 665.844C884.629 663.255 885.249 661.159 886.16 659.555C887.108 657.914 888.384 656.784 889.988 656.164C891.629 655.508 893.671 655.362 896.113 655.727C897.243 655.727 897.809 656.328 897.809 657.531C897.809 658.005 897.499 658.333 896.879 658.516C896.259 658.661 895.566 658.771 894.801 658.844C894.035 658.88 893.288 658.935 892.559 659.008C891.829 659.081 891.301 659.263 890.973 659.555C889.66 660.284 888.73 661.414 888.184 662.945C887.673 664.477 887.309 666.281 887.09 668.359C886.871 670.438 886.707 672.716 886.598 675.195C886.525 677.638 886.288 680.154 885.887 682.742C885.887 683.107 885.741 683.38 885.449 683.562C885.158 683.745 884.793 683.836 884.355 683.836C883.954 683.836 883.553 683.745 883.152 683.562C882.788 683.38 882.496 683.107 882.277 682.742L878.395 657.641ZM902.184 672.188C902.001 672.224 901.728 672.279 901.363 672.352C900.999 672.424 900.616 672.443 900.215 672.406C899.814 672.37 899.467 672.26 899.176 672.078C898.848 671.896 898.684 671.586 898.684 671.148C898.684 670.893 898.738 670.711 898.848 670.602C898.957 670.492 899.139 670.328 899.395 670.109C900.197 669.453 900.871 668.615 901.418 667.594C902.001 666.536 902.53 665.424 903.004 664.258C903.478 663.055 903.97 661.87 904.48 660.703C905.027 659.5 905.647 658.424 906.34 657.477C907.033 656.529 907.889 655.763 908.91 655.18C909.931 654.596 911.189 654.323 912.684 654.359C913.303 654.359 913.996 654.505 914.762 654.797C915.527 655.089 916.238 655.49 916.895 656C917.551 656.474 918.098 657.057 918.535 657.75C918.973 658.443 919.191 659.208 919.191 660.047C919.374 660.339 919.191 660.758 918.645 661.305C918.134 661.852 917.423 662.453 916.512 663.109C915.6 663.729 914.561 664.385 913.395 665.078C912.264 665.734 911.171 666.354 910.113 666.938C909.056 667.521 908.126 668.031 907.324 668.469C906.522 668.906 905.993 669.234 905.738 669.453C905.556 669.818 905.41 670.237 905.301 670.711C905.191 671.185 905.1 671.641 905.027 672.078C904.991 672.479 904.954 672.862 904.918 673.227C904.918 673.555 904.918 673.81 904.918 673.992C904.918 674.685 904.882 675.451 904.809 676.289C904.772 677.128 904.809 677.93 904.918 678.695C905.064 679.424 905.374 680.044 905.848 680.555C906.322 681.029 907.124 681.266 908.254 681.266C909.457 681.266 910.587 680.974 911.645 680.391C912.702 679.771 913.686 679.023 914.598 678.148C915.509 677.273 916.329 676.326 917.059 675.305C917.824 674.284 918.499 673.336 919.082 672.461C919.702 671.549 920.249 670.802 920.723 670.219C921.197 669.635 921.598 669.344 921.926 669.344C922.29 669.344 922.673 669.417 923.074 669.562C923.512 669.672 923.73 669.964 923.73 670.438C923.73 671.094 923.457 671.878 922.91 672.789C922.4 673.701 921.707 674.667 920.832 675.688C919.993 676.708 919.009 677.729 917.879 678.75C916.785 679.734 915.673 680.628 914.543 681.43C913.413 682.195 912.301 682.833 911.207 683.344C910.113 683.818 909.147 684.055 908.309 684.055C906.668 684.055 905.428 683.654 904.59 682.852C903.751 682.049 903.15 681.047 902.785 679.844C902.457 678.641 902.275 677.365 902.238 676.016C902.238 674.63 902.22 673.354 902.184 672.188ZM912.246 657.422C911.626 657.422 910.97 657.732 910.277 658.352C909.585 658.935 908.928 659.664 908.309 660.539C907.725 661.378 907.233 662.253 906.832 663.164C906.467 664.039 906.285 664.768 906.285 665.352C906.832 665.352 907.616 665.151 908.637 664.75C909.694 664.312 910.733 663.784 911.754 663.164C912.775 662.544 913.668 661.888 914.434 661.195C915.199 660.503 915.582 659.846 915.582 659.227C915.582 658.898 915.454 658.625 915.199 658.406C914.944 658.188 914.634 658.005 914.27 657.859C913.941 657.714 913.595 657.604 913.23 657.531C912.866 657.458 912.538 657.422 912.246 657.422ZM941.613 670C941.467 671.021 941.267 672.188 941.012 673.5C940.757 674.812 940.264 676.07 939.535 677.273C938.842 678.477 937.803 679.534 936.418 680.445C935.069 681.32 933.173 681.812 930.73 681.922C929.09 681.922 927.923 681.448 927.23 680.5C926.538 679.552 926.191 678.258 926.191 676.617C926.191 675.596 926.355 674.43 926.684 673.117C927.048 671.805 927.522 670.474 928.105 669.125C928.725 667.74 929.454 666.391 930.293 665.078C931.132 663.766 932.043 662.599 933.027 661.578C934.012 660.521 935.051 659.682 936.145 659.062C937.238 658.406 938.368 658.078 939.535 658.078C940.957 658.078 941.96 658.424 942.543 659.117C943.126 659.81 943.509 660.867 943.691 662.289L948.777 699.367H945.824C945.751 699.258 945.642 698.784 945.496 697.945C945.387 697.107 945.241 696.031 945.059 694.719C944.913 693.406 944.73 691.93 944.512 690.289C944.329 688.648 944.129 686.953 943.91 685.203C943.691 683.49 943.473 681.776 943.254 680.062C943.072 678.349 942.871 676.799 942.652 675.414C942.47 674.029 942.288 672.862 942.105 671.914C941.923 670.93 941.759 670.292 941.613 670ZM928.98 677.055C928.98 677.857 929.072 678.422 929.254 678.75C929.473 679.042 930.001 679.188 930.84 679.188C931.934 679.589 932.954 679.552 933.902 679.078C934.85 678.568 935.689 677.784 936.418 676.727C937.184 675.633 937.858 674.375 938.441 672.953C939.025 671.495 939.499 670.018 939.863 668.523C940.264 666.992 940.538 665.552 940.684 664.203C940.866 662.818 940.939 661.651 940.902 660.703C939.189 660.703 937.603 661.268 936.145 662.398C934.686 663.529 933.428 664.932 932.371 666.609C931.314 668.286 930.475 670.073 929.855 671.969C929.272 673.865 928.98 675.56 928.98 677.055ZM963.215 677.656C963.069 678.094 962.704 678.695 962.121 679.461C961.574 680.19 960.918 680.938 960.152 681.703C959.387 682.432 958.585 683.089 957.746 683.672C956.944 684.219 956.233 684.492 955.613 684.492C954.447 684.492 953.48 683.945 952.715 682.852C951.986 681.758 951.421 680.354 951.02 678.641C950.618 676.927 950.345 675.031 950.199 672.953C950.053 670.839 949.962 668.779 949.926 666.773C949.889 664.768 949.871 662.945 949.871 661.305C949.871 659.664 949.816 658.424 949.707 657.586C949.853 657.221 950.035 657.003 950.254 656.93C950.509 656.857 950.801 656.82 951.129 656.82C951.421 656.82 951.676 656.857 951.895 656.93C952.15 657.003 952.368 657.221 952.551 657.586C952.551 657.987 952.551 658.661 952.551 659.609C952.587 660.557 952.642 661.633 952.715 662.836C952.788 664.003 952.861 665.242 952.934 666.555C953.007 667.831 953.061 669.052 953.098 670.219C953.171 671.385 953.225 672.443 953.262 673.391C953.335 674.302 953.389 674.977 953.426 675.414C953.462 675.669 953.499 676.089 953.535 676.672C953.608 677.255 953.699 677.875 953.809 678.531C953.954 679.151 954.118 679.716 954.301 680.227C954.52 680.737 954.793 681.01 955.121 681.047C955.668 681.047 956.215 680.81 956.762 680.336C957.345 679.862 957.91 679.26 958.457 678.531C959.004 677.802 959.514 677 959.988 676.125C960.462 675.25 960.882 674.411 961.246 673.609C961.647 672.771 961.939 672.023 962.121 671.367C962.34 670.711 962.467 670.237 962.504 669.945C962.577 669.326 962.65 668.451 962.723 667.32C962.796 666.154 962.85 664.914 962.887 663.602C962.923 662.289 962.941 661.049 962.941 659.883C962.978 658.716 962.996 657.823 962.996 657.203L966.004 657.367C966.04 660.32 966.022 663 965.949 665.406C965.876 667.776 965.858 670.018 965.895 672.133C965.931 674.211 966.095 676.234 966.387 678.203C966.678 680.172 967.207 682.214 967.973 684.328C967.863 684.438 967.645 684.583 967.316 684.766C966.988 684.984 966.751 685.094 966.605 685.094C965.694 685.094 965.074 684.784 964.746 684.164C964.454 683.581 964.254 682.888 964.145 682.086C964.072 681.247 963.999 680.427 963.926 679.625C963.889 678.786 963.652 678.13 963.215 677.656ZM972.621 672.188C972.439 672.224 972.165 672.279 971.801 672.352C971.436 672.424 971.053 672.443 970.652 672.406C970.251 672.37 969.905 672.26 969.613 672.078C969.285 671.896 969.121 671.586 969.121 671.148C969.121 670.893 969.176 670.711 969.285 670.602C969.395 670.492 969.577 670.328 969.832 670.109C970.634 669.453 971.309 668.615 971.855 667.594C972.439 666.536 972.967 665.424 973.441 664.258C973.915 663.055 974.408 661.87 974.918 660.703C975.465 659.5 976.085 658.424 976.777 657.477C977.47 656.529 978.327 655.763 979.348 655.18C980.368 654.596 981.626 654.323 983.121 654.359C983.741 654.359 984.434 654.505 985.199 654.797C985.965 655.089 986.676 655.49 987.332 656C987.988 656.474 988.535 657.057 988.973 657.75C989.41 658.443 989.629 659.208 989.629 660.047C989.811 660.339 989.629 660.758 989.082 661.305C988.572 661.852 987.861 662.453 986.949 663.109C986.038 663.729 984.999 664.385 983.832 665.078C982.702 665.734 981.608 666.354 980.551 666.938C979.493 667.521 978.564 668.031 977.762 668.469C976.96 668.906 976.431 669.234 976.176 669.453C975.993 669.818 975.848 670.237 975.738 670.711C975.629 671.185 975.538 671.641 975.465 672.078C975.428 672.479 975.392 672.862 975.355 673.227C975.355 673.555 975.355 673.81 975.355 673.992C975.355 674.685 975.319 675.451 975.246 676.289C975.21 677.128 975.246 677.93 975.355 678.695C975.501 679.424 975.811 680.044 976.285 680.555C976.759 681.029 977.561 681.266 978.691 681.266C979.895 681.266 981.025 680.974 982.082 680.391C983.139 679.771 984.124 679.023 985.035 678.148C985.947 677.273 986.767 676.326 987.496 675.305C988.262 674.284 988.936 673.336 989.52 672.461C990.139 671.549 990.686 670.802 991.16 670.219C991.634 669.635 992.035 669.344 992.363 669.344C992.728 669.344 993.111 669.417 993.512 669.562C993.949 669.672 994.168 669.964 994.168 670.438C994.168 671.094 993.895 671.878 993.348 672.789C992.837 673.701 992.145 674.667 991.27 675.688C990.431 676.708 989.447 677.729 988.316 678.75C987.223 679.734 986.111 680.628 984.98 681.43C983.85 682.195 982.738 682.833 981.645 683.344C980.551 683.818 979.585 684.055 978.746 684.055C977.105 684.055 975.866 683.654 975.027 682.852C974.189 682.049 973.587 681.047 973.223 679.844C972.895 678.641 972.712 677.365 972.676 676.016C972.676 674.63 972.658 673.354 972.621 672.188ZM982.684 657.422C982.064 657.422 981.408 657.732 980.715 658.352C980.022 658.935 979.366 659.664 978.746 660.539C978.163 661.378 977.671 662.253 977.27 663.164C976.905 664.039 976.723 664.768 976.723 665.352C977.27 665.352 978.053 665.151 979.074 664.75C980.132 664.312 981.171 663.784 982.191 663.164C983.212 662.544 984.105 661.888 984.871 661.195C985.637 660.503 986.02 659.846 986.02 659.227C986.02 658.898 985.892 658.625 985.637 658.406C985.382 658.188 985.072 658.005 984.707 657.859C984.379 657.714 984.033 657.604 983.668 657.531C983.303 657.458 982.975 657.422 982.684 657.422ZM1001.22 683.18C1001.22 683.216 1001.61 682.997 1002.37 682.523C1003.17 682.049 1004.1 681.43 1005.16 680.664C1006.25 679.862 1007.37 679.005 1008.5 678.094C1009.63 677.146 1010.56 676.253 1011.29 675.414C1012.01 674.576 1012.4 673.865 1012.43 673.281C1012.51 672.661 1012.01 672.26 1010.96 672.078C1009.64 671.896 1008.53 671.914 1007.62 672.133C1006.75 672.352 1005.94 672.607 1005.21 672.898C1004.49 673.19 1003.79 673.464 1003.14 673.719C1002.52 673.974 1001.82 674.065 1001.06 673.992C999.454 673.992 998.342 673.5 997.723 672.516C997.139 671.495 996.848 670.128 996.848 668.414C996.848 666.701 997.23 665.078 997.996 663.547C998.762 661.979 999.746 660.63 1000.95 659.5C1002.15 658.37 1003.54 657.477 1005.11 656.82C1006.67 656.128 1008.28 655.781 1009.92 655.781C1010.57 655.781 1011.14 655.836 1011.61 655.945C1012.09 656.055 1012.32 656.474 1012.32 657.203C1012.32 657.714 1012.11 658.206 1011.67 658.68C1011.23 659.117 1010.74 659.336 1010.19 659.336C1010.15 659.336 1010.06 659.318 1009.92 659.281C1009.77 659.208 1009.63 659.117 1009.48 659.008C1009.33 658.898 1009.19 658.826 1009.04 658.789C1008.9 658.716 1008.81 658.68 1008.77 658.68C1007.6 658.352 1006.47 658.516 1005.38 659.172C1004.29 659.828 1003.3 660.721 1002.43 661.852C1001.59 662.945 1000.91 664.148 1000.4 665.461C999.892 666.737 999.637 667.885 999.637 668.906C999.637 669.307 999.71 669.635 999.855 669.891C1000.04 670.109 1000.26 670.273 1000.51 670.383C1000.8 670.492 1001.11 670.565 1001.44 670.602C1001.81 670.602 1002.17 670.602 1002.54 670.602C1003.26 670.602 1003.99 670.492 1004.72 670.273C1005.49 670.055 1006.22 669.799 1006.91 669.508C1007.64 669.216 1008.37 668.961 1009.1 668.742C1009.86 668.523 1010.65 668.414 1011.45 668.414C1011.81 668.414 1012.21 668.523 1012.65 668.742C1013.09 668.924 1013.49 669.216 1013.86 669.617C1014.22 669.982 1014.53 670.419 1014.79 670.93C1015.04 671.404 1015.19 671.932 1015.22 672.516C1015.44 673.026 1015.37 673.701 1015 674.539C1014.68 675.378 1014.17 676.271 1013.47 677.219C1012.78 678.167 1011.94 679.133 1010.96 680.117C1009.97 681.065 1008.99 681.94 1008 682.742C1007.02 683.508 1006.05 684.128 1005.11 684.602C1004.16 685.112 1003.36 685.349 1002.7 685.312C1001.97 685.312 1001.53 685.094 1001.39 684.656C1001.28 684.219 1001.22 683.727 1001.22 683.18ZM1018.89 660.648C1018.52 660.831 1018.18 661.031 1017.85 661.25C1017.56 661.432 1017.26 661.615 1016.97 661.797C1016.68 661.943 1016.39 662.052 1016.1 662.125C1015.81 662.198 1015.5 662.198 1015.17 662.125C1014.95 662.125 1014.77 661.997 1014.62 661.742C1014.48 661.451 1014.37 661.141 1014.29 660.812C1014.18 660.448 1014.11 660.102 1014.07 659.773C1014.04 659.409 1014.04 659.135 1014.07 658.953L1019.32 655.945L1019.65 641.945C1019.73 641.471 1020.02 641.289 1020.53 641.398C1021.04 641.471 1021.57 641.581 1022.11 641.727C1022.19 641.727 1022.3 641.763 1022.44 641.836C1022.62 641.872 1022.75 641.909 1022.82 641.945C1022.75 642.93 1022.66 644.005 1022.55 645.172C1022.48 646.302 1022.4 647.451 1022.33 648.617C1022.26 649.747 1022.2 650.859 1022.17 651.953C1022.17 653.047 1022.22 654.031 1022.33 654.906L1030.54 652.609C1030.68 652.573 1030.79 652.682 1030.86 652.938C1030.97 653.156 1031.06 653.43 1031.14 653.758C1031.25 654.086 1031.32 654.414 1031.36 654.742C1031.39 655.07 1031.41 655.234 1031.41 655.234L1022.11 659.172C1022.11 659.5 1022.13 660.284 1022.17 661.523C1022.24 662.763 1022.31 664.24 1022.39 665.953C1022.46 667.63 1022.53 669.453 1022.61 671.422C1022.68 673.354 1022.75 675.159 1022.82 676.836C1022.9 678.513 1022.95 679.99 1022.99 681.266C1023.02 682.505 1023.04 683.289 1023.04 683.617C1022.97 684.711 1022.64 685.258 1022.06 685.258C1021.51 685.258 1020.91 684.984 1020.25 684.438L1018.89 660.648Z" fill="black"/>
<path d="M665.016 478.868C664.391 479.411 664.324 480.358 664.868 480.984L673.72 491.176C674.264 491.801 675.211 491.868 675.836 491.324C676.462 490.781 676.529 489.834 675.985 489.208L668.116 480.149L677.176 472.28C677.801 471.736 677.868 470.789 677.324 470.164C676.781 469.538 675.834 469.471 675.208 470.015L665.016 478.868ZM840.271 674.525C786.073 664.557 751.854 647.644 730.06 627.95C708.288 608.276 698.79 585.715 694.237 564.19C691.957 553.413 690.917 542.898 690.2 533.117C689.486 523.38 689.088 514.269 688.087 506.496C687.088 498.732 685.461 492.013 682.13 487.089C678.723 482.053 673.629 479.033 666.105 478.504L665.895 481.496C672.592 481.967 676.805 484.572 679.645 488.77C682.562 493.081 684.124 499.205 685.112 506.879C686.098 514.544 686.484 523.464 687.208 533.336C687.929 543.164 688.98 553.837 691.302 564.81C695.95 586.785 705.693 609.974 728.048 630.175C750.381 650.356 785.177 667.443 839.729 677.475L840.271 674.525Z" fill="black"/>
<circle cx="1108.14" cy="95.1362" r="53.1362" fill="#688A00"/>
<path d="M1117.45 71.6799V120.812H1105.6V82.7635H1105.31L1094.32 89.4809V79.2129L1106.44 71.6799H1117.45Z" fill="white"/>
</svg>
