<svg width="1200" height="900" viewBox="0 0 1200 900" fill="none" xmlns="http://www.w3.org/2000/svg">
<rect width="1200" height="900" fill="white"/>
<path fill-rule="evenodd" clip-rule="evenodd" d="M712.52 106.345V804.292C712.52 813.548 705.01 821.051 695.749 821.051H105.771C96.5106 821.051 89 813.548 89 804.292V106.345C89 97.0891 96.5093 89.5859 105.771 89.5859H695.749C705.009 89.5859 712.52 97.0891 712.52 106.345Z" fill="#D2D2D2"/>
<path fill-rule="evenodd" clip-rule="evenodd" d="M195.964 787.534H688.372V800.398H195.964V787.534ZM195.964 766.832H688.372V779.696H195.964V766.832ZM195.964 747.116H688.372V759.98H195.964V747.116ZM112.664 112.259H688.372V125.075H112.664V112.259Z" fill="#A3A3A3"/>
<path fill-rule="evenodd" clip-rule="evenodd" d="M119.386 147.787H682.131C683.012 147.787 683.885 147.96 684.699 148.297C685.513 148.634 686.252 149.128 686.875 149.751C687.498 150.374 687.993 151.113 688.33 151.927C688.667 152.741 688.841 153.613 688.841 154.494V717.175C688.841 718.954 688.134 720.661 686.876 721.919C685.618 723.177 683.912 723.884 682.133 723.884H119.385C117.606 723.884 115.9 723.177 114.642 721.919C113.384 720.661 112.677 718.954 112.677 717.175V154.494C112.677 152.715 113.384 151.009 114.642 149.752C115.9 148.494 117.606 147.787 119.385 147.787H119.386Z" fill="#FDDFE1"/>
<path d="M112.417 178.308H689.111V718.034C689.111 719.668 688.462 721.235 687.307 722.391C686.151 723.546 684.584 724.195 682.95 724.195H118.578C116.944 724.195 115.377 723.546 114.222 722.391C113.066 721.235 112.417 719.668 112.417 718.034V178.308Z" fill="#EFFFBD"/>
<path d="M112.417 527.036H689.111V718.035C689.111 719.669 688.462 721.236 687.307 722.392C686.151 723.547 684.584 724.197 682.95 724.197H118.578C116.944 724.197 115.377 723.547 114.222 722.392C113.066 721.236 112.417 719.669 112.417 718.035V527.036Z" fill="#66E8FF"/>
<path d="M112.417 662.582H689.111V714.337C689.111 716.951 688.073 719.459 686.224 721.307C684.375 723.156 681.868 724.195 679.253 724.195H122.275C119.661 724.195 117.153 723.156 115.304 721.307C113.456 719.459 112.417 716.951 112.417 714.337V662.582Z" fill="#00A8C6"/>
<path d="M89 178.308L712.52 179.54" stroke="black" stroke-width="13.5548" stroke-dasharray="36.97 36.97"/>
<rect x="333.5" y="439.5" width="67" height="66" stroke="#8FBE00" stroke-width="3"/>
<rect x="529.5" y="439.5" width="69" height="66" stroke="#8FBE00" stroke-width="3"/>
<rect x="137.5" y="274.5" width="65" height="66" stroke="#8FBE00" stroke-width="3"/>
<rect x="531" y="273" width="69" height="69" fill="#8FBE00"/>
<rect x="333.5" y="274.5" width="67" height="66" stroke="#8FBE00" stroke-width="3"/>
<rect x="137.5" y="439.5" width="65" height="66" stroke="#8FBE00" stroke-width="3"/>
<path d="M874.125 496.578C873.943 495.63 873.779 494.5 873.633 493.188C873.523 491.839 873.396 490.49 873.25 489.141C873.104 487.755 872.922 486.461 872.703 485.258C872.521 484.055 872.229 483.07 871.828 482.305C869.969 486.096 868.328 489.086 866.906 491.273C865.484 493.424 864.227 494.974 863.133 495.922C862.076 496.833 861.182 497.271 860.453 497.234C859.724 497.198 859.122 496.87 858.648 496.25C858.174 495.63 857.828 494.846 857.609 493.898C857.427 492.914 857.299 492.003 857.227 491.164C857.227 490.362 857.409 489.232 857.773 487.773C858.138 486.315 858.63 484.729 859.25 483.016C859.87 481.266 860.599 479.497 861.438 477.711C862.312 475.924 863.242 474.302 864.227 472.844C865.211 471.385 866.232 470.182 867.289 469.234C868.346 468.286 869.404 467.812 870.461 467.812C872.029 467.557 873.177 467.904 873.906 468.852C874.672 469.763 874.818 471.312 874.344 473.5C874.344 475.906 874.435 477.966 874.617 479.68C874.836 481.393 875.055 483.034 875.273 484.602C875.529 486.169 875.747 487.81 875.93 489.523C876.148 491.237 876.258 493.297 876.258 495.703C876.258 496.141 876.203 496.523 876.094 496.852C876.021 497.143 875.583 497.289 874.781 497.289C874.672 497.289 874.526 497.198 874.344 497.016C874.198 496.833 874.125 496.688 874.125 496.578ZM871.172 472.133C870.771 471.549 870.224 471.495 869.531 471.969C868.839 472.443 868.109 473.227 867.344 474.32C866.578 475.414 865.794 476.727 864.992 478.258C864.19 479.789 863.443 481.339 862.75 482.906C862.057 484.474 861.456 485.969 860.945 487.391C860.435 488.776 860.089 489.924 859.906 490.836C859.906 492.148 860.107 492.896 860.508 493.078C860.909 493.224 861.401 493.005 861.984 492.422C862.568 491.839 863.224 491 863.953 489.906C864.719 488.812 865.448 487.646 866.141 486.406C866.87 485.167 867.544 483.964 868.164 482.797C868.82 481.63 869.331 480.682 869.695 479.953C870.023 479.188 870.279 478.477 870.461 477.82C870.643 477.164 870.789 476.544 870.898 475.961C871.044 475.341 871.117 474.721 871.117 474.102C871.154 473.482 871.172 472.826 871.172 472.133ZM879.102 485.422C879.211 484.109 879.32 482.688 879.43 481.156C879.539 479.589 879.703 478.039 879.922 476.508C880.177 474.977 880.487 473.518 880.852 472.133C881.253 470.747 881.763 469.526 882.383 468.469C883.039 467.375 883.841 466.518 884.789 465.898C885.737 465.242 886.885 464.932 888.234 464.969C889.146 464.969 889.839 465.352 890.312 466.117C890.823 466.883 891.169 467.812 891.352 468.906C891.57 470 891.68 471.13 891.68 472.297C891.716 473.427 891.734 474.357 891.734 475.086C891.005 475.086 890.404 474.776 889.93 474.156C889.456 473.5 889.091 472.753 888.836 471.914C888.581 471.076 888.398 470.255 888.289 469.453L888.125 467.867C888.089 467.867 888.016 467.867 887.906 467.867C887.833 467.831 887.779 467.812 887.742 467.812C887.122 467.812 886.539 468.159 885.992 468.852C885.482 469.544 884.99 470.438 884.516 471.531C884.078 472.589 883.695 473.792 883.367 475.141C883.039 476.453 882.766 477.747 882.547 479.023C882.328 480.299 882.146 481.484 882 482.578C881.891 483.635 881.836 484.456 881.836 485.039C881.763 485.987 881.763 487.026 881.836 488.156C881.909 489.286 882.128 490.344 882.492 491.328C882.857 492.312 883.367 493.169 884.023 493.898C884.68 494.591 885.555 495.065 886.648 495.32C887.997 495.32 889.091 495.138 889.93 494.773C890.768 494.409 891.443 493.917 891.953 493.297C892.5 492.677 892.919 491.984 893.211 491.219C893.503 490.453 893.776 489.669 894.031 488.867C894.323 488.029 894.615 487.208 894.906 486.406C895.198 485.604 895.617 484.857 896.164 484.164C896.602 484.055 896.911 484.073 897.094 484.219C897.312 484.328 897.458 484.492 897.531 484.711C897.604 484.93 897.641 485.185 897.641 485.477V486.078C897.641 487.609 897.385 489.086 896.875 490.508C896.365 491.93 895.617 493.206 894.633 494.336C893.648 495.43 892.464 496.323 891.078 497.016C889.729 497.672 888.18 498 886.43 498C884.971 498 883.75 497.544 882.766 496.633C881.818 495.685 881.07 494.555 880.523 493.242C880.013 491.93 879.648 490.562 879.43 489.141C879.211 487.682 879.102 486.443 879.102 485.422ZM902.453 474.648C902.089 474.831 901.742 475.031 901.414 475.25C901.122 475.432 900.831 475.615 900.539 475.797C900.247 475.943 899.956 476.052 899.664 476.125C899.372 476.198 899.062 476.198 898.734 476.125C898.516 476.125 898.333 475.997 898.188 475.742C898.042 475.451 897.932 475.141 897.859 474.812C897.75 474.448 897.677 474.102 897.641 473.773C897.604 473.409 897.604 473.135 897.641 472.953L902.891 469.945L903.219 455.945C903.292 455.471 903.583 455.289 904.094 455.398C904.604 455.471 905.133 455.581 905.68 455.727C905.753 455.727 905.862 455.763 906.008 455.836C906.19 455.872 906.318 455.909 906.391 455.945C906.318 456.93 906.227 458.005 906.117 459.172C906.044 460.302 905.971 461.451 905.898 462.617C905.826 463.747 905.771 464.859 905.734 465.953C905.734 467.047 905.789 468.031 905.898 468.906L914.102 466.609C914.247 466.573 914.357 466.682 914.43 466.938C914.539 467.156 914.63 467.43 914.703 467.758C914.812 468.086 914.885 468.414 914.922 468.742C914.958 469.07 914.977 469.234 914.977 469.234L905.68 473.172C905.68 473.5 905.698 474.284 905.734 475.523C905.807 476.763 905.88 478.24 905.953 479.953C906.026 481.63 906.099 483.453 906.172 485.422C906.245 487.354 906.318 489.159 906.391 490.836C906.464 492.513 906.518 493.99 906.555 495.266C906.591 496.505 906.609 497.289 906.609 497.617C906.536 498.711 906.208 499.258 905.625 499.258C905.078 499.258 904.477 498.984 903.82 498.438L902.453 474.648ZM929.906 491.656C929.76 492.094 929.396 492.695 928.812 493.461C928.266 494.19 927.609 494.938 926.844 495.703C926.078 496.432 925.276 497.089 924.438 497.672C923.635 498.219 922.924 498.492 922.305 498.492C921.138 498.492 920.172 497.945 919.406 496.852C918.677 495.758 918.112 494.354 917.711 492.641C917.31 490.927 917.036 489.031 916.891 486.953C916.745 484.839 916.654 482.779 916.617 480.773C916.581 478.768 916.562 476.945 916.562 475.305C916.562 473.664 916.508 472.424 916.398 471.586C916.544 471.221 916.727 471.003 916.945 470.93C917.201 470.857 917.492 470.82 917.82 470.82C918.112 470.82 918.367 470.857 918.586 470.93C918.841 471.003 919.06 471.221 919.242 471.586C919.242 471.987 919.242 472.661 919.242 473.609C919.279 474.557 919.333 475.633 919.406 476.836C919.479 478.003 919.552 479.242 919.625 480.555C919.698 481.831 919.753 483.052 919.789 484.219C919.862 485.385 919.917 486.443 919.953 487.391C920.026 488.302 920.081 488.977 920.117 489.414C920.154 489.669 920.19 490.089 920.227 490.672C920.299 491.255 920.391 491.875 920.5 492.531C920.646 493.151 920.81 493.716 920.992 494.227C921.211 494.737 921.484 495.01 921.812 495.047C922.359 495.047 922.906 494.81 923.453 494.336C924.036 493.862 924.602 493.26 925.148 492.531C925.695 491.802 926.206 491 926.68 490.125C927.154 489.25 927.573 488.411 927.938 487.609C928.339 486.771 928.63 486.023 928.812 485.367C929.031 484.711 929.159 484.237 929.195 483.945C929.268 483.326 929.341 482.451 929.414 481.32C929.487 480.154 929.542 478.914 929.578 477.602C929.615 476.289 929.633 475.049 929.633 473.883C929.669 472.716 929.688 471.823 929.688 471.203L932.695 471.367C932.732 474.32 932.714 477 932.641 479.406C932.568 481.776 932.549 484.018 932.586 486.133C932.622 488.211 932.786 490.234 933.078 492.203C933.37 494.172 933.898 496.214 934.664 498.328C934.555 498.438 934.336 498.583 934.008 498.766C933.68 498.984 933.443 499.094 933.297 499.094C932.385 499.094 931.766 498.784 931.438 498.164C931.146 497.581 930.945 496.888 930.836 496.086C930.763 495.247 930.69 494.427 930.617 493.625C930.581 492.786 930.344 492.13 929.906 491.656ZM953.258 496.578C953.076 495.63 952.911 494.5 952.766 493.188C952.656 491.839 952.529 490.49 952.383 489.141C952.237 487.755 952.055 486.461 951.836 485.258C951.654 484.055 951.362 483.07 950.961 482.305C949.102 486.096 947.461 489.086 946.039 491.273C944.617 493.424 943.359 494.974 942.266 495.922C941.208 496.833 940.315 497.271 939.586 497.234C938.857 497.198 938.255 496.87 937.781 496.25C937.307 495.63 936.961 494.846 936.742 493.898C936.56 492.914 936.432 492.003 936.359 491.164C936.359 490.362 936.542 489.232 936.906 487.773C937.271 486.315 937.763 484.729 938.383 483.016C939.003 481.266 939.732 479.497 940.57 477.711C941.445 475.924 942.375 474.302 943.359 472.844C944.344 471.385 945.365 470.182 946.422 469.234C947.479 468.286 948.536 467.812 949.594 467.812C951.161 467.557 952.31 467.904 953.039 468.852C953.805 469.763 953.951 471.312 953.477 473.5C953.477 475.906 953.568 477.966 953.75 479.68C953.969 481.393 954.188 483.034 954.406 484.602C954.661 486.169 954.88 487.81 955.062 489.523C955.281 491.237 955.391 493.297 955.391 495.703C955.391 496.141 955.336 496.523 955.227 496.852C955.154 497.143 954.716 497.289 953.914 497.289C953.805 497.289 953.659 497.198 953.477 497.016C953.331 496.833 953.258 496.688 953.258 496.578ZM950.305 472.133C949.904 471.549 949.357 471.495 948.664 471.969C947.971 472.443 947.242 473.227 946.477 474.32C945.711 475.414 944.927 476.727 944.125 478.258C943.323 479.789 942.576 481.339 941.883 482.906C941.19 484.474 940.589 485.969 940.078 487.391C939.568 488.776 939.221 489.924 939.039 490.836C939.039 492.148 939.24 492.896 939.641 493.078C940.042 493.224 940.534 493.005 941.117 492.422C941.701 491.839 942.357 491 943.086 489.906C943.852 488.812 944.581 487.646 945.273 486.406C946.003 485.167 946.677 483.964 947.297 482.797C947.953 481.63 948.464 480.682 948.828 479.953C949.156 479.188 949.411 478.477 949.594 477.82C949.776 477.164 949.922 476.544 950.031 475.961C950.177 475.341 950.25 474.721 950.25 474.102C950.286 473.482 950.305 472.826 950.305 472.133ZM959.383 495.211C959.638 493.534 959.802 491.438 959.875 488.922C959.984 486.406 960.021 483.727 959.984 480.883C959.984 478.039 959.93 475.104 959.82 472.078C959.711 469.052 959.565 466.19 959.383 463.492C959.201 460.758 958.982 458.315 958.727 456.164C958.508 454.013 958.271 452.318 958.016 451.078C958.344 450.859 958.617 450.695 958.836 450.586C959.091 450.44 959.383 450.367 959.711 450.367C959.966 450.367 960.185 450.422 960.367 450.531C960.549 450.604 960.695 450.786 960.805 451.078C961.534 458.224 962.026 465.424 962.281 472.68C962.573 479.935 962.792 487.154 962.938 494.336C962.938 494.664 962.938 495.12 962.938 495.703C962.938 496.25 962.919 496.542 962.883 496.578C962.372 496.833 961.917 496.961 961.516 496.961C961.115 496.924 960.75 496.815 960.422 496.633C960.094 496.414 959.839 496.177 959.656 495.922C959.474 495.667 959.383 495.43 959.383 495.211ZM1005.05 491.656C1004.9 492.094 1004.54 492.695 1003.95 493.461C1003.41 494.19 1002.75 494.938 1001.98 495.703C1001.22 496.432 1000.42 497.089 999.578 497.672C998.776 498.219 998.065 498.492 997.445 498.492C996.279 498.492 995.312 497.945 994.547 496.852C993.818 495.758 993.253 494.354 992.852 492.641C992.451 490.927 992.177 489.031 992.031 486.953C991.885 484.839 991.794 482.779 991.758 480.773C991.721 478.768 991.703 476.945 991.703 475.305C991.703 473.664 991.648 472.424 991.539 471.586C991.685 471.221 991.867 471.003 992.086 470.93C992.341 470.857 992.633 470.82 992.961 470.82C993.253 470.82 993.508 470.857 993.727 470.93C993.982 471.003 994.201 471.221 994.383 471.586C994.383 471.987 994.383 472.661 994.383 473.609C994.419 474.557 994.474 475.633 994.547 476.836C994.62 478.003 994.693 479.242 994.766 480.555C994.839 481.831 994.893 483.052 994.93 484.219C995.003 485.385 995.057 486.443 995.094 487.391C995.167 488.302 995.221 488.977 995.258 489.414C995.294 489.669 995.331 490.089 995.367 490.672C995.44 491.255 995.531 491.875 995.641 492.531C995.786 493.151 995.951 493.716 996.133 494.227C996.352 494.737 996.625 495.01 996.953 495.047C997.5 495.047 998.047 494.81 998.594 494.336C999.177 493.862 999.742 493.26 1000.29 492.531C1000.84 491.802 1001.35 491 1001.82 490.125C1002.29 489.25 1002.71 488.411 1003.08 487.609C1003.48 486.771 1003.77 486.023 1003.95 485.367C1004.17 484.711 1004.3 484.237 1004.34 483.945C1004.41 483.326 1004.48 482.451 1004.55 481.32C1004.63 480.154 1004.68 478.914 1004.72 477.602C1004.76 476.289 1004.77 475.049 1004.77 473.883C1004.81 472.716 1004.83 471.823 1004.83 471.203L1007.84 471.367C1007.87 474.32 1007.85 477 1007.78 479.406C1007.71 481.776 1007.69 484.018 1007.73 486.133C1007.76 488.211 1007.93 490.234 1008.22 492.203C1008.51 494.172 1009.04 496.214 1009.8 498.328C1009.7 498.438 1009.48 498.583 1009.15 498.766C1008.82 498.984 1008.58 499.094 1008.44 499.094C1007.53 499.094 1006.91 498.784 1006.58 498.164C1006.29 497.581 1006.09 496.888 1005.98 496.086C1005.9 495.247 1005.83 494.427 1005.76 493.625C1005.72 492.786 1005.48 492.13 1005.05 491.656ZM1017.19 497.18C1017.19 497.216 1017.57 496.997 1018.34 496.523C1019.14 496.049 1020.07 495.43 1021.12 494.664C1022.22 493.862 1023.33 493.005 1024.46 492.094C1025.59 491.146 1026.52 490.253 1027.25 489.414C1027.98 488.576 1028.36 487.865 1028.4 487.281C1028.47 486.661 1027.98 486.26 1026.92 486.078C1025.61 485.896 1024.5 485.914 1023.59 486.133C1022.71 486.352 1021.91 486.607 1021.18 486.898C1020.45 487.19 1019.76 487.464 1019.1 487.719C1018.48 487.974 1017.79 488.065 1017.02 487.992C1015.42 487.992 1014.31 487.5 1013.69 486.516C1013.1 485.495 1012.81 484.128 1012.81 482.414C1012.81 480.701 1013.2 479.078 1013.96 477.547C1014.73 475.979 1015.71 474.63 1016.91 473.5C1018.12 472.37 1019.5 471.477 1021.07 470.82C1022.64 470.128 1024.24 469.781 1025.88 469.781C1026.54 469.781 1027.1 469.836 1027.58 469.945C1028.05 470.055 1028.29 470.474 1028.29 471.203C1028.29 471.714 1028.07 472.206 1027.63 472.68C1027.2 473.117 1026.7 473.336 1026.16 473.336C1026.12 473.336 1026.03 473.318 1025.88 473.281C1025.74 473.208 1025.59 473.117 1025.45 473.008C1025.3 472.898 1025.15 472.826 1025.01 472.789C1024.86 472.716 1024.77 472.68 1024.73 472.68C1023.57 472.352 1022.44 472.516 1021.34 473.172C1020.25 473.828 1019.27 474.721 1018.39 475.852C1017.55 476.945 1016.88 478.148 1016.37 479.461C1015.86 480.737 1015.6 481.885 1015.6 482.906C1015.6 483.307 1015.67 483.635 1015.82 483.891C1016 484.109 1016.22 484.273 1016.48 484.383C1016.77 484.492 1017.08 484.565 1017.41 484.602C1017.77 484.602 1018.14 484.602 1018.5 484.602C1019.23 484.602 1019.96 484.492 1020.69 484.273C1021.45 484.055 1022.18 483.799 1022.88 483.508C1023.6 483.216 1024.33 482.961 1025.06 482.742C1025.83 482.523 1026.61 482.414 1027.41 482.414C1027.78 482.414 1028.18 482.523 1028.62 482.742C1029.05 482.924 1029.46 483.216 1029.82 483.617C1030.18 483.982 1030.49 484.419 1030.75 484.93C1031.01 485.404 1031.15 485.932 1031.19 486.516C1031.41 487.026 1031.33 487.701 1030.97 488.539C1030.64 489.378 1030.13 490.271 1029.44 491.219C1028.74 492.167 1027.91 493.133 1026.92 494.117C1025.94 495.065 1024.95 495.94 1023.97 496.742C1022.98 497.508 1022.02 498.128 1021.07 498.602C1020.12 499.112 1019.32 499.349 1018.66 499.312C1017.93 499.312 1017.5 499.094 1017.35 498.656C1017.24 498.219 1017.19 497.727 1017.19 497.18ZM1048.91 496.578C1048.72 495.63 1048.56 494.5 1048.41 493.188C1048.3 491.839 1048.18 490.49 1048.03 489.141C1047.89 487.755 1047.7 486.461 1047.48 485.258C1047.3 484.055 1047.01 483.07 1046.61 482.305C1044.75 486.096 1043.11 489.086 1041.69 491.273C1040.27 493.424 1039.01 494.974 1037.91 495.922C1036.86 496.833 1035.96 497.271 1035.23 497.234C1034.51 497.198 1033.9 496.87 1033.43 496.25C1032.96 495.63 1032.61 494.846 1032.39 493.898C1032.21 492.914 1032.08 492.003 1032.01 491.164C1032.01 490.362 1032.19 489.232 1032.55 487.773C1032.92 486.315 1033.41 484.729 1034.03 483.016C1034.65 481.266 1035.38 479.497 1036.22 477.711C1037.09 475.924 1038.02 474.302 1039.01 472.844C1039.99 471.385 1041.01 470.182 1042.07 469.234C1043.13 468.286 1044.18 467.812 1045.24 467.812C1046.81 467.557 1047.96 467.904 1048.69 468.852C1049.45 469.763 1049.6 471.312 1049.12 473.5C1049.12 475.906 1049.22 477.966 1049.4 479.68C1049.62 481.393 1049.84 483.034 1050.05 484.602C1050.31 486.169 1050.53 487.81 1050.71 489.523C1050.93 491.237 1051.04 493.297 1051.04 495.703C1051.04 496.141 1050.98 496.523 1050.88 496.852C1050.8 497.143 1050.36 497.289 1049.56 497.289C1049.45 497.289 1049.31 497.198 1049.12 497.016C1048.98 496.833 1048.91 496.688 1048.91 496.578ZM1045.95 472.133C1045.55 471.549 1045.01 471.495 1044.31 471.969C1043.62 472.443 1042.89 473.227 1042.12 474.32C1041.36 475.414 1040.58 476.727 1039.77 478.258C1038.97 479.789 1038.22 481.339 1037.53 482.906C1036.84 484.474 1036.24 485.969 1035.73 487.391C1035.22 488.776 1034.87 489.924 1034.69 490.836C1034.69 492.148 1034.89 492.896 1035.29 493.078C1035.69 493.224 1036.18 493.005 1036.77 492.422C1037.35 491.839 1038.01 491 1038.73 489.906C1039.5 488.812 1040.23 487.646 1040.92 486.406C1041.65 485.167 1042.33 483.964 1042.95 482.797C1043.6 481.63 1044.11 480.682 1044.48 479.953C1044.8 479.188 1045.06 478.477 1045.24 477.82C1045.42 477.164 1045.57 476.544 1045.68 475.961C1045.83 475.341 1045.9 474.721 1045.9 474.102C1045.93 473.482 1045.95 472.826 1045.95 472.133ZM1057.66 519.383C1060.86 519.201 1063.38 518.362 1065.2 516.867C1067.06 515.372 1068.45 513.44 1069.36 511.07C1070.27 508.701 1070.82 505.984 1071 502.922C1071.18 499.896 1071.2 496.76 1071.05 493.516C1070.91 490.271 1070.69 487.026 1070.4 483.781C1070.14 480.5 1070.03 477.456 1070.07 474.648C1068.5 479.242 1067.03 482.961 1065.64 485.805C1064.26 488.612 1062.96 490.745 1061.76 492.203C1060.59 493.625 1059.52 494.5 1058.53 494.828C1057.58 495.12 1056.74 495.065 1056.02 494.664C1055.29 494.227 1054.68 493.552 1054.21 492.641C1053.77 491.693 1053.46 490.727 1053.28 489.742C1053.35 488.065 1053.68 486.224 1054.27 484.219C1054.89 482.177 1055.67 480.19 1056.62 478.258C1057.6 476.289 1058.73 474.466 1060.01 472.789C1061.28 471.076 1062.63 469.745 1064.05 468.797C1065.48 467.812 1066.95 467.302 1068.48 467.266C1070.02 467.193 1071.49 467.776 1072.91 469.016C1072.95 469.052 1073.01 469.544 1073.08 470.492C1073.19 471.404 1073.3 472.625 1073.41 474.156C1073.55 475.651 1073.7 477.346 1073.84 479.242C1074.03 481.102 1074.19 482.997 1074.34 484.93C1074.48 486.826 1074.61 488.648 1074.72 490.398C1074.83 492.148 1074.94 493.661 1075.05 494.938C1075.19 497.016 1075.1 499.221 1074.77 501.555C1074.48 503.888 1074.01 506.148 1073.35 508.336C1072.7 510.56 1071.86 512.638 1070.84 514.57C1069.85 516.503 1068.7 518.089 1067.39 519.328C1066.11 520.568 1064.67 521.352 1063.07 521.68C1061.5 522.044 1059.83 521.771 1058.04 520.859C1057.93 520.859 1057.77 520.841 1057.55 520.805C1057.33 520.805 1057.15 520.75 1057 520.641C1056.89 520.531 1056.87 520.385 1056.95 520.203C1057.02 520.021 1057.26 519.747 1057.66 519.383ZM1056.12 489.359C1056.49 490.49 1056.96 491.073 1057.55 491.109C1058.17 491.109 1058.82 490.727 1059.52 489.961C1060.21 489.159 1060.96 488.047 1061.76 486.625C1062.6 485.203 1063.42 483.654 1064.22 481.977C1065.02 480.299 1065.8 478.586 1066.57 476.836C1067.37 475.049 1068.12 473.391 1068.81 471.859C1068.81 471.458 1068.72 471.094 1068.54 470.766C1068.36 470.401 1067.96 470.292 1067.34 470.438C1066.32 470.656 1065.31 471.148 1064.33 471.914C1063.38 472.68 1062.49 473.628 1061.65 474.758C1060.85 475.852 1060.1 477.073 1059.41 478.422C1058.75 479.734 1058.17 481.065 1057.66 482.414C1057.18 483.727 1056.8 484.984 1056.51 486.188C1056.25 487.391 1056.12 488.448 1056.12 489.359ZM1079.97 486.188C1079.79 486.224 1079.51 486.279 1079.15 486.352C1078.78 486.424 1078.4 486.443 1078 486.406C1077.6 486.37 1077.25 486.26 1076.96 486.078C1076.63 485.896 1076.47 485.586 1076.47 485.148C1076.47 484.893 1076.52 484.711 1076.63 484.602C1076.74 484.492 1076.92 484.328 1077.18 484.109C1077.98 483.453 1078.66 482.615 1079.2 481.594C1079.79 480.536 1080.32 479.424 1080.79 478.258C1081.26 477.055 1081.76 475.87 1082.27 474.703C1082.81 473.5 1083.43 472.424 1084.12 471.477C1084.82 470.529 1085.67 469.763 1086.7 469.18C1087.72 468.596 1088.97 468.323 1090.47 468.359C1091.09 468.359 1091.78 468.505 1092.55 468.797C1093.31 469.089 1094.02 469.49 1094.68 470C1095.34 470.474 1095.88 471.057 1096.32 471.75C1096.76 472.443 1096.98 473.208 1096.98 474.047C1097.16 474.339 1096.98 474.758 1096.43 475.305C1095.92 475.852 1095.21 476.453 1094.3 477.109C1093.39 477.729 1092.35 478.385 1091.18 479.078C1090.05 479.734 1088.96 480.354 1087.9 480.938C1086.84 481.521 1085.91 482.031 1085.11 482.469C1084.31 482.906 1083.78 483.234 1083.52 483.453C1083.34 483.818 1083.2 484.237 1083.09 484.711C1082.98 485.185 1082.89 485.641 1082.81 486.078C1082.78 486.479 1082.74 486.862 1082.7 487.227C1082.7 487.555 1082.7 487.81 1082.7 487.992C1082.7 488.685 1082.67 489.451 1082.59 490.289C1082.56 491.128 1082.59 491.93 1082.7 492.695C1082.85 493.424 1083.16 494.044 1083.63 494.555C1084.11 495.029 1084.91 495.266 1086.04 495.266C1087.24 495.266 1088.37 494.974 1089.43 494.391C1090.49 493.771 1091.47 493.023 1092.38 492.148C1093.29 491.273 1094.11 490.326 1094.84 489.305C1095.61 488.284 1096.28 487.336 1096.87 486.461C1097.49 485.549 1098.03 484.802 1098.51 484.219C1098.98 483.635 1099.38 483.344 1099.71 483.344C1100.08 483.344 1100.46 483.417 1100.86 483.562C1101.3 483.672 1101.52 483.964 1101.52 484.438C1101.52 485.094 1101.24 485.878 1100.7 486.789C1100.18 487.701 1099.49 488.667 1098.62 489.688C1097.78 490.708 1096.79 491.729 1095.66 492.75C1094.57 493.734 1093.46 494.628 1092.33 495.43C1091.2 496.195 1090.09 496.833 1088.99 497.344C1087.9 497.818 1086.93 498.055 1086.09 498.055C1084.45 498.055 1083.21 497.654 1082.38 496.852C1081.54 496.049 1080.93 495.047 1080.57 493.844C1080.24 492.641 1080.06 491.365 1080.02 490.016C1080.02 488.63 1080.01 487.354 1079.97 486.188ZM1090.03 471.422C1089.41 471.422 1088.76 471.732 1088.06 472.352C1087.37 472.935 1086.71 473.664 1086.09 474.539C1085.51 475.378 1085.02 476.253 1084.62 477.164C1084.25 478.039 1084.07 478.768 1084.07 479.352C1084.62 479.352 1085.4 479.151 1086.42 478.75C1087.48 478.312 1088.52 477.784 1089.54 477.164C1090.56 476.544 1091.45 475.888 1092.22 475.195C1092.98 474.503 1093.37 473.846 1093.37 473.227C1093.37 472.898 1093.24 472.625 1092.98 472.406C1092.73 472.188 1092.42 472.005 1092.05 471.859C1091.73 471.714 1091.38 471.604 1091.02 471.531C1090.65 471.458 1090.32 471.422 1090.03 471.422Z" fill="black"/>
<path d="M878.395 657.641V657.203C878.395 656.839 878.522 656.583 878.777 656.438C879.069 656.292 879.397 656.219 879.762 656.219C880.053 656.219 880.327 656.255 880.582 656.328C880.837 656.365 881.038 656.565 881.184 656.93C881.293 657.477 881.402 658.242 881.512 659.227C881.621 660.174 881.749 661.232 881.895 662.398C882.04 663.565 882.186 664.805 882.332 666.117C882.514 667.393 882.678 668.615 882.824 669.781C883.007 670.911 883.189 671.932 883.371 672.844C883.553 673.755 883.754 674.448 883.973 674.922C883.863 671.422 883.973 668.396 884.301 665.844C884.629 663.255 885.249 661.159 886.16 659.555C887.108 657.914 888.384 656.784 889.988 656.164C891.629 655.508 893.671 655.362 896.113 655.727C897.243 655.727 897.809 656.328 897.809 657.531C897.809 658.005 897.499 658.333 896.879 658.516C896.259 658.661 895.566 658.771 894.801 658.844C894.035 658.88 893.288 658.935 892.559 659.008C891.829 659.081 891.301 659.263 890.973 659.555C889.66 660.284 888.73 661.414 888.184 662.945C887.673 664.477 887.309 666.281 887.09 668.359C886.871 670.438 886.707 672.716 886.598 675.195C886.525 677.638 886.288 680.154 885.887 682.742C885.887 683.107 885.741 683.38 885.449 683.562C885.158 683.745 884.793 683.836 884.355 683.836C883.954 683.836 883.553 683.745 883.152 683.562C882.788 683.38 882.496 683.107 882.277 682.742L878.395 657.641ZM902.184 672.188C902.001 672.224 901.728 672.279 901.363 672.352C900.999 672.424 900.616 672.443 900.215 672.406C899.814 672.37 899.467 672.26 899.176 672.078C898.848 671.896 898.684 671.586 898.684 671.148C898.684 670.893 898.738 670.711 898.848 670.602C898.957 670.492 899.139 670.328 899.395 670.109C900.197 669.453 900.871 668.615 901.418 667.594C902.001 666.536 902.53 665.424 903.004 664.258C903.478 663.055 903.97 661.87 904.48 660.703C905.027 659.5 905.647 658.424 906.34 657.477C907.033 656.529 907.889 655.763 908.91 655.18C909.931 654.596 911.189 654.323 912.684 654.359C913.303 654.359 913.996 654.505 914.762 654.797C915.527 655.089 916.238 655.49 916.895 656C917.551 656.474 918.098 657.057 918.535 657.75C918.973 658.443 919.191 659.208 919.191 660.047C919.374 660.339 919.191 660.758 918.645 661.305C918.134 661.852 917.423 662.453 916.512 663.109C915.6 663.729 914.561 664.385 913.395 665.078C912.264 665.734 911.171 666.354 910.113 666.938C909.056 667.521 908.126 668.031 907.324 668.469C906.522 668.906 905.993 669.234 905.738 669.453C905.556 669.818 905.41 670.237 905.301 670.711C905.191 671.185 905.1 671.641 905.027 672.078C904.991 672.479 904.954 672.862 904.918 673.227C904.918 673.555 904.918 673.81 904.918 673.992C904.918 674.685 904.882 675.451 904.809 676.289C904.772 677.128 904.809 677.93 904.918 678.695C905.064 679.424 905.374 680.044 905.848 680.555C906.322 681.029 907.124 681.266 908.254 681.266C909.457 681.266 910.587 680.974 911.645 680.391C912.702 679.771 913.686 679.023 914.598 678.148C915.509 677.273 916.329 676.326 917.059 675.305C917.824 674.284 918.499 673.336 919.082 672.461C919.702 671.549 920.249 670.802 920.723 670.219C921.197 669.635 921.598 669.344 921.926 669.344C922.29 669.344 922.673 669.417 923.074 669.562C923.512 669.672 923.73 669.964 923.73 670.438C923.73 671.094 923.457 671.878 922.91 672.789C922.4 673.701 921.707 674.667 920.832 675.688C919.993 676.708 919.009 677.729 917.879 678.75C916.785 679.734 915.673 680.628 914.543 681.43C913.413 682.195 912.301 682.833 911.207 683.344C910.113 683.818 909.147 684.055 908.309 684.055C906.668 684.055 905.428 683.654 904.59 682.852C903.751 682.049 903.15 681.047 902.785 679.844C902.457 678.641 902.275 677.365 902.238 676.016C902.238 674.63 902.22 673.354 902.184 672.188ZM912.246 657.422C911.626 657.422 910.97 657.732 910.277 658.352C909.585 658.935 908.928 659.664 908.309 660.539C907.725 661.378 907.233 662.253 906.832 663.164C906.467 664.039 906.285 664.768 906.285 665.352C906.832 665.352 907.616 665.151 908.637 664.75C909.694 664.312 910.733 663.784 911.754 663.164C912.775 662.544 913.668 661.888 914.434 661.195C915.199 660.503 915.582 659.846 915.582 659.227C915.582 658.898 915.454 658.625 915.199 658.406C914.944 658.188 914.634 658.005 914.27 657.859C913.941 657.714 913.595 657.604 913.23 657.531C912.866 657.458 912.538 657.422 912.246 657.422ZM941.613 670C941.467 671.021 941.267 672.188 941.012 673.5C940.757 674.812 940.264 676.07 939.535 677.273C938.842 678.477 937.803 679.534 936.418 680.445C935.069 681.32 933.173 681.812 930.73 681.922C929.09 681.922 927.923 681.448 927.23 680.5C926.538 679.552 926.191 678.258 926.191 676.617C926.191 675.596 926.355 674.43 926.684 673.117C927.048 671.805 927.522 670.474 928.105 669.125C928.725 667.74 929.454 666.391 930.293 665.078C931.132 663.766 932.043 662.599 933.027 661.578C934.012 660.521 935.051 659.682 936.145 659.062C937.238 658.406 938.368 658.078 939.535 658.078C940.957 658.078 941.96 658.424 942.543 659.117C943.126 659.81 943.509 660.867 943.691 662.289L948.777 699.367H945.824C945.751 699.258 945.642 698.784 945.496 697.945C945.387 697.107 945.241 696.031 945.059 694.719C944.913 693.406 944.73 691.93 944.512 690.289C944.329 688.648 944.129 686.953 943.91 685.203C943.691 683.49 943.473 681.776 943.254 680.062C943.072 678.349 942.871 676.799 942.652 675.414C942.47 674.029 942.288 672.862 942.105 671.914C941.923 670.93 941.759 670.292 941.613 670ZM928.98 677.055C928.98 677.857 929.072 678.422 929.254 678.75C929.473 679.042 930.001 679.188 930.84 679.188C931.934 679.589 932.954 679.552 933.902 679.078C934.85 678.568 935.689 677.784 936.418 676.727C937.184 675.633 937.858 674.375 938.441 672.953C939.025 671.495 939.499 670.018 939.863 668.523C940.264 666.992 940.538 665.552 940.684 664.203C940.866 662.818 940.939 661.651 940.902 660.703C939.189 660.703 937.603 661.268 936.145 662.398C934.686 663.529 933.428 664.932 932.371 666.609C931.314 668.286 930.475 670.073 929.855 671.969C929.272 673.865 928.98 675.56 928.98 677.055ZM963.215 677.656C963.069 678.094 962.704 678.695 962.121 679.461C961.574 680.19 960.918 680.938 960.152 681.703C959.387 682.432 958.585 683.089 957.746 683.672C956.944 684.219 956.233 684.492 955.613 684.492C954.447 684.492 953.48 683.945 952.715 682.852C951.986 681.758 951.421 680.354 951.02 678.641C950.618 676.927 950.345 675.031 950.199 672.953C950.053 670.839 949.962 668.779 949.926 666.773C949.889 664.768 949.871 662.945 949.871 661.305C949.871 659.664 949.816 658.424 949.707 657.586C949.853 657.221 950.035 657.003 950.254 656.93C950.509 656.857 950.801 656.82 951.129 656.82C951.421 656.82 951.676 656.857 951.895 656.93C952.15 657.003 952.368 657.221 952.551 657.586C952.551 657.987 952.551 658.661 952.551 659.609C952.587 660.557 952.642 661.633 952.715 662.836C952.788 664.003 952.861 665.242 952.934 666.555C953.007 667.831 953.061 669.052 953.098 670.219C953.171 671.385 953.225 672.443 953.262 673.391C953.335 674.302 953.389 674.977 953.426 675.414C953.462 675.669 953.499 676.089 953.535 676.672C953.608 677.255 953.699 677.875 953.809 678.531C953.954 679.151 954.118 679.716 954.301 680.227C954.52 680.737 954.793 681.01 955.121 681.047C955.668 681.047 956.215 680.81 956.762 680.336C957.345 679.862 957.91 679.26 958.457 678.531C959.004 677.802 959.514 677 959.988 676.125C960.462 675.25 960.882 674.411 961.246 673.609C961.647 672.771 961.939 672.023 962.121 671.367C962.34 670.711 962.467 670.237 962.504 669.945C962.577 669.326 962.65 668.451 962.723 667.32C962.796 666.154 962.85 664.914 962.887 663.602C962.923 662.289 962.941 661.049 962.941 659.883C962.978 658.716 962.996 657.823 962.996 657.203L966.004 657.367C966.04 660.32 966.022 663 965.949 665.406C965.876 667.776 965.858 670.018 965.895 672.133C965.931 674.211 966.095 676.234 966.387 678.203C966.678 680.172 967.207 682.214 967.973 684.328C967.863 684.438 967.645 684.583 967.316 684.766C966.988 684.984 966.751 685.094 966.605 685.094C965.694 685.094 965.074 684.784 964.746 684.164C964.454 683.581 964.254 682.888 964.145 682.086C964.072 681.247 963.999 680.427 963.926 679.625C963.889 678.786 963.652 678.13 963.215 677.656ZM972.621 672.188C972.439 672.224 972.165 672.279 971.801 672.352C971.436 672.424 971.053 672.443 970.652 672.406C970.251 672.37 969.905 672.26 969.613 672.078C969.285 671.896 969.121 671.586 969.121 671.148C969.121 670.893 969.176 670.711 969.285 670.602C969.395 670.492 969.577 670.328 969.832 670.109C970.634 669.453 971.309 668.615 971.855 667.594C972.439 666.536 972.967 665.424 973.441 664.258C973.915 663.055 974.408 661.87 974.918 660.703C975.465 659.5 976.085 658.424 976.777 657.477C977.47 656.529 978.327 655.763 979.348 655.18C980.368 654.596 981.626 654.323 983.121 654.359C983.741 654.359 984.434 654.505 985.199 654.797C985.965 655.089 986.676 655.49 987.332 656C987.988 656.474 988.535 657.057 988.973 657.75C989.41 658.443 989.629 659.208 989.629 660.047C989.811 660.339 989.629 660.758 989.082 661.305C988.572 661.852 987.861 662.453 986.949 663.109C986.038 663.729 984.999 664.385 983.832 665.078C982.702 665.734 981.608 666.354 980.551 666.938C979.493 667.521 978.564 668.031 977.762 668.469C976.96 668.906 976.431 669.234 976.176 669.453C975.993 669.818 975.848 670.237 975.738 670.711C975.629 671.185 975.538 671.641 975.465 672.078C975.428 672.479 975.392 672.862 975.355 673.227C975.355 673.555 975.355 673.81 975.355 673.992C975.355 674.685 975.319 675.451 975.246 676.289C975.21 677.128 975.246 677.93 975.355 678.695C975.501 679.424 975.811 680.044 976.285 680.555C976.759 681.029 977.561 681.266 978.691 681.266C979.895 681.266 981.025 680.974 982.082 680.391C983.139 679.771 984.124 679.023 985.035 678.148C985.947 677.273 986.767 676.326 987.496 675.305C988.262 674.284 988.936 673.336 989.52 672.461C990.139 671.549 990.686 670.802 991.16 670.219C991.634 669.635 992.035 669.344 992.363 669.344C992.728 669.344 993.111 669.417 993.512 669.562C993.949 669.672 994.168 669.964 994.168 670.438C994.168 671.094 993.895 671.878 993.348 672.789C992.837 673.701 992.145 674.667 991.27 675.688C990.431 676.708 989.447 677.729 988.316 678.75C987.223 679.734 986.111 680.628 984.98 681.43C983.85 682.195 982.738 682.833 981.645 683.344C980.551 683.818 979.585 684.055 978.746 684.055C977.105 684.055 975.866 683.654 975.027 682.852C974.189 682.049 973.587 681.047 973.223 679.844C972.895 678.641 972.712 677.365 972.676 676.016C972.676 674.63 972.658 673.354 972.621 672.188ZM982.684 657.422C982.064 657.422 981.408 657.732 980.715 658.352C980.022 658.935 979.366 659.664 978.746 660.539C978.163 661.378 977.671 662.253 977.27 663.164C976.905 664.039 976.723 664.768 976.723 665.352C977.27 665.352 978.053 665.151 979.074 664.75C980.132 664.312 981.171 663.784 982.191 663.164C983.212 662.544 984.105 661.888 984.871 661.195C985.637 660.503 986.02 659.846 986.02 659.227C986.02 658.898 985.892 658.625 985.637 658.406C985.382 658.188 985.072 658.005 984.707 657.859C984.379 657.714 984.033 657.604 983.668 657.531C983.303 657.458 982.975 657.422 982.684 657.422ZM1001.22 683.18C1001.22 683.216 1001.61 682.997 1002.37 682.523C1003.17 682.049 1004.1 681.43 1005.16 680.664C1006.25 679.862 1007.37 679.005 1008.5 678.094C1009.63 677.146 1010.56 676.253 1011.29 675.414C1012.01 674.576 1012.4 673.865 1012.43 673.281C1012.51 672.661 1012.01 672.26 1010.96 672.078C1009.64 671.896 1008.53 671.914 1007.62 672.133C1006.75 672.352 1005.94 672.607 1005.21 672.898C1004.49 673.19 1003.79 673.464 1003.14 673.719C1002.52 673.974 1001.82 674.065 1001.06 673.992C999.454 673.992 998.342 673.5 997.723 672.516C997.139 671.495 996.848 670.128 996.848 668.414C996.848 666.701 997.23 665.078 997.996 663.547C998.762 661.979 999.746 660.63 1000.95 659.5C1002.15 658.37 1003.54 657.477 1005.11 656.82C1006.67 656.128 1008.28 655.781 1009.92 655.781C1010.57 655.781 1011.14 655.836 1011.61 655.945C1012.09 656.055 1012.32 656.474 1012.32 657.203C1012.32 657.714 1012.11 658.206 1011.67 658.68C1011.23 659.117 1010.74 659.336 1010.19 659.336C1010.15 659.336 1010.06 659.318 1009.92 659.281C1009.77 659.208 1009.63 659.117 1009.48 659.008C1009.33 658.898 1009.19 658.826 1009.04 658.789C1008.9 658.716 1008.81 658.68 1008.77 658.68C1007.6 658.352 1006.47 658.516 1005.38 659.172C1004.29 659.828 1003.3 660.721 1002.43 661.852C1001.59 662.945 1000.91 664.148 1000.4 665.461C999.892 666.737 999.637 667.885 999.637 668.906C999.637 669.307 999.71 669.635 999.855 669.891C1000.04 670.109 1000.26 670.273 1000.51 670.383C1000.8 670.492 1001.11 670.565 1001.44 670.602C1001.81 670.602 1002.17 670.602 1002.54 670.602C1003.26 670.602 1003.99 670.492 1004.72 670.273C1005.49 670.055 1006.22 669.799 1006.91 669.508C1007.64 669.216 1008.37 668.961 1009.1 668.742C1009.86 668.523 1010.65 668.414 1011.45 668.414C1011.81 668.414 1012.21 668.523 1012.65 668.742C1013.09 668.924 1013.49 669.216 1013.86 669.617C1014.22 669.982 1014.53 670.419 1014.79 670.93C1015.04 671.404 1015.19 671.932 1015.22 672.516C1015.44 673.026 1015.37 673.701 1015 674.539C1014.68 675.378 1014.17 676.271 1013.47 677.219C1012.78 678.167 1011.94 679.133 1010.96 680.117C1009.97 681.065 1008.99 681.94 1008 682.742C1007.02 683.508 1006.05 684.128 1005.11 684.602C1004.16 685.112 1003.36 685.349 1002.7 685.312C1001.97 685.312 1001.53 685.094 1001.39 684.656C1001.28 684.219 1001.22 683.727 1001.22 683.18ZM1018.89 660.648C1018.52 660.831 1018.18 661.031 1017.85 661.25C1017.56 661.432 1017.26 661.615 1016.97 661.797C1016.68 661.943 1016.39 662.052 1016.1 662.125C1015.81 662.198 1015.5 662.198 1015.17 662.125C1014.95 662.125 1014.77 661.997 1014.62 661.742C1014.48 661.451 1014.37 661.141 1014.29 660.812C1014.18 660.448 1014.11 660.102 1014.07 659.773C1014.04 659.409 1014.04 659.135 1014.07 658.953L1019.32 655.945L1019.65 641.945C1019.73 641.471 1020.02 641.289 1020.53 641.398C1021.04 641.471 1021.57 641.581 1022.11 641.727C1022.19 641.727 1022.3 641.763 1022.44 641.836C1022.62 641.872 1022.75 641.909 1022.82 641.945C1022.75 642.93 1022.66 644.005 1022.55 645.172C1022.48 646.302 1022.4 647.451 1022.33 648.617C1022.26 649.747 1022.2 650.859 1022.17 651.953C1022.17 653.047 1022.22 654.031 1022.33 654.906L1030.54 652.609C1030.68 652.573 1030.79 652.682 1030.86 652.938C1030.97 653.156 1031.06 653.43 1031.14 653.758C1031.25 654.086 1031.32 654.414 1031.36 654.742C1031.39 655.07 1031.41 655.234 1031.41 655.234L1022.11 659.172C1022.11 659.5 1022.13 660.284 1022.17 661.523C1022.24 662.763 1022.31 664.24 1022.39 665.953C1022.46 667.63 1022.53 669.453 1022.61 671.422C1022.68 673.354 1022.75 675.159 1022.82 676.836C1022.9 678.513 1022.95 679.99 1022.99 681.266C1023.02 682.505 1023.04 683.289 1023.04 683.617C1022.97 684.711 1022.64 685.258 1022.06 685.258C1021.51 685.258 1020.91 684.984 1020.25 684.438L1018.89 660.648Z" fill="black"/>
<path d="M631.003 478.879C630.384 479.429 630.329 480.377 630.879 480.997L639.848 491.087C640.398 491.706 641.346 491.762 641.965 491.211C642.585 490.661 642.64 489.713 642.09 489.093L634.118 480.125L643.087 472.152C643.706 471.602 643.762 470.654 643.211 470.035C642.661 469.415 641.713 469.36 641.093 469.91L631.003 478.879ZM840.228 674.517C775.368 664.539 734.385 647.6 708.28 627.866C682.218 608.165 670.884 585.605 665.454 564.132C662.733 553.373 661.492 542.872 660.635 533.096C659.783 523.371 659.305 514.242 658.108 506.459C656.91 498.673 654.955 491.922 650.963 486.986C646.906 481.97 640.909 479.021 632.088 478.503L631.912 481.497C640.091 481.979 645.219 484.655 648.631 488.873C652.107 493.172 653.965 499.265 655.142 506.916C656.32 514.57 656.78 523.473 657.646 533.358C658.508 543.19 659.767 553.877 662.546 564.868C668.116 586.895 679.782 610.085 706.47 630.259C733.115 650.4 774.632 667.461 839.772 677.483L840.228 674.517Z" fill="black"/>
<path d="M612.927 302.995C612.348 303.588 612.359 304.537 612.952 305.117L622.606 314.553C623.198 315.132 624.148 315.121 624.727 314.529C625.306 313.936 625.295 312.987 624.703 312.407L616.121 304.02L624.509 295.438C625.088 294.846 625.077 293.896 624.485 293.317C623.892 292.738 622.943 292.749 622.364 293.341L612.927 302.995ZM987.368 431.385C976.94 408.165 956.63 388.448 930.11 371.961C903.581 355.466 870.733 342.138 835.054 331.737C763.699 310.935 680.812 301.781 613.983 302.544L614.017 305.544C680.595 304.784 763.183 313.909 834.215 334.617C869.729 344.97 902.302 358.204 928.526 374.508C954.76 390.819 974.536 410.136 984.632 432.615L987.368 431.385Z" fill="black"/>
<circle cx="1108.14" cy="95.1362" r="53.1362" fill="#688A00"/>
<path d="M1117.45 71.6799V120.812H1105.6V82.7635H1105.31L1094.32 89.4809V79.2129L1106.44 71.6799H1117.45Z" fill="white"/>
</svg>
