<svg width="1200" height="900" viewBox="0 0 1200 900" fill="none" xmlns="http://www.w3.org/2000/svg">
<rect width="1200" height="900" fill="white"/>
<path fill-rule="evenodd" clip-rule="evenodd" d="M712.52 106.345V804.292C712.52 813.548 705.01 821.051 695.749 821.051H105.771C96.5106 821.051 89 813.548 89 804.292V106.345C89 97.0891 96.5093 89.5859 105.771 89.5859H695.749C705.009 89.5859 712.52 97.0891 712.52 106.345Z" fill="#D2D2D2"/>
<path fill-rule="evenodd" clip-rule="evenodd" d="M195.964 787.534H688.372V800.398H195.964V787.534ZM195.964 766.832H688.372V779.696H195.964V766.832ZM195.964 747.116H688.372V759.98H195.964V747.116ZM112.664 112.259H688.372V125.075H112.664V112.259Z" fill="#A3A3A3"/>
<path fill-rule="evenodd" clip-rule="evenodd" d="M119.386 147.787H682.131C683.012 147.787 683.885 147.96 684.699 148.297C685.513 148.634 686.252 149.128 686.875 149.751C687.498 150.374 687.993 151.113 688.33 151.927C688.667 152.741 688.841 153.613 688.841 154.494V717.175C688.841 718.954 688.134 720.661 686.876 721.919C685.618 723.177 683.912 723.884 682.133 723.884H119.385C117.606 723.884 115.9 723.177 114.642 721.919C113.384 720.661 112.677 718.954 112.677 717.175V154.494C112.677 152.715 113.384 151.009 114.642 149.752C115.9 148.494 117.606 147.787 119.385 147.787H119.386Z" fill="#FDDFE1"/>
<path d="M112.417 178.308H689.111V718.034C689.111 719.668 688.462 721.235 687.307 722.391C686.151 723.546 684.584 724.195 682.95 724.195H118.578C116.944 724.195 115.377 723.546 114.222 722.391C113.066 721.235 112.417 719.668 112.417 718.034V178.308Z" fill="#EFFFBD"/>
<path d="M112.417 527.036H689.111V718.035C689.111 719.669 688.462 721.236 687.307 722.392C686.151 723.547 684.584 724.197 682.95 724.197H118.578C116.944 724.197 115.377 723.547 114.222 722.392C113.066 721.236 112.417 719.669 112.417 718.035V527.036Z" fill="#66E8FF"/>
<path d="M112.417 662.582H689.111V714.337C689.111 716.951 688.073 719.459 686.224 721.307C684.375 723.156 681.868 724.195 679.253 724.195H122.275C119.661 724.195 117.153 723.156 115.304 721.307C113.456 719.459 112.417 716.951 112.417 714.337V662.582Z" fill="#00A8C6"/>
<path d="M89 178.308L712.52 179.54" stroke="black" stroke-width="13.5548" stroke-dasharray="36.97 36.97"/>
<rect x="331.713" y="367" width="137.981" height="137.981" fill="#8FBE00"/>
<path d="M827.125 673.992C826.76 674.831 826.286 675.797 825.703 676.891C825.156 677.984 824.5 679.023 823.734 680.008C823.005 680.992 822.148 681.831 821.164 682.523C820.18 683.216 819.086 683.562 817.883 683.562C817.336 683.562 816.898 683.508 816.57 683.398C816.279 683.253 816.005 683.052 815.75 682.797C815.531 682.542 815.312 682.232 815.094 681.867C814.911 681.503 814.674 681.102 814.383 680.664C814.273 678.878 814.201 676.964 814.164 674.922C814.164 672.844 814.273 670.784 814.492 668.742C814.711 666.664 815.076 664.714 815.586 662.891C816.133 661.068 816.88 659.518 817.828 658.242C818.812 656.966 820.034 656.055 821.492 655.508C822.951 654.961 824.719 654.924 826.797 655.398C826.906 654.378 826.924 653.01 826.852 651.297C826.779 649.583 826.669 647.779 826.523 645.883C826.378 643.987 826.232 642.164 826.086 640.414C825.94 638.628 825.849 637.169 825.812 636.039C825.812 635.711 825.958 635.474 826.25 635.328C826.578 635.146 826.924 635.036 827.289 635C827.654 634.964 828 634.964 828.328 635C828.693 635.036 828.93 635.091 829.039 635.164C828.966 639.648 828.948 644.06 828.984 648.398C829.021 652.701 829.057 657.003 829.094 661.305C829.167 665.57 829.24 669.818 829.312 674.047C829.385 678.276 829.422 682.505 829.422 686.734C829.422 687.135 829.385 687.555 829.312 687.992C829.276 688.466 828.966 688.703 828.383 688.703C828.164 688.703 827.945 688.63 827.727 688.484C827.508 688.375 827.362 688.193 827.289 687.938L827.125 673.992ZM824.773 658.133C823.643 658.06 822.586 658.516 821.602 659.5C820.654 660.448 819.815 661.688 819.086 663.219C818.393 664.75 817.828 666.445 817.391 668.305C816.953 670.128 816.68 671.896 816.57 673.609C816.497 675.286 816.607 676.781 816.898 678.094C817.227 679.406 817.792 680.299 818.594 680.773C819.396 680.773 820.143 680.464 820.836 679.844C821.529 679.188 822.167 678.367 822.75 677.383C823.333 676.398 823.844 675.305 824.281 674.102C824.719 672.862 825.083 671.677 825.375 670.547C825.703 669.417 825.94 668.396 826.086 667.484C826.268 666.536 826.359 665.826 826.359 665.352C826.359 664.987 826.378 664.404 826.414 663.602C826.451 662.799 826.432 661.997 826.359 661.195C826.286 660.393 826.122 659.682 825.867 659.062C825.648 658.443 825.284 658.133 824.773 658.133ZM834.453 672.188C834.271 672.224 833.997 672.279 833.633 672.352C833.268 672.424 832.885 672.443 832.484 672.406C832.083 672.37 831.737 672.26 831.445 672.078C831.117 671.896 830.953 671.586 830.953 671.148C830.953 670.893 831.008 670.711 831.117 670.602C831.227 670.492 831.409 670.328 831.664 670.109C832.466 669.453 833.141 668.615 833.688 667.594C834.271 666.536 834.799 665.424 835.273 664.258C835.747 663.055 836.24 661.87 836.75 660.703C837.297 659.5 837.917 658.424 838.609 657.477C839.302 656.529 840.159 655.763 841.18 655.18C842.201 654.596 843.458 654.323 844.953 654.359C845.573 654.359 846.266 654.505 847.031 654.797C847.797 655.089 848.508 655.49 849.164 656C849.82 656.474 850.367 657.057 850.805 657.75C851.242 658.443 851.461 659.208 851.461 660.047C851.643 660.339 851.461 660.758 850.914 661.305C850.404 661.852 849.693 662.453 848.781 663.109C847.87 663.729 846.831 664.385 845.664 665.078C844.534 665.734 843.44 666.354 842.383 666.938C841.326 667.521 840.396 668.031 839.594 668.469C838.792 668.906 838.263 669.234 838.008 669.453C837.826 669.818 837.68 670.237 837.57 670.711C837.461 671.185 837.37 671.641 837.297 672.078C837.26 672.479 837.224 672.862 837.188 673.227C837.188 673.555 837.188 673.81 837.188 673.992C837.188 674.685 837.151 675.451 837.078 676.289C837.042 677.128 837.078 677.93 837.188 678.695C837.333 679.424 837.643 680.044 838.117 680.555C838.591 681.029 839.393 681.266 840.523 681.266C841.727 681.266 842.857 680.974 843.914 680.391C844.971 679.771 845.956 679.023 846.867 678.148C847.779 677.273 848.599 676.326 849.328 675.305C850.094 674.284 850.768 673.336 851.352 672.461C851.971 671.549 852.518 670.802 852.992 670.219C853.466 669.635 853.867 669.344 854.195 669.344C854.56 669.344 854.943 669.417 855.344 669.562C855.781 669.672 856 669.964 856 670.438C856 671.094 855.727 671.878 855.18 672.789C854.669 673.701 853.977 674.667 853.102 675.688C852.263 676.708 851.279 677.729 850.148 678.75C849.055 679.734 847.943 680.628 846.812 681.43C845.682 682.195 844.57 682.833 843.477 683.344C842.383 683.818 841.417 684.055 840.578 684.055C838.938 684.055 837.698 683.654 836.859 682.852C836.021 682.049 835.419 681.047 835.055 679.844C834.727 678.641 834.544 677.365 834.508 676.016C834.508 674.63 834.49 673.354 834.453 672.188ZM844.516 657.422C843.896 657.422 843.24 657.732 842.547 658.352C841.854 658.935 841.198 659.664 840.578 660.539C839.995 661.378 839.503 662.253 839.102 663.164C838.737 664.039 838.555 664.768 838.555 665.352C839.102 665.352 839.885 665.151 840.906 664.75C841.964 664.312 843.003 663.784 844.023 663.164C845.044 662.544 845.938 661.888 846.703 661.195C847.469 660.503 847.852 659.846 847.852 659.227C847.852 658.898 847.724 658.625 847.469 658.406C847.214 658.188 846.904 658.005 846.539 657.859C846.211 657.714 845.865 657.604 845.5 657.531C845.135 657.458 844.807 657.422 844.516 657.422ZM870.711 673.992C870.346 674.831 869.872 675.797 869.289 676.891C868.742 677.984 868.086 679.023 867.32 680.008C866.591 680.992 865.734 681.831 864.75 682.523C863.766 683.216 862.672 683.562 861.469 683.562C860.922 683.562 860.484 683.508 860.156 683.398C859.865 683.253 859.591 683.052 859.336 682.797C859.117 682.542 858.898 682.232 858.68 681.867C858.497 681.503 858.26 681.102 857.969 680.664C857.859 678.878 857.786 676.964 857.75 674.922C857.75 672.844 857.859 670.784 858.078 668.742C858.297 666.664 858.661 664.714 859.172 662.891C859.719 661.068 860.466 659.518 861.414 658.242C862.398 656.966 863.62 656.055 865.078 655.508C866.536 654.961 868.305 654.924 870.383 655.398C870.492 654.378 870.51 653.01 870.438 651.297C870.365 649.583 870.255 647.779 870.109 645.883C869.964 643.987 869.818 642.164 869.672 640.414C869.526 638.628 869.435 637.169 869.398 636.039C869.398 635.711 869.544 635.474 869.836 635.328C870.164 635.146 870.51 635.036 870.875 635C871.24 634.964 871.586 634.964 871.914 635C872.279 635.036 872.516 635.091 872.625 635.164C872.552 639.648 872.534 644.06 872.57 648.398C872.607 652.701 872.643 657.003 872.68 661.305C872.753 665.57 872.826 669.818 872.898 674.047C872.971 678.276 873.008 682.505 873.008 686.734C873.008 687.135 872.971 687.555 872.898 687.992C872.862 688.466 872.552 688.703 871.969 688.703C871.75 688.703 871.531 688.63 871.312 688.484C871.094 688.375 870.948 688.193 870.875 687.938L870.711 673.992ZM868.359 658.133C867.229 658.06 866.172 658.516 865.188 659.5C864.24 660.448 863.401 661.688 862.672 663.219C861.979 664.75 861.414 666.445 860.977 668.305C860.539 670.128 860.266 671.896 860.156 673.609C860.083 675.286 860.193 676.781 860.484 678.094C860.812 679.406 861.378 680.299 862.18 680.773C862.982 680.773 863.729 680.464 864.422 679.844C865.115 679.188 865.753 678.367 866.336 677.383C866.919 676.398 867.43 675.305 867.867 674.102C868.305 672.862 868.669 671.677 868.961 670.547C869.289 669.417 869.526 668.396 869.672 667.484C869.854 666.536 869.945 665.826 869.945 665.352C869.945 664.987 869.964 664.404 870 663.602C870.036 662.799 870.018 661.997 869.945 661.195C869.872 660.393 869.708 659.682 869.453 659.062C869.234 658.443 868.87 658.133 868.359 658.133ZM877.328 682.906C877.328 680.536 877.273 678.039 877.164 675.414C877.091 672.789 877 670.146 876.891 667.484C876.818 664.786 876.799 662.143 876.836 659.555C876.872 656.966 877.036 654.542 877.328 652.281C877.401 652.245 877.565 652.227 877.82 652.227C878.112 652.19 878.312 652.172 878.422 652.172C878.932 652.172 879.333 652.263 879.625 652.445C879.953 652.591 880.117 652.938 880.117 653.484C880.117 655.635 880.099 657.987 880.062 660.539C880.062 663.055 880.044 665.625 880.008 668.25C880.008 670.839 880.008 673.409 880.008 675.961C880.008 678.513 880.044 680.828 880.117 682.906C880.154 683.526 880.026 683.927 879.734 684.109C879.479 684.328 879.151 684.438 878.75 684.438C878.312 684.438 877.948 684.328 877.656 684.109C877.365 683.927 877.255 683.526 877.328 682.906ZM876.125 643.75C876.125 643.312 876.271 643.021 876.562 642.875C876.854 642.729 877.182 642.656 877.547 642.656C878.276 642.656 878.732 642.893 878.914 643.367C879.096 643.841 879.188 644.388 879.188 645.008C878.969 645.409 878.695 645.701 878.367 645.883C878.039 646.029 877.693 646.065 877.328 645.992C877 645.883 876.708 645.646 876.453 645.281C876.234 644.917 876.125 644.406 876.125 643.75ZM883.891 671.422C884 670.109 884.109 668.688 884.219 667.156C884.328 665.589 884.492 664.039 884.711 662.508C884.966 660.977 885.276 659.518 885.641 658.133C886.042 656.747 886.552 655.526 887.172 654.469C887.828 653.375 888.63 652.518 889.578 651.898C890.526 651.242 891.674 650.932 893.023 650.969C893.935 650.969 894.628 651.352 895.102 652.117C895.612 652.883 895.958 653.812 896.141 654.906C896.359 656 896.469 657.13 896.469 658.297C896.505 659.427 896.523 660.357 896.523 661.086C895.794 661.086 895.193 660.776 894.719 660.156C894.245 659.5 893.88 658.753 893.625 657.914C893.37 657.076 893.188 656.255 893.078 655.453L892.914 653.867C892.878 653.867 892.805 653.867 892.695 653.867C892.622 653.831 892.568 653.812 892.531 653.812C891.911 653.812 891.328 654.159 890.781 654.852C890.271 655.544 889.779 656.438 889.305 657.531C888.867 658.589 888.484 659.792 888.156 661.141C887.828 662.453 887.555 663.747 887.336 665.023C887.117 666.299 886.935 667.484 886.789 668.578C886.68 669.635 886.625 670.456 886.625 671.039C886.552 671.987 886.552 673.026 886.625 674.156C886.698 675.286 886.917 676.344 887.281 677.328C887.646 678.312 888.156 679.169 888.812 679.898C889.469 680.591 890.344 681.065 891.438 681.32C892.786 681.32 893.88 681.138 894.719 680.773C895.557 680.409 896.232 679.917 896.742 679.297C897.289 678.677 897.708 677.984 898 677.219C898.292 676.453 898.565 675.669 898.82 674.867C899.112 674.029 899.404 673.208 899.695 672.406C899.987 671.604 900.406 670.857 900.953 670.164C901.391 670.055 901.701 670.073 901.883 670.219C902.102 670.328 902.247 670.492 902.32 670.711C902.393 670.93 902.43 671.185 902.43 671.477V672.078C902.43 673.609 902.174 675.086 901.664 676.508C901.154 677.93 900.406 679.206 899.422 680.336C898.438 681.43 897.253 682.323 895.867 683.016C894.518 683.672 892.969 684 891.219 684C889.76 684 888.539 683.544 887.555 682.633C886.607 681.685 885.859 680.555 885.312 679.242C884.802 677.93 884.438 676.562 884.219 675.141C884 673.682 883.891 672.443 883.891 671.422ZM921.297 682.578C921.115 681.63 920.951 680.5 920.805 679.188C920.695 677.839 920.568 676.49 920.422 675.141C920.276 673.755 920.094 672.461 919.875 671.258C919.693 670.055 919.401 669.07 919 668.305C917.141 672.096 915.5 675.086 914.078 677.273C912.656 679.424 911.398 680.974 910.305 681.922C909.247 682.833 908.354 683.271 907.625 683.234C906.896 683.198 906.294 682.87 905.82 682.25C905.346 681.63 905 680.846 904.781 679.898C904.599 678.914 904.471 678.003 904.398 677.164C904.398 676.362 904.581 675.232 904.945 673.773C905.31 672.315 905.802 670.729 906.422 669.016C907.042 667.266 907.771 665.497 908.609 663.711C909.484 661.924 910.414 660.302 911.398 658.844C912.383 657.385 913.404 656.182 914.461 655.234C915.518 654.286 916.576 653.812 917.633 653.812C919.201 653.557 920.349 653.904 921.078 654.852C921.844 655.763 921.99 657.312 921.516 659.5C921.516 661.906 921.607 663.966 921.789 665.68C922.008 667.393 922.227 669.034 922.445 670.602C922.701 672.169 922.919 673.81 923.102 675.523C923.32 677.237 923.43 679.297 923.43 681.703C923.43 682.141 923.375 682.523 923.266 682.852C923.193 683.143 922.755 683.289 921.953 683.289C921.844 683.289 921.698 683.198 921.516 683.016C921.37 682.833 921.297 682.688 921.297 682.578ZM918.344 658.133C917.943 657.549 917.396 657.495 916.703 657.969C916.01 658.443 915.281 659.227 914.516 660.32C913.75 661.414 912.966 662.727 912.164 664.258C911.362 665.789 910.615 667.339 909.922 668.906C909.229 670.474 908.628 671.969 908.117 673.391C907.607 674.776 907.26 675.924 907.078 676.836C907.078 678.148 907.279 678.896 907.68 679.078C908.081 679.224 908.573 679.005 909.156 678.422C909.74 677.839 910.396 677 911.125 675.906C911.891 674.812 912.62 673.646 913.312 672.406C914.042 671.167 914.716 669.964 915.336 668.797C915.992 667.63 916.503 666.682 916.867 665.953C917.195 665.188 917.451 664.477 917.633 663.82C917.815 663.164 917.961 662.544 918.07 661.961C918.216 661.341 918.289 660.721 918.289 660.102C918.326 659.482 918.344 658.826 918.344 658.133ZM927.75 660.648C927.385 660.831 927.039 661.031 926.711 661.25C926.419 661.432 926.128 661.615 925.836 661.797C925.544 661.943 925.253 662.052 924.961 662.125C924.669 662.198 924.359 662.198 924.031 662.125C923.812 662.125 923.63 661.997 923.484 661.742C923.339 661.451 923.229 661.141 923.156 660.812C923.047 660.448 922.974 660.102 922.938 659.773C922.901 659.409 922.901 659.135 922.938 658.953L928.188 655.945L928.516 641.945C928.589 641.471 928.88 641.289 929.391 641.398C929.901 641.471 930.43 641.581 930.977 641.727C931.049 641.727 931.159 641.763 931.305 641.836C931.487 641.872 931.615 641.909 931.688 641.945C931.615 642.93 931.523 644.005 931.414 645.172C931.341 646.302 931.268 647.451 931.195 648.617C931.122 649.747 931.068 650.859 931.031 651.953C931.031 653.047 931.086 654.031 931.195 654.906L939.398 652.609C939.544 652.573 939.654 652.682 939.727 652.938C939.836 653.156 939.927 653.43 940 653.758C940.109 654.086 940.182 654.414 940.219 654.742C940.255 655.07 940.273 655.234 940.273 655.234L930.977 659.172C930.977 659.5 930.995 660.284 931.031 661.523C931.104 662.763 931.177 664.24 931.25 665.953C931.323 667.63 931.396 669.453 931.469 671.422C931.542 673.354 931.615 675.159 931.688 676.836C931.76 678.513 931.815 679.99 931.852 681.266C931.888 682.505 931.906 683.289 931.906 683.617C931.833 684.711 931.505 685.258 930.922 685.258C930.375 685.258 929.773 684.984 929.117 684.438L927.75 660.648ZM942.898 672.188C942.716 672.224 942.443 672.279 942.078 672.352C941.714 672.424 941.331 672.443 940.93 672.406C940.529 672.37 940.182 672.26 939.891 672.078C939.562 671.896 939.398 671.586 939.398 671.148C939.398 670.893 939.453 670.711 939.562 670.602C939.672 670.492 939.854 670.328 940.109 670.109C940.911 669.453 941.586 668.615 942.133 667.594C942.716 666.536 943.245 665.424 943.719 664.258C944.193 663.055 944.685 661.87 945.195 660.703C945.742 659.5 946.362 658.424 947.055 657.477C947.747 656.529 948.604 655.763 949.625 655.18C950.646 654.596 951.904 654.323 953.398 654.359C954.018 654.359 954.711 654.505 955.477 654.797C956.242 655.089 956.953 655.49 957.609 656C958.266 656.474 958.812 657.057 959.25 657.75C959.688 658.443 959.906 659.208 959.906 660.047C960.089 660.339 959.906 660.758 959.359 661.305C958.849 661.852 958.138 662.453 957.227 663.109C956.315 663.729 955.276 664.385 954.109 665.078C952.979 665.734 951.885 666.354 950.828 666.938C949.771 667.521 948.841 668.031 948.039 668.469C947.237 668.906 946.708 669.234 946.453 669.453C946.271 669.818 946.125 670.237 946.016 670.711C945.906 671.185 945.815 671.641 945.742 672.078C945.706 672.479 945.669 672.862 945.633 673.227C945.633 673.555 945.633 673.81 945.633 673.992C945.633 674.685 945.596 675.451 945.523 676.289C945.487 677.128 945.523 677.93 945.633 678.695C945.779 679.424 946.089 680.044 946.562 680.555C947.036 681.029 947.839 681.266 948.969 681.266C950.172 681.266 951.302 680.974 952.359 680.391C953.417 679.771 954.401 679.023 955.312 678.148C956.224 677.273 957.044 676.326 957.773 675.305C958.539 674.284 959.214 673.336 959.797 672.461C960.417 671.549 960.964 670.802 961.438 670.219C961.911 669.635 962.312 669.344 962.641 669.344C963.005 669.344 963.388 669.417 963.789 669.562C964.227 669.672 964.445 669.964 964.445 670.438C964.445 671.094 964.172 671.878 963.625 672.789C963.115 673.701 962.422 674.667 961.547 675.688C960.708 676.708 959.724 677.729 958.594 678.75C957.5 679.734 956.388 680.628 955.258 681.43C954.128 682.195 953.016 682.833 951.922 683.344C950.828 683.818 949.862 684.055 949.023 684.055C947.383 684.055 946.143 683.654 945.305 682.852C944.466 682.049 943.865 681.047 943.5 679.844C943.172 678.641 942.99 677.365 942.953 676.016C942.953 674.63 942.935 673.354 942.898 672.188ZM952.961 657.422C952.341 657.422 951.685 657.732 950.992 658.352C950.299 658.935 949.643 659.664 949.023 660.539C948.44 661.378 947.948 662.253 947.547 663.164C947.182 664.039 947 664.768 947 665.352C947.547 665.352 948.331 665.151 949.352 664.75C950.409 664.312 951.448 663.784 952.469 663.164C953.49 662.544 954.383 661.888 955.148 661.195C955.914 660.503 956.297 659.846 956.297 659.227C956.297 658.898 956.169 658.625 955.914 658.406C955.659 658.188 955.349 658.005 954.984 657.859C954.656 657.714 954.31 657.604 953.945 657.531C953.581 657.458 953.253 657.422 952.961 657.422ZM979.156 673.992C978.792 674.831 978.318 675.797 977.734 676.891C977.188 677.984 976.531 679.023 975.766 680.008C975.036 680.992 974.18 681.831 973.195 682.523C972.211 683.216 971.117 683.562 969.914 683.562C969.367 683.562 968.93 683.508 968.602 683.398C968.31 683.253 968.036 683.052 967.781 682.797C967.562 682.542 967.344 682.232 967.125 681.867C966.943 681.503 966.706 681.102 966.414 680.664C966.305 678.878 966.232 676.964 966.195 674.922C966.195 672.844 966.305 670.784 966.523 668.742C966.742 666.664 967.107 664.714 967.617 662.891C968.164 661.068 968.911 659.518 969.859 658.242C970.844 656.966 972.065 656.055 973.523 655.508C974.982 654.961 976.75 654.924 978.828 655.398C978.938 654.378 978.956 653.01 978.883 651.297C978.81 649.583 978.701 647.779 978.555 645.883C978.409 643.987 978.263 642.164 978.117 640.414C977.971 638.628 977.88 637.169 977.844 636.039C977.844 635.711 977.99 635.474 978.281 635.328C978.609 635.146 978.956 635.036 979.32 635C979.685 634.964 980.031 634.964 980.359 635C980.724 635.036 980.961 635.091 981.07 635.164C980.997 639.648 980.979 644.06 981.016 648.398C981.052 652.701 981.089 657.003 981.125 661.305C981.198 665.57 981.271 669.818 981.344 674.047C981.417 678.276 981.453 682.505 981.453 686.734C981.453 687.135 981.417 687.555 981.344 687.992C981.307 688.466 980.997 688.703 980.414 688.703C980.195 688.703 979.977 688.63 979.758 688.484C979.539 688.375 979.393 688.193 979.32 687.938L979.156 673.992ZM976.805 658.133C975.674 658.06 974.617 658.516 973.633 659.5C972.685 660.448 971.846 661.688 971.117 663.219C970.424 664.75 969.859 666.445 969.422 668.305C968.984 670.128 968.711 671.896 968.602 673.609C968.529 675.286 968.638 676.781 968.93 678.094C969.258 679.406 969.823 680.299 970.625 680.773C971.427 680.773 972.174 680.464 972.867 679.844C973.56 679.188 974.198 678.367 974.781 677.383C975.365 676.398 975.875 675.305 976.312 674.102C976.75 672.862 977.115 671.677 977.406 670.547C977.734 669.417 977.971 668.396 978.117 667.484C978.299 666.536 978.391 665.826 978.391 665.352C978.391 664.987 978.409 664.404 978.445 663.602C978.482 662.799 978.464 661.997 978.391 661.195C978.318 660.393 978.154 659.682 977.898 659.062C977.68 658.443 977.315 658.133 976.805 658.133ZM1012.41 683.289C1012.01 678.367 1011.64 673.445 1011.31 668.523C1011.02 663.565 1010.69 658.424 1010.33 653.102C1010.33 652.227 1010.8 651.789 1011.75 651.789H1012.19C1012.3 651.789 1012.42 651.935 1012.57 652.227C1012.72 652.518 1012.86 653.065 1013.01 653.867C1013.19 654.633 1013.37 655.818 1013.55 657.422C1013.77 658.99 1014.03 661.049 1014.32 663.602C1014.61 666.154 1014.94 669.344 1015.3 673.172C1016.07 670.693 1016.67 668.286 1017.11 665.953C1017.55 663.62 1018.11 661.505 1018.8 659.609C1019.5 657.677 1020.46 655.982 1021.7 654.523C1022.98 653.065 1024.8 651.99 1027.17 651.297C1028.48 651.516 1029.54 652.318 1030.34 653.703C1031.15 655.052 1031.78 656.729 1032.26 658.734C1032.73 660.74 1033.06 662.927 1033.24 665.297C1033.42 667.63 1033.53 669.872 1033.57 672.023C1033.61 674.174 1033.62 676.107 1033.62 677.82C1033.62 679.497 1033.66 680.701 1033.73 681.43C1033.62 681.721 1033.46 681.977 1033.24 682.195C1033.02 682.414 1032.77 682.578 1032.48 682.688C1032.22 682.76 1031.97 682.779 1031.71 682.742C1031.46 682.669 1031.22 682.469 1031 682.141C1031 681.74 1030.96 680.919 1030.89 679.68C1030.82 678.44 1030.73 677 1030.62 675.359C1030.51 673.682 1030.38 671.914 1030.23 670.055C1030.12 668.159 1030.02 666.391 1029.91 664.75C1029.83 663.073 1029.76 661.615 1029.69 660.375C1029.61 659.135 1029.56 658.315 1029.52 657.914C1028.76 656.565 1027.99 655.799 1027.23 655.617C1026.5 655.435 1025.75 655.672 1024.98 656.328C1024.26 656.984 1023.54 657.987 1022.85 659.336C1022.16 660.685 1021.5 662.216 1020.88 663.93C1020.26 665.607 1019.68 667.375 1019.13 669.234C1018.59 671.094 1018.11 672.898 1017.71 674.648C1017.31 676.362 1016.96 677.93 1016.67 679.352C1016.42 680.737 1016.25 681.812 1016.18 682.578C1016.07 682.833 1015.83 683.089 1015.47 683.344C1015.14 683.562 1014.78 683.727 1014.38 683.836C1014.01 683.945 1013.63 683.982 1013.23 683.945C1012.86 683.872 1012.59 683.654 1012.41 683.289ZM1037.12 676.508C1036.87 674.831 1036.74 673.208 1036.74 671.641C1036.74 670.036 1036.83 668.414 1037.02 666.773C1037.23 665.133 1037.53 663.438 1037.89 661.688C1038.29 659.901 1038.75 657.987 1039.26 655.945C1039.26 655.544 1039.37 655.18 1039.59 654.852C1039.8 654.487 1040.1 654.195 1040.46 653.977C1040.83 653.721 1041.21 653.521 1041.61 653.375C1042.01 653.229 1042.39 653.156 1042.76 653.156C1043.56 653.156 1044.29 653.411 1044.95 653.922C1045.6 654.432 1046.18 655.052 1046.7 655.781C1047.24 656.51 1047.7 657.294 1048.06 658.133C1048.46 658.935 1048.79 659.628 1049.05 660.211C1049.34 661.487 1049.54 662.945 1049.65 664.586C1049.79 666.19 1049.81 667.831 1049.7 669.508C1049.59 671.185 1049.34 672.844 1048.94 674.484C1048.54 676.089 1047.97 677.565 1047.24 678.914C1046.51 680.263 1045.57 681.393 1044.4 682.305C1043.27 683.216 1041.92 683.781 1040.35 684C1039.51 684 1038.88 683.727 1038.44 683.18C1038 682.596 1037.67 681.904 1037.45 681.102C1037.27 680.263 1037.16 679.424 1037.12 678.586C1037.12 677.747 1037.12 677.055 1037.12 676.508ZM1039.91 676.344C1039.91 676.708 1039.91 677.055 1039.91 677.383C1039.95 677.711 1039.99 678.039 1040.02 678.367C1040.1 678.659 1040.17 678.987 1040.24 679.352C1040.35 679.68 1040.48 680.062 1040.62 680.5H1040.95C1041.83 680.5 1042.58 680.208 1043.2 679.625C1043.82 679.042 1044.34 678.294 1044.78 677.383C1045.22 676.435 1045.58 675.396 1045.88 674.266C1046.17 673.099 1046.39 671.969 1046.53 670.875C1046.71 669.745 1046.82 668.706 1046.86 667.758C1046.93 666.773 1046.97 665.99 1046.97 665.406V664.312C1046.97 663.839 1046.95 663.31 1046.91 662.727C1046.88 662.107 1046.8 661.487 1046.7 660.867C1046.62 660.211 1046.49 659.628 1046.31 659.117C1046.13 658.57 1045.89 658.133 1045.6 657.805C1045.31 657.477 1044.93 657.312 1044.45 657.312C1043.65 657.057 1042.96 657.112 1042.38 657.477C1041.83 657.841 1041.37 658.461 1041.01 659.336C1040.68 660.174 1040.42 661.214 1040.24 662.453C1040.06 663.693 1039.95 665.06 1039.91 666.555C1039.88 668.049 1039.86 669.635 1039.86 671.312C1039.9 672.99 1039.91 674.667 1039.91 676.344ZM1064.09 673.992C1063.72 674.831 1063.25 675.797 1062.66 676.891C1062.12 677.984 1061.46 679.023 1060.7 680.008C1059.97 680.992 1059.11 681.831 1058.12 682.523C1057.14 683.216 1056.05 683.562 1054.84 683.562C1054.3 683.562 1053.86 683.508 1053.53 683.398C1053.24 683.253 1052.97 683.052 1052.71 682.797C1052.49 682.542 1052.27 682.232 1052.05 681.867C1051.87 681.503 1051.64 681.102 1051.34 680.664C1051.23 678.878 1051.16 676.964 1051.12 674.922C1051.12 672.844 1051.23 670.784 1051.45 668.742C1051.67 666.664 1052.04 664.714 1052.55 662.891C1053.09 661.068 1053.84 659.518 1054.79 658.242C1055.77 656.966 1056.99 656.055 1058.45 655.508C1059.91 654.961 1061.68 654.924 1063.76 655.398C1063.87 654.378 1063.89 653.01 1063.81 651.297C1063.74 649.583 1063.63 647.779 1063.48 645.883C1063.34 643.987 1063.19 642.164 1063.05 640.414C1062.9 638.628 1062.81 637.169 1062.77 636.039C1062.77 635.711 1062.92 635.474 1063.21 635.328C1063.54 635.146 1063.89 635.036 1064.25 635C1064.61 634.964 1064.96 634.964 1065.29 635C1065.65 635.036 1065.89 635.091 1066 635.164C1065.93 639.648 1065.91 644.06 1065.95 648.398C1065.98 652.701 1066.02 657.003 1066.05 661.305C1066.13 665.57 1066.2 669.818 1066.27 674.047C1066.35 678.276 1066.38 682.505 1066.38 686.734C1066.38 687.135 1066.35 687.555 1066.27 687.992C1066.24 688.466 1065.93 688.703 1065.34 688.703C1065.12 688.703 1064.91 688.63 1064.69 688.484C1064.47 688.375 1064.32 688.193 1064.25 687.938L1064.09 673.992ZM1061.73 658.133C1060.6 658.06 1059.55 658.516 1058.56 659.5C1057.61 660.448 1056.78 661.688 1056.05 663.219C1055.35 664.75 1054.79 666.445 1054.35 668.305C1053.91 670.128 1053.64 671.896 1053.53 673.609C1053.46 675.286 1053.57 676.781 1053.86 678.094C1054.19 679.406 1054.75 680.299 1055.55 680.773C1056.36 680.773 1057.1 680.464 1057.8 679.844C1058.49 679.188 1059.13 678.367 1059.71 677.383C1060.29 676.398 1060.8 675.305 1061.24 674.102C1061.68 672.862 1062.04 671.677 1062.34 670.547C1062.66 669.417 1062.9 668.396 1063.05 667.484C1063.23 666.536 1063.32 665.826 1063.32 665.352C1063.32 664.987 1063.34 664.404 1063.38 663.602C1063.41 662.799 1063.39 661.997 1063.32 661.195C1063.25 660.393 1063.08 659.682 1062.83 659.062C1062.61 658.443 1062.24 658.133 1061.73 658.133ZM1071.41 672.188C1071.23 672.224 1070.96 672.279 1070.59 672.352C1070.23 672.424 1069.85 672.443 1069.45 672.406C1069.04 672.37 1068.7 672.26 1068.41 672.078C1068.08 671.896 1067.91 671.586 1067.91 671.148C1067.91 670.893 1067.97 670.711 1068.08 670.602C1068.19 670.492 1068.37 670.328 1068.62 670.109C1069.43 669.453 1070.1 668.615 1070.65 667.594C1071.23 666.536 1071.76 665.424 1072.23 664.258C1072.71 663.055 1073.2 661.87 1073.71 660.703C1074.26 659.5 1074.88 658.424 1075.57 657.477C1076.26 656.529 1077.12 655.763 1078.14 655.18C1079.16 654.596 1080.42 654.323 1081.91 654.359C1082.53 654.359 1083.23 654.505 1083.99 654.797C1084.76 655.089 1085.47 655.49 1086.12 656C1086.78 656.474 1087.33 657.057 1087.77 657.75C1088.2 658.443 1088.42 659.208 1088.42 660.047C1088.6 660.339 1088.42 660.758 1087.88 661.305C1087.36 661.852 1086.65 662.453 1085.74 663.109C1084.83 663.729 1083.79 664.385 1082.62 665.078C1081.49 665.734 1080.4 666.354 1079.34 666.938C1078.29 667.521 1077.36 668.031 1076.55 668.469C1075.75 668.906 1075.22 669.234 1074.97 669.453C1074.79 669.818 1074.64 670.237 1074.53 670.711C1074.42 671.185 1074.33 671.641 1074.26 672.078C1074.22 672.479 1074.18 672.862 1074.15 673.227C1074.15 673.555 1074.15 673.81 1074.15 673.992C1074.15 674.685 1074.11 675.451 1074.04 676.289C1074 677.128 1074.04 677.93 1074.15 678.695C1074.29 679.424 1074.6 680.044 1075.08 680.555C1075.55 681.029 1076.35 681.266 1077.48 681.266C1078.69 681.266 1079.82 680.974 1080.88 680.391C1081.93 679.771 1082.92 679.023 1083.83 678.148C1084.74 677.273 1085.56 676.326 1086.29 675.305C1087.05 674.284 1087.73 673.336 1088.31 672.461C1088.93 671.549 1089.48 670.802 1089.95 670.219C1090.43 669.635 1090.83 669.344 1091.16 669.344C1091.52 669.344 1091.9 669.417 1092.3 669.562C1092.74 669.672 1092.96 669.964 1092.96 670.438C1092.96 671.094 1092.69 671.878 1092.14 672.789C1091.63 673.701 1090.94 674.667 1090.06 675.688C1089.22 676.708 1088.24 677.729 1087.11 678.75C1086.02 679.734 1084.9 680.628 1083.77 681.43C1082.64 682.195 1081.53 682.833 1080.44 683.344C1079.34 683.818 1078.38 684.055 1077.54 684.055C1075.9 684.055 1074.66 683.654 1073.82 682.852C1072.98 682.049 1072.38 681.047 1072.02 679.844C1071.69 678.641 1071.51 677.365 1071.47 676.016C1071.47 674.63 1071.45 673.354 1071.41 672.188ZM1081.48 657.422C1080.86 657.422 1080.2 657.732 1079.51 658.352C1078.82 658.935 1078.16 659.664 1077.54 660.539C1076.96 661.378 1076.46 662.253 1076.06 663.164C1075.7 664.039 1075.52 664.768 1075.52 665.352C1076.06 665.352 1076.85 665.151 1077.87 664.75C1078.92 664.312 1079.96 663.784 1080.98 663.164C1082.01 662.544 1082.9 661.888 1083.66 661.195C1084.43 660.503 1084.81 659.846 1084.81 659.227C1084.81 658.898 1084.68 658.625 1084.43 658.406C1084.17 658.188 1083.86 658.005 1083.5 657.859C1083.17 657.714 1082.83 657.604 1082.46 657.531C1082.1 657.458 1081.77 657.422 1081.48 657.422Z" fill="black"/>
<path d="M711.996 478.885C711.381 479.439 711.331 480.388 711.885 481.004L720.917 491.037C721.472 491.653 722.42 491.702 723.036 491.148C723.651 490.594 723.701 489.646 723.147 489.03L715.118 480.111L724.037 472.083C724.653 471.528 724.702 470.58 724.148 469.964C723.594 469.349 722.646 469.299 722.03 469.853L711.996 478.885ZM963.487 615.8C956.375 562.975 912.505 529.669 861.375 509.108C810.187 488.524 751.257 480.507 713.079 478.502L712.921 481.498C750.917 483.493 809.486 491.476 860.255 511.892C911.082 532.331 953.625 565.025 960.513 616.2L963.487 615.8Z" fill="black"/>
<circle cx="1108.14" cy="95.1362" r="53.1362" fill="#7BA300"/>
<path d="M1090.07 120.812V112.272L1107.99 96.5821C1109.34 95.3665 1110.48 94.255 1111.42 93.2474C1112.37 92.2238 1113.09 91.2002 1113.58 90.1766C1114.08 89.137 1114.33 88.0094 1114.33 86.7939C1114.33 85.4345 1114.03 84.2749 1113.44 83.3153C1112.85 82.3397 1112.03 81.588 1110.99 81.0602C1109.95 80.5324 1108.76 80.2685 1107.42 80.2685C1106.06 80.2685 1104.87 80.5484 1103.84 81.1082C1102.82 81.6519 1102.02 82.4436 1101.44 83.4832C1100.88 84.5228 1100.6 85.7863 1100.6 87.2737H1089.35C1089.35 83.931 1090.1 81.0442 1091.61 78.6131C1093.11 76.1821 1095.22 74.3108 1097.94 72.9994C1100.68 71.6719 1103.85 71.0081 1107.46 71.0081C1111.19 71.0081 1114.43 71.6319 1117.18 72.8794C1119.93 74.1269 1122.06 75.8702 1123.56 78.1093C1125.08 80.3325 1125.84 82.9154 1125.84 85.8583C1125.84 87.7296 1125.47 89.5848 1124.71 91.4241C1123.96 93.2634 1122.61 95.2946 1120.66 97.5177C1118.72 99.7408 1115.97 102.404 1112.41 105.507L1106.53 110.928V111.24H1126.44V120.812H1090.07Z" fill="white"/>
</svg>
