<svg width="1200" height="900" viewBox="0 0 1200 900" fill="none" xmlns="http://www.w3.org/2000/svg">
<rect width="1200" height="900" fill="white"/>
<path d="M120 112L91.1325 162H148.868L120 112ZM125 772V157H115V772H125Z" fill="black"/>
<path d="M1080 772L1030 743.132L1030 800.868L1080 772ZM116 777L1035 777L1035 767L116 767L116 777Z" fill="black"/>
<path d="M94.8593 58.3672H87.0823C86.9403 57.361 86.6502 56.4673 86.2123 55.6861C85.7743 54.893 85.212 54.2183 84.5255 53.6619C83.8389 53.1056 83.0458 52.6794 82.1462 52.3835C81.2584 52.0876 80.2937 51.9396 79.252 51.9396C77.3699 51.9396 75.7305 52.4072 74.3337 53.3423C72.9369 54.2656 71.8538 55.6151 71.0844 57.3906C70.315 59.1544 69.9303 61.2969 69.9303 63.8182C69.9303 66.4105 70.315 68.5885 71.0844 70.3523C71.8657 72.116 72.9547 73.4477 74.3515 74.3473C75.7483 75.2469 77.364 75.6967 79.1988 75.6967C80.2286 75.6967 81.1815 75.5606 82.0574 75.2884C82.9452 75.0161 83.7324 74.6196 84.4189 74.0987C85.1055 73.5661 85.6737 72.9209 86.1235 72.1634C86.5851 71.4058 86.9047 70.5417 87.0823 69.571L94.8593 69.6065C94.6581 71.2756 94.155 72.8854 93.3501 74.4361C92.557 75.9749 91.4857 77.3539 90.1363 78.5732C88.7987 79.7805 87.2007 80.7393 85.3422 81.4496C83.4957 82.148 81.4064 82.4972 79.0745 82.4972C75.8311 82.4972 72.931 81.7633 70.3742 80.2955C67.8292 78.8277 65.8169 76.7029 64.3373 73.9212C62.8695 71.1394 62.1356 67.7718 62.1356 63.8182C62.1356 59.8527 62.8813 56.4792 64.3728 53.6974C65.8643 50.9157 67.8884 48.7969 70.4452 47.3409C73.002 45.8731 75.8785 45.1392 79.0745 45.1392C81.1815 45.1392 83.1346 45.4351 84.9339 46.027C86.7449 46.6188 88.3489 47.483 89.7457 48.6193C91.1424 49.7438 92.2788 51.1229 93.1547 52.7564C94.0425 54.3899 94.6107 56.2602 94.8593 58.3672ZM111.553 82.5327C108.795 82.5327 106.41 81.9467 104.397 80.7749C102.397 79.5911 100.852 77.9458 99.7631 75.8388C98.674 73.7199 98.1295 71.2637 98.1295 68.4702C98.1295 65.6529 98.674 63.1908 99.7631 61.0838C100.852 58.965 102.397 57.3196 104.397 56.1477C106.41 54.964 108.795 54.3722 111.553 54.3722C114.311 54.3722 116.69 54.964 118.691 56.1477C120.703 57.3196 122.254 58.965 123.343 61.0838C124.432 63.1908 124.976 65.6529 124.976 68.4702C124.976 71.2637 124.432 73.7199 123.343 75.8388C122.254 77.9458 120.703 79.5911 118.691 80.7749C116.69 81.9467 114.311 82.5327 111.553 82.5327ZM111.588 76.6733C112.843 76.6733 113.891 76.3182 114.731 75.608C115.572 74.8859 116.205 73.9034 116.631 72.6605C117.069 71.4176 117.288 70.0031 117.288 68.4169C117.288 66.8307 117.069 65.4162 116.631 64.1733C116.205 62.9304 115.572 61.9479 114.731 61.2259C113.891 60.5038 112.843 60.1428 111.588 60.1428C110.322 60.1428 109.256 60.5038 108.392 61.2259C107.54 61.9479 106.895 62.9304 106.457 64.1733C106.031 65.4162 105.818 66.8307 105.818 68.4169C105.818 70.0031 106.031 71.4176 106.457 72.6605C106.895 73.9034 107.54 74.8859 108.392 75.608C109.256 76.3182 110.322 76.6733 111.588 76.6733ZM151.586 62.5043L144.661 62.9304C144.543 62.3385 144.289 61.8059 143.898 61.3324C143.507 60.8471 142.992 60.4624 142.353 60.1783C141.726 59.8823 140.974 59.7344 140.098 59.7344C138.926 59.7344 137.938 59.983 137.133 60.4801C136.328 60.9654 135.926 61.6165 135.926 62.4332C135.926 63.0843 136.186 63.6347 136.707 64.0845C137.228 64.5343 138.121 64.8954 139.388 65.1676L144.324 66.1619C146.976 66.7064 148.952 67.5824 150.255 68.7898C151.557 69.9972 152.208 71.5833 152.208 73.5483C152.208 75.3357 151.681 76.9041 150.627 78.2536C149.586 79.603 148.153 80.6565 146.331 81.4141C144.519 82.1598 142.43 82.5327 140.063 82.5327C136.452 82.5327 133.576 81.781 131.434 80.2777C129.303 78.7625 128.054 76.7029 127.687 74.0987L135.127 73.7081C135.352 74.8089 135.896 75.6494 136.76 76.2294C137.624 76.7976 138.731 77.0817 140.081 77.0817C141.406 77.0817 142.472 76.8272 143.277 76.3182C144.093 75.7973 144.508 75.1286 144.519 74.3118C144.508 73.6252 144.218 73.063 143.649 72.625C143.081 72.1752 142.205 71.8319 141.022 71.5952L136.299 70.6541C133.635 70.1214 131.652 69.1982 130.35 67.8842C129.06 66.5703 128.415 64.8954 128.415 62.8594C128.415 61.1075 128.889 59.5982 129.835 58.3317C130.794 57.0651 132.138 56.0885 133.866 55.402C135.606 54.7154 137.642 54.3722 139.974 54.3722C143.419 54.3722 146.129 55.1001 148.106 56.5561C150.095 58.0121 151.255 59.9948 151.586 62.5043ZM170.477 54.7273V60.4091H154.053V54.7273H170.477ZM157.782 48.1932H165.346V73.6193C165.346 74.3177 165.452 74.8622 165.665 75.2528C165.878 75.6316 166.174 75.898 166.553 76.0518C166.944 76.2057 167.393 76.2827 167.902 76.2827C168.258 76.2827 168.613 76.2531 168.968 76.1939C169.323 76.1229 169.595 76.0696 169.785 76.0341L170.974 81.6626C170.595 81.781 170.063 81.9171 169.376 82.071C168.69 82.2367 167.855 82.3374 166.873 82.3729C165.05 82.4439 163.452 82.2012 162.079 81.6449C160.717 81.0885 159.658 80.2244 158.9 79.0526C158.143 77.8807 157.77 76.401 157.782 74.6136V48.1932Z" fill="black"/>
<rect width="137" height="1" transform="matrix(1 0 0 -1 189 767)" fill="#419EDA"/>
<rect x="306" y="53" width="21.1461" height="21.1461" fill="#FABE28"/>
<rect x="306" y="82.4277" width="21.1461" height="21.1461" fill="#FABE28"/>
<rect x="306" y="111.854" width="21.1461" height="21.1461" fill="#FABE28"/>
<rect x="616.748" y="53" width="21.1461" height="21.1461" fill="#FABE28"/>
<rect x="616.748" y="82.4277" width="21.1461" height="21.1461" fill="#FABE28"/>
<rect x="616.748" y="111.854" width="21.1461" height="21.1461" fill="#FABE28"/>
<rect x="340.527" y="53" width="21.1461" height="21.1461" fill="#FABE28"/>
<rect x="340.527" y="82.4277" width="21.1461" height="21.1461" fill="#FABE28"/>
<rect x="340.527" y="111.854" width="21.1461" height="21.1461" fill="#FABE28"/>
<rect x="375.055" y="53" width="21.1461" height="21.1461" fill="#FABE28"/>
<rect x="375.055" y="82.4277" width="21.1461" height="21.1461" fill="#FABE28"/>
<rect x="375.055" y="111.854" width="21.1461" height="21.1461" fill="#FABE28"/>
<rect x="409.583" y="53" width="21.1461" height="21.1461" fill="#FABE28"/>
<rect x="409.583" y="82.4277" width="21.1461" height="21.1461" fill="#FABE28"/>
<rect x="409.583" y="111.854" width="21.1461" height="21.1461" fill="#FABE28"/>
<rect x="444.11" y="53" width="21.1461" height="21.1461" fill="#FABE28"/>
<rect x="444.11" y="82.4277" width="21.1461" height="21.1461" fill="#FABE28"/>
<rect x="444.11" y="111.854" width="21.1461" height="21.1461" fill="#FABE28"/>
<rect x="478.638" y="53" width="21.1461" height="21.1461" fill="#FABE28"/>
<rect x="478.638" y="82.4277" width="21.1461" height="21.1461" fill="#FABE28"/>
<rect x="478.638" y="111.854" width="21.1461" height="21.1461" fill="#FABE28"/>
<rect x="513.166" y="53" width="21.1461" height="21.1461" fill="#FABE28"/>
<rect x="513.166" y="82.4277" width="21.1461" height="21.1461" fill="#FABE28"/>
<rect x="513.166" y="111.854" width="21.1461" height="21.1461" fill="#FABE28"/>
<rect x="547.693" y="53" width="21.1461" height="21.1461" fill="#FABE28"/>
<rect x="547.693" y="82.4277" width="21.1461" height="21.1461" fill="#FABE28"/>
<rect x="547.693" y="111.854" width="21.1461" height="21.1461" fill="#FABE28"/>
<rect x="582.221" y="53" width="21.1461" height="21.1461" fill="#FABE28"/>
<rect x="582.221" y="82.4277" width="21.1461" height="21.1461" fill="#FABE28"/>
<rect x="582.221" y="111.854" width="21.1461" height="21.1461" fill="#FABE28"/>
<rect x="823.23" y="53" width="21.1461" height="21.1461" fill="#FABE28"/>
<rect x="823.23" y="82.4277" width="21.1461" height="21.1461" fill="#FABE28"/>
<rect x="823.23" y="111.854" width="21.1461" height="21.1461" fill="#FABE28"/>
<rect x="1133.98" y="53" width="21.1461" height="21.1461" fill="#FABE28"/>
<rect x="1133.98" y="82.4277" width="21.1461" height="21.1461" fill="#FABE28"/>
<rect x="1133.98" y="111.854" width="21.1461" height="21.1461" fill="#FABE28"/>
<rect x="857.758" y="53" width="21.1461" height="21.1461" fill="#FABE28"/>
<rect x="857.758" y="82.4277" width="21.1461" height="21.1461" fill="#FABE28"/>
<rect x="857.758" y="111.854" width="21.1461" height="21.1461" fill="#FABE28"/>
<rect x="892.285" y="53" width="21.1461" height="21.1461" fill="#FABE28"/>
<rect x="892.285" y="82.4277" width="21.1461" height="21.1461" fill="#FABE28"/>
<rect x="892.285" y="111.854" width="21.1461" height="21.1461" fill="#FABE28"/>
<rect x="926.813" y="53" width="21.1461" height="21.1461" fill="#FABE28"/>
<rect x="926.813" y="82.4277" width="21.1461" height="21.1461" fill="#FABE28"/>
<rect x="926.813" y="111.854" width="21.1461" height="21.1461" fill="#FABE28"/>
<rect x="961.341" y="53" width="21.1461" height="21.1461" fill="#FABE28"/>
<rect x="961.341" y="82.4277" width="21.1461" height="21.1461" fill="#FABE28"/>
<rect x="961.341" y="111.854" width="21.1461" height="21.1461" fill="#FABE28"/>
<rect x="995.869" y="53" width="21.1461" height="21.1461" fill="#FABE28"/>
<rect x="995.869" y="82.4277" width="21.1461" height="21.1461" fill="#FABE28"/>
<rect x="995.869" y="111.854" width="21.1461" height="21.1461" fill="#FABE28"/>
<rect x="1030.4" y="53" width="21.1461" height="21.1461" fill="#FABE28"/>
<rect x="1030.4" y="82.4277" width="21.1461" height="21.1461" fill="#FABE28"/>
<rect x="1030.4" y="111.854" width="21.1461" height="21.1461" fill="#FABE28"/>
<rect x="1064.92" y="53" width="21.1461" height="21.1461" fill="#FABE28"/>
<rect x="1064.92" y="82.4277" width="21.1461" height="21.1461" fill="#FABE28"/>
<rect x="1064.92" y="111.854" width="21.1461" height="21.1461" fill="#FABE28"/>
<rect x="1099.45" y="53" width="21.1461" height="21.1461" fill="#FABE28"/>
<rect x="1099.45" y="82.4277" width="21.1461" height="21.1461" fill="#FABE28"/>
<rect x="1099.45" y="111.854" width="21.1461" height="21.1461" fill="#FABE28"/>
<rect x="651.011" y="53" width="21.1461" height="21.1461" fill="#FABE28"/>
<rect x="651.011" y="82.4277" width="21.1461" height="21.1461" fill="#FABE28"/>
<rect x="651.011" y="111.854" width="21.1461" height="21.1461" fill="#FABE28"/>
<rect x="685.538" y="53" width="21.1461" height="21.1461" fill="#FABE28"/>
<rect x="685.538" y="82.4277" width="21.1461" height="21.1461" fill="#FABE28"/>
<rect x="685.538" y="111.854" width="21.1461" height="21.1461" fill="#FABE28"/>
<rect x="720.066" y="53" width="21.1461" height="21.1461" fill="#FABE28"/>
<rect x="720.066" y="82.4277" width="21.1461" height="21.1461" fill="#FABE28"/>
<rect x="720.066" y="111.854" width="21.1461" height="21.1461" fill="#FABE28"/>
<rect x="754.594" y="53" width="21.1461" height="21.1461" fill="#FABE28"/>
<rect x="754.594" y="82.4277" width="21.1461" height="21.1461" fill="#FABE28"/>
<rect x="754.594" y="111.854" width="21.1461" height="21.1461" fill="#FABE28"/>
<rect x="789.121" y="53" width="21.1461" height="21.1461" fill="#FABE28"/>
<rect x="789.121" y="82.4277" width="21.1461" height="21.1461" fill="#FABE28"/>
<rect x="789.121" y="111.854" width="21.1461" height="21.1461" fill="#FABE28"/>
<rect x="306" y="154" width="21.1461" height="21.1461" fill="#FABE28"/>
<rect x="306" y="183.428" width="21.1461" height="21.1461" fill="#FABE28"/>
<rect x="306" y="212.854" width="21.1461" height="21.1461" fill="#FABE28"/>
<rect x="616.748" y="154" width="21.1461" height="21.1461" fill="#FABE28"/>
<rect x="616.748" y="183.428" width="21.1461" height="21.1461" fill="#FABE28"/>
<rect x="616.748" y="212.854" width="21.1461" height="21.1461" fill="#FABE28"/>
<rect x="340.527" y="154" width="21.1461" height="21.1461" fill="#FABE28"/>
<rect x="340.527" y="183.428" width="21.1461" height="21.1461" fill="#FABE28"/>
<rect x="340.527" y="212.854" width="21.1461" height="21.1461" fill="#FABE28"/>
<rect x="375.055" y="154" width="21.1461" height="21.1461" fill="#FABE28"/>
<rect x="375.055" y="183.428" width="21.1461" height="21.1461" fill="#FABE28"/>
<rect x="375.055" y="212.854" width="21.1461" height="21.1461" fill="#FABE28"/>
<rect x="409.583" y="154" width="21.1461" height="21.1461" fill="#FABE28"/>
<rect x="409.583" y="183.428" width="21.1461" height="21.1461" fill="#FABE28"/>
<rect x="409.583" y="212.854" width="21.1461" height="21.1461" fill="#FABE28"/>
<rect x="444.11" y="154" width="21.1461" height="21.1461" fill="#FABE28"/>
<rect x="444.11" y="183.428" width="21.1461" height="21.1461" fill="#FABE28"/>
<rect x="444.11" y="212.854" width="21.1461" height="21.1461" fill="#FABE28"/>
<rect x="478.638" y="154" width="21.1461" height="21.1461" fill="#FABE28"/>
<rect x="478.638" y="183.428" width="21.1461" height="21.1461" fill="#FABE28"/>
<rect x="478.638" y="212.854" width="21.1461" height="21.1461" fill="#FABE28"/>
<rect x="513.166" y="154" width="21.1461" height="21.1461" fill="#FABE28"/>
<rect x="513.166" y="183.428" width="21.1461" height="21.1461" fill="#FABE28"/>
<rect x="513.166" y="212.854" width="21.1461" height="21.1461" fill="#FABE28"/>
<rect x="547.693" y="154" width="21.1461" height="21.1461" fill="#FABE28"/>
<rect x="547.693" y="183.428" width="21.1461" height="21.1461" fill="#FABE28"/>
<rect x="547.693" y="212.854" width="21.1461" height="21.1461" fill="#FABE28"/>
<rect x="582.221" y="154" width="21.1461" height="21.1461" fill="#FABE28"/>
<rect x="582.221" y="183.428" width="21.1461" height="21.1461" fill="#FABE28"/>
<rect x="582.221" y="212.854" width="21.1461" height="21.1461" fill="#FABE28"/>
<rect x="823.23" y="154" width="21.1461" height="21.1461" fill="#FABE28"/>
<rect x="823.23" y="183.428" width="21.1461" height="21.1461" fill="#FABE28"/>
<rect x="823.23" y="212.854" width="21.1461" height="21.1461" fill="#FABE28"/>
<rect x="1133.98" y="154" width="21.1461" height="21.1461" fill="#FABE28"/>
<rect x="1133.98" y="183.428" width="21.1461" height="21.1461" fill="#FABE28"/>
<rect x="1133.98" y="212.854" width="21.1461" height="21.1461" fill="#FABE28"/>
<rect x="857.758" y="154" width="21.1461" height="21.1461" fill="#FABE28"/>
<rect x="857.758" y="183.428" width="21.1461" height="21.1461" fill="#FABE28"/>
<rect x="857.758" y="212.854" width="21.1461" height="21.1461" fill="#FABE28"/>
<rect x="892.285" y="154" width="21.1461" height="21.1461" fill="#FABE28"/>
<rect x="892.285" y="183.428" width="21.1461" height="21.1461" fill="#FABE28"/>
<rect x="892.285" y="212.854" width="21.1461" height="21.1461" fill="#FABE28"/>
<rect x="926.813" y="154" width="21.1461" height="21.1461" fill="#FABE28"/>
<rect x="926.813" y="183.428" width="21.1461" height="21.1461" fill="#FABE28"/>
<rect x="926.813" y="212.854" width="21.1461" height="21.1461" fill="#FABE28"/>
<rect x="961.341" y="154" width="21.1461" height="21.1461" fill="#FABE28"/>
<rect x="961.341" y="183.428" width="21.1461" height="21.1461" fill="#FABE28"/>
<rect x="961.341" y="212.854" width="21.1461" height="21.1461" fill="#FABE28"/>
<rect x="995.869" y="154" width="21.1461" height="21.1461" fill="#FABE28"/>
<rect x="995.869" y="183.428" width="21.1461" height="21.1461" fill="#FABE28"/>
<rect x="995.869" y="212.854" width="21.1461" height="21.1461" fill="#FABE28"/>
<rect x="1030.4" y="154" width="21.1461" height="21.1461" fill="#FABE28"/>
<rect x="1030.4" y="183.428" width="21.1461" height="21.1461" fill="#FABE28"/>
<rect x="1030.4" y="212.854" width="21.1461" height="21.1461" fill="#FABE28"/>
<rect x="1064.92" y="154" width="21.1461" height="21.1461" fill="#FABE28"/>
<rect x="1064.92" y="183.428" width="21.1461" height="21.1461" fill="#FABE28"/>
<rect x="1064.92" y="212.854" width="21.1461" height="21.1461" fill="#FABE28"/>
<rect x="1099.45" y="154" width="21.1461" height="21.1461" fill="#FABE28"/>
<rect x="1099.45" y="183.428" width="21.1461" height="21.1461" fill="#FABE28"/>
<rect x="1099.45" y="212.854" width="21.1461" height="21.1461" fill="#FABE28"/>
<rect x="651.011" y="154" width="21.1461" height="21.1461" fill="#FABE28"/>
<rect x="651.011" y="183.428" width="21.1461" height="21.1461" fill="#FABE28"/>
<rect x="651.011" y="212.854" width="21.1461" height="21.1461" fill="#FABE28"/>
<rect x="685.538" y="154" width="21.1461" height="21.1461" fill="#FABE28"/>
<rect x="685.538" y="183.428" width="21.1461" height="21.1461" fill="#FABE28"/>
<rect x="685.538" y="212.854" width="21.1461" height="21.1461" fill="#FABE28"/>
<rect x="720.066" y="154" width="21.1461" height="21.1461" fill="#FABE28"/>
<rect x="720.066" y="183.428" width="21.1461" height="21.1461" fill="#FABE28"/>
<rect x="720.066" y="212.854" width="21.1461" height="21.1461" fill="#FABE28"/>
<rect x="754.594" y="154" width="21.1461" height="21.1461" fill="#FABE28"/>
<rect x="754.594" y="183.428" width="21.1461" height="21.1461" fill="#FABE28"/>
<rect x="754.594" y="212.854" width="21.1461" height="21.1461" fill="#FABE28"/>
<rect x="789.121" y="154" width="21.1461" height="21.1461" fill="#FABE28"/>
<rect x="789.121" y="183.428" width="21.1461" height="21.1461" fill="#FABE28"/>
<rect x="789.121" y="212.854" width="21.1461" height="21.1461" fill="#FABE28"/>
<rect x="607" y="267" width="268" height="77.086" rx="7.2043" fill="#121212" fill-opacity="0.9"/>
<path d="M684.871 324.514C683.824 324.514 682.804 324.109 682.022 323.337L658.257 299.543V320.401C658.257 322.61 656.456 324.422 654.242 324.422C652.027 324.422 650.226 322.72 650.226 320.401V289.854C650.226 288.225 651.209 286.762 652.707 286.137C654.205 285.511 655.923 285.861 657.081 287.011L680.846 310.805V289.854C680.846 287.646 682.647 285.833 684.862 285.833C687.077 285.833 688.878 287.636 688.878 289.854V320.401C688.878 322.61 687.077 324.422 684.862 324.422L684.871 324.514ZM703.453 285.778L702.35 287.839L693.804 303.37L692.701 305.33L693.804 307.29L702.35 322.315L703.499 324.376H725.83L726.933 322.113L733.311 309.25L736.16 303.416H729.69L713.378 303.462C711.264 303.435 709.307 305.358 709.307 307.483C709.307 309.609 711.255 311.532 713.378 311.504L723.211 311.458L720.803 316.334H708.177L701.9 305.275L708.223 293.819H721.676L724.801 300.26H732.888L727.797 288.041L726.694 285.778H703.444H703.453ZM744.118 285.732C742.004 285.759 740.13 287.701 740.166 289.799V300.288H748.198V289.799C748.226 287.664 746.36 285.704 744.136 285.732H744.118ZM757.002 324.514C754.797 324.514 752.986 322.711 752.986 320.493V289.918C752.986 287.71 754.787 285.897 757.002 285.897C759.217 285.897 761.018 287.701 761.018 289.918V310.869L784.783 287.075C785.932 285.925 787.659 285.585 789.157 286.201C790.655 286.817 791.639 288.29 791.639 289.918V320.585C791.639 322.794 789.837 324.606 787.623 324.606C785.408 324.606 783.607 322.803 783.607 320.585V299.625L759.842 323.419C759.088 324.174 758.068 324.597 756.993 324.597L757.002 324.514ZM821.368 305.22L833.866 292.761C835.428 291.197 835.428 288.648 833.875 287.075C832.322 285.502 829.767 285.511 828.196 287.066L815.698 299.552L803.199 287.066C801.637 285.502 799.082 285.502 797.52 287.075C795.958 288.648 795.958 291.197 797.529 292.761L810.027 305.22L797.538 317.641C795.976 319.205 795.976 321.754 797.529 323.327C798.283 324.091 799.303 324.523 800.286 324.523C801.27 324.523 802.336 324.137 803.117 323.346L815.587 310.897L828.058 323.346C828.811 324.1 829.832 324.523 830.888 324.523C831.945 324.523 832.947 324.128 833.645 323.327C835.208 321.763 835.208 319.214 833.636 317.641L821.184 305.22H821.368ZM743.934 324.487C741.821 324.459 739.946 322.518 739.983 320.42V303.582H748.015V320.401C748.042 322.536 746.177 324.496 743.953 324.468" fill="#00D600"/>
<path d="M883 304C925 292 1159 329 1163 277C1167 225 1194 193 1163 192" stroke="black"/>
<path d="M882 296C926 261 1091 307 1124 284C1157 261 1147 260 1149 242" stroke="black"/>
<path d="M884 277C934 237 1030 277 1059 277C1088 277 1117 292 1124 253C1131 214 1136 114 1124 93" stroke="black"/>
<path d="M878 262C892 252 943 240 995 251C1047 262 1082 284 1087 262C1092 240 1101 135 1094 121" stroke="black"/>
<path d="M598 307C511 314 405 352 319 340C233 328 263 70 300 61" stroke="black"/>
<path d="M598.001 296C544.001 296 423.001 348 345.001 322C267.001 296 265.001 144 296.001 90" stroke="black"/>
<path d="M596.001 286C578.001 285 324.001 365 347.001 246" stroke="black"/>
<path d="M599 276C563 276 420 356 406 287C392 218 378 94 406 94" stroke="black"/>
<path d="M604 267C572 257 537 299 494 287C451 275 460 200 474 193" stroke="black"/>
<path d="M619 258C594 250 560 197 540 194" stroke="black"/>
<path d="M632 262C637 228 620 198 609 194" stroke="black"/>
<path d="M652 259C655 205 631 100 609 93" stroke="black"/>
<path d="M666 258C668 222 655 67 680 63" stroke="black"/>
<path d="M679 258C685 234 675 98 716 93" stroke="black"/>
<path d="M696 255C706 212 688 166 716 162" stroke="black"/>
<path d="M866 256C883 226 934 195 956 195" stroke="black"/>
<path d="M853 257C859 186 914 189 943 178C972 167 939 120 957 120" stroke="black"/>
<path d="M835 256C836 217 908 195 917 152C926 109 937 63 917 62" stroke="black"/>
<path d="M821 254C823 205 889 144 887 96" stroke="black"/>
<path d="M806 256C807 198 829 153 852 143C875 133 888 83 852 83" stroke="black"/>
<path d="M789 256C790 222 847 132 818 96" stroke="black"/>
<path d="M770 256C767 236 765 239 765 223" stroke="black"/>
<path d="M753.999 254C744.999 217 737.999 192 753.999 192" stroke="black"/>
<path d="M732 255C732 223 721 161 751 162" stroke="black"/>
<path d="M1033.37 531.816C1033.71 531.062 1033.37 530.172 1032.62 529.83L1020.33 524.243C1019.58 523.9 1018.69 524.234 1018.34 524.988C1018 525.742 1018.34 526.631 1019.09 526.974L1030.01 531.94L1025.05 542.864C1024.71 543.618 1025.04 544.508 1025.79 544.851C1026.55 545.193 1027.44 544.86 1027.78 544.106L1033.37 531.816ZM124.39 532.644C127.469 531.815 133.459 531.147 142.149 530.649C150.79 530.155 161.97 529.834 175.34 529.66C202.076 529.313 237.513 529.555 278.79 530.164C361.345 531.382 467.209 534.07 573.466 536.445C679.716 538.82 786.356 540.883 870.438 540.851C912.477 540.836 948.894 540.297 976.811 539.01C990.768 538.367 1002.62 537.536 1011.99 536.487C1021.33 535.443 1028.34 534.171 1032.53 532.6L1031.47 529.791C1027.66 531.219 1020.99 532.463 1011.66 533.506C1002.38 534.544 990.599 535.371 976.673 536.013C948.824 537.297 912.46 537.836 870.437 537.851C786.394 537.883 679.784 535.821 573.534 533.446C467.291 531.071 361.405 528.383 278.835 527.164C237.55 526.555 202.08 526.312 175.301 526.66C161.912 526.834 150.682 527.156 141.978 527.654C133.322 528.15 127.031 528.826 123.61 529.747L124.39 532.644Z" fill="black"/>
<path d="M940.824 843.727V849.409H924.4V843.727H940.824ZM928.128 837.193H935.692V862.619C935.692 863.318 935.799 863.862 936.012 864.253C936.225 864.632 936.521 864.898 936.9 865.052C937.29 865.206 937.74 865.283 938.249 865.283C938.604 865.283 938.959 865.253 939.314 865.194C939.67 865.123 939.942 865.07 940.131 865.034L941.321 870.663C940.942 870.781 940.409 870.917 939.723 871.071C939.036 871.237 938.202 871.337 937.219 871.373C935.396 871.444 933.798 871.201 932.425 870.645C931.064 870.089 930.005 869.224 929.247 868.053C928.489 866.881 928.117 865.401 928.128 863.614V837.193ZM956.887 871.533C954.081 871.533 951.667 870.964 949.643 869.828C947.63 868.68 946.08 867.058 944.991 864.963C943.902 862.856 943.357 860.364 943.357 857.488C943.357 854.683 943.902 852.22 944.991 850.102C946.08 847.983 947.613 846.331 949.589 845.148C951.578 843.964 953.91 843.372 956.585 843.372C958.384 843.372 960.059 843.662 961.61 844.242C963.172 844.81 964.534 845.669 965.694 846.817C966.866 847.965 967.777 849.409 968.428 851.149C969.079 852.877 969.405 854.902 969.405 857.222V859.299H946.376V854.612H962.285C962.285 853.522 962.048 852.558 961.574 851.717C961.101 850.877 960.444 850.22 959.604 849.746C958.775 849.261 957.81 849.018 956.709 849.018C955.561 849.018 954.543 849.285 953.655 849.817C952.779 850.338 952.093 851.043 951.596 851.93C951.099 852.806 950.844 853.783 950.832 854.86V859.317C950.832 860.666 951.081 861.832 951.578 862.815C952.087 863.797 952.803 864.555 953.726 865.087C954.65 865.62 955.745 865.886 957.011 865.886C957.852 865.886 958.621 865.768 959.319 865.531C960.018 865.295 960.616 864.939 961.113 864.466C961.61 863.992 961.989 863.412 962.249 862.726L969.245 863.188C968.89 864.868 968.162 866.336 967.061 867.591C965.972 868.834 964.563 869.804 962.835 870.503C961.119 871.189 959.136 871.533 956.887 871.533ZM980.905 855.233V871H973.341V843.727H980.55V848.539H980.869C981.473 846.953 982.485 845.698 983.905 844.775C985.326 843.84 987.048 843.372 989.072 843.372C990.966 843.372 992.617 843.786 994.026 844.615C995.435 845.444 996.53 846.627 997.311 848.166C998.092 849.693 998.483 851.516 998.483 853.635V871H990.919V854.984C990.931 853.315 990.505 852.013 989.64 851.078C988.776 850.131 987.587 849.658 986.072 849.658C985.054 849.658 984.154 849.877 983.373 850.315C982.603 850.753 982 851.392 981.562 852.232C981.135 853.061 980.916 854.061 980.905 855.233ZM1011.22 871.515C1009.48 871.515 1007.93 871.213 1006.57 870.609C1005.21 869.994 1004.13 869.088 1003.34 867.893C1002.56 866.685 1002.17 865.182 1002.17 863.383C1002.17 861.868 1002.44 860.595 1003 859.565C1003.56 858.536 1004.31 857.707 1005.27 857.08C1006.23 856.452 1007.32 855.979 1008.54 855.659C1009.77 855.339 1011.06 855.115 1012.41 854.984C1014 854.819 1015.28 854.665 1016.25 854.523C1017.22 854.369 1017.92 854.144 1018.36 853.848C1018.8 853.552 1019.02 853.114 1019.02 852.534V852.428C1019.02 851.303 1018.66 850.433 1017.95 849.817C1017.25 849.202 1016.26 848.894 1014.97 848.894C1013.61 848.894 1012.52 849.196 1011.72 849.8C1010.91 850.392 1010.38 851.137 1010.12 852.037L1003.12 851.469C1003.48 849.812 1004.18 848.379 1005.22 847.172C1006.26 845.953 1007.6 845.018 1009.25 844.366C1010.91 843.704 1012.83 843.372 1015 843.372C1016.52 843.372 1017.97 843.55 1019.35 843.905C1020.75 844.26 1021.99 844.81 1023.06 845.556C1024.15 846.302 1025.01 847.261 1025.64 848.433C1026.27 849.593 1026.58 850.983 1026.58 852.605V871H1019.41V867.218H1019.19C1018.76 868.07 1018.17 868.822 1017.44 869.473C1016.7 870.112 1015.82 870.615 1014.79 870.982C1013.76 871.337 1012.57 871.515 1011.22 871.515ZM1013.39 866.295C1014.5 866.295 1015.48 866.076 1016.33 865.638C1017.19 865.188 1017.86 864.584 1018.34 863.827C1018.83 863.069 1019.07 862.211 1019.07 861.252V858.358C1018.83 858.512 1018.51 858.654 1018.09 858.784C1017.69 858.902 1017.23 859.015 1016.73 859.121C1016.22 859.216 1015.71 859.305 1015.2 859.388C1014.69 859.459 1014.23 859.524 1013.81 859.583C1012.93 859.713 1012.15 859.92 1011.49 860.205C1010.82 860.489 1010.31 860.873 1009.94 861.359C1009.58 861.832 1009.39 862.424 1009.39 863.134C1009.39 864.164 1009.77 864.951 1010.51 865.496C1011.27 866.028 1012.23 866.295 1013.39 866.295ZM1039.01 855.233V871H1031.45V843.727H1038.66V848.539H1038.98C1039.58 846.953 1040.59 845.698 1042.01 844.775C1043.43 843.84 1045.16 843.372 1047.18 843.372C1049.07 843.372 1050.72 843.786 1052.13 844.615C1053.54 845.444 1054.64 846.627 1055.42 848.166C1056.2 849.693 1056.59 851.516 1056.59 853.635V871H1049.03V854.984C1049.04 853.315 1048.61 852.013 1047.75 851.078C1046.88 850.131 1045.69 849.658 1044.18 849.658C1043.16 849.658 1042.26 849.877 1041.48 850.315C1040.71 850.753 1040.11 851.392 1039.67 852.232C1039.24 853.061 1039.02 854.061 1039.01 855.233ZM1076.06 843.727V849.409H1059.63V843.727H1076.06ZM1063.36 837.193H1070.93V862.619C1070.93 863.318 1071.03 863.862 1071.25 864.253C1071.46 864.632 1071.76 864.898 1072.13 865.052C1072.52 865.206 1072.97 865.283 1073.48 865.283C1073.84 865.283 1074.19 865.253 1074.55 865.194C1074.9 865.123 1075.18 865.07 1075.37 865.034L1076.56 870.663C1076.18 870.781 1075.64 870.917 1074.96 871.071C1074.27 871.237 1073.44 871.337 1072.45 871.373C1070.63 871.444 1069.03 871.201 1067.66 870.645C1066.3 870.089 1065.24 869.224 1064.48 868.053C1063.72 866.881 1063.35 865.401 1063.36 863.614V837.193ZM1102.34 851.504L1095.41 851.93C1095.29 851.339 1095.04 850.806 1094.65 850.332C1094.26 849.847 1093.74 849.462 1093.1 849.178C1092.47 848.882 1091.72 848.734 1090.85 848.734C1089.68 848.734 1088.69 848.983 1087.88 849.48C1087.08 849.965 1086.67 850.616 1086.67 851.433C1086.67 852.084 1086.94 852.635 1087.46 853.085C1087.98 853.534 1088.87 853.895 1090.14 854.168L1095.07 855.162C1097.72 855.706 1099.7 856.582 1101 857.79C1102.31 858.997 1102.96 860.583 1102.96 862.548C1102.96 864.336 1102.43 865.904 1101.38 867.254C1100.33 868.603 1098.9 869.656 1097.08 870.414C1095.27 871.16 1093.18 871.533 1090.81 871.533C1087.2 871.533 1084.33 870.781 1082.18 869.278C1080.05 867.763 1078.8 865.703 1078.44 863.099L1085.88 862.708C1086.1 863.809 1086.65 864.649 1087.51 865.229C1088.37 865.798 1089.48 866.082 1090.83 866.082C1092.16 866.082 1093.22 865.827 1094.03 865.318C1094.84 864.797 1095.26 864.129 1095.27 863.312C1095.26 862.625 1094.97 862.063 1094.4 861.625C1093.83 861.175 1092.95 860.832 1091.77 860.595L1087.05 859.654C1084.38 859.121 1082.4 858.198 1081.1 856.884C1079.81 855.57 1079.16 853.895 1079.16 851.859C1079.16 850.107 1079.64 848.598 1080.58 847.332C1081.54 846.065 1082.89 845.089 1084.62 844.402C1086.36 843.715 1088.39 843.372 1090.72 843.372C1094.17 843.372 1096.88 844.1 1098.86 845.556C1100.84 847.012 1102 848.995 1102.34 851.504Z" fill="black"/>
</svg>
