<svg width="1200" height="900" viewBox="0 0 1200 900" fill="none" xmlns="http://www.w3.org/2000/svg">
<rect width="1200" height="900" fill="white"/>
<path d="M120 112L91.1325 162H148.868L120 112ZM125 772V157H115V772H125Z" fill="black"/>
<path d="M1080 772L1030 743.132L1030 800.868L1080 772ZM116 777L1035 777L1035 767L116 767L116 777Z" fill="black"/>
<path d="M94.8593 58.3672H87.0823C86.9403 57.361 86.6502 56.4673 86.2123 55.6861C85.7743 54.893 85.212 54.2183 84.5255 53.6619C83.8389 53.1056 83.0458 52.6794 82.1462 52.3835C81.2584 52.0876 80.2937 51.9396 79.252 51.9396C77.3699 51.9396 75.7305 52.4072 74.3337 53.3423C72.9369 54.2656 71.8538 55.6151 71.0844 57.3906C70.315 59.1544 69.9303 61.2969 69.9303 63.8182C69.9303 66.4105 70.315 68.5885 71.0844 70.3523C71.8657 72.116 72.9547 73.4477 74.3515 74.3473C75.7483 75.2469 77.364 75.6967 79.1988 75.6967C80.2286 75.6967 81.1815 75.5606 82.0574 75.2884C82.9452 75.0161 83.7324 74.6196 84.4189 74.0987C85.1055 73.5661 85.6737 72.9209 86.1235 72.1634C86.5851 71.4058 86.9047 70.5417 87.0823 69.571L94.8593 69.6065C94.6581 71.2756 94.155 72.8854 93.3501 74.4361C92.557 75.9749 91.4857 77.3539 90.1363 78.5732C88.7987 79.7805 87.2007 80.7393 85.3422 81.4496C83.4957 82.148 81.4064 82.4972 79.0745 82.4972C75.8311 82.4972 72.931 81.7633 70.3742 80.2955C67.8292 78.8277 65.8169 76.7029 64.3373 73.9212C62.8695 71.1394 62.1356 67.7718 62.1356 63.8182C62.1356 59.8527 62.8813 56.4792 64.3728 53.6974C65.8643 50.9157 67.8884 48.7969 70.4452 47.3409C73.002 45.8731 75.8785 45.1392 79.0745 45.1392C81.1815 45.1392 83.1346 45.4351 84.9339 46.027C86.7449 46.6188 88.3489 47.483 89.7457 48.6193C91.1424 49.7438 92.2788 51.1229 93.1547 52.7564C94.0425 54.3899 94.6107 56.2602 94.8593 58.3672ZM111.553 82.5327C108.795 82.5327 106.41 81.9467 104.397 80.7749C102.397 79.5911 100.852 77.9458 99.7631 75.8388C98.674 73.7199 98.1295 71.2637 98.1295 68.4702C98.1295 65.6529 98.674 63.1908 99.7631 61.0838C100.852 58.965 102.397 57.3196 104.397 56.1477C106.41 54.964 108.795 54.3722 111.553 54.3722C114.311 54.3722 116.69 54.964 118.691 56.1477C120.703 57.3196 122.254 58.965 123.343 61.0838C124.432 63.1908 124.976 65.6529 124.976 68.4702C124.976 71.2637 124.432 73.7199 123.343 75.8388C122.254 77.9458 120.703 79.5911 118.691 80.7749C116.69 81.9467 114.311 82.5327 111.553 82.5327ZM111.588 76.6733C112.843 76.6733 113.891 76.3182 114.731 75.608C115.572 74.8859 116.205 73.9034 116.631 72.6605C117.069 71.4176 117.288 70.0031 117.288 68.4169C117.288 66.8307 117.069 65.4162 116.631 64.1733C116.205 62.9304 115.572 61.9479 114.731 61.2259C113.891 60.5038 112.843 60.1428 111.588 60.1428C110.322 60.1428 109.256 60.5038 108.392 61.2259C107.54 61.9479 106.895 62.9304 106.457 64.1733C106.031 65.4162 105.818 66.8307 105.818 68.4169C105.818 70.0031 106.031 71.4176 106.457 72.6605C106.895 73.9034 107.54 74.8859 108.392 75.608C109.256 76.3182 110.322 76.6733 111.588 76.6733ZM151.586 62.5043L144.661 62.9304C144.543 62.3385 144.289 61.8059 143.898 61.3324C143.507 60.8471 142.992 60.4624 142.353 60.1783C141.726 59.8823 140.974 59.7344 140.098 59.7344C138.926 59.7344 137.938 59.983 137.133 60.4801C136.328 60.9654 135.926 61.6165 135.926 62.4332C135.926 63.0843 136.186 63.6347 136.707 64.0845C137.228 64.5343 138.121 64.8954 139.388 65.1676L144.324 66.1619C146.976 66.7064 148.952 67.5824 150.255 68.7898C151.557 69.9972 152.208 71.5833 152.208 73.5483C152.208 75.3357 151.681 76.9041 150.627 78.2536C149.586 79.603 148.153 80.6565 146.331 81.4141C144.519 82.1598 142.43 82.5327 140.063 82.5327C136.452 82.5327 133.576 81.781 131.434 80.2777C129.303 78.7625 128.054 76.7029 127.687 74.0987L135.127 73.7081C135.352 74.8089 135.896 75.6494 136.76 76.2294C137.624 76.7976 138.731 77.0817 140.081 77.0817C141.406 77.0817 142.472 76.8272 143.277 76.3182C144.093 75.7973 144.508 75.1286 144.519 74.3118C144.508 73.6252 144.218 73.063 143.649 72.625C143.081 72.1752 142.205 71.8319 141.022 71.5952L136.299 70.6541C133.635 70.1214 131.652 69.1982 130.35 67.8842C129.06 66.5703 128.415 64.8954 128.415 62.8594C128.415 61.1075 128.889 59.5982 129.835 58.3317C130.794 57.0651 132.138 56.0885 133.866 55.402C135.606 54.7154 137.642 54.3722 139.974 54.3722C143.419 54.3722 146.129 55.1001 148.106 56.5561C150.095 58.0121 151.255 59.9948 151.586 62.5043ZM170.477 54.7273V60.4091H154.053V54.7273H170.477ZM157.782 48.1932H165.346V73.6193C165.346 74.3177 165.452 74.8622 165.665 75.2528C165.878 75.6316 166.174 75.898 166.553 76.0518C166.944 76.2057 167.393 76.2827 167.902 76.2827C168.258 76.2827 168.613 76.2531 168.968 76.1939C169.323 76.1229 169.595 76.0696 169.785 76.0341L170.974 81.6626C170.595 81.781 170.063 81.9171 169.376 82.071C168.69 82.2367 167.855 82.3374 166.873 82.3729C165.05 82.4439 163.452 82.2012 162.079 81.6449C160.717 81.0885 159.658 80.2244 158.9 79.0526C158.143 77.8807 157.77 76.401 157.782 74.6136V48.1932Z" fill="black"/>
<path d="M940.824 843.727V849.409H924.4V843.727H940.824ZM928.128 837.193H935.692V862.619C935.692 863.318 935.799 863.862 936.012 864.253C936.225 864.632 936.521 864.898 936.9 865.052C937.29 865.206 937.74 865.283 938.249 865.283C938.604 865.283 938.959 865.253 939.314 865.194C939.67 865.123 939.942 865.07 940.131 865.034L941.321 870.663C940.942 870.781 940.409 870.917 939.723 871.071C939.036 871.237 938.202 871.337 937.219 871.373C935.396 871.444 933.798 871.201 932.425 870.645C931.064 870.089 930.005 869.224 929.247 868.053C928.489 866.881 928.117 865.401 928.128 863.614V837.193ZM956.887 871.533C954.081 871.533 951.667 870.964 949.643 869.828C947.63 868.68 946.08 867.058 944.991 864.963C943.902 862.856 943.357 860.364 943.357 857.488C943.357 854.683 943.902 852.22 944.991 850.102C946.08 847.983 947.613 846.331 949.589 845.148C951.578 843.964 953.91 843.372 956.585 843.372C958.384 843.372 960.059 843.662 961.61 844.242C963.172 844.81 964.534 845.669 965.694 846.817C966.866 847.965 967.777 849.409 968.428 851.149C969.079 852.877 969.405 854.902 969.405 857.222V859.299H946.376V854.612H962.285C962.285 853.522 962.048 852.558 961.574 851.717C961.101 850.877 960.444 850.22 959.604 849.746C958.775 849.261 957.81 849.018 956.709 849.018C955.561 849.018 954.543 849.285 953.655 849.817C952.779 850.338 952.093 851.043 951.596 851.93C951.099 852.806 950.844 853.783 950.832 854.86V859.317C950.832 860.666 951.081 861.832 951.578 862.815C952.087 863.797 952.803 864.555 953.726 865.087C954.65 865.62 955.745 865.886 957.011 865.886C957.852 865.886 958.621 865.768 959.319 865.531C960.018 865.295 960.616 864.939 961.113 864.466C961.61 863.992 961.989 863.412 962.249 862.726L969.245 863.188C968.89 864.868 968.162 866.336 967.061 867.591C965.972 868.834 964.563 869.804 962.835 870.503C961.119 871.189 959.136 871.533 956.887 871.533ZM980.905 855.233V871H973.341V843.727H980.55V848.539H980.869C981.473 846.953 982.485 845.698 983.905 844.775C985.326 843.84 987.048 843.372 989.072 843.372C990.966 843.372 992.617 843.786 994.026 844.615C995.435 845.444 996.53 846.627 997.311 848.166C998.092 849.693 998.483 851.516 998.483 853.635V871H990.919V854.984C990.931 853.315 990.505 852.013 989.64 851.078C988.776 850.131 987.587 849.658 986.072 849.658C985.054 849.658 984.154 849.877 983.373 850.315C982.603 850.753 982 851.392 981.562 852.232C981.135 853.061 980.916 854.061 980.905 855.233ZM1011.22 871.515C1009.48 871.515 1007.93 871.213 1006.57 870.609C1005.21 869.994 1004.13 869.088 1003.34 867.893C1002.56 866.685 1002.17 865.182 1002.17 863.383C1002.17 861.868 1002.44 860.595 1003 859.565C1003.56 858.536 1004.31 857.707 1005.27 857.08C1006.23 856.452 1007.32 855.979 1008.54 855.659C1009.77 855.339 1011.06 855.115 1012.41 854.984C1014 854.819 1015.28 854.665 1016.25 854.523C1017.22 854.369 1017.92 854.144 1018.36 853.848C1018.8 853.552 1019.02 853.114 1019.02 852.534V852.428C1019.02 851.303 1018.66 850.433 1017.95 849.817C1017.25 849.202 1016.26 848.894 1014.97 848.894C1013.61 848.894 1012.52 849.196 1011.72 849.8C1010.91 850.392 1010.38 851.137 1010.12 852.037L1003.12 851.469C1003.48 849.812 1004.18 848.379 1005.22 847.172C1006.26 845.953 1007.6 845.018 1009.25 844.366C1010.91 843.704 1012.83 843.372 1015 843.372C1016.52 843.372 1017.97 843.55 1019.35 843.905C1020.75 844.26 1021.99 844.81 1023.06 845.556C1024.15 846.302 1025.01 847.261 1025.64 848.433C1026.27 849.593 1026.58 850.983 1026.58 852.605V871H1019.41V867.218H1019.19C1018.76 868.07 1018.17 868.822 1017.44 869.473C1016.7 870.112 1015.82 870.615 1014.79 870.982C1013.76 871.337 1012.57 871.515 1011.22 871.515ZM1013.39 866.295C1014.5 866.295 1015.48 866.076 1016.33 865.638C1017.19 865.188 1017.86 864.584 1018.34 863.827C1018.83 863.069 1019.07 862.211 1019.07 861.252V858.358C1018.83 858.512 1018.51 858.654 1018.09 858.784C1017.69 858.902 1017.23 859.015 1016.73 859.121C1016.22 859.216 1015.71 859.305 1015.2 859.388C1014.69 859.459 1014.23 859.524 1013.81 859.583C1012.93 859.713 1012.15 859.92 1011.49 860.205C1010.82 860.489 1010.31 860.873 1009.94 861.359C1009.58 861.832 1009.39 862.424 1009.39 863.134C1009.39 864.164 1009.77 864.951 1010.51 865.496C1011.27 866.028 1012.23 866.295 1013.39 866.295ZM1039.01 855.233V871H1031.45V843.727H1038.66V848.539H1038.98C1039.58 846.953 1040.59 845.698 1042.01 844.775C1043.43 843.84 1045.16 843.372 1047.18 843.372C1049.07 843.372 1050.72 843.786 1052.13 844.615C1053.54 845.444 1054.64 846.627 1055.42 848.166C1056.2 849.693 1056.59 851.516 1056.59 853.635V871H1049.03V854.984C1049.04 853.315 1048.61 852.013 1047.75 851.078C1046.88 850.131 1045.69 849.658 1044.18 849.658C1043.16 849.658 1042.26 849.877 1041.48 850.315C1040.71 850.753 1040.11 851.392 1039.67 852.232C1039.24 853.061 1039.02 854.061 1039.01 855.233ZM1076.06 843.727V849.409H1059.63V843.727H1076.06ZM1063.36 837.193H1070.93V862.619C1070.93 863.318 1071.03 863.862 1071.25 864.253C1071.46 864.632 1071.76 864.898 1072.13 865.052C1072.52 865.206 1072.97 865.283 1073.48 865.283C1073.84 865.283 1074.19 865.253 1074.55 865.194C1074.9 865.123 1075.18 865.07 1075.37 865.034L1076.56 870.663C1076.18 870.781 1075.64 870.917 1074.96 871.071C1074.27 871.237 1073.44 871.337 1072.45 871.373C1070.63 871.444 1069.03 871.201 1067.66 870.645C1066.3 870.089 1065.24 869.224 1064.48 868.053C1063.72 866.881 1063.35 865.401 1063.36 863.614V837.193ZM1102.34 851.504L1095.41 851.93C1095.29 851.339 1095.04 850.806 1094.65 850.332C1094.26 849.847 1093.74 849.462 1093.1 849.178C1092.47 848.882 1091.72 848.734 1090.85 848.734C1089.68 848.734 1088.69 848.983 1087.88 849.48C1087.08 849.965 1086.67 850.616 1086.67 851.433C1086.67 852.084 1086.94 852.635 1087.46 853.085C1087.98 853.534 1088.87 853.895 1090.14 854.168L1095.07 855.162C1097.72 855.706 1099.7 856.582 1101 857.79C1102.31 858.997 1102.96 860.583 1102.96 862.548C1102.96 864.336 1102.43 865.904 1101.38 867.254C1100.33 868.603 1098.9 869.656 1097.08 870.414C1095.27 871.16 1093.18 871.533 1090.81 871.533C1087.2 871.533 1084.33 870.781 1082.18 869.278C1080.05 867.763 1078.8 865.703 1078.44 863.099L1085.88 862.708C1086.1 863.809 1086.65 864.649 1087.51 865.229C1088.37 865.798 1089.48 866.082 1090.83 866.082C1092.16 866.082 1093.22 865.827 1094.03 865.318C1094.84 864.797 1095.26 864.129 1095.27 863.312C1095.26 862.625 1094.97 862.063 1094.4 861.625C1093.83 861.175 1092.95 860.832 1091.77 860.595L1087.05 859.654C1084.38 859.121 1082.4 858.198 1081.1 856.884C1079.81 855.57 1079.16 853.895 1079.16 851.859C1079.16 850.107 1079.64 848.598 1080.58 847.332C1081.54 846.065 1082.89 845.089 1084.62 844.402C1086.36 843.715 1088.39 843.372 1090.72 843.372C1094.17 843.372 1096.88 844.1 1098.86 845.556C1100.84 847.012 1102 848.995 1102.34 851.504Z" fill="black"/>
<rect width="137" height="1" transform="matrix(1 0 0 -1 189 767)" fill="#419EDA"/>
<rect x="306" y="53" width="21.1461" height="21.1461" fill="#FABE28"/>
<rect x="306" y="82.4277" width="21.1461" height="21.1461" fill="#FABE28"/>
<rect x="306" y="111.854" width="21.1461" height="21.1461" fill="#FABE28"/>
<rect x="616.748" y="53" width="21.1461" height="21.1461" fill="#FABE28"/>
<rect x="616.748" y="82.4277" width="21.1461" height="21.1461" fill="#FABE28"/>
<rect x="616.748" y="111.854" width="21.1461" height="21.1461" fill="#FABE28"/>
<rect x="340.527" y="53" width="21.1461" height="21.1461" fill="#FABE28"/>
<rect x="340.527" y="82.4277" width="21.1461" height="21.1461" fill="#FABE28"/>
<rect x="340.527" y="111.854" width="21.1461" height="21.1461" fill="#FABE28"/>
<rect x="375.055" y="53" width="21.1461" height="21.1461" fill="#FABE28"/>
<rect x="375.055" y="82.4277" width="21.1461" height="21.1461" fill="#FABE28"/>
<rect x="375.055" y="111.854" width="21.1461" height="21.1461" fill="#FABE28"/>
<rect x="409.583" y="53" width="21.1461" height="21.1461" fill="#FABE28"/>
<rect x="409.583" y="82.4277" width="21.1461" height="21.1461" fill="#FABE28"/>
<rect x="409.583" y="111.854" width="21.1461" height="21.1461" fill="#FABE28"/>
<rect x="444.11" y="53" width="21.1461" height="21.1461" fill="#FABE28"/>
<rect x="444.11" y="82.4277" width="21.1461" height="21.1461" fill="#FABE28"/>
<rect x="444.11" y="111.854" width="21.1461" height="21.1461" fill="#FABE28"/>
<rect x="478.638" y="53" width="21.1461" height="21.1461" fill="#FABE28"/>
<rect x="478.638" y="82.4277" width="21.1461" height="21.1461" fill="#FABE28"/>
<rect x="478.638" y="111.854" width="21.1461" height="21.1461" fill="#FABE28"/>
<rect x="513.166" y="53" width="21.1461" height="21.1461" fill="#FABE28"/>
<rect x="513.166" y="82.4277" width="21.1461" height="21.1461" fill="#FABE28"/>
<rect x="513.166" y="111.854" width="21.1461" height="21.1461" fill="#FABE28"/>
<rect x="547.693" y="53" width="21.1461" height="21.1461" fill="#FABE28"/>
<rect x="547.693" y="82.4277" width="21.1461" height="21.1461" fill="#FABE28"/>
<rect x="547.693" y="111.854" width="21.1461" height="21.1461" fill="#FABE28"/>
<rect x="582.221" y="53" width="21.1461" height="21.1461" fill="#FABE28"/>
<rect x="582.221" y="82.4277" width="21.1461" height="21.1461" fill="#FABE28"/>
<rect x="582.221" y="111.854" width="21.1461" height="21.1461" fill="#FABE28"/>
<rect x="823.23" y="53" width="21.1461" height="21.1461" fill="#FABE28"/>
<rect x="823.23" y="82.4277" width="21.1461" height="21.1461" fill="#FABE28"/>
<rect x="823.23" y="111.854" width="21.1461" height="21.1461" fill="#FABE28"/>
<rect x="1133.98" y="53" width="21.1461" height="21.1461" fill="#FABE28"/>
<rect x="1133.98" y="82.4277" width="21.1461" height="21.1461" fill="#FABE28"/>
<rect x="1133.98" y="111.854" width="21.1461" height="21.1461" fill="#FABE28"/>
<rect x="857.758" y="53" width="21.1461" height="21.1461" fill="#FABE28"/>
<rect x="857.758" y="82.4277" width="21.1461" height="21.1461" fill="#FABE28"/>
<rect x="857.758" y="111.854" width="21.1461" height="21.1461" fill="#FABE28"/>
<rect x="892.285" y="53" width="21.1461" height="21.1461" fill="#FABE28"/>
<rect x="892.285" y="82.4277" width="21.1461" height="21.1461" fill="#FABE28"/>
<rect x="892.285" y="111.854" width="21.1461" height="21.1461" fill="#FABE28"/>
<rect x="926.813" y="53" width="21.1461" height="21.1461" fill="#FABE28"/>
<rect x="926.813" y="82.4277" width="21.1461" height="21.1461" fill="#FABE28"/>
<rect x="926.813" y="111.854" width="21.1461" height="21.1461" fill="#FABE28"/>
<rect x="961.341" y="53" width="21.1461" height="21.1461" fill="#FABE28"/>
<rect x="961.341" y="82.4277" width="21.1461" height="21.1461" fill="#FABE28"/>
<rect x="961.341" y="111.854" width="21.1461" height="21.1461" fill="#FABE28"/>
<rect x="995.869" y="53" width="21.1461" height="21.1461" fill="#FABE28"/>
<rect x="995.869" y="82.4277" width="21.1461" height="21.1461" fill="#FABE28"/>
<rect x="995.869" y="111.854" width="21.1461" height="21.1461" fill="#FABE28"/>
<rect x="1030.4" y="53" width="21.1461" height="21.1461" fill="#FABE28"/>
<rect x="1030.4" y="82.4277" width="21.1461" height="21.1461" fill="#FABE28"/>
<rect x="1030.4" y="111.854" width="21.1461" height="21.1461" fill="#FABE28"/>
<rect x="1064.92" y="53" width="21.1461" height="21.1461" fill="#FABE28"/>
<rect x="1064.92" y="82.4277" width="21.1461" height="21.1461" fill="#FABE28"/>
<rect x="1064.92" y="111.854" width="21.1461" height="21.1461" fill="#FABE28"/>
<rect x="1099.45" y="53" width="21.1461" height="21.1461" fill="#FABE28"/>
<rect x="1099.45" y="82.4277" width="21.1461" height="21.1461" fill="#FABE28"/>
<rect x="1099.45" y="111.854" width="21.1461" height="21.1461" fill="#FABE28"/>
<rect x="651.011" y="53" width="21.1461" height="21.1461" fill="#FABE28"/>
<rect x="651.011" y="82.4277" width="21.1461" height="21.1461" fill="#FABE28"/>
<rect x="651.011" y="111.854" width="21.1461" height="21.1461" fill="#FABE28"/>
<rect x="685.538" y="53" width="21.1461" height="21.1461" fill="#FABE28"/>
<rect x="685.538" y="82.4277" width="21.1461" height="21.1461" fill="#FABE28"/>
<rect x="685.538" y="111.854" width="21.1461" height="21.1461" fill="#FABE28"/>
<rect x="720.066" y="53" width="21.1461" height="21.1461" fill="#FABE28"/>
<rect x="720.066" y="82.4277" width="21.1461" height="21.1461" fill="#FABE28"/>
<rect x="720.066" y="111.854" width="21.1461" height="21.1461" fill="#FABE28"/>
<rect x="754.594" y="53" width="21.1461" height="21.1461" fill="#FABE28"/>
<rect x="754.594" y="82.4277" width="21.1461" height="21.1461" fill="#FABE28"/>
<rect x="754.594" y="111.854" width="21.1461" height="21.1461" fill="#FABE28"/>
<rect x="789.121" y="53" width="21.1461" height="21.1461" fill="#FABE28"/>
<rect x="789.121" y="82.4277" width="21.1461" height="21.1461" fill="#FABE28"/>
<rect x="789.121" y="111.854" width="21.1461" height="21.1461" fill="#FABE28"/>
<rect x="306" y="154" width="21.1461" height="21.1461" fill="#FABE28"/>
<rect x="306" y="183.428" width="21.1461" height="21.1461" fill="#FABE28"/>
<rect x="306" y="212.854" width="21.1461" height="21.1461" fill="#FABE28"/>
<rect x="616.748" y="154" width="21.1461" height="21.1461" fill="#FABE28"/>
<rect x="616.748" y="183.428" width="21.1461" height="21.1461" fill="#FABE28"/>
<rect x="616.748" y="212.854" width="21.1461" height="21.1461" fill="#FABE28"/>
<rect x="340.527" y="154" width="21.1461" height="21.1461" fill="#FABE28"/>
<rect x="340.527" y="183.428" width="21.1461" height="21.1461" fill="#FABE28"/>
<rect x="340.527" y="212.854" width="21.1461" height="21.1461" fill="#FABE28"/>
<rect x="375.055" y="154" width="21.1461" height="21.1461" fill="#FABE28"/>
<rect x="375.055" y="183.428" width="21.1461" height="21.1461" fill="#FABE28"/>
<rect x="375.055" y="212.854" width="21.1461" height="21.1461" fill="#FABE28"/>
<rect x="409.583" y="154" width="21.1461" height="21.1461" fill="#FABE28"/>
<rect x="409.583" y="183.428" width="21.1461" height="21.1461" fill="#FABE28"/>
<rect x="409.583" y="212.854" width="21.1461" height="21.1461" fill="#FABE28"/>
<rect x="444.11" y="154" width="21.1461" height="21.1461" fill="#FABE28"/>
<rect x="444.11" y="183.428" width="21.1461" height="21.1461" fill="#FABE28"/>
<rect x="444.11" y="212.854" width="21.1461" height="21.1461" fill="#FABE28"/>
<rect x="478.638" y="154" width="21.1461" height="21.1461" fill="#FABE28"/>
<rect x="478.638" y="183.428" width="21.1461" height="21.1461" fill="#FABE28"/>
<rect x="478.638" y="212.854" width="21.1461" height="21.1461" fill="#FABE28"/>
<rect x="513.166" y="154" width="21.1461" height="21.1461" fill="#FABE28"/>
<rect x="513.166" y="183.428" width="21.1461" height="21.1461" fill="#FABE28"/>
<rect x="513.166" y="212.854" width="21.1461" height="21.1461" fill="#FABE28"/>
<rect x="547.693" y="154" width="21.1461" height="21.1461" fill="#FABE28"/>
<rect x="547.693" y="183.428" width="21.1461" height="21.1461" fill="#FABE28"/>
<rect x="547.693" y="212.854" width="21.1461" height="21.1461" fill="#FABE28"/>
<rect x="582.221" y="154" width="21.1461" height="21.1461" fill="#FABE28"/>
<rect x="582.221" y="183.428" width="21.1461" height="21.1461" fill="#FABE28"/>
<rect x="582.221" y="212.854" width="21.1461" height="21.1461" fill="#FABE28"/>
<rect x="823.23" y="154" width="21.1461" height="21.1461" fill="#FABE28"/>
<rect x="823.23" y="183.428" width="21.1461" height="21.1461" fill="#FABE28"/>
<rect x="823.23" y="212.854" width="21.1461" height="21.1461" fill="#FABE28"/>
<rect x="1133.98" y="154" width="21.1461" height="21.1461" fill="#FABE28"/>
<rect x="1133.98" y="183.428" width="21.1461" height="21.1461" fill="#FABE28"/>
<rect x="1133.98" y="212.854" width="21.1461" height="21.1461" fill="#FABE28"/>
<rect x="857.758" y="154" width="21.1461" height="21.1461" fill="#FABE28"/>
<rect x="857.758" y="183.428" width="21.1461" height="21.1461" fill="#FABE28"/>
<rect x="857.758" y="212.854" width="21.1461" height="21.1461" fill="#FABE28"/>
<rect x="892.285" y="154" width="21.1461" height="21.1461" fill="#FABE28"/>
<rect x="892.285" y="183.428" width="21.1461" height="21.1461" fill="#FABE28"/>
<rect x="892.285" y="212.854" width="21.1461" height="21.1461" fill="#FABE28"/>
<rect x="926.813" y="154" width="21.1461" height="21.1461" fill="#FABE28"/>
<rect x="926.813" y="183.428" width="21.1461" height="21.1461" fill="#FABE28"/>
<rect x="926.813" y="212.854" width="21.1461" height="21.1461" fill="#FABE28"/>
<rect x="961.341" y="154" width="21.1461" height="21.1461" fill="#FABE28"/>
<rect x="961.341" y="183.428" width="21.1461" height="21.1461" fill="#FABE28"/>
<rect x="961.341" y="212.854" width="21.1461" height="21.1461" fill="#FABE28"/>
<rect x="995.869" y="154" width="21.1461" height="21.1461" fill="#FABE28"/>
<rect x="995.869" y="183.428" width="21.1461" height="21.1461" fill="#FABE28"/>
<rect x="995.869" y="212.854" width="21.1461" height="21.1461" fill="#FABE28"/>
<rect x="1030.4" y="154" width="21.1461" height="21.1461" fill="#FABE28"/>
<rect x="1030.4" y="183.428" width="21.1461" height="21.1461" fill="#FABE28"/>
<rect x="1030.4" y="212.854" width="21.1461" height="21.1461" fill="#FABE28"/>
<rect x="1064.92" y="154" width="21.1461" height="21.1461" fill="#FABE28"/>
<rect x="1064.92" y="183.428" width="21.1461" height="21.1461" fill="#FABE28"/>
<rect x="1064.92" y="212.854" width="21.1461" height="21.1461" fill="#FABE28"/>
<rect x="1099.45" y="154" width="21.1461" height="21.1461" fill="#FABE28"/>
<rect x="1099.45" y="183.428" width="21.1461" height="21.1461" fill="#FABE28"/>
<rect x="1099.45" y="212.854" width="21.1461" height="21.1461" fill="#FABE28"/>
<rect x="651.011" y="154" width="21.1461" height="21.1461" fill="#FABE28"/>
<rect x="651.011" y="183.428" width="21.1461" height="21.1461" fill="#FABE28"/>
<rect x="651.011" y="212.854" width="21.1461" height="21.1461" fill="#FABE28"/>
<rect x="685.538" y="154" width="21.1461" height="21.1461" fill="#FABE28"/>
<rect x="685.538" y="183.428" width="21.1461" height="21.1461" fill="#FABE28"/>
<rect x="685.538" y="212.854" width="21.1461" height="21.1461" fill="#FABE28"/>
<rect x="720.066" y="154" width="21.1461" height="21.1461" fill="#FABE28"/>
<rect x="720.066" y="183.428" width="21.1461" height="21.1461" fill="#FABE28"/>
<rect x="720.066" y="212.854" width="21.1461" height="21.1461" fill="#FABE28"/>
<rect x="754.594" y="154" width="21.1461" height="21.1461" fill="#FABE28"/>
<rect x="754.594" y="183.428" width="21.1461" height="21.1461" fill="#FABE28"/>
<rect x="754.594" y="212.854" width="21.1461" height="21.1461" fill="#FABE28"/>
<rect x="789.121" y="154" width="21.1461" height="21.1461" fill="#FABE28"/>
<rect x="789.121" y="183.428" width="21.1461" height="21.1461" fill="#FABE28"/>
<rect x="789.121" y="212.854" width="21.1461" height="21.1461" fill="#FABE28"/>
<path d="M323.048 71.6731C322.624 71.6731 322.21 71.5091 321.893 71.1959L312.257 61.5558V70.0067C312.257 70.9014 311.526 71.6358 310.628 71.6358C309.73 71.6358 309 70.9462 309 70.0067V57.6304C309 56.9706 309.399 56.3779 310.006 56.1244C310.614 55.8709 311.31 56.0126 311.78 56.4785L321.416 66.1186V57.6304C321.416 56.7358 322.147 56.0014 323.045 56.0014C323.943 56.0014 324.673 56.732 324.673 57.6304V70.0067C324.673 70.9014 323.943 71.6358 323.045 71.6358L323.048 71.6731Z" fill="black"/>
<path d="M357.529 71.6731C357.104 71.6731 356.691 71.5091 356.374 71.1959L346.738 61.5558V70.0067C346.738 70.9014 346.007 71.6358 345.109 71.6358C344.211 71.6358 343.481 70.9462 343.481 70.0067V57.6304C343.481 56.9706 343.879 56.3779 344.487 56.1244C345.094 55.8709 345.791 56.0126 346.261 56.4785L355.897 66.1186V57.6304C355.897 56.7358 356.627 56.0014 357.525 56.0014C358.423 56.0014 359.154 56.732 359.154 57.6304V70.0067C359.154 70.9014 358.423 71.6358 357.525 71.6358L357.529 71.6731Z" fill="black"/>
<path d="M392.01 71.6731C391.585 71.6731 391.171 71.5091 390.855 71.1959L381.218 61.5558V70.0067C381.218 70.9014 380.488 71.6358 379.59 71.6358C378.692 71.6358 377.962 70.9462 377.962 70.0067V57.6304C377.962 56.9706 378.36 56.3779 378.968 56.1244C379.575 55.8709 380.272 56.0126 380.741 56.4785L390.378 66.1186V57.6304C390.378 56.7358 391.108 56.0014 392.006 56.0014C392.904 56.0014 393.635 56.732 393.635 57.6304V70.0067C393.635 70.9014 392.904 71.6358 392.006 71.6358L392.01 71.6731Z" fill="black"/>
<path d="M426.491 71.6731C426.066 71.6731 425.652 71.5091 425.336 71.1959L415.699 61.5558V70.0067C415.699 70.9014 414.969 71.6358 414.071 71.6358C413.173 71.6358 412.442 70.9462 412.442 70.0067V57.6304C412.442 56.9706 412.841 56.3779 413.448 56.1244C414.056 55.8709 414.753 56.0126 415.222 56.4785L424.859 66.1186V57.6304C424.859 56.7358 425.589 56.0014 426.487 56.0014C427.385 56.0014 428.115 56.732 428.115 57.6304V70.0067C428.115 70.9014 427.385 71.6358 426.487 71.6358L426.491 71.6731Z" fill="black"/>
<path d="M460.971 71.6731C460.547 71.6731 460.133 71.5091 459.816 71.1959L450.18 61.5558V70.0067C450.18 70.9014 449.45 71.6358 448.551 71.6358C447.653 71.6358 446.923 70.9462 446.923 70.0067V57.6304C446.923 56.9706 447.322 56.3779 447.929 56.1244C448.537 55.8709 449.233 56.0126 449.703 56.4785L459.339 66.1186V57.6304C459.339 56.7358 460.07 56.0014 460.968 56.0014C461.866 56.0014 462.596 56.732 462.596 57.6304V70.0067C462.596 70.9014 461.866 71.6358 460.968 71.6358L460.971 71.6731Z" fill="black"/>
<path d="M495.06 71.6731C494.636 71.6731 494.222 71.5091 493.905 71.1959L484.269 61.5558V70.0067C484.269 70.9014 483.538 71.6358 482.64 71.6358C481.742 71.6358 481.012 70.9462 481.012 70.0067V57.6304C481.012 56.9706 481.411 56.3779 482.018 56.1244C482.626 55.8709 483.322 56.0126 483.792 56.4785L493.428 66.1186V57.6304C493.428 56.7358 494.159 56.0014 495.057 56.0014C495.955 56.0014 496.685 56.732 496.685 57.6304V70.0067C496.685 70.9014 495.955 71.6358 495.057 71.6358L495.06 71.6731Z" fill="black"/>
<path d="M529.933 71.6731C529.508 71.6731 529.095 71.5091 528.778 71.1959L519.141 61.5558V70.0067C519.141 70.9014 518.411 71.6358 517.513 71.6358C516.615 71.6358 515.885 70.9462 515.885 70.0067V57.6304C515.885 56.9706 516.283 56.3779 516.891 56.1244C517.498 55.8709 518.195 56.0126 518.664 56.4785L528.301 66.1186V57.6304C528.301 56.7358 529.031 56.0014 529.929 56.0014C530.827 56.0014 531.558 56.732 531.558 57.6304V70.0067C531.558 70.9014 530.827 71.6358 529.929 71.6358L529.933 71.6731Z" fill="black"/>
<path d="M564.414 71.6731C563.989 71.6731 563.575 71.5091 563.259 71.1959L553.622 61.5558V70.0067C553.622 70.9014 552.892 71.6358 551.994 71.6358C551.096 71.6358 550.365 70.9462 550.365 70.0067V57.6304C550.365 56.9706 550.764 56.3779 551.372 56.1244C551.979 55.8709 552.676 56.0126 553.145 56.4785L562.782 66.1186V57.6304C562.782 56.7358 563.512 56.0014 564.41 56.0014C565.308 56.0014 566.038 56.732 566.038 57.6304V70.0067C566.038 70.9014 565.308 71.6358 564.41 71.6358L564.414 71.6731Z" fill="black"/>
<path d="M598.895 71.6731C598.47 71.6731 598.056 71.5091 597.739 71.1959L588.103 61.5558V70.0067C588.103 70.9014 587.373 71.6358 586.475 71.6358C585.577 71.6358 584.846 70.9462 584.846 70.0067V57.6304C584.846 56.9706 585.245 56.3779 585.852 56.1244C586.46 55.8709 587.156 56.0126 587.626 56.4785L597.262 66.1186V57.6304C597.262 56.7358 597.993 56.0014 598.891 56.0014C599.789 56.0014 600.519 56.732 600.519 57.6304V70.0067C600.519 70.9014 599.789 71.6358 598.891 71.6358L598.895 71.6731Z" fill="black"/>
<path d="M633.375 71.6731C632.951 71.6731 632.537 71.5091 632.22 71.1959L622.584 61.5558V70.0067C622.584 70.9014 621.853 71.6358 620.955 71.6358C620.057 71.6358 619.327 70.9462 619.327 70.0067V57.6304C619.327 56.9706 619.726 56.3779 620.333 56.1244C620.94 55.8709 621.637 56.0126 622.107 56.4785L631.743 66.1186V57.6304C631.743 56.7358 632.474 56.0014 633.372 56.0014C634.27 56.0014 635 56.732 635 57.6304V70.0067C635 70.9014 634.27 71.6358 633.372 71.6358L633.375 71.6731Z" fill="black"/>
<path d="M323.048 101.06C322.624 101.06 322.21 100.896 321.893 100.583L312.257 90.9428V99.3938C312.257 100.288 311.526 101.023 310.628 101.023C309.73 101.023 309 100.333 309 99.3938V87.0175C309 86.3576 309.399 85.7649 310.006 85.5114C310.614 85.2579 311.31 85.3996 311.78 85.8656L321.416 95.5057V87.0175C321.416 86.1228 322.147 85.3884 323.045 85.3884C323.943 85.3884 324.673 86.1191 324.673 87.0175V99.3938C324.673 100.288 323.943 101.023 323.045 101.023L323.048 101.06Z" fill="black"/>
<path d="M357.529 101.06C357.104 101.06 356.691 100.896 356.374 100.583L346.738 90.9428V99.3938C346.738 100.288 346.007 101.023 345.109 101.023C344.211 101.023 343.481 100.333 343.481 99.3938V87.0175C343.481 86.3576 343.879 85.7649 344.487 85.5114C345.094 85.2579 345.791 85.3996 346.261 85.8656L355.897 95.5057V87.0175C355.897 86.1228 356.627 85.3884 357.525 85.3884C358.423 85.3884 359.154 86.1191 359.154 87.0175V99.3938C359.154 100.288 358.423 101.023 357.525 101.023L357.529 101.06Z" fill="black"/>
<path d="M392.01 101.06C391.585 101.06 391.171 100.896 390.855 100.583L381.218 90.9428V99.3938C381.218 100.288 380.488 101.023 379.59 101.023C378.692 101.023 377.962 100.333 377.962 99.3938V87.0175C377.962 86.3576 378.36 85.7649 378.968 85.5114C379.575 85.2579 380.272 85.3996 380.741 85.8656L390.378 95.5057V87.0175C390.378 86.1228 391.108 85.3884 392.006 85.3884C392.904 85.3884 393.635 86.1191 393.635 87.0175V99.3938C393.635 100.288 392.904 101.023 392.006 101.023L392.01 101.06Z" fill="black"/>
<path d="M426.491 101.06C426.066 101.06 425.652 100.896 425.336 100.583L415.699 90.9428V99.3938C415.699 100.288 414.969 101.023 414.071 101.023C413.173 101.023 412.442 100.333 412.442 99.3938V87.0175C412.442 86.3576 412.841 85.7649 413.448 85.5114C414.056 85.2579 414.753 85.3996 415.222 85.8656L424.859 95.5057V87.0175C424.859 86.1228 425.589 85.3884 426.487 85.3884C427.385 85.3884 428.115 86.1191 428.115 87.0175V99.3938C428.115 100.288 427.385 101.023 426.487 101.023L426.491 101.06Z" fill="black"/>
<path d="M460.971 101.06C460.547 101.06 460.133 100.896 459.816 100.583L450.18 90.9428V99.3938C450.18 100.288 449.45 101.023 448.551 101.023C447.653 101.023 446.923 100.333 446.923 99.3938V87.0175C446.923 86.3576 447.322 85.7649 447.929 85.5114C448.537 85.2579 449.233 85.3996 449.703 85.8656L459.339 95.5057V87.0175C459.339 86.1228 460.07 85.3884 460.968 85.3884C461.866 85.3884 462.596 86.1191 462.596 87.0175V99.3938C462.596 100.288 461.866 101.023 460.968 101.023L460.971 101.06Z" fill="black"/>
<path d="M495.06 101.06C494.636 101.06 494.222 100.896 493.905 100.583L484.269 90.9428V99.3938C484.269 100.288 483.538 101.023 482.64 101.023C481.742 101.023 481.012 100.333 481.012 99.3938V87.0175C481.012 86.3576 481.411 85.7649 482.018 85.5114C482.626 85.2579 483.322 85.3996 483.792 85.8656L493.428 95.5057V87.0175C493.428 86.1228 494.159 85.3884 495.057 85.3884C495.955 85.3884 496.685 86.1191 496.685 87.0175V99.3938C496.685 100.288 495.955 101.023 495.057 101.023L495.06 101.06Z" fill="black"/>
<path d="M529.933 101.06C529.508 101.06 529.095 100.896 528.778 100.583L519.141 90.9428V99.3938C519.141 100.288 518.411 101.023 517.513 101.023C516.615 101.023 515.885 100.333 515.885 99.3938V87.0175C515.885 86.3576 516.283 85.7649 516.891 85.5114C517.498 85.2579 518.195 85.3996 518.664 85.8656L528.301 95.5057V87.0175C528.301 86.1228 529.031 85.3884 529.929 85.3884C530.827 85.3884 531.558 86.1191 531.558 87.0175V99.3938C531.558 100.288 530.827 101.023 529.929 101.023L529.933 101.06Z" fill="black"/>
<path d="M564.414 101.06C563.989 101.06 563.575 100.896 563.259 100.583L553.622 90.9428V99.3938C553.622 100.288 552.892 101.023 551.994 101.023C551.096 101.023 550.365 100.333 550.365 99.3938V87.0175C550.365 86.3576 550.764 85.7649 551.372 85.5114C551.979 85.2579 552.676 85.3996 553.145 85.8656L562.782 95.5057V87.0175C562.782 86.1228 563.512 85.3884 564.41 85.3884C565.308 85.3884 566.038 86.1191 566.038 87.0175V99.3938C566.038 100.288 565.308 101.023 564.41 101.023L564.414 101.06Z" fill="black"/>
<path d="M598.895 101.06C598.47 101.06 598.056 100.896 597.739 100.583L588.103 90.9428V99.3938C588.103 100.288 587.373 101.023 586.475 101.023C585.577 101.023 584.846 100.333 584.846 99.3938V87.0175C584.846 86.3576 585.245 85.7649 585.852 85.5114C586.46 85.2579 587.156 85.3996 587.626 85.8656L597.262 95.5057V87.0175C597.262 86.1228 597.993 85.3884 598.891 85.3884C599.789 85.3884 600.519 86.1191 600.519 87.0175V99.3938C600.519 100.288 599.789 101.023 598.891 101.023L598.895 101.06Z" fill="black"/>
<path d="M633.375 101.06C632.951 101.06 632.537 100.896 632.22 100.583L622.584 90.9428V99.3938C622.584 100.288 621.853 101.023 620.955 101.023C620.057 101.023 619.327 100.333 619.327 99.3938V87.0175C619.327 86.3576 619.726 85.7649 620.333 85.5114C620.94 85.2579 621.637 85.3996 622.107 85.8656L631.743 95.5057V87.0175C631.743 86.1228 632.474 85.3884 633.372 85.3884C634.27 85.3884 635 86.1191 635 87.0175V99.3938C635 100.288 634.27 101.023 633.372 101.023L633.375 101.06Z" fill="black"/>
<path d="M323.048 130.447C322.624 130.447 322.21 130.283 321.893 129.97L312.257 120.33V128.781C312.257 129.675 311.526 130.41 310.628 130.41C309.73 130.41 309 129.72 309 128.781V116.404C309 115.745 309.399 115.152 310.006 114.898C310.614 114.645 311.31 114.787 311.78 115.253L321.416 124.893V116.404C321.416 115.51 322.147 114.775 323.045 114.775C323.943 114.775 324.673 115.506 324.673 116.404V128.781C324.673 129.675 323.943 130.41 323.045 130.41L323.048 130.447Z" fill="black"/>
<path d="M357.529 130.447C357.104 130.447 356.691 130.283 356.374 129.97L346.738 120.33V128.781C346.738 129.675 346.007 130.41 345.109 130.41C344.211 130.41 343.481 129.72 343.481 128.781V116.404C343.481 115.745 343.879 115.152 344.487 114.898C345.094 114.645 345.791 114.787 346.261 115.253L355.897 124.893V116.404C355.897 115.51 356.627 114.775 357.525 114.775C358.423 114.775 359.154 115.506 359.154 116.404V128.781C359.154 129.675 358.423 130.41 357.525 130.41L357.529 130.447Z" fill="black"/>
<path d="M392.01 130.447C391.585 130.447 391.171 130.283 390.855 129.97L381.218 120.33V128.781C381.218 129.675 380.488 130.41 379.59 130.41C378.692 130.41 377.962 129.72 377.962 128.781V116.404C377.962 115.745 378.36 115.152 378.968 114.898C379.575 114.645 380.272 114.787 380.741 115.253L390.378 124.893V116.404C390.378 115.51 391.108 114.775 392.006 114.775C392.904 114.775 393.635 115.506 393.635 116.404V128.781C393.635 129.675 392.904 130.41 392.006 130.41L392.01 130.447Z" fill="black"/>
<path d="M426.491 130.447C426.066 130.447 425.652 130.283 425.336 129.97L415.699 120.33V128.781C415.699 129.675 414.969 130.41 414.071 130.41C413.173 130.41 412.442 129.72 412.442 128.781V116.404C412.442 115.745 412.841 115.152 413.448 114.898C414.056 114.645 414.753 114.787 415.222 115.253L424.859 124.893V116.404C424.859 115.51 425.589 114.775 426.487 114.775C427.385 114.775 428.115 115.506 428.115 116.404V128.781C428.115 129.675 427.385 130.41 426.487 130.41L426.491 130.447Z" fill="black"/>
<path d="M460.971 130.447C460.547 130.447 460.133 130.283 459.816 129.97L450.18 120.33V128.781C450.18 129.675 449.45 130.41 448.551 130.41C447.653 130.41 446.923 129.72 446.923 128.781V116.404C446.923 115.745 447.322 115.152 447.929 114.898C448.537 114.645 449.233 114.787 449.703 115.253L459.339 124.893V116.404C459.339 115.51 460.07 114.775 460.968 114.775C461.866 114.775 462.596 115.506 462.596 116.404V128.781C462.596 129.675 461.866 130.41 460.968 130.41L460.971 130.447Z" fill="black"/>
<path d="M495.06 130.447C494.636 130.447 494.222 130.283 493.905 129.97L484.269 120.33V128.781C484.269 129.675 483.538 130.41 482.64 130.41C481.742 130.41 481.012 129.72 481.012 128.781V116.404C481.012 115.745 481.411 115.152 482.018 114.898C482.626 114.645 483.322 114.787 483.792 115.253L493.428 124.893V116.404C493.428 115.51 494.159 114.775 495.057 114.775C495.955 114.775 496.685 115.506 496.685 116.404V128.781C496.685 129.675 495.955 130.41 495.057 130.41L495.06 130.447Z" fill="black"/>
<path d="M529.933 130.447C529.508 130.447 529.095 130.283 528.778 129.97L519.141 120.33V128.781C519.141 129.675 518.411 130.41 517.513 130.41C516.615 130.41 515.885 129.72 515.885 128.781V116.404C515.885 115.745 516.283 115.152 516.891 114.898C517.498 114.645 518.195 114.787 518.664 115.253L528.301 124.893V116.404C528.301 115.51 529.031 114.775 529.929 114.775C530.827 114.775 531.558 115.506 531.558 116.404V128.781C531.558 129.675 530.827 130.41 529.929 130.41L529.933 130.447Z" fill="black"/>
<path d="M564.414 130.447C563.989 130.447 563.575 130.283 563.259 129.97L553.622 120.33V128.781C553.622 129.675 552.892 130.41 551.994 130.41C551.096 130.41 550.365 129.72 550.365 128.781V116.404C550.365 115.745 550.764 115.152 551.372 114.898C551.979 114.645 552.676 114.787 553.145 115.253L562.782 124.893V116.404C562.782 115.51 563.512 114.775 564.41 114.775C565.308 114.775 566.038 115.506 566.038 116.404V128.781C566.038 129.675 565.308 130.41 564.41 130.41L564.414 130.447Z" fill="black"/>
<path d="M598.895 130.447C598.47 130.447 598.056 130.283 597.739 129.97L588.103 120.33V128.781C588.103 129.675 587.373 130.41 586.475 130.41C585.577 130.41 584.846 129.72 584.846 128.781V116.404C584.846 115.745 585.245 115.152 585.852 114.898C586.46 114.645 587.156 114.787 587.626 115.253L597.262 124.893V116.404C597.262 115.51 597.993 114.775 598.891 114.775C599.789 114.775 600.519 115.506 600.519 116.404V128.781C600.519 129.675 599.789 130.41 598.891 130.41L598.895 130.447Z" fill="black"/>
<path d="M633.375 130.447C632.951 130.447 632.537 130.283 632.22 129.97L622.584 120.33V128.781C622.584 129.675 621.853 130.41 620.955 130.41C620.057 130.41 619.327 129.72 619.327 128.781V116.404C619.327 115.745 619.726 115.152 620.333 114.898C620.94 114.645 621.637 114.787 622.107 115.253L631.743 124.893V116.404C631.743 115.51 632.474 114.775 633.372 114.775C634.27 114.775 635 115.506 635 116.404V128.781C635 129.675 634.27 130.41 633.372 130.41L633.375 130.447Z" fill="black"/>
<path d="M668.048 71.6731C667.624 71.6731 667.21 71.5091 666.893 71.1959L657.257 61.5558V70.0067C657.257 70.9014 656.526 71.6358 655.628 71.6358C654.73 71.6358 654 70.9462 654 70.0067V57.6304C654 56.9706 654.399 56.3779 655.006 56.1244C655.613 55.8709 656.31 56.0126 656.78 56.4785L666.416 66.1186V57.6304C666.416 56.7358 667.147 56.0014 668.045 56.0014C668.943 56.0014 669.673 56.732 669.673 57.6304V70.0067C669.673 70.9014 668.943 71.6358 668.045 71.6358L668.048 71.6731Z" fill="black"/>
<path d="M702.529 71.6731C702.104 71.6731 701.691 71.5091 701.374 71.1959L691.738 61.5558V70.0067C691.738 70.9014 691.007 71.6358 690.109 71.6358C689.211 71.6358 688.481 70.9462 688.481 70.0067V57.6304C688.481 56.9706 688.879 56.3779 689.487 56.1244C690.094 55.8709 690.791 56.0126 691.261 56.4785L700.897 66.1186V57.6304C700.897 56.7358 701.627 56.0014 702.525 56.0014C703.423 56.0014 704.154 56.732 704.154 57.6304V70.0067C704.154 70.9014 703.423 71.6358 702.525 71.6358L702.529 71.6731Z" fill="black"/>
<path d="M737.01 71.6731C736.585 71.6731 736.171 71.5091 735.855 71.1959L726.218 61.5558V70.0067C726.218 70.9014 725.488 71.6358 724.59 71.6358C723.692 71.6358 722.962 70.9462 722.962 70.0067V57.6304C722.962 56.9706 723.36 56.3779 723.968 56.1244C724.575 55.8709 725.272 56.0126 725.741 56.4785L735.378 66.1186V57.6304C735.378 56.7358 736.108 56.0014 737.006 56.0014C737.904 56.0014 738.635 56.732 738.635 57.6304V70.0067C738.635 70.9014 737.904 71.6358 737.006 71.6358L737.01 71.6731Z" fill="black"/>
<path d="M771.491 71.6731C771.066 71.6731 770.652 71.5091 770.336 71.1959L760.699 61.5558V70.0067C760.699 70.9014 759.969 71.6358 759.071 71.6358C758.173 71.6358 757.442 70.9462 757.442 70.0067V57.6304C757.442 56.9706 757.841 56.3779 758.448 56.1244C759.056 55.8709 759.753 56.0126 760.222 56.4785L769.859 66.1186V57.6304C769.859 56.7358 770.589 56.0014 771.487 56.0014C772.385 56.0014 773.115 56.732 773.115 57.6304V70.0067C773.115 70.9014 772.385 71.6358 771.487 71.6358L771.491 71.6731Z" fill="black"/>
<path d="M805.971 71.6731C805.547 71.6731 805.133 71.5091 804.816 71.1959L795.18 61.5558V70.0067C795.18 70.9014 794.45 71.6358 793.552 71.6358C792.653 71.6358 791.923 70.9462 791.923 70.0067V57.6304C791.923 56.9706 792.322 56.3779 792.929 56.1244C793.537 55.8709 794.233 56.0126 794.703 56.4785L804.339 66.1186V57.6304C804.339 56.7358 805.07 56.0014 805.968 56.0014C806.866 56.0014 807.596 56.732 807.596 57.6304V70.0067C807.596 70.9014 806.866 71.6358 805.968 71.6358L805.971 71.6731Z" fill="black"/>
<path d="M840.06 71.6731C839.636 71.6731 839.222 71.5091 838.905 71.1959L829.269 61.5558V70.0067C829.269 70.9014 828.539 71.6358 827.64 71.6358C826.742 71.6358 826.012 70.9462 826.012 70.0067V57.6304C826.012 56.9706 826.411 56.3779 827.018 56.1244C827.626 55.8709 828.322 56.0126 828.792 56.4785L838.428 66.1186V57.6304C838.428 56.7358 839.159 56.0014 840.057 56.0014C840.955 56.0014 841.685 56.732 841.685 57.6304V70.0067C841.685 70.9014 840.955 71.6358 840.057 71.6358L840.06 71.6731Z" fill="black"/>
<path d="M874.933 71.6731C874.508 71.6731 874.095 71.5091 873.778 71.1959L864.141 61.5558V70.0067C864.141 70.9014 863.411 71.6358 862.513 71.6358C861.615 71.6358 860.885 70.9462 860.885 70.0067V57.6304C860.885 56.9706 861.283 56.3779 861.891 56.1244C862.498 55.8709 863.195 56.0126 863.664 56.4785L873.301 66.1186V57.6304C873.301 56.7358 874.031 56.0014 874.929 56.0014C875.827 56.0014 876.558 56.732 876.558 57.6304V70.0067C876.558 70.9014 875.827 71.6358 874.929 71.6358L874.933 71.6731Z" fill="black"/>
<path d="M909.414 71.6731C908.989 71.6731 908.575 71.5091 908.259 71.1959L898.622 61.5558V70.0067C898.622 70.9014 897.892 71.6358 896.994 71.6358C896.096 71.6358 895.365 70.9462 895.365 70.0067V57.6304C895.365 56.9706 895.764 56.3779 896.372 56.1244C896.979 55.8709 897.676 56.0126 898.145 56.4785L907.782 66.1186V57.6304C907.782 56.7358 908.512 56.0014 909.41 56.0014C910.308 56.0014 911.038 56.732 911.038 57.6304V70.0067C911.038 70.9014 910.308 71.6358 909.41 71.6358L909.414 71.6731Z" fill="black"/>
<path d="M943.895 71.6731C943.47 71.6731 943.056 71.5091 942.739 71.1959L933.103 61.5558V70.0067C933.103 70.9014 932.373 71.6358 931.475 71.6358C930.576 71.6358 929.846 70.9462 929.846 70.0067V57.6304C929.846 56.9706 930.245 56.3779 930.852 56.1244C931.46 55.8709 932.156 56.0126 932.626 56.4785L942.262 66.1186V57.6304C942.262 56.7358 942.993 56.0014 943.891 56.0014C944.789 56.0014 945.519 56.732 945.519 57.6304V70.0067C945.519 70.9014 944.789 71.6358 943.891 71.6358L943.895 71.6731Z" fill="black"/>
<path d="M978.375 71.6731C977.951 71.6731 977.537 71.5091 977.22 71.1959L967.584 61.5558V70.0067C967.584 70.9014 966.853 71.6358 965.955 71.6358C965.057 71.6358 964.327 70.9462 964.327 70.0067V57.6304C964.327 56.9706 964.726 56.3779 965.333 56.1244C965.94 55.8709 966.637 56.0126 967.107 56.4785L976.743 66.1186V57.6304C976.743 56.7358 977.474 56.0014 978.372 56.0014C979.27 56.0014 980 56.732 980 57.6304V70.0067C980 70.9014 979.27 71.6358 978.372 71.6358L978.375 71.6731Z" fill="black"/>
<path d="M668.048 101.06C667.624 101.06 667.21 100.896 666.893 100.583L657.257 90.9428V99.3938C657.257 100.288 656.526 101.023 655.628 101.023C654.73 101.023 654 100.333 654 99.3938V87.0175C654 86.3576 654.399 85.7649 655.006 85.5114C655.613 85.2579 656.31 85.3996 656.78 85.8656L666.416 95.5057V87.0175C666.416 86.1228 667.147 85.3884 668.045 85.3884C668.943 85.3884 669.673 86.1191 669.673 87.0175V99.3938C669.673 100.288 668.943 101.023 668.045 101.023L668.048 101.06Z" fill="black"/>
<path d="M702.529 101.06C702.104 101.06 701.691 100.896 701.374 100.583L691.738 90.9428V99.3938C691.738 100.288 691.007 101.023 690.109 101.023C689.211 101.023 688.481 100.333 688.481 99.3938V87.0175C688.481 86.3576 688.879 85.7649 689.487 85.5114C690.094 85.2579 690.791 85.3996 691.261 85.8656L700.897 95.5057V87.0175C700.897 86.1228 701.627 85.3884 702.525 85.3884C703.423 85.3884 704.154 86.1191 704.154 87.0175V99.3938C704.154 100.288 703.423 101.023 702.525 101.023L702.529 101.06Z" fill="black"/>
<path d="M737.01 101.06C736.585 101.06 736.171 100.896 735.855 100.583L726.218 90.9428V99.3938C726.218 100.288 725.488 101.023 724.59 101.023C723.692 101.023 722.962 100.333 722.962 99.3938V87.0175C722.962 86.3576 723.36 85.7649 723.968 85.5114C724.575 85.2579 725.272 85.3996 725.741 85.8656L735.378 95.5057V87.0175C735.378 86.1228 736.108 85.3884 737.006 85.3884C737.904 85.3884 738.635 86.1191 738.635 87.0175V99.3938C738.635 100.288 737.904 101.023 737.006 101.023L737.01 101.06Z" fill="black"/>
<path d="M771.491 101.06C771.066 101.06 770.652 100.896 770.336 100.583L760.699 90.9428V99.3938C760.699 100.288 759.969 101.023 759.071 101.023C758.173 101.023 757.442 100.333 757.442 99.3938V87.0175C757.442 86.3576 757.841 85.7649 758.448 85.5114C759.056 85.2579 759.753 85.3996 760.222 85.8656L769.859 95.5057V87.0175C769.859 86.1228 770.589 85.3884 771.487 85.3884C772.385 85.3884 773.115 86.1191 773.115 87.0175V99.3938C773.115 100.288 772.385 101.023 771.487 101.023L771.491 101.06Z" fill="black"/>
<path d="M805.971 101.06C805.547 101.06 805.133 100.896 804.816 100.583L795.18 90.9428V99.3938C795.18 100.288 794.45 101.023 793.552 101.023C792.653 101.023 791.923 100.333 791.923 99.3938V87.0175C791.923 86.3576 792.322 85.7649 792.929 85.5114C793.537 85.2579 794.233 85.3996 794.703 85.8656L804.339 95.5057V87.0175C804.339 86.1228 805.07 85.3884 805.968 85.3884C806.866 85.3884 807.596 86.1191 807.596 87.0175V99.3938C807.596 100.288 806.866 101.023 805.968 101.023L805.971 101.06Z" fill="black"/>
<path d="M840.06 101.06C839.636 101.06 839.222 100.896 838.905 100.583L829.269 90.9428V99.3938C829.269 100.288 828.539 101.023 827.64 101.023C826.742 101.023 826.012 100.333 826.012 99.3938V87.0175C826.012 86.3576 826.411 85.7649 827.018 85.5114C827.626 85.2579 828.322 85.3996 828.792 85.8656L838.428 95.5057V87.0175C838.428 86.1228 839.159 85.3884 840.057 85.3884C840.955 85.3884 841.685 86.1191 841.685 87.0175V99.3938C841.685 100.288 840.955 101.023 840.057 101.023L840.06 101.06Z" fill="black"/>
<path d="M874.933 101.06C874.508 101.06 874.095 100.896 873.778 100.583L864.141 90.9428V99.3938C864.141 100.288 863.411 101.023 862.513 101.023C861.615 101.023 860.885 100.333 860.885 99.3938V87.0175C860.885 86.3576 861.283 85.7649 861.891 85.5114C862.498 85.2579 863.195 85.3996 863.664 85.8656L873.301 95.5057V87.0175C873.301 86.1228 874.031 85.3884 874.929 85.3884C875.827 85.3884 876.558 86.1191 876.558 87.0175V99.3938C876.558 100.288 875.827 101.023 874.929 101.023L874.933 101.06Z" fill="black"/>
<path d="M909.414 101.06C908.989 101.06 908.575 100.896 908.259 100.583L898.622 90.9428V99.3938C898.622 100.288 897.892 101.023 896.994 101.023C896.096 101.023 895.365 100.333 895.365 99.3938V87.0175C895.365 86.3576 895.764 85.7649 896.372 85.5114C896.979 85.2579 897.676 85.3996 898.145 85.8656L907.782 95.5057V87.0175C907.782 86.1228 908.512 85.3884 909.41 85.3884C910.308 85.3884 911.038 86.1191 911.038 87.0175V99.3938C911.038 100.288 910.308 101.023 909.41 101.023L909.414 101.06Z" fill="black"/>
<path d="M943.895 101.06C943.47 101.06 943.056 100.896 942.739 100.583L933.103 90.9428V99.3938C933.103 100.288 932.373 101.023 931.475 101.023C930.576 101.023 929.846 100.333 929.846 99.3938V87.0175C929.846 86.3576 930.245 85.7649 930.852 85.5114C931.46 85.2579 932.156 85.3996 932.626 85.8656L942.262 95.5057V87.0175C942.262 86.1228 942.993 85.3884 943.891 85.3884C944.789 85.3884 945.519 86.1191 945.519 87.0175V99.3938C945.519 100.288 944.789 101.023 943.891 101.023L943.895 101.06Z" fill="black"/>
<path d="M978.375 101.06C977.951 101.06 977.537 100.896 977.22 100.583L967.584 90.9428V99.3938C967.584 100.288 966.853 101.023 965.955 101.023C965.057 101.023 964.327 100.333 964.327 99.3938V87.0175C964.327 86.3576 964.726 85.7649 965.333 85.5114C965.94 85.2579 966.637 85.3996 967.107 85.8656L976.743 95.5057V87.0175C976.743 86.1228 977.474 85.3884 978.372 85.3884C979.27 85.3884 980 86.1191 980 87.0175V99.3938C980 100.288 979.27 101.023 978.372 101.023L978.375 101.06Z" fill="black"/>
<path d="M668.048 130.447C667.624 130.447 667.21 130.283 666.893 129.97L657.257 120.33V128.781C657.257 129.675 656.526 130.41 655.628 130.41C654.73 130.41 654 129.72 654 128.781V116.404C654 115.745 654.399 115.152 655.006 114.898C655.613 114.645 656.31 114.787 656.78 115.253L666.416 124.893V116.404C666.416 115.51 667.147 114.775 668.045 114.775C668.943 114.775 669.673 115.506 669.673 116.404V128.781C669.673 129.675 668.943 130.41 668.045 130.41L668.048 130.447Z" fill="black"/>
<path d="M702.529 130.447C702.104 130.447 701.691 130.283 701.374 129.97L691.738 120.33V128.781C691.738 129.675 691.007 130.41 690.109 130.41C689.211 130.41 688.481 129.72 688.481 128.781V116.404C688.481 115.745 688.879 115.152 689.487 114.898C690.094 114.645 690.791 114.787 691.261 115.253L700.897 124.893V116.404C700.897 115.51 701.627 114.775 702.525 114.775C703.423 114.775 704.154 115.506 704.154 116.404V128.781C704.154 129.675 703.423 130.41 702.525 130.41L702.529 130.447Z" fill="black"/>
<path d="M737.01 130.447C736.585 130.447 736.171 130.283 735.855 129.97L726.218 120.33V128.781C726.218 129.675 725.488 130.41 724.59 130.41C723.692 130.41 722.962 129.72 722.962 128.781V116.404C722.962 115.745 723.36 115.152 723.968 114.898C724.575 114.645 725.272 114.787 725.741 115.253L735.378 124.893V116.404C735.378 115.51 736.108 114.775 737.006 114.775C737.904 114.775 738.635 115.506 738.635 116.404V128.781C738.635 129.675 737.904 130.41 737.006 130.41L737.01 130.447Z" fill="black"/>
<path d="M771.491 130.447C771.066 130.447 770.652 130.283 770.336 129.97L760.699 120.33V128.781C760.699 129.675 759.969 130.41 759.071 130.41C758.173 130.41 757.442 129.72 757.442 128.781V116.404C757.442 115.745 757.841 115.152 758.448 114.898C759.056 114.645 759.753 114.787 760.222 115.253L769.859 124.893V116.404C769.859 115.51 770.589 114.775 771.487 114.775C772.385 114.775 773.115 115.506 773.115 116.404V128.781C773.115 129.675 772.385 130.41 771.487 130.41L771.491 130.447Z" fill="black"/>
<path d="M805.971 130.447C805.547 130.447 805.133 130.283 804.816 129.97L795.18 120.33V128.781C795.18 129.675 794.45 130.41 793.552 130.41C792.653 130.41 791.923 129.72 791.923 128.781V116.404C791.923 115.745 792.322 115.152 792.929 114.898C793.537 114.645 794.233 114.787 794.703 115.253L804.339 124.893V116.404C804.339 115.51 805.07 114.775 805.968 114.775C806.866 114.775 807.596 115.506 807.596 116.404V128.781C807.596 129.675 806.866 130.41 805.968 130.41L805.971 130.447Z" fill="black"/>
<path d="M840.06 130.447C839.636 130.447 839.222 130.283 838.905 129.97L829.269 120.33V128.781C829.269 129.675 828.539 130.41 827.64 130.41C826.742 130.41 826.012 129.72 826.012 128.781V116.404C826.012 115.745 826.411 115.152 827.018 114.898C827.626 114.645 828.322 114.787 828.792 115.253L838.428 124.893V116.404C838.428 115.51 839.159 114.775 840.057 114.775C840.955 114.775 841.685 115.506 841.685 116.404V128.781C841.685 129.675 840.955 130.41 840.057 130.41L840.06 130.447Z" fill="black"/>
<path d="M874.933 130.447C874.508 130.447 874.095 130.283 873.778 129.97L864.141 120.33V128.781C864.141 129.675 863.411 130.41 862.513 130.41C861.615 130.41 860.885 129.72 860.885 128.781V116.404C860.885 115.745 861.283 115.152 861.891 114.898C862.498 114.645 863.195 114.787 863.664 115.253L873.301 124.893V116.404C873.301 115.51 874.031 114.775 874.929 114.775C875.827 114.775 876.558 115.506 876.558 116.404V128.781C876.558 129.675 875.827 130.41 874.929 130.41L874.933 130.447Z" fill="black"/>
<path d="M909.414 130.447C908.989 130.447 908.575 130.283 908.259 129.97L898.622 120.33V128.781C898.622 129.675 897.892 130.41 896.994 130.41C896.096 130.41 895.365 129.72 895.365 128.781V116.404C895.365 115.745 895.764 115.152 896.372 114.898C896.979 114.645 897.676 114.787 898.145 115.253L907.782 124.893V116.404C907.782 115.51 908.512 114.775 909.41 114.775C910.308 114.775 911.038 115.506 911.038 116.404V128.781C911.038 129.675 910.308 130.41 909.41 130.41L909.414 130.447Z" fill="black"/>
<path d="M943.895 130.447C943.47 130.447 943.056 130.283 942.739 129.97L933.103 120.33V128.781C933.103 129.675 932.373 130.41 931.475 130.41C930.576 130.41 929.846 129.72 929.846 128.781V116.404C929.846 115.745 930.245 115.152 930.852 114.898C931.46 114.645 932.156 114.787 932.626 115.253L942.262 124.893V116.404C942.262 115.51 942.993 114.775 943.891 114.775C944.789 114.775 945.519 115.506 945.519 116.404V128.781C945.519 129.675 944.789 130.41 943.891 130.41L943.895 130.447Z" fill="black"/>
<path d="M978.375 130.447C977.951 130.447 977.537 130.283 977.22 129.97L967.584 120.33V128.781C967.584 129.675 966.853 130.41 965.955 130.41C965.057 130.41 964.327 129.72 964.327 128.781V116.404C964.327 115.745 964.726 115.152 965.333 114.898C965.94 114.645 966.637 114.787 967.107 115.253L976.743 124.893V116.404C976.743 115.51 977.474 114.775 978.372 114.775C979.27 114.775 980 115.506 980 116.404V128.781C980 129.675 979.27 130.41 978.372 130.41L978.375 130.447Z" fill="black"/>
<path d="M1013.05 71.6731C1012.62 71.6731 1012.21 71.5091 1011.89 71.1959L1002.26 61.5558V70.0067C1002.26 70.9014 1001.53 71.6358 1000.63 71.6358C999.73 71.6358 999 70.9462 999 70.0067V57.6304C999 56.9706 999.399 56.3779 1000.01 56.1244C1000.61 55.8709 1001.31 56.0126 1001.78 56.4785L1011.42 66.1186V57.6304C1011.42 56.7358 1012.15 56.0014 1013.04 56.0014C1013.94 56.0014 1014.67 56.732 1014.67 57.6304V70.0067C1014.67 70.9014 1013.94 71.6358 1013.04 71.6358L1013.05 71.6731Z" fill="black"/>
<path d="M1047.53 71.6731C1047.1 71.6731 1046.69 71.5091 1046.37 71.1959L1036.74 61.5558V70.0067C1036.74 70.9014 1036.01 71.6358 1035.11 71.6358C1034.21 71.6358 1033.48 70.9462 1033.48 70.0067V57.6304C1033.48 56.9706 1033.88 56.3779 1034.49 56.1244C1035.09 55.8709 1035.79 56.0126 1036.26 56.4785L1045.9 66.1186V57.6304C1045.9 56.7358 1046.63 56.0014 1047.53 56.0014C1048.42 56.0014 1049.15 56.732 1049.15 57.6304V70.0067C1049.15 70.9014 1048.42 71.6358 1047.53 71.6358L1047.53 71.6731Z" fill="black"/>
<path d="M1082.01 71.6731C1081.59 71.6731 1081.17 71.5091 1080.85 71.1959L1071.22 61.5558V70.0067C1071.22 70.9014 1070.49 71.6358 1069.59 71.6358C1068.69 71.6358 1067.96 70.9462 1067.96 70.0067V57.6304C1067.96 56.9706 1068.36 56.3779 1068.97 56.1244C1069.58 55.8709 1070.27 56.0126 1070.74 56.4785L1080.38 66.1186V57.6304C1080.38 56.7358 1081.11 56.0014 1082.01 56.0014C1082.9 56.0014 1083.63 56.732 1083.63 57.6304V70.0067C1083.63 70.9014 1082.9 71.6358 1082.01 71.6358L1082.01 71.6731Z" fill="black"/>
<path d="M1116.49 71.6731C1116.07 71.6731 1115.65 71.5091 1115.34 71.1959L1105.7 61.5558V70.0067C1105.7 70.9014 1104.97 71.6358 1104.07 71.6358C1103.17 71.6358 1102.44 70.9462 1102.44 70.0067V57.6304C1102.44 56.9706 1102.84 56.3779 1103.45 56.1244C1104.06 55.8709 1104.75 56.0126 1105.22 56.4785L1114.86 66.1186V57.6304C1114.86 56.7358 1115.59 56.0014 1116.49 56.0014C1117.39 56.0014 1118.12 56.732 1118.12 57.6304V70.0067C1118.12 70.9014 1117.39 71.6358 1116.49 71.6358L1116.49 71.6731Z" fill="black"/>
<path d="M1150.97 71.6731C1150.55 71.6731 1150.13 71.5091 1149.82 71.1959L1140.18 61.5558V70.0067C1140.18 70.9014 1139.45 71.6358 1138.55 71.6358C1137.65 71.6358 1136.92 70.9462 1136.92 70.0067V57.6304C1136.92 56.9706 1137.32 56.3779 1137.93 56.1244C1138.54 55.8709 1139.23 56.0126 1139.7 56.4785L1149.34 66.1186V57.6304C1149.34 56.7358 1150.07 56.0014 1150.97 56.0014C1151.87 56.0014 1152.6 56.732 1152.6 57.6304V70.0067C1152.6 70.9014 1151.87 71.6358 1150.97 71.6358L1150.97 71.6731Z" fill="black"/>
<path d="M1013.05 101.06C1012.62 101.06 1012.21 100.896 1011.89 100.583L1002.26 90.9428V99.3938C1002.26 100.288 1001.53 101.023 1000.63 101.023C999.73 101.023 999 100.333 999 99.3938V87.0175C999 86.3576 999.399 85.7649 1000.01 85.5114C1000.61 85.2579 1001.31 85.3996 1001.78 85.8656L1011.42 95.5057V87.0175C1011.42 86.1228 1012.15 85.3884 1013.04 85.3884C1013.94 85.3884 1014.67 86.1191 1014.67 87.0175V99.3938C1014.67 100.288 1013.94 101.023 1013.04 101.023L1013.05 101.06Z" fill="black"/>
<path d="M1047.53 101.06C1047.1 101.06 1046.69 100.896 1046.37 100.583L1036.74 90.9428V99.3938C1036.74 100.288 1036.01 101.023 1035.11 101.023C1034.21 101.023 1033.48 100.333 1033.48 99.3938V87.0175C1033.48 86.3576 1033.88 85.7649 1034.49 85.5114C1035.09 85.2579 1035.79 85.3996 1036.26 85.8656L1045.9 95.5057V87.0175C1045.9 86.1228 1046.63 85.3884 1047.53 85.3884C1048.42 85.3884 1049.15 86.1191 1049.15 87.0175V99.3938C1049.15 100.288 1048.42 101.023 1047.53 101.023L1047.53 101.06Z" fill="black"/>
<path d="M1082.01 101.06C1081.59 101.06 1081.17 100.896 1080.85 100.583L1071.22 90.9428V99.3938C1071.22 100.288 1070.49 101.023 1069.59 101.023C1068.69 101.023 1067.96 100.333 1067.96 99.3938V87.0175C1067.96 86.3576 1068.36 85.7649 1068.97 85.5114C1069.58 85.2579 1070.27 85.3996 1070.74 85.8656L1080.38 95.5057V87.0175C1080.38 86.1228 1081.11 85.3884 1082.01 85.3884C1082.9 85.3884 1083.63 86.1191 1083.63 87.0175V99.3938C1083.63 100.288 1082.9 101.023 1082.01 101.023L1082.01 101.06Z" fill="black"/>
<path d="M1116.49 101.06C1116.07 101.06 1115.65 100.896 1115.34 100.583L1105.7 90.9428V99.3938C1105.7 100.288 1104.97 101.023 1104.07 101.023C1103.17 101.023 1102.44 100.333 1102.44 99.3938V87.0175C1102.44 86.3576 1102.84 85.7649 1103.45 85.5114C1104.06 85.2579 1104.75 85.3996 1105.22 85.8656L1114.86 95.5057V87.0175C1114.86 86.1228 1115.59 85.3884 1116.49 85.3884C1117.39 85.3884 1118.12 86.1191 1118.12 87.0175V99.3938C1118.12 100.288 1117.39 101.023 1116.49 101.023L1116.49 101.06Z" fill="black"/>
<path d="M1150.97 101.06C1150.55 101.06 1150.13 100.896 1149.82 100.583L1140.18 90.9428V99.3938C1140.18 100.288 1139.45 101.023 1138.55 101.023C1137.65 101.023 1136.92 100.333 1136.92 99.3938V87.0175C1136.92 86.3576 1137.32 85.7649 1137.93 85.5114C1138.54 85.2579 1139.23 85.3996 1139.7 85.8656L1149.34 95.5057V87.0175C1149.34 86.1228 1150.07 85.3884 1150.97 85.3884C1151.87 85.3884 1152.6 86.1191 1152.6 87.0175V99.3938C1152.6 100.288 1151.87 101.023 1150.97 101.023L1150.97 101.06Z" fill="black"/>
<path d="M1013.05 130.447C1012.62 130.447 1012.21 130.283 1011.89 129.97L1002.26 120.33V128.781C1002.26 129.675 1001.53 130.41 1000.63 130.41C999.73 130.41 999 129.72 999 128.781V116.404C999 115.745 999.399 115.152 1000.01 114.898C1000.61 114.645 1001.31 114.787 1001.78 115.253L1011.42 124.893V116.404C1011.42 115.51 1012.15 114.775 1013.04 114.775C1013.94 114.775 1014.67 115.506 1014.67 116.404V128.781C1014.67 129.675 1013.94 130.41 1013.04 130.41L1013.05 130.447Z" fill="black"/>
<path d="M1047.53 130.447C1047.1 130.447 1046.69 130.283 1046.37 129.97L1036.74 120.33V128.781C1036.74 129.675 1036.01 130.41 1035.11 130.41C1034.21 130.41 1033.48 129.72 1033.48 128.781V116.404C1033.48 115.745 1033.88 115.152 1034.49 114.898C1035.09 114.645 1035.79 114.787 1036.26 115.253L1045.9 124.893V116.404C1045.9 115.51 1046.63 114.775 1047.53 114.775C1048.42 114.775 1049.15 115.506 1049.15 116.404V128.781C1049.15 129.675 1048.42 130.41 1047.53 130.41L1047.53 130.447Z" fill="black"/>
<path d="M1082.01 130.447C1081.59 130.447 1081.17 130.283 1080.85 129.97L1071.22 120.33V128.781C1071.22 129.675 1070.49 130.41 1069.59 130.41C1068.69 130.41 1067.96 129.72 1067.96 128.781V116.404C1067.96 115.745 1068.36 115.152 1068.97 114.898C1069.58 114.645 1070.27 114.787 1070.74 115.253L1080.38 124.893V116.404C1080.38 115.51 1081.11 114.775 1082.01 114.775C1082.9 114.775 1083.63 115.506 1083.63 116.404V128.781C1083.63 129.675 1082.9 130.41 1082.01 130.41L1082.01 130.447Z" fill="black"/>
<path d="M1116.49 130.447C1116.07 130.447 1115.65 130.283 1115.34 129.97L1105.7 120.33V128.781C1105.7 129.675 1104.97 130.41 1104.07 130.41C1103.17 130.41 1102.44 129.72 1102.44 128.781V116.404C1102.44 115.745 1102.84 115.152 1103.45 114.898C1104.06 114.645 1104.75 114.787 1105.22 115.253L1114.86 124.893V116.404C1114.86 115.51 1115.59 114.775 1116.49 114.775C1117.39 114.775 1118.12 115.506 1118.12 116.404V128.781C1118.12 129.675 1117.39 130.41 1116.49 130.41L1116.49 130.447Z" fill="black"/>
<path d="M1150.97 130.447C1150.55 130.447 1150.13 130.283 1149.82 129.97L1140.18 120.33V128.781C1140.18 129.675 1139.45 130.41 1138.55 130.41C1137.65 130.41 1136.92 129.72 1136.92 128.781V116.404C1136.92 115.745 1137.32 115.152 1137.93 114.898C1138.54 114.645 1139.23 114.787 1139.7 115.253L1149.34 124.893V116.404C1149.34 115.51 1150.07 114.775 1150.97 114.775C1151.87 114.775 1152.6 115.506 1152.6 116.404V128.781C1152.6 129.675 1151.87 130.41 1150.97 130.41L1150.97 130.447Z" fill="black"/>
<path d="M323.048 172.673C322.624 172.673 322.21 172.509 321.893 172.196L312.257 162.556V171.007C312.257 171.901 311.526 172.636 310.628 172.636C309.73 172.636 309 171.946 309 171.007V158.63C309 157.971 309.399 157.378 310.006 157.124C310.614 156.871 311.31 157.013 311.78 157.479L321.416 167.119V158.63C321.416 157.736 322.147 157.001 323.045 157.001C323.943 157.001 324.673 157.732 324.673 158.63V171.007C324.673 171.901 323.943 172.636 323.045 172.636L323.048 172.673Z" fill="black"/>
<path d="M357.529 172.673C357.104 172.673 356.691 172.509 356.374 172.196L346.738 162.556V171.007C346.738 171.901 346.007 172.636 345.109 172.636C344.211 172.636 343.481 171.946 343.481 171.007V158.63C343.481 157.971 343.879 157.378 344.487 157.124C345.094 156.871 345.791 157.013 346.261 157.479L355.897 167.119V158.63C355.897 157.736 356.627 157.001 357.525 157.001C358.423 157.001 359.154 157.732 359.154 158.63V171.007C359.154 171.901 358.423 172.636 357.525 172.636L357.529 172.673Z" fill="black"/>
<path d="M392.01 172.673C391.585 172.673 391.171 172.509 390.855 172.196L381.218 162.556V171.007C381.218 171.901 380.488 172.636 379.59 172.636C378.692 172.636 377.962 171.946 377.962 171.007V158.63C377.962 157.971 378.36 157.378 378.968 157.124C379.575 156.871 380.272 157.013 380.741 157.479L390.378 167.119V158.63C390.378 157.736 391.108 157.001 392.006 157.001C392.904 157.001 393.635 157.732 393.635 158.63V171.007C393.635 171.901 392.904 172.636 392.006 172.636L392.01 172.673Z" fill="black"/>
<path d="M426.491 172.673C426.066 172.673 425.652 172.509 425.336 172.196L415.699 162.556V171.007C415.699 171.901 414.969 172.636 414.071 172.636C413.173 172.636 412.442 171.946 412.442 171.007V158.63C412.442 157.971 412.841 157.378 413.448 157.124C414.056 156.871 414.753 157.013 415.222 157.479L424.859 167.119V158.63C424.859 157.736 425.589 157.001 426.487 157.001C427.385 157.001 428.115 157.732 428.115 158.63V171.007C428.115 171.901 427.385 172.636 426.487 172.636L426.491 172.673Z" fill="black"/>
<path d="M460.971 172.673C460.547 172.673 460.133 172.509 459.816 172.196L450.18 162.556V171.007C450.18 171.901 449.45 172.636 448.551 172.636C447.653 172.636 446.923 171.946 446.923 171.007V158.63C446.923 157.971 447.322 157.378 447.929 157.124C448.537 156.871 449.233 157.013 449.703 157.479L459.339 167.119V158.63C459.339 157.736 460.07 157.001 460.968 157.001C461.866 157.001 462.596 157.732 462.596 158.63V171.007C462.596 171.901 461.866 172.636 460.968 172.636L460.971 172.673Z" fill="black"/>
<path d="M495.06 172.673C494.636 172.673 494.222 172.509 493.905 172.196L484.269 162.556V171.007C484.269 171.901 483.538 172.636 482.64 172.636C481.742 172.636 481.012 171.946 481.012 171.007V158.63C481.012 157.971 481.411 157.378 482.018 157.124C482.626 156.871 483.322 157.013 483.792 157.479L493.428 167.119V158.63C493.428 157.736 494.159 157.001 495.057 157.001C495.955 157.001 496.685 157.732 496.685 158.63V171.007C496.685 171.901 495.955 172.636 495.057 172.636L495.06 172.673Z" fill="black"/>
<path d="M529.933 172.673C529.508 172.673 529.095 172.509 528.778 172.196L519.141 162.556V171.007C519.141 171.901 518.411 172.636 517.513 172.636C516.615 172.636 515.885 171.946 515.885 171.007V158.63C515.885 157.971 516.283 157.378 516.891 157.124C517.498 156.871 518.195 157.013 518.664 157.479L528.301 167.119V158.63C528.301 157.736 529.031 157.001 529.929 157.001C530.827 157.001 531.558 157.732 531.558 158.63V171.007C531.558 171.901 530.827 172.636 529.929 172.636L529.933 172.673Z" fill="black"/>
<path d="M564.414 172.673C563.989 172.673 563.575 172.509 563.259 172.196L553.622 162.556V171.007C553.622 171.901 552.892 172.636 551.994 172.636C551.096 172.636 550.365 171.946 550.365 171.007V158.63C550.365 157.971 550.764 157.378 551.372 157.124C551.979 156.871 552.676 157.013 553.145 157.479L562.782 167.119V158.63C562.782 157.736 563.512 157.001 564.41 157.001C565.308 157.001 566.038 157.732 566.038 158.63V171.007C566.038 171.901 565.308 172.636 564.41 172.636L564.414 172.673Z" fill="black"/>
<path d="M598.895 172.673C598.47 172.673 598.056 172.509 597.739 172.196L588.103 162.556V171.007C588.103 171.901 587.373 172.636 586.475 172.636C585.577 172.636 584.846 171.946 584.846 171.007V158.63C584.846 157.971 585.245 157.378 585.852 157.124C586.46 156.871 587.156 157.013 587.626 157.479L597.262 167.119V158.63C597.262 157.736 597.993 157.001 598.891 157.001C599.789 157.001 600.519 157.732 600.519 158.63V171.007C600.519 171.901 599.789 172.636 598.891 172.636L598.895 172.673Z" fill="black"/>
<path d="M633.375 172.673C632.951 172.673 632.537 172.509 632.22 172.196L622.584 162.556V171.007C622.584 171.901 621.853 172.636 620.955 172.636C620.057 172.636 619.327 171.946 619.327 171.007V158.63C619.327 157.971 619.726 157.378 620.333 157.124C620.94 156.871 621.637 157.013 622.107 157.479L631.743 167.119V158.63C631.743 157.736 632.474 157.001 633.372 157.001C634.27 157.001 635 157.732 635 158.63V171.007C635 171.901 634.27 172.636 633.372 172.636L633.375 172.673Z" fill="black"/>
<path d="M323.048 202.06C322.624 202.06 322.21 201.896 321.893 201.583L312.257 191.943V200.394C312.257 201.288 311.526 202.023 310.628 202.023C309.73 202.023 309 201.333 309 200.394V188.017C309 187.358 309.399 186.765 310.006 186.511C310.614 186.258 311.31 186.4 311.78 186.866L321.416 196.506V188.017C321.416 187.123 322.147 186.388 323.045 186.388C323.943 186.388 324.673 187.119 324.673 188.017V200.394C324.673 201.288 323.943 202.023 323.045 202.023L323.048 202.06Z" fill="black"/>
<path d="M357.529 202.06C357.104 202.06 356.691 201.896 356.374 201.583L346.738 191.943V200.394C346.738 201.288 346.007 202.023 345.109 202.023C344.211 202.023 343.481 201.333 343.481 200.394V188.017C343.481 187.358 343.879 186.765 344.487 186.511C345.094 186.258 345.791 186.4 346.261 186.866L355.897 196.506V188.017C355.897 187.123 356.627 186.388 357.525 186.388C358.423 186.388 359.154 187.119 359.154 188.017V200.394C359.154 201.288 358.423 202.023 357.525 202.023L357.529 202.06Z" fill="black"/>
<path d="M392.01 202.06C391.585 202.06 391.171 201.896 390.855 201.583L381.218 191.943V200.394C381.218 201.288 380.488 202.023 379.59 202.023C378.692 202.023 377.962 201.333 377.962 200.394V188.017C377.962 187.358 378.36 186.765 378.968 186.511C379.575 186.258 380.272 186.4 380.741 186.866L390.378 196.506V188.017C390.378 187.123 391.108 186.388 392.006 186.388C392.904 186.388 393.635 187.119 393.635 188.017V200.394C393.635 201.288 392.904 202.023 392.006 202.023L392.01 202.06Z" fill="black"/>
<path d="M426.491 202.06C426.066 202.06 425.652 201.896 425.336 201.583L415.699 191.943V200.394C415.699 201.288 414.969 202.023 414.071 202.023C413.173 202.023 412.442 201.333 412.442 200.394V188.017C412.442 187.358 412.841 186.765 413.448 186.511C414.056 186.258 414.753 186.4 415.222 186.866L424.859 196.506V188.017C424.859 187.123 425.589 186.388 426.487 186.388C427.385 186.388 428.115 187.119 428.115 188.017V200.394C428.115 201.288 427.385 202.023 426.487 202.023L426.491 202.06Z" fill="black"/>
<path d="M460.971 202.06C460.547 202.06 460.133 201.896 459.816 201.583L450.18 191.943V200.394C450.18 201.288 449.45 202.023 448.551 202.023C447.653 202.023 446.923 201.333 446.923 200.394V188.017C446.923 187.358 447.322 186.765 447.929 186.511C448.537 186.258 449.233 186.4 449.703 186.866L459.339 196.506V188.017C459.339 187.123 460.07 186.388 460.968 186.388C461.866 186.388 462.596 187.119 462.596 188.017V200.394C462.596 201.288 461.866 202.023 460.968 202.023L460.971 202.06Z" fill="black"/>
<path d="M495.06 202.06C494.636 202.06 494.222 201.896 493.905 201.583L484.269 191.943V200.394C484.269 201.288 483.538 202.023 482.64 202.023C481.742 202.023 481.012 201.333 481.012 200.394V188.017C481.012 187.358 481.411 186.765 482.018 186.511C482.626 186.258 483.322 186.4 483.792 186.866L493.428 196.506V188.017C493.428 187.123 494.159 186.388 495.057 186.388C495.955 186.388 496.685 187.119 496.685 188.017V200.394C496.685 201.288 495.955 202.023 495.057 202.023L495.06 202.06Z" fill="black"/>
<path d="M529.933 202.06C529.508 202.06 529.095 201.896 528.778 201.583L519.141 191.943V200.394C519.141 201.288 518.411 202.023 517.513 202.023C516.615 202.023 515.885 201.333 515.885 200.394V188.017C515.885 187.358 516.283 186.765 516.891 186.511C517.498 186.258 518.195 186.4 518.664 186.866L528.301 196.506V188.017C528.301 187.123 529.031 186.388 529.929 186.388C530.827 186.388 531.558 187.119 531.558 188.017V200.394C531.558 201.288 530.827 202.023 529.929 202.023L529.933 202.06Z" fill="black"/>
<path d="M564.414 202.06C563.989 202.06 563.575 201.896 563.259 201.583L553.622 191.943V200.394C553.622 201.288 552.892 202.023 551.994 202.023C551.096 202.023 550.365 201.333 550.365 200.394V188.017C550.365 187.358 550.764 186.765 551.372 186.511C551.979 186.258 552.676 186.4 553.145 186.866L562.782 196.506V188.017C562.782 187.123 563.512 186.388 564.41 186.388C565.308 186.388 566.038 187.119 566.038 188.017V200.394C566.038 201.288 565.308 202.023 564.41 202.023L564.414 202.06Z" fill="black"/>
<path d="M598.895 202.06C598.47 202.06 598.056 201.896 597.739 201.583L588.103 191.943V200.394C588.103 201.288 587.373 202.023 586.475 202.023C585.577 202.023 584.846 201.333 584.846 200.394V188.017C584.846 187.358 585.245 186.765 585.852 186.511C586.46 186.258 587.156 186.4 587.626 186.866L597.262 196.506V188.017C597.262 187.123 597.993 186.388 598.891 186.388C599.789 186.388 600.519 187.119 600.519 188.017V200.394C600.519 201.288 599.789 202.023 598.891 202.023L598.895 202.06Z" fill="black"/>
<path d="M633.375 202.06C632.951 202.06 632.537 201.896 632.22 201.583L622.584 191.943V200.394C622.584 201.288 621.853 202.023 620.955 202.023C620.057 202.023 619.327 201.333 619.327 200.394V188.017C619.327 187.358 619.726 186.765 620.333 186.511C620.94 186.258 621.637 186.4 622.107 186.866L631.743 196.506V188.017C631.743 187.123 632.474 186.388 633.372 186.388C634.27 186.388 635 187.119 635 188.017V200.394C635 201.288 634.27 202.023 633.372 202.023L633.375 202.06Z" fill="black"/>
<path d="M323.048 231.447C322.624 231.447 322.21 231.283 321.893 230.97L312.257 221.33V229.781C312.257 230.675 311.526 231.41 310.628 231.41C309.73 231.41 309 230.72 309 229.781V217.404C309 216.745 309.399 216.152 310.006 215.898C310.614 215.645 311.31 215.787 311.78 216.253L321.416 225.893V217.404C321.416 216.51 322.147 215.775 323.045 215.775C323.943 215.775 324.673 216.506 324.673 217.404V229.781C324.673 230.675 323.943 231.41 323.045 231.41L323.048 231.447Z" fill="black"/>
<path d="M357.529 231.447C357.104 231.447 356.691 231.283 356.374 230.97L346.738 221.33V229.781C346.738 230.675 346.007 231.41 345.109 231.41C344.211 231.41 343.481 230.72 343.481 229.781V217.404C343.481 216.745 343.879 216.152 344.487 215.898C345.094 215.645 345.791 215.787 346.261 216.253L355.897 225.893V217.404C355.897 216.51 356.627 215.775 357.525 215.775C358.423 215.775 359.154 216.506 359.154 217.404V229.781C359.154 230.675 358.423 231.41 357.525 231.41L357.529 231.447Z" fill="black"/>
<path d="M392.01 231.447C391.585 231.447 391.171 231.283 390.855 230.97L381.218 221.33V229.781C381.218 230.675 380.488 231.41 379.59 231.41C378.692 231.41 377.962 230.72 377.962 229.781V217.404C377.962 216.745 378.36 216.152 378.968 215.898C379.575 215.645 380.272 215.787 380.741 216.253L390.378 225.893V217.404C390.378 216.51 391.108 215.775 392.006 215.775C392.904 215.775 393.635 216.506 393.635 217.404V229.781C393.635 230.675 392.904 231.41 392.006 231.41L392.01 231.447Z" fill="black"/>
<path d="M426.491 231.447C426.066 231.447 425.652 231.283 425.336 230.97L415.699 221.33V229.781C415.699 230.675 414.969 231.41 414.071 231.41C413.173 231.41 412.442 230.72 412.442 229.781V217.404C412.442 216.745 412.841 216.152 413.448 215.898C414.056 215.645 414.753 215.787 415.222 216.253L424.859 225.893V217.404C424.859 216.51 425.589 215.775 426.487 215.775C427.385 215.775 428.115 216.506 428.115 217.404V229.781C428.115 230.675 427.385 231.41 426.487 231.41L426.491 231.447Z" fill="black"/>
<path d="M460.971 231.447C460.547 231.447 460.133 231.283 459.816 230.97L450.18 221.33V229.781C450.18 230.675 449.45 231.41 448.551 231.41C447.653 231.41 446.923 230.72 446.923 229.781V217.404C446.923 216.745 447.322 216.152 447.929 215.898C448.537 215.645 449.233 215.787 449.703 216.253L459.339 225.893V217.404C459.339 216.51 460.07 215.775 460.968 215.775C461.866 215.775 462.596 216.506 462.596 217.404V229.781C462.596 230.675 461.866 231.41 460.968 231.41L460.971 231.447Z" fill="black"/>
<path d="M495.06 231.447C494.636 231.447 494.222 231.283 493.905 230.97L484.269 221.33V229.781C484.269 230.675 483.538 231.41 482.64 231.41C481.742 231.41 481.012 230.72 481.012 229.781V217.404C481.012 216.745 481.411 216.152 482.018 215.898C482.626 215.645 483.322 215.787 483.792 216.253L493.428 225.893V217.404C493.428 216.51 494.159 215.775 495.057 215.775C495.955 215.775 496.685 216.506 496.685 217.404V229.781C496.685 230.675 495.955 231.41 495.057 231.41L495.06 231.447Z" fill="black"/>
<path d="M529.933 231.447C529.508 231.447 529.095 231.283 528.778 230.97L519.141 221.33V229.781C519.141 230.675 518.411 231.41 517.513 231.41C516.615 231.41 515.885 230.72 515.885 229.781V217.404C515.885 216.745 516.283 216.152 516.891 215.898C517.498 215.645 518.195 215.787 518.664 216.253L528.301 225.893V217.404C528.301 216.51 529.031 215.775 529.929 215.775C530.827 215.775 531.558 216.506 531.558 217.404V229.781C531.558 230.675 530.827 231.41 529.929 231.41L529.933 231.447Z" fill="black"/>
<path d="M564.414 231.447C563.989 231.447 563.575 231.283 563.259 230.97L553.622 221.33V229.781C553.622 230.675 552.892 231.41 551.994 231.41C551.096 231.41 550.365 230.72 550.365 229.781V217.404C550.365 216.745 550.764 216.152 551.372 215.898C551.979 215.645 552.676 215.787 553.145 216.253L562.782 225.893V217.404C562.782 216.51 563.512 215.775 564.41 215.775C565.308 215.775 566.038 216.506 566.038 217.404V229.781C566.038 230.675 565.308 231.41 564.41 231.41L564.414 231.447Z" fill="black"/>
<path d="M598.895 231.447C598.47 231.447 598.056 231.283 597.739 230.97L588.103 221.33V229.781C588.103 230.675 587.373 231.41 586.475 231.41C585.577 231.41 584.846 230.72 584.846 229.781V217.404C584.846 216.745 585.245 216.152 585.852 215.898C586.46 215.645 587.156 215.787 587.626 216.253L597.262 225.893V217.404C597.262 216.51 597.993 215.775 598.891 215.775C599.789 215.775 600.519 216.506 600.519 217.404V229.781C600.519 230.675 599.789 231.41 598.891 231.41L598.895 231.447Z" fill="black"/>
<path d="M633.375 231.447C632.951 231.447 632.537 231.283 632.22 230.97L622.584 221.33V229.781C622.584 230.675 621.853 231.41 620.955 231.41C620.057 231.41 619.327 230.72 619.327 229.781V217.404C619.327 216.745 619.726 216.152 620.333 215.898C620.94 215.645 621.637 215.787 622.107 216.253L631.743 225.893V217.404C631.743 216.51 632.474 215.775 633.372 215.775C634.27 215.775 635 216.506 635 217.404V229.781C635 230.675 634.27 231.41 633.372 231.41L633.375 231.447Z" fill="black"/>
<path d="M668.048 172.673C667.624 172.673 667.21 172.509 666.893 172.196L657.257 162.556V171.007C657.257 171.901 656.526 172.636 655.628 172.636C654.73 172.636 654 171.946 654 171.007V158.63C654 157.971 654.399 157.378 655.006 157.124C655.613 156.871 656.31 157.013 656.78 157.479L666.416 167.119V158.63C666.416 157.736 667.147 157.001 668.045 157.001C668.943 157.001 669.673 157.732 669.673 158.63V171.007C669.673 171.901 668.943 172.636 668.045 172.636L668.048 172.673Z" fill="black"/>
<path d="M702.529 172.673C702.104 172.673 701.691 172.509 701.374 172.196L691.738 162.556V171.007C691.738 171.901 691.007 172.636 690.109 172.636C689.211 172.636 688.481 171.946 688.481 171.007V158.63C688.481 157.971 688.879 157.378 689.487 157.124C690.094 156.871 690.791 157.013 691.261 157.479L700.897 167.119V158.63C700.897 157.736 701.627 157.001 702.525 157.001C703.423 157.001 704.154 157.732 704.154 158.63V171.007C704.154 171.901 703.423 172.636 702.525 172.636L702.529 172.673Z" fill="black"/>
<path d="M737.01 172.673C736.585 172.673 736.171 172.509 735.855 172.196L726.218 162.556V171.007C726.218 171.901 725.488 172.636 724.59 172.636C723.692 172.636 722.962 171.946 722.962 171.007V158.63C722.962 157.971 723.36 157.378 723.968 157.124C724.575 156.871 725.272 157.013 725.741 157.479L735.378 167.119V158.63C735.378 157.736 736.108 157.001 737.006 157.001C737.904 157.001 738.635 157.732 738.635 158.63V171.007C738.635 171.901 737.904 172.636 737.006 172.636L737.01 172.673Z" fill="black"/>
<path d="M771.491 172.673C771.066 172.673 770.652 172.509 770.336 172.196L760.699 162.556V171.007C760.699 171.901 759.969 172.636 759.071 172.636C758.173 172.636 757.442 171.946 757.442 171.007V158.63C757.442 157.971 757.841 157.378 758.448 157.124C759.056 156.871 759.753 157.013 760.222 157.479L769.859 167.119V158.63C769.859 157.736 770.589 157.001 771.487 157.001C772.385 157.001 773.115 157.732 773.115 158.63V171.007C773.115 171.901 772.385 172.636 771.487 172.636L771.491 172.673Z" fill="black"/>
<path d="M805.971 172.673C805.547 172.673 805.133 172.509 804.816 172.196L795.18 162.556V171.007C795.18 171.901 794.45 172.636 793.552 172.636C792.653 172.636 791.923 171.946 791.923 171.007V158.63C791.923 157.971 792.322 157.378 792.929 157.124C793.537 156.871 794.233 157.013 794.703 157.479L804.339 167.119V158.63C804.339 157.736 805.07 157.001 805.968 157.001C806.866 157.001 807.596 157.732 807.596 158.63V171.007C807.596 171.901 806.866 172.636 805.968 172.636L805.971 172.673Z" fill="black"/>
<path d="M840.06 172.673C839.636 172.673 839.222 172.509 838.905 172.196L829.269 162.556V171.007C829.269 171.901 828.539 172.636 827.64 172.636C826.742 172.636 826.012 171.946 826.012 171.007V158.63C826.012 157.971 826.411 157.378 827.018 157.124C827.626 156.871 828.322 157.013 828.792 157.479L838.428 167.119V158.63C838.428 157.736 839.159 157.001 840.057 157.001C840.955 157.001 841.685 157.732 841.685 158.63V171.007C841.685 171.901 840.955 172.636 840.057 172.636L840.06 172.673Z" fill="black"/>
<path d="M874.933 172.673C874.508 172.673 874.095 172.509 873.778 172.196L864.141 162.556V171.007C864.141 171.901 863.411 172.636 862.513 172.636C861.615 172.636 860.885 171.946 860.885 171.007V158.63C860.885 157.971 861.283 157.378 861.891 157.124C862.498 156.871 863.195 157.013 863.664 157.479L873.301 167.119V158.63C873.301 157.736 874.031 157.001 874.929 157.001C875.827 157.001 876.558 157.732 876.558 158.63V171.007C876.558 171.901 875.827 172.636 874.929 172.636L874.933 172.673Z" fill="black"/>
<path d="M909.414 172.673C908.989 172.673 908.575 172.509 908.259 172.196L898.622 162.556V171.007C898.622 171.901 897.892 172.636 896.994 172.636C896.096 172.636 895.365 171.946 895.365 171.007V158.63C895.365 157.971 895.764 157.378 896.372 157.124C896.979 156.871 897.676 157.013 898.145 157.479L907.782 167.119V158.63C907.782 157.736 908.512 157.001 909.41 157.001C910.308 157.001 911.038 157.732 911.038 158.63V171.007C911.038 171.901 910.308 172.636 909.41 172.636L909.414 172.673Z" fill="black"/>
<path d="M943.895 172.673C943.47 172.673 943.056 172.509 942.739 172.196L933.103 162.556V171.007C933.103 171.901 932.373 172.636 931.475 172.636C930.576 172.636 929.846 171.946 929.846 171.007V158.63C929.846 157.971 930.245 157.378 930.852 157.124C931.46 156.871 932.156 157.013 932.626 157.479L942.262 167.119V158.63C942.262 157.736 942.993 157.001 943.891 157.001C944.789 157.001 945.519 157.732 945.519 158.63V171.007C945.519 171.901 944.789 172.636 943.891 172.636L943.895 172.673Z" fill="black"/>
<path d="M978.375 172.673C977.951 172.673 977.537 172.509 977.22 172.196L967.584 162.556V171.007C967.584 171.901 966.853 172.636 965.955 172.636C965.057 172.636 964.327 171.946 964.327 171.007V158.63C964.327 157.971 964.726 157.378 965.333 157.124C965.94 156.871 966.637 157.013 967.107 157.479L976.743 167.119V158.63C976.743 157.736 977.474 157.001 978.372 157.001C979.27 157.001 980 157.732 980 158.63V171.007C980 171.901 979.27 172.636 978.372 172.636L978.375 172.673Z" fill="black"/>
<path d="M668.048 202.06C667.624 202.06 667.21 201.896 666.893 201.583L657.257 191.943V200.394C657.257 201.288 656.526 202.023 655.628 202.023C654.73 202.023 654 201.333 654 200.394V188.017C654 187.358 654.399 186.765 655.006 186.511C655.613 186.258 656.31 186.4 656.78 186.866L666.416 196.506V188.017C666.416 187.123 667.147 186.388 668.045 186.388C668.943 186.388 669.673 187.119 669.673 188.017V200.394C669.673 201.288 668.943 202.023 668.045 202.023L668.048 202.06Z" fill="black"/>
<path d="M702.529 202.06C702.104 202.06 701.691 201.896 701.374 201.583L691.738 191.943V200.394C691.738 201.288 691.007 202.023 690.109 202.023C689.211 202.023 688.481 201.333 688.481 200.394V188.017C688.481 187.358 688.879 186.765 689.487 186.511C690.094 186.258 690.791 186.4 691.261 186.866L700.897 196.506V188.017C700.897 187.123 701.627 186.388 702.525 186.388C703.423 186.388 704.154 187.119 704.154 188.017V200.394C704.154 201.288 703.423 202.023 702.525 202.023L702.529 202.06Z" fill="black"/>
<path d="M737.01 202.06C736.585 202.06 736.171 201.896 735.855 201.583L726.218 191.943V200.394C726.218 201.288 725.488 202.023 724.59 202.023C723.692 202.023 722.962 201.333 722.962 200.394V188.017C722.962 187.358 723.36 186.765 723.968 186.511C724.575 186.258 725.272 186.4 725.741 186.866L735.378 196.506V188.017C735.378 187.123 736.108 186.388 737.006 186.388C737.904 186.388 738.635 187.119 738.635 188.017V200.394C738.635 201.288 737.904 202.023 737.006 202.023L737.01 202.06Z" fill="black"/>
<path d="M771.491 202.06C771.066 202.06 770.652 201.896 770.336 201.583L760.699 191.943V200.394C760.699 201.288 759.969 202.023 759.071 202.023C758.173 202.023 757.442 201.333 757.442 200.394V188.017C757.442 187.358 757.841 186.765 758.448 186.511C759.056 186.258 759.753 186.4 760.222 186.866L769.859 196.506V188.017C769.859 187.123 770.589 186.388 771.487 186.388C772.385 186.388 773.115 187.119 773.115 188.017V200.394C773.115 201.288 772.385 202.023 771.487 202.023L771.491 202.06Z" fill="black"/>
<path d="M805.971 202.06C805.547 202.06 805.133 201.896 804.816 201.583L795.18 191.943V200.394C795.18 201.288 794.45 202.023 793.552 202.023C792.653 202.023 791.923 201.333 791.923 200.394V188.017C791.923 187.358 792.322 186.765 792.929 186.511C793.537 186.258 794.233 186.4 794.703 186.866L804.339 196.506V188.017C804.339 187.123 805.07 186.388 805.968 186.388C806.866 186.388 807.596 187.119 807.596 188.017V200.394C807.596 201.288 806.866 202.023 805.968 202.023L805.971 202.06Z" fill="black"/>
<path d="M840.06 202.06C839.636 202.06 839.222 201.896 838.905 201.583L829.269 191.943V200.394C829.269 201.288 828.539 202.023 827.64 202.023C826.742 202.023 826.012 201.333 826.012 200.394V188.017C826.012 187.358 826.411 186.765 827.018 186.511C827.626 186.258 828.322 186.4 828.792 186.866L838.428 196.506V188.017C838.428 187.123 839.159 186.388 840.057 186.388C840.955 186.388 841.685 187.119 841.685 188.017V200.394C841.685 201.288 840.955 202.023 840.057 202.023L840.06 202.06Z" fill="black"/>
<path d="M874.933 202.06C874.508 202.06 874.095 201.896 873.778 201.583L864.141 191.943V200.394C864.141 201.288 863.411 202.023 862.513 202.023C861.615 202.023 860.885 201.333 860.885 200.394V188.017C860.885 187.358 861.283 186.765 861.891 186.511C862.498 186.258 863.195 186.4 863.664 186.866L873.301 196.506V188.017C873.301 187.123 874.031 186.388 874.929 186.388C875.827 186.388 876.558 187.119 876.558 188.017V200.394C876.558 201.288 875.827 202.023 874.929 202.023L874.933 202.06Z" fill="black"/>
<path d="M909.414 202.06C908.989 202.06 908.575 201.896 908.259 201.583L898.622 191.943V200.394C898.622 201.288 897.892 202.023 896.994 202.023C896.096 202.023 895.365 201.333 895.365 200.394V188.017C895.365 187.358 895.764 186.765 896.372 186.511C896.979 186.258 897.676 186.4 898.145 186.866L907.782 196.506V188.017C907.782 187.123 908.512 186.388 909.41 186.388C910.308 186.388 911.038 187.119 911.038 188.017V200.394C911.038 201.288 910.308 202.023 909.41 202.023L909.414 202.06Z" fill="black"/>
<path d="M943.895 202.06C943.47 202.06 943.056 201.896 942.739 201.583L933.103 191.943V200.394C933.103 201.288 932.373 202.023 931.475 202.023C930.576 202.023 929.846 201.333 929.846 200.394V188.017C929.846 187.358 930.245 186.765 930.852 186.511C931.46 186.258 932.156 186.4 932.626 186.866L942.262 196.506V188.017C942.262 187.123 942.993 186.388 943.891 186.388C944.789 186.388 945.519 187.119 945.519 188.017V200.394C945.519 201.288 944.789 202.023 943.891 202.023L943.895 202.06Z" fill="black"/>
<path d="M978.375 202.06C977.951 202.06 977.537 201.896 977.22 201.583L967.584 191.943V200.394C967.584 201.288 966.853 202.023 965.955 202.023C965.057 202.023 964.327 201.333 964.327 200.394V188.017C964.327 187.358 964.726 186.765 965.333 186.511C965.94 186.258 966.637 186.4 967.107 186.866L976.743 196.506V188.017C976.743 187.123 977.474 186.388 978.372 186.388C979.27 186.388 980 187.119 980 188.017V200.394C980 201.288 979.27 202.023 978.372 202.023L978.375 202.06Z" fill="black"/>
<path d="M668.048 231.447C667.624 231.447 667.21 231.283 666.893 230.97L657.257 221.33V229.781C657.257 230.675 656.526 231.41 655.628 231.41C654.73 231.41 654 230.72 654 229.781V217.404C654 216.745 654.399 216.152 655.006 215.898C655.613 215.645 656.31 215.787 656.78 216.253L666.416 225.893V217.404C666.416 216.51 667.147 215.775 668.045 215.775C668.943 215.775 669.673 216.506 669.673 217.404V229.781C669.673 230.675 668.943 231.41 668.045 231.41L668.048 231.447Z" fill="black"/>
<path d="M702.529 231.447C702.104 231.447 701.691 231.283 701.374 230.97L691.738 221.33V229.781C691.738 230.675 691.007 231.41 690.109 231.41C689.211 231.41 688.481 230.72 688.481 229.781V217.404C688.481 216.745 688.879 216.152 689.487 215.898C690.094 215.645 690.791 215.787 691.261 216.253L700.897 225.893V217.404C700.897 216.51 701.627 215.775 702.525 215.775C703.423 215.775 704.154 216.506 704.154 217.404V229.781C704.154 230.675 703.423 231.41 702.525 231.41L702.529 231.447Z" fill="black"/>
<path d="M737.01 231.447C736.585 231.447 736.171 231.283 735.855 230.97L726.218 221.33V229.781C726.218 230.675 725.488 231.41 724.59 231.41C723.692 231.41 722.962 230.72 722.962 229.781V217.404C722.962 216.745 723.36 216.152 723.968 215.898C724.575 215.645 725.272 215.787 725.741 216.253L735.378 225.893V217.404C735.378 216.51 736.108 215.775 737.006 215.775C737.904 215.775 738.635 216.506 738.635 217.404V229.781C738.635 230.675 737.904 231.41 737.006 231.41L737.01 231.447Z" fill="black"/>
<path d="M771.491 231.447C771.066 231.447 770.652 231.283 770.336 230.97L760.699 221.33V229.781C760.699 230.675 759.969 231.41 759.071 231.41C758.173 231.41 757.442 230.72 757.442 229.781V217.404C757.442 216.745 757.841 216.152 758.448 215.898C759.056 215.645 759.753 215.787 760.222 216.253L769.859 225.893V217.404C769.859 216.51 770.589 215.775 771.487 215.775C772.385 215.775 773.115 216.506 773.115 217.404V229.781C773.115 230.675 772.385 231.41 771.487 231.41L771.491 231.447Z" fill="black"/>
<path d="M805.971 231.447C805.547 231.447 805.133 231.283 804.816 230.97L795.18 221.33V229.781C795.18 230.675 794.45 231.41 793.552 231.41C792.653 231.41 791.923 230.72 791.923 229.781V217.404C791.923 216.745 792.322 216.152 792.929 215.898C793.537 215.645 794.233 215.787 794.703 216.253L804.339 225.893V217.404C804.339 216.51 805.07 215.775 805.968 215.775C806.866 215.775 807.596 216.506 807.596 217.404V229.781C807.596 230.675 806.866 231.41 805.968 231.41L805.971 231.447Z" fill="black"/>
<path d="M840.06 231.447C839.636 231.447 839.222 231.283 838.905 230.97L829.269 221.33V229.781C829.269 230.675 828.539 231.41 827.64 231.41C826.742 231.41 826.012 230.72 826.012 229.781V217.404C826.012 216.745 826.411 216.152 827.018 215.898C827.626 215.645 828.322 215.787 828.792 216.253L838.428 225.893V217.404C838.428 216.51 839.159 215.775 840.057 215.775C840.955 215.775 841.685 216.506 841.685 217.404V229.781C841.685 230.675 840.955 231.41 840.057 231.41L840.06 231.447Z" fill="black"/>
<path d="M874.933 231.447C874.508 231.447 874.095 231.283 873.778 230.97L864.141 221.33V229.781C864.141 230.675 863.411 231.41 862.513 231.41C861.615 231.41 860.885 230.72 860.885 229.781V217.404C860.885 216.745 861.283 216.152 861.891 215.898C862.498 215.645 863.195 215.787 863.664 216.253L873.301 225.893V217.404C873.301 216.51 874.031 215.775 874.929 215.775C875.827 215.775 876.558 216.506 876.558 217.404V229.781C876.558 230.675 875.827 231.41 874.929 231.41L874.933 231.447Z" fill="black"/>
<path d="M909.414 231.447C908.989 231.447 908.575 231.283 908.259 230.97L898.622 221.33V229.781C898.622 230.675 897.892 231.41 896.994 231.41C896.096 231.41 895.365 230.72 895.365 229.781V217.404C895.365 216.745 895.764 216.152 896.372 215.898C896.979 215.645 897.676 215.787 898.145 216.253L907.782 225.893V217.404C907.782 216.51 908.512 215.775 909.41 215.775C910.308 215.775 911.038 216.506 911.038 217.404V229.781C911.038 230.675 910.308 231.41 909.41 231.41L909.414 231.447Z" fill="black"/>
<path d="M943.895 231.447C943.47 231.447 943.056 231.283 942.739 230.97L933.103 221.33V229.781C933.103 230.675 932.373 231.41 931.475 231.41C930.576 231.41 929.846 230.72 929.846 229.781V217.404C929.846 216.745 930.245 216.152 930.852 215.898C931.46 215.645 932.156 215.787 932.626 216.253L942.262 225.893V217.404C942.262 216.51 942.993 215.775 943.891 215.775C944.789 215.775 945.519 216.506 945.519 217.404V229.781C945.519 230.675 944.789 231.41 943.891 231.41L943.895 231.447Z" fill="black"/>
<path d="M978.375 231.447C977.951 231.447 977.537 231.283 977.22 230.97L967.584 221.33V229.781C967.584 230.675 966.853 231.41 965.955 231.41C965.057 231.41 964.327 230.72 964.327 229.781V217.404C964.327 216.745 964.726 216.152 965.333 215.898C965.94 215.645 966.637 215.787 967.107 216.253L976.743 225.893V217.404C976.743 216.51 977.474 215.775 978.372 215.775C979.27 215.775 980 216.506 980 217.404V229.781C980 230.675 979.27 231.41 978.372 231.41L978.375 231.447Z" fill="black"/>
<path d="M1013.05 172.673C1012.62 172.673 1012.21 172.509 1011.89 172.196L1002.26 162.556V171.007C1002.26 171.901 1001.53 172.636 1000.63 172.636C999.73 172.636 999 171.946 999 171.007V158.63C999 157.971 999.399 157.378 1000.01 157.124C1000.61 156.871 1001.31 157.013 1001.78 157.479L1011.42 167.119V158.63C1011.42 157.736 1012.15 157.001 1013.04 157.001C1013.94 157.001 1014.67 157.732 1014.67 158.63V171.007C1014.67 171.901 1013.94 172.636 1013.04 172.636L1013.05 172.673Z" fill="black"/>
<path d="M1047.53 172.673C1047.1 172.673 1046.69 172.509 1046.37 172.196L1036.74 162.556V171.007C1036.74 171.901 1036.01 172.636 1035.11 172.636C1034.21 172.636 1033.48 171.946 1033.48 171.007V158.63C1033.48 157.971 1033.88 157.378 1034.49 157.124C1035.09 156.871 1035.79 157.013 1036.26 157.479L1045.9 167.119V158.63C1045.9 157.736 1046.63 157.001 1047.53 157.001C1048.42 157.001 1049.15 157.732 1049.15 158.63V171.007C1049.15 171.901 1048.42 172.636 1047.53 172.636L1047.53 172.673Z" fill="black"/>
<path d="M1082.01 172.673C1081.59 172.673 1081.17 172.509 1080.85 172.196L1071.22 162.556V171.007C1071.22 171.901 1070.49 172.636 1069.59 172.636C1068.69 172.636 1067.96 171.946 1067.96 171.007V158.63C1067.96 157.971 1068.36 157.378 1068.97 157.124C1069.58 156.871 1070.27 157.013 1070.74 157.479L1080.38 167.119V158.63C1080.38 157.736 1081.11 157.001 1082.01 157.001C1082.9 157.001 1083.63 157.732 1083.63 158.63V171.007C1083.63 171.901 1082.9 172.636 1082.01 172.636L1082.01 172.673Z" fill="black"/>
<path d="M1116.49 172.673C1116.07 172.673 1115.65 172.509 1115.34 172.196L1105.7 162.556V171.007C1105.7 171.901 1104.97 172.636 1104.07 172.636C1103.17 172.636 1102.44 171.946 1102.44 171.007V158.63C1102.44 157.971 1102.84 157.378 1103.45 157.124C1104.06 156.871 1104.75 157.013 1105.22 157.479L1114.86 167.119V158.63C1114.86 157.736 1115.59 157.001 1116.49 157.001C1117.39 157.001 1118.12 157.732 1118.12 158.63V171.007C1118.12 171.901 1117.39 172.636 1116.49 172.636L1116.49 172.673Z" fill="black"/>
<path d="M1150.97 172.673C1150.55 172.673 1150.13 172.509 1149.82 172.196L1140.18 162.556V171.007C1140.18 171.901 1139.45 172.636 1138.55 172.636C1137.65 172.636 1136.92 171.946 1136.92 171.007V158.63C1136.92 157.971 1137.32 157.378 1137.93 157.124C1138.54 156.871 1139.23 157.013 1139.7 157.479L1149.34 167.119V158.63C1149.34 157.736 1150.07 157.001 1150.97 157.001C1151.87 157.001 1152.6 157.732 1152.6 158.63V171.007C1152.6 171.901 1151.87 172.636 1150.97 172.636L1150.97 172.673Z" fill="black"/>
<path d="M1013.05 202.06C1012.62 202.06 1012.21 201.896 1011.89 201.583L1002.26 191.943V200.394C1002.26 201.288 1001.53 202.023 1000.63 202.023C999.73 202.023 999 201.333 999 200.394V188.017C999 187.358 999.399 186.765 1000.01 186.511C1000.61 186.258 1001.31 186.4 1001.78 186.866L1011.42 196.506V188.017C1011.42 187.123 1012.15 186.388 1013.04 186.388C1013.94 186.388 1014.67 187.119 1014.67 188.017V200.394C1014.67 201.288 1013.94 202.023 1013.04 202.023L1013.05 202.06Z" fill="black"/>
<path d="M1047.53 202.06C1047.1 202.06 1046.69 201.896 1046.37 201.583L1036.74 191.943V200.394C1036.74 201.288 1036.01 202.023 1035.11 202.023C1034.21 202.023 1033.48 201.333 1033.48 200.394V188.017C1033.48 187.358 1033.88 186.765 1034.49 186.511C1035.09 186.258 1035.79 186.4 1036.26 186.866L1045.9 196.506V188.017C1045.9 187.123 1046.63 186.388 1047.53 186.388C1048.42 186.388 1049.15 187.119 1049.15 188.017V200.394C1049.15 201.288 1048.42 202.023 1047.53 202.023L1047.53 202.06Z" fill="black"/>
<path d="M1082.01 202.06C1081.59 202.06 1081.17 201.896 1080.85 201.583L1071.22 191.943V200.394C1071.22 201.288 1070.49 202.023 1069.59 202.023C1068.69 202.023 1067.96 201.333 1067.96 200.394V188.017C1067.96 187.358 1068.36 186.765 1068.97 186.511C1069.58 186.258 1070.27 186.4 1070.74 186.866L1080.38 196.506V188.017C1080.38 187.123 1081.11 186.388 1082.01 186.388C1082.9 186.388 1083.63 187.119 1083.63 188.017V200.394C1083.63 201.288 1082.9 202.023 1082.01 202.023L1082.01 202.06Z" fill="black"/>
<path d="M1116.49 202.06C1116.07 202.06 1115.65 201.896 1115.34 201.583L1105.7 191.943V200.394C1105.7 201.288 1104.97 202.023 1104.07 202.023C1103.17 202.023 1102.44 201.333 1102.44 200.394V188.017C1102.44 187.358 1102.84 186.765 1103.45 186.511C1104.06 186.258 1104.75 186.4 1105.22 186.866L1114.86 196.506V188.017C1114.86 187.123 1115.59 186.388 1116.49 186.388C1117.39 186.388 1118.12 187.119 1118.12 188.017V200.394C1118.12 201.288 1117.39 202.023 1116.49 202.023L1116.49 202.06Z" fill="black"/>
<path d="M1150.97 202.06C1150.55 202.06 1150.13 201.896 1149.82 201.583L1140.18 191.943V200.394C1140.18 201.288 1139.45 202.023 1138.55 202.023C1137.65 202.023 1136.92 201.333 1136.92 200.394V188.017C1136.92 187.358 1137.32 186.765 1137.93 186.511C1138.54 186.258 1139.23 186.4 1139.7 186.866L1149.34 196.506V188.017C1149.34 187.123 1150.07 186.388 1150.97 186.388C1151.87 186.388 1152.6 187.119 1152.6 188.017V200.394C1152.6 201.288 1151.87 202.023 1150.97 202.023L1150.97 202.06Z" fill="black"/>
<path d="M1013.05 231.447C1012.62 231.447 1012.21 231.283 1011.89 230.97L1002.26 221.33V229.781C1002.26 230.675 1001.53 231.41 1000.63 231.41C999.73 231.41 999 230.72 999 229.781V217.404C999 216.745 999.399 216.152 1000.01 215.898C1000.61 215.645 1001.31 215.787 1001.78 216.253L1011.42 225.893V217.404C1011.42 216.51 1012.15 215.775 1013.04 215.775C1013.94 215.775 1014.67 216.506 1014.67 217.404V229.781C1014.67 230.675 1013.94 231.41 1013.04 231.41L1013.05 231.447Z" fill="black"/>
<path d="M1047.53 231.447C1047.1 231.447 1046.69 231.283 1046.37 230.97L1036.74 221.33V229.781C1036.74 230.675 1036.01 231.41 1035.11 231.41C1034.21 231.41 1033.48 230.72 1033.48 229.781V217.404C1033.48 216.745 1033.88 216.152 1034.49 215.898C1035.09 215.645 1035.79 215.787 1036.26 216.253L1045.9 225.893V217.404C1045.9 216.51 1046.63 215.775 1047.53 215.775C1048.42 215.775 1049.15 216.506 1049.15 217.404V229.781C1049.15 230.675 1048.42 231.41 1047.53 231.41L1047.53 231.447Z" fill="black"/>
<path d="M1082.01 231.447C1081.59 231.447 1081.17 231.283 1080.85 230.97L1071.22 221.33V229.781C1071.22 230.675 1070.49 231.41 1069.59 231.41C1068.69 231.41 1067.96 230.72 1067.96 229.781V217.404C1067.96 216.745 1068.36 216.152 1068.97 215.898C1069.58 215.645 1070.27 215.787 1070.74 216.253L1080.38 225.893V217.404C1080.38 216.51 1081.11 215.775 1082.01 215.775C1082.9 215.775 1083.63 216.506 1083.63 217.404V229.781C1083.63 230.675 1082.9 231.41 1082.01 231.41L1082.01 231.447Z" fill="black"/>
<path d="M1116.49 231.447C1116.07 231.447 1115.65 231.283 1115.34 230.97L1105.7 221.33V229.781C1105.7 230.675 1104.97 231.41 1104.07 231.41C1103.17 231.41 1102.44 230.72 1102.44 229.781V217.404C1102.44 216.745 1102.84 216.152 1103.45 215.898C1104.06 215.645 1104.75 215.787 1105.22 216.253L1114.86 225.893V217.404C1114.86 216.51 1115.59 215.775 1116.49 215.775C1117.39 215.775 1118.12 216.506 1118.12 217.404V229.781C1118.12 230.675 1117.39 231.41 1116.49 231.41L1116.49 231.447Z" fill="black"/>
<path d="M1150.97 231.447C1150.55 231.447 1150.13 231.283 1149.82 230.97L1140.18 221.33V229.781C1140.18 230.675 1139.45 231.41 1138.55 231.41C1137.65 231.41 1136.92 230.72 1136.92 229.781V217.404C1136.92 216.745 1137.32 216.152 1137.93 215.898C1138.54 215.645 1139.23 215.787 1139.7 216.253L1149.34 225.893V217.404C1149.34 216.51 1150.07 215.775 1150.97 215.775C1151.87 215.775 1152.6 216.506 1152.6 217.404V229.781C1152.6 230.675 1151.87 231.41 1150.97 231.41L1150.97 231.447Z" fill="black"/>
<path d="M1033.37 382.621C1033.71 381.867 1033.37 380.977 1032.62 380.634L1020.33 375.048C1019.58 374.705 1018.69 375.039 1018.34 375.793C1018 376.547 1018.34 377.436 1019.09 377.779L1030.01 382.745L1025.05 393.669C1024.71 394.423 1025.04 395.313 1025.79 395.655C1026.55 395.998 1027.44 395.665 1027.78 394.911L1033.37 382.621ZM124.39 765.448C131 763.669 149.166 756.718 175.881 745.942C202.649 735.145 238.109 720.462 279.392 703.165C361.96 668.569 467.839 623.505 574.089 578.129C786.628 487.363 1000.57 395.389 1032.53 383.404L1031.47 380.596C999.431 392.611 785.372 484.637 572.911 575.371C466.661 620.745 360.79 665.806 278.233 700.398C236.954 717.694 201.508 732.37 174.759 743.16C147.959 753.97 130 760.831 123.61 762.552L124.39 765.448Z" fill="black"/>
</svg>
