<svg width="1200" height="900" viewBox="0 0 1200 900" fill="none" xmlns="http://www.w3.org/2000/svg">
<rect width="1200" height="900" fill="white"/>
<path d="M141.49 401.734H125.936C125.652 399.722 125.072 397.935 124.196 396.372C123.32 394.786 122.196 393.437 120.822 392.324C119.449 391.211 117.863 390.359 116.064 389.767C114.288 389.175 112.359 388.879 110.276 388.879C106.511 388.879 103.232 389.814 100.439 391.685C97.6454 393.531 95.4792 396.23 93.9403 399.781C92.4015 403.309 91.6321 407.594 91.6321 412.636C91.6321 417.821 92.4015 422.177 93.9403 425.705C95.5028 429.232 97.6809 431.895 100.474 433.695C103.268 435.494 106.5 436.393 110.169 436.393C112.229 436.393 114.134 436.121 115.886 435.577C117.662 435.032 119.236 434.239 120.609 433.197C121.982 432.132 123.119 430.842 124.018 429.327C124.942 427.812 125.581 426.083 125.936 424.142L141.49 424.213C141.088 427.551 140.081 430.771 138.472 433.872C136.885 436.95 134.743 439.708 132.044 442.146C129.369 444.561 126.173 446.479 122.456 447.899C118.763 449.296 114.584 449.994 109.92 449.994C103.434 449.994 97.6335 448.527 92.5199 445.591C87.4299 442.655 83.4053 438.406 80.446 432.842C77.5104 427.279 76.0426 420.544 76.0426 412.636C76.0426 404.705 77.5341 397.958 80.517 392.395C83.5 386.831 87.5483 382.594 92.6619 379.682C97.7756 376.746 103.528 375.278 109.92 375.278C114.134 375.278 118.041 375.87 121.639 377.054C125.261 378.238 128.469 379.966 131.263 382.239C134.056 384.488 136.329 387.246 138.081 390.513C139.857 393.78 140.993 397.52 141.49 401.734ZM164.729 376.273V449H149.601V376.273H164.729ZM209.194 425.776V394.455H224.322V449H209.798V439.092H209.229C207.998 442.288 205.951 444.857 203.086 446.798C200.245 448.74 196.777 449.71 192.681 449.71C189.035 449.71 185.827 448.882 183.058 447.224C180.288 445.567 178.121 443.212 176.559 440.158C175.02 437.104 174.239 433.446 174.215 429.185V394.455H189.343V426.486C189.367 429.705 190.231 432.25 191.935 434.121C193.64 435.991 195.924 436.926 198.789 436.926C200.612 436.926 202.317 436.512 203.903 435.683C205.489 434.831 206.767 433.576 207.738 431.919C208.732 430.262 209.218 428.214 209.194 425.776ZM279.174 410.009L265.325 410.861C265.088 409.677 264.579 408.612 263.798 407.665C263.016 406.694 261.987 405.925 260.708 405.357C259.454 404.765 257.95 404.469 256.198 404.469C253.855 404.469 251.878 404.966 250.268 405.96C248.658 406.931 247.853 408.233 247.853 409.866C247.853 411.169 248.374 412.269 249.416 413.169C250.457 414.069 252.245 414.791 254.778 415.335L264.65 417.324C269.953 418.413 273.907 420.165 276.511 422.58C279.115 424.994 280.417 428.167 280.417 432.097C280.417 435.671 279.364 438.808 277.257 441.507C275.173 444.206 272.309 446.313 268.663 447.828C265.041 449.32 260.862 450.065 256.127 450.065C248.907 450.065 243.154 448.562 238.869 445.555C234.607 442.525 232.11 438.406 231.376 433.197L246.255 432.416C246.705 434.618 247.794 436.299 249.522 437.459C251.25 438.595 253.464 439.163 256.163 439.163C258.814 439.163 260.945 438.654 262.555 437.636C264.188 436.595 265.017 435.257 265.041 433.624C265.017 432.25 264.437 431.126 263.301 430.25C262.164 429.35 260.412 428.664 258.045 428.19L248.599 426.308C243.272 425.243 239.307 423.396 236.703 420.768C234.122 418.141 232.832 414.791 232.832 410.719C232.832 407.215 233.779 404.196 235.673 401.663C237.59 399.13 240.277 397.177 243.734 395.804C247.214 394.431 251.286 393.744 255.95 393.744C262.839 393.744 268.26 395.2 272.214 398.112C276.191 401.024 278.511 404.99 279.174 410.009ZM316.324 394.455V405.818H283.476V394.455H316.324ZM290.934 381.386H306.061V432.239C306.061 433.635 306.274 434.724 306.701 435.506C307.127 436.263 307.719 436.796 308.476 437.104C309.257 437.411 310.157 437.565 311.175 437.565C311.885 437.565 312.595 437.506 313.306 437.388C314.016 437.246 314.56 437.139 314.939 437.068L317.318 448.325C316.561 448.562 315.496 448.834 314.122 449.142C312.749 449.473 311.08 449.675 309.115 449.746C305.47 449.888 302.274 449.402 299.527 448.29C296.805 447.177 294.686 445.449 293.171 443.105C291.656 440.761 290.91 437.802 290.934 434.227V381.386ZM347.819 450.065C342.208 450.065 337.379 448.929 333.33 446.656C329.306 444.36 326.204 441.116 324.026 436.926C321.848 432.712 320.759 427.729 320.759 421.976C320.759 416.365 321.848 411.441 324.026 407.203C326.204 402.965 329.27 399.663 333.224 397.295C337.201 394.928 341.865 393.744 347.215 393.744C350.814 393.744 354.164 394.324 357.265 395.484C360.39 396.621 363.113 398.337 365.433 400.634C367.776 402.93 369.599 405.818 370.901 409.298C372.203 412.755 372.855 416.803 372.855 421.443V425.598H326.796V416.223H358.614C358.614 414.045 358.141 412.116 357.194 410.435C356.247 408.754 354.933 407.44 353.252 406.493C351.595 405.522 349.666 405.037 347.464 405.037C345.168 405.037 343.132 405.57 341.356 406.635C339.604 407.677 338.231 409.085 337.237 410.861C336.242 412.613 335.733 414.566 335.71 416.72V425.634C335.71 428.332 336.207 430.664 337.201 432.629C338.219 434.594 339.651 436.109 341.498 437.175C343.345 438.24 345.534 438.773 348.068 438.773C349.748 438.773 351.287 438.536 352.684 438.062C354.081 437.589 355.276 436.879 356.271 435.932C357.265 434.985 358.023 433.825 358.543 432.452L372.535 433.375C371.825 436.737 370.369 439.672 368.167 442.182C365.989 444.668 363.172 446.609 359.715 448.006C356.283 449.379 352.317 450.065 347.819 450.065ZM380.095 449V394.455H394.761V403.972H395.33C396.324 400.586 397.993 398.029 400.337 396.301C402.68 394.549 405.379 393.673 408.433 393.673C409.191 393.673 410.008 393.721 410.883 393.815C411.759 393.91 412.529 394.04 413.192 394.206V407.629C412.481 407.416 411.499 407.227 410.244 407.061C408.99 406.895 407.841 406.812 406.8 406.812C404.574 406.812 402.586 407.298 400.834 408.268C399.106 409.215 397.732 410.541 396.714 412.246C395.72 413.95 395.223 415.915 395.223 418.141V449H380.095ZM454.448 450.03C450.968 450.03 447.867 449.426 445.144 448.219C442.422 446.988 440.268 445.177 438.681 442.786C437.119 440.371 436.338 437.364 436.338 433.766C436.338 430.735 436.894 428.19 438.007 426.131C439.119 424.071 440.635 422.414 442.552 421.159C444.47 419.904 446.648 418.957 449.086 418.318C451.548 417.679 454.129 417.229 456.828 416.969C460 416.637 462.557 416.33 464.498 416.045C466.439 415.738 467.848 415.288 468.724 414.696C469.6 414.104 470.038 413.228 470.038 412.068V411.855C470.038 409.606 469.328 407.866 467.907 406.635C466.51 405.404 464.522 404.788 461.941 404.788C459.219 404.788 457.053 405.392 455.443 406.599C453.833 407.783 452.768 409.275 452.247 411.074L438.255 409.938C438.965 406.623 440.362 403.759 442.446 401.344C444.529 398.905 447.216 397.035 450.507 395.733C453.821 394.407 457.656 393.744 462.012 393.744C465.043 393.744 467.943 394.099 470.713 394.81C473.506 395.52 475.98 396.621 478.135 398.112C480.313 399.604 482.029 401.521 483.284 403.865C484.538 406.185 485.166 408.967 485.166 412.21V449H470.819V441.436H470.393C469.517 443.141 468.345 444.644 466.877 445.946C465.41 447.224 463.646 448.231 461.586 448.964C459.527 449.675 457.147 450.03 454.448 450.03ZM458.781 439.589C461.006 439.589 462.971 439.152 464.676 438.276C466.38 437.376 467.718 436.169 468.688 434.653C469.659 433.138 470.144 431.422 470.144 429.504V423.716C469.671 424.024 469.02 424.308 468.191 424.568C467.386 424.805 466.475 425.03 465.457 425.243C464.439 425.432 463.421 425.61 462.403 425.776C461.385 425.918 460.462 426.048 459.633 426.166C457.858 426.427 456.307 426.841 454.981 427.409C453.655 427.977 452.626 428.747 451.892 429.717C451.158 430.664 450.791 431.848 450.791 433.268C450.791 435.328 451.536 436.902 453.028 437.991C454.543 439.057 456.461 439.589 458.781 439.589ZM529.249 425.776V394.455H544.377V449H529.853V439.092H529.285C528.054 442.288 526.006 444.857 523.141 446.798C520.301 448.74 516.832 449.71 512.737 449.71C509.091 449.71 505.883 448.882 503.113 447.224C500.343 445.567 498.177 443.212 496.614 440.158C495.076 437.104 494.294 433.446 494.271 429.185V394.455H509.399V426.486C509.422 429.705 510.286 432.25 511.991 434.121C513.695 435.991 515.98 436.926 518.845 436.926C520.667 436.926 522.372 436.512 523.958 435.683C525.544 434.831 526.823 433.576 527.793 431.919C528.788 430.262 529.273 428.214 529.249 425.776ZM582.859 394.455V405.818H550.011V394.455H582.859ZM557.468 381.386H572.596V432.239C572.596 433.635 572.809 434.724 573.235 435.506C573.661 436.263 574.253 436.796 575.011 437.104C575.792 437.411 576.692 437.565 577.71 437.565C578.42 437.565 579.13 437.506 579.84 437.388C580.551 437.246 581.095 437.139 581.474 437.068L583.853 448.325C583.096 448.562 582.03 448.834 580.657 449.142C579.284 449.473 577.615 449.675 575.65 449.746C572.004 449.888 568.808 449.402 566.062 448.29C563.34 447.177 561.221 445.449 559.706 443.105C558.19 440.761 557.445 437.802 557.468 434.227V381.386ZM614.141 450.065C608.625 450.065 603.854 448.893 599.83 446.55C595.829 444.182 592.739 440.892 590.561 436.678C588.383 432.44 587.294 427.527 587.294 421.94C587.294 416.306 588.383 411.382 590.561 407.168C592.739 402.93 595.829 399.639 599.83 397.295C603.854 394.928 608.625 393.744 614.141 393.744C619.657 393.744 624.415 394.928 628.416 397.295C632.441 399.639 635.542 402.93 637.72 407.168C639.898 411.382 640.987 416.306 640.987 421.94C640.987 427.527 639.898 432.44 637.72 436.678C635.542 440.892 632.441 444.182 628.416 446.55C624.415 448.893 619.657 450.065 614.141 450.065ZM614.212 438.347C616.721 438.347 618.816 437.636 620.497 436.216C622.178 434.772 623.445 432.807 624.297 430.321C625.173 427.835 625.611 425.006 625.611 421.834C625.611 418.661 625.173 415.832 624.297 413.347C623.445 410.861 622.178 408.896 620.497 407.452C618.816 406.008 616.721 405.286 614.212 405.286C611.679 405.286 609.548 406.008 607.82 407.452C606.115 408.896 604.825 410.861 603.949 413.347C603.097 415.832 602.671 418.661 602.671 421.834C602.671 425.006 603.097 427.835 603.949 430.321C604.825 432.807 606.115 434.772 607.82 436.216C609.548 437.636 611.679 438.347 614.212 438.347ZM693.576 410.009L679.726 410.861C679.49 409.677 678.981 408.612 678.199 407.665C677.418 406.694 676.388 405.925 675.11 405.357C673.855 404.765 672.352 404.469 670.6 404.469C668.256 404.469 666.28 404.966 664.67 405.96C663.06 406.931 662.255 408.233 662.255 409.866C662.255 411.169 662.776 412.269 663.817 413.169C664.859 414.069 666.646 414.791 669.18 415.335L679.052 417.324C684.355 418.413 688.308 420.165 690.913 422.58C693.517 424.994 694.819 428.167 694.819 432.097C694.819 435.671 693.765 438.808 691.658 441.507C689.575 444.206 686.71 446.313 683.065 447.828C679.442 449.32 675.264 450.065 670.529 450.065C663.308 450.065 657.556 448.562 653.271 445.555C649.009 442.525 646.512 438.406 645.778 433.197L660.657 432.416C661.107 434.618 662.196 436.299 663.924 437.459C665.652 438.595 667.866 439.163 670.565 439.163C673.216 439.163 675.347 438.654 676.957 437.636C678.59 436.595 679.419 435.257 679.442 433.624C679.419 432.25 678.839 431.126 677.702 430.25C676.566 429.35 674.814 428.664 672.447 428.19L663.001 426.308C657.674 425.243 653.708 423.396 651.104 420.768C648.524 418.141 647.234 414.791 647.234 410.719C647.234 407.215 648.181 404.196 650.074 401.663C651.992 399.13 654.679 397.177 658.136 395.804C661.616 394.431 665.688 393.744 670.351 393.744C677.241 393.744 682.662 395.2 686.616 398.112C690.593 401.024 692.913 404.99 693.576 410.009ZM726.358 450.065C720.771 450.065 715.965 448.882 711.94 446.514C707.939 444.123 704.862 440.809 702.707 436.571C700.577 432.333 699.511 427.456 699.511 421.94C699.511 416.353 700.589 411.453 702.743 407.239C704.921 403.001 708.01 399.698 712.011 397.331C716.012 394.94 720.771 393.744 726.287 393.744C731.046 393.744 735.212 394.608 738.787 396.337C742.362 398.065 745.191 400.491 747.274 403.616C749.358 406.741 750.506 410.411 750.719 414.625H736.443C736.041 411.902 734.975 409.713 733.247 408.055C731.543 406.375 729.305 405.534 726.536 405.534C724.192 405.534 722.144 406.173 720.392 407.452C718.664 408.706 717.314 410.541 716.344 412.956C715.373 415.371 714.888 418.295 714.888 421.727C714.888 425.207 715.361 428.167 716.308 430.605C717.279 433.044 718.64 434.902 720.392 436.18C722.144 437.459 724.192 438.098 726.536 438.098C728.264 438.098 729.814 437.743 731.188 437.033C732.584 436.322 733.733 435.293 734.632 433.943C735.555 432.57 736.159 430.925 736.443 429.007H750.719C750.482 433.174 749.346 436.843 747.31 440.016C745.297 443.164 742.516 445.626 738.965 447.402C735.413 449.178 731.211 450.065 726.358 450.065ZM773.327 450.03C769.847 450.03 766.745 449.426 764.023 448.219C761.3 446.988 759.146 445.177 757.56 442.786C755.997 440.371 755.216 437.364 755.216 433.766C755.216 430.735 755.772 428.19 756.885 426.131C757.998 424.071 759.513 422.414 761.431 421.159C763.348 419.904 765.526 418.957 767.965 418.318C770.427 417.679 773.007 417.229 775.706 416.969C778.879 416.637 781.435 416.33 783.377 416.045C785.318 415.738 786.727 415.288 787.603 414.696C788.478 414.104 788.916 413.228 788.916 412.068V411.855C788.916 409.606 788.206 407.866 786.786 406.635C785.389 405.404 783.4 404.788 780.82 404.788C778.097 404.788 775.931 405.392 774.321 406.599C772.711 407.783 771.646 409.275 771.125 411.074L757.134 409.938C757.844 406.623 759.241 403.759 761.324 401.344C763.407 398.905 766.094 397.035 769.385 395.733C772.7 394.407 776.535 393.744 780.891 393.744C783.921 393.744 786.821 394.099 789.591 394.81C792.385 395.52 794.859 396.621 797.013 398.112C799.191 399.604 800.907 401.521 802.162 403.865C803.417 406.185 804.044 408.967 804.044 412.21V449H789.698V441.436H789.272C788.396 443.141 787.224 444.644 785.756 445.946C784.288 447.224 782.524 448.231 780.465 448.964C778.405 449.675 776.026 450.03 773.327 450.03ZM777.659 439.589C779.885 439.589 781.85 439.152 783.554 438.276C785.259 437.376 786.596 436.169 787.567 434.653C788.538 433.138 789.023 431.422 789.023 429.504V423.716C788.549 424.024 787.898 424.308 787.07 424.568C786.265 424.805 785.353 425.03 784.335 425.243C783.317 425.432 782.299 425.61 781.281 425.776C780.263 425.918 779.34 426.048 778.512 426.166C776.736 426.427 775.185 426.841 773.86 427.409C772.534 427.977 771.504 428.747 770.77 429.717C770.036 430.664 769.669 431.848 769.669 433.268C769.669 435.328 770.415 436.902 771.906 437.991C773.422 439.057 775.339 439.589 777.659 439.589ZM828.277 376.273V449H813.149V376.273H828.277ZM862.622 450.065C857.011 450.065 852.181 448.929 848.133 446.656C844.108 444.36 841.007 441.116 838.829 436.926C836.651 432.712 835.562 427.729 835.562 421.976C835.562 416.365 836.651 411.441 838.829 407.203C841.007 402.965 844.073 399.663 848.026 397.295C852.004 394.928 856.668 393.744 862.018 393.744C865.616 393.744 868.966 394.324 872.068 395.484C875.193 396.621 877.915 398.337 880.235 400.634C882.579 402.93 884.402 405.818 885.704 409.298C887.006 412.755 887.657 416.803 887.657 421.443V425.598H841.599V416.223H873.417C873.417 414.045 872.944 412.116 871.997 410.435C871.05 408.754 869.736 407.44 868.055 406.493C866.398 405.522 864.468 405.037 862.267 405.037C859.97 405.037 857.934 405.57 856.159 406.635C854.407 407.677 853.034 409.085 852.039 410.861C851.045 412.613 850.536 414.566 850.512 416.72V425.634C850.512 428.332 851.009 430.664 852.004 432.629C853.022 434.594 854.454 436.109 856.301 437.175C858.147 438.24 860.337 438.773 862.87 438.773C864.551 438.773 866.09 438.536 867.487 438.062C868.883 437.589 870.079 436.879 871.073 435.932C872.068 434.985 872.825 433.825 873.346 432.452L887.338 433.375C886.627 436.737 885.171 439.672 882.97 442.182C880.792 444.668 877.974 446.609 874.518 448.006C871.085 449.379 867.12 450.065 862.622 450.065ZM894.898 449V394.455H909.564V403.972H910.132C911.126 400.586 912.795 398.029 915.139 396.301C917.483 394.549 920.182 393.673 923.236 393.673C923.993 393.673 924.81 393.721 925.686 393.815C926.562 393.91 927.331 394.04 927.994 394.206V407.629C927.284 407.416 926.302 407.227 925.047 407.061C923.792 406.895 922.644 406.812 921.602 406.812C919.377 406.812 917.388 407.298 915.636 408.268C913.908 409.215 912.535 410.541 911.517 412.246C910.523 413.95 910.026 415.915 910.026 418.141V449H894.898Z" fill="black"/>
<rect x="71" y="498" width="1038" height="19" fill="black"/>
</svg>
