<svg width="1200" height="900" viewBox="0 0 1200 900" fill="none" xmlns="http://www.w3.org/2000/svg">
<path opacity="0.6" d="M152 158H1042.21V730.709H152V158Z" fill="#FCC936"/>
<rect x="152" y="363" width="595" height="368" fill="#DEFC83"/>
<path fill-rule="evenodd" clip-rule="evenodd" d="M156.962 327.976H152V323H166.885V334H156.962V327.976ZM176.808 323V334H186.731V323H176.808ZM196.654 323V334H206.577V323H196.654ZM216.5 323V334H226.423V323H216.5ZM236.346 323V334H246.269V323H236.346ZM256.193 323V334H266.116V323H256.193ZM276.039 323V334H285.962V323H276.039ZM295.885 323V334H305.808V323H295.885ZM315.731 323V334H325.654V323H315.731ZM335.577 323V334H345.5V323H335.577ZM355.423 323V334H365.346V323H355.423ZM375.269 323V334H385.192V323H375.269ZM395.115 323V334H405.039V323H395.115ZM414.962 323V334H424.885V323H414.962ZM434.808 323V334H444.731V323H434.808ZM454.654 323V334H464.577V323H454.654ZM474.5 323V334H484.423V323H474.5ZM494.346 323V334H504.269V323H494.346ZM514.192 323V334H524.115V323H514.192ZM534.038 323V334H543.961V323H534.038ZM553.885 323V334H563.808V323H553.885ZM573.731 323V334H583.654V323H573.731ZM593.577 323V334H603.5V323H593.577ZM613.423 323V334H623.346V323H613.423ZM633.269 323V334H643.192V323H633.269ZM653.115 323V334H663.038V323H653.115ZM672.961 323V334H682.885V323H672.961ZM692.808 323V334H702.731V323H692.808ZM712.654 323V334H722.577V323H712.654ZM732.5 323V334H742.423V323H732.5ZM752.346 323V334H762.269V323H752.346ZM772.192 323V334H782.115V323H772.192ZM792.038 323V327.975H786V337.927H797V323H792.038ZM797 347.878H786V357.829H797V347.878ZM797 367.78H786V377.732H797V367.78ZM797 387.683H786V397.634H797V387.683ZM797 407.585H786V417.537H797V407.585ZM797 427.488H786V437.439H797V427.488ZM797 447.39H786V457.341H797V447.39ZM797 467.293H786V477.244H797V467.293ZM797 487.195H786V497.146H797V487.195ZM797 507.098H786V517.049H797V507.098ZM797 527H786V536.951H797V527ZM797 546.902H786V556.854H797V546.902ZM797 566.805H786V576.756H797V566.805ZM797 586.707H786V596.659H797V586.707ZM797 606.61H786V616.561H797V606.61ZM797 626.512H786V636.463H797V626.512ZM797 646.415H786V656.366H797V646.415ZM797 666.317H786V676.268H797V666.317ZM797 686.22H786V696.171H797V686.22ZM797 706.122H786V716.073H797V706.122ZM797 726.024H792.038V720H782.115V731H797V726.024ZM772.192 731V720H762.269V731H772.192ZM752.346 731V720H742.423V731H752.346ZM732.5 731V720H722.577V731H732.5ZM712.654 731V720H702.731V731H712.654ZM692.807 731V720H682.884V731H692.807ZM672.961 731V720H663.038V731H672.961ZM653.115 731V720H643.192V731H653.115ZM633.269 731V720H623.346V731H633.269ZM613.423 731V720H603.5V731H613.423ZM593.577 731V720H583.654V731H593.577ZM573.731 731V720H563.808V731H573.731ZM553.885 731V720H543.961V731H553.885ZM534.038 731V720H524.115V731H534.038ZM514.192 731V720H504.269V731H514.192ZM494.346 731V720H484.423V731H494.346ZM474.5 731V720H464.577V731H474.5ZM454.654 731V720H444.731V731H454.654ZM434.808 731V720H424.885V731H434.808ZM414.962 731V720H405.039V731H414.962ZM395.115 731V720H385.192V731H395.115ZM375.269 731V720H365.346V731H375.269ZM355.423 731V720H345.5V731H355.423ZM335.577 731V720H325.654V731H335.577ZM315.731 731V720H305.808V731H315.731ZM295.885 731V720H285.962V731H295.885ZM276.038 731V720H266.115V731H276.038ZM256.192 731V720H246.269V731H256.192ZM236.346 731V720H226.423V731H236.346ZM216.5 731V720H206.577V731H216.5ZM196.654 731V720H186.731V731H196.654ZM176.808 731V720H166.885V731H176.808ZM156.962 731V726.025H163V716.073H152V731H156.962ZM152 706.122H163V696.171H152V706.122ZM152 686.22H163V676.268H152V686.22ZM152 666.317H163V656.366H152V666.317ZM152 646.415H163V636.463H152V646.415ZM152 626.512H163V616.561H152V626.512ZM152 606.61H163V596.659H152V606.61ZM152 586.707H163V576.756H152V586.707ZM152 566.805H163V556.854H152V566.805ZM152 546.902H163V536.951H152V546.902ZM152 527H163V517.049H152V527ZM152 507.098H163V497.146H152V507.098ZM152 487.195H163V477.244H152V487.195ZM152 467.293H163V457.341H152V467.293ZM152 447.39H163V437.439H152V447.39ZM152 427.488H163V417.537H152V427.488ZM152 407.585H163V397.634H152V407.585ZM152 387.683H163V377.732H152V387.683ZM152 367.78H163V357.829H152V367.78ZM152 347.878H163V337.927H152V347.878Z" fill="#8EBE00"/>
<rect x="157.5" y="163.5" width="879" height="562" stroke="#8EBE00" stroke-width="11" stroke-dasharray="0 10"/>
<path d="M916.46 133.73H941.004V127.046H924.567V95.3893H916.46V133.73ZM944.64 133.73H952.616V104.974H944.64V133.73ZM948.647 101.268C951.024 101.268 952.971 99.4517 952.971 97.2239C952.971 95.0149 951.024 93.1989 948.647 93.1989C946.288 93.1989 944.341 95.0149 944.341 97.2239C944.341 99.4517 946.288 101.268 948.647 101.268ZM957.422 133.73H965.398V116.469C965.398 113.286 967.419 111.171 970.078 111.171C972.699 111.171 974.458 112.968 974.458 115.795V133.73H982.19V116.169C982.19 113.193 983.894 111.171 986.796 111.171C989.342 111.171 991.251 112.762 991.251 115.964V133.73H999.207V114.391C999.207 108.157 995.501 104.6 990.147 104.6C985.934 104.6 982.658 106.753 981.479 110.048H981.179C980.262 106.715 977.323 104.6 973.373 104.6C969.497 104.6 966.558 106.659 965.36 110.048H965.023V104.974H957.422V133.73ZM1003.93 133.73H1011.9V104.974H1003.93V133.73ZM1007.93 101.268C1010.31 101.268 1012.26 99.4517 1012.26 97.2239C1012.26 95.0149 1010.31 93.1989 1007.93 93.1989C1005.57 93.1989 1003.63 95.0149 1003.63 97.2239C1003.63 99.4517 1005.57 101.268 1007.93 101.268ZM1032 104.974H1026.59V98.0851H1018.62V104.974H1014.69V110.965H1018.62V125.942C1018.58 131.577 1022.42 134.366 1028.2 134.123C1030.26 134.048 1031.72 133.636 1032.53 133.374L1031.27 127.439C1030.88 127.514 1030.04 127.701 1029.29 127.701C1027.7 127.701 1026.59 127.102 1026.59 124.893V110.965H1032V104.974Z" fill="black"/>
<path d="M228.695 780H243.604V776.385H234.822V776.242L237.875 773.25C242.174 769.329 243.328 767.369 243.328 764.989C243.328 761.364 240.367 758.801 235.884 758.801C231.493 758.801 228.481 761.426 228.491 765.53H232.688C232.678 763.529 233.944 762.304 235.853 762.304C237.691 762.304 239.06 763.447 239.06 765.285C239.06 766.95 238.039 768.094 236.139 769.921L228.695 776.814V780ZM253.583 780.286C258.239 780.286 261.405 777.253 261.395 773.026C261.405 769.023 258.607 766.143 254.839 766.143C253.001 766.143 251.418 766.909 250.683 767.94H250.56L251.102 762.702H260.241V759.087H247.456L246.466 770.115L250.397 770.82C251.04 769.952 252.286 769.411 253.522 769.411C255.625 769.421 257.137 770.943 257.137 773.138C257.137 775.313 255.656 776.814 253.583 776.814C251.827 776.814 250.407 775.711 250.305 774.088H246.016C246.098 777.702 249.253 780.286 253.583 780.286ZM271.642 780.286C276.298 780.306 279.474 777.253 279.464 772.995C279.474 769.074 276.737 766.245 273.031 766.245C270.733 766.245 268.701 767.348 267.762 769.196H267.619C267.639 765.122 269.069 762.59 271.795 762.59C273.398 762.59 274.552 763.468 274.889 764.928H279.249C278.831 761.487 275.972 758.801 271.795 758.801C266.628 758.801 263.31 762.988 263.289 770.013C263.279 777.672 267.343 780.265 271.642 780.286ZM271.622 776.814C269.579 776.814 268.068 775.17 268.068 773.128C268.078 771.096 269.62 769.441 271.652 769.441C273.694 769.441 275.185 771.045 275.175 773.118C275.185 775.211 273.664 776.814 271.622 776.814ZM281.859 759.087V780H286.147V766.337H286.321L291.733 779.898H294.654L300.066 766.388H300.239V780H304.528V759.087H299.075L293.316 773.138H293.071L287.312 759.087H281.859ZM307.308 780H316.243C320.94 780 323.442 777.549 323.442 774.22C323.442 771.126 321.226 769.258 318.847 769.145V768.941C321.022 768.451 322.625 766.909 322.625 764.448C322.625 761.313 320.297 759.087 315.682 759.087H307.308V780ZM311.73 776.385V770.83H315.436C317.56 770.83 318.878 772.056 318.878 773.781C318.878 775.354 317.806 776.385 315.334 776.385H311.73ZM311.73 767.838V762.661H315.089C317.05 762.661 318.163 763.672 318.163 765.183C318.163 766.838 316.815 767.838 315.008 767.838H311.73Z" fill="black"/>
<path d="M232.422 433L233.974 428.231H241.521L243.073 433H247.811L240.602 412.087H234.904L227.684 433H232.422ZM235.098 424.78L237.671 416.866H237.834L240.408 424.78H235.098ZM255.74 433.306C259.917 433.306 262.541 430.856 262.745 427.251H258.64C258.385 428.926 257.282 429.865 255.791 429.865C253.759 429.865 252.442 428.16 252.442 425.158C252.442 422.196 253.769 420.501 255.791 420.501C257.384 420.501 258.405 421.553 258.64 423.115H262.745C262.561 419.49 259.814 417.111 255.72 417.111C250.961 417.111 248.02 420.409 248.02 425.219C248.02 429.988 250.91 433.306 255.74 433.306ZM273.01 417.315H270.059V413.558H265.709V417.315H263.565V420.583H265.709V428.752C265.689 431.826 267.782 433.347 270.937 433.214C272.061 433.174 272.857 432.949 273.296 432.806L272.612 429.569C272.398 429.61 271.938 429.712 271.53 429.712C270.662 429.712 270.059 429.385 270.059 428.18V420.583H273.01V417.315ZM285.04 426.322C285.05 428.425 283.61 429.528 282.048 429.528C280.404 429.528 279.342 428.374 279.331 426.526L279.331 417.315H274.981V427.302C274.992 430.968 277.136 433.204 280.291 433.204C282.65 433.204 284.345 431.989 285.05 430.151H285.213V433H289.39V417.315H285.04V426.322ZM296.479 433.296C298.797 433.296 300.298 432.285 301.064 430.825H301.186V433H305.312V422.421C305.312 418.684 302.146 417.111 298.654 417.111C294.896 417.111 292.425 418.908 291.823 421.767L295.846 422.094C296.142 421.053 297.071 420.287 298.634 420.287C300.114 420.287 300.962 421.032 300.962 422.319V422.38C300.962 423.391 299.89 423.524 297.163 423.789C294.059 424.075 291.271 425.117 291.271 428.619C291.271 431.724 293.487 433.296 296.479 433.296ZM297.725 430.294C296.387 430.294 295.427 429.671 295.427 428.476C295.427 427.251 296.438 426.649 297.97 426.434C298.92 426.301 300.472 426.077 300.992 425.729V427.394C300.992 429.038 299.634 430.294 297.725 430.294ZM312.174 412.087H307.824V433H312.174V412.087ZM320.589 433H324.939V423.585C324.939 421.849 326.042 420.695 327.492 420.695C328.921 420.695 329.881 421.676 329.881 423.217V433H334.098V423.422C334.098 421.798 335.028 420.695 336.61 420.695C337.999 420.695 339.041 421.563 339.041 423.309V433H343.381V422.452C343.381 419.051 341.359 417.111 338.438 417.111C336.141 417.111 334.354 418.285 333.71 420.083H333.547C333.047 418.265 331.443 417.111 329.289 417.111C327.175 417.111 325.572 418.234 324.918 420.083H324.735V417.315H320.589V433ZM353.102 433.306C356.982 433.306 359.596 431.417 360.209 428.507L356.186 428.241C355.747 429.436 354.623 430.059 353.173 430.059C350.998 430.059 349.62 428.619 349.62 426.281V426.271H360.301V425.076C360.301 419.746 357.074 417.111 352.928 417.111C348.313 417.111 345.321 420.389 345.321 425.229C345.321 430.202 348.272 433.306 353.102 433.306ZM349.62 423.575C349.712 421.788 351.07 420.358 353 420.358C354.889 420.358 356.196 421.706 356.206 423.575H349.62ZM362.277 433H366.627V423.585C366.627 421.849 367.73 420.695 369.18 420.695C370.61 420.695 371.569 421.676 371.569 423.217V433H375.787V423.422C375.787 421.798 376.716 420.695 378.299 420.695C379.687 420.695 380.729 421.563 380.729 423.309V433H385.069V422.452C385.069 419.051 383.047 417.111 380.127 417.111C377.829 417.111 376.042 418.285 375.399 420.083H375.235C374.735 418.265 373.132 417.111 370.977 417.111C368.863 417.111 367.26 418.234 366.607 420.083H366.423V417.315H362.277V433ZM394.729 433.306C399.488 433.306 402.449 430.049 402.449 425.219C402.449 420.358 399.488 417.111 394.729 417.111C389.971 417.111 387.009 420.358 387.009 425.219C387.009 430.049 389.971 433.306 394.729 433.306ZM394.749 429.937C392.554 429.937 391.431 427.925 391.431 425.188C391.431 422.452 392.554 420.43 394.749 420.43C396.904 420.43 398.027 422.452 398.027 425.188C398.027 427.925 396.904 429.937 394.749 429.937ZM404.415 433H408.765V424.126C408.765 422.196 410.174 420.869 412.094 420.869C412.696 420.869 413.523 420.971 413.932 421.104V417.244C413.544 417.152 413.003 417.091 412.563 417.091C410.807 417.091 409.367 418.112 408.795 420.052H408.632V417.315H404.415V433ZM418.481 438.882C421.718 438.882 423.434 437.228 424.322 434.695L430.418 417.336L425.813 417.315L422.535 428.834H422.372L419.124 417.315H414.55L420.176 433.449L419.921 434.113C419.349 435.583 418.256 435.655 416.725 435.185L415.744 438.432C416.367 438.698 417.378 438.882 418.481 438.882ZM439.261 411.107H435.514L428.774 436.145H432.522L439.261 411.107ZM459.028 419.409C458.446 414.579 454.791 411.801 449.95 411.801C444.426 411.801 440.209 415.702 440.209 422.544C440.209 429.365 444.355 433.286 449.95 433.286C455.311 433.286 458.548 429.722 459.028 425.872L454.556 425.852C454.137 428.088 452.381 429.375 450.022 429.375C446.846 429.375 444.692 427.016 444.692 422.544C444.692 418.193 446.816 415.712 450.053 415.712C452.473 415.712 454.219 417.111 454.556 419.409H459.028ZM461.336 433H465.758V426.22H469.475C474.284 426.22 477.082 423.35 477.082 419.174C477.082 415.018 474.335 412.087 469.587 412.087H461.336V433ZM465.758 422.676V415.702H468.74C471.292 415.702 472.528 417.091 472.528 419.174C472.528 421.247 471.292 422.676 468.76 422.676H465.758ZM492.009 412.087V425.29C492.009 427.68 490.334 429.406 487.761 429.406C485.198 429.406 483.513 427.68 483.513 425.29V412.087H479.092V425.668C479.092 430.243 482.543 433.296 487.761 433.296C492.959 433.296 496.431 430.243 496.431 425.668V412.087H492.009Z" fill="black"/>
<path d="M111.46 699.683C111.46 694.424 107.457 691.249 100.564 691.238C93.7223 691.228 89.8012 694.445 89.8012 699.683C89.8012 704.932 93.7121 708.118 100.564 708.128C107.436 708.149 111.449 704.952 111.46 699.683ZM107.794 699.683C107.794 702.083 105.384 703.635 100.564 703.625C95.8157 703.615 93.4262 702.073 93.4262 699.683C93.4262 697.304 95.8157 695.752 100.564 695.752C105.384 695.742 107.794 697.294 107.794 699.683ZM111.265 687.235C111.265 685.928 110.173 684.795 108.815 684.785C107.477 684.795 106.384 685.928 106.384 687.235C106.384 688.583 107.477 689.696 108.815 689.686C110.173 689.696 111.265 688.583 111.265 687.235ZM90.0871 675.63L90.0871 679.786L93.3649 684.963L97.2861 684.963L94.284 680.174L94.284 680.052L111 680.052L111 675.63L90.0871 675.63ZM95.3153 651.066L95.3153 655.671L106.538 658.919L106.538 659.082L95.3153 662.339L95.3153 666.935L111 661.451L111 656.55L95.3153 651.066ZM97.4087 631.169C92.5787 631.751 89.8012 635.407 89.8012 640.247C89.8012 645.771 93.7019 649.989 100.544 649.989C107.365 649.989 111.286 645.843 111.286 640.247C111.286 634.886 107.722 631.649 103.872 631.169L103.852 635.642C106.088 636.06 107.375 637.817 107.375 640.175C107.375 643.351 105.016 645.506 100.544 645.506C96.1935 645.506 93.7121 643.382 93.7121 640.145C93.7121 637.725 95.1111 635.979 97.4087 635.642L97.4087 631.169ZM111 628.861L111 624.44L104.22 624.44L104.22 620.723C104.22 615.913 101.35 613.115 97.1738 613.115C93.0178 613.115 90.0871 615.862 90.0871 620.61L90.0871 628.861L111 628.861ZM100.676 624.44L93.7019 624.44L93.7019 621.458C93.7019 618.905 95.0907 617.669 97.1738 617.669C99.2467 617.669 100.676 618.905 100.676 621.437L100.676 624.44ZM90.0871 598.188L103.29 598.188C105.68 598.188 107.406 599.863 107.406 602.436C107.406 604.999 105.68 606.684 103.29 606.684L90.0871 606.684L90.0871 611.106L103.668 611.106C108.243 611.106 111.296 607.654 111.296 602.436C111.296 597.239 108.243 593.767 103.668 593.767L90.0871 593.767L90.0871 598.188Z" fill="black"/>
<path d="M540.639 116.207H559.042V122.946H566.792V116.207H571.547V109.711H566.792V84.6061H556.645L540.639 109.823V116.207ZM559.192 109.711H548.801V109.411L558.892 93.4423H559.192V109.711ZM601.014 96.9993H609.251C608.203 89.4173 601.52 84.0819 592.852 84.0819C582.724 84.0819 574.917 91.383 574.917 103.814C574.917 115.945 582.219 123.471 593.02 123.471C602.699 123.471 609.607 117.349 609.607 107.258V102.428H593.563V108.531H601.801C601.688 113.286 598.45 116.3 593.058 116.3C586.974 116.3 583.136 111.751 583.136 103.739C583.136 95.7637 587.123 91.252 592.983 91.252C597.158 91.252 599.985 93.4049 601.014 96.9993ZM614.115 122.946H630.495C639.107 122.946 643.694 118.453 643.694 112.35C643.694 106.678 639.631 103.252 635.269 103.046V102.672C639.257 101.773 642.196 98.9463 642.196 94.4345C642.196 88.6872 637.928 84.6061 629.466 84.6061H614.115V122.946ZM622.221 116.319V106.135H629.016C632.91 106.135 635.325 108.382 635.325 111.545C635.325 114.428 633.36 116.319 628.829 116.319H622.221ZM622.221 100.65V91.1584H628.38C631.974 91.1584 634.015 93.0117 634.015 95.7824C634.015 98.8152 631.544 100.65 628.23 100.65H622.221Z" fill="black"/>
<path d="M1122.34 383.098L1122.34 375.479L1116.33 365.987L1109.14 365.987L1114.65 374.767L1114.65 374.992L1084 374.992L1084 383.098L1122.34 383.098ZM1112.76 417.512L1112.76 409.069L1092.18 403.116L1092.18 402.816L1112.76 396.844L1112.76 388.42L1084 398.473L1084 407.459L1112.76 417.512ZM1108.92 453.99C1117.77 452.923 1122.86 446.221 1122.86 437.347C1122.86 427.219 1115.71 419.487 1103.17 419.487C1090.66 419.487 1083.48 427.088 1083.48 437.347C1083.48 447.176 1090.01 453.11 1097.07 453.99L1097.1 445.79C1093 445.023 1090.65 441.803 1090.65 437.478C1090.65 431.656 1094.97 427.706 1103.17 427.706C1111.15 427.706 1115.69 431.6 1115.69 437.534C1115.69 441.971 1113.13 445.172 1108.92 445.79L1108.92 453.99ZM1084 458.221L1084 466.327L1096.43 466.327L1096.43 473.142C1096.43 481.959 1101.69 487.089 1109.35 487.089C1116.97 487.089 1122.34 482.053 1122.34 473.348L1122.34 458.221L1084 458.221ZM1102.93 466.327L1115.71 466.327L1115.71 471.794C1115.71 476.474 1113.17 478.739 1109.35 478.739C1105.55 478.739 1102.93 476.474 1102.93 471.831L1102.93 466.327ZM1122.34 514.454L1098.13 514.454C1093.75 514.454 1090.59 511.384 1090.59 506.667C1090.59 501.968 1093.75 498.879 1098.13 498.879L1122.34 498.879L1122.34 490.773L1097.44 490.773C1089.05 490.773 1083.46 497.1 1083.46 506.667C1083.46 516.195 1089.05 522.561 1097.44 522.561L1122.34 522.561L1122.34 514.454Z" fill="black"/>
<path d="M1023.82 185.851C1024.41 183.611 1023.07 181.319 1020.83 180.731L984.318 171.161C982.078 170.574 979.785 171.914 979.198 174.154C978.611 176.395 979.951 178.687 982.191 179.274L1014.64 187.781L1006.14 220.232C1005.55 222.472 1006.89 224.765 1009.13 225.352C1011.37 225.939 1013.66 224.599 1014.25 222.359L1023.82 185.851ZM421.116 539.62L1021.88 188.408L1017.65 181.168L416.884 532.38L421.116 539.62Z" fill="black"/>
<rect x="152" y="544" width="249" height="187" fill="#8FBE00"/>
<path d="M231.156 657H239.262V644.569H246.077C254.894 644.569 260.024 639.309 260.024 631.652C260.024 624.033 254.988 618.66 246.283 618.66H231.156V657ZM239.262 638.073V625.287H244.729C249.409 625.287 251.674 627.833 251.674 631.652C251.674 635.452 249.409 638.073 244.766 638.073H239.262ZM276.087 657.562C284.811 657.562 290.24 651.59 290.24 642.735C290.24 633.824 284.811 627.87 276.087 627.87C267.363 627.87 261.934 633.824 261.934 642.735C261.934 651.59 267.363 657.562 276.087 657.562ZM276.124 651.384C272.099 651.384 270.04 647.696 270.04 642.679C270.04 637.661 272.099 633.955 276.124 633.955C280.074 633.955 282.133 637.661 282.133 642.679C282.133 647.696 280.074 651.384 276.124 651.384ZM304.44 657.468C309.082 657.468 311.497 654.791 312.602 652.395H312.939V657H320.802V618.66H312.845V633.075H312.602C311.535 630.735 309.232 627.87 304.421 627.87C298.112 627.87 292.777 632.775 292.777 642.66C292.777 652.282 297.887 657.468 304.44 657.468ZM306.967 651.122C303.054 651.122 300.92 647.64 300.92 642.622C300.92 637.643 303.017 634.217 306.967 634.217C310.842 634.217 313.014 637.493 313.014 642.622C313.014 647.752 310.805 651.122 306.967 651.122Z" fill="#242A09"/>
</svg>
