<svg width="1200" height="900" viewBox="0 0 1200 900" fill="none" xmlns="http://www.w3.org/2000/svg">
<rect width="1200" height="900" fill="white"/>
<path d="M77.321 449V376.273H106.014C111.507 376.273 116.194 377.255 120.077 379.22C123.983 381.161 126.954 383.92 128.99 387.494C131.05 391.045 132.08 395.224 132.08 400.03C132.08 404.859 131.038 409.014 128.955 412.494C126.871 415.951 123.853 418.602 119.899 420.449C115.969 422.295 111.211 423.219 105.624 423.219H86.4119V410.861H103.138C106.073 410.861 108.512 410.458 110.453 409.653C112.394 408.848 113.839 407.641 114.786 406.031C115.756 404.421 116.241 402.421 116.241 400.03C116.241 397.615 115.756 395.579 114.786 393.922C113.839 392.265 112.383 391.01 110.418 390.158C108.476 389.282 106.026 388.844 103.067 388.844H92.6974V449H77.321ZM116.597 415.903L134.672 449H117.697L100.013 415.903H116.597ZM164.009 450.065C158.399 450.065 153.569 448.929 149.521 446.656C145.496 444.36 142.395 441.116 140.217 436.926C138.039 432.712 136.95 427.729 136.95 421.976C136.95 416.365 138.039 411.441 140.217 407.203C142.395 402.965 145.461 399.663 149.414 397.295C153.392 394.928 158.055 393.744 163.406 393.744C167.004 393.744 170.354 394.324 173.455 395.484C176.58 396.621 179.303 398.337 181.623 400.634C183.967 402.93 185.79 405.818 187.092 409.298C188.394 412.755 189.045 416.803 189.045 421.443V425.598H142.987V416.223H174.805C174.805 414.045 174.331 412.116 173.384 410.435C172.437 408.754 171.124 407.44 169.443 406.493C167.785 405.522 165.856 405.037 163.654 405.037C161.358 405.037 159.322 405.57 157.546 406.635C155.794 407.677 154.421 409.085 153.427 410.861C152.433 412.613 151.924 414.566 151.9 416.72V425.634C151.9 428.332 152.397 430.664 153.392 432.629C154.409 434.594 155.842 436.109 157.688 437.175C159.535 438.24 161.725 438.773 164.258 438.773C165.939 438.773 167.478 438.536 168.874 438.062C170.271 437.589 171.467 436.879 172.461 435.932C173.455 434.985 174.213 433.825 174.734 432.452L188.725 433.375C188.015 436.737 186.559 439.672 184.357 442.182C182.179 444.668 179.362 446.609 175.906 448.006C172.473 449.379 168.508 450.065 164.009 450.065ZM232.33 469.455V440.264H231.868C231.158 441.779 230.151 443.283 228.849 444.774C227.571 446.242 225.902 447.461 223.842 448.432C221.806 449.402 219.321 449.888 216.385 449.888C212.242 449.888 208.49 448.822 205.128 446.692C201.79 444.537 199.138 441.377 197.173 437.21C195.232 433.02 194.261 427.883 194.261 421.798C194.261 415.548 195.267 410.352 197.28 406.209C199.292 402.042 201.967 398.929 205.305 396.869C208.667 394.786 212.348 393.744 216.349 393.744C219.403 393.744 221.948 394.265 223.984 395.307C226.044 396.325 227.701 397.603 228.956 399.142C230.234 400.657 231.205 402.149 231.868 403.616H232.507V394.455H247.422V469.455H232.33ZM221.179 437.849C223.617 437.849 225.677 437.187 227.358 435.861C229.062 434.511 230.365 432.629 231.264 430.214C232.187 427.8 232.649 424.971 232.649 421.727C232.649 418.484 232.199 415.667 231.3 413.276C230.4 410.884 229.098 409.038 227.393 407.736C225.689 406.434 223.617 405.783 221.179 405.783C218.693 405.783 216.598 406.457 214.893 407.807C213.189 409.156 211.899 411.027 211.023 413.418C210.147 415.809 209.709 418.579 209.709 421.727C209.709 424.9 210.147 427.705 211.023 430.143C211.922 432.558 213.213 434.452 214.893 435.825C216.598 437.175 218.693 437.849 221.179 437.849ZM291.914 425.776V394.455H307.042V449H292.518V439.092H291.949C290.718 442.288 288.67 444.857 285.806 446.798C282.965 448.74 279.497 449.71 275.401 449.71C271.755 449.71 268.547 448.882 265.778 447.224C263.008 445.567 260.841 443.212 259.279 440.158C257.74 437.104 256.959 433.446 256.935 429.185V394.455H272.063V426.486C272.087 429.705 272.951 432.25 274.655 434.121C276.36 435.991 278.644 436.926 281.509 436.926C283.332 436.926 285.036 436.512 286.623 435.683C288.209 434.831 289.487 433.576 290.458 431.919C291.452 430.262 291.938 428.214 291.914 425.776ZM341.369 450.065C335.758 450.065 330.928 448.929 326.88 446.656C322.855 444.36 319.754 441.116 317.576 436.926C315.398 432.712 314.309 427.729 314.309 421.976C314.309 416.365 315.398 411.441 317.576 407.203C319.754 402.965 322.82 399.663 326.773 397.295C330.751 394.928 335.414 393.744 340.765 393.744C344.363 393.744 347.713 394.324 350.815 395.484C353.94 396.621 356.662 398.337 358.982 400.634C361.326 402.93 363.149 405.818 364.451 409.298C365.753 412.755 366.404 416.803 366.404 421.443V425.598H320.346V416.223H352.164C352.164 414.045 351.691 412.116 350.744 410.435C349.797 408.754 348.483 407.44 346.802 406.493C345.145 405.522 343.215 405.037 341.013 405.037C338.717 405.037 336.681 405.57 334.905 406.635C333.154 407.677 331.78 409.085 330.786 410.861C329.792 412.613 329.283 414.566 329.259 416.72V425.634C329.259 428.332 329.756 430.664 330.751 432.629C331.769 434.594 333.201 436.109 335.048 437.175C336.894 438.24 339.084 438.773 341.617 438.773C343.298 438.773 344.837 438.536 346.234 438.062C347.63 437.589 348.826 436.879 349.82 435.932C350.815 434.985 351.572 433.825 352.093 432.452L366.084 433.375C365.374 436.737 363.918 439.672 361.717 442.182C359.539 444.668 356.721 446.609 353.265 448.006C349.832 449.379 345.867 450.065 341.369 450.065ZM419.028 410.009L405.179 410.861C404.942 409.677 404.433 408.612 403.652 407.665C402.871 406.694 401.841 405.925 400.562 405.357C399.308 404.765 397.804 404.469 396.052 404.469C393.709 404.469 391.732 404.966 390.122 405.96C388.512 406.931 387.707 408.233 387.707 409.866C387.707 411.169 388.228 412.269 389.27 413.169C390.311 414.069 392.099 414.791 394.632 415.335L404.504 417.324C409.807 418.413 413.761 420.165 416.365 422.58C418.969 424.994 420.271 428.167 420.271 432.097C420.271 435.671 419.218 438.808 417.111 441.507C415.027 444.206 412.163 446.313 408.517 447.828C404.895 449.32 400.716 450.065 395.981 450.065C388.761 450.065 383.008 448.562 378.723 445.555C374.461 442.525 371.964 438.406 371.23 433.197L386.109 432.416C386.559 434.618 387.648 436.299 389.376 437.459C391.104 438.595 393.318 439.163 396.017 439.163C398.668 439.163 400.799 438.654 402.409 437.636C404.042 436.595 404.871 435.257 404.895 433.624C404.871 432.25 404.291 431.126 403.155 430.25C402.018 429.35 400.266 428.664 397.899 428.19L388.453 426.308C383.126 425.243 379.161 423.396 376.557 420.768C373.976 418.141 372.686 414.791 372.686 410.719C372.686 407.215 373.633 404.196 375.527 401.663C377.444 399.13 380.131 397.177 383.588 395.804C387.068 394.431 391.14 393.744 395.804 393.744C402.693 393.744 408.114 395.2 412.068 398.112C416.045 401.024 418.365 404.99 419.028 410.009ZM456.178 394.455V405.818H423.33V394.455H456.178ZM430.788 381.386H445.915V432.239C445.915 433.635 446.129 434.724 446.555 435.506C446.981 436.263 447.573 436.796 448.33 437.104C449.111 437.411 450.011 437.565 451.029 437.565C451.739 437.565 452.45 437.506 453.16 437.388C453.87 437.246 454.414 437.139 454.793 437.068L457.173 448.325C456.415 448.562 455.35 448.834 453.977 449.142C452.603 449.473 450.934 449.675 448.969 449.746C445.324 449.888 442.128 449.402 439.381 448.29C436.659 447.177 434.54 445.449 433.025 443.105C431.51 440.761 430.764 437.802 430.788 434.227V381.386ZM508.101 410.009L494.252 410.861C494.015 409.677 493.506 408.612 492.725 407.665C491.943 406.694 490.913 405.925 489.635 405.357C488.38 404.765 486.877 404.469 485.125 404.469C482.781 404.469 480.805 404.966 479.195 405.96C477.585 406.931 476.78 408.233 476.78 409.866C476.78 411.169 477.301 412.269 478.342 413.169C479.384 414.069 481.172 414.791 483.705 415.335L493.577 417.324C498.88 418.413 502.833 420.165 505.438 422.58C508.042 424.994 509.344 428.167 509.344 432.097C509.344 435.671 508.29 438.808 506.183 441.507C504.1 444.206 501.235 446.313 497.59 447.828C493.967 449.32 489.789 450.065 485.054 450.065C477.833 450.065 472.081 448.562 467.796 445.555C463.534 442.525 461.037 438.406 460.303 433.197L475.182 432.416C475.632 434.618 476.721 436.299 478.449 437.459C480.177 438.595 482.391 439.163 485.09 439.163C487.741 439.163 489.872 438.654 491.482 437.636C493.115 436.595 493.944 435.257 493.967 433.624C493.944 432.25 493.364 431.126 492.227 430.25C491.091 429.35 489.339 428.664 486.972 428.19L477.526 426.308C472.199 425.243 468.234 423.396 465.629 420.768C463.049 418.141 461.759 414.791 461.759 410.719C461.759 407.215 462.706 404.196 464.6 401.663C466.517 399.13 469.204 397.177 472.661 395.804C476.141 394.431 480.213 393.744 484.877 393.744C491.766 393.744 497.187 395.2 501.141 398.112C505.118 401.024 507.438 404.99 508.101 410.009ZM559.052 450.065C554.033 450.065 549.701 449.166 546.055 447.366C542.409 445.567 539.604 443.129 537.639 440.051C535.698 436.95 534.727 433.493 534.727 429.682C534.727 426.841 535.295 424.32 536.432 422.118C537.568 419.916 539.154 417.892 541.19 416.045C543.226 414.175 545.593 412.317 548.292 410.47L562.39 401.202C564.213 400.042 565.551 398.822 566.403 397.544C567.255 396.242 567.682 394.833 567.682 393.318C567.682 391.874 567.102 390.536 565.942 389.305C564.781 388.074 563.136 387.471 561.005 387.494C559.585 387.494 558.354 387.814 557.312 388.453C556.271 389.069 555.454 389.885 554.862 390.903C554.294 391.898 554.01 393.01 554.01 394.241C554.01 395.757 554.436 397.295 555.288 398.858C556.14 400.42 557.277 402.078 558.697 403.83C560.118 405.558 561.668 407.428 563.349 409.44L597.831 449H582.064L553.299 416.969C551.406 414.814 549.512 412.565 547.618 410.222C545.747 407.854 544.185 405.345 542.93 402.693C541.675 400.018 541.048 397.118 541.048 393.993C541.048 390.465 541.865 387.293 543.498 384.476C545.156 381.659 547.476 379.433 550.459 377.8C553.442 376.143 556.922 375.314 560.899 375.314C564.781 375.314 568.131 376.107 570.949 377.693C573.79 379.256 575.968 381.339 577.483 383.943C579.022 386.524 579.791 389.365 579.791 392.466C579.791 395.899 578.939 399.012 577.234 401.805C575.553 404.575 573.186 407.061 570.132 409.263L555.288 419.952C553.276 421.42 551.784 422.923 550.814 424.462C549.867 425.977 549.393 427.433 549.393 428.83C549.393 430.558 549.819 432.108 550.672 433.482C551.524 434.855 552.731 435.944 554.294 436.749C555.856 437.53 557.691 437.92 559.798 437.92C562.355 437.92 564.876 437.34 567.362 436.18C569.871 434.997 572.144 433.328 574.18 431.173C576.24 428.995 577.885 426.415 579.116 423.432C580.347 420.449 580.963 417.146 580.963 413.524H593.498C593.498 417.975 593.013 421.988 592.042 425.562C591.072 429.114 589.722 432.215 587.994 434.866C586.266 437.494 584.289 439.649 582.064 441.33C581.353 441.779 580.667 442.205 580.004 442.608C579.341 443.01 578.655 443.437 577.944 443.886C575.245 446.064 572.227 447.639 568.889 448.609C565.575 449.58 562.296 450.065 559.052 450.065ZM667.399 410.009L653.549 410.861C653.313 409.677 652.804 408.612 652.022 407.665C651.241 406.694 650.211 405.925 648.933 405.357C647.678 404.765 646.175 404.469 644.423 404.469C642.079 404.469 640.102 404.966 638.493 405.96C636.883 406.931 636.078 408.233 636.078 409.866C636.078 411.169 636.599 412.269 637.64 413.169C638.682 414.069 640.469 414.791 643.003 415.335L652.875 417.324C658.178 418.413 662.131 420.165 664.735 422.58C667.34 424.994 668.642 428.167 668.642 432.097C668.642 435.671 667.588 438.808 665.481 441.507C663.398 444.206 660.533 446.313 656.887 447.828C653.265 449.32 649.087 450.065 644.352 450.065C637.131 450.065 631.378 448.562 627.093 445.555C622.832 442.525 620.334 438.406 619.601 433.197L634.48 432.416C634.93 434.618 636.019 436.299 637.747 437.459C639.475 438.595 641.689 439.163 644.387 439.163C647.039 439.163 649.17 438.654 650.78 437.636C652.413 436.595 653.242 435.257 653.265 433.624C653.242 432.25 652.662 431.126 651.525 430.25C650.389 429.35 648.637 428.664 646.27 428.19L636.824 426.308C631.497 425.243 627.531 423.396 624.927 420.768C622.347 418.141 621.057 414.791 621.057 410.719C621.057 407.215 622.003 404.196 623.897 401.663C625.815 399.13 628.502 397.177 631.959 395.804C635.439 394.431 639.511 393.744 644.174 393.744C651.064 393.744 656.485 395.2 660.439 398.112C664.416 401.024 666.736 404.99 667.399 410.009ZM700.181 450.065C694.594 450.065 689.788 448.882 685.763 446.514C681.762 444.123 678.685 440.809 676.53 436.571C674.4 432.333 673.334 427.456 673.334 421.94C673.334 416.353 674.412 411.453 676.566 407.239C678.744 403.001 681.833 399.698 685.834 397.331C689.835 394.94 694.594 393.744 700.11 393.744C704.869 393.744 709.035 394.608 712.61 396.337C716.185 398.065 719.014 400.491 721.097 403.616C723.181 406.741 724.329 410.411 724.542 414.625H710.266C709.864 411.902 708.798 409.713 707.07 408.055C705.366 406.375 703.128 405.534 700.359 405.534C698.015 405.534 695.967 406.173 694.215 407.452C692.487 408.706 691.137 410.541 690.167 412.956C689.196 415.371 688.711 418.295 688.711 421.727C688.711 425.207 689.184 428.167 690.131 430.605C691.102 433.044 692.463 434.902 694.215 436.18C695.967 437.459 698.015 438.098 700.359 438.098C702.087 438.098 703.637 437.743 705.011 437.033C706.407 436.322 707.556 435.293 708.455 433.943C709.378 432.57 709.982 430.925 710.266 429.007H724.542C724.305 433.174 723.169 436.843 721.133 440.016C719.12 443.164 716.339 445.626 712.788 447.402C709.236 449.178 705.034 450.065 700.181 450.065ZM746.724 417.466V449H731.596V376.273H746.298V404.078H746.937C748.168 400.858 750.157 398.337 752.903 396.514C755.649 394.668 759.094 393.744 763.237 393.744C767.024 393.744 770.327 394.573 773.144 396.23C775.985 397.864 778.187 400.219 779.749 403.297C781.336 406.351 782.117 410.009 782.093 414.27V449H766.965V416.969C766.989 413.607 766.137 410.991 764.408 409.121C762.704 407.25 760.313 406.315 757.235 406.315C755.176 406.315 753.353 406.753 751.766 407.629C750.204 408.505 748.973 409.784 748.073 411.464C747.197 413.122 746.747 415.122 746.724 417.466ZM816.225 450.065C810.614 450.065 805.784 448.929 801.736 446.656C797.711 444.36 794.61 441.116 792.432 436.926C790.254 432.712 789.165 427.729 789.165 421.976C789.165 416.365 790.254 411.441 792.432 407.203C794.61 402.965 797.676 399.663 801.629 397.295C805.607 394.928 810.271 393.744 815.621 393.744C819.219 393.744 822.569 394.324 825.671 395.484C828.796 396.621 831.518 398.337 833.838 400.634C836.182 402.93 838.005 405.818 839.307 409.298C840.609 412.755 841.26 416.803 841.26 421.443V425.598H795.202V416.223H827.02C827.02 414.045 826.547 412.116 825.6 410.435C824.653 408.754 823.339 407.44 821.658 406.493C820.001 405.522 818.071 405.037 815.87 405.037C813.573 405.037 811.537 405.57 809.762 406.635C808.01 407.677 806.637 409.085 805.642 410.861C804.648 412.613 804.139 414.566 804.115 416.72V425.634C804.115 428.332 804.612 430.664 805.607 432.629C806.625 434.594 808.057 436.109 809.904 437.175C811.75 438.24 813.94 438.773 816.473 438.773C818.154 438.773 819.693 438.536 821.09 438.062C822.486 437.589 823.682 436.879 824.676 435.932C825.671 434.985 826.428 433.825 826.949 432.452L840.941 433.375C840.23 436.737 838.774 439.672 836.573 442.182C834.395 444.668 831.577 446.609 828.121 448.006C824.688 449.379 820.723 450.065 816.225 450.065ZM868.6 449.888C864.457 449.888 860.705 448.822 857.343 446.692C854.005 444.537 851.353 441.377 849.389 437.21C847.447 433.02 846.477 427.883 846.477 421.798C846.477 415.548 847.483 410.352 849.495 406.209C851.507 402.042 854.183 398.929 857.521 396.869C860.882 394.786 864.564 393.744 868.565 393.744C871.619 393.744 874.164 394.265 876.2 395.307C878.259 396.325 879.916 397.603 881.171 399.142C882.45 400.657 883.42 402.149 884.083 403.616H884.545V376.273H899.637V449H884.722V440.264H884.083C883.373 441.779 882.367 443.283 881.065 444.774C879.786 446.242 878.117 447.461 876.058 448.432C874.022 449.402 871.536 449.888 868.6 449.888ZM873.394 437.849C875.833 437.849 877.892 437.187 879.573 435.861C881.278 434.511 882.58 432.629 883.479 430.214C884.403 427.8 884.864 424.971 884.864 421.727C884.864 418.484 884.415 415.667 883.515 413.276C882.615 410.884 881.313 409.038 879.609 407.736C877.904 406.434 875.833 405.783 873.394 405.783C870.908 405.783 868.813 406.457 867.109 407.807C865.404 409.156 864.114 411.027 863.238 413.418C862.362 415.809 861.924 418.579 861.924 421.727C861.924 424.9 862.362 427.705 863.238 430.143C864.138 432.558 865.428 434.452 867.109 435.825C868.813 437.175 870.908 437.849 873.394 437.849ZM944.422 425.776V394.455H959.55V449H945.026V439.092H944.458C943.227 442.288 941.179 444.857 938.314 446.798C935.473 448.74 932.005 449.71 927.909 449.71C924.263 449.71 921.056 448.882 918.286 447.224C915.516 445.567 913.35 443.212 911.787 440.158C910.248 437.104 909.467 433.446 909.443 429.185V394.455H924.571V426.486C924.595 429.705 925.459 432.25 927.164 434.121C928.868 435.991 931.153 436.926 934.017 436.926C935.84 436.926 937.545 436.512 939.131 435.683C940.717 434.831 941.995 433.576 942.966 431.919C943.96 430.262 944.446 428.214 944.422 425.776ZM984.147 376.273V449H969.019V376.273H984.147ZM1018.49 450.065C1012.88 450.065 1008.05 448.929 1004 446.656C999.978 444.36 996.877 441.116 994.699 436.926C992.521 432.712 991.432 427.729 991.432 421.976C991.432 416.365 992.521 411.441 994.699 407.203C996.877 402.965 999.943 399.663 1003.9 397.295C1007.87 394.928 1012.54 393.744 1017.89 393.744C1021.49 393.744 1024.84 394.324 1027.94 395.484C1031.06 396.621 1033.78 398.337 1036.1 400.634C1038.45 402.93 1040.27 405.818 1041.57 409.298C1042.88 412.755 1043.53 416.803 1043.53 421.443V425.598H997.469V416.223H1029.29C1029.29 414.045 1028.81 412.116 1027.87 410.435C1026.92 408.754 1025.61 407.44 1023.92 406.493C1022.27 405.522 1020.34 405.037 1018.14 405.037C1015.84 405.037 1013.8 405.57 1012.03 406.635C1010.28 407.677 1008.9 409.085 1007.91 410.861C1006.91 412.613 1006.41 414.566 1006.38 416.72V425.634C1006.38 428.332 1006.88 430.664 1007.87 432.629C1008.89 434.594 1010.32 436.109 1012.17 437.175C1014.02 438.24 1016.21 438.773 1018.74 438.773C1020.42 438.773 1021.96 438.536 1023.36 438.062C1024.75 437.589 1025.95 436.879 1026.94 435.932C1027.94 434.985 1028.69 433.825 1029.22 432.452L1043.21 433.375C1042.5 436.737 1041.04 439.672 1038.84 442.182C1036.66 444.668 1033.84 446.609 1030.39 448.006C1026.95 449.379 1022.99 450.065 1018.49 450.065ZM1050.77 449V394.455H1065.43V403.972H1066C1067 400.586 1068.67 398.029 1071.01 396.301C1073.35 394.549 1076.05 393.673 1079.11 393.673C1079.86 393.673 1080.68 393.721 1081.56 393.815C1082.43 393.91 1083.2 394.04 1083.86 394.206V407.629C1083.15 407.416 1082.17 407.227 1080.92 407.061C1079.66 406.895 1078.51 406.812 1077.47 406.812C1075.25 406.812 1073.26 407.298 1071.51 408.268C1069.78 409.215 1068.4 410.541 1067.39 412.246C1066.39 413.95 1065.9 415.915 1065.9 418.141V449H1050.77Z" fill="black"/>
<rect x="71" y="498" width="1038" height="19" fill="black"/>
</svg>
