<svg width="1200" height="900" viewBox="0 0 1200 900" fill="none" xmlns="http://www.w3.org/2000/svg">
<rect width="1200" height="900" fill="white"/>
<path fill-rule="evenodd" clip-rule="evenodd" d="M449 35.27C449 30.1503 453.15 26 458.27 26H679.73C684.85 26 689 30.1503 689 35.27V565.73C689 570.85 684.85 575 679.73 575H458.27C453.15 575 449 570.85 449 565.73V35.27Z" fill="#EEF8F9"/>
<g clip-path="url(#clip0_1_1510)">
<rect x="459" y="105" width="216.918" height="57.474" rx="2.781" fill="#53777A"/>
<path d="M524.73 143.313H528.412V137.666H531.508C535.514 137.666 537.845 135.276 537.845 131.797C537.845 128.335 535.557 125.894 531.602 125.894H524.73V143.313ZM528.412 134.714V128.905H530.896C533.022 128.905 534.051 130.062 534.051 131.797C534.051 133.523 533.022 134.714 530.913 134.714H528.412ZM539.406 143.313H543.03V135.922C543.03 134.314 544.203 133.209 545.802 133.209C546.304 133.209 546.993 133.294 547.333 133.404V130.189C547.01 130.113 546.559 130.062 546.194 130.062C544.731 130.062 543.531 130.912 543.055 132.528H542.919V130.249H539.406V143.313ZM553.79 143.568C557.022 143.568 559.199 141.995 559.709 139.571L556.358 139.35C555.992 140.345 555.057 140.864 553.849 140.864C552.037 140.864 550.889 139.664 550.889 137.717V137.708H559.786V136.713C559.786 132.273 557.098 130.079 553.645 130.079C549.801 130.079 547.308 132.809 547.308 136.841C547.308 140.983 549.766 143.568 553.79 143.568ZM550.889 135.463C550.966 133.974 552.097 132.783 553.705 132.783C555.278 132.783 556.367 133.906 556.375 135.463H550.889ZM568.413 130.249H565.819V129.373C565.819 128.488 566.176 127.969 567.239 127.969C567.673 127.969 568.115 128.063 568.405 128.157L569.043 125.435C568.592 125.299 567.597 125.078 566.482 125.078C564.024 125.078 562.196 126.464 562.196 129.305V130.249H560.35V132.971H562.196V143.313H565.819V132.971H568.413V130.249ZM569.864 143.313H573.487V130.249H569.864V143.313ZM571.684 128.565C572.764 128.565 573.649 127.74 573.649 126.728C573.649 125.724 572.764 124.899 571.684 124.899C570.612 124.899 569.728 125.724 569.728 126.728C569.728 127.74 570.612 128.565 571.684 128.565ZM579.25 125.894H575.627V143.313H579.25V125.894ZM588.339 130.249H585.881V127.119H582.258V130.249H580.471V132.971H582.258V139.775C582.241 142.335 583.984 143.602 586.612 143.492C587.548 143.458 588.211 143.271 588.577 143.152L588.007 140.455C587.829 140.489 587.446 140.574 587.106 140.574C586.383 140.574 585.881 140.302 585.881 139.299V132.971H588.339V130.249ZM595.75 143.568C598.982 143.568 601.159 141.995 601.67 139.571L598.319 139.35C597.953 140.345 597.017 140.864 595.809 140.864C593.998 140.864 592.85 139.664 592.85 137.717V137.708H601.746V136.713C601.746 132.273 599.059 130.079 595.605 130.079C591.761 130.079 589.269 132.809 589.269 136.841C589.269 140.983 591.727 143.568 595.75 143.568ZM592.85 135.463C592.926 133.974 594.057 132.783 595.665 132.783C597.238 132.783 598.327 133.906 598.336 135.463H592.85ZM603.348 143.313H606.971V135.922C606.971 134.314 608.145 133.209 609.744 133.209C610.246 133.209 610.935 133.294 611.275 133.404V130.189C610.952 130.113 610.501 130.062 610.135 130.062C608.672 130.062 607.473 130.912 606.997 132.528H606.861V130.249H603.348V143.313Z" fill="white"/>
</g>
<g clip-path="url(#clip1_1_1510)">
<rect x="459" y="38" width="216.918" height="57.474" rx="2.781" fill="#53777A"/>
<path d="M547.924 67.6036C547.924 61.905 544.386 58.6559 539.767 58.6559C535.123 58.6559 531.611 61.905 531.611 67.6036C531.611 73.2768 535.123 76.5514 539.767 76.5514C540.856 76.5514 541.885 76.3728 542.821 76.0155L544.224 77.7421H547.66L545.168 74.6121C546.869 73.0897 547.924 70.7081 547.924 67.6036ZM538.491 70.2573L540.72 73.2002C540.422 73.2598 540.099 73.2938 539.767 73.2938C537.088 73.2938 535.344 71.295 535.344 67.6036C535.344 63.9123 537.088 61.9135 539.767 61.9135C542.438 61.9135 544.19 63.9123 544.19 67.6036C544.19 69.5004 543.722 70.9548 542.914 71.9159L541.621 70.2573H538.491ZM558.199 70.7507C558.208 72.5028 557.008 73.4214 555.707 73.4214C554.338 73.4214 553.453 72.4603 553.445 70.9208V63.2489H549.821V71.5672C549.83 74.6206 551.616 76.4833 554.244 76.4833C556.209 76.4833 557.621 75.4712 558.208 73.9402H558.344V76.3132H561.822V63.2489H558.199V70.7507ZM569.912 76.5684C573.144 76.5684 575.321 74.9949 575.832 72.5708L572.48 72.3497C572.115 73.3448 571.179 73.8637 569.971 73.8637C568.16 73.8637 567.011 72.6644 567.011 70.7166V70.7081H575.908V69.713C575.908 65.2731 573.22 63.0787 569.767 63.0787C565.923 63.0787 563.431 65.809 563.431 69.8406C563.431 73.9827 565.889 76.5684 569.912 76.5684ZM567.011 68.4627C567.088 66.9742 568.219 65.7835 569.827 65.7835C571.4 65.7835 572.489 66.9062 572.497 68.4627H567.011ZM585.888 70.7507C585.896 72.5028 584.697 73.4214 583.396 73.4214C582.026 73.4214 581.142 72.4603 581.133 70.9208V63.2489H577.51V71.5672C577.518 74.6206 579.304 76.4833 581.933 76.4833C583.897 76.4833 585.309 75.4712 585.896 73.9402H586.032V76.3132H589.511V63.2489H585.888V70.7507ZM597.6 76.5684C600.832 76.5684 603.01 74.9949 603.52 72.5708L600.169 72.3497C599.803 73.3448 598.868 73.8637 597.66 73.8637C595.848 73.8637 594.7 72.6644 594.7 70.7166V70.7081H603.597V69.713C603.597 65.2731 600.909 63.0787 597.456 63.0787C593.611 63.0787 591.119 65.809 591.119 69.8406C591.119 73.9827 593.577 76.5684 597.6 76.5684ZM594.7 68.4627C594.776 66.9742 595.908 65.7835 597.515 65.7835C599.089 65.7835 600.177 66.9062 600.186 68.4627H594.7Z" fill="white"/>
</g>
<g clip-path="url(#clip2_1_1510)">
<rect x="459" y="172" width="216.918" height="57.474" rx="2.781" fill="#53777A"/>
<path d="M540.707 210.313H544.39V203.118H551.475V200.081H544.39V195.931H552.24V192.894H540.707V210.313ZM553.887 210.313H557.51V197.249H553.887V210.313ZM555.707 195.565C556.787 195.565 557.672 194.74 557.672 193.728C557.672 192.724 556.787 191.899 555.707 191.899C554.635 191.899 553.751 192.724 553.751 193.728C553.751 194.74 554.635 195.565 555.707 195.565ZM563.273 192.894H559.65V210.313H563.273V192.894ZM572.362 197.249H569.904V194.119H566.28V197.249H564.494V199.971H566.28V206.775C566.263 209.335 568.007 210.602 570.635 210.492C571.571 210.458 572.234 210.271 572.6 210.152L572.03 207.455C571.851 207.489 571.469 207.574 571.128 207.574C570.405 207.574 569.904 207.302 569.904 206.299V199.971H572.362V197.249ZM579.773 210.568C583.005 210.568 585.182 208.995 585.692 206.571L582.341 206.35C581.975 207.345 581.04 207.864 579.832 207.864C578.02 207.864 576.872 206.664 576.872 204.717V204.708H585.769V203.713C585.769 199.273 583.081 197.079 579.628 197.079C575.784 197.079 573.291 199.809 573.291 203.841C573.291 207.983 575.749 210.568 579.773 210.568ZM576.872 202.463C576.949 200.974 578.08 199.783 579.688 199.783C581.261 199.783 582.35 200.906 582.358 202.463H576.872ZM587.371 210.313H590.994V202.922C590.994 201.314 592.168 200.209 593.767 200.209C594.269 200.209 594.958 200.294 595.298 200.404V197.189C594.975 197.113 594.524 197.062 594.158 197.062C592.695 197.062 591.496 197.912 591.02 199.528H590.883V197.249H587.371V210.313Z" fill="white"/>
</g>
<g clip-path="url(#clip3_1_1510)">
<rect x="459" y="238" width="216.918" height="57.474" rx="2.781" fill="#53777A"/>
<path d="M518.161 276.313H521.844V270.665H524.94C528.946 270.665 531.277 268.275 531.277 264.797C531.277 261.335 528.989 258.894 525.034 258.894H518.161V276.313ZM521.844 267.714V261.905H524.328C526.454 261.905 527.483 263.062 527.483 264.797C527.483 266.523 526.454 267.714 524.345 267.714H521.844ZM532.838 276.313H536.462V268.922C536.462 267.314 537.635 266.209 539.234 266.209C539.736 266.209 540.425 266.294 540.765 266.404V263.189C540.442 263.113 539.991 263.062 539.626 263.062C538.163 263.062 536.963 263.912 536.487 265.528H536.351V263.249H532.838V276.313ZM547.222 276.568C550.454 276.568 552.631 274.995 553.141 272.571L549.79 272.35C549.424 273.345 548.489 273.864 547.281 273.864C545.469 273.864 544.321 272.664 544.321 270.717V270.708H553.218V269.713C553.218 265.273 550.53 263.079 547.077 263.079C543.232 263.079 540.74 265.809 540.74 269.84C540.74 273.983 543.198 276.568 547.222 276.568ZM544.321 268.463C544.398 266.974 545.529 265.783 547.136 265.783C548.71 265.783 549.799 266.906 549.807 268.463H544.321ZM564.337 263.904H567.867C567.816 260.799 565.264 258.656 561.386 258.656C557.567 258.656 554.769 260.765 554.786 263.929C554.777 266.498 556.589 267.969 559.532 268.675L561.428 269.152C563.325 269.611 564.38 270.155 564.388 271.329C564.38 272.605 563.172 273.472 561.301 273.472C559.387 273.472 558.009 272.588 557.89 270.844H554.326C554.42 274.612 557.116 276.56 561.343 276.56C565.596 276.56 568.097 274.527 568.105 271.337C568.097 268.437 565.911 266.898 562.883 266.217L561.318 265.843C559.804 265.494 558.536 264.933 558.562 263.683C558.562 262.56 559.557 261.735 561.36 261.735C563.121 261.735 564.201 262.534 564.337 263.904ZM575.654 276.568C579.133 276.568 581.319 274.527 581.489 271.525H578.07C577.857 272.919 576.939 273.702 575.697 273.702C574.004 273.702 572.907 272.282 572.907 269.781C572.907 267.314 574.013 265.902 575.697 265.902C577.024 265.902 577.874 266.778 578.07 268.08H581.489C581.336 265.06 579.048 263.079 575.637 263.079C571.674 263.079 569.224 265.826 569.224 269.832C569.224 273.804 571.631 276.568 575.654 276.568ZM588.949 276.568C592.912 276.568 595.379 273.855 595.379 269.832C595.379 265.783 592.912 263.079 588.949 263.079C584.985 263.079 582.519 265.783 582.519 269.832C582.519 273.855 584.985 276.568 588.949 276.568ZM588.966 273.761C587.137 273.761 586.202 272.086 586.202 269.806C586.202 267.527 587.137 265.843 588.966 265.843C590.761 265.843 591.696 267.527 591.696 269.806C591.696 272.086 590.761 273.761 588.966 273.761ZM596.972 276.313H600.596V268.922C600.596 267.314 601.769 266.209 603.368 266.209C603.87 266.209 604.559 266.294 604.899 266.404V263.189C604.576 263.113 604.125 263.062 603.76 263.062C602.297 263.062 601.097 263.912 600.621 265.528H600.485V263.249H596.972V276.313ZM611.356 276.568C614.588 276.568 616.765 274.995 617.275 272.571L613.924 272.35C613.558 273.345 612.623 273.864 611.415 273.864C609.603 273.864 608.455 272.664 608.455 270.717V270.708H617.352V269.713C617.352 265.273 614.664 263.079 611.211 263.079C607.367 263.079 604.874 265.809 604.874 269.84C604.874 273.983 607.332 276.568 611.356 276.568ZM608.455 268.463C608.532 266.974 609.663 265.783 611.271 265.783C612.844 265.783 613.933 266.906 613.941 268.463H608.455Z" fill="white"/>
</g>
<g clip-path="url(#clip4_1_1510)">
<rect x="459" y="305" width="216.918" height="57.474" rx="2.781" fill="#53777A"/>
<path d="M545.974 330.904H549.504C549.453 327.799 546.901 325.656 543.023 325.656C539.204 325.656 536.405 327.765 536.422 330.929C536.414 333.498 538.226 334.969 541.169 335.675L543.065 336.152C544.962 336.611 546.017 337.155 546.025 338.329C546.017 339.605 544.809 340.472 542.938 340.472C541.024 340.472 539.646 339.588 539.527 337.844H535.963C536.057 341.612 538.753 343.56 542.98 343.56C547.233 343.56 549.734 341.527 549.742 338.337C549.734 335.437 547.548 333.898 544.52 333.217L542.955 332.843C541.441 332.494 540.173 331.933 540.199 330.683C540.199 329.56 541.194 328.735 542.997 328.735C544.758 328.735 545.838 329.534 545.974 330.904ZM557.291 343.568C560.77 343.568 562.956 341.527 563.126 338.525H559.707C559.494 339.919 558.576 340.702 557.334 340.702C555.641 340.702 554.544 339.282 554.544 336.781C554.544 334.314 555.65 332.902 557.334 332.902C558.661 332.902 559.511 333.778 559.707 335.08H563.126C562.973 332.06 560.685 330.079 557.274 330.079C553.311 330.079 550.861 332.826 550.861 336.832C550.861 340.804 553.268 343.568 557.291 343.568ZM570.586 343.568C574.549 343.568 577.016 340.855 577.016 336.832C577.016 332.783 574.549 330.079 570.586 330.079C566.622 330.079 564.156 332.783 564.156 336.832C564.156 340.855 566.622 343.568 570.586 343.568ZM570.603 340.761C568.774 340.761 567.839 339.086 567.839 336.806C567.839 334.527 568.774 332.843 570.603 332.843C572.397 332.843 573.333 334.527 573.333 336.806C573.333 339.086 572.397 340.761 570.603 340.761ZM578.609 343.313H582.232V335.922C582.232 334.314 583.406 333.209 585.005 333.209C585.507 333.209 586.196 333.294 586.536 333.404V330.189C586.213 330.113 585.762 330.062 585.397 330.062C583.934 330.062 582.734 330.912 582.258 332.528H582.122V330.249H578.609V343.313ZM592.992 343.568C596.225 343.568 598.402 341.995 598.912 339.571L595.561 339.35C595.195 340.345 594.26 340.864 593.052 340.864C591.24 340.864 590.092 339.664 590.092 337.717V337.708H598.989V336.713C598.989 332.273 596.301 330.079 592.848 330.079C589.003 330.079 586.511 332.809 586.511 336.84C586.511 340.983 588.969 343.568 592.992 343.568ZM590.092 335.463C590.169 333.974 591.3 332.783 592.907 332.783C594.481 332.783 595.57 333.906 595.578 335.463H590.092Z" fill="white"/>
</g>
<path fill-rule="evenodd" clip-rule="evenodd" d="M449 599.27C449 594.15 453.15 590 458.27 590H679.73C684.85 590 689 594.15 689 599.27V863.73C689 868.85 684.85 873 679.73 873H458.27C453.15 873 449 868.85 449 863.73V599.27Z" fill="#F0F0F0"/>
<g clip-path="url(#clip5_1_1510)">
<rect x="459" y="601" width="216.918" height="57.474" rx="2.781" fill="#7A7A7A"/>
<path d="M495.154 639.313H498.743L502.052 627.924H502.188L505.505 639.313H509.095L514.079 621.894H510.056L507.172 634.023H507.019L503.847 621.894H500.402L497.221 633.997H497.076L494.193 621.894H490.17L495.154 639.313ZM517.541 639.56C519.472 639.56 520.722 638.718 521.36 637.501H521.462V639.313H524.898V630.501C524.898 627.388 522.262 626.079 519.353 626.079C516.223 626.079 514.164 627.576 513.663 629.957L517.014 630.229C517.26 629.362 518.034 628.724 519.336 628.724C520.569 628.724 521.275 629.345 521.275 630.416V630.467C521.275 631.309 520.382 631.42 518.111 631.641C515.525 631.879 513.203 632.747 513.203 635.664C513.203 638.25 515.049 639.56 517.541 639.56ZM518.579 637.059C517.464 637.059 516.665 636.54 516.665 635.545C516.665 634.525 517.507 634.023 518.783 633.844C519.574 633.734 520.867 633.546 521.3 633.257V634.644C521.3 636.013 520.169 637.059 518.579 637.059ZM526.947 639.313H530.57V626.249H526.947V639.313ZM528.767 624.565C529.847 624.565 530.731 623.74 530.731 622.727C530.731 621.724 529.847 620.899 528.767 620.899C527.695 620.899 526.81 621.724 526.81 622.727C526.81 623.74 527.695 624.565 528.767 624.565ZM539.659 626.249H537.2V623.119H533.577V626.249H531.791V628.97H533.577V635.775C533.56 638.335 535.304 639.602 537.932 639.492C538.868 639.458 539.531 639.271 539.897 639.152L539.327 636.455C539.148 636.489 538.765 636.574 538.425 636.574C537.702 636.574 537.2 636.302 537.2 635.299V628.97H539.659V626.249ZM557.331 630.604C557.331 624.905 553.793 621.656 549.175 621.656C544.531 621.656 541.018 624.905 541.018 630.604C541.018 636.277 544.531 639.551 549.175 639.551C553.793 639.551 557.331 636.302 557.331 630.604ZM553.597 630.604C553.597 634.295 551.845 636.294 549.175 636.294C546.495 636.294 544.752 634.295 544.752 630.604C544.752 626.912 546.495 624.913 549.175 624.913C551.845 624.913 553.597 626.912 553.597 630.604ZM562.852 631.76C562.86 630.076 563.864 629.09 565.327 629.09C566.781 629.09 567.658 630.042 567.649 631.641V639.313H571.272V630.995C571.272 627.95 569.486 626.079 566.764 626.079C564.825 626.079 563.422 627.031 562.835 628.554H562.682V626.249H559.229V639.313H562.852V631.76ZM573.433 639.313H577.116V633.665H580.212C584.218 633.665 586.549 631.275 586.549 627.797C586.549 624.335 584.261 621.894 580.306 621.894H573.433V639.313ZM577.116 630.714V624.905H579.6C581.726 624.905 582.755 626.062 582.755 627.797C582.755 629.523 581.726 630.714 579.617 630.714H577.116ZM593.853 639.568C597.085 639.568 599.263 637.995 599.773 635.571L596.422 635.35C596.056 636.345 595.121 636.864 593.913 636.864C592.101 636.864 590.953 635.664 590.953 633.717V633.708H599.85V632.713C599.85 628.273 597.162 626.079 593.709 626.079C589.864 626.079 587.372 628.809 587.372 632.84C587.372 636.983 589.83 639.568 593.853 639.568ZM590.953 631.463C591.03 629.974 592.161 628.783 593.768 628.783C595.342 628.783 596.431 629.906 596.439 631.463H590.953ZM601.451 639.313H605.075V631.922C605.075 630.314 606.249 629.209 607.848 629.209C608.349 629.209 609.038 629.294 609.379 629.404V626.189C609.055 626.113 608.605 626.062 608.239 626.062C606.776 626.062 605.577 626.912 605.1 628.528H604.964V626.249H601.451V639.313ZM610.489 639.313H614.112V631.471C614.112 630.025 615.031 629.064 616.239 629.064C617.43 629.064 618.229 629.881 618.229 631.165V639.313H621.742V631.335C621.742 629.983 622.516 629.064 623.834 629.064C624.991 629.064 625.858 629.787 625.858 631.241V639.313H629.473V630.527C629.473 627.695 627.789 626.079 625.357 626.079C623.443 626.079 621.954 627.057 621.419 628.554H621.283C620.866 627.04 619.53 626.079 617.736 626.079C615.975 626.079 614.64 627.014 614.095 628.554H613.942V626.249H610.489V639.313ZM631.573 639.313H635.196V626.249H631.573V639.313ZM633.393 624.565C634.473 624.565 635.357 623.74 635.357 622.727C635.357 621.724 634.473 620.899 633.393 620.899C632.321 620.899 631.436 621.724 631.436 622.727C631.436 623.74 632.321 624.565 633.393 624.565ZM644.285 626.249H641.826V623.119H638.203V626.249H636.417V628.97H638.203V635.775C638.186 638.335 639.93 639.602 642.558 639.492C643.494 639.458 644.157 639.271 644.523 639.152L643.953 636.455C643.774 636.489 643.391 636.574 643.051 636.574C642.328 636.574 641.826 636.302 641.826 635.299V628.97H644.285V626.249Z" fill="white"/>
</g>
<g clip-path="url(#clip6_1_1510)">
<rect x="459" y="668" width="216.918" height="57.474" rx="2.781" fill="#7A7A7A"/>
<path d="M525.51 706.313H529.193V700.665H532.289C536.295 700.665 538.626 698.275 538.626 694.797C538.626 691.335 536.338 688.894 532.383 688.894H525.51V706.313ZM529.193 697.714V691.905H531.677C533.803 691.905 534.832 693.062 534.832 694.797C534.832 696.523 533.803 697.714 531.694 697.714H529.193ZM540.187 706.313H543.811V698.922C543.811 697.314 544.984 696.209 546.583 696.209C547.085 696.209 547.774 696.294 548.114 696.404V693.189C547.791 693.113 547.34 693.062 546.975 693.062C545.512 693.062 544.312 693.912 543.836 695.528H543.7V693.249H540.187V706.313ZM554.571 706.568C557.803 706.568 559.98 704.995 560.49 702.571L557.139 702.35C556.773 703.345 555.838 703.864 554.63 703.864C552.818 703.864 551.67 702.664 551.67 700.717V700.708H560.567V699.713C560.567 695.273 557.879 693.079 554.426 693.079C550.581 693.079 548.089 695.809 548.089 699.84C548.089 703.983 550.547 706.568 554.571 706.568ZM551.67 698.463C551.747 696.974 552.878 695.783 554.485 695.783C556.059 695.783 557.148 696.906 557.156 698.463H551.67ZM562.237 706.313H569.679C573.591 706.313 575.675 704.272 575.675 701.499C575.675 698.922 573.83 697.365 571.848 697.272V697.102C573.659 696.693 574.995 695.409 574.995 693.359C574.995 690.748 573.056 688.894 569.211 688.894H562.237V706.313ZM565.92 703.302V698.675H569.007C570.776 698.675 571.873 699.696 571.873 701.133C571.873 702.443 570.98 703.302 568.922 703.302H565.92ZM565.92 696.183V691.871H568.718C570.351 691.871 571.278 692.713 571.278 693.972C571.278 695.35 570.155 696.183 568.65 696.183H565.92ZM577.241 706.313H580.864V693.249H577.241V706.313ZM579.061 691.565C580.141 691.565 581.026 690.74 581.026 689.727C581.026 688.724 580.141 687.899 579.061 687.899C577.989 687.899 577.105 688.724 577.105 689.727C577.105 690.74 577.989 691.565 579.061 691.565ZM586.627 698.76C586.636 697.076 587.639 696.09 589.102 696.09C590.557 696.09 591.433 697.042 591.424 698.641V706.313H595.048V697.995C595.048 694.95 593.261 693.079 590.54 693.079C588.6 693.079 587.197 694.031 586.61 695.554H586.457V693.249H583.004V706.313H586.627V698.76ZM601.955 706.526C604.064 706.526 605.161 705.309 605.663 704.221H605.816V706.313H609.388V688.894H605.774V695.443H605.663C605.178 694.38 604.132 693.079 601.946 693.079C599.08 693.079 596.656 695.307 596.656 699.798C596.656 704.17 598.978 706.526 601.955 706.526ZM603.103 703.642C601.325 703.642 600.356 702.06 600.356 699.781C600.356 697.518 601.308 695.962 603.103 695.962C604.863 695.962 605.85 697.45 605.85 699.781C605.85 702.111 604.846 703.642 603.103 703.642Z" fill="white"/>
</g>
<g clip-path="url(#clip7_1_1510)">
<rect x="459" y="735" width="216.918" height="57.474" rx="2.781" fill="#7A7A7A"/>
<path d="M543.874 773.313H551.316C555.228 773.313 557.312 771.272 557.312 768.499C557.312 765.922 555.466 764.365 553.485 764.272V764.102C555.296 763.693 556.632 762.409 556.632 760.359C556.632 757.748 554.693 755.894 550.848 755.894H543.874V773.313ZM547.556 770.302V765.675H550.644C552.413 765.675 553.51 766.696 553.51 768.133C553.51 769.443 552.617 770.302 550.559 770.302H547.556ZM547.556 763.183V758.871H550.355C551.988 758.871 552.915 759.713 552.915 760.972C552.915 762.35 551.792 763.183 550.287 763.183H547.556ZM558.878 773.313H562.501V760.249H558.878V773.313ZM560.698 758.565C561.778 758.565 562.663 757.74 562.663 756.727C562.663 755.724 561.778 754.899 560.698 754.899C559.626 754.899 558.742 755.724 558.742 756.727C558.742 757.74 559.626 758.565 560.698 758.565ZM568.264 765.76C568.273 764.076 569.276 763.09 570.739 763.09C572.194 763.09 573.07 764.042 573.061 765.641V773.313H576.685V764.995C576.685 761.95 574.898 760.079 572.177 760.079C570.237 760.079 568.834 761.031 568.247 762.554H568.094V760.249H564.641V773.313H568.264V765.76ZM583.592 773.526C585.701 773.526 586.798 772.309 587.3 771.221H587.453V773.313H591.025V755.894H587.41V762.443H587.3C586.815 761.38 585.769 760.079 583.583 760.079C580.717 760.079 578.293 762.307 578.293 766.798C578.293 771.17 580.615 773.526 583.592 773.526ZM584.74 770.642C582.962 770.642 581.993 769.06 581.993 766.781C581.993 764.518 582.945 762.962 584.74 762.962C586.5 762.962 587.487 764.45 587.487 766.781C587.487 769.111 586.483 770.642 584.74 770.642Z" fill="white"/>
</g>
<g clip-path="url(#clip8_1_1510)">
<rect x="459" y="802" width="216.918" height="57.474" rx="2.781" fill="#7A7A7A"/>
<path d="M518.887 840.313H522.569V834.665H525.665C529.671 834.665 532.002 832.275 532.002 828.797C532.002 825.335 529.714 822.894 525.759 822.894H518.887V840.313ZM522.569 831.714V825.905H525.053C527.179 825.905 528.209 827.062 528.209 828.797C528.209 830.523 527.179 831.714 525.07 831.714H522.569ZM539.256 840.568C543.219 840.568 545.686 837.855 545.686 833.832C545.686 829.783 543.219 827.079 539.256 827.079C535.292 827.079 532.825 829.783 532.825 833.832C532.825 837.855 535.292 840.568 539.256 840.568ZM539.273 837.761C537.444 837.761 536.508 836.086 536.508 833.806C536.508 831.527 537.444 829.843 539.273 829.843C541.067 829.843 542.003 831.527 542.003 833.806C542.003 836.086 541.067 837.761 539.273 837.761ZM558.149 830.974C557.826 828.567 555.886 827.079 552.586 827.079C549.244 827.079 547.041 828.627 547.049 831.144C547.041 833.1 548.274 834.368 550.826 834.878L553.088 835.329C554.228 835.559 554.747 835.975 554.764 836.63C554.747 837.404 553.905 837.957 552.637 837.957C551.345 837.957 550.485 837.404 550.264 836.341L546.701 836.528C547.041 839.029 549.167 840.568 552.629 840.568C556.014 840.568 558.438 838.842 558.447 836.265C558.438 834.376 557.205 833.245 554.67 832.726L552.306 832.25C551.089 831.986 550.639 831.57 550.647 830.94C550.639 830.158 551.523 829.647 552.646 829.647C553.905 829.647 554.653 830.336 554.832 831.178L558.149 830.974ZM566.914 827.249H564.456V824.119H560.833V827.249H559.047V829.97H560.833V836.775C560.816 839.335 562.56 840.602 565.188 840.492C566.123 840.458 566.787 840.271 567.153 840.152L566.583 837.455C566.404 837.489 566.021 837.574 565.681 837.574C564.958 837.574 564.456 837.302 564.456 836.299V829.97H566.914V827.249ZM568.861 840.313H576.303C580.215 840.313 582.299 838.272 582.299 835.499C582.299 832.922 580.454 831.365 578.472 831.272V831.102C580.283 830.693 581.619 829.409 581.619 827.359C581.619 824.748 579.68 822.894 575.835 822.894H568.861V840.313ZM572.543 837.302V832.675H575.631C577.4 832.675 578.497 833.696 578.497 835.133C578.497 836.443 577.604 837.302 575.546 837.302H572.543ZM572.543 830.183V825.871H575.342C576.975 825.871 577.902 826.713 577.902 827.972C577.902 829.35 576.779 830.183 575.274 830.183H572.543ZM583.865 840.313H587.488V827.249H583.865V840.313ZM585.685 825.565C586.765 825.565 587.65 824.74 587.65 823.727C587.65 822.724 586.765 821.899 585.685 821.899C584.613 821.899 583.729 822.724 583.729 823.727C583.729 824.74 584.613 825.565 585.685 825.565ZM593.251 832.76C593.26 831.076 594.263 830.09 595.726 830.09C597.181 830.09 598.057 831.042 598.048 832.641V840.313H601.672V831.995C601.672 828.95 599.885 827.079 597.164 827.079C595.224 827.079 593.821 828.031 593.234 829.554H593.081V827.249H589.628V840.313H593.251V832.76ZM608.579 840.526C610.688 840.526 611.785 839.309 612.287 838.221H612.44V840.313H616.012V822.894H612.397V829.443H612.287C611.802 828.38 610.756 827.079 608.57 827.079C605.704 827.079 603.28 829.307 603.28 833.798C603.28 838.17 605.602 840.526 608.579 840.526ZM609.727 837.642C607.949 837.642 606.98 836.06 606.98 833.781C606.98 831.518 607.932 829.962 609.727 829.962C611.487 829.962 612.474 831.45 612.474 833.781C612.474 836.111 611.47 837.642 609.727 837.642Z" fill="white"/>
</g>
<g clip-path="url(#clip9_1_1510)">
<rect x="459" y="372" width="216.918" height="57.474" rx="2.781" fill="#53777A"/>
<path d="M493.931 392.894H490.265V403.849H490.112L482.593 392.894H479.361V410.313H483.044V399.35H483.171L490.75 410.313H493.931V392.894ZM502.045 410.568C506.009 410.568 508.475 407.855 508.475 403.832C508.475 399.783 506.009 397.079 502.045 397.079C498.082 397.079 495.615 399.783 495.615 403.832C495.615 407.855 498.082 410.568 502.045 410.568ZM502.062 407.761C500.234 407.761 499.298 406.086 499.298 403.806C499.298 401.527 500.234 399.843 502.062 399.843C503.857 399.843 504.793 401.527 504.793 403.806C504.793 406.086 503.857 407.761 502.062 407.761ZM510.069 410.313H513.692V402.922C513.692 401.314 514.866 400.209 516.465 400.209C516.967 400.209 517.656 400.294 517.996 400.404V397.189C517.673 397.113 517.222 397.062 516.856 397.062C515.393 397.062 514.194 397.912 513.718 399.528H513.581V397.249H510.069V410.313ZM519.106 410.313H522.73V402.471C522.73 401.025 523.648 400.064 524.856 400.064C526.047 400.064 526.846 400.881 526.846 402.165V410.313H530.359V402.335C530.359 400.983 531.133 400.064 532.451 400.064C533.608 400.064 534.476 400.787 534.476 402.241V410.313H538.091V401.527C538.091 398.695 536.406 397.079 533.974 397.079C532.06 397.079 530.572 398.057 530.036 399.554H529.9C529.483 398.04 528.148 397.079 526.353 397.079C524.592 397.079 523.257 398.014 522.713 399.554H522.56V397.249H519.106V410.313ZM543.915 410.56C545.846 410.56 547.096 409.718 547.734 408.501H547.836V410.313H551.272V401.501C551.272 398.388 548.636 397.079 545.727 397.079C542.597 397.079 540.539 398.576 540.037 400.957L543.388 401.229C543.635 400.362 544.409 399.724 545.71 399.724C546.943 399.724 547.649 400.345 547.649 401.416V401.467C547.649 402.309 546.756 402.42 544.485 402.641C541.899 402.879 539.577 403.747 539.577 406.664C539.577 409.25 541.423 410.56 543.915 410.56ZM544.953 408.059C543.839 408.059 543.039 407.54 543.039 406.545C543.039 405.525 543.881 405.023 545.157 404.844C545.948 404.734 547.241 404.546 547.675 404.257V405.644C547.675 407.013 546.543 408.059 544.953 408.059ZM556.944 392.894H553.321V410.313H556.944V392.894ZM559.084 410.313H562.707V397.249H559.084V410.313ZM560.904 395.565C561.984 395.565 562.869 394.74 562.869 393.727C562.869 392.724 561.984 391.899 560.904 391.899C559.832 391.899 558.948 392.724 558.948 393.727C558.948 394.74 559.832 395.565 560.904 395.565ZM575.717 400.974C575.394 398.567 573.454 397.079 570.154 397.079C566.812 397.079 564.609 398.627 564.617 401.144C564.609 403.1 565.842 404.368 568.394 404.878L570.656 405.329C571.796 405.559 572.315 405.975 572.332 406.63C572.315 407.404 571.473 407.957 570.205 407.957C568.912 407.957 568.053 407.404 567.832 406.341L564.268 406.528C564.609 409.029 566.735 410.568 570.197 410.568C573.582 410.568 576.006 408.842 576.014 406.265C576.006 404.376 574.773 403.245 572.238 402.726L569.873 402.25C568.657 401.986 568.206 401.57 568.215 400.94C568.206 400.158 569.091 399.647 570.214 399.647C571.473 399.647 572.221 400.336 572.4 401.178L575.717 400.974ZM583.487 410.568C586.719 410.568 588.897 408.995 589.407 406.571L586.056 406.35C585.69 407.345 584.754 407.864 583.547 407.864C581.735 407.864 580.587 406.664 580.587 404.717V404.708H589.483V403.713C589.483 399.273 586.796 397.079 583.342 397.079C579.498 397.079 577.006 399.809 577.006 403.84C577.006 407.983 579.464 410.568 583.487 410.568ZM580.587 402.463C580.663 400.974 581.794 399.783 583.402 399.783C584.976 399.783 586.064 400.906 586.073 402.463H580.587ZM606.736 400.974C606.413 398.567 604.473 397.079 601.173 397.079C597.831 397.079 595.628 398.627 595.636 401.144C595.628 403.1 596.861 404.368 599.413 404.878L601.675 405.329C602.815 405.559 603.334 405.975 603.351 406.63C603.334 407.404 602.492 407.957 601.224 407.957C599.931 407.957 599.072 407.404 598.851 406.341L595.287 406.528C595.628 409.029 597.754 410.568 601.216 410.568C604.601 410.568 607.025 408.842 607.033 406.265C607.025 404.376 605.792 403.245 603.257 402.726L600.892 402.25C599.676 401.986 599.225 401.57 599.234 400.94C599.225 400.158 600.11 399.647 601.233 399.647C602.492 399.647 603.24 400.336 603.419 401.178L606.736 400.974ZM614.455 410.568C617.934 410.568 620.12 408.527 620.29 405.525H616.871C616.658 406.919 615.739 407.702 614.498 407.702C612.805 407.702 611.708 406.282 611.708 403.781C611.708 401.314 612.814 399.902 614.498 399.902C615.824 399.902 616.675 400.778 616.871 402.08H620.29C620.137 399.06 617.849 397.079 614.438 397.079C610.474 397.079 608.025 399.826 608.025 403.832C608.025 407.804 610.432 410.568 614.455 410.568ZM627.75 410.568C631.713 410.568 634.18 407.855 634.18 403.832C634.18 399.783 631.713 397.079 627.75 397.079C623.786 397.079 621.32 399.783 621.32 403.832C621.32 407.855 623.786 410.568 627.75 410.568ZM627.767 407.761C625.938 407.761 625.002 406.086 625.002 403.806C625.002 401.527 625.938 399.843 627.767 399.843C629.561 399.843 630.497 401.527 630.497 403.806C630.497 406.086 629.561 407.761 627.767 407.761ZM635.773 410.313H639.396V402.922C639.396 401.314 640.57 400.209 642.169 400.209C642.671 400.209 643.36 400.294 643.7 400.404V397.189C643.377 397.113 642.926 397.062 642.56 397.062C641.097 397.062 639.898 397.912 639.422 399.528H639.286V397.249H635.773V410.313ZM650.156 410.568C653.388 410.568 655.566 408.995 656.076 406.571L652.725 406.35C652.359 407.345 651.424 407.864 650.216 407.864C648.404 407.864 647.256 406.664 647.256 404.717V404.708H656.153V403.713C656.153 399.273 653.465 397.079 650.012 397.079C646.167 397.079 643.675 399.809 643.675 403.84C643.675 407.983 646.133 410.568 650.156 410.568ZM647.256 402.463C647.333 400.974 648.464 399.783 650.071 399.783C651.645 399.783 652.733 400.906 652.742 402.463H647.256Z" fill="white"/>
</g>
<g clip-path="url(#clip10_1_1510)">
<rect x="459" y="439" width="216.918" height="57.474" rx="2.781" fill="#53777A"/>
<path d="M519.328 468.604C519.328 472.831 520.442 476.343 522.764 479.371H526.226C524.449 477.126 523.096 472.635 523.096 468.604C523.096 464.58 524.449 460.09 526.226 457.844H522.764C520.442 460.872 519.328 464.376 519.328 468.604ZM542.204 459.894H538.538V470.849H538.385L530.866 459.894H527.634V477.313H531.317V466.35H531.445L539.023 477.313H542.204V459.894ZM550.319 477.568C554.283 477.568 556.749 474.855 556.749 470.832C556.749 466.783 554.283 464.079 550.319 464.079C546.356 464.079 543.889 466.783 543.889 470.832C543.889 474.855 546.356 477.568 550.319 477.568ZM550.336 474.761C548.507 474.761 547.572 473.086 547.572 470.806C547.572 468.527 548.507 466.843 550.336 466.843C552.131 466.843 553.066 468.527 553.066 470.806C553.066 473.086 552.131 474.761 550.336 474.761ZM565.291 464.249H562.833V461.119H559.21V464.249H557.424V466.97H559.21V473.775C559.193 476.335 560.937 477.602 563.565 477.492C564.5 477.458 565.164 477.271 565.53 477.152L564.96 474.455C564.781 474.489 564.398 474.574 564.058 474.574C563.335 474.574 562.833 474.302 562.833 473.299V466.97H565.291V464.249ZM566.889 477.313H570.512V464.249H566.889V477.313ZM568.709 462.565C569.789 462.565 570.674 461.74 570.674 460.727C570.674 459.724 569.789 458.899 568.709 458.899C567.637 458.899 566.753 459.724 566.753 460.727C566.753 461.74 567.637 462.565 568.709 462.565ZM579.677 464.249H577.083V463.373C577.083 462.488 577.44 461.969 578.504 461.969C578.937 461.969 579.38 462.063 579.669 462.156L580.307 459.435C579.856 459.299 578.861 459.077 577.747 459.077C575.289 459.077 573.46 460.464 573.46 463.305V464.249H571.614V466.97H573.46V477.313H577.083V466.97H579.677V464.249ZM581.128 477.313H584.751V464.249H581.128V477.313ZM582.948 462.565C584.029 462.565 584.913 461.74 584.913 460.727C584.913 459.724 584.029 458.899 582.948 458.899C581.877 458.899 580.992 459.724 580.992 460.727C580.992 461.74 581.877 462.565 582.948 462.565ZM592.845 477.568C596.077 477.568 598.254 475.995 598.765 473.571L595.414 473.35C595.048 474.345 594.112 474.864 592.905 474.864C591.093 474.864 589.945 473.664 589.945 471.717V471.708H598.841V470.713C598.841 466.273 596.154 464.079 592.7 464.079C588.856 464.079 586.364 466.809 586.364 470.84C586.364 474.983 588.822 477.568 592.845 477.568ZM589.945 469.463C590.021 467.974 591.152 466.783 592.76 466.783C594.333 466.783 595.422 467.906 595.431 469.463H589.945ZM600.443 477.313H604.066V469.922C604.066 468.314 605.24 467.209 606.839 467.209C607.341 467.209 608.03 467.294 608.37 467.404V464.189C608.047 464.113 607.596 464.062 607.23 464.062C605.767 464.062 604.568 464.912 604.092 466.528H603.956V464.249H600.443V477.313ZM615.588 470.33C615.588 466.103 614.473 462.59 612.151 459.562H608.69C610.467 461.808 611.82 466.299 611.82 470.33C611.82 474.353 610.467 478.844 608.69 481.09H612.151C614.473 478.062 615.588 474.557 615.588 470.33Z" fill="#FEFFFF"/>
</g>
<g clip-path="url(#clip11_1_1510)">
<rect x="459" y="506" width="216.918" height="57.474" rx="2.781" fill="#53777A"/>
<path d="M473.389 535.604C473.389 539.831 474.503 543.343 476.825 546.371H480.287C478.509 544.126 477.157 539.635 477.157 535.604C477.157 531.58 478.509 527.09 480.287 524.844H476.825C474.503 527.872 473.389 531.376 473.389 535.604ZM481.695 544.313H489.137C493.05 544.313 495.134 542.272 495.134 539.499C495.134 536.922 493.288 535.365 491.306 535.272V535.102C493.118 534.693 494.453 533.409 494.453 531.359C494.453 528.748 492.514 526.894 488.67 526.894H481.695V544.313ZM485.378 541.302V536.675H488.466C490.235 536.675 491.332 537.696 491.332 539.133C491.332 540.443 490.439 541.302 488.38 541.302H485.378ZM485.378 534.183V529.871H488.176C489.809 529.871 490.736 530.713 490.736 531.972C490.736 533.35 489.614 534.183 488.108 534.183H485.378ZM496.699 544.313H500.323V531.249H496.699V544.313ZM498.52 529.565C499.6 529.565 500.484 528.74 500.484 527.727C500.484 526.724 499.6 525.899 498.52 525.899C497.448 525.899 496.563 526.724 496.563 527.727C496.563 528.74 497.448 529.565 498.52 529.565ZM506.086 536.76C506.094 535.076 507.098 534.09 508.561 534.09C510.015 534.09 510.891 535.042 510.883 536.641V544.313H514.506V535.995C514.506 532.95 512.72 531.079 509.998 531.079C508.059 531.079 506.656 532.031 506.069 533.554H505.916V531.249H502.462V544.313H506.086V536.76ZM521.413 544.526C523.523 544.526 524.62 543.309 525.122 542.221H525.275V544.313H528.847V526.894H525.232V533.443H525.122C524.637 532.38 523.591 531.079 521.405 531.079C518.538 531.079 516.114 533.307 516.114 537.798C516.114 542.17 518.436 544.526 521.413 544.526ZM522.561 541.642C520.784 541.642 519.814 540.06 519.814 537.781C519.814 535.518 520.767 533.962 522.561 533.962C524.322 533.962 525.309 535.45 525.309 537.781C525.309 540.111 524.305 541.642 522.561 541.642ZM531.063 544.313H534.687V531.249H531.063V544.313ZM532.883 529.565C533.964 529.565 534.848 528.74 534.848 527.727C534.848 526.724 533.964 525.899 532.883 525.899C531.812 525.899 530.927 526.724 530.927 527.727C530.927 528.74 531.812 529.565 532.883 529.565ZM540.45 536.76C540.458 535.076 541.462 534.09 542.925 534.09C544.379 534.09 545.255 535.042 545.247 536.641V544.313H548.87V535.995C548.87 532.95 547.084 531.079 544.362 531.079C542.423 531.079 541.019 532.031 540.433 533.554H540.279V531.249H536.826V544.313H540.45V536.76ZM556.849 549.484C560.583 549.484 563.236 547.783 563.236 544.441V531.249H559.638V533.443H559.502C559.018 532.38 557.954 531.079 555.768 531.079C552.902 531.079 550.478 533.307 550.478 537.755C550.478 542.102 552.834 544.126 555.777 544.126C557.861 544.126 559.026 543.08 559.502 542H559.655V544.39C559.655 546.184 558.507 546.882 556.934 546.882C555.335 546.882 554.527 546.184 554.229 545.393L550.878 545.844C551.312 547.902 553.327 549.484 556.849 549.484ZM556.925 541.404C555.148 541.404 554.178 539.992 554.178 537.738C554.178 535.518 555.131 533.962 556.925 533.962C558.686 533.962 559.672 535.45 559.672 537.738C559.672 540.043 558.669 541.404 556.925 541.404ZM570.205 544.313H573.888V538.665H576.984C580.99 538.665 583.321 536.275 583.321 532.797C583.321 529.335 581.033 526.894 577.078 526.894H570.205V544.313ZM573.888 535.714V529.905H576.372C578.498 529.905 579.527 531.062 579.527 532.797C579.527 534.523 578.498 535.714 576.389 535.714H573.888ZM590.575 544.568C594.538 544.568 597.005 541.855 597.005 537.832C597.005 533.783 594.538 531.079 590.575 531.079C586.611 531.079 584.144 533.783 584.144 537.832C584.144 541.855 586.611 544.568 590.575 544.568ZM590.592 541.761C588.763 541.761 587.827 540.086 587.827 537.806C587.827 535.527 588.763 533.843 590.592 533.843C592.386 533.843 593.322 535.527 593.322 537.806C593.322 540.086 592.386 541.761 590.592 541.761ZM602.221 526.894H598.598V544.313H602.221V526.894ZM604.361 544.313H607.984V531.249H604.361V544.313ZM606.181 529.565C607.261 529.565 608.146 528.74 608.146 527.727C608.146 526.724 607.261 525.899 606.181 525.899C605.109 525.899 604.225 526.724 604.225 527.727C604.225 528.74 605.109 529.565 606.181 529.565ZM616.027 544.568C619.505 544.568 621.691 542.527 621.861 539.525H618.442C618.23 540.919 617.311 541.702 616.069 541.702C614.377 541.702 613.279 540.282 613.279 537.781C613.279 535.314 614.385 533.902 616.069 533.902C617.396 533.902 618.247 534.778 618.442 536.08H621.861C621.708 533.06 619.42 531.079 616.01 531.079C612.046 531.079 609.597 533.826 609.597 537.832C609.597 541.804 612.004 544.568 616.027 544.568ZM623.419 544.313H627.042V531.249H623.419V544.313ZM625.239 529.565C626.319 529.565 627.203 528.74 627.203 527.727C627.203 526.724 626.319 525.899 625.239 525.899C624.167 525.899 623.282 526.724 623.282 527.727C623.282 528.74 624.167 529.565 625.239 529.565ZM635.135 544.568C638.367 544.568 640.545 542.995 641.055 540.571L637.704 540.35C637.338 541.345 636.403 541.864 635.195 541.864C633.383 541.864 632.235 540.664 632.235 538.717V538.708H641.132V537.713C641.132 533.273 638.444 531.079 634.991 531.079C631.146 531.079 628.654 533.809 628.654 537.84C628.654 541.983 631.112 544.568 635.135 544.568ZM632.235 536.463C632.312 534.974 633.443 533.783 635.05 533.783C636.624 533.783 637.713 534.906 637.721 536.463H632.235ZM653.603 534.974C653.28 532.567 651.341 531.079 648.041 531.079C644.698 531.079 642.495 532.627 642.504 535.144C642.495 537.1 643.729 538.368 646.28 538.878L648.543 539.329C649.682 539.559 650.201 539.975 650.218 540.63C650.201 541.404 649.359 541.957 648.092 541.957C646.799 541.957 645.94 541.404 645.719 540.341L642.155 540.528C642.495 543.029 644.622 544.568 648.083 544.568C651.469 544.568 653.893 542.842 653.901 540.265C653.893 538.376 652.659 537.245 650.125 536.726L647.76 536.25C646.544 535.986 646.093 535.57 646.102 534.94C646.093 534.158 646.978 533.647 648.1 533.647C649.359 533.647 650.108 534.336 650.286 535.178L653.603 534.974ZM661.527 537.33C661.527 533.103 660.413 529.59 658.091 526.562H654.629C656.407 528.808 657.759 533.299 657.759 537.33C657.759 541.353 656.407 545.844 654.629 548.09H658.091C660.413 545.062 661.527 541.557 661.527 537.33Z" fill="#FEFFFF"/>
</g>
<g clip-path="url(#clip12_1_1510)">
<rect x="459" y="105" width="216.918" height="124.218" rx="2.781" fill="#53777A"/>
<path d="M540.707 176.277H544.39V169.081H551.475V166.045H544.39V161.894H552.24V158.858H540.707V176.277ZM553.887 176.277H557.51V163.213H553.887V176.277ZM555.707 161.529C556.787 161.529 557.672 160.704 557.672 159.691C557.672 158.688 556.787 157.863 555.707 157.863C554.635 157.863 553.751 158.688 553.751 159.691C553.751 160.704 554.635 161.529 555.707 161.529ZM563.273 158.858H559.65V176.277H563.273V158.858ZM572.362 163.213H569.904V160.083H566.28V163.213H564.494V165.934H566.28V172.739C566.263 175.299 568.007 176.566 570.635 176.456C571.571 176.422 572.234 176.235 572.6 176.115L572.03 173.419C571.851 173.453 571.469 173.538 571.128 173.538C570.405 173.538 569.904 173.266 569.904 172.263V165.934H572.362V163.213ZM579.773 176.532C583.005 176.532 585.182 174.959 585.692 172.535L582.341 172.314C581.975 173.309 581.04 173.828 579.832 173.828C578.02 173.828 576.872 172.628 576.872 170.681V170.672H585.769V169.677C585.769 165.237 583.081 163.043 579.628 163.043C575.784 163.043 573.291 165.773 573.291 169.804C573.291 173.947 575.749 176.532 579.773 176.532ZM576.872 168.427C576.949 166.938 578.08 165.747 579.688 165.747C581.261 165.747 582.35 166.87 582.358 168.427H576.872ZM587.371 176.277H590.994V168.886C590.994 167.278 592.168 166.173 593.767 166.173C594.269 166.173 594.958 166.258 595.298 166.368V163.153C594.975 163.077 594.524 163.026 594.158 163.026C592.695 163.026 591.496 163.876 591.02 165.492H590.883V163.213H587.371V176.277Z" fill="white"/>
</g>
<g clip-path="url(#clip13_1_1510)">
<rect x="459" y="238" width="216.918" height="190.962" rx="2.781" fill="#53777A"/>
<path d="M545.974 330.24H549.504C549.453 327.135 546.901 324.992 543.023 324.992C539.204 324.992 536.405 327.101 536.422 330.265C536.414 332.834 538.226 334.305 541.169 335.011L543.065 335.487C544.962 335.947 546.017 336.491 546.025 337.665C546.017 338.941 544.809 339.808 542.938 339.808C541.024 339.808 539.646 338.924 539.527 337.18H535.963C536.057 340.948 538.753 342.896 542.98 342.896C547.233 342.896 549.734 340.863 549.742 337.673C549.734 334.773 547.548 333.234 544.52 332.553L542.955 332.179C541.441 331.83 540.173 331.269 540.199 330.018C540.199 328.896 541.194 328.071 542.997 328.071C544.758 328.071 545.838 328.87 545.974 330.24ZM557.291 342.904C560.77 342.904 562.956 340.863 563.126 337.86H559.707C559.494 339.255 558.576 340.038 557.334 340.038C555.641 340.038 554.544 338.617 554.544 336.117C554.544 333.65 555.65 332.238 557.334 332.238C558.661 332.238 559.511 333.114 559.707 334.416H563.126C562.973 331.396 560.685 329.415 557.274 329.415C553.311 329.415 550.861 332.162 550.861 336.168C550.861 340.14 553.268 342.904 557.291 342.904ZM570.586 342.904C574.549 342.904 577.016 340.191 577.016 336.168C577.016 332.119 574.549 329.415 570.586 329.415C566.622 329.415 564.156 332.119 564.156 336.168C564.156 340.191 566.622 342.904 570.586 342.904ZM570.603 340.097C568.774 340.097 567.839 338.422 567.839 336.142C567.839 333.863 568.774 332.179 570.603 332.179C572.397 332.179 573.333 333.863 573.333 336.142C573.333 338.422 572.397 340.097 570.603 340.097ZM578.609 342.649H582.232V335.258C582.232 333.65 583.406 332.545 585.005 332.545C585.507 332.545 586.196 332.63 586.536 332.74V329.525C586.213 329.449 585.762 329.398 585.397 329.398C583.934 329.398 582.734 330.248 582.258 331.864H582.122V329.585H578.609V342.649ZM592.992 342.904C596.225 342.904 598.402 341.331 598.912 338.907L595.561 338.686C595.195 339.681 594.26 340.199 593.052 340.199C591.24 340.199 590.092 339 590.092 337.052V337.044H598.989V336.049C598.989 331.609 596.301 329.415 592.848 329.415C589.003 329.415 586.511 332.145 586.511 336.176C586.511 340.319 588.969 342.904 592.992 342.904ZM590.092 334.799C590.169 333.31 591.3 332.119 592.907 332.119C594.481 332.119 595.57 333.242 595.578 334.799H590.092Z" fill="white"/>
</g>
<path d="M846.273 329.591H849.802C849.751 326.486 847.2 324.343 843.321 324.343C839.502 324.343 836.704 326.452 836.721 329.616C836.712 332.185 838.524 333.656 841.467 334.362L843.364 334.838C845.26 335.298 846.315 335.842 846.324 337.016C846.315 338.292 845.107 339.159 843.236 339.159C841.322 339.159 839.944 338.275 839.825 336.531H836.262C836.355 340.299 839.051 342.247 843.279 342.247C847.531 342.247 850.032 340.214 850.04 337.024C850.032 334.124 847.846 332.584 844.818 331.904L843.253 331.53C841.739 331.181 840.472 330.62 840.497 329.369C840.497 328.247 841.492 327.422 843.296 327.422C845.056 327.422 846.136 328.221 846.273 329.591ZM857.59 342.255C861.068 342.255 863.254 340.214 863.424 337.211H860.005C859.793 338.606 858.874 339.389 857.632 339.389C855.94 339.389 854.842 337.968 854.842 335.468C854.842 333.001 855.948 331.589 857.632 331.589C858.959 331.589 859.81 332.465 860.005 333.767H863.424C863.271 330.747 860.983 328.766 857.573 328.766C853.609 328.766 851.159 331.513 851.159 335.519C851.159 339.491 853.567 342.255 857.59 342.255ZM868.605 334.447C868.613 332.763 869.642 331.776 871.122 331.776C872.594 331.776 873.461 332.721 873.453 334.328V342H877.076V333.682C877.085 330.62 875.282 328.766 872.56 328.766C870.578 328.766 869.251 329.701 868.656 331.241H868.503V324.581H864.981V342H868.605V334.447ZM885.119 342.255C888.351 342.255 890.528 340.682 891.038 338.258L887.687 338.036C887.322 339.032 886.386 339.55 885.178 339.55C883.367 339.55 882.218 338.351 882.218 336.403V336.395H891.115V335.4C891.115 330.96 888.427 328.766 884.974 328.766C881.13 328.766 878.638 331.496 878.638 335.527C878.638 339.67 881.096 342.255 885.119 342.255ZM882.218 334.149C882.295 332.661 883.426 331.47 885.034 331.47C886.607 331.47 887.696 332.593 887.704 334.149H882.218ZM897.531 342.213C899.64 342.213 900.737 340.996 901.239 339.908H901.392V342H904.965V324.581H901.35V331.13H901.239C900.754 330.067 899.708 328.766 897.522 328.766C894.656 328.766 892.232 330.994 892.232 335.485C892.232 339.857 894.554 342.213 897.531 342.213ZM898.679 339.329C896.901 339.329 895.932 337.747 895.932 335.468C895.932 333.205 896.884 331.649 898.679 331.649C900.44 331.649 901.426 333.137 901.426 335.468C901.426 337.798 900.423 339.329 898.679 339.329ZM915.559 336.437C915.567 338.19 914.368 339.108 913.067 339.108C911.697 339.108 910.813 338.147 910.804 336.608V328.936H907.181V337.254C907.189 340.307 908.976 342.17 911.604 342.17C913.568 342.17 914.98 341.158 915.567 339.627H915.703V342H919.182V328.936H915.559V336.437ZM924.941 324.581H921.318V342H924.941V324.581ZM927.081 342H930.704V328.936H927.081V342ZM928.901 327.252C929.981 327.252 930.865 326.427 930.865 325.414C930.865 324.411 929.981 323.586 928.901 323.586C927.829 323.586 926.944 324.411 926.944 325.414C926.944 326.427 927.829 327.252 928.901 327.252ZM936.467 334.447C936.475 332.763 937.479 331.776 938.942 331.776C940.396 331.776 941.272 332.729 941.264 334.328V342H944.887V333.682C944.887 330.637 943.101 328.766 940.379 328.766C938.44 328.766 937.037 329.718 936.45 331.241H936.297V328.936H932.844V342H936.467V334.447ZM952.866 347.171C956.6 347.171 959.254 345.47 959.254 342.128V328.936H955.656V331.13H955.52C955.035 330.067 953.972 328.766 951.786 328.766C948.919 328.766 946.495 330.994 946.495 335.442C946.495 339.789 948.851 341.813 951.794 341.813C953.878 341.813 955.043 340.767 955.52 339.687H955.673V342.077C955.673 343.871 954.525 344.569 952.951 344.569C951.352 344.569 950.544 343.871 950.246 343.08L946.895 343.531C947.329 345.589 949.345 347.171 952.866 347.171ZM952.943 339.091C951.165 339.091 950.195 337.679 950.195 335.425C950.195 333.205 951.148 331.649 952.943 331.649C954.703 331.649 955.69 333.137 955.69 335.425C955.69 337.73 954.686 339.091 952.943 339.091Z" fill="black"/>
<path d="M857.768 735H865.21C869.123 735 871.206 732.959 871.206 730.186C871.206 727.609 869.361 726.052 867.379 725.959V725.789C869.191 725.38 870.526 724.096 870.526 722.046C870.526 719.435 868.587 717.581 864.742 717.581H857.768V735ZM861.451 731.989V727.362H864.538C866.307 727.362 867.404 728.383 867.404 729.82C867.404 731.13 866.511 731.989 864.453 731.989H861.451ZM861.451 724.87V720.558H864.249C865.882 720.558 866.809 721.4 866.809 722.659C866.809 724.036 865.686 724.87 864.181 724.87H861.451ZM872.772 735H876.395V721.936H872.772V735ZM874.592 720.252C875.672 720.252 876.557 719.427 876.557 718.414C876.557 717.411 875.672 716.586 874.592 716.586C873.52 716.586 872.636 717.411 872.636 718.414C872.636 719.427 873.52 720.252 874.592 720.252ZM882.158 727.447C882.167 725.763 883.17 724.776 884.633 724.776C886.088 724.776 886.964 725.729 886.955 727.328V735H890.579V726.682C890.579 723.637 888.793 721.766 886.071 721.766C884.132 721.766 882.728 722.718 882.141 724.241H881.988V721.936H878.535V735H882.158V727.447ZM897.486 735.213C899.595 735.213 900.692 733.996 901.194 732.908H901.347V735H904.919V717.581H901.305V724.13H901.194C900.709 723.067 899.663 721.766 897.477 721.766C894.611 721.766 892.187 723.994 892.187 728.485C892.187 732.857 894.509 735.213 897.486 735.213ZM898.634 732.329C896.856 732.329 895.887 730.747 895.887 728.468C895.887 726.205 896.839 724.649 898.634 724.649C900.395 724.649 901.381 726.137 901.381 728.468C901.381 730.798 900.378 732.329 898.634 732.329ZM907.136 735H910.759V721.936H907.136V735ZM908.956 720.252C910.036 720.252 910.921 719.427 910.921 718.414C910.921 717.411 910.036 716.586 908.956 716.586C907.884 716.586 907 717.411 907 718.414C907 719.427 907.884 720.252 908.956 720.252ZM916.522 727.447C916.531 725.763 917.534 724.776 918.997 724.776C920.452 724.776 921.328 725.729 921.319 727.328V735H924.943V726.682C924.943 723.637 923.156 721.766 920.435 721.766C918.495 721.766 917.092 722.718 916.505 724.241H916.352V721.936H912.899V735H916.522V727.447ZM932.921 740.171C936.655 740.171 939.309 738.47 939.309 735.128V721.936H935.711V724.13H935.575C935.09 723.067 934.027 721.766 931.841 721.766C928.975 721.766 926.551 723.994 926.551 728.442C926.551 732.789 928.907 734.813 931.85 734.813C933.933 734.813 935.099 733.767 935.575 732.687H935.728V735.077C935.728 736.871 934.58 737.569 933.006 737.569C931.407 737.569 930.599 736.871 930.302 736.08L926.95 736.531C927.384 738.589 929.4 740.171 932.921 740.171ZM932.998 732.091C931.22 732.091 930.25 730.679 930.25 728.425C930.25 726.205 931.203 724.649 932.998 724.649C934.758 724.649 935.745 726.137 935.745 728.425C935.745 730.73 934.741 732.091 932.998 732.091Z" fill="black"/>
<g clip-path="url(#clip14_1_1510)">
<rect x="459" y="601" width="217" height="257" rx="2.781" fill="#7A7A7A"/>
<path d="M526.268 740H533.71C537.623 740 539.706 737.959 539.706 735.186C539.706 732.609 537.861 731.052 535.879 730.959V730.789C537.691 730.38 539.026 729.096 539.026 727.046C539.026 724.435 537.087 722.581 533.242 722.581H526.268V740ZM529.951 736.989V732.362H533.038C534.807 732.362 535.904 733.383 535.904 734.82C535.904 736.13 535.011 736.989 532.953 736.989H529.951ZM529.951 729.87V725.558H532.749C534.382 725.558 535.309 726.4 535.309 727.659C535.309 729.036 534.186 729.87 532.681 729.87H529.951ZM541.272 740H544.895V726.936H541.272V740ZM543.092 725.252C544.172 725.252 545.057 724.427 545.057 723.414C545.057 722.411 544.172 721.586 543.092 721.586C542.02 721.586 541.136 722.411 541.136 723.414C541.136 724.427 542.02 725.252 543.092 725.252ZM550.658 732.447C550.667 730.763 551.67 729.776 553.133 729.776C554.588 729.776 555.464 730.729 555.455 732.328V740H559.079V731.682C559.079 728.637 557.293 726.766 554.571 726.766C552.632 726.766 551.228 727.718 550.641 729.241H550.488V726.936H547.035V740H550.658V732.447ZM565.986 740.213C568.095 740.213 569.192 738.996 569.694 737.908H569.847V740H573.419V722.581H569.805V729.13H569.694C569.209 728.067 568.163 726.766 565.977 726.766C563.111 726.766 560.687 728.994 560.687 733.485C560.687 737.857 563.009 740.213 565.986 740.213ZM567.134 737.329C565.356 737.329 564.387 735.747 564.387 733.468C564.387 731.205 565.339 729.649 567.134 729.649C568.895 729.649 569.881 731.137 569.881 733.468C569.881 735.798 568.878 737.329 567.134 737.329ZM575.636 740H579.259V726.936H575.636V740ZM577.456 725.252C578.536 725.252 579.421 724.427 579.421 723.414C579.421 722.411 578.536 721.586 577.456 721.586C576.384 721.586 575.5 722.411 575.5 723.414C575.5 724.427 576.384 725.252 577.456 725.252ZM585.022 732.447C585.031 730.763 586.034 729.776 587.497 729.776C588.952 729.776 589.828 730.729 589.819 732.328V740H593.443V731.682C593.443 728.637 591.656 726.766 588.935 726.766C586.995 726.766 585.592 727.718 585.005 729.241H584.852V726.936H581.399V740H585.022V732.447ZM601.421 745.171C605.155 745.171 607.809 743.47 607.809 740.128V726.936H604.211V729.13H604.075C603.59 728.067 602.527 726.766 600.341 726.766C597.475 726.766 595.051 728.994 595.051 733.442C595.051 737.789 597.407 739.813 600.35 739.813C602.433 739.813 603.599 738.767 604.075 737.687H604.228V740.077C604.228 741.871 603.08 742.569 601.506 742.569C599.907 742.569 599.099 741.871 598.802 741.08L595.45 741.531C595.884 743.589 597.9 745.171 601.421 745.171ZM601.498 737.091C599.72 737.091 598.75 735.679 598.75 733.425C598.75 731.205 599.703 729.649 601.498 729.649C603.258 729.649 604.245 731.137 604.245 733.425C604.245 735.73 603.241 737.091 601.498 737.091Z" fill="white"/>
</g>
<defs>
<clipPath id="clip0_1_1510">
<rect width="217" height="58" fill="white" transform="translate(459 105)"/>
</clipPath>
<clipPath id="clip1_1_1510">
<rect width="217" height="58" fill="white" transform="translate(459 38)"/>
</clipPath>
<clipPath id="clip2_1_1510">
<rect width="217" height="58" fill="white" transform="translate(459 172)"/>
</clipPath>
<clipPath id="clip3_1_1510">
<rect width="217" height="58" fill="white" transform="translate(459 238)"/>
</clipPath>
<clipPath id="clip4_1_1510">
<rect width="217" height="58" fill="white" transform="translate(459 305)"/>
</clipPath>
<clipPath id="clip5_1_1510">
<rect width="217" height="58" fill="white" transform="translate(459 601)"/>
</clipPath>
<clipPath id="clip6_1_1510">
<rect width="217" height="58" fill="white" transform="translate(459 668)"/>
</clipPath>
<clipPath id="clip7_1_1510">
<rect width="217" height="58" fill="white" transform="translate(459 735)"/>
</clipPath>
<clipPath id="clip8_1_1510">
<rect width="217" height="58" fill="white" transform="translate(459 802)"/>
</clipPath>
<clipPath id="clip9_1_1510">
<rect width="217" height="58" fill="white" transform="translate(459 372)"/>
</clipPath>
<clipPath id="clip10_1_1510">
<rect width="217" height="58" fill="white" transform="translate(459 439)"/>
</clipPath>
<clipPath id="clip11_1_1510">
<rect width="217" height="58" fill="white" transform="translate(459 506)"/>
</clipPath>
<clipPath id="clip12_1_1510">
<rect width="217" height="125" fill="white" transform="translate(459 105)"/>
</clipPath>
<clipPath id="clip13_1_1510">
<rect width="217" height="191" fill="white" transform="translate(459 238)"/>
</clipPath>
<clipPath id="clip14_1_1510">
<rect width="217" height="257" fill="white" transform="translate(459 601)"/>
</clipPath>
</defs>
</svg>
