<svg width="1200" height="900" viewBox="0 0 1200 900" fill="none" xmlns="http://www.w3.org/2000/svg">
<rect width="1200" height="900" fill="white"/>
<rect x="71" y="159" width="1038" height="8" fill="black"/>
<path d="M74.0657 141V105.727H81.5233V121.28H81.9883L94.6816 105.727H103.62L90.5309 121.521L103.775 141H94.8539L85.1918 126.498L81.5233 130.976V141H74.0657ZM121.129 129.736V114.545H128.466V141H121.422V136.195H121.146C120.549 137.745 119.556 138.991 118.166 139.932C116.789 140.874 115.106 141.344 113.12 141.344C111.352 141.344 109.796 140.943 108.453 140.139C107.109 139.335 106.059 138.193 105.301 136.711C104.554 135.23 104.176 133.456 104.164 131.39V114.545H111.501V130.081C111.513 131.642 111.932 132.876 112.758 133.784C113.585 134.691 114.693 135.144 116.082 135.144C116.967 135.144 117.793 134.943 118.563 134.541C119.332 134.128 119.952 133.519 120.423 132.716C120.905 131.912 121.14 130.919 121.129 129.736ZM132.928 141V105.727H140.265V118.989H140.489C140.81 118.277 141.275 117.554 141.884 116.819C142.504 116.073 143.307 115.453 144.295 114.959C145.294 114.454 146.534 114.201 148.015 114.201C149.944 114.201 151.724 114.706 153.354 115.717C154.985 116.716 156.288 118.225 157.264 120.246C158.24 122.256 158.728 124.776 158.728 127.807C158.728 130.758 158.251 133.25 157.298 135.282C156.357 137.303 155.071 138.836 153.44 139.881C151.821 140.914 150.007 141.431 147.998 141.431C146.574 141.431 145.363 141.195 144.364 140.724C143.376 140.254 142.567 139.662 141.935 138.95C141.304 138.227 140.822 137.498 140.489 136.763H140.161V141H132.928ZM140.11 127.773C140.11 129.346 140.328 130.718 140.764 131.889C141.2 133.06 141.832 133.973 142.659 134.627C143.485 135.27 144.49 135.592 145.673 135.592C146.867 135.592 147.877 135.265 148.704 134.61C149.531 133.944 150.156 133.026 150.581 131.855C151.018 130.672 151.236 129.311 151.236 127.773C151.236 126.246 151.023 124.902 150.599 123.743C150.174 122.583 149.548 121.676 148.721 121.021C147.894 120.367 146.878 120.04 145.673 120.04C144.479 120.04 143.468 120.355 142.641 120.987C141.826 121.618 141.2 122.514 140.764 123.674C140.328 124.833 140.11 126.2 140.11 127.773ZM174.135 141.517C171.414 141.517 169.071 140.966 167.108 139.863C165.156 138.75 163.652 137.176 162.596 135.144C161.539 133.1 161.011 130.683 161.011 127.893C161.011 125.172 161.539 122.784 162.596 120.729C163.652 118.673 165.139 117.071 167.056 115.923C168.985 114.775 171.247 114.201 173.842 114.201C175.587 114.201 177.212 114.482 178.716 115.045C180.232 115.596 181.552 116.429 182.678 117.542C183.814 118.656 184.698 120.057 185.33 121.745C185.961 123.421 186.277 125.384 186.277 127.635V129.65H163.939V125.103H179.371C179.371 124.047 179.141 123.111 178.682 122.296C178.223 121.481 177.585 120.843 176.77 120.384C175.966 119.913 175.031 119.678 173.963 119.678C172.849 119.678 171.861 119.936 171 120.453C170.151 120.958 169.485 121.641 169.002 122.502C168.52 123.352 168.273 124.299 168.262 125.344V129.667C168.262 130.976 168.503 132.107 168.985 133.06C169.479 134.013 170.174 134.748 171.069 135.265C171.965 135.781 173.027 136.04 174.255 136.04C175.071 136.04 175.817 135.925 176.494 135.695C177.172 135.466 177.752 135.121 178.234 134.662C178.716 134.203 179.084 133.64 179.336 132.974L186.122 133.422C185.778 135.052 185.072 136.476 184.004 137.693C182.947 138.899 181.581 139.84 179.905 140.518C178.24 141.184 176.317 141.517 174.135 141.517ZM196.858 105.727V141H189.521V105.727H196.858ZM213.246 141.517C210.525 141.517 208.183 140.966 206.219 139.863C204.268 138.75 202.763 137.176 201.707 135.144C200.651 133.1 200.123 130.683 200.123 127.893C200.123 125.172 200.651 122.784 201.707 120.729C202.763 118.673 204.25 117.071 206.168 115.923C208.097 114.775 210.359 114.201 212.954 114.201C214.699 114.201 216.324 114.482 217.828 115.045C219.343 115.596 220.664 116.429 221.789 117.542C222.926 118.656 223.81 120.057 224.441 121.745C225.073 123.421 225.389 125.384 225.389 127.635V129.65H203.05V125.103H218.482C218.482 124.047 218.253 123.111 217.793 122.296C217.334 121.481 216.697 120.843 215.882 120.384C215.078 119.913 214.142 119.678 213.074 119.678C211.96 119.678 210.973 119.936 210.112 120.453C209.262 120.958 208.596 121.641 208.114 122.502C207.632 123.352 207.385 124.299 207.373 125.344V129.667C207.373 130.976 207.615 132.107 208.097 133.06C208.59 134.013 209.285 134.748 210.181 135.265C211.076 135.781 212.138 136.04 213.367 136.04C214.182 136.04 214.929 135.925 215.606 135.695C216.283 135.466 216.863 135.121 217.346 134.662C217.828 134.203 218.195 133.64 218.448 132.974L225.234 133.422C224.889 135.052 224.183 136.476 223.115 137.693C222.059 138.899 220.693 139.84 219.016 140.518C217.351 141.184 215.428 141.517 213.246 141.517ZM242.703 114.545V120.057H226.772V114.545H242.703ZM230.389 108.207H237.726V132.871C237.726 133.548 237.829 134.076 238.036 134.455C238.243 134.823 238.53 135.081 238.897 135.23C239.276 135.38 239.712 135.454 240.206 135.454C240.55 135.454 240.895 135.425 241.239 135.368C241.584 135.299 241.848 135.248 242.032 135.213L243.186 140.673C242.818 140.788 242.301 140.92 241.635 141.069C240.969 141.23 240.16 141.327 239.207 141.362C237.439 141.431 235.889 141.195 234.557 140.656C233.236 140.116 232.209 139.278 231.474 138.141C230.739 137.004 230.377 135.569 230.389 133.835V108.207ZM255.619 141V114.545H262.732V119.161H263.007C263.49 117.519 264.299 116.279 265.436 115.441C266.572 114.591 267.881 114.167 269.363 114.167C269.73 114.167 270.126 114.19 270.551 114.235C270.976 114.281 271.349 114.345 271.67 114.425V120.935C271.326 120.832 270.849 120.74 270.241 120.66C269.632 120.579 269.075 120.539 268.57 120.539C267.491 120.539 266.526 120.774 265.677 121.245C264.839 121.704 264.173 122.347 263.679 123.174C263.197 124.001 262.956 124.954 262.956 126.033V141H255.619ZM284.744 141.517C282.023 141.517 279.68 140.966 277.717 139.863C275.765 138.75 274.261 137.176 273.204 135.144C272.148 133.1 271.62 130.683 271.62 127.893C271.62 125.172 272.148 122.784 273.204 120.729C274.261 118.673 275.748 117.071 277.665 115.923C279.594 114.775 281.856 114.201 284.451 114.201C286.196 114.201 287.821 114.482 289.325 115.045C290.841 115.596 292.161 116.429 293.286 117.542C294.423 118.656 295.307 120.057 295.939 121.745C296.57 123.421 296.886 125.384 296.886 127.635V129.65H274.548V125.103H289.98C289.98 124.047 289.75 123.111 289.291 122.296C288.831 121.481 288.194 120.843 287.379 120.384C286.575 119.913 285.639 119.678 284.572 119.678C283.458 119.678 282.47 119.936 281.609 120.453C280.76 120.958 280.094 121.641 279.611 122.502C279.129 123.352 278.882 124.299 278.871 125.344V129.667C278.871 130.976 279.112 132.107 279.594 133.06C280.088 134.013 280.783 134.748 281.678 135.265C282.574 135.781 283.636 136.04 284.864 136.04C285.68 136.04 286.426 135.925 287.103 135.695C287.781 135.466 288.361 135.121 288.843 134.662C289.325 134.203 289.693 133.64 289.945 132.974L296.731 133.422C296.387 135.052 295.68 136.476 294.613 137.693C293.556 138.899 292.19 139.84 290.514 140.518C288.849 141.184 286.925 141.517 284.744 141.517ZM322.141 122.089L315.424 122.502C315.309 121.928 315.062 121.412 314.683 120.952C314.304 120.482 313.805 120.108 313.185 119.833C312.576 119.546 311.847 119.402 310.997 119.402C309.861 119.402 308.902 119.643 308.121 120.126C307.34 120.596 306.95 121.228 306.95 122.02C306.95 122.652 307.202 123.186 307.708 123.622C308.213 124.058 309.08 124.408 310.308 124.673L315.096 125.637C317.668 126.165 319.586 127.015 320.849 128.186C322.112 129.357 322.743 130.896 322.743 132.802C322.743 134.536 322.232 136.057 321.21 137.366C320.2 138.675 318.811 139.697 317.043 140.432C315.286 141.155 313.259 141.517 310.963 141.517C307.461 141.517 304.671 140.788 302.592 139.329C300.526 137.86 299.314 135.862 298.958 133.336L306.175 132.957C306.393 134.025 306.921 134.84 307.759 135.403C308.597 135.954 309.671 136.229 310.98 136.229C312.266 136.229 313.299 135.982 314.08 135.489C314.872 134.983 315.274 134.335 315.286 133.542C315.274 132.876 314.993 132.331 314.442 131.906C313.891 131.47 313.041 131.137 311.893 130.907L307.312 129.994C304.728 129.478 302.805 128.582 301.542 127.308C300.29 126.033 299.664 124.408 299.664 122.434C299.664 120.734 300.124 119.27 301.042 118.042C301.972 116.813 303.276 115.866 304.952 115.2C306.64 114.534 308.615 114.201 310.877 114.201C314.218 114.201 316.847 114.907 318.765 116.319C320.694 117.732 321.819 119.655 322.141 122.089ZM337.875 141.517C335.154 141.517 332.811 140.966 330.848 139.863C328.896 138.75 327.392 137.176 326.336 135.144C325.279 133.1 324.751 130.683 324.751 127.893C324.751 125.172 325.279 122.784 326.336 120.729C327.392 118.673 328.879 117.071 330.796 115.923C332.725 114.775 334.987 114.201 337.582 114.201C339.327 114.201 340.952 114.482 342.456 115.045C343.972 115.596 345.292 116.429 346.418 117.542C347.554 118.656 348.438 120.057 349.07 121.745C349.701 123.421 350.017 125.384 350.017 127.635V129.65H327.679V125.103H343.111C343.111 124.047 342.881 123.111 342.422 122.296C341.963 121.481 341.325 120.843 340.51 120.384C339.706 119.913 338.771 119.678 337.703 119.678C336.589 119.678 335.601 119.936 334.74 120.453C333.891 120.958 333.225 121.641 332.742 122.502C332.26 123.352 332.013 124.299 332.002 125.344V129.667C332.002 130.976 332.243 132.107 332.725 133.06C333.219 134.013 333.914 134.748 334.809 135.265C335.705 135.781 336.767 136.04 337.995 136.04C338.811 136.04 339.557 135.925 340.234 135.695C340.912 135.466 341.492 135.121 341.974 134.662C342.456 134.203 342.824 133.64 343.076 132.974L349.862 133.422C349.518 135.052 348.812 136.476 347.744 137.693C346.687 138.899 345.321 139.84 343.645 140.518C341.98 141.184 340.057 141.517 337.875 141.517ZM353.261 141V114.545H360.374V119.161H360.649C361.131 117.519 361.941 116.279 363.078 115.441C364.214 114.591 365.523 114.167 367.005 114.167C367.372 114.167 367.768 114.19 368.193 114.235C368.618 114.281 368.991 114.345 369.312 114.425V120.935C368.968 120.832 368.491 120.74 367.883 120.66C367.274 120.579 366.717 120.539 366.212 120.539C365.133 120.539 364.168 120.774 363.319 121.245C362.481 121.704 361.815 122.347 361.321 123.174C360.839 124.001 360.598 124.954 360.598 126.033V141H353.261ZM397.03 114.545L387.781 141H379.514L370.265 114.545H378.016L383.51 133.474H383.785L389.262 114.545H397.03ZM410.443 141.517C407.722 141.517 405.38 140.966 403.416 139.863C401.464 138.75 399.96 137.176 398.904 135.144C397.848 133.1 397.319 130.683 397.319 127.893C397.319 125.172 397.848 122.784 398.904 120.729C399.96 118.673 401.447 117.071 403.365 115.923C405.294 114.775 407.556 114.201 410.151 114.201C411.896 114.201 413.52 114.482 415.025 115.045C416.54 115.596 417.861 116.429 418.986 117.542C420.123 118.656 421.007 120.057 421.638 121.745C422.27 123.421 422.586 125.384 422.586 127.635V129.65H400.247V125.103H415.679C415.679 124.047 415.449 123.111 414.99 122.296C414.531 121.481 413.894 120.843 413.078 120.384C412.275 119.913 411.339 119.678 410.271 119.678C409.157 119.678 408.17 119.936 407.309 120.453C406.459 120.958 405.793 121.641 405.311 122.502C404.829 123.352 404.582 124.299 404.57 125.344V129.667C404.57 130.976 404.811 132.107 405.294 133.06C405.787 134.013 406.482 134.748 407.378 135.265C408.273 135.781 409.335 136.04 410.564 136.04C411.379 136.04 412.125 135.925 412.803 135.695C413.48 135.466 414.06 135.121 414.542 134.662C415.025 134.203 415.392 133.64 415.645 132.974L422.431 133.422C422.086 135.052 421.38 136.476 420.312 137.693C419.256 138.899 417.889 139.84 416.213 140.518C414.548 141.184 412.625 141.517 410.443 141.517ZM435.577 141.431C433.568 141.431 431.748 140.914 430.117 139.881C428.499 138.836 427.213 137.303 426.26 135.282C425.318 133.25 424.847 130.758 424.847 127.807C424.847 124.776 425.335 122.256 426.311 120.246C427.287 118.225 428.585 116.716 430.204 115.717C431.834 114.706 433.619 114.201 435.56 114.201C437.041 114.201 438.275 114.454 439.263 114.959C440.262 115.453 441.066 116.073 441.674 116.819C442.294 117.554 442.765 118.277 443.086 118.989H443.31V105.727H450.63V141H443.396V136.763H443.086C442.742 137.498 442.254 138.227 441.622 138.95C441.002 139.662 440.193 140.254 439.194 140.724C438.207 141.195 437.001 141.431 435.577 141.431ZM437.902 135.592C439.085 135.592 440.084 135.27 440.899 134.627C441.726 133.973 442.357 133.06 442.794 131.889C443.241 130.718 443.465 129.346 443.465 127.773C443.465 126.2 443.247 124.833 442.811 123.674C442.375 122.514 441.743 121.618 440.916 120.987C440.09 120.355 439.085 120.04 437.902 120.04C436.697 120.04 435.681 120.367 434.854 121.021C434.027 121.676 433.401 122.583 432.976 123.743C432.552 124.902 432.339 126.246 432.339 127.773C432.339 129.311 432.552 130.672 432.976 131.855C433.413 133.026 434.039 133.944 434.854 134.61C435.681 135.265 436.697 135.592 437.902 135.592ZM464.798 141V114.545H471.791V119.213H472.101C472.652 117.663 473.571 116.44 474.857 115.544C476.143 114.649 477.681 114.201 479.472 114.201C481.287 114.201 482.831 114.655 484.105 115.562C485.38 116.457 486.23 117.674 486.654 119.213H486.93C487.47 117.697 488.446 116.486 489.858 115.579C491.282 114.66 492.964 114.201 494.904 114.201C497.373 114.201 499.376 114.988 500.915 116.561C502.465 118.122 503.24 120.338 503.24 123.209V141H495.92V124.655C495.92 123.186 495.53 122.083 494.749 121.349C493.968 120.614 492.992 120.246 491.821 120.246C490.489 120.246 489.45 120.671 488.704 121.521C487.958 122.359 487.584 123.467 487.584 124.845V141H480.471V124.5C480.471 123.203 480.098 122.17 479.352 121.4C478.617 120.631 477.647 120.246 476.441 120.246C475.626 120.246 474.891 120.453 474.237 120.866C473.594 121.268 473.083 121.837 472.704 122.571C472.325 123.295 472.135 124.144 472.135 125.12V141H464.798ZM519.547 141.517C516.826 141.517 514.484 140.966 512.52 139.863C510.568 138.75 509.064 137.176 508.008 135.144C506.951 133.1 506.423 130.683 506.423 127.893C506.423 125.172 506.951 122.784 508.008 120.729C509.064 118.673 510.551 117.071 512.469 115.923C514.398 114.775 516.659 114.201 519.254 114.201C521 114.201 522.624 114.482 524.129 115.045C525.644 115.596 526.965 116.429 528.09 117.542C529.227 118.656 530.111 120.057 530.742 121.745C531.374 123.421 531.689 125.384 531.689 127.635V129.65H509.351V125.103H524.783C524.783 124.047 524.553 123.111 524.094 122.296C523.635 121.481 522.998 120.843 522.182 120.384C521.379 119.913 520.443 119.678 519.375 119.678C518.261 119.678 517.274 119.936 516.413 120.453C515.563 120.958 514.897 121.641 514.415 122.502C513.932 123.352 513.686 124.299 513.674 125.344V129.667C513.674 130.976 513.915 132.107 514.398 133.06C514.891 134.013 515.586 134.748 516.481 135.265C517.377 135.781 518.439 136.04 519.668 136.04C520.483 136.04 521.229 135.925 521.907 135.695C522.584 135.466 523.164 135.121 523.646 134.662C524.129 134.203 524.496 133.64 524.749 132.974L531.534 133.422C531.19 135.052 530.484 136.476 529.416 137.693C528.36 138.899 526.993 139.84 525.317 140.518C523.652 141.184 521.729 141.517 519.547 141.517ZM534.933 141V114.545H541.925V119.213H542.235C542.787 117.663 543.705 116.44 544.991 115.544C546.277 114.649 547.816 114.201 549.607 114.201C551.421 114.201 552.965 114.655 554.24 115.562C555.514 116.457 556.364 117.674 556.789 119.213H557.064C557.604 117.697 558.58 116.486 559.992 115.579C561.416 114.66 563.098 114.201 565.039 114.201C567.507 114.201 569.511 114.988 571.049 116.561C572.6 118.122 573.375 120.338 573.375 123.209V141H566.055V124.655C566.055 123.186 565.664 122.083 564.884 121.349C564.103 120.614 563.127 120.246 561.956 120.246C560.624 120.246 559.585 120.671 558.838 121.521C558.092 122.359 557.719 123.467 557.719 124.845V141H550.606V124.5C550.606 123.203 550.233 122.17 549.486 121.4C548.751 120.631 547.781 120.246 546.576 120.246C545.76 120.246 545.026 120.453 544.371 120.866C543.728 121.268 543.217 121.837 542.838 122.571C542.459 123.295 542.27 124.144 542.27 125.12V141H534.933ZM589.578 141.517C586.903 141.517 584.589 140.948 582.637 139.812C580.697 138.663 579.199 137.067 578.142 135.024C577.086 132.968 576.558 130.586 576.558 127.876C576.558 125.143 577.086 122.755 578.142 120.711C579.199 118.656 580.697 117.06 582.637 115.923C584.589 114.775 586.903 114.201 589.578 114.201C592.254 114.201 594.562 114.775 596.502 115.923C598.454 117.06 599.958 118.656 601.014 120.711C602.071 122.755 602.599 125.143 602.599 127.876C602.599 130.586 602.071 132.968 601.014 135.024C599.958 137.067 598.454 138.663 596.502 139.812C594.562 140.948 592.254 141.517 589.578 141.517ZM589.613 135.833C590.83 135.833 591.846 135.489 592.661 134.8C593.476 134.099 594.091 133.146 594.504 131.941C594.929 130.735 595.141 129.363 595.141 127.824C595.141 126.286 594.929 124.914 594.504 123.708C594.091 122.502 593.476 121.549 592.661 120.849C591.846 120.149 590.83 119.798 589.613 119.798C588.384 119.798 587.351 120.149 586.513 120.849C585.686 121.549 585.06 122.502 584.635 123.708C584.222 124.914 584.015 126.286 584.015 127.824C584.015 129.363 584.222 130.735 584.635 131.941C585.06 133.146 585.686 134.099 586.513 134.8C587.351 135.489 588.384 135.833 589.613 135.833ZM605.825 141V114.545H612.938V119.161H613.214C613.696 117.519 614.506 116.279 615.642 115.441C616.779 114.591 618.088 114.167 619.569 114.167C619.937 114.167 620.333 114.19 620.757 114.235C621.182 114.281 621.555 114.345 621.877 114.425V120.935C621.533 120.832 621.056 120.74 620.447 120.66C619.839 120.579 619.282 120.539 618.777 120.539C617.698 120.539 616.733 120.774 615.883 121.245C615.045 121.704 614.379 122.347 613.885 123.174C613.403 124.001 613.162 124.954 613.162 126.033V141H605.825ZM629.461 150.92C628.531 150.92 627.658 150.846 626.843 150.697C626.039 150.559 625.373 150.381 624.845 150.163L626.498 144.686C627.359 144.95 628.134 145.093 628.823 145.116C629.524 145.139 630.127 144.979 630.632 144.634C631.148 144.29 631.568 143.704 631.889 142.877L632.32 141.758L622.83 114.545H630.546L636.023 133.973H636.298L641.827 114.545H649.594L639.312 143.859C638.818 145.283 638.147 146.523 637.297 147.579C636.459 148.647 635.397 149.468 634.111 150.042C632.825 150.628 631.275 150.92 629.461 150.92Z" fill="black"/>
<path d="M162.896 344.214H175.272V325.926H193.56V313.55H175.272V295.262H162.896V313.55H144.608V325.926H162.896V344.214ZM224.237 355H274.709V342.762H244.979V342.278L255.316 332.149C269.87 318.874 273.776 312.237 273.776 304.182C273.776 291.909 263.751 283.232 248.574 283.232C233.709 283.232 223.511 292.117 223.545 306.014H237.754C237.719 299.238 242.006 295.09 248.471 295.09C254.693 295.09 259.326 298.962 259.326 305.184C259.326 310.819 255.869 314.691 249.439 320.879L224.237 344.214V355ZM308.314 355.968C324.078 355.968 334.795 345.701 334.76 331.388C334.795 317.837 325.323 308.088 312.566 308.088C306.344 308.088 300.985 310.681 298.496 314.172H298.081L299.914 296.438H330.854V284.2H287.572L284.219 321.536L297.528 323.921C299.706 320.983 303.924 319.151 308.107 319.151C315.228 319.185 320.345 324.336 320.345 331.769C320.345 339.132 315.332 344.214 308.314 344.214C302.368 344.214 297.563 340.48 297.217 334.984H282.698C282.974 347.222 293.656 355.968 308.314 355.968ZM367.959 355.968C383.723 355.968 394.44 345.701 394.405 331.388C394.44 317.837 384.968 308.088 372.211 308.088C365.988 308.088 360.63 310.681 358.141 314.172H357.726L359.558 296.438H390.499V284.2H347.217L343.863 321.536L357.173 323.921C359.351 320.983 363.569 319.151 367.752 319.151C374.873 319.185 379.989 324.336 379.989 331.769C379.989 339.132 374.977 344.214 367.959 344.214C362.013 344.214 357.208 340.48 356.862 334.984H342.342C342.619 347.222 353.301 355.968 367.959 355.968ZM402.16 284.2V355H416.68V308.745H417.267L435.59 354.654H445.477L463.799 308.918H464.387V355H478.906V284.2H460.446L440.948 331.769H440.118L420.621 284.2H402.16ZM487.862 355H502.589V301.9H487.862V355ZM495.26 295.055C499.651 295.055 503.246 291.702 503.246 287.588C503.246 283.509 499.651 280.155 495.26 280.155C490.904 280.155 487.309 283.509 487.309 287.588C487.309 291.702 490.904 295.055 495.26 295.055ZM511.563 355H541.812C557.714 355 566.184 346.703 566.184 335.433C566.184 324.958 558.682 318.632 550.627 318.252V317.56C557.99 315.901 563.418 310.681 563.418 302.349C563.418 291.736 555.536 284.2 539.91 284.2H511.563V355ZM526.531 342.762V323.956H539.08C546.271 323.956 550.731 328.104 550.731 333.947C550.731 339.271 547.101 342.762 538.735 342.762H526.531ZM526.531 313.827V296.3H537.905C544.543 296.3 548.311 299.722 548.311 304.838C548.311 310.439 543.747 313.827 537.629 313.827H526.531Z" fill="black"/>
<path d="M162.896 460.214H175.272V441.926H193.56V429.55H175.272V411.262H162.896V429.55H144.608V441.926H162.896V460.214ZM255.039 400.2H240.969L223.442 411.297V424.572L239.655 414.408H240.07V471H255.039V400.2ZM299.568 400.2H285.498L267.971 411.297V424.572L284.184 414.408H284.599V471H299.568V400.2ZM313.71 400.2V471H328.229V424.745H328.817L347.139 470.654H357.026L375.348 424.918H375.936V471H390.456V400.2H371.995L352.497 447.769H351.668L332.17 400.2H313.71ZM399.412 471H414.139V417.9H399.412V471ZM406.81 411.055C411.2 411.055 414.795 407.702 414.795 403.588C414.795 399.509 411.2 396.155 406.81 396.155C402.454 396.155 398.859 399.509 398.859 403.588C398.859 407.702 402.454 411.055 406.81 411.055ZM423.112 471H453.361C469.263 471 477.733 462.703 477.733 451.433C477.733 440.958 470.231 434.632 462.176 434.252V433.56C469.54 431.901 474.967 426.681 474.967 418.349C474.967 407.736 467.085 400.2 451.46 400.2H423.112V471ZM438.081 458.762V439.956H450.63C457.821 439.956 462.28 444.104 462.28 449.947C462.28 455.271 458.65 458.762 450.284 458.762H438.081ZM438.081 429.827V412.3H449.455C456.092 412.3 459.86 415.722 459.86 420.838C459.86 426.439 455.297 429.827 449.178 429.827H438.081ZM520.501 440.025H529.801L528.902 426.646L540.103 434.148L544.735 425.989L532.705 420.112L544.735 414.236L540.103 406.077L528.902 413.579L529.801 400.2H520.501L521.366 413.579L510.165 406.077L505.532 414.236L517.597 420.112L505.532 425.989L510.165 434.148L521.366 426.646L520.501 440.025ZM575.084 400.2V471H589.603V424.745H590.191L608.513 470.654H618.401L636.723 424.918H637.31V471H651.83V400.2H633.369L613.872 447.769H613.042L593.544 400.2H575.084ZM673.266 471L678.521 454.856H704.068L709.323 471H725.363L700.957 400.2H681.667L657.225 471H673.266ZM682.323 443.171L691.035 416.379H691.588L700.3 443.171H682.323ZM744.82 400.2H727.846L749.591 435.6L727.431 471H744.578L759.098 446.835H759.651L774.17 471H791.386L769.296 435.6L790.902 400.2H773.998L759.651 424.33H759.098L744.82 400.2ZM837.549 471H791.052V482.166H837.549V471ZM840.567 471H855.536V448.045H868.12C884.403 448.045 893.875 438.331 893.875 424.192C893.875 410.122 884.575 400.2 868.5 400.2H840.567V471ZM855.536 436.049V412.438H865.631C874.274 412.438 878.457 417.139 878.457 424.192C878.457 431.21 874.274 436.049 865.7 436.049H855.536ZM965.559 435.6C965.559 412.438 951.178 399.232 932.406 399.232C913.53 399.232 899.253 412.438 899.253 435.6C899.253 458.658 913.53 471.968 932.406 471.968C951.178 471.968 965.559 458.762 965.559 435.6ZM950.382 435.6C950.382 450.604 943.261 458.728 932.406 458.728C921.516 458.728 914.429 450.604 914.429 435.6C914.429 420.596 921.516 412.472 932.406 412.472C943.261 412.472 950.382 420.596 950.382 435.6ZM998.645 471C1020.22 471 1033.28 457.656 1033.28 435.531C1033.28 413.475 1020.22 400.2 998.852 400.2H973.547V471H998.645ZM988.516 458.174V413.026H998.057C1011.33 413.026 1018.35 419.801 1018.35 435.531C1018.35 451.329 1011.33 458.174 998.023 458.174H988.516ZM1079.68 420.562H1094.03C1093.82 407.944 1083.45 399.232 1067.68 399.232C1052.16 399.232 1040.79 407.805 1040.86 420.666C1040.82 431.106 1048.19 437.087 1060.15 439.956L1067.86 441.892C1075.57 443.759 1079.85 445.971 1079.89 450.742C1079.85 455.927 1074.94 459.454 1067.34 459.454C1059.56 459.454 1053.96 455.858 1053.48 448.771H1038.99C1039.37 464.086 1050.33 472.003 1067.51 472.003C1084.8 472.003 1094.96 463.74 1094.99 450.776C1094.96 438.988 1086.08 432.731 1073.77 429.965L1067.41 428.444C1061.25 427.027 1056.1 424.745 1056.21 419.663C1056.21 415.1 1060.25 411.746 1067.58 411.746C1074.74 411.746 1079.13 414.996 1079.68 420.562Z" fill="black"/>
<path d="M145.196 719.196H192.937V706.924H145.196V719.196ZM145.196 696.242H192.937V683.969H145.196V696.242ZM224.652 737H239.621V711.902H250.545L263.958 737H280.483L265.445 709.482C273.5 706.025 277.959 699.007 277.959 689.328C277.959 675.257 268.66 666.2 252.584 666.2H224.652V737ZM239.621 699.871V678.438H249.715C258.358 678.438 262.541 682.275 262.541 689.328C262.541 696.345 258.358 699.871 249.784 699.871H239.621ZM308.504 738.037C321.641 738.037 330.491 731.642 332.565 721.789L318.945 720.89C317.458 724.935 313.655 727.044 308.746 727.044C301.383 727.044 296.716 722.169 296.716 714.253V714.218H332.876V710.173C332.876 692.128 321.952 683.209 307.917 683.209C292.291 683.209 282.162 694.306 282.162 710.692C282.162 727.528 292.153 738.037 308.504 738.037ZM296.716 705.092C297.027 699.042 301.625 694.202 308.159 694.202C314.554 694.202 318.979 698.765 319.014 705.092H296.716ZM383.567 699.042C382.254 689.258 374.372 683.209 360.958 683.209C347.372 683.209 338.419 689.5 338.453 699.733C338.419 707.684 343.431 712.835 353.802 714.91L362.998 716.742C367.631 717.675 369.739 719.369 369.808 722.031C369.739 725.177 366.317 727.424 361.166 727.424C355.911 727.424 352.42 725.177 351.521 720.856L337.036 721.616C338.419 731.78 347.061 738.037 361.131 738.037C374.89 738.037 384.743 731.019 384.777 720.545C384.743 712.87 379.73 708.272 369.428 706.163L359.818 704.227C354.874 703.156 353.042 701.462 353.076 698.904C353.042 695.723 356.637 693.649 361.2 693.649C366.317 693.649 369.359 696.449 370.085 699.871L383.567 699.042ZM415.15 738.037C428.287 738.037 437.137 731.642 439.211 721.789L425.59 720.89C424.104 724.935 420.301 727.044 415.392 727.044C408.028 727.044 403.361 722.169 403.361 714.253V714.218H439.522V710.173C439.522 692.128 428.598 683.209 414.562 683.209C398.936 683.209 388.807 694.306 388.807 710.692C388.807 727.528 398.798 738.037 415.15 738.037ZM403.361 705.092C403.672 699.042 408.27 694.202 414.804 694.202C421.2 694.202 425.625 698.765 425.659 705.092H403.361ZM446.032 737H460.759V706.958C460.759 700.425 465.53 695.93 472.029 695.93C474.069 695.93 476.869 696.276 478.252 696.726V683.658C476.938 683.347 475.106 683.139 473.619 683.139C467.673 683.139 462.799 686.596 460.863 693.165H460.31V683.9H446.032V737ZM533.886 683.9H518.295L507.302 721.893H506.749L495.721 683.9H480.164L498.728 737H515.322L533.886 683.9ZM560.715 738.037C573.852 738.037 582.702 731.642 584.776 721.789L571.155 720.89C569.669 724.935 565.866 727.044 560.957 727.044C553.594 727.044 548.927 722.169 548.927 714.253V714.218H585.087V710.173C585.087 692.128 574.163 683.209 560.128 683.209C544.502 683.209 534.373 694.306 534.373 710.692C534.373 727.528 544.363 738.037 560.715 738.037ZM548.927 705.092C549.238 699.042 553.836 694.202 560.37 694.202C566.765 694.202 571.19 698.765 571.225 705.092H548.927ZM611.164 737.864C619.738 737.864 624.197 732.921 626.237 728.496H626.859V737H641.379V666.2H626.686V692.819H626.237C624.266 688.498 620.014 683.209 611.13 683.209C599.48 683.209 589.627 692.266 589.627 710.519C589.627 728.288 599.065 737.864 611.164 737.864ZM615.831 726.145C608.606 726.145 604.665 719.715 604.665 710.45C604.665 701.254 608.537 694.928 615.831 694.928C622.987 694.928 626.998 700.978 626.998 710.45C626.998 719.922 622.918 726.145 615.831 726.145ZM669.818 737H684.545V705.126C684.545 699.249 688.278 695.343 693.187 695.343C698.027 695.343 701.277 698.662 701.277 703.882V737H715.554V704.573C715.554 699.076 718.7 695.343 724.058 695.343C728.76 695.343 732.286 698.281 732.286 704.193V737H746.979V701.289C746.979 689.777 740.134 683.209 730.246 683.209C722.468 683.209 716.418 687.184 714.24 693.269H713.687C711.993 687.115 706.566 683.209 699.271 683.209C692.115 683.209 686.688 687.011 684.475 693.269H683.853V683.9H669.818V737ZM779.71 738.037C792.847 738.037 801.697 731.642 803.771 721.789L790.151 720.89C788.664 724.935 784.861 727.044 779.952 727.044C772.589 727.044 767.922 722.169 767.922 714.253V714.218H804.082V710.173C804.082 692.128 793.158 683.209 779.123 683.209C763.497 683.209 753.368 694.306 753.368 710.692C753.368 727.528 763.359 738.037 779.71 738.037ZM767.922 705.092C768.233 699.042 772.831 694.202 779.365 694.202C785.76 694.202 790.185 698.765 790.22 705.092H767.922ZM810.593 737H825.32V705.126C825.32 699.249 829.053 695.343 833.962 695.343C838.802 695.343 842.052 698.662 842.052 703.882V737H856.329V704.573C856.329 699.076 859.475 695.343 864.833 695.343C869.535 695.343 873.061 698.281 873.061 704.193V737H887.754V701.289C887.754 689.777 880.909 683.209 871.021 683.209C863.243 683.209 857.193 687.184 855.015 693.269H854.462C852.768 687.115 847.341 683.209 840.046 683.209C832.89 683.209 827.463 687.011 825.25 693.269H824.628V683.9H810.593V737ZM920.278 738.037C936.388 738.037 946.413 727.009 946.413 710.657C946.413 694.202 936.388 683.209 920.278 683.209C904.168 683.209 894.143 694.202 894.143 710.657C894.143 727.009 904.168 738.037 920.278 738.037ZM920.347 726.629C912.914 726.629 909.112 719.819 909.112 710.554C909.112 701.289 912.914 694.444 920.347 694.444C927.641 694.444 931.444 701.289 931.444 710.554C931.444 719.819 927.641 726.629 920.347 726.629ZM952.889 737H967.616V706.958C967.616 700.425 972.386 695.93 978.886 695.93C980.925 695.93 983.725 696.276 985.108 696.726V683.658C983.795 683.347 981.962 683.139 980.476 683.139C974.53 683.139 969.655 686.596 967.719 693.165H967.166V683.9H952.889V737ZM1000.33 756.913C1011.29 756.913 1017.1 751.312 1020.1 742.739L1040.74 683.969L1025.15 683.9L1014.05 722.895H1013.5L1002.51 683.9H987.021L1006.07 738.521L1005.2 740.768C1003.27 745.746 999.57 745.988 994.384 744.398L991.065 755.391C993.174 756.29 996.597 756.913 1000.33 756.913Z" fill="black"/>
<rect x="136" y="555" width="936" height="28" fill="black"/>
</svg>
