<svg width="1200" height="900" viewBox="0 0 1200 900" fill="none" xmlns="http://www.w3.org/2000/svg">
<path fill-rule="evenodd" clip-rule="evenodd" d="M553 166.6V733C553 740.511 546.906 746.6 539.39 746.6H60.61C53.095 746.6 47 740.511 47 733V166.6C47 159.089 53.094 153 60.61 153H539.39C546.905 153 553 159.089 553 166.6Z" fill="#D2D2D2"/>
<path fill-rule="evenodd" clip-rule="evenodd" d="M133.8 719.4H533.4V729.84H133.8V719.4ZM133.8 702.6H533.4V713.04H133.8V702.6ZM133.8 686.6H533.4V697.04H133.8V686.6ZM66.2002 171.4H533.4V181.8H66.2002V171.4Z" fill="#A3A3A3"/>
<path fill-rule="evenodd" clip-rule="evenodd" d="M71.6599 200.232H528.34C529.055 200.232 529.763 200.372 530.423 200.646C531.084 200.919 531.684 201.32 532.19 201.826C532.695 202.331 533.096 202.931 533.37 203.592C533.644 204.252 533.785 204.96 533.785 205.675V662.303C533.785 663.747 533.211 665.131 532.19 666.152C531.169 667.173 529.785 667.747 528.341 667.747H71.6588C70.215 667.747 68.8303 667.173 67.8094 666.152C66.7884 665.131 66.2148 663.747 66.2148 662.303V205.675C66.2151 204.231 66.7888 202.847 67.8097 201.826C68.8306 200.805 70.2152 200.232 71.6588 200.232H71.6599Z" fill="#EFFFBD"/>
<path d="M91.6749 683.719C91.2165 683.746 90.7683 683.865 90.3569 684.069L72.5109 692.578C72.0513 692.797 71.6471 693.117 71.3285 693.514C71.0099 693.911 70.7851 694.375 70.6709 694.871L66.3009 713.975C66.1966 714.419 66.1854 714.88 66.268 715.328C66.3506 715.776 66.5252 716.203 66.7809 716.58C66.8429 716.673 66.9069 716.762 66.9739 716.849L79.3039 732.177C79.9549 732.977 80.9339 733.437 81.9649 733.433H101.741C102.251 733.43 102.754 733.315 103.215 733.096C103.675 732.876 104.082 732.558 104.405 732.163L116.729 716.831C117.375 716.031 117.617 714.974 117.369 713.971L112.972 694.853C112.857 694.357 112.632 693.894 112.313 693.497C111.995 693.1 111.591 692.78 111.132 692.56L93.3129 684.07C92.7994 683.817 92.2308 683.697 91.6588 683.72L91.6749 683.719Z" fill="#4A4A4A"/>
<path d="M91.838 690.229C91.224 690.272 90.758 690.799 90.79 691.414V691.714C90.818 692.056 90.87 692.394 90.937 692.728C91.035 693.368 91.071 694.018 91.043 694.666C90.9814 694.88 90.86 695.071 90.693 695.218L90.67 695.67C90.021 695.724 89.377 695.823 88.743 695.967C86.0741 696.568 83.6461 697.954 81.771 699.946L81.387 699.674C81.2824 699.706 81.1727 699.716 81.0641 699.705C80.9555 699.694 80.8501 699.662 80.754 699.61C80.2343 699.225 79.7534 698.791 79.318 698.313C79.0991 698.051 78.8654 697.803 78.618 697.568L78.381 697.38C78.1701 697.211 77.911 697.113 77.641 697.1C77.4796 697.091 77.3185 697.121 77.1708 697.187C77.023 697.252 76.8929 697.352 76.791 697.477C76.6173 697.72 76.5473 698.023 76.5962 698.318C76.6451 698.613 76.809 698.877 77.052 699.051L77.273 699.227C77.558 699.417 77.853 699.589 78.157 699.744C78.7279 700.06 79.2636 700.435 79.755 700.864C79.882 701.046 79.956 701.259 79.968 701.48L80.318 701.8C78.4335 704.628 77.659 708.052 78.143 711.416L77.694 711.544C77.5779 711.73 77.4218 711.887 77.237 712.004C76.6115 712.172 75.9711 712.278 75.325 712.321C74.982 712.328 74.6398 712.355 74.3 712.401L74.016 712.465H73.986C73.7894 712.492 73.6043 712.574 73.4512 712.7C73.2981 712.826 73.1831 712.993 73.1188 713.18C73.0546 713.368 73.0437 713.57 73.0873 713.764C73.1309 713.957 73.2274 714.135 73.366 714.277C73.651 714.565 74.076 714.667 74.461 714.541H74.481L74.771 714.509C75.0966 714.411 75.4162 714.295 75.728 714.159C76.3289 713.918 76.9518 713.736 77.588 713.616C77.809 713.629 78.021 713.704 78.2 713.832L78.68 713.752C79.7204 716.981 81.9084 719.717 84.83 721.442L84.634 721.85C84.724 722.038 84.757 722.246 84.73 722.452C84.4652 723.065 84.1417 723.651 83.764 724.201C83.5568 724.474 83.3654 724.759 83.191 725.054L83.055 725.342C82.9563 725.513 82.9068 725.708 82.9121 725.906C82.9173 726.104 82.977 726.296 83.0845 726.462C83.1921 726.627 83.3434 726.76 83.5217 726.846C83.7 726.931 83.8984 726.965 84.095 726.945C84.498 726.9 84.84 726.632 84.981 726.253L85.114 725.981C85.236 725.661 85.338 725.334 85.422 725.005C85.705 724.305 85.859 723.554 86.246 723.09C86.3725 722.971 86.5321 722.892 86.704 722.865L86.944 722.428C90.1102 723.645 93.6138 723.654 96.786 722.452L96.999 722.861C97.2165 722.894 97.4121 723.012 97.543 723.189C97.844 723.762 98.088 724.362 98.273 724.982C98.358 725.314 98.463 725.641 98.584 725.96L98.717 726.233C98.787 726.418 98.9067 726.58 99.063 726.701C99.2193 726.822 99.4061 726.898 99.6027 726.92C99.7992 726.942 99.998 726.908 100.177 726.824C100.356 726.74 100.508 726.608 100.617 726.443C100.837 726.103 100.847 725.669 100.643 725.32L100.503 725.032C100.329 724.738 100.138 724.454 99.931 724.182C99.563 723.646 99.2418 723.08 98.971 722.489C98.9452 722.381 98.9414 722.268 98.96 722.158C98.9785 722.048 99.019 721.943 99.079 721.849C99.0106 721.71 98.9511 721.566 98.901 721.419C101.816 719.681 103.994 716.935 105.023 713.701L105.477 713.781C105.64 713.633 105.855 713.553 106.075 713.56C106.71 713.682 107.333 713.88 107.935 714.104C108.248 714.248 108.568 714.37 108.893 714.473C108.97 714.493 109.083 714.511 109.168 714.532H109.189C109.378 714.593 109.58 714.601 109.773 714.553C109.966 714.506 110.142 714.407 110.282 714.265C110.422 714.124 110.519 713.947 110.564 713.753C110.609 713.56 110.599 713.357 110.536 713.169C110.471 712.981 110.356 712.815 110.202 712.689C110.048 712.563 109.863 712.482 109.666 712.455L109.356 712.382C109.015 712.336 108.673 712.309 108.329 712.302C107.683 712.26 107.042 712.154 106.417 711.986C106.224 711.878 106.065 711.718 105.957 711.525L105.524 711.397C105.985 708.035 105.195 704.62 103.304 701.802L103.682 701.452C103.667 701.232 103.739 701.015 103.882 700.847C104.373 700.426 104.903 700.052 105.466 699.733C105.771 699.578 106.066 699.405 106.35 699.216L106.584 699.026C106.713 698.946 106.824 698.84 106.909 698.714C106.994 698.589 107.052 698.447 107.078 698.297C107.104 698.147 107.098 697.994 107.06 697.847C107.023 697.7 106.954 697.563 106.86 697.444C106.765 697.325 106.646 697.228 106.511 697.159C106.376 697.089 106.228 697.049 106.077 697.041C105.925 697.033 105.774 697.058 105.632 697.113C105.491 697.168 105.362 697.252 105.256 697.36L105.019 697.55C104.772 697.784 104.538 698.033 104.319 698.294C103.897 698.777 103.429 699.218 102.922 699.611C102.717 699.694 102.493 699.719 102.275 699.681L101.87 699.971C99.531 697.519 96.3816 696 93.007 695.695C93.007 695.535 92.987 695.295 92.983 695.22C92.801 695.095 92.6753 694.904 92.633 694.688C92.611 694.042 92.6518 693.395 92.755 692.757C92.825 692.42 92.872 692.084 92.903 691.743V691.423C92.9186 691.127 92.8173 690.837 92.6208 690.615C92.4243 690.394 92.1485 690.258 91.853 690.238L91.839 690.23L91.838 690.229ZM90.503 698.499L90.183 704.093H90.159C90.1492 704.262 90.0948 704.426 90.0014 704.568C89.908 704.71 89.7788 704.824 89.627 704.9C89.475 704.977 89.3043 705.01 89.1344 704.995C88.9646 704.98 88.8025 704.916 88.667 704.813L84.079 701.563C85.5395 700.129 87.3717 699.131 89.369 698.683C89.7427 698.603 90.1201 698.542 90.5 698.5H90.503V698.499ZM93.173 698.499C95.583 698.799 97.827 699.882 99.563 701.579L95.019 704.809C94.8814 704.919 94.7157 704.989 94.5406 705.009C94.3655 705.03 94.1882 705.001 94.0289 704.925C93.8695 704.85 93.7346 704.731 93.6395 704.583C93.5444 704.434 93.4929 704.262 93.491 704.086L93.174 698.5L93.173 698.499ZM82.413 703.667L86.609 707.41V707.434C86.7367 707.546 86.8317 707.691 86.884 707.852C86.9363 708.014 86.9439 708.187 86.906 708.352C86.868 708.518 86.786 708.67 86.6686 708.793C86.5512 708.916 86.4027 709.005 86.239 709.05V709.066L80.855 710.614C80.5884 708.188 81.1372 705.743 82.415 703.664L82.413 703.667ZM101.233 703.667C102.508 705.74 103.071 708.172 102.838 710.595L97.446 709.042V709.021C97.2816 708.977 97.1324 708.889 97.0147 708.766C96.8969 708.643 96.8151 708.49 96.778 708.324C96.7405 708.158 96.7484 707.985 96.8008 707.823C96.8533 707.661 96.9483 707.516 97.076 707.404L101.239 703.68L101.233 703.667ZM90.979 707.702H92.695L93.745 709.034L93.363 710.699L91.821 711.439L90.276 710.699L89.912 709.034L90.979 707.702V707.702ZM96.477 712.246C96.5487 712.238 96.6212 712.238 96.693 712.246L102.245 713.182C101.433 715.492 99.8684 717.462 97.802 718.775L95.656 713.581C95.5971 713.442 95.5726 713.29 95.5844 713.139C95.5962 712.989 95.6441 712.843 95.724 712.714C95.8038 712.586 95.9133 712.479 96.0433 712.401C96.1733 712.324 96.32 712.279 96.471 712.27L96.477 712.246ZM87.153 712.27C87.3074 712.273 87.4588 712.313 87.594 712.388C87.7291 712.463 87.8438 712.569 87.928 712.699C88.0119 712.828 88.0627 712.976 88.0758 713.13C88.0889 713.283 88.0639 713.437 88.003 713.579V713.599L85.871 718.752C83.8296 717.443 82.2771 715.498 81.454 713.217L86.958 712.284C87.0198 712.278 87.0821 712.278 87.144 712.284L87.154 712.27H87.153ZM91.803 714.51C92.16 714.5 92.493 714.69 92.663 715.004H92.683L95.396 719.899L94.312 720.219C92.3163 720.676 90.2331 720.568 88.295 719.909L91.017 715.014C91.0983 714.873 91.2146 714.755 91.3548 714.672C91.495 714.589 91.6542 714.544 91.817 714.541L91.803 714.511V714.51Z" fill="white" stroke="white" stroke-width="0.5"/>
<path d="M66 225H534V663C534 664.326 533.473 665.598 532.536 666.536C531.598 667.473 530.326 668 529 668H71C69.6739 668 68.4021 667.473 67.4645 666.536C66.5268 665.598 66 664.326 66 663V225Z" fill="#EFFFBD"/>
<path fill-rule="evenodd" clip-rule="evenodd" d="M89 303H131V345H89V303ZM152 303H194V345H152V303ZM215 303H257V345H215V303ZM279 303H321V345H279V303ZM342 303H384V345H342V303ZM89 240H131V282H89V240ZM152 240H194V282H152V240ZM215 240H257V282H215V240ZM279 240H321V282H279V240ZM342 240H384V282H342V240ZM406 303H448V345H406V303ZM406 240H448V282H406V240ZM469 303H511V345H469V303ZM469 240H511V282H469V240ZM89 366H131V408H89V366ZM152 366H194V408H152V366ZM215 366H257V408H215V366Z" fill="#8FBE00"/>
<path d="M384.034 427H391.415V415.682H397.619C405.648 415.682 410.318 410.892 410.318 403.92C410.318 396.983 405.733 392.091 397.807 392.091H384.034V427ZM391.415 409.767V398.125H396.392C400.653 398.125 402.716 400.443 402.716 403.92C402.716 407.381 400.653 409.767 396.426 409.767H391.415ZM424.944 427.511C432.887 427.511 437.83 422.074 437.83 414.011C437.83 405.898 432.887 400.477 424.944 400.477C417 400.477 412.057 405.898 412.057 414.011C412.057 422.074 417 427.511 424.944 427.511ZM424.978 421.886C421.313 421.886 419.438 418.528 419.438 413.96C419.438 409.392 421.313 406.017 424.978 406.017C428.574 406.017 430.449 409.392 430.449 413.96C430.449 418.528 428.574 421.886 424.978 421.886ZM450.759 427.426C454.986 427.426 457.185 424.989 458.191 422.807H458.498V427H465.657V392.091H458.413V405.216H458.191C457.219 403.085 455.123 400.477 450.742 400.477C444.998 400.477 440.14 404.943 440.14 413.943C440.14 422.705 444.793 427.426 450.759 427.426ZM453.06 421.648C449.498 421.648 447.555 418.477 447.555 413.909C447.555 409.375 449.464 406.256 453.06 406.256C456.589 406.256 458.566 409.239 458.566 413.909C458.566 418.58 456.555 421.648 453.06 421.648ZM491.971 408.284C491.323 403.46 487.437 400.477 480.823 400.477C474.125 400.477 469.71 403.58 469.727 408.625C469.71 412.545 472.181 415.085 477.295 416.108L481.829 417.011C484.113 417.472 485.153 418.307 485.187 419.619C485.153 421.17 483.466 422.278 480.926 422.278C478.335 422.278 476.613 421.17 476.17 419.04L469.028 419.415C469.71 424.426 473.971 427.511 480.909 427.511C487.693 427.511 492.551 424.051 492.568 418.886C492.551 415.102 490.079 412.835 485 411.795L480.261 410.841C477.823 410.312 476.92 409.477 476.937 408.216C476.92 406.648 478.693 405.625 480.943 405.625C483.466 405.625 484.966 407.006 485.323 408.693L491.971 408.284Z" fill="black"/>
</svg>
