<svg width="1200" height="900" viewBox="0 0 1200 900" fill="none" xmlns="http://www.w3.org/2000/svg">
<rect width="1200" height="900" fill="white"/>
<path d="M138.152 376.273H122.847V422.011H122.207L90.8153 376.273H77.321V449H92.6974V403.226H93.2301L124.871 449H138.152V376.273ZM172.585 450.065C189.134 450.065 199.432 438.737 199.432 421.94C199.432 405.037 189.134 393.744 172.585 393.744C156.037 393.744 145.739 405.037 145.739 421.94C145.739 438.737 156.037 450.065 172.585 450.065ZM172.656 438.347C165.021 438.347 161.115 431.351 161.115 421.834C161.115 412.317 165.021 405.286 172.656 405.286C180.149 405.286 184.056 412.317 184.056 421.834C184.056 431.351 180.149 438.347 172.656 438.347ZM226.736 449.888C235.543 449.888 240.124 444.81 242.219 440.264H242.859V449H257.773V376.273H242.681V403.616H242.219C240.195 399.178 235.827 393.744 226.701 393.744C214.734 393.744 204.613 403.048 204.613 421.798C204.613 440.051 214.308 449.888 226.736 449.888ZM231.531 437.849C224.109 437.849 220.06 431.244 220.06 421.727C220.06 412.281 224.038 405.783 231.531 405.783C238.881 405.783 243.001 411.997 243.001 421.727C243.001 431.457 238.81 437.849 231.531 437.849ZM292.438 450.065C305.932 450.065 315.023 443.496 317.154 433.375L303.162 432.452C301.635 436.607 297.729 438.773 292.686 438.773C285.122 438.773 280.328 433.766 280.328 425.634V425.598H317.473V421.443C317.473 402.906 306.252 393.744 291.834 393.744C275.783 393.744 265.378 405.143 265.378 421.976C265.378 439.27 275.641 450.065 292.438 450.065ZM280.328 416.223C280.648 410.009 285.371 405.037 292.083 405.037C298.652 405.037 303.198 409.724 303.233 416.223H280.328ZM345.227 449H360.355V394.455H345.227V449ZM352.826 387.423C357.336 387.423 361.029 383.979 361.029 379.753C361.029 375.562 357.336 372.118 352.826 372.118C348.352 372.118 344.659 375.562 344.659 379.753C344.659 383.979 348.352 387.423 352.826 387.423ZM384.969 417.466C385.005 410.435 389.195 406.315 395.303 406.315C401.375 406.315 405.033 410.293 404.997 416.969V449H420.125V414.27C420.125 401.557 412.668 393.744 401.304 393.744C393.208 393.744 387.348 397.722 384.898 404.078H384.259V394.455H369.841V449H384.969V417.466ZM474.8 410.009C473.451 399.959 465.354 393.744 451.576 393.744C437.62 393.744 428.422 400.207 428.458 410.719C428.422 418.886 433.571 424.178 444.225 426.308L453.671 428.19C458.429 429.149 460.596 430.889 460.667 433.624C460.596 436.855 457.08 439.163 451.789 439.163C446.391 439.163 442.804 436.855 441.881 432.416L427.002 433.197C428.422 443.638 437.3 450.065 451.753 450.065C465.887 450.065 476.008 442.857 476.043 432.097C476.008 424.213 470.858 419.49 460.276 417.324L450.404 415.335C445.326 414.234 443.444 412.494 443.479 409.866C443.444 406.599 447.137 404.469 451.824 404.469C457.08 404.469 460.205 407.345 460.951 410.861L474.8 410.009ZM511.95 394.455H501.687V381.386H486.56V394.455H479.102V405.818H486.56V434.227C486.489 444.916 493.768 450.207 504.741 449.746C508.648 449.604 511.418 448.822 512.945 448.325L510.565 437.068C509.82 437.21 508.222 437.565 506.801 437.565C503.783 437.565 501.687 436.429 501.687 432.239V405.818H511.95V394.455ZM534.727 450.03C542.788 450.03 548.008 446.514 550.672 441.436H551.098V449H565.444V412.21C565.444 399.213 554.436 393.744 542.291 393.744C529.223 393.744 520.629 399.994 518.534 409.938L532.525 411.074C533.555 407.452 536.787 404.788 542.22 404.788C547.369 404.788 550.317 407.381 550.317 411.855V412.068C550.317 415.584 546.588 416.045 537.106 416.969C526.311 417.963 516.616 421.585 516.616 433.766C516.616 444.561 524.322 450.03 534.727 450.03ZM539.059 439.589C534.407 439.589 531.069 437.423 531.069 433.268C531.069 429.007 534.585 426.912 539.912 426.166C543.214 425.705 548.612 424.923 550.423 423.716V429.504C550.423 435.222 545.7 439.589 539.059 439.589ZM589.677 417.466C589.713 410.435 593.903 406.315 600.011 406.315C606.083 406.315 609.741 410.293 609.706 416.969V449H624.833V414.27C624.833 401.557 617.376 393.744 606.012 393.744C597.916 393.744 592.056 397.722 589.606 404.078H588.967V394.455H574.549V449H589.677V417.466ZM658.77 450.065C673.294 450.065 682.42 441.543 683.13 429.007H668.855C667.967 434.831 664.132 438.098 658.947 438.098C651.88 438.098 647.299 432.168 647.299 421.727C647.299 411.429 651.916 405.534 658.947 405.534C664.487 405.534 668.038 409.192 668.855 414.625H683.13C682.491 402.018 672.939 393.744 658.699 393.744C642.15 393.744 631.923 405.214 631.923 421.94C631.923 438.524 641.973 450.065 658.77 450.065ZM715.043 450.065C728.537 450.065 737.628 443.496 739.758 433.375L725.767 432.452C724.24 436.607 720.334 438.773 715.291 438.773C707.727 438.773 702.933 433.766 702.933 425.634V425.598H740.078V421.443C740.078 402.906 728.856 393.744 714.439 393.744C698.388 393.744 687.983 405.143 687.983 421.976C687.983 439.27 698.246 450.065 715.043 450.065ZM702.933 416.223C703.253 410.009 707.976 405.037 714.687 405.037C721.257 405.037 725.802 409.724 725.838 416.223H702.933ZM792.702 410.009C791.353 399.959 783.256 393.744 769.478 393.744C755.522 393.744 746.324 400.207 746.36 410.719C746.324 418.886 751.473 424.178 762.127 426.308L771.573 428.19C776.331 429.149 778.498 430.889 778.569 433.624C778.498 436.855 774.982 439.163 769.691 439.163C764.293 439.163 760.706 436.855 759.783 432.416L744.904 433.197C746.324 443.638 755.202 450.065 769.655 450.065C783.789 450.065 793.91 442.857 793.945 432.097C793.91 424.213 788.76 419.49 778.178 417.324L768.306 415.335C763.228 414.234 761.346 412.494 761.381 409.866C761.346 406.599 765.039 404.469 769.726 404.469C774.982 404.469 778.107 407.345 778.853 410.861L792.702 410.009Z" fill="black"/>
<rect x="71" y="498" width="1038" height="19" fill="black"/>
</svg>
