<svg width="1200" height="900" viewBox="0 0 1200 900" fill="none" xmlns="http://www.w3.org/2000/svg">
<path fill-rule="evenodd" clip-rule="evenodd" d="M400.86 793.977V836.507C400.86 836.638 400.854 836.769 400.841 836.9C400.828 837.031 400.808 837.16 400.783 837.289C400.757 837.418 400.726 837.545 400.688 837.671C400.65 837.797 400.605 837.92 400.555 838.042C400.504 838.163 400.448 838.282 400.387 838.398C400.325 838.513 400.257 838.626 400.184 838.735C400.111 838.844 400.033 838.95 399.949 839.051C399.866 839.153 399.779 839.25 399.686 839.343C399.593 839.436 399.495 839.524 399.394 839.607C399.292 839.691 399.187 839.769 399.078 839.842C398.968 839.915 398.855 839.982 398.74 840.044C398.624 840.106 398.505 840.162 398.384 840.213C398.263 840.263 398.139 840.307 398.014 840.345C397.888 840.383 397.76 840.415 397.631 840.441C397.503 840.466 397.373 840.486 397.242 840.498C397.111 840.511 396.98 840.518 396.849 840.518H42.784C42.6526 840.518 42.5216 840.511 42.3908 840.498C42.2601 840.486 42.1303 840.466 42.0015 840.441C41.8726 840.415 41.7454 840.383 41.6196 840.345C41.4939 840.307 41.3704 840.263 41.249 840.213C41.1277 840.162 41.0091 840.106 40.8932 840.044C40.7773 839.982 40.6648 839.915 40.5556 839.842C40.4464 839.769 40.341 839.691 40.2394 839.607C40.1379 839.524 40.0406 839.436 39.9478 839.343C39.8549 839.25 39.7668 839.153 39.6834 839.051C39.6001 838.95 39.5219 838.844 39.4489 838.735C39.3759 838.626 39.3085 838.513 39.2466 838.398C39.1846 838.282 39.1285 838.163 39.0783 838.042C39.028 837.92 38.9838 837.797 38.9457 837.671C38.9075 837.545 38.8756 837.418 38.85 837.289C38.8244 837.16 38.8051 837.031 38.7923 836.9C38.7794 836.769 38.7729 836.638 38.7729 836.507V793.977C38.7729 793.846 38.7794 793.715 38.7923 793.584C38.8051 793.453 38.8244 793.323 38.85 793.195C38.8756 793.066 38.9075 792.938 38.9457 792.813C38.9838 792.687 39.028 792.564 39.0783 792.442C39.1285 792.321 39.1846 792.202 39.2466 792.086C39.3085 791.97 39.3759 791.858 39.4489 791.749C39.5219 791.639 39.6001 791.534 39.6834 791.433C39.7668 791.331 39.8549 791.234 39.9478 791.141C40.0406 791.048 40.1379 790.96 40.2394 790.877C40.341 790.793 40.4464 790.715 40.5556 790.642C40.6648 790.569 40.7773 790.502 40.8932 790.44C41.0091 790.378 41.1277 790.322 41.249 790.271C41.3704 790.221 41.4939 790.177 41.6196 790.139C41.7454 790.101 41.8726 790.069 42.0015 790.043C42.1303 790.018 42.2601 789.998 42.3908 789.985C42.5216 789.973 42.6526 789.966 42.784 789.966H396.849C396.98 789.966 397.111 789.973 397.242 789.985C397.373 789.998 397.503 790.018 397.631 790.043C397.76 790.069 397.888 790.101 398.014 790.139C398.139 790.177 398.263 790.221 398.384 790.271C398.505 790.322 398.624 790.378 398.74 790.44C398.855 790.502 398.968 790.569 399.078 790.642C399.187 790.715 399.292 790.793 399.394 790.877C399.495 790.96 399.593 791.048 399.686 791.141C399.779 791.234 399.866 791.331 399.949 791.433C400.033 791.534 400.111 791.639 400.184 791.749C400.257 791.858 400.325 791.97 400.387 792.086C400.448 792.202 400.504 792.321 400.555 792.442C400.605 792.564 400.65 792.687 400.688 792.813C400.726 792.938 400.757 793.066 400.783 793.195C400.808 793.323 400.828 793.453 400.841 793.584C400.854 793.715 400.86 793.846 400.86 793.977Z" fill="#7C7C7C"/>
<path fill-rule="evenodd" clip-rule="evenodd" d="M90.1387 800.919H329.285V807.659H90.1387V800.919Z" fill="#D8D8D8"/>
<path fill-rule="evenodd" clip-rule="evenodd" d="M49.7197 800.919H64.8768V807.659H49.7197V800.919Z" fill="#D7D7D7"/>
<path fill-rule="evenodd" clip-rule="evenodd" d="M362.967 800.919H369.704V807.659H362.967V800.919Z" fill="#D7D400"/>
<path fill-rule="evenodd" clip-rule="evenodd" d="M352.862 800.919H359.599V807.659H352.862V800.919Z" fill="#FF3C00"/>
<path fill-rule="evenodd" clip-rule="evenodd" d="M374.756 800.919H389.913V807.659H374.756V800.919Z" fill="#00CD00"/>
<path fill-rule="evenodd" clip-rule="evenodd" d="M90.1387 811.872H329.285V818.612H90.1387V811.872Z" fill="#D8D8D8"/>
<path fill-rule="evenodd" clip-rule="evenodd" d="M49.7197 811.872H64.8768V818.612H49.7197V811.872Z" fill="#D7D7D7"/>
<path fill-rule="evenodd" clip-rule="evenodd" d="M362.967 811.872H369.704V818.612H362.967V811.872Z" fill="#D7D400"/>
<path fill-rule="evenodd" clip-rule="evenodd" d="M352.862 811.872H359.599V818.612H352.862V811.872Z" fill="#FF3C00"/>
<path fill-rule="evenodd" clip-rule="evenodd" d="M374.756 811.872H389.913V818.612H374.756V811.872Z" fill="#00CD00"/>
<path fill-rule="evenodd" clip-rule="evenodd" d="M90.1387 822.825H329.285V829.565H90.1387V822.825Z" fill="#D8D8D8"/>
<path fill-rule="evenodd" clip-rule="evenodd" d="M49.7197 822.825H64.8768V829.565H49.7197V822.825Z" fill="#D7D7D7"/>
<path fill-rule="evenodd" clip-rule="evenodd" d="M362.967 822.825H369.704V829.565H362.967V822.825Z" fill="#D7D400"/>
<path fill-rule="evenodd" clip-rule="evenodd" d="M352.862 822.825H359.599V829.565H352.862V822.825Z" fill="#FF3C00"/>
<path fill-rule="evenodd" clip-rule="evenodd" d="M374.756 822.825H389.913V829.565H374.756V822.825Z" fill="#00CD00"/>
<path fill-rule="evenodd" clip-rule="evenodd" d="M401 65.4789V776.521C401 776.733 400.994 776.945 400.981 777.156C400.968 777.368 400.948 777.577 400.923 777.785C400.897 777.993 400.866 778.199 400.828 778.402C400.789 778.605 400.745 778.804 400.695 779C400.644 779.197 400.588 779.388 400.527 779.575C400.465 779.762 400.397 779.944 400.324 780.121C400.251 780.297 400.173 780.467 400.089 780.631C400.007 780.796 399.919 780.953 399.826 781.103C399.733 781.253 399.636 781.395 399.534 781.529C399.432 781.664 399.327 781.79 399.218 781.908C399.108 782.026 398.996 782.135 398.88 782.235C398.764 782.335 398.646 782.425 398.524 782.507C398.403 782.588 398.28 782.66 398.154 782.721C398.028 782.783 397.901 782.834 397.772 782.875C397.644 782.916 397.514 782.948 397.383 782.969C397.252 782.99 397.121 783 396.99 783H43.0101C42.8787 783 42.7477 782.99 42.617 782.969C42.4863 782.948 42.3566 782.916 42.2277 782.875C42.0989 782.834 41.9717 782.783 41.846 782.721C41.7203 782.66 41.5968 782.588 41.4755 782.507C41.3542 782.425 41.2356 782.335 41.1197 782.235C41.0039 782.135 40.8914 782.026 40.7822 781.908C40.673 781.79 40.5676 781.664 40.4661 781.529C40.3646 781.395 40.2674 781.253 40.1745 781.103C40.0817 780.953 39.9936 780.796 39.9102 780.631C39.8269 780.467 39.7488 780.297 39.6758 780.121C39.6029 779.944 39.5354 779.762 39.4735 779.575C39.4116 779.388 39.3555 779.197 39.3052 779C39.255 778.804 39.2108 778.605 39.1727 778.402C39.1345 778.199 39.1027 777.993 39.0771 777.785C39.0514 777.577 39.0322 777.368 39.0193 777.156C39.0064 776.945 39 776.733 39 776.521V65.4789C39 65.2667 39.0064 65.055 39.0193 64.8438C39.0322 64.6327 39.0514 64.423 39.0771 64.2149C39.1027 64.0068 39.1345 63.8012 39.1727 63.5981C39.2108 63.3951 39.255 63.1955 39.3052 62.9995C39.3555 62.8035 39.4116 62.6119 39.4735 62.4247C39.5354 62.2376 39.6029 62.0558 39.6758 61.8794C39.7488 61.703 39.8269 61.5327 39.9102 61.3687C39.9936 61.2047 40.0817 61.0477 40.1745 60.8976C40.2674 60.7476 40.3646 60.6052 40.4661 60.4706C40.5676 60.336 40.673 60.2098 40.7822 60.0919C40.8914 59.974 41.0039 59.865 41.1197 59.765C41.2356 59.665 41.3542 59.5744 41.4755 59.4932C41.5968 59.412 41.7203 59.3406 41.846 59.279C41.9717 59.2174 42.0989 59.1659 42.2277 59.1245C42.3566 59.0831 42.4863 59.052 42.617 59.0312C42.7477 59.0104 42.8787 59 43.0101 59H396.99C397.121 59 397.252 59.0104 397.383 59.0312C397.514 59.052 397.644 59.0831 397.772 59.1245C397.901 59.1659 398.028 59.2174 398.154 59.279C398.28 59.3406 398.403 59.412 398.524 59.4932C398.646 59.5744 398.764 59.665 398.88 59.765C398.996 59.865 399.108 59.974 399.218 60.0919C399.327 60.2098 399.432 60.336 399.534 60.4706C399.636 60.6052 399.733 60.7476 399.826 60.8976C399.919 61.0477 400.007 61.2047 400.089 61.3687C400.173 61.5327 400.251 61.703 400.324 61.8794C400.397 62.0558 400.465 62.2376 400.527 62.4247C400.588 62.6119 400.644 62.8035 400.695 62.9995C400.745 63.1955 400.789 63.3951 400.828 63.5981C400.866 63.8012 400.897 64.0068 400.923 64.2149C400.948 64.423 400.968 64.6327 400.981 64.8438C400.994 65.055 401 65.2667 401 65.4789Z" fill="#7C7C7C"/>
<path fill-rule="evenodd" clip-rule="evenodd" d="M52.0039 90H387.996C388.062 90 388.127 90.0055 388.193 90.0164C388.258 90.0273 388.323 90.0436 388.387 90.0653C388.451 90.0871 388.515 90.1141 388.578 90.1464C388.64 90.1787 388.702 90.2162 388.763 90.2588C388.824 90.3015 388.883 90.349 388.94 90.4015C388.999 90.454 389.055 90.5112 389.11 90.5731C389.164 90.6349 389.216 90.7012 389.267 90.7719C389.318 90.8425 389.367 90.9172 389.414 90.996C389.46 91.0747 389.503 91.1571 389.545 91.2432C389.587 91.3293 389.626 91.4186 389.662 91.5112C389.699 91.6038 389.733 91.6992 389.763 91.7975C389.794 91.8957 389.822 91.9962 389.848 92.0991C389.872 92.202 389.894 92.3067 389.914 92.4133C389.933 92.5199 389.949 92.6278 389.962 92.737C389.975 92.8462 389.984 92.9563 389.99 93.0671C389.997 93.1779 390 93.289 390 93.4004V749.6C390 749.711 389.997 749.822 389.99 749.933C389.984 750.044 389.975 750.154 389.962 750.263C389.949 750.372 389.933 750.48 389.914 750.586C389.894 750.693 389.872 750.798 389.848 750.901C389.822 751.004 389.794 751.104 389.763 751.202C389.733 751.301 389.699 751.396 389.662 751.489C389.626 751.581 389.587 751.67 389.545 751.756C389.503 751.843 389.46 751.925 389.414 752.003C389.367 752.083 389.318 752.157 389.267 752.228C389.216 752.299 389.164 752.365 389.11 752.427C389.055 752.489 388.999 752.546 388.94 752.598C388.883 752.651 388.824 752.698 388.763 752.741C388.702 752.783 388.64 752.821 388.578 752.854C388.515 752.885 388.451 752.913 388.387 752.935C388.323 752.957 388.258 752.973 388.193 752.983C388.127 752.994 388.062 753 387.996 753H52.0039C51.9383 753 51.8728 752.994 51.8075 752.983C51.7421 752.973 51.6773 752.957 51.6129 752.935C51.5486 752.913 51.485 752.885 51.4222 752.854C51.3594 752.821 51.2977 752.783 51.237 752.741C51.1764 752.698 51.1171 752.651 51.0593 752.598C51.0014 752.546 50.9452 752.489 50.8906 752.427C50.836 752.365 50.7834 752.299 50.7326 752.228C50.6819 752.157 50.6333 752.083 50.5869 752.005C50.5405 751.925 50.4965 751.843 50.4549 751.756C50.4132 751.67 50.3742 751.581 50.3377 751.489C50.3013 751.396 50.2676 751.301 50.2366 751.202C50.2057 751.104 50.1777 751.004 50.1525 750.901C50.1274 750.798 50.1053 750.693 50.0863 750.586C50.0672 750.48 50.0513 750.372 50.0385 750.263C50.0257 750.154 50.0161 750.044 50.0096 749.933C50.0032 749.822 50 749.711 50 749.6V93.4004C50 93.289 50.0032 93.1779 50.0096 93.0671C50.0161 92.9563 50.0257 92.8462 50.0385 92.737C50.0513 92.6278 50.0672 92.5199 50.0863 92.4133C50.1053 92.3067 50.1274 92.202 50.1525 92.0991C50.1777 91.9962 50.2057 91.8957 50.2366 91.7975C50.2676 91.6992 50.3013 91.6038 50.3377 91.5112C50.3742 91.4186 50.4132 91.3293 50.4549 91.2432C50.4965 91.1571 50.5405 91.0747 50.5869 90.996C50.6333 90.9172 50.6819 90.8425 50.7326 90.7719C50.7834 90.7012 50.836 90.6349 50.8906 90.5731C50.9452 90.5112 51.0014 90.454 51.0593 90.4015C51.1171 90.349 51.1764 90.3015 51.237 90.2588C51.2977 90.2162 51.3594 90.1787 51.4222 90.1464C51.485 90.1141 51.5486 90.0871 51.6129 90.0653C51.6773 90.0436 51.7421 90.0273 51.8075 90.0164C51.8728 90.0055 51.9383 90 52.0039 90Z" fill="white"/>
<path fill-rule="evenodd" clip-rule="evenodd" d="M49.7197 71H389.913V77.7402H49.7197V71Z" fill="#D7D7D7"/>
<path fill-rule="evenodd" clip-rule="evenodd" d="M49.7197 763.005H389.913V769.745H49.7197V763.005Z" fill="#D7D7D7"/>
<path fill-rule="evenodd" clip-rule="evenodd" d="M334.79 309.21C334.79 310.447 334.072 311.449 333.187 311.449H107.139C106.253 311.449 105.536 310.447 105.536 309.21V119.21C105.536 115.913 108.209 113.24 111.506 113.24H328.82C332.117 113.24 334.79 115.913 334.79 119.21V309.21Z" fill="#FF003C"/>
<path d="M105.536 119.21C105.536 115.913 108.209 113.24 111.506 113.24H328.82C332.117 113.24 334.79 115.913 334.79 119.21V140.703H105.536V119.21Z" fill="#CCCCCC"/>
<path fill-rule="evenodd" clip-rule="evenodd" d="M125.834 128.165C125.834 131.133 123.429 133.538 120.461 133.538C117.493 133.538 115.088 131.133 115.088 128.165C115.088 125.197 117.493 122.792 120.461 122.792C123.429 122.792 125.834 125.197 125.834 128.165" fill="#E74C3C"/>
<path fill-rule="evenodd" clip-rule="evenodd" d="M144.939 128.165C144.939 131.133 142.533 133.538 139.566 133.538C136.598 133.538 134.192 131.133 134.192 128.165C134.192 125.197 136.598 122.792 139.566 122.792C142.533 122.792 144.939 125.197 144.939 128.165" fill="#F1C40F"/>
<path fill-rule="evenodd" clip-rule="evenodd" d="M162.849 128.165C162.849 131.133 160.444 133.538 157.476 133.538C154.508 133.538 152.103 131.133 152.103 128.165C152.103 125.197 154.508 122.792 157.476 122.792C160.444 122.792 162.849 125.197 162.849 128.165" fill="#2ECC71"/>
<path fill-rule="evenodd" clip-rule="evenodd" d="M334.79 518.454C334.79 519.691 334.072 520.694 333.187 520.694H107.139C106.253 520.694 105.536 519.691 105.536 518.454V328.454C105.536 325.157 108.209 322.484 111.506 322.484H328.82C332.117 322.484 334.79 325.157 334.79 328.454V518.454Z" fill="#FF003C"/>
<path d="M105.536 328.454C105.536 325.157 108.209 322.484 111.506 322.484H328.82C332.117 322.484 334.79 325.157 334.79 328.454V349.947H105.536V328.454Z" fill="#CCCCCC"/>
<path fill-rule="evenodd" clip-rule="evenodd" d="M125.834 337.41C125.834 340.377 123.429 342.783 120.461 342.783C117.493 342.783 115.088 340.377 115.088 337.41C115.088 334.442 117.493 332.036 120.461 332.036C123.429 332.036 125.834 334.442 125.834 337.41" fill="#E74C3C"/>
<path fill-rule="evenodd" clip-rule="evenodd" d="M144.939 337.41C144.939 340.377 142.533 342.783 139.566 342.783C136.598 342.783 134.192 340.377 134.192 337.41C134.192 334.442 136.598 332.036 139.566 332.036C142.533 332.036 144.939 334.442 144.939 337.41" fill="#F1C40F"/>
<path fill-rule="evenodd" clip-rule="evenodd" d="M162.849 337.41C162.849 340.377 160.444 342.783 157.476 342.783C154.508 342.783 152.103 340.377 152.103 337.41C152.103 334.442 154.508 332.036 157.476 332.036C160.444 332.036 162.849 334.442 162.849 337.41" fill="#2ECC71"/>
<path fill-rule="evenodd" clip-rule="evenodd" d="M334.79 726.761C334.79 727.998 334.072 729 333.187 729H107.139C106.253 729 105.536 727.998 105.536 726.761V536.761C105.536 533.463 108.209 530.791 111.506 530.791H328.82C332.117 530.791 334.79 533.463 334.79 536.761V726.761Z" fill="#FF003C"/>
<path d="M105.536 536.761C105.536 533.463 108.209 530.791 111.506 530.791H328.82C332.117 530.791 334.79 533.463 334.79 536.761V558.253H105.536V536.761Z" fill="#CCCCCC"/>
<path fill-rule="evenodd" clip-rule="evenodd" d="M125.834 545.716C125.834 548.684 123.429 551.089 120.461 551.089C117.493 551.089 115.088 548.684 115.088 545.716C115.088 542.748 117.493 540.343 120.461 540.343C123.429 540.343 125.834 542.748 125.834 545.716" fill="#E74C3C"/>
<path fill-rule="evenodd" clip-rule="evenodd" d="M144.939 545.716C144.939 548.684 142.533 551.089 139.566 551.089C136.598 551.089 134.192 548.684 134.192 545.716C134.192 542.748 136.598 540.343 139.566 540.343C142.533 540.343 144.939 542.748 144.939 545.716" fill="#F1C40F"/>
<path fill-rule="evenodd" clip-rule="evenodd" d="M162.849 545.716C162.849 548.684 160.444 551.089 157.476 551.089C154.508 551.089 152.103 548.684 152.103 545.716C152.103 542.748 154.508 540.343 157.476 540.343C160.444 540.343 162.849 542.748 162.849 545.716" fill="#2ECC71"/>
<path fill-rule="evenodd" clip-rule="evenodd" d="M781.087 793.977V836.507C781.087 836.638 781.081 836.769 781.068 836.9C781.055 837.031 781.035 837.16 781.01 837.289C780.985 837.418 780.953 837.545 780.915 837.671C780.877 837.797 780.832 837.92 780.782 838.042C780.731 838.163 780.675 838.282 780.614 838.398C780.552 838.513 780.484 838.626 780.411 838.735C780.338 838.844 780.26 838.95 780.176 839.051C780.094 839.153 780.006 839.25 779.913 839.343C779.82 839.436 779.722 839.524 779.621 839.607C779.519 839.691 779.414 839.769 779.305 839.842C779.195 839.915 779.082 839.982 778.967 840.044C778.851 840.106 778.732 840.162 778.611 840.213C778.49 840.263 778.366 840.307 778.241 840.345C778.115 840.383 777.988 840.415 777.858 840.441C777.73 840.466 777.6 840.486 777.469 840.498C777.338 840.511 777.207 840.518 777.076 840.518H423.011C422.88 840.518 422.749 840.511 422.618 840.498C422.487 840.486 422.357 840.466 422.229 840.441C422.1 840.415 421.972 840.383 421.847 840.345C421.721 840.307 421.597 840.263 421.476 840.213C421.355 840.162 421.236 840.106 421.12 840.044C421.004 839.982 420.892 839.915 420.783 839.842C420.673 839.769 420.568 839.691 420.466 839.607C420.365 839.524 420.268 839.436 420.175 839.343C420.082 839.25 419.994 839.153 419.91 839.051C419.827 838.95 419.749 838.844 419.676 838.735C419.603 838.626 419.536 838.513 419.474 838.398C419.412 838.282 419.356 838.163 419.305 838.042C419.255 837.92 419.211 837.797 419.173 837.671C419.135 837.545 419.103 837.418 419.077 837.289C419.051 837.16 419.032 837.031 419.019 836.9C419.006 836.769 419 836.638 419 836.507V793.977C419 793.846 419.006 793.715 419.019 793.584C419.032 793.453 419.051 793.323 419.077 793.195C419.103 793.066 419.135 792.938 419.173 792.813C419.211 792.687 419.255 792.564 419.305 792.442C419.356 792.321 419.412 792.202 419.474 792.086C419.536 791.97 419.603 791.858 419.676 791.749C419.749 791.639 419.827 791.534 419.91 791.433C419.994 791.331 420.082 791.234 420.175 791.141C420.268 791.048 420.365 790.96 420.466 790.877C420.568 790.793 420.673 790.715 420.783 790.642C420.892 790.569 421.004 790.502 421.12 790.44C421.236 790.378 421.355 790.322 421.476 790.271C421.597 790.221 421.721 790.177 421.847 790.139C421.972 790.101 422.1 790.069 422.229 790.043C422.357 790.018 422.487 789.998 422.618 789.985C422.749 789.973 422.88 789.966 423.011 789.966H777.076C777.207 789.966 777.338 789.973 777.469 789.985C777.6 789.998 777.73 790.018 777.858 790.043C777.988 790.069 778.115 790.101 778.241 790.139C778.366 790.177 778.49 790.221 778.611 790.271C778.732 790.322 778.851 790.378 778.967 790.44C779.082 790.502 779.195 790.569 779.305 790.642C779.414 790.715 779.519 790.793 779.621 790.877C779.722 790.96 779.82 791.048 779.913 791.141C780.006 791.234 780.094 791.331 780.176 791.433C780.26 791.534 780.338 791.639 780.411 791.749C780.484 791.858 780.552 791.97 780.614 792.086C780.675 792.202 780.731 792.321 780.782 792.442C780.832 792.564 780.877 792.687 780.915 792.813C780.953 792.938 780.985 793.066 781.01 793.195C781.035 793.323 781.055 793.453 781.068 793.584C781.081 793.715 781.087 793.846 781.087 793.977Z" fill="#7C7C7C"/>
<path fill-rule="evenodd" clip-rule="evenodd" d="M470.366 800.919H709.512V807.659H470.366V800.919Z" fill="#D8D8D8"/>
<path fill-rule="evenodd" clip-rule="evenodd" d="M429.947 800.919H445.104V807.659H429.947V800.919Z" fill="#D7D7D7"/>
<path fill-rule="evenodd" clip-rule="evenodd" d="M743.194 800.919H749.931V807.659H743.194V800.919Z" fill="#D7D400"/>
<path fill-rule="evenodd" clip-rule="evenodd" d="M733.09 800.919H739.826V807.659H733.09V800.919Z" fill="#FF3C00"/>
<path fill-rule="evenodd" clip-rule="evenodd" d="M754.983 800.919H770.14V807.659H754.983V800.919Z" fill="#00CD00"/>
<path fill-rule="evenodd" clip-rule="evenodd" d="M470.366 811.872H709.512V818.612H470.366V811.872Z" fill="#D8D8D8"/>
<path fill-rule="evenodd" clip-rule="evenodd" d="M429.947 811.872H445.104V818.612H429.947V811.872Z" fill="#D7D7D7"/>
<path fill-rule="evenodd" clip-rule="evenodd" d="M743.194 811.872H749.931V818.612H743.194V811.872Z" fill="#D7D400"/>
<path fill-rule="evenodd" clip-rule="evenodd" d="M733.09 811.872H739.826V818.612H733.09V811.872Z" fill="#FF3C00"/>
<path fill-rule="evenodd" clip-rule="evenodd" d="M754.983 811.872H770.14V818.612H754.983V811.872Z" fill="#00CD00"/>
<path fill-rule="evenodd" clip-rule="evenodd" d="M470.366 822.825H709.512V829.565H470.366V822.825Z" fill="#D8D8D8"/>
<path fill-rule="evenodd" clip-rule="evenodd" d="M429.947 822.825H445.104V829.565H429.947V822.825Z" fill="#D7D7D7"/>
<path fill-rule="evenodd" clip-rule="evenodd" d="M743.194 822.825H749.931V829.565H743.194V822.825Z" fill="#D7D400"/>
<path fill-rule="evenodd" clip-rule="evenodd" d="M733.09 822.825H739.826V829.565H733.09V822.825Z" fill="#FF3C00"/>
<path fill-rule="evenodd" clip-rule="evenodd" d="M754.983 822.825H770.14V829.565H754.983V822.825Z" fill="#00CD00"/>
<path fill-rule="evenodd" clip-rule="evenodd" d="M781.227 65.4789V776.521C781.227 776.733 781.221 776.945 781.208 777.156C781.195 777.368 781.175 777.577 781.15 777.785C781.124 777.993 781.093 778.199 781.055 778.402C781.016 778.605 780.972 778.804 780.922 779C780.871 779.197 780.815 779.388 780.754 779.575C780.692 779.762 780.624 779.944 780.551 780.121C780.478 780.297 780.4 780.467 780.317 780.631C780.234 780.796 780.146 780.953 780.053 781.103C779.96 781.253 779.863 781.395 779.761 781.529C779.659 781.664 779.554 781.79 779.445 781.908C779.335 782.026 779.223 782.135 779.107 782.235C778.992 782.335 778.873 782.425 778.751 782.507C778.63 782.588 778.507 782.66 778.381 782.721C778.255 782.783 778.128 782.834 777.999 782.875C777.871 782.916 777.741 782.948 777.61 782.969C777.479 782.99 777.348 783 777.217 783H423.237C423.106 783 422.975 782.99 422.844 782.969C422.713 782.948 422.584 782.916 422.455 782.875C422.326 782.834 422.199 782.783 422.073 782.721C421.947 782.66 421.824 782.588 421.703 782.507C421.581 782.425 421.463 782.335 421.347 782.235C421.231 782.135 421.118 782.026 421.009 781.908C420.9 781.79 420.795 781.664 420.693 781.529C420.592 781.395 420.494 781.253 420.402 781.103C420.309 780.953 420.221 780.796 420.137 780.631C420.054 780.467 419.976 780.297 419.903 780.121C419.83 779.944 419.762 779.762 419.701 779.575C419.639 779.388 419.583 779.197 419.532 779C419.482 778.804 419.438 778.605 419.4 778.402C419.362 778.199 419.33 777.993 419.304 777.785C419.278 777.577 419.259 777.368 419.246 777.156C419.233 776.945 419.227 776.733 419.227 776.521V65.4789C419.227 65.2667 419.233 65.055 419.246 64.8438C419.259 64.6327 419.278 64.423 419.304 64.2149C419.33 64.0068 419.362 63.8012 419.4 63.5981C419.438 63.3951 419.482 63.1955 419.532 62.9995C419.583 62.8035 419.639 62.6119 419.701 62.4247C419.762 62.2376 419.83 62.0558 419.903 61.8794C419.976 61.703 420.054 61.5327 420.137 61.3687C420.221 61.2047 420.309 61.0477 420.402 60.8976C420.494 60.7476 420.592 60.6052 420.693 60.4706C420.795 60.336 420.9 60.2098 421.009 60.0919C421.118 59.974 421.231 59.865 421.347 59.765C421.463 59.665 421.581 59.5744 421.703 59.4932C421.824 59.412 421.947 59.3406 422.073 59.279C422.199 59.2174 422.326 59.1659 422.455 59.1245C422.584 59.0831 422.713 59.052 422.844 59.0312C422.975 59.0104 423.106 59 423.237 59H777.217C777.348 59 777.479 59.0104 777.61 59.0312C777.741 59.052 777.871 59.0831 777.999 59.1245C778.128 59.1659 778.255 59.2174 778.381 59.279C778.507 59.3406 778.63 59.412 778.751 59.4932C778.873 59.5744 778.992 59.665 779.107 59.765C779.223 59.865 779.335 59.974 779.445 60.0919C779.554 60.2098 779.659 60.336 779.761 60.4706C779.863 60.6052 779.96 60.7476 780.053 60.8976C780.146 61.0477 780.234 61.2047 780.317 61.3687C780.4 61.5327 780.478 61.703 780.551 61.8794C780.624 62.0558 780.692 62.2376 780.754 62.4247C780.815 62.6119 780.871 62.8035 780.922 62.9995C780.972 63.1955 781.016 63.3951 781.055 63.5981C781.093 63.8012 781.124 64.0068 781.15 64.2149C781.175 64.423 781.195 64.6327 781.208 64.8438C781.221 65.055 781.227 65.2667 781.227 65.4789Z" fill="#7C7C7C"/>
<path fill-rule="evenodd" clip-rule="evenodd" d="M432.231 90H768.223C768.289 90 768.354 90.0055 768.42 90.0164C768.485 90.0273 768.55 90.0436 768.614 90.0653C768.678 90.0871 768.742 90.1141 768.805 90.1464C768.867 90.1787 768.929 90.2162 768.99 90.2588C769.051 90.3015 769.11 90.349 769.167 90.4015C769.226 90.454 769.282 90.5112 769.337 90.5731C769.391 90.6349 769.444 90.7012 769.494 90.7719C769.545 90.8425 769.594 90.9172 769.641 90.996C769.687 91.0747 769.731 91.1571 769.772 91.2432C769.814 91.3293 769.853 91.4186 769.889 91.5112C769.926 91.6038 769.96 91.6992 769.99 91.7975C770.021 91.8957 770.049 91.9962 770.075 92.0991C770.099 92.202 770.121 92.3067 770.141 92.4133C770.16 92.5199 770.176 92.6278 770.189 92.737C770.202 92.8462 770.211 92.9563 770.217 93.0671C770.224 93.1779 770.227 93.289 770.227 93.4004V749.6C770.227 749.711 770.224 749.822 770.217 749.933C770.211 750.044 770.202 750.154 770.189 750.263C770.176 750.372 770.16 750.48 770.141 750.586C770.121 750.693 770.099 750.798 770.075 750.901C770.049 751.004 770.021 751.104 769.99 751.202C769.96 751.301 769.926 751.396 769.889 751.489C769.853 751.581 769.814 751.67 769.772 751.756C769.731 751.843 769.687 751.925 769.641 752.003C769.594 752.083 769.545 752.157 769.494 752.228C769.444 752.299 769.391 752.365 769.337 752.427C769.282 752.489 769.226 752.546 769.167 752.598C769.11 752.651 769.051 752.698 768.99 752.741C768.929 752.783 768.867 752.821 768.805 752.854C768.742 752.885 768.678 752.913 768.614 752.935C768.55 752.957 768.485 752.973 768.42 752.983C768.354 752.994 768.289 753 768.223 753H432.231C432.165 753 432.1 752.994 432.035 752.983C431.969 752.973 431.904 752.957 431.84 752.935C431.776 752.913 431.712 752.885 431.649 752.854C431.586 752.821 431.525 752.783 431.464 752.741C431.403 752.698 431.344 752.651 431.286 752.598C431.228 752.546 431.172 752.489 431.118 752.427C431.063 752.365 431.01 752.299 430.96 752.228C430.909 752.157 430.86 752.083 430.814 752.005C430.768 751.925 430.724 751.843 430.682 751.756C430.64 751.67 430.601 751.581 430.565 751.489C430.528 751.396 430.495 751.301 430.464 751.202C430.433 751.104 430.405 751.004 430.38 750.901C430.354 750.798 430.332 750.693 430.313 750.586C430.294 750.48 430.278 750.372 430.266 750.263C430.253 750.154 430.243 750.044 430.237 749.933C430.23 749.822 430.227 749.711 430.227 749.6V93.4004C430.227 93.289 430.23 93.1779 430.237 93.0671C430.243 92.9563 430.253 92.8462 430.266 92.737C430.278 92.6278 430.294 92.5199 430.313 92.4133C430.332 92.3067 430.354 92.202 430.38 92.0991C430.405 91.9962 430.433 91.8957 430.464 91.7975C430.495 91.6992 430.528 91.6038 430.565 91.5112C430.601 91.4186 430.64 91.3293 430.682 91.2432C430.724 91.1571 430.768 91.0747 430.814 90.996C430.86 90.9172 430.909 90.8425 430.96 90.7719C431.01 90.7012 431.063 90.6349 431.118 90.5731C431.172 90.5112 431.228 90.454 431.286 90.4015C431.344 90.349 431.403 90.3015 431.464 90.2588C431.525 90.2162 431.586 90.1787 431.649 90.1464C431.712 90.1141 431.776 90.0871 431.84 90.0653C431.904 90.0436 431.969 90.0273 432.035 90.0164C432.1 90.0055 432.165 90 432.231 90Z" fill="white"/>
<path fill-rule="evenodd" clip-rule="evenodd" d="M429.947 71H770.14V77.7402H429.947V71Z" fill="#D7D7D7"/>
<path fill-rule="evenodd" clip-rule="evenodd" d="M429.947 763.005H770.14V769.745H429.947V763.005Z" fill="#D7D7D7"/>
<path fill-rule="evenodd" clip-rule="evenodd" d="M715.017 309.21C715.017 310.447 714.299 311.449 713.414 311.449H487.366C486.481 311.449 485.763 310.447 485.763 309.21V119.21C485.763 115.913 488.436 113.24 491.733 113.24H709.047C712.344 113.24 715.017 115.913 715.017 119.21V309.21Z" fill="#FF003C"/>
<path d="M485.763 119.21C485.763 115.913 488.436 113.24 491.733 113.24H709.047C712.344 113.24 715.017 115.913 715.017 119.21V140.703H485.763V119.21Z" fill="#CCCCCC"/>
<path fill-rule="evenodd" clip-rule="evenodd" d="M506.061 128.165C506.061 131.133 503.656 133.538 500.688 133.538C497.72 133.538 495.315 131.133 495.315 128.165C495.315 125.197 497.72 122.792 500.688 122.792C503.656 122.792 506.061 125.197 506.061 128.165" fill="#E74C3C"/>
<path fill-rule="evenodd" clip-rule="evenodd" d="M525.166 128.165C525.166 131.133 522.76 133.538 519.793 133.538C516.825 133.538 514.419 131.133 514.419 128.165C514.419 125.197 516.825 122.792 519.793 122.792C522.76 122.792 525.166 125.197 525.166 128.165" fill="#F1C40F"/>
<path fill-rule="evenodd" clip-rule="evenodd" d="M543.076 128.165C543.076 131.133 540.671 133.538 537.703 133.538C534.735 133.538 532.33 131.133 532.33 128.165C532.33 125.197 534.735 122.792 537.703 122.792C540.671 122.792 543.076 125.197 543.076 128.165" fill="#2ECC71"/>
</svg>
