<svg width="1200" height="900" viewBox="0 0 1200 900" fill="none" xmlns="http://www.w3.org/2000/svg">
<path fill-rule="evenodd" clip-rule="evenodd" d="M574 166.6V733C574 740.511 567.906 746.6 560.39 746.6H81.61C74.095 746.6 68 740.511 68 733V166.6C68 159.089 74.094 153 81.61 153H560.39C567.905 153 574 159.089 574 166.6Z" fill="#D2D2D2"/>
<path fill-rule="evenodd" clip-rule="evenodd" d="M154.8 719.4H554.4V729.84H154.8V719.4ZM154.8 702.6H554.4V713.04H154.8V702.6ZM154.8 686.6H554.4V697.04H154.8V686.6ZM87.2 171.4H554.4V181.8H87.2V171.4Z" fill="#A3A3A3"/>
<path fill-rule="evenodd" clip-rule="evenodd" d="M92.6599 200.232H549.34C550.055 200.232 550.763 200.372 551.423 200.646C552.084 200.919 552.684 201.32 553.19 201.826C553.695 202.331 554.096 202.931 554.37 203.592C554.644 204.252 554.785 204.96 554.785 205.675V662.303C554.785 663.747 554.211 665.131 553.19 666.152C552.169 667.173 550.785 667.747 549.341 667.747H92.6588C91.215 667.747 89.8303 667.173 88.8094 666.152C87.7884 665.131 87.2148 663.747 87.2148 662.303V205.675C87.2151 204.231 87.7888 202.847 88.8097 201.826C89.8306 200.805 91.2152 200.232 92.6588 200.232H92.6599Z" fill="#EFFFBD"/>
<path d="M112.675 683.719C112.217 683.746 111.768 683.865 111.357 684.069L93.5109 692.578C93.0513 692.797 92.6471 693.117 92.3285 693.514C92.0099 693.911 91.7851 694.375 91.6709 694.871L87.3009 713.975C87.1966 714.419 87.1854 714.88 87.268 715.328C87.3506 715.776 87.5252 716.203 87.7809 716.58C87.8429 716.673 87.9069 716.762 87.9739 716.849L100.304 732.177C100.955 732.977 101.934 733.437 102.965 733.433H122.741C123.251 733.43 123.754 733.315 124.215 733.096C124.675 732.876 125.082 732.558 125.405 732.163L137.729 716.831C138.375 716.031 138.617 714.974 138.369 713.971L133.972 694.853C133.857 694.357 133.632 693.894 133.313 693.497C132.995 693.1 132.591 692.78 132.132 692.56L114.313 684.07C113.799 683.817 113.231 683.697 112.659 683.72L112.675 683.719Z" fill="#4A4A4A"/>
<path d="M112.838 690.229C112.224 690.272 111.758 690.799 111.79 691.414V691.714C111.818 692.056 111.87 692.394 111.937 692.728C112.035 693.368 112.071 694.018 112.043 694.666C111.981 694.88 111.86 695.071 111.693 695.218L111.67 695.67C111.021 695.724 110.377 695.823 109.743 695.967C107.074 696.568 104.646 697.954 102.771 699.946L102.387 699.674C102.282 699.706 102.173 699.716 102.064 699.705C101.955 699.694 101.85 699.662 101.754 699.61C101.234 699.225 100.753 698.791 100.318 698.313C100.099 698.051 99.8654 697.803 99.618 697.568L99.381 697.38C99.1701 697.211 98.911 697.113 98.641 697.1C98.4796 697.091 98.3185 697.121 98.1708 697.187C98.023 697.252 97.8929 697.352 97.791 697.477C97.6173 697.72 97.5473 698.023 97.5962 698.318C97.6451 698.613 97.809 698.877 98.052 699.051L98.273 699.227C98.558 699.417 98.853 699.589 99.157 699.744C99.7279 700.06 100.264 700.435 100.755 700.864C100.882 701.046 100.956 701.259 100.968 701.48L101.318 701.8C99.4335 704.628 98.659 708.052 99.143 711.416L98.694 711.544C98.5779 711.73 98.4218 711.887 98.237 712.004C97.6115 712.172 96.9711 712.278 96.325 712.321C95.982 712.328 95.6398 712.355 95.3 712.401L95.016 712.465H94.986C94.7894 712.492 94.6043 712.574 94.4512 712.7C94.2981 712.826 94.1831 712.993 94.1188 713.18C94.0546 713.368 94.0437 713.57 94.0873 713.764C94.1309 713.957 94.2274 714.135 94.366 714.277C94.651 714.565 95.076 714.667 95.461 714.541H95.481L95.771 714.509C96.0966 714.411 96.4162 714.295 96.728 714.159C97.3289 713.918 97.9518 713.736 98.588 713.616C98.809 713.629 99.021 713.704 99.2 713.832L99.68 713.752C100.72 716.981 102.908 719.717 105.83 721.442L105.634 721.85C105.724 722.038 105.757 722.246 105.73 722.452C105.465 723.065 105.142 723.651 104.764 724.201C104.557 724.474 104.365 724.759 104.191 725.054L104.055 725.342C103.956 725.513 103.907 725.708 103.912 725.906C103.917 726.104 103.977 726.296 104.085 726.462C104.192 726.627 104.343 726.76 104.522 726.846C104.7 726.931 104.898 726.965 105.095 726.945C105.498 726.9 105.84 726.632 105.981 726.253L106.114 725.981C106.236 725.661 106.338 725.334 106.422 725.005C106.705 724.305 106.859 723.554 107.246 723.09C107.373 722.971 107.532 722.892 107.704 722.865L107.944 722.428C111.11 723.645 114.614 723.654 117.786 722.452L117.999 722.861C118.217 722.894 118.412 723.012 118.543 723.189C118.844 723.762 119.088 724.362 119.273 724.982C119.358 725.314 119.463 725.641 119.584 725.96L119.717 726.233C119.787 726.418 119.907 726.58 120.063 726.701C120.219 726.822 120.406 726.898 120.603 726.92C120.799 726.942 120.998 726.908 121.177 726.824C121.356 726.74 121.508 726.608 121.617 726.443C121.837 726.103 121.847 725.669 121.643 725.32L121.503 725.032C121.329 724.738 121.138 724.454 120.931 724.182C120.563 723.646 120.242 723.08 119.971 722.489C119.945 722.381 119.941 722.268 119.96 722.158C119.979 722.048 120.019 721.943 120.079 721.849C120.011 721.71 119.951 721.566 119.901 721.419C122.816 719.681 124.994 716.935 126.023 713.701L126.477 713.781C126.64 713.633 126.855 713.553 127.075 713.56C127.71 713.682 128.333 713.88 128.935 714.104C129.248 714.248 129.568 714.37 129.893 714.473C129.97 714.493 130.083 714.511 130.168 714.532H130.189C130.378 714.593 130.58 714.601 130.773 714.553C130.966 714.506 131.142 714.407 131.282 714.265C131.422 714.124 131.519 713.947 131.564 713.753C131.609 713.56 131.599 713.357 131.536 713.169C131.471 712.981 131.356 712.815 131.202 712.689C131.048 712.563 130.863 712.482 130.666 712.455L130.356 712.382C130.015 712.336 129.673 712.309 129.329 712.302C128.683 712.26 128.042 712.154 127.417 711.986C127.224 711.878 127.065 711.718 126.957 711.525L126.524 711.397C126.985 708.035 126.195 704.62 124.304 701.802L124.682 701.452C124.667 701.232 124.739 701.015 124.882 700.847C125.373 700.426 125.903 700.052 126.466 699.733C126.771 699.578 127.066 699.405 127.35 699.216L127.584 699.026C127.713 698.946 127.824 698.84 127.909 698.714C127.994 698.589 128.052 698.447 128.078 698.297C128.104 698.147 128.098 697.994 128.06 697.847C128.023 697.7 127.954 697.563 127.86 697.444C127.765 697.325 127.646 697.228 127.511 697.159C127.376 697.089 127.228 697.049 127.077 697.041C126.925 697.033 126.774 697.058 126.632 697.113C126.491 697.168 126.362 697.252 126.256 697.36L126.019 697.55C125.772 697.784 125.538 698.033 125.319 698.294C124.897 698.777 124.429 699.218 123.922 699.611C123.717 699.694 123.493 699.719 123.275 699.681L122.87 699.971C120.531 697.519 117.382 696 114.007 695.695C114.007 695.535 113.987 695.295 113.983 695.22C113.801 695.095 113.675 694.904 113.633 694.688C113.611 694.042 113.652 693.395 113.755 692.757C113.825 692.42 113.872 692.084 113.903 691.743V691.423C113.919 691.127 113.817 690.837 113.621 690.615C113.424 690.394 113.149 690.258 112.853 690.238L112.839 690.23L112.838 690.229ZM111.503 698.499L111.183 704.093H111.159C111.149 704.262 111.095 704.426 111.001 704.568C110.908 704.71 110.779 704.824 110.627 704.9C110.475 704.977 110.304 705.01 110.134 704.995C109.965 704.98 109.803 704.916 109.667 704.813L105.079 701.563C106.54 700.129 108.372 699.131 110.369 698.683C110.743 698.603 111.12 698.542 111.5 698.5H111.503V698.499ZM114.173 698.499C116.583 698.799 118.827 699.882 120.563 701.579L116.019 704.809C115.881 704.919 115.716 704.989 115.541 705.009C115.366 705.03 115.188 705.001 115.029 704.925C114.87 704.85 114.735 704.731 114.639 704.583C114.544 704.434 114.493 704.262 114.491 704.086L114.174 698.5L114.173 698.499ZM103.413 703.667L107.609 707.41V707.434C107.737 707.546 107.832 707.691 107.884 707.852C107.936 708.014 107.944 708.187 107.906 708.352C107.868 708.518 107.786 708.67 107.669 708.793C107.551 708.916 107.403 709.005 107.239 709.05V709.066L101.855 710.614C101.588 708.188 102.137 705.743 103.415 703.664L103.413 703.667ZM122.233 703.667C123.508 705.74 124.071 708.172 123.838 710.595L118.446 709.042V709.021C118.282 708.977 118.132 708.889 118.015 708.766C117.897 708.643 117.815 708.49 117.778 708.324C117.741 708.158 117.748 707.985 117.801 707.823C117.853 707.661 117.948 707.516 118.076 707.404L122.239 703.68L122.233 703.667ZM111.979 707.702H113.695L114.745 709.034L114.363 710.699L112.821 711.439L111.276 710.699L110.912 709.034L111.979 707.702V707.702ZM117.477 712.246C117.549 712.238 117.621 712.238 117.693 712.246L123.245 713.182C122.433 715.492 120.868 717.462 118.802 718.775L116.656 713.581C116.597 713.442 116.573 713.29 116.584 713.139C116.596 712.989 116.644 712.843 116.724 712.714C116.804 712.586 116.913 712.479 117.043 712.401C117.173 712.324 117.32 712.279 117.471 712.27L117.477 712.246ZM108.153 712.27C108.307 712.273 108.459 712.313 108.594 712.388C108.729 712.463 108.844 712.569 108.928 712.699C109.012 712.828 109.063 712.976 109.076 713.13C109.089 713.283 109.064 713.437 109.003 713.579V713.599L106.871 718.752C104.83 717.443 103.277 715.498 102.454 713.217L107.958 712.284C108.02 712.278 108.082 712.278 108.144 712.284L108.154 712.27H108.153ZM112.803 714.51C113.16 714.5 113.493 714.69 113.663 715.004H113.683L116.396 719.899L115.312 720.219C113.316 720.676 111.233 720.568 109.295 719.909L112.017 715.014C112.098 714.873 112.215 714.755 112.355 714.672C112.495 714.589 112.654 714.544 112.817 714.541L112.803 714.511V714.51Z" fill="white" stroke="white" stroke-width="0.5"/>
<rect x="110" y="556" width="422" height="92" fill="#8FBE00"/>
<rect x="110" y="458" width="422" height="92" fill="#8FBE00"/>
<rect x="110" y="360" width="422" height="92" fill="#8FBE00"/>
<path fill-rule="evenodd" clip-rule="evenodd" d="M110 262H116V267.111H115.024V268H110V262ZM110 354H115.024V348.889H116V338.667H110V354ZM526 354H532V348H526.976V348.889H526V354ZM532 262H526.976V267.111H526V277.333H532V262ZM125.072 262V268H135.119V262H125.072ZM145.167 262V268H155.214V262H145.167ZM165.262 262V268H175.31V262H165.262ZM185.357 262V268H195.405V262H185.357ZM205.452 262V268H215.5V262H205.452ZM225.548 262V268H235.595V262H225.548ZM245.643 262V268H255.69V262H245.643ZM265.738 262V268H275.786V262H265.738ZM285.833 262V268H295.881V262H285.833ZM305.928 262V268H315.976V262H305.928ZM326.024 262V268H336.071V262H326.024ZM346.119 262V268H356.167V262H346.119ZM366.214 262V268H376.262V262H366.214ZM386.309 262V268H396.357V262H386.309ZM406.405 262V268H416.452V262H406.405ZM426.5 262V268H436.548V262H426.5ZM446.595 262V268H456.643V262H446.595ZM466.69 262V268H476.738V262H466.69ZM486.786 262V268H496.833V262H486.786ZM506.881 262V268H516.929V262H506.881ZM532 287.556H526V297.778H532V287.556ZM532 308H526V318.222H532V308ZM532 328.444H526V338.667H532V328.444ZM516.928 354V348H506.881V354H516.928ZM496.833 354V348H486.786V354H496.833ZM476.738 354V348H466.69V354H476.738ZM456.643 354V348H446.595V354H456.643ZM436.548 354V348H426.5V354H436.548ZM416.452 354V348H406.405V354H416.452ZM396.357 354V348H386.31V354H396.357ZM376.262 354V348H366.214V354H376.262ZM356.167 354V348H346.119V354H356.167ZM336.072 354V348H326.024V354H336.072ZM315.976 354V348H305.929V354H315.976ZM295.881 354V348H285.833V354H295.881ZM275.786 354V348H265.738V354H275.786ZM255.691 354V348H245.643V354H255.691ZM235.595 354V348H225.548V354H235.595ZM215.5 354V348H205.452V354H215.5ZM195.405 354V348H185.357V354H195.405ZM175.31 354V348H165.262V354H175.31ZM155.214 354V348H145.167V354H155.214ZM135.119 354V348H125.071V354H135.119ZM110 328.444H116V318.222H110V328.444ZM110 308H116V297.778H110V308ZM110 287.556H116V277.333H110V287.556Z" fill="#8FBE00"/>
<rect x="667" y="556" width="422" height="92" fill="#8FBE00"/>
<path d="M739.678 504H751.056V486.551H760.621C772.999 486.551 780.199 479.167 780.199 468.419C780.199 457.724 773.13 450.182 760.911 450.182H739.678V504ZM751.056 477.433V459.484H758.729C765.299 459.484 768.479 463.058 768.479 468.419C768.479 473.754 765.299 477.433 758.782 477.433H751.056ZM802.904 504.788C812.89 504.788 819.617 499.927 821.194 492.438L810.84 491.754C809.71 494.829 806.819 496.432 803.088 496.432C797.491 496.432 793.943 492.727 793.943 486.709V486.683H821.43V483.608C821.43 469.891 813.126 463.111 802.457 463.111C790.579 463.111 782.88 471.546 782.88 484.002C782.88 496.8 790.474 504.788 802.904 504.788ZM793.943 479.745C794.18 475.146 797.675 471.467 802.641 471.467C807.503 471.467 810.866 474.936 810.893 479.745H793.943ZM837.71 480.665C837.736 475.462 840.837 472.413 845.357 472.413C849.851 472.413 852.558 475.357 852.531 480.297V504H863.726V478.3C863.726 468.892 858.207 463.111 849.798 463.111C843.807 463.111 839.471 466.054 837.658 470.758H837.185V463.636H826.516V504H837.71V480.665ZM885.202 504.657C891.719 504.657 895.109 500.899 896.66 497.536H897.133V504H908.17V450.182H897.001V470.416H896.66C895.162 467.131 891.93 463.111 885.176 463.111C876.32 463.111 868.831 469.996 868.831 483.871C868.831 497.378 876.005 504.657 885.202 504.657ZM888.75 495.749C883.258 495.749 880.262 490.861 880.262 483.818C880.262 476.828 883.205 472.019 888.75 472.019C894.19 472.019 897.238 476.618 897.238 483.818C897.238 491.018 894.137 495.749 888.75 495.749ZM915.154 504H926.348V463.636H915.154V504ZM920.777 458.433C924.115 458.433 926.848 455.884 926.848 452.757C926.848 449.656 924.115 447.107 920.777 447.107C917.466 447.107 914.733 449.656 914.733 452.757C914.733 455.884 917.466 458.433 920.777 458.433ZM944.29 480.665C944.317 475.462 947.418 472.413 951.937 472.413C956.431 472.413 959.138 475.357 959.111 480.297V504H970.306V478.3C970.306 468.892 964.788 463.111 956.379 463.111C950.387 463.111 946.051 466.054 944.238 470.758H943.765V463.636H933.096V504H944.29V480.665ZM995.094 519.977C1006.63 519.977 1014.83 514.722 1014.83 504.394V463.636H1003.71V470.416H1003.29C1001.79 467.131 998.51 463.111 991.756 463.111C982.901 463.111 975.411 469.996 975.411 483.739C975.411 497.168 982.69 503.422 991.783 503.422C998.221 503.422 1001.82 500.19 1003.29 496.852H1003.77V504.237C1003.77 509.781 1000.22 511.936 995.356 511.936C990.416 511.936 987.92 509.781 987 507.337L976.646 508.73C977.986 515.089 984.214 519.977 995.094 519.977ZM995.33 495.013C989.838 495.013 986.842 490.651 986.842 483.687C986.842 476.828 989.785 472.019 995.33 472.019C1000.77 472.019 1003.82 476.618 1003.82 483.687C1003.82 490.808 1000.72 495.013 995.33 495.013Z" fill="black"/>
</svg>
