<svg width="1200" height="900" viewBox="0 0 1200 900" fill="none" xmlns="http://www.w3.org/2000/svg">
<path fill-rule="evenodd" clip-rule="evenodd" d="M853 166.6V733C853 740.511 846.906 746.6 839.39 746.6H360.61C353.095 746.6 347 740.511 347 733V166.6C347 159.089 353.094 153 360.61 153H839.39C846.905 153 853 159.089 853 166.6Z" fill="#D2D2D2"/>
<path fill-rule="evenodd" clip-rule="evenodd" d="M433.8 719.4H833.4V729.84H433.8V719.4ZM433.8 702.6H833.4V713.04H433.8V702.6ZM433.8 686.6H833.4V697.04H433.8V686.6ZM366.2 171.4H833.4V181.8H366.2V171.4Z" fill="#A3A3A3"/>
<path fill-rule="evenodd" clip-rule="evenodd" d="M371.66 200.232H828.34C829.055 200.232 829.763 200.372 830.423 200.646C831.084 200.919 831.684 201.32 832.19 201.826C832.695 202.331 833.096 202.931 833.37 203.592C833.644 204.252 833.785 204.96 833.785 205.675V662.303C833.785 663.747 833.211 665.131 832.19 666.152C831.169 667.173 829.785 667.747 828.341 667.747H371.659C370.215 667.747 368.83 667.173 367.809 666.152C366.788 665.131 366.215 663.747 366.215 662.303V205.675C366.215 204.231 366.789 202.847 367.81 201.826C368.831 200.805 370.215 200.232 371.659 200.232H371.66Z" fill="#EFFFBD"/>
<path d="M391.675 683.719C391.217 683.746 390.768 683.865 390.357 684.069L372.511 692.578C372.051 692.797 371.647 693.117 371.328 693.514C371.01 693.911 370.785 694.375 370.671 694.871L366.301 713.975C366.197 714.419 366.185 714.88 366.268 715.328C366.351 715.776 366.525 716.203 366.781 716.58C366.843 716.673 366.907 716.762 366.974 716.849L379.304 732.177C379.955 732.977 380.934 733.437 381.965 733.433H401.741C402.251 733.43 402.754 733.315 403.215 733.096C403.675 732.876 404.082 732.558 404.405 732.163L416.729 716.831C417.375 716.031 417.617 714.974 417.369 713.971L412.972 694.853C412.857 694.357 412.632 693.894 412.313 693.497C411.995 693.1 411.591 692.78 411.132 692.56L393.313 684.07C392.799 683.817 392.231 683.697 391.659 683.72L391.675 683.719Z" fill="#4A4A4A"/>
<path d="M391.838 690.229C391.224 690.272 390.758 690.799 390.79 691.414V691.714C390.818 692.056 390.87 692.394 390.937 692.728C391.035 693.368 391.071 694.018 391.043 694.666C390.981 694.88 390.86 695.071 390.693 695.218L390.67 695.67C390.021 695.724 389.377 695.823 388.743 695.967C386.074 696.568 383.646 697.954 381.771 699.946L381.387 699.674C381.282 699.706 381.173 699.716 381.064 699.705C380.955 699.694 380.85 699.662 380.754 699.61C380.234 699.225 379.753 698.791 379.318 698.313C379.099 698.051 378.865 697.803 378.618 697.568L378.381 697.38C378.17 697.211 377.911 697.113 377.641 697.1C377.48 697.091 377.318 697.121 377.171 697.187C377.023 697.252 376.893 697.352 376.791 697.477C376.617 697.72 376.547 698.023 376.596 698.318C376.645 698.613 376.809 698.877 377.052 699.051L377.273 699.227C377.558 699.417 377.853 699.589 378.157 699.744C378.728 700.06 379.264 700.435 379.755 700.864C379.882 701.046 379.956 701.259 379.968 701.48L380.318 701.8C378.433 704.628 377.659 708.052 378.143 711.416L377.694 711.544C377.578 711.73 377.422 711.887 377.237 712.004C376.611 712.172 375.971 712.278 375.325 712.321C374.982 712.328 374.64 712.355 374.3 712.401L374.016 712.465H373.986C373.789 712.492 373.604 712.574 373.451 712.7C373.298 712.826 373.183 712.993 373.119 713.18C373.055 713.368 373.044 713.57 373.087 713.764C373.131 713.957 373.227 714.135 373.366 714.277C373.651 714.565 374.076 714.667 374.461 714.541H374.481L374.771 714.509C375.097 714.411 375.416 714.295 375.728 714.159C376.329 713.918 376.952 713.736 377.588 713.616C377.809 713.629 378.021 713.704 378.2 713.832L378.68 713.752C379.72 716.981 381.908 719.717 384.83 721.442L384.634 721.85C384.724 722.038 384.757 722.246 384.73 722.452C384.465 723.065 384.142 723.651 383.764 724.201C383.557 724.474 383.365 724.759 383.191 725.054L383.055 725.342C382.956 725.513 382.907 725.708 382.912 725.906C382.917 726.104 382.977 726.296 383.085 726.462C383.192 726.627 383.343 726.76 383.522 726.846C383.7 726.931 383.898 726.965 384.095 726.945C384.498 726.9 384.84 726.632 384.981 726.253L385.114 725.981C385.236 725.661 385.338 725.334 385.422 725.005C385.705 724.305 385.859 723.554 386.246 723.09C386.373 722.971 386.532 722.892 386.704 722.865L386.944 722.428C390.11 723.645 393.614 723.654 396.786 722.452L396.999 722.861C397.217 722.894 397.412 723.012 397.543 723.189C397.844 723.762 398.088 724.362 398.273 724.982C398.358 725.314 398.463 725.641 398.584 725.96L398.717 726.233C398.787 726.418 398.907 726.58 399.063 726.701C399.219 726.822 399.406 726.898 399.603 726.92C399.799 726.942 399.998 726.908 400.177 726.824C400.356 726.74 400.508 726.608 400.617 726.443C400.837 726.103 400.847 725.669 400.643 725.32L400.503 725.032C400.329 724.738 400.138 724.454 399.931 724.182C399.563 723.646 399.242 723.08 398.971 722.489C398.945 722.381 398.941 722.268 398.96 722.158C398.979 722.048 399.019 721.943 399.079 721.849C399.011 721.71 398.951 721.566 398.901 721.419C401.816 719.681 403.994 716.935 405.023 713.701L405.477 713.781C405.64 713.633 405.855 713.553 406.075 713.56C406.71 713.682 407.333 713.88 407.935 714.104C408.248 714.248 408.568 714.37 408.893 714.473C408.97 714.493 409.083 714.511 409.168 714.532H409.189C409.378 714.593 409.58 714.601 409.773 714.553C409.966 714.506 410.142 714.407 410.282 714.265C410.422 714.124 410.519 713.947 410.564 713.753C410.609 713.56 410.599 713.357 410.536 713.169C410.471 712.981 410.356 712.815 410.202 712.689C410.048 712.563 409.863 712.482 409.666 712.455L409.356 712.382C409.015 712.336 408.673 712.309 408.329 712.302C407.683 712.26 407.042 712.154 406.417 711.986C406.224 711.878 406.065 711.718 405.957 711.525L405.524 711.397C405.985 708.035 405.195 704.62 403.304 701.802L403.682 701.452C403.667 701.232 403.739 701.015 403.882 700.847C404.373 700.426 404.903 700.052 405.466 699.733C405.771 699.578 406.066 699.405 406.35 699.216L406.584 699.026C406.713 698.946 406.824 698.84 406.909 698.714C406.994 698.589 407.052 698.447 407.078 698.297C407.104 698.147 407.098 697.994 407.06 697.847C407.023 697.7 406.954 697.563 406.86 697.444C406.765 697.325 406.646 697.228 406.511 697.159C406.376 697.089 406.228 697.049 406.077 697.041C405.925 697.033 405.774 697.058 405.632 697.113C405.491 697.168 405.362 697.252 405.256 697.36L405.019 697.55C404.772 697.784 404.538 698.033 404.319 698.294C403.897 698.777 403.429 699.218 402.922 699.611C402.717 699.694 402.493 699.719 402.275 699.681L401.87 699.971C399.531 697.519 396.382 696 393.007 695.695C393.007 695.535 392.987 695.295 392.983 695.22C392.801 695.095 392.675 694.904 392.633 694.688C392.611 694.042 392.652 693.395 392.755 692.757C392.825 692.42 392.872 692.084 392.903 691.743V691.423C392.919 691.127 392.817 690.837 392.621 690.615C392.424 690.394 392.149 690.258 391.853 690.238L391.839 690.23L391.838 690.229ZM390.503 698.499L390.183 704.093H390.159C390.149 704.262 390.095 704.426 390.001 704.568C389.908 704.71 389.779 704.824 389.627 704.9C389.475 704.977 389.304 705.01 389.134 704.995C388.965 704.98 388.803 704.916 388.667 704.813L384.079 701.563C385.54 700.129 387.372 699.131 389.369 698.683C389.743 698.603 390.12 698.542 390.5 698.5H390.503V698.499ZM393.173 698.499C395.583 698.799 397.827 699.882 399.563 701.579L395.019 704.809C394.881 704.919 394.716 704.989 394.541 705.009C394.366 705.03 394.188 705.001 394.029 704.925C393.87 704.85 393.735 704.731 393.639 704.583C393.544 704.434 393.493 704.262 393.491 704.086L393.174 698.5L393.173 698.499ZM382.413 703.667L386.609 707.41V707.434C386.737 707.546 386.832 707.691 386.884 707.852C386.936 708.014 386.944 708.187 386.906 708.352C386.868 708.518 386.786 708.67 386.669 708.793C386.551 708.916 386.403 709.005 386.239 709.05V709.066L380.855 710.614C380.588 708.188 381.137 705.743 382.415 703.664L382.413 703.667ZM401.233 703.667C402.508 705.74 403.071 708.172 402.838 710.595L397.446 709.042V709.021C397.282 708.977 397.132 708.889 397.015 708.766C396.897 708.643 396.815 708.49 396.778 708.324C396.741 708.158 396.748 707.985 396.801 707.823C396.853 707.661 396.948 707.516 397.076 707.404L401.239 703.68L401.233 703.667ZM390.979 707.702H392.695L393.745 709.034L393.363 710.699L391.821 711.439L390.276 710.699L389.912 709.034L390.979 707.702V707.702ZM396.477 712.246C396.549 712.238 396.621 712.238 396.693 712.246L402.245 713.182C401.433 715.492 399.868 717.462 397.802 718.775L395.656 713.581C395.597 713.442 395.573 713.29 395.584 713.139C395.596 712.989 395.644 712.843 395.724 712.714C395.804 712.586 395.913 712.479 396.043 712.401C396.173 712.324 396.32 712.279 396.471 712.27L396.477 712.246ZM387.153 712.27C387.307 712.273 387.459 712.313 387.594 712.388C387.729 712.463 387.844 712.569 387.928 712.699C388.012 712.828 388.063 712.976 388.076 713.13C388.089 713.283 388.064 713.437 388.003 713.579V713.599L385.871 718.752C383.83 717.443 382.277 715.498 381.454 713.217L386.958 712.284C387.02 712.278 387.082 712.278 387.144 712.284L387.154 712.27H387.153ZM391.803 714.51C392.16 714.5 392.493 714.69 392.663 715.004H392.683L395.396 719.899L394.312 720.219C392.316 720.676 390.233 720.568 388.295 719.909L391.017 715.014C391.098 714.873 391.215 714.755 391.355 714.672C391.495 714.589 391.654 714.544 391.817 714.541L391.803 714.511V714.51Z" fill="white" stroke="white" stroke-width="0.5"/>
<rect x="389" y="556" width="422" height="92" fill="#8FBE00"/>
<rect x="389" y="458" width="422" height="92" fill="#8FBE00"/>
<rect x="389" y="360" width="422" height="92" fill="#8FBE00"/>
<path fill-rule="evenodd" clip-rule="evenodd" d="M389 262H395V267.111H394.024V268H389V262ZM389 354H394.024V348.889H395V338.667H389V354ZM805 354H811V348H805.976V348.889H805V354ZM811 262H805.976V267.111H805V277.333H811V262ZM404.072 262V268H414.119V262H404.072ZM424.167 262V268H434.214V262H424.167ZM444.262 262V268H454.31V262H444.262ZM464.357 262V268H474.405V262H464.357ZM484.452 262V268H494.5V262H484.452ZM504.548 262V268H514.595V262H504.548ZM524.643 262V268H534.69V262H524.643ZM544.738 262V268H554.786V262H544.738ZM564.833 262V268H574.881V262H564.833ZM584.928 262V268H594.976V262H584.928ZM605.024 262V268H615.071V262H605.024ZM625.119 262V268H635.167V262H625.119ZM645.214 262V268H655.262V262H645.214ZM665.309 262V268H675.357V262H665.309ZM685.405 262V268H695.452V262H685.405ZM705.5 262V268H715.548V262H705.5ZM725.595 262V268H735.643V262H725.595ZM745.69 262V268H755.738V262H745.69ZM765.786 262V268H775.833V262H765.786ZM785.881 262V268H795.929V262H785.881ZM811 287.556H805V297.778H811V287.556ZM811 308H805V318.222H811V308ZM811 328.444H805V338.667H811V328.444ZM795.928 354V348H785.881V354H795.928ZM775.833 354V348H765.786V354H775.833ZM755.738 354V348H745.69V354H755.738ZM735.643 354V348H725.595V354H735.643ZM715.548 354V348H705.5V354H715.548ZM695.452 354V348H685.405V354H695.452ZM675.357 354V348H665.31V354H675.357ZM655.262 354V348H645.214V354H655.262ZM635.167 354V348H625.119V354H635.167ZM615.072 354V348H605.024V354H615.072ZM594.976 354V348H584.929V354H594.976ZM574.881 354V348H564.833V354H574.881ZM554.786 354V348H544.738V354H554.786ZM534.691 354V348H524.643V354H534.691ZM514.595 354V348H504.548V354H514.595ZM494.5 354V348H484.452V354H494.5ZM474.405 354V348H464.357V354H474.405ZM454.31 354V348H444.262V354H454.31ZM434.214 354V348H424.167V354H434.214ZM414.119 354V348H404.071V354H414.119ZM389 328.444H395V318.222H389V328.444ZM389 308H395V297.778H389V308ZM389 287.556H395V277.333H389V287.556Z" fill="#8FBE00"/>
</svg>
