<svg width="1200" height="900" viewBox="0 0 1200 900" fill="none" xmlns="http://www.w3.org/2000/svg">
<path fill-rule="evenodd" clip-rule="evenodd" d="M853 166.6V733C853 740.511 846.906 746.6 839.39 746.6H360.61C353.095 746.6 347 740.511 347 733V166.6C347 159.089 353.094 153 360.61 153H839.39C846.905 153 853 159.089 853 166.6Z" fill="#D2D2D2"/>
<path fill-rule="evenodd" clip-rule="evenodd" d="M433.8 719.4H833.4V729.84H433.8V719.4ZM433.8 702.6H833.4V713.04H433.8V702.6ZM433.8 686.6H833.4V697.04H433.8V686.6ZM366.2 171.4H833.4V181.8H366.2V171.4Z" fill="#A3A3A3"/>
<path fill-rule="evenodd" clip-rule="evenodd" d="M371.66 200.232H828.34C829.055 200.232 829.763 200.372 830.423 200.646C831.084 200.919 831.684 201.32 832.19 201.826C832.695 202.331 833.096 202.931 833.37 203.592C833.644 204.252 833.785 204.96 833.785 205.675V662.303C833.785 663.747 833.211 665.131 832.19 666.152C831.169 667.173 829.785 667.747 828.341 667.747H371.659C370.215 667.747 368.83 667.173 367.809 666.152C366.788 665.131 366.215 663.747 366.215 662.303V205.675C366.215 204.231 366.789 202.847 367.81 201.826C368.831 200.805 370.215 200.232 371.659 200.232H371.66Z" fill="#EFFFBD"/>
<path d="M391.675 683.719C391.217 683.746 390.768 683.865 390.357 684.069L372.511 692.578C372.051 692.797 371.647 693.117 371.328 693.514C371.01 693.911 370.785 694.375 370.671 694.871L366.301 713.975C366.197 714.419 366.185 714.88 366.268 715.328C366.351 715.776 366.525 716.203 366.781 716.58C366.843 716.673 366.907 716.762 366.974 716.849L379.304 732.177C379.955 732.977 380.934 733.437 381.965 733.433H401.741C402.251 733.43 402.754 733.315 403.215 733.096C403.675 732.876 404.082 732.558 404.405 732.163L416.729 716.831C417.375 716.031 417.617 714.974 417.369 713.971L412.972 694.853C412.857 694.357 412.632 693.894 412.313 693.497C411.995 693.1 411.591 692.78 411.132 692.56L393.313 684.07C392.799 683.817 392.231 683.697 391.659 683.72L391.675 683.719Z" fill="#4A4A4A"/>
<path d="M391.838 690.229C391.224 690.272 390.758 690.799 390.79 691.414V691.714C390.818 692.056 390.87 692.394 390.937 692.728C391.035 693.368 391.071 694.018 391.043 694.666C390.981 694.88 390.86 695.071 390.693 695.218L390.67 695.67C390.021 695.724 389.377 695.823 388.743 695.967C386.074 696.568 383.646 697.954 381.771 699.946L381.387 699.674C381.282 699.706 381.173 699.716 381.064 699.705C380.955 699.694 380.85 699.662 380.754 699.61C380.234 699.225 379.753 698.791 379.318 698.313C379.099 698.051 378.865 697.803 378.618 697.568L378.381 697.38C378.17 697.211 377.911 697.113 377.641 697.1C377.48 697.091 377.318 697.121 377.171 697.187C377.023 697.252 376.893 697.352 376.791 697.477C376.617 697.72 376.547 698.023 376.596 698.318C376.645 698.613 376.809 698.877 377.052 699.051L377.273 699.227C377.558 699.417 377.853 699.589 378.157 699.744C378.728 700.06 379.264 700.435 379.755 700.864C379.882 701.046 379.956 701.259 379.968 701.48L380.318 701.8C378.433 704.628 377.659 708.052 378.143 711.416L377.694 711.544C377.578 711.73 377.422 711.887 377.237 712.004C376.611 712.172 375.971 712.278 375.325 712.321C374.982 712.328 374.64 712.355 374.3 712.401L374.016 712.465H373.986C373.789 712.492 373.604 712.574 373.451 712.7C373.298 712.826 373.183 712.993 373.119 713.18C373.055 713.368 373.044 713.57 373.087 713.764C373.131 713.957 373.227 714.135 373.366 714.277C373.651 714.565 374.076 714.667 374.461 714.541H374.481L374.771 714.509C375.097 714.411 375.416 714.295 375.728 714.159C376.329 713.918 376.952 713.736 377.588 713.616C377.809 713.629 378.021 713.704 378.2 713.832L378.68 713.752C379.72 716.981 381.908 719.717 384.83 721.442L384.634 721.85C384.724 722.038 384.757 722.246 384.73 722.452C384.465 723.065 384.142 723.651 383.764 724.201C383.557 724.474 383.365 724.759 383.191 725.054L383.055 725.342C382.956 725.513 382.907 725.708 382.912 725.906C382.917 726.104 382.977 726.296 383.085 726.462C383.192 726.627 383.343 726.76 383.522 726.846C383.7 726.931 383.898 726.965 384.095 726.945C384.498 726.9 384.84 726.632 384.981 726.253L385.114 725.981C385.236 725.661 385.338 725.334 385.422 725.005C385.705 724.305 385.859 723.554 386.246 723.09C386.373 722.971 386.532 722.892 386.704 722.865L386.944 722.428C390.11 723.645 393.614 723.654 396.786 722.452L396.999 722.861C397.217 722.894 397.412 723.012 397.543 723.189C397.844 723.762 398.088 724.362 398.273 724.982C398.358 725.314 398.463 725.641 398.584 725.96L398.717 726.233C398.787 726.418 398.907 726.58 399.063 726.701C399.219 726.822 399.406 726.898 399.603 726.92C399.799 726.942 399.998 726.908 400.177 726.824C400.356 726.74 400.508 726.608 400.617 726.443C400.837 726.103 400.847 725.669 400.643 725.32L400.503 725.032C400.329 724.738 400.138 724.454 399.931 724.182C399.563 723.646 399.242 723.08 398.971 722.489C398.945 722.381 398.941 722.268 398.96 722.158C398.979 722.048 399.019 721.943 399.079 721.849C399.011 721.71 398.951 721.566 398.901 721.419C401.816 719.681 403.994 716.935 405.023 713.701L405.477 713.781C405.64 713.633 405.855 713.553 406.075 713.56C406.71 713.682 407.333 713.88 407.935 714.104C408.248 714.248 408.568 714.37 408.893 714.473C408.97 714.493 409.083 714.511 409.168 714.532H409.189C409.378 714.593 409.58 714.601 409.773 714.553C409.966 714.506 410.142 714.407 410.282 714.265C410.422 714.124 410.519 713.947 410.564 713.753C410.609 713.56 410.599 713.357 410.536 713.169C410.471 712.981 410.356 712.815 410.202 712.689C410.048 712.563 409.863 712.482 409.666 712.455L409.356 712.382C409.015 712.336 408.673 712.309 408.329 712.302C407.683 712.26 407.042 712.154 406.417 711.986C406.224 711.878 406.065 711.718 405.957 711.525L405.524 711.397C405.985 708.035 405.195 704.62 403.304 701.802L403.682 701.452C403.667 701.232 403.739 701.015 403.882 700.847C404.373 700.426 404.903 700.052 405.466 699.733C405.771 699.578 406.066 699.405 406.35 699.216L406.584 699.026C406.713 698.946 406.824 698.84 406.909 698.714C406.994 698.589 407.052 698.447 407.078 698.297C407.104 698.147 407.098 697.994 407.06 697.847C407.023 697.7 406.954 697.563 406.86 697.444C406.765 697.325 406.646 697.228 406.511 697.159C406.376 697.089 406.228 697.049 406.077 697.041C405.925 697.033 405.774 697.058 405.632 697.113C405.491 697.168 405.362 697.252 405.256 697.36L405.019 697.55C404.772 697.784 404.538 698.033 404.319 698.294C403.897 698.777 403.429 699.218 402.922 699.611C402.717 699.694 402.493 699.719 402.275 699.681L401.87 699.971C399.531 697.519 396.382 696 393.007 695.695C393.007 695.535 392.987 695.295 392.983 695.22C392.801 695.095 392.675 694.904 392.633 694.688C392.611 694.042 392.652 693.395 392.755 692.757C392.825 692.42 392.872 692.084 392.903 691.743V691.423C392.919 691.127 392.817 690.837 392.621 690.615C392.424 690.394 392.149 690.258 391.853 690.238L391.839 690.23L391.838 690.229ZM390.503 698.499L390.183 704.093H390.159C390.149 704.262 390.095 704.426 390.001 704.568C389.908 704.71 389.779 704.824 389.627 704.9C389.475 704.977 389.304 705.01 389.134 704.995C388.965 704.98 388.803 704.916 388.667 704.813L384.079 701.563C385.54 700.129 387.372 699.131 389.369 698.683C389.743 698.603 390.12 698.542 390.5 698.5H390.503V698.499ZM393.173 698.499C395.583 698.799 397.827 699.882 399.563 701.579L395.019 704.809C394.881 704.919 394.716 704.989 394.541 705.009C394.366 705.03 394.188 705.001 394.029 704.925C393.87 704.85 393.735 704.731 393.639 704.583C393.544 704.434 393.493 704.262 393.491 704.086L393.174 698.5L393.173 698.499ZM382.413 703.667L386.609 707.41V707.434C386.737 707.546 386.832 707.691 386.884 707.852C386.936 708.014 386.944 708.187 386.906 708.352C386.868 708.518 386.786 708.67 386.669 708.793C386.551 708.916 386.403 709.005 386.239 709.05V709.066L380.855 710.614C380.588 708.188 381.137 705.743 382.415 703.664L382.413 703.667ZM401.233 703.667C402.508 705.74 403.071 708.172 402.838 710.595L397.446 709.042V709.021C397.282 708.977 397.132 708.889 397.015 708.766C396.897 708.643 396.815 708.49 396.778 708.324C396.741 708.158 396.748 707.985 396.801 707.823C396.853 707.661 396.948 707.516 397.076 707.404L401.239 703.68L401.233 703.667ZM390.979 707.702H392.695L393.745 709.034L393.363 710.699L391.821 711.439L390.276 710.699L389.912 709.034L390.979 707.702V707.702ZM396.477 712.246C396.549 712.238 396.621 712.238 396.693 712.246L402.245 713.182C401.433 715.492 399.868 717.462 397.802 718.775L395.656 713.581C395.597 713.442 395.573 713.29 395.584 713.139C395.596 712.989 395.644 712.843 395.724 712.714C395.804 712.586 395.913 712.479 396.043 712.401C396.173 712.324 396.32 712.279 396.471 712.27L396.477 712.246ZM387.153 712.27C387.307 712.273 387.459 712.313 387.594 712.388C387.729 712.463 387.844 712.569 387.928 712.699C388.012 712.828 388.063 712.976 388.076 713.13C388.089 713.283 388.064 713.437 388.003 713.579V713.599L385.871 718.752C383.83 717.443 382.277 715.498 381.454 713.217L386.958 712.284C387.02 712.278 387.082 712.278 387.144 712.284L387.154 712.27H387.153ZM391.803 714.51C392.16 714.5 392.493 714.69 392.663 715.004H392.683L395.396 719.899L394.312 720.219C392.316 720.676 390.233 720.568 388.295 719.909L391.017 715.014C391.098 714.873 391.215 714.755 391.355 714.672C391.495 714.589 391.654 714.544 391.817 714.541L391.803 714.511V714.51Z" fill="white" stroke="white" stroke-width="0.5"/>
<path fill-rule="evenodd" clip-rule="evenodd" d="M389 556H395V561.111H394.024V562H389V556ZM389 648H394.024V642.889H395V632.667H389V648ZM805 648H811V642H805.976V642.889H805V648ZM811 556H805.976V561.111H805V571.333H811V556ZM404.072 556V562H414.119V556H404.072ZM424.167 556V562H434.214V556H424.167ZM444.262 556V562H454.31V556H444.262ZM464.357 556V562H474.405V556H464.357ZM484.452 556V562H494.5V556H484.452ZM504.548 556V562H514.595V556H504.548ZM524.643 556V562H534.69V556H524.643ZM544.738 556V562H554.786V556H544.738ZM564.833 556V562H574.881V556H564.833ZM584.928 556V562H594.976V556H584.928ZM605.024 556V562H615.071V556H605.024ZM625.119 556V562H635.167V556H625.119ZM645.214 556V562H655.262V556H645.214ZM665.309 556V562H675.357V556H665.309ZM685.405 556V562H695.452V556H685.405ZM705.5 556V562H715.548V556H705.5ZM725.595 556V562H735.643V556H725.595ZM745.69 556V562H755.738V556H745.69ZM765.786 556V562H775.833V556H765.786ZM785.881 556V562H795.929V556H785.881ZM811 581.556H805V591.778H811V581.556ZM811 602H805V612.222H811V602ZM811 622.444H805V632.667H811V622.444ZM795.928 648V642H785.881V648H795.928ZM775.833 648V642H765.786V648H775.833ZM755.738 648V642H745.69V648H755.738ZM735.643 648V642H725.595V648H735.643ZM715.548 648V642H705.5V648H715.548ZM695.452 648V642H685.405V648H695.452ZM675.357 648V642H665.31V648H675.357ZM655.262 648V642H645.214V648H655.262ZM635.167 648V642H625.119V648H635.167ZM615.072 648V642H605.024V648H615.072ZM594.976 648V642H584.929V648H594.976ZM574.881 648V642H564.833V648H574.881ZM554.786 648V642H544.738V648H554.786ZM534.691 648V642H524.643V648H534.691ZM514.595 648V642H504.548V648H514.595ZM494.5 648V642H484.452V648H494.5ZM474.405 648V642H464.357V648H474.405ZM454.31 648V642H444.262V648H454.31ZM434.214 648V642H424.167V648H434.214ZM414.119 648V642H404.071V648H414.119ZM389 622.444H395V612.222H389V622.444ZM389 602H395V591.778H389V602ZM389 581.556H395V571.333H389V581.556Z" fill="#8FBE00"/>
<path fill-rule="evenodd" clip-rule="evenodd" d="M389 458H395V463.111H394.024V464H389V458ZM389 550H394.024V544.889H395V534.667H389V550ZM805 550H811V544H805.976V544.889H805V550ZM811 458H805.976V463.111H805V473.333H811V458ZM404.072 458V464H414.119V458H404.072ZM424.167 458V464H434.214V458H424.167ZM444.262 458V464H454.31V458H444.262ZM464.357 458V464H474.405V458H464.357ZM484.452 458V464H494.5V458H484.452ZM504.548 458V464H514.595V458H504.548ZM524.643 458V464H534.69V458H524.643ZM544.738 458V464H554.786V458H544.738ZM564.833 458V464H574.881V458H564.833ZM584.928 458V464H594.976V458H584.928ZM605.024 458V464H615.071V458H605.024ZM625.119 458V464H635.167V458H625.119ZM645.214 458V464H655.262V458H645.214ZM665.309 458V464H675.357V458H665.309ZM685.405 458V464H695.452V458H685.405ZM705.5 458V464H715.548V458H705.5ZM725.595 458V464H735.643V458H725.595ZM745.69 458V464H755.738V458H745.69ZM765.786 458V464H775.833V458H765.786ZM785.881 458V464H795.929V458H785.881ZM811 483.556H805V493.778H811V483.556ZM811 504H805V514.222H811V504ZM811 524.444H805V534.667H811V524.444ZM795.928 550V544H785.881V550H795.928ZM775.833 550V544H765.786V550H775.833ZM755.738 550V544H745.69V550H755.738ZM735.643 550V544H725.595V550H735.643ZM715.548 550V544H705.5V550H715.548ZM695.452 550V544H685.405V550H695.452ZM675.357 550V544H665.31V550H675.357ZM655.262 550V544H645.214V550H655.262ZM635.167 550V544H625.119V550H635.167ZM615.072 550V544H605.024V550H615.072ZM594.976 550V544H584.929V550H594.976ZM574.881 550V544H564.833V550H574.881ZM554.786 550V544H544.738V550H554.786ZM534.691 550V544H524.643V550H534.691ZM514.595 550V544H504.548V550H514.595ZM494.5 550V544H484.452V550H494.5ZM474.405 550V544H464.357V550H474.405ZM454.31 550V544H444.262V550H454.31ZM434.214 550V544H424.167V550H434.214ZM414.119 550V544H404.071V550H414.119ZM389 524.444H395V514.222H389V524.444ZM389 504H395V493.778H389V504ZM389 483.556H395V473.333H389V483.556Z" fill="#8FBE00"/>
<path fill-rule="evenodd" clip-rule="evenodd" d="M389 360H395V365.111H394.024V366H389V360ZM389 452H394.024V446.889H395V436.667H389V452ZM805 452H811V446H805.976V446.889H805V452ZM811 360H805.976V365.111H805V375.333H811V360ZM404.072 360V366H414.119V360H404.072ZM424.167 360V366H434.214V360H424.167ZM444.262 360V366H454.31V360H444.262ZM464.357 360V366H474.405V360H464.357ZM484.452 360V366H494.5V360H484.452ZM504.548 360V366H514.595V360H504.548ZM524.643 360V366H534.69V360H524.643ZM544.738 360V366H554.786V360H544.738ZM564.833 360V366H574.881V360H564.833ZM584.928 360V366H594.976V360H584.928ZM605.024 360V366H615.071V360H605.024ZM625.119 360V366H635.167V360H625.119ZM645.214 360V366H655.262V360H645.214ZM665.309 360V366H675.357V360H665.309ZM685.405 360V366H695.452V360H685.405ZM705.5 360V366H715.548V360H705.5ZM725.595 360V366H735.643V360H725.595ZM745.69 360V366H755.738V360H745.69ZM765.786 360V366H775.833V360H765.786ZM785.881 360V366H795.929V360H785.881ZM811 385.556H805V395.778H811V385.556ZM811 406H805V416.222H811V406ZM811 426.444H805V436.667H811V426.444ZM795.928 452V446H785.881V452H795.928ZM775.833 452V446H765.786V452H775.833ZM755.738 452V446H745.69V452H755.738ZM735.643 452V446H725.595V452H735.643ZM715.548 452V446H705.5V452H715.548ZM695.452 452V446H685.405V452H695.452ZM675.357 452V446H665.31V452H675.357ZM655.262 452V446H645.214V452H655.262ZM635.167 452V446H625.119V452H635.167ZM615.072 452V446H605.024V452H615.072ZM594.976 452V446H584.929V452H594.976ZM574.881 452V446H564.833V452H574.881ZM554.786 452V446H544.738V452H554.786ZM534.691 452V446H524.643V452H534.691ZM514.595 452V446H504.548V452H514.595ZM494.5 452V446H484.452V452H494.5ZM474.405 452V446H464.357V452H474.405ZM454.31 452V446H444.262V452H454.31ZM434.214 452V446H424.167V452H434.214ZM414.119 452V446H404.071V452H414.119ZM389 426.444H395V416.222H389V426.444ZM389 406H395V395.778H389V406ZM389 385.556H395V375.333H389V385.556Z" fill="#8FBE00"/>
<path fill-rule="evenodd" clip-rule="evenodd" d="M389 262H395V267.111H394.024V268H389V262ZM389 354H394.024V348.889H395V338.667H389V354ZM805 354H811V348H805.976V348.889H805V354ZM811 262H805.976V267.111H805V277.333H811V262ZM404.072 262V268H414.119V262H404.072ZM424.167 262V268H434.214V262H424.167ZM444.262 262V268H454.31V262H444.262ZM464.357 262V268H474.405V262H464.357ZM484.452 262V268H494.5V262H484.452ZM504.548 262V268H514.595V262H504.548ZM524.643 262V268H534.69V262H524.643ZM544.738 262V268H554.786V262H544.738ZM564.833 262V268H574.881V262H564.833ZM584.928 262V268H594.976V262H584.928ZM605.024 262V268H615.071V262H605.024ZM625.119 262V268H635.167V262H625.119ZM645.214 262V268H655.262V262H645.214ZM665.309 262V268H675.357V262H665.309ZM685.405 262V268H695.452V262H685.405ZM705.5 262V268H715.548V262H705.5ZM725.595 262V268H735.643V262H725.595ZM745.69 262V268H755.738V262H745.69ZM765.786 262V268H775.833V262H765.786ZM785.881 262V268H795.929V262H785.881ZM811 287.556H805V297.778H811V287.556ZM811 308H805V318.222H811V308ZM811 328.444H805V338.667H811V328.444ZM795.928 354V348H785.881V354H795.928ZM775.833 354V348H765.786V354H775.833ZM755.738 354V348H745.69V354H755.738ZM735.643 354V348H725.595V354H735.643ZM715.548 354V348H705.5V354H715.548ZM695.452 354V348H685.405V354H695.452ZM675.357 354V348H665.31V354H675.357ZM655.262 354V348H645.214V354H655.262ZM635.167 354V348H625.119V354H635.167ZM615.072 354V348H605.024V354H615.072ZM594.976 354V348H584.929V354H594.976ZM574.881 354V348H564.833V354H574.881ZM554.786 354V348H544.738V354H554.786ZM534.691 354V348H524.643V354H534.691ZM514.595 354V348H504.548V354H514.595ZM494.5 354V348H484.452V354H494.5ZM474.405 354V348H464.357V354H474.405ZM454.31 354V348H444.262V354H454.31ZM434.214 354V348H424.167V354H434.214ZM414.119 354V348H404.071V354H414.119ZM389 328.444H395V318.222H389V328.444ZM389 308H395V297.778H389V308ZM389 287.556H395V277.333H389V287.556Z" fill="#8FBE00"/>
<path d="M875 745.613C879.24 745.613 882.92 745.213 886.043 744.41C889.165 743.608 891.743 742.305 893.777 740.5C895.811 738.695 897.322 736.296 898.311 733.303C899.299 730.309 899.793 726.621 899.793 722.238V466.863C899.793 462.28 900.753 458.986 902.672 456.98C904.592 454.975 907.972 453.973 912.812 453.973V441.598C907.972 441.598 904.592 440.602 902.672 438.611C900.752 436.621 899.793 433.319 899.793 428.707V223.375C899.793 218.992 899.299 215.304 898.311 212.311C897.322 209.317 895.811 206.918 893.777 205.113C891.743 203.309 889.165 202.005 886.043 201.203C882.921 200.401 879.24 200 875 200V210.184C878.323 210.184 880.915 210.671 882.777 211.644C884.639 212.618 885.936 214.13 886.666 216.178C887.396 218.226 887.762 220.84 887.762 224.02V432.66C887.762 434.866 888.092 436.907 888.75 438.783C889.409 440.66 890.626 442.285 892.402 443.66C894.178 445.035 896.714 446.11 900.008 446.883C900.294 446.95 900.588 447.014 900.889 447.076L900.909 447.081V448.516L900.889 448.52C900.739 448.55 900.589 448.58 900.443 448.612L900.008 448.709C896.714 449.469 894.178 450.542 892.402 451.932C890.626 453.321 889.409 454.954 888.75 456.83C888.091 458.706 887.762 460.747 887.762 462.953V721.593C887.762 724.745 887.396 727.344 886.666 729.393C885.936 731.441 884.639 732.959 882.777 733.947C880.915 734.936 878.323 735.43 875 735.43V745.613Z" fill="#B5B5B5" fill-opacity="0.85"/>
<path d="M327.812 462.613C323.572 462.613 319.892 462.213 316.769 461.41C313.647 460.608 311.069 459.305 309.035 457.5C307.001 455.695 305.49 453.296 304.501 450.303C303.513 447.309 303.019 443.621 303.019 439.238V428.863C303.019 424.28 302.059 420.986 300.14 418.98C298.22 416.975 294.84 415.973 290 415.973V403.598C294.84 403.598 298.22 402.602 300.14 400.611C302.06 398.621 303.019 395.319 303.019 390.707V380.375C303.019 375.992 303.513 372.304 304.501 369.311C305.49 366.317 307.001 363.918 309.035 362.113C311.069 360.309 313.647 359.005 316.769 358.203C319.891 357.401 323.572 357 327.812 357V367.184C324.489 367.184 321.897 367.671 320.035 368.644C318.173 369.618 316.876 371.13 316.146 373.178C315.416 375.226 315.05 377.84 315.05 381.02V394.66C315.05 396.866 314.72 398.907 314.062 400.783C313.403 402.66 312.186 404.285 310.41 405.66C308.634 407.035 306.098 408.11 302.804 408.883C302.518 408.95 302.224 409.014 301.923 409.076L301.903 409.081V410.516L301.923 410.52C302.073 410.55 302.223 410.58 302.369 410.612L302.804 410.709C306.098 411.469 308.634 412.542 310.41 413.932C312.186 415.321 313.403 416.954 314.062 418.83C314.721 420.706 315.05 422.747 315.05 424.953V438.593C315.05 441.745 315.416 444.344 316.146 446.393C316.876 448.441 318.173 449.959 320.035 450.947C321.897 451.936 324.489 452.43 327.812 452.43V462.613Z" fill="#B5B5B5" fill-opacity="0.85"/>
<path d="M943.229 435.338C948.807 435.338 952.815 432.356 952.827 428.347C952.815 425.256 950.437 422.733 947.467 422.238V422.069C950.05 421.538 951.898 419.304 951.91 416.587C951.898 412.76 948.227 409.935 943.229 409.935C938.218 409.935 934.548 412.76 934.56 416.587C934.548 419.292 936.371 421.538 939.003 422.069V422.238C935.984 422.733 933.63 425.256 933.642 428.347C933.63 432.356 937.651 435.338 943.229 435.338ZM943.229 431.499C940.741 431.499 939.075 430.026 939.075 427.937C939.075 425.8 940.826 424.254 943.229 424.254C945.619 424.254 947.382 425.8 947.382 427.937C947.382 430.038 945.704 431.499 943.229 431.499ZM943.229 420.451C941.14 420.451 939.655 419.087 939.655 417.131C939.655 415.199 941.116 413.871 943.229 413.871C945.33 413.871 946.803 415.211 946.803 417.131C946.803 419.087 945.305 420.451 943.229 420.451ZM972.004 418.266H977.316C976.64 413.376 972.33 409.935 966.74 409.935C960.208 409.935 955.173 414.643 955.173 422.661C955.173 430.484 959.882 435.338 966.848 435.338C973.091 435.338 977.546 431.39 977.546 424.882V421.767H967.199V425.703H972.511C972.439 428.77 970.35 430.714 966.873 430.714C962.949 430.714 960.473 427.78 960.473 422.612C960.473 417.469 963.045 414.559 966.824 414.559C969.517 414.559 971.34 415.947 972.004 418.266ZM980.453 435H991.018C996.572 435 999.53 432.102 999.53 428.166C999.53 424.508 996.91 422.298 994.096 422.165V421.924C996.668 421.344 998.564 419.521 998.564 416.612C998.564 412.905 995.811 410.273 990.353 410.273H980.453V435ZM985.681 430.726V424.158H990.064C992.575 424.158 994.133 425.607 994.133 427.647C994.133 429.506 992.865 430.726 989.943 430.726H985.681ZM985.681 420.62V414.499H989.653C991.971 414.499 993.287 415.694 993.287 417.481C993.287 419.437 991.694 420.62 989.557 420.62H985.681ZM1008.66 435H1013.81V423.868C1013.81 421.815 1015.11 420.451 1016.83 420.451C1018.52 420.451 1019.65 421.61 1019.65 423.433V435H1024.64V423.675C1024.64 421.755 1025.74 420.451 1027.61 420.451C1029.25 420.451 1030.48 421.477 1030.48 423.542V435H1035.61V422.528C1035.61 418.507 1033.22 416.213 1029.77 416.213C1027.05 416.213 1024.94 417.602 1024.18 419.727H1023.99C1023.39 417.577 1021.5 416.213 1018.95 416.213C1016.45 416.213 1014.56 417.541 1013.78 419.727H1013.57V416.455H1008.66V435ZM1047.11 435.362C1051.7 435.362 1054.79 433.129 1055.51 429.688L1050.75 429.374C1050.23 430.786 1048.91 431.523 1047.19 431.523C1044.62 431.523 1042.99 429.82 1042.99 427.055V427.043H1055.62V425.631C1055.62 419.328 1051.8 416.213 1046.9 416.213C1041.44 416.213 1037.91 420.089 1037.91 425.812C1037.91 431.692 1041.4 435.362 1047.11 435.362ZM1042.99 423.856C1043.1 421.743 1044.7 420.053 1046.99 420.053C1049.22 420.053 1050.77 421.646 1050.78 423.856H1042.99ZM1057.96 435H1063.1V423.868C1063.1 421.815 1064.4 420.451 1066.12 420.451C1067.81 420.451 1068.94 421.61 1068.94 423.433V435H1073.93V423.675C1073.93 421.755 1075.03 420.451 1076.9 420.451C1078.54 420.451 1079.77 421.477 1079.77 423.542V435H1084.9V422.528C1084.9 418.507 1082.51 416.213 1079.06 416.213C1076.34 416.213 1074.23 417.602 1073.47 419.727H1073.28C1072.69 417.577 1070.79 416.213 1068.24 416.213C1065.74 416.213 1063.85 417.541 1063.08 419.727H1062.86V416.455H1057.96V435ZM1096.33 435.362C1101.95 435.362 1105.45 431.511 1105.45 425.8C1105.45 420.053 1101.95 416.213 1096.33 416.213C1090.7 416.213 1087.2 420.053 1087.2 425.8C1087.2 431.511 1090.7 435.362 1096.33 435.362ZM1096.35 431.378C1093.76 431.378 1092.43 428.999 1092.43 425.763C1092.43 422.528 1093.76 420.137 1096.35 420.137C1098.9 420.137 1100.23 422.528 1100.23 425.763C1100.23 428.999 1098.9 431.378 1096.35 431.378ZM1107.78 435H1112.92V424.508C1112.92 422.226 1114.59 420.656 1116.86 420.656C1117.57 420.656 1118.55 420.777 1119.03 420.934V416.37C1118.57 416.261 1117.93 416.189 1117.41 416.189C1115.34 416.189 1113.64 417.396 1112.96 419.69H1112.77V416.455H1107.78V435ZM1124.41 441.955C1128.24 441.955 1130.27 439.999 1131.32 437.004L1138.53 416.479L1133.08 416.455L1129.2 430.074H1129.01L1125.17 416.455H1119.76L1126.42 435.531L1126.11 436.316C1125.44 438.055 1124.15 438.139 1122.33 437.584L1121.18 441.423C1121.91 441.737 1123.11 441.955 1124.41 441.955ZM934.004 470H951.632V465.726H941.249V465.557L944.859 462.019C949.942 457.383 951.306 455.065 951.306 452.251C951.306 447.965 947.805 444.935 942.504 444.935C937.312 444.935 933.751 448.038 933.763 452.891H938.725C938.713 450.525 940.21 449.076 942.468 449.076C944.641 449.076 946.259 450.428 946.259 452.602C946.259 454.57 945.052 455.922 942.806 458.083L934.004 466.233V470ZM978.587 451.455H973.142L969.303 464.724H969.11L965.258 451.455H959.825L966.308 470H972.104L978.587 451.455ZM1002.11 453.93C1001.43 448.219 997.103 444.935 991.38 444.935C984.848 444.935 979.862 449.547 979.862 457.636C979.862 465.702 984.764 470.338 991.38 470.338C997.719 470.338 1001.55 466.124 1002.11 461.572L996.825 461.548C996.33 464.192 994.254 465.714 991.465 465.714C987.71 465.714 985.162 462.925 985.162 457.636C985.162 452.493 987.673 449.559 991.501 449.559C994.362 449.559 996.427 451.213 996.825 453.93H1002.11ZM1004.84 470H1010.07V461.983H1014.47C1020.15 461.983 1023.46 458.59 1023.46 453.652C1023.46 448.738 1020.21 445.273 1014.6 445.273H1004.84V470ZM1010.07 457.793V449.547H1013.6C1016.61 449.547 1018.08 451.189 1018.08 453.652C1018.08 456.103 1016.61 457.793 1013.62 457.793H1010.07ZM1041.11 445.273V460.884C1041.11 463.71 1039.13 465.75 1036.09 465.75C1033.06 465.75 1031.06 463.71 1031.06 460.884V445.273H1025.84V461.331C1025.84 466.74 1029.92 470.35 1036.09 470.35C1042.23 470.35 1046.34 466.74 1046.34 461.331V445.273H1041.11Z" fill="black"/>
<path d="M50.7621 380.273H45.848L39.7266 384.148V388.785L45.3892 385.235H45.5341V405H50.7621V380.273ZM57.3788 405.314C58.9242 405.314 60.2644 404.022 60.2765 402.416C60.2644 400.835 58.9242 399.543 57.3788 399.543C55.785 399.543 54.469 400.835 54.4811 402.416C54.469 404.022 55.785 405.314 57.3788 405.314ZM72.2631 405.338C77.7688 405.338 81.5117 401.752 81.4996 396.754C81.5117 392.021 78.2034 388.616 73.7482 388.616C71.5749 388.616 69.7034 389.521 68.8341 390.741H68.6892L69.3291 384.547H80.1352V380.273H65.0188L63.8476 393.312L68.496 394.146C69.2567 393.119 70.7297 392.479 72.1906 392.479C74.6779 392.491 76.4648 394.29 76.4648 396.886C76.4648 399.458 74.7141 401.233 72.2631 401.233C70.1864 401.233 68.5081 399.929 68.3874 398.009H63.3164C63.4129 402.283 67.1438 405.338 72.2631 405.338ZM100.667 388.266H105.98C105.303 383.376 100.993 379.935 95.4029 379.935C88.8709 379.935 83.8361 384.643 83.8361 392.661C83.8361 400.484 88.5449 405.338 95.5116 405.338C101.754 405.338 106.209 401.39 106.209 394.882V391.767H95.8617V395.703H101.174C101.102 398.77 99.013 400.714 95.5357 400.714C91.6117 400.714 89.1366 397.78 89.1366 392.612C89.1366 387.469 91.7083 384.559 95.4874 384.559C98.1799 384.559 100.003 385.947 100.667 388.266ZM109.116 405H119.681C125.235 405 128.193 402.102 128.193 398.166C128.193 394.508 125.573 392.298 122.759 392.165V391.924C125.331 391.344 127.227 389.521 127.227 386.612C127.227 382.905 124.474 380.273 119.017 380.273H109.116V405ZM114.344 400.726V394.158H118.727C121.238 394.158 122.796 395.607 122.796 397.647C122.796 399.506 121.528 400.726 118.606 400.726H114.344ZM114.344 390.62V384.499H118.316C120.634 384.499 121.951 385.694 121.951 387.481C121.951 389.437 120.357 390.62 118.22 390.62H114.344ZM137.327 405H142.471V393.868C142.471 391.815 143.775 390.451 145.489 390.451C147.179 390.451 148.314 391.61 148.314 393.433V405H153.301V393.675C153.301 391.755 154.4 390.451 156.271 390.451C157.913 390.451 159.145 391.477 159.145 393.542V405H164.276V392.528C164.276 388.507 161.885 386.213 158.432 386.213C155.716 386.213 153.603 387.602 152.842 389.727H152.649C152.057 387.577 150.162 386.213 147.614 386.213C145.115 386.213 143.219 387.541 142.446 389.727H142.229V386.455H137.327V405ZM175.771 405.362C180.359 405.362 183.449 403.129 184.174 399.688L179.417 399.374C178.898 400.786 177.57 401.523 175.855 401.523C173.283 401.523 171.653 399.82 171.653 397.055V397.043H184.283V395.631C184.283 389.328 180.467 386.213 175.565 386.213C170.108 386.213 166.57 390.089 166.57 395.812C166.57 401.692 170.06 405.362 175.771 405.362ZM171.653 393.856C171.762 391.743 173.368 390.053 175.65 390.053C177.883 390.053 179.429 391.646 179.441 393.856H171.653ZM186.619 405H191.763V393.868C191.763 391.815 193.067 390.451 194.781 390.451C196.471 390.451 197.606 391.61 197.606 393.433V405H202.593V393.675C202.593 391.755 203.692 390.451 205.563 390.451C207.205 390.451 208.437 391.477 208.437 393.542V405H213.568V392.528C213.568 388.507 211.177 386.213 207.724 386.213C205.008 386.213 202.895 387.602 202.134 389.727H201.941C201.349 387.577 199.454 386.213 196.906 386.213C194.407 386.213 192.511 387.541 191.738 389.727H191.521V386.455H186.619V405ZM224.99 405.362C230.617 405.362 234.118 401.511 234.118 395.8C234.118 390.053 230.617 386.213 224.99 386.213C219.364 386.213 215.862 390.053 215.862 395.8C215.862 401.511 219.364 405.362 224.99 405.362ZM225.014 401.378C222.418 401.378 221.09 398.999 221.09 395.763C221.09 392.528 222.418 390.137 225.014 390.137C227.562 390.137 228.89 392.528 228.89 395.763C228.89 398.999 227.562 401.378 225.014 401.378ZM236.442 405H241.586V394.508C241.586 392.226 243.252 390.656 245.522 390.656C246.234 390.656 247.212 390.777 247.695 390.934V386.37C247.236 386.261 246.597 386.189 246.077 386.189C244.001 386.189 242.298 387.396 241.622 389.69H241.429V386.455H236.442V405ZM253.074 411.955C256.902 411.955 258.93 409.999 259.981 407.004L267.189 386.479L261.743 386.455L257.868 400.074H257.675L253.835 386.455H248.426L255.079 405.531L254.777 406.316C254.101 408.055 252.809 408.139 250.998 407.584L249.839 411.423C250.575 411.737 251.77 411.955 253.074 411.955ZM49.6996 440.543C55.9176 440.543 59.6726 435.81 59.6847 427.661C59.6967 419.571 55.8935 414.935 49.6996 414.935C43.4936 414.935 39.7266 419.559 39.7145 427.661C39.6903 435.786 43.4695 440.531 49.6996 440.543ZM49.6996 436.209C46.8622 436.209 45.027 433.359 45.0391 427.661C45.0511 422.046 46.8743 419.221 49.6996 419.221C52.5128 419.221 54.348 422.046 54.348 427.661C54.3601 433.359 52.5249 436.209 49.6996 436.209ZM64.4179 440.314C65.9633 440.314 67.3035 439.022 67.3156 437.416C67.3035 435.835 65.9633 434.543 64.4179 434.543C62.8241 434.543 61.5081 435.835 61.5201 437.416C61.5081 439.022 62.8241 440.314 64.4179 440.314ZM70.4701 440H88.098V435.726H77.7144V435.557L81.3245 432.019C86.4076 427.383 87.772 425.065 87.772 422.251C87.772 417.965 84.2705 414.935 78.9701 414.935C73.7784 414.935 70.2166 418.038 70.2286 422.891H75.191C75.1789 420.525 76.6761 419.076 78.9339 419.076C81.1072 419.076 82.7251 420.428 82.7251 422.602C82.7251 424.57 81.5177 425.922 79.272 428.083L70.4701 436.233V440ZM99.8974 440.338C105.403 440.338 109.146 436.752 109.134 431.754C109.146 427.021 105.838 423.616 101.382 423.616C99.2092 423.616 97.3377 424.521 96.4684 425.741H96.3235L96.9634 419.547H107.77V415.273H92.6531L91.4819 428.312L96.1303 429.146C96.891 428.119 98.364 427.479 99.8249 427.479C102.312 427.491 104.099 429.29 104.099 431.886C104.099 434.458 102.348 436.233 99.8974 436.233C97.8207 436.233 96.1424 434.929 96.0217 433.009H90.9507C91.0472 437.283 94.7781 440.338 99.8974 440.338ZM135.947 421.455H130.502L126.663 434.724H126.469L122.618 421.455H117.185L123.668 440H129.464L135.947 421.455ZM159.474 423.93C158.785 418.219 154.463 414.935 148.74 414.935C142.208 414.935 137.221 419.547 137.221 427.636C137.221 435.702 142.123 440.338 148.74 440.338C155.079 440.338 158.906 436.124 159.474 431.572L154.185 431.548C153.69 434.192 151.613 435.714 148.824 435.714C145.069 435.714 142.522 432.925 142.522 427.636C142.522 422.493 145.033 419.559 148.861 419.559C151.722 419.559 153.787 421.213 154.185 423.93H159.474ZM162.203 440H167.43V431.983H171.825C177.512 431.983 180.82 428.59 180.82 423.652C180.82 418.738 177.573 415.273 171.958 415.273H162.203V440ZM167.43 427.793V419.547H170.956C173.975 419.547 175.435 421.189 175.435 423.652C175.435 426.103 173.975 427.793 170.98 427.793H167.43ZM198.47 415.273V430.884C198.47 433.71 196.489 435.75 193.447 435.75C190.416 435.75 188.424 433.71 188.424 430.884V415.273H183.196V431.331C183.196 436.74 187.277 440.35 193.447 440.35C199.592 440.35 203.698 436.74 203.698 431.331V415.273H198.47Z" fill="black"/>
</svg>
