<svg width="1200" height="900" viewBox="0 0 1200 900" fill="none" xmlns="http://www.w3.org/2000/svg">
<rect width="1200" height="900" fill="white"/>
<path d="M89.8565 449H73.3793L98.4858 376.273H118.301L143.372 449H126.895L108.678 392.892H108.109L89.8565 449ZM88.8267 420.413H127.747V432.416H88.8267V420.413ZM164.338 376.273V449H149.21V376.273H164.338ZM188.952 376.273V449H173.825V376.273H188.952ZM223.084 450.065C217.568 450.065 212.797 448.893 208.773 446.55C204.772 444.182 201.682 440.892 199.504 436.678C197.326 432.44 196.237 427.527 196.237 421.94C196.237 416.306 197.326 411.382 199.504 407.168C201.682 402.93 204.772 399.639 208.773 397.295C212.797 394.928 217.568 393.744 223.084 393.744C228.6 393.744 233.359 394.928 237.36 397.295C241.384 399.639 244.485 402.93 246.664 407.168C248.842 411.382 249.931 416.306 249.931 421.94C249.931 427.527 248.842 432.44 246.664 436.678C244.485 440.892 241.384 444.182 237.36 446.55C233.359 448.893 228.6 450.065 223.084 450.065ZM223.155 438.347C225.664 438.347 227.76 437.636 229.44 436.216C231.121 434.772 232.388 432.807 233.24 430.321C234.116 427.835 234.554 425.006 234.554 421.834C234.554 418.661 234.116 415.832 233.24 413.347C232.388 410.861 231.121 408.896 229.44 407.452C227.76 406.008 225.664 405.286 223.155 405.286C220.622 405.286 218.491 406.008 216.763 407.452C215.058 408.896 213.768 410.861 212.892 413.347C212.04 415.832 211.614 418.661 211.614 421.834C211.614 425.006 212.04 427.835 212.892 430.321C213.768 432.807 215.058 434.772 216.763 436.216C218.491 437.636 220.622 438.347 223.155 438.347ZM281.78 450.065C276.193 450.065 271.388 448.882 267.363 446.514C263.362 444.123 260.284 440.809 258.13 436.571C255.999 432.333 254.934 427.456 254.934 421.94C254.934 416.353 256.011 411.453 258.165 407.239C260.343 403.001 263.433 399.698 267.434 397.331C271.435 394.94 276.193 393.744 281.709 393.744C286.468 393.744 290.635 394.608 294.209 396.337C297.784 398.065 300.613 400.491 302.697 403.616C304.78 406.741 305.928 410.411 306.141 414.625H291.866C291.463 411.902 290.398 409.713 288.67 408.055C286.965 406.375 284.728 405.534 281.958 405.534C279.614 405.534 277.566 406.173 275.815 407.452C274.086 408.706 272.737 410.541 271.766 412.956C270.796 415.371 270.31 418.295 270.31 421.727C270.31 425.207 270.784 428.167 271.731 430.605C272.701 433.044 274.063 434.902 275.815 436.18C277.566 437.459 279.614 438.098 281.958 438.098C283.686 438.098 285.237 437.743 286.61 437.033C288.007 436.322 289.155 435.293 290.055 433.943C290.978 432.57 291.582 430.925 291.866 429.007H306.141C305.905 433.174 304.768 436.843 302.732 440.016C300.72 443.164 297.938 445.626 294.387 447.402C290.836 449.178 286.634 450.065 281.78 450.065ZM328.749 450.03C325.269 450.03 322.168 449.426 319.445 448.219C316.723 446.988 314.569 445.177 312.982 442.786C311.42 440.371 310.639 437.364 310.639 433.766C310.639 430.735 311.195 428.19 312.308 426.131C313.42 424.071 314.935 422.414 316.853 421.159C318.771 419.904 320.949 418.957 323.387 418.318C325.849 417.679 328.43 417.229 331.129 416.969C334.301 416.637 336.858 416.33 338.799 416.045C340.74 415.738 342.149 415.288 343.025 414.696C343.901 414.104 344.339 413.228 344.339 412.068V411.855C344.339 409.606 343.629 407.866 342.208 406.635C340.811 405.404 338.823 404.788 336.242 404.788C333.52 404.788 331.354 405.392 329.744 406.599C328.134 407.783 327.069 409.275 326.548 411.074L312.556 409.938C313.266 406.623 314.663 403.759 316.747 401.344C318.83 398.905 321.517 397.035 324.808 395.733C328.122 394.407 331.957 393.744 336.313 393.744C339.344 393.744 342.244 394.099 345.014 394.81C347.807 395.52 350.281 396.621 352.435 398.112C354.614 399.604 356.33 401.521 357.585 403.865C358.839 406.185 359.467 408.967 359.467 412.21V449H345.12V441.436H344.694C343.818 443.141 342.646 444.644 341.178 445.946C339.711 447.224 337.947 448.231 335.887 448.964C333.828 449.675 331.448 450.03 328.749 450.03ZM333.082 439.589C335.307 439.589 337.272 439.152 338.977 438.276C340.681 437.376 342.019 436.169 342.989 434.653C343.96 433.138 344.445 431.422 344.445 429.504V423.716C343.972 424.024 343.321 424.308 342.492 424.568C341.687 424.805 340.776 425.03 339.758 425.243C338.74 425.432 337.722 425.61 336.704 425.776C335.686 425.918 334.763 426.048 333.934 426.166C332.159 426.427 330.608 426.841 329.282 427.409C327.956 427.977 326.927 428.747 326.193 429.717C325.459 430.664 325.092 431.848 325.092 433.268C325.092 435.328 325.837 436.902 327.329 437.991C328.844 439.057 330.762 439.589 333.082 439.589ZM397.584 394.455V405.818H364.736V394.455H397.584ZM372.194 381.386H387.322V432.239C387.322 433.635 387.535 434.724 387.961 435.506C388.387 436.263 388.979 436.796 389.736 437.104C390.518 437.411 391.417 437.565 392.435 437.565C393.146 437.565 393.856 437.506 394.566 437.388C395.276 437.246 395.821 437.139 396.2 437.068L398.579 448.325C397.821 448.562 396.756 448.834 395.383 449.142C394.01 449.473 392.341 449.675 390.376 449.746C386.73 449.888 383.534 449.402 380.788 448.29C378.065 447.177 375.946 445.449 374.431 443.105C372.916 440.761 372.17 437.802 372.194 434.227V381.386ZM404.807 449V394.455H419.935V449H404.807ZM412.407 387.423C410.158 387.423 408.228 386.678 406.618 385.186C405.032 383.671 404.239 381.86 404.239 379.753C404.239 377.67 405.032 375.882 406.618 374.391C408.228 372.875 410.158 372.118 412.407 372.118C414.656 372.118 416.573 372.875 418.16 374.391C419.769 375.882 420.574 377.67 420.574 379.753C420.574 381.86 419.769 383.671 418.16 385.186C416.573 386.678 414.656 387.423 412.407 387.423ZM454.067 450.065C448.551 450.065 443.78 448.893 439.756 446.55C435.755 444.182 432.665 440.892 430.487 436.678C428.309 432.44 427.22 427.527 427.22 421.94C427.22 416.306 428.309 411.382 430.487 407.168C432.665 402.93 435.755 399.639 439.756 397.295C443.78 394.928 448.551 393.744 454.067 393.744C459.583 393.744 464.341 394.928 468.342 397.295C472.367 399.639 475.468 402.93 477.646 407.168C479.824 411.382 480.913 416.306 480.913 421.94C480.913 427.527 479.824 432.44 477.646 436.678C475.468 440.892 472.367 444.182 468.342 446.55C464.341 448.893 459.583 450.065 454.067 450.065ZM454.138 438.347C456.647 438.347 458.742 437.636 460.423 436.216C462.104 434.772 463.371 432.807 464.223 430.321C465.099 427.835 465.537 425.006 465.537 421.834C465.537 418.661 465.099 415.832 464.223 413.347C463.371 410.861 462.104 408.896 460.423 407.452C458.742 406.008 456.647 405.286 454.138 405.286C451.605 405.286 449.474 406.008 447.746 407.452C446.041 408.896 444.751 410.861 443.875 413.347C443.023 415.832 442.597 418.661 442.597 421.834C442.597 425.006 443.023 427.835 443.875 430.321C444.751 432.807 446.041 434.772 447.746 436.216C449.474 437.636 451.605 438.347 454.138 438.347ZM503.246 417.466V449H488.118V394.455H502.536V404.078H503.175C504.383 400.906 506.407 398.396 509.248 396.55C512.089 394.679 515.533 393.744 519.581 393.744C523.369 393.744 526.672 394.573 529.489 396.23C532.306 397.887 534.496 400.255 536.059 403.332C537.621 406.386 538.402 410.032 538.402 414.27V449H523.275V416.969C523.298 413.631 522.446 411.027 520.718 409.156C518.99 407.262 516.61 406.315 513.58 406.315C511.544 406.315 509.745 406.753 508.182 407.629C506.643 408.505 505.436 409.784 504.56 411.464C503.708 413.122 503.27 415.122 503.246 417.466ZM593.077 410.009L579.228 410.861C578.991 409.677 578.482 408.612 577.701 407.665C576.92 406.694 575.89 405.925 574.611 405.357C573.357 404.765 571.853 404.469 570.101 404.469C567.758 404.469 565.781 404.966 564.171 405.96C562.561 406.931 561.756 408.233 561.756 409.866C561.756 411.169 562.277 412.269 563.319 413.169C564.36 414.069 566.148 414.791 568.681 415.335L578.553 417.324C583.856 418.413 587.81 420.165 590.414 422.58C593.018 424.994 594.32 428.167 594.32 432.097C594.32 435.671 593.267 438.808 591.16 441.507C589.076 444.206 586.212 446.313 582.566 447.828C578.944 449.32 574.765 450.065 570.03 450.065C562.81 450.065 557.057 448.562 552.772 445.555C548.511 442.525 546.013 438.406 545.279 433.197L560.158 432.416C560.608 434.618 561.697 436.299 563.425 437.459C565.154 438.595 567.367 439.163 570.066 439.163C572.717 439.163 574.848 438.654 576.458 437.636C578.092 436.595 578.92 435.257 578.944 433.624C578.92 432.25 578.34 431.126 577.204 430.25C576.067 429.35 574.315 428.664 571.948 428.19L562.502 426.308C557.175 425.243 553.21 423.396 550.606 420.768C548.025 418.141 546.735 414.791 546.735 410.719C546.735 407.215 547.682 404.196 549.576 401.663C551.494 399.13 554.181 397.177 557.637 395.804C561.117 394.431 565.189 393.744 569.853 393.744C576.742 393.744 582.163 395.2 586.117 398.112C590.094 401.024 592.414 404.99 593.077 410.009Z" fill="black"/>
<rect x="71" y="498" width="1038" height="19" fill="black"/>
</svg>
