<svg width="1200" height="900" viewBox="0 0 1200 900" fill="none" xmlns="http://www.w3.org/2000/svg">
<rect width="1200" height="900" fill="white"/>
<path d="M187 181.5H1054" stroke="#778F9B" stroke-width="1.5" stroke-linejoin="round" stroke-dasharray="1.5 9"/>
<path d="M187 349.5H1054" stroke="#778F9B" stroke-width="1.5" stroke-linejoin="round" stroke-dasharray="1.5 9"/>
<path d="M187 519H1054" stroke="#778F9B" stroke-width="1.5" stroke-linejoin="round" stroke-dasharray="1.5 9"/>
<path d="M187 688.5H1054" stroke="#000A12" stroke-width="3" stroke-linecap="round" stroke-linejoin="round"/>
<rect x="245" y="432" width="554" height="255" fill="#86B8B1"/>
<path d="M944.522 715.545H941.957L937.602 718.392V720.915L941.778 718.188H941.88V733H944.522V715.545ZM955.457 733.239C959.105 733.273 961.526 730.648 961.517 727.298C961.526 723.957 959.097 721.562 956.071 721.562C954.23 721.562 952.636 722.449 951.742 723.923H951.614C951.622 719.96 953.122 717.608 955.679 717.608C957.358 717.608 958.415 718.631 958.773 720.08H961.372C960.972 717.318 958.798 715.307 955.679 715.307C951.622 715.307 949.091 718.793 949.091 724.861C949.082 731.287 952.355 733.213 955.457 733.239ZM955.449 731.023C953.42 731.023 951.938 729.318 951.938 727.358C951.946 725.406 953.497 723.702 955.509 723.702C957.503 723.702 958.969 725.312 958.96 727.332C958.969 729.395 957.443 731.023 955.449 731.023ZM976.793 721.06H979.494C978.906 717.659 976 715.307 972.233 715.307C967.716 715.307 964.418 718.707 964.418 724.281C964.418 729.804 967.622 733.239 972.352 733.239C976.588 733.239 979.614 730.46 979.614 726.054V724.068H972.753V726.241H977.065C977.006 729.054 975.148 730.835 972.352 730.835C969.276 730.835 967.034 728.509 967.034 724.264C967.034 720.037 969.293 717.71 972.25 717.71C974.568 717.71 976.136 718.989 976.793 721.06ZM983.692 733H986.241V719.909H983.692V733ZM984.979 717.889C985.857 717.889 986.59 717.207 986.59 716.372C986.59 715.537 985.857 714.847 984.979 714.847C984.093 714.847 983.369 715.537 983.369 716.372C983.369 717.207 984.093 717.889 984.979 717.889ZM989.994 733H996.684C1000.74 733 1002.57 730.98 1002.57 728.304C1002.57 725.602 1000.68 724.077 998.951 723.983V723.812C1000.55 723.403 1001.89 722.312 1001.89 720.131C1001.89 717.548 1000.1 715.545 996.386 715.545H989.994V733ZM992.627 730.741V725.151H996.522C998.636 725.151 999.957 726.514 999.957 728.176C999.957 729.642 998.959 730.741 996.428 730.741H992.627ZM992.627 723.097V717.787H996.224C998.312 717.787 999.309 718.886 999.309 720.335C999.309 722.023 997.928 723.097 996.155 723.097H992.627Z" fill="black"/>
<path d="M773.576 733.239C777.207 733.239 779.772 731.176 779.789 728.347C779.772 726.148 778.23 724.298 776.278 723.949V723.847C777.974 723.438 779.125 721.844 779.142 719.96C779.125 717.293 776.772 715.307 773.576 715.307C770.346 715.307 767.994 717.293 768.011 719.96C767.994 721.835 769.145 723.438 770.875 723.847V723.949C768.889 724.298 767.346 726.148 767.363 728.347C767.346 731.176 769.912 733.239 773.576 733.239ZM773.576 731.082C771.395 731.082 770.014 729.923 770.031 728.176C770.014 726.361 771.514 725.065 773.576 725.065C775.605 725.065 777.105 726.361 777.122 728.176C777.105 729.923 775.733 731.082 773.576 731.082ZM773.576 722.96C771.812 722.96 770.559 721.844 770.576 720.182C770.559 718.545 771.77 717.463 773.576 717.463C775.349 717.463 776.559 718.545 776.576 720.182C776.559 721.844 775.315 722.96 773.576 722.96ZM795.014 721.06H797.716C797.127 717.659 794.221 715.307 790.454 715.307C785.937 715.307 782.639 718.707 782.639 724.281C782.639 729.804 785.843 733.239 790.574 733.239C794.809 733.239 797.835 730.46 797.835 726.054V724.068H790.974V726.241H795.287C795.227 729.054 793.369 730.835 790.574 730.835C787.497 730.835 785.255 728.509 785.255 724.264C785.255 720.037 787.514 717.71 790.471 717.71C792.789 717.71 794.358 718.989 795.014 721.06ZM801.914 733H804.462V719.909H801.914V733ZM803.201 717.889C804.078 717.889 804.811 717.207 804.811 716.372C804.811 715.537 804.078 714.847 803.201 714.847C802.314 714.847 801.59 715.537 801.59 716.372C801.59 717.207 802.314 717.889 803.201 717.889ZM808.215 733H814.905C818.962 733 820.794 730.98 820.794 728.304C820.794 725.602 818.902 724.077 817.172 723.983V723.812C818.774 723.403 820.113 722.312 820.113 720.131C820.113 717.548 818.323 715.545 814.607 715.545H808.215V733ZM810.848 730.741V725.151H814.743C816.857 725.151 818.178 726.514 818.178 728.176C818.178 729.642 817.181 730.741 814.649 730.741H810.848ZM810.848 723.097V717.787H814.445C816.533 717.787 817.53 718.886 817.53 720.335C817.53 722.023 816.149 723.097 814.377 723.097H810.848Z" fill="black"/>
<path d="M590.043 729.591H598.318V733H600.832V729.591H603.142V727.358H600.832V715.545H597.585L590.043 727.46V729.591ZM598.335 727.358H592.804V727.222L598.199 718.682H598.335V727.358ZM618.283 721.06H620.985C620.397 717.659 617.491 715.307 613.724 715.307C609.207 715.307 605.908 718.707 605.908 724.281C605.908 729.804 609.113 733.239 613.843 733.239C618.079 733.239 621.104 730.46 621.104 726.054V724.068H614.244V726.241H618.556C618.496 729.054 616.639 730.835 613.843 730.835C610.766 730.835 608.525 728.509 608.525 724.264C608.525 720.037 610.783 717.71 613.741 717.71C616.059 717.71 617.627 718.989 618.283 721.06ZM625.183 733H627.732V719.909H625.183V733ZM626.47 717.889C627.348 717.889 628.081 717.207 628.081 716.372C628.081 715.537 627.348 714.847 626.47 714.847C625.584 714.847 624.859 715.537 624.859 716.372C624.859 717.207 625.584 717.889 626.47 717.889ZM631.484 733H638.175C642.231 733 644.064 730.98 644.064 728.304C644.064 725.602 642.172 724.077 640.442 723.983V723.812C642.044 723.403 643.382 722.312 643.382 720.131C643.382 717.548 641.592 715.545 637.876 715.545H631.484V733ZM634.118 730.741V725.151H638.013C640.126 725.151 641.447 726.514 641.447 728.176C641.447 729.642 640.45 730.741 637.919 730.741H634.118ZM634.118 723.097V717.787H637.714C639.803 717.787 640.8 718.886 640.8 720.335C640.8 722.023 639.419 723.097 637.646 723.097H634.118Z" fill="black"/>
<path d="M413.901 733H425.39V730.741H417.532V730.614L421.001 726.983C424.197 723.753 425.109 722.21 425.109 720.259C425.109 717.455 422.825 715.307 419.535 715.307C416.271 715.307 413.884 717.42 413.884 720.608H416.398C416.39 718.733 417.6 717.506 419.484 717.506C421.256 717.506 422.603 718.597 422.603 720.335C422.603 721.878 421.683 722.986 419.808 724.972L413.901 731.091V733ZM440.791 721.06H443.493C442.905 717.659 439.999 715.307 436.232 715.307C431.715 715.307 428.416 718.707 428.416 724.281C428.416 729.804 431.621 733.239 436.351 733.239C440.587 733.239 443.612 730.46 443.612 726.054V724.068H436.751V726.241H441.064C441.004 729.054 439.146 730.835 436.351 730.835C433.274 730.835 431.033 728.509 431.033 724.264C431.033 720.037 433.291 717.71 436.249 717.71C438.567 717.71 440.135 718.989 440.791 721.06ZM447.691 733H450.239V719.909H447.691V733ZM448.978 717.889C449.856 717.889 450.589 717.207 450.589 716.372C450.589 715.537 449.856 714.847 448.978 714.847C448.092 714.847 447.367 715.537 447.367 716.372C447.367 717.207 448.092 717.889 448.978 717.889ZM453.992 733H460.682C464.739 733 466.572 730.98 466.572 728.304C466.572 725.602 464.68 724.077 462.95 723.983V723.812C464.552 723.403 465.89 722.312 465.89 720.131C465.89 717.548 464.1 715.545 460.384 715.545H453.992V733ZM456.626 730.741V725.151H460.521C462.634 725.151 463.955 726.514 463.955 728.176C463.955 729.642 462.958 730.741 460.427 730.741H456.626ZM456.626 723.097V717.787H460.222C462.31 717.787 463.307 718.886 463.307 720.335C463.307 722.023 461.927 723.097 460.154 723.097H456.626Z" fill="black"/>
<path d="M247.01 733.29C251.041 733.29 253.402 730 253.402 724.281C253.402 718.605 251.007 715.307 247.01 715.307C243.004 715.307 240.618 718.597 240.609 724.281C240.609 729.991 242.97 733.281 247.01 733.29ZM247.01 731.014C244.649 731.014 243.225 728.645 243.225 724.281C243.234 719.935 244.657 717.54 247.01 717.54C249.353 717.54 250.785 719.935 250.785 724.281C250.785 728.645 249.362 731.014 247.01 731.014Z" fill="black"/>
<path d="M85.3744 186.239C89.005 186.239 91.5704 184.176 91.5874 181.347C91.5704 179.148 90.0278 177.298 88.0761 176.949V176.847C89.7721 176.438 90.9227 174.844 90.9397 172.96C90.9227 170.293 88.5704 168.307 85.3744 168.307C82.1442 168.307 79.792 170.293 79.809 172.96C79.792 174.835 80.9425 176.438 82.6727 176.847V176.949C80.6869 177.298 79.1442 179.148 79.1613 181.347C79.1442 184.176 81.7096 186.239 85.3744 186.239ZM85.3744 184.082C83.1925 184.082 81.8119 182.923 81.8289 181.176C81.8119 179.361 83.3119 178.065 85.3744 178.065C87.4028 178.065 88.9028 179.361 88.9198 181.176C88.9028 182.923 87.5306 184.082 85.3744 184.082ZM85.3744 175.96C83.6102 175.96 82.3573 174.844 82.3744 173.182C82.3573 171.545 83.5675 170.463 85.3744 170.463C87.1471 170.463 88.3573 171.545 88.3744 173.182C88.3573 174.844 87.113 175.96 85.3744 175.96ZM112.465 172.909H109.729L106.423 182.983H106.286L102.971 172.909H100.235L104.991 186H107.718L112.465 172.909ZM129.682 174.222C129.085 170.489 126.162 168.307 122.472 168.307C117.955 168.307 114.622 171.69 114.622 177.273C114.622 182.855 117.937 186.239 122.472 186.239C126.307 186.239 129.111 183.835 129.682 180.384L127.023 180.375C126.571 182.608 124.696 183.835 122.489 183.835C119.497 183.835 117.239 181.543 117.239 177.273C117.239 173.037 119.489 170.71 122.497 170.71C124.722 170.71 126.588 171.963 127.023 174.222H129.682ZM132.953 186H135.587V179.864H139.166C143.214 179.864 145.217 177.418 145.217 174.196C145.217 170.983 143.231 168.545 139.175 168.545H132.953V186ZM135.587 177.631V170.804H138.893C141.501 170.804 142.567 172.219 142.567 174.196C142.567 176.173 141.501 177.631 138.928 177.631H135.587ZM159.649 168.545V179.812C159.649 182.182 158.013 183.886 155.354 183.886C152.703 183.886 151.058 182.182 151.058 179.812V168.545H148.425V180.026C148.425 183.69 151.169 186.29 155.354 186.29C159.538 186.29 162.291 183.69 162.291 180.026V168.545H159.649Z" fill="black"/>
<path d="M86.3406 353.591H94.6162V357H97.1304V353.591H99.4401V351.358H97.1304V339.545H93.8832L86.3406 351.46V353.591ZM94.6332 351.358H89.102V351.222L94.4969 342.682H94.6332V351.358ZM120.235 343.909H117.499L114.192 353.983H114.056L110.74 343.909H108.005L112.76 357H115.488L120.235 343.909ZM137.451 345.222C136.855 341.489 133.931 339.307 130.241 339.307C125.724 339.307 122.392 342.69 122.392 348.273C122.392 353.855 125.707 357.239 130.241 357.239C134.076 357.239 136.88 354.835 137.451 351.384L134.792 351.375C134.341 353.608 132.466 354.835 130.258 354.835C127.267 354.835 125.008 352.543 125.008 348.273C125.008 344.037 127.258 341.71 130.267 341.71C132.491 341.71 134.358 342.963 134.792 345.222H137.451ZM140.723 357H143.356V350.864H146.936C150.984 350.864 152.987 348.418 152.987 345.196C152.987 341.983 151.001 339.545 146.944 339.545H140.723V357ZM143.356 348.631V341.804H146.663C149.271 341.804 150.336 343.219 150.336 345.196C150.336 347.173 149.271 348.631 146.697 348.631H143.356ZM167.419 339.545V350.812C167.419 353.182 165.782 354.886 163.123 354.886C160.473 354.886 158.828 353.182 158.828 350.812V339.545H156.194V351.026C156.194 354.69 158.938 357.29 163.123 357.29C167.308 357.29 170.061 354.69 170.061 351.026V339.545H167.419Z" fill="black"/>
<path d="M95.0089 510.545H92.4436L88.0885 513.392V515.915L92.2646 513.188H92.3669V528H95.0089V510.545ZM117.555 514.909H114.819L111.512 524.983H111.376L108.061 514.909H105.325L110.081 528H112.808L117.555 514.909ZM134.772 516.222C134.175 512.489 131.252 510.307 127.561 510.307C123.044 510.307 119.712 513.69 119.712 519.273C119.712 524.855 123.027 528.239 127.561 528.239C131.397 528.239 134.201 525.835 134.772 522.384L132.113 522.375C131.661 524.608 129.786 525.835 127.578 525.835C124.587 525.835 122.328 523.543 122.328 519.273C122.328 515.037 124.578 512.71 127.587 512.71C129.811 512.71 131.678 513.963 132.113 516.222H134.772ZM138.043 528H140.676V521.864H144.256C148.304 521.864 150.307 519.418 150.307 516.196C150.307 512.983 148.321 510.545 144.265 510.545H138.043V528ZM140.676 519.631V512.804H143.983C146.591 512.804 147.657 514.219 147.657 516.196C147.657 518.173 146.591 519.631 144.017 519.631H140.676ZM164.739 510.545V521.812C164.739 524.182 163.103 525.886 160.443 525.886C157.793 525.886 156.148 524.182 156.148 521.812V510.545H153.514V522.026C153.514 525.69 156.259 528.29 160.443 528.29C164.628 528.29 167.381 525.69 167.381 522.026V510.545H164.739Z" fill="black"/>
<path d="M493.063 777.291V819H501.617V791.751H501.963L512.757 818.796H518.581L529.375 791.852H529.721V819H538.275V777.291H527.4L515.913 805.314H515.425L503.938 777.291H493.063ZM557.807 819.611C565.546 819.611 570.76 815.843 571.982 810.039L563.958 809.51C563.082 811.892 560.842 813.135 557.95 813.135C553.612 813.135 550.862 810.263 550.862 805.599V805.579H572.165V803.196C572.165 792.565 565.729 787.311 557.461 787.311C548.256 787.311 542.288 793.848 542.288 803.502C542.288 813.42 548.174 819.611 557.807 819.611ZM550.862 800.202C551.046 796.638 553.754 793.787 557.604 793.787C561.371 793.787 563.978 796.475 563.998 800.202H550.862ZM576 819H584.676V800.223C584.676 796.761 586.876 794.459 589.768 794.459C592.619 794.459 594.533 796.414 594.533 799.49V819H602.944V799.897C602.944 796.659 604.798 794.459 607.954 794.459C610.724 794.459 612.801 796.19 612.801 799.673V819H621.457V797.962C621.457 791.18 617.424 787.311 611.6 787.311C607.017 787.311 603.453 789.653 602.17 793.237H601.844C600.847 789.612 597.649 787.311 593.352 787.311C589.136 787.311 585.939 789.551 584.635 793.237H584.269V787.718H576V819ZM640.617 819.611C650.108 819.611 656.014 813.114 656.014 803.481C656.014 793.787 650.108 787.311 640.617 787.311C631.127 787.311 625.221 793.787 625.221 803.481C625.221 813.114 631.127 819.611 640.617 819.611ZM640.658 812.89C636.279 812.89 634.039 808.878 634.039 803.42C634.039 797.962 636.279 793.93 640.658 793.93C644.955 793.93 647.195 797.962 647.195 803.42C647.195 808.878 644.955 812.89 640.658 812.89ZM659.829 819H668.504V801.302C668.504 797.453 671.315 794.805 675.144 794.805C676.345 794.805 677.995 795.009 678.81 795.274V787.576C678.036 787.392 676.956 787.27 676.08 787.27C672.578 787.27 669.706 789.307 668.566 793.176H668.24V787.718H659.829V819ZM687.777 830.731C694.233 830.731 697.654 827.431 699.426 822.381L711.585 787.759L702.4 787.718L695.862 810.691H695.536L689.06 787.718H679.936L691.158 819.896L690.649 821.22C689.508 824.153 687.329 824.295 684.274 823.358L682.319 829.835C683.561 830.364 685.577 830.731 687.777 830.731Z" fill="#4A4A4A"/>
<path d="M1115.89 453.794C1106.26 454.955 1100.72 462.246 1100.72 471.899C1100.72 482.917 1108.5 491.328 1122.15 491.328C1135.75 491.328 1143.57 483.06 1143.57 471.899C1143.57 461.207 1136.46 454.751 1128.78 453.794L1128.74 462.714C1133.2 463.549 1135.77 467.052 1135.77 471.757C1135.77 478.09 1131.07 482.387 1122.15 482.387C1113.47 482.387 1108.52 478.151 1108.52 471.695C1108.52 466.869 1111.31 463.386 1115.89 462.714V453.794ZM1143 449.297V440.478H1129.48V433.065C1129.48 423.473 1123.75 417.893 1115.42 417.893C1107.14 417.893 1101.29 423.371 1101.29 432.841V449.297H1143ZM1122.41 440.478H1108.5V434.532C1108.5 429.44 1111.27 426.976 1115.42 426.976C1119.56 426.976 1122.41 429.44 1122.41 434.491V440.478ZM1101.29 388.229H1127.62C1132.39 388.229 1135.83 391.569 1135.83 396.701C1135.83 401.813 1132.39 405.173 1127.62 405.173H1101.29V413.991H1128.38C1137.5 413.991 1143.59 407.108 1143.59 396.701C1143.59 386.335 1137.5 379.41 1128.38 379.41H1101.29V388.229Z" fill="#4A4A4A"/>
</svg>
