<svg width="1200" height="900" viewBox="0 0 1200 900" fill="none" xmlns="http://www.w3.org/2000/svg">
<rect x="53" y="326" width="1094" height="180" fill="#F8F8F8"/>
<rect x="53.5" y="326" width="8" height="180" fill="#D8D8D8"/>
<path d="M122.239 278.909H118.716L111.443 283.739V287.318L118.545 282.602H118.716V308H122.239V278.909ZM129.71 308H133.062V294.364C133.062 291.168 135.391 288.909 138.005 288.909C140.548 288.909 142.323 290.571 142.323 293.057V308H145.732V293.795C145.732 290.983 147.494 288.909 150.562 288.909C152.948 288.909 154.994 290.173 154.994 293.398V308H158.346V293.398C158.346 288.27 155.59 285.898 151.698 285.898C148.573 285.898 146.286 287.332 145.164 289.591H144.937C143.857 287.261 141.954 285.898 139.085 285.898C136.244 285.898 134.141 287.261 133.232 289.591H132.948V286.182H129.71V308ZM173.296 308.398C178.935 308.398 183.125 304.861 183.125 300.102C183.125 296.409 180.938 293.724 177.273 293.114V292.886C180.213 291.991 182.046 289.577 182.046 286.295C182.046 282.176 178.793 278.511 173.409 278.511C168.381 278.511 164.205 281.608 164.034 286.182H167.443C167.571 283.284 170.327 281.58 173.352 281.58C176.563 281.58 178.636 283.526 178.636 286.466C178.636 289.534 176.236 291.523 172.784 291.523H170.455V294.648H172.784C177.202 294.648 179.659 296.892 179.659 300.102C179.659 303.185 176.975 305.273 173.239 305.273C169.872 305.273 167.202 303.54 166.989 300.727H163.409C163.622 305.301 167.656 308.398 173.296 308.398ZM197.471 308.398C203.891 308.398 207.585 302.957 207.585 293.455C207.585 284.023 203.835 278.511 197.471 278.511C191.107 278.511 187.357 284.023 187.357 293.455C187.357 302.957 191.051 308.398 197.471 308.398ZM197.471 305.273C193.238 305.273 190.766 301.026 190.766 293.455C190.766 285.898 193.266 281.58 197.471 281.58C201.676 281.58 204.176 285.898 204.176 293.455C204.176 301.026 201.704 305.273 197.471 305.273ZM227.541 291.068C226.49 287.972 224.132 285.898 219.814 285.898C215.212 285.898 211.803 288.511 211.803 292.205C211.803 295.216 213.592 297.233 217.598 298.17L221.235 299.023C223.436 299.534 224.473 300.585 224.473 302.091C224.473 303.966 222.485 305.5 219.36 305.5C216.618 305.5 214.899 304.321 214.303 301.977L211.121 302.773C211.902 306.48 214.956 308.455 219.416 308.455C224.487 308.455 227.939 305.685 227.939 301.92C227.939 298.881 226.036 296.963 222.144 296.011L218.905 295.216C216.32 294.577 215.155 293.71 215.155 292.034C215.155 290.159 217.144 288.795 219.814 288.795C222.74 288.795 223.948 290.415 224.53 291.92L227.541 291.068Z" fill="#7B7B7B"/>
<path d="M135.828 573H141.979V560.983H154.465V573H160.601V543.909H154.465V555.912H141.979V543.909H135.828V573ZM164.72 573H170.87V563.568H176.041C182.731 563.568 186.623 559.577 186.623 553.767C186.623 547.986 182.802 543.909 176.197 543.909H164.72V573ZM170.87 558.639V548.938H175.018C178.569 548.938 180.288 550.869 180.288 553.767C180.288 556.651 178.569 558.639 175.047 558.639H170.87ZM191.321 573L193.48 566.366H203.977L206.136 573H212.727L202.699 543.909H194.772L184.73 573H191.321ZM195.042 561.565L198.622 550.557H198.849L202.429 561.565H195.042Z" fill="black"/>
<rect x="984.5" y="326" width="4" height="180" fill="#EAEAEA"/>
<rect x="829.5" y="326" width="4" height="180" fill="#EAEAEA"/>
<rect x="674.5" y="326" width="4" height="180" fill="#EAEAEA"/>
<rect x="518.5" y="326" width="4" height="180" fill="#EAEAEA"/>
<rect x="363.5" y="326" width="4" height="180" fill="#EAEAEA"/>
<rect x="208.5" y="326" width="4" height="180" fill="#EAEAEA"/>
<rect x="286" y="326" width="8" height="180" fill="#D8D8D8"/>
<rect x="61" y="351" width="225" height="32" rx="3" fill="#86B8B1"/>
</svg>
