<svg width="1200" height="900" viewBox="0 0 1200 900" fill="none" xmlns="http://www.w3.org/2000/svg">
<path fill-rule="evenodd" clip-rule="evenodd" d="M574 166.6V733C574 740.511 567.906 746.6 560.39 746.6H81.61C74.095 746.6 68 740.511 68 733V166.6C68 159.089 74.094 153 81.61 153H560.39C567.905 153 574 159.089 574 166.6Z" fill="#D2D2D2"/>
<path fill-rule="evenodd" clip-rule="evenodd" d="M154.8 719.4H554.4V729.84H154.8V719.4ZM154.8 702.6H554.4V713.04H154.8V702.6ZM154.8 686.6H554.4V697.04H154.8V686.6ZM87.2 171.4H554.4V181.8H87.2V171.4Z" fill="#A3A3A3"/>
<path fill-rule="evenodd" clip-rule="evenodd" d="M92.66 200.232H549.34C550.055 200.232 550.763 200.372 551.423 200.646C552.084 200.919 552.684 201.32 553.19 201.826C553.695 202.331 554.097 202.931 554.37 203.592C554.644 204.252 554.785 204.96 554.785 205.675V662.303C554.785 663.747 554.211 665.131 553.19 666.152C552.17 667.173 550.785 667.747 549.341 667.747H92.659C91.2151 667.747 89.8304 667.173 88.8095 666.152C87.7885 665.131 87.215 663.747 87.215 662.303V205.675C87.2152 204.231 87.7889 202.847 88.8098 201.826C89.8308 200.805 91.2153 200.232 92.659 200.232H92.66Z" fill="#EFFFBD"/>
<path d="M112.675 683.719C112.217 683.746 111.768 683.865 111.357 684.069L93.511 692.578C93.0514 692.797 92.6472 693.117 92.3286 693.514C92.01 693.911 91.7852 694.375 91.671 694.871L87.301 713.975C87.1967 714.419 87.1855 714.88 87.2681 715.328C87.3507 715.776 87.5254 716.203 87.781 716.58C87.843 716.673 87.907 716.762 87.974 716.849L100.304 732.177C100.955 732.977 101.934 733.437 102.965 733.433H122.741C123.251 733.43 123.754 733.315 124.215 733.096C124.675 732.876 125.082 732.558 125.405 732.163L137.729 716.831C138.375 716.031 138.617 714.974 138.369 713.971L133.972 694.853C133.857 694.357 133.632 693.894 133.314 693.497C132.995 693.1 132.591 692.78 132.132 692.56L114.313 684.07C113.8 683.817 113.231 683.697 112.659 683.72L112.675 683.719Z" fill="#4A4A4A"/>
<path d="M112.838 690.229C112.224 690.272 111.758 690.799 111.79 691.414V691.714C111.818 692.056 111.87 692.394 111.937 692.728C112.035 693.368 112.071 694.018 112.043 694.666C111.981 694.88 111.86 695.071 111.693 695.218L111.67 695.67C111.021 695.724 110.377 695.823 109.743 695.967C107.074 696.568 104.646 697.954 102.771 699.946L102.387 699.674C102.282 699.706 102.173 699.716 102.064 699.705C101.955 699.694 101.85 699.662 101.754 699.61C101.234 699.225 100.753 698.791 100.318 698.313C100.099 698.051 99.8654 697.803 99.618 697.568L99.381 697.38C99.1701 697.211 98.911 697.113 98.641 697.1C98.4796 697.091 98.3185 697.121 98.1708 697.187C98.023 697.252 97.8929 697.352 97.791 697.477C97.6173 697.72 97.5473 698.023 97.5962 698.318C97.6451 698.613 97.809 698.877 98.052 699.051L98.273 699.227C98.558 699.417 98.853 699.589 99.157 699.744C99.7279 700.06 100.264 700.435 100.755 700.864C100.882 701.046 100.956 701.259 100.968 701.48L101.318 701.8C99.4335 704.628 98.659 708.052 99.143 711.416L98.694 711.544C98.5779 711.73 98.4218 711.887 98.237 712.004C97.6115 712.172 96.9711 712.278 96.325 712.321C95.982 712.328 95.6398 712.355 95.3 712.401L95.016 712.465H94.986C94.7894 712.492 94.6043 712.574 94.4512 712.7C94.2981 712.826 94.1831 712.993 94.1188 713.18C94.0546 713.368 94.0437 713.57 94.0873 713.764C94.1309 713.957 94.2274 714.135 94.366 714.277C94.651 714.565 95.076 714.667 95.461 714.541H95.481L95.771 714.509C96.0966 714.411 96.4162 714.295 96.728 714.159C97.3289 713.918 97.9518 713.736 98.588 713.616C98.809 713.629 99.021 713.704 99.2 713.832L99.68 713.752C100.72 716.981 102.908 719.717 105.83 721.442L105.634 721.85C105.724 722.038 105.757 722.246 105.73 722.452C105.465 723.065 105.142 723.651 104.764 724.201C104.557 724.474 104.365 724.759 104.191 725.054L104.055 725.342C103.956 725.513 103.907 725.708 103.912 725.906C103.917 726.104 103.977 726.296 104.085 726.462C104.192 726.627 104.343 726.76 104.522 726.846C104.7 726.931 104.898 726.965 105.095 726.945C105.498 726.9 105.84 726.632 105.981 726.253L106.114 725.981C106.236 725.661 106.338 725.334 106.422 725.005C106.705 724.305 106.859 723.554 107.246 723.09C107.373 722.971 107.532 722.892 107.704 722.865L107.944 722.428C111.11 723.645 114.614 723.654 117.786 722.452L117.999 722.861C118.217 722.894 118.412 723.012 118.543 723.189C118.844 723.762 119.088 724.362 119.273 724.982C119.358 725.314 119.463 725.641 119.584 725.96L119.717 726.233C119.787 726.418 119.907 726.58 120.063 726.701C120.219 726.822 120.406 726.898 120.603 726.92C120.799 726.942 120.998 726.908 121.177 726.824C121.356 726.74 121.508 726.608 121.617 726.443C121.837 726.103 121.847 725.669 121.643 725.32L121.503 725.032C121.329 724.738 121.138 724.454 120.931 724.182C120.563 723.646 120.242 723.08 119.971 722.489C119.945 722.381 119.941 722.268 119.96 722.158C119.979 722.048 120.019 721.943 120.079 721.849C120.011 721.71 119.951 721.566 119.901 721.419C122.816 719.681 124.994 716.935 126.023 713.701L126.477 713.781C126.64 713.633 126.855 713.553 127.075 713.56C127.71 713.682 128.333 713.88 128.935 714.104C129.248 714.248 129.568 714.37 129.893 714.473C129.97 714.493 130.083 714.511 130.168 714.532H130.189C130.378 714.593 130.58 714.601 130.773 714.553C130.966 714.506 131.142 714.407 131.282 714.265C131.422 714.124 131.519 713.947 131.564 713.753C131.609 713.56 131.599 713.357 131.536 713.169C131.471 712.981 131.356 712.815 131.202 712.689C131.048 712.563 130.863 712.482 130.666 712.455L130.356 712.382C130.015 712.336 129.673 712.309 129.329 712.302C128.683 712.26 128.042 712.154 127.417 711.986C127.224 711.878 127.065 711.718 126.957 711.525L126.524 711.397C126.985 708.035 126.195 704.62 124.304 701.802L124.682 701.452C124.667 701.232 124.739 701.015 124.882 700.847C125.373 700.426 125.903 700.052 126.466 699.733C126.771 699.578 127.066 699.405 127.35 699.216L127.584 699.026C127.713 698.946 127.824 698.84 127.909 698.714C127.994 698.589 128.052 698.447 128.078 698.297C128.104 698.147 128.098 697.994 128.06 697.847C128.023 697.7 127.954 697.563 127.86 697.444C127.765 697.325 127.646 697.228 127.511 697.159C127.376 697.089 127.228 697.049 127.077 697.041C126.925 697.033 126.774 697.058 126.632 697.113C126.491 697.168 126.362 697.252 126.256 697.36L126.019 697.55C125.772 697.784 125.538 698.033 125.319 698.294C124.897 698.777 124.429 699.218 123.922 699.611C123.717 699.694 123.493 699.719 123.275 699.681L122.87 699.971C120.531 697.519 117.382 696 114.007 695.695C114.007 695.535 113.987 695.295 113.983 695.22C113.801 695.095 113.675 694.904 113.633 694.688C113.611 694.042 113.652 693.395 113.755 692.757C113.825 692.42 113.872 692.084 113.903 691.743V691.423C113.919 691.127 113.817 690.837 113.621 690.615C113.424 690.394 113.149 690.258 112.853 690.238L112.839 690.23L112.838 690.229ZM111.503 698.499L111.183 704.093H111.159C111.149 704.262 111.095 704.426 111.001 704.568C110.908 704.71 110.779 704.824 110.627 704.9C110.475 704.977 110.304 705.01 110.134 704.995C109.965 704.98 109.803 704.916 109.667 704.813L105.079 701.563C106.54 700.129 108.372 699.131 110.369 698.683C110.743 698.603 111.12 698.542 111.5 698.5H111.503V698.499ZM114.173 698.499C116.583 698.799 118.827 699.882 120.563 701.579L116.019 704.809C115.881 704.919 115.716 704.989 115.541 705.009C115.366 705.03 115.188 705.001 115.029 704.925C114.87 704.85 114.735 704.731 114.639 704.583C114.544 704.434 114.493 704.262 114.491 704.086L114.174 698.5L114.173 698.499ZM103.413 703.667L107.609 707.41V707.434C107.737 707.546 107.832 707.691 107.884 707.852C107.936 708.014 107.944 708.187 107.906 708.352C107.868 708.518 107.786 708.67 107.669 708.793C107.551 708.916 107.403 709.005 107.239 709.05V709.066L101.855 710.614C101.588 708.188 102.137 705.743 103.415 703.664L103.413 703.667ZM122.233 703.667C123.508 705.74 124.071 708.172 123.838 710.595L118.446 709.042V709.021C118.282 708.977 118.132 708.889 118.015 708.766C117.897 708.643 117.815 708.49 117.778 708.324C117.741 708.158 117.748 707.985 117.801 707.823C117.853 707.661 117.948 707.516 118.076 707.404L122.239 703.68L122.233 703.667ZM111.979 707.702H113.695L114.745 709.034L114.363 710.699L112.821 711.439L111.276 710.699L110.912 709.034L111.979 707.702V707.702ZM117.477 712.246C117.549 712.238 117.621 712.238 117.693 712.246L123.245 713.182C122.433 715.492 120.868 717.462 118.802 718.775L116.656 713.581C116.597 713.442 116.573 713.29 116.584 713.139C116.596 712.989 116.644 712.843 116.724 712.714C116.804 712.586 116.913 712.479 117.043 712.401C117.173 712.324 117.32 712.279 117.471 712.27L117.477 712.246ZM108.153 712.27C108.307 712.273 108.459 712.313 108.594 712.388C108.729 712.463 108.844 712.569 108.928 712.699C109.012 712.828 109.063 712.976 109.076 713.13C109.089 713.283 109.064 713.437 109.003 713.579V713.599L106.871 718.752C104.83 717.443 103.277 715.498 102.454 713.217L107.958 712.284C108.02 712.278 108.082 712.278 108.144 712.284L108.154 712.27H108.153ZM112.803 714.51C113.16 714.5 113.493 714.69 113.663 715.004H113.683L116.396 719.899L115.312 720.219C113.316 720.676 111.233 720.568 109.295 719.909L112.017 715.014C112.098 714.873 112.215 714.755 112.355 714.672C112.495 714.589 112.654 714.544 112.817 714.541L112.803 714.511V714.51Z" fill="white" stroke="white" stroke-width="0.5"/>
<rect x="110" y="556" width="422" height="92" fill="#8FBE00"/>
<rect x="110" y="458" width="422" height="92" fill="#8FBE00"/>
<rect x="110" y="360" width="422" height="92" fill="#8FBE00"/>
<path fill-rule="evenodd" clip-rule="evenodd" d="M1131 166.6V733C1131 740.511 1124.91 746.6 1117.39 746.6H638.61C631.095 746.6 625 740.511 625 733V166.6C625 159.089 631.094 153 638.61 153H1117.39C1124.91 153 1131 159.089 1131 166.6Z" fill="#D2D2D2"/>
<path fill-rule="evenodd" clip-rule="evenodd" d="M711.8 719.4H1111.4V729.84H711.8V719.4ZM711.8 702.6H1111.4V713.04H711.8V702.6ZM711.8 686.6H1111.4V697.04H711.8V686.6ZM644.2 171.4H1111.4V181.8H644.2V171.4Z" fill="#A3A3A3"/>
<path fill-rule="evenodd" clip-rule="evenodd" d="M649.66 200.232H1106.34C1107.05 200.232 1107.76 200.372 1108.42 200.646C1109.08 200.919 1109.68 201.32 1110.19 201.826C1110.7 202.331 1111.1 202.931 1111.37 203.592C1111.64 204.252 1111.78 204.96 1111.78 205.675V662.303C1111.78 663.747 1111.21 665.131 1110.19 666.152C1109.17 667.173 1107.78 667.747 1106.34 667.747H649.659C648.215 667.747 646.83 667.173 645.809 666.152C644.789 665.131 644.215 663.747 644.215 662.303V205.675C644.215 204.231 644.789 202.847 645.81 201.826C646.831 200.805 648.215 200.232 649.659 200.232H649.66Z" fill="#EFFFBD"/>
<path d="M669.675 683.719C669.217 683.746 668.768 683.865 668.357 684.069L650.511 692.578C650.051 692.797 649.647 693.117 649.329 693.514C649.01 693.911 648.785 694.375 648.671 694.871L644.301 713.975C644.197 714.419 644.186 714.88 644.268 715.328C644.351 715.776 644.525 716.203 644.781 716.58C644.843 716.673 644.907 716.762 644.974 716.849L657.304 732.177C657.955 732.977 658.934 733.437 659.965 733.433H679.741C680.251 733.43 680.754 733.315 681.215 733.096C681.675 732.876 682.082 732.558 682.405 732.163L694.729 716.831C695.375 716.031 695.617 714.974 695.369 713.971L690.972 694.853C690.857 694.357 690.632 693.894 690.314 693.497C689.995 693.1 689.591 692.78 689.132 692.56L671.313 684.07C670.8 683.817 670.231 683.697 669.659 683.72L669.675 683.719Z" fill="#4A4A4A"/>
<path d="M669.838 690.229C669.224 690.272 668.758 690.799 668.79 691.414V691.714C668.818 692.056 668.87 692.394 668.937 692.728C669.035 693.368 669.071 694.018 669.043 694.666C668.981 694.88 668.86 695.071 668.693 695.218L668.67 695.67C668.021 695.724 667.377 695.823 666.743 695.967C664.074 696.568 661.646 697.954 659.771 699.946L659.387 699.674C659.282 699.706 659.173 699.716 659.064 699.705C658.955 699.694 658.85 699.662 658.754 699.61C658.234 699.225 657.753 698.791 657.318 698.313C657.099 698.051 656.865 697.803 656.618 697.568L656.381 697.38C656.17 697.211 655.911 697.113 655.641 697.1C655.48 697.091 655.318 697.121 655.171 697.187C655.023 697.252 654.893 697.352 654.791 697.477C654.617 697.72 654.547 698.023 654.596 698.318C654.645 698.613 654.809 698.877 655.052 699.051L655.273 699.227C655.558 699.417 655.853 699.589 656.157 699.744C656.728 700.06 657.264 700.435 657.755 700.864C657.882 701.046 657.956 701.259 657.968 701.48L658.318 701.8C656.433 704.628 655.659 708.052 656.143 711.416L655.694 711.544C655.578 711.73 655.422 711.887 655.237 712.004C654.611 712.172 653.971 712.278 653.325 712.321C652.982 712.328 652.64 712.355 652.3 712.401L652.016 712.465H651.986C651.789 712.492 651.604 712.574 651.451 712.7C651.298 712.826 651.183 712.993 651.119 713.18C651.055 713.368 651.044 713.57 651.087 713.764C651.131 713.957 651.227 714.135 651.366 714.277C651.651 714.565 652.076 714.667 652.461 714.541H652.481L652.771 714.509C653.097 714.411 653.416 714.295 653.728 714.159C654.329 713.918 654.952 713.736 655.588 713.616C655.809 713.629 656.021 713.704 656.2 713.832L656.68 713.752C657.72 716.981 659.908 719.717 662.83 721.442L662.634 721.85C662.724 722.038 662.757 722.246 662.73 722.452C662.465 723.065 662.142 723.651 661.764 724.201C661.557 724.474 661.365 724.759 661.191 725.054L661.055 725.342C660.956 725.513 660.907 725.708 660.912 725.906C660.917 726.104 660.977 726.296 661.085 726.462C661.192 726.627 661.343 726.76 661.522 726.846C661.7 726.931 661.898 726.965 662.095 726.945C662.498 726.9 662.84 726.632 662.981 726.253L663.114 725.981C663.236 725.661 663.338 725.334 663.422 725.005C663.705 724.305 663.859 723.554 664.246 723.09C664.373 722.971 664.532 722.892 664.704 722.865L664.944 722.428C668.11 723.645 671.614 723.654 674.786 722.452L674.999 722.861C675.217 722.894 675.412 723.012 675.543 723.189C675.844 723.762 676.088 724.362 676.273 724.982C676.358 725.314 676.463 725.641 676.584 725.96L676.717 726.233C676.787 726.418 676.907 726.58 677.063 726.701C677.219 726.822 677.406 726.898 677.603 726.92C677.799 726.942 677.998 726.908 678.177 726.824C678.356 726.74 678.508 726.608 678.617 726.443C678.837 726.103 678.847 725.669 678.643 725.32L678.503 725.032C678.329 724.738 678.138 724.454 677.931 724.182C677.563 723.646 677.242 723.08 676.971 722.489C676.945 722.381 676.941 722.268 676.96 722.158C676.979 722.048 677.019 721.943 677.079 721.849C677.011 721.71 676.951 721.566 676.901 721.419C679.816 719.681 681.994 716.935 683.023 713.701L683.477 713.781C683.64 713.633 683.855 713.553 684.075 713.56C684.71 713.682 685.333 713.88 685.935 714.104C686.248 714.248 686.568 714.37 686.893 714.473C686.97 714.493 687.083 714.511 687.168 714.532H687.189C687.378 714.593 687.58 714.601 687.773 714.553C687.966 714.506 688.142 714.407 688.282 714.265C688.422 714.124 688.519 713.947 688.564 713.753C688.609 713.56 688.599 713.357 688.536 713.169C688.471 712.981 688.356 712.815 688.202 712.689C688.048 712.563 687.863 712.482 687.666 712.455L687.356 712.382C687.015 712.336 686.673 712.309 686.329 712.302C685.683 712.26 685.042 712.154 684.417 711.986C684.224 711.878 684.065 711.718 683.957 711.525L683.524 711.397C683.985 708.035 683.195 704.62 681.304 701.802L681.682 701.452C681.667 701.232 681.739 701.015 681.882 700.847C682.373 700.426 682.903 700.052 683.466 699.733C683.771 699.578 684.066 699.405 684.35 699.216L684.584 699.026C684.713 698.946 684.824 698.84 684.909 698.714C684.994 698.589 685.052 698.447 685.078 698.297C685.104 698.147 685.098 697.994 685.06 697.847C685.023 697.7 684.954 697.563 684.86 697.444C684.765 697.325 684.646 697.228 684.511 697.159C684.376 697.089 684.228 697.049 684.077 697.041C683.925 697.033 683.774 697.058 683.632 697.113C683.491 697.168 683.362 697.252 683.256 697.36L683.019 697.55C682.772 697.784 682.538 698.033 682.319 698.294C681.897 698.777 681.429 699.218 680.922 699.611C680.717 699.694 680.493 699.719 680.275 699.681L679.87 699.971C677.531 697.519 674.382 696 671.007 695.695C671.007 695.535 670.987 695.295 670.983 695.22C670.801 695.095 670.675 694.904 670.633 694.688C670.611 694.042 670.652 693.395 670.755 692.757C670.825 692.42 670.872 692.084 670.903 691.743V691.423C670.919 691.127 670.817 690.837 670.621 690.615C670.424 690.394 670.149 690.258 669.853 690.238L669.839 690.23L669.838 690.229ZM668.503 698.499L668.183 704.093H668.159C668.149 704.262 668.095 704.426 668.001 704.568C667.908 704.71 667.779 704.824 667.627 704.9C667.475 704.977 667.304 705.01 667.134 704.995C666.965 704.98 666.803 704.916 666.667 704.813L662.079 701.563C663.54 700.129 665.372 699.131 667.369 698.683C667.743 698.603 668.12 698.542 668.5 698.5H668.503V698.499ZM671.173 698.499C673.583 698.799 675.827 699.882 677.563 701.579L673.019 704.809C672.881 704.919 672.716 704.989 672.541 705.009C672.366 705.03 672.188 705.001 672.029 704.925C671.87 704.85 671.735 704.731 671.639 704.583C671.544 704.434 671.493 704.262 671.491 704.086L671.174 698.5L671.173 698.499ZM660.413 703.667L664.609 707.41V707.434C664.737 707.546 664.832 707.691 664.884 707.852C664.936 708.014 664.944 708.187 664.906 708.352C664.868 708.518 664.786 708.67 664.669 708.793C664.551 708.916 664.403 709.005 664.239 709.05V709.066L658.855 710.614C658.588 708.188 659.137 705.743 660.415 703.664L660.413 703.667ZM679.233 703.667C680.508 705.74 681.071 708.172 680.838 710.595L675.446 709.042V709.021C675.282 708.977 675.132 708.889 675.015 708.766C674.897 708.643 674.815 708.49 674.778 708.324C674.741 708.158 674.748 707.985 674.801 707.823C674.853 707.661 674.948 707.516 675.076 707.404L679.239 703.68L679.233 703.667ZM668.979 707.702H670.695L671.745 709.034L671.363 710.699L669.821 711.439L668.276 710.699L667.912 709.034L668.979 707.702V707.702ZM674.477 712.246C674.549 712.238 674.621 712.238 674.693 712.246L680.245 713.182C679.433 715.492 677.868 717.462 675.802 718.775L673.656 713.581C673.597 713.442 673.573 713.29 673.584 713.139C673.596 712.989 673.644 712.843 673.724 712.714C673.804 712.586 673.913 712.479 674.043 712.401C674.173 712.324 674.32 712.279 674.471 712.27L674.477 712.246ZM665.153 712.27C665.307 712.273 665.459 712.313 665.594 712.388C665.729 712.463 665.844 712.569 665.928 712.699C666.012 712.828 666.063 712.976 666.076 713.13C666.089 713.283 666.064 713.437 666.003 713.579V713.599L663.871 718.752C661.83 717.443 660.277 715.498 659.454 713.217L664.958 712.284C665.02 712.278 665.082 712.278 665.144 712.284L665.154 712.27H665.153ZM669.803 714.51C670.16 714.5 670.493 714.69 670.663 715.004H670.683L673.396 719.899L672.312 720.219C670.316 720.676 668.233 720.568 666.295 719.909L669.017 715.014C669.098 714.873 669.215 714.755 669.355 714.672C669.495 714.589 669.654 714.544 669.817 714.541L669.803 714.511V714.51Z" fill="white" stroke="white" stroke-width="0.5"/>
<rect x="667" y="556" width="422" height="92" fill="#8FBE00"/>
</svg>
