<svg width="1200" height="900" viewBox="0 0 1200 900" fill="none" xmlns="http://www.w3.org/2000/svg">
<rect x="53.5" y="326" width="1094" height="180" fill="#F8F8F8"/>
<rect x="53.5" y="326" width="8" height="180" fill="#D8D8D8"/>
<path d="M122.239 278.909H118.716L111.443 283.739V287.318L118.545 282.602H118.716V308H122.239V278.909ZM129.71 308H133.062V294.364C133.062 291.168 135.391 288.909 138.005 288.909C140.548 288.909 142.323 290.571 142.323 293.057V308H145.732V293.795C145.732 290.983 147.494 288.909 150.562 288.909C152.948 288.909 154.994 290.173 154.994 293.398V308H158.346V293.398C158.346 288.27 155.59 285.898 151.698 285.898C148.573 285.898 146.286 287.332 145.164 289.591H144.937C143.857 287.261 141.954 285.898 139.085 285.898C136.244 285.898 134.141 287.261 133.232 289.591H132.948V286.182H129.71V308ZM173.296 308.398C178.935 308.398 183.125 304.861 183.125 300.102C183.125 296.409 180.938 293.724 177.273 293.114V292.886C180.213 291.991 182.046 289.577 182.046 286.295C182.046 282.176 178.793 278.511 173.409 278.511C168.381 278.511 164.205 281.608 164.034 286.182H167.443C167.571 283.284 170.327 281.58 173.352 281.58C176.563 281.58 178.636 283.526 178.636 286.466C178.636 289.534 176.236 291.523 172.784 291.523H170.455V294.648H172.784C177.202 294.648 179.659 296.892 179.659 300.102C179.659 303.185 176.975 305.273 173.239 305.273C169.872 305.273 167.202 303.54 166.989 300.727H163.409C163.622 305.301 167.656 308.398 173.296 308.398ZM197.471 308.398C203.891 308.398 207.585 302.957 207.585 293.455C207.585 284.023 203.835 278.511 197.471 278.511C191.107 278.511 187.357 284.023 187.357 293.455C187.357 302.957 191.051 308.398 197.471 308.398ZM197.471 305.273C193.238 305.273 190.766 301.026 190.766 293.455C190.766 285.898 193.266 281.58 197.471 281.58C201.676 281.58 204.176 285.898 204.176 293.455C204.176 301.026 201.704 305.273 197.471 305.273ZM227.541 291.068C226.49 287.972 224.132 285.898 219.814 285.898C215.212 285.898 211.803 288.511 211.803 292.205C211.803 295.216 213.592 297.233 217.598 298.17L221.235 299.023C223.436 299.534 224.473 300.585 224.473 302.091C224.473 303.966 222.485 305.5 219.36 305.5C216.618 305.5 214.899 304.321 214.303 301.977L211.121 302.773C211.902 306.48 214.956 308.455 219.416 308.455C224.487 308.455 227.939 305.685 227.939 301.92C227.939 298.881 226.036 296.963 222.144 296.011L218.905 295.216C216.32 294.577 215.155 293.71 215.155 292.034C215.155 290.159 217.144 288.795 219.814 288.795C222.74 288.795 223.948 290.415 224.53 291.92L227.541 291.068Z" fill="#7B7B7B"/>
<path d="M135.828 573H141.979V560.983H154.465V573H160.601V543.909H154.465V555.912H141.979V543.909H135.828V573ZM164.72 573H170.87V563.568H176.041C182.731 563.568 186.623 559.577 186.623 553.767C186.623 547.986 182.802 543.909 176.197 543.909H164.72V573ZM170.87 558.639V548.938H175.018C178.569 548.938 180.288 550.869 180.288 553.767C180.288 556.651 178.569 558.639 175.047 558.639H170.87ZM191.321 573L193.48 566.366H203.977L206.136 573H212.727L202.699 543.909H194.772L184.73 573H191.321ZM195.042 561.565L198.622 550.557H198.849L202.429 561.565H195.042Z" fill="black"/>
<path d="M319.446 554.094C318.636 547.375 313.551 543.511 306.818 543.511C299.133 543.511 293.267 548.938 293.267 558.455C293.267 567.943 299.034 573.398 306.818 573.398C314.275 573.398 318.778 568.44 319.446 563.085L313.224 563.057C312.642 566.168 310.198 567.957 306.917 567.957C302.5 567.957 299.502 564.676 299.502 558.455C299.502 552.403 302.457 548.952 306.96 548.952C310.326 548.952 312.755 550.898 313.224 554.094H319.446ZM327.371 573L329.53 566.366H340.027L342.186 573H348.777L338.749 543.909H330.823L320.78 573H327.371ZM331.093 561.565L334.672 550.557H334.9L338.479 561.565H331.093Z" fill="black"/>
<path d="M307.11 308.398C312.749 308.398 316.939 304.861 316.939 300.102C316.939 296.409 314.752 293.724 311.087 293.114V292.886C314.027 291.991 315.86 289.577 315.86 286.295C315.86 282.176 312.607 278.511 307.223 278.511C302.195 278.511 298.019 281.608 297.848 286.182H301.257C301.385 283.284 304.141 281.58 307.167 281.58C310.377 281.58 312.451 283.526 312.451 286.466C312.451 289.534 310.05 291.523 306.598 291.523H304.269V294.648H306.598C311.016 294.648 313.473 296.892 313.473 300.102C313.473 303.185 310.789 305.273 307.053 305.273C303.686 305.273 301.016 303.54 300.803 300.727H297.223C297.436 305.301 301.47 308.398 307.11 308.398ZM331.285 308.398C337.706 308.398 341.399 302.957 341.399 293.455C341.399 284.023 337.649 278.511 331.285 278.511C324.922 278.511 321.172 284.023 321.172 293.455C321.172 302.957 324.865 308.398 331.285 308.398ZM331.285 305.273C327.052 305.273 324.581 301.026 324.581 293.455C324.581 285.898 327.081 281.58 331.285 281.58C335.49 281.58 337.99 285.898 337.99 293.455C337.99 301.026 335.518 305.273 331.285 305.273ZM361.356 291.068C360.304 287.972 357.946 285.898 353.628 285.898C349.026 285.898 345.617 288.511 345.617 292.205C345.617 295.216 347.407 297.233 351.412 298.17L355.049 299.023C357.25 299.534 358.287 300.585 358.287 302.091C358.287 303.966 356.299 305.5 353.174 305.5C350.432 305.5 348.713 304.321 348.117 301.977L344.935 302.773C345.716 306.48 348.77 308.455 353.231 308.455C358.302 308.455 361.753 305.685 361.753 301.92C361.753 298.881 359.85 296.963 355.958 296.011L352.719 295.216C350.134 294.577 348.969 293.71 348.969 292.034C348.969 290.159 350.958 288.795 353.628 288.795C356.554 288.795 357.762 290.415 358.344 291.92L361.356 291.068Z" fill="#7B7B7B"/>
<path d="M655.591 302.034H669.284V308H672.636V302.034H676.614V298.909H672.636V278.909H668.375L655.591 299.136V302.034ZM669.284 298.909H659.398V298.682L669.057 283.398H669.284V298.909ZM681.041 308H684.393V294.364C684.393 291.168 686.723 288.909 689.337 288.909C691.879 288.909 693.655 290.571 693.655 293.057V308H697.064V293.795C697.064 290.983 698.825 288.909 701.893 288.909C704.28 288.909 706.325 290.173 706.325 293.398V308H709.678V293.398C709.678 288.27 706.922 285.898 703.03 285.898C699.905 285.898 697.618 287.332 696.496 289.591H696.268C695.189 287.261 693.286 285.898 690.416 285.898C687.575 285.898 685.473 287.261 684.564 289.591H684.28V286.182H681.041V308Z" fill="#7B7B7B"/>
<path d="M1004.11 308.398C1009.75 308.398 1013.94 304.861 1013.94 300.102C1013.94 296.409 1011.75 293.724 1008.09 293.114V292.886C1011.03 291.991 1012.86 289.577 1012.86 286.295C1012.86 282.176 1009.61 278.511 1004.22 278.511C999.195 278.511 995.019 281.608 994.848 286.182H998.257C998.385 283.284 1001.14 281.58 1004.17 281.58C1007.38 281.58 1009.45 283.526 1009.45 286.466C1009.45 289.534 1007.05 291.523 1003.6 291.523H1001.27V294.648H1003.6C1008.02 294.648 1010.47 296.892 1010.47 300.102C1010.47 303.185 1007.79 305.273 1004.05 305.273C1000.69 305.273 998.016 303.54 997.803 300.727H994.223C994.436 305.301 998.47 308.398 1004.11 308.398ZM1028.29 308.398C1034.71 308.398 1038.4 302.957 1038.4 293.455C1038.4 284.023 1034.65 278.511 1028.29 278.511C1021.92 278.511 1018.17 284.023 1018.17 293.455C1018.17 302.957 1021.86 308.398 1028.29 308.398ZM1028.29 305.273C1024.05 305.273 1021.58 301.026 1021.58 293.455C1021.58 285.898 1024.08 281.58 1028.29 281.58C1032.49 281.58 1034.99 285.898 1034.99 293.455C1034.99 301.026 1032.52 305.273 1028.29 305.273ZM1058.36 291.068C1057.3 287.972 1054.95 285.898 1050.63 285.898C1046.03 285.898 1042.62 288.511 1042.62 292.205C1042.62 295.216 1044.41 297.233 1048.41 298.17L1052.05 299.023C1054.25 299.534 1055.29 300.585 1055.29 302.091C1055.29 303.966 1053.3 305.5 1050.17 305.5C1047.43 305.5 1045.71 304.321 1045.12 301.977L1041.94 302.773C1042.72 306.48 1045.77 308.455 1050.23 308.455C1055.3 308.455 1058.75 305.685 1058.75 301.92C1058.75 298.881 1056.85 296.963 1052.96 296.011L1049.72 295.216C1047.13 294.577 1045.97 293.71 1045.97 292.034C1045.97 290.159 1047.96 288.795 1050.63 288.795C1053.55 288.795 1054.76 290.415 1055.34 291.92L1058.36 291.068Z" fill="#7B7B7B"/>
<rect x="984.5" y="326" width="4" height="180" fill="#EAEAEA"/>
<rect x="829.5" y="326" width="4" height="180" fill="#EAEAEA"/>
<rect x="674.5" y="326" width="4" height="180" fill="#EAEAEA"/>
<rect x="518.5" y="326" width="4" height="180" fill="#EAEAEA"/>
<rect x="363.5" y="326" width="4" height="180" fill="#EAEAEA"/>
<rect x="208.5" y="326" width="4" height="180" fill="#EAEAEA"/>
<rect x="286" y="326" width="8" height="180" fill="#D8D8D8"/>
<rect x="361" y="326" width="8" height="180" fill="#D8D8D8"/>
<rect x="61" y="351" width="225" height="32" rx="3" fill="#86B8B1"/>
<rect x="291" y="383" width="70" height="33" rx="3" fill="#FFA61A"/>
</svg>
