<svg width="1200" height="900" viewBox="0 0 1200 900" fill="none" xmlns="http://www.w3.org/2000/svg">
<rect width="1200" height="900" fill="white"/>
<path d="M116.774 308.189C116.49 305.324 115.271 303.099 113.116 301.513C110.962 299.927 108.038 299.134 104.345 299.134C101.836 299.134 99.7169 299.489 97.9886 300.199C96.2604 300.885 94.9347 301.844 94.0114 303.075C93.1117 304.306 92.6619 305.703 92.6619 307.266C92.6146 308.568 92.8868 309.704 93.4787 310.675C94.0942 311.645 94.9347 312.486 96 313.196C97.0653 313.883 98.2964 314.486 99.6932 315.007C101.09 315.504 102.581 315.93 104.168 316.286L110.702 317.848C113.874 318.558 116.786 319.505 119.438 320.689C122.089 321.873 124.385 323.329 126.327 325.057C128.268 326.785 129.771 328.821 130.837 331.165C131.926 333.509 132.482 336.196 132.506 339.226C132.482 343.677 131.346 347.536 129.097 350.803C126.871 354.046 123.652 356.567 119.438 358.366C115.247 360.142 110.193 361.03 104.274 361.03C98.4029 361.03 93.2893 360.13 88.9332 358.331C84.6009 356.532 81.2154 353.868 78.777 350.341C76.3622 346.79 75.0956 342.398 74.9773 337.166H89.8565C90.0223 339.605 90.7206 341.641 91.9517 343.274C93.2064 344.884 94.8755 346.103 96.9588 346.932C99.0658 347.737 101.445 348.139 104.097 348.139C106.701 348.139 108.962 347.76 110.879 347.003C112.821 346.245 114.324 345.192 115.389 343.842C116.455 342.493 116.987 340.942 116.987 339.19C116.987 337.557 116.502 336.184 115.531 335.071C114.584 333.958 113.188 333.011 111.341 332.23C109.518 331.449 107.281 330.739 104.629 330.099L96.7102 328.111C90.5786 326.619 85.7372 324.287 82.1861 321.115C78.6349 317.943 76.8712 313.67 76.8949 308.295C76.8712 303.892 78.0431 300.045 80.4105 296.754C82.8016 293.464 86.0805 290.895 90.2472 289.048C94.4138 287.202 99.1487 286.278 104.452 286.278C109.849 286.278 114.561 287.202 118.585 289.048C122.634 290.895 125.782 293.464 128.031 296.754C130.28 300.045 131.44 303.857 131.511 308.189H116.774ZM168.945 305.455V316.818H136.097V305.455H168.945ZM143.555 292.386H158.683V343.239C158.683 344.635 158.896 345.724 159.322 346.506C159.748 347.263 160.34 347.796 161.097 348.104C161.879 348.411 162.778 348.565 163.796 348.565C164.507 348.565 165.217 348.506 165.927 348.388C166.637 348.246 167.182 348.139 167.561 348.068L169.94 359.325C169.182 359.562 168.117 359.834 166.744 360.142C165.371 360.473 163.702 360.675 161.737 360.746C158.091 360.888 154.895 360.402 152.149 359.29C149.426 358.177 147.307 356.449 145.792 354.105C144.277 351.761 143.531 348.802 143.555 345.227V292.386ZM176.168 360V305.455H190.834V314.972H191.403C192.397 311.586 194.066 309.029 196.41 307.301C198.754 305.549 201.452 304.673 204.506 304.673C205.264 304.673 206.081 304.721 206.957 304.815C207.833 304.91 208.602 305.04 209.265 305.206V318.629C208.555 318.416 207.572 318.227 206.317 318.061C205.063 317.895 203.915 317.812 202.873 317.812C200.647 317.812 198.659 318.298 196.907 319.268C195.179 320.215 193.806 321.541 192.788 323.246C191.793 324.95 191.296 326.915 191.296 329.141V360H176.168ZM228.446 361.03C224.966 361.03 221.865 360.426 219.142 359.219C216.42 357.988 214.265 356.177 212.679 353.786C211.117 351.371 210.335 348.364 210.335 344.766C210.335 341.735 210.892 339.19 212.004 337.131C213.117 335.071 214.632 333.414 216.55 332.159C218.467 330.904 220.646 329.957 223.084 329.318C225.546 328.679 228.127 328.229 230.825 327.969C233.998 327.637 236.555 327.33 238.496 327.045C240.437 326.738 241.846 326.288 242.722 325.696C243.598 325.104 244.036 324.228 244.036 323.068V322.855C244.036 320.606 243.325 318.866 241.905 317.635C240.508 316.404 238.52 315.788 235.939 315.788C233.217 315.788 231.05 316.392 229.44 317.599C227.831 318.783 226.765 320.275 226.244 322.074L212.253 320.938C212.963 317.623 214.36 314.759 216.443 312.344C218.527 309.905 221.214 308.035 224.504 306.733C227.819 305.407 231.654 304.744 236.01 304.744C239.04 304.744 241.94 305.099 244.71 305.81C247.504 306.52 249.978 307.621 252.132 309.112C254.31 310.604 256.027 312.521 257.281 314.865C258.536 317.185 259.164 319.967 259.164 323.21V360H244.817V352.436H244.391C243.515 354.141 242.343 355.644 240.875 356.946C239.407 358.224 237.644 359.231 235.584 359.964C233.524 360.675 231.145 361.03 228.446 361.03ZM232.779 350.589C235.004 350.589 236.969 350.152 238.673 349.276C240.378 348.376 241.716 347.169 242.686 345.653C243.657 344.138 244.142 342.422 244.142 340.504V334.716C243.669 335.024 243.018 335.308 242.189 335.568C241.384 335.805 240.473 336.03 239.455 336.243C238.437 336.432 237.419 336.61 236.401 336.776C235.383 336.918 234.459 337.048 233.631 337.166C231.855 337.427 230.305 337.841 228.979 338.409C227.653 338.977 226.623 339.747 225.889 340.717C225.155 341.664 224.789 342.848 224.789 344.268C224.789 346.328 225.534 347.902 227.026 348.991C228.541 350.057 230.458 350.589 232.779 350.589ZM297.281 305.455V316.818H264.433V305.455H297.281ZM271.891 292.386H287.018V343.239C287.018 344.635 287.231 345.724 287.658 346.506C288.084 347.263 288.676 347.796 289.433 348.104C290.214 348.411 291.114 348.565 292.132 348.565C292.842 348.565 293.553 348.506 294.263 348.388C294.973 348.246 295.517 348.139 295.896 348.068L298.276 359.325C297.518 359.562 296.453 359.834 295.08 360.142C293.706 360.473 292.037 360.675 290.072 360.746C286.427 360.888 283.231 360.402 280.484 359.29C277.762 358.177 275.643 356.449 274.128 354.105C272.613 351.761 271.867 348.802 271.891 345.227V292.386ZM328.776 361.065C323.165 361.065 318.336 359.929 314.287 357.656C310.263 355.36 307.161 352.116 304.983 347.926C302.805 343.712 301.716 338.729 301.716 332.976C301.716 327.365 302.805 322.441 304.983 318.203C307.161 313.965 310.227 310.663 314.181 308.295C318.158 305.928 322.822 304.744 328.172 304.744C331.771 304.744 335.121 305.324 338.222 306.484C341.347 307.621 344.07 309.337 346.39 311.634C348.733 313.93 350.556 316.818 351.858 320.298C353.161 323.755 353.812 327.803 353.812 332.443V336.598H307.753V327.223H339.572C339.572 325.045 339.098 323.116 338.151 321.435C337.204 319.754 335.89 318.44 334.209 317.493C332.552 316.522 330.623 316.037 328.421 316.037C326.125 316.037 324.089 316.57 322.313 317.635C320.561 318.677 319.188 320.085 318.194 321.861C317.199 323.613 316.69 325.566 316.667 327.72V336.634C316.667 339.332 317.164 341.664 318.158 343.629C319.176 345.594 320.608 347.109 322.455 348.175C324.302 349.24 326.491 349.773 329.025 349.773C330.706 349.773 332.244 349.536 333.641 349.062C335.038 348.589 336.233 347.879 337.228 346.932C338.222 345.985 338.98 344.825 339.5 343.452L353.492 344.375C352.782 347.737 351.326 350.672 349.124 353.182C346.946 355.668 344.129 357.609 340.672 359.006C337.24 360.379 333.274 361.065 328.776 361.065ZM385.626 381.591C380.725 381.591 376.523 380.916 373.019 379.567C369.539 378.241 366.769 376.43 364.71 374.134C362.65 371.837 361.313 369.257 360.697 366.392L374.689 364.51C375.115 365.599 375.789 366.617 376.713 367.564C377.636 368.511 378.855 369.268 380.37 369.837C381.909 370.429 383.779 370.724 385.981 370.724C389.272 370.724 391.983 369.92 394.113 368.31C396.268 366.723 397.345 364.06 397.345 360.32V350.341H396.706C396.043 351.856 395.048 353.288 393.723 354.638C392.397 355.987 390.692 357.088 388.609 357.94C386.526 358.793 384.04 359.219 381.152 359.219C377.056 359.219 373.327 358.272 369.966 356.378C366.627 354.46 363.964 351.536 361.975 347.607C360.01 343.653 359.028 338.658 359.028 332.621C359.028 326.442 360.034 321.281 362.046 317.138C364.059 312.995 366.734 309.893 370.072 307.834C373.434 305.774 377.115 304.744 381.116 304.744C384.17 304.744 386.727 305.265 388.787 306.307C390.846 307.325 392.503 308.603 393.758 310.142C395.037 311.657 396.019 313.149 396.706 314.616H397.274V305.455H412.295V360.533C412.295 365.173 411.159 369.055 408.886 372.18C406.613 375.305 403.465 377.649 399.44 379.212C395.439 380.798 390.834 381.591 385.626 381.591ZM385.946 347.855C388.384 347.855 390.444 347.251 392.125 346.044C393.829 344.813 395.131 343.061 396.031 340.788C396.954 338.492 397.416 335.746 397.416 332.55C397.416 329.354 396.966 326.584 396.066 324.24C395.167 321.873 393.865 320.038 392.16 318.736C390.456 317.434 388.384 316.783 385.946 316.783C383.46 316.783 381.365 317.457 379.66 318.807C377.956 320.133 376.665 321.979 375.789 324.347C374.913 326.714 374.475 329.448 374.475 332.55C374.475 335.698 374.913 338.421 375.789 340.717C376.689 342.99 377.979 344.754 379.66 346.009C381.365 347.24 383.46 347.855 385.946 347.855ZM421.702 360V305.455H436.83V360H421.702ZM429.301 298.423C427.052 298.423 425.123 297.678 423.513 296.186C421.927 294.671 421.134 292.86 421.134 290.753C421.134 288.67 421.927 286.882 423.513 285.391C425.123 283.875 427.052 283.118 429.301 283.118C431.55 283.118 433.468 283.875 435.054 285.391C436.664 286.882 437.469 288.67 437.469 290.753C437.469 292.86 436.664 294.671 435.054 296.186C433.468 297.678 431.55 298.423 429.301 298.423ZM471.174 361.065C465.563 361.065 460.734 359.929 456.686 357.656C452.661 355.36 449.56 352.116 447.382 347.926C445.204 343.712 444.115 338.729 444.115 332.976C444.115 327.365 445.204 322.441 447.382 318.203C449.56 313.965 452.626 310.663 456.579 308.295C460.556 305.928 465.22 304.744 470.571 304.744C474.169 304.744 477.519 305.324 480.62 306.484C483.745 307.621 486.468 309.337 488.788 311.634C491.132 313.93 492.955 316.818 494.257 320.298C495.559 323.755 496.21 327.803 496.21 332.443V336.598H450.152V327.223H481.97C481.97 325.045 481.496 323.116 480.549 321.435C479.602 319.754 478.288 318.44 476.608 317.493C474.95 316.522 473.021 316.037 470.819 316.037C468.523 316.037 466.487 316.57 464.711 317.635C462.959 318.677 461.586 320.085 460.592 321.861C459.598 323.613 459.089 325.566 459.065 327.72V336.634C459.065 339.332 459.562 341.664 460.556 343.629C461.574 345.594 463.007 347.109 464.853 348.175C466.7 349.24 468.89 349.773 471.423 349.773C473.104 349.773 474.643 349.536 476.039 349.062C477.436 348.589 478.632 347.879 479.626 346.932C480.62 345.985 481.378 344.825 481.899 343.452L495.89 344.375C495.18 347.737 493.724 350.672 491.522 353.182C489.344 355.668 486.527 357.609 483.071 359.006C479.638 360.379 475.672 361.065 471.174 361.065ZM548.834 321.009L534.984 321.861C534.748 320.677 534.239 319.612 533.457 318.665C532.676 317.694 531.646 316.925 530.368 316.357C529.113 315.765 527.61 315.469 525.858 315.469C523.514 315.469 521.538 315.966 519.928 316.96C518.318 317.931 517.513 319.233 517.513 320.866C517.513 322.169 518.034 323.269 519.075 324.169C520.117 325.069 521.904 325.791 524.438 326.335L534.31 328.324C539.613 329.413 543.566 331.165 546.171 333.58C548.775 335.994 550.077 339.167 550.077 343.097C550.077 346.671 549.023 349.808 546.916 352.507C544.833 355.206 541.968 357.313 538.323 358.828C534.7 360.32 530.522 361.065 525.787 361.065C518.566 361.065 512.814 359.562 508.529 356.555C504.267 353.525 501.77 349.406 501.036 344.197L515.915 343.416C516.365 345.618 517.454 347.299 519.182 348.459C520.91 349.595 523.124 350.163 525.823 350.163C528.474 350.163 530.605 349.654 532.215 348.636C533.848 347.595 534.677 346.257 534.7 344.624C534.677 343.25 534.097 342.126 532.96 341.25C531.824 340.35 530.072 339.664 527.705 339.19L518.259 337.308C512.932 336.243 508.966 334.396 506.362 331.768C503.782 329.141 502.492 325.791 502.492 321.719C502.492 318.215 503.439 315.196 505.332 312.663C507.25 310.13 509.937 308.177 513.394 306.804C516.874 305.431 520.946 304.744 525.609 304.744C532.499 304.744 537.92 306.2 541.874 309.112C545.851 312.024 548.171 315.99 548.834 321.009ZM606.816 305.455V316.818H573.152V305.455H606.816ZM580.858 360V301.513C580.858 297.559 581.627 294.28 583.166 291.676C584.728 289.072 586.859 287.119 589.558 285.817C592.257 284.515 595.323 283.864 598.755 283.864C601.075 283.864 603.194 284.041 605.112 284.396C607.053 284.751 608.497 285.071 609.444 285.355L606.745 296.719C606.154 296.529 605.42 296.352 604.544 296.186C603.691 296.02 602.816 295.938 601.916 295.938C599.691 295.938 598.14 296.458 597.264 297.5C596.388 298.518 595.95 299.95 595.95 301.797V360H580.858ZM636.119 361.065C630.602 361.065 625.832 359.893 621.807 357.55C617.806 355.182 614.717 351.892 612.539 347.678C610.361 343.44 609.272 338.527 609.272 332.94C609.272 327.306 610.361 322.382 612.539 318.168C614.717 313.93 617.806 310.639 621.807 308.295C625.832 305.928 630.602 304.744 636.119 304.744C641.635 304.744 646.393 305.928 650.394 308.295C654.419 310.639 657.52 313.93 659.698 318.168C661.876 322.382 662.965 327.306 662.965 332.94C662.965 338.527 661.876 343.44 659.698 347.678C657.52 351.892 654.419 355.182 650.394 357.55C646.393 359.893 641.635 361.065 636.119 361.065ZM636.19 349.347C638.699 349.347 640.794 348.636 642.475 347.216C644.156 345.772 645.423 343.807 646.275 341.321C647.151 338.835 647.589 336.006 647.589 332.834C647.589 329.661 647.151 326.832 646.275 324.347C645.423 321.861 644.156 319.896 642.475 318.452C640.794 317.008 638.699 316.286 636.19 316.286C633.656 316.286 631.526 317.008 629.798 318.452C628.093 319.896 626.803 321.861 625.927 324.347C625.074 326.832 624.648 329.661 624.648 332.834C624.648 336.006 625.074 338.835 625.927 341.321C626.803 343.807 628.093 345.772 629.798 347.216C631.526 348.636 633.656 349.347 636.19 349.347ZM670.17 360V305.455H684.836V314.972H685.405C686.399 311.586 688.068 309.029 690.412 307.301C692.755 305.549 695.454 304.673 698.508 304.673C699.266 304.673 700.083 304.721 700.959 304.815C701.834 304.91 702.604 305.04 703.267 305.206V318.629C702.557 318.416 701.574 318.227 700.319 318.061C699.065 317.895 697.916 317.812 696.875 317.812C694.649 317.812 692.661 318.298 690.909 319.268C689.181 320.215 687.807 321.541 686.789 323.246C685.795 324.95 685.298 326.915 685.298 329.141V360H670.17ZM765.014 380.455V351.264H764.552C763.842 352.779 762.835 354.283 761.533 355.774C760.255 357.242 758.586 358.461 756.526 359.432C754.49 360.402 752.005 360.888 749.069 360.888C744.926 360.888 741.174 359.822 737.812 357.692C734.474 355.537 731.822 352.377 729.857 348.21C727.916 344.02 726.945 338.883 726.945 332.798C726.945 326.548 727.951 321.352 729.964 317.209C731.976 313.042 734.651 309.929 737.989 307.869C741.351 305.786 745.032 304.744 749.033 304.744C752.087 304.744 754.632 305.265 756.668 306.307C758.728 307.325 760.385 308.603 761.64 310.142C762.918 311.657 763.889 313.149 764.552 314.616H765.191V305.455H780.106V380.455H765.014ZM753.863 348.849C756.301 348.849 758.361 348.187 760.042 346.861C761.746 345.511 763.049 343.629 763.948 341.214C764.871 338.8 765.333 335.971 765.333 332.727C765.333 329.484 764.883 326.667 763.984 324.276C763.084 321.884 761.782 320.038 760.077 318.736C758.373 317.434 756.301 316.783 753.863 316.783C751.377 316.783 749.282 317.457 747.577 318.807C745.873 320.156 744.583 322.027 743.707 324.418C742.831 326.809 742.393 329.579 742.393 332.727C742.393 335.9 742.831 338.705 743.707 341.143C744.606 343.558 745.897 345.452 747.577 346.825C749.282 348.175 751.377 348.849 753.863 348.849ZM824.598 336.776V305.455H839.726V360H825.202V350.092H824.633C823.402 353.288 821.354 355.857 818.49 357.798C815.649 359.74 812.181 360.71 808.085 360.71C804.439 360.71 801.231 359.882 798.461 358.224C795.692 356.567 793.525 354.212 791.963 351.158C790.424 348.104 789.643 344.446 789.619 340.185V305.455H804.747V337.486C804.771 340.705 805.635 343.25 807.339 345.121C809.044 346.991 811.328 347.926 814.193 347.926C816.016 347.926 817.72 347.512 819.307 346.683C820.893 345.831 822.171 344.576 823.142 342.919C824.136 341.262 824.622 339.214 824.598 336.776ZM849.195 360V305.455H864.322V360H849.195ZM856.794 298.423C854.545 298.423 852.616 297.678 851.006 296.186C849.42 294.671 848.626 292.86 848.626 290.753C848.626 288.67 849.42 286.882 851.006 285.391C852.616 283.875 854.545 283.118 856.794 283.118C859.043 283.118 860.961 283.875 862.547 285.391C864.157 286.882 864.962 288.67 864.962 290.753C864.962 292.86 864.157 294.671 862.547 296.186C860.961 297.678 859.043 298.423 856.794 298.423ZM898.454 361.065C892.867 361.065 888.061 359.882 884.036 357.514C880.035 355.123 876.958 351.809 874.803 347.571C872.673 343.333 871.607 338.456 871.607 332.94C871.607 327.353 872.685 322.453 874.839 318.239C877.017 314.001 880.106 310.698 884.107 308.331C888.108 305.94 892.867 304.744 898.383 304.744C903.142 304.744 907.308 305.608 910.883 307.337C914.458 309.065 917.287 311.491 919.37 314.616C921.454 317.741 922.602 321.411 922.815 325.625H908.539C908.137 322.902 907.071 320.713 905.343 319.055C903.639 317.375 901.401 316.534 898.632 316.534C896.288 316.534 894.24 317.173 892.488 318.452C890.76 319.706 889.41 321.541 888.44 323.956C887.469 326.371 886.984 329.295 886.984 332.727C886.984 336.207 887.457 339.167 888.404 341.605C889.375 344.044 890.736 345.902 892.488 347.18C894.24 348.459 896.288 349.098 898.632 349.098C900.36 349.098 901.91 348.743 903.284 348.033C904.68 347.322 905.829 346.293 906.728 344.943C907.651 343.57 908.255 341.925 908.539 340.007H922.815C922.578 344.174 921.442 347.843 919.406 351.016C917.393 354.164 914.612 356.626 911.061 358.402C907.509 360.178 903.307 361.065 898.454 361.065ZM943.576 344.304L943.612 326.158H945.814L963.285 305.455H980.65L957.177 332.869H953.591L943.576 344.304ZM929.869 360V287.273H944.997V360H929.869ZM963.96 360L947.909 336.243L957.994 325.554L981.68 360H963.96ZM1008.05 361.065C1002.44 361.065 997.612 359.929 993.564 357.656C989.539 355.36 986.438 352.116 984.26 347.926C982.082 343.712 980.993 338.729 980.993 332.976C980.993 327.365 982.082 322.441 984.26 318.203C986.438 313.965 989.504 310.663 993.457 308.295C997.434 305.928 1002.1 304.744 1007.45 304.744C1011.05 304.744 1014.4 305.324 1017.5 306.484C1020.62 307.621 1023.35 309.337 1025.67 311.634C1028.01 313.93 1029.83 316.818 1031.13 320.298C1032.44 323.755 1033.09 327.803 1033.09 332.443V336.598H987.03V327.223H1018.85C1018.85 325.045 1018.37 323.116 1017.43 321.435C1016.48 319.754 1015.17 318.44 1013.49 317.493C1011.83 316.522 1009.9 316.037 1007.7 316.037C1005.4 316.037 1003.36 316.57 1001.59 317.635C999.837 318.677 998.464 320.085 997.47 321.861C996.476 323.613 995.967 325.566 995.943 327.72V336.634C995.943 339.332 996.44 341.664 997.434 343.629C998.452 345.594 999.885 347.109 1001.73 348.175C1003.58 349.24 1005.77 349.773 1008.3 349.773C1009.98 349.773 1011.52 349.536 1012.92 349.062C1014.31 348.589 1015.51 347.879 1016.5 346.932C1017.5 345.985 1018.26 344.825 1018.78 343.452L1032.77 344.375C1032.06 347.737 1030.6 350.672 1028.4 353.182C1026.22 355.668 1023.41 357.609 1019.95 359.006C1016.52 360.379 1012.55 361.065 1008.05 361.065ZM1040.33 360V305.455H1054.99V314.972H1055.56C1056.56 311.586 1058.23 309.029 1060.57 307.301C1062.91 305.549 1065.61 304.673 1068.67 304.673C1069.42 304.673 1070.24 304.721 1071.12 304.815C1071.99 304.91 1072.76 305.04 1073.43 305.206V318.629C1072.71 318.416 1071.73 318.227 1070.48 318.061C1069.22 317.895 1068.07 317.812 1067.03 317.812C1064.81 317.812 1062.82 318.298 1061.07 319.268C1059.34 320.215 1057.97 321.541 1056.95 323.246C1055.95 324.95 1055.46 326.915 1055.46 329.141V360H1040.33ZM122.42 405.009L108.571 405.861C108.334 404.677 107.825 403.612 107.044 402.665C106.263 401.694 105.233 400.925 103.955 400.357C102.7 399.765 101.196 399.469 99.4446 399.469C97.1009 399.469 95.1241 399.966 93.5142 400.96C91.9044 401.931 91.0994 403.233 91.0994 404.866C91.0994 406.169 91.6203 407.269 92.6619 408.169C93.7036 409.069 95.491 409.791 98.0241 410.335L107.896 412.324C113.199 413.413 117.153 415.165 119.757 417.58C122.361 419.994 123.663 423.167 123.663 427.097C123.663 430.671 122.61 433.808 120.503 436.507C118.42 439.206 115.555 441.313 111.909 442.828C108.287 444.32 104.108 445.065 99.3736 445.065C92.1529 445.065 86.4001 443.562 82.1151 440.555C77.8537 437.525 75.3561 433.406 74.6222 428.197L89.5014 427.416C89.9512 429.618 91.0402 431.299 92.7685 432.459C94.4967 433.595 96.7102 434.163 99.4091 434.163C102.061 434.163 104.191 433.654 105.801 432.636C107.435 431.595 108.263 430.257 108.287 428.624C108.263 427.25 107.683 426.126 106.547 425.25C105.411 424.35 103.659 423.664 101.291 423.19L91.8452 421.308C86.5185 420.243 82.553 418.396 79.9489 415.768C77.3684 413.141 76.0781 409.791 76.0781 405.719C76.0781 402.215 77.0251 399.196 78.919 396.663C80.8366 394.13 83.5237 392.177 86.9801 390.804C90.4602 389.431 94.5322 388.744 99.196 388.744C106.085 388.744 111.507 390.2 115.46 393.112C119.438 396.024 121.758 399.99 122.42 405.009ZM155.203 445.065C149.615 445.065 144.81 443.882 140.785 441.514C136.784 439.123 133.706 435.809 131.552 431.571C129.421 427.333 128.356 422.456 128.356 416.94C128.356 411.353 129.433 406.453 131.588 402.239C133.766 398.001 136.855 394.698 140.856 392.331C144.857 389.94 149.615 388.744 155.132 388.744C159.89 388.744 164.057 389.608 167.632 391.337C171.206 393.065 174.035 395.491 176.119 398.616C178.202 401.741 179.35 405.411 179.563 409.625H165.288C164.885 406.902 163.82 404.713 162.092 403.055C160.387 401.375 158.15 400.534 155.38 400.534C153.036 400.534 150.989 401.173 149.237 402.452C147.508 403.706 146.159 405.541 145.188 407.956C144.218 410.371 143.732 413.295 143.732 416.727C143.732 420.207 144.206 423.167 145.153 425.605C146.124 428.044 147.485 429.902 149.237 431.18C150.989 432.459 153.036 433.098 155.38 433.098C157.108 433.098 158.659 432.743 160.032 432.033C161.429 431.322 162.577 430.293 163.477 428.943C164.4 427.57 165.004 425.925 165.288 424.007H179.563C179.327 428.174 178.19 431.843 176.154 435.016C174.142 438.164 171.36 440.626 167.809 442.402C164.258 444.178 160.056 445.065 155.203 445.065ZM202.171 445.03C198.691 445.03 195.59 444.426 192.868 443.219C190.145 441.988 187.991 440.177 186.404 437.786C184.842 435.371 184.061 432.364 184.061 428.766C184.061 425.735 184.617 423.19 185.73 421.131C186.842 419.071 188.358 417.414 190.275 416.159C192.193 414.904 194.371 413.957 196.809 413.318C199.271 412.679 201.852 412.229 204.551 411.969C207.723 411.637 210.28 411.33 212.221 411.045C214.163 410.738 215.571 410.288 216.447 409.696C217.323 409.104 217.761 408.228 217.761 407.068V406.855C217.761 404.606 217.051 402.866 215.63 401.635C214.234 400.404 212.245 399.788 209.664 399.788C206.942 399.788 204.776 400.392 203.166 401.599C201.556 402.783 200.491 404.275 199.97 406.074L185.978 404.938C186.689 401.623 188.085 398.759 190.169 396.344C192.252 393.905 194.939 392.035 198.23 390.733C201.544 389.407 205.379 388.744 209.735 388.744C212.766 388.744 215.666 389.099 218.436 389.81C221.229 390.52 223.703 391.621 225.858 393.112C228.036 394.604 229.752 396.521 231.007 398.865C232.261 401.185 232.889 403.967 232.889 407.21V444H218.542V436.436H218.116C217.24 438.141 216.068 439.644 214.6 440.946C213.133 442.224 211.369 443.231 209.309 443.964C207.25 444.675 204.87 445.03 202.171 445.03ZM206.504 434.589C208.729 434.589 210.694 434.152 212.399 433.276C214.103 432.376 215.441 431.169 216.412 429.653C217.382 428.138 217.868 426.422 217.868 424.504V418.716C217.394 419.024 216.743 419.308 215.914 419.568C215.109 419.805 214.198 420.03 213.18 420.243C212.162 420.432 211.144 420.61 210.126 420.776C209.108 420.918 208.185 421.048 207.356 421.166C205.581 421.427 204.03 421.841 202.704 422.409C201.378 422.977 200.349 423.747 199.615 424.717C198.881 425.664 198.514 426.848 198.514 428.268C198.514 430.328 199.26 431.902 200.751 432.991C202.266 434.057 204.184 434.589 206.504 434.589ZM257.122 371.273V444H241.994V371.273H257.122ZM266.608 444V389.455H281.736V444H266.608ZM274.208 382.423C271.959 382.423 270.029 381.678 268.419 380.186C266.833 378.671 266.04 376.86 266.04 374.753C266.04 372.67 266.833 370.882 268.419 369.391C270.029 367.875 271.959 367.118 274.208 367.118C276.457 367.118 278.374 367.875 279.961 369.391C281.57 370.882 282.375 372.67 282.375 374.753C282.375 376.86 281.57 378.671 279.961 380.186C278.374 381.678 276.457 382.423 274.208 382.423ZM306.351 412.466V444H291.223V389.455H305.64V399.078H306.28C307.487 395.906 309.511 393.396 312.352 391.55C315.193 389.679 318.638 388.744 322.686 388.744C326.474 388.744 329.776 389.573 332.594 391.23C335.411 392.887 337.601 395.255 339.163 398.332C340.726 401.386 341.507 405.032 341.507 409.27V444H326.379V411.969C326.403 408.631 325.55 406.027 323.822 404.156C322.094 402.262 319.715 401.315 316.684 401.315C314.648 401.315 312.849 401.753 311.287 402.629C309.748 403.505 308.54 404.784 307.665 406.464C306.812 408.122 306.374 410.122 306.351 412.466ZM375.372 465.591C370.472 465.591 366.269 464.916 362.766 463.567C359.285 462.241 356.516 460.43 354.456 458.134C352.396 455.837 351.059 453.257 350.443 450.392L364.435 448.51C364.861 449.599 365.535 450.617 366.459 451.564C367.382 452.511 368.601 453.268 370.116 453.837C371.655 454.429 373.526 454.724 375.727 454.724C379.018 454.724 381.729 453.92 383.859 452.31C386.014 450.723 387.091 448.06 387.091 444.32V434.341H386.452C385.789 435.856 384.794 437.288 383.469 438.638C382.143 439.987 380.438 441.088 378.355 441.94C376.272 442.793 373.786 443.219 370.898 443.219C366.802 443.219 363.073 442.272 359.712 440.378C356.374 438.46 353.71 435.536 351.722 431.607C349.757 427.653 348.774 422.658 348.774 416.621C348.774 410.442 349.78 405.281 351.793 401.138C353.805 396.995 356.48 393.893 359.818 391.834C363.18 389.774 366.861 388.744 370.862 388.744C373.916 388.744 376.473 389.265 378.533 390.307C380.592 391.325 382.249 392.603 383.504 394.142C384.783 395.657 385.765 397.149 386.452 398.616H387.02V389.455H402.041V444.533C402.041 449.173 400.905 453.055 398.632 456.18C396.359 459.305 393.211 461.649 389.186 463.212C385.185 464.798 380.58 465.591 375.372 465.591ZM375.692 431.855C378.13 431.855 380.19 431.251 381.871 430.044C383.575 428.813 384.877 427.061 385.777 424.788C386.7 422.492 387.162 419.746 387.162 416.55C387.162 413.354 386.712 410.584 385.812 408.24C384.913 405.873 383.611 404.038 381.906 402.736C380.202 401.434 378.13 400.783 375.692 400.783C373.206 400.783 371.111 401.457 369.406 402.807C367.702 404.133 366.411 405.979 365.535 408.347C364.66 410.714 364.222 413.448 364.222 416.55C364.222 419.698 364.66 422.421 365.535 424.717C366.435 426.99 367.725 428.754 369.406 430.009C371.111 431.24 373.206 431.855 375.692 431.855Z" fill="black"/>
<rect x="71" y="498" width="1038" height="19" fill="black"/>
</svg>
