<svg width="1200" height="900" viewBox="0 0 1200 900" fill="none" xmlns="http://www.w3.org/2000/svg">
<rect width="1200" height="900" fill="white"/>
<path d="M103.102 444H77.321V371.273H103.315C110.631 371.273 116.928 372.729 122.207 375.641C127.487 378.529 131.547 382.684 134.388 388.105C137.252 393.527 138.685 400.013 138.685 407.565C138.685 415.141 137.252 421.652 134.388 427.097C131.547 432.542 127.463 436.72 122.136 439.632C116.833 442.544 110.489 444 103.102 444ZM92.6974 430.825H102.463C107.009 430.825 110.832 430.02 113.933 428.411C117.058 426.777 119.402 424.256 120.964 420.847C122.551 417.414 123.344 412.987 123.344 407.565C123.344 402.191 122.551 397.8 120.964 394.391C119.402 390.982 117.07 388.472 113.969 386.862C110.867 385.252 107.044 384.447 102.499 384.447H92.6974V430.825ZM171.804 445.065C166.288 445.065 161.518 443.893 157.493 441.55C153.492 439.182 150.403 435.892 148.225 431.678C146.047 427.44 144.958 422.527 144.958 416.94C144.958 411.306 146.047 406.382 148.225 402.168C150.403 397.93 153.492 394.639 157.493 392.295C161.518 389.928 166.288 388.744 171.804 388.744C177.32 388.744 182.079 389.928 186.08 392.295C190.104 394.639 193.206 397.93 195.384 402.168C197.562 406.382 198.651 411.306 198.651 416.94C198.651 422.527 197.562 427.44 195.384 431.678C193.206 435.892 190.104 439.182 186.08 441.55C182.079 443.893 177.32 445.065 171.804 445.065ZM171.875 433.347C174.385 433.347 176.48 432.636 178.161 431.216C179.842 429.772 181.108 427.807 181.96 425.321C182.836 422.835 183.274 420.006 183.274 416.834C183.274 413.661 182.836 410.832 181.96 408.347C181.108 405.861 179.842 403.896 178.161 402.452C176.48 401.008 174.385 400.286 171.875 400.286C169.342 400.286 167.211 401.008 165.483 402.452C163.779 403.896 162.488 405.861 161.612 408.347C160.76 410.832 160.334 413.661 160.334 416.834C160.334 420.006 160.76 422.835 161.612 425.321C162.488 427.807 163.779 429.772 165.483 431.216C167.211 432.636 169.342 433.347 171.875 433.347ZM220.984 412.466V444H205.856V389.455H220.273V399.078H220.913C222.12 395.906 224.144 393.396 226.985 391.55C229.826 389.679 233.271 388.744 237.319 388.744C241.107 388.744 244.409 389.573 247.227 391.23C250.044 392.887 252.234 395.255 253.796 398.332C255.359 401.386 256.14 405.032 256.14 409.27V444H241.012V411.969C241.036 408.631 240.183 406.027 238.455 404.156C236.727 402.262 234.348 401.315 231.317 401.315C229.281 401.315 227.482 401.753 225.92 402.629C224.381 403.505 223.174 404.784 222.298 406.464C221.445 408.122 221.007 410.122 220.984 412.466ZM278.109 371.273V378.943C278.109 381.121 277.683 383.347 276.83 385.619C276.002 387.868 274.889 389.999 273.492 392.011C272.096 394 270.569 395.693 268.911 397.089L262.235 393.148C263.419 391.277 264.461 389.206 265.36 386.933C266.284 384.661 266.745 382.021 266.745 379.014V371.273H278.109ZM316.422 389.455V400.818H283.574V389.455H316.422ZM291.031 376.386H306.159V427.239C306.159 428.635 306.372 429.724 306.798 430.506C307.224 431.263 307.816 431.796 308.574 432.104C309.355 432.411 310.255 432.565 311.273 432.565C311.983 432.565 312.693 432.506 313.403 432.388C314.114 432.246 314.658 432.139 315.037 432.068L317.416 443.325C316.659 443.562 315.593 443.834 314.22 444.142C312.847 444.473 311.178 444.675 309.213 444.746C305.567 444.888 302.371 444.402 299.625 443.29C296.902 442.177 294.784 440.449 293.268 438.105C291.753 435.761 291.008 432.802 291.031 429.227V376.386ZM389.541 405.009L375.692 405.861C375.455 404.677 374.946 403.612 374.165 402.665C373.383 401.694 372.354 400.925 371.075 400.357C369.821 399.765 368.317 399.469 366.565 399.469C364.222 399.469 362.245 399.966 360.635 400.96C359.025 401.931 358.22 403.233 358.22 404.866C358.22 406.169 358.741 407.269 359.783 408.169C360.824 409.069 362.612 409.791 365.145 410.335L375.017 412.324C380.32 413.413 384.274 415.165 386.878 417.58C389.482 419.994 390.784 423.167 390.784 427.097C390.784 430.671 389.731 433.808 387.624 436.507C385.54 439.206 382.676 441.313 379.03 442.828C375.408 444.32 371.229 445.065 366.494 445.065C359.274 445.065 353.521 443.562 349.236 440.555C344.974 437.525 342.477 433.406 341.743 428.197L356.622 427.416C357.072 429.618 358.161 431.299 359.889 432.459C361.617 433.595 363.831 434.163 366.53 434.163C369.181 434.163 371.312 433.654 372.922 432.636C374.555 431.595 375.384 430.257 375.408 428.624C375.384 427.25 374.804 426.126 373.668 425.25C372.531 424.35 370.779 423.664 368.412 423.19L358.966 421.308C353.639 420.243 349.674 418.396 347.07 415.768C344.489 413.141 343.199 409.791 343.199 405.719C343.199 402.215 344.146 399.196 346.04 396.663C347.957 394.13 350.644 392.177 354.101 390.804C357.581 389.431 361.653 388.744 366.317 388.744C373.206 388.744 378.627 390.2 382.581 393.112C386.558 396.024 388.878 399.99 389.541 405.009ZM422.323 445.065C416.736 445.065 411.93 443.882 407.906 441.514C403.905 439.123 400.827 435.809 398.673 431.571C396.542 427.333 395.477 422.456 395.477 416.94C395.477 411.353 396.554 406.453 398.708 402.239C400.886 398.001 403.976 394.698 407.977 392.331C411.978 389.94 416.736 388.744 422.252 388.744C427.011 388.744 431.177 389.608 434.752 391.337C438.327 393.065 441.156 395.491 443.239 398.616C445.323 401.741 446.471 405.411 446.684 409.625H432.408C432.006 406.902 430.941 404.713 429.212 403.055C427.508 401.375 425.271 400.534 422.501 400.534C420.157 400.534 418.109 401.173 416.357 402.452C414.629 403.706 413.28 405.541 412.309 407.956C411.338 410.371 410.853 413.295 410.853 416.727C410.853 420.207 411.327 423.167 412.274 425.605C413.244 428.044 414.605 429.902 416.357 431.18C418.109 432.459 420.157 433.098 422.501 433.098C424.229 433.098 425.78 432.743 427.153 432.033C428.55 431.322 429.698 430.293 430.597 428.943C431.521 427.57 432.124 425.925 432.408 424.007H446.684C446.447 428.174 445.311 431.843 443.275 435.016C441.263 438.164 438.481 440.626 434.93 442.402C431.379 444.178 427.176 445.065 422.323 445.065ZM469.292 445.03C465.812 445.03 462.711 444.426 459.988 443.219C457.266 441.988 455.111 440.177 453.525 437.786C451.963 435.371 451.181 432.364 451.181 428.766C451.181 425.735 451.738 423.19 452.85 421.131C453.963 419.071 455.478 417.414 457.396 416.159C459.313 414.904 461.492 413.957 463.93 413.318C466.392 412.679 468.973 412.229 471.671 411.969C474.844 411.637 477.401 411.33 479.342 411.045C481.283 410.738 482.692 410.288 483.568 409.696C484.444 409.104 484.882 408.228 484.882 407.068V406.855C484.882 404.606 484.171 402.866 482.751 401.635C481.354 400.404 479.366 399.788 476.785 399.788C474.063 399.788 471.896 400.392 470.286 401.599C468.677 402.783 467.611 404.275 467.09 406.074L453.099 404.938C453.809 401.623 455.206 398.759 457.289 396.344C459.373 393.905 462.06 392.035 465.35 390.733C468.665 389.407 472.5 388.744 476.856 388.744C479.886 388.744 482.786 389.099 485.556 389.81C488.35 390.52 490.824 391.621 492.978 393.112C495.156 394.604 496.873 396.521 498.127 398.865C499.382 401.185 500.01 403.967 500.01 407.21V444H485.663V436.436H485.237C484.361 438.141 483.189 439.644 481.721 440.946C480.253 442.224 478.49 443.231 476.43 443.964C474.37 444.675 471.991 445.03 469.292 445.03ZM473.625 434.589C475.85 434.589 477.815 434.152 479.519 433.276C481.224 432.376 482.562 431.169 483.532 429.653C484.503 428.138 484.988 426.422 484.988 424.504V418.716C484.515 419.024 483.864 419.308 483.035 419.568C482.23 419.805 481.319 420.03 480.301 420.243C479.283 420.432 478.265 420.61 477.247 420.776C476.229 420.918 475.305 421.048 474.477 421.166C472.701 421.427 471.151 421.841 469.825 422.409C468.499 422.977 467.469 423.747 466.735 424.717C466.001 425.664 465.635 426.848 465.635 428.268C465.635 430.328 466.38 431.902 467.872 432.991C469.387 434.057 471.304 434.589 473.625 434.589ZM524.242 371.273V444H509.114V371.273H524.242ZM558.587 445.065C552.976 445.065 548.147 443.929 544.098 441.656C540.074 439.36 536.972 436.116 534.794 431.926C532.616 427.712 531.527 422.729 531.527 416.976C531.527 411.365 532.616 406.441 534.794 402.203C536.972 397.965 540.038 394.663 543.992 392.295C547.969 389.928 552.633 388.744 557.983 388.744C561.582 388.744 564.932 389.324 568.033 390.484C571.158 391.621 573.88 393.337 576.201 395.634C578.544 397.93 580.367 400.818 581.669 404.298C582.971 407.755 583.622 411.803 583.622 416.443V420.598H537.564V411.223H569.382C569.382 409.045 568.909 407.116 567.962 405.435C567.015 403.754 565.701 402.44 564.02 401.493C562.363 400.522 560.433 400.037 558.232 400.037C555.935 400.037 553.899 400.57 552.124 401.635C550.372 402.677 548.999 404.085 548.005 405.861C547.01 407.613 546.501 409.566 546.478 411.72V420.634C546.478 423.332 546.975 425.664 547.969 427.629C548.987 429.594 550.419 431.109 552.266 432.175C554.112 433.24 556.302 433.773 558.835 433.773C560.516 433.773 562.055 433.536 563.452 433.062C564.849 432.589 566.044 431.879 567.039 430.932C568.033 429.985 568.791 428.825 569.311 427.452L583.303 428.375C582.593 431.737 581.137 434.672 578.935 437.182C576.757 439.668 573.94 441.609 570.483 443.006C567.05 444.379 563.085 445.065 558.587 445.065ZM608.938 371.273L607.553 422.196H594.556L593.136 371.273H608.938ZM601.055 444.923C598.711 444.923 596.699 444.095 595.018 442.438C593.337 440.757 592.508 438.744 592.532 436.401C592.508 434.08 593.337 432.092 595.018 430.435C596.699 428.777 598.711 427.949 601.055 427.949C603.304 427.949 605.281 428.777 606.985 430.435C608.69 432.092 609.554 434.08 609.577 436.401C609.554 437.963 609.139 439.395 608.335 440.697C607.553 441.976 606.523 443.006 605.245 443.787C603.967 444.545 602.57 444.923 601.055 444.923Z" fill="black"/>
<rect x="71" y="498" width="1038" height="19" fill="black"/>
</svg>
