<svg width="1200" height="900" viewBox="0 0 1200 900" fill="none" xmlns="http://www.w3.org/2000/svg">
<rect width="1200" height="900" fill="white"/>
<rect x="71" y="159" width="1038" height="8" fill="black"/>
<path d="M93.2005 115.872C93.0627 114.482 92.4714 113.403 91.4265 112.634C90.3816 111.864 88.9636 111.48 87.1724 111.48C85.9553 111.48 84.9277 111.652 84.0895 111.996C83.2513 112.329 82.6083 112.794 82.1605 113.392C81.7242 113.989 81.506 114.666 81.506 115.424C81.4831 116.055 81.6151 116.606 81.9022 117.077C82.2007 117.548 82.6083 117.956 83.125 118.3C83.6417 118.633 84.2388 118.926 84.9162 119.178C85.5936 119.42 86.317 119.626 87.0863 119.798L90.2553 120.556C91.7939 120.901 93.2062 121.36 94.4922 121.934C95.7782 122.508 96.8919 123.214 97.8335 124.053C98.775 124.891 99.5041 125.878 100.021 127.015C100.549 128.152 100.819 129.455 100.83 130.925C100.819 133.083 100.268 134.955 99.1768 136.539C98.0975 138.112 96.536 139.335 94.4922 140.208C92.4599 141.069 90.0085 141.499 87.138 141.499C84.2904 141.499 81.8103 141.063 79.6976 140.191C77.5964 139.318 75.9545 138.026 74.7718 136.315C73.6007 134.593 72.9864 132.463 72.929 129.926H80.1454C80.2258 131.108 80.5645 132.096 81.1616 132.888C81.7701 133.669 82.5796 134.26 83.59 134.662C84.6119 135.052 85.7659 135.248 87.0518 135.248C88.3149 135.248 89.4114 135.064 90.3414 134.696C91.283 134.329 92.0121 133.818 92.5288 133.164C93.0455 132.509 93.3038 131.757 93.3038 130.907C93.3038 130.115 93.0684 129.449 92.5977 128.909C92.1384 128.37 91.4609 127.911 90.5653 127.532C89.6812 127.153 88.5962 126.808 87.3102 126.498L83.4695 125.534C80.4956 124.81 78.1475 123.679 76.4252 122.141C74.7029 120.602 73.8475 118.53 73.859 115.923C73.8475 113.788 74.4159 111.922 75.5641 110.326C76.7238 108.73 78.314 107.484 80.3349 106.588C82.3557 105.693 84.6521 105.245 87.2241 105.245C89.842 105.245 92.1269 105.693 94.0788 106.588C96.0423 107.484 97.5694 108.73 98.6602 110.326C99.7509 111.922 100.314 113.77 100.348 115.872H93.2005ZM118.235 114.545V120.057H102.304V114.545H118.235ZM105.921 108.207H113.258V132.871C113.258 133.548 113.361 134.076 113.568 134.455C113.775 134.823 114.062 135.081 114.429 135.23C114.808 135.38 115.244 135.454 115.738 135.454C116.082 135.454 116.427 135.425 116.771 135.368C117.116 135.299 117.38 135.248 117.564 135.213L118.718 140.673C118.35 140.788 117.833 140.92 117.167 141.069C116.502 141.23 115.692 141.327 114.739 141.362C112.971 141.431 111.421 141.195 110.089 140.656C108.768 140.116 107.741 139.278 107.006 138.141C106.271 137.004 105.909 135.569 105.921 133.835V108.207ZM121.47 141V114.545H128.583V119.161H128.859C129.341 117.519 130.15 116.279 131.287 115.441C132.424 114.591 133.733 114.167 135.214 114.167C135.581 114.167 135.978 114.19 136.402 114.235C136.827 114.281 137.2 114.345 137.522 114.425V120.935C137.177 120.832 136.701 120.74 136.092 120.66C135.484 120.579 134.927 120.539 134.422 120.539C133.342 120.539 132.378 120.774 131.528 121.245C130.69 121.704 130.024 122.347 129.53 123.174C129.048 124.001 128.807 124.954 128.807 126.033V141H121.47ZM146.557 141.499C144.869 141.499 143.365 141.207 142.044 140.621C140.724 140.024 139.679 139.146 138.91 137.986C138.152 136.815 137.773 135.357 137.773 133.611C137.773 132.142 138.043 130.907 138.582 129.908C139.122 128.909 139.857 128.106 140.787 127.497C141.717 126.889 142.773 126.429 143.956 126.119C145.15 125.809 146.402 125.591 147.711 125.465C149.249 125.304 150.489 125.155 151.431 125.017C152.372 124.868 153.055 124.65 153.48 124.363C153.905 124.076 154.117 123.651 154.117 123.088V122.985C154.117 121.894 153.773 121.05 153.084 120.453C152.407 119.856 151.442 119.557 150.191 119.557C148.87 119.557 147.82 119.85 147.039 120.436C146.258 121.01 145.741 121.733 145.489 122.606L138.703 122.055C139.047 120.447 139.725 119.058 140.735 117.887C141.746 116.704 143.049 115.797 144.645 115.165C146.252 114.522 148.112 114.201 150.225 114.201C151.695 114.201 153.101 114.373 154.445 114.718C155.8 115.062 156.999 115.596 158.044 116.319C159.101 117.043 159.933 117.973 160.542 119.11C161.15 120.235 161.454 121.584 161.454 123.157V141H154.496V137.331H154.29C153.865 138.158 153.297 138.887 152.585 139.519C151.873 140.139 151.017 140.627 150.018 140.983C149.019 141.327 147.866 141.499 146.557 141.499ZM148.658 136.436C149.737 136.436 150.69 136.223 151.517 135.799C152.344 135.362 152.992 134.777 153.463 134.042C153.934 133.307 154.169 132.475 154.169 131.545V128.737C153.94 128.886 153.624 129.024 153.222 129.151C152.832 129.265 152.389 129.374 151.896 129.478C151.402 129.57 150.908 129.656 150.415 129.736C149.921 129.805 149.473 129.868 149.071 129.926C148.21 130.052 147.458 130.253 146.815 130.528C146.172 130.804 145.672 131.177 145.317 131.648C144.961 132.107 144.783 132.681 144.783 133.37C144.783 134.369 145.144 135.133 145.868 135.661C146.603 136.178 147.533 136.436 148.658 136.436ZM179.673 114.545V120.057H163.742V114.545H179.673ZM167.359 108.207H174.696V132.871C174.696 133.548 174.799 134.076 175.006 134.455C175.213 134.823 175.5 135.081 175.867 135.23C176.246 135.38 176.682 135.454 177.176 135.454C177.52 135.454 177.865 135.425 178.209 135.368C178.554 135.299 178.818 135.248 179.002 135.213L180.156 140.673C179.788 140.788 179.271 140.92 178.605 141.069C177.94 141.23 177.13 141.327 176.177 141.362C174.409 141.431 172.859 141.195 171.527 140.656C170.206 140.116 169.179 139.278 168.444 138.141C167.709 137.004 167.347 135.569 167.359 133.835V108.207ZM194.68 141.517C191.959 141.517 189.616 140.966 187.653 139.863C185.701 138.75 184.197 137.176 183.141 135.144C182.084 133.1 181.556 130.683 181.556 127.893C181.556 125.172 182.084 122.784 183.141 120.729C184.197 118.673 185.684 117.071 187.601 115.923C189.53 114.775 191.792 114.201 194.387 114.201C196.133 114.201 197.757 114.482 199.261 115.045C200.777 115.596 202.097 116.429 203.223 117.542C204.359 118.656 205.243 120.057 205.875 121.745C206.507 123.421 206.822 125.384 206.822 127.635V129.65H184.484V125.103H199.916C199.916 124.047 199.686 123.111 199.227 122.296C198.768 121.481 198.13 120.843 197.315 120.384C196.511 119.913 195.576 119.678 194.508 119.678C193.394 119.678 192.407 119.936 191.545 120.453C190.696 120.958 190.03 121.641 189.548 122.502C189.065 123.352 188.818 124.299 188.807 125.344V129.667C188.807 130.976 189.048 132.107 189.53 133.06C190.024 134.013 190.719 134.748 191.614 135.265C192.51 135.781 193.572 136.04 194.801 136.04C195.616 136.04 196.362 135.925 197.04 135.695C197.717 135.466 198.297 135.121 198.779 134.662C199.261 134.203 199.629 133.64 199.881 132.974L206.667 133.422C206.323 135.052 205.617 136.476 204.549 137.693C203.492 138.899 202.126 139.84 200.45 140.518C198.785 141.184 196.862 141.517 194.68 141.517ZM221.984 151.472C219.607 151.472 217.569 151.144 215.87 150.49C214.182 149.847 212.839 148.969 211.84 147.855C210.841 146.741 210.192 145.489 209.893 144.1L216.679 143.187C216.886 143.715 217.213 144.209 217.661 144.669C218.109 145.128 218.7 145.495 219.435 145.771C220.181 146.058 221.088 146.201 222.156 146.201C223.752 146.201 225.067 145.811 226.1 145.03C227.145 144.261 227.668 142.969 227.668 141.155V136.315H227.358C227.036 137.05 226.554 137.745 225.911 138.399C225.268 139.054 224.441 139.588 223.431 140.001C222.42 140.414 221.215 140.621 219.814 140.621C217.828 140.621 216.019 140.162 214.389 139.243C212.77 138.313 211.478 136.895 210.513 134.989C209.56 133.072 209.084 130.649 209.084 127.721C209.084 124.724 209.572 122.221 210.548 120.212C211.524 118.202 212.821 116.698 214.44 115.699C216.071 114.7 217.856 114.201 219.797 114.201C221.278 114.201 222.518 114.454 223.517 114.959C224.516 115.453 225.32 116.073 225.928 116.819C226.548 117.554 227.025 118.277 227.358 118.989H227.633V114.545H234.918V141.258C234.918 143.509 234.367 145.392 233.265 146.907C232.163 148.423 230.636 149.56 228.684 150.318C226.743 151.087 224.51 151.472 221.984 151.472ZM222.139 135.11C223.322 135.11 224.321 134.817 225.136 134.231C225.963 133.634 226.594 132.785 227.03 131.682C227.478 130.569 227.702 129.237 227.702 127.687C227.702 126.137 227.484 124.793 227.048 123.656C226.611 122.508 225.98 121.618 225.153 120.987C224.326 120.355 223.322 120.04 222.139 120.04C220.933 120.04 219.917 120.367 219.091 121.021C218.264 121.664 217.638 122.56 217.213 123.708C216.788 124.856 216.576 126.182 216.576 127.687C216.576 129.214 216.788 130.534 217.213 131.648C217.65 132.75 218.275 133.606 219.091 134.214C219.917 134.811 220.933 135.11 222.139 135.11ZM239.212 141V114.545H246.549V141H239.212ZM242.898 111.135C241.807 111.135 240.872 110.774 240.091 110.05C239.322 109.315 238.937 108.437 238.937 107.415C238.937 106.405 239.322 105.538 240.091 104.814C240.872 104.08 241.807 103.712 242.898 103.712C243.989 103.712 244.919 104.08 245.688 104.814C246.469 105.538 246.86 106.405 246.86 107.415C246.86 108.437 246.469 109.315 245.688 110.05C244.919 110.774 243.989 111.135 242.898 111.135ZM262.938 141.517C260.217 141.517 257.875 140.966 255.911 139.863C253.959 138.75 252.455 137.176 251.399 135.144C250.343 133.1 249.814 130.683 249.814 127.893C249.814 125.172 250.343 122.784 251.399 120.729C252.455 118.673 253.942 117.071 255.86 115.923C257.789 114.775 260.051 114.201 262.646 114.201C264.391 114.201 266.016 114.482 267.52 115.045C269.035 115.596 270.356 116.429 271.481 117.542C272.618 118.656 273.502 120.057 274.133 121.745C274.765 123.421 275.081 125.384 275.081 127.635V129.65H252.742V125.103H268.174C268.174 124.047 267.945 123.111 267.485 122.296C267.026 121.481 266.389 120.843 265.573 120.384C264.77 119.913 263.834 119.678 262.766 119.678C261.652 119.678 260.665 119.936 259.804 120.453C258.954 120.958 258.288 121.641 257.806 122.502C257.324 123.352 257.077 124.299 257.065 125.344V129.667C257.065 130.976 257.306 132.107 257.789 133.06C258.282 134.013 258.977 134.748 259.873 135.265C260.768 135.781 261.83 136.04 263.059 136.04C263.874 136.04 264.62 135.925 265.298 135.695C265.975 135.466 266.555 135.121 267.037 134.662C267.52 134.203 267.887 133.64 268.14 132.974L274.926 133.422C274.581 135.052 273.875 136.476 272.807 137.693C271.751 138.899 270.384 139.84 268.708 140.518C267.043 141.184 265.12 141.517 262.938 141.517ZM300.335 122.089L293.618 122.502C293.503 121.928 293.256 121.412 292.877 120.952C292.499 120.482 291.999 120.108 291.379 119.833C290.77 119.546 290.041 119.402 289.192 119.402C288.055 119.402 287.096 119.643 286.315 120.126C285.535 120.596 285.144 121.228 285.144 122.02C285.144 122.652 285.397 123.186 285.902 123.622C286.407 124.058 287.274 124.408 288.503 124.673L293.291 125.637C295.863 126.165 297.78 127.015 299.043 128.186C300.306 129.357 300.938 130.896 300.938 132.802C300.938 134.536 300.427 136.057 299.405 137.366C298.395 138.675 297.005 139.697 295.237 140.432C293.48 141.155 291.454 141.517 289.157 141.517C285.655 141.517 282.865 140.788 280.787 139.329C278.72 137.86 277.509 135.862 277.153 133.336L284.369 132.957C284.587 134.025 285.116 134.84 285.954 135.403C286.792 135.954 287.866 136.229 289.174 136.229C290.46 136.229 291.494 135.982 292.275 135.489C293.067 134.983 293.469 134.335 293.48 133.542C293.469 132.876 293.187 132.331 292.636 131.906C292.085 131.47 291.236 131.137 290.087 130.907L285.506 129.994C282.923 129.478 280.999 128.582 279.736 127.308C278.485 126.033 277.859 124.408 277.859 122.434C277.859 120.734 278.318 119.27 279.237 118.042C280.167 116.813 281.47 115.866 283.146 115.2C284.834 114.534 286.809 114.201 289.071 114.201C292.412 114.201 295.042 114.907 296.959 116.319C298.888 117.732 300.014 119.655 300.335 122.089ZM327.92 114.545V120.057H311.593V114.545H327.92ZM315.33 141V112.634C315.33 110.716 315.703 109.126 316.449 107.863C317.207 106.6 318.241 105.653 319.55 105.021C320.859 104.39 322.346 104.074 324.01 104.074C325.136 104.074 326.163 104.16 327.093 104.332C328.035 104.504 328.735 104.659 329.195 104.797L327.886 110.309C327.599 110.217 327.243 110.131 326.818 110.05C326.404 109.97 325.98 109.93 325.543 109.93C324.464 109.93 323.712 110.182 323.287 110.688C322.862 111.181 322.65 111.876 322.65 112.771V141H315.33ZM341.863 141.517C339.188 141.517 336.874 140.948 334.922 139.812C332.982 138.663 331.483 137.067 330.427 135.024C329.371 132.968 328.843 130.586 328.843 127.876C328.843 125.143 329.371 122.755 330.427 120.711C331.483 118.656 332.982 117.06 334.922 115.923C336.874 114.775 339.188 114.201 341.863 114.201C344.539 114.201 346.846 114.775 348.787 115.923C350.739 117.06 352.243 118.656 353.299 120.711C354.356 122.755 354.884 125.143 354.884 127.876C354.884 130.586 354.356 132.968 353.299 135.024C352.243 137.067 350.739 138.663 348.787 139.812C346.846 140.948 344.539 141.517 341.863 141.517ZM341.898 135.833C343.115 135.833 344.131 135.489 344.946 134.8C345.761 134.099 346.376 133.146 346.789 131.941C347.214 130.735 347.426 129.363 347.426 127.824C347.426 126.286 347.214 124.914 346.789 123.708C346.376 122.502 345.761 121.549 344.946 120.849C344.131 120.149 343.115 119.798 341.898 119.798C340.669 119.798 339.636 120.149 338.798 120.849C337.971 121.549 337.345 122.502 336.92 123.708C336.507 124.914 336.3 126.286 336.3 127.824C336.3 129.363 336.507 130.735 336.92 131.941C337.345 133.146 337.971 134.099 338.798 134.8C339.636 135.489 340.669 135.833 341.898 135.833ZM358.11 141V114.545H365.223V119.161H365.499C365.981 117.519 366.79 116.279 367.927 115.441C369.064 114.591 370.373 114.167 371.854 114.167C372.221 114.167 372.618 114.19 373.042 114.235C373.467 114.281 373.84 114.345 374.162 114.425V120.935C373.817 120.832 373.341 120.74 372.732 120.66C372.124 120.579 371.567 120.539 371.062 120.539C369.982 120.539 369.018 120.774 368.168 121.245C367.33 121.704 366.664 122.347 366.17 123.174C365.688 124.001 365.447 124.954 365.447 126.033V141H358.11ZM403.573 150.92V136.763H403.349C403.004 137.498 402.516 138.227 401.885 138.95C401.265 139.662 400.455 140.254 399.456 140.724C398.469 141.195 397.263 141.431 395.839 141.431C393.83 141.431 392.01 140.914 390.38 139.881C388.761 138.836 387.475 137.303 386.522 135.282C385.58 133.25 385.109 130.758 385.109 127.807C385.109 124.776 385.597 122.256 386.573 120.246C387.549 118.225 388.847 116.716 390.466 115.717C392.096 114.706 393.882 114.201 395.822 114.201C397.303 114.201 398.538 114.454 399.525 114.959C400.524 115.453 401.328 116.073 401.936 116.819C402.556 117.554 403.027 118.277 403.349 118.989H403.659V114.545H410.892V150.92H403.573ZM398.164 135.592C399.347 135.592 400.346 135.27 401.161 134.627C401.988 133.973 402.62 133.06 403.056 131.889C403.504 130.718 403.728 129.346 403.728 127.773C403.728 126.2 403.509 124.833 403.073 123.674C402.637 122.514 402.005 121.618 401.179 120.987C400.352 120.355 399.347 120.04 398.164 120.04C396.959 120.04 395.943 120.367 395.116 121.021C394.289 121.676 393.664 122.583 393.239 123.743C392.814 124.902 392.601 126.246 392.601 127.773C392.601 129.311 392.814 130.672 393.239 131.855C393.675 133.026 394.301 133.944 395.116 134.61C395.943 135.265 396.959 135.592 398.164 135.592ZM432.203 129.736V114.545H439.54V141H432.495V136.195H432.22C431.623 137.745 430.63 138.991 429.24 139.932C427.862 140.874 426.18 141.344 424.194 141.344C422.426 141.344 420.87 140.943 419.527 140.139C418.183 139.335 417.133 138.193 416.375 136.711C415.628 135.23 415.249 133.456 415.238 131.39V114.545H422.575V130.081C422.586 131.642 423.006 132.876 423.832 133.784C424.659 134.691 425.767 135.144 427.156 135.144C428.04 135.144 428.867 134.943 429.636 134.541C430.406 134.128 431.026 133.519 431.496 132.716C431.979 131.912 432.214 130.919 432.203 129.736ZM443.864 141V114.545H451.201V141H443.864ZM447.55 111.135C446.459 111.135 445.523 110.774 444.742 110.05C443.973 109.315 443.588 108.437 443.588 107.415C443.588 106.405 443.973 105.538 444.742 104.814C445.523 104.08 446.459 103.712 447.55 103.712C448.64 103.712 449.57 104.08 450.34 104.814C451.12 105.538 451.511 106.405 451.511 107.415C451.511 108.437 451.12 109.315 450.34 110.05C449.57 110.774 448.64 111.135 447.55 111.135ZM467.486 141.517C464.777 141.517 462.446 140.943 460.494 139.794C458.553 138.635 457.061 137.027 456.016 134.972C454.982 132.917 454.466 130.551 454.466 127.876C454.466 125.166 454.988 122.79 456.033 120.746C457.089 118.69 458.588 117.089 460.528 115.941C462.469 114.781 464.777 114.201 467.452 114.201C469.76 114.201 471.781 114.62 473.514 115.458C475.248 116.296 476.62 117.473 477.631 118.989C478.641 120.505 479.198 122.284 479.301 124.328H472.378C472.182 123.008 471.666 121.946 470.828 121.142C470.001 120.327 468.916 119.919 467.572 119.919C466.436 119.919 465.443 120.229 464.593 120.849C463.755 121.458 463.1 122.347 462.629 123.519C462.159 124.69 461.923 126.108 461.923 127.773C461.923 129.461 462.153 130.896 462.612 132.078C463.083 133.261 463.743 134.162 464.593 134.782C465.443 135.403 466.436 135.713 467.572 135.713C468.411 135.713 469.163 135.54 469.829 135.196C470.506 134.851 471.063 134.352 471.499 133.697C471.947 133.031 472.24 132.233 472.378 131.303H479.301C479.186 133.324 478.635 135.104 477.648 136.643C476.672 138.17 475.323 139.364 473.601 140.225C471.878 141.086 469.84 141.517 467.486 141.517ZM489.102 133.387L489.12 124.586H490.187L498.661 114.545H507.083L495.699 127.842H493.959L489.102 133.387ZM482.454 141V105.727H489.791V141H482.454ZM498.988 141L491.204 129.478L496.095 124.294L507.583 141H498.988ZM520.105 141.517C517.384 141.517 515.041 140.966 513.078 139.863C511.126 138.75 509.622 137.176 508.566 135.144C507.509 133.1 506.981 130.683 506.981 127.893C506.981 125.172 507.509 122.784 508.566 120.729C509.622 118.673 511.109 117.071 513.026 115.923C514.955 114.775 517.217 114.201 519.812 114.201C521.557 114.201 523.182 114.482 524.686 115.045C526.202 115.596 527.522 116.429 528.648 117.542C529.784 118.656 530.668 120.057 531.3 121.745C531.931 123.421 532.247 125.384 532.247 127.635V129.65H509.909V125.103H525.341C525.341 124.047 525.111 123.111 524.652 122.296C524.193 121.481 523.555 120.843 522.74 120.384C521.936 119.913 521.001 119.678 519.933 119.678C518.819 119.678 517.832 119.936 516.97 120.453C516.121 120.958 515.455 121.641 514.973 122.502C514.49 123.352 514.243 124.299 514.232 125.344V129.667C514.232 130.976 514.473 132.107 514.955 133.06C515.449 134.013 516.144 134.748 517.039 135.265C517.935 135.781 518.997 136.04 520.226 136.04C521.041 136.04 521.787 135.925 522.465 135.695C523.142 135.466 523.722 135.121 524.204 134.662C524.686 134.203 525.054 133.64 525.306 132.974L532.092 133.422C531.748 135.052 531.042 136.476 529.974 137.693C528.917 138.899 527.551 139.84 525.875 140.518C524.21 141.184 522.287 141.517 520.105 141.517ZM535.491 141V114.545H542.604V119.161H542.879C543.362 117.519 544.171 116.279 545.308 115.441C546.444 114.591 547.753 114.167 549.235 114.167C549.602 114.167 549.998 114.19 550.423 114.235C550.848 114.281 551.221 114.345 551.542 114.425V120.935C551.198 120.832 550.722 120.74 550.113 120.66C549.504 120.579 548.948 120.539 548.442 120.539C547.363 120.539 546.399 120.774 545.549 121.245C544.711 121.704 544.045 122.347 543.551 123.174C543.069 124.001 542.828 124.954 542.828 126.033V141H535.491ZM585.483 122.089L578.766 122.502C578.651 121.928 578.404 121.412 578.025 120.952C577.646 120.482 577.147 120.108 576.527 119.833C575.918 119.546 575.189 119.402 574.339 119.402C573.203 119.402 572.244 119.643 571.463 120.126C570.682 120.596 570.292 121.228 570.292 122.02C570.292 122.652 570.545 123.186 571.05 123.622C571.555 124.058 572.422 124.408 573.651 124.673L578.439 125.637C581.011 126.165 582.928 127.015 584.191 128.186C585.454 129.357 586.086 130.896 586.086 132.802C586.086 134.536 585.575 136.057 584.553 137.366C583.542 138.675 582.153 139.697 580.385 140.432C578.628 141.155 576.601 141.517 574.305 141.517C570.803 141.517 568.013 140.788 565.935 139.329C563.868 137.86 562.657 135.862 562.301 133.336L569.517 132.957C569.735 134.025 570.263 134.84 571.102 135.403C571.94 135.954 573.013 136.229 574.322 136.229C575.608 136.229 576.642 135.982 577.422 135.489C578.215 134.983 578.617 134.335 578.628 133.542C578.617 132.876 578.335 132.331 577.784 131.906C577.233 131.47 576.383 131.137 575.235 130.907L570.654 129.994C568.07 129.478 566.147 128.582 564.884 127.308C563.633 126.033 563.007 124.408 563.007 122.434C563.007 120.734 563.466 119.27 564.385 118.042C565.315 116.813 566.618 115.866 568.294 115.2C569.982 114.534 571.957 114.201 574.219 114.201C577.56 114.201 580.19 114.907 582.107 116.319C584.036 117.732 585.161 119.655 585.483 122.089ZM601.114 141.517C598.404 141.517 596.073 140.943 594.121 139.794C592.181 138.635 590.688 137.027 589.643 134.972C588.61 132.917 588.093 130.551 588.093 127.876C588.093 125.166 588.616 122.79 589.661 120.746C590.717 118.69 592.215 117.089 594.156 115.941C596.096 114.781 598.404 114.201 601.079 114.201C603.387 114.201 605.408 114.62 607.142 115.458C608.876 116.296 610.248 117.473 611.258 118.989C612.269 120.505 612.825 122.284 612.929 124.328H606.005C605.81 123.008 605.293 121.946 604.455 121.142C603.628 120.327 602.543 119.919 601.2 119.919C600.063 119.919 599.07 120.229 598.22 120.849C597.382 121.458 596.728 122.347 596.257 123.519C595.786 124.69 595.551 126.108 595.551 127.773C595.551 129.461 595.78 130.896 596.24 132.078C596.71 133.261 597.371 134.162 598.22 134.782C599.07 135.403 600.063 135.713 601.2 135.713C602.038 135.713 602.79 135.54 603.456 135.196C604.134 134.851 604.69 134.352 605.127 133.697C605.575 133.031 605.867 132.233 606.005 131.303H612.929C612.814 133.324 612.263 135.104 611.275 136.643C610.299 138.17 608.95 139.364 607.228 140.225C605.506 141.086 603.468 141.517 601.114 141.517ZM623.626 141.499C621.938 141.499 620.434 141.207 619.113 140.621C617.793 140.024 616.748 139.146 615.979 137.986C615.221 136.815 614.842 135.357 614.842 133.611C614.842 132.142 615.112 130.907 615.651 129.908C616.191 128.909 616.926 128.106 617.856 127.497C618.786 126.889 619.842 126.429 621.025 126.119C622.219 125.809 623.471 125.591 624.779 125.465C626.318 125.304 627.558 125.155 628.5 125.017C629.441 124.868 630.124 124.65 630.549 124.363C630.974 124.076 631.186 123.651 631.186 123.088V122.985C631.186 121.894 630.842 121.05 630.153 120.453C629.476 119.856 628.511 119.557 627.26 119.557C625.939 119.557 624.889 119.85 624.108 120.436C623.327 121.01 622.81 121.733 622.558 122.606L615.772 122.055C616.116 120.447 616.794 119.058 617.804 117.887C618.815 116.704 620.118 115.797 621.714 115.165C623.321 114.522 625.181 114.201 627.294 114.201C628.764 114.201 630.17 114.373 631.514 114.718C632.869 115.062 634.068 115.596 635.113 116.319C636.17 117.043 637.002 117.973 637.611 119.11C638.219 120.235 638.523 121.584 638.523 123.157V141H631.565V137.331H631.359C630.934 138.158 630.365 138.887 629.654 139.519C628.942 140.139 628.086 140.627 627.087 140.983C626.088 141.327 624.934 141.499 623.626 141.499ZM625.727 136.436C626.806 136.436 627.759 136.223 628.586 135.799C629.412 135.362 630.061 134.777 630.532 134.042C631.003 133.307 631.238 132.475 631.238 131.545V128.737C631.008 128.886 630.693 129.024 630.291 129.151C629.9 129.265 629.458 129.374 628.965 129.478C628.471 129.57 627.977 129.656 627.483 129.736C626.99 129.805 626.542 129.868 626.14 129.926C625.279 130.052 624.527 130.253 623.884 130.528C623.241 130.804 622.741 131.177 622.385 131.648C622.03 132.107 621.852 132.681 621.852 133.37C621.852 134.369 622.213 135.133 622.937 135.661C623.671 136.178 624.601 136.436 625.727 136.436ZM650.008 105.727V141H642.671V105.727H650.008ZM654.341 141V114.545H661.678V141H654.341ZM658.027 111.135C656.936 111.135 656 110.774 655.219 110.05C654.45 109.315 654.065 108.437 654.065 107.415C654.065 106.405 654.45 105.538 655.219 104.814C656 104.08 656.936 103.712 658.027 103.712C659.117 103.712 660.047 104.08 660.817 104.814C661.597 105.538 661.988 106.405 661.988 107.415C661.988 108.437 661.597 109.315 660.817 110.05C660.047 110.774 659.117 111.135 658.027 111.135ZM673.348 125.706V141H666.011V114.545H673.003V119.213H673.313C673.899 117.674 674.88 116.457 676.258 115.562C677.636 114.655 679.307 114.201 681.27 114.201C683.107 114.201 684.709 114.603 686.075 115.407C687.442 116.21 688.504 117.359 689.262 118.851C690.019 120.332 690.398 122.101 690.398 124.156V141H683.061V125.465C683.073 123.846 682.659 122.583 681.821 121.676C680.983 120.757 679.829 120.298 678.359 120.298C677.372 120.298 676.499 120.51 675.742 120.935C674.995 121.36 674.41 121.98 673.985 122.795C673.571 123.599 673.359 124.569 673.348 125.706ZM706.555 151.472C704.178 151.472 702.14 151.144 700.441 150.49C698.753 149.847 697.409 148.969 696.41 147.855C695.411 146.741 694.763 145.489 694.464 144.1L701.25 143.187C701.457 143.715 701.784 144.209 702.232 144.669C702.68 145.128 703.271 145.495 704.006 145.771C704.752 146.058 705.659 146.201 706.727 146.201C708.323 146.201 709.638 145.811 710.671 145.03C711.716 144.261 712.238 142.969 712.238 141.155V136.315H711.928C711.607 137.05 711.125 137.745 710.482 138.399C709.839 139.054 709.012 139.588 708.001 140.001C706.991 140.414 705.785 140.621 704.385 140.621C702.398 140.621 700.59 140.162 698.959 139.243C697.34 138.313 696.049 136.895 695.084 134.989C694.131 133.072 693.655 130.649 693.655 127.721C693.655 124.724 694.143 122.221 695.119 120.212C696.095 118.202 697.392 116.698 699.011 115.699C700.641 114.7 702.427 114.201 704.367 114.201C705.849 114.201 707.089 114.454 708.088 114.959C709.087 115.453 709.89 116.073 710.499 116.819C711.119 117.554 711.595 118.277 711.928 118.989H712.204V114.545H719.489V141.258C719.489 143.509 718.938 145.392 717.836 146.907C716.734 148.423 715.206 149.56 713.254 150.318C711.314 151.087 709.081 151.472 706.555 151.472ZM706.71 135.11C707.892 135.11 708.891 134.817 709.707 134.231C710.533 133.634 711.165 132.785 711.601 131.682C712.049 130.569 712.273 129.237 712.273 127.687C712.273 126.137 712.055 124.793 711.618 123.656C711.182 122.508 710.55 121.618 709.724 120.987C708.897 120.355 707.892 120.04 706.71 120.04C705.504 120.04 704.488 120.367 703.661 121.021C702.835 121.664 702.209 122.56 701.784 123.708C701.359 124.856 701.147 126.182 701.147 127.687C701.147 129.214 701.359 130.534 701.784 131.648C702.22 132.75 702.846 133.606 703.661 134.214C704.488 134.811 705.504 135.11 706.71 135.11Z" fill="black"/>
<path d="M102.154 316.636V377H89.392V328.75H89.0384L75.2148 337.416V326.098L90.1584 316.636H102.154ZM117.616 377.766C115.67 377.766 114 377.079 112.605 375.703C111.23 374.308 110.542 372.638 110.542 370.692C110.542 368.767 111.23 367.116 112.605 365.741C114 364.365 115.67 363.678 117.616 363.678C119.502 363.678 121.153 364.365 122.567 365.741C123.982 367.116 124.69 368.767 124.69 370.692C124.69 371.989 124.355 373.178 123.687 374.259C123.039 375.32 122.184 376.175 121.123 376.823C120.062 377.452 118.893 377.766 117.616 377.766ZM166.805 377H145.406V316.636H166.982C173.053 316.636 178.28 317.845 182.662 320.262C187.044 322.659 190.414 326.107 192.772 330.607C195.149 335.107 196.338 340.491 196.338 346.759C196.338 353.047 195.149 358.451 192.772 362.97C190.414 367.49 187.024 370.958 182.603 373.375C178.202 375.792 172.936 377 166.805 377ZM158.169 366.065H166.274C170.047 366.065 173.22 365.397 175.795 364.061C178.388 362.705 180.334 360.612 181.631 357.783C182.947 354.933 183.605 351.259 183.605 346.759C183.605 342.299 182.947 338.654 181.631 335.824C180.334 332.995 178.398 330.912 175.824 329.576C173.25 328.239 170.077 327.571 166.304 327.571H158.169V366.065ZM222.911 377.884C218.333 377.884 214.374 376.912 211.033 374.966C207.712 373.001 205.148 370.27 203.34 366.772C201.533 363.255 200.629 359.178 200.629 354.54C200.629 349.864 201.533 345.777 203.34 342.279C205.148 338.762 207.712 336.031 211.033 334.085C214.374 332.12 218.333 331.138 222.911 331.138C227.49 331.138 231.439 332.12 234.76 334.085C238.1 336.031 240.675 338.762 242.482 342.279C244.29 345.777 245.194 349.864 245.194 354.54C245.194 359.178 244.29 363.255 242.482 366.772C240.675 370.27 238.1 373.001 234.76 374.966C231.439 376.912 227.49 377.884 222.911 377.884ZM222.97 368.158C225.053 368.158 226.792 367.568 228.187 366.389C229.582 365.191 230.634 363.56 231.341 361.496C232.068 359.433 232.432 357.085 232.432 354.452C232.432 351.819 232.068 349.471 231.341 347.408C230.634 345.344 229.582 343.714 228.187 342.515C226.792 341.316 225.053 340.717 222.97 340.717C220.868 340.717 219.099 341.316 217.665 342.515C216.25 343.714 215.179 345.344 214.452 347.408C213.745 349.471 213.391 351.819 213.391 354.452C213.391 357.085 213.745 359.433 214.452 361.496C215.179 363.56 216.25 365.191 217.665 366.389C219.099 367.568 220.868 368.158 222.97 368.158ZM262.814 350.827V377H250.258V331.727H262.225V339.715H262.755C263.757 337.082 265.437 334.999 267.795 333.466C270.153 331.914 273.012 331.138 276.372 331.138C279.516 331.138 282.257 331.826 284.596 333.201C286.934 334.576 288.752 336.541 290.049 339.096C291.345 341.631 291.994 344.657 291.994 348.174V377H279.438V350.414C279.457 347.643 278.75 345.482 277.316 343.93C275.881 342.358 273.906 341.572 271.391 341.572C269.701 341.572 268.208 341.935 266.911 342.662C265.634 343.389 264.632 344.45 263.905 345.846C263.197 347.221 262.834 348.881 262.814 350.827ZM309.312 316.636V323.003C309.312 324.811 308.958 326.658 308.251 328.544C307.563 330.411 306.64 332.179 305.48 333.849C304.321 335.5 303.054 336.905 301.678 338.064L296.137 334.793C297.119 333.24 297.984 331.521 298.731 329.635C299.497 327.748 299.88 325.557 299.88 323.062V316.636H309.312ZM340.196 331.727V341.159H312.932V331.727H340.196ZM319.121 320.881H331.678V363.088C331.678 364.247 331.854 365.151 332.208 365.8C332.562 366.429 333.053 366.871 333.682 367.126C334.33 367.382 335.077 367.509 335.922 367.509C336.511 367.509 337.101 367.46 337.69 367.362C338.28 367.244 338.732 367.156 339.046 367.097L341.021 376.44C340.392 376.636 339.508 376.862 338.368 377.118C337.229 377.393 335.843 377.56 334.212 377.619C331.186 377.737 328.534 377.334 326.254 376.411C323.995 375.487 322.236 374.053 320.978 372.107C319.721 370.162 319.102 367.706 319.121 364.739V320.881ZM399.052 344.637L387.557 345.344C387.361 344.362 386.938 343.478 386.29 342.692C385.642 341.886 384.787 341.248 383.726 340.776C382.684 340.285 381.437 340.039 379.983 340.039C378.037 340.039 376.396 340.452 375.06 341.277C373.724 342.083 373.056 343.163 373.056 344.519C373.056 345.6 373.488 346.514 374.353 347.26C375.217 348.007 376.701 348.606 378.804 349.058L386.997 350.709C391.399 351.613 394.68 353.067 396.842 355.071C399.003 357.075 400.084 359.708 400.084 362.97C400.084 365.937 399.21 368.541 397.461 370.781C395.732 373.021 393.354 374.77 390.328 376.027C387.322 377.265 383.854 377.884 379.924 377.884C373.93 377.884 369.156 376.636 365.599 374.141C362.062 371.626 359.989 368.207 359.38 363.884L371.73 363.235C372.103 365.063 373.007 366.458 374.441 367.421C375.876 368.364 377.713 368.836 379.953 368.836C382.154 368.836 383.922 368.413 385.258 367.568C386.614 366.704 387.302 365.593 387.322 364.238C387.302 363.098 386.821 362.165 385.877 361.438C384.934 360.691 383.48 360.121 381.515 359.728L373.675 358.166C369.254 357.282 365.963 355.749 363.801 353.568C361.659 351.387 360.588 348.606 360.588 345.227C360.588 342.318 361.374 339.813 362.946 337.711C364.538 335.608 366.768 333.987 369.637 332.847C372.525 331.708 375.905 331.138 379.776 331.138C385.494 331.138 389.994 332.346 393.275 334.763C396.577 337.18 398.502 340.471 399.052 344.637ZM425.346 377.884C420.708 377.884 416.719 376.902 413.379 374.937C410.058 372.952 407.504 370.201 405.716 366.684C403.947 363.167 403.063 359.119 403.063 354.54C403.063 349.903 403.957 345.836 405.745 342.338C407.553 338.821 410.117 336.08 413.438 334.115C416.759 332.13 420.708 331.138 425.287 331.138C429.236 331.138 432.694 331.855 435.662 333.289C438.629 334.724 440.977 336.738 442.706 339.332C444.435 341.925 445.388 344.971 445.565 348.469H433.716C433.382 346.209 432.498 344.391 431.064 343.016C429.649 341.621 427.792 340.923 425.493 340.923C423.548 340.923 421.848 341.454 420.394 342.515C418.959 343.556 417.839 345.079 417.034 347.083C416.228 349.088 415.825 351.514 415.825 354.364C415.825 357.252 416.218 359.708 417.004 361.732C417.81 363.756 418.94 365.299 420.394 366.36C421.848 367.421 423.548 367.951 425.493 367.951C426.927 367.951 428.214 367.657 429.354 367.067C430.513 366.478 431.466 365.623 432.213 364.503C432.979 363.363 433.48 361.998 433.716 360.406H445.565C445.368 363.864 444.425 366.91 442.735 369.543C441.065 372.156 438.756 374.2 435.809 375.674C432.861 377.147 429.374 377.884 425.346 377.884ZM463.414 377.855C460.525 377.855 457.951 377.354 455.691 376.352C453.432 375.33 451.643 373.827 450.327 371.842C449.03 369.838 448.382 367.342 448.382 364.355C448.382 361.84 448.843 359.728 449.767 358.018C450.69 356.309 451.948 354.933 453.54 353.892C455.131 352.851 456.939 352.065 458.963 351.534C461.007 351.004 463.148 350.63 465.388 350.414C468.021 350.139 470.144 349.884 471.755 349.648C473.366 349.392 474.535 349.019 475.262 348.528C475.989 348.036 476.353 347.309 476.353 346.347V346.17C476.353 344.303 475.763 342.859 474.584 341.837C473.425 340.815 471.775 340.304 469.633 340.304C467.373 340.304 465.575 340.805 464.239 341.808C462.903 342.79 462.018 344.028 461.586 345.521L449.973 344.578C450.563 341.827 451.722 339.45 453.451 337.445C455.18 335.421 457.411 333.869 460.142 332.788C462.893 331.688 466.076 331.138 469.692 331.138C472.207 331.138 474.614 331.433 476.913 332.022C479.232 332.612 481.285 333.525 483.073 334.763C484.881 336.001 486.305 337.593 487.347 339.538C488.388 341.464 488.909 343.772 488.909 346.464V377H477.001V370.722H476.648C475.921 372.137 474.948 373.384 473.73 374.465C472.511 375.526 471.047 376.361 469.338 376.971C467.628 377.56 465.654 377.855 463.414 377.855ZM467.01 369.189C468.857 369.189 470.487 368.826 471.902 368.099C473.317 367.352 474.427 366.35 475.233 365.092C476.039 363.835 476.441 362.41 476.441 360.819V356.014C476.048 356.27 475.508 356.505 474.82 356.722C474.152 356.918 473.396 357.105 472.551 357.282C471.706 357.439 470.861 357.586 470.016 357.724C469.171 357.842 468.405 357.95 467.717 358.048C466.243 358.264 464.956 358.608 463.856 359.08C462.755 359.551 461.901 360.19 461.291 360.995C460.682 361.781 460.378 362.764 460.378 363.943C460.378 365.652 460.997 366.959 462.235 367.863C463.492 368.747 465.084 369.189 467.01 369.189ZM508.106 316.636V377H495.55V316.636H508.106ZM535.696 377.884C531.039 377.884 527.031 376.941 523.67 375.055C520.33 373.149 517.756 370.457 515.948 366.979C514.14 363.481 513.236 359.345 513.236 354.57C513.236 349.913 514.14 345.826 515.948 342.309C517.756 338.791 520.301 336.05 523.582 334.085C526.883 332.12 530.754 331.138 535.195 331.138C538.182 331.138 540.962 331.619 543.536 332.582C546.13 333.525 548.39 334.95 550.315 336.856C552.261 338.762 553.774 341.159 554.854 344.048C555.935 346.916 556.475 350.277 556.475 354.128V357.576H518.247V349.795H544.656C544.656 347.987 544.263 346.386 543.477 344.991C542.691 343.596 541.601 342.505 540.206 341.719C538.83 340.913 537.229 340.511 535.401 340.511C533.495 340.511 531.805 340.953 530.332 341.837C528.878 342.702 527.738 343.871 526.913 345.344C526.087 346.799 525.665 348.42 525.645 350.208V357.606C525.645 359.846 526.058 361.781 526.883 363.412C527.728 365.043 528.917 366.301 530.45 367.185C531.982 368.069 533.8 368.511 535.902 368.511C537.297 368.511 538.575 368.315 539.734 367.922C540.893 367.529 541.886 366.939 542.711 366.153C543.536 365.367 544.165 364.405 544.597 363.265L556.21 364.031C555.621 366.821 554.412 369.258 552.585 371.341C550.777 373.404 548.439 375.015 545.57 376.175C542.721 377.314 539.429 377.884 535.696 377.884ZM576.572 316.636L575.422 358.903H564.634L563.455 316.636H576.572ZM570.028 377.766C568.083 377.766 566.413 377.079 565.018 375.703C563.622 374.308 562.935 372.638 562.954 370.692C562.935 368.767 563.622 367.116 565.018 365.741C566.413 364.365 568.083 363.678 570.028 363.678C571.895 363.678 573.536 364.365 574.95 365.741C576.365 367.116 577.082 368.767 577.102 370.692C577.082 371.989 576.739 373.178 576.07 374.259C575.422 375.32 574.567 376.175 573.506 376.823C572.445 377.452 571.286 377.766 570.028 377.766Z" fill="#D2D2D2"/>
<path d="M75.8928 486V476.804L97.3796 456.909C99.207 455.14 100.74 453.549 101.978 452.134C103.235 450.719 104.188 449.334 104.837 447.978C105.485 446.603 105.809 445.119 105.809 443.527C105.809 441.759 105.406 440.236 104.601 438.959C103.795 437.662 102.695 436.67 101.3 435.982C99.9046 435.275 98.3228 434.921 96.5543 434.921C94.7073 434.921 93.096 435.294 91.7205 436.041C90.3451 436.788 89.284 437.858 88.5373 439.254C87.7906 440.649 87.4173 442.309 87.4173 444.235H75.3033C75.3033 440.285 76.1973 436.856 77.9854 433.948C79.7736 431.04 82.2789 428.79 85.5014 427.199C88.724 425.607 92.4377 424.811 96.6428 424.811C100.966 424.811 104.729 425.577 107.931 427.11C111.154 428.623 113.659 430.726 115.447 433.418C117.236 436.11 118.13 439.195 118.13 442.673C118.13 444.952 117.678 447.202 116.774 449.422C115.89 451.643 114.308 454.109 112.028 456.82C109.749 459.512 106.536 462.745 102.39 466.517L93.5774 475.153V475.566H118.925V486H75.8928ZM132.53 486.766C130.584 486.766 128.914 486.079 127.519 484.703C126.144 483.308 125.456 481.638 125.456 479.692C125.456 477.767 126.144 476.116 127.519 474.741C128.914 473.365 130.584 472.678 132.53 472.678C134.416 472.678 136.067 473.365 137.481 474.741C138.896 476.116 139.604 477.767 139.604 479.692C139.604 480.989 139.27 482.178 138.601 483.259C137.953 484.32 137.098 485.175 136.037 485.823C134.976 486.452 133.807 486.766 132.53 486.766ZM162.855 461.801C162.855 454.492 163.828 447.762 165.773 441.612C167.738 435.461 170.735 429.763 174.763 424.516H186.759C185.226 426.462 183.802 428.839 182.485 431.649C181.169 434.439 180.019 437.505 179.037 440.845C178.054 444.186 177.288 447.644 176.738 451.22C176.188 454.777 175.912 458.304 175.912 461.801C175.912 466.458 176.384 471.165 177.327 475.92C178.29 480.655 179.587 485.057 181.218 489.124C182.868 493.192 184.715 496.522 186.759 499.116H174.763C170.735 493.87 167.738 488.171 165.773 482.021C163.828 475.871 162.855 469.131 162.855 461.801ZM191.182 486V425.636H214.997C219.576 425.636 223.476 426.511 226.699 428.26C229.921 429.989 232.378 432.396 234.067 435.481C235.777 438.546 236.632 442.083 236.632 446.092C236.632 450.1 235.767 453.637 234.038 456.702C232.309 459.768 229.803 462.155 226.522 463.865C223.26 465.574 219.311 466.429 214.673 466.429H199.494V456.201H212.61C215.066 456.201 217.09 455.779 218.682 454.934C220.293 454.069 221.492 452.881 222.278 451.368C223.083 449.835 223.486 448.076 223.486 446.092C223.486 444.087 223.083 442.339 222.278 440.845C221.492 439.332 220.293 438.163 218.682 437.338C217.07 436.493 215.027 436.07 212.551 436.07H203.945V486H191.182ZM241.585 486V440.727H253.758V448.626H254.23C255.055 445.817 256.44 443.694 258.386 442.26C260.331 440.806 262.571 440.079 265.106 440.079C265.735 440.079 266.413 440.118 267.14 440.197C267.867 440.275 268.505 440.383 269.055 440.521V451.662C268.466 451.485 267.65 451.328 266.609 451.191C265.568 451.053 264.615 450.984 263.75 450.984C261.903 450.984 260.252 451.387 258.798 452.193C257.364 452.979 256.224 454.079 255.379 455.494C254.554 456.909 254.141 458.54 254.141 460.387V486H241.585ZM290.972 486.884C286.315 486.884 282.306 485.941 278.946 484.055C275.606 482.149 273.031 479.457 271.224 475.979C269.416 472.481 268.512 468.345 268.512 463.57C268.512 458.913 269.416 454.826 271.224 451.309C273.031 447.791 275.576 445.05 278.858 443.085C282.159 441.12 286.03 440.138 290.47 440.138C293.457 440.138 296.238 440.619 298.812 441.582C301.405 442.525 303.665 443.95 305.591 445.856C307.536 447.762 309.049 450.159 310.13 453.048C311.211 455.916 311.751 459.277 311.751 463.128V466.576H273.523V458.795H299.932C299.932 456.987 299.539 455.386 298.753 453.991C297.967 452.596 296.876 451.505 295.481 450.719C294.106 449.913 292.504 449.511 290.677 449.511C288.771 449.511 287.081 449.953 285.607 450.837C284.153 451.702 283.013 452.871 282.188 454.344C281.363 455.799 280.94 457.42 280.921 459.208V466.606C280.921 468.846 281.333 470.781 282.159 472.412C283.004 474.043 284.192 475.301 285.725 476.185C287.258 477.069 289.075 477.511 291.178 477.511C292.573 477.511 293.85 477.315 295.01 476.922C296.169 476.529 297.161 475.939 297.986 475.153C298.812 474.367 299.44 473.405 299.873 472.265L311.486 473.031C310.896 475.821 309.688 478.258 307.86 480.341C306.053 482.404 303.714 484.015 300.845 485.175C297.996 486.314 294.705 486.884 290.972 486.884ZM338.007 461.801C338.007 469.131 337.025 475.871 335.06 482.021C333.114 488.171 330.128 493.87 326.1 499.116H314.103C315.636 497.171 317.061 494.793 318.377 491.983C319.694 489.173 320.843 486.108 321.826 482.787C322.808 479.447 323.575 475.989 324.125 472.412C324.675 468.836 324.95 465.299 324.95 461.801C324.95 457.145 324.469 452.448 323.506 447.713C322.563 442.958 321.266 438.556 319.615 434.508C317.984 430.441 316.147 427.11 314.103 424.516H326.1C330.128 429.763 333.114 435.461 335.06 441.612C337.025 447.762 338.007 454.492 338.007 461.801ZM401.484 453.637L389.989 454.344C389.793 453.362 389.37 452.478 388.722 451.692C388.073 450.886 387.218 450.248 386.157 449.776C385.116 449.285 383.868 449.039 382.414 449.039C380.469 449.039 378.828 449.452 377.492 450.277C376.156 451.083 375.488 452.163 375.488 453.519C375.488 454.6 375.92 455.514 376.785 456.26C377.649 457.007 379.133 457.606 381.235 458.058L389.429 459.709C393.831 460.613 397.112 462.067 399.274 464.071C401.435 466.075 402.516 468.708 402.516 471.97C402.516 474.937 401.641 477.541 399.893 479.781C398.163 482.021 395.786 483.77 392.76 485.027C389.753 486.265 386.285 486.884 382.355 486.884C376.362 486.884 371.587 485.636 368.031 483.141C364.494 480.626 362.421 477.207 361.812 472.884L374.161 472.235C374.535 474.063 375.439 475.458 376.873 476.421C378.307 477.364 380.145 477.836 382.385 477.836C384.585 477.836 386.354 477.413 387.69 476.568C389.046 475.704 389.734 474.593 389.753 473.238C389.734 472.098 389.252 471.165 388.309 470.438C387.366 469.691 385.912 469.121 383.947 468.728L376.107 467.166C371.685 466.282 368.394 464.749 366.233 462.568C364.091 460.387 363.02 457.606 363.02 454.227C363.02 451.318 363.806 448.813 365.378 446.711C366.97 444.608 369.2 442.987 372.069 441.847C374.957 440.708 378.337 440.138 382.208 440.138C387.926 440.138 392.426 441.346 395.707 443.763C399.008 446.18 400.934 449.471 401.484 453.637ZM427.777 486.884C423.14 486.884 419.151 485.902 415.811 483.937C412.49 481.952 409.935 479.201 408.147 475.684C406.379 472.167 405.494 468.119 405.494 463.54C405.494 458.903 406.389 454.836 408.177 451.338C409.984 447.821 412.549 445.08 415.869 443.115C419.19 441.13 423.14 440.138 427.718 440.138C431.668 440.138 435.126 440.855 438.093 442.289C441.06 443.724 443.408 445.738 445.138 448.332C446.867 450.925 447.82 453.971 447.997 457.469H436.148C435.814 455.209 434.93 453.391 433.495 452.016C432.08 450.621 430.224 449.923 427.925 449.923C425.979 449.923 424.28 450.454 422.825 451.515C421.391 452.556 420.271 454.079 419.465 456.083C418.66 458.088 418.257 460.514 418.257 463.364C418.257 466.252 418.65 468.708 419.436 470.732C420.242 472.756 421.371 474.299 422.825 475.36C424.28 476.421 425.979 476.951 427.925 476.951C429.359 476.951 430.646 476.657 431.786 476.067C432.945 475.478 433.898 474.623 434.645 473.503C435.411 472.363 435.912 470.998 436.148 469.406H447.997C447.8 472.864 446.857 475.91 445.167 478.543C443.497 481.156 441.188 483.2 438.241 484.674C435.293 486.147 431.805 486.884 427.777 486.884ZM465.845 486.855C462.957 486.855 460.383 486.354 458.123 485.352C455.863 484.33 454.075 482.827 452.759 480.842C451.462 478.838 450.813 476.342 450.813 473.355C450.813 470.84 451.275 468.728 452.199 467.018C453.122 465.309 454.38 463.933 455.971 462.892C457.563 461.851 459.371 461.065 461.395 460.534C463.438 460.004 465.58 459.63 467.82 459.414C470.453 459.139 472.575 458.884 474.187 458.648C475.798 458.392 476.967 458.019 477.694 457.528C478.421 457.036 478.785 456.309 478.785 455.347V455.17C478.785 453.303 478.195 451.859 477.016 450.837C475.857 449.815 474.206 449.304 472.064 449.304C469.805 449.304 468.007 449.805 466.671 450.808C465.334 451.79 464.45 453.028 464.018 454.521L452.405 453.578C452.994 450.827 454.154 448.45 455.883 446.445C457.612 444.421 459.842 442.869 462.574 441.788C465.325 440.688 468.508 440.138 472.123 440.138C474.638 440.138 477.046 440.433 479.345 441.022C481.663 441.612 483.717 442.525 485.505 443.763C487.312 445.001 488.737 446.593 489.778 448.538C490.82 450.464 491.341 452.772 491.341 455.464V486H479.433V479.722H479.079C478.352 481.137 477.38 482.384 476.161 483.465C474.943 484.526 473.479 485.361 471.77 485.971C470.06 486.56 468.085 486.855 465.845 486.855ZM469.441 478.189C471.288 478.189 472.919 477.826 474.334 477.099C475.749 476.352 476.859 475.35 477.665 474.092C478.47 472.835 478.873 471.41 478.873 469.819V465.014C478.48 465.27 477.94 465.505 477.252 465.722C476.584 465.918 475.827 466.105 474.982 466.282C474.137 466.439 473.292 466.586 472.448 466.724C471.603 466.842 470.836 466.95 470.149 467.048C468.675 467.264 467.388 467.608 466.287 468.08C465.187 468.551 464.332 469.19 463.723 469.995C463.114 470.781 462.809 471.764 462.809 472.943C462.809 474.652 463.428 475.959 464.666 476.863C465.924 477.747 467.515 478.189 469.441 478.189ZM510.538 425.636V486H497.982V425.636H510.538ZM538.128 486.884C533.471 486.884 529.462 485.941 526.102 484.055C522.762 482.149 520.188 479.457 518.38 475.979C516.572 472.481 515.668 468.345 515.668 463.57C515.668 458.913 516.572 454.826 518.38 451.309C520.188 447.791 522.732 445.05 526.014 443.085C529.315 441.12 533.186 440.138 537.627 440.138C540.613 440.138 543.394 440.619 545.968 441.582C548.562 442.525 550.821 443.95 552.747 445.856C554.692 447.762 556.205 450.159 557.286 453.048C558.367 455.916 558.907 459.277 558.907 463.128V466.576H520.679V458.795H547.088C547.088 456.987 546.695 455.386 545.909 453.991C545.123 452.596 544.032 451.505 542.637 450.719C541.262 449.913 539.66 449.511 537.833 449.511C535.927 449.511 534.237 449.953 532.763 450.837C531.309 451.702 530.17 452.871 529.344 454.344C528.519 455.799 528.097 457.42 528.077 459.208V466.606C528.077 468.846 528.49 470.781 529.315 472.412C530.16 474.043 531.349 475.301 532.881 476.185C534.414 477.069 536.231 477.511 538.334 477.511C539.729 477.511 541.006 477.315 542.166 476.922C543.325 476.529 544.317 475.939 545.143 475.153C545.968 474.367 546.597 473.405 547.029 472.265L558.642 473.031C558.052 475.821 556.844 478.258 555.017 480.341C553.209 482.404 550.87 484.015 548.002 485.175C545.152 486.314 541.861 486.884 538.128 486.884Z" fill="black"/>
</svg>
