<svg width="1200" height="900" viewBox="0 0 1200 900" fill="none" xmlns="http://www.w3.org/2000/svg">
<path fill-rule="evenodd" clip-rule="evenodd" d="M402.067 176.081V595.919C402.067 601.487 397.55 606 391.979 606H37.0883C31.5179 606 27 601.487 27 595.919V176.081C27 170.513 31.5171 166 37.0883 166H391.979C397.55 166 402.067 170.513 402.067 176.081Z" fill="#D2D2D2"/>
<path fill-rule="evenodd" clip-rule="evenodd" d="M91.3398 585.838H387.539V593.577H91.3398V585.838ZM91.3398 573.385H387.539V581.124H91.3398V573.385ZM91.3398 561.525H387.539V569.264H91.3398V561.525ZM41.2319 179.639H387.539V187.348H41.2319V179.639Z" fill="#A3A3A3"/>
<path fill-rule="evenodd" clip-rule="evenodd" d="M45.2792 201.01H383.789C384.319 201.01 384.843 201.114 385.333 201.317C385.823 201.52 386.267 201.817 386.642 202.192C387.017 202.566 387.314 203.011 387.517 203.501C387.72 203.99 387.825 204.515 387.825 205.045V543.516C387.825 544.586 387.4 545.612 386.643 546.369C385.886 547.126 384.86 547.551 383.789 547.551H45.2785C44.2082 547.551 43.1818 547.126 42.4251 546.369C41.6683 545.612 41.2432 544.586 41.2432 543.516V205.045C41.2434 203.975 41.6686 202.949 42.4253 202.192C43.1821 201.435 44.2084 201.01 45.2785 201.01H45.2792Z" fill="#FDDFE1"/>
<path d="M60.1148 559.39C59.775 559.41 59.4428 559.498 59.1378 559.649L45.9096 565.957C45.569 566.119 45.2694 566.356 45.0332 566.65C44.7971 566.945 44.6304 567.289 44.5458 567.656L41.3065 581.817C41.2292 582.146 41.221 582.487 41.2822 582.82C41.3434 583.152 41.4729 583.468 41.6623 583.748C41.7083 583.817 41.7557 583.883 41.8054 583.947L50.9449 595.309C51.4274 595.902 52.1531 596.243 52.9173 596.24H67.5761C67.9542 596.238 68.3273 596.153 68.6686 595.99C69.0099 595.827 69.3111 595.591 69.5507 595.299L78.6858 583.934C79.1646 583.341 79.344 582.558 79.1602 581.814L75.9009 567.643C75.8158 567.276 75.649 566.932 75.4129 566.638C75.1768 566.343 74.8774 566.106 74.5371 565.943L61.3289 559.65C60.9483 559.463 60.5268 559.374 60.1029 559.391L60.1148 559.39Z" fill="#4A4A4A"/>
<path d="M60.2356 564.216C59.7805 564.248 59.4351 564.638 59.4588 565.094V565.317C59.4795 565.57 59.5181 565.821 59.5677 566.068C59.6404 566.543 59.6671 567.024 59.6463 567.505C59.6007 567.663 59.5107 567.805 59.3869 567.914L59.3698 568.249C58.8888 568.289 58.4114 568.362 57.9415 568.469C55.9632 568.915 54.1634 569.942 52.7735 571.418L52.4889 571.217C52.4114 571.24 52.3301 571.248 52.2496 571.24C52.169 571.232 52.0909 571.208 52.0197 571.169C51.6345 570.884 51.278 570.562 50.9553 570.208C50.7931 570.014 50.6198 569.83 50.4364 569.656L50.2607 569.516C50.1044 569.391 49.9124 569.318 49.7122 569.309C49.5926 569.302 49.4732 569.324 49.3637 569.373C49.2542 569.422 49.1577 569.495 49.0822 569.588C48.9534 569.769 48.9015 569.993 48.9378 570.212C48.9741 570.43 49.0955 570.626 49.2756 570.755L49.4394 570.885C49.6507 571.026 49.8694 571.154 50.0947 571.269C50.5179 571.503 50.915 571.781 51.2792 572.099C51.3733 572.234 51.4282 572.392 51.4371 572.555L51.6965 572.793C50.2997 574.889 49.7256 577.427 50.0843 579.92L49.7515 580.015C49.6655 580.153 49.5497 580.269 49.4127 580.356C48.9491 580.481 48.4744 580.559 47.9955 580.591C47.7413 580.596 47.4876 580.616 47.2357 580.651L47.0252 580.698H47.003C46.8573 580.718 46.7201 580.779 46.6066 580.872C46.4931 580.966 46.4078 581.089 46.3602 581.228C46.3126 581.367 46.3045 581.517 46.3368 581.661C46.3692 581.804 46.4407 581.936 46.5434 582.041C46.7547 582.255 47.0697 582.33 47.3551 582.237H47.3699L47.5849 582.213C47.8263 582.141 48.0631 582.054 48.2942 581.954C48.7397 581.775 49.2014 581.64 49.6729 581.551C49.8367 581.561 49.9939 581.616 50.1266 581.711L50.4824 581.652C51.2536 584.046 52.8754 586.074 55.041 587.352L54.8957 587.655C54.9624 587.794 54.9869 587.948 54.9669 588.101C54.7706 588.555 54.5308 588.989 54.2508 589.397C54.0972 589.6 53.9554 589.811 53.8261 590.03L53.7253 590.243C53.6521 590.37 53.6155 590.515 53.6194 590.661C53.6232 590.807 53.6675 590.95 53.7472 591.073C53.8269 591.196 53.9391 591.294 54.0712 591.358C54.2034 591.421 54.3504 591.446 54.4962 591.431C54.7949 591.398 55.0484 591.199 55.1529 590.918L55.2515 590.717C55.3419 590.479 55.4175 590.237 55.4798 589.993C55.6896 589.474 55.8037 588.918 56.0906 588.574C56.1844 588.485 56.3027 588.427 56.4301 588.407L56.608 588.083C58.9549 588.985 61.5519 588.991 63.9033 588.101L64.0611 588.404C64.2224 588.429 64.3673 588.516 64.4644 588.647C64.6875 589.072 64.8683 589.517 65.0055 589.976C65.0685 590.222 65.1463 590.465 65.236 590.701L65.3346 590.903C65.3865 591.041 65.4752 591.161 65.5911 591.25C65.7069 591.34 65.8454 591.396 65.9911 591.413C66.1368 591.429 66.2841 591.404 66.4168 591.342C66.5495 591.279 66.6624 591.182 66.7429 591.059C66.906 590.807 66.9134 590.485 66.7622 590.227L66.6584 590.013C66.5293 589.795 66.3878 589.585 66.2344 589.383C65.9617 588.986 65.7236 588.566 65.5229 588.128C65.5037 588.048 65.501 587.964 65.5147 587.883C65.5285 587.801 65.5585 587.723 65.6029 587.654C65.5522 587.55 65.5082 587.444 65.471 587.335C67.6317 586.047 69.246 584.012 70.0088 581.614L70.3454 581.674C70.4663 581.563 70.6252 581.505 70.7886 581.51C71.2593 581.6 71.7211 581.747 72.1673 581.913C72.3993 582.02 72.6365 582.11 72.8774 582.186C72.9345 582.201 73.0183 582.215 73.0813 582.23H73.0968C73.237 582.275 73.3869 582.281 73.53 582.246C73.6731 582.211 73.8036 582.137 73.9071 582.032C74.0106 581.928 74.0831 581.796 74.1163 581.653C74.1495 581.509 74.1422 581.359 74.0953 581.22C74.0474 581.081 73.9617 580.957 73.8478 580.864C73.734 580.77 73.5964 580.71 73.4504 580.691L73.2206 580.637C72.9682 580.602 72.7141 580.582 72.4594 580.577C71.9804 580.546 71.5056 580.468 71.0421 580.343C70.8992 580.263 70.7813 580.144 70.7012 580.001L70.3802 579.906C70.7217 577.414 70.1361 574.883 68.7347 572.794L69.0148 572.535C69.0037 572.372 69.0569 572.211 69.1631 572.086C69.527 571.774 69.9202 571.497 70.3372 571.261C70.5633 571.146 70.782 571.017 70.9925 570.877L71.1659 570.737C71.2617 570.677 71.3438 570.599 71.4069 570.506C71.4699 570.412 71.5125 570.307 71.5318 570.196C71.5511 570.085 71.5467 569.972 71.5189 569.863C71.491 569.754 71.4403 569.652 71.3702 569.564C71.3001 569.476 71.2121 569.404 71.1121 569.352C71.012 569.301 70.9022 569.271 70.7899 569.265C70.6776 569.259 70.5652 569.278 70.4604 569.318C70.3555 569.359 70.2605 569.421 70.1815 569.502L70.0059 569.642C69.8226 569.816 69.6493 570 69.487 570.194C69.1742 570.552 68.8273 570.879 68.4515 571.17C68.2996 571.232 68.1335 571.25 67.9719 571.222L67.6717 571.437C65.9379 569.62 63.6036 568.493 61.1021 568.267C61.1021 568.149 61.0873 567.971 61.0843 567.915C60.9494 567.823 60.8563 567.681 60.8249 567.521C60.8086 567.042 60.8388 566.563 60.9153 566.09C60.9672 565.84 61.002 565.591 61.025 565.338V565.101C61.0366 564.882 60.9615 564.667 60.8159 564.502C60.6702 564.338 60.4658 564.237 60.2467 564.222L60.2363 564.217L60.2356 564.216ZM59.246 570.346L59.0088 574.492H58.991C58.9838 574.618 58.9435 574.739 58.8743 574.844C58.805 574.949 58.7093 575.034 58.5967 575.091C58.4841 575.148 58.3575 575.172 58.2316 575.161C58.1057 575.15 57.9856 575.103 57.8851 575.026L54.4843 572.617C55.5669 571.554 56.9251 570.815 58.4055 570.482C58.6825 570.423 58.9623 570.378 59.2438 570.347H59.246V570.346ZM61.2251 570.346C63.0115 570.568 64.6749 571.371 65.9617 572.629L62.5935 575.023C62.4915 575.105 62.3687 575.156 62.2389 575.172C62.1091 575.187 61.9777 575.165 61.8596 575.109C61.7415 575.053 61.6415 574.965 61.571 574.855C61.5004 574.745 61.4623 574.618 61.4609 574.487L61.2259 570.347L61.2251 570.346ZM53.2494 574.177L56.3596 576.951V576.969C56.4543 577.052 56.5248 577.159 56.5635 577.279C56.6023 577.399 56.6079 577.527 56.5798 577.65C56.5517 577.772 56.4909 577.885 56.4039 577.976C56.3168 578.067 56.2068 578.133 56.0854 578.167V578.179L52.0946 579.326C51.8969 577.528 52.3038 575.715 53.2509 574.174L53.2494 574.177ZM67.1995 574.177C68.1446 575.713 68.5623 577.516 68.3892 579.312L64.3925 578.161V578.145C64.2706 578.112 64.1601 578.047 64.0728 577.956C63.9855 577.865 63.9248 577.752 63.8973 577.629C63.8695 577.506 63.8754 577.377 63.9143 577.257C63.9531 577.137 64.0236 577.03 64.1182 576.947L67.204 574.186L67.1995 574.177ZM59.5989 577.168H60.8708L61.6491 578.155L61.366 579.389L60.223 579.938L59.0778 579.389L58.808 578.155L59.5989 577.168V577.168ZM63.6742 580.536C63.7274 580.53 63.7811 580.53 63.8343 580.536L67.9497 581.23C67.348 582.942 66.1881 584.402 64.6563 585.375L63.0656 581.525C63.022 581.422 63.0038 581.31 63.0126 581.198C63.0214 581.086 63.0569 580.978 63.1161 580.883C63.1752 580.788 63.2564 580.708 63.3528 580.651C63.4491 580.593 63.5578 580.56 63.6698 580.554L63.6742 580.536ZM56.7629 580.554C56.8774 580.555 56.9896 580.585 57.0898 580.641C57.1899 580.696 57.275 580.775 57.3373 580.871C57.3996 580.967 57.4372 581.077 57.4469 581.191C57.4566 581.304 57.4381 581.419 57.3929 581.524V581.539L55.8126 585.358C54.2995 584.388 53.1487 582.946 52.5386 581.255L56.6183 580.564C56.6642 580.559 56.7104 580.559 56.7562 580.564L56.7636 580.554H56.7629ZM60.2097 582.214C60.4743 582.206 60.7211 582.347 60.8471 582.58H60.8619L62.8729 586.208L62.0694 586.446C60.5902 586.784 59.046 586.704 57.6094 586.216L59.627 582.587C59.6873 582.483 59.7736 582.396 59.8775 582.334C59.9813 582.273 60.0994 582.239 60.22 582.237L60.2097 582.215V582.214Z" fill="white" stroke="white" stroke-width="0.37062"/>
<path d="M41.0835 219.369H387.984V544.032C387.984 545.015 387.593 545.958 386.898 546.653C386.203 547.348 385.261 547.738 384.278 547.738H44.7897C43.8068 547.738 42.8641 547.348 42.169 546.653C41.474 545.958 41.0835 545.015 41.0835 544.032V219.369Z" fill="#EFFFBD"/>
<path d="M41.0835 429.14H387.984V544.032C387.984 545.015 387.593 545.958 386.898 546.653C386.203 547.348 385.261 547.739 384.278 547.739H44.7897C43.8068 547.739 42.8641 547.348 42.169 546.653C41.474 545.958 41.0835 545.015 41.0835 544.032V429.14Z" fill="#66E8FF"/>
<path d="M41.0835 510.677H387.984V541.809C387.984 543.382 387.359 544.89 386.247 546.002C385.135 547.114 383.627 547.739 382.054 547.739H47.0134C45.4407 547.739 43.9324 547.114 42.8203 546.002C41.7083 544.89 41.0835 543.382 41.0835 541.809V510.677Z" fill="#00A8C6"/>
<path d="M27 219.369L402.067 220.11" stroke="black" stroke-width="8.15364" stroke-dasharray="22.24 22.24"/>
<rect x="55" y="334" width="83" height="83" fill="#8FBE00"/>
<rect x="173" y="334" width="83" height="83" fill="#8FBE00"/>
<rect x="290" y="334" width="83" height="83" fill="#8FBE00"/>
<path fill-rule="evenodd" clip-rule="evenodd" d="M787.512 176.081V595.919C787.512 601.487 782.995 606 777.424 606H422.533C416.963 606 412.445 601.487 412.445 595.919V176.081C412.445 170.513 416.962 166 422.533 166H777.424C782.994 166 787.512 170.513 787.512 176.081Z" fill="#D2D2D2"/>
<rect x="853" y="24" width="318" height="178" fill="#C1CF97"/>
<path d="M938.934 129H943.04V122.703H946.491C950.958 122.703 953.556 120.039 953.556 116.16C953.556 112.301 951.005 109.579 946.596 109.579H938.934V129ZM943.04 119.413V112.936H945.809C948.179 112.936 949.327 114.226 949.327 116.16C949.327 118.085 948.179 119.413 945.828 119.413H943.04ZM959.551 109.579H955.512V129H959.551V109.579ZM966.305 129.275C968.457 129.275 969.851 128.336 970.563 126.98H970.676V129H974.507V119.176C974.507 115.705 971.568 114.245 968.325 114.245C964.835 114.245 962.54 115.914 961.981 118.569L965.717 118.872C965.992 117.905 966.855 117.194 968.306 117.194C969.681 117.194 970.468 117.886 970.468 119.081V119.138C970.468 120.077 969.472 120.2 966.94 120.447C964.057 120.712 961.469 121.679 961.469 124.932C961.469 127.815 963.526 129.275 966.305 129.275ZM967.462 126.487C966.22 126.487 965.328 125.909 965.328 124.799C965.328 123.661 966.267 123.102 967.689 122.903C968.571 122.779 970.013 122.571 970.496 122.248V123.794C970.496 125.321 969.235 126.487 967.462 126.487ZM983.587 129.284C987.465 129.284 989.902 127.009 990.092 123.661H986.28C986.043 125.216 985.019 126.089 983.634 126.089C981.747 126.089 980.524 124.505 980.524 121.717C980.524 118.967 981.757 117.393 983.634 117.393C985.114 117.393 986.062 118.37 986.28 119.821H990.092C989.921 116.454 987.37 114.245 983.568 114.245C979.149 114.245 976.418 117.308 976.418 121.774C976.418 126.203 979.101 129.284 983.587 129.284ZM998.681 129.284C1002.28 129.284 1004.71 127.53 1005.28 124.828L1001.54 124.581C1001.14 125.69 1000.09 126.269 998.747 126.269C996.727 126.269 995.447 124.932 995.447 122.76V122.751H1005.37V121.641C1005.37 116.691 1002.37 114.245 998.519 114.245C994.233 114.245 991.455 117.289 991.455 121.784C991.455 126.402 994.195 129.284 998.681 129.284ZM995.447 120.247C995.532 118.588 996.794 117.26 998.586 117.26C1000.34 117.26 1001.55 118.512 1001.56 120.247H995.447ZM1011.41 120.579C1011.42 118.702 1012.56 117.602 1014.21 117.602C1015.85 117.602 1016.82 118.654 1016.81 120.447V129H1020.85V119.726C1020.86 116.312 1018.85 114.245 1015.82 114.245C1013.61 114.245 1012.13 115.288 1011.46 117.004H1011.29V109.579H1007.37V129H1011.41V120.579ZM1029.98 129.284C1034.39 129.284 1037.14 126.259 1037.14 121.774C1037.14 117.26 1034.39 114.245 1029.98 114.245C1025.56 114.245 1022.81 117.26 1022.81 121.774C1022.81 126.259 1025.56 129.284 1029.98 129.284ZM1029.99 126.155C1027.96 126.155 1026.91 124.287 1026.91 121.746C1026.91 119.204 1027.96 117.327 1029.99 117.327C1032 117.327 1033.04 119.204 1033.04 121.746C1033.04 124.287 1032 126.155 1029.99 126.155ZM1043.18 109.579H1039.14V129H1043.18V109.579ZM1051.14 129.237C1053.49 129.237 1054.72 127.881 1055.28 126.667H1055.45V129H1059.43V109.579H1055.4V116.881H1055.28C1054.74 115.696 1053.57 114.245 1051.13 114.245C1047.94 114.245 1045.23 116.729 1045.23 121.736C1045.23 126.61 1047.82 129.237 1051.14 129.237ZM1052.42 126.022C1050.44 126.022 1049.36 124.259 1049.36 121.717C1049.36 119.195 1050.42 117.459 1052.42 117.459C1054.39 117.459 1055.49 119.119 1055.49 121.717C1055.49 124.315 1054.37 126.022 1052.42 126.022ZM1068.75 129.284C1072.36 129.284 1074.79 127.53 1075.35 124.828L1071.62 124.581C1071.21 125.69 1070.17 126.269 1068.82 126.269C1066.8 126.269 1065.52 124.932 1065.52 122.76V122.751H1075.44V121.641C1075.44 116.691 1072.44 114.245 1068.59 114.245C1064.31 114.245 1061.53 117.289 1061.53 121.784C1061.53 126.402 1064.27 129.284 1068.75 129.284ZM1065.52 120.247C1065.61 118.588 1066.87 117.26 1068.66 117.26C1070.41 117.26 1071.63 118.512 1071.64 120.247H1065.52ZM1077.44 129H1081.48V120.759C1081.48 118.967 1082.79 117.734 1084.57 117.734C1085.13 117.734 1085.9 117.829 1086.28 117.953V114.368C1085.92 114.283 1085.41 114.226 1085.01 114.226C1083.38 114.226 1082.04 115.174 1081.51 116.976H1081.36V114.434H1077.44V129Z" fill="black"/>
<path d="M912.307 255H919.488V243.988H925.524C933.335 243.988 937.879 239.328 937.879 232.546C937.879 225.796 933.418 221.036 925.707 221.036H912.307V255ZM919.488 238.234V226.907H924.33C928.476 226.907 930.483 229.162 930.483 232.546C930.483 235.912 928.476 238.234 924.364 238.234H919.488ZM941.908 255H964.86V249.08H949.089V240.97H963.616V235.05H949.089V226.957H964.793V221.036H941.908V255ZM998.275 221.036H991.127V242.396H990.829L976.168 221.036H969.867V255H977.047V233.623H977.296L992.072 255H998.275V221.036ZM1015.61 255C1025.96 255 1032.23 248.599 1032.23 237.985C1032.23 227.405 1025.96 221.036 1015.71 221.036H1003.57V255H1015.61ZM1010.75 248.847V227.189H1015.33C1021.7 227.189 1025.06 230.439 1025.06 237.985C1025.06 245.564 1021.7 248.847 1015.31 248.847H1010.75ZM1044.09 221.036H1036.91V255H1044.09V221.036ZM1077.77 221.036H1070.63V242.396H1070.33L1055.67 221.036H1049.36V255H1056.55V233.623H1056.79L1071.57 255H1077.77V221.036ZM1105.59 232.015H1112.89C1111.96 225.298 1106.04 220.572 1098.36 220.572C1089.39 220.572 1082.47 227.04 1082.47 238.051C1082.47 248.798 1088.94 255.464 1098.51 255.464C1107.08 255.464 1113.2 250.041 1113.2 241.103V236.824H1098.99V242.23H1106.29C1106.19 246.443 1103.32 249.113 1098.54 249.113C1093.15 249.113 1089.75 245.083 1089.75 237.985C1089.75 230.92 1093.29 226.924 1098.48 226.924C1102.17 226.924 1104.68 228.831 1105.59 232.015Z" fill="#E74C3C"/>
<path fill-rule="evenodd" clip-rule="evenodd" d="M476.785 585.838H772.984V593.577H476.785V585.838ZM476.785 573.385H772.984V581.124H476.785V573.385ZM476.785 561.525H772.984V569.264H476.785V561.525ZM426.677 179.639H772.984V187.348H426.677V179.639Z" fill="#A3A3A3"/>
<path fill-rule="evenodd" clip-rule="evenodd" d="M430.724 201.01H769.233C769.763 201.01 770.288 201.114 770.777 201.317C771.267 201.52 771.712 201.817 772.087 202.192C772.461 202.566 772.759 203.011 772.962 203.501C773.165 203.99 773.269 204.515 773.269 205.045V543.516C773.269 544.586 772.844 545.612 772.087 546.369C771.33 547.126 770.304 547.551 769.234 547.551H430.723C429.653 547.551 428.626 547.126 427.869 546.369C427.113 545.612 426.688 544.586 426.688 543.516V205.045C426.688 203.975 427.113 202.949 427.87 202.192C428.626 201.435 429.653 201.01 430.723 201.01H430.724Z" fill="#FDDFE1"/>
<path d="M445.56 559.39C445.22 559.41 444.888 559.498 444.583 559.649L431.354 565.957C431.014 566.119 430.714 566.356 430.478 566.65C430.242 566.945 430.075 567.289 429.991 567.656L426.751 581.817C426.674 582.146 426.666 582.487 426.727 582.82C426.788 583.152 426.918 583.468 427.107 583.748C427.153 583.817 427.201 583.883 427.25 583.947L436.39 595.309C436.872 595.902 437.598 596.243 438.362 596.24H453.021C453.399 596.238 453.772 596.153 454.113 595.99C454.455 595.827 454.756 595.591 454.996 595.299L464.131 583.934C464.609 583.341 464.789 582.558 464.605 581.814L461.346 567.643C461.261 567.276 461.094 566.932 460.858 566.638C460.622 566.343 460.322 566.106 459.982 565.943L446.774 559.65C446.393 559.463 445.972 559.374 445.548 559.391L445.56 559.39Z" fill="#4A4A4A"/>
<path d="M445.68 564.216C445.225 564.248 444.88 564.638 444.904 565.094V565.317C444.924 565.57 444.963 565.821 445.013 566.068C445.085 566.543 445.112 567.024 445.091 567.505C445.046 567.663 444.955 567.805 444.832 567.914L444.815 568.249C444.334 568.289 443.856 568.362 443.386 568.469C441.408 568.915 439.608 569.942 438.218 571.418L437.934 571.217C437.856 571.24 437.775 571.248 437.694 571.24C437.614 571.232 437.536 571.208 437.465 571.169C437.079 570.884 436.723 570.562 436.4 570.208C436.238 570.014 436.065 569.83 435.881 569.656L435.706 569.516C435.549 569.391 435.357 569.318 435.157 569.309C435.037 569.302 434.918 569.324 434.808 569.373C434.699 569.422 434.603 569.495 434.527 569.588C434.398 569.769 434.346 569.993 434.383 570.212C434.419 570.43 434.54 570.626 434.72 570.755L434.884 570.885C435.096 571.026 435.314 571.154 435.54 571.269C435.963 571.503 436.36 571.781 436.724 572.099C436.818 572.234 436.873 572.392 436.882 572.555L437.141 572.793C435.744 574.889 435.17 577.427 435.529 579.92L435.196 580.015C435.11 580.153 434.995 580.269 434.858 580.356C434.394 580.481 433.919 580.559 433.44 580.591C433.186 580.596 432.932 580.616 432.681 580.651L432.47 580.698H432.448C432.302 580.718 432.165 580.779 432.051 580.872C431.938 580.966 431.853 581.089 431.805 581.228C431.757 581.367 431.749 581.517 431.782 581.661C431.814 581.804 431.886 581.936 431.988 582.041C432.199 582.255 432.515 582.33 432.8 582.237H432.815L433.03 582.213C433.271 582.141 433.508 582.054 433.739 581.954C434.184 581.775 434.646 581.64 435.118 581.551C435.282 581.561 435.439 581.616 435.571 581.711L435.927 581.652C436.698 584.046 438.32 586.074 440.486 587.352L440.341 587.655C440.407 587.794 440.432 587.948 440.412 588.101C440.215 588.555 439.976 588.989 439.696 589.397C439.542 589.6 439.4 589.811 439.271 590.03L439.17 590.243C439.097 590.37 439.06 590.515 439.064 590.661C439.068 590.807 439.112 590.95 439.192 591.073C439.272 591.196 439.384 591.294 439.516 591.358C439.648 591.421 439.795 591.446 439.941 591.431C440.24 591.398 440.493 591.199 440.598 590.918L440.696 590.717C440.787 590.479 440.862 590.237 440.925 589.993C441.134 589.474 441.249 588.918 441.535 588.574C441.629 588.485 441.748 588.427 441.875 588.407L442.053 588.083C444.4 588.985 446.997 588.991 449.348 588.101L449.506 588.404C449.667 588.429 449.812 588.516 449.909 588.647C450.132 589.072 450.313 589.517 450.45 589.976C450.513 590.222 450.591 590.465 450.681 590.701L450.779 590.903C450.831 591.041 450.92 591.161 451.036 591.25C451.152 591.34 451.29 591.396 451.436 591.413C451.582 591.429 451.729 591.404 451.862 591.342C451.994 591.279 452.107 591.182 452.188 591.059C452.351 590.807 452.358 590.485 452.207 590.227L452.103 590.013C451.974 589.795 451.833 589.585 451.679 589.383C451.407 588.986 451.168 588.566 450.968 588.128C450.949 588.048 450.946 587.964 450.96 587.883C450.973 587.801 451.003 587.723 451.048 587.654C450.997 587.55 450.953 587.444 450.916 587.335C453.077 586.047 454.691 584.012 455.454 581.614L455.79 581.674C455.911 581.563 456.07 581.505 456.233 581.51C456.704 581.6 457.166 581.747 457.612 581.913C457.844 582.02 458.081 582.11 458.322 582.186C458.379 582.201 458.463 582.215 458.526 582.23H458.542C458.682 582.275 458.832 582.281 458.975 582.246C459.118 582.211 459.248 582.137 459.352 582.032C459.455 581.928 459.528 581.796 459.561 581.653C459.594 581.509 459.587 581.359 459.54 581.22C459.492 581.081 459.407 580.957 459.293 580.864C459.179 580.77 459.041 580.71 458.895 580.691L458.665 580.637C458.413 580.602 458.159 580.582 457.904 580.577C457.425 580.546 456.95 580.468 456.487 580.343C456.344 580.263 456.226 580.144 456.146 580.001L455.825 579.906C456.167 577.414 455.581 574.883 454.179 572.794L454.46 572.535C454.449 572.372 454.502 572.211 454.608 572.086C454.972 571.774 455.365 571.497 455.782 571.261C456.008 571.146 456.227 571.017 456.437 570.877L456.611 570.737C456.706 570.677 456.789 570.599 456.852 570.506C456.915 570.412 456.957 570.307 456.977 570.196C456.996 570.085 456.992 569.972 456.964 569.863C456.936 569.754 456.885 569.652 456.815 569.564C456.745 569.476 456.657 569.404 456.557 569.352C456.457 569.301 456.347 569.271 456.235 569.265C456.122 569.259 456.01 569.278 455.905 569.318C455.8 569.359 455.705 569.421 455.626 569.502L455.451 569.642C455.267 569.816 455.094 570 454.932 570.194C454.619 570.552 454.272 570.879 453.896 571.17C453.744 571.232 453.578 571.25 453.417 571.222L453.117 571.437C451.383 569.62 449.048 568.493 446.547 568.267C446.547 568.149 446.532 567.971 446.529 567.915C446.394 567.823 446.301 567.681 446.27 567.521C446.253 567.042 446.284 566.563 446.36 566.09C446.412 565.84 446.447 565.591 446.47 565.338V565.101C446.481 564.882 446.406 564.667 446.261 564.502C446.115 564.338 445.911 564.237 445.692 564.222L445.681 564.217L445.68 564.216ZM444.691 570.346L444.454 574.492H444.436C444.429 574.618 444.388 574.739 444.319 574.844C444.25 574.949 444.154 575.034 444.042 575.091C443.929 575.148 443.802 575.172 443.676 575.161C443.551 575.15 443.43 575.103 443.33 575.026L439.929 572.617C441.012 571.554 442.37 570.815 443.85 570.482C444.127 570.423 444.407 570.378 444.689 570.347H444.691V570.346ZM446.67 570.346C448.456 570.568 450.12 571.371 451.406 572.629L448.038 575.023C447.936 575.105 447.813 575.156 447.684 575.172C447.554 575.187 447.423 575.165 447.304 575.109C447.186 575.053 447.086 574.965 447.016 574.855C446.945 574.745 446.907 574.618 446.906 574.487L446.671 570.347L446.67 570.346ZM438.694 574.177L441.804 576.951V576.969C441.899 577.052 441.97 577.159 442.008 577.279C442.047 577.399 442.053 577.527 442.025 577.65C441.997 577.772 441.936 577.885 441.849 577.976C441.762 578.067 441.652 578.133 441.53 578.167V578.179L437.539 579.326C437.342 577.528 437.749 575.715 438.696 574.174L438.694 574.177ZM452.644 574.177C453.589 575.713 454.007 577.516 453.834 579.312L449.837 578.161V578.145C449.715 578.112 449.605 578.047 449.518 577.956C449.43 577.865 449.37 577.752 449.342 577.629C449.314 577.506 449.32 577.377 449.359 577.257C449.398 577.137 449.468 577.03 449.563 576.947L452.649 574.186L452.644 574.177ZM445.044 577.168H446.316L447.094 578.155L446.811 579.389L445.668 579.938L444.523 579.389L444.253 578.155L445.044 577.168V577.168ZM449.119 580.536C449.172 580.53 449.226 580.53 449.279 580.536L453.395 581.23C452.793 582.942 451.633 584.402 450.101 585.375L448.51 581.525C448.467 581.422 448.449 581.31 448.457 581.198C448.466 581.086 448.502 580.978 448.561 580.883C448.62 580.788 448.701 580.708 448.798 580.651C448.894 580.593 449.003 580.56 449.115 580.554L449.119 580.536ZM442.208 580.554C442.322 580.555 442.434 580.585 442.535 580.641C442.635 580.696 442.72 580.775 442.782 580.871C442.844 580.967 442.882 581.077 442.892 581.191C442.901 581.304 442.883 581.419 442.838 581.524V581.539L441.257 585.358C439.744 584.388 438.593 582.946 437.983 581.255L442.063 580.564C442.109 580.559 442.155 580.559 442.201 580.564L442.208 580.554H442.208ZM445.654 582.214C445.919 582.206 446.166 582.347 446.292 582.58H446.307L448.318 586.208L447.514 586.446C446.035 586.784 444.491 586.704 443.054 586.216L445.072 582.587C445.132 582.483 445.218 582.396 445.322 582.334C445.426 582.273 445.544 582.239 445.665 582.237L445.654 582.215V582.214Z" fill="white" stroke="white" stroke-width="0.37062"/>
<path d="M426.528 219.369H773.429V544.032C773.429 545.015 773.038 545.958 772.343 546.653C771.648 547.348 770.705 547.738 769.722 547.738H430.235C429.252 547.738 428.309 547.348 427.614 546.653C426.919 545.958 426.528 545.015 426.528 544.032V219.369Z" fill="#EFFFBD"/>
<path d="M426.528 429.14H773.429V544.032C773.429 545.015 773.038 545.958 772.343 546.653C771.648 547.348 770.705 547.739 769.722 547.739H430.235C429.252 547.739 428.309 547.348 427.614 546.653C426.919 545.958 426.528 545.015 426.528 544.032V429.14Z" fill="#66E8FF"/>
<path d="M426.528 510.677H773.429V541.809C773.429 543.382 772.804 544.89 771.692 546.002C770.58 547.114 769.071 547.739 767.499 547.739H432.458C430.886 547.739 429.377 547.114 428.265 546.002C427.153 544.89 426.528 543.382 426.528 541.809V510.677Z" fill="#00A8C6"/>
<path d="M412.445 219.369L787.512 220.11" stroke="black" stroke-width="8.15364" stroke-dasharray="22.24 22.24"/>
<rect x="55" y="239" width="83" height="83" fill="#8FBE00"/>
<rect x="173" y="239" width="83" height="83" fill="#8FBE00"/>
<rect x="290" y="239" width="83" height="83" fill="#8FBE00"/>
<rect x="441" y="334" width="83" height="83" fill="#8FBE00"/>
<rect x="559" y="334" width="83" height="83" fill="#8FBE00"/>
<rect x="235.328" y="723" width="730.344" height="120.166" fill="#F8F8F8"/>
<path d="M303.023 689V665.727H312.205C313.97 665.727 315.473 666.064 316.716 666.739C317.958 667.405 318.905 668.333 319.557 669.523C320.216 670.705 320.545 672.068 320.545 673.614C320.545 675.159 320.212 676.523 319.545 677.705C318.879 678.886 317.913 679.807 316.648 680.466C315.39 681.125 313.867 681.455 312.08 681.455H306.227V677.511H311.284C312.231 677.511 313.011 677.348 313.625 677.023C314.246 676.689 314.708 676.231 315.011 675.648C315.322 675.057 315.477 674.379 315.477 673.614C315.477 672.841 315.322 672.167 315.011 671.591C314.708 671.008 314.246 670.557 313.625 670.239C313.004 669.913 312.216 669.75 311.261 669.75H307.943V689H303.023ZM323.651 689V671.545H328.344V674.591H328.526C328.844 673.508 329.378 672.689 330.128 672.136C330.878 671.576 331.741 671.295 332.719 671.295C332.961 671.295 333.223 671.311 333.503 671.341C333.783 671.371 334.029 671.413 334.241 671.466V675.761C334.014 675.693 333.7 675.633 333.298 675.58C332.897 675.527 332.529 675.5 332.196 675.5C331.484 675.5 330.848 675.655 330.287 675.966C329.734 676.269 329.295 676.693 328.969 677.239C328.651 677.784 328.491 678.413 328.491 679.125V689H323.651ZM343.818 689.341C342.053 689.341 340.527 688.966 339.239 688.216C337.958 687.458 336.97 686.405 336.273 685.057C335.576 683.701 335.227 682.129 335.227 680.341C335.227 678.538 335.576 676.962 336.273 675.614C336.97 674.258 337.958 673.205 339.239 672.455C340.527 671.697 342.053 671.318 343.818 671.318C345.583 671.318 347.106 671.697 348.386 672.455C349.674 673.205 350.667 674.258 351.364 675.614C352.061 676.962 352.409 678.538 352.409 680.341C352.409 682.129 352.061 683.701 351.364 685.057C350.667 686.405 349.674 687.458 348.386 688.216C347.106 688.966 345.583 689.341 343.818 689.341ZM343.841 685.591C344.644 685.591 345.314 685.364 345.852 684.909C346.39 684.447 346.795 683.818 347.068 683.023C347.348 682.227 347.489 681.322 347.489 680.307C347.489 679.292 347.348 678.386 347.068 677.591C346.795 676.795 346.39 676.167 345.852 675.705C345.314 675.242 344.644 675.011 343.841 675.011C343.03 675.011 342.348 675.242 341.795 675.705C341.25 676.167 340.837 676.795 340.557 677.591C340.284 678.386 340.148 679.292 340.148 680.307C340.148 681.322 340.284 682.227 340.557 683.023C340.837 683.818 341.25 684.447 341.795 684.909C342.348 685.364 343.03 685.591 343.841 685.591ZM371.267 671.545L365.165 689H359.71L353.608 671.545H358.722L362.347 684.034H362.528L366.142 671.545H371.267ZM373.744 689V671.545H378.585V689H373.744ZM376.176 669.295C375.456 669.295 374.839 669.057 374.324 668.58C373.816 668.095 373.562 667.515 373.562 666.841C373.562 666.174 373.816 665.602 374.324 665.125C374.839 664.64 375.456 664.398 376.176 664.398C376.896 664.398 377.509 664.64 378.017 665.125C378.532 665.602 378.79 666.174 378.79 666.841C378.79 667.515 378.532 668.095 378.017 668.58C377.509 669.057 376.896 669.295 376.176 669.295ZM396.986 676.523L392.554 676.795C392.478 676.417 392.315 676.076 392.065 675.773C391.815 675.462 391.486 675.216 391.077 675.034C390.675 674.845 390.194 674.75 389.634 674.75C388.884 674.75 388.251 674.909 387.736 675.227C387.221 675.538 386.963 675.955 386.963 676.477C386.963 676.894 387.13 677.246 387.463 677.534C387.796 677.822 388.368 678.053 389.179 678.227L392.338 678.864C394.035 679.212 395.3 679.773 396.134 680.545C396.967 681.318 397.384 682.333 397.384 683.591C397.384 684.735 397.046 685.739 396.372 686.602C395.705 687.466 394.789 688.14 393.622 688.625C392.463 689.102 391.126 689.341 389.611 689.341C387.3 689.341 385.459 688.86 384.088 687.898C382.724 686.928 381.925 685.61 381.69 683.943L386.452 683.693C386.596 684.398 386.944 684.936 387.497 685.307C388.05 685.67 388.759 685.852 389.622 685.852C390.471 685.852 391.152 685.689 391.668 685.364C392.19 685.03 392.455 684.602 392.463 684.08C392.455 683.64 392.27 683.28 391.906 683C391.543 682.712 390.982 682.492 390.224 682.341L387.202 681.739C385.497 681.398 384.228 680.807 383.395 679.966C382.569 679.125 382.156 678.053 382.156 676.75C382.156 675.629 382.459 674.663 383.065 673.852C383.679 673.042 384.539 672.417 385.645 671.977C386.759 671.538 388.062 671.318 389.554 671.318C391.759 671.318 393.493 671.784 394.759 672.716C396.031 673.648 396.774 674.917 396.986 676.523ZM400.432 689V671.545H405.273V689H400.432ZM402.864 669.295C402.144 669.295 401.527 669.057 401.011 668.58C400.504 668.095 400.25 667.515 400.25 666.841C400.25 666.174 400.504 665.602 401.011 665.125C401.527 664.64 402.144 664.398 402.864 664.398C403.583 664.398 404.197 664.64 404.705 665.125C405.22 665.602 405.477 666.174 405.477 666.841C405.477 667.515 405.22 668.095 404.705 668.58C404.197 669.057 403.583 669.295 402.864 669.295ZM417.037 689.341C415.272 689.341 413.745 688.966 412.457 688.216C411.177 687.458 410.188 686.405 409.491 685.057C408.795 683.701 408.446 682.129 408.446 680.341C408.446 678.538 408.795 676.962 409.491 675.614C410.188 674.258 411.177 673.205 412.457 672.455C413.745 671.697 415.272 671.318 417.037 671.318C418.802 671.318 420.325 671.697 421.605 672.455C422.893 673.205 423.885 674.258 424.582 675.614C425.279 676.962 425.628 678.538 425.628 680.341C425.628 682.129 425.279 683.701 424.582 685.057C423.885 686.405 422.893 687.458 421.605 688.216C420.325 688.966 418.802 689.341 417.037 689.341ZM417.06 685.591C417.863 685.591 418.533 685.364 419.071 684.909C419.609 684.447 420.014 683.818 420.287 683.023C420.567 682.227 420.707 681.322 420.707 680.307C420.707 679.292 420.567 678.386 420.287 677.591C420.014 676.795 419.609 676.167 419.071 675.705C418.533 675.242 417.863 675.011 417.06 675.011C416.249 675.011 415.567 675.242 415.014 675.705C414.469 676.167 414.056 676.795 413.776 677.591C413.503 678.386 413.366 679.292 413.366 680.307C413.366 681.322 413.503 682.227 413.776 683.023C414.056 683.818 414.469 684.447 415.014 684.909C415.567 685.364 416.249 685.591 417.06 685.591ZM433.616 678.909V689H428.776V671.545H433.389V674.625H433.594C433.98 673.61 434.628 672.807 435.537 672.216C436.446 671.617 437.548 671.318 438.844 671.318C440.056 671.318 441.113 671.583 442.014 672.114C442.916 672.644 443.616 673.402 444.116 674.386C444.616 675.364 444.866 676.53 444.866 677.886V689H440.026V678.75C440.033 677.682 439.76 676.848 439.207 676.25C438.654 675.644 437.893 675.341 436.923 675.341C436.272 675.341 435.696 675.481 435.196 675.761C434.704 676.042 434.317 676.451 434.037 676.989C433.764 677.519 433.624 678.159 433.616 678.909ZM448.682 689V671.545H453.523V689H448.682ZM451.114 669.295C450.394 669.295 449.777 669.057 449.261 668.58C448.754 668.095 448.5 667.515 448.5 666.841C448.5 666.174 448.754 665.602 449.261 665.125C449.777 664.64 450.394 664.398 451.114 664.398C451.833 664.398 452.447 664.64 452.955 665.125C453.47 665.602 453.727 666.174 453.727 666.841C453.727 667.515 453.47 668.095 452.955 668.58C452.447 669.057 451.833 669.295 451.114 669.295ZM462.241 678.909V689H457.401V671.545H462.014V674.625H462.219C462.605 673.61 463.253 672.807 464.162 672.216C465.071 671.617 466.173 671.318 467.469 671.318C468.681 671.318 469.738 671.583 470.639 672.114C471.541 672.644 472.241 673.402 472.741 674.386C473.241 675.364 473.491 676.53 473.491 677.886V689H468.651V678.75C468.658 677.682 468.385 676.848 467.832 676.25C467.279 675.644 466.518 675.341 465.548 675.341C464.897 675.341 464.321 675.481 463.821 675.761C463.329 676.042 462.942 676.451 462.662 676.989C462.389 677.519 462.249 678.159 462.241 678.909ZM485.17 695.909C483.602 695.909 482.258 695.693 481.136 695.261C480.023 694.837 479.136 694.258 478.477 693.523C477.818 692.788 477.39 691.962 477.193 691.045L481.67 690.443C481.807 690.792 482.023 691.117 482.318 691.42C482.614 691.723 483.004 691.966 483.489 692.148C483.981 692.337 484.58 692.432 485.284 692.432C486.337 692.432 487.205 692.174 487.886 691.659C488.576 691.152 488.92 690.299 488.92 689.102V685.909H488.716C488.504 686.394 488.186 686.852 487.761 687.284C487.337 687.716 486.792 688.068 486.125 688.341C485.458 688.614 484.663 688.75 483.739 688.75C482.428 688.75 481.235 688.447 480.159 687.841C479.091 687.227 478.239 686.292 477.602 685.034C476.973 683.769 476.659 682.17 476.659 680.239C476.659 678.261 476.981 676.61 477.625 675.284C478.269 673.958 479.125 672.966 480.193 672.307C481.269 671.648 482.447 671.318 483.727 671.318C484.705 671.318 485.523 671.485 486.182 671.818C486.841 672.144 487.371 672.553 487.773 673.045C488.182 673.53 488.496 674.008 488.716 674.477H488.898V671.545H493.705V689.17C493.705 690.655 493.341 691.898 492.614 692.898C491.886 693.898 490.879 694.648 489.591 695.148C488.311 695.655 486.837 695.909 485.17 695.909ZM485.273 685.114C486.053 685.114 486.712 684.92 487.25 684.534C487.795 684.14 488.212 683.58 488.5 682.852C488.795 682.117 488.943 681.239 488.943 680.216C488.943 679.193 488.799 678.307 488.511 677.557C488.223 676.799 487.807 676.212 487.261 675.795C486.716 675.379 486.053 675.17 485.273 675.17C484.477 675.17 483.807 675.386 483.261 675.818C482.716 676.242 482.303 676.833 482.023 677.591C481.742 678.348 481.602 679.223 481.602 680.216C481.602 681.223 481.742 682.095 482.023 682.83C482.311 683.557 482.723 684.121 483.261 684.523C483.807 684.917 484.477 685.114 485.273 685.114ZM509.94 689.33C508.827 689.33 507.834 689.136 506.963 688.75C506.092 688.356 505.402 687.777 504.895 687.011C504.395 686.239 504.145 685.277 504.145 684.125C504.145 683.155 504.323 682.341 504.679 681.682C505.035 681.023 505.52 680.492 506.134 680.091C506.747 679.689 507.444 679.386 508.224 679.182C509.012 678.977 509.838 678.833 510.702 678.75C511.717 678.644 512.535 678.545 513.156 678.455C513.777 678.356 514.228 678.212 514.509 678.023C514.789 677.833 514.929 677.553 514.929 677.182V677.114C514.929 676.394 514.702 675.837 514.247 675.443C513.8 675.049 513.164 674.852 512.338 674.852C511.467 674.852 510.774 675.045 510.259 675.432C509.743 675.811 509.402 676.288 509.236 676.864L504.759 676.5C504.986 675.439 505.433 674.523 506.099 673.75C506.766 672.97 507.626 672.371 508.679 671.955C509.74 671.53 510.967 671.318 512.361 671.318C513.33 671.318 514.259 671.432 515.145 671.659C516.039 671.886 516.83 672.239 517.52 672.716C518.217 673.193 518.766 673.807 519.168 674.557C519.569 675.299 519.77 676.189 519.77 677.227V689H515.179V686.58H515.043C514.762 687.125 514.387 687.606 513.918 688.023C513.448 688.432 512.884 688.754 512.224 688.989C511.565 689.216 510.804 689.33 509.94 689.33ZM511.327 685.989C512.039 685.989 512.668 685.848 513.213 685.568C513.759 685.28 514.187 684.894 514.497 684.409C514.808 683.924 514.963 683.375 514.963 682.761V680.909C514.812 681.008 514.603 681.098 514.338 681.182C514.08 681.258 513.789 681.33 513.463 681.398C513.137 681.458 512.812 681.515 512.486 681.568C512.16 681.614 511.865 681.655 511.599 681.693C511.031 681.777 510.535 681.909 510.111 682.091C509.687 682.273 509.357 682.519 509.122 682.83C508.887 683.133 508.77 683.511 508.77 683.966C508.77 684.625 509.009 685.129 509.486 685.477C509.971 685.818 510.584 685.989 511.327 685.989ZM535.773 678.909V689H530.932V671.545H535.545V674.625H535.75C536.136 673.61 536.784 672.807 537.693 672.216C538.602 671.617 539.705 671.318 541 671.318C542.212 671.318 543.269 671.583 544.17 672.114C545.072 672.644 545.773 673.402 546.273 674.386C546.773 675.364 547.023 676.53 547.023 677.886V689H542.182V678.75C542.189 677.682 541.917 676.848 541.364 676.25C540.811 675.644 540.049 675.341 539.08 675.341C538.428 675.341 537.852 675.481 537.352 675.761C536.86 676.042 536.473 676.451 536.193 676.989C535.92 677.519 535.78 678.159 535.773 678.909ZM558.724 689.341C556.959 689.341 555.433 688.966 554.145 688.216C552.865 687.458 551.876 686.405 551.179 685.057C550.482 683.701 550.134 682.129 550.134 680.341C550.134 678.538 550.482 676.962 551.179 675.614C551.876 674.258 552.865 673.205 554.145 672.455C555.433 671.697 556.959 671.318 558.724 671.318C560.49 671.318 562.012 671.697 563.293 672.455C564.58 673.205 565.573 674.258 566.27 675.614C566.967 676.962 567.315 678.538 567.315 680.341C567.315 682.129 566.967 683.701 566.27 685.057C565.573 686.405 564.58 687.458 563.293 688.216C562.012 688.966 560.49 689.341 558.724 689.341ZM558.747 685.591C559.55 685.591 560.221 685.364 560.759 684.909C561.296 684.447 561.702 683.818 561.974 683.023C562.255 682.227 562.395 681.322 562.395 680.307C562.395 679.292 562.255 678.386 561.974 677.591C561.702 676.795 561.296 676.167 560.759 675.705C560.221 675.242 559.55 675.011 558.747 675.011C557.937 675.011 557.255 675.242 556.702 675.705C556.156 676.167 555.743 676.795 555.463 677.591C555.19 678.386 555.054 679.292 555.054 680.307C555.054 681.322 555.19 682.227 555.463 683.023C555.743 683.818 556.156 684.447 556.702 684.909C557.255 685.364 557.937 685.591 558.747 685.591ZM576.895 689.284C575.569 689.284 574.368 688.943 573.293 688.261C572.224 687.572 571.376 686.561 570.747 685.227C570.126 683.886 569.815 682.242 569.815 680.295C569.815 678.295 570.137 676.633 570.781 675.307C571.425 673.973 572.281 672.977 573.349 672.318C574.425 671.652 575.603 671.318 576.884 671.318C577.861 671.318 578.675 671.485 579.327 671.818C579.986 672.144 580.516 672.553 580.918 673.045C581.327 673.53 581.637 674.008 581.849 674.477H581.997V665.727H586.827V689H582.054V686.205H581.849C581.622 686.689 581.3 687.17 580.884 687.648C580.474 688.117 579.94 688.508 579.281 688.818C578.63 689.129 577.834 689.284 576.895 689.284ZM578.429 685.432C579.209 685.432 579.868 685.22 580.406 684.795C580.952 684.364 581.368 683.761 581.656 682.989C581.952 682.216 582.099 681.311 582.099 680.273C582.099 679.235 581.955 678.333 581.668 677.568C581.38 676.803 580.963 676.212 580.418 675.795C579.872 675.379 579.209 675.17 578.429 675.17C577.634 675.17 576.963 675.386 576.418 675.818C575.872 676.25 575.459 676.848 575.179 677.614C574.899 678.379 574.759 679.265 574.759 680.273C574.759 681.288 574.899 682.186 575.179 682.966C575.467 683.739 575.88 684.345 576.418 684.784C576.963 685.216 577.634 685.432 578.429 685.432ZM598.761 689.341C596.966 689.341 595.42 688.977 594.125 688.25C592.837 687.515 591.845 686.477 591.148 685.136C590.451 683.788 590.102 682.193 590.102 680.352C590.102 678.557 590.451 676.981 591.148 675.625C591.845 674.269 592.826 673.212 594.091 672.455C595.364 671.697 596.856 671.318 598.568 671.318C599.72 671.318 600.792 671.504 601.784 671.875C602.784 672.239 603.655 672.788 604.398 673.523C605.148 674.258 605.731 675.182 606.148 676.295C606.564 677.402 606.773 678.697 606.773 680.182V681.511H592.034V678.511H602.216C602.216 677.814 602.064 677.197 601.761 676.659C601.458 676.121 601.038 675.701 600.5 675.398C599.97 675.087 599.352 674.932 598.648 674.932C597.913 674.932 597.261 675.102 596.693 675.443C596.133 675.777 595.693 676.227 595.375 676.795C595.057 677.356 594.894 677.981 594.886 678.67V681.523C594.886 682.386 595.045 683.133 595.364 683.761C595.689 684.39 596.148 684.875 596.739 685.216C597.33 685.557 598.03 685.727 598.841 685.727C599.379 685.727 599.871 685.652 600.318 685.5C600.765 685.348 601.148 685.121 601.466 684.818C601.784 684.515 602.027 684.144 602.193 683.705L606.67 684C606.443 685.076 605.977 686.015 605.273 686.818C604.576 687.614 603.674 688.235 602.568 688.682C601.47 689.121 600.201 689.341 598.761 689.341ZM617.338 689V671.545H622.179V689H617.338ZM619.77 669.295C619.05 669.295 618.433 669.057 617.918 668.58C617.41 668.095 617.156 667.515 617.156 666.841C617.156 666.174 617.41 665.602 617.918 665.125C618.433 664.64 619.05 664.398 619.77 664.398C620.49 664.398 621.103 664.64 621.611 665.125C622.126 665.602 622.384 666.174 622.384 666.841C622.384 667.515 622.126 668.095 621.611 668.58C621.103 669.057 620.49 669.295 619.77 669.295ZM630.898 678.909V689H626.057V671.545H630.67V674.625H630.875C631.261 673.61 631.909 672.807 632.818 672.216C633.727 671.617 634.83 671.318 636.125 671.318C637.337 671.318 638.394 671.583 639.295 672.114C640.197 672.644 640.898 673.402 641.398 674.386C641.898 675.364 642.148 676.53 642.148 677.886V689H637.307V678.75C637.314 677.682 637.042 676.848 636.489 676.25C635.936 675.644 635.174 675.341 634.205 675.341C633.553 675.341 632.977 675.481 632.477 675.761C631.985 676.042 631.598 676.451 631.318 676.989C631.045 677.519 630.905 678.159 630.898 678.909ZM662.653 671.545V675.182H652.142V671.545H662.653ZM654.528 667.364H659.369V683.636C659.369 684.083 659.438 684.432 659.574 684.682C659.71 684.924 659.9 685.095 660.142 685.193C660.392 685.292 660.68 685.341 661.006 685.341C661.233 685.341 661.46 685.322 661.688 685.284C661.915 685.239 662.089 685.205 662.21 685.182L662.972 688.784C662.729 688.86 662.388 688.947 661.949 689.045C661.509 689.152 660.975 689.216 660.347 689.239C659.18 689.284 658.157 689.129 657.278 688.773C656.407 688.417 655.729 687.864 655.244 687.114C654.759 686.364 654.521 685.417 654.528 684.273V667.364ZM671.023 678.909V689H666.182V665.727H670.886V674.625H671.091C671.485 673.595 672.121 672.788 673 672.205C673.879 671.614 674.981 671.318 676.307 671.318C677.519 671.318 678.576 671.583 679.477 672.114C680.386 672.636 681.091 673.39 681.591 674.375C682.098 675.352 682.348 676.523 682.341 677.886V689H677.5V678.75C677.508 677.674 677.235 676.837 676.682 676.239C676.136 675.64 675.371 675.341 674.386 675.341C673.727 675.341 673.144 675.481 672.636 675.761C672.136 676.042 671.742 676.451 671.455 676.989C671.174 677.519 671.03 678.159 671.023 678.909ZM694.105 689.341C692.31 689.341 690.764 688.977 689.469 688.25C688.181 687.515 687.188 686.477 686.491 685.136C685.795 683.788 685.446 682.193 685.446 680.352C685.446 678.557 685.795 676.981 686.491 675.625C687.188 674.269 688.17 673.212 689.435 672.455C690.707 671.697 692.2 671.318 693.912 671.318C695.063 671.318 696.135 671.504 697.128 671.875C698.128 672.239 698.999 672.788 699.741 673.523C700.491 674.258 701.075 675.182 701.491 676.295C701.908 677.402 702.116 678.697 702.116 680.182V681.511H687.378V678.511H697.56C697.56 677.814 697.408 677.197 697.105 676.659C696.802 676.121 696.382 675.701 695.844 675.398C695.313 675.087 694.696 674.932 693.991 674.932C693.257 674.932 692.605 675.102 692.037 675.443C691.476 675.777 691.037 676.227 690.719 676.795C690.401 677.356 690.238 677.981 690.23 678.67V681.523C690.23 682.386 690.389 683.133 690.707 683.761C691.033 684.39 691.491 684.875 692.082 685.216C692.673 685.557 693.374 685.727 694.185 685.727C694.723 685.727 695.215 685.652 695.662 685.5C696.109 685.348 696.491 685.121 696.81 684.818C697.128 684.515 697.37 684.144 697.537 683.705L702.014 684C701.787 685.076 701.321 686.015 700.616 686.818C699.92 687.614 699.018 688.235 697.912 688.682C696.813 689.121 695.545 689.341 694.105 689.341ZM712.773 689V665.727H717.614V674.477H717.761C717.973 674.008 718.28 673.53 718.682 673.045C719.091 672.553 719.621 672.144 720.273 671.818C720.932 671.485 721.75 671.318 722.727 671.318C724 671.318 725.174 671.652 726.25 672.318C727.326 672.977 728.186 673.973 728.83 675.307C729.473 676.633 729.795 678.295 729.795 680.295C729.795 682.242 729.481 683.886 728.852 685.227C728.231 686.561 727.383 687.572 726.307 688.261C725.239 688.943 724.042 689.284 722.716 689.284C721.777 689.284 720.977 689.129 720.318 688.818C719.667 688.508 719.133 688.117 718.716 687.648C718.299 687.17 717.981 686.689 717.761 686.205H717.545V689H712.773ZM717.511 680.273C717.511 681.311 717.655 682.216 717.943 682.989C718.231 683.761 718.648 684.364 719.193 684.795C719.739 685.22 720.402 685.432 721.182 685.432C721.97 685.432 722.636 685.216 723.182 684.784C723.727 684.345 724.14 683.739 724.42 682.966C724.708 682.186 724.852 681.288 724.852 680.273C724.852 679.265 724.712 678.379 724.432 677.614C724.152 676.848 723.739 676.25 723.193 675.818C722.648 675.386 721.977 675.17 721.182 675.17C720.394 675.17 719.727 675.379 719.182 675.795C718.644 676.212 718.231 676.803 717.943 677.568C717.655 678.333 717.511 679.235 717.511 680.273ZM738.003 689.33C736.889 689.33 735.897 689.136 735.026 688.75C734.154 688.356 733.465 687.777 732.957 687.011C732.457 686.239 732.207 685.277 732.207 684.125C732.207 683.155 732.385 682.341 732.741 681.682C733.098 681.023 733.582 680.492 734.196 680.091C734.81 679.689 735.507 679.386 736.287 679.182C737.075 678.977 737.901 678.833 738.764 678.75C739.779 678.644 740.598 678.545 741.219 678.455C741.84 678.356 742.291 678.212 742.571 678.023C742.851 677.833 742.991 677.553 742.991 677.182V677.114C742.991 676.394 742.764 675.837 742.31 675.443C741.863 675.049 741.226 674.852 740.401 674.852C739.529 674.852 738.836 675.045 738.321 675.432C737.806 675.811 737.465 676.288 737.298 676.864L732.821 676.5C733.048 675.439 733.495 674.523 734.162 673.75C734.829 672.97 735.688 672.371 736.741 671.955C737.802 671.53 739.029 671.318 740.423 671.318C741.393 671.318 742.321 671.432 743.207 671.659C744.101 671.886 744.893 672.239 745.582 672.716C746.279 673.193 746.829 673.807 747.23 674.557C747.632 675.299 747.832 676.189 747.832 677.227V689H743.241V686.58H743.105C742.825 687.125 742.45 687.606 741.98 688.023C741.51 688.432 740.946 688.754 740.287 688.989C739.628 689.216 738.866 689.33 738.003 689.33ZM739.389 685.989C740.101 685.989 740.73 685.848 741.276 685.568C741.821 685.28 742.249 684.894 742.56 684.409C742.87 683.924 743.026 683.375 743.026 682.761V680.909C742.874 681.008 742.666 681.098 742.401 681.182C742.143 681.258 741.851 681.33 741.526 681.398C741.2 681.458 740.874 681.515 740.548 681.568C740.223 681.614 739.927 681.655 739.662 681.693C739.094 681.777 738.598 681.909 738.173 682.091C737.749 682.273 737.42 682.519 737.185 682.83C736.95 683.133 736.832 683.511 736.832 683.966C736.832 684.625 737.071 685.129 737.548 685.477C738.033 685.818 738.647 685.989 739.389 685.989ZM759.474 689.341C757.687 689.341 756.149 688.962 754.861 688.205C753.58 687.439 752.596 686.379 751.906 685.023C751.224 683.667 750.884 682.106 750.884 680.341C750.884 678.553 751.228 676.985 751.918 675.636C752.615 674.28 753.603 673.223 754.884 672.466C756.164 671.701 757.687 671.318 759.452 671.318C760.974 671.318 762.308 671.595 763.452 672.148C764.596 672.701 765.501 673.477 766.168 674.477C766.834 675.477 767.202 676.652 767.27 678H762.702C762.573 677.129 762.232 676.428 761.679 675.898C761.134 675.36 760.418 675.091 759.531 675.091C758.781 675.091 758.126 675.295 757.565 675.705C757.012 676.106 756.58 676.693 756.27 677.466C755.959 678.239 755.804 679.174 755.804 680.273C755.804 681.386 755.955 682.333 756.259 683.114C756.569 683.894 757.005 684.489 757.565 684.898C758.126 685.307 758.781 685.511 759.531 685.511C760.084 685.511 760.58 685.398 761.02 685.17C761.467 684.943 761.834 684.614 762.122 684.182C762.418 683.742 762.611 683.216 762.702 682.602H767.27C767.194 683.936 766.83 685.11 766.179 686.125C765.535 687.133 764.645 687.92 763.509 688.489C762.372 689.057 761.027 689.341 759.474 689.341ZM774.756 683.977L774.767 678.17H775.472L781.062 671.545H786.619L779.108 680.318H777.96L774.756 683.977ZM770.369 689V665.727H775.21V689H770.369ZM781.278 689L776.142 681.398L779.369 677.977L786.949 689H781.278ZM796.139 695.909C794.571 695.909 793.226 695.693 792.105 695.261C790.991 694.837 790.105 694.258 789.446 693.523C788.787 692.788 788.359 691.962 788.162 691.045L792.639 690.443C792.776 690.792 792.991 691.117 793.287 691.42C793.582 691.723 793.973 691.966 794.457 692.148C794.95 692.337 795.548 692.432 796.253 692.432C797.306 692.432 798.173 692.174 798.855 691.659C799.545 691.152 799.889 690.299 799.889 689.102V685.909H799.685C799.473 686.394 799.154 686.852 798.73 687.284C798.306 687.716 797.76 688.068 797.094 688.341C796.427 688.614 795.632 688.75 794.707 688.75C793.397 688.75 792.204 688.447 791.128 687.841C790.06 687.227 789.207 686.292 788.571 685.034C787.942 683.769 787.628 682.17 787.628 680.239C787.628 678.261 787.95 676.61 788.594 675.284C789.238 673.958 790.094 672.966 791.162 672.307C792.238 671.648 793.416 671.318 794.696 671.318C795.673 671.318 796.491 671.485 797.151 671.818C797.81 672.144 798.34 672.553 798.741 673.045C799.151 673.53 799.465 674.008 799.685 674.477H799.866V671.545H804.673V689.17C804.673 690.655 804.31 691.898 803.582 692.898C802.855 693.898 801.848 694.648 800.56 695.148C799.279 695.655 797.806 695.909 796.139 695.909ZM796.241 685.114C797.022 685.114 797.681 684.92 798.219 684.534C798.764 684.14 799.181 683.58 799.469 682.852C799.764 682.117 799.912 681.239 799.912 680.216C799.912 679.193 799.768 678.307 799.48 677.557C799.192 676.799 798.776 676.212 798.23 675.795C797.685 675.379 797.022 675.17 796.241 675.17C795.446 675.17 794.776 675.386 794.23 675.818C793.685 676.242 793.272 676.833 792.991 677.591C792.711 678.348 792.571 679.223 792.571 680.216C792.571 681.223 792.711 682.095 792.991 682.83C793.279 683.557 793.692 684.121 794.23 684.523C794.776 684.917 795.446 685.114 796.241 685.114ZM808.526 689V671.545H813.219V674.591H813.401C813.719 673.508 814.253 672.689 815.003 672.136C815.753 671.576 816.616 671.295 817.594 671.295C817.836 671.295 818.098 671.311 818.378 671.341C818.658 671.371 818.904 671.413 819.116 671.466V675.761C818.889 675.693 818.575 675.633 818.173 675.58C817.772 675.527 817.404 675.5 817.071 675.5C816.359 675.5 815.723 675.655 815.162 675.966C814.609 676.269 814.17 676.693 813.844 677.239C813.526 677.784 813.366 678.413 813.366 679.125V689H808.526ZM828.693 689.341C826.928 689.341 825.402 688.966 824.114 688.216C822.833 687.458 821.845 686.405 821.148 685.057C820.451 683.701 820.102 682.129 820.102 680.341C820.102 678.538 820.451 676.962 821.148 675.614C821.845 674.258 822.833 673.205 824.114 672.455C825.402 671.697 826.928 671.318 828.693 671.318C830.458 671.318 831.981 671.697 833.261 672.455C834.549 673.205 835.542 674.258 836.239 675.614C836.936 676.962 837.284 678.538 837.284 680.341C837.284 682.129 836.936 683.701 836.239 685.057C835.542 686.405 834.549 687.458 833.261 688.216C831.981 688.966 830.458 689.341 828.693 689.341ZM828.716 685.591C829.519 685.591 830.189 685.364 830.727 684.909C831.265 684.447 831.67 683.818 831.943 683.023C832.223 682.227 832.364 681.322 832.364 680.307C832.364 679.292 832.223 678.386 831.943 677.591C831.67 676.795 831.265 676.167 830.727 675.705C830.189 675.242 829.519 675.011 828.716 675.011C827.905 675.011 827.223 675.242 826.67 675.705C826.125 676.167 825.712 676.795 825.432 677.591C825.159 678.386 825.023 679.292 825.023 680.307C825.023 681.322 825.159 682.227 825.432 683.023C825.712 683.818 826.125 684.447 826.67 684.909C827.223 685.364 827.905 685.591 828.716 685.591ZM851.625 681.568V671.545H856.466V689H851.818V685.83H851.636C851.242 686.852 850.587 687.674 849.67 688.295C848.761 688.917 847.652 689.227 846.341 689.227C845.174 689.227 844.148 688.962 843.261 688.432C842.375 687.902 841.682 687.148 841.182 686.17C840.689 685.193 840.439 684.023 840.432 682.659V671.545H845.273V681.795C845.28 682.826 845.557 683.64 846.102 684.239C846.648 684.837 847.379 685.136 848.295 685.136C848.879 685.136 849.424 685.004 849.932 684.739C850.439 684.466 850.848 684.064 851.159 683.534C851.477 683.004 851.633 682.348 851.625 681.568ZM865.179 678.909V689H860.338V671.545H864.952V674.625H865.156C865.543 673.61 866.19 672.807 867.099 672.216C868.009 671.617 869.111 671.318 870.406 671.318C871.618 671.318 872.675 671.583 873.577 672.114C874.478 672.644 875.179 673.402 875.679 674.386C876.179 675.364 876.429 676.53 876.429 677.886V689H871.588V678.75C871.596 677.682 871.323 676.848 870.77 676.25C870.217 675.644 869.455 675.341 868.486 675.341C867.834 675.341 867.259 675.481 866.759 675.761C866.266 676.042 865.88 676.451 865.599 676.989C865.327 677.519 865.187 678.159 865.179 678.909ZM886.676 689.284C885.35 689.284 884.15 688.943 883.074 688.261C882.006 687.572 881.157 686.561 880.528 685.227C879.907 683.886 879.597 682.242 879.597 680.295C879.597 678.295 879.919 676.633 880.562 675.307C881.206 673.973 882.063 672.977 883.131 672.318C884.206 671.652 885.384 671.318 886.665 671.318C887.642 671.318 888.456 671.485 889.108 671.818C889.767 672.144 890.297 672.553 890.699 673.045C891.108 673.53 891.419 674.008 891.631 674.477H891.778V665.727H896.608V689H891.835V686.205H891.631C891.403 686.689 891.081 687.17 890.665 687.648C890.256 688.117 889.722 688.508 889.062 688.818C888.411 689.129 887.616 689.284 886.676 689.284ZM888.21 685.432C888.991 685.432 889.65 685.22 890.188 684.795C890.733 684.364 891.15 683.761 891.438 682.989C891.733 682.216 891.881 681.311 891.881 680.273C891.881 679.235 891.737 678.333 891.449 677.568C891.161 676.803 890.744 676.212 890.199 675.795C889.653 675.379 888.991 675.17 888.21 675.17C887.415 675.17 886.744 675.386 886.199 675.818C885.653 676.25 885.241 676.848 884.96 677.614C884.68 678.379 884.54 679.265 884.54 680.273C884.54 681.288 884.68 682.186 884.96 682.966C885.248 683.739 885.661 684.345 886.199 684.784C886.744 685.216 887.415 685.432 888.21 685.432Z" fill="black"/>
<rect x="235.328" y="723" width="5.34072" height="120.166" fill="#D8D8D8"/>
<rect x="910.596" y="723" width="5.34072" height="120.166" fill="#D8D8D8"/>
<rect x="856.854" y="723" width="2.67036" height="120.166" fill="#EAEAEA"/>
<rect x="753.378" y="723" width="2.67036" height="120.166" fill="#EAEAEA"/>
<rect x="649.902" y="723" width="2.67036" height="120.166" fill="#EAEAEA"/>
<rect x="545.758" y="723" width="2.67036" height="120.166" fill="#EAEAEA"/>
<rect x="442.281" y="723" width="2.67036" height="120.166" fill="#EAEAEA"/>
<rect x="338.805" y="723" width="2.67036" height="120.166" fill="#EAEAEA"/>
<rect x="390.543" y="723" width="5.34072" height="120.166" fill="#D8D8D8"/>
<rect x="440.612" y="723" width="5.34072" height="120.166" fill="#D8D8D8"/>
<rect x="855.853" y="723" width="5.34072" height="120.166" fill="#D8D8D8"/>
<rect x="240.335" y="739.689" width="150.208" height="21.3629" rx="2.00277" fill="#86B8B1"/>
<rect x="393.881" y="761.053" width="46.7313" height="22.0305" rx="2.00277" fill="#FFA61A"/>
<rect x="444.618" y="783.083" width="411.235" height="21.3629" rx="2.00277" fill="#6DB33F"/>
<rect x="861.194" y="804.446" width="49.4017" height="22.0305" rx="2.00277" fill="#D7D400"/>
</svg>
