<svg width="1200" height="900" viewBox="0 0 1200 900" fill="none" xmlns="http://www.w3.org/2000/svg">
<path fill-rule="evenodd" clip-rule="evenodd" d="M402.067 176.081V595.919C402.067 601.487 397.55 606 391.979 606H37.0883C31.5179 606 27 601.487 27 595.919V176.081C27 170.513 31.5171 166 37.0883 166H391.979C397.55 166 402.067 170.513 402.067 176.081Z" fill="#D2D2D2"/>
<path fill-rule="evenodd" clip-rule="evenodd" d="M91.3398 585.838H387.539V593.577H91.3398V585.838ZM91.3398 573.385H387.539V581.124H91.3398V573.385ZM91.3398 561.525H387.539V569.264H91.3398V561.525ZM41.2319 179.639H387.539V187.348H41.2319V179.639Z" fill="#A3A3A3"/>
<path fill-rule="evenodd" clip-rule="evenodd" d="M45.279 201.01H383.788C384.318 201.01 384.843 201.114 385.333 201.317C385.822 201.52 386.267 201.817 386.642 202.192C387.017 202.566 387.314 203.011 387.517 203.501C387.72 203.99 387.824 204.515 387.824 205.045V543.516C387.824 544.586 387.399 545.612 386.643 546.369C385.886 547.126 384.859 547.551 383.789 547.551H45.2782C44.208 547.551 43.1816 547.126 42.4248 546.369C41.6681 545.612 41.2429 544.586 41.2429 543.516V205.045C41.2431 203.975 41.6684 202.949 42.4251 202.192C43.1818 201.435 44.2081 201.01 45.2782 201.01H45.279Z" fill="#FDDFE1"/>
<path d="M60.1148 559.39C59.775 559.41 59.4428 559.498 59.1378 559.649L45.9096 565.957C45.569 566.119 45.2694 566.356 45.0332 566.65C44.7971 566.945 44.6304 567.289 44.5458 567.656L41.3065 581.817C41.2292 582.146 41.221 582.487 41.2822 582.82C41.3434 583.152 41.4729 583.468 41.6623 583.748C41.7083 583.817 41.7557 583.883 41.8054 583.947L50.9449 595.309C51.4274 595.902 52.1531 596.243 52.9173 596.24H67.5761C67.9542 596.238 68.3273 596.153 68.6686 595.99C69.0099 595.827 69.3111 595.591 69.5507 595.299L78.6858 583.934C79.1646 583.341 79.344 582.558 79.1602 581.814L75.9009 567.643C75.8158 567.276 75.649 566.932 75.4129 566.638C75.1768 566.343 74.8774 566.106 74.5371 565.943L61.3289 559.65C60.9483 559.463 60.5268 559.374 60.1029 559.391L60.1148 559.39Z" fill="#4A4A4A"/>
<path d="M60.2356 564.216C59.7805 564.248 59.4351 564.638 59.4588 565.094V565.317C59.4795 565.57 59.5181 565.821 59.5677 566.068C59.6404 566.543 59.6671 567.024 59.6463 567.505C59.6007 567.663 59.5107 567.805 59.3869 567.914L59.3698 568.249C58.8888 568.289 58.4114 568.362 57.9415 568.469C55.9632 568.915 54.1634 569.942 52.7735 571.418L52.4889 571.217C52.4114 571.24 52.3301 571.248 52.2496 571.24C52.169 571.232 52.0909 571.208 52.0197 571.169C51.6345 570.884 51.278 570.562 50.9553 570.208C50.7931 570.014 50.6198 569.83 50.4364 569.656L50.2607 569.516C50.1044 569.391 49.9124 569.318 49.7122 569.309C49.5926 569.302 49.4732 569.324 49.3637 569.373C49.2542 569.422 49.1577 569.495 49.0822 569.588C48.9534 569.769 48.9015 569.993 48.9378 570.212C48.9741 570.43 49.0955 570.626 49.2756 570.755L49.4394 570.885C49.6507 571.026 49.8694 571.154 50.0947 571.269C50.5179 571.503 50.915 571.781 51.2792 572.099C51.3733 572.234 51.4282 572.392 51.4371 572.555L51.6965 572.793C50.2997 574.889 49.7256 577.427 50.0843 579.92L49.7515 580.015C49.6655 580.153 49.5497 580.269 49.4127 580.356C48.9491 580.481 48.4744 580.559 47.9955 580.591C47.7413 580.596 47.4876 580.616 47.2357 580.651L47.0252 580.698H47.003C46.8573 580.718 46.7201 580.779 46.6066 580.872C46.4931 580.966 46.4078 581.089 46.3602 581.228C46.3126 581.367 46.3045 581.517 46.3368 581.661C46.3692 581.804 46.4407 581.936 46.5434 582.041C46.7547 582.255 47.0697 582.33 47.3551 582.237H47.3699L47.5849 582.213C47.8263 582.141 48.0631 582.054 48.2942 581.954C48.7397 581.775 49.2014 581.64 49.6729 581.551C49.8367 581.561 49.9939 581.616 50.1266 581.711L50.4824 581.652C51.2536 584.046 52.8754 586.074 55.041 587.352L54.8957 587.655C54.9624 587.794 54.9869 587.948 54.9669 588.101C54.7706 588.555 54.5308 588.989 54.2508 589.397C54.0972 589.6 53.9554 589.811 53.8261 590.03L53.7253 590.243C53.6521 590.37 53.6155 590.515 53.6194 590.661C53.6232 590.807 53.6675 590.95 53.7472 591.073C53.8269 591.196 53.9391 591.294 54.0712 591.358C54.2034 591.421 54.3504 591.446 54.4962 591.431C54.7949 591.398 55.0484 591.199 55.1529 590.918L55.2515 590.717C55.3419 590.479 55.4175 590.237 55.4798 589.993C55.6896 589.474 55.8037 588.918 56.0906 588.574C56.1844 588.485 56.3027 588.427 56.4301 588.407L56.608 588.083C58.9549 588.985 61.5519 588.991 63.9033 588.101L64.0611 588.404C64.2224 588.429 64.3673 588.516 64.4644 588.647C64.6875 589.072 64.8683 589.517 65.0055 589.976C65.0685 590.222 65.1463 590.465 65.236 590.701L65.3346 590.903C65.3865 591.041 65.4752 591.161 65.5911 591.25C65.7069 591.34 65.8454 591.396 65.9911 591.413C66.1368 591.429 66.2841 591.404 66.4168 591.342C66.5495 591.279 66.6624 591.182 66.7429 591.059C66.906 590.807 66.9134 590.485 66.7622 590.227L66.6584 590.013C66.5293 589.795 66.3878 589.585 66.2344 589.383C65.9617 588.986 65.7236 588.566 65.5229 588.128C65.5037 588.048 65.501 587.964 65.5147 587.883C65.5285 587.801 65.5585 587.723 65.6029 587.654C65.5522 587.55 65.5082 587.444 65.471 587.335C67.6317 586.047 69.246 584.012 70.0088 581.614L70.3454 581.674C70.4663 581.563 70.6252 581.505 70.7886 581.51C71.2593 581.6 71.7211 581.747 72.1673 581.913C72.3993 582.02 72.6365 582.11 72.8774 582.186C72.9345 582.201 73.0183 582.215 73.0813 582.23H73.0968C73.237 582.275 73.3869 582.281 73.53 582.246C73.6731 582.211 73.8036 582.137 73.9071 582.032C74.0106 581.928 74.0831 581.796 74.1163 581.653C74.1495 581.509 74.1422 581.359 74.0953 581.22C74.0474 581.081 73.9617 580.957 73.8478 580.864C73.734 580.77 73.5964 580.71 73.4504 580.691L73.2206 580.637C72.9682 580.602 72.7141 580.582 72.4594 580.577C71.9804 580.546 71.5056 580.468 71.0421 580.343C70.8992 580.263 70.7813 580.144 70.7012 580.001L70.3802 579.906C70.7217 577.414 70.1361 574.883 68.7347 572.794L69.0148 572.535C69.0037 572.372 69.0569 572.211 69.1631 572.086C69.527 571.774 69.9202 571.497 70.3372 571.261C70.5633 571.146 70.782 571.017 70.9925 570.877L71.1659 570.737C71.2617 570.677 71.3438 570.599 71.4069 570.506C71.4699 570.412 71.5125 570.307 71.5318 570.196C71.5511 570.085 71.5467 569.972 71.5189 569.863C71.491 569.754 71.4403 569.652 71.3702 569.564C71.3001 569.476 71.2121 569.404 71.1121 569.352C71.012 569.301 70.9022 569.271 70.7899 569.265C70.6776 569.259 70.5652 569.278 70.4604 569.318C70.3555 569.359 70.2605 569.421 70.1815 569.502L70.0059 569.642C69.8226 569.816 69.6493 570 69.487 570.194C69.1742 570.552 68.8273 570.879 68.4515 571.17C68.2996 571.232 68.1335 571.25 67.9719 571.222L67.6717 571.437C65.9379 569.62 63.6036 568.493 61.1021 568.267C61.1021 568.149 61.0873 567.971 61.0843 567.915C60.9494 567.823 60.8563 567.681 60.8249 567.521C60.8086 567.042 60.8388 566.563 60.9153 566.09C60.9672 565.84 61.002 565.591 61.025 565.338V565.101C61.0366 564.882 60.9615 564.667 60.8159 564.502C60.6702 564.338 60.4658 564.237 60.2467 564.222L60.2363 564.217L60.2356 564.216ZM59.246 570.346L59.0088 574.492H58.991C58.9838 574.618 58.9435 574.739 58.8743 574.844C58.805 574.949 58.7093 575.034 58.5967 575.091C58.4841 575.148 58.3575 575.172 58.2316 575.161C58.1057 575.15 57.9856 575.103 57.8851 575.026L54.4843 572.617C55.5669 571.554 56.9251 570.815 58.4055 570.482C58.6825 570.423 58.9623 570.378 59.2438 570.347H59.246V570.346ZM61.2251 570.346C63.0115 570.568 64.6749 571.371 65.9617 572.629L62.5935 575.023C62.4915 575.105 62.3687 575.156 62.2389 575.172C62.1091 575.187 61.9777 575.165 61.8596 575.109C61.7415 575.053 61.6415 574.965 61.571 574.855C61.5004 574.745 61.4623 574.618 61.4609 574.487L61.2259 570.347L61.2251 570.346ZM53.2494 574.177L56.3596 576.951V576.969C56.4543 577.052 56.5248 577.159 56.5635 577.279C56.6023 577.399 56.6079 577.527 56.5798 577.65C56.5517 577.772 56.4909 577.885 56.4039 577.976C56.3168 578.067 56.2068 578.133 56.0854 578.167V578.179L52.0946 579.326C51.8969 577.528 52.3038 575.715 53.2509 574.174L53.2494 574.177ZM67.1995 574.177C68.1446 575.713 68.5623 577.516 68.3892 579.312L64.3925 578.161V578.145C64.2706 578.112 64.1601 578.047 64.0728 577.956C63.9855 577.865 63.9248 577.752 63.8973 577.629C63.8695 577.506 63.8754 577.377 63.9143 577.257C63.9531 577.137 64.0236 577.03 64.1182 576.947L67.204 574.186L67.1995 574.177ZM59.5989 577.168H60.8708L61.6491 578.155L61.366 579.389L60.223 579.938L59.0778 579.389L58.808 578.155L59.5989 577.168V577.168ZM63.6742 580.536C63.7274 580.53 63.7811 580.53 63.8343 580.536L67.9497 581.23C67.348 582.942 66.1881 584.402 64.6563 585.375L63.0656 581.525C63.022 581.422 63.0038 581.31 63.0126 581.198C63.0214 581.086 63.0569 580.978 63.1161 580.883C63.1752 580.788 63.2564 580.708 63.3528 580.651C63.4491 580.593 63.5578 580.56 63.6698 580.554L63.6742 580.536ZM56.7629 580.554C56.8774 580.555 56.9896 580.585 57.0898 580.641C57.1899 580.696 57.275 580.775 57.3373 580.871C57.3996 580.967 57.4372 581.077 57.4469 581.191C57.4566 581.304 57.4381 581.419 57.3929 581.524V581.539L55.8126 585.358C54.2995 584.388 53.1487 582.946 52.5386 581.255L56.6183 580.564C56.6642 580.559 56.7104 580.559 56.7562 580.564L56.7636 580.554H56.7629ZM60.2097 582.214C60.4743 582.206 60.7211 582.347 60.8471 582.58H60.8619L62.8729 586.208L62.0694 586.446C60.5902 586.784 59.046 586.704 57.6094 586.216L59.627 582.587C59.6873 582.483 59.7736 582.396 59.8775 582.334C59.9813 582.273 60.0994 582.239 60.22 582.237L60.2097 582.215V582.214Z" fill="white" stroke="white" stroke-width="0.37062"/>
<path d="M41.0835 219.369H387.984V544.032C387.984 545.015 387.593 545.958 386.898 546.653C386.203 547.348 385.261 547.738 384.278 547.738H44.7897C43.8068 547.738 42.8641 547.348 42.169 546.653C41.474 545.958 41.0835 545.015 41.0835 544.032V219.369Z" fill="#EFFFBD"/>
<rect x="55" y="334" width="83" height="83" fill="#8FBE00"/>
<rect x="173" y="334" width="83" height="83" fill="#8FBE00"/>
<rect x="290" y="334" width="83" height="83" fill="#8FBE00"/>
<rect x="55" y="239" width="83" height="83" fill="#8FBE00"/>
<rect x="173" y="239" width="83" height="83" fill="#8FBE00"/>
<rect x="290" y="239" width="83" height="83" fill="#8FBE00"/>
<path d="M41.0835 429.14H387.984V544.032C387.984 545.015 387.593 545.958 386.898 546.653C386.203 547.348 385.261 547.739 384.278 547.739H44.7897C43.8068 547.739 42.8641 547.348 42.169 546.653C41.474 545.958 41.0835 545.015 41.0835 544.032V429.14Z" fill="#66E8FF"/>
<path d="M41.0835 510.677H387.984V541.809C387.984 543.382 387.359 544.89 386.247 546.002C385.135 547.114 383.627 547.739 382.054 547.739H47.0134C45.4407 547.739 43.9324 547.114 42.8203 546.002C41.7083 544.89 41.0835 543.382 41.0835 541.809V510.677Z" fill="#00A8C6"/>
<path d="M27 219.369L402.067 220.11" stroke="black" stroke-width="8.15364" stroke-dasharray="22.24 22.24"/>
<path fill-rule="evenodd" clip-rule="evenodd" d="M787.512 176.081V595.919C787.512 601.487 782.995 606 777.424 606H422.533C416.963 606 412.445 601.487 412.445 595.919V176.081C412.445 170.513 416.962 166 422.533 166H777.424C782.994 166 787.512 170.513 787.512 176.081Z" fill="#D2D2D2"/>
<path fill-rule="evenodd" clip-rule="evenodd" d="M476.784 585.838H772.984V593.577H476.784V585.838ZM476.784 573.385H772.984V581.124H476.784V573.385ZM476.784 561.525H772.984V569.264H476.784V561.525ZM426.677 179.639H772.984V187.348H426.677V179.639Z" fill="#A3A3A3"/>
<path fill-rule="evenodd" clip-rule="evenodd" d="M430.724 201.01H769.233C769.763 201.01 770.288 201.114 770.778 201.317C771.267 201.52 771.712 201.817 772.087 202.192C772.462 202.566 772.759 203.011 772.962 203.501C773.165 203.99 773.269 204.515 773.269 205.045V543.516C773.269 544.586 772.844 545.612 772.087 546.369C771.331 547.126 770.304 547.551 769.234 547.551H430.723C429.653 547.551 428.626 547.126 427.87 546.369C427.113 545.612 426.688 544.586 426.688 543.516V205.045C426.688 203.975 427.113 202.949 427.87 202.192C428.627 201.435 429.653 201.01 430.723 201.01H430.724Z" fill="#FDDFE1"/>
<path d="M445.56 559.39C445.22 559.41 444.888 559.498 444.583 559.649L431.354 565.957C431.014 566.119 430.714 566.356 430.478 566.65C430.242 566.945 430.075 567.289 429.991 567.656L426.751 581.817C426.674 582.146 426.666 582.487 426.727 582.82C426.788 583.152 426.918 583.468 427.107 583.748C427.153 583.817 427.201 583.883 427.25 583.947L436.39 595.309C436.872 595.902 437.598 596.243 438.362 596.24H453.021C453.399 596.238 453.772 596.153 454.113 595.99C454.455 595.827 454.756 595.591 454.996 595.299L464.131 583.934C464.609 583.341 464.789 582.558 464.605 581.814L461.346 567.643C461.261 567.276 461.094 566.932 460.858 566.638C460.622 566.343 460.322 566.106 459.982 565.943L446.774 559.65C446.393 559.463 445.972 559.374 445.548 559.391L445.56 559.39Z" fill="#4A4A4A"/>
<path d="M445.68 564.216C445.225 564.248 444.88 564.638 444.904 565.094V565.317C444.924 565.57 444.963 565.821 445.013 566.068C445.085 566.543 445.112 567.024 445.091 567.505C445.046 567.663 444.955 567.805 444.832 567.914L444.815 568.249C444.334 568.289 443.856 568.362 443.386 568.469C441.408 568.915 439.608 569.942 438.218 571.418L437.934 571.217C437.856 571.24 437.775 571.248 437.694 571.24C437.614 571.232 437.536 571.208 437.465 571.169C437.079 570.884 436.723 570.562 436.4 570.208C436.238 570.014 436.065 569.83 435.881 569.656L435.706 569.516C435.549 569.391 435.357 569.318 435.157 569.309C435.037 569.302 434.918 569.324 434.808 569.373C434.699 569.422 434.603 569.495 434.527 569.588C434.398 569.769 434.346 569.993 434.383 570.212C434.419 570.43 434.54 570.626 434.72 570.755L434.884 570.885C435.096 571.026 435.314 571.154 435.54 571.269C435.963 571.503 436.36 571.781 436.724 572.099C436.818 572.234 436.873 572.392 436.882 572.555L437.141 572.793C435.744 574.889 435.17 577.427 435.529 579.92L435.196 580.015C435.11 580.153 434.995 580.269 434.858 580.356C434.394 580.481 433.919 580.559 433.44 580.591C433.186 580.596 432.932 580.616 432.681 580.651L432.47 580.698H432.448C432.302 580.718 432.165 580.779 432.051 580.872C431.938 580.966 431.853 581.089 431.805 581.228C431.757 581.367 431.749 581.517 431.782 581.661C431.814 581.804 431.886 581.936 431.988 582.041C432.199 582.255 432.515 582.33 432.8 582.237H432.815L433.03 582.213C433.271 582.141 433.508 582.054 433.739 581.954C434.184 581.775 434.646 581.64 435.118 581.551C435.282 581.561 435.439 581.616 435.571 581.711L435.927 581.652C436.698 584.046 438.32 586.074 440.486 587.352L440.341 587.655C440.407 587.794 440.432 587.948 440.412 588.101C440.215 588.555 439.976 588.989 439.696 589.397C439.542 589.6 439.4 589.811 439.271 590.03L439.17 590.243C439.097 590.37 439.06 590.515 439.064 590.661C439.068 590.807 439.112 590.95 439.192 591.073C439.272 591.196 439.384 591.294 439.516 591.358C439.648 591.421 439.795 591.446 439.941 591.431C440.24 591.398 440.493 591.199 440.598 590.918L440.696 590.717C440.787 590.479 440.862 590.237 440.925 589.993C441.134 589.474 441.249 588.918 441.535 588.574C441.629 588.485 441.748 588.427 441.875 588.407L442.053 588.083C444.4 588.985 446.997 588.991 449.348 588.101L449.506 588.404C449.667 588.429 449.812 588.516 449.909 588.647C450.132 589.072 450.313 589.517 450.45 589.976C450.513 590.222 450.591 590.465 450.681 590.701L450.779 590.903C450.831 591.041 450.92 591.161 451.036 591.25C451.152 591.34 451.29 591.396 451.436 591.413C451.582 591.429 451.729 591.404 451.862 591.342C451.994 591.279 452.107 591.182 452.188 591.059C452.351 590.807 452.358 590.485 452.207 590.227L452.103 590.013C451.974 589.795 451.833 589.585 451.679 589.383C451.407 588.986 451.168 588.566 450.968 588.128C450.949 588.048 450.946 587.964 450.96 587.883C450.973 587.801 451.003 587.723 451.048 587.654C450.997 587.55 450.953 587.444 450.916 587.335C453.077 586.047 454.691 584.012 455.454 581.614L455.79 581.674C455.911 581.563 456.07 581.505 456.233 581.51C456.704 581.6 457.166 581.747 457.612 581.913C457.844 582.02 458.081 582.11 458.322 582.186C458.379 582.201 458.463 582.215 458.526 582.23H458.542C458.682 582.275 458.832 582.281 458.975 582.246C459.118 582.211 459.248 582.137 459.352 582.032C459.455 581.928 459.528 581.796 459.561 581.653C459.594 581.509 459.587 581.359 459.54 581.22C459.492 581.081 459.407 580.957 459.293 580.864C459.179 580.77 459.041 580.71 458.895 580.691L458.665 580.637C458.413 580.602 458.159 580.582 457.904 580.577C457.425 580.546 456.95 580.468 456.487 580.343C456.344 580.263 456.226 580.144 456.146 580.001L455.825 579.906C456.167 577.414 455.581 574.883 454.179 572.794L454.46 572.535C454.449 572.372 454.502 572.211 454.608 572.086C454.972 571.774 455.365 571.497 455.782 571.261C456.008 571.146 456.227 571.017 456.437 570.877L456.611 570.737C456.706 570.677 456.789 570.599 456.852 570.506C456.915 570.412 456.957 570.307 456.977 570.196C456.996 570.085 456.992 569.972 456.964 569.863C456.936 569.754 456.885 569.652 456.815 569.564C456.745 569.476 456.657 569.404 456.557 569.352C456.457 569.301 456.347 569.271 456.235 569.265C456.122 569.259 456.01 569.278 455.905 569.318C455.8 569.359 455.705 569.421 455.626 569.502L455.451 569.642C455.267 569.816 455.094 570 454.932 570.194C454.619 570.552 454.272 570.879 453.896 571.17C453.744 571.232 453.578 571.25 453.417 571.222L453.117 571.437C451.383 569.62 449.048 568.493 446.547 568.267C446.547 568.149 446.532 567.971 446.529 567.915C446.394 567.823 446.301 567.681 446.27 567.521C446.253 567.042 446.284 566.563 446.36 566.09C446.412 565.84 446.447 565.591 446.47 565.338V565.101C446.481 564.882 446.406 564.667 446.261 564.502C446.115 564.338 445.911 564.237 445.692 564.222L445.681 564.217L445.68 564.216ZM444.691 570.346L444.454 574.492H444.436C444.429 574.618 444.388 574.739 444.319 574.844C444.25 574.949 444.154 575.034 444.042 575.091C443.929 575.148 443.802 575.172 443.676 575.161C443.551 575.15 443.43 575.103 443.33 575.026L439.929 572.617C441.012 571.554 442.37 570.815 443.85 570.482C444.127 570.423 444.407 570.378 444.689 570.347H444.691V570.346ZM446.67 570.346C448.456 570.568 450.12 571.371 451.406 572.629L448.038 575.023C447.936 575.105 447.813 575.156 447.684 575.172C447.554 575.187 447.423 575.165 447.304 575.109C447.186 575.053 447.086 574.965 447.016 574.855C446.945 574.745 446.907 574.618 446.906 574.487L446.671 570.347L446.67 570.346ZM438.694 574.177L441.804 576.951V576.969C441.899 577.052 441.97 577.159 442.008 577.279C442.047 577.399 442.053 577.527 442.025 577.65C441.997 577.772 441.936 577.885 441.849 577.976C441.762 578.067 441.652 578.133 441.53 578.167V578.179L437.539 579.326C437.342 577.528 437.749 575.715 438.696 574.174L438.694 574.177ZM452.644 574.177C453.589 575.713 454.007 577.516 453.834 579.312L449.837 578.161V578.145C449.715 578.112 449.605 578.047 449.518 577.956C449.43 577.865 449.37 577.752 449.342 577.629C449.314 577.506 449.32 577.377 449.359 577.257C449.398 577.137 449.468 577.03 449.563 576.947L452.649 574.186L452.644 574.177ZM445.044 577.168H446.316L447.094 578.155L446.811 579.389L445.668 579.938L444.523 579.389L444.253 578.155L445.044 577.168V577.168ZM449.119 580.536C449.172 580.53 449.226 580.53 449.279 580.536L453.395 581.23C452.793 582.942 451.633 584.402 450.101 585.375L448.51 581.525C448.467 581.422 448.449 581.31 448.457 581.198C448.466 581.086 448.502 580.978 448.561 580.883C448.62 580.788 448.701 580.708 448.798 580.651C448.894 580.593 449.003 580.56 449.115 580.554L449.119 580.536ZM442.208 580.554C442.322 580.555 442.434 580.585 442.535 580.641C442.635 580.696 442.72 580.775 442.782 580.871C442.844 580.967 442.882 581.077 442.892 581.191C442.901 581.304 442.883 581.419 442.838 581.524V581.539L441.257 585.358C439.744 584.388 438.593 582.946 437.983 581.255L442.063 580.564C442.109 580.559 442.155 580.559 442.201 580.564L442.208 580.554H442.208ZM445.654 582.214C445.919 582.206 446.166 582.347 446.292 582.58H446.307L448.318 586.208L447.514 586.446C446.035 586.784 444.491 586.704 443.054 586.216L445.072 582.587C445.132 582.483 445.218 582.396 445.322 582.334C445.426 582.273 445.544 582.239 445.665 582.237L445.654 582.215V582.214Z" fill="white" stroke="white" stroke-width="0.37062"/>
<path d="M426.528 219.369H773.429V544.032C773.429 545.015 773.038 545.958 772.343 546.653C771.648 547.348 770.705 547.738 769.722 547.738H430.235C429.252 547.738 428.309 547.348 427.614 546.653C426.919 545.958 426.528 545.015 426.528 544.032V219.369Z" fill="#EFFFBD"/>
<path d="M426.528 429.14H773.429V544.032C773.429 545.015 773.038 545.958 772.343 546.653C771.648 547.348 770.705 547.739 769.722 547.739H430.235C429.252 547.739 428.309 547.348 427.614 546.653C426.919 545.958 426.528 545.015 426.528 544.032V429.14Z" fill="#66E8FF"/>
<path d="M426.528 510.677H773.429V541.809C773.429 543.382 772.804 544.89 771.692 546.002C770.58 547.114 769.071 547.739 767.499 547.739H432.458C430.886 547.739 429.377 547.114 428.265 546.002C427.153 544.89 426.528 543.382 426.528 541.809V510.677Z" fill="#00A8C6"/>
<path d="M412.445 219.369L787.512 220.11" stroke="black" stroke-width="8.15364" stroke-dasharray="22.24 22.24"/>
<path fill-rule="evenodd" clip-rule="evenodd" d="M1172.96 176.081V595.919C1172.96 601.487 1168.44 606 1162.87 606H807.978C802.408 606 797.89 601.487 797.89 595.919V176.081C797.89 170.513 802.407 166 807.978 166H1162.87C1168.44 166 1172.96 170.513 1172.96 176.081Z" fill="#D2D2D2"/>
<path fill-rule="evenodd" clip-rule="evenodd" d="M862.229 585.838H1158.43V593.577H862.229V585.838ZM862.229 573.385H1158.43V581.124H862.229V573.385ZM862.229 561.525H1158.43V569.264H862.229V561.525ZM812.121 179.639H1158.43V187.348H812.121V179.639Z" fill="#A3A3A3"/>
<path fill-rule="evenodd" clip-rule="evenodd" d="M816.168 201.01H1154.68C1155.21 201.01 1155.73 201.114 1156.22 201.317C1156.71 201.52 1157.16 201.817 1157.53 202.192C1157.91 202.566 1158.2 203.011 1158.41 203.501C1158.61 203.99 1158.71 204.515 1158.71 205.045V543.516C1158.71 544.586 1158.29 545.612 1157.53 546.369C1156.78 547.126 1155.75 547.551 1154.68 547.551H816.168C815.097 547.551 814.071 547.126 813.314 546.369C812.557 545.612 812.132 544.586 812.132 543.516V205.045C812.133 203.975 812.558 202.949 813.315 202.192C814.071 201.435 815.098 201.01 816.168 201.01H816.168Z" fill="#FDDFE1"/>
<path d="M831.004 559.39C830.665 559.41 830.332 559.498 830.027 559.649L816.799 565.957C816.459 566.119 816.159 566.356 815.923 566.65C815.687 566.945 815.52 567.289 815.435 567.656L812.196 581.817C812.119 582.146 812.111 582.487 812.172 582.82C812.233 583.152 812.363 583.468 812.552 583.748C812.598 583.817 812.645 583.883 812.695 583.947L821.835 595.309C822.317 595.902 823.043 596.243 823.807 596.24H838.466C838.844 596.238 839.217 596.153 839.558 595.99C839.9 595.827 840.201 595.591 840.44 595.299L849.575 583.934C850.054 583.341 850.234 582.558 850.05 581.814L846.791 567.643C846.705 567.276 846.539 566.932 846.303 566.638C846.066 566.343 845.767 566.106 845.427 565.943L832.219 559.65C831.838 559.463 831.416 559.374 830.993 559.391L831.004 559.39Z" fill="#4A4A4A"/>
<path d="M831.125 564.216C830.67 564.248 830.325 564.638 830.348 565.094V565.317C830.369 565.57 830.408 565.821 830.457 566.068C830.53 566.543 830.557 567.024 830.536 567.505C830.49 567.663 830.4 567.805 830.277 567.914L830.259 568.249C829.778 568.289 829.301 568.362 828.831 568.469C826.853 568.915 825.053 569.942 823.663 571.418L823.379 571.217C823.301 571.24 823.22 571.248 823.139 571.24C823.059 571.232 822.981 571.208 822.909 571.169C822.524 570.884 822.168 570.562 821.845 570.208C821.683 570.014 821.509 569.83 821.326 569.656L821.15 569.516C820.994 569.391 820.802 569.318 820.602 569.309C820.482 569.302 820.363 569.324 820.253 569.373C820.144 569.422 820.047 569.495 819.972 569.588C819.843 569.769 819.791 569.993 819.827 570.212C819.864 570.43 819.985 570.626 820.165 570.755L820.329 570.885C820.54 571.026 820.759 571.154 820.984 571.269C821.408 571.503 821.805 571.781 822.169 572.099C822.263 572.234 822.318 572.392 822.327 572.555L822.586 572.793C821.189 574.889 820.615 577.427 820.974 579.92L820.641 580.015C820.555 580.153 820.439 580.269 820.302 580.356C819.839 580.481 819.364 580.559 818.885 580.591C818.631 580.596 818.377 580.616 818.125 580.651L817.915 580.698H817.893C817.747 580.718 817.61 580.779 817.496 580.872C817.383 580.966 817.297 581.089 817.25 581.228C817.202 581.367 817.194 581.517 817.226 581.661C817.259 581.804 817.33 581.936 817.433 582.041C817.644 582.255 817.959 582.33 818.245 582.237H818.26L818.475 582.213C818.716 582.141 818.953 582.054 819.184 581.954C819.629 581.775 820.091 581.64 820.563 581.551C820.726 581.561 820.884 581.616 821.016 581.711L821.372 581.652C822.143 584.046 823.765 586.074 825.931 587.352L825.785 587.655C825.852 587.794 825.877 587.948 825.857 588.101C825.66 588.555 825.42 588.989 825.14 589.397C824.987 589.6 824.845 589.811 824.716 590.03L824.615 590.243C824.542 590.37 824.505 590.515 824.509 590.661C824.513 590.807 824.557 590.95 824.637 591.073C824.717 591.196 824.829 591.294 824.961 591.358C825.093 591.421 825.24 591.446 825.386 591.431C825.685 591.398 825.938 591.199 826.043 590.918L826.141 590.717C826.232 590.479 826.307 590.237 826.369 589.993C826.579 589.474 826.693 588.918 826.98 588.574C827.074 588.485 827.192 588.427 827.32 588.407L827.498 588.083C829.845 588.985 832.442 588.991 834.793 588.101L834.951 588.404C835.112 588.429 835.257 588.516 835.354 588.647C835.577 589.072 835.758 589.517 835.895 589.976C835.958 590.222 836.036 590.465 836.126 590.701L836.224 590.903C836.276 591.041 836.365 591.161 836.481 591.25C836.597 591.34 836.735 591.396 836.881 591.413C837.026 591.429 837.174 591.404 837.306 591.342C837.439 591.279 837.552 591.182 837.633 591.059C837.796 590.807 837.803 590.485 837.652 590.227L837.548 590.013C837.419 589.795 837.277 589.585 837.124 589.383C836.851 588.986 836.613 588.566 836.413 588.128C836.393 588.048 836.391 587.964 836.404 587.883C836.418 587.801 836.448 587.723 836.493 587.654C836.442 587.55 836.398 587.444 836.361 587.335C838.521 586.047 840.136 584.012 840.898 581.614L841.235 581.674C841.356 581.563 841.515 581.505 841.678 581.51C842.149 581.6 842.611 581.747 843.057 581.913C843.289 582.02 843.526 582.11 843.767 582.186C843.824 582.201 843.908 582.215 843.971 582.23H843.986C844.127 582.275 844.277 582.281 844.42 582.246C844.563 582.211 844.693 582.137 844.797 582.032C844.9 581.928 844.973 581.796 845.006 581.653C845.039 581.509 845.032 581.359 844.985 581.22C844.937 581.081 844.851 580.957 844.737 580.864C844.624 580.77 844.486 580.71 844.34 580.691L844.11 580.637C843.858 580.602 843.604 580.582 843.349 580.577C842.87 580.546 842.395 580.468 841.932 580.343C841.789 580.263 841.671 580.144 841.591 580.001L841.27 579.906C841.611 577.414 841.026 574.883 839.624 572.794L839.904 572.535C839.893 572.372 839.947 572.211 840.053 572.086C840.417 571.774 840.81 571.497 841.227 571.261C841.453 571.146 841.672 571.017 841.882 570.877L842.056 570.737C842.151 570.677 842.233 570.599 842.296 570.506C842.36 570.412 842.402 570.307 842.421 570.196C842.441 570.085 842.436 569.972 842.409 569.863C842.381 569.754 842.33 569.652 842.26 569.564C842.19 569.476 842.102 569.404 842.002 569.352C841.902 569.301 841.792 569.271 841.68 569.265C841.567 569.259 841.455 569.278 841.35 569.318C841.245 569.359 841.15 569.421 841.071 569.502L840.896 569.642C840.712 569.816 840.539 570 840.377 570.194C840.064 570.552 839.717 570.879 839.341 571.17C839.189 571.232 839.023 571.25 838.862 571.222L838.561 571.437C836.828 569.62 834.493 568.493 831.992 568.267C831.992 568.149 831.977 567.971 831.974 567.915C831.839 567.823 831.746 567.681 831.715 567.521C831.698 567.042 831.728 566.563 831.805 566.09C831.857 565.84 831.892 565.591 831.915 565.338V565.101C831.926 564.882 831.851 564.667 831.706 564.502C831.56 564.338 831.355 564.237 831.136 564.222L831.126 564.217L831.125 564.216ZM830.136 570.346L829.898 574.492H829.881C829.873 574.618 829.833 574.739 829.764 574.844C829.695 574.949 829.599 575.034 829.486 575.091C829.374 575.148 829.247 575.172 829.121 575.161C828.995 575.15 828.875 575.103 828.775 575.026L825.374 572.617C826.457 571.554 827.815 570.815 829.295 570.482C829.572 570.423 829.852 570.378 830.133 570.347H830.136V570.346ZM832.115 570.346C833.901 570.568 835.565 571.371 836.851 572.629L833.483 575.023C833.381 575.105 833.258 575.156 833.129 575.172C832.999 575.187 832.867 575.165 832.749 575.109C832.631 575.053 832.531 574.965 832.461 574.855C832.39 574.745 832.352 574.618 832.351 574.487L832.116 570.347L832.115 570.346ZM824.139 574.177L827.249 576.951V576.969C827.344 577.052 827.414 577.159 827.453 577.279C827.492 577.399 827.498 577.527 827.469 577.65C827.441 577.772 827.381 577.885 827.294 577.976C827.206 578.067 827.096 578.133 826.975 578.167V578.179L822.984 579.326C822.787 577.528 823.193 575.715 824.141 574.174L824.139 574.177ZM838.089 574.177C839.034 575.713 839.452 577.516 839.279 579.312L835.282 578.161V578.145C835.16 578.112 835.05 578.047 834.962 577.956C834.875 577.865 834.814 577.752 834.787 577.629C834.759 577.506 834.765 577.377 834.804 577.257C834.843 577.137 834.913 577.03 835.008 576.947L838.094 574.186L838.089 574.177ZM830.489 577.168H831.76L832.539 578.155L832.256 579.389L831.113 579.938L829.967 579.389L829.698 578.155L830.489 577.168V577.168ZM834.564 580.536C834.617 580.53 834.671 580.53 834.724 580.536L838.839 581.23C838.238 582.942 837.078 584.402 835.546 585.375L833.955 581.525C833.912 581.422 833.893 581.31 833.902 581.198C833.911 581.086 833.947 580.978 834.006 580.883C834.065 580.788 834.146 580.708 834.242 580.651C834.339 580.593 834.447 580.56 834.559 580.554L834.564 580.536ZM827.653 580.554C827.767 580.555 827.879 580.585 827.979 580.641C828.08 580.696 828.165 580.775 828.227 580.871C828.289 580.967 828.327 581.077 828.337 581.191C828.346 581.304 828.328 581.419 828.283 581.524V581.539L826.702 585.358C825.189 584.388 824.038 582.946 823.428 581.255L827.508 580.564C827.554 580.559 827.6 580.559 827.646 580.564L827.653 580.554H827.653ZM831.099 582.214C831.364 582.206 831.611 582.347 831.737 582.58H831.752L833.763 586.208L832.959 586.446C831.48 586.784 829.936 586.704 828.499 586.216L830.517 582.587C830.577 582.483 830.663 582.396 830.767 582.334C830.871 582.273 830.989 582.239 831.11 582.237L831.099 582.215V582.214Z" fill="white" stroke="white" stroke-width="0.37062"/>
<path d="M811.973 219.369H1158.87V544.032C1158.87 545.015 1158.48 545.958 1157.79 546.653C1157.09 547.348 1156.15 547.738 1155.17 547.738H815.679C814.696 547.738 813.754 547.348 813.059 546.653C812.364 545.958 811.973 545.015 811.973 544.032V219.369Z" fill="#EFFFBD"/>
<path d="M811.973 429.14H1158.87V544.032C1158.87 545.015 1158.48 545.958 1157.79 546.653C1157.09 547.348 1156.15 547.739 1155.17 547.739H815.679C814.696 547.739 813.754 547.348 813.059 546.653C812.364 545.958 811.973 545.015 811.973 544.032V429.14Z" fill="#66E8FF"/>
<path d="M811.973 510.677H1158.87V541.809C1158.87 543.382 1158.25 544.89 1157.14 546.002C1156.02 547.114 1154.52 547.739 1152.94 547.739H817.903C816.33 547.739 814.822 547.114 813.71 546.002C812.598 544.89 811.973 543.382 811.973 541.809V510.677Z" fill="#00A8C6"/>
<path d="M797.89 219.369L1172.96 220.11" stroke="black" stroke-width="8.15364" stroke-dasharray="22.24 22.24"/>
<rect x="441" y="334" width="83" height="83" fill="#8FBE00"/>
<rect x="559" y="334" width="83" height="83" fill="#8FBE00"/>
<rect x="827" y="239" width="318" height="178" fill="#C1CF97"/>
<path d="M912.934 344H917.04V337.703H920.491C924.958 337.703 927.556 335.039 927.556 331.16C927.556 327.301 925.005 324.579 920.596 324.579H912.934V344ZM917.04 334.413V327.936H919.809C922.179 327.936 923.327 329.226 923.327 331.16C923.327 333.085 922.179 334.413 919.828 334.413H917.04ZM933.551 324.579H929.512V344H933.551V324.579ZM940.305 344.275C942.457 344.275 943.851 343.336 944.563 341.98H944.676V344H948.507V334.176C948.507 330.705 945.568 329.245 942.325 329.245C938.835 329.245 936.54 330.914 935.981 333.569L939.717 333.872C939.992 332.905 940.855 332.194 942.306 332.194C943.681 332.194 944.468 332.886 944.468 334.081V334.138C944.468 335.077 943.472 335.2 940.94 335.447C938.057 335.712 935.469 336.679 935.469 339.932C935.469 342.815 937.526 344.275 940.305 344.275ZM941.462 341.487C940.22 341.487 939.328 340.909 939.328 339.799C939.328 338.661 940.267 338.102 941.689 337.903C942.571 337.779 944.013 337.571 944.496 337.248V338.794C944.496 340.321 943.235 341.487 941.462 341.487ZM957.587 344.284C961.465 344.284 963.902 342.009 964.092 338.661H960.28C960.043 340.216 959.019 341.089 957.634 341.089C955.747 341.089 954.524 339.505 954.524 336.717C954.524 333.967 955.757 332.393 957.634 332.393C959.114 332.393 960.062 333.37 960.28 334.821H964.092C963.921 331.454 961.37 329.245 957.568 329.245C953.149 329.245 950.418 332.308 950.418 336.774C950.418 341.203 953.101 344.284 957.587 344.284ZM972.681 344.284C976.284 344.284 978.712 342.53 979.281 339.828L975.544 339.581C975.137 340.69 974.094 341.269 972.747 341.269C970.727 341.269 969.447 339.932 969.447 337.76V337.751H979.366V336.641C979.366 331.691 976.369 329.245 972.519 329.245C968.233 329.245 965.455 332.289 965.455 336.784C965.455 341.402 968.195 344.284 972.681 344.284ZM969.447 335.247C969.532 333.588 970.794 332.26 972.586 332.26C974.34 332.26 975.554 333.512 975.563 335.247H969.447ZM985.406 335.579C985.416 333.702 986.563 332.602 988.213 332.602C989.854 332.602 990.821 333.654 990.811 335.447V344H994.851V334.726C994.861 331.312 992.85 329.245 989.816 329.245C987.606 329.245 986.127 330.288 985.463 332.004H985.292V324.579H981.366V344H985.406V335.579ZM1003.98 344.284C1008.39 344.284 1011.14 341.259 1011.14 336.774C1011.14 332.26 1008.39 329.245 1003.98 329.245C999.556 329.245 996.806 332.26 996.806 336.774C996.806 341.259 999.556 344.284 1003.98 344.284ZM1003.99 341.155C1001.96 341.155 1000.91 339.287 1000.91 336.746C1000.91 334.204 1001.96 332.327 1003.99 332.327C1006 332.327 1007.04 334.204 1007.04 336.746C1007.04 339.287 1006 341.155 1003.99 341.155ZM1017.18 324.579H1013.14V344H1017.18V324.579ZM1025.14 344.237C1027.49 344.237 1028.72 342.881 1029.28 341.667H1029.45V344H1033.43V324.579H1029.4V331.881H1029.28C1028.74 330.696 1027.57 329.245 1025.13 329.245C1021.94 329.245 1019.23 331.729 1019.23 336.736C1019.23 341.61 1021.82 344.237 1025.14 344.237ZM1026.42 341.022C1024.44 341.022 1023.36 339.259 1023.36 336.717C1023.36 334.195 1024.42 332.459 1026.42 332.459C1028.39 332.459 1029.49 334.119 1029.49 336.717C1029.49 339.315 1028.37 341.022 1026.42 341.022ZM1042.75 344.284C1046.36 344.284 1048.79 342.53 1049.35 339.828L1045.62 339.581C1045.21 340.69 1044.17 341.269 1042.82 341.269C1040.8 341.269 1039.52 339.932 1039.52 337.76V337.751H1049.44V336.641C1049.44 331.691 1046.44 329.245 1042.59 329.245C1038.31 329.245 1035.53 332.289 1035.53 336.784C1035.53 341.402 1038.27 344.284 1042.75 344.284ZM1039.52 335.247C1039.61 333.588 1040.87 332.26 1042.66 332.26C1044.41 332.26 1045.63 333.512 1045.64 335.247H1039.52ZM1051.44 344H1055.48V335.759C1055.48 333.967 1056.79 332.734 1058.57 332.734C1059.13 332.734 1059.9 332.829 1060.28 332.953V329.368C1059.92 329.283 1059.41 329.226 1059.01 329.226C1057.38 329.226 1056.04 330.174 1055.51 331.976H1055.36V329.434H1051.44V344Z" fill="black"/>
</svg>
