<svg width="1200" height="900" viewBox="0 0 1200 900" fill="none" xmlns="http://www.w3.org/2000/svg">
<rect width="1200" height="900" fill="white"/>
<path d="M77.321 444V371.273H106.014C111.53 371.273 116.23 372.326 120.112 374.433C123.995 376.517 126.954 379.417 128.99 383.134C131.05 386.827 132.08 391.088 132.08 395.918C132.08 400.747 131.038 405.009 128.955 408.702C126.871 412.395 123.853 415.271 119.899 417.331C115.969 419.391 111.211 420.42 105.624 420.42H87.3352V408.098H103.138C106.097 408.098 108.536 407.589 110.453 406.571C112.394 405.529 113.839 404.097 114.786 402.274C115.756 400.428 116.241 398.309 116.241 395.918C116.241 393.503 115.756 391.396 114.786 389.597C113.839 387.774 112.394 386.365 110.453 385.371C108.512 384.353 106.05 383.844 103.067 383.844H92.6974V444H77.321ZM139.151 444V389.455H153.818V398.972H154.386C155.38 395.586 157.049 393.029 159.393 391.301C161.737 389.549 164.436 388.673 167.49 388.673C168.247 388.673 169.064 388.721 169.94 388.815C170.816 388.91 171.585 389.04 172.248 389.206V402.629C171.538 402.416 170.555 402.227 169.301 402.061C168.046 401.895 166.898 401.812 165.856 401.812C163.631 401.812 161.642 402.298 159.89 403.268C158.162 404.215 156.789 405.541 155.771 407.246C154.776 408.95 154.279 410.915 154.279 413.141V444H139.151ZM199.544 445.065C194.028 445.065 189.257 443.893 185.233 441.55C181.232 439.182 178.142 435.892 175.964 431.678C173.786 427.44 172.697 422.527 172.697 416.94C172.697 411.306 173.786 406.382 175.964 402.168C178.142 397.93 181.232 394.639 185.233 392.295C189.257 389.928 194.028 388.744 199.544 388.744C205.06 388.744 209.818 389.928 213.819 392.295C217.844 394.639 220.945 397.93 223.123 402.168C225.301 406.382 226.39 411.306 226.39 416.94C226.39 422.527 225.301 427.44 223.123 431.678C220.945 435.892 217.844 439.182 213.819 441.55C209.818 443.893 205.06 445.065 199.544 445.065ZM199.615 433.347C202.124 433.347 204.219 432.636 205.9 431.216C207.581 429.772 208.848 427.807 209.7 425.321C210.576 422.835 211.014 420.006 211.014 416.834C211.014 413.661 210.576 410.832 209.7 408.347C208.848 405.861 207.581 403.896 205.9 402.452C204.219 401.008 202.124 400.286 199.615 400.286C197.082 400.286 194.951 401.008 193.223 402.452C191.518 403.896 190.228 405.861 189.352 408.347C188.5 410.832 188.073 413.661 188.073 416.834C188.073 420.006 188.5 422.835 189.352 425.321C190.228 427.807 191.518 429.772 193.223 431.216C194.951 432.636 197.082 433.347 199.615 433.347ZM249.149 445.03C245.669 445.03 242.568 444.426 239.845 443.219C237.123 441.988 234.968 440.177 233.382 437.786C231.82 435.371 231.039 432.364 231.039 428.766C231.039 425.735 231.595 423.19 232.708 421.131C233.82 419.071 235.335 417.414 237.253 416.159C239.171 414.904 241.349 413.957 243.787 413.318C246.249 412.679 248.83 412.229 251.529 411.969C254.701 411.637 257.258 411.33 259.199 411.045C261.14 410.738 262.549 410.288 263.425 409.696C264.301 409.104 264.739 408.228 264.739 407.068V406.855C264.739 404.606 264.029 402.866 262.608 401.635C261.211 400.404 259.223 399.788 256.642 399.788C253.92 399.788 251.753 400.392 250.144 401.599C248.534 402.783 247.468 404.275 246.948 406.074L232.956 404.938C233.666 401.623 235.063 398.759 237.146 396.344C239.23 393.905 241.917 392.035 245.208 390.733C248.522 389.407 252.357 388.744 256.713 388.744C259.744 388.744 262.644 389.099 265.414 389.81C268.207 390.52 270.681 391.621 272.835 393.112C275.013 394.604 276.73 396.521 277.985 398.865C279.239 401.185 279.867 403.967 279.867 407.21V444H265.52V436.436H265.094C264.218 438.141 263.046 439.644 261.578 440.946C260.11 442.224 258.347 443.231 256.287 443.964C254.227 444.675 251.848 445.03 249.149 445.03ZM253.482 434.589C255.707 434.589 257.672 434.152 259.377 433.276C261.081 432.376 262.419 431.169 263.389 429.653C264.36 428.138 264.845 426.422 264.845 424.504V418.716C264.372 419.024 263.721 419.308 262.892 419.568C262.087 419.805 261.176 420.03 260.158 420.243C259.14 420.432 258.122 420.61 257.104 420.776C256.086 420.918 255.163 421.048 254.334 421.166C252.558 421.427 251.008 421.841 249.682 422.409C248.356 422.977 247.326 423.747 246.592 424.717C245.859 425.664 245.492 426.848 245.492 428.268C245.492 430.328 246.237 431.902 247.729 432.991C249.244 434.057 251.162 434.589 253.482 434.589ZM313.616 445.065C308.029 445.065 303.223 443.882 299.199 441.514C295.198 439.123 292.12 435.809 289.966 431.571C287.835 427.333 286.77 422.456 286.77 416.94C286.77 411.353 287.847 406.453 290.001 402.239C292.179 398.001 295.269 394.698 299.27 392.331C303.271 389.94 308.029 388.744 313.545 388.744C318.304 388.744 322.471 389.608 326.045 391.337C329.62 393.065 332.449 395.491 334.533 398.616C336.616 401.741 337.764 405.411 337.977 409.625H323.702C323.299 406.902 322.234 404.713 320.506 403.055C318.801 401.375 316.564 400.534 313.794 400.534C311.45 400.534 309.402 401.173 307.651 402.452C305.922 403.706 304.573 405.541 303.602 407.956C302.632 410.371 302.146 413.295 302.146 416.727C302.146 420.207 302.62 423.167 303.567 425.605C304.537 428.044 305.899 429.902 307.651 431.18C309.402 432.459 311.45 433.098 313.794 433.098C315.522 433.098 317.073 432.743 318.446 432.033C319.843 431.322 320.991 430.293 321.891 428.943C322.814 427.57 323.418 425.925 323.702 424.007H337.977C337.74 428.174 336.604 431.843 334.568 435.016C332.556 438.164 329.774 440.626 326.223 442.402C322.672 444.178 318.47 445.065 313.616 445.065ZM374.044 389.455V400.818H341.196V389.455H374.044ZM348.654 376.386H363.781V427.239C363.781 428.635 363.994 429.724 364.421 430.506C364.847 431.263 365.439 431.796 366.196 432.104C366.977 432.411 367.877 432.565 368.895 432.565C369.605 432.565 370.315 432.506 371.026 432.388C371.736 432.246 372.28 432.139 372.659 432.068L375.038 443.325C374.281 443.562 373.216 443.834 371.842 444.142C370.469 444.473 368.8 444.675 366.835 444.746C363.19 444.888 359.993 444.402 357.247 443.29C354.525 442.177 352.406 440.449 350.891 438.105C349.376 435.761 348.63 432.802 348.654 429.227V376.386ZM381.267 444V389.455H396.395V444H381.267ZM388.866 382.423C386.617 382.423 384.688 381.678 383.078 380.186C381.492 378.671 380.699 376.86 380.699 374.753C380.699 372.67 381.492 370.882 383.078 369.391C384.688 367.875 386.617 367.118 388.866 367.118C391.115 367.118 393.033 367.875 394.619 369.391C396.229 370.882 397.034 372.67 397.034 374.753C397.034 376.86 396.229 378.671 394.619 380.186C393.033 381.678 391.115 382.423 388.866 382.423ZM456.734 389.455L437.664 444H420.619L401.549 389.455H417.529L428.857 428.482H429.426L440.718 389.455H456.734ZM484.944 445.065C479.333 445.065 474.503 443.929 470.455 441.656C466.431 439.36 463.329 436.116 461.151 431.926C458.973 427.712 457.884 422.729 457.884 416.976C457.884 411.365 458.973 406.441 461.151 402.203C463.329 397.965 466.395 394.663 470.349 392.295C474.326 389.928 478.99 388.744 484.34 388.744C487.939 388.744 491.289 389.324 494.39 390.484C497.515 391.621 500.237 393.337 502.557 395.634C504.901 397.93 506.724 400.818 508.026 404.298C509.328 407.755 509.979 411.803 509.979 416.443V420.598H463.921V411.223H495.739C495.739 409.045 495.266 407.116 494.319 405.435C493.372 403.754 492.058 402.44 490.377 401.493C488.72 400.522 486.79 400.037 484.589 400.037C482.292 400.037 480.256 400.57 478.481 401.635C476.729 402.677 475.356 404.085 474.361 405.861C473.367 407.613 472.858 409.566 472.834 411.72V420.634C472.834 423.332 473.332 425.664 474.326 427.629C475.344 429.594 476.776 431.109 478.623 432.175C480.469 433.24 482.659 433.773 485.192 433.773C486.873 433.773 488.412 433.536 489.809 433.062C491.206 432.589 492.401 431.879 493.396 430.932C494.39 429.985 495.147 428.825 495.668 427.452L509.66 428.375C508.949 431.737 507.494 434.672 505.292 437.182C503.114 439.668 500.297 441.609 496.84 443.006C493.407 444.379 489.442 445.065 484.944 445.065ZM583.116 405.009L569.267 405.861C569.03 404.677 568.521 403.612 567.74 402.665C566.959 401.694 565.929 400.925 564.65 400.357C563.396 399.765 561.892 399.469 560.141 399.469C557.797 399.469 555.82 399.966 554.21 400.96C552.6 401.931 551.795 403.233 551.795 404.866C551.795 406.169 552.316 407.269 553.358 408.169C554.4 409.069 556.187 409.791 558.72 410.335L568.592 412.324C573.895 413.413 577.849 415.165 580.453 417.58C583.057 419.994 584.359 423.167 584.359 427.097C584.359 430.671 583.306 433.808 581.199 436.507C579.115 439.206 576.251 441.313 572.605 442.828C568.983 444.32 564.804 445.065 560.07 445.065C552.849 445.065 547.096 443.562 542.811 440.555C538.55 437.525 536.052 433.406 535.318 428.197L550.197 427.416C550.647 429.618 551.736 431.299 553.464 432.459C555.193 433.595 557.406 434.163 560.105 434.163C562.757 434.163 564.887 433.654 566.497 432.636C568.131 431.595 568.959 430.257 568.983 428.624C568.959 427.25 568.379 426.126 567.243 425.25C566.106 424.35 564.355 423.664 561.987 423.19L552.541 421.308C547.214 420.243 543.249 418.396 540.645 415.768C538.064 413.141 536.774 409.791 536.774 405.719C536.774 402.215 537.721 399.196 539.615 396.663C541.533 394.13 544.22 392.177 547.676 390.804C551.156 389.431 555.228 388.744 559.892 388.744C566.781 388.744 572.203 390.2 576.156 393.112C580.133 396.024 582.453 399.99 583.116 405.009ZM615.898 445.065C610.311 445.065 605.506 443.882 601.481 441.514C597.48 439.123 594.402 435.809 592.248 431.571C590.117 427.333 589.052 422.456 589.052 416.94C589.052 411.353 590.129 406.453 592.283 402.239C594.461 398.001 597.551 394.698 601.552 392.331C605.553 389.94 610.311 388.744 615.827 388.744C620.586 388.744 624.753 389.608 628.327 391.337C631.902 393.065 634.731 395.491 636.815 398.616C638.898 401.741 640.046 405.411 640.259 409.625H625.984C625.581 406.902 624.516 404.713 622.788 403.055C621.083 401.375 618.846 400.534 616.076 400.534C613.732 400.534 611.684 401.173 609.933 402.452C608.204 403.706 606.855 405.541 605.884 407.956C604.914 410.371 604.428 413.295 604.428 416.727C604.428 420.207 604.902 423.167 605.849 425.605C606.819 428.044 608.181 429.902 609.933 431.18C611.684 432.459 613.732 433.098 616.076 433.098C617.804 433.098 619.355 432.743 620.728 432.033C622.125 431.322 623.273 430.293 624.173 428.943C625.096 427.57 625.7 425.925 625.984 424.007H640.259C640.023 428.174 638.886 431.843 636.85 435.016C634.838 438.164 632.056 440.626 628.505 442.402C624.954 444.178 620.752 445.065 615.898 445.065ZM662.867 445.03C659.387 445.03 656.286 444.426 653.563 443.219C650.841 441.988 648.687 440.177 647.1 437.786C645.538 435.371 644.757 432.364 644.757 428.766C644.757 425.735 645.313 423.19 646.426 421.131C647.538 419.071 649.054 417.414 650.971 416.159C652.889 414.904 655.067 413.957 657.505 413.318C659.967 412.679 662.548 412.229 665.247 411.969C668.419 411.637 670.976 411.33 672.917 411.045C674.858 410.738 676.267 410.288 677.143 409.696C678.019 409.104 678.457 408.228 678.457 407.068V406.855C678.457 404.606 677.747 402.866 676.326 401.635C674.929 400.404 672.941 399.788 670.36 399.788C667.638 399.788 665.472 400.392 663.862 401.599C662.252 402.783 661.187 404.275 660.666 406.074L646.674 404.938C647.385 401.623 648.781 398.759 650.865 396.344C652.948 393.905 655.635 392.035 658.926 390.733C662.24 389.407 666.075 388.744 670.431 388.744C673.462 388.744 676.362 389.099 679.132 389.81C681.925 390.52 684.399 391.621 686.554 393.112C688.732 394.604 690.448 396.521 691.703 398.865C692.957 401.185 693.585 403.967 693.585 407.21V444H679.238V436.436H678.812C677.936 438.141 676.764 439.644 675.296 440.946C673.829 442.224 672.065 443.231 670.005 443.964C667.946 444.675 665.566 445.03 662.867 445.03ZM667.2 434.589C669.425 434.589 671.39 434.152 673.095 433.276C674.799 432.376 676.137 431.169 677.108 429.653C678.078 428.138 678.563 426.422 678.563 424.504V418.716C678.09 419.024 677.439 419.308 676.61 419.568C675.805 419.805 674.894 420.03 673.876 420.243C672.858 420.432 671.84 420.61 670.822 420.776C669.804 420.918 668.881 421.048 668.052 421.166C666.277 421.427 664.726 421.841 663.4 422.409C662.074 422.977 661.045 423.747 660.311 424.717C659.577 425.664 659.21 426.848 659.21 428.268C659.21 430.328 659.956 431.902 661.447 432.991C662.962 434.057 664.88 434.589 667.2 434.589ZM717.818 371.273V444H702.69V371.273H717.818ZM727.304 444V389.455H742.432V444H727.304ZM734.904 382.423C732.655 382.423 730.725 381.678 729.115 380.186C727.529 378.671 726.736 376.86 726.736 374.753C726.736 372.67 727.529 370.882 729.115 369.391C730.725 367.875 732.655 367.118 734.904 367.118C737.153 367.118 739.07 367.875 740.656 369.391C742.266 370.882 743.071 372.67 743.071 374.753C743.071 376.86 742.266 378.671 740.656 380.186C739.07 381.678 737.153 382.423 734.904 382.423ZM767.047 412.466V444H751.919V389.455H766.336V399.078H766.976C768.183 395.906 770.207 393.396 773.048 391.55C775.889 389.679 779.333 388.744 783.382 388.744C787.17 388.744 790.472 389.573 793.289 391.23C796.107 392.887 798.297 395.255 799.859 398.332C801.422 401.386 802.203 405.032 802.203 409.27V444H787.075V411.969C787.099 408.631 786.246 406.027 784.518 404.156C782.79 402.262 780.411 401.315 777.38 401.315C775.344 401.315 773.545 401.753 771.983 402.629C770.444 403.505 769.236 404.784 768.36 406.464C767.508 408.122 767.07 410.122 767.047 412.466ZM836.068 465.591C831.167 465.591 826.965 464.916 823.461 463.567C819.981 462.241 817.211 460.43 815.152 458.134C813.092 455.837 811.755 453.257 811.139 450.392L825.131 448.51C825.557 449.599 826.231 450.617 827.155 451.564C828.078 452.511 829.297 453.268 830.812 453.837C832.351 454.429 834.221 454.724 836.423 454.724C839.714 454.724 842.425 453.92 844.555 452.31C846.71 450.723 847.787 448.06 847.787 444.32V434.341H847.148C846.485 435.856 845.49 437.288 844.165 438.638C842.839 439.987 841.134 441.088 839.051 441.94C836.968 442.793 834.482 443.219 831.594 443.219C827.498 443.219 823.769 442.272 820.407 440.378C817.069 438.46 814.406 435.536 812.417 431.607C810.452 427.653 809.47 422.658 809.47 416.621C809.47 410.442 810.476 405.281 812.488 401.138C814.501 396.995 817.176 393.893 820.514 391.834C823.876 389.774 827.557 388.744 831.558 388.744C834.612 388.744 837.169 389.265 839.229 390.307C841.288 391.325 842.945 392.603 844.2 394.142C845.479 395.657 846.461 397.149 847.148 398.616H847.716V389.455H862.737V444.533C862.737 449.173 861.601 453.055 859.328 456.18C857.055 459.305 853.907 461.649 849.882 463.212C845.881 464.798 841.276 465.591 836.068 465.591ZM836.388 431.855C838.826 431.855 840.886 431.251 842.567 430.044C844.271 428.813 845.573 427.061 846.473 424.788C847.396 422.492 847.858 419.746 847.858 416.55C847.858 413.354 847.408 410.584 846.508 408.24C845.609 405.873 844.307 404.038 842.602 402.736C840.898 401.434 838.826 400.783 836.388 400.783C833.902 400.783 831.807 401.457 830.102 402.807C828.398 404.133 827.107 405.979 826.231 408.347C825.355 410.714 824.917 413.448 824.917 416.55C824.917 419.698 825.355 422.421 826.231 424.717C827.131 426.99 828.421 428.754 830.102 430.009C831.807 431.24 833.902 431.855 836.388 431.855Z" fill="black"/>
<rect x="71" y="498" width="1038" height="19" fill="black"/>
</svg>
