<svg width="1200" height="900" viewBox="0 0 1200 900" fill="none" xmlns="http://www.w3.org/2000/svg">
<path fill-rule="evenodd" clip-rule="evenodd" d="M853 166.6V733C853 740.511 846.906 746.6 839.39 746.6H360.61C353.095 746.6 347 740.511 347 733V166.6C347 159.089 353.094 153 360.61 153H839.39C846.905 153 853 159.089 853 166.6Z" fill="#D2D2D2"/>
<path d="M327.812 489.613C323.572 489.613 319.892 489.213 316.769 488.41C313.647 487.608 311.069 486.305 309.035 484.5C307.001 482.695 305.49 480.296 304.501 477.303C303.513 474.309 303.019 470.621 303.019 466.238V381.863C303.019 377.28 302.059 373.986 300.14 371.98C298.22 369.975 294.84 368.973 290 368.973V356.598C294.84 356.598 298.22 355.602 300.14 353.611C302.06 351.621 303.019 348.319 303.019 343.707V283.375C303.019 278.992 303.513 275.304 304.501 272.311C305.49 269.317 307.001 266.918 309.035 265.113C311.069 263.309 313.647 262.005 316.769 261.203C319.891 260.401 323.572 260 327.812 260V270.184C324.489 270.184 321.897 270.671 320.035 271.644C318.173 272.618 316.876 274.13 316.146 276.178C315.416 278.226 315.05 280.84 315.05 284.02V347.66C315.05 349.866 314.72 351.907 314.062 353.783C313.403 355.66 312.186 357.285 310.41 358.66C308.634 360.035 306.098 361.11 302.804 361.883C302.518 361.95 302.224 362.014 301.923 362.076L301.903 362.081V363.516L301.923 363.52C302.073 363.55 302.223 363.58 302.369 363.612L302.804 363.709C306.098 364.469 308.634 365.542 310.41 366.932C312.186 368.321 313.403 369.954 314.062 371.83C314.721 373.706 315.05 375.747 315.05 377.953V465.593C315.05 468.745 315.416 471.344 316.146 473.393C316.876 475.441 318.173 476.959 320.035 477.947C321.897 478.936 324.489 479.43 327.812 479.43V489.613Z" fill="#B5B5B5" fill-opacity="0.85"/>
<path d="M46.0355 365.338C51.5412 365.338 55.2841 361.752 55.272 356.754C55.2841 352.021 51.9759 348.616 47.5206 348.616C45.3473 348.616 43.4759 349.521 42.6065 350.741H42.4616L43.1016 344.547H53.9077V340.273H38.7912L37.62 353.312L42.2685 354.146C43.0291 353.119 44.5021 352.479 45.9631 352.479C48.4503 352.491 50.2372 354.29 50.2372 356.886C50.2372 359.458 48.4865 361.233 46.0355 361.233C43.9588 361.233 42.2805 359.929 42.1598 358.009H37.0888C37.1854 362.283 40.9162 365.338 46.0355 365.338ZM60.1893 365.314C61.7348 365.314 63.075 364.022 63.0871 362.416C63.075 360.835 61.7348 359.543 60.1893 359.543C58.5956 359.543 57.2795 360.835 57.2916 362.416C57.2795 364.022 58.5956 365.314 60.1893 365.314ZM74.7235 339.935C69.1937 339.911 65.4628 343.533 65.487 348.507C65.4991 353.119 68.6986 356.464 73.0814 356.464C75.7981 356.464 78.2128 355.148 79.3116 352.974H79.4806C79.4685 357.876 77.7661 360.859 74.5424 360.859C72.6468 360.859 71.2824 359.82 70.884 358.021H65.7285C66.2114 362.187 69.5921 365.338 74.5424 365.338C80.6638 365.338 84.612 360.388 84.5999 351.996C84.5878 343.038 79.8066 339.959 74.7235 339.935ZM74.7597 344.04C77.1624 344.04 78.9373 345.996 78.9614 348.35C78.9735 350.717 77.102 352.673 74.7114 352.673C72.2966 352.673 70.5701 350.789 70.558 348.362C70.5339 345.947 72.3329 344.04 74.7597 344.04ZM103.743 348.266H109.056C108.38 343.376 104.069 339.935 98.4791 339.935C91.9471 339.935 86.9123 344.643 86.9123 352.661C86.9123 360.484 91.6211 365.338 98.5877 365.338C104.83 365.338 109.285 361.39 109.285 354.882V351.767H98.9379V355.703H104.25C104.178 358.77 102.089 360.714 98.6119 360.714C94.6879 360.714 92.2127 357.78 92.2127 352.612C92.2127 347.469 94.7845 344.559 98.5636 344.559C101.256 344.559 103.079 345.947 103.743 348.266ZM112.192 365H122.757C128.311 365 131.269 362.102 131.269 358.166C131.269 354.508 128.649 352.298 125.836 352.165V351.924C128.407 351.344 130.303 349.521 130.303 346.612C130.303 342.905 127.55 340.273 122.093 340.273H112.192V365ZM117.42 360.726V354.158H121.803C124.314 354.158 125.872 355.607 125.872 357.647C125.872 359.506 124.604 360.726 121.682 360.726H117.42ZM117.42 350.62V344.499H121.392C123.711 344.499 125.027 345.694 125.027 347.481C125.027 349.437 123.433 350.62 121.296 350.62H117.42ZM140.403 365H145.547V353.868C145.547 351.815 146.851 350.451 148.565 350.451C150.256 350.451 151.39 351.61 151.39 353.433V365H156.377V353.675C156.377 351.755 157.476 350.451 159.347 350.451C160.989 350.451 162.221 351.477 162.221 353.542V365H167.352V352.528C167.352 348.507 164.961 346.213 161.508 346.213C158.792 346.213 156.679 347.602 155.918 349.727H155.725C155.133 347.577 153.238 346.213 150.69 346.213C148.191 346.213 146.295 347.541 145.523 349.727H145.305V346.455H140.403V365ZM178.847 365.362C183.435 365.362 186.526 363.129 187.25 359.688L182.493 359.374C181.974 360.786 180.646 361.523 178.931 361.523C176.359 361.523 174.729 359.82 174.729 357.055V357.043H187.359V355.631C187.359 349.328 183.543 346.213 178.641 346.213C173.184 346.213 169.646 350.089 169.646 355.812C169.646 361.692 173.136 365.362 178.847 365.362ZM174.729 353.856C174.838 351.743 176.444 350.053 178.726 350.053C180.96 350.053 182.505 351.646 182.517 353.856H174.729ZM189.695 365H194.839V353.868C194.839 351.815 196.143 350.451 197.857 350.451C199.548 350.451 200.683 351.61 200.683 353.433V365H205.669V353.675C205.669 351.755 206.768 350.451 208.639 350.451C210.281 350.451 211.513 351.477 211.513 353.542V365H216.644V352.528C216.644 348.507 214.254 346.213 210.8 346.213C208.084 346.213 205.971 347.602 205.21 349.727H205.017C204.425 347.577 202.53 346.213 199.982 346.213C197.483 346.213 195.587 347.541 194.815 349.727H194.597V346.455H189.695V365ZM228.066 365.362C233.693 365.362 237.194 361.511 237.194 355.8C237.194 350.053 233.693 346.213 228.066 346.213C222.44 346.213 218.938 350.053 218.938 355.8C218.938 361.511 222.44 365.362 228.066 365.362ZM228.09 361.378C225.495 361.378 224.166 358.999 224.166 355.763C224.166 352.528 225.495 350.137 228.09 350.137C230.638 350.137 231.966 352.528 231.966 355.763C231.966 358.999 230.638 361.378 228.09 361.378ZM239.519 365H244.662V354.508C244.662 352.226 246.328 350.656 248.598 350.656C249.31 350.656 250.288 350.777 250.771 350.934V346.37C250.313 346.261 249.673 346.189 249.154 346.189C247.077 346.189 245.374 347.396 244.698 349.69H244.505V346.455H239.519V365ZM256.151 371.955C259.978 371.955 262.006 369.999 263.057 367.004L270.265 346.479L264.82 346.455L260.944 360.074H260.751L256.911 346.455H251.502L258.155 365.531L257.853 366.316C257.177 368.055 255.885 368.139 254.074 367.584L252.915 371.423C253.651 371.737 254.847 371.955 256.151 371.955ZM47.7621 375.273H42.848L36.7266 379.148V383.785L42.3892 380.235H42.5341V400H47.7621V375.273ZM54.3788 400.314C55.9242 400.314 57.2644 399.022 57.2765 397.416C57.2644 395.835 55.9242 394.543 54.3788 394.543C52.785 394.543 51.469 395.835 51.4811 397.416C51.469 399.022 52.785 400.314 54.3788 400.314ZM60.4794 400H65.8764L76.1392 379.607V375.273H58.789V379.547H70.7301V379.716L60.4794 400ZM87.2775 400.338C92.8315 400.338 96.8038 397.283 96.7917 393.058C96.8038 389.979 94.8478 387.781 91.2136 387.322V387.129C93.9785 386.634 95.8862 384.678 95.8741 381.901C95.8862 378.001 92.4693 374.935 87.35 374.935C82.279 374.935 78.4636 377.905 78.3912 382.179H83.4018C83.4622 380.295 85.1888 379.076 87.3258 379.076C89.4388 379.076 90.8514 380.356 90.8393 382.215C90.8514 384.159 89.1973 385.475 86.8187 385.475H84.5126V389.315H86.8187C89.6199 389.315 91.3706 390.715 91.3585 392.707C91.3706 394.675 89.6802 396.028 87.2896 396.028C84.9835 396.028 83.2569 394.82 83.1603 393.009H77.8961C77.9807 397.332 81.8443 400.338 87.2775 400.338ZM123.717 381.455H118.272L114.432 394.724H114.239L110.387 381.455H104.954L111.438 400H117.233L123.717 381.455ZM147.243 383.93C146.555 378.219 142.232 374.935 136.509 374.935C129.977 374.935 124.991 379.547 124.991 387.636C124.991 395.702 129.893 400.338 136.509 400.338C142.848 400.338 146.676 396.124 147.243 391.572L141.955 391.548C141.46 394.192 139.383 395.714 136.594 395.714C132.839 395.714 130.291 392.925 130.291 387.636C130.291 382.493 132.803 379.559 136.63 379.559C139.492 379.559 141.556 381.213 141.955 383.93H147.243ZM149.972 400H155.2V391.983H159.595C165.282 391.983 168.59 388.59 168.59 383.652C168.59 378.738 165.342 375.273 159.728 375.273H149.972V400ZM155.2 387.793V379.547H158.726C161.744 379.547 163.205 381.189 163.205 383.652C163.205 386.103 161.744 387.793 158.75 387.793H155.2ZM186.239 375.273V390.884C186.239 393.71 184.259 395.75 181.216 395.75C178.186 395.75 176.194 393.71 176.194 390.884V375.273H170.966V391.331C170.966 396.74 175.047 400.35 181.216 400.35C187.362 400.35 191.467 396.74 191.467 391.331V375.273H186.239Z" fill="black"/>
<path d="M37.1136 326H47.3409V324.125H39.2273V308.545H37.1136V326ZM49.8936 326H60.5641V324.125H52.0073V318.193H59.8823V316.318H52.0073V310.42H60.4277V308.545H49.8936V326ZM73.0628 312.909H75.1083C75.0145 310.276 72.5856 308.307 69.2106 308.307C65.8697 308.307 63.2447 310.25 63.2447 313.182C63.2447 315.534 64.9492 316.932 67.6765 317.716L69.8242 318.33C71.6651 318.841 73.3015 319.489 73.3015 321.227C73.3015 323.136 71.4606 324.398 69.0401 324.398C66.9606 324.398 65.1197 323.477 64.9492 321.5H62.7674C62.9719 324.364 65.2901 326.307 69.0401 326.307C73.0628 326.307 75.3469 324.091 75.3469 321.261C75.3469 317.989 72.2447 316.932 70.4378 316.455L68.6651 315.977C67.3697 315.636 65.2901 314.955 65.2901 313.08C65.2901 311.409 66.8242 310.182 69.1424 310.182C71.256 310.182 72.8583 311.188 73.0628 312.909ZM87.6475 312.909H89.693C89.5992 310.276 87.1703 308.307 83.7953 308.307C80.4543 308.307 77.8293 310.25 77.8293 313.182C77.8293 315.534 79.5339 316.932 82.2612 317.716L84.4089 318.33C86.2498 318.841 87.8862 319.489 87.8862 321.227C87.8862 323.136 86.0453 324.398 83.6248 324.398C81.5453 324.398 79.7043 323.477 79.5339 321.5H77.3521C77.5566 324.364 79.8748 326.307 83.6248 326.307C87.6475 326.307 89.9316 324.091 89.9316 321.261C89.9316 317.989 86.8293 316.932 85.0225 316.455L83.2498 315.977C81.9543 315.636 79.8748 314.955 79.8748 313.08C79.8748 311.409 81.4089 310.182 83.7271 310.182C85.8407 310.182 87.443 311.188 87.6475 312.909ZM97.7622 310.42H103.251V326H105.364V310.42H110.853V308.545H97.7622V310.42ZM113.395 326H115.509V318.193H124.816V326H126.929V308.545H124.816V316.318H115.509V308.545H113.395V326ZM131.157 326L132.912 321.057H139.969L141.725 326H143.941L137.532 308.545H135.35L128.941 326H131.157ZM133.577 319.182L136.373 311.307H136.509L139.304 319.182H133.577ZM159.78 308.545H157.701V322.284H157.53L147.985 308.545H145.94V326H148.053V312.295H148.224L157.735 326H159.78V308.545Z" fill="#727272"/>
<path d="M875 745.613C879.24 745.613 882.92 745.213 886.043 744.41C889.165 743.608 891.743 742.305 893.777 740.5C895.811 738.695 897.322 736.296 898.311 733.303C899.299 730.309 899.793 726.621 899.793 722.238V466.863C899.793 462.28 900.753 458.986 902.672 456.98C904.592 454.975 907.972 453.973 912.812 453.973V441.598C907.972 441.598 904.592 440.602 902.672 438.611C900.752 436.621 899.793 433.319 899.793 428.707V223.375C899.793 218.992 899.299 215.304 898.311 212.311C897.322 209.317 895.811 206.918 893.777 205.113C891.743 203.309 889.165 202.005 886.043 201.203C882.921 200.401 879.24 200 875 200V210.184C878.323 210.184 880.915 210.671 882.777 211.644C884.639 212.618 885.936 214.13 886.666 216.178C887.396 218.226 887.762 220.84 887.762 224.02V432.66C887.762 434.866 888.092 436.907 888.75 438.783C889.409 440.66 890.626 442.285 892.402 443.66C894.178 445.035 896.714 446.11 900.008 446.883C900.294 446.95 900.588 447.014 900.889 447.076L900.909 447.081V448.516L900.889 448.52C900.739 448.55 900.589 448.58 900.443 448.612L900.008 448.709C896.714 449.469 894.178 450.542 892.402 451.932C890.626 453.321 889.409 454.954 888.75 456.83C888.091 458.706 887.762 460.747 887.762 462.953V721.593C887.762 724.745 887.396 727.344 886.666 729.393C885.936 731.441 884.639 732.959 882.777 733.947C880.915 734.936 878.323 735.43 875 735.43V745.613Z" fill="#B5B5B5" fill-opacity="0.85"/>
<path d="M943.229 435.338C948.807 435.338 952.815 432.356 952.827 428.347C952.815 425.256 950.437 422.733 947.467 422.238V422.069C950.05 421.538 951.898 419.304 951.91 416.587C951.898 412.76 948.227 409.935 943.229 409.935C938.218 409.935 934.548 412.76 934.56 416.587C934.548 419.292 936.371 421.538 939.003 422.069V422.238C935.984 422.733 933.63 425.256 933.642 428.347C933.63 432.356 937.651 435.338 943.229 435.338ZM943.229 431.499C940.741 431.499 939.075 430.026 939.075 427.937C939.075 425.8 940.826 424.254 943.229 424.254C945.619 424.254 947.382 425.8 947.382 427.937C947.382 430.038 945.704 431.499 943.229 431.499ZM943.229 420.451C941.14 420.451 939.655 419.087 939.655 417.131C939.655 415.199 941.116 413.871 943.229 413.871C945.33 413.871 946.803 415.211 946.803 417.131C946.803 419.087 945.305 420.451 943.229 420.451ZM972.004 418.266H977.316C976.64 413.376 972.33 409.935 966.74 409.935C960.208 409.935 955.173 414.643 955.173 422.661C955.173 430.484 959.882 435.338 966.848 435.338C973.091 435.338 977.546 431.39 977.546 424.882V421.767H967.199V425.703H972.511C972.439 428.77 970.35 430.714 966.873 430.714C962.949 430.714 960.473 427.78 960.473 422.612C960.473 417.469 963.045 414.559 966.824 414.559C969.517 414.559 971.34 415.947 972.004 418.266ZM980.453 435H991.018C996.572 435 999.53 432.102 999.53 428.166C999.53 424.508 996.91 422.298 994.096 422.165V421.924C996.668 421.344 998.564 419.521 998.564 416.612C998.564 412.905 995.811 410.273 990.353 410.273H980.453V435ZM985.681 430.726V424.158H990.064C992.575 424.158 994.133 425.607 994.133 427.647C994.133 429.506 992.865 430.726 989.943 430.726H985.681ZM985.681 420.62V414.499H989.653C991.971 414.499 993.287 415.694 993.287 417.481C993.287 419.437 991.694 420.62 989.557 420.62H985.681ZM1008.66 435H1013.81V423.868C1013.81 421.815 1015.11 420.451 1016.83 420.451C1018.52 420.451 1019.65 421.61 1019.65 423.433V435H1024.64V423.675C1024.64 421.755 1025.74 420.451 1027.61 420.451C1029.25 420.451 1030.48 421.477 1030.48 423.542V435H1035.61V422.528C1035.61 418.507 1033.22 416.213 1029.77 416.213C1027.05 416.213 1024.94 417.602 1024.18 419.727H1023.99C1023.39 417.577 1021.5 416.213 1018.95 416.213C1016.45 416.213 1014.56 417.541 1013.78 419.727H1013.57V416.455H1008.66V435ZM1047.11 435.362C1051.7 435.362 1054.79 433.129 1055.51 429.688L1050.75 429.374C1050.23 430.786 1048.91 431.523 1047.19 431.523C1044.62 431.523 1042.99 429.82 1042.99 427.055V427.043H1055.62V425.631C1055.62 419.328 1051.8 416.213 1046.9 416.213C1041.44 416.213 1037.91 420.089 1037.91 425.812C1037.91 431.692 1041.4 435.362 1047.11 435.362ZM1042.99 423.856C1043.1 421.743 1044.7 420.053 1046.99 420.053C1049.22 420.053 1050.77 421.646 1050.78 423.856H1042.99ZM1057.96 435H1063.1V423.868C1063.1 421.815 1064.4 420.451 1066.12 420.451C1067.81 420.451 1068.94 421.61 1068.94 423.433V435H1073.93V423.675C1073.93 421.755 1075.03 420.451 1076.9 420.451C1078.54 420.451 1079.77 421.477 1079.77 423.542V435H1084.9V422.528C1084.9 418.507 1082.51 416.213 1079.06 416.213C1076.34 416.213 1074.23 417.602 1073.47 419.727H1073.28C1072.69 417.577 1070.79 416.213 1068.24 416.213C1065.74 416.213 1063.85 417.541 1063.08 419.727H1062.86V416.455H1057.96V435ZM1096.33 435.362C1101.95 435.362 1105.45 431.511 1105.45 425.8C1105.45 420.053 1101.95 416.213 1096.33 416.213C1090.7 416.213 1087.2 420.053 1087.2 425.8C1087.2 431.511 1090.7 435.362 1096.33 435.362ZM1096.35 431.378C1093.76 431.378 1092.43 428.999 1092.43 425.763C1092.43 422.528 1093.76 420.137 1096.35 420.137C1098.9 420.137 1100.23 422.528 1100.23 425.763C1100.23 428.999 1098.9 431.378 1096.35 431.378ZM1107.78 435H1112.92V424.508C1112.92 422.226 1114.59 420.656 1116.86 420.656C1117.57 420.656 1118.55 420.777 1119.03 420.934V416.37C1118.57 416.261 1117.93 416.189 1117.41 416.189C1115.34 416.189 1113.64 417.396 1112.96 419.69H1112.77V416.455H1107.78V435ZM1124.41 441.955C1128.24 441.955 1130.27 439.999 1131.32 437.004L1138.53 416.479L1133.08 416.455L1129.2 430.074H1129.01L1125.17 416.455H1119.76L1126.42 435.531L1126.11 436.316C1125.44 438.055 1124.15 438.139 1122.33 437.584L1121.18 441.423C1121.91 441.737 1123.11 441.955 1124.41 441.955ZM934.004 470H951.632V465.726H941.249V465.557L944.859 462.019C949.942 457.383 951.306 455.065 951.306 452.251C951.306 447.965 947.805 444.935 942.504 444.935C937.312 444.935 933.751 448.038 933.763 452.891H938.725C938.713 450.525 940.21 449.076 942.468 449.076C944.641 449.076 946.259 450.428 946.259 452.602C946.259 454.57 945.052 455.922 942.806 458.083L934.004 466.233V470ZM978.587 451.455H973.142L969.303 464.724H969.11L965.258 451.455H959.825L966.308 470H972.104L978.587 451.455ZM1002.11 453.93C1001.43 448.219 997.103 444.935 991.38 444.935C984.848 444.935 979.862 449.547 979.862 457.636C979.862 465.702 984.764 470.338 991.38 470.338C997.719 470.338 1001.55 466.124 1002.11 461.572L996.825 461.548C996.33 464.192 994.254 465.714 991.465 465.714C987.71 465.714 985.162 462.925 985.162 457.636C985.162 452.493 987.673 449.559 991.501 449.559C994.362 449.559 996.427 451.213 996.825 453.93H1002.11ZM1004.84 470H1010.07V461.983H1014.47C1020.15 461.983 1023.46 458.59 1023.46 453.652C1023.46 448.738 1020.21 445.273 1014.6 445.273H1004.84V470ZM1010.07 457.793V449.547H1013.6C1016.61 449.547 1018.08 451.189 1018.08 453.652C1018.08 456.103 1016.61 457.793 1013.62 457.793H1010.07ZM1041.11 445.273V460.884C1041.11 463.71 1039.13 465.75 1036.09 465.75C1033.06 465.75 1031.06 463.71 1031.06 460.884V445.273H1025.84V461.331C1025.84 466.74 1029.92 470.35 1036.09 470.35C1042.23 470.35 1046.34 466.74 1046.34 461.331V445.273H1041.11Z" fill="black"/>
<path fill-rule="evenodd" clip-rule="evenodd" d="M433.8 719.4H833.4V729.84H433.8V719.4ZM433.8 702.6H833.4V713.04H433.8V702.6ZM433.8 686.6H833.4V697.04H433.8V686.6ZM366.2 171.4H833.4V181.8H366.2V171.4Z" fill="#A3A3A3"/>
<path fill-rule="evenodd" clip-rule="evenodd" d="M371.66 200.232H828.34C829.055 200.232 829.763 200.372 830.423 200.646C831.084 200.919 831.684 201.32 832.19 201.826C832.695 202.331 833.096 202.931 833.37 203.592C833.644 204.252 833.785 204.96 833.785 205.675V662.303C833.785 663.747 833.211 665.131 832.19 666.152C831.169 667.173 829.785 667.747 828.341 667.747H371.659C370.215 667.747 368.83 667.173 367.809 666.152C366.788 665.131 366.215 663.747 366.215 662.303V205.675C366.215 204.231 366.789 202.847 367.81 201.826C368.831 200.805 370.215 200.232 371.659 200.232H371.66Z" fill="#FDDFE1"/>
<path d="M391.675 683.719C391.217 683.746 390.768 683.865 390.357 684.069L372.511 692.578C372.051 692.797 371.647 693.117 371.328 693.514C371.01 693.911 370.785 694.375 370.671 694.871L366.301 713.975C366.197 714.418 366.185 714.879 366.268 715.327C366.351 715.776 366.525 716.202 366.781 716.58C366.843 716.673 366.907 716.762 366.974 716.849L379.304 732.177C379.955 732.977 380.934 733.437 381.965 733.433H401.741C402.251 733.43 402.754 733.315 403.215 733.095C403.675 732.876 404.082 732.557 404.405 732.163L416.729 716.831C417.375 716.031 417.617 714.974 417.369 713.971L412.972 694.853C412.857 694.357 412.632 693.893 412.313 693.496C411.995 693.099 411.591 692.779 411.132 692.56L393.313 684.07C392.799 683.817 392.231 683.696 391.659 683.72L391.675 683.719Z" fill="#4A4A4A"/>
<path d="M391.838 690.229C391.224 690.272 390.758 690.799 390.79 691.414V691.714C390.818 692.056 390.87 692.394 390.937 692.728C391.035 693.368 391.071 694.018 391.043 694.666C390.981 694.879 390.86 695.071 390.693 695.218L390.67 695.669C390.021 695.723 389.377 695.822 388.743 695.966C386.074 696.568 383.646 697.953 381.771 699.945L381.387 699.674C381.282 699.705 381.173 699.716 381.064 699.705C380.955 699.694 380.85 699.661 380.754 699.609C380.234 699.225 379.753 698.79 379.318 698.312C379.099 698.051 378.865 697.802 378.618 697.568L378.381 697.38C378.17 697.21 377.911 697.112 377.641 697.099C377.48 697.091 377.318 697.121 377.171 697.186C377.023 697.252 376.893 697.351 376.791 697.477C376.617 697.72 376.547 698.022 376.596 698.317C376.645 698.612 376.809 698.876 377.052 699.051L377.273 699.227C377.558 699.417 377.853 699.589 378.157 699.744C378.728 700.059 379.264 700.434 379.755 700.864C379.882 701.046 379.956 701.258 379.968 701.479L380.318 701.799C378.433 704.628 377.659 708.052 378.143 711.416L377.694 711.544C377.578 711.729 377.422 711.886 377.237 712.004C376.611 712.171 375.971 712.277 375.325 712.32C374.982 712.327 374.64 712.354 374.3 712.401L374.016 712.465H373.986C373.789 712.492 373.604 712.573 373.451 712.7C373.298 712.826 373.183 712.992 373.119 713.18C373.055 713.368 373.044 713.57 373.087 713.763C373.131 713.957 373.227 714.134 373.366 714.276C373.651 714.564 374.076 714.667 374.461 714.541H374.481L374.771 714.508C375.097 714.411 375.416 714.294 375.728 714.159C376.329 713.918 376.952 713.736 377.588 713.616C377.809 713.629 378.021 713.703 378.2 713.831L378.68 713.752C379.72 716.981 381.908 719.717 384.83 721.442L384.634 721.849C384.724 722.037 384.757 722.246 384.73 722.452C384.465 723.064 384.142 723.65 383.764 724.201C383.557 724.474 383.365 724.758 383.191 725.054L383.055 725.341C382.956 725.513 382.907 725.708 382.912 725.906C382.917 726.103 382.977 726.295 383.085 726.461C383.192 726.627 383.343 726.76 383.522 726.845C383.7 726.93 383.898 726.965 384.095 726.945C384.498 726.9 384.84 726.632 384.981 726.253L385.114 725.981C385.236 725.661 385.338 725.334 385.422 725.005C385.705 724.305 385.859 723.554 386.246 723.09C386.373 722.97 386.532 722.892 386.704 722.865L386.944 722.427C390.11 723.644 393.614 723.653 396.786 722.452L396.999 722.861C397.217 722.894 397.412 723.012 397.543 723.189C397.844 723.762 398.088 724.362 398.273 724.982C398.358 725.314 398.463 725.641 398.584 725.96L398.717 726.232C398.787 726.417 398.907 726.58 399.063 726.701C399.219 726.822 399.406 726.898 399.603 726.919C399.799 726.941 399.998 726.908 400.177 726.824C400.356 726.74 400.508 726.608 400.617 726.443C400.837 726.103 400.847 725.669 400.643 725.32L400.503 725.031C400.329 724.737 400.138 724.454 399.931 724.182C399.563 723.646 399.242 723.079 398.971 722.489C398.945 722.38 398.941 722.267 398.96 722.158C398.979 722.048 399.019 721.943 399.079 721.849C399.011 721.709 398.951 721.565 398.901 721.419C401.816 719.68 403.994 716.935 405.023 713.701L405.477 713.781C405.64 713.632 405.855 713.553 406.075 713.56C406.71 713.682 407.333 713.88 407.935 714.104C408.248 714.248 408.568 714.37 408.893 714.473C408.97 714.493 409.083 714.51 409.168 714.531H409.189C409.378 714.593 409.58 714.6 409.773 714.553C409.966 714.506 410.142 714.406 410.282 714.265C410.422 714.123 410.519 713.946 410.564 713.753C410.609 713.559 410.599 713.357 410.536 713.169C410.471 712.981 410.356 712.814 410.202 712.688C410.048 712.562 409.863 712.481 409.666 712.455L409.356 712.382C409.015 712.335 408.673 712.308 408.329 712.302C407.683 712.26 407.042 712.154 406.417 711.986C406.224 711.877 406.065 711.718 405.957 711.525L405.524 711.396C405.985 708.034 405.195 704.62 403.304 701.802L403.682 701.452C403.667 701.231 403.739 701.014 403.882 700.846C404.373 700.425 404.903 700.052 405.466 699.732C405.771 699.577 406.066 699.405 406.35 699.216L406.584 699.026C406.713 698.946 406.824 698.84 406.909 698.714C406.994 698.588 407.052 698.446 407.078 698.297C407.104 698.147 407.098 697.994 407.06 697.847C407.023 697.7 406.954 697.562 406.86 697.444C406.765 697.325 406.646 697.228 406.511 697.158C406.376 697.089 406.228 697.049 406.077 697.041C405.925 697.033 405.774 697.057 405.632 697.112C405.491 697.167 405.362 697.251 405.256 697.359L405.019 697.549C404.772 697.784 404.538 698.032 404.319 698.294C403.897 698.777 403.429 699.218 402.922 699.611C402.717 699.694 402.493 699.718 402.275 699.681L401.87 699.971C399.531 697.519 396.382 695.999 393.007 695.695C393.007 695.535 392.987 695.294 392.983 695.219C392.801 695.095 392.675 694.904 392.633 694.688C392.611 694.041 392.652 693.395 392.755 692.757C392.825 692.42 392.872 692.083 392.903 691.742V691.422C392.919 691.127 392.817 690.837 392.621 690.615C392.424 690.393 392.149 690.258 391.853 690.237L391.839 690.229L391.838 690.229ZM390.503 698.499L390.183 704.093H390.159C390.149 704.262 390.095 704.426 390.001 704.568C389.908 704.709 389.779 704.824 389.627 704.9C389.475 704.977 389.304 705.01 389.134 704.994C388.965 704.979 388.803 704.916 388.667 704.812L384.079 701.562C385.54 700.128 387.372 699.131 389.369 698.682C389.743 698.603 390.12 698.542 390.5 698.5H390.503V698.499ZM393.173 698.499C395.583 698.799 397.827 699.881 399.563 701.578L395.019 704.809C394.881 704.919 394.716 704.988 394.541 705.009C394.366 705.029 394.188 705 394.029 704.925C393.87 704.849 393.735 704.731 393.639 704.582C393.544 704.434 393.493 704.262 393.491 704.086L393.174 698.5L393.173 698.499ZM382.413 703.667L386.609 707.409V707.434C386.737 707.546 386.832 707.69 386.884 707.852C386.936 708.013 386.944 708.186 386.906 708.352C386.868 708.517 386.786 708.67 386.669 708.793C386.551 708.915 386.403 709.004 386.239 709.049V709.065L380.855 710.614C380.588 708.188 381.137 705.743 382.415 703.664L382.413 703.667ZM401.233 703.667C402.508 705.74 403.071 708.172 402.838 710.594L397.446 709.042V709.021C397.282 708.976 397.132 708.888 397.015 708.765C396.897 708.642 396.815 708.49 396.778 708.323C396.741 708.158 396.748 707.985 396.801 707.823C396.853 707.661 396.948 707.516 397.076 707.404L401.239 703.68L401.233 703.667ZM390.979 707.702H392.695L393.745 709.034L393.363 710.698L391.821 711.439L390.276 710.698L389.912 709.034L390.979 707.702V707.702ZM396.477 712.245C396.549 712.237 396.621 712.237 396.693 712.245L402.245 713.182C401.433 715.491 399.868 717.461 397.802 718.775L395.656 713.581C395.597 713.441 395.573 713.29 395.584 713.139C395.596 712.988 395.644 712.842 395.724 712.714C395.804 712.585 395.913 712.478 396.043 712.401C396.173 712.323 396.32 712.278 396.471 712.27L396.477 712.245ZM387.153 712.27C387.307 712.272 387.459 712.313 387.594 712.387C387.729 712.462 387.844 712.569 387.928 712.698C388.012 712.828 388.063 712.976 388.076 713.129C388.089 713.283 388.064 713.437 388.003 713.578V713.599L385.871 718.752C383.83 717.443 382.277 715.497 381.454 713.216L386.958 712.284C387.02 712.277 387.082 712.277 387.144 712.284L387.154 712.27H387.153ZM391.803 714.51C392.16 714.5 392.493 714.69 392.663 715.004H392.683L395.396 719.898L394.312 720.219C392.316 720.675 390.233 720.568 388.295 719.909L391.017 715.013C391.098 714.872 391.215 714.755 391.355 714.672C391.495 714.589 391.654 714.544 391.817 714.541L391.803 714.51V714.51Z" fill="white" stroke="white" stroke-width="0.5"/>
<path d="M366 225H834V663C834 664.326 833.473 665.598 832.536 666.536C831.598 667.473 830.326 668 829 668H371C369.674 668 368.402 667.473 367.464 666.536C366.527 665.598 366 664.326 366 663V225Z" fill="#EFFFBD"/>
<path d="M366 508H834V663C834 664.326 833.473 665.598 832.536 666.536C831.598 667.473 830.326 668 829 668H371C369.674 668 368.402 667.473 367.464 666.536C366.527 665.598 366 664.326 366 663V508Z" fill="#66E8FF"/>
<path d="M366 618H834V660C834 662.122 833.157 664.157 831.657 665.657C830.157 667.157 828.122 668 826 668H374C371.878 668 369.843 667.157 368.343 665.657C366.843 664.157 366 662.122 366 660V618Z" fill="#00A8C6"/>
<path d="M347 225L853 226" stroke="black" stroke-width="11" stroke-dasharray="30 30"/>
<rect x="385" y="253" width="429" height="239" fill="#C1CF97"/>
<path d="M526.934 383H531.04V376.703H534.491C538.958 376.703 541.556 374.039 541.556 370.16C541.556 366.301 539.005 363.579 534.596 363.579H526.934V383ZM531.04 373.413V366.936H533.809C536.179 366.936 537.327 368.226 537.327 370.16C537.327 372.085 536.179 373.413 533.828 373.413H531.04ZM547.551 363.579H543.512V383H547.551V363.579ZM554.305 383.275C556.457 383.275 557.851 382.336 558.563 380.98H558.676V383H562.507V373.176C562.507 369.705 559.568 368.245 556.325 368.245C552.835 368.245 550.54 369.914 549.981 372.569L553.717 372.872C553.992 371.905 554.855 371.194 556.306 371.194C557.681 371.194 558.468 371.886 558.468 373.081V373.138C558.468 374.077 557.472 374.2 554.94 374.447C552.057 374.712 549.469 375.679 549.469 378.932C549.469 381.815 551.526 383.275 554.305 383.275ZM555.462 380.487C554.22 380.487 553.328 379.909 553.328 378.799C553.328 377.661 554.267 377.102 555.689 376.903C556.571 376.779 558.013 376.571 558.496 376.248V377.794C558.496 379.321 557.235 380.487 555.462 380.487ZM571.587 383.284C575.465 383.284 577.902 381.009 578.092 377.661H574.28C574.043 379.216 573.019 380.089 571.634 380.089C569.747 380.089 568.524 378.505 568.524 375.717C568.524 372.967 569.757 371.393 571.634 371.393C573.114 371.393 574.062 372.37 574.28 373.821H578.092C577.921 370.454 575.37 368.245 571.568 368.245C567.149 368.245 564.418 371.308 564.418 375.774C564.418 380.203 567.101 383.284 571.587 383.284ZM586.681 383.284C590.284 383.284 592.712 381.53 593.281 378.828L589.544 378.581C589.137 379.69 588.094 380.269 586.747 380.269C584.727 380.269 583.447 378.932 583.447 376.76V376.751H593.366V375.641C593.366 370.691 590.369 368.245 586.519 368.245C582.233 368.245 579.455 371.289 579.455 375.784C579.455 380.402 582.195 383.284 586.681 383.284ZM583.447 374.247C583.532 372.588 584.794 371.26 586.586 371.26C588.34 371.26 589.554 372.512 589.563 374.247H583.447ZM599.406 374.579C599.416 372.702 600.563 371.602 602.213 371.602C603.854 371.602 604.821 372.654 604.811 374.447V383H608.851V373.726C608.861 370.312 606.85 368.245 603.816 368.245C601.606 368.245 600.127 369.288 599.463 371.004H599.292V363.579H595.366V383H599.406V374.579ZM617.975 383.284C622.394 383.284 625.144 380.259 625.144 375.774C625.144 371.26 622.394 368.245 617.975 368.245C613.556 368.245 610.806 371.26 610.806 375.774C610.806 380.259 613.556 383.284 617.975 383.284ZM617.994 380.155C615.956 380.155 614.912 378.287 614.912 375.746C614.912 373.204 615.956 371.327 617.994 371.327C619.995 371.327 621.038 373.204 621.038 375.746C621.038 378.287 619.995 380.155 617.994 380.155ZM631.175 363.579H627.135V383H631.175V363.579ZM639.143 383.237C641.494 383.237 642.718 381.881 643.277 380.667H643.448V383H647.43V363.579H643.4V370.881H643.277C642.736 369.696 641.57 368.245 639.133 368.245C635.937 368.245 633.235 370.729 633.235 375.736C633.235 380.61 635.824 383.237 639.143 383.237ZM640.423 380.022C638.441 380.022 637.36 378.259 637.36 375.717C637.36 373.195 638.422 371.459 640.423 371.459C642.386 371.459 643.486 373.119 643.486 375.717C643.486 378.315 642.367 380.022 640.423 380.022ZM656.754 383.284C660.357 383.284 662.785 381.53 663.354 378.828L659.618 378.581C659.21 379.69 658.167 380.269 656.82 380.269C654.801 380.269 653.52 378.932 653.52 376.76V376.751H663.439V375.641C663.439 370.691 660.443 368.245 656.593 368.245C652.307 368.245 649.528 371.289 649.528 375.784C649.528 380.402 652.269 383.284 656.754 383.284ZM653.52 374.247C653.606 372.588 654.867 371.26 656.659 371.26C658.414 371.26 659.627 372.512 659.637 374.247H653.52ZM665.44 383H669.48V374.759C669.48 372.967 670.788 371.734 672.571 371.734C673.13 371.734 673.899 371.829 674.278 371.953V368.368C673.917 368.283 673.415 368.226 673.007 368.226C671.376 368.226 670.039 369.174 669.508 370.976H669.356V368.434H665.44V383Z" fill="black"/>
<path d="M513.034 578H520.415V568.08L524.045 563.648L533.608 578H542.438L529.33 558.722L542.284 543.091H533.438L520.875 558.483H520.415V543.091H513.034V578ZM559.701 566.852C559.718 570.364 557.314 572.205 554.706 572.205C551.962 572.205 550.189 570.278 550.172 567.193V551.818H542.911V568.489C542.928 574.608 546.507 578.341 551.774 578.341C555.712 578.341 558.542 576.312 559.718 573.244H559.99V578H566.962V551.818H559.701V566.852ZM571.467 578H578.626V573.807H578.95C579.955 575.989 582.154 578.426 586.381 578.426C592.347 578.426 597.001 573.705 597.001 564.943C597.001 555.943 592.143 551.477 586.398 551.477C582.018 551.477 579.921 554.085 578.95 556.216H578.728V543.091H571.467V578ZM578.575 564.909C578.575 560.239 580.552 557.256 584.08 557.256C587.677 557.256 589.586 560.375 589.586 564.909C589.586 569.477 587.643 572.648 584.08 572.648C580.586 572.648 578.575 569.58 578.575 564.909ZM612.338 578.511C618.815 578.511 623.179 575.358 624.201 570.5L617.485 570.057C616.752 572.051 614.877 573.091 612.457 573.091C608.826 573.091 606.525 570.688 606.525 566.784V566.767H624.355V564.773C624.355 555.875 618.968 551.477 612.048 551.477C604.343 551.477 599.349 556.949 599.349 565.028C599.349 573.33 604.275 578.511 612.338 578.511ZM606.525 562.267C606.679 559.284 608.946 556.898 612.167 556.898C615.321 556.898 617.502 559.148 617.519 562.267H606.525ZM634.915 543.091H627.653V578H634.915V543.091ZM651.223 578.511C657.701 578.511 662.064 575.358 663.087 570.5L656.371 570.057C655.638 572.051 653.763 573.091 651.343 573.091C647.712 573.091 645.411 570.688 645.411 566.784V566.767H663.24V564.773C663.24 555.875 657.854 551.477 650.934 551.477C643.229 551.477 638.235 556.949 638.235 565.028C638.235 573.33 643.161 578.511 651.223 578.511ZM645.411 562.267C645.564 559.284 647.831 556.898 651.053 556.898C654.206 556.898 656.388 559.148 656.405 562.267H645.411ZM680.465 551.818H675.539V545.545H668.278V551.818H664.698V557.273H668.278V570.909C668.244 576.04 671.738 578.58 677.005 578.358C678.88 578.29 680.209 577.915 680.942 577.676L679.8 572.273C679.442 572.341 678.675 572.511 677.994 572.511C676.545 572.511 675.539 571.966 675.539 569.955V557.273H680.465V551.818Z" fill="black"/>
<path d="M501.483 646.818C501.483 640.156 497.347 636.358 491.947 636.358C486.518 636.358 482.412 640.156 482.412 646.818C482.412 653.45 486.518 657.278 491.947 657.278C497.347 657.278 501.483 653.48 501.483 646.818ZM497.118 646.818C497.118 651.134 495.07 653.47 491.947 653.47C488.815 653.47 486.777 651.134 486.777 646.818C486.777 642.503 488.815 640.166 491.947 640.166C495.07 640.166 497.118 642.503 497.118 646.818ZM504.033 662.727H508.268V654.554H508.398C508.984 655.827 510.267 657.249 512.733 657.249C516.213 657.249 518.928 654.494 518.928 649.384C518.928 644.134 516.094 641.528 512.743 641.528C510.188 641.528 508.965 643.05 508.398 644.293H508.209V641.727H504.033V662.727ZM508.179 649.364C508.179 646.639 509.332 644.899 511.391 644.899C513.489 644.899 514.602 646.719 514.602 649.364C514.602 652.028 513.469 653.878 511.391 653.878C509.352 653.878 508.179 652.088 508.179 649.364ZM528.152 657.298C531.93 657.298 534.476 655.459 535.072 652.625L531.155 652.366C530.727 653.53 529.633 654.136 528.221 654.136C526.103 654.136 524.761 652.734 524.761 650.457V650.447H535.162V649.284C535.162 644.094 532.02 641.528 527.983 641.528C523.488 641.528 520.575 644.72 520.575 649.433C520.575 654.276 523.449 657.298 528.152 657.298ZM524.761 647.822C524.851 646.082 526.173 644.69 528.052 644.69C529.892 644.69 531.164 646.003 531.174 647.822H524.761ZM537.366 657H541.602V648.359C541.602 646.48 542.974 645.188 544.843 645.188C545.43 645.188 546.235 645.287 546.633 645.416V641.658C546.255 641.568 545.728 641.509 545.3 641.509C543.59 641.509 542.188 642.503 541.631 644.392H541.472V641.727H537.366V657ZM552.18 657.288C554.438 657.288 555.899 656.304 556.645 654.882H556.764V657H560.781V646.699C560.781 643.06 557.699 641.528 554.298 641.528C550.639 641.528 548.233 643.278 547.646 646.062L551.564 646.381C551.852 645.366 552.757 644.621 554.278 644.621C555.72 644.621 556.546 645.347 556.546 646.599V646.659C556.546 647.643 555.501 647.773 552.847 648.031C549.824 648.31 547.109 649.324 547.109 652.734C547.109 655.757 549.267 657.288 552.18 657.288ZM553.394 654.365C552.091 654.365 551.156 653.759 551.156 652.595C551.156 651.402 552.141 650.815 553.632 650.607C554.557 650.477 556.068 650.259 556.575 649.92V651.541C556.575 653.142 555.253 654.365 553.394 654.365ZM571.631 641.727H568.758V638.068H564.522V641.727H562.434V644.909H564.522V652.864C564.502 655.857 566.54 657.338 569.613 657.209C570.706 657.169 571.482 656.95 571.91 656.811L571.243 653.659C571.035 653.699 570.587 653.798 570.189 653.798C569.344 653.798 568.758 653.48 568.758 652.307V644.909H571.631V641.727ZM573.83 657H578.066V641.727H573.83V657ZM575.958 639.759C577.221 639.759 578.255 638.794 578.255 637.611C578.255 636.438 577.221 635.473 575.958 635.473C574.705 635.473 573.671 636.438 573.671 637.611C573.671 638.794 574.705 639.759 575.958 639.759ZM585.135 648.17C585.145 646.202 586.318 645.048 588.029 645.048C589.729 645.048 590.753 646.162 590.743 648.031V657H594.979V647.276C594.979 643.716 592.891 641.528 589.709 641.528C587.442 641.528 585.801 642.642 585.115 644.422H584.936V641.727H580.899V657H585.135V648.17ZM604.638 663.045C609.003 663.045 612.105 661.057 612.105 657.149V641.727H607.899V644.293H607.74C607.173 643.05 605.931 641.528 603.375 641.528C600.024 641.528 597.19 644.134 597.19 649.334C597.19 654.415 599.945 656.781 603.385 656.781C605.821 656.781 607.183 655.558 607.74 654.295H607.919V657.089C607.919 659.188 606.577 660.003 604.737 660.003C602.868 660.003 601.923 659.188 601.575 658.263L597.658 658.79C598.165 661.196 600.521 663.045 604.638 663.045ZM604.727 653.599C602.649 653.599 601.516 651.949 601.516 649.314C601.516 646.719 602.629 644.899 604.727 644.899C606.786 644.899 607.939 646.639 607.939 649.314C607.939 652.009 606.766 653.599 604.727 653.599ZM631.963 642.493H636.089C636.03 638.864 633.047 636.358 628.513 636.358C624.048 636.358 620.777 638.824 620.797 642.523C620.787 645.526 622.905 647.246 626.345 648.071L628.562 648.628C630.78 649.165 632.013 649.801 632.023 651.173C632.013 652.665 630.601 653.679 628.413 653.679C626.176 653.679 624.565 652.645 624.426 650.607H620.26C620.369 655.011 623.521 657.288 628.463 657.288C633.434 657.288 636.358 654.912 636.368 651.183C636.358 647.793 633.802 645.993 630.263 645.197L628.433 644.76C626.663 644.352 625.182 643.696 625.211 642.234C625.211 640.922 626.375 639.957 628.483 639.957C630.541 639.957 631.804 640.892 631.963 642.493ZM641.239 662.727C644.391 662.727 646.062 661.116 646.927 658.651L652.863 641.747L648.378 641.727L645.187 652.943H645.027L641.866 641.727H637.411L642.89 657.438L642.641 658.084C642.084 659.516 641.02 659.585 639.529 659.128L638.574 662.29C639.181 662.548 640.165 662.727 641.239 662.727ZM667.178 646.082C666.8 643.268 664.533 641.528 660.675 641.528C656.767 641.528 654.192 643.338 654.202 646.281C654.192 648.568 655.634 650.05 658.617 650.646L661.262 651.173C662.594 651.442 663.2 651.929 663.22 652.695C663.2 653.599 662.216 654.246 660.735 654.246C659.223 654.246 658.219 653.599 657.96 652.357L653.794 652.575C654.192 655.499 656.678 657.298 660.725 657.298C664.682 657.298 667.516 655.28 667.526 652.267C667.516 650.06 666.074 648.737 663.111 648.131L660.347 647.574C658.925 647.266 658.398 646.778 658.408 646.043C658.398 645.128 659.432 644.531 660.744 644.531C662.216 644.531 663.091 645.337 663.3 646.321L667.178 646.082ZM677.757 641.727H674.883V638.068H670.647V641.727H668.559V644.909H670.647V652.864C670.627 655.857 672.666 657.338 675.738 657.209C676.832 657.169 677.607 656.95 678.035 656.811L677.369 653.659C677.16 653.699 676.713 653.798 676.315 653.798C675.47 653.798 674.883 653.48 674.883 652.307V644.909H677.757V641.727ZM686.752 657.298C690.53 657.298 693.076 655.459 693.672 652.625L689.755 652.366C689.327 653.53 688.234 654.136 686.822 654.136C684.704 654.136 683.361 652.734 683.361 650.457V650.447H693.762V649.284C693.762 644.094 690.62 641.528 686.583 641.528C682.089 641.528 679.175 644.72 679.175 649.433C679.175 654.276 682.049 657.298 686.752 657.298ZM683.361 647.822C683.451 646.082 684.773 644.69 686.653 644.69C688.492 644.69 689.765 646.003 689.775 647.822H683.361ZM695.966 657H700.202V647.832C700.202 646.142 701.276 645.018 702.688 645.018C704.08 645.018 705.014 645.973 705.014 647.474V657H709.121V647.673C709.121 646.092 710.026 645.018 711.567 645.018C712.919 645.018 713.933 645.864 713.933 647.564V657H718.159V646.729C718.159 643.418 716.191 641.528 713.347 641.528C711.11 641.528 709.37 642.672 708.743 644.422H708.584C708.097 642.652 706.536 641.528 704.438 641.528C702.379 641.528 700.818 642.622 700.182 644.422H700.003V641.727H695.966V657Z" fill="white"/>
</svg>
