<svg width="1200" height="900" viewBox="0 0 1200 900" fill="none" xmlns="http://www.w3.org/2000/svg">
<rect width="1200" height="900" fill="white"/>
<path d="M141.49 317.734H125.936C125.652 315.722 125.072 313.935 124.196 312.372C123.32 310.786 122.196 309.437 120.822 308.324C119.449 307.211 117.863 306.359 116.064 305.767C114.288 305.175 112.359 304.879 110.276 304.879C106.511 304.879 103.232 305.814 100.439 307.685C97.6454 309.531 95.4792 312.23 93.9403 315.781C92.4015 319.309 91.6321 323.594 91.6321 328.636C91.6321 333.821 92.4015 338.177 93.9403 341.705C95.5028 345.232 97.6809 347.895 100.474 349.695C103.268 351.494 106.5 352.393 110.169 352.393C112.229 352.393 114.134 352.121 115.886 351.577C117.662 351.032 119.236 350.239 120.609 349.197C121.982 348.132 123.119 346.842 124.018 345.327C124.942 343.812 125.581 342.083 125.936 340.142L141.49 340.213C141.088 343.551 140.081 346.771 138.472 349.872C136.885 352.95 134.743 355.708 132.044 358.146C129.369 360.561 126.173 362.479 122.456 363.899C118.763 365.296 114.584 365.994 109.92 365.994C103.434 365.994 97.6335 364.527 92.5199 361.591C87.4299 358.655 83.4053 354.406 80.446 348.842C77.5104 343.279 76.0426 336.544 76.0426 328.636C76.0426 320.705 77.5341 313.958 80.517 308.395C83.5 302.831 87.5483 298.594 92.6619 295.682C97.7756 292.746 103.528 291.278 109.92 291.278C114.134 291.278 118.041 291.87 121.639 293.054C125.261 294.238 128.469 295.966 131.263 298.239C134.056 300.488 136.329 303.246 138.081 306.513C139.857 309.78 140.993 313.52 141.49 317.734ZM174.246 366.065C168.729 366.065 163.959 364.893 159.934 362.55C155.934 360.182 152.844 356.892 150.666 352.678C148.488 348.44 147.399 343.527 147.399 337.94C147.399 332.306 148.488 327.382 150.666 323.168C152.844 318.93 155.934 315.639 159.934 313.295C163.959 310.928 168.729 309.744 174.246 309.744C179.762 309.744 184.52 310.928 188.521 313.295C192.546 315.639 195.647 318.93 197.825 323.168C200.003 327.382 201.092 332.306 201.092 337.94C201.092 343.527 200.003 348.44 197.825 352.678C195.647 356.892 192.546 360.182 188.521 362.55C184.52 364.893 179.762 366.065 174.246 366.065ZM174.317 354.347C176.826 354.347 178.921 353.636 180.602 352.216C182.283 350.772 183.55 348.807 184.402 346.321C185.278 343.835 185.716 341.006 185.716 337.834C185.716 334.661 185.278 331.832 184.402 329.347C183.55 326.861 182.283 324.896 180.602 323.452C178.921 322.008 176.826 321.286 174.317 321.286C171.783 321.286 169.653 322.008 167.925 323.452C166.22 324.896 164.93 326.861 164.054 329.347C163.202 331.832 162.775 334.661 162.775 337.834C162.775 341.006 163.202 343.835 164.054 346.321C164.93 348.807 166.22 350.772 167.925 352.216C169.653 353.636 171.783 354.347 174.317 354.347ZM208.297 365V310.455H222.715V320.078H223.354C224.49 316.882 226.384 314.361 229.036 312.514C231.687 310.668 234.86 309.744 238.553 309.744C242.293 309.744 245.478 310.679 248.105 312.55C250.733 314.396 252.485 316.906 253.361 320.078H253.929C255.042 316.953 257.054 314.455 259.966 312.585C262.902 310.691 266.37 309.744 270.371 309.744C275.461 309.744 279.592 311.366 282.765 314.609C285.961 317.829 287.559 322.398 287.559 328.317V365H272.466V331.3C272.466 328.269 271.661 325.997 270.051 324.482C268.442 322.966 266.429 322.209 264.015 322.209C261.268 322.209 259.126 323.085 257.587 324.837C256.048 326.565 255.279 328.849 255.279 331.69V365H240.613V330.98C240.613 328.305 239.843 326.174 238.304 324.588C236.789 323.002 234.789 322.209 232.303 322.209C230.622 322.209 229.107 322.635 227.757 323.487C226.432 324.316 225.378 325.488 224.597 327.003C223.816 328.494 223.425 330.246 223.425 332.259V365H208.297ZM297.161 365V292.273H312.289V319.616H312.75C313.413 318.149 314.372 316.657 315.627 315.142C316.905 313.603 318.562 312.325 320.598 311.307C322.658 310.265 325.215 309.744 328.269 309.744C332.246 309.744 335.915 310.786 339.277 312.869C342.639 314.929 345.326 318.042 347.338 322.209C349.351 326.352 350.357 331.548 350.357 337.798C350.357 343.883 349.374 349.02 347.409 353.21C345.468 357.377 342.816 360.537 339.455 362.692C336.117 364.822 332.376 365.888 328.233 365.888C325.298 365.888 322.8 365.402 320.74 364.432C318.704 363.461 317.035 362.242 315.733 360.774C314.431 359.283 313.437 357.779 312.75 356.264H312.075V365H297.161ZM311.969 337.727C311.969 340.971 312.419 343.8 313.318 346.214C314.218 348.629 315.52 350.511 317.225 351.861C318.929 353.187 321.001 353.849 323.439 353.849C325.901 353.849 327.985 353.175 329.689 351.825C331.394 350.452 332.684 348.558 333.56 346.143C334.459 343.705 334.909 340.9 334.909 337.727C334.909 334.579 334.471 331.809 333.595 329.418C332.719 327.027 331.429 325.156 329.725 323.807C328.02 322.457 325.925 321.783 323.439 321.783C320.977 321.783 318.894 322.434 317.189 323.736C315.508 325.038 314.218 326.884 313.318 329.276C312.419 331.667 311.969 334.484 311.969 337.727ZM357.819 365V310.455H372.947V365H357.819ZM365.419 303.423C363.17 303.423 361.24 302.678 359.63 301.186C358.044 299.671 357.251 297.86 357.251 295.753C357.251 293.67 358.044 291.882 359.63 290.391C361.24 288.875 363.17 288.118 365.419 288.118C367.668 288.118 369.585 288.875 371.171 290.391C372.781 291.882 373.586 293.67 373.586 295.753C373.586 297.86 372.781 299.671 371.171 301.186C369.585 302.678 367.668 303.423 365.419 303.423ZM397.562 333.466V365H382.434V310.455H396.851V320.078H397.491C398.698 316.906 400.722 314.396 403.563 312.55C406.404 310.679 409.848 309.744 413.897 309.744C417.685 309.744 420.987 310.573 423.804 312.23C426.622 313.887 428.812 316.255 430.374 319.332C431.937 322.386 432.718 326.032 432.718 330.27V365H417.59V332.969C417.614 329.631 416.761 327.027 415.033 325.156C413.305 323.262 410.926 322.315 407.895 322.315C405.859 322.315 404.06 322.753 402.498 323.629C400.959 324.505 399.751 325.784 398.875 327.464C398.023 329.122 397.585 331.122 397.562 333.466ZM442.009 365V310.455H457.137V365H442.009ZM449.609 303.423C447.36 303.423 445.43 302.678 443.82 301.186C442.234 299.671 441.441 297.86 441.441 295.753C441.441 293.67 442.234 291.882 443.82 290.391C445.43 288.875 447.36 288.118 449.609 288.118C451.858 288.118 453.775 288.875 455.361 290.391C456.971 291.882 457.776 293.67 457.776 295.753C457.776 297.86 456.971 299.671 455.361 301.186C453.775 302.678 451.858 303.423 449.609 303.423ZM481.752 333.466V365H466.624V310.455H481.041V320.078H481.681C482.888 316.906 484.912 314.396 487.753 312.55C490.594 310.679 494.038 309.744 498.087 309.744C501.875 309.744 505.177 310.573 507.994 312.23C510.812 313.887 513.002 316.255 514.564 319.332C516.127 322.386 516.908 326.032 516.908 330.27V365H501.78V332.969C501.804 329.631 500.951 327.027 499.223 325.156C497.495 323.262 495.116 322.315 492.085 322.315C490.049 322.315 488.25 322.753 486.688 323.629C485.149 324.505 483.941 325.784 483.065 327.464C482.213 329.122 481.775 331.122 481.752 333.466ZM550.773 386.591C545.872 386.591 541.67 385.916 538.166 384.567C534.686 383.241 531.916 381.43 529.857 379.134C527.797 376.837 526.46 374.257 525.844 371.392L539.835 369.51C540.262 370.599 540.936 371.617 541.86 372.564C542.783 373.511 544.002 374.268 545.517 374.837C547.056 375.429 548.926 375.724 551.128 375.724C554.419 375.724 557.13 374.92 559.26 373.31C561.415 371.723 562.492 369.06 562.492 365.32V355.341H561.853C561.19 356.856 560.195 358.288 558.87 359.638C557.544 360.987 555.839 362.088 553.756 362.94C551.673 363.793 549.187 364.219 546.299 364.219C542.203 364.219 538.474 363.272 535.112 361.378C531.774 359.46 529.111 356.536 527.122 352.607C525.157 348.653 524.175 343.658 524.175 337.621C524.175 331.442 525.181 326.281 527.193 322.138C529.206 317.995 531.881 314.893 535.219 312.834C538.581 310.774 542.262 309.744 546.263 309.744C549.317 309.744 551.874 310.265 553.934 311.307C555.993 312.325 557.65 313.603 558.905 315.142C560.184 316.657 561.166 318.149 561.853 319.616H562.421V310.455H577.442V365.533C577.442 370.173 576.306 374.055 574.033 377.18C571.76 380.305 568.612 382.649 564.587 384.212C560.586 385.798 555.981 386.591 550.773 386.591ZM551.093 352.855C553.531 352.855 555.591 352.251 557.272 351.044C558.976 349.813 560.278 348.061 561.178 345.788C562.101 343.492 562.563 340.746 562.563 337.55C562.563 334.354 562.113 331.584 561.213 329.24C560.314 326.873 559.012 325.038 557.307 323.736C555.603 322.434 553.531 321.783 551.093 321.783C548.607 321.783 546.512 322.457 544.807 323.807C543.103 325.133 541.812 326.979 540.936 329.347C540.06 331.714 539.622 334.448 539.622 337.55C539.622 340.698 540.06 343.421 540.936 345.717C541.836 347.99 543.126 349.754 544.807 351.009C546.512 352.24 548.607 352.855 551.093 352.855ZM92.5909 450.03C89.1108 450.03 86.0095 449.426 83.2869 448.219C80.5644 446.988 78.41 445.177 76.8239 442.786C75.2614 440.371 74.4801 437.364 74.4801 433.766C74.4801 430.735 75.0365 428.19 76.1491 426.131C77.2618 424.071 78.777 422.414 80.6946 421.159C82.6122 419.904 84.7902 418.957 87.2287 418.318C89.6908 417.679 92.2713 417.229 94.9702 416.969C98.1425 416.637 100.699 416.33 102.641 416.045C104.582 415.738 105.991 415.288 106.866 414.696C107.742 414.104 108.18 413.228 108.18 412.068V411.855C108.18 409.606 107.47 407.866 106.05 406.635C104.653 405.404 102.664 404.788 100.084 404.788C97.3613 404.788 95.1951 405.392 93.5852 406.599C91.9754 407.783 90.91 409.275 90.3892 411.074L76.3977 409.938C77.108 406.623 78.5047 403.759 80.5881 401.344C82.6714 398.905 85.3584 397.035 88.6491 395.733C91.9635 394.407 95.7988 393.744 100.155 393.744C103.185 393.744 106.085 394.099 108.855 394.81C111.649 395.52 114.123 396.621 116.277 398.112C118.455 399.604 120.171 401.521 121.426 403.865C122.681 406.185 123.308 408.967 123.308 412.21V449H108.962V441.436H108.536C107.66 443.141 106.488 444.644 105.02 445.946C103.552 447.224 101.788 448.231 99.7287 448.964C97.669 449.675 95.2898 450.03 92.5909 450.03ZM96.9233 439.589C99.1487 439.589 101.114 439.152 102.818 438.276C104.523 437.376 105.86 436.169 106.831 434.653C107.802 433.138 108.287 431.422 108.287 429.504V423.716C107.813 424.024 107.162 424.308 106.334 424.568C105.529 424.805 104.617 425.03 103.599 425.243C102.581 425.432 101.563 425.61 100.545 425.776C99.5275 425.918 98.6042 426.048 97.7756 426.166C96 426.427 94.4493 426.841 93.1236 427.409C91.7978 427.977 90.768 428.747 90.0341 429.717C89.3002 430.664 88.9332 431.848 88.9332 433.268C88.9332 435.328 89.679 436.902 91.1705 437.991C92.6856 439.057 94.6032 439.589 96.9233 439.589ZM167.392 425.776V394.455H182.52V449H167.996V439.092H167.427C166.196 442.288 164.148 444.857 161.284 446.798C158.443 448.74 154.975 449.71 150.879 449.71C147.233 449.71 144.025 448.882 141.255 447.224C138.486 445.567 136.319 443.212 134.757 440.158C133.218 437.104 132.437 433.446 132.413 429.185V394.455H147.541V426.486C147.565 429.705 148.429 432.25 150.133 434.121C151.838 435.991 154.122 436.926 156.987 436.926C158.81 436.926 160.514 436.512 162.101 435.683C163.687 434.831 164.965 433.576 165.936 431.919C166.93 430.262 167.416 428.214 167.392 425.776ZM221.001 394.455V405.818H188.153V394.455H221.001ZM195.611 381.386H210.739V432.239C210.739 433.635 210.952 434.724 211.378 435.506C211.804 436.263 212.396 436.796 213.153 437.104C213.935 437.411 214.834 437.565 215.852 437.565C216.562 437.565 217.273 437.506 217.983 437.388C218.693 437.246 219.238 437.139 219.616 437.068L221.996 448.325C221.238 448.562 220.173 448.834 218.8 449.142C217.427 449.473 215.758 449.675 213.793 449.746C210.147 449.888 206.951 449.402 204.205 448.29C201.482 447.177 199.363 445.449 197.848 443.105C196.333 440.761 195.587 437.802 195.611 434.227V381.386ZM252.283 450.065C246.767 450.065 241.997 448.893 237.972 446.55C233.971 444.182 230.882 440.892 228.704 436.678C226.526 432.44 225.437 427.527 225.437 421.94C225.437 416.306 226.526 411.382 228.704 407.168C230.882 402.93 233.971 399.639 237.972 397.295C241.997 394.928 246.767 393.744 252.283 393.744C257.799 393.744 262.558 394.928 266.559 397.295C270.583 399.639 273.685 402.93 275.863 407.168C278.041 411.382 279.13 416.306 279.13 421.94C279.13 427.527 278.041 432.44 275.863 436.678C273.685 440.892 270.583 444.182 266.559 446.55C262.558 448.893 257.799 450.065 252.283 450.065ZM252.354 438.347C254.864 438.347 256.959 437.636 258.64 436.216C260.321 434.772 261.587 432.807 262.439 430.321C263.315 427.835 263.753 425.006 263.753 421.834C263.753 418.661 263.315 415.832 262.439 413.347C261.587 410.861 260.321 408.896 258.64 407.452C256.959 406.008 254.864 405.286 252.354 405.286C249.821 405.286 247.69 406.008 245.962 407.452C244.258 408.896 242.967 410.861 242.091 413.347C241.239 415.832 240.813 418.661 240.813 421.834C240.813 425.006 241.239 427.835 242.091 430.321C242.967 432.807 244.258 434.772 245.962 436.216C247.69 437.636 249.821 438.347 252.354 438.347ZM331.718 410.009L317.869 410.861C317.632 409.677 317.123 408.612 316.342 407.665C315.561 406.694 314.531 405.925 313.252 405.357C311.998 404.765 310.494 404.469 308.743 404.469C306.399 404.469 304.422 404.966 302.812 405.96C301.202 406.931 300.397 408.233 300.397 409.866C300.397 411.169 300.918 412.269 301.96 413.169C303.001 414.069 304.789 414.791 307.322 415.335L317.194 417.324C322.497 418.413 326.451 420.165 329.055 422.58C331.659 424.994 332.961 428.167 332.961 432.097C332.961 435.671 331.908 438.808 329.801 441.507C327.717 444.206 324.853 446.313 321.207 447.828C317.585 449.32 313.406 450.065 308.671 450.065C301.451 450.065 295.698 448.562 291.413 445.555C287.152 442.525 284.654 438.406 283.92 433.197L298.799 432.416C299.249 434.618 300.338 436.299 302.066 437.459C303.795 438.595 306.008 439.163 308.707 439.163C311.359 439.163 313.489 438.654 315.099 437.636C316.733 436.595 317.561 435.257 317.585 433.624C317.561 432.25 316.981 431.126 315.845 430.25C314.708 429.35 312.957 428.664 310.589 428.19L301.143 426.308C295.816 425.243 291.851 423.396 289.247 420.768C286.666 418.141 285.376 414.791 285.376 410.719C285.376 407.215 286.323 404.196 288.217 401.663C290.135 399.13 292.822 397.177 296.278 395.804C299.758 394.431 303.83 393.744 308.494 393.744C315.383 393.744 320.805 395.2 324.758 398.112C328.735 401.024 331.055 404.99 331.718 410.009ZM364.5 450.065C358.913 450.065 354.107 448.882 350.083 446.514C346.082 444.123 343.004 440.809 340.85 436.571C338.719 432.333 337.654 427.456 337.654 421.94C337.654 416.353 338.731 411.453 340.885 407.239C343.063 403.001 346.153 399.698 350.154 397.331C354.155 394.94 358.913 393.744 364.429 393.744C369.188 393.744 373.355 394.608 376.929 396.337C380.504 398.065 383.333 400.491 385.417 403.616C387.5 406.741 388.648 410.411 388.861 414.625H374.586C374.183 411.902 373.118 409.713 371.39 408.055C369.685 406.375 367.448 405.534 364.678 405.534C362.334 405.534 360.286 406.173 358.535 407.452C356.806 408.706 355.457 410.541 354.486 412.956C353.516 415.371 353.03 418.295 353.03 421.727C353.03 425.207 353.504 428.167 354.451 430.605C355.421 433.044 356.783 434.902 358.535 436.18C360.286 437.459 362.334 438.098 364.678 438.098C366.406 438.098 367.957 437.743 369.33 437.033C370.727 436.322 371.875 435.293 372.775 433.943C373.698 432.57 374.302 430.925 374.586 429.007H388.861C388.625 433.174 387.488 436.843 385.452 440.016C383.44 443.164 380.658 445.626 377.107 447.402C373.556 449.178 369.354 450.065 364.5 450.065ZM411.469 450.03C407.989 450.03 404.888 449.426 402.165 448.219C399.443 446.988 397.289 445.177 395.702 442.786C394.14 440.371 393.359 437.364 393.359 433.766C393.359 430.735 393.915 428.19 395.028 426.131C396.14 424.071 397.655 422.414 399.573 421.159C401.491 419.904 403.669 418.957 406.107 418.318C408.569 417.679 411.15 417.229 413.849 416.969C417.021 416.637 419.578 416.33 421.519 416.045C423.46 415.738 424.869 415.288 425.745 414.696C426.621 414.104 427.059 413.228 427.059 412.068V411.855C427.059 409.606 426.349 407.866 424.928 406.635C423.531 405.404 421.543 404.788 418.962 404.788C416.24 404.788 414.074 405.392 412.464 406.599C410.854 407.783 409.789 409.275 409.268 411.074L395.276 409.938C395.986 406.623 397.383 403.759 399.467 401.344C401.55 398.905 404.237 397.035 407.528 395.733C410.842 394.407 414.677 393.744 419.033 393.744C422.064 393.744 424.964 394.099 427.734 394.81C430.527 395.52 433.001 396.621 435.156 398.112C437.334 399.604 439.05 401.521 440.305 403.865C441.559 406.185 442.187 408.967 442.187 412.21V449H427.84V441.436H427.414C426.538 443.141 425.366 444.644 423.898 445.946C422.431 447.224 420.667 448.231 418.607 448.964C416.548 449.675 414.168 450.03 411.469 450.03ZM415.802 439.589C418.027 439.589 419.992 439.152 421.697 438.276C423.401 437.376 424.739 436.169 425.709 434.653C426.68 433.138 427.165 431.422 427.165 429.504V423.716C426.692 424.024 426.041 424.308 425.212 424.568C424.407 424.805 423.496 425.03 422.478 425.243C421.46 425.432 420.442 425.61 419.424 425.776C418.406 425.918 417.483 426.048 416.654 426.166C414.879 426.427 413.328 426.841 412.002 427.409C410.676 427.977 409.647 428.747 408.913 429.717C408.179 430.664 407.812 431.848 407.812 433.268C407.812 435.328 408.557 436.902 410.049 437.991C411.564 439.057 413.482 439.589 415.802 439.589ZM466.42 376.273V449H451.292V376.273H466.42ZM500.764 450.065C495.153 450.065 490.324 448.929 486.275 446.656C482.251 444.36 479.15 441.116 476.972 436.926C474.793 432.712 473.704 427.729 473.704 421.976C473.704 416.365 474.793 411.441 476.972 407.203C479.15 402.965 482.215 399.663 486.169 397.295C490.146 394.928 494.81 393.744 500.16 393.744C503.759 393.744 507.109 394.324 510.21 395.484C513.335 396.621 516.058 398.337 518.378 400.634C520.722 402.93 522.544 405.818 523.847 409.298C525.149 412.755 525.8 416.803 525.8 421.443V425.598H479.741V416.223H511.56C511.56 414.045 511.086 412.116 510.139 410.435C509.192 408.754 507.878 407.44 506.197 406.493C504.54 405.522 502.611 405.037 500.409 405.037C498.113 405.037 496.077 405.57 494.301 406.635C492.549 407.677 491.176 409.085 490.182 410.861C489.187 412.613 488.678 414.566 488.655 416.72V425.634C488.655 428.332 489.152 430.664 490.146 432.629C491.164 434.594 492.597 436.109 494.443 437.175C496.29 438.24 498.48 438.773 501.013 438.773C502.694 438.773 504.232 438.536 505.629 438.062C507.026 437.589 508.222 436.879 509.216 435.932C510.21 434.985 510.968 433.825 511.489 432.452L525.48 433.375C524.77 436.737 523.314 439.672 521.112 442.182C518.934 444.668 516.117 446.609 512.66 448.006C509.228 449.379 505.262 450.065 500.764 450.065ZM533.04 449V394.455H547.706V403.972H548.275C549.269 400.586 550.938 398.029 553.282 396.301C555.625 394.549 558.324 393.673 561.378 393.673C562.136 393.673 562.953 393.721 563.829 393.815C564.705 393.91 565.474 394.04 566.137 394.206V407.629C565.427 407.416 564.444 407.227 563.189 407.061C561.935 406.895 560.786 406.812 559.745 406.812C557.519 406.812 555.531 407.298 553.779 408.268C552.051 409.215 550.678 410.541 549.66 412.246C548.665 413.95 548.168 415.915 548.168 418.141V449H533.04ZM616.71 410.009L602.861 410.861C602.624 409.677 602.115 408.612 601.334 407.665C600.552 406.694 599.523 405.925 598.244 405.357C596.989 404.765 595.486 404.469 593.734 404.469C591.391 404.469 589.414 404.966 587.804 405.96C586.194 406.931 585.389 408.233 585.389 409.866C585.389 411.169 585.91 412.269 586.952 413.169C587.993 414.069 589.781 414.791 592.314 415.335L602.186 417.324C607.489 418.413 611.443 420.165 614.047 422.58C616.651 424.994 617.953 428.167 617.953 432.097C617.953 435.671 616.9 438.808 614.793 441.507C612.709 444.206 609.845 446.313 606.199 447.828C602.577 449.32 598.398 450.065 593.663 450.065C586.443 450.065 580.69 448.562 576.405 445.555C572.143 442.525 569.646 438.406 568.912 433.197L583.791 432.416C584.241 434.618 585.33 436.299 587.058 437.459C588.786 438.595 591 439.163 593.699 439.163C596.35 439.163 598.481 438.654 600.091 437.636C601.724 436.595 602.553 435.257 602.577 433.624C602.553 432.25 601.973 431.126 600.837 430.25C599.7 429.35 597.948 428.664 595.581 428.19L586.135 426.308C580.808 425.243 576.843 423.396 574.239 420.768C571.658 418.141 570.368 414.791 570.368 410.719C570.368 407.215 571.315 404.196 573.209 401.663C575.126 399.13 577.813 397.177 581.27 395.804C584.75 394.431 588.822 393.744 593.486 393.744C600.375 393.744 605.796 395.2 609.75 398.112C613.727 401.024 616.047 404.99 616.71 410.009Z" fill="black"/>
<rect x="71" y="498" width="1038" height="19" fill="black"/>
</svg>
