<svg width="1200" height="900" viewBox="0 0 1200 900" fill="none" xmlns="http://www.w3.org/2000/svg">
<rect width="1200" height="900" fill="white"/>
<path d="M103.102 360H77.321V287.273H103.315C110.631 287.273 116.928 288.729 122.207 291.641C127.487 294.529 131.547 298.684 134.388 304.105C137.252 309.527 138.685 316.013 138.685 323.565C138.685 331.141 137.252 337.652 134.388 343.097C131.547 348.542 127.463 352.72 122.136 355.632C116.833 358.544 110.489 360 103.102 360ZM92.6974 346.825H102.463C107.009 346.825 110.832 346.02 113.933 344.411C117.058 342.777 119.402 340.256 120.964 336.847C122.551 333.414 123.344 328.987 123.344 323.565C123.344 318.191 122.551 313.8 120.964 310.391C119.402 306.982 117.07 304.472 113.969 302.862C110.867 301.252 107.044 300.447 102.499 300.447H92.6974V346.825ZM171.804 361.065C166.288 361.065 161.518 359.893 157.493 357.55C153.492 355.182 150.403 351.892 148.225 347.678C146.047 343.44 144.958 338.527 144.958 332.94C144.958 327.306 146.047 322.382 148.225 318.168C150.403 313.93 153.492 310.639 157.493 308.295C161.518 305.928 166.288 304.744 171.804 304.744C177.32 304.744 182.079 305.928 186.08 308.295C190.104 310.639 193.206 313.93 195.384 318.168C197.562 322.382 198.651 327.306 198.651 332.94C198.651 338.527 197.562 343.44 195.384 347.678C193.206 351.892 190.104 355.182 186.08 357.55C182.079 359.893 177.32 361.065 171.804 361.065ZM171.875 349.347C174.385 349.347 176.48 348.636 178.161 347.216C179.842 345.772 181.108 343.807 181.96 341.321C182.836 338.835 183.274 336.006 183.274 332.834C183.274 329.661 182.836 326.832 181.96 324.347C181.108 321.861 179.842 319.896 178.161 318.452C176.48 317.008 174.385 316.286 171.875 316.286C169.342 316.286 167.211 317.008 165.483 318.452C163.779 319.896 162.488 321.861 161.612 324.347C160.76 326.832 160.334 329.661 160.334 332.834C160.334 336.006 160.76 338.835 161.612 341.321C162.488 343.807 163.779 345.772 165.483 347.216C167.211 348.636 169.342 349.347 171.875 349.347ZM215.249 360L200.405 305.455H215.71L224.162 342.102H224.659L233.466 305.455H248.487L257.436 341.889H257.898L266.207 305.455H281.477L266.669 360H250.653L241.278 325.696H240.604L231.229 360H215.249ZM302.043 328.466V360H286.916V305.455H301.333V315.078H301.972C303.18 311.906 305.204 309.396 308.045 307.55C310.886 305.679 314.33 304.744 318.379 304.744C322.167 304.744 325.469 305.573 328.286 307.23C331.104 308.887 333.293 311.255 334.856 314.332C336.418 317.386 337.2 321.032 337.2 325.27V360H322.072V327.969C322.096 324.631 321.243 322.027 319.515 320.156C317.787 318.262 315.408 317.315 312.377 317.315C310.341 317.315 308.542 317.753 306.98 318.629C305.441 319.505 304.233 320.784 303.357 322.464C302.505 324.122 302.067 326.122 302.043 328.466ZM391.875 321.009L378.025 321.861C377.788 320.677 377.279 319.612 376.498 318.665C375.717 317.694 374.687 316.925 373.409 316.357C372.154 315.765 370.651 315.469 368.899 315.469C366.555 315.469 364.578 315.966 362.968 316.96C361.359 317.931 360.554 319.233 360.554 320.866C360.554 322.169 361.074 323.269 362.116 324.169C363.158 325.069 364.945 325.791 367.478 326.335L377.35 328.324C382.654 329.413 386.607 331.165 389.211 333.58C391.815 335.994 393.118 339.167 393.118 343.097C393.118 346.671 392.064 349.808 389.957 352.507C387.874 355.206 385.009 357.313 381.363 358.828C377.741 360.32 373.563 361.065 368.828 361.065C361.607 361.065 355.854 359.562 351.569 356.555C347.308 353.525 344.81 349.406 344.076 344.197L358.956 343.416C359.405 345.618 360.494 347.299 362.223 348.459C363.951 349.595 366.164 350.163 368.863 350.163C371.515 350.163 373.645 349.654 375.255 348.636C376.889 347.595 377.717 346.257 377.741 344.624C377.717 343.25 377.137 342.126 376.001 341.25C374.865 340.35 373.113 339.664 370.745 339.19L361.299 337.308C355.973 336.243 352.007 334.396 349.403 331.768C346.823 329.141 345.532 325.791 345.532 321.719C345.532 318.215 346.479 315.196 348.373 312.663C350.291 310.13 352.978 308.177 356.434 306.804C359.914 305.431 363.986 304.744 368.65 304.744C375.539 304.744 380.961 306.2 384.914 309.112C388.892 312.024 391.212 315.99 391.875 321.009ZM424.657 361.065C419.07 361.065 414.264 359.882 410.239 357.514C406.238 355.123 403.161 351.809 401.006 347.571C398.875 343.333 397.81 338.456 397.81 332.94C397.81 327.353 398.887 322.453 401.042 318.239C403.22 314.001 406.309 310.698 410.31 308.331C414.311 305.94 419.07 304.744 424.586 304.744C429.344 304.744 433.511 305.608 437.086 307.337C440.661 309.065 443.49 311.491 445.573 314.616C447.656 317.741 448.804 321.411 449.018 325.625H434.742C434.339 322.902 433.274 320.713 431.546 319.055C429.841 317.375 427.604 316.534 424.834 316.534C422.491 316.534 420.443 317.173 418.691 318.452C416.963 319.706 415.613 321.541 414.643 323.956C413.672 326.371 413.187 329.295 413.187 332.727C413.187 336.207 413.66 339.167 414.607 341.605C415.578 344.044 416.939 345.902 418.691 347.18C420.443 348.459 422.491 349.098 424.834 349.098C426.563 349.098 428.113 348.743 429.486 348.033C430.883 347.322 432.031 346.293 432.931 344.943C433.854 343.57 434.458 341.925 434.742 340.007H449.018C448.781 344.174 447.644 347.843 445.608 351.016C443.596 354.164 440.814 356.626 437.263 358.402C433.712 360.178 429.51 361.065 424.657 361.065ZM471.626 361.03C468.146 361.03 465.044 360.426 462.322 359.219C459.599 357.988 457.445 356.177 455.859 353.786C454.296 351.371 453.515 348.364 453.515 344.766C453.515 341.735 454.071 339.19 455.184 337.131C456.297 335.071 457.812 333.414 459.729 332.159C461.647 330.904 463.825 329.957 466.263 329.318C468.726 328.679 471.306 328.229 474.005 327.969C477.177 327.637 479.734 327.33 481.675 327.045C483.617 326.738 485.025 326.288 485.901 325.696C486.777 325.104 487.215 324.228 487.215 323.068V322.855C487.215 320.606 486.505 318.866 485.084 317.635C483.688 316.404 481.699 315.788 479.119 315.788C476.396 315.788 474.23 316.392 472.62 317.599C471.01 318.783 469.945 320.275 469.424 322.074L455.432 320.938C456.143 317.623 457.539 314.759 459.623 312.344C461.706 309.905 464.393 308.035 467.684 306.733C470.998 305.407 474.834 304.744 479.19 304.744C482.22 304.744 485.12 305.099 487.89 305.81C490.683 306.52 493.157 307.621 495.312 309.112C497.49 310.604 499.206 312.521 500.461 314.865C501.716 317.185 502.343 319.967 502.343 323.21V360H487.996V352.436H487.57C486.694 354.141 485.522 355.644 484.055 356.946C482.587 358.224 480.823 359.231 478.763 359.964C476.704 360.675 474.325 361.03 471.626 361.03ZM475.958 350.589C478.183 350.589 480.148 350.152 481.853 349.276C483.557 348.376 484.895 347.169 485.866 345.653C486.836 344.138 487.322 342.422 487.322 340.504V334.716C486.848 335.024 486.197 335.308 485.369 335.568C484.564 335.805 483.652 336.03 482.634 336.243C481.616 336.432 480.598 336.61 479.58 336.776C478.562 336.918 477.639 337.048 476.81 337.166C475.035 337.427 473.484 337.841 472.158 338.409C470.833 338.977 469.803 339.747 469.069 340.717C468.335 341.664 467.968 342.848 467.968 344.268C467.968 346.328 468.714 347.902 470.205 348.991C471.72 350.057 473.638 350.589 475.958 350.589ZM526.576 287.273V360H511.448V287.273H526.576ZM536.062 360V305.455H551.19V360H536.062ZM543.662 298.423C541.413 298.423 539.483 297.678 537.873 296.186C536.287 294.671 535.494 292.86 535.494 290.753C535.494 288.67 536.287 286.882 537.873 285.391C539.483 283.875 541.413 283.118 543.662 283.118C545.911 283.118 547.829 283.875 549.415 285.391C551.025 286.882 551.829 288.67 551.829 290.753C551.829 292.86 551.025 294.671 549.415 296.186C547.829 297.678 545.911 298.423 543.662 298.423ZM575.805 328.466V360H560.677V305.455H575.095V315.078H575.734C576.941 311.906 578.965 309.396 581.806 307.55C584.647 305.679 588.092 304.744 592.14 304.744C595.928 304.744 599.23 305.573 602.048 307.23C604.865 308.887 607.055 311.255 608.617 314.332C610.18 317.386 610.961 321.032 610.961 325.27V360H595.833V327.969C595.857 324.631 595.005 322.027 593.276 320.156C591.548 318.262 589.169 317.315 586.139 317.315C584.103 317.315 582.303 317.753 580.741 318.629C579.202 319.505 577.995 320.784 577.119 322.464C576.266 324.122 575.828 326.122 575.805 328.466ZM644.826 381.591C639.926 381.591 635.724 380.916 632.22 379.567C628.74 378.241 625.97 376.43 623.91 374.134C621.85 371.837 620.513 369.257 619.897 366.392L633.889 364.51C634.315 365.599 634.99 366.617 635.913 367.564C636.836 368.511 638.055 369.268 639.571 369.837C641.109 370.429 642.98 370.724 645.181 370.724C648.472 370.724 651.183 369.92 653.313 368.31C655.468 366.723 656.545 364.06 656.545 360.32V350.341H655.906C655.243 351.856 654.249 353.288 652.923 354.638C651.597 355.987 649.893 357.088 647.809 357.94C645.726 358.793 643.24 359.219 640.352 359.219C636.256 359.219 632.527 358.272 629.166 356.378C625.828 354.46 623.164 351.536 621.176 347.607C619.211 343.653 618.228 338.658 618.228 332.621C618.228 326.442 619.234 321.281 621.247 317.138C623.259 312.995 625.934 309.893 629.272 307.834C632.634 305.774 636.315 304.744 640.316 304.744C643.37 304.744 645.927 305.265 647.987 306.307C650.046 307.325 651.704 308.603 652.958 310.142C654.237 311.657 655.219 313.149 655.906 314.616H656.474V305.455H671.495V360.533C671.495 365.173 670.359 369.055 668.086 372.18C665.813 375.305 662.665 377.649 658.64 379.212C654.639 380.798 650.035 381.591 644.826 381.591ZM645.146 347.855C647.584 347.855 649.644 347.251 651.325 346.044C653.029 344.813 654.331 343.061 655.231 340.788C656.154 338.492 656.616 335.746 656.616 332.55C656.616 329.354 656.166 326.584 655.267 324.24C654.367 321.873 653.065 320.038 651.36 318.736C649.656 317.434 647.584 316.783 645.146 316.783C642.66 316.783 640.565 317.457 638.86 318.807C637.156 320.133 635.866 321.979 634.99 324.347C634.114 326.714 633.676 329.448 633.676 332.55C633.676 335.698 634.114 338.421 634.99 340.717C635.889 342.99 637.179 344.754 638.86 346.009C640.565 347.24 642.66 347.855 645.146 347.855ZM716.969 361.03C713.489 361.03 710.388 360.426 707.665 359.219C704.943 357.988 702.788 356.177 701.202 353.786C699.639 351.371 698.858 348.364 698.858 344.766C698.858 341.735 699.415 339.19 700.527 337.131C701.64 335.071 703.155 333.414 705.073 332.159C706.99 330.904 709.168 329.957 711.607 329.318C714.069 328.679 716.649 328.229 719.348 327.969C722.521 327.637 725.077 327.33 727.019 327.045C728.96 326.738 730.369 326.288 731.245 325.696C732.121 325.104 732.559 324.228 732.559 323.068V322.855C732.559 320.606 731.848 318.866 730.428 317.635C729.031 316.404 727.042 315.788 724.462 315.788C721.739 315.788 719.573 316.392 717.963 317.599C716.353 318.783 715.288 320.275 714.767 322.074L700.776 320.938C701.486 317.623 702.883 314.759 704.966 312.344C707.05 309.905 709.737 308.035 713.027 306.733C716.342 305.407 720.177 304.744 724.533 304.744C727.563 304.744 730.463 305.099 733.233 305.81C736.027 306.52 738.501 307.621 740.655 309.112C742.833 310.604 744.55 312.521 745.804 314.865C747.059 317.185 747.686 319.967 747.686 323.21V360H733.34V352.436H732.914C732.038 354.141 730.866 355.644 729.398 356.946C727.93 358.224 726.166 359.231 724.107 359.964C722.047 360.675 719.668 361.03 716.969 361.03ZM721.301 350.589C723.527 350.589 725.492 350.152 727.196 349.276C728.901 348.376 730.238 347.169 731.209 345.653C732.18 344.138 732.665 342.422 732.665 340.504V334.716C732.192 335.024 731.541 335.308 730.712 335.568C729.907 335.805 728.996 336.03 727.978 336.243C726.96 336.432 725.942 336.61 724.924 336.776C723.906 336.918 722.982 337.048 722.154 337.166C720.378 337.427 718.827 337.841 717.502 338.409C716.176 338.977 715.146 339.747 714.412 340.717C713.678 341.664 713.311 342.848 713.311 344.268C713.311 346.328 714.057 347.902 715.549 348.991C717.064 350.057 718.981 350.589 721.301 350.589ZM771.919 328.466V360H756.791V305.455H771.209V315.078H771.848C773.055 311.906 775.08 309.396 777.921 307.55C780.761 305.679 784.206 304.744 788.254 304.744C792.042 304.744 795.345 305.573 798.162 307.23C800.979 308.887 803.169 311.255 804.732 314.332C806.294 317.386 807.075 321.032 807.075 325.27V360H791.948V327.969C791.971 324.631 791.119 322.027 789.391 320.156C787.662 318.262 785.283 317.315 782.253 317.315C780.217 317.315 778.418 317.753 776.855 318.629C775.316 319.505 774.109 320.784 773.233 322.464C772.381 324.122 771.943 326.122 771.919 328.466ZM836.466 360.888C832.323 360.888 828.571 359.822 825.209 357.692C821.871 355.537 819.219 352.377 817.254 348.21C815.313 344.02 814.343 338.883 814.343 332.798C814.343 326.548 815.349 321.352 817.361 317.209C819.373 313.042 822.049 309.929 825.387 307.869C828.748 305.786 832.43 304.744 836.431 304.744C839.485 304.744 842.03 305.265 844.066 306.307C846.125 307.325 847.782 308.603 849.037 310.142C850.316 311.657 851.286 313.149 851.949 314.616H852.411V287.273H867.503V360H852.588V351.264H851.949C851.239 352.779 850.233 354.283 848.931 355.774C847.652 357.242 845.983 358.461 843.924 359.432C841.888 360.402 839.402 360.888 836.466 360.888ZM841.26 348.849C843.699 348.849 845.758 348.187 847.439 346.861C849.144 345.511 850.446 343.629 851.345 341.214C852.269 338.8 852.73 335.971 852.73 332.727C852.73 329.484 852.281 326.667 851.381 324.276C850.481 321.884 849.179 320.038 847.475 318.736C845.77 317.434 843.699 316.783 841.26 316.783C838.774 316.783 836.679 317.457 834.975 318.807C833.27 320.156 831.98 322.027 831.104 324.418C830.228 326.809 829.79 329.579 829.79 332.727C829.79 335.9 830.228 338.705 831.104 341.143C832.004 343.558 833.294 345.452 834.975 346.825C836.679 348.175 838.774 348.849 841.26 348.849ZM106.369 389.455V400.818H72.7045V389.455H106.369ZM80.4105 444V385.513C80.4105 381.559 81.1799 378.28 82.7188 375.676C84.2812 373.072 86.4119 371.119 89.1108 369.817C91.8097 368.515 94.8755 367.864 98.3082 367.864C100.628 367.864 102.747 368.041 104.665 368.396C106.606 368.751 108.05 369.071 108.997 369.355L106.298 380.719C105.706 380.529 104.973 380.352 104.097 380.186C103.244 380.02 102.368 379.938 101.469 379.938C99.2434 379.938 97.6927 380.458 96.8168 381.5C95.9408 382.518 95.5028 383.95 95.5028 385.797V444H80.4105ZM112.98 444V389.455H127.646V398.972H128.214C129.208 395.586 130.877 393.029 133.221 391.301C135.565 389.549 138.264 388.673 141.318 388.673C142.075 388.673 142.892 388.721 143.768 388.815C144.644 388.91 145.413 389.04 146.076 389.206V402.629C145.366 402.416 144.383 402.227 143.129 402.061C141.874 401.895 140.726 401.812 139.684 401.812C137.459 401.812 135.47 402.298 133.718 403.268C131.99 404.215 130.617 405.541 129.599 407.246C128.605 408.95 128.107 410.915 128.107 413.141V444H112.98ZM165.257 445.03C161.777 445.03 158.676 444.426 155.953 443.219C153.231 441.988 151.077 440.177 149.49 437.786C147.928 435.371 147.147 432.364 147.147 428.766C147.147 425.735 147.703 423.19 148.816 421.131C149.928 419.071 151.444 417.414 153.361 416.159C155.279 414.904 157.457 413.957 159.895 413.318C162.357 412.679 164.938 412.229 167.637 411.969C170.809 411.637 173.366 411.33 175.307 411.045C177.248 410.738 178.657 410.288 179.533 409.696C180.409 409.104 180.847 408.228 180.847 407.068V406.855C180.847 404.606 180.137 402.866 178.716 401.635C177.319 400.404 175.331 399.788 172.75 399.788C170.028 399.788 167.862 400.392 166.252 401.599C164.642 402.783 163.577 404.275 163.056 406.074L149.064 404.938C149.774 401.623 151.171 398.759 153.255 396.344C155.338 393.905 158.025 392.035 161.316 390.733C164.63 389.407 168.465 388.744 172.821 388.744C175.852 388.744 178.752 389.099 181.522 389.81C184.315 390.52 186.789 391.621 188.944 393.112C191.122 394.604 192.838 396.521 194.093 398.865C195.347 401.185 195.975 403.967 195.975 407.21V444H181.628V436.436H181.202C180.326 438.141 179.154 439.644 177.686 440.946C176.219 442.224 174.455 443.231 172.395 443.964C170.336 444.675 167.956 445.03 165.257 445.03ZM169.59 434.589C171.815 434.589 173.78 434.152 175.485 433.276C177.189 432.376 178.527 431.169 179.497 429.653C180.468 428.138 180.953 426.422 180.953 424.504V418.716C180.48 419.024 179.829 419.308 179 419.568C178.195 419.805 177.284 420.03 176.266 420.243C175.248 420.432 174.23 420.61 173.212 420.776C172.194 420.918 171.271 421.048 170.442 421.166C168.667 421.427 167.116 421.841 165.79 422.409C164.464 422.977 163.435 423.747 162.701 424.717C161.967 425.664 161.6 426.848 161.6 428.268C161.6 430.328 162.346 431.902 163.837 432.991C165.352 434.057 167.27 434.589 169.59 434.589ZM229.654 465.591C224.753 465.591 220.551 464.916 217.047 463.567C213.567 462.241 210.797 460.43 208.737 458.134C206.678 455.837 205.34 453.257 204.725 450.392L218.716 448.51C219.142 449.599 219.817 450.617 220.74 451.564C221.664 452.511 222.883 453.268 224.398 453.837C225.937 454.429 227.807 454.724 230.009 454.724C233.299 454.724 236.01 453.92 238.141 452.31C240.295 450.723 241.372 448.06 241.372 444.32V434.341H240.733C240.07 435.856 239.076 437.288 237.75 438.638C236.424 439.987 234.72 441.088 232.637 441.94C230.553 442.793 228.067 443.219 225.179 443.219C221.083 443.219 217.355 442.272 213.993 440.378C210.655 438.46 207.992 435.536 206.003 431.607C204.038 427.653 203.056 422.658 203.056 416.621C203.056 410.442 204.062 405.281 206.074 401.138C208.086 396.995 210.762 393.893 214.1 391.834C217.461 389.774 221.143 388.744 225.144 388.744C228.198 388.744 230.754 389.265 232.814 390.307C234.874 391.325 236.531 392.603 237.786 394.142C239.064 395.657 240.047 397.149 240.733 398.616H241.301V389.455H256.323V444.533C256.323 449.173 255.186 453.055 252.914 456.18C250.641 459.305 247.492 461.649 243.467 463.212C239.467 464.798 234.862 465.591 229.654 465.591ZM229.973 431.855C232.412 431.855 234.471 431.251 236.152 430.044C237.857 428.813 239.159 427.061 240.058 424.788C240.982 422.492 241.443 419.746 241.443 416.55C241.443 413.354 240.994 410.584 240.094 408.24C239.194 405.873 237.892 404.038 236.188 402.736C234.483 401.434 232.412 400.783 229.973 400.783C227.487 400.783 225.392 401.457 223.688 402.807C221.983 404.133 220.693 405.979 219.817 408.347C218.941 410.714 218.503 413.448 218.503 416.55C218.503 419.698 218.941 422.421 219.817 424.717C220.717 426.99 222.007 428.754 223.688 430.009C225.392 431.24 227.487 431.855 229.973 431.855ZM265.729 444V389.455H280.147V399.078H280.786C281.923 395.882 283.816 393.361 286.468 391.514C289.12 389.668 292.292 388.744 295.985 388.744C299.726 388.744 302.91 389.679 305.538 391.55C308.165 393.396 309.917 395.906 310.793 399.078H311.361C312.474 395.953 314.486 393.455 317.398 391.585C320.334 389.691 323.802 388.744 327.803 388.744C332.893 388.744 337.024 390.366 340.197 393.609C343.393 396.829 344.991 401.398 344.991 407.317V444H329.898V410.3C329.898 407.269 329.093 404.997 327.484 403.482C325.874 401.966 323.861 401.209 321.447 401.209C318.7 401.209 316.558 402.085 315.019 403.837C313.48 405.565 312.711 407.849 312.711 410.69V444H298.045V409.98C298.045 407.305 297.275 405.174 295.736 403.588C294.221 402.002 292.221 401.209 289.735 401.209C288.054 401.209 286.539 401.635 285.19 402.487C283.864 403.316 282.81 404.488 282.029 406.003C281.248 407.494 280.857 409.246 280.857 411.259V444H265.729ZM379.167 445.065C373.556 445.065 368.726 443.929 364.678 441.656C360.653 439.36 357.552 436.116 355.374 431.926C353.196 427.712 352.107 422.729 352.107 416.976C352.107 411.365 353.196 406.441 355.374 402.203C357.552 397.965 360.618 394.663 364.572 392.295C368.549 389.928 373.213 388.744 378.563 388.744C382.161 388.744 385.511 389.324 388.613 390.484C391.738 391.621 394.46 393.337 396.78 395.634C399.124 397.93 400.947 400.818 402.249 404.298C403.551 407.755 404.202 411.803 404.202 416.443V420.598H358.144V411.223H389.962C389.962 409.045 389.489 407.116 388.542 405.435C387.595 403.754 386.281 402.44 384.6 401.493C382.943 400.522 381.013 400.037 378.812 400.037C376.515 400.037 374.479 400.57 372.704 401.635C370.952 402.677 369.579 404.085 368.584 405.861C367.59 407.613 367.081 409.566 367.057 411.72V420.634C367.057 423.332 367.554 425.664 368.549 427.629C369.567 429.594 370.999 431.109 372.846 432.175C374.692 433.24 376.882 433.773 379.415 433.773C381.096 433.773 382.635 433.536 384.032 433.062C385.429 432.589 386.624 431.879 387.618 430.932C388.613 429.985 389.37 428.825 389.891 427.452L403.883 428.375C403.172 431.737 401.716 434.672 399.515 437.182C397.337 439.668 394.519 441.609 391.063 443.006C387.63 444.379 383.665 445.065 379.167 445.065ZM426.571 412.466V444H411.443V389.455H425.86V399.078H426.5C427.707 395.906 429.731 393.396 432.572 391.55C435.413 389.679 438.858 388.744 442.906 388.744C446.694 388.744 449.996 389.573 452.814 391.23C455.631 392.887 457.821 395.255 459.383 398.332C460.946 401.386 461.727 405.032 461.727 409.27V444H446.599V411.969C446.623 408.631 445.77 406.027 444.042 404.156C442.314 402.262 439.935 401.315 436.904 401.315C434.868 401.315 433.069 401.753 431.507 402.629C429.968 403.505 428.76 404.784 427.885 406.464C427.032 408.122 426.594 410.122 426.571 412.466ZM500.031 389.455V400.818H467.183V389.455H500.031ZM474.64 376.386H489.768V427.239C489.768 428.635 489.981 429.724 490.407 430.506C490.834 431.263 491.425 431.796 492.183 432.104C492.964 432.411 493.864 432.565 494.882 432.565C495.592 432.565 496.302 432.506 497.013 432.388C497.723 432.246 498.267 432.139 498.646 432.068L501.025 443.325C500.268 443.562 499.202 443.834 497.829 444.142C496.456 444.473 494.787 444.675 492.822 444.746C489.176 444.888 485.98 444.402 483.234 443.29C480.512 442.177 478.393 440.449 476.878 438.105C475.362 435.761 474.617 432.802 474.64 429.227V376.386ZM522.808 445.03C519.328 445.03 516.226 444.426 513.504 443.219C510.781 441.988 508.627 440.177 507.041 437.786C505.478 435.371 504.697 432.364 504.697 428.766C504.697 425.735 505.253 423.19 506.366 421.131C507.479 419.071 508.994 417.414 510.911 416.159C512.829 414.904 515.007 413.957 517.446 413.318C519.908 412.679 522.488 412.229 525.187 411.969C528.359 411.637 530.916 411.33 532.858 411.045C534.799 410.738 536.207 410.288 537.083 409.696C537.959 409.104 538.397 408.228 538.397 407.068V406.855C538.397 404.606 537.687 402.866 536.267 401.635C534.87 400.404 532.881 399.788 530.301 399.788C527.578 399.788 525.412 400.392 523.802 401.599C522.192 402.783 521.127 404.275 520.606 406.074L506.615 404.938C507.325 401.623 508.722 398.759 510.805 396.344C512.888 393.905 515.575 392.035 518.866 390.733C522.18 389.407 526.016 388.744 530.372 388.744C533.402 388.744 536.302 389.099 539.072 389.81C541.866 390.52 544.34 391.621 546.494 393.112C548.672 394.604 550.388 396.521 551.643 398.865C552.898 401.185 553.525 403.967 553.525 407.21V444H539.179V436.436H538.752C537.876 438.141 536.705 439.644 535.237 440.946C533.769 442.224 532.005 443.231 529.946 443.964C527.886 444.675 525.507 445.03 522.808 445.03ZM527.14 434.589C529.366 434.589 531.331 434.152 533.035 433.276C534.74 432.376 536.077 431.169 537.048 429.653C538.018 428.138 538.504 426.422 538.504 424.504V418.716C538.03 419.024 537.379 419.308 536.551 419.568C535.746 419.805 534.834 420.03 533.816 420.243C532.798 420.432 531.78 420.61 530.762 420.776C529.744 420.918 528.821 421.048 527.992 421.166C526.217 421.427 524.666 421.841 523.34 422.409C522.015 422.977 520.985 423.747 520.251 424.717C519.517 425.664 519.15 426.848 519.15 428.268C519.15 430.328 519.896 431.902 521.387 432.991C522.902 434.057 524.82 434.589 527.14 434.589ZM591.643 389.455V400.818H558.795V389.455H591.643ZM566.252 376.386H581.38V427.239C581.38 428.635 581.593 429.724 582.019 430.506C582.445 431.263 583.037 431.796 583.795 432.104C584.576 432.411 585.476 432.565 586.494 432.565C587.204 432.565 587.914 432.506 588.624 432.388C589.335 432.246 589.879 432.139 590.258 432.068L592.637 443.325C591.88 443.562 590.814 443.834 589.441 444.142C588.068 444.473 586.399 444.675 584.434 444.746C580.788 444.888 577.592 444.402 574.846 443.29C572.123 442.177 570.005 440.449 568.489 438.105C566.974 435.761 566.229 432.802 566.252 429.227V376.386ZM598.866 444V389.455H613.994V444H598.866ZM606.465 382.423C604.216 382.423 602.287 381.678 600.677 380.186C599.091 378.671 598.297 376.86 598.297 374.753C598.297 372.67 599.091 370.882 600.677 369.391C602.287 367.875 604.216 367.118 606.465 367.118C608.714 367.118 610.632 367.875 612.218 369.391C613.828 370.882 614.633 372.67 614.633 374.753C614.633 376.86 613.828 378.671 612.218 380.186C610.632 381.678 608.714 382.423 606.465 382.423ZM648.125 445.065C642.609 445.065 637.839 443.893 633.814 441.55C629.813 439.182 626.724 435.892 624.546 431.678C622.367 427.44 621.278 422.527 621.278 416.94C621.278 411.306 622.367 406.382 624.546 402.168C626.724 397.93 629.813 394.639 633.814 392.295C637.839 389.928 642.609 388.744 648.125 388.744C653.641 388.744 658.4 389.928 662.401 392.295C666.425 394.639 669.527 397.93 671.705 402.168C673.883 406.382 674.972 411.306 674.972 416.94C674.972 422.527 673.883 427.44 671.705 431.678C669.527 435.892 666.425 439.182 662.401 441.55C658.4 443.893 653.641 445.065 648.125 445.065ZM648.196 433.347C650.706 433.347 652.801 432.636 654.482 431.216C656.162 429.772 657.429 427.807 658.281 425.321C659.157 422.835 659.595 420.006 659.595 416.834C659.595 413.661 659.157 410.832 658.281 408.347C657.429 405.861 656.162 403.896 654.482 402.452C652.801 401.008 650.706 400.286 648.196 400.286C645.663 400.286 643.532 401.008 641.804 402.452C640.099 403.896 638.809 405.861 637.933 408.347C637.081 410.832 636.655 413.661 636.655 416.834C636.655 420.006 637.081 422.835 637.933 425.321C638.809 427.807 640.099 429.772 641.804 431.216C643.532 432.636 645.663 433.347 648.196 433.347ZM697.305 412.466V444H682.177V389.455H696.594V399.078H697.234C698.441 395.906 700.465 393.396 703.306 391.55C706.147 389.679 709.592 388.744 713.64 388.744C717.428 388.744 720.73 389.573 723.548 391.23C726.365 392.887 728.555 395.255 730.117 398.332C731.68 401.386 732.461 405.032 732.461 409.27V444H717.333V411.969C717.357 408.631 716.504 406.027 714.776 404.156C713.048 402.262 710.669 401.315 707.638 401.315C705.602 401.315 703.803 401.753 702.241 402.629C700.702 403.505 699.494 404.784 698.619 406.464C697.766 408.122 697.328 410.122 697.305 412.466Z" fill="black"/>
<rect x="71" y="498" width="1038" height="19" fill="black"/>
</svg>
