<svg width="1200" height="900" viewBox="0 0 1200 900" fill="none" xmlns="http://www.w3.org/2000/svg">
<rect width="1200" height="900" fill="white"/>
<path d="M103.102 444H77.321V371.273H103.315C110.631 371.273 116.928 372.729 122.207 375.641C127.487 378.529 131.547 382.684 134.388 388.105C137.252 393.527 138.685 400.013 138.685 407.565C138.685 415.141 137.252 421.652 134.388 427.097C131.547 432.542 127.463 436.72 122.136 439.632C116.833 442.544 110.489 444 103.102 444ZM92.6974 430.825H102.463C107.009 430.825 110.832 430.02 113.933 428.411C117.058 426.777 119.402 424.256 120.964 420.847C122.551 417.414 123.344 412.987 123.344 407.565C123.344 402.191 122.551 397.8 120.964 394.391C119.402 390.982 117.07 388.472 113.969 386.862C110.867 385.252 107.044 384.447 102.499 384.447H92.6974V430.825ZM172.017 445.065C166.406 445.065 161.577 443.929 157.529 441.656C153.504 439.36 150.403 436.116 148.225 431.926C146.047 427.712 144.958 422.729 144.958 416.976C144.958 411.365 146.047 406.441 148.225 402.203C150.403 397.965 153.468 394.663 157.422 392.295C161.399 389.928 166.063 388.744 171.414 388.744C175.012 388.744 178.362 389.324 181.463 390.484C184.588 391.621 187.311 393.337 189.631 395.634C191.975 397.93 193.798 400.818 195.1 404.298C196.402 407.755 197.053 411.803 197.053 416.443V420.598H150.994V411.223H182.813C182.813 409.045 182.339 407.116 181.392 405.435C180.445 403.754 179.131 402.44 177.45 401.493C175.793 400.522 173.864 400.037 171.662 400.037C169.366 400.037 167.33 400.57 165.554 401.635C163.802 402.677 162.429 404.085 161.435 405.861C160.441 407.613 159.932 409.566 159.908 411.72V420.634C159.908 423.332 160.405 425.664 161.399 427.629C162.417 429.594 163.85 431.109 165.696 432.175C167.543 433.24 169.733 433.773 172.266 433.773C173.947 433.773 175.485 433.536 176.882 433.062C178.279 432.589 179.475 431.879 180.469 430.932C181.463 429.985 182.221 428.825 182.742 427.452L196.733 428.375C196.023 431.737 194.567 434.672 192.365 437.182C190.187 439.668 187.37 441.609 183.914 443.006C180.481 444.379 176.515 445.065 172.017 445.065ZM249.677 405.009L235.827 405.861C235.591 404.677 235.082 403.612 234.3 402.665C233.519 401.694 232.489 400.925 231.211 400.357C229.956 399.765 228.453 399.469 226.701 399.469C224.357 399.469 222.38 399.966 220.771 400.96C219.161 401.931 218.356 403.233 218.356 404.866C218.356 406.169 218.877 407.269 219.918 408.169C220.96 409.069 222.747 409.791 225.281 410.335L235.153 412.324C240.456 413.413 244.409 415.165 247.013 417.58C249.618 419.994 250.92 423.167 250.92 427.097C250.92 430.671 249.866 433.808 247.759 436.507C245.676 439.206 242.811 441.313 239.165 442.828C235.543 444.32 231.365 445.065 226.63 445.065C219.409 445.065 213.656 443.562 209.371 440.555C205.11 437.525 202.612 433.406 201.879 428.197L216.758 427.416C217.208 429.618 218.297 431.299 220.025 432.459C221.753 433.595 223.967 434.163 226.665 434.163C229.317 434.163 231.448 433.654 233.058 432.636C234.691 431.595 235.52 430.257 235.543 428.624C235.52 427.25 234.94 426.126 233.803 425.25C232.667 424.35 230.915 423.664 228.548 423.19L219.102 421.308C213.775 420.243 209.809 418.396 207.205 415.768C204.625 413.141 203.334 409.791 203.334 405.719C203.334 402.215 204.281 399.196 206.175 396.663C208.093 394.13 210.78 392.177 214.236 390.804C217.717 389.431 221.789 388.744 226.452 388.744C233.342 388.744 238.763 390.2 242.717 393.112C246.694 396.024 249.014 399.99 249.677 405.009ZM282.459 445.065C276.872 445.065 272.066 443.882 268.041 441.514C264.04 439.123 260.963 435.809 258.808 431.571C256.678 427.333 255.612 422.456 255.612 416.94C255.612 411.353 256.69 406.453 258.844 402.239C261.022 398.001 264.111 394.698 268.112 392.331C272.113 389.94 276.872 388.744 282.388 388.744C287.146 388.744 291.313 389.608 294.888 391.337C298.463 393.065 301.292 395.491 303.375 398.616C305.458 401.741 306.607 405.411 306.82 409.625H292.544C292.142 406.902 291.076 404.713 289.348 403.055C287.644 401.375 285.406 400.534 282.637 400.534C280.293 400.534 278.245 401.173 276.493 402.452C274.765 403.706 273.415 405.541 272.445 407.956C271.474 410.371 270.989 413.295 270.989 416.727C270.989 420.207 271.462 423.167 272.409 425.605C273.38 428.044 274.741 429.902 276.493 431.18C278.245 432.459 280.293 433.098 282.637 433.098C284.365 433.098 285.915 432.743 287.289 432.033C288.685 431.322 289.833 430.293 290.733 428.943C291.656 427.57 292.26 425.925 292.544 424.007H306.82C306.583 428.174 305.447 431.843 303.411 435.016C301.398 438.164 298.617 440.626 295.065 442.402C291.514 444.178 287.312 445.065 282.459 445.065ZM329.002 412.466V444H313.874V371.273H328.576V399.078H329.215C330.446 395.858 332.434 393.337 335.181 391.514C337.927 389.668 341.372 388.744 345.515 388.744C349.302 388.744 352.605 389.573 355.422 391.23C358.263 392.864 360.465 395.219 362.027 398.297C363.613 401.351 364.395 405.009 364.371 409.27V444H349.243V411.969C349.267 408.607 348.415 405.991 346.686 404.121C344.982 402.25 342.591 401.315 339.513 401.315C337.453 401.315 335.631 401.753 334.044 402.629C332.482 403.505 331.251 404.784 330.351 406.464C329.475 408.122 329.025 410.122 329.002 412.466ZM398.503 445.065C392.892 445.065 388.062 443.929 384.014 441.656C379.989 439.36 376.888 436.116 374.71 431.926C372.532 427.712 371.443 422.729 371.443 416.976C371.443 411.365 372.532 406.441 374.71 402.203C376.888 397.965 379.954 394.663 383.907 392.295C387.885 389.928 392.549 388.744 397.899 388.744C401.497 388.744 404.847 389.324 407.949 390.484C411.074 391.621 413.796 393.337 416.116 395.634C418.46 397.93 420.283 400.818 421.585 404.298C422.887 407.755 423.538 411.803 423.538 416.443V420.598H377.48V411.223H409.298C409.298 409.045 408.825 407.116 407.878 405.435C406.931 403.754 405.617 402.44 403.936 401.493C402.279 400.522 400.349 400.037 398.148 400.037C395.851 400.037 393.815 400.57 392.04 401.635C390.288 402.677 388.915 404.085 387.92 405.861C386.926 407.613 386.417 409.566 386.393 411.72V420.634C386.393 423.332 386.89 425.664 387.885 427.629C388.903 429.594 390.335 431.109 392.182 432.175C394.028 433.24 396.218 433.773 398.751 433.773C400.432 433.773 401.971 433.536 403.368 433.062C404.764 432.589 405.96 431.879 406.954 430.932C407.949 429.985 408.706 428.825 409.227 427.452L423.219 428.375C422.508 431.737 421.052 434.672 418.851 437.182C416.673 439.668 413.855 441.609 410.399 443.006C406.966 444.379 403.001 445.065 398.503 445.065ZM450.878 444.888C446.735 444.888 442.983 443.822 439.621 441.692C436.283 439.537 433.631 436.377 431.667 432.21C429.725 428.02 428.755 422.883 428.755 416.798C428.755 410.548 429.761 405.352 431.773 401.209C433.785 397.042 436.461 393.929 439.799 391.869C443.16 389.786 446.842 388.744 450.843 388.744C453.897 388.744 456.442 389.265 458.478 390.307C460.537 391.325 462.194 392.603 463.449 394.142C464.728 395.657 465.698 397.149 466.361 398.616H466.823V371.273H481.915V444H467V435.264H466.361C465.651 436.779 464.645 438.283 463.343 439.774C462.064 441.242 460.395 442.461 458.336 443.432C456.3 444.402 453.814 444.888 450.878 444.888ZM455.672 432.849C458.111 432.849 460.17 432.187 461.851 430.861C463.556 429.511 464.858 427.629 465.757 425.214C466.681 422.8 467.142 419.971 467.142 416.727C467.142 413.484 466.693 410.667 465.793 408.276C464.893 405.884 463.591 404.038 461.887 402.736C460.182 401.434 458.111 400.783 455.672 400.783C453.186 400.783 451.091 401.457 449.387 402.807C447.682 404.156 446.392 406.027 445.516 408.418C444.64 410.809 444.202 413.579 444.202 416.727C444.202 419.9 444.64 422.705 445.516 425.143C446.416 427.558 447.706 429.452 449.387 430.825C451.091 432.175 453.186 432.849 455.672 432.849ZM526.7 420.776V389.455H541.828V444H527.304V434.092H526.736C525.504 437.288 523.457 439.857 520.592 441.798C517.751 443.74 514.283 444.71 510.187 444.71C506.541 444.71 503.334 443.882 500.564 442.224C497.794 440.567 495.628 438.212 494.065 435.158C492.526 432.104 491.745 428.446 491.721 424.185V389.455H506.849V421.486C506.873 424.705 507.737 427.25 509.442 429.121C511.146 430.991 513.431 431.926 516.295 431.926C518.118 431.926 519.823 431.512 521.409 430.683C522.995 429.831 524.273 428.576 525.244 426.919C526.238 425.262 526.724 423.214 526.7 420.776ZM566.425 371.273V444H551.297V371.273H566.425ZM600.769 445.065C595.158 445.065 590.329 443.929 586.281 441.656C582.256 439.36 579.155 436.116 576.977 431.926C574.799 427.712 573.71 422.729 573.71 416.976C573.71 411.365 574.799 406.441 576.977 402.203C579.155 397.965 582.221 394.663 586.174 392.295C590.151 389.928 594.815 388.744 600.166 388.744C603.764 388.744 607.114 389.324 610.215 390.484C613.34 391.621 616.063 393.337 618.383 395.634C620.727 397.93 622.55 400.818 623.852 404.298C625.154 407.755 625.805 411.803 625.805 416.443V420.598H579.747V411.223H611.565C611.565 409.045 611.091 407.116 610.144 405.435C609.197 403.754 607.883 402.44 606.203 401.493C604.545 400.522 602.616 400.037 600.414 400.037C598.118 400.037 596.082 400.57 594.306 401.635C592.554 402.677 591.181 404.085 590.187 405.861C589.193 407.613 588.684 409.566 588.66 411.72V420.634C588.66 423.332 589.157 425.664 590.151 427.629C591.169 429.594 592.602 431.109 594.448 432.175C596.295 433.24 598.485 433.773 601.018 433.773C602.699 433.773 604.238 433.536 605.634 433.062C607.031 432.589 608.227 431.879 609.221 430.932C610.215 429.985 610.973 428.825 611.494 427.452L625.485 428.375C624.775 431.737 623.319 434.672 621.117 437.182C618.939 439.668 616.122 441.609 612.666 443.006C609.233 444.379 605.267 445.065 600.769 445.065ZM633.045 444V389.455H647.712V398.972H648.28C649.274 395.586 650.943 393.029 653.287 391.301C655.631 389.549 658.329 388.673 661.383 388.673C662.141 388.673 662.958 388.721 663.834 388.815C664.71 388.91 665.479 389.04 666.142 389.206V402.629C665.432 402.416 664.449 402.227 663.195 402.061C661.94 401.895 660.792 401.812 659.75 401.812C657.525 401.812 655.536 402.298 653.784 403.268C652.056 404.215 650.683 405.541 649.665 407.246C648.67 408.95 648.173 410.915 648.173 413.141V444H633.045Z" fill="black"/>
<rect x="71" y="498" width="1038" height="19" fill="black"/>
</svg>
