<svg width="1200" height="900" viewBox="0 0 1200 900" fill="none" xmlns="http://www.w3.org/2000/svg">
<rect width="1200" height="900" fill="white"/>
<path d="M77.321 449H92.6974V428.332L100.261 419.099L120.183 449H138.578L111.27 408.837L138.259 376.273H119.828L93.6562 408.339H92.6974V376.273H77.321V449ZM174.911 425.776C174.947 433.091 169.94 436.926 164.507 436.926C158.789 436.926 155.096 432.913 155.061 426.486V394.455H139.933V429.185C139.968 441.933 147.426 449.71 158.399 449.71C166.602 449.71 172.497 445.484 174.947 439.092H175.515V449H190.039V394.455H174.911V425.776ZM199.792 449H214.707V440.264H215.382C217.477 444.81 222.058 449.888 230.865 449.888C243.294 449.888 252.988 440.051 252.988 421.798C252.988 403.048 242.868 393.744 230.9 393.744C221.774 393.744 217.406 399.178 215.382 403.616H214.92V376.273H199.792V449ZM214.6 421.727C214.6 411.997 218.72 405.783 226.071 405.783C233.564 405.783 237.541 412.281 237.541 421.727C237.541 431.244 233.493 437.849 226.071 437.849C218.791 437.849 214.6 431.457 214.6 421.727ZM285.309 450.065C298.803 450.065 307.894 443.496 310.025 433.375L296.033 432.452C294.506 436.607 290.6 438.773 285.557 438.773C277.993 438.773 273.199 433.766 273.199 425.634V425.598H310.344V421.443C310.344 402.906 299.123 393.744 284.705 393.744C268.654 393.744 258.249 405.143 258.249 421.976C258.249 439.27 268.512 450.065 285.309 450.065ZM273.199 416.223C273.519 410.009 278.242 405.037 284.954 405.037C291.523 405.037 296.069 409.724 296.104 416.223H273.199ZM317.585 449H332.713V418.141C332.713 411.429 337.613 406.812 344.289 406.812C346.385 406.812 349.261 407.168 350.681 407.629V394.206C349.332 393.886 347.45 393.673 345.923 393.673C339.815 393.673 334.808 397.224 332.819 403.972H332.251V394.455H317.585V449ZM370.999 417.466C371.035 410.435 375.225 406.315 381.333 406.315C387.405 406.315 391.063 410.293 391.027 416.969V449H406.155V414.27C406.155 401.557 398.698 393.744 387.334 393.744C379.238 393.744 373.378 397.722 370.928 404.078H370.289V394.455H355.871V449H370.999V417.466ZM440.305 450.065C453.799 450.065 462.89 443.496 465.021 433.375L451.029 432.452C449.502 436.607 445.596 438.773 440.553 438.773C432.989 438.773 428.195 433.766 428.195 425.634V425.598H465.34V421.443C465.34 402.906 454.119 393.744 439.701 393.744C423.65 393.744 413.245 405.143 413.245 421.976C413.245 439.27 423.508 450.065 440.305 450.065ZM428.195 416.223C428.515 410.009 433.238 405.037 439.95 405.037C446.519 405.037 451.065 409.724 451.1 416.223H428.195ZM501.594 394.455H491.331V381.386H476.203V394.455H468.745V405.818H476.203V434.227C476.132 444.916 483.412 450.207 494.385 449.746C498.291 449.604 501.061 448.822 502.588 448.325L500.209 437.068C499.463 437.21 497.865 437.565 496.444 437.565C493.426 437.565 491.331 436.429 491.331 432.239V405.818H501.594V394.455ZM533.088 450.065C546.583 450.065 555.674 443.496 557.804 433.375L543.813 432.452C542.286 436.607 538.38 438.773 533.337 438.773C525.773 438.773 520.979 433.766 520.979 425.634V425.598H558.124V421.443C558.124 402.906 546.902 393.744 532.485 393.744C516.434 393.744 506.029 405.143 506.029 421.976C506.029 439.27 516.291 450.065 533.088 450.065ZM520.979 416.223C521.299 410.009 526.022 405.037 532.733 405.037C539.303 405.037 543.848 409.724 543.884 416.223H520.979ZM610.748 410.009C609.399 399.959 601.302 393.744 587.524 393.744C573.568 393.744 564.37 400.207 564.406 410.719C564.37 418.886 569.519 424.178 580.173 426.308L589.619 428.19C594.377 429.149 596.543 430.889 596.614 433.624C596.543 436.855 593.028 439.163 587.737 439.163C582.339 439.163 578.752 436.855 577.829 432.416L562.95 433.197C564.37 443.638 573.248 450.065 587.701 450.065C601.835 450.065 611.955 442.857 611.991 432.097C611.955 424.213 606.806 419.49 596.224 417.324L586.352 415.335C581.274 414.234 579.391 412.494 579.427 409.866C579.391 406.599 583.085 404.469 587.772 404.469C593.028 404.469 596.153 407.345 596.899 410.861L610.748 410.009ZM684.782 410.009C683.432 399.959 675.336 393.744 661.557 393.744C647.601 393.744 638.404 400.207 638.439 410.719C638.404 418.886 643.553 424.178 654.206 426.308L663.652 428.19C668.411 429.149 670.577 430.889 670.648 433.624C670.577 436.855 667.061 439.163 661.77 439.163C656.373 439.163 652.786 436.855 651.863 432.416L636.983 433.197C638.404 443.638 647.282 450.065 661.735 450.065C675.868 450.065 685.989 442.857 686.025 432.097C685.989 424.213 680.84 419.49 670.258 417.324L660.385 415.335C655.307 414.234 653.425 412.494 653.461 409.866C653.425 406.599 657.118 404.469 661.806 404.469C667.061 404.469 670.186 407.345 670.932 410.861L684.782 410.009ZM717.564 450.065C732.088 450.065 741.214 441.543 741.925 429.007H727.649C726.761 434.831 722.926 438.098 717.741 438.098C710.675 438.098 706.094 432.168 706.094 421.727C706.094 411.429 710.71 405.534 717.741 405.534C723.281 405.534 726.832 409.192 727.649 414.625H741.925C741.285 402.018 731.733 393.744 717.493 393.744C700.945 393.744 690.717 405.214 690.717 421.94C690.717 438.524 700.767 450.065 717.564 450.065ZM764.107 417.466C764.142 410.435 768.439 406.315 774.618 406.315C780.761 406.315 784.384 410.257 784.348 416.969V449H799.476V414.27C799.511 401.486 791.983 393.744 780.619 393.744C772.345 393.744 766.805 397.651 764.32 404.078H763.68V376.273H748.979V449H764.107V417.466ZM833.607 450.065C847.102 450.065 856.193 443.496 858.323 433.375L844.332 432.452C842.805 436.607 838.899 438.773 833.856 438.773C826.292 438.773 821.498 433.766 821.498 425.634V425.598H858.643V421.443C858.643 402.906 847.421 393.744 833.004 393.744C816.953 393.744 806.548 405.143 806.548 421.976C806.548 439.27 816.811 450.065 833.607 450.065ZM821.498 416.223C821.818 410.009 826.541 405.037 833.252 405.037C839.822 405.037 844.367 409.724 844.403 416.223H821.498ZM885.983 449.888C894.79 449.888 899.371 444.81 901.466 440.264H902.105V449H917.02V376.273H901.928V403.616H901.466C899.442 399.178 895.074 393.744 885.947 393.744C873.98 393.744 863.859 403.048 863.859 421.798C863.859 440.051 873.554 449.888 885.983 449.888ZM890.777 437.849C883.355 437.849 879.307 431.244 879.307 421.727C879.307 412.281 883.284 405.783 890.777 405.783C898.128 405.783 902.247 411.997 902.247 421.727C902.247 431.457 898.057 437.849 890.777 437.849ZM961.805 425.776C961.84 433.091 956.833 436.926 951.4 436.926C945.683 436.926 941.99 432.913 941.954 426.486V394.455H926.826V429.185C926.862 441.933 934.319 449.71 945.292 449.71C953.495 449.71 959.39 445.484 961.84 439.092H962.409V449H976.933V394.455H961.805V425.776ZM1001.53 376.273H986.402V449H1001.53V376.273ZM1035.87 450.065C1049.37 450.065 1058.46 443.496 1060.59 433.375L1046.6 432.452C1045.07 436.607 1041.17 438.773 1036.12 438.773C1028.56 438.773 1023.76 433.766 1023.76 425.634V425.598H1060.91V421.443C1060.91 402.906 1049.69 393.744 1035.27 393.744C1019.22 393.744 1008.81 405.143 1008.81 421.976C1008.81 439.27 1019.08 450.065 1035.87 450.065ZM1023.76 416.223C1024.08 410.009 1028.81 405.037 1035.52 405.037C1042.09 405.037 1046.63 409.724 1046.67 416.223H1023.76ZM1068.15 449H1083.28V418.141C1083.28 411.429 1088.18 406.812 1094.85 406.812C1096.95 406.812 1099.83 407.168 1101.25 407.629V394.206C1099.9 393.886 1098.02 393.673 1096.49 393.673C1090.38 393.673 1085.37 397.224 1083.38 403.972H1082.82V394.455H1068.15V449Z" fill="black"/>
<rect x="71" y="498" width="1038" height="19" fill="black"/>
</svg>
