<svg width="1200" height="900" viewBox="0 0 1200 900" fill="none" xmlns="http://www.w3.org/2000/svg">
<rect width="1200" height="900" fill="white"/>
<path d="M103.102 444H77.321V371.273H103.315C110.631 371.273 116.928 372.729 122.207 375.641C127.487 378.529 131.547 382.684 134.388 388.105C137.252 393.527 138.685 400.013 138.685 407.565C138.685 415.141 137.252 421.652 134.388 427.097C131.547 432.542 127.463 436.72 122.136 439.632C116.833 442.544 110.489 444 103.102 444ZM92.6974 430.825H102.463C107.009 430.825 110.832 430.02 113.933 428.411C117.058 426.777 119.402 424.256 120.964 420.847C122.551 417.414 123.344 412.987 123.344 407.565C123.344 402.191 122.551 397.8 120.964 394.391C119.402 390.982 117.07 388.472 113.969 386.862C110.867 385.252 107.044 384.447 102.499 384.447H92.6974V430.825ZM172.017 445.065C166.406 445.065 161.577 443.929 157.529 441.656C153.504 439.36 150.403 436.116 148.225 431.926C146.047 427.712 144.958 422.729 144.958 416.976C144.958 411.365 146.047 406.441 148.225 402.203C150.403 397.965 153.468 394.663 157.422 392.295C161.399 389.928 166.063 388.744 171.414 388.744C175.012 388.744 178.362 389.324 181.463 390.484C184.588 391.621 187.311 393.337 189.631 395.634C191.975 397.93 193.798 400.818 195.1 404.298C196.402 407.755 197.053 411.803 197.053 416.443V420.598H150.994V411.223H182.813C182.813 409.045 182.339 407.116 181.392 405.435C180.445 403.754 179.131 402.44 177.45 401.493C175.793 400.522 173.864 400.037 171.662 400.037C169.366 400.037 167.33 400.57 165.554 401.635C163.802 402.677 162.429 404.085 161.435 405.861C160.441 407.613 159.932 409.566 159.908 411.72V420.634C159.908 423.332 160.405 425.664 161.399 427.629C162.417 429.594 163.85 431.109 165.696 432.175C167.543 433.24 169.733 433.773 172.266 433.773C173.947 433.773 175.485 433.536 176.882 433.062C178.279 432.589 179.475 431.879 180.469 430.932C181.463 429.985 182.221 428.825 182.742 427.452L196.733 428.375C196.023 431.737 194.567 434.672 192.365 437.182C190.187 439.668 187.37 441.609 183.914 443.006C180.481 444.379 176.515 445.065 172.017 445.065ZM249.677 405.009L235.827 405.861C235.591 404.677 235.082 403.612 234.3 402.665C233.519 401.694 232.489 400.925 231.211 400.357C229.956 399.765 228.453 399.469 226.701 399.469C224.357 399.469 222.38 399.966 220.771 400.96C219.161 401.931 218.356 403.233 218.356 404.866C218.356 406.169 218.877 407.269 219.918 408.169C220.96 409.069 222.747 409.791 225.281 410.335L235.153 412.324C240.456 413.413 244.409 415.165 247.013 417.58C249.618 419.994 250.92 423.167 250.92 427.097C250.92 430.671 249.866 433.808 247.759 436.507C245.676 439.206 242.811 441.313 239.165 442.828C235.543 444.32 231.365 445.065 226.63 445.065C219.409 445.065 213.656 443.562 209.371 440.555C205.11 437.525 202.612 433.406 201.879 428.197L216.758 427.416C217.208 429.618 218.297 431.299 220.025 432.459C221.753 433.595 223.967 434.163 226.665 434.163C229.317 434.163 231.448 433.654 233.058 432.636C234.691 431.595 235.52 430.257 235.543 428.624C235.52 427.25 234.94 426.126 233.803 425.25C232.667 424.35 230.915 423.664 228.548 423.19L219.102 421.308C213.775 420.243 209.809 418.396 207.205 415.768C204.625 413.141 203.334 409.791 203.334 405.719C203.334 402.215 204.281 399.196 206.175 396.663C208.093 394.13 210.78 392.177 214.236 390.804C217.717 389.431 221.789 388.744 226.452 388.744C233.342 388.744 238.763 390.2 242.717 393.112C246.694 396.024 249.014 399.99 249.677 405.009ZM282.459 445.065C276.872 445.065 272.066 443.882 268.041 441.514C264.04 439.123 260.963 435.809 258.808 431.571C256.678 427.333 255.612 422.456 255.612 416.94C255.612 411.353 256.69 406.453 258.844 402.239C261.022 398.001 264.111 394.698 268.112 392.331C272.113 389.94 276.872 388.744 282.388 388.744C287.146 388.744 291.313 389.608 294.888 391.337C298.463 393.065 301.292 395.491 303.375 398.616C305.458 401.741 306.607 405.411 306.82 409.625H292.544C292.142 406.902 291.076 404.713 289.348 403.055C287.644 401.375 285.406 400.534 282.637 400.534C280.293 400.534 278.245 401.173 276.493 402.452C274.765 403.706 273.415 405.541 272.445 407.956C271.474 410.371 270.989 413.295 270.989 416.727C270.989 420.207 271.462 423.167 272.409 425.605C273.38 428.044 274.741 429.902 276.493 431.18C278.245 432.459 280.293 433.098 282.637 433.098C284.365 433.098 285.915 432.743 287.289 432.033C288.685 431.322 289.833 430.293 290.733 428.943C291.656 427.57 292.26 425.925 292.544 424.007H306.82C306.583 428.174 305.447 431.843 303.411 435.016C301.398 438.164 298.617 440.626 295.065 442.402C291.514 444.178 287.312 445.065 282.459 445.065ZM329.002 412.466V444H313.874V371.273H328.576V399.078H329.215C330.446 395.858 332.434 393.337 335.181 391.514C337.927 389.668 341.372 388.744 345.515 388.744C349.302 388.744 352.605 389.573 355.422 391.23C358.263 392.864 360.465 395.219 362.027 398.297C363.613 401.351 364.395 405.009 364.371 409.27V444H349.243V411.969C349.267 408.607 348.415 405.991 346.686 404.121C344.982 402.25 342.591 401.315 339.513 401.315C337.453 401.315 335.631 401.753 334.044 402.629C332.482 403.505 331.251 404.784 330.351 406.464C329.475 408.122 329.025 410.122 329.002 412.466ZM398.503 445.065C392.892 445.065 388.062 443.929 384.014 441.656C379.989 439.36 376.888 436.116 374.71 431.926C372.532 427.712 371.443 422.729 371.443 416.976C371.443 411.365 372.532 406.441 374.71 402.203C376.888 397.965 379.954 394.663 383.907 392.295C387.885 389.928 392.549 388.744 397.899 388.744C401.497 388.744 404.847 389.324 407.949 390.484C411.074 391.621 413.796 393.337 416.116 395.634C418.46 397.93 420.283 400.818 421.585 404.298C422.887 407.755 423.538 411.803 423.538 416.443V420.598H377.48V411.223H409.298C409.298 409.045 408.825 407.116 407.878 405.435C406.931 403.754 405.617 402.44 403.936 401.493C402.279 400.522 400.349 400.037 398.148 400.037C395.851 400.037 393.815 400.57 392.04 401.635C390.288 402.677 388.915 404.085 387.92 405.861C386.926 407.613 386.417 409.566 386.393 411.72V420.634C386.393 423.332 386.89 425.664 387.885 427.629C388.903 429.594 390.335 431.109 392.182 432.175C394.028 433.24 396.218 433.773 398.751 433.773C400.432 433.773 401.971 433.536 403.368 433.062C404.764 432.589 405.96 431.879 406.954 430.932C407.949 429.985 408.706 428.825 409.227 427.452L423.219 428.375C422.508 431.737 421.052 434.672 418.851 437.182C416.673 439.668 413.855 441.609 410.399 443.006C406.966 444.379 403.001 445.065 398.503 445.065ZM450.878 444.888C446.735 444.888 442.983 443.822 439.621 441.692C436.283 439.537 433.631 436.377 431.667 432.21C429.725 428.02 428.755 422.883 428.755 416.798C428.755 410.548 429.761 405.352 431.773 401.209C433.785 397.042 436.461 393.929 439.799 391.869C443.16 389.786 446.842 388.744 450.843 388.744C453.897 388.744 456.442 389.265 458.478 390.307C460.537 391.325 462.194 392.603 463.449 394.142C464.728 395.657 465.698 397.149 466.361 398.616H466.823V371.273H481.915V444H467V435.264H466.361C465.651 436.779 464.645 438.283 463.343 439.774C462.064 441.242 460.395 442.461 458.336 443.432C456.3 444.402 453.814 444.888 450.878 444.888ZM455.672 432.849C458.111 432.849 460.17 432.187 461.851 430.861C463.556 429.511 464.858 427.629 465.757 425.214C466.681 422.8 467.142 419.971 467.142 416.727C467.142 413.484 466.693 410.667 465.793 408.276C464.893 405.884 463.591 404.038 461.887 402.736C460.182 401.434 458.111 400.783 455.672 400.783C453.186 400.783 451.091 401.457 449.387 402.807C447.682 404.156 446.392 406.027 445.516 408.418C444.64 410.809 444.202 413.579 444.202 416.727C444.202 419.9 444.64 422.705 445.516 425.143C446.416 427.558 447.706 429.452 449.387 430.825C451.091 432.175 453.186 432.849 455.672 432.849ZM526.7 420.776V389.455H541.828V444H527.304V434.092H526.736C525.504 437.288 523.457 439.857 520.592 441.798C517.751 443.74 514.283 444.71 510.187 444.71C506.541 444.71 503.334 443.882 500.564 442.224C497.794 440.567 495.628 438.212 494.065 435.158C492.526 432.104 491.745 428.446 491.721 424.185V389.455H506.849V421.486C506.873 424.705 507.737 427.25 509.442 429.121C511.146 430.991 513.431 431.926 516.295 431.926C518.118 431.926 519.823 431.512 521.409 430.683C522.995 429.831 524.273 428.576 525.244 426.919C526.238 425.262 526.724 423.214 526.7 420.776ZM566.425 371.273V444H551.297V371.273H566.425ZM600.769 445.065C595.158 445.065 590.329 443.929 586.281 441.656C582.256 439.36 579.155 436.116 576.977 431.926C574.799 427.712 573.71 422.729 573.71 416.976C573.71 411.365 574.799 406.441 576.977 402.203C579.155 397.965 582.221 394.663 586.174 392.295C590.151 389.928 594.815 388.744 600.166 388.744C603.764 388.744 607.114 389.324 610.215 390.484C613.34 391.621 616.063 393.337 618.383 395.634C620.727 397.93 622.55 400.818 623.852 404.298C625.154 407.755 625.805 411.803 625.805 416.443V420.598H579.747V411.223H611.565C611.565 409.045 611.091 407.116 610.144 405.435C609.197 403.754 607.883 402.44 606.203 401.493C604.545 400.522 602.616 400.037 600.414 400.037C598.118 400.037 596.082 400.57 594.306 401.635C592.554 402.677 591.181 404.085 590.187 405.861C589.193 407.613 588.684 409.566 588.66 411.72V420.634C588.66 423.332 589.157 425.664 590.151 427.629C591.169 429.594 592.602 431.109 594.448 432.175C596.295 433.24 598.485 433.773 601.018 433.773C602.699 433.773 604.238 433.536 605.634 433.062C607.031 432.589 608.227 431.879 609.221 430.932C610.215 429.985 610.973 428.825 611.494 427.452L625.485 428.375C624.775 431.737 623.319 434.672 621.117 437.182C618.939 439.668 616.122 441.609 612.666 443.006C609.233 444.379 605.267 445.065 600.769 445.065ZM633.045 444V389.455H647.712V398.972H648.28C649.274 395.586 650.943 393.029 653.287 391.301C655.631 389.549 658.329 388.673 661.383 388.673C662.141 388.673 662.958 388.721 663.834 388.815C664.71 388.91 665.479 389.04 666.142 389.206V402.629C665.432 402.416 664.449 402.227 663.195 402.061C661.94 401.895 660.792 401.812 659.75 401.812C657.525 401.812 655.536 402.298 653.784 403.268C652.056 404.215 650.683 405.541 649.665 407.246C648.67 408.95 648.173 410.915 648.173 413.141V444H633.045ZM691.845 464.455V389.455H706.76V398.616H707.434C708.097 397.149 709.056 395.657 710.311 394.142C711.589 392.603 713.246 391.325 715.282 390.307C717.342 389.265 719.899 388.744 722.953 388.744C726.93 388.744 730.599 389.786 733.961 391.869C737.323 393.929 740.01 397.042 742.022 401.209C744.035 405.352 745.041 410.548 745.041 416.798C745.041 422.883 744.058 428.02 742.093 432.21C740.152 436.377 737.501 439.537 734.139 441.692C730.801 443.822 727.06 444.888 722.917 444.888C719.982 444.888 717.484 444.402 715.424 443.432C713.388 442.461 711.719 441.242 710.417 439.774C709.115 438.283 708.121 436.779 707.434 435.264H706.973V464.455H691.845ZM706.653 416.727C706.653 419.971 707.103 422.8 708.002 425.214C708.902 427.629 710.204 429.511 711.909 430.861C713.613 432.187 715.685 432.849 718.123 432.849C720.585 432.849 722.669 432.175 724.373 430.825C726.078 429.452 727.368 427.558 728.244 425.143C729.144 422.705 729.593 419.9 729.593 416.727C729.593 413.579 729.155 410.809 728.279 408.418C727.403 406.027 726.113 404.156 724.409 402.807C722.704 401.457 720.609 400.783 718.123 400.783C715.661 400.783 713.578 401.434 711.873 402.736C710.192 404.038 708.902 405.884 708.002 408.276C707.103 410.667 706.653 413.484 706.653 416.727ZM777.139 445.065C771.623 445.065 766.853 443.893 762.828 441.55C758.827 439.182 755.738 435.892 753.56 431.678C751.382 427.44 750.293 422.527 750.293 416.94C750.293 411.306 751.382 406.382 753.56 402.168C755.738 397.93 758.827 394.639 762.828 392.295C766.853 389.928 771.623 388.744 777.139 388.744C782.655 388.744 787.414 389.928 791.415 392.295C795.439 394.639 798.541 397.93 800.719 402.168C802.897 406.382 803.986 411.306 803.986 416.94C803.986 422.527 802.897 427.44 800.719 431.678C798.541 435.892 795.439 439.182 791.415 441.55C787.414 443.893 782.655 445.065 777.139 445.065ZM777.21 433.347C779.72 433.347 781.815 432.636 783.496 431.216C785.177 429.772 786.443 427.807 787.296 425.321C788.171 422.835 788.609 420.006 788.609 416.834C788.609 413.661 788.171 410.832 787.296 408.347C786.443 405.861 785.177 403.896 783.496 402.452C781.815 401.008 779.72 400.286 777.21 400.286C774.677 400.286 772.546 401.008 770.818 402.452C769.114 403.896 767.823 405.861 766.948 408.347C766.095 410.832 765.669 413.661 765.669 416.834C765.669 420.006 766.095 422.835 766.948 425.321C767.823 427.807 769.114 429.772 770.818 431.216C772.546 432.636 774.677 433.347 777.21 433.347ZM826.319 371.273V444H811.191V371.273H826.319ZM835.805 444V389.455H850.933V444H835.805ZM843.405 382.423C841.156 382.423 839.226 381.678 837.617 380.186C836.03 378.671 835.237 376.86 835.237 374.753C835.237 372.67 836.03 370.882 837.617 369.391C839.226 367.875 841.156 367.118 843.405 367.118C845.654 367.118 847.572 367.875 849.158 369.391C850.768 370.882 851.572 372.67 851.572 374.753C851.572 376.86 850.768 378.671 849.158 380.186C847.572 381.678 845.654 382.423 843.405 382.423ZM885.065 445.065C879.478 445.065 874.672 443.882 870.647 441.514C866.646 439.123 863.569 435.809 861.414 431.571C859.284 427.333 858.218 422.456 858.218 416.94C858.218 411.353 859.295 406.453 861.45 402.239C863.628 398.001 866.717 394.698 870.718 392.331C874.719 389.94 879.478 388.744 884.994 388.744C889.752 388.744 893.919 389.608 897.494 391.337C901.069 393.065 903.898 395.491 905.981 398.616C908.064 401.741 909.213 405.411 909.426 409.625H895.15C894.748 406.902 893.682 404.713 891.954 403.055C890.249 401.375 888.012 400.534 885.242 400.534C882.899 400.534 880.851 401.173 879.099 402.452C877.371 403.706 876.021 405.541 875.051 407.956C874.08 410.371 873.595 413.295 873.595 416.727C873.595 420.207 874.068 423.167 875.015 425.605C875.986 428.044 877.347 429.902 879.099 431.18C880.851 432.459 882.899 433.098 885.242 433.098C886.971 433.098 888.521 432.743 889.894 432.033C891.291 431.322 892.439 430.293 893.339 428.943C894.262 427.57 894.866 425.925 895.15 424.007H909.426C909.189 428.174 908.053 431.843 906.017 435.016C904.004 438.164 901.222 440.626 897.671 442.402C894.12 444.178 889.918 445.065 885.065 445.065ZM916.48 444V389.455H931.608V444H916.48ZM924.079 382.423C921.83 382.423 919.901 381.678 918.291 380.186C916.705 378.671 915.912 376.86 915.912 374.753C915.912 372.67 916.705 370.882 918.291 369.391C919.901 367.875 921.83 367.118 924.079 367.118C926.328 367.118 928.246 367.875 929.832 369.391C931.442 370.882 932.247 372.67 932.247 374.753C932.247 376.86 931.442 378.671 929.832 380.186C928.246 381.678 926.328 382.423 924.079 382.423ZM965.952 445.065C960.341 445.065 955.512 443.929 951.464 441.656C947.439 439.36 944.338 436.116 942.16 431.926C939.982 427.712 938.893 422.729 938.893 416.976C938.893 411.365 939.982 406.441 942.16 402.203C944.338 397.965 947.403 394.663 951.357 392.295C955.334 389.928 959.998 388.744 965.349 388.744C968.947 388.744 972.297 389.324 975.398 390.484C978.523 391.621 981.246 393.337 983.566 395.634C985.91 397.93 987.733 400.818 989.035 404.298C990.337 407.755 990.988 411.803 990.988 416.443V420.598H944.93V411.223H976.748C976.748 409.045 976.274 407.116 975.327 405.435C974.38 403.754 973.066 402.44 971.385 401.493C969.728 400.522 967.799 400.037 965.597 400.037C963.301 400.037 961.265 400.57 959.489 401.635C957.737 402.677 956.364 404.085 955.37 405.861C954.376 407.613 953.867 409.566 953.843 411.72V420.634C953.843 423.332 954.34 425.664 955.334 427.629C956.352 429.594 957.785 431.109 959.631 432.175C961.478 433.24 963.668 433.773 966.201 433.773C967.882 433.773 969.421 433.536 970.817 433.062C972.214 432.589 973.41 431.879 974.404 430.932C975.398 429.985 976.156 428.825 976.677 427.452L990.668 428.375C989.958 431.737 988.502 434.672 986.3 437.182C984.122 439.668 981.305 441.609 977.849 443.006C974.416 444.379 970.45 445.065 965.952 445.065ZM1043.61 405.009L1029.76 405.861C1029.53 404.677 1029.02 403.612 1028.24 402.665C1027.45 401.694 1026.42 400.925 1025.15 400.357C1023.89 399.765 1022.39 399.469 1020.64 399.469C1018.29 399.469 1016.32 399.966 1014.71 400.96C1013.1 401.931 1012.29 403.233 1012.29 404.866C1012.29 406.169 1012.81 407.269 1013.85 408.169C1014.9 409.069 1016.68 409.791 1019.22 410.335L1029.09 412.324C1034.39 413.413 1038.34 415.165 1040.95 417.58C1043.55 419.994 1044.85 423.167 1044.85 427.097C1044.85 430.671 1043.8 433.808 1041.69 436.507C1039.61 439.206 1036.75 441.313 1033.1 442.828C1029.48 444.32 1025.3 445.065 1020.56 445.065C1013.34 445.065 1007.59 443.562 1003.31 440.555C999.045 437.525 996.547 433.406 995.814 428.197L1010.69 427.416C1011.14 429.618 1012.23 431.299 1013.96 432.459C1015.69 433.595 1017.9 434.163 1020.6 434.163C1023.25 434.163 1025.38 433.654 1026.99 432.636C1028.63 431.595 1029.45 430.257 1029.48 428.624C1029.45 427.25 1028.87 426.126 1027.74 425.25C1026.6 424.35 1024.85 423.664 1022.48 423.19L1013.04 421.308C1007.71 420.243 1003.74 418.396 1001.14 415.768C998.56 413.141 997.27 409.791 997.27 405.719C997.27 402.215 998.217 399.196 1000.11 396.663C1002.03 394.13 1004.72 392.177 1008.17 390.804C1011.65 389.431 1015.72 388.744 1020.39 388.744C1027.28 388.744 1032.7 390.2 1036.65 393.112C1040.63 396.024 1042.95 399.99 1043.61 405.009Z" fill="black"/>
<rect x="71" y="498" width="1038" height="19" fill="black"/>
</svg>
