<svg width="1200" height="900" viewBox="0 0 1200 900" fill="none" xmlns="http://www.w3.org/2000/svg">
<g clip-path="url(#clip0_1_4612)">
<rect width="1200" height="900" fill="white"/>
<ellipse cx="692" cy="900" rx="764" ry="179" fill="url(#paint0_radial_1_4612)" fill-opacity="0.8"/>
<g filter="url(#filter0_d_1_4612)">
<path d="M133.779 235H111.47V172.068H133.963C140.293 172.068 145.742 173.328 150.311 175.847C154.879 178.347 158.392 181.942 160.851 186.633C163.329 191.324 164.569 196.937 164.569 203.472C164.569 210.028 163.329 215.661 160.851 220.373C158.392 225.085 154.859 228.701 150.249 231.22C145.66 233.74 140.17 235 133.779 235ZM124.775 223.6H133.226C137.159 223.6 140.467 222.903 143.151 221.51C145.855 220.097 147.883 217.915 149.235 214.965C150.608 211.995 151.294 208.164 151.294 203.472C151.294 198.822 150.608 195.022 149.235 192.072C147.883 189.122 145.865 186.951 143.182 185.558C140.498 184.165 137.19 183.468 133.256 183.468H124.775V223.6ZM180.53 252.7C178.871 252.7 177.314 252.567 175.859 252.3C174.425 252.054 173.237 251.737 172.295 251.348L175.245 241.576C176.781 242.047 178.164 242.303 179.393 242.344C180.643 242.385 181.718 242.098 182.62 241.484C183.542 240.869 184.289 239.824 184.863 238.349L185.631 236.352L168.7 187.801H182.466L192.238 222.463H192.729L202.593 187.801H216.452L198.107 240.101C197.226 242.641 196.028 244.854 194.512 246.738C193.016 248.644 191.121 250.108 188.827 251.133C186.532 252.177 183.767 252.7 180.53 252.7ZM234.51 207.713V235H221.42V187.801H233.896V196.128H234.449C235.494 193.383 237.245 191.212 239.704 189.614C242.162 187.995 245.143 187.186 248.646 187.186C251.923 187.186 254.781 187.903 257.219 189.337C259.657 190.771 261.552 192.82 262.904 195.483C264.256 198.126 264.932 201.28 264.932 204.947V235H251.841V207.283C251.862 204.394 251.124 202.141 249.629 200.522C248.133 198.884 246.075 198.064 243.452 198.064C241.691 198.064 240.134 198.443 238.782 199.201C237.45 199.959 236.405 201.065 235.647 202.52C234.91 203.954 234.531 205.685 234.51 207.713ZM286.977 235.891C283.966 235.891 281.282 235.369 278.927 234.324C276.571 233.259 274.706 231.692 273.334 229.622C271.982 227.533 271.306 224.931 271.306 221.817C271.306 219.195 271.787 216.993 272.75 215.211C273.713 213.429 275.024 211.995 276.683 210.909C278.343 209.823 280.227 209.004 282.337 208.45C284.468 207.897 286.701 207.508 289.036 207.283C291.781 206.996 293.994 206.73 295.674 206.484C297.353 206.218 298.572 205.828 299.33 205.316C300.088 204.804 300.467 204.046 300.467 203.042V202.858C300.467 200.912 299.853 199.406 298.624 198.341C297.415 197.275 295.694 196.743 293.461 196.743C291.105 196.743 289.231 197.265 287.838 198.31C286.445 199.334 285.523 200.625 285.072 202.182L272.965 201.199C273.58 198.331 274.788 195.852 276.591 193.762C278.394 191.652 280.719 190.034 283.567 188.907C286.435 187.76 289.753 187.186 293.523 187.186C296.145 187.186 298.654 187.494 301.051 188.108C303.468 188.723 305.609 189.675 307.473 190.966C309.358 192.256 310.843 193.916 311.929 195.944C313.015 197.952 313.558 200.359 313.558 203.165V235H301.143V228.455H300.775C300.017 229.93 299.003 231.231 297.732 232.357C296.462 233.464 294.936 234.334 293.154 234.969C291.372 235.584 289.313 235.891 286.977 235.891ZM290.726 226.857C292.652 226.857 294.352 226.478 295.827 225.72C297.302 224.941 298.46 223.897 299.3 222.586C300.14 221.275 300.559 219.789 300.559 218.13V213.121C300.15 213.388 299.586 213.633 298.869 213.859C298.173 214.064 297.384 214.258 296.503 214.443C295.622 214.606 294.742 214.76 293.861 214.903C292.98 215.026 292.181 215.139 291.464 215.241C289.927 215.467 288.586 215.825 287.438 216.317C286.291 216.809 285.4 217.474 284.765 218.314C284.13 219.134 283.812 220.158 283.812 221.387C283.812 223.169 284.458 224.532 285.748 225.474C287.059 226.396 288.719 226.857 290.726 226.857ZM321.983 235V187.801H334.459V196.128H335.012C335.995 193.363 337.634 191.181 339.928 189.583C342.223 187.985 344.968 187.186 348.164 187.186C351.4 187.186 354.156 187.995 356.43 189.614C358.704 191.212 360.22 193.383 360.977 196.128H361.469C362.432 193.424 364.173 191.263 366.693 189.645C369.233 188.006 372.234 187.186 375.696 187.186C380.101 187.186 383.676 188.59 386.421 191.396C389.186 194.182 390.569 198.136 390.569 203.257V235H377.509V205.839C377.509 203.216 376.813 201.25 375.42 199.939C374.027 198.628 372.286 197.972 370.196 197.972C367.82 197.972 365.966 198.73 364.634 200.246C363.303 201.741 362.637 203.718 362.637 206.177V235H349.946V205.562C349.946 203.247 349.28 201.403 347.949 200.031C346.637 198.658 344.906 197.972 342.755 197.972C341.301 197.972 339.99 198.341 338.822 199.078C337.675 199.795 336.763 200.809 336.087 202.12C335.411 203.411 335.073 204.927 335.073 206.668V235H321.983ZM399.179 235V187.801H412.269V235H399.179ZM405.755 181.717C403.808 181.717 402.139 181.071 400.746 179.781C399.373 178.47 398.687 176.902 398.687 175.079C398.687 173.276 399.373 171.73 400.746 170.439C402.139 169.128 403.808 168.473 405.755 168.473C407.701 168.473 409.36 169.128 410.733 170.439C412.126 171.73 412.822 173.276 412.822 175.079C412.822 176.902 412.126 178.47 410.733 179.781C409.36 181.071 407.701 181.717 405.755 181.717ZM442.35 235.922C437.516 235.922 433.357 234.898 429.874 232.849C426.412 230.78 423.749 227.912 421.885 224.245C420.041 220.578 419.119 216.358 419.119 211.585C419.119 206.75 420.052 202.51 421.916 198.863C423.8 195.196 426.474 192.338 429.936 190.29C433.398 188.221 437.516 187.186 442.289 187.186C446.406 187.186 450.012 187.934 453.105 189.429C456.199 190.925 458.647 193.025 460.449 195.729C462.252 198.433 463.246 201.608 463.43 205.255H451.077C450.729 202.899 449.807 201.004 448.312 199.57C446.837 198.115 444.901 197.388 442.504 197.388C440.476 197.388 438.704 197.941 437.188 199.048C435.692 200.133 434.525 201.721 433.685 203.81C432.845 205.9 432.425 208.43 432.425 211.4C432.425 214.412 432.835 216.973 433.654 219.083C434.494 221.193 435.672 222.801 437.188 223.907C438.704 225.013 440.476 225.566 442.504 225.566C443.999 225.566 445.341 225.259 446.529 224.644C447.738 224.03 448.732 223.139 449.51 221.971C450.309 220.783 450.831 219.359 451.077 217.7H463.43C463.225 221.305 462.242 224.481 460.48 227.226C458.739 229.95 456.332 232.081 453.259 233.617C450.186 235.154 446.55 235.922 442.35 235.922ZM483.54 235.891C480.528 235.891 477.845 235.369 475.489 234.324C473.133 233.259 471.269 231.692 469.896 229.622C468.544 227.533 467.868 224.931 467.868 221.817C467.868 219.195 468.35 216.993 469.312 215.211C470.275 213.429 471.586 211.995 473.246 210.909C474.905 209.823 476.79 209.004 478.9 208.45C481.03 207.897 483.263 207.508 485.599 207.283C488.344 206.996 490.556 206.73 492.236 206.484C493.916 206.218 495.135 205.828 495.893 205.316C496.651 204.804 497.03 204.046 497.03 203.042V202.858C497.03 200.912 496.415 199.406 495.186 198.341C493.977 197.275 492.256 196.743 490.024 196.743C487.668 196.743 485.793 197.265 484.4 198.31C483.007 199.334 482.085 200.625 481.635 202.182L469.528 201.199C470.142 198.331 471.351 195.852 473.154 193.762C474.956 191.652 477.281 190.034 480.129 188.907C482.997 187.76 486.316 187.186 490.085 187.186C492.707 187.186 495.217 187.494 497.614 188.108C500.031 188.723 502.172 189.675 504.036 190.966C505.92 192.256 507.406 193.916 508.491 195.944C509.577 197.952 510.12 200.359 510.12 203.165V235H497.706V228.455H497.337C496.579 229.93 495.565 231.231 494.295 232.357C493.025 233.464 491.499 234.334 489.716 234.969C487.934 235.584 485.875 235.891 483.54 235.891ZM487.289 226.857C489.214 226.857 490.915 226.478 492.39 225.72C493.865 224.941 495.022 223.897 495.862 222.586C496.702 221.275 497.122 219.789 497.122 218.13V213.121C496.712 213.388 496.149 213.633 495.432 213.859C494.735 214.064 493.947 214.258 493.066 214.443C492.185 214.606 491.304 214.76 490.423 214.903C489.542 215.026 488.743 215.139 488.026 215.241C486.49 215.467 485.148 215.825 484.001 216.317C482.854 216.809 481.962 217.474 481.327 218.314C480.692 219.134 480.375 220.158 480.375 221.387C480.375 223.169 481.02 224.532 482.311 225.474C483.622 226.396 485.281 226.857 487.289 226.857ZM531.636 172.068V235H518.545V172.068H531.636ZM553.482 172.068V235H540.391V172.068H553.482ZM570.319 252.7C568.659 252.7 567.102 252.567 565.648 252.3C564.214 252.054 563.026 251.737 562.083 251.348L565.033 241.576C566.57 242.047 567.953 242.303 569.182 242.344C570.431 242.385 571.507 242.098 572.408 241.484C573.33 240.869 574.078 239.824 574.651 238.349L575.42 236.352L558.488 187.801H572.255L582.026 222.463H582.518L592.382 187.801H606.24L587.895 240.101C587.015 242.641 585.816 244.854 584.3 246.738C582.805 248.644 580.91 250.108 578.615 251.133C576.321 252.177 573.555 252.7 570.319 252.7ZM111.224 335V287.801H123.915V296.036H124.406C125.267 293.107 126.711 290.894 128.739 289.399C130.767 287.883 133.103 287.125 135.745 287.125C136.401 287.125 137.108 287.166 137.866 287.248C138.624 287.33 139.289 287.442 139.863 287.586V299.201C139.248 299.017 138.398 298.853 137.312 298.709C136.227 298.566 135.233 298.494 134.332 298.494C132.406 298.494 130.685 298.914 129.169 299.754C127.674 300.574 126.486 301.721 125.605 303.196C124.744 304.671 124.314 306.371 124.314 308.297V335H111.224ZM164.213 335.922C159.358 335.922 155.179 334.939 151.676 332.972C148.193 330.985 145.51 328.178 143.625 324.552C141.74 320.906 140.798 316.594 140.798 311.616C140.798 306.76 141.74 302.499 143.625 298.832C145.51 295.165 148.163 292.308 151.584 290.259C155.025 288.211 159.061 287.186 163.691 287.186C166.805 287.186 169.703 287.688 172.387 288.692C175.091 289.675 177.447 291.161 179.455 293.148C181.483 295.135 183.06 297.634 184.187 300.645C185.314 303.636 185.877 307.139 185.877 311.155V314.75H146.022V306.637H173.555C173.555 304.753 173.145 303.083 172.326 301.629C171.506 300.174 170.369 299.037 168.915 298.218C167.481 297.378 165.811 296.958 163.906 296.958C161.919 296.958 160.157 297.419 158.621 298.341C157.105 299.242 155.916 300.461 155.056 301.997C154.196 303.513 153.755 305.203 153.735 307.068V314.781C153.735 317.116 154.165 319.134 155.025 320.834C155.906 322.534 157.146 323.846 158.744 324.767C160.341 325.689 162.236 326.15 164.428 326.15C165.883 326.15 167.214 325.945 168.423 325.536C169.632 325.126 170.666 324.511 171.527 323.692C172.387 322.872 173.043 321.869 173.493 320.68L185.6 321.479C184.986 324.388 183.726 326.929 181.821 329.1C179.936 331.251 177.498 332.931 174.507 334.14C171.537 335.328 168.106 335.922 164.213 335.922ZM192.935 335V272.068H206.025V295.729H206.425C206.998 294.459 207.828 293.168 208.914 291.857C210.02 290.525 211.454 289.419 213.216 288.538C214.998 287.637 217.21 287.186 219.853 287.186C223.295 287.186 226.47 288.088 229.379 289.89C232.288 291.673 234.613 294.367 236.354 297.972C238.095 301.557 238.966 306.054 238.966 311.462C238.966 316.727 238.116 321.172 236.416 324.798C234.736 328.404 232.441 331.138 229.532 333.003C226.644 334.846 223.407 335.768 219.822 335.768C217.282 335.768 215.121 335.348 213.338 334.508C211.577 333.668 210.132 332.613 209.006 331.343C207.879 330.053 207.019 328.752 206.425 327.441H205.841V335H192.935ZM205.748 311.4C205.748 314.207 206.138 316.655 206.916 318.745C207.695 320.834 208.821 322.463 210.296 323.63C211.771 324.778 213.564 325.351 215.674 325.351C217.804 325.351 219.607 324.767 221.082 323.6C222.557 322.412 223.674 320.773 224.431 318.683C225.21 316.573 225.599 314.146 225.599 311.4C225.599 308.676 225.22 306.279 224.462 304.21C223.704 302.141 222.588 300.522 221.113 299.355C219.638 298.187 217.825 297.603 215.674 297.603C213.543 297.603 211.741 298.167 210.266 299.293C208.811 300.42 207.695 302.018 206.916 304.087C206.138 306.156 205.748 308.594 205.748 311.4ZM259.429 335.891C256.418 335.891 253.734 335.369 251.378 334.324C249.022 333.259 247.158 331.692 245.786 329.622C244.434 327.533 243.758 324.931 243.758 321.817C243.758 319.195 244.239 316.993 245.202 315.211C246.165 313.429 247.476 311.995 249.135 310.909C250.794 309.823 252.679 309.004 254.789 308.45C256.92 307.897 259.153 307.508 261.488 307.283C264.233 306.996 266.446 306.73 268.125 306.484C269.805 306.218 271.024 305.828 271.782 305.316C272.54 304.804 272.919 304.046 272.919 303.042V302.858C272.919 300.912 272.305 299.406 271.075 298.341C269.867 297.275 268.146 296.743 265.913 296.743C263.557 296.743 261.683 297.265 260.29 298.31C258.897 299.334 257.975 300.625 257.524 302.182L245.417 301.199C246.032 298.331 247.24 295.852 249.043 293.762C250.846 291.652 253.171 290.034 256.018 288.907C258.886 287.76 262.205 287.186 265.974 287.186C268.597 287.186 271.106 287.494 273.503 288.108C275.92 288.723 278.061 289.675 279.925 290.966C281.81 292.256 283.295 293.916 284.381 295.944C285.467 297.952 286.009 300.359 286.009 303.165V335H273.595V328.455H273.226C272.468 329.93 271.454 331.231 270.184 332.357C268.914 333.464 267.388 334.334 265.606 334.969C263.823 335.584 261.765 335.891 259.429 335.891ZM263.178 326.857C265.104 326.857 266.804 326.478 268.279 325.72C269.754 324.941 270.911 323.897 271.751 322.586C272.591 321.275 273.011 319.789 273.011 318.13V313.121C272.602 313.388 272.038 313.633 271.321 313.859C270.625 314.064 269.836 314.258 268.955 314.443C268.074 314.606 267.193 314.76 266.312 314.903C265.432 315.026 264.633 315.139 263.916 315.241C262.379 315.467 261.037 315.825 259.89 316.317C258.743 316.809 257.852 317.474 257.217 318.314C256.582 319.134 256.264 320.158 256.264 321.387C256.264 323.169 256.909 324.532 258.2 325.474C259.511 326.396 261.171 326.857 263.178 326.857ZM307.525 272.068V335H294.435V272.068H307.525ZM329.74 335.891C326.728 335.891 324.045 335.369 321.689 334.324C319.333 333.259 317.469 331.692 316.096 329.622C314.744 327.533 314.068 324.931 314.068 321.817C314.068 319.195 314.55 316.993 315.512 315.211C316.475 313.429 317.786 311.995 319.446 310.909C321.105 309.823 322.99 309.004 325.1 308.45C327.23 307.897 329.463 307.508 331.799 307.283C334.544 306.996 336.756 306.73 338.436 306.484C340.116 306.218 341.335 305.828 342.093 305.316C342.851 304.804 343.23 304.046 343.23 303.042V302.858C343.23 300.912 342.615 299.406 341.386 298.341C340.177 297.275 338.456 296.743 336.223 296.743C333.868 296.743 331.993 297.265 330.6 298.31C329.207 299.334 328.285 300.625 327.835 302.182L315.727 301.199C316.342 298.331 317.551 295.852 319.353 293.762C321.156 291.652 323.481 290.034 326.329 288.907C329.197 287.76 332.516 287.186 336.285 287.186C338.907 287.186 341.417 287.494 343.813 288.108C346.231 288.723 348.371 289.675 350.236 290.966C352.12 292.256 353.606 293.916 354.691 295.944C355.777 297.952 356.32 300.359 356.32 303.165V335H343.906V328.455H343.537C342.779 329.93 341.765 331.231 340.495 332.357C339.225 333.464 337.698 334.334 335.916 334.969C334.134 335.584 332.075 335.891 329.74 335.891ZM333.489 326.857C335.414 326.857 337.115 326.478 338.59 325.72C340.065 324.941 341.222 323.897 342.062 322.586C342.902 321.275 343.322 319.789 343.322 318.13V313.121C342.912 313.388 342.349 313.633 341.632 313.859C340.935 314.064 340.146 314.258 339.266 314.443C338.385 314.606 337.504 314.76 336.623 314.903C335.742 315.026 334.943 315.139 334.226 315.241C332.69 315.467 331.348 315.825 330.201 316.317C329.053 316.809 328.162 317.474 327.527 318.314C326.892 319.134 326.575 320.158 326.575 321.387C326.575 323.169 327.22 324.532 328.511 325.474C329.822 326.396 331.481 326.857 333.489 326.857ZM377.835 307.713V335H364.745V287.801H377.221V296.128H377.774C378.819 293.383 380.57 291.212 383.029 289.614C385.487 287.995 388.468 287.186 391.971 287.186C395.248 287.186 398.106 287.903 400.544 289.337C402.982 290.771 404.877 292.82 406.229 295.483C407.581 298.126 408.257 301.28 408.257 304.947V335H395.166V307.283C395.187 304.394 394.449 302.141 392.954 300.522C391.459 298.884 389.4 298.064 386.778 298.064C385.016 298.064 383.459 298.443 382.107 299.201C380.775 299.959 379.73 301.065 378.972 302.52C378.235 303.954 377.856 305.685 377.835 307.713ZM438.169 335.922C433.334 335.922 429.176 334.898 425.693 332.849C422.231 330.78 419.568 327.912 417.704 324.245C415.86 320.578 414.938 316.358 414.938 311.585C414.938 306.75 415.87 302.51 417.734 298.863C419.619 295.196 422.293 292.338 425.755 290.29C429.217 288.221 433.334 287.186 438.108 287.186C442.225 287.186 445.831 287.934 448.924 289.429C452.017 290.925 454.465 293.025 456.268 295.729C458.071 298.433 459.064 301.608 459.249 305.255H446.896C446.548 302.899 445.626 301.004 444.13 299.57C442.655 298.115 440.719 297.388 438.323 297.388C436.295 297.388 434.523 297.941 433.007 299.048C431.511 300.133 430.343 301.721 429.504 303.81C428.664 305.9 428.244 308.43 428.244 311.4C428.244 314.412 428.653 316.973 429.473 319.083C430.313 321.193 431.491 322.801 433.007 323.907C434.523 325.013 436.295 325.566 438.323 325.566C439.818 325.566 441.16 325.259 442.348 324.644C443.557 324.03 444.55 323.139 445.329 321.971C446.128 320.783 446.65 319.359 446.896 317.7H459.249C459.044 321.305 458.061 324.481 456.299 327.226C454.558 329.95 452.151 332.081 449.078 333.617C446.005 335.154 442.369 335.922 438.169 335.922ZM465.899 335V287.801H478.99V335H465.899ZM472.475 281.717C470.529 281.717 468.86 281.071 467.467 279.781C466.094 278.47 465.408 276.902 465.408 275.079C465.408 273.276 466.094 271.73 467.467 270.439C468.86 269.128 470.529 268.473 472.475 268.473C474.421 268.473 476.081 269.128 477.453 270.439C478.846 271.73 479.543 273.276 479.543 275.079C479.543 276.902 478.846 278.47 477.453 279.781C476.081 281.071 474.421 281.717 472.475 281.717ZM500.836 307.713V335H487.745V287.801H500.221V296.128H500.774C501.819 293.383 503.571 291.212 506.029 289.614C508.487 287.995 511.468 287.186 514.971 287.186C518.249 287.186 521.106 287.903 523.544 289.337C525.982 290.771 527.877 292.82 529.229 295.483C530.581 298.126 531.257 301.28 531.257 304.947V335H518.167V307.283C518.187 304.394 517.45 302.141 515.954 300.522C514.459 298.884 512.4 298.064 509.778 298.064C508.016 298.064 506.459 298.443 505.107 299.201C503.775 299.959 502.731 301.065 501.973 302.52C501.235 303.954 500.856 305.685 500.836 307.713ZM561.108 353.683C556.867 353.683 553.231 353.099 550.199 351.931C547.188 350.784 544.791 349.217 543.009 347.23C541.226 345.243 540.069 343.01 539.536 340.531L551.643 338.903C552.012 339.845 552.596 340.726 553.395 341.545C554.194 342.365 555.249 343.02 556.56 343.512C557.891 344.024 559.51 344.28 561.415 344.28C564.263 344.28 566.608 343.584 568.452 342.19C570.316 340.818 571.248 338.513 571.248 335.277V326.642H570.695C570.121 327.953 569.261 329.192 568.114 330.36C566.967 331.528 565.492 332.48 563.689 333.218C561.886 333.955 559.735 334.324 557.236 334.324C553.692 334.324 550.465 333.505 547.556 331.866C544.668 330.206 542.363 327.676 540.642 324.276C538.942 320.855 538.092 316.532 538.092 311.308C538.092 305.961 538.963 301.496 540.704 297.911C542.445 294.326 544.76 291.642 547.649 289.86C550.558 288.077 553.743 287.186 557.205 287.186C559.848 287.186 562.06 287.637 563.843 288.538C565.625 289.419 567.059 290.525 568.145 291.857C569.251 293.168 570.101 294.459 570.695 295.729H571.187V287.801H584.185V335.461C584.185 339.476 583.202 342.836 581.235 345.54C579.268 348.244 576.544 350.272 573.061 351.624C569.599 352.997 565.615 353.683 561.108 353.683ZM561.384 324.491C563.494 324.491 565.277 323.968 566.731 322.924C568.206 321.858 569.333 320.342 570.111 318.376C570.91 316.389 571.31 314.012 571.31 311.247C571.31 308.481 570.92 306.084 570.142 304.056C569.363 302.008 568.237 300.42 566.762 299.293C565.287 298.167 563.494 297.603 561.384 297.603C559.233 297.603 557.42 298.187 555.945 299.355C554.47 300.502 553.354 302.1 552.596 304.148C551.838 306.197 551.459 308.563 551.459 311.247C551.459 313.971 551.838 316.327 552.596 318.314C553.374 320.281 554.491 321.807 555.945 322.893C557.42 323.958 559.233 324.491 561.384 324.491ZM620.479 335L607.634 287.801H620.878L628.192 319.513H628.622L636.243 287.801H649.241L656.984 319.328H657.384L664.574 287.801H677.788L664.974 335H651.115L643.003 305.316H642.419L634.307 335H620.479ZM703.183 335.922C698.41 335.922 694.282 334.908 690.799 332.88C687.337 330.831 684.664 327.984 682.779 324.337C680.894 320.67 679.952 316.419 679.952 311.585C679.952 306.709 680.894 302.448 682.779 298.802C684.664 295.135 687.337 292.287 690.799 290.259C694.282 288.211 698.41 287.186 703.183 287.186C707.956 287.186 712.074 288.211 715.536 290.259C719.018 292.287 721.702 295.135 723.587 298.802C725.471 302.448 726.414 306.709 726.414 311.585C726.414 316.419 725.471 320.67 723.587 324.337C721.702 327.984 719.018 330.831 715.536 332.88C712.074 334.908 707.956 335.922 703.183 335.922ZM703.244 325.781C705.416 325.781 707.229 325.167 708.683 323.938C710.138 322.688 711.234 320.988 711.971 318.837C712.729 316.686 713.108 314.238 713.108 311.493C713.108 308.748 712.729 306.299 711.971 304.148C711.234 301.997 710.138 300.297 708.683 299.048C707.229 297.798 705.416 297.173 703.244 297.173C701.052 297.173 699.209 297.798 697.713 299.048C696.238 300.297 695.122 301.997 694.364 304.148C693.626 306.299 693.257 308.748 693.257 311.493C693.257 314.238 693.626 316.686 694.364 318.837C695.122 320.988 696.238 322.688 697.713 323.938C699.209 325.167 701.052 325.781 703.244 325.781ZM733.195 335V287.801H745.886V296.036H746.377C747.238 293.107 748.682 290.894 750.71 289.399C752.738 287.883 755.074 287.125 757.716 287.125C758.372 287.125 759.078 287.166 759.836 287.248C760.594 287.33 761.26 287.442 761.834 287.586V299.201C761.219 299.017 760.369 298.853 759.283 298.709C758.198 298.566 757.204 298.494 756.303 298.494C754.377 298.494 752.656 298.914 751.14 299.754C749.645 300.574 748.457 301.721 747.576 303.196C746.715 304.671 746.285 306.371 746.285 308.297V335H733.195ZM778.732 321.418L778.763 305.716H780.668L795.787 287.801H810.813L790.502 311.523H787.398L778.732 321.418ZM766.871 335V272.068H779.962V335H766.871ZM796.371 335L782.481 314.443L791.208 305.193L811.704 335H796.371ZM828.595 272.068V335H815.505V272.068H828.595ZM858.676 335.922C853.903 335.922 849.775 334.908 846.293 332.88C842.831 330.831 840.157 327.984 838.272 324.337C836.388 320.67 835.445 316.419 835.445 311.585C835.445 306.709 836.388 302.448 838.272 298.802C840.157 295.135 842.831 292.287 846.293 290.259C849.775 288.211 853.903 287.186 858.676 287.186C863.449 287.186 867.567 288.211 871.029 290.259C874.512 292.287 877.195 295.135 879.08 298.802C880.965 302.448 881.907 306.709 881.907 311.585C881.907 316.419 880.965 320.67 879.08 324.337C877.195 327.984 874.512 330.831 871.029 332.88C867.567 334.908 863.449 335.922 858.676 335.922ZM858.738 325.781C860.909 325.781 862.722 325.167 864.177 323.938C865.631 322.688 866.727 320.988 867.465 318.837C868.223 316.686 868.602 314.238 868.602 311.493C868.602 308.748 868.223 306.299 867.465 304.148C866.727 301.997 865.631 300.297 864.177 299.048C862.722 297.798 860.909 297.173 858.738 297.173C856.546 297.173 854.702 297.798 853.207 299.048C851.732 300.297 850.615 301.997 849.857 304.148C849.12 306.299 848.751 308.748 848.751 311.493C848.751 314.238 849.12 316.686 849.857 318.837C850.615 320.988 851.732 322.688 853.207 323.938C854.702 325.167 856.546 325.781 858.738 325.781ZM902.147 335.891C899.136 335.891 896.452 335.369 894.097 334.324C891.741 333.259 889.877 331.692 888.504 329.622C887.152 327.533 886.476 324.931 886.476 321.817C886.476 319.195 886.957 316.993 887.92 315.211C888.883 313.429 890.194 311.995 891.853 310.909C893.513 309.823 895.397 309.004 897.507 308.45C899.638 307.897 901.871 307.508 904.206 307.283C906.951 306.996 909.164 306.73 910.844 306.484C912.524 306.218 913.742 305.828 914.5 305.316C915.258 304.804 915.637 304.046 915.637 303.042V302.858C915.637 300.912 915.023 299.406 913.794 298.341C912.585 297.275 910.864 296.743 908.631 296.743C906.275 296.743 904.401 297.265 903.008 298.31C901.615 299.334 900.693 300.625 900.242 302.182L888.135 301.199C888.75 298.331 889.958 295.852 891.761 293.762C893.564 291.652 895.889 290.034 898.737 288.907C901.605 287.76 904.923 287.186 908.693 287.186C911.315 287.186 913.824 287.494 916.221 288.108C918.639 288.723 920.779 289.675 922.643 290.966C924.528 292.256 926.013 293.916 927.099 295.944C928.185 297.952 928.728 300.359 928.728 303.165V335H916.313V328.455H915.945C915.187 329.93 914.173 331.231 912.902 332.357C911.632 333.464 910.106 334.334 908.324 334.969C906.542 335.584 904.483 335.891 902.147 335.891ZM905.896 326.857C907.822 326.857 909.522 326.478 910.997 325.72C912.472 324.941 913.63 323.897 914.47 322.586C915.31 321.275 915.73 319.789 915.73 318.13V313.121C915.32 313.388 914.756 313.633 914.039 313.859C913.343 314.064 912.554 314.258 911.673 314.443C910.792 314.606 909.912 314.76 909.031 314.903C908.15 315.026 907.351 315.139 906.634 315.241C905.097 315.467 903.756 315.825 902.608 316.317C901.461 316.809 900.57 317.474 899.935 318.314C899.3 319.134 898.982 320.158 898.982 321.387C898.982 323.169 899.628 324.532 900.918 325.474C902.229 326.396 903.889 326.857 905.896 326.857ZM954.545 335.768C950.96 335.768 947.713 334.846 944.804 333.003C941.916 331.138 939.621 328.404 937.921 324.798C936.241 321.172 935.401 316.727 935.401 311.462C935.401 306.054 936.272 301.557 938.013 297.972C939.755 294.367 942.069 291.673 944.958 289.89C947.867 288.088 951.052 287.186 954.515 287.186C957.157 287.186 959.359 287.637 961.121 288.538C962.903 289.419 964.337 290.525 965.423 291.857C966.529 293.168 967.369 294.459 967.943 295.729H968.342V272.068H981.402V335H968.496V327.441H967.943C967.328 328.752 966.458 330.053 965.331 331.343C964.225 332.613 962.781 333.668 960.998 334.508C959.237 335.348 957.086 335.768 954.545 335.768ZM958.694 325.351C960.804 325.351 962.586 324.778 964.04 323.63C965.515 322.463 966.642 320.834 967.421 318.745C968.22 316.655 968.619 314.207 968.619 311.4C968.619 308.594 968.23 306.156 967.451 304.087C966.673 302.018 965.546 300.42 964.071 299.293C962.596 298.167 960.804 297.603 958.694 297.603C956.543 297.603 954.73 298.187 953.255 299.355C951.78 300.522 950.663 302.141 949.905 304.21C949.147 306.279 948.768 308.676 948.768 311.4C948.768 314.146 949.147 316.573 949.905 318.683C950.684 320.773 951.8 322.412 953.255 323.6C954.73 324.767 956.543 325.351 958.694 325.351ZM1029.71 301.26L1017.72 301.997C1017.52 300.973 1017.08 300.051 1016.4 299.232C1015.72 298.392 1014.83 297.726 1013.73 297.235C1012.64 296.722 1011.34 296.466 1009.82 296.466C1007.8 296.466 1006.09 296.897 1004.69 297.757C1003.3 298.597 1002.6 299.724 1002.6 301.137C1002.6 302.264 1003.05 303.216 1003.95 303.995C1004.86 304.773 1006.4 305.398 1008.59 305.869L1017.14 307.59C1021.73 308.532 1025.15 310.048 1027.4 312.138C1029.65 314.227 1030.78 316.973 1030.78 320.373C1030.78 323.467 1029.87 326.181 1028.05 328.516C1026.24 330.852 1023.76 332.675 1020.61 333.986C1017.48 335.277 1013.86 335.922 1009.76 335.922C1003.51 335.922 998.536 334.621 994.828 332.019C991.141 329.397 988.98 325.833 988.345 321.326L1001.22 320.65C1001.61 322.555 1002.55 324.009 1004.05 325.013C1005.54 325.997 1007.46 326.488 1009.79 326.488C1012.09 326.488 1013.93 326.048 1015.32 325.167C1016.74 324.265 1017.45 323.108 1017.48 321.695C1017.45 320.506 1016.95 319.533 1015.97 318.775C1014.99 317.997 1013.47 317.403 1011.42 316.993L1003.25 315.364C998.639 314.443 995.207 312.845 992.954 310.571C990.721 308.297 989.605 305.398 989.605 301.875C989.605 298.843 990.424 296.231 992.063 294.039C993.722 291.847 996.047 290.157 999.038 288.969C1002.05 287.78 1005.57 287.186 1009.61 287.186C1015.57 287.186 1020.26 288.446 1023.68 290.966C1027.12 293.486 1029.13 296.917 1029.71 301.26ZM124.683 435.891C121.672 435.891 118.988 435.369 116.632 434.324C114.276 433.259 112.412 431.692 111.039 429.622C109.687 427.533 109.011 424.931 109.011 421.817C109.011 419.195 109.493 416.993 110.456 415.211C111.418 413.429 112.73 411.995 114.389 410.909C116.048 409.823 117.933 409.004 120.043 408.45C122.173 407.897 124.406 407.508 126.742 407.283C129.487 406.996 131.699 406.73 133.379 406.484C135.059 406.218 136.278 405.828 137.036 405.316C137.794 404.804 138.173 404.046 138.173 403.042V402.858C138.173 400.912 137.558 399.406 136.329 398.341C135.12 397.275 133.4 396.743 131.167 396.743C128.811 396.743 126.936 397.265 125.543 398.31C124.15 399.334 123.229 400.625 122.778 402.182L110.671 401.199C111.285 398.331 112.494 395.852 114.297 393.762C116.099 391.652 118.425 390.034 121.272 388.907C124.14 387.76 127.459 387.186 131.228 387.186C133.85 387.186 136.36 387.494 138.757 388.108C141.174 388.723 143.315 389.675 145.179 390.966C147.064 392.256 148.549 393.916 149.635 395.944C150.72 397.952 151.263 400.359 151.263 403.165V435H138.849V428.455H138.48C137.722 429.93 136.708 431.231 135.438 432.357C134.168 433.464 132.642 434.334 130.859 434.969C129.077 435.584 127.018 435.891 124.683 435.891ZM128.432 426.857C130.358 426.857 132.058 426.478 133.533 425.72C135.008 424.941 136.165 423.897 137.005 422.586C137.845 421.275 138.265 419.789 138.265 418.13V413.121C137.855 413.388 137.292 413.633 136.575 413.859C135.878 414.064 135.09 414.258 134.209 414.443C133.328 414.606 132.447 414.76 131.566 414.903C130.685 415.026 129.886 415.139 129.169 415.241C127.633 415.467 126.291 415.825 125.144 416.317C123.997 416.809 123.106 417.474 122.471 418.314C121.835 419.134 121.518 420.158 121.518 421.387C121.518 423.169 122.163 424.532 123.454 425.474C124.765 426.396 126.424 426.857 128.432 426.857ZM172.779 407.713V435H159.688V387.801H172.164V396.128H172.717C173.762 393.383 175.514 391.212 177.972 389.614C180.43 387.995 183.411 387.186 186.914 387.186C190.192 387.186 193.049 387.903 195.487 389.337C197.925 390.771 199.82 392.82 201.172 395.483C202.524 398.126 203.2 401.28 203.2 404.947V435H190.11V407.283C190.13 404.394 189.393 402.141 187.897 400.522C186.402 398.884 184.343 398.064 181.721 398.064C179.959 398.064 178.402 398.443 177.05 399.201C175.719 399.959 174.674 401.065 173.916 402.52C173.178 403.954 172.799 405.685 172.779 407.713ZM229.179 435.768C225.594 435.768 222.347 434.846 219.438 433.003C216.55 431.138 214.255 428.404 212.555 424.798C210.875 421.172 210.035 416.727 210.035 411.462C210.035 406.054 210.906 401.557 212.647 397.972C214.388 394.367 216.703 391.673 219.592 389.89C222.501 388.088 225.686 387.186 229.148 387.186C231.791 387.186 233.993 387.637 235.755 388.538C237.537 389.419 238.971 390.525 240.057 391.857C241.163 393.168 242.003 394.459 242.577 395.729H242.976V372.068H256.036V435H243.13V427.441H242.577C241.962 428.752 241.092 430.053 239.965 431.343C238.859 432.613 237.414 433.668 235.632 434.508C233.87 435.348 231.719 435.768 229.179 435.768ZM233.327 425.351C235.437 425.351 237.22 424.778 238.674 423.63C240.149 422.463 241.276 420.834 242.054 418.745C242.853 416.655 243.253 414.207 243.253 411.4C243.253 408.594 242.864 406.156 242.085 404.087C241.307 402.018 240.18 400.42 238.705 399.293C237.23 398.167 235.437 397.603 233.327 397.603C231.176 397.603 229.363 398.187 227.888 399.355C226.413 400.522 225.297 402.141 224.539 404.21C223.781 406.279 223.402 408.676 223.402 411.4C223.402 414.146 223.781 416.573 224.539 418.683C225.317 420.773 226.434 422.412 227.888 423.6C229.363 424.767 231.176 425.351 233.327 425.351ZM304.69 435.922C299.917 435.922 295.789 434.908 292.307 432.88C288.845 430.831 286.171 427.984 284.287 424.337C282.402 420.67 281.459 416.419 281.459 411.585C281.459 406.709 282.402 402.448 284.287 398.802C286.171 395.135 288.845 392.287 292.307 390.259C295.789 388.211 299.917 387.186 304.69 387.186C309.463 387.186 313.581 388.211 317.043 390.259C320.526 392.287 323.209 395.135 325.094 398.802C326.979 402.448 327.921 406.709 327.921 411.585C327.921 416.419 326.979 420.67 325.094 424.337C323.209 427.984 320.526 430.831 317.043 432.88C313.581 434.908 309.463 435.922 304.69 435.922ZM304.752 425.781C306.923 425.781 308.736 425.167 310.191 423.938C311.645 422.688 312.741 420.988 313.479 418.837C314.237 416.686 314.616 414.238 314.616 411.493C314.616 408.748 314.237 406.299 313.479 404.148C312.741 401.997 311.645 400.297 310.191 399.048C308.736 397.798 306.923 397.173 304.752 397.173C302.56 397.173 300.716 397.798 299.221 399.048C297.746 400.297 296.629 401.997 295.871 404.148C295.134 406.299 294.765 408.748 294.765 411.493C294.765 414.238 295.134 416.686 295.871 418.837C296.629 420.988 297.746 422.688 299.221 423.938C300.716 425.167 302.56 425.781 304.752 425.781ZM334.702 452.7V387.801H347.608V395.729H348.192C348.766 394.459 349.595 393.168 350.681 391.857C351.787 390.525 353.221 389.419 354.983 388.538C356.765 387.637 358.978 387.186 361.621 387.186C365.062 387.186 368.238 388.088 371.146 389.89C374.055 391.673 376.381 394.367 378.122 397.972C379.863 401.557 380.734 406.054 380.734 411.462C380.734 416.727 379.884 421.172 378.183 424.798C376.504 428.404 374.209 431.138 371.3 433.003C368.412 434.846 365.175 435.768 361.59 435.768C359.05 435.768 356.888 435.348 355.106 434.508C353.344 433.668 351.9 432.613 350.773 431.343C349.647 430.053 348.786 428.752 348.192 427.441H347.793V452.7H334.702ZM347.516 411.4C347.516 414.207 347.905 416.655 348.684 418.745C349.462 420.834 350.589 422.463 352.064 423.63C353.539 424.778 355.331 425.351 357.442 425.351C359.572 425.351 361.375 424.767 362.85 423.6C364.325 422.412 365.441 420.773 366.199 418.683C366.978 416.573 367.367 414.146 367.367 411.4C367.367 408.676 366.988 406.279 366.23 404.21C365.472 402.141 364.355 400.522 362.88 399.355C361.406 398.187 359.593 397.603 357.442 397.603C355.311 397.603 353.508 398.167 352.033 399.293C350.579 400.42 349.462 402.018 348.684 404.087C347.905 406.156 347.516 408.594 347.516 411.4ZM412.835 387.801V397.634H384.411V387.801H412.835ZM390.864 376.493H403.955V420.496C403.955 421.705 404.139 422.647 404.508 423.323C404.877 423.979 405.389 424.44 406.044 424.706C406.72 424.972 407.499 425.105 408.38 425.105C408.994 425.105 409.609 425.054 410.223 424.952C410.838 424.829 411.309 424.737 411.637 424.675L413.696 434.416C413.04 434.621 412.118 434.857 410.93 435.123C409.742 435.41 408.298 435.584 406.597 435.645C403.443 435.768 400.677 435.348 398.301 434.385C395.945 433.423 394.111 431.927 392.8 429.899C391.489 427.871 390.844 425.31 390.864 422.217V376.493ZM419.632 435V387.801H432.722V435H419.632ZM426.208 381.717C424.262 381.717 422.592 381.071 421.199 379.781C419.827 378.47 419.14 376.902 419.14 375.079C419.14 373.276 419.827 371.73 421.199 370.439C422.592 369.128 424.262 368.473 426.208 368.473C428.154 368.473 429.813 369.128 431.186 370.439C432.579 371.73 433.275 373.276 433.275 375.079C433.275 376.902 432.579 378.47 431.186 379.781C429.813 381.071 428.154 381.717 426.208 381.717ZM441.478 435V387.801H453.954V396.128H454.507C455.49 393.363 457.129 391.181 459.423 389.583C461.718 387.985 464.463 387.186 467.659 387.186C470.895 387.186 473.651 387.995 475.925 389.614C478.199 391.212 479.715 393.383 480.472 396.128H480.964C481.927 393.424 483.668 391.263 486.188 389.645C488.728 388.006 491.729 387.186 495.191 387.186C499.596 387.186 503.171 388.59 505.916 391.396C508.681 394.182 510.064 398.136 510.064 403.257V435H497.004V405.839C497.004 403.216 496.308 401.25 494.915 399.939C493.522 398.628 491.781 397.972 489.691 397.972C487.315 397.972 485.461 398.73 484.129 400.246C482.798 401.741 482.132 403.718 482.132 406.177V435H469.441V405.562C469.441 403.247 468.775 401.403 467.444 400.031C466.132 398.658 464.401 397.972 462.25 397.972C460.796 397.972 459.485 398.341 458.317 399.078C457.17 399.795 456.258 400.809 455.582 402.12C454.906 403.411 454.568 404.927 454.568 406.668V435H441.478ZM518.674 435V387.801H531.764V435H518.674ZM525.25 381.717C523.303 381.717 521.634 381.071 520.241 379.781C518.868 378.47 518.182 376.902 518.182 375.079C518.182 373.276 518.868 371.73 520.241 370.439C521.634 369.128 523.303 368.473 525.25 368.473C527.196 368.473 528.855 369.128 530.228 370.439C531.621 371.73 532.317 373.276 532.317 375.079C532.317 376.902 531.621 378.47 530.228 379.781C528.855 381.071 527.196 381.717 525.25 381.717ZM540.274 435V427.195L563.382 398.587V398.249H541.073V387.801H579.145V396.313L557.451 424.214V424.552H579.944V435H540.274ZM588.224 435V387.801H601.314V435H588.224ZM594.8 381.717C592.853 381.717 591.184 381.071 589.791 379.781C588.418 378.47 587.732 376.902 587.732 375.079C587.732 373.276 588.418 371.73 589.791 370.439C591.184 369.128 592.853 368.473 594.8 368.473C596.746 368.473 598.405 369.128 599.778 370.439C601.171 371.73 601.867 373.276 601.867 375.079C601.867 376.902 601.171 378.47 599.778 379.781C598.405 381.071 596.746 381.717 594.8 381.717ZM623.16 407.713V435H610.07V387.801H622.545V396.128H623.098C624.143 393.383 625.895 391.212 628.353 389.614C630.811 387.995 633.792 387.186 637.295 387.186C640.573 387.186 643.431 387.903 645.868 389.337C648.306 390.771 650.201 392.82 651.553 395.483C652.905 398.126 653.581 401.28 653.581 404.947V435H640.491V407.283C640.511 404.394 639.774 402.141 638.278 400.522C636.783 398.884 634.724 398.064 632.102 398.064C630.34 398.064 628.783 398.443 627.431 399.201C626.1 399.959 625.055 401.065 624.297 402.52C623.559 403.954 623.18 405.685 623.16 407.713ZM683.432 453.683C679.191 453.683 675.555 453.099 672.523 451.931C669.512 450.784 667.115 449.217 665.333 447.23C663.551 445.243 662.393 443.01 661.86 440.531L673.968 438.903C674.336 439.845 674.92 440.726 675.719 441.545C676.518 442.365 677.573 443.02 678.884 443.512C680.216 444.024 681.834 444.28 683.739 444.28C686.587 444.28 688.932 443.584 690.776 442.19C692.64 440.818 693.572 438.513 693.572 435.277V426.642H693.019C692.446 427.953 691.585 429.192 690.438 430.36C689.291 431.528 687.816 432.48 686.013 433.218C684.21 433.955 682.059 434.324 679.56 434.324C676.016 434.324 672.79 433.505 669.881 431.866C666.992 430.206 664.687 427.676 662.967 424.276C661.266 420.855 660.416 416.532 660.416 411.308C660.416 405.961 661.287 401.496 663.028 397.911C664.769 394.326 667.084 391.642 669.973 389.86C672.882 388.077 676.067 387.186 679.529 387.186C682.172 387.186 684.385 387.637 686.167 388.538C687.949 389.419 689.383 390.525 690.469 391.857C691.575 393.168 692.425 394.459 693.019 395.729H693.511V387.801H706.509V435.461C706.509 439.476 705.526 442.836 703.559 445.54C701.593 448.244 698.868 450.272 695.385 451.624C691.923 452.997 687.939 453.683 683.432 453.683ZM683.708 424.491C685.819 424.491 687.601 423.968 689.055 422.924C690.53 421.858 691.657 420.342 692.435 418.376C693.234 416.389 693.634 414.012 693.634 411.247C693.634 408.481 693.245 406.084 692.466 404.056C691.688 402.008 690.561 400.42 689.086 399.293C687.611 398.167 685.819 397.603 683.708 397.603C681.557 397.603 679.744 398.187 678.27 399.355C676.795 400.502 675.678 402.1 674.92 404.148C674.162 406.197 673.783 408.563 673.783 411.247C673.783 413.971 674.162 416.327 674.92 418.314C675.699 420.281 676.815 421.807 678.27 422.893C679.744 423.958 681.557 424.491 683.708 424.491ZM733.492 435V387.801H746.183V396.036H746.675C747.535 393.107 748.979 390.894 751.008 389.399C753.036 387.883 755.371 387.125 758.014 387.125C758.669 387.125 759.376 387.166 760.134 387.248C760.892 387.33 761.558 387.442 762.131 387.586V399.201C761.517 399.017 760.667 398.853 759.581 398.709C758.495 398.566 757.502 398.494 756.6 398.494C754.674 398.494 752.954 398.914 751.438 399.754C749.942 400.574 748.754 401.721 747.873 403.196C747.013 404.671 746.583 406.371 746.583 408.297V435H733.492ZM786.482 435.922C781.626 435.922 777.447 434.939 773.944 432.972C770.462 430.985 767.778 428.178 765.893 424.552C764.009 420.906 763.066 416.594 763.066 411.616C763.066 406.76 764.009 402.499 765.893 398.832C767.778 395.165 770.431 392.308 773.852 390.259C777.294 388.211 781.329 387.186 785.959 387.186C789.073 387.186 791.972 387.688 794.655 388.692C797.36 389.675 799.715 391.161 801.723 393.148C803.751 395.135 805.328 397.634 806.455 400.645C807.582 403.636 808.145 407.139 808.145 411.155V414.75H768.29V406.637H795.823C795.823 404.753 795.413 403.083 794.594 401.629C793.775 400.174 792.638 399.037 791.183 398.218C789.749 397.378 788.079 396.958 786.174 396.958C784.187 396.958 782.425 397.419 780.889 398.341C779.373 399.242 778.185 400.461 777.324 401.997C776.464 403.513 776.024 405.203 776.003 407.068V414.781C776.003 417.116 776.433 419.134 777.294 420.834C778.175 422.534 779.414 423.846 781.012 424.767C782.61 425.689 784.505 426.15 786.697 426.15C788.151 426.15 789.483 425.945 790.691 425.536C791.9 425.126 792.935 424.511 793.795 423.692C794.655 422.872 795.311 421.869 795.762 420.68L807.869 421.479C807.254 424.388 805.994 426.929 804.089 429.1C802.204 431.251 799.767 432.931 796.776 434.14C793.805 435.328 790.374 435.922 786.482 435.922ZM854.228 401.26L842.244 401.997C842.039 400.973 841.599 400.051 840.923 399.232C840.247 398.392 839.356 397.726 838.249 397.235C837.164 396.722 835.863 396.466 834.347 396.466C832.319 396.466 830.608 396.897 829.215 397.757C827.822 398.597 827.126 399.724 827.126 401.137C827.126 402.264 827.576 403.216 828.478 403.995C829.379 404.773 830.926 405.398 833.118 405.869L841.66 407.59C846.249 408.532 849.67 410.048 851.924 412.138C854.177 414.227 855.304 416.973 855.304 420.373C855.304 423.467 854.392 426.181 852.569 428.516C850.766 430.852 848.288 432.675 845.133 433.986C841.998 435.277 838.383 435.922 834.286 435.922C828.037 435.922 823.059 434.621 819.351 432.019C815.664 429.397 813.503 425.833 812.868 421.326L825.743 420.65C826.132 422.555 827.075 424.009 828.57 425.013C830.065 425.997 831.981 426.488 834.316 426.488C836.611 426.488 838.454 426.048 839.847 425.167C841.261 424.265 841.978 423.108 841.998 421.695C841.978 420.506 841.476 419.533 840.493 418.775C839.509 417.997 837.993 417.403 835.945 416.993L827.771 415.364C823.162 414.443 819.73 412.845 817.477 410.571C815.244 408.297 814.128 405.398 814.128 401.875C814.128 398.843 814.947 396.231 816.586 394.039C818.245 391.847 820.57 390.157 823.561 388.969C826.573 387.78 830.096 387.186 834.132 387.186C840.093 387.186 844.784 388.446 848.206 390.966C851.647 393.486 853.655 396.917 854.228 401.26ZM883.142 435.922C878.369 435.922 874.241 434.908 870.758 432.88C867.296 430.831 864.623 427.984 862.738 424.337C860.853 420.67 859.911 416.419 859.911 411.585C859.911 406.709 860.853 402.448 862.738 398.802C864.623 395.135 867.296 392.287 870.758 390.259C874.241 388.211 878.369 387.186 883.142 387.186C887.915 387.186 892.033 388.211 895.495 390.259C898.977 392.287 901.661 395.135 903.546 398.802C905.43 402.448 906.373 406.709 906.373 411.585C906.373 416.419 905.43 420.67 903.546 424.337C901.661 427.984 898.977 430.831 895.495 432.88C892.033 434.908 887.915 435.922 883.142 435.922ZM883.203 425.781C885.375 425.781 887.188 425.167 888.642 423.938C890.097 422.688 891.193 420.988 891.93 418.837C892.688 416.686 893.067 414.238 893.067 411.493C893.067 408.748 892.688 406.299 891.93 404.148C891.193 401.997 890.097 400.297 888.642 399.048C887.188 397.798 885.375 397.173 883.203 397.173C881.011 397.173 879.168 397.798 877.672 399.048C876.197 400.297 875.081 401.997 874.323 404.148C873.585 406.299 873.216 408.748 873.216 411.493C873.216 414.238 873.585 416.686 874.323 418.837C875.081 420.988 876.197 422.688 877.672 423.938C879.168 425.167 881.011 425.781 883.203 425.781ZM943.422 414.903V387.801H956.512V435H943.944V426.427H943.452C942.387 429.192 940.615 431.415 938.136 433.095C935.678 434.775 932.677 435.615 929.133 435.615C925.978 435.615 923.202 434.898 920.805 433.464C918.408 432.03 916.534 429.991 915.182 427.349C913.85 424.706 913.174 421.541 913.154 417.853V387.801H926.244V415.518C926.265 418.304 927.012 420.506 928.487 422.125C929.962 423.743 931.939 424.552 934.418 424.552C935.995 424.552 937.47 424.194 938.843 423.477C940.216 422.739 941.322 421.654 942.162 420.22C943.022 418.786 943.442 417.014 943.422 414.903ZM965.252 435V387.801H977.943V396.036H978.435C979.295 393.107 980.739 390.894 982.767 389.399C984.795 387.883 987.131 387.125 989.774 387.125C990.429 387.125 991.136 387.166 991.894 387.248C992.652 387.33 993.318 387.442 993.891 387.586V399.201C993.277 399.017 992.426 398.853 991.341 398.709C990.255 398.566 989.261 398.494 988.36 398.494C986.434 398.494 984.714 398.914 983.198 399.754C981.702 400.574 980.514 401.721 979.633 403.196C978.773 404.671 978.342 406.371 978.342 408.297V435H965.252ZM1018.06 435.922C1013.22 435.922 1009.06 434.898 1005.58 432.849C1002.12 430.78 999.456 427.912 997.592 424.245C995.748 420.578 994.826 416.358 994.826 411.585C994.826 406.75 995.758 402.51 997.623 398.863C999.507 395.196 1002.18 392.338 1005.64 390.29C1009.1 388.221 1013.22 387.186 1018 387.186C1022.11 387.186 1025.72 387.934 1028.81 389.429C1031.91 390.925 1034.35 393.025 1036.16 395.729C1037.96 398.433 1038.95 401.608 1039.14 405.255H1026.78C1026.44 402.899 1025.51 401.004 1024.02 399.57C1022.54 398.115 1020.61 397.388 1018.21 397.388C1016.18 397.388 1014.41 397.941 1012.89 399.048C1011.4 400.133 1010.23 401.721 1009.39 403.81C1008.55 405.9 1008.13 408.43 1008.13 411.4C1008.13 414.412 1008.54 416.973 1009.36 419.083C1010.2 421.193 1011.38 422.801 1012.89 423.907C1014.41 425.013 1016.18 425.566 1018.21 425.566C1019.71 425.566 1021.05 425.259 1022.24 424.644C1023.44 424.03 1024.44 423.139 1025.22 421.971C1026.02 420.783 1026.54 419.359 1026.78 417.7H1039.14C1038.93 421.305 1037.95 424.481 1036.19 427.226C1034.45 429.95 1032.04 432.081 1028.97 433.617C1025.89 435.154 1022.26 435.922 1018.06 435.922ZM1067.3 435.922C1062.44 435.922 1058.26 434.939 1054.76 432.972C1051.28 430.985 1048.59 428.178 1046.71 424.552C1044.82 420.906 1043.88 416.594 1043.88 411.616C1043.88 406.76 1044.82 402.499 1046.71 398.832C1048.59 395.165 1051.25 392.308 1054.67 390.259C1058.11 388.211 1062.15 387.186 1066.78 387.186C1069.89 387.186 1072.79 387.688 1075.47 388.692C1078.18 389.675 1080.53 391.161 1082.54 393.148C1084.57 395.135 1086.14 397.634 1087.27 400.645C1088.4 403.636 1088.96 407.139 1088.96 411.155V414.75H1049.11V406.637H1076.64C1076.64 404.753 1076.23 403.083 1075.41 401.629C1074.59 400.174 1073.45 399.037 1072 398.218C1070.56 397.378 1068.9 396.958 1066.99 396.958C1065 396.958 1063.24 397.419 1061.7 398.341C1060.19 399.242 1059 400.461 1058.14 401.997C1057.28 403.513 1056.84 405.203 1056.82 407.068V414.781C1056.82 417.116 1057.25 419.134 1058.11 420.834C1058.99 422.534 1060.23 423.846 1061.83 424.767C1063.43 425.689 1065.32 426.15 1067.51 426.15C1068.97 426.15 1070.3 425.945 1071.51 425.536C1072.72 425.126 1073.75 424.511 1074.61 423.692C1075.47 422.872 1076.13 421.869 1076.58 420.68L1088.68 421.479C1088.07 424.388 1086.81 426.929 1084.9 429.1C1083.02 431.251 1080.58 432.931 1077.59 434.14C1074.62 435.328 1071.19 435.922 1067.3 435.922ZM141.492 514.903V487.801H154.582V535H142.014V526.427H141.522C140.457 529.192 138.685 531.415 136.206 533.095C133.748 534.775 130.747 535.615 127.203 535.615C124.048 535.615 121.272 534.898 118.875 533.464C116.478 532.03 114.604 529.991 113.252 527.349C111.92 524.706 111.244 521.541 111.224 517.853V487.801H124.314V515.518C124.335 518.304 125.082 520.506 126.557 522.125C128.032 523.743 130.009 524.552 132.488 524.552C134.065 524.552 135.54 524.194 136.913 523.477C138.286 522.739 139.392 521.654 140.232 520.22C141.092 518.786 141.512 517.014 141.492 514.903ZM188.427 487.801V497.634H160.003V487.801H188.427ZM166.456 476.493H179.547V520.496C179.547 521.705 179.731 522.647 180.1 523.323C180.469 523.979 180.981 524.44 181.636 524.706C182.312 524.972 183.091 525.105 183.972 525.105C184.586 525.105 185.201 525.054 185.815 524.952C186.43 524.829 186.901 524.737 187.229 524.675L189.288 534.416C188.632 534.621 187.71 534.857 186.522 535.123C185.334 535.41 183.89 535.584 182.189 535.645C179.035 535.768 176.269 535.348 173.893 534.385C171.537 533.423 169.703 531.927 168.392 529.899C167.081 527.871 166.436 525.31 166.456 522.217V476.493ZM195.224 535V487.801H208.314V535H195.224ZM201.8 481.717C199.854 481.717 198.184 481.071 196.791 479.781C195.419 478.47 194.732 476.902 194.732 475.079C194.732 473.276 195.419 471.73 196.791 470.439C198.184 469.128 199.854 468.473 201.8 468.473C203.746 468.473 205.405 469.128 206.778 470.439C208.171 471.73 208.867 473.276 208.867 475.079C208.867 476.902 208.171 478.47 206.778 479.781C205.405 481.071 203.746 481.717 201.8 481.717ZM230.16 472.068V535H217.07V472.068H230.16ZM238.916 535V487.801H252.006V535H238.916ZM245.492 481.717C243.545 481.717 241.876 481.071 240.483 479.781C239.11 478.47 238.424 476.902 238.424 475.079C238.424 473.276 239.11 471.73 240.483 470.439C241.876 469.128 243.545 468.473 245.492 468.473C247.438 468.473 249.097 469.128 250.47 470.439C251.863 471.73 252.559 473.276 252.559 475.079C252.559 476.902 251.863 478.47 250.47 479.781C249.097 481.071 247.438 481.717 245.492 481.717ZM260.516 535V527.195L283.624 498.587V498.249H261.315V487.801H299.387V496.313L277.693 524.214V524.552H300.186V535H260.516ZM321.925 535.891C318.913 535.891 316.23 535.369 313.874 534.324C311.518 533.259 309.654 531.692 308.281 529.622C306.929 527.533 306.253 524.931 306.253 521.817C306.253 519.195 306.735 516.993 307.697 515.211C308.66 513.429 309.971 511.995 311.631 510.909C313.29 509.823 315.175 509.004 317.285 508.45C319.415 507.897 321.648 507.508 323.984 507.283C326.729 506.996 328.941 506.73 330.621 506.484C332.301 506.218 333.52 505.828 334.278 505.316C335.036 504.804 335.415 504.046 335.415 503.042V502.858C335.415 500.912 334.8 499.406 333.571 498.341C332.362 497.275 330.641 496.743 328.409 496.743C326.053 496.743 324.178 497.265 322.785 498.31C321.392 499.334 320.47 500.625 320.02 502.182L307.913 501.199C308.527 498.331 309.736 495.852 311.539 493.762C313.341 491.652 315.666 490.034 318.514 488.907C321.382 487.76 324.701 487.186 328.47 487.186C331.092 487.186 333.602 487.494 335.998 488.108C338.416 488.723 340.557 489.675 342.421 490.966C344.305 492.256 345.791 493.916 346.876 495.944C347.962 497.952 348.505 500.359 348.505 503.165V535H336.091V528.455H335.722C334.964 529.93 333.95 531.231 332.68 532.357C331.41 533.464 329.883 534.334 328.101 534.969C326.319 535.584 324.26 535.891 321.925 535.891ZM325.674 526.857C327.599 526.857 329.3 526.478 330.775 525.72C332.25 524.941 333.407 523.897 334.247 522.586C335.087 521.275 335.507 519.789 335.507 518.13V513.121C335.097 513.388 334.534 513.633 333.817 513.859C333.12 514.064 332.332 514.258 331.451 514.443C330.57 514.606 329.689 514.76 328.808 514.903C327.927 515.026 327.128 515.139 326.411 515.241C324.875 515.467 323.533 515.825 322.386 516.317C321.239 516.809 320.347 517.474 319.712 518.314C319.077 519.134 318.76 520.158 318.76 521.387C318.76 523.169 319.405 524.532 320.696 525.474C322.007 526.396 323.666 526.857 325.674 526.857ZM382.035 487.801V497.634H353.612V487.801H382.035ZM360.065 476.493H373.155V520.496C373.155 521.705 373.339 522.647 373.708 523.323C374.077 523.979 374.589 524.44 375.244 524.706C375.92 524.972 376.699 525.105 377.58 525.105C378.194 525.105 378.809 525.054 379.424 524.952C380.038 524.829 380.509 524.737 380.837 524.675L382.896 534.416C382.24 534.621 381.318 534.857 380.13 535.123C378.942 535.41 377.498 535.584 375.798 535.645C372.643 535.768 369.877 535.348 367.501 534.385C365.145 533.423 363.312 531.927 362 529.899C360.689 527.871 360.044 525.31 360.065 522.217V476.493ZM388.832 535V487.801H401.922V535H388.832ZM395.408 481.717C393.462 481.717 391.792 481.071 390.399 479.781C389.027 478.47 388.34 476.902 388.34 475.079C388.34 473.276 389.027 471.73 390.399 470.439C391.792 469.128 393.462 468.473 395.408 468.473C397.354 468.473 399.013 469.128 400.386 470.439C401.779 471.73 402.476 473.276 402.476 475.079C402.476 476.902 401.779 478.47 400.386 479.781C399.013 481.071 397.354 481.717 395.408 481.717ZM432.004 535.922C427.23 535.922 423.103 534.908 419.62 532.88C416.158 530.831 413.484 527.984 411.6 524.337C409.715 520.67 408.773 516.419 408.773 511.585C408.773 506.709 409.715 502.448 411.6 498.802C413.484 495.135 416.158 492.287 419.62 490.259C423.103 488.211 427.23 487.186 432.004 487.186C436.777 487.186 440.894 488.211 444.357 490.259C447.839 492.287 450.523 495.135 452.407 498.802C454.292 502.448 455.234 506.709 455.234 511.585C455.234 516.419 454.292 520.67 452.407 524.337C450.523 527.984 447.839 530.831 444.357 532.88C440.894 534.908 436.777 535.922 432.004 535.922ZM432.065 525.781C434.237 525.781 436.05 525.167 437.504 523.938C438.959 522.688 440.054 520.988 440.792 518.837C441.55 516.686 441.929 514.238 441.929 511.493C441.929 508.748 441.55 506.299 440.792 504.148C440.054 501.997 438.959 500.297 437.504 499.048C436.05 497.798 434.237 497.173 432.065 497.173C429.873 497.173 428.029 497.798 426.534 499.048C425.059 500.297 423.942 501.997 423.184 504.148C422.447 506.299 422.078 508.748 422.078 511.493C422.078 514.238 422.447 516.686 423.184 518.837C423.942 520.988 425.059 522.688 426.534 523.938C428.029 525.167 429.873 525.781 432.065 525.781ZM475.106 507.713V535H462.016V487.801H474.491V496.128H475.045C476.089 493.383 477.841 491.212 480.299 489.614C482.757 487.995 485.738 487.186 489.241 487.186C492.519 487.186 495.377 487.903 497.814 489.337C500.252 490.771 502.147 492.82 503.499 495.483C504.851 498.126 505.527 501.28 505.527 504.947V535H492.437V507.283C492.457 504.394 491.72 502.141 490.224 500.522C488.729 498.884 486.67 498.064 484.048 498.064C482.286 498.064 480.729 498.443 479.377 499.201C478.046 499.959 477.001 501.065 476.243 502.52C475.505 503.954 475.126 505.685 475.106 507.713ZM532.411 535V487.801H545.501V535H532.411ZM538.987 481.717C537.04 481.717 535.371 481.071 533.978 479.781C532.605 478.47 531.919 476.902 531.919 475.079C531.919 473.276 532.605 471.73 533.978 470.439C535.371 469.128 537.04 468.473 538.987 468.473C540.933 468.473 542.592 469.128 543.965 470.439C545.358 471.73 546.054 473.276 546.054 475.079C546.054 476.902 545.358 478.47 543.965 479.781C542.592 481.071 540.933 481.717 538.987 481.717ZM567.347 507.713V535H554.256V487.801H566.732V496.128H567.285C568.33 493.383 570.082 491.212 572.54 489.614C574.998 487.995 577.979 487.186 581.482 487.186C584.76 487.186 587.618 487.903 590.055 489.337C592.493 490.771 594.388 492.82 595.74 495.483C597.092 498.126 597.768 501.28 597.768 504.947V535H584.678V507.283C584.698 504.394 583.961 502.141 582.465 500.522C580.97 498.884 578.911 498.064 576.289 498.064C574.527 498.064 572.97 498.443 571.618 499.201C570.287 499.959 569.242 501.065 568.484 502.52C567.746 503.954 567.367 505.685 567.347 507.713ZM624.897 535V472.068H638.203V499.816H639.032L661.679 472.068H677.628L654.274 500.246L677.904 535H661.987L644.748 509.127L638.203 517.116V535H624.897ZM709.89 514.903V487.801H722.981V535H710.413V526.427H709.921C708.856 529.192 707.084 531.415 704.605 533.095C702.147 534.775 699.146 535.615 695.602 535.615C692.447 535.615 689.671 534.898 687.274 533.464C684.877 532.03 683.003 529.991 681.651 527.349C680.319 524.706 679.643 521.541 679.623 517.853V487.801H692.713V515.518C692.734 518.304 693.481 520.506 694.956 522.125C696.431 523.743 698.408 524.552 700.887 524.552C702.464 524.552 703.939 524.194 705.312 523.477C706.684 522.739 707.791 521.654 708.631 520.22C709.491 518.786 709.911 517.014 709.89 514.903ZM731.967 535V472.068H745.057V495.729H745.457C746.03 494.459 746.86 493.168 747.946 491.857C749.052 490.525 750.486 489.419 752.248 488.538C754.03 487.637 756.242 487.186 758.885 487.186C762.327 487.186 765.502 488.088 768.411 489.89C771.32 491.673 773.645 494.367 775.386 497.972C777.128 501.557 777.998 506.054 777.998 511.462C777.998 516.727 777.148 521.172 775.448 524.798C773.768 528.404 771.474 531.138 768.565 533.003C765.676 534.846 762.439 535.768 758.854 535.768C756.314 535.768 754.153 535.348 752.371 534.508C750.609 533.668 749.165 532.613 748.038 531.343C746.911 530.053 746.051 528.752 745.457 527.441H744.873V535H731.967ZM744.781 511.4C744.781 514.207 745.17 516.655 745.948 518.745C746.727 520.834 747.854 522.463 749.328 523.63C750.803 524.778 752.596 525.351 754.706 525.351C756.837 525.351 758.639 524.767 760.114 523.6C761.589 522.412 762.706 520.773 763.464 518.683C764.242 516.573 764.631 514.146 764.631 511.4C764.631 508.676 764.252 506.279 763.494 504.21C762.736 502.141 761.62 500.522 760.145 499.355C758.67 498.187 756.857 497.603 754.706 497.603C752.575 497.603 750.773 498.167 749.298 499.293C747.843 500.42 746.727 502.018 745.948 504.087C745.17 506.156 744.781 508.594 744.781 511.4ZM806.512 535.922C801.657 535.922 797.478 534.939 793.975 532.972C790.492 530.985 787.809 528.178 785.924 524.552C784.039 520.906 783.097 516.594 783.097 511.616C783.097 506.76 784.039 502.499 785.924 498.832C787.809 495.165 790.462 492.308 793.883 490.259C797.324 488.211 801.36 487.186 805.99 487.186C809.104 487.186 812.003 487.688 814.686 488.692C817.39 489.675 819.746 491.161 821.754 493.148C823.782 495.135 825.359 497.634 826.486 500.645C827.613 503.636 828.176 507.139 828.176 511.155V514.75H788.321V506.637H815.854C815.854 504.753 815.444 503.083 814.625 501.629C813.805 500.174 812.668 499.037 811.214 498.218C809.78 497.378 808.11 496.958 806.205 496.958C804.218 496.958 802.456 497.419 800.92 498.341C799.404 499.242 798.216 500.461 797.355 501.997C796.495 503.513 796.054 505.203 796.034 507.068V514.781C796.034 517.116 796.464 519.134 797.324 520.834C798.205 522.534 799.445 523.846 801.043 524.767C802.641 525.689 804.535 526.15 806.727 526.15C808.182 526.15 809.514 525.945 810.722 525.536C811.931 525.126 812.965 524.511 813.826 523.692C814.686 522.872 815.342 521.869 815.792 520.68L827.899 521.479C827.285 524.388 826.025 526.929 824.12 529.1C822.235 531.251 819.797 532.931 816.806 534.14C813.836 535.328 810.405 535.922 806.512 535.922ZM834.988 535V487.801H847.679V496.036H848.17C849.031 493.107 850.475 490.894 852.503 489.399C854.531 487.883 856.867 487.125 859.509 487.125C860.165 487.125 860.872 487.166 861.63 487.248C862.388 487.33 863.053 487.442 863.627 487.586V499.201C863.012 499.017 862.162 498.853 861.077 498.709C859.991 498.566 858.997 498.494 858.096 498.494C856.17 498.494 854.449 498.914 852.933 499.754C851.438 500.574 850.25 501.721 849.369 503.196C848.508 504.671 848.078 506.371 848.078 508.297V535H834.988ZM881.755 507.713V535H868.664V487.801H881.14V496.128H881.693C882.738 493.383 884.49 491.212 886.948 489.614C889.406 487.995 892.387 487.186 895.89 487.186C899.168 487.186 902.025 487.903 904.463 489.337C906.901 490.771 908.796 492.82 910.148 495.483C911.5 498.126 912.176 501.28 912.176 504.947V535H899.086V507.283C899.106 504.394 898.369 502.141 896.873 500.522C895.378 498.884 893.319 498.064 890.697 498.064C888.935 498.064 887.378 498.443 886.026 499.201C884.694 499.959 883.65 501.065 882.892 502.52C882.154 503.954 881.775 505.685 881.755 507.713ZM942.273 535.922C937.417 535.922 933.238 534.939 929.735 532.972C926.253 530.985 923.569 528.178 921.684 524.552C919.8 520.906 918.857 516.594 918.857 511.616C918.857 506.76 919.8 502.499 921.684 498.832C923.569 495.165 926.222 492.308 929.643 490.259C933.085 488.211 937.12 487.186 941.75 487.186C944.864 487.186 947.763 487.688 950.446 488.692C953.151 489.675 955.506 491.161 957.514 493.148C959.542 495.135 961.119 497.634 962.246 500.645C963.373 503.636 963.936 507.139 963.936 511.155V514.75H924.081V506.637H951.614C951.614 504.753 951.204 503.083 950.385 501.629C949.566 500.174 948.429 499.037 946.974 498.218C945.54 497.378 943.87 496.958 941.965 496.958C939.978 496.958 938.216 497.419 936.68 498.341C935.164 499.242 933.976 500.461 933.115 501.997C932.255 503.513 931.815 505.203 931.794 507.068V514.781C931.794 517.116 932.224 519.134 933.085 520.834C933.966 522.534 935.205 523.846 936.803 524.767C938.401 525.689 940.296 526.15 942.488 526.15C943.942 526.15 945.274 525.945 946.482 525.536C947.691 525.126 948.726 524.511 949.586 523.692C950.446 522.872 951.102 521.869 951.553 520.68L963.66 521.479C963.045 524.388 961.785 526.929 959.88 529.1C957.995 531.251 955.558 532.931 952.567 534.14C949.596 535.328 946.165 535.922 942.273 535.922ZM995.853 487.801V497.634H967.43V487.801H995.853ZM973.883 476.493H986.973V520.496C986.973 521.705 987.157 522.647 987.526 523.323C987.895 523.979 988.407 524.44 989.062 524.706C989.739 524.972 990.517 525.105 991.398 525.105C992.012 525.105 992.627 525.054 993.242 524.952C993.856 524.829 994.327 524.737 994.655 524.675L996.714 534.416C996.058 534.621 995.137 534.857 993.948 535.123C992.76 535.41 991.316 535.584 989.616 535.645C986.461 535.768 983.695 535.348 981.319 534.385C978.963 533.423 977.13 531.927 975.818 529.899C974.507 527.871 973.862 525.31 973.883 522.217V476.493ZM1023.65 535.922C1018.8 535.922 1014.62 534.939 1011.12 532.972C1007.63 530.985 1004.95 528.178 1003.06 524.552C1001.18 520.906 1000.24 516.594 1000.24 511.616C1000.24 506.76 1001.18 502.499 1003.06 498.832C1004.95 495.165 1007.6 492.308 1011.02 490.259C1014.47 488.211 1018.5 487.186 1023.13 487.186C1026.24 487.186 1029.14 487.688 1031.83 488.692C1034.53 489.675 1036.89 491.161 1038.89 493.148C1040.92 495.135 1042.5 497.634 1043.63 500.645C1044.75 503.636 1045.32 507.139 1045.32 511.155V514.75H1005.46V506.637H1032.99C1032.99 504.753 1032.58 503.083 1031.77 501.629C1030.95 500.174 1029.81 499.037 1028.35 498.218C1026.92 497.378 1025.25 496.958 1023.35 496.958C1021.36 496.958 1019.6 497.419 1018.06 498.341C1016.54 499.242 1015.36 500.461 1014.5 501.997C1013.64 503.513 1013.2 505.203 1013.17 507.068V514.781C1013.17 517.116 1013.6 519.134 1014.47 520.834C1015.35 522.534 1016.59 523.846 1018.18 524.767C1019.78 525.689 1021.68 526.15 1023.87 526.15C1025.32 526.15 1026.65 525.945 1027.86 525.536C1029.07 525.126 1030.11 524.511 1030.97 523.692C1031.83 522.872 1032.48 521.869 1032.93 520.68L1045.04 521.479C1044.43 524.388 1043.17 526.929 1041.26 529.1C1039.38 531.251 1036.94 532.931 1033.95 534.14C1030.98 535.328 1027.55 535.922 1023.65 535.922ZM1091.4 501.26L1079.42 501.997C1079.21 500.973 1078.77 500.051 1078.09 499.232C1077.42 498.392 1076.53 497.726 1075.42 497.235C1074.34 496.722 1073.03 496.466 1071.52 496.466C1069.49 496.466 1067.78 496.897 1066.39 497.757C1064.99 498.597 1064.3 499.724 1064.3 501.137C1064.3 502.264 1064.75 503.216 1065.65 503.995C1066.55 504.773 1068.1 505.398 1070.29 505.869L1078.83 507.59C1083.42 508.532 1086.84 510.048 1089.1 512.138C1091.35 514.227 1092.48 516.973 1092.48 520.373C1092.48 523.467 1091.56 526.181 1089.74 528.516C1087.94 530.852 1085.46 532.675 1082.3 533.986C1079.17 535.277 1075.55 535.922 1071.46 535.922C1065.21 535.922 1060.23 534.621 1056.52 532.019C1052.84 529.397 1050.67 525.833 1050.04 521.326L1062.91 520.65C1063.3 522.555 1064.25 524.009 1065.74 525.013C1067.24 525.997 1069.15 526.488 1071.49 526.488C1073.78 526.488 1075.63 526.048 1077.02 525.167C1078.43 524.265 1079.15 523.108 1079.17 521.695C1079.15 520.506 1078.65 519.533 1077.66 518.775C1076.68 517.997 1075.16 517.403 1073.12 516.993L1064.94 515.364C1060.33 514.443 1056.9 512.845 1054.65 510.571C1052.42 508.297 1051.3 505.398 1051.3 501.875C1051.3 498.843 1052.12 496.231 1053.76 494.039C1055.42 491.847 1057.74 490.157 1060.73 488.969C1063.74 487.78 1067.27 487.186 1071.3 487.186C1077.26 487.186 1081.96 488.446 1085.38 490.966C1088.82 493.486 1090.83 496.917 1091.4 501.26Z" fill="black"/>
</g>
<path d="M141.565 747.48H135.804C135.582 746.249 135.17 745.166 134.567 744.23C133.964 743.295 133.225 742.5 132.351 741.848C131.477 741.196 130.498 740.703 129.415 740.371C128.344 740.038 127.205 739.872 125.999 739.872C123.82 739.872 121.868 740.42 120.145 741.516C118.434 742.611 117.08 744.218 116.082 746.335C115.098 748.453 114.605 751.038 114.605 754.091C114.605 757.169 115.098 759.766 116.082 761.884C117.08 764.001 118.44 765.601 120.163 766.685C121.887 767.768 123.826 768.31 125.98 768.31C127.174 768.31 128.307 768.15 129.378 767.83C130.461 767.497 131.44 767.011 132.314 766.371C133.188 765.731 133.927 764.949 134.53 764.026C135.145 763.09 135.57 762.019 135.804 760.812L141.565 760.831C141.258 762.69 140.661 764.401 139.774 765.964C138.9 767.516 137.774 768.857 136.395 769.99C135.028 771.11 133.465 771.978 131.705 772.594C129.944 773.209 128.024 773.517 125.943 773.517C122.669 773.517 119.751 772.741 117.19 771.19C114.63 769.627 112.611 767.393 111.134 764.487C109.669 761.582 108.936 758.116 108.936 754.091C108.936 750.053 109.675 746.588 111.152 743.695C112.629 740.789 114.648 738.561 117.209 737.01C119.769 735.446 122.681 734.665 125.943 734.665C127.95 734.665 129.821 734.954 131.557 735.533C133.305 736.099 134.875 736.936 136.266 738.044C137.657 739.14 138.808 740.482 139.719 742.07C140.63 743.645 141.245 745.449 141.565 747.48ZM151.576 756.159V773H146.055V735.182H151.503V749.253H151.853C152.518 747.726 153.534 746.514 154.9 745.615C156.267 744.716 158.052 744.267 160.255 744.267C162.201 744.267 163.899 744.667 165.352 745.467C166.817 746.268 167.95 747.462 168.75 749.05C169.562 750.625 169.969 752.595 169.969 754.959V773H164.447V755.624C164.447 753.543 163.912 751.93 162.841 750.786C161.77 749.628 160.28 749.05 158.372 749.05C157.067 749.05 155.898 749.327 154.863 749.881C153.842 750.435 153.035 751.247 152.444 752.318C151.866 753.377 151.576 754.657 151.576 756.159ZM175.442 773V744.636H180.778V749.142H181.074C181.591 747.616 182.502 746.415 183.807 745.541C185.124 744.655 186.614 744.212 188.276 744.212C188.62 744.212 189.026 744.224 189.494 744.249C189.974 744.273 190.35 744.304 190.621 744.341V749.622C190.399 749.561 190.005 749.493 189.439 749.419C188.873 749.333 188.306 749.29 187.74 749.29C186.435 749.29 185.272 749.567 184.25 750.121C183.24 750.662 182.44 751.42 181.849 752.392C181.258 753.352 180.963 754.448 180.963 755.679V773H175.442ZM193.504 773V744.636H199.025V773H193.504ZM196.292 740.26C195.332 740.26 194.507 739.94 193.818 739.3C193.141 738.647 192.802 737.872 192.802 736.973C192.802 736.062 193.141 735.286 193.818 734.646C194.507 733.994 195.332 733.668 196.292 733.668C197.253 733.668 198.071 733.994 198.748 734.646C199.438 735.286 199.782 736.062 199.782 736.973C199.782 737.872 199.438 738.647 198.748 739.3C198.071 739.94 197.253 740.26 196.292 740.26ZM225.813 751.561L220.808 752.447C220.599 751.807 220.267 751.198 219.811 750.619C219.368 750.041 218.765 749.567 218.002 749.197C217.238 748.828 216.284 748.643 215.139 748.643C213.576 748.643 212.271 748.994 211.225 749.696C210.178 750.385 209.655 751.278 209.655 752.374C209.655 753.321 210.006 754.085 210.708 754.663C211.409 755.242 212.542 755.716 214.105 756.085L218.611 757.119C221.221 757.723 223.166 758.652 224.446 759.908C225.727 761.163 226.367 762.795 226.367 764.801C226.367 766.5 225.874 768.014 224.889 769.344C223.917 770.661 222.557 771.695 220.808 772.446C219.073 773.197 217.06 773.572 214.77 773.572C211.594 773.572 209.003 772.895 206.996 771.541C204.989 770.175 203.758 768.236 203.303 765.724L208.639 764.912C208.972 766.303 209.655 767.356 210.689 768.07C211.723 768.771 213.071 769.122 214.733 769.122C216.543 769.122 217.989 768.747 219.073 767.996C220.156 767.232 220.698 766.303 220.698 765.207C220.698 764.321 220.365 763.576 219.701 762.973C219.048 762.37 218.045 761.914 216.691 761.607L211.889 760.554C209.243 759.951 207.285 758.991 206.017 757.673C204.762 756.356 204.134 754.688 204.134 752.669C204.134 750.995 204.602 749.53 205.537 748.274C206.473 747.018 207.765 746.04 209.415 745.338C211.065 744.624 212.954 744.267 215.084 744.267C218.149 744.267 220.562 744.932 222.323 746.261C224.083 747.579 225.246 749.345 225.813 751.561ZM273.377 735.182V773H268.133L248.91 745.264H248.559V773H242.853V735.182H248.134L267.376 762.955H267.726V735.182H273.377ZM291.587 773.572C288.792 773.572 286.386 772.975 284.367 771.781C282.36 770.575 280.809 768.882 279.713 766.703C278.63 764.512 278.088 761.945 278.088 759.003C278.088 756.098 278.63 753.537 279.713 751.321C280.809 749.105 282.336 747.375 284.293 746.132C286.263 744.889 288.565 744.267 291.199 744.267C292.8 744.267 294.351 744.532 295.853 745.061C297.355 745.59 298.703 746.421 299.897 747.554C301.091 748.687 302.033 750.158 302.722 751.967C303.411 753.765 303.756 755.95 303.756 758.523V760.48H281.209V756.344H298.346C298.346 754.891 298.05 753.605 297.459 752.484C296.868 751.352 296.037 750.459 294.966 749.807C293.908 749.154 292.664 748.828 291.236 748.828C289.685 748.828 288.331 749.21 287.174 749.973C286.029 750.724 285.142 751.709 284.515 752.928C283.899 754.134 283.591 755.445 283.591 756.861V760.092C283.591 761.988 283.924 763.601 284.588 764.93C285.265 766.26 286.207 767.276 287.414 767.977C288.62 768.667 290.03 769.011 291.642 769.011C292.689 769.011 293.643 768.864 294.505 768.568C295.366 768.26 296.111 767.805 296.739 767.202C297.367 766.598 297.847 765.854 298.179 764.967L303.405 765.909C302.987 767.448 302.236 768.796 301.152 769.953C300.081 771.098 298.733 771.991 297.108 772.631C295.496 773.259 293.655 773.572 291.587 773.572ZM329.242 751.561L324.237 752.447C324.028 751.807 323.696 751.198 323.24 750.619C322.797 750.041 322.194 749.567 321.431 749.197C320.667 748.828 319.713 748.643 318.568 748.643C317.005 748.643 315.7 748.994 314.654 749.696C313.607 750.385 313.084 751.278 313.084 752.374C313.084 753.321 313.435 754.085 314.136 754.663C314.838 755.242 315.971 755.716 317.534 756.085L322.04 757.119C324.65 757.723 326.595 758.652 327.875 759.908C329.155 761.163 329.796 762.795 329.796 764.801C329.796 766.5 329.303 768.014 328.318 769.344C327.346 770.661 325.985 771.695 324.237 772.446C322.502 773.197 320.489 773.572 318.199 773.572C315.023 773.572 312.431 772.895 310.425 771.541C308.418 770.175 307.187 768.236 306.732 765.724L312.068 764.912C312.401 766.303 313.084 767.356 314.118 768.07C315.152 768.771 316.5 769.122 318.162 769.122C319.972 769.122 321.418 768.747 322.502 767.996C323.585 767.232 324.127 766.303 324.127 765.207C324.127 764.321 323.794 763.576 323.129 762.973C322.477 762.37 321.474 761.914 320.119 761.607L315.318 760.554C312.672 759.951 310.714 758.991 309.446 757.673C308.19 756.356 307.563 754.688 307.563 752.669C307.563 750.995 308.03 749.53 308.966 748.274C309.902 747.018 311.194 746.04 312.844 745.338C314.493 744.624 316.383 744.267 318.513 744.267C321.578 744.267 323.991 744.932 325.752 746.261C327.512 747.579 328.675 749.345 329.242 751.561ZM334.415 773V735.182H339.936V749.234H340.268C340.588 748.643 341.05 747.96 341.653 747.185C342.257 746.409 343.094 745.732 344.165 745.153C345.236 744.562 346.651 744.267 348.412 744.267C350.702 744.267 352.745 744.846 354.543 746.003C356.34 747.16 357.749 748.828 358.771 751.007C359.805 753.186 360.322 755.808 360.322 758.874C360.322 761.939 359.811 764.567 358.79 766.759C357.768 768.937 356.365 770.618 354.579 771.8C352.794 772.969 350.757 773.554 348.467 773.554C346.744 773.554 345.334 773.265 344.239 772.686C343.155 772.107 342.306 771.43 341.69 770.655C341.075 769.879 340.601 769.19 340.268 768.587H339.807V773H334.415ZM339.825 758.818C339.825 760.812 340.115 762.561 340.693 764.062C341.272 765.564 342.109 766.74 343.204 767.589C344.3 768.427 345.642 768.845 347.23 768.845C348.88 768.845 350.258 768.408 351.366 767.534C352.474 766.648 353.311 765.447 353.878 763.933C354.456 762.419 354.746 760.714 354.746 758.818C354.746 756.947 354.463 755.267 353.896 753.777C353.342 752.287 352.505 751.112 351.385 750.25C350.277 749.388 348.892 748.957 347.23 748.957C345.63 748.957 344.275 749.37 343.168 750.195C342.072 751.019 341.241 752.17 340.675 753.648C340.108 755.125 339.825 756.848 339.825 758.818ZM364.628 773V744.636H370.149V773H364.628ZM367.416 740.26C366.456 740.26 365.631 739.94 364.941 739.3C364.264 738.647 363.926 737.872 363.926 736.973C363.926 736.062 364.264 735.286 364.941 734.646C365.631 733.994 366.456 733.668 367.416 733.668C368.376 733.668 369.195 733.994 369.872 734.646C370.561 735.286 370.906 736.062 370.906 736.973C370.906 737.872 370.561 738.647 369.872 739.3C369.195 739.94 368.376 740.26 367.416 740.26ZM388.922 744.636V749.068H373.429V744.636H388.922ZM377.584 737.841H383.105V764.672C383.105 765.743 383.265 766.549 383.585 767.091C383.906 767.62 384.318 767.983 384.823 768.18C385.34 768.365 385.9 768.457 386.503 768.457C386.946 768.457 387.334 768.427 387.666 768.365C387.999 768.304 388.257 768.254 388.442 768.217L389.439 772.778C389.119 772.902 388.664 773.025 388.073 773.148C387.482 773.283 386.743 773.357 385.857 773.369C384.404 773.394 383.05 773.135 381.794 772.594C380.539 772.052 379.523 771.215 378.747 770.082C377.972 768.95 377.584 767.528 377.584 765.817V737.841ZM406.375 744.636V749.068H390.882V744.636H406.375ZM395.037 737.841H400.558V764.672C400.558 765.743 400.718 766.549 401.038 767.091C401.358 767.62 401.771 767.983 402.276 768.18C402.793 768.365 403.353 768.457 403.956 768.457C404.399 768.457 404.787 768.427 405.119 768.365C405.452 768.304 405.71 768.254 405.895 768.217L406.892 772.778C406.572 772.902 406.116 773.025 405.526 773.148C404.935 773.283 404.196 773.357 403.31 773.369C401.857 773.394 400.503 773.135 399.247 772.594C397.991 772.052 396.976 771.215 396.2 770.082C395.425 768.95 395.037 767.528 395.037 765.817V737.841ZM426.335 754.626V759.409H409.568V754.626H426.335ZM452.868 745.116C452.671 743.368 451.859 742.014 450.431 741.054C449.003 740.081 447.205 739.595 445.039 739.595C443.488 739.595 442.146 739.841 441.013 740.334C439.881 740.814 439 741.479 438.372 742.328C437.757 743.165 437.449 744.119 437.449 745.19C437.449 746.089 437.658 746.865 438.077 747.517C438.508 748.17 439.068 748.717 439.757 749.161C440.459 749.591 441.21 749.955 442.01 750.25C442.81 750.533 443.58 750.767 444.319 750.952L448.012 751.912C449.218 752.207 450.455 752.607 451.723 753.112C452.991 753.617 454.167 754.282 455.25 755.107C456.334 755.931 457.208 756.953 457.872 758.172C458.55 759.391 458.888 760.849 458.888 762.548C458.888 764.69 458.334 766.592 457.226 768.254C456.131 769.916 454.536 771.227 452.444 772.188C450.363 773.148 447.845 773.628 444.891 773.628C442.06 773.628 439.61 773.179 437.542 772.28C435.473 771.381 433.854 770.107 432.685 768.457C431.515 766.795 430.869 764.826 430.746 762.548H436.47C436.581 763.915 437.024 765.054 437.8 765.964C438.588 766.863 439.591 767.534 440.81 767.977C442.041 768.408 443.389 768.624 444.854 768.624C446.467 768.624 447.901 768.371 449.157 767.866C450.425 767.349 451.422 766.635 452.148 765.724C452.874 764.801 453.238 763.724 453.238 762.493C453.238 761.373 452.917 760.455 452.277 759.741C451.649 759.027 450.794 758.437 449.711 757.969C448.64 757.501 447.427 757.089 446.073 756.732L441.604 755.513C438.576 754.688 436.175 753.475 434.402 751.875C432.642 750.275 431.762 748.157 431.762 745.523C431.762 743.344 432.353 741.442 433.534 739.817C434.716 738.192 436.317 736.93 438.336 736.031C440.354 735.12 442.632 734.665 445.168 734.665C447.729 734.665 449.988 735.114 451.945 736.013C453.915 736.911 455.466 738.149 456.598 739.724C457.731 741.288 458.322 743.085 458.371 745.116H452.868ZM463.369 773V744.636H468.668V749.253H469.019C469.61 747.689 470.577 746.471 471.918 745.597C473.26 744.71 474.867 744.267 476.738 744.267C478.634 744.267 480.222 744.71 481.502 745.597C482.795 746.483 483.749 747.702 484.364 749.253H484.66C485.337 747.739 486.414 746.532 487.891 745.634C489.369 744.723 491.129 744.267 493.173 744.267C495.746 744.267 497.845 745.073 499.47 746.686C501.107 748.299 501.926 750.73 501.926 753.98V773H496.404V754.497C496.404 752.577 495.881 751.186 494.835 750.324C493.788 749.462 492.539 749.031 491.086 749.031C489.289 749.031 487.891 749.585 486.894 750.693C485.897 751.789 485.399 753.198 485.399 754.922V773H479.896V754.146C479.896 752.607 479.416 751.37 478.455 750.435C477.495 749.499 476.246 749.031 474.707 749.031C473.66 749.031 472.694 749.308 471.808 749.862C470.934 750.404 470.226 751.161 469.684 752.134C469.155 753.106 468.89 754.232 468.89 755.513V773H463.369ZM507.431 773V744.636H512.952V773H507.431ZM510.219 740.26C509.259 740.26 508.434 739.94 507.745 739.3C507.068 738.647 506.729 737.872 506.729 736.973C506.729 736.062 507.068 735.286 507.745 734.646C508.434 733.994 509.259 733.668 510.219 733.668C511.18 733.668 511.998 733.994 512.675 734.646C513.365 735.286 513.709 736.062 513.709 736.973C513.709 737.872 513.365 738.647 512.675 739.3C511.998 739.94 511.18 740.26 510.219 740.26ZM531.726 744.636V749.068H516.233V744.636H531.726ZM520.387 737.841H525.909V764.672C525.909 765.743 526.069 766.549 526.389 767.091C526.709 767.62 527.121 767.983 527.626 768.18C528.143 768.365 528.703 768.457 529.307 768.457C529.75 768.457 530.137 768.427 530.47 768.365C530.802 768.304 531.061 768.254 531.245 768.217L532.243 772.778C531.923 772.902 531.467 773.025 530.876 773.148C530.285 773.283 529.547 773.357 528.66 773.369C527.208 773.394 525.853 773.135 524.598 772.594C523.342 772.052 522.326 771.215 521.551 770.082C520.775 768.95 520.387 767.528 520.387 765.817V737.841ZM542.069 756.159V773H536.548V735.182H541.995V749.253H542.346C543.011 747.726 544.026 746.514 545.393 745.615C546.759 744.716 548.544 744.267 550.748 744.267C552.693 744.267 554.392 744.667 555.845 745.467C557.31 746.268 558.442 747.462 559.242 749.05C560.055 750.625 560.461 752.595 560.461 754.959V773H554.94V755.624C554.94 753.543 554.404 751.93 553.333 750.786C552.262 749.628 550.773 749.05 548.865 749.05C547.56 749.05 546.39 749.327 545.356 749.881C544.334 750.435 543.528 751.247 542.937 752.318C542.358 753.377 542.069 754.657 542.069 756.159Z" fill="black"/>
<path d="M917.45 827.395L951.05 794.845L985.7 827.395L951.05 861.345L917.45 827.395Z" fill="white"/>
<path d="M954.199 790.645C952.672 789.118 950.197 789.118 948.67 790.645L914.046 825.269C912.518 826.796 912.518 829.272 914.046 830.799L948.67 865.423C950.197 866.95 952.672 866.95 954.199 865.423L988.823 830.799C990.35 829.272 990.35 826.796 988.823 825.269L954.199 790.645Z" fill="white"/>
<path d="M969.528 825.155C967.945 825.155 966.656 826.444 966.656 828.027C966.656 829.609 967.945 830.897 969.528 830.897C971.11 830.897 972.399 829.609 972.399 828.027C972.399 826.444 971.11 825.155 969.528 825.155Z" fill="#326CE5"/>
<path d="M969.528 834.486C967.241 834.486 965.236 833.295 964.088 831.501C963.156 833.763 962.231 836.351 961.528 838.319C958.934 845.583 957.136 850.309 954.768 851.917C953.595 853.116 951.961 853.864 950.149 853.864C946.583 853.864 943.69 850.972 943.69 847.405C943.69 845.118 944.882 843.113 946.675 841.965C944.413 841.033 941.825 840.108 939.857 839.405C932.593 836.81 927.867 835.012 926.261 832.645C925.06 831.472 924.313 829.838 924.313 828.027C924.313 824.46 927.204 821.567 930.772 821.567C933.058 821.567 935.063 822.759 936.211 824.552C937.143 822.29 938.068 819.702 938.771 817.734C941.366 810.47 943.164 805.744 945.532 804.138C946.704 802.937 948.338 802.19 950.149 802.19C953.717 802.19 956.609 805.081 956.609 808.649C956.609 810.935 955.418 812.94 953.624 814.088C955.886 815.02 958.475 815.945 960.442 816.648C967.706 819.243 972.433 821.041 974.04 823.409C975.239 824.581 975.987 826.215 975.987 828.027C975.987 831.594 973.095 834.486 969.528 834.486ZM954.199 790.645C952.672 789.118 950.197 789.118 948.67 790.645L914.046 825.269C912.518 826.796 912.518 829.272 914.046 830.799L948.67 865.423C950.197 866.95 952.672 866.95 954.199 865.423L988.823 830.799C990.35 829.272 990.35 826.796 988.823 825.269L954.199 790.645Z" fill="#326CE5"/>
<path d="M930.772 825.155C929.189 825.155 927.9 826.444 927.9 828.027C927.9 829.609 929.189 830.897 930.772 830.897C932.354 830.897 933.643 829.609 933.643 828.027C933.643 826.444 932.354 825.155 930.772 825.155Z" fill="#326CE5"/>
<path d="M950.149 844.534C948.567 844.534 947.278 845.821 947.278 847.405C947.278 848.988 948.567 850.275 950.149 850.275C951.732 850.275 953.021 848.988 953.021 847.405C953.021 845.821 951.732 844.534 950.149 844.534Z" fill="#326CE5"/>
<path d="M945.638 813.267C945.287 812.923 944.977 812.539 944.711 812.123C943.778 814.385 942.854 816.974 942.151 818.941C939.556 826.205 937.758 830.931 935.39 832.538C935.046 832.89 934.662 833.199 934.247 833.466C936.508 834.398 939.096 835.323 941.064 836.026C948.328 838.62 953.054 840.419 954.661 842.787C955.013 843.13 955.323 843.514 955.589 843.929C956.522 841.668 957.446 839.08 958.149 837.112C960.743 829.848 962.541 825.122 964.909 823.515C965.253 823.163 965.637 822.853 966.053 822.587C963.792 821.656 961.203 820.73 959.235 820.027C951.972 817.433 947.245 815.635 945.638 813.267Z" fill="#326CE5"/>
<path d="M950.149 811.52C951.732 811.52 953.021 810.231 953.021 808.648C953.021 807.066 951.732 805.778 950.149 805.778C948.567 805.778 947.278 807.066 947.278 808.648C947.278 810.231 948.567 811.52 950.149 811.52Z" fill="#326CE5"/>
<path d="M1007.82 834.933C1007.62 834.74 1007.48 834.484 1007.4 834.164C1007.31 833.842 1007.27 833.436 1007.27 832.943V812.886L1004.29 813.4V833.424C1004.29 835.008 1004.67 836.175 1005.44 836.923C1006.21 837.672 1007.52 838.068 1009.36 838.11L1009.77 835.607C1009.3 835.543 1008.91 835.463 1008.59 835.367C1008.27 835.27 1008.01 835.126 1007.82 834.933Z" fill="#326CE5"/>
<path d="M1015.36 827.841C1015.42 827.263 1015.55 826.696 1015.76 826.14C1015.96 825.583 1016.24 825.092 1016.61 824.663C1016.97 824.236 1017.42 823.888 1017.94 823.62C1018.47 823.353 1019.07 823.219 1019.75 823.219C1020.97 823.219 1021.93 823.652 1022.63 824.519C1023.32 825.386 1023.66 826.494 1023.64 827.841H1015.36ZM1019.79 820.685C1018.82 820.685 1017.88 820.866 1016.96 821.229C1016.04 821.593 1015.23 822.14 1014.52 822.866C1013.82 823.594 1013.25 824.509 1012.82 825.611C1012.39 826.713 1012.18 828.001 1012.18 829.478C1012.18 830.74 1012.35 831.9 1012.68 832.96C1013.01 834.018 1013.52 834.933 1014.2 835.703C1014.89 836.474 1015.76 837.078 1016.82 837.516C1017.88 837.955 1019.13 838.175 1020.59 838.175C1021.74 838.175 1022.78 838.067 1023.69 837.853C1024.59 837.64 1025.23 837.436 1025.59 837.244L1025.18 834.74C1024.81 834.912 1024.27 835.088 1023.56 835.27C1022.84 835.452 1021.96 835.543 1020.91 835.543C1019.05 835.543 1017.68 835.093 1016.8 834.194C1015.92 833.296 1015.42 831.981 1015.29 830.247H1026.72C1026.74 830.076 1026.75 829.889 1026.75 829.686V829.189C1026.75 826.323 1026.15 824.188 1024.95 822.786C1023.75 821.386 1022.03 820.685 1019.79 820.685Z" fill="#326CE5"/>
<path d="M1039.94 835.414C1039.58 835.501 1039.12 835.56 1038.58 835.592C1038.03 835.623 1037.41 835.639 1036.7 835.639C1035.52 835.639 1034.59 835.431 1033.91 835.013C1033.22 834.597 1032.88 833.854 1032.88 832.784C1032.88 832.206 1033.02 831.74 1033.3 831.388C1033.57 831.034 1033.92 830.757 1034.34 830.553C1034.76 830.35 1035.22 830.216 1035.72 830.152C1036.22 830.088 1036.7 830.055 1037.15 830.055C1037.83 830.055 1038.42 830.093 1038.9 830.167C1039.38 830.243 1039.73 830.335 1039.94 830.44V835.414ZM1041.46 822.466C1040.96 821.899 1040.3 821.46 1039.47 821.149C1038.65 820.839 1037.64 820.685 1036.44 820.685C1035.39 820.685 1034.42 820.764 1033.52 820.926C1032.62 821.086 1031.98 821.252 1031.6 821.423L1031.95 823.894C1032.31 823.744 1032.86 823.601 1033.6 823.46C1034.34 823.322 1035.2 823.252 1036.19 823.252C1036.96 823.252 1037.58 823.364 1038.06 823.589C1038.54 823.814 1038.92 824.113 1039.2 824.488C1039.48 824.863 1039.67 825.29 1039.78 825.771C1039.89 826.252 1039.94 826.739 1039.94 827.231V828.066C1039.85 828.045 1039.7 828.012 1039.49 827.969C1039.28 827.927 1039.02 827.878 1038.74 827.826C1038.45 827.772 1038.14 827.73 1037.82 827.697C1037.5 827.664 1037.19 827.649 1036.89 827.649C1035.95 827.649 1035.05 827.744 1034.2 827.937C1033.34 828.13 1032.59 828.43 1031.95 828.836C1031.31 829.243 1030.8 829.778 1030.42 830.44C1030.05 831.104 1029.86 831.895 1029.86 832.816C1029.86 833.778 1030.02 834.602 1030.34 835.287C1030.67 835.972 1031.12 836.522 1031.69 836.939C1032.27 837.357 1032.95 837.661 1033.75 837.854C1034.54 838.046 1035.4 838.143 1036.35 838.143C1037.01 838.143 1037.68 838.116 1038.35 838.063C1039.02 838.009 1039.65 837.95 1040.23 837.886C1040.81 837.821 1041.32 837.753 1041.79 837.678C1042.25 837.602 1042.6 837.545 1042.86 837.502V827.071C1042.86 826.13 1042.75 825.269 1042.54 824.488C1042.33 823.706 1041.97 823.033 1041.46 822.466Z" fill="#326CE5"/>
<path d="M1055.83 820.925C1055.5 820.872 1055.18 820.829 1054.85 820.797C1054.51 820.765 1054.22 820.749 1053.96 820.749C1052.66 820.749 1051.48 820.861 1050.43 821.085C1049.38 821.31 1048.51 821.551 1047.8 821.808V837.789H1050.79V823.765C1050.96 823.722 1051.32 823.642 1051.86 823.525C1052.41 823.408 1052.96 823.348 1053.51 823.348C1054.37 823.348 1055.07 823.408 1055.62 823.525C1056.16 823.642 1056.55 823.745 1056.79 823.83L1057.3 821.23C1057.17 821.188 1056.97 821.139 1056.71 821.085C1056.44 821.033 1056.15 820.979 1055.83 820.925Z" fill="#326CE5"/>
<path d="M1072.24 822.883C1071.71 822.209 1071.01 821.684 1070.14 821.311C1069.26 820.936 1068.16 820.75 1066.83 820.75C1065.36 820.75 1064.05 820.845 1062.92 821.038C1061.78 821.231 1060.87 821.412 1060.19 821.584V837.79H1063.17V823.701C1063.28 823.681 1063.46 823.648 1063.7 823.606C1063.95 823.563 1064.23 823.525 1064.54 823.493C1064.85 823.46 1065.17 823.434 1065.52 823.413C1065.86 823.391 1066.19 823.381 1066.51 823.381C1067.3 823.381 1067.97 823.481 1068.5 823.685C1069.04 823.889 1069.46 824.215 1069.78 824.663C1070.11 825.113 1070.33 825.703 1070.47 826.429C1070.61 827.157 1070.68 828.033 1070.68 829.06V837.79H1073.67V828.419C1073.67 827.285 1073.56 826.247 1073.35 825.306C1073.13 824.365 1072.76 823.557 1072.24 822.883Z" fill="#326CE5"/>
<path d="M1091.19 832.871C1090.55 832.014 1089.88 831.183 1089.2 830.38C1088.51 829.577 1087.85 828.885 1087.21 828.306C1088.49 827.046 1089.67 825.824 1090.76 824.639C1091.84 823.455 1092.94 822.211 1094.08 820.909H1088.39C1088.09 821.271 1087.73 821.696 1087.32 822.185C1086.9 822.675 1086.46 823.19 1085.99 823.733C1085.52 824.275 1085.03 824.823 1084.53 825.375C1084.03 825.929 1083.54 826.461 1083.07 826.97V812.887L1078.29 813.656V837.789H1083.07V830.39C1083.6 830.821 1084.14 831.345 1084.69 831.968C1085.23 832.588 1085.75 833.238 1086.24 833.912C1086.73 834.589 1087.2 835.264 1087.63 835.939C1088.07 836.616 1088.46 837.232 1088.8 837.789H1094.3C1093.94 837.082 1093.49 836.3 1092.95 835.443C1092.42 834.586 1091.83 833.728 1091.19 832.871Z" fill="#326CE5"/>
<path d="M1106.18 833.583C1105.66 834.12 1104.85 834.388 1103.74 834.388C1103.16 834.388 1102.67 834.303 1102.26 834.131C1101.85 833.959 1101.52 833.744 1101.27 833.487C1101.01 833.23 1100.82 832.946 1100.7 832.636C1100.59 832.325 1100.53 832.04 1100.53 831.782C1100.53 830.945 1100.73 830.227 1101.14 829.626C1101.54 829.026 1102.05 828.501 1102.65 828.05C1103.24 828.242 1103.81 828.452 1104.33 828.678C1104.85 828.903 1105.31 829.16 1105.69 829.449C1106.08 829.738 1106.38 830.077 1106.61 830.463C1106.83 830.848 1106.95 831.288 1106.95 831.782C1106.95 832.447 1106.69 833.047 1106.18 833.583ZM1101.17 820.489C1101.28 820.211 1101.44 819.949 1101.67 819.705C1101.89 819.459 1102.17 819.261 1102.52 819.112C1102.86 818.963 1103.27 818.888 1103.74 818.888C1104.23 818.888 1104.65 818.967 1104.99 819.128C1105.33 819.288 1105.61 819.486 1105.84 819.719C1106.06 819.955 1106.22 820.205 1106.32 820.472C1106.42 820.739 1106.46 820.989 1106.46 821.224C1106.46 822.035 1106.28 822.717 1105.92 823.272C1105.55 823.827 1105.03 824.318 1104.35 824.744C1103.13 824.318 1102.27 823.805 1101.76 823.208C1101.26 822.612 1101.01 821.971 1101.01 821.288C1101.01 821.032 1101.06 820.766 1101.17 820.489ZM1108.23 826.06C1109.04 825.548 1109.72 824.847 1110.27 823.961C1110.81 823.075 1111.09 822.119 1111.09 821.093C1111.09 820.387 1110.95 819.677 1110.68 818.963C1110.42 818.247 1109.98 817.6 1109.38 817.024C1108.79 816.447 1108.02 815.972 1107.09 815.598C1106.16 815.224 1105.04 815.036 1103.74 815.036C1102.62 815.036 1101.61 815.214 1100.7 815.566C1099.79 815.919 1099.02 816.388 1098.38 816.976C1097.74 817.562 1097.24 818.253 1096.88 819.043C1096.53 819.833 1096.36 820.655 1096.36 821.511C1096.36 822.642 1096.57 823.572 1097.01 824.298C1097.45 825.025 1098.13 825.762 1099.05 826.509C1098.62 826.831 1098.22 827.174 1097.85 827.538C1097.47 827.901 1097.14 828.303 1096.84 828.742C1096.54 829.182 1096.3 829.67 1096.13 830.205C1095.96 830.741 1095.87 831.33 1095.87 831.973C1095.87 832.595 1096 833.274 1096.26 834.013C1096.52 834.751 1096.95 835.432 1097.56 836.054C1098.17 836.676 1098.97 837.195 1099.97 837.612C1100.96 838.03 1102.21 838.239 1103.7 838.239C1105.01 838.239 1106.16 838.072 1107.16 837.741C1108.15 837.409 1108.98 836.943 1109.64 836.343C1110.3 835.743 1110.8 835.042 1111.13 834.239C1111.47 833.435 1111.63 832.55 1111.63 831.587C1111.63 830.43 1111.37 829.419 1110.85 828.55C1110.32 827.683 1109.45 826.852 1108.23 826.06Z" fill="#326CE5"/>
<path d="M1126.86 831.322C1126.7 830.789 1126.42 830.303 1126.02 829.865C1125.63 829.428 1125.09 829.02 1124.4 828.643C1123.72 828.267 1122.85 827.883 1121.81 827.494C1121.29 827.3 1120.87 827.123 1120.54 826.96C1120.2 826.799 1119.94 826.648 1119.75 826.509C1119.56 826.37 1119.43 826.226 1119.37 826.076C1119.3 825.927 1119.27 825.755 1119.27 825.562C1119.27 824.729 1120.02 824.311 1121.52 824.311C1122.33 824.311 1123.06 824.387 1123.71 824.535C1124.37 824.685 1124.97 824.856 1125.53 825.049L1126.36 821.326C1125.81 821.112 1125.06 820.915 1124.11 820.733C1123.17 820.551 1122.19 820.46 1121.16 820.46C1119.11 820.46 1117.49 820.92 1116.32 821.841C1115.14 822.761 1114.55 824.011 1114.55 825.594C1114.55 826.408 1114.67 827.103 1114.91 827.681C1115.14 828.258 1115.47 828.755 1115.9 829.173C1116.33 829.59 1116.85 829.949 1117.46 830.247C1118.07 830.548 1118.74 830.837 1119.49 831.115C1120.46 831.478 1121.17 831.805 1121.64 832.093C1122.12 832.382 1122.35 832.718 1122.35 833.104C1122.35 833.596 1122.17 833.929 1121.81 834.1C1121.44 834.271 1120.82 834.356 1119.94 834.356C1119.11 834.356 1118.26 834.265 1117.41 834.083C1116.55 833.901 1115.72 833.649 1114.91 833.328L1114.1 837.211C1114.49 837.383 1115.18 837.597 1116.17 837.853C1117.17 838.11 1118.41 838.239 1119.91 838.239C1122.2 838.239 1123.97 837.811 1125.22 836.958C1126.47 836.104 1127.1 834.845 1127.1 833.18C1127.1 832.476 1127.02 831.856 1126.86 831.322Z" fill="#326CE5"/>
</g>
<defs>
<filter id="filter0_d_1_4612" x="105.166" y="168.473" width="991.156" height="375.141" filterUnits="userSpaceOnUse" color-interpolation-filters="sRGB">
<feFlood flood-opacity="0" result="BackgroundImageFix"/>
<feColorMatrix in="SourceAlpha" type="matrix" values="0 0 0 0 0 0 0 0 0 0 0 0 0 0 0 0 0 0 127 0" result="hardAlpha"/>
<feOffset dy="3.84586"/>
<feGaussianBlur stdDeviation="1.92293"/>
<feComposite in2="hardAlpha" operator="out"/>
<feColorMatrix type="matrix" values="0 0 0 0 0 0 0 0 0 0 0 0 0 0 0 0 0 0 0.25 0"/>
<feBlend mode="normal" in2="BackgroundImageFix" result="effect1_dropShadow_1_4612"/>
<feBlend mode="normal" in="SourceGraphic" in2="effect1_dropShadow_1_4612" result="shape"/>
</filter>
<radialGradient id="paint0_radial_1_4612" cx="0" cy="0" r="1" gradientUnits="userSpaceOnUse" gradientTransform="translate(692 900) rotate(90) scale(179 764)">
<stop stop-color="white"/>
<stop offset="1" stop-color="white" stop-opacity="0"/>
</radialGradient>
<clipPath id="clip0_1_4612">
<rect width="1200" height="900" fill="white"/>
</clipPath>
</defs>
</svg>
