<svg width="1200" height="900" viewBox="0 0 1200 900" fill="none" xmlns="http://www.w3.org/2000/svg">
<rect width="1200" height="900" fill="white"/>
<rect x="71" y="159" width="1038" height="8" fill="black"/>
<path d="M86.5696 141H74.0657V105.727H86.6729C90.2209 105.727 93.2751 106.433 95.8356 107.846C98.3961 109.247 100.365 111.262 101.743 113.891C103.132 116.52 103.827 119.666 103.827 123.329C103.827 127.003 103.132 130.161 101.743 132.802C100.365 135.443 98.3846 137.469 95.8011 138.882C93.2292 140.294 90.152 141 86.5696 141ZM81.5233 134.61H86.2596C88.4641 134.61 90.3185 134.22 91.8226 133.439C93.3382 132.647 94.475 131.424 95.2328 129.771C96.0021 128.106 96.3867 125.959 96.3867 123.329C96.3867 120.723 96.0021 118.593 95.2328 116.939C94.475 115.286 93.344 114.069 91.8398 113.288C90.3357 112.507 88.4814 112.117 86.2768 112.117H81.5233V134.61ZM119.725 141.517C117.004 141.517 114.662 140.966 112.698 139.863C110.746 138.75 109.242 137.176 108.186 135.144C107.129 133.1 106.601 130.683 106.601 127.893C106.601 125.172 107.129 122.784 108.186 120.729C109.242 118.673 110.729 117.071 112.646 115.923C114.575 114.775 116.837 114.201 119.432 114.201C121.178 114.201 122.802 114.482 124.306 115.045C125.822 115.596 127.142 116.429 128.268 117.542C129.404 118.656 130.289 120.057 130.92 121.745C131.552 123.421 131.867 125.384 131.867 127.635V129.65H109.529V125.103H124.961C124.961 124.047 124.731 123.111 124.272 122.296C123.813 121.481 123.175 120.843 122.36 120.384C121.556 119.913 120.621 119.678 119.553 119.678C118.439 119.678 117.452 119.936 116.59 120.453C115.741 120.958 115.075 121.641 114.593 122.502C114.11 123.352 113.864 124.299 113.852 125.344V129.667C113.852 130.976 114.093 132.107 114.575 133.06C115.069 134.013 115.764 134.748 116.659 135.265C117.555 135.781 118.617 136.04 119.846 136.04C120.661 136.04 121.407 135.925 122.085 135.695C122.762 135.466 123.342 135.121 123.824 134.662C124.306 134.203 124.674 133.64 124.926 132.974L131.712 133.422C131.368 135.052 130.662 136.476 129.594 137.693C128.538 138.899 127.171 139.84 125.495 140.518C123.83 141.184 121.907 141.517 119.725 141.517ZM157.122 122.089L150.405 122.502C150.29 121.928 150.043 121.412 149.664 120.952C149.285 120.482 148.786 120.108 148.166 119.833C147.557 119.546 146.828 119.402 145.978 119.402C144.842 119.402 143.883 119.643 143.102 120.126C142.321 120.596 141.931 121.228 141.931 122.02C141.931 122.652 142.184 123.186 142.689 123.622C143.194 124.058 144.061 124.408 145.29 124.673L150.078 125.637C152.649 126.165 154.567 127.015 155.83 128.186C157.093 129.357 157.725 130.896 157.725 132.802C157.725 134.536 157.214 136.057 156.192 137.366C155.181 138.675 153.792 139.697 152.024 140.432C150.267 141.155 148.24 141.517 145.944 141.517C142.442 141.517 139.652 140.788 137.574 139.329C135.507 137.86 134.295 135.862 133.94 133.336L141.156 132.957C141.374 134.025 141.902 134.84 142.741 135.403C143.579 135.954 144.652 136.229 145.961 136.229C147.247 136.229 148.281 135.982 149.061 135.489C149.854 134.983 150.255 134.335 150.267 133.542C150.255 132.876 149.974 132.331 149.423 131.906C148.872 131.47 148.022 131.137 146.874 130.907L142.293 129.994C139.709 129.478 137.786 128.582 136.523 127.308C135.271 126.033 134.646 124.408 134.646 122.434C134.646 120.734 135.105 119.27 136.024 118.042C136.954 116.813 138.257 115.866 139.933 115.2C141.621 114.534 143.596 114.201 145.858 114.201C149.199 114.201 151.829 114.907 153.746 116.319C155.675 117.732 156.8 119.655 157.122 122.089ZM172.753 141.517C170.043 141.517 167.712 140.943 165.76 139.794C163.82 138.635 162.327 137.027 161.282 134.972C160.249 132.917 159.732 130.551 159.732 127.876C159.732 125.166 160.255 122.79 161.299 120.746C162.356 118.69 163.854 117.089 165.795 115.941C167.735 114.781 170.043 114.201 172.718 114.201C175.026 114.201 177.047 114.62 178.781 115.458C180.515 116.296 181.887 117.473 182.897 118.989C183.908 120.505 184.464 122.284 184.568 124.328H177.644C177.449 123.008 176.932 121.946 176.094 121.142C175.267 120.327 174.182 119.919 172.839 119.919C171.702 119.919 170.709 120.229 169.859 120.849C169.021 121.458 168.367 122.347 167.896 123.519C167.425 124.69 167.19 126.108 167.19 127.773C167.19 129.461 167.419 130.896 167.879 132.078C168.349 133.261 169.01 134.162 169.859 134.782C170.709 135.403 171.702 135.713 172.839 135.713C173.677 135.713 174.429 135.54 175.095 135.196C175.773 134.851 176.329 134.352 176.766 133.697C177.214 133.031 177.506 132.233 177.644 131.303H184.568C184.453 133.324 183.902 135.104 182.914 136.643C181.938 138.17 180.589 139.364 178.867 140.225C177.145 141.086 175.107 141.517 172.753 141.517ZM195.058 125.706V141H187.721V105.727H194.851V119.213H195.161C195.758 117.651 196.723 116.429 198.055 115.544C199.386 114.649 201.057 114.201 203.066 114.201C204.904 114.201 206.505 114.603 207.872 115.407C209.25 116.199 210.317 117.341 211.075 118.834C211.844 120.315 212.223 122.089 212.212 124.156V141H204.875V125.465C204.886 123.834 204.473 122.566 203.635 121.659C202.808 120.751 201.648 120.298 200.156 120.298C199.157 120.298 198.273 120.51 197.503 120.935C196.746 121.36 196.149 121.98 195.712 122.795C195.287 123.599 195.069 124.569 195.058 125.706ZM228.497 141.517C225.776 141.517 223.434 140.966 221.47 139.863C219.518 138.75 218.014 137.176 216.958 135.144C215.902 133.1 215.373 130.683 215.373 127.893C215.373 125.172 215.902 122.784 216.958 120.729C218.014 118.673 219.501 117.071 221.419 115.923C223.348 114.775 225.61 114.201 228.205 114.201C229.95 114.201 231.575 114.482 233.079 115.045C234.594 115.596 235.915 116.429 237.04 117.542C238.177 118.656 239.061 120.057 239.692 121.745C240.324 123.421 240.64 125.384 240.64 127.635V129.65H218.301V125.103H233.733C233.733 124.047 233.504 123.111 233.044 122.296C232.585 121.481 231.948 120.843 231.133 120.384C230.329 119.913 229.393 119.678 228.325 119.678C227.211 119.678 226.224 119.936 225.363 120.453C224.513 120.958 223.847 121.641 223.365 122.502C222.883 123.352 222.636 124.299 222.624 125.344V129.667C222.624 130.976 222.865 132.107 223.348 133.06C223.841 134.013 224.536 134.748 225.432 135.265C226.327 135.781 227.389 136.04 228.618 136.04C229.433 136.04 230.18 135.925 230.857 135.695C231.534 135.466 232.114 135.121 232.596 134.662C233.079 134.203 233.446 133.64 233.699 132.974L240.485 133.422C240.14 135.052 239.434 136.476 238.366 137.693C237.31 138.899 235.943 139.84 234.267 140.518C232.602 141.184 230.679 141.517 228.497 141.517ZM253.631 141.431C251.622 141.431 249.802 140.914 248.172 139.881C246.553 138.836 245.267 137.303 244.314 135.282C243.372 133.25 242.901 130.758 242.901 127.807C242.901 124.776 243.389 122.256 244.365 120.246C245.341 118.225 246.639 116.716 248.258 115.717C249.888 114.706 251.674 114.201 253.614 114.201C255.095 114.201 256.33 114.454 257.317 114.959C258.316 115.453 259.12 116.073 259.728 116.819C260.348 117.554 260.819 118.277 261.141 118.989H261.364V105.727H268.684V141H261.451V136.763H261.141C260.796 137.498 260.308 138.227 259.677 138.95C259.057 139.662 258.247 140.254 257.248 140.724C256.261 141.195 255.055 141.431 253.631 141.431ZM255.956 135.592C257.139 135.592 258.138 135.27 258.953 134.627C259.78 133.973 260.411 133.06 260.848 131.889C261.296 130.718 261.519 129.346 261.519 127.773C261.519 126.2 261.301 124.833 260.865 123.674C260.429 122.514 259.797 121.618 258.97 120.987C258.144 120.355 257.139 120.04 255.956 120.04C254.751 120.04 253.735 120.367 252.908 121.021C252.081 121.676 251.455 122.583 251.031 123.743C250.606 124.902 250.393 126.246 250.393 127.773C250.393 129.311 250.606 130.672 251.031 131.855C251.467 133.026 252.093 133.944 252.908 134.61C253.735 135.265 254.751 135.592 255.956 135.592ZM290.137 129.736V114.545H297.474V141H290.429V136.195H290.154C289.557 137.745 288.564 138.991 287.174 139.932C285.796 140.874 284.114 141.344 282.128 141.344C280.36 141.344 278.804 140.943 277.46 140.139C276.117 139.335 275.066 138.193 274.309 136.711C273.562 135.23 273.183 133.456 273.172 131.39V114.545H280.509V130.081C280.52 131.642 280.94 132.876 281.766 133.784C282.593 134.691 283.701 135.144 285.09 135.144C285.974 135.144 286.801 134.943 287.57 134.541C288.34 134.128 288.96 133.519 289.43 132.716C289.913 131.912 290.148 130.919 290.137 129.736ZM309.135 105.727V141H301.798V105.727H309.135ZM325.524 141.517C322.802 141.517 320.46 140.966 318.497 139.863C316.545 138.75 315.041 137.176 313.984 135.144C312.928 133.1 312.4 130.683 312.4 127.893C312.4 125.172 312.928 122.784 313.984 120.729C315.041 118.673 316.528 117.071 318.445 115.923C320.374 114.775 322.636 114.201 325.231 114.201C326.976 114.201 328.601 114.482 330.105 115.045C331.621 115.596 332.941 116.429 334.066 117.542C335.203 118.656 336.087 120.057 336.719 121.745C337.35 123.421 337.666 125.384 337.666 127.635V129.65H315.328V125.103H330.759C330.759 124.047 330.53 123.111 330.071 122.296C329.611 121.481 328.974 120.843 328.159 120.384C327.355 119.913 326.419 119.678 325.351 119.678C324.238 119.678 323.25 119.936 322.389 120.453C321.539 120.958 320.873 121.641 320.391 122.502C319.909 123.352 319.662 124.299 319.651 125.344V129.667C319.651 130.976 319.892 132.107 320.374 133.06C320.868 134.013 321.562 134.748 322.458 135.265C323.354 135.781 324.416 136.04 325.644 136.04C326.459 136.04 327.206 135.925 327.883 135.695C328.561 135.466 329.14 135.121 329.623 134.662C330.105 134.203 330.472 133.64 330.725 132.974L337.511 133.422C337.166 135.052 336.46 136.476 335.392 137.693C334.336 138.899 332.97 139.84 331.293 140.518C329.628 141.184 327.705 141.517 325.524 141.517ZM340.909 141V114.545H348.022V119.161H348.298C348.78 117.519 349.59 116.279 350.726 115.441C351.863 114.591 353.172 114.167 354.653 114.167C355.021 114.167 355.417 114.19 355.842 114.235C356.266 114.281 356.64 114.345 356.961 114.425V120.935C356.617 120.832 356.14 120.74 355.532 120.66C354.923 120.579 354.366 120.539 353.861 120.539C352.782 120.539 351.817 120.774 350.968 121.245C350.129 121.704 349.463 122.347 348.97 123.174C348.487 124.001 348.246 124.954 348.246 126.033V141H340.909ZM378.639 141.431C376.629 141.431 374.809 140.914 373.179 139.881C371.56 138.836 370.274 137.303 369.321 135.282C368.379 133.25 367.909 130.758 367.909 127.807C367.909 124.776 368.397 122.256 369.373 120.246C370.349 118.225 371.646 116.716 373.265 115.717C374.896 114.706 376.681 114.201 378.621 114.201C380.103 114.201 381.337 114.454 382.324 114.959C383.323 115.453 384.127 116.073 384.736 116.819C385.356 117.554 385.826 118.277 386.148 118.989H386.372V105.727H393.692V141H386.458V136.763H386.148C385.803 137.498 385.315 138.227 384.684 138.95C384.064 139.662 383.254 140.254 382.255 140.724C381.268 141.195 380.062 141.431 378.639 141.431ZM380.964 135.592C382.146 135.592 383.145 135.27 383.961 134.627C384.787 133.973 385.419 133.06 385.855 131.889C386.303 130.718 386.527 129.346 386.527 127.773C386.527 126.2 386.309 124.833 385.872 123.674C385.436 122.514 384.804 121.618 383.978 120.987C383.151 120.355 382.146 120.04 380.964 120.04C379.758 120.04 378.742 120.367 377.915 121.021C377.089 121.676 376.463 122.583 376.038 123.743C375.613 124.902 375.401 126.246 375.401 127.773C375.401 129.311 375.613 130.672 376.038 131.855C376.474 133.026 377.1 133.944 377.915 134.61C378.742 135.265 379.758 135.592 380.964 135.592ZM410.235 141.517C407.514 141.517 405.172 140.966 403.208 139.863C401.257 138.75 399.752 137.176 398.696 135.144C397.64 133.1 397.112 130.683 397.112 127.893C397.112 125.172 397.64 122.784 398.696 120.729C399.752 118.673 401.239 117.071 403.157 115.923C405.086 114.775 407.348 114.201 409.943 114.201C411.688 114.201 413.313 114.482 414.817 115.045C416.332 115.596 417.653 116.429 418.778 117.542C419.915 118.656 420.799 120.057 421.43 121.745C422.062 123.421 422.378 125.384 422.378 127.635V129.65H400.039V125.103H415.471C415.471 124.047 415.242 123.111 414.782 122.296C414.323 121.481 413.686 120.843 412.871 120.384C412.067 119.913 411.131 119.678 410.063 119.678C408.949 119.678 407.962 119.936 407.101 120.453C406.251 120.958 405.585 121.641 405.103 122.502C404.621 123.352 404.374 124.299 404.362 125.344V129.667C404.362 130.976 404.604 132.107 405.086 133.06C405.58 134.013 406.274 134.748 407.17 135.265C408.065 135.781 409.127 136.04 410.356 136.04C411.171 136.04 411.918 135.925 412.595 135.695C413.272 135.466 413.852 135.121 414.335 134.662C414.817 134.203 415.184 133.64 415.437 132.974L422.223 133.422C421.878 135.052 421.172 136.476 420.104 137.693C419.048 138.899 417.682 139.84 416.005 140.518C414.34 141.184 412.417 141.517 410.235 141.517ZM425.621 150.92V114.545H432.855V118.989H433.182C433.503 118.277 433.969 117.554 434.577 116.819C435.197 116.073 436.001 115.453 436.988 114.959C437.987 114.454 439.227 114.201 440.708 114.201C442.637 114.201 444.417 114.706 446.048 115.717C447.678 116.716 448.981 118.225 449.957 120.246C450.933 122.256 451.421 124.776 451.421 127.807C451.421 130.758 450.945 133.25 449.992 135.282C449.05 137.303 447.764 138.836 446.134 139.881C444.515 140.914 442.701 141.431 440.691 141.431C439.267 141.431 438.056 141.195 437.057 140.724C436.07 140.254 435.26 139.662 434.629 138.95C433.997 138.227 433.515 137.498 433.182 136.763H432.958V150.92H425.621ZM432.803 127.773C432.803 129.346 433.021 130.718 433.458 131.889C433.894 133.06 434.525 133.973 435.352 134.627C436.179 135.27 437.183 135.592 438.366 135.592C439.56 135.592 440.571 135.265 441.397 134.61C442.224 133.944 442.85 133.026 443.275 131.855C443.711 130.672 443.929 129.311 443.929 127.773C443.929 126.246 443.717 124.902 443.292 123.743C442.867 122.583 442.241 121.676 441.415 121.021C440.588 120.367 439.572 120.04 438.366 120.04C437.172 120.04 436.162 120.355 435.335 120.987C434.52 121.618 433.894 122.514 433.458 123.674C433.021 124.833 432.803 126.2 432.803 127.773ZM462.105 105.727V141H454.768V105.727H462.105ZM478.39 141.517C475.715 141.517 473.402 140.948 471.45 139.812C469.509 138.663 468.011 137.067 466.954 135.024C465.898 132.968 465.37 130.586 465.37 127.876C465.37 125.143 465.898 122.755 466.954 120.711C468.011 118.656 469.509 117.06 471.45 115.923C473.402 114.775 475.715 114.201 478.39 114.201C481.066 114.201 483.374 114.775 485.314 115.923C487.266 117.06 488.77 118.656 489.827 120.711C490.883 122.755 491.411 125.143 491.411 127.876C491.411 130.586 490.883 132.968 489.827 135.024C488.77 137.067 487.266 138.663 485.314 139.812C483.374 140.948 481.066 141.517 478.39 141.517ZM478.425 135.833C479.642 135.833 480.658 135.489 481.473 134.8C482.289 134.099 482.903 133.146 483.316 131.941C483.741 130.735 483.953 129.363 483.953 127.824C483.953 126.286 483.741 124.914 483.316 123.708C482.903 122.502 482.289 121.549 481.473 120.849C480.658 120.149 479.642 119.798 478.425 119.798C477.196 119.798 476.163 120.149 475.325 120.849C474.498 121.549 473.872 122.502 473.447 123.708C473.034 124.914 472.827 126.286 472.827 127.824C472.827 129.363 473.034 130.735 473.447 131.941C473.872 133.146 474.498 134.099 475.325 134.8C476.163 135.489 477.196 135.833 478.425 135.833ZM498.314 150.92C497.384 150.92 496.512 150.846 495.696 150.697C494.893 150.559 494.227 150.381 493.699 150.163L495.352 144.686C496.213 144.95 496.988 145.093 497.677 145.116C498.377 145.139 498.98 144.979 499.486 144.634C500.002 144.29 500.421 143.704 500.743 142.877L501.173 141.758L491.683 114.545H499.399L504.876 133.973H505.152L510.68 114.545H518.448L508.166 143.859C507.672 145.283 507 146.523 506.151 147.579C505.313 148.647 504.251 149.468 502.965 150.042C501.679 150.628 500.129 150.92 498.314 150.92ZM520.658 141V114.545H527.651V119.213H527.961C528.512 117.663 529.43 116.44 530.716 115.544C532.002 114.649 533.541 114.201 535.332 114.201C537.146 114.201 538.691 114.655 539.965 115.562C541.24 116.457 542.089 117.674 542.514 119.213H542.79C543.329 117.697 544.305 116.486 545.718 115.579C547.141 114.66 548.823 114.201 550.764 114.201C553.233 114.201 555.236 114.988 556.775 116.561C558.325 118.122 559.1 120.338 559.1 123.209V141H551.78V124.655C551.78 123.186 551.39 122.083 550.609 121.349C549.828 120.614 548.852 120.246 547.681 120.246C546.349 120.246 545.31 120.671 544.564 121.521C543.817 122.359 543.444 123.467 543.444 124.845V141H536.331V124.5C536.331 123.203 535.958 122.17 535.212 121.4C534.477 120.631 533.506 120.246 532.301 120.246C531.486 120.246 530.751 120.453 530.096 120.866C529.453 121.268 528.942 121.837 528.563 122.571C528.185 123.295 527.995 124.144 527.995 125.12V141H520.658ZM575.407 141.517C572.686 141.517 570.343 140.966 568.38 139.863C566.428 138.75 564.924 137.176 563.867 135.144C562.811 133.1 562.283 130.683 562.283 127.893C562.283 125.172 562.811 122.784 563.867 120.729C564.924 118.673 566.411 117.071 568.328 115.923C570.257 114.775 572.519 114.201 575.114 114.201C576.859 114.201 578.484 114.482 579.988 115.045C581.504 115.596 582.824 116.429 583.95 117.542C585.086 118.656 585.97 120.057 586.602 121.745C587.233 123.421 587.549 125.384 587.549 127.635V129.65H565.211V125.103H580.643C580.643 124.047 580.413 123.111 579.954 122.296C579.494 121.481 578.857 120.843 578.042 120.384C577.238 119.913 576.302 119.678 575.235 119.678C574.121 119.678 573.133 119.936 572.272 120.453C571.423 120.958 570.757 121.641 570.274 122.502C569.792 123.352 569.545 124.299 569.534 125.344V129.667C569.534 130.976 569.775 132.107 570.257 133.06C570.751 134.013 571.446 134.748 572.341 135.265C573.237 135.781 574.299 136.04 575.527 136.04C576.343 136.04 577.089 135.925 577.766 135.695C578.444 135.466 579.024 135.121 579.506 134.662C579.988 134.203 580.356 133.64 580.608 132.974L587.394 133.422C587.05 135.052 586.344 136.476 585.276 137.693C584.219 138.899 582.853 139.84 581.177 140.518C579.512 141.184 577.588 141.517 575.407 141.517ZM598.13 125.706V141H590.793V114.545H597.785V119.213H598.095C598.681 117.674 599.662 116.457 601.04 115.562C602.418 114.655 604.089 114.201 606.052 114.201C607.889 114.201 609.491 114.603 610.857 115.407C612.224 116.21 613.286 117.359 614.044 118.851C614.801 120.332 615.18 122.101 615.18 124.156V141H607.843V125.465C607.855 123.846 607.441 122.583 606.603 121.676C605.765 120.757 604.611 120.298 603.141 120.298C602.154 120.298 601.281 120.51 600.524 120.935C599.777 121.36 599.192 121.98 598.767 122.795C598.353 123.599 598.141 124.569 598.13 125.706ZM633.49 114.545V120.057H617.558V114.545H633.49ZM621.175 108.207H628.512V132.871C628.512 133.548 628.615 134.076 628.822 134.455C629.029 134.823 629.316 135.081 629.683 135.23C630.062 135.38 630.499 135.454 630.992 135.454C631.337 135.454 631.681 135.425 632.026 135.368C632.37 135.299 632.634 135.248 632.818 135.213L633.972 140.673C633.604 140.788 633.088 140.92 632.422 141.069C631.756 141.23 630.946 141.327 629.993 141.362C628.225 141.431 626.675 141.195 625.343 140.656C624.023 140.116 622.995 139.278 622.26 138.141C621.525 137.004 621.164 135.569 621.175 133.835V108.207Z" fill="black"/>
<path d="M102.154 316.636V377H89.392V328.75H89.0384L75.2148 337.416V326.098L90.1584 316.636H102.154ZM117.616 377.766C115.67 377.766 114 377.079 112.605 375.703C111.23 374.308 110.542 372.638 110.542 370.692C110.542 368.767 111.23 367.116 112.605 365.741C114 364.365 115.67 363.678 117.616 363.678C119.502 363.678 121.153 364.365 122.567 365.741C123.982 367.116 124.69 368.767 124.69 370.692C124.69 371.989 124.355 373.178 123.687 374.259C123.039 375.32 122.184 376.175 121.123 376.823C120.062 377.452 118.893 377.766 117.616 377.766ZM169.575 316.636H182.191V358.726C182.191 362.616 181.316 365.996 179.567 368.865C177.838 371.734 175.431 373.944 172.346 375.497C169.261 377.049 165.675 377.825 161.588 377.825C157.953 377.825 154.652 377.187 151.684 375.909C148.737 374.613 146.399 372.648 144.67 370.015C142.94 367.362 142.086 364.031 142.105 360.023H154.809C154.848 361.614 155.172 362.98 155.781 364.12C156.41 365.24 157.265 366.104 158.346 366.713C159.446 367.303 160.743 367.598 162.236 367.598C163.808 367.598 165.135 367.264 166.215 366.596C167.316 365.908 168.151 364.906 168.721 363.589C169.291 362.273 169.575 360.652 169.575 358.726V316.636ZM209.862 377.884C205.283 377.884 201.324 376.912 197.983 374.966C194.663 373.001 192.098 370.27 190.29 366.772C188.483 363.255 187.579 359.178 187.579 354.54C187.579 349.864 188.483 345.777 190.29 342.279C192.098 338.762 194.663 336.031 197.983 334.085C201.324 332.12 205.283 331.138 209.862 331.138C214.44 331.138 218.389 332.12 221.71 334.085C225.051 336.031 227.625 338.762 229.433 342.279C231.24 345.777 232.144 349.864 232.144 354.54C232.144 359.178 231.24 363.255 229.433 366.772C227.625 370.27 225.051 373.001 221.71 374.966C218.389 376.912 214.44 377.884 209.862 377.884ZM209.92 368.158C212.003 368.158 213.742 367.568 215.137 366.389C216.533 365.191 217.584 363.56 218.291 361.496C219.018 359.433 219.382 357.085 219.382 354.452C219.382 351.819 219.018 349.471 218.291 347.408C217.584 345.344 216.533 343.714 215.137 342.515C213.742 341.316 212.003 340.717 209.92 340.717C207.818 340.717 206.049 341.316 204.615 342.515C203.2 343.714 202.129 345.344 201.402 347.408C200.695 349.471 200.341 351.819 200.341 354.452C200.341 357.085 200.695 359.433 201.402 361.496C202.129 363.56 203.2 365.191 204.615 366.389C206.049 367.568 207.818 368.158 209.92 368.158ZM237.444 377V316.636H250V339.332H250.383C250.934 338.113 251.729 336.875 252.771 335.618C253.832 334.341 255.207 333.28 256.897 332.435C258.607 331.57 260.729 331.138 263.264 331.138C266.565 331.138 269.61 332.002 272.401 333.732C275.191 335.441 277.421 338.025 279.091 341.483C280.762 344.922 281.597 349.235 281.597 354.423C281.597 359.473 280.781 363.737 279.15 367.214C277.539 370.673 275.338 373.296 272.548 375.084C269.778 376.853 266.673 377.737 263.234 377.737C260.798 377.737 258.725 377.334 257.015 376.528C255.325 375.723 253.94 374.711 252.859 373.493C251.778 372.255 250.953 371.007 250.383 369.749H249.823V377H237.444ZM249.735 354.364C249.735 357.056 250.108 359.404 250.855 361.408C251.602 363.412 252.682 364.974 254.097 366.094C255.512 367.195 257.231 367.745 259.255 367.745C261.299 367.745 263.028 367.185 264.443 366.065C265.857 364.925 266.928 363.353 267.655 361.349C268.402 359.325 268.775 356.997 268.775 354.364C268.775 351.75 268.412 349.451 267.685 347.467C266.958 345.482 265.887 343.93 264.472 342.81C263.057 341.69 261.318 341.13 259.255 341.13C257.212 341.13 255.482 341.67 254.068 342.751C252.673 343.831 251.602 345.364 250.855 347.349C250.108 349.333 249.735 351.672 249.735 354.364Z" fill="black"/>
<path d="M75.8928 486V476.804L97.3796 456.909C99.207 455.14 100.74 453.549 101.978 452.134C103.235 450.719 104.188 449.334 104.837 447.978C105.485 446.603 105.809 445.119 105.809 443.527C105.809 441.759 105.406 440.236 104.601 438.959C103.795 437.662 102.695 436.67 101.3 435.982C99.9046 435.275 98.3228 434.921 96.5543 434.921C94.7073 434.921 93.096 435.294 91.7205 436.041C90.3451 436.788 89.284 437.858 88.5373 439.254C87.7906 440.649 87.4173 442.309 87.4173 444.235H75.3033C75.3033 440.285 76.1973 436.856 77.9854 433.948C79.7736 431.04 82.2789 428.79 85.5014 427.199C88.724 425.607 92.4377 424.811 96.6428 424.811C100.966 424.811 104.729 425.577 107.931 427.11C111.154 428.623 113.659 430.726 115.447 433.418C117.236 436.11 118.13 439.195 118.13 442.673C118.13 444.952 117.678 447.202 116.774 449.422C115.89 451.643 114.308 454.109 112.028 456.82C109.749 459.512 106.536 462.745 102.39 466.517L93.5774 475.153V475.566H118.925V486H75.8928ZM132.53 486.766C130.584 486.766 128.914 486.079 127.519 484.703C126.144 483.308 125.456 481.638 125.456 479.692C125.456 477.767 126.144 476.116 127.519 474.741C128.914 473.365 130.584 472.678 132.53 472.678C134.416 472.678 136.067 473.365 137.481 474.741C138.896 476.116 139.604 477.767 139.604 479.692C139.604 480.989 139.27 482.178 138.601 483.259C137.953 484.32 137.098 485.175 136.037 485.823C134.976 486.452 133.807 486.766 132.53 486.766ZM213.581 446.77H200.671C200.435 445.099 199.954 443.616 199.227 442.319C198.5 441.002 197.566 439.882 196.427 438.959C195.287 438.035 193.97 437.328 192.477 436.837C191.003 436.345 189.402 436.1 187.673 436.1C184.548 436.1 181.827 436.876 179.508 438.428C177.19 439.961 175.392 442.201 174.115 445.148C172.837 448.076 172.199 451.633 172.199 455.818C172.199 460.121 172.837 463.737 174.115 466.665C175.411 469.593 177.219 471.803 179.538 473.297C181.856 474.79 184.539 475.537 187.584 475.537C189.294 475.537 190.876 475.311 192.33 474.859C193.803 474.407 195.11 473.748 196.25 472.884C197.39 472 198.333 470.929 199.079 469.671C199.846 468.414 200.376 466.979 200.671 465.368L213.581 465.427C213.247 468.197 212.412 470.87 211.075 473.444C209.759 475.998 207.981 478.288 205.741 480.311C203.52 482.316 200.867 483.907 197.782 485.086C194.717 486.246 191.249 486.825 187.378 486.825C181.994 486.825 177.18 485.607 172.936 483.17C168.711 480.734 165.37 477.207 162.914 472.589C160.478 467.971 159.259 462.381 159.259 455.818C159.259 449.236 160.497 443.635 162.973 439.018C165.449 434.4 168.809 430.883 173.053 428.466C177.298 426.029 182.073 424.811 187.378 424.811C190.876 424.811 194.118 425.302 197.105 426.285C200.111 427.267 202.773 428.702 205.092 430.588C207.411 432.455 209.297 434.744 210.751 437.456C212.225 440.167 213.168 443.272 213.581 446.77ZM219.396 486V440.727H231.569V448.626H232.041C232.866 445.817 234.252 443.694 236.197 442.26C238.142 440.806 240.382 440.079 242.917 440.079C243.546 440.079 244.224 440.118 244.951 440.197C245.678 440.275 246.316 440.383 246.867 440.521V451.662C246.277 451.485 245.462 451.328 244.42 451.191C243.379 451.053 242.426 450.984 241.561 450.984C239.714 450.984 238.064 451.387 236.61 452.193C235.175 452.979 234.035 454.079 233.191 455.494C232.365 456.909 231.953 458.54 231.953 460.387V486H219.396ZM268.606 486.884C264.028 486.884 260.068 485.912 256.728 483.966C253.407 482.001 250.843 479.27 249.035 475.772C247.227 472.255 246.323 468.178 246.323 463.54C246.323 458.864 247.227 454.777 249.035 451.279C250.843 447.762 253.407 445.031 256.728 443.085C260.068 441.12 264.028 440.138 268.606 440.138C273.184 440.138 277.134 441.12 280.455 443.085C283.795 445.031 286.369 447.762 288.177 451.279C289.985 454.777 290.889 458.864 290.889 463.54C290.889 468.178 289.985 472.255 288.177 475.772C286.369 479.27 283.795 482.001 280.455 483.966C277.134 485.912 273.184 486.884 268.606 486.884ZM268.665 477.158C270.748 477.158 272.487 476.568 273.882 475.389C275.277 474.191 276.328 472.56 277.036 470.496C277.763 468.433 278.126 466.085 278.126 463.452C278.126 460.819 277.763 458.471 277.036 456.408C276.328 454.344 275.277 452.714 273.882 451.515C272.487 450.316 270.748 449.717 268.665 449.717C266.562 449.717 264.794 450.316 263.359 451.515C261.945 452.714 260.874 454.344 260.147 456.408C259.439 458.471 259.086 460.819 259.086 463.452C259.086 466.085 259.439 468.433 260.147 470.496C260.874 472.56 261.945 474.191 263.359 475.389C264.794 476.568 266.562 477.158 268.665 477.158ZM308.509 459.827V486H295.953V440.727H307.919V448.715H308.45C309.452 446.082 311.132 443.999 313.49 442.466C315.848 440.914 318.707 440.138 322.067 440.138C325.211 440.138 327.952 440.826 330.29 442.201C332.629 443.576 334.446 445.541 335.743 448.096C337.04 450.631 337.688 453.657 337.688 457.174V486H325.132V459.414C325.152 456.643 324.445 454.482 323.01 452.93C321.576 451.358 319.601 450.572 317.086 450.572C315.396 450.572 313.903 450.935 312.606 451.662C311.329 452.389 310.326 453.45 309.599 454.846C308.892 456.221 308.528 457.881 308.509 459.827ZM368.889 425.636H381.504V467.726C381.504 471.616 380.63 474.996 378.881 477.865C377.152 480.734 374.745 482.944 371.66 484.497C368.575 486.049 364.989 486.825 360.901 486.825C357.266 486.825 353.965 486.187 350.998 484.909C348.051 483.613 345.712 481.648 343.983 479.015C342.254 476.362 341.399 473.031 341.419 469.023H354.122C354.162 470.614 354.486 471.98 355.095 473.12C355.724 474.24 356.579 475.104 357.659 475.713C358.76 476.303 360.057 476.598 361.55 476.598C363.122 476.598 364.448 476.264 365.529 475.596C366.629 474.908 367.464 473.906 368.034 472.589C368.604 471.273 368.889 469.652 368.889 467.726V425.636ZM409.175 486.884C404.597 486.884 400.637 485.912 397.297 483.966C393.976 482.001 391.412 479.27 389.604 475.772C387.796 472.255 386.892 468.178 386.892 463.54C386.892 458.864 387.796 454.777 389.604 451.279C391.412 447.762 393.976 445.031 397.297 443.085C400.637 441.12 404.597 440.138 409.175 440.138C413.753 440.138 417.703 441.12 421.024 443.085C424.364 445.031 426.938 447.762 428.746 451.279C430.554 454.777 431.458 458.864 431.458 463.54C431.458 468.178 430.554 472.255 428.746 475.772C426.938 479.27 424.364 482.001 421.024 483.966C417.703 485.912 413.753 486.884 409.175 486.884ZM409.234 477.158C411.317 477.158 413.056 476.568 414.451 475.389C415.846 474.191 416.897 472.56 417.605 470.496C418.332 468.433 418.695 466.085 418.695 463.452C418.695 460.819 418.332 458.471 417.605 456.408C416.897 454.344 415.846 452.714 414.451 451.515C413.056 450.316 411.317 449.717 409.234 449.717C407.132 449.717 405.363 450.316 403.929 451.515C402.514 452.714 401.443 454.344 400.716 456.408C400.009 458.471 399.655 460.819 399.655 463.452C399.655 466.085 400.009 468.433 400.716 470.496C401.443 472.56 402.514 474.191 403.929 475.389C405.363 476.568 407.132 477.158 409.234 477.158ZM436.758 486V425.636H449.314V448.332H449.697C450.247 447.113 451.043 445.875 452.084 444.618C453.145 443.341 454.521 442.28 456.211 441.435C457.92 440.57 460.042 440.138 462.577 440.138C465.878 440.138 468.924 441.002 471.714 442.732C474.505 444.441 476.735 447.025 478.405 450.483C480.075 453.922 480.91 458.235 480.91 463.423C480.91 468.473 480.095 472.737 478.464 476.214C476.853 479.673 474.652 482.296 471.862 484.084C469.091 485.853 465.986 486.737 462.548 486.737C460.111 486.737 458.038 486.334 456.329 485.528C454.639 484.723 453.254 483.711 452.173 482.493C451.092 481.255 450.267 480.007 449.697 478.749H449.137V486H436.758ZM449.048 463.364C449.048 466.056 449.422 468.404 450.169 470.408C450.915 472.412 451.996 473.974 453.411 475.094C454.825 476.195 456.545 476.745 458.569 476.745C460.612 476.745 462.341 476.185 463.756 475.065C465.171 473.925 466.242 472.353 466.969 470.349C467.716 468.325 468.089 465.997 468.089 463.364C468.089 460.75 467.725 458.451 466.998 456.467C466.271 454.482 465.2 452.93 463.786 451.81C462.371 450.69 460.632 450.13 458.569 450.13C456.525 450.13 454.796 450.67 453.381 451.751C451.986 452.831 450.915 454.364 450.169 456.349C449.422 458.333 449.048 460.672 449.048 463.364Z" fill="#D2D2D2"/>
<path d="M98.2049 595.825C93.8034 595.825 89.8833 595.069 86.4446 593.556C83.0256 592.023 80.3237 589.921 78.3391 587.248C76.3742 584.556 75.3622 581.452 75.3033 577.934H88.1541C88.2327 579.408 88.7141 580.705 89.5984 581.825C90.5022 582.925 91.7009 583.78 93.1942 584.389C94.6876 584.998 96.3677 585.303 98.2344 585.303C100.18 585.303 101.899 584.959 103.392 584.271C104.886 583.584 106.055 582.631 106.9 581.412C107.745 580.194 108.167 578.789 108.167 577.197C108.167 575.586 107.715 574.162 106.811 572.924C105.927 571.666 104.65 570.684 102.98 569.976C101.329 569.269 99.3642 568.915 97.0849 568.915H91.4553V559.542H97.0849C99.0105 559.542 100.71 559.208 102.184 558.54C103.677 557.872 104.837 556.949 105.662 555.77C106.487 554.571 106.9 553.176 106.9 551.584C106.9 550.071 106.536 548.745 105.809 547.605C105.102 546.446 104.1 545.542 102.803 544.893C101.526 544.245 100.032 543.921 98.3228 543.921C96.5936 543.921 95.0118 544.235 93.5774 544.864C92.143 545.473 90.9935 546.348 90.1289 547.487C89.2643 548.627 88.8026 549.963 88.7436 551.496H76.5117C76.5707 548.018 77.563 544.952 79.4886 542.3C81.4143 539.647 84.0081 537.574 87.2699 536.081C90.5514 534.568 94.2553 533.811 98.3817 533.811C102.547 533.811 106.192 534.568 109.317 536.081C112.441 537.594 114.868 539.637 116.597 542.211C118.346 544.766 119.21 547.635 119.191 550.818C119.21 554.198 118.159 557.017 116.037 559.277C113.934 561.537 111.193 562.971 107.814 563.58V564.052C112.254 564.622 115.634 566.164 117.953 568.679C120.291 571.175 121.45 574.299 121.431 578.052C121.45 581.491 120.458 584.546 118.454 587.219C116.469 589.891 113.728 591.994 110.23 593.526C106.733 595.059 102.724 595.825 98.2049 595.825ZM133.259 595.766C131.314 595.766 129.644 595.079 128.249 593.703C126.873 592.308 126.185 590.638 126.185 588.692C126.185 586.767 126.873 585.116 128.249 583.741C129.644 582.365 131.314 581.678 133.259 581.678C135.146 581.678 136.796 582.365 138.211 583.741C139.626 585.116 140.333 586.767 140.333 588.692C140.333 589.989 139.999 591.178 139.331 592.259C138.683 593.32 137.828 594.175 136.767 594.823C135.706 595.452 134.536 595.766 133.259 595.766ZM182.448 595H161.05V534.636H182.625C188.697 534.636 193.924 535.845 198.306 538.262C202.688 540.659 206.057 544.107 208.415 548.607C210.793 553.107 211.982 558.491 211.982 564.759C211.982 571.047 210.793 576.451 208.415 580.97C206.057 585.49 202.668 588.958 198.247 591.375C193.845 593.792 188.579 595 182.448 595ZM173.812 584.065H181.918C185.691 584.065 188.864 583.397 191.438 582.061C194.032 580.705 195.977 578.612 197.274 575.783C198.591 572.933 199.249 569.259 199.249 564.759C199.249 560.299 198.591 556.654 197.274 553.824C195.977 550.995 194.042 548.912 191.468 547.576C188.893 546.239 185.72 545.571 181.947 545.571H173.812V584.065ZM238.732 595.884C234.075 595.884 230.066 594.941 226.706 593.055C223.366 591.149 220.792 588.457 218.984 584.979C217.176 581.481 216.272 577.345 216.272 572.57C216.272 567.913 217.176 563.826 218.984 560.309C220.792 556.791 223.336 554.05 226.618 552.085C229.919 550.12 233.79 549.138 238.231 549.138C241.217 549.138 243.998 549.619 246.572 550.582C249.166 551.525 251.425 552.95 253.351 554.856C255.296 556.762 256.809 559.159 257.89 562.048C258.971 564.916 259.511 568.277 259.511 572.128V575.576H221.283V567.795H247.692C247.692 565.987 247.299 564.386 246.513 562.991C245.727 561.596 244.636 560.505 243.241 559.719C241.866 558.913 240.264 558.511 238.437 558.511C236.531 558.511 234.841 558.953 233.367 559.837C231.913 560.702 230.774 561.871 229.948 563.344C229.123 564.799 228.701 566.42 228.681 568.208V575.606C228.681 577.846 229.094 579.781 229.919 581.412C230.764 583.043 231.953 584.301 233.485 585.185C235.018 586.069 236.836 586.511 238.938 586.511C240.333 586.511 241.61 586.315 242.77 585.922C243.929 585.529 244.921 584.939 245.747 584.153C246.572 583.367 247.201 582.405 247.633 581.265L259.246 582.031C258.656 584.821 257.448 587.258 255.621 589.341C253.813 591.404 251.474 593.015 248.606 594.175C245.756 595.314 242.465 595.884 238.732 595.884ZM264.605 611.977V549.727H276.984V557.332H277.544C278.094 556.113 278.89 554.875 279.931 553.618C280.993 552.341 282.368 551.28 284.058 550.435C285.767 549.57 287.89 549.138 290.424 549.138C293.725 549.138 296.771 550.002 299.561 551.732C302.352 553.441 304.582 556.025 306.252 559.483C307.922 562.922 308.757 567.235 308.757 572.423C308.757 577.473 307.942 581.737 306.311 585.214C304.7 588.673 302.499 591.296 299.709 593.084C296.938 594.853 293.834 595.737 290.395 595.737C287.958 595.737 285.885 595.334 284.176 594.528C282.486 593.723 281.101 592.711 280.02 591.493C278.939 590.255 278.114 589.007 277.544 587.749H277.161V611.977H264.605ZM276.896 572.364C276.896 575.056 277.269 577.404 278.016 579.408C278.762 581.412 279.843 582.974 281.258 584.094C282.673 585.195 284.392 585.745 286.416 585.745C288.459 585.745 290.189 585.185 291.603 584.065C293.018 582.925 294.089 581.353 294.816 579.349C295.563 577.325 295.936 574.997 295.936 572.364C295.936 569.75 295.573 567.451 294.846 565.467C294.118 563.482 293.048 561.93 291.633 560.81C290.218 559.69 288.479 559.13 286.416 559.13C284.372 559.13 282.643 559.67 281.228 560.751C279.833 561.831 278.762 563.364 278.016 565.349C277.269 567.333 276.896 569.672 276.896 572.364ZM326.584 534.636V595H314.028V534.636H326.584ZM353.997 595.884C349.419 595.884 345.459 594.912 342.119 592.966C338.798 591.001 336.234 588.27 334.426 584.772C332.618 581.255 331.714 577.178 331.714 572.54C331.714 567.864 332.618 563.777 334.426 560.279C336.234 556.762 338.798 554.031 342.119 552.085C345.459 550.12 349.419 549.138 353.997 549.138C358.575 549.138 362.525 550.12 365.846 552.085C369.186 554.031 371.76 556.762 373.568 560.279C375.376 563.777 376.28 567.864 376.28 572.54C376.28 577.178 375.376 581.255 373.568 584.772C371.76 588.27 369.186 591.001 365.846 592.966C362.525 594.912 358.575 595.884 353.997 595.884ZM354.056 586.158C356.139 586.158 357.878 585.568 359.273 584.389C360.668 583.191 361.719 581.56 362.427 579.496C363.154 577.433 363.517 575.085 363.517 572.452C363.517 569.819 363.154 567.471 362.427 565.408C361.719 563.344 360.668 561.714 359.273 560.515C357.878 559.316 356.139 558.717 354.056 558.717C351.954 558.717 350.185 559.316 348.751 560.515C347.336 561.714 346.265 563.344 345.538 565.408C344.831 567.471 344.477 569.819 344.477 572.452C344.477 575.085 344.831 577.433 345.538 579.496C346.265 581.56 347.336 583.191 348.751 584.389C350.185 585.568 351.954 586.158 354.056 586.158ZM387.637 611.977C386.045 611.977 384.552 611.85 383.157 611.594C381.781 611.358 380.641 611.054 379.737 610.68L382.567 601.308C384.041 601.759 385.367 602.005 386.546 602.044C387.745 602.084 388.776 601.809 389.641 601.219C390.525 600.63 391.242 599.627 391.793 598.213L392.529 596.297L376.289 549.727H389.494L398.866 582.974H399.338L408.799 549.727H422.092L404.496 599.893C403.651 602.329 402.502 604.451 401.048 606.259C399.613 608.087 397.795 609.492 395.595 610.474C393.394 611.476 390.741 611.977 387.637 611.977ZM425.417 595V549.727H437.384V557.715H437.915C438.858 555.062 440.43 552.969 442.63 551.437C444.831 549.904 447.464 549.138 450.53 549.138C453.634 549.138 456.277 549.914 458.458 551.466C460.639 552.999 462.093 555.082 462.82 557.715H463.292C464.216 555.121 465.886 553.048 468.303 551.496C470.739 549.924 473.618 549.138 476.939 549.138C481.163 549.138 484.592 550.484 487.225 553.176C489.878 555.848 491.204 559.641 491.204 564.553V595H478.678V567.029C478.678 564.514 478.01 562.627 476.673 561.37C475.337 560.112 473.667 559.483 471.663 559.483C469.383 559.483 467.605 560.21 466.328 561.664C465.051 563.099 464.412 564.995 464.412 567.353V595H452.239V566.763C452.239 564.543 451.6 562.775 450.323 561.458C449.066 560.142 447.405 559.483 445.342 559.483C443.947 559.483 442.689 559.837 441.569 560.544C440.469 561.232 439.595 562.205 438.946 563.462C438.298 564.7 437.973 566.154 437.973 567.825V595H425.417ZM518.654 595.884C513.997 595.884 509.989 594.941 506.629 593.055C503.288 591.149 500.714 588.457 498.906 584.979C497.099 581.481 496.195 577.345 496.195 572.57C496.195 567.913 497.099 563.826 498.906 560.309C500.714 556.791 503.259 554.05 506.54 552.085C509.841 550.12 513.712 549.138 518.153 549.138C521.14 549.138 523.92 549.619 526.494 550.582C529.088 551.525 531.348 552.95 533.274 554.856C535.219 556.762 536.732 559.159 537.813 562.048C538.893 564.916 539.434 568.277 539.434 572.128V575.576H501.205V567.795H527.614C527.614 565.987 527.221 564.386 526.435 562.991C525.649 561.596 524.559 560.505 523.164 559.719C521.788 558.913 520.187 558.511 518.359 558.511C516.453 558.511 514.764 558.953 513.29 559.837C511.836 560.702 510.696 561.871 509.871 563.344C509.046 564.799 508.623 566.42 508.603 568.208V575.606C508.603 577.846 509.016 579.781 509.841 581.412C510.686 583.043 511.875 584.301 513.408 585.185C514.94 586.069 516.758 586.511 518.861 586.511C520.256 586.511 521.533 586.315 522.692 585.922C523.852 585.529 524.844 584.939 525.669 584.153C526.494 583.367 527.123 582.405 527.555 581.265L539.168 582.031C538.579 584.821 537.37 587.258 535.543 589.341C533.735 591.404 531.397 593.015 528.528 594.175C525.679 595.314 522.388 595.884 518.654 595.884ZM557.083 568.827V595H544.527V549.727H556.494V557.715H557.024C558.027 555.082 559.707 552.999 562.065 551.466C564.422 549.914 567.282 549.138 570.642 549.138C573.786 549.138 576.527 549.826 578.865 551.201C581.203 552.576 583.021 554.541 584.318 557.096C585.615 559.631 586.263 562.657 586.263 566.174V595H573.707V568.414C573.727 565.643 573.019 563.482 571.585 561.93C570.15 560.358 568.176 559.572 565.66 559.572C563.971 559.572 562.477 559.935 561.18 560.662C559.903 561.389 558.901 562.45 558.174 563.846C557.467 565.221 557.103 566.881 557.083 568.827ZM617.139 549.727V559.159H589.876V549.727H617.139ZM596.065 538.881H608.621V581.088C608.621 582.247 608.798 583.151 609.152 583.8C609.505 584.429 609.997 584.871 610.626 585.126C611.274 585.382 612.021 585.509 612.866 585.509C613.455 585.509 614.045 585.46 614.634 585.362C615.224 585.244 615.675 585.156 615.99 585.097L617.965 594.44C617.336 594.636 616.452 594.862 615.312 595.118C614.172 595.393 612.787 595.56 611.156 595.619C608.13 595.737 605.477 595.334 603.198 594.411C600.938 593.487 599.18 592.053 597.922 590.107C596.664 588.162 596.045 585.706 596.065 582.739V538.881Z" fill="#D2D2D2"/>
</svg>
