<svg width="1200" height="900" viewBox="0 0 1200 900" fill="none" xmlns="http://www.w3.org/2000/svg">
<rect width="1200" height="900" fill="white"/>
<path fill-rule="evenodd" clip-rule="evenodd" d="M408 94.4373C408 87.5684 413.568 82 420.437 82H717.563C724.432 82 730 87.5683 730 94.4373V806.138C730 813.007 724.432 818.575 717.563 818.575H420.437C413.568 818.575 408 813.007 408 806.138V94.4373Z" fill="#EEF8F9"/>
<g clip-path="url(#clip0_1_4725)">
<rect x="421.417" y="187.992" width="291.032" height="77.1109" rx="3.73117" fill="#53777A"/>
<path d="M509.604 239.195V215.824H518.824C520.597 215.824 522.107 216.163 523.355 216.84C524.602 217.509 525.553 218.441 526.208 219.636C526.87 220.822 527.201 222.192 527.201 223.744C527.201 225.296 526.866 226.665 526.196 227.852C525.527 229.039 524.557 229.963 523.286 230.625C522.023 231.287 520.494 231.618 518.699 231.618H512.822V227.658H517.9C518.851 227.658 519.635 227.494 520.251 227.167C520.875 226.832 521.339 226.372 521.643 225.786C521.955 225.193 522.111 224.512 522.111 223.744C522.111 222.968 521.955 222.291 521.643 221.712C521.339 221.127 520.875 220.674 520.251 220.354C519.627 220.027 518.836 219.864 517.877 219.864H514.545V239.195H509.604ZM529.295 239.195V221.667H534.008V224.725H534.191C534.51 223.637 535.047 222.816 535.8 222.26C536.553 221.697 537.42 221.416 538.402 221.416C538.645 221.416 538.908 221.431 539.189 221.461C539.471 221.492 539.718 221.534 539.931 221.587V225.9C539.703 225.832 539.387 225.771 538.984 225.718C538.58 225.665 538.211 225.638 537.877 225.638C537.162 225.638 536.523 225.794 535.96 226.106C535.404 226.41 534.963 226.836 534.636 227.384C534.316 227.932 534.157 228.563 534.157 229.278V239.195H529.295ZM548.593 239.537C546.79 239.537 545.238 239.172 543.937 238.442C542.644 237.704 541.647 236.661 540.947 235.315C540.247 233.961 539.897 232.359 539.897 230.511C539.897 228.708 540.247 227.125 540.947 225.764C541.647 224.402 542.632 223.34 543.903 222.58C545.181 221.819 546.68 221.439 548.399 221.439C549.555 221.439 550.632 221.625 551.628 221.998C552.633 222.363 553.507 222.914 554.253 223.652C555.006 224.39 555.592 225.318 556.01 226.437C556.429 227.547 556.638 228.848 556.638 230.34V231.675H541.837V228.662H552.062C552.062 227.962 551.91 227.342 551.606 226.802C551.301 226.262 550.879 225.84 550.339 225.535C549.806 225.223 549.186 225.067 548.479 225.067C547.741 225.067 547.087 225.239 546.516 225.581C545.953 225.916 545.512 226.368 545.192 226.939C544.873 227.502 544.709 228.129 544.702 228.822V231.686C544.702 232.553 544.861 233.303 545.181 233.934C545.508 234.566 545.968 235.052 546.562 235.395C547.155 235.737 547.859 235.908 548.673 235.908C549.213 235.908 549.707 235.832 550.156 235.68C550.605 235.528 550.989 235.3 551.309 234.995C551.628 234.691 551.872 234.318 552.039 233.877L556.535 234.174C556.307 235.254 555.839 236.197 555.132 237.004C554.432 237.803 553.526 238.426 552.416 238.875C551.313 239.317 550.038 239.537 548.593 239.537ZM568.213 221.667V225.318H557.395V221.667H568.213ZM559.871 239.195V220.4C559.871 219.13 560.118 218.076 560.613 217.239C561.115 216.402 561.8 215.775 562.667 215.356C563.534 214.938 564.519 214.729 565.622 214.729C566.368 214.729 567.049 214.786 567.665 214.9C568.289 215.014 568.753 215.117 569.057 215.208L568.19 218.86C568 218.799 567.764 218.742 567.483 218.688C567.209 218.635 566.927 218.608 566.638 218.608C565.923 218.608 565.425 218.776 565.143 219.111C564.862 219.438 564.721 219.898 564.721 220.491V239.195H559.871ZM570.159 239.195V221.667H575.021V239.195H570.159ZM572.601 219.407C571.879 219.407 571.259 219.168 570.741 218.688C570.232 218.201 569.977 217.62 569.977 216.942C569.977 216.273 570.232 215.699 570.741 215.219C571.259 214.732 571.879 214.489 572.601 214.489C573.324 214.489 573.94 214.732 574.45 215.219C574.967 215.699 575.226 216.273 575.226 216.942C575.226 217.62 574.967 218.201 574.45 218.688C573.94 219.168 573.324 219.407 572.601 219.407ZM582.753 215.824V239.195H577.891V215.824H582.753ZM594.947 221.667V225.318H584.391V221.667H594.947ZM586.787 217.467H591.649V233.809C591.649 234.257 591.717 234.607 591.854 234.858C591.991 235.102 592.181 235.273 592.425 235.372C592.676 235.471 592.965 235.52 593.292 235.52C593.52 235.52 593.748 235.501 593.977 235.463C594.205 235.418 594.38 235.383 594.502 235.361L595.266 238.978C595.023 239.054 594.68 239.142 594.239 239.24C593.798 239.347 593.262 239.412 592.63 239.434C591.459 239.48 590.431 239.324 589.549 238.967C588.674 238.609 587.993 238.054 587.506 237.301C587.019 236.547 586.78 235.596 586.787 234.448V217.467ZM604.89 239.537C603.087 239.537 601.535 239.172 600.234 238.442C598.94 237.704 597.944 236.661 597.244 235.315C596.544 233.961 596.194 232.359 596.194 230.511C596.194 228.708 596.544 227.125 597.244 225.764C597.944 224.402 598.929 223.34 600.2 222.58C601.478 221.819 602.976 221.439 604.696 221.439C605.852 221.439 606.929 221.625 607.925 221.998C608.929 222.363 609.804 222.914 610.55 223.652C611.303 224.39 611.889 225.318 612.307 226.437C612.726 227.547 612.935 228.848 612.935 230.34V231.675H598.134V228.662H608.359C608.359 227.962 608.207 227.342 607.902 226.802C607.598 226.262 607.176 225.84 606.636 225.535C606.103 225.223 605.483 225.067 604.776 225.067C604.038 225.067 603.383 225.239 602.813 225.581C602.25 225.916 601.809 226.368 601.489 226.939C601.17 227.502 601.006 228.129 600.998 228.822V231.686C600.998 232.553 601.158 233.303 601.478 233.934C601.805 234.566 602.265 235.052 602.858 235.395C603.452 235.737 604.156 235.908 604.97 235.908C605.51 235.908 606.004 235.832 606.453 235.68C606.902 235.528 607.286 235.3 607.606 234.995C607.925 234.691 608.169 234.318 608.336 233.877L612.832 234.174C612.604 235.254 612.136 236.197 611.428 237.004C610.729 237.803 609.823 238.426 608.713 238.875C607.609 239.317 606.335 239.537 604.89 239.537ZM615.084 239.195V221.667H619.797V224.725H619.979C620.299 223.637 620.835 222.816 621.588 222.26C622.341 221.697 623.209 221.416 624.19 221.416C624.434 221.416 624.696 221.431 624.978 221.461C625.259 221.492 625.506 221.534 625.719 221.587V225.9C625.491 225.832 625.175 225.771 624.772 225.718C624.369 225.665 624 225.638 623.665 225.638C622.95 225.638 622.311 225.794 621.748 226.106C621.193 226.41 620.751 226.836 620.424 227.384C620.105 227.932 619.945 228.563 619.945 229.278V239.195H615.084Z" fill="white"/>
</g>
<g clip-path="url(#clip1_1_4725)">
<rect x="421.417" y="98.1001" width="291.032" height="77.1109" rx="3.73117" fill="#53777A"/>
<path d="M513.169 148.883V125.513H522.389C524.162 125.513 525.672 125.851 526.919 126.528C528.167 127.198 529.118 128.13 529.772 129.324C530.434 130.511 530.765 131.88 530.765 133.432C530.765 134.984 530.43 136.353 529.761 137.54C529.091 138.727 528.121 139.651 526.851 140.313C525.588 140.975 524.059 141.306 522.264 141.306H516.387V137.346H521.465C522.416 137.346 523.199 137.183 523.815 136.856C524.439 136.521 524.903 136.061 525.208 135.475C525.52 134.881 525.676 134.201 525.676 133.432C525.676 132.656 525.52 131.979 525.208 131.401C524.903 130.815 524.439 130.362 523.815 130.043C523.192 129.716 522.4 129.552 521.442 129.552H518.11V148.883H513.169ZM532.86 148.883V131.355H537.573V134.414H537.755C538.075 133.326 538.611 132.504 539.364 131.949C540.118 131.386 540.985 131.104 541.966 131.104C542.21 131.104 542.472 131.119 542.754 131.15C543.035 131.18 543.282 131.222 543.495 131.275V135.589C543.267 135.52 542.951 135.46 542.548 135.406C542.145 135.353 541.776 135.326 541.441 135.326C540.726 135.326 540.087 135.482 539.524 135.794C538.969 136.099 538.528 136.525 538.2 137.072C537.881 137.62 537.721 138.252 537.721 138.967V148.883H532.86ZM552.157 149.226C550.354 149.226 548.803 148.86 547.502 148.13C546.208 147.392 545.212 146.35 544.512 145.003C543.812 143.649 543.462 142.048 543.462 140.199C543.462 138.396 543.812 136.814 544.512 135.452C545.212 134.09 546.197 133.029 547.467 132.268C548.745 131.507 550.244 131.127 551.963 131.127C553.12 131.127 554.196 131.313 555.193 131.686C556.197 132.051 557.072 132.603 557.818 133.341C558.571 134.079 559.157 135.007 559.575 136.125C559.993 137.236 560.203 138.537 560.203 140.028V141.363H545.402V138.35H555.627C555.627 137.651 555.474 137.031 555.17 136.49C554.866 135.95 554.444 135.528 553.903 135.224C553.371 134.912 552.751 134.756 552.043 134.756C551.305 134.756 550.651 134.927 550.081 135.269C549.518 135.604 549.076 136.057 548.757 136.627C548.437 137.19 548.274 137.818 548.266 138.51V141.375C548.266 142.242 548.426 142.991 548.745 143.623C549.073 144.254 549.533 144.741 550.126 145.083C550.72 145.426 551.423 145.597 552.237 145.597C552.778 145.597 553.272 145.521 553.721 145.369C554.17 145.216 554.554 144.988 554.873 144.684C555.193 144.38 555.436 144.007 555.604 143.566L560.1 143.862C559.872 144.943 559.404 145.886 558.696 146.692C557.996 147.491 557.091 148.115 555.98 148.564C554.877 149.005 553.603 149.226 552.157 149.226ZM576.935 136.353L572.485 136.627C572.409 136.247 572.245 135.905 571.994 135.6C571.743 135.288 571.412 135.041 571.001 134.859C570.598 134.668 570.115 134.573 569.552 134.573C568.799 134.573 568.164 134.733 567.647 135.053C567.129 135.364 566.871 135.783 566.871 136.308C566.871 136.726 567.038 137.08 567.373 137.369C567.707 137.658 568.282 137.89 569.096 138.065L572.268 138.704C573.972 139.054 575.243 139.617 576.08 140.393C576.916 141.169 577.335 142.189 577.335 143.451C577.335 144.6 576.996 145.608 576.319 146.475C575.65 147.343 574.729 148.02 573.558 148.507C572.394 148.986 571.051 149.226 569.529 149.226C567.209 149.226 565.36 148.743 563.983 147.776C562.614 146.803 561.811 145.479 561.576 143.805L566.357 143.554C566.502 144.262 566.852 144.802 567.407 145.175C567.962 145.54 568.674 145.722 569.541 145.722C570.393 145.722 571.078 145.559 571.595 145.232C572.12 144.897 572.386 144.467 572.394 143.942C572.386 143.501 572.2 143.14 571.835 142.858C571.469 142.569 570.906 142.348 570.146 142.196L567.11 141.591C565.398 141.249 564.124 140.656 563.287 139.811C562.458 138.967 562.043 137.89 562.043 136.582C562.043 135.456 562.348 134.486 562.956 133.672C563.573 132.858 564.436 132.23 565.547 131.789C566.665 131.348 567.974 131.127 569.472 131.127C571.686 131.127 573.428 131.595 574.699 132.531C575.977 133.466 576.722 134.741 576.935 136.353ZM587.292 149.226C585.52 149.226 583.987 148.849 582.693 148.096C581.408 147.335 580.415 146.278 579.715 144.924C579.015 143.562 578.665 141.983 578.665 140.188C578.665 138.377 579.015 136.795 579.715 135.441C580.415 134.079 581.408 133.021 582.693 132.268C583.987 131.507 585.52 131.127 587.292 131.127C589.065 131.127 590.594 131.507 591.88 132.268C593.173 133.021 594.169 134.079 594.869 135.441C595.569 136.795 595.919 138.377 595.919 140.188C595.919 141.983 595.569 143.562 594.869 144.924C594.169 146.278 593.173 147.335 591.88 148.096C590.594 148.849 589.065 149.226 587.292 149.226ZM587.315 145.46C588.121 145.46 588.795 145.232 589.335 144.775C589.875 144.311 590.282 143.68 590.556 142.881C590.837 142.082 590.978 141.173 590.978 140.154C590.978 139.134 590.837 138.225 590.556 137.426C590.282 136.627 589.875 135.996 589.335 135.532C588.795 135.068 588.121 134.836 587.315 134.836C586.501 134.836 585.816 135.068 585.261 135.532C584.713 135.996 584.299 136.627 584.017 137.426C583.743 138.225 583.606 139.134 583.606 140.154C583.606 141.173 583.743 142.082 584.017 142.881C584.299 143.68 584.713 144.311 585.261 144.775C585.816 145.232 586.501 145.46 587.315 145.46ZM598.057 148.883V131.355H602.77V134.414H602.952C603.272 133.326 603.808 132.504 604.561 131.949C605.315 131.386 606.182 131.104 607.163 131.104C607.407 131.104 607.669 131.119 607.951 131.15C608.232 131.18 608.479 131.222 608.692 131.275V135.589C608.464 135.52 608.148 135.46 607.745 135.406C607.342 135.353 606.973 135.326 606.638 135.326C605.923 135.326 605.284 135.482 604.721 135.794C604.166 136.099 603.725 136.525 603.397 137.072C603.078 137.62 602.918 138.252 602.918 138.967V148.883H598.057ZM620.384 131.355V135.007H609.829V131.355H620.384ZM612.225 127.156H617.086V143.497C617.086 143.946 617.155 144.296 617.292 144.547C617.429 144.79 617.619 144.962 617.862 145.06C618.113 145.159 618.402 145.209 618.73 145.209C618.958 145.209 619.186 145.19 619.414 145.152C619.642 145.106 619.817 145.072 619.939 145.049L620.704 148.666C620.46 148.743 620.118 148.83 619.677 148.929C619.235 149.035 618.699 149.1 618.068 149.123C616.896 149.169 615.869 149.013 614.987 148.655C614.112 148.298 613.431 147.742 612.944 146.989C612.457 146.236 612.217 145.285 612.225 144.136V127.156Z" fill="white"/>
</g>
<g clip-path="url(#clip2_1_4725)">
<rect x="421.417" y="277.883" width="291.032" height="77.1109" rx="3.73117" fill="#53777A"/>
<path d="M531.04 329.087V305.716H546.514V309.79H535.981V315.359H545.487V319.433H535.981V329.087H531.04ZM548.723 329.087V311.559H553.584V329.087H548.723ZM551.165 309.299C550.442 309.299 549.822 309.06 549.305 308.58C548.795 308.094 548.541 307.512 548.541 306.835C548.541 306.165 548.795 305.591 549.305 305.111C549.822 304.624 550.442 304.381 551.165 304.381C551.888 304.381 552.504 304.624 553.014 305.111C553.531 305.591 553.79 306.165 553.79 306.835C553.79 307.512 553.531 308.094 553.014 308.58C552.504 309.06 551.888 309.299 551.165 309.299ZM561.316 305.716V329.087H556.455V305.716H561.316ZM573.51 311.559V315.211H562.955V311.559H573.51ZM565.351 307.359H570.212V323.701C570.212 324.15 570.281 324.499 570.418 324.751C570.555 324.994 570.745 325.165 570.988 325.264C571.24 325.363 571.529 325.412 571.856 325.412C572.084 325.412 572.312 325.393 572.54 325.355C572.769 325.31 572.944 325.275 573.065 325.253L573.83 328.87C573.586 328.946 573.244 329.034 572.803 329.133C572.362 329.239 571.825 329.304 571.194 329.327C570.022 329.372 568.995 329.216 568.113 328.859C567.238 328.501 566.557 327.946 566.07 327.193C565.583 326.439 565.344 325.488 565.351 324.34V307.359ZM583.453 329.429C581.65 329.429 580.098 329.064 578.798 328.334C577.504 327.596 576.508 326.554 575.808 325.207C575.108 323.853 574.758 322.251 574.758 320.403C574.758 318.6 575.108 317.017 575.808 315.656C576.508 314.294 577.493 313.233 578.763 312.472C580.041 311.711 581.54 311.331 583.259 311.331C584.416 311.331 585.492 311.517 586.489 311.89C587.493 312.255 588.368 312.807 589.114 313.544C589.867 314.282 590.452 315.211 590.871 316.329C591.289 317.44 591.499 318.74 591.499 320.232V321.567H576.698V318.554H586.923C586.923 317.854 586.77 317.234 586.466 316.694C586.162 316.154 585.74 315.732 585.199 315.427C584.667 315.115 584.047 314.959 583.339 314.959C582.601 314.959 581.947 315.131 581.377 315.473C580.814 315.808 580.372 316.26 580.053 316.831C579.733 317.394 579.57 318.022 579.562 318.714V321.578C579.562 322.445 579.722 323.195 580.041 323.826C580.369 324.458 580.829 324.945 581.422 325.287C582.016 325.629 582.719 325.8 583.533 325.8C584.073 325.8 584.568 325.724 585.017 325.572C585.466 325.42 585.85 325.192 586.169 324.887C586.489 324.583 586.732 324.21 586.9 323.769L591.396 324.066C591.168 325.146 590.7 326.089 589.992 326.896C589.292 327.695 588.387 328.319 587.276 328.767C586.173 329.209 584.899 329.429 583.453 329.429ZM593.648 329.087V311.559H598.36V314.617H598.543C598.863 313.529 599.399 312.708 600.152 312.152C600.905 311.589 601.773 311.308 602.754 311.308C602.997 311.308 603.26 311.323 603.541 311.353C603.823 311.384 604.07 311.426 604.283 311.479V315.793C604.055 315.724 603.739 315.663 603.336 315.61C602.933 315.557 602.564 315.53 602.229 315.53C601.514 315.53 600.875 315.686 600.312 315.998C599.756 316.302 599.315 316.728 598.988 317.276C598.669 317.824 598.509 318.455 598.509 319.17V329.087H593.648Z" fill="white"/>
</g>
<g clip-path="url(#clip3_1_4725)">
<rect x="421.417" y="366.434" width="291.032" height="77.1109" rx="3.73117" fill="#53777A"/>
<path d="M500.792 417.637V394.266H510.012C511.785 394.266 513.295 394.605 514.543 395.282C515.79 395.951 516.741 396.883 517.396 398.077C518.057 399.264 518.388 400.634 518.388 402.186C518.388 403.738 518.054 405.107 517.384 406.294C516.715 407.48 515.745 408.405 514.474 409.067C513.211 409.729 511.682 410.059 509.887 410.059H504.01V406.1H509.088C510.039 406.1 510.823 405.936 511.439 405.609C512.063 405.274 512.527 404.814 512.831 404.228C513.143 403.635 513.299 402.954 513.299 402.186C513.299 401.41 513.143 400.732 512.831 400.154C512.527 399.569 512.063 399.116 511.439 398.796C510.815 398.469 510.024 398.306 509.065 398.306H505.733V417.637H500.792ZM520.483 417.637V400.109H525.196V403.167H525.379C525.698 402.079 526.235 401.257 526.988 400.702C527.741 400.139 528.608 399.858 529.59 399.858C529.833 399.858 530.095 399.873 530.377 399.903C530.658 399.934 530.906 399.976 531.119 400.029V404.342C530.89 404.274 530.575 404.213 530.172 404.16C529.768 404.106 529.399 404.08 529.065 404.08C528.349 404.08 527.71 404.236 527.147 404.548C526.592 404.852 526.151 405.278 525.824 405.826C525.504 406.374 525.344 407.005 525.344 407.72V417.637H520.483ZM539.781 417.979C537.978 417.979 536.426 417.614 535.125 416.884C533.832 416.146 532.835 415.103 532.135 413.757C531.435 412.403 531.085 410.801 531.085 408.953C531.085 407.15 531.435 405.567 532.135 404.205C532.835 402.844 533.82 401.782 535.091 401.022C536.369 400.261 537.867 399.88 539.587 399.88C540.743 399.88 541.82 400.067 542.816 400.44C543.82 400.805 544.695 401.356 545.441 402.094C546.194 402.832 546.78 403.76 547.198 404.879C547.617 405.989 547.826 407.29 547.826 408.781V410.117H533.025V407.104H543.25C543.25 406.404 543.098 405.784 542.793 405.244C542.489 404.704 542.067 404.281 541.527 403.977C540.994 403.665 540.374 403.509 539.667 403.509C538.929 403.509 538.274 403.68 537.704 404.023C537.141 404.358 536.7 404.81 536.38 405.381C536.061 405.944 535.897 406.571 535.889 407.264V410.128C535.889 410.995 536.049 411.745 536.369 412.376C536.696 413.007 537.156 413.494 537.75 413.837C538.343 414.179 539.047 414.35 539.861 414.35C540.401 414.35 540.895 414.274 541.344 414.122C541.793 413.97 542.177 413.742 542.497 413.437C542.816 413.133 543.06 412.76 543.227 412.319L547.723 412.616C547.495 413.696 547.027 414.639 546.32 415.446C545.62 416.245 544.714 416.868 543.604 417.317C542.501 417.758 541.226 417.979 539.781 417.979ZM562.744 400.987C562.653 400.067 562.261 399.352 561.569 398.842C560.877 398.332 559.937 398.077 558.75 398.077C557.944 398.077 557.263 398.192 556.708 398.42C556.152 398.64 555.726 398.949 555.43 399.344C555.14 399.74 554.996 400.189 554.996 400.691C554.981 401.109 555.068 401.474 555.258 401.786C555.456 402.098 555.726 402.368 556.069 402.596C556.411 402.817 556.807 403.011 557.255 403.178C557.704 403.338 558.184 403.475 558.693 403.589L560.793 404.091C561.812 404.32 562.748 404.624 563.6 405.004C564.452 405.385 565.19 405.852 565.814 406.408C566.438 406.963 566.921 407.617 567.263 408.371C567.613 409.124 567.792 409.987 567.8 410.961C567.792 412.391 567.427 413.631 566.704 414.681C565.989 415.723 564.954 416.534 563.6 417.112C562.254 417.682 560.629 417.968 558.727 417.968C556.841 417.968 555.198 417.679 553.798 417.1C552.406 416.522 551.318 415.666 550.534 414.533C549.758 413.392 549.351 411.98 549.313 410.299H554.094C554.148 411.083 554.372 411.737 554.768 412.262C555.171 412.779 555.707 413.171 556.377 413.437C557.054 413.696 557.818 413.825 558.67 413.825C559.507 413.825 560.234 413.704 560.85 413.46C561.474 413.217 561.957 412.878 562.299 412.444C562.642 412.011 562.813 411.513 562.813 410.95C562.813 410.425 562.657 409.983 562.345 409.626C562.041 409.268 561.592 408.964 560.998 408.713C560.413 408.462 559.694 408.234 558.842 408.028L556.297 407.389C554.326 406.91 552.771 406.161 551.63 405.141C550.488 404.122 549.922 402.749 549.929 401.022C549.922 399.607 550.298 398.37 551.059 397.313C551.827 396.255 552.881 395.43 554.22 394.837C555.559 394.243 557.08 393.946 558.785 393.946C560.519 393.946 562.033 394.243 563.326 394.837C564.627 395.43 565.639 396.255 566.362 397.313C567.084 398.37 567.457 399.595 567.48 400.987H562.744ZM577.928 417.979C576.133 417.979 574.588 417.599 573.295 416.838C572.009 416.07 571.02 415.004 570.328 413.643C569.643 412.281 569.301 410.714 569.301 408.941C569.301 407.146 569.647 405.571 570.339 404.217C571.039 402.855 572.032 401.794 573.318 401.033C574.604 400.265 576.133 399.88 577.905 399.88C579.434 399.88 580.773 400.158 581.922 400.713C583.071 401.269 583.98 402.049 584.649 403.053C585.319 404.057 585.688 405.236 585.756 406.59H581.169C581.04 405.716 580.697 405.012 580.142 404.479C579.594 403.939 578.875 403.669 577.985 403.669C577.232 403.669 576.574 403.874 576.011 404.285C575.456 404.688 575.022 405.278 574.71 406.054C574.398 406.83 574.242 407.77 574.242 408.873C574.242 409.991 574.394 410.942 574.699 411.726C575.011 412.509 575.448 413.106 576.011 413.517C576.574 413.928 577.232 414.133 577.985 414.133C578.541 414.133 579.039 414.019 579.48 413.791C579.929 413.563 580.298 413.232 580.587 412.798C580.884 412.357 581.078 411.828 581.169 411.212H585.756C585.68 412.551 585.315 413.73 584.661 414.75C584.014 415.761 583.12 416.553 581.979 417.123C580.838 417.694 579.488 417.979 577.928 417.979ZM595.765 417.979C593.992 417.979 592.459 417.602 591.166 416.849C589.88 416.089 588.888 415.031 588.188 413.677C587.488 412.315 587.138 410.737 587.138 408.941C587.138 407.131 587.488 405.548 588.188 404.194C588.888 402.832 589.88 401.775 591.166 401.022C592.459 400.261 593.992 399.88 595.765 399.88C597.538 399.88 599.067 400.261 600.352 401.022C601.646 401.775 602.642 402.832 603.342 404.194C604.042 405.548 604.392 407.131 604.392 408.941C604.392 410.737 604.042 412.315 603.342 413.677C602.642 415.031 601.646 416.089 600.352 416.849C599.067 417.602 597.538 417.979 595.765 417.979ZM595.788 414.213C596.594 414.213 597.268 413.985 597.808 413.529C598.348 413.065 598.755 412.433 599.029 411.634C599.31 410.835 599.451 409.926 599.451 408.907C599.451 407.888 599.31 406.978 599.029 406.18C598.755 405.381 598.348 404.749 597.808 404.285C597.268 403.821 596.594 403.589 595.788 403.589C594.974 403.589 594.289 403.821 593.734 404.285C593.186 404.749 592.771 405.381 592.49 406.18C592.216 406.978 592.079 407.888 592.079 408.907C592.079 409.926 592.216 410.835 592.49 411.634C592.771 412.433 593.186 413.065 593.734 413.529C594.289 413.985 594.974 414.213 595.788 414.213ZM606.53 417.637V400.109H611.243V403.167H611.425C611.745 402.079 612.281 401.257 613.034 400.702C613.787 400.139 614.655 399.858 615.636 399.858C615.879 399.858 616.142 399.873 616.423 399.903C616.705 399.934 616.952 399.976 617.165 400.029V404.342C616.937 404.274 616.621 404.213 616.218 404.16C615.815 404.106 615.446 404.08 615.111 404.08C614.396 404.08 613.757 404.236 613.194 404.548C612.639 404.852 612.197 405.278 611.87 405.826C611.551 406.374 611.391 407.005 611.391 407.72V417.637H606.53ZM625.827 417.979C624.024 417.979 622.472 417.614 621.171 416.884C619.878 416.146 618.881 415.103 618.182 413.757C617.482 412.403 617.132 410.801 617.132 408.953C617.132 407.15 617.482 405.567 618.182 404.205C618.881 402.844 619.867 401.782 621.137 401.022C622.415 400.261 623.914 399.88 625.633 399.88C626.79 399.88 627.866 400.067 628.863 400.44C629.867 400.805 630.742 401.356 631.487 402.094C632.241 402.832 632.826 403.76 633.245 404.879C633.663 405.989 633.872 407.29 633.872 408.781V410.117H619.072V407.104H629.296C629.296 406.404 629.144 405.784 628.84 405.244C628.536 404.704 628.113 404.281 627.573 403.977C627.041 403.665 626.421 403.509 625.713 403.509C624.975 403.509 624.321 403.68 623.75 404.023C623.187 404.358 622.746 404.81 622.427 405.381C622.107 405.944 621.944 406.571 621.936 407.264V410.128C621.936 410.995 622.096 411.745 622.415 412.376C622.742 413.007 623.203 413.494 623.796 413.837C624.389 414.179 625.093 414.35 625.907 414.35C626.447 414.35 626.942 414.274 627.391 414.122C627.84 413.97 628.224 413.742 628.543 413.437C628.863 413.133 629.106 412.76 629.274 412.319L633.77 412.616C633.541 413.696 633.074 414.639 632.366 415.446C631.666 416.245 630.761 416.868 629.65 417.317C628.547 417.758 627.273 417.979 625.827 417.979Z" fill="white"/>
</g>
<g clip-path="url(#clip4_1_4725)">
<rect x="421.417" y="456.325" width="291.032" height="77.1109" rx="3.73117" fill="#53777A"/>
<path d="M538.107 490.879C538.016 489.958 537.624 489.243 536.932 488.734C536.239 488.224 535.3 487.969 534.113 487.969C533.307 487.969 532.626 488.083 532.07 488.311C531.515 488.532 531.089 488.84 530.792 489.236C530.503 489.631 530.359 490.08 530.359 490.582C530.344 491.001 530.431 491.366 530.621 491.678C530.819 491.99 531.089 492.26 531.431 492.488C531.774 492.709 532.169 492.903 532.618 493.07C533.067 493.23 533.546 493.367 534.056 493.481L536.156 493.983C537.175 494.211 538.111 494.515 538.963 494.896C539.815 495.276 540.553 495.744 541.177 496.299C541.801 496.855 542.284 497.509 542.626 498.262C542.976 499.015 543.155 499.879 543.162 500.853C543.155 502.283 542.79 503.523 542.067 504.573C541.352 505.615 540.317 506.425 538.963 507.003C537.616 507.574 535.992 507.859 534.09 507.859C532.204 507.859 530.56 507.57 529.161 506.992C527.768 506.414 526.68 505.558 525.897 504.424C525.121 503.283 524.714 501.872 524.676 500.191H529.457C529.511 500.974 529.735 501.629 530.131 502.154C530.534 502.671 531.07 503.063 531.74 503.329C532.417 503.588 533.181 503.717 534.033 503.717C534.87 503.717 535.597 503.595 536.213 503.352C536.837 503.108 537.32 502.77 537.662 502.336C538.004 501.902 538.176 501.404 538.176 500.841C538.176 500.316 538.02 499.875 537.708 499.517C537.403 499.16 536.955 498.856 536.361 498.605C535.775 498.353 535.057 498.125 534.204 497.92L531.66 497.281C529.689 496.802 528.134 496.052 526.992 495.033C525.851 494.013 525.284 492.64 525.292 490.913C525.284 489.498 525.661 488.262 526.422 487.204C527.19 486.147 528.244 485.322 529.583 484.728C530.922 484.135 532.443 483.838 534.147 483.838C535.882 483.838 537.396 484.135 538.689 484.728C539.99 485.322 541.002 486.147 541.725 487.204C542.447 488.262 542.82 489.487 542.843 490.879H538.107ZM553.291 507.871C551.496 507.871 549.951 507.49 548.658 506.73C547.372 505.961 546.383 504.896 545.691 503.534C545.006 502.173 544.664 500.605 544.664 498.833C544.664 497.037 545.01 495.463 545.702 494.108C546.402 492.747 547.395 491.685 548.681 490.925C549.966 490.156 551.496 489.772 553.268 489.772C554.797 489.772 556.136 490.05 557.285 490.605C558.434 491.16 559.343 491.94 560.012 492.944C560.682 493.949 561.051 495.128 561.119 496.482H556.532C556.402 495.607 556.06 494.903 555.505 494.371C554.957 493.831 554.238 493.561 553.348 493.561C552.595 493.561 551.937 493.766 551.374 494.177C550.818 494.58 550.385 495.17 550.073 495.946C549.761 496.722 549.605 497.661 549.605 498.764C549.605 499.883 549.757 500.834 550.061 501.617C550.373 502.401 550.811 502.998 551.374 503.409C551.937 503.82 552.595 504.025 553.348 504.025C553.903 504.025 554.402 503.911 554.843 503.683C555.292 503.454 555.661 503.123 555.95 502.69C556.247 502.249 556.441 501.72 556.532 501.104H561.119C561.043 502.443 560.678 503.622 560.024 504.641C559.377 505.653 558.483 506.444 557.342 507.015C556.201 507.585 554.851 507.871 553.291 507.871ZM571.128 507.871C569.355 507.871 567.822 507.494 566.529 506.741C565.243 505.98 564.251 504.923 563.551 503.569C562.851 502.207 562.501 500.628 562.501 498.833C562.501 497.022 562.851 495.44 563.551 494.086C564.251 492.724 565.243 491.666 566.529 490.913C567.822 490.152 569.355 489.772 571.128 489.772C572.9 489.772 574.43 490.152 575.715 490.913C577.009 491.666 578.005 492.724 578.705 494.086C579.405 495.44 579.755 497.022 579.755 498.833C579.755 500.628 579.405 502.207 578.705 503.569C578.005 504.923 577.009 505.98 575.715 506.741C574.43 507.494 572.9 507.871 571.128 507.871ZM571.151 504.105C571.957 504.105 572.63 503.877 573.171 503.42C573.711 502.956 574.118 502.325 574.392 501.526C574.673 500.727 574.814 499.818 574.814 498.799C574.814 497.779 574.673 496.87 574.392 496.071C574.118 495.272 573.711 494.641 573.171 494.177C572.63 493.713 571.957 493.481 571.151 493.481C570.337 493.481 569.652 493.713 569.097 494.177C568.549 494.641 568.134 495.272 567.853 496.071C567.579 496.87 567.442 497.779 567.442 498.799C567.442 499.818 567.579 500.727 567.853 501.526C568.134 502.325 568.549 502.956 569.097 503.42C569.652 503.877 570.337 504.105 571.151 504.105ZM581.893 507.528V490H586.605V493.059H586.788C587.108 491.971 587.644 491.149 588.397 490.594C589.15 490.031 590.018 489.749 590.999 489.749C591.242 489.749 591.505 489.764 591.786 489.795C592.068 489.825 592.315 489.867 592.528 489.92V494.234C592.3 494.165 591.984 494.105 591.581 494.051C591.178 493.998 590.809 493.971 590.474 493.971C589.759 493.971 589.12 494.127 588.557 494.439C588.001 494.744 587.56 495.17 587.233 495.717C586.914 496.265 586.754 496.897 586.754 497.612V507.528H581.893ZM601.19 507.871C599.387 507.871 597.835 507.505 596.534 506.775C595.241 506.037 594.244 504.995 593.544 503.648C592.845 502.294 592.495 500.693 592.495 498.844C592.495 497.041 592.845 495.459 593.544 494.097C594.244 492.735 595.23 491.674 596.5 490.913C597.778 490.152 599.277 489.772 600.996 489.772C602.153 489.772 603.229 489.958 604.226 490.331C605.23 490.696 606.105 491.248 606.85 491.986C607.603 492.724 608.189 493.652 608.608 494.77C609.026 495.881 609.235 497.182 609.235 498.673V500.008H594.435V496.996H604.659C604.659 496.296 604.507 495.676 604.203 495.135C603.898 494.595 603.476 494.173 602.936 493.869C602.404 493.557 601.784 493.401 601.076 493.401C600.338 493.401 599.684 493.572 599.113 493.914C598.55 494.249 598.109 494.702 597.79 495.272C597.47 495.835 597.306 496.463 597.299 497.155V500.02C597.299 500.887 597.459 501.636 597.778 502.268C598.105 502.899 598.565 503.386 599.159 503.728C599.752 504.071 600.456 504.242 601.27 504.242C601.81 504.242 602.305 504.166 602.754 504.014C603.202 503.861 603.587 503.633 603.906 503.329C604.226 503.025 604.469 502.652 604.636 502.211L609.133 502.507C608.904 503.588 608.436 504.531 607.729 505.337C607.029 506.136 606.124 506.76 605.013 507.209C603.91 507.65 602.636 507.871 601.19 507.871Z" fill="white"/>
</g>
<g clip-path="url(#clip5_1_4725)">
<rect x="421.417" y="546.217" width="291.032" height="77.1109" rx="3.73117" fill="#53777A"/>
<path d="M468.282 574.049V597.42H464.014L453.847 582.711H453.675V597.42H448.734V574.049H453.071L463.158 588.747H463.364V574.049H468.282ZM479.169 597.762C477.397 597.762 475.864 597.386 474.571 596.633C473.285 595.872 472.292 594.814 471.592 593.46C470.892 592.098 470.542 590.52 470.542 588.724C470.542 586.914 470.892 585.331 471.592 583.977C472.292 582.615 473.285 581.558 474.571 580.805C475.864 580.044 477.397 579.664 479.169 579.664C480.942 579.664 482.471 580.044 483.757 580.805C485.05 581.558 486.047 582.615 486.747 583.977C487.447 585.331 487.797 586.914 487.797 588.724C487.797 590.52 487.447 592.098 486.747 593.46C486.047 594.814 485.05 595.872 483.757 596.633C482.471 597.386 480.942 597.762 479.169 597.762ZM479.192 593.996C479.999 593.996 480.672 593.768 481.212 593.312C481.752 592.848 482.159 592.216 482.433 591.417C482.715 590.619 482.855 589.71 482.855 588.69C482.855 587.671 482.715 586.762 482.433 585.963C482.159 585.164 481.752 584.533 481.212 584.068C480.672 583.604 479.999 583.372 479.192 583.372C478.378 583.372 477.694 583.604 477.138 584.068C476.59 584.533 476.176 585.164 475.894 585.963C475.62 586.762 475.484 587.671 475.484 588.69C475.484 589.71 475.62 590.619 475.894 591.417C476.176 592.216 476.59 592.848 477.138 593.312C477.694 593.768 478.378 593.996 479.192 593.996ZM489.934 597.42V579.892H494.647V582.95H494.83C495.149 581.862 495.685 581.041 496.439 580.485C497.192 579.922 498.059 579.641 499.04 579.641C499.284 579.641 499.546 579.656 499.828 579.686C500.109 579.717 500.357 579.759 500.57 579.812V584.126C500.341 584.057 500.026 583.996 499.622 583.943C499.219 583.89 498.85 583.863 498.516 583.863C497.8 583.863 497.161 584.019 496.598 584.331C496.043 584.635 495.602 585.061 495.275 585.609C494.955 586.157 494.795 586.788 494.795 587.503V597.42H489.934ZM502.06 597.42V579.892H506.693V582.984H506.898C507.263 581.957 507.872 581.147 508.724 580.554C509.576 579.96 510.595 579.664 511.782 579.664C512.984 579.664 514.007 579.964 514.852 580.565C515.696 581.159 516.259 581.965 516.541 582.984H516.723C517.081 581.98 517.728 581.178 518.663 580.577C519.607 579.968 520.721 579.664 522.007 579.664C523.642 579.664 524.97 580.185 525.989 581.227C527.016 582.262 527.53 583.73 527.53 585.632V597.42H522.68V586.59C522.68 585.617 522.421 584.886 521.904 584.399C521.387 583.913 520.74 583.669 519.964 583.669C519.082 583.669 518.393 583.951 517.899 584.514C517.404 585.069 517.157 585.803 517.157 586.716V597.42H512.444V586.488C512.444 585.628 512.197 584.943 511.702 584.434C511.215 583.924 510.573 583.669 509.774 583.669C509.234 583.669 508.747 583.806 508.313 584.08C507.887 584.346 507.548 584.723 507.297 585.21C507.046 585.689 506.921 586.252 506.921 586.899V597.42H502.06ZM535.345 597.751C534.226 597.751 533.23 597.557 532.355 597.169C531.48 596.773 530.788 596.191 530.278 595.423C529.776 594.647 529.525 593.681 529.525 592.524C529.525 591.551 529.704 590.733 530.061 590.071C530.419 589.409 530.906 588.877 531.522 588.473C532.138 588.07 532.838 587.766 533.622 587.56C534.413 587.355 535.242 587.21 536.109 587.127C537.129 587.02 537.95 586.921 538.574 586.83C539.198 586.731 539.651 586.587 539.932 586.396C540.214 586.206 540.354 585.925 540.354 585.552V585.484C540.354 584.761 540.126 584.202 539.67 583.806C539.221 583.41 538.582 583.213 537.753 583.213C536.878 583.213 536.182 583.407 535.664 583.795C535.147 584.175 534.805 584.654 534.637 585.232L530.141 584.867C530.369 583.802 530.818 582.882 531.488 582.106C532.157 581.322 533.021 580.721 534.078 580.303C535.143 579.877 536.376 579.664 537.775 579.664C538.749 579.664 539.681 579.778 540.571 580.006C541.469 580.234 542.264 580.588 542.956 581.067C543.656 581.547 544.208 582.163 544.611 582.916C545.014 583.661 545.216 584.555 545.216 585.598V597.42H540.606V594.989H540.469C540.187 595.537 539.811 596.02 539.339 596.439C538.867 596.849 538.3 597.173 537.639 597.409C536.977 597.637 536.212 597.751 535.345 597.751ZM536.737 594.396C537.452 594.396 538.084 594.255 538.631 593.974C539.179 593.685 539.609 593.297 539.921 592.81C540.233 592.323 540.389 591.771 540.389 591.155V589.295C540.237 589.394 540.027 589.485 539.761 589.569C539.502 589.645 539.209 589.717 538.882 589.786C538.555 589.846 538.228 589.904 537.901 589.957C537.574 590.002 537.277 590.044 537.011 590.082C536.44 590.166 535.942 590.299 535.516 590.482C535.09 590.664 534.759 590.912 534.523 591.223C534.287 591.528 534.169 591.908 534.169 592.365C534.169 593.026 534.409 593.532 534.888 593.882C535.375 594.225 535.991 594.396 536.737 594.396ZM552.825 574.049V597.42H547.964V574.049H552.825ZM555.696 597.42V579.892H560.557V597.42H555.696ZM558.138 577.632C557.415 577.632 556.795 577.393 556.278 576.913C555.768 576.427 555.513 575.845 555.513 575.168C555.513 574.498 555.768 573.924 556.278 573.444C556.795 572.957 557.415 572.714 558.138 572.714C558.861 572.714 559.477 572.957 559.987 573.444C560.504 573.924 560.763 574.498 560.763 575.168C560.763 575.845 560.504 576.427 559.987 576.913C559.477 577.393 558.861 577.632 558.138 577.632ZM578.012 584.89L573.561 585.164C573.485 584.784 573.322 584.441 573.071 584.137C572.82 583.825 572.489 583.578 572.078 583.395C571.675 583.205 571.192 583.11 570.629 583.11C569.875 583.11 569.24 583.27 568.723 583.589C568.206 583.901 567.947 584.32 567.947 584.844C567.947 585.263 568.114 585.617 568.449 585.906C568.784 586.195 569.358 586.427 570.172 586.602L573.345 587.241C575.049 587.591 576.319 588.154 577.156 588.93C577.993 589.706 578.411 590.725 578.411 591.988C578.411 593.137 578.073 594.145 577.396 595.012C576.726 595.879 575.806 596.556 574.634 597.043C573.47 597.523 572.127 597.762 570.606 597.762C568.285 597.762 566.437 597.279 565.06 596.313C563.69 595.339 562.888 594.015 562.652 592.342L567.433 592.091C567.578 592.798 567.928 593.338 568.483 593.711C569.039 594.076 569.75 594.259 570.617 594.259C571.469 594.259 572.154 594.095 572.671 593.768C573.196 593.434 573.462 593.004 573.47 592.479C573.462 592.038 573.276 591.676 572.911 591.395C572.546 591.106 571.983 590.885 571.222 590.733L568.187 590.128C566.475 589.786 565.201 589.192 564.364 588.348C563.534 587.503 563.12 586.427 563.12 585.118C563.12 583.992 563.424 583.022 564.033 582.208C564.649 581.394 565.512 580.767 566.623 580.326C567.742 579.884 569.05 579.664 570.549 579.664C572.763 579.664 574.505 580.132 575.775 581.067C577.053 582.003 577.799 583.277 578.012 584.89ZM588.437 597.762C586.634 597.762 585.082 597.397 583.781 596.667C582.488 595.929 581.491 594.887 580.791 593.54C580.091 592.186 579.741 590.584 579.741 588.736C579.741 586.933 580.091 585.35 580.791 583.989C581.491 582.627 582.476 581.566 583.747 580.805C585.025 580.044 586.524 579.664 588.243 579.664C589.399 579.664 590.476 579.85 591.472 580.223C592.477 580.588 593.352 581.14 594.097 581.877C594.85 582.615 595.436 583.544 595.854 584.662C596.273 585.773 596.482 587.074 596.482 588.565V589.9H581.681V586.887H591.906C591.906 586.187 591.754 585.567 591.45 585.027C591.145 584.487 590.723 584.065 590.183 583.76C589.65 583.448 589.03 583.292 588.323 583.292C587.585 583.292 586.931 583.464 586.36 583.806C585.797 584.141 585.356 584.593 585.036 585.164C584.717 585.727 584.553 586.355 584.546 587.047V589.911C584.546 590.778 584.705 591.528 585.025 592.159C585.352 592.791 585.812 593.278 586.406 593.62C586.999 593.962 587.703 594.133 588.517 594.133C589.057 594.133 589.552 594.057 590 593.905C590.449 593.753 590.833 593.525 591.153 593.22C591.472 592.916 591.716 592.543 591.883 592.102L596.379 592.399C596.151 593.479 595.683 594.423 594.976 595.229C594.276 596.028 593.371 596.652 592.26 597.1C591.157 597.542 589.882 597.762 588.437 597.762ZM619.629 584.89L615.179 585.164C615.102 584.784 614.939 584.441 614.688 584.137C614.437 583.825 614.106 583.578 613.695 583.395C613.292 583.205 612.809 583.11 612.246 583.11C611.493 583.11 610.857 583.27 610.34 583.589C609.823 583.901 609.564 584.32 609.564 584.844C609.564 585.263 609.731 585.617 610.066 585.906C610.401 586.195 610.975 586.427 611.789 586.602L614.962 587.241C616.666 587.591 617.936 588.154 618.773 588.93C619.61 589.706 620.028 590.725 620.028 591.988C620.028 593.137 619.69 594.145 619.013 595.012C618.343 595.879 617.423 596.556 616.251 597.043C615.087 597.523 613.745 597.762 612.223 597.762C609.903 597.762 608.054 597.279 606.677 596.313C605.308 595.339 604.505 594.015 604.269 592.342L609.051 592.091C609.195 592.798 609.545 593.338 610.1 593.711C610.656 594.076 611.367 594.259 612.234 594.259C613.086 594.259 613.771 594.095 614.288 593.768C614.813 593.434 615.08 593.004 615.087 592.479C615.08 592.038 614.893 591.676 614.528 591.395C614.163 591.106 613.6 590.885 612.839 590.733L609.804 590.128C608.092 589.786 606.818 589.192 605.981 588.348C605.152 587.503 604.737 586.427 604.737 585.118C604.737 583.992 605.041 583.022 605.65 582.208C606.266 581.394 607.13 580.767 608.24 580.326C609.359 579.884 610.667 579.664 612.166 579.664C614.38 579.664 616.122 580.132 617.392 581.067C618.67 582.003 619.416 583.277 619.629 584.89ZM629.986 597.762C628.19 597.762 626.646 597.382 625.353 596.621C624.067 595.853 623.078 594.788 622.386 593.426C621.701 592.064 621.359 590.497 621.359 588.724C621.359 586.929 621.705 585.354 622.397 584C623.097 582.638 624.09 581.577 625.376 580.816C626.661 580.048 628.19 579.664 629.963 579.664C631.492 579.664 632.831 579.941 633.98 580.497C635.129 581.052 636.038 581.832 636.707 582.836C637.377 583.84 637.746 585.019 637.814 586.374H633.227C633.097 585.499 632.755 584.795 632.2 584.262C631.652 583.722 630.933 583.452 630.043 583.452C629.29 583.452 628.632 583.658 628.069 584.068C627.513 584.472 627.08 585.061 626.768 585.837C626.456 586.613 626.3 587.553 626.3 588.656C626.3 589.774 626.452 590.725 626.756 591.509C627.068 592.292 627.506 592.89 628.069 593.3C628.632 593.711 629.29 593.917 630.043 593.917C630.598 593.917 631.096 593.802 631.538 593.574C631.987 593.346 632.356 593.015 632.645 592.581C632.941 592.14 633.135 591.611 633.227 590.995H637.814C637.738 592.334 637.373 593.513 636.719 594.533C636.072 595.545 635.178 596.336 634.037 596.906C632.896 597.477 631.545 597.762 629.986 597.762ZM647.823 597.762C646.05 597.762 644.517 597.386 643.224 596.633C641.938 595.872 640.945 594.814 640.245 593.46C639.546 592.098 639.196 590.52 639.196 588.724C639.196 586.914 639.546 585.331 640.245 583.977C640.945 582.615 641.938 581.558 643.224 580.805C644.517 580.044 646.05 579.664 647.823 579.664C649.595 579.664 651.124 580.044 652.41 580.805C653.703 581.558 654.7 582.615 655.4 583.977C656.1 585.331 656.45 586.914 656.45 588.724C656.45 590.52 656.1 592.098 655.4 593.46C654.7 594.814 653.703 595.872 652.41 596.633C651.124 597.386 649.595 597.762 647.823 597.762ZM647.846 593.996C648.652 593.996 649.325 593.768 649.865 593.312C650.405 592.848 650.813 592.216 651.086 591.417C651.368 590.619 651.509 589.71 651.509 588.69C651.509 587.671 651.368 586.762 651.086 585.963C650.813 585.164 650.405 584.533 649.865 584.068C649.325 583.604 648.652 583.372 647.846 583.372C647.031 583.372 646.347 583.604 645.791 584.068C645.244 584.533 644.829 585.164 644.548 585.963C644.274 586.762 644.137 587.671 644.137 588.69C644.137 589.71 644.274 590.619 644.548 591.417C644.829 592.216 645.244 592.848 645.791 593.312C646.347 593.768 647.031 593.996 647.846 593.996ZM658.587 597.42V579.892H663.3V582.95H663.483C663.802 581.862 664.339 581.041 665.092 580.485C665.845 579.922 666.712 579.641 667.694 579.641C667.937 579.641 668.2 579.656 668.481 579.686C668.763 579.717 669.01 579.759 669.223 579.812V584.126C668.995 584.057 668.679 583.996 668.276 583.943C667.873 583.89 667.504 583.863 667.169 583.863C666.454 583.863 665.815 584.019 665.252 584.331C664.696 584.635 664.255 585.061 663.928 585.609C663.608 586.157 663.449 586.788 663.449 587.503V597.42H658.587ZM677.885 597.762C676.082 597.762 674.53 597.397 673.229 596.667C671.936 595.929 670.939 594.887 670.239 593.54C669.539 592.186 669.189 590.584 669.189 588.736C669.189 586.933 669.539 585.35 670.239 583.989C670.939 582.627 671.924 581.566 673.195 580.805C674.473 580.044 675.972 579.664 677.691 579.664C678.847 579.664 679.924 579.85 680.92 580.223C681.925 580.588 682.8 581.14 683.545 581.877C684.298 582.615 684.884 583.544 685.302 584.662C685.721 585.773 685.93 587.074 685.93 588.565V589.9H671.129V586.887H681.354C681.354 586.187 681.202 585.567 680.898 585.027C680.593 584.487 680.171 584.065 679.631 583.76C679.098 583.448 678.478 583.292 677.771 583.292C677.033 583.292 676.379 583.464 675.808 583.806C675.245 584.141 674.804 584.593 674.484 585.164C674.165 585.727 674.001 586.355 673.994 587.047V589.911C673.994 590.778 674.153 591.528 674.473 592.159C674.8 592.791 675.26 593.278 675.854 593.62C676.447 593.962 677.151 594.133 677.965 594.133C678.505 594.133 678.999 594.057 679.448 593.905C679.897 593.753 680.281 593.525 680.601 593.22C680.92 592.916 681.164 592.543 681.331 592.102L685.827 592.399C685.599 593.479 685.131 594.423 684.424 595.229C683.724 596.028 682.819 596.652 681.708 597.1C680.605 597.542 679.33 597.762 677.885 597.762Z" fill="white"/>
</g>
<g clip-path="url(#clip6_1_4725)">
<rect x="421.417" y="636.108" width="291.032" height="77.1109" rx="3.73117" fill="#53777A"/>
<path d="M531.04 687.312V663.941H546.514V668.015H535.981V673.584H545.487V677.657H535.981V687.312H531.04ZM548.723 687.312V669.783H553.584V687.312H548.723ZM551.165 667.524C550.442 667.524 549.822 667.284 549.305 666.805C548.795 666.318 548.541 665.736 548.541 665.059C548.541 664.39 548.795 663.815 549.305 663.336C549.822 662.849 550.442 662.606 551.165 662.606C551.888 662.606 552.504 662.849 553.014 663.336C553.531 663.815 553.79 664.39 553.79 665.059C553.79 665.736 553.531 666.318 553.014 666.805C552.504 667.284 551.888 667.524 551.165 667.524ZM561.316 663.941V687.312H556.455V663.941H561.316ZM573.51 669.783V673.435H562.955V669.783H573.51ZM565.351 665.584H570.212V681.925C570.212 682.374 570.281 682.724 570.418 682.975C570.555 683.219 570.745 683.39 570.988 683.489C571.24 683.588 571.529 683.637 571.856 683.637C572.084 683.637 572.312 683.618 572.54 683.58C572.769 683.534 572.944 683.5 573.065 683.477L573.83 687.095C573.586 687.171 573.244 687.258 572.803 687.357C572.362 687.464 571.825 687.528 571.194 687.551C570.022 687.597 568.995 687.441 568.113 687.083C567.238 686.726 566.557 686.17 566.07 685.417C565.583 684.664 565.344 683.713 565.351 682.564V665.584ZM583.453 687.654C581.65 687.654 580.098 687.289 578.798 686.558C577.504 685.82 576.508 684.778 575.808 683.432C575.108 682.077 574.758 680.476 574.758 678.627C574.758 676.824 575.108 675.242 575.808 673.88C576.508 672.518 577.493 671.457 578.763 670.696C580.041 669.936 581.54 669.555 583.259 669.555C584.416 669.555 585.492 669.742 586.489 670.114C587.493 670.48 588.368 671.031 589.114 671.769C589.867 672.507 590.452 673.435 590.871 674.553C591.289 675.664 591.499 676.965 591.499 678.456V679.791H576.698V676.779H586.923C586.923 676.079 586.77 675.459 586.466 674.919C586.162 674.379 585.74 673.956 585.199 673.652C584.667 673.34 584.047 673.184 583.339 673.184C582.601 673.184 581.947 673.355 581.377 673.698C580.814 674.032 580.372 674.485 580.053 675.056C579.733 675.619 579.57 676.246 579.562 676.938V679.803C579.562 680.67 579.722 681.419 580.041 682.051C580.369 682.682 580.829 683.169 581.422 683.511C582.016 683.854 582.719 684.025 583.533 684.025C584.073 684.025 584.568 683.949 585.017 683.797C585.466 683.645 585.85 683.416 586.169 683.112C586.489 682.808 586.732 682.435 586.9 681.994L591.396 682.29C591.168 683.371 590.7 684.314 589.992 685.121C589.292 685.919 588.387 686.543 587.276 686.992C586.173 687.433 584.899 687.654 583.453 687.654ZM593.648 687.312V669.783H598.36V672.842H598.543C598.863 671.754 599.399 670.932 600.152 670.377C600.905 669.814 601.773 669.532 602.754 669.532C602.997 669.532 603.26 669.548 603.541 669.578C603.823 669.609 604.07 669.65 604.283 669.704V674.017C604.055 673.949 603.739 673.888 603.336 673.835C602.933 673.781 602.564 673.755 602.229 673.755C601.514 673.755 600.875 673.911 600.312 674.223C599.756 674.527 599.315 674.953 598.988 675.501C598.669 676.048 598.509 676.68 598.509 677.395V687.312H593.648Z" fill="#FEFFFF"/>
</g>
<g clip-path="url(#clip7_1_4725)">
<rect x="421.417" y="726" width="291.032" height="77.1109" rx="3.73117" fill="#53777A"/>
<path d="M549.536 760.554C549.445 759.633 549.053 758.918 548.361 758.408C547.668 757.899 546.729 757.644 545.542 757.644C544.736 757.644 544.055 757.758 543.499 757.986C542.944 758.207 542.518 758.515 542.221 758.911C541.932 759.306 541.788 759.755 541.788 760.257C541.773 760.675 541.86 761.041 542.05 761.353C542.248 761.664 542.518 761.935 542.86 762.163C543.203 762.383 543.598 762.577 544.047 762.745C544.496 762.905 544.975 763.041 545.485 763.156L547.585 763.658C548.604 763.886 549.54 764.19 550.392 764.571C551.244 764.951 551.982 765.419 552.606 765.974C553.23 766.53 553.713 767.184 554.055 767.937C554.405 768.69 554.584 769.554 554.591 770.527C554.584 771.958 554.219 773.198 553.496 774.248C552.781 775.29 551.746 776.1 550.392 776.678C549.045 777.249 547.421 777.534 545.519 777.534C543.633 777.534 541.989 777.245 540.59 776.667C539.197 776.089 538.109 775.233 537.326 774.099C536.55 772.958 536.143 771.547 536.105 769.866H540.886C540.94 770.649 541.164 771.303 541.56 771.828C541.963 772.346 542.499 772.737 543.169 773.004C543.846 773.262 544.61 773.392 545.462 773.392C546.299 773.392 547.026 773.27 547.642 773.027C548.266 772.783 548.749 772.445 549.091 772.011C549.433 771.577 549.605 771.079 549.605 770.516C549.605 769.991 549.449 769.55 549.137 769.192C548.832 768.835 548.384 768.53 547.79 768.279C547.204 768.028 546.485 767.8 545.633 767.595L543.089 766.956C541.118 766.476 539.563 765.727 538.421 764.708C537.28 763.688 536.713 762.315 536.721 760.588C536.713 759.173 537.09 757.937 537.851 756.879C538.619 755.822 539.673 754.996 541.012 754.403C542.351 753.81 543.872 753.513 545.576 753.513C547.311 753.513 548.825 753.81 550.118 754.403C551.419 754.996 552.431 755.822 553.154 756.879C553.876 757.937 554.249 759.162 554.272 760.554H549.536ZM564.72 777.545C562.947 777.545 561.414 777.169 560.121 776.416C558.835 775.655 557.843 774.598 557.143 773.243C556.443 771.882 556.093 770.303 556.093 768.508C556.093 766.697 556.443 765.115 557.143 763.76C557.843 762.399 558.835 761.341 560.121 760.588C561.414 759.827 562.947 759.447 564.72 759.447C566.493 759.447 568.022 759.827 569.307 760.588C570.601 761.341 571.597 762.399 572.297 763.76C572.997 765.115 573.347 766.697 573.347 768.508C573.347 770.303 572.997 771.882 572.297 773.243C571.597 774.598 570.601 775.655 569.307 776.416C568.022 777.169 566.493 777.545 564.72 777.545ZM564.743 773.78C565.549 773.78 566.222 773.551 566.763 773.095C567.303 772.631 567.71 771.999 567.984 771.201C568.265 770.402 568.406 769.493 568.406 768.473C568.406 767.454 568.265 766.545 567.984 765.746C567.71 764.947 567.303 764.316 566.763 763.852C566.222 763.388 565.549 763.156 564.743 763.156C563.929 763.156 563.244 763.388 562.689 763.852C562.141 764.316 561.726 764.947 561.445 765.746C561.171 766.545 561.034 767.454 561.034 768.473C561.034 769.493 561.171 770.402 561.445 771.201C561.726 771.999 562.141 772.631 562.689 773.095C563.244 773.551 563.929 773.78 564.743 773.78ZM575.485 777.203V759.675H580.198V762.733H580.38C580.7 761.645 581.236 760.824 581.989 760.268C582.742 759.706 583.61 759.424 584.591 759.424C584.834 759.424 585.097 759.439 585.378 759.47C585.66 759.5 585.907 759.542 586.12 759.595V763.909C585.892 763.84 585.576 763.779 585.173 763.726C584.77 763.673 584.401 763.646 584.066 763.646C583.351 763.646 582.712 763.802 582.149 764.114C581.594 764.418 581.152 764.844 580.825 765.392C580.506 765.94 580.346 766.571 580.346 767.287V777.203H575.485ZM597.812 759.675V763.327H587.256V759.675H597.812ZM589.653 755.476H594.514V771.817C594.514 772.266 594.583 772.616 594.719 772.867C594.856 773.11 595.047 773.281 595.29 773.38C595.541 773.479 595.83 773.529 596.157 773.529C596.386 773.529 596.614 773.51 596.842 773.472C597.07 773.426 597.245 773.392 597.367 773.369L598.131 776.986C597.888 777.062 597.546 777.15 597.104 777.249C596.663 777.355 596.127 777.42 595.495 777.443C594.324 777.488 593.297 777.332 592.414 776.975C591.539 776.617 590.859 776.062 590.372 775.309C589.885 774.556 589.645 773.605 589.653 772.456V755.476Z" fill="#FEFFFF"/>
</g>
<g clip-path="url(#clip8_1_4725)">
<rect x="421.417" y="187.992" width="291.032" height="166.659" rx="3.73117" fill="#53777A"/>
<path d="M488.29 283.421H480.005V260.051H488.358C490.709 260.051 492.733 260.519 494.429 261.454C496.126 262.382 497.43 263.718 498.343 265.46C499.264 267.202 499.724 269.286 499.724 271.713C499.724 274.148 499.264 276.24 498.343 277.99C497.43 279.739 496.118 281.082 494.406 282.018C492.702 282.954 490.663 283.421 488.29 283.421ZM484.946 279.188H488.084C489.545 279.188 490.774 278.929 491.77 278.412C492.775 277.887 493.528 277.077 494.03 275.981C494.539 274.878 494.794 273.455 494.794 271.713C494.794 269.986 494.539 268.575 494.03 267.48C493.528 266.384 492.778 265.578 491.782 265.06C490.785 264.543 489.556 264.284 488.096 264.284H484.946V279.188ZM510.258 283.764C508.455 283.764 506.903 283.399 505.602 282.668C504.309 281.93 503.312 280.888 502.612 279.541C501.912 278.187 501.562 276.586 501.562 274.737C501.562 272.934 501.912 271.352 502.612 269.99C503.312 268.628 504.297 267.567 505.568 266.806C506.846 266.045 508.344 265.665 510.064 265.665C511.22 265.665 512.297 265.851 513.293 266.224C514.297 266.589 515.172 267.141 515.918 267.879C516.671 268.617 517.257 269.545 517.675 270.663C518.094 271.774 518.303 273.075 518.303 274.566V275.901H503.502V272.889H513.727C513.727 272.189 513.575 271.569 513.27 271.029C512.966 270.488 512.544 270.066 512.004 269.762C511.471 269.45 510.851 269.294 510.144 269.294C509.406 269.294 508.751 269.465 508.181 269.807C507.618 270.142 507.177 270.595 506.857 271.165C506.538 271.728 506.374 272.356 506.366 273.048V275.913C506.366 276.78 506.526 277.529 506.846 278.161C507.173 278.792 507.633 279.279 508.226 279.621C508.82 279.964 509.524 280.135 510.338 280.135C510.878 280.135 511.372 280.059 511.821 279.907C512.27 279.754 512.654 279.526 512.974 279.222C513.293 278.918 513.537 278.545 513.704 278.104L518.2 278.4C517.972 279.481 517.504 280.424 516.796 281.23C516.097 282.029 515.191 282.653 514.081 283.102C512.977 283.543 511.703 283.764 510.258 283.764ZM535.036 270.892L530.585 271.165C530.509 270.785 530.346 270.443 530.094 270.138C529.843 269.827 529.513 269.579 529.102 269.397C528.698 269.206 528.215 269.111 527.652 269.111C526.899 269.111 526.264 269.271 525.747 269.591C525.229 269.903 524.971 270.321 524.971 270.846C524.971 271.264 525.138 271.618 525.473 271.907C525.808 272.196 526.382 272.428 527.196 272.603L530.368 273.242C532.072 273.592 533.343 274.155 534.18 274.931C535.017 275.707 535.435 276.727 535.435 277.99C535.435 279.138 535.097 280.146 534.419 281.014C533.75 281.881 532.829 282.558 531.658 283.045C530.494 283.524 529.151 283.764 527.63 283.764C525.309 283.764 523.461 283.281 522.084 282.314C520.714 281.341 519.912 280.017 519.676 278.343L524.457 278.092C524.602 278.8 524.952 279.34 525.507 279.713C526.062 280.078 526.774 280.26 527.641 280.26C528.493 280.26 529.178 280.097 529.695 279.77C530.22 279.435 530.486 279.005 530.494 278.48C530.486 278.039 530.3 277.678 529.935 277.396C529.57 277.107 529.007 276.886 528.246 276.734L525.21 276.129C523.499 275.787 522.224 275.194 521.388 274.349C520.558 273.505 520.144 272.428 520.144 271.12C520.144 269.994 520.448 269.024 521.057 268.21C521.673 267.396 522.536 266.768 523.647 266.327C524.765 265.886 526.074 265.665 527.573 265.665C529.786 265.665 531.529 266.133 532.799 267.069C534.077 268.004 534.823 269.279 535.036 270.892ZM545.392 283.764C543.597 283.764 542.053 283.383 540.759 282.623C539.474 281.854 538.485 280.789 537.792 279.427C537.108 278.066 536.765 276.498 536.765 274.726C536.765 272.93 537.111 271.356 537.804 270.001C538.504 268.64 539.496 267.578 540.782 266.818C542.068 266.049 543.597 265.665 545.37 265.665C546.899 265.665 548.238 265.943 549.386 266.498C550.535 267.054 551.444 267.833 552.114 268.838C552.783 269.842 553.152 271.021 553.221 272.375H548.633C548.504 271.5 548.162 270.796 547.606 270.264C547.058 269.724 546.34 269.454 545.449 269.454C544.696 269.454 544.038 269.659 543.475 270.07C542.92 270.473 542.486 271.063 542.174 271.839C541.862 272.615 541.706 273.554 541.706 274.657C541.706 275.776 541.859 276.727 542.163 277.51C542.475 278.294 542.912 278.891 543.475 279.302C544.038 279.713 544.696 279.918 545.449 279.918C546.005 279.918 546.503 279.804 546.944 279.576C547.393 279.347 547.762 279.017 548.051 278.583C548.348 278.142 548.542 277.613 548.633 276.997H553.221C553.145 278.336 552.779 279.515 552.125 280.534C551.478 281.546 550.585 282.337 549.443 282.908C548.302 283.478 546.952 283.764 545.392 283.764ZM560.171 273.288V283.421H555.31V260.051H560.034V268.986H560.239C560.635 267.951 561.274 267.141 562.157 266.555C563.039 265.962 564.146 265.665 565.477 265.665C566.695 265.665 567.756 265.931 568.661 266.464C569.574 266.989 570.282 267.746 570.784 268.735C571.293 269.716 571.544 270.892 571.537 272.261V283.421H566.676V273.128C566.683 272.048 566.409 271.207 565.854 270.606C565.306 270.005 564.538 269.705 563.549 269.705C562.887 269.705 562.301 269.846 561.791 270.127C561.289 270.408 560.894 270.819 560.605 271.359C560.323 271.892 560.179 272.535 560.171 273.288ZM582.327 283.764C580.524 283.764 578.972 283.399 577.671 282.668C576.378 281.93 575.381 280.888 574.682 279.541C573.982 278.187 573.632 276.586 573.632 274.737C573.632 272.934 573.982 271.352 574.682 269.99C575.381 268.628 576.367 267.567 577.637 266.806C578.915 266.045 580.414 265.665 582.133 265.665C583.29 265.665 584.366 265.851 585.363 266.224C586.367 266.589 587.242 267.141 587.987 267.879C588.74 268.617 589.326 269.545 589.745 270.663C590.163 271.774 590.372 273.075 590.372 274.566V275.901H575.572V272.889H585.796C585.796 272.189 585.644 271.569 585.34 271.029C585.036 270.488 584.613 270.066 584.073 269.762C583.541 269.45 582.921 269.294 582.213 269.294C581.475 269.294 580.821 269.465 580.25 269.807C579.687 270.142 579.246 270.595 578.927 271.165C578.607 271.728 578.444 272.356 578.436 273.048V275.913C578.436 276.78 578.596 277.529 578.915 278.161C579.242 278.792 579.703 279.279 580.296 279.621C580.889 279.964 581.593 280.135 582.407 280.135C582.947 280.135 583.442 280.059 583.891 279.907C584.339 279.754 584.724 279.526 585.043 279.222C585.363 278.918 585.606 278.545 585.773 278.104L590.27 278.4C590.041 279.481 589.574 280.424 588.866 281.23C588.166 282.029 587.261 282.653 586.15 283.102C585.047 283.543 583.773 283.764 582.327 283.764ZM598.98 283.707C597.649 283.707 596.443 283.364 595.363 282.68C594.29 281.987 593.438 280.972 592.807 279.633C592.183 278.286 591.871 276.635 591.871 274.68C591.871 272.672 592.194 271.002 592.841 269.671C593.487 268.332 594.347 267.331 595.42 266.669C596.5 266 597.683 265.665 598.969 265.665C599.95 265.665 600.768 265.832 601.422 266.167C602.084 266.494 602.617 266.905 603.02 267.4C603.431 267.887 603.743 268.366 603.956 268.838H604.104V260.051H608.954V283.421H604.161V280.614H603.956C603.727 281.101 603.404 281.584 602.986 282.063C602.575 282.535 602.038 282.927 601.377 283.239C600.722 283.551 599.924 283.707 598.98 283.707ZM600.521 279.838C601.304 279.838 601.966 279.625 602.506 279.199C603.054 278.765 603.473 278.161 603.762 277.385C604.058 276.609 604.207 275.7 604.207 274.657C604.207 273.615 604.062 272.71 603.773 271.941C603.484 271.173 603.066 270.58 602.518 270.161C601.97 269.743 601.304 269.534 600.521 269.534C599.722 269.534 599.049 269.75 598.501 270.184C597.953 270.618 597.539 271.219 597.257 271.987C596.976 272.755 596.835 273.646 596.835 274.657C596.835 275.677 596.976 276.578 597.257 277.362C597.546 278.138 597.961 278.746 598.501 279.188C599.049 279.621 599.722 279.838 600.521 279.838ZM623.168 275.958V265.893H628.029V283.421H623.362V280.238H623.179C622.783 281.265 622.125 282.09 621.205 282.714C620.292 283.338 619.177 283.65 617.861 283.65C616.69 283.65 615.659 283.383 614.769 282.851C613.879 282.318 613.183 281.561 612.68 280.58C612.186 279.599 611.935 278.423 611.927 277.054V265.893H616.789V276.187C616.796 277.221 617.074 278.039 617.622 278.64C618.169 279.241 618.904 279.541 619.824 279.541C620.41 279.541 620.958 279.408 621.467 279.142C621.977 278.868 622.388 278.465 622.7 277.932C623.019 277.4 623.175 276.742 623.168 275.958ZM635.755 260.051V283.421H630.894V260.051H635.755ZM646.614 283.764C644.811 283.764 643.259 283.399 641.958 282.668C640.665 281.93 639.668 280.888 638.968 279.541C638.268 278.187 637.919 276.586 637.919 274.737C637.919 272.934 638.268 271.352 638.968 269.99C639.668 268.628 640.653 267.567 641.924 266.806C643.202 266.045 644.701 265.665 646.42 265.665C647.576 265.665 648.653 265.851 649.65 266.224C650.654 266.589 651.529 267.141 652.274 267.879C653.027 268.617 653.613 269.545 654.032 270.663C654.45 271.774 654.659 273.075 654.659 274.566V275.901H639.858V272.889H650.083C650.083 272.189 649.931 271.569 649.627 271.029C649.322 270.488 648.9 270.066 648.36 269.762C647.828 269.45 647.207 269.294 646.5 269.294C645.762 269.294 645.108 269.465 644.537 269.807C643.974 270.142 643.533 270.595 643.213 271.165C642.894 271.728 642.73 272.356 642.723 273.048V275.913C642.723 276.78 642.883 277.529 643.202 278.161C643.529 278.792 643.989 279.279 644.583 279.621C645.176 279.964 645.88 280.135 646.694 280.135C647.234 280.135 647.729 280.059 648.177 279.907C648.626 279.754 649.011 279.526 649.33 279.222C649.65 278.918 649.893 278.545 650.06 278.104L654.556 278.4C654.328 279.481 653.86 280.424 653.153 281.23C652.453 282.029 651.548 282.653 650.437 283.102C649.334 283.543 648.06 283.764 646.614 283.764Z" fill="white"/>
</g>
<g clip-path="url(#clip9_1_4725)">
<rect x="421.417" y="366.434" width="291.032" height="256.207" rx="3.73117" fill="#53777A"/>
<path d="M509.365 506.637V483.266H518.723C520.442 483.266 521.876 483.521 523.025 484.031C524.173 484.541 525.037 485.248 525.615 486.154C526.193 487.051 526.482 488.086 526.482 489.258C526.482 490.17 526.3 490.973 525.935 491.665C525.569 492.35 525.067 492.913 524.428 493.354C523.797 493.788 523.074 494.096 522.26 494.279V494.507C523.15 494.545 523.983 494.796 524.759 495.26C525.543 495.724 526.178 496.374 526.665 497.211C527.152 498.041 527.395 499.03 527.395 500.178C527.395 501.418 527.087 502.525 526.471 503.499C525.862 504.465 524.961 505.23 523.766 505.793C522.572 506.356 521.1 506.637 519.35 506.637H509.365ZM514.306 502.598H518.335C519.712 502.598 520.716 502.335 521.347 501.81C521.979 501.278 522.294 500.57 522.294 499.688C522.294 499.041 522.138 498.47 521.826 497.976C521.515 497.481 521.07 497.093 520.491 496.812C519.921 496.53 519.24 496.39 518.449 496.39H514.306V502.598ZM514.306 493.046H517.969C518.646 493.046 519.247 492.928 519.772 492.692C520.305 492.449 520.723 492.107 521.028 491.665C521.34 491.224 521.496 490.695 521.496 490.079C521.496 489.235 521.195 488.554 520.594 488.036C520.001 487.519 519.156 487.26 518.061 487.26H514.306V493.046ZM534.494 506.968C533.376 506.968 532.379 506.774 531.504 506.386C530.629 505.991 529.937 505.409 529.427 504.64C528.925 503.864 528.674 502.898 528.674 501.742C528.674 500.768 528.853 499.95 529.21 499.288C529.568 498.626 530.055 498.094 530.671 497.691C531.287 497.287 531.987 496.983 532.771 496.778C533.562 496.572 534.391 496.428 535.259 496.344C536.278 496.238 537.1 496.139 537.723 496.047C538.347 495.948 538.8 495.804 539.081 495.614C539.363 495.424 539.504 495.142 539.504 494.769V494.701C539.504 493.978 539.275 493.419 538.819 493.023C538.37 492.628 537.731 492.43 536.902 492.43C536.027 492.43 535.331 492.624 534.814 493.012C534.296 493.392 533.954 493.872 533.786 494.45L529.29 494.085C529.519 493.019 529.967 492.099 530.637 491.323C531.306 490.539 532.17 489.938 533.227 489.52C534.292 489.094 535.525 488.881 536.925 488.881C537.898 488.881 538.83 488.995 539.72 489.223C540.618 489.452 541.413 489.805 542.105 490.285C542.805 490.764 543.357 491.38 543.76 492.133C544.163 492.879 544.365 493.773 544.365 494.815V506.637H539.755V504.207H539.618C539.336 504.754 538.96 505.237 538.488 505.656C538.016 506.067 537.45 506.39 536.788 506.626C536.126 506.854 535.361 506.968 534.494 506.968ZM535.886 503.613C536.601 503.613 537.233 503.472 537.781 503.191C538.328 502.902 538.758 502.514 539.07 502.027C539.382 501.54 539.538 500.989 539.538 500.372V498.512C539.386 498.611 539.177 498.702 538.91 498.786C538.652 498.862 538.359 498.934 538.032 499.003C537.704 499.064 537.377 499.121 537.05 499.174C536.723 499.22 536.426 499.262 536.16 499.3C535.59 499.383 535.091 499.516 534.665 499.699C534.239 499.882 533.908 500.129 533.672 500.441C533.437 500.745 533.319 501.125 533.319 501.582C533.319 502.244 533.558 502.75 534.038 503.1C534.524 503.442 535.141 503.613 535.886 503.613ZM551.974 483.266V506.637H547.113V483.266H551.974ZM559.843 506.968C558.725 506.968 557.728 506.774 556.854 506.386C555.979 505.991 555.286 505.409 554.777 504.64C554.275 503.864 554.023 502.898 554.023 501.742C554.023 500.768 554.202 499.95 554.56 499.288C554.917 498.626 555.404 498.094 556.02 497.691C556.637 497.287 557.337 496.983 558.12 496.778C558.911 496.572 559.741 496.428 560.608 496.344C561.627 496.238 562.449 496.139 563.073 496.047C563.697 495.948 564.149 495.804 564.431 495.614C564.712 495.424 564.853 495.142 564.853 494.769V494.701C564.853 493.978 564.625 493.419 564.168 493.023C563.719 492.628 563.08 492.43 562.251 492.43C561.376 492.43 560.68 492.624 560.163 493.012C559.646 493.392 559.303 493.872 559.136 494.45L554.64 494.085C554.868 493.019 555.317 492.099 555.986 491.323C556.656 490.539 557.519 489.938 558.577 489.52C559.642 489.094 560.874 488.881 562.274 488.881C563.248 488.881 564.18 488.995 565.07 489.223C565.968 489.452 566.763 489.805 567.455 490.285C568.155 490.764 568.706 491.38 569.109 492.133C569.513 492.879 569.714 493.773 569.714 494.815V506.637H565.104V504.207H564.967C564.686 504.754 564.309 505.237 563.837 505.656C563.366 506.067 562.799 506.39 562.137 506.626C561.475 506.854 560.711 506.968 559.843 506.968ZM561.236 503.613C561.951 503.613 562.582 503.472 563.13 503.191C563.678 502.902 564.107 502.514 564.419 502.027C564.731 501.54 564.887 500.989 564.887 500.372V498.512C564.735 498.611 564.526 498.702 564.26 498.786C564.001 498.862 563.708 498.934 563.381 499.003C563.054 499.064 562.727 499.121 562.4 499.174C562.072 499.22 561.776 499.262 561.509 499.3C560.939 499.383 560.441 499.516 560.015 499.699C559.588 499.882 559.258 500.129 559.022 500.441C558.786 500.745 558.668 501.125 558.668 501.582C558.668 502.244 558.908 502.75 559.387 503.1C559.874 503.442 560.49 503.613 561.236 503.613ZM577.324 496.504V506.637H572.462V489.109H577.095V492.202H577.301C577.689 491.182 578.339 490.376 579.252 489.782C580.165 489.181 581.272 488.881 582.573 488.881C583.79 488.881 584.851 489.147 585.757 489.68C586.662 490.212 587.366 490.973 587.868 491.962C588.37 492.943 588.621 494.115 588.621 495.477V506.637H583.76V496.344C583.767 495.271 583.493 494.435 582.938 493.834C582.383 493.225 581.618 492.921 580.644 492.921C579.99 492.921 579.412 493.061 578.91 493.343C578.415 493.624 578.027 494.035 577.746 494.575C577.472 495.108 577.331 495.751 577.324 496.504ZM599.349 506.98C597.553 506.98 596.009 506.599 594.716 505.838C593.43 505.07 592.441 504.005 591.749 502.643C591.064 501.281 590.722 499.714 590.722 497.942C590.722 496.146 591.068 494.571 591.76 493.217C592.46 491.856 593.453 490.794 594.738 490.033C596.024 489.265 597.553 488.881 599.326 488.881C600.855 488.881 602.194 489.159 603.343 489.714C604.491 490.269 605.401 491.049 606.07 492.053C606.739 493.058 607.108 494.237 607.177 495.591H602.589C602.46 494.716 602.118 494.012 601.562 493.48C601.015 492.94 600.296 492.67 599.406 492.67C598.653 492.67 597.994 492.875 597.431 493.286C596.876 493.689 596.442 494.279 596.131 495.055C595.819 495.831 595.663 496.77 595.663 497.873C595.663 498.992 595.815 499.942 596.119 500.726C596.431 501.51 596.869 502.107 597.431 502.518C597.994 502.928 598.653 503.134 599.406 503.134C599.961 503.134 600.459 503.02 600.901 502.792C601.349 502.563 601.718 502.232 602.007 501.799C602.304 501.357 602.498 500.829 602.589 500.213H607.177C607.101 501.551 606.736 502.731 606.081 503.75C605.435 504.762 604.541 505.553 603.4 506.124C602.259 506.694 600.908 506.98 599.349 506.98ZM617.254 506.98C615.451 506.98 613.899 506.614 612.598 505.884C611.305 505.146 610.308 504.104 609.608 502.757C608.908 501.403 608.558 499.802 608.558 497.953C608.558 496.15 608.908 494.568 609.608 493.206C610.308 491.844 611.293 490.783 612.564 490.022C613.842 489.261 615.341 488.881 617.06 488.881C618.216 488.881 619.293 489.067 620.289 489.44C621.294 489.805 622.169 490.357 622.914 491.095C623.667 491.833 624.253 492.761 624.671 493.879C625.09 494.99 625.299 496.291 625.299 497.782V499.117H610.498V496.104H620.723C620.723 495.404 620.571 494.784 620.267 494.244C619.962 493.704 619.54 493.282 619 492.978C618.467 492.666 617.847 492.51 617.14 492.51C616.402 492.51 615.748 492.681 615.177 493.023C614.614 493.358 614.173 493.811 613.853 494.381C613.534 494.944 613.37 495.572 613.363 496.264V499.128C613.363 499.996 613.522 500.745 613.842 501.377C614.169 502.008 614.629 502.495 615.223 502.837C615.816 503.18 616.52 503.351 617.334 503.351C617.874 503.351 618.369 503.275 618.817 503.122C619.266 502.97 619.65 502.742 619.97 502.438C620.289 502.133 620.533 501.761 620.7 501.319L625.196 501.616C624.968 502.696 624.5 503.64 623.793 504.446C623.093 505.245 622.188 505.869 621.077 506.318C619.974 506.759 618.699 506.98 617.254 506.98Z" fill="white"/>
</g>
<path d="M877.848 483V465.581H889.585V468.617H881.531V472.768H888.981V475.804H881.531V479.964H889.619V483H877.848ZM894.71 469.936L897.109 474.503L899.567 469.936H903.284L899.499 476.468L903.386 483H899.686L897.109 478.484L894.574 483H890.832L894.71 476.468L890.968 469.936H894.71ZM911.622 469.936V472.657H903.754V469.936H911.622ZM905.54 466.806H909.164V478.985C909.164 479.32 909.215 479.581 909.317 479.768C909.419 479.949 909.561 480.077 909.742 480.151C909.929 480.224 910.145 480.261 910.389 480.261C910.559 480.261 910.729 480.247 910.899 480.219C911.069 480.185 911.199 480.159 911.29 480.142L911.86 482.838C911.679 482.895 911.423 482.96 911.095 483.034C910.766 483.113 910.366 483.162 909.895 483.179C909.022 483.213 908.257 483.096 907.599 482.83C906.947 482.563 906.439 482.149 906.076 481.588C905.713 481.027 905.535 480.318 905.54 479.462V466.806ZM919.033 483.255C917.689 483.255 916.532 482.983 915.563 482.439C914.599 481.889 913.856 481.112 913.334 480.108C912.813 479.099 912.552 477.905 912.552 476.527C912.552 475.183 912.813 474.004 913.334 472.989C913.856 471.974 914.59 471.183 915.537 470.616C916.49 470.049 917.607 469.766 918.888 469.766C919.75 469.766 920.552 469.904 921.295 470.182C922.044 470.454 922.696 470.866 923.252 471.416C923.813 471.966 924.25 472.657 924.561 473.491C924.873 474.319 925.029 475.288 925.029 476.4V477.395H913.998V475.149H921.618C921.618 474.628 921.505 474.166 921.278 473.763C921.051 473.36 920.737 473.046 920.334 472.819C919.937 472.586 919.475 472.47 918.948 472.47C918.398 472.47 917.91 472.598 917.485 472.853C917.065 473.102 916.736 473.44 916.498 473.865C916.26 474.285 916.138 474.753 916.132 475.269V477.403C916.132 478.05 916.252 478.608 916.49 479.079C916.734 479.55 917.077 479.913 917.519 480.168C917.961 480.423 918.486 480.55 919.092 480.55C919.495 480.55 919.864 480.494 920.198 480.38C920.533 480.267 920.819 480.097 921.057 479.87C921.295 479.643 921.477 479.365 921.601 479.036L924.953 479.258C924.783 480.063 924.434 480.766 923.906 481.367C923.385 481.962 922.71 482.427 921.882 482.762C921.06 483.091 920.11 483.255 919.033 483.255ZM930.254 475.447V483H926.631V469.936H930.084V472.241H930.237C930.526 471.481 931.011 470.88 931.692 470.437C932.372 469.989 933.197 469.766 934.167 469.766C935.074 469.766 935.865 469.964 936.54 470.361C937.215 470.758 937.739 471.325 938.113 472.062C938.488 472.793 938.675 473.667 938.675 474.682V483H935.051V475.328C935.057 474.529 934.853 473.905 934.439 473.457C934.025 473.003 933.455 472.776 932.729 472.776C932.242 472.776 931.811 472.881 931.436 473.091C931.068 473.301 930.779 473.607 930.569 474.01C930.365 474.407 930.26 474.886 930.254 475.447ZM951.638 473.661L948.32 473.865C948.264 473.582 948.142 473.326 947.955 473.1C947.768 472.867 947.521 472.683 947.215 472.547C946.914 472.405 946.554 472.334 946.135 472.334C945.573 472.334 945.1 472.453 944.714 472.691C944.329 472.924 944.136 473.236 944.136 473.627C944.136 473.939 944.26 474.203 944.51 474.418C944.759 474.633 945.188 474.806 945.794 474.937L948.159 475.413C949.429 475.674 950.376 476.094 951 476.672C951.623 477.25 951.935 478.01 951.935 478.951C951.935 479.808 951.683 480.559 951.178 481.205C950.679 481.852 949.993 482.356 949.12 482.719C948.252 483.077 947.252 483.255 946.118 483.255C944.388 483.255 943.01 482.895 941.984 482.175C940.963 481.449 940.365 480.463 940.189 479.215L943.753 479.028C943.861 479.555 944.122 479.958 944.535 480.236C944.949 480.508 945.48 480.644 946.126 480.644C946.761 480.644 947.271 480.522 947.657 480.278C948.048 480.029 948.247 479.708 948.252 479.317C948.247 478.988 948.108 478.719 947.836 478.509C947.563 478.294 947.144 478.129 946.577 478.016L944.314 477.565C943.039 477.31 942.089 476.868 941.465 476.238C940.847 475.609 940.538 474.806 940.538 473.831C940.538 472.992 940.765 472.269 941.218 471.662C941.678 471.056 942.321 470.588 943.149 470.259C943.983 469.93 944.958 469.766 946.075 469.766C947.725 469.766 949.024 470.114 949.97 470.812C950.923 471.509 951.479 472.459 951.638 473.661ZM953.454 483V469.936H957.077V483H953.454ZM955.274 468.252C954.736 468.252 954.273 468.073 953.888 467.716C953.508 467.353 953.318 466.919 953.318 466.414C953.318 465.915 953.508 465.487 953.888 465.13C954.273 464.767 954.736 464.586 955.274 464.586C955.813 464.586 956.272 464.767 956.652 465.13C957.038 465.487 957.23 465.915 957.23 466.414C957.23 466.919 957.038 467.353 956.652 467.716C956.272 468.073 955.813 468.252 955.274 468.252ZM965.12 483.255C963.799 483.255 962.656 482.974 961.692 482.413C960.734 481.846 959.994 481.058 959.472 480.049C958.951 479.034 958.69 477.857 958.69 476.519C958.69 475.169 958.951 473.99 959.472 472.981C959.994 471.966 960.734 471.177 961.692 470.616C962.656 470.049 963.799 469.766 965.12 469.766C966.441 469.766 967.581 470.049 968.539 470.616C969.503 471.177 970.246 471.966 970.767 472.981C971.289 473.99 971.55 475.169 971.55 476.519C971.55 477.857 971.289 479.034 970.767 480.049C970.246 481.058 969.503 481.846 968.539 482.413C967.581 482.974 966.441 483.255 965.12 483.255ZM965.137 480.448C965.738 480.448 966.24 480.278 966.642 479.938C967.045 479.592 967.348 479.122 967.552 478.526C967.762 477.931 967.867 477.253 967.867 476.493C967.867 475.734 967.762 475.056 967.552 474.461C967.348 473.865 967.045 473.395 966.642 473.049C966.24 472.703 965.738 472.53 965.137 472.53C964.53 472.53 964.02 472.703 963.606 473.049C963.198 473.395 962.889 473.865 962.679 474.461C962.475 475.056 962.373 475.734 962.373 476.493C962.373 477.253 962.475 477.931 962.679 478.526C962.889 479.122 963.198 479.592 963.606 479.938C964.02 480.278 964.53 480.448 965.137 480.448ZM976.767 475.447V483H973.143V469.936H976.596V472.241H976.75C977.039 471.481 977.524 470.88 978.204 470.437C978.884 469.989 979.709 469.766 980.679 469.766C981.586 469.766 982.377 469.964 983.052 470.361C983.727 470.758 984.251 471.325 984.626 472.062C985 472.793 985.187 473.667 985.187 474.682V483H981.564V475.328C981.569 474.529 981.365 473.905 980.951 473.457C980.537 473.003 979.967 472.776 979.242 472.776C978.754 472.776 978.323 472.881 977.949 473.091C977.58 473.301 977.291 473.607 977.081 474.01C976.877 474.407 976.772 474.886 976.767 475.447ZM992.061 487.899V469.936H995.633V472.13H995.794C995.953 471.778 996.183 471.421 996.483 471.058C996.79 470.69 997.186 470.384 997.674 470.14C998.167 469.89 998.78 469.766 999.511 469.766C1000.46 469.766 1001.34 470.015 1002.15 470.514C1002.95 471.007 1003.6 471.753 1004.08 472.751C1004.56 473.743 1004.8 474.988 1004.8 476.485C1004.8 477.942 1004.57 479.173 1004.1 480.176C1003.63 481.174 1003 481.931 1002.19 482.447C1001.39 482.957 1000.5 483.213 999.503 483.213C998.8 483.213 998.201 483.096 997.708 482.864C997.22 482.631 996.821 482.339 996.509 481.988C996.197 481.631 995.959 481.271 995.794 480.908H995.684V487.899H992.061ZM995.607 476.468C995.607 477.245 995.715 477.922 995.93 478.501C996.146 479.079 996.458 479.53 996.866 479.853C997.274 480.171 997.771 480.329 998.355 480.329C998.944 480.329 999.443 480.168 999.852 479.844C1000.26 479.516 1000.57 479.062 1000.78 478.484C1000.99 477.9 1001.1 477.228 1001.1 476.468C1001.1 475.714 1001 475.05 1000.79 474.478C1000.58 473.905 1000.27 473.457 999.86 473.134C999.452 472.81 998.95 472.649 998.355 472.649C997.765 472.649 997.266 472.805 996.858 473.117C996.455 473.429 996.146 473.871 995.93 474.444C995.715 475.016 995.607 475.691 995.607 476.468ZM1012.36 483.255C1011.04 483.255 1009.89 482.974 1008.93 482.413C1007.97 481.846 1007.23 481.058 1006.71 480.049C1006.19 479.034 1005.93 477.857 1005.93 476.519C1005.93 475.169 1006.19 473.99 1006.71 472.981C1007.23 471.966 1007.97 471.177 1008.93 470.616C1009.89 470.049 1011.04 469.766 1012.36 469.766C1013.68 469.766 1014.82 470.049 1015.78 470.616C1016.74 471.177 1017.48 471.966 1018 472.981C1018.53 473.99 1018.79 475.169 1018.79 476.519C1018.79 477.857 1018.53 479.034 1018 480.049C1017.48 481.058 1016.74 481.846 1015.78 482.413C1014.82 482.974 1013.68 483.255 1012.36 483.255ZM1012.37 480.448C1012.98 480.448 1013.48 480.278 1013.88 479.938C1014.28 479.592 1014.59 479.122 1014.79 478.526C1015 477.931 1015.1 477.253 1015.1 476.493C1015.1 475.734 1015 475.056 1014.79 474.461C1014.59 473.865 1014.28 473.395 1013.88 473.049C1013.48 472.703 1012.98 472.53 1012.37 472.53C1011.77 472.53 1011.26 472.703 1010.84 473.049C1010.43 473.395 1010.13 473.865 1009.92 474.461C1009.71 475.056 1009.61 475.734 1009.61 476.493C1009.61 477.253 1009.71 477.931 1009.92 478.526C1010.13 479.122 1010.43 479.592 1010.84 479.938C1011.26 480.278 1011.77 480.448 1012.37 480.448ZM1020.38 483V469.936H1024V483H1020.38ZM1022.2 468.252C1021.66 468.252 1021.2 468.073 1020.81 467.716C1020.43 467.353 1020.24 466.919 1020.24 466.414C1020.24 465.915 1020.43 465.487 1020.81 465.13C1021.2 464.767 1021.66 464.586 1022.2 464.586C1022.74 464.586 1023.2 464.767 1023.58 465.13C1023.96 465.487 1024.16 465.915 1024.16 466.414C1024.16 466.919 1023.96 467.353 1023.58 467.716C1023.2 468.073 1022.74 468.252 1022.2 468.252ZM1029.77 475.447V483H1026.14V469.936H1029.6V472.241H1029.75C1030.04 471.481 1030.52 470.88 1031.2 470.437C1031.88 469.989 1032.71 469.766 1033.68 469.766C1034.59 469.766 1035.38 469.964 1036.05 470.361C1036.73 470.758 1037.25 471.325 1037.63 472.062C1038 472.793 1038.19 473.667 1038.19 474.682V483H1034.56V475.328C1034.57 474.529 1034.37 473.905 1033.95 473.457C1033.54 473.003 1032.97 472.776 1032.24 472.776C1031.75 472.776 1031.32 472.881 1030.95 473.091C1030.58 473.301 1030.29 473.607 1030.08 474.01C1029.88 474.407 1029.77 474.886 1029.77 475.447ZM1047.23 469.936V472.657H1039.36V469.936H1047.23ZM1041.15 466.806H1044.77V478.985C1044.77 479.32 1044.82 479.581 1044.92 479.768C1045.03 479.949 1045.17 480.077 1045.35 480.151C1045.54 480.224 1045.75 480.261 1046 480.261C1046.17 480.261 1046.34 480.247 1046.51 480.219C1046.68 480.185 1046.81 480.159 1046.9 480.142L1047.47 482.838C1047.29 482.895 1047.03 482.96 1046.7 483.034C1046.37 483.113 1045.97 483.162 1045.5 483.179C1044.63 483.213 1043.86 483.096 1043.21 482.83C1042.55 482.563 1042.05 482.149 1041.68 481.588C1041.32 481.027 1041.14 480.318 1041.15 479.462V466.806ZM1059.53 473.661L1056.22 473.865C1056.16 473.582 1056.04 473.326 1055.85 473.1C1055.66 472.867 1055.42 472.683 1055.11 472.547C1054.81 472.405 1054.45 472.334 1054.03 472.334C1053.47 472.334 1053 472.453 1052.61 472.691C1052.22 472.924 1052.03 473.236 1052.03 473.627C1052.03 473.939 1052.16 474.203 1052.41 474.418C1052.65 474.633 1053.08 474.806 1053.69 474.937L1056.05 475.413C1057.32 475.674 1058.27 476.094 1058.9 476.672C1059.52 477.25 1059.83 478.01 1059.83 478.951C1059.83 479.808 1059.58 480.559 1059.07 481.205C1058.57 481.852 1057.89 482.356 1057.02 482.719C1056.15 483.077 1055.15 483.255 1054.01 483.255C1052.28 483.255 1050.91 482.895 1049.88 482.175C1048.86 481.449 1048.26 480.463 1048.08 479.215L1051.65 479.028C1051.76 479.555 1052.02 479.958 1052.43 480.236C1052.84 480.508 1053.38 480.644 1054.02 480.644C1054.66 480.644 1055.17 480.522 1055.55 480.278C1055.94 480.029 1056.14 479.708 1056.15 479.317C1056.14 478.988 1056 478.719 1055.73 478.509C1055.46 478.294 1055.04 478.129 1054.47 478.016L1052.21 477.565C1050.93 477.31 1049.98 476.868 1049.36 476.238C1048.74 475.609 1048.43 474.806 1048.43 473.831C1048.43 472.992 1048.66 472.269 1049.11 471.662C1049.57 471.056 1050.22 470.588 1051.04 470.259C1051.88 469.93 1052.85 469.766 1053.97 469.766C1055.62 469.766 1056.92 470.114 1057.87 470.812C1058.82 471.509 1059.37 472.459 1059.53 473.661Z" fill="black"/>
<defs>
<clipPath id="clip0_1_4725">
<rect width="291.142" height="77.8167" fill="white" transform="translate(421.417 187.992)"/>
</clipPath>
<clipPath id="clip1_1_4725">
<rect width="291.142" height="77.8167" fill="white" transform="translate(421.417 98.1001)"/>
</clipPath>
<clipPath id="clip2_1_4725">
<rect width="291.142" height="77.8167" fill="white" transform="translate(421.417 277.883)"/>
</clipPath>
<clipPath id="clip3_1_4725">
<rect width="291.142" height="77.8167" fill="white" transform="translate(421.417 366.434)"/>
</clipPath>
<clipPath id="clip4_1_4725">
<rect width="291.142" height="77.8167" fill="white" transform="translate(421.417 456.325)"/>
</clipPath>
<clipPath id="clip5_1_4725">
<rect width="291.142" height="77.8167" fill="white" transform="translate(421.417 546.217)"/>
</clipPath>
<clipPath id="clip6_1_4725">
<rect width="291.142" height="77.8167" fill="white" transform="translate(421.417 636.108)"/>
</clipPath>
<clipPath id="clip7_1_4725">
<rect width="291.142" height="77.8167" fill="white" transform="translate(421.417 726)"/>
</clipPath>
<clipPath id="clip8_1_4725">
<rect width="291.142" height="167.708" fill="white" transform="translate(421.417 187.992)"/>
</clipPath>
<clipPath id="clip9_1_4725">
<rect width="291.142" height="256.258" fill="white" transform="translate(421.417 366.434)"/>
</clipPath>
</defs>
</svg>
