<svg width="1200" height="900" viewBox="0 0 1200 900" fill="none" xmlns="http://www.w3.org/2000/svg">
<rect width="1200" height="900" fill="white"/>
<path d="M103.102 360H77.321V287.273H103.315C110.631 287.273 116.928 288.729 122.207 291.641C127.487 294.529 131.547 298.684 134.388 304.105C137.252 309.527 138.685 316.013 138.685 323.565C138.685 331.141 137.252 337.652 134.388 343.097C131.547 348.542 127.463 352.72 122.136 355.632C116.833 358.544 110.489 360 103.102 360ZM92.6974 346.825H102.463C107.009 346.825 110.832 346.02 113.933 344.411C117.058 342.777 119.402 340.256 120.964 336.847C122.551 333.414 123.344 328.987 123.344 323.565C123.344 318.191 122.551 313.8 120.964 310.391C119.402 306.982 117.07 304.472 113.969 302.862C110.867 301.252 107.044 300.447 102.499 300.447H92.6974V346.825ZM172.017 361.065C166.406 361.065 161.577 359.929 157.529 357.656C153.504 355.36 150.403 352.116 148.225 347.926C146.047 343.712 144.958 338.729 144.958 332.976C144.958 327.365 146.047 322.441 148.225 318.203C150.403 313.965 153.468 310.663 157.422 308.295C161.399 305.928 166.063 304.744 171.414 304.744C175.012 304.744 178.362 305.324 181.463 306.484C184.588 307.621 187.311 309.337 189.631 311.634C191.975 313.93 193.798 316.818 195.1 320.298C196.402 323.755 197.053 327.803 197.053 332.443V336.598H150.994V327.223H182.813C182.813 325.045 182.339 323.116 181.392 321.435C180.445 319.754 179.131 318.44 177.45 317.493C175.793 316.522 173.864 316.037 171.662 316.037C169.366 316.037 167.33 316.57 165.554 317.635C163.802 318.677 162.429 320.085 161.435 321.861C160.441 323.613 159.932 325.566 159.908 327.72V336.634C159.908 339.332 160.405 341.664 161.399 343.629C162.417 345.594 163.85 347.109 165.696 348.175C167.543 349.24 169.733 349.773 172.266 349.773C173.947 349.773 175.485 349.536 176.882 349.062C178.279 348.589 179.475 347.879 180.469 346.932C181.463 345.985 182.221 344.825 182.742 343.452L196.733 344.375C196.023 347.737 194.567 350.672 192.365 353.182C190.187 355.668 187.37 357.609 183.914 359.006C180.481 360.379 176.515 361.065 172.017 361.065ZM249.677 321.009L235.827 321.861C235.591 320.677 235.082 319.612 234.3 318.665C233.519 317.694 232.489 316.925 231.211 316.357C229.956 315.765 228.453 315.469 226.701 315.469C224.357 315.469 222.38 315.966 220.771 316.96C219.161 317.931 218.356 319.233 218.356 320.866C218.356 322.169 218.877 323.269 219.918 324.169C220.96 325.069 222.747 325.791 225.281 326.335L235.153 328.324C240.456 329.413 244.409 331.165 247.013 333.58C249.618 335.994 250.92 339.167 250.92 343.097C250.92 346.671 249.866 349.808 247.759 352.507C245.676 355.206 242.811 357.313 239.165 358.828C235.543 360.32 231.365 361.065 226.63 361.065C219.409 361.065 213.656 359.562 209.371 356.555C205.11 353.525 202.612 349.406 201.879 344.197L216.758 343.416C217.208 345.618 218.297 347.299 220.025 348.459C221.753 349.595 223.967 350.163 226.665 350.163C229.317 350.163 231.448 349.654 233.058 348.636C234.691 347.595 235.52 346.257 235.543 344.624C235.52 343.25 234.94 342.126 233.803 341.25C232.667 340.35 230.915 339.664 228.548 339.19L219.102 337.308C213.775 336.243 209.809 334.396 207.205 331.768C204.625 329.141 203.334 325.791 203.334 321.719C203.334 318.215 204.281 315.196 206.175 312.663C208.093 310.13 210.78 308.177 214.236 306.804C217.717 305.431 221.789 304.744 226.452 304.744C233.342 304.744 238.763 306.2 242.717 309.112C246.694 312.024 249.014 315.99 249.677 321.009ZM282.459 361.065C276.872 361.065 272.066 359.882 268.041 357.514C264.04 355.123 260.963 351.809 258.808 347.571C256.678 343.333 255.612 338.456 255.612 332.94C255.612 327.353 256.69 322.453 258.844 318.239C261.022 314.001 264.111 310.698 268.112 308.331C272.113 305.94 276.872 304.744 282.388 304.744C287.146 304.744 291.313 305.608 294.888 307.337C298.463 309.065 301.292 311.491 303.375 314.616C305.458 317.741 306.607 321.411 306.82 325.625H292.544C292.142 322.902 291.076 320.713 289.348 319.055C287.644 317.375 285.406 316.534 282.637 316.534C280.293 316.534 278.245 317.173 276.493 318.452C274.765 319.706 273.415 321.541 272.445 323.956C271.474 326.371 270.989 329.295 270.989 332.727C270.989 336.207 271.462 339.167 272.409 341.605C273.38 344.044 274.741 345.902 276.493 347.18C278.245 348.459 280.293 349.098 282.637 349.098C284.365 349.098 285.915 348.743 287.289 348.033C288.685 347.322 289.833 346.293 290.733 344.943C291.656 343.57 292.26 341.925 292.544 340.007H306.82C306.583 344.174 305.447 347.843 303.411 351.016C301.398 354.164 298.617 356.626 295.065 358.402C291.514 360.178 287.312 361.065 282.459 361.065ZM329.002 328.466V360H313.874V287.273H328.576V315.078H329.215C330.446 311.858 332.434 309.337 335.181 307.514C337.927 305.668 341.372 304.744 345.515 304.744C349.302 304.744 352.605 305.573 355.422 307.23C358.263 308.864 360.465 311.219 362.027 314.297C363.613 317.351 364.395 321.009 364.371 325.27V360H349.243V327.969C349.267 324.607 348.415 321.991 346.686 320.121C344.982 318.25 342.591 317.315 339.513 317.315C337.453 317.315 335.631 317.753 334.044 318.629C332.482 319.505 331.251 320.784 330.351 322.464C329.475 324.122 329.025 326.122 329.002 328.466ZM398.503 361.065C392.892 361.065 388.062 359.929 384.014 357.656C379.989 355.36 376.888 352.116 374.71 347.926C372.532 343.712 371.443 338.729 371.443 332.976C371.443 327.365 372.532 322.441 374.71 318.203C376.888 313.965 379.954 310.663 383.907 308.295C387.885 305.928 392.549 304.744 397.899 304.744C401.497 304.744 404.847 305.324 407.949 306.484C411.074 307.621 413.796 309.337 416.116 311.634C418.46 313.93 420.283 316.818 421.585 320.298C422.887 323.755 423.538 327.803 423.538 332.443V336.598H377.48V327.223H409.298C409.298 325.045 408.825 323.116 407.878 321.435C406.931 319.754 405.617 318.44 403.936 317.493C402.279 316.522 400.349 316.037 398.148 316.037C395.851 316.037 393.815 316.57 392.04 317.635C390.288 318.677 388.915 320.085 387.92 321.861C386.926 323.613 386.417 325.566 386.393 327.72V336.634C386.393 339.332 386.89 341.664 387.885 343.629C388.903 345.594 390.335 347.109 392.182 348.175C394.028 349.24 396.218 349.773 398.751 349.773C400.432 349.773 401.971 349.536 403.368 349.062C404.764 348.589 405.96 347.879 406.954 346.932C407.949 345.985 408.706 344.825 409.227 343.452L423.219 344.375C422.508 347.737 421.052 350.672 418.851 353.182C416.673 355.668 413.855 357.609 410.399 359.006C406.966 360.379 403.001 361.065 398.503 361.065ZM450.878 360.888C446.735 360.888 442.983 359.822 439.621 357.692C436.283 355.537 433.631 352.377 431.667 348.21C429.725 344.02 428.755 338.883 428.755 332.798C428.755 326.548 429.761 321.352 431.773 317.209C433.785 313.042 436.461 309.929 439.799 307.869C443.16 305.786 446.842 304.744 450.843 304.744C453.897 304.744 456.442 305.265 458.478 306.307C460.537 307.325 462.194 308.603 463.449 310.142C464.728 311.657 465.698 313.149 466.361 314.616H466.823V287.273H481.915V360H467V351.264H466.361C465.651 352.779 464.645 354.283 463.343 355.774C462.064 357.242 460.395 358.461 458.336 359.432C456.3 360.402 453.814 360.888 450.878 360.888ZM455.672 348.849C458.111 348.849 460.17 348.187 461.851 346.861C463.556 345.511 464.858 343.629 465.757 341.214C466.681 338.8 467.142 335.971 467.142 332.727C467.142 329.484 466.693 326.667 465.793 324.276C464.893 321.884 463.591 320.038 461.887 318.736C460.182 317.434 458.111 316.783 455.672 316.783C453.186 316.783 451.091 317.457 449.387 318.807C447.682 320.156 446.392 322.027 445.516 324.418C444.64 326.809 444.202 329.579 444.202 332.727C444.202 335.9 444.64 338.705 445.516 341.143C446.416 343.558 447.706 345.452 449.387 346.825C451.091 348.175 453.186 348.849 455.672 348.849ZM526.7 336.776V305.455H541.828V360H527.304V350.092H526.736C525.504 353.288 523.457 355.857 520.592 357.798C517.751 359.74 514.283 360.71 510.187 360.71C506.541 360.71 503.334 359.882 500.564 358.224C497.794 356.567 495.628 354.212 494.065 351.158C492.526 348.104 491.745 344.446 491.721 340.185V305.455H506.849V337.486C506.873 340.705 507.737 343.25 509.442 345.121C511.146 346.991 513.431 347.926 516.295 347.926C518.118 347.926 519.823 347.512 521.409 346.683C522.995 345.831 524.273 344.576 525.244 342.919C526.238 341.262 526.724 339.214 526.7 336.776ZM566.425 287.273V360H551.297V287.273H566.425ZM600.769 361.065C595.158 361.065 590.329 359.929 586.281 357.656C582.256 355.36 579.155 352.116 576.977 347.926C574.799 343.712 573.71 338.729 573.71 332.976C573.71 327.365 574.799 322.441 576.977 318.203C579.155 313.965 582.221 310.663 586.174 308.295C590.151 305.928 594.815 304.744 600.166 304.744C603.764 304.744 607.114 305.324 610.215 306.484C613.34 307.621 616.063 309.337 618.383 311.634C620.727 313.93 622.55 316.818 623.852 320.298C625.154 323.755 625.805 327.803 625.805 332.443V336.598H579.747V327.223H611.565C611.565 325.045 611.091 323.116 610.144 321.435C609.197 319.754 607.883 318.44 606.203 317.493C604.545 316.522 602.616 316.037 600.414 316.037C598.118 316.037 596.082 316.57 594.306 317.635C592.554 318.677 591.181 320.085 590.187 321.861C589.193 323.613 588.684 325.566 588.66 327.72V336.634C588.66 339.332 589.157 341.664 590.151 343.629C591.169 345.594 592.602 347.109 594.448 348.175C596.295 349.24 598.485 349.773 601.018 349.773C602.699 349.773 604.238 349.536 605.634 349.062C607.031 348.589 608.227 347.879 609.221 346.932C610.215 345.985 610.973 344.825 611.494 343.452L625.485 344.375C624.775 347.737 623.319 350.672 621.117 353.182C618.939 355.668 616.122 357.609 612.666 359.006C609.233 360.379 605.267 361.065 600.769 361.065ZM633.045 360V305.455H647.712V314.972H648.28C649.274 311.586 650.943 309.029 653.287 307.301C655.631 305.549 658.329 304.673 661.383 304.673C662.141 304.673 662.958 304.721 663.834 304.815C664.71 304.91 665.479 305.04 666.142 305.206V318.629C665.432 318.416 664.449 318.227 663.195 318.061C661.94 317.895 660.792 317.812 659.75 317.812C657.525 317.812 655.536 318.298 653.784 319.268C652.056 320.215 650.683 321.541 649.665 323.246C648.67 324.95 648.173 326.915 648.173 329.141V360H633.045ZM97.1364 444.888C92.9934 444.888 89.241 443.822 85.8793 441.692C82.5412 439.537 79.8897 436.377 77.9247 432.21C75.9834 428.02 75.0128 422.883 75.0128 416.798C75.0128 410.548 76.0189 405.352 78.0312 401.209C80.0436 397.042 82.7188 393.929 86.0568 391.869C89.4186 389.786 93.0999 388.744 97.1009 388.744C100.155 388.744 102.7 389.265 104.736 390.307C106.795 391.325 108.453 392.603 109.707 394.142C110.986 395.657 111.956 397.149 112.619 398.616H113.081V371.273H128.173V444H113.259V435.264H112.619C111.909 436.779 110.903 438.283 109.601 439.774C108.322 441.242 106.653 442.461 104.594 443.432C102.558 444.402 100.072 444.888 97.1364 444.888ZM101.93 432.849C104.369 432.849 106.429 432.187 108.109 430.861C109.814 429.511 111.116 427.629 112.016 425.214C112.939 422.8 113.401 419.971 113.401 416.727C113.401 413.484 112.951 410.667 112.051 408.276C111.152 405.884 109.849 404.038 108.145 402.736C106.44 401.434 104.369 400.783 101.93 400.783C99.4446 400.783 97.3494 401.457 95.6449 402.807C93.9403 404.156 92.6501 406.027 91.7741 408.418C90.8982 410.809 90.4602 413.579 90.4602 416.727C90.4602 419.9 90.8982 422.705 91.7741 425.143C92.6738 427.558 93.964 429.452 95.6449 430.825C97.3494 432.175 99.4446 432.849 101.93 432.849ZM162.838 445.065C157.227 445.065 152.397 443.929 148.349 441.656C144.324 439.36 141.223 436.116 139.045 431.926C136.867 427.712 135.778 422.729 135.778 416.976C135.778 411.365 136.867 406.441 139.045 402.203C141.223 397.965 144.289 394.663 148.242 392.295C152.22 389.928 156.883 388.744 162.234 388.744C165.832 388.744 169.182 389.324 172.284 390.484C175.409 391.621 178.131 393.337 180.451 395.634C182.795 397.93 184.618 400.818 185.92 404.298C187.222 407.755 187.873 411.803 187.873 416.443V420.598H141.815V411.223H173.633C173.633 409.045 173.159 407.116 172.213 405.435C171.266 403.754 169.952 402.44 168.271 401.493C166.614 400.522 164.684 400.037 162.482 400.037C160.186 400.037 158.15 400.57 156.374 401.635C154.623 402.677 153.249 404.085 152.255 405.861C151.261 407.613 150.752 409.566 150.728 411.72V420.634C150.728 423.332 151.225 425.664 152.22 427.629C153.238 429.594 154.67 431.109 156.517 432.175C158.363 433.24 160.553 433.773 163.086 433.773C164.767 433.773 166.306 433.536 167.703 433.062C169.099 432.589 170.295 431.879 171.289 430.932C172.284 429.985 173.041 428.825 173.562 427.452L187.553 428.375C186.843 431.737 185.387 434.672 183.186 437.182C181.008 439.668 178.19 441.609 174.734 443.006C171.301 444.379 167.336 445.065 162.838 445.065ZM195.114 464.455V389.455H210.028V398.616H210.703C211.366 397.149 212.325 395.657 213.58 394.142C214.858 392.603 216.515 391.325 218.551 390.307C220.611 389.265 223.168 388.744 226.222 388.744C230.199 388.744 233.868 389.786 237.23 391.869C240.592 393.929 243.279 397.042 245.291 401.209C247.303 405.352 248.31 410.548 248.31 416.798C248.31 422.883 247.327 428.02 245.362 432.21C243.421 436.377 240.769 439.537 237.408 441.692C234.07 443.822 230.329 444.888 226.186 444.888C223.25 444.888 220.753 444.402 218.693 443.432C216.657 442.461 214.988 441.242 213.686 439.774C212.384 438.283 211.39 436.779 210.703 435.264H210.241V464.455H195.114ZM209.922 416.727C209.922 419.971 210.372 422.8 211.271 425.214C212.171 427.629 213.473 429.511 215.178 430.861C216.882 432.187 218.954 432.849 221.392 432.849C223.854 432.849 225.937 432.175 227.642 430.825C229.347 429.452 230.637 427.558 231.513 425.143C232.412 422.705 232.862 419.9 232.862 416.727C232.862 413.579 232.424 410.809 231.548 408.418C230.672 406.027 229.382 404.156 227.678 402.807C225.973 401.457 223.878 400.783 221.392 400.783C218.93 400.783 216.847 401.434 215.142 402.736C213.461 404.038 212.171 405.884 211.271 408.276C210.372 410.667 209.922 413.484 209.922 416.727ZM270.891 371.273V444H255.763V371.273H270.891ZM305.023 445.065C299.507 445.065 294.736 443.893 290.712 441.55C286.711 439.182 283.621 435.892 281.443 431.678C279.265 427.44 278.176 422.527 278.176 416.94C278.176 411.306 279.265 406.382 281.443 402.168C283.621 397.93 286.711 394.639 290.712 392.295C294.736 389.928 299.507 388.744 305.023 388.744C310.539 388.744 315.297 389.928 319.298 392.295C323.323 394.639 326.424 397.93 328.602 402.168C330.78 406.382 331.869 411.306 331.869 416.94C331.869 422.527 330.78 427.44 328.602 431.678C326.424 435.892 323.323 439.182 319.298 441.55C315.297 443.893 310.539 445.065 305.023 445.065ZM305.094 433.347C307.603 433.347 309.698 432.636 311.379 431.216C313.06 429.772 314.327 427.807 315.179 425.321C316.055 422.835 316.493 420.006 316.493 416.834C316.493 413.661 316.055 410.832 315.179 408.347C314.327 405.861 313.06 403.896 311.379 402.452C309.698 401.008 307.603 400.286 305.094 400.286C302.561 400.286 300.43 401.008 298.702 402.452C296.997 403.896 295.707 405.861 294.831 408.347C293.979 410.832 293.553 413.661 293.553 416.834C293.553 420.006 293.979 422.835 294.831 425.321C295.707 427.807 296.997 429.772 298.702 431.216C300.43 432.636 302.561 433.347 305.094 433.347ZM346.656 464.455C344.738 464.455 342.939 464.301 341.258 463.993C339.601 463.709 338.228 463.342 337.139 462.892L340.548 451.599C342.324 452.144 343.922 452.44 345.342 452.487C346.786 452.535 348.029 452.203 349.071 451.493C350.136 450.783 351 449.575 351.663 447.871L352.551 445.562L332.984 389.455H348.893L360.186 429.511H360.754L372.153 389.455H388.169L366.969 449.895C365.951 452.83 364.566 455.387 362.814 457.565C361.085 459.767 358.896 461.46 356.244 462.643C353.593 463.851 350.397 464.455 346.656 464.455ZM393.279 444V389.455H407.696V399.078H408.336C409.472 395.882 411.366 393.361 414.017 391.514C416.669 389.668 419.841 388.744 423.534 388.744C427.275 388.744 430.459 389.679 433.087 391.55C435.715 393.396 437.467 395.906 438.343 399.078H438.911C440.024 395.953 442.036 393.455 444.948 391.585C447.883 389.691 451.352 388.744 455.353 388.744C460.443 388.744 464.574 390.366 467.746 393.609C470.942 396.829 472.54 401.398 472.54 407.317V444H457.448V410.3C457.448 407.269 456.643 404.997 455.033 403.482C453.423 401.966 451.411 401.209 448.996 401.209C446.25 401.209 444.107 402.085 442.568 403.837C441.03 405.565 440.26 407.849 440.26 410.69V444H425.594V409.98C425.594 407.305 424.825 405.174 423.286 403.588C421.771 402.002 419.77 401.209 417.284 401.209C415.604 401.209 414.088 401.635 412.739 402.487C411.413 403.316 410.36 404.488 409.578 406.003C408.797 407.494 408.407 409.246 408.407 411.259V444H393.279ZM506.716 445.065C501.105 445.065 496.276 443.929 492.227 441.656C488.203 439.36 485.101 436.116 482.923 431.926C480.745 427.712 479.656 422.729 479.656 416.976C479.656 411.365 480.745 406.441 482.923 402.203C485.101 397.965 488.167 394.663 492.121 392.295C496.098 389.928 500.762 388.744 506.112 388.744C509.711 388.744 513.061 389.324 516.162 390.484C519.287 391.621 522.01 393.337 524.33 395.634C526.673 397.93 528.496 400.818 529.798 404.298C531.1 407.755 531.752 411.803 531.752 416.443V420.598H485.693V411.223H517.511C517.511 409.045 517.038 407.116 516.091 405.435C515.144 403.754 513.83 402.44 512.149 401.493C510.492 400.522 508.563 400.037 506.361 400.037C504.065 400.037 502.029 400.57 500.253 401.635C498.501 402.677 497.128 404.085 496.134 405.861C495.139 407.613 494.63 409.566 494.607 411.72V420.634C494.607 423.332 495.104 425.664 496.098 427.629C497.116 429.594 498.548 431.109 500.395 432.175C502.242 433.24 504.431 433.773 506.965 433.773C508.645 433.773 510.184 433.536 511.581 433.062C512.978 432.589 514.173 431.879 515.168 430.932C516.162 429.985 516.92 428.825 517.44 427.452L531.432 428.375C530.722 431.737 529.266 434.672 527.064 437.182C524.886 439.668 522.069 441.609 518.612 443.006C515.18 444.379 511.214 445.065 506.716 445.065ZM554.12 412.466V444H538.992V389.455H553.41V399.078H554.049C555.256 395.906 557.28 393.396 560.121 391.55C562.962 389.679 566.407 388.744 570.455 388.744C574.243 388.744 577.546 389.573 580.363 391.23C583.18 392.887 585.37 395.255 586.932 398.332C588.495 401.386 589.276 405.032 589.276 409.27V444H574.148V411.969C574.172 408.631 573.32 406.027 571.592 404.156C569.863 402.262 567.484 401.315 564.454 401.315C562.418 401.315 560.619 401.753 559.056 402.629C557.517 403.505 556.31 404.784 555.434 406.464C554.582 408.122 554.144 410.122 554.12 412.466ZM627.58 389.455V400.818H594.732V389.455H627.58ZM602.19 376.386H617.318V427.239C617.318 428.635 617.531 429.724 617.957 430.506C618.383 431.263 618.975 431.796 619.732 432.104C620.514 432.411 621.413 432.565 622.431 432.565C623.141 432.565 623.852 432.506 624.562 432.388C625.272 432.246 625.817 432.139 626.195 432.068L628.575 443.325C627.817 443.562 626.752 443.834 625.379 444.142C624.006 444.473 622.337 444.675 620.372 444.746C616.726 444.888 613.53 444.402 610.783 443.29C608.061 442.177 605.942 440.449 604.427 438.105C602.912 435.761 602.166 432.802 602.19 429.227V376.386Z" fill="black"/>
<rect x="71" y="498" width="1038" height="19" fill="black"/>
</svg>
