<svg width="1200" height="900" viewBox="0 0 1200 900" fill="none" xmlns="http://www.w3.org/2000/svg">
<rect width="1200" height="900" fill="white"/>
<path d="M77.321 444V371.273H106.014C111.507 371.273 116.194 372.255 120.077 374.22C123.983 376.161 126.954 378.92 128.99 382.494C131.05 386.045 132.08 390.224 132.08 395.03C132.08 399.859 131.038 404.014 128.955 407.494C126.871 410.951 123.853 413.602 119.899 415.449C115.969 417.295 111.211 418.219 105.624 418.219H86.4119V405.861H103.138C106.073 405.861 108.512 405.458 110.453 404.653C112.394 403.848 113.839 402.641 114.786 401.031C115.756 399.421 116.241 397.421 116.241 395.03C116.241 392.615 115.756 390.579 114.786 388.922C113.839 387.265 112.383 386.01 110.418 385.158C108.476 384.282 106.026 383.844 103.067 383.844H92.6974V444H77.321ZM116.597 410.903L134.672 444H117.697L100.013 410.903H116.597ZM164.009 445.065C158.399 445.065 153.569 443.929 149.521 441.656C145.496 439.36 142.395 436.116 140.217 431.926C138.039 427.712 136.95 422.729 136.95 416.976C136.95 411.365 138.039 406.441 140.217 402.203C142.395 397.965 145.461 394.663 149.414 392.295C153.392 389.928 158.055 388.744 163.406 388.744C167.004 388.744 170.354 389.324 173.455 390.484C176.58 391.621 179.303 393.337 181.623 395.634C183.967 397.93 185.79 400.818 187.092 404.298C188.394 407.755 189.045 411.803 189.045 416.443V420.598H142.987V411.223H174.805C174.805 409.045 174.331 407.116 173.384 405.435C172.437 403.754 171.124 402.44 169.443 401.493C167.785 400.522 165.856 400.037 163.654 400.037C161.358 400.037 159.322 400.57 157.546 401.635C155.794 402.677 154.421 404.085 153.427 405.861C152.433 407.613 151.924 409.566 151.9 411.72V420.634C151.9 423.332 152.397 425.664 153.392 427.629C154.409 429.594 155.842 431.109 157.688 432.175C159.535 433.24 161.725 433.773 164.258 433.773C165.939 433.773 167.478 433.536 168.874 433.062C170.271 432.589 171.467 431.879 172.461 430.932C173.455 429.985 174.213 428.825 174.734 427.452L188.725 428.375C188.015 431.737 186.559 434.672 184.357 437.182C182.179 439.668 179.362 441.609 175.906 443.006C172.473 444.379 168.508 445.065 164.009 445.065ZM241.669 405.009L227.82 405.861C227.583 404.677 227.074 403.612 226.293 402.665C225.511 401.694 224.482 400.925 223.203 400.357C221.948 399.765 220.445 399.469 218.693 399.469C216.349 399.469 214.373 399.966 212.763 400.96C211.153 401.931 210.348 403.233 210.348 404.866C210.348 406.169 210.869 407.269 211.91 408.169C212.952 409.069 214.74 409.791 217.273 410.335L227.145 412.324C232.448 413.413 236.401 415.165 239.006 417.58C241.61 419.994 242.912 423.167 242.912 427.097C242.912 430.671 241.858 433.808 239.751 436.507C237.668 439.206 234.803 441.313 231.158 442.828C227.535 444.32 223.357 445.065 218.622 445.065C211.401 445.065 205.649 443.562 201.364 440.555C197.102 437.525 194.605 433.406 193.871 428.197L208.75 427.416C209.2 429.618 210.289 431.299 212.017 432.459C213.745 433.595 215.959 434.163 218.658 434.163C221.309 434.163 223.44 433.654 225.05 432.636C226.683 431.595 227.512 430.257 227.535 428.624C227.512 427.25 226.932 426.126 225.795 425.25C224.659 424.35 222.907 423.664 220.54 423.19L211.094 421.308C205.767 420.243 201.802 418.396 199.197 415.768C196.617 413.141 195.327 409.791 195.327 405.719C195.327 402.215 196.274 399.196 198.168 396.663C200.085 394.13 202.772 392.177 206.229 390.804C209.709 389.431 213.781 388.744 218.445 388.744C225.334 388.744 230.755 390.2 234.709 393.112C238.686 396.024 241.006 399.99 241.669 405.009ZM278.819 389.455V400.818H245.971V389.455H278.819ZM253.428 376.386H268.556V427.239C268.556 428.635 268.769 429.724 269.195 430.506C269.622 431.263 270.213 431.796 270.971 432.104C271.752 432.411 272.652 432.565 273.67 432.565C274.38 432.565 275.09 432.506 275.801 432.388C276.511 432.246 277.055 432.139 277.434 432.068L279.813 443.325C279.056 443.562 277.99 443.834 276.617 444.142C275.244 444.473 273.575 444.675 271.61 444.746C267.964 444.888 264.768 444.402 262.022 443.29C259.3 442.177 257.181 440.449 255.666 438.105C254.15 435.761 253.405 432.802 253.428 429.227V376.386ZM301.596 445.03C298.116 445.03 295.014 444.426 292.292 443.219C289.569 441.988 287.415 440.177 285.829 437.786C284.266 435.371 283.485 432.364 283.485 428.766C283.485 425.735 284.041 423.19 285.154 421.131C286.267 419.071 287.782 417.414 289.7 416.159C291.617 414.904 293.795 413.957 296.234 413.318C298.696 412.679 301.276 412.229 303.975 411.969C307.147 411.637 309.704 411.33 311.646 411.045C313.587 410.738 314.995 410.288 315.871 409.696C316.747 409.104 317.185 408.228 317.185 407.068V406.855C317.185 404.606 316.475 402.866 315.055 401.635C313.658 400.404 311.669 399.788 309.089 399.788C306.366 399.788 304.2 400.392 302.59 401.599C300.98 402.783 299.915 404.275 299.394 406.074L285.403 404.938C286.113 401.623 287.51 398.759 289.593 396.344C291.676 393.905 294.363 392.035 297.654 390.733C300.968 389.407 304.804 388.744 309.16 388.744C312.19 388.744 315.09 389.099 317.86 389.81C320.654 390.52 323.128 391.621 325.282 393.112C327.46 394.604 329.176 396.521 330.431 398.865C331.686 401.185 332.313 403.967 332.313 407.21V444H317.967V436.436H317.54C316.664 438.141 315.493 439.644 314.025 440.946C312.557 442.224 310.793 443.231 308.734 443.964C306.674 444.675 304.295 445.03 301.596 445.03ZM305.928 434.589C308.154 434.589 310.119 434.152 311.823 433.276C313.528 432.376 314.865 431.169 315.836 429.653C316.807 428.138 317.292 426.422 317.292 424.504V418.716C316.818 419.024 316.167 419.308 315.339 419.568C314.534 419.805 313.622 420.03 312.604 420.243C311.586 420.432 310.568 420.61 309.55 420.776C308.532 420.918 307.609 421.048 306.78 421.166C305.005 421.427 303.454 421.841 302.129 422.409C300.803 422.977 299.773 423.747 299.039 424.717C298.305 425.664 297.938 426.848 297.938 428.268C297.938 430.328 298.684 431.902 300.175 432.991C301.691 434.057 303.608 434.589 305.928 434.589ZM341.418 444V389.455H356.084V398.972H356.652C357.647 395.586 359.316 393.029 361.66 391.301C364.003 389.549 366.702 388.673 369.756 388.673C370.514 388.673 371.331 388.721 372.206 388.815C373.082 388.91 373.852 389.04 374.515 389.206V402.629C373.804 402.416 372.822 402.227 371.567 402.061C370.313 401.895 369.164 401.812 368.123 401.812C365.897 401.812 363.909 402.298 362.157 403.268C360.429 404.215 359.055 405.541 358.037 407.246C357.043 408.95 356.546 410.915 356.546 413.141V444H341.418ZM411.452 389.455V400.818H378.604V389.455H411.452ZM386.061 376.386H401.189V427.239C401.189 428.635 401.402 429.724 401.828 430.506C402.254 431.263 402.846 431.796 403.604 432.104C404.385 432.411 405.285 432.565 406.303 432.565C407.013 432.565 407.723 432.506 408.433 432.388C409.143 432.246 409.688 432.139 410.067 432.068L412.446 443.325C411.688 443.562 410.623 443.834 409.25 444.142C407.877 444.473 406.208 444.675 404.243 444.746C400.597 444.888 397.401 444.402 394.655 443.29C391.932 442.177 389.813 440.449 388.298 438.105C386.783 435.761 386.037 432.802 386.061 429.227V376.386ZM439.187 464.455V389.455H454.102V398.616H454.777C455.44 397.149 456.399 395.657 457.653 394.142C458.932 392.603 460.589 391.325 462.625 390.307C464.685 389.265 467.241 388.744 470.295 388.744C474.273 388.744 477.942 389.786 481.304 391.869C484.666 393.929 487.353 397.042 489.365 401.209C491.377 405.352 492.383 410.548 492.383 416.798C492.383 422.883 491.401 428.02 489.436 432.21C487.495 436.377 484.843 439.537 481.481 441.692C478.143 443.822 474.403 444.888 470.26 444.888C467.324 444.888 464.827 444.402 462.767 443.432C460.731 442.461 459.062 441.242 457.76 439.774C456.458 438.283 455.463 436.779 454.777 435.264H454.315V464.455H439.187ZM453.996 416.727C453.996 419.971 454.445 422.8 455.345 425.214C456.245 427.629 457.547 429.511 459.251 430.861C460.956 432.187 463.027 432.849 465.466 432.849C467.928 432.849 470.011 432.175 471.716 430.825C473.42 429.452 474.711 427.558 475.587 425.143C476.486 422.705 476.936 419.9 476.936 416.727C476.936 413.579 476.498 410.809 475.622 408.418C474.746 406.027 473.456 404.156 471.751 402.807C470.047 401.457 467.952 400.783 465.466 400.783C463.004 400.783 460.92 401.434 459.216 402.736C457.535 404.038 456.245 405.884 455.345 408.276C454.445 410.667 453.996 413.484 453.996 416.727ZM524.482 445.065C518.966 445.065 514.196 443.893 510.171 441.55C506.17 439.182 503.08 435.892 500.902 431.678C498.724 427.44 497.635 422.527 497.635 416.94C497.635 411.306 498.724 406.382 500.902 402.168C503.08 397.93 506.17 394.639 510.171 392.295C514.196 389.928 518.966 388.744 524.482 388.744C529.998 388.744 534.757 389.928 538.758 392.295C542.782 394.639 545.884 397.93 548.062 402.168C550.24 406.382 551.329 411.306 551.329 416.94C551.329 422.527 550.24 427.44 548.062 431.678C545.884 435.892 542.782 439.182 538.758 441.55C534.757 443.893 529.998 445.065 524.482 445.065ZM524.553 433.347C527.062 433.347 529.158 432.636 530.839 431.216C532.519 429.772 533.786 427.807 534.638 425.321C535.514 422.835 535.952 420.006 535.952 416.834C535.952 413.661 535.514 410.832 534.638 408.347C533.786 405.861 532.519 403.896 530.839 402.452C529.158 401.008 527.062 400.286 524.553 400.286C522.02 400.286 519.889 401.008 518.161 402.452C516.456 403.896 515.166 405.861 514.29 408.347C513.438 410.832 513.012 413.661 513.012 416.834C513.012 420.006 513.438 422.835 514.29 425.321C515.166 427.807 516.456 429.772 518.161 431.216C519.889 432.636 522.02 433.347 524.553 433.347ZM573.661 371.273V444H558.534V371.273H573.661ZM583.148 444V389.455H598.276V444H583.148ZM590.748 382.423C588.499 382.423 586.569 381.678 584.959 380.186C583.373 378.671 582.58 376.86 582.58 374.753C582.58 372.67 583.373 370.882 584.959 369.391C586.569 367.875 588.499 367.118 590.748 367.118C592.997 367.118 594.914 367.875 596.5 369.391C598.11 370.882 598.915 372.67 598.915 374.753C598.915 376.86 598.11 378.671 596.5 380.186C594.914 381.678 592.997 382.423 590.748 382.423ZM632.408 445.065C626.82 445.065 622.015 443.882 617.99 441.514C613.989 439.123 610.911 435.809 608.757 431.571C606.626 427.333 605.561 422.456 605.561 416.94C605.561 411.353 606.638 406.453 608.793 402.239C610.971 398.001 614.06 394.698 618.061 392.331C622.062 389.94 626.82 388.744 632.337 388.744C637.095 388.744 641.262 389.608 644.837 391.337C648.411 393.065 651.24 395.491 653.324 398.616C655.407 401.741 656.555 405.411 656.768 409.625H642.493C642.09 406.902 641.025 404.713 639.297 403.055C637.592 401.375 635.355 400.534 632.585 400.534C630.241 400.534 628.194 401.173 626.442 402.452C624.713 403.706 623.364 405.541 622.393 407.956C621.423 410.371 620.937 413.295 620.937 416.727C620.937 420.207 621.411 423.167 622.358 425.605C623.329 428.044 624.69 429.902 626.442 431.18C628.194 432.459 630.241 433.098 632.585 433.098C634.313 433.098 635.864 432.743 637.237 432.033C638.634 431.322 639.782 430.293 640.682 428.943C641.605 427.57 642.209 425.925 642.493 424.007H656.768C656.532 428.174 655.395 431.843 653.359 435.016C651.347 438.164 648.565 440.626 645.014 442.402C641.463 444.178 637.261 445.065 632.408 445.065ZM673.162 464.455C671.244 464.455 669.445 464.301 667.764 463.993C666.107 463.709 664.734 463.342 663.645 462.892L667.054 451.599C668.83 452.144 670.428 452.44 671.848 452.487C673.292 452.535 674.535 452.203 675.577 451.493C676.642 450.783 677.506 449.575 678.169 447.871L679.057 445.562L659.49 389.455H675.399L686.692 429.511H687.26L698.659 389.455H714.675L693.475 449.895C692.457 452.83 691.072 455.387 689.32 457.565C687.591 459.767 685.402 461.46 682.75 462.643C680.099 463.851 676.903 464.455 673.162 464.455Z" fill="black"/>
<rect x="71" y="498" width="1038" height="19" fill="black"/>
</svg>
