<svg width="1200" height="900" viewBox="0 0 1200 900" fill="none" xmlns="http://www.w3.org/2000/svg">
<rect width="1200" height="900" fill="white"/>
<path d="M103.102 444H77.321V371.273H103.315C110.631 371.273 116.928 372.729 122.207 375.641C127.487 378.529 131.547 382.684 134.388 388.105C137.252 393.527 138.685 400.013 138.685 407.565C138.685 415.141 137.252 421.652 134.388 427.097C131.547 432.542 127.463 436.72 122.136 439.632C116.833 442.544 110.489 444 103.102 444ZM92.6974 430.825H102.463C107.009 430.825 110.832 430.02 113.933 428.411C117.058 426.777 119.402 424.256 120.964 420.847C122.551 417.414 123.344 412.987 123.344 407.565C123.344 402.191 122.551 397.8 120.964 394.391C119.402 390.982 117.07 388.472 113.969 386.862C110.867 385.252 107.044 384.447 102.499 384.447H92.6974V430.825ZM172.017 445.065C166.406 445.065 161.577 443.929 157.529 441.656C153.504 439.36 150.403 436.116 148.225 431.926C146.047 427.712 144.958 422.729 144.958 416.976C144.958 411.365 146.047 406.441 148.225 402.203C150.403 397.965 153.468 394.663 157.422 392.295C161.399 389.928 166.063 388.744 171.414 388.744C175.012 388.744 178.362 389.324 181.463 390.484C184.588 391.621 187.311 393.337 189.631 395.634C191.975 397.93 193.798 400.818 195.1 404.298C196.402 407.755 197.053 411.803 197.053 416.443V420.598H150.994V411.223H182.813C182.813 409.045 182.339 407.116 181.392 405.435C180.445 403.754 179.131 402.44 177.45 401.493C175.793 400.522 173.864 400.037 171.662 400.037C169.366 400.037 167.33 400.57 165.554 401.635C163.802 402.677 162.429 404.085 161.435 405.861C160.441 407.613 159.932 409.566 159.908 411.72V420.634C159.908 423.332 160.405 425.664 161.399 427.629C162.417 429.594 163.85 431.109 165.696 432.175C167.543 433.24 169.733 433.773 172.266 433.773C173.947 433.773 175.485 433.536 176.882 433.062C178.279 432.589 179.475 431.879 180.469 430.932C181.463 429.985 182.221 428.825 182.742 427.452L196.733 428.375C196.023 431.737 194.567 434.672 192.365 437.182C190.187 439.668 187.37 441.609 183.914 443.006C180.481 444.379 176.515 445.065 172.017 445.065ZM204.293 464.455V389.455H219.208V398.616H219.883C220.546 397.149 221.504 395.657 222.759 394.142C224.038 392.603 225.695 391.325 227.731 390.307C229.79 389.265 232.347 388.744 235.401 388.744C239.379 388.744 243.048 389.786 246.41 391.869C249.772 393.929 252.459 397.042 254.471 401.209C256.483 405.352 257.489 410.548 257.489 416.798C257.489 422.883 256.507 428.02 254.542 432.21C252.601 436.377 249.949 439.537 246.587 441.692C243.249 443.822 239.509 444.888 235.366 444.888C232.43 444.888 229.933 444.402 227.873 443.432C225.837 442.461 224.168 441.242 222.866 439.774C221.564 438.283 220.569 436.779 219.883 435.264H219.421V464.455H204.293ZM219.102 416.727C219.102 419.971 219.551 422.8 220.451 425.214C221.351 427.629 222.653 429.511 224.357 430.861C226.062 432.187 228.133 432.849 230.572 432.849C233.034 432.849 235.117 432.175 236.822 430.825C238.526 429.452 239.817 427.558 240.692 425.143C241.592 422.705 242.042 419.9 242.042 416.727C242.042 413.579 241.604 410.809 240.728 408.418C239.852 406.027 238.562 404.156 236.857 402.807C235.153 401.457 233.058 400.783 230.572 400.783C228.11 400.783 226.026 401.434 224.322 402.736C222.641 404.038 221.351 405.884 220.451 408.276C219.551 410.667 219.102 413.484 219.102 416.727ZM280.071 371.273V444H264.943V371.273H280.071ZM314.202 445.065C308.686 445.065 303.916 443.893 299.891 441.55C295.89 439.182 292.801 435.892 290.623 431.678C288.445 427.44 287.356 422.527 287.356 416.94C287.356 411.306 288.445 406.382 290.623 402.168C292.801 397.93 295.89 394.639 299.891 392.295C303.916 389.928 308.686 388.744 314.202 388.744C319.718 388.744 324.477 389.928 328.478 392.295C332.503 394.639 335.604 397.93 337.782 402.168C339.96 406.382 341.049 411.306 341.049 416.94C341.049 422.527 339.96 427.44 337.782 431.678C335.604 435.892 332.503 439.182 328.478 441.55C324.477 443.893 319.718 445.065 314.202 445.065ZM314.273 433.347C316.783 433.347 318.878 432.636 320.559 431.216C322.24 429.772 323.506 427.807 324.359 425.321C325.235 422.835 325.673 420.006 325.673 416.834C325.673 413.661 325.235 410.832 324.359 408.347C323.506 405.861 322.24 403.896 320.559 402.452C318.878 401.008 316.783 400.286 314.273 400.286C311.74 400.286 309.61 401.008 307.881 402.452C306.177 403.896 304.887 405.861 304.011 408.347C303.158 410.832 302.732 413.661 302.732 416.834C302.732 420.006 303.158 422.835 304.011 425.321C304.887 427.807 306.177 429.772 307.881 431.216C309.61 432.636 311.74 433.347 314.273 433.347ZM355.836 464.455C353.918 464.455 352.119 464.301 350.438 463.993C348.781 463.709 347.408 463.342 346.319 462.892L349.728 451.599C351.503 452.144 353.101 452.44 354.522 452.487C355.966 452.535 357.209 452.203 358.25 451.493C359.316 450.783 360.18 449.575 360.843 447.871L361.731 445.562L342.164 389.455H358.073L369.366 429.511H369.934L381.333 389.455H397.348L376.148 449.895C375.13 452.83 373.745 455.387 371.993 457.565C370.265 459.767 368.075 461.46 365.424 462.643C362.772 463.851 359.576 464.455 355.836 464.455ZM402.458 444V389.455H416.876V399.078H417.515C418.652 395.882 420.546 393.361 423.197 391.514C425.849 389.668 429.021 388.744 432.714 388.744C436.455 388.744 439.639 389.679 442.267 391.55C444.894 393.396 446.646 395.906 447.522 399.078H448.091C449.203 395.953 451.216 393.455 454.127 391.585C457.063 389.691 460.531 388.744 464.532 388.744C469.622 388.744 473.753 390.366 476.926 393.609C480.122 396.829 481.72 401.398 481.72 407.317V444H466.627V410.3C466.627 407.269 465.823 404.997 464.213 403.482C462.603 401.966 460.591 401.209 458.176 401.209C455.43 401.209 453.287 402.085 451.748 403.837C450.209 405.565 449.44 407.849 449.44 410.69V444H434.774V409.98C434.774 407.305 434.004 405.174 432.466 403.588C430.95 402.002 428.95 401.209 426.464 401.209C424.783 401.209 423.268 401.635 421.919 402.487C420.593 403.316 419.539 404.488 418.758 406.003C417.977 407.494 417.586 409.246 417.586 411.259V444H402.458ZM515.896 445.065C510.285 445.065 505.455 443.929 501.407 441.656C497.382 439.36 494.281 436.116 492.103 431.926C489.925 427.712 488.836 422.729 488.836 416.976C488.836 411.365 489.925 406.441 492.103 402.203C494.281 397.965 497.347 394.663 501.301 392.295C505.278 389.928 509.942 388.744 515.292 388.744C518.891 388.744 522.24 389.324 525.342 390.484C528.467 391.621 531.189 393.337 533.509 395.634C535.853 397.93 537.676 400.818 538.978 404.298C540.28 407.755 540.931 411.803 540.931 416.443V420.598H494.873V411.223H526.691C526.691 409.045 526.218 407.116 525.271 405.435C524.324 403.754 523.01 402.44 521.329 401.493C519.672 400.522 517.742 400.037 515.541 400.037C513.244 400.037 511.208 400.57 509.433 401.635C507.681 402.677 506.308 404.085 505.313 405.861C504.319 407.613 503.81 409.566 503.786 411.72V420.634C503.786 423.332 504.283 425.664 505.278 427.629C506.296 429.594 507.728 431.109 509.575 432.175C511.421 433.24 513.611 433.773 516.144 433.773C517.825 433.773 519.364 433.536 520.761 433.062C522.158 432.589 523.353 431.879 524.347 430.932C525.342 429.985 526.099 428.825 526.62 427.452L540.612 428.375C539.901 431.737 538.445 434.672 536.244 437.182C534.066 439.668 531.248 441.609 527.792 443.006C524.359 444.379 520.394 445.065 515.896 445.065ZM563.3 412.466V444H548.172V389.455H562.589V399.078H563.229C564.436 395.906 566.46 393.396 569.301 391.55C572.142 389.679 575.587 388.744 579.635 388.744C583.423 388.744 586.725 389.573 589.543 391.23C592.36 392.887 594.55 395.255 596.112 398.332C597.675 401.386 598.456 405.032 598.456 409.27V444H583.328V411.969C583.352 408.631 582.499 406.027 580.771 404.156C579.043 402.262 576.664 401.315 573.633 401.315C571.597 401.315 569.798 401.753 568.236 402.629C566.697 403.505 565.489 404.784 564.614 406.464C563.761 408.122 563.323 410.122 563.3 412.466ZM636.76 389.455V400.818H603.912V389.455H636.76ZM611.369 376.386H626.497V427.239C626.497 428.635 626.71 429.724 627.136 430.506C627.563 431.263 628.154 431.796 628.912 432.104C629.693 432.411 630.593 432.565 631.611 432.565C632.321 432.565 633.031 432.506 633.742 432.388C634.452 432.246 634.996 432.139 635.375 432.068L637.754 443.325C636.997 443.562 635.931 443.834 634.558 444.142C633.185 444.473 631.516 444.675 629.551 444.746C625.905 444.888 622.709 444.402 619.963 443.29C617.241 442.177 615.122 440.449 613.607 438.105C612.091 435.761 611.346 432.802 611.369 429.227V376.386Z" fill="black"/>
<rect x="71" y="498" width="1038" height="19" fill="black"/>
</svg>
