<svg width="1200" height="900" viewBox="0 0 1200 900" fill="none" xmlns="http://www.w3.org/2000/svg">
<path fill-rule="evenodd" clip-rule="evenodd" d="M594.06 199.267V701.93C594.06 708.596 588.652 714 581.982 714H157.078C150.409 714 145 708.596 145 701.93V199.267C145 192.601 150.408 187.197 157.078 187.197H581.982C588.651 187.197 594.06 192.601 594.06 199.267Z" fill="#D2D2D2"/>
<path fill-rule="evenodd" clip-rule="evenodd" d="M222.036 689.861H576.669V699.127H222.036V689.861ZM222.036 674.952H576.669V684.217H222.036V674.952ZM222.036 660.752H576.669V670.018H222.036V660.752ZM162.043 203.527H576.669V212.757H162.043V203.527Z" fill="#A3A3A3"/>
<path fill-rule="evenodd" clip-rule="evenodd" d="M166.885 229.113H572.175C572.81 229.113 573.438 229.238 574.024 229.481C574.61 229.723 575.143 230.079 575.592 230.528C576.041 230.976 576.397 231.509 576.639 232.095C576.882 232.681 577.007 233.309 577.008 233.944V639.188C577.008 640.469 576.499 641.698 575.592 642.604C574.686 643.51 573.458 644.019 572.176 644.019H166.884C165.603 644.019 164.374 643.51 163.468 642.604C162.562 641.698 162.053 640.469 162.053 639.188V233.944C162.053 232.663 162.562 231.434 163.468 230.528C164.374 229.622 165.603 229.113 166.884 229.113H166.885Z" fill="white"/>
<path d="M184.649 658.195C184.242 658.219 183.845 658.325 183.479 658.506L167.642 666.057C167.234 666.251 166.875 666.535 166.592 666.888C166.309 667.24 166.11 667.652 166.009 668.092L162.13 685.046C162.038 685.44 162.028 685.849 162.101 686.247C162.175 686.645 162.33 687.023 162.556 687.358C162.611 687.441 162.668 687.52 162.728 687.597L173.67 701.2C174.248 701.91 175.117 702.318 176.032 702.315H193.582C194.035 702.312 194.482 702.21 194.89 702.015C195.299 701.821 195.66 701.538 195.947 701.188L206.884 687.581C207.457 686.871 207.672 685.933 207.452 685.043L203.55 668.076C203.448 667.636 203.248 667.225 202.965 666.872C202.683 666.52 202.324 666.236 201.917 666.041L186.103 658.507C185.647 658.282 185.142 658.175 184.635 658.196L184.649 658.195Z" fill="#4A4A4A"/>
<path d="M184.797 663.971C184.252 664.009 183.838 664.477 183.867 665.022V665.289C183.892 665.592 183.938 665.892 183.997 666.189C184.084 666.756 184.116 667.333 184.091 667.908C184.037 668.098 183.929 668.268 183.781 668.398L183.76 668.799C183.184 668.847 182.613 668.935 182.05 669.063C179.682 669.597 177.527 670.826 175.863 672.594L175.522 672.353C175.429 672.381 175.332 672.39 175.235 672.38C175.139 672.371 175.045 672.342 174.96 672.296C174.499 671.955 174.072 671.569 173.686 671.145C173.491 670.913 173.284 670.692 173.064 670.484L172.854 670.317C172.667 670.167 172.437 670.08 172.197 670.068C172.054 670.061 171.911 670.087 171.78 670.145C171.649 670.203 171.533 670.292 171.443 670.403C171.289 670.619 171.227 670.888 171.27 671.149C171.314 671.411 171.459 671.645 171.675 671.8L171.871 671.956C172.124 672.125 172.386 672.277 172.655 672.415C173.162 672.695 173.637 673.028 174.073 673.409C174.186 673.57 174.252 673.759 174.263 673.956L174.573 674.24C172.901 676.749 172.213 679.788 172.643 682.774L172.244 682.887C172.141 683.052 172.003 683.191 171.839 683.295C171.284 683.444 170.715 683.538 170.142 683.577C169.838 683.583 169.534 683.607 169.232 683.648L168.98 683.705H168.954C168.779 683.729 168.615 683.801 168.479 683.913C168.343 684.025 168.241 684.173 168.184 684.339C168.127 684.506 168.117 684.685 168.156 684.857C168.195 685.029 168.28 685.187 168.403 685.313C168.656 685.568 169.034 685.659 169.375 685.547H169.393L169.65 685.518C169.939 685.432 170.223 685.328 170.5 685.208C171.033 684.994 171.586 684.833 172.15 684.726C172.346 684.738 172.535 684.804 172.693 684.918L173.119 684.847C174.043 687.713 175.985 690.141 178.577 691.671L178.403 692.033C178.483 692.2 178.513 692.385 178.489 692.568C178.254 693.112 177.967 693.631 177.631 694.12C177.447 694.362 177.278 694.615 177.123 694.877L177.002 695.132C176.915 695.284 176.871 695.458 176.875 695.633C176.88 695.808 176.933 695.979 177.028 696.126C177.124 696.273 177.258 696.391 177.416 696.467C177.575 696.543 177.751 696.573 177.925 696.555C178.283 696.515 178.586 696.277 178.711 695.941L178.829 695.7C178.938 695.416 179.028 695.125 179.103 694.833C179.354 694.212 179.491 693.546 179.834 693.134C179.946 693.028 180.088 692.958 180.241 692.934L180.454 692.546C183.263 693.626 186.373 693.634 189.188 692.568L189.377 692.931C189.57 692.96 189.744 693.065 189.86 693.222C190.127 693.73 190.343 694.263 190.508 694.813C190.583 695.108 190.676 695.398 190.784 695.681L190.902 695.923C190.964 696.087 191.07 696.231 191.209 696.339C191.348 696.446 191.513 696.513 191.688 696.533C191.862 696.552 192.039 696.523 192.197 696.448C192.356 696.373 192.491 696.256 192.588 696.11C192.783 695.808 192.792 695.423 192.611 695.113L192.487 694.857C192.332 694.596 192.163 694.344 191.979 694.103C191.653 693.628 191.368 693.125 191.127 692.601C191.104 692.504 191.101 692.404 191.117 692.307C191.134 692.209 191.17 692.116 191.223 692.033C191.162 691.909 191.11 691.781 191.065 691.651C193.652 690.108 195.585 687.672 196.498 684.801L196.901 684.872C197.046 684.741 197.236 684.67 197.432 684.676C197.995 684.785 198.548 684.96 199.082 685.159C199.36 685.287 199.644 685.395 199.933 685.487C200.001 685.504 200.101 685.52 200.177 685.539H200.195C200.363 685.593 200.543 685.6 200.714 685.558C200.885 685.516 201.042 685.428 201.165 685.302C201.289 685.177 201.376 685.019 201.416 684.848C201.456 684.676 201.447 684.496 201.391 684.329C201.333 684.163 201.231 684.015 201.094 683.903C200.958 683.791 200.793 683.719 200.619 683.696L200.344 683.631C200.041 683.59 199.737 683.566 199.432 683.56C198.859 683.523 198.29 683.429 197.735 683.279C197.564 683.183 197.423 683.042 197.327 682.87L196.943 682.757C197.352 679.773 196.65 676.743 194.973 674.241L195.308 673.931C195.295 673.736 195.358 673.543 195.485 673.394C195.921 673.02 196.392 672.689 196.891 672.405C197.162 672.268 197.424 672.114 197.676 671.946L197.883 671.778C197.998 671.707 198.096 671.613 198.172 671.501C198.247 671.39 198.298 671.264 198.322 671.131C198.345 670.998 198.339 670.862 198.306 670.732C198.273 670.601 198.212 670.479 198.128 670.374C198.044 670.269 197.939 670.182 197.819 670.121C197.699 670.059 197.568 670.023 197.433 670.016C197.299 670.009 197.164 670.031 197.039 670.08C196.913 670.128 196.799 670.203 196.705 670.299L196.495 670.468C196.275 670.676 196.068 670.896 195.873 671.128C195.499 671.557 195.083 671.948 194.634 672.297C194.452 672.371 194.253 672.392 194.059 672.359L193.7 672.616C191.624 670.441 188.829 669.092 185.834 668.822C185.834 668.68 185.816 668.467 185.813 668.4C185.651 668.29 185.54 668.12 185.502 667.928C185.483 667.355 185.519 666.781 185.611 666.214C185.673 665.915 185.714 665.617 185.742 665.314V665.03C185.756 664.768 185.666 664.51 185.492 664.314C185.317 664.117 185.072 663.996 184.81 663.979L184.798 663.972L184.797 663.971ZM183.612 671.31L183.328 676.275H183.307C183.298 676.425 183.25 676.57 183.167 676.696C183.084 676.822 182.969 676.924 182.835 676.991C182.7 677.06 182.548 677.089 182.397 677.075C182.247 677.061 182.103 677.005 181.983 676.914L177.911 674.029C179.207 672.757 180.833 671.871 182.606 671.473C182.937 671.402 183.272 671.348 183.609 671.311H183.612V671.31ZM185.982 671.31C188.12 671.576 190.112 672.537 191.653 674.043L187.62 676.91C187.498 677.008 187.351 677.069 187.195 677.088C187.04 677.106 186.883 677.08 186.741 677.013C186.6 676.946 186.48 676.841 186.396 676.709C186.311 676.578 186.266 676.425 186.264 676.268L185.982 671.311L185.982 671.31ZM176.432 675.897L180.156 679.218V679.24C180.27 679.339 180.354 679.467 180.4 679.611C180.447 679.754 180.453 679.908 180.42 680.055C180.386 680.202 180.313 680.337 180.209 680.446C180.105 680.555 179.973 680.634 179.828 680.674V680.688L175.05 682.062C174.813 679.909 175.3 677.739 176.434 675.894L176.432 675.897ZM193.135 675.897C194.266 677.736 194.766 679.895 194.559 682.045L189.774 680.667V680.648C189.628 680.609 189.495 680.531 189.391 680.422C189.286 680.312 189.214 680.177 189.181 680.029C189.148 679.882 189.155 679.729 189.201 679.585C189.248 679.441 189.332 679.313 189.445 679.213L193.14 675.908L193.135 675.897ZM184.034 679.478H185.557L186.489 680.66L186.15 682.137L184.782 682.794L183.411 682.137L183.088 680.66L184.034 679.478ZM188.914 683.51C188.977 683.503 189.042 683.503 189.105 683.51L194.033 684.341C193.312 686.391 191.924 688.139 190.09 689.304L188.185 684.695C188.133 684.571 188.111 684.437 188.122 684.303C188.132 684.169 188.175 684.04 188.246 683.926C188.316 683.812 188.414 683.717 188.529 683.648C188.644 683.579 188.774 683.539 188.908 683.531L188.914 683.51ZM180.639 683.531C180.776 683.534 180.91 683.57 181.03 683.636C181.15 683.702 181.252 683.797 181.327 683.912C181.401 684.027 181.446 684.158 181.458 684.294C181.47 684.431 181.447 684.568 181.393 684.693V684.711L179.501 689.284C177.69 688.123 176.312 686.396 175.581 684.372L180.466 683.544C180.521 683.538 180.576 683.538 180.631 683.544L180.64 683.531H180.639ZM184.766 685.519C185.083 685.511 185.378 685.679 185.529 685.958H185.547L187.954 690.302L186.992 690.586C185.221 690.991 183.373 690.896 181.652 690.311L184.068 685.967C184.14 685.841 184.244 685.737 184.368 685.663C184.492 685.59 184.634 685.55 184.778 685.547L184.766 685.52V685.519Z" fill="white" stroke="white" stroke-width="0.443735"/>
<path fill-rule="evenodd" clip-rule="evenodd" d="M1055.55 199.267V701.93C1055.55 708.596 1050.14 714 1043.47 714H618.565C611.895 714 606.486 708.596 606.486 701.93V199.267C606.486 192.601 611.895 187.197 618.565 187.197H1043.47C1050.14 187.197 1055.55 192.601 1055.55 199.267Z" fill="#D2D2D2"/>
<path fill-rule="evenodd" clip-rule="evenodd" d="M683.522 689.861H1038.16V699.127H683.522V689.861ZM683.522 674.952H1038.16V684.217H683.522V674.952ZM683.522 660.752H1038.16V670.018H683.522V660.752ZM623.529 203.527H1038.16V212.757H623.529V203.527Z" fill="#A3A3A3"/>
<path fill-rule="evenodd" clip-rule="evenodd" d="M628.369 229.113H1033.66C1034.29 229.113 1034.92 229.238 1035.51 229.481C1036.09 229.723 1036.63 230.079 1037.08 230.528C1037.52 230.976 1037.88 231.509 1038.12 232.095C1038.37 232.681 1038.49 233.309 1038.49 233.944V639.188C1038.49 640.469 1037.98 641.698 1037.08 642.604C1036.17 643.51 1034.94 644.019 1033.66 644.019H628.369C627.087 644.019 625.858 643.51 624.952 642.604C624.046 641.698 623.537 640.469 623.537 639.188V233.944C623.537 232.663 624.046 231.434 624.953 230.528C625.859 229.622 627.087 229.113 628.369 229.113H628.369Z" fill="white"/>
<path d="M646.133 658.195C645.727 658.219 645.329 658.325 644.964 658.506L629.126 666.057C628.718 666.251 628.359 666.535 628.077 666.888C627.794 667.24 627.594 667.652 627.493 668.092L623.615 685.046C623.522 685.44 623.512 685.849 623.586 686.247C623.659 686.645 623.814 687.023 624.041 687.358C624.096 687.441 624.153 687.52 624.212 687.597L635.155 701.2C635.732 701.91 636.601 702.318 637.516 702.315H655.067C655.519 702.312 655.966 702.21 656.375 702.015C656.783 701.821 657.144 701.538 657.431 701.188L668.368 687.581C668.941 686.871 669.156 685.933 668.936 685.043L665.034 668.076C664.932 667.636 664.732 667.225 664.45 666.872C664.167 666.52 663.808 666.236 663.401 666.041L647.587 658.507C647.131 658.282 646.627 658.175 646.119 658.196L646.133 658.195Z" fill="#4A4A4A"/>
<path d="M646.281 663.971C645.736 664.009 645.323 664.477 645.351 665.022V665.289C645.376 665.592 645.422 665.892 645.482 666.189C645.569 666.756 645.6 667.333 645.576 667.908C645.521 668.098 645.413 668.268 645.265 668.398L645.245 668.799C644.669 668.847 644.097 668.935 643.534 669.063C641.166 669.597 639.011 670.826 637.347 672.594L637.006 672.353C636.913 672.381 636.816 672.39 636.72 672.38C636.623 672.371 636.53 672.342 636.444 672.296C635.983 671.955 635.556 671.569 635.17 671.145C634.976 670.913 634.768 670.692 634.549 670.484L634.338 670.317C634.151 670.167 633.921 670.08 633.682 670.068C633.539 670.061 633.396 670.087 633.264 670.145C633.133 670.203 633.018 670.292 632.927 670.403C632.773 670.619 632.711 670.888 632.755 671.149C632.798 671.411 632.943 671.645 633.159 671.8L633.355 671.956C633.608 672.125 633.87 672.277 634.14 672.415C634.646 672.695 635.122 673.028 635.558 673.409C635.671 673.57 635.736 673.759 635.747 673.956L636.058 674.24C634.385 676.749 633.698 679.788 634.127 682.774L633.729 682.887C633.626 683.052 633.487 683.191 633.323 683.295C632.768 683.444 632.2 683.538 631.626 683.577C631.322 683.583 631.018 683.607 630.717 683.648L630.465 683.705H630.438C630.264 683.729 630.099 683.801 629.963 683.913C629.828 684.025 629.725 684.173 629.668 684.339C629.611 684.506 629.602 684.685 629.64 684.857C629.679 685.029 629.765 685.187 629.888 685.313C630.141 685.568 630.518 685.659 630.86 685.547H630.877L631.135 685.518C631.424 685.432 631.707 685.328 631.984 685.208C632.517 684.994 633.07 684.833 633.635 684.726C633.831 684.738 634.019 684.804 634.178 684.918L634.604 684.847C635.527 687.713 637.469 690.141 640.062 691.671L639.888 692.033C639.968 692.2 639.997 692.385 639.973 692.568C639.738 693.112 639.451 693.631 639.116 694.12C638.932 694.362 638.762 694.615 638.607 694.877L638.487 695.132C638.399 695.284 638.355 695.458 638.36 695.633C638.364 695.808 638.417 695.979 638.513 696.126C638.608 696.273 638.742 696.391 638.901 696.467C639.059 696.543 639.235 696.573 639.409 696.555C639.767 696.515 640.071 696.277 640.196 695.941L640.314 695.7C640.422 695.416 640.513 695.125 640.587 694.833C640.838 694.212 640.975 693.546 641.318 693.134C641.431 693.028 641.572 692.958 641.725 692.934L641.938 692.546C644.748 693.626 647.857 693.634 650.672 692.568L650.861 692.931C651.054 692.96 651.228 693.065 651.344 693.222C651.611 693.73 651.828 694.263 651.992 694.813C652.067 695.108 652.161 695.398 652.268 695.681L652.386 695.923C652.448 696.087 652.554 696.231 652.693 696.339C652.832 696.446 652.998 696.513 653.172 696.533C653.347 696.552 653.523 696.523 653.682 696.448C653.841 696.373 653.976 696.256 654.072 696.11C654.268 695.808 654.276 695.423 654.095 695.113L653.971 694.857C653.817 694.596 653.647 694.344 653.463 694.103C653.137 693.628 652.852 693.125 652.611 692.601C652.589 692.504 652.585 692.404 652.602 692.307C652.618 692.209 652.654 692.116 652.707 692.033C652.647 691.909 652.594 691.781 652.549 691.651C655.136 690.108 657.069 687.672 657.982 684.801L658.385 684.872C658.53 684.741 658.72 684.67 658.916 684.676C659.48 684.785 660.033 684.96 660.567 685.159C660.845 685.287 661.129 685.395 661.417 685.487C661.485 685.504 661.586 685.52 661.661 685.539H661.68C661.847 685.593 662.027 685.6 662.198 685.558C662.37 685.516 662.526 685.428 662.65 685.302C662.774 685.177 662.86 685.019 662.9 684.848C662.94 684.676 662.931 684.496 662.875 684.329C662.818 684.163 662.715 684.015 662.579 683.903C662.442 683.791 662.278 683.719 662.103 683.696L661.828 683.631C661.526 683.59 661.221 683.566 660.916 683.56C660.343 683.523 659.775 683.429 659.22 683.279C659.049 683.183 658.907 683.042 658.811 682.87L658.427 682.757C658.836 679.773 658.135 676.743 656.457 674.241L656.792 673.931C656.779 673.736 656.843 673.543 656.97 673.394C657.406 673.02 657.876 672.689 658.376 672.405C658.646 672.268 658.908 672.114 659.16 671.946L659.368 671.778C659.482 671.707 659.581 671.613 659.656 671.501C659.732 671.39 659.783 671.264 659.806 671.131C659.829 670.998 659.824 670.862 659.79 670.732C659.757 670.601 659.696 670.479 659.612 670.374C659.528 670.269 659.423 670.182 659.303 670.121C659.184 670.059 659.052 670.023 658.918 670.016C658.783 670.009 658.649 670.031 658.523 670.08C658.398 670.128 658.284 670.203 658.189 670.299L657.979 670.468C657.759 670.676 657.552 670.896 657.358 671.128C656.983 671.557 656.568 671.948 656.118 672.297C655.936 672.371 655.737 672.392 655.544 672.359L655.184 672.616C653.108 670.441 650.314 669.092 647.319 668.822C647.319 668.68 647.301 668.467 647.297 668.4C647.136 668.29 647.024 668.12 646.987 667.928C646.967 667.355 647.003 666.781 647.095 666.214C647.157 665.915 647.199 665.617 647.226 665.314V665.03C647.24 664.768 647.15 664.51 646.976 664.314C646.802 664.117 646.557 663.996 646.294 663.979L646.282 663.972L646.281 663.971ZM645.096 671.31L644.812 676.275H644.791C644.782 676.425 644.734 676.57 644.651 676.696C644.568 676.822 644.454 676.924 644.319 676.991C644.184 677.06 644.033 677.089 643.882 677.075C643.731 677.061 643.587 677.005 643.467 676.914L639.395 674.029C640.691 672.757 642.318 671.871 644.09 671.473C644.422 671.402 644.757 671.348 645.094 671.311H645.096V671.31ZM647.466 671.31C649.605 671.576 651.596 672.537 653.137 674.043L649.104 676.91C648.982 677.008 648.835 677.069 648.68 677.088C648.524 677.106 648.367 677.08 648.226 677.013C648.084 676.946 647.964 676.841 647.88 676.709C647.796 676.578 647.75 676.425 647.748 676.268L647.467 671.311L647.466 671.31ZM637.917 675.897L641.641 679.218V679.24C641.754 679.339 641.838 679.467 641.885 679.611C641.931 679.754 641.938 679.908 641.904 680.055C641.871 680.202 641.798 680.337 641.694 680.446C641.589 680.555 641.458 680.634 641.312 680.674V680.688L636.534 682.062C636.297 679.909 636.785 677.739 637.919 675.894L637.917 675.897ZM654.619 675.897C655.75 677.736 656.251 679.895 656.043 682.045L651.258 680.667V680.648C651.112 680.609 650.98 680.531 650.875 680.422C650.771 680.312 650.698 680.177 650.665 680.029C650.632 679.882 650.639 679.729 650.686 679.585C650.732 679.441 650.816 679.313 650.93 679.213L654.624 675.908L654.619 675.897ZM645.519 679.478H647.042L647.974 680.66L647.635 682.137L646.266 682.794L644.895 682.137L644.572 680.66L645.519 679.478ZM650.398 683.51C650.462 683.503 650.526 683.503 650.59 683.51L655.517 684.341C654.797 686.391 653.408 688.139 651.574 689.304L649.67 684.695C649.617 684.571 649.596 684.437 649.606 684.303C649.617 684.169 649.659 684.04 649.73 683.926C649.801 683.812 649.898 683.717 650.013 683.648C650.129 683.579 650.259 683.539 650.393 683.531L650.398 683.51ZM642.123 683.531C642.26 683.534 642.395 683.57 642.515 683.636C642.635 683.702 642.736 683.797 642.811 683.912C642.886 684.027 642.931 684.158 642.942 684.294C642.954 684.431 642.932 684.568 642.878 684.693V684.711L640.986 689.284C639.174 688.123 637.796 686.396 637.066 684.372L641.95 683.544C642.005 683.538 642.061 683.538 642.115 683.544L642.124 683.531H642.123ZM646.25 685.519C646.567 685.511 646.862 685.679 647.013 685.958H647.031L649.439 690.302L648.477 690.586C646.706 690.991 644.857 690.896 643.137 690.311L645.553 685.967C645.625 685.841 645.728 685.737 645.852 685.663C645.977 685.59 646.118 685.55 646.263 685.547L646.25 685.52V685.519Z" fill="white" stroke="white" stroke-width="0.443735"/>
<path d="M748.871 74.5553C748.563 75.24 748.163 76.0284 747.671 76.9203C747.21 77.8127 746.66 78.6589 746.02 79.459C745.411 80.2596 744.698 80.9389 743.881 81.4971C743.065 82.0552 742.163 82.3277 741.175 82.3145C740.726 82.3085 740.367 82.2587 740.099 82.1653C739.861 82.0423 739.638 81.8746 739.432 81.6622C739.255 81.4502 739.078 81.1932 738.903 80.8914C738.757 80.5899 738.567 80.2579 738.332 79.8954C738.262 78.4269 738.223 76.8539 738.215 75.1766C738.238 73.4697 738.351 71.779 738.553 70.1045C738.755 68.4 739.076 66.802 739.515 65.3103C739.985 63.819 740.615 62.5546 741.408 61.5169C742.231 60.4796 743.244 59.7444 744.448 59.3112C745.651 58.8781 747.104 58.8675 748.806 59.2796C748.907 58.4424 748.937 57.3196 748.896 55.9114C748.855 54.5032 748.785 53.0197 748.686 51.4609C748.587 49.9022 748.487 48.4033 748.386 46.9643C748.286 45.4954 748.227 44.2966 748.21 43.3679C748.213 43.0984 748.336 42.9054 748.577 42.7888C748.849 42.6427 749.134 42.5566 749.434 42.5307C749.734 42.5047 750.018 42.5085 750.287 42.5421C750.587 42.576 750.781 42.6236 750.87 42.6846C750.76 46.3671 750.697 49.9903 750.679 53.5542C750.662 57.0881 750.645 60.622 750.628 64.156C750.641 67.6604 750.654 71.1498 750.667 74.6242C750.681 78.0987 750.664 81.5727 750.618 85.0464C750.613 85.3758 750.579 85.7198 750.514 86.0783C750.479 86.4672 750.222 86.6584 749.743 86.652C749.563 86.6496 749.384 86.5873 749.206 86.4651C749.028 86.3729 748.91 86.2216 748.853 86.0112L748.871 74.5553ZM747.114 61.5033C746.186 61.431 745.313 61.7937 744.494 62.5914C743.705 63.3596 743.002 64.3685 742.387 65.6182C741.801 66.8683 741.318 68.2546 740.938 69.777C740.559 71.2694 740.315 72.7188 740.206 74.125C740.128 75.5017 740.201 76.7306 740.427 77.8119C740.682 78.8935 741.136 79.6334 741.79 80.0315C742.448 80.0403 743.066 79.7939 743.641 79.2925C744.218 78.7611 744.751 78.0943 745.241 77.2922C745.73 76.4901 746.162 75.5973 746.534 74.6139C746.907 73.6006 747.22 72.6314 747.472 71.7063C747.754 70.7816 747.959 69.9457 748.089 69.1987C748.249 68.4221 748.332 67.8392 748.337 67.4499C748.341 67.1504 748.363 66.6715 748.401 66.0131C748.44 65.3547 748.434 64.6957 748.383 64.0361C748.332 63.3765 748.205 62.7908 748.002 62.2789C747.829 61.7675 747.533 61.5089 747.114 61.5033ZM754.91 73.1535C754.76 73.1814 754.535 73.2233 754.234 73.2792C753.934 73.3351 753.62 73.3459 753.291 73.3115C752.962 73.2772 752.678 73.1835 752.441 73.0306C752.173 72.8773 752.042 72.621 752.047 72.2616C752.049 72.052 752.096 71.9029 752.187 71.8142C752.278 71.7256 752.43 71.5928 752.642 71.416C753.308 70.8858 753.871 70.2044 754.332 69.372C754.822 68.51 755.269 67.6024 755.671 66.6494C756.073 65.6664 756.491 64.6986 756.923 63.7459C757.385 62.7638 757.906 61.8872 758.485 61.1162C759.065 60.3452 759.777 59.7258 760.622 59.2579C761.466 58.79 762.503 58.5792 763.73 58.6255C764.239 58.6323 764.806 58.7597 765.432 59.0077C766.058 59.2557 766.637 59.5929 767.171 60.0193C767.704 60.4158 768.147 60.9009 768.499 61.4747C768.851 62.0485 769.022 62.6797 769.013 63.3684C769.159 63.61 769.005 63.9524 768.55 64.3956C768.125 64.8391 767.534 65.3254 766.778 65.8544C766.023 66.3535 765.162 66.8811 764.196 67.4372C763.261 67.9638 762.356 68.4609 761.481 68.9284C760.606 69.3959 759.837 69.805 759.173 70.1555C758.509 70.506 758.072 70.7697 757.86 70.9466C757.706 71.2441 757.582 71.5868 757.487 71.9749C757.391 72.363 757.312 72.7363 757.247 73.0949C757.213 73.4239 757.178 73.7379 757.144 74.0369C757.141 74.3064 757.138 74.5161 757.136 74.6658C757.128 75.2347 757.09 75.8632 757.021 76.5511C756.982 77.2395 757.003 77.8987 757.084 78.5287C757.196 79.1292 757.444 79.6417 757.828 80.0661C758.212 80.4606 758.868 80.6641 759.796 80.6765C760.784 80.6897 761.716 80.4625 762.591 79.995C763.466 79.4976 764.283 78.8945 765.041 78.1858C765.799 77.4771 766.483 76.7076 767.093 75.8771C767.733 75.0471 768.298 74.2759 768.787 73.5636C769.306 72.8218 769.763 72.2139 770.159 71.74C770.554 71.2661 770.887 71.0309 771.157 71.0345C771.456 71.0385 771.77 71.1026 772.097 71.2268C772.456 71.3214 772.632 71.5634 772.627 71.9527C772.62 72.4917 772.386 73.1325 771.927 73.8751C771.498 74.6182 770.918 75.4041 770.189 76.233C769.489 77.0622 768.669 77.8899 767.729 78.7159C766.82 79.5125 765.897 80.2339 764.96 80.8803C764.023 81.4967 763.103 82.0086 762.199 82.4158C761.295 82.7931 760.499 82.9771 759.81 82.9679C758.463 82.9499 757.449 82.6069 756.769 81.9389C756.089 81.2709 755.606 80.4408 755.32 79.4486C755.064 78.4568 754.928 77.4067 754.913 76.2983C754.928 75.1604 754.927 74.1121 754.91 73.1535ZM763.337 61.1361C762.828 61.1293 762.286 61.3767 761.71 61.8781C761.134 62.3496 760.587 62.9413 760.069 63.6532C759.58 64.3356 759.166 65.0488 758.827 65.7931C758.518 66.5077 758.36 67.1047 758.354 67.5838C758.803 67.5898 759.449 67.4337 760.292 67.1155C761.165 66.7678 762.024 66.345 762.87 65.8471C763.715 65.3492 764.456 64.82 765.092 64.2595C765.729 63.6989 766.05 63.1641 766.057 62.655C766.061 62.3855 765.959 62.1596 765.752 61.9771C765.545 61.7946 765.292 61.6415 764.994 61.5177C764.726 61.3943 764.443 61.3007 764.144 61.2368C763.846 61.1729 763.577 61.1393 763.337 61.1361ZM775.698 80.8441C775.926 79.4694 776.084 77.7494 776.171 75.684C776.288 73.619 776.348 71.4184 776.349 69.0822C776.38 66.7465 776.368 64.3353 776.311 61.8487C776.254 59.362 776.166 57.0097 776.046 54.7918C775.926 52.5439 775.773 50.5351 775.587 48.7656C775.431 46.9964 775.255 45.6013 775.059 44.5804C775.331 44.4043 775.558 44.2726 775.738 44.1851C775.95 44.0682 776.19 44.0115 776.46 44.0151C776.669 44.0179 776.848 44.0652 776.997 44.157C777.146 44.2189 777.263 44.3703 777.35 44.611C777.871 50.4883 778.196 56.4079 778.326 62.3698C778.486 68.3321 778.586 74.2637 778.627 80.1645C778.623 80.434 778.618 80.8083 778.612 81.2874C778.606 81.7366 778.588 81.976 778.557 82.0055C778.135 82.2095 777.76 82.3093 777.43 82.3049C777.101 82.2706 776.803 82.1767 776.536 82.0234C776.268 81.8401 776.061 81.6427 775.915 81.4311C775.768 81.2194 775.695 81.0238 775.698 80.8441ZM782.49 73.5221C782.339 73.5501 782.114 73.592 781.814 73.6479C781.514 73.7038 781.199 73.7145 780.87 73.6802C780.541 73.6458 780.258 73.5522 780.02 73.3993C779.753 73.246 779.621 72.9896 779.626 72.6303C779.629 72.4207 779.676 72.2715 779.767 72.1829C779.858 72.0943 780.01 71.9615 780.222 71.7846C780.888 71.2544 781.451 70.5731 781.911 69.7406C782.402 68.8786 782.848 67.9711 783.25 67.0181C783.653 66.0351 784.07 65.0672 784.502 64.1146C784.965 63.1324 785.485 62.2558 786.065 61.4849C786.644 60.7139 787.356 60.0945 788.201 59.6265C789.046 59.1586 790.082 58.9478 791.31 58.9942C791.819 59.001 792.386 59.1284 793.012 59.3764C793.637 59.6243 794.217 59.9615 794.75 60.388C795.284 60.7845 795.727 61.2696 796.079 61.8434C796.43 62.4171 796.602 63.0484 796.592 63.7371C796.739 63.9787 796.584 64.321 796.129 64.7642C795.704 65.2078 795.114 65.6941 794.358 66.2231C793.602 66.7221 792.742 67.2498 791.776 67.8059C790.84 68.3325 789.935 68.8296 789.06 69.2971C788.185 69.7646 787.416 70.1736 786.753 70.5242C786.089 70.8747 785.651 71.1384 785.439 71.3153C785.286 71.6127 785.161 71.9555 785.066 72.3436C784.971 72.7317 784.891 73.105 784.826 73.4635C784.792 73.7925 784.758 74.1065 784.724 74.4056C784.72 74.6751 784.718 74.8847 784.716 75.0344C784.708 75.6034 784.67 76.2319 784.601 76.9198C784.561 77.6081 784.583 78.2673 784.664 78.8974C784.776 79.4979 785.024 80.0104 785.407 80.4348C785.791 80.8293 786.447 81.0327 787.376 81.0452C788.364 81.0584 789.295 80.8312 790.17 80.3637C791.045 79.8662 791.862 79.2632 792.62 78.5545C793.379 77.8458 794.063 77.0762 794.673 76.2458C795.313 75.4157 795.877 74.6445 796.366 73.9323C796.885 73.1904 797.343 72.5826 797.738 72.1086C798.134 71.6347 798.467 71.3996 798.736 71.4032C799.036 71.4072 799.349 71.4713 799.677 71.5954C800.035 71.6901 800.212 71.932 800.206 72.3213C800.199 72.8603 799.966 73.5012 799.507 74.2438C799.078 74.9868 798.498 75.7728 797.768 76.6016C797.068 77.4309 796.248 78.2585 795.309 79.0846C794.4 79.8811 793.477 80.6026 792.54 81.249C791.603 81.8654 790.682 82.3772 789.779 82.7845C788.875 83.1617 788.079 83.3458 787.39 83.3366C786.043 83.3185 785.029 82.9755 784.349 82.3075C783.669 81.6395 783.186 80.8094 782.9 79.8172C782.643 78.8254 782.508 77.7754 782.492 76.667C782.508 75.5291 782.507 74.4808 782.49 73.5221ZM790.917 61.5048C790.407 61.498 789.865 61.7453 789.289 62.2468C788.714 62.7183 788.167 63.31 787.648 64.0219C787.16 64.7042 786.746 65.4175 786.407 66.1617C786.098 66.8764 785.94 67.4733 785.933 67.9524C786.383 67.9584 787.029 67.8023 787.872 67.4842C788.745 67.1364 789.604 66.7136 790.449 66.2158C791.295 65.7179 792.035 65.1887 792.672 64.6281C793.308 64.0676 793.63 63.5328 793.637 63.0237C793.64 62.7542 793.539 62.5282 793.331 62.3457C793.124 62.1633 792.872 62.0101 792.574 61.8864C792.306 61.763 792.023 61.6693 791.724 61.6054C791.425 61.5415 791.156 61.508 790.917 61.5048ZM803.773 64.3273C803.471 64.473 803.184 64.6339 802.913 64.81C802.671 64.9565 802.429 65.103 802.188 65.2495C801.947 65.3661 801.706 65.4527 801.466 65.5094C801.225 65.5661 800.971 65.5627 800.702 65.4992C800.522 65.4968 800.374 65.39 800.257 65.1788C800.14 64.9376 800.054 64.6819 799.998 64.4116C799.912 64.1109 799.856 63.8257 799.829 63.5557C799.803 63.2559 799.806 63.0313 799.838 62.882L804.184 60.4691L804.607 48.9738C804.672 48.5853 804.913 48.4388 805.331 48.5342C805.75 48.5997 806.183 48.6953 806.63 48.8211C806.69 48.8219 806.78 48.8531 806.899 48.9146C807.048 48.9465 807.152 48.9778 807.212 49.0086C807.141 49.8163 807.055 50.6987 806.952 51.6557C806.88 52.5832 806.807 53.5257 806.734 54.4832C806.662 55.4107 806.605 56.3234 806.563 57.2214C806.551 58.1197 806.585 58.9288 806.665 59.6487L813.428 57.8522C813.549 57.8239 813.637 57.9149 813.694 58.1253C813.782 58.3062 813.854 58.5318 813.91 58.8021C813.996 59.0728 814.052 59.3431 814.079 59.613C814.105 59.8829 814.118 60.0179 814.118 60.0179L806.439 63.1499C806.435 63.4194 806.442 64.0634 806.458 65.082C806.504 66.1009 806.548 67.3145 806.589 68.7227C806.631 70.101 806.67 71.5991 806.709 73.2169C806.747 74.8048 806.787 76.2879 806.829 77.6662C806.87 79.0445 806.899 80.2579 806.915 81.3063C806.931 82.3249 806.938 82.9689 806.934 83.2384C806.862 84.136 806.587 84.5815 806.108 84.5751C805.658 84.5691 805.167 84.3379 804.634 83.8816L803.773 64.3273ZM816.088 73.9713C815.938 73.9992 815.713 74.0411 815.413 74.097C815.112 74.1529 814.798 74.1637 814.469 74.1293C814.14 74.095 813.856 74.0013 813.619 73.8484C813.351 73.6951 813.22 73.4387 813.225 73.0794C813.228 72.8698 813.275 72.7206 813.366 72.632C813.457 72.5434 813.608 72.4106 813.82 72.2338C814.486 71.7035 815.049 71.0222 815.51 70.1898C816 69.3277 816.447 68.4202 816.849 67.4672C817.251 66.4842 817.669 65.5164 818.101 64.5637C818.563 63.5815 819.084 62.705 819.663 61.934C820.243 61.163 820.955 60.5436 821.8 60.0757C822.645 59.6077 823.681 59.397 824.908 59.4433C825.417 59.4501 825.985 59.5775 826.61 59.8255C827.236 60.0734 827.815 60.4106 828.349 60.8371C828.883 61.2336 829.325 61.7187 829.677 62.2925C830.029 62.8662 830.2 63.4975 830.191 64.1862C830.337 64.4278 830.183 64.7702 829.728 65.2133C829.303 65.6569 828.712 66.1432 827.956 66.6722C827.201 67.1713 826.34 67.6989 825.374 68.255C824.439 68.7816 823.534 69.2787 822.659 69.7462C821.784 70.2137 821.015 70.6227 820.351 70.9733C819.688 71.3238 819.25 71.5875 819.038 71.7644C818.884 72.0618 818.76 72.4046 818.665 72.7927C818.57 73.1808 818.49 73.5541 818.425 73.9126C818.391 74.2416 818.357 74.5557 818.323 74.8547C818.319 75.1242 818.316 75.3338 818.314 75.4836C818.307 76.0525 818.268 76.681 818.199 77.3689C818.16 78.0573 818.181 78.7165 818.263 79.3465C818.374 79.947 818.622 80.4595 819.006 80.8839C819.39 81.2784 820.046 81.4819 820.974 81.4943C821.963 81.5075 822.894 81.2803 823.769 80.8128C824.644 80.3153 825.461 79.7123 826.219 79.0036C826.977 78.2949 827.661 77.5254 828.272 76.6949C828.912 75.8648 829.476 75.0937 829.965 74.3814C830.484 73.6396 830.941 73.0317 831.337 72.5578C831.733 72.0838 832.065 71.8487 832.335 71.8523C832.634 71.8563 832.948 71.9204 833.276 72.0446C833.634 72.1392 833.81 72.3812 833.805 72.7705C833.798 73.3095 833.565 73.9503 833.105 74.6929C832.676 75.4359 832.097 76.2219 831.367 77.0507C830.667 77.88 829.847 78.7077 828.907 79.5337C827.998 80.3302 827.075 81.0517 826.138 81.6981C825.201 82.3145 824.281 82.8263 823.377 83.2336C822.474 83.6109 821.677 83.7949 820.989 83.7857C819.641 83.7677 818.627 83.4247 817.947 82.7567C817.267 82.0887 816.784 81.2586 816.498 80.2664C816.242 79.2746 816.106 78.2245 816.091 77.1161C816.106 75.9782 816.105 74.9299 816.088 73.9713ZM824.515 61.9539C824.006 61.9471 823.464 62.1944 822.888 62.6959C822.313 63.1674 821.765 63.7591 821.247 64.471C820.758 65.1533 820.345 65.8666 820.005 66.6108C819.696 67.3255 819.538 67.9224 819.532 68.4016C819.981 68.4076 820.627 68.2515 821.47 67.9333C822.343 67.5855 823.203 67.1627 824.048 66.6649C824.893 66.167 825.634 65.6378 826.27 65.0773C826.907 64.5167 827.228 63.9819 827.235 63.4728C827.239 63.2033 827.137 62.9773 826.93 62.7949C826.723 62.6124 826.47 62.4593 826.172 62.3355C825.904 62.2121 825.621 62.1184 825.322 62.0546C825.024 61.9907 824.755 61.9571 824.515 61.9539ZM845.849 75.8516C845.54 76.5364 845.14 77.3247 844.649 78.2167C844.188 79.109 843.638 79.9553 842.998 80.7554C842.388 81.5559 841.675 82.2352 840.859 82.7934C840.043 83.3515 839.141 83.624 838.153 83.6108C837.703 83.6048 837.345 83.5551 837.076 83.4616C836.838 83.3386 836.616 83.1709 836.409 82.9585C836.232 82.7465 836.056 82.4896 835.88 82.1877C835.735 81.8863 835.544 81.5543 835.31 81.1917C835.24 79.7232 835.201 78.1503 835.193 76.4729C835.216 74.7661 835.328 73.0753 835.53 71.4008C835.733 69.6963 836.054 68.0983 836.493 66.6066C836.962 65.1154 837.593 63.8509 838.386 62.8132C839.208 61.7759 840.221 61.0407 841.425 60.6075C842.629 60.1744 844.082 60.1638 845.783 60.576C845.885 59.7387 845.915 58.6159 845.873 57.2077C845.832 55.7995 845.762 54.316 845.663 52.7572C845.564 51.1985 845.465 49.6996 845.364 48.2607C845.264 46.7917 845.205 45.5929 845.188 44.6642C845.191 44.3947 845.313 44.2017 845.555 44.0851C845.826 43.939 846.112 43.8529 846.412 43.827C846.712 43.8011 846.996 43.8049 847.265 43.8384C847.564 43.8724 847.758 43.9199 847.847 43.981C847.738 47.6634 847.675 51.2866 847.657 54.8505C847.64 58.3844 847.622 61.9184 847.605 65.4523C847.618 68.9567 847.631 72.4461 847.645 75.9206C847.658 79.395 847.642 82.8691 847.595 86.3427C847.591 86.6721 847.557 87.0161 847.492 87.3746C847.457 87.7635 847.2 87.9547 846.72 87.9483C846.541 87.9459 846.362 87.8836 846.184 87.7615C846.005 87.6692 845.888 87.5179 845.83 87.3075L845.849 75.8516ZM844.091 62.7996C843.164 62.7273 842.291 63.09 841.471 63.8878C840.682 64.6559 839.98 65.6649 839.364 66.9145C838.778 68.1646 838.296 69.5509 837.916 71.0733C837.537 72.5658 837.293 74.0151 837.184 75.4213C837.106 76.798 837.179 78.027 837.404 79.1082C837.659 80.1898 838.114 80.9297 838.767 81.3278C839.426 81.3366 840.043 81.0903 840.619 80.5888C841.195 80.0574 841.728 79.3906 842.218 78.5885C842.708 77.7864 843.139 76.8936 843.512 75.9102C843.885 74.8969 844.197 73.9277 844.449 73.0026C844.731 72.0779 844.937 71.242 845.067 70.495C845.227 69.7184 845.31 69.1355 845.315 68.7462C845.319 68.4467 845.34 67.9678 845.379 67.3094C845.418 66.651 845.412 65.992 845.36 65.3324C845.309 64.6728 845.182 64.0871 844.98 63.5752C844.807 63.0638 844.511 62.8052 844.091 62.7996ZM871.139 96.2266C871.511 93.0868 871.73 90.0947 871.798 87.2503C871.896 84.4362 871.918 81.6511 871.865 78.8949C871.842 76.1392 871.775 73.3529 871.662 70.536C871.55 67.7192 871.5 64.7384 871.512 61.5938C871.608 61.1757 871.717 60.8627 871.839 60.6547C871.992 60.4171 872.367 60.3622 872.965 60.49C873.592 60.6482 873.961 61.0125 874.073 61.5831C874.186 62.1237 874.208 62.738 874.139 63.4259C874.069 64.1138 873.97 64.8014 873.841 65.4885C873.712 66.1757 873.705 66.7296 873.819 67.1505C874.787 66.4746 875.814 65.7695 876.902 65.0353C877.99 64.301 879.122 63.6573 880.298 63.1039C881.474 62.5206 882.692 62.1026 883.953 61.8499C885.215 61.5673 886.473 61.5691 887.727 61.8554C889.28 62.2356 890.35 62.789 890.94 63.5157C891.559 64.2129 891.788 65.0246 891.626 65.9509C891.494 66.8476 891.061 67.8452 890.328 68.9436C889.595 70.012 888.697 71.0932 887.634 72.1871C886.571 73.2811 885.389 74.3585 884.087 75.4193C882.784 76.4801 881.513 77.4665 880.273 78.3784C879.033 79.2603 877.87 80.0385 876.783 80.7128C875.725 81.3875 874.88 81.8854 874.247 82.2064C874.212 82.5653 874.16 83.1337 874.089 83.9115C874.049 84.6597 873.993 85.5125 873.92 86.47C873.878 87.4278 873.819 88.4304 873.745 89.4777C873.701 90.5253 873.643 91.5279 873.57 92.4854C873.528 93.4432 873.471 94.296 873.401 95.0439C873.361 95.7921 873.339 96.3459 873.334 96.7052C873.274 96.7344 873.169 96.7629 873.019 96.7909C872.869 96.8188 872.689 96.8314 872.479 96.8286C872.269 96.8557 872.074 96.8681 871.895 96.8657C871.714 96.8932 871.595 96.8916 871.535 96.8609C871.445 96.8597 871.357 96.7687 871.269 96.5878C871.181 96.4369 871.138 96.3165 871.139 96.2266ZM873.984 71.6453C873.888 72.0633 873.851 72.5869 873.873 73.2162C873.925 73.8159 873.976 74.4605 874.027 75.1501C874.108 75.8101 874.189 76.4551 874.27 77.0851C874.352 77.7152 874.405 78.255 874.428 78.7046C875.578 77.8514 876.907 76.9856 878.417 76.1073C879.956 75.2293 881.436 74.2757 882.858 73.2464C884.309 72.2176 885.597 71.0667 886.723 69.7939C887.848 68.5211 888.601 67.0785 888.982 65.4663C889.11 64.839 889.056 64.419 888.819 64.2062C888.612 63.9638 888.24 63.7941 887.703 63.6971C886.568 63.4423 885.264 63.5147 883.791 63.9143C882.319 64.284 880.888 64.8489 879.5 65.6091C878.143 66.3697 876.947 67.2821 875.915 68.3466C874.882 69.411 874.239 70.5106 873.984 71.6453ZM893.389 78.5537C893.198 77.1734 893.111 75.8395 893.128 74.5518C893.146 73.2342 893.239 71.9027 893.406 70.5571C893.604 69.212 893.862 67.8227 894.181 66.3894C894.53 64.9265 894.925 63.3593 895.367 61.688C895.371 61.3586 895.465 61.0604 895.648 60.7932C895.832 60.4962 896.075 60.2598 896.377 60.0842C896.679 59.8786 896.995 59.7181 897.326 59.6027C897.657 59.4873 897.973 59.4316 898.272 59.4356C898.931 59.4444 899.527 59.662 900.06 60.0885C900.594 60.5149 901.066 61.0304 901.477 61.6349C901.919 62.2398 902.284 62.8886 902.575 63.5814C902.895 64.2446 903.157 64.8171 903.36 65.2991C903.586 66.3504 903.734 67.5504 903.806 68.8991C903.908 70.2183 903.905 71.566 903.797 72.9423C903.689 74.3186 903.461 75.6783 903.114 77.0214C902.767 78.3346 902.286 79.5412 901.673 80.6412C901.059 81.7411 900.268 82.659 899.3 83.3949C898.361 84.1311 897.247 84.5804 895.957 84.7429C895.268 84.7337 894.747 84.5021 894.394 84.0481C894.041 83.5642 893.779 82.9916 893.608 82.3304C893.468 81.6397 893.387 80.9497 893.366 80.2606C893.376 79.5718 893.383 79.0029 893.389 78.5537ZM895.682 78.4496C895.678 78.749 895.674 79.0335 895.67 79.303C895.697 79.5729 895.723 79.8428 895.749 80.1127C895.806 80.3531 895.862 80.6234 895.918 80.9237C896.005 81.1944 896.105 81.5102 896.22 81.8711L896.49 81.8747C897.208 81.8843 897.825 81.653 898.341 81.1807C898.856 80.7083 899.299 80.1003 899.668 79.3564C900.038 78.5827 900.349 77.7332 900.601 76.8081C900.853 75.8531 901.045 74.9272 901.177 74.0304C901.339 73.1041 901.44 72.2519 901.481 71.4737C901.551 70.666 901.59 70.0226 901.596 69.5435L901.608 68.6451C901.614 68.2558 901.604 67.8214 901.581 67.3419C901.558 66.8324 901.505 66.3225 901.422 65.8123C901.369 65.2725 901.27 64.7919 901.126 64.3707C900.983 63.9195 900.793 63.5576 900.557 63.2849C900.321 63.0121 900.008 62.8732 899.619 62.868C898.963 62.6496 898.393 62.6869 897.91 62.9799C897.457 63.2734 897.076 63.7774 896.767 64.4921C896.488 65.1773 896.267 66.0279 896.104 67.044C895.941 68.0602 895.836 69.1819 895.789 70.4093C895.743 71.6366 895.711 72.939 895.692 74.3165C895.704 75.6944 895.7 77.0721 895.682 78.4496ZM915.561 76.7835C915.253 77.4682 914.853 78.2566 914.362 79.1485C913.9 80.0409 913.35 80.8871 912.71 81.6872C912.101 82.4877 911.388 83.1671 910.572 83.7252C909.756 84.2834 908.853 84.5559 907.865 84.5426C907.416 84.5366 907.057 84.4869 906.789 84.3935C906.551 84.2705 906.329 84.1028 906.122 83.8904C905.945 83.6784 905.769 83.4214 905.593 83.1196C905.447 82.8181 905.257 82.4861 905.022 82.1236C904.952 80.6551 904.913 79.0821 904.906 77.4048C904.928 75.6979 905.041 74.0072 905.243 72.3327C905.445 70.6282 905.766 69.0301 906.206 67.5385C906.675 66.0472 907.306 64.7827 908.098 63.7451C908.921 62.7078 909.934 61.9726 911.138 61.5394C912.342 61.1062 913.794 61.0957 915.496 61.5078C915.597 60.6705 915.627 59.5478 915.586 58.1396C915.545 56.7313 915.475 55.2479 915.376 53.6891C915.277 52.1303 915.177 50.6315 915.077 49.1925C914.976 47.7236 914.918 46.5248 914.9 45.5961C914.904 45.3266 915.026 45.1335 915.267 45.017C915.539 44.8708 915.824 44.7848 916.124 44.7589C916.424 44.7329 916.709 44.7367 916.978 44.7703C917.277 44.8042 917.471 44.8517 917.56 44.9128C917.451 48.5953 917.387 52.2185 917.37 55.7823C917.352 59.3163 917.335 62.8502 917.318 66.3842C917.331 69.8886 917.344 73.378 917.357 76.8524C917.371 80.3269 917.354 83.8009 917.308 87.2746C917.304 87.604 917.269 87.9479 917.204 88.3065C917.169 88.6954 916.912 88.8866 916.433 88.8802C916.253 88.8778 916.074 88.8155 915.896 88.6933C915.718 88.6011 915.6 88.4498 915.543 88.2393L915.561 76.7835ZM913.804 63.7315C912.877 63.6592 912.003 64.0219 911.184 64.8196C910.395 65.5878 909.692 66.5967 909.077 67.8464C908.491 69.0965 908.008 70.4828 907.628 72.0052C907.249 73.4976 907.005 74.947 906.896 76.3532C906.818 77.7299 906.892 78.9588 907.117 80.04C907.372 81.1217 907.826 81.8615 908.48 82.2596C909.139 82.2684 909.756 82.0221 910.332 81.5207C910.908 80.9892 911.441 80.3225 911.931 79.5204C912.421 78.7182 912.852 77.8255 913.224 76.8421C913.597 75.8288 913.91 74.8595 914.162 73.9344C914.444 73.0097 914.65 72.1739 914.779 71.4269C914.94 70.6503 915.022 70.0673 915.027 69.6781C915.031 69.3786 915.053 68.8997 915.092 68.2413C915.13 67.5829 915.124 66.9239 915.073 66.2643C915.022 65.6047 914.895 65.019 914.692 64.5071C914.519 63.9956 914.223 63.7371 913.804 63.7315ZM923.725 84.4402C923.725 84.4701 924.042 84.2946 924.676 83.9138C925.34 83.5333 926.11 83.0344 926.987 82.4172C927.894 81.7704 928.817 81.0789 929.755 80.3427C930.694 79.5765 931.467 78.853 932.076 78.1723C932.684 77.4916 933.006 76.9118 933.042 76.4331C933.109 75.9249 932.709 75.5901 931.843 75.4287C930.767 75.2646 929.853 75.2673 929.102 75.437C928.381 75.6071 927.719 75.8079 927.117 76.0394C926.515 76.271 925.943 76.488 925.401 76.6904C924.89 76.8932 924.32 76.9605 923.691 76.8922C922.374 76.8746 921.466 76.4581 920.968 75.6428C920.5 74.7979 920.275 73.6717 920.294 72.2643C920.313 70.8569 920.645 69.5285 921.291 68.2792C921.937 67 922.76 65.9028 923.761 64.9877C924.761 64.0726 925.909 63.3542 927.204 62.8324C928.499 62.2806 929.821 62.0138 931.168 62.0318C931.707 62.039 932.171 62.0901 932.559 62.1852C932.947 62.2802 933.137 62.6272 933.129 63.2261C933.123 63.6453 932.938 64.0472 932.574 64.4316C932.21 64.7862 931.803 64.9605 931.354 64.9544C931.324 64.954 931.249 64.9381 931.13 64.9065C931.011 64.845 930.892 64.7686 930.773 64.6771C930.655 64.5857 930.536 64.5242 930.416 64.4927C930.297 64.4312 930.223 64.4002 930.193 64.3998C929.238 64.1175 928.308 64.2399 927.403 64.7669C926.497 65.2939 925.679 66.0167 924.948 66.9354C924.247 67.8246 923.68 68.8053 923.246 69.8778C922.813 70.9203 922.591 71.8607 922.579 72.6992C922.575 73.0286 922.631 73.2989 922.748 73.5101C922.896 73.6918 923.074 73.8289 923.282 73.9216C923.52 74.0146 923.774 74.0779 924.043 74.1115C924.343 74.1155 924.642 74.1195 924.942 74.1235C925.54 74.1315 926.141 74.0496 926.742 73.878C927.373 73.7067 927.975 73.5051 928.547 73.2731C929.149 73.0416 929.751 72.84 930.352 72.6683C930.983 72.497 931.628 72.4158 932.287 72.4246C932.587 72.4286 932.915 72.5229 933.272 72.7073C933.629 72.8619 933.955 73.1058 934.25 73.4392C934.546 73.7427 934.795 74.1054 935 74.5275C935.204 74.9196 935.318 75.3554 935.341 75.8349C935.516 76.2565 935.448 76.8097 935.14 77.4945C934.861 78.1796 934.432 78.9076 933.852 79.6786C933.273 80.4496 932.574 81.2339 931.754 82.0316C930.935 82.7994 930.117 83.5073 929.3 84.1553C928.483 84.7733 927.683 85.2718 926.899 85.6507C926.115 86.0595 925.453 86.2453 924.915 86.2082C924.316 86.2002 923.959 86.0157 923.844 85.6548C923.759 85.2942 923.719 84.8893 923.725 84.4402Z" fill="#333333"/>
<path d="M681.317 291.103C681.926 291.664 682.875 291.626 683.437 291.017L692.586 281.089C693.147 280.48 693.108 279.531 692.499 278.97C691.89 278.408 690.941 278.447 690.379 279.056L682.247 287.88L673.423 279.748C672.814 279.187 671.865 279.226 671.303 279.835C670.742 280.444 670.781 281.393 671.39 281.954L681.317 291.103ZM843.15 93.0791C832.783 106.408 817.303 119.179 799.834 132.43C782.422 145.637 763.031 159.32 745.12 174.351C709.292 204.416 678.805 240.326 680.835 290.061L683.833 289.939C681.863 241.674 711.376 206.584 747.048 176.649C764.886 161.68 784.121 148.113 801.647 134.82C819.115 121.571 834.885 108.592 845.518 94.9209L843.15 93.0791Z" fill="black"/>
<path d="M1033.06 463.208C1032.62 463.912 1032.84 464.837 1033.54 465.274L1045.01 472.398C1045.71 472.835 1046.64 472.619 1047.08 471.915C1047.51 471.212 1047.3 470.287 1046.59 469.85L1036.4 463.517L1042.73 453.324C1043.17 452.62 1042.95 451.696 1042.25 451.258C1041.55 450.821 1040.62 451.037 1040.18 451.741L1033.06 463.208ZM869.374 105.152C899.403 130.177 993.768 207.573 1053.9 284.921C1068.93 304.248 1081.78 323.537 1090.96 341.973C1100.15 360.422 1105.61 377.93 1105.93 393.718C1106.25 409.456 1101.47 423.507 1090.11 435.181C1078.72 446.894 1060.58 456.326 1033.99 462.539L1034.68 465.461C1061.58 459.174 1080.33 449.544 1092.26 437.273C1104.24 424.962 1109.26 410.106 1108.93 393.657C1108.59 377.258 1102.94 359.297 1093.65 340.636C1084.35 321.963 1071.37 302.502 1056.27 283.079C995.9 205.427 901.265 127.823 871.294 102.848L869.374 105.152Z" fill="black"/>
<rect x="641.334" y="520.74" width="240.653" height="99.3742" fill="#F1C40F"/>
<rect x="641.334" y="407" width="240.653" height="99.3742" fill="#F1C40F"/>
<rect x="922.693" y="520.74" width="99.3742" height="99.3742" fill="#8FBE00"/>
<rect x="922.693" y="408.195" width="99.3742" height="99.3742" fill="#8FBE00"/>
<rect x="922.693" y="296" width="99.3742" height="99.3742" fill="#8FBE00"/>
<rect x="641.66" y="296" width="99.3742" height="99.3742" fill="#8FBE00"/>
<rect x="781.66" y="296" width="99.3742" height="99.3742" fill="#8FBE00"/>
<rect x="661.941" y="306.002" width="99.0102" height="15" transform="rotate(45 661.941 306.002)" fill="#FF3C00"/>
<rect x="651.334" y="376.012" width="99.0102" height="15" transform="rotate(-45 651.334 376.012)" fill="#FF3C00"/>
<rect x="946.594" y="418.002" width="99.0102" height="15" transform="rotate(45 946.594 418.002)" fill="#FF3C00"/>
<rect x="935.334" y="488.012" width="99.0102" height="15" transform="rotate(-45 935.334 488.012)" fill="#FF3C00"/>
<rect x="731.594" y="530.002" width="99.0102" height="15" transform="rotate(45 731.594 530.002)" fill="#FF3C00"/>
<rect x="720.334" y="600.012" width="99.0102" height="15" transform="rotate(-45 720.334 600.012)" fill="#FF3C00"/>
<rect x="178.523" y="521.74" width="99.3742" height="99.3742" fill="#8FBE00"/>
<rect x="313" y="521" width="240.653" height="99.3742" fill="#D2D2D2"/>
<path d="M354.44 582H346.963V560.909H354.501C356.623 560.909 358.449 561.331 359.98 562.176C361.511 563.013 362.688 564.218 363.512 565.79C364.343 567.363 364.758 569.244 364.758 571.434C364.758 573.631 364.343 575.519 363.512 577.098C362.688 578.677 361.504 579.889 359.959 580.733C358.422 581.578 356.582 582 354.44 582ZM351.422 578.179H354.254C355.572 578.179 356.681 577.946 357.581 577.479C358.487 577.005 359.166 576.274 359.62 575.286C360.08 574.29 360.31 573.006 360.31 571.434C360.31 569.875 360.08 568.602 359.62 567.613C359.166 566.625 358.49 565.897 357.591 565.43C356.691 564.963 355.583 564.73 354.264 564.73H351.422V578.179ZM375.188 582.309C373.561 582.309 372.16 581.979 370.986 581.32C369.819 580.654 368.92 579.714 368.288 578.499C367.657 577.277 367.341 575.831 367.341 574.163C367.341 572.536 367.657 571.108 368.288 569.879C368.92 568.65 369.809 567.692 370.955 567.006C372.109 566.319 373.461 565.976 375.013 565.976C376.057 565.976 377.028 566.144 377.927 566.48C378.834 566.81 379.623 567.308 380.296 567.974C380.976 568.64 381.504 569.477 381.882 570.487C382.26 571.489 382.448 572.663 382.448 574.009V575.213H369.091V572.495H378.319C378.319 571.863 378.181 571.304 377.907 570.816C377.632 570.329 377.251 569.948 376.764 569.673C376.283 569.391 375.724 569.251 375.085 569.251C374.419 569.251 373.829 569.405 373.314 569.714C372.806 570.016 372.407 570.425 372.119 570.94C371.831 571.448 371.683 572.014 371.676 572.639V575.224C371.676 576.006 371.82 576.683 372.109 577.252C372.404 577.822 372.819 578.262 373.355 578.571C373.89 578.88 374.526 579.034 375.26 579.034C375.748 579.034 376.194 578.965 376.599 578.828C377.004 578.691 377.351 578.485 377.639 578.21C377.927 577.936 378.147 577.599 378.298 577.201L382.356 577.469C382.15 578.444 381.727 579.295 381.089 580.023C380.457 580.744 379.64 581.307 378.638 581.712C377.642 582.11 376.492 582.309 375.188 582.309ZM398.472 570.692L394.456 570.94C394.387 570.596 394.24 570.287 394.013 570.013C393.787 569.731 393.488 569.508 393.117 569.343C392.753 569.172 392.318 569.086 391.809 569.086C391.13 569.086 390.557 569.23 390.09 569.518C389.623 569.8 389.389 570.178 389.389 570.651C389.389 571.029 389.54 571.348 389.843 571.609C390.145 571.87 390.663 572.079 391.398 572.237L394.26 572.814C395.798 573.13 396.945 573.638 397.7 574.338C398.455 575.038 398.833 575.958 398.833 577.098C398.833 578.135 398.527 579.044 397.916 579.827C397.312 580.61 396.481 581.221 395.424 581.66C394.374 582.093 393.162 582.309 391.789 582.309C389.695 582.309 388.027 581.873 386.784 581.001C385.548 580.122 384.824 578.928 384.611 577.417L388.926 577.191C389.056 577.829 389.372 578.317 389.873 578.653C390.375 578.983 391.017 579.147 391.799 579.147C392.568 579.147 393.186 579 393.653 578.705C394.127 578.402 394.367 578.015 394.374 577.541C394.367 577.143 394.199 576.817 393.869 576.562C393.54 576.302 393.032 576.103 392.345 575.965L389.606 575.419C388.061 575.11 386.911 574.575 386.156 573.813C385.407 573.051 385.033 572.079 385.033 570.898C385.033 569.882 385.308 569.007 385.857 568.272C386.413 567.538 387.192 566.971 388.195 566.573C389.204 566.175 390.385 565.976 391.737 565.976C393.735 565.976 395.307 566.398 396.454 567.243C397.607 568.087 398.28 569.237 398.472 570.692ZM408.742 582.309C407.122 582.309 405.728 581.966 404.561 581.279C403.401 580.586 402.509 579.625 401.884 578.396C401.266 577.167 400.957 575.752 400.957 574.153C400.957 572.532 401.269 571.111 401.894 569.889C402.526 568.66 403.422 567.703 404.582 567.016C405.742 566.323 407.122 565.976 408.722 565.976C410.102 565.976 411.31 566.226 412.347 566.728C413.384 567.229 414.204 567.933 414.808 568.839C415.412 569.745 415.745 570.809 415.807 572.031H411.667C411.55 571.242 411.242 570.607 410.74 570.126C410.246 569.639 409.597 569.395 408.794 569.395C408.114 569.395 407.52 569.58 407.012 569.951C406.511 570.315 406.12 570.847 405.838 571.547C405.557 572.248 405.416 573.095 405.416 574.091C405.416 575.1 405.553 575.958 405.828 576.665C406.11 577.373 406.504 577.912 407.012 578.282C407.52 578.653 408.114 578.838 408.794 578.838C409.295 578.838 409.745 578.735 410.143 578.529C410.548 578.324 410.881 578.025 411.142 577.634C411.41 577.235 411.585 576.758 411.667 576.202H415.807C415.738 577.41 415.409 578.475 414.818 579.395C414.235 580.308 413.428 581.022 412.398 581.537C411.369 582.051 410.15 582.309 408.742 582.309ZM423.003 572.855V582H418.616V560.909H422.879V568.973H423.065C423.422 568.039 423.999 567.308 424.795 566.779C425.591 566.244 426.59 565.976 427.792 565.976C428.89 565.976 429.848 566.216 430.665 566.697C431.489 567.17 432.127 567.854 432.58 568.746C433.04 569.632 433.267 570.692 433.26 571.928V582H428.873V572.711C428.88 571.736 428.633 570.977 428.132 570.435C427.637 569.893 426.944 569.621 426.051 569.621C425.454 569.621 424.925 569.748 424.465 570.002C424.012 570.257 423.655 570.627 423.394 571.115C423.14 571.595 423.01 572.175 423.003 572.855ZM443.921 582.309C442.294 582.309 440.894 581.979 439.72 581.32C438.553 580.654 437.653 579.714 437.022 578.499C436.39 577.277 436.074 575.831 436.074 574.163C436.074 572.536 436.39 571.108 437.022 569.879C437.653 568.65 438.542 567.692 439.689 567.006C440.842 566.319 442.195 565.976 443.746 565.976C444.79 565.976 445.761 566.144 446.661 566.48C447.567 566.81 448.357 567.308 449.029 567.974C449.709 568.64 450.238 569.477 450.615 570.487C450.993 571.489 451.182 572.663 451.182 574.009V575.213H437.825V572.495H447.052C447.052 571.863 446.915 571.304 446.64 570.816C446.366 570.329 445.985 569.948 445.497 569.673C445.016 569.391 444.457 569.251 443.818 569.251C443.152 569.251 442.562 569.405 442.047 569.714C441.539 570.016 441.141 570.425 440.853 570.94C440.564 571.448 440.417 572.014 440.41 572.639V575.224C440.41 576.006 440.554 576.683 440.842 577.252C441.137 577.822 441.553 578.262 442.088 578.571C442.624 578.88 443.259 579.034 443.994 579.034C444.481 579.034 444.927 578.965 445.332 578.828C445.737 578.691 446.084 578.485 446.372 578.21C446.661 577.936 446.88 577.599 447.032 577.201L451.089 577.469C450.883 578.444 450.461 579.295 449.822 580.023C449.191 580.744 448.374 581.307 447.371 581.712C446.376 582.11 445.226 582.309 443.921 582.309ZM459.873 582.257C458.672 582.257 457.584 581.949 456.609 581.331C455.641 580.706 454.872 579.789 454.302 578.581C453.739 577.366 453.458 575.876 453.458 574.112C453.458 572.299 453.749 570.792 454.333 569.591C454.917 568.382 455.692 567.479 456.66 566.882C457.635 566.278 458.703 565.976 459.863 565.976C460.749 565.976 461.487 566.127 462.077 566.429C462.675 566.724 463.155 567.095 463.519 567.541C463.89 567.981 464.171 568.413 464.364 568.839H464.497V560.909H468.874V582H464.549V579.467H464.364C464.158 579.906 463.866 580.342 463.488 580.775C463.117 581.2 462.633 581.554 462.036 581.835C461.446 582.117 460.725 582.257 459.873 582.257ZM461.264 578.766C461.971 578.766 462.568 578.574 463.056 578.19C463.55 577.798 463.928 577.252 464.188 576.552C464.456 575.852 464.59 575.031 464.59 574.091C464.59 573.15 464.46 572.333 464.199 571.64C463.938 570.946 463.56 570.411 463.066 570.033C462.572 569.656 461.971 569.467 461.264 569.467C460.543 569.467 459.935 569.663 459.441 570.054C458.947 570.445 458.572 570.988 458.318 571.681C458.064 572.375 457.937 573.178 457.937 574.091C457.937 575.011 458.064 575.824 458.318 576.532C458.579 577.232 458.954 577.781 459.441 578.179C459.935 578.571 460.543 578.766 461.264 578.766ZM482.625 575.265V566.182H487.012V582H482.8V579.127H482.635C482.278 580.054 481.684 580.799 480.854 581.362C480.03 581.924 479.024 582.206 477.836 582.206C476.779 582.206 475.849 581.966 475.045 581.485C474.242 581.004 473.614 580.321 473.161 579.436C472.715 578.55 472.488 577.489 472.481 576.254V566.182H476.868V575.471C476.875 576.405 477.126 577.143 477.62 577.685C478.114 578.227 478.777 578.499 479.608 578.499C480.136 578.499 480.631 578.378 481.091 578.138C481.551 577.891 481.921 577.527 482.203 577.047C482.491 576.566 482.632 575.972 482.625 575.265ZM494.908 560.909V582H490.521V560.909H494.908ZM505.631 582.309C504.004 582.309 502.604 581.979 501.43 581.32C500.263 580.654 499.363 579.714 498.732 578.499C498.1 577.277 497.784 575.831 497.784 574.163C497.784 572.536 498.1 571.108 498.732 569.879C499.363 568.65 500.252 567.692 501.399 567.006C502.552 566.319 503.905 565.976 505.456 565.976C506.5 565.976 507.471 566.144 508.371 566.48C509.277 566.81 510.067 567.308 510.739 567.974C511.419 568.64 511.948 569.477 512.325 570.487C512.703 571.489 512.892 572.663 512.892 574.009V575.213H499.535V572.495H508.762C508.762 571.863 508.625 571.304 508.35 570.816C508.076 570.329 507.694 569.948 507.207 569.673C506.726 569.391 506.167 569.251 505.528 569.251C504.862 569.251 504.272 569.405 503.757 569.714C503.249 570.016 502.851 570.425 502.562 570.94C502.274 571.448 502.127 572.014 502.12 572.639V575.224C502.12 576.006 502.264 576.683 502.552 577.252C502.847 577.822 503.263 578.262 503.798 578.571C504.334 578.88 504.969 579.034 505.703 579.034C506.191 579.034 506.637 578.965 507.042 578.828C507.447 578.691 507.794 578.485 508.082 578.21C508.371 577.936 508.59 577.599 508.741 577.201L512.799 577.469C512.593 578.444 512.171 579.295 511.532 580.023C510.901 580.744 510.084 581.307 509.081 581.712C508.086 582.11 506.936 582.309 505.631 582.309ZM515.755 582V566.182H520.008V568.942H520.173C520.461 567.96 520.945 567.219 521.625 566.717C522.304 566.209 523.087 565.955 523.973 565.955C524.192 565.955 524.429 565.969 524.683 565.996C524.937 566.024 525.16 566.062 525.353 566.11V570.002C525.147 569.941 524.862 569.886 524.498 569.838C524.134 569.79 523.801 569.766 523.499 569.766C522.854 569.766 522.277 569.906 521.769 570.188C521.268 570.462 520.869 570.847 520.574 571.341C520.286 571.836 520.142 572.405 520.142 573.051V582H515.755Z" fill="black"/>
<path d="M623.395 579.061C623.98 578.475 623.98 577.525 623.395 576.939L613.849 567.393C613.263 566.808 612.313 566.808 611.727 567.393C611.141 567.979 611.141 568.929 611.727 569.515L620.213 578L611.727 586.485C611.141 587.071 611.141 588.021 611.727 588.607C612.313 589.192 613.263 589.192 613.849 588.607L623.395 579.061ZM790.037 102.53C740.13 112.612 687.003 147.461 639.844 193.868C592.66 240.3 551.302 298.447 524.972 355.37C498.673 412.227 487.233 468.158 500.34 510.011C506.911 530.993 519.646 548.41 539.689 560.556C559.704 572.685 586.904 579.5 622.334 579.5V576.5C587.264 576.5 560.651 569.752 541.244 557.991C521.865 546.246 509.569 529.444 503.203 509.114C490.434 468.342 501.495 413.273 527.695 356.63C553.865 300.053 595.007 242.2 641.948 196.007C688.914 149.789 741.538 115.388 790.631 105.47L790.037 102.53Z" fill="black"/>
</svg>
