<svg width="1200" height="900" viewBox="0 0 1200 900" fill="none" xmlns="http://www.w3.org/2000/svg">
<path fill-rule="evenodd" clip-rule="evenodd" d="M594.06 199.267V701.93C594.06 708.596 588.652 714 581.982 714H157.078C150.409 714 145 708.596 145 701.93V199.267C145 192.601 150.408 187.197 157.078 187.197H581.982C588.651 187.197 594.06 192.601 594.06 199.267Z" fill="#D2D2D2"/>
<path fill-rule="evenodd" clip-rule="evenodd" d="M222.036 689.861H576.669V699.127H222.036V689.861ZM222.036 674.952H576.669V684.217H222.036V674.952ZM222.036 660.752H576.669V670.018H222.036V660.752ZM162.043 203.527H576.669V212.757H162.043V203.527Z" fill="#A3A3A3"/>
<path fill-rule="evenodd" clip-rule="evenodd" d="M166.885 229.113H572.175C572.81 229.113 573.438 229.238 574.024 229.481C574.61 229.723 575.143 230.079 575.592 230.528C576.041 230.976 576.397 231.509 576.639 232.095C576.882 232.681 577.007 233.309 577.008 233.944V639.188C577.008 640.469 576.499 641.698 575.592 642.604C574.686 643.51 573.458 644.019 572.176 644.019H166.884C165.603 644.019 164.374 643.51 163.468 642.604C162.562 641.698 162.053 640.469 162.053 639.188V233.944C162.053 232.663 162.562 231.434 163.468 230.528C164.374 229.622 165.603 229.113 166.884 229.113H166.885Z" fill="white"/>
<path d="M184.649 658.195C184.242 658.219 183.845 658.325 183.479 658.506L167.642 666.057C167.234 666.251 166.875 666.535 166.592 666.888C166.309 667.24 166.11 667.652 166.009 668.092L162.13 685.046C162.038 685.44 162.028 685.849 162.101 686.247C162.175 686.645 162.33 687.023 162.556 687.358C162.611 687.441 162.668 687.52 162.728 687.597L173.67 701.2C174.248 701.91 175.117 702.318 176.032 702.315H193.582C194.035 702.312 194.482 702.21 194.89 702.015C195.299 701.821 195.66 701.538 195.947 701.188L206.884 687.581C207.457 686.871 207.672 685.933 207.452 685.043L203.55 668.076C203.448 667.636 203.248 667.225 202.965 666.872C202.683 666.52 202.324 666.236 201.917 666.041L186.103 658.507C185.647 658.282 185.142 658.175 184.635 658.196L184.649 658.195Z" fill="#4A4A4A"/>
<path d="M184.797 663.971C184.252 664.009 183.838 664.477 183.867 665.022V665.289C183.892 665.592 183.938 665.892 183.997 666.189C184.084 666.756 184.116 667.333 184.091 667.908C184.037 668.098 183.929 668.268 183.781 668.398L183.76 668.799C183.184 668.847 182.613 668.935 182.05 669.063C179.682 669.597 177.527 670.826 175.863 672.594L175.522 672.353C175.429 672.381 175.332 672.39 175.235 672.38C175.139 672.371 175.045 672.342 174.96 672.296C174.499 671.955 174.072 671.569 173.686 671.145C173.491 670.913 173.284 670.692 173.064 670.484L172.854 670.317C172.667 670.167 172.437 670.08 172.197 670.068C172.054 670.061 171.911 670.087 171.78 670.145C171.649 670.203 171.533 670.292 171.443 670.403C171.289 670.619 171.227 670.888 171.27 671.149C171.314 671.411 171.459 671.645 171.675 671.8L171.871 671.956C172.124 672.125 172.386 672.277 172.655 672.415C173.162 672.695 173.637 673.028 174.073 673.409C174.186 673.57 174.252 673.759 174.263 673.956L174.573 674.24C172.901 676.749 172.213 679.788 172.643 682.774L172.244 682.887C172.141 683.052 172.003 683.191 171.839 683.295C171.284 683.444 170.715 683.538 170.142 683.577C169.838 683.583 169.534 683.607 169.232 683.648L168.98 683.705H168.954C168.779 683.729 168.615 683.801 168.479 683.913C168.343 684.025 168.241 684.173 168.184 684.339C168.127 684.506 168.117 684.685 168.156 684.857C168.195 685.029 168.28 685.187 168.403 685.313C168.656 685.568 169.034 685.659 169.375 685.547H169.393L169.65 685.518C169.939 685.432 170.223 685.328 170.5 685.208C171.033 684.994 171.586 684.833 172.15 684.726C172.346 684.738 172.535 684.804 172.693 684.918L173.119 684.847C174.043 687.713 175.985 690.141 178.577 691.671L178.403 692.033C178.483 692.2 178.513 692.385 178.489 692.568C178.254 693.112 177.967 693.631 177.631 694.12C177.447 694.362 177.278 694.615 177.123 694.877L177.002 695.132C176.915 695.284 176.871 695.458 176.875 695.633C176.88 695.808 176.933 695.979 177.028 696.126C177.124 696.273 177.258 696.391 177.416 696.467C177.575 696.543 177.751 696.573 177.925 696.555C178.283 696.515 178.586 696.277 178.711 695.941L178.829 695.7C178.938 695.416 179.028 695.125 179.103 694.833C179.354 694.212 179.491 693.546 179.834 693.134C179.946 693.028 180.088 692.958 180.241 692.934L180.454 692.546C183.263 693.626 186.373 693.634 189.188 692.568L189.377 692.931C189.57 692.96 189.744 693.065 189.86 693.222C190.127 693.73 190.343 694.263 190.508 694.813C190.583 695.108 190.676 695.398 190.784 695.681L190.902 695.923C190.964 696.087 191.07 696.231 191.209 696.339C191.348 696.446 191.513 696.513 191.688 696.533C191.862 696.552 192.039 696.523 192.197 696.448C192.356 696.373 192.491 696.256 192.588 696.11C192.783 695.808 192.792 695.423 192.611 695.113L192.487 694.857C192.332 694.596 192.163 694.344 191.979 694.103C191.653 693.628 191.368 693.125 191.127 692.601C191.104 692.504 191.101 692.404 191.117 692.307C191.134 692.209 191.17 692.116 191.223 692.033C191.162 691.909 191.11 691.781 191.065 691.651C193.652 690.108 195.585 687.672 196.498 684.801L196.901 684.872C197.046 684.741 197.236 684.67 197.432 684.676C197.995 684.785 198.548 684.96 199.082 685.159C199.36 685.287 199.644 685.395 199.933 685.487C200.001 685.504 200.101 685.52 200.177 685.539H200.195C200.363 685.593 200.543 685.6 200.714 685.558C200.885 685.516 201.042 685.428 201.165 685.302C201.289 685.177 201.376 685.019 201.416 684.848C201.456 684.676 201.447 684.496 201.391 684.329C201.333 684.163 201.231 684.015 201.094 683.903C200.958 683.791 200.793 683.719 200.619 683.696L200.344 683.631C200.041 683.59 199.737 683.566 199.432 683.56C198.859 683.523 198.29 683.429 197.735 683.279C197.564 683.183 197.423 683.042 197.327 682.87L196.943 682.757C197.352 679.773 196.65 676.743 194.973 674.241L195.308 673.931C195.295 673.736 195.358 673.543 195.485 673.394C195.921 673.02 196.392 672.689 196.891 672.405C197.162 672.268 197.424 672.114 197.676 671.946L197.883 671.778C197.998 671.707 198.096 671.613 198.172 671.501C198.247 671.39 198.298 671.264 198.322 671.131C198.345 670.998 198.339 670.862 198.306 670.732C198.273 670.601 198.212 670.479 198.128 670.374C198.044 670.269 197.939 670.182 197.819 670.121C197.699 670.059 197.568 670.023 197.433 670.016C197.299 670.009 197.164 670.031 197.039 670.08C196.913 670.128 196.799 670.203 196.705 670.299L196.495 670.468C196.275 670.676 196.068 670.896 195.873 671.128C195.499 671.557 195.083 671.948 194.634 672.297C194.452 672.371 194.253 672.392 194.059 672.359L193.7 672.616C191.624 670.441 188.829 669.092 185.834 668.822C185.834 668.68 185.816 668.467 185.813 668.4C185.651 668.29 185.54 668.12 185.502 667.928C185.483 667.355 185.519 666.781 185.611 666.214C185.673 665.915 185.714 665.617 185.742 665.314V665.03C185.756 664.768 185.666 664.51 185.492 664.314C185.317 664.117 185.072 663.996 184.81 663.979L184.798 663.972L184.797 663.971ZM183.612 671.31L183.328 676.275H183.307C183.298 676.425 183.25 676.57 183.167 676.696C183.084 676.822 182.969 676.924 182.835 676.991C182.7 677.06 182.548 677.089 182.397 677.075C182.247 677.061 182.103 677.005 181.983 676.914L177.911 674.029C179.207 672.757 180.833 671.871 182.606 671.473C182.937 671.402 183.272 671.348 183.609 671.311H183.612V671.31ZM185.982 671.31C188.12 671.576 190.112 672.537 191.653 674.043L187.62 676.91C187.498 677.008 187.351 677.069 187.195 677.088C187.04 677.106 186.883 677.08 186.741 677.013C186.6 676.946 186.48 676.841 186.396 676.709C186.311 676.578 186.266 676.425 186.264 676.268L185.982 671.311L185.982 671.31ZM176.432 675.897L180.156 679.218V679.24C180.27 679.339 180.354 679.467 180.4 679.611C180.447 679.754 180.453 679.908 180.42 680.055C180.386 680.202 180.313 680.337 180.209 680.446C180.105 680.555 179.973 680.634 179.828 680.674V680.688L175.05 682.062C174.813 679.909 175.3 677.739 176.434 675.894L176.432 675.897ZM193.135 675.897C194.266 677.736 194.766 679.895 194.559 682.045L189.774 680.667V680.648C189.628 680.609 189.495 680.531 189.391 680.422C189.286 680.312 189.214 680.177 189.181 680.029C189.148 679.882 189.155 679.729 189.201 679.585C189.248 679.441 189.332 679.313 189.445 679.213L193.14 675.908L193.135 675.897ZM184.034 679.478H185.557L186.489 680.66L186.15 682.137L184.782 682.794L183.411 682.137L183.088 680.66L184.034 679.478ZM188.914 683.51C188.977 683.503 189.042 683.503 189.105 683.51L194.033 684.341C193.312 686.391 191.924 688.139 190.09 689.304L188.185 684.695C188.133 684.571 188.111 684.437 188.122 684.303C188.132 684.169 188.175 684.04 188.246 683.926C188.316 683.812 188.414 683.717 188.529 683.648C188.644 683.579 188.774 683.539 188.908 683.531L188.914 683.51ZM180.639 683.531C180.776 683.534 180.91 683.57 181.03 683.636C181.15 683.702 181.252 683.797 181.327 683.912C181.401 684.027 181.446 684.158 181.458 684.294C181.47 684.431 181.447 684.568 181.393 684.693V684.711L179.501 689.284C177.69 688.123 176.312 686.396 175.581 684.372L180.466 683.544C180.521 683.538 180.576 683.538 180.631 683.544L180.64 683.531H180.639ZM184.766 685.519C185.083 685.511 185.378 685.679 185.529 685.958H185.547L187.954 690.302L186.992 690.586C185.221 690.991 183.373 690.896 181.652 690.311L184.068 685.967C184.14 685.841 184.244 685.737 184.368 685.663C184.492 685.59 184.634 685.55 184.778 685.547L184.766 685.52V685.519Z" fill="white" stroke="white" stroke-width="0.443735"/>
<path fill-rule="evenodd" clip-rule="evenodd" d="M1055.55 199.267V701.93C1055.55 708.596 1050.14 714 1043.47 714H618.565C611.895 714 606.486 708.596 606.486 701.93V199.267C606.486 192.601 611.895 187.197 618.565 187.197H1043.47C1050.14 187.197 1055.55 192.601 1055.55 199.267Z" fill="#D2D2D2"/>
<path fill-rule="evenodd" clip-rule="evenodd" d="M683.522 689.861H1038.16V699.127H683.522V689.861ZM683.522 674.952H1038.16V684.217H683.522V674.952ZM683.522 660.752H1038.16V670.018H683.522V660.752ZM623.529 203.527H1038.16V212.757H623.529V203.527Z" fill="#A3A3A3"/>
<path fill-rule="evenodd" clip-rule="evenodd" d="M628.369 229.113H1033.66C1034.29 229.113 1034.92 229.238 1035.51 229.481C1036.09 229.723 1036.63 230.079 1037.08 230.528C1037.52 230.976 1037.88 231.509 1038.12 232.095C1038.37 232.681 1038.49 233.309 1038.49 233.944V639.188C1038.49 640.469 1037.98 641.698 1037.08 642.604C1036.17 643.51 1034.94 644.019 1033.66 644.019H628.369C627.087 644.019 625.858 643.51 624.952 642.604C624.046 641.698 623.537 640.469 623.537 639.188V233.944C623.537 232.663 624.046 231.434 624.953 230.528C625.859 229.622 627.087 229.113 628.369 229.113H628.369Z" fill="white"/>
<path d="M646.133 658.195C645.727 658.219 645.329 658.325 644.964 658.506L629.126 666.057C628.718 666.251 628.359 666.535 628.077 666.888C627.794 667.24 627.594 667.652 627.493 668.092L623.615 685.046C623.522 685.44 623.512 685.849 623.586 686.247C623.659 686.645 623.814 687.023 624.041 687.358C624.096 687.441 624.153 687.52 624.212 687.597L635.155 701.2C635.732 701.91 636.601 702.318 637.516 702.315H655.067C655.519 702.312 655.966 702.21 656.375 702.015C656.783 701.821 657.144 701.538 657.431 701.188L668.368 687.581C668.941 686.871 669.156 685.933 668.936 685.043L665.034 668.076C664.932 667.636 664.732 667.225 664.45 666.872C664.167 666.52 663.808 666.236 663.401 666.041L647.587 658.507C647.131 658.282 646.627 658.175 646.119 658.196L646.133 658.195Z" fill="#4A4A4A"/>
<path d="M646.281 663.971C645.736 664.009 645.323 664.477 645.351 665.022V665.289C645.376 665.592 645.422 665.892 645.482 666.189C645.569 666.756 645.6 667.333 645.576 667.908C645.521 668.098 645.413 668.268 645.265 668.398L645.245 668.799C644.669 668.847 644.097 668.935 643.534 669.063C641.166 669.597 639.011 670.826 637.347 672.594L637.006 672.353C636.913 672.381 636.816 672.39 636.72 672.38C636.623 672.371 636.53 672.342 636.444 672.296C635.983 671.955 635.556 671.569 635.17 671.145C634.976 670.913 634.768 670.692 634.549 670.484L634.338 670.317C634.151 670.167 633.921 670.08 633.682 670.068C633.539 670.061 633.396 670.087 633.264 670.145C633.133 670.203 633.018 670.292 632.927 670.403C632.773 670.619 632.711 670.888 632.755 671.149C632.798 671.411 632.943 671.645 633.159 671.8L633.355 671.956C633.608 672.125 633.87 672.277 634.14 672.415C634.646 672.695 635.122 673.028 635.558 673.409C635.671 673.57 635.736 673.759 635.747 673.956L636.058 674.24C634.385 676.749 633.698 679.788 634.127 682.774L633.729 682.887C633.626 683.052 633.487 683.191 633.323 683.295C632.768 683.444 632.2 683.538 631.626 683.577C631.322 683.583 631.018 683.607 630.717 683.648L630.465 683.705H630.438C630.264 683.729 630.099 683.801 629.963 683.913C629.828 684.025 629.725 684.173 629.668 684.339C629.611 684.506 629.602 684.685 629.64 684.857C629.679 685.029 629.765 685.187 629.888 685.313C630.141 685.568 630.518 685.659 630.86 685.547H630.877L631.135 685.518C631.424 685.432 631.707 685.328 631.984 685.208C632.517 684.994 633.07 684.833 633.635 684.726C633.831 684.738 634.019 684.804 634.178 684.918L634.604 684.847C635.527 687.713 637.469 690.141 640.062 691.671L639.888 692.033C639.968 692.2 639.997 692.385 639.973 692.568C639.738 693.112 639.451 693.631 639.116 694.12C638.932 694.362 638.762 694.615 638.607 694.877L638.487 695.132C638.399 695.284 638.355 695.458 638.36 695.633C638.364 695.808 638.417 695.979 638.513 696.126C638.608 696.273 638.742 696.391 638.901 696.467C639.059 696.543 639.235 696.573 639.409 696.555C639.767 696.515 640.071 696.277 640.196 695.941L640.314 695.7C640.422 695.416 640.513 695.125 640.587 694.833C640.838 694.212 640.975 693.546 641.318 693.134C641.431 693.028 641.572 692.958 641.725 692.934L641.938 692.546C644.748 693.626 647.857 693.634 650.672 692.568L650.861 692.931C651.054 692.96 651.228 693.065 651.344 693.222C651.611 693.73 651.828 694.263 651.992 694.813C652.067 695.108 652.161 695.398 652.268 695.681L652.386 695.923C652.448 696.087 652.554 696.231 652.693 696.339C652.832 696.446 652.998 696.513 653.172 696.533C653.347 696.552 653.523 696.523 653.682 696.448C653.841 696.373 653.976 696.256 654.072 696.11C654.268 695.808 654.276 695.423 654.095 695.113L653.971 694.857C653.817 694.596 653.647 694.344 653.463 694.103C653.137 693.628 652.852 693.125 652.611 692.601C652.589 692.504 652.585 692.404 652.602 692.307C652.618 692.209 652.654 692.116 652.707 692.033C652.647 691.909 652.594 691.781 652.549 691.651C655.136 690.108 657.069 687.672 657.982 684.801L658.385 684.872C658.53 684.741 658.72 684.67 658.916 684.676C659.48 684.785 660.033 684.96 660.567 685.159C660.845 685.287 661.129 685.395 661.417 685.487C661.485 685.504 661.586 685.52 661.661 685.539H661.68C661.847 685.593 662.027 685.6 662.198 685.558C662.37 685.516 662.526 685.428 662.65 685.302C662.774 685.177 662.86 685.019 662.9 684.848C662.94 684.676 662.931 684.496 662.875 684.329C662.818 684.163 662.715 684.015 662.579 683.903C662.442 683.791 662.278 683.719 662.103 683.696L661.828 683.631C661.526 683.59 661.221 683.566 660.916 683.56C660.343 683.523 659.775 683.429 659.22 683.279C659.049 683.183 658.907 683.042 658.811 682.87L658.427 682.757C658.836 679.773 658.135 676.743 656.457 674.241L656.792 673.931C656.779 673.736 656.843 673.543 656.97 673.394C657.406 673.02 657.876 672.689 658.376 672.405C658.646 672.268 658.908 672.114 659.16 671.946L659.368 671.778C659.482 671.707 659.581 671.613 659.656 671.501C659.732 671.39 659.783 671.264 659.806 671.131C659.829 670.998 659.824 670.862 659.79 670.732C659.757 670.601 659.696 670.479 659.612 670.374C659.528 670.269 659.423 670.182 659.303 670.121C659.184 670.059 659.052 670.023 658.918 670.016C658.783 670.009 658.649 670.031 658.523 670.08C658.398 670.128 658.284 670.203 658.189 670.299L657.979 670.468C657.759 670.676 657.552 670.896 657.358 671.128C656.983 671.557 656.568 671.948 656.118 672.297C655.936 672.371 655.737 672.392 655.544 672.359L655.184 672.616C653.108 670.441 650.314 669.092 647.319 668.822C647.319 668.68 647.301 668.467 647.297 668.4C647.136 668.29 647.024 668.12 646.987 667.928C646.967 667.355 647.003 666.781 647.095 666.214C647.157 665.915 647.199 665.617 647.226 665.314V665.03C647.24 664.768 647.15 664.51 646.976 664.314C646.802 664.117 646.557 663.996 646.294 663.979L646.282 663.972L646.281 663.971ZM645.096 671.31L644.812 676.275H644.791C644.782 676.425 644.734 676.57 644.651 676.696C644.568 676.822 644.454 676.924 644.319 676.991C644.184 677.06 644.033 677.089 643.882 677.075C643.731 677.061 643.587 677.005 643.467 676.914L639.395 674.029C640.691 672.757 642.318 671.871 644.09 671.473C644.422 671.402 644.757 671.348 645.094 671.311H645.096V671.31ZM647.466 671.31C649.605 671.576 651.596 672.537 653.137 674.043L649.104 676.91C648.982 677.008 648.835 677.069 648.68 677.088C648.524 677.106 648.367 677.08 648.226 677.013C648.084 676.946 647.964 676.841 647.88 676.709C647.796 676.578 647.75 676.425 647.748 676.268L647.467 671.311L647.466 671.31ZM637.917 675.897L641.641 679.218V679.24C641.754 679.339 641.838 679.467 641.885 679.611C641.931 679.754 641.938 679.908 641.904 680.055C641.871 680.202 641.798 680.337 641.694 680.446C641.589 680.555 641.458 680.634 641.312 680.674V680.688L636.534 682.062C636.297 679.909 636.785 677.739 637.919 675.894L637.917 675.897ZM654.619 675.897C655.75 677.736 656.251 679.895 656.043 682.045L651.258 680.667V680.648C651.112 680.609 650.98 680.531 650.875 680.422C650.771 680.312 650.698 680.177 650.665 680.029C650.632 679.882 650.639 679.729 650.686 679.585C650.732 679.441 650.816 679.313 650.93 679.213L654.624 675.908L654.619 675.897ZM645.519 679.478H647.042L647.974 680.66L647.635 682.137L646.266 682.794L644.895 682.137L644.572 680.66L645.519 679.478ZM650.398 683.51C650.462 683.503 650.526 683.503 650.59 683.51L655.517 684.341C654.797 686.391 653.408 688.139 651.574 689.304L649.67 684.695C649.617 684.571 649.596 684.437 649.606 684.303C649.617 684.169 649.659 684.04 649.73 683.926C649.801 683.812 649.898 683.717 650.013 683.648C650.129 683.579 650.259 683.539 650.393 683.531L650.398 683.51ZM642.123 683.531C642.26 683.534 642.395 683.57 642.515 683.636C642.635 683.702 642.736 683.797 642.811 683.912C642.886 684.027 642.931 684.158 642.942 684.294C642.954 684.431 642.932 684.568 642.878 684.693V684.711L640.986 689.284C639.174 688.123 637.796 686.396 637.066 684.372L641.95 683.544C642.005 683.538 642.061 683.538 642.115 683.544L642.124 683.531H642.123ZM646.25 685.519C646.567 685.511 646.862 685.679 647.013 685.958H647.031L649.439 690.302L648.477 690.586C646.706 690.991 644.857 690.896 643.137 690.311L645.553 685.967C645.625 685.841 645.728 685.737 645.852 685.663C645.977 685.59 646.118 685.55 646.263 685.547L646.25 685.52V685.519Z" fill="white" stroke="white" stroke-width="0.443735"/>
<rect x="641.334" y="520.74" width="240.653" height="99.3742" fill="#F1C40F"/>
<rect x="315" y="521" width="240.653" height="99.3742" fill="#F1C40F"/>
<rect x="922.693" y="520.74" width="99.3742" height="99.3742" fill="#8FBE00"/>
<rect x="922.693" y="408.195" width="99.3742" height="99.3742" fill="#8FBE00"/>
<rect x="922.693" y="296" width="99.3742" height="99.3742" fill="#8FBE00"/>
<rect x="178" y="409" width="99.3742" height="99.3742" fill="#8FBE00"/>
<rect x="315" y="409" width="99.3742" height="99.3742" fill="#8FBE00"/>
<rect x="178.523" y="521.74" width="99.3742" height="99.3742" fill="#8FBE00"/>
</svg>
