<svg width="1200" height="900" viewBox="0 0 1200 900" fill="none" xmlns="http://www.w3.org/2000/svg">
<rect width="1200" height="900" fill="white"/>
<path d="M141.49 396.734H125.936C125.652 394.722 125.072 392.935 124.196 391.372C123.32 389.786 122.196 388.437 120.822 387.324C119.449 386.211 117.863 385.359 116.064 384.767C114.288 384.175 112.359 383.879 110.276 383.879C106.511 383.879 103.232 384.814 100.439 386.685C97.6454 388.531 95.4792 391.23 93.9403 394.781C92.4015 398.309 91.6321 402.594 91.6321 407.636C91.6321 412.821 92.4015 417.177 93.9403 420.705C95.5028 424.232 97.6809 426.895 100.474 428.695C103.268 430.494 106.5 431.393 110.169 431.393C112.229 431.393 114.134 431.121 115.886 430.577C117.662 430.032 119.236 429.239 120.609 428.197C121.982 427.132 123.119 425.842 124.018 424.327C124.942 422.812 125.581 421.083 125.936 419.142L141.49 419.213C141.088 422.551 140.081 425.771 138.472 428.872C136.885 431.95 134.743 434.708 132.044 437.146C129.369 439.561 126.173 441.479 122.456 442.899C118.763 444.296 114.584 444.994 109.92 444.994C103.434 444.994 97.6335 443.527 92.5199 440.591C87.4299 437.655 83.4053 433.406 80.446 427.842C77.5104 422.279 76.0426 415.544 76.0426 407.636C76.0426 399.705 77.5341 392.958 80.517 387.395C83.5 381.831 87.5483 377.594 92.6619 374.682C97.7756 371.746 103.528 370.278 109.92 370.278C114.134 370.278 118.041 370.87 121.639 372.054C125.261 373.238 128.469 374.966 131.263 377.239C134.056 379.488 136.329 382.246 138.081 385.513C139.857 388.78 140.993 392.52 141.49 396.734ZM149.601 444V389.455H164.267V398.972H164.835C165.829 395.586 167.498 393.029 169.842 391.301C172.186 389.549 174.885 388.673 177.939 388.673C178.696 388.673 179.513 388.721 180.389 388.815C181.265 388.91 182.034 389.04 182.697 389.206V402.629C181.987 402.416 181.005 402.227 179.75 402.061C178.495 401.895 177.347 401.812 176.305 401.812C174.08 401.812 172.091 402.298 170.339 403.268C168.611 404.215 167.238 405.541 166.22 407.246C165.226 408.95 164.729 410.915 164.729 413.141V444H149.601ZM209.993 445.065C204.477 445.065 199.706 443.893 195.682 441.55C191.681 439.182 188.591 435.892 186.413 431.678C184.235 427.44 183.146 422.527 183.146 416.94C183.146 411.306 184.235 406.382 186.413 402.168C188.591 397.93 191.681 394.639 195.682 392.295C199.706 389.928 204.477 388.744 209.993 388.744C215.509 388.744 220.267 389.928 224.268 392.295C228.293 394.639 231.394 397.93 233.572 402.168C235.75 406.382 236.839 411.306 236.839 416.94C236.839 422.527 235.75 427.44 233.572 431.678C231.394 435.892 228.293 439.182 224.268 441.55C220.267 443.893 215.509 445.065 209.993 445.065ZM210.064 433.347C212.573 433.347 214.669 432.636 216.349 431.216C218.03 429.772 219.297 427.807 220.149 425.321C221.025 422.835 221.463 420.006 221.463 416.834C221.463 413.661 221.025 410.832 220.149 408.347C219.297 405.861 218.03 403.896 216.349 402.452C214.669 401.008 212.573 400.286 210.064 400.286C207.531 400.286 205.4 401.008 203.672 402.452C201.967 403.896 200.677 405.861 199.801 408.347C198.949 410.832 198.523 413.661 198.523 416.834C198.523 420.006 198.949 422.835 199.801 425.321C200.677 427.807 201.967 429.772 203.672 431.216C205.4 432.636 207.531 433.347 210.064 433.347ZM259.172 412.466V444H244.045V389.455H258.462V399.078H259.101C260.309 395.906 262.333 393.396 265.174 391.55C268.015 389.679 271.459 388.744 275.508 388.744C279.295 388.744 282.598 389.573 285.415 391.23C288.233 392.887 290.422 395.255 291.985 398.332C293.547 401.386 294.329 405.032 294.329 409.27V444H279.201V411.969C279.224 408.631 278.372 406.027 276.644 404.156C274.916 402.262 272.536 401.315 269.506 401.315C267.47 401.315 265.671 401.753 264.108 402.629C262.57 403.505 261.362 404.784 260.486 406.464C259.634 408.122 259.196 410.122 259.172 412.466ZM333.023 371.273H348.222V421.983C348.222 426.67 347.169 430.742 345.062 434.199C342.978 437.655 340.078 440.319 336.361 442.189C332.645 444.059 328.324 444.994 323.4 444.994C319.02 444.994 315.043 444.225 311.468 442.686C307.917 441.124 305.1 438.756 303.016 435.584C300.933 432.388 299.903 428.375 299.927 423.545H315.232C315.28 425.463 315.67 427.108 316.404 428.482C317.162 429.831 318.191 430.873 319.494 431.607C320.819 432.317 322.382 432.672 324.181 432.672C326.075 432.672 327.673 432.269 328.975 431.464C330.301 430.636 331.307 429.429 331.994 427.842C332.68 426.256 333.023 424.303 333.023 421.983V371.273ZM382.665 445.065C377.148 445.065 372.378 443.893 368.353 441.55C364.353 439.182 361.263 435.892 359.085 431.678C356.907 427.44 355.818 422.527 355.818 416.94C355.818 411.306 356.907 406.382 359.085 402.168C361.263 397.93 364.353 394.639 368.353 392.295C372.378 389.928 377.148 388.744 382.665 388.744C388.181 388.744 392.939 389.928 396.94 392.295C400.965 394.639 404.066 397.93 406.244 402.168C408.422 406.382 409.511 411.306 409.511 416.94C409.511 422.527 408.422 427.44 406.244 431.678C404.066 435.892 400.965 439.182 396.94 441.55C392.939 443.893 388.181 445.065 382.665 445.065ZM382.736 433.347C385.245 433.347 387.34 432.636 389.021 431.216C390.702 429.772 391.969 427.807 392.821 425.321C393.697 422.835 394.135 420.006 394.135 416.834C394.135 413.661 393.697 410.832 392.821 408.347C391.969 405.861 390.702 403.896 389.021 402.452C387.34 401.008 385.245 400.286 382.736 400.286C380.202 400.286 378.072 401.008 376.344 402.452C374.639 403.896 373.349 405.861 372.473 408.347C371.621 410.832 371.194 413.661 371.194 416.834C371.194 420.006 371.621 422.835 372.473 425.321C373.349 427.807 374.639 429.772 376.344 431.216C378.072 432.636 380.202 433.347 382.736 433.347ZM417 444V371.273H432.128V398.616H432.59C433.253 397.149 434.211 395.657 435.466 394.142C436.745 392.603 438.402 391.325 440.438 390.307C442.497 389.265 445.054 388.744 448.108 388.744C452.086 388.744 455.755 389.786 459.117 391.869C462.479 393.929 465.166 397.042 467.178 401.209C469.19 405.352 470.196 410.548 470.196 416.798C470.196 422.883 469.214 428.02 467.249 432.21C465.308 436.377 462.656 439.537 459.294 441.692C455.956 443.822 452.216 444.888 448.073 444.888C445.137 444.888 442.64 444.402 440.58 443.432C438.544 442.461 436.875 441.242 435.573 439.774C434.271 438.283 433.276 436.779 432.59 435.264H431.915V444H417ZM431.809 416.727C431.809 419.971 432.258 422.8 433.158 425.214C434.058 427.629 435.36 429.511 437.064 430.861C438.769 432.187 440.84 432.849 443.279 432.849C445.741 432.849 447.824 432.175 449.529 430.825C451.233 429.452 452.524 427.558 453.399 425.143C454.299 422.705 454.749 419.9 454.749 416.727C454.749 413.579 454.311 410.809 453.435 408.418C452.559 406.027 451.269 404.156 449.564 402.807C447.86 401.457 445.765 400.783 443.279 400.783C440.817 400.783 438.733 401.434 437.029 402.736C435.348 404.038 434.058 405.884 433.158 408.276C432.258 410.667 431.809 413.484 431.809 416.727Z" fill="black"/>
<rect x="71" y="498" width="1038" height="19" fill="black"/>
</svg>
