<svg width="1200" height="900" viewBox="0 0 1200 900" fill="none" xmlns="http://www.w3.org/2000/svg">
<path fill-rule="evenodd" clip-rule="evenodd" d="M406.911 244.829V654.171C406.911 659.599 402.507 664 397.075 664H51.056C45.6249 664 41.22 659.599 41.22 654.171V244.829C41.22 239.401 45.6242 235 51.056 235H397.075C402.506 235 406.911 239.401 406.911 244.829Z" fill="#D2D2D2"/>
<path fill-rule="evenodd" clip-rule="evenodd" d="M103.954 644.342H392.749V651.887H103.954V644.342ZM103.954 632.201H392.749V639.746H103.954V632.201ZM103.954 620.637H392.749V628.183H103.954V620.637ZM55.0989 248.298H392.749V255.814H55.0989V248.298Z" fill="#A3A3A3"/>
<path fill-rule="evenodd" clip-rule="evenodd" d="M59.042 269.134H389.089C389.605 269.134 390.117 269.235 390.594 269.433C391.072 269.631 391.506 269.92 391.871 270.286C392.236 270.651 392.526 271.085 392.724 271.562C392.922 272.039 393.024 272.551 393.024 273.067V603.077C393.024 604.12 392.609 605.121 391.871 605.859C391.134 606.597 390.133 607.011 389.089 607.011H59.0412C57.9978 607.011 56.997 606.597 56.2592 605.859C55.5213 605.121 55.1068 604.12 55.1068 603.077V273.067C55.107 272.024 55.5216 271.024 56.2594 270.286C56.9973 269.548 57.9979 269.134 59.0412 269.134H59.042Z" fill="white"/>
<path d="M73.508 618.556C73.1768 618.576 72.8529 618.662 72.5555 618.809L59.6581 624.959C59.3259 625.117 59.0338 625.348 58.8035 625.635C58.5733 625.922 58.4108 626.257 58.3283 626.616L55.17 640.422C55.0947 640.743 55.0866 641.076 55.1463 641.4C55.206 641.724 55.3322 642.032 55.5169 642.305C55.5617 642.372 55.608 642.437 55.6564 642.499L64.5674 653.577C65.0379 654.155 65.7454 654.488 66.4905 654.485H80.7828C81.1515 654.483 81.5152 654.4 81.848 654.241C82.1808 654.082 82.4745 653.852 82.7081 653.567L91.6148 642.486C92.0817 641.908 92.2566 641.144 92.0773 640.419L88.8996 626.603C88.8166 626.244 88.654 625.909 88.4237 625.622C88.1935 625.335 87.9017 625.104 87.5698 624.946L74.6918 618.81C74.3208 618.627 73.9098 618.54 73.4965 618.557L73.508 618.556Z" fill="#4A4A4A"/>
<path d="M73.6268 623.259C73.183 623.29 72.8462 623.671 72.8694 624.115V624.332C72.8896 624.579 72.9272 624.823 72.9756 625.065C73.0464 625.527 73.0725 625.997 73.0522 626.465C73.0077 626.62 72.92 626.758 72.7993 626.864L72.7826 627.191C72.3136 627.23 71.8482 627.302 71.39 627.406C69.4612 627.84 67.7064 628.842 66.3513 630.281L66.0737 630.085C65.9982 630.108 65.9189 630.115 65.8404 630.107C65.7619 630.099 65.6857 630.076 65.6163 630.039C65.2407 629.76 64.8932 629.447 64.5785 629.101C64.4203 628.912 64.2514 628.732 64.0726 628.563L63.9013 628.427C63.7489 628.305 63.5616 628.234 63.3665 628.225C63.2499 628.218 63.1334 628.24 63.0267 628.287C62.9199 628.334 62.8258 628.406 62.7522 628.497C62.6267 628.673 62.5761 628.892 62.6114 629.105C62.6468 629.318 62.7652 629.508 62.9408 629.635L63.1005 629.762C63.3065 629.899 63.5197 630.023 63.7394 630.135C64.152 630.363 64.5392 630.635 64.8943 630.945C64.9861 631.076 65.0395 631.23 65.0482 631.39L65.3012 631.621C63.9392 633.665 63.3795 636.14 63.7293 638.571L63.4048 638.663C63.3209 638.797 63.2081 638.911 63.0745 638.996C62.6224 639.117 62.1596 639.194 61.6927 639.225C61.4448 639.23 61.1975 639.249 60.9519 639.283L60.7467 639.329H60.725C60.5829 639.349 60.4491 639.408 60.3385 639.499C60.2279 639.59 60.1447 639.71 60.0983 639.846C60.0518 639.982 60.044 640.128 60.0755 640.267C60.107 640.407 60.1767 640.536 60.2769 640.638C60.4829 640.847 60.79 640.92 61.0683 640.829H61.0827L61.2923 640.806C61.5277 640.736 61.7586 640.651 61.9839 640.553C62.4182 640.379 62.8684 640.248 63.3282 640.161C63.4879 640.17 63.6411 640.224 63.7705 640.317L64.1174 640.259C64.8693 642.593 66.4506 644.57 68.562 645.817L68.4204 646.112C68.4854 646.247 68.5093 646.398 68.4898 646.547C68.2984 646.99 68.0646 647.413 67.7916 647.811C67.6419 648.008 67.5036 648.214 67.3775 648.427L67.2792 648.635C67.2079 648.759 67.1722 648.9 67.1759 649.043C67.1797 649.186 67.2228 649.325 67.3006 649.444C67.3783 649.564 67.4877 649.66 67.6165 649.722C67.7454 649.784 67.8888 649.808 68.0308 649.794C68.3221 649.761 68.5693 649.568 68.6712 649.294L68.7673 649.097C68.8554 648.866 68.9292 648.629 68.9899 648.392C69.1944 647.886 69.3057 647.343 69.5854 647.008C69.6769 646.921 69.7922 646.865 69.9164 646.845L70.0898 646.529C72.3781 647.409 74.9102 647.415 77.2027 646.547L77.3567 646.842C77.5139 646.866 77.6552 646.951 77.7498 647.079C77.9674 647.493 78.1437 647.927 78.2774 648.375C78.3388 648.615 78.4147 648.851 78.5022 649.082L78.5983 649.279C78.6489 649.413 78.7354 649.53 78.8484 649.618C78.9613 649.705 79.0963 649.76 79.2384 649.776C79.3805 649.791 79.5241 649.767 79.6535 649.707C79.7828 649.646 79.8929 649.55 79.9714 649.431C80.1304 649.185 80.1377 648.872 79.9902 648.619L79.889 648.411C79.7632 648.199 79.6252 647.994 79.4757 647.797C79.2097 647.41 78.9776 647 78.7819 646.573C78.7632 646.495 78.7605 646.414 78.7739 646.334C78.7873 646.255 78.8166 646.179 78.8599 646.111C78.8105 646.01 78.7675 645.906 78.7313 645.8C80.838 644.544 82.4119 642.56 83.1557 640.222L83.4838 640.28C83.6017 640.173 83.7567 640.115 83.916 640.12C84.3749 640.208 84.8251 640.352 85.2602 640.513C85.4864 640.618 85.7177 640.706 85.9526 640.78C86.0082 640.795 86.0899 640.808 86.1513 640.823H86.1665C86.3031 640.867 86.4493 640.872 86.5888 640.838C86.7283 640.804 86.8556 640.732 86.9565 640.63C87.0575 640.528 87.128 640.4 87.1604 640.26C87.1928 640.12 87.1858 639.974 87.14 639.838C87.0932 639.702 87.0097 639.582 86.8987 639.491C86.7877 639.4 86.6535 639.341 86.5112 639.322L86.2872 639.269C86.0411 639.235 85.7933 639.216 85.545 639.211C85.0779 639.181 84.615 639.105 84.1631 638.983C84.0238 638.904 83.9088 638.789 83.8307 638.65L83.5178 638.557C83.8507 636.127 83.2798 633.659 81.9134 631.623L82.1865 631.37C82.1757 631.211 82.2276 631.054 82.3311 630.932C82.6859 630.628 83.0693 630.358 83.4759 630.127C83.6963 630.015 83.9095 629.89 84.1147 629.754L84.2838 629.616C84.3772 629.559 84.4573 629.482 84.5188 629.391C84.5802 629.3 84.6218 629.198 84.6406 629.09C84.6594 628.982 84.6551 628.871 84.628 628.764C84.6008 628.658 84.5514 628.559 84.483 628.473C84.4147 628.387 84.3289 628.317 84.2314 628.267C84.1338 628.217 84.0268 628.188 83.9172 628.182C83.8077 628.176 83.6982 628.194 83.5959 628.234C83.4937 628.273 83.401 628.334 83.3241 628.412L83.1528 628.55C82.9741 628.719 82.8052 628.899 82.6469 629.087C82.3419 629.437 82.0037 629.755 81.6373 630.039C81.4892 630.099 81.3272 630.117 81.1697 630.09L80.877 630.299C79.1866 628.528 76.9105 627.43 74.4716 627.209C74.4716 627.093 74.4572 626.92 74.4543 626.866C74.3228 626.776 74.2319 626.638 74.2013 626.481C74.1854 626.014 74.2149 625.547 74.2895 625.086C74.3401 624.842 74.3741 624.599 74.3965 624.353V624.122C74.4078 623.908 74.3345 623.698 74.1925 623.538C74.0505 623.378 73.8512 623.28 73.6376 623.265L73.6275 623.259L73.6268 623.259ZM72.662 629.236L72.4307 633.278H72.4133C72.4063 633.401 72.367 633.519 72.2995 633.622C72.232 633.724 72.1386 633.807 72.0289 633.862C71.919 633.918 71.7956 633.941 71.6729 633.93C71.5501 633.919 71.433 633.874 71.3351 633.799L68.0193 631.45C69.0748 630.414 70.399 629.693 71.8424 629.369C72.1125 629.311 72.3853 629.267 72.6598 629.236H72.662V629.236ZM74.5916 629.236C76.3333 629.452 77.9551 630.235 79.2097 631.462L75.9257 633.796C75.8263 633.876 75.7065 633.926 75.58 633.941C75.4535 633.955 75.3253 633.934 75.2102 633.88C75.095 633.825 74.9975 633.74 74.9287 633.632C74.86 633.525 74.8228 633.401 74.8214 633.273L74.5923 629.236L74.5916 629.236ZM66.8152 632.971L69.8477 635.676V635.693C69.94 635.774 70.0087 635.878 70.0465 635.995C70.0843 636.112 70.0898 636.237 70.0624 636.357C70.035 636.476 69.9757 636.586 69.8908 636.675C69.806 636.764 69.6987 636.828 69.5803 636.861V636.872L65.6893 637.991C65.4966 636.238 65.8933 634.471 66.8167 632.968L66.8152 632.971ZM80.4166 632.971C81.338 634.469 81.7453 636.227 81.5766 637.977L77.6797 636.855V636.84C77.5609 636.808 77.4531 636.744 77.368 636.655C77.2829 636.567 77.2238 636.456 77.197 636.336C77.1699 636.216 77.1756 636.091 77.2135 635.974C77.2514 635.857 77.3201 635.753 77.4123 635.671L80.421 632.98L80.4166 632.971ZM73.006 635.887H74.2461L75.005 636.849L74.7289 638.053L73.6145 638.587L72.4979 638.053L72.2348 636.849L73.006 635.887ZM76.9794 639.171C77.0313 639.165 77.0837 639.165 77.1355 639.171L81.148 639.847C80.5614 641.517 79.4304 642.94 77.937 643.889L76.3861 640.135C76.3435 640.035 76.3258 639.925 76.3344 639.816C76.3429 639.707 76.3775 639.602 76.4352 639.509C76.4929 639.416 76.5721 639.339 76.666 639.283C76.76 639.227 76.866 639.194 76.9751 639.188L76.9794 639.171ZM70.2409 639.188C70.3525 639.19 70.4619 639.219 70.5596 639.273C70.6573 639.327 70.7402 639.404 70.801 639.498C70.8617 639.591 70.8984 639.698 70.9078 639.809C70.9173 639.92 70.8992 640.032 70.8552 640.134V640.148L69.3144 643.873C67.8391 642.927 66.717 641.521 66.1222 639.872L70.1 639.198C70.1446 639.193 70.1897 639.193 70.2344 639.198L70.2416 639.188H70.2409ZM73.6015 640.807C73.8595 640.8 74.1002 640.937 74.223 641.164H74.2375L76.1982 644.702L75.4148 644.933C73.9725 645.263 72.4669 645.185 71.0662 644.709L73.0334 641.171C73.0922 641.069 73.1763 640.984 73.2776 640.924C73.3789 640.864 73.4939 640.832 73.6116 640.829L73.6015 640.808V640.807Z" fill="white" stroke="white" stroke-width="0.361354"/>
<rect x="68.5197" y="507.595" width="80.925" height="80.925" fill="#8FBE00"/>
<path fill-rule="evenodd" clip-rule="evenodd" d="M782.721 244.829V654.171C782.721 659.599 778.316 664 772.884 664H426.866C421.435 664 417.03 659.599 417.03 654.171V244.829C417.03 239.401 421.434 235 426.866 235H772.884C778.316 235 782.721 239.401 782.721 244.829Z" fill="#D2D2D2"/>
<path fill-rule="evenodd" clip-rule="evenodd" d="M479.762 644.342H768.557V651.887H479.762V644.342ZM479.762 632.201H768.557V639.746H479.762V632.201ZM479.762 620.637H768.557V628.183H479.762V620.637ZM430.907 248.298H768.557V255.814H430.907V248.298Z" fill="#A3A3A3"/>
<path fill-rule="evenodd" clip-rule="evenodd" d="M434.85 269.134H764.897C765.414 269.134 765.925 269.235 766.403 269.433C766.88 269.631 767.314 269.92 767.679 270.286C768.045 270.651 768.335 271.085 768.532 271.562C768.73 272.039 768.832 272.551 768.832 273.067V603.077C768.832 604.12 768.418 605.121 767.68 605.859C766.942 606.597 765.941 607.011 764.898 607.011H434.85C433.806 607.011 432.805 606.597 432.068 605.859C431.33 605.121 430.915 604.12 430.915 603.077V273.067C430.915 272.024 431.33 271.024 432.068 270.286C432.806 269.548 433.806 269.134 434.85 269.134H434.85Z" fill="white"/>
<path d="M449.316 618.556C448.985 618.576 448.661 618.662 448.364 618.809L435.466 624.959C435.134 625.117 434.842 625.348 434.612 625.635C434.382 625.922 434.219 626.257 434.137 626.616L430.978 640.422C430.903 640.743 430.895 641.076 430.955 641.4C431.014 641.724 431.141 642.032 431.325 642.305C431.37 642.372 431.416 642.437 431.465 642.499L440.376 653.577C440.846 654.155 441.554 654.488 442.299 654.485H456.591C456.96 654.483 457.324 654.4 457.656 654.241C457.989 654.082 458.283 653.852 458.516 653.567L467.423 642.486C467.89 641.908 468.065 641.144 467.886 640.419L464.708 626.603C464.625 626.244 464.462 625.909 464.232 625.622C464.002 625.335 463.71 625.104 463.378 624.946L450.5 618.81C450.129 618.627 449.718 618.54 449.305 618.557L449.316 618.556Z" fill="#4A4A4A"/>
<path d="M449.437 623.259C448.993 623.29 448.656 623.671 448.679 624.115V624.332C448.699 624.579 448.737 624.823 448.785 625.065C448.856 625.527 448.882 625.997 448.862 626.465C448.818 626.62 448.73 626.758 448.609 626.864L448.592 627.191C448.123 627.23 447.658 627.302 447.2 627.406C445.271 627.84 443.516 628.842 442.161 630.281L441.884 630.085C441.808 630.108 441.729 630.115 441.65 630.107C441.572 630.099 441.496 630.076 441.426 630.039C441.051 629.76 440.703 629.447 440.388 629.101C440.23 628.912 440.061 628.732 439.882 628.563L439.711 628.427C439.559 628.305 439.371 628.234 439.176 628.225C439.06 628.218 438.943 628.24 438.836 628.287C438.73 628.334 438.636 628.406 438.562 628.497C438.436 628.673 438.386 628.892 438.421 629.105C438.457 629.318 438.575 629.508 438.751 629.635L438.91 629.762C439.116 629.899 439.33 630.023 439.549 630.135C439.962 630.363 440.349 630.635 440.704 630.945C440.796 631.076 440.849 631.23 440.858 631.39L441.111 631.621C439.749 633.665 439.189 636.14 439.539 638.571L439.215 638.663C439.131 638.797 439.018 638.911 438.884 638.996C438.432 639.117 437.969 639.194 437.502 639.225C437.255 639.23 437.007 639.249 436.762 639.283L436.556 639.329H436.535C436.393 639.349 436.259 639.408 436.148 639.499C436.038 639.59 435.955 639.71 435.908 639.846C435.862 639.982 435.854 640.128 435.885 640.267C435.917 640.407 435.987 640.536 436.087 640.638C436.293 640.847 436.6 640.92 436.878 640.829H436.893L437.102 640.806C437.337 640.736 437.568 640.651 437.794 640.553C438.228 640.379 438.678 640.248 439.138 640.161C439.298 640.17 439.451 640.224 439.58 640.317L439.927 640.259C440.679 642.593 442.26 644.57 444.372 645.817L444.23 646.112C444.295 646.247 444.319 646.398 444.3 646.547C444.108 646.99 443.874 647.413 443.601 647.811C443.452 648.008 443.313 648.214 443.187 648.427L443.089 648.635C443.018 648.759 442.982 648.9 442.986 649.043C442.99 649.186 443.033 649.325 443.11 649.444C443.188 649.564 443.297 649.66 443.426 649.722C443.555 649.784 443.699 649.808 443.841 649.794C444.132 649.761 444.379 649.568 444.481 649.294L444.577 649.097C444.665 648.866 444.739 648.629 444.8 648.392C445.004 647.886 445.116 647.343 445.395 647.008C445.487 646.921 445.602 646.865 445.726 646.845L445.9 646.529C448.188 647.409 450.72 647.415 453.013 646.547L453.166 646.842C453.324 646.866 453.465 646.951 453.56 647.079C453.777 647.493 453.954 647.927 454.087 648.375C454.149 648.615 454.225 648.851 454.312 649.082L454.408 649.279C454.459 649.413 454.545 649.53 454.658 649.618C454.771 649.705 454.906 649.76 455.048 649.776C455.19 649.791 455.334 649.767 455.463 649.707C455.593 649.646 455.703 649.55 455.781 649.431C455.94 649.185 455.947 648.872 455.8 648.619L455.699 648.411C455.573 648.199 455.435 647.994 455.285 647.797C455.02 647.41 454.787 647 454.592 646.573C454.573 646.495 454.57 646.414 454.584 646.334C454.597 646.255 454.626 646.179 454.67 646.111C454.62 646.01 454.577 645.906 454.541 645.8C456.648 644.544 458.222 642.56 458.966 640.222L459.294 640.28C459.411 640.173 459.566 640.115 459.726 640.12C460.185 640.208 460.635 640.352 461.07 640.513C461.296 640.618 461.528 640.706 461.762 640.78C461.818 640.795 461.9 640.808 461.961 640.823H461.976C462.113 640.867 462.259 640.872 462.399 640.838C462.538 640.804 462.665 640.732 462.766 640.63C462.867 640.528 462.938 640.4 462.97 640.26C463.003 640.12 462.996 639.974 462.95 639.838C462.903 639.702 462.82 639.582 462.709 639.491C462.597 639.4 462.463 639.341 462.321 639.322L462.097 639.269C461.851 639.235 461.603 639.216 461.355 639.211C460.888 639.181 460.425 639.105 459.973 638.983C459.834 638.904 459.719 638.789 459.641 638.65L459.328 638.557C459.661 636.127 459.09 633.659 457.723 631.623L457.996 631.37C457.985 631.211 458.037 631.054 458.141 630.932C458.496 630.628 458.879 630.358 459.286 630.127C459.506 630.015 459.719 629.89 459.925 629.754L460.094 629.616C460.187 629.559 460.267 629.482 460.329 629.391C460.39 629.3 460.432 629.198 460.45 629.09C460.469 628.982 460.465 628.871 460.438 628.764C460.411 628.658 460.361 628.559 460.293 628.473C460.224 628.387 460.139 628.317 460.041 628.267C459.944 628.217 459.837 628.188 459.727 628.182C459.618 628.176 459.508 628.194 459.406 628.234C459.304 628.273 459.211 628.334 459.134 628.412L458.963 628.55C458.784 628.719 458.615 628.899 458.457 629.087C458.152 629.437 457.814 629.755 457.447 630.039C457.299 630.099 457.137 630.117 456.98 630.09L456.687 630.299C454.996 628.528 452.72 627.43 450.281 627.209C450.281 627.093 450.267 626.92 450.264 626.866C450.133 626.776 450.042 626.638 450.011 626.481C449.995 626.014 450.025 625.547 450.099 625.086C450.15 624.842 450.184 624.599 450.206 624.353V624.122C450.218 623.908 450.144 623.698 450.002 623.538C449.86 623.378 449.661 623.28 449.447 623.265L449.437 623.259L449.437 623.259ZM448.472 629.236L448.241 633.278H448.223C448.216 633.401 448.177 633.519 448.109 633.622C448.042 633.724 447.948 633.807 447.839 633.862C447.729 633.918 447.605 633.941 447.483 633.93C447.36 633.919 447.243 633.874 447.145 633.799L443.829 631.45C444.885 630.414 446.209 629.693 447.652 629.369C447.922 629.311 448.195 629.267 448.47 629.236H448.472V629.236ZM450.401 629.236C452.143 629.452 453.765 630.235 455.02 631.462L451.736 633.796C451.636 633.876 451.516 633.926 451.39 633.941C451.263 633.955 451.135 633.934 451.02 633.88C450.905 633.825 450.807 633.74 450.739 633.632C450.67 633.525 450.633 633.401 450.631 633.273L450.402 629.236L450.401 629.236ZM442.625 632.971L445.658 635.676V635.693C445.75 635.774 445.819 635.878 445.856 635.995C445.894 636.112 445.9 636.237 445.872 636.357C445.845 636.476 445.786 636.586 445.701 636.675C445.616 636.764 445.508 636.828 445.39 636.861V636.872L441.499 637.991C441.306 636.238 441.703 634.471 442.627 632.968L442.625 632.971ZM456.226 632.971C457.148 634.469 457.555 636.227 457.386 637.977L453.49 636.855V636.84C453.371 636.808 453.263 636.744 453.178 636.655C453.093 636.567 453.034 636.456 453.007 636.336C452.98 636.216 452.985 636.091 453.023 635.974C453.061 635.857 453.13 635.753 453.222 635.671L456.231 632.98L456.226 632.971ZM448.816 635.887H450.056L450.815 636.849L450.539 638.053L449.424 638.587L448.308 638.053L448.045 636.849L448.816 635.887ZM452.789 639.171C452.841 639.165 452.893 639.165 452.945 639.171L456.958 639.847C456.371 641.517 455.24 642.94 453.747 643.889L452.196 640.135C452.153 640.035 452.136 639.925 452.144 639.816C452.153 639.707 452.187 639.602 452.245 639.509C452.303 639.416 452.382 639.339 452.476 639.283C452.57 639.227 452.676 639.194 452.785 639.188L452.789 639.171ZM446.051 639.188C446.162 639.19 446.272 639.219 446.369 639.273C446.467 639.327 446.55 639.404 446.611 639.498C446.671 639.591 446.708 639.698 446.718 639.809C446.727 639.92 446.709 640.032 446.665 640.134V640.148L445.124 643.873C443.649 642.927 442.527 641.521 441.932 639.872L445.91 639.198C445.954 639.193 446 639.193 446.044 639.198L446.051 639.188H446.051ZM449.411 640.807C449.669 640.8 449.91 640.937 450.033 641.164H450.047L452.008 644.702L451.225 644.933C449.782 645.263 448.277 645.185 446.876 644.709L448.843 641.171C448.902 641.069 448.986 640.984 449.087 640.924C449.189 640.864 449.304 640.832 449.421 640.829L449.411 640.808V640.807Z" fill="white" stroke="white" stroke-width="0.361354"/>
<rect x="444.87" y="507.595" width="195.975" height="80.925" fill="#D2D2D2"/>
<path d="M476.989 556.722H470.9V539.546H477.039C478.767 539.546 480.254 539.89 481.501 540.578C482.747 541.26 483.706 542.241 484.377 543.522C485.054 544.802 485.392 546.334 485.392 548.117C485.392 549.906 485.054 551.444 484.377 552.73C483.706 554.016 482.742 555.002 481.484 555.69C480.231 556.378 478.733 556.722 476.989 556.722ZM474.531 553.61H476.838C477.911 553.61 478.814 553.42 479.547 553.04C480.285 552.654 480.838 552.059 481.207 551.254C481.582 550.443 481.769 549.398 481.769 548.117C481.769 546.848 481.582 545.811 481.207 545.006C480.838 544.201 480.287 543.608 479.555 543.228C478.823 542.848 477.92 542.658 476.846 542.658H474.531V553.61ZM493.885 556.973C492.56 556.973 491.42 556.705 490.464 556.168C489.513 555.626 488.781 554.86 488.266 553.87C487.752 552.875 487.495 551.698 487.495 550.34C487.495 549.015 487.752 547.852 488.266 546.851C488.781 545.85 489.505 545.07 490.438 544.511C491.378 543.952 492.479 543.672 493.743 543.672C494.592 543.672 495.384 543.809 496.116 544.083C496.854 544.352 497.497 544.757 498.045 545.299C498.598 545.842 499.029 546.524 499.336 547.346C499.644 548.162 499.798 549.118 499.798 550.214V551.195H488.92V548.981H496.435C496.435 548.467 496.323 548.011 496.099 547.614C495.876 547.217 495.565 546.907 495.168 546.683C494.777 546.454 494.321 546.339 493.801 546.339C493.259 546.339 492.778 546.465 492.359 546.717C491.945 546.963 491.621 547.295 491.386 547.715C491.151 548.128 491.031 548.59 491.025 549.098V551.203C491.025 551.841 491.143 552.392 491.378 552.856C491.618 553.32 491.956 553.677 492.392 553.929C492.828 554.181 493.346 554.306 493.944 554.306C494.341 554.306 494.704 554.25 495.034 554.139C495.364 554.027 495.646 553.859 495.881 553.635C496.116 553.412 496.295 553.138 496.418 552.814L499.722 553.032C499.554 553.826 499.211 554.519 498.691 555.111C498.176 555.699 497.511 556.157 496.695 556.487C495.884 556.811 494.947 556.973 493.885 556.973ZM512.847 547.513L509.576 547.715C509.52 547.435 509.4 547.184 509.215 546.96C509.031 546.731 508.788 546.549 508.486 546.415C508.19 546.275 507.835 546.205 507.421 546.205C506.867 546.205 506.4 546.323 506.02 546.557C505.64 546.787 505.45 547.094 505.45 547.48C505.45 547.787 505.573 548.047 505.819 548.26C506.065 548.472 506.487 548.643 507.085 548.771L509.417 549.241C510.669 549.498 511.603 549.912 512.218 550.482C512.833 551.052 513.14 551.802 513.14 552.73C513.14 553.574 512.891 554.315 512.394 554.952C511.902 555.59 511.225 556.087 510.364 556.445C509.509 556.797 508.522 556.973 507.404 556.973C505.699 556.973 504.34 556.618 503.328 555.908C502.322 555.193 501.732 554.22 501.559 552.99L505.073 552.805C505.179 553.325 505.436 553.722 505.844 553.996C506.252 554.264 506.775 554.399 507.412 554.399C508.039 554.399 508.542 554.278 508.922 554.038C509.308 553.792 509.503 553.476 509.509 553.09C509.503 552.766 509.366 552.501 509.098 552.294C508.83 552.081 508.416 551.919 507.857 551.807L505.626 551.363C504.368 551.111 503.432 550.675 502.817 550.055C502.207 549.434 501.903 548.643 501.903 547.681C501.903 546.854 502.126 546.141 502.573 545.543C503.026 544.944 503.661 544.483 504.477 544.159C505.299 543.835 506.261 543.672 507.362 543.672C508.989 543.672 510.269 544.016 511.203 544.704C512.142 545.392 512.69 546.328 512.847 547.513ZM521.21 556.973C519.891 556.973 518.756 556.694 517.805 556.135C516.86 555.57 516.134 554.787 515.625 553.786C515.122 552.786 514.87 551.634 514.87 550.331C514.87 549.012 515.124 547.854 515.633 546.859C516.148 545.859 516.877 545.079 517.822 544.519C518.767 543.955 519.891 543.672 521.193 543.672C522.317 543.672 523.301 543.877 524.145 544.285C524.99 544.693 525.658 545.266 526.15 546.004C526.642 546.742 526.913 547.608 526.963 548.604H523.592C523.497 547.961 523.245 547.444 522.837 547.052C522.434 546.655 521.906 546.457 521.252 546.457C520.699 546.457 520.215 546.608 519.801 546.91C519.393 547.206 519.074 547.639 518.845 548.21C518.616 548.78 518.501 549.47 518.501 550.281C518.501 551.103 518.613 551.802 518.837 552.378C519.066 552.953 519.387 553.392 519.801 553.694C520.215 553.996 520.699 554.147 521.252 554.147C521.66 554.147 522.026 554.063 522.351 553.895C522.68 553.728 522.952 553.485 523.164 553.166C523.382 552.842 523.525 552.453 523.592 552H526.963C526.907 552.984 526.639 553.851 526.158 554.6C525.683 555.344 525.026 555.925 524.187 556.344C523.349 556.764 522.356 556.973 521.21 556.973ZM532.823 549.275V556.722H529.251V539.546H532.722V546.113H532.873C533.164 545.353 533.634 544.757 534.282 544.327C534.931 543.891 535.744 543.672 536.723 543.672C537.617 543.672 538.397 543.868 539.063 544.26C539.734 544.645 540.253 545.202 540.622 545.928C540.997 546.65 541.182 547.513 541.176 548.52V556.722H537.603V549.157C537.609 548.363 537.408 547.745 537 547.304C536.597 546.862 536.032 546.641 535.305 546.641C534.819 546.641 534.389 546.745 534.014 546.952C533.645 547.158 533.354 547.46 533.142 547.857C532.935 548.249 532.829 548.721 532.823 549.275ZM549.858 556.973C548.533 556.973 547.392 556.705 546.436 556.168C545.486 555.626 544.753 554.86 544.239 553.87C543.725 552.875 543.468 551.698 543.468 550.34C543.468 549.015 543.725 547.852 544.239 546.851C544.753 545.85 545.477 545.07 546.411 544.511C547.35 543.952 548.452 543.672 549.715 543.672C550.565 543.672 551.356 543.809 552.089 544.083C552.827 544.352 553.47 544.757 554.018 545.299C554.571 545.842 555.002 546.524 555.309 547.346C555.617 548.162 555.77 549.118 555.77 550.214V551.195H544.893V548.981H552.407C552.407 548.467 552.296 548.011 552.072 547.614C551.848 547.217 551.538 546.907 551.141 546.683C550.75 546.454 550.294 546.339 549.774 546.339C549.232 546.339 548.751 546.465 548.332 546.717C547.918 546.963 547.594 547.295 547.359 547.715C547.124 548.128 547.004 548.59 546.998 549.098V551.203C546.998 551.841 547.116 552.392 547.35 552.856C547.591 553.32 547.929 553.677 548.365 553.929C548.801 554.181 549.318 554.306 549.917 554.306C550.314 554.306 550.677 554.25 551.007 554.139C551.337 554.027 551.619 553.859 551.854 553.635C552.089 553.412 552.268 553.138 552.391 552.814L555.695 553.032C555.527 553.826 555.183 554.519 554.663 555.111C554.149 555.699 553.484 556.157 552.667 556.487C551.857 556.811 550.92 556.973 549.858 556.973ZM562.848 556.931C561.87 556.931 560.984 556.68 560.19 556.177C559.402 555.668 558.775 554.921 558.311 553.937C557.853 552.948 557.624 551.735 557.624 550.298C557.624 548.822 557.861 547.595 558.337 546.616C558.812 545.632 559.444 544.897 560.232 544.41C561.026 543.918 561.895 543.672 562.84 543.672C563.561 543.672 564.162 543.795 564.643 544.041C565.13 544.282 565.521 544.584 565.817 544.947C566.119 545.305 566.348 545.657 566.505 546.004H566.614V539.546H570.178V556.722H566.656V554.659H566.505C566.337 555.016 566.1 555.371 565.792 555.724C565.49 556.07 565.096 556.358 564.61 556.587C564.129 556.817 563.542 556.931 562.848 556.931ZM563.981 554.088C564.556 554.088 565.043 553.932 565.44 553.619C565.842 553.3 566.15 552.856 566.362 552.285C566.58 551.715 566.689 551.047 566.689 550.281C566.689 549.515 566.583 548.85 566.371 548.285C566.158 547.72 565.851 547.284 565.448 546.977C565.046 546.669 564.556 546.515 563.981 546.515C563.394 546.515 562.899 546.675 562.496 546.993C562.094 547.312 561.789 547.754 561.582 548.319C561.375 548.883 561.272 549.537 561.272 550.281C561.272 551.03 561.375 551.693 561.582 552.269C561.795 552.839 562.099 553.286 562.496 553.61C562.899 553.929 563.394 554.088 563.981 554.088ZM581.376 551.237V543.84H584.949V556.722H581.519V554.382H581.384C581.094 555.137 580.61 555.743 579.934 556.202C579.263 556.66 578.444 556.889 577.476 556.889C576.615 556.889 575.858 556.694 575.204 556.302C574.55 555.911 574.038 555.355 573.669 554.633C573.306 553.912 573.121 553.048 573.115 552.042V543.84H576.688V551.405C576.694 552.165 576.898 552.766 577.3 553.208C577.703 553.649 578.242 553.87 578.919 553.87C579.349 553.87 579.752 553.772 580.127 553.577C580.501 553.376 580.803 553.079 581.032 552.688C581.267 552.296 581.382 551.813 581.376 551.237ZM591.379 539.546V556.722H587.806V539.546H591.379ZM600.111 556.973C598.786 556.973 597.646 556.705 596.69 556.168C595.739 555.626 595.007 554.86 594.492 553.87C593.978 552.875 593.721 551.698 593.721 550.34C593.721 549.015 593.978 547.852 594.492 546.851C595.007 545.85 595.731 545.07 596.664 544.511C597.604 543.952 598.705 543.672 599.969 543.672C600.819 543.672 601.61 543.809 602.342 544.083C603.08 544.352 603.723 544.757 604.271 545.299C604.824 545.842 605.255 546.524 605.562 547.346C605.87 548.162 606.024 549.118 606.024 550.214V551.195H595.147V548.981H602.661C602.661 548.467 602.549 548.011 602.325 547.614C602.102 547.217 601.791 546.907 601.394 546.683C601.003 546.454 600.547 546.339 600.027 546.339C599.485 546.339 599.004 546.465 598.585 546.717C598.171 546.963 597.847 547.295 597.612 547.715C597.377 548.128 597.257 548.59 597.251 549.098V551.203C597.251 551.841 597.369 552.392 597.604 552.856C597.844 553.32 598.182 553.677 598.618 553.929C599.055 554.181 599.572 554.306 600.17 554.306C600.567 554.306 600.93 554.25 601.26 554.139C601.59 554.027 601.872 553.859 602.107 553.635C602.342 553.412 602.521 553.138 602.644 552.814L605.948 553.032C605.78 553.826 605.437 554.519 604.917 555.111C604.402 555.699 603.737 556.157 602.921 556.487C602.11 556.811 601.174 556.973 600.111 556.973ZM608.355 556.722V543.84H611.819V546.088H611.953C612.188 545.288 612.582 544.684 613.135 544.276C613.689 543.863 614.326 543.656 615.047 543.656C615.226 543.656 615.419 543.667 615.626 543.689C615.833 543.712 616.015 543.742 616.171 543.781V546.952C616.003 546.901 615.771 546.856 615.475 546.817C615.179 546.778 614.908 546.759 614.662 546.759C614.136 546.759 613.666 546.873 613.253 547.102C612.845 547.326 612.52 547.639 612.28 548.042C612.045 548.444 611.928 548.908 611.928 549.434V556.722H608.355Z" fill="black"/>
<rect x="444.87" y="414.971" width="195.975" height="80.925" fill="#F1C40F"/>
<rect x="673.994" y="507.595" width="80.925" height="80.925" fill="#8FBE00"/>
<path fill-rule="evenodd" clip-rule="evenodd" d="M1158 244.829V654.171C1158 659.599 1153.59 664 1148.16 664H802.144C796.713 664 792.308 659.599 792.308 654.171V244.829C792.308 239.401 796.713 235 802.144 235H1148.16C1153.59 235 1158 239.401 1158 244.829Z" fill="#D2D2D2"/>
<path fill-rule="evenodd" clip-rule="evenodd" d="M855.041 644.342H1143.84V651.887H855.041V644.342ZM855.041 632.201H1143.84V639.746H855.041V632.201ZM855.041 620.637H1143.84V628.183H855.041V620.637ZM806.186 248.298H1143.84V255.814H806.186V248.298Z" fill="#A3A3A3"/>
<path fill-rule="evenodd" clip-rule="evenodd" d="M810.129 269.134H1140.18C1140.69 269.134 1141.2 269.235 1141.68 269.433C1142.16 269.631 1142.59 269.92 1142.96 270.286C1143.32 270.651 1143.61 271.085 1143.81 271.562C1144.01 272.039 1144.11 272.551 1144.11 273.067V603.077C1144.11 604.12 1143.7 605.121 1142.96 605.859C1142.22 606.597 1141.22 607.011 1140.18 607.011H810.128C809.085 607.011 808.084 606.597 807.346 605.859C806.608 605.121 806.194 604.12 806.194 603.077V273.067C806.194 272.024 806.608 271.024 807.346 270.286C808.084 269.548 809.085 269.134 810.128 269.134H810.129Z" fill="white"/>
<path d="M824.595 618.556C824.264 618.576 823.94 618.662 823.642 618.809L810.745 624.959C810.413 625.117 810.121 625.348 809.89 625.635C809.66 625.922 809.498 626.257 809.415 626.616L806.257 640.422C806.181 640.743 806.173 641.076 806.233 641.4C806.293 641.724 806.419 642.032 806.604 642.305C806.649 642.372 806.695 642.437 806.743 642.499L815.654 653.577C816.125 654.155 816.832 654.488 817.577 654.485H831.87C832.238 654.483 832.602 654.4 832.935 654.241C833.268 654.082 833.561 653.852 833.795 653.567L842.702 642.486C843.168 641.908 843.343 641.144 843.164 640.419L839.986 626.603C839.903 626.244 839.741 625.909 839.511 625.622C839.28 625.335 838.988 625.104 838.657 624.946L825.779 618.81C825.408 618.627 824.997 618.54 824.583 618.557L824.595 618.556Z" fill="#4A4A4A"/>
<path d="M824.715 623.259C824.271 623.29 823.935 623.671 823.958 624.115V624.332C823.978 624.579 824.015 624.823 824.064 625.065C824.135 625.527 824.161 625.997 824.14 626.465C824.096 626.62 824.008 626.758 823.888 626.864L823.871 627.191C823.402 627.23 822.936 627.302 822.478 627.406C820.549 627.84 818.795 628.842 817.44 630.281L817.162 630.085C817.086 630.108 817.007 630.115 816.929 630.107C816.85 630.099 816.774 630.076 816.705 630.039C816.329 629.76 815.981 629.447 815.667 629.101C815.509 628.912 815.34 628.732 815.161 628.563L814.99 628.427C814.837 628.305 814.65 628.234 814.455 628.225C814.338 628.218 814.222 628.24 814.115 628.287C814.008 628.334 813.914 628.406 813.84 628.497C813.715 628.673 813.664 628.892 813.7 629.105C813.735 629.318 813.853 629.508 814.029 629.635L814.189 629.762C814.395 629.899 814.608 630.023 814.828 630.135C815.24 630.363 815.627 630.635 815.983 630.945C816.074 631.076 816.128 631.23 816.136 631.39L816.389 631.621C815.028 633.665 814.468 636.14 814.818 638.571L814.493 638.663C814.409 638.797 814.296 638.911 814.163 638.996C813.711 639.117 813.248 639.194 812.781 639.225C812.533 639.23 812.286 639.249 812.04 639.283L811.835 639.329H811.813C811.671 639.349 811.537 639.408 811.427 639.499C811.316 639.59 811.233 639.71 811.187 639.846C811.14 639.982 811.132 640.128 811.164 640.267C811.195 640.407 811.265 640.536 811.365 640.638C811.571 640.847 811.878 640.92 812.157 640.829H812.171L812.381 640.806C812.616 640.736 812.847 640.651 813.072 640.553C813.506 640.379 813.957 640.248 814.416 640.161C814.576 640.17 814.729 640.224 814.859 640.317L815.206 640.259C815.958 642.593 817.539 644.57 819.65 645.817L819.509 646.112C819.574 646.247 819.598 646.398 819.578 646.547C819.387 646.99 819.153 647.413 818.88 647.811C818.73 648.008 818.592 648.214 818.466 648.427L818.367 648.635C818.296 648.759 818.26 648.9 818.264 649.043C818.268 649.186 818.311 649.325 818.389 649.444C818.467 649.564 818.576 649.66 818.705 649.722C818.834 649.784 818.977 649.808 819.119 649.794C819.41 649.761 819.658 649.568 819.759 649.294L819.856 649.097C819.944 648.866 820.017 648.629 820.078 648.392C820.283 647.886 820.394 647.343 820.674 647.008C820.765 646.921 820.88 646.865 821.005 646.845L821.178 646.529C823.466 647.409 825.998 647.415 828.291 646.547L828.445 646.842C828.602 646.866 828.743 646.951 828.838 647.079C829.056 647.493 829.232 647.927 829.366 648.375C829.427 648.615 829.503 648.851 829.59 649.082L829.687 649.279C829.737 649.413 829.824 649.53 829.937 649.618C830.05 649.705 830.185 649.76 830.327 649.776C830.469 649.791 830.612 649.767 830.742 649.707C830.871 649.646 830.981 649.55 831.06 649.431C831.219 649.185 831.226 648.872 831.078 648.619L830.977 648.411C830.851 648.199 830.713 647.994 830.564 647.797C830.298 647.41 830.066 647 829.87 646.573C829.851 646.495 829.849 646.414 829.862 646.334C829.876 646.255 829.905 646.179 829.948 646.111C829.899 646.01 829.856 645.906 829.82 645.8C831.926 644.544 833.5 642.56 834.244 640.222L834.572 640.28C834.69 640.173 834.845 640.115 835.004 640.12C835.463 640.208 835.913 640.352 836.348 640.513C836.575 640.618 836.806 640.706 837.041 640.78C837.096 640.795 837.178 640.808 837.24 640.823H837.255C837.391 640.867 837.538 640.872 837.677 640.838C837.817 640.804 837.944 640.732 838.045 640.63C838.146 640.528 838.216 640.4 838.249 640.26C838.281 640.12 838.274 639.974 838.228 639.838C838.182 639.702 838.098 639.582 837.987 639.491C837.876 639.4 837.742 639.341 837.599 639.322L837.375 639.269C837.129 639.235 836.882 639.216 836.633 639.211C836.166 639.181 835.703 639.105 835.251 638.983C835.112 638.904 834.997 638.789 834.919 638.65L834.606 638.557C834.939 636.127 834.368 633.659 833.002 631.623L833.275 631.37C833.264 631.211 833.316 631.054 833.419 630.932C833.774 630.628 834.158 630.358 834.564 630.127C834.785 630.015 834.998 629.89 835.203 629.754L835.372 629.616C835.465 629.559 835.546 629.482 835.607 629.391C835.669 629.3 835.71 629.198 835.729 629.09C835.748 628.982 835.743 628.871 835.716 628.764C835.689 628.658 835.64 628.559 835.571 628.473C835.503 628.387 835.417 628.317 835.32 628.267C835.222 628.217 835.115 628.188 835.005 628.182C834.896 628.176 834.786 628.194 834.684 628.234C834.582 628.273 834.489 628.334 834.412 628.412L834.241 628.55C834.062 628.719 833.893 628.899 833.735 629.087C833.43 629.437 833.092 629.755 832.726 630.039C832.577 630.099 832.415 630.117 832.258 630.09L831.965 630.299C830.275 628.528 827.999 627.43 825.56 627.209C825.56 627.093 825.545 626.92 825.543 626.866C825.411 626.776 825.32 626.638 825.29 626.481C825.274 626.014 825.303 625.547 825.378 625.086C825.428 624.842 825.462 624.599 825.485 624.353V624.122C825.496 623.908 825.423 623.698 825.281 623.538C825.139 623.378 824.939 623.28 824.726 623.265L824.716 623.259L824.715 623.259ZM823.75 629.236L823.519 633.278H823.502C823.495 633.401 823.455 633.519 823.388 633.622C823.32 633.724 823.227 633.807 823.117 633.862C823.007 633.918 822.884 633.941 822.761 633.93C822.638 633.919 822.521 633.874 822.423 633.799L819.108 631.45C820.163 630.414 821.487 629.693 822.931 629.369C823.201 629.311 823.474 629.267 823.748 629.236H823.75V629.236ZM825.68 629.236C827.422 629.452 829.043 630.235 830.298 631.462L827.014 633.796C826.915 633.876 826.795 633.926 826.668 633.941C826.542 633.955 826.414 633.934 826.298 633.88C826.183 633.825 826.086 633.74 826.017 633.632C825.948 633.525 825.911 633.401 825.91 633.273L825.681 629.236L825.68 629.236ZM817.904 632.971L820.936 635.676V635.693C821.028 635.774 821.097 635.878 821.135 635.995C821.173 636.112 821.178 636.237 821.151 636.357C821.123 636.476 821.064 636.586 820.979 636.675C820.894 636.764 820.787 636.828 820.669 636.861V636.872L816.778 637.991C816.585 636.238 816.982 634.471 817.905 632.968L817.904 632.971ZM831.505 632.971C832.426 634.469 832.834 636.227 832.665 637.977L828.768 636.855V636.84C828.649 636.808 828.541 636.744 828.456 636.655C828.371 636.567 828.312 636.456 828.285 636.336C828.258 636.216 828.264 636.091 828.302 635.974C828.34 635.857 828.408 635.753 828.501 635.671L831.509 632.98L831.505 632.971ZM824.094 635.887H825.334L826.093 636.849L825.817 638.053L824.703 638.587L823.586 638.053L823.323 636.849L824.094 635.887ZM828.068 639.171C828.12 639.165 828.172 639.165 828.224 639.171L832.236 639.847C831.65 641.517 830.519 642.94 829.025 643.889L827.474 640.135C827.432 640.035 827.414 639.925 827.423 639.816C827.431 639.707 827.466 639.602 827.523 639.509C827.581 639.416 827.66 639.339 827.754 639.283C827.848 639.227 827.954 639.194 828.063 639.188L828.068 639.171ZM821.329 639.188C821.441 639.19 821.55 639.219 821.648 639.273C821.746 639.327 821.828 639.404 821.889 639.498C821.95 639.591 821.987 639.698 821.996 639.809C822.006 639.92 821.987 640.032 821.943 640.134V640.148L820.403 643.873C818.927 642.927 817.805 641.521 817.21 639.872L821.188 639.198C821.233 639.193 821.278 639.193 821.323 639.198L821.33 639.188H821.329ZM824.69 640.807C824.948 640.8 825.188 640.937 825.311 641.164H825.326L827.286 644.702L826.503 644.933C825.061 645.263 823.555 645.185 822.154 644.709L824.122 641.171C824.18 641.069 824.265 640.984 824.366 640.924C824.467 640.864 824.582 640.832 824.7 640.829L824.69 640.808V640.807Z" fill="white" stroke="white" stroke-width="0.361354"/>
<rect x="820.149" y="507.595" width="195.975" height="80.925" fill="#D2D2D2"/>
<rect x="1049.27" y="507.595" width="80.925" height="80.925" fill="#8FBE00"/>
<rect x="1049.27" y="415.943" width="80.925" height="80.925" fill="#8FBE00"/>
<rect x="1049.27" y="324.578" width="80.925" height="80.925" fill="#8FBE00"/>
<rect x="178.03" y="506.992" width="195.975" height="80.925" fill="#D2D2D2"/>
<path d="M851.989 556.722H845.9V539.546H852.039C853.767 539.546 855.254 539.89 856.501 540.578C857.747 541.26 858.706 542.241 859.377 543.522C860.054 544.802 860.392 546.334 860.392 548.117C860.392 549.906 860.054 551.444 859.377 552.73C858.706 554.016 857.742 555.002 856.484 555.69C855.231 556.378 853.733 556.722 851.989 556.722ZM849.531 553.61H851.838C852.911 553.61 853.814 553.42 854.547 553.04C855.285 552.654 855.838 552.059 856.207 551.254C856.582 550.443 856.769 549.398 856.769 548.117C856.769 546.848 856.582 545.811 856.207 545.006C855.838 544.201 855.287 543.608 854.555 543.228C853.823 542.848 852.92 542.658 851.846 542.658H849.531V553.61ZM868.885 556.973C867.56 556.973 866.42 556.705 865.464 556.168C864.513 555.626 863.781 554.86 863.266 553.87C862.752 552.875 862.495 551.698 862.495 550.34C862.495 549.015 862.752 547.852 863.266 546.851C863.781 545.85 864.505 545.07 865.438 544.511C866.378 543.952 867.479 543.672 868.743 543.672C869.592 543.672 870.384 543.809 871.116 544.083C871.854 544.352 872.497 544.757 873.045 545.299C873.598 545.842 874.029 546.524 874.336 547.346C874.644 548.162 874.798 549.118 874.798 550.214V551.195H863.92V548.981H871.435C871.435 548.467 871.323 548.011 871.099 547.614C870.876 547.217 870.565 546.907 870.168 546.683C869.777 546.454 869.321 546.339 868.801 546.339C868.259 546.339 867.778 546.465 867.359 546.717C866.945 546.963 866.621 547.295 866.386 547.715C866.151 548.128 866.031 548.59 866.025 549.098V551.203C866.025 551.841 866.143 552.392 866.378 552.856C866.618 553.32 866.956 553.677 867.392 553.929C867.828 554.181 868.346 554.306 868.944 554.306C869.341 554.306 869.704 554.25 870.034 554.139C870.364 554.027 870.646 553.859 870.881 553.635C871.116 553.412 871.295 553.138 871.418 552.814L874.722 553.032C874.554 553.826 874.211 554.519 873.691 555.111C873.176 555.699 872.511 556.157 871.695 556.487C870.884 556.811 869.947 556.973 868.885 556.973ZM887.847 547.513L884.576 547.715C884.52 547.435 884.4 547.184 884.215 546.96C884.031 546.731 883.788 546.549 883.486 546.415C883.19 546.275 882.835 546.205 882.421 546.205C881.867 546.205 881.4 546.323 881.02 546.557C880.64 546.787 880.45 547.094 880.45 547.48C880.45 547.787 880.573 548.047 880.819 548.26C881.065 548.472 881.487 548.643 882.085 548.771L884.417 549.241C885.669 549.498 886.603 549.912 887.218 550.482C887.833 551.052 888.14 551.802 888.14 552.73C888.14 553.574 887.891 554.315 887.394 554.952C886.902 555.59 886.225 556.087 885.364 556.445C884.509 556.797 883.522 556.973 882.404 556.973C880.699 556.973 879.34 556.618 878.328 555.908C877.322 555.193 876.732 554.22 876.559 552.99L880.073 552.805C880.179 553.325 880.436 553.722 880.844 553.996C881.252 554.264 881.775 554.399 882.412 554.399C883.039 554.399 883.542 554.278 883.922 554.038C884.308 553.792 884.503 553.476 884.509 553.09C884.503 552.766 884.366 552.501 884.098 552.294C883.83 552.081 883.416 551.919 882.857 551.807L880.626 551.363C879.368 551.111 878.432 550.675 877.817 550.055C877.207 549.434 876.903 548.643 876.903 547.681C876.903 546.854 877.126 546.141 877.573 545.543C878.026 544.944 878.661 544.483 879.477 544.159C880.299 543.835 881.261 543.672 882.362 543.672C883.989 543.672 885.269 544.016 886.203 544.704C887.142 545.392 887.69 546.328 887.847 547.513ZM896.21 556.973C894.891 556.973 893.756 556.694 892.805 556.135C891.86 555.57 891.134 554.787 890.625 553.786C890.122 552.786 889.87 551.634 889.87 550.331C889.87 549.012 890.124 547.854 890.633 546.859C891.148 545.859 891.877 545.079 892.822 544.519C893.767 543.955 894.891 543.672 896.193 543.672C897.317 543.672 898.301 543.877 899.145 544.285C899.99 544.693 900.658 545.266 901.15 546.004C901.642 546.742 901.913 547.608 901.963 548.604H898.592C898.497 547.961 898.245 547.444 897.837 547.052C897.434 546.655 896.906 546.457 896.252 546.457C895.699 546.457 895.215 546.608 894.801 546.91C894.393 547.206 894.074 547.639 893.845 548.21C893.616 548.78 893.501 549.47 893.501 550.281C893.501 551.103 893.613 551.802 893.837 552.378C894.066 552.953 894.387 553.392 894.801 553.694C895.215 553.996 895.699 554.147 896.252 554.147C896.66 554.147 897.026 554.063 897.351 553.895C897.68 553.728 897.952 553.485 898.164 553.166C898.382 552.842 898.525 552.453 898.592 552H901.963C901.907 552.984 901.639 553.851 901.158 554.6C900.683 555.344 900.026 555.925 899.187 556.344C898.349 556.764 897.356 556.973 896.21 556.973ZM907.823 549.275V556.722H904.251V539.546H907.722V546.113H907.873C908.164 545.353 908.634 544.757 909.282 544.327C909.931 543.891 910.744 543.672 911.723 543.672C912.617 543.672 913.397 543.868 914.063 544.26C914.734 544.645 915.253 545.202 915.622 545.928C915.997 546.65 916.182 547.513 916.176 548.52V556.722H912.603V549.157C912.609 548.363 912.408 547.745 912 547.304C911.597 546.862 911.032 546.641 910.305 546.641C909.819 546.641 909.389 546.745 909.014 546.952C908.645 547.158 908.354 547.46 908.142 547.857C907.935 548.249 907.829 548.721 907.823 549.275ZM924.858 556.973C923.533 556.973 922.392 556.705 921.436 556.168C920.486 555.626 919.753 554.86 919.239 553.87C918.725 552.875 918.468 551.698 918.468 550.34C918.468 549.015 918.725 547.852 919.239 546.851C919.753 545.85 920.477 545.07 921.411 544.511C922.35 543.952 923.452 543.672 924.715 543.672C925.565 543.672 926.356 543.809 927.089 544.083C927.827 544.352 928.47 544.757 929.018 545.299C929.571 545.842 930.002 546.524 930.309 547.346C930.617 548.162 930.77 549.118 930.77 550.214V551.195H919.893V548.981H927.407C927.407 548.467 927.296 548.011 927.072 547.614C926.848 547.217 926.538 546.907 926.141 546.683C925.75 546.454 925.294 546.339 924.774 546.339C924.232 546.339 923.751 546.465 923.332 546.717C922.918 546.963 922.594 547.295 922.359 547.715C922.124 548.128 922.004 548.59 921.998 549.098V551.203C921.998 551.841 922.116 552.392 922.35 552.856C922.591 553.32 922.929 553.677 923.365 553.929C923.801 554.181 924.318 554.306 924.917 554.306C925.314 554.306 925.677 554.25 926.007 554.139C926.337 554.027 926.619 553.859 926.854 553.635C927.089 553.412 927.268 553.138 927.391 552.814L930.695 553.032C930.527 553.826 930.183 554.519 929.663 555.111C929.149 555.699 928.484 556.157 927.667 556.487C926.857 556.811 925.92 556.973 924.858 556.973ZM937.848 556.931C936.87 556.931 935.984 556.68 935.19 556.177C934.402 555.668 933.775 554.921 933.311 553.937C932.853 552.948 932.624 551.735 932.624 550.298C932.624 548.822 932.861 547.595 933.337 546.616C933.812 545.632 934.444 544.897 935.232 544.41C936.026 543.918 936.895 543.672 937.84 543.672C938.561 543.672 939.162 543.795 939.643 544.041C940.13 544.282 940.521 544.584 940.817 544.947C941.119 545.305 941.348 545.657 941.505 546.004H941.614V539.546H945.178V556.722H941.656V554.659H941.505C941.337 555.016 941.1 555.371 940.792 555.724C940.49 556.07 940.096 556.358 939.61 556.587C939.129 556.817 938.542 556.931 937.848 556.931ZM938.981 554.088C939.556 554.088 940.043 553.932 940.44 553.619C940.842 553.3 941.15 552.856 941.362 552.285C941.58 551.715 941.689 551.047 941.689 550.281C941.689 549.515 941.583 548.85 941.371 548.285C941.158 547.72 940.851 547.284 940.448 546.977C940.046 546.669 939.556 546.515 938.981 546.515C938.394 546.515 937.899 546.675 937.496 546.993C937.094 547.312 936.789 547.754 936.582 548.319C936.375 548.883 936.272 549.537 936.272 550.281C936.272 551.03 936.375 551.693 936.582 552.269C936.795 552.839 937.099 553.286 937.496 553.61C937.899 553.929 938.394 554.088 938.981 554.088ZM956.376 551.237V543.84H959.949V556.722H956.519V554.382H956.384C956.094 555.137 955.61 555.743 954.934 556.202C954.263 556.66 953.444 556.889 952.476 556.889C951.615 556.889 950.858 556.694 950.204 556.302C949.55 555.911 949.038 555.355 948.669 554.633C948.306 553.912 948.121 553.048 948.115 552.042V543.84H951.688V551.405C951.694 552.165 951.898 552.766 952.3 553.208C952.703 553.649 953.242 553.87 953.919 553.87C954.349 553.87 954.752 553.772 955.127 553.577C955.501 553.376 955.803 553.079 956.032 552.688C956.267 552.296 956.382 551.813 956.376 551.237ZM966.379 539.546V556.722H962.806V539.546H966.379ZM975.111 556.973C973.786 556.973 972.646 556.705 971.69 556.168C970.739 555.626 970.007 554.86 969.492 553.87C968.978 552.875 968.721 551.698 968.721 550.34C968.721 549.015 968.978 547.852 969.492 546.851C970.007 545.85 970.731 545.07 971.664 544.511C972.604 543.952 973.705 543.672 974.969 543.672C975.819 543.672 976.61 543.809 977.342 544.083C978.08 544.352 978.723 544.757 979.271 545.299C979.824 545.842 980.255 546.524 980.562 547.346C980.87 548.162 981.024 549.118 981.024 550.214V551.195H970.147V548.981H977.661C977.661 548.467 977.549 548.011 977.325 547.614C977.102 547.217 976.791 546.907 976.394 546.683C976.003 546.454 975.547 546.339 975.027 546.339C974.485 546.339 974.004 546.465 973.585 546.717C973.171 546.963 972.847 547.295 972.612 547.715C972.377 548.128 972.257 548.59 972.251 549.098V551.203C972.251 551.841 972.369 552.392 972.604 552.856C972.844 553.32 973.182 553.677 973.618 553.929C974.055 554.181 974.572 554.306 975.17 554.306C975.567 554.306 975.93 554.25 976.26 554.139C976.59 554.027 976.872 553.859 977.107 553.635C977.342 553.412 977.521 553.138 977.644 552.814L980.948 553.032C980.78 553.826 980.437 554.519 979.917 555.111C979.402 555.699 978.737 556.157 977.921 556.487C977.11 556.811 976.174 556.973 975.111 556.973ZM983.355 556.722V543.84H986.819V546.088H986.953C987.188 545.288 987.582 544.684 988.135 544.276C988.689 543.863 989.326 543.656 990.047 543.656C990.226 543.656 990.419 543.667 990.626 543.689C990.833 543.712 991.015 543.742 991.171 543.781V546.952C991.003 546.901 990.771 546.856 990.475 546.817C990.179 546.778 989.908 546.759 989.662 546.759C989.136 546.759 988.666 546.873 988.253 547.102C987.845 547.326 987.52 547.639 987.28 548.042C987.045 548.444 986.928 548.908 986.928 549.434V556.722H983.355Z" fill="black"/>
<rect x="820" y="414.971" width="195.975" height="80.925" fill="#F1C40F"/>
<rect x="820" y="325" width="195.975" height="80.925" fill="#F1C40F"/>
<path d="M212.078 556.722H205.989V539.546H212.128C213.856 539.546 215.343 539.89 216.59 540.578C217.837 541.26 218.795 542.241 219.466 543.522C220.143 544.802 220.481 546.334 220.481 548.117C220.481 549.906 220.143 551.444 219.466 552.73C218.795 554.016 217.831 555.002 216.573 555.69C215.321 556.378 213.822 556.722 212.078 556.722ZM209.621 553.61H211.927C213 553.61 213.903 553.42 214.636 553.04C215.374 552.654 215.927 552.059 216.296 551.254C216.671 550.443 216.858 549.398 216.858 548.117C216.858 546.848 216.671 545.811 216.296 545.006C215.927 544.201 215.377 543.608 214.644 543.228C213.912 542.848 213.009 542.658 211.935 542.658H209.621V553.61ZM228.974 556.973C227.649 556.973 226.509 556.705 225.553 556.168C224.602 555.626 223.87 554.86 223.356 553.87C222.841 552.875 222.584 551.698 222.584 550.34C222.584 549.015 222.841 547.852 223.356 546.851C223.87 545.85 224.594 545.07 225.528 544.511C226.467 543.952 227.568 543.672 228.832 543.672C229.682 543.672 230.473 543.809 231.205 544.083C231.943 544.352 232.586 544.757 233.134 545.299C233.688 545.842 234.118 546.524 234.426 547.346C234.733 548.162 234.887 549.118 234.887 550.214V551.195H224.01V548.981H231.524C231.524 548.467 231.412 548.011 231.188 547.614C230.965 547.217 230.655 546.907 230.258 546.683C229.866 546.454 229.411 546.339 228.891 546.339C228.348 546.339 227.867 546.465 227.448 546.717C227.034 546.963 226.71 547.295 226.475 547.715C226.24 548.128 226.12 548.59 226.115 549.098V551.203C226.115 551.841 226.232 552.392 226.467 552.856C226.707 553.32 227.046 553.677 227.482 553.929C227.918 554.181 228.435 554.306 229.033 554.306C229.43 554.306 229.794 554.25 230.123 554.139C230.453 554.027 230.736 553.859 230.97 553.635C231.205 553.412 231.384 553.138 231.507 552.814L234.811 553.032C234.644 553.826 234.3 554.519 233.78 555.111C233.265 555.699 232.6 556.157 231.784 556.487C230.973 556.811 230.037 556.973 228.974 556.973ZM247.936 547.513L244.665 547.715C244.609 547.435 244.489 547.184 244.305 546.96C244.12 546.731 243.877 546.549 243.575 546.415C243.279 546.275 242.924 546.205 242.51 546.205C241.957 546.205 241.49 546.323 241.11 546.557C240.729 546.787 240.539 547.094 240.539 547.48C240.539 547.787 240.662 548.047 240.908 548.26C241.154 548.472 241.576 548.643 242.175 548.771L244.506 549.241C245.758 549.498 246.692 549.912 247.307 550.482C247.922 551.052 248.23 551.802 248.23 552.73C248.23 553.574 247.981 554.315 247.483 554.952C246.991 555.59 246.315 556.087 245.454 556.445C244.598 556.797 243.611 556.973 242.493 556.973C240.788 556.973 239.429 556.618 238.418 555.908C237.411 555.193 236.821 554.22 236.648 552.99L240.162 552.805C240.268 553.325 240.525 553.722 240.933 553.996C241.342 554.264 241.864 554.399 242.502 554.399C243.128 554.399 243.631 554.278 244.011 554.038C244.397 553.792 244.593 553.476 244.598 553.09C244.593 552.766 244.456 552.501 244.187 552.294C243.919 552.081 243.505 551.919 242.946 551.807L240.715 551.363C239.457 551.111 238.521 550.675 237.906 550.055C237.297 549.434 236.992 548.643 236.992 547.681C236.992 546.854 237.215 546.141 237.663 545.543C238.116 544.944 238.75 544.483 239.566 544.159C240.388 543.835 241.35 543.672 242.451 543.672C244.078 543.672 245.359 544.016 246.292 544.704C247.232 545.392 247.78 546.328 247.936 547.513ZM256.299 556.973C254.98 556.973 253.845 556.694 252.895 556.135C251.95 555.57 251.223 554.787 250.714 553.786C250.211 552.786 249.959 551.634 249.959 550.331C249.959 549.012 250.214 547.854 250.722 546.859C251.237 545.859 251.966 545.079 252.911 544.519C253.856 543.955 254.98 543.672 256.283 543.672C257.406 543.672 258.39 543.877 259.235 544.285C260.079 544.693 260.747 545.266 261.239 546.004C261.731 546.742 262.002 547.608 262.052 548.604H258.681C258.586 547.961 258.334 547.444 257.926 547.052C257.524 546.655 256.995 546.457 256.341 546.457C255.788 546.457 255.304 546.608 254.89 546.91C254.482 547.206 254.164 547.639 253.934 548.21C253.705 548.78 253.591 549.47 253.591 550.281C253.591 551.103 253.702 551.802 253.926 552.378C254.155 552.953 254.477 553.392 254.89 553.694C255.304 553.996 255.788 554.147 256.341 554.147C256.749 554.147 257.116 554.063 257.44 553.895C257.77 553.728 258.041 553.485 258.253 553.166C258.471 552.842 258.614 552.453 258.681 552H262.052C261.997 552.984 261.728 553.851 261.247 554.6C260.772 555.344 260.115 555.925 259.277 556.344C258.438 556.764 257.446 556.973 256.299 556.973ZM267.912 549.275V556.722H264.34V539.546H267.812V546.113H267.963C268.253 545.353 268.723 544.757 269.372 544.327C270.02 543.891 270.834 543.672 271.812 543.672C272.707 543.672 273.487 543.868 274.152 544.26C274.823 544.645 275.343 545.202 275.712 545.928C276.086 546.65 276.271 547.513 276.265 548.52V556.722H272.693V549.157C272.698 548.363 272.497 547.745 272.089 547.304C271.686 546.862 271.122 546.641 270.395 546.641C269.908 546.641 269.478 546.745 269.103 546.952C268.734 547.158 268.444 547.46 268.231 547.857C268.024 548.249 267.918 548.721 267.912 549.275ZM284.947 556.973C283.622 556.973 282.482 556.705 281.526 556.168C280.575 555.626 279.843 554.86 279.328 553.87C278.814 552.875 278.557 551.698 278.557 550.34C278.557 549.015 278.814 547.852 279.328 546.851C279.843 545.85 280.567 545.07 281.5 544.511C282.44 543.952 283.541 543.672 284.805 543.672C285.655 543.672 286.446 543.809 287.178 544.083C287.916 544.352 288.559 544.757 289.107 545.299C289.66 545.842 290.091 546.524 290.398 547.346C290.706 548.162 290.86 549.118 290.86 550.214V551.195H279.983V548.981H287.497C287.497 548.467 287.385 548.011 287.161 547.614C286.938 547.217 286.627 546.907 286.23 546.683C285.839 546.454 285.383 546.339 284.863 546.339C284.321 546.339 283.84 546.465 283.421 546.717C283.007 546.963 282.683 547.295 282.448 547.715C282.213 548.128 282.093 548.59 282.087 549.098V551.203C282.087 551.841 282.205 552.392 282.44 552.856C282.68 553.32 283.018 553.677 283.454 553.929C283.891 554.181 284.408 554.306 285.006 554.306C285.403 554.306 285.766 554.25 286.096 554.139C286.426 554.027 286.708 553.859 286.943 553.635C287.178 553.412 287.357 553.138 287.48 552.814L290.784 553.032C290.616 553.826 290.273 554.519 289.753 555.111C289.238 555.699 288.573 556.157 287.757 556.487C286.946 556.811 286.01 556.973 284.947 556.973ZM297.938 556.931C296.959 556.931 296.073 556.68 295.279 556.177C294.491 555.668 293.865 554.921 293.401 553.937C292.942 552.948 292.713 551.735 292.713 550.298C292.713 548.822 292.951 547.595 293.426 546.616C293.901 545.632 294.533 544.897 295.321 544.41C296.115 543.918 296.985 543.672 297.929 543.672C298.651 543.672 299.252 543.795 299.732 544.041C300.219 544.282 300.61 544.584 300.907 544.947C301.208 545.305 301.438 545.657 301.594 546.004H301.703V539.546H305.267V556.722H301.745V554.659H301.594C301.426 555.016 301.189 555.371 300.881 555.724C300.579 556.07 300.185 556.358 299.699 556.587C299.218 556.817 298.631 556.931 297.938 556.931ZM299.07 554.088C299.646 554.088 300.132 553.932 300.529 553.619C300.932 553.3 301.239 552.856 301.452 552.285C301.67 551.715 301.779 551.047 301.779 550.281C301.779 549.515 301.672 548.85 301.46 548.285C301.248 547.72 300.94 547.284 300.538 546.977C300.135 546.669 299.646 546.515 299.07 546.515C298.483 546.515 297.988 546.675 297.586 546.993C297.183 547.312 296.878 547.754 296.671 548.319C296.465 548.883 296.361 549.537 296.361 550.281C296.361 551.03 296.465 551.693 296.671 552.269C296.884 552.839 297.189 553.286 297.586 553.61C297.988 553.929 298.483 554.088 299.07 554.088ZM316.465 551.237V543.84H320.038V556.722H316.608V554.382H316.474C316.183 555.137 315.699 555.743 315.023 556.202C314.352 556.66 313.533 556.889 312.566 556.889C311.705 556.889 310.947 556.694 310.293 556.302C309.639 555.911 309.127 555.355 308.758 554.633C308.395 553.912 308.21 553.048 308.205 552.042V543.84H311.777V551.405C311.783 552.165 311.987 552.766 312.39 553.208C312.792 553.649 313.332 553.87 314.008 553.87C314.439 553.87 314.841 553.772 315.216 553.577C315.59 553.376 315.892 553.079 316.122 552.688C316.356 552.296 316.471 551.813 316.465 551.237ZM326.468 539.546V556.722H322.896V539.546H326.468ZM335.201 556.973C333.875 556.973 332.735 556.705 331.779 556.168C330.828 555.626 330.096 554.86 329.582 553.87C329.067 552.875 328.81 551.698 328.81 550.34C328.81 549.015 329.067 547.852 329.582 546.851C330.096 545.85 330.82 545.07 331.754 544.511C332.693 543.952 333.794 543.672 335.058 543.672C335.908 543.672 336.699 543.809 337.431 544.083C338.169 544.352 338.812 544.757 339.36 545.299C339.914 545.842 340.344 546.524 340.652 547.346C340.959 548.162 341.113 549.118 341.113 550.214V551.195H330.236V548.981H337.75C337.75 548.467 337.638 548.011 337.415 547.614C337.191 547.217 336.881 546.907 336.484 546.683C336.092 546.454 335.637 546.339 335.117 546.339C334.574 546.339 334.094 546.465 333.674 546.717C333.26 546.963 332.936 547.295 332.701 547.715C332.467 548.128 332.346 548.59 332.341 549.098V551.203C332.341 551.841 332.458 552.392 332.693 552.856C332.933 553.32 333.272 553.677 333.708 553.929C334.144 554.181 334.661 554.306 335.259 554.306C335.656 554.306 336.02 554.25 336.349 554.139C336.679 554.027 336.962 553.859 337.197 553.635C337.431 553.412 337.61 553.138 337.733 552.814L341.037 553.032C340.87 553.826 340.526 554.519 340.006 555.111C339.492 555.699 338.826 556.157 338.01 556.487C337.199 556.811 336.263 556.973 335.201 556.973ZM343.444 556.722V543.84H346.908V546.088H347.042C347.277 545.288 347.671 544.684 348.225 544.276C348.778 543.863 349.415 543.656 350.137 543.656C350.316 543.656 350.508 543.667 350.715 543.689C350.922 543.712 351.104 543.742 351.26 543.781V546.952C351.093 546.901 350.861 546.856 350.564 546.817C350.268 546.778 349.997 546.759 349.751 546.759C349.225 546.759 348.756 546.873 348.342 547.102C347.934 547.326 347.61 547.639 347.369 548.042C347.134 548.444 347.017 548.908 347.017 549.434V556.722H343.444Z" fill="black"/>
</svg>
