<svg width="1200" height="900" viewBox="0 0 1200 900" fill="none" xmlns="http://www.w3.org/2000/svg">
<rect width="1200" height="900" fill="white"/>
<path d="M103.102 444H77.321V371.273H103.315C110.631 371.273 116.928 372.729 122.207 375.641C127.487 378.529 131.547 382.684 134.388 388.105C137.252 393.527 138.685 400.013 138.685 407.565C138.685 415.141 137.252 421.652 134.388 427.097C131.547 432.542 127.463 436.72 122.136 439.632C116.833 442.544 110.489 444 103.102 444ZM92.6974 430.825H102.463C107.009 430.825 110.832 430.02 113.933 428.411C117.058 426.777 119.402 424.256 120.964 420.847C122.551 417.414 123.344 412.987 123.344 407.565C123.344 402.191 122.551 397.8 120.964 394.391C119.402 390.982 117.07 388.472 113.969 386.862C110.867 385.252 107.044 384.447 102.499 384.447H92.6974V430.825ZM182.138 420.776V389.455H197.266V444H182.742V434.092H182.173C180.942 437.288 178.895 439.857 176.03 441.798C173.189 443.74 169.721 444.71 165.625 444.71C161.979 444.71 158.771 443.882 156.002 442.224C153.232 440.567 151.066 438.212 149.503 435.158C147.964 432.104 147.183 428.446 147.159 424.185V389.455H162.287V421.486C162.311 424.705 163.175 427.25 164.879 429.121C166.584 430.991 168.869 431.926 171.733 431.926C173.556 431.926 175.261 431.512 176.847 430.683C178.433 429.831 179.711 428.576 180.682 426.919C181.676 425.262 182.162 423.214 182.138 420.776ZM206.735 464.455V389.455H221.649V398.616H222.324C222.987 397.149 223.946 395.657 225.201 394.142C226.479 392.603 228.136 391.325 230.172 390.307C232.232 389.265 234.789 388.744 237.843 388.744C241.82 388.744 245.489 389.786 248.851 391.869C252.213 393.929 254.9 397.042 256.912 401.209C258.925 405.352 259.931 410.548 259.931 416.798C259.931 422.883 258.948 428.02 256.983 432.21C255.042 436.377 252.39 439.537 249.029 441.692C245.691 443.822 241.95 444.888 237.807 444.888C234.872 444.888 232.374 444.402 230.314 443.432C228.278 442.461 226.609 441.242 225.307 439.774C224.005 438.283 223.011 436.779 222.324 435.264H221.863V464.455H206.735ZM221.543 416.727C221.543 419.971 221.993 422.8 222.892 425.214C223.792 427.629 225.094 429.511 226.799 430.861C228.503 432.187 230.575 432.849 233.013 432.849C235.475 432.849 237.559 432.175 239.263 430.825C240.968 429.452 242.258 427.558 243.134 425.143C244.033 422.705 244.483 419.9 244.483 416.727C244.483 413.579 244.045 410.809 243.169 408.418C242.293 406.027 241.003 404.156 239.299 402.807C237.594 401.457 235.499 400.783 233.013 400.783C230.551 400.783 228.468 401.434 226.763 402.736C225.082 404.038 223.792 405.884 222.892 408.276C221.993 410.667 221.543 413.484 221.543 416.727ZM282.512 371.273V444H267.384V371.273H282.512ZM291.999 444V389.455H307.127V444H291.999ZM299.598 382.423C297.349 382.423 295.42 381.678 293.81 380.186C292.224 378.671 291.431 376.86 291.431 374.753C291.431 372.67 292.224 370.882 293.81 369.391C295.42 367.875 297.349 367.118 299.598 367.118C301.847 367.118 303.765 367.875 305.351 369.391C306.961 370.882 307.766 372.67 307.766 374.753C307.766 376.86 306.961 378.671 305.351 380.186C303.765 381.678 301.847 382.423 299.598 382.423ZM341.258 445.065C335.671 445.065 330.865 443.882 326.841 441.514C322.84 439.123 319.762 435.809 317.608 431.571C315.477 427.333 314.412 422.456 314.412 416.94C314.412 411.353 315.489 406.453 317.643 402.239C319.821 398.001 322.911 394.698 326.912 392.331C330.913 389.94 335.671 388.744 341.187 388.744C345.946 388.744 350.112 389.608 353.687 391.337C357.262 393.065 360.091 395.491 362.174 398.616C364.258 401.741 365.406 405.411 365.619 409.625H351.344C350.941 406.902 349.876 404.713 348.148 403.055C346.443 401.375 344.206 400.534 341.436 400.534C339.092 400.534 337.044 401.173 335.292 402.452C333.564 403.706 332.215 405.541 331.244 407.956C330.273 410.371 329.788 413.295 329.788 416.727C329.788 420.207 330.262 423.167 331.209 425.605C332.179 428.044 333.54 429.902 335.292 431.18C337.044 432.459 339.092 433.098 341.436 433.098C343.164 433.098 344.715 432.743 346.088 432.033C347.485 431.322 348.633 430.293 349.532 428.943C350.456 427.57 351.059 425.925 351.344 424.007H365.619C365.382 428.174 364.246 431.843 362.21 435.016C360.198 438.164 357.416 440.626 353.865 442.402C350.314 444.178 346.112 445.065 341.258 445.065ZM388.227 445.03C384.747 445.03 381.646 444.426 378.923 443.219C376.201 441.988 374.046 440.177 372.46 437.786C370.898 435.371 370.116 432.364 370.116 428.766C370.116 425.735 370.673 423.19 371.785 421.131C372.898 419.071 374.413 417.414 376.331 416.159C378.249 414.904 380.427 413.957 382.865 413.318C385.327 412.679 387.908 412.229 390.606 411.969C393.779 411.637 396.336 411.33 398.277 411.045C400.218 410.738 401.627 410.288 402.503 409.696C403.379 409.104 403.817 408.228 403.817 407.068V406.855C403.817 404.606 403.106 402.866 401.686 401.635C400.289 400.404 398.301 399.788 395.72 399.788C392.998 399.788 390.831 400.392 389.222 401.599C387.612 402.783 386.546 404.275 386.026 406.074L372.034 404.938C372.744 401.623 374.141 398.759 376.224 396.344C378.308 393.905 380.995 392.035 384.285 390.733C387.6 389.407 391.435 388.744 395.791 388.744C398.821 388.744 401.722 389.099 404.491 389.81C407.285 390.52 409.759 391.621 411.913 393.112C414.091 394.604 415.808 396.521 417.062 398.865C418.317 401.185 418.945 403.967 418.945 407.21V444H404.598V436.436H404.172C403.296 438.141 402.124 439.644 400.656 440.946C399.188 442.224 397.425 443.231 395.365 443.964C393.305 444.675 390.926 445.03 388.227 445.03ZM392.56 434.589C394.785 434.589 396.75 434.152 398.455 433.276C400.159 432.376 401.497 431.169 402.467 429.653C403.438 428.138 403.923 426.422 403.923 424.504V418.716C403.45 419.024 402.799 419.308 401.97 419.568C401.165 419.805 400.254 420.03 399.236 420.243C398.218 420.432 397.2 420.61 396.182 420.776C395.164 420.918 394.24 421.048 393.412 421.166C391.636 421.427 390.086 421.841 388.76 422.409C387.434 422.977 386.404 423.747 385.67 424.717C384.937 425.664 384.57 426.848 384.57 428.268C384.57 430.328 385.315 431.902 386.807 432.991C388.322 434.057 390.24 434.589 392.56 434.589ZM457.062 389.455V400.818H424.214V389.455H457.062ZM431.672 376.386H446.799V427.239C446.799 428.635 447.013 429.724 447.439 430.506C447.865 431.263 448.457 431.796 449.214 432.104C449.995 432.411 450.895 432.565 451.913 432.565C452.623 432.565 453.334 432.506 454.044 432.388C454.754 432.246 455.299 432.139 455.677 432.068L458.057 443.325C457.299 443.562 456.234 443.834 454.861 444.142C453.487 444.473 451.818 444.675 449.853 444.746C446.208 444.888 443.012 444.402 440.265 443.29C437.543 442.177 435.424 440.449 433.909 438.105C432.394 435.761 431.648 432.802 431.672 429.227V376.386ZM488.557 445.065C482.946 445.065 478.117 443.929 474.068 441.656C470.044 439.36 466.943 436.116 464.764 431.926C462.586 427.712 461.497 422.729 461.497 416.976C461.497 411.365 462.586 406.441 464.764 402.203C466.943 397.965 470.008 394.663 473.962 392.295C477.939 389.928 482.603 388.744 487.953 388.744C491.552 388.744 494.902 389.324 498.003 390.484C501.128 391.621 503.851 393.337 506.171 395.634C508.514 397.93 510.337 400.818 511.639 404.298C512.942 407.755 513.593 411.803 513.593 416.443V420.598H467.534V411.223H499.353C499.353 409.045 498.879 407.116 497.932 405.435C496.985 403.754 495.671 402.44 493.99 401.493C492.333 400.522 490.404 400.037 488.202 400.037C485.906 400.037 483.87 400.57 482.094 401.635C480.342 402.677 478.969 404.085 477.975 405.861C476.98 407.613 476.471 409.566 476.448 411.72V420.634C476.448 423.332 476.945 425.664 477.939 427.629C478.957 429.594 480.389 431.109 482.236 432.175C484.083 433.24 486.273 433.773 488.806 433.773C490.487 433.773 492.025 433.536 493.422 433.062C494.819 432.589 496.014 431.879 497.009 430.932C498.003 429.985 498.761 428.825 499.282 427.452L513.273 428.375C512.563 431.737 511.107 434.672 508.905 437.182C506.727 439.668 503.91 441.609 500.453 443.006C497.021 444.379 493.055 445.065 488.557 445.065ZM541.346 464.455V389.455H556.261V398.616H556.936C557.599 397.149 558.557 395.657 559.812 394.142C561.09 392.603 562.748 391.325 564.784 390.307C566.843 389.265 569.4 388.744 572.454 388.744C576.431 388.744 580.101 389.786 583.463 391.869C586.824 393.929 589.511 397.042 591.524 401.209C593.536 405.352 594.542 410.548 594.542 416.798C594.542 422.883 593.56 428.02 591.595 432.21C589.653 436.377 587.002 439.537 583.64 441.692C580.302 443.822 576.562 444.888 572.419 444.888C569.483 444.888 566.985 444.402 564.926 443.432C562.89 442.461 561.221 441.242 559.919 439.774C558.616 438.283 557.622 436.779 556.936 435.264H556.474V464.455H541.346ZM556.154 416.727C556.154 419.971 556.604 422.8 557.504 425.214C558.403 427.629 559.706 429.511 561.41 430.861C563.115 432.187 565.186 432.849 567.625 432.849C570.087 432.849 572.17 432.175 573.875 430.825C575.579 429.452 576.869 427.558 577.745 425.143C578.645 422.705 579.095 419.9 579.095 416.727C579.095 413.579 578.657 410.809 577.781 408.418C576.905 406.027 575.615 404.156 573.91 402.807C572.206 401.457 570.11 400.783 567.625 400.783C565.162 400.783 563.079 401.434 561.375 402.736C559.694 404.038 558.403 405.884 557.504 408.276C556.604 410.667 556.154 413.484 556.154 416.727ZM626.641 445.065C621.125 445.065 616.354 443.893 612.33 441.55C608.329 439.182 605.239 435.892 603.061 431.678C600.883 427.44 599.794 422.527 599.794 416.94C599.794 411.306 600.883 406.382 603.061 402.168C605.239 397.93 608.329 394.639 612.33 392.295C616.354 389.928 621.125 388.744 626.641 388.744C632.157 388.744 636.915 389.928 640.916 392.295C644.941 394.639 648.042 397.93 650.22 402.168C652.398 406.382 653.487 411.306 653.487 416.94C653.487 422.527 652.398 427.44 650.22 431.678C648.042 435.892 644.941 439.182 640.916 441.55C636.915 443.893 632.157 445.065 626.641 445.065ZM626.712 433.347C629.221 433.347 631.316 432.636 632.997 431.216C634.678 429.772 635.945 427.807 636.797 425.321C637.673 422.835 638.111 420.006 638.111 416.834C638.111 413.661 637.673 410.832 636.797 408.347C635.945 405.861 634.678 403.896 632.997 402.452C631.316 401.008 629.221 400.286 626.712 400.286C624.179 400.286 622.048 401.008 620.32 402.452C618.615 403.896 617.325 405.861 616.449 408.347C615.597 410.832 615.171 413.661 615.171 416.834C615.171 420.006 615.597 422.835 616.449 425.321C617.325 427.807 618.615 429.772 620.32 431.216C622.048 432.636 624.179 433.347 626.712 433.347ZM675.82 371.273V444H660.692V371.273H675.82ZM685.307 444V389.455H700.435V444H685.307ZM692.906 382.423C690.657 382.423 688.728 381.678 687.118 380.186C685.532 378.671 684.739 376.86 684.739 374.753C684.739 372.67 685.532 370.882 687.118 369.391C688.728 367.875 690.657 367.118 692.906 367.118C695.155 367.118 697.073 367.875 698.659 369.391C700.269 370.882 701.074 372.67 701.074 374.753C701.074 376.86 700.269 378.671 698.659 380.186C697.073 381.678 695.155 382.423 692.906 382.423ZM734.566 445.065C728.979 445.065 724.173 443.882 720.149 441.514C716.148 439.123 713.07 435.809 710.916 431.571C708.785 427.333 707.72 422.456 707.72 416.94C707.72 411.353 708.797 406.453 710.951 402.239C713.129 398.001 716.219 394.698 720.22 392.331C724.221 389.94 728.979 388.744 734.495 388.744C739.254 388.744 743.42 389.608 746.995 391.337C750.57 393.065 753.399 395.491 755.482 398.616C757.566 401.741 758.714 405.411 758.927 409.625H744.652C744.249 406.902 743.184 404.713 741.455 403.055C739.751 401.375 737.514 400.534 734.744 400.534C732.4 400.534 730.352 401.173 728.6 402.452C726.872 403.706 725.523 405.541 724.552 407.956C723.581 410.371 723.096 413.295 723.096 416.727C723.096 420.207 723.57 423.167 724.517 425.605C725.487 428.044 726.848 429.902 728.6 431.18C730.352 432.459 732.4 433.098 734.744 433.098C736.472 433.098 738.023 432.743 739.396 432.033C740.793 431.322 741.941 430.293 742.84 428.943C743.764 427.57 744.367 425.925 744.652 424.007H758.927C758.69 428.174 757.554 431.843 755.518 435.016C753.506 438.164 750.724 440.626 747.173 442.402C743.622 444.178 739.419 445.065 734.566 445.065ZM775.321 464.455C773.403 464.455 771.604 464.301 769.923 463.993C768.266 463.709 766.893 463.342 765.804 462.892L769.213 451.599C770.988 452.144 772.586 452.44 774.007 452.487C775.451 452.535 776.694 452.203 777.735 451.493C778.801 450.783 779.665 449.575 780.328 447.871L781.216 445.562L761.649 389.455H777.558L788.851 429.511H789.419L800.818 389.455H816.833L795.633 449.895C794.615 452.83 793.23 455.387 791.478 457.565C789.75 459.767 787.56 461.46 784.909 462.643C782.257 463.851 779.061 464.455 775.321 464.455Z" fill="black"/>
<rect x="71" y="498" width="1038" height="19" fill="black"/>
</svg>
