<svg width="1200" height="900" viewBox="0 0 1200 900" fill="none" xmlns="http://www.w3.org/2000/svg">
<path fill-rule="evenodd" clip-rule="evenodd" d="M406.911 244.829V654.171C406.911 659.599 402.507 664 397.075 664H51.056C45.6249 664 41.22 659.599 41.22 654.171V244.829C41.22 239.401 45.6242 235 51.056 235H397.075C402.506 235 406.911 239.401 406.911 244.829Z" fill="#D2D2D2"/>
<path fill-rule="evenodd" clip-rule="evenodd" d="M103.954 644.342H392.749V651.887H103.954V644.342ZM103.954 632.201H392.749V639.746H103.954V632.201ZM103.954 620.637H392.749V628.183H103.954V620.637ZM55.0989 248.298H392.749V255.814H55.0989V248.298Z" fill="#A3A3A3"/>
<path fill-rule="evenodd" clip-rule="evenodd" d="M59.042 269.134H389.089C389.605 269.134 390.117 269.235 390.594 269.433C391.072 269.631 391.506 269.92 391.871 270.286C392.236 270.651 392.526 271.085 392.724 271.562C392.922 272.039 393.024 272.551 393.024 273.067V603.077C393.024 604.12 392.609 605.121 391.871 605.859C391.134 606.597 390.133 607.011 389.089 607.011H59.0412C57.9978 607.011 56.997 606.597 56.2592 605.859C55.5213 605.121 55.1068 604.12 55.1068 603.077V273.067C55.107 272.024 55.5216 271.024 56.2594 270.286C56.9973 269.548 57.9979 269.134 59.0412 269.134H59.042Z" fill="white"/>
<path d="M73.508 618.556C73.1768 618.576 72.8529 618.662 72.5555 618.809L59.6581 624.959C59.3259 625.117 59.0338 625.348 58.8035 625.635C58.5733 625.922 58.4108 626.257 58.3283 626.616L55.17 640.422C55.0947 640.743 55.0866 641.076 55.1463 641.4C55.206 641.724 55.3322 642.032 55.5169 642.305C55.5617 642.372 55.608 642.437 55.6564 642.499L64.5674 653.577C65.0379 654.155 65.7454 654.488 66.4905 654.485H80.7828C81.1515 654.483 81.5152 654.4 81.848 654.241C82.1808 654.082 82.4745 653.852 82.7081 653.567L91.6148 642.486C92.0817 641.908 92.2566 641.144 92.0773 640.419L88.8996 626.603C88.8166 626.244 88.654 625.909 88.4237 625.622C88.1935 625.335 87.9017 625.104 87.5698 624.946L74.6918 618.81C74.3208 618.627 73.9098 618.54 73.4965 618.557L73.508 618.556Z" fill="#4A4A4A"/>
<path d="M73.6268 623.259C73.183 623.29 72.8462 623.671 72.8694 624.115V624.332C72.8896 624.579 72.9272 624.823 72.9756 625.065C73.0464 625.527 73.0725 625.997 73.0522 626.465C73.0077 626.62 72.92 626.758 72.7993 626.864L72.7826 627.191C72.3136 627.23 71.8482 627.302 71.39 627.406C69.4612 627.84 67.7064 628.842 66.3513 630.281L66.0737 630.085C65.9982 630.108 65.9189 630.115 65.8404 630.107C65.7619 630.099 65.6857 630.076 65.6163 630.039C65.2407 629.76 64.8932 629.447 64.5785 629.101C64.4203 628.912 64.2514 628.732 64.0726 628.563L63.9013 628.427C63.7489 628.305 63.5616 628.234 63.3665 628.225C63.2499 628.218 63.1334 628.24 63.0267 628.287C62.9199 628.334 62.8258 628.406 62.7522 628.497C62.6267 628.673 62.5761 628.892 62.6114 629.105C62.6468 629.318 62.7652 629.508 62.9408 629.635L63.1005 629.762C63.3065 629.899 63.5197 630.023 63.7394 630.135C64.152 630.363 64.5392 630.635 64.8943 630.945C64.9861 631.076 65.0395 631.23 65.0482 631.39L65.3012 631.621C63.9392 633.665 63.3795 636.14 63.7293 638.571L63.4048 638.663C63.3209 638.797 63.2081 638.911 63.0745 638.996C62.6224 639.117 62.1596 639.194 61.6927 639.225C61.4448 639.23 61.1975 639.249 60.9519 639.283L60.7467 639.329H60.725C60.5829 639.349 60.4491 639.408 60.3385 639.499C60.2279 639.59 60.1447 639.71 60.0983 639.846C60.0518 639.982 60.044 640.128 60.0755 640.267C60.107 640.407 60.1767 640.536 60.2769 640.638C60.4829 640.847 60.79 640.92 61.0683 640.829H61.0827L61.2923 640.806C61.5277 640.736 61.7586 640.651 61.9839 640.553C62.4182 640.379 62.8684 640.248 63.3282 640.161C63.4879 640.17 63.6411 640.224 63.7705 640.317L64.1174 640.259C64.8693 642.593 66.4506 644.57 68.562 645.817L68.4204 646.112C68.4854 646.247 68.5093 646.398 68.4898 646.547C68.2984 646.99 68.0646 647.413 67.7916 647.811C67.6419 648.008 67.5036 648.214 67.3775 648.427L67.2792 648.635C67.2079 648.759 67.1722 648.9 67.1759 649.043C67.1797 649.186 67.2228 649.325 67.3006 649.444C67.3783 649.564 67.4877 649.66 67.6165 649.722C67.7454 649.784 67.8888 649.808 68.0308 649.794C68.3221 649.761 68.5693 649.568 68.6712 649.294L68.7673 649.097C68.8554 648.866 68.9292 648.629 68.9899 648.392C69.1944 647.886 69.3057 647.343 69.5854 647.008C69.6769 646.921 69.7922 646.865 69.9164 646.845L70.0898 646.529C72.3781 647.409 74.9102 647.415 77.2027 646.547L77.3567 646.842C77.5139 646.866 77.6552 646.951 77.7498 647.079C77.9674 647.493 78.1437 647.927 78.2774 648.375C78.3388 648.615 78.4147 648.851 78.5022 649.082L78.5983 649.279C78.6489 649.413 78.7354 649.53 78.8484 649.618C78.9613 649.705 79.0963 649.76 79.2384 649.776C79.3805 649.791 79.5241 649.767 79.6535 649.707C79.7828 649.646 79.8929 649.55 79.9714 649.431C80.1304 649.185 80.1377 648.872 79.9902 648.619L79.889 648.411C79.7632 648.199 79.6252 647.994 79.4757 647.797C79.2097 647.41 78.9776 647 78.7819 646.573C78.7632 646.495 78.7605 646.414 78.7739 646.334C78.7873 646.255 78.8166 646.179 78.8599 646.111C78.8105 646.01 78.7675 645.906 78.7313 645.8C80.838 644.544 82.4119 642.56 83.1557 640.222L83.4838 640.28C83.6017 640.173 83.7567 640.115 83.916 640.12C84.3749 640.208 84.8251 640.352 85.2602 640.513C85.4864 640.618 85.7177 640.706 85.9526 640.78C86.0082 640.795 86.0899 640.808 86.1513 640.823H86.1665C86.3031 640.867 86.4493 640.872 86.5888 640.838C86.7283 640.804 86.8556 640.732 86.9565 640.63C87.0575 640.528 87.128 640.4 87.1604 640.26C87.1928 640.12 87.1858 639.974 87.14 639.838C87.0932 639.702 87.0097 639.582 86.8987 639.491C86.7877 639.4 86.6535 639.341 86.5112 639.322L86.2872 639.269C86.0411 639.235 85.7933 639.216 85.545 639.211C85.0779 639.181 84.615 639.105 84.1631 638.983C84.0238 638.904 83.9088 638.789 83.8307 638.65L83.5178 638.557C83.8507 636.127 83.2798 633.659 81.9134 631.623L82.1865 631.37C82.1757 631.211 82.2276 631.054 82.3311 630.932C82.6859 630.628 83.0693 630.358 83.4759 630.127C83.6963 630.015 83.9095 629.89 84.1147 629.754L84.2838 629.616C84.3772 629.559 84.4573 629.482 84.5188 629.391C84.5802 629.3 84.6218 629.198 84.6406 629.09C84.6594 628.982 84.6551 628.871 84.628 628.764C84.6008 628.658 84.5514 628.559 84.483 628.473C84.4147 628.387 84.3289 628.317 84.2314 628.267C84.1338 628.217 84.0268 628.188 83.9172 628.182C83.8077 628.176 83.6982 628.194 83.5959 628.234C83.4937 628.273 83.401 628.334 83.3241 628.412L83.1528 628.55C82.9741 628.719 82.8052 628.899 82.6469 629.087C82.3419 629.437 82.0037 629.755 81.6373 630.039C81.4892 630.099 81.3272 630.117 81.1697 630.09L80.877 630.299C79.1866 628.528 76.9105 627.43 74.4716 627.209C74.4716 627.093 74.4572 626.92 74.4543 626.866C74.3228 626.776 74.2319 626.638 74.2013 626.481C74.1854 626.014 74.2149 625.547 74.2895 625.086C74.3401 624.842 74.3741 624.599 74.3965 624.353V624.122C74.4078 623.908 74.3345 623.698 74.1925 623.538C74.0505 623.378 73.8512 623.28 73.6376 623.265L73.6275 623.259L73.6268 623.259ZM72.662 629.236L72.4307 633.278H72.4133C72.4063 633.401 72.367 633.519 72.2995 633.622C72.232 633.724 72.1386 633.807 72.0289 633.862C71.919 633.918 71.7956 633.941 71.6729 633.93C71.5501 633.919 71.433 633.874 71.3351 633.799L68.0193 631.45C69.0748 630.414 70.399 629.693 71.8424 629.369C72.1125 629.311 72.3853 629.267 72.6598 629.236H72.662V629.236ZM74.5916 629.236C76.3333 629.452 77.9551 630.235 79.2097 631.462L75.9257 633.796C75.8263 633.876 75.7065 633.926 75.58 633.941C75.4535 633.955 75.3253 633.934 75.2102 633.88C75.095 633.825 74.9975 633.74 74.9287 633.632C74.86 633.525 74.8228 633.401 74.8214 633.273L74.5923 629.236L74.5916 629.236ZM66.8152 632.971L69.8477 635.676V635.693C69.94 635.774 70.0087 635.878 70.0465 635.995C70.0843 636.112 70.0898 636.237 70.0624 636.357C70.035 636.476 69.9757 636.586 69.8908 636.675C69.806 636.764 69.6987 636.828 69.5803 636.861V636.872L65.6893 637.991C65.4966 636.238 65.8933 634.471 66.8167 632.968L66.8152 632.971ZM80.4166 632.971C81.338 634.469 81.7453 636.227 81.5766 637.977L77.6797 636.855V636.84C77.5609 636.808 77.4531 636.744 77.368 636.655C77.2829 636.567 77.2238 636.456 77.197 636.336C77.1699 636.216 77.1756 636.091 77.2135 635.974C77.2514 635.857 77.3201 635.753 77.4123 635.671L80.421 632.98L80.4166 632.971ZM73.006 635.887H74.2461L75.005 636.849L74.7289 638.053L73.6145 638.587L72.4979 638.053L72.2348 636.849L73.006 635.887ZM76.9794 639.171C77.0313 639.165 77.0837 639.165 77.1355 639.171L81.148 639.847C80.5614 641.517 79.4304 642.94 77.937 643.889L76.3861 640.135C76.3435 640.035 76.3258 639.925 76.3344 639.816C76.3429 639.707 76.3775 639.602 76.4352 639.509C76.4929 639.416 76.5721 639.339 76.666 639.283C76.76 639.227 76.866 639.194 76.9751 639.188L76.9794 639.171ZM70.2409 639.188C70.3525 639.19 70.4619 639.219 70.5596 639.273C70.6573 639.327 70.7402 639.404 70.801 639.498C70.8617 639.591 70.8984 639.698 70.9078 639.809C70.9173 639.92 70.8992 640.032 70.8552 640.134V640.148L69.3144 643.873C67.8391 642.927 66.717 641.521 66.1222 639.872L70.1 639.198C70.1446 639.193 70.1897 639.193 70.2344 639.198L70.2416 639.188H70.2409ZM73.6015 640.807C73.8595 640.8 74.1002 640.937 74.223 641.164H74.2375L76.1982 644.702L75.4148 644.933C73.9725 645.263 72.4669 645.185 71.0662 644.709L73.0334 641.171C73.0922 641.069 73.1763 640.984 73.2776 640.924C73.3789 640.864 73.4939 640.832 73.6116 640.829L73.6015 640.808V640.807Z" fill="white" stroke="white" stroke-width="0.361354"/>
<path fill-rule="evenodd" clip-rule="evenodd" d="M782.721 244.829V654.171C782.721 659.599 778.316 664 772.884 664H426.866C421.435 664 417.03 659.599 417.03 654.171V244.829C417.03 239.401 421.434 235 426.866 235H772.884C778.316 235 782.721 239.401 782.721 244.829Z" fill="#D2D2D2"/>
<path fill-rule="evenodd" clip-rule="evenodd" d="M479.762 644.342H768.557V651.887H479.762V644.342ZM479.762 632.201H768.557V639.746H479.762V632.201ZM479.762 620.637H768.557V628.183H479.762V620.637ZM430.907 248.298H768.557V255.814H430.907V248.298Z" fill="#A3A3A3"/>
<path fill-rule="evenodd" clip-rule="evenodd" d="M434.85 269.134H764.897C765.414 269.134 765.925 269.235 766.403 269.433C766.88 269.631 767.314 269.92 767.679 270.286C768.045 270.651 768.335 271.085 768.532 271.562C768.73 272.039 768.832 272.551 768.832 273.067V603.077C768.832 604.12 768.418 605.121 767.68 605.859C766.942 606.597 765.941 607.011 764.898 607.011H434.85C433.806 607.011 432.805 606.597 432.068 605.859C431.33 605.121 430.915 604.12 430.915 603.077V273.067C430.915 272.024 431.33 271.024 432.068 270.286C432.806 269.548 433.806 269.134 434.85 269.134H434.85Z" fill="white"/>
<path d="M449.316 618.556C448.985 618.576 448.661 618.662 448.364 618.809L435.466 624.959C435.134 625.117 434.842 625.348 434.612 625.635C434.382 625.922 434.219 626.257 434.137 626.616L430.978 640.422C430.903 640.743 430.895 641.076 430.955 641.4C431.014 641.724 431.141 642.032 431.325 642.305C431.37 642.372 431.416 642.437 431.465 642.499L440.376 653.577C440.846 654.155 441.554 654.488 442.299 654.485H456.591C456.96 654.483 457.324 654.4 457.656 654.241C457.989 654.082 458.283 653.852 458.516 653.567L467.423 642.486C467.89 641.908 468.065 641.144 467.886 640.419L464.708 626.603C464.625 626.244 464.462 625.909 464.232 625.622C464.002 625.335 463.71 625.104 463.378 624.946L450.5 618.81C450.129 618.627 449.718 618.54 449.305 618.557L449.316 618.556Z" fill="#4A4A4A"/>
<path d="M449.437 623.259C448.993 623.29 448.656 623.671 448.679 624.115V624.332C448.699 624.579 448.737 624.823 448.785 625.065C448.856 625.527 448.882 625.997 448.862 626.465C448.818 626.62 448.73 626.758 448.609 626.864L448.592 627.191C448.123 627.23 447.658 627.302 447.2 627.406C445.271 627.84 443.516 628.842 442.161 630.281L441.884 630.085C441.808 630.108 441.729 630.115 441.65 630.107C441.572 630.099 441.496 630.076 441.426 630.039C441.051 629.76 440.703 629.447 440.388 629.101C440.23 628.912 440.061 628.732 439.882 628.563L439.711 628.427C439.559 628.305 439.371 628.234 439.176 628.225C439.06 628.218 438.943 628.24 438.836 628.287C438.73 628.334 438.636 628.406 438.562 628.497C438.436 628.673 438.386 628.892 438.421 629.105C438.457 629.318 438.575 629.508 438.751 629.635L438.91 629.762C439.116 629.899 439.33 630.023 439.549 630.135C439.962 630.363 440.349 630.635 440.704 630.945C440.796 631.076 440.849 631.23 440.858 631.39L441.111 631.621C439.749 633.665 439.189 636.14 439.539 638.571L439.215 638.663C439.131 638.797 439.018 638.911 438.884 638.996C438.432 639.117 437.969 639.194 437.502 639.225C437.255 639.23 437.007 639.249 436.762 639.283L436.556 639.329H436.535C436.393 639.349 436.259 639.408 436.148 639.499C436.038 639.59 435.955 639.71 435.908 639.846C435.862 639.982 435.854 640.128 435.885 640.267C435.917 640.407 435.987 640.536 436.087 640.638C436.293 640.847 436.6 640.92 436.878 640.829H436.893L437.102 640.806C437.337 640.736 437.568 640.651 437.794 640.553C438.228 640.379 438.678 640.248 439.138 640.161C439.298 640.17 439.451 640.224 439.58 640.317L439.927 640.259C440.679 642.593 442.26 644.57 444.372 645.817L444.23 646.112C444.295 646.247 444.319 646.398 444.3 646.547C444.108 646.99 443.874 647.413 443.601 647.811C443.452 648.008 443.313 648.214 443.187 648.427L443.089 648.635C443.018 648.759 442.982 648.9 442.986 649.043C442.99 649.186 443.033 649.325 443.11 649.444C443.188 649.564 443.297 649.66 443.426 649.722C443.555 649.784 443.699 649.808 443.841 649.794C444.132 649.761 444.379 649.568 444.481 649.294L444.577 649.097C444.665 648.866 444.739 648.629 444.8 648.392C445.004 647.886 445.116 647.343 445.395 647.008C445.487 646.921 445.602 646.865 445.726 646.845L445.9 646.529C448.188 647.409 450.72 647.415 453.013 646.547L453.166 646.842C453.324 646.866 453.465 646.951 453.56 647.079C453.777 647.493 453.954 647.927 454.087 648.375C454.149 648.615 454.225 648.851 454.312 649.082L454.408 649.279C454.459 649.413 454.545 649.53 454.658 649.618C454.771 649.705 454.906 649.76 455.048 649.776C455.19 649.791 455.334 649.767 455.463 649.707C455.593 649.646 455.703 649.55 455.781 649.431C455.94 649.185 455.947 648.872 455.8 648.619L455.699 648.411C455.573 648.199 455.435 647.994 455.285 647.797C455.02 647.41 454.787 647 454.592 646.573C454.573 646.495 454.57 646.414 454.584 646.334C454.597 646.255 454.626 646.179 454.67 646.111C454.62 646.01 454.577 645.906 454.541 645.8C456.648 644.544 458.222 642.56 458.966 640.222L459.294 640.28C459.411 640.173 459.566 640.115 459.726 640.12C460.185 640.208 460.635 640.352 461.07 640.513C461.296 640.618 461.528 640.706 461.762 640.78C461.818 640.795 461.9 640.808 461.961 640.823H461.976C462.113 640.867 462.259 640.872 462.399 640.838C462.538 640.804 462.665 640.732 462.766 640.63C462.867 640.528 462.938 640.4 462.97 640.26C463.003 640.12 462.996 639.974 462.95 639.838C462.903 639.702 462.82 639.582 462.709 639.491C462.597 639.4 462.463 639.341 462.321 639.322L462.097 639.269C461.851 639.235 461.603 639.216 461.355 639.211C460.888 639.181 460.425 639.105 459.973 638.983C459.834 638.904 459.719 638.789 459.641 638.65L459.328 638.557C459.661 636.127 459.09 633.659 457.723 631.623L457.996 631.37C457.985 631.211 458.037 631.054 458.141 630.932C458.496 630.628 458.879 630.358 459.286 630.127C459.506 630.015 459.719 629.89 459.925 629.754L460.094 629.616C460.187 629.559 460.267 629.482 460.329 629.391C460.39 629.3 460.432 629.198 460.45 629.09C460.469 628.982 460.465 628.871 460.438 628.764C460.411 628.658 460.361 628.559 460.293 628.473C460.224 628.387 460.139 628.317 460.041 628.267C459.944 628.217 459.837 628.188 459.727 628.182C459.618 628.176 459.508 628.194 459.406 628.234C459.304 628.273 459.211 628.334 459.134 628.412L458.963 628.55C458.784 628.719 458.615 628.899 458.457 629.087C458.152 629.437 457.814 629.755 457.447 630.039C457.299 630.099 457.137 630.117 456.98 630.09L456.687 630.299C454.996 628.528 452.72 627.43 450.281 627.209C450.281 627.093 450.267 626.92 450.264 626.866C450.133 626.776 450.042 626.638 450.011 626.481C449.995 626.014 450.025 625.547 450.099 625.086C450.15 624.842 450.184 624.599 450.206 624.353V624.122C450.218 623.908 450.144 623.698 450.002 623.538C449.86 623.378 449.661 623.28 449.447 623.265L449.437 623.259L449.437 623.259ZM448.472 629.236L448.241 633.278H448.223C448.216 633.401 448.177 633.519 448.109 633.622C448.042 633.724 447.948 633.807 447.839 633.862C447.729 633.918 447.605 633.941 447.483 633.93C447.36 633.919 447.243 633.874 447.145 633.799L443.829 631.45C444.885 630.414 446.209 629.693 447.652 629.369C447.922 629.311 448.195 629.267 448.47 629.236H448.472V629.236ZM450.401 629.236C452.143 629.452 453.765 630.235 455.02 631.462L451.736 633.796C451.636 633.876 451.516 633.926 451.39 633.941C451.263 633.955 451.135 633.934 451.02 633.88C450.905 633.825 450.807 633.74 450.739 633.632C450.67 633.525 450.633 633.401 450.631 633.273L450.402 629.236L450.401 629.236ZM442.625 632.971L445.658 635.676V635.693C445.75 635.774 445.819 635.878 445.856 635.995C445.894 636.112 445.9 636.237 445.872 636.357C445.845 636.476 445.786 636.586 445.701 636.675C445.616 636.764 445.508 636.828 445.39 636.861V636.872L441.499 637.991C441.306 636.238 441.703 634.471 442.627 632.968L442.625 632.971ZM456.226 632.971C457.148 634.469 457.555 636.227 457.386 637.977L453.49 636.855V636.84C453.371 636.808 453.263 636.744 453.178 636.655C453.093 636.567 453.034 636.456 453.007 636.336C452.98 636.216 452.985 636.091 453.023 635.974C453.061 635.857 453.13 635.753 453.222 635.671L456.231 632.98L456.226 632.971ZM448.816 635.887H450.056L450.815 636.849L450.539 638.053L449.424 638.587L448.308 638.053L448.045 636.849L448.816 635.887ZM452.789 639.171C452.841 639.165 452.893 639.165 452.945 639.171L456.958 639.847C456.371 641.517 455.24 642.94 453.747 643.889L452.196 640.135C452.153 640.035 452.136 639.925 452.144 639.816C452.153 639.707 452.187 639.602 452.245 639.509C452.303 639.416 452.382 639.339 452.476 639.283C452.57 639.227 452.676 639.194 452.785 639.188L452.789 639.171ZM446.051 639.188C446.162 639.19 446.272 639.219 446.369 639.273C446.467 639.327 446.55 639.404 446.611 639.498C446.671 639.591 446.708 639.698 446.718 639.809C446.727 639.92 446.709 640.032 446.665 640.134V640.148L445.124 643.873C443.649 642.927 442.527 641.521 441.932 639.872L445.91 639.198C445.954 639.193 446 639.193 446.044 639.198L446.051 639.188H446.051ZM449.411 640.807C449.669 640.8 449.91 640.937 450.033 641.164H450.047L452.008 644.702L451.225 644.933C449.782 645.263 448.277 645.185 446.876 644.709L448.843 641.171C448.902 641.069 448.986 640.984 449.087 640.924C449.189 640.864 449.304 640.832 449.421 640.829L449.411 640.808V640.807Z" fill="white" stroke="white" stroke-width="0.361354"/>
<rect x="444.87" y="507.595" width="195.975" height="80.925" fill="#F1C40F"/>
<path fill-rule="evenodd" clip-rule="evenodd" d="M1158 244.829V654.171C1158 659.599 1153.59 664 1148.16 664H802.144C796.713 664 792.308 659.599 792.308 654.171V244.829C792.308 239.401 796.713 235 802.144 235H1148.16C1153.59 235 1158 239.401 1158 244.829Z" fill="#D2D2D2"/>
<path fill-rule="evenodd" clip-rule="evenodd" d="M855.041 644.342H1143.84V651.887H855.041V644.342ZM855.041 632.201H1143.84V639.746H855.041V632.201ZM855.041 620.637H1143.84V628.183H855.041V620.637ZM806.186 248.298H1143.84V255.814H806.186V248.298Z" fill="#A3A3A3"/>
<path fill-rule="evenodd" clip-rule="evenodd" d="M810.129 269.134H1140.18C1140.69 269.134 1141.2 269.235 1141.68 269.433C1142.16 269.631 1142.59 269.92 1142.96 270.286C1143.32 270.651 1143.61 271.085 1143.81 271.562C1144.01 272.039 1144.11 272.551 1144.11 273.067V603.077C1144.11 604.12 1143.7 605.121 1142.96 605.859C1142.22 606.597 1141.22 607.011 1140.18 607.011H810.128C809.085 607.011 808.084 606.597 807.346 605.859C806.608 605.121 806.194 604.12 806.194 603.077V273.067C806.194 272.024 806.608 271.024 807.346 270.286C808.084 269.548 809.085 269.134 810.128 269.134H810.129Z" fill="white"/>
<path d="M824.595 618.556C824.264 618.576 823.94 618.662 823.642 618.809L810.745 624.959C810.413 625.117 810.121 625.348 809.89 625.635C809.66 625.922 809.498 626.257 809.415 626.616L806.257 640.422C806.181 640.743 806.173 641.076 806.233 641.4C806.293 641.724 806.419 642.032 806.604 642.305C806.649 642.372 806.695 642.437 806.743 642.499L815.654 653.577C816.125 654.155 816.832 654.488 817.577 654.485H831.87C832.238 654.483 832.602 654.4 832.935 654.241C833.268 654.082 833.561 653.852 833.795 653.567L842.702 642.486C843.168 641.908 843.343 641.144 843.164 640.419L839.986 626.603C839.903 626.244 839.741 625.909 839.511 625.622C839.28 625.335 838.988 625.104 838.657 624.946L825.779 618.81C825.408 618.627 824.997 618.54 824.583 618.557L824.595 618.556Z" fill="#4A4A4A"/>
<path d="M824.715 623.259C824.271 623.29 823.935 623.671 823.958 624.115V624.332C823.978 624.579 824.015 624.823 824.064 625.065C824.135 625.527 824.161 625.997 824.14 626.465C824.096 626.62 824.008 626.758 823.888 626.864L823.871 627.191C823.402 627.23 822.936 627.302 822.478 627.406C820.549 627.84 818.795 628.842 817.44 630.281L817.162 630.085C817.086 630.108 817.007 630.115 816.929 630.107C816.85 630.099 816.774 630.076 816.705 630.039C816.329 629.76 815.981 629.447 815.667 629.101C815.509 628.912 815.34 628.732 815.161 628.563L814.99 628.427C814.837 628.305 814.65 628.234 814.455 628.225C814.338 628.218 814.222 628.24 814.115 628.287C814.008 628.334 813.914 628.406 813.84 628.497C813.715 628.673 813.664 628.892 813.7 629.105C813.735 629.318 813.853 629.508 814.029 629.635L814.189 629.762C814.395 629.899 814.608 630.023 814.828 630.135C815.24 630.363 815.627 630.635 815.983 630.945C816.074 631.076 816.128 631.23 816.136 631.39L816.389 631.621C815.028 633.665 814.468 636.14 814.818 638.571L814.493 638.663C814.409 638.797 814.296 638.911 814.163 638.996C813.711 639.117 813.248 639.194 812.781 639.225C812.533 639.23 812.286 639.249 812.04 639.283L811.835 639.329H811.813C811.671 639.349 811.537 639.408 811.427 639.499C811.316 639.59 811.233 639.71 811.187 639.846C811.14 639.982 811.132 640.128 811.164 640.267C811.195 640.407 811.265 640.536 811.365 640.638C811.571 640.847 811.878 640.92 812.157 640.829H812.171L812.381 640.806C812.616 640.736 812.847 640.651 813.072 640.553C813.506 640.379 813.957 640.248 814.416 640.161C814.576 640.17 814.729 640.224 814.859 640.317L815.206 640.259C815.958 642.593 817.539 644.57 819.65 645.817L819.509 646.112C819.574 646.247 819.598 646.398 819.578 646.547C819.387 646.99 819.153 647.413 818.88 647.811C818.73 648.008 818.592 648.214 818.466 648.427L818.367 648.635C818.296 648.759 818.26 648.9 818.264 649.043C818.268 649.186 818.311 649.325 818.389 649.444C818.467 649.564 818.576 649.66 818.705 649.722C818.834 649.784 818.977 649.808 819.119 649.794C819.41 649.761 819.658 649.568 819.759 649.294L819.856 649.097C819.944 648.866 820.017 648.629 820.078 648.392C820.283 647.886 820.394 647.343 820.674 647.008C820.765 646.921 820.88 646.865 821.005 646.845L821.178 646.529C823.466 647.409 825.998 647.415 828.291 646.547L828.445 646.842C828.602 646.866 828.743 646.951 828.838 647.079C829.056 647.493 829.232 647.927 829.366 648.375C829.427 648.615 829.503 648.851 829.59 649.082L829.687 649.279C829.737 649.413 829.824 649.53 829.937 649.618C830.05 649.705 830.185 649.76 830.327 649.776C830.469 649.791 830.612 649.767 830.742 649.707C830.871 649.646 830.981 649.55 831.06 649.431C831.219 649.185 831.226 648.872 831.078 648.619L830.977 648.411C830.851 648.199 830.713 647.994 830.564 647.797C830.298 647.41 830.066 647 829.87 646.573C829.851 646.495 829.849 646.414 829.862 646.334C829.876 646.255 829.905 646.179 829.948 646.111C829.899 646.01 829.856 645.906 829.82 645.8C831.926 644.544 833.5 642.56 834.244 640.222L834.572 640.28C834.69 640.173 834.845 640.115 835.004 640.12C835.463 640.208 835.913 640.352 836.348 640.513C836.575 640.618 836.806 640.706 837.041 640.78C837.096 640.795 837.178 640.808 837.24 640.823H837.255C837.391 640.867 837.538 640.872 837.677 640.838C837.817 640.804 837.944 640.732 838.045 640.63C838.146 640.528 838.216 640.4 838.249 640.26C838.281 640.12 838.274 639.974 838.228 639.838C838.182 639.702 838.098 639.582 837.987 639.491C837.876 639.4 837.742 639.341 837.599 639.322L837.375 639.269C837.129 639.235 836.882 639.216 836.633 639.211C836.166 639.181 835.703 639.105 835.251 638.983C835.112 638.904 834.997 638.789 834.919 638.65L834.606 638.557C834.939 636.127 834.368 633.659 833.002 631.623L833.275 631.37C833.264 631.211 833.316 631.054 833.419 630.932C833.774 630.628 834.158 630.358 834.564 630.127C834.785 630.015 834.998 629.89 835.203 629.754L835.372 629.616C835.465 629.559 835.546 629.482 835.607 629.391C835.669 629.3 835.71 629.198 835.729 629.09C835.748 628.982 835.743 628.871 835.716 628.764C835.689 628.658 835.64 628.559 835.571 628.473C835.503 628.387 835.417 628.317 835.32 628.267C835.222 628.217 835.115 628.188 835.005 628.182C834.896 628.176 834.786 628.194 834.684 628.234C834.582 628.273 834.489 628.334 834.412 628.412L834.241 628.55C834.062 628.719 833.893 628.899 833.735 629.087C833.43 629.437 833.092 629.755 832.726 630.039C832.577 630.099 832.415 630.117 832.258 630.09L831.965 630.299C830.275 628.528 827.999 627.43 825.56 627.209C825.56 627.093 825.545 626.92 825.543 626.866C825.411 626.776 825.32 626.638 825.29 626.481C825.274 626.014 825.303 625.547 825.378 625.086C825.428 624.842 825.462 624.599 825.485 624.353V624.122C825.496 623.908 825.423 623.698 825.281 623.538C825.139 623.378 824.939 623.28 824.726 623.265L824.716 623.259L824.715 623.259ZM823.75 629.236L823.519 633.278H823.502C823.495 633.401 823.455 633.519 823.388 633.622C823.32 633.724 823.227 633.807 823.117 633.862C823.007 633.918 822.884 633.941 822.761 633.93C822.638 633.919 822.521 633.874 822.423 633.799L819.108 631.45C820.163 630.414 821.487 629.693 822.931 629.369C823.201 629.311 823.474 629.267 823.748 629.236H823.75V629.236ZM825.68 629.236C827.422 629.452 829.043 630.235 830.298 631.462L827.014 633.796C826.915 633.876 826.795 633.926 826.668 633.941C826.542 633.955 826.414 633.934 826.298 633.88C826.183 633.825 826.086 633.74 826.017 633.632C825.948 633.525 825.911 633.401 825.91 633.273L825.681 629.236L825.68 629.236ZM817.904 632.971L820.936 635.676V635.693C821.028 635.774 821.097 635.878 821.135 635.995C821.173 636.112 821.178 636.237 821.151 636.357C821.123 636.476 821.064 636.586 820.979 636.675C820.894 636.764 820.787 636.828 820.669 636.861V636.872L816.778 637.991C816.585 636.238 816.982 634.471 817.905 632.968L817.904 632.971ZM831.505 632.971C832.426 634.469 832.834 636.227 832.665 637.977L828.768 636.855V636.84C828.649 636.808 828.541 636.744 828.456 636.655C828.371 636.567 828.312 636.456 828.285 636.336C828.258 636.216 828.264 636.091 828.302 635.974C828.34 635.857 828.408 635.753 828.501 635.671L831.509 632.98L831.505 632.971ZM824.094 635.887H825.334L826.093 636.849L825.817 638.053L824.703 638.587L823.586 638.053L823.323 636.849L824.094 635.887ZM828.068 639.171C828.12 639.165 828.172 639.165 828.224 639.171L832.236 639.847C831.65 641.517 830.519 642.94 829.025 643.889L827.474 640.135C827.432 640.035 827.414 639.925 827.423 639.816C827.431 639.707 827.466 639.602 827.523 639.509C827.581 639.416 827.66 639.339 827.754 639.283C827.848 639.227 827.954 639.194 828.063 639.188L828.068 639.171ZM821.329 639.188C821.441 639.19 821.55 639.219 821.648 639.273C821.746 639.327 821.828 639.404 821.889 639.498C821.95 639.591 821.987 639.698 821.996 639.809C822.006 639.92 821.987 640.032 821.943 640.134V640.148L820.403 643.873C818.927 642.927 817.805 641.521 817.21 639.872L821.188 639.198C821.233 639.193 821.278 639.193 821.323 639.198L821.33 639.188H821.329ZM824.69 640.807C824.948 640.8 825.188 640.937 825.311 641.164H825.326L827.286 644.702L826.503 644.933C825.061 645.263 823.555 645.185 822.154 644.709L824.122 641.171C824.18 641.069 824.265 640.984 824.366 640.924C824.467 640.864 824.582 640.832 824.7 640.829L824.69 640.808V640.807Z" fill="white" stroke="white" stroke-width="0.361354"/>
<rect x="820" y="508" width="195.975" height="80.925" fill="#F1C40F"/>
<rect x="1049.27" y="507.595" width="80.925" height="80.925" fill="#8FBE00"/>
<rect x="1049.27" y="415.943" width="80.925" height="80.925" fill="#8FBE00"/>
<rect x="1049.27" y="324.578" width="80.925" height="80.925" fill="#8FBE00"/>
<rect x="820" y="414.971" width="195.975" height="80.925" fill="#F1C40F"/>
<path d="M610.61 109.142C610.302 109.827 609.902 110.615 609.411 111.507C608.95 112.399 608.399 113.246 607.759 114.046C607.15 114.846 606.437 115.526 605.621 116.084C604.805 116.642 603.902 116.914 602.914 116.901C602.465 116.895 602.106 116.845 601.838 116.752C601.6 116.629 601.378 116.461 601.171 116.249C600.994 116.037 600.818 115.78 600.642 115.478C600.496 115.177 600.306 114.845 600.071 114.482C600.001 113.013 599.962 111.441 599.955 109.763C599.977 108.056 600.09 106.366 600.292 104.691C600.494 102.987 600.815 101.389 601.255 99.8969C601.724 98.4056 602.355 97.1412 603.147 96.1035C603.97 95.0662 604.983 94.331 606.187 93.8978C607.391 93.4647 608.843 93.4541 610.545 93.8662C610.646 93.029 610.676 91.9062 610.635 90.498C610.594 89.0898 610.524 87.6063 610.425 86.0475C610.326 84.4888 610.226 82.9899 610.126 81.5509C610.025 80.082 609.967 78.8832 609.949 77.9545C609.953 77.685 610.075 77.492 610.316 77.3754C610.588 77.2293 610.873 77.1432 611.173 77.1173C611.473 77.0913 611.758 77.0951 612.027 77.1287C612.326 77.1626 612.52 77.2102 612.609 77.2713C612.5 80.9537 612.436 84.5769 612.419 88.1408C612.401 91.6747 612.384 95.2087 612.367 98.7426C612.38 102.247 612.393 105.736 612.407 109.211C612.42 112.685 612.403 116.159 612.357 119.633C612.353 119.962 612.318 120.306 612.253 120.665C612.218 121.054 611.961 121.245 611.482 121.239C611.302 121.236 611.123 121.174 610.945 121.052C610.767 120.96 610.649 120.808 610.592 120.598L610.61 109.142ZM608.853 96.0899C607.926 96.0176 607.052 96.3803 606.233 97.178C605.444 97.9462 604.741 98.9551 604.126 100.205C603.54 101.455 603.057 102.841 602.677 104.364C602.298 105.856 602.054 107.305 601.945 108.712C601.867 110.088 601.941 111.317 602.166 112.398C602.421 113.48 602.875 114.22 603.529 114.618C604.188 114.627 604.805 114.381 605.381 113.879C605.957 113.348 606.49 112.681 606.98 111.879C607.47 111.077 607.901 110.184 608.273 109.201C608.646 108.187 608.959 107.218 609.211 106.293C609.493 105.368 609.699 104.532 609.828 103.785C609.989 103.009 610.071 102.426 610.076 102.036C610.08 101.737 610.102 101.258 610.141 100.6C610.179 99.9413 610.173 99.2823 610.122 98.6227C610.071 97.9631 609.944 97.3774 609.741 96.8655C609.568 96.3541 609.272 96.0955 608.853 96.0899ZM615.254 111.271C615.063 109.89 614.976 108.556 614.993 107.269C615.011 105.951 615.104 104.62 615.271 103.274C615.469 101.929 615.727 100.54 616.046 99.1062C616.395 97.6433 616.79 96.0762 617.232 94.4049C617.236 94.0755 617.33 93.7772 617.513 93.5101C617.697 93.2131 617.94 92.9767 618.242 92.8011C618.544 92.5954 618.86 92.4349 619.191 92.3196C619.522 92.2042 619.838 92.1485 620.137 92.1525C620.796 92.1613 621.392 92.3789 621.925 92.8054C622.459 93.2318 622.931 93.7473 623.342 94.3518C623.784 94.9567 624.149 95.6055 624.44 96.2983C624.76 96.9615 625.022 97.534 625.225 98.016C625.451 99.0672 625.599 100.267 625.671 101.616C625.773 102.935 625.77 104.283 625.662 105.659C625.554 107.035 625.326 108.395 624.979 109.738C624.632 111.052 624.151 112.258 623.538 113.358C622.924 114.458 622.133 115.376 621.165 116.112C620.226 116.848 619.112 117.297 617.822 117.46C617.133 117.451 616.612 117.219 616.259 116.765C615.906 116.281 615.644 115.708 615.473 115.047C615.333 114.357 615.252 113.667 615.231 112.977C615.241 112.289 615.248 111.72 615.254 111.271ZM617.547 111.166C617.543 111.466 617.539 111.75 617.535 112.02C617.562 112.29 617.588 112.56 617.614 112.83C617.671 113.07 617.727 113.34 617.783 113.641C617.87 113.911 617.97 114.227 618.085 114.588L618.355 114.592C619.073 114.601 619.69 114.37 620.206 113.898C620.721 113.425 621.164 112.817 621.533 112.073C621.903 111.3 622.214 110.45 622.466 109.525C622.718 108.57 622.91 107.644 623.042 106.747C623.204 105.821 623.305 104.969 623.346 104.191C623.416 103.383 623.455 102.739 623.461 102.26L623.473 101.362C623.479 100.973 623.469 100.538 623.446 100.059C623.423 99.5493 623.37 99.0394 623.287 98.5291C623.234 97.9893 623.135 97.5088 622.991 97.0876C622.848 96.6364 622.658 96.2744 622.422 96.0017C622.186 95.729 621.873 95.5901 621.484 95.5849C620.828 95.3664 620.258 95.4038 619.775 95.6968C619.322 95.9903 618.941 96.4943 618.632 97.209C618.353 97.8941 618.132 98.7448 617.969 99.7609C617.806 100.777 617.701 101.899 617.654 103.126C617.608 104.354 617.576 105.656 617.557 107.033C617.569 108.411 617.565 109.789 617.547 111.166ZM635.131 116.523C634.987 116.072 634.742 115.365 634.396 114.402C634.049 113.439 633.659 112.355 633.226 111.151C632.793 109.948 632.331 108.669 631.84 107.314C631.349 105.96 630.887 104.681 630.454 103.477C630.02 102.273 629.63 101.19 629.284 100.227C628.937 99.2636 628.678 98.5413 628.504 98.0598C628.328 97.7879 628.167 97.4862 628.022 97.1548C627.907 96.7939 627.852 96.4487 627.856 96.1193C627.861 95.76 627.94 95.4465 628.094 95.179C628.247 94.9115 628.489 94.7201 628.82 94.6047C629.149 94.6091 629.432 94.7327 629.669 94.9755C629.935 95.1887 630.127 95.4458 630.242 95.7469L635.231 109.067C635.266 108.648 635.351 107.9 635.485 106.824C635.62 105.717 635.755 104.551 635.892 103.325C636.028 102.099 636.148 100.947 636.252 99.8705C636.387 98.7642 636.487 98.0018 636.552 97.5833C636.586 97.2843 636.621 96.9403 636.656 96.5514C636.691 96.1625 636.756 95.789 636.851 95.4309C636.975 95.0731 637.144 94.7609 637.357 94.4942C637.601 94.2279 637.932 94.0975 638.351 94.1032C638.65 94.1072 638.86 94.1399 638.979 94.2014C639.128 94.2633 639.29 94.4452 639.466 94.747L647.893 109.595L648.096 94.4131C648.964 94.4247 649.56 94.6573 649.883 95.1109C650.237 95.5349 650.44 96.0618 650.491 96.6914C650.573 97.3215 650.564 97.9953 650.464 98.7127C650.365 99.4302 650.326 100.074 650.349 100.643C650.346 100.853 650.355 101.302 650.376 101.991C650.396 102.68 650.416 103.474 650.434 104.373C650.481 105.272 650.513 106.246 650.529 107.294C650.546 108.313 650.563 109.272 650.581 110.17C650.629 111.07 650.663 111.864 650.684 112.553C650.704 113.242 650.713 113.691 650.711 113.901C650.912 114.503 650.892 114.907 650.649 115.113C650.437 115.29 650.137 115.346 649.749 115.281C649.36 115.216 648.973 115.046 648.587 114.771C648.202 114.496 647.951 114.194 647.836 113.863L638.88 98.1985C638.61 102.717 638.35 106.488 638.1 109.509C637.85 112.531 637.621 115.074 637.414 117.138C637.32 117.466 637.168 117.643 636.958 117.671C636.748 117.698 636.524 117.665 636.285 117.572C636.077 117.449 635.87 117.282 635.663 117.069C635.456 116.857 635.279 116.675 635.131 116.523ZM655.426 117.378C655.151 113.331 654.905 109.285 654.69 105.239C654.505 101.163 654.292 96.9369 654.051 92.5609C654.06 91.8422 654.454 91.4881 655.233 91.4985L655.592 91.5033C655.682 91.5045 655.785 91.6257 655.902 91.8668C656.019 92.108 656.132 92.5588 656.243 93.2192C656.385 93.85 656.521 94.8252 656.653 96.1448C656.816 97.4349 657.003 99.1296 657.214 101.229C657.426 103.328 657.66 105.952 657.918 109.1C658.574 107.073 659.094 105.103 659.479 103.191C659.864 101.279 660.352 99.5487 660.942 97.9992C661.532 96.4197 662.344 95.0379 663.378 93.8537C664.442 92.6699 665.951 91.8065 667.905 91.2635C668.981 91.4576 669.84 92.128 670.484 93.2748C671.128 94.3915 671.634 95.776 672.001 97.4282C672.368 99.0804 672.614 100.881 672.737 102.829C672.862 104.748 672.927 106.59 672.933 108.358C672.939 110.125 672.933 111.712 672.914 113.12C672.896 114.497 672.913 115.486 672.965 116.085C672.872 116.324 672.734 116.532 672.552 116.709C672.37 116.886 672.158 117.018 671.918 117.105C671.707 117.162 671.497 117.174 671.288 117.141C671.079 117.078 670.887 116.911 670.711 116.639C670.715 116.31 670.694 115.636 670.648 114.617C670.602 113.598 670.543 112.414 670.471 111.065C670.399 109.687 670.314 108.233 670.215 106.704C670.146 105.146 670.075 103.692 670.003 102.343C669.962 100.965 669.918 99.7665 669.872 98.7475C669.826 97.7286 669.79 97.0542 669.764 96.7244C669.15 95.608 668.53 94.9708 667.903 94.8127C667.306 94.6549 666.689 94.8414 666.053 95.372C665.447 95.903 664.852 96.7187 664.268 97.819C663.685 98.9194 663.129 100.17 662.601 101.571C662.074 102.941 661.575 104.387 661.105 105.908C660.636 107.43 660.227 108.907 659.878 110.34C659.53 111.743 659.228 113.026 658.973 114.191C658.748 115.326 658.602 116.208 658.533 116.836C658.441 117.044 658.243 117.251 657.941 117.457C657.669 117.633 657.368 117.764 657.037 117.849C656.737 117.935 656.422 117.961 656.093 117.926C655.794 117.863 655.572 117.68 655.426 117.378ZM677.235 99.0706C676.934 99.2163 676.647 99.3772 676.375 99.5533C676.134 99.6998 675.892 99.8463 675.651 99.9928C675.409 100.109 675.169 100.196 674.928 100.253C674.688 100.309 674.433 100.306 674.165 100.243C673.985 100.24 673.837 100.133 673.72 99.9221C673.603 99.6809 673.517 99.4252 673.46 99.1549C673.375 98.8543 673.319 98.569 673.292 98.2991C673.266 97.9992 673.269 97.7746 673.301 97.6253L677.646 95.2125L678.07 83.7171C678.135 83.3286 678.376 83.1821 678.794 83.2775C679.213 83.343 679.646 83.4386 680.093 83.5644C680.153 83.5652 680.243 83.5964 680.362 83.6579C680.511 83.6898 680.615 83.7212 680.675 83.7519C680.604 84.5596 680.517 85.442 680.415 86.3991C680.342 87.3266 680.27 88.269 680.197 89.2265C680.125 90.154 680.068 91.0667 680.026 91.9647C680.014 92.863 680.048 93.6722 680.128 94.392L686.891 92.5956C687.011 92.5672 687.1 92.6582 687.157 92.8687C687.244 93.0495 687.316 93.2751 687.373 93.5454C687.459 93.8161 687.515 94.0864 687.541 94.3564C687.568 94.6263 687.581 94.7612 687.581 94.7612L679.902 97.8932C679.898 98.1627 679.904 98.8068 679.921 99.8253C679.967 100.844 680.011 102.058 680.052 103.466C680.093 104.844 680.133 106.342 680.171 107.96C680.21 109.548 680.25 111.031 680.292 112.41C680.333 113.788 680.362 115.001 680.378 116.05C680.394 117.068 680.401 117.712 680.397 117.982C680.325 118.879 680.05 119.325 679.57 119.318C679.121 119.312 678.63 119.081 678.097 118.625L677.235 99.0706ZM688.849 117.511C688.875 115.564 688.858 113.512 688.797 111.355C688.766 109.198 688.72 107.026 688.659 104.839C688.629 102.622 688.643 100.451 688.701 98.3253C688.76 96.1996 688.921 94.2101 689.186 92.3567C689.246 92.3275 689.381 92.3144 689.59 92.3172C689.83 92.2904 689.995 92.2776 690.085 92.2788C690.504 92.2844 690.833 92.3637 691.07 92.5166C691.338 92.64 691.469 92.9263 691.463 93.3755C691.439 95.1423 691.399 97.0735 691.341 99.1693C691.313 101.236 691.27 103.346 691.211 105.502C691.183 107.628 691.155 109.739 691.127 111.836C691.098 113.932 691.103 115.834 691.14 117.541C691.163 118.051 691.054 118.379 690.812 118.525C690.6 118.702 690.33 118.788 690 118.784C689.641 118.779 689.343 118.685 689.106 118.502C688.868 118.35 688.783 118.019 688.849 117.511ZM688.291 85.3363C688.296 84.9769 688.419 84.739 688.66 84.6224C688.901 84.5058 689.171 84.4495 689.471 84.4535C690.07 84.4615 690.441 84.6612 690.586 85.0525C690.731 85.4438 690.799 85.8939 690.793 86.403C690.609 86.73 690.381 86.9666 690.109 87.1127C689.838 87.2289 689.553 87.255 689.255 87.1911C688.986 87.0977 688.749 86.8998 688.544 86.5976C688.368 86.2957 688.284 85.8753 688.291 85.3363ZM696.026 118.37C695.947 117.531 695.888 116.392 695.847 114.954C695.806 113.515 695.767 111.957 695.73 110.28C695.693 108.572 695.641 106.804 695.576 104.976C695.541 103.149 695.489 101.411 695.421 99.7629C695.353 98.1148 695.253 96.6159 695.122 95.2663C695.02 93.9172 694.9 92.8374 694.761 92.0269C694.769 91.428 694.908 91.0854 695.179 90.9992C695.45 90.883 695.795 90.8277 696.214 90.8333C696.274 90.8341 696.409 90.8359 696.619 90.8387C696.828 90.8415 696.978 90.8585 697.067 90.8896C697.325 91.7916 697.474 92.9616 697.514 94.3998C697.585 95.8084 697.625 97.3514 697.632 99.0288C697.67 100.706 697.691 102.444 697.697 104.241C697.733 106.039 697.815 107.747 697.943 109.366C698.394 107.006 698.765 105.049 699.055 103.495C699.375 101.942 699.661 100.703 699.913 99.7781C700.196 98.8234 700.445 98.1229 700.66 97.6765C700.906 97.2006 701.165 96.8896 701.437 96.7435C701.738 96.5977 702.053 96.5421 702.382 96.5764C702.742 96.5812 703.161 96.5868 703.64 96.5932C704.179 96.6004 704.61 96.8158 704.934 97.2395C705.288 97.6635 705.55 98.2061 705.721 98.8673C705.922 99.5289 706.062 100.25 706.141 101.029C706.251 101.81 706.345 102.575 706.425 103.324C706.505 104.044 706.586 104.704 706.668 105.304C706.78 105.905 706.954 106.327 707.191 106.569C707.969 104.363 708.637 102.56 709.195 101.16C709.752 99.7598 710.231 98.6581 710.632 97.8547C711.032 97.0215 711.384 96.4272 711.689 96.0718C711.993 95.7165 712.265 95.5105 712.506 95.4538C712.746 95.3672 712.956 95.355 713.135 95.4173C713.344 95.48 713.553 95.5127 713.763 95.5155C714.571 95.5263 715.179 95.9538 715.587 96.7978C716.049 98.1518 716.361 99.4438 716.524 100.674C716.688 101.874 716.777 103.043 716.792 104.182C716.807 105.29 716.793 106.353 716.749 107.371C716.735 108.389 716.752 109.378 716.799 110.337C716.876 111.296 717.028 112.242 717.255 113.173C717.513 114.105 717.95 115.024 718.566 115.931C718.32 116.407 718.076 116.733 717.835 116.91C717.593 117.056 717.263 117.127 716.843 117.121C716.484 117.116 716.171 116.992 715.905 116.749C715.639 116.476 715.419 116.159 715.244 115.797C715.069 115.405 714.925 115.014 714.81 114.623C714.725 114.233 714.64 113.887 714.554 113.586C714.492 109.303 714.341 106.021 714.102 103.741C713.893 101.433 713.535 100.215 713.028 100.088C712.52 99.9616 711.848 100.956 711.011 103.071C710.204 105.157 709.187 108.438 707.959 112.914C707.867 113.063 707.732 113.151 707.551 113.178C707.371 113.206 707.177 113.218 706.967 113.215C706.787 113.213 706.593 113.21 706.383 113.208C706.204 113.175 706.024 113.173 705.844 113.2C705.154 108.788 704.568 105.621 704.084 103.697C703.631 101.745 703.147 100.989 702.632 101.432C702.117 101.874 701.526 103.484 700.86 106.26C700.194 109.007 699.334 112.874 698.279 117.861L696.026 118.37ZM722.296 109.152C722.146 109.18 721.921 109.222 721.62 109.278C721.32 109.334 721.006 109.345 720.677 109.31C720.348 109.276 720.064 109.182 719.827 109.029C719.559 108.876 719.428 108.62 719.433 108.26C719.435 108.051 719.482 107.902 719.573 107.813C719.664 107.724 719.816 107.592 720.028 107.415C720.694 106.885 721.257 106.203 721.718 105.371C722.208 104.509 722.655 103.601 723.057 102.648C723.459 101.665 723.877 100.697 724.309 99.7448C724.771 98.7626 725.292 97.886 725.871 97.115C726.451 96.344 727.163 95.7246 728.008 95.2567C728.853 94.7888 729.889 94.578 731.116 94.6243C731.625 94.6311 732.192 94.7585 732.818 95.0065C733.444 95.2545 734.023 95.5917 734.557 96.0181C735.09 96.4146 735.533 96.8997 735.885 97.4735C736.237 98.0473 736.408 98.6785 736.399 99.3673C736.545 99.6088 736.391 99.9512 735.936 100.394C735.511 100.838 734.92 101.324 734.164 101.853C733.409 102.352 732.548 102.88 731.582 103.436C730.647 103.963 729.742 104.46 728.867 104.927C727.992 105.395 727.223 105.804 726.559 106.154C725.896 106.505 725.458 106.769 725.246 106.945C725.092 107.243 724.968 107.586 724.873 107.974C724.778 108.362 724.698 108.735 724.633 109.094C724.599 109.423 724.564 109.737 724.53 110.036C724.527 110.305 724.524 110.515 724.522 110.665C724.514 111.234 724.476 111.862 724.407 112.55C724.368 113.238 724.389 113.897 724.47 114.528C724.582 115.128 724.83 115.641 725.214 116.065C725.598 116.459 726.254 116.663 727.182 116.675C728.17 116.689 729.102 116.461 729.977 115.994C730.852 115.496 731.669 114.893 732.427 114.185C733.185 113.476 733.869 112.706 734.479 111.876C735.12 111.046 735.684 110.275 736.173 109.562C736.692 108.821 737.149 108.213 737.545 107.739C737.94 107.265 738.273 107.03 738.543 107.033C738.842 107.037 739.156 107.101 739.483 107.226C739.842 107.32 740.018 107.562 740.013 107.951C740.006 108.49 739.772 109.131 739.313 109.874C738.884 110.617 738.304 111.403 737.575 112.232C736.875 113.061 736.055 113.889 735.115 114.715C734.206 115.511 733.283 116.233 732.346 116.879C731.409 117.496 730.489 118.007 729.585 118.415C728.681 118.792 727.885 118.976 727.197 118.967C725.849 118.949 724.835 118.606 724.155 117.938C723.475 117.27 722.992 116.44 722.706 115.447C722.45 114.456 722.314 113.406 722.299 112.297C722.314 111.159 722.313 110.111 722.296 109.152ZM730.723 97.1349C730.214 97.1281 729.672 97.3755 729.096 97.8769C728.52 98.3484 727.973 98.9401 727.455 99.652C726.966 100.334 726.553 101.048 726.213 101.792C725.904 102.507 725.746 103.103 725.74 103.583C726.189 103.589 726.835 103.432 727.678 103.114C728.551 102.767 729.41 102.344 730.256 101.846C731.101 101.348 731.842 100.819 732.478 100.258C733.115 99.6977 733.436 99.1629 733.443 98.6539C733.447 98.3843 733.345 98.1584 733.138 97.9759C732.931 97.7934 732.678 97.6403 732.38 97.5165C732.112 97.3931 731.829 97.2995 731.53 97.2356C731.232 97.1717 730.963 97.1381 730.723 97.1349ZM763.548 118.509C763.574 116.563 763.556 114.511 763.495 112.354C763.464 110.197 763.418 108.025 763.358 105.838C763.327 103.621 763.341 101.45 763.4 99.3238C763.458 97.1981 763.62 95.2086 763.884 93.3552C763.944 93.326 764.079 93.3129 764.289 93.3157C764.529 93.2889 764.694 93.2761 764.783 93.2773C765.203 93.283 765.531 93.3622 765.769 93.5151C766.037 93.6385 766.168 93.9248 766.162 94.374C766.138 96.1408 766.097 98.072 766.039 100.168C766.012 102.234 765.968 104.345 765.91 106.501C765.881 108.627 765.853 110.738 765.825 112.834C765.797 114.93 765.801 116.832 765.838 118.54C765.862 119.049 765.752 119.377 765.511 119.524C765.299 119.701 765.028 119.787 764.699 119.782C764.339 119.778 764.041 119.684 763.804 119.501C763.566 119.348 763.481 119.017 763.548 118.509ZM762.989 86.3348C762.994 85.9754 763.117 85.7375 763.358 85.6209C763.6 85.5043 763.87 85.448 764.169 85.452C764.768 85.46 765.14 85.6597 765.284 86.051C765.429 86.4423 765.498 86.8924 765.491 87.4015C765.307 87.7285 765.079 87.9651 764.808 88.1112C764.536 88.2274 764.252 88.2535 763.953 88.1896C763.685 88.0962 763.448 87.8983 763.242 87.5961C763.066 87.2942 762.982 86.8738 762.989 86.3348ZM772.696 102.952C772.576 102.951 772.396 103.008 772.154 103.125C771.914 103.211 771.658 103.328 771.386 103.474C771.145 103.591 770.904 103.707 770.663 103.824C770.421 103.94 770.211 103.997 770.031 103.995C769.732 103.991 769.463 103.927 769.225 103.804C769.017 103.682 768.916 103.441 768.92 103.082C768.924 102.782 769.063 102.499 769.336 102.234C769.639 101.968 769.987 101.703 770.38 101.439C770.773 101.175 771.166 100.925 771.558 100.691C771.951 100.456 772.238 100.221 772.421 99.9835C772.368 99.5036 772.335 98.6047 772.322 97.2867C772.31 95.9687 772.33 94.4714 772.382 92.7949C772.465 91.0888 772.593 89.3384 772.767 87.5437C772.971 85.7494 773.247 84.1507 773.595 82.7477C773.973 81.3151 774.453 80.1984 775.032 79.3975C775.612 78.5966 776.349 78.3518 777.244 78.6633C777.872 78.6717 778.439 78.8739 778.943 79.27C779.447 79.6362 779.875 80.1061 780.227 80.6799C780.579 81.2237 780.84 81.8262 781.011 82.4874C781.212 83.149 781.309 83.7493 781.302 84.2883C781.298 84.5878 781.218 84.9162 781.064 85.2735C780.94 85.6013 780.698 85.7628 780.338 85.758L780.204 85.7562C780.174 85.7558 780.144 85.7404 780.115 85.7101C779.42 83.8738 778.822 82.7127 778.319 82.2268C777.847 81.7113 777.428 81.6908 777.062 82.1651C776.726 82.6398 776.43 83.4894 776.174 84.714C775.948 85.9389 775.75 87.3589 775.578 88.974C775.407 90.5591 775.25 92.2492 775.106 94.0443C774.963 95.8095 774.821 97.4549 774.681 98.9805C775.282 98.8387 775.778 98.6956 776.169 98.5511C776.59 98.407 776.967 98.2622 777.298 98.1169C777.63 97.9417 777.931 97.781 778.203 97.6348C778.475 97.4588 778.776 97.313 779.107 97.1977C779.74 96.9066 780.433 96.6313 781.185 96.3718C781.968 96.0828 782.718 95.9431 783.437 95.9527C783.425 96.8211 783.251 97.5376 782.914 98.1021C782.607 98.6671 782.196 99.1258 781.683 99.4784C781.199 99.8313 780.641 100.093 780.01 100.265C779.379 100.406 778.733 100.532 778.073 100.643C777.442 100.755 776.842 100.866 776.271 100.978C775.701 101.091 775.205 101.234 774.783 101.408C774.847 103.355 774.944 105.064 775.074 106.533C775.234 108.003 775.366 109.308 775.471 110.447C775.605 111.587 775.696 112.637 775.743 113.596C775.821 114.525 775.808 115.453 775.706 116.38C775.703 116.59 775.699 116.89 775.694 117.279C775.719 117.639 775.699 117.998 775.635 118.356C775.6 118.715 775.491 119.028 775.308 119.295C775.125 119.532 774.839 119.648 774.45 119.643C774.09 119.638 773.822 119.56 773.644 119.408C773.467 119.226 773.352 118.88 773.298 118.37C773.151 115.942 773.029 113.889 772.932 112.21C772.865 110.502 772.809 109.079 772.764 107.94C772.72 106.771 772.702 105.858 772.711 105.199L772.738 103.133C772.74 103.013 772.726 102.953 772.696 102.952ZM807.003 100.805C806.702 100.951 806.415 101.112 806.143 101.288C805.901 101.434 805.66 101.581 805.418 101.727C805.177 101.844 804.936 101.931 804.696 101.987C804.456 102.044 804.201 102.041 803.932 101.977C803.753 101.975 803.604 101.868 803.487 101.657C803.371 101.416 803.284 101.16 803.228 100.89C803.142 100.589 803.086 100.304 803.06 100.034C803.034 99.7338 803.037 99.5093 803.069 99.3599L807.414 96.9471L807.837 85.4517C807.902 85.0632 808.144 84.9167 808.562 85.0121C808.98 85.0776 809.413 85.1733 809.861 85.2991C809.921 85.2999 810.01 85.331 810.129 85.3925C810.279 85.4244 810.383 85.4558 810.442 85.4865C810.372 86.2943 810.285 87.1766 810.182 88.1337C810.11 89.0612 810.038 90.0037 809.965 90.9611C809.893 91.8886 809.836 92.8013 809.794 93.6993C809.782 94.5977 809.816 95.4068 809.896 96.1267L816.659 94.3302C816.779 94.3018 816.868 94.3929 816.925 94.6033C817.012 94.7842 817.084 95.0098 817.14 95.2801C817.227 95.5508 817.283 95.8211 817.309 96.091C817.335 96.3609 817.349 96.4958 817.349 96.4958L809.669 99.6279C809.666 99.8974 809.672 100.541 809.688 101.56C809.735 102.579 809.778 103.792 809.82 105.201C809.861 106.579 809.901 108.077 809.939 109.695C809.978 111.283 810.018 112.766 810.059 114.144C810.101 115.522 810.13 116.736 810.146 117.784C810.162 118.803 810.168 119.447 810.165 119.716C810.093 120.614 809.817 121.059 809.338 121.053C808.889 121.047 808.398 120.816 807.865 120.359L807.003 100.805ZM834.274 100.72C833.172 100.286 832.107 100.437 831.078 101.172C830.05 101.907 829.063 102.957 828.116 104.322C827.17 105.657 826.266 107.188 825.404 108.913C824.542 110.639 823.742 112.275 823.002 113.823C822.263 115.371 821.586 116.694 820.973 117.794C820.389 118.895 819.857 119.501 819.376 119.615C819.016 119.61 818.733 119.546 818.525 119.424C818.347 119.272 818.262 118.926 818.269 118.387L818.691 86.8098C818.695 86.5403 818.802 86.377 819.012 86.3199C819.253 86.2632 819.507 86.2516 819.776 86.2852C820.045 86.3187 820.299 86.397 820.537 86.52C820.775 86.613 820.924 86.7198 820.982 86.8404L821.228 112.137C821.564 111.602 821.874 110.858 822.156 109.903C822.469 108.919 822.827 107.875 823.231 106.773C823.636 105.64 824.1 104.523 824.624 103.422C825.178 102.291 825.851 101.282 826.641 100.394C827.432 99.5059 828.384 98.8298 829.499 98.3654C830.643 97.8716 831.978 97.7097 833.503 97.8799C834.522 97.8935 835.341 98.2339 835.961 98.9011C836.581 99.5383 836.899 100.381 836.915 101.43L837.125 119.358C837.123 119.478 837.091 119.657 837.028 119.896C836.995 120.105 836.873 120.283 836.661 120.43C836.479 120.607 836.208 120.708 835.849 120.734C835.518 120.789 835.085 120.708 834.549 120.492L834.274 100.72ZM840.789 110.736C840.639 110.764 840.414 110.806 840.114 110.862C839.814 110.918 839.499 110.929 839.17 110.894C838.841 110.86 838.558 110.766 838.32 110.613C838.053 110.46 837.921 110.204 837.926 109.844C837.929 109.635 837.976 109.486 838.067 109.397C838.158 109.308 838.309 109.176 838.521 108.999C839.187 108.468 839.751 107.787 840.211 106.955C840.702 106.093 841.148 105.185 841.55 104.232C841.953 103.249 842.37 102.281 842.802 101.329C843.264 100.346 843.785 99.4699 844.365 98.6989C844.944 97.928 845.656 97.3085 846.501 96.8406C847.346 96.3727 848.382 96.1619 849.609 96.2083C850.118 96.2151 850.686 96.3425 851.311 96.5904C851.937 96.8384 852.517 97.1756 853.05 97.602C853.584 97.9985 854.027 98.4837 854.378 99.0574C854.73 99.6312 854.901 100.262 854.892 100.951C855.039 101.193 854.884 101.535 854.429 101.978C854.004 102.422 853.413 102.908 852.657 103.437C851.902 103.936 851.041 104.464 850.076 105.02C849.14 105.547 848.235 106.044 847.36 106.511C846.485 106.979 845.716 107.388 845.052 107.738C844.389 108.089 843.951 108.352 843.739 108.529C843.585 108.827 843.461 109.17 843.366 109.558C843.271 109.946 843.191 110.319 843.126 110.678C843.092 111.007 843.058 111.321 843.024 111.62C843.02 111.889 843.017 112.099 843.015 112.249C843.008 112.817 842.969 113.446 842.9 114.134C842.861 114.822 842.882 115.481 842.964 116.111C843.076 116.712 843.323 117.224 843.707 117.649C844.091 118.043 844.747 118.247 845.676 118.259C846.664 118.272 847.595 118.045 848.47 117.578C849.345 117.08 850.162 116.477 850.92 115.769C851.678 115.06 852.363 114.29 852.973 113.46C853.613 112.63 854.177 111.859 854.666 111.146C855.185 110.405 855.642 109.797 856.038 109.323C856.434 108.849 856.766 108.614 857.036 108.617C857.335 108.621 857.649 108.685 857.977 108.81C858.335 108.904 858.511 109.146 858.506 109.535C858.499 110.074 858.266 110.715 857.807 111.458C857.377 112.201 856.798 112.987 856.068 113.816C855.368 114.645 854.548 115.473 853.609 116.299C852.7 117.095 851.776 117.817 850.839 118.463C849.903 119.079 848.982 119.591 848.078 119.999C847.175 120.376 846.379 120.56 845.69 120.551C844.342 120.533 843.329 120.19 842.649 119.522C841.969 118.854 841.486 118.024 841.199 117.031C840.943 116.04 840.807 114.989 840.792 113.881C840.807 112.743 840.806 111.695 840.789 110.736ZM849.216 98.7189C848.707 98.7121 848.165 98.9594 847.589 99.4609C847.014 99.9324 846.467 100.524 845.948 101.236C845.46 101.918 845.046 102.632 844.706 103.376C844.397 104.09 844.24 104.687 844.233 105.167C844.682 105.173 845.328 105.016 846.171 104.698C847.045 104.35 847.904 103.928 848.749 103.43C849.594 102.932 850.335 102.403 850.972 101.842C851.608 101.282 851.93 100.747 851.937 100.238C851.94 99.9683 851.838 99.7423 851.631 99.5598C851.424 99.3773 851.171 99.2242 850.873 99.1004C850.606 98.977 850.322 98.8834 850.024 98.8195C849.725 98.7556 849.456 98.7221 849.216 98.7189ZM603.161 170.685C602.886 166.638 602.64 162.591 602.425 158.545C602.24 154.469 602.027 150.243 601.786 145.867C601.795 145.148 602.189 144.794 602.968 144.805L603.327 144.809C603.417 144.811 603.52 144.932 603.637 145.173C603.754 145.414 603.867 145.865 603.978 146.525C604.12 147.156 604.256 148.131 604.388 149.451C604.551 150.741 604.738 152.436 604.949 154.535C605.161 156.635 605.395 159.258 605.653 162.407C606.309 160.379 606.829 158.409 607.214 156.497C607.599 154.586 608.087 152.855 608.677 151.305C609.267 149.726 610.079 148.344 611.113 147.16C612.177 145.976 613.686 145.113 615.64 144.57C616.716 144.764 617.575 145.434 618.219 146.581C618.863 147.698 619.369 149.082 619.736 150.734C620.103 152.387 620.349 154.187 620.472 156.135C620.597 158.054 620.662 159.897 620.668 161.664C620.674 163.431 620.668 165.018 620.649 166.426C620.631 167.803 620.648 168.792 620.7 169.392C620.607 169.63 620.469 169.838 620.287 170.015C620.105 170.192 619.893 170.324 619.653 170.411C619.442 170.468 619.232 170.48 619.023 170.447C618.814 170.385 618.622 170.217 618.446 169.945C618.45 169.616 618.429 168.942 618.383 167.923C618.337 166.904 618.278 165.72 618.206 164.371C618.134 162.993 618.049 161.539 617.95 160.01C617.881 158.452 617.81 156.998 617.738 155.65C617.697 154.271 617.653 153.073 617.607 152.054C617.561 151.035 617.525 150.36 617.499 150.031C616.885 148.914 616.265 148.277 615.638 148.119C615.041 147.961 614.424 148.148 613.788 148.678C613.182 149.209 612.587 150.025 612.003 151.125C611.42 152.226 610.864 153.476 610.336 154.877C609.809 156.247 609.31 157.693 608.84 159.215C608.371 160.736 607.962 162.213 607.613 163.646C607.265 165.049 606.963 166.333 606.708 167.497C606.483 168.632 606.337 169.514 606.268 170.142C606.176 170.35 605.978 170.557 605.676 170.763C605.404 170.939 605.103 171.07 604.772 171.155C604.472 171.241 604.157 171.267 603.828 171.233C603.529 171.169 603.307 170.986 603.161 170.685ZM623.538 165.386C623.347 164.006 623.26 162.672 623.278 161.384C623.295 160.067 623.388 158.735 623.556 157.39C623.753 156.044 624.011 154.655 624.33 153.222C624.679 151.759 625.074 150.192 625.516 148.52C625.52 148.191 625.614 147.893 625.798 147.626C625.981 147.329 626.224 147.092 626.526 146.917C626.828 146.711 627.145 146.551 627.476 146.435C627.807 146.32 628.122 146.264 628.421 146.268C629.08 146.277 629.676 146.494 630.21 146.921C630.743 147.347 631.215 147.863 631.627 148.467C632.068 149.072 632.434 149.721 632.724 150.414C633.044 151.077 633.306 151.65 633.51 152.132C633.735 153.183 633.884 154.383 633.956 155.732C634.058 157.051 634.055 158.398 633.946 159.775C633.838 161.151 633.61 162.511 633.263 163.854C632.916 165.167 632.436 166.374 631.822 167.474C631.208 168.574 630.417 169.491 629.449 170.227C628.511 170.964 627.396 171.413 626.106 171.575C625.418 171.566 624.897 171.335 624.543 170.881C624.19 170.397 623.928 169.824 623.758 169.163C623.617 168.472 623.536 167.782 623.516 167.093C623.525 166.404 623.532 165.835 623.538 165.386ZM625.831 165.282C625.827 165.581 625.823 165.866 625.82 166.135C625.846 166.405 625.872 166.675 625.899 166.945C625.955 167.186 626.012 167.456 626.068 167.756C626.154 168.027 626.254 168.343 626.369 168.704L626.639 168.707C627.358 168.717 627.975 168.485 628.49 168.013C629.006 167.541 629.448 166.933 629.817 166.189C630.187 165.415 630.498 164.566 630.75 163.641C631.002 162.686 631.194 161.76 631.326 160.863C631.488 159.937 631.59 159.084 631.63 158.306C631.701 157.498 631.739 156.855 631.746 156.376L631.758 155.478C631.763 155.088 631.754 154.654 631.73 154.174C631.707 153.665 631.654 153.155 631.571 152.645C631.518 152.105 631.42 151.624 631.276 151.203C631.132 150.752 630.942 150.39 630.706 150.117C630.47 149.845 630.158 149.706 629.768 149.7C629.112 149.482 628.543 149.519 628.06 149.812C627.606 150.106 627.225 150.61 626.916 151.325C626.637 152.01 626.416 152.86 626.253 153.876C626.09 154.893 625.985 156.014 625.939 157.242C625.892 158.469 625.86 159.771 625.841 161.149C625.853 162.527 625.85 163.905 625.831 165.282ZM645.711 163.616C645.402 164.301 645.002 165.089 644.511 165.981C644.05 166.873 643.499 167.72 642.86 168.52C642.25 169.32 641.537 170 640.721 170.558C639.905 171.116 639.003 171.388 638.014 171.375C637.565 171.369 637.207 171.319 636.938 171.226C636.7 171.103 636.478 170.935 636.271 170.723C636.094 170.511 635.918 170.254 635.742 169.952C635.597 169.651 635.406 169.319 635.172 168.956C635.101 167.487 635.062 165.915 635.055 164.237C635.078 162.53 635.19 160.84 635.392 159.165C635.595 157.461 635.916 155.863 636.355 154.371C636.824 152.88 637.455 151.615 638.248 150.578C639.07 149.54 640.083 148.805 641.287 148.372C642.491 147.939 643.944 147.928 645.645 148.34C645.746 147.503 645.776 146.38 645.735 144.972C645.694 143.564 645.624 142.08 645.525 140.522C645.426 138.963 645.326 137.464 645.226 136.025C645.126 134.556 645.067 133.357 645.049 132.429C645.053 132.159 645.175 131.966 645.416 131.849C645.688 131.703 645.974 131.617 646.273 131.591C646.573 131.565 646.858 131.569 647.127 131.603C647.426 131.637 647.62 131.684 647.709 131.745C647.6 135.428 647.537 139.051 647.519 142.615C647.502 146.149 647.484 149.683 647.467 153.217C647.48 156.721 647.493 160.21 647.507 163.685C647.52 167.159 647.504 170.633 647.457 174.107C647.453 174.436 647.418 174.78 647.354 175.139C647.318 175.528 647.061 175.719 646.582 175.713C646.403 175.71 646.224 175.648 646.046 175.526C645.867 175.434 645.749 175.282 645.692 175.072L645.711 163.616ZM643.953 150.564C643.026 150.492 642.152 150.854 641.333 151.652C640.544 152.42 639.842 153.429 639.226 154.679C638.64 155.929 638.157 157.315 637.778 158.838C637.398 160.33 637.154 161.779 637.046 163.186C636.967 164.562 637.041 165.791 637.266 166.872C637.521 167.954 637.975 168.694 638.629 169.092C639.288 169.101 639.905 168.855 640.481 168.353C641.057 167.822 641.59 167.155 642.08 166.353C642.57 165.551 643.001 164.658 643.374 163.675C643.747 162.661 644.059 161.692 644.311 160.767C644.593 159.842 644.799 159.006 644.929 158.259C645.089 157.483 645.171 156.9 645.177 156.511C645.181 156.211 645.202 155.732 645.241 155.074C645.28 154.415 645.273 153.756 645.222 153.097C645.171 152.437 645.044 151.851 644.841 151.34C644.669 150.828 644.373 150.57 643.953 150.564ZM651.749 162.214C651.599 162.242 651.374 162.284 651.074 162.34C650.774 162.396 650.459 162.407 650.13 162.372C649.801 162.338 649.518 162.244 649.28 162.091C649.013 161.938 648.881 161.682 648.886 161.322C648.889 161.113 648.936 160.963 649.027 160.875C649.118 160.786 649.269 160.653 649.481 160.477C650.147 159.946 650.711 159.265 651.171 158.433C651.662 157.571 652.108 156.663 652.51 155.71C652.913 154.727 653.33 153.759 653.762 152.807C654.224 151.824 654.745 150.948 655.325 150.177C655.904 149.406 656.616 148.786 657.461 148.318C658.306 147.851 659.342 147.64 660.569 147.686C661.078 147.693 661.646 147.82 662.271 148.068C662.897 148.316 663.477 148.653 664.01 149.08C664.544 149.476 664.987 149.962 665.338 150.535C665.69 151.109 665.861 151.74 665.852 152.429C665.999 152.671 665.844 153.013 665.389 153.456C664.964 153.9 664.373 154.386 663.618 154.915C662.862 155.414 662.002 155.942 661.036 156.498C660.1 157.024 659.195 157.522 658.32 157.989C657.445 158.457 656.676 158.866 656.013 159.216C655.349 159.567 654.911 159.83 654.699 160.007C654.545 160.305 654.421 160.647 654.326 161.036C654.231 161.424 654.151 161.797 654.086 162.155C654.052 162.484 654.018 162.799 653.984 163.098C653.98 163.367 653.978 163.577 653.976 163.726C653.968 164.295 653.93 164.924 653.86 165.612C653.821 166.3 653.842 166.959 653.924 167.589C654.036 168.19 654.283 168.702 654.667 169.127C655.051 169.521 655.707 169.725 656.636 169.737C657.624 169.75 658.555 169.523 659.43 169.056C660.305 168.558 661.122 167.955 661.88 167.246C662.639 166.538 663.323 165.768 663.933 164.938C664.573 164.108 665.137 163.337 665.626 162.624C666.145 161.882 666.603 161.275 666.998 160.801C667.394 160.327 667.726 160.092 667.996 160.095C668.295 160.099 668.609 160.163 668.937 160.287C669.295 160.382 669.471 160.624 669.466 161.013C669.459 161.552 669.226 162.193 668.767 162.936C668.337 163.679 667.758 164.465 667.028 165.294C666.328 166.123 665.508 166.951 664.569 167.777C663.66 168.573 662.737 169.295 661.799 169.941C660.863 170.557 659.942 171.069 659.038 171.476C658.135 171.854 657.339 172.038 656.65 172.029C655.302 172.011 654.289 171.668 653.609 171C652.929 170.331 652.446 169.501 652.159 168.509C651.903 167.517 651.767 166.467 651.752 165.359C651.768 164.221 651.767 163.173 651.749 162.214ZM660.176 150.197C659.667 150.19 659.125 150.437 658.549 150.939C657.974 151.41 657.427 152.002 656.908 152.714C656.42 153.396 656.006 154.109 655.667 154.854C655.357 155.568 655.2 156.165 655.193 156.644C655.643 156.65 656.289 156.494 657.131 156.176C658.005 155.828 658.864 155.406 659.709 154.908C660.554 154.41 661.295 153.881 661.932 153.32C662.568 152.76 662.89 152.225 662.897 151.716C662.9 151.446 662.798 151.22 662.591 151.038C662.384 150.855 662.131 150.702 661.834 150.578C661.566 150.455 661.282 150.361 660.984 150.297C660.685 150.234 660.416 150.2 660.176 150.197ZM695.135 190.064C697.772 189.95 699.848 189.288 701.361 188.081C702.905 186.873 704.064 185.301 704.839 183.365C705.613 181.429 706.092 179.204 706.276 176.69C706.459 174.207 706.508 171.632 706.424 168.965C706.34 166.298 706.196 163.631 705.992 160.962C705.818 158.265 705.762 155.763 705.822 153.458C704.484 157.213 703.231 160.252 702.062 162.572C700.893 164.863 699.806 166.6 698.802 167.785C697.828 168.94 696.935 169.647 696.123 169.906C695.341 170.135 694.653 170.081 694.059 169.743C693.465 169.376 692.978 168.815 692.599 168.061C692.25 167.278 692.006 166.481 691.867 165.671C691.945 164.294 692.235 162.785 692.736 161.145C693.268 159.475 693.933 157.851 694.733 156.274C695.563 154.668 696.512 153.183 697.578 151.82C698.645 150.426 699.767 149.348 700.946 148.585C702.124 147.792 703.343 147.389 704.601 147.376C705.859 147.333 707.066 147.828 708.22 148.862C708.25 148.893 708.289 149.297 708.339 150.077C708.418 150.827 708.495 151.831 708.568 153.09C708.671 154.319 708.772 155.713 708.871 157.272C709.001 158.801 709.115 160.36 709.213 161.949C709.312 163.508 709.397 165.006 709.468 166.445C709.538 167.883 709.611 169.127 709.687 170.177C709.784 171.885 709.685 173.696 709.39 175.609C709.125 177.522 708.711 179.373 708.148 181.163C707.584 182.982 706.873 184.68 706.013 186.256C705.183 187.832 704.223 189.122 703.131 190.126C702.069 191.13 700.878 191.758 699.557 192.01C698.265 192.292 696.89 192.049 695.433 191.281C695.343 191.28 695.209 191.263 695.03 191.231C694.85 191.228 694.701 191.181 694.582 191.09C694.494 190.999 694.48 190.879 694.542 190.73C694.604 190.581 694.802 190.359 695.135 190.064ZM694.207 165.387C694.494 166.32 694.877 166.804 695.356 166.84C695.865 166.847 696.408 166.54 696.985 165.919C697.563 165.267 698.189 164.362 698.863 163.203C699.568 162.045 700.259 160.781 700.936 159.412C701.613 158.044 702.276 156.645 702.924 155.216C703.602 153.757 704.234 152.403 704.82 151.153C704.824 150.824 704.754 150.523 704.607 150.252C704.462 149.95 704.133 149.856 703.623 149.969C702.782 150.137 701.953 150.531 701.136 151.149C700.349 151.767 699.605 152.536 698.904 153.455C698.233 154.344 697.606 155.339 697.022 156.44C696.469 157.511 695.975 158.597 695.541 159.7C695.137 160.772 694.809 161.801 694.556 162.786C694.333 163.772 694.217 164.639 694.207 165.387ZM712.431 166.574C712.24 165.194 712.153 163.86 712.17 162.572C712.188 161.255 712.28 159.923 712.448 158.578C712.646 157.233 712.904 155.843 713.223 154.41C713.572 152.947 713.967 151.38 714.409 149.709C714.413 149.379 714.507 149.081 714.69 148.814C714.874 148.517 715.116 148.281 715.418 148.105C715.721 147.899 716.037 147.739 716.368 147.623C716.699 147.508 717.014 147.452 717.314 147.456C717.973 147.465 718.569 147.683 719.102 148.109C719.636 148.536 720.108 149.051 720.519 149.656C720.96 150.26 721.326 150.909 721.616 151.602C721.937 152.265 722.199 152.838 722.402 153.32C722.628 154.371 722.776 155.571 722.848 156.92C722.95 158.239 722.947 159.587 722.839 160.963C722.731 162.339 722.503 163.699 722.155 165.042C721.808 166.355 721.328 167.562 720.714 168.662C720.101 169.762 719.31 170.68 718.341 171.416C717.403 172.152 716.289 172.601 714.999 172.764C714.31 172.754 713.789 172.523 713.436 172.069C713.083 171.585 712.821 171.012 712.65 170.351C712.509 169.66 712.429 168.97 712.408 168.281C712.417 167.593 712.425 167.024 712.431 166.574ZM714.724 166.47C714.72 166.77 714.716 167.054 714.712 167.324C714.738 167.594 714.765 167.864 714.791 168.133C714.848 168.374 714.904 168.644 714.96 168.944C715.046 169.215 715.147 169.531 715.262 169.892L715.531 169.895C716.25 169.905 716.867 169.674 717.383 169.201C717.898 168.729 718.34 168.121 718.71 167.377C719.08 166.603 719.39 165.754 719.642 164.829C719.895 163.874 720.087 162.948 720.219 162.051C720.381 161.125 720.482 160.273 720.522 159.494C720.593 158.687 720.632 158.043 720.638 157.564L720.65 156.666C720.655 156.276 720.646 155.842 720.623 155.363C720.599 154.853 720.546 154.343 720.463 153.833C720.411 153.293 720.312 152.813 720.168 152.391C720.024 151.94 719.835 151.578 719.599 151.306C719.363 151.033 719.05 150.894 718.661 150.889C718.005 150.67 717.435 150.708 716.952 151.001C716.499 151.294 716.118 151.798 715.809 152.513C715.53 153.198 715.309 154.049 715.146 155.065C714.982 156.081 714.877 157.203 714.831 158.43C714.785 159.657 714.752 160.96 714.734 162.337C714.745 163.715 714.742 165.093 714.724 166.47ZM726.088 163.208C725.938 163.236 725.713 163.278 725.413 163.334C725.113 163.389 724.798 163.4 724.469 163.366C724.14 163.332 723.857 163.238 723.619 163.085C723.352 162.932 723.22 162.675 723.225 162.316C723.228 162.106 723.275 161.957 723.366 161.869C723.457 161.78 723.608 161.647 723.82 161.47C724.486 160.94 725.05 160.259 725.51 159.426C726.001 158.564 726.447 157.657 726.849 156.704C727.252 155.721 727.669 154.753 728.101 153.8C728.564 152.818 729.084 151.942 729.664 151.171C730.243 150.4 730.955 149.78 731.8 149.312C732.645 148.844 733.681 148.634 734.908 148.68C735.418 148.687 735.985 148.814 736.611 149.062C737.236 149.31 737.816 149.647 738.349 150.074C738.883 150.47 739.326 150.955 739.677 151.529C740.029 152.103 740.2 152.734 740.191 153.423C740.338 153.664 740.183 154.007 739.728 154.45C739.303 154.893 738.712 155.38 737.957 155.909C737.201 156.408 736.341 156.935 735.375 157.492C734.439 158.018 733.534 158.515 732.659 158.983C731.784 159.45 731.015 159.859 730.352 160.21C729.688 160.56 729.25 160.824 729.038 161.001C728.884 161.298 728.76 161.641 728.665 162.029C728.57 162.417 728.49 162.791 728.425 163.149C728.391 163.478 728.357 163.792 728.323 164.091C728.319 164.361 728.317 164.57 728.315 164.72C728.307 165.289 728.269 165.918 728.2 166.605C728.16 167.294 728.182 167.953 728.263 168.583C728.375 169.184 728.622 169.696 729.006 170.12C729.39 170.515 730.046 170.718 730.975 170.731C731.963 170.744 732.894 170.517 733.769 170.049C734.644 169.552 735.461 168.949 736.219 168.24C736.978 167.531 737.662 166.762 738.272 165.931C738.912 165.101 739.476 164.33 739.965 163.618C740.484 162.876 740.942 162.268 741.337 161.794C741.733 161.32 742.066 161.085 742.335 161.089C742.635 161.093 742.948 161.157 743.276 161.281C743.634 161.376 743.811 161.618 743.805 162.007C743.798 162.546 743.565 163.187 743.106 163.929C742.677 164.672 742.097 165.458 741.367 166.287C740.667 167.117 739.847 167.944 738.908 168.77C737.999 169.567 737.076 170.288 736.138 170.935C735.202 171.551 734.281 172.063 733.377 172.47C732.474 172.847 731.678 173.031 730.989 173.022C729.641 173.004 728.628 172.661 727.948 171.993C727.268 171.325 726.785 170.495 726.499 169.503C726.242 168.511 726.107 167.461 726.091 166.353C726.107 165.215 726.106 164.166 726.088 163.208ZM734.515 151.19C734.006 151.184 733.464 151.431 732.888 151.932C732.313 152.404 731.766 152.996 731.247 153.708C730.759 154.39 730.345 155.103 730.006 155.847C729.697 156.562 729.539 157.159 729.532 157.638C729.982 157.644 730.628 157.488 731.47 157.17C732.344 156.822 733.203 156.399 734.048 155.901C734.893 155.404 735.634 154.874 736.271 154.314C736.907 153.753 737.229 153.218 737.236 152.709C737.239 152.44 737.137 152.214 736.93 152.031C736.723 151.849 736.471 151.696 736.173 151.572C735.905 151.449 735.621 151.355 735.323 151.291C735.024 151.227 734.755 151.194 734.515 151.19ZM749.46 172.55C749.459 172.58 749.776 172.405 750.41 172.024C751.074 171.643 751.845 171.145 752.722 170.527C753.629 169.881 754.551 169.189 755.49 168.453C756.428 167.687 757.202 166.963 757.81 166.282C758.418 165.602 758.74 165.022 758.777 164.543C758.843 164.035 758.444 163.7 757.577 163.539C756.501 163.375 755.588 163.377 754.837 163.547C754.115 163.717 753.454 163.918 752.852 164.15C752.25 164.381 751.678 164.598 751.136 164.801C750.624 165.003 750.054 165.071 749.426 165.002C748.108 164.985 747.2 164.568 746.702 163.753C746.234 162.908 746.01 161.782 746.029 160.374C746.047 158.967 746.38 157.639 747.025 156.389C747.671 155.11 748.495 154.013 749.495 153.098C750.496 152.183 751.644 151.464 752.938 150.943C754.234 150.391 755.555 150.124 756.903 150.142C757.442 150.149 757.905 150.2 758.293 150.295C758.681 150.39 758.871 150.737 758.863 151.336C758.858 151.755 758.673 152.157 758.308 152.542C757.944 152.896 757.537 153.071 757.088 153.065C757.058 153.064 756.984 153.048 756.864 153.017C756.745 152.955 756.626 152.879 756.508 152.787C756.389 152.696 756.27 152.634 756.151 152.603C756.032 152.541 755.957 152.51 755.928 152.51C754.973 152.228 754.043 152.35 753.137 152.877C752.232 153.404 751.413 154.127 750.682 155.046C749.981 155.935 749.414 156.915 748.981 157.988C748.547 159.03 748.325 159.971 748.314 160.809C748.31 161.139 748.366 161.409 748.483 161.62C748.63 161.802 748.808 161.939 749.016 162.032C749.255 162.125 749.509 162.188 749.778 162.222C750.077 162.226 750.377 162.23 750.676 162.234C751.275 162.242 751.875 162.16 752.476 161.988C753.108 161.817 753.709 161.615 754.281 161.383C754.884 161.152 755.485 160.95 756.087 160.778C756.718 160.607 757.363 160.526 758.022 160.535C758.321 160.539 758.649 160.633 759.006 160.817C759.364 160.972 759.69 161.216 759.985 161.549C760.28 161.853 760.53 162.216 760.734 162.638C760.938 163.03 761.052 163.466 761.076 163.945C761.25 164.367 761.183 164.92 760.874 165.605C760.595 166.29 760.166 167.018 759.587 167.789C759.008 168.56 758.308 169.344 757.489 170.142C756.67 170.91 755.852 171.617 755.034 172.265C754.218 172.883 753.417 173.382 752.633 173.761C751.849 174.17 751.188 174.355 750.649 174.318C750.05 174.31 749.693 174.126 749.578 173.765C749.493 173.404 749.454 172.999 749.46 172.55ZM793.401 165.59C793.092 166.275 792.692 167.063 792.201 167.955C791.74 168.848 791.189 169.694 790.55 170.494C789.94 171.294 789.227 171.974 788.411 172.532C787.595 173.09 786.693 173.362 785.704 173.349C785.255 173.343 784.896 173.294 784.628 173.2C784.39 173.077 784.168 172.909 783.961 172.697C783.784 172.485 783.608 172.228 783.432 171.926C783.286 171.625 783.096 171.293 782.861 170.93C782.791 169.462 782.752 167.889 782.745 166.211C782.768 164.505 782.88 162.814 783.082 161.139C783.285 159.435 783.606 157.837 784.045 156.345C784.514 154.854 785.145 153.589 785.937 152.552C786.76 151.514 787.773 150.779 788.977 150.346C790.181 149.913 791.634 149.902 793.335 150.314C793.436 149.477 793.466 148.354 793.425 146.946C793.384 145.538 793.314 144.054 793.215 142.496C793.116 140.937 793.016 139.438 792.916 137.999C792.816 136.53 792.757 135.331 792.739 134.403C792.743 134.133 792.865 133.94 793.106 133.824C793.378 133.677 793.664 133.591 793.963 133.565C794.263 133.54 794.548 133.543 794.817 133.577C795.116 133.611 795.31 133.658 795.399 133.719C795.29 137.402 795.226 141.025 795.209 144.589C795.191 148.123 795.174 151.657 795.157 155.191C795.17 158.695 795.183 162.185 795.197 165.659C795.21 169.134 795.194 172.608 795.147 176.081C795.143 176.411 795.108 176.755 795.044 177.113C795.008 177.502 794.751 177.693 794.272 177.687C794.092 177.684 793.914 177.622 793.736 177.5C793.557 177.408 793.439 177.256 793.382 177.046L793.401 165.59ZM791.643 152.538C790.716 152.466 789.842 152.829 789.023 153.626C788.234 154.394 787.532 155.403 786.916 156.653C786.33 157.903 785.847 159.289 785.468 160.812C785.088 162.304 784.844 163.754 784.736 165.16C784.657 166.537 784.731 167.765 784.956 168.847C785.211 169.928 785.665 170.668 786.319 171.066C786.978 171.075 787.595 170.829 788.171 170.327C788.747 169.796 789.28 169.129 789.77 168.327C790.26 167.525 790.691 166.632 791.064 165.649C791.437 164.635 791.749 163.666 792.001 162.741C792.283 161.816 792.489 160.981 792.619 160.233C792.779 159.457 792.861 158.874 792.867 158.485C792.871 158.185 792.892 157.706 792.931 157.048C792.969 156.39 792.963 155.731 792.912 155.071C792.861 154.411 792.734 153.826 792.531 153.314C792.358 152.802 792.062 152.544 791.643 152.538ZM798.044 167.719C797.853 166.339 797.766 165.005 797.783 163.717C797.801 162.399 797.894 161.068 798.061 159.722C798.259 158.377 798.517 156.988 798.836 155.554C799.185 154.092 799.58 152.524 800.022 150.853C800.026 150.524 800.12 150.225 800.303 149.958C800.487 149.661 800.73 149.425 801.032 149.249C801.334 149.044 801.651 148.883 801.982 148.768C802.313 148.652 802.628 148.597 802.927 148.601C803.586 148.61 804.182 148.827 804.716 149.254C805.249 149.68 805.721 150.195 806.133 150.8C806.574 151.405 806.939 152.054 807.23 152.746C807.55 153.41 807.812 153.982 808.015 154.464C808.241 155.515 808.39 156.715 808.461 158.064C808.564 159.383 808.561 160.731 808.452 162.107C808.344 163.484 808.116 164.843 807.769 166.187C807.422 167.5 806.941 168.706 806.328 169.806C805.714 170.906 804.923 171.824 803.955 172.56C803.017 173.296 801.902 173.746 800.612 173.908C799.924 173.899 799.403 173.667 799.049 173.213C798.696 172.729 798.434 172.157 798.263 171.495C798.123 170.805 798.042 170.115 798.022 169.426C798.031 168.737 798.038 168.168 798.044 167.719ZM800.337 167.615C800.333 167.914 800.329 168.199 800.326 168.468C800.352 168.738 800.378 169.008 800.405 169.278C800.461 169.518 800.518 169.788 800.573 170.089C800.66 170.359 800.76 170.675 800.875 171.036L801.145 171.04C801.863 171.049 802.481 170.818 802.996 170.346C803.512 169.873 803.954 169.265 804.323 168.522C804.693 167.748 805.004 166.898 805.256 165.973C805.508 165.018 805.7 164.092 805.832 163.196C805.994 162.269 806.095 161.417 806.136 160.639C806.207 159.831 806.245 159.188 806.251 158.709L806.264 157.81C806.269 157.421 806.26 156.986 806.236 156.507C806.213 155.998 806.16 155.488 806.077 154.977C806.024 154.438 805.926 153.957 805.782 153.536C805.638 153.085 805.448 152.723 805.212 152.45C804.976 152.177 804.663 152.038 804.274 152.033C803.618 151.815 803.049 151.852 802.565 152.145C802.112 152.438 801.731 152.943 801.422 153.657C801.143 154.342 800.922 155.193 800.759 156.209C800.596 157.225 800.491 158.347 800.444 159.574C800.398 160.802 800.366 162.104 800.347 163.482C800.359 164.86 800.355 166.237 800.337 167.615ZM817.921 172.971C817.778 172.52 817.532 171.813 817.186 170.85C816.839 169.887 816.45 168.803 816.016 167.6C815.583 166.396 815.121 165.117 814.63 163.762C814.139 162.408 813.677 161.129 813.244 159.925C812.811 158.721 812.421 157.638 812.074 156.675C811.728 155.712 811.468 154.99 811.294 154.508C811.118 154.236 810.958 153.934 810.812 153.603C810.697 153.242 810.642 152.897 810.646 152.568C810.651 152.208 810.73 151.895 810.884 151.627C811.037 151.36 811.279 151.168 811.61 151.053C811.94 151.057 812.222 151.181 812.459 151.424C812.725 151.637 812.917 151.894 813.033 152.195L818.021 165.515C818.056 165.096 818.141 164.348 818.276 163.272C818.41 162.166 818.546 160.999 818.682 159.773C818.818 158.547 818.938 157.396 819.042 156.319C819.177 155.212 819.277 154.45 819.343 154.032C819.376 153.732 819.411 153.389 819.446 153C819.481 152.611 819.546 152.237 819.641 151.879C819.765 151.521 819.934 151.209 820.148 150.942C820.391 150.676 820.722 150.546 821.141 150.551C821.441 150.555 821.65 150.588 821.769 150.65C821.918 150.711 822.08 150.893 822.256 151.195L830.683 166.044L830.886 150.861C831.754 150.873 832.35 151.106 832.674 151.559C833.027 151.983 833.23 152.51 833.281 153.14C833.363 153.77 833.354 154.443 833.254 155.161C833.155 155.878 833.116 156.522 833.139 157.091C833.136 157.301 833.145 157.75 833.166 158.439C833.186 159.128 833.206 159.922 833.224 160.821C833.272 161.72 833.304 162.694 833.319 163.743C833.336 164.761 833.353 165.72 833.371 166.619C833.419 167.518 833.453 168.312 833.474 169.001C833.495 169.69 833.503 170.14 833.501 170.349C833.702 170.951 833.682 171.355 833.44 171.561C833.228 171.738 832.927 171.794 832.539 171.729C832.15 171.664 831.763 171.494 831.378 171.219C830.992 170.945 830.741 170.642 830.626 170.311L821.67 154.647C821.4 159.166 821.14 162.936 820.89 165.958C820.64 168.979 820.412 171.522 820.204 173.586C820.11 173.914 819.958 174.092 819.748 174.119C819.538 174.146 819.314 174.113 819.075 174.02C818.867 173.897 818.66 173.73 818.453 173.517C818.246 173.305 818.069 173.123 817.921 172.971ZM838.216 173.827C837.941 169.78 837.696 165.733 837.48 161.687C837.295 157.611 837.082 153.385 836.841 149.009C836.851 148.29 837.245 147.936 838.023 147.947L838.383 147.952C838.472 147.953 838.576 148.074 838.692 148.315C838.809 148.556 838.922 149.007 839.033 149.667C839.175 150.298 839.312 151.273 839.444 152.593C839.606 153.883 839.793 155.578 840.005 157.677C840.216 159.777 840.451 162.4 840.708 165.549C841.364 163.521 841.885 161.551 842.27 159.639C842.655 157.728 843.142 155.997 843.732 154.447C844.322 152.868 845.134 151.486 846.168 150.302C847.232 149.118 848.741 148.255 850.695 147.712C851.771 147.906 852.631 148.576 853.274 149.723C853.918 150.84 854.424 152.224 854.791 153.876C855.158 155.529 855.404 157.329 855.528 159.277C855.652 161.196 855.717 163.039 855.723 164.806C855.73 166.573 855.723 168.16 855.705 169.568C855.686 170.945 855.703 171.934 855.755 172.534C855.662 172.772 855.524 172.98 855.342 173.157C855.16 173.334 854.949 173.466 854.708 173.553C854.497 173.61 854.288 173.622 854.078 173.589C853.87 173.527 853.677 173.359 853.501 173.087C853.505 172.758 853.484 172.084 853.438 171.065C853.392 170.046 853.333 168.862 853.261 167.513C853.19 166.135 853.104 164.681 853.005 163.152C852.936 161.594 852.865 160.14 852.794 158.792C852.752 157.413 852.708 156.215 852.662 155.196C852.616 154.177 852.58 153.502 852.554 153.173C851.94 152.056 851.32 151.419 850.693 151.261C850.096 151.103 849.48 151.29 848.843 151.82C848.237 152.351 847.642 153.167 847.059 154.267C846.475 155.368 845.919 156.618 845.391 158.019C844.864 159.389 844.365 160.835 843.896 162.357C843.426 163.878 843.017 165.355 842.668 166.788C842.32 168.191 842.018 169.475 841.763 170.639C841.538 171.774 841.392 172.656 841.323 173.284C841.231 173.493 841.033 173.7 840.731 173.905C840.459 174.081 840.158 174.212 839.827 174.297C839.527 174.383 839.212 174.409 838.883 174.375C838.584 174.311 838.362 174.128 838.216 173.827Z" fill="#333333"/>
<path d="M1094.94 303.06C1095.53 303.646 1096.47 303.646 1097.06 303.06L1106.61 293.514C1107.19 292.929 1107.19 291.979 1106.61 291.393C1106.02 290.807 1105.07 290.807 1104.49 291.393L1096 299.878L1087.51 291.393C1086.93 290.807 1085.98 290.807 1085.39 291.393C1084.81 291.979 1084.81 292.929 1085.39 293.514L1094.94 303.06ZM870.037 129.499C1031.21 125.52 1094.5 230.857 1094.5 302H1097.5C1097.5 229.141 1032.79 122.48 869.963 126.5L870.037 129.499Z" fill="black"/>
</svg>
