<svg width="1200" height="900" viewBox="0 0 1200 900" fill="none" xmlns="http://www.w3.org/2000/svg">
<rect width="1200" height="900" fill="white"/>
<path d="M141.49 396.734H125.936C125.652 394.722 125.072 392.935 124.196 391.372C123.32 389.786 122.196 388.437 120.822 387.324C119.449 386.211 117.863 385.359 116.064 384.767C114.288 384.175 112.359 383.879 110.276 383.879C106.511 383.879 103.232 384.814 100.439 386.685C97.6454 388.531 95.4792 391.23 93.9403 394.781C92.4015 398.309 91.6321 402.594 91.6321 407.636C91.6321 412.821 92.4015 417.177 93.9403 420.705C95.5028 424.232 97.6809 426.895 100.474 428.695C103.268 430.494 106.5 431.393 110.169 431.393C112.229 431.393 114.134 431.121 115.886 430.577C117.662 430.032 119.236 429.239 120.609 428.197C121.982 427.132 123.119 425.842 124.018 424.327C124.942 422.812 125.581 421.083 125.936 419.142L141.49 419.213C141.088 422.551 140.081 425.771 138.472 428.872C136.885 431.95 134.743 434.708 132.044 437.146C129.369 439.561 126.173 441.479 122.456 442.899C118.763 444.296 114.584 444.994 109.92 444.994C103.434 444.994 97.6335 443.527 92.5199 440.591C87.4299 437.655 83.4053 433.406 80.446 427.842C77.5104 422.279 76.0426 415.544 76.0426 407.636C76.0426 399.705 77.5341 392.958 80.517 387.395C83.5 381.831 87.5483 377.594 92.6619 374.682C97.7756 371.746 103.528 370.278 109.92 370.278C114.134 370.278 118.041 370.87 121.639 372.054C125.261 373.238 128.469 374.966 131.263 377.239C134.056 379.488 136.329 382.246 138.081 385.513C139.857 388.78 140.993 392.52 141.49 396.734ZM174.246 445.065C168.729 445.065 163.959 443.893 159.934 441.55C155.934 439.182 152.844 435.892 150.666 431.678C148.488 427.44 147.399 422.527 147.399 416.94C147.399 411.306 148.488 406.382 150.666 402.168C152.844 397.93 155.934 394.639 159.934 392.295C163.959 389.928 168.729 388.744 174.246 388.744C179.762 388.744 184.52 389.928 188.521 392.295C192.546 394.639 195.647 397.93 197.825 402.168C200.003 406.382 201.092 411.306 201.092 416.94C201.092 422.527 200.003 427.44 197.825 431.678C195.647 435.892 192.546 439.182 188.521 441.55C184.52 443.893 179.762 445.065 174.246 445.065ZM174.317 433.347C176.826 433.347 178.921 432.636 180.602 431.216C182.283 429.772 183.55 427.807 184.402 425.321C185.278 422.835 185.716 420.006 185.716 416.834C185.716 413.661 185.278 410.832 184.402 408.347C183.55 405.861 182.283 403.896 180.602 402.452C178.921 401.008 176.826 400.286 174.317 400.286C171.783 400.286 169.653 401.008 167.925 402.452C166.22 403.896 164.93 405.861 164.054 408.347C163.202 410.832 162.775 413.661 162.775 416.834C162.775 420.006 163.202 422.835 164.054 425.321C164.93 427.807 166.22 429.772 167.925 431.216C169.653 432.636 171.783 433.347 174.317 433.347ZM223.425 371.273V444H208.297V371.273H223.425ZM248.04 371.273V444H232.912V371.273H248.04ZM282.384 445.065C276.773 445.065 271.944 443.929 267.896 441.656C263.871 439.36 260.77 436.116 258.592 431.926C256.414 427.712 255.325 422.729 255.325 416.976C255.325 411.365 256.414 406.441 258.592 402.203C260.77 397.965 263.835 394.663 267.789 392.295C271.766 389.928 276.43 388.744 281.78 388.744C285.379 388.744 288.729 389.324 291.83 390.484C294.955 391.621 297.678 393.337 299.998 395.634C302.342 397.93 304.164 400.818 305.467 404.298C306.769 407.755 307.42 411.803 307.42 416.443V420.598H261.361V411.223H293.18C293.18 409.045 292.706 407.116 291.759 405.435C290.812 403.754 289.498 402.44 287.817 401.493C286.16 400.522 284.231 400.037 282.029 400.037C279.733 400.037 277.697 400.57 275.921 401.635C274.169 402.677 272.796 404.085 271.802 405.861C270.807 407.613 270.298 409.566 270.275 411.72V420.634C270.275 423.332 270.772 425.664 271.766 427.629C272.784 429.594 274.217 431.109 276.063 432.175C277.91 433.24 280.1 433.773 282.633 433.773C284.314 433.773 285.852 433.536 287.249 433.062C288.646 432.589 289.842 431.879 290.836 430.932C291.83 429.985 292.588 428.825 293.109 427.452L307.1 428.375C306.39 431.737 304.934 434.672 302.732 437.182C300.554 439.668 297.737 441.609 294.28 443.006C290.848 444.379 286.882 445.065 282.384 445.065ZM339.305 445.065C333.718 445.065 328.912 443.882 324.888 441.514C320.887 439.123 317.809 435.809 315.655 431.571C313.524 427.333 312.459 422.456 312.459 416.94C312.459 411.353 313.536 406.453 315.69 402.239C317.868 398.001 320.958 394.698 324.959 392.331C328.96 389.94 333.718 388.744 339.234 388.744C343.993 388.744 348.159 389.608 351.734 391.337C355.309 393.065 358.138 395.491 360.221 398.616C362.305 401.741 363.453 405.411 363.666 409.625H349.39C348.988 406.902 347.923 404.713 346.194 403.055C344.49 401.375 342.253 400.534 339.483 400.534C337.139 400.534 335.091 401.173 333.339 402.452C331.611 403.706 330.262 405.541 329.291 407.956C328.32 410.371 327.835 413.295 327.835 416.727C327.835 420.207 328.308 423.167 329.255 425.605C330.226 428.044 331.587 429.902 333.339 431.18C335.091 432.459 337.139 433.098 339.483 433.098C341.211 433.098 342.762 432.743 344.135 432.033C345.531 431.322 346.68 430.293 347.579 428.943C348.503 427.57 349.106 425.925 349.39 424.007H363.666C363.429 428.174 362.293 431.843 360.257 435.016C358.245 438.164 355.463 440.626 351.912 442.402C348.361 444.178 344.158 445.065 339.305 445.065ZM399.733 389.455V400.818H366.885V389.455H399.733ZM374.342 376.386H389.47V427.239C389.47 428.635 389.683 429.724 390.109 430.506C390.535 431.263 391.127 431.796 391.885 432.104C392.666 432.411 393.566 432.565 394.584 432.565C395.294 432.565 396.004 432.506 396.714 432.388C397.425 432.246 397.969 432.139 398.348 432.068L400.727 443.325C399.97 443.562 398.904 443.834 397.531 444.142C396.158 444.473 394.489 444.675 392.524 444.746C388.878 444.888 385.682 444.402 382.936 443.29C380.214 442.177 378.095 440.449 376.58 438.105C375.064 435.761 374.319 432.802 374.342 429.227V376.386ZM406.956 444V389.455H422.084V444H406.956ZM414.555 382.423C412.306 382.423 410.377 381.678 408.767 380.186C407.181 378.671 406.388 376.86 406.388 374.753C406.388 372.67 407.181 370.882 408.767 369.391C410.377 367.875 412.306 367.118 414.555 367.118C416.804 367.118 418.722 367.875 420.308 369.391C421.918 370.882 422.723 372.67 422.723 374.753C422.723 376.86 421.918 378.671 420.308 380.186C418.722 381.678 416.804 382.423 414.555 382.423ZM446.698 412.466V444H431.57V389.455H445.988V399.078H446.627C447.834 395.906 449.859 393.396 452.699 391.55C455.54 389.679 458.985 388.744 463.033 388.744C466.821 388.744 470.124 389.573 472.941 391.23C475.758 392.887 477.948 395.255 479.511 398.332C481.073 401.386 481.854 405.032 481.854 409.27V444H466.726V411.969C466.75 408.631 465.898 406.027 464.17 404.156C462.441 402.262 460.062 401.315 457.032 401.315C454.996 401.315 453.197 401.753 451.634 402.629C450.095 403.505 448.888 404.784 448.012 406.464C447.16 408.122 446.722 410.122 446.698 412.466ZM515.72 465.591C510.819 465.591 506.617 464.916 503.113 463.567C499.633 462.241 496.863 460.43 494.803 458.134C492.744 455.837 491.406 453.257 490.791 450.392L504.782 448.51C505.208 449.599 505.883 450.617 506.806 451.564C507.73 452.511 508.949 453.268 510.464 453.837C512.003 454.429 513.873 454.724 516.075 454.724C519.365 454.724 522.076 453.92 524.207 452.31C526.361 450.723 527.438 448.06 527.438 444.32V434.341H526.799C526.136 435.856 525.142 437.288 523.816 438.638C522.49 439.987 520.786 441.088 518.703 441.94C516.619 442.793 514.133 443.219 511.245 443.219C507.149 443.219 503.421 442.272 500.059 440.378C496.721 438.46 494.058 435.536 492.069 431.607C490.104 427.653 489.122 422.658 489.122 416.621C489.122 410.442 490.128 405.281 492.14 401.138C494.152 396.995 496.828 393.893 500.166 391.834C503.527 389.774 507.209 388.744 511.21 388.744C514.264 388.744 516.82 389.265 518.88 390.307C520.94 391.325 522.597 392.603 523.852 394.142C525.13 395.657 526.113 397.149 526.799 398.616H527.367V389.455H542.389V444.533C542.389 449.173 541.252 453.055 538.98 456.18C536.707 459.305 533.558 461.649 529.533 463.212C525.533 464.798 520.928 465.591 515.72 465.591ZM516.039 431.855C518.478 431.855 520.537 431.251 522.218 430.044C523.923 428.813 525.225 427.061 526.124 424.788C527.048 422.492 527.509 419.746 527.509 416.55C527.509 413.354 527.06 410.584 526.16 408.24C525.26 405.873 523.958 404.038 522.254 402.736C520.549 401.434 518.478 400.783 516.039 400.783C513.553 400.783 511.458 401.457 509.754 402.807C508.049 404.133 506.759 405.979 505.883 408.347C505.007 410.714 504.569 413.448 504.569 416.55C504.569 419.698 505.007 422.421 505.883 424.717C506.783 426.99 508.073 428.754 509.754 430.009C511.458 431.24 513.553 431.855 516.039 431.855ZM572.308 444V389.455H586.726V399.078H587.365C588.502 395.882 590.395 393.361 593.047 391.514C595.698 389.668 598.871 388.744 602.564 388.744C606.305 388.744 609.489 389.679 612.117 391.55C614.744 393.396 616.496 395.906 617.372 399.078H617.94C619.053 395.953 621.065 393.455 623.977 391.585C626.913 389.691 630.381 388.744 634.382 388.744C639.472 388.744 643.603 390.366 646.776 393.609C649.972 396.829 651.57 401.398 651.57 407.317V444H636.477V410.3C636.477 407.269 635.672 404.997 634.063 403.482C632.453 401.966 630.44 401.209 628.026 401.209C625.279 401.209 623.137 402.085 621.598 403.837C620.059 405.565 619.29 407.849 619.29 410.69V444H604.624V409.98C604.624 407.305 603.854 405.174 602.315 403.588C600.8 402.002 598.8 401.209 596.314 401.209C594.633 401.209 593.118 401.635 591.769 402.487C590.443 403.316 589.389 404.488 588.608 406.003C587.827 407.494 587.436 409.246 587.436 411.259V444H572.308ZM685.746 445.065C680.135 445.065 675.305 443.929 671.257 441.656C667.232 439.36 664.131 436.116 661.953 431.926C659.775 427.712 658.686 422.729 658.686 416.976C658.686 411.365 659.775 406.441 661.953 402.203C664.131 397.965 667.197 394.663 671.15 392.295C675.128 389.928 679.792 388.744 685.142 388.744C688.74 388.744 692.09 389.324 695.192 390.484C698.317 391.621 701.039 393.337 703.359 395.634C705.703 397.93 707.526 400.818 708.828 404.298C710.13 407.755 710.781 411.803 710.781 416.443V420.598H664.723V411.223H696.541C696.541 409.045 696.068 407.116 695.121 405.435C694.174 403.754 692.86 402.44 691.179 401.493C689.522 400.522 687.592 400.037 685.391 400.037C683.094 400.037 681.058 400.57 679.283 401.635C677.531 402.677 676.158 404.085 675.163 405.861C674.169 407.613 673.66 409.566 673.636 411.72V420.634C673.636 423.332 674.133 425.664 675.128 427.629C676.146 429.594 677.578 431.109 679.425 432.175C681.271 433.24 683.461 433.773 685.994 433.773C687.675 433.773 689.214 433.536 690.611 433.062C692.007 432.589 693.203 431.879 694.197 430.932C695.192 429.985 695.949 428.825 696.47 427.452L710.462 428.375C709.751 431.737 708.295 434.672 706.094 437.182C703.916 439.668 701.098 441.609 697.642 443.006C694.209 444.379 690.244 445.065 685.746 445.065ZM747.035 389.455V400.818H714.187V389.455H747.035ZM721.644 376.386H736.772V427.239C736.772 428.635 736.985 429.724 737.411 430.506C737.837 431.263 738.429 431.796 739.187 432.104C739.968 432.411 740.867 432.565 741.885 432.565C742.596 432.565 743.306 432.506 744.016 432.388C744.726 432.246 745.271 432.139 745.65 432.068L748.029 443.325C747.271 443.562 746.206 443.834 744.833 444.142C743.46 444.473 741.791 444.675 739.826 444.746C736.18 444.888 732.984 444.402 730.238 443.29C727.515 442.177 725.396 440.449 723.881 438.105C722.366 435.761 721.62 432.802 721.644 429.227V376.386ZM754.257 444V389.455H768.924V398.972H769.492C770.486 395.586 772.155 393.029 774.499 391.301C776.843 389.549 779.541 388.673 782.595 388.673C783.353 388.673 784.17 388.721 785.046 388.815C785.922 388.91 786.691 389.04 787.354 389.206V402.629C786.644 402.416 785.661 402.227 784.406 402.061C783.152 401.895 782.004 401.812 780.962 401.812C778.736 401.812 776.748 402.298 774.996 403.268C773.268 404.215 771.895 405.541 770.877 407.246C769.882 408.95 769.385 410.915 769.385 413.141V444H754.257ZM792.544 444V389.455H807.672V444H792.544ZM800.143 382.423C797.894 382.423 795.965 381.678 794.355 380.186C792.769 378.671 791.976 376.86 791.976 374.753C791.976 372.67 792.769 370.882 794.355 369.391C795.965 367.875 797.894 367.118 800.143 367.118C802.392 367.118 804.31 367.875 805.896 369.391C807.506 370.882 808.311 372.67 808.311 374.753C808.311 376.86 807.506 378.671 805.896 380.186C804.31 381.678 802.392 382.423 800.143 382.423ZM841.803 445.065C836.216 445.065 831.41 443.882 827.385 441.514C823.385 439.123 820.307 435.809 818.153 431.571C816.022 427.333 814.957 422.456 814.957 416.94C814.957 411.353 816.034 406.453 818.188 402.239C820.366 398.001 823.456 394.698 827.457 392.331C831.457 389.94 836.216 388.744 841.732 388.744C846.491 388.744 850.657 389.608 854.232 391.337C857.807 393.065 860.636 395.491 862.719 398.616C864.803 401.741 865.951 405.411 866.164 409.625H851.888C851.486 406.902 850.421 404.713 848.692 403.055C846.988 401.375 844.751 400.534 841.981 400.534C839.637 400.534 837.589 401.173 835.837 402.452C834.109 403.706 832.76 405.541 831.789 407.956C830.818 410.371 830.333 413.295 830.333 416.727C830.333 420.207 830.806 423.167 831.753 425.605C832.724 428.044 834.085 429.902 835.837 431.18C837.589 432.459 839.637 433.098 841.981 433.098C843.709 433.098 845.26 432.743 846.633 432.033C848.029 431.322 849.178 430.293 850.077 428.943C851.001 427.57 851.604 425.925 851.888 424.007H866.164C865.927 428.174 864.791 431.843 862.755 435.016C860.742 438.164 857.961 440.626 854.41 442.402C850.858 444.178 846.656 445.065 841.803 445.065ZM918.602 405.009L904.752 405.861C904.515 404.677 904.006 403.612 903.225 402.665C902.444 401.694 901.414 400.925 900.136 400.357C898.881 399.765 897.378 399.469 895.626 399.469C893.282 399.469 891.305 399.966 889.695 400.96C888.086 401.931 887.281 403.233 887.281 404.866C887.281 406.169 887.801 407.269 888.843 408.169C889.885 409.069 891.672 409.791 894.205 410.335L904.077 412.324C909.38 413.413 913.334 415.165 915.938 417.58C918.542 419.994 919.845 423.167 919.845 427.097C919.845 430.671 918.791 433.808 916.684 436.507C914.601 439.206 911.736 441.313 908.09 442.828C904.468 444.32 900.29 445.065 895.555 445.065C888.334 445.065 882.581 443.562 878.296 440.555C874.035 437.525 871.537 433.406 870.803 428.197L885.683 427.416C886.132 429.618 887.221 431.299 888.95 432.459C890.678 433.595 892.891 434.163 895.59 434.163C898.242 434.163 900.372 433.654 901.982 432.636C903.616 431.595 904.444 430.257 904.468 428.624C904.444 427.25 903.864 426.126 902.728 425.25C901.592 424.35 899.84 423.664 897.472 423.19L888.026 421.308C882.7 420.243 878.734 418.396 876.13 415.768C873.55 413.141 872.259 409.791 872.259 405.719C872.259 402.215 873.206 399.196 875.1 396.663C877.018 394.13 879.705 392.177 883.161 390.804C886.641 389.431 890.713 388.744 895.377 388.744C902.266 388.744 907.688 390.2 911.641 393.112C915.619 396.024 917.939 399.99 918.602 405.009Z" fill="black"/>
<rect x="71" y="498" width="1038" height="19" fill="black"/>
</svg>
