<svg width="1200" height="900" viewBox="0 0 1200 900" fill="none" xmlns="http://www.w3.org/2000/svg">
<path fill-rule="evenodd" clip-rule="evenodd" d="M406.911 244.829V654.171C406.911 659.599 402.507 664 397.075 664H51.0563C45.6251 664 41.2202 659.599 41.2202 654.171V244.829C41.2202 239.401 45.6244 235 51.0563 235H397.075C402.506 235 406.911 239.401 406.911 244.829Z" fill="#D2D2D2"/>
<path fill-rule="evenodd" clip-rule="evenodd" d="M103.954 644.342H392.748V651.887H103.954V644.342ZM103.954 632.201H392.748V639.746H103.954V632.201ZM103.954 620.637H392.748V628.183H103.954V620.637ZM55.0986 248.298H392.748V255.814H55.0986V248.298Z" fill="#A3A3A3"/>
<path fill-rule="evenodd" clip-rule="evenodd" d="M59.0421 269.134H389.089C389.605 269.134 390.117 269.235 390.595 269.433C391.072 269.631 391.506 269.92 391.871 270.286C392.236 270.651 392.526 271.085 392.724 271.562C392.922 272.039 393.024 272.551 393.024 273.067V603.077C393.024 604.12 392.609 605.121 391.872 605.859C391.134 606.597 390.133 607.011 389.09 607.011H59.0414C57.9979 607.011 56.9972 606.597 56.2593 605.859C55.5215 605.121 55.1069 604.12 55.1069 603.077V273.067C55.1071 272.024 55.5217 271.024 56.2596 270.286C56.9974 269.548 57.998 269.134 59.0414 269.134H59.0421Z" fill="white"/>
<path d="M73.5082 618.556C73.1769 618.576 72.853 618.662 72.5556 618.809L59.6582 624.959C59.326 625.117 59.0339 625.348 58.8037 625.635C58.5734 625.922 58.4109 626.257 58.3284 626.616L55.1702 640.422C55.0948 640.743 55.0867 641.076 55.1464 641.4C55.2061 641.724 55.3323 642.032 55.5171 642.305C55.5619 642.372 55.6081 642.437 55.6565 642.499L64.5675 653.577C65.038 654.155 65.7456 654.488 66.4907 654.485H80.783C81.1516 654.483 81.5153 654.4 81.8481 654.241C82.1809 654.082 82.4746 653.852 82.7083 653.567L91.6149 642.486C92.0818 641.908 92.2567 641.144 92.0775 640.419L88.8997 626.603C88.8167 626.244 88.6541 625.909 88.4239 625.622C88.1937 625.335 87.9018 625.104 87.5699 624.946L74.692 618.81C74.3209 618.627 73.9099 618.54 73.4966 618.557L73.5082 618.556Z" fill="#4A4A4A"/>
<path d="M73.6269 623.259C73.1832 623.29 72.8464 623.671 72.8695 624.115V624.332C72.8897 624.579 72.9273 624.823 72.9757 625.065C73.0466 625.527 73.0726 625.997 73.0523 626.465C73.0079 626.62 72.9201 626.758 72.7994 626.864L72.7828 627.191C72.3137 627.23 71.8483 627.302 71.3901 627.406C69.4613 627.84 67.7065 628.842 66.3514 630.281L66.0739 630.085C65.9983 630.108 65.919 630.115 65.8405 630.107C65.762 630.099 65.6858 630.076 65.6164 630.039C65.2408 629.76 64.8933 629.447 64.5786 629.101C64.4204 628.912 64.2515 628.732 64.0727 628.563L63.9014 628.427C63.749 628.305 63.5618 628.234 63.3666 628.225C63.25 628.218 63.1335 628.24 63.0268 628.287C62.92 628.334 62.826 628.406 62.7523 628.497C62.6268 628.673 62.5762 628.892 62.6115 629.105C62.6469 629.318 62.7654 629.508 62.9409 629.635L63.1006 629.762C63.3066 629.899 63.5198 630.023 63.7395 630.135C64.1521 630.363 64.5393 630.635 64.8944 630.945C64.9862 631.076 65.0397 631.23 65.0483 631.39L65.3013 631.621C63.9394 633.665 63.3796 636.14 63.7294 638.571L63.4049 638.663C63.321 638.797 63.2082 638.911 63.0746 638.996C62.6226 639.117 62.1598 639.194 61.6928 639.225C61.445 639.23 61.1976 639.249 60.952 639.283L60.7468 639.329H60.7251C60.583 639.349 60.4493 639.408 60.3386 639.499C60.228 639.59 60.1448 639.71 60.0984 639.846C60.052 639.982 60.0441 640.128 60.0756 640.267C60.1071 640.407 60.1769 640.536 60.277 640.638C60.483 640.847 60.7901 640.92 61.0684 640.829H61.0828L61.2924 640.806C61.5278 640.736 61.7587 640.651 61.9841 640.553C62.4184 640.379 62.8686 640.248 63.3283 640.161C63.488 640.17 63.6412 640.224 63.7706 640.317L64.1175 640.259C64.8695 642.593 66.4507 644.57 68.5622 645.817L68.4205 646.112C68.4855 646.247 68.5094 646.398 68.4899 646.547C68.2985 646.99 68.0647 647.413 67.7917 647.811C67.642 648.008 67.5037 648.214 67.3776 648.427L67.2793 648.635C67.208 648.759 67.1723 648.9 67.1761 649.043C67.1798 649.186 67.223 649.325 67.3007 649.444C67.3785 649.564 67.4878 649.66 67.6166 649.722C67.7455 649.784 67.8889 649.808 68.031 649.794C68.3222 649.761 68.5694 649.568 68.6713 649.294L68.7674 649.097C68.8556 648.866 68.9293 648.629 68.99 648.392C69.1945 647.886 69.3058 647.343 69.5855 647.008C69.677 646.921 69.7923 646.865 69.9165 646.845L70.09 646.529C72.3783 647.409 74.9103 647.415 77.2029 646.547L77.3568 646.842C77.514 646.866 77.6554 646.951 77.75 647.079C77.9675 647.493 78.1438 647.927 78.2775 648.375C78.339 648.615 78.4148 648.851 78.5023 649.082L78.5984 649.279C78.649 649.413 78.7355 649.53 78.8485 649.618C78.9615 649.705 79.0964 649.76 79.2385 649.776C79.3806 649.791 79.5242 649.767 79.6536 649.707C79.783 649.646 79.893 649.55 79.9716 649.431C80.1306 649.185 80.1378 648.872 79.9903 648.619L79.8892 648.411C79.7633 648.199 79.6253 647.994 79.4758 647.797C79.2099 647.41 78.9777 647 78.782 646.573C78.7633 646.495 78.7606 646.414 78.774 646.334C78.7874 646.255 78.8167 646.179 78.86 646.111C78.8106 646.01 78.7676 645.906 78.7314 645.8C80.8381 644.544 82.412 642.56 83.1558 640.222L83.4839 640.28C83.6018 640.173 83.7568 640.115 83.9161 640.12C84.375 640.208 84.8253 640.352 85.2603 640.513C85.4865 640.618 85.7178 640.706 85.9527 640.78C86.0083 640.795 86.09 640.808 86.1514 640.823H86.1666C86.3032 640.867 86.4494 640.872 86.5889 640.838C86.7284 640.804 86.8557 640.732 86.9566 640.63C87.0576 640.528 87.1282 640.4 87.1606 640.26C87.193 640.12 87.1859 639.974 87.1401 639.838C87.0934 639.702 87.0098 639.582 86.8988 639.491C86.7878 639.4 86.6537 639.341 86.5114 639.322L86.2873 639.269C86.0412 639.235 85.7934 639.216 85.5451 639.211C85.0781 639.181 84.6152 639.105 84.1633 638.983C84.024 638.904 83.9089 638.789 83.8308 638.65L83.5179 638.557C83.8509 636.127 83.2799 633.659 81.9135 631.623L82.1867 631.37C82.1758 631.211 82.2277 631.054 82.3312 630.932C82.686 630.628 83.0694 630.358 83.476 630.127C83.6964 630.015 83.9096 629.89 84.1148 629.754L84.284 629.616C84.3773 629.559 84.4574 629.482 84.5189 629.391C84.5804 629.3 84.6219 629.198 84.6407 629.09C84.6596 628.982 84.6552 628.871 84.6281 628.764C84.6009 628.658 84.5515 628.559 84.4832 628.473C84.4148 628.387 84.329 628.317 84.2315 628.267C84.1339 628.217 84.0269 628.188 83.9173 628.182C83.8078 628.176 83.6983 628.194 83.5961 628.234C83.4938 628.273 83.4012 628.334 83.3242 628.412L83.1529 628.55C82.9742 628.719 82.8053 628.899 82.647 629.087C82.342 629.437 82.0038 629.755 81.6374 630.039C81.4893 630.099 81.3273 630.117 81.1698 630.09L80.8771 630.299C79.1867 628.528 76.9107 627.43 74.4717 627.209C74.4717 627.093 74.4573 626.92 74.4544 626.866C74.3229 626.776 74.232 626.638 74.2015 626.481C74.1855 626.014 74.2151 625.547 74.2896 625.086C74.3402 624.842 74.3742 624.599 74.3966 624.353V624.122C74.4079 623.908 74.3346 623.698 74.1927 623.538C74.0507 623.378 73.8513 623.28 73.6377 623.265L73.6276 623.259L73.6269 623.259ZM72.6621 629.236L72.4308 633.278H72.4135C72.4064 633.401 72.3671 633.519 72.2996 633.622C72.2321 633.724 72.1387 633.807 72.029 633.862C71.9192 633.918 71.7958 633.941 71.673 633.93C71.5503 633.919 71.4332 633.874 71.3352 633.799L68.0194 631.45C69.075 630.414 70.3991 629.693 71.8425 629.369C72.1126 629.311 72.3854 629.267 72.6599 629.236H72.6621V629.236ZM74.5917 629.236C76.3334 629.452 77.9552 630.235 79.2098 631.462L75.9258 633.796C75.8264 633.876 75.7066 633.926 75.5801 633.941C75.4536 633.955 75.3254 633.934 75.2103 633.88C75.0951 633.825 74.9976 633.74 74.9289 633.632C74.8601 633.525 74.8229 633.401 74.8215 633.273L74.5924 629.236L74.5917 629.236ZM66.8154 632.971L69.8479 635.676V635.693C69.9402 635.774 70.0088 635.878 70.0466 635.995C70.0844 636.112 70.0899 636.237 70.0625 636.357C70.0351 636.476 69.9758 636.586 69.891 636.675C69.8061 636.764 69.6988 636.828 69.5804 636.861V636.872L65.6894 637.991C65.4967 636.238 65.8934 634.471 66.8168 632.968L66.8154 632.971ZM80.4167 632.971C81.3381 634.469 81.7454 636.227 81.5767 637.977L77.6798 636.855V636.84C77.5611 636.808 77.4533 636.744 77.3682 636.655C77.2831 636.567 77.2239 636.456 77.1971 636.336C77.17 636.216 77.1757 636.091 77.2136 635.974C77.2515 635.857 77.3202 635.753 77.4124 635.671L80.4211 632.98L80.4167 632.971ZM73.0061 635.887H74.2463L75.0051 636.849L74.729 638.053L73.6146 638.587L72.498 638.053L72.235 636.849L73.0061 635.887ZM76.9795 639.171C77.0314 639.165 77.0838 639.165 77.1356 639.171L81.1481 639.847C80.5615 641.517 79.4306 642.94 77.9371 643.889L76.3862 640.135C76.3437 640.035 76.3259 639.925 76.3345 639.816C76.343 639.707 76.3776 639.602 76.4353 639.509C76.4931 639.416 76.5722 639.339 76.6662 639.283C76.7601 639.227 76.8661 639.194 76.9752 639.188L76.9795 639.171ZM70.241 639.188C70.3526 639.19 70.4621 639.219 70.5597 639.273C70.6574 639.327 70.7403 639.404 70.8011 639.498C70.8618 639.591 70.8985 639.698 70.9079 639.809C70.9174 639.92 70.8993 640.032 70.8553 640.134V640.148L69.3145 643.873C67.8392 642.927 66.7172 641.521 66.1223 639.872L70.1001 639.198C70.1448 639.193 70.1898 639.193 70.2345 639.198L70.2417 639.188H70.241ZM73.6016 640.807C73.8596 640.8 74.1003 640.937 74.2231 641.164H74.2376L76.1983 644.702L75.4149 644.933C73.9726 645.263 72.467 645.185 71.0663 644.709L73.0336 641.171C73.0923 641.069 73.1764 640.984 73.2777 640.924C73.379 640.864 73.4941 640.832 73.6117 640.829L73.6016 640.808V640.807Z" fill="white" stroke="white" stroke-width="0.361354"/>
<path fill-rule="evenodd" clip-rule="evenodd" d="M782.721 244.829V654.171C782.721 659.599 778.316 664 772.884 664H426.866C421.435 664 417.03 659.599 417.03 654.171V244.829C417.03 239.401 421.434 235 426.866 235H772.884C778.316 235 782.721 239.401 782.721 244.829Z" fill="#D2D2D2"/>
<path fill-rule="evenodd" clip-rule="evenodd" d="M479.762 644.342H768.557V651.887H479.762V644.342ZM479.762 632.201H768.557V639.746H479.762V632.201ZM479.762 620.637H768.557V628.183H479.762V620.637ZM430.907 248.298H768.557V255.814H430.907V248.298Z" fill="#A3A3A3"/>
<path fill-rule="evenodd" clip-rule="evenodd" d="M434.85 269.134H764.897C765.414 269.134 765.925 269.235 766.403 269.433C766.88 269.631 767.314 269.92 767.679 270.286C768.045 270.651 768.335 271.085 768.532 271.562C768.73 272.039 768.832 272.551 768.832 273.067V603.077C768.832 604.12 768.418 605.121 767.68 605.859C766.942 606.597 765.941 607.011 764.898 607.011H434.849C433.806 607.011 432.805 606.597 432.067 605.859C431.33 605.121 430.915 604.12 430.915 603.077V273.067C430.915 272.024 431.33 271.024 432.068 270.286C432.805 269.548 433.806 269.134 434.849 269.134H434.85Z" fill="white"/>
<path d="M449.316 618.556C448.985 618.576 448.661 618.662 448.364 618.809L435.466 624.959C435.134 625.117 434.842 625.348 434.612 625.635C434.382 625.922 434.219 626.257 434.136 626.616L430.978 640.422C430.903 640.743 430.895 641.076 430.955 641.4C431.014 641.724 431.14 642.032 431.325 642.305C431.37 642.372 431.416 642.437 431.465 642.499L440.376 653.577C440.846 654.155 441.554 654.488 442.299 654.485H456.591C456.96 654.483 457.323 654.4 457.656 654.241C457.989 654.082 458.283 653.852 458.516 653.567L467.423 642.486C467.89 641.908 468.065 641.144 467.886 640.419L464.708 626.603C464.625 626.244 464.462 625.909 464.232 625.622C464.002 625.335 463.71 625.104 463.378 624.946L450.5 618.81C450.129 618.627 449.718 618.54 449.305 618.557L449.316 618.556Z" fill="#4A4A4A"/>
<path d="M449.436 623.259C448.993 623.29 448.656 623.671 448.679 624.115V624.332C448.699 624.579 448.737 624.823 448.785 625.065C448.856 625.527 448.882 625.997 448.862 626.465C448.817 626.62 448.73 626.758 448.609 626.864L448.592 627.191C448.123 627.23 447.658 627.302 447.2 627.406C445.271 627.84 443.516 628.842 442.161 630.281L441.883 630.085C441.808 630.108 441.729 630.115 441.65 630.107C441.572 630.099 441.495 630.076 441.426 630.039C441.05 629.76 440.703 629.447 440.388 629.101C440.23 628.912 440.061 628.732 439.882 628.563L439.711 628.427C439.559 628.305 439.371 628.234 439.176 628.225C439.06 628.218 438.943 628.24 438.836 628.287C438.73 628.334 438.636 628.406 438.562 628.497C438.436 628.673 438.386 628.892 438.421 629.105C438.456 629.318 438.575 629.508 438.75 629.635L438.91 629.762C439.116 629.899 439.329 630.023 439.549 630.135C439.962 630.363 440.349 630.635 440.704 630.945C440.796 631.076 440.849 631.23 440.858 631.39L441.111 631.621C439.749 633.665 439.189 636.14 439.539 638.571L439.214 638.663C439.131 638.797 439.018 638.911 438.884 638.996C438.432 639.117 437.969 639.194 437.502 639.225C437.255 639.23 437.007 639.249 436.762 639.283L436.556 639.329H436.535C436.393 639.349 436.259 639.408 436.148 639.499C436.038 639.59 435.954 639.71 435.908 639.846C435.862 639.982 435.854 640.128 435.885 640.267C435.917 640.407 435.986 640.536 436.087 640.638C436.293 640.847 436.6 640.92 436.878 640.829H436.892L437.102 640.806C437.337 640.736 437.568 640.651 437.794 640.553C438.228 640.379 438.678 640.248 439.138 640.161C439.298 640.17 439.451 640.224 439.58 640.317L439.927 640.259C440.679 642.593 442.26 644.57 444.372 645.817L444.23 646.112C444.295 646.247 444.319 646.398 444.299 646.547C444.108 646.99 443.874 647.413 443.601 647.811C443.452 648.008 443.313 648.214 443.187 648.427L443.089 648.635C443.018 648.759 442.982 648.9 442.986 649.043C442.989 649.186 443.033 649.325 443.11 649.444C443.188 649.564 443.297 649.66 443.426 649.722C443.555 649.784 443.698 649.808 443.841 649.794C444.132 649.761 444.379 649.568 444.481 649.294L444.577 649.097C444.665 648.866 444.739 648.629 444.8 648.392C445.004 647.886 445.115 647.343 445.395 647.008C445.487 646.921 445.602 646.865 445.726 646.845L445.9 646.529C448.188 647.409 450.72 647.415 453.012 646.547L453.166 646.842C453.324 646.866 453.465 646.951 453.56 647.079C453.777 647.493 453.953 647.927 454.087 648.375C454.149 648.615 454.224 648.851 454.312 649.082L454.408 649.279C454.459 649.413 454.545 649.53 454.658 649.618C454.771 649.705 454.906 649.76 455.048 649.776C455.19 649.791 455.334 649.767 455.463 649.707C455.593 649.646 455.703 649.55 455.781 649.431C455.94 649.185 455.947 648.872 455.8 648.619L455.699 648.411C455.573 648.199 455.435 647.994 455.285 647.797C455.019 647.41 454.787 647 454.592 646.573C454.573 646.495 454.57 646.414 454.584 646.334C454.597 646.255 454.626 646.179 454.67 646.111C454.62 646.01 454.577 645.906 454.541 645.8C456.648 644.544 458.222 642.56 458.965 640.222L459.293 640.28C459.411 640.173 459.566 640.115 459.726 640.12C460.185 640.208 460.635 640.352 461.07 640.513C461.296 640.618 461.527 640.706 461.762 640.78C461.818 640.795 461.9 640.808 461.961 640.823H461.976C462.113 640.867 462.259 640.872 462.399 640.838C462.538 640.804 462.665 640.732 462.766 640.63C462.867 640.528 462.938 640.4 462.97 640.26C463.003 640.12 462.995 639.974 462.95 639.838C462.903 639.702 462.819 639.582 462.708 639.491C462.597 639.4 462.463 639.341 462.321 639.322L462.097 639.269C461.851 639.235 461.603 639.216 461.355 639.211C460.888 639.181 460.425 639.105 459.973 638.983C459.834 638.904 459.719 638.789 459.64 638.65L459.327 638.557C459.66 636.127 459.089 633.659 457.723 631.623L457.996 631.37C457.985 631.211 458.037 631.054 458.141 630.932C458.496 630.628 458.879 630.358 459.286 630.127C459.506 630.015 459.719 629.89 459.924 629.754L460.094 629.616C460.187 629.559 460.267 629.482 460.328 629.391C460.39 629.3 460.431 629.198 460.45 629.09C460.469 628.982 460.465 628.871 460.438 628.764C460.41 628.658 460.361 628.559 460.293 628.473C460.224 628.387 460.139 628.317 460.041 628.267C459.944 628.217 459.836 628.188 459.727 628.182C459.617 628.176 459.508 628.194 459.406 628.234C459.303 628.273 459.211 628.334 459.134 628.412L458.962 628.55C458.784 628.719 458.615 628.899 458.457 629.087C458.152 629.437 457.813 629.755 457.447 630.039C457.299 630.099 457.137 630.117 456.979 630.09L456.687 630.299C454.996 628.528 452.72 627.43 450.281 627.209C450.281 627.093 450.267 626.92 450.264 626.866C450.132 626.776 450.042 626.638 450.011 626.481C449.995 626.014 450.025 625.547 450.099 625.086C450.15 624.842 450.184 624.599 450.206 624.353V624.122C450.217 623.908 450.144 623.698 450.002 623.538C449.86 623.378 449.661 623.28 449.447 623.265L449.437 623.259L449.436 623.259ZM448.472 629.236L448.24 633.278H448.223C448.216 633.401 448.177 633.519 448.109 633.622C448.042 633.724 447.948 633.807 447.839 633.862C447.729 633.918 447.605 633.941 447.483 633.93C447.36 633.919 447.243 633.874 447.145 633.799L443.829 631.45C444.885 630.414 446.209 629.693 447.652 629.369C447.922 629.311 448.195 629.267 448.469 629.236H448.472V629.236ZM450.401 629.236C452.143 629.452 453.765 630.235 455.019 631.462L451.735 633.796C451.636 633.876 451.516 633.926 451.39 633.941C451.263 633.955 451.135 633.934 451.02 633.88C450.905 633.825 450.807 633.74 450.738 633.632C450.67 633.525 450.633 633.401 450.631 633.273L450.402 629.236L450.401 629.236ZM442.625 632.971L445.657 635.676V635.693C445.75 635.774 445.818 635.878 445.856 635.995C445.894 636.112 445.899 636.237 445.872 636.357C445.845 636.476 445.785 636.586 445.701 636.675C445.616 636.764 445.508 636.828 445.39 636.861V636.872L441.499 637.991C441.306 636.238 441.703 634.471 442.626 632.968L442.625 632.971ZM456.226 632.971C457.148 634.469 457.555 636.227 457.386 637.977L453.489 636.855V636.84C453.371 636.808 453.263 636.744 453.178 636.655C453.093 636.567 453.033 636.456 453.007 636.336C452.98 636.216 452.985 636.091 453.023 635.974C453.061 635.857 453.13 635.753 453.222 635.671L456.231 632.98L456.226 632.971ZM448.816 635.887H450.056L450.815 636.849L450.539 638.053L449.424 638.587L448.308 638.053L448.045 636.849L448.816 635.887ZM452.789 639.171C452.841 639.165 452.893 639.165 452.945 639.171L456.958 639.847C456.371 641.517 455.24 642.94 453.747 643.889L452.196 640.135C452.153 640.035 452.136 639.925 452.144 639.816C452.153 639.707 452.187 639.602 452.245 639.509C452.303 639.416 452.382 639.339 452.476 639.283C452.57 639.227 452.676 639.194 452.785 639.188L452.789 639.171ZM446.051 639.188C446.162 639.19 446.272 639.219 446.369 639.273C446.467 639.327 446.55 639.404 446.611 639.498C446.671 639.591 446.708 639.698 446.718 639.809C446.727 639.92 446.709 640.032 446.665 640.134V640.148L445.124 643.873C443.649 642.927 442.527 641.521 441.932 639.872L445.91 639.198C445.954 639.193 445.999 639.193 446.044 639.198L446.051 639.188H446.051ZM449.411 640.807C449.669 640.8 449.91 640.937 450.033 641.164H450.047L452.008 644.702L451.224 644.933C449.782 645.263 448.277 645.185 446.876 644.709L448.843 641.171C448.902 641.069 448.986 640.984 449.087 640.924C449.189 640.864 449.304 640.832 449.421 640.829L449.411 640.808V640.807Z" fill="white" stroke="white" stroke-width="0.361354"/>
<rect x="444.87" y="507.595" width="195.975" height="80.925" fill="#F1C40F"/>
<path fill-rule="evenodd" clip-rule="evenodd" d="M1158 244.829V654.171C1158 659.599 1153.59 664 1148.16 664H802.144C796.713 664 792.308 659.599 792.308 654.171V244.829C792.308 239.401 796.712 235 802.144 235H1148.16C1153.59 235 1158 239.401 1158 244.829Z" fill="#D2D2D2"/>
<path fill-rule="evenodd" clip-rule="evenodd" d="M855.041 644.342H1143.84V651.887H855.041V644.342ZM855.041 632.201H1143.84V639.746H855.041V632.201ZM855.041 620.637H1143.84V628.183H855.041V620.637ZM806.186 248.298H1143.84V255.814H806.186V248.298Z" fill="#A3A3A3"/>
<path fill-rule="evenodd" clip-rule="evenodd" d="M810.129 269.134H1140.18C1140.69 269.134 1141.2 269.235 1141.68 269.433C1142.16 269.631 1142.59 269.92 1142.96 270.286C1143.32 270.651 1143.61 271.085 1143.81 271.562C1144.01 272.039 1144.11 272.551 1144.11 273.067V603.077C1144.11 604.12 1143.7 605.121 1142.96 605.859C1142.22 606.597 1141.22 607.011 1140.18 607.011H810.128C809.085 607.011 808.084 606.597 807.346 605.859C806.608 605.121 806.194 604.12 806.194 603.077V273.067C806.194 272.024 806.609 271.024 807.346 270.286C808.084 269.548 809.085 269.134 810.128 269.134H810.129Z" fill="white"/>
<path d="M824.595 618.556C824.264 618.576 823.94 618.662 823.643 618.809L810.745 624.959C810.413 625.117 810.121 625.348 809.891 625.635C809.66 625.922 809.498 626.257 809.415 626.616L806.257 640.422C806.182 640.743 806.174 641.076 806.233 641.4C806.293 641.724 806.419 642.032 806.604 642.305C806.649 642.372 806.695 642.437 806.743 642.499L815.654 653.577C816.125 654.155 816.832 654.488 817.578 654.485H831.87C832.239 654.483 832.602 654.4 832.935 654.241C833.268 654.082 833.562 653.852 833.795 653.567L842.702 642.486C843.169 641.908 843.344 641.144 843.164 640.419L839.987 626.603C839.904 626.244 839.741 625.909 839.511 625.622C839.281 625.335 838.989 625.104 838.657 624.946L825.779 618.81C825.408 618.627 824.997 618.54 824.584 618.557L824.595 618.556Z" fill="#4A4A4A"/>
<path d="M824.715 623.259C824.272 623.29 823.935 623.671 823.958 624.115V624.332C823.978 624.579 824.016 624.823 824.064 625.065C824.135 625.527 824.161 625.997 824.141 626.465C824.096 626.62 824.008 626.758 823.888 626.864L823.871 627.191C823.402 627.23 822.937 627.302 822.478 627.406C820.55 627.84 818.795 628.842 817.44 630.281L817.162 630.085C817.087 630.108 817.007 630.115 816.929 630.107C816.85 630.099 816.774 630.076 816.705 630.039C816.329 629.76 815.982 629.447 815.667 629.101C815.509 628.912 815.34 628.732 815.161 628.563L814.99 628.427C814.837 628.305 814.65 628.234 814.455 628.225C814.338 628.218 814.222 628.24 814.115 628.287C814.008 628.334 813.914 628.406 813.841 628.497C813.715 628.673 813.665 628.892 813.7 629.105C813.735 629.318 813.854 629.508 814.029 629.635L814.189 629.762C814.395 629.899 814.608 630.023 814.828 630.135C815.241 630.363 815.628 630.635 815.983 630.945C816.075 631.076 816.128 631.23 816.137 631.39L816.39 631.621C815.028 633.665 814.468 636.14 814.818 638.571L814.493 638.663C814.409 638.797 814.297 638.911 814.163 638.996C813.711 639.117 813.248 639.194 812.781 639.225C812.533 639.23 812.286 639.249 812.04 639.283L811.835 639.329H811.813C811.671 639.349 811.538 639.408 811.427 639.499C811.316 639.59 811.233 639.71 811.187 639.846C811.14 639.982 811.132 640.128 811.164 640.267C811.196 640.407 811.265 640.536 811.365 640.638C811.571 640.847 811.879 640.92 812.157 640.829H812.171L812.381 640.806C812.616 640.736 812.847 640.651 813.072 640.553C813.507 640.379 813.957 640.248 814.417 640.161C814.576 640.17 814.73 640.224 814.859 640.317L815.206 640.259C815.958 642.593 817.539 644.57 819.651 645.817L819.509 646.112C819.574 646.247 819.598 646.398 819.578 646.547C819.387 646.99 819.153 647.413 818.88 647.811C818.73 648.008 818.592 648.214 818.466 648.427L818.368 648.635C818.296 648.759 818.261 648.9 818.264 649.043C818.268 649.186 818.311 649.325 818.389 649.444C818.467 649.564 818.576 649.66 818.705 649.722C818.834 649.784 818.977 649.808 819.119 649.794C819.411 649.761 819.658 649.568 819.76 649.294L819.856 649.097C819.944 648.866 820.018 648.629 820.078 648.392C820.283 647.886 820.394 647.343 820.674 647.008C820.765 646.921 820.881 646.865 821.005 646.845L821.178 646.529C823.467 647.409 825.999 647.415 828.291 646.547L828.445 646.842C828.602 646.866 828.744 646.951 828.838 647.079C829.056 647.493 829.232 647.927 829.366 648.375C829.427 648.615 829.503 648.851 829.591 649.082L829.687 649.279C829.737 649.413 829.824 649.53 829.937 649.618C830.05 649.705 830.185 649.76 830.327 649.776C830.469 649.791 830.613 649.767 830.742 649.707C830.871 649.646 830.981 649.55 831.06 649.431C831.219 649.185 831.226 648.872 831.079 648.619L830.978 648.411C830.852 648.199 830.714 647.994 830.564 647.797C830.298 647.41 830.066 647 829.87 646.573C829.852 646.495 829.849 646.414 829.862 646.334C829.876 646.255 829.905 646.179 829.948 646.111C829.899 646.01 829.856 645.906 829.82 645.8C831.927 644.544 833.5 642.56 834.244 640.222L834.572 640.28C834.69 640.173 834.845 640.115 835.004 640.12C835.463 640.208 835.914 640.352 836.349 640.513C836.575 640.618 836.806 640.706 837.041 640.78C837.097 640.795 837.178 640.808 837.24 640.823H837.255C837.392 640.867 837.538 640.872 837.677 640.838C837.817 640.804 837.944 640.732 838.045 640.63C838.146 640.528 838.217 640.4 838.249 640.26C838.281 640.12 838.274 639.974 838.228 639.838C838.182 639.702 838.098 639.582 837.987 639.491C837.876 639.4 837.742 639.341 837.6 639.322L837.376 639.269C837.13 639.235 836.882 639.216 836.633 639.211C836.166 639.181 835.704 639.105 835.252 638.983C835.112 638.904 834.997 638.789 834.919 638.65L834.606 638.557C834.939 636.127 834.368 633.659 833.002 631.623L833.275 631.37C833.264 631.211 833.316 631.054 833.42 630.932C833.774 630.628 834.158 630.358 834.564 630.127C834.785 630.015 834.998 629.89 835.203 629.754L835.372 629.616C835.466 629.559 835.546 629.482 835.607 629.391C835.669 629.3 835.71 629.198 835.729 629.09C835.748 628.982 835.744 628.871 835.716 628.764C835.689 628.658 835.64 628.559 835.572 628.473C835.503 628.387 835.417 628.317 835.32 628.267C835.222 628.217 835.115 628.188 835.006 628.182C834.896 628.176 834.787 628.194 834.684 628.234C834.582 628.273 834.49 628.334 834.413 628.412L834.241 628.55C834.063 628.719 833.894 628.899 833.735 629.087C833.43 629.437 833.092 629.755 832.726 630.039C832.578 630.099 832.416 630.117 832.258 630.09L831.965 630.299C830.275 628.528 827.999 627.43 825.56 627.209C825.56 627.093 825.546 626.92 825.543 626.866C825.411 626.776 825.32 626.638 825.29 626.481C825.274 626.014 825.303 625.547 825.378 625.086C825.429 624.842 825.463 624.599 825.485 624.353V624.122C825.496 623.908 825.423 623.698 825.281 623.538C825.139 623.378 824.94 623.28 824.726 623.265L824.716 623.259L824.715 623.259ZM823.75 629.236L823.519 633.278H823.502C823.495 633.401 823.455 633.519 823.388 633.622C823.32 633.724 823.227 633.807 823.117 633.862C823.008 633.918 822.884 633.941 822.761 633.93C822.639 633.919 822.522 633.874 822.424 633.799L819.108 631.45C820.163 630.414 821.487 629.693 822.931 629.369C823.201 629.311 823.474 629.267 823.748 629.236H823.75V629.236ZM825.68 629.236C827.422 629.452 829.044 630.235 830.298 631.462L827.014 633.796C826.915 633.876 826.795 633.926 826.668 633.941C826.542 633.955 826.414 633.934 826.299 633.88C826.184 633.825 826.086 633.74 826.017 633.632C825.949 633.525 825.911 633.401 825.91 633.273L825.681 629.236L825.68 629.236ZM817.904 632.971L820.936 635.676V635.693C821.029 635.774 821.097 635.878 821.135 635.995C821.173 636.112 821.178 636.237 821.151 636.357C821.123 636.476 821.064 636.586 820.979 636.675C820.894 636.764 820.787 636.828 820.669 636.861V636.872L816.778 637.991C816.585 636.238 816.982 634.471 817.905 632.968L817.904 632.971ZM831.505 632.971C832.427 634.469 832.834 636.227 832.665 637.977L828.768 636.855V636.84C828.649 636.808 828.542 636.744 828.457 636.655C828.371 636.567 828.312 636.456 828.285 636.336C828.258 636.216 828.264 636.091 828.302 635.974C828.34 635.857 828.409 635.753 828.501 635.671L831.509 632.98L831.505 632.971ZM824.094 635.887H825.335L826.093 636.849L825.817 638.053L824.703 638.587L823.586 638.053L823.323 636.849L824.094 635.887ZM828.068 639.171C828.12 639.165 828.172 639.165 828.224 639.171L832.237 639.847C831.65 641.517 830.519 642.94 829.026 643.889L827.475 640.135C827.432 640.035 827.414 639.925 827.423 639.816C827.431 639.707 827.466 639.602 827.524 639.509C827.581 639.416 827.661 639.339 827.755 639.283C827.848 639.227 827.954 639.194 828.064 639.188L828.068 639.171ZM821.329 639.188C821.441 639.19 821.55 639.219 821.648 639.273C821.746 639.327 821.829 639.404 821.889 639.498C821.95 639.591 821.987 639.698 821.996 639.809C822.006 639.92 821.988 640.032 821.944 640.134V640.148L820.403 643.873C818.928 642.927 817.806 641.521 817.211 639.872L821.188 639.198C821.233 639.193 821.278 639.193 821.323 639.198L821.33 639.188H821.329ZM824.69 640.807C824.948 640.8 825.189 640.937 825.312 641.164H825.326L827.287 644.702L826.503 644.933C825.061 645.263 823.555 645.185 822.155 644.709L824.122 641.171C824.181 641.069 824.265 640.984 824.366 640.924C824.467 640.864 824.582 640.832 824.7 640.829L824.69 640.808V640.807Z" fill="white" stroke="white" stroke-width="0.361354"/>
<rect x="820" y="508" width="195.975" height="80.925" fill="#F1C40F"/>
<rect x="1049.27" y="507.595" width="80.925" height="80.925" fill="#8FBE00"/>
<rect x="674" y="508" width="80.925" height="80.925" fill="#8FBE00"/>
<rect x="298" y="508" width="80.925" height="80.925" fill="#8FBE00"/>
<rect x="71" y="508" width="195.975" height="80.925" fill="#F1C40F"/>
</svg>
