<svg width="1200" height="900" viewBox="0 0 1200 900" fill="none" xmlns="http://www.w3.org/2000/svg">
<path fill-rule="evenodd" clip-rule="evenodd" d="M406.911 244.829V654.171C406.911 659.599 402.507 664 397.075 664H51.056C45.6249 664 41.22 659.599 41.22 654.171V244.829C41.22 239.401 45.6242 235 51.056 235H397.075C402.506 235 406.911 239.401 406.911 244.829Z" fill="#D2D2D2"/>
<path fill-rule="evenodd" clip-rule="evenodd" d="M103.954 644.342H392.749V651.887H103.954V644.342ZM103.954 632.201H392.749V639.746H103.954V632.201ZM103.954 620.637H392.749V628.183H103.954V620.637ZM55.0989 248.298H392.749V255.814H55.0989V248.298Z" fill="#A3A3A3"/>
<path fill-rule="evenodd" clip-rule="evenodd" d="M59.0418 269.134H389.089C389.605 269.134 390.117 269.235 390.594 269.433C391.072 269.631 391.505 269.92 391.871 270.286C392.236 270.651 392.526 271.085 392.724 271.562C392.922 272.039 393.024 272.551 393.024 273.067V603.077C393.024 604.12 392.609 605.121 391.871 605.859C391.133 606.597 390.133 607.011 389.089 607.011H59.0411C57.9976 607.011 56.9969 606.597 56.2591 605.859C55.5212 605.121 55.1067 604.12 55.1067 603.077V273.067C55.1069 272.024 55.5215 271.024 56.2593 270.286C56.9971 269.548 57.9978 269.134 59.0411 269.134H59.0418Z" fill="white"/>
<path d="M73.5079 618.556C73.1767 618.576 72.8528 618.662 72.5554 618.809L59.6579 624.959C59.3258 625.117 59.0337 625.348 58.8034 625.635C58.5732 625.922 58.4107 626.257 58.3281 626.616L55.1699 640.422C55.0946 640.743 55.0865 641.076 55.1462 641.4C55.2059 641.724 55.3321 642.032 55.5168 642.305C55.5616 642.372 55.6079 642.437 55.6563 642.499L64.5673 653.577C65.0378 654.155 65.7453 654.488 66.4904 654.485H80.7827C81.1514 654.483 81.5151 654.4 81.8479 654.241C82.1807 654.082 82.4744 653.852 82.708 653.567L91.6147 642.486C92.0815 641.908 92.2564 641.144 92.0772 640.419L88.8995 626.603C88.8165 626.244 88.6538 625.909 88.4236 625.622C88.1934 625.335 87.9015 625.104 87.5697 624.946L74.6917 618.81C74.3206 618.627 73.9097 618.54 73.4964 618.557L73.5079 618.556Z" fill="#4A4A4A"/>
<path d="M73.6266 623.259C73.1829 623.29 72.8461 623.671 72.8693 624.115V624.332C72.8895 624.579 72.9271 624.823 72.9755 625.065C73.0463 625.527 73.0723 625.997 73.0521 626.465C73.0076 626.62 72.9198 626.758 72.7992 626.864L72.7825 627.191C72.3135 627.23 71.8481 627.302 71.3899 627.406C69.4611 627.84 67.7063 628.842 66.3511 630.281L66.0736 630.085C65.9981 630.108 65.9188 630.115 65.8403 630.107C65.7618 630.099 65.6856 630.076 65.6161 630.039C65.2406 629.76 64.893 629.447 64.5783 629.101C64.4202 628.912 64.2513 628.732 64.0724 628.563L63.9012 628.427C63.7487 628.305 63.5615 628.234 63.3664 628.225C63.2497 628.218 63.1333 628.24 63.0265 628.287C62.9198 628.334 62.8257 628.406 62.7521 628.497C62.6266 628.673 62.5759 628.892 62.6113 629.105C62.6467 629.318 62.7651 629.508 62.9407 629.635L63.1004 629.762C63.3064 629.899 63.5196 630.023 63.7393 630.135C64.1519 630.363 64.5391 630.635 64.8942 630.945C64.9859 631.076 65.0394 631.23 65.0481 631.39L65.301 631.621C63.9391 633.665 63.3794 636.14 63.7292 638.571L63.4047 638.663C63.3208 638.797 63.2079 638.911 63.0744 638.996C62.6223 639.117 62.1595 639.194 61.6926 639.225C61.4447 639.23 61.1974 639.249 60.9518 639.283L60.7465 639.329H60.7249C60.5828 639.349 60.449 639.408 60.3384 639.499C60.2277 639.59 60.1446 639.71 60.0982 639.846C60.0517 639.982 60.0438 640.128 60.0754 640.267C60.1069 640.407 60.1766 640.536 60.2768 640.638C60.4827 640.847 60.7899 640.92 61.0681 640.829H61.0826L61.2922 640.806C61.5275 640.736 61.7585 640.651 61.9838 640.553C62.4181 640.379 62.8683 640.248 63.328 640.161C63.4878 640.17 63.641 640.224 63.7703 640.317L64.1172 640.259C64.8692 642.593 66.4505 644.57 68.5619 645.817L68.4203 646.112C68.4853 646.247 68.5092 646.398 68.4896 646.547C68.2983 646.99 68.0645 647.413 67.7915 647.811C67.6417 648.008 67.5035 648.214 67.3774 648.427L67.2791 648.635C67.2078 648.759 67.172 648.9 67.1758 649.043C67.1796 649.186 67.2227 649.325 67.3005 649.444C67.3782 649.564 67.4875 649.66 67.6164 649.722C67.7453 649.784 67.8886 649.808 68.0307 649.794C68.322 649.761 68.5691 649.568 68.671 649.294L68.7672 649.097C68.8553 648.866 68.929 648.629 68.9897 648.392C69.1943 647.886 69.3056 647.343 69.5853 647.008C69.6767 646.921 69.7921 646.865 69.9163 646.845L70.0897 646.529C72.378 647.409 74.9101 647.415 77.2026 646.547L77.3566 646.842C77.5138 646.866 77.6551 646.951 77.7497 647.079C77.9672 647.493 78.1436 647.927 78.2773 648.375C78.3387 648.615 78.4146 648.851 78.502 649.082L78.5982 649.279C78.6488 649.413 78.7353 649.53 78.8483 649.618C78.9612 649.705 79.0962 649.76 79.2383 649.776C79.3803 649.791 79.524 649.767 79.6534 649.707C79.7827 649.646 79.8928 649.55 79.9713 649.431C80.1303 649.185 80.1375 648.872 79.9901 648.619L79.8889 648.411C79.7631 648.199 79.625 647.994 79.4755 647.797C79.2096 647.41 78.9775 647 78.7817 646.573C78.7631 646.495 78.7604 646.414 78.7738 646.334C78.7872 646.255 78.8165 646.179 78.8598 646.111C78.8104 646.01 78.7674 645.906 78.7311 645.8C80.8379 644.544 82.4118 642.56 83.1556 640.222L83.4837 640.28C83.6016 640.173 83.7565 640.115 83.9159 640.12C84.3748 640.208 84.825 640.352 85.2601 640.513C85.4863 640.618 85.7176 640.706 85.9525 640.78C86.0081 640.795 86.0898 640.808 86.1512 640.823H86.1664C86.303 640.867 86.4492 640.872 86.5887 640.838C86.7282 640.804 86.8555 640.732 86.9564 640.63C87.0573 640.528 87.1279 640.4 87.1603 640.26C87.1927 640.12 87.1856 639.974 87.1399 639.838C87.0931 639.702 87.0096 639.582 86.8986 639.491C86.7876 639.4 86.6534 639.341 86.5111 639.322L86.2871 639.269C86.041 639.235 85.7932 639.216 85.5448 639.211C85.0778 639.181 84.6149 639.105 84.163 638.983C84.0237 638.904 83.9087 638.789 83.8306 638.65L83.5176 638.557C83.8506 636.127 83.2797 633.659 81.9132 631.623L82.1864 631.37C82.1755 631.211 82.2274 631.054 82.331 630.932C82.6858 630.628 83.0691 630.358 83.4757 630.127C83.6962 630.015 83.9094 629.89 84.1146 629.754L84.2837 629.616C84.3771 629.559 84.4571 629.482 84.5186 629.391C84.5801 629.3 84.6217 629.198 84.6405 629.09C84.6593 628.982 84.655 628.871 84.6278 628.764C84.6007 628.658 84.5513 628.559 84.4829 628.473C84.4145 628.387 84.3288 628.317 84.2312 628.267C84.1337 628.217 84.0266 628.188 83.9171 628.182C83.8076 628.176 83.6981 628.194 83.5958 628.234C83.4936 628.273 83.4009 628.334 83.324 628.412L83.1527 628.55C82.974 628.719 82.8051 628.899 82.6468 629.087C82.3418 629.437 82.0036 629.755 81.6372 630.039C81.4891 630.099 81.3271 630.117 81.1696 630.09L80.8769 630.299C79.1864 628.528 76.9104 627.43 74.4715 627.209C74.4715 627.093 74.457 626.92 74.4542 626.866C74.3226 626.776 74.2318 626.638 74.2012 626.481C74.1853 626.014 74.2148 625.547 74.2894 625.086C74.34 624.842 74.3739 624.599 74.3963 624.353V624.122C74.4076 623.908 74.3344 623.698 74.1924 623.538C74.0504 623.378 73.8511 623.28 73.6375 623.265L73.6274 623.259L73.6266 623.259ZM72.6618 629.236L72.4306 633.278H72.4132C72.4061 633.401 72.3669 633.519 72.2994 633.622C72.2318 633.724 72.1385 633.807 72.0287 633.862C71.9189 633.918 71.7955 633.941 71.6728 633.93C71.55 633.919 71.4329 633.874 71.3349 633.799L68.0192 631.45C69.0747 630.414 70.3989 629.693 71.8423 629.369C72.1124 629.311 72.3852 629.267 72.6597 629.236H72.6618V629.236ZM74.5915 629.236C76.3332 629.452 77.955 630.235 79.2096 631.462L75.9256 633.796C75.8262 633.876 75.7064 633.926 75.5799 633.941C75.4533 633.955 75.3252 633.934 75.21 633.88C75.0949 633.825 74.9974 633.74 74.9286 633.632C74.8599 633.525 74.8227 633.401 74.8213 633.273L74.5922 629.236L74.5915 629.236ZM66.8151 632.971L69.8476 635.676V635.693C69.9399 635.774 70.0086 635.878 70.0464 635.995C70.0842 636.112 70.0897 636.237 70.0623 636.357C70.0348 636.476 69.9756 636.586 69.8907 636.675C69.8058 636.764 69.6986 636.828 69.5802 636.861V636.872L65.6891 637.991C65.4965 636.238 65.8931 634.471 66.8166 632.968L66.8151 632.971ZM80.4165 632.971C81.3379 634.469 81.7452 636.227 81.5764 637.977L77.6796 636.855V636.84C77.5608 636.808 77.453 636.744 77.3679 636.655C77.2828 636.567 77.2236 636.456 77.1968 636.336C77.1698 636.216 77.1755 636.091 77.2134 635.974C77.2513 635.857 77.3199 635.753 77.4122 635.671L80.4208 632.98L80.4165 632.971ZM73.0058 635.887H74.246L75.0049 636.849L74.7288 638.053L73.6144 638.587L72.4978 638.053L72.2347 636.849L73.0058 635.887ZM76.9793 639.171C77.0312 639.165 77.0835 639.165 77.1354 639.171L81.1479 639.847C80.5612 641.517 79.4303 642.94 77.9369 643.889L76.386 640.135C76.3434 640.035 76.3257 639.925 76.3342 639.816C76.3428 639.707 76.3774 639.602 76.4351 639.509C76.4928 639.416 76.572 639.339 76.6659 639.283C76.7599 639.227 76.8658 639.194 76.975 639.188L76.9793 639.171ZM70.2408 639.188C70.3524 639.19 70.4618 639.219 70.5595 639.273C70.6571 639.327 70.74 639.404 70.8009 639.498C70.8615 639.591 70.8982 639.698 70.9077 639.809C70.9171 639.92 70.8991 640.032 70.8551 640.134V640.148L69.3142 643.873C67.839 642.927 66.7169 641.521 66.122 639.872L70.0998 639.198C70.1445 639.193 70.1896 639.193 70.2343 639.198L70.2415 639.188H70.2408ZM73.6014 640.807C73.8594 640.8 74.1 640.937 74.2229 641.164H74.2373L76.1981 644.702L75.4146 644.933C73.9724 645.263 72.4668 645.185 71.0661 644.709L73.0333 641.171C73.0921 641.069 73.1762 640.984 73.2775 640.924C73.3788 640.864 73.4938 640.832 73.6115 640.829L73.6014 640.808V640.807Z" fill="white" stroke="white" stroke-width="0.361354"/>
<path fill-rule="evenodd" clip-rule="evenodd" d="M782.721 244.829V654.171C782.721 659.599 778.316 664 772.884 664H426.866C421.435 664 417.03 659.599 417.03 654.171V244.829C417.03 239.401 421.434 235 426.866 235H772.884C778.316 235 782.721 239.401 782.721 244.829Z" fill="#D2D2D2"/>
<path fill-rule="evenodd" clip-rule="evenodd" d="M479.762 644.342H768.557V651.887H479.762V644.342ZM479.762 632.201H768.557V639.746H479.762V632.201ZM479.762 620.637H768.557V628.183H479.762V620.637ZM430.907 248.298H768.557V255.814H430.907V248.298Z" fill="#A3A3A3"/>
<path fill-rule="evenodd" clip-rule="evenodd" d="M434.85 269.134H764.897C765.414 269.134 765.925 269.235 766.403 269.433C766.88 269.631 767.314 269.92 767.679 270.286C768.045 270.651 768.335 271.085 768.532 271.562C768.73 272.039 768.832 272.551 768.832 273.067V603.077C768.832 604.12 768.418 605.121 767.68 605.859C766.942 606.597 765.941 607.011 764.898 607.011H434.849C433.806 607.011 432.805 606.597 432.067 605.859C431.33 605.121 430.915 604.12 430.915 603.077V273.067C430.915 272.024 431.33 271.024 432.068 270.286C432.805 269.548 433.806 269.134 434.849 269.134H434.85Z" fill="white"/>
<path d="M449.316 618.556C448.985 618.576 448.661 618.662 448.364 618.809L435.466 624.959C435.134 625.117 434.842 625.348 434.612 625.635C434.382 625.922 434.219 626.257 434.136 626.616L430.978 640.422C430.903 640.743 430.895 641.076 430.955 641.4C431.014 641.724 431.14 642.032 431.325 642.305C431.37 642.372 431.416 642.437 431.465 642.499L440.376 653.577C440.846 654.155 441.554 654.488 442.299 654.485H456.591C456.96 654.483 457.323 654.4 457.656 654.241C457.989 654.082 458.283 653.852 458.516 653.567L467.423 642.486C467.89 641.908 468.065 641.144 467.886 640.419L464.708 626.603C464.625 626.244 464.462 625.909 464.232 625.622C464.002 625.335 463.71 625.104 463.378 624.946L450.5 618.81C450.129 618.627 449.718 618.54 449.305 618.557L449.316 618.556Z" fill="#4A4A4A"/>
<path d="M449.436 623.259C448.993 623.29 448.656 623.671 448.679 624.115V624.332C448.699 624.579 448.737 624.823 448.785 625.065C448.856 625.527 448.882 625.997 448.862 626.465C448.817 626.62 448.73 626.758 448.609 626.864L448.592 627.191C448.123 627.23 447.658 627.302 447.2 627.406C445.271 627.84 443.516 628.842 442.161 630.281L441.883 630.085C441.808 630.108 441.729 630.115 441.65 630.107C441.572 630.099 441.495 630.076 441.426 630.039C441.05 629.76 440.703 629.447 440.388 629.101C440.23 628.912 440.061 628.732 439.882 628.563L439.711 628.427C439.559 628.305 439.371 628.234 439.176 628.225C439.06 628.218 438.943 628.24 438.836 628.287C438.73 628.334 438.636 628.406 438.562 628.497C438.436 628.673 438.386 628.892 438.421 629.105C438.456 629.318 438.575 629.508 438.75 629.635L438.91 629.762C439.116 629.899 439.329 630.023 439.549 630.135C439.962 630.363 440.349 630.635 440.704 630.945C440.796 631.076 440.849 631.23 440.858 631.39L441.111 631.621C439.749 633.665 439.189 636.14 439.539 638.571L439.214 638.663C439.131 638.797 439.018 638.911 438.884 638.996C438.432 639.117 437.969 639.194 437.502 639.225C437.255 639.23 437.007 639.249 436.762 639.283L436.556 639.329H436.535C436.393 639.349 436.259 639.408 436.148 639.499C436.038 639.59 435.954 639.71 435.908 639.846C435.862 639.982 435.854 640.128 435.885 640.267C435.917 640.407 435.986 640.536 436.087 640.638C436.293 640.847 436.6 640.92 436.878 640.829H436.892L437.102 640.806C437.337 640.736 437.568 640.651 437.794 640.553C438.228 640.379 438.678 640.248 439.138 640.161C439.298 640.17 439.451 640.224 439.58 640.317L439.927 640.259C440.679 642.593 442.26 644.57 444.372 645.817L444.23 646.112C444.295 646.247 444.319 646.398 444.299 646.547C444.108 646.99 443.874 647.413 443.601 647.811C443.452 648.008 443.313 648.214 443.187 648.427L443.089 648.635C443.018 648.759 442.982 648.9 442.986 649.043C442.989 649.186 443.033 649.325 443.11 649.444C443.188 649.564 443.297 649.66 443.426 649.722C443.555 649.784 443.698 649.808 443.841 649.794C444.132 649.761 444.379 649.568 444.481 649.294L444.577 649.097C444.665 648.866 444.739 648.629 444.8 648.392C445.004 647.886 445.115 647.343 445.395 647.008C445.487 646.921 445.602 646.865 445.726 646.845L445.9 646.529C448.188 647.409 450.72 647.415 453.012 646.547L453.166 646.842C453.324 646.866 453.465 646.951 453.56 647.079C453.777 647.493 453.953 647.927 454.087 648.375C454.149 648.615 454.224 648.851 454.312 649.082L454.408 649.279C454.459 649.413 454.545 649.53 454.658 649.618C454.771 649.705 454.906 649.76 455.048 649.776C455.19 649.791 455.334 649.767 455.463 649.707C455.593 649.646 455.703 649.55 455.781 649.431C455.94 649.185 455.947 648.872 455.8 648.619L455.699 648.411C455.573 648.199 455.435 647.994 455.285 647.797C455.019 647.41 454.787 647 454.592 646.573C454.573 646.495 454.57 646.414 454.584 646.334C454.597 646.255 454.626 646.179 454.67 646.111C454.62 646.01 454.577 645.906 454.541 645.8C456.648 644.544 458.222 642.56 458.965 640.222L459.293 640.28C459.411 640.173 459.566 640.115 459.726 640.12C460.185 640.208 460.635 640.352 461.07 640.513C461.296 640.618 461.527 640.706 461.762 640.78C461.818 640.795 461.9 640.808 461.961 640.823H461.976C462.113 640.867 462.259 640.872 462.399 640.838C462.538 640.804 462.665 640.732 462.766 640.63C462.867 640.528 462.938 640.4 462.97 640.26C463.003 640.12 462.995 639.974 462.95 639.838C462.903 639.702 462.819 639.582 462.708 639.491C462.597 639.4 462.463 639.341 462.321 639.322L462.097 639.269C461.851 639.235 461.603 639.216 461.355 639.211C460.888 639.181 460.425 639.105 459.973 638.983C459.834 638.904 459.719 638.789 459.64 638.65L459.327 638.557C459.66 636.127 459.089 633.659 457.723 631.623L457.996 631.37C457.985 631.211 458.037 631.054 458.141 630.932C458.496 630.628 458.879 630.358 459.286 630.127C459.506 630.015 459.719 629.89 459.924 629.754L460.094 629.616C460.187 629.559 460.267 629.482 460.328 629.391C460.39 629.3 460.431 629.198 460.45 629.09C460.469 628.982 460.465 628.871 460.438 628.764C460.41 628.658 460.361 628.559 460.293 628.473C460.224 628.387 460.139 628.317 460.041 628.267C459.944 628.217 459.836 628.188 459.727 628.182C459.617 628.176 459.508 628.194 459.406 628.234C459.303 628.273 459.211 628.334 459.134 628.412L458.962 628.55C458.784 628.719 458.615 628.899 458.457 629.087C458.152 629.437 457.813 629.755 457.447 630.039C457.299 630.099 457.137 630.117 456.979 630.09L456.687 630.299C454.996 628.528 452.72 627.43 450.281 627.209C450.281 627.093 450.267 626.92 450.264 626.866C450.132 626.776 450.042 626.638 450.011 626.481C449.995 626.014 450.025 625.547 450.099 625.086C450.15 624.842 450.184 624.599 450.206 624.353V624.122C450.217 623.908 450.144 623.698 450.002 623.538C449.86 623.378 449.661 623.28 449.447 623.265L449.437 623.259L449.436 623.259ZM448.472 629.236L448.24 633.278H448.223C448.216 633.401 448.177 633.519 448.109 633.622C448.042 633.724 447.948 633.807 447.839 633.862C447.729 633.918 447.605 633.941 447.483 633.93C447.36 633.919 447.243 633.874 447.145 633.799L443.829 631.45C444.885 630.414 446.209 629.693 447.652 629.369C447.922 629.311 448.195 629.267 448.469 629.236H448.472V629.236ZM450.401 629.236C452.143 629.452 453.765 630.235 455.019 631.462L451.735 633.796C451.636 633.876 451.516 633.926 451.39 633.941C451.263 633.955 451.135 633.934 451.02 633.88C450.905 633.825 450.807 633.74 450.738 633.632C450.67 633.525 450.633 633.401 450.631 633.273L450.402 629.236L450.401 629.236ZM442.625 632.971L445.657 635.676V635.693C445.75 635.774 445.818 635.878 445.856 635.995C445.894 636.112 445.899 636.237 445.872 636.357C445.845 636.476 445.785 636.586 445.701 636.675C445.616 636.764 445.508 636.828 445.39 636.861V636.872L441.499 637.991C441.306 636.238 441.703 634.471 442.626 632.968L442.625 632.971ZM456.226 632.971C457.148 634.469 457.555 636.227 457.386 637.977L453.489 636.855V636.84C453.371 636.808 453.263 636.744 453.178 636.655C453.093 636.567 453.033 636.456 453.007 636.336C452.98 636.216 452.985 636.091 453.023 635.974C453.061 635.857 453.13 635.753 453.222 635.671L456.231 632.98L456.226 632.971ZM448.816 635.887H450.056L450.815 636.849L450.539 638.053L449.424 638.587L448.308 638.053L448.045 636.849L448.816 635.887ZM452.789 639.171C452.841 639.165 452.893 639.165 452.945 639.171L456.958 639.847C456.371 641.517 455.24 642.94 453.747 643.889L452.196 640.135C452.153 640.035 452.136 639.925 452.144 639.816C452.153 639.707 452.187 639.602 452.245 639.509C452.303 639.416 452.382 639.339 452.476 639.283C452.57 639.227 452.676 639.194 452.785 639.188L452.789 639.171ZM446.051 639.188C446.162 639.19 446.272 639.219 446.369 639.273C446.467 639.327 446.55 639.404 446.611 639.498C446.671 639.591 446.708 639.698 446.718 639.809C446.727 639.92 446.709 640.032 446.665 640.134V640.148L445.124 643.873C443.649 642.927 442.527 641.521 441.932 639.872L445.91 639.198C445.954 639.193 445.999 639.193 446.044 639.198L446.051 639.188H446.051ZM449.411 640.807C449.669 640.8 449.91 640.937 450.033 641.164H450.047L452.008 644.702L451.224 644.933C449.782 645.263 448.277 645.185 446.876 644.709L448.843 641.171C448.902 641.069 448.986 640.984 449.087 640.924C449.189 640.864 449.304 640.832 449.421 640.829L449.411 640.808V640.807Z" fill="white" stroke="white" stroke-width="0.361354"/>
<rect x="444.87" y="507.595" width="195.975" height="80.925" fill="#F1C40F"/>
<path fill-rule="evenodd" clip-rule="evenodd" d="M1158 244.829V654.171C1158 659.599 1153.59 664 1148.16 664H802.144C796.713 664 792.308 659.599 792.308 654.171V244.829C792.308 239.401 796.713 235 802.144 235H1148.16C1153.59 235 1158 239.401 1158 244.829Z" fill="#D2D2D2"/>
<path fill-rule="evenodd" clip-rule="evenodd" d="M855.041 644.342H1143.84V651.887H855.041V644.342ZM855.041 632.201H1143.84V639.746H855.041V632.201ZM855.041 620.637H1143.84V628.183H855.041V620.637ZM806.186 248.298H1143.84V255.814H806.186V248.298Z" fill="#A3A3A3"/>
<path fill-rule="evenodd" clip-rule="evenodd" d="M810.129 269.134H1140.18C1140.69 269.134 1141.2 269.235 1141.68 269.433C1142.16 269.631 1142.59 269.92 1142.96 270.286C1143.32 270.651 1143.61 271.085 1143.81 271.562C1144.01 272.039 1144.11 272.551 1144.11 273.067V603.077C1144.11 604.12 1143.7 605.121 1142.96 605.859C1142.22 606.597 1141.22 607.011 1140.18 607.011H810.128C809.085 607.011 808.084 606.597 807.346 605.859C806.608 605.121 806.194 604.12 806.194 603.077V273.067C806.194 272.024 806.608 271.024 807.346 270.286C808.084 269.548 809.085 269.134 810.128 269.134H810.129Z" fill="white"/>
<path d="M824.595 618.556C824.264 618.576 823.94 618.662 823.642 618.809L810.745 624.959C810.413 625.117 810.121 625.348 809.89 625.635C809.66 625.922 809.498 626.257 809.415 626.616L806.257 640.422C806.181 640.743 806.173 641.076 806.233 641.4C806.293 641.724 806.419 642.032 806.604 642.305C806.649 642.372 806.695 642.437 806.743 642.499L815.654 653.577C816.125 654.155 816.832 654.488 817.577 654.485H831.87C832.238 654.483 832.602 654.4 832.935 654.241C833.268 654.082 833.561 653.852 833.795 653.567L842.702 642.486C843.168 641.908 843.343 641.144 843.164 640.419L839.986 626.603C839.903 626.244 839.741 625.909 839.511 625.622C839.28 625.335 838.988 625.104 838.657 624.946L825.779 618.81C825.408 618.627 824.997 618.54 824.583 618.557L824.595 618.556Z" fill="#4A4A4A"/>
<path d="M824.715 623.259C824.271 623.29 823.935 623.671 823.958 624.115V624.332C823.978 624.579 824.015 624.823 824.064 625.065C824.135 625.527 824.161 625.997 824.14 626.465C824.096 626.62 824.008 626.758 823.888 626.864L823.871 627.191C823.402 627.23 822.936 627.302 822.478 627.406C820.549 627.84 818.795 628.842 817.44 630.281L817.162 630.085C817.086 630.108 817.007 630.115 816.929 630.107C816.85 630.099 816.774 630.076 816.705 630.039C816.329 629.76 815.981 629.447 815.667 629.101C815.509 628.912 815.34 628.732 815.161 628.563L814.99 628.427C814.837 628.305 814.65 628.234 814.455 628.225C814.338 628.218 814.222 628.24 814.115 628.287C814.008 628.334 813.914 628.406 813.84 628.497C813.715 628.673 813.664 628.892 813.7 629.105C813.735 629.318 813.853 629.508 814.029 629.635L814.189 629.762C814.395 629.899 814.608 630.023 814.828 630.135C815.24 630.363 815.627 630.635 815.983 630.945C816.074 631.076 816.128 631.23 816.136 631.39L816.389 631.621C815.028 633.665 814.468 636.14 814.818 638.571L814.493 638.663C814.409 638.797 814.296 638.911 814.163 638.996C813.711 639.117 813.248 639.194 812.781 639.225C812.533 639.23 812.286 639.249 812.04 639.283L811.835 639.329H811.813C811.671 639.349 811.537 639.408 811.427 639.499C811.316 639.59 811.233 639.71 811.187 639.846C811.14 639.982 811.132 640.128 811.164 640.267C811.195 640.407 811.265 640.536 811.365 640.638C811.571 640.847 811.878 640.92 812.157 640.829H812.171L812.381 640.806C812.616 640.736 812.847 640.651 813.072 640.553C813.506 640.379 813.957 640.248 814.416 640.161C814.576 640.17 814.729 640.224 814.859 640.317L815.206 640.259C815.958 642.593 817.539 644.57 819.65 645.817L819.509 646.112C819.574 646.247 819.598 646.398 819.578 646.547C819.387 646.99 819.153 647.413 818.88 647.811C818.73 648.008 818.592 648.214 818.466 648.427L818.367 648.635C818.296 648.759 818.26 648.9 818.264 649.043C818.268 649.186 818.311 649.325 818.389 649.444C818.467 649.564 818.576 649.66 818.705 649.722C818.834 649.784 818.977 649.808 819.119 649.794C819.41 649.761 819.658 649.568 819.759 649.294L819.856 649.097C819.944 648.866 820.017 648.629 820.078 648.392C820.283 647.886 820.394 647.343 820.674 647.008C820.765 646.921 820.88 646.865 821.005 646.845L821.178 646.529C823.466 647.409 825.998 647.415 828.291 646.547L828.445 646.842C828.602 646.866 828.743 646.951 828.838 647.079C829.056 647.493 829.232 647.927 829.366 648.375C829.427 648.615 829.503 648.851 829.59 649.082L829.687 649.279C829.737 649.413 829.824 649.53 829.937 649.618C830.05 649.705 830.185 649.76 830.327 649.776C830.469 649.791 830.612 649.767 830.742 649.707C830.871 649.646 830.981 649.55 831.06 649.431C831.219 649.185 831.226 648.872 831.078 648.619L830.977 648.411C830.851 648.199 830.713 647.994 830.564 647.797C830.298 647.41 830.066 647 829.87 646.573C829.851 646.495 829.849 646.414 829.862 646.334C829.876 646.255 829.905 646.179 829.948 646.111C829.899 646.01 829.856 645.906 829.82 645.8C831.926 644.544 833.5 642.56 834.244 640.222L834.572 640.28C834.69 640.173 834.845 640.115 835.004 640.12C835.463 640.208 835.913 640.352 836.348 640.513C836.575 640.618 836.806 640.706 837.041 640.78C837.096 640.795 837.178 640.808 837.24 640.823H837.255C837.391 640.867 837.538 640.872 837.677 640.838C837.817 640.804 837.944 640.732 838.045 640.63C838.146 640.528 838.216 640.4 838.249 640.26C838.281 640.12 838.274 639.974 838.228 639.838C838.182 639.702 838.098 639.582 837.987 639.491C837.876 639.4 837.742 639.341 837.599 639.322L837.375 639.269C837.129 639.235 836.882 639.216 836.633 639.211C836.166 639.181 835.703 639.105 835.251 638.983C835.112 638.904 834.997 638.789 834.919 638.65L834.606 638.557C834.939 636.127 834.368 633.659 833.002 631.623L833.275 631.37C833.264 631.211 833.316 631.054 833.419 630.932C833.774 630.628 834.158 630.358 834.564 630.127C834.785 630.015 834.998 629.89 835.203 629.754L835.372 629.616C835.465 629.559 835.546 629.482 835.607 629.391C835.669 629.3 835.71 629.198 835.729 629.09C835.748 628.982 835.743 628.871 835.716 628.764C835.689 628.658 835.64 628.559 835.571 628.473C835.503 628.387 835.417 628.317 835.32 628.267C835.222 628.217 835.115 628.188 835.005 628.182C834.896 628.176 834.786 628.194 834.684 628.234C834.582 628.273 834.489 628.334 834.412 628.412L834.241 628.55C834.062 628.719 833.893 628.899 833.735 629.087C833.43 629.437 833.092 629.755 832.726 630.039C832.577 630.099 832.415 630.117 832.258 630.09L831.965 630.299C830.275 628.528 827.999 627.43 825.56 627.209C825.56 627.093 825.545 626.92 825.543 626.866C825.411 626.776 825.32 626.638 825.29 626.481C825.274 626.014 825.303 625.547 825.378 625.086C825.428 624.842 825.462 624.599 825.485 624.353V624.122C825.496 623.908 825.423 623.698 825.281 623.538C825.139 623.378 824.939 623.28 824.726 623.265L824.716 623.259L824.715 623.259ZM823.75 629.236L823.519 633.278H823.502C823.495 633.401 823.455 633.519 823.388 633.622C823.32 633.724 823.227 633.807 823.117 633.862C823.007 633.918 822.884 633.941 822.761 633.93C822.638 633.919 822.521 633.874 822.423 633.799L819.108 631.45C820.163 630.414 821.487 629.693 822.931 629.369C823.201 629.311 823.474 629.267 823.748 629.236H823.75V629.236ZM825.68 629.236C827.422 629.452 829.043 630.235 830.298 631.462L827.014 633.796C826.915 633.876 826.795 633.926 826.668 633.941C826.542 633.955 826.414 633.934 826.298 633.88C826.183 633.825 826.086 633.74 826.017 633.632C825.948 633.525 825.911 633.401 825.91 633.273L825.681 629.236L825.68 629.236ZM817.904 632.971L820.936 635.676V635.693C821.028 635.774 821.097 635.878 821.135 635.995C821.173 636.112 821.178 636.237 821.151 636.357C821.123 636.476 821.064 636.586 820.979 636.675C820.894 636.764 820.787 636.828 820.669 636.861V636.872L816.778 637.991C816.585 636.238 816.982 634.471 817.905 632.968L817.904 632.971ZM831.505 632.971C832.426 634.469 832.834 636.227 832.665 637.977L828.768 636.855V636.84C828.649 636.808 828.541 636.744 828.456 636.655C828.371 636.567 828.312 636.456 828.285 636.336C828.258 636.216 828.264 636.091 828.302 635.974C828.34 635.857 828.408 635.753 828.501 635.671L831.509 632.98L831.505 632.971ZM824.094 635.887H825.334L826.093 636.849L825.817 638.053L824.703 638.587L823.586 638.053L823.323 636.849L824.094 635.887ZM828.068 639.171C828.12 639.165 828.172 639.165 828.224 639.171L832.236 639.847C831.65 641.517 830.519 642.94 829.025 643.889L827.474 640.135C827.432 640.035 827.414 639.925 827.423 639.816C827.431 639.707 827.466 639.602 827.523 639.509C827.581 639.416 827.66 639.339 827.754 639.283C827.848 639.227 827.954 639.194 828.063 639.188L828.068 639.171ZM821.329 639.188C821.441 639.19 821.55 639.219 821.648 639.273C821.746 639.327 821.828 639.404 821.889 639.498C821.95 639.591 821.987 639.698 821.996 639.809C822.006 639.92 821.987 640.032 821.943 640.134V640.148L820.403 643.873C818.927 642.927 817.805 641.521 817.21 639.872L821.188 639.198C821.233 639.193 821.278 639.193 821.323 639.198L821.33 639.188H821.329ZM824.69 640.807C824.948 640.8 825.188 640.937 825.311 641.164H825.326L827.286 644.702L826.503 644.933C825.061 645.263 823.555 645.185 822.154 644.709L824.122 641.171C824.18 641.069 824.265 640.984 824.366 640.924C824.467 640.864 824.582 640.832 824.7 640.829L824.69 640.808V640.807Z" fill="white" stroke="white" stroke-width="0.361354"/>
<rect x="820" y="508" width="195.975" height="80.925" fill="#F1C40F"/>
<rect x="1049.27" y="507.595" width="80.925" height="80.925" fill="#8FBE00"/>
<rect x="1049.27" y="415.943" width="80.925" height="80.925" fill="#8FBE00"/>
<rect x="1049.27" y="324.578" width="80.925" height="80.925" fill="#8FBE00"/>
<rect x="820" y="414.971" width="195.975" height="80.925" fill="#F1C40F"/>
<path d="M154.206 781.908L154.211 781.549C154.215 781.249 154.323 781.041 154.534 780.924C154.775 780.807 155.045 780.751 155.345 780.755C155.584 780.758 155.809 780.791 156.017 780.854C156.227 780.887 156.389 781.054 156.505 781.355C156.589 781.805 156.67 782.435 156.749 783.245C156.829 784.025 156.922 784.894 157.029 785.854C157.136 786.814 157.242 787.834 157.347 788.913C157.483 789.963 157.604 790.968 157.711 791.928C157.849 792.859 157.987 793.699 158.127 794.45C158.267 795.2 158.424 795.771 158.598 796.163C158.547 793.287 158.67 790.803 158.967 788.71C159.265 786.588 159.797 784.873 160.564 783.565C161.36 782.228 162.421 781.314 163.745 780.822C165.1 780.301 166.778 780.204 168.781 780.53C169.709 780.543 170.166 781.043 170.153 782.031C170.148 782.421 169.89 782.687 169.379 782.83C168.868 782.943 168.298 783.025 167.668 783.076C167.039 783.098 166.425 783.134 165.825 783.186C165.225 783.238 164.789 783.382 164.516 783.618C163.43 784.203 162.654 785.121 162.188 786.372C161.752 787.625 161.433 789.103 161.23 790.807C161.028 792.512 160.868 794.382 160.751 796.417C160.664 798.422 160.442 800.486 160.084 802.607C160.08 802.907 159.958 803.13 159.716 803.276C159.474 803.423 159.174 803.494 158.815 803.489C158.485 803.485 158.157 803.405 157.829 803.251C157.532 803.097 157.295 802.87 157.12 802.568L154.206 781.908ZM173.586 794.117C173.436 794.145 173.21 794.187 172.91 794.243C172.61 794.299 172.295 794.31 171.966 794.275C171.637 794.241 171.354 794.147 171.117 793.994C170.849 793.841 170.718 793.585 170.722 793.225C170.725 793.016 170.772 792.867 170.863 792.778C170.954 792.689 171.106 792.557 171.318 792.38C171.984 791.85 172.547 791.168 173.007 790.336C173.498 789.474 173.945 788.566 174.347 787.613C174.749 786.63 175.166 785.662 175.598 784.71C176.061 783.728 176.582 782.851 177.161 782.08C177.74 781.309 178.453 780.69 179.297 780.222C180.142 779.754 181.178 779.543 182.406 779.589C182.915 779.596 183.482 779.723 184.108 779.971C184.733 780.219 185.313 780.557 185.846 780.983C186.38 781.38 186.823 781.865 187.175 782.438C187.526 783.012 187.698 783.643 187.689 784.332C187.835 784.574 187.681 784.916 187.226 785.359C186.8 785.803 186.21 786.289 185.454 786.818C184.698 787.317 183.838 787.845 182.872 788.401C181.936 788.928 181.031 789.425 180.157 789.892C179.282 790.36 178.512 790.769 177.849 791.119C177.185 791.47 176.747 791.734 176.535 791.91C176.382 792.208 176.257 792.551 176.162 792.939C176.067 793.327 175.987 793.7 175.923 794.059C175.888 794.388 175.854 794.702 175.82 795.001C175.817 795.27 175.814 795.48 175.812 795.63C175.804 796.199 175.766 796.827 175.697 797.515C175.658 798.203 175.679 798.862 175.76 799.492C175.872 800.093 176.12 800.605 176.503 801.03C176.887 801.424 177.544 801.628 178.472 801.64C179.46 801.653 180.392 801.426 181.267 800.959C182.142 800.461 182.958 799.858 183.717 799.15C184.475 798.441 185.159 797.671 185.769 796.841C186.409 796.011 186.974 795.24 187.462 794.527C187.981 793.786 188.439 793.178 188.835 792.704C189.23 792.23 189.563 791.995 189.832 791.998C190.132 792.002 190.445 792.066 190.773 792.191C191.131 792.285 191.308 792.527 191.303 792.916C191.295 793.455 191.062 794.096 190.603 794.839C190.174 795.582 189.594 796.368 188.864 797.197C188.164 798.026 187.345 798.854 186.405 799.68C185.496 800.476 184.573 801.198 183.636 801.844C182.699 802.46 181.779 802.972 180.875 803.38C179.971 803.757 179.175 803.941 178.486 803.932C177.139 803.914 176.125 803.571 175.445 802.903C174.765 802.235 174.282 801.405 173.996 800.412C173.74 799.421 173.604 798.37 173.589 797.262C173.604 796.124 173.603 795.076 173.586 794.117ZM182.013 782.1C181.504 782.093 180.961 782.34 180.386 782.842C179.81 783.313 179.263 783.905 178.744 784.617C178.256 785.299 177.842 786.013 177.503 786.757C177.194 787.472 177.036 788.068 177.03 788.548C177.479 788.554 178.125 788.397 178.968 788.079C179.841 787.732 180.7 787.309 181.545 786.811C182.391 786.313 183.132 785.784 183.768 785.223C184.405 784.663 184.726 784.128 184.733 783.619C184.737 783.349 184.635 783.123 184.428 782.941C184.22 782.758 183.968 782.605 183.67 782.481C183.402 782.358 183.119 782.264 182.82 782.201C182.521 782.137 182.252 782.103 182.013 782.1ZM193.376 815.901C193.748 812.761 193.968 809.769 194.036 806.925C194.133 804.111 194.155 801.326 194.102 798.57C194.079 795.814 194.012 793.028 193.9 790.211C193.787 787.394 193.737 784.413 193.75 781.268C193.845 780.85 193.954 780.537 194.077 780.329C194.23 780.092 194.605 780.037 195.202 780.165C195.829 780.323 196.198 780.687 196.31 781.258C196.423 781.798 196.445 782.413 196.376 783.101C196.307 783.788 196.208 784.476 196.079 785.163C195.95 785.85 195.942 786.404 196.056 786.825C197.024 786.149 198.052 785.444 199.14 784.71C200.228 783.976 201.359 783.332 202.535 782.779C203.711 782.195 204.929 781.777 206.191 781.525C207.452 781.242 208.71 781.244 209.964 781.53C211.517 781.91 212.587 782.464 213.177 783.19C213.796 783.888 214.025 784.699 213.863 785.626C213.731 786.522 213.299 787.52 212.565 788.618C211.832 789.687 210.934 790.768 209.871 791.862C208.808 792.956 207.626 794.033 206.324 795.094C205.022 796.155 203.751 797.141 202.51 798.053C201.271 798.935 200.107 799.713 199.02 800.387C197.963 801.062 197.117 801.56 196.484 801.881C196.449 802.24 196.397 802.808 196.326 803.586C196.287 804.334 196.23 805.187 196.158 806.145C196.115 807.102 196.056 808.105 195.983 809.152C195.939 810.2 195.88 811.203 195.808 812.16C195.765 813.118 195.708 813.971 195.639 814.719C195.599 815.467 195.576 816.021 195.571 816.38C195.511 816.409 195.406 816.438 195.256 816.466C195.106 816.493 194.926 816.506 194.716 816.503C194.506 816.53 194.311 816.543 194.132 816.54C193.952 816.568 193.832 816.566 193.772 816.536C193.682 816.534 193.594 816.443 193.506 816.262C193.419 816.111 193.375 815.991 193.376 815.901ZM196.221 791.32C196.125 791.738 196.089 792.262 196.11 792.891C196.162 793.491 196.213 794.135 196.264 794.825C196.345 795.485 196.426 796.13 196.508 796.76C196.589 797.39 196.642 797.93 196.666 798.379C197.815 797.526 199.145 796.66 200.654 795.782C202.193 794.904 203.673 793.95 205.095 792.921C206.546 791.892 207.834 790.741 208.96 789.469C210.085 788.196 210.838 786.753 211.219 785.141C211.347 784.514 211.293 784.094 211.056 783.881C210.85 783.638 210.477 783.469 209.94 783.372C208.805 783.117 207.501 783.189 206.028 783.589C204.556 783.959 203.126 784.524 201.738 785.284C200.38 786.044 199.184 786.957 198.152 788.021C197.119 789.086 196.476 790.185 196.221 791.32ZM216.563 802.104C216.791 800.73 216.949 799.01 217.036 796.944C217.154 794.879 217.213 792.679 217.214 790.343C217.246 788.007 217.233 785.596 217.176 783.109C217.12 780.622 217.031 778.27 216.911 776.052C216.791 773.804 216.639 771.796 216.453 770.026C216.297 768.257 216.121 766.862 215.925 765.841C216.196 765.665 216.423 765.533 216.604 765.446C216.815 765.329 217.055 765.272 217.325 765.275C217.534 765.278 217.713 765.326 217.862 765.417C218.011 765.479 218.129 765.631 218.215 765.871C218.736 771.749 219.061 777.668 219.191 783.63C219.351 789.592 219.451 795.524 219.492 801.425C219.489 801.694 219.484 802.069 219.477 802.548C219.471 802.997 219.453 803.236 219.423 803.266C219.001 803.47 218.625 803.57 218.296 803.565C217.967 803.531 217.668 803.437 217.401 803.284C217.134 803.1 216.927 802.903 216.78 802.691C216.633 802.48 216.561 802.284 216.563 802.104ZM222.653 803.579C222.679 801.632 222.662 799.58 222.601 797.423C222.57 795.266 222.524 793.094 222.463 790.907C222.433 788.69 222.447 786.519 222.505 784.393C222.564 782.268 222.725 780.278 222.989 778.425C223.05 778.395 223.185 778.382 223.394 778.385C223.634 778.358 223.799 778.346 223.889 778.347C224.308 778.352 224.637 778.432 224.874 778.585C225.142 778.708 225.273 778.994 225.267 779.443C225.243 781.21 225.203 783.141 225.145 785.237C225.117 787.303 225.074 789.414 225.015 791.57C224.987 793.696 224.958 795.807 224.93 797.903C224.902 800 224.907 801.902 224.944 803.609C224.967 804.119 224.858 804.447 224.616 804.593C224.404 804.77 224.134 804.856 223.804 804.852C223.445 804.847 223.147 804.753 222.909 804.57C222.672 804.417 222.586 804.087 222.653 803.579ZM222.095 771.404C222.1 771.045 222.223 770.807 222.464 770.69C222.705 770.574 222.975 770.517 223.275 770.521C223.874 770.529 224.245 770.729 224.39 771.12C224.534 771.512 224.603 771.962 224.596 772.471C224.412 772.798 224.185 773.034 223.913 773.181C223.642 773.297 223.357 773.323 223.058 773.259C222.79 773.166 222.553 772.968 222.348 772.666C222.172 772.364 222.088 771.943 222.095 771.404ZM228.169 794.218C228.274 793.141 228.379 791.974 228.486 790.718C228.593 789.431 228.745 788.161 228.941 786.905C229.167 785.65 229.438 784.456 229.753 783.322C230.097 782.189 230.53 781.191 231.051 780.329C231.602 779.438 232.27 778.743 233.055 778.245C233.841 777.716 234.788 777.474 235.895 777.519C236.644 777.529 237.209 777.851 237.59 778.485C238 779.119 238.275 779.887 238.412 780.787C238.58 781.688 238.657 782.617 238.645 783.576C238.662 784.504 238.667 785.268 238.659 785.867C238.06 785.859 237.569 785.598 237.187 785.084C236.805 784.539 236.513 783.922 236.313 783.23C236.113 782.539 235.972 781.863 235.891 781.203L235.774 779.898C235.744 779.898 235.684 779.897 235.594 779.896C235.534 779.865 235.49 779.85 235.46 779.849C234.951 779.842 234.468 780.12 234.011 780.683C233.584 781.247 233.17 781.975 232.769 782.868C232.398 783.732 232.07 784.716 231.786 785.82C231.502 786.895 231.263 787.955 231.069 789C230.876 790.046 230.713 791.017 230.581 791.914C230.48 792.781 230.426 793.454 230.419 793.933C230.349 794.711 230.338 795.565 230.385 796.494C230.433 797.423 230.601 798.294 230.889 799.106C231.178 799.919 231.588 800.628 232.119 801.234C232.65 801.81 233.364 802.209 234.259 802.431C235.367 802.446 236.268 802.308 236.96 802.018C237.653 801.727 238.213 801.331 238.639 800.827C239.095 800.324 239.447 799.76 239.695 799.134C239.943 798.508 240.176 797.868 240.394 797.212C240.643 796.526 240.891 795.856 241.14 795.2C241.388 794.544 241.741 793.935 242.198 793.372C242.558 793.287 242.812 793.305 242.961 793.427C243.139 793.519 243.257 793.656 243.315 793.836C243.372 794.017 243.399 794.227 243.396 794.466L243.389 794.96C243.373 796.218 243.147 797.428 242.712 798.59C242.277 799.753 241.649 800.793 240.828 801.71C240.008 802.598 239.025 803.318 237.879 803.872C236.764 804.396 235.488 804.649 234.05 804.629C232.852 804.613 231.854 804.226 231.056 803.466C230.288 802.677 229.686 801.741 229.251 800.657C228.847 799.573 228.562 798.446 228.398 797.276C228.234 796.076 228.158 795.056 228.169 794.218ZM258.771 803.792C258.631 803.011 258.509 802.081 258.404 801.002C258.329 799.892 258.239 798.783 258.134 797.673C258.029 796.534 257.894 795.469 257.727 794.478C257.591 793.488 257.362 792.676 257.041 792.043C255.472 795.137 254.092 797.574 252.9 799.356C251.708 801.107 250.658 802.366 249.749 803.132C248.871 803.869 248.133 804.219 247.534 804.181C246.936 804.143 246.445 803.867 246.063 803.352C245.68 802.838 245.404 802.191 245.235 801.41C245.096 800.599 245.001 799.849 244.951 799.159C244.959 798.501 245.121 797.574 245.437 796.381C245.752 795.187 246.174 793.89 246.702 792.489C247.23 791.058 247.849 789.614 248.557 788.156C249.295 786.698 250.077 785.376 250.901 784.189C251.726 783.002 252.577 782.025 253.456 781.258C254.335 780.491 255.209 780.113 256.077 780.125C257.367 779.932 258.307 780.229 258.895 781.016C259.514 781.773 259.617 783.047 259.204 784.839C259.177 786.815 259.23 788.508 259.361 789.918C259.521 791.327 259.683 792.677 259.845 793.967C260.038 795.258 260.2 796.608 260.33 798.017C260.491 799.427 260.559 801.12 260.532 803.097C260.527 803.456 260.478 803.77 260.385 804.038C260.322 804.277 259.961 804.392 259.302 804.383C259.212 804.382 259.093 804.305 258.946 804.154C258.828 804.002 258.77 803.882 258.771 803.792ZM256.614 783.681C256.291 783.198 255.842 783.147 255.268 783.528C254.694 783.91 254.086 784.546 253.445 785.436C252.804 786.326 252.146 787.395 251.471 788.644C250.795 789.893 250.164 791.157 249.578 792.437C248.992 793.718 248.481 794.939 248.046 796.101C247.612 797.233 247.315 798.173 247.155 798.919C247.141 799.997 247.297 800.613 247.625 800.768C247.952 800.892 248.359 800.718 248.845 800.245C249.33 799.772 249.878 799.091 250.489 798.2C251.13 797.31 251.742 796.36 252.324 795.349C252.937 794.339 253.504 793.359 254.026 792.407C254.578 791.456 255.007 790.683 255.315 790.088C255.593 789.463 255.81 788.882 255.967 788.345C256.124 787.808 256.251 787.3 256.347 786.822C256.474 786.315 256.54 785.807 256.547 785.298C256.584 784.789 256.606 784.25 256.614 783.681ZM264.312 785.851C264.01 785.996 263.724 786.157 263.452 786.333C263.21 786.48 262.969 786.626 262.727 786.773C262.486 786.889 262.245 786.976 262.005 787.033C261.764 787.089 261.51 787.086 261.241 787.023C261.062 787.02 260.913 786.913 260.796 786.702C260.68 786.461 260.593 786.205 260.537 785.935C260.451 785.634 260.395 785.349 260.369 785.079C260.343 784.779 260.346 784.555 260.378 784.405L264.723 781.992L265.146 770.497C265.211 770.109 265.453 769.962 265.871 770.058C266.289 770.123 266.722 770.219 267.17 770.344C267.23 770.345 267.319 770.376 267.438 770.438C267.587 770.47 267.692 770.501 267.751 770.532C267.681 771.34 267.594 772.222 267.491 773.179C267.419 774.107 267.346 775.049 267.274 776.007C267.201 776.934 267.144 777.847 267.102 778.745C267.09 779.643 267.124 780.452 267.205 781.172L273.968 779.376C274.088 779.347 274.176 779.438 274.233 779.649C274.321 779.83 274.393 780.055 274.449 780.325C274.535 780.596 274.592 780.866 274.618 781.136C274.644 781.406 274.657 781.541 274.657 781.541L266.978 784.673C266.975 784.943 266.981 785.587 266.997 786.605C267.044 787.624 267.087 788.838 267.128 790.246C267.17 791.624 267.21 793.122 267.248 794.74C267.287 796.328 267.327 797.811 267.368 799.19C267.41 800.568 267.438 801.781 267.454 802.83C267.471 803.848 267.477 804.492 267.473 804.762C267.401 805.659 267.126 806.105 266.647 806.098C266.198 806.092 265.707 805.861 265.174 805.405L264.312 785.851ZM275.926 804.291C275.952 802.344 275.934 800.292 275.873 798.135C275.842 795.978 275.796 793.806 275.736 791.619C275.705 789.402 275.719 787.231 275.778 785.105C275.836 782.98 275.998 780.99 276.262 779.137C276.322 779.108 276.457 779.094 276.667 779.097C276.907 779.07 277.072 779.058 277.162 779.059C277.581 779.064 277.909 779.144 278.147 779.297C278.415 779.42 278.546 779.706 278.54 780.156C278.516 781.922 278.475 783.854 278.417 785.949C278.39 788.016 278.346 790.126 278.288 792.282C278.259 794.408 278.231 796.519 278.203 798.616C278.175 800.712 278.179 802.614 278.217 804.321C278.24 804.831 278.13 805.159 277.889 805.305C277.677 805.482 277.406 805.568 277.077 805.564C276.717 805.559 276.419 805.465 276.182 805.283C275.944 805.13 275.859 804.799 275.926 804.291ZM275.367 772.116C275.372 771.757 275.495 771.519 275.736 771.402C275.978 771.286 276.248 771.23 276.547 771.234C277.146 771.242 277.518 771.441 277.662 771.833C277.807 772.224 277.876 772.674 277.869 773.183C277.685 773.51 277.457 773.747 277.186 773.893C276.915 774.009 276.63 774.035 276.331 773.971C276.063 773.878 275.826 773.68 275.62 773.378C275.444 773.076 275.36 772.655 275.367 772.116ZM281.341 799.107C281.15 797.726 281.063 796.393 281.08 795.105C281.098 793.787 281.191 792.456 281.358 791.11C281.556 789.765 281.814 788.376 282.133 786.942C282.482 785.48 282.877 783.912 283.319 782.241C283.323 781.912 283.417 781.613 283.6 781.346C283.784 781.049 284.027 780.813 284.329 780.637C284.631 780.432 284.947 780.271 285.278 780.156C285.609 780.04 285.925 779.985 286.224 779.989C286.883 779.997 287.479 780.215 288.012 780.642C288.546 781.068 289.018 781.583 289.429 782.188C289.871 782.793 290.236 783.442 290.527 784.134C290.847 784.798 291.109 785.37 291.312 785.852C291.538 786.903 291.686 788.103 291.758 789.452C291.86 790.771 291.857 792.119 291.749 793.495C291.641 794.872 291.413 796.231 291.066 797.574C290.719 798.888 290.238 800.094 289.625 801.194C289.011 802.294 288.22 803.212 287.252 803.948C286.313 804.684 285.199 805.133 283.909 805.296C283.22 805.287 282.699 805.055 282.346 804.601C281.993 804.117 281.731 803.545 281.56 802.883C281.42 802.193 281.339 801.503 281.318 800.814C281.328 800.125 281.335 799.556 281.341 799.107ZM283.634 799.003C283.63 799.302 283.626 799.587 283.622 799.856C283.649 800.126 283.675 800.396 283.701 800.666C283.758 800.906 283.814 801.176 283.87 801.477C283.957 801.747 284.057 802.063 284.172 802.424L284.442 802.428C285.16 802.437 285.777 802.206 286.293 801.734C286.808 801.261 287.251 800.653 287.62 799.91C287.99 799.136 288.301 798.286 288.553 797.361C288.805 796.406 288.997 795.48 289.129 794.584C289.291 793.657 289.392 792.805 289.433 792.027C289.503 791.219 289.542 790.576 289.548 790.097L289.56 789.198C289.566 788.809 289.556 788.374 289.533 787.895C289.51 787.385 289.457 786.876 289.374 786.365C289.321 785.826 289.222 785.345 289.078 784.924C288.935 784.473 288.745 784.111 288.509 783.838C288.273 783.565 287.96 783.426 287.571 783.421C286.915 783.203 286.345 783.24 285.862 783.533C285.409 783.826 285.028 784.331 284.719 785.045C284.44 785.73 284.219 786.581 284.056 787.597C283.893 788.613 283.788 789.735 283.741 790.962C283.695 792.19 283.663 793.492 283.644 794.87C283.656 796.247 283.652 797.625 283.634 799.003ZM295.461 804.866C295.185 800.819 294.94 796.773 294.725 792.726C294.539 788.651 294.326 784.425 294.085 780.049C294.095 779.33 294.489 778.976 295.268 778.986L295.627 778.991C295.717 778.992 295.82 779.114 295.937 779.355C296.053 779.596 296.167 780.047 296.278 780.707C296.419 781.338 296.556 782.313 296.688 783.633C296.851 784.923 297.038 786.618 297.249 788.717C297.461 790.816 297.695 793.44 297.953 796.588C298.609 794.56 299.129 792.591 299.514 790.679C299.899 788.767 300.386 787.037 300.976 785.487C301.566 783.908 302.379 782.526 303.413 781.342C304.477 780.158 305.986 779.294 307.94 778.751C309.016 778.946 309.875 779.616 310.519 780.763C311.163 781.879 311.668 783.264 312.036 784.916C312.403 786.568 312.648 788.369 312.772 790.317C312.896 792.236 312.961 794.078 312.968 795.846C312.974 797.613 312.968 799.2 312.949 800.607C312.931 801.985 312.947 802.974 312.999 803.573C312.906 803.812 312.769 804.019 312.587 804.197C312.404 804.374 312.193 804.506 311.952 804.593C311.742 804.65 311.532 804.662 311.323 804.629C311.114 804.566 310.922 804.399 310.745 804.127C310.75 803.798 310.729 803.124 310.683 802.105C310.636 801.086 310.577 799.902 310.506 798.553C310.434 797.174 310.349 795.721 310.249 794.192C310.18 792.634 310.11 791.18 310.038 789.831C309.997 788.453 309.953 787.254 309.906 786.235C309.86 785.217 309.824 784.542 309.799 784.212C309.185 783.096 308.564 782.459 307.937 782.301C307.34 782.143 306.724 782.329 306.088 782.86C305.482 783.391 304.887 784.207 304.303 785.307C303.719 786.407 303.164 787.658 302.636 789.058C302.108 790.429 301.61 791.875 301.14 793.396C300.67 794.917 300.261 796.395 299.913 797.828C299.564 799.231 299.263 800.514 299.008 801.679C298.783 802.814 298.636 803.696 298.568 804.324C298.475 804.532 298.278 804.739 297.976 804.945C297.704 805.121 297.402 805.252 297.072 805.337C296.771 805.423 296.456 805.449 296.127 805.414C295.829 805.35 295.607 805.168 295.461 804.866ZM340.278 789.472C340.158 789.47 339.978 789.528 339.737 789.644C339.496 789.731 339.24 789.847 338.968 789.993C338.727 790.11 338.486 790.227 338.245 790.343C338.004 790.46 337.793 790.517 337.613 790.514C337.314 790.51 337.045 790.447 336.807 790.324C336.599 790.201 336.498 789.96 336.502 789.601C336.506 789.302 336.645 789.019 336.918 788.753C337.221 788.487 337.569 788.223 337.962 787.958C338.355 787.694 338.748 787.445 339.14 787.21C339.533 786.976 339.82 786.74 340.003 786.503C339.95 786.023 339.917 785.124 339.904 783.806C339.892 782.488 339.912 780.991 339.965 779.314C340.047 777.608 340.175 775.858 340.349 774.063C340.553 772.269 340.829 770.67 341.177 769.267C341.556 767.835 342.035 766.718 342.615 765.917C343.194 765.116 343.931 764.871 344.826 765.183C345.455 765.191 346.021 765.393 346.525 765.789C347.029 766.156 347.457 766.626 347.809 767.199C348.161 767.743 348.422 768.346 348.593 769.007C348.794 769.668 348.891 770.269 348.884 770.808C348.88 771.107 348.8 771.436 348.646 771.793C348.522 772.121 348.28 772.282 347.921 772.277L347.786 772.276C347.756 772.275 347.726 772.26 347.697 772.23C347.002 770.393 346.404 769.232 345.901 768.746C345.429 768.231 345.01 768.21 344.644 768.685C344.308 769.159 344.012 770.009 343.756 771.233C343.53 772.458 343.332 773.878 343.16 775.493C342.989 777.079 342.832 778.769 342.688 780.564C342.545 782.329 342.403 783.974 342.263 785.5C342.864 785.358 343.36 785.215 343.751 785.071C344.172 784.926 344.549 784.782 344.88 784.636C345.212 784.461 345.514 784.3 345.785 784.154C346.057 783.978 346.358 783.832 346.689 783.717C347.322 783.426 348.015 783.151 348.767 782.891C349.55 782.602 350.3 782.463 351.019 782.472C351.007 783.341 350.833 784.057 350.496 784.622C350.189 785.187 349.779 785.645 349.265 785.998C348.781 786.351 348.223 786.613 347.592 786.784C346.961 786.925 346.315 787.052 345.655 787.163C345.025 787.274 344.424 787.386 343.854 787.498C343.283 787.61 342.787 787.753 342.365 787.927C342.429 789.875 342.526 791.583 342.656 793.053C342.816 794.522 342.948 795.827 343.053 796.967C343.188 798.106 343.278 799.156 343.325 800.115C343.403 801.045 343.39 801.973 343.288 802.9C343.285 803.11 343.281 803.409 343.276 803.798C343.301 804.158 343.282 804.517 343.217 804.876C343.182 805.235 343.073 805.548 342.89 805.815C342.707 806.052 342.421 806.168 342.032 806.163C341.672 806.158 341.404 806.079 341.226 805.927C341.049 805.745 340.934 805.399 340.881 804.889C340.733 802.461 340.611 800.408 340.514 798.73C340.447 797.022 340.391 795.598 340.346 794.459C340.302 793.291 340.284 792.377 340.293 791.718L340.321 789.652C340.322 789.532 340.308 789.472 340.278 789.472ZM365.181 805.214C365.042 804.434 364.919 803.504 364.814 802.424C364.739 801.315 364.649 800.205 364.544 799.096C364.44 797.956 364.304 796.891 364.138 795.901C364.001 794.91 363.772 794.099 363.451 793.465C361.882 796.559 360.502 798.997 359.31 800.778C358.119 802.529 357.069 803.788 356.16 804.555C355.281 805.292 354.543 805.641 353.944 805.603C353.346 805.565 352.855 805.289 352.473 804.775C352.09 804.261 351.815 803.613 351.645 802.832C351.506 802.021 351.412 801.271 351.361 800.582C351.37 799.923 351.532 798.997 351.847 797.803C352.163 796.609 352.584 795.312 353.112 793.911C353.641 792.481 354.259 791.036 354.967 789.578C355.706 788.121 356.487 786.798 357.312 785.611C358.136 784.424 358.988 783.447 359.867 782.68C360.745 781.913 361.619 781.536 362.487 781.547C363.778 781.355 364.717 781.652 365.306 782.438C365.925 783.196 366.027 784.47 365.614 786.261C365.588 788.238 365.64 789.931 365.771 791.34C365.932 792.75 366.093 794.1 366.256 795.39C366.448 796.68 366.61 798.03 366.741 799.44C366.902 800.849 366.969 802.543 366.943 804.519C366.938 804.878 366.889 805.192 366.795 805.46C366.732 805.699 366.371 805.814 365.712 805.805C365.623 805.804 365.504 805.728 365.356 805.576C365.238 805.425 365.18 805.304 365.181 805.214ZM363.024 785.104C362.701 784.62 362.252 784.569 361.678 784.951C361.104 785.332 360.497 785.968 359.856 786.858C359.215 787.748 358.557 788.818 357.881 790.066C357.205 791.315 356.574 792.58 355.988 793.86C355.402 795.14 354.892 796.361 354.457 797.523C354.022 798.656 353.725 799.595 353.566 800.342C353.551 801.42 353.708 802.036 354.035 802.19C354.363 802.314 354.769 802.14 355.255 801.667C355.741 801.194 356.289 800.513 356.9 799.623C357.541 798.733 358.152 797.782 358.735 796.772C359.347 795.762 359.915 794.781 360.436 793.829C360.988 792.878 361.418 792.105 361.725 791.511C362.003 790.885 362.221 790.304 362.378 789.767C362.535 789.23 362.661 788.723 362.757 788.245C362.884 787.737 362.951 787.229 362.957 786.72C362.994 786.211 363.016 785.672 363.024 785.104ZM369.391 796.106C369.495 795.029 369.601 793.862 369.707 792.606C369.815 791.319 369.966 790.048 370.163 788.793C370.389 787.538 370.66 786.344 370.974 785.21C371.319 784.076 371.752 783.079 372.272 782.217C372.823 781.326 373.492 780.631 374.277 780.132C375.063 779.604 376.009 779.362 377.117 779.407C377.866 779.417 378.43 779.739 378.811 780.373C379.222 781.007 379.496 781.775 379.634 782.675C379.802 783.576 379.879 784.505 379.866 785.463C379.884 786.392 379.889 787.156 379.881 787.755C379.282 787.747 378.791 787.486 378.409 786.971C378.026 786.427 377.735 785.809 377.535 785.118C377.334 784.426 377.194 783.75 377.113 783.09L376.995 781.786C376.965 781.786 376.905 781.785 376.816 781.784C376.756 781.753 376.711 781.737 376.681 781.737C376.172 781.73 375.689 782.008 375.233 782.571C374.806 783.135 374.392 783.863 373.991 784.756C373.62 785.62 373.292 786.604 373.008 787.708C372.724 788.782 372.485 789.842 372.291 790.888C372.098 791.934 371.935 792.905 371.803 793.802C371.702 794.669 371.648 795.342 371.641 795.821C371.571 796.599 371.56 797.452 371.607 798.382C371.654 799.311 371.823 800.181 372.111 800.994C372.4 801.807 372.81 802.516 373.341 803.122C373.872 803.698 374.586 804.097 375.481 804.319C376.589 804.333 377.489 804.196 378.182 803.905C378.875 803.615 379.434 803.218 379.86 802.715C380.316 802.212 380.668 801.647 380.916 801.022C381.164 800.396 381.397 799.755 381.616 799.099C381.865 798.414 382.113 797.743 382.362 797.088C382.61 796.432 382.963 795.823 383.419 795.26C383.78 795.175 384.034 795.193 384.182 795.315C384.361 795.407 384.479 795.544 384.536 795.724C384.594 795.905 384.621 796.115 384.618 796.354L384.611 796.848C384.594 798.106 384.368 799.316 383.934 800.478C383.499 801.64 382.871 802.68 382.05 803.598C381.229 804.485 380.246 805.206 379.101 805.76C377.986 806.284 376.709 806.536 375.272 806.517C374.074 806.501 373.076 806.113 372.278 805.354C371.509 804.565 370.908 803.629 370.473 802.545C370.068 801.461 369.784 800.334 369.62 799.164C369.456 797.963 369.38 796.944 369.391 796.106ZM388.689 787.513C388.388 787.659 388.101 787.82 387.829 787.996C387.588 788.142 387.346 788.289 387.105 788.435C386.863 788.552 386.623 788.639 386.382 788.695C386.142 788.752 385.887 788.749 385.619 788.685C385.439 788.683 385.291 788.576 385.174 788.365C385.057 788.124 384.971 787.868 384.914 787.598C384.829 787.297 384.773 787.012 384.746 786.742C384.72 786.442 384.723 786.217 384.755 786.068L389.1 783.655L389.524 772.16C389.589 771.771 389.83 771.625 390.248 771.72C390.667 771.786 391.1 771.881 391.547 772.007C391.607 772.008 391.697 772.039 391.816 772.1C391.965 772.132 392.069 772.164 392.129 772.195C392.058 773.002 391.971 773.885 391.869 774.842C391.796 775.769 391.724 776.712 391.651 777.669C391.579 778.597 391.522 779.509 391.48 780.407C391.468 781.306 391.502 782.115 391.582 782.835L398.345 781.038C398.465 781.01 398.554 781.101 398.611 781.311C398.698 781.492 398.77 781.718 398.827 781.988C398.913 782.259 398.969 782.529 398.995 782.799C399.022 783.069 399.035 783.204 399.035 783.204L391.356 786.336C391.352 786.605 391.358 787.249 391.375 788.268C391.421 789.287 391.465 790.5 391.506 791.909C391.547 793.287 391.587 794.785 391.625 796.403C391.664 797.991 391.704 799.474 391.746 800.852C391.787 802.23 391.816 803.444 391.832 804.492C391.848 805.511 391.855 806.155 391.851 806.424C391.779 807.322 391.504 807.767 391.024 807.761C390.575 807.755 390.084 807.524 389.551 807.067L388.689 787.513ZM399.61 800.688C399.419 799.307 399.332 797.973 399.349 796.686C399.367 795.368 399.459 794.037 399.627 792.691C399.825 791.346 400.083 789.957 400.401 788.523C400.751 787.06 401.146 785.493 401.587 783.822C401.592 783.493 401.686 783.194 401.869 782.927C402.053 782.63 402.295 782.394 402.597 782.218C402.9 782.013 403.216 781.852 403.547 781.737C403.878 781.621 404.193 781.566 404.493 781.57C405.152 781.578 405.748 781.796 406.281 782.222C406.815 782.649 407.287 783.164 407.698 783.769C408.139 784.374 408.505 785.023 408.795 785.715C409.116 786.379 409.378 786.951 409.581 787.433C409.807 788.484 409.955 789.684 410.027 791.033C410.129 792.352 410.126 793.7 410.018 795.076C409.91 796.453 409.682 797.812 409.334 799.155C408.987 800.469 408.507 801.675 407.893 802.775C407.28 803.875 406.489 804.793 405.52 805.529C404.582 806.265 403.468 806.714 402.178 806.877C401.489 806.868 400.968 806.636 400.615 806.182C400.262 805.698 400 805.126 399.829 804.464C399.688 803.774 399.608 803.084 399.587 802.395C399.596 801.706 399.604 801.137 399.61 800.688ZM401.903 800.584C401.899 800.883 401.895 801.167 401.891 801.437C401.917 801.707 401.944 801.977 401.97 802.247C402.027 802.487 402.083 802.757 402.139 803.058C402.225 803.328 402.326 803.644 402.441 804.005L402.71 804.009C403.429 804.018 404.046 803.787 404.562 803.315C405.077 802.842 405.519 802.234 405.889 801.49C406.259 800.717 406.569 799.867 406.821 798.942C407.074 797.987 407.266 797.061 407.398 796.164C407.56 795.238 407.661 794.386 407.701 793.608C407.772 792.8 407.811 792.157 407.817 791.677L407.829 790.779C407.834 790.39 407.825 789.955 407.802 789.476C407.778 788.966 407.725 788.457 407.642 787.946C407.59 787.406 407.491 786.926 407.347 786.505C407.203 786.053 407.014 785.692 406.778 785.419C406.542 785.146 406.229 785.007 405.84 785.002C405.184 784.784 404.614 784.821 404.131 785.114C403.678 785.407 403.297 785.911 402.988 786.626C402.709 787.311 402.488 788.162 402.325 789.178C402.161 790.194 402.056 791.316 402.01 792.543C401.964 793.771 401.931 795.073 401.913 796.451C401.924 797.828 401.921 799.206 401.903 800.584ZM412.125 785.356L412.129 784.996C412.133 784.697 412.241 784.489 412.452 784.372C412.693 784.255 412.964 784.199 413.263 784.203C413.503 784.206 413.727 784.239 413.936 784.302C414.145 784.334 414.307 784.501 414.423 784.802C414.507 785.253 414.588 785.883 414.667 786.692C414.747 787.472 414.84 788.342 414.947 789.302C415.054 790.262 415.16 791.281 415.266 792.361C415.401 793.411 415.523 794.416 415.63 795.376C415.767 796.306 415.905 797.147 416.045 797.897C416.185 798.648 416.342 799.219 416.516 799.611C416.465 796.735 416.588 794.251 416.886 792.158C417.184 790.036 417.716 788.321 418.482 787.013C419.278 785.676 420.339 784.762 421.663 784.27C423.018 783.749 424.697 783.652 426.699 783.978C427.627 783.99 428.085 784.491 428.072 785.479C428.066 785.868 427.808 786.134 427.297 786.277C426.787 786.39 426.216 786.472 425.587 786.524C424.957 786.545 424.343 786.582 423.743 786.634C423.144 786.686 422.707 786.83 422.435 787.066C421.349 787.65 420.573 788.568 420.107 789.82C419.671 791.072 419.351 792.55 419.149 794.255C418.946 795.959 418.787 797.829 418.67 799.864C418.583 801.87 418.361 803.933 418.003 806.055C417.999 806.355 417.876 806.578 417.634 806.724C417.393 806.871 417.092 806.941 416.733 806.937C416.404 806.932 416.075 806.853 415.748 806.699C415.45 806.545 415.214 806.317 415.038 806.015L412.125 785.356ZM451.51 806.638C451.536 804.691 451.518 802.639 451.457 800.482C451.426 798.325 451.38 796.153 451.32 793.966C451.289 791.749 451.303 789.578 451.362 787.452C451.42 785.327 451.582 783.337 451.846 781.484C451.906 781.455 452.041 781.441 452.251 781.444C452.491 781.418 452.656 781.405 452.745 781.406C453.165 781.412 453.493 781.491 453.731 781.644C453.999 781.767 454.129 782.053 454.123 782.503C454.1 784.269 454.059 786.201 454.001 788.296C453.973 790.363 453.93 792.474 453.872 794.629C453.843 796.755 453.815 798.866 453.787 800.963C453.759 803.059 453.763 804.961 453.8 806.668C453.824 807.178 453.714 807.506 453.473 807.652C453.261 807.829 452.99 807.915 452.661 807.911C452.301 807.906 452.003 807.812 451.766 807.63C451.528 807.477 451.443 807.146 451.51 806.638ZM450.951 774.463C450.956 774.104 451.079 773.866 451.32 773.749C451.561 773.633 451.832 773.577 452.131 773.581C452.73 773.589 453.102 773.788 453.246 774.18C453.391 774.571 453.46 775.021 453.453 775.53C453.269 775.857 453.041 776.094 452.77 776.24C452.498 776.356 452.214 776.382 451.915 776.318C451.647 776.225 451.41 776.027 451.204 775.725C451.028 775.423 450.944 775.002 450.951 774.463ZM460.445 806.982C460.445 807.012 460.762 806.836 461.396 806.455C462.06 806.075 462.83 805.576 463.707 804.959C464.614 804.312 465.537 803.621 466.475 802.884C467.414 802.118 468.187 801.395 468.795 800.714C469.404 800.033 469.726 799.454 469.762 798.975C469.829 798.467 469.429 798.132 468.563 797.97C467.487 797.806 466.573 797.809 465.822 797.979C465.101 798.149 464.439 798.35 463.837 798.581C463.235 798.813 462.663 799.03 462.121 799.232C461.609 799.435 461.039 799.502 460.411 799.434C459.094 799.416 458.186 799 457.688 798.184C457.22 797.34 456.995 796.213 457.014 794.806C457.033 793.399 457.365 792.07 458.011 790.821C458.657 789.542 459.48 788.445 460.481 787.529C461.481 786.614 462.629 785.896 463.924 785.374C465.219 784.822 466.541 784.555 467.888 784.573C468.427 784.581 468.891 784.632 469.279 784.727C469.667 784.822 469.857 785.169 469.849 785.768C469.843 786.187 469.658 786.589 469.294 786.973C468.929 787.328 468.523 787.502 468.074 787.496C468.044 787.496 467.969 787.48 467.85 787.448C467.731 787.387 467.612 787.31 467.493 787.219C467.375 787.127 467.256 787.066 467.136 787.034C467.017 786.973 466.943 786.942 466.913 786.942C465.958 786.659 465.028 786.782 464.123 787.309C463.217 787.836 462.399 788.558 461.668 789.477C460.967 790.366 460.4 791.347 459.966 792.419C459.533 793.462 459.311 794.402 459.299 795.241C459.295 795.57 459.351 795.841 459.468 796.052C459.616 796.233 459.793 796.371 460.002 796.463C460.24 796.556 460.494 796.62 460.763 796.653C461.063 796.657 461.362 796.661 461.661 796.665C462.26 796.673 462.86 796.591 463.462 796.42C464.093 796.248 464.695 796.047 465.267 795.815C465.869 795.583 466.471 795.382 467.072 795.21C467.703 795.039 468.348 794.957 469.007 794.966C469.307 794.97 469.635 795.065 469.992 795.249C470.349 795.404 470.675 795.648 470.97 795.981C471.266 796.284 471.515 796.647 471.719 797.069C471.924 797.461 472.038 797.897 472.061 798.377C472.235 798.798 472.168 799.351 471.859 800.036C471.581 800.721 471.152 801.449 470.572 802.22C469.993 802.991 469.294 803.776 468.474 804.573C467.655 805.341 466.837 806.049 466.02 806.697C465.203 807.315 464.403 807.813 463.619 808.192C462.835 808.601 462.173 808.787 461.635 808.75C461.036 808.742 460.679 808.557 460.564 808.196C460.479 807.836 460.439 807.431 460.445 806.982ZM498.281 806.409C499.169 804.954 500.027 803.468 500.856 801.951C501.715 800.405 502.47 798.858 503.119 797.309C503.799 795.731 504.345 794.136 504.756 792.524C505.167 790.882 505.399 789.193 505.452 787.457C505.166 786.464 504.847 785.696 504.495 785.153C504.173 784.579 503.682 784.363 503.021 784.504C502.361 784.615 501.455 785.127 500.305 786.04C499.155 786.953 497.593 788.37 495.621 790.29C495.354 790.107 495.087 789.909 494.82 789.696C494.584 789.453 494.468 789.182 494.472 788.882C494.472 788.852 494.473 788.807 494.473 788.748C494.504 788.658 494.52 788.598 494.521 788.568C495.098 787.947 495.751 787.237 496.481 786.438C497.24 785.64 498.059 784.887 498.937 784.18C499.815 783.473 500.721 782.901 501.656 782.464C502.62 781.998 503.642 781.772 504.72 781.786C505.761 782.279 506.5 783.068 506.934 784.152C507.369 785.206 507.578 786.437 507.559 787.844C507.57 789.222 507.401 790.702 507.05 792.285C506.7 793.838 506.23 795.389 505.64 796.939C505.08 798.488 504.447 799.963 503.739 801.361C503.062 802.759 502.402 803.949 501.76 804.928L513.846 801.451C513.876 801.451 513.951 801.452 514.071 801.454C514.221 801.426 514.341 801.413 514.431 801.414C514.581 801.416 514.76 801.433 514.969 801.466C515.178 801.499 515.357 801.546 515.506 801.608C515.685 801.67 515.834 801.762 515.952 801.883C516.1 802.005 516.173 802.156 516.171 802.336C515.083 803.01 513.818 803.562 512.375 803.992C510.961 804.422 509.488 804.837 507.955 805.236C506.453 805.605 504.98 805.975 503.538 806.345C502.095 806.715 500.801 807.162 499.656 807.686C499.267 807.68 498.938 807.631 498.67 807.538C498.402 807.414 498.272 807.038 498.281 806.409ZM180.911 844.356C180.941 842.14 181.24 839.928 181.808 837.719C182.377 835.511 183.139 833.379 184.095 831.325C185.052 829.242 186.171 827.25 187.455 825.35C188.768 823.451 190.154 821.702 191.613 820.105C191.643 820.105 191.703 820.106 191.793 820.107C191.883 820.078 191.943 820.064 191.973 820.065C192.302 820.069 192.525 820.207 192.641 820.478C192.758 820.719 192.814 820.989 192.81 821.289C192.809 821.349 192.808 821.453 192.806 821.603C192.804 821.723 192.803 821.813 192.802 821.873C191.433 823.472 190.168 825.147 189.006 826.899C187.845 828.62 186.833 830.419 185.969 832.294C185.135 834.17 184.465 836.123 183.959 838.152C183.483 840.153 183.231 842.216 183.202 844.342C183.184 845.69 183.331 847.069 183.641 848.481C183.982 849.893 184.488 851.218 185.161 852.455C185.863 853.692 186.747 854.767 187.813 855.68C188.909 856.593 190.219 857.195 191.742 857.485C191.26 857.718 190.854 857.877 190.523 857.963C190.222 858.048 189.847 858.088 189.398 858.082C188.44 858.07 187.56 857.818 186.758 857.328C185.986 856.839 185.29 856.2 184.672 855.413C184.053 854.626 183.496 853.75 183 852.785C182.534 851.791 182.143 850.782 181.827 849.76C181.511 848.737 181.27 847.761 181.103 846.83C180.966 845.87 180.902 845.045 180.911 844.356ZM195.332 857.802C195.214 855.435 195.188 852.918 195.253 850.254C195.349 847.589 195.462 844.716 195.593 841.632C195.724 838.549 195.844 835.211 195.952 831.619C196.09 827.997 196.158 824.044 196.155 819.761C196.485 819.765 196.829 819.755 197.189 819.73C197.549 819.675 197.864 819.664 198.133 819.698C198.432 819.732 198.67 819.825 198.848 819.977C199.055 820.129 199.157 820.4 199.151 820.789C199.137 821.897 199.075 823.184 198.965 824.651C198.886 826.087 198.775 827.673 198.632 829.408C198.489 831.114 198.36 832.954 198.244 834.929C198.157 836.905 198.1 838.985 198.07 841.171C199.137 839.808 200.125 838.698 201.035 837.842C201.945 836.985 202.808 836.308 203.623 835.81C204.439 835.281 205.237 834.963 206.017 834.853C206.797 834.714 207.562 834.679 208.309 834.749C209.178 834.761 209.878 835.01 210.411 835.496C210.974 835.983 211.4 836.587 211.69 837.31C211.979 838.033 212.178 838.844 212.286 839.744C212.394 840.614 212.443 841.468 212.431 842.307C212.423 842.906 212.37 843.549 212.271 844.236C212.202 844.894 212.028 845.626 211.747 846.431C211.467 847.236 211.037 848.069 210.456 848.929C209.906 849.761 209.13 850.649 208.129 851.594C207.128 852.539 205.857 853.51 204.317 854.508C202.806 855.506 200.965 856.53 198.794 857.579C198.073 857.779 197.487 857.906 197.037 857.96C196.618 857.984 196.273 857.995 196.004 857.991C195.764 857.958 195.585 857.925 195.466 857.894C195.376 857.863 195.332 857.832 195.332 857.802ZM197.3 855.133C197.451 855.045 197.857 854.856 198.52 854.565C199.183 854.245 199.968 853.836 200.873 853.339C201.778 852.842 202.759 852.241 203.817 851.536C204.875 850.832 205.844 850.006 206.725 849.059C207.637 848.113 208.415 847.045 209.06 845.856C209.704 844.666 210.096 843.354 210.235 841.918C210.241 841.499 210.187 841.049 210.074 840.568C209.96 840.087 209.772 839.636 209.508 839.213C209.274 838.79 208.964 838.442 208.578 838.167C208.193 837.862 207.731 837.706 207.192 837.699C206.084 837.684 205.032 837.97 204.036 838.556C203.069 839.142 202.176 839.878 201.355 840.766C200.535 841.654 199.803 842.617 199.16 843.657C198.518 844.667 197.996 845.603 197.595 846.466L197.3 855.133ZM226.436 853.321C226.311 853.679 226.005 854.169 225.518 854.791C225.061 855.384 224.513 855.991 223.876 856.611C223.239 857.202 222.573 857.732 221.878 858.202C221.213 858.642 220.626 858.859 220.117 858.852C219.159 858.84 218.371 858.38 217.755 857.473C217.168 856.567 216.719 855.408 216.408 853.996C216.098 852.584 215.894 851.024 215.797 849.315C215.701 847.577 215.648 845.884 215.64 844.237C215.632 842.589 215.637 841.092 215.655 839.744C215.673 838.397 215.642 837.378 215.562 836.688C215.685 836.39 215.837 836.212 216.018 836.155C216.228 836.098 216.468 836.071 216.738 836.075C216.977 836.078 217.187 836.111 217.365 836.173C217.574 836.236 217.752 836.418 217.897 836.719C217.893 837.049 217.885 837.603 217.875 838.381C217.895 839.16 217.928 840.044 217.974 841.033C218.021 841.992 218.068 843.011 218.113 844.09C218.159 845.139 218.191 846.143 218.208 847.101C218.255 848.06 218.288 848.929 218.308 849.708C218.358 850.458 218.395 851.012 218.42 851.372C218.447 851.582 218.473 851.927 218.496 852.406C218.55 852.886 218.618 853.396 218.7 853.937C218.813 854.447 218.942 854.913 219.086 855.334C219.26 855.756 219.482 855.984 219.751 856.017C220.2 856.023 220.652 855.835 221.106 855.451C221.591 855.068 222.061 854.58 222.518 853.988C222.976 853.395 223.404 852.741 223.803 852.028C224.201 851.314 224.555 850.63 224.863 849.976C225.202 849.291 225.45 848.681 225.607 848.144C225.793 847.607 225.903 847.219 225.937 846.98C226.003 846.472 226.073 845.754 226.145 844.826C226.218 843.869 226.276 842.851 226.321 841.774C226.365 840.696 226.394 839.678 226.406 838.72C226.449 837.762 226.474 837.028 226.481 836.519L228.949 836.687C228.947 839.113 228.903 841.314 228.816 843.29C228.73 845.235 228.691 847.077 228.698 848.814C228.705 850.521 228.817 852.185 229.035 853.805C229.253 855.425 229.665 857.108 230.271 858.853C230.179 858.942 229.998 859.059 229.727 859.205C229.455 859.382 229.259 859.469 229.139 859.467C228.391 859.457 227.885 859.196 227.622 858.683C227.389 858.201 227.232 857.63 227.151 856.97C227.1 856.28 227.049 855.606 226.998 854.946C226.977 854.257 226.79 853.715 226.436 853.321ZM234.259 839.454C233.957 839.599 233.671 839.76 233.399 839.936C233.157 840.083 232.916 840.229 232.674 840.376C232.433 840.493 232.192 840.579 231.952 840.636C231.711 840.693 231.457 840.689 231.188 840.626C231.008 840.623 230.86 840.516 230.743 840.305C230.626 840.064 230.54 839.808 230.484 839.538C230.398 839.237 230.342 838.952 230.316 838.682C230.29 838.382 230.293 838.158 230.325 838.008L234.67 835.596L235.093 824.1C235.158 823.712 235.4 823.565 235.818 823.661C236.236 823.726 236.669 823.822 237.117 823.948C237.176 823.948 237.266 823.98 237.385 824.041C237.534 824.073 237.639 824.104 237.698 824.135C237.627 824.943 237.541 825.825 237.438 826.782C237.366 827.71 237.293 828.652 237.221 829.61C237.148 830.537 237.091 831.45 237.049 832.348C237.037 833.246 237.071 834.055 237.152 834.775L243.914 832.979C244.035 832.95 244.123 833.041 244.18 833.252C244.268 833.433 244.34 833.658 244.396 833.929C244.482 834.199 244.538 834.47 244.565 834.739C244.591 835.009 244.604 835.144 244.604 835.144L236.925 838.276C236.921 838.546 236.928 839.19 236.944 840.208C236.99 841.227 237.034 842.441 237.075 843.849C237.117 845.227 237.157 846.726 237.195 848.343C237.233 849.931 237.274 851.414 237.315 852.793C237.357 854.171 237.385 855.384 237.401 856.433C237.417 857.451 237.424 858.095 237.42 858.365C237.348 859.262 237.073 859.708 236.594 859.702C236.145 859.696 235.653 859.464 235.12 859.008L234.259 839.454ZM266.58 858.171C266.606 856.224 266.588 854.172 266.527 852.015C266.496 849.858 266.45 847.686 266.39 845.499C266.359 843.282 266.374 841.111 266.432 838.985C266.49 836.86 266.652 834.87 266.916 833.017C266.976 832.987 267.111 832.974 267.321 832.977C267.561 832.95 267.726 832.938 267.816 832.939C268.235 832.944 268.563 833.024 268.801 833.177C269.069 833.3 269.2 833.586 269.194 834.035C269.17 835.802 269.129 837.733 269.071 839.829C269.044 841.895 269 844.006 268.942 846.162C268.913 848.288 268.885 850.399 268.857 852.495C268.829 854.592 268.833 856.494 268.871 858.201C268.894 858.711 268.784 859.039 268.543 859.185C268.331 859.362 268.06 859.448 267.731 859.444C267.371 859.439 267.073 859.345 266.836 859.162C266.598 859.009 266.513 858.679 266.58 858.171ZM266.021 825.996C266.026 825.637 266.149 825.399 266.39 825.282C266.632 825.166 266.902 825.109 267.201 825.113C267.8 825.121 268.172 825.321 268.316 825.712C268.461 826.104 268.53 826.554 268.523 827.063C268.339 827.39 268.111 827.626 267.84 827.773C267.569 827.889 267.284 827.915 266.985 827.851C266.717 827.758 266.48 827.56 266.274 827.258C266.098 826.956 266.014 826.535 266.021 825.996ZM273.427 839.977C273.126 840.123 272.839 840.284 272.567 840.46C272.325 840.607 272.084 840.753 271.842 840.9C271.601 841.016 271.36 841.103 271.12 841.159C270.88 841.216 270.625 841.213 270.356 841.149C270.177 841.147 270.028 841.04 269.911 840.829C269.795 840.588 269.708 840.332 269.652 840.062C269.566 839.761 269.51 839.476 269.484 839.206C269.458 838.906 269.461 838.681 269.493 838.532L273.838 836.119L274.261 824.624C274.326 824.235 274.568 824.089 274.986 824.184C275.404 824.25 275.837 824.345 276.285 824.471C276.345 824.472 276.434 824.503 276.553 824.565C276.703 824.597 276.807 824.628 276.866 824.659C276.796 825.466 276.709 826.349 276.606 827.306C276.534 828.233 276.462 829.176 276.389 830.133C276.317 831.061 276.26 831.973 276.218 832.871C276.206 833.77 276.24 834.579 276.32 835.299L283.083 833.502C283.203 833.474 283.292 833.565 283.349 833.775C283.436 833.956 283.508 834.182 283.564 834.452C283.651 834.723 283.707 834.993 283.733 835.263C283.76 835.533 283.773 835.668 283.773 835.668L276.093 838.8C276.09 839.069 276.096 839.713 276.113 840.732C276.159 841.751 276.202 842.965 276.244 844.373C276.285 845.751 276.325 847.249 276.363 848.867C276.402 850.455 276.442 851.938 276.483 853.316C276.525 854.694 276.554 855.908 276.57 856.956C276.586 857.975 276.592 858.619 276.589 858.888C276.517 859.786 276.241 860.232 275.762 860.225C275.313 860.219 274.822 859.988 274.289 859.532L273.427 839.977ZM305.156 849.252C305.26 848.175 305.365 847.008 305.472 845.752C305.579 844.465 305.731 843.195 305.927 841.939C306.154 840.684 306.424 839.49 306.739 838.356C307.083 837.222 307.516 836.225 308.037 835.363C308.588 834.472 309.256 833.777 310.041 833.279C310.827 832.75 311.774 832.508 312.881 832.553C313.63 832.563 314.195 832.885 314.576 833.519C314.986 834.153 315.261 834.921 315.398 835.821C315.566 836.722 315.644 837.651 315.631 838.61C315.648 839.538 315.653 840.302 315.645 840.901C315.046 840.893 314.555 840.632 314.173 840.118C313.791 839.573 313.5 838.956 313.299 838.264C313.099 837.572 312.958 836.897 312.877 836.237L312.76 834.932C312.73 834.932 312.67 834.931 312.58 834.93C312.521 834.899 312.476 834.884 312.446 834.883C311.937 834.876 311.454 835.154 310.997 835.717C310.57 836.281 310.156 837.009 309.755 837.902C309.384 838.766 309.056 839.75 308.772 840.854C308.488 841.929 308.249 842.989 308.056 844.034C307.862 845.08 307.699 846.051 307.567 846.948C307.466 847.815 307.412 848.488 307.406 848.967C307.335 849.745 307.324 850.599 307.371 851.528C307.419 852.457 307.587 853.328 307.876 854.14C308.164 854.953 308.574 855.662 309.105 856.268C309.636 856.844 310.35 857.243 311.246 857.465C312.353 857.48 313.254 857.342 313.947 857.052C314.639 856.761 315.199 856.365 315.625 855.861C316.081 855.358 316.433 854.794 316.681 854.168C316.929 853.542 317.162 852.902 317.38 852.246C317.629 851.56 317.878 850.889 318.126 850.234C318.374 849.578 318.727 848.969 319.184 848.406C319.544 848.321 319.799 848.339 319.947 848.461C320.125 848.553 320.243 848.69 320.301 848.87C320.358 849.051 320.385 849.261 320.382 849.5L320.375 849.994C320.359 851.252 320.133 852.462 319.698 853.624C319.263 854.787 318.635 855.826 317.814 856.744C316.994 857.631 316.011 858.352 314.865 858.906C313.75 859.43 312.474 859.683 311.036 859.663C309.839 859.647 308.84 859.26 308.042 858.5C307.274 857.711 306.672 856.775 306.238 855.691C305.833 854.607 305.548 853.48 305.384 852.31C305.221 851.11 305.144 850.09 305.156 849.252ZM323.022 853.669C322.831 852.288 322.744 850.954 322.761 849.667C322.779 848.349 322.871 847.018 323.039 845.672C323.237 844.327 323.495 842.938 323.813 841.504C324.162 840.041 324.558 838.474 324.999 836.803C325.004 836.474 325.098 836.175 325.281 835.908C325.465 835.611 325.707 835.375 326.009 835.199C326.312 834.994 326.628 834.833 326.959 834.718C327.29 834.602 327.605 834.547 327.905 834.551C328.564 834.559 329.16 834.777 329.693 835.204C330.227 835.63 330.699 836.145 331.11 836.75C331.551 837.355 331.917 838.004 332.207 838.696C332.528 839.36 332.79 839.932 332.993 840.414C333.218 841.465 333.367 842.665 333.439 844.014C333.541 845.333 333.538 846.681 333.43 848.057C333.322 849.434 333.094 850.793 332.746 852.136C332.399 853.45 331.919 854.656 331.305 855.756C330.692 856.856 329.901 857.774 328.932 858.51C327.994 859.246 326.88 859.695 325.59 859.858C324.901 859.849 324.38 859.617 324.027 859.163C323.674 858.679 323.412 858.107 323.241 857.445C323.1 856.755 323.02 856.065 322.999 855.376C323.008 854.687 323.016 854.118 323.022 853.669ZM325.315 853.565C325.311 853.864 325.307 854.149 325.303 854.418C325.329 854.688 325.356 854.958 325.382 855.228C325.439 855.468 325.495 855.738 325.551 856.039C325.637 856.309 325.738 856.625 325.853 856.986L326.122 856.99C326.841 856.999 327.458 856.768 327.974 856.296C328.489 855.823 328.931 855.215 329.301 854.471C329.671 853.698 329.981 852.848 330.233 851.923C330.486 850.968 330.678 850.042 330.81 849.145C330.972 848.219 331.073 847.367 331.113 846.589C331.184 845.781 331.223 845.138 331.229 844.658L331.241 843.76C331.246 843.371 331.237 842.936 331.214 842.457C331.19 841.947 331.137 841.438 331.054 840.927C331.002 840.387 330.903 839.907 330.759 839.486C330.615 839.035 330.425 838.673 330.19 838.4C329.954 838.127 329.641 837.988 329.252 837.983C328.596 837.765 328.026 837.802 327.543 838.095C327.09 838.388 326.709 838.892 326.4 839.607C326.121 840.292 325.9 841.143 325.737 842.159C325.573 843.175 325.468 844.297 325.422 845.524C325.376 846.752 325.343 848.054 325.325 849.432C325.336 850.809 325.333 852.187 325.315 853.565ZM346.726 854.929C346.601 855.287 346.295 855.777 345.808 856.399C345.351 856.992 344.803 857.599 344.166 858.219C343.529 858.81 342.863 859.34 342.168 859.81C341.503 860.25 340.916 860.467 340.407 860.46C339.449 860.448 338.662 859.988 338.045 859.081C337.458 858.175 337.009 857.016 336.698 855.604C336.388 854.192 336.184 852.632 336.087 850.923C335.991 849.185 335.938 847.492 335.93 845.844C335.922 844.197 335.927 842.7 335.946 841.352C335.964 840.005 335.932 838.986 335.852 838.296C335.975 837.998 336.127 837.82 336.308 837.763C336.518 837.706 336.758 837.679 337.028 837.683C337.267 837.686 337.477 837.719 337.655 837.781C337.864 837.844 338.042 838.026 338.187 838.327C338.183 838.657 338.175 839.21 338.165 839.989C338.185 840.768 338.218 841.652 338.264 842.641C338.312 843.6 338.358 844.619 338.403 845.698C338.449 846.747 338.481 847.75 338.498 848.709C338.545 849.668 338.578 850.537 338.598 851.316C338.648 852.066 338.685 852.62 338.71 852.98C338.737 853.19 338.763 853.535 338.786 854.014C338.84 854.494 338.908 855.004 338.99 855.544C339.103 856.055 339.232 856.521 339.376 856.942C339.55 857.364 339.772 857.592 340.041 857.625C340.49 857.631 340.942 857.442 341.396 857.059C341.881 856.676 342.351 856.188 342.808 855.595C343.266 855.003 343.694 854.349 344.093 853.636C344.491 852.922 344.845 852.238 345.153 851.584C345.492 850.899 345.74 850.288 345.897 849.751C346.084 849.215 346.194 848.827 346.227 848.588C346.293 848.08 346.363 847.362 346.435 846.434C346.508 845.477 346.566 844.459 346.611 843.382C346.655 842.304 346.684 841.286 346.696 840.328C346.739 839.37 346.764 838.636 346.771 838.127L349.24 838.295C349.237 840.721 349.193 842.922 349.106 844.897C349.02 846.843 348.981 848.685 348.988 850.422C348.995 852.129 349.107 853.793 349.325 855.413C349.543 857.033 349.955 858.716 350.561 860.461C350.47 860.55 350.288 860.667 350.017 860.813C349.745 860.989 349.549 861.077 349.429 861.075C348.681 861.065 348.175 860.804 347.912 860.291C347.679 859.809 347.522 859.238 347.441 858.578C347.39 857.888 347.339 857.213 347.288 856.554C347.268 855.865 347.08 855.323 346.726 854.929ZM354.053 857.947C354.281 856.572 354.439 854.852 354.527 852.787C354.644 850.722 354.704 848.521 354.705 846.185C354.736 843.85 354.723 841.438 354.667 838.952C354.61 836.465 354.522 834.113 354.402 831.895C354.282 829.647 354.129 827.638 353.943 825.869C353.787 824.099 353.611 822.704 353.415 821.683C353.687 821.507 353.913 821.376 354.094 821.288C354.305 821.171 354.546 821.115 354.815 821.118C355.025 821.121 355.204 821.168 355.353 821.26C355.501 821.322 355.619 821.473 355.706 821.714C356.226 827.591 356.551 833.511 356.681 839.473C356.841 845.435 356.942 851.367 356.983 857.268C356.979 857.537 356.974 857.911 356.968 858.39C356.962 858.84 356.944 859.079 356.913 859.109C356.491 859.313 356.115 859.412 355.786 859.408C355.457 859.374 355.159 859.28 354.891 859.126C354.624 858.943 354.417 858.746 354.27 858.534C354.123 858.322 354.051 858.127 354.053 857.947ZM369.36 852.222C369.051 852.906 368.651 853.695 368.16 854.587C367.699 855.479 367.149 856.325 366.509 857.125C365.899 857.926 365.186 858.605 364.37 859.163C363.554 859.721 362.652 859.994 361.664 859.981C361.214 859.975 360.856 859.925 360.587 859.832C360.349 859.709 360.127 859.541 359.92 859.328C359.743 859.116 359.567 858.859 359.391 858.558C359.246 858.256 359.055 857.924 358.821 857.562C358.751 856.093 358.712 854.52 358.704 852.843C358.727 851.136 358.839 849.445 359.041 847.771C359.244 846.066 359.565 844.468 360.004 842.977C360.473 841.485 361.104 840.221 361.897 839.183C362.719 838.146 363.732 837.411 364.936 836.977C366.14 836.544 367.593 836.534 369.294 836.946C369.396 836.109 369.426 834.986 369.384 833.578C369.343 832.169 369.273 830.686 369.174 829.127C369.075 827.568 368.976 826.07 368.875 824.631C368.775 823.162 368.716 821.963 368.699 821.034C368.702 820.765 368.824 820.572 369.066 820.455C369.337 820.309 369.623 820.223 369.923 820.197C370.223 820.171 370.507 820.175 370.776 820.208C371.075 820.242 371.269 820.29 371.358 820.351C371.249 824.033 371.186 827.657 371.168 831.22C371.151 834.754 371.133 838.288 371.116 841.822C371.129 845.327 371.143 848.816 371.156 852.29C371.169 855.765 371.153 859.239 371.106 862.713C371.102 863.042 371.068 863.386 371.003 863.745C370.968 864.133 370.711 864.325 370.231 864.318C370.052 864.316 369.873 864.254 369.695 864.131C369.516 864.039 369.399 863.888 369.341 863.677L369.36 852.222ZM367.603 839.17C366.675 839.097 365.802 839.46 364.982 840.258C364.193 841.026 363.491 842.035 362.875 843.284C362.289 844.535 361.807 845.921 361.427 847.443C361.048 848.936 360.804 850.385 360.695 851.791C360.617 853.168 360.69 854.397 360.915 855.478C361.17 856.56 361.625 857.3 362.278 857.698C362.937 857.707 363.554 857.46 364.13 856.959C364.706 856.427 365.239 855.761 365.729 854.958C366.219 854.156 366.65 853.264 367.023 852.28C367.396 851.267 367.708 850.298 367.96 849.373C368.242 848.448 368.448 847.612 368.578 846.865C368.738 846.088 368.821 845.505 368.826 845.116C368.83 844.817 368.851 844.338 368.89 843.679C368.929 843.021 368.923 842.362 368.871 841.702C368.82 841.043 368.693 840.457 368.491 839.945C368.318 839.434 368.022 839.175 367.603 839.17ZM395.396 860.477C395.278 858.109 395.252 855.593 395.318 852.928C395.413 850.264 395.526 847.39 395.657 844.307C395.788 841.224 395.908 837.886 396.016 834.293C396.154 830.671 396.222 826.718 396.219 822.435C396.549 822.44 396.893 822.429 397.253 822.404C397.613 822.349 397.928 822.338 398.197 822.372C398.496 822.406 398.734 822.499 398.912 822.651C399.12 822.804 399.221 823.074 399.216 823.464C399.201 824.572 399.139 825.859 399.029 827.325C398.95 828.761 398.839 830.347 398.696 832.083C398.553 833.788 398.424 835.628 398.308 837.603C398.221 839.579 398.164 841.66 398.135 843.846C399.201 842.482 400.189 841.372 401.099 840.516C402.009 839.659 402.872 838.982 403.687 838.484C404.503 837.956 405.301 837.637 406.081 837.527C406.862 837.388 407.626 837.353 408.374 837.423C409.242 837.435 409.943 837.684 410.475 838.17C411.038 838.657 411.464 839.262 411.754 839.984C412.044 840.707 412.242 841.518 412.35 842.418C412.458 843.288 412.507 844.143 412.496 844.981C412.488 845.58 412.434 846.223 412.335 846.911C412.266 847.569 412.092 848.3 411.812 849.105C411.531 849.91 411.101 850.743 410.52 851.604C409.97 852.435 409.194 853.323 408.193 854.268C407.192 855.213 405.921 856.185 404.381 857.182C402.87 858.18 401.029 859.204 398.859 860.253C398.137 860.453 397.551 860.58 397.101 860.634C396.682 860.658 396.337 860.669 396.068 860.665C395.829 860.632 395.649 860.6 395.53 860.568C395.44 860.537 395.396 860.506 395.396 860.477ZM397.364 857.807C397.515 857.719 397.922 857.53 398.584 857.24C399.248 856.919 400.032 856.51 400.937 856.013C401.842 855.516 402.824 854.915 403.881 854.21C404.939 853.506 405.908 852.68 406.79 851.734C407.701 850.787 408.479 849.719 409.124 848.53C409.769 847.341 410.16 846.028 410.299 844.592C410.305 844.173 410.251 843.723 410.138 843.242C410.024 842.762 409.836 842.31 409.572 841.887C409.338 841.465 409.028 841.116 408.642 840.841C408.257 840.537 407.795 840.381 407.256 840.374C406.148 840.359 405.096 840.644 404.1 841.23C403.133 841.816 402.24 842.553 401.42 843.44C400.599 844.328 399.867 845.291 399.224 846.331C398.582 847.341 398.06 848.277 397.659 849.141L397.364 857.807ZM416.454 851.369C416.303 851.396 416.078 851.438 415.778 851.494C415.478 851.55 415.163 851.561 414.834 851.527C414.505 851.492 414.222 851.399 413.984 851.246C413.717 851.092 413.585 850.836 413.59 850.477C413.593 850.267 413.64 850.118 413.731 850.029C413.822 849.941 413.974 849.808 414.186 849.631C414.852 849.101 415.415 848.419 415.875 847.587C416.366 846.725 416.812 845.817 417.214 844.864C417.617 843.881 418.034 842.914 418.466 841.961C418.929 840.979 419.449 840.102 420.029 839.331C420.608 838.56 421.32 837.941 422.165 837.473C423.01 837.005 424.046 836.794 425.274 836.841C425.783 836.847 426.35 836.975 426.976 837.223C427.601 837.471 428.181 837.808 428.714 838.234C429.248 838.631 429.691 839.116 430.043 839.69C430.394 840.263 430.566 840.895 430.556 841.583C430.703 841.825 430.549 842.167 430.093 842.611C429.668 843.054 429.078 843.54 428.322 844.069C427.566 844.569 426.706 845.096 425.74 845.652C424.804 846.179 423.899 846.676 423.024 847.143C422.149 847.611 421.38 848.02 420.717 848.371C420.053 848.721 419.615 848.985 419.403 849.162C419.25 849.459 419.125 849.802 419.03 850.19C418.935 850.578 418.855 850.951 418.79 851.31C418.756 851.639 418.722 851.953 418.688 852.252C418.684 852.521 418.682 852.731 418.68 852.881C418.672 853.45 418.634 854.078 418.565 854.766C418.525 855.455 418.547 856.114 418.628 856.744C418.74 857.344 418.988 857.857 419.371 858.281C419.755 858.676 420.411 858.879 421.34 858.892C422.328 858.905 423.259 858.678 424.134 858.21C425.01 857.713 425.826 857.11 426.584 856.401C427.343 855.692 428.027 854.923 428.637 854.092C429.277 853.262 429.841 852.491 430.33 851.779C430.849 851.037 431.307 850.429 431.702 849.955C432.098 849.481 432.431 849.246 432.7 849.25C433 849.254 433.313 849.318 433.641 849.442C433.999 849.536 434.176 849.778 434.17 850.168C434.163 850.707 433.93 851.348 433.471 852.09C433.042 852.833 432.462 853.619 431.732 854.448C431.032 855.277 430.212 856.105 429.273 856.931C428.364 857.727 427.441 858.449 426.504 859.095C425.567 859.712 424.646 860.224 423.743 860.631C422.839 861.008 422.043 861.192 421.354 861.183C420.007 861.165 418.993 860.822 418.313 860.154C417.633 859.486 417.15 858.656 416.864 857.664C416.607 856.672 416.472 855.622 416.456 854.513C416.472 853.375 416.471 852.327 416.454 851.369ZM424.881 839.351C424.371 839.344 423.829 839.592 423.253 840.093C422.678 840.565 422.131 841.156 421.612 841.868C421.124 842.551 420.71 843.264 420.371 844.008C420.062 844.723 419.904 845.32 419.897 845.799C420.347 845.805 420.993 845.649 421.836 845.331C422.709 844.983 423.568 844.56 424.413 844.062C425.259 843.564 425.999 843.035 426.636 842.475C427.272 841.914 427.594 841.379 427.601 840.87C427.604 840.601 427.503 840.375 427.295 840.192C427.088 840.01 426.836 839.857 426.538 839.733C426.27 839.609 425.987 839.516 425.688 839.452C425.389 839.388 425.12 839.354 424.881 839.351ZM463.462 860.263C463.468 859.784 463.729 859.293 464.245 858.791C464.791 858.289 465.442 857.759 466.198 857.2C466.985 856.611 467.847 855.994 468.784 855.348C469.721 854.671 470.57 853.949 471.329 853.18C472.118 852.382 472.773 851.537 473.294 850.646C473.846 849.725 474.129 848.74 474.143 847.692C474.153 846.943 473.996 846.327 473.673 845.844C473.38 845.331 472.996 844.936 472.521 844.66C472.045 844.384 471.494 844.197 470.866 844.099C470.269 843.971 469.671 843.903 469.072 843.895C468.414 843.827 467.784 843.923 467.181 844.185C466.609 844.417 466.021 844.708 465.417 845.06C464.844 845.381 464.27 845.733 463.696 846.115C463.152 846.467 462.609 846.759 462.067 846.991C461.555 847.194 461.045 847.262 460.537 847.196C460.058 847.129 459.568 846.853 459.065 846.367L459.067 846.233C459.068 846.143 459.084 846.098 459.114 846.098L467.232 837.042C468.116 835.856 468.563 834.933 468.571 834.275C468.61 833.616 468.376 833.179 467.87 832.962C467.394 832.716 466.721 832.662 465.851 832.801C464.98 832.939 464.078 833.211 463.144 833.618C462.241 833.995 461.366 834.478 460.519 835.065C459.673 835.653 459.05 836.274 458.652 836.927C458.622 836.927 458.562 836.941 458.472 836.97C458.412 836.969 458.367 836.968 458.337 836.968C457.978 836.963 457.636 836.809 457.31 836.505C457.015 836.172 456.87 835.825 456.875 835.466C456.88 835.047 457.126 834.631 457.61 834.218C458.095 833.775 458.715 833.364 459.469 832.985C460.223 832.576 461.067 832.197 462 831.851C462.933 831.504 463.85 831.201 464.752 830.944C465.654 830.686 466.496 830.488 467.276 830.349C468.057 830.179 468.657 830.098 469.076 830.103C469.85 830.503 470.352 831.019 470.583 831.651C470.815 832.253 470.851 832.942 470.69 833.719C470.561 834.466 470.281 835.256 469.85 836.089C469.45 836.922 468.974 837.739 468.425 838.541C467.905 839.342 467.37 840.114 466.821 840.855C466.272 841.597 465.814 842.234 465.448 842.769C466.082 842.388 466.758 842.202 467.477 842.212C468.226 842.192 468.945 842.186 469.634 842.196C470.412 842.206 471.204 842.322 472.01 842.542C472.816 842.762 473.545 843.102 474.198 843.56C474.851 843.988 475.383 844.534 475.793 845.198C476.204 845.833 476.404 846.599 476.392 847.497C476.372 848.995 475.948 850.427 475.121 851.793C474.294 853.16 473.289 854.449 472.104 855.662C470.92 856.874 469.647 857.995 468.286 859.025C466.924 860.025 465.699 860.922 464.611 861.716C464.343 861.563 464.076 861.365 463.81 861.121C463.573 860.879 463.458 860.593 463.462 860.263ZM485.396 846.09C485.418 844.383 485.32 842.75 485.102 841.189C484.913 839.63 484.558 838.157 484.038 836.772C483.547 835.388 482.861 834.061 481.979 832.792C481.128 831.492 480.021 830.264 478.659 829.108C478.63 829.048 478.616 828.958 478.618 828.838L478.621 828.569C478.625 828.269 478.689 828 478.812 827.762C478.935 827.494 479.177 827.363 479.536 827.368L479.671 827.37C479.73 827.37 479.775 827.386 479.805 827.416C481.285 828.694 482.496 829.983 483.437 831.284C484.408 832.584 485.168 833.957 485.718 835.402C486.268 836.847 486.651 838.395 486.869 840.045C487.087 841.665 487.183 843.434 487.158 845.35C487.139 846.728 487.029 848.209 486.829 849.793C486.658 851.349 486.338 852.872 485.869 854.363C485.4 855.824 484.767 857.224 483.971 858.561C483.204 859.898 482.231 861.023 481.051 861.936L481.058 861.352C481.072 860.334 481.296 859.274 481.73 858.171C482.194 857.039 482.69 855.833 483.216 854.552C483.742 853.271 484.224 851.945 484.662 850.573C485.13 849.172 485.374 847.677 485.396 846.09Z" fill="#333333"/>
<path d="M918.939 588.939C919.525 588.354 920.475 588.354 921.061 588.939L930.607 598.485C931.192 599.071 931.192 600.021 930.607 600.607C930.021 601.192 929.071 601.192 928.485 600.607L920 592.121L911.515 600.607C910.929 601.192 909.979 601.192 909.393 600.607C908.808 600.021 908.808 599.071 909.393 598.485L918.939 588.939ZM514.037 844.501C594.557 846.489 695.732 800.709 776.904 745.262C817.457 717.561 852.927 687.508 878.239 659.924C890.896 646.13 900.985 632.983 907.902 621.082C914.836 609.153 918.5 598.614 918.5 590H921.5C921.5 599.386 917.539 610.472 910.496 622.59C903.437 634.736 893.198 648.058 880.449 661.952C854.948 689.742 819.293 719.94 778.596 747.739C697.268 803.292 595.443 849.512 513.963 847.5L514.037 844.501Z" fill="black"/>
<path d="M548.747 596.699C548.029 596.287 547.112 596.534 546.699 597.253L539.975 608.959C539.562 609.677 539.81 610.594 540.528 611.007C541.246 611.419 542.163 611.171 542.576 610.453L548.553 600.048L558.959 606.025C559.677 606.438 560.594 606.19 561.007 605.472C561.419 604.754 561.171 603.837 560.453 603.424L548.747 596.699ZM528.878 817.216C538.267 810.435 545.394 797.814 550.552 781.836C555.726 765.81 558.991 746.183 560.496 725.107C563.507 682.962 559.497 634.791 549.448 597.609L546.552 598.391C556.503 635.209 560.493 683.038 557.504 724.893C556.009 745.817 552.774 765.19 547.698 780.914C542.606 796.686 535.733 808.565 527.122 814.784L528.878 817.216Z" fill="black"/>
</svg>
