<svg width="1200" height="900" viewBox="0 0 1200 900" fill="none" xmlns="http://www.w3.org/2000/svg">
<rect width="1200" height="900" fill="white"/>
<path d="M116.774 397.189C116.49 394.324 115.271 392.099 113.116 390.513C110.962 388.927 108.038 388.134 104.345 388.134C101.836 388.134 99.7169 388.489 97.9886 389.199C96.2604 389.885 94.9347 390.844 94.0114 392.075C93.1117 393.306 92.6619 394.703 92.6619 396.266C92.6146 397.568 92.8868 398.704 93.4787 399.675C94.0942 400.645 94.9347 401.486 96 402.196C97.0653 402.883 98.2964 403.486 99.6932 404.007C101.09 404.504 102.581 404.93 104.168 405.286L110.702 406.848C113.874 407.558 116.786 408.505 119.438 409.689C122.089 410.873 124.385 412.329 126.327 414.057C128.268 415.785 129.771 417.821 130.837 420.165C131.926 422.509 132.482 425.196 132.506 428.226C132.482 432.677 131.346 436.536 129.097 439.803C126.871 443.046 123.652 445.567 119.438 447.366C115.247 449.142 110.193 450.03 104.274 450.03C98.4029 450.03 93.2893 449.13 88.9332 447.331C84.6009 445.532 81.2154 442.868 78.777 439.341C76.3622 435.79 75.0956 431.398 74.9773 426.166H89.8565C90.0223 428.605 90.7206 430.641 91.9517 432.274C93.2064 433.884 94.8755 435.103 96.9588 435.932C99.0658 436.737 101.445 437.139 104.097 437.139C106.701 437.139 108.962 436.76 110.879 436.003C112.821 435.245 114.324 434.192 115.389 432.842C116.455 431.493 116.987 429.942 116.987 428.19C116.987 426.557 116.502 425.184 115.531 424.071C114.584 422.958 113.188 422.011 111.341 421.23C109.518 420.449 107.281 419.739 104.629 419.099L96.7102 417.111C90.5786 415.619 85.7372 413.287 82.1861 410.115C78.6349 406.943 76.8712 402.67 76.8949 397.295C76.8712 392.892 78.0431 389.045 80.4105 385.754C82.8016 382.464 86.0805 379.895 90.2472 378.048C94.4138 376.202 99.1487 375.278 104.452 375.278C109.849 375.278 114.561 376.202 118.585 378.048C122.634 379.895 125.782 382.464 128.031 385.754C130.28 389.045 131.44 392.857 131.511 397.189H116.774ZM164.578 450.065C158.99 450.065 154.185 448.882 150.16 446.514C146.159 444.123 143.081 440.809 140.927 436.571C138.796 432.333 137.731 427.456 137.731 421.94C137.731 416.353 138.808 411.453 140.963 407.239C143.141 403.001 146.23 399.698 150.231 397.331C154.232 394.94 158.99 393.744 164.507 393.744C169.265 393.744 173.432 394.608 177.007 396.337C180.581 398.065 183.41 400.491 185.494 403.616C187.577 406.741 188.725 410.411 188.938 414.625H174.663C174.26 411.902 173.195 409.713 171.467 408.055C169.762 406.375 167.525 405.534 164.755 405.534C162.411 405.534 160.364 406.173 158.612 407.452C156.883 408.706 155.534 410.541 154.563 412.956C153.593 415.371 153.107 418.295 153.107 421.727C153.107 425.207 153.581 428.167 154.528 430.605C155.499 433.044 156.86 434.902 158.612 436.18C160.364 437.459 162.411 438.098 164.755 438.098C166.483 438.098 168.034 437.743 169.407 437.033C170.804 436.322 171.952 435.293 172.852 433.943C173.775 432.57 174.379 430.925 174.663 429.007H188.938C188.702 433.174 187.565 436.843 185.529 440.016C183.517 443.164 180.735 445.626 177.184 447.402C173.633 449.178 169.431 450.065 164.578 450.065ZM211.12 417.466V449H195.993V376.273H210.694V404.078H211.333C212.564 400.858 214.553 398.337 217.299 396.514C220.046 394.668 223.49 393.744 227.633 393.744C231.421 393.744 234.724 394.573 237.541 396.23C240.382 397.864 242.583 400.219 244.146 403.297C245.732 406.351 246.513 410.009 246.49 414.27V449H231.362V416.969C231.386 413.607 230.533 410.991 228.805 409.121C227.1 407.25 224.709 406.315 221.632 406.315C219.572 406.315 217.749 406.753 216.163 407.629C214.6 408.505 213.369 409.784 212.47 411.464C211.594 413.122 211.144 415.122 211.12 417.466ZM280.621 450.065C275.01 450.065 270.181 448.929 266.133 446.656C262.108 444.36 259.007 441.116 256.829 436.926C254.651 432.712 253.562 427.729 253.562 421.976C253.562 416.365 254.651 411.441 256.829 407.203C259.007 402.965 262.072 399.663 266.026 397.295C270.003 394.928 274.667 393.744 280.018 393.744C283.616 393.744 286.966 394.324 290.067 395.484C293.192 396.621 295.915 398.337 298.235 400.634C300.579 402.93 302.402 405.818 303.704 409.298C305.006 412.755 305.657 416.803 305.657 421.443V425.598H259.599V416.223H291.417C291.417 414.045 290.943 412.116 289.996 410.435C289.049 408.754 287.735 407.44 286.054 406.493C284.397 405.522 282.468 405.037 280.266 405.037C277.97 405.037 275.934 405.57 274.158 406.635C272.406 407.677 271.033 409.085 270.039 410.861C269.045 412.613 268.536 414.566 268.512 416.72V425.634C268.512 428.332 269.009 430.664 270.003 432.629C271.021 434.594 272.454 436.109 274.3 437.175C276.147 438.24 278.337 438.773 280.87 438.773C282.551 438.773 284.09 438.536 285.486 438.062C286.883 437.589 288.079 436.879 289.073 435.932C290.067 434.985 290.825 433.825 291.346 432.452L305.337 433.375C304.627 436.737 303.171 439.672 300.969 442.182C298.791 444.668 295.974 446.609 292.518 448.006C289.085 449.379 285.119 450.065 280.621 450.065ZM332.997 449.888C328.854 449.888 325.101 448.822 321.74 446.692C318.402 444.537 315.75 441.377 313.785 437.21C311.844 433.02 310.873 427.883 310.873 421.798C310.873 415.548 311.879 410.352 313.892 406.209C315.904 402.042 318.579 398.929 321.917 396.869C325.279 394.786 328.96 393.744 332.961 393.744C336.015 393.744 338.56 394.265 340.596 395.307C342.656 396.325 344.313 397.603 345.568 399.142C346.846 400.657 347.817 402.149 348.48 403.616H348.941V376.273H364.034V449H349.119V440.264H348.48C347.769 441.779 346.763 443.283 345.461 444.774C344.183 446.242 342.514 447.461 340.454 448.432C338.418 449.402 335.932 449.888 332.997 449.888ZM337.791 437.849C340.229 437.849 342.289 437.187 343.97 435.861C345.674 434.511 346.976 432.629 347.876 430.214C348.799 427.8 349.261 424.971 349.261 421.727C349.261 418.484 348.811 415.667 347.912 413.276C347.012 410.884 345.71 409.038 344.005 407.736C342.301 406.434 340.229 405.783 337.791 405.783C335.305 405.783 333.21 406.457 331.505 407.807C329.801 409.156 328.51 411.027 327.635 413.418C326.759 415.809 326.321 418.579 326.321 421.727C326.321 424.9 326.759 427.705 327.635 430.143C328.534 432.558 329.824 434.452 331.505 435.825C333.21 437.175 335.305 437.849 337.791 437.849ZM408.819 425.776V394.455H423.947V449H409.422V439.092H408.854C407.623 442.288 405.575 444.857 402.711 446.798C399.87 448.74 396.402 449.71 392.306 449.71C388.66 449.71 385.452 448.882 382.682 447.224C379.912 445.567 377.746 443.212 376.184 440.158C374.645 437.104 373.864 433.446 373.84 429.185V394.455H388.968V426.486C388.991 429.705 389.856 432.25 391.56 434.121C393.265 435.991 395.549 436.926 398.414 436.926C400.237 436.926 401.941 436.512 403.527 435.683C405.114 434.831 406.392 433.576 407.363 431.919C408.357 430.262 408.842 428.214 408.819 425.776ZM448.543 376.273V449H433.415V376.273H448.543ZM482.888 450.065C477.277 450.065 472.448 448.929 468.399 446.656C464.375 444.36 461.273 441.116 459.095 436.926C456.917 432.712 455.828 427.729 455.828 421.976C455.828 416.365 456.917 411.441 459.095 407.203C461.273 402.965 464.339 399.663 468.293 397.295C472.27 394.928 476.934 393.744 482.284 393.744C485.883 393.744 489.233 394.324 492.334 395.484C495.459 396.621 498.181 398.337 500.502 400.634C502.845 402.93 504.668 405.818 505.97 409.298C507.272 412.755 507.923 416.803 507.923 421.443V425.598H461.865V416.223H493.683C493.683 414.045 493.21 412.116 492.263 410.435C491.316 408.754 490.002 407.44 488.321 406.493C486.664 405.522 484.734 405.037 482.533 405.037C480.236 405.037 478.2 405.57 476.425 406.635C474.673 407.677 473.3 409.085 472.306 410.861C471.311 412.613 470.802 414.566 470.779 416.72V425.634C470.779 428.332 471.276 430.664 472.27 432.629C473.288 434.594 474.72 436.109 476.567 437.175C478.413 438.24 480.603 438.773 483.136 438.773C484.817 438.773 486.356 438.536 487.753 438.062C489.15 437.589 490.345 436.879 491.34 435.932C492.334 434.985 493.091 433.825 493.612 432.452L507.604 433.375C506.894 436.737 505.438 439.672 503.236 442.182C501.058 444.668 498.241 446.609 494.784 448.006C491.351 449.379 487.386 450.065 482.888 450.065ZM515.164 449V394.455H529.83V403.972H530.398C531.393 400.586 533.062 398.029 535.405 396.301C537.749 394.549 540.448 393.673 543.502 393.673C544.26 393.673 545.076 393.721 545.952 393.815C546.828 393.91 547.598 394.04 548.261 394.206V407.629C547.55 407.416 546.568 407.227 545.313 407.061C544.058 406.895 542.91 406.812 541.869 406.812C539.643 406.812 537.655 407.298 535.903 408.268C534.174 409.215 532.801 410.541 531.783 412.246C530.789 413.95 530.292 415.915 530.292 418.141V449H515.164ZM589.091 417.466V449H573.963V376.273H588.665V404.078H589.304C590.535 400.858 592.524 398.337 595.27 396.514C598.016 394.668 601.461 393.744 605.604 393.744C609.392 393.744 612.694 394.573 615.512 396.23C618.353 397.864 620.554 400.219 622.117 403.297C623.703 406.351 624.484 410.009 624.46 414.27V449H609.333V416.969C609.356 413.607 608.504 410.991 606.776 409.121C605.071 407.25 602.68 406.315 599.603 406.315C597.543 406.315 595.72 406.753 594.134 407.629C592.571 408.505 591.34 409.784 590.441 411.464C589.565 413.122 589.115 415.122 589.091 417.466ZM633.734 449V394.455H648.862V449H633.734ZM641.334 387.423C639.084 387.423 637.155 386.678 635.545 385.186C633.959 383.671 633.166 381.86 633.166 379.753C633.166 377.67 633.959 375.882 635.545 374.391C637.155 372.875 639.084 372.118 641.334 372.118C643.583 372.118 645.5 372.875 647.086 374.391C648.696 375.882 649.501 377.67 649.501 379.753C649.501 381.86 648.696 383.671 647.086 385.186C645.5 386.678 643.583 387.423 641.334 387.423ZM673.476 417.466V449H658.349V394.455H672.766V404.078H673.405C674.613 400.906 676.637 398.396 679.478 396.55C682.319 394.679 685.763 393.744 689.812 393.744C693.6 393.744 696.902 394.573 699.719 396.23C702.537 397.887 704.726 400.255 706.289 403.332C707.851 406.386 708.633 410.032 708.633 414.27V449H693.505V416.969C693.529 413.631 692.676 411.027 690.948 409.156C689.22 407.262 686.841 406.315 683.81 406.315C681.774 406.315 679.975 406.753 678.413 407.629C676.874 408.505 675.666 409.784 674.79 411.464C673.938 413.122 673.5 415.122 673.476 417.466ZM746.937 394.455V405.818H714.089V394.455H746.937ZM721.546 381.386H736.674V432.239C736.674 433.635 736.887 434.724 737.313 435.506C737.739 436.263 738.331 436.796 739.089 437.104C739.87 437.411 740.77 437.565 741.788 437.565C742.498 437.565 743.208 437.506 743.918 437.388C744.629 437.246 745.173 437.139 745.552 437.068L747.931 448.325C747.174 448.562 746.108 448.834 744.735 449.142C743.362 449.473 741.693 449.675 739.728 449.746C736.082 449.888 732.886 449.402 730.14 448.29C727.417 447.177 725.299 445.449 723.783 443.105C722.268 440.761 721.523 437.802 721.546 434.227V381.386ZM798.86 410.009L785.01 410.861C784.773 409.677 784.264 408.612 783.483 407.665C782.702 406.694 781.672 405.925 780.394 405.357C779.139 404.765 777.636 404.469 775.884 404.469C773.54 404.469 771.563 404.966 769.953 405.96C768.344 406.931 767.539 408.233 767.539 409.866C767.539 411.169 768.059 412.269 769.101 413.169C770.143 414.069 771.93 414.791 774.463 415.335L784.335 417.324C789.638 418.413 793.592 420.165 796.196 422.58C798.8 424.994 800.103 428.167 800.103 432.097C800.103 435.671 799.049 438.808 796.942 441.507C794.859 444.206 791.994 446.313 788.348 447.828C784.726 449.32 780.548 450.065 775.813 450.065C768.592 450.065 762.839 448.562 758.554 445.555C754.293 442.525 751.795 438.406 751.061 433.197L765.941 432.416C766.39 434.618 767.479 436.299 769.208 437.459C770.936 438.595 773.149 439.163 775.848 439.163C778.5 439.163 780.63 438.654 782.24 437.636C783.874 436.595 784.702 435.257 784.726 433.624C784.702 432.25 784.122 431.126 782.986 430.25C781.85 429.35 780.098 428.664 777.73 428.19L768.284 426.308C762.958 425.243 758.992 423.396 756.388 420.768C753.808 418.141 752.517 414.791 752.517 410.719C752.517 407.215 753.464 404.196 755.358 401.663C757.276 399.13 759.963 397.177 763.419 395.804C766.899 394.431 770.971 393.744 775.635 393.744C782.524 393.744 787.946 395.2 791.899 398.112C795.877 401.024 798.197 404.99 798.86 410.009Z" fill="black"/>
<rect x="71" y="498" width="1038" height="19" fill="black"/>
</svg>
