<svg width="1200" height="900" viewBox="0 0 1200 900" fill="none" xmlns="http://www.w3.org/2000/svg">
<rect width="1200" height="900" fill="white"/>
<path d="M77.321 449V376.273H106.014C111.507 376.273 116.194 377.255 120.077 379.22C123.983 381.161 126.954 383.92 128.99 387.494C131.05 391.045 132.08 395.224 132.08 400.03C132.08 404.859 131.038 409.014 128.955 412.494C126.871 415.951 123.853 418.602 119.899 420.449C115.969 422.295 111.211 423.219 105.624 423.219H86.4119V410.861H103.138C106.073 410.861 108.512 410.458 110.453 409.653C112.394 408.848 113.839 407.641 114.786 406.031C115.756 404.421 116.241 402.421 116.241 400.03C116.241 397.615 115.756 395.579 114.786 393.922C113.839 392.265 112.383 391.01 110.418 390.158C108.476 389.282 106.026 388.844 103.067 388.844H92.6974V449H77.321ZM116.597 415.903L134.672 449H117.697L100.013 415.903H116.597ZM164.009 450.065C158.399 450.065 153.569 448.929 149.521 446.656C145.496 444.36 142.395 441.116 140.217 436.926C138.039 432.712 136.95 427.729 136.95 421.976C136.95 416.365 138.039 411.441 140.217 407.203C142.395 402.965 145.461 399.663 149.414 397.295C153.392 394.928 158.055 393.744 163.406 393.744C167.004 393.744 170.354 394.324 173.455 395.484C176.58 396.621 179.303 398.337 181.623 400.634C183.967 402.93 185.79 405.818 187.092 409.298C188.394 412.755 189.045 416.803 189.045 421.443V425.598H142.987V416.223H174.805C174.805 414.045 174.331 412.116 173.384 410.435C172.437 408.754 171.124 407.44 169.443 406.493C167.785 405.522 165.856 405.037 163.654 405.037C161.358 405.037 159.322 405.57 157.546 406.635C155.794 407.677 154.421 409.085 153.427 410.861C152.433 412.613 151.924 414.566 151.9 416.72V425.634C151.9 428.332 152.397 430.664 153.392 432.629C154.409 434.594 155.842 436.109 157.688 437.175C159.535 438.24 161.725 438.773 164.258 438.773C165.939 438.773 167.478 438.536 168.874 438.062C170.271 437.589 171.467 436.879 172.461 435.932C173.455 434.985 174.213 433.825 174.734 432.452L188.725 433.375C188.015 436.737 186.559 439.672 184.357 442.182C182.179 444.668 179.362 446.609 175.906 448.006C172.473 449.379 168.508 450.065 164.009 450.065ZM232.33 469.455V440.264H231.868C231.158 441.779 230.151 443.283 228.849 444.774C227.571 446.242 225.902 447.461 223.842 448.432C221.806 449.402 219.321 449.888 216.385 449.888C212.242 449.888 208.49 448.822 205.128 446.692C201.79 444.537 199.138 441.377 197.173 437.21C195.232 433.02 194.261 427.883 194.261 421.798C194.261 415.548 195.267 410.352 197.28 406.209C199.292 402.042 201.967 398.929 205.305 396.869C208.667 394.786 212.348 393.744 216.349 393.744C219.403 393.744 221.948 394.265 223.984 395.307C226.044 396.325 227.701 397.603 228.956 399.142C230.234 400.657 231.205 402.149 231.868 403.616H232.507V394.455H247.422V469.455H232.33ZM221.179 437.849C223.617 437.849 225.677 437.187 227.358 435.861C229.062 434.511 230.365 432.629 231.264 430.214C232.187 427.8 232.649 424.971 232.649 421.727C232.649 418.484 232.199 415.667 231.3 413.276C230.4 410.884 229.098 409.038 227.393 407.736C225.689 406.434 223.617 405.783 221.179 405.783C218.693 405.783 216.598 406.457 214.893 407.807C213.189 409.156 211.899 411.027 211.023 413.418C210.147 415.809 209.709 418.579 209.709 421.727C209.709 424.9 210.147 427.705 211.023 430.143C211.922 432.558 213.213 434.452 214.893 435.825C216.598 437.175 218.693 437.849 221.179 437.849ZM291.914 425.776V394.455H307.042V449H292.518V439.092H291.949C290.718 442.288 288.67 444.857 285.806 446.798C282.965 448.74 279.497 449.71 275.401 449.71C271.755 449.71 268.547 448.882 265.778 447.224C263.008 445.567 260.841 443.212 259.279 440.158C257.74 437.104 256.959 433.446 256.935 429.185V394.455H272.063V426.486C272.087 429.705 272.951 432.25 274.655 434.121C276.36 435.991 278.644 436.926 281.509 436.926C283.332 436.926 285.036 436.512 286.623 435.683C288.209 434.831 289.487 433.576 290.458 431.919C291.452 430.262 291.938 428.214 291.914 425.776ZM341.369 450.065C335.758 450.065 330.928 448.929 326.88 446.656C322.855 444.36 319.754 441.116 317.576 436.926C315.398 432.712 314.309 427.729 314.309 421.976C314.309 416.365 315.398 411.441 317.576 407.203C319.754 402.965 322.82 399.663 326.773 397.295C330.751 394.928 335.414 393.744 340.765 393.744C344.363 393.744 347.713 394.324 350.815 395.484C353.94 396.621 356.662 398.337 358.982 400.634C361.326 402.93 363.149 405.818 364.451 409.298C365.753 412.755 366.404 416.803 366.404 421.443V425.598H320.346V416.223H352.164C352.164 414.045 351.691 412.116 350.744 410.435C349.797 408.754 348.483 407.44 346.802 406.493C345.145 405.522 343.215 405.037 341.013 405.037C338.717 405.037 336.681 405.57 334.905 406.635C333.154 407.677 331.78 409.085 330.786 410.861C329.792 412.613 329.283 414.566 329.259 416.72V425.634C329.259 428.332 329.756 430.664 330.751 432.629C331.769 434.594 333.201 436.109 335.048 437.175C336.894 438.24 339.084 438.773 341.617 438.773C343.298 438.773 344.837 438.536 346.234 438.062C347.63 437.589 348.826 436.879 349.82 435.932C350.815 434.985 351.572 433.825 352.093 432.452L366.084 433.375C365.374 436.737 363.918 439.672 361.717 442.182C359.539 444.668 356.721 446.609 353.265 448.006C349.832 449.379 345.867 450.065 341.369 450.065ZM419.028 410.009L405.179 410.861C404.942 409.677 404.433 408.612 403.652 407.665C402.871 406.694 401.841 405.925 400.562 405.357C399.308 404.765 397.804 404.469 396.052 404.469C393.709 404.469 391.732 404.966 390.122 405.96C388.512 406.931 387.707 408.233 387.707 409.866C387.707 411.169 388.228 412.269 389.27 413.169C390.311 414.069 392.099 414.791 394.632 415.335L404.504 417.324C409.807 418.413 413.761 420.165 416.365 422.58C418.969 424.994 420.271 428.167 420.271 432.097C420.271 435.671 419.218 438.808 417.111 441.507C415.027 444.206 412.163 446.313 408.517 447.828C404.895 449.32 400.716 450.065 395.981 450.065C388.761 450.065 383.008 448.562 378.723 445.555C374.461 442.525 371.964 438.406 371.23 433.197L386.109 432.416C386.559 434.618 387.648 436.299 389.376 437.459C391.104 438.595 393.318 439.163 396.017 439.163C398.668 439.163 400.799 438.654 402.409 437.636C404.042 436.595 404.871 435.257 404.895 433.624C404.871 432.25 404.291 431.126 403.155 430.25C402.018 429.35 400.266 428.664 397.899 428.19L388.453 426.308C383.126 425.243 379.161 423.396 376.557 420.768C373.976 418.141 372.686 414.791 372.686 410.719C372.686 407.215 373.633 404.196 375.527 401.663C377.444 399.13 380.131 397.177 383.588 395.804C387.068 394.431 391.14 393.744 395.804 393.744C402.693 393.744 408.114 395.2 412.068 398.112C416.045 401.024 418.365 404.99 419.028 410.009ZM456.178 394.455V405.818H423.33V394.455H456.178ZM430.788 381.386H445.915V432.239C445.915 433.635 446.129 434.724 446.555 435.506C446.981 436.263 447.573 436.796 448.33 437.104C449.111 437.411 450.011 437.565 451.029 437.565C451.739 437.565 452.45 437.506 453.16 437.388C453.87 437.246 454.414 437.139 454.793 437.068L457.173 448.325C456.415 448.562 455.35 448.834 453.977 449.142C452.603 449.473 450.934 449.675 448.969 449.746C445.324 449.888 442.128 449.402 439.381 448.29C436.659 447.177 434.54 445.449 433.025 443.105C431.51 440.761 430.764 437.802 430.788 434.227V381.386ZM508.101 410.009L494.252 410.861C494.015 409.677 493.506 408.612 492.725 407.665C491.943 406.694 490.913 405.925 489.635 405.357C488.38 404.765 486.877 404.469 485.125 404.469C482.781 404.469 480.805 404.966 479.195 405.96C477.585 406.931 476.78 408.233 476.78 409.866C476.78 411.169 477.301 412.269 478.342 413.169C479.384 414.069 481.172 414.791 483.705 415.335L493.577 417.324C498.88 418.413 502.833 420.165 505.438 422.58C508.042 424.994 509.344 428.167 509.344 432.097C509.344 435.671 508.29 438.808 506.183 441.507C504.1 444.206 501.235 446.313 497.59 447.828C493.967 449.32 489.789 450.065 485.054 450.065C477.833 450.065 472.081 448.562 467.796 445.555C463.534 442.525 461.037 438.406 460.303 433.197L475.182 432.416C475.632 434.618 476.721 436.299 478.449 437.459C480.177 438.595 482.391 439.163 485.09 439.163C487.741 439.163 489.872 438.654 491.482 437.636C493.115 436.595 493.944 435.257 493.967 433.624C493.944 432.25 493.364 431.126 492.227 430.25C491.091 429.35 489.339 428.664 486.972 428.19L477.526 426.308C472.199 425.243 468.234 423.396 465.629 420.768C463.049 418.141 461.759 414.791 461.759 410.719C461.759 407.215 462.706 404.196 464.6 401.663C466.517 399.13 469.204 397.177 472.661 395.804C476.141 394.431 480.213 393.744 484.877 393.744C491.766 393.744 497.187 395.2 501.141 398.112C505.118 401.024 507.438 404.99 508.101 410.009ZM559.052 450.065C554.033 450.065 549.701 449.166 546.055 447.366C542.409 445.567 539.604 443.129 537.639 440.051C535.698 436.95 534.727 433.493 534.727 429.682C534.727 426.841 535.295 424.32 536.432 422.118C537.568 419.916 539.154 417.892 541.19 416.045C543.226 414.175 545.593 412.317 548.292 410.47L562.39 401.202C564.213 400.042 565.551 398.822 566.403 397.544C567.255 396.242 567.682 394.833 567.682 393.318C567.682 391.874 567.102 390.536 565.942 389.305C564.781 388.074 563.136 387.471 561.005 387.494C559.585 387.494 558.354 387.814 557.312 388.453C556.271 389.069 555.454 389.885 554.862 390.903C554.294 391.898 554.01 393.01 554.01 394.241C554.01 395.757 554.436 397.295 555.288 398.858C556.14 400.42 557.277 402.078 558.697 403.83C560.118 405.558 561.668 407.428 563.349 409.44L597.831 449H582.064L553.299 416.969C551.406 414.814 549.512 412.565 547.618 410.222C545.747 407.854 544.185 405.345 542.93 402.693C541.675 400.018 541.048 397.118 541.048 393.993C541.048 390.465 541.865 387.293 543.498 384.476C545.156 381.659 547.476 379.433 550.459 377.8C553.442 376.143 556.922 375.314 560.899 375.314C564.781 375.314 568.131 376.107 570.949 377.693C573.79 379.256 575.968 381.339 577.483 383.943C579.022 386.524 579.791 389.365 579.791 392.466C579.791 395.899 578.939 399.012 577.234 401.805C575.553 404.575 573.186 407.061 570.132 409.263L555.288 419.952C553.276 421.42 551.784 422.923 550.814 424.462C549.867 425.977 549.393 427.433 549.393 428.83C549.393 430.558 549.819 432.108 550.672 433.482C551.524 434.855 552.731 435.944 554.294 436.749C555.856 437.53 557.691 437.92 559.798 437.92C562.355 437.92 564.876 437.34 567.362 436.18C569.871 434.997 572.144 433.328 574.18 431.173C576.24 428.995 577.885 426.415 579.116 423.432C580.347 420.449 580.963 417.146 580.963 413.524H593.498C593.498 417.975 593.013 421.988 592.042 425.562C591.072 429.114 589.722 432.215 587.994 434.866C586.266 437.494 584.289 439.649 582.064 441.33C581.353 441.779 580.667 442.205 580.004 442.608C579.341 443.01 578.655 443.437 577.944 443.886C575.245 446.064 572.227 447.639 568.889 448.609C565.575 449.58 562.296 450.065 559.052 450.065ZM637.143 376.273V449H622.015V376.273H637.143ZM646.63 449V394.455H661.758V449H646.63ZM654.229 387.423C651.98 387.423 650.051 386.678 648.441 385.186C646.855 383.671 646.062 381.86 646.062 379.753C646.062 377.67 646.855 375.882 648.441 374.391C650.051 372.875 651.98 372.118 654.229 372.118C656.478 372.118 658.396 372.875 659.982 374.391C661.592 375.882 662.397 377.67 662.397 379.753C662.397 381.86 661.592 383.671 659.982 385.186C658.396 386.678 656.478 387.423 654.229 387.423ZM671.244 449V394.455H685.662V404.078H686.301C687.438 400.882 689.332 398.361 691.983 396.514C694.635 394.668 697.807 393.744 701.5 393.744C705.241 393.744 708.425 394.679 711.053 396.55C713.68 398.396 715.432 400.906 716.308 404.078H716.876C717.989 400.953 720.001 398.455 722.913 396.585C725.849 394.691 729.317 393.744 733.318 393.744C738.408 393.744 742.539 395.366 745.712 398.609C748.908 401.829 750.506 406.398 750.506 412.317V449H735.413V415.3C735.413 412.269 734.609 409.997 732.999 408.482C731.389 406.966 729.376 406.209 726.962 406.209C724.216 406.209 722.073 407.085 720.534 408.837C718.995 410.565 718.226 412.849 718.226 415.69V449H703.56V414.98C703.56 412.305 702.79 410.174 701.251 408.588C699.736 407.002 697.736 406.209 695.25 406.209C693.569 406.209 692.054 406.635 690.705 407.487C689.379 408.316 688.325 409.488 687.544 411.003C686.763 412.494 686.372 414.246 686.372 416.259V449H671.244ZM759.824 449V394.455H774.952V449H759.824ZM767.423 387.423C765.174 387.423 763.245 386.678 761.635 385.186C760.049 383.671 759.256 381.86 759.256 379.753C759.256 377.67 760.049 375.882 761.635 374.391C763.245 372.875 765.174 372.118 767.423 372.118C769.672 372.118 771.59 372.875 773.176 374.391C774.786 375.882 775.591 377.67 775.591 379.753C775.591 381.86 774.786 383.671 773.176 385.186C771.59 386.678 769.672 387.423 767.423 387.423ZM813.451 394.455V405.818H780.603V394.455H813.451ZM788.06 381.386H803.188V432.239C803.188 433.635 803.401 434.724 803.827 435.506C804.254 436.263 804.845 436.796 805.603 437.104C806.384 437.411 807.284 437.565 808.302 437.565C809.012 437.565 809.722 437.506 810.433 437.388C811.143 437.246 811.687 437.139 812.066 437.068L814.445 448.325C813.688 448.562 812.622 448.834 811.249 449.142C809.876 449.473 808.207 449.675 806.242 449.746C802.596 449.888 799.4 449.402 796.654 448.29C793.932 447.177 791.813 445.449 790.298 443.105C788.782 440.761 788.037 437.802 788.06 434.227V381.386ZM865.374 410.009L851.524 410.861C851.288 409.677 850.779 408.612 849.997 407.665C849.216 406.694 848.186 405.925 846.908 405.357C845.653 404.765 844.15 404.469 842.398 404.469C840.054 404.469 838.077 404.966 836.468 405.96C834.858 406.931 834.053 408.233 834.053 409.866C834.053 411.169 834.574 412.269 835.615 413.169C836.657 414.069 838.444 414.791 840.977 415.335L850.85 417.324C856.153 418.413 860.106 420.165 862.71 422.58C865.315 424.994 866.617 428.167 866.617 432.097C866.617 435.671 865.563 438.808 863.456 441.507C861.373 444.206 858.508 446.313 854.862 447.828C851.24 449.32 847.062 450.065 842.327 450.065C835.106 450.065 829.353 448.562 825.068 445.555C820.807 442.525 818.309 438.406 817.575 433.197L832.455 432.416C832.905 434.618 833.994 436.299 835.722 437.459C837.45 438.595 839.664 439.163 842.362 439.163C845.014 439.163 847.145 438.654 848.754 437.636C850.388 436.595 851.217 435.257 851.24 433.624C851.217 432.25 850.637 431.126 849.5 430.25C848.364 429.35 846.612 428.664 844.245 428.19L834.798 426.308C829.472 425.243 825.506 423.396 822.902 420.768C820.322 418.141 819.031 414.791 819.031 410.719C819.031 407.215 819.978 404.196 821.872 401.663C823.79 399.13 826.477 397.177 829.933 395.804C833.414 394.431 837.486 393.744 842.149 393.744C849.039 393.744 854.46 395.2 858.414 398.112C862.391 401.024 864.711 404.99 865.374 410.009Z" fill="black"/>
<rect x="71" y="498" width="1038" height="19" fill="black"/>
</svg>
