<svg width="1200" height="900" viewBox="0 0 1200 900" fill="none" xmlns="http://www.w3.org/2000/svg">
<rect width="1200" height="900" fill="white"/>
<path d="M141.49 396.734H125.936C125.652 394.722 125.072 392.935 124.196 391.372C123.32 389.786 122.196 388.437 120.822 387.324C119.449 386.211 117.863 385.359 116.064 384.767C114.288 384.175 112.359 383.879 110.276 383.879C106.511 383.879 103.232 384.814 100.439 386.685C97.6454 388.531 95.4792 391.23 93.9403 394.781C92.4015 398.309 91.6321 402.594 91.6321 407.636C91.6321 412.821 92.4015 417.177 93.9403 420.705C95.5028 424.232 97.6809 426.895 100.474 428.695C103.268 430.494 106.5 431.393 110.169 431.393C112.229 431.393 114.134 431.121 115.886 430.577C117.662 430.032 119.236 429.239 120.609 428.197C121.982 427.132 123.119 425.842 124.018 424.327C124.942 422.812 125.581 421.083 125.936 419.142L141.49 419.213C141.088 422.551 140.081 425.771 138.472 428.872C136.885 431.95 134.743 434.708 132.044 437.146C129.369 439.561 126.173 441.479 122.456 442.899C118.763 444.296 114.584 444.994 109.92 444.994C103.434 444.994 97.6335 443.527 92.5199 440.591C87.4299 437.655 83.4053 433.406 80.446 427.842C77.5104 422.279 76.0426 415.544 76.0426 407.636C76.0426 399.705 77.5341 392.958 80.517 387.395C83.5 381.831 87.5483 377.594 92.6619 374.682C97.7756 371.746 103.528 370.278 109.92 370.278C114.134 370.278 118.041 370.87 121.639 372.054C125.261 373.238 128.469 374.966 131.263 377.239C134.056 379.488 136.329 382.246 138.081 385.513C139.857 388.78 140.993 392.52 141.49 396.734ZM164.729 371.273V444H149.601V371.273H164.729ZM209.194 420.776V389.455H224.322V444H209.798V434.092H209.229C207.998 437.288 205.951 439.857 203.086 441.798C200.245 443.74 196.777 444.71 192.681 444.71C189.035 444.71 185.827 443.882 183.058 442.224C180.288 440.567 178.121 438.212 176.559 435.158C175.02 432.104 174.239 428.446 174.215 424.185V389.455H189.343V421.486C189.367 424.705 190.231 427.25 191.935 429.121C193.64 430.991 195.924 431.926 198.789 431.926C200.612 431.926 202.317 431.512 203.903 430.683C205.489 429.831 206.767 428.576 207.738 426.919C208.732 425.262 209.218 423.214 209.194 420.776ZM279.174 405.009L265.325 405.861C265.088 404.677 264.579 403.612 263.798 402.665C263.016 401.694 261.987 400.925 260.708 400.357C259.454 399.765 257.95 399.469 256.198 399.469C253.855 399.469 251.878 399.966 250.268 400.96C248.658 401.931 247.853 403.233 247.853 404.866C247.853 406.169 248.374 407.269 249.416 408.169C250.457 409.069 252.245 409.791 254.778 410.335L264.65 412.324C269.953 413.413 273.907 415.165 276.511 417.58C279.115 419.994 280.417 423.167 280.417 427.097C280.417 430.671 279.364 433.808 277.257 436.507C275.173 439.206 272.309 441.313 268.663 442.828C265.041 444.32 260.862 445.065 256.127 445.065C248.907 445.065 243.154 443.562 238.869 440.555C234.607 437.525 232.11 433.406 231.376 428.197L246.255 427.416C246.705 429.618 247.794 431.299 249.522 432.459C251.25 433.595 253.464 434.163 256.163 434.163C258.814 434.163 260.945 433.654 262.555 432.636C264.188 431.595 265.017 430.257 265.041 428.624C265.017 427.25 264.437 426.126 263.301 425.25C262.164 424.35 260.412 423.664 258.045 423.19L248.599 421.308C243.272 420.243 239.307 418.396 236.703 415.768C234.122 413.141 232.832 409.791 232.832 405.719C232.832 402.215 233.779 399.196 235.673 396.663C237.59 394.13 240.277 392.177 243.734 390.804C247.214 389.431 251.286 388.744 255.95 388.744C262.839 388.744 268.26 390.2 272.214 393.112C276.191 396.024 278.511 399.99 279.174 405.009ZM316.324 389.455V400.818H283.476V389.455H316.324ZM290.934 376.386H306.061V427.239C306.061 428.635 306.274 429.724 306.701 430.506C307.127 431.263 307.719 431.796 308.476 432.104C309.257 432.411 310.157 432.565 311.175 432.565C311.885 432.565 312.595 432.506 313.306 432.388C314.016 432.246 314.56 432.139 314.939 432.068L317.318 443.325C316.561 443.562 315.496 443.834 314.122 444.142C312.749 444.473 311.08 444.675 309.115 444.746C305.47 444.888 302.274 444.402 299.527 443.29C296.805 442.177 294.686 440.449 293.171 438.105C291.656 435.761 290.91 432.802 290.934 429.227V376.386ZM347.819 445.065C342.208 445.065 337.379 443.929 333.33 441.656C329.306 439.36 326.204 436.116 324.026 431.926C321.848 427.712 320.759 422.729 320.759 416.976C320.759 411.365 321.848 406.441 324.026 402.203C326.204 397.965 329.27 394.663 333.224 392.295C337.201 389.928 341.865 388.744 347.215 388.744C350.814 388.744 354.164 389.324 357.265 390.484C360.39 391.621 363.113 393.337 365.433 395.634C367.776 397.93 369.599 400.818 370.901 404.298C372.203 407.755 372.855 411.803 372.855 416.443V420.598H326.796V411.223H358.614C358.614 409.045 358.141 407.116 357.194 405.435C356.247 403.754 354.933 402.44 353.252 401.493C351.595 400.522 349.666 400.037 347.464 400.037C345.168 400.037 343.132 400.57 341.356 401.635C339.604 402.677 338.231 404.085 337.237 405.861C336.242 407.613 335.733 409.566 335.71 411.72V420.634C335.71 423.332 336.207 425.664 337.201 427.629C338.219 429.594 339.651 431.109 341.498 432.175C343.345 433.24 345.534 433.773 348.068 433.773C349.748 433.773 351.287 433.536 352.684 433.062C354.081 432.589 355.276 431.879 356.271 430.932C357.265 429.985 358.023 428.825 358.543 427.452L372.535 428.375C371.825 431.737 370.369 434.672 368.167 437.182C365.989 439.668 363.172 441.609 359.715 443.006C356.283 444.379 352.317 445.065 347.819 445.065ZM380.095 444V389.455H394.761V398.972H395.33C396.324 395.586 397.993 393.029 400.337 391.301C402.68 389.549 405.379 388.673 408.433 388.673C409.191 388.673 410.008 388.721 410.883 388.815C411.759 388.91 412.529 389.04 413.192 389.206V402.629C412.481 402.416 411.499 402.227 410.244 402.061C408.99 401.895 407.841 401.812 406.8 401.812C404.574 401.812 402.586 402.298 400.834 403.268C399.106 404.215 397.732 405.541 396.714 407.246C395.72 408.95 395.223 410.915 395.223 413.141V444H380.095ZM451.714 444H435.237L460.343 371.273H480.159L505.23 444H488.752L470.535 387.892H469.967L451.714 444ZM450.684 415.413H489.605V427.416H450.684V415.413ZM546.046 420.776V389.455H561.174V444H546.65V434.092H546.082C544.851 437.288 542.803 439.857 539.938 441.798C537.097 443.74 533.629 444.71 529.533 444.71C525.888 444.71 522.68 443.882 519.91 442.224C517.14 440.567 514.974 438.212 513.411 435.158C511.872 432.104 511.091 428.446 511.068 424.185V389.455H526.195V421.486C526.219 424.705 527.083 427.25 528.788 429.121C530.492 430.991 532.777 431.926 535.641 431.926C537.464 431.926 539.169 431.512 540.755 430.683C542.341 429.831 543.62 428.576 544.59 426.919C545.585 425.262 546.07 423.214 546.046 420.776ZM599.656 389.455V400.818H566.808V389.455H599.656ZM574.265 376.386H589.393V427.239C589.393 428.635 589.606 429.724 590.032 430.506C590.458 431.263 591.05 431.796 591.808 432.104C592.589 432.411 593.489 432.565 594.507 432.565C595.217 432.565 595.927 432.506 596.637 432.388C597.348 432.246 597.892 432.139 598.271 432.068L600.65 443.325C599.893 443.562 598.827 443.834 597.454 444.142C596.081 444.473 594.412 444.675 592.447 444.746C588.801 444.888 585.605 444.402 582.859 443.29C580.136 442.177 578.018 440.449 576.502 438.105C574.987 435.761 574.241 432.802 574.265 429.227V376.386ZM630.938 445.065C625.421 445.065 620.651 443.893 616.626 441.55C612.626 439.182 609.536 435.892 607.358 431.678C605.18 427.44 604.091 422.527 604.091 416.94C604.091 411.306 605.18 406.382 607.358 402.168C609.536 397.93 612.626 394.639 616.626 392.295C620.651 389.928 625.421 388.744 630.938 388.744C636.454 388.744 641.212 389.928 645.213 392.295C649.238 394.639 652.339 397.93 654.517 402.168C656.695 406.382 657.784 411.306 657.784 416.94C657.784 422.527 656.695 427.44 654.517 431.678C652.339 435.892 649.238 439.182 645.213 441.55C641.212 443.893 636.454 445.065 630.938 445.065ZM631.009 433.347C633.518 433.347 635.613 432.636 637.294 431.216C638.975 429.772 640.242 427.807 641.094 425.321C641.97 422.835 642.408 420.006 642.408 416.834C642.408 413.661 641.97 410.832 641.094 408.347C640.242 405.861 638.975 403.896 637.294 402.452C635.613 401.008 633.518 400.286 631.009 400.286C628.475 400.286 626.345 401.008 624.617 402.452C622.912 403.896 621.622 405.861 620.746 408.347C619.894 410.832 619.467 413.661 619.467 416.834C619.467 420.006 619.894 422.835 620.746 425.321C621.622 427.807 622.912 429.772 624.617 431.216C626.345 432.636 628.475 433.347 631.009 433.347ZM710.373 405.009L696.523 405.861C696.287 404.677 695.778 403.612 694.996 402.665C694.215 401.694 693.185 400.925 691.907 400.357C690.652 399.765 689.149 399.469 687.397 399.469C685.053 399.469 683.076 399.966 681.467 400.96C679.857 401.931 679.052 403.233 679.052 404.866C679.052 406.169 679.573 407.269 680.614 408.169C681.656 409.069 683.443 409.791 685.976 410.335L695.849 412.324C701.152 413.413 705.105 415.165 707.709 417.58C710.314 419.994 711.616 423.167 711.616 427.097C711.616 430.671 710.562 433.808 708.455 436.507C706.372 439.206 703.507 441.313 699.861 442.828C696.239 444.32 692.061 445.065 687.326 445.065C680.105 445.065 674.352 443.562 670.067 440.555C665.806 437.525 663.308 433.406 662.574 428.197L677.454 427.416C677.904 429.618 678.993 431.299 680.721 432.459C682.449 433.595 684.663 434.163 687.361 434.163C690.013 434.163 692.144 433.654 693.753 432.636C695.387 431.595 696.216 430.257 696.239 428.624C696.216 427.25 695.636 426.126 694.499 425.25C693.363 424.35 691.611 423.664 689.244 423.19L679.798 421.308C674.471 420.243 670.505 418.396 667.901 415.768C665.321 413.141 664.03 409.791 664.03 405.719C664.03 402.215 664.977 399.196 666.871 396.663C668.789 394.13 671.476 392.177 674.932 390.804C678.413 389.431 682.485 388.744 687.148 388.744C694.038 388.744 699.459 390.2 703.413 393.112C707.39 396.024 709.71 399.99 710.373 405.009ZM743.155 445.065C737.568 445.065 732.762 443.882 728.737 441.514C724.736 439.123 721.659 435.809 719.504 431.571C717.374 427.333 716.308 422.456 716.308 416.94C716.308 411.353 717.385 406.453 719.54 402.239C721.718 398.001 724.807 394.698 728.808 392.331C732.809 389.94 737.568 388.744 743.084 388.744C747.842 388.744 752.009 389.608 755.584 391.337C759.159 393.065 761.988 395.491 764.071 398.616C766.154 401.741 767.303 405.411 767.516 409.625H753.24C752.838 406.902 751.772 404.713 750.044 403.055C748.34 401.375 746.102 400.534 743.332 400.534C740.989 400.534 738.941 401.173 737.189 402.452C735.461 403.706 734.111 405.541 733.141 407.956C732.17 410.371 731.685 413.295 731.685 416.727C731.685 420.207 732.158 423.167 733.105 425.605C734.076 428.044 735.437 429.902 737.189 431.18C738.941 432.459 740.989 433.098 743.332 433.098C745.061 433.098 746.611 432.743 747.984 432.033C749.381 431.322 750.529 430.293 751.429 428.943C752.352 427.57 752.956 425.925 753.24 424.007H767.516C767.279 428.174 766.143 431.843 764.107 435.016C762.094 438.164 759.313 440.626 755.761 442.402C752.21 444.178 748.008 445.065 743.155 445.065ZM790.124 445.03C786.644 445.03 783.542 444.426 780.82 443.219C778.097 441.988 775.943 440.177 774.357 437.786C772.794 435.371 772.013 432.364 772.013 428.766C772.013 425.735 772.569 423.19 773.682 421.131C774.795 419.071 776.31 417.414 778.228 416.159C780.145 414.904 782.323 413.957 784.762 413.318C787.224 412.679 789.804 412.229 792.503 411.969C795.675 411.637 798.232 411.33 800.174 411.045C802.115 410.738 803.523 410.288 804.399 409.696C805.275 409.104 805.713 408.228 805.713 407.068V406.855C805.713 404.606 805.003 402.866 803.583 401.635C802.186 400.404 800.197 399.788 797.617 399.788C794.894 399.788 792.728 400.392 791.118 401.599C789.508 402.783 788.443 404.275 787.922 406.074L773.931 404.938C774.641 401.623 776.038 398.759 778.121 396.344C780.204 393.905 782.891 392.035 786.182 390.733C789.496 389.407 793.332 388.744 797.688 388.744C800.718 388.744 803.618 389.099 806.388 389.81C809.182 390.52 811.656 391.621 813.81 393.112C815.988 394.604 817.704 396.521 818.959 398.865C820.214 401.185 820.841 403.967 820.841 407.21V444H806.495V436.436H806.068C805.192 438.141 804.021 439.644 802.553 440.946C801.085 442.224 799.321 443.231 797.262 443.964C795.202 444.675 792.823 445.03 790.124 445.03ZM794.456 434.589C796.682 434.589 798.647 434.152 800.351 433.276C802.056 432.376 803.393 431.169 804.364 429.653C805.335 428.138 805.82 426.422 805.82 424.504V418.716C805.346 419.024 804.695 419.308 803.867 419.568C803.062 419.805 802.15 420.03 801.132 420.243C800.114 420.432 799.096 420.61 798.078 420.776C797.06 420.918 796.137 421.048 795.308 421.166C793.533 421.427 791.982 421.841 790.656 422.409C789.331 422.977 788.301 423.747 787.567 424.717C786.833 425.664 786.466 426.848 786.466 428.268C786.466 430.328 787.212 431.902 788.703 432.991C790.219 434.057 792.136 434.589 794.456 434.589ZM845.074 371.273V444H829.946V371.273H845.074ZM879.419 445.065C873.808 445.065 868.978 443.929 864.93 441.656C860.905 439.36 857.804 436.116 855.626 431.926C853.448 427.712 852.359 422.729 852.359 416.976C852.359 411.365 853.448 406.441 855.626 402.203C857.804 397.965 860.87 394.663 864.823 392.295C868.801 389.928 873.464 388.744 878.815 388.744C882.413 388.744 885.763 389.324 888.865 390.484C891.99 391.621 894.712 393.337 897.032 395.634C899.376 397.93 901.199 400.818 902.501 404.298C903.803 407.755 904.454 411.803 904.454 416.443V420.598H858.396V411.223H890.214C890.214 409.045 889.74 407.116 888.794 405.435C887.847 403.754 886.533 402.44 884.852 401.493C883.195 400.522 881.265 400.037 879.063 400.037C876.767 400.037 874.731 400.57 872.955 401.635C871.204 402.677 869.83 404.085 868.836 405.861C867.842 407.613 867.333 409.566 867.309 411.72V420.634C867.309 423.332 867.806 425.664 868.801 427.629C869.819 429.594 871.251 431.109 873.097 432.175C874.944 433.24 877.134 433.773 879.667 433.773C881.348 433.773 882.887 433.536 884.284 433.062C885.68 432.589 886.876 431.879 887.87 430.932C888.865 429.985 889.622 428.825 890.143 427.452L904.134 428.375C903.424 431.737 901.968 434.672 899.767 437.182C897.588 439.668 894.771 441.609 891.315 443.006C887.882 444.379 883.917 445.065 879.419 445.065ZM911.695 444V389.455H926.361V398.972H926.929C927.923 395.586 929.592 393.029 931.936 391.301C934.28 389.549 936.979 388.673 940.033 388.673C940.79 388.673 941.607 388.721 942.483 388.815C943.359 388.91 944.128 389.04 944.791 389.206V402.629C944.081 402.416 943.099 402.227 941.844 402.061C940.589 401.895 939.441 401.812 938.399 401.812C936.174 401.812 934.185 402.298 932.433 403.268C930.705 404.215 929.332 405.541 928.314 407.246C927.32 408.95 926.822 410.915 926.822 413.141V444H911.695Z" fill="black"/>
<rect x="71" y="498" width="1038" height="19" fill="black"/>
</svg>
