<svg width="1200" height="900" viewBox="0 0 1200 900" fill="none" xmlns="http://www.w3.org/2000/svg">
<rect width="1200" height="900" fill="white"/>
<path d="M125.545 310.781C125.048 309.053 124.35 307.526 123.45 306.2C122.551 304.851 121.45 303.714 120.148 302.791C118.869 301.844 117.402 301.122 115.744 300.625C114.111 300.128 112.3 299.879 110.311 299.879C106.594 299.879 103.327 300.803 100.51 302.649C97.7164 304.496 95.5384 307.183 93.9759 310.71C92.4134 314.214 91.6321 318.499 91.6321 323.565C91.6321 328.632 92.4015 332.94 93.9403 336.491C95.4792 340.043 97.6572 342.753 100.474 344.624C103.292 346.47 106.618 347.393 110.453 347.393C113.933 347.393 116.904 346.778 119.366 345.547C121.852 344.292 123.746 342.528 125.048 340.256C126.374 337.983 127.037 335.296 127.037 332.195L130.162 332.656H111.412V321.08H141.845V330.241C141.845 336.634 140.496 342.126 137.797 346.719C135.098 351.288 131.381 354.815 126.646 357.301C121.911 359.763 116.49 360.994 110.382 360.994C103.564 360.994 97.5743 359.491 92.4134 356.484C87.2524 353.454 83.2277 349.157 80.3395 343.594C77.4749 338.007 76.0426 331.378 76.0426 323.707C76.0426 317.812 76.8949 312.557 78.5994 307.94C80.3277 303.3 82.7424 299.37 85.8438 296.151C88.9451 292.931 92.5554 290.481 96.6747 288.8C100.794 287.119 105.257 286.278 110.062 286.278C114.182 286.278 118.017 286.882 121.568 288.089C125.119 289.273 128.268 290.954 131.014 293.132C133.784 295.31 136.045 297.902 137.797 300.909C139.549 303.892 140.673 307.183 141.17 310.781H125.545ZM185.458 336.776V305.455H200.586V360H186.062V350.092H185.494C184.263 353.288 182.215 355.857 179.35 357.798C176.509 359.74 173.041 360.71 168.945 360.71C165.3 360.71 162.092 359.882 159.322 358.224C156.552 356.567 154.386 354.212 152.823 351.158C151.284 348.104 150.503 344.446 150.48 340.185V305.455H165.607V337.486C165.631 340.705 166.495 343.25 168.2 345.121C169.904 346.991 172.189 347.926 175.053 347.926C176.876 347.926 178.581 347.512 180.167 346.683C181.753 345.831 183.032 344.576 184.002 342.919C184.997 341.262 185.482 339.214 185.458 336.776ZM225.609 361.03C222.129 361.03 219.028 360.426 216.305 359.219C213.582 357.988 211.428 356.177 209.842 353.786C208.279 351.371 207.498 348.364 207.498 344.766C207.498 341.735 208.055 339.19 209.167 337.131C210.28 335.071 211.795 333.414 213.713 332.159C215.63 330.904 217.808 329.957 220.247 329.318C222.709 328.679 225.289 328.229 227.988 327.969C231.161 327.637 233.717 327.33 235.659 327.045C237.6 326.738 239.009 326.288 239.885 325.696C240.761 325.104 241.198 324.228 241.198 323.068V322.855C241.198 320.606 240.488 318.866 239.068 317.635C237.671 316.404 235.682 315.788 233.102 315.788C230.379 315.788 228.213 316.392 226.603 317.599C224.993 318.783 223.928 320.275 223.407 322.074L209.416 320.938C210.126 317.623 211.523 314.759 213.606 312.344C215.689 309.905 218.377 308.035 221.667 306.733C224.982 305.407 228.817 304.744 233.173 304.744C236.203 304.744 239.103 305.099 241.873 305.81C244.667 306.52 247.141 307.621 249.295 309.112C251.473 310.604 253.189 312.521 254.444 314.865C255.699 317.185 256.326 319.967 256.326 323.21V360H241.98V352.436H241.554C240.678 354.141 239.506 355.644 238.038 356.946C236.57 358.224 234.806 359.231 232.747 359.964C230.687 360.675 228.308 361.03 225.609 361.03ZM229.941 350.589C232.167 350.589 234.132 350.152 235.836 349.276C237.541 348.376 238.878 347.169 239.849 345.653C240.82 344.138 241.305 342.422 241.305 340.504V334.716C240.832 335.024 240.181 335.308 239.352 335.568C238.547 335.805 237.636 336.03 236.618 336.243C235.6 336.432 234.582 336.61 233.564 336.776C232.546 336.918 231.622 337.048 230.794 337.166C229.018 337.427 227.467 337.841 226.142 338.409C224.816 338.977 223.786 339.747 223.052 340.717C222.318 341.664 221.951 342.848 221.951 344.268C221.951 346.328 222.697 347.902 224.189 348.991C225.704 350.057 227.621 350.589 229.941 350.589ZM265.431 360V305.455H280.097V314.972H280.666C281.66 311.586 283.329 309.029 285.673 307.301C288.016 305.549 290.715 304.673 293.769 304.673C294.527 304.673 295.344 304.721 296.22 304.815C297.096 304.91 297.865 305.04 298.528 305.206V318.629C297.818 318.416 296.835 318.227 295.58 318.061C294.326 317.895 293.177 317.812 292.136 317.812C289.91 317.812 287.922 318.298 286.17 319.268C284.442 320.215 283.069 321.541 282.051 323.246C281.056 324.95 280.559 326.915 280.559 329.141V360H265.431ZM317.709 361.03C314.229 361.03 311.128 360.426 308.405 359.219C305.683 357.988 303.528 356.177 301.942 353.786C300.38 351.371 299.598 348.364 299.598 344.766C299.598 341.735 300.155 339.19 301.267 337.131C302.38 335.071 303.895 333.414 305.813 332.159C307.73 330.904 309.908 329.957 312.347 329.318C314.809 328.679 317.39 328.229 320.088 327.969C323.261 327.637 325.818 327.33 327.759 327.045C329.7 326.738 331.109 326.288 331.985 325.696C332.861 325.104 333.299 324.228 333.299 323.068V322.855C333.299 320.606 332.588 318.866 331.168 317.635C329.771 316.404 327.783 315.788 325.202 315.788C322.479 315.788 320.313 316.392 318.703 317.599C317.094 318.783 316.028 320.275 315.507 322.074L301.516 320.938C302.226 317.623 303.623 314.759 305.706 312.344C307.79 309.905 310.477 308.035 313.767 306.733C317.082 305.407 320.917 304.744 325.273 304.744C328.303 304.744 331.203 305.099 333.973 305.81C336.767 306.52 339.241 307.621 341.395 309.112C343.573 310.604 345.29 312.521 346.544 314.865C347.799 317.185 348.426 319.967 348.426 323.21V360H334.08V352.436H333.654C332.778 354.141 331.606 355.644 330.138 356.946C328.67 358.224 326.907 359.231 324.847 359.964C322.787 360.675 320.408 361.03 317.709 361.03ZM322.042 350.589C324.267 350.589 326.232 350.152 327.936 349.276C329.641 348.376 330.979 347.169 331.949 345.653C332.92 344.138 333.405 342.422 333.405 340.504V334.716C332.932 335.024 332.281 335.308 331.452 335.568C330.647 335.805 329.736 336.03 328.718 336.243C327.7 336.432 326.682 336.61 325.664 336.776C324.646 336.918 323.722 337.048 322.894 337.166C321.118 337.427 319.568 337.841 318.242 338.409C316.916 338.977 315.886 339.747 315.152 340.717C314.418 341.664 314.051 342.848 314.051 344.268C314.051 346.328 314.797 347.902 316.289 348.991C317.804 350.057 319.721 350.589 322.042 350.589ZM372.659 328.466V360H357.531V305.455H371.949V315.078H372.588C373.796 311.906 375.82 309.396 378.661 307.55C381.502 305.679 384.946 304.744 388.994 304.744C392.782 304.744 396.085 305.573 398.902 307.23C401.719 308.887 403.909 311.255 405.472 314.332C407.034 317.386 407.815 321.032 407.815 325.27V360H392.688V327.969C392.711 324.631 391.859 322.027 390.131 320.156C388.403 318.262 386.023 317.315 382.993 317.315C380.957 317.315 379.158 317.753 377.595 318.629C376.056 319.505 374.849 320.784 373.973 322.464C373.121 324.122 372.683 326.122 372.659 328.466ZM446.12 305.455V316.818H413.272V305.455H446.12ZM420.729 292.386H435.857V343.239C435.857 344.635 436.07 345.724 436.496 346.506C436.922 347.263 437.514 347.796 438.272 348.104C439.053 348.411 439.952 348.565 440.97 348.565C441.681 348.565 442.391 348.506 443.101 348.388C443.811 348.246 444.356 348.139 444.735 348.068L447.114 359.325C446.356 359.562 445.291 359.834 443.918 360.142C442.545 360.473 440.876 360.675 438.911 360.746C435.265 360.888 432.069 360.402 429.323 359.29C426.6 358.177 424.481 356.449 422.966 354.105C421.451 351.761 420.705 348.802 420.729 345.227V292.386ZM477.614 361.065C472.004 361.065 467.174 359.929 463.126 357.656C459.101 355.36 456 352.116 453.822 347.926C451.644 343.712 450.555 338.729 450.555 332.976C450.555 327.365 451.644 322.441 453.822 318.203C456 313.965 459.066 310.663 463.019 308.295C466.997 305.928 471.66 304.744 477.011 304.744C480.609 304.744 483.959 305.324 487.06 306.484C490.185 307.621 492.908 309.337 495.228 311.634C497.572 313.93 499.395 316.818 500.697 320.298C501.999 323.755 502.65 327.803 502.65 332.443V336.598H456.592V327.223H488.41C488.41 325.045 487.936 323.116 486.989 321.435C486.042 319.754 484.729 318.44 483.048 317.493C481.391 316.522 479.461 316.037 477.259 316.037C474.963 316.037 472.927 316.57 471.151 317.635C469.399 318.677 468.026 320.085 467.032 321.861C466.038 323.613 465.529 325.566 465.505 327.72V336.634C465.505 339.332 466.002 341.664 466.997 343.629C468.015 345.594 469.447 347.109 471.293 348.175C473.14 349.24 475.33 349.773 477.863 349.773C479.544 349.773 481.083 349.536 482.48 349.062C483.876 348.589 485.072 347.879 486.066 346.932C487.06 345.985 487.818 344.825 488.339 343.452L502.33 344.375C501.62 347.737 500.164 350.672 497.962 353.182C495.784 355.668 492.967 357.609 489.511 359.006C486.078 360.379 482.113 361.065 477.614 361.065ZM534.748 361.065C529.138 361.065 524.308 359.929 520.26 357.656C516.235 355.36 513.134 352.116 510.956 347.926C508.778 343.712 507.689 338.729 507.689 332.976C507.689 327.365 508.778 322.441 510.956 318.203C513.134 313.965 516.2 310.663 520.153 308.295C524.131 305.928 528.794 304.744 534.145 304.744C537.743 304.744 541.093 305.324 544.195 306.484C547.32 307.621 550.042 309.337 552.362 311.634C554.706 313.93 556.529 316.818 557.831 320.298C559.133 323.755 559.784 327.803 559.784 332.443V336.598H513.726V327.223H545.544C545.544 325.045 545.07 323.116 544.123 321.435C543.177 319.754 541.863 318.44 540.182 317.493C538.525 316.522 536.595 316.037 534.393 316.037C532.097 316.037 530.061 316.57 528.285 317.635C526.534 318.677 525.16 320.085 524.166 321.861C523.172 323.613 522.663 325.566 522.639 327.72V336.634C522.639 339.332 523.136 341.664 524.131 343.629C525.149 345.594 526.581 347.109 528.427 348.175C530.274 349.24 532.464 349.773 534.997 349.773C536.678 349.773 538.217 349.536 539.614 349.062C541.01 348.589 542.206 347.879 543.2 346.932C544.195 345.985 544.952 344.825 545.473 343.452L559.464 344.375C558.754 347.737 557.298 350.672 555.097 353.182C552.918 355.668 550.101 357.609 546.645 359.006C543.212 360.379 539.247 361.065 534.748 361.065ZM587.124 360.888C582.981 360.888 579.229 359.822 575.867 357.692C572.529 355.537 569.877 352.377 567.912 348.21C565.971 344.02 565 338.883 565 332.798C565 326.548 566.007 321.352 568.019 317.209C570.031 313.042 572.706 309.929 576.044 307.869C579.406 305.786 583.088 304.744 587.089 304.744C590.143 304.744 592.687 305.265 594.723 306.307C596.783 307.325 598.44 308.603 599.695 310.142C600.973 311.657 601.944 313.149 602.607 314.616H603.069V287.273H618.161V360H603.246V351.264H602.607C601.897 352.779 600.891 354.283 599.589 355.774C598.31 357.242 596.641 358.461 594.581 359.432C592.545 360.402 590.06 360.888 587.124 360.888ZM591.918 348.849C594.357 348.849 596.416 348.187 598.097 346.861C599.802 345.511 601.104 343.629 602.003 341.214C602.927 338.8 603.388 335.971 603.388 332.727C603.388 329.484 602.938 326.667 602.039 324.276C601.139 321.884 599.837 320.038 598.133 318.736C596.428 317.434 594.357 316.783 591.918 316.783C589.432 316.783 587.337 317.457 585.633 318.807C583.928 320.156 582.638 322.027 581.762 324.418C580.886 326.809 580.448 329.579 580.448 332.727C580.448 335.9 580.886 338.705 581.762 341.143C582.661 343.558 583.952 345.452 585.633 346.825C587.337 348.175 589.432 348.849 591.918 348.849ZM644.409 350.057L644.018 353.963C643.711 357.088 643.119 360.201 642.243 363.303C641.391 366.428 640.491 369.257 639.544 371.79C638.621 374.323 637.875 376.312 637.307 377.756H627.506C627.861 376.359 628.346 374.406 628.962 371.896C629.577 369.411 630.157 366.617 630.702 363.516C631.246 360.414 631.589 357.254 631.731 354.034L631.909 350.057H644.409ZM77.321 444V371.273H92.4489V398.616H92.9105C93.5734 397.149 94.5322 395.657 95.7869 394.142C97.0653 392.603 98.7225 391.325 100.759 390.307C102.818 389.265 105.375 388.744 108.429 388.744C112.406 388.744 116.076 389.786 119.438 391.869C122.799 393.929 125.486 397.042 127.499 401.209C129.511 405.352 130.517 410.548 130.517 416.798C130.517 422.883 129.535 428.02 127.57 432.21C125.628 436.377 122.977 439.537 119.615 441.692C116.277 443.822 112.536 444.888 108.393 444.888C105.458 444.888 102.96 444.402 100.901 443.432C98.8646 442.461 97.1955 441.242 95.8935 439.774C94.5914 438.283 93.5971 436.779 92.9105 435.264H92.2358V444H77.321ZM92.1293 416.727C92.1293 419.971 92.5791 422.8 93.4787 425.214C94.3783 427.629 95.6804 429.511 97.3849 430.861C99.0895 432.187 101.161 432.849 103.599 432.849C106.062 432.849 108.145 432.175 109.849 430.825C111.554 429.452 112.844 427.558 113.72 425.143C114.62 422.705 115.07 419.9 115.07 416.727C115.07 413.579 114.632 410.809 113.756 408.418C112.88 406.027 111.589 404.156 109.885 402.807C108.18 401.457 106.085 400.783 103.599 400.783C101.137 400.783 99.054 401.434 97.3494 402.736C95.6686 404.038 94.3783 405.884 93.4787 408.276C92.5791 410.667 92.1293 413.484 92.1293 416.727ZM172.958 420.776V389.455H188.086V444H173.562V434.092H172.994C171.763 437.288 169.715 439.857 166.85 441.798C164.009 443.74 160.541 444.71 156.445 444.71C152.8 444.71 149.592 443.882 146.822 442.224C144.052 440.567 141.886 438.212 140.323 435.158C138.784 432.104 138.003 428.446 137.98 424.185V389.455H153.107V421.486C153.131 424.705 153.995 427.25 155.7 429.121C157.404 430.991 159.689 431.926 162.553 431.926C164.376 431.926 166.081 431.512 167.667 430.683C169.253 429.831 170.532 428.576 171.502 426.919C172.497 425.262 172.982 423.214 172.958 420.776ZM197.555 444V389.455H212.221V398.972H212.789C213.784 395.586 215.453 393.029 217.796 391.301C220.14 389.549 222.839 388.673 225.893 388.673C226.651 388.673 227.467 388.721 228.343 388.815C229.219 388.91 229.989 389.04 230.652 389.206V402.629C229.941 402.416 228.959 402.227 227.704 402.061C226.449 401.895 225.301 401.812 224.26 401.812C222.034 401.812 220.046 402.298 218.294 403.268C216.565 404.215 215.192 405.541 214.174 407.246C213.18 408.95 212.683 410.915 212.683 413.141V444H197.555ZM281.225 405.009L267.376 405.861C267.139 404.677 266.63 403.612 265.849 402.665C265.067 401.694 264.037 400.925 262.759 400.357C261.504 399.765 260.001 399.469 258.249 399.469C255.905 399.469 253.929 399.966 252.319 400.96C250.709 401.931 249.904 403.233 249.904 404.866C249.904 406.169 250.425 407.269 251.466 408.169C252.508 409.069 254.295 409.791 256.829 410.335L266.701 412.324C272.004 413.413 275.957 415.165 278.562 417.58C281.166 419.994 282.468 423.167 282.468 427.097C282.468 430.671 281.414 433.808 279.307 436.507C277.224 439.206 274.359 441.313 270.714 442.828C267.091 444.32 262.913 445.065 258.178 445.065C250.957 445.065 245.205 443.562 240.92 440.555C236.658 437.525 234.161 433.406 233.427 428.197L248.306 427.416C248.756 429.618 249.845 431.299 251.573 432.459C253.301 433.595 255.515 434.163 258.214 434.163C260.865 434.163 262.996 433.654 264.606 432.636C266.239 431.595 267.068 430.257 267.091 428.624C267.068 427.25 266.488 426.126 265.351 425.25C264.215 424.35 262.463 423.664 260.096 423.19L250.65 421.308C245.323 420.243 241.358 418.396 238.753 415.768C236.173 413.141 234.883 409.791 234.883 405.719C234.883 402.215 235.83 399.196 237.724 396.663C239.641 394.13 242.328 392.177 245.785 390.804C249.265 389.431 253.337 388.744 258.001 388.744C264.89 388.744 270.311 390.2 274.265 393.112C278.242 396.024 280.562 399.99 281.225 405.009ZM318.375 389.455V400.818H285.527V389.455H318.375ZM292.984 376.386H308.112V427.239C308.112 428.635 308.325 429.724 308.751 430.506C309.178 431.263 309.769 431.796 310.527 432.104C311.308 432.411 312.208 432.565 313.226 432.565C313.936 432.565 314.646 432.506 315.356 432.388C316.067 432.246 316.611 432.139 316.99 432.068L319.369 443.325C318.612 443.562 317.546 443.834 316.173 444.142C314.8 444.473 313.131 444.675 311.166 444.746C307.52 444.888 304.324 444.402 301.578 443.29C298.856 442.177 296.737 440.449 295.222 438.105C293.706 435.761 292.961 432.802 292.984 429.227V376.386ZM341.152 445.03C337.672 445.03 334.57 444.426 331.848 443.219C329.125 441.988 326.971 440.177 325.385 437.786C323.822 435.371 323.041 432.364 323.041 428.766C323.041 425.735 323.597 423.19 324.71 421.131C325.823 419.071 327.338 417.414 329.255 416.159C331.173 414.904 333.351 413.957 335.79 413.318C338.252 412.679 340.832 412.229 343.531 411.969C346.703 411.637 349.26 411.33 351.201 411.045C353.143 410.738 354.551 410.288 355.427 409.696C356.303 409.104 356.741 408.228 356.741 407.068V406.855C356.741 404.606 356.031 402.866 354.611 401.635C353.214 400.404 351.225 399.788 348.645 399.788C345.922 399.788 343.756 400.392 342.146 401.599C340.536 402.783 339.471 404.275 338.95 406.074L324.959 404.938C325.669 401.623 327.066 398.759 329.149 396.344C331.232 393.905 333.919 392.035 337.21 390.733C340.524 389.407 344.36 388.744 348.716 388.744C351.746 388.744 354.646 389.099 357.416 389.81C360.21 390.52 362.683 391.621 364.838 393.112C367.016 394.604 368.732 396.521 369.987 398.865C371.242 401.185 371.869 403.967 371.869 407.21V444H357.523V436.436H357.096C356.22 438.141 355.049 439.644 353.581 440.946C352.113 442.224 350.349 443.231 348.29 443.964C346.23 444.675 343.851 445.03 341.152 445.03ZM345.484 434.589C347.71 434.589 349.674 434.152 351.379 433.276C353.084 432.376 354.421 431.169 355.392 429.653C356.362 428.138 356.848 426.422 356.848 424.504V418.716C356.374 419.024 355.723 419.308 354.895 419.568C354.09 419.805 353.178 420.03 352.16 420.243C351.142 420.432 350.124 420.61 349.106 420.776C348.088 420.918 347.165 421.048 346.336 421.166C344.561 421.427 343.01 421.841 341.684 422.409C340.359 422.977 339.329 423.747 338.595 424.717C337.861 425.664 337.494 426.848 337.494 428.268C337.494 430.328 338.24 431.902 339.731 432.991C341.246 434.057 343.164 434.589 345.484 434.589ZM381.258 444V371.273H396.386V398.616H396.848C397.51 397.149 398.469 395.657 399.724 394.142C401.002 392.603 402.66 391.325 404.696 390.307C406.755 389.265 409.312 388.744 412.366 388.744C416.343 388.744 420.013 389.786 423.375 391.869C426.736 393.929 429.423 397.042 431.436 401.209C433.448 405.352 434.454 410.548 434.454 416.798C434.454 422.883 433.472 428.02 431.507 432.21C429.565 436.377 426.914 439.537 423.552 441.692C420.214 443.822 416.474 444.888 412.331 444.888C409.395 444.888 406.897 444.402 404.838 443.432C402.802 442.461 401.133 441.242 399.831 439.774C398.528 438.283 397.534 436.779 396.848 435.264H396.173V444H381.258ZM396.066 416.727C396.066 419.971 396.516 422.8 397.416 425.214C398.315 427.629 399.618 429.511 401.322 430.861C403.027 432.187 405.098 432.849 407.537 432.849C409.999 432.849 412.082 432.175 413.787 430.825C415.491 429.452 416.781 427.558 417.657 425.143C418.557 422.705 419.007 419.9 419.007 416.727C419.007 413.579 418.569 410.809 417.693 408.418C416.817 406.027 415.527 404.156 413.822 402.807C412.118 401.457 410.022 400.783 407.537 400.783C405.074 400.783 402.991 401.434 401.287 402.736C399.606 404.038 398.315 405.884 397.416 408.276C396.516 410.667 396.066 413.484 396.066 416.727ZM457.045 371.273V444H441.917V371.273H457.045ZM491.389 445.065C485.778 445.065 480.949 443.929 476.9 441.656C472.876 439.36 469.775 436.116 467.597 431.926C465.418 427.712 464.329 422.729 464.329 416.976C464.329 411.365 465.418 406.441 467.597 402.203C469.775 397.965 472.84 394.663 476.794 392.295C480.771 389.928 485.435 388.744 490.785 388.744C494.384 388.744 497.734 389.324 500.835 390.484C503.96 391.621 506.683 393.337 509.003 395.634C511.347 397.93 513.169 400.818 514.472 404.298C515.774 407.755 516.425 411.803 516.425 416.443V420.598H470.366V411.223H502.185C502.185 409.045 501.711 407.116 500.764 405.435C499.817 403.754 498.503 402.44 496.822 401.493C495.165 400.522 493.236 400.037 491.034 400.037C488.738 400.037 486.702 400.57 484.926 401.635C483.174 402.677 481.801 404.085 480.807 405.861C479.812 407.613 479.303 409.566 479.28 411.72V420.634C479.28 423.332 479.777 425.664 480.771 427.629C481.789 429.594 483.222 431.109 485.068 432.175C486.915 433.24 489.105 433.773 491.638 433.773C493.319 433.773 494.857 433.536 496.254 433.062C497.651 432.589 498.847 431.879 499.841 430.932C500.835 429.985 501.593 428.825 502.114 427.452L516.105 428.375C515.395 431.737 513.939 434.672 511.737 437.182C509.559 439.668 506.742 441.609 503.285 443.006C499.853 444.379 495.887 445.065 491.389 445.065ZM540.107 434.057L539.716 437.963C539.409 441.088 538.817 444.201 537.941 447.303C537.089 450.428 536.189 453.257 535.242 455.79C534.319 458.323 533.573 460.312 533.005 461.756H523.204C523.559 460.359 524.044 458.406 524.66 455.896C525.275 453.411 525.855 450.617 526.4 447.516C526.944 444.414 527.287 441.254 527.429 438.034L527.607 434.057H540.107ZM568.686 444V371.273H583.814V398.616H584.276C584.939 397.149 585.897 395.657 587.152 394.142C588.43 392.603 590.088 391.325 592.124 390.307C594.183 389.265 596.74 388.744 599.794 388.744C603.771 388.744 607.441 389.786 610.803 391.869C614.164 393.929 616.851 397.042 618.864 401.209C620.876 405.352 621.882 410.548 621.882 416.798C621.882 422.883 620.9 428.02 618.935 432.21C616.993 436.377 614.342 439.537 610.98 441.692C607.642 443.822 603.902 444.888 599.759 444.888C596.823 444.888 594.325 444.402 592.266 443.432C590.23 442.461 588.561 441.242 587.259 439.774C585.957 438.283 584.962 436.779 584.276 435.264H583.601V444H568.686ZM583.494 416.727C583.494 419.971 583.944 422.8 584.844 425.214C585.743 427.629 587.046 429.511 588.75 430.861C590.455 432.187 592.526 432.849 594.965 432.849C597.427 432.849 599.51 432.175 601.215 430.825C602.919 429.452 604.209 427.558 605.085 425.143C605.985 422.705 606.435 419.9 606.435 416.727C606.435 413.579 605.997 410.809 605.121 408.418C604.245 406.027 602.955 404.156 601.25 402.807C599.546 401.457 597.45 400.783 594.965 400.783C592.502 400.783 590.419 401.434 588.715 402.736C587.034 404.038 585.743 405.884 584.844 408.276C583.944 410.667 583.494 413.484 583.494 416.727ZM654.203 445.065C648.592 445.065 643.762 443.929 639.714 441.656C635.689 439.36 632.588 436.116 630.41 431.926C628.232 427.712 627.143 422.729 627.143 416.976C627.143 411.365 628.232 406.441 630.41 402.203C632.588 397.965 635.654 394.663 639.608 392.295C643.585 389.928 648.249 388.744 653.599 388.744C657.197 388.744 660.547 389.324 663.649 390.484C666.774 391.621 669.496 393.337 671.816 395.634C674.16 397.93 675.983 400.818 677.285 404.298C678.587 407.755 679.238 411.803 679.238 416.443V420.598H633.18V411.223H664.998C664.998 409.045 664.525 407.116 663.578 405.435C662.631 403.754 661.317 402.44 659.636 401.493C657.979 400.522 656.049 400.037 653.848 400.037C651.551 400.037 649.515 400.57 647.74 401.635C645.988 402.677 644.615 404.085 643.62 405.861C642.626 407.613 642.117 409.566 642.093 411.72V420.634C642.093 423.332 642.59 425.664 643.585 427.629C644.603 429.594 646.035 431.109 647.882 432.175C649.728 433.24 651.918 433.773 654.451 433.773C656.132 433.773 657.671 433.536 659.068 433.062C660.465 432.589 661.66 431.879 662.654 430.932C663.649 429.985 664.406 428.825 664.927 427.452L678.919 428.375C678.208 431.737 676.752 434.672 674.551 437.182C672.373 439.668 669.555 441.609 666.099 443.006C662.666 444.379 658.701 445.065 654.203 445.065ZM731.862 405.009L718.013 405.861C717.776 404.677 717.267 403.612 716.486 402.665C715.705 401.694 714.675 400.925 713.396 400.357C712.142 399.765 710.638 399.469 708.886 399.469C706.543 399.469 704.566 399.966 702.956 400.96C701.346 401.931 700.541 403.233 700.541 404.866C700.541 406.169 701.062 407.269 702.104 408.169C703.145 409.069 704.933 409.791 707.466 410.335L717.338 412.324C722.641 413.413 726.595 415.165 729.199 417.58C731.803 419.994 733.105 423.167 733.105 427.097C733.105 430.671 732.052 433.808 729.945 436.507C727.861 439.206 724.997 441.313 721.351 442.828C717.729 444.32 713.55 445.065 708.815 445.065C701.595 445.065 695.842 443.562 691.557 440.555C687.296 437.525 684.798 433.406 684.064 428.197L698.943 427.416C699.393 429.618 700.482 431.299 702.21 432.459C703.939 433.595 706.152 434.163 708.851 434.163C711.502 434.163 713.633 433.654 715.243 432.636C716.876 431.595 717.705 430.257 717.729 428.624C717.705 427.25 717.125 426.126 715.989 425.25C714.852 424.35 713.1 423.664 710.733 423.19L701.287 421.308C695.96 420.243 691.995 418.396 689.391 415.768C686.81 413.141 685.52 409.791 685.52 405.719C685.52 402.215 686.467 399.196 688.361 396.663C690.278 394.13 692.966 392.177 696.422 390.804C699.902 389.431 703.974 388.744 708.638 388.744C715.527 388.744 720.948 390.2 724.902 393.112C728.879 396.024 731.199 399.99 731.862 405.009ZM769.012 389.455V400.818H736.164V389.455H769.012ZM743.622 376.386H758.75V427.239C758.75 428.635 758.963 429.724 759.389 430.506C759.815 431.263 760.407 431.796 761.164 432.104C761.946 432.411 762.845 432.565 763.863 432.565C764.573 432.565 765.284 432.506 765.994 432.388C766.704 432.246 767.249 432.139 767.627 432.068L770.007 443.325C769.249 443.562 768.184 443.834 766.811 444.142C765.437 444.473 763.768 444.675 761.803 444.746C758.158 444.888 754.962 444.402 752.215 443.29C749.493 442.177 747.374 440.449 745.859 438.105C744.344 435.761 743.598 432.802 743.622 429.227V376.386ZM808.559 408.134V420.136H775.392V408.134H808.559ZM843.676 445.065C838.066 445.065 833.236 443.929 829.188 441.656C825.163 439.36 822.062 436.116 819.884 431.926C817.706 427.712 816.617 422.729 816.617 416.976C816.617 411.365 817.706 406.441 819.884 402.203C822.062 397.965 825.128 394.663 829.081 392.295C833.058 389.928 837.722 388.744 843.073 388.744C846.671 388.744 850.021 389.324 853.122 390.484C856.247 391.621 858.97 393.337 861.29 395.634C863.634 397.93 865.457 400.818 866.759 404.298C868.061 407.755 868.712 411.803 868.712 416.443V420.598H822.654V411.223H854.472C854.472 409.045 853.998 407.116 853.051 405.435C852.104 403.754 850.79 402.44 849.11 401.493C847.452 400.522 845.523 400.037 843.321 400.037C841.025 400.037 838.989 400.57 837.213 401.635C835.461 402.677 834.088 404.085 833.094 405.861C832.1 407.613 831.591 409.566 831.567 411.72V420.634C831.567 423.332 832.064 425.664 833.058 427.629C834.076 429.594 835.509 431.109 837.355 432.175C839.202 433.24 841.392 433.773 843.925 433.773C845.606 433.773 847.145 433.536 848.541 433.062C849.938 432.589 851.134 431.879 852.128 430.932C853.122 429.985 853.88 428.825 854.401 427.452L868.392 428.375C867.682 431.737 866.226 434.672 864.024 437.182C861.846 439.668 859.029 441.609 855.573 443.006C852.14 444.379 848.174 445.065 843.676 445.065ZM905.285 389.455V400.818H871.62V389.455H905.285ZM879.326 444V385.513C879.326 381.559 880.095 378.28 881.634 375.676C883.197 373.072 885.327 371.119 888.026 369.817C890.725 368.515 893.791 367.864 897.224 367.864C899.544 367.864 901.663 368.041 903.58 368.396C905.522 368.751 906.966 369.071 907.913 369.355L905.214 380.719C904.622 380.529 903.888 380.352 903.012 380.186C902.16 380.02 901.284 379.938 900.384 379.938C898.159 379.938 896.608 380.458 895.732 381.5C894.856 382.518 894.418 383.95 894.418 385.797V444H879.326ZM941.227 389.455V400.818H907.563V389.455H941.227ZM915.269 444V385.513C915.269 381.559 916.038 378.28 917.577 375.676C919.139 373.072 921.27 371.119 923.969 369.817C926.668 368.515 929.734 367.864 933.166 367.864C935.486 367.864 937.605 368.041 939.523 368.396C941.464 368.751 942.908 369.071 943.855 369.355L941.156 380.719C940.565 380.529 939.831 380.352 938.955 380.186C938.102 380.02 937.227 379.938 936.327 379.938C934.102 379.938 932.551 380.458 931.675 381.5C930.799 382.518 930.361 383.95 930.361 385.797V444H915.269ZM970.529 445.065C965.013 445.065 960.243 443.893 956.218 441.55C952.217 439.182 949.128 435.892 946.95 431.678C944.772 427.44 943.683 422.527 943.683 416.94C943.683 411.306 944.772 406.382 946.95 402.168C949.128 397.93 952.217 394.639 956.218 392.295C960.243 389.928 965.013 388.744 970.529 388.744C976.046 388.744 980.804 389.928 984.805 392.295C988.83 394.639 991.931 397.93 994.109 402.168C996.287 406.382 997.376 411.306 997.376 416.94C997.376 422.527 996.287 427.44 994.109 431.678C991.931 435.892 988.83 439.182 984.805 441.55C980.804 443.893 976.046 445.065 970.529 445.065ZM970.6 433.347C973.11 433.347 975.205 432.636 976.886 431.216C978.567 429.772 979.833 427.807 980.686 425.321C981.562 422.835 982 420.006 982 416.834C982 413.661 981.562 410.832 980.686 408.347C979.833 405.861 978.567 403.896 976.886 402.452C975.205 401.008 973.11 400.286 970.6 400.286C968.067 400.286 965.937 401.008 964.208 402.452C962.504 403.896 961.214 405.861 960.338 408.347C959.485 410.832 959.059 413.661 959.059 416.834C959.059 420.006 959.485 422.835 960.338 425.321C961.214 427.807 962.504 429.772 964.208 431.216C965.937 432.636 968.067 433.347 970.6 433.347ZM1004.58 444V389.455H1019.25V398.972H1019.82C1020.81 395.586 1022.48 393.029 1024.82 391.301C1027.17 389.549 1029.87 388.673 1032.92 388.673C1033.68 388.673 1034.49 388.721 1035.37 388.815C1036.25 388.91 1037.01 389.04 1037.68 389.206V402.629C1036.97 402.416 1035.99 402.227 1034.73 402.061C1033.48 401.895 1032.33 401.812 1031.29 401.812C1029.06 401.812 1027.07 402.298 1025.32 403.268C1023.59 404.215 1022.22 405.541 1021.2 407.246C1020.21 408.95 1019.71 410.915 1019.71 413.141V444H1004.58ZM1074.61 389.455V400.818H1041.77V389.455H1074.61ZM1049.22 376.386H1064.35V427.239C1064.35 428.635 1064.56 429.724 1064.99 430.506C1065.42 431.263 1066.01 431.796 1066.77 432.104C1067.55 432.411 1068.45 432.565 1069.47 432.565C1070.18 432.565 1070.89 432.506 1071.6 432.388C1072.31 432.246 1072.85 432.139 1073.23 432.068L1075.61 443.325C1074.85 443.562 1073.79 443.834 1072.41 444.142C1071.04 444.473 1069.37 444.675 1067.41 444.746C1063.76 444.888 1060.56 444.402 1057.82 443.29C1055.1 442.177 1052.98 440.449 1051.46 438.105C1049.95 435.761 1049.2 432.802 1049.22 429.227V376.386Z" fill="black"/>
<rect x="71" y="498" width="1038" height="19" fill="black"/>
</svg>
