<svg width="1200" height="900" viewBox="0 0 1200 900" fill="none" xmlns="http://www.w3.org/2000/svg">
<rect width="1200" height="900" fill="white"/>
<path d="M74.5511 383.95V371.273H134.281V383.95H112.016V444H96.8168V383.95H74.5511ZM149.334 445.03C145.854 445.03 142.753 444.426 140.03 443.219C137.308 441.988 135.153 440.177 133.567 437.786C132.005 435.371 131.224 432.364 131.224 428.766C131.224 425.735 131.78 423.19 132.893 421.131C134.005 419.071 135.52 417.414 137.438 416.159C139.356 414.904 141.534 413.957 143.972 413.318C146.434 412.679 149.015 412.229 151.714 411.969C154.886 411.637 157.443 411.33 159.384 411.045C161.325 410.738 162.734 410.288 163.61 409.696C164.486 409.104 164.924 408.228 164.924 407.068V406.855C164.924 404.606 164.214 402.866 162.793 401.635C161.396 400.404 159.408 399.788 156.827 399.788C154.105 399.788 151.938 400.392 150.329 401.599C148.719 402.783 147.653 404.275 147.133 406.074L133.141 404.938C133.851 401.623 135.248 398.759 137.331 396.344C139.415 393.905 142.102 392.035 145.393 390.733C148.707 389.407 152.542 388.744 156.898 388.744C159.929 388.744 162.829 389.099 165.599 389.81C168.392 390.52 170.866 391.621 173.02 393.112C175.198 394.604 176.915 396.521 178.17 398.865C179.424 401.185 180.052 403.967 180.052 407.21V444H165.705V436.436H165.279C164.403 438.141 163.231 439.644 161.763 440.946C160.296 442.224 158.532 443.231 156.472 443.964C154.412 444.675 152.033 445.03 149.334 445.03ZM153.667 434.589C155.892 434.589 157.857 434.152 159.562 433.276C161.266 432.376 162.604 431.169 163.574 429.653C164.545 428.138 165.03 426.422 165.03 424.504V418.716C164.557 419.024 163.906 419.308 163.077 419.568C162.272 419.805 161.361 420.03 160.343 420.243C159.325 420.432 158.307 420.61 157.289 420.776C156.271 420.918 155.348 421.048 154.519 421.166C152.743 421.427 151.193 421.841 149.867 422.409C148.541 422.977 147.511 423.747 146.778 424.717C146.044 425.664 145.677 426.848 145.677 428.268C145.677 430.328 146.422 431.902 147.914 432.991C149.429 434.057 151.347 434.589 153.667 434.589ZM189.157 444V389.455H204.284V444H189.157ZM196.756 382.423C194.507 382.423 192.578 381.678 190.968 380.186C189.381 378.671 188.588 376.86 188.588 374.753C188.588 372.67 189.381 370.882 190.968 369.391C192.578 367.875 194.507 367.118 196.756 367.118C199.005 367.118 200.923 367.875 202.509 369.391C204.119 370.882 204.924 372.67 204.924 374.753C204.924 376.86 204.119 378.671 202.509 380.186C200.923 381.678 199.005 382.423 196.756 382.423ZM228.899 412.466V444H213.771V389.455H228.189V399.078H228.828C230.035 395.906 232.059 393.396 234.9 391.55C237.741 389.679 241.186 388.744 245.234 388.744C249.022 388.744 252.325 389.573 255.142 391.23C257.959 392.887 260.149 395.255 261.711 398.332C263.274 401.386 264.055 405.032 264.055 409.27V444H248.927V411.969C248.951 408.631 248.099 406.027 246.371 404.156C244.642 402.262 242.263 401.315 239.233 401.315C237.197 401.315 235.398 401.753 233.835 402.629C232.296 403.505 231.089 404.784 230.213 406.464C229.361 408.122 228.923 410.122 228.899 412.466ZM302.359 389.455V400.818H269.511V389.455H302.359ZM276.969 376.386H292.097V427.239C292.097 428.635 292.31 429.724 292.736 430.506C293.162 431.263 293.754 431.796 294.511 432.104C295.293 432.411 296.192 432.565 297.21 432.565C297.92 432.565 298.631 432.506 299.341 432.388C300.051 432.246 300.596 432.139 300.974 432.068L303.354 443.325C302.596 443.562 301.531 443.834 300.158 444.142C298.785 444.473 297.115 444.675 295.151 444.746C291.505 444.888 288.309 444.402 285.562 443.29C282.84 442.177 280.721 440.449 279.206 438.105C277.691 435.761 276.945 432.802 276.969 429.227V376.386ZM354.282 405.009L340.433 405.861C340.196 404.677 339.687 403.612 338.906 402.665C338.124 401.694 337.095 400.925 335.816 400.357C334.561 399.765 333.058 399.469 331.306 399.469C328.962 399.469 326.986 399.966 325.376 400.96C323.766 401.931 322.961 403.233 322.961 404.866C322.961 406.169 323.482 407.269 324.524 408.169C325.565 409.069 327.353 409.791 329.886 410.335L339.758 412.324C345.061 413.413 349.015 415.165 351.619 417.58C354.223 419.994 355.525 423.167 355.525 427.097C355.525 430.671 354.471 433.808 352.364 436.507C350.281 439.206 347.417 441.313 343.771 442.828C340.149 444.32 335.97 445.065 331.235 445.065C324.015 445.065 318.262 443.562 313.977 440.555C309.715 437.525 307.218 433.406 306.484 428.197L321.363 427.416C321.813 429.618 322.902 431.299 324.63 432.459C326.358 433.595 328.572 434.163 331.271 434.163C333.922 434.163 336.053 433.654 337.663 432.636C339.296 431.595 340.125 430.257 340.149 428.624C340.125 427.25 339.545 426.126 338.409 425.25C337.272 424.35 335.52 423.664 333.153 423.19L323.707 421.308C318.38 420.243 314.415 418.396 311.81 415.768C309.23 413.141 307.94 409.791 307.94 405.719C307.94 402.215 308.887 399.196 310.781 396.663C312.698 394.13 315.385 392.177 318.842 390.804C322.322 389.431 326.394 388.744 331.058 388.744C337.947 388.744 343.368 390.2 347.322 393.112C351.299 396.024 353.619 399.99 354.282 405.009ZM433.785 389.455L414.715 444H397.67L378.6 389.455H394.58L405.908 428.482H406.476L417.769 389.455H433.785ZM438.894 444V389.455H454.022V444H438.894ZM446.494 382.423C444.245 382.423 442.315 381.678 440.706 380.186C439.119 378.671 438.326 376.86 438.326 374.753C438.326 372.67 439.119 370.882 440.706 369.391C442.315 367.875 444.245 367.118 446.494 367.118C448.743 367.118 450.661 367.875 452.247 369.391C453.857 370.882 454.661 372.67 454.661 374.753C454.661 376.86 453.857 378.671 452.247 380.186C450.661 381.678 448.743 382.423 446.494 382.423ZM488.154 445.065C482.638 445.065 477.867 443.893 473.843 441.55C469.842 439.182 466.752 435.892 464.574 431.678C462.396 427.44 461.307 422.527 461.307 416.94C461.307 411.306 462.396 406.382 464.574 402.168C466.752 397.93 469.842 394.639 473.843 392.295C477.867 389.928 482.638 388.744 488.154 388.744C493.67 388.744 498.428 389.928 502.429 392.295C506.454 394.639 509.555 397.93 511.733 402.168C513.911 406.382 515 411.306 515 416.94C515 422.527 513.911 427.44 511.733 431.678C509.555 435.892 506.454 439.182 502.429 441.55C498.428 443.893 493.67 445.065 488.154 445.065ZM488.225 433.347C490.734 433.347 492.83 432.636 494.51 431.216C496.191 429.772 497.458 427.807 498.31 425.321C499.186 422.835 499.624 420.006 499.624 416.834C499.624 413.661 499.186 410.832 498.31 408.347C497.458 405.861 496.191 403.896 494.51 402.452C492.83 401.008 490.734 400.286 488.225 400.286C485.692 400.286 483.561 401.008 481.833 402.452C480.128 403.896 478.838 405.861 477.962 408.347C477.11 410.832 476.684 413.661 476.684 416.834C476.684 420.006 477.11 422.835 477.962 425.321C478.838 427.807 480.128 429.772 481.833 431.216C483.561 432.636 485.692 433.347 488.225 433.347ZM537.333 371.273V444H522.206V371.273H537.333ZM562.374 445.03C558.894 445.03 555.793 444.426 553.07 443.219C550.348 441.988 548.193 440.177 546.607 437.786C545.044 435.371 544.263 432.364 544.263 428.766C544.263 425.735 544.82 423.19 545.932 421.131C547.045 419.071 548.56 417.414 550.478 416.159C552.395 414.904 554.573 413.957 557.012 413.318C559.474 412.679 562.054 412.229 564.753 411.969C567.926 411.637 570.482 411.33 572.424 411.045C574.365 410.738 575.774 410.288 576.65 409.696C577.526 409.104 577.964 408.228 577.964 407.068V406.855C577.964 404.606 577.253 402.866 575.833 401.635C574.436 400.404 572.447 399.788 569.867 399.788C567.144 399.788 564.978 400.392 563.368 401.599C561.758 402.783 560.693 404.275 560.172 406.074L546.181 404.938C546.891 401.623 548.288 398.759 550.371 396.344C552.455 393.905 555.142 392.035 558.432 390.733C561.747 389.407 565.582 388.744 569.938 388.744C572.968 388.744 575.868 389.099 578.638 389.81C581.432 390.52 583.906 391.621 586.06 393.112C588.238 394.604 589.955 396.521 591.209 398.865C592.464 401.185 593.091 403.967 593.091 407.21V444H578.745V436.436H578.319C577.443 438.141 576.271 439.644 574.803 440.946C573.335 442.224 571.571 443.231 569.512 443.964C567.452 444.675 565.073 445.03 562.374 445.03ZM566.706 434.589C568.932 434.589 570.897 434.152 572.601 433.276C574.306 432.376 575.643 431.169 576.614 429.653C577.585 428.138 578.07 426.422 578.07 424.504V418.716C577.597 419.024 576.946 419.308 576.117 419.568C575.312 419.805 574.401 420.03 573.383 420.243C572.365 420.432 571.347 420.61 570.329 420.776C569.311 420.918 568.387 421.048 567.559 421.166C565.783 421.427 564.232 421.841 562.907 422.409C561.581 422.977 560.551 423.747 559.817 424.717C559.083 425.664 558.716 426.848 558.716 428.268C558.716 430.328 559.462 431.902 560.954 432.991C562.469 434.057 564.386 434.589 566.706 434.589ZM631.209 389.455V400.818H598.361V389.455H631.209ZM605.818 376.386H620.946V427.239C620.946 428.635 621.159 429.724 621.586 430.506C622.012 431.263 622.603 431.796 623.361 432.104C624.142 432.411 625.042 432.565 626.06 432.565C626.77 432.565 627.48 432.506 628.191 432.388C628.901 432.246 629.445 432.139 629.824 432.068L632.203 443.325C631.446 443.562 630.38 443.834 629.007 444.142C627.634 444.473 625.965 444.675 624 444.746C620.354 444.888 617.158 444.402 614.412 443.29C611.69 442.177 609.571 440.449 608.056 438.105C606.541 435.761 605.795 432.802 605.818 429.227V376.386ZM638.432 444V389.455H653.56V444H638.432ZM646.031 382.423C643.782 382.423 641.853 381.678 640.243 380.186C638.657 378.671 637.864 376.86 637.864 374.753C637.864 372.67 638.657 370.882 640.243 369.391C641.853 367.875 643.782 367.118 646.031 367.118C648.28 367.118 650.198 367.875 651.784 369.391C653.394 370.882 654.199 372.67 654.199 374.753C654.199 376.86 653.394 378.671 651.784 380.186C650.198 381.678 648.28 382.423 646.031 382.423ZM687.691 445.065C682.175 445.065 677.405 443.893 673.38 441.55C669.379 439.182 666.29 435.892 664.112 431.678C661.934 427.44 660.845 422.527 660.845 416.94C660.845 411.306 661.934 406.382 664.112 402.168C666.29 397.93 669.379 394.639 673.38 392.295C677.405 389.928 682.175 388.744 687.691 388.744C693.207 388.744 697.966 389.928 701.967 392.295C705.991 394.639 709.093 397.93 711.271 402.168C713.449 406.382 714.538 411.306 714.538 416.94C714.538 422.527 713.449 427.44 711.271 431.678C709.093 435.892 705.991 439.182 701.967 441.55C697.966 443.893 693.207 445.065 687.691 445.065ZM687.762 433.347C690.272 433.347 692.367 432.636 694.048 431.216C695.729 429.772 696.995 427.807 697.848 425.321C698.723 422.835 699.161 420.006 699.161 416.834C699.161 413.661 698.723 410.832 697.848 408.347C696.995 405.861 695.729 403.896 694.048 402.452C692.367 401.008 690.272 400.286 687.762 400.286C685.229 400.286 683.098 401.008 681.37 402.452C679.666 403.896 678.375 405.861 677.5 408.347C676.647 410.832 676.221 413.661 676.221 416.834C676.221 420.006 676.647 422.835 677.5 425.321C678.375 427.807 679.666 429.772 681.37 431.216C683.098 432.636 685.229 433.347 687.762 433.347ZM736.871 412.466V444H721.743V389.455H736.161V399.078H736.8C738.007 395.906 740.031 393.396 742.872 391.55C745.713 389.679 749.158 388.744 753.206 388.744C756.994 388.744 760.296 389.573 763.114 391.23C765.931 392.887 768.121 395.255 769.683 398.332C771.246 401.386 772.027 405.032 772.027 409.27V444H756.899V411.969C756.923 408.631 756.071 406.027 754.342 404.156C752.614 402.262 750.235 401.315 747.205 401.315C745.169 401.315 743.369 401.753 741.807 402.629C740.268 403.505 739.061 404.784 738.185 406.464C737.332 408.122 736.894 410.122 736.871 412.466ZM801.831 464.455V389.455H816.746V398.616H817.421C818.084 397.149 819.043 395.657 820.297 394.142C821.576 392.603 823.233 391.325 825.269 390.307C827.329 389.265 829.885 388.744 832.939 388.744C836.917 388.744 840.586 389.786 843.948 391.869C847.31 393.929 849.997 397.042 852.009 401.209C854.021 405.352 855.027 410.548 855.027 416.798C855.027 422.883 854.045 428.02 852.08 432.21C850.139 436.377 847.487 439.537 844.125 441.692C840.787 443.822 837.047 444.888 832.904 444.888C829.968 444.888 827.471 444.402 825.411 443.432C823.375 442.461 821.706 441.242 820.404 439.774C819.102 438.283 818.107 436.779 817.421 435.264H816.959V464.455H801.831ZM816.64 416.727C816.64 419.971 817.089 422.8 817.989 425.214C818.889 427.629 820.191 429.511 821.895 430.861C823.6 432.187 825.671 432.849 828.11 432.849C830.572 432.849 832.655 432.175 834.36 430.825C836.064 429.452 837.355 427.558 838.231 425.143C839.13 422.705 839.58 419.9 839.58 416.727C839.58 413.579 839.142 410.809 838.266 408.418C837.39 406.027 836.1 404.156 834.395 402.807C832.691 401.457 830.596 400.783 828.11 400.783C825.648 400.783 823.564 401.434 821.86 402.736C820.179 404.038 818.889 405.884 817.989 408.276C817.089 410.667 816.64 413.484 816.64 416.727ZM887.126 445.065C881.61 445.065 876.839 443.893 872.815 441.55C868.814 439.182 865.724 435.892 863.546 431.678C861.368 427.44 860.279 422.527 860.279 416.94C860.279 411.306 861.368 406.382 863.546 402.168C865.724 397.93 868.814 394.639 872.815 392.295C876.839 389.928 881.61 388.744 887.126 388.744C892.642 388.744 897.401 389.928 901.401 392.295C905.426 394.639 908.527 397.93 910.705 402.168C912.883 406.382 913.973 411.306 913.973 416.94C913.973 422.527 912.883 427.44 910.705 431.678C908.527 435.892 905.426 439.182 901.401 441.55C897.401 443.893 892.642 445.065 887.126 445.065ZM887.197 433.347C889.706 433.347 891.802 432.636 893.482 431.216C895.163 429.772 896.43 427.807 897.282 425.321C898.158 422.835 898.596 420.006 898.596 416.834C898.596 413.661 898.158 410.832 897.282 408.347C896.43 405.861 895.163 403.896 893.482 402.452C891.802 401.008 889.706 400.286 887.197 400.286C884.664 400.286 882.533 401.008 880.805 402.452C879.1 403.896 877.81 405.861 876.934 408.347C876.082 410.832 875.656 413.661 875.656 416.834C875.656 420.006 876.082 422.835 876.934 425.321C877.81 427.807 879.1 429.772 880.805 431.216C882.533 432.636 884.664 433.347 887.197 433.347ZM936.305 371.273V444H921.178V371.273H936.305ZM945.792 444V389.455H960.92V444H945.792ZM953.391 382.423C951.142 382.423 949.213 381.678 947.603 380.186C946.017 378.671 945.224 376.86 945.224 374.753C945.224 372.67 946.017 370.882 947.603 369.391C949.213 367.875 951.142 367.118 953.391 367.118C955.641 367.118 957.558 367.875 959.144 369.391C960.754 370.882 961.559 372.67 961.559 374.753C961.559 376.86 960.754 378.671 959.144 380.186C957.558 381.678 955.641 382.423 953.391 382.423ZM995.051 445.065C989.464 445.065 984.658 443.882 980.634 441.514C976.633 439.123 973.555 435.809 971.401 431.571C969.27 427.333 968.205 422.456 968.205 416.94C968.205 411.353 969.282 406.453 971.436 402.239C973.614 398.001 976.704 394.698 980.705 392.331C984.706 389.94 989.464 388.744 994.98 388.744C999.739 388.744 1003.91 389.608 1007.48 391.337C1011.06 393.065 1013.88 395.491 1015.97 398.616C1018.05 401.741 1019.2 405.411 1019.41 409.625H1005.14C1004.73 406.902 1003.67 404.713 1001.94 403.055C1000.24 401.375 997.999 400.534 995.229 400.534C992.885 400.534 990.837 401.173 989.086 402.452C987.357 403.706 986.008 405.541 985.037 407.956C984.067 410.371 983.581 413.295 983.581 416.727C983.581 420.207 984.055 423.167 985.002 425.605C985.972 428.044 987.334 429.902 989.086 431.18C990.837 432.459 992.885 433.098 995.229 433.098C996.957 433.098 998.508 432.743 999.881 432.033C1001.28 431.322 1002.43 430.293 1003.33 428.943C1004.25 427.57 1004.85 425.925 1005.14 424.007H1019.41C1019.18 428.174 1018.04 431.843 1016 435.016C1013.99 438.164 1011.21 440.626 1007.66 442.402C1004.11 444.178 999.905 445.065 995.051 445.065ZM1035.81 464.455C1033.89 464.455 1032.09 464.301 1030.41 463.993C1028.75 463.709 1027.38 463.342 1026.29 462.892L1029.7 451.599C1031.47 452.144 1033.07 452.44 1034.49 452.487C1035.94 452.535 1037.18 452.203 1038.22 451.493C1039.29 450.783 1040.15 449.575 1040.81 447.871L1041.7 445.562L1022.13 389.455H1038.04L1049.34 429.511H1049.9L1061.3 389.455H1077.32L1056.12 449.895C1055.1 452.83 1053.72 455.387 1051.96 457.565C1050.24 459.767 1048.05 461.46 1045.39 462.643C1042.74 463.851 1039.55 464.455 1035.81 464.455Z" fill="black"/>
<rect x="71" y="498" width="1038" height="19" fill="black"/>
</svg>
