<svg width="1200" height="900" viewBox="0 0 1200 900" fill="none" xmlns="http://www.w3.org/2000/svg">
<rect width="1200" height="900" fill="white"/>
<g opacity="0.1">
<path d="M596.87 23.3272C589.132 23.7189 581.55 25.6468 574.569 28.9979L270.266 175.106C254.311 182.763 242.723 197.243 238.781 214.449L163.707 542.645C160.205 557.922 163.055 573.961 171.608 587.111C172.634 588.702 173.738 590.242 174.916 591.726L385.542 854.885C396.587 868.679 413.331 876.71 431.038 876.707L768.811 876.629C786.511 876.642 803.255 868.625 814.307 854.845L1024.86 591.647C1035.91 577.846 1040.05 559.78 1036.1 542.567L960.913 214.371C956.971 197.165 945.382 182.684 929.428 175.028L625.086 28.9979C616.305 24.7825 606.603 22.8326 596.87 23.3272Z" fill="#326CE5" stroke="white" stroke-width="0.5"/>
</g>
<g clip-path="url(#clip0_14_10371)">
<path fill-rule="evenodd" clip-rule="evenodd" d="M371 552H591V780H371V552Z" fill="#53777A"/>
<path d="M405.827 650.766C405.26 646.062 401.701 643.358 396.988 643.358C391.608 643.358 387.502 647.156 387.502 653.818C387.502 660.46 391.539 664.278 396.988 664.278C402.208 664.278 405.36 660.808 405.827 657.06L401.472 657.04C401.064 659.217 399.354 660.47 397.057 660.47C393.965 660.47 391.867 658.173 391.867 653.818C391.867 649.582 393.935 647.166 397.087 647.166C399.444 647.166 401.144 648.528 401.472 650.766H405.827ZM427.627 653.818C427.627 647.156 423.491 643.358 418.092 643.358C412.663 643.358 408.556 647.156 408.556 653.818C408.556 660.45 412.663 664.278 418.092 664.278C423.491 664.278 427.627 660.48 427.627 653.818ZM423.262 653.818C423.262 658.134 421.214 660.47 418.092 660.47C414.96 660.47 412.922 658.134 412.922 653.818C412.922 649.503 414.96 647.166 418.092 647.166C421.214 647.166 423.262 649.503 423.262 653.818ZM447.849 643.636H443.564V656.443H443.385L434.595 643.636H430.817V664H435.122V651.183H435.271L444.131 664H447.849V643.636ZM450.631 647.186H456.865V664H461.121V647.186H467.355V643.636H450.631V647.186ZM470.11 664H474.415V656.781H477.557L481.415 664H486.168L481.843 656.085C484.159 655.091 485.442 653.072 485.442 650.288C485.442 646.241 482.767 643.636 478.144 643.636H470.11V664ZM474.415 653.321V647.156H477.319C479.804 647.156 481.007 648.26 481.007 650.288C481.007 652.307 479.804 653.321 477.338 653.321H474.415ZM507.198 653.818C507.198 647.156 503.061 643.358 497.662 643.358C492.233 643.358 488.127 647.156 488.127 653.818C488.127 660.45 492.233 664.278 497.662 664.278C503.061 664.278 507.198 660.48 507.198 653.818ZM502.833 653.818C502.833 658.134 500.784 660.47 497.662 660.47C494.53 660.47 492.492 658.134 492.492 653.818C492.492 649.503 494.53 647.166 497.662 647.166C500.784 647.166 502.833 649.503 502.833 653.818ZM510.387 664H523.423V660.45H514.692V643.636H510.387V664ZM526.274 664H539.309V660.45H530.579V643.636H526.274V664ZM542.161 664H555.922V660.45H546.466V655.588H555.176V652.038H546.466V647.186H555.882V643.636H542.161V664ZM559.305 664H563.61V656.781H566.752L570.61 664H575.363L571.038 656.085C573.355 655.091 574.637 653.072 574.637 650.288C574.637 646.241 571.963 643.636 567.339 643.636H559.305V664ZM563.61 653.321V647.156H566.514C569 647.156 570.203 648.26 570.203 650.288C570.203 652.307 569 653.321 566.534 653.321H563.61ZM410.787 677.636V698H414.964V684.696H415.133L420.403 697.901H423.246L428.516 684.746H428.685V698H432.861V677.636H427.552L421.944 691.318H421.705L416.097 677.636H410.787ZM439.919 698L441.43 693.357H448.778L450.289 698H454.903L447.883 677.636H442.335L435.305 698H439.919ZM442.524 689.996L445.029 682.29H445.188L447.694 689.996H442.524ZM474.387 677.636H470.101V690.443H469.922L461.132 677.636H457.354V698H461.659V685.183H461.808L470.668 698H474.387V677.636ZM481.454 698L482.965 693.357H490.313L491.824 698H496.438L489.418 677.636H483.87L476.84 698H481.454ZM484.059 689.996L486.564 682.29H486.724L489.229 689.996H484.059ZM511.435 684.219H515.81C515.253 680.192 511.703 677.358 507.1 677.358C501.72 677.358 497.574 681.236 497.574 687.838C497.574 694.281 501.452 698.278 507.189 698.278C512.33 698.278 515.999 695.027 515.999 689.668V687.102H507.477V690.344H511.852C511.793 692.869 510.073 694.47 507.209 694.47C503.977 694.47 501.939 692.054 501.939 687.798C501.939 683.562 504.057 681.166 507.169 681.166C509.387 681.166 510.888 682.31 511.435 684.219ZM519.233 698H532.994V694.45H523.538V689.588H532.248V686.038H523.538V681.186H532.954V677.636H519.233V698ZM536.377 698H540.683V690.781H543.825L547.683 698H552.436L548.11 690.085C550.427 689.091 551.71 687.072 551.71 684.288C551.71 680.241 549.035 677.636 544.411 677.636H536.377V698ZM540.683 687.321V681.156H543.586C546.072 681.156 547.275 682.26 547.275 684.288C547.275 686.307 546.072 687.321 543.606 687.321H540.683Z" fill="white"/>
</g>
<g clip-path="url(#clip1_14_10371)">
<path fill-rule="evenodd" clip-rule="evenodd" d="M614 552H834V780H614V552Z" fill="#53777A"/>
<path d="M651.996 665.493H656.123C656.063 661.864 653.08 659.358 648.546 659.358C644.082 659.358 640.81 661.824 640.83 665.523C640.82 668.526 642.938 670.246 646.379 671.071L648.596 671.628C650.813 672.165 652.046 672.801 652.056 674.173C652.046 675.665 650.634 676.679 648.447 676.679C646.21 676.679 644.599 675.645 644.46 673.607H640.293C640.403 678.011 643.555 680.288 648.496 680.288C653.468 680.288 656.391 677.912 656.401 674.183C656.391 670.793 653.836 668.993 650.296 668.197L648.467 667.76C646.697 667.352 645.215 666.696 645.245 665.234C645.245 663.922 646.408 662.957 648.516 662.957C650.575 662.957 651.837 663.892 651.996 665.493ZM677.265 666.766C676.698 662.062 673.138 659.358 668.425 659.358C663.046 659.358 658.939 663.156 658.939 669.818C658.939 676.46 662.976 680.278 668.425 680.278C673.645 680.278 676.797 676.808 677.265 673.06L672.909 673.04C672.502 675.217 670.792 676.47 668.495 676.47C665.402 676.47 663.304 674.173 663.304 669.818C663.304 665.582 665.373 663.166 668.525 663.166C670.881 663.166 672.581 664.528 672.909 666.766H677.265ZM680.352 680H684.657V671.588H693.397V680H697.693V659.636H693.397V668.038H684.657V659.636H680.352V680ZM701.243 680H715.004V676.45H705.548V671.588H714.258V668.038H705.548V663.186H714.964V659.636H701.243V680ZM725.606 680C731.81 680 735.569 676.162 735.569 669.798C735.569 663.455 731.81 659.636 725.665 659.636H718.387V680H725.606ZM722.692 676.311V663.325H725.437C729.255 663.325 731.273 665.274 731.273 669.798C731.273 674.342 729.255 676.311 725.427 676.311H722.692ZM751.336 659.636V672.493C751.336 674.82 749.706 676.5 747.2 676.5C744.704 676.5 743.064 674.82 743.064 672.493V659.636H738.758V672.861C738.758 677.315 742.119 680.288 747.2 680.288C752.261 680.288 755.642 677.315 755.642 672.861V659.636H751.336ZM759.184 680H772.219V676.45H763.489V659.636H759.184V680ZM775.071 680H788.832V676.45H779.376V671.588H788.086V668.038H779.376V663.186H788.792V659.636H775.071V680ZM792.215 680H796.521V672.781H799.663L803.521 680H808.273L803.948 672.085C806.265 671.091 807.548 669.072 807.548 666.288C807.548 662.241 804.873 659.636 800.249 659.636H792.215V680ZM796.521 669.321V663.156H799.424C801.91 663.156 803.113 664.26 803.113 666.288C803.113 668.307 801.91 669.321 799.444 669.321H796.521Z" fill="white"/>
</g>
<path fill-rule="evenodd" clip-rule="evenodd" d="M327 350L262 386V314L327 350Z" fill="#B8E986"/>
<path fill-rule="evenodd" clip-rule="evenodd" d="M0 359L0 339H308V359H0Z" fill="#B8E986"/>
<g clip-path="url(#clip2_14_10371)">
<path fill-rule="evenodd" clip-rule="evenodd" d="M334 236H554V464H334V236Z" fill="#53777A"/>
<path d="M367.7 357L369.211 352.357H376.559L378.07 357H382.684L375.664 336.636H370.116L363.086 357H367.7ZM370.305 348.996L372.811 341.29H372.97L375.475 348.996H370.305ZM385.135 357H389.441V350.398H393.06C397.743 350.398 400.468 347.604 400.468 343.537C400.468 339.49 397.793 336.636 393.169 336.636H385.135V357ZM389.441 346.947V340.156H392.344C394.83 340.156 396.033 341.509 396.033 343.537C396.033 345.555 394.83 346.947 392.364 346.947H389.441ZM407.569 336.636H403.264V357H407.569V336.636ZM428.639 342.493H432.765C432.706 338.864 429.723 336.358 425.189 336.358C420.724 336.358 417.453 338.824 417.473 342.523C417.463 345.526 419.581 347.246 423.021 348.071L425.238 348.628C427.456 349.165 428.689 349.801 428.699 351.173C428.689 352.665 427.277 353.679 425.089 353.679C422.852 353.679 421.241 352.645 421.102 350.607H416.936C417.045 355.011 420.197 357.288 425.139 357.288C430.111 357.288 433.034 354.912 433.044 351.183C433.034 347.793 430.479 345.993 426.939 345.197L425.109 344.76C423.339 344.352 421.858 343.696 421.888 342.234C421.888 340.922 423.051 339.957 425.159 339.957C427.217 339.957 428.48 340.892 428.639 342.493ZM435.94 357H449.701V353.45H440.245V348.588H448.955V345.038H440.245V340.186H449.661V336.636H435.94V357ZM453.084 357H457.39V349.781H460.532L464.39 357H469.143L464.817 349.085C467.134 348.091 468.417 346.072 468.417 343.288C468.417 339.241 465.742 336.636 461.118 336.636H453.084V357ZM457.39 346.321V340.156H460.293C462.779 340.156 463.982 341.26 463.982 343.288C463.982 345.307 462.779 346.321 460.313 346.321H457.39ZM474.564 336.636H469.781L476.811 357H482.36L489.379 336.636H484.607L479.675 352.108H479.486L474.564 336.636ZM491.83 357H505.592V353.45H496.136V348.588H504.846V345.038H496.136V340.186H505.552V336.636H491.83V357ZM508.975 357H513.28V349.781H516.422L520.28 357H525.033L520.708 349.085C523.025 348.091 524.307 346.072 524.307 343.288C524.307 339.241 521.633 336.636 517.009 336.636H508.975V357ZM513.28 346.321V340.156H516.184C518.67 340.156 519.873 341.26 519.873 343.288C519.873 345.307 518.67 346.321 516.204 346.321H513.28Z" fill="white"/>
</g>
<rect x="762" y="230" width="421" height="234" fill="#53777A"/>
<g clip-path="url(#clip3_14_10371)">
<rect x="879" y="240" width="295" height="46" fill="#F1D4AF"/>
<path d="M897.104 272C903.752 272 907.779 267.888 907.779 261.07C907.779 254.273 903.752 250.182 897.168 250.182H889.37V272H897.104ZM893.983 268.048V254.134H896.923C901.014 254.134 903.177 256.222 903.177 261.07C903.177 265.938 901.014 268.048 896.913 268.048H893.983ZM918.568 272.32C922.617 272.32 925.344 270.349 925.983 267.312L921.786 267.036C921.328 268.282 920.156 268.932 918.643 268.932C916.374 268.932 914.935 267.43 914.935 264.99V264.979H926.079V263.733C926.079 258.172 922.712 255.423 918.387 255.423C913.572 255.423 910.45 258.843 910.45 263.893C910.45 269.081 913.529 272.32 918.568 272.32ZM914.935 262.167C915.031 260.303 916.448 258.811 918.462 258.811C920.433 258.811 921.796 260.217 921.807 262.167H914.935ZM929.041 278.136H933.579V269.379H933.717C934.346 270.743 935.72 272.266 938.362 272.266C942.091 272.266 944.999 269.315 944.999 263.839C944.999 258.214 941.963 255.423 938.373 255.423C935.635 255.423 934.325 257.053 933.717 258.385H933.515V255.636H929.041V278.136ZM933.483 263.818C933.483 260.899 934.719 259.035 936.924 259.035C939.172 259.035 940.365 260.984 940.365 263.818C940.365 266.673 939.151 268.655 936.924 268.655C934.74 268.655 933.483 266.737 933.483 263.818ZM952.563 250.182H948.025V272H952.563V250.182ZM963.592 272.32C968.557 272.32 971.646 268.921 971.646 263.882C971.646 258.811 968.557 255.423 963.592 255.423C958.628 255.423 955.538 258.811 955.538 263.882C955.538 268.921 958.628 272.32 963.592 272.32ZM963.614 268.804C961.323 268.804 960.151 266.705 960.151 263.85C960.151 260.995 961.323 258.886 963.614 258.886C965.861 258.886 967.033 260.995 967.033 263.85C967.033 266.705 965.861 268.804 963.614 268.804ZM976.842 278.136C980.22 278.136 982.009 276.411 982.936 273.768L989.296 255.658L984.492 255.636L981.072 267.653H980.901L977.514 255.636H972.741L978.611 272.469L978.345 273.161C977.748 274.695 976.608 274.77 975.01 274.28L973.987 277.668C974.637 277.945 975.692 278.136 976.842 278.136ZM991.619 272H996.157V262.178C996.157 260.366 997.308 259.163 998.82 259.163C1000.31 259.163 1001.31 260.185 1001.31 261.794V272H1005.71V262.007C1005.71 260.313 1006.68 259.163 1008.33 259.163C1009.78 259.163 1010.87 260.068 1010.87 261.89V272H1015.4V260.995C1015.4 257.447 1013.29 255.423 1010.24 255.423C1007.84 255.423 1005.98 256.648 1005.31 258.523H1005.14C1004.62 256.627 1002.94 255.423 1000.7 255.423C998.49 255.423 996.818 256.595 996.136 258.523H995.944V255.636H991.619V272ZM1026.44 272.32C1030.49 272.32 1033.21 270.349 1033.85 267.312L1029.66 267.036C1029.2 268.282 1028.03 268.932 1026.51 268.932C1024.24 268.932 1022.81 267.43 1022.81 264.99V264.979H1033.95V263.733C1033.95 258.172 1030.58 255.423 1026.26 255.423C1021.44 255.423 1018.32 258.843 1018.32 263.893C1018.32 269.081 1021.4 272.32 1026.44 272.32ZM1022.81 262.167C1022.9 260.303 1024.32 258.811 1026.33 258.811C1028.3 258.811 1029.67 260.217 1029.68 262.167H1022.81ZM1041.45 262.54C1041.46 260.43 1042.72 259.195 1044.55 259.195C1046.37 259.195 1047.47 260.388 1047.46 262.391V272H1052V261.581C1052 257.767 1049.76 255.423 1046.35 255.423C1043.92 255.423 1042.16 256.616 1041.43 258.523H1041.24V255.636H1036.91V272H1041.45V262.54ZM1064.28 255.636H1061.2V251.716H1056.66V255.636H1054.42V259.045H1056.66V267.568C1056.64 270.775 1058.82 272.362 1062.11 272.224C1063.29 272.181 1064.12 271.947 1064.58 271.798L1063.86 268.42C1063.64 268.463 1063.16 268.57 1062.73 268.57C1061.83 268.57 1061.2 268.229 1061.2 266.972V259.045H1064.28V255.636ZM1082.44 272H1085.85L1086.74 266.588H1089.72L1090.29 263.179H1087.3L1087.98 259.003H1090.97L1091.54 255.594H1088.55L1089.43 250.182H1086.02L1085.14 255.594H1080.88L1081.76 250.182H1078.35L1077.47 255.594H1074.5L1073.92 259.003H1076.9L1076.22 263.179H1073.24L1072.68 266.588H1075.66L1074.77 272H1078.18L1079.07 266.588H1083.33L1082.44 272ZM1079.63 263.179L1080.31 259.003H1084.58L1083.89 263.179H1079.63ZM1103.11 250.182H1098.77L1093.37 253.602V257.692L1098.37 254.56H1098.5V272H1103.11V250.182Z" fill="#4A4A4A"/>
</g>
<g clip-path="url(#clip4_14_10371)">
<rect x="879" y="299" width="295" height="46" fill="#F1D4AF"/>
<path d="M891.896 331H896.509V323.926H900.387C905.405 323.926 908.324 320.933 908.324 316.575C908.324 312.239 905.458 309.182 900.504 309.182H891.896V331ZM896.509 320.229V312.953H899.62C902.283 312.953 903.572 314.402 903.572 316.575C903.572 318.738 902.283 320.229 899.641 320.229H896.509ZM918.365 331.32C923.329 331.32 926.419 327.921 926.419 322.882C926.419 317.811 923.329 314.423 918.365 314.423C913.4 314.423 910.311 317.811 910.311 322.882C910.311 327.921 913.4 331.32 918.365 331.32ZM918.386 327.804C916.096 327.804 914.924 325.705 914.924 322.85C914.924 319.995 916.096 317.886 918.386 317.886C920.634 317.886 921.806 319.995 921.806 322.85C921.806 325.705 920.634 327.804 918.386 327.804ZM935.4 331.266C938.042 331.266 939.416 329.743 940.044 328.379H940.236V331H944.711V309.182H940.183V317.385H940.044C939.437 316.053 938.127 314.423 935.389 314.423C931.799 314.423 928.762 317.214 928.762 322.839C928.762 328.315 931.671 331.266 935.4 331.266ZM936.838 327.655C934.611 327.655 933.397 325.673 933.397 322.818C933.397 319.984 934.59 318.035 936.838 318.035C939.043 318.035 940.279 319.899 940.279 322.818C940.279 325.737 939.022 327.655 936.838 327.655ZM963.652 331H967.061L967.946 325.588H970.929L971.493 322.179H968.51L969.192 318.003H972.175L972.75 314.594H969.757L970.641 309.182H967.232L966.348 314.594H962.086L962.971 309.182H959.561L958.677 314.594H955.705L955.13 318.003H958.113L957.431 322.179H954.448L953.883 325.588H956.866L955.982 331H959.391L960.275 325.588H964.537L963.652 331ZM960.84 322.179L961.522 318.003H965.783L965.101 322.179H960.84ZM984.317 309.182H979.981L974.58 312.602V316.692L979.577 313.56H979.704V331H984.317V309.182Z" fill="#4A4A4A"/>
<path d="M1081.75 330V316.909H1086.91C1087.9 316.909 1088.74 317.086 1089.44 317.44C1090.15 317.789 1090.68 318.286 1091.05 318.929C1091.42 319.568 1091.6 320.32 1091.6 321.185C1091.6 322.055 1091.42 322.803 1091.04 323.429C1090.67 324.051 1090.12 324.528 1089.41 324.861C1088.7 325.193 1087.85 325.359 1086.84 325.359H1083.38V323.135H1086.39C1086.92 323.135 1087.36 323.062 1087.71 322.918C1088.06 322.773 1088.32 322.555 1088.49 322.266C1088.67 321.976 1088.75 321.616 1088.75 321.185C1088.75 320.751 1088.67 320.384 1088.49 320.086C1088.32 319.788 1088.06 319.562 1087.7 319.408C1087.36 319.251 1086.91 319.172 1086.38 319.172H1084.51V330H1081.75ZM1088.82 324.043L1092.07 330H1089.01L1085.83 324.043H1088.82ZM1101.65 316.909H1104.41V325.411C1104.41 326.365 1104.19 327.2 1103.73 327.916C1103.28 328.632 1102.64 329.19 1101.83 329.591C1101.02 329.987 1100.07 330.185 1098.99 330.185C1097.9 330.185 1096.95 329.987 1096.14 329.591C1095.32 329.19 1094.69 328.632 1094.24 327.916C1093.79 327.2 1093.56 326.365 1093.56 325.411V316.909H1096.33V325.174C1096.33 325.673 1096.44 326.116 1096.65 326.504C1096.88 326.891 1097.19 327.196 1097.59 327.418C1097.99 327.639 1098.45 327.75 1098.99 327.75C1099.52 327.75 1099.99 327.639 1100.39 327.418C1100.79 327.196 1101.1 326.891 1101.31 326.504C1101.53 326.116 1101.65 325.673 1101.65 325.174V316.909ZM1117.64 316.909V330H1115.25L1109.55 321.761H1109.46V330H1106.69V316.909H1109.12L1114.77 325.142H1114.89V316.909H1117.64ZM1130.88 316.909V330H1128.49L1122.79 321.761H1122.69V330H1119.93V316.909H1122.36L1128.01 325.142H1128.12V316.909H1130.88ZM1135.93 316.909V330H1133.16V316.909H1135.93ZM1149.16 316.909V330H1146.77L1141.07 321.761H1140.98V330H1138.21V316.909H1140.64L1146.29 325.142H1146.4V316.909H1149.16ZM1160.12 321.141C1160.04 320.83 1159.91 320.555 1159.75 320.316C1159.59 320.073 1159.39 319.869 1159.15 319.702C1158.92 319.532 1158.66 319.402 1158.36 319.312C1158.07 319.223 1157.74 319.178 1157.38 319.178C1156.71 319.178 1156.13 319.344 1155.62 319.677C1155.12 320.009 1154.72 320.493 1154.44 321.128C1154.16 321.759 1154.02 322.53 1154.02 323.442C1154.02 324.354 1154.16 325.129 1154.44 325.768C1154.71 326.408 1155.1 326.896 1155.61 327.232C1156.12 327.565 1156.72 327.731 1157.41 327.731C1158.03 327.731 1158.57 327.62 1159.01 327.398C1159.46 327.173 1159.8 326.855 1160.04 326.446C1160.27 326.037 1160.39 325.553 1160.39 324.995L1160.96 325.078H1157.58V322.994H1163.06V324.643C1163.06 325.794 1162.82 326.783 1162.33 327.609C1161.84 328.432 1161.18 329.067 1160.32 329.514C1159.47 329.957 1158.49 330.179 1157.4 330.179C1156.17 330.179 1155.09 329.908 1154.16 329.367C1153.23 328.822 1152.51 328.048 1151.99 327.047C1151.47 326.041 1151.21 324.848 1151.21 323.467C1151.21 322.406 1151.37 321.46 1151.67 320.629C1151.99 319.794 1152.42 319.087 1152.98 318.507C1153.54 317.928 1154.19 317.487 1154.93 317.184C1155.67 316.881 1156.47 316.73 1157.34 316.73C1158.08 316.73 1158.77 316.839 1159.41 317.056C1160.05 317.269 1160.61 317.572 1161.11 317.964C1161.61 318.356 1162.01 318.822 1162.33 319.364C1162.65 319.901 1162.85 320.493 1162.94 321.141H1160.12Z" fill="#08BF43"/>
</g>
<g clip-path="url(#clip5_14_10371)">
<rect x="879" y="354" width="295" height="46" fill="#F1D4AF"/>
<path d="M889.92 386H894.533V378.926H898.411C903.428 378.926 906.347 375.933 906.347 371.575C906.347 367.239 903.482 364.182 898.528 364.182H889.92V386ZM894.533 375.229V367.953H897.643C900.307 367.953 901.596 369.402 901.596 371.575C901.596 373.738 900.307 375.229 897.665 375.229H894.533ZM916.388 386.32C921.353 386.32 924.442 382.921 924.442 377.882C924.442 372.811 921.353 369.423 916.388 369.423C911.424 369.423 908.334 372.811 908.334 377.882C908.334 382.921 911.424 386.32 916.388 386.32ZM916.409 382.804C914.119 382.804 912.947 380.705 912.947 377.85C912.947 374.995 914.119 372.886 916.409 372.886C918.657 372.886 919.829 374.995 919.829 377.85C919.829 380.705 918.657 382.804 916.409 382.804ZM933.423 386.266C936.065 386.266 937.439 384.743 938.068 383.379H938.26V386H942.734V364.182H938.206V372.385H938.068C937.461 371.053 936.15 369.423 933.412 369.423C929.822 369.423 926.786 372.214 926.786 377.839C926.786 383.315 929.694 386.266 933.423 386.266ZM934.861 382.655C932.635 382.655 931.42 380.673 931.42 377.818C931.42 374.984 932.613 373.035 934.861 373.035C937.066 373.035 938.302 374.899 938.302 377.818C938.302 380.737 937.045 382.655 934.861 382.655ZM961.676 386H965.085L965.969 380.588H968.952L969.517 377.179H966.534L967.216 373.003H970.199L970.774 369.594H967.78L968.664 364.182H965.255L964.371 369.594H960.11L960.994 364.182H957.585L956.701 369.594H953.728L953.153 373.003H956.136L955.454 377.179H952.471L951.907 380.588H954.89L954.005 386H957.414L958.299 380.588H962.56L961.676 386ZM958.863 377.179L959.545 373.003H963.806L963.125 377.179H958.863ZM972.849 386H988.403V382.229H979.241V382.08L982.426 378.958C986.911 374.867 988.115 372.822 988.115 370.339C988.115 366.558 985.025 363.884 980.349 363.884C975.768 363.884 972.625 366.621 972.635 370.904H977.014C977.003 368.816 978.324 367.538 980.317 367.538C982.234 367.538 983.662 368.731 983.662 370.648C983.662 372.385 982.596 373.578 980.615 375.485L972.849 382.676V386Z" fill="#4A4A4A"/>
<path d="M1081.75 385V371.909H1086.91C1087.9 371.909 1088.74 372.086 1089.44 372.44C1090.15 372.789 1090.68 373.286 1091.05 373.929C1091.42 374.568 1091.6 375.32 1091.6 376.185C1091.6 377.055 1091.42 377.803 1091.04 378.429C1090.67 379.051 1090.12 379.528 1089.41 379.861C1088.7 380.193 1087.85 380.359 1086.84 380.359H1083.38V378.135H1086.39C1086.92 378.135 1087.36 378.062 1087.71 377.918C1088.06 377.773 1088.32 377.555 1088.49 377.266C1088.67 376.976 1088.75 376.616 1088.75 376.185C1088.75 375.751 1088.67 375.384 1088.49 375.086C1088.32 374.788 1088.06 374.562 1087.7 374.408C1087.36 374.251 1086.91 374.172 1086.38 374.172H1084.51V385H1081.75ZM1088.82 379.043L1092.07 385H1089.01L1085.83 379.043H1088.82ZM1101.65 371.909H1104.41V380.411C1104.41 381.365 1104.19 382.2 1103.73 382.916C1103.28 383.632 1102.64 384.19 1101.83 384.591C1101.02 384.987 1100.07 385.185 1098.99 385.185C1097.9 385.185 1096.95 384.987 1096.14 384.591C1095.32 384.19 1094.69 383.632 1094.24 382.916C1093.79 382.2 1093.56 381.365 1093.56 380.411V371.909H1096.33V380.174C1096.33 380.673 1096.44 381.116 1096.65 381.504C1096.88 381.891 1097.19 382.196 1097.59 382.418C1097.99 382.639 1098.45 382.75 1098.99 382.75C1099.52 382.75 1099.99 382.639 1100.39 382.418C1100.79 382.196 1101.1 381.891 1101.31 381.504C1101.53 381.116 1101.65 380.673 1101.65 380.174V371.909ZM1117.64 371.909V385H1115.25L1109.55 376.761H1109.46V385H1106.69V371.909H1109.12L1114.77 380.142H1114.89V371.909H1117.64ZM1130.88 371.909V385H1128.49L1122.79 376.761H1122.69V385H1119.93V371.909H1122.36L1128.01 380.142H1128.12V371.909H1130.88ZM1135.93 371.909V385H1133.16V371.909H1135.93ZM1149.16 371.909V385H1146.77L1141.07 376.761H1140.98V385H1138.21V371.909H1140.64L1146.29 380.142H1146.4V371.909H1149.16ZM1160.12 376.141C1160.04 375.83 1159.91 375.555 1159.75 375.316C1159.59 375.073 1159.39 374.869 1159.15 374.702C1158.92 374.532 1158.66 374.402 1158.36 374.312C1158.07 374.223 1157.74 374.178 1157.38 374.178C1156.71 374.178 1156.13 374.344 1155.62 374.677C1155.12 375.009 1154.72 375.493 1154.44 376.128C1154.16 376.759 1154.02 377.53 1154.02 378.442C1154.02 379.354 1154.16 380.129 1154.44 380.768C1154.71 381.408 1155.1 381.896 1155.61 382.232C1156.12 382.565 1156.72 382.731 1157.41 382.731C1158.03 382.731 1158.57 382.62 1159.01 382.398C1159.46 382.173 1159.8 381.855 1160.04 381.446C1160.27 381.037 1160.39 380.553 1160.39 379.995L1160.96 380.078H1157.58V377.994H1163.06V379.643C1163.06 380.794 1162.82 381.783 1162.33 382.609C1161.84 383.432 1161.18 384.067 1160.32 384.514C1159.47 384.957 1158.49 385.179 1157.4 385.179C1156.17 385.179 1155.09 384.908 1154.16 384.367C1153.23 383.822 1152.51 383.048 1151.99 382.047C1151.47 381.041 1151.21 379.848 1151.21 378.467C1151.21 377.406 1151.37 376.46 1151.67 375.629C1151.99 374.794 1152.42 374.087 1152.98 373.507C1153.54 372.928 1154.19 372.487 1154.93 372.184C1155.67 371.881 1156.47 371.73 1157.34 371.73C1158.08 371.73 1158.77 371.839 1159.41 372.056C1160.05 372.269 1160.61 372.572 1161.11 372.964C1161.61 373.356 1162.01 373.822 1162.33 374.364C1162.65 374.901 1162.85 375.493 1162.94 376.141H1160.12Z" fill="#08BF43"/>
</g>
<ellipse cx="763.5" cy="346.5" rx="102.5" ry="106.5" fill="white" stroke="#53777A" stroke-width="21"/>
<path d="M756.991 337.962C756.991 343.502 752.671 347.984 747.347 347.984C742.018 347.984 737.71 343.503 737.71 337.962C737.71 332.446 742.019 327.947 747.347 327.947C752.671 327.947 756.991 332.446 756.991 337.962Z" fill="#419EDA"/>
<path d="M769.452 337.964C769.452 343.505 773.772 347.986 779.097 347.986C784.421 347.986 788.737 343.505 788.737 337.964C788.737 332.446 784.421 327.947 779.097 327.947C773.772 327.947 769.452 332.446 769.452 337.964Z" fill="#419EDA"/>
<path fill-rule="evenodd" clip-rule="evenodd" d="M833.068 349.231C833.81 349.231 834.507 349.203 835.202 349.143L837.289 348.976L837.09 351.175C836.065 362.305 832.734 372.908 827.189 382.687L826.114 384.589L824.491 383.16C820.709 379.837 816.141 377.642 811.295 376.763C808.106 383.537 804.329 389.896 800.044 395.802C793.238 398.277 786.146 400.126 778.825 401.229C778.12 406.281 778.682 411.511 780.594 416.341L781.405 418.392L779.323 418.868L763.37 420.704C758.109 420.704 752.737 420.085 747.411 418.868L745.332 418.392L746.14 416.346C748.058 411.515 748.62 406.291 747.915 401.24C740.564 400.138 733.447 398.285 726.616 395.802C722.335 389.901 718.561 383.546 715.377 376.781C710.546 377.665 706.004 379.859 702.245 383.173L700.622 384.603L699.542 382.697C694.007 372.93 690.675 362.327 689.634 351.179L689.435 348.975L691.559 349.143C692.241 349.202 692.943 349.231 693.693 349.231C697.965 349.231 702.114 348.194 705.859 346.293C704.6 338.721 704.094 331.141 704.253 323.647C708.33 317.542 712.989 311.774 718.238 306.463C715.958 302.037 712.591 298.232 708.389 295.527L706.581 294.365L707.995 292.709C715.142 284.334 724.053 277.583 733.762 273.188L735.715 272.305L736.216 274.458C737.384 279.462 739.829 283.978 743.18 287.607C749.644 284.041 756.388 281.163 763.338 278.981C770.305 281.168 777.06 284.054 783.527 287.626C786.892 283.992 789.343 279.465 790.515 274.446L791.013 272.293L792.974 273.179C802.806 277.639 811.478 284.212 818.744 292.713L820.155 294.366L818.345 295.529C814.13 298.243 810.753 302.072 808.469 306.521C813.734 311.853 818.398 317.639 822.478 323.772C822.618 331.27 822.085 338.795 820.832 346.264C824.596 348.183 828.768 349.231 833.068 349.231ZM763.338 379.294C770.957 379.294 778.622 378.217 786.17 376.084C790.321 369.393 793.608 362.202 795.96 354.657C798.312 347.158 799.703 339.334 800.121 331.277C795.219 324.971 789.647 319.439 783.493 314.793C777.279 310.105 770.516 306.286 763.338 303.409C756.148 306.286 749.372 310.11 743.143 314.817C737.014 319.439 731.466 324.929 726.588 331.196C726.987 339.299 728.361 347.168 730.709 354.679C733.067 362.226 736.344 369.393 740.488 376.084C748.042 378.218 755.698 379.294 763.338 379.294Z" fill="#419EDA"/>
<path d="M554 349H669.577H672V352H554V349Z" fill="#9EEBCF"/>
<circle cx="554.5" cy="350.5" r="6.5" fill="white" stroke="#9EEBCF" stroke-width="3"/>
<path d="M652 350.5L644 356V345L652 350.5Z" fill="#9EEBCF"/>
<path d="M554.011 416.045H638.56C644.083 416.045 648.56 420.522 648.56 426.045V552.015" stroke="#9EEBCF" stroke-width="3"/>
<circle cx="554.5" cy="415.5" r="6" fill="white" stroke="#9EEBCF" stroke-width="3"/>
<path fill-rule="evenodd" clip-rule="evenodd" d="M648.5 555L643 547H654L648.5 555Z" fill="#9EEBCF"/>
<path d="M500 463V552H497V463H500Z" fill="#9EEBCF"/>
<circle cx="498.5" cy="462.5" r="6.5" fill="white" stroke="#9EEBCF" stroke-width="3"/>
<path d="M498.5 556L493 548H504L498.5 556Z" fill="#9EEBCF"/>
<defs>
<clipPath id="clip0_14_10371">
<rect width="220" height="228" fill="white" transform="translate(371 552)"/>
</clipPath>
<clipPath id="clip1_14_10371">
<rect width="220" height="228" fill="white" transform="translate(614 552)"/>
</clipPath>
<clipPath id="clip2_14_10371">
<rect width="220" height="228" fill="white" transform="translate(334 236)"/>
</clipPath>
<clipPath id="clip3_14_10371">
<rect width="295" height="46" fill="white" transform="translate(879 240)"/>
</clipPath>
<clipPath id="clip4_14_10371">
<rect width="295" height="46" fill="white" transform="translate(879 299)"/>
</clipPath>
<clipPath id="clip5_14_10371">
<rect width="295" height="46" fill="white" transform="translate(879 354)"/>
</clipPath>
</defs>
</svg>
