<svg width="1200" height="900" viewBox="0 0 1200 900" fill="none" xmlns="http://www.w3.org/2000/svg">
<rect width="1200" height="900" fill="white"/>
<path d="M74.5511 389.95V377.273H134.281V389.95H112.016V450H96.8168V389.95H74.5511ZM155.014 418.466V450H139.886V377.273H154.588V405.078H155.227C156.458 401.858 158.447 399.337 161.193 397.514C163.939 395.668 167.384 394.744 171.527 394.744C175.315 394.744 178.617 395.573 181.435 397.23C184.276 398.864 186.477 401.219 188.04 404.297C189.626 407.351 190.407 411.009 190.384 415.27V450H175.256V417.969C175.279 414.607 174.427 411.991 172.699 410.121C170.994 408.25 168.603 407.315 165.526 407.315C163.466 407.315 161.643 407.753 160.057 408.629C158.494 409.505 157.263 410.784 156.364 412.464C155.488 414.122 155.038 416.122 155.014 418.466ZM213.895 451.03C210.415 451.03 207.314 450.426 204.591 449.219C201.869 447.988 199.715 446.177 198.128 443.786C196.566 441.371 195.785 438.364 195.785 434.766C195.785 431.735 196.341 429.19 197.454 427.131C198.566 425.071 200.081 423.414 201.999 422.159C203.917 420.904 206.095 419.957 208.533 419.318C210.995 418.679 213.576 418.229 216.275 417.969C219.447 417.637 222.004 417.33 223.945 417.045C225.886 416.738 227.295 416.288 228.171 415.696C229.047 415.104 229.485 414.228 229.485 413.068V412.855C229.485 410.606 228.775 408.866 227.354 407.635C225.957 406.404 223.969 405.788 221.388 405.788C218.666 405.788 216.5 406.392 214.89 407.599C213.28 408.783 212.215 410.275 211.694 412.074L197.702 410.938C198.412 407.623 199.809 404.759 201.893 402.344C203.976 399.905 206.663 398.035 209.954 396.733C213.268 395.407 217.103 394.744 221.459 394.744C224.49 394.744 227.39 395.099 230.16 395.81C232.953 396.52 235.427 397.621 237.581 399.112C239.76 400.604 241.476 402.521 242.731 404.865C243.985 407.185 244.613 409.967 244.613 413.21V450H230.266V442.436H229.84C228.964 444.141 227.792 445.644 226.324 446.946C224.857 448.224 223.093 449.231 221.033 449.964C218.974 450.675 216.594 451.03 213.895 451.03ZM218.228 440.589C220.453 440.589 222.418 440.152 224.123 439.276C225.827 438.376 227.165 437.169 228.135 435.653C229.106 434.138 229.591 432.422 229.591 430.504V424.716C229.118 425.024 228.467 425.308 227.638 425.568C226.833 425.805 225.922 426.03 224.904 426.243C223.886 426.432 222.868 426.61 221.85 426.776C220.832 426.918 219.909 427.048 219.08 427.166C217.304 427.427 215.754 427.841 214.428 428.409C213.102 428.977 212.072 429.747 211.339 430.717C210.605 431.664 210.238 432.848 210.238 434.268C210.238 436.328 210.983 437.902 212.475 438.991C213.99 440.057 215.908 440.589 218.228 440.589ZM267.53 418.466V450H252.402V395.455H266.819V405.078H267.459C268.666 401.906 270.69 399.396 273.531 397.55C276.372 395.679 279.817 394.744 283.865 394.744C287.653 394.744 290.955 395.573 293.773 397.23C296.59 398.887 298.78 401.255 300.342 404.332C301.905 407.386 302.686 411.032 302.686 415.27V450H287.558V417.969C287.582 414.631 286.73 412.027 285.001 410.156C283.273 408.262 280.894 407.315 277.864 407.315C275.828 407.315 274.028 407.753 272.466 408.629C270.927 409.505 269.72 410.784 268.844 412.464C267.991 414.122 267.553 416.122 267.53 418.466ZM324.369 434.304L324.404 416.158H326.606L344.078 395.455H361.443L337.97 422.869H334.383L324.369 434.304ZM310.662 450V377.273H325.789V450H310.662ZM344.752 450L328.701 426.243L338.787 415.554L362.473 450H344.752ZM393.454 470.455C391.536 470.455 389.737 470.301 388.056 469.993C386.399 469.709 385.026 469.342 383.937 468.892L387.346 457.599C389.122 458.144 390.72 458.44 392.14 458.487C393.584 458.535 394.827 458.203 395.869 457.493C396.934 456.783 397.798 455.575 398.461 453.871L399.349 451.562L379.782 395.455H395.691L406.984 435.511H407.552L418.951 395.455H434.967L413.766 455.895C412.748 458.83 411.364 461.387 409.612 463.565C407.883 465.767 405.694 467.46 403.042 468.643C400.39 469.851 397.194 470.455 393.454 470.455ZM461.648 451.065C456.132 451.065 451.361 449.893 447.337 447.55C443.336 445.182 440.246 441.892 438.068 437.678C435.89 433.44 434.801 428.527 434.801 422.94C434.801 417.306 435.89 412.382 438.068 408.168C440.246 403.93 443.336 400.639 447.337 398.295C451.361 395.928 456.132 394.744 461.648 394.744C467.164 394.744 471.923 395.928 475.923 398.295C479.948 400.639 483.049 403.93 485.227 408.168C487.405 412.382 488.495 417.306 488.495 422.94C488.495 428.527 487.405 433.44 485.227 437.678C483.049 441.892 479.948 445.182 475.923 447.55C471.923 449.893 467.164 451.065 461.648 451.065ZM461.719 439.347C464.228 439.347 466.324 438.636 468.004 437.216C469.685 435.772 470.952 433.807 471.804 431.321C472.68 428.835 473.118 426.006 473.118 422.834C473.118 419.661 472.68 416.832 471.804 414.347C470.952 411.861 469.685 409.896 468.004 408.452C466.324 407.008 464.228 406.286 461.719 406.286C459.186 406.286 457.055 407.008 455.327 408.452C453.622 409.896 452.332 411.861 451.456 414.347C450.604 416.832 450.178 419.661 450.178 422.834C450.178 426.006 450.604 428.835 451.456 431.321C452.332 433.807 453.622 435.772 455.327 437.216C457.055 438.636 459.186 439.347 461.719 439.347ZM529.362 426.776V395.455H544.49V450H529.966V440.092H529.398C528.167 443.288 526.119 445.857 523.255 447.798C520.414 449.74 516.945 450.71 512.85 450.71C509.204 450.71 505.996 449.882 503.226 448.224C500.456 446.567 498.29 444.212 496.728 441.158C495.189 438.104 494.407 434.446 494.384 430.185V395.455H509.512V427.486C509.535 430.705 510.399 433.25 512.104 435.121C513.808 436.991 516.093 437.926 518.958 437.926C520.781 437.926 522.485 437.512 524.071 436.683C525.657 435.831 526.936 434.576 527.906 432.919C528.901 431.262 529.386 429.214 529.362 426.776ZM570.719 377.273L569.334 428.196H556.337L554.916 377.273H570.719ZM562.835 450.923C560.491 450.923 558.479 450.095 556.798 448.438C555.117 446.757 554.289 444.744 554.312 442.401C554.289 440.08 555.117 438.092 556.798 436.435C558.479 434.777 560.491 433.949 562.835 433.949C565.084 433.949 567.061 434.777 568.766 436.435C570.47 438.092 571.334 440.08 571.358 442.401C571.334 443.963 570.92 445.395 570.115 446.697C569.334 447.976 568.304 449.006 567.026 449.787C565.747 450.545 564.35 450.923 562.835 450.923Z" fill="black"/>
<rect x="71" y="498" width="1038" height="19" fill="black"/>
<path d="M130.504 724.303H120.864C120.494 722.244 119.804 720.431 118.794 718.866C117.785 717.3 116.549 715.972 115.087 714.88C113.625 713.789 111.987 712.965 110.175 712.409C108.383 711.853 106.478 711.575 104.459 711.575C100.814 711.575 97.549 712.491 94.6655 714.324C91.8026 716.157 89.5369 718.845 87.8686 722.388C86.2209 725.93 85.397 730.256 85.397 735.364C85.397 740.513 86.2209 744.859 87.8686 748.401C89.5369 751.944 91.8129 754.621 94.6964 756.434C97.5799 758.246 100.824 759.153 104.428 759.153C106.426 759.153 108.321 758.885 110.113 758.349C111.925 757.793 113.563 756.98 115.025 755.909C116.488 754.838 117.723 753.53 118.733 751.985C119.762 750.42 120.473 748.628 120.864 746.609L130.504 746.64C129.989 749.75 128.99 752.613 127.507 755.229C126.044 757.824 124.16 760.069 121.853 761.964C119.567 763.838 116.951 765.29 114.006 766.32C111.06 767.35 107.847 767.865 104.366 767.865C98.8878 767.865 94.0064 766.567 89.7223 763.972C85.4382 761.357 82.0604 757.618 79.5888 752.757C77.1378 747.897 75.9123 742.099 75.9123 735.364C75.9123 728.608 77.1481 722.81 79.6197 717.97C82.0913 713.109 85.4691 709.381 89.7532 706.786C94.0373 704.17 98.9084 702.862 104.366 702.862C107.724 702.862 110.854 703.346 113.759 704.314C116.683 705.262 119.309 706.662 121.637 708.516C123.964 710.349 125.89 712.594 127.414 715.251C128.938 717.887 129.968 720.905 130.504 724.303ZM148.528 738.824V767H139.291V703.727H148.405V727.269H148.992C150.104 724.715 151.803 722.686 154.089 721.183C156.376 719.679 159.362 718.928 163.049 718.928C166.303 718.928 169.145 719.597 171.576 720.936C174.027 722.275 175.922 724.272 177.261 726.929C178.62 729.566 179.3 732.861 179.3 736.816V767H170.062V737.928C170.062 734.447 169.166 731.749 167.374 729.833C165.582 727.897 163.09 726.929 159.898 726.929C157.714 726.929 155.758 727.393 154.028 728.32C152.318 729.246 150.969 730.606 149.98 732.398C149.012 734.169 148.528 736.311 148.528 738.824ZM189.732 767V719.545H198.661V727.084H199.155C200.02 724.53 201.544 722.522 203.727 721.059C205.931 719.576 208.423 718.835 211.204 718.835C211.781 718.835 212.46 718.855 213.243 718.897C214.046 718.938 214.674 718.989 215.128 719.051V727.887C214.757 727.784 214.098 727.671 213.15 727.547C212.203 727.403 211.255 727.331 210.308 727.331C208.125 727.331 206.178 727.794 204.469 728.721C202.78 729.627 201.441 730.894 200.452 732.521C199.464 734.128 198.969 735.961 198.969 738.021V767H189.732ZM221.227 767V719.545H230.464V767H221.227ZM225.892 712.223C224.285 712.223 222.905 711.688 221.752 710.617C220.619 709.525 220.053 708.228 220.053 706.724C220.053 705.2 220.619 703.902 221.752 702.831C222.905 701.74 224.285 701.194 225.892 701.194C227.499 701.194 228.868 701.74 230.001 702.831C231.154 703.902 231.731 705.2 231.731 706.724C231.731 708.228 231.154 709.525 230.001 710.617C228.868 711.688 227.499 712.223 225.892 712.223ZM276.557 731.131L268.185 732.614C267.834 731.543 267.278 730.523 266.516 729.555C265.775 728.587 264.766 727.794 263.489 727.176C262.212 726.559 260.615 726.25 258.7 726.25C256.084 726.25 253.901 726.837 252.15 728.011C250.399 729.164 249.524 730.657 249.524 732.49C249.524 734.076 250.111 735.353 251.285 736.321C252.459 737.289 254.354 738.082 256.97 738.7L264.508 740.43C268.875 741.44 272.129 742.995 274.271 745.096C276.413 747.196 277.484 749.925 277.484 753.283C277.484 756.125 276.66 758.658 275.012 760.883C273.385 763.087 271.109 764.817 268.185 766.073C265.281 767.33 261.913 767.958 258.082 767.958C252.768 767.958 248.433 766.825 245.075 764.559C241.718 762.273 239.658 759.029 238.896 754.827L247.825 753.468C248.381 755.795 249.524 757.556 251.254 758.751C252.984 759.925 255.24 760.512 258.02 760.512C261.048 760.512 263.468 759.884 265.281 758.627C267.093 757.35 267.999 755.795 267.999 753.962C267.999 752.479 267.443 751.233 266.331 750.224C265.239 749.215 263.561 748.453 261.295 747.938L253.262 746.177C248.834 745.168 245.559 743.561 243.438 741.357C241.337 739.153 240.287 736.363 240.287 732.985C240.287 730.184 241.069 727.733 242.635 725.632C244.2 723.531 246.363 721.893 249.122 720.719C251.882 719.525 255.044 718.928 258.607 718.928C263.736 718.928 267.773 720.04 270.718 722.264C273.663 724.468 275.61 727.424 276.557 731.131ZM358.686 703.727V767H349.912L317.751 720.596H317.164V767H307.617V703.727H316.453L348.646 750.193H349.233V703.727H358.686ZM390.428 767.958C385.753 767.958 381.726 766.959 378.349 764.961C374.991 762.942 372.396 760.11 370.563 756.465C368.751 752.799 367.844 748.504 367.844 743.582C367.844 738.721 368.751 734.437 370.563 730.729C372.396 727.022 374.95 724.128 378.225 722.048C381.52 719.968 385.372 718.928 389.78 718.928C392.457 718.928 395.052 719.37 397.565 720.256C400.078 721.142 402.333 722.532 404.331 724.427C406.329 726.322 407.905 728.783 409.058 731.811C410.211 734.818 410.788 738.474 410.788 742.778V746.053H373.066V739.133H401.736C401.736 736.702 401.242 734.55 400.253 732.676C399.264 730.781 397.874 729.288 396.082 728.196C394.311 727.104 392.231 726.559 389.841 726.559C387.246 726.559 384.981 727.197 383.045 728.474C381.129 729.73 379.646 731.378 378.596 733.417C377.566 735.436 377.051 737.629 377.051 739.998V745.404C377.051 748.576 377.607 751.275 378.719 753.499C379.852 755.723 381.428 757.423 383.446 758.597C385.465 759.75 387.823 760.327 390.521 760.327C392.272 760.327 393.868 760.08 395.31 759.585C396.752 759.07 397.998 758.308 399.048 757.299C400.099 756.29 400.902 755.044 401.458 753.561L410.201 755.136C409.501 757.711 408.244 759.966 406.432 761.902C404.64 763.818 402.385 765.311 399.666 766.382C396.968 767.433 393.889 767.958 390.428 767.958ZM454.703 731.131L446.33 732.614C445.98 731.543 445.424 730.523 444.662 729.555C443.92 728.587 442.911 727.794 441.634 727.176C440.357 726.559 438.761 726.25 436.846 726.25C434.23 726.25 432.047 726.837 430.296 728.011C428.545 729.164 427.67 730.657 427.67 732.49C427.67 734.076 428.257 735.353 429.431 736.321C430.605 737.289 432.5 738.082 435.115 738.7L442.654 740.43C447.02 741.44 450.275 742.995 452.417 745.096C454.559 747.196 455.63 749.925 455.63 753.283C455.63 756.125 454.806 758.658 453.158 760.883C451.531 763.087 449.255 764.817 446.33 766.073C443.426 767.33 440.059 767.958 436.228 767.958C430.914 767.958 426.578 766.825 423.221 764.559C419.864 762.273 417.804 759.029 417.042 754.827L425.971 753.468C426.527 755.795 427.67 757.556 429.4 758.751C431.13 759.925 433.385 760.512 436.166 760.512C439.194 760.512 441.614 759.884 443.426 758.627C445.239 757.35 446.145 755.795 446.145 753.962C446.145 752.479 445.589 751.233 444.477 750.224C443.385 749.215 441.706 748.453 439.441 747.938L431.408 746.177C426.98 745.168 423.705 743.561 421.583 741.357C419.483 739.153 418.432 736.363 418.432 732.985C418.432 730.184 419.215 727.733 420.78 725.632C422.346 723.531 424.508 721.893 427.268 720.719C430.028 719.525 433.19 718.928 436.753 718.928C441.881 718.928 445.918 720.04 448.864 722.264C451.809 724.468 453.755 727.424 454.703 731.131ZM464.633 767V703.727H473.871V727.238H474.427C474.962 726.25 475.735 725.107 476.744 723.809C477.753 722.511 479.154 721.379 480.946 720.411C482.737 719.422 485.106 718.928 488.051 718.928C491.882 718.928 495.301 719.896 498.309 721.832C501.316 723.768 503.674 726.559 505.383 730.204C507.114 733.85 507.979 738.237 507.979 743.365C507.979 748.494 507.124 752.891 505.414 756.558C503.705 760.203 501.357 763.015 498.37 764.992C495.384 766.949 491.975 767.927 488.144 767.927C485.261 767.927 482.902 767.443 481.069 766.475C479.257 765.507 477.835 764.374 476.806 763.076C475.776 761.779 474.983 760.625 474.427 759.616H473.654V767H464.633ZM473.685 743.273C473.685 746.609 474.169 749.534 475.137 752.047C476.105 754.56 477.506 756.527 479.339 757.948C481.172 759.348 483.417 760.049 486.074 760.049C488.834 760.049 491.141 759.317 492.995 757.855C494.848 756.372 496.249 754.364 497.196 751.831C498.164 749.297 498.648 746.445 498.648 743.273C498.648 740.142 498.175 737.331 497.227 734.838C496.3 732.346 494.9 730.379 493.025 728.938C491.172 727.496 488.855 726.775 486.074 726.775C483.397 726.775 481.131 727.465 479.277 728.845C477.444 730.225 476.054 732.151 475.106 734.622C474.159 737.094 473.685 739.977 473.685 743.273ZM516.457 767V719.545H525.694V767H516.457ZM521.122 712.223C519.515 712.223 518.135 711.688 516.982 710.617C515.849 709.525 515.283 708.228 515.283 706.724C515.283 705.2 515.849 703.902 516.982 702.831C518.135 701.74 519.515 701.194 521.122 701.194C522.729 701.194 524.098 701.74 525.231 702.831C526.384 703.902 526.961 705.2 526.961 706.724C526.961 708.228 526.384 709.525 525.231 710.617C524.098 711.688 522.729 712.223 521.122 712.223ZM558.379 719.545V726.96H532.458V719.545H558.379ZM539.409 708.176H548.647V753.066C548.647 754.858 548.915 756.207 549.45 757.114C549.986 757.999 550.676 758.607 551.52 758.936C552.385 759.245 553.322 759.4 554.332 759.4C555.073 759.4 555.722 759.348 556.278 759.245C556.834 759.142 557.267 759.06 557.576 758.998L559.244 766.629C558.708 766.835 557.946 767.041 556.958 767.247C555.969 767.474 554.733 767.597 553.25 767.618C550.82 767.659 548.554 767.227 546.453 766.32C544.353 765.414 542.653 764.013 541.356 762.119C540.058 760.224 539.409 757.845 539.409 754.982V708.176ZM588.854 719.545V726.96H562.933V719.545H588.854ZM569.885 708.176H579.122V753.066C579.122 754.858 579.39 756.207 579.926 757.114C580.461 757.999 581.151 758.607 581.995 758.936C582.861 759.245 583.798 759.4 584.807 759.4C585.548 759.4 586.197 759.348 586.753 759.245C587.309 759.142 587.742 759.06 588.051 758.998L589.719 766.629C589.184 766.835 588.422 767.041 587.433 767.247C586.444 767.474 585.209 767.597 583.726 767.618C581.295 767.659 579.03 767.227 576.929 766.32C574.828 765.414 573.129 764.013 571.831 762.119C570.533 760.224 569.885 757.845 569.885 754.982V708.176ZM623.524 736.26V744.261H595.471V736.26H623.524ZM669.191 720.349C668.862 717.424 667.503 715.158 665.113 713.552C662.724 711.925 659.717 711.111 656.092 711.111C653.497 711.111 651.252 711.523 649.357 712.347C647.462 713.15 645.989 714.262 644.939 715.684C643.909 717.084 643.394 718.68 643.394 720.472C643.394 721.976 643.744 723.273 644.445 724.365C645.166 725.457 646.103 726.373 647.256 727.115C648.43 727.836 649.686 728.443 651.025 728.938C652.364 729.411 653.651 729.803 654.887 730.112L661.066 731.718C663.085 732.212 665.155 732.882 667.276 733.726C669.397 734.571 671.364 735.683 673.177 737.063C674.989 738.443 676.452 740.152 677.564 742.191C678.697 744.23 679.263 746.671 679.263 749.513C679.263 753.097 678.336 756.279 676.483 759.06C674.65 761.841 671.982 764.034 668.481 765.641C665 767.247 660.788 768.05 655.845 768.05C651.108 768.05 647.009 767.299 643.549 765.795C640.088 764.292 637.38 762.16 635.423 759.4C633.467 756.619 632.385 753.324 632.179 749.513H641.757C641.942 751.8 642.684 753.705 643.981 755.229C645.299 756.733 646.978 757.855 649.017 758.597C651.077 759.317 653.332 759.678 655.783 759.678C658.481 759.678 660.881 759.256 662.982 758.411C665.103 757.546 666.771 756.352 667.987 754.827C669.202 753.283 669.809 751.48 669.809 749.421C669.809 747.547 669.274 746.012 668.203 744.817C667.152 743.623 665.721 742.634 663.908 741.852C662.117 741.069 660.088 740.379 657.822 739.782L650.346 737.743C645.279 736.363 641.262 734.334 638.297 731.656C635.351 728.979 633.879 725.436 633.879 721.028C633.879 717.383 634.867 714.201 636.845 711.482C638.822 708.763 641.499 706.652 644.877 705.148C648.255 703.624 652.065 702.862 656.308 702.862C660.592 702.862 664.372 703.614 667.647 705.118C670.942 706.621 673.537 708.691 675.432 711.327C677.327 713.943 678.316 716.95 678.398 720.349H669.191ZM688.035 767V719.545H696.902V727.269H697.489C698.477 724.653 700.094 722.614 702.339 721.152C704.584 719.669 707.272 718.928 710.403 718.928C713.575 718.928 716.232 719.669 718.374 721.152C720.536 722.635 722.133 724.674 723.162 727.269H723.657C724.79 724.736 726.592 722.717 729.063 721.214C731.535 719.69 734.48 718.928 737.899 718.928C742.204 718.928 745.716 720.277 748.434 722.975C751.174 725.673 752.543 729.741 752.543 735.178V767H743.306V736.043C743.306 732.83 742.43 730.503 740.68 729.061C738.929 727.619 736.839 726.898 734.408 726.898C731.401 726.898 729.063 727.825 727.395 729.679C725.727 731.512 724.892 733.87 724.892 736.754V767H715.686V735.456C715.686 732.882 714.883 730.812 713.276 729.246C711.669 727.681 709.579 726.898 707.004 726.898C705.254 726.898 703.637 727.362 702.154 728.289C700.691 729.195 699.507 730.462 698.601 732.089C697.715 733.716 697.272 735.6 697.272 737.743V767H688.035ZM763.03 767V719.545H772.267V767H763.03ZM767.695 712.223C766.088 712.223 764.708 711.688 763.555 710.617C762.422 709.525 761.856 708.228 761.856 706.724C761.856 705.2 762.422 703.902 763.555 702.831C764.708 701.74 766.088 701.194 767.695 701.194C769.301 701.194 770.671 701.74 771.804 702.831C772.957 703.902 773.534 705.2 773.534 706.724C773.534 708.228 772.957 709.525 771.804 710.617C770.671 711.688 769.301 712.223 767.695 712.223ZM804.952 719.545V726.96H779.031V719.545H804.952ZM785.982 708.176H795.22V753.066C795.22 754.858 795.488 756.207 796.023 757.114C796.559 757.999 797.249 758.607 798.093 758.936C798.958 759.245 799.895 759.4 800.905 759.4C801.646 759.4 802.295 759.348 802.851 759.245C803.407 759.142 803.84 759.06 804.149 758.998L805.817 766.629C805.281 766.835 804.519 767.041 803.531 767.247C802.542 767.474 801.306 767.597 799.823 767.618C797.393 767.659 795.127 767.227 793.026 766.32C790.925 765.414 789.226 764.013 787.929 762.119C786.631 760.224 785.982 757.845 785.982 754.982V708.176ZM823.533 738.824V767H814.295V703.727H823.409V727.269H823.996C825.108 724.715 826.807 722.686 829.094 721.183C831.38 719.679 834.366 718.928 838.053 718.928C841.307 718.928 844.15 719.597 846.58 720.936C849.031 722.275 850.926 724.272 852.265 726.929C853.624 729.566 854.304 732.861 854.304 736.816V767H845.066V737.928C845.066 734.447 844.17 731.749 842.378 729.833C840.587 727.897 838.094 726.929 834.902 726.929C832.719 726.929 830.762 727.393 829.032 728.32C827.322 729.246 825.973 730.606 824.985 732.398C824.017 734.169 823.533 736.311 823.533 738.824ZM92.6818 854.793C88.8807 854.793 85.608 853.932 82.8636 852.21C80.1364 850.472 78.0398 848.077 76.5739 845.026C75.108 841.974 74.375 838.48 74.375 834.543C74.375 830.554 75.125 827.034 76.625 823.983C78.125 820.915 80.2386 818.52 82.9659 816.798C85.6932 815.077 88.9063 814.216 92.6051 814.216C95.5881 814.216 98.2472 814.77 100.582 815.878C102.918 816.969 104.801 818.503 106.233 820.48C107.682 822.457 108.543 824.767 108.815 827.409H101.375C100.966 825.568 100.028 823.983 98.5625 822.653C97.1136 821.324 95.1705 820.659 92.733 820.659C90.6023 820.659 88.7358 821.222 87.1335 822.347C85.5483 823.455 84.3125 825.04 83.4261 827.102C82.5398 829.148 82.0966 831.568 82.0966 834.364C82.0966 837.227 82.5313 839.699 83.4006 841.778C84.2699 843.858 85.4972 845.469 87.0824 846.611C88.6847 847.753 90.5682 848.324 92.733 848.324C94.1818 848.324 95.4943 848.06 96.6705 847.531C97.8636 846.986 98.8608 846.21 99.6619 845.205C100.48 844.199 101.051 842.989 101.375 841.574H108.815C108.543 844.114 107.716 846.381 106.335 848.375C104.955 850.369 103.105 851.937 100.787 853.08C98.4858 854.222 95.7841 854.793 92.6818 854.793ZM122.741 830.682V854H115.096V814.727H122.434V821.119H122.92C123.823 819.04 125.238 817.369 127.164 816.108C129.107 814.847 131.553 814.216 134.502 814.216C137.178 814.216 139.522 814.778 141.534 815.903C143.545 817.011 145.105 818.665 146.213 820.864C147.32 823.062 147.874 825.781 147.874 829.02V854H140.23V829.94C140.23 827.094 139.488 824.869 138.005 823.267C136.522 821.648 134.485 820.838 131.894 820.838C130.122 820.838 128.545 821.222 127.164 821.989C125.801 822.756 124.718 823.881 123.917 825.364C123.133 826.83 122.741 828.602 122.741 830.682ZM185.662 824.315L178.733 825.543C178.443 824.656 177.983 823.812 177.352 823.011C176.738 822.21 175.903 821.554 174.846 821.043C173.789 820.531 172.468 820.276 170.883 820.276C168.718 820.276 166.912 820.761 165.463 821.733C164.014 822.687 163.289 823.923 163.289 825.44C163.289 826.753 163.775 827.81 164.747 828.611C165.718 829.412 167.287 830.068 169.451 830.58L175.69 832.011C179.304 832.847 181.997 834.134 183.769 835.872C185.542 837.611 186.429 839.869 186.429 842.648C186.429 845 185.747 847.097 184.383 848.938C183.037 850.761 181.153 852.193 178.733 853.233C176.329 854.273 173.542 854.793 170.372 854.793C165.974 854.793 162.386 853.855 159.608 851.98C156.829 850.088 155.125 847.403 154.494 843.926L161.883 842.801C162.343 844.727 163.289 846.185 164.721 847.173C166.153 848.145 168.019 848.631 170.321 848.631C172.826 848.631 174.829 848.111 176.329 847.071C177.829 846.014 178.579 844.727 178.579 843.21C178.579 841.983 178.119 840.952 177.198 840.116C176.295 839.281 174.906 838.651 173.031 838.224L166.383 836.767C162.718 835.932 160.008 834.602 158.252 832.778C156.514 830.955 155.644 828.645 155.644 825.849C155.644 823.531 156.292 821.503 157.588 819.764C158.883 818.026 160.673 816.67 162.957 815.699C165.241 814.71 167.858 814.216 170.806 814.216C175.051 814.216 178.392 815.136 180.829 816.977C183.267 818.801 184.877 821.247 185.662 824.315ZM197.976 854.486C196.579 854.486 195.377 853.991 194.371 853.003C193.366 851.997 192.863 850.787 192.863 849.372C192.863 847.974 193.366 846.781 194.371 845.793C195.377 844.787 196.579 844.284 197.976 844.284C199.374 844.284 200.576 844.787 201.581 845.793C202.587 846.781 203.09 847.974 203.09 849.372C203.09 850.31 202.851 851.17 202.374 851.955C201.914 852.722 201.3 853.335 200.533 853.795C199.766 854.256 198.914 854.486 197.976 854.486ZM211.435 854V814.727H218.773V821.119H219.259C220.077 818.955 221.415 817.267 223.273 816.057C225.131 814.83 227.356 814.216 229.947 814.216C232.572 814.216 234.77 814.83 236.543 816.057C238.333 817.284 239.654 818.972 240.506 821.119H240.915C241.853 819.023 243.344 817.352 245.39 816.108C247.435 814.847 249.873 814.216 252.702 814.216C256.265 814.216 259.171 815.332 261.421 817.565C263.688 819.798 264.822 823.165 264.822 827.665V854H257.177V828.381C257.177 825.722 256.452 823.795 255.003 822.602C253.555 821.409 251.824 820.812 249.813 820.812C247.324 820.812 245.39 821.58 244.009 823.114C242.628 824.631 241.938 826.582 241.938 828.969V854H234.319V827.895C234.319 825.764 233.654 824.051 232.324 822.756C230.995 821.46 229.265 820.812 227.134 820.812C225.685 820.812 224.347 821.196 223.12 821.963C221.91 822.713 220.93 823.761 220.18 825.108C219.447 826.455 219.08 828.014 219.08 829.787V854H211.435ZM290.099 854.793C286.23 854.793 282.898 853.966 280.102 852.312C277.324 850.642 275.176 848.298 273.659 845.281C272.159 842.247 271.409 838.693 271.409 834.619C271.409 830.597 272.159 827.051 273.659 823.983C275.176 820.915 277.29 818.52 280 816.798C282.727 815.077 285.915 814.216 289.563 814.216C291.778 814.216 293.926 814.582 296.006 815.315C298.085 816.048 299.952 817.199 301.605 818.767C303.259 820.335 304.563 822.372 305.517 824.878C306.472 827.366 306.949 830.392 306.949 833.955V836.665H275.73V830.938H299.457C299.457 828.926 299.048 827.145 298.23 825.594C297.412 824.026 296.261 822.79 294.778 821.886C293.313 820.983 291.591 820.531 289.614 820.531C287.466 820.531 285.591 821.06 283.989 822.116C282.403 823.156 281.176 824.52 280.307 826.207C279.455 827.878 279.028 829.693 279.028 831.653V836.128C279.028 838.753 279.489 840.986 280.409 842.827C281.347 844.668 282.651 846.074 284.321 847.045C285.992 848 287.943 848.477 290.176 848.477C291.625 848.477 292.946 848.273 294.139 847.864C295.332 847.437 296.364 846.807 297.233 845.972C298.102 845.136 298.767 844.105 299.227 842.878L306.463 844.182C305.884 846.312 304.844 848.179 303.344 849.781C301.861 851.366 299.994 852.602 297.744 853.489C295.511 854.358 292.963 854.793 290.099 854.793Z" fill="black"/>
</svg>
