<svg width="1200" height="900" viewBox="0 0 1200 900" fill="none" xmlns="http://www.w3.org/2000/svg">
<rect opacity="0.6" x="152" y="158" width="890.214" height="572.709" fill="#FCC936"/>
<path fill-rule="evenodd" clip-rule="evenodd" d="M156.962 327.976H152V323H166.885V334H156.962V327.976ZM176.808 323V334H186.731V323H176.808ZM196.654 323V334H206.577V323H196.654ZM216.5 323V334H226.423V323H216.5ZM236.346 323V334H246.269V323H236.346ZM256.193 323V334H266.116V323H256.193ZM276.039 323V334H285.962V323H276.039ZM295.885 323V334H305.808V323H295.885ZM315.731 323V334H325.654V323H315.731ZM335.577 323V334H345.5V323H335.577ZM355.423 323V334H365.346V323H355.423ZM375.269 323V334H385.192V323H375.269ZM395.115 323V334H405.039V323H395.115ZM414.962 323V334H424.885V323H414.962ZM434.808 323V334H444.731V323H434.808ZM454.654 323V334H464.577V323H454.654ZM474.5 323V334H484.423V323H474.5ZM494.346 323V334H504.269V323H494.346ZM514.192 323V334H524.115V323H514.192ZM534.038 323V334H543.961V323H534.038ZM553.885 323V334H563.808V323H553.885ZM573.731 323V334H583.654V323H573.731ZM593.577 323V334H603.5V323H593.577ZM613.423 323V334H623.346V323H613.423ZM633.269 323V334H643.192V323H633.269ZM653.115 323V334H663.038V323H653.115ZM672.961 323V334H682.885V323H672.961ZM692.808 323V334H702.731V323H692.808ZM712.654 323V334H722.577V323H712.654ZM732.5 323V334H742.423V323H732.5ZM752.346 323V334H762.269V323H752.346ZM772.192 323V334H782.115V323H772.192ZM792.038 323V327.975H786V337.927H797V323H792.038ZM797 347.878H786V357.829H797V347.878ZM797 367.78H786V377.732H797V367.78ZM797 387.683H786V397.634H797V387.683ZM797 407.585H786V417.537H797V407.585ZM797 427.488H786V437.439H797V427.488ZM797 447.39H786V457.341H797V447.39ZM797 467.293H786V477.244H797V467.293ZM797 487.195H786V497.146H797V487.195ZM797 507.098H786V517.049H797V507.098ZM797 527H786V536.951H797V527ZM797 546.902H786V556.854H797V546.902ZM797 566.805H786V576.756H797V566.805ZM797 586.707H786V596.659H797V586.707ZM797 606.61H786V616.561H797V606.61ZM797 626.512H786V636.463H797V626.512ZM797 646.415H786V656.366H797V646.415ZM797 666.317H786V676.268H797V666.317ZM797 686.22H786V696.171H797V686.22ZM797 706.122H786V716.073H797V706.122ZM797 726.024H792.038V720H782.115V731H797V726.024ZM772.192 731V720H762.269V731H772.192ZM752.346 731V720H742.423V731H752.346ZM732.5 731V720H722.577V731H732.5ZM712.654 731V720H702.731V731H712.654ZM692.807 731V720H682.884V731H692.807ZM672.961 731V720H663.038V731H672.961ZM653.115 731V720H643.192V731H653.115ZM633.269 731V720H623.346V731H633.269ZM613.423 731V720H603.5V731H613.423ZM593.577 731V720H583.654V731H593.577ZM573.731 731V720H563.808V731H573.731ZM553.885 731V720H543.961V731H553.885ZM534.038 731V720H524.115V731H534.038ZM514.192 731V720H504.269V731H514.192ZM494.346 731V720H484.423V731H494.346ZM474.5 731V720H464.577V731H474.5ZM454.654 731V720H444.731V731H454.654ZM434.808 731V720H424.885V731H434.808ZM414.962 731V720H405.039V731H414.962ZM395.115 731V720H385.192V731H395.115ZM375.269 731V720H365.346V731H375.269ZM355.423 731V720H345.5V731H355.423ZM335.577 731V720H325.654V731H335.577ZM315.731 731V720H305.808V731H315.731ZM295.885 731V720H285.962V731H295.885ZM276.038 731V720H266.115V731H276.038ZM256.192 731V720H246.269V731H256.192ZM236.346 731V720H226.423V731H236.346ZM216.5 731V720H206.577V731H216.5ZM196.654 731V720H186.731V731H196.654ZM176.808 731V720H166.885V731H176.808ZM156.962 731V726.025H163V716.073H152V731H156.962ZM152 706.122H163V696.171H152V706.122ZM152 686.22H163V676.268H152V686.22ZM152 666.317H163V656.366H152V666.317ZM152 646.415H163V636.463H152V646.415ZM152 626.512H163V616.561H152V626.512ZM152 606.61H163V596.659H152V606.61ZM152 586.707H163V576.756H152V586.707ZM152 566.805H163V556.854H152V566.805ZM152 546.902H163V536.951H152V546.902ZM152 527H163V517.049H152V527ZM152 507.098H163V497.146H152V507.098ZM152 487.195H163V477.244H152V487.195ZM152 467.293H163V457.341H152V467.293ZM152 447.39H163V437.439H152V447.39ZM152 427.488H163V417.537H152V427.488ZM152 407.585H163V397.634H152V407.585ZM152 387.683H163V377.732H152V387.683ZM152 367.78H163V357.829H152V367.78ZM152 347.878H163V337.927H152V347.878Z" fill="#8EBE00"/>
<path fill-rule="evenodd" clip-rule="evenodd" d="M157 163.026H152V158H167V169H157V163.026ZM177 158V169H187V158H177ZM197 158V169H207V158H197ZM217 158V169H227V158H217ZM237 158V169H247V158H237ZM257 158V169H267V158H257ZM277 158V169H287V158H277ZM297 158V169H307V158H297ZM317 158V169H327V158H317ZM337 158V169H347V158H337ZM357 158V169H367V158H357ZM377 158V169H387V158H377ZM397 158V169H407V158H397ZM417 158V169H427V158H417ZM437 158V169H447V158H437ZM457 158V169H467V158H457ZM477 158V169H487V158H477ZM497 158V169H507V158H497ZM517 158V169H527V158H517ZM537 158V169H547V158H537ZM557 158V169H567V158H557ZM577 158V169H587V158H577ZM597 158V169H607V158H597ZM617 158V169H627V158H617ZM637 158V169H647V158H637ZM657 158V169H667V158H657ZM677 158V169H687V158H677ZM697 158V169H707V158H697ZM717 158V169H727V158H717ZM737 158V169H747V158H737ZM757 158V169H767V158H757ZM777 158V169H787V158H777ZM797 158V169H807V158H797ZM817 158V169H827V158H817ZM837 158V169H847V158H837ZM857 158V169H867V158H857ZM877 158V169H887V158H877ZM897 158V169H907V158H897ZM917 158V169H927V158H917ZM937 158V169H947V158H937ZM957 158V169H967V158H957ZM977 158V169H987V158H977ZM997 158V169H1007V158H997ZM1017 158V169H1027V158H1017ZM1037 158V163.026H1031V173.079H1042V158H1037ZM1042 183.131H1031V193.184H1042V183.131ZM1042 203.237H1031V213.289H1042V203.237ZM1042 223.342H1031V233.395H1042V223.342ZM1042 243.447H1031V253.5H1042V243.447ZM1042 263.552H1031V273.605H1042V263.552ZM1042 283.658H1031V293.71H1042V283.658ZM1042 303.763H1031V313.816H1042V303.763ZM1042 323.868H1031V333.921H1042V323.868ZM1042 343.974H1031V354.026H1042V343.974ZM1042 364.079H1031V374.132H1042V364.079ZM1042 384.184H1031V394.237H1042V384.184ZM1042 404.289H1031V414.342H1042V404.289ZM1042 424.395H1031V434.447H1042V424.395ZM1042 444.5H1031V454.553H1042V444.5ZM1042 464.605H1031V474.658H1042V464.605ZM1042 484.711H1031V494.763H1042V484.711ZM1042 504.816H1031V514.868H1042V504.816ZM1042 524.921H1031V534.974H1042V524.921ZM1042 545.026H1031V555.079H1042V545.026ZM1042 565.132H1031V575.184H1042V565.132ZM1042 585.237H1031V595.289H1042V585.237ZM1042 605.342H1031V615.395H1042V605.342ZM1042 625.447H1031V635.5H1042V625.447ZM1042 645.553H1031V655.605H1042V645.553ZM1042 665.658H1031V675.711H1042V665.658ZM1042 685.763H1031V695.816H1042V685.763ZM1042 705.868H1031V715.921H1042V705.868ZM1042 725.974H1037V720H1027V731H1042V725.974ZM1017 731V720H1007V731H1017ZM997 731V720H987V731H997ZM977 731V720H967V731H977ZM957 731V720H947V731H957ZM937 731V720H927V731H937ZM917 731V720H907V731H917ZM897 731V720H887V731H897ZM877 731V720H867V731H877ZM857 731V720H847V731H857ZM837 731V720H827V731H837ZM817 731V720H807V731H817ZM797 731V720H787V731H797ZM777 731V720H767V731H777ZM757 731V720H747V731H757ZM737 731V720H727V731H737ZM717 731V720H707V731H717ZM697 731V720H687V731H697ZM677 731V720H667V731H677ZM657 731V720H647V731H657ZM637 731V720H627V731H637ZM617 731V720H607V731H617ZM597 731V720H587V731H597ZM577 731V720H567V731H577ZM557 731V720H547V731H557ZM537 731V720H527V731H537ZM517 731V720H507V731H517ZM497 731V720H487V731H497ZM477 731V720H467V731H477ZM457 731V720H447V731H457ZM437 731V720H427V731H437ZM417 731V720H407V731H417ZM397 731V720H387V731H397ZM377 731V720H367V731H377ZM357 731V720H347V731H357ZM337 731V720H327V731H337ZM317 731V720H307V731H317ZM297 731V720H287V731H297ZM277 731V720H267V731H277ZM257 731V720H247V731H257ZM237 731V720H227V731H237ZM217 731V720H207V731H217ZM197 731V720H187V731H197ZM177 731V720H167V731H177ZM157 731V725.974H163V715.921H152V731H157ZM152 705.869H163V695.816H152V705.869ZM152 685.763H163V675.711H152V685.763ZM152 665.658H163V655.605H152V665.658ZM152 645.553H163V635.5H152V645.553ZM152 625.448H163V615.395H152V625.448ZM152 605.342H163V595.29H152V605.342ZM152 585.237H163V575.184H152V585.237ZM152 565.132H163V555.079H152V565.132ZM152 545.026H163V534.974H152V545.026ZM152 524.921H163V514.868H152V524.921ZM152 504.816H163V494.763H152V504.816ZM152 484.711H163V474.658H152V484.711ZM152 464.605H163V454.553H152V464.605ZM152 444.5H163V434.447H152V444.5ZM152 424.395H163V414.342H152V424.395ZM152 404.289H163V394.237H152V404.289ZM152 384.184H163V374.132H152V384.184ZM152 364.079H163V354.026H152V364.079ZM152 343.974H163V333.921H152V343.974ZM152 323.868H163V313.816H152V323.868ZM152 303.763H163V293.71H152V303.763ZM152 283.658H163V273.605H152V283.658ZM152 263.553H163V253.5H152V263.553ZM152 243.447H163V233.395H152V243.447ZM152 223.342H163V213.289H152V223.342ZM152 203.237H163V193.184H152V203.237ZM152 183.132H163V173.079H152V183.132Z" fill="#8EBE00"/>
<rect x="152.312" y="473.539" width="364.233" height="257.599" fill="#8FBE00"/>
<path d="M289.156 623H297.262V610.569H304.077C312.894 610.569 318.024 605.309 318.024 597.652C318.024 590.033 312.988 584.66 304.283 584.66H289.156V623ZM297.262 604.073V591.287H302.729C307.409 591.287 309.674 593.833 309.674 597.652C309.674 601.452 307.409 604.073 302.766 604.073H297.262ZM334.087 623.562C342.811 623.562 348.24 617.59 348.24 608.735C348.24 599.824 342.811 593.87 334.087 593.87C325.363 593.87 319.934 599.824 319.934 608.735C319.934 617.59 325.363 623.562 334.087 623.562ZM334.124 617.384C330.099 617.384 328.04 613.696 328.04 608.679C328.04 603.661 330.099 599.955 334.124 599.955C338.074 599.955 340.133 603.661 340.133 608.679C340.133 613.696 338.074 617.384 334.124 617.384ZM362.44 623.468C367.082 623.468 369.497 620.791 370.602 618.395H370.939V623H378.802V584.66H370.845V599.075H370.602C369.535 596.735 367.232 593.87 362.421 593.87C356.112 593.87 350.777 598.775 350.777 608.66C350.777 618.282 355.887 623.468 362.44 623.468ZM364.967 617.122C361.054 617.122 358.92 613.64 358.92 608.622C358.92 603.643 361.017 600.217 364.967 600.217C368.842 600.217 371.014 603.493 371.014 608.622C371.014 613.752 368.805 617.122 364.967 617.122Z" fill="#242A09"/>
<path d="M916.46 133.73H941.004V127.047H924.567V95.3901H916.46V133.73ZM944.64 133.73H952.616V104.975H944.64V133.73ZM948.647 101.268C951.024 101.268 952.971 99.4526 952.971 97.2248C952.971 95.0157 951.024 93.1998 948.647 93.1998C946.288 93.1998 944.341 95.0157 944.341 97.2248C944.341 99.4526 946.288 101.268 948.647 101.268ZM957.422 133.73H965.398V116.47C965.398 113.287 967.419 111.172 970.078 111.172C972.699 111.172 974.458 112.969 974.458 115.796V133.73H982.19V116.17C982.19 113.194 983.894 111.172 986.796 111.172C989.342 111.172 991.251 112.763 991.251 115.964V133.73H999.207V114.392C999.207 108.158 995.501 104.601 990.147 104.601C985.934 104.601 982.658 106.754 981.479 110.049H981.179C980.262 106.716 977.323 104.601 973.373 104.601C969.497 104.601 966.558 106.66 965.36 110.049H965.023V104.975H957.422V133.73ZM1003.93 133.73H1011.9V104.975H1003.93V133.73ZM1007.93 101.268C1010.31 101.268 1012.26 99.4526 1012.26 97.2248C1012.26 95.0157 1010.31 93.1998 1007.93 93.1998C1005.57 93.1998 1003.63 95.0157 1003.63 97.2248C1003.63 99.4526 1005.57 101.268 1007.93 101.268ZM1032 104.975H1026.59V98.0859H1018.62V104.975H1014.69V110.966H1018.62V125.943C1018.58 131.578 1022.42 134.367 1028.2 134.124C1030.26 134.049 1031.72 133.637 1032.53 133.375L1031.27 127.44C1030.88 127.515 1030.04 127.702 1029.29 127.702C1027.7 127.702 1026.59 127.103 1026.59 124.894V110.966H1032V104.975Z" fill="black"/>
<path d="M304.224 774.405C308.88 774.405 312.046 771.372 312.035 767.145C312.046 763.142 309.248 760.262 305.48 760.262C303.642 760.262 302.059 761.028 301.324 762.06H301.201L301.742 756.821H310.881V753.206H298.097L297.106 764.235L301.038 764.939C301.681 764.071 302.927 763.53 304.162 763.53C306.266 763.54 307.777 765.062 307.777 767.257C307.777 769.432 306.297 770.933 304.224 770.933C302.467 770.933 301.048 769.83 300.946 768.207H296.657C296.739 771.822 299.894 774.405 304.224 774.405ZM323.355 753.206H319.199L314.022 756.484V760.405L318.811 757.403H318.933V774.119H323.355V753.206ZM327.463 774.119H342.371V770.504H333.589V770.361L336.643 767.369C340.942 763.448 342.096 761.488 342.096 759.108C342.096 755.483 339.134 752.92 334.651 752.92C330.261 752.92 327.248 755.545 327.258 759.65H331.455C331.445 757.648 332.711 756.423 334.621 756.423C336.459 756.423 337.827 757.566 337.827 759.405C337.827 761.069 336.806 762.213 334.907 764.041L327.463 770.933V774.119ZM344.835 753.206V774.119H349.124V760.456H349.297L354.709 774.017H357.63L363.042 760.507H363.215V774.119H367.504V753.206H362.051L356.292 767.257H356.047L350.288 753.206H344.835ZM370.284 774.119H379.219C383.917 774.119 386.418 771.668 386.418 768.339C386.418 765.245 384.203 763.377 381.823 763.264V763.06C383.998 762.57 385.601 761.028 385.601 758.567C385.601 755.432 383.273 753.206 378.658 753.206H370.284V774.119ZM374.706 770.504V764.949H378.413C380.537 764.949 381.854 766.175 381.854 767.9C381.854 769.473 380.782 770.504 378.311 770.504H374.706ZM374.706 761.957V756.78H378.065C380.026 756.78 381.139 757.791 381.139 759.302C381.139 760.957 379.791 761.957 377.984 761.957H374.706Z" fill="black"/>
<path d="M127.46 664.929C127.46 659.671 123.457 656.495 116.564 656.485C109.722 656.474 105.801 659.691 105.801 664.929C105.801 670.178 109.712 673.364 116.564 673.374C123.436 673.395 127.449 670.198 127.46 664.929ZM123.794 664.929C123.794 667.329 121.384 668.881 116.564 668.871C111.816 668.861 109.426 667.319 109.426 664.929C109.426 662.55 111.816 660.998 116.564 660.998C121.384 660.988 123.794 662.54 123.794 664.929ZM127.265 652.482C127.265 651.174 126.173 650.041 124.815 650.031C123.477 650.041 122.384 651.174 122.384 652.482C122.384 653.829 123.477 654.942 124.815 654.932C126.173 654.942 127.265 653.829 127.265 652.482ZM127 647.363L127 632.454L123.385 632.454L123.385 641.236L123.242 641.236L120.25 638.183C116.329 633.884 114.369 632.73 111.989 632.73C108.364 632.73 105.801 635.691 105.801 640.174C105.801 644.565 108.425 647.577 112.53 647.567L112.53 643.37C110.529 643.38 109.304 642.114 109.304 640.205C109.304 638.367 110.447 636.998 112.285 636.998C113.95 636.998 115.094 638.019 116.921 639.919L123.814 647.363L127 647.363ZM127.286 622.475C127.286 617.819 124.253 614.653 120.026 614.663C116.023 614.653 113.143 617.451 113.143 621.219C113.143 623.057 113.909 624.64 114.94 625.375L114.94 625.498L109.702 624.956L109.702 615.817L106.087 615.817L106.087 628.602L117.115 629.592L117.82 625.661C116.952 625.018 116.411 623.772 116.411 622.536C116.421 620.433 117.943 618.921 120.138 618.921C122.313 618.921 123.814 620.402 123.814 622.475C123.814 624.231 122.711 625.651 121.088 625.753L121.088 630.042C124.702 629.96 127.286 626.805 127.286 622.475ZM111.315 591.986L111.315 596.591L122.538 599.838L122.538 600.002L111.315 603.259L111.315 607.854L127 602.371L127 597.469L111.315 591.986ZM113.409 572.089C108.579 572.671 105.801 576.327 105.801 581.167C105.801 586.691 109.702 590.908 116.544 590.908C123.365 590.908 127.286 586.763 127.286 581.167C127.286 575.806 123.722 572.569 119.872 572.089L119.852 576.561C122.088 576.98 123.375 578.736 123.375 581.095C123.375 584.271 121.016 586.426 116.544 586.426C112.193 586.426 109.712 584.302 109.712 581.065C109.712 578.645 111.111 576.898 113.409 576.561L113.409 572.089ZM127 569.781L127 565.359L120.22 565.359L120.22 561.642C120.22 556.833 117.35 554.035 113.174 554.035C109.018 554.035 106.087 556.782 106.087 561.53L106.087 569.781L127 569.781ZM116.676 565.359L109.702 565.359L109.702 562.378C109.702 559.825 111.091 558.589 113.174 558.589C115.247 558.589 116.676 559.825 116.676 562.357L116.676 565.359ZM106.087 539.108L119.29 539.108C121.68 539.108 123.406 540.783 123.406 543.356C123.406 545.919 121.68 547.604 119.29 547.604L106.087 547.604L106.087 552.026L119.668 552.026C124.243 552.026 127.296 548.574 127.296 543.356C127.296 538.159 124.243 534.687 119.668 534.687L106.087 534.687L106.087 539.108Z" fill="black"/>
<path d="M540.639 116.208H559.042V122.947H566.792V116.208H571.547V109.712H566.792V84.6069H556.645L540.639 109.824V116.208ZM559.192 109.712H548.801V109.412L558.892 93.4432H559.192V109.712ZM601.014 97.0002H609.251C608.203 89.4182 601.52 84.0828 592.852 84.0828C582.724 84.0828 574.917 91.3839 574.917 103.815C574.917 115.946 582.219 123.471 593.02 123.471C602.699 123.471 609.607 117.35 609.607 107.259V102.429H593.563V108.532H601.801C601.688 113.287 598.45 116.301 593.058 116.301C586.974 116.301 583.136 111.752 583.136 103.74C583.136 95.7646 587.123 91.2528 592.983 91.2528C597.158 91.2528 599.985 93.4057 601.014 97.0002ZM614.115 122.947H630.495C639.107 122.947 643.694 118.454 643.694 112.351C643.694 106.679 639.631 103.253 635.269 103.047V102.673C639.257 101.774 642.196 98.9471 642.196 94.4354C642.196 88.6881 637.928 84.6069 629.466 84.6069H614.115V122.947ZM622.221 116.32V106.136H629.016C632.91 106.136 635.325 108.382 635.325 111.546C635.325 114.429 633.36 116.32 628.829 116.32H622.221ZM622.221 100.651V91.1592H628.38C631.974 91.1592 634.015 93.0126 634.015 95.7833C634.015 98.8161 631.544 100.651 628.23 100.651H622.221Z" fill="black"/>
<path d="M1122.34 383.098L1122.34 375.479L1116.33 365.988L1109.14 365.988L1114.65 374.768L1114.65 374.992L1084 374.992L1084 383.098L1122.34 383.098ZM1112.76 417.512L1112.76 409.069L1092.18 403.116L1092.18 402.817L1112.76 396.845L1112.76 388.42L1084 398.473L1084 407.459L1112.76 417.512ZM1108.92 453.99C1117.77 452.923 1122.86 446.221 1122.86 437.348C1122.86 427.22 1115.71 419.488 1103.17 419.488C1090.66 419.488 1083.48 427.089 1083.48 437.348C1083.48 447.176 1090.01 453.111 1097.07 453.99L1097.1 445.791C1093 445.023 1090.65 441.803 1090.65 437.479C1090.65 431.656 1094.97 427.706 1103.17 427.706C1111.15 427.706 1115.69 431.6 1115.69 437.535C1115.69 441.972 1113.13 445.173 1108.92 445.791L1108.92 453.99ZM1084 458.222L1084 466.328L1096.43 466.328L1096.43 473.142C1096.43 481.96 1101.69 487.089 1109.35 487.089C1116.97 487.089 1122.34 482.053 1122.34 473.348L1122.34 458.222L1084 458.222ZM1102.93 466.328L1115.71 466.328L1115.71 471.794C1115.71 476.475 1113.17 478.74 1109.35 478.74C1105.55 478.74 1102.93 476.475 1102.93 471.832L1102.93 466.328ZM1122.34 514.455L1098.13 514.455C1093.75 514.455 1090.59 511.385 1090.59 506.667C1090.59 501.968 1093.75 498.879 1098.13 498.879L1122.34 498.879L1122.34 490.773L1097.44 490.773C1089.05 490.773 1083.46 497.101 1083.46 506.667C1083.46 516.196 1089.05 522.561 1097.44 522.561L1122.34 522.561L1122.34 514.455Z" fill="black"/>
<path d="M1023.81 185.865C1024.41 183.627 1023.08 181.33 1020.84 180.734L984.366 171.035C982.128 170.439 979.831 171.771 979.236 174.009C978.641 176.248 979.973 178.545 982.211 179.14L1014.63 187.762L1006.01 220.183C1005.41 222.421 1006.75 224.718 1008.98 225.313C1011.22 225.908 1013.52 224.576 1014.12 222.338L1023.81 185.865ZM534.225 471.175L1021.87 188.415L1017.66 181.159L530.018 463.919L534.225 471.175Z" fill="black"/>
</svg>
