<svg width="1200" height="900" viewBox="0 0 1200 900" fill="none" xmlns="http://www.w3.org/2000/svg">
<rect width="1200" height="900" fill="white"/>
<path d="M77.321 449V376.273H92.6974V408.339H93.6562L119.828 376.273H138.259L111.27 408.837L138.578 449H120.183L100.261 419.099L92.6974 428.332V449H77.321ZM158.905 450.03C155.425 450.03 152.323 449.426 149.601 448.219C146.878 446.988 144.724 445.177 143.138 442.786C141.575 440.371 140.794 437.364 140.794 433.766C140.794 430.735 141.35 428.19 142.463 426.131C143.576 424.071 145.091 422.414 147.008 421.159C148.926 419.904 151.104 418.957 153.542 418.318C156.005 417.679 158.585 417.229 161.284 416.969C164.456 416.637 167.013 416.33 168.954 416.045C170.896 415.738 172.304 415.288 173.18 414.696C174.056 414.104 174.494 413.228 174.494 412.068V411.855C174.494 409.606 173.784 407.866 172.363 406.635C170.967 405.404 168.978 404.788 166.398 404.788C163.675 404.788 161.509 405.392 159.899 406.599C158.289 407.783 157.224 409.275 156.703 411.074L142.711 409.938C143.422 406.623 144.818 403.759 146.902 401.344C148.985 398.905 151.672 397.035 154.963 395.733C158.277 394.407 162.113 393.744 166.469 393.744C169.499 393.744 172.399 394.099 175.169 394.81C177.962 395.52 180.436 396.621 182.591 398.112C184.769 399.604 186.485 401.521 187.74 403.865C188.995 406.185 189.622 408.967 189.622 412.21V449H175.275V441.436H174.849C173.973 443.141 172.801 444.644 171.334 445.946C169.866 447.224 168.102 448.231 166.042 448.964C163.983 449.675 161.604 450.03 158.905 450.03ZM163.237 439.589C165.462 439.589 167.427 439.152 169.132 438.276C170.836 437.376 172.174 436.169 173.145 434.653C174.115 433.138 174.601 431.422 174.601 429.504V423.716C174.127 424.024 173.476 424.308 172.648 424.568C171.843 424.805 170.931 425.03 169.913 425.243C168.895 425.432 167.877 425.61 166.859 425.776C165.841 425.918 164.918 426.048 164.089 426.166C162.314 426.427 160.763 426.841 159.437 427.409C158.112 427.977 157.082 428.747 156.348 429.717C155.614 430.664 155.247 431.848 155.247 433.268C155.247 435.328 155.993 436.902 157.484 437.991C158.999 439.057 160.917 439.589 163.237 439.589ZM198.727 449V394.455H213.393V403.972H213.961C214.956 400.586 216.625 398.029 218.968 396.301C221.312 394.549 224.011 393.673 227.065 393.673C227.823 393.673 228.639 393.721 229.515 393.815C230.391 393.91 231.161 394.04 231.823 394.206V407.629C231.113 407.416 230.131 407.227 228.876 407.061C227.621 406.895 226.473 406.812 225.431 406.812C223.206 406.812 221.217 407.298 219.466 408.268C217.737 409.215 216.364 410.541 215.346 412.246C214.352 413.95 213.855 415.915 213.855 418.141V449H198.727ZM237.013 469.455V394.455H251.928V403.616H252.603C253.266 402.149 254.224 400.657 255.479 399.142C256.758 397.603 258.415 396.325 260.451 395.307C262.51 394.265 265.067 393.744 268.121 393.744C272.099 393.744 275.768 394.786 279.13 396.869C282.492 398.929 285.179 402.042 287.191 406.209C289.203 410.352 290.209 415.548 290.209 421.798C290.209 427.883 289.227 433.02 287.262 437.21C285.321 441.377 282.669 444.537 279.307 446.692C275.969 448.822 272.229 449.888 268.086 449.888C265.15 449.888 262.653 449.402 260.593 448.432C258.557 447.461 256.888 446.242 255.586 444.774C254.284 443.283 253.289 441.779 252.603 440.264H252.141V469.455H237.013ZM251.822 421.727C251.822 424.971 252.271 427.8 253.171 430.214C254.071 432.629 255.373 434.511 257.077 435.861C258.782 437.187 260.853 437.849 263.292 437.849C265.754 437.849 267.837 437.175 269.542 435.825C271.246 434.452 272.536 432.558 273.412 430.143C274.312 427.705 274.762 424.9 274.762 421.727C274.762 418.579 274.324 415.809 273.448 413.418C272.572 411.027 271.282 409.156 269.577 407.807C267.873 406.457 265.778 405.783 263.292 405.783C260.83 405.783 258.746 406.434 257.042 407.736C255.361 409.038 254.071 410.884 253.171 413.276C252.271 415.667 251.822 418.484 251.822 421.727ZM322.521 450.065C316.91 450.065 312.081 448.929 308.032 446.656C304.008 444.36 300.906 441.116 298.728 436.926C296.55 432.712 295.461 427.729 295.461 421.976C295.461 416.365 296.55 411.441 298.728 407.203C300.906 402.965 303.972 399.663 307.926 397.295C311.903 394.928 316.567 393.744 321.917 393.744C325.516 393.744 328.866 394.324 331.967 395.484C335.092 396.621 337.814 398.337 340.135 400.634C342.478 402.93 344.301 405.818 345.603 409.298C346.905 412.755 347.556 416.803 347.556 421.443V425.598H301.498V416.223H333.316C333.316 414.045 332.843 412.116 331.896 410.435C330.949 408.754 329.635 407.44 327.954 406.493C326.297 405.522 324.368 405.037 322.166 405.037C319.869 405.037 317.833 405.57 316.058 406.635C314.306 407.677 312.933 409.085 311.939 410.861C310.944 412.613 310.435 414.566 310.412 416.72V425.634C310.412 428.332 310.909 430.664 311.903 432.629C312.921 434.594 314.353 436.109 316.2 437.175C318.046 438.24 320.236 438.773 322.769 438.773C324.45 438.773 325.989 438.536 327.386 438.062C328.783 437.589 329.978 436.879 330.973 435.932C331.967 434.985 332.725 433.825 333.245 432.452L347.237 433.375C346.527 436.737 345.071 439.672 342.869 442.182C340.691 444.668 337.874 446.609 334.417 448.006C330.984 449.379 327.019 450.065 322.521 450.065ZM369.925 417.466V449H354.797V394.455H369.215V404.078H369.854C371.061 400.906 373.085 398.396 375.926 396.55C378.767 394.679 382.212 393.744 386.26 393.744C390.048 393.744 393.351 394.573 396.168 396.23C398.985 397.887 401.175 400.255 402.737 403.332C404.3 406.386 405.081 410.032 405.081 414.27V449H389.953V416.969C389.977 413.631 389.125 411.027 387.396 409.156C385.668 407.262 383.289 406.315 380.259 406.315C378.223 406.315 376.423 406.753 374.861 407.629C373.322 408.505 372.115 409.784 371.239 411.464C370.386 413.122 369.949 415.122 369.925 417.466ZM443.385 394.455V405.818H410.537V394.455H443.385ZM417.995 381.386H433.122V432.239C433.122 433.635 433.336 434.724 433.762 435.506C434.188 436.263 434.78 436.796 435.537 437.104C436.318 437.411 437.218 437.565 438.236 437.565C438.946 437.565 439.657 437.506 440.367 437.388C441.077 437.246 441.622 437.139 442 437.068L444.38 448.325C443.622 448.562 442.557 448.834 441.184 449.142C439.81 449.473 438.141 449.675 436.176 449.746C432.531 449.888 429.335 449.402 426.588 448.29C423.866 447.177 421.747 445.449 420.232 443.105C418.717 440.761 417.971 437.802 417.995 434.227V381.386ZM474.88 450.065C469.269 450.065 464.44 448.929 460.391 446.656C456.367 444.36 453.266 441.116 451.087 436.926C448.909 432.712 447.82 427.729 447.82 421.976C447.82 416.365 448.909 411.441 451.087 407.203C453.266 402.965 456.331 399.663 460.285 397.295C464.262 394.928 468.926 393.744 474.276 393.744C477.875 393.744 481.225 394.324 484.326 395.484C487.451 396.621 490.174 398.337 492.494 400.634C494.837 402.93 496.66 405.818 497.962 409.298C499.265 412.755 499.916 416.803 499.916 421.443V425.598H453.857V416.223H485.676C485.676 414.045 485.202 412.116 484.255 410.435C483.308 408.754 481.994 407.44 480.313 406.493C478.656 405.522 476.727 405.037 474.525 405.037C472.229 405.037 470.193 405.57 468.417 406.635C466.665 407.677 465.292 409.085 464.298 410.861C463.303 412.613 462.794 414.566 462.771 416.72V425.634C462.771 428.332 463.268 430.664 464.262 432.629C465.28 434.594 466.712 436.109 468.559 437.175C470.406 438.24 472.596 438.773 475.129 438.773C476.81 438.773 478.348 438.536 479.745 438.062C481.142 437.589 482.337 436.879 483.332 435.932C484.326 434.985 485.084 433.825 485.605 432.452L499.596 433.375C498.886 436.737 497.43 439.672 495.228 442.182C493.05 444.668 490.233 446.609 486.776 448.006C483.344 449.379 479.378 450.065 474.88 450.065ZM507.156 449V394.455H521.822V403.972H522.391C523.385 400.586 525.054 398.029 527.398 396.301C529.741 394.549 532.44 393.673 535.494 393.673C536.252 393.673 537.069 393.721 537.945 393.815C538.82 393.91 539.59 394.04 540.253 394.206V407.629C539.543 407.416 538.56 407.227 537.305 407.061C536.051 406.895 534.902 406.812 533.861 406.812C531.635 406.812 529.647 407.298 527.895 408.268C526.167 409.215 524.793 410.541 523.775 412.246C522.781 413.95 522.284 415.915 522.284 418.141V449H507.156Z" fill="black"/>
<rect x="71" y="498" width="1038" height="19" fill="black"/>
</svg>
