<svg width="1200" height="900" viewBox="0 0 1200 900" fill="none" xmlns="http://www.w3.org/2000/svg">
<rect width="1200" height="900" fill="white"/>
<path d="M138.152 371.273V444H124.871L93.2301 398.226H92.6974V444H77.321V371.273H90.8153L122.207 417.011H122.847V371.273H138.152ZM172.585 445.065C167.069 445.065 162.299 443.893 158.274 441.55C154.273 439.182 151.184 435.892 149.006 431.678C146.828 427.44 145.739 422.527 145.739 416.94C145.739 411.306 146.828 406.382 149.006 402.168C151.184 397.93 154.273 394.639 158.274 392.295C162.299 389.928 167.069 388.744 172.585 388.744C178.101 388.744 182.86 389.928 186.861 392.295C190.886 394.639 193.987 397.93 196.165 402.168C198.343 406.382 199.432 411.306 199.432 416.94C199.432 422.527 198.343 427.44 196.165 431.678C193.987 435.892 190.886 439.182 186.861 441.55C182.86 443.893 178.101 445.065 172.585 445.065ZM172.656 433.347C175.166 433.347 177.261 432.636 178.942 431.216C180.623 429.772 181.889 427.807 182.742 425.321C183.618 422.835 184.056 420.006 184.056 416.834C184.056 413.661 183.618 410.832 182.742 408.347C181.889 405.861 180.623 403.896 178.942 402.452C177.261 401.008 175.166 400.286 172.656 400.286C170.123 400.286 167.993 401.008 166.264 402.452C164.56 403.896 163.27 405.861 162.394 408.347C161.541 410.832 161.115 413.661 161.115 416.834C161.115 420.006 161.541 422.835 162.394 425.321C163.27 427.807 164.56 429.772 166.264 431.216C167.993 432.636 170.123 433.347 172.656 433.347ZM226.736 444.888C222.594 444.888 218.841 443.822 215.479 441.692C212.141 439.537 209.49 436.377 207.525 432.21C205.584 428.02 204.613 422.883 204.613 416.798C204.613 410.548 205.619 405.352 207.631 401.209C209.644 397.042 212.319 393.929 215.657 391.869C219.019 389.786 222.7 388.744 226.701 388.744C229.755 388.744 232.3 389.265 234.336 390.307C236.396 391.325 238.053 392.603 239.308 394.142C240.586 395.657 241.557 397.149 242.219 398.616H242.681V371.273H257.773V444H242.859V435.264H242.219C241.509 436.779 240.503 438.283 239.201 439.774C237.923 441.242 236.254 442.461 234.194 443.432C232.158 444.402 229.672 444.888 226.736 444.888ZM231.531 432.849C233.969 432.849 236.029 432.187 237.71 430.861C239.414 429.511 240.716 427.629 241.616 425.214C242.539 422.8 243.001 419.971 243.001 416.727C243.001 413.484 242.551 410.667 241.651 408.276C240.752 405.884 239.45 404.038 237.745 402.736C236.04 401.434 233.969 400.783 231.531 400.783C229.045 400.783 226.95 401.457 225.245 402.807C223.54 404.156 222.25 406.027 221.374 408.418C220.498 410.809 220.06 413.579 220.06 416.727C220.06 419.9 220.498 422.705 221.374 425.143C222.274 427.558 223.564 429.452 225.245 430.825C226.95 432.175 229.045 432.849 231.531 432.849ZM292.438 445.065C286.827 445.065 281.997 443.929 277.949 441.656C273.924 439.36 270.823 436.116 268.645 431.926C266.467 427.712 265.378 422.729 265.378 416.976C265.378 411.365 266.467 406.441 268.645 402.203C270.823 397.965 273.889 394.663 277.842 392.295C281.82 389.928 286.484 388.744 291.834 388.744C295.432 388.744 298.782 389.324 301.884 390.484C305.009 391.621 307.731 393.337 310.051 395.634C312.395 397.93 314.218 400.818 315.52 404.298C316.822 407.755 317.473 411.803 317.473 416.443V420.598H271.415V411.223H303.233C303.233 409.045 302.76 407.116 301.813 405.435C300.866 403.754 299.552 402.44 297.871 401.493C296.214 400.522 294.284 400.037 292.083 400.037C289.786 400.037 287.75 400.57 285.975 401.635C284.223 402.677 282.85 404.085 281.855 405.861C280.861 407.613 280.352 409.566 280.328 411.72V420.634C280.328 423.332 280.825 425.664 281.82 427.629C282.838 429.594 284.27 431.109 286.117 432.175C287.963 433.24 290.153 433.773 292.686 433.773C294.367 433.773 295.906 433.536 297.303 433.062C298.699 432.589 299.895 431.879 300.889 430.932C301.884 429.985 302.641 428.825 303.162 427.452L317.154 428.375C316.443 431.737 314.987 434.672 312.786 437.182C310.608 439.668 307.79 441.609 304.334 443.006C300.901 444.379 296.936 445.065 292.438 445.065ZM369.872 445.065C364.284 445.065 359.479 443.882 355.454 441.514C351.453 439.123 348.375 435.809 346.221 431.571C344.09 427.333 343.025 422.456 343.025 416.94C343.025 411.353 344.102 406.453 346.257 402.239C348.435 398.001 351.524 394.698 355.525 392.331C359.526 389.94 364.284 388.744 369.801 388.744C374.559 388.744 378.726 389.608 382.301 391.337C385.875 393.065 388.704 395.491 390.788 398.616C392.871 401.741 394.019 405.411 394.232 409.625H379.957C379.554 406.902 378.489 404.713 376.761 403.055C375.056 401.375 372.819 400.534 370.049 400.534C367.705 400.534 365.658 401.173 363.906 402.452C362.177 403.706 360.828 405.541 359.857 407.956C358.887 410.371 358.401 413.295 358.401 416.727C358.401 420.207 358.875 423.167 359.822 425.605C360.793 428.044 362.154 429.902 363.906 431.18C365.658 432.459 367.705 433.098 370.049 433.098C371.777 433.098 373.328 432.743 374.701 432.033C376.098 431.322 377.246 430.293 378.146 428.943C379.069 427.57 379.673 425.925 379.957 424.007H394.232C393.996 428.174 392.859 431.843 390.823 435.016C388.811 438.164 386.029 440.626 382.478 442.402C378.927 444.178 374.725 445.065 369.872 445.065ZM425.931 445.065C420.415 445.065 415.645 443.893 411.62 441.55C407.619 439.182 404.53 435.892 402.352 431.678C400.174 427.44 399.085 422.527 399.085 416.94C399.085 411.306 400.174 406.382 402.352 402.168C404.53 397.93 407.619 394.639 411.62 392.295C415.645 389.928 420.415 388.744 425.931 388.744C431.448 388.744 436.206 389.928 440.207 392.295C444.232 394.639 447.333 397.93 449.511 402.168C451.689 406.382 452.778 411.306 452.778 416.94C452.778 422.527 451.689 427.44 449.511 431.678C447.333 435.892 444.232 439.182 440.207 441.55C436.206 443.893 431.448 445.065 425.931 445.065ZM426.002 433.347C428.512 433.347 430.607 432.636 432.288 431.216C433.969 429.772 435.235 427.807 436.088 425.321C436.964 422.835 437.402 420.006 437.402 416.834C437.402 413.661 436.964 410.832 436.088 408.347C435.235 405.861 433.969 403.896 432.288 402.452C430.607 401.008 428.512 400.286 426.002 400.286C423.469 400.286 421.339 401.008 419.61 402.452C417.906 403.896 416.616 405.861 415.74 408.347C414.887 410.832 414.461 413.661 414.461 416.834C414.461 420.006 414.887 422.835 415.74 425.321C416.616 427.807 417.906 429.772 419.61 431.216C421.339 432.636 423.469 433.347 426.002 433.347ZM475.111 412.466V444H459.983V389.455H474.401V399.078H475.04C476.247 395.906 478.271 393.396 481.112 391.55C483.953 389.679 487.398 388.744 491.446 388.744C495.234 388.744 498.537 389.573 501.354 391.23C504.171 392.887 506.361 395.255 507.923 398.332C509.486 401.386 510.267 405.032 510.267 409.27V444H495.139V411.969C495.163 408.631 494.311 406.027 492.583 404.156C490.854 402.262 488.475 401.315 485.445 401.315C483.409 401.315 481.609 401.753 480.047 402.629C478.508 403.505 477.301 404.784 476.425 406.464C475.573 408.122 475.135 410.122 475.111 412.466ZM548.571 389.455V400.818H515.723V389.455H548.571ZM523.181 376.386H538.309V427.239C538.309 428.635 538.522 429.724 538.948 430.506C539.374 431.263 539.966 431.796 540.723 432.104C541.505 432.411 542.404 432.565 543.422 432.565C544.132 432.565 544.843 432.506 545.553 432.388C546.263 432.246 546.808 432.139 547.186 432.068L549.566 443.325C548.808 443.562 547.743 443.834 546.37 444.142C544.996 444.473 543.327 444.675 541.362 444.746C537.717 444.888 534.521 444.402 531.774 443.29C529.052 442.177 526.933 440.449 525.418 438.105C523.903 435.761 523.157 432.802 523.181 429.227V376.386ZM555.794 444V389.455H570.46V398.972H571.029C572.023 395.586 573.692 393.029 576.036 391.301C578.379 389.549 581.078 388.673 584.132 388.673C584.89 388.673 585.707 388.721 586.582 388.815C587.458 388.91 588.228 389.04 588.891 389.206V402.629C588.18 402.416 587.198 402.227 585.943 402.061C584.689 401.895 583.54 401.812 582.499 401.812C580.273 401.812 578.285 402.298 576.533 403.268C574.805 404.215 573.431 405.541 572.413 407.246C571.419 408.95 570.922 410.915 570.922 413.141V444H555.794ZM616.186 445.065C610.67 445.065 605.9 443.893 601.875 441.55C597.874 439.182 594.785 435.892 592.607 431.678C590.429 427.44 589.34 422.527 589.34 416.94C589.34 411.306 590.429 406.382 592.607 402.168C594.785 397.93 597.874 394.639 601.875 392.295C605.9 389.928 610.67 388.744 616.186 388.744C621.702 388.744 626.461 389.928 630.462 392.295C634.487 394.639 637.588 397.93 639.766 402.168C641.944 406.382 643.033 411.306 643.033 416.94C643.033 422.527 641.944 427.44 639.766 431.678C637.588 435.892 634.487 439.182 630.462 441.55C626.461 443.893 621.702 445.065 616.186 445.065ZM616.257 433.347C618.767 433.347 620.862 432.636 622.543 431.216C624.224 429.772 625.49 427.807 626.343 425.321C627.219 422.835 627.657 420.006 627.657 416.834C627.657 413.661 627.219 410.832 626.343 408.347C625.49 405.861 624.224 403.896 622.543 402.452C620.862 401.008 618.767 400.286 616.257 400.286C613.724 400.286 611.594 401.008 609.865 402.452C608.161 403.896 606.871 405.861 605.995 408.347C605.142 410.832 604.716 413.661 604.716 416.834C604.716 420.006 605.142 422.835 605.995 425.321C606.871 427.807 608.161 429.772 609.865 431.216C611.594 432.636 613.724 433.347 616.257 433.347ZM665.366 371.273V444H650.238V371.273H665.366ZM689.98 371.273V444H674.853V371.273H689.98ZM724.325 445.065C718.714 445.065 713.885 443.929 709.836 441.656C705.812 439.36 702.71 436.116 700.532 431.926C698.354 427.712 697.265 422.729 697.265 416.976C697.265 411.365 698.354 406.441 700.532 402.203C702.71 397.965 705.776 394.663 709.73 392.295C713.707 389.928 718.371 388.744 723.721 388.744C727.32 388.744 730.67 389.324 733.771 390.484C736.896 391.621 739.619 393.337 741.939 395.634C744.282 397.93 746.105 400.818 747.407 404.298C748.709 407.755 749.361 411.803 749.361 416.443V420.598H703.302V411.223H735.12C735.12 409.045 734.647 407.116 733.7 405.435C732.753 403.754 731.439 402.44 729.758 401.493C728.101 400.522 726.172 400.037 723.97 400.037C721.673 400.037 719.638 400.57 717.862 401.635C716.11 402.677 714.737 404.085 713.743 405.861C712.748 407.613 712.239 409.566 712.216 411.72V420.634C712.216 423.332 712.713 425.664 713.707 427.629C714.725 429.594 716.157 431.109 718.004 432.175C719.851 433.24 722.04 433.773 724.574 433.773C726.254 433.773 727.793 433.536 729.19 433.062C730.587 432.589 731.782 431.879 732.777 430.932C733.771 429.985 734.529 428.825 735.049 427.452L749.041 428.375C748.331 431.737 746.875 434.672 744.673 437.182C742.495 439.668 739.678 441.609 736.221 443.006C732.789 444.379 728.823 445.065 724.325 445.065ZM756.601 444V389.455H771.267V398.972H771.835C772.83 395.586 774.499 393.029 776.843 391.301C779.186 389.549 781.885 388.673 784.939 388.673C785.697 388.673 786.513 388.721 787.389 388.815C788.265 388.91 789.035 389.04 789.698 389.206V402.629C788.987 402.416 788.005 402.227 786.75 402.061C785.495 401.895 784.347 401.812 783.306 401.812C781.08 401.812 779.092 402.298 777.34 403.268C775.611 404.215 774.238 405.541 773.22 407.246C772.226 408.95 771.729 410.915 771.729 413.141V444H756.601Z" fill="black"/>
<rect x="71" y="498" width="1038" height="19" fill="black"/>
</svg>
