<svg width="1200" height="900" viewBox="0 0 1200 900" fill="none" xmlns="http://www.w3.org/2000/svg">
<rect width="1200" height="900" fill="white"/>
<rect opacity="0.6" x="152" y="158" width="890.214" height="572.709" fill="#FCC936"/>
<path d="M152 158H1042V731H152V158Z" fill="#8FBE00"/>
<path fill-rule="evenodd" clip-rule="evenodd" d="M157 163.026H152V158H167V169H157V163.026ZM177 158V169H187V158H177ZM197 158V169H207V158H197ZM217 158V169H227V158H217ZM237 158V169H247V158H237ZM257 158V169H267V158H257ZM277 158V169H287V158H277ZM297 158V169H307V158H297ZM317 158V169H327V158H317ZM337 158V169H347V158H337ZM357 158V169H367V158H357ZM377 158V169H387V158H377ZM397 158V169H407V158H397ZM417 158V169H427V158H417ZM437 158V169H447V158H437ZM457 158V169H467V158H457ZM477 158V169H487V158H477ZM497 158V169H507V158H497ZM517 158V169H527V158H517ZM537 158V169H547V158H537ZM557 158V169H567V158H557ZM577 158V169H587V158H577ZM597 158V169H607V158H597ZM617 158V169H627V158H617ZM637 158V169H647V158H637ZM657 158V169H667V158H657ZM677 158V169H687V158H677ZM697 158V169H707V158H697ZM717 158V169H727V158H717ZM737 158V169H747V158H737ZM757 158V169H767V158H757ZM777 158V169H787V158H777ZM797 158V169H807V158H797ZM817 158V169H827V158H817ZM837 158V169H847V158H837ZM857 158V169H867V158H857ZM877 158V169H887V158H877ZM897 158V169H907V158H897ZM917 158V169H927V158H917ZM937 158V169H947V158H937ZM957 158V169H967V158H957ZM977 158V169H987V158H977ZM997 158V169H1007V158H997ZM1017 158V169H1027V158H1017ZM1037 158V163.026H1031V173.079H1042V158H1037ZM1042 183.131H1031V193.184H1042V183.131ZM1042 203.237H1031V213.289H1042V203.237ZM1042 223.342H1031V233.395H1042V223.342ZM1042 243.447H1031V253.5H1042V243.447ZM1042 263.552H1031V273.605H1042V263.552ZM1042 283.658H1031V293.71H1042V283.658ZM1042 303.763H1031V313.816H1042V303.763ZM1042 323.868H1031V333.921H1042V323.868ZM1042 343.974H1031V354.026H1042V343.974ZM1042 364.079H1031V374.132H1042V364.079ZM1042 384.184H1031V394.237H1042V384.184ZM1042 404.289H1031V414.342H1042V404.289ZM1042 424.395H1031V434.447H1042V424.395ZM1042 444.5H1031V454.553H1042V444.5ZM1042 464.605H1031V474.658H1042V464.605ZM1042 484.711H1031V494.763H1042V484.711ZM1042 504.816H1031V514.868H1042V504.816ZM1042 524.921H1031V534.974H1042V524.921ZM1042 545.026H1031V555.079H1042V545.026ZM1042 565.132H1031V575.184H1042V565.132ZM1042 585.237H1031V595.289H1042V585.237ZM1042 605.342H1031V615.395H1042V605.342ZM1042 625.447H1031V635.5H1042V625.447ZM1042 645.553H1031V655.605H1042V645.553ZM1042 665.658H1031V675.711H1042V665.658ZM1042 685.763H1031V695.816H1042V685.763ZM1042 705.868H1031V715.921H1042V705.868ZM1042 725.974H1037V720H1027V731H1042V725.974ZM1017 731V720H1007V731H1017ZM997 731V720H987V731H997ZM977 731V720H967V731H977ZM957 731V720H947V731H957ZM937 731V720H927V731H937ZM917 731V720H907V731H917ZM897 731V720H887V731H897ZM877 731V720H867V731H877ZM857 731V720H847V731H857ZM837 731V720H827V731H837ZM817 731V720H807V731H817ZM797 731V720H787V731H797ZM777 731V720H767V731H777ZM757 731V720H747V731H757ZM737 731V720H727V731H737ZM717 731V720H707V731H717ZM697 731V720H687V731H697ZM677 731V720H667V731H677ZM657 731V720H647V731H657ZM637 731V720H627V731H637ZM617 731V720H607V731H617ZM597 731V720H587V731H597ZM577 731V720H567V731H577ZM557 731V720H547V731H557ZM537 731V720H527V731H537ZM517 731V720H507V731H517ZM497 731V720H487V731H497ZM477 731V720H467V731H477ZM457 731V720H447V731H457ZM437 731V720H427V731H437ZM417 731V720H407V731H417ZM397 731V720H387V731H397ZM377 731V720H367V731H377ZM357 731V720H347V731H357ZM337 731V720H327V731H337ZM317 731V720H307V731H317ZM297 731V720H287V731H297ZM277 731V720H267V731H277ZM257 731V720H247V731H257ZM237 731V720H227V731H237ZM217 731V720H207V731H217ZM197 731V720H187V731H197ZM177 731V720H167V731H177ZM157 731V725.974H163V715.921H152V731H157ZM152 705.869H163V695.816H152V705.869ZM152 685.763H163V675.711H152V685.763ZM152 665.658H163V655.605H152V665.658ZM152 645.553H163V635.5H152V645.553ZM152 625.448H163V615.395H152V625.448ZM152 605.342H163V595.29H152V605.342ZM152 585.237H163V575.184H152V585.237ZM152 565.132H163V555.079H152V565.132ZM152 545.026H163V534.974H152V545.026ZM152 524.921H163V514.868H152V524.921ZM152 504.816H163V494.763H152V504.816ZM152 484.711H163V474.658H152V484.711ZM152 464.605H163V454.553H152V464.605ZM152 444.5H163V434.447H152V444.5ZM152 424.395H163V414.342H152V424.395ZM152 404.289H163V394.237H152V404.289ZM152 384.184H163V374.132H152V384.184ZM152 364.079H163V354.026H152V364.079ZM152 343.974H163V333.921H152V343.974ZM152 323.868H163V313.816H152V323.868ZM152 303.763H163V293.71H152V303.763ZM152 283.658H163V273.605H152V283.658ZM152 263.553H163V253.5H152V263.553ZM152 243.447H163V233.395H152V243.447ZM152 223.342H163V213.289H152V223.342ZM152 203.237H163V193.184H152V203.237ZM152 183.132H163V173.079H152V183.132Z" fill="#FDDF86"/>
<path d="M515.45 439.083H507.251C507.101 438.022 506.795 437.079 506.333 436.256C505.872 435.419 505.279 434.708 504.555 434.122C503.831 433.535 502.995 433.086 502.046 432.774C501.11 432.462 500.093 432.306 498.995 432.306C497.01 432.306 495.282 432.799 493.809 433.785C492.336 434.758 491.194 436.181 490.383 438.053C489.572 439.912 489.166 442.171 489.166 444.83C489.166 447.563 489.572 449.86 490.383 451.719C491.207 453.579 492.355 454.983 493.828 455.931C495.301 456.88 497.004 457.354 498.939 457.354C500.024 457.354 501.029 457.211 501.953 456.924C502.889 456.636 503.719 456.218 504.443 455.669C505.166 455.108 505.765 454.427 506.24 453.629C506.726 452.83 507.063 451.919 507.251 450.895L515.45 450.933C515.238 452.693 514.708 454.39 513.859 456.025C513.023 457.647 511.893 459.101 510.471 460.387C509.06 461.66 507.375 462.671 505.416 463.42C503.469 464.156 501.266 464.524 498.808 464.524C495.388 464.524 492.33 463.75 489.634 462.203C486.951 460.655 484.829 458.415 483.269 455.482C481.722 452.549 480.948 448.998 480.948 444.83C480.948 440.649 481.734 437.092 483.307 434.159C484.879 431.226 487.013 428.992 489.709 427.457C492.405 425.909 495.438 425.135 498.808 425.135C501.029 425.135 503.088 425.448 504.985 426.072C506.895 426.696 508.586 427.607 510.059 428.805C511.532 429.99 512.73 431.444 513.653 433.167C514.589 434.889 515.188 436.861 515.45 439.083ZM532.524 464.562C529.616 464.562 527.101 463.944 524.98 462.708C522.87 461.46 521.242 459.725 520.094 457.504C518.945 455.27 518.371 452.68 518.371 449.735C518.371 446.764 518.945 444.168 520.094 441.947C521.242 439.713 522.87 437.978 524.98 436.742C527.101 435.494 529.616 434.87 532.524 434.87C535.432 434.87 537.941 435.494 540.05 436.742C542.172 437.978 543.807 439.713 544.955 441.947C546.103 444.168 546.677 446.764 546.677 449.735C546.677 452.68 546.103 455.27 544.955 457.504C543.807 459.725 542.172 461.46 540.05 462.708C537.941 463.944 535.432 464.562 532.524 464.562ZM532.562 458.384C533.885 458.384 534.989 458.009 535.875 457.26C536.761 456.499 537.429 455.463 537.878 454.153C538.34 452.842 538.571 451.351 538.571 449.679C538.571 448.006 538.34 446.515 537.878 445.204C537.429 443.894 536.761 442.858 535.875 442.097C534.989 441.335 533.885 440.955 532.562 440.955C531.226 440.955 530.103 441.335 529.192 442.097C528.293 442.858 527.613 443.894 527.151 445.204C526.702 446.515 526.477 448.006 526.477 449.679C526.477 451.351 526.702 452.842 527.151 454.153C527.613 455.463 528.293 456.499 529.192 457.26C530.103 458.009 531.226 458.384 532.562 458.384ZM558.256 447.376V464H550.281V435.245H557.882V440.318H558.219C558.855 438.646 559.923 437.323 561.42 436.349C562.918 435.363 564.734 434.87 566.868 434.87C568.865 434.87 570.606 435.307 572.091 436.181C573.576 437.054 574.731 438.302 575.554 439.925C576.378 441.535 576.79 443.457 576.79 445.691V464H568.815V447.114C568.827 445.354 568.378 443.981 567.467 442.995C566.556 441.997 565.302 441.498 563.704 441.498C562.631 441.498 561.682 441.728 560.859 442.19C560.047 442.652 559.411 443.326 558.949 444.212C558.5 445.086 558.269 446.14 558.256 447.376ZM596.789 435.245V441.235H579.472V435.245H596.789ZM583.404 428.355H591.379V455.164C591.379 455.9 591.491 456.474 591.716 456.886C591.94 457.285 592.252 457.566 592.652 457.729C593.064 457.891 593.538 457.972 594.074 457.972C594.449 457.972 594.823 457.941 595.198 457.878C595.572 457.803 595.859 457.747 596.059 457.71L597.313 463.644C596.914 463.769 596.352 463.913 595.628 464.075C594.904 464.25 594.025 464.356 592.989 464.393C591.067 464.468 589.382 464.212 587.934 463.626C586.499 463.039 585.382 462.128 584.583 460.892C583.784 459.657 583.391 458.097 583.404 456.212V428.355ZM608.602 464.543C606.768 464.543 605.133 464.225 603.697 463.588C602.262 462.939 601.126 461.984 600.29 460.724C599.466 459.451 599.055 457.866 599.055 455.969C599.055 454.371 599.348 453.03 599.934 451.944C600.521 450.858 601.32 449.984 602.331 449.323C603.342 448.661 604.49 448.162 605.775 447.825C607.073 447.488 608.434 447.251 609.857 447.114C611.529 446.939 612.877 446.777 613.9 446.627C614.924 446.465 615.666 446.228 616.128 445.916C616.59 445.604 616.821 445.142 616.821 444.53V444.418C616.821 443.232 616.446 442.315 615.697 441.666C614.961 441.017 613.913 440.693 612.552 440.693C611.117 440.693 609.975 441.011 609.126 441.647C608.278 442.271 607.716 443.058 607.442 444.006L600.066 443.407C600.44 441.66 601.176 440.15 602.275 438.877C603.373 437.591 604.789 436.605 606.524 435.919C608.272 435.22 610.293 434.87 612.59 434.87C614.187 434.87 615.716 435.058 617.176 435.432C618.649 435.806 619.953 436.387 621.089 437.173C622.237 437.959 623.142 438.97 623.804 440.206C624.465 441.429 624.796 442.895 624.796 444.605V464H617.233V460.012H617.008C616.546 460.911 615.928 461.704 615.155 462.39C614.381 463.064 613.451 463.594 612.365 463.981C611.279 464.356 610.025 464.543 608.602 464.543ZM610.886 459.039C612.059 459.039 613.095 458.808 613.994 458.346C614.892 457.872 615.598 457.236 616.109 456.437C616.621 455.638 616.877 454.733 616.877 453.722V450.671C616.627 450.833 616.284 450.983 615.847 451.12C615.423 451.245 614.942 451.363 614.406 451.476C613.869 451.576 613.332 451.669 612.796 451.757C612.259 451.831 611.772 451.9 611.335 451.962C610.399 452.1 609.582 452.318 608.883 452.618C608.184 452.917 607.641 453.323 607.254 453.835C606.867 454.334 606.674 454.958 606.674 455.707C606.674 456.792 607.067 457.622 607.853 458.197C608.652 458.758 609.663 459.039 610.886 459.039ZM629.401 464V435.245H637.377V464H629.401ZM633.408 431.538C632.222 431.538 631.205 431.145 630.356 430.359C629.52 429.56 629.102 428.605 629.102 427.494C629.102 426.396 629.52 425.454 630.356 424.667C631.205 423.869 632.222 423.469 633.408 423.469C634.593 423.469 635.604 423.869 636.441 424.667C637.289 425.454 637.714 426.396 637.714 427.494C637.714 428.605 637.289 429.56 636.441 430.359C635.604 431.145 634.593 431.538 633.408 431.538ZM650.159 447.376V464H642.184V435.245H649.784V440.318H650.121C650.758 438.646 651.825 437.323 653.322 436.349C654.82 435.363 656.636 434.87 658.77 434.87C660.767 434.87 662.508 435.307 663.993 436.181C665.479 437.054 666.633 438.302 667.457 439.925C668.28 441.535 668.692 443.457 668.692 445.691V464H660.717V447.114C660.73 445.354 660.28 443.981 659.369 442.995C658.458 441.997 657.204 441.498 655.606 441.498C654.533 441.498 653.585 441.728 652.761 442.19C651.95 442.652 651.313 443.326 650.851 444.212C650.402 445.086 650.171 446.14 650.159 447.376ZM686.501 464.562C683.543 464.562 680.997 463.963 678.863 462.764C676.741 461.554 675.106 459.844 673.958 457.635C672.81 455.413 672.236 452.786 672.236 449.753C672.236 446.796 672.81 444.2 673.958 441.966C675.106 439.732 676.722 437.99 678.807 436.742C680.903 435.494 683.362 434.87 686.183 434.87C688.08 434.87 689.846 435.176 691.481 435.788C693.128 436.387 694.563 437.292 695.786 438.502C697.022 439.713 697.983 441.235 698.669 443.07C699.356 444.892 699.699 447.026 699.699 449.473V451.663H675.418V446.721H692.192C692.192 445.572 691.942 444.555 691.443 443.669C690.944 442.783 690.251 442.09 689.365 441.591C688.492 441.079 687.474 440.824 686.314 440.824C685.103 440.824 684.03 441.104 683.094 441.666C682.17 442.215 681.446 442.958 680.922 443.894C680.398 444.817 680.13 445.847 680.117 446.983V451.682C680.117 453.104 680.379 454.334 680.903 455.37C681.44 456.406 682.195 457.204 683.169 457.766C684.142 458.328 685.296 458.608 686.632 458.608C687.518 458.608 688.329 458.484 689.066 458.234C689.802 457.984 690.432 457.61 690.956 457.111C691.481 456.611 691.88 456 692.155 455.276L699.531 455.763C699.156 457.535 698.389 459.083 697.228 460.406C696.08 461.716 694.595 462.739 692.772 463.476C690.963 464.2 688.872 464.562 686.501 464.562ZM703.322 464V435.245H711.054V440.262H711.353C711.877 438.477 712.757 437.129 713.993 436.218C715.228 435.295 716.651 434.833 718.261 434.833C718.661 434.833 719.091 434.858 719.553 434.908C720.015 434.958 720.42 435.026 720.77 435.114V442.19C720.395 442.078 719.877 441.978 719.216 441.891C718.554 441.803 717.949 441.76 717.4 441.76C716.227 441.76 715.178 442.015 714.255 442.527C713.344 443.026 712.62 443.725 712.083 444.624C711.559 445.523 711.297 446.558 711.297 447.732V464H703.322Z" fill="#242A09"/>
<path d="M646.282 133.73V95.3901H654.388V127.047H670.825V133.73H646.282ZM674.462 133.73V104.975H682.437V133.73H674.462ZM678.468 101.268C677.283 101.268 676.266 100.875 675.417 100.089C674.581 99.2903 674.163 98.3356 674.163 97.2248C674.163 96.1265 674.581 95.1842 675.417 94.3979C676.266 93.5992 677.283 93.1998 678.468 93.1998C679.654 93.1998 680.665 93.5992 681.501 94.3979C682.35 95.1842 682.774 96.1265 682.774 97.2248C682.774 98.3356 682.35 99.2903 681.501 100.089C680.665 100.875 679.654 101.268 678.468 101.268ZM687.244 133.73V104.975H694.845V110.049H695.182C695.781 108.364 696.779 107.035 698.177 106.061C699.575 105.088 701.247 104.601 703.194 104.601C705.166 104.601 706.845 105.094 708.23 106.08C709.616 107.053 710.539 108.376 711.001 110.049H711.3C711.887 108.401 712.948 107.084 714.483 106.098C716.031 105.1 717.859 104.601 719.968 104.601C722.652 104.601 724.829 105.456 726.502 107.166C728.187 108.863 729.029 111.272 729.029 114.392V133.73H721.073V115.964C721.073 114.367 720.648 113.169 719.8 112.37C718.951 111.571 717.89 111.172 716.617 111.172C715.169 111.172 714.04 111.634 713.229 112.557C712.417 113.468 712.012 114.673 712.012 116.17V133.73H704.28V115.796C704.28 114.386 703.875 113.262 703.063 112.426C702.265 111.59 701.21 111.172 699.899 111.172C699.013 111.172 698.215 111.396 697.503 111.846C696.804 112.283 696.249 112.9 695.837 113.699C695.425 114.485 695.219 115.409 695.219 116.47V133.73H687.244ZM733.747 133.73V104.975H741.722V133.73H733.747ZM737.753 101.268C736.568 101.268 735.551 100.875 734.702 100.089C733.866 99.2903 733.448 98.3356 733.448 97.2248C733.448 96.1265 733.866 95.1842 734.702 94.3979C735.551 93.5992 736.568 93.1998 737.753 93.1998C738.939 93.1998 739.95 93.5992 740.786 94.3979C741.635 95.1842 742.059 96.1265 742.059 97.2248C742.059 98.3356 741.635 99.2903 740.786 100.089C739.95 100.875 738.939 101.268 737.753 101.268ZM761.824 104.975V110.966H744.507V104.975H761.824ZM748.439 98.0859H756.414V124.894C756.414 125.631 756.526 126.205 756.751 126.617C756.975 127.016 757.287 127.297 757.687 127.459C758.099 127.621 758.573 127.702 759.11 127.702C759.484 127.702 759.858 127.671 760.233 127.609C760.607 127.534 760.894 127.478 761.094 127.44L762.348 133.375C761.949 133.5 761.387 133.643 760.663 133.805C759.94 133.98 759.06 134.086 758.024 134.124C756.102 134.198 754.417 133.943 752.969 133.356C751.534 132.769 750.417 131.858 749.618 130.623C748.819 129.387 748.426 127.827 748.439 125.943V98.0859ZM777.855 115.496V108.85H803.708V115.496H777.855ZM777.855 127.927V121.281H803.708V127.927H777.855ZM812.105 115.496V108.85H837.958V115.496H812.105ZM812.105 127.927V121.281H837.958V127.927H812.105ZM855.178 133.73V104.975H862.909V109.992H863.209C863.733 108.208 864.613 106.86 865.848 105.949C867.084 105.025 868.507 104.563 870.117 104.563C870.516 104.563 870.947 104.588 871.409 104.638C871.87 104.688 872.276 104.757 872.625 104.844V111.921C872.251 111.808 871.733 111.708 871.072 111.621C870.41 111.534 869.805 111.49 869.256 111.49C868.083 111.49 867.034 111.746 866.111 112.258C865.2 112.757 864.476 113.456 863.939 114.354C863.415 115.253 863.153 116.289 863.153 117.462V133.73H855.178ZM886.933 134.292C883.975 134.292 881.429 133.693 879.295 132.495C877.173 131.284 875.538 129.574 874.39 127.365C873.242 125.144 872.668 122.517 872.668 119.484C872.668 116.526 873.242 113.93 874.39 111.696C875.538 109.462 877.155 107.721 879.239 106.473C881.336 105.225 883.794 104.601 886.615 104.601C888.512 104.601 890.278 104.907 891.913 105.518C893.56 106.117 894.996 107.022 896.219 108.233C897.454 109.443 898.415 110.966 899.102 112.801C899.788 114.623 900.131 116.757 900.131 119.203V121.393H875.85V116.451H892.624C892.624 115.303 892.375 114.286 891.876 113.4C891.376 112.513 890.684 111.821 889.798 111.322C888.924 110.81 887.907 110.554 886.746 110.554C885.535 110.554 884.462 110.835 883.526 111.396C882.602 111.946 881.879 112.688 881.354 113.624C880.83 114.548 880.562 115.577 880.549 116.713V121.412C880.549 122.835 880.812 124.064 881.336 125.1C881.872 126.136 882.627 126.935 883.601 127.496C884.574 128.058 885.729 128.339 887.064 128.339C887.95 128.339 888.762 128.214 889.498 127.964C890.234 127.715 890.865 127.34 891.389 126.841C891.913 126.342 892.312 125.73 892.587 125.007L899.963 125.493C899.589 127.266 898.821 128.813 897.66 130.136C896.512 131.447 895.027 132.47 893.205 133.206C891.395 133.93 889.305 134.292 886.933 134.292ZM922.756 144.514V129.125H922.513C922.138 129.924 921.608 130.716 920.921 131.503C920.247 132.276 919.367 132.919 918.282 133.431C917.208 133.943 915.898 134.198 914.35 134.198C912.166 134.198 910.188 133.637 908.416 132.514C906.656 131.378 905.258 129.712 904.222 127.515C903.199 125.306 902.687 122.598 902.687 119.39C902.687 116.095 903.218 113.356 904.278 111.172C905.339 108.975 906.75 107.334 908.509 106.248C910.282 105.15 912.222 104.601 914.332 104.601C915.942 104.601 917.283 104.875 918.357 105.425C919.442 105.961 920.316 106.635 920.977 107.446C921.651 108.245 922.163 109.031 922.513 109.805H922.85V104.975H930.712V144.514H922.756ZM916.878 127.852C918.163 127.852 919.249 127.503 920.135 126.804C921.034 126.092 921.72 125.1 922.194 123.827C922.681 122.554 922.924 121.063 922.924 119.353C922.924 117.643 922.687 116.158 922.213 114.897C921.739 113.637 921.052 112.663 920.154 111.977C919.255 111.29 918.163 110.947 916.878 110.947C915.567 110.947 914.463 111.303 913.564 112.014C912.665 112.726 911.985 113.712 911.523 114.972C911.062 116.233 910.831 117.693 910.831 119.353C910.831 121.025 911.062 122.504 911.523 123.79C911.998 125.063 912.678 126.061 913.564 126.785C914.463 127.496 915.567 127.852 916.878 127.852ZM953.973 121.487V104.975H961.948V133.73H954.292V128.507H953.992C953.343 130.192 952.264 131.546 950.753 132.57C949.256 133.593 947.427 134.105 945.268 134.105C943.346 134.105 941.655 133.668 940.195 132.794C938.735 131.921 937.593 130.679 936.769 129.069C935.958 127.459 935.546 125.531 935.533 123.284V104.975H943.508V121.861C943.521 123.559 943.976 124.9 944.875 125.886C945.774 126.872 946.978 127.365 948.488 127.365C949.449 127.365 950.348 127.147 951.184 126.71C952.02 126.261 952.694 125.599 953.206 124.726C953.73 123.852 953.986 122.773 953.973 121.487ZM979.851 134.292C976.893 134.292 974.347 133.693 972.213 132.495C970.091 131.284 968.456 129.574 967.308 127.365C966.159 125.144 965.585 122.517 965.585 119.484C965.585 116.526 966.159 113.93 967.308 111.696C968.456 109.462 970.072 107.721 972.156 106.473C974.253 105.225 976.712 104.601 979.532 104.601C981.429 104.601 983.195 104.907 984.83 105.518C986.478 106.117 987.913 107.022 989.136 108.233C990.372 109.443 991.333 110.966 992.019 112.801C992.706 114.623 993.049 116.757 993.049 119.203V121.393H968.768V116.451H985.542C985.542 115.303 985.292 114.286 984.793 113.4C984.294 112.513 983.601 111.821 982.715 111.322C981.841 110.81 980.824 110.554 979.663 110.554C978.453 110.554 977.38 110.835 976.443 111.396C975.52 111.946 974.796 112.688 974.272 113.624C973.748 114.548 973.479 115.577 973.467 116.713V121.412C973.467 122.835 973.729 124.064 974.253 125.1C974.79 126.136 975.545 126.935 976.518 127.496C977.492 128.058 978.646 128.339 979.982 128.339C980.868 128.339 981.679 128.214 982.415 127.964C983.152 127.715 983.782 127.34 984.306 126.841C984.83 126.342 985.23 125.73 985.504 125.007L992.88 125.493C992.506 127.266 991.738 128.813 990.578 130.136C989.429 131.447 987.944 132.47 986.122 133.206C984.312 133.93 982.222 134.292 979.851 134.292ZM1020.6 113.175L1013.3 113.624C1013.17 113 1012.9 112.439 1012.49 111.939C1012.08 111.428 1011.54 111.022 1010.86 110.723C1010.2 110.411 1009.41 110.255 1008.48 110.255C1007.25 110.255 1006.21 110.517 1005.36 111.041C1004.51 111.552 1004.09 112.239 1004.09 113.1C1004.09 113.787 1004.36 114.367 1004.91 114.841C1005.46 115.315 1006.4 115.696 1007.74 115.983L1012.94 117.031C1015.74 117.606 1017.82 118.529 1019.19 119.802C1020.57 121.075 1021.25 122.748 1021.25 124.819C1021.25 126.704 1020.7 128.358 1019.59 129.78C1018.49 131.203 1016.98 132.314 1015.06 133.113C1013.15 133.899 1010.94 134.292 1008.45 134.292C1004.64 134.292 1001.61 133.5 999.349 131.915C997.102 130.317 995.786 128.145 995.399 125.4L1003.24 124.988C1003.48 126.149 1004.05 127.035 1004.97 127.646C1005.88 128.245 1007.04 128.545 1008.47 128.545C1009.86 128.545 1010.99 128.276 1011.84 127.74C1012.7 127.191 1013.13 126.485 1013.15 125.624C1013.13 124.9 1012.83 124.308 1012.23 123.846C1011.63 123.372 1010.71 123.01 1009.46 122.76L1004.48 121.768C1001.67 121.206 999.58 120.233 998.207 118.847C996.846 117.462 996.166 115.696 996.166 113.549C996.166 111.702 996.666 110.111 997.664 108.776C998.675 107.44 1000.09 106.41 1001.91 105.687C1003.75 104.963 1005.89 104.601 1008.35 104.601C1011.99 104.601 1014.84 105.368 1016.93 106.903C1019.02 108.439 1020.25 110.529 1020.6 113.175ZM1039.99 104.975V110.966H1022.67V104.975H1039.99ZM1026.6 98.0859H1034.58V124.894C1034.58 125.631 1034.69 126.205 1034.91 126.617C1035.14 127.016 1035.45 127.297 1035.85 127.459C1036.26 127.621 1036.74 127.702 1037.27 127.702C1037.65 127.702 1038.02 127.671 1038.4 127.609C1038.77 127.534 1039.06 127.478 1039.26 127.44L1040.51 133.375C1040.11 133.5 1039.55 133.643 1038.83 133.805C1038.1 133.98 1037.22 134.086 1036.19 134.124C1034.27 134.198 1032.58 133.943 1031.13 133.356C1029.7 132.769 1028.58 131.858 1027.78 130.623C1026.98 129.387 1026.59 127.827 1026.6 125.943V98.0859Z" fill="black"/>
<path d="M422.527 129.26H440.93V136H448.68V129.26H453.435V122.764H448.68V97.6597H438.534L422.527 122.877V129.26ZM441.08 122.764H430.69V122.465L440.78 106.496H441.08V122.764ZM482.902 110.053H491.14C490.091 102.471 483.408 97.1355 474.74 97.1355C464.612 97.1355 456.806 104.437 456.806 116.867C456.806 128.998 464.107 136.524 474.909 136.524C484.587 136.524 491.495 130.402 491.495 120.312V115.482H475.452V121.585H483.689C483.576 126.34 480.338 129.354 474.946 129.354C468.862 129.354 465.024 124.805 465.024 116.792C465.024 108.817 469.012 104.306 474.871 104.306C479.046 104.306 481.873 106.458 482.902 110.053ZM496.003 136H512.384C520.995 136 525.582 131.507 525.582 125.404C525.582 119.732 521.519 116.306 517.157 116.1V115.725C521.145 114.827 524.084 112 524.084 107.488C524.084 101.741 519.816 97.6597 511.354 97.6597H496.003V136ZM504.109 129.373V119.189H510.905C514.799 119.189 517.213 121.435 517.213 124.599C517.213 127.482 515.248 129.373 510.717 129.373H504.109ZM504.109 113.703V104.212H510.268C513.862 104.212 515.903 106.065 515.903 108.836C515.903 111.869 513.432 113.703 510.118 113.703H504.109Z" fill="black"/>
<path d="M407.599 811.686C406.599 812.571 405.547 813.544 404.444 814.604C403.375 815.629 402.219 816.586 400.974 817.473C399.764 818.361 398.5 819.109 397.182 819.719C395.864 820.294 394.472 820.59 393.007 820.609C392.24 820.618 391.402 820.542 390.492 820.379C389.583 820.181 388.724 819.86 387.916 819.417C387.143 818.973 386.456 818.423 385.855 817.768C385.288 817.078 384.981 816.262 384.934 815.32C384.778 813.997 384.897 812.373 385.292 810.449C385.721 808.49 386.358 806.441 387.203 804.303C388.048 802.129 389.05 799.989 390.21 797.881C391.404 795.738 392.705 793.803 394.113 792.076C395.522 790.314 397.004 788.9 398.56 787.834C400.152 786.767 401.767 786.223 403.406 786.203C403.651 786.2 403.913 786.231 404.192 786.298C404.507 786.328 404.787 786.395 405.032 786.496C405.313 786.597 405.541 786.769 405.719 787.011C405.896 787.218 405.987 787.513 405.992 787.897C405.994 788.071 405.596 788.303 404.797 788.592C404.033 788.881 403.148 789.206 402.14 789.568C401.133 789.894 400.161 790.255 399.224 790.651C398.286 791.012 397.663 791.368 397.353 791.721C396.118 793.341 394.935 794.996 393.805 796.685C392.71 798.373 391.72 800.112 390.836 801.902C389.986 803.692 389.259 805.533 388.655 807.424C388.086 809.315 387.709 811.256 387.525 813.247C387.537 814.224 387.738 814.989 388.129 815.542C388.519 816.06 389.013 816.455 389.609 816.727C390.24 816.963 390.957 817.111 391.76 817.171C392.563 817.195 393.365 817.203 394.168 817.193C395.561 817.036 396.95 816.547 398.336 815.727C399.72 814.873 401.015 813.827 402.221 812.591C403.461 811.355 404.577 809.963 405.57 808.415C406.561 806.833 407.396 805.235 408.073 803.622L399.911 803.724C399.906 803.306 400.145 802.919 400.629 802.564C401.148 802.209 401.79 801.887 402.553 801.598C403.352 801.274 404.238 800.984 405.211 800.727C406.185 800.471 407.141 800.25 408.081 800.063C409.02 799.877 409.891 799.744 410.692 799.664C411.494 799.584 412.121 799.542 412.575 799.536L413.15 799.529C413.394 799.526 413.621 799.558 413.832 799.625C414.042 799.692 414.183 799.83 414.255 800.038C414.362 800.211 414.331 800.491 414.161 800.876C414.127 800.947 414.006 801.053 413.799 801.195C413.626 801.337 413.419 801.479 413.176 801.621C412.969 801.764 412.761 801.906 412.554 802.048C412.346 802.155 412.207 802.227 412.138 802.262C411.424 803.737 410.922 805.47 410.633 807.462C410.344 809.454 410.196 811.514 410.188 813.642C410.18 815.77 410.276 817.897 410.477 820.023C410.678 822.113 410.911 823.994 411.176 825.665L409.153 827.051C408.729 826.638 408.373 826.049 408.084 825.286C407.83 824.521 407.645 823.669 407.529 822.728C407.412 821.788 407.347 820.795 407.334 819.748C407.321 818.702 407.326 817.69 407.348 816.713C407.405 815.701 407.446 814.758 407.47 813.886C407.529 813.013 407.572 812.28 407.599 811.686ZM430.138 814.699C430.004 815.12 429.662 815.7 429.114 816.439C428.599 817.143 427.98 817.866 427.257 818.608C426.533 819.315 425.774 819.952 424.979 820.52C424.218 821.053 423.541 821.323 422.948 821.331C421.832 821.345 420.901 820.833 420.155 819.796C419.445 818.759 418.887 817.422 418.483 815.788C418.078 814.153 417.794 812.343 417.629 810.357C417.465 808.335 417.353 806.366 417.294 804.448C417.235 802.53 417.195 800.786 417.175 799.216C417.156 797.647 417.088 796.461 416.974 795.661C417.109 795.31 417.281 795.098 417.489 795.026C417.732 794.953 418.011 794.915 418.325 794.911C418.604 794.907 418.848 794.939 419.059 795.006C419.304 795.073 419.516 795.28 419.694 795.626C419.699 796.01 419.707 796.655 419.719 797.562C419.765 798.469 419.83 799.497 419.914 800.647C419.998 801.762 420.083 802.947 420.168 804.202C420.254 805.422 420.321 806.59 420.37 807.706C420.453 808.821 420.518 809.832 420.565 810.738C420.645 811.609 420.706 812.254 420.746 812.672C420.784 812.916 420.824 813.317 420.866 813.874C420.943 814.431 421.037 815.023 421.15 815.65C421.297 816.241 421.46 816.78 421.641 817.266C421.856 817.751 422.121 818.01 422.436 818.041C422.959 818.034 423.479 817.801 423.997 817.341C424.549 816.88 425.083 816.298 425.597 815.594C426.111 814.89 426.59 814.116 427.033 813.273C427.476 812.43 427.867 811.623 428.206 810.851C428.58 810.044 428.85 809.326 429.016 808.696C429.218 808.065 429.334 807.61 429.365 807.331C429.428 806.737 429.487 805.899 429.543 804.817C429.599 803.7 429.636 802.513 429.655 801.257C429.674 800.001 429.677 798.815 429.663 797.699C429.684 796.582 429.69 795.727 429.683 795.134L432.562 795.255C432.633 798.08 432.648 800.644 432.607 802.947C432.566 805.215 432.575 807.36 432.635 809.383C432.695 811.371 432.877 813.304 433.179 815.184C433.482 817.064 434.012 819.011 434.77 821.025C434.667 821.131 434.46 821.273 434.148 821.452C433.837 821.665 433.611 821.772 433.472 821.774C432.6 821.785 432.003 821.496 431.682 820.907C431.395 820.353 431.195 819.692 431.081 818.926C431.001 818.125 430.922 817.341 430.842 816.574C430.797 815.773 430.563 815.148 430.138 814.699ZM452.538 819.127C452.352 818.223 452.182 817.143 452.026 815.889C451.906 814.6 451.767 813.311 451.612 812.022C451.455 810.699 451.265 809.463 451.042 808.314C450.853 807.165 450.562 806.227 450.169 805.499C448.436 809.149 446.902 812.029 445.568 814.139C444.234 816.214 443.049 817.712 442.014 818.632C441.013 819.516 440.164 819.946 439.466 819.92C438.768 819.894 438.189 819.587 437.728 819C437.267 818.412 436.926 817.667 436.705 816.762C436.519 815.823 436.386 814.952 436.306 814.151C436.296 813.384 436.457 812.3 436.788 810.9C437.12 809.501 437.572 807.978 438.144 806.331C438.716 804.649 439.392 802.949 440.173 801.23C440.988 799.51 441.858 797.947 442.783 796.539C443.707 795.132 444.669 793.969 445.669 793.049C446.669 792.13 447.675 791.664 448.687 791.651C450.183 791.388 451.286 791.706 451.995 792.604C452.739 793.466 452.897 794.947 452.47 797.046C452.499 799.348 452.611 801.317 452.806 802.954C453.036 804.591 453.265 806.158 453.493 807.655C453.756 809.152 453.985 810.719 454.18 812.356C454.41 813.993 454.539 815.962 454.568 818.264C454.573 818.683 454.526 819.05 454.425 819.365C454.359 819.645 453.942 819.79 453.175 819.8C453.07 819.801 452.929 819.715 452.753 819.543C452.611 819.371 452.539 819.232 452.538 819.127ZM449.419 795.776C449.028 795.222 448.504 795.177 447.847 795.639C447.19 796.1 446.502 796.859 445.783 797.915C445.063 798.97 444.329 800.235 443.58 801.71C442.831 803.185 442.135 804.676 441.491 806.184C440.847 807.692 440.29 809.13 439.818 810.496C439.347 811.828 439.029 812.931 438.866 813.805C438.882 815.06 439.082 815.773 439.468 815.943C439.854 816.077 440.322 815.862 440.873 815.297C441.424 814.732 442.042 813.922 442.726 812.867C443.446 811.811 444.129 810.686 444.777 809.492C445.46 808.297 446.09 807.138 446.669 806.014C447.283 804.89 447.76 803.977 448.1 803.275C448.405 802.539 448.64 801.856 448.807 801.226C448.973 800.596 449.106 800.001 449.203 799.441C449.335 798.847 449.398 798.253 449.39 797.66C449.417 797.067 449.427 796.438 449.419 795.776ZM456.999 795.209L456.994 794.791C456.99 794.442 457.109 794.196 457.351 794.054C457.628 793.911 457.941 793.837 458.29 793.833C458.569 793.829 458.831 793.861 459.076 793.927C459.321 793.959 459.515 794.149 459.659 794.496C459.77 795.018 459.884 795.749 460.001 796.689C460.117 797.595 460.251 798.605 460.405 799.719C460.558 800.834 460.713 802.018 460.868 803.272C461.058 804.49 461.23 805.657 461.383 806.771C461.571 807.85 461.758 808.825 461.943 809.695C462.129 810.564 462.329 811.225 462.544 811.675C462.397 808.328 462.465 805.432 462.748 802.986C463.031 800.506 463.599 798.493 464.452 796.947C465.339 795.366 466.546 794.27 468.073 793.657C469.635 793.01 471.587 792.846 473.928 793.165C475.009 793.151 475.557 793.72 475.571 794.871C475.577 795.325 475.285 795.642 474.694 795.824C474.103 795.971 473.441 796.084 472.71 796.163C471.978 796.207 471.263 796.268 470.567 796.347C469.87 796.426 469.366 796.606 469.056 796.889C467.809 797.603 466.933 798.695 466.428 800.167C465.958 801.638 465.631 803.369 465.447 805.36C465.263 807.35 465.133 809.532 465.058 811.905C465.018 814.243 464.822 816.653 464.469 819.134C464.473 819.483 464.337 819.746 464.06 819.924C463.784 820.102 463.436 820.194 463.017 820.199C462.634 820.204 462.249 820.121 461.863 819.952C461.512 819.782 461.23 819.524 461.016 819.178L456.999 795.209ZM493.4 818.613C493.214 817.709 493.044 816.629 492.888 815.375C492.768 814.086 492.629 812.797 492.473 811.508C492.317 810.185 492.127 808.949 491.904 807.8C491.715 806.651 491.424 805.713 491.031 804.985C489.298 808.635 487.764 811.515 486.43 813.625C485.096 815.7 483.911 817.198 482.876 818.118C481.875 819.002 481.026 819.432 480.328 819.406C479.63 819.38 479.05 819.073 478.59 818.486C478.129 817.898 477.788 817.153 477.567 816.248C477.381 815.309 477.248 814.438 477.168 813.637C477.158 812.87 477.319 811.786 477.65 810.387C477.982 808.987 478.434 807.464 479.006 805.817C479.578 804.135 480.254 802.435 481.035 800.716C481.85 798.996 482.72 797.433 483.645 796.026C484.569 794.618 485.531 793.455 486.531 792.536C487.531 791.616 488.537 791.15 489.549 791.137C491.045 790.874 492.148 791.192 492.857 792.09C493.601 792.952 493.759 794.433 493.332 796.532C493.361 798.834 493.473 800.803 493.668 802.441C493.898 804.077 494.127 805.644 494.355 807.141C494.618 808.638 494.847 810.205 495.042 811.842C495.272 813.479 495.401 815.448 495.43 817.751C495.435 818.169 495.388 818.536 495.287 818.851C495.221 819.131 494.804 819.276 494.036 819.286C493.932 819.287 493.791 819.201 493.615 819.029C493.473 818.857 493.401 818.718 493.4 818.613ZM490.281 795.262C489.89 794.709 489.366 794.663 488.709 795.125C488.052 795.586 487.364 796.345 486.645 797.401C485.925 798.456 485.191 799.721 484.442 801.196C483.693 802.671 482.997 804.162 482.353 805.67C481.709 807.178 481.152 808.616 480.68 809.982C480.209 811.314 479.891 812.417 479.728 813.291C479.744 814.546 479.944 815.259 480.33 815.429C480.716 815.563 481.184 815.348 481.735 814.783C482.286 814.218 482.904 813.408 483.588 812.353C484.308 811.297 484.991 810.172 485.639 808.978C486.322 807.783 486.952 806.624 487.531 805.5C488.145 804.376 488.622 803.463 488.962 802.761C489.267 802.025 489.502 801.342 489.669 800.712C489.835 800.082 489.968 799.487 490.065 798.927C490.197 798.333 490.259 797.739 490.252 797.146C490.279 796.553 490.289 795.925 490.281 795.262ZM500.367 819.206C499.924 814.502 499.516 809.798 499.143 805.093C498.804 800.353 498.429 795.438 498.016 790.35C498.005 789.513 498.453 789.089 499.36 789.078L499.779 789.072C499.884 789.071 500.007 789.209 500.15 789.486C500.293 789.763 500.44 790.285 500.589 791.051C500.772 791.781 500.961 792.912 501.155 794.445C501.383 795.942 501.652 797.91 501.962 800.348C502.271 802.786 502.624 805.834 503.018 809.492C503.721 807.111 504.268 804.802 504.658 802.564C505.049 800.326 505.564 798.296 506.204 796.474C506.843 794.617 507.747 792.984 508.915 791.574C510.119 790.163 511.85 789.112 514.109 788.421C515.367 788.615 516.388 789.369 517.172 790.685C517.956 791.966 518.586 793.563 519.064 795.475C519.541 797.388 519.882 799.477 520.085 801.742C520.287 803.972 520.419 806.116 520.48 808.173C520.54 810.231 520.581 812.079 520.602 813.719C520.622 815.323 520.671 816.474 520.75 817.17C520.649 817.451 520.495 817.697 520.288 817.909C520.081 818.121 519.839 818.281 519.561 818.389C519.318 818.462 519.074 818.482 518.83 818.45C518.585 818.384 518.355 818.195 518.142 817.884C518.137 817.5 518.093 816.715 518.008 815.53C517.923 814.345 517.819 812.969 517.694 811.4C517.57 809.797 517.426 808.107 517.264 806.33C517.137 804.518 517.011 802.827 516.887 801.259C516.797 799.655 516.709 798.261 516.625 797.076C516.54 795.891 516.478 795.107 516.438 794.723C515.689 793.442 514.948 792.719 514.213 792.554C513.513 792.388 512.801 792.624 512.076 793.261C511.387 793.897 510.719 794.865 510.072 796.164C509.426 797.463 508.816 798.936 508.244 800.583C507.671 802.195 507.134 803.893 506.633 805.679C506.133 807.464 505.701 809.196 505.338 810.876C504.975 812.52 504.663 814.024 504.401 815.388C504.173 816.716 504.029 817.747 503.969 818.48C503.867 818.726 503.644 818.973 503.298 819.221C502.987 819.435 502.64 819.596 502.257 819.705C501.91 819.815 501.544 819.854 501.16 819.824C500.81 819.759 500.546 819.553 500.367 819.206ZM525.208 797.23C524.862 797.408 524.533 797.604 524.222 797.818C523.945 797.996 523.668 798.173 523.391 798.351C523.114 798.494 522.836 798.603 522.558 798.676C522.28 798.749 521.983 798.753 521.668 798.687C521.459 798.69 521.283 798.57 521.141 798.327C520.998 798.05 520.889 797.755 520.815 797.442C520.706 797.094 520.633 796.764 520.594 796.45C520.554 796.102 520.551 795.84 520.584 795.666L525.57 792.725L525.716 779.327C525.78 778.873 526.057 778.695 526.546 778.793C527.036 778.857 527.543 778.955 528.068 779.088C528.137 779.087 528.242 779.121 528.383 779.189C528.558 779.221 528.68 779.255 528.75 779.289C528.692 780.231 528.618 781.261 528.528 782.379C528.471 783.461 528.416 784.561 528.36 785.678C528.304 786.76 528.265 787.824 528.243 788.871C528.256 789.918 528.32 790.859 528.435 791.695L536.256 789.398C536.395 789.362 536.501 789.465 536.574 789.708C536.681 789.916 536.771 790.177 536.845 790.49C536.954 790.802 537.027 791.116 537.066 791.429C537.105 791.742 537.125 791.899 537.125 791.899L528.278 795.778C528.281 796.092 528.308 796.842 528.358 798.027C528.443 799.212 528.53 800.624 528.621 802.263C528.711 803.866 528.802 805.609 528.896 807.492C528.989 809.34 529.08 811.065 529.17 812.669C529.26 814.273 529.33 815.685 529.38 816.905C529.43 818.09 529.457 818.84 529.461 819.154C529.405 820.201 529.097 820.728 528.539 820.735C528.016 820.742 527.437 820.488 526.803 819.972L525.208 797.23ZM539.84 808.087C539.666 808.124 539.405 808.18 539.057 808.254C538.709 808.328 538.343 808.35 537.959 808.32C537.575 808.29 537.242 808.189 536.961 808.018C536.645 807.848 536.484 807.553 536.479 807.135C536.476 806.891 536.526 806.716 536.629 806.61C536.733 806.504 536.905 806.345 537.147 806.132C537.906 805.495 538.541 804.684 539.052 803.701C539.598 802.683 540.09 801.612 540.529 800.491C540.968 799.334 541.425 798.194 541.899 797.072C542.408 795.914 542.988 794.878 543.639 793.963C544.291 793.048 545.101 792.305 546.071 791.734C547.04 791.164 548.24 790.887 549.671 790.904C550.264 790.897 550.928 791.028 551.664 791.298C552.4 791.568 553.085 791.943 553.719 792.423C554.353 792.869 554.883 793.42 555.31 794.078C555.737 794.735 555.955 795.465 555.965 796.267C556.143 796.544 555.974 796.947 555.457 797.477C554.976 798.006 554.303 798.591 553.439 799.229C552.574 799.833 551.588 800.474 550.48 801.15C549.407 801.792 548.368 802.398 547.363 802.969C546.359 803.54 545.475 804.039 544.713 804.467C543.951 804.895 543.449 805.216 543.208 805.428C543.038 805.779 542.903 806.182 542.804 806.637C542.705 807.091 542.624 807.529 542.559 807.948C542.529 808.332 542.499 808.699 542.468 809.048C542.472 809.362 542.475 809.606 542.478 809.781C542.486 810.443 542.46 811.176 542.401 811.979C542.376 812.782 542.42 813.549 542.534 814.28C542.683 814.976 542.986 815.565 543.446 816.048C543.905 816.495 544.675 816.713 545.757 816.699C546.908 816.684 547.985 816.392 548.99 815.821C549.994 815.215 550.927 814.488 551.788 813.64C552.65 812.792 553.423 811.876 554.108 810.89C554.829 809.904 555.463 808.989 556.01 808.145C556.592 807.266 557.106 806.544 557.553 805.98C557.999 805.416 558.379 805.133 558.693 805.129C559.042 805.124 559.409 805.189 559.795 805.324C560.214 805.423 560.427 805.7 560.433 806.153C560.441 806.781 560.189 807.534 559.676 808.413C559.199 809.291 558.548 810.224 557.723 811.211C556.933 812.198 556.004 813.186 554.935 814.176C553.9 815.131 552.847 815.999 551.775 816.78C550.703 817.526 549.647 818.15 548.607 818.652C547.566 819.118 546.645 819.357 545.843 819.367C544.273 819.386 543.082 819.018 542.27 818.26C541.458 817.503 540.871 816.551 540.508 815.404C540.179 814.257 539.989 813.039 539.938 811.749C539.922 810.423 539.889 809.203 539.84 808.087ZM549.289 793.839C548.696 793.847 548.072 794.151 547.417 794.752C546.761 795.319 546.142 796.024 545.56 796.869C545.012 797.678 544.551 798.521 544.179 799.398C543.84 800.24 543.675 800.939 543.682 801.497C544.205 801.491 544.952 801.29 545.924 800.894C546.93 800.462 547.918 799.944 548.887 799.339C549.857 798.734 550.703 798.095 551.427 797.423C552.151 796.751 552.51 796.119 552.502 795.526C552.498 795.212 552.373 794.952 552.126 794.746C551.879 794.539 551.581 794.369 551.23 794.234C550.915 794.098 550.582 793.998 550.232 793.932C549.883 793.867 549.568 793.836 549.289 793.839ZM564.587 807.776C564.413 807.813 564.152 807.868 563.804 807.942C563.457 808.017 563.091 808.039 562.706 808.009C562.322 807.979 561.99 807.878 561.708 807.707C561.392 807.537 561.232 807.242 561.226 806.824C561.223 806.579 561.273 806.404 561.377 806.298C561.48 806.192 561.652 806.033 561.894 805.821C562.653 805.184 563.289 804.373 563.8 803.39C564.345 802.371 564.837 801.301 565.277 800.179C565.716 799.023 566.172 797.883 566.647 796.761C567.155 795.603 567.735 794.567 568.387 793.651C569.038 792.736 569.848 791.993 570.818 791.423C571.788 790.853 572.988 790.576 574.418 790.593C575.011 790.585 575.676 790.717 576.412 790.986C577.148 791.256 577.833 791.631 578.467 792.112C579.1 792.557 579.63 793.109 580.057 793.766C580.484 794.424 580.703 795.154 580.713 795.956C580.891 796.233 580.721 796.636 580.205 797.166C579.723 797.695 579.05 798.279 578.186 798.918C577.321 799.522 576.335 800.162 575.227 800.839C574.154 801.481 573.115 802.087 572.111 802.657C571.106 803.228 570.223 803.728 569.461 804.156C568.699 804.584 568.197 804.904 567.955 805.117C567.785 805.468 567.651 805.871 567.552 806.325C567.453 806.78 567.371 807.217 567.307 807.637C567.277 808.021 567.246 808.388 567.216 808.737C567.22 809.051 567.223 809.295 567.225 809.469C567.233 810.132 567.208 810.865 567.148 811.668C567.123 812.471 567.168 813.238 567.282 813.969C567.43 814.665 567.734 815.254 568.193 815.736C568.653 816.184 569.423 816.401 570.504 816.388C571.655 816.373 572.733 816.081 573.737 815.51C574.741 814.904 575.674 814.177 576.536 813.329C577.397 812.481 578.171 811.564 578.856 810.579C579.576 809.593 580.21 808.678 580.757 807.834C581.339 806.954 581.854 806.233 582.3 805.669C582.747 805.105 583.127 804.821 583.441 804.817C583.789 804.813 584.157 804.878 584.542 805.013C584.962 805.112 585.175 805.389 585.18 805.842C585.188 806.47 584.936 807.223 584.424 808.102C583.946 808.98 583.295 809.913 582.471 810.9C581.681 811.886 580.751 812.875 579.682 813.865C578.648 814.82 577.594 815.688 576.523 816.469C575.451 817.215 574.395 817.839 573.354 818.34C572.314 818.807 571.392 819.045 570.59 819.055C569.02 819.075 567.83 818.706 567.018 817.949C566.206 817.192 565.618 816.24 565.255 815.093C564.927 813.946 564.737 812.727 564.686 811.437C564.669 810.112 564.636 808.891 564.587 807.776ZM574.036 793.528C573.444 793.536 572.819 793.84 572.164 794.441C571.508 795.008 570.889 795.713 570.307 796.558C569.759 797.367 569.299 798.21 568.926 799.087C568.588 799.928 568.422 800.628 568.429 801.186C568.952 801.18 569.7 800.978 570.672 800.582C571.678 800.151 572.666 799.633 573.635 799.028C574.604 798.422 575.451 797.784 576.175 797.112C576.899 796.44 577.257 795.807 577.25 795.215C577.246 794.901 577.12 794.641 576.874 794.434C576.627 794.228 576.328 794.057 575.978 793.922C575.662 793.787 575.329 793.686 574.98 793.621C574.63 793.556 574.316 793.525 574.036 793.528ZM599.297 809.066C598.958 809.872 598.517 810.803 597.972 811.856C597.462 812.909 596.846 813.911 596.126 814.862C595.44 815.812 594.63 816.625 593.697 817.3C592.764 817.974 591.721 818.319 590.57 818.333C590.047 818.34 589.628 818.293 589.313 818.192C589.032 818.056 588.768 817.867 588.521 817.626C588.308 817.385 588.095 817.091 587.882 816.745C587.703 816.398 587.471 816.017 587.187 815.602C587.061 813.894 586.968 812.064 586.909 810.111C586.884 808.123 586.963 806.151 587.148 804.195C587.332 802.204 587.658 800.334 588.124 798.584C588.625 796.833 589.322 795.342 590.213 794.11C591.14 792.877 592.297 791.99 593.686 791.449C595.074 790.909 596.766 790.853 598.76 791.281C598.852 790.303 598.853 788.995 598.763 787.356C598.672 785.718 598.546 783.993 598.383 782.181C598.221 780.369 598.06 778.626 597.899 776.954C597.738 775.246 597.633 773.852 597.585 772.772C597.581 772.458 597.718 772.229 597.995 772.086C598.307 771.908 598.637 771.799 598.985 771.76C599.333 771.72 599.665 771.716 599.979 771.747C600.328 771.778 600.556 771.827 600.661 771.896C600.645 776.187 600.681 780.407 600.768 784.558C600.855 788.673 600.941 792.789 601.028 796.904C601.149 800.984 601.27 805.047 601.391 809.092C601.511 813.137 601.597 817.183 601.648 821.229C601.653 821.612 601.623 822.014 601.558 822.433C601.529 822.887 601.236 823.118 600.678 823.125C600.468 823.127 600.258 823.06 600.047 822.923C599.837 822.821 599.695 822.649 599.622 822.406L599.297 809.066ZM596.857 793.921C595.774 793.865 594.768 794.314 593.838 795.268C592.943 796.186 592.156 797.382 591.477 798.856C590.832 800.329 590.312 801.958 589.916 803.742C589.519 805.491 589.279 807.186 589.195 808.827C589.145 810.432 589.268 811.861 589.563 813.113C589.892 814.365 590.444 815.212 591.217 815.656C591.984 815.647 592.696 815.341 593.351 814.74C594.006 814.104 594.606 813.311 595.152 812.362C595.699 811.414 596.174 810.361 596.578 809.205C596.982 808.014 597.316 806.876 597.581 805.791C597.882 804.706 598.096 803.726 598.225 802.852C598.388 801.943 598.466 801.262 598.461 800.809C598.456 800.46 598.467 799.901 598.492 799.134C598.517 798.366 598.49 797.599 598.411 796.832C598.331 796.066 598.166 795.388 597.914 794.798C597.697 794.207 597.345 793.915 596.857 793.921ZM628.967 800.739C628.96 800.181 629.001 799.238 629.089 797.912C629.176 796.55 629.331 795.013 629.554 793.301C629.812 791.588 630.156 789.84 630.587 788.055C631.018 786.236 631.52 784.572 632.094 783.065C632.703 781.557 633.403 780.327 634.193 779.375C635.018 778.423 635.972 777.94 637.053 777.927C637.192 777.925 637.384 777.94 637.629 777.972C637.908 777.968 638.153 778.035 638.364 778.172C638.575 778.274 638.716 778.412 638.788 778.585C638.895 778.758 638.88 779.003 638.745 779.318C639.334 778.997 639.837 778.764 640.254 778.619C640.705 778.439 641.122 778.294 641.504 778.185C641.886 778.04 642.269 777.948 642.652 777.909C643.07 777.868 643.541 777.845 644.064 777.838C645.285 777.823 646.336 778.194 647.217 778.95C648.134 779.671 648.896 780.638 649.504 781.852C650.147 783.065 650.653 784.471 651.022 786.071C651.391 787.671 651.657 789.36 651.819 791.137C651.98 792.879 652.037 794.64 651.99 796.42C651.977 798.199 651.876 799.892 651.687 801.5C651.498 803.107 651.238 804.575 650.906 805.905C650.573 807.2 650.22 808.234 649.846 809.006L649.848 809.215C649.849 809.25 649.867 809.285 649.902 809.319L653.274 815.294C653.274 815.329 653.275 815.434 653.278 815.608C653.314 815.747 653.333 815.834 653.333 815.869C653.346 816.846 652.881 817.34 651.939 817.352L651.625 817.356C651.486 817.358 651.381 817.341 651.311 817.307C651.204 817.169 651.026 816.91 650.777 816.529C650.528 816.114 650.244 815.699 649.925 815.284C649.64 814.869 649.374 814.489 649.125 814.143C648.876 813.762 648.681 813.503 648.54 813.365C648.504 813.296 648.398 813.175 648.221 813.003C648.08 812.83 647.973 812.71 647.903 812.641C647.422 813.275 646.907 813.909 646.357 814.544C645.807 815.179 645.186 815.762 644.495 816.294C643.839 816.826 643.129 817.271 642.366 817.629C641.638 817.987 640.856 818.172 640.019 818.182C638.519 818.201 637.207 817.938 636.084 817.394C634.996 816.85 634.045 816.129 633.231 815.232C632.417 814.301 631.741 813.245 631.203 812.066C630.664 810.852 630.23 809.601 629.9 808.315C629.569 806.993 629.326 805.688 629.17 804.399C629.049 803.11 628.982 801.89 628.967 800.739ZM631.589 801.177C631.598 801.909 631.644 802.781 631.727 803.791C631.844 804.767 631.996 805.794 632.184 806.873C632.407 807.917 632.699 808.96 633.061 810.002C633.458 811.043 633.94 811.979 634.509 812.809C635.077 813.604 635.766 814.259 636.574 814.772C637.418 815.284 638.415 815.534 639.567 815.519C640.334 815.509 641.134 815.342 641.967 815.018C642.835 814.693 643.597 814.265 644.254 813.733C644.909 813.167 645.459 812.515 645.904 811.776C646.347 811.003 646.564 810.198 646.553 809.361L646.548 808.943C646.546 808.768 646.527 808.681 646.493 808.682L641.709 798.642L644.309 797.301L647.811 805.316C647.811 805.351 647.846 805.385 647.917 805.419C647.987 805.453 648.039 805.47 648.074 805.47C648.423 805.465 648.699 805.218 648.902 804.727C649.14 804.2 649.324 803.553 649.453 802.784C649.583 802.014 649.66 801.194 649.684 800.321C649.742 799.413 649.767 798.558 649.756 797.756C649.746 796.954 649.738 796.274 649.731 795.716L649.719 794.774C649.71 794.042 649.699 793.17 649.686 792.158C649.673 791.146 649.591 790.118 649.438 789.074C649.32 787.994 649.132 786.95 648.875 785.941C648.653 784.897 648.31 783.977 647.846 783.181C647.382 782.349 646.781 781.694 646.042 781.215C645.338 780.7 644.48 780.45 643.469 780.462C641.829 780.413 640.419 780.64 639.239 781.143C638.094 781.646 637.126 782.339 636.335 783.221C635.543 784.068 634.892 785.053 634.383 786.176C633.874 787.298 633.453 788.472 633.119 789.698C632.821 790.922 632.557 792.147 632.328 793.371C632.099 794.594 631.87 795.749 631.639 796.833C631.641 796.972 631.627 797.252 631.597 797.671C631.602 798.054 631.59 798.491 631.562 798.979C631.567 799.433 631.573 799.869 631.578 800.287L631.589 801.177ZM656.356 810.755C656.092 809.154 655.95 807.603 655.932 806.103C655.912 804.569 655.98 803.015 656.135 801.444C656.324 799.871 656.583 798.246 656.91 796.567C657.273 794.853 657.686 793.017 658.149 791.057C658.145 790.674 658.245 790.324 658.45 790.007C658.655 789.656 658.931 789.373 659.277 789.159C659.622 788.911 659.986 788.714 660.368 788.57C660.75 788.426 661.115 788.351 661.464 788.347C662.232 788.337 662.932 788.573 663.566 789.053C664.2 789.533 664.766 790.119 665.263 790.811C665.795 791.502 666.24 792.246 666.599 793.044C666.993 793.807 667.315 794.465 667.566 795.02C667.86 796.238 668.07 797.631 668.194 799.199C668.353 800.732 668.39 802.301 668.306 803.907C668.221 805.513 667.997 807.103 667.633 808.677C667.269 810.217 666.746 811.636 666.064 812.936C665.383 814.235 664.49 815.328 663.385 816.214C662.314 817.099 661.031 817.656 659.533 817.884C658.731 817.894 658.117 817.641 657.692 817.123C657.267 816.57 656.944 815.911 656.726 815.146C656.541 814.346 656.426 813.545 656.381 812.743C656.371 811.941 656.363 811.279 656.356 810.755ZM659.023 810.565C659.027 810.914 659.031 811.245 659.035 811.559C659.074 811.872 659.113 812.186 659.152 812.499C659.225 812.777 659.299 813.091 659.373 813.438C659.481 813.751 659.608 814.116 659.753 814.533L660.067 814.529C660.904 814.518 661.615 814.23 662.201 813.665C662.787 813.099 663.284 812.378 663.692 811.5C664.099 810.588 664.435 809.59 664.701 808.505C664.966 807.385 665.161 806.301 665.288 805.253C665.448 804.17 665.541 803.174 665.564 802.267C665.622 801.324 665.647 800.574 665.64 800.016L665.627 798.97C665.621 798.516 665.598 798.011 665.556 797.453C665.513 796.86 665.436 796.268 665.324 795.677C665.246 795.05 665.117 794.493 664.937 794.007C664.756 793.486 664.524 793.07 664.241 792.76C663.958 792.449 663.59 792.297 663.136 792.303C662.366 792.068 661.704 792.129 661.15 792.485C660.631 792.84 660.203 793.439 659.864 794.28C659.561 795.086 659.329 796.083 659.169 797.272C659.01 798.46 658.922 799.769 658.905 801.2C658.888 802.63 658.89 804.148 658.91 805.752C658.965 807.356 659.002 808.96 659.023 810.565ZM675.722 815.221C675.787 814.872 676.219 814.535 677.017 814.211C677.815 813.887 678.805 813.543 679.987 813.179C681.168 812.815 682.472 812.415 683.896 811.979C685.321 811.542 686.693 811.054 688.012 810.514C689.331 809.974 690.527 809.366 691.6 808.69C692.707 808.013 693.517 807.235 694.03 806.357C694.023 805.834 693.669 805.437 692.968 805.167C692.302 804.896 691.392 804.681 690.239 804.521C689.12 804.325 687.828 804.185 686.361 804.099C684.93 803.977 683.445 803.821 681.908 803.631C680.405 803.406 678.919 803.146 677.45 802.85C676.015 802.519 674.719 802.065 673.56 801.486C672.436 800.872 671.52 800.099 670.81 799.166C670.136 798.233 669.79 797.086 669.773 795.725C669.756 794.365 670.035 793.018 670.611 791.686C671.187 790.318 671.956 789 672.916 787.732C673.912 786.463 675.031 785.281 676.273 784.184C677.55 783.086 678.881 782.128 680.266 781.308C681.651 780.488 683.021 779.843 684.376 779.372C685.765 778.901 687.053 778.658 688.239 778.643C688.553 778.639 688.884 778.635 689.233 778.631C689.581 778.592 689.878 778.605 690.123 778.672C690.403 778.703 690.631 778.823 690.808 779.03C690.985 779.237 691.076 779.55 691.081 779.968C691.094 780.98 690.772 781.716 690.115 782.178C689.458 782.605 688.658 782.824 687.716 782.836L685.657 781.397C684.855 781.407 683.968 781.645 682.997 782.111C682.061 782.576 681.092 783.199 680.091 783.979C679.123 784.723 678.175 785.59 677.245 786.579C676.316 787.567 675.491 788.589 674.772 789.645C674.088 790.7 673.525 791.754 673.085 792.806C672.68 793.857 672.482 794.802 672.493 795.639C672.508 796.86 672.852 797.85 673.524 798.609C674.231 799.332 675.145 799.914 676.267 800.353C677.424 800.757 678.735 801.055 680.203 801.246C681.671 801.436 683.155 801.592 684.657 801.713C686.158 801.834 687.643 801.954 689.109 802.075C690.576 802.162 691.869 802.355 692.989 802.655C694.144 802.954 695.056 803.361 695.725 803.876C696.43 804.391 696.787 805.101 696.799 806.008C697.189 806.561 697.11 807.208 696.561 807.947C696.047 808.651 695.219 809.377 694.077 810.124C692.97 810.836 691.636 811.567 690.075 812.32C688.549 813.037 686.971 813.702 685.339 814.315C683.706 814.894 682.125 815.402 680.596 815.84C679.066 816.243 677.761 816.504 676.681 816.622C676.367 816.626 676.087 816.525 675.84 816.319C675.628 816.112 675.589 815.746 675.722 815.221ZM723.736 805.041C723.825 803.784 723.912 802.423 723.998 800.956C724.084 799.455 724.222 797.971 724.413 796.503C724.639 795.035 724.918 793.636 725.25 792.307C725.617 790.976 726.091 789.802 726.671 788.783C727.286 787.728 728.043 786.899 728.942 786.295C729.841 785.655 730.936 785.345 732.227 785.364C733.099 785.353 733.766 785.711 734.229 786.437C734.727 787.164 735.069 788.049 735.257 789.093C735.479 790.137 735.597 791.217 735.611 792.333C735.66 793.414 735.688 794.303 735.697 795.001C735 795.01 734.42 794.72 733.959 794.133C733.498 793.511 733.14 792.8 732.886 792.001C732.632 791.202 732.448 790.419 732.333 789.653L732.157 788.138C732.122 788.138 732.053 788.139 731.948 788.141C731.878 788.107 731.825 788.09 731.79 788.09C731.197 788.098 730.643 788.436 730.129 789.105C729.649 789.774 729.188 790.635 728.748 791.687C728.342 792.704 727.991 793.859 727.693 795.154C727.395 796.413 727.149 797.655 726.955 798.878C726.761 800.102 726.601 801.238 726.474 802.286C726.382 803.299 726.34 804.084 726.347 804.642C726.289 805.55 726.301 806.544 726.385 807.624C726.468 808.705 726.69 809.714 727.051 810.651C727.411 811.588 727.91 812.402 728.546 813.092C729.183 813.747 730.025 814.189 731.075 814.42C732.365 814.404 733.41 814.217 734.208 813.858C735.005 813.499 735.645 813.02 736.126 812.421C736.641 811.821 737.034 811.153 737.304 810.417C737.574 809.681 737.826 808.928 738.06 808.158C738.329 807.352 738.599 806.564 738.868 805.793C739.137 805.022 739.53 804.302 740.044 803.633C740.462 803.523 740.758 803.536 740.934 803.674C741.145 803.776 741.287 803.931 741.359 804.139C741.431 804.348 741.469 804.592 741.473 804.871L741.48 805.446C741.498 806.911 741.272 808.327 740.801 809.693C740.33 811.06 739.63 812.289 738.702 813.383C737.773 814.441 736.65 815.31 735.333 815.989C734.051 816.633 732.572 816.966 730.898 816.987C729.503 817.004 728.329 816.583 727.376 815.723C726.458 814.827 725.729 813.755 725.19 812.506C724.686 811.256 724.321 809.953 724.094 808.595C723.867 807.203 723.748 806.018 723.736 805.041ZM745.88 814.13C746.104 812.522 746.236 810.514 746.275 808.107C746.35 805.699 746.352 803.135 746.283 800.414C746.249 797.694 746.161 794.887 746.02 791.993C745.879 789.099 745.705 786.363 745.499 783.784C745.291 781.17 745.053 778.836 744.783 776.781C744.547 774.726 744.3 773.107 744.041 771.924C744.352 771.711 744.612 771.55 744.82 771.443C745.062 771.3 745.341 771.227 745.655 771.223C745.899 771.22 746.109 771.27 746.284 771.372C746.46 771.44 746.601 771.612 746.709 771.89C747.493 778.718 748.051 785.601 748.382 792.539C748.748 799.476 749.045 806.38 749.27 813.25C749.274 813.564 749.28 814 749.287 814.558C749.294 815.081 749.28 815.36 749.245 815.395C748.76 815.646 748.325 815.773 747.942 815.778C747.558 815.748 747.208 815.648 746.891 815.477C746.575 815.272 746.328 815.048 746.15 814.806C745.973 814.564 745.883 814.339 745.88 814.13ZM767.034 815.172C766.848 814.267 766.678 813.188 766.522 811.934C766.401 810.645 766.263 809.356 766.107 808.067C765.951 806.743 765.761 805.507 765.537 804.359C765.349 803.21 765.058 802.271 764.665 801.544C762.932 805.194 761.398 808.074 760.064 810.184C758.729 812.259 757.545 813.756 756.51 814.676C755.509 815.561 754.66 815.99 753.962 815.964C753.264 815.938 752.684 815.631 752.223 815.044C751.763 814.457 751.422 813.711 751.201 812.807C751.015 811.867 750.882 810.997 750.802 810.195C750.792 809.428 750.953 808.345 751.284 806.945C751.616 805.545 752.067 804.022 752.64 802.375C753.212 800.694 753.888 798.993 754.669 797.274C755.484 795.554 756.354 793.991 757.278 792.584C758.203 791.177 759.165 790.014 760.165 789.094C761.165 788.174 762.171 787.708 763.182 787.695C764.679 787.432 765.782 787.75 766.491 788.648C767.234 789.511 767.393 790.992 766.966 793.09C766.994 795.392 767.106 797.362 767.302 798.999C767.531 800.636 767.76 802.203 767.989 803.7C768.252 805.197 768.481 806.764 768.676 808.401C768.906 810.037 769.035 812.007 769.064 814.309C769.069 814.728 769.021 815.094 768.921 815.41C768.855 815.69 768.438 815.834 767.67 815.844C767.566 815.845 767.425 815.76 767.249 815.588C767.107 815.415 767.035 815.276 767.034 815.172ZM763.915 791.82C763.524 791.267 763 791.221 762.343 791.683C761.686 792.145 760.998 792.903 760.278 793.959C759.559 795.015 758.825 796.28 758.076 797.754C757.327 799.229 756.631 800.72 755.987 802.229C755.343 803.737 754.785 805.174 754.314 806.541C753.843 807.872 753.525 808.975 753.362 809.849C753.377 811.105 753.578 811.818 753.964 811.987C754.35 812.122 754.818 811.907 755.369 811.341C755.92 810.776 756.538 809.966 757.222 808.911C757.941 807.855 758.625 806.731 759.273 805.536C759.956 804.342 760.586 803.182 761.165 802.059C761.779 800.935 762.256 800.022 762.596 799.32C762.901 798.583 763.136 797.9 763.303 797.27C763.469 796.64 763.601 796.045 763.699 795.486C763.831 794.891 763.893 794.297 763.886 793.704C763.913 793.111 763.923 792.483 763.915 791.82ZM775.936 815.635C775.936 815.67 776.3 815.456 777.026 814.994C777.788 814.531 778.67 813.926 779.672 813.181C780.709 812.401 781.763 811.568 782.833 810.682C783.903 809.762 784.782 808.896 785.469 808.085C786.157 807.274 786.514 806.589 786.542 806.031C786.604 805.437 786.129 805.059 785.115 804.897C783.857 804.739 782.793 804.769 781.924 804.99C781.09 805.21 780.325 805.463 779.631 805.751C778.937 806.039 778.278 806.309 777.653 806.561C777.063 806.813 776.401 806.908 775.668 806.848C774.133 806.867 773.064 806.409 772.459 805.475C771.888 804.505 771.593 803.201 771.572 801.562C771.552 799.922 771.898 798.365 772.612 796.891C773.326 795.382 774.252 794.08 775.389 792.984C776.526 791.888 777.841 791.017 779.333 790.37C780.825 789.689 782.355 789.338 783.925 789.318C784.553 789.311 785.094 789.356 785.549 789.455C786.003 789.554 786.235 789.952 786.244 790.65C786.25 791.138 786.047 791.612 785.634 792.07C785.221 792.494 784.752 792.709 784.229 792.716C784.194 792.716 784.107 792.7 783.967 792.667C783.827 792.599 783.686 792.513 783.545 792.411C783.404 792.308 783.264 792.24 783.124 792.207C782.983 792.139 782.896 792.105 782.861 792.105C781.741 791.805 780.662 791.976 779.623 792.617C778.585 793.258 777.654 794.124 776.83 795.216C776.041 796.273 775.41 797.432 774.938 798.694C774.465 799.921 774.234 801.022 774.247 801.999C774.251 802.383 774.325 802.696 774.468 802.938C774.645 803.145 774.856 803.299 775.101 803.401C775.382 803.502 775.679 803.568 775.994 803.599C776.342 803.595 776.691 803.59 777.04 803.586C777.738 803.577 778.434 803.464 779.129 803.246C779.859 803.027 780.553 802.774 781.212 802.487C781.906 802.199 782.601 801.946 783.296 801.728C784.026 801.51 784.774 801.396 785.542 801.386C785.891 801.382 786.276 801.481 786.697 801.685C787.118 801.854 787.505 802.129 787.858 802.508C788.212 802.852 788.513 803.267 788.764 803.752C789.013 804.203 789.159 804.707 789.201 805.265C789.417 805.75 789.355 806.396 789.016 807.203C788.712 808.009 788.235 808.87 787.584 809.785C786.932 810.7 786.142 811.635 785.212 812.588C784.281 813.507 783.35 814.356 782.418 815.135C781.485 815.88 780.569 816.484 779.667 816.949C778.767 817.449 778.002 817.685 777.374 817.658C776.676 817.667 776.255 817.463 776.11 817.046C776 816.629 775.942 816.159 775.936 815.635ZM795.556 815.389C795.556 815.423 795.92 815.21 796.646 814.747C797.408 814.284 798.29 813.68 799.292 812.935C800.329 812.154 801.383 811.321 802.453 810.435C803.523 809.515 804.402 808.649 805.089 807.838C805.777 807.027 806.134 806.342 806.162 805.784C806.224 805.19 805.749 804.812 804.735 804.651C803.477 804.492 802.414 804.523 801.544 804.743C800.71 804.963 799.945 805.217 799.251 805.504C798.557 805.792 797.898 806.062 797.273 806.314C796.683 806.566 796.021 806.661 795.288 806.601C793.753 806.62 792.684 806.163 792.079 805.228C791.508 804.259 791.213 802.954 791.192 801.315C791.172 799.675 791.518 798.119 792.232 796.645C792.946 795.135 793.872 793.833 795.009 792.737C796.147 791.642 797.461 790.77 798.953 790.124C800.445 789.442 801.975 789.091 803.545 789.072C804.173 789.064 804.714 789.109 805.169 789.208C805.623 789.307 805.855 789.705 805.864 790.403C805.87 790.891 805.667 791.365 805.254 791.824C804.841 792.247 804.372 792.463 803.849 792.469C803.814 792.47 803.727 792.453 803.587 792.42C803.447 792.352 803.306 792.267 803.165 792.164C803.024 792.061 802.884 791.993 802.744 791.96C802.603 791.892 802.516 791.858 802.481 791.858C801.361 791.559 800.282 791.729 799.243 792.37C798.205 793.011 797.274 793.878 796.45 794.969C795.661 796.026 795.03 797.185 794.558 798.447C794.085 799.674 793.854 800.776 793.867 801.752C793.871 802.136 793.945 802.449 794.088 802.691C794.265 802.898 794.476 803.053 794.721 803.154C795.002 803.255 795.299 803.321 795.614 803.352C795.962 803.348 796.311 803.344 796.66 803.339C797.358 803.33 798.054 803.217 798.749 802.999C799.479 802.78 800.173 802.528 800.832 802.24C801.526 801.952 802.221 801.699 802.916 801.481C803.646 801.263 804.394 801.149 805.162 801.139C805.511 801.135 805.896 801.235 806.317 801.439C806.738 801.608 807.125 801.882 807.478 802.261C807.832 802.606 808.133 803.02 808.384 803.506C808.633 803.956 808.779 804.46 808.821 805.018C809.037 805.503 808.975 806.15 808.636 806.956C808.332 807.762 807.855 808.623 807.204 809.538C806.552 810.454 805.762 811.388 804.832 812.342C803.901 813.26 802.97 814.109 802.038 814.888C801.105 815.633 800.189 816.237 799.287 816.702C798.387 817.202 797.622 817.438 796.994 817.411C796.296 817.42 795.875 817.216 795.73 816.799C795.62 816.382 795.562 815.912 795.556 815.389Z" fill="#333333"/>
</svg>
