<svg width="1200" height="900" viewBox="0 0 1200 900" fill="none" xmlns="http://www.w3.org/2000/svg">
<g clip-path="url(#clip0_14_11169)">
<rect width="1200" height="900" fill="white"/>
<rect x="71" y="159" width="1038" height="8" fill="black"/>
<path d="M74.0657 141V105.727H87.9819C90.6457 105.727 92.9192 106.204 94.8022 107.157C96.6967 108.098 98.1377 109.436 99.1252 111.17C100.124 112.892 100.624 114.919 100.624 117.249C100.624 119.592 100.118 121.607 99.108 123.295C98.0975 124.971 96.6336 126.257 94.7161 127.153C92.8101 128.048 90.5022 128.496 87.7924 128.496H78.4748V122.502H86.5868C88.0106 122.502 89.1932 122.307 90.1348 121.917C91.0763 121.527 91.7767 120.941 92.236 120.16C92.7067 119.379 92.9421 118.409 92.9421 117.249C92.9421 116.078 92.7067 115.091 92.236 114.287C91.7767 113.483 91.0706 112.875 90.1175 112.461C89.176 112.037 87.9876 111.824 86.5524 111.824H81.5233V141H74.0657ZM93.1143 124.948L101.881 141H93.6483L85.0712 124.948H93.1143ZM115.841 141.517C113.12 141.517 110.778 140.966 108.814 139.863C106.862 138.75 105.358 137.176 104.302 135.144C103.246 133.1 102.717 130.683 102.717 127.893C102.717 125.172 103.246 122.784 104.302 120.729C105.358 118.673 106.845 117.071 108.763 115.923C110.692 114.775 112.954 114.201 115.548 114.201C117.294 114.201 118.918 114.482 120.423 115.045C121.938 115.596 123.259 116.429 124.384 117.542C125.521 118.656 126.405 120.057 127.036 121.745C127.668 123.421 127.984 125.384 127.984 127.635V129.65H105.645V125.103H121.077C121.077 124.047 120.847 123.111 120.388 122.296C119.929 121.481 119.292 120.843 118.476 120.384C117.673 119.913 116.737 119.678 115.669 119.678C114.555 119.678 113.568 119.936 112.707 120.453C111.857 120.958 111.191 121.641 110.709 122.502C110.227 123.352 109.98 124.299 109.968 125.344V129.667C109.968 130.976 110.209 132.107 110.692 133.06C111.185 134.013 111.88 134.748 112.776 135.265C113.671 135.781 114.733 136.04 115.962 136.04C116.777 136.04 117.523 135.925 118.201 135.695C118.878 135.466 119.458 135.121 119.94 134.662C120.423 134.203 120.79 133.64 121.043 132.974L127.829 133.422C127.484 135.052 126.778 136.476 125.71 137.693C124.654 138.899 123.287 139.84 121.611 140.518C119.946 141.184 118.023 141.517 115.841 141.517ZM143.18 141.517C140.47 141.517 138.139 140.943 136.187 139.794C134.247 138.635 132.754 137.027 131.709 134.972C130.676 132.917 130.159 130.551 130.159 127.876C130.159 125.166 130.682 122.79 131.726 120.746C132.783 118.69 134.281 117.089 136.222 115.941C138.162 114.781 140.47 114.201 143.145 114.201C145.453 114.201 147.474 114.62 149.208 115.458C150.942 116.296 152.314 117.473 153.324 118.989C154.334 120.505 154.891 122.284 154.995 124.328H148.071C147.876 123.008 147.359 121.946 146.521 121.142C145.694 120.327 144.609 119.919 143.266 119.919C142.129 119.919 141.136 120.229 140.286 120.849C139.448 121.458 138.794 122.347 138.323 123.519C137.852 124.69 137.617 126.108 137.617 127.773C137.617 129.461 137.846 130.896 138.306 132.078C138.776 133.261 139.437 134.162 140.286 134.782C141.136 135.403 142.129 135.713 143.266 135.713C144.104 135.713 144.856 135.54 145.522 135.196C146.199 134.851 146.756 134.352 147.193 133.697C147.64 133.031 147.933 132.233 148.071 131.303H154.995C154.88 133.324 154.329 135.104 153.341 136.643C152.365 138.17 151.016 139.364 149.294 140.225C147.572 141.086 145.534 141.517 143.18 141.517ZM165.691 141.499C164.003 141.499 162.499 141.207 161.179 140.621C159.858 140.024 158.814 139.146 158.044 137.986C157.287 136.815 156.908 135.357 156.908 133.611C156.908 132.142 157.177 130.907 157.717 129.908C158.257 128.909 158.992 128.106 159.922 127.497C160.852 126.889 161.908 126.429 163.091 126.119C164.285 125.809 165.536 125.591 166.845 125.465C168.384 125.304 169.624 125.155 170.565 125.017C171.507 124.868 172.19 124.65 172.615 124.363C173.04 124.076 173.252 123.651 173.252 123.088V122.985C173.252 121.894 172.908 121.05 172.219 120.453C171.541 119.856 170.577 119.557 169.325 119.557C168.005 119.557 166.954 119.85 166.174 120.436C165.393 121.01 164.876 121.733 164.624 122.606L157.838 122.055C158.182 120.447 158.86 119.058 159.87 117.887C160.88 116.704 162.184 115.797 163.78 115.165C165.387 114.522 167.247 114.201 169.36 114.201C170.83 114.201 172.236 114.373 173.579 114.718C174.934 115.062 176.134 115.596 177.179 116.319C178.235 117.043 179.068 117.973 179.676 119.11C180.285 120.235 180.589 121.584 180.589 123.157V141H173.631V137.331H173.424C173 138.158 172.431 138.887 171.719 139.519C171.008 140.139 170.152 140.627 169.153 140.983C168.154 141.327 167 141.499 165.691 141.499ZM167.793 136.436C168.872 136.436 169.825 136.223 170.652 135.799C171.478 135.362 172.127 134.777 172.598 134.042C173.069 133.307 173.304 132.475 173.304 131.545V128.737C173.074 128.886 172.759 129.024 172.357 129.151C171.966 129.265 171.524 129.374 171.03 129.478C170.537 129.57 170.043 129.656 169.549 129.736C169.056 129.805 168.608 129.868 168.206 129.926C167.345 130.052 166.593 130.253 165.95 130.528C165.307 130.804 164.807 131.177 164.451 131.648C164.095 132.107 163.917 132.681 163.917 133.37C163.917 134.369 164.279 135.133 165.002 135.661C165.737 136.178 166.667 136.436 167.793 136.436ZM184.737 150.92V114.545H191.971V118.989H192.298C192.619 118.277 193.084 117.554 193.693 116.819C194.313 116.073 195.117 115.453 196.104 114.959C197.103 114.454 198.343 114.201 199.824 114.201C201.753 114.201 203.533 114.706 205.163 115.717C206.794 116.716 208.097 118.225 209.073 120.246C210.049 122.256 210.537 124.776 210.537 127.807C210.537 130.758 210.06 133.25 209.107 135.282C208.166 137.303 206.88 138.836 205.249 139.881C203.631 140.914 201.816 141.431 199.807 141.431C198.383 141.431 197.172 141.195 196.173 140.724C195.185 140.254 194.376 139.662 193.745 138.95C193.113 138.227 192.631 137.498 192.298 136.763H192.074V150.92H184.737ZM191.919 127.773C191.919 129.346 192.137 130.718 192.573 131.889C193.01 133.06 193.641 133.973 194.468 134.627C195.295 135.27 196.299 135.592 197.482 135.592C198.676 135.592 199.686 135.265 200.513 134.61C201.34 133.944 201.966 133.026 202.39 131.855C202.827 130.672 203.045 129.311 203.045 127.773C203.045 126.246 202.833 124.902 202.408 123.743C201.983 122.583 201.357 121.676 200.53 121.021C199.704 120.367 198.688 120.04 197.482 120.04C196.288 120.04 195.277 120.355 194.451 120.987C193.635 121.618 193.01 122.514 192.573 123.674C192.137 124.833 191.919 126.2 191.919 127.773Z" fill="black"/>
<path d="M92.5266 256.291V298H83.7082V264.661H83.4639L73.9123 270.649V262.828L84.2377 256.291H92.5266ZM103.526 298.53C102.181 298.53 101.027 298.054 100.063 297.104C99.1129 296.14 98.6377 294.986 98.6377 293.642C98.6377 292.311 99.1129 291.171 100.063 290.22C101.027 289.27 102.181 288.795 103.526 288.795C104.829 288.795 105.969 289.27 106.947 290.22C107.925 291.171 108.413 292.311 108.413 293.642C108.413 294.538 108.182 295.359 107.721 296.106C107.273 296.839 106.682 297.43 105.949 297.878C105.216 298.312 104.408 298.53 103.526 298.53ZM123.359 298V256.291H132.178V274.681H132.728L147.737 256.291H158.307L142.829 274.966L158.49 298H147.941L136.516 280.852L132.178 286.147V298H123.359ZM179.01 284.681V266.718H187.686V298H179.357V292.318H179.031C178.325 294.151 177.15 295.624 175.507 296.737C173.878 297.851 171.889 298.407 169.54 298.407C167.449 298.407 165.61 297.932 164.021 296.982C162.433 296.031 161.19 294.68 160.294 292.929C159.412 291.177 158.964 289.08 158.95 286.636V266.718H167.626V285.088C167.639 286.935 168.135 288.394 169.113 289.467C170.09 290.539 171.4 291.076 173.043 291.076C174.089 291.076 175.066 290.838 175.976 290.363C176.886 289.874 177.619 289.154 178.175 288.204C178.746 287.254 179.024 286.079 179.01 284.681ZM192.962 298V256.291H201.638V271.973H201.903C202.283 271.131 202.833 270.275 203.552 269.406C204.286 268.524 205.236 267.791 206.404 267.207C207.585 266.61 209.051 266.311 210.803 266.311C213.084 266.311 215.188 266.908 217.116 268.103C219.044 269.284 220.585 271.07 221.739 273.459C222.893 275.835 223.47 278.815 223.47 282.4C223.47 285.889 222.907 288.835 221.78 291.239C220.667 293.628 219.146 295.441 217.218 296.676C215.304 297.898 213.158 298.509 210.782 298.509C209.099 298.509 207.666 298.231 206.485 297.674C205.318 297.117 204.36 296.418 203.614 295.576C202.867 294.721 202.297 293.859 201.903 292.99H201.516V298H192.962ZM201.455 282.359C201.455 284.219 201.713 285.842 202.229 287.227C202.745 288.611 203.491 289.691 204.469 290.465C205.446 291.225 206.634 291.605 208.033 291.605C209.445 291.605 210.64 291.218 211.617 290.444C212.595 289.657 213.335 288.571 213.837 287.186C214.353 285.787 214.611 284.178 214.611 282.359C214.611 280.553 214.36 278.965 213.858 277.593C213.355 276.222 212.615 275.15 211.638 274.376C210.66 273.602 209.459 273.215 208.033 273.215C206.621 273.215 205.426 273.588 204.449 274.335C203.485 275.082 202.745 276.141 202.229 277.512C201.713 278.883 201.455 280.499 201.455 282.359ZM241.689 298.611C238.471 298.611 235.701 297.959 233.38 296.656C231.071 295.339 229.293 293.479 228.044 291.076C226.795 288.659 226.17 285.801 226.17 282.502C226.17 279.284 226.795 276.46 228.044 274.029C229.293 271.599 231.051 269.705 233.318 268.347C235.599 266.99 238.274 266.311 241.343 266.311C243.406 266.311 245.327 266.644 247.106 267.309C248.898 267.96 250.46 268.945 251.79 270.262C253.134 271.579 254.18 273.235 254.927 275.231C255.673 277.213 256.047 279.535 256.047 282.196V284.579H229.632V279.202H247.88C247.88 277.953 247.608 276.847 247.065 275.883C246.522 274.919 245.769 274.165 244.805 273.622C243.854 273.066 242.748 272.787 241.485 272.787C240.168 272.787 239 273.093 237.982 273.704C236.977 274.301 236.19 275.109 235.62 276.127C235.05 277.132 234.758 278.252 234.744 279.488V284.599C234.744 286.147 235.029 287.484 235.599 288.611C236.183 289.738 237.005 290.607 238.064 291.218C239.123 291.829 240.379 292.135 241.831 292.135C242.795 292.135 243.678 291.999 244.479 291.727C245.28 291.456 245.966 291.048 246.536 290.505C247.106 289.962 247.541 289.297 247.839 288.51L255.863 289.039C255.456 290.967 254.621 292.651 253.358 294.09C252.109 295.515 250.494 296.629 248.511 297.43C246.543 298.217 244.268 298.611 241.689 298.611ZM259.882 298V266.718H268.293V272.176H268.619C269.189 270.235 270.146 268.768 271.49 267.777C272.835 266.772 274.382 266.27 276.134 266.27C276.568 266.27 277.037 266.297 277.539 266.352C278.041 266.406 278.483 266.481 278.863 266.576V274.274C278.455 274.152 277.892 274.043 277.172 273.948C276.453 273.853 275.794 273.805 275.197 273.805C273.921 273.805 272.78 274.084 271.775 274.64C270.784 275.184 269.997 275.944 269.413 276.921C268.843 277.899 268.558 279.026 268.558 280.302V298H259.882ZM290.198 279.915V298H281.522V266.718H289.79V272.237H290.157C290.849 270.418 292.01 268.979 293.64 267.92C295.269 266.847 297.244 266.311 299.566 266.311C301.738 266.311 303.632 266.786 305.248 267.736C306.864 268.687 308.12 270.045 309.016 271.81C309.912 273.561 310.36 275.652 310.36 278.082V298H301.684V279.63C301.698 277.716 301.209 276.222 300.218 275.15C299.227 274.063 297.862 273.52 296.124 273.52C294.957 273.52 293.925 273.772 293.029 274.274C292.146 274.776 291.454 275.509 290.951 276.473C290.462 277.424 290.211 278.571 290.198 279.915ZM329.627 298.611C326.409 298.611 323.64 297.959 321.318 296.656C319.01 295.339 317.231 293.479 315.982 291.076C314.733 288.659 314.109 285.801 314.109 282.502C314.109 279.284 314.733 276.46 315.982 274.029C317.231 271.599 318.99 269.705 321.257 268.347C323.538 266.99 326.213 266.311 329.281 266.311C331.345 266.311 333.266 266.644 335.045 267.309C336.837 267.96 338.398 268.945 339.729 270.262C341.073 271.579 342.118 273.235 342.865 275.231C343.612 277.213 343.985 279.535 343.985 282.196V284.579H317.571V279.202H335.818C335.818 277.953 335.547 276.847 335.004 275.883C334.461 274.919 333.707 274.165 332.743 273.622C331.793 273.066 330.686 272.787 329.424 272.787C328.107 272.787 326.939 273.093 325.921 273.704C324.916 274.301 324.128 275.109 323.558 276.127C322.988 277.132 322.696 278.252 322.683 279.488V284.599C322.683 286.147 322.968 287.484 323.538 288.611C324.122 289.738 324.943 290.607 326.002 291.218C327.061 291.829 328.317 292.135 329.77 292.135C330.734 292.135 331.616 291.999 332.417 291.727C333.218 291.456 333.904 291.048 334.474 290.505C335.045 289.962 335.479 289.297 335.778 288.51L343.802 289.039C343.395 290.967 342.56 292.651 341.297 294.09C340.048 295.515 338.432 296.629 336.45 297.43C334.481 298.217 332.207 298.611 329.627 298.611ZM347.82 298V266.718H356.231V272.176H356.557C357.128 270.235 358.085 268.768 359.429 267.777C360.773 266.772 362.321 266.27 364.072 266.27C364.507 266.27 364.975 266.297 365.477 266.352C365.98 266.406 366.421 266.481 366.801 266.576V274.274C366.394 274.152 365.83 274.043 365.111 273.948C364.391 273.853 363.733 273.805 363.135 273.805C361.859 273.805 360.719 274.084 359.714 274.64C358.723 275.184 357.935 275.944 357.352 276.921C356.781 277.899 356.496 279.026 356.496 280.302V298H347.82ZM382.26 298.611C379.042 298.611 376.273 297.959 373.951 296.656C371.643 295.339 369.864 293.479 368.615 291.076C367.366 288.659 366.742 285.801 366.742 282.502C366.742 279.284 367.366 276.46 368.615 274.029C369.864 271.599 371.623 269.705 373.89 268.347C376.171 266.99 378.846 266.311 381.914 266.311C383.978 266.311 385.899 266.644 387.678 267.309C389.47 267.96 391.031 268.945 392.362 270.262C393.706 271.579 394.751 273.235 395.498 275.231C396.245 277.213 396.618 279.535 396.618 282.196V284.579H370.204V279.202H388.451C388.451 277.953 388.18 276.847 387.637 275.883C387.094 274.919 386.34 274.165 385.376 273.622C384.426 273.066 383.319 272.787 382.057 272.787C380.74 272.787 379.572 273.093 378.554 273.704C377.549 274.301 376.762 275.109 376.191 276.127C375.621 277.132 375.329 278.252 375.316 279.488V284.599C375.316 286.147 375.601 287.484 376.171 288.611C376.755 289.738 377.576 290.607 378.635 291.218C379.694 291.829 380.95 292.135 382.403 292.135C383.367 292.135 384.249 291.999 385.05 291.727C385.851 291.456 386.537 291.048 387.107 290.505C387.678 289.962 388.112 289.297 388.411 288.51L396.435 289.039C396.028 290.967 395.193 292.651 393.93 294.09C392.681 295.515 391.065 296.629 389.083 297.43C387.114 298.217 384.84 298.611 382.26 298.611ZM426.481 275.638L418.538 276.127C418.402 275.448 418.111 274.837 417.662 274.294C417.214 273.738 416.624 273.296 415.891 272.97C415.171 272.631 414.309 272.461 413.304 272.461C411.96 272.461 410.826 272.746 409.903 273.317C408.98 273.873 408.518 274.62 408.518 275.557C408.518 276.304 408.817 276.935 409.414 277.451C410.012 277.967 411.037 278.381 412.49 278.693L418.151 279.834C421.193 280.458 423.46 281.463 424.953 282.848C426.447 284.233 427.194 286.052 427.194 288.306C427.194 290.356 426.589 292.155 425.381 293.703C424.186 295.251 422.543 296.459 420.453 297.328C418.375 298.183 415.979 298.611 413.263 298.611C409.122 298.611 405.823 297.749 403.366 296.025C400.922 294.287 399.489 291.924 399.069 288.937L407.602 288.489C407.86 289.752 408.484 290.716 409.475 291.381C410.467 292.033 411.736 292.359 413.284 292.359C414.804 292.359 416.026 292.067 416.95 291.483C417.886 290.886 418.362 290.118 418.375 289.182C418.362 288.394 418.029 287.749 417.377 287.247C416.726 286.731 415.721 286.337 414.363 286.066L408.946 284.986C405.891 284.375 403.617 283.316 402.123 281.809C400.643 280.302 399.904 278.381 399.904 276.046C399.904 274.036 400.447 272.305 401.533 270.852C402.633 269.4 404.174 268.28 406.156 267.492C408.152 266.705 410.487 266.311 413.162 266.311C417.113 266.311 420.222 267.146 422.489 268.816C424.77 270.486 426.101 272.76 426.481 275.638ZM444.192 281.28C444.192 276.229 444.864 271.579 446.208 267.329C447.566 263.079 449.636 259.142 452.419 255.517H460.708C459.649 256.861 458.665 258.504 457.755 260.446C456.846 262.373 456.051 264.492 455.372 266.8C454.694 269.108 454.164 271.497 453.784 273.968C453.404 276.426 453.214 278.863 453.214 281.28C453.214 284.497 453.54 287.749 454.191 291.035C454.857 294.307 455.753 297.348 456.88 300.159C458.02 302.969 459.296 305.271 460.708 307.063H452.419C449.636 303.438 447.566 299.5 446.208 295.251C444.864 291.001 444.192 286.344 444.192 281.28ZM472.593 279.915V298H463.917V266.718H472.186V272.237H472.552C473.245 270.418 474.406 268.979 476.035 267.92C477.664 266.847 479.64 266.311 481.961 266.311C484.134 266.311 486.028 266.786 487.643 267.736C489.259 268.687 490.515 270.045 491.411 271.81C492.307 273.561 492.755 275.652 492.755 278.082V298H484.079V279.63C484.093 277.716 483.604 276.222 482.613 275.15C481.622 274.063 480.257 273.52 478.52 273.52C477.352 273.52 476.32 273.772 475.424 274.274C474.541 274.776 473.849 275.509 473.347 276.473C472.858 277.424 472.607 278.571 472.593 279.915ZM511.9 298.611C508.737 298.611 506.001 297.939 503.693 296.595C501.398 295.237 499.627 293.35 498.378 290.933C497.128 288.503 496.504 285.685 496.504 282.481C496.504 279.25 497.128 276.426 498.378 274.009C499.627 271.579 501.398 269.692 503.693 268.347C506.001 266.99 508.737 266.311 511.9 266.311C515.064 266.311 517.793 266.99 520.087 268.347C522.396 269.692 524.174 271.579 525.423 274.009C526.672 276.426 527.297 279.25 527.297 282.481C527.297 285.685 526.672 288.503 525.423 290.933C524.174 293.35 522.396 295.237 520.087 296.595C517.793 297.939 515.064 298.611 511.9 298.611ZM511.941 291.89C513.38 291.89 514.582 291.483 515.546 290.668C516.51 289.84 517.236 288.713 517.725 287.288C518.227 285.862 518.479 284.24 518.479 282.42C518.479 280.601 518.227 278.978 517.725 277.553C517.236 276.127 516.51 275 515.546 274.172C514.582 273.344 513.38 272.93 511.941 272.93C510.488 272.93 509.266 273.344 508.275 274.172C507.298 275 506.558 276.127 506.055 277.553C505.567 278.978 505.322 280.601 505.322 282.42C505.322 284.24 505.567 285.862 506.055 287.288C506.558 288.713 507.298 289.84 508.275 290.668C509.266 291.483 510.488 291.89 511.941 291.89ZM547.751 266.718V273.235H528.912V266.718H547.751ZM533.189 259.224H541.865V288.387C541.865 289.188 541.987 289.813 542.232 290.261C542.476 290.695 542.815 291.001 543.25 291.177C543.698 291.354 544.214 291.442 544.798 291.442C545.205 291.442 545.612 291.408 546.02 291.34C546.427 291.259 546.739 291.198 546.956 291.157L548.321 297.613C547.886 297.749 547.276 297.905 546.488 298.081C545.701 298.272 544.743 298.387 543.616 298.428C541.526 298.509 539.693 298.231 538.118 297.593C536.556 296.955 535.341 295.963 534.472 294.619C533.603 293.275 533.176 291.578 533.189 289.528V259.224ZM566.198 281.28C566.198 286.344 565.52 291.001 564.162 295.251C562.818 299.5 560.754 303.438 557.971 307.063H549.682C550.741 305.719 551.725 304.076 552.635 302.134C553.544 300.193 554.339 298.075 555.018 295.78C555.696 293.472 556.226 291.082 556.606 288.611C556.986 286.14 557.176 283.696 557.176 281.28C557.176 278.062 556.844 274.817 556.178 271.545C555.527 268.259 554.631 265.218 553.49 262.421C552.363 259.611 551.094 257.309 549.682 255.517H557.971C560.754 259.142 562.818 263.079 564.162 267.329C565.52 271.579 566.198 276.229 566.198 281.28ZM584.663 298V266.718H593.074V272.176H593.4C593.97 270.235 594.927 268.768 596.271 267.777C597.615 266.772 599.163 266.27 600.915 266.27C601.349 266.27 601.818 266.297 602.32 266.352C602.822 266.406 603.263 266.481 603.644 266.576V274.274C603.236 274.152 602.673 274.043 601.953 273.948C601.234 273.853 600.575 273.805 599.978 273.805C598.702 273.805 597.561 274.084 596.556 274.64C595.565 275.184 594.778 275.944 594.194 276.921C593.624 277.899 593.339 279.026 593.339 280.302V298H584.663ZM619.103 298.611C615.885 298.611 613.115 297.959 610.793 296.656C608.485 295.339 606.707 293.479 605.458 291.076C604.208 288.659 603.584 285.801 603.584 282.502C603.584 279.284 604.208 276.46 605.458 274.029C606.707 271.599 608.465 269.705 610.732 268.347C613.013 266.99 615.688 266.311 618.756 266.311C620.82 266.311 622.741 266.644 624.52 267.309C626.312 267.96 627.873 268.945 629.204 270.262C630.548 271.579 631.594 273.235 632.34 275.231C633.087 277.213 633.46 279.535 633.46 282.196V284.579H607.046V279.202H625.294C625.294 277.953 625.022 276.847 624.479 275.883C623.936 274.919 623.183 274.165 622.219 273.622C621.268 273.066 620.162 272.787 618.899 272.787C617.582 272.787 616.414 273.093 615.396 273.704C614.391 274.301 613.604 275.109 613.034 276.127C612.463 277.132 612.171 278.252 612.158 279.488V284.599C612.158 286.147 612.443 287.484 613.013 288.611C613.597 289.738 614.418 290.607 615.478 291.218C616.537 291.829 617.792 292.135 619.245 292.135C620.209 292.135 621.092 291.999 621.893 291.727C622.694 291.456 623.379 291.048 623.95 290.505C624.52 289.962 624.954 289.297 625.253 288.51L633.277 289.039C632.87 290.967 632.035 292.651 630.772 294.09C629.523 295.515 627.907 296.629 625.925 297.43C623.956 298.217 621.682 298.611 619.103 298.611ZM637.459 298V256.291H646.134V271.973H646.399C646.779 271.131 647.329 270.275 648.049 269.406C648.782 268.524 649.732 267.791 650.9 267.207C652.081 266.61 653.548 266.311 655.299 266.311C657.58 266.311 659.685 266.908 661.612 268.103C663.54 269.284 665.081 271.07 666.235 273.459C667.39 275.835 667.967 278.815 667.967 282.4C667.967 285.889 667.403 288.835 666.276 291.239C665.163 293.628 663.642 295.441 661.714 296.676C659.8 297.898 657.655 298.509 655.279 298.509C653.595 298.509 652.163 298.231 650.982 297.674C649.814 297.117 648.857 296.418 648.11 295.576C647.363 294.721 646.793 293.859 646.399 292.99H646.012V298H637.459ZM645.951 282.359C645.951 284.219 646.209 285.842 646.725 287.227C647.241 288.611 647.988 289.691 648.965 290.465C649.943 291.225 651.131 291.605 652.529 291.605C653.941 291.605 655.136 291.218 656.114 290.444C657.091 289.657 657.831 288.571 658.334 287.186C658.85 285.787 659.107 284.178 659.107 282.359C659.107 280.553 658.856 278.965 658.354 277.593C657.852 276.222 657.112 275.15 656.134 274.376C655.157 273.602 653.955 273.215 652.529 273.215C651.117 273.215 649.923 273.588 648.945 274.335C647.981 275.082 647.241 276.141 646.725 277.512C646.209 278.883 645.951 280.499 645.951 282.359ZM680.849 298.591C678.854 298.591 677.075 298.244 675.514 297.552C673.952 296.846 672.717 295.807 671.807 294.436C670.911 293.051 670.463 291.327 670.463 289.263C670.463 287.525 670.782 286.066 671.42 284.884C672.058 283.703 672.927 282.753 674.027 282.033C675.127 281.314 676.376 280.771 677.774 280.404C679.186 280.037 680.666 279.779 682.214 279.63C684.033 279.44 685.5 279.263 686.613 279.101C687.726 278.924 688.534 278.666 689.036 278.327C689.539 277.987 689.79 277.485 689.79 276.82V276.697C689.79 275.408 689.383 274.41 688.568 273.704C687.767 272.998 686.626 272.645 685.147 272.645C683.585 272.645 682.343 272.991 681.42 273.683C680.496 274.362 679.885 275.217 679.587 276.249L671.563 275.598C671.97 273.697 672.771 272.054 673.966 270.669C675.161 269.271 676.702 268.198 678.589 267.451C680.49 266.691 682.689 266.311 685.187 266.311C686.925 266.311 688.588 266.515 690.177 266.922C691.779 267.329 693.198 267.96 694.433 268.816C695.682 269.671 696.667 270.771 697.386 272.115C698.106 273.446 698.466 275.041 698.466 276.901V298H690.238V293.662H689.994C689.491 294.64 688.819 295.502 687.977 296.249C687.136 296.982 686.124 297.559 684.943 297.98C683.762 298.387 682.397 298.591 680.849 298.591ZM683.334 292.603C684.61 292.603 685.737 292.352 686.715 291.85C687.692 291.334 688.459 290.641 689.016 289.772C689.573 288.903 689.851 287.919 689.851 286.819V283.5C689.579 283.676 689.206 283.839 688.731 283.988C688.269 284.124 687.747 284.253 687.163 284.375C686.579 284.484 685.995 284.586 685.411 284.681C684.827 284.762 684.298 284.837 683.823 284.905C682.804 285.054 681.915 285.292 681.155 285.618C680.395 285.943 679.804 286.385 679.383 286.941C678.962 287.484 678.752 288.163 678.752 288.978C678.752 290.159 679.179 291.062 680.035 291.687C680.904 292.298 682.003 292.603 683.334 292.603ZM712.046 256.291V298H703.37V256.291H712.046ZM726.09 298.591C724.094 298.591 722.315 298.244 720.754 297.552C719.192 296.846 717.957 295.807 717.047 294.436C716.151 293.051 715.703 291.327 715.703 289.263C715.703 287.525 716.022 286.066 716.66 284.884C717.298 283.703 718.167 282.753 719.267 282.033C720.367 281.314 721.616 280.771 723.014 280.404C724.426 280.037 725.906 279.779 727.454 279.63C729.273 279.44 730.74 279.263 731.853 279.101C732.966 278.924 733.774 278.666 734.277 278.327C734.779 277.987 735.03 277.485 735.03 276.82V276.697C735.03 275.408 734.623 274.41 733.808 273.704C733.007 272.998 731.867 272.645 730.387 272.645C728.825 272.645 727.583 272.991 726.66 273.683C725.737 274.362 725.126 275.217 724.827 276.249L716.803 275.598C717.21 273.697 718.011 272.054 719.206 270.669C720.401 269.271 721.942 268.198 723.829 267.451C725.73 266.691 727.929 266.311 730.428 266.311C732.165 266.311 733.829 266.515 735.417 266.922C737.019 267.329 738.438 267.96 739.674 268.816C740.923 269.671 741.907 270.771 742.627 272.115C743.346 273.446 743.706 275.041 743.706 276.901V298H735.478V293.662H735.234C734.731 294.64 734.059 295.502 733.218 296.249C732.376 296.982 731.364 297.559 730.183 297.98C729.002 298.387 727.637 298.591 726.09 298.591ZM728.574 292.603C729.85 292.603 730.977 292.352 731.955 291.85C732.932 291.334 733.7 290.641 734.256 289.772C734.813 288.903 735.091 287.919 735.091 286.819V283.5C734.82 283.676 734.446 283.839 733.971 283.988C733.51 284.124 732.987 284.253 732.403 284.375C731.819 284.484 731.235 284.586 730.652 284.681C730.068 284.762 729.538 284.837 729.063 284.905C728.045 285.054 727.155 285.292 726.395 285.618C725.635 285.943 725.044 286.385 724.623 286.941C724.202 287.484 723.992 288.163 723.992 288.978C723.992 290.159 724.42 291.062 725.275 291.687C726.144 292.298 727.244 292.603 728.574 292.603ZM757.286 279.915V298H748.61V266.718H756.879V272.237H757.246C757.938 270.418 759.099 268.979 760.728 267.92C762.357 266.847 764.333 266.311 766.655 266.311C768.827 266.311 770.721 266.786 772.337 267.736C773.952 268.687 775.208 270.045 776.104 271.81C777 273.561 777.448 275.652 777.448 278.082V298H768.773V279.63C768.786 277.716 768.297 276.222 767.306 275.15C766.315 274.063 764.951 273.52 763.213 273.52C762.045 273.52 761.013 273.772 760.117 274.274C759.235 274.776 758.542 275.509 758.04 276.473C757.551 277.424 757.3 278.571 757.286 279.915ZM796.594 298.611C793.389 298.611 790.633 297.932 788.325 296.574C786.031 295.203 784.266 293.302 783.03 290.872C781.808 288.442 781.197 285.645 781.197 282.481C781.197 279.277 781.815 276.467 783.05 274.05C784.299 271.62 786.071 269.726 788.366 268.368C790.66 266.997 793.389 266.311 796.553 266.311C799.282 266.311 801.671 266.806 803.722 267.798C805.772 268.789 807.394 270.18 808.589 271.973C809.784 273.765 810.442 275.869 810.564 278.286H802.377C802.147 276.725 801.536 275.469 800.545 274.518C799.567 273.554 798.284 273.072 796.695 273.072C795.351 273.072 794.177 273.439 793.172 274.172C792.181 274.892 791.407 275.944 790.85 277.329C790.294 278.714 790.015 280.39 790.015 282.359C790.015 284.355 790.287 286.052 790.83 287.451C791.387 288.849 792.167 289.915 793.172 290.648C794.177 291.381 795.351 291.748 796.695 291.748C797.687 291.748 798.576 291.544 799.363 291.137C800.164 290.729 800.823 290.139 801.339 289.365C801.868 288.577 802.215 287.634 802.377 286.534H810.564C810.429 288.924 809.777 291.028 808.609 292.847C807.455 294.653 805.86 296.065 803.823 297.084C801.787 298.102 799.377 298.611 796.594 298.611ZM814.293 298V266.718H822.969V298H814.293ZM818.651 262.686C817.361 262.686 816.255 262.258 815.331 261.403C814.422 260.534 813.967 259.495 813.967 258.287C813.967 257.092 814.422 256.067 815.331 255.212C816.255 254.343 817.361 253.908 818.651 253.908C819.941 253.908 821.041 254.343 821.95 255.212C822.874 256.067 823.335 257.092 823.335 258.287C823.335 259.495 822.874 260.534 821.95 261.403C821.041 262.258 819.941 262.686 818.651 262.686ZM836.768 279.915V298H828.092V266.718H836.361V272.237H836.727C837.42 270.418 838.58 268.979 840.21 267.92C841.839 266.847 843.814 266.311 846.136 266.311C848.308 266.311 850.202 266.786 851.818 267.736C853.434 268.687 854.69 270.045 855.586 271.81C856.482 273.561 856.93 275.652 856.93 278.082V298H848.254V279.63C848.268 277.716 847.779 276.222 846.788 275.15C845.797 274.063 844.432 273.52 842.694 273.52C841.527 273.52 840.495 273.772 839.599 274.274C838.716 274.776 838.024 275.509 837.521 276.473C837.033 277.424 836.781 278.571 836.768 279.915ZM876.034 310.382C873.224 310.382 870.814 309.995 868.805 309.222C866.809 308.461 865.22 307.423 864.039 306.106C862.858 304.789 862.091 303.309 861.738 301.666L869.762 300.586C870.006 301.211 870.393 301.795 870.923 302.338C871.452 302.881 872.151 303.315 873.02 303.641C873.903 303.981 874.975 304.15 876.238 304.15C878.125 304.15 879.68 303.689 880.902 302.766C882.137 301.856 882.755 300.328 882.755 298.183V292.461H882.389C882.008 293.329 881.438 294.151 880.678 294.925C879.917 295.699 878.94 296.33 877.745 296.819C876.55 297.308 875.125 297.552 873.468 297.552C871.119 297.552 868.981 297.009 867.053 295.923C865.139 294.823 863.611 293.146 862.471 290.892C861.344 288.625 860.78 285.76 860.78 282.298C860.78 278.754 861.357 275.795 862.512 273.419C863.666 271.043 865.2 269.264 867.114 268.083C869.042 266.901 871.153 266.311 873.448 266.311C875.199 266.311 876.666 266.61 877.847 267.207C879.028 267.791 879.979 268.524 880.698 269.406C881.431 270.275 881.995 271.131 882.389 271.973H882.714V266.718H891.329V298.305C891.329 300.967 890.677 303.193 889.374 304.985C888.071 306.778 886.265 308.122 883.957 309.018C881.662 309.928 879.021 310.382 876.034 310.382ZM876.218 291.035C877.616 291.035 878.797 290.689 879.761 289.996C880.739 289.29 881.486 288.286 882.002 286.982C882.531 285.665 882.796 284.09 882.796 282.257C882.796 280.424 882.538 278.836 882.022 277.492C881.506 276.134 880.759 275.082 879.782 274.335C878.804 273.588 877.616 273.215 876.218 273.215C874.792 273.215 873.591 273.602 872.613 274.376C871.635 275.136 870.895 276.195 870.393 277.553C869.891 278.91 869.64 280.479 869.64 282.257C869.64 284.063 869.891 285.624 870.393 286.941C870.909 288.245 871.649 289.256 872.613 289.976C873.591 290.682 874.792 291.035 876.218 291.035ZM907.854 309.731V266.718H916.407V271.973H916.794C917.174 271.131 917.724 270.275 918.444 269.406C919.177 268.524 920.127 267.791 921.295 267.207C922.476 266.61 923.943 266.311 925.694 266.311C927.975 266.311 930.08 266.908 932.007 268.103C933.935 269.284 935.476 271.07 936.63 273.459C937.785 275.835 938.362 278.815 938.362 282.4C938.362 285.889 937.798 288.835 936.671 291.239C935.558 293.628 934.037 295.441 932.109 296.676C930.195 297.898 928.05 298.509 925.674 298.509C923.99 298.509 922.558 298.231 921.377 297.674C920.209 297.117 919.252 296.418 918.505 295.576C917.758 294.721 917.188 293.859 916.794 292.99H916.529V309.731H907.854ZM916.346 282.359C916.346 284.219 916.604 285.842 917.12 287.227C917.636 288.611 918.383 289.691 919.36 290.465C920.338 291.225 921.526 291.605 922.924 291.605C924.336 291.605 925.531 291.218 926.509 290.444C927.486 289.657 928.226 288.571 928.729 287.186C929.245 285.787 929.502 284.178 929.502 282.359C929.502 280.553 929.251 278.965 928.749 277.593C928.247 276.222 927.507 275.15 926.529 274.376C925.552 273.602 924.35 273.215 922.924 273.215C921.512 273.215 920.318 273.588 919.34 274.335C918.376 275.082 917.636 276.141 917.12 277.512C916.604 278.883 916.346 280.499 916.346 282.359ZM956.453 298.611C953.289 298.611 950.554 297.939 948.245 296.595C945.951 295.237 944.179 293.35 942.93 290.933C941.681 288.503 941.056 285.685 941.056 282.481C941.056 279.25 941.681 276.426 942.93 274.009C944.179 271.579 945.951 269.692 948.245 268.347C950.554 266.99 953.289 266.311 956.453 266.311C959.616 266.311 962.345 266.99 964.64 268.347C966.948 269.692 968.727 271.579 969.976 274.009C971.225 276.426 971.849 279.25 971.849 282.481C971.849 285.685 971.225 288.503 969.976 290.933C968.727 293.35 966.948 295.237 964.64 296.595C962.345 297.939 959.616 298.611 956.453 298.611ZM956.494 291.89C957.933 291.89 959.134 291.483 960.098 290.668C961.062 289.84 961.789 288.713 962.277 287.288C962.78 285.862 963.031 284.24 963.031 282.42C963.031 280.601 962.78 278.978 962.277 277.553C961.789 276.127 961.062 275 960.098 274.172C959.134 273.344 957.933 272.93 956.494 272.93C955.041 272.93 953.819 273.344 952.828 274.172C951.85 275 951.11 276.127 950.608 277.553C950.119 278.978 949.875 280.601 949.875 282.42C949.875 284.24 950.119 285.862 950.608 287.288C951.11 288.713 951.85 289.84 952.828 290.668C953.819 291.483 955.041 291.89 956.494 291.89ZM987.191 298.509C984.815 298.509 982.663 297.898 980.735 296.676C978.821 295.441 977.3 293.628 976.173 291.239C975.06 288.835 974.503 285.889 974.503 282.4C974.503 278.815 975.08 275.835 976.235 273.459C977.389 271.07 978.923 269.284 980.837 268.103C982.765 266.908 984.876 266.311 987.171 266.311C988.922 266.311 990.382 266.61 991.55 267.207C992.731 267.791 993.681 268.524 994.401 269.406C995.134 270.275 995.691 271.131 996.071 271.973H996.336V256.291H1004.99V298H996.437V292.99H996.071C995.663 293.859 995.086 294.721 994.34 295.576C993.607 296.418 992.649 297.117 991.468 297.674C990.3 298.231 988.875 298.509 987.191 298.509ZM989.941 291.605C991.339 291.605 992.52 291.225 993.484 290.465C994.462 289.691 995.209 288.611 995.725 287.227C996.254 285.842 996.519 284.219 996.519 282.359C996.519 280.499 996.261 278.883 995.745 277.512C995.229 276.141 994.482 275.082 993.505 274.335C992.527 273.588 991.339 273.215 989.941 273.215C988.515 273.215 987.313 273.602 986.336 274.376C985.358 275.15 984.618 276.222 984.116 277.593C983.614 278.965 983.363 280.553 983.363 282.359C983.363 284.178 983.614 285.787 984.116 287.186C984.632 288.571 985.372 289.657 986.336 290.444C987.313 291.218 988.515 291.605 989.941 291.605ZM1036.33 275.638L1028.38 276.127C1028.25 275.448 1027.95 274.837 1027.51 274.294C1027.06 273.738 1026.47 273.296 1025.73 272.97C1025.02 272.631 1024.15 272.461 1023.15 272.461C1021.8 272.461 1020.67 272.746 1019.75 273.317C1018.82 273.873 1018.36 274.62 1018.36 275.557C1018.36 276.304 1018.66 276.935 1019.26 277.451C1019.86 277.967 1020.88 278.381 1022.33 278.693L1028 279.834C1031.04 280.458 1033.3 281.463 1034.8 282.848C1036.29 284.233 1037.04 286.052 1037.04 288.306C1037.04 290.356 1036.43 292.155 1035.23 293.703C1034.03 295.251 1032.39 296.459 1030.3 297.328C1028.22 298.183 1025.82 298.611 1023.11 298.611C1018.97 298.611 1015.67 297.749 1013.21 296.025C1010.77 294.287 1009.33 291.924 1008.91 288.937L1017.45 288.489C1017.7 289.752 1018.33 290.716 1019.32 291.381C1020.31 292.033 1021.58 292.359 1023.13 292.359C1024.65 292.359 1025.87 292.067 1026.79 291.483C1027.73 290.886 1028.21 290.118 1028.22 289.182C1028.21 288.394 1027.87 287.749 1027.22 287.247C1026.57 286.731 1025.57 286.337 1024.21 286.066L1018.79 284.986C1015.74 284.375 1013.46 283.316 1011.97 281.809C1010.49 280.302 1009.75 278.381 1009.75 276.046C1009.75 274.036 1010.29 272.305 1011.38 270.852C1012.48 269.4 1014.02 268.28 1016 267.492C1018 266.705 1020.33 266.311 1023.01 266.311C1026.96 266.311 1030.07 267.146 1032.33 268.816C1034.61 270.486 1035.94 272.76 1036.33 275.638Z" fill="#D2D2D2"/>
<path d="M74.3807 418V411.646L89.2274 397.899C90.49 396.677 91.5491 395.577 92.4044 394.6C93.2734 393.622 93.9319 392.665 94.3799 391.728C94.8279 390.778 95.052 389.753 95.052 388.653C95.052 387.431 94.7736 386.379 94.217 385.496C93.6603 384.6 92.9 383.914 91.936 383.439C90.972 382.951 89.8791 382.706 88.6571 382.706C87.3809 382.706 86.2675 382.964 85.3171 383.48C84.3667 383.996 83.6336 384.736 83.1176 385.7C82.6017 386.664 82.3437 387.811 82.3437 389.142H73.9734C73.9734 386.413 74.5912 384.043 75.8267 382.034C77.0622 380.025 78.7933 378.47 81.02 377.37C83.2466 376.271 85.8127 375.721 88.7182 375.721C91.7052 375.721 94.3052 376.25 96.5183 377.309C98.745 378.355 100.476 379.807 101.712 381.667C102.947 383.528 103.565 385.659 103.565 388.062C103.565 389.637 103.253 391.192 102.628 392.726C102.017 394.26 100.924 395.964 99.3491 397.838C97.7742 399.698 95.5543 401.931 92.6895 404.538L86.6002 410.505V410.791H104.115V418H74.3807ZM113.831 418.53C112.486 418.53 111.332 418.054 110.368 417.104C109.418 416.14 108.943 414.986 108.943 413.642C108.943 412.311 109.418 411.171 110.368 410.22C111.332 409.27 112.486 408.795 113.831 408.795C115.134 408.795 116.274 409.27 117.252 410.22C118.23 411.171 118.718 412.311 118.718 413.642C118.718 414.538 118.488 415.359 118.026 416.106C117.578 416.839 116.987 417.43 116.254 417.878C115.521 418.312 114.713 418.53 113.831 418.53ZM148.45 418H133.665V376.291H148.572C152.768 376.291 156.379 377.126 159.407 378.796C162.435 380.452 164.763 382.835 166.392 385.944C168.035 389.053 168.857 392.774 168.857 397.105C168.857 401.449 168.035 405.183 166.392 408.306C164.763 411.429 162.421 413.825 159.366 415.495C156.325 417.165 152.686 418 148.45 418ZM142.483 410.444H148.084C150.69 410.444 152.883 409.983 154.662 409.059C156.454 408.123 157.798 406.677 158.694 404.722C159.604 402.753 160.059 400.214 160.059 397.105C160.059 394.023 159.604 391.504 158.694 389.549C157.798 387.594 156.461 386.155 154.682 385.231C152.903 384.308 150.711 383.847 148.104 383.847H142.483V410.444ZM187.656 418.611C184.438 418.611 181.668 417.959 179.346 416.656C177.038 415.339 175.26 413.479 174.011 411.076C172.761 408.659 172.137 405.801 172.137 402.502C172.137 399.284 172.761 396.46 174.011 394.029C175.26 391.599 177.018 389.705 179.285 388.347C181.566 386.99 184.241 386.311 187.309 386.311C189.373 386.311 191.294 386.644 193.073 387.309C194.865 387.96 196.426 388.945 197.757 390.262C199.101 391.579 200.147 393.235 200.893 395.231C201.64 397.213 202.013 399.535 202.013 402.196V404.579H175.599V399.202H193.847C193.847 397.953 193.575 396.847 193.032 395.883C192.489 394.919 191.736 394.165 190.772 393.622C189.821 393.066 188.715 392.787 187.452 392.787C186.135 392.787 184.967 393.093 183.949 393.704C182.944 394.301 182.157 395.109 181.587 396.127C181.016 397.132 180.724 398.252 180.711 399.488V404.599C180.711 406.147 180.996 407.484 181.566 408.611C182.15 409.738 182.971 410.607 184.03 411.218C185.09 411.829 186.345 412.135 187.798 412.135C188.762 412.135 189.645 411.999 190.446 411.727C191.247 411.456 191.932 411.048 192.503 410.505C193.073 409.962 193.507 409.297 193.806 408.51L201.83 409.039C201.423 410.967 200.588 412.651 199.325 414.09C198.076 415.515 196.46 416.629 194.478 417.43C192.509 418.217 190.235 418.611 187.656 418.611ZM231.876 395.638L223.934 396.127C223.798 395.448 223.506 394.837 223.058 394.294C222.61 393.738 222.019 393.296 221.286 392.97C220.566 392.631 219.704 392.461 218.7 392.461C217.355 392.461 216.222 392.746 215.298 393.317C214.375 393.873 213.914 394.62 213.914 395.557C213.914 396.304 214.212 396.935 214.81 397.451C215.407 397.967 216.432 398.381 217.885 398.693L223.547 399.834C226.588 400.458 228.855 401.463 230.349 402.848C231.842 404.233 232.589 406.052 232.589 408.306C232.589 410.356 231.985 412.155 230.776 413.703C229.582 415.251 227.939 416.459 225.848 417.328C223.771 418.183 221.374 418.611 218.659 418.611C214.518 418.611 211.218 417.749 208.761 416.025C206.317 414.287 204.885 411.924 204.464 408.937L212.997 408.489C213.255 409.752 213.88 410.716 214.871 411.381C215.862 412.033 217.131 412.359 218.679 412.359C220.2 412.359 221.422 412.067 222.345 411.483C223.282 410.886 223.757 410.118 223.771 409.182C223.757 408.394 223.424 407.749 222.773 407.247C222.121 406.731 221.116 406.337 219.759 406.066L214.341 404.986C211.286 404.375 209.012 403.316 207.519 401.809C206.039 400.302 205.299 398.381 205.299 396.046C205.299 394.036 205.842 392.305 206.928 390.852C208.028 389.4 209.569 388.28 211.551 387.492C213.547 386.705 215.882 386.311 218.557 386.311C222.508 386.311 225.617 387.146 227.884 388.816C230.165 390.486 231.496 392.76 231.876 395.638ZM250.359 418.611C247.155 418.611 244.399 417.932 242.091 416.574C239.796 415.203 238.031 413.302 236.796 410.872C235.574 408.442 234.963 405.645 234.963 402.481C234.963 399.277 235.581 396.467 236.816 394.05C238.065 391.62 239.837 389.726 242.132 388.368C244.426 386.997 247.155 386.311 250.319 386.311C253.048 386.311 255.437 386.806 257.488 387.798C259.538 388.789 261.16 390.18 262.355 391.973C263.55 393.765 264.208 395.869 264.33 398.286H256.143C255.913 396.725 255.302 395.469 254.31 394.518C253.333 393.554 252.05 393.072 250.461 393.072C249.117 393.072 247.943 393.439 246.938 394.172C245.947 394.892 245.173 395.944 244.616 397.329C244.06 398.714 243.781 400.39 243.781 402.359C243.781 404.355 244.053 406.052 244.596 407.451C245.153 408.849 245.933 409.915 246.938 410.648C247.943 411.381 249.117 411.748 250.461 411.748C251.452 411.748 252.342 411.544 253.129 411.137C253.93 410.729 254.589 410.139 255.105 409.365C255.634 408.577 255.98 407.634 256.143 406.534H264.33C264.195 408.924 263.543 411.028 262.375 412.847C261.221 414.653 259.626 416.065 257.589 417.084C255.553 418.102 253.143 418.611 250.359 418.611ZM276.735 399.915V418H268.059V376.291H276.49V392.237H276.857C277.563 390.391 278.703 388.945 280.278 387.899C281.853 386.84 283.829 386.311 286.205 386.311C288.377 386.311 290.271 386.786 291.887 387.736C293.516 388.673 294.779 390.024 295.675 391.789C296.584 393.541 297.032 395.638 297.019 398.082V418H288.343V399.63C288.357 397.702 287.868 396.202 286.877 395.129C285.899 394.057 284.528 393.52 282.763 393.52C281.582 393.52 280.536 393.772 279.626 394.274C278.73 394.776 278.024 395.509 277.508 396.473C277.006 397.424 276.748 398.571 276.735 399.915ZM316.276 418.611C313.058 418.611 310.289 417.959 307.967 416.656C305.659 415.339 303.88 413.479 302.631 411.076C301.382 408.659 300.757 405.801 300.757 402.502C300.757 399.284 301.382 396.46 302.631 394.029C303.88 391.599 305.638 389.705 307.906 388.347C310.187 386.99 312.861 386.311 315.93 386.311C317.994 386.311 319.915 386.644 321.693 387.309C323.486 387.96 325.047 388.945 326.378 390.262C327.722 391.579 328.767 393.235 329.514 395.231C330.261 397.213 330.634 399.535 330.634 402.196V404.579H304.22V399.202H322.467C322.467 397.953 322.196 396.847 321.653 395.883C321.11 394.919 320.356 394.165 319.392 393.622C318.442 393.066 317.335 392.787 316.072 392.787C314.755 392.787 313.588 393.093 312.57 393.704C311.565 394.301 310.777 395.109 310.207 396.127C309.637 397.132 309.345 398.252 309.331 399.488V404.599C309.331 406.147 309.616 407.484 310.187 408.611C310.771 409.738 311.592 410.607 312.651 411.218C313.71 411.829 314.966 412.135 316.419 412.135C317.383 412.135 318.265 411.999 319.066 411.727C319.867 411.456 320.553 411.048 321.123 410.505C321.693 409.962 322.128 409.297 322.427 408.51L330.451 409.039C330.043 410.967 329.208 412.651 327.946 414.09C326.697 415.515 325.081 416.629 323.099 417.43C321.13 418.217 318.856 418.611 316.276 418.611ZM345.996 418.509C343.62 418.509 341.468 417.898 339.54 416.676C337.626 415.441 336.105 413.628 334.978 411.239C333.865 408.835 333.308 405.889 333.308 402.4C333.308 398.815 333.885 395.835 335.039 393.459C336.194 391.07 337.728 389.284 339.642 388.103C341.57 386.908 343.681 386.311 345.976 386.311C347.727 386.311 349.187 386.61 350.354 387.207C351.536 387.791 352.486 388.524 353.206 389.406C353.939 390.275 354.496 391.131 354.876 391.973H355.14V376.291H363.796V418H355.242V412.99H354.876C354.468 413.859 353.891 414.721 353.145 415.576C352.411 416.418 351.454 417.117 350.273 417.674C349.105 418.231 347.68 418.509 345.996 418.509ZM348.746 411.605C350.144 411.605 351.325 411.225 352.289 410.465C353.267 409.691 354.014 408.611 354.529 407.227C355.059 405.842 355.324 404.219 355.324 402.359C355.324 400.499 355.066 398.883 354.55 397.512C354.034 396.141 353.287 395.082 352.31 394.335C351.332 393.588 350.144 393.215 348.746 393.215C347.32 393.215 346.118 393.602 345.141 394.376C344.163 395.15 343.423 396.222 342.921 397.593C342.419 398.965 342.167 400.553 342.167 402.359C342.167 404.178 342.419 405.787 342.921 407.186C343.437 408.571 344.177 409.657 345.141 410.444C346.118 411.218 347.32 411.605 348.746 411.605ZM389.163 404.681V386.718H397.839V418H389.509V412.318H389.183C388.477 414.151 387.303 415.624 385.66 416.737C384.031 417.851 382.042 418.407 379.693 418.407C377.602 418.407 375.762 417.932 374.174 416.982C372.585 416.031 371.343 414.68 370.447 412.929C369.564 411.177 369.116 409.08 369.103 406.636V386.718H377.778V405.088C377.792 406.935 378.288 408.394 379.265 409.467C380.243 410.539 381.553 411.076 383.196 411.076C384.241 411.076 385.219 410.838 386.128 410.363C387.038 409.874 387.771 409.154 388.328 408.204C388.898 407.254 389.176 406.079 389.163 404.681ZM411.628 376.291V418H402.952V376.291H411.628ZM431.007 418.611C427.789 418.611 425.02 417.959 422.698 416.656C420.39 415.339 418.611 413.479 417.362 411.076C416.113 408.659 415.488 405.801 415.488 402.502C415.488 399.284 416.113 396.46 417.362 394.029C418.611 391.599 420.369 389.705 422.637 388.347C424.918 386.99 427.592 386.311 430.661 386.311C432.725 386.311 434.646 386.644 436.424 387.309C438.217 387.96 439.778 388.945 441.109 390.262C442.453 391.579 443.498 393.235 444.245 395.231C444.992 397.213 445.365 399.535 445.365 402.196V404.579H418.951V399.202H437.198C437.198 397.953 436.927 396.847 436.384 395.883C435.841 394.919 435.087 394.165 434.123 393.622C433.173 393.066 432.066 392.787 430.803 392.787C429.486 392.787 428.319 393.093 427.301 393.704C426.296 394.301 425.508 395.109 424.938 396.127C424.368 397.132 424.076 398.252 424.062 399.488V404.599C424.062 406.147 424.348 407.484 424.918 408.611C425.502 409.738 426.323 410.607 427.382 411.218C428.441 411.829 429.697 412.135 431.15 412.135C432.114 412.135 432.996 411.999 433.797 411.727C434.598 411.456 435.284 411.048 435.854 410.505C436.424 409.962 436.859 409.297 437.158 408.51L445.182 409.039C444.774 410.967 443.939 412.651 442.677 414.09C441.428 415.515 439.812 416.629 437.83 417.43C435.861 418.217 433.587 418.611 431.007 418.611ZM449.2 418V386.718H457.611V392.176H457.937C458.507 390.235 459.465 388.768 460.809 387.777C462.153 386.772 463.701 386.27 465.452 386.27C465.887 386.27 466.355 386.297 466.857 386.352C467.36 386.406 467.801 386.481 468.181 386.576V394.274C467.774 394.152 467.21 394.043 466.491 393.948C465.771 393.853 465.113 393.805 464.515 393.805C463.239 393.805 462.099 394.084 461.094 394.64C460.103 395.184 459.315 395.944 458.731 396.921C458.161 397.899 457.876 399.026 457.876 400.302V418H449.2Z" fill="#D2D2D2"/>
<path d="M89.7976 538.57C86.7563 538.57 84.0477 538.048 81.6717 537.002C79.3092 535.943 77.4424 534.49 76.0711 532.644C74.7134 530.784 74.0141 528.639 73.9734 526.208H82.8529C82.9072 527.227 83.2398 528.123 83.8508 528.897C84.4754 529.657 85.3036 530.247 86.3354 530.668C87.3673 531.089 88.5281 531.3 89.818 531.3C91.1621 531.3 92.3501 531.062 93.382 530.587C94.4138 530.112 95.2217 529.453 95.8055 528.611C96.3893 527.77 96.6812 526.799 96.6812 525.699C96.6812 524.586 96.369 523.601 95.7444 522.746C95.1334 521.877 94.2509 521.198 93.0969 520.709C91.9564 520.221 90.5987 519.976 89.0237 519.976H85.1338V513.5H89.0237C90.3543 513.5 91.5287 513.269 92.547 512.808C93.5788 512.346 94.3799 511.708 94.9501 510.893C95.5204 510.065 95.8055 509.101 95.8055 508.001C95.8055 506.956 95.5543 506.039 95.052 505.252C94.5632 504.451 93.8708 503.826 92.9747 503.378C92.0921 502.93 91.0603 502.706 89.8791 502.706C88.6843 502.706 87.5913 502.923 86.6002 503.358C85.609 503.779 84.8148 504.383 84.2174 505.17C83.62 505.958 83.3009 506.881 83.2602 507.94H74.8084C74.8491 505.537 75.5348 503.419 76.8653 501.586C78.1959 499.753 79.9881 498.321 82.2419 497.289C84.5093 496.243 87.0686 495.721 89.9198 495.721C92.7982 495.721 95.3167 496.243 97.4755 497.289C99.6343 498.334 101.311 499.746 102.506 501.525C103.714 503.29 104.312 505.272 104.298 507.472C104.312 509.807 103.585 511.755 102.119 513.317C100.666 514.878 98.7721 515.869 96.4368 516.29V516.616C99.5053 517.01 101.841 518.075 103.443 519.813C105.058 521.538 105.859 523.696 105.846 526.29C105.859 528.666 105.174 530.777 103.789 532.623C102.418 534.47 100.524 535.923 98.1068 536.982C95.6901 538.041 92.9204 538.57 89.7976 538.57ZM114.335 538.53C112.991 538.53 111.836 538.054 110.872 537.104C109.922 536.14 109.447 534.986 109.447 533.642C109.447 532.311 109.922 531.171 110.872 530.22C111.836 529.27 112.991 528.795 114.335 528.795C115.638 528.795 116.779 529.27 117.756 530.22C118.734 531.171 119.222 532.311 119.222 533.642C119.222 534.538 118.992 535.359 118.53 536.106C118.082 536.839 117.491 537.43 116.758 537.878C116.025 538.312 115.217 538.53 114.335 538.53ZM148.954 538H134.169V496.291H149.076C153.272 496.291 156.883 497.126 159.911 498.796C162.939 500.452 165.267 502.835 166.896 505.944C168.539 509.053 169.361 512.774 169.361 517.105C169.361 521.449 168.539 525.183 166.896 528.306C165.267 531.429 162.925 533.825 159.87 535.495C156.829 537.165 153.19 538 148.954 538ZM142.987 530.444H148.588C151.194 530.444 153.387 529.983 155.166 529.059C156.958 528.123 158.302 526.677 159.198 524.722C160.108 522.753 160.563 520.214 160.563 517.105C160.563 514.023 160.108 511.504 159.198 509.549C158.302 507.594 156.965 506.155 155.186 505.231C153.407 504.308 151.215 503.847 148.608 503.847H142.987V530.444ZM188.16 538.611C184.942 538.611 182.172 537.959 179.85 536.656C177.542 535.339 175.764 533.479 174.515 531.076C173.265 528.659 172.641 525.801 172.641 522.502C172.641 519.284 173.265 516.46 174.515 514.029C175.764 511.599 177.522 509.705 179.789 508.347C182.07 506.99 184.745 506.311 187.813 506.311C189.877 506.311 191.798 506.644 193.577 507.309C195.369 507.96 196.931 508.945 198.261 510.262C199.605 511.579 200.651 513.235 201.397 515.231C202.144 517.213 202.518 519.535 202.518 522.196V524.579H176.103V519.202H194.351C194.351 517.953 194.079 516.847 193.536 515.883C192.993 514.919 192.24 514.165 191.276 513.622C190.325 513.066 189.219 512.787 187.956 512.787C186.639 512.787 185.471 513.093 184.453 513.704C183.448 514.301 182.661 515.109 182.091 516.127C181.52 517.132 181.229 518.252 181.215 519.488V524.599C181.215 526.147 181.5 527.484 182.07 528.611C182.654 529.738 183.476 530.607 184.535 531.218C185.594 531.829 186.849 532.135 188.302 532.135C189.266 532.135 190.149 531.999 190.95 531.727C191.751 531.456 192.436 531.048 193.007 530.505C193.577 529.962 194.011 529.297 194.31 528.51L202.334 529.039C201.927 530.967 201.092 532.651 199.829 534.09C198.58 535.515 196.964 536.629 194.982 537.43C193.013 538.217 190.739 538.611 188.16 538.611ZM232.38 515.638L224.438 516.127C224.302 515.448 224.01 514.837 223.562 514.294C223.114 513.738 222.523 513.296 221.79 512.97C221.07 512.631 220.208 512.461 219.204 512.461C217.859 512.461 216.726 512.746 215.802 513.317C214.879 513.873 214.418 514.62 214.418 515.557C214.418 516.304 214.716 516.935 215.314 517.451C215.911 517.967 216.936 518.381 218.389 518.693L224.051 519.834C227.092 520.458 229.359 521.463 230.853 522.848C232.346 524.233 233.093 526.052 233.093 528.306C233.093 530.356 232.489 532.155 231.28 533.703C230.086 535.251 228.443 536.459 226.352 537.328C224.275 538.183 221.878 538.611 219.163 538.611C215.022 538.611 211.723 537.749 209.265 536.025C206.821 534.287 205.389 531.924 204.968 528.937L213.501 528.489C213.759 529.752 214.384 530.716 215.375 531.381C216.366 532.033 217.635 532.359 219.183 532.359C220.704 532.359 221.926 532.067 222.849 531.483C223.786 530.886 224.261 530.118 224.275 529.182C224.261 528.394 223.928 527.749 223.277 527.247C222.625 526.731 221.62 526.337 220.263 526.066L214.845 524.986C211.79 524.375 209.516 523.316 208.023 521.809C206.543 520.302 205.803 518.381 205.803 516.046C205.803 514.036 206.346 512.305 207.432 510.852C208.532 509.4 210.073 508.28 212.055 507.492C214.051 506.705 216.386 506.311 219.061 506.311C223.012 506.311 226.121 507.146 228.389 508.816C230.67 510.486 232 512.76 232.38 515.638ZM250.864 538.611C247.659 538.611 244.903 537.932 242.595 536.574C240.301 535.203 238.535 533.302 237.3 530.872C236.078 528.442 235.467 525.645 235.467 522.481C235.467 519.277 236.085 516.467 237.32 514.05C238.569 511.62 240.341 509.726 242.636 508.368C244.93 506.997 247.659 506.311 250.823 506.311C253.552 506.311 255.941 506.806 257.992 507.798C260.042 508.789 261.664 510.18 262.859 511.973C264.054 513.765 264.712 515.869 264.834 518.286H256.647C256.417 516.725 255.806 515.469 254.815 514.518C253.837 513.554 252.554 513.072 250.965 513.072C249.621 513.072 248.447 513.439 247.442 514.172C246.451 514.892 245.677 515.944 245.12 517.329C244.564 518.714 244.285 520.39 244.285 522.359C244.285 524.355 244.557 526.052 245.1 527.451C245.657 528.849 246.437 529.915 247.442 530.648C248.447 531.381 249.621 531.748 250.965 531.748C251.957 531.748 252.846 531.544 253.633 531.137C254.434 530.729 255.093 530.139 255.609 529.365C256.138 528.577 256.485 527.634 256.647 526.534H264.834C264.699 528.924 264.047 531.028 262.879 532.847C261.725 534.653 260.13 536.065 258.093 537.084C256.057 538.102 253.647 538.611 250.864 538.611ZM277.239 519.915V538H268.563V496.291H276.994V512.237H277.361C278.067 510.391 279.207 508.945 280.782 507.899C282.357 506.84 284.333 506.311 286.709 506.311C288.881 506.311 290.775 506.786 292.391 507.736C294.02 508.673 295.283 510.024 296.179 511.789C297.088 513.541 297.536 515.638 297.523 518.082V538H288.847V519.63C288.861 517.702 288.372 516.202 287.381 515.129C286.403 514.057 285.032 513.52 283.267 513.52C282.086 513.52 281.04 513.772 280.131 514.274C279.234 514.776 278.528 515.509 278.013 516.473C277.51 517.424 277.252 518.571 277.239 519.915ZM316.78 538.611C313.562 538.611 310.793 537.959 308.471 536.656C306.163 535.339 304.384 533.479 303.135 531.076C301.886 528.659 301.261 525.801 301.261 522.502C301.261 519.284 301.886 516.46 303.135 514.029C304.384 511.599 306.142 509.705 308.41 508.347C310.691 506.99 313.365 506.311 316.434 506.311C318.498 506.311 320.419 506.644 322.197 507.309C323.99 507.96 325.551 508.945 326.882 510.262C328.226 511.579 329.271 513.235 330.018 515.231C330.765 517.213 331.138 519.535 331.138 522.196V524.579H304.724V519.202H322.971C322.971 517.953 322.7 516.847 322.157 515.883C321.614 514.919 320.86 514.165 319.896 513.622C318.946 513.066 317.839 512.787 316.576 512.787C315.259 512.787 314.092 513.093 313.074 513.704C312.069 514.301 311.281 515.109 310.711 516.127C310.141 517.132 309.849 518.252 309.835 519.488V524.599C309.835 526.147 310.121 527.484 310.691 528.611C311.275 529.738 312.096 530.607 313.155 531.218C314.214 531.829 315.47 532.135 316.923 532.135C317.887 532.135 318.769 531.999 319.57 531.727C320.371 531.456 321.057 531.048 321.627 530.505C322.197 529.962 322.632 529.297 322.931 528.51L330.955 529.039C330.547 530.967 329.712 532.651 328.45 534.09C327.201 535.515 325.585 536.629 323.603 537.43C321.634 538.217 319.36 538.611 316.78 538.611ZM346.5 538.509C344.124 538.509 341.972 537.898 340.044 536.676C338.13 535.441 336.609 533.628 335.482 531.239C334.369 528.835 333.812 525.889 333.812 522.4C333.812 518.815 334.389 515.835 335.543 513.459C336.698 511.07 338.232 509.284 340.146 508.103C342.074 506.908 344.185 506.311 346.48 506.311C348.231 506.311 349.691 506.61 350.859 507.207C352.04 507.791 352.99 508.524 353.71 509.406C354.443 510.275 355 511.131 355.38 511.973H355.645V496.291H364.3V538H355.746V532.99H355.38C354.972 533.859 354.395 534.721 353.649 535.576C352.916 536.418 351.958 537.117 350.777 537.674C349.609 538.231 348.184 538.509 346.5 538.509ZM349.25 531.605C350.648 531.605 351.829 531.225 352.793 530.465C353.771 529.691 354.518 528.611 355.034 527.227C355.563 525.842 355.828 524.219 355.828 522.359C355.828 520.499 355.57 518.883 355.054 517.512C354.538 516.141 353.791 515.082 352.814 514.335C351.836 513.588 350.648 513.215 349.25 513.215C347.824 513.215 346.622 513.602 345.645 514.376C344.667 515.15 343.927 516.222 343.425 517.593C342.923 518.965 342.672 520.553 342.672 522.359C342.672 524.178 342.923 525.787 343.425 527.186C343.941 528.571 344.681 529.657 345.645 530.444C346.622 531.218 347.824 531.605 349.25 531.605ZM389.667 524.681V506.718H398.343V538H390.013V532.318H389.687C388.981 534.151 387.807 535.624 386.164 536.737C384.535 537.851 382.546 538.407 380.197 538.407C378.106 538.407 376.266 537.932 374.678 536.982C373.089 536.031 371.847 534.68 370.951 532.929C370.068 531.177 369.62 529.08 369.607 526.636V506.718H378.282V525.088C378.296 526.935 378.792 528.394 379.769 529.467C380.747 530.539 382.057 531.076 383.7 531.076C384.745 531.076 385.723 530.838 386.632 530.363C387.542 529.874 388.275 529.154 388.832 528.204C389.402 527.254 389.681 526.079 389.667 524.681ZM412.132 496.291V538H403.456V496.291H412.132ZM431.511 538.611C428.293 538.611 425.524 537.959 423.202 536.656C420.894 535.339 419.115 533.479 417.866 531.076C416.617 528.659 415.992 525.801 415.992 522.502C415.992 519.284 416.617 516.46 417.866 514.029C419.115 511.599 420.873 509.705 423.141 508.347C425.422 506.99 428.097 506.311 431.165 506.311C433.229 506.311 435.15 506.644 436.928 507.309C438.721 507.96 440.282 508.945 441.613 510.262C442.957 511.579 444.002 513.235 444.749 515.231C445.496 517.213 445.869 519.535 445.869 522.196V524.579H419.455V519.202H437.702C437.702 517.953 437.431 516.847 436.888 515.883C436.345 514.919 435.591 514.165 434.627 513.622C433.677 513.066 432.57 512.787 431.308 512.787C429.991 512.787 428.823 513.093 427.805 513.704C426.8 514.301 426.012 515.109 425.442 516.127C424.872 517.132 424.58 518.252 424.566 519.488V524.599C424.566 526.147 424.852 527.484 425.422 528.611C426.006 529.738 426.827 530.607 427.886 531.218C428.945 531.829 430.201 532.135 431.654 532.135C432.618 532.135 433.5 531.999 434.301 531.727C435.102 531.456 435.788 531.048 436.358 530.505C436.928 529.962 437.363 529.297 437.662 528.51L445.686 529.039C445.278 530.967 444.443 532.651 443.181 534.09C441.932 535.515 440.316 536.629 438.334 537.43C436.365 538.217 434.091 538.611 431.511 538.611ZM449.704 538V506.718H458.115V512.176H458.441C459.011 510.235 459.969 508.768 461.313 507.777C462.657 506.772 464.205 506.27 465.956 506.27C466.391 506.27 466.859 506.297 467.361 506.352C467.864 506.406 468.305 506.481 468.685 506.576V514.274C468.278 514.152 467.714 514.043 466.995 513.948C466.275 513.853 465.617 513.805 465.019 513.805C463.743 513.805 462.603 514.084 461.598 514.64C460.607 515.184 459.819 515.944 459.235 516.921C458.665 517.899 458.38 519.026 458.38 520.302V538H449.704ZM482.791 549.731V506.718H491.345V511.973H491.732C492.112 511.131 492.662 510.275 493.381 509.406C494.115 508.524 495.065 507.791 496.233 507.207C497.414 506.61 498.88 506.311 500.632 506.311C502.913 506.311 505.017 506.908 506.945 508.103C508.873 509.284 510.414 511.07 511.568 513.459C512.722 515.835 513.299 518.815 513.299 522.4C513.299 525.889 512.736 528.835 511.609 531.239C510.496 533.628 508.975 535.441 507.047 536.676C505.133 537.898 502.987 538.509 500.611 538.509C498.928 538.509 497.495 538.231 496.314 537.674C495.147 537.117 494.189 536.418 493.443 535.576C492.696 534.721 492.126 533.859 491.732 532.99H491.467V549.731H482.791ZM491.284 522.359C491.284 524.219 491.542 525.842 492.058 527.227C492.574 528.611 493.32 529.691 494.298 530.465C495.275 531.225 496.464 531.605 497.862 531.605C499.274 531.605 500.469 531.218 501.446 530.444C502.424 529.657 503.164 528.571 503.666 527.186C504.182 525.787 504.44 524.178 504.44 522.359C504.44 520.553 504.189 518.965 503.687 517.593C503.184 516.222 502.444 515.15 501.467 514.376C500.489 513.602 499.288 513.215 497.862 513.215C496.45 513.215 495.255 513.588 494.278 514.335C493.314 515.082 492.574 516.141 492.058 517.512C491.542 518.883 491.284 520.499 491.284 522.359ZM531.39 538.611C528.227 538.611 525.491 537.939 523.183 536.595C520.889 535.237 519.117 533.35 517.868 530.933C516.619 528.503 515.994 525.685 515.994 522.481C515.994 519.25 516.619 516.426 517.868 514.009C519.117 511.579 520.889 509.692 523.183 508.347C525.491 506.99 528.227 506.311 531.39 506.311C534.554 506.311 537.283 506.99 539.578 508.347C541.886 509.692 543.664 511.579 544.913 514.009C546.162 516.426 546.787 519.25 546.787 522.481C546.787 525.685 546.162 528.503 544.913 530.933C543.664 533.35 541.886 535.237 539.578 536.595C537.283 537.939 534.554 538.611 531.39 538.611ZM531.431 531.89C532.87 531.89 534.072 531.483 535.036 530.668C536 529.84 536.726 528.713 537.215 527.288C537.717 525.862 537.969 524.24 537.969 522.42C537.969 520.601 537.717 518.978 537.215 517.553C536.726 516.127 536 515 535.036 514.172C534.072 513.344 532.87 512.93 531.431 512.93C529.978 512.93 528.757 513.344 527.765 514.172C526.788 515 526.048 516.127 525.546 517.553C525.057 518.978 524.812 520.601 524.812 522.42C524.812 524.24 525.057 525.862 525.546 527.288C526.048 528.713 526.788 529.84 527.765 530.668C528.757 531.483 529.978 531.89 531.431 531.89ZM559.278 496.291V538H550.602V496.291H559.278ZM564.401 538V506.718H573.077V538H564.401ZM568.759 502.686C567.47 502.686 566.363 502.258 565.44 501.403C564.53 500.534 564.075 499.495 564.075 498.287C564.075 497.092 564.53 496.067 565.44 495.212C566.363 494.343 567.47 493.908 568.759 493.908C570.049 493.908 571.149 494.343 572.059 495.212C572.982 496.067 573.443 497.092 573.443 498.287C573.443 499.495 572.982 500.534 572.059 501.403C571.149 502.258 570.049 502.686 568.759 502.686ZM592.334 538.611C589.13 538.611 586.374 537.932 584.066 536.574C581.771 535.203 580.006 533.302 578.771 530.872C577.549 528.442 576.938 525.645 576.938 522.481C576.938 519.277 577.555 516.467 578.791 514.05C580.04 511.62 581.812 509.726 584.106 508.368C586.401 506.997 589.13 506.311 592.293 506.311C595.022 506.311 597.412 506.806 599.462 507.798C601.512 508.789 603.135 510.18 604.33 511.973C605.524 513.765 606.183 515.869 606.305 518.286H598.118C597.887 516.725 597.276 515.469 596.285 514.518C595.308 513.554 594.024 513.072 592.436 513.072C591.092 513.072 589.917 513.439 588.913 514.172C587.922 514.892 587.148 515.944 586.591 517.329C586.034 518.714 585.756 520.39 585.756 522.359C585.756 524.355 586.028 526.052 586.571 527.451C587.127 528.849 587.908 529.915 588.913 530.648C589.917 531.381 591.092 531.748 592.436 531.748C593.427 531.748 594.316 531.544 595.104 531.137C595.905 530.729 596.563 530.139 597.079 529.365C597.609 528.577 597.955 527.634 598.118 526.534H606.305C606.169 528.924 605.518 531.028 604.35 532.847C603.196 534.653 601.601 536.065 599.564 537.084C597.527 538.102 595.117 538.611 592.334 538.611ZM610.033 538V506.718H618.709V538H610.033ZM614.392 502.686C613.102 502.686 611.995 502.258 611.072 501.403C610.162 500.534 609.708 499.495 609.708 498.287C609.708 497.092 610.162 496.067 611.072 495.212C611.995 494.343 613.102 493.908 614.392 493.908C615.682 493.908 616.781 494.343 617.691 495.212C618.614 496.067 619.076 497.092 619.076 498.287C619.076 499.495 618.614 500.534 617.691 501.403C616.781 502.258 615.682 502.686 614.392 502.686ZM638.089 538.611C634.871 538.611 632.101 537.959 629.779 536.656C627.471 535.339 625.693 533.479 624.444 531.076C623.194 528.659 622.57 525.801 622.57 522.502C622.57 519.284 623.194 516.46 624.444 514.029C625.693 511.599 627.451 509.705 629.718 508.347C631.999 506.99 634.674 506.311 637.742 506.311C639.806 506.311 641.727 506.644 643.506 507.309C645.298 507.96 646.859 508.945 648.19 510.262C649.534 511.579 650.58 513.235 651.326 515.231C652.073 517.213 652.447 519.535 652.447 522.196V524.579H626.032V519.202H644.28C644.28 517.953 644.008 516.847 643.465 515.883C642.922 514.919 642.169 514.165 641.205 513.622C640.254 513.066 639.148 512.787 637.885 512.787C636.568 512.787 635.4 513.093 634.382 513.704C633.377 514.301 632.59 515.109 632.02 516.127C631.449 517.132 631.157 518.252 631.144 519.488V524.599C631.144 526.147 631.429 527.484 631.999 528.611C632.583 529.738 633.405 530.607 634.464 531.218C635.523 531.829 636.778 532.135 638.231 532.135C639.195 532.135 640.078 531.999 640.879 531.727C641.68 531.456 642.365 531.048 642.936 530.505C643.506 529.962 643.94 529.297 644.239 528.51L652.263 529.039C651.856 530.967 651.021 532.651 649.758 534.09C648.509 535.515 646.893 536.629 644.911 537.43C642.942 538.217 640.668 538.611 638.089 538.611ZM682.309 515.638L674.367 516.127C674.231 515.448 673.939 514.837 673.491 514.294C673.043 513.738 672.452 513.296 671.719 512.97C670.999 512.631 670.137 512.461 669.133 512.461C667.788 512.461 666.655 512.746 665.731 513.317C664.808 513.873 664.347 514.62 664.347 515.557C664.347 516.304 664.645 516.935 665.243 517.451C665.84 517.967 666.865 518.381 668.318 518.693L673.98 519.834C677.021 520.458 679.288 521.463 680.782 522.848C682.275 524.233 683.022 526.052 683.022 528.306C683.022 530.356 682.418 532.155 681.209 533.703C680.015 535.251 678.372 536.459 676.281 537.328C674.204 538.183 671.807 538.611 669.092 538.611C664.951 538.611 661.652 537.749 659.194 536.025C656.75 534.287 655.318 531.924 654.897 528.937L663.43 528.489C663.688 529.752 664.313 530.716 665.304 531.381C666.295 532.033 667.564 532.359 669.112 532.359C670.633 532.359 671.855 532.067 672.778 531.483C673.715 530.886 674.19 530.118 674.204 529.182C674.19 528.394 673.857 527.749 673.206 527.247C672.554 526.731 671.549 526.337 670.192 526.066L664.774 524.986C661.719 524.375 659.445 523.316 657.952 521.809C656.472 520.302 655.732 518.381 655.732 516.046C655.732 514.036 656.275 512.305 657.361 510.852C658.461 509.4 660.002 508.28 661.984 507.492C663.98 506.705 666.315 506.311 668.99 506.311C672.941 506.311 676.05 507.146 678.318 508.816C680.598 510.486 681.929 512.76 682.309 515.638Z" fill="#D2D2D2"/>
<path d="M73.7494 644.668V637.724L91.1621 610.291H97.1496V619.904H93.606L82.6289 637.276V637.601H107.373V644.668H73.7494ZM93.7689 652V642.55L93.9319 639.475V610.291H102.2V652H93.7689ZM115.791 652.53C114.447 652.53 113.293 652.054 112.329 651.104C111.378 650.14 110.903 648.986 110.903 647.642C110.903 646.311 111.378 645.171 112.329 644.22C113.293 643.27 114.447 642.795 115.791 642.795C117.094 642.795 118.235 643.27 119.212 644.22C120.19 645.171 120.679 646.311 120.679 647.642C120.679 648.538 120.448 649.359 119.986 650.106C119.538 650.839 118.948 651.43 118.214 651.878C117.481 652.312 116.673 652.53 115.791 652.53ZM135.625 610.291H146.5L157.986 638.314H158.475L169.961 610.291H180.837V652H172.283V624.852H171.937L161.143 651.796H155.318L144.525 624.751H144.178V652H135.625V610.291ZM200.369 652.611C197.151 652.611 194.381 651.959 192.06 650.656C189.752 649.339 187.973 647.479 186.724 645.076C185.475 642.659 184.85 639.801 184.85 636.502C184.85 633.284 185.475 630.46 186.724 628.029C187.973 625.599 189.731 623.705 191.999 622.347C194.28 620.99 196.954 620.311 200.023 620.311C202.086 620.311 204.008 620.644 205.786 621.309C207.578 621.96 209.14 622.945 210.47 624.262C211.814 625.579 212.86 627.235 213.607 629.231C214.353 631.213 214.727 633.535 214.727 636.196V638.579H188.312V633.202H206.56C206.56 631.953 206.289 630.847 205.745 629.883C205.202 628.919 204.449 628.165 203.485 627.622C202.534 627.066 201.428 626.787 200.165 626.787C198.848 626.787 197.681 627.093 196.662 627.704C195.658 628.301 194.87 629.109 194.3 630.127C193.73 631.132 193.438 632.252 193.424 633.488V638.599C193.424 640.147 193.709 641.484 194.28 642.611C194.863 643.738 195.685 644.607 196.744 645.218C197.803 645.829 199.059 646.135 200.511 646.135C201.475 646.135 202.358 645.999 203.159 645.727C203.96 645.456 204.646 645.048 205.216 644.505C205.786 643.962 206.221 643.297 206.519 642.51L214.544 643.039C214.136 644.967 213.301 646.651 212.039 648.09C210.789 649.515 209.174 650.629 207.191 651.43C205.223 652.217 202.949 652.611 200.369 652.611ZM235.201 620.718V627.235H216.363V620.718H235.201ZM220.639 613.224H229.315V642.387C229.315 643.188 229.437 643.813 229.682 644.261C229.926 644.695 230.266 645.001 230.7 645.177C231.148 645.354 231.664 645.442 232.248 645.442C232.655 645.442 233.062 645.408 233.47 645.34C233.877 645.259 234.189 645.198 234.407 645.157L235.771 651.613C235.337 651.749 234.726 651.905 233.938 652.081C233.151 652.272 232.194 652.387 231.067 652.428C228.976 652.509 227.143 652.231 225.568 651.593C224.006 650.955 222.791 649.963 221.922 648.619C221.053 647.275 220.626 645.578 220.639 643.528V613.224ZM239.026 652V620.718H247.437V626.176H247.763C248.333 624.235 249.29 622.768 250.634 621.777C251.979 620.772 253.526 620.27 255.278 620.27C255.712 620.27 256.181 620.297 256.683 620.352C257.185 620.406 257.627 620.481 258.007 620.576V628.274C257.6 628.152 257.036 628.043 256.316 627.948C255.597 627.853 254.938 627.805 254.341 627.805C253.065 627.805 251.924 628.084 250.92 628.64C249.928 629.184 249.141 629.944 248.557 630.921C247.987 631.899 247.702 633.026 247.702 634.302V652H239.026ZM260.666 652V620.718H269.342V652H260.666ZM265.024 616.686C263.734 616.686 262.628 616.258 261.705 615.403C260.795 614.534 260.34 613.495 260.34 612.287C260.34 611.092 260.795 610.067 261.705 609.212C262.628 608.343 263.734 607.908 265.024 607.908C266.314 607.908 267.414 608.343 268.324 609.212C269.247 610.067 269.708 611.092 269.708 612.287C269.708 613.495 269.247 614.534 268.324 615.403C267.414 616.258 266.314 616.686 265.024 616.686ZM288.599 652.611C285.395 652.611 282.639 651.932 280.331 650.574C278.036 649.203 276.271 647.302 275.035 644.872C273.813 642.442 273.202 639.645 273.202 636.481C273.202 633.277 273.82 630.467 275.056 628.05C276.305 625.62 278.077 623.726 280.371 622.368C282.666 620.997 285.395 620.311 288.558 620.311C291.287 620.311 293.677 620.806 295.727 621.798C297.777 622.789 299.4 624.18 300.594 625.973C301.789 627.765 302.448 629.869 302.57 632.286H294.383C294.152 630.725 293.541 629.469 292.55 628.518C291.572 627.554 290.289 627.072 288.701 627.072C287.357 627.072 286.182 627.439 285.178 628.172C284.186 628.892 283.413 629.944 282.856 631.329C282.299 632.714 282.021 634.39 282.021 636.359C282.021 638.355 282.292 640.052 282.836 641.451C283.392 642.849 284.173 643.915 285.178 644.648C286.182 645.381 287.357 645.748 288.701 645.748C289.692 645.748 290.581 645.544 291.369 645.137C292.17 644.729 292.828 644.139 293.344 643.365C293.874 642.577 294.22 641.634 294.383 640.534H302.57C302.434 642.924 301.782 645.028 300.615 646.847C299.461 648.653 297.865 650.065 295.829 651.084C293.792 652.102 291.382 652.611 288.599 652.611ZM332.326 629.638L324.383 630.127C324.247 629.448 323.955 628.837 323.507 628.294C323.059 627.738 322.469 627.296 321.736 626.97C321.016 626.631 320.154 626.461 319.149 626.461C317.805 626.461 316.671 626.746 315.748 627.317C314.825 627.873 314.363 628.62 314.363 629.557C314.363 630.304 314.662 630.935 315.259 631.451C315.857 631.967 316.882 632.381 318.334 632.693L323.996 633.834C327.037 634.458 329.305 635.463 330.798 636.848C332.292 638.233 333.039 640.052 333.039 642.306C333.039 644.356 332.434 646.155 331.226 647.703C330.031 649.251 328.388 650.459 326.297 651.328C324.22 652.183 321.824 652.611 319.108 652.611C314.967 652.611 311.668 651.749 309.211 650.025C306.767 648.287 305.334 645.924 304.913 642.937L313.447 642.489C313.705 643.752 314.329 644.716 315.32 645.381C316.311 646.033 317.581 646.359 319.129 646.359C320.649 646.359 321.871 646.067 322.795 645.483C323.731 644.886 324.207 644.118 324.22 643.182C324.207 642.394 323.874 641.749 323.222 641.247C322.571 640.731 321.566 640.337 320.208 640.066L314.791 638.986C311.736 638.375 309.462 637.316 307.968 635.809C306.488 634.302 305.748 632.381 305.748 630.046C305.748 628.036 306.291 626.305 307.378 624.852C308.477 623.4 310.018 622.28 312.001 621.492C313.997 620.705 316.332 620.311 319.006 620.311C322.957 620.311 326.067 621.146 328.334 622.816C330.615 624.486 331.946 626.76 332.326 629.638ZM348.122 663.731V620.718H356.676V625.973H357.063C357.443 625.131 357.993 624.275 358.712 623.406C359.446 622.524 360.396 621.791 361.564 621.207C362.745 620.61 364.211 620.311 365.963 620.311C368.244 620.311 370.348 620.908 372.276 622.103C374.204 623.284 375.745 625.07 376.899 627.459C378.053 629.835 378.63 632.815 378.63 636.4C378.63 639.889 378.067 642.835 376.94 645.239C375.826 647.628 374.306 649.441 372.378 650.676C370.463 651.898 368.318 652.509 365.942 652.509C364.259 652.509 362.826 652.231 361.645 651.674C360.477 651.117 359.52 650.418 358.773 649.576C358.027 648.721 357.456 647.859 357.063 646.99H356.798V663.731H348.122ZM356.615 636.359C356.615 638.219 356.873 639.842 357.389 641.227C357.905 642.611 358.651 643.691 359.629 644.465C360.606 645.225 361.794 645.605 363.193 645.605C364.605 645.605 365.8 645.218 366.777 644.444C367.755 643.657 368.495 642.571 368.997 641.186C369.513 639.787 369.771 638.178 369.771 636.359C369.771 634.553 369.52 632.965 369.017 631.593C368.515 630.222 367.775 629.15 366.798 628.376C365.82 627.602 364.618 627.215 363.193 627.215C361.781 627.215 360.586 627.588 359.608 628.335C358.644 629.082 357.905 630.141 357.389 631.512C356.873 632.883 356.615 634.499 356.615 636.359ZM382.588 652V620.718H391.263V652H382.588ZM386.946 616.686C385.656 616.686 384.549 616.258 383.626 615.403C382.716 614.534 382.262 613.495 382.262 612.287C382.262 611.092 382.716 610.067 383.626 609.212C384.549 608.343 385.656 607.908 386.946 607.908C388.236 607.908 389.335 608.343 390.245 609.212C391.168 610.067 391.63 611.092 391.63 612.287C391.63 613.495 391.168 614.534 390.245 615.403C389.335 616.258 388.236 616.686 386.946 616.686ZM396.387 663.731V620.718H404.94V625.973H405.327C405.707 625.131 406.257 624.275 406.977 623.406C407.71 622.524 408.66 621.791 409.828 621.207C411.009 620.61 412.476 620.311 414.227 620.311C416.508 620.311 418.613 620.908 420.541 622.103C422.468 623.284 424.009 625.07 425.164 627.459C426.318 629.835 426.895 632.815 426.895 636.4C426.895 639.889 426.331 642.835 425.204 645.239C424.091 647.628 422.57 649.441 420.642 650.676C418.728 651.898 416.583 652.509 414.207 652.509C412.523 652.509 411.091 652.231 409.91 651.674C408.742 651.117 407.785 650.418 407.038 649.576C406.291 648.721 405.721 647.859 405.327 646.99H405.063V663.731H396.387ZM404.879 636.359C404.879 638.219 405.137 639.842 405.653 641.227C406.169 642.611 406.916 643.691 407.893 644.465C408.871 645.225 410.059 645.605 411.457 645.605C412.869 645.605 414.064 645.218 415.042 644.444C416.019 643.657 416.759 642.571 417.262 641.186C417.778 639.787 418.036 638.178 418.036 636.359C418.036 634.553 417.784 632.965 417.282 631.593C416.78 630.222 416.04 629.15 415.062 628.376C414.085 627.602 412.883 627.215 411.457 627.215C410.045 627.215 408.851 627.588 407.873 628.335C406.909 629.082 406.169 630.141 405.653 631.512C405.137 632.883 404.879 634.499 404.879 636.359ZM445.108 652.611C441.89 652.611 439.121 651.959 436.799 650.656C434.491 649.339 432.712 647.479 431.463 645.076C430.214 642.659 429.589 639.801 429.589 636.502C429.589 633.284 430.214 630.46 431.463 628.029C432.712 625.599 434.47 623.705 436.738 622.347C439.019 620.99 441.693 620.311 444.762 620.311C446.826 620.311 448.747 620.644 450.525 621.309C452.318 621.96 453.879 622.945 455.21 624.262C456.554 625.579 457.599 627.235 458.346 629.231C459.093 631.213 459.466 633.535 459.466 636.196V638.579H433.052V633.202H451.299C451.299 631.953 451.028 630.847 450.485 629.883C449.942 628.919 449.188 628.165 448.224 627.622C447.274 627.066 446.167 626.787 444.904 626.787C443.587 626.787 442.42 627.093 441.402 627.704C440.397 628.301 439.609 629.109 439.039 630.127C438.469 631.132 438.177 632.252 438.163 633.488V638.599C438.163 640.147 438.449 641.484 439.019 642.611C439.603 643.738 440.424 644.607 441.483 645.218C442.542 645.829 443.798 646.135 445.251 646.135C446.215 646.135 447.097 645.999 447.898 645.727C448.699 645.456 449.385 645.048 449.955 644.505C450.525 643.962 450.96 643.297 451.259 642.51L459.283 643.039C458.875 644.967 458.04 646.651 456.778 648.09C455.529 649.515 453.913 650.629 451.931 651.43C449.962 652.217 447.688 652.611 445.108 652.611ZM471.977 610.291V652H463.301V610.291H471.977ZM477.1 652V620.718H485.776V652H477.1ZM481.459 616.686C480.169 616.686 479.062 616.258 478.139 615.403C477.229 614.534 476.775 613.495 476.775 612.287C476.775 611.092 477.229 610.067 478.139 609.212C479.062 608.343 480.169 607.908 481.459 607.908C482.749 607.908 483.848 608.343 484.758 609.212C485.681 610.067 486.143 611.092 486.143 612.287C486.143 613.495 485.681 614.534 484.758 615.403C483.848 616.258 482.749 616.686 481.459 616.686ZM499.575 633.915V652H490.9V620.718H499.168V626.237H499.535C500.227 624.418 501.388 622.979 503.017 621.92C504.647 620.847 506.622 620.311 508.944 620.311C511.116 620.311 513.01 620.786 514.626 621.736C516.241 622.687 517.497 624.045 518.393 625.81C519.29 627.561 519.738 629.652 519.738 632.082V652H511.062V633.63C511.075 631.716 510.587 630.222 509.595 629.15C508.604 628.063 507.24 627.52 505.502 627.52C504.334 627.52 503.302 627.772 502.406 628.274C501.524 628.776 500.831 629.509 500.329 630.473C499.84 631.424 499.589 632.571 499.575 633.915ZM539.005 652.611C535.787 652.611 533.017 651.959 530.696 650.656C528.388 649.339 526.609 647.479 525.36 645.076C524.111 642.659 523.486 639.801 523.486 636.502C523.486 633.284 524.111 630.46 525.36 628.029C526.609 625.599 528.367 623.705 530.635 622.347C532.916 620.99 535.59 620.311 538.659 620.311C540.722 620.311 542.644 620.644 544.422 621.309C546.214 621.96 547.776 622.945 549.106 624.262C550.451 625.579 551.496 627.235 552.243 629.231C552.989 631.213 553.363 633.535 553.363 636.196V638.579H526.948V633.202H545.196C545.196 631.953 544.925 630.847 544.382 629.883C543.838 628.919 543.085 628.165 542.121 627.622C541.171 627.066 540.064 626.787 538.801 626.787C537.484 626.787 536.317 627.093 535.298 627.704C534.294 628.301 533.506 629.109 532.936 630.127C532.366 631.132 532.074 632.252 532.06 633.488V638.599C532.06 640.147 532.345 641.484 532.916 642.611C533.499 643.738 534.321 644.607 535.38 645.218C536.439 645.829 537.695 646.135 539.148 646.135C540.112 646.135 540.994 645.999 541.795 645.727C542.596 645.456 543.282 645.048 543.852 644.505C544.422 643.962 544.857 643.297 545.155 642.51L553.18 643.039C552.772 644.967 551.937 646.651 550.675 648.09C549.425 649.515 547.81 650.629 545.827 651.43C543.859 652.217 541.585 652.611 539.005 652.611Z" fill="black"/>
<path d="M89.6143 755.57C86.736 755.57 84.1699 755.041 81.9161 753.982C79.6758 752.923 77.8972 751.463 76.5802 749.603C75.2632 747.743 74.5776 745.611 74.5233 743.208H83.0769C83.1719 744.824 83.8508 746.134 85.1135 747.139C86.3762 748.144 87.8764 748.646 89.6143 748.646C90.9992 748.646 92.2211 748.34 93.2802 747.729C94.3527 747.105 95.1877 746.243 95.7851 745.143C96.3961 744.03 96.7016 742.753 96.7016 741.314C96.7016 739.848 96.3893 738.558 95.7648 737.445C95.1538 736.331 94.3052 735.462 93.2191 734.838C92.1329 734.213 90.8906 733.894 89.4921 733.881C88.2702 733.881 87.0822 734.132 85.9281 734.634C84.7876 735.137 83.8983 735.822 83.2602 736.691L75.4194 735.286L77.3949 713.291H102.893V720.5H84.6654L83.586 730.948H83.8304C84.5636 729.916 85.6701 729.061 87.1501 728.382C88.63 727.703 90.2864 727.364 92.1193 727.364C94.6311 727.364 96.8713 727.954 98.84 729.135C100.809 730.317 102.363 731.939 103.504 734.003C104.644 736.053 105.208 738.415 105.194 741.09C105.208 743.901 104.556 746.399 103.239 748.585C101.936 750.757 100.109 752.468 97.7606 753.717C95.4253 754.952 92.7099 755.57 89.6143 755.57ZM113.327 755.53C111.982 755.53 110.828 755.054 109.864 754.104C108.914 753.14 108.439 751.986 108.439 750.642C108.439 749.311 108.914 748.171 109.864 747.22C110.828 746.27 111.982 745.795 113.327 745.795C114.63 745.795 115.77 746.27 116.748 747.22C117.726 748.171 118.214 749.311 118.214 750.642C118.214 751.538 117.984 752.359 117.522 753.106C117.074 753.839 116.483 754.43 115.75 754.878C115.017 755.312 114.209 755.53 113.327 755.53ZM168.047 713.291V755H160.43L142.284 728.749H141.979V755H133.161V713.291H140.899L158.903 739.522H159.269V713.291H168.047ZM187.477 755.611C184.314 755.611 181.578 754.939 179.27 753.595C176.975 752.237 175.204 750.35 173.955 747.933C172.705 745.503 172.081 742.685 172.081 739.481C172.081 736.25 172.705 733.426 173.955 731.009C175.204 728.579 176.975 726.692 179.27 725.347C181.578 723.99 184.314 723.311 187.477 723.311C190.641 723.311 193.37 723.99 195.664 725.347C197.973 726.692 199.751 728.579 201 731.009C202.249 733.426 202.874 736.25 202.874 739.481C202.874 742.685 202.249 745.503 201 747.933C199.751 750.35 197.973 752.237 195.664 753.595C193.37 754.939 190.641 755.611 187.477 755.611ZM187.518 748.89C188.957 748.89 190.159 748.483 191.123 747.668C192.087 746.84 192.813 745.713 193.302 744.288C193.804 742.862 194.056 741.24 194.056 739.42C194.056 737.601 193.804 735.978 193.302 734.553C192.813 733.127 192.087 732 191.123 731.172C190.159 730.344 188.957 729.93 187.518 729.93C186.065 729.93 184.843 730.344 183.852 731.172C182.875 732 182.135 733.127 181.632 734.553C181.144 735.978 180.899 737.601 180.899 739.42C180.899 741.24 181.144 742.862 181.632 744.288C182.135 745.713 182.875 746.84 183.852 747.668C184.843 748.483 186.065 748.89 187.518 748.89ZM218.216 755.509C215.84 755.509 213.688 754.898 211.76 753.676C209.845 752.441 208.325 750.628 207.198 748.239C206.085 745.835 205.528 742.889 205.528 739.4C205.528 735.815 206.105 732.835 207.259 730.459C208.413 728.07 209.947 726.284 211.862 725.103C213.79 723.908 215.901 723.311 218.195 723.311C219.947 723.311 221.406 723.61 222.574 724.207C223.755 724.791 224.706 725.524 225.425 726.406C226.158 727.275 226.715 728.131 227.095 728.973H227.36V713.291H236.016V755H227.462V749.99H227.095C226.688 750.859 226.111 751.721 225.364 752.576C224.631 753.418 223.674 754.117 222.493 754.674C221.325 755.231 219.899 755.509 218.216 755.509ZM220.965 748.605C222.364 748.605 223.545 748.225 224.509 747.465C225.486 746.691 226.233 745.611 226.749 744.227C227.279 742.842 227.543 741.219 227.543 739.359C227.543 737.499 227.285 735.883 226.769 734.512C226.254 733.141 225.507 732.082 224.529 731.335C223.552 730.588 222.364 730.215 220.965 730.215C219.54 730.215 218.338 730.602 217.36 731.376C216.383 732.15 215.643 733.222 215.141 734.593C214.638 735.965 214.387 737.553 214.387 739.359C214.387 741.178 214.638 742.787 215.141 744.186C215.657 745.571 216.396 746.657 217.36 747.444C218.338 748.218 219.54 748.605 220.965 748.605ZM255.578 755.611C252.36 755.611 249.591 754.959 247.269 753.656C244.961 752.339 243.182 750.479 241.933 748.076C240.684 745.659 240.06 742.801 240.06 739.502C240.06 736.284 240.684 733.46 241.933 731.029C243.182 728.599 244.94 726.705 247.208 725.347C249.489 723.99 252.164 723.311 255.232 723.311C257.296 723.311 259.217 723.644 260.996 724.309C262.788 724.96 264.349 725.945 265.68 727.262C267.024 728.579 268.069 730.235 268.816 732.231C269.563 734.213 269.936 736.535 269.936 739.196V741.579H243.522V736.202H261.769C261.769 734.953 261.498 733.847 260.955 732.883C260.412 731.919 259.658 731.165 258.694 730.622C257.744 730.066 256.637 729.787 255.375 729.787C254.058 729.787 252.89 730.093 251.872 730.704C250.867 731.301 250.079 732.109 249.509 733.127C248.939 734.132 248.647 735.252 248.633 736.488V741.599C248.633 743.147 248.919 744.484 249.489 745.611C250.073 746.738 250.894 747.607 251.953 748.218C253.012 748.829 254.268 749.135 255.721 749.135C256.685 749.135 257.567 748.999 258.368 748.727C259.169 748.456 259.855 748.048 260.425 747.505C260.996 746.962 261.43 746.297 261.729 745.51L269.753 746.039C269.345 747.967 268.51 749.651 267.248 751.09C265.999 752.515 264.383 753.629 262.401 754.43C260.432 755.217 258.158 755.611 255.578 755.611ZM285.381 755V713.291H301.837C305 713.291 307.695 713.895 309.922 715.103C312.149 716.298 313.846 717.961 315.013 720.093C316.195 722.211 316.785 724.655 316.785 727.425C316.785 730.194 316.188 732.638 314.993 734.756C313.798 736.874 312.067 738.524 309.8 739.705C307.546 740.887 304.817 741.477 301.613 741.477H291.124V734.41H300.187C301.884 734.41 303.283 734.118 304.382 733.534C305.496 732.937 306.324 732.116 306.867 731.07C307.424 730.011 307.702 728.796 307.702 727.425C307.702 726.04 307.424 724.832 306.867 723.8C306.324 722.754 305.496 721.946 304.382 721.376C303.269 720.792 301.857 720.5 300.146 720.5H294.2V755H285.381ZM320.524 755V723.718H328.935V729.176H329.261C329.831 727.235 330.788 725.768 332.132 724.777C333.476 723.772 335.024 723.27 336.776 723.27C337.21 723.27 337.679 723.297 338.181 723.352C338.683 723.406 339.124 723.481 339.505 723.576V731.274C339.097 731.152 338.534 731.043 337.814 730.948C337.095 730.853 336.436 730.805 335.839 730.805C334.563 730.805 333.422 731.084 332.417 731.64C331.426 732.184 330.639 732.944 330.055 733.921C329.485 734.899 329.2 736.026 329.2 737.302V755H320.524ZM354.841 755.611C351.678 755.611 348.942 754.939 346.634 753.595C344.339 752.237 342.568 750.35 341.319 747.933C340.069 745.503 339.445 742.685 339.445 739.481C339.445 736.25 340.069 733.426 341.319 731.009C342.568 728.579 344.339 726.692 346.634 725.347C348.942 723.99 351.678 723.311 354.841 723.311C358.005 723.311 360.734 723.99 363.028 725.347C365.337 726.692 367.115 728.579 368.364 731.009C369.613 733.426 370.238 736.25 370.238 739.481C370.238 742.685 369.613 745.503 368.364 747.933C367.115 750.35 365.337 752.237 363.028 753.595C360.734 754.939 358.005 755.611 354.841 755.611ZM354.882 748.89C356.321 748.89 357.523 748.483 358.487 747.668C359.451 746.84 360.177 745.713 360.666 744.288C361.168 742.862 361.42 741.24 361.42 739.42C361.42 737.601 361.168 735.978 360.666 734.553C360.177 733.127 359.451 732 358.487 731.172C357.523 730.344 356.321 729.93 354.882 729.93C353.429 729.93 352.207 730.344 351.216 731.172C350.239 732 349.499 733.127 348.996 734.553C348.508 735.978 348.263 737.601 348.263 739.42C348.263 741.24 348.508 742.862 348.996 744.288C349.499 745.713 350.239 746.84 351.216 747.668C352.207 748.483 353.429 748.89 354.882 748.89ZM374.216 755V713.291H382.892V728.973H383.156C383.537 728.131 384.086 727.275 384.806 726.406C385.539 725.524 386.49 724.791 387.657 724.207C388.838 723.61 390.305 723.311 392.056 723.311C394.337 723.311 396.442 723.908 398.37 725.103C400.298 726.284 401.839 728.07 402.993 730.459C404.147 732.835 404.724 735.815 404.724 739.4C404.724 742.889 404.16 745.835 403.033 748.239C401.92 750.628 400.399 752.441 398.471 753.676C396.557 754.898 394.412 755.509 392.036 755.509C390.352 755.509 388.92 755.231 387.739 754.674C386.571 754.117 385.614 753.418 384.867 752.576C384.12 751.721 383.55 750.859 383.156 749.99H382.769V755H374.216ZM382.708 739.359C382.708 741.219 382.966 742.842 383.482 744.227C383.998 745.611 384.745 746.691 385.722 747.465C386.7 748.225 387.888 748.605 389.286 748.605C390.699 748.605 391.893 748.218 392.871 747.444C393.848 746.657 394.588 745.571 395.091 744.186C395.607 742.787 395.865 741.178 395.865 739.359C395.865 737.553 395.613 735.965 395.111 734.593C394.609 733.222 393.869 732.15 392.891 731.376C391.914 730.602 390.712 730.215 389.286 730.215C387.874 730.215 386.68 730.588 385.702 731.335C384.738 732.082 383.998 733.141 383.482 734.512C382.966 735.883 382.708 737.499 382.708 739.359ZM417.362 713.291V755H408.686V713.291H417.362ZM436.741 755.611C433.524 755.611 430.754 754.959 428.432 753.656C426.124 752.339 424.346 750.479 423.096 748.076C421.847 745.659 421.223 742.801 421.223 739.502C421.223 736.284 421.847 733.46 423.096 731.029C424.346 728.599 426.104 726.705 428.371 725.347C430.652 723.99 433.327 723.311 436.395 723.311C438.459 723.311 440.38 723.644 442.159 724.309C443.951 724.96 445.512 725.945 446.843 727.262C448.187 728.579 449.232 730.235 449.979 732.231C450.726 734.213 451.099 736.535 451.099 739.196V741.579H424.685V736.202H442.933C442.933 734.953 442.661 733.847 442.118 732.883C441.575 731.919 440.821 731.165 439.857 730.622C438.907 730.066 437.8 729.787 436.538 729.787C435.221 729.787 434.053 730.093 433.035 730.704C432.03 731.301 431.243 732.109 430.672 733.127C430.102 734.132 429.81 735.252 429.797 736.488V741.599C429.797 743.147 430.082 744.484 430.652 745.611C431.236 746.738 432.057 747.607 433.116 748.218C434.175 748.829 435.431 749.135 436.884 749.135C437.848 749.135 438.731 748.999 439.532 748.727C440.333 748.456 441.018 748.048 441.589 747.505C442.159 746.962 442.593 746.297 442.892 745.51L450.916 746.039C450.509 747.967 449.674 749.651 448.411 751.09C447.162 752.515 445.546 753.629 443.564 754.43C441.595 755.217 439.321 755.611 436.741 755.611ZM454.935 755V723.718H463.203V729.237H463.57C464.221 727.404 465.308 725.958 466.828 724.899C468.349 723.84 470.168 723.311 472.286 723.311C474.431 723.311 476.258 723.847 477.765 724.92C479.272 725.979 480.276 727.418 480.779 729.237H481.105C481.743 727.445 482.897 726.013 484.567 724.94C486.25 723.854 488.239 723.311 490.534 723.311C493.453 723.311 495.822 724.241 497.642 726.101C499.475 727.947 500.391 730.568 500.391 733.962V755H491.736V735.673C491.736 733.935 491.274 732.632 490.351 731.763C489.427 730.894 488.273 730.459 486.888 730.459C485.314 730.459 484.085 730.962 483.202 731.966C482.32 732.957 481.879 734.268 481.879 735.897V755H473.467V735.49C473.467 733.955 473.026 732.733 472.144 731.824C471.275 730.914 470.127 730.459 468.702 730.459C467.738 730.459 466.869 730.704 466.095 731.192C465.335 731.668 464.731 732.34 464.282 733.209C463.834 734.064 463.61 735.069 463.61 736.223V755H454.935ZM531.813 755H517.028V713.291H531.935C536.131 713.291 539.742 714.126 542.77 715.796C545.798 717.452 548.126 719.835 549.755 722.944C551.398 726.053 552.22 729.774 552.22 734.105C552.22 738.449 551.398 742.183 549.755 745.306C548.126 748.429 545.784 750.825 542.729 752.495C539.688 754.165 536.049 755 531.813 755ZM525.846 747.444H531.446C534.053 747.444 536.246 746.983 538.025 746.059C539.817 745.123 541.161 743.677 542.057 741.722C542.967 739.753 543.422 737.214 543.422 734.105C543.422 731.023 542.967 728.504 542.057 726.549C541.161 724.594 539.824 723.155 538.045 722.231C536.266 721.308 534.074 720.847 531.467 720.847H525.846V747.444ZM571.019 755.611C567.801 755.611 565.031 754.959 562.709 753.656C560.401 752.339 558.623 750.479 557.374 748.076C556.124 745.659 555.5 742.801 555.5 739.502C555.5 736.284 556.124 733.46 557.374 731.029C558.623 728.599 560.381 726.705 562.648 725.347C564.929 723.99 567.604 723.311 570.672 723.311C572.736 723.311 574.657 723.644 576.436 724.309C578.228 724.96 579.789 725.945 581.12 727.262C582.464 728.579 583.51 730.235 584.256 732.231C585.003 734.213 585.376 736.535 585.376 739.196V741.579H558.962V736.202H577.21C577.21 734.953 576.938 733.847 576.395 732.883C575.852 731.919 575.099 731.165 574.135 730.622C573.184 730.066 572.078 729.787 570.815 729.787C569.498 729.787 568.33 730.093 567.312 730.704C566.307 731.301 565.52 732.109 564.95 733.127C564.379 734.132 564.087 735.252 564.074 736.488V741.599C564.074 743.147 564.359 744.484 564.929 745.611C565.513 746.738 566.334 747.607 567.393 748.218C568.452 748.829 569.708 749.135 571.161 749.135C572.125 749.135 573.008 748.999 573.809 748.727C574.61 748.456 575.295 748.048 575.866 747.505C576.436 746.962 576.87 746.297 577.169 745.51L585.193 746.039C584.786 747.967 583.951 749.651 582.688 751.09C581.439 752.515 579.823 753.629 577.841 754.43C575.872 755.217 573.598 755.611 571.019 755.611ZM605.851 723.718V730.235H587.012V723.718H605.851ZM591.289 716.224H599.965V745.387C599.965 746.188 600.087 746.813 600.331 747.261C600.576 747.695 600.915 748.001 601.35 748.177C601.798 748.354 602.314 748.442 602.897 748.442C603.305 748.442 603.712 748.408 604.119 748.34C604.527 748.259 604.839 748.198 605.056 748.157L606.421 754.613C605.986 754.749 605.375 754.905 604.588 755.081C603.8 755.272 602.843 755.387 601.716 755.428C599.625 755.509 597.792 755.231 596.218 754.593C594.656 753.955 593.441 752.963 592.572 751.619C591.703 750.275 591.275 748.578 591.289 746.528V716.224ZM623.596 755.611C620.378 755.611 617.608 754.959 615.286 753.656C612.978 752.339 611.2 750.479 609.951 748.076C608.701 745.659 608.077 742.801 608.077 739.502C608.077 736.284 608.701 733.46 609.951 731.029C611.2 728.599 612.958 726.705 615.225 725.347C617.506 723.99 620.181 723.311 623.249 723.311C625.313 723.311 627.234 723.644 629.013 724.309C630.805 724.96 632.366 725.945 633.697 727.262C635.041 728.579 636.087 730.235 636.833 732.231C637.58 734.213 637.953 736.535 637.953 739.196V741.579H611.539V736.202H629.787C629.787 734.953 629.515 733.847 628.972 732.883C628.429 731.919 627.676 731.165 626.712 730.622C625.761 730.066 624.655 729.787 623.392 729.787C622.075 729.787 620.907 730.093 619.889 730.704C618.884 731.301 618.097 732.109 617.527 733.127C616.956 734.132 616.664 735.252 616.651 736.488V741.599C616.651 743.147 616.936 744.484 617.506 745.611C618.09 746.738 618.911 747.607 619.97 748.218C621.03 748.829 622.285 749.135 623.738 749.135C624.702 749.135 625.585 748.999 626.386 748.727C627.187 748.456 627.872 748.048 628.443 747.505C629.013 746.962 629.447 746.297 629.746 745.51L637.77 746.039C637.363 747.967 636.528 749.651 635.265 751.09C634.016 752.515 632.4 753.629 630.418 754.43C628.449 755.217 626.175 755.611 623.596 755.611ZM655.923 755.611C652.718 755.611 649.962 754.932 647.654 753.574C645.36 752.203 643.594 750.302 642.359 747.872C641.137 745.442 640.526 742.645 640.526 739.481C640.526 736.277 641.144 733.467 642.379 731.05C643.628 728.62 645.4 726.726 647.695 725.368C649.989 723.997 652.718 723.311 655.882 723.311C658.611 723.311 661 723.806 663.051 724.798C665.101 725.789 666.723 727.18 667.918 728.973C669.113 730.765 669.771 732.869 669.893 735.286H661.706C661.476 733.725 660.865 732.469 659.874 731.518C658.896 730.554 657.613 730.072 656.024 730.072C654.68 730.072 653.506 730.439 652.501 731.172C651.51 731.892 650.736 732.944 650.179 734.329C649.623 735.714 649.344 737.39 649.344 739.359C649.344 741.355 649.616 743.052 650.159 744.451C650.716 745.849 651.496 746.915 652.501 747.648C653.506 748.381 654.68 748.748 656.024 748.748C657.016 748.748 657.905 748.544 658.692 748.137C659.493 747.729 660.152 747.139 660.668 746.365C661.197 745.577 661.544 744.634 661.706 743.534H669.893C669.758 745.924 669.106 748.028 667.938 749.847C666.784 751.653 665.189 753.065 663.152 754.084C661.116 755.102 658.706 755.611 655.923 755.611ZM690.261 723.718V730.235H671.422V723.718H690.261ZM675.699 716.224H684.375V745.387C684.375 746.188 684.497 746.813 684.741 747.261C684.986 747.695 685.325 748.001 685.76 748.177C686.208 748.354 686.724 748.442 687.308 748.442C687.715 748.442 688.122 748.408 688.53 748.34C688.937 748.259 689.249 748.198 689.466 748.157L690.831 754.613C690.396 754.749 689.785 754.905 688.998 755.081C688.21 755.272 687.253 755.387 686.126 755.428C684.035 755.509 682.203 755.231 680.628 754.593C679.066 753.955 677.851 752.963 676.982 751.619C676.113 750.275 675.686 748.578 675.699 746.528V716.224ZM707.883 755.611C704.72 755.611 701.984 754.939 699.676 753.595C697.382 752.237 695.61 750.35 694.361 747.933C693.112 745.503 692.487 742.685 692.487 739.481C692.487 736.25 693.112 733.426 694.361 731.009C695.61 728.579 697.382 726.692 699.676 725.347C701.984 723.99 704.72 723.311 707.883 723.311C711.047 723.311 713.776 723.99 716.071 725.347C718.379 726.692 720.157 728.579 721.406 731.009C722.655 733.426 723.28 736.25 723.28 739.481C723.28 742.685 722.655 745.503 721.406 747.933C720.157 750.35 718.379 752.237 716.071 753.595C713.776 754.939 711.047 755.611 707.883 755.611ZM707.924 748.89C709.363 748.89 710.565 748.483 711.529 747.668C712.493 746.84 713.219 745.713 713.708 744.288C714.21 742.862 714.462 741.24 714.462 739.42C714.462 737.601 714.21 735.978 713.708 734.553C713.219 733.127 712.493 732 711.529 731.172C710.565 730.344 709.363 729.93 707.924 729.93C706.471 729.93 705.25 730.344 704.258 731.172C703.281 732 702.541 733.127 702.039 734.553C701.55 735.978 701.305 737.601 701.305 739.42C701.305 741.24 701.55 742.862 702.039 744.288C702.541 745.713 703.281 746.84 704.258 747.668C705.25 748.483 706.471 748.89 707.924 748.89ZM727.095 755V723.718H735.506V729.176H735.832C736.402 727.235 737.359 725.768 738.703 724.777C740.048 723.772 741.595 723.27 743.347 723.27C743.781 723.27 744.25 723.297 744.752 723.352C745.254 723.406 745.696 723.481 746.076 723.576V731.274C745.669 731.152 745.105 731.043 744.385 730.948C743.666 730.853 743.007 730.805 742.41 730.805C741.134 730.805 739.993 731.084 738.989 731.64C737.997 732.184 737.21 732.944 736.626 733.921C736.056 734.899 735.771 736.026 735.771 737.302V755H727.095Z" fill="#D5D5D5"/>
</g>
<defs>
<clipPath id="clip0_14_11169">
<rect width="1200" height="900" fill="white"/>
</clipPath>
</defs>
</svg>
