<svg width="1200" height="900" viewBox="0 0 1200 900" fill="none" xmlns="http://www.w3.org/2000/svg">
<rect width="1200" height="900" fill="white"/>
<g opacity="0.1">
<path d="M596.87 23.3272C589.131 23.7189 581.55 25.6468 574.569 28.9979L270.266 175.106C254.311 182.763 242.723 197.243 238.781 214.449L163.707 542.645C160.205 557.922 163.055 573.961 171.608 587.111C172.634 588.702 173.738 590.242 174.916 591.726L385.542 854.885C396.587 868.679 413.331 876.71 431.038 876.707L768.811 876.629C786.511 876.642 803.255 868.625 814.307 854.845L1024.86 591.647C1035.91 577.846 1040.05 559.78 1036.1 542.567L960.913 214.371C956.971 197.165 945.382 182.684 929.428 175.028L625.085 28.9979C616.305 24.7825 606.603 22.8326 596.87 23.3272Z" fill="#326CE5" stroke="white" stroke-width="0.5"/>
</g>
<g clip-path="url(#clip0_14_10437)">
<path fill-rule="evenodd" clip-rule="evenodd" d="M371 552H591V780H371V552Z" fill="#53777A"/>
<rect x="484" y="558" width="101" height="105" fill="#D9D9D9"/>
<path d="M526.171 601V609H524.71L521.229 603.965H521.171V609H519.479V601H520.964L524.417 606.031H524.487V601H526.171ZM534.92 605C534.92 605.872 534.755 606.615 534.424 607.227C534.096 607.839 533.648 608.306 533.08 608.629C532.515 608.949 531.88 609.109 531.174 609.109C530.463 609.109 529.825 608.948 529.26 608.625C528.695 608.302 528.248 607.835 527.92 607.223C527.592 606.611 527.428 605.87 527.428 605C527.428 604.128 527.592 603.385 527.92 602.773C528.248 602.161 528.695 601.695 529.26 601.375C529.825 601.052 530.463 600.891 531.174 600.891C531.88 600.891 532.515 601.052 533.08 601.375C533.648 601.695 534.096 602.161 534.424 602.773C534.755 603.385 534.92 604.128 534.92 605ZM533.205 605C533.205 604.435 533.12 603.958 532.951 603.57C532.785 603.182 532.549 602.888 532.244 602.688C531.939 602.487 531.583 602.387 531.174 602.387C530.765 602.387 530.408 602.487 530.104 602.688C529.799 602.888 529.562 603.182 529.393 603.57C529.226 603.958 529.143 604.435 529.143 605C529.143 605.565 529.226 606.042 529.393 606.43C529.562 606.818 529.799 607.112 530.104 607.312C530.408 607.513 530.765 607.613 531.174 607.613C531.583 607.613 531.939 607.513 532.244 607.312C532.549 607.112 532.785 606.818 532.951 606.43C533.12 606.042 533.205 605.565 533.205 605ZM539.009 609H536.173V601H539.032C539.837 601 540.53 601.16 541.11 601.48C541.691 601.798 542.138 602.255 542.45 602.852C542.765 603.448 542.923 604.161 542.923 604.992C542.923 605.826 542.765 606.542 542.45 607.141C542.138 607.74 541.688 608.199 541.103 608.52C540.519 608.84 539.821 609 539.009 609ZM537.864 607.551H538.938C539.438 607.551 539.859 607.462 540.2 607.285C540.544 607.105 540.802 606.828 540.974 606.453C541.148 606.076 541.235 605.589 541.235 604.992C541.235 604.401 541.148 603.918 540.974 603.543C540.802 603.168 540.545 602.892 540.204 602.715C539.863 602.538 539.442 602.449 538.942 602.449H537.864V607.551ZM544.176 609V601H549.566V602.395H545.867V604.301H549.289V605.695H545.867V607.605H549.582V609H544.176ZM504.968 616.801H503.257C503.226 616.579 503.162 616.383 503.065 616.211C502.969 616.036 502.845 615.888 502.694 615.766C502.543 615.643 502.369 615.549 502.171 615.484C501.976 615.419 501.763 615.387 501.534 615.387C501.12 615.387 500.759 615.49 500.452 615.695C500.145 615.898 499.907 616.195 499.737 616.586C499.568 616.974 499.483 617.445 499.483 618C499.483 618.57 499.568 619.049 499.737 619.437C499.909 619.826 500.149 620.118 500.456 620.316C500.763 620.514 501.119 620.613 501.522 620.613C501.749 620.613 501.959 620.583 502.151 620.523C502.347 620.464 502.52 620.376 502.671 620.262C502.822 620.145 502.947 620.003 503.046 619.836C503.147 619.669 503.218 619.479 503.257 619.266L504.968 619.273C504.924 619.641 504.813 619.995 504.636 620.336C504.461 620.674 504.226 620.978 503.929 621.246C503.634 621.512 503.283 621.723 502.874 621.879C502.468 622.033 502.008 622.109 501.495 622.109C500.782 622.109 500.144 621.948 499.581 621.625C499.021 621.302 498.578 620.835 498.253 620.223C497.93 619.611 497.769 618.87 497.769 618C497.769 617.128 497.933 616.385 498.261 615.773C498.589 615.161 499.034 614.695 499.597 614.375C500.159 614.052 500.792 613.891 501.495 613.891C501.959 613.891 502.388 613.956 502.784 614.086C503.183 614.216 503.535 614.406 503.843 614.656C504.15 614.904 504.4 615.207 504.593 615.566C504.788 615.926 504.913 616.337 504.968 616.801ZM513.532 618C513.532 618.872 513.367 619.615 513.036 620.227C512.708 620.839 512.26 621.306 511.692 621.629C511.127 621.949 510.492 622.109 509.786 622.109C509.075 622.109 508.437 621.948 507.872 621.625C507.307 621.302 506.86 620.835 506.532 620.223C506.204 619.611 506.04 618.87 506.04 618C506.04 617.128 506.204 616.385 506.532 615.773C506.86 615.161 507.307 614.695 507.872 614.375C508.437 614.052 509.075 613.891 509.786 613.891C510.492 613.891 511.127 614.052 511.692 614.375C512.26 614.695 512.708 615.161 513.036 615.773C513.367 616.385 513.532 617.128 513.532 618ZM511.817 618C511.817 617.435 511.733 616.958 511.563 616.57C511.397 616.182 511.161 615.888 510.856 615.688C510.552 615.487 510.195 615.387 509.786 615.387C509.377 615.387 509.021 615.487 508.716 615.688C508.411 615.888 508.174 616.182 508.005 616.57C507.838 616.958 507.755 617.435 507.755 618C507.755 618.565 507.838 619.042 508.005 619.43C508.174 619.818 508.411 620.112 508.716 620.312C509.021 620.513 509.377 620.613 509.786 620.613C510.195 620.613 510.552 620.513 510.856 620.312C511.161 620.112 511.397 619.818 511.563 619.43C511.733 619.042 511.817 618.565 511.817 618ZM521.477 614V622H520.016L516.535 616.965H516.477V622H514.785V614H516.27L519.723 619.031H519.793V614H521.477ZM522.569 615.395V614H529.14V615.395H526.69V622H525.019V615.395H522.569ZM530.222 622V614H533.378C533.982 614 534.498 614.108 534.925 614.324C535.354 614.538 535.681 614.841 535.905 615.234C536.132 615.625 536.245 616.085 536.245 616.613C536.245 617.145 536.131 617.602 535.901 617.984C535.672 618.365 535.34 618.656 534.905 618.859C534.473 619.062 533.95 619.164 533.335 619.164H531.222V617.805H533.062C533.384 617.805 533.653 617.76 533.866 617.672C534.08 617.583 534.239 617.451 534.343 617.273C534.45 617.096 534.503 616.876 534.503 616.613C534.503 616.348 534.45 616.124 534.343 615.941C534.239 615.759 534.078 615.621 533.862 615.527C533.649 615.431 533.379 615.383 533.054 615.383H531.913V622H530.222ZM534.542 618.359L536.53 622H534.663L532.718 618.359H534.542ZM544.792 618C544.792 618.872 544.627 619.615 544.296 620.227C543.968 620.839 543.52 621.306 542.952 621.629C542.387 621.949 541.752 622.109 541.046 622.109C540.335 622.109 539.697 621.948 539.132 621.625C538.567 621.302 538.12 620.835 537.792 620.223C537.464 619.611 537.3 618.87 537.3 618C537.3 617.128 537.464 616.385 537.792 615.773C538.12 615.161 538.567 614.695 539.132 614.375C539.697 614.052 540.335 613.891 541.046 613.891C541.752 613.891 542.387 614.052 542.952 614.375C543.52 614.695 543.968 615.161 544.296 615.773C544.627 616.385 544.792 617.128 544.792 618ZM543.077 618C543.077 617.435 542.993 616.958 542.823 616.57C542.657 616.182 542.421 615.888 542.116 615.688C541.812 615.487 541.455 615.387 541.046 615.387C540.637 615.387 540.28 615.487 539.976 615.688C539.671 615.888 539.434 616.182 539.265 616.57C539.098 616.958 539.015 617.435 539.015 618C539.015 618.565 539.098 619.042 539.265 619.43C539.434 619.818 539.671 620.112 539.976 620.312C540.28 620.513 540.637 620.613 541.046 620.613C541.455 620.613 541.812 620.513 542.116 620.312C542.421 620.112 542.657 619.818 542.823 619.43C542.993 619.042 543.077 618.565 543.077 618ZM546.045 622V614H547.736V620.605H551.166V622H546.045ZM552.286 622V614H553.978V620.605H557.407V622H552.286ZM558.527 622V614H563.918V615.395H560.219V617.301H563.641V618.695H560.219V620.605H563.934V622H558.527ZM565.263 622V614H568.419C569.023 614 569.539 614.108 569.966 614.324C570.396 614.538 570.722 614.841 570.946 615.234C571.173 615.625 571.286 616.085 571.286 616.613C571.286 617.145 571.172 617.602 570.942 617.984C570.713 618.365 570.381 618.656 569.946 618.859C569.514 619.062 568.991 619.164 568.376 619.164H566.263V617.805H568.103C568.425 617.805 568.694 617.76 568.907 617.672C569.121 617.583 569.28 617.451 569.384 617.273C569.491 617.096 569.544 616.876 569.544 616.613C569.544 616.348 569.491 616.124 569.384 615.941C569.28 615.759 569.119 615.621 568.903 615.527C568.69 615.431 568.42 615.383 568.095 615.383H566.954V622H565.263ZM569.583 618.359L571.571 622H569.704L567.759 618.359H569.583Z" fill="black"/>
<rect x="484" y="669" width="101" height="105" fill="#D9D9D9"/>
<rect x="377" y="558" width="101" height="105" fill="#D9D9D9"/>
<rect x="377" y="669" width="101" height="105" fill="#D9D9D9"/>
</g>
<g clip-path="url(#clip1_14_10437)">
<path fill-rule="evenodd" clip-rule="evenodd" d="M614 552H834V780H614V552Z" fill="#53777A"/>
<path d="M651.996 665.493H656.123C656.063 661.864 653.08 659.358 648.546 659.358C644.082 659.358 640.81 661.824 640.83 665.523C640.82 668.526 642.938 670.246 646.379 671.071L648.596 671.628C650.813 672.165 652.046 672.801 652.056 674.173C652.046 675.665 650.634 676.679 648.447 676.679C646.21 676.679 644.599 675.645 644.46 673.607H640.293C640.403 678.011 643.555 680.288 648.496 680.288C653.468 680.288 656.391 677.912 656.401 674.183C656.391 670.793 653.836 668.993 650.296 668.197L648.467 667.76C646.697 667.352 645.215 666.696 645.245 665.234C645.245 663.922 646.408 662.957 648.516 662.957C650.575 662.957 651.837 663.892 651.996 665.493ZM677.265 666.766C676.698 662.062 673.138 659.358 668.425 659.358C663.046 659.358 658.939 663.156 658.939 669.818C658.939 676.46 662.976 680.278 668.425 680.278C673.645 680.278 676.797 676.808 677.265 673.06L672.909 673.04C672.502 675.217 670.792 676.47 668.495 676.47C665.402 676.47 663.304 674.173 663.304 669.818C663.304 665.582 665.373 663.166 668.525 663.166C670.881 663.166 672.581 664.528 672.909 666.766H677.265ZM680.352 680H684.657V671.588H693.397V680H697.693V659.636H693.397V668.038H684.657V659.636H680.352V680ZM701.243 680H715.004V676.45H705.548V671.588H714.258V668.038H705.548V663.186H714.964V659.636H701.243V680ZM725.606 680C731.81 680 735.569 676.162 735.569 669.798C735.569 663.455 731.81 659.636 725.665 659.636H718.387V680H725.606ZM722.692 676.311V663.325H725.437C729.255 663.325 731.273 665.274 731.273 669.798C731.273 674.342 729.255 676.311 725.427 676.311H722.692ZM751.336 659.636V672.493C751.336 674.82 749.706 676.5 747.2 676.5C744.704 676.5 743.064 674.82 743.064 672.493V659.636H738.758V672.861C738.758 677.315 742.119 680.288 747.2 680.288C752.261 680.288 755.642 677.315 755.642 672.861V659.636H751.336ZM759.184 680H772.219V676.45H763.489V659.636H759.184V680ZM775.071 680H788.832V676.45H779.376V671.588H788.086V668.038H779.376V663.186H788.792V659.636H775.071V680ZM792.215 680H796.521V672.781H799.663L803.521 680H808.273L803.948 672.085C806.265 671.091 807.548 669.072 807.548 666.288C807.548 662.241 804.873 659.636 800.249 659.636H792.215V680ZM796.521 669.321V663.156H799.424C801.91 663.156 803.113 664.26 803.113 666.288C803.113 668.307 801.91 669.321 799.444 669.321H796.521Z" fill="white"/>
</g>
<path fill-rule="evenodd" clip-rule="evenodd" d="M327 350L262 386V314L327 350Z" fill="#B8E986"/>
<path fill-rule="evenodd" clip-rule="evenodd" d="M0 359L0 339H308V359H0Z" fill="#B8E986"/>
<g clip-path="url(#clip2_14_10437)">
<path fill-rule="evenodd" clip-rule="evenodd" d="M334 236H554V464H334V236Z" fill="#53777A"/>
<path d="M367.7 357L369.211 352.357H376.559L378.07 357H382.684L375.664 336.636H370.116L363.086 357H367.7ZM370.305 348.996L372.811 341.29H372.97L375.475 348.996H370.305ZM385.135 357H389.441V350.398H393.06C397.743 350.398 400.468 347.604 400.468 343.537C400.468 339.49 397.793 336.636 393.169 336.636H385.135V357ZM389.441 346.947V340.156H392.344C394.83 340.156 396.033 341.509 396.033 343.537C396.033 345.555 394.83 346.947 392.364 346.947H389.441ZM407.569 336.636H403.264V357H407.569V336.636ZM428.639 342.493H432.765C432.706 338.864 429.723 336.358 425.189 336.358C420.724 336.358 417.453 338.824 417.473 342.523C417.463 345.526 419.581 347.246 423.021 348.071L425.238 348.628C427.456 349.165 428.689 349.801 428.699 351.173C428.689 352.665 427.277 353.679 425.089 353.679C422.852 353.679 421.241 352.645 421.102 350.607H416.936C417.045 355.011 420.197 357.288 425.139 357.288C430.111 357.288 433.034 354.912 433.044 351.183C433.034 347.793 430.479 345.993 426.939 345.197L425.109 344.76C423.339 344.352 421.858 343.696 421.888 342.234C421.888 340.922 423.051 339.957 425.159 339.957C427.217 339.957 428.48 340.892 428.639 342.493ZM435.94 357H449.701V353.45H440.245V348.588H448.955V345.038H440.245V340.186H449.661V336.636H435.94V357ZM453.084 357H457.39V349.781H460.532L464.39 357H469.143L464.817 349.085C467.134 348.091 468.417 346.072 468.417 343.288C468.417 339.241 465.742 336.636 461.118 336.636H453.084V357ZM457.39 346.321V340.156H460.293C462.779 340.156 463.982 341.26 463.982 343.288C463.982 345.307 462.779 346.321 460.313 346.321H457.39ZM474.564 336.636H469.781L476.811 357H482.36L489.379 336.636H484.607L479.675 352.108H479.486L474.564 336.636ZM491.83 357H505.592V353.45H496.136V348.588H504.846V345.038H496.136V340.186H505.552V336.636H491.83V357ZM508.975 357H513.28V349.781H516.422L520.28 357H525.033L520.708 349.085C523.025 348.091 524.307 346.072 524.307 343.288C524.307 339.241 521.633 336.636 517.009 336.636H508.975V357ZM513.28 346.321V340.156H516.184C518.67 340.156 519.873 341.26 519.873 343.288C519.873 345.307 518.67 346.321 516.204 346.321H513.28Z" fill="white"/>
</g>
<rect x="762" y="230" width="421" height="234" fill="#53777A"/>
<g clip-path="url(#clip3_14_10437)">
<rect x="879" y="240" width="295" height="46" fill="#F1D4AF"/>
<path d="M897.104 272C903.752 272 907.779 267.888 907.779 261.07C907.779 254.273 903.752 250.182 897.168 250.182H889.37V272H897.104ZM893.983 268.048V254.134H896.923C901.014 254.134 903.177 256.222 903.177 261.07C903.177 265.938 901.014 268.048 896.913 268.048H893.983ZM918.568 272.32C922.617 272.32 925.344 270.349 925.983 267.312L921.786 267.036C921.328 268.282 920.156 268.932 918.643 268.932C916.374 268.932 914.935 267.43 914.935 264.99V264.979H926.079V263.733C926.079 258.172 922.712 255.423 918.387 255.423C913.572 255.423 910.45 258.843 910.45 263.893C910.45 269.081 913.529 272.32 918.568 272.32ZM914.935 262.167C915.031 260.303 916.448 258.811 918.462 258.811C920.433 258.811 921.796 260.217 921.807 262.167H914.935ZM929.041 278.136H933.579V269.379H933.717C934.346 270.743 935.72 272.266 938.362 272.266C942.091 272.266 944.999 269.315 944.999 263.839C944.999 258.214 941.963 255.423 938.373 255.423C935.635 255.423 934.325 257.053 933.717 258.385H933.515V255.636H929.041V278.136ZM933.483 263.818C933.483 260.899 934.719 259.035 936.924 259.035C939.172 259.035 940.365 260.984 940.365 263.818C940.365 266.673 939.151 268.655 936.924 268.655C934.74 268.655 933.483 266.737 933.483 263.818ZM952.563 250.182H948.025V272H952.563V250.182ZM963.592 272.32C968.557 272.32 971.646 268.921 971.646 263.882C971.646 258.811 968.557 255.423 963.592 255.423C958.628 255.423 955.538 258.811 955.538 263.882C955.538 268.921 958.628 272.32 963.592 272.32ZM963.614 268.804C961.323 268.804 960.151 266.705 960.151 263.85C960.151 260.995 961.323 258.886 963.614 258.886C965.861 258.886 967.033 260.995 967.033 263.85C967.033 266.705 965.861 268.804 963.614 268.804ZM976.842 278.136C980.22 278.136 982.009 276.411 982.936 273.768L989.296 255.658L984.492 255.636L981.072 267.653H980.901L977.514 255.636H972.741L978.611 272.469L978.345 273.161C977.748 274.695 976.608 274.77 975.01 274.28L973.987 277.668C974.637 277.945 975.692 278.136 976.842 278.136ZM991.619 272H996.157V262.178C996.157 260.366 997.308 259.163 998.82 259.163C1000.31 259.163 1001.31 260.185 1001.31 261.794V272H1005.71V262.007C1005.71 260.313 1006.68 259.163 1008.33 259.163C1009.78 259.163 1010.87 260.068 1010.87 261.89V272H1015.4V260.995C1015.4 257.447 1013.29 255.423 1010.24 255.423C1007.84 255.423 1005.98 256.648 1005.31 258.523H1005.14C1004.62 256.627 1002.94 255.423 1000.7 255.423C998.49 255.423 996.818 256.595 996.136 258.523H995.944V255.636H991.619V272ZM1026.44 272.32C1030.49 272.32 1033.21 270.349 1033.85 267.312L1029.66 267.036C1029.2 268.282 1028.03 268.932 1026.51 268.932C1024.24 268.932 1022.81 267.43 1022.81 264.99V264.979H1033.95V263.733C1033.95 258.172 1030.58 255.423 1026.26 255.423C1021.44 255.423 1018.32 258.843 1018.32 263.893C1018.32 269.081 1021.4 272.32 1026.44 272.32ZM1022.81 262.167C1022.9 260.303 1024.32 258.811 1026.33 258.811C1028.3 258.811 1029.67 260.217 1029.68 262.167H1022.81ZM1041.45 262.54C1041.46 260.43 1042.72 259.195 1044.55 259.195C1046.37 259.195 1047.47 260.388 1047.46 262.391V272H1052V261.581C1052 257.767 1049.76 255.423 1046.35 255.423C1043.92 255.423 1042.16 256.616 1041.43 258.523H1041.24V255.636H1036.91V272H1041.45V262.54ZM1064.28 255.636H1061.2V251.716H1056.66V255.636H1054.42V259.045H1056.66V267.568C1056.64 270.775 1058.82 272.362 1062.11 272.224C1063.29 272.181 1064.12 271.947 1064.58 271.798L1063.86 268.42C1063.64 268.463 1063.16 268.57 1062.73 268.57C1061.83 268.57 1061.2 268.229 1061.2 266.972V259.045H1064.28V255.636ZM1082.44 272H1085.85L1086.74 266.588H1089.72L1090.29 263.179H1087.3L1087.98 259.003H1090.97L1091.54 255.594H1088.55L1089.43 250.182H1086.02L1085.14 255.594H1080.88L1081.76 250.182H1078.35L1077.47 255.594H1074.5L1073.92 259.003H1076.9L1076.22 263.179H1073.24L1072.68 266.588H1075.66L1074.77 272H1078.18L1079.07 266.588H1083.33L1082.44 272ZM1079.63 263.179L1080.31 259.003H1084.58L1083.89 263.179H1079.63ZM1103.11 250.182H1098.77L1093.37 253.602V257.692L1098.37 254.56H1098.5V272H1103.11V250.182Z" fill="#4A4A4A"/>
</g>
<g clip-path="url(#clip4_14_10437)">
<rect x="879" y="299" width="295" height="46" fill="#F1D4AF"/>
<path d="M891.896 331H896.509V323.926H900.387C905.405 323.926 908.324 320.933 908.324 316.575C908.324 312.239 905.458 309.182 900.504 309.182H891.896V331ZM896.509 320.229V312.953H899.62C902.283 312.953 903.572 314.402 903.572 316.575C903.572 318.738 902.283 320.229 899.641 320.229H896.509ZM918.365 331.32C923.329 331.32 926.419 327.921 926.419 322.882C926.419 317.811 923.329 314.423 918.365 314.423C913.4 314.423 910.311 317.811 910.311 322.882C910.311 327.921 913.4 331.32 918.365 331.32ZM918.386 327.804C916.096 327.804 914.924 325.705 914.924 322.85C914.924 319.995 916.096 317.886 918.386 317.886C920.634 317.886 921.806 319.995 921.806 322.85C921.806 325.705 920.634 327.804 918.386 327.804ZM935.4 331.266C938.042 331.266 939.416 329.743 940.044 328.379H940.236V331H944.711V309.182H940.183V317.385H940.044C939.437 316.053 938.127 314.423 935.389 314.423C931.799 314.423 928.762 317.214 928.762 322.839C928.762 328.315 931.671 331.266 935.4 331.266ZM936.838 327.655C934.611 327.655 933.397 325.673 933.397 322.818C933.397 319.984 934.59 318.035 936.838 318.035C939.043 318.035 940.279 319.899 940.279 322.818C940.279 325.737 939.022 327.655 936.838 327.655ZM963.652 331H967.061L967.946 325.588H970.929L971.493 322.179H968.51L969.192 318.003H972.175L972.75 314.594H969.757L970.641 309.182H967.232L966.348 314.594H962.086L962.971 309.182H959.561L958.677 314.594H955.705L955.13 318.003H958.113L957.431 322.179H954.448L953.883 325.588H956.866L955.982 331H959.391L960.275 325.588H964.537L963.652 331ZM960.84 322.179L961.522 318.003H965.783L965.101 322.179H960.84ZM984.317 309.182H979.981L974.58 312.602V316.692L979.577 313.56H979.704V331H984.317V309.182Z" fill="#4A4A4A"/>
<path d="M1081.75 330V316.909H1086.91C1087.9 316.909 1088.74 317.086 1089.44 317.44C1090.15 317.789 1090.68 318.286 1091.05 318.929C1091.42 319.568 1091.6 320.32 1091.6 321.185C1091.6 322.055 1091.42 322.803 1091.04 323.429C1090.67 324.051 1090.12 324.528 1089.41 324.861C1088.7 325.193 1087.85 325.359 1086.84 325.359H1083.38V323.135H1086.39C1086.92 323.135 1087.36 323.062 1087.71 322.918C1088.06 322.773 1088.32 322.555 1088.49 322.266C1088.67 321.976 1088.75 321.616 1088.75 321.185C1088.75 320.751 1088.67 320.384 1088.49 320.086C1088.32 319.788 1088.06 319.562 1087.7 319.408C1087.36 319.251 1086.91 319.172 1086.38 319.172H1084.51V330H1081.75ZM1088.82 324.043L1092.07 330H1089.01L1085.83 324.043H1088.82ZM1101.65 316.909H1104.41V325.411C1104.41 326.365 1104.19 327.2 1103.73 327.916C1103.28 328.632 1102.64 329.19 1101.83 329.591C1101.02 329.987 1100.07 330.185 1098.99 330.185C1097.9 330.185 1096.95 329.987 1096.14 329.591C1095.32 329.19 1094.69 328.632 1094.24 327.916C1093.79 327.2 1093.56 326.365 1093.56 325.411V316.909H1096.33V325.174C1096.33 325.673 1096.44 326.116 1096.65 326.504C1096.88 326.891 1097.19 327.196 1097.59 327.418C1097.99 327.639 1098.45 327.75 1098.99 327.75C1099.52 327.75 1099.99 327.639 1100.39 327.418C1100.79 327.196 1101.1 326.891 1101.31 326.504C1101.53 326.116 1101.65 325.673 1101.65 325.174V316.909ZM1117.64 316.909V330H1115.25L1109.55 321.761H1109.46V330H1106.69V316.909H1109.12L1114.77 325.142H1114.89V316.909H1117.64ZM1130.88 316.909V330H1128.49L1122.79 321.761H1122.69V330H1119.93V316.909H1122.36L1128.01 325.142H1128.12V316.909H1130.88ZM1135.93 316.909V330H1133.16V316.909H1135.93ZM1149.16 316.909V330H1146.77L1141.07 321.761H1140.98V330H1138.21V316.909H1140.64L1146.29 325.142H1146.4V316.909H1149.16ZM1160.12 321.141C1160.04 320.83 1159.91 320.555 1159.75 320.316C1159.59 320.073 1159.39 319.869 1159.15 319.702C1158.92 319.532 1158.66 319.402 1158.36 319.312C1158.07 319.223 1157.74 319.178 1157.38 319.178C1156.71 319.178 1156.13 319.344 1155.62 319.677C1155.12 320.009 1154.72 320.493 1154.44 321.128C1154.16 321.759 1154.02 322.53 1154.02 323.442C1154.02 324.354 1154.16 325.129 1154.44 325.768C1154.71 326.408 1155.1 326.896 1155.61 327.232C1156.12 327.565 1156.72 327.731 1157.41 327.731C1158.03 327.731 1158.57 327.62 1159.01 327.398C1159.46 327.173 1159.8 326.855 1160.04 326.446C1160.27 326.037 1160.39 325.553 1160.39 324.995L1160.96 325.078H1157.58V322.994H1163.06V324.643C1163.06 325.794 1162.82 326.783 1162.33 327.609C1161.84 328.432 1161.18 329.067 1160.32 329.514C1159.47 329.957 1158.49 330.179 1157.4 330.179C1156.17 330.179 1155.09 329.908 1154.16 329.367C1153.23 328.822 1152.51 328.048 1151.99 327.047C1151.47 326.041 1151.21 324.848 1151.21 323.467C1151.21 322.406 1151.37 321.46 1151.67 320.629C1151.99 319.794 1152.42 319.087 1152.98 318.507C1153.54 317.928 1154.19 317.487 1154.93 317.184C1155.67 316.881 1156.47 316.73 1157.34 316.73C1158.08 316.73 1158.77 316.839 1159.41 317.056C1160.05 317.269 1160.61 317.572 1161.11 317.964C1161.61 318.356 1162.01 318.822 1162.33 319.364C1162.65 319.901 1162.85 320.493 1162.94 321.141H1160.12Z" fill="#08BF43"/>
</g>
<g clip-path="url(#clip5_14_10437)">
<rect x="879" y="354" width="295" height="46" fill="#F1D4AF"/>
<path d="M889.92 386H894.533V378.926H898.411C903.428 378.926 906.347 375.933 906.347 371.575C906.347 367.239 903.482 364.182 898.528 364.182H889.92V386ZM894.533 375.229V367.953H897.643C900.307 367.953 901.596 369.402 901.596 371.575C901.596 373.738 900.307 375.229 897.665 375.229H894.533ZM916.388 386.32C921.353 386.32 924.442 382.921 924.442 377.882C924.442 372.811 921.353 369.423 916.388 369.423C911.424 369.423 908.334 372.811 908.334 377.882C908.334 382.921 911.424 386.32 916.388 386.32ZM916.409 382.804C914.119 382.804 912.947 380.705 912.947 377.85C912.947 374.995 914.119 372.886 916.409 372.886C918.657 372.886 919.829 374.995 919.829 377.85C919.829 380.705 918.657 382.804 916.409 382.804ZM933.423 386.266C936.065 386.266 937.439 384.743 938.068 383.379H938.26V386H942.734V364.182H938.206V372.385H938.068C937.461 371.053 936.15 369.423 933.412 369.423C929.822 369.423 926.786 372.214 926.786 377.839C926.786 383.315 929.694 386.266 933.423 386.266ZM934.861 382.655C932.635 382.655 931.42 380.673 931.42 377.818C931.42 374.984 932.613 373.035 934.861 373.035C937.066 373.035 938.302 374.899 938.302 377.818C938.302 380.737 937.045 382.655 934.861 382.655ZM961.676 386H965.085L965.969 380.588H968.952L969.517 377.179H966.534L967.216 373.003H970.199L970.774 369.594H967.78L968.664 364.182H965.255L964.371 369.594H960.11L960.994 364.182H957.585L956.701 369.594H953.728L953.153 373.003H956.136L955.454 377.179H952.471L951.907 380.588H954.89L954.005 386H957.414L958.299 380.588H962.56L961.676 386ZM958.863 377.179L959.545 373.003H963.806L963.125 377.179H958.863ZM972.849 386H988.403V382.229H979.241V382.08L982.426 378.958C986.911 374.867 988.115 372.822 988.115 370.339C988.115 366.558 985.025 363.884 980.349 363.884C975.768 363.884 972.625 366.621 972.635 370.904H977.014C977.003 368.816 978.324 367.538 980.317 367.538C982.234 367.538 983.662 368.731 983.662 370.648C983.662 372.385 982.596 373.578 980.615 375.485L972.849 382.676V386Z" fill="#4A4A4A"/>
<path d="M1081.75 385V371.909H1086.91C1087.9 371.909 1088.74 372.086 1089.44 372.44C1090.15 372.789 1090.68 373.286 1091.05 373.929C1091.42 374.568 1091.6 375.32 1091.6 376.185C1091.6 377.055 1091.42 377.803 1091.04 378.429C1090.67 379.051 1090.12 379.528 1089.41 379.861C1088.7 380.193 1087.85 380.359 1086.84 380.359H1083.38V378.135H1086.39C1086.92 378.135 1087.36 378.062 1087.71 377.918C1088.06 377.773 1088.32 377.555 1088.49 377.266C1088.67 376.976 1088.75 376.616 1088.75 376.185C1088.75 375.751 1088.67 375.384 1088.49 375.086C1088.32 374.788 1088.06 374.562 1087.7 374.408C1087.36 374.251 1086.91 374.172 1086.38 374.172H1084.51V385H1081.75ZM1088.82 379.043L1092.07 385H1089.01L1085.83 379.043H1088.82ZM1101.65 371.909H1104.41V380.411C1104.41 381.365 1104.19 382.2 1103.73 382.916C1103.28 383.632 1102.64 384.19 1101.83 384.591C1101.02 384.987 1100.07 385.185 1098.99 385.185C1097.9 385.185 1096.95 384.987 1096.14 384.591C1095.32 384.19 1094.69 383.632 1094.24 382.916C1093.79 382.2 1093.56 381.365 1093.56 380.411V371.909H1096.33V380.174C1096.33 380.673 1096.44 381.116 1096.65 381.504C1096.88 381.891 1097.19 382.196 1097.59 382.418C1097.99 382.639 1098.45 382.75 1098.99 382.75C1099.52 382.75 1099.99 382.639 1100.39 382.418C1100.79 382.196 1101.1 381.891 1101.31 381.504C1101.53 381.116 1101.65 380.673 1101.65 380.174V371.909ZM1117.64 371.909V385H1115.25L1109.55 376.761H1109.46V385H1106.69V371.909H1109.12L1114.77 380.142H1114.89V371.909H1117.64ZM1130.88 371.909V385H1128.49L1122.79 376.761H1122.69V385H1119.93V371.909H1122.36L1128.01 380.142H1128.12V371.909H1130.88ZM1135.93 371.909V385H1133.16V371.909H1135.93ZM1149.16 371.909V385H1146.77L1141.07 376.761H1140.98V385H1138.21V371.909H1140.64L1146.29 380.142H1146.4V371.909H1149.16ZM1160.12 376.141C1160.04 375.83 1159.91 375.555 1159.75 375.316C1159.59 375.073 1159.39 374.869 1159.15 374.702C1158.92 374.532 1158.66 374.402 1158.36 374.312C1158.07 374.223 1157.74 374.178 1157.38 374.178C1156.71 374.178 1156.13 374.344 1155.62 374.677C1155.12 375.009 1154.72 375.493 1154.44 376.128C1154.16 376.759 1154.02 377.53 1154.02 378.442C1154.02 379.354 1154.16 380.129 1154.44 380.768C1154.71 381.408 1155.1 381.896 1155.61 382.232C1156.12 382.565 1156.72 382.731 1157.41 382.731C1158.03 382.731 1158.57 382.62 1159.01 382.398C1159.46 382.173 1159.8 381.855 1160.04 381.446C1160.27 381.037 1160.39 380.553 1160.39 379.995L1160.96 380.078H1157.58V377.994H1163.06V379.643C1163.06 380.794 1162.82 381.783 1162.33 382.609C1161.84 383.432 1161.18 384.067 1160.32 384.514C1159.47 384.957 1158.49 385.179 1157.4 385.179C1156.17 385.179 1155.09 384.908 1154.16 384.367C1153.23 383.822 1152.51 383.048 1151.99 382.047C1151.47 381.041 1151.21 379.848 1151.21 378.467C1151.21 377.406 1151.37 376.46 1151.67 375.629C1151.99 374.794 1152.42 374.087 1152.98 373.507C1153.54 372.928 1154.19 372.487 1154.93 372.184C1155.67 371.881 1156.47 371.73 1157.34 371.73C1158.08 371.73 1158.77 371.839 1159.41 372.056C1160.05 372.269 1160.61 372.572 1161.11 372.964C1161.61 373.356 1162.01 373.822 1162.33 374.364C1162.65 374.901 1162.85 375.493 1162.94 376.141H1160.12Z" fill="#08BF43"/>
</g>
<ellipse cx="763.5" cy="346.5" rx="102.5" ry="106.5" fill="white" stroke="#53777A" stroke-width="21"/>
<path d="M756.992 337.962C756.992 343.502 752.671 347.984 747.347 347.984C742.018 347.984 737.71 343.503 737.71 337.962C737.71 332.446 742.019 327.947 747.347 327.947C752.671 327.947 756.992 332.446 756.992 337.962Z" fill="#419EDA"/>
<path d="M769.452 337.964C769.452 343.505 773.773 347.986 779.097 347.986C784.421 347.986 788.737 343.505 788.737 337.964C788.737 332.446 784.421 327.947 779.097 327.947C773.773 327.947 769.452 332.446 769.452 337.964Z" fill="#419EDA"/>
<path fill-rule="evenodd" clip-rule="evenodd" d="M833.068 349.231C833.81 349.231 834.507 349.203 835.202 349.143L837.289 348.976L837.09 351.175C836.065 362.305 832.734 372.908 827.189 382.687L826.114 384.589L824.492 383.16C820.709 379.837 816.141 377.642 811.295 376.763C808.106 383.537 804.329 389.896 800.044 395.802C793.238 398.277 786.147 400.126 778.825 401.229C778.121 406.281 778.682 411.511 780.594 416.341L781.405 418.392L779.323 418.868L763.37 420.704C758.109 420.704 752.737 420.085 747.412 418.868L745.332 418.392L746.141 416.346C748.058 411.515 748.62 406.291 747.915 401.24C740.565 400.138 733.447 398.285 726.616 395.802C722.335 389.901 718.561 383.546 715.377 376.781C710.547 377.665 706.004 379.859 702.245 383.173L700.623 384.603L699.542 382.697C694.007 372.93 690.675 362.327 689.635 351.179L689.436 348.975L691.56 349.143C692.241 349.202 692.943 349.231 693.693 349.231C697.965 349.231 702.114 348.194 705.859 346.293C704.6 338.721 704.094 331.141 704.253 323.647C708.331 317.542 712.989 311.774 718.238 306.463C715.958 302.037 712.591 298.232 708.389 295.527L706.581 294.365L707.995 292.709C715.143 284.334 724.053 277.583 733.762 273.188L735.715 272.305L736.217 274.458C737.384 279.462 739.829 283.978 743.18 287.607C749.644 284.041 756.388 281.163 763.338 278.981C770.305 281.168 777.06 284.054 783.527 287.626C786.892 283.992 789.343 279.465 790.515 274.446L791.013 272.293L792.974 273.179C802.806 277.639 811.478 284.212 818.744 292.713L820.155 294.366L818.345 295.529C814.13 298.243 810.753 302.072 808.469 306.521C813.734 311.853 818.398 317.639 822.479 323.772C822.618 331.27 822.085 338.795 820.832 346.264C824.596 348.183 828.768 349.231 833.068 349.231ZM763.338 379.294C770.957 379.294 778.622 378.217 786.17 376.084C790.321 369.393 793.608 362.202 795.96 354.657C798.312 347.158 799.703 339.334 800.121 331.277C795.219 324.971 789.647 319.439 783.494 314.793C777.279 310.105 770.516 306.286 763.338 303.409C756.148 306.286 749.372 310.11 743.144 314.817C737.014 319.439 731.466 324.929 726.588 331.196C726.987 339.299 728.361 347.168 730.709 354.679C733.067 362.226 736.344 369.393 740.488 376.084C748.042 378.218 755.698 379.294 763.338 379.294Z" fill="#419EDA"/>
<path d="M554 349H669.577H672V352H554V349Z" fill="#9EEBCF"/>
<circle cx="554.5" cy="350.5" r="6.5" fill="white" stroke="#9EEBCF" stroke-width="3"/>
<path d="M652 350.5L644 356V345L652 350.5Z" fill="#9EEBCF"/>
<path d="M554.011 416.045H638.56C644.083 416.045 648.56 420.522 648.56 426.045V552.015" stroke="#9EEBCF" stroke-width="3"/>
<circle cx="554.5" cy="415.5" r="6" fill="white" stroke="#9EEBCF" stroke-width="3"/>
<path fill-rule="evenodd" clip-rule="evenodd" d="M648.5 555L643 547H654L648.5 555Z" fill="#9EEBCF"/>
<path d="M500 463V552H497V463H500Z" fill="#9EEBCF"/>
<circle cx="498.5" cy="462.5" r="6.5" fill="white" stroke="#9EEBCF" stroke-width="3"/>
<path d="M498.5 556L493 548H504L498.5 556Z" fill="#9EEBCF"/>
<path d="M29.4482 836.818C29.1729 832.771 28.9274 828.724 28.712 824.678C28.5268 820.602 28.3138 816.376 28.0728 812C28.0824 811.282 28.4765 810.927 29.255 810.938L29.6144 810.943C29.7042 810.944 29.8074 811.065 29.924 811.306C30.0406 811.547 30.1544 811.998 30.2653 812.658C30.4067 813.289 30.5434 814.265 30.6755 815.584C30.838 816.874 31.025 818.569 31.2365 820.668C31.448 822.768 31.6825 825.391 31.9399 828.54C32.596 826.512 33.1165 824.542 33.5015 822.63C33.8864 820.719 34.3738 818.988 34.9636 817.439C35.5538 815.859 36.3659 814.477 37.4001 813.293C38.4642 812.109 39.9732 811.246 41.9273 810.703C43.0029 810.897 43.8625 811.567 44.5061 812.714C45.1501 813.831 45.6557 815.215 46.023 816.868C46.3903 818.52 46.6358 820.32 46.7595 822.268C46.8836 824.187 46.9488 826.03 46.9551 827.797C46.9614 829.564 46.9552 831.151 46.9364 832.559C46.918 833.936 46.9347 834.925 46.9866 835.525C46.8936 835.763 46.756 835.971 46.5739 836.148C46.3919 836.325 46.1804 836.457 45.9397 836.544C45.7293 836.601 45.5194 836.613 45.3102 836.58C45.1014 836.518 44.909 836.35 44.7329 836.079C44.7373 835.749 44.7164 835.075 44.6701 834.056C44.6238 833.037 44.5647 831.853 44.4929 830.505C44.4215 829.126 44.3361 827.672 44.2367 826.143C44.1677 824.585 44.0973 823.131 44.0255 821.783C43.984 820.404 43.9401 819.206 43.8938 818.187C43.8476 817.168 43.8116 816.494 43.7861 816.164C43.1721 815.047 42.5516 814.41 41.9248 814.252C41.3279 814.094 40.7114 814.281 40.0753 814.811C39.4692 815.342 38.8743 816.158 38.2905 817.258C37.7067 818.359 37.1509 819.609 36.623 821.01C36.0956 822.381 35.597 823.826 35.1274 825.348C34.6578 826.869 34.2487 828.346 33.9001 829.779C33.5519 831.182 33.2502 832.466 32.995 833.63C32.7702 834.766 32.6236 835.647 32.5554 836.275C32.4627 836.484 32.2653 836.691 31.963 836.896C31.6911 837.072 31.3899 837.203 31.0593 837.288C30.7586 837.374 30.4438 837.4 30.1148 837.366C29.8161 837.302 29.5939 837.119 29.4482 836.818ZM49.8255 831.519C49.6343 830.139 49.5473 828.805 49.5646 827.517C49.5822 826.2 49.6748 824.868 49.8426 823.523C50.0403 822.178 50.2984 820.788 50.6171 819.355C50.9661 817.892 51.3614 816.325 51.8031 814.654C51.8075 814.324 51.9013 814.026 52.0846 813.759C52.2683 813.462 52.5111 813.225 52.8129 813.05C53.1152 812.844 53.4318 812.684 53.7628 812.568C54.0938 812.453 54.409 812.397 54.7085 812.401C55.3673 812.41 55.9634 812.628 56.4968 813.054C57.0302 813.481 57.5025 813.996 57.9137 814.6C58.3549 815.205 58.7206 815.854 59.0109 816.547C59.3314 817.21 59.5933 817.783 59.7966 818.265C60.0221 819.316 60.1708 820.516 60.2426 821.865C60.3448 823.184 60.3418 824.532 60.2335 825.908C60.1253 827.284 59.8974 828.644 59.55 829.987C59.203 831.3 58.7226 832.507 58.1089 833.607C57.4952 834.707 56.7042 835.625 55.736 836.36C54.7977 837.097 53.6835 837.546 52.3934 837.708C51.7047 837.699 51.1837 837.468 50.8303 837.014C50.4774 836.53 50.2155 835.957 50.0446 835.296C49.9041 834.605 49.8235 833.915 49.8027 833.226C49.8119 832.537 49.8195 831.968 49.8255 831.519ZM52.1182 831.415C52.1142 831.715 52.1103 831.999 52.1067 832.269C52.1331 832.538 52.1594 832.808 52.1858 833.078C52.2425 833.319 52.2987 833.589 52.3546 833.889C52.4409 834.16 52.5415 834.476 52.6565 834.837L52.926 834.84C53.6446 834.85 54.2617 834.619 54.7772 834.146C55.2927 833.674 55.7351 833.066 56.1044 832.322C56.4742 831.548 56.785 830.699 57.037 829.774C57.2894 828.819 57.4815 827.893 57.6133 826.996C57.7754 826.07 57.8766 825.217 57.917 824.439C57.9877 823.632 58.0262 822.988 58.0326 822.509L58.0447 821.611C58.0499 821.221 58.0407 820.787 58.0171 820.307C57.994 819.798 57.9409 819.288 57.8579 818.778C57.8052 818.238 57.7068 817.758 57.5627 817.336C57.419 816.885 57.2291 816.523 56.9932 816.25C56.7572 815.978 56.4446 815.839 56.0553 815.834C55.3993 815.615 54.8297 815.652 54.3466 815.946C53.8934 816.239 53.5123 816.743 53.2032 817.458C52.9245 818.143 52.7035 818.993 52.5402 820.01C52.3768 821.026 52.272 822.147 52.2256 823.375C52.1793 824.602 52.1469 825.905 52.1285 827.282C52.14 828.66 52.1366 830.038 52.1182 831.415ZM71.9977 829.749C71.689 830.434 71.2891 831.222 70.798 832.114C70.3368 833.006 69.7864 833.853 69.1467 834.653C68.537 835.453 67.8241 836.133 67.008 836.691C66.1918 837.249 65.2897 837.521 64.3015 837.508C63.8523 837.502 63.4936 837.452 63.2252 837.359C62.9873 837.236 62.7649 837.068 62.5581 836.856C62.3812 836.644 62.2049 836.387 62.0293 836.085C61.8836 835.784 61.6933 835.452 61.4586 835.089C61.3883 833.621 61.3495 832.048 61.3419 830.37C61.3647 828.663 61.4772 826.973 61.6793 825.298C61.8818 823.594 62.2026 821.996 62.6419 820.504C63.1111 819.013 63.742 817.748 64.5346 816.711C65.3571 815.673 66.3703 814.938 67.5741 814.505C68.7779 814.072 70.2306 814.061 71.9323 814.473C72.0333 813.636 72.0633 812.513 72.0223 811.105C71.9812 809.697 71.9112 808.213 71.8122 806.655C71.7132 805.096 71.6135 803.597 71.5129 802.158C71.4127 800.689 71.3539 799.49 71.3363 798.562C71.3399 798.292 71.4623 798.099 71.7035 797.983C71.975 797.836 72.2607 797.75 72.5605 797.724C72.8604 797.698 73.1449 797.702 73.414 797.736C73.713 797.77 73.9071 797.817 73.9961 797.878C73.887 801.561 73.8236 805.184 73.8059 808.748C73.7886 812.282 73.7713 815.816 73.754 819.35C73.7671 822.854 73.7803 826.344 73.7938 829.818C73.8072 833.292 73.7908 836.766 73.7443 840.24C73.7399 840.57 73.7054 840.914 73.6407 841.272C73.6055 841.661 73.3484 841.852 72.8693 841.846C72.6896 841.843 72.5107 841.781 72.3326 841.659C72.1542 841.567 72.0364 841.415 71.9793 841.205L71.9977 829.749ZM70.2403 816.697C69.3128 816.625 68.4394 816.987 67.6201 817.785C66.8311 818.553 66.1287 819.562 65.513 820.812C64.9273 822.062 64.4445 823.448 64.0647 824.971C63.6854 826.463 63.4414 827.913 63.3327 829.319C63.2544 830.695 63.3278 831.924 63.553 833.006C63.8081 834.087 64.2624 834.827 64.916 835.225C65.5748 835.234 66.1921 834.988 66.7679 834.486C67.344 833.955 67.8771 833.288 68.367 832.486C68.8569 831.684 69.2882 830.791 69.6607 829.808C70.0337 828.794 70.3462 827.825 70.5981 826.9C70.88 825.975 71.0859 825.139 71.2157 824.392C71.3758 823.616 71.4585 823.033 71.4637 822.644C71.4677 822.344 71.4891 821.865 71.5278 821.207C71.5666 820.548 71.5604 819.889 71.5093 819.23C71.4582 818.57 71.3313 817.985 71.1285 817.473C70.9556 816.961 70.6596 816.703 70.2403 816.697ZM78.0365 828.347C77.8863 828.375 77.6612 828.417 77.3609 828.473C77.0607 828.529 76.746 828.54 76.417 828.505C76.088 828.471 75.8048 828.377 75.5672 828.224C75.2997 828.071 75.1683 827.815 75.1731 827.455C75.1759 827.246 75.2229 827.097 75.3139 827.008C75.4049 826.919 75.5565 826.787 75.7685 826.61C76.4345 826.08 76.9977 825.398 77.4581 824.566C77.9488 823.704 78.3952 822.796 78.7973 821.843C79.1998 820.86 79.6171 819.892 80.0491 818.94C80.5115 817.958 81.0324 817.081 81.6117 816.31C82.1911 815.539 82.9032 814.92 83.7481 814.452C84.593 813.984 85.6291 813.773 86.8564 813.819C87.3655 813.826 87.9329 813.953 88.5585 814.201C89.1842 814.449 89.7637 814.787 90.2971 815.213C90.8309 815.61 91.2737 816.095 91.6254 816.668C91.9772 817.242 92.1484 817.873 92.1392 818.562C92.2857 818.804 92.1314 819.146 91.6762 819.589C91.251 820.033 90.6605 820.519 89.9046 821.048C89.1492 821.547 88.2885 822.075 87.3227 822.631C86.3872 823.158 85.482 823.655 84.6072 824.122C83.7324 824.59 82.9632 824.999 82.2996 825.349C81.636 825.7 81.1982 825.963 80.9862 826.14C80.8324 826.438 80.708 826.781 80.613 827.169C80.518 827.557 80.4381 827.93 80.3734 828.289C80.3391 828.618 80.3049 828.932 80.271 829.231C80.2674 829.5 80.2646 829.71 80.2626 829.86C80.2549 830.429 80.2166 831.057 80.1475 831.745C80.1083 832.433 80.1295 833.092 80.2109 833.722C80.3227 834.323 80.5704 834.835 80.9541 835.26C81.3382 835.654 81.9944 835.858 82.9227 835.87C83.9109 835.883 84.8424 835.656 85.7172 835.189C86.5924 834.691 87.4091 834.088 88.1674 833.38C88.9256 832.671 89.6098 831.901 90.2199 831.071C90.86 830.241 91.4244 829.47 91.9131 828.757C92.4322 828.016 92.8896 827.408 93.2852 826.934C93.6809 826.46 94.0135 826.225 94.283 826.228C94.5825 826.232 94.8961 826.296 95.2239 826.421C95.5821 826.515 95.7585 826.757 95.7533 827.146C95.7461 827.685 95.5129 828.326 95.0537 829.069C94.6245 829.812 94.0449 830.598 93.315 831.427C92.6151 832.256 91.7954 833.084 90.8558 833.91C89.9467 834.706 89.0235 835.428 88.0864 836.074C87.1497 836.69 86.2294 837.202 85.3254 837.61C84.4219 837.987 83.6257 838.171 82.937 838.162C81.5894 838.144 80.5757 837.801 79.8958 837.133C79.2158 836.465 78.7328 835.635 78.4465 834.642C78.1902 833.651 78.0545 832.6 78.0394 831.492C78.0546 830.354 78.0536 829.306 78.0365 828.347ZM86.4635 816.33C85.9544 816.323 85.412 816.57 84.8362 817.072C84.2609 817.543 83.7138 818.135 83.1952 818.847C82.7068 819.529 82.293 820.243 81.9536 820.987C81.6445 821.702 81.4868 822.298 81.4804 822.778C81.9295 822.784 82.5756 822.627 83.4184 822.309C84.2917 821.962 85.1509 821.539 85.9962 821.041C86.8414 820.543 87.5823 820.014 88.2188 819.453C88.8552 818.893 89.1768 818.358 89.1837 817.849C89.1873 817.579 89.0854 817.353 88.8782 817.171C88.671 816.988 88.4185 816.835 88.1206 816.711C87.8527 816.588 87.5694 816.494 87.2708 816.431C86.9721 816.367 86.703 816.333 86.4635 816.33ZM118.696 828.262C118.8 827.185 118.905 826.018 119.012 824.762C119.119 823.475 119.271 822.204 119.467 820.949C119.694 819.694 119.964 818.5 120.279 817.366C120.623 816.232 121.056 815.235 121.577 814.373C122.128 813.482 122.796 812.787 123.581 812.289C124.367 811.76 125.314 811.518 126.421 811.563C127.17 811.573 127.735 811.895 128.116 812.529C128.526 813.163 128.801 813.931 128.938 814.831C129.106 815.732 129.184 816.661 129.171 817.62C129.188 818.548 129.193 819.312 129.185 819.911C128.586 819.903 128.095 819.642 127.713 819.128C127.331 818.583 127.04 817.965 126.839 817.274C126.639 816.582 126.498 815.907 126.417 815.247L126.3 813.942C126.27 813.942 126.21 813.941 126.12 813.94C126.061 813.909 126.016 813.893 125.986 813.893C125.477 813.886 124.994 814.164 124.537 814.727C124.11 815.291 123.696 816.019 123.295 816.912C122.924 817.776 122.596 818.76 122.312 819.864C122.028 820.938 121.789 821.999 121.596 823.044C121.402 824.09 121.239 825.061 121.107 825.958C121.006 826.825 120.952 827.498 120.946 827.977C120.875 828.755 120.864 829.609 120.911 830.538C120.959 831.467 121.127 832.338 121.416 833.15C121.704 833.963 122.114 834.672 122.645 835.278C123.176 835.854 123.89 836.253 124.786 836.475C125.894 836.49 126.794 836.352 127.487 836.062C128.179 835.771 128.739 835.375 129.165 834.871C129.621 834.368 129.973 833.804 130.221 833.178C130.469 832.552 130.702 831.912 130.92 831.256C131.169 830.57 131.418 829.899 131.666 829.244C131.914 828.588 132.267 827.979 132.724 827.416C133.084 827.331 133.339 827.349 133.487 827.471C133.665 827.563 133.783 827.7 133.841 827.88C133.898 828.061 133.925 828.271 133.922 828.51L133.915 829.004C133.899 830.262 133.673 831.472 133.238 832.634C132.803 833.797 132.175 834.836 131.354 835.754C130.534 836.641 129.551 837.362 128.405 837.916C127.29 838.44 126.014 838.693 124.576 838.673C123.379 838.657 122.38 838.27 121.582 837.51C120.814 836.721 120.212 835.785 119.778 834.701C119.373 833.617 119.088 832.49 118.924 831.32C118.761 830.12 118.684 829.1 118.696 828.262ZM136.562 832.679C136.371 831.298 136.284 829.964 136.301 828.677C136.319 827.359 136.411 826.028 136.579 824.682C136.777 823.337 137.035 821.948 137.353 820.514C137.703 819.051 138.098 817.484 138.539 815.813C138.544 815.484 138.638 815.185 138.821 814.918C139.005 814.621 139.247 814.385 139.549 814.209C139.852 814.004 140.168 813.843 140.499 813.728C140.83 813.612 141.145 813.557 141.445 813.561C142.104 813.569 142.7 813.787 143.233 814.213C143.767 814.64 144.239 815.155 144.65 815.76C145.091 816.365 145.457 817.014 145.747 817.706C146.068 818.37 146.33 818.942 146.533 819.424C146.759 820.475 146.907 821.675 146.979 823.024C147.081 824.343 147.078 825.691 146.97 827.067C146.862 828.444 146.634 829.803 146.286 831.146C145.939 832.46 145.459 833.666 144.845 834.766C144.232 835.866 143.441 836.784 142.472 837.52C141.534 838.256 140.42 838.705 139.13 838.868C138.441 838.859 137.92 838.627 137.567 838.173C137.214 837.689 136.952 837.117 136.781 836.455C136.64 835.765 136.56 835.075 136.539 834.386C136.548 833.697 136.556 833.128 136.562 832.679ZM138.855 832.575C138.851 832.874 138.847 833.158 138.843 833.428C138.869 833.698 138.896 833.968 138.922 834.238C138.979 834.478 139.035 834.748 139.091 835.049C139.177 835.319 139.278 835.635 139.393 835.996L139.662 836C140.381 836.009 140.998 835.778 141.514 835.306C142.029 834.833 142.471 834.225 142.841 833.481C143.211 832.708 143.521 831.858 143.773 830.933C144.026 829.978 144.218 829.052 144.35 828.155C144.512 827.229 144.613 826.377 144.653 825.599C144.724 824.791 144.763 824.148 144.769 823.668L144.781 822.77C144.786 822.381 144.777 821.946 144.754 821.467C144.73 820.957 144.677 820.448 144.594 819.937C144.542 819.397 144.443 818.917 144.299 818.496C144.155 818.045 143.966 817.683 143.73 817.41C143.494 817.137 143.181 816.998 142.792 816.993C142.136 816.775 141.566 816.812 141.083 817.105C140.63 817.398 140.249 817.902 139.94 818.617C139.661 819.302 139.44 820.153 139.277 821.169C139.113 822.185 139.008 823.307 138.962 824.534C138.916 825.762 138.883 827.064 138.865 828.442C138.876 829.819 138.873 831.197 138.855 832.575ZM150.682 838.438C150.406 834.391 150.161 830.345 149.945 826.298C149.76 822.223 149.547 817.997 149.306 813.621C149.316 812.902 149.71 812.548 150.488 812.558L150.848 812.563C150.938 812.564 151.041 812.686 151.157 812.927C151.274 813.168 151.388 813.619 151.499 814.279C151.64 814.91 151.777 815.885 151.909 817.205C152.071 818.495 152.258 820.189 152.47 822.289C152.681 824.388 152.916 827.012 153.173 830.16C153.829 828.132 154.35 826.163 154.735 824.251C155.12 822.339 155.607 820.609 156.197 819.059C156.787 817.48 157.599 816.098 158.633 814.914C159.697 813.73 161.207 812.866 163.161 812.323C164.236 812.517 165.096 813.188 165.739 814.335C166.383 815.451 166.889 816.836 167.256 818.488C167.624 820.14 167.869 821.941 167.993 823.889C168.117 825.808 168.182 827.65 168.188 829.418C168.195 831.185 168.189 832.772 168.17 834.179C168.151 835.557 168.168 836.546 168.22 837.145C168.127 837.384 167.989 837.591 167.807 837.769C167.625 837.946 167.414 838.078 167.173 838.165C166.963 838.222 166.753 838.234 166.544 838.201C166.335 838.138 166.142 837.971 165.966 837.699C165.971 837.37 165.95 836.696 165.903 835.677C165.857 834.658 165.798 833.474 165.726 832.125C165.655 830.746 165.569 829.293 165.47 827.764C165.401 826.206 165.331 824.752 165.259 823.403C165.217 822.025 165.173 820.826 165.127 819.807C165.081 818.788 165.045 818.114 165.019 817.784C164.405 816.668 163.785 816.031 163.158 815.873C162.561 815.715 161.945 815.901 161.309 816.432C160.703 816.963 160.108 817.779 159.524 818.879C158.94 819.979 158.384 821.23 157.856 822.63C157.329 824.001 156.83 825.447 156.361 826.968C155.891 828.489 155.482 829.966 155.133 831.399C154.785 832.802 154.484 834.086 154.228 835.251C154.004 836.386 153.857 837.268 153.789 837.896C153.696 838.104 153.499 838.311 153.196 838.517C152.924 838.693 152.623 838.824 152.293 838.909C151.992 838.995 151.677 839.021 151.348 838.986C151.049 838.922 150.827 838.74 150.682 838.438ZM172.491 820.13C172.189 820.276 171.903 820.437 171.631 820.613C171.389 820.76 171.148 820.906 170.906 821.053C170.665 821.169 170.424 821.256 170.184 821.313C169.943 821.369 169.689 821.366 169.42 821.302C169.24 821.3 169.092 821.193 168.975 820.982C168.858 820.741 168.772 820.485 168.716 820.215C168.63 819.914 168.574 819.629 168.548 819.359C168.522 819.059 168.525 818.834 168.557 818.685L172.902 816.272L173.325 804.777C173.39 804.388 173.632 804.242 174.05 804.337C174.468 804.403 174.901 804.499 175.349 804.624C175.408 804.625 175.498 804.656 175.617 804.718C175.766 804.75 175.871 804.781 175.93 804.812C175.859 805.62 175.773 806.502 175.67 807.459C175.598 808.386 175.525 809.329 175.453 810.286C175.38 811.214 175.323 812.127 175.281 813.025C175.269 813.923 175.303 814.732 175.384 815.452L182.146 813.655C182.267 813.627 182.355 813.718 182.412 813.929C182.5 814.109 182.572 814.335 182.628 814.605C182.714 814.876 182.77 815.146 182.797 815.416C182.823 815.686 182.836 815.821 182.836 815.821L175.157 818.953C175.153 819.223 175.16 819.867 175.176 820.885C175.222 821.904 175.266 823.118 175.307 824.526C175.349 825.904 175.389 827.402 175.427 829.02C175.465 830.608 175.506 832.091 175.547 833.469C175.589 834.848 175.617 836.061 175.633 837.11C175.649 838.128 175.656 838.772 175.652 839.042C175.58 839.939 175.305 840.385 174.826 840.378C174.377 840.372 173.885 840.141 173.352 839.685L172.491 820.13ZM183.663 817.809L183.668 817.45C183.672 817.15 183.78 816.942 183.991 816.825C184.232 816.708 184.502 816.652 184.802 816.656C185.041 816.659 185.266 816.692 185.474 816.755C185.684 816.788 185.846 816.955 185.962 817.256C186.046 817.706 186.127 818.336 186.206 819.146C186.286 819.926 186.379 820.795 186.486 821.755C186.593 822.715 186.699 823.735 186.804 824.814C186.94 825.864 187.061 826.869 187.168 827.829C187.306 828.76 187.444 829.6 187.584 830.351C187.724 831.101 187.881 831.672 188.055 832.064C188.004 829.188 188.127 826.704 188.424 824.611C188.722 822.489 189.254 820.774 190.021 819.466C190.817 818.129 191.878 817.215 193.202 816.723C194.557 816.202 196.235 816.105 198.238 816.431C199.166 816.444 199.624 816.944 199.61 817.932C199.605 818.321 199.347 818.588 198.836 818.731C198.325 818.843 197.755 818.926 197.125 818.977C196.496 818.999 195.882 819.035 195.282 819.087C194.682 819.139 194.246 819.283 193.973 819.519C192.887 820.104 192.111 821.022 191.645 822.273C191.209 823.525 190.89 825.004 190.688 826.708C190.485 828.413 190.325 830.283 190.208 832.318C190.122 834.323 189.899 836.387 189.541 838.508C189.537 838.808 189.415 839.031 189.173 839.177C188.932 839.324 188.631 839.395 188.272 839.39C187.942 839.386 187.614 839.306 187.287 839.152C186.989 838.998 186.753 838.771 186.577 838.469L183.663 817.809ZM201.648 833.549C201.457 832.168 201.37 830.834 201.387 829.547C201.405 828.229 201.497 826.898 201.665 825.552C201.863 824.207 202.121 822.818 202.439 821.384C202.788 819.921 203.184 818.354 203.625 816.683C203.63 816.354 203.724 816.055 203.907 815.788C204.091 815.491 204.333 815.255 204.635 815.079C204.938 814.874 205.254 814.713 205.585 814.598C205.916 814.482 206.231 814.427 206.531 814.431C207.19 814.439 207.786 814.657 208.319 815.083C208.853 815.51 209.325 816.025 209.736 816.63C210.177 817.235 210.543 817.884 210.833 818.576C211.154 819.24 211.416 819.812 211.619 820.294C211.844 821.345 211.993 822.545 212.065 823.894C212.167 825.213 212.164 826.561 212.056 827.937C211.948 829.314 211.72 830.673 211.372 832.016C211.025 833.33 210.545 834.536 209.931 835.636C209.318 836.736 208.527 837.654 207.558 838.39C206.62 839.126 205.506 839.575 204.216 839.738C203.527 839.729 203.006 839.497 202.653 839.043C202.3 838.559 202.038 837.987 201.867 837.325C201.726 836.635 201.646 835.945 201.625 835.256C201.634 834.567 201.642 833.998 201.648 833.549ZM203.941 833.445C203.937 833.744 203.933 834.029 203.929 834.298C203.955 834.568 203.982 834.838 204.008 835.108C204.065 835.348 204.121 835.618 204.177 835.919C204.263 836.189 204.364 836.505 204.479 836.866L204.748 836.87C205.467 836.879 206.084 836.648 206.6 836.176C207.115 835.703 207.557 835.095 207.927 834.351C208.297 833.578 208.607 832.728 208.859 831.803C209.112 830.848 209.304 829.922 209.436 829.025C209.598 828.099 209.699 827.247 209.739 826.469C209.81 825.661 209.849 825.018 209.855 824.538L209.867 823.64C209.872 823.251 209.863 822.816 209.84 822.337C209.816 821.827 209.763 821.318 209.68 820.807C209.628 820.267 209.529 819.787 209.385 819.366C209.241 818.915 209.051 818.553 208.816 818.28C208.58 818.007 208.267 817.868 207.878 817.863C207.222 817.645 206.652 817.682 206.169 817.975C205.716 818.268 205.335 818.772 205.026 819.487C204.747 820.172 204.526 821.023 204.363 822.039C204.199 823.055 204.094 824.177 204.048 825.404C204.002 826.632 203.969 827.934 203.951 829.312C203.962 830.689 203.959 832.067 203.941 833.445ZM214.847 837.589C215.075 836.214 215.233 834.494 215.32 832.429C215.438 830.364 215.497 828.163 215.498 825.827C215.53 823.491 215.517 821.08 215.46 818.593C215.404 816.107 215.315 813.754 215.195 811.536C215.076 809.289 214.923 807.28 214.737 805.51C214.581 803.741 214.405 802.346 214.209 801.325C214.481 801.149 214.707 801.017 214.888 800.93C215.099 800.813 215.339 800.756 215.609 800.76C215.819 800.763 215.998 800.81 216.146 800.902C216.295 800.964 216.413 801.115 216.499 801.356C217.02 807.233 217.345 813.153 217.475 819.114C217.635 825.077 217.735 831.008 217.776 836.909C217.773 837.179 217.768 837.553 217.761 838.032C217.755 838.481 217.737 838.721 217.707 838.75C217.285 838.954 216.909 839.054 216.58 839.05C216.251 839.015 215.952 838.921 215.685 838.768C215.418 838.585 215.211 838.387 215.064 838.176C214.917 837.964 214.845 837.768 214.847 837.589ZM221.18 837.673C221.408 836.299 221.566 834.579 221.654 832.513C221.771 830.448 221.831 828.248 221.832 825.912C221.863 823.576 221.85 821.165 221.794 818.678C221.737 816.191 221.649 813.839 221.529 811.621C221.409 809.373 221.256 807.364 221.07 805.595C220.914 803.826 220.738 802.431 220.542 801.41C220.814 801.234 221.04 801.102 221.221 801.014C221.432 800.897 221.673 800.841 221.942 800.844C222.152 800.847 222.331 800.895 222.48 800.986C222.628 801.048 222.746 801.2 222.833 801.44C223.353 807.318 223.679 813.237 223.808 819.199C223.968 825.161 224.069 831.093 224.11 836.994C224.106 837.263 224.101 837.638 224.095 838.117C224.089 838.566 224.071 838.805 224.04 838.835C223.618 839.039 223.242 839.139 222.913 839.134C222.584 839.1 222.286 839.006 222.018 838.853C221.751 838.669 221.544 838.472 221.397 838.26C221.25 838.049 221.178 837.853 221.18 837.673ZM227.972 830.351C227.822 830.379 227.597 830.421 227.297 830.477C226.996 830.533 226.682 830.544 226.353 830.51C226.024 830.475 225.741 830.382 225.503 830.229C225.236 830.075 225.104 829.819 225.109 829.46C225.112 829.25 225.159 829.101 225.25 829.012C225.341 828.924 225.492 828.791 225.704 828.614C226.37 828.084 226.933 827.402 227.394 826.57C227.885 825.708 228.331 824.8 228.733 823.847C229.136 822.864 229.553 821.897 229.985 820.944C230.447 819.962 230.968 819.085 231.548 818.314C232.127 817.543 232.839 816.924 233.684 816.456C234.529 815.988 235.565 815.777 236.792 815.824C237.301 815.83 237.869 815.958 238.494 816.206C239.12 816.454 239.7 816.791 240.233 817.217C240.767 817.614 241.21 818.099 241.561 818.673C241.913 819.246 242.084 819.878 242.075 820.566C242.222 820.808 242.067 821.15 241.612 821.594C241.187 822.037 240.596 822.523 239.84 823.052C239.085 823.551 238.224 824.079 237.259 824.635C236.323 825.162 235.418 825.659 234.543 826.126C233.668 826.594 232.899 827.003 232.235 827.353C231.572 827.704 231.134 827.968 230.922 828.145C230.768 828.442 230.644 828.785 230.549 829.173C230.454 829.561 230.374 829.934 230.309 830.293C230.275 830.622 230.241 830.936 230.207 831.235C230.203 831.504 230.2 831.714 230.198 831.864C230.191 832.433 230.152 833.061 230.083 833.749C230.044 834.437 230.065 835.097 230.147 835.727C230.259 836.327 230.506 836.84 230.89 837.264C231.274 837.659 231.93 837.862 232.859 837.874C233.847 837.888 234.778 837.661 235.653 837.193C236.528 836.696 237.345 836.092 238.103 835.384C238.861 834.675 239.546 833.906 240.156 833.075C240.796 832.245 241.36 831.474 241.849 830.762C242.368 830.02 242.825 829.412 243.221 828.938C243.617 828.464 243.949 828.229 244.219 828.232C244.518 828.236 244.832 828.301 245.16 828.425C245.518 828.519 245.694 828.761 245.689 829.151C245.682 829.69 245.449 830.33 244.99 831.073C244.56 831.816 243.981 832.602 243.251 833.431C242.551 834.26 241.731 835.088 240.792 835.914C239.883 836.71 238.959 837.432 238.022 838.078C237.086 838.695 236.165 839.207 235.261 839.614C234.358 839.991 233.562 840.175 232.873 840.166C231.525 840.148 230.512 839.805 229.832 839.137C229.152 838.469 228.669 837.639 228.382 836.647C228.126 835.655 227.99 834.605 227.975 833.496C227.99 832.358 227.989 831.31 227.972 830.351ZM236.399 818.334C235.89 818.327 235.348 818.575 234.772 819.076C234.197 819.548 233.65 820.139 233.131 820.851C232.643 821.534 232.229 822.247 231.889 822.991C231.58 823.706 231.423 824.303 231.416 824.782C231.865 824.788 232.511 824.632 233.354 824.313C234.227 823.966 235.087 823.543 235.932 823.045C236.777 822.547 237.518 822.018 238.155 821.457C238.791 820.897 239.113 820.362 239.119 819.853C239.123 819.584 239.021 819.358 238.814 819.175C238.607 818.993 238.354 818.839 238.056 818.716C237.789 818.592 237.505 818.499 237.207 818.435C236.908 818.371 236.639 818.337 236.399 818.334ZM248.076 818.67L248.08 818.311C248.084 818.011 248.192 817.803 248.403 817.686C248.644 817.569 248.915 817.513 249.214 817.517C249.454 817.52 249.678 817.553 249.887 817.616C250.096 817.649 250.258 817.816 250.374 818.117C250.458 818.567 250.539 819.197 250.618 820.007C250.698 820.787 250.791 821.656 250.898 822.616C251.005 823.576 251.111 824.596 251.217 825.675C251.352 826.725 251.474 827.73 251.581 828.69C251.718 829.621 251.856 830.461 251.996 831.212C252.136 831.962 252.293 832.533 252.467 832.925C252.416 830.049 252.539 827.565 252.837 825.472C253.135 823.35 253.667 821.635 254.433 820.327C255.229 818.99 256.29 818.076 257.614 817.584C258.969 817.063 260.648 816.966 262.65 817.292C263.578 817.305 264.036 817.805 264.023 818.793C264.017 819.182 263.759 819.449 263.248 819.592C262.737 819.704 262.167 819.787 261.538 819.838C260.908 819.86 260.294 819.896 259.694 819.948C259.095 820 258.658 820.144 258.386 820.38C257.3 820.965 256.524 821.883 256.058 823.134C255.622 824.386 255.302 825.865 255.1 827.569C254.897 829.274 254.738 831.144 254.62 833.179C254.534 835.184 254.312 837.248 253.954 839.369C253.95 839.669 253.827 839.892 253.585 840.038C253.344 840.185 253.043 840.256 252.684 840.251C252.355 840.247 252.026 840.167 251.699 840.013C251.401 839.859 251.165 839.632 250.989 839.33L248.076 818.67Z" fill="#333333"/>
<path d="M506.905 597.197C507.565 596.697 507.696 595.756 507.197 595.095L499.055 584.327C498.555 583.666 497.614 583.536 496.953 584.035C496.293 584.535 496.162 585.476 496.662 586.136L503.899 595.708L494.327 602.946C493.666 603.445 493.535 604.386 494.035 605.047C494.535 605.708 495.475 605.838 496.136 605.339L506.905 597.197ZM139.496 798.103C139.961 791.374 144.667 782.944 153.138 773.245C161.556 763.605 173.487 752.938 187.979 741.75C216.956 719.379 256.006 695.047 297.212 672.82C338.415 650.596 381.726 630.502 419.209 616.594C437.952 609.639 455.214 604.241 470.011 600.893C484.842 597.537 497.066 596.274 505.794 597.486L506.206 594.514C496.934 593.227 484.283 594.588 469.349 597.967C454.38 601.353 436.985 606.798 418.166 613.781C380.524 627.748 337.085 647.904 295.788 670.18C254.494 692.453 215.294 716.872 186.146 739.375C171.575 750.624 159.476 761.426 150.878 771.271C142.333 781.056 137.039 790.127 136.504 797.897L139.496 798.103Z" fill="black"/>
<defs>
<clipPath id="clip0_14_10437">
<rect width="220" height="228" fill="white" transform="translate(371 552)"/>
</clipPath>
<clipPath id="clip1_14_10437">
<rect width="220" height="228" fill="white" transform="translate(614 552)"/>
</clipPath>
<clipPath id="clip2_14_10437">
<rect width="220" height="228" fill="white" transform="translate(334 236)"/>
</clipPath>
<clipPath id="clip3_14_10437">
<rect width="295" height="46" fill="white" transform="translate(879 240)"/>
</clipPath>
<clipPath id="clip4_14_10437">
<rect width="295" height="46" fill="white" transform="translate(879 299)"/>
</clipPath>
<clipPath id="clip5_14_10437">
<rect width="295" height="46" fill="white" transform="translate(879 354)"/>
</clipPath>
</defs>
</svg>
