<svg width="1200" height="900" viewBox="0 0 1200 900" fill="none" xmlns="http://www.w3.org/2000/svg">
<rect width="1200" height="900" fill="white"/>
<rect x="71" y="159" width="1038" height="8" fill="black"/>
<path d="M74.0657 141V105.727H87.9819C90.6457 105.727 92.9192 106.204 94.8022 107.157C96.6967 108.098 98.1377 109.436 99.1252 111.17C100.124 112.892 100.624 114.919 100.624 117.249C100.624 119.592 100.118 121.607 99.108 123.295C98.0975 124.971 96.6336 126.257 94.7161 127.153C92.8101 128.048 90.5022 128.496 87.7924 128.496H78.4748V122.502H86.5868C88.0106 122.502 89.1932 122.307 90.1348 121.917C91.0763 121.527 91.7767 120.941 92.236 120.16C92.7067 119.379 92.9421 118.409 92.9421 117.249C92.9421 116.078 92.7067 115.091 92.236 114.287C91.7767 113.483 91.0706 112.875 90.1175 112.461C89.176 112.037 87.9876 111.824 86.5524 111.824H81.5233V141H74.0657ZM93.1143 124.948L101.881 141H93.6483L85.0712 124.948H93.1143ZM115.841 141.517C113.12 141.517 110.778 140.966 108.814 139.863C106.862 138.75 105.358 137.176 104.302 135.144C103.246 133.1 102.717 130.683 102.717 127.893C102.717 125.172 103.246 122.784 104.302 120.729C105.358 118.673 106.845 117.071 108.763 115.923C110.692 114.775 112.954 114.201 115.548 114.201C117.294 114.201 118.918 114.482 120.423 115.045C121.938 115.596 123.259 116.429 124.384 117.542C125.521 118.656 126.405 120.057 127.036 121.745C127.668 123.421 127.984 125.384 127.984 127.635V129.65H105.645V125.103H121.077C121.077 124.047 120.847 123.111 120.388 122.296C119.929 121.481 119.292 120.843 118.476 120.384C117.673 119.913 116.737 119.678 115.669 119.678C114.555 119.678 113.568 119.936 112.707 120.453C111.857 120.958 111.191 121.641 110.709 122.502C110.227 123.352 109.98 124.299 109.968 125.344V129.667C109.968 130.976 110.209 132.107 110.692 133.06C111.185 134.013 111.88 134.748 112.776 135.265C113.671 135.781 114.733 136.04 115.962 136.04C116.777 136.04 117.523 135.925 118.201 135.695C118.878 135.466 119.458 135.121 119.94 134.662C120.423 134.203 120.79 133.64 121.043 132.974L127.829 133.422C127.484 135.052 126.778 136.476 125.71 137.693C124.654 138.899 123.287 139.84 121.611 140.518C119.946 141.184 118.023 141.517 115.841 141.517ZM148.708 150.92V136.763H148.484C148.14 137.498 147.652 138.227 147.02 138.95C146.4 139.662 145.591 140.254 144.592 140.724C143.605 141.195 142.399 141.431 140.975 141.431C138.966 141.431 137.146 140.914 135.515 139.881C133.896 138.836 132.611 137.303 131.657 135.282C130.716 133.25 130.245 130.758 130.245 127.807C130.245 124.776 130.733 122.256 131.709 120.246C132.685 118.225 133.983 116.716 135.602 115.717C137.232 114.706 139.017 114.201 140.958 114.201C142.439 114.201 143.673 114.454 144.661 114.959C145.66 115.453 146.464 116.073 147.072 116.819C147.692 117.554 148.163 118.277 148.484 118.989H148.794V114.545H156.028V150.92H148.708ZM143.3 135.592C144.483 135.592 145.482 135.27 146.297 134.627C147.124 133.973 147.755 133.06 148.192 131.889C148.639 130.718 148.863 129.346 148.863 127.773C148.863 126.2 148.645 124.833 148.209 123.674C147.772 122.514 147.141 121.618 146.314 120.987C145.488 120.355 144.483 120.04 143.3 120.04C142.095 120.04 141.078 120.367 140.252 121.021C139.425 121.676 138.799 122.583 138.374 123.743C137.95 124.902 137.737 126.246 137.737 127.773C137.737 129.311 137.95 130.672 138.374 131.855C138.811 133.026 139.437 133.944 140.252 134.61C141.078 135.265 142.095 135.592 143.3 135.592ZM177.338 129.736V114.545H184.675V141H177.631V136.195H177.356C176.759 137.745 175.765 138.991 174.376 139.932C172.998 140.874 171.316 141.344 169.33 141.344C167.561 141.344 166.006 140.943 164.662 140.139C163.319 139.335 162.268 138.193 161.51 136.711C160.764 135.23 160.385 133.456 160.374 131.39V114.545H167.711V130.081C167.722 131.642 168.141 132.876 168.968 133.784C169.795 134.691 170.903 135.144 172.292 135.144C173.176 135.144 174.003 134.943 174.772 134.541C175.541 134.128 176.162 133.519 176.632 132.716C177.115 131.912 177.35 130.919 177.338 129.736ZM201.056 141.517C198.334 141.517 195.992 140.966 194.029 139.863C192.077 138.75 190.573 137.176 189.516 135.144C188.46 133.1 187.932 130.683 187.932 127.893C187.932 125.172 188.46 122.784 189.516 120.729C190.573 118.673 192.06 117.071 193.977 115.923C195.906 114.775 198.168 114.201 200.763 114.201C202.508 114.201 204.133 114.482 205.637 115.045C207.153 115.596 208.473 116.429 209.598 117.542C210.735 118.656 211.619 120.057 212.251 121.745C212.882 123.421 213.198 125.384 213.198 127.635V129.65H190.86V125.103H206.291C206.291 124.047 206.062 123.111 205.603 122.296C205.143 121.481 204.506 120.843 203.691 120.384C202.887 119.913 201.951 119.678 200.883 119.678C199.77 119.678 198.782 119.936 197.921 120.453C197.071 120.958 196.405 121.641 195.923 122.502C195.441 123.352 195.194 124.299 195.183 125.344V129.667C195.183 130.976 195.424 132.107 195.906 133.06C196.4 134.013 197.094 134.748 197.99 135.265C198.886 135.781 199.948 136.04 201.176 136.04C201.991 136.04 202.738 135.925 203.415 135.695C204.093 135.466 204.673 135.121 205.155 134.662C205.637 134.203 206.004 133.64 206.257 132.974L213.043 133.422C212.698 135.052 211.992 136.476 210.924 137.693C209.868 138.899 208.502 139.84 206.825 140.518C205.16 141.184 203.237 141.517 201.056 141.517ZM238.452 122.089L231.735 122.502C231.621 121.928 231.374 121.412 230.995 120.952C230.616 120.482 230.116 120.108 229.496 119.833C228.888 119.546 228.159 119.402 227.309 119.402C226.172 119.402 225.214 119.643 224.433 120.126C223.652 120.596 223.262 121.228 223.262 122.02C223.262 122.652 223.514 123.186 224.019 123.622C224.525 124.058 225.392 124.408 226.62 124.673L231.408 125.637C233.98 126.165 235.898 127.015 237.161 128.186C238.424 129.357 239.055 130.896 239.055 132.802C239.055 134.536 238.544 136.057 237.522 137.366C236.512 138.675 235.123 139.697 233.354 140.432C231.598 141.155 229.571 141.517 227.275 141.517C223.773 141.517 220.982 140.788 218.904 139.329C216.837 137.86 215.626 135.862 215.27 133.336L222.487 132.957C222.705 134.025 223.233 134.84 224.071 135.403C224.909 135.954 225.983 136.229 227.292 136.229C228.578 136.229 229.611 135.982 230.392 135.489C231.184 134.983 231.586 134.335 231.598 133.542C231.586 132.876 231.305 132.331 230.754 131.906C230.202 131.47 229.353 131.137 228.205 130.907L223.623 129.994C221.04 129.478 219.117 128.582 217.854 127.308C216.602 126.033 215.976 124.408 215.976 122.434C215.976 120.734 216.436 119.27 217.354 118.042C218.284 116.813 219.587 115.866 221.264 115.2C222.952 114.534 224.927 114.201 227.188 114.201C230.53 114.201 233.159 114.907 235.077 116.319C237.006 117.732 238.131 119.655 238.452 122.089ZM256.202 114.545V120.057H240.271V114.545H256.202ZM243.887 108.207H251.224V132.871C251.224 133.548 251.328 134.076 251.534 134.455C251.741 134.823 252.028 135.081 252.396 135.23C252.774 135.38 253.211 135.454 253.704 135.454C254.049 135.454 254.393 135.425 254.738 135.368C255.082 135.299 255.346 135.248 255.53 135.213L256.684 140.673C256.317 140.788 255.8 140.92 255.134 141.069C254.468 141.23 253.659 141.327 252.706 141.362C250.937 141.431 249.387 141.195 248.055 140.656C246.735 140.116 245.707 139.278 244.972 138.141C244.238 137.004 243.876 135.569 243.887 133.835V108.207ZM281.116 122.089L274.399 122.502C274.284 121.928 274.037 121.412 273.659 120.952C273.28 120.482 272.78 120.108 272.16 119.833C271.552 119.546 270.822 119.402 269.973 119.402C268.836 119.402 267.877 119.643 267.097 120.126C266.316 120.596 265.925 121.228 265.925 122.02C265.925 122.652 266.178 123.186 266.683 123.622C267.188 124.058 268.055 124.408 269.284 124.673L274.072 125.637C276.644 126.165 278.561 127.015 279.824 128.186C281.087 129.357 281.719 130.896 281.719 132.802C281.719 134.536 281.208 136.057 280.186 137.366C279.176 138.675 277.786 139.697 276.018 140.432C274.261 141.155 272.235 141.517 269.938 141.517C266.436 141.517 263.646 140.788 261.568 139.329C259.501 137.86 258.29 135.862 257.934 133.336L265.15 132.957C265.369 134.025 265.897 134.84 266.735 135.403C267.573 135.954 268.647 136.229 269.956 136.229C271.242 136.229 272.275 135.982 273.056 135.489C273.848 134.983 274.25 134.335 274.261 133.542C274.25 132.876 273.969 132.331 273.417 131.906C272.866 131.47 272.017 131.137 270.868 130.907L266.287 129.994C263.704 129.478 261.78 128.582 260.517 127.308C259.266 126.033 258.64 124.408 258.64 122.434C258.64 120.734 259.099 119.27 260.018 118.042C260.948 116.813 262.251 115.866 263.928 115.2C265.615 114.534 267.59 114.201 269.852 114.201C273.193 114.201 275.823 114.907 277.74 116.319C279.669 117.732 280.795 119.655 281.116 122.089ZM302.019 141.499C300.331 141.499 298.827 141.207 297.506 140.621C296.186 140.024 295.141 139.146 294.372 137.986C293.614 136.815 293.235 135.357 293.235 133.611C293.235 132.142 293.505 130.907 294.044 129.908C294.584 128.909 295.319 128.106 296.249 127.497C297.179 126.889 298.235 126.429 299.418 126.119C300.612 125.809 301.864 125.591 303.172 125.465C304.711 125.304 305.951 125.155 306.893 125.017C307.834 124.868 308.517 124.65 308.942 124.363C309.367 124.076 309.579 123.651 309.579 123.088V122.985C309.579 121.894 309.235 121.05 308.546 120.453C307.869 119.856 306.904 119.557 305.653 119.557C304.332 119.557 303.282 119.85 302.501 120.436C301.72 121.01 301.203 121.733 300.951 122.606L294.165 122.055C294.509 120.447 295.187 119.058 296.197 117.887C297.208 116.704 298.511 115.797 300.107 115.165C301.714 114.522 303.574 114.201 305.687 114.201C307.157 114.201 308.563 114.373 309.907 114.718C311.262 115.062 312.461 115.596 313.506 116.319C314.563 117.043 315.395 117.973 316.004 119.11C316.612 120.235 316.916 121.584 316.916 123.157V141H309.958V137.331H309.752C309.327 138.158 308.758 138.887 308.047 139.519C307.335 140.139 306.479 140.627 305.48 140.983C304.481 141.327 303.328 141.499 302.019 141.499ZM304.12 136.436C305.199 136.436 306.152 136.223 306.979 135.799C307.805 135.362 308.454 134.777 308.925 134.042C309.396 133.307 309.631 132.475 309.631 131.545V128.737C309.401 128.886 309.086 129.024 308.684 129.151C308.293 129.265 307.851 129.374 307.358 129.478C306.864 129.57 306.37 129.656 305.877 129.736C305.383 129.805 304.935 129.868 304.533 129.926C303.672 130.052 302.92 130.253 302.277 130.528C301.634 130.804 301.134 131.177 300.779 131.648C300.423 132.107 300.245 132.681 300.245 133.37C300.245 134.369 300.606 135.133 301.33 135.661C302.064 136.178 302.995 136.436 304.12 136.436ZM328.401 125.706V141H321.064V114.545H328.057V119.213H328.367C328.952 117.674 329.934 116.457 331.312 115.562C332.69 114.655 334.36 114.201 336.324 114.201C338.161 114.201 339.763 114.603 341.129 115.407C342.495 116.21 343.557 117.359 344.315 118.851C345.073 120.332 345.452 122.101 345.452 124.156V141H338.115V125.465C338.126 123.846 337.713 122.583 336.875 121.676C336.037 120.757 334.883 120.298 333.413 120.298C332.426 120.298 331.553 120.51 330.795 120.935C330.049 121.36 329.463 121.98 329.038 122.795C328.625 123.599 328.413 124.569 328.401 125.706ZM359.438 141.431C357.429 141.431 355.609 140.914 353.978 139.881C352.359 138.836 351.073 137.303 350.12 135.282C349.179 133.25 348.708 130.758 348.708 127.807C348.708 124.776 349.196 122.256 350.172 120.246C351.148 118.225 352.446 116.716 354.065 115.717C355.695 114.706 357.48 114.201 359.421 114.201C360.902 114.201 362.136 114.454 363.124 114.959C364.123 115.453 364.927 116.073 365.535 116.819C366.155 117.554 366.626 118.277 366.947 118.989H367.171V105.727H374.491V141H367.257V136.763H366.947C366.603 137.498 366.115 138.227 365.483 138.95C364.863 139.662 364.054 140.254 363.055 140.724C362.068 141.195 360.862 141.431 359.438 141.431ZM361.763 135.592C362.946 135.592 363.945 135.27 364.76 134.627C365.587 133.973 366.218 133.06 366.655 131.889C367.102 130.718 367.326 129.346 367.326 127.773C367.326 126.2 367.108 124.833 366.672 123.674C366.235 122.514 365.604 121.618 364.777 120.987C363.951 120.355 362.946 120.04 361.763 120.04C360.558 120.04 359.541 120.367 358.715 121.021C357.888 121.676 357.262 122.583 356.837 123.743C356.413 124.902 356.2 126.246 356.2 127.773C356.2 129.311 356.413 130.672 356.837 131.855C357.274 133.026 357.9 133.944 358.715 134.61C359.541 135.265 360.558 135.592 361.763 135.592ZM395.996 105.727V141H388.659V105.727H395.996ZM400.329 141V114.545H407.666V141H400.329ZM404.015 111.135C402.924 111.135 401.988 110.774 401.207 110.05C400.438 109.315 400.054 108.437 400.054 107.415C400.054 106.405 400.438 105.538 401.207 104.814C401.988 104.08 402.924 103.712 404.015 103.712C405.106 103.712 406.036 104.08 406.805 104.814C407.586 105.538 407.976 106.405 407.976 107.415C407.976 108.437 407.586 109.315 406.805 110.05C406.036 110.774 405.106 111.135 404.015 111.135ZM411.999 141V114.545H418.991V119.213H419.301C419.853 117.663 420.771 116.44 422.057 115.544C423.343 114.649 424.882 114.201 426.673 114.201C428.487 114.201 430.031 114.655 431.306 115.562C432.58 116.457 433.43 117.674 433.855 119.213H434.13C434.67 117.697 435.646 116.486 437.058 115.579C438.482 114.66 440.164 114.201 442.105 114.201C444.573 114.201 446.577 114.988 448.116 116.561C449.666 118.122 450.441 120.338 450.441 123.209V141H443.121V124.655C443.121 123.186 442.73 122.083 441.95 121.349C441.169 120.614 440.193 120.246 439.022 120.246C437.69 120.246 436.651 120.671 435.904 121.521C435.158 122.359 434.785 123.467 434.785 124.845V141H427.672V124.5C427.672 123.203 427.299 122.17 426.552 121.4C425.817 120.631 424.847 120.246 423.642 120.246C422.826 120.246 422.092 120.453 421.437 120.866C420.794 121.268 420.283 121.837 419.904 122.571C419.525 123.295 419.336 124.144 419.336 125.12V141H411.999ZM454.692 141V114.545H462.029V141H454.692ZM458.377 111.135C457.287 111.135 456.351 110.774 455.57 110.05C454.801 109.315 454.416 108.437 454.416 107.415C454.416 106.405 454.801 105.538 455.57 104.814C456.351 104.08 457.287 103.712 458.377 103.712C459.468 103.712 460.398 104.08 461.167 104.814C461.948 105.538 462.339 106.405 462.339 107.415C462.339 108.437 461.948 109.315 461.167 110.05C460.398 110.774 459.468 111.135 458.377 111.135ZM480.433 114.545V120.057H464.501V114.545H480.433ZM468.118 108.207H475.455V132.871C475.455 133.548 475.558 134.076 475.765 134.455C475.972 134.823 476.259 135.081 476.626 135.23C477.005 135.38 477.441 135.454 477.935 135.454C478.28 135.454 478.624 135.425 478.969 135.368C479.313 135.299 479.577 135.248 479.761 135.213L480.915 140.673C480.547 140.788 480.031 140.92 479.365 141.069C478.699 141.23 477.889 141.327 476.936 141.362C475.168 141.431 473.618 141.195 472.286 140.656C470.966 140.116 469.938 139.278 469.203 138.141C468.468 137.004 468.107 135.569 468.118 133.835V108.207ZM505.347 122.089L498.63 122.502C498.515 121.928 498.268 121.412 497.889 120.952C497.51 120.482 497.011 120.108 496.391 119.833C495.782 119.546 495.053 119.402 494.204 119.402C493.067 119.402 492.108 119.643 491.327 120.126C490.547 120.596 490.156 121.228 490.156 122.02C490.156 122.652 490.409 123.186 490.914 123.622C491.419 124.058 492.286 124.408 493.515 124.673L498.303 125.637C500.875 126.165 502.792 127.015 504.055 128.186C505.318 129.357 505.95 130.896 505.95 132.802C505.95 134.536 505.439 136.057 504.417 137.366C503.406 138.675 502.017 139.697 500.249 140.432C498.492 141.155 496.465 141.517 494.169 141.517C490.667 141.517 487.877 140.788 485.799 139.329C483.732 137.86 482.521 135.862 482.165 133.336L489.381 132.957C489.599 134.025 490.127 134.84 490.966 135.403C491.804 135.954 492.877 136.229 494.186 136.229C495.472 136.229 496.506 135.982 497.286 135.489C498.079 134.983 498.481 134.335 498.492 133.542C498.481 132.876 498.199 132.331 497.648 131.906C497.097 131.47 496.247 131.137 495.099 130.907L490.518 129.994C487.934 129.478 486.011 128.582 484.748 127.308C483.497 126.033 482.871 124.408 482.871 122.434C482.871 120.734 483.33 119.27 484.249 118.042C485.179 116.813 486.482 115.866 488.158 115.2C489.846 114.534 491.821 114.201 494.083 114.201C497.424 114.201 500.054 114.907 501.971 116.319C503.9 117.732 505.025 119.655 505.347 122.089Z" fill="black"/>
<path d="M102.154 316.636V377H89.392V328.75H89.0384L75.2148 337.416V326.098L90.1584 316.636H102.154ZM117.616 377.766C115.67 377.766 114 377.079 112.605 375.703C111.23 374.308 110.542 372.638 110.542 370.692C110.542 368.767 111.23 367.116 112.605 365.741C114 364.365 115.67 363.678 117.616 363.678C119.502 363.678 121.153 364.365 122.567 365.741C123.982 367.116 124.69 368.767 124.69 370.692C124.69 371.989 124.355 373.178 123.687 374.259C123.039 375.32 122.184 376.175 121.123 376.823C120.062 377.452 118.893 377.766 117.616 377.766ZM145.406 377V316.636H169.222C173.78 316.636 177.671 317.452 180.894 319.083C184.136 320.694 186.602 322.983 188.292 325.95C190.001 328.898 190.856 332.366 190.856 336.355C190.856 340.363 189.991 343.812 188.262 346.7C186.533 349.569 184.028 351.77 180.746 353.303C177.484 354.835 173.535 355.602 168.898 355.602H152.952V345.344H166.834C169.271 345.344 171.295 345.01 172.906 344.342C174.517 343.674 175.716 342.672 176.502 341.336C177.308 340 177.71 338.339 177.71 336.355C177.71 334.35 177.308 332.661 176.502 331.285C175.716 329.91 174.508 328.868 172.877 328.161C171.265 327.434 169.232 327.07 166.775 327.07H158.169V377H145.406ZM178.005 349.53L193.008 377H178.919L164.241 349.53H178.005ZM216.442 377.884C211.785 377.884 207.776 376.941 204.416 375.055C201.076 373.149 198.502 370.457 196.694 366.979C194.886 363.481 193.982 359.345 193.982 354.57C193.982 349.913 194.886 345.826 196.694 342.309C198.502 338.791 201.046 336.05 204.328 334.085C207.629 332.12 211.5 331.138 215.941 331.138C218.927 331.138 221.708 331.619 224.282 332.582C226.876 333.525 229.135 334.95 231.061 336.856C233.006 338.762 234.519 341.159 235.6 344.048C236.681 346.916 237.221 350.277 237.221 354.128V357.576H198.993V349.795H225.402C225.402 347.987 225.009 346.386 224.223 344.991C223.437 343.596 222.346 342.505 220.951 341.719C219.576 340.913 217.974 340.511 216.147 340.511C214.241 340.511 212.551 340.953 211.077 341.837C209.623 342.702 208.484 343.871 207.658 345.344C206.833 346.799 206.411 348.42 206.391 350.208V357.606C206.391 359.846 206.804 361.781 207.629 363.412C208.474 365.043 209.663 366.301 211.195 367.185C212.728 368.069 214.545 368.511 216.648 368.511C218.043 368.511 219.32 368.315 220.48 367.922C221.639 367.529 222.631 366.939 223.457 366.153C224.282 365.367 224.911 364.405 225.343 363.265L236.956 364.031C236.366 366.821 235.158 369.258 233.331 371.341C231.523 373.404 229.184 375.015 226.316 376.175C223.466 377.314 220.175 377.884 216.442 377.884ZM272.231 393.977V369.749H271.848C271.259 371.007 270.423 372.255 269.343 373.493C268.282 374.711 266.896 375.723 265.187 376.528C263.497 377.334 261.434 377.737 258.997 377.737C255.559 377.737 252.444 376.853 249.654 375.084C246.883 373.296 244.682 370.673 243.052 367.214C241.44 363.737 240.635 359.473 240.635 354.423C240.635 349.235 241.47 344.922 243.14 341.483C244.81 338.025 247.031 335.441 249.801 333.732C252.591 332.002 255.647 331.138 258.968 331.138C261.503 331.138 263.615 331.57 265.305 332.435C267.014 333.28 268.39 334.341 269.431 335.618C270.492 336.875 271.298 338.113 271.848 339.332H272.379V331.727H284.758V393.977H272.231ZM262.976 367.745C265 367.745 266.71 367.195 268.105 366.094C269.52 364.974 270.6 363.412 271.347 361.408C272.113 359.404 272.497 357.056 272.497 354.364C272.497 351.672 272.123 349.333 271.377 347.349C270.63 345.364 269.549 343.831 268.134 342.751C266.72 341.67 265 341.13 262.976 341.13C260.913 341.13 259.174 341.69 257.759 342.81C256.345 343.93 255.274 345.482 254.547 347.467C253.82 349.451 253.456 351.75 253.456 354.364C253.456 356.997 253.82 359.325 254.547 361.349C255.293 363.353 256.364 364.925 257.759 366.065C259.174 367.185 260.913 367.745 262.976 367.745ZM320.77 357.724V331.727H333.326V377H321.271V368.777H320.8C319.778 371.429 318.078 373.561 315.701 375.173C313.343 376.784 310.464 377.589 307.065 377.589C304.039 377.589 301.376 376.902 299.077 375.526C296.778 374.151 294.98 372.196 293.683 369.661C292.406 367.126 291.757 364.09 291.738 360.553V331.727H304.294V358.313C304.314 360.986 305.031 363.098 306.446 364.65C307.86 366.203 309.757 366.979 312.134 366.979C313.647 366.979 315.062 366.635 316.378 365.947C317.695 365.24 318.756 364.198 319.562 362.823C320.387 361.447 320.79 359.748 320.77 357.724ZM360.901 377.884C356.244 377.884 352.236 376.941 348.876 375.055C345.535 373.149 342.961 370.457 341.154 366.979C339.346 363.481 338.442 359.345 338.442 354.57C338.442 349.913 339.346 345.826 341.154 342.309C342.961 338.791 345.506 336.05 348.787 334.085C352.089 332.12 355.96 331.138 360.4 331.138C363.387 331.138 366.168 331.619 368.742 332.582C371.335 333.525 373.595 334.95 375.521 336.856C377.466 338.762 378.979 341.159 380.06 344.048C381.141 346.916 381.681 350.277 381.681 354.128V357.576H343.453V349.795H369.862C369.862 347.987 369.469 346.386 368.683 344.991C367.897 343.596 366.806 342.505 365.411 341.719C364.036 340.913 362.434 340.511 360.607 340.511C358.701 340.511 357.011 340.953 355.537 341.837C354.083 342.702 352.943 343.871 352.118 345.344C351.293 346.799 350.87 348.42 350.851 350.208V357.606C350.851 359.846 351.263 361.781 352.089 363.412C352.934 365.043 354.122 366.301 355.655 367.185C357.188 368.069 359.005 368.511 361.108 368.511C362.503 368.511 363.78 368.315 364.939 367.922C366.099 367.529 367.091 366.939 367.916 366.153C368.742 365.367 369.37 364.405 369.803 363.265L381.416 364.031C380.826 366.821 379.618 369.258 377.79 371.341C375.983 373.404 373.644 375.015 370.775 376.175C367.926 377.314 364.635 377.884 360.901 377.884ZM424.443 344.637L412.948 345.344C412.751 344.362 412.329 343.478 411.68 342.692C411.032 341.886 410.177 341.248 409.116 340.776C408.075 340.285 406.827 340.039 405.373 340.039C403.428 340.039 401.787 340.452 400.451 341.277C399.114 342.083 398.446 343.163 398.446 344.519C398.446 345.6 398.879 346.514 399.743 347.26C400.608 348.007 402.091 348.606 404.194 349.058L412.388 350.709C416.789 351.613 420.071 353.067 422.232 355.071C424.394 357.075 425.474 359.708 425.474 362.97C425.474 365.937 424.6 368.541 422.851 370.781C421.122 373.021 418.744 374.77 415.718 376.027C412.712 377.265 409.244 377.884 405.314 377.884C399.321 377.884 394.546 376.636 390.989 374.141C387.452 371.626 385.379 368.207 384.77 363.884L397.12 363.235C397.493 365.063 398.397 366.458 399.832 367.421C401.266 368.364 403.103 368.836 405.343 368.836C407.544 368.836 409.313 368.413 410.649 367.568C412.005 366.704 412.692 365.593 412.712 364.238C412.692 363.098 412.211 362.165 411.268 361.438C410.325 360.691 408.871 360.121 406.906 359.728L399.065 358.166C394.644 357.282 391.353 355.749 389.191 353.568C387.05 351.387 385.979 348.606 385.979 345.227C385.979 342.318 386.765 339.813 388.337 337.711C389.928 335.608 392.159 333.987 395.027 332.847C397.916 331.708 401.296 331.138 405.167 331.138C410.885 331.138 415.384 332.346 418.666 334.763C421.967 337.18 423.893 340.471 424.443 344.637ZM454.361 331.727V341.159H427.097V331.727H454.361ZM433.287 320.881H445.843V363.088C445.843 364.247 446.02 365.151 446.374 365.8C446.727 366.429 447.219 366.871 447.847 367.126C448.496 367.382 449.243 367.509 450.087 367.509C450.677 367.509 451.266 367.46 451.856 367.362C452.445 367.244 452.897 367.156 453.212 367.097L455.187 376.44C454.558 376.636 453.674 376.862 452.534 377.118C451.394 377.393 450.009 377.56 448.378 377.619C445.352 377.737 442.699 377.334 440.42 376.411C438.16 375.487 436.401 374.053 435.144 372.107C433.886 370.162 433.267 367.706 433.287 364.739V320.881ZM496.541 344.637L485.046 345.344C484.849 344.362 484.427 343.478 483.779 342.692C483.13 341.886 482.275 341.248 481.214 340.776C480.173 340.285 478.925 340.039 477.471 340.039C475.526 340.039 473.885 340.452 472.549 341.277C471.213 342.083 470.545 343.163 470.545 344.519C470.545 345.6 470.977 346.514 471.841 347.26C472.706 348.007 474.19 348.606 476.292 349.058L484.486 350.709C488.887 351.613 492.169 353.067 494.33 355.071C496.492 357.075 497.573 359.708 497.573 362.97C497.573 365.937 496.698 368.541 494.949 370.781C493.22 373.021 490.843 374.77 487.817 376.027C484.81 377.265 481.342 377.884 477.412 377.884C471.419 377.884 466.644 376.636 463.088 374.141C459.551 371.626 457.478 368.207 456.868 363.884L469.218 363.235C469.592 365.063 470.495 366.458 471.93 367.421C473.364 368.364 475.202 368.836 477.442 368.836C479.642 368.836 481.411 368.413 482.747 367.568C484.103 366.704 484.791 365.593 484.81 364.238C484.791 363.098 484.309 362.165 483.366 361.438C482.423 360.691 480.969 360.121 479.004 359.728L471.164 358.166C466.742 357.282 463.451 355.749 461.29 353.568C459.148 351.387 458.077 348.606 458.077 345.227C458.077 342.318 458.863 339.813 460.435 337.711C462.026 335.608 464.257 333.987 467.126 332.847C470.014 331.708 473.394 331.138 477.265 331.138C482.983 331.138 487.483 332.346 490.764 334.763C494.065 337.18 495.991 340.471 496.541 344.637ZM554.801 380.301L547.963 373.522L565.913 355.572H523.853V345.61H565.913L547.963 327.689L554.801 320.881L584.511 350.591L554.801 380.301ZM648.357 344.637L636.862 345.344C636.665 344.362 636.243 343.478 635.594 342.692C634.946 341.886 634.091 341.248 633.03 340.776C631.988 340.285 630.741 340.039 629.287 340.039C627.341 340.039 625.701 340.452 624.364 341.277C623.028 342.083 622.36 343.163 622.36 344.519C622.36 345.6 622.792 346.514 623.657 347.26C624.522 348.007 626.005 348.606 628.108 349.058L636.301 350.709C640.703 351.613 643.984 353.067 646.146 355.071C648.307 357.075 649.388 359.708 649.388 362.97C649.388 365.937 648.514 368.541 646.765 370.781C645.036 373.021 642.658 374.77 639.632 376.027C636.626 377.265 633.158 377.884 629.228 377.884C623.234 377.884 618.46 376.636 614.903 374.141C611.366 371.626 609.293 368.207 608.684 363.884L621.034 363.235C621.407 365.063 622.311 366.458 623.745 367.421C625.18 368.364 627.017 368.836 629.257 368.836C631.458 368.836 633.226 368.413 634.562 367.568C635.918 366.704 636.606 365.593 636.626 364.238C636.606 363.098 636.125 362.165 635.181 361.438C634.238 360.691 632.784 360.121 630.819 359.728L622.979 358.166C618.558 357.282 615.267 355.749 613.105 353.568C610.963 351.387 609.892 348.606 609.892 345.227C609.892 342.318 610.678 339.813 612.25 337.711C613.842 335.608 616.072 333.987 618.941 332.847C621.83 331.708 625.209 331.138 629.08 331.138C634.798 331.138 639.298 332.346 642.58 334.763C645.881 337.18 647.806 340.471 648.357 344.637ZM674.65 377.884C670.012 377.884 666.023 376.902 662.683 374.937C659.362 372.952 656.808 370.201 655.02 366.684C653.251 363.167 652.367 359.119 652.367 354.54C652.367 349.903 653.261 345.836 655.049 342.338C656.857 338.821 659.421 336.08 662.742 334.115C666.063 332.13 670.012 331.138 674.591 331.138C678.54 331.138 681.999 331.855 684.966 333.289C687.933 334.724 690.281 336.738 692.01 339.332C693.739 341.925 694.692 344.971 694.869 348.469H683.02C682.686 346.209 681.802 344.391 680.368 343.016C678.953 341.621 677.096 340.923 674.797 340.923C672.852 340.923 671.152 341.454 669.698 342.515C668.263 343.556 667.143 345.079 666.338 347.083C665.532 349.088 665.129 351.514 665.129 354.364C665.129 357.252 665.522 359.708 666.308 361.732C667.114 363.756 668.244 365.299 669.698 366.36C671.152 367.421 672.852 367.951 674.797 367.951C676.231 367.951 677.518 367.657 678.658 367.067C679.817 366.478 680.77 365.623 681.517 364.503C682.283 363.363 682.785 361.998 683.02 360.406H694.869C694.673 363.864 693.729 366.91 692.039 369.543C690.369 372.156 688.06 374.2 685.113 375.674C682.166 377.147 678.678 377.884 674.65 377.884ZM712.364 350.827V377H699.808V316.636H712.01V339.715H712.541C713.563 337.042 715.213 334.95 717.493 333.437C719.772 331.904 722.631 331.138 726.07 331.138C729.214 331.138 731.955 331.826 734.293 333.201C736.651 334.557 738.478 336.512 739.775 339.066C741.092 341.601 741.74 344.637 741.721 348.174V377H729.164V350.414C729.184 347.624 728.477 345.453 727.042 343.9C725.627 342.348 723.643 341.572 721.088 341.572C719.379 341.572 717.866 341.935 716.549 342.662C715.252 343.389 714.231 344.45 713.484 345.846C712.757 347.221 712.384 348.881 712.364 350.827ZM769.134 377.884C764.477 377.884 760.468 376.941 757.108 375.055C753.768 373.149 751.193 370.457 749.386 366.979C747.578 363.481 746.674 359.345 746.674 354.57C746.674 349.913 747.578 345.826 749.386 342.309C751.193 338.791 753.738 336.05 757.02 334.085C760.321 332.12 764.192 331.138 768.633 331.138C771.619 331.138 774.4 331.619 776.974 332.582C779.568 333.525 781.827 334.95 783.753 336.856C785.698 338.762 787.211 341.159 788.292 344.048C789.373 346.916 789.913 350.277 789.913 354.128V357.576H751.685V349.795H778.094C778.094 347.987 777.701 346.386 776.915 344.991C776.129 343.596 775.038 342.505 773.643 341.719C772.268 340.913 770.666 340.511 768.839 340.511C766.933 340.511 765.243 340.953 763.769 341.837C762.315 342.702 761.176 343.871 760.35 345.344C759.525 346.799 759.102 348.42 759.083 350.208V357.606C759.083 359.846 759.495 361.781 760.321 363.412C761.166 365.043 762.354 366.301 763.887 367.185C765.42 368.069 767.237 368.511 769.34 368.511C770.735 368.511 772.012 368.315 773.172 367.922C774.331 367.529 775.323 366.939 776.149 366.153C776.974 365.367 777.603 364.405 778.035 363.265L789.648 364.031C789.058 366.821 787.85 369.258 786.022 371.341C784.215 373.404 781.876 375.015 779.008 376.175C776.158 377.314 772.867 377.884 769.134 377.884ZM811.689 377.737C808.251 377.737 805.136 376.853 802.346 375.084C799.575 373.296 797.374 370.673 795.744 367.214C794.132 363.737 793.327 359.473 793.327 354.423C793.327 349.235 794.162 344.922 795.832 341.483C797.502 338.025 799.723 335.441 802.493 333.732C805.283 332.002 808.339 331.138 811.66 331.138C814.195 331.138 816.307 331.57 817.997 332.435C819.706 333.28 821.082 334.341 822.123 335.618C823.184 336.875 823.99 338.113 824.54 339.332H824.923V316.636H837.45V377H825.071V369.749H824.54C823.951 371.007 823.115 372.255 822.035 373.493C820.974 374.711 819.588 375.723 817.879 376.528C816.189 377.334 814.126 377.737 811.689 377.737ZM815.668 367.745C817.692 367.745 819.402 367.195 820.797 366.094C822.212 364.974 823.292 363.412 824.039 361.408C824.805 359.404 825.189 357.056 825.189 354.364C825.189 351.672 824.815 349.333 824.068 347.349C823.322 345.364 822.241 343.831 820.826 342.751C819.412 341.67 817.692 341.13 815.668 341.13C813.605 341.13 811.866 341.69 810.451 342.81C809.037 343.93 807.966 345.482 807.239 347.467C806.512 349.451 806.148 351.75 806.148 354.364C806.148 356.997 806.512 359.325 807.239 361.349C807.985 363.353 809.056 364.925 810.451 366.065C811.866 367.185 813.605 367.745 815.668 367.745ZM873.705 357.724V331.727H886.261V377H874.206V368.777H873.735C872.713 371.429 871.013 373.561 868.636 375.173C866.278 376.784 863.399 377.589 860 377.589C856.974 377.589 854.311 376.902 852.012 375.526C849.713 374.151 847.915 372.196 846.618 369.661C845.341 367.126 844.693 364.09 844.673 360.553V331.727H857.229V358.313C857.249 360.986 857.966 363.098 859.381 364.65C860.795 366.203 862.692 366.979 865.069 366.979C866.582 366.979 867.997 366.635 869.314 365.947C870.63 365.24 871.691 364.198 872.497 362.823C873.322 361.447 873.725 359.748 873.705 357.724ZM905.761 316.636V377H893.204V316.636H905.761ZM933.351 377.884C928.694 377.884 924.685 376.941 921.325 375.055C917.985 373.149 915.41 370.457 913.603 366.979C911.795 363.481 910.891 359.345 910.891 354.57C910.891 349.913 911.795 345.826 913.603 342.309C915.41 338.791 917.955 336.05 921.237 334.085C924.538 332.12 928.409 331.138 932.849 331.138C935.836 331.138 938.617 331.619 941.191 332.582C943.784 333.525 946.044 334.95 947.97 336.856C949.915 338.762 951.428 341.159 952.509 344.048C953.59 346.916 954.13 350.277 954.13 354.128V357.576H915.902V349.795H942.311C942.311 347.987 941.918 346.386 941.132 344.991C940.346 343.596 939.255 342.505 937.86 341.719C936.485 340.913 934.883 340.511 933.056 340.511C931.15 340.511 929.46 340.953 927.986 341.837C926.532 342.702 925.392 343.871 924.567 345.344C923.742 346.799 923.319 348.42 923.3 350.208V357.606C923.3 359.846 923.712 361.781 924.538 363.412C925.383 365.043 926.571 366.301 928.104 367.185C929.637 368.069 931.454 368.511 933.557 368.511C934.952 368.511 936.229 368.315 937.389 367.922C938.548 367.529 939.54 366.939 940.365 366.153C941.191 365.367 941.82 364.405 942.252 363.265L953.865 364.031C953.275 366.821 952.067 369.258 950.239 371.341C948.432 373.404 946.093 375.015 943.224 376.175C940.375 377.314 937.084 377.884 933.351 377.884ZM959.224 377V331.727H971.396V339.626H971.868C972.693 336.817 974.079 334.694 976.024 333.26C977.969 331.806 980.209 331.079 982.744 331.079C983.373 331.079 984.051 331.118 984.778 331.197C985.505 331.275 986.144 331.383 986.694 331.521V342.662C986.104 342.485 985.289 342.328 984.247 342.191C983.206 342.053 982.253 341.984 981.388 341.984C979.541 341.984 977.891 342.387 976.437 343.193C975.002 343.979 973.863 345.079 973.018 346.494C972.192 347.909 971.78 349.54 971.78 351.387V377H959.224Z" fill="black"/>
<path d="M75.8928 486V476.804L97.3796 456.909C99.207 455.14 100.74 453.549 101.978 452.134C103.235 450.719 104.188 449.334 104.837 447.978C105.485 446.603 105.809 445.119 105.809 443.527C105.809 441.759 105.406 440.236 104.601 438.959C103.795 437.662 102.695 436.67 101.3 435.982C99.9046 435.275 98.3228 434.921 96.5543 434.921C94.7073 434.921 93.096 435.294 91.7205 436.041C90.3451 436.788 89.284 437.858 88.5373 439.254C87.7906 440.649 87.4173 442.309 87.4173 444.235H75.3033C75.3033 440.285 76.1973 436.856 77.9854 433.948C79.7736 431.04 82.2789 428.79 85.5014 427.199C88.724 425.607 92.4377 424.811 96.6428 424.811C100.966 424.811 104.729 425.577 107.931 427.11C111.154 428.623 113.659 430.726 115.447 433.418C117.236 436.11 118.13 439.195 118.13 442.673C118.13 444.952 117.678 447.202 116.774 449.422C115.89 451.643 114.308 454.109 112.028 456.82C109.749 459.512 106.536 462.745 102.39 466.517L93.5774 475.153V475.566H118.925V486H75.8928ZM132.53 486.766C130.584 486.766 128.914 486.079 127.519 484.703C126.144 483.308 125.456 481.638 125.456 479.692C125.456 477.767 126.144 476.116 127.519 474.741C128.914 473.365 130.584 472.678 132.53 472.678C134.416 472.678 136.067 473.365 137.481 474.741C138.896 476.116 139.604 477.767 139.604 479.692C139.604 480.989 139.27 482.178 138.601 483.259C137.953 484.32 137.098 485.175 136.037 485.823C134.976 486.452 133.807 486.766 132.53 486.766ZM160.32 486V425.636H173.083V475.478H198.961V486H160.32ZM204.077 486V440.727H216.633V486H204.077ZM210.385 434.891C208.518 434.891 206.917 434.272 205.58 433.034C204.264 431.777 203.606 430.274 203.606 428.525C203.606 426.796 204.264 425.312 205.58 424.074C206.917 422.817 208.518 422.188 210.385 422.188C212.251 422.188 213.843 422.817 215.16 424.074C216.496 425.312 217.164 426.796 217.164 428.525C217.164 430.274 216.496 431.777 215.16 433.034C213.843 434.272 212.251 434.891 210.385 434.891ZM223.591 486V440.727H235.558V448.715H236.088C237.031 446.062 238.603 443.969 240.804 442.437C243.005 440.904 245.638 440.138 248.703 440.138C251.808 440.138 254.451 440.914 256.632 442.466C258.813 443.999 260.267 446.082 260.994 448.715H261.466C262.389 446.121 264.059 444.048 266.476 442.496C268.913 440.924 271.792 440.138 275.112 440.138C279.337 440.138 282.766 441.484 285.399 444.176C288.052 446.848 289.378 450.641 289.378 455.553V486H276.851V458.029C276.851 455.514 276.183 453.627 274.847 452.37C273.511 451.112 271.841 450.483 269.836 450.483C267.557 450.483 265.779 451.21 264.502 452.664C263.224 454.099 262.586 455.995 262.586 458.353V486H250.413V457.763C250.413 455.543 249.774 453.775 248.497 452.458C247.239 451.142 245.579 450.483 243.516 450.483C242.121 450.483 240.863 450.837 239.743 451.544C238.643 452.232 237.768 453.205 237.12 454.462C236.471 455.7 236.147 457.154 236.147 458.825V486H223.591ZM296.196 486V440.727H308.752V486H296.196ZM302.503 434.891C300.637 434.891 299.035 434.272 297.699 433.034C296.383 431.777 295.724 430.274 295.724 428.525C295.724 426.796 296.383 425.312 297.699 424.074C299.035 422.817 300.637 422.188 302.503 422.188C304.37 422.188 305.962 422.817 307.278 424.074C308.614 425.312 309.282 426.796 309.282 428.525C309.282 430.274 308.614 431.777 307.278 433.034C305.962 434.272 304.37 434.891 302.503 434.891ZM339.79 440.727V450.159H312.527V440.727H339.79ZM318.716 429.881H331.272V472.088C331.272 473.247 331.449 474.151 331.803 474.8C332.157 475.429 332.648 475.871 333.277 476.126C333.925 476.382 334.672 476.509 335.517 476.509C336.106 476.509 336.696 476.46 337.285 476.362C337.875 476.244 338.326 476.156 338.641 476.097L340.616 485.44C339.987 485.636 339.103 485.862 337.963 486.118C336.823 486.393 335.438 486.56 333.807 486.619C330.781 486.737 328.128 486.334 325.849 485.411C323.589 484.487 321.831 483.053 320.573 481.107C319.315 479.162 318.697 476.706 318.716 473.739V429.881ZM381.97 453.637L370.475 454.344C370.279 453.362 369.856 452.478 369.208 451.692C368.559 450.886 367.705 450.248 366.643 449.776C365.602 449.285 364.354 449.039 362.9 449.039C360.955 449.039 359.314 449.452 357.978 450.277C356.642 451.083 355.974 452.163 355.974 453.519C355.974 454.6 356.406 455.514 357.271 456.26C358.135 457.007 359.619 457.606 361.721 458.058L369.915 459.709C374.317 460.613 377.598 462.067 379.76 464.071C381.921 466.075 383.002 468.708 383.002 471.97C383.002 474.937 382.127 477.541 380.379 479.781C378.649 482.021 376.272 483.77 373.246 485.027C370.239 486.265 366.771 486.884 362.841 486.884C356.848 486.884 352.073 485.636 348.517 483.141C344.98 480.626 342.907 477.207 342.298 472.884L354.647 472.235C355.021 474.063 355.925 475.458 357.359 476.421C358.793 477.364 360.631 477.836 362.871 477.836C365.072 477.836 366.84 477.413 368.176 476.568C369.532 475.704 370.22 474.593 370.239 473.238C370.22 472.098 369.738 471.165 368.795 470.438C367.852 469.691 366.398 469.121 364.433 468.728L356.593 467.166C352.172 466.282 348.88 464.749 346.719 462.568C344.577 460.387 343.506 457.606 343.506 454.227C343.506 451.318 344.292 448.813 345.864 446.711C347.456 444.608 349.686 442.987 352.555 441.847C355.443 440.708 358.823 440.138 362.694 440.138C368.412 440.138 372.912 441.346 376.193 443.763C379.494 446.18 381.42 449.471 381.97 453.637ZM440.23 489.301L433.392 482.522L451.342 464.572H409.282V454.61H451.342L433.392 436.689L440.23 429.881L469.94 459.591L440.23 489.301ZM507.495 472.972L507.524 457.911H509.351L523.853 440.727H538.266L518.783 463.482H515.806L507.495 472.972ZM496.117 486V425.636H508.673V486H496.117ZM524.413 486L511.09 466.282L519.461 457.41L539.121 486H524.413ZM570.358 466.724V440.727H582.914V486H570.859V477.777H570.387C569.366 480.429 567.666 482.561 565.288 484.173C562.93 485.784 560.052 486.589 556.652 486.589C553.626 486.589 550.964 485.902 548.665 484.526C546.366 483.151 544.568 481.196 543.271 478.661C541.994 476.126 541.345 473.09 541.326 469.553V440.727H553.882V467.313C553.901 469.986 554.619 472.098 556.033 473.65C557.448 475.203 559.344 475.979 561.722 475.979C563.235 475.979 564.65 475.635 565.966 474.947C567.283 474.24 568.344 473.198 569.149 471.823C569.975 470.447 570.378 468.748 570.358 466.724ZM590.093 486V425.636H602.649V448.332H603.032C603.582 447.113 604.378 445.875 605.42 444.618C606.481 443.341 607.856 442.28 609.546 441.435C611.256 440.57 613.378 440.138 615.913 440.138C619.214 440.138 622.259 441.002 625.05 442.732C627.84 444.441 630.07 447.025 631.74 450.483C633.411 453.922 634.246 458.235 634.246 463.423C634.246 468.473 633.43 472.737 631.799 476.214C630.188 479.673 627.987 482.296 625.197 484.084C622.426 485.853 619.322 486.737 615.883 486.737C613.447 486.737 611.373 486.334 609.664 485.528C607.974 484.723 606.589 483.711 605.508 482.493C604.427 481.255 603.602 480.007 603.032 478.749H602.472V486H590.093ZM602.384 463.364C602.384 466.056 602.757 468.404 603.504 470.408C604.25 472.412 605.331 473.974 606.746 475.094C608.161 476.195 609.88 476.745 611.904 476.745C613.948 476.745 615.677 476.185 617.092 475.065C618.506 473.925 619.577 472.353 620.304 470.349C621.051 468.325 621.424 465.997 621.424 463.364C621.424 460.75 621.061 458.451 620.334 456.467C619.607 454.482 618.536 452.93 617.121 451.81C615.706 450.69 613.967 450.13 611.904 450.13C609.86 450.13 608.131 450.67 606.717 451.751C605.321 452.831 604.25 454.364 603.504 456.349C602.757 458.333 602.384 460.672 602.384 463.364ZM660.156 486.884C655.499 486.884 651.49 485.941 648.13 484.055C644.79 482.149 642.215 479.457 640.408 475.979C638.6 472.481 637.696 468.345 637.696 463.57C637.696 458.913 638.6 454.826 640.408 451.309C642.215 447.791 644.76 445.05 648.042 443.085C651.343 441.12 655.214 440.138 659.654 440.138C662.641 440.138 665.422 440.619 667.996 441.582C670.589 442.525 672.849 443.95 674.775 445.856C676.72 447.762 678.233 450.159 679.314 453.048C680.395 455.916 680.935 459.277 680.935 463.128V466.576H642.707V458.795H669.116C669.116 456.987 668.723 455.386 667.937 453.991C667.151 452.596 666.06 451.505 664.665 450.719C663.29 449.913 661.688 449.511 659.861 449.511C657.955 449.511 656.265 449.953 654.791 450.837C653.337 451.702 652.197 452.871 651.372 454.344C650.547 455.799 650.124 457.42 650.105 459.208V466.606C650.105 468.846 650.517 470.781 651.343 472.412C652.188 474.043 653.376 475.301 654.909 476.185C656.442 477.069 658.259 477.511 660.362 477.511C661.757 477.511 663.034 477.315 664.194 476.922C665.353 476.529 666.345 475.939 667.17 475.153C667.996 474.367 668.624 473.405 669.057 472.265L680.67 473.031C680.08 475.821 678.872 478.258 677.044 480.341C675.237 482.404 672.898 484.015 670.029 485.175C667.18 486.314 663.889 486.884 660.156 486.884ZM698.585 425.636V486H686.029V425.636H698.585ZM726.175 486.884C721.518 486.884 717.509 485.941 714.149 484.055C710.809 482.149 708.235 479.457 706.427 475.979C704.619 472.481 703.715 468.345 703.715 463.57C703.715 458.913 704.619 454.826 706.427 451.309C708.235 447.791 710.779 445.05 714.061 443.085C717.362 441.12 721.233 440.138 725.674 440.138C728.66 440.138 731.441 440.619 734.015 441.582C736.609 442.525 738.868 443.95 740.794 445.856C742.739 447.762 744.252 450.159 745.333 453.048C746.414 455.916 746.954 459.277 746.954 463.128V466.576H708.726V458.795H735.135C735.135 456.987 734.742 455.386 733.956 453.991C733.17 452.596 732.079 451.505 730.684 450.719C729.309 449.913 727.707 449.511 725.88 449.511C723.974 449.511 722.284 449.953 720.81 450.837C719.356 451.702 718.217 452.871 717.391 454.344C716.566 455.799 716.143 457.42 716.124 459.208V466.606C716.124 468.846 716.536 470.781 717.362 472.412C718.207 474.043 719.395 475.301 720.928 476.185C722.461 477.069 724.278 477.511 726.381 477.511C727.776 477.511 729.053 477.315 730.213 476.922C731.372 476.529 732.364 475.939 733.19 475.153C734.015 474.367 734.644 473.405 735.076 472.265L746.689 473.031C746.099 475.821 744.891 478.258 743.063 480.341C741.256 482.404 738.917 484.015 736.049 485.175C733.199 486.314 729.908 486.884 726.175 486.884ZM776.128 440.727V450.159H748.864V440.727H776.128ZM755.054 429.881H767.61V472.088C767.61 473.247 767.787 474.151 768.141 474.8C768.494 475.429 768.986 475.871 769.614 476.126C770.263 476.382 771.01 476.509 771.855 476.509C772.444 476.509 773.033 476.46 773.623 476.362C774.212 476.244 774.664 476.156 774.979 476.097L776.954 485.44C776.325 485.636 775.441 485.862 774.301 486.118C773.161 486.393 771.776 486.56 770.145 486.619C767.119 486.737 764.466 486.334 762.187 485.411C759.927 484.487 758.169 483.053 756.911 481.107C755.653 479.162 755.034 476.706 755.054 473.739V429.881Z" fill="black"/>
<path d="M98.2049 598.825C93.8034 598.825 89.8833 598.069 86.4446 596.556C83.0256 595.023 80.3237 592.921 78.3391 590.248C76.3742 587.556 75.3622 584.452 75.3033 580.934H88.1541C88.2327 582.408 88.7141 583.705 89.5984 584.825C90.5022 585.925 91.7009 586.78 93.1942 587.389C94.6876 587.998 96.3677 588.303 98.2344 588.303C100.18 588.303 101.899 587.959 103.392 587.271C104.886 586.584 106.055 585.631 106.9 584.412C107.745 583.194 108.167 581.789 108.167 580.197C108.167 578.586 107.715 577.162 106.811 575.924C105.927 574.666 104.65 573.684 102.98 572.976C101.329 572.269 99.3642 571.915 97.0849 571.915H91.4553V562.542H97.0849C99.0105 562.542 100.71 562.208 102.184 561.54C103.677 560.872 104.837 559.949 105.662 558.77C106.487 557.571 106.9 556.176 106.9 554.584C106.9 553.071 106.536 551.745 105.809 550.605C105.102 549.446 104.1 548.542 102.803 547.893C101.526 547.245 100.032 546.921 98.3228 546.921C96.5936 546.921 95.0118 547.235 93.5774 547.864C92.143 548.473 90.9935 549.348 90.1289 550.487C89.2643 551.627 88.8026 552.963 88.7436 554.496H76.5117C76.5707 551.018 77.563 547.952 79.4886 545.3C81.4143 542.647 84.0081 540.574 87.2699 539.081C90.5514 537.568 94.2553 536.811 98.3817 536.811C102.547 536.811 106.192 537.568 109.317 539.081C112.441 540.594 114.868 542.637 116.597 545.211C118.346 547.766 119.21 550.635 119.191 553.818C119.21 557.198 118.159 560.017 116.037 562.277C113.934 564.537 111.193 565.971 107.814 566.58V567.052C112.254 567.622 115.634 569.164 117.953 571.679C120.291 574.175 121.45 577.299 121.431 581.052C121.45 584.491 120.458 587.546 118.454 590.219C116.469 592.891 113.728 594.994 110.23 596.526C106.733 598.059 102.724 598.825 98.2049 598.825ZM133.259 598.766C131.314 598.766 129.644 598.079 128.249 596.703C126.873 595.308 126.185 593.638 126.185 591.692C126.185 589.767 126.873 588.116 128.249 586.741C129.644 585.365 131.314 584.678 133.259 584.678C135.146 584.678 136.796 585.365 138.211 586.741C139.626 588.116 140.333 589.767 140.333 591.692C140.333 592.989 139.999 594.178 139.331 595.259C138.683 596.32 137.828 597.175 136.767 597.823C135.706 598.452 134.536 598.766 133.259 598.766ZM183.834 577.014H194.68L200.133 584.029L205.497 590.278L215.607 602.952H203.699L196.744 594.404L193.177 589.335L183.834 577.014ZM216.521 567.818C216.521 574.401 215.273 580.001 212.778 584.619C210.302 589.236 206.922 592.763 202.638 595.2C198.374 597.617 193.58 598.825 188.255 598.825C182.891 598.825 178.076 597.607 173.812 595.17C169.548 592.734 166.179 589.207 163.703 584.589C161.227 579.971 159.989 574.381 159.989 567.818C159.989 561.236 161.227 555.635 163.703 551.018C166.179 546.4 169.548 542.883 173.812 540.466C178.076 538.029 182.891 536.811 188.255 536.811C193.58 536.811 198.374 538.029 202.638 540.466C206.922 542.883 210.302 546.4 212.778 551.018C215.273 555.635 216.521 561.236 216.521 567.818ZM203.582 567.818C203.582 563.554 202.943 559.958 201.666 557.031C200.408 554.103 198.63 551.882 196.331 550.369C194.032 548.856 191.34 548.1 188.255 548.1C185.17 548.1 182.478 548.856 180.179 550.369C177.88 551.882 176.092 554.103 174.815 557.031C173.557 559.958 172.928 563.554 172.928 567.818C172.928 572.082 173.557 575.678 174.815 578.606C176.092 581.534 177.88 583.754 180.179 585.267C182.478 586.78 185.17 587.537 188.255 587.537C191.34 587.537 194.032 586.78 196.331 585.267C198.63 583.754 200.408 581.534 201.666 578.606C202.943 575.678 203.582 572.082 203.582 567.818ZM243.094 598.884C238.516 598.884 234.556 597.912 231.216 595.966C227.895 594.001 225.331 591.27 223.523 587.772C221.715 584.255 220.811 580.178 220.811 575.54C220.811 570.864 221.715 566.777 223.523 563.279C225.331 559.762 227.895 557.031 231.216 555.085C234.556 553.12 238.516 552.138 243.094 552.138C247.672 552.138 251.622 553.12 254.943 555.085C258.283 557.031 260.857 559.762 262.665 563.279C264.473 566.777 265.377 570.864 265.377 575.54C265.377 580.178 264.473 584.255 262.665 587.772C260.857 591.27 258.283 594.001 254.943 595.966C251.622 597.912 247.672 598.884 243.094 598.884ZM243.153 589.158C245.236 589.158 246.975 588.568 248.37 587.389C249.765 586.191 250.816 584.56 251.524 582.496C252.251 580.433 252.614 578.085 252.614 575.452C252.614 572.819 252.251 570.471 251.524 568.408C250.816 566.344 249.765 564.714 248.37 563.515C246.975 562.316 245.236 561.717 243.153 561.717C241.05 561.717 239.282 562.316 237.847 563.515C236.433 564.714 235.362 566.344 234.635 568.408C233.927 570.471 233.574 572.819 233.574 575.452C233.574 578.085 233.927 580.433 234.635 582.496C235.362 584.56 236.433 586.191 237.847 587.389C239.282 588.568 241.05 589.158 243.153 589.158ZM303.423 554.997C303.187 552.619 302.175 550.772 300.387 549.456C298.599 548.139 296.172 547.481 293.107 547.481C291.024 547.481 289.265 547.776 287.831 548.365C286.396 548.935 285.296 549.731 284.529 550.752C283.783 551.774 283.409 552.934 283.409 554.23C283.37 555.311 283.596 556.254 284.087 557.06C284.598 557.866 285.296 558.563 286.18 559.153C287.064 559.723 288.086 560.224 289.245 560.656C290.405 561.069 291.643 561.422 292.959 561.717L298.382 563.014C301.016 563.603 303.432 564.389 305.633 565.372C307.834 566.354 309.74 567.563 311.351 568.997C312.962 570.432 314.21 572.121 315.094 574.067C315.998 576.012 316.46 578.242 316.48 580.757C316.46 584.452 315.517 587.654 313.65 590.366C311.803 593.058 309.131 595.151 305.633 596.644C302.155 598.118 297.96 598.855 293.048 598.855C288.174 598.855 283.93 598.108 280.315 596.615C276.719 595.121 273.909 592.911 271.885 589.983C269.881 587.036 268.829 583.391 268.731 579.048H281.081C281.219 581.072 281.798 582.762 282.82 584.118C283.861 585.454 285.247 586.466 286.976 587.153C288.725 587.821 290.699 588.156 292.9 588.156C295.062 588.156 296.938 587.841 298.53 587.212C300.141 586.584 301.389 585.709 302.273 584.589C303.157 583.469 303.599 582.182 303.599 580.728C303.599 579.372 303.197 578.232 302.391 577.309C301.605 576.385 300.446 575.599 298.913 574.951C297.4 574.303 295.543 573.713 293.342 573.183L286.77 571.532C281.68 570.294 277.662 568.359 274.714 565.725C271.767 563.092 270.303 559.546 270.323 555.085C270.303 551.43 271.276 548.237 273.241 545.506C275.225 542.775 277.947 540.643 281.405 539.11C284.864 537.577 288.793 536.811 293.195 536.811C297.675 536.811 301.585 537.577 304.926 539.11C308.286 540.643 310.899 542.775 312.766 545.506C314.633 548.237 315.596 551.401 315.654 554.997H303.423Z" fill="black"/>
</svg>
