<svg width="1200" height="900" viewBox="0 0 1200 900" fill="none" xmlns="http://www.w3.org/2000/svg">
<rect width="1200" height="900" fill="white"/>
<path d="M138.152 195.273V268H124.871L93.2301 222.226H92.6974V268H77.321V195.273H90.8153L122.207 241.011H122.847V195.273H138.152ZM172.585 269.065C167.069 269.065 162.299 267.893 158.274 265.55C154.273 263.182 151.184 259.892 149.006 255.678C146.828 251.44 145.739 246.527 145.739 240.94C145.739 235.306 146.828 230.382 149.006 226.168C151.184 221.93 154.273 218.639 158.274 216.295C162.299 213.928 167.069 212.744 172.585 212.744C178.101 212.744 182.86 213.928 186.861 216.295C190.886 218.639 193.987 221.93 196.165 226.168C198.343 230.382 199.432 235.306 199.432 240.94C199.432 246.527 198.343 251.44 196.165 255.678C193.987 259.892 190.886 263.182 186.861 265.55C182.86 267.893 178.101 269.065 172.585 269.065ZM172.656 257.347C175.166 257.347 177.261 256.636 178.942 255.216C180.623 253.772 181.889 251.807 182.742 249.321C183.618 246.835 184.056 244.006 184.056 240.834C184.056 237.661 183.618 234.832 182.742 232.347C181.889 229.861 180.623 227.896 178.942 226.452C177.261 225.008 175.166 224.286 172.656 224.286C170.123 224.286 167.993 225.008 166.264 226.452C164.56 227.896 163.27 229.861 162.394 232.347C161.541 234.832 161.115 237.661 161.115 240.834C161.115 244.006 161.541 246.835 162.394 249.321C163.27 251.807 164.56 253.772 166.264 255.216C167.993 256.636 170.123 257.347 172.656 257.347ZM226.736 268.888C222.594 268.888 218.841 267.822 215.479 265.692C212.141 263.537 209.49 260.377 207.525 256.21C205.584 252.02 204.613 246.883 204.613 240.798C204.613 234.548 205.619 229.352 207.631 225.209C209.644 221.042 212.319 217.929 215.657 215.869C219.019 213.786 222.7 212.744 226.701 212.744C229.755 212.744 232.3 213.265 234.336 214.307C236.396 215.325 238.053 216.603 239.308 218.142C240.586 219.657 241.557 221.149 242.219 222.616H242.681V195.273H257.773V268H242.859V259.264H242.219C241.509 260.779 240.503 262.283 239.201 263.774C237.923 265.242 236.254 266.461 234.194 267.432C232.158 268.402 229.672 268.888 226.736 268.888ZM231.531 256.849C233.969 256.849 236.029 256.187 237.71 254.861C239.414 253.511 240.716 251.629 241.616 249.214C242.539 246.8 243.001 243.971 243.001 240.727C243.001 237.484 242.551 234.667 241.651 232.276C240.752 229.884 239.45 228.038 237.745 226.736C236.04 225.434 233.969 224.783 231.531 224.783C229.045 224.783 226.95 225.457 225.245 226.807C223.54 228.156 222.25 230.027 221.374 232.418C220.498 234.809 220.06 237.579 220.06 240.727C220.06 243.9 220.498 246.705 221.374 249.143C222.274 251.558 223.564 253.452 225.245 254.825C226.95 256.175 229.045 256.849 231.531 256.849ZM292.438 269.065C286.827 269.065 281.997 267.929 277.949 265.656C273.924 263.36 270.823 260.116 268.645 255.926C266.467 251.712 265.378 246.729 265.378 240.976C265.378 235.365 266.467 230.441 268.645 226.203C270.823 221.965 273.889 218.663 277.842 216.295C281.82 213.928 286.484 212.744 291.834 212.744C295.432 212.744 298.782 213.324 301.884 214.484C305.009 215.621 307.731 217.337 310.051 219.634C312.395 221.93 314.218 224.818 315.52 228.298C316.822 231.755 317.473 235.803 317.473 240.443V244.598H271.415V235.223H303.233C303.233 233.045 302.76 231.116 301.813 229.435C300.866 227.754 299.552 226.44 297.871 225.493C296.214 224.522 294.284 224.037 292.083 224.037C289.786 224.037 287.75 224.57 285.975 225.635C284.223 226.677 282.85 228.085 281.855 229.861C280.861 231.613 280.352 233.566 280.328 235.72V244.634C280.328 247.332 280.825 249.664 281.82 251.629C282.838 253.594 284.27 255.109 286.117 256.175C287.963 257.24 290.153 257.773 292.686 257.773C294.367 257.773 295.906 257.536 297.303 257.062C298.699 256.589 299.895 255.879 300.889 254.932C301.884 253.985 302.641 252.825 303.162 251.452L317.154 252.375C316.443 255.737 314.987 258.672 312.786 261.182C310.608 263.668 307.79 265.609 304.334 267.006C300.901 268.379 296.936 269.065 292.438 269.065ZM345.511 268V195.273H374.204C379.72 195.273 384.419 196.326 388.302 198.433C392.185 200.517 395.144 203.417 397.18 207.134C399.239 210.827 400.269 215.088 400.269 219.918C400.269 224.747 399.228 229.009 397.144 232.702C395.061 236.395 392.043 239.271 388.089 241.331C384.159 243.391 379.4 244.42 373.813 244.42H355.525V232.098H371.328C374.287 232.098 376.725 231.589 378.643 230.571C380.584 229.529 382.028 228.097 382.975 226.274C383.946 224.428 384.431 222.309 384.431 219.918C384.431 217.503 383.946 215.396 382.975 213.597C382.028 211.774 380.584 210.365 378.643 209.371C376.702 208.353 374.239 207.844 371.257 207.844H360.887V268H345.511ZM407.341 268V213.455H422.007V222.972H422.576C423.57 219.586 425.239 217.029 427.583 215.301C429.926 213.549 432.625 212.673 435.679 212.673C436.437 212.673 437.254 212.721 438.13 212.815C439.006 212.91 439.775 213.04 440.438 213.206V226.629C439.728 226.416 438.745 226.227 437.49 226.061C436.236 225.895 435.087 225.812 434.046 225.812C431.82 225.812 429.832 226.298 428.08 227.268C426.352 228.215 424.979 229.541 423.961 231.246C422.966 232.95 422.469 234.915 422.469 237.141V268H407.341ZM467.733 269.065C462.217 269.065 457.447 267.893 453.422 265.55C449.421 263.182 446.332 259.892 444.154 255.678C441.976 251.44 440.887 246.527 440.887 240.94C440.887 235.306 441.976 230.382 444.154 226.168C446.332 221.93 449.421 218.639 453.422 216.295C457.447 213.928 462.217 212.744 467.733 212.744C473.25 212.744 478.008 213.928 482.009 216.295C486.034 218.639 489.135 221.93 491.313 226.168C493.491 230.382 494.58 235.306 494.58 240.94C494.58 246.527 493.491 251.44 491.313 255.678C489.135 259.892 486.034 263.182 482.009 265.55C478.008 267.893 473.25 269.065 467.733 269.065ZM467.804 257.347C470.314 257.347 472.409 256.636 474.09 255.216C475.771 253.772 477.037 251.807 477.89 249.321C478.766 246.835 479.204 244.006 479.204 240.834C479.204 237.661 478.766 234.832 477.89 232.347C477.037 229.861 475.771 227.896 474.09 226.452C472.409 225.008 470.314 224.286 467.804 224.286C465.271 224.286 463.141 225.008 461.412 226.452C459.708 227.896 458.418 229.861 457.542 232.347C456.689 234.832 456.263 237.661 456.263 240.834C456.263 244.006 456.689 246.835 457.542 249.321C458.418 251.807 459.708 253.772 461.412 255.216C463.141 256.636 465.271 257.347 467.804 257.347ZM502.069 268V195.273H517.197V222.616H517.659C518.322 221.149 519.28 219.657 520.535 218.142C521.813 216.603 523.471 215.325 525.507 214.307C527.566 213.265 530.123 212.744 533.177 212.744C537.154 212.744 540.824 213.786 544.186 215.869C547.547 217.929 550.234 221.042 552.247 225.209C554.259 229.352 555.265 234.548 555.265 240.798C555.265 246.883 554.283 252.02 552.318 256.21C550.376 260.377 547.725 263.537 544.363 265.692C541.025 267.822 537.285 268.888 533.142 268.888C530.206 268.888 527.708 268.402 525.649 267.432C523.613 266.461 521.944 265.242 520.642 263.774C519.34 262.283 518.345 260.779 517.659 259.264H516.984V268H502.069ZM516.877 240.727C516.877 243.971 517.327 246.8 518.227 249.214C519.126 251.629 520.429 253.511 522.133 254.861C523.838 256.187 525.909 256.849 528.348 256.849C530.81 256.849 532.893 256.175 534.598 254.825C536.302 253.452 537.592 251.558 538.468 249.143C539.368 246.705 539.818 243.9 539.818 240.727C539.818 237.579 539.38 234.809 538.504 232.418C537.628 230.027 536.338 228.156 534.633 226.807C532.929 225.457 530.833 224.783 528.348 224.783C525.885 224.783 523.802 225.434 522.098 226.736C520.417 228.038 519.126 229.884 518.227 232.276C517.327 234.667 516.877 237.484 516.877 240.727ZM577.856 195.273V268H562.728V195.273H577.856ZM612.2 269.065C606.589 269.065 601.76 267.929 597.712 265.656C593.687 263.36 590.586 260.116 588.408 255.926C586.23 251.712 585.141 246.729 585.141 240.976C585.141 235.365 586.23 230.441 588.408 226.203C590.586 221.965 593.651 218.663 597.605 216.295C601.582 213.928 606.246 212.744 611.596 212.744C615.195 212.744 618.545 213.324 621.646 214.484C624.771 215.621 627.494 217.337 629.814 219.634C632.158 221.93 633.98 224.818 635.283 228.298C636.585 231.755 637.236 235.803 637.236 240.443V244.598H591.177V235.223H622.996C622.996 233.045 622.522 231.116 621.575 229.435C620.628 227.754 619.314 226.44 617.633 225.493C615.976 224.522 614.047 224.037 611.845 224.037C609.549 224.037 607.513 224.57 605.737 225.635C603.985 226.677 602.612 228.085 601.618 229.861C600.623 231.613 600.114 233.566 600.091 235.72V244.634C600.091 247.332 600.588 249.664 601.582 251.629C602.6 253.594 604.033 255.109 605.879 256.175C607.726 257.24 609.916 257.773 612.449 257.773C614.13 257.773 615.668 257.536 617.065 257.062C618.462 256.589 619.658 255.879 620.652 254.932C621.646 253.985 622.404 252.825 622.925 251.452L636.916 252.375C636.206 255.737 634.75 258.672 632.548 261.182C630.37 263.668 627.553 265.609 624.096 267.006C620.664 268.379 616.698 269.065 612.2 269.065ZM644.476 268V213.455H658.894V223.078H659.533C660.669 219.882 662.563 217.361 665.215 215.514C667.866 213.668 671.039 212.744 674.732 212.744C678.472 212.744 681.657 213.679 684.285 215.55C686.912 217.396 688.664 219.906 689.54 223.078H690.108C691.221 219.953 693.233 217.455 696.145 215.585C699.081 213.691 702.549 212.744 706.55 212.744C711.64 212.744 715.771 214.366 718.944 217.609C722.14 220.829 723.738 225.398 723.738 231.317V268H708.645V234.3C708.645 231.269 707.84 228.997 706.231 227.482C704.621 225.966 702.608 225.209 700.194 225.209C697.447 225.209 695.305 226.085 693.766 227.837C692.227 229.565 691.458 231.849 691.458 234.69V268H676.792V233.98C676.792 231.305 676.022 229.174 674.483 227.588C672.968 226.002 670.968 225.209 668.482 225.209C666.801 225.209 665.286 225.635 663.936 226.487C662.611 227.316 661.557 228.488 660.776 230.003C659.995 231.494 659.604 233.246 659.604 235.259V268H644.476ZM103.102 352H77.321V279.273H103.315C110.631 279.273 116.928 280.729 122.207 283.641C127.487 286.529 131.547 290.684 134.388 296.105C137.252 301.527 138.685 308.013 138.685 315.565C138.685 323.141 137.252 329.652 134.388 335.097C131.547 340.542 127.463 344.72 122.136 347.632C116.833 350.544 110.489 352 103.102 352ZM92.6974 338.825H102.463C107.009 338.825 110.832 338.02 113.933 336.411C117.058 334.777 119.402 332.256 120.964 328.847C122.551 325.414 123.344 320.987 123.344 315.565C123.344 310.191 122.551 305.8 120.964 302.391C119.402 298.982 117.07 296.472 113.969 294.862C110.867 293.252 107.044 292.447 102.499 292.447H92.6974V338.825ZM172.017 353.065C166.406 353.065 161.577 351.929 157.529 349.656C153.504 347.36 150.403 344.116 148.225 339.926C146.047 335.712 144.958 330.729 144.958 324.976C144.958 319.365 146.047 314.441 148.225 310.203C150.403 305.965 153.468 302.663 157.422 300.295C161.399 297.928 166.063 296.744 171.414 296.744C175.012 296.744 178.362 297.324 181.463 298.484C184.588 299.621 187.311 301.337 189.631 303.634C191.975 305.93 193.798 308.818 195.1 312.298C196.402 315.755 197.053 319.803 197.053 324.443V328.598H150.994V319.223H182.813C182.813 317.045 182.339 315.116 181.392 313.435C180.445 311.754 179.131 310.44 177.45 309.493C175.793 308.522 173.864 308.037 171.662 308.037C169.366 308.037 167.33 308.57 165.554 309.635C163.802 310.677 162.429 312.085 161.435 313.861C160.441 315.613 159.932 317.566 159.908 319.72V328.634C159.908 331.332 160.405 333.664 161.399 335.629C162.417 337.594 163.85 339.109 165.696 340.175C167.543 341.24 169.733 341.773 172.266 341.773C173.947 341.773 175.485 341.536 176.882 341.062C178.279 340.589 179.475 339.879 180.469 338.932C181.463 337.985 182.221 336.825 182.742 335.452L196.733 336.375C196.023 339.737 194.567 342.672 192.365 345.182C190.187 347.668 187.37 349.609 183.914 351.006C180.481 352.379 176.515 353.065 172.017 353.065ZM233.306 297.455V308.818H200.458V297.455H233.306ZM207.915 284.386H223.043V335.239C223.043 336.635 223.256 337.724 223.683 338.506C224.109 339.263 224.7 339.796 225.458 340.104C226.239 340.411 227.139 340.565 228.157 340.565C228.867 340.565 229.577 340.506 230.288 340.388C230.998 340.246 231.542 340.139 231.921 340.068L234.3 351.325C233.543 351.562 232.477 351.834 231.104 352.142C229.731 352.473 228.062 352.675 226.097 352.746C222.451 352.888 219.255 352.402 216.509 351.29C213.787 350.177 211.668 348.449 210.153 346.105C208.638 343.761 207.892 340.802 207.915 337.227V284.386ZM264.801 353.065C259.19 353.065 254.361 351.929 250.312 349.656C246.288 347.36 243.186 344.116 241.008 339.926C238.83 335.712 237.741 330.729 237.741 324.976C237.741 319.365 238.83 314.441 241.008 310.203C243.186 305.965 246.252 302.663 250.206 300.295C254.183 297.928 258.847 296.744 264.197 296.744C267.796 296.744 271.146 297.324 274.247 298.484C277.372 299.621 280.094 301.337 282.415 303.634C284.758 305.93 286.581 308.818 287.883 312.298C289.185 315.755 289.836 319.803 289.836 324.443V328.598H243.778V319.223H275.596C275.596 317.045 275.123 315.116 274.176 313.435C273.229 311.754 271.915 310.44 270.234 309.493C268.577 308.522 266.648 308.037 264.446 308.037C262.149 308.037 260.113 308.57 258.338 309.635C256.586 310.677 255.213 312.085 254.219 313.861C253.224 315.613 252.715 317.566 252.692 319.72V328.634C252.692 331.332 253.189 333.664 254.183 335.629C255.201 337.594 256.633 339.109 258.48 340.175C260.327 341.24 262.516 341.773 265.05 341.773C266.73 341.773 268.269 341.536 269.666 341.062C271.063 340.589 272.258 339.879 273.253 338.932C274.247 337.985 275.005 336.825 275.525 335.452L289.517 336.375C288.807 339.737 287.351 342.672 285.149 345.182C282.971 347.668 280.154 349.609 276.697 351.006C273.264 352.379 269.299 353.065 264.801 353.065ZM321.722 353.065C316.135 353.065 311.329 351.882 307.304 349.514C303.303 347.123 300.226 343.809 298.071 339.571C295.941 335.333 294.875 330.456 294.875 324.94C294.875 319.353 295.952 314.453 298.107 310.239C300.285 306.001 303.374 302.698 307.375 300.331C311.376 297.94 316.135 296.744 321.651 296.744C326.409 296.744 330.576 297.608 334.151 299.337C337.726 301.065 340.555 303.491 342.638 306.616C344.721 309.741 345.87 313.411 346.083 317.625H331.807C331.405 314.902 330.339 312.713 328.611 311.055C326.907 309.375 324.669 308.534 321.899 308.534C319.556 308.534 317.508 309.173 315.756 310.452C314.028 311.706 312.678 313.541 311.708 315.956C310.737 318.371 310.252 321.295 310.252 324.727C310.252 328.207 310.725 331.167 311.672 333.605C312.643 336.044 314.004 337.902 315.756 339.18C317.508 340.459 319.556 341.098 321.899 341.098C323.628 341.098 325.178 340.743 326.551 340.033C327.948 339.322 329.096 338.293 329.996 336.943C330.919 335.57 331.523 333.925 331.807 332.007H346.083C345.846 336.174 344.71 339.843 342.674 343.016C340.661 346.164 337.88 348.626 334.328 350.402C330.777 352.178 326.575 353.065 321.722 353.065ZM382.15 297.455V308.818H349.302V297.455H382.15ZM356.759 284.386H371.887V335.239C371.887 336.635 372.1 337.724 372.526 338.506C372.952 339.263 373.544 339.796 374.302 340.104C375.083 340.411 375.982 340.565 377 340.565C377.711 340.565 378.421 340.506 379.131 340.388C379.841 340.246 380.386 340.139 380.765 340.068L383.144 351.325C382.386 351.562 381.321 351.834 379.948 352.142C378.575 352.473 376.906 352.675 374.941 352.746C371.295 352.888 368.099 352.402 365.353 351.29C362.63 350.177 360.511 348.449 358.996 346.105C357.481 343.761 356.735 340.802 356.759 337.227V284.386ZM413.431 353.065C407.915 353.065 403.145 351.893 399.12 349.55C395.119 347.182 392.03 343.892 389.852 339.678C387.674 335.44 386.585 330.527 386.585 324.94C386.585 319.306 387.674 314.382 389.852 310.168C392.03 305.93 395.119 302.639 399.12 300.295C403.145 297.928 407.915 296.744 413.431 296.744C418.948 296.744 423.706 297.928 427.707 300.295C431.732 302.639 434.833 305.93 437.011 310.168C439.189 314.382 440.278 319.306 440.278 324.94C440.278 330.527 439.189 335.44 437.011 339.678C434.833 343.892 431.732 347.182 427.707 349.55C423.706 351.893 418.948 353.065 413.431 353.065ZM413.502 341.347C416.012 341.347 418.107 340.636 419.788 339.216C421.469 337.772 422.735 335.807 423.588 333.321C424.464 330.835 424.902 328.006 424.902 324.834C424.902 321.661 424.464 318.832 423.588 316.347C422.735 313.861 421.469 311.896 419.788 310.452C418.107 309.008 416.012 308.286 413.502 308.286C410.969 308.286 408.839 309.008 407.11 310.452C405.406 311.896 404.116 313.861 403.24 316.347C402.387 318.832 401.961 321.661 401.961 324.834C401.961 328.006 402.387 330.835 403.24 333.321C404.116 335.807 405.406 337.772 407.11 339.216C408.839 340.636 410.969 341.347 413.502 341.347ZM447.483 352V297.455H462.149V306.972H462.717C463.712 303.586 465.381 301.029 467.725 299.301C470.068 297.549 472.767 296.673 475.821 296.673C476.579 296.673 477.395 296.721 478.271 296.815C479.147 296.91 479.917 297.04 480.58 297.206V310.629C479.869 310.416 478.887 310.227 477.632 310.061C476.377 309.895 475.229 309.812 474.188 309.812C471.962 309.812 469.974 310.298 468.222 311.268C466.493 312.215 465.12 313.541 464.102 315.246C463.108 316.95 462.611 318.915 462.611 321.141V352H447.483ZM527.873 340.92V290.636H540.586V340.92H527.873ZM509.088 322.135V309.422H559.372V322.135H509.088ZM103.102 436H77.321V363.273H103.315C110.631 363.273 116.928 364.729 122.207 367.641C127.487 370.529 131.547 374.684 134.388 380.105C137.252 385.527 138.685 392.013 138.685 399.565C138.685 407.141 137.252 413.652 134.388 419.097C131.547 424.542 127.463 428.72 122.136 431.632C116.833 434.544 110.489 436 103.102 436ZM92.6974 422.825H102.463C107.009 422.825 110.832 422.02 113.933 420.411C117.058 418.777 119.402 416.256 120.964 412.847C122.551 409.414 123.344 404.987 123.344 399.565C123.344 394.191 122.551 389.8 120.964 386.391C119.402 382.982 117.07 380.472 113.969 378.862C110.867 377.252 107.044 376.447 102.499 376.447H92.6974V422.825ZM172.017 437.065C166.406 437.065 161.577 435.929 157.529 433.656C153.504 431.36 150.403 428.116 148.225 423.926C146.047 419.712 144.958 414.729 144.958 408.976C144.958 403.365 146.047 398.441 148.225 394.203C150.403 389.965 153.468 386.663 157.422 384.295C161.399 381.928 166.063 380.744 171.414 380.744C175.012 380.744 178.362 381.324 181.463 382.484C184.588 383.621 187.311 385.337 189.631 387.634C191.975 389.93 193.798 392.818 195.1 396.298C196.402 399.755 197.053 403.803 197.053 408.443V412.598H150.994V403.223H182.813C182.813 401.045 182.339 399.116 181.392 397.435C180.445 395.754 179.131 394.44 177.45 393.493C175.793 392.522 173.864 392.037 171.662 392.037C169.366 392.037 167.33 392.57 165.554 393.635C163.802 394.677 162.429 396.085 161.435 397.861C160.441 399.613 159.932 401.566 159.908 403.72V412.634C159.908 415.332 160.405 417.664 161.399 419.629C162.417 421.594 163.85 423.109 165.696 424.175C167.543 425.24 169.733 425.773 172.266 425.773C173.947 425.773 175.485 425.536 176.882 425.062C178.279 424.589 179.475 423.879 180.469 422.932C181.463 421.985 182.221 420.825 182.742 419.452L196.733 420.375C196.023 423.737 194.567 426.672 192.365 429.182C190.187 431.668 187.37 433.609 183.914 435.006C180.481 436.379 176.515 437.065 172.017 437.065ZM249.677 397.009L235.827 397.861C235.591 396.677 235.082 395.612 234.3 394.665C233.519 393.694 232.489 392.925 231.211 392.357C229.956 391.765 228.453 391.469 226.701 391.469C224.357 391.469 222.38 391.966 220.771 392.96C219.161 393.931 218.356 395.233 218.356 396.866C218.356 398.169 218.877 399.269 219.918 400.169C220.96 401.069 222.747 401.791 225.281 402.335L235.153 404.324C240.456 405.413 244.409 407.165 247.013 409.58C249.618 411.994 250.92 415.167 250.92 419.097C250.92 422.671 249.866 425.808 247.759 428.507C245.676 431.206 242.811 433.313 239.165 434.828C235.543 436.32 231.365 437.065 226.63 437.065C219.409 437.065 213.656 435.562 209.371 432.555C205.11 429.525 202.612 425.406 201.879 420.197L216.758 419.416C217.208 421.618 218.297 423.299 220.025 424.459C221.753 425.595 223.967 426.163 226.665 426.163C229.317 426.163 231.448 425.654 233.058 424.636C234.691 423.595 235.52 422.257 235.543 420.624C235.52 419.25 234.94 418.126 233.803 417.25C232.667 416.35 230.915 415.664 228.548 415.19L219.102 413.308C213.775 412.243 209.809 410.396 207.205 407.768C204.625 405.141 203.334 401.791 203.334 397.719C203.334 394.215 204.281 391.196 206.175 388.663C208.093 386.13 210.78 384.177 214.236 382.804C217.717 381.431 221.789 380.744 226.452 380.744C233.342 380.744 238.763 382.2 242.717 385.112C246.694 388.024 249.014 391.99 249.677 397.009ZM282.459 437.065C276.872 437.065 272.066 435.882 268.041 433.514C264.04 431.123 260.963 427.809 258.808 423.571C256.678 419.333 255.612 414.456 255.612 408.94C255.612 403.353 256.69 398.453 258.844 394.239C261.022 390.001 264.111 386.698 268.112 384.331C272.113 381.94 276.872 380.744 282.388 380.744C287.146 380.744 291.313 381.608 294.888 383.337C298.463 385.065 301.292 387.491 303.375 390.616C305.458 393.741 306.607 397.411 306.82 401.625H292.544C292.142 398.902 291.076 396.713 289.348 395.055C287.644 393.375 285.406 392.534 282.637 392.534C280.293 392.534 278.245 393.173 276.493 394.452C274.765 395.706 273.415 397.541 272.445 399.956C271.474 402.371 270.989 405.295 270.989 408.727C270.989 412.207 271.462 415.167 272.409 417.605C273.38 420.044 274.741 421.902 276.493 423.18C278.245 424.459 280.293 425.098 282.637 425.098C284.365 425.098 285.915 424.743 287.289 424.033C288.685 423.322 289.833 422.293 290.733 420.943C291.656 419.57 292.26 417.925 292.544 416.007H306.82C306.583 420.174 305.447 423.843 303.411 427.016C301.398 430.164 298.617 432.626 295.065 434.402C291.514 436.178 287.312 437.065 282.459 437.065ZM329.002 404.466V436H313.874V363.273H328.576V391.078H329.215C330.446 387.858 332.434 385.337 335.181 383.514C337.927 381.668 341.372 380.744 345.515 380.744C349.302 380.744 352.605 381.573 355.422 383.23C358.263 384.864 360.465 387.219 362.027 390.297C363.613 393.351 364.395 397.009 364.371 401.27V436H349.243V403.969C349.267 400.607 348.415 397.991 346.686 396.121C344.982 394.25 342.591 393.315 339.513 393.315C337.453 393.315 335.631 393.753 334.044 394.629C332.482 395.505 331.251 396.784 330.351 398.464C329.475 400.122 329.025 402.122 329.002 404.466ZM398.503 437.065C392.892 437.065 388.062 435.929 384.014 433.656C379.989 431.36 376.888 428.116 374.71 423.926C372.532 419.712 371.443 414.729 371.443 408.976C371.443 403.365 372.532 398.441 374.71 394.203C376.888 389.965 379.954 386.663 383.907 384.295C387.885 381.928 392.549 380.744 397.899 380.744C401.497 380.744 404.847 381.324 407.949 382.484C411.074 383.621 413.796 385.337 416.116 387.634C418.46 389.93 420.283 392.818 421.585 396.298C422.887 399.755 423.538 403.803 423.538 408.443V412.598H377.48V403.223H409.298C409.298 401.045 408.825 399.116 407.878 397.435C406.931 395.754 405.617 394.44 403.936 393.493C402.279 392.522 400.349 392.037 398.148 392.037C395.851 392.037 393.815 392.57 392.04 393.635C390.288 394.677 388.915 396.085 387.92 397.861C386.926 399.613 386.417 401.566 386.393 403.72V412.634C386.393 415.332 386.89 417.664 387.885 419.629C388.903 421.594 390.335 423.109 392.182 424.175C394.028 425.24 396.218 425.773 398.751 425.773C400.432 425.773 401.971 425.536 403.368 425.062C404.764 424.589 405.96 423.879 406.954 422.932C407.949 421.985 408.706 420.825 409.227 419.452L423.219 420.375C422.508 423.737 421.052 426.672 418.851 429.182C416.673 431.668 413.855 433.609 410.399 435.006C406.966 436.379 403.001 437.065 398.503 437.065ZM450.878 436.888C446.735 436.888 442.983 435.822 439.621 433.692C436.283 431.537 433.631 428.377 431.667 424.21C429.725 420.02 428.755 414.883 428.755 408.798C428.755 402.548 429.761 397.352 431.773 393.209C433.785 389.042 436.461 385.929 439.799 383.869C443.16 381.786 446.842 380.744 450.843 380.744C453.897 380.744 456.442 381.265 458.478 382.307C460.537 383.325 462.194 384.603 463.449 386.142C464.728 387.657 465.698 389.149 466.361 390.616H466.823V363.273H481.915V436H467V427.264H466.361C465.651 428.779 464.645 430.283 463.343 431.774C462.064 433.242 460.395 434.461 458.336 435.432C456.3 436.402 453.814 436.888 450.878 436.888ZM455.672 424.849C458.111 424.849 460.17 424.187 461.851 422.861C463.556 421.511 464.858 419.629 465.757 417.214C466.681 414.8 467.142 411.971 467.142 408.727C467.142 405.484 466.693 402.667 465.793 400.276C464.893 397.884 463.591 396.038 461.887 394.736C460.182 393.434 458.111 392.783 455.672 392.783C453.186 392.783 451.091 393.457 449.387 394.807C447.682 396.156 446.392 398.027 445.516 400.418C444.64 402.809 444.202 405.579 444.202 408.727C444.202 411.9 444.64 414.705 445.516 417.143C446.416 419.558 447.706 421.452 449.387 422.825C451.091 424.175 453.186 424.849 455.672 424.849ZM526.7 412.776V381.455H541.828V436H527.304V426.092H526.736C525.504 429.288 523.457 431.857 520.592 433.798C517.751 435.74 514.283 436.71 510.187 436.71C506.541 436.71 503.334 435.882 500.564 434.224C497.794 432.567 495.628 430.212 494.065 427.158C492.526 424.104 491.745 420.446 491.721 416.185V381.455H506.849V413.486C506.873 416.705 507.737 419.25 509.442 421.121C511.146 422.991 513.431 423.926 516.295 423.926C518.118 423.926 519.823 423.512 521.409 422.683C522.995 421.831 524.273 420.576 525.244 418.919C526.238 417.262 526.724 415.214 526.7 412.776ZM566.425 363.273V436H551.297V363.273H566.425ZM600.769 437.065C595.158 437.065 590.329 435.929 586.281 433.656C582.256 431.36 579.155 428.116 576.977 423.926C574.799 419.712 573.71 414.729 573.71 408.976C573.71 403.365 574.799 398.441 576.977 394.203C579.155 389.965 582.221 386.663 586.174 384.295C590.151 381.928 594.815 380.744 600.166 380.744C603.764 380.744 607.114 381.324 610.215 382.484C613.34 383.621 616.063 385.337 618.383 387.634C620.727 389.93 622.55 392.818 623.852 396.298C625.154 399.755 625.805 403.803 625.805 408.443V412.598H579.747V403.223H611.565C611.565 401.045 611.091 399.116 610.144 397.435C609.197 395.754 607.883 394.44 606.203 393.493C604.545 392.522 602.616 392.037 600.414 392.037C598.118 392.037 596.082 392.57 594.306 393.635C592.554 394.677 591.181 396.085 590.187 397.861C589.193 399.613 588.684 401.566 588.66 403.72V412.634C588.66 415.332 589.157 417.664 590.151 419.629C591.169 421.594 592.602 423.109 594.448 424.175C596.295 425.24 598.485 425.773 601.018 425.773C602.699 425.773 604.238 425.536 605.634 425.062C607.031 424.589 608.227 423.879 609.221 422.932C610.215 421.985 610.973 420.825 611.494 419.452L625.485 420.375C624.775 423.737 623.319 426.672 621.117 429.182C618.939 431.668 616.122 433.609 612.666 435.006C609.233 436.379 605.267 437.065 600.769 437.065ZM633.045 436V381.455H647.712V390.972H648.28C649.274 387.586 650.943 385.029 653.287 383.301C655.631 381.549 658.329 380.673 661.383 380.673C662.141 380.673 662.958 380.721 663.834 380.815C664.71 380.91 665.479 381.04 666.142 381.206V394.629C665.432 394.416 664.449 394.227 663.195 394.061C661.94 393.895 660.792 393.812 659.75 393.812C657.525 393.812 655.536 394.298 653.784 395.268C652.056 396.215 650.683 397.541 649.665 399.246C648.67 400.95 648.173 402.915 648.173 405.141V436H633.045ZM713.436 424.92V374.636H726.149V424.92H713.436ZM694.65 406.135V393.422H744.934V406.135H694.65ZM141.49 472.734H125.936C125.652 470.722 125.072 468.935 124.196 467.372C123.32 465.786 122.196 464.437 120.822 463.324C119.449 462.211 117.863 461.359 116.064 460.767C114.288 460.175 112.359 459.879 110.276 459.879C106.511 459.879 103.232 460.814 100.439 462.685C97.6454 464.531 95.4792 467.23 93.9403 470.781C92.4015 474.309 91.6321 478.594 91.6321 483.636C91.6321 488.821 92.4015 493.177 93.9403 496.705C95.5028 500.232 97.6809 502.895 100.474 504.695C103.268 506.494 106.5 507.393 110.169 507.393C112.229 507.393 114.134 507.121 115.886 506.577C117.662 506.032 119.236 505.239 120.609 504.197C121.982 503.132 123.119 501.842 124.018 500.327C124.942 498.812 125.581 497.083 125.936 495.142L141.49 495.213C141.088 498.551 140.081 501.771 138.472 504.872C136.885 507.95 134.743 510.708 132.044 513.146C129.369 515.561 126.173 517.479 122.456 518.899C118.763 520.296 114.584 520.994 109.92 520.994C103.434 520.994 97.6335 519.527 92.5199 516.591C87.4299 513.655 83.4053 509.406 80.446 503.842C77.5104 498.279 76.0426 491.544 76.0426 483.636C76.0426 475.705 77.5341 468.958 80.517 463.395C83.5 457.831 87.5483 453.594 92.6619 450.682C97.7756 447.746 103.528 446.278 109.92 446.278C114.134 446.278 118.041 446.87 121.639 448.054C125.261 449.238 128.469 450.966 131.263 453.239C134.056 455.488 136.329 458.246 138.081 461.513C139.857 464.78 140.993 468.52 141.49 472.734ZM164.729 447.273V520H149.601V447.273H164.729ZM209.194 496.776V465.455H224.322V520H209.798V510.092H209.229C207.998 513.288 205.951 515.857 203.086 517.798C200.245 519.74 196.777 520.71 192.681 520.71C189.035 520.71 185.827 519.882 183.058 518.224C180.288 516.567 178.121 514.212 176.559 511.158C175.02 508.104 174.239 504.446 174.215 500.185V465.455H189.343V497.486C189.367 500.705 190.231 503.25 191.935 505.121C193.64 506.991 195.924 507.926 198.789 507.926C200.612 507.926 202.317 507.512 203.903 506.683C205.489 505.831 206.767 504.576 207.738 502.919C208.732 501.262 209.218 499.214 209.194 496.776ZM279.174 481.009L265.325 481.861C265.088 480.677 264.579 479.612 263.798 478.665C263.016 477.694 261.987 476.925 260.708 476.357C259.454 475.765 257.95 475.469 256.198 475.469C253.855 475.469 251.878 475.966 250.268 476.96C248.658 477.931 247.853 479.233 247.853 480.866C247.853 482.169 248.374 483.269 249.416 484.169C250.457 485.069 252.245 485.791 254.778 486.335L264.65 488.324C269.953 489.413 273.907 491.165 276.511 493.58C279.115 495.994 280.417 499.167 280.417 503.097C280.417 506.671 279.364 509.808 277.257 512.507C275.173 515.206 272.309 517.313 268.663 518.828C265.041 520.32 260.862 521.065 256.127 521.065C248.907 521.065 243.154 519.562 238.869 516.555C234.607 513.525 232.11 509.406 231.376 504.197L246.255 503.416C246.705 505.618 247.794 507.299 249.522 508.459C251.25 509.595 253.464 510.163 256.163 510.163C258.814 510.163 260.945 509.654 262.555 508.636C264.188 507.595 265.017 506.257 265.041 504.624C265.017 503.25 264.437 502.126 263.301 501.25C262.164 500.35 260.412 499.664 258.045 499.19L248.599 497.308C243.272 496.243 239.307 494.396 236.703 491.768C234.122 489.141 232.832 485.791 232.832 481.719C232.832 478.215 233.779 475.196 235.673 472.663C237.59 470.13 240.277 468.177 243.734 466.804C247.214 465.431 251.286 464.744 255.95 464.744C262.839 464.744 268.26 466.2 272.214 469.112C276.191 472.024 278.511 475.99 279.174 481.009ZM316.324 465.455V476.818H283.476V465.455H316.324ZM290.934 452.386H306.061V503.239C306.061 504.635 306.274 505.724 306.701 506.506C307.127 507.263 307.719 507.796 308.476 508.104C309.257 508.411 310.157 508.565 311.175 508.565C311.885 508.565 312.595 508.506 313.306 508.388C314.016 508.246 314.56 508.139 314.939 508.068L317.318 519.325C316.561 519.562 315.496 519.834 314.122 520.142C312.749 520.473 311.08 520.675 309.115 520.746C305.47 520.888 302.274 520.402 299.527 519.29C296.805 518.177 294.686 516.449 293.171 514.105C291.656 511.761 290.91 508.802 290.934 505.227V452.386ZM347.819 521.065C342.208 521.065 337.379 519.929 333.33 517.656C329.306 515.36 326.204 512.116 324.026 507.926C321.848 503.712 320.759 498.729 320.759 492.976C320.759 487.365 321.848 482.441 324.026 478.203C326.204 473.965 329.27 470.663 333.224 468.295C337.201 465.928 341.865 464.744 347.215 464.744C350.814 464.744 354.164 465.324 357.265 466.484C360.39 467.621 363.113 469.337 365.433 471.634C367.776 473.93 369.599 476.818 370.901 480.298C372.203 483.755 372.855 487.803 372.855 492.443V496.598H326.796V487.223H358.614C358.614 485.045 358.141 483.116 357.194 481.435C356.247 479.754 354.933 478.44 353.252 477.493C351.595 476.522 349.666 476.037 347.464 476.037C345.168 476.037 343.132 476.57 341.356 477.635C339.604 478.677 338.231 480.085 337.237 481.861C336.242 483.613 335.733 485.566 335.71 487.72V496.634C335.71 499.332 336.207 501.664 337.201 503.629C338.219 505.594 339.651 507.109 341.498 508.175C343.345 509.24 345.534 509.773 348.068 509.773C349.748 509.773 351.287 509.536 352.684 509.062C354.081 508.589 355.276 507.879 356.271 506.932C357.265 505.985 358.023 504.825 358.543 503.452L372.535 504.375C371.825 507.737 370.369 510.672 368.167 513.182C365.989 515.668 363.172 517.609 359.715 519.006C356.283 520.379 352.317 521.065 347.819 521.065ZM380.095 520V465.455H394.761V474.972H395.33C396.324 471.586 397.993 469.029 400.337 467.301C402.68 465.549 405.379 464.673 408.433 464.673C409.191 464.673 410.008 464.721 410.883 464.815C411.759 464.91 412.529 465.04 413.192 465.206V478.629C412.481 478.416 411.499 478.227 410.244 478.061C408.99 477.895 407.841 477.812 406.8 477.812C404.574 477.812 402.586 478.298 400.834 479.268C399.106 480.215 397.732 481.541 396.714 483.246C395.72 484.95 395.223 486.915 395.223 489.141V520H380.095ZM451.714 520H435.237L460.343 447.273H480.159L505.23 520H488.752L470.535 463.892H469.967L451.714 520ZM450.684 491.413H489.605V503.416H450.684V491.413ZM546.046 496.776V465.455H561.174V520H546.65V510.092H546.082C544.851 513.288 542.803 515.857 539.938 517.798C537.097 519.74 533.629 520.71 529.533 520.71C525.888 520.71 522.68 519.882 519.91 518.224C517.14 516.567 514.974 514.212 513.411 511.158C511.872 508.104 511.091 504.446 511.068 500.185V465.455H526.195V497.486C526.219 500.705 527.083 503.25 528.788 505.121C530.492 506.991 532.777 507.926 535.641 507.926C537.464 507.926 539.169 507.512 540.755 506.683C542.341 505.831 543.62 504.576 544.59 502.919C545.585 501.262 546.07 499.214 546.046 496.776ZM599.656 465.455V476.818H566.808V465.455H599.656ZM574.265 452.386H589.393V503.239C589.393 504.635 589.606 505.724 590.032 506.506C590.458 507.263 591.05 507.796 591.808 508.104C592.589 508.411 593.489 508.565 594.507 508.565C595.217 508.565 595.927 508.506 596.637 508.388C597.348 508.246 597.892 508.139 598.271 508.068L600.65 519.325C599.893 519.562 598.827 519.834 597.454 520.142C596.081 520.473 594.412 520.675 592.447 520.746C588.801 520.888 585.605 520.402 582.859 519.29C580.136 518.177 578.018 516.449 576.502 514.105C574.987 511.761 574.241 508.802 574.265 505.227V452.386ZM630.938 521.065C625.421 521.065 620.651 519.893 616.626 517.55C612.626 515.182 609.536 511.892 607.358 507.678C605.18 503.44 604.091 498.527 604.091 492.94C604.091 487.306 605.18 482.382 607.358 478.168C609.536 473.93 612.626 470.639 616.626 468.295C620.651 465.928 625.421 464.744 630.938 464.744C636.454 464.744 641.212 465.928 645.213 468.295C649.238 470.639 652.339 473.93 654.517 478.168C656.695 482.382 657.784 487.306 657.784 492.94C657.784 498.527 656.695 503.44 654.517 507.678C652.339 511.892 649.238 515.182 645.213 517.55C641.212 519.893 636.454 521.065 630.938 521.065ZM631.009 509.347C633.518 509.347 635.613 508.636 637.294 507.216C638.975 505.772 640.242 503.807 641.094 501.321C641.97 498.835 642.408 496.006 642.408 492.834C642.408 489.661 641.97 486.832 641.094 484.347C640.242 481.861 638.975 479.896 637.294 478.452C635.613 477.008 633.518 476.286 631.009 476.286C628.475 476.286 626.345 477.008 624.617 478.452C622.912 479.896 621.622 481.861 620.746 484.347C619.894 486.832 619.467 489.661 619.467 492.834C619.467 496.006 619.894 498.835 620.746 501.321C621.622 503.807 622.912 505.772 624.617 507.216C626.345 508.636 628.475 509.347 631.009 509.347ZM710.373 481.009L696.523 481.861C696.287 480.677 695.778 479.612 694.996 478.665C694.215 477.694 693.185 476.925 691.907 476.357C690.652 475.765 689.149 475.469 687.397 475.469C685.053 475.469 683.076 475.966 681.467 476.96C679.857 477.931 679.052 479.233 679.052 480.866C679.052 482.169 679.573 483.269 680.614 484.169C681.656 485.069 683.443 485.791 685.976 486.335L695.849 488.324C701.152 489.413 705.105 491.165 707.709 493.58C710.314 495.994 711.616 499.167 711.616 503.097C711.616 506.671 710.562 509.808 708.455 512.507C706.372 515.206 703.507 517.313 699.861 518.828C696.239 520.32 692.061 521.065 687.326 521.065C680.105 521.065 674.352 519.562 670.067 516.555C665.806 513.525 663.308 509.406 662.574 504.197L677.454 503.416C677.904 505.618 678.993 507.299 680.721 508.459C682.449 509.595 684.663 510.163 687.361 510.163C690.013 510.163 692.144 509.654 693.753 508.636C695.387 507.595 696.216 506.257 696.239 504.624C696.216 503.25 695.636 502.126 694.499 501.25C693.363 500.35 691.611 499.664 689.244 499.19L679.798 497.308C674.471 496.243 670.505 494.396 667.901 491.768C665.321 489.141 664.03 485.791 664.03 481.719C664.03 478.215 664.977 475.196 666.871 472.663C668.789 470.13 671.476 468.177 674.932 466.804C678.413 465.431 682.485 464.744 687.148 464.744C694.038 464.744 699.459 466.2 703.413 469.112C707.39 472.024 709.71 475.99 710.373 481.009ZM743.155 521.065C737.568 521.065 732.762 519.882 728.737 517.514C724.736 515.123 721.659 511.809 719.504 507.571C717.374 503.333 716.308 498.456 716.308 492.94C716.308 487.353 717.385 482.453 719.54 478.239C721.718 474.001 724.807 470.698 728.808 468.331C732.809 465.94 737.568 464.744 743.084 464.744C747.842 464.744 752.009 465.608 755.584 467.337C759.159 469.065 761.988 471.491 764.071 474.616C766.154 477.741 767.303 481.411 767.516 485.625H753.24C752.838 482.902 751.772 480.713 750.044 479.055C748.34 477.375 746.102 476.534 743.332 476.534C740.989 476.534 738.941 477.173 737.189 478.452C735.461 479.706 734.111 481.541 733.141 483.956C732.17 486.371 731.685 489.295 731.685 492.727C731.685 496.207 732.158 499.167 733.105 501.605C734.076 504.044 735.437 505.902 737.189 507.18C738.941 508.459 740.989 509.098 743.332 509.098C745.061 509.098 746.611 508.743 747.984 508.033C749.381 507.322 750.529 506.293 751.429 504.943C752.352 503.57 752.956 501.925 753.24 500.007H767.516C767.279 504.174 766.143 507.843 764.107 511.016C762.094 514.164 759.313 516.626 755.761 518.402C752.21 520.178 748.008 521.065 743.155 521.065ZM790.124 521.03C786.644 521.03 783.542 520.426 780.82 519.219C778.097 517.988 775.943 516.177 774.357 513.786C772.794 511.371 772.013 508.364 772.013 504.766C772.013 501.735 772.569 499.19 773.682 497.131C774.795 495.071 776.31 493.414 778.228 492.159C780.145 490.904 782.323 489.957 784.762 489.318C787.224 488.679 789.804 488.229 792.503 487.969C795.675 487.637 798.232 487.33 800.174 487.045C802.115 486.738 803.523 486.288 804.399 485.696C805.275 485.104 805.713 484.228 805.713 483.068V482.855C805.713 480.606 805.003 478.866 803.583 477.635C802.186 476.404 800.197 475.788 797.617 475.788C794.894 475.788 792.728 476.392 791.118 477.599C789.508 478.783 788.443 480.275 787.922 482.074L773.931 480.938C774.641 477.623 776.038 474.759 778.121 472.344C780.204 469.905 782.891 468.035 786.182 466.733C789.496 465.407 793.332 464.744 797.688 464.744C800.718 464.744 803.618 465.099 806.388 465.81C809.182 466.52 811.656 467.621 813.81 469.112C815.988 470.604 817.704 472.521 818.959 474.865C820.214 477.185 820.841 479.967 820.841 483.21V520H806.495V512.436H806.068C805.192 514.141 804.021 515.644 802.553 516.946C801.085 518.224 799.321 519.231 797.262 519.964C795.202 520.675 792.823 521.03 790.124 521.03ZM794.456 510.589C796.682 510.589 798.647 510.152 800.351 509.276C802.056 508.376 803.393 507.169 804.364 505.653C805.335 504.138 805.82 502.422 805.82 500.504V494.716C805.346 495.024 804.695 495.308 803.867 495.568C803.062 495.805 802.15 496.03 801.132 496.243C800.114 496.432 799.096 496.61 798.078 496.776C797.06 496.918 796.137 497.048 795.308 497.166C793.533 497.427 791.982 497.841 790.656 498.409C789.331 498.977 788.301 499.747 787.567 500.717C786.833 501.664 786.466 502.848 786.466 504.268C786.466 506.328 787.212 507.902 788.703 508.991C790.219 510.057 792.136 510.589 794.456 510.589ZM845.074 447.273V520H829.946V447.273H845.074ZM879.419 521.065C873.808 521.065 868.978 519.929 864.93 517.656C860.905 515.36 857.804 512.116 855.626 507.926C853.448 503.712 852.359 498.729 852.359 492.976C852.359 487.365 853.448 482.441 855.626 478.203C857.804 473.965 860.87 470.663 864.823 468.295C868.801 465.928 873.464 464.744 878.815 464.744C882.413 464.744 885.763 465.324 888.865 466.484C891.99 467.621 894.712 469.337 897.032 471.634C899.376 473.93 901.199 476.818 902.501 480.298C903.803 483.755 904.454 487.803 904.454 492.443V496.598H858.396V487.223H890.214C890.214 485.045 889.74 483.116 888.794 481.435C887.847 479.754 886.533 478.44 884.852 477.493C883.195 476.522 881.265 476.037 879.063 476.037C876.767 476.037 874.731 476.57 872.955 477.635C871.204 478.677 869.83 480.085 868.836 481.861C867.842 483.613 867.333 485.566 867.309 487.72V496.634C867.309 499.332 867.806 501.664 868.801 503.629C869.819 505.594 871.251 507.109 873.097 508.175C874.944 509.24 877.134 509.773 879.667 509.773C881.348 509.773 882.887 509.536 884.284 509.062C885.68 508.589 886.876 507.879 887.87 506.932C888.865 505.985 889.622 504.825 890.143 503.452L904.134 504.375C903.424 507.737 901.968 510.672 899.767 513.182C897.588 515.668 894.771 517.609 891.315 519.006C887.882 520.379 883.917 521.065 879.419 521.065ZM911.695 520V465.455H926.361V474.972H926.929C927.923 471.586 929.592 469.029 931.936 467.301C934.28 465.549 936.979 464.673 940.033 464.673C940.79 464.673 941.607 464.721 942.483 464.815C943.359 464.91 944.128 465.04 944.791 465.206V478.629C944.081 478.416 943.099 478.227 941.844 478.061C940.589 477.895 939.441 477.812 938.399 477.812C936.174 477.812 934.185 478.298 932.433 479.268C930.705 480.215 929.332 481.541 928.314 483.246C927.32 484.95 926.822 486.915 926.822 489.141V520H911.695Z" fill="black"/>
<rect x="71" y="574" width="1038" height="19" fill="black"/>
</svg>
