<svg width="1200" height="900" viewBox="0 0 1200 900" fill="none" xmlns="http://www.w3.org/2000/svg">
<path fill-rule="evenodd" clip-rule="evenodd" d="M594.06 199.267V701.93C594.06 708.596 588.652 714 581.982 714H157.078C150.409 714 145 708.596 145 701.93V199.267C145 192.601 150.408 187.197 157.078 187.197H581.982C588.651 187.197 594.06 192.601 594.06 199.267Z" fill="#D2D2D2"/>
<path fill-rule="evenodd" clip-rule="evenodd" d="M222.036 689.861H576.669V699.127H222.036V689.861ZM222.036 674.952H576.669V684.217H222.036V674.952ZM222.036 660.752H576.669V670.018H222.036V660.752ZM162.043 203.527H576.669V212.757H162.043V203.527Z" fill="#A3A3A3"/>
<path fill-rule="evenodd" clip-rule="evenodd" d="M166.885 229.113H572.175C572.81 229.113 573.438 229.238 574.024 229.481C574.61 229.723 575.143 230.079 575.592 230.528C576.041 230.976 576.397 231.509 576.639 232.095C576.882 232.681 577.007 233.309 577.008 233.944V639.188C577.008 640.469 576.499 641.698 575.592 642.604C574.686 643.51 573.458 644.019 572.176 644.019H166.884C165.603 644.019 164.374 643.51 163.468 642.604C162.562 641.698 162.053 640.469 162.053 639.188V233.944C162.053 232.663 162.562 231.434 163.468 230.528C164.374 229.622 165.603 229.113 166.884 229.113H166.885Z" fill="white"/>
<path d="M184.649 658.195C184.242 658.219 183.845 658.325 183.479 658.506L167.642 666.057C167.234 666.251 166.875 666.535 166.592 666.888C166.309 667.24 166.11 667.652 166.009 668.092L162.13 685.046C162.038 685.44 162.028 685.849 162.101 686.247C162.175 686.645 162.33 687.023 162.556 687.358C162.611 687.441 162.668 687.52 162.728 687.597L173.67 701.2C174.248 701.91 175.117 702.318 176.032 702.315H193.582C194.035 702.312 194.482 702.21 194.89 702.015C195.299 701.821 195.66 701.538 195.947 701.188L206.884 687.581C207.457 686.871 207.672 685.933 207.452 685.043L203.55 668.076C203.448 667.636 203.248 667.225 202.965 666.872C202.683 666.52 202.324 666.236 201.917 666.041L186.103 658.507C185.647 658.282 185.142 658.175 184.635 658.196L184.649 658.195Z" fill="#4A4A4A"/>
<path d="M184.797 663.971C184.252 664.009 183.838 664.477 183.867 665.022V665.289C183.892 665.592 183.938 665.892 183.997 666.189C184.084 666.756 184.116 667.333 184.091 667.908C184.037 668.098 183.929 668.268 183.781 668.398L183.76 668.799C183.184 668.847 182.613 668.935 182.05 669.063C179.682 669.597 177.527 670.826 175.863 672.594L175.522 672.353C175.429 672.381 175.332 672.39 175.235 672.38C175.139 672.371 175.045 672.342 174.96 672.296C174.499 671.955 174.072 671.569 173.686 671.145C173.491 670.913 173.284 670.692 173.064 670.484L172.854 670.317C172.667 670.167 172.437 670.08 172.197 670.068C172.054 670.061 171.911 670.087 171.78 670.145C171.649 670.203 171.533 670.292 171.443 670.403C171.289 670.619 171.227 670.888 171.27 671.149C171.314 671.411 171.459 671.645 171.675 671.8L171.871 671.956C172.124 672.125 172.386 672.277 172.655 672.415C173.162 672.695 173.637 673.028 174.073 673.409C174.186 673.57 174.252 673.759 174.263 673.956L174.573 674.24C172.901 676.749 172.213 679.788 172.643 682.774L172.244 682.887C172.141 683.052 172.003 683.191 171.839 683.295C171.284 683.444 170.715 683.538 170.142 683.577C169.838 683.583 169.534 683.607 169.232 683.648L168.98 683.705H168.954C168.779 683.729 168.615 683.801 168.479 683.913C168.343 684.025 168.241 684.173 168.184 684.339C168.127 684.506 168.117 684.685 168.156 684.857C168.195 685.029 168.28 685.187 168.403 685.313C168.656 685.568 169.034 685.659 169.375 685.547H169.393L169.65 685.518C169.939 685.432 170.223 685.328 170.5 685.208C171.033 684.994 171.586 684.833 172.15 684.726C172.346 684.738 172.535 684.804 172.693 684.918L173.119 684.847C174.043 687.713 175.985 690.141 178.577 691.671L178.403 692.033C178.483 692.2 178.513 692.385 178.489 692.568C178.254 693.112 177.967 693.631 177.631 694.12C177.447 694.362 177.278 694.615 177.123 694.877L177.002 695.132C176.915 695.284 176.871 695.458 176.875 695.633C176.88 695.808 176.933 695.979 177.028 696.126C177.124 696.273 177.258 696.391 177.416 696.467C177.575 696.543 177.751 696.573 177.925 696.555C178.283 696.515 178.586 696.277 178.711 695.941L178.829 695.7C178.938 695.416 179.028 695.125 179.103 694.833C179.354 694.212 179.491 693.546 179.834 693.134C179.946 693.028 180.088 692.958 180.241 692.934L180.454 692.546C183.263 693.626 186.373 693.634 189.188 692.568L189.377 692.931C189.57 692.96 189.744 693.065 189.86 693.222C190.127 693.73 190.343 694.263 190.508 694.813C190.583 695.108 190.676 695.398 190.784 695.681L190.902 695.923C190.964 696.087 191.07 696.231 191.209 696.339C191.348 696.446 191.513 696.513 191.688 696.533C191.862 696.552 192.039 696.523 192.197 696.448C192.356 696.373 192.491 696.256 192.588 696.11C192.783 695.808 192.792 695.423 192.611 695.113L192.487 694.857C192.332 694.596 192.163 694.344 191.979 694.103C191.653 693.628 191.368 693.125 191.127 692.601C191.104 692.504 191.101 692.404 191.117 692.307C191.134 692.209 191.17 692.116 191.223 692.033C191.162 691.909 191.11 691.781 191.065 691.651C193.652 690.108 195.585 687.672 196.498 684.801L196.901 684.872C197.046 684.741 197.236 684.67 197.432 684.676C197.995 684.785 198.548 684.96 199.082 685.159C199.36 685.287 199.644 685.395 199.933 685.487C200.001 685.504 200.101 685.52 200.177 685.539H200.195C200.363 685.593 200.543 685.6 200.714 685.558C200.885 685.516 201.042 685.428 201.165 685.302C201.289 685.177 201.376 685.019 201.416 684.848C201.456 684.676 201.447 684.496 201.391 684.329C201.333 684.163 201.231 684.015 201.094 683.903C200.958 683.791 200.793 683.719 200.619 683.696L200.344 683.631C200.041 683.59 199.737 683.566 199.432 683.56C198.859 683.523 198.29 683.429 197.735 683.279C197.564 683.183 197.423 683.042 197.327 682.87L196.943 682.757C197.352 679.773 196.65 676.743 194.973 674.241L195.308 673.931C195.295 673.736 195.358 673.543 195.485 673.394C195.921 673.02 196.392 672.689 196.891 672.405C197.162 672.268 197.424 672.114 197.676 671.946L197.883 671.778C197.998 671.707 198.096 671.613 198.172 671.501C198.247 671.39 198.298 671.264 198.322 671.131C198.345 670.998 198.339 670.862 198.306 670.732C198.273 670.601 198.212 670.479 198.128 670.374C198.044 670.269 197.939 670.182 197.819 670.121C197.699 670.059 197.568 670.023 197.433 670.016C197.299 670.009 197.164 670.031 197.039 670.08C196.913 670.128 196.799 670.203 196.705 670.299L196.495 670.468C196.275 670.676 196.068 670.896 195.873 671.128C195.499 671.557 195.083 671.948 194.634 672.297C194.452 672.371 194.253 672.392 194.059 672.359L193.7 672.616C191.624 670.441 188.829 669.092 185.834 668.822C185.834 668.68 185.816 668.467 185.813 668.4C185.651 668.29 185.54 668.12 185.502 667.928C185.483 667.355 185.519 666.781 185.611 666.214C185.673 665.915 185.714 665.617 185.742 665.314V665.03C185.756 664.768 185.666 664.51 185.492 664.314C185.317 664.117 185.072 663.996 184.81 663.979L184.798 663.972L184.797 663.971ZM183.612 671.31L183.328 676.275H183.307C183.298 676.425 183.25 676.57 183.167 676.696C183.084 676.822 182.969 676.924 182.835 676.991C182.7 677.06 182.548 677.089 182.397 677.075C182.247 677.061 182.103 677.005 181.983 676.914L177.911 674.029C179.207 672.757 180.833 671.871 182.606 671.473C182.937 671.402 183.272 671.348 183.609 671.311H183.612V671.31ZM185.982 671.31C188.12 671.576 190.112 672.537 191.653 674.043L187.62 676.91C187.498 677.008 187.351 677.069 187.195 677.088C187.04 677.106 186.883 677.08 186.741 677.013C186.6 676.946 186.48 676.841 186.396 676.709C186.311 676.578 186.266 676.425 186.264 676.268L185.982 671.311L185.982 671.31ZM176.432 675.897L180.156 679.218V679.24C180.27 679.339 180.354 679.467 180.4 679.611C180.447 679.754 180.453 679.908 180.42 680.055C180.386 680.202 180.313 680.337 180.209 680.446C180.105 680.555 179.973 680.634 179.828 680.674V680.688L175.05 682.062C174.813 679.909 175.3 677.739 176.434 675.894L176.432 675.897ZM193.135 675.897C194.266 677.736 194.766 679.895 194.559 682.045L189.774 680.667V680.648C189.628 680.609 189.495 680.531 189.391 680.422C189.286 680.312 189.214 680.177 189.181 680.029C189.148 679.882 189.155 679.729 189.201 679.585C189.248 679.441 189.332 679.313 189.445 679.213L193.14 675.908L193.135 675.897ZM184.034 679.478H185.557L186.489 680.66L186.15 682.137L184.782 682.794L183.411 682.137L183.088 680.66L184.034 679.478ZM188.914 683.51C188.977 683.503 189.042 683.503 189.105 683.51L194.033 684.341C193.312 686.391 191.924 688.139 190.09 689.304L188.185 684.695C188.133 684.571 188.111 684.437 188.122 684.303C188.132 684.169 188.175 684.04 188.246 683.926C188.316 683.812 188.414 683.717 188.529 683.648C188.644 683.579 188.774 683.539 188.908 683.531L188.914 683.51ZM180.639 683.531C180.776 683.534 180.91 683.57 181.03 683.636C181.15 683.702 181.252 683.797 181.327 683.912C181.401 684.027 181.446 684.158 181.458 684.294C181.47 684.431 181.447 684.568 181.393 684.693V684.711L179.501 689.284C177.69 688.123 176.312 686.396 175.581 684.372L180.466 683.544C180.521 683.538 180.576 683.538 180.631 683.544L180.64 683.531H180.639ZM184.766 685.519C185.083 685.511 185.378 685.679 185.529 685.958H185.547L187.954 690.302L186.992 690.586C185.221 690.991 183.373 690.896 181.652 690.311L184.068 685.967C184.14 685.841 184.244 685.737 184.368 685.663C184.492 685.59 184.634 685.55 184.778 685.547L184.766 685.52V685.519Z" fill="white" stroke="white" stroke-width="0.443735"/>
<path fill-rule="evenodd" clip-rule="evenodd" d="M1055.55 199.267V701.93C1055.55 708.596 1050.14 714 1043.47 714H618.565C611.895 714 606.486 708.596 606.486 701.93V199.267C606.486 192.601 611.895 187.197 618.565 187.197H1043.47C1050.14 187.197 1055.55 192.601 1055.55 199.267Z" fill="#D2D2D2"/>
<path fill-rule="evenodd" clip-rule="evenodd" d="M683.522 689.861H1038.16V699.127H683.522V689.861ZM683.522 674.952H1038.16V684.217H683.522V674.952ZM683.522 660.752H1038.16V670.018H683.522V660.752ZM623.529 203.527H1038.16V212.757H623.529V203.527Z" fill="#A3A3A3"/>
<path fill-rule="evenodd" clip-rule="evenodd" d="M628.369 229.113H1033.66C1034.29 229.113 1034.92 229.238 1035.51 229.481C1036.09 229.723 1036.63 230.079 1037.08 230.528C1037.52 230.976 1037.88 231.509 1038.12 232.095C1038.37 232.681 1038.49 233.309 1038.49 233.944V639.188C1038.49 640.469 1037.98 641.698 1037.08 642.604C1036.17 643.51 1034.94 644.019 1033.66 644.019H628.369C627.087 644.019 625.858 643.51 624.952 642.604C624.046 641.698 623.537 640.469 623.537 639.188V233.944C623.537 232.663 624.046 231.434 624.953 230.528C625.859 229.622 627.087 229.113 628.369 229.113H628.369Z" fill="white"/>
<path d="M646.133 658.195C645.727 658.219 645.329 658.325 644.964 658.506L629.126 666.057C628.718 666.251 628.359 666.535 628.077 666.888C627.794 667.24 627.594 667.652 627.493 668.092L623.615 685.046C623.522 685.44 623.512 685.849 623.586 686.247C623.659 686.645 623.814 687.023 624.041 687.358C624.096 687.441 624.153 687.52 624.212 687.597L635.155 701.2C635.732 701.91 636.601 702.318 637.516 702.315H655.067C655.519 702.312 655.966 702.21 656.375 702.015C656.783 701.821 657.144 701.538 657.431 701.188L668.368 687.581C668.941 686.871 669.156 685.933 668.936 685.043L665.034 668.076C664.932 667.636 664.732 667.225 664.45 666.872C664.167 666.52 663.808 666.236 663.401 666.041L647.587 658.507C647.131 658.282 646.627 658.175 646.119 658.196L646.133 658.195Z" fill="#4A4A4A"/>
<path d="M646.281 663.971C645.736 664.009 645.323 664.477 645.351 665.022V665.289C645.376 665.592 645.422 665.892 645.482 666.189C645.569 666.756 645.6 667.333 645.576 667.908C645.521 668.098 645.413 668.268 645.265 668.398L645.245 668.799C644.669 668.847 644.097 668.935 643.534 669.063C641.166 669.597 639.011 670.826 637.347 672.594L637.006 672.353C636.913 672.381 636.816 672.39 636.72 672.38C636.623 672.371 636.53 672.342 636.444 672.296C635.983 671.955 635.556 671.569 635.17 671.145C634.976 670.913 634.768 670.692 634.549 670.484L634.338 670.317C634.151 670.167 633.921 670.08 633.682 670.068C633.539 670.061 633.396 670.087 633.264 670.145C633.133 670.203 633.018 670.292 632.927 670.403C632.773 670.619 632.711 670.888 632.755 671.149C632.798 671.411 632.943 671.645 633.159 671.8L633.355 671.956C633.608 672.125 633.87 672.277 634.14 672.415C634.646 672.695 635.122 673.028 635.558 673.409C635.671 673.57 635.736 673.759 635.747 673.956L636.058 674.24C634.385 676.749 633.698 679.788 634.127 682.774L633.729 682.887C633.626 683.052 633.487 683.191 633.323 683.295C632.768 683.444 632.2 683.538 631.626 683.577C631.322 683.583 631.018 683.607 630.717 683.648L630.465 683.705H630.438C630.264 683.729 630.099 683.801 629.963 683.913C629.828 684.025 629.725 684.173 629.668 684.339C629.611 684.506 629.602 684.685 629.64 684.857C629.679 685.029 629.765 685.187 629.888 685.313C630.141 685.568 630.518 685.659 630.86 685.547H630.877L631.135 685.518C631.424 685.432 631.707 685.328 631.984 685.208C632.517 684.994 633.07 684.833 633.635 684.726C633.831 684.738 634.019 684.804 634.178 684.918L634.604 684.847C635.527 687.713 637.469 690.141 640.062 691.671L639.888 692.033C639.968 692.2 639.997 692.385 639.973 692.568C639.738 693.112 639.451 693.631 639.116 694.12C638.932 694.362 638.762 694.615 638.607 694.877L638.487 695.132C638.399 695.284 638.355 695.458 638.36 695.633C638.364 695.808 638.417 695.979 638.513 696.126C638.608 696.273 638.742 696.391 638.901 696.467C639.059 696.543 639.235 696.573 639.409 696.555C639.767 696.515 640.071 696.277 640.196 695.941L640.314 695.7C640.422 695.416 640.513 695.125 640.587 694.833C640.838 694.212 640.975 693.546 641.318 693.134C641.431 693.028 641.572 692.958 641.725 692.934L641.938 692.546C644.748 693.626 647.857 693.634 650.672 692.568L650.861 692.931C651.054 692.96 651.228 693.065 651.344 693.222C651.611 693.73 651.828 694.263 651.992 694.813C652.067 695.108 652.161 695.398 652.268 695.681L652.386 695.923C652.448 696.087 652.554 696.231 652.693 696.339C652.832 696.446 652.998 696.513 653.172 696.533C653.347 696.552 653.523 696.523 653.682 696.448C653.841 696.373 653.976 696.256 654.072 696.11C654.268 695.808 654.276 695.423 654.095 695.113L653.971 694.857C653.817 694.596 653.647 694.344 653.463 694.103C653.137 693.628 652.852 693.125 652.611 692.601C652.589 692.504 652.585 692.404 652.602 692.307C652.618 692.209 652.654 692.116 652.707 692.033C652.647 691.909 652.594 691.781 652.549 691.651C655.136 690.108 657.069 687.672 657.982 684.801L658.385 684.872C658.53 684.741 658.72 684.67 658.916 684.676C659.48 684.785 660.033 684.96 660.567 685.159C660.845 685.287 661.129 685.395 661.417 685.487C661.485 685.504 661.586 685.52 661.661 685.539H661.68C661.847 685.593 662.027 685.6 662.198 685.558C662.37 685.516 662.526 685.428 662.65 685.302C662.774 685.177 662.86 685.019 662.9 684.848C662.94 684.676 662.931 684.496 662.875 684.329C662.818 684.163 662.715 684.015 662.579 683.903C662.442 683.791 662.278 683.719 662.103 683.696L661.828 683.631C661.526 683.59 661.221 683.566 660.916 683.56C660.343 683.523 659.775 683.429 659.22 683.279C659.049 683.183 658.907 683.042 658.811 682.87L658.427 682.757C658.836 679.773 658.135 676.743 656.457 674.241L656.792 673.931C656.779 673.736 656.843 673.543 656.97 673.394C657.406 673.02 657.876 672.689 658.376 672.405C658.646 672.268 658.908 672.114 659.16 671.946L659.368 671.778C659.482 671.707 659.581 671.613 659.656 671.501C659.732 671.39 659.783 671.264 659.806 671.131C659.829 670.998 659.824 670.862 659.79 670.732C659.757 670.601 659.696 670.479 659.612 670.374C659.528 670.269 659.423 670.182 659.303 670.121C659.184 670.059 659.052 670.023 658.918 670.016C658.783 670.009 658.649 670.031 658.523 670.08C658.398 670.128 658.284 670.203 658.189 670.299L657.979 670.468C657.759 670.676 657.552 670.896 657.358 671.128C656.983 671.557 656.568 671.948 656.118 672.297C655.936 672.371 655.737 672.392 655.544 672.359L655.184 672.616C653.108 670.441 650.314 669.092 647.319 668.822C647.319 668.68 647.301 668.467 647.297 668.4C647.136 668.29 647.024 668.12 646.987 667.928C646.967 667.355 647.003 666.781 647.095 666.214C647.157 665.915 647.199 665.617 647.226 665.314V665.03C647.24 664.768 647.15 664.51 646.976 664.314C646.802 664.117 646.557 663.996 646.294 663.979L646.282 663.972L646.281 663.971ZM645.096 671.31L644.812 676.275H644.791C644.782 676.425 644.734 676.57 644.651 676.696C644.568 676.822 644.454 676.924 644.319 676.991C644.184 677.06 644.033 677.089 643.882 677.075C643.731 677.061 643.587 677.005 643.467 676.914L639.395 674.029C640.691 672.757 642.318 671.871 644.09 671.473C644.422 671.402 644.757 671.348 645.094 671.311H645.096V671.31ZM647.466 671.31C649.605 671.576 651.596 672.537 653.137 674.043L649.104 676.91C648.982 677.008 648.835 677.069 648.68 677.088C648.524 677.106 648.367 677.08 648.226 677.013C648.084 676.946 647.964 676.841 647.88 676.709C647.796 676.578 647.75 676.425 647.748 676.268L647.467 671.311L647.466 671.31ZM637.917 675.897L641.641 679.218V679.24C641.754 679.339 641.838 679.467 641.885 679.611C641.931 679.754 641.938 679.908 641.904 680.055C641.871 680.202 641.798 680.337 641.694 680.446C641.589 680.555 641.458 680.634 641.312 680.674V680.688L636.534 682.062C636.297 679.909 636.785 677.739 637.919 675.894L637.917 675.897ZM654.619 675.897C655.75 677.736 656.251 679.895 656.043 682.045L651.258 680.667V680.648C651.112 680.609 650.98 680.531 650.875 680.422C650.771 680.312 650.698 680.177 650.665 680.029C650.632 679.882 650.639 679.729 650.686 679.585C650.732 679.441 650.816 679.313 650.93 679.213L654.624 675.908L654.619 675.897ZM645.519 679.478H647.042L647.974 680.66L647.635 682.137L646.266 682.794L644.895 682.137L644.572 680.66L645.519 679.478ZM650.398 683.51C650.462 683.503 650.526 683.503 650.59 683.51L655.517 684.341C654.797 686.391 653.408 688.139 651.574 689.304L649.67 684.695C649.617 684.571 649.596 684.437 649.606 684.303C649.617 684.169 649.659 684.04 649.73 683.926C649.801 683.812 649.898 683.717 650.013 683.648C650.129 683.579 650.259 683.539 650.393 683.531L650.398 683.51ZM642.123 683.531C642.26 683.534 642.395 683.57 642.515 683.636C642.635 683.702 642.736 683.797 642.811 683.912C642.886 684.027 642.931 684.158 642.942 684.294C642.954 684.431 642.932 684.568 642.878 684.693V684.711L640.986 689.284C639.174 688.123 637.796 686.396 637.066 684.372L641.95 683.544C642.005 683.538 642.061 683.538 642.115 683.544L642.124 683.531H642.123ZM646.25 685.519C646.567 685.511 646.862 685.679 647.013 685.958H647.031L649.439 690.302L648.477 690.586C646.706 690.991 644.857 690.896 643.137 690.311L645.553 685.967C645.625 685.841 645.728 685.737 645.852 685.663C645.977 685.59 646.118 685.55 646.263 685.547L646.25 685.52V685.519Z" fill="white" stroke="white" stroke-width="0.443735"/>
<path d="M278.231 127.535C278.107 127.893 277.801 128.383 277.313 129.005C276.856 129.598 276.309 130.205 275.672 130.825C275.035 131.416 274.369 131.946 273.674 132.416C273.009 132.856 272.422 133.073 271.913 133.066C270.954 133.053 270.167 132.594 269.55 131.687C268.963 130.781 268.514 129.621 268.204 128.21C267.893 126.798 267.69 125.238 267.593 123.529C267.496 121.791 267.444 120.098 267.436 118.45C267.428 116.803 267.433 115.306 267.451 113.958C267.469 112.611 267.438 111.592 267.357 110.902C267.481 110.604 267.633 110.426 267.813 110.369C268.024 110.312 268.264 110.285 268.533 110.289C268.773 110.292 268.982 110.325 269.161 110.387C269.37 110.45 269.547 110.632 269.693 110.933C269.688 111.262 269.681 111.816 269.671 112.595C269.69 113.374 269.723 114.258 269.77 115.247C269.817 116.206 269.863 117.225 269.909 118.304C269.955 119.353 269.986 120.356 270.003 121.315C270.05 122.274 270.084 123.143 270.103 123.922C270.153 124.672 270.191 125.226 270.216 125.586C270.243 125.796 270.268 126.141 270.292 126.62C270.345 127.1 270.413 127.61 270.496 128.15C270.609 128.661 270.737 129.127 270.882 129.548C271.056 129.97 271.277 130.197 271.546 130.231C271.995 130.237 272.447 130.048 272.902 129.665C273.386 129.282 273.857 128.794 274.314 128.201C274.771 127.609 275.199 126.955 275.598 126.242C275.997 125.528 276.35 124.844 276.659 124.189C276.997 123.505 277.245 122.894 277.402 122.357C277.589 121.821 277.699 121.433 277.732 121.194C277.799 120.686 277.868 119.968 277.941 119.04C278.013 118.083 278.072 117.065 278.116 115.988C278.161 114.91 278.189 113.892 278.202 112.934C278.245 111.976 278.269 111.242 278.276 110.733L280.745 110.901C280.742 113.327 280.698 115.528 280.612 117.503C280.526 119.449 280.486 121.29 280.493 123.028C280.5 124.735 280.613 126.399 280.831 128.019C281.049 129.639 281.46 131.322 282.066 133.067C281.975 133.156 281.794 133.273 281.522 133.419C281.25 133.595 281.054 133.683 280.935 133.681C280.186 133.671 279.68 133.41 279.418 132.897C279.184 132.415 279.027 131.844 278.946 131.184C278.896 130.494 278.845 129.819 278.794 129.16C278.773 128.471 278.585 127.929 278.231 127.535ZM286.479 132.273C286.204 128.226 285.959 124.179 285.743 120.133C285.558 116.057 285.345 111.831 285.104 107.455C285.113 106.736 285.508 106.382 286.286 106.393L286.645 106.398C286.735 106.399 286.839 106.52 286.955 106.761C287.072 107.002 287.185 107.453 287.296 108.113C287.438 108.744 287.574 109.719 287.707 111.039C287.869 112.329 288.056 114.024 288.268 116.123C288.479 118.223 288.714 120.846 288.971 123.995C289.627 121.967 290.148 119.997 290.533 118.085C290.918 116.174 291.405 114.443 291.995 112.893C292.585 111.314 293.397 109.932 294.431 108.748C295.495 107.564 297.004 106.701 298.958 106.158C300.034 106.352 300.894 107.022 301.537 108.169C302.181 109.286 302.687 110.67 303.054 112.322C303.421 113.975 303.667 115.775 303.791 117.723C303.915 119.642 303.98 121.485 303.986 123.252C303.993 125.019 303.986 126.606 303.967 128.014C303.949 129.391 303.966 130.38 304.018 130.98C303.925 131.218 303.787 131.426 303.605 131.603C303.423 131.78 303.212 131.912 302.971 131.999C302.76 132.056 302.551 132.068 302.341 132.035C302.133 131.973 301.94 131.805 301.764 131.533C301.768 131.204 301.747 130.53 301.701 129.511C301.655 128.492 301.596 127.308 301.524 125.959C301.453 124.581 301.367 123.127 301.268 121.598C301.199 120.04 301.128 118.586 301.057 117.238C301.015 115.859 300.971 114.661 300.925 113.642C300.879 112.623 300.843 111.948 300.817 111.619C300.203 110.502 299.583 109.865 298.956 109.707C298.359 109.549 297.742 109.736 297.106 110.266C296.5 110.797 295.905 111.613 295.322 112.713C294.738 113.814 294.182 115.064 293.654 116.465C293.127 117.835 292.628 119.281 292.159 120.803C291.689 122.324 291.28 123.801 290.931 125.234C290.583 126.637 290.281 127.921 290.026 129.085C289.801 130.22 289.655 131.102 289.586 131.73C289.494 131.939 289.296 132.146 288.994 132.351C288.722 132.527 288.421 132.658 288.09 132.743C287.79 132.829 287.475 132.855 287.146 132.821C286.847 132.757 286.625 132.574 286.479 132.273ZM316.766 125.04C316.458 125.725 316.058 126.513 315.567 127.405C315.105 128.297 314.555 129.144 313.915 129.944C313.306 130.744 312.593 131.424 311.776 131.982C310.96 132.54 310.058 132.812 309.07 132.799C308.621 132.793 308.262 132.743 307.994 132.65C307.756 132.527 307.533 132.359 307.327 132.147C307.15 131.935 306.973 131.678 306.798 131.376C306.652 131.075 306.462 130.743 306.227 130.38C306.157 128.912 306.118 127.339 306.11 125.661C306.133 123.954 306.246 122.264 306.448 120.589C306.65 118.885 306.971 117.287 307.41 115.795C307.88 114.304 308.51 113.039 309.303 112.002C310.126 110.964 311.139 110.229 312.343 109.796C313.546 109.363 314.999 109.352 316.701 109.764C316.802 108.927 316.832 107.804 316.791 106.396C316.75 104.988 316.68 103.504 316.581 101.946C316.482 100.387 316.382 98.8881 316.281 97.4491C316.181 95.9802 316.122 94.7814 316.105 93.8527C316.108 93.5831 316.231 93.3901 316.472 93.2735C316.744 93.1274 317.029 93.0414 317.329 93.0154C317.629 92.9895 317.913 92.9933 318.182 93.0268C318.482 93.0608 318.676 93.1083 318.765 93.1694C318.655 96.8519 318.592 100.475 318.574 104.039C318.557 107.573 318.54 111.107 318.523 114.641C318.536 118.145 318.549 121.635 318.562 125.109C318.576 128.583 318.559 132.057 318.513 135.531C318.508 135.861 318.474 136.205 318.409 136.563C318.374 136.952 318.117 137.143 317.638 137.137C317.458 137.134 317.279 137.072 317.101 136.95C316.923 136.858 316.805 136.706 316.748 136.496L316.766 125.04ZM315.009 111.988C314.081 111.916 313.208 112.278 312.389 113.076C311.6 113.844 310.897 114.853 310.282 116.103C309.696 117.353 309.213 118.739 308.833 120.262C308.454 121.754 308.21 123.204 308.101 124.61C308.023 125.986 308.096 127.215 308.322 128.297C308.577 129.378 309.031 130.118 309.685 130.516C310.343 130.525 310.961 130.279 311.536 129.777C312.113 129.246 312.646 128.579 313.136 127.777C313.625 126.975 314.057 126.082 314.429 125.099C314.802 124.085 315.115 123.116 315.367 122.191C315.649 121.266 315.854 120.43 315.984 119.683C316.144 118.907 316.227 118.324 316.232 117.935C316.236 117.635 316.258 117.156 316.296 116.498C316.335 115.839 316.329 115.18 316.278 114.521C316.227 113.861 316.1 113.276 315.897 112.764C315.724 112.252 315.428 111.994 315.009 111.988ZM322.805 123.638C322.655 123.666 322.43 123.708 322.129 123.764C321.829 123.82 321.515 123.831 321.186 123.796C320.857 123.762 320.573 123.668 320.336 123.515C320.068 123.362 319.937 123.106 319.942 122.746C319.944 122.537 319.991 122.388 320.082 122.299C320.173 122.21 320.325 122.078 320.537 121.901C321.203 121.371 321.766 120.689 322.227 119.857C322.717 118.995 323.164 118.087 323.566 117.134C323.968 116.151 324.386 115.183 324.818 114.231C325.28 113.249 325.801 112.372 326.38 111.601C326.96 110.83 327.672 110.211 328.517 109.743C329.362 109.275 330.398 109.064 331.625 109.11C332.134 109.117 332.701 109.244 333.327 109.492C333.953 109.74 334.532 110.078 335.066 110.504C335.599 110.901 336.042 111.386 336.394 111.959C336.746 112.533 336.917 113.164 336.908 113.853C337.054 114.095 336.9 114.437 336.445 114.88C336.02 115.324 335.429 115.81 334.673 116.339C333.918 116.838 333.057 117.366 332.091 117.922C331.156 118.449 330.251 118.946 329.376 119.413C328.501 119.881 327.732 120.29 327.068 120.64C326.405 120.991 325.967 121.254 325.755 121.431C325.601 121.729 325.477 122.072 325.382 122.46C325.286 122.848 325.207 123.221 325.142 123.58C325.108 123.909 325.073 124.223 325.039 124.522C325.036 124.791 325.033 125.001 325.031 125.151C325.023 125.719 324.985 126.348 324.916 127.036C324.877 127.724 324.898 128.383 324.979 129.013C325.091 129.614 325.339 130.126 325.723 130.551C326.107 130.945 326.763 131.149 327.691 131.161C328.679 131.174 329.611 130.947 330.486 130.48C331.361 129.982 332.178 129.379 332.936 128.671C333.694 127.962 334.378 127.192 334.988 126.362C335.628 125.532 336.193 124.761 336.682 124.048C337.201 123.307 337.658 122.699 338.054 122.225C338.449 121.751 338.782 121.516 339.052 121.519C339.351 121.523 339.665 121.587 339.992 121.712C340.351 121.806 340.527 122.048 340.522 122.437C340.515 122.976 340.281 123.617 339.822 124.36C339.393 125.103 338.813 125.889 338.084 126.718C337.384 127.547 336.564 128.375 335.624 129.201C334.715 129.997 333.792 130.719 332.855 131.365C331.918 131.981 330.998 132.493 330.094 132.901C329.19 133.278 328.394 133.462 327.706 133.453C326.358 133.435 325.344 133.092 324.664 132.424C323.984 131.756 323.501 130.926 323.215 129.933C322.959 128.942 322.823 127.891 322.808 126.783C322.823 125.645 322.822 124.597 322.805 123.638ZM331.232 111.621C330.723 111.614 330.181 111.861 329.605 112.363C329.029 112.834 328.482 113.426 327.964 114.138C327.475 114.82 327.061 115.534 326.722 116.278C326.413 116.993 326.255 117.589 326.249 118.069C326.698 118.075 327.344 117.918 328.187 117.6C329.06 117.253 329.919 116.83 330.765 116.332C331.61 115.834 332.351 115.305 332.987 114.744C333.624 114.184 333.945 113.649 333.952 113.14C333.956 112.87 333.854 112.644 333.647 112.462C333.44 112.279 333.187 112.126 332.889 112.002C332.621 111.879 332.338 111.785 332.039 111.722C331.741 111.658 331.472 111.624 331.232 111.621ZM342.908 111.957L342.913 111.597C342.917 111.298 343.025 111.09 343.236 110.973C343.477 110.856 343.747 110.8 344.047 110.804C344.286 110.807 344.511 110.84 344.719 110.903C344.929 110.935 345.091 111.102 345.207 111.403C345.291 111.854 345.372 112.484 345.451 113.294C345.531 114.073 345.624 114.943 345.731 115.903C345.838 116.863 345.944 117.883 346.049 118.962C346.185 120.012 346.306 121.017 346.413 121.977C346.551 122.907 346.689 123.748 346.829 124.498C346.969 125.249 347.126 125.82 347.3 126.212C347.249 123.336 347.372 120.852 347.669 118.759C347.967 116.637 348.499 114.922 349.266 113.614C350.062 112.277 351.123 111.363 352.447 110.871C353.802 110.35 355.48 110.253 357.483 110.579C358.411 110.591 358.868 111.092 358.855 112.08C358.85 112.469 358.592 112.735 358.081 112.878C357.57 112.991 357 113.074 356.37 113.125C355.741 113.147 355.127 113.183 354.527 113.235C353.927 113.287 353.491 113.431 353.218 113.667C352.132 114.251 351.356 115.169 350.89 116.421C350.454 117.673 350.135 119.152 349.933 120.856C349.73 122.561 349.57 124.43 349.453 126.465C349.366 128.471 349.144 130.535 348.786 132.656C348.782 132.956 348.66 133.179 348.418 133.325C348.176 133.472 347.876 133.543 347.517 133.538C347.187 133.533 346.859 133.454 346.531 133.3C346.234 133.146 345.997 132.918 345.822 132.617L342.908 111.957ZM372.334 128.793C372.21 129.151 371.904 129.641 371.416 130.263C370.959 130.856 370.412 131.463 369.774 132.083C369.138 132.674 368.472 133.204 367.776 133.674C367.112 134.114 366.525 134.331 366.016 134.324C365.057 134.311 364.27 133.852 363.653 132.945C363.066 132.038 362.617 130.879 362.307 129.468C361.996 128.056 361.792 126.496 361.695 124.787C361.599 123.049 361.547 121.356 361.539 119.708C361.531 118.061 361.536 116.563 361.554 115.216C361.572 113.868 361.541 112.85 361.46 112.16C361.584 111.862 361.736 111.684 361.916 111.627C362.127 111.57 362.367 111.543 362.636 111.546C362.876 111.55 363.085 111.582 363.264 111.645C363.473 111.707 363.65 111.889 363.796 112.191C363.791 112.52 363.784 113.074 363.773 113.853C363.793 114.632 363.826 115.516 363.873 116.505C363.92 117.464 363.966 118.483 364.012 119.562C364.057 120.611 364.089 121.614 364.106 122.573C364.153 123.532 364.187 124.401 364.206 125.18C364.256 125.929 364.293 126.484 364.319 126.844C364.346 127.054 364.371 127.399 364.395 127.878C364.448 128.358 364.516 128.868 364.599 129.408C364.712 129.919 364.84 130.385 364.984 130.806C365.159 131.228 365.38 131.455 365.649 131.489C366.098 131.495 366.55 131.306 367.005 130.923C367.489 130.54 367.96 130.052 368.417 129.459C368.874 128.866 369.302 128.213 369.701 127.5C370.1 126.786 370.453 126.102 370.762 125.447C371.1 124.763 371.348 124.152 371.505 123.615C371.692 123.079 371.802 122.691 371.835 122.452C371.902 121.943 371.971 121.226 372.043 120.298C372.116 119.341 372.175 118.323 372.219 117.245C372.263 116.168 372.292 115.15 372.305 114.192C372.348 113.234 372.372 112.5 372.379 111.991L374.848 112.159C374.845 114.585 374.801 116.786 374.715 118.761C374.629 120.707 374.589 122.548 374.596 124.286C374.603 125.993 374.716 127.657 374.934 129.277C375.151 130.897 375.563 132.58 376.169 134.325C376.078 134.414 375.897 134.531 375.625 134.677C375.353 134.853 375.157 134.941 375.038 134.939C374.289 134.929 373.783 134.668 373.521 134.155C373.287 133.673 373.13 133.101 373.049 132.441C372.999 131.752 372.948 131.077 372.897 130.418C372.876 129.729 372.688 129.187 372.334 128.793ZM380.157 114.926C379.856 115.071 379.569 115.232 379.297 115.408C379.055 115.555 378.814 115.701 378.572 115.848C378.331 115.964 378.09 116.051 377.85 116.108C377.61 116.164 377.355 116.161 377.086 116.097C376.907 116.095 376.758 115.988 376.641 115.777C376.525 115.536 376.438 115.28 376.382 115.01C376.296 114.709 376.24 114.424 376.214 114.154C376.188 113.854 376.191 113.63 376.223 113.48L380.568 111.067L380.991 99.572C381.056 99.1835 381.298 99.037 381.716 99.1324C382.134 99.1979 382.567 99.2936 383.015 99.4193C383.075 99.4201 383.164 99.4513 383.283 99.5128C383.433 99.5447 383.537 99.5761 383.596 99.6068C383.526 100.415 383.439 101.297 383.336 102.254C383.264 103.181 383.192 104.124 383.119 105.081C383.047 106.009 382.99 106.922 382.948 107.82C382.936 108.718 382.97 109.527 383.05 110.247L389.813 108.45C389.933 108.422 390.022 108.513 390.079 108.724C390.166 108.904 390.238 109.13 390.294 109.4C390.381 109.671 390.437 109.941 390.463 110.211C390.49 110.481 390.503 110.616 390.503 110.616L382.823 113.748C382.82 114.018 382.826 114.662 382.843 115.68C382.889 116.699 382.932 117.913 382.974 119.321C383.015 120.699 383.055 122.197 383.093 123.815C383.132 125.403 383.172 126.886 383.213 128.264C383.255 129.643 383.284 130.856 383.3 131.905C383.316 132.923 383.322 133.567 383.319 133.837C383.247 134.734 382.971 135.18 382.492 135.173C382.043 135.167 381.552 134.936 381.019 134.48L380.157 114.926ZM391.771 133.366C391.797 131.419 391.78 129.367 391.718 127.21C391.687 125.053 391.642 122.881 391.581 120.694C391.551 118.477 391.565 116.306 391.623 114.18C391.681 112.055 391.843 110.065 392.107 108.212C392.168 108.182 392.302 108.169 392.512 108.172C392.752 108.145 392.917 108.133 393.007 108.134C393.426 108.139 393.754 108.219 393.992 108.372C394.26 108.495 394.391 108.781 394.385 109.23C394.361 110.997 394.32 112.928 394.262 115.024C394.235 117.09 394.192 119.201 394.133 121.357C394.104 123.483 394.076 125.594 394.048 127.69C394.02 129.787 394.025 131.689 394.062 133.396C394.085 133.906 393.976 134.234 393.734 134.38C393.522 134.557 393.251 134.643 392.922 134.639C392.563 134.634 392.264 134.54 392.027 134.357C391.79 134.204 391.704 133.874 391.771 133.366ZM391.213 101.191C391.218 100.832 391.34 100.594 391.582 100.477C391.823 100.361 392.093 100.304 392.393 100.308C392.991 100.316 393.363 100.516 393.508 100.907C393.652 101.299 393.721 101.749 393.714 102.258C393.53 102.585 393.302 102.821 393.031 102.968C392.76 103.084 392.475 103.11 392.176 103.046C391.908 102.953 391.671 102.755 391.465 102.452C391.29 102.151 391.205 101.73 391.213 101.191ZM398.123 132.058C398.351 130.683 398.509 128.963 398.596 126.898C398.714 124.833 398.773 122.632 398.774 120.296C398.806 117.96 398.793 115.549 398.736 113.062C398.68 110.576 398.591 108.223 398.471 106.005C398.352 103.758 398.199 101.749 398.013 99.9792C397.857 98.2101 397.681 96.815 397.485 95.7941C397.757 95.618 397.983 95.4862 398.164 95.3988C398.375 95.2818 398.615 95.2251 398.885 95.2287C399.094 95.2315 399.274 95.2789 399.422 95.3707C399.571 95.4326 399.689 95.5839 399.775 95.8247C400.296 101.702 400.621 107.622 400.751 113.583C400.911 119.546 401.011 125.477 401.052 131.378C401.049 131.648 401.044 132.022 401.037 132.501C401.031 132.95 401.013 133.19 400.983 133.219C400.561 133.423 400.185 133.523 399.856 133.519C399.527 133.484 399.228 133.39 398.961 133.237C398.694 133.054 398.487 132.856 398.34 132.645C398.193 132.433 398.121 132.237 398.123 132.058ZM404.213 133.532C404.239 131.585 404.222 129.534 404.161 127.376C404.13 125.219 404.084 123.047 404.023 120.86C403.993 118.644 404.007 116.472 404.065 114.347C404.124 112.221 404.285 110.231 404.549 108.378C404.61 108.349 404.745 108.336 404.954 108.338C405.194 108.312 405.359 108.299 405.449 108.3C405.868 108.306 406.197 108.385 406.434 108.538C406.702 108.661 406.833 108.948 406.827 109.397C406.803 111.163 406.763 113.095 406.705 115.191C406.677 117.257 406.634 119.368 406.575 121.523C406.547 123.649 406.518 125.761 406.49 127.857C406.462 129.953 406.467 131.855 406.504 133.563C406.527 134.072 406.418 134.4 406.176 134.547C405.964 134.723 405.694 134.81 405.364 134.805C405.005 134.8 404.707 134.707 404.47 134.524C404.232 134.371 404.147 134.04 404.213 133.532ZM403.655 101.358C403.66 100.998 403.783 100.76 404.024 100.644C404.265 100.527 404.535 100.471 404.835 100.475C405.434 100.483 405.805 100.682 405.95 101.074C406.094 101.465 406.163 101.915 406.157 102.424C405.972 102.751 405.745 102.988 405.473 103.134C405.202 103.25 404.917 103.276 404.619 103.212C404.35 103.119 404.113 102.921 403.908 102.619C403.732 102.317 403.648 101.897 403.655 101.358ZM415.694 135.033C415.554 134.342 415.61 133.46 415.864 132.385C416.149 131.28 416.539 130.088 417.035 128.806C417.532 127.525 418.103 126.2 418.751 124.831C419.428 123.462 420.074 122.168 420.69 120.948C421.335 119.699 421.904 118.568 422.397 117.557C422.89 116.545 423.23 115.741 423.418 115.144C423.418 115.114 423.419 115.084 423.419 115.055C423.45 114.995 423.465 114.935 423.466 114.875C423.467 114.816 423.453 114.755 423.424 114.695C423.425 114.635 423.425 114.59 423.426 114.56C422.583 114.879 421.649 115.241 420.626 115.646C419.632 116.022 418.624 116.398 417.601 116.774C416.578 117.12 415.57 117.45 414.577 117.767C413.615 118.053 412.728 118.281 411.917 118.45C411.796 118.538 411.587 118.505 411.29 118.352C410.992 118.198 410.71 118 410.444 117.756C410.178 117.483 409.987 117.211 409.871 116.94C409.785 116.639 409.894 116.371 410.196 116.136C411.184 116.149 412.355 115.97 413.708 115.599C415.061 115.197 416.43 114.736 417.814 114.216C419.229 113.696 420.599 113.19 421.923 112.698C423.278 112.177 424.466 111.819 425.486 111.623C426.475 111.636 426.962 112.137 426.949 113.125C426.935 114.203 426.726 115.263 426.322 116.306C425.949 117.32 425.472 118.317 424.89 119.297C424.337 120.278 423.726 121.243 423.054 122.193C422.412 123.143 421.8 124.108 421.218 125.089C420.666 126.07 420.188 127.066 419.786 128.079C419.383 129.092 419.174 130.138 419.16 131.216L419.152 131.755L435.637 128.606L435.952 128.61C436.371 128.616 436.744 128.755 437.069 129.029C437.425 129.274 437.676 129.561 437.822 129.893C437.997 130.195 438.008 130.509 437.854 130.837C437.7 131.164 437.322 131.399 436.721 131.54C436.601 131.539 436.467 131.552 436.316 131.58C436.196 131.608 435.911 131.664 435.461 131.748C435.041 131.803 434.41 131.899 433.57 132.037C432.73 132.146 431.544 132.325 430.014 132.574C428.513 132.823 426.591 133.157 424.25 133.575C421.938 133.964 419.086 134.45 415.694 135.033ZM439.457 125.198C439.307 125.225 439.081 125.267 438.781 125.323C438.481 125.379 438.166 125.39 437.837 125.356C437.508 125.321 437.225 125.228 436.987 125.075C436.72 124.921 436.589 124.665 436.593 124.306C436.596 124.096 436.643 123.947 436.734 123.858C436.825 123.77 436.977 123.637 437.189 123.46C437.855 122.93 438.418 122.248 438.878 121.416C439.369 120.554 439.815 119.646 440.218 118.693C440.62 117.71 441.037 116.743 441.469 115.79C441.932 114.808 442.453 113.931 443.032 113.16C443.611 112.389 444.323 111.77 445.168 111.302C446.013 110.834 447.049 110.623 448.277 110.67C448.786 110.676 449.353 110.804 449.979 111.052C450.604 111.3 451.184 111.637 451.717 112.063C452.251 112.46 452.694 112.945 453.046 113.519C453.397 114.093 453.569 114.724 453.559 115.413C453.706 115.654 453.552 115.996 453.096 116.44C452.671 116.883 452.081 117.369 451.325 117.898C450.569 118.398 449.709 118.925 448.743 119.481C447.807 120.008 446.902 120.505 446.027 120.972C445.153 121.44 444.383 121.849 443.72 122.2C443.056 122.55 442.618 122.814 442.406 122.991C442.253 123.288 442.128 123.631 442.033 124.019C441.938 124.407 441.858 124.78 441.794 125.139C441.759 125.468 441.725 125.782 441.691 126.081C441.688 126.351 441.685 126.56 441.683 126.71C441.675 127.279 441.637 127.907 441.568 128.595C441.529 129.284 441.55 129.943 441.631 130.573C441.743 131.173 441.991 131.686 442.374 132.11C442.758 132.505 443.415 132.708 444.343 132.721C445.331 132.734 446.263 132.507 447.137 132.039C448.013 131.542 448.829 130.939 449.588 130.23C450.346 129.521 451.03 128.752 451.64 127.921C452.28 127.091 452.845 126.32 453.333 125.608C453.852 124.866 454.31 124.258 454.705 123.784C455.101 123.31 455.434 123.075 455.703 123.079C456.003 123.083 456.316 123.147 456.644 123.271C457.002 123.365 457.179 123.607 457.174 123.997C457.166 124.536 456.933 125.177 456.474 125.919C456.045 126.662 455.465 127.448 454.735 128.277C454.035 129.106 453.216 129.934 452.276 130.76C451.367 131.557 450.444 132.278 449.507 132.924C448.57 133.541 447.65 134.053 446.746 134.46C445.842 134.837 445.046 135.021 444.357 135.012C443.01 134.994 441.996 134.651 441.316 133.983C440.636 133.315 440.153 132.485 439.867 131.493C439.61 130.501 439.475 129.451 439.46 128.342C439.475 127.204 439.474 126.156 439.457 125.198ZM447.884 113.18C447.375 113.173 446.832 113.421 446.256 113.922C445.681 114.394 445.134 114.985 444.615 115.697C444.127 116.38 443.713 117.093 443.374 117.837C443.065 118.552 442.907 119.149 442.901 119.628C443.35 119.634 443.996 119.478 444.839 119.16C445.712 118.812 446.571 118.389 447.416 117.891C448.262 117.393 449.003 116.864 449.639 116.304C450.275 115.743 450.597 115.208 450.604 114.699C450.607 114.43 450.506 114.204 450.298 114.021C450.091 113.839 449.839 113.686 449.541 113.562C449.273 113.438 448.99 113.345 448.691 113.281C448.392 113.217 448.123 113.183 447.884 113.18ZM469.217 127.078C468.909 127.763 468.509 128.551 468.018 129.443C467.557 130.335 467.006 131.182 466.366 131.982C465.757 132.782 465.044 133.461 464.228 134.02C463.412 134.578 462.509 134.85 461.521 134.837C461.072 134.831 460.713 134.781 460.445 134.688C460.207 134.565 459.985 134.397 459.778 134.185C459.601 133.973 459.425 133.716 459.249 133.414C459.103 133.113 458.913 132.781 458.678 132.418C458.608 130.949 458.569 129.377 458.562 127.699C458.584 125.992 458.697 124.302 458.899 122.627C459.102 120.923 459.422 119.325 459.862 117.833C460.331 116.342 460.962 115.077 461.754 114.039C462.577 113.002 463.59 112.267 464.794 111.834C465.998 111.401 467.45 111.39 469.152 111.802C469.253 110.965 469.283 109.842 469.242 108.434C469.201 107.026 469.131 105.542 469.032 103.984C468.933 102.425 468.833 100.926 468.733 99.4869C468.632 98.018 468.574 96.8192 468.556 95.8905C468.56 95.621 468.682 95.4279 468.923 95.3114C469.195 95.1652 469.48 95.0792 469.78 95.0533C470.08 95.0273 470.365 95.0311 470.634 95.0647C470.933 95.0986 471.127 95.1461 471.216 95.2072C471.107 98.8897 471.043 102.513 471.026 106.077C471.008 109.611 470.991 113.145 470.974 116.679C470.987 120.183 471 123.672 471.014 127.147C471.027 130.621 471.01 134.095 470.964 137.569C470.96 137.898 470.925 138.242 470.86 138.601C470.825 138.99 470.568 139.181 470.089 139.175C469.909 139.172 469.73 139.11 469.552 138.988C469.374 138.896 469.256 138.744 469.199 138.534L469.217 127.078ZM467.46 114.026C466.533 113.954 465.659 114.316 464.84 115.114C464.051 115.882 463.348 116.891 462.733 118.141C462.147 119.391 461.664 120.777 461.284 122.3C460.905 123.792 460.661 125.241 460.552 126.648C460.474 128.024 460.548 129.253 460.773 130.334C461.028 131.416 461.482 132.156 462.136 132.554C462.795 132.563 463.412 132.317 463.988 131.815C464.564 131.284 465.097 130.617 465.587 129.815C466.077 129.013 466.508 128.12 466.88 127.137C467.253 126.123 467.566 125.154 467.818 124.229C468.1 123.304 468.306 122.468 468.435 121.721C468.596 120.945 468.678 120.362 468.683 119.972C468.687 119.673 468.709 119.194 468.748 118.536C468.786 117.877 468.78 117.218 468.729 116.559C468.678 115.899 468.551 115.313 468.348 114.802C468.175 114.29 467.879 114.032 467.46 114.026Z" fill="#333333"/>
<path d="M632.343 126.018C632.204 125.237 632.082 124.307 631.976 123.228C631.901 122.118 631.811 121.009 631.706 119.9C631.602 118.76 631.466 117.695 631.3 116.704C631.163 115.714 630.934 114.902 630.613 114.269C629.045 117.363 627.664 119.801 626.472 121.582C625.281 123.333 624.231 124.592 623.322 125.358C622.444 126.095 621.705 126.445 621.107 126.407C620.508 126.369 620.018 126.093 619.635 125.579C619.253 125.064 618.977 124.417 618.807 123.636C618.669 122.825 618.574 122.075 618.523 121.386C618.532 120.727 618.694 119.8 619.009 118.607C619.325 117.413 619.747 116.116 620.274 114.715C620.803 113.284 621.421 111.84 622.129 110.382C622.868 108.924 623.649 107.602 624.474 106.415C625.298 105.228 626.15 104.251 627.029 103.484C627.908 102.717 628.781 102.339 629.65 102.351C630.94 102.159 631.879 102.456 632.468 103.242C633.087 103.999 633.19 105.273 632.776 107.065C632.75 109.041 632.802 110.734 632.933 112.144C633.094 113.554 633.256 114.903 633.418 116.194C633.61 117.484 633.772 118.834 633.903 120.243C634.064 121.653 634.131 123.346 634.105 125.323C634.1 125.682 634.051 125.996 633.957 126.264C633.894 126.503 633.533 126.618 632.874 126.609C632.785 126.608 632.666 126.531 632.518 126.38C632.4 126.228 632.342 126.108 632.343 126.018ZM630.186 105.907C629.863 105.424 629.414 105.373 628.84 105.754C628.266 106.136 627.659 106.772 627.018 107.662C626.377 108.552 625.719 109.621 625.043 110.87C624.367 112.119 623.737 113.384 623.15 114.664C622.564 115.944 622.054 117.165 621.619 118.327C621.184 119.459 620.887 120.399 620.728 121.145C620.713 122.223 620.87 122.84 621.197 122.994C621.525 123.118 621.932 122.944 622.417 122.471C622.903 121.998 623.451 121.317 624.062 120.426C624.703 119.536 625.314 118.586 625.897 117.576C626.509 116.565 627.077 115.585 627.598 114.633C628.15 113.682 628.58 112.909 628.887 112.314C629.165 111.689 629.383 111.108 629.54 110.571C629.697 110.034 629.823 109.526 629.919 109.048C630.046 108.541 630.113 108.033 630.12 107.524C630.156 107.015 630.178 106.476 630.186 105.907ZM636.392 139.056C636.763 135.916 636.983 132.924 637.051 130.079C637.149 127.265 637.171 124.48 637.118 121.724C637.095 118.968 637.027 116.182 636.915 113.365C636.803 110.548 636.753 107.567 636.765 104.423C636.861 104.005 636.97 103.692 637.092 103.484C637.245 103.246 637.62 103.191 638.217 103.319C638.844 103.477 639.214 103.842 639.326 104.412C639.439 104.953 639.46 105.567 639.391 106.255C639.322 106.943 639.223 107.63 639.094 108.318C638.965 109.005 638.958 109.559 639.072 109.979C640.039 109.304 641.067 108.598 642.155 107.864C643.243 107.13 644.375 106.486 645.55 105.933C646.726 105.35 647.945 104.932 649.206 104.679C650.468 104.396 651.726 104.398 652.98 104.684C654.532 105.065 655.603 105.618 656.192 106.345C656.812 107.042 657.041 107.854 656.879 108.78C656.747 109.677 656.314 110.674 655.581 111.773C654.848 112.841 653.95 113.922 652.887 115.016C651.824 116.11 650.641 117.188 649.339 118.248C648.037 119.309 646.766 120.295 645.526 121.207C644.286 122.089 643.123 122.867 642.035 123.542C640.978 124.217 640.133 124.714 639.5 125.035C639.465 125.394 639.412 125.963 639.342 126.74C639.302 127.489 639.246 128.342 639.173 129.299C639.13 130.257 639.072 131.259 638.998 132.307C638.954 133.354 638.896 134.357 638.823 135.314C638.78 136.272 638.724 137.125 638.654 137.873C638.614 138.621 638.592 139.175 638.587 139.534C638.527 139.563 638.421 139.592 638.271 139.62C638.121 139.648 637.941 139.66 637.732 139.658C637.522 139.685 637.327 139.697 637.147 139.695C636.967 139.722 636.847 139.721 636.788 139.69C636.698 139.689 636.609 139.598 636.522 139.417C636.434 139.266 636.391 139.145 636.392 139.056ZM639.236 114.474C639.141 114.892 639.104 115.416 639.126 116.045C639.177 116.645 639.229 117.29 639.279 117.979C639.36 118.639 639.442 119.284 639.523 119.914C639.605 120.544 639.657 121.084 639.681 121.534C640.831 120.68 642.16 119.815 643.669 118.936C645.209 118.058 646.689 117.105 648.11 116.075C649.562 115.047 650.85 113.896 651.975 112.623C653.1 111.35 653.853 109.908 654.234 108.295C654.363 107.668 654.308 107.248 654.072 107.035C653.865 106.793 653.493 106.623 652.955 106.526C651.82 106.271 650.517 106.344 649.044 106.743C647.571 107.113 646.141 107.678 644.753 108.438C643.395 109.199 642.2 110.111 641.167 111.176C640.135 112.24 639.491 113.34 639.236 114.474ZM658.581 139.352C658.953 136.212 659.173 133.22 659.241 130.376C659.338 127.562 659.36 124.777 659.307 122.021C659.284 119.265 659.217 116.478 659.105 113.662C658.992 110.845 658.942 107.864 658.955 104.719C659.05 104.301 659.159 103.988 659.282 103.78C659.434 103.543 659.81 103.488 660.407 103.616C661.034 103.774 661.403 104.138 661.515 104.709C661.628 105.249 661.65 105.864 661.581 106.552C661.512 107.239 661.413 107.927 661.284 108.614C661.155 109.301 661.147 109.855 661.261 110.276C662.229 109.6 663.256 108.895 664.345 108.161C665.433 107.427 666.564 106.783 667.74 106.23C668.916 105.646 670.134 105.228 671.396 104.976C672.657 104.693 673.915 104.695 675.169 104.981C676.722 105.361 677.792 105.915 678.382 106.641C679.001 107.338 679.23 108.15 679.068 109.076C678.936 109.973 678.504 110.971 677.77 112.069C677.037 113.138 676.139 114.219 675.076 115.313C674.013 116.407 672.831 117.484 671.529 118.545C670.227 119.606 668.955 120.592 667.715 121.504C666.476 122.386 665.312 123.164 664.225 123.838C663.168 124.513 662.322 125.011 661.689 125.332C661.654 125.691 661.602 126.259 661.531 127.037C661.491 127.785 661.435 128.638 661.362 129.596C661.32 130.553 661.261 131.556 661.187 132.603C661.144 133.651 661.085 134.654 661.012 135.611C660.97 136.569 660.913 137.422 660.844 138.169C660.804 138.918 660.781 139.472 660.776 139.831C660.716 139.86 660.611 139.889 660.461 139.916C660.311 139.944 660.131 139.957 659.921 139.954C659.711 139.981 659.516 139.994 659.337 139.991C659.157 140.019 659.037 140.017 658.977 139.987C658.887 139.985 658.799 139.894 658.711 139.713C658.624 139.562 658.58 139.442 658.581 139.352ZM661.426 114.771C661.33 115.189 661.293 115.713 661.315 116.342C661.367 116.942 661.418 117.586 661.469 118.276C661.55 118.936 661.631 119.581 661.713 120.211C661.794 120.841 661.847 121.381 661.871 121.83C663.02 120.977 664.35 120.111 665.859 119.233C667.398 118.355 668.878 117.401 670.3 116.372C671.751 115.343 673.039 114.192 674.165 112.92C675.29 111.647 676.043 110.204 676.424 108.592C676.552 107.965 676.498 107.545 676.261 107.332C676.055 107.089 675.682 106.92 675.145 106.823C674.01 106.568 672.706 106.64 671.233 107.04C669.761 107.41 668.33 107.975 666.943 108.735C665.585 109.495 664.389 110.408 663.357 111.472C662.324 112.537 661.681 113.636 661.426 114.771ZM681.083 106.183L681.088 105.824C681.092 105.524 681.2 105.316 681.411 105.199C681.652 105.083 681.923 105.026 682.222 105.03C682.462 105.034 682.686 105.067 682.895 105.129C683.104 105.162 683.266 105.329 683.382 105.63C683.466 106.08 683.547 106.71 683.626 107.52C683.706 108.3 683.799 109.17 683.906 110.13C684.013 111.089 684.119 112.109 684.224 113.189C684.36 114.239 684.481 115.244 684.588 116.204C684.726 117.134 684.864 117.974 685.004 118.725C685.144 119.476 685.301 120.047 685.475 120.439C685.424 117.563 685.547 115.078 685.844 112.986C686.142 110.863 686.674 109.148 687.441 107.841C688.237 106.504 689.298 105.589 690.622 105.098C691.977 104.577 693.655 104.479 695.658 104.806C696.586 104.818 697.044 105.318 697.03 106.307C697.025 106.696 696.767 106.962 696.256 107.105C695.745 107.218 695.175 107.3 694.546 107.352C693.916 107.373 693.302 107.41 692.702 107.462C692.102 107.514 691.666 107.658 691.393 107.893C690.307 108.478 689.531 109.396 689.065 110.648C688.629 111.9 688.31 113.378 688.108 115.083C687.905 116.787 687.745 118.657 687.628 120.692C687.542 122.697 687.319 124.761 686.962 126.883C686.958 127.182 686.835 127.405 686.593 127.552C686.352 127.698 686.051 127.769 685.692 127.764C685.362 127.76 685.034 127.681 684.707 127.527C684.409 127.373 684.173 127.145 683.997 126.843L681.083 106.183ZM699.068 121.923C698.877 120.543 698.79 119.209 698.807 117.921C698.825 116.604 698.917 115.272 699.085 113.927C699.283 112.581 699.541 111.192 699.86 109.759C700.209 108.296 700.604 106.729 701.046 105.057C701.05 104.728 701.144 104.43 701.327 104.163C701.511 103.866 701.753 103.629 702.055 103.454C702.358 103.248 702.674 103.087 703.005 102.972C703.336 102.857 703.651 102.801 703.951 102.805C704.61 102.814 705.206 103.031 705.739 103.458C706.273 103.884 706.745 104.4 707.156 105.004C707.597 105.609 707.963 106.258 708.253 106.951C708.574 107.614 708.836 108.187 709.039 108.668C709.265 109.72 709.413 110.92 709.485 112.268C709.587 113.588 709.584 114.935 709.476 116.312C709.368 117.688 709.14 119.048 708.792 120.391C708.445 121.704 707.965 122.911 707.351 124.011C706.738 125.111 705.947 126.028 704.978 126.764C704.04 127.5 702.926 127.95 701.636 128.112C700.947 128.103 700.426 127.871 700.073 127.417C699.72 126.934 699.458 126.361 699.287 125.7C699.147 125.009 699.066 124.319 699.045 123.63C699.054 122.941 699.062 122.372 699.068 121.923ZM701.361 121.819C701.357 122.118 701.353 122.403 701.349 122.672C701.376 122.942 701.402 123.212 701.428 123.482C701.485 123.722 701.541 123.993 701.597 124.293C701.683 124.564 701.784 124.88 701.899 125.241L702.168 125.244C702.887 125.254 703.504 125.022 704.02 124.55C704.535 124.078 704.978 123.47 705.347 122.726C705.717 121.952 706.027 121.103 706.279 120.178C706.532 119.222 706.724 118.297 706.856 117.4C707.018 116.474 707.119 115.621 707.159 114.843C707.23 114.035 707.269 113.392 707.275 112.913L707.287 112.014C707.292 111.625 707.283 111.191 707.26 110.711C707.236 110.202 707.183 109.692 707.1 109.182C707.048 108.642 706.949 108.161 706.805 107.74C706.661 107.289 706.472 106.927 706.236 106.654C706 106.382 705.687 106.243 705.298 106.237C704.642 106.019 704.072 106.056 703.589 106.349C703.136 106.643 702.755 107.147 702.446 107.862C702.167 108.547 701.946 109.397 701.783 110.413C701.619 111.43 701.514 112.551 701.468 113.779C701.422 115.006 701.389 116.308 701.371 117.686C701.382 119.064 701.379 120.441 701.361 121.819ZM711.27 140.057C711.641 136.917 711.861 133.925 711.929 131.08C712.027 128.266 712.049 125.481 711.996 122.725C711.973 119.969 711.905 117.183 711.793 114.366C711.681 111.549 711.631 108.568 711.643 105.424C711.739 105.006 711.848 104.693 711.97 104.485C712.123 104.247 712.498 104.192 713.096 104.32C713.722 104.478 714.092 104.842 714.204 105.413C714.317 105.954 714.338 106.568 714.269 107.256C714.2 107.944 714.101 108.631 713.972 109.318C713.843 110.006 713.836 110.56 713.95 110.98C714.917 110.304 715.945 109.599 717.033 108.865C718.121 108.131 719.253 107.487 720.428 106.934C721.604 106.351 722.823 105.933 724.084 105.68C725.346 105.397 726.604 105.399 727.858 105.685C729.41 106.066 730.481 106.619 731.07 107.346C731.69 108.043 731.919 108.854 731.757 109.781C731.625 110.678 731.192 111.675 730.459 112.773C729.726 113.842 728.828 114.923 727.765 116.017C726.702 117.111 725.519 118.188 724.217 119.249C722.915 120.31 721.644 121.296 720.404 122.208C719.164 123.09 718.001 123.868 716.913 124.543C715.856 125.217 715.011 125.715 714.378 126.036C714.343 126.395 714.29 126.964 714.22 127.741C714.18 128.49 714.124 129.342 714.051 130.3C714.008 131.258 713.95 132.26 713.876 133.308C713.832 134.355 713.774 135.358 713.701 136.315C713.658 137.273 713.602 138.126 713.532 138.874C713.492 139.622 713.47 140.176 713.465 140.535C713.405 140.564 713.3 140.593 713.149 140.621C712.999 140.649 712.819 140.661 712.61 140.658C712.4 140.686 712.205 140.698 712.025 140.696C711.845 140.723 711.725 140.722 711.666 140.691C711.576 140.69 711.487 140.599 711.4 140.418C711.312 140.267 711.269 140.146 711.27 140.057ZM714.114 115.475C714.019 115.893 713.982 116.417 714.004 117.046C714.056 117.646 714.107 118.29 714.157 118.98C714.239 119.64 714.32 120.285 714.401 120.915C714.483 121.545 714.535 122.085 714.559 122.534C715.709 121.681 717.038 120.816 718.547 119.937C720.087 119.059 721.567 118.106 722.988 117.076C724.44 116.047 725.728 114.897 726.853 113.624C727.978 112.351 728.732 110.908 729.112 109.296C729.241 108.669 729.186 108.249 728.95 108.036C728.743 107.794 728.371 107.624 727.833 107.527C726.699 107.272 725.395 107.345 723.922 107.744C722.449 108.114 721.019 108.679 719.631 109.439C718.273 110.2 717.078 111.112 716.045 112.176C715.013 113.241 714.369 114.34 714.114 115.475ZM733.772 106.888L733.777 106.528C733.781 106.229 733.888 106.021 734.1 105.904C734.341 105.787 734.611 105.731 734.911 105.735C735.15 105.738 735.374 105.771 735.583 105.834C735.792 105.866 735.955 106.033 736.071 106.334C736.154 106.785 736.236 107.415 736.315 108.224C736.394 109.004 736.488 109.874 736.595 110.834C736.702 111.794 736.808 112.813 736.913 113.893C737.049 114.943 737.17 115.948 737.277 116.908C737.414 117.838 737.553 118.679 737.693 119.429C737.832 120.18 737.989 120.751 738.164 121.143C738.113 118.267 738.236 115.783 738.533 113.69C738.831 111.568 739.363 109.853 740.129 108.545C740.926 107.208 741.986 106.294 743.311 105.802C744.666 105.281 746.344 105.184 748.346 105.51C749.275 105.522 749.732 106.023 749.719 107.011C749.714 107.4 749.456 107.666 748.945 107.809C748.434 107.922 747.864 108.004 747.234 108.056C746.605 108.077 745.99 108.114 745.391 108.166C744.791 108.218 744.355 108.362 744.082 108.598C742.996 109.182 742.22 110.1 741.754 111.352C741.318 112.604 740.999 114.082 740.796 115.787C740.594 117.491 740.434 119.361 740.317 121.396C740.23 123.402 740.008 125.465 739.65 127.587C739.646 127.887 739.523 128.11 739.282 128.256C739.04 128.403 738.74 128.473 738.38 128.469C738.051 128.464 737.723 128.385 737.395 128.231C737.098 128.077 736.861 127.849 736.686 127.547L733.772 106.888ZM752.45 127.893C752.476 125.947 752.459 123.895 752.397 121.737C752.366 119.581 752.321 117.409 752.26 115.221C752.23 113.005 752.244 110.833 752.302 108.708C752.36 106.582 752.522 104.592 752.786 102.739C752.847 102.71 752.981 102.697 753.191 102.699C753.431 102.673 753.596 102.66 753.686 102.661C754.105 102.667 754.433 102.746 754.671 102.899C754.939 103.022 755.07 103.309 755.064 103.758C755.04 105.525 754.999 107.456 754.941 109.552C754.914 111.618 754.871 113.729 754.812 115.884C754.783 118.011 754.755 120.122 754.727 122.218C754.699 124.314 754.704 126.216 754.741 127.924C754.764 128.433 754.655 128.761 754.413 128.908C754.201 129.084 753.93 129.171 753.601 129.166C753.242 129.161 752.943 129.068 752.706 128.885C752.469 128.732 752.383 128.401 752.45 127.893ZM751.892 95.7186C751.897 95.3592 752.019 95.1213 752.261 95.0047C752.502 94.8881 752.772 94.8318 753.072 94.8358C753.67 94.8438 754.042 95.0435 754.187 95.4348C754.331 95.8261 754.4 96.2763 754.393 96.7853C754.209 97.1123 753.981 97.3489 753.71 97.495C753.439 97.6112 753.154 97.6373 752.855 97.5734C752.587 97.48 752.35 97.2821 752.144 96.9799C751.969 96.678 751.884 96.2576 751.892 95.7186ZM770.6 127.866C770.461 127.085 770.339 126.155 770.233 125.076C770.158 123.967 770.068 122.857 769.963 121.748C769.859 120.608 769.723 119.543 769.557 118.552C769.42 117.562 769.192 116.751 768.871 116.117C767.302 119.211 765.921 121.649 764.729 123.43C763.538 125.181 762.488 126.44 761.579 127.206C760.701 127.943 759.962 128.293 759.364 128.255C758.765 128.217 758.275 127.941 757.892 127.427C757.51 126.912 757.234 126.265 757.065 125.484C756.926 124.673 756.831 123.923 756.78 123.234C756.789 122.575 756.951 121.649 757.267 120.455C757.582 119.261 758.004 117.964 758.532 116.563C759.06 115.133 759.678 113.688 760.387 112.23C761.125 110.772 761.906 109.45 762.731 108.263C763.555 107.076 764.407 106.099 765.286 105.332C766.165 104.565 767.038 104.187 767.907 104.199C769.197 104.007 770.137 104.304 770.725 105.09C771.344 105.847 771.447 107.122 771.033 108.913C771.007 110.889 771.059 112.582 771.19 113.992C771.351 115.402 771.513 116.752 771.675 118.042C771.868 119.332 772.029 120.682 772.16 122.091C772.321 123.501 772.388 125.194 772.362 127.171C772.357 127.53 772.308 127.844 772.214 128.112C772.151 128.351 771.79 128.466 771.132 128.457C771.042 128.456 770.923 128.38 770.775 128.228C770.657 128.076 770.599 127.956 770.6 127.866ZM768.443 107.755C768.12 107.272 767.672 107.221 767.097 107.603C766.523 107.984 765.916 108.62 765.275 109.51C764.634 110.4 763.976 111.469 763.3 112.718C762.625 113.967 761.994 115.232 761.408 116.512C760.821 117.792 760.311 119.013 759.876 120.175C759.442 121.307 759.145 122.247 758.985 122.994C758.97 124.072 759.127 124.688 759.454 124.842C759.782 124.966 760.189 124.792 760.674 124.319C761.16 123.846 761.708 123.165 762.319 122.274C762.96 121.384 763.572 120.434 764.154 119.424C764.767 118.414 765.334 117.433 765.856 116.481C766.407 115.53 766.837 114.757 767.145 114.162C767.423 113.537 767.64 112.956 767.797 112.419C767.954 111.882 768.08 111.375 768.177 110.897C768.303 110.389 768.37 109.881 768.377 109.372C768.413 108.863 768.436 108.324 768.443 107.755ZM776.141 109.925C775.84 110.071 775.553 110.231 775.281 110.408C775.04 110.554 774.798 110.701 774.557 110.847C774.316 110.964 774.075 111.05 773.834 111.107C773.594 111.164 773.34 111.16 773.071 111.097C772.891 111.094 772.743 110.988 772.626 110.776C772.509 110.535 772.423 110.279 772.367 110.009C772.281 109.709 772.225 109.423 772.198 109.153C772.172 108.853 772.175 108.629 772.207 108.48L776.552 106.067L776.976 94.5713C777.041 94.1828 777.282 94.0363 777.7 94.1318C778.119 94.1973 778.552 94.2929 778.999 94.4187C779.059 94.4195 779.149 94.4506 779.268 94.5121C779.417 94.5441 779.521 94.5754 779.581 94.6062C779.51 95.4139 779.424 96.2963 779.321 97.2533C779.249 98.1808 779.176 99.1233 779.103 100.081C779.031 101.008 778.974 101.921 778.932 102.819C778.92 103.717 778.954 104.526 779.034 105.246L785.797 103.45C785.917 103.421 786.006 103.512 786.063 103.723C786.151 103.904 786.222 104.129 786.279 104.4C786.365 104.67 786.421 104.941 786.448 105.211C786.474 105.481 786.487 105.615 786.487 105.615L778.808 108.747C778.804 109.017 778.811 109.661 778.827 110.68C778.873 111.698 778.917 112.912 778.958 114.32C778.999 115.699 779.039 117.197 779.078 118.814C779.116 120.402 779.156 121.885 779.198 123.264C779.239 124.642 779.268 125.855 779.284 126.904C779.3 127.922 779.307 128.566 779.303 128.836C779.231 129.734 778.956 130.179 778.477 130.173C778.027 130.167 777.536 129.935 777.003 129.479L776.141 109.925ZM788.457 119.569C788.307 119.597 788.082 119.639 787.781 119.695C787.481 119.75 787.167 119.761 786.838 119.727C786.509 119.693 786.225 119.599 785.988 119.446C785.72 119.293 785.589 119.036 785.594 118.677C785.597 118.467 785.643 118.318 785.734 118.23C785.826 118.141 785.977 118.008 786.189 117.831C786.855 117.301 787.418 116.62 787.879 115.787C788.369 114.925 788.816 114.018 789.218 113.065C789.62 112.082 790.038 111.114 790.47 110.161C790.932 109.179 791.453 108.303 792.032 107.532C792.612 106.761 793.324 106.141 794.169 105.673C795.014 105.205 796.05 104.995 797.277 105.041C797.786 105.048 798.353 105.175 798.979 105.423C799.605 105.671 800.184 106.008 800.718 106.435C801.251 106.831 801.694 107.316 802.046 107.89C802.398 108.464 802.569 109.095 802.56 109.784C802.706 110.025 802.552 110.368 802.097 110.811C801.672 111.254 801.081 111.741 800.325 112.27C799.57 112.769 798.709 113.296 797.743 113.853C796.808 114.379 795.903 114.876 795.028 115.344C794.153 115.811 793.384 116.22 792.72 116.571C792.057 116.921 791.619 117.185 791.407 117.362C791.253 117.659 791.129 118.002 791.034 118.39C790.939 118.778 790.859 119.152 790.794 119.51C790.76 119.839 790.725 120.153 790.692 120.452C790.688 120.722 790.685 120.931 790.683 121.081C790.676 121.65 790.637 122.279 790.568 122.966C790.529 123.655 790.55 124.314 790.631 124.944C790.743 125.545 790.991 126.057 791.375 126.481C791.759 126.876 792.415 127.079 793.343 127.092C794.331 127.105 795.263 126.878 796.138 126.41C797.013 125.913 797.83 125.31 798.588 124.601C799.346 123.892 800.03 123.123 800.64 122.292C801.281 121.462 801.845 120.691 802.334 119.979C802.853 119.237 803.31 118.629 803.706 118.155C804.102 117.681 804.434 117.446 804.704 117.45C805.003 117.454 805.317 117.518 805.644 117.642C806.003 117.737 806.179 117.979 806.174 118.368C806.167 118.907 805.933 119.548 805.474 120.29C805.045 121.034 804.466 121.819 803.736 122.648C803.036 123.478 802.216 124.305 801.276 125.131C800.367 125.928 799.444 126.649 798.507 127.296C797.57 127.912 796.65 128.424 795.746 128.831C794.842 129.208 794.046 129.392 793.358 129.383C792.01 129.365 790.996 129.022 790.316 128.354C789.636 127.686 789.153 126.856 788.867 125.864C788.611 124.872 788.475 123.822 788.46 122.714C788.475 121.576 788.474 120.527 788.457 119.569ZM796.884 107.551C796.375 107.545 795.833 107.792 795.257 108.293C794.681 108.765 794.134 109.357 793.616 110.069C793.127 110.751 792.714 111.464 792.374 112.208C792.065 112.923 791.907 113.52 791.901 113.999C792.35 114.005 792.996 113.849 793.839 113.531C794.712 113.183 795.571 112.76 796.417 112.262C797.262 111.765 798.003 111.235 798.639 110.675C799.276 110.114 799.597 109.579 799.604 109.07C799.608 108.801 799.506 108.575 799.299 108.392C799.092 108.21 798.839 108.057 798.541 107.933C798.273 107.81 797.99 107.716 797.691 107.652C797.393 107.588 797.124 107.555 796.884 107.551ZM809.245 127.259C809.473 125.885 809.631 124.165 809.718 122.099C809.836 120.034 809.895 117.834 809.896 115.498C809.927 113.162 809.915 110.751 809.858 108.264C809.801 105.777 809.713 103.425 809.593 101.207C809.473 98.9592 809.32 96.9505 809.134 95.1809C808.978 93.4117 808.802 92.0167 808.606 90.9957C808.878 90.8197 809.105 90.6879 809.286 90.6005C809.497 90.4835 809.737 90.4268 810.007 90.4304C810.216 90.4332 810.395 90.4805 810.544 90.5724C810.693 90.6343 810.811 90.7856 810.897 91.0264C811.418 96.9036 811.743 102.823 811.873 108.785C812.033 114.747 812.133 120.679 812.174 126.58C812.17 126.849 812.165 127.224 812.159 127.703C812.153 128.152 812.135 128.391 812.105 128.421C811.682 128.625 811.307 128.725 810.977 128.72C810.648 128.686 810.35 128.592 810.083 128.439C809.816 128.255 809.608 128.058 809.462 127.846C809.315 127.635 809.242 127.439 809.245 127.259ZM826.151 129.597L814.81 110.891C814.78 110.861 814.752 110.755 814.724 110.575C814.697 110.365 814.684 110.2 814.686 110.081C814.691 109.691 814.755 109.363 814.879 109.095C815.032 108.797 815.394 108.652 815.963 108.66C816.083 108.662 816.291 108.739 816.589 108.893C816.886 109.017 817.064 109.139 817.123 109.26C817.768 110.317 818.426 111.493 819.097 112.79C819.799 114.088 820.515 115.385 821.247 116.683C822.008 117.981 822.8 119.234 823.622 120.443C824.445 121.622 825.315 122.637 826.232 123.488L827.546 105.895C827.576 105.895 827.65 105.896 827.77 105.898C827.92 105.87 828.025 105.856 828.085 105.857C828.355 105.861 828.624 105.909 828.892 106.003C829.161 106.066 829.353 106.263 829.468 106.594C829.484 107.673 829.466 109.005 829.415 110.592C829.393 112.179 829.342 113.811 829.259 115.487C829.207 117.163 829.14 118.78 829.06 120.336C829.009 121.863 828.963 123.09 828.921 124.018C828.883 124.617 828.811 125.514 828.705 126.711C828.629 127.908 828.521 129.254 828.381 130.75C828.271 132.276 828.13 133.876 827.958 135.551C827.816 137.227 827.675 138.812 827.535 140.308C827.395 141.803 827.272 143.15 827.166 144.346C827.06 145.573 826.974 146.455 826.906 146.993L824.571 146.962L826.151 129.597ZM863.5 125.065C863.375 125.422 863.069 125.912 862.581 126.535C862.124 127.128 861.577 127.734 860.94 128.355C860.303 128.945 859.637 129.476 858.942 129.945C858.277 130.386 857.69 130.603 857.181 130.596C856.223 130.583 855.435 130.123 854.818 129.216C854.232 128.31 853.783 127.151 853.472 125.739C853.162 124.327 852.958 122.767 852.861 121.059C852.764 119.32 852.712 117.627 852.704 115.98C852.696 114.333 852.701 112.835 852.719 111.488C852.737 110.14 852.706 109.121 852.625 108.431C852.749 108.134 852.901 107.956 853.082 107.898C853.292 107.841 853.532 107.815 853.802 107.818C854.041 107.821 854.25 107.854 854.429 107.916C854.638 107.979 854.815 108.161 854.961 108.463C854.957 108.792 854.949 109.346 854.939 110.125C854.958 110.904 854.991 111.788 855.038 112.776C855.085 113.736 855.132 114.754 855.177 115.833C855.223 116.882 855.254 117.886 855.272 118.845C855.319 119.804 855.352 120.673 855.371 121.452C855.421 122.201 855.459 122.756 855.484 123.115C855.511 123.325 855.536 123.67 855.56 124.15C855.613 124.63 855.682 125.14 855.764 125.68C855.877 126.191 856.006 126.657 856.15 127.078C856.324 127.499 856.545 127.727 856.815 127.761C857.264 127.767 857.716 127.578 858.17 127.195C858.654 126.812 859.125 126.324 859.582 125.731C860.039 125.138 860.467 124.485 860.866 123.771C861.265 123.058 861.619 122.374 861.927 121.719C862.266 121.035 862.513 120.424 862.67 119.887C862.857 119.35 862.967 118.962 863 118.723C863.067 118.215 863.137 117.497 863.209 116.57C863.282 115.612 863.34 114.595 863.384 113.517C863.429 112.439 863.457 111.421 863.47 110.463C863.513 109.505 863.538 108.772 863.545 108.263L866.013 108.431C866.011 110.857 865.966 113.057 865.88 115.033C865.794 116.979 865.755 118.82 865.761 120.557C865.768 122.265 865.881 123.928 866.099 125.549C866.317 127.169 866.729 128.852 867.334 130.597C867.243 130.685 867.062 130.803 866.79 130.949C866.519 131.125 866.323 131.212 866.203 131.211C865.454 131.201 864.949 130.939 864.686 130.427C864.453 129.944 864.296 129.373 864.215 128.713C864.164 128.024 864.113 127.349 864.062 126.689C864.041 126 863.854 125.459 863.5 125.065ZM871.322 111.197C871.021 111.343 870.734 111.504 870.462 111.68C870.221 111.826 869.979 111.973 869.738 112.119C869.497 112.236 869.256 112.323 869.015 112.379C868.775 112.436 868.521 112.433 868.252 112.369C868.072 112.367 867.924 112.26 867.807 112.049C867.69 111.807 867.604 111.552 867.548 111.281C867.462 110.981 867.406 110.696 867.379 110.426C867.353 110.126 867.356 109.901 867.388 109.752L871.733 107.339L872.157 95.8436C872.222 95.4551 872.463 95.3086 872.881 95.4041C873.3 95.4696 873.733 95.5652 874.18 95.691C874.24 95.6918 874.33 95.7229 874.449 95.7844C874.598 95.8164 874.702 95.8477 874.762 95.8785C874.691 96.6862 874.604 97.5686 874.502 98.5256C874.43 99.4531 874.357 100.396 874.284 101.353C874.212 102.281 874.155 103.193 874.113 104.091C874.101 104.99 874.135 105.799 874.215 106.519L880.978 104.722C881.098 104.694 881.187 104.785 881.244 104.995C881.332 105.176 881.403 105.402 881.46 105.672C881.546 105.943 881.602 106.213 881.629 106.483C881.655 106.753 881.668 106.888 881.668 106.888L873.989 110.02C873.985 110.289 873.992 110.933 874.008 111.952C874.054 112.971 874.098 114.184 874.139 115.593C874.18 116.971 874.22 118.469 874.259 120.087C874.297 121.675 874.337 123.158 874.379 124.536C874.42 125.914 874.449 127.128 874.465 128.176C874.481 129.195 874.488 129.839 874.484 130.108C874.412 131.006 874.137 131.451 873.657 131.445C873.208 131.439 872.717 131.208 872.184 130.751L871.322 111.197ZM882.936 129.637C882.962 127.691 882.945 125.639 882.884 123.482C882.853 121.325 882.807 119.153 882.746 116.966C882.716 114.749 882.73 112.578 882.788 110.452C882.847 108.326 883.008 106.337 883.273 104.483C883.333 104.454 883.468 104.441 883.677 104.444C883.917 104.417 884.082 104.404 884.172 104.405C884.591 104.411 884.92 104.49 885.157 104.643C885.425 104.767 885.556 105.053 885.55 105.502C885.527 107.269 885.486 109.2 885.428 111.296C885.4 113.362 885.357 115.473 885.298 117.629C885.27 119.755 885.242 121.866 885.214 123.962C885.186 126.058 885.19 127.96 885.227 129.668C885.25 130.177 885.141 130.505 884.9 130.652C884.688 130.829 884.417 130.915 884.087 130.911C883.728 130.906 883.43 130.812 883.193 130.629C882.955 130.476 882.87 130.145 882.936 129.637ZM882.378 97.4628C882.383 97.1035 882.506 96.8655 882.747 96.7489C882.988 96.6324 883.259 96.5761 883.558 96.5801C884.157 96.5881 884.529 96.7877 884.673 97.179C884.818 97.5703 884.886 98.0205 884.88 98.5296C884.696 98.8566 884.468 99.0931 884.196 99.2392C883.925 99.3554 883.64 99.3816 883.342 99.3177C883.073 99.2242 882.836 99.0264 882.631 98.7241C882.455 98.4223 882.371 98.0018 882.378 97.4628ZM889.288 128.329C889.516 126.955 889.674 125.235 889.762 123.169C889.879 121.104 889.939 118.904 889.94 116.568C889.971 114.232 889.958 111.821 889.902 109.334C889.845 106.847 889.757 104.495 889.637 102.277C889.517 100.029 889.364 98.0204 889.178 96.2509C889.022 94.4817 888.846 93.0866 888.65 92.0657C888.922 91.8896 889.148 91.7579 889.329 91.6704C889.54 91.5535 889.781 91.4968 890.05 91.5004C890.26 91.5032 890.439 91.5505 890.587 91.6423C890.736 91.7042 890.854 91.8556 890.941 92.0963C891.461 97.9736 891.786 103.893 891.916 109.855C892.076 115.817 892.177 121.749 892.218 127.65C892.214 127.919 892.209 128.294 892.203 128.773C892.197 129.222 892.178 129.461 892.148 129.491C891.726 129.695 891.35 129.795 891.021 129.79C890.692 129.756 890.394 129.662 890.126 129.509C889.859 129.325 889.652 129.128 889.505 128.916C889.358 128.705 889.286 128.509 889.288 128.329ZM895.379 129.804C895.405 127.857 895.387 125.805 895.326 123.648C895.295 121.491 895.249 119.319 895.189 117.132C895.158 114.915 895.172 112.744 895.231 110.618C895.289 108.492 895.45 106.503 895.715 104.65C895.775 104.62 895.91 104.607 896.12 104.61C896.36 104.583 896.525 104.571 896.614 104.572C897.034 104.577 897.362 104.657 897.6 104.81C897.868 104.933 897.998 105.219 897.992 105.668C897.969 107.435 897.928 109.366 897.87 111.462C897.842 113.528 897.799 115.639 897.741 117.795C897.712 119.921 897.684 122.032 897.656 124.128C897.628 126.225 897.632 128.126 897.669 129.834C897.693 130.344 897.583 130.672 897.342 130.818C897.13 130.995 896.859 131.081 896.53 131.077C896.17 131.072 895.872 130.978 895.635 130.795C895.397 130.642 895.312 130.312 895.379 129.804ZM894.82 97.6291C894.825 97.2698 894.948 97.0318 895.189 96.9153C895.43 96.7987 895.701 96.7424 896 96.7464C896.599 96.7544 896.971 96.954 897.115 97.3453C897.26 97.7366 897.329 98.1868 897.322 98.6959C897.138 99.0229 896.91 99.2594 896.639 99.4056C896.367 99.5217 896.083 99.5479 895.784 99.484C895.516 99.3905 895.279 99.1927 895.073 98.8904C894.897 98.5886 894.813 98.1682 894.82 97.6291ZM906.86 131.305C906.719 130.614 906.776 129.731 907.03 128.656C907.314 127.552 907.704 126.359 908.201 125.078C908.697 123.797 909.269 122.472 909.916 121.103C910.593 119.734 911.24 118.44 911.855 117.22C912.501 115.971 913.07 114.84 913.563 113.828C914.055 112.817 914.395 112.013 914.583 111.416C914.584 111.386 914.584 111.356 914.584 111.326C914.615 111.267 914.631 111.207 914.632 111.147C914.632 111.087 914.618 111.027 914.589 110.967C914.59 110.907 914.591 110.862 914.591 110.832C913.748 111.15 912.815 111.512 911.791 111.918C910.798 112.294 909.789 112.67 908.766 113.045C907.743 113.391 906.735 113.722 905.743 114.038C904.78 114.325 903.894 114.553 903.083 114.722C902.962 114.81 902.753 114.777 902.455 114.623C902.158 114.47 901.876 114.271 901.61 114.028C901.344 113.755 901.153 113.483 901.036 113.212C900.951 112.911 901.059 112.643 901.362 112.407C902.35 112.421 903.52 112.242 904.873 111.87C906.226 111.469 907.595 111.008 908.98 110.488C910.394 109.967 911.764 109.461 913.088 108.97C914.443 108.449 915.631 108.091 916.652 107.895C917.64 107.908 918.128 108.408 918.114 109.397C918.1 110.475 917.891 111.535 917.488 112.578C917.115 113.591 916.637 114.588 916.055 115.569C915.503 116.55 914.891 117.515 914.219 118.465C913.578 119.414 912.966 120.38 912.384 121.36C911.831 122.341 911.354 123.338 910.951 124.351C910.548 125.364 910.339 126.409 910.325 127.487L910.318 128.026L926.803 124.877L927.117 124.882C927.536 124.887 927.909 125.027 928.235 125.301C928.591 125.545 928.842 125.833 928.987 126.165C929.163 126.466 929.173 126.781 929.019 127.108C928.865 127.436 928.488 127.67 927.887 127.812C927.767 127.81 927.632 127.824 927.482 127.852C927.362 127.88 927.076 127.936 926.626 128.02C926.206 128.074 925.576 128.171 924.735 128.309C923.895 128.418 922.71 128.596 921.179 128.846C919.678 129.095 917.757 129.429 915.415 129.847C913.104 130.235 910.252 130.721 906.86 131.305ZM930.622 121.469C930.472 121.497 930.247 121.539 929.947 121.595C929.646 121.651 929.332 121.662 929.003 121.627C928.674 121.593 928.39 121.499 928.153 121.346C927.885 121.193 927.754 120.937 927.759 120.577C927.762 120.368 927.808 120.219 927.899 120.13C927.991 120.041 928.142 119.909 928.354 119.732C929.02 119.201 929.583 118.52 930.044 117.688C930.534 116.826 930.981 115.918 931.383 114.965C931.785 113.982 932.203 113.014 932.635 112.062C933.097 111.079 933.618 110.203 934.197 109.432C934.777 108.661 935.489 108.041 936.334 107.574C937.179 107.106 938.215 106.895 939.442 106.941C939.951 106.948 940.518 107.075 941.144 107.323C941.77 107.571 942.349 107.909 942.883 108.335C943.417 108.731 943.859 109.217 944.211 109.79C944.563 110.364 944.734 110.995 944.725 111.684C944.871 111.926 944.717 112.268 944.262 112.711C943.837 113.155 943.246 113.641 942.49 114.17C941.735 114.669 940.874 115.197 939.908 115.753C938.973 116.28 938.068 116.777 937.193 117.244C936.318 117.712 935.549 118.121 934.885 118.471C934.222 118.822 933.784 119.085 933.572 119.262C933.418 119.56 933.294 119.903 933.199 120.291C933.104 120.679 933.024 121.052 932.959 121.411C932.925 121.74 932.891 122.054 932.857 122.353C932.853 122.622 932.85 122.832 932.848 122.981C932.841 123.55 932.802 124.179 932.733 124.867C932.694 125.555 932.715 126.214 932.797 126.844C932.908 127.445 933.156 127.957 933.54 128.382C933.924 128.776 934.58 128.98 935.508 128.992C936.496 129.005 937.428 128.778 938.303 128.311C939.178 127.813 939.995 127.21 940.753 126.502C941.511 125.793 942.195 125.023 942.806 124.193C943.446 123.363 944.01 122.592 944.499 121.879C945.018 121.137 945.475 120.53 945.871 120.056C946.267 119.582 946.599 119.347 946.869 119.35C947.168 119.354 947.482 119.418 947.81 119.542C948.168 119.637 948.344 119.879 948.339 120.268C948.332 120.807 948.099 121.448 947.639 122.191C947.21 122.934 946.631 123.72 945.901 124.549C945.201 125.378 944.381 126.206 943.441 127.032C942.532 127.828 941.609 128.55 940.672 129.196C939.735 129.812 938.815 130.324 937.911 130.731C937.007 131.109 936.211 131.293 935.523 131.284C934.175 131.266 933.161 130.923 932.481 130.255C931.801 129.587 931.318 128.756 931.032 127.764C930.776 126.772 930.64 125.722 930.625 124.614C930.64 123.476 930.639 122.428 930.622 121.469ZM939.049 109.452C938.54 109.445 937.998 109.692 937.422 110.194C936.846 110.665 936.299 111.257 935.781 111.969C935.292 112.651 934.879 113.365 934.539 114.109C934.23 114.823 934.072 115.42 934.066 115.899C934.515 115.905 935.161 115.749 936.004 115.431C936.877 115.083 937.737 114.661 938.582 114.163C939.427 113.665 940.168 113.136 940.804 112.575C941.441 112.015 941.762 111.48 941.769 110.971C941.773 110.701 941.671 110.475 941.464 110.293C941.257 110.11 941.004 109.957 940.706 109.833C940.438 109.71 940.155 109.616 939.856 109.552C939.558 109.489 939.289 109.455 939.049 109.452ZM960.383 123.35C960.074 124.034 959.674 124.823 959.183 125.715C958.722 126.607 958.172 127.453 957.532 128.253C956.922 129.054 956.209 129.733 955.393 130.291C954.577 130.849 953.675 131.122 952.687 131.109C952.237 131.103 951.879 131.053 951.61 130.96C951.372 130.837 951.15 130.669 950.943 130.456C950.766 130.244 950.59 129.987 950.414 129.686C950.269 129.384 950.078 129.052 949.844 128.69C949.773 127.221 949.735 125.648 949.727 123.971C949.75 122.264 949.862 120.573 950.064 118.899C950.267 117.194 950.588 115.596 951.027 114.105C951.496 112.613 952.127 111.349 952.92 110.311C953.742 109.274 954.755 108.539 955.959 108.105C957.163 107.672 958.616 107.662 960.317 108.074C960.418 107.237 960.448 106.114 960.407 104.706C960.366 103.297 960.296 101.814 960.197 100.255C960.098 98.6964 959.999 97.1975 959.898 95.7586C959.798 94.2896 959.739 93.0908 959.721 92.1621C959.725 91.8926 959.847 91.6996 960.089 91.583C960.36 91.4369 960.646 91.3508 960.946 91.3249C961.246 91.299 961.53 91.3028 961.799 91.3363C962.098 91.3703 962.292 91.4178 962.381 91.4789C962.272 95.1613 962.209 98.7845 962.191 102.348C962.174 105.882 962.156 109.416 962.139 112.95C962.152 116.455 962.165 119.944 962.179 123.418C962.192 126.893 962.176 130.367 962.129 133.841C962.125 134.17 962.091 134.514 962.026 134.873C961.991 135.261 961.734 135.453 961.254 135.446C961.075 135.444 960.896 135.382 960.718 135.259C960.539 135.167 960.422 135.016 960.364 134.805L960.383 123.35ZM958.625 110.298C957.698 110.225 956.825 110.588 956.005 111.386C955.216 112.154 954.514 113.163 953.898 114.412C953.312 115.663 952.83 117.049 952.45 118.571C952.071 120.064 951.827 121.513 951.718 122.919C951.64 124.296 951.713 125.525 951.938 126.606C952.193 127.688 952.648 128.428 953.301 128.826C953.96 128.834 954.577 128.588 955.153 128.087C955.729 127.555 956.262 126.889 956.752 126.086C957.242 125.284 957.673 124.392 958.046 123.408C958.419 122.395 958.731 121.426 958.983 120.501C959.265 119.576 959.471 118.74 959.601 117.993C959.761 117.216 959.844 116.633 959.849 116.244C959.853 115.945 959.874 115.466 959.913 114.807C959.952 114.149 959.946 113.49 959.894 112.83C959.843 112.171 959.716 111.585 959.514 111.073C959.341 110.562 959.045 110.303 958.625 110.298ZM987.591 131.351C987.315 127.304 987.07 123.257 986.855 119.211C986.669 115.135 986.456 110.909 986.215 106.533C986.225 105.814 986.619 105.46 987.398 105.471L987.757 105.476C987.847 105.477 987.95 105.598 988.067 105.839C988.183 106.08 988.297 106.531 988.408 107.191C988.549 107.822 988.686 108.798 988.818 110.117C988.981 111.407 989.168 113.102 989.379 115.201C989.591 117.301 989.825 119.924 990.083 123.073C990.739 121.045 991.259 119.075 991.644 117.163C992.029 115.252 992.516 113.521 993.106 111.971C993.696 110.392 994.509 109.01 995.543 107.826C996.607 106.642 998.116 105.779 1000.07 105.236C1001.15 105.43 1002.01 106.1 1002.65 107.247C1003.29 108.364 1003.8 109.748 1004.17 111.4C1004.53 113.053 1004.78 114.853 1004.9 116.801C1005.03 118.72 1005.09 120.563 1005.1 122.33C1005.1 124.097 1005.1 125.684 1005.08 127.092C1005.06 128.469 1005.08 129.458 1005.13 130.058C1005.04 130.296 1004.9 130.504 1004.72 130.681C1004.53 130.858 1004.32 130.99 1004.08 131.077C1003.87 131.134 1003.66 131.146 1003.45 131.113C1003.24 131.051 1003.05 130.883 1002.88 130.612C1002.88 130.282 1002.86 129.608 1002.81 128.589C1002.77 127.57 1002.71 126.386 1002.64 125.037C1002.56 123.659 1002.48 122.205 1002.38 120.676C1002.31 119.118 1002.24 117.664 1002.17 116.316C1002.13 114.937 1002.08 113.739 1002.04 112.72C1001.99 111.701 1001.95 111.026 1001.93 110.697C1001.31 109.58 1000.69 108.943 1000.07 108.785C999.47 108.627 998.854 108.814 998.218 109.344C997.612 109.875 997.017 110.691 996.433 111.791C995.849 112.892 995.293 114.142 994.766 115.543C994.238 116.913 993.74 118.359 993.27 119.881C992.8 121.402 992.391 122.879 992.043 124.312C991.694 125.715 991.393 126.999 991.138 128.163C990.913 129.298 990.766 130.18 990.698 130.808C990.605 131.017 990.408 131.224 990.106 131.429C989.834 131.605 989.532 131.736 989.202 131.821C988.901 131.907 988.586 131.933 988.257 131.899C987.959 131.835 987.737 131.652 987.591 131.351ZM1007.97 126.052C1007.78 124.672 1007.69 123.338 1007.71 122.05C1007.72 120.733 1007.82 119.401 1007.99 118.056C1008.18 116.71 1008.44 115.321 1008.76 113.888C1009.11 112.425 1009.5 110.858 1009.95 109.187C1009.95 108.857 1010.04 108.559 1010.23 108.292C1010.41 107.995 1010.65 107.758 1010.96 107.583C1011.26 107.377 1011.57 107.217 1011.91 107.101C1012.24 106.986 1012.55 106.93 1012.85 106.934C1013.51 106.943 1014.11 107.161 1014.64 107.587C1015.17 108.013 1015.65 108.529 1016.06 109.133C1016.5 109.738 1016.86 110.387 1017.15 111.08C1017.47 111.743 1017.74 112.316 1017.94 112.798C1018.16 113.849 1018.31 115.049 1018.39 116.398C1018.49 117.717 1018.48 119.065 1018.38 120.441C1018.27 121.817 1018.04 123.177 1017.69 124.52C1017.35 125.833 1016.87 127.04 1016.25 128.14C1015.64 129.24 1014.85 130.158 1013.88 130.893C1012.94 131.63 1011.83 132.079 1010.54 132.241C1009.85 132.232 1009.33 132.001 1008.97 131.547C1008.62 131.063 1008.36 130.49 1008.19 129.829C1008.05 129.138 1007.97 128.448 1007.95 127.759C1007.95 127.07 1007.96 126.501 1007.97 126.052ZM1010.26 125.948C1010.26 126.248 1010.25 126.532 1010.25 126.802C1010.28 127.071 1010.3 127.341 1010.33 127.611C1010.39 127.852 1010.44 128.122 1010.5 128.422C1010.58 128.693 1010.68 129.009 1010.8 129.37L1011.07 129.373C1011.79 129.383 1012.4 129.151 1012.92 128.679C1013.44 128.207 1013.88 127.599 1014.25 126.855C1014.62 126.081 1014.93 125.232 1015.18 124.307C1015.43 123.352 1015.62 122.426 1015.76 121.529C1015.92 120.603 1016.02 119.75 1016.06 118.972C1016.13 118.165 1016.17 117.521 1016.18 117.042L1016.19 116.144C1016.19 115.754 1016.18 115.32 1016.16 114.84C1016.14 114.331 1016.08 113.821 1016 113.311C1015.95 112.771 1015.85 112.29 1015.71 111.869C1015.56 111.418 1015.37 111.056 1015.14 110.783C1014.9 110.511 1014.59 110.372 1014.2 110.366C1013.54 110.148 1012.97 110.185 1012.49 110.478C1012.04 110.772 1011.65 111.276 1011.35 111.991C1011.07 112.676 1010.85 113.526 1010.68 114.543C1010.52 115.559 1010.41 116.68 1010.37 117.908C1010.32 119.135 1010.29 120.438 1010.27 121.815C1010.28 123.193 1010.28 124.571 1010.26 125.948ZM1030.14 124.282C1029.83 124.967 1029.43 125.755 1028.94 126.647C1028.48 127.539 1027.93 128.386 1027.29 129.186C1026.68 129.986 1025.97 130.666 1025.15 131.224C1024.33 131.782 1023.43 132.054 1022.44 132.041C1021.99 132.035 1021.64 131.985 1021.37 131.892C1021.13 131.769 1020.91 131.601 1020.7 131.389C1020.52 131.177 1020.35 130.92 1020.17 130.618C1020.03 130.317 1019.84 129.985 1019.6 129.622C1019.53 128.154 1019.49 126.581 1019.48 124.903C1019.51 123.196 1019.62 121.506 1019.82 119.831C1020.02 118.127 1020.35 116.529 1020.78 115.037C1021.25 113.546 1021.88 112.281 1022.68 111.244C1023.5 110.206 1024.51 109.471 1025.72 109.038C1026.92 108.605 1028.37 108.594 1030.07 109.006C1030.18 108.169 1030.21 107.046 1030.16 105.638C1030.12 104.23 1030.05 102.746 1029.95 101.188C1029.86 99.6289 1029.76 98.13 1029.66 96.691C1029.56 95.2221 1029.5 94.0233 1029.48 93.0946C1029.48 92.8251 1029.6 92.632 1029.85 92.5155C1030.12 92.3693 1030.4 92.2833 1030.7 92.2574C1031 92.2314 1031.29 92.2352 1031.56 92.2688C1031.86 92.3027 1032.05 92.3502 1032.14 92.4113C1032.03 96.0938 1031.97 99.717 1031.95 103.281C1031.93 106.815 1031.91 110.349 1031.9 113.883C1031.91 117.387 1031.92 120.876 1031.94 124.351C1031.95 127.825 1031.93 131.299 1031.89 134.773C1031.88 135.102 1031.85 135.446 1031.78 135.805C1031.75 136.194 1031.49 136.385 1031.01 136.379C1030.83 136.376 1030.65 136.314 1030.48 136.192C1030.3 136.1 1030.18 135.948 1030.12 135.738L1030.14 124.282ZM1028.38 111.23C1027.46 111.158 1026.58 111.52 1025.76 112.318C1024.97 113.086 1024.27 114.095 1023.66 115.345C1023.07 116.595 1022.59 117.981 1022.21 119.504C1021.83 120.996 1021.58 122.445 1021.48 123.852C1021.4 125.228 1021.47 126.457 1021.7 127.539C1021.95 128.62 1022.41 129.36 1023.06 129.758C1023.72 129.767 1024.33 129.521 1024.91 129.019C1025.49 128.488 1026.02 127.821 1026.51 127.019C1027 126.217 1027.43 125.324 1027.8 124.341C1028.18 123.327 1028.49 122.358 1028.74 121.433C1029.02 120.508 1029.23 119.672 1029.36 118.925C1029.52 118.149 1029.6 117.566 1029.61 117.177C1029.61 116.877 1029.63 116.398 1029.67 115.74C1029.71 115.081 1029.7 114.422 1029.65 113.763C1029.6 113.103 1029.47 112.517 1029.27 112.006C1029.1 111.494 1028.8 111.236 1028.38 111.23ZM1036.18 122.88C1036.03 122.908 1035.8 122.95 1035.5 123.006C1035.2 123.062 1034.89 123.073 1034.56 123.038C1034.23 123.004 1033.95 122.91 1033.71 122.757C1033.44 122.604 1033.31 122.348 1033.32 121.988C1033.32 121.779 1033.37 121.63 1033.46 121.541C1033.55 121.452 1033.7 121.32 1033.91 121.143C1034.58 120.612 1035.14 119.931 1035.6 119.099C1036.09 118.237 1036.54 117.329 1036.94 116.376C1037.34 115.393 1037.76 114.425 1038.19 113.473C1038.65 112.49 1039.17 111.614 1039.75 110.843C1040.33 110.072 1041.05 109.452 1041.89 108.985C1042.74 108.517 1043.77 108.306 1045 108.352C1045.51 108.359 1046.08 108.486 1046.7 108.734C1047.33 108.982 1047.91 109.32 1048.44 109.746C1048.97 110.142 1049.42 110.628 1049.77 111.201C1050.12 111.775 1050.29 112.406 1050.28 113.095C1050.43 113.337 1050.27 113.679 1049.82 114.122C1049.39 114.566 1048.8 115.052 1048.05 115.581C1047.29 116.08 1046.43 116.608 1045.47 117.164C1044.53 117.691 1043.62 118.188 1042.75 118.655C1041.87 119.123 1041.11 119.532 1040.44 119.882C1039.78 120.233 1039.34 120.496 1039.13 120.673C1038.98 120.971 1038.85 121.314 1038.76 121.702C1038.66 122.09 1038.58 122.463 1038.52 122.822C1038.48 123.151 1038.45 123.465 1038.41 123.764C1038.41 124.033 1038.41 124.243 1038.41 124.392C1038.4 124.961 1038.36 125.59 1038.29 126.278C1038.25 126.966 1038.27 127.625 1038.35 128.255C1038.47 128.856 1038.71 129.368 1039.1 129.793C1039.48 130.187 1040.14 130.391 1041.07 130.403C1042.05 130.416 1042.98 130.189 1043.86 129.722C1044.73 129.224 1045.55 128.621 1046.31 127.913C1047.07 127.204 1047.75 126.434 1048.36 125.604C1049 124.774 1049.57 124.003 1050.06 123.29C1050.57 122.548 1051.03 121.941 1051.43 121.467C1051.82 120.993 1052.16 120.758 1052.43 120.761C1052.73 120.765 1053.04 120.829 1053.37 120.953C1053.72 121.048 1053.9 121.29 1053.9 121.679C1053.89 122.218 1053.66 122.859 1053.2 123.602C1052.77 124.345 1052.19 125.131 1051.46 125.96C1050.76 126.789 1049.94 127.617 1049 128.443C1048.09 129.239 1047.17 129.961 1046.23 130.607C1045.29 131.223 1044.37 131.735 1043.47 132.142C1042.56 132.52 1041.77 132.704 1041.08 132.695C1039.73 132.677 1038.72 132.334 1038.04 131.666C1037.36 130.998 1036.88 130.167 1036.59 129.175C1036.33 128.183 1036.2 127.133 1036.18 126.025C1036.2 124.887 1036.2 123.839 1036.18 122.88ZM1044.61 110.863C1044.1 110.856 1043.55 111.103 1042.98 111.605C1042.4 112.076 1041.86 112.668 1041.34 113.38C1040.85 114.062 1040.44 114.776 1040.1 115.52C1039.79 116.234 1039.63 116.831 1039.62 117.31C1040.07 117.316 1040.72 117.16 1041.56 116.842C1042.43 116.494 1043.29 116.072 1044.14 115.574C1044.98 115.076 1045.72 114.547 1046.36 113.986C1047 113.426 1047.32 112.891 1047.33 112.382C1047.33 112.112 1047.23 111.886 1047.02 111.704C1046.81 111.521 1046.56 111.368 1046.26 111.244C1046 111.121 1045.71 111.027 1045.41 110.963C1045.11 110.9 1044.85 110.866 1044.61 110.863Z" fill="#333333"/>
<rect x="173" y="544" width="80.925" height="80.925" fill="#8FBE00"/>
<rect x="277" y="544" width="80.925" height="80.925" fill="#8FBE00"/>
<rect x="381" y="544" width="80.925" height="80.925" fill="#8FBE00"/>
<rect x="635" y="544" width="80.925" height="80.925" fill="#8FBE00"/>
<rect x="739" y="544" width="80.925" height="80.925" fill="#8FBE00"/>
<rect x="843" y="544" width="80.925" height="80.925" fill="#8FBE00"/>
<rect x="947" y="544" width="80.925" height="80.925" fill="#8FBE00"/>
<rect x="635" y="444" width="80.925" height="80.925" fill="#8FBE00"/>
<rect x="739" y="444" width="80.925" height="80.925" fill="#8FBE00"/>
<rect x="843" y="444" width="80.925" height="80.925" fill="#8FBE00"/>
<rect x="947" y="444" width="80.925" height="80.925" fill="#8FBE00"/>
<rect x="635" y="344" width="80.925" height="80.925" fill="#8FBE00"/>
<rect x="739" y="344" width="80.925" height="80.925" fill="#8FBE00"/>
<path d="M86 489H1138" stroke="black" stroke-width="23" stroke-dasharray="26 26"/>
<path d="M1104.13 446V442.787L1111.64 435.836C1112.28 435.218 1112.81 434.662 1113.25 434.167C1113.69 433.673 1114.02 433.189 1114.25 432.715C1114.47 432.235 1114.59 431.716 1114.59 431.16C1114.59 430.542 1114.44 430.01 1114.16 429.564C1113.88 429.111 1113.5 428.764 1113.01 428.524C1112.52 428.277 1111.97 428.153 1111.35 428.153C1110.71 428.153 1110.14 428.283 1109.66 428.544C1109.18 428.805 1108.81 429.179 1108.55 429.667C1108.29 430.154 1108.16 430.734 1108.16 431.407H1103.93C1103.93 430.027 1104.24 428.829 1104.86 427.813C1105.49 426.797 1106.36 426.011 1107.49 425.455C1108.62 424.899 1109.91 424.621 1111.38 424.621C1112.89 424.621 1114.21 424.888 1115.33 425.424C1116.45 425.953 1117.33 426.687 1117.95 427.628C1118.58 428.568 1118.89 429.646 1118.89 430.862C1118.89 431.658 1118.73 432.444 1118.42 433.22C1118.11 433.996 1117.55 434.857 1116.76 435.805C1115.96 436.745 1114.84 437.875 1113.39 439.193L1110.31 442.21V442.354H1119.17V446H1104.13ZM1130.67 446.463C1128.9 446.457 1127.37 446.021 1126.1 445.156C1124.83 444.29 1123.85 443.038 1123.16 441.397C1122.48 439.756 1122.14 437.782 1122.15 435.475C1122.15 433.175 1122.49 431.215 1123.17 429.595C1123.86 427.975 1124.84 426.742 1126.11 425.898C1127.38 425.046 1128.9 424.621 1130.67 424.621C1132.43 424.621 1133.95 425.046 1135.22 425.898C1136.5 426.749 1137.48 427.985 1138.17 429.605C1138.85 431.219 1139.19 433.175 1139.19 435.475C1139.19 437.789 1138.84 439.766 1138.16 441.407C1137.48 443.048 1136.5 444.301 1135.23 445.166C1133.96 446.031 1132.44 446.463 1130.67 446.463ZM1130.67 442.766C1131.88 442.766 1132.84 442.159 1133.56 440.944C1134.28 439.728 1134.64 437.906 1134.63 435.475C1134.63 433.875 1134.47 432.544 1134.14 431.479C1133.82 430.415 1133.36 429.615 1132.76 429.08C1132.17 428.544 1131.47 428.277 1130.67 428.277C1129.47 428.277 1128.51 428.877 1127.78 430.079C1127.06 431.28 1126.7 433.079 1126.69 435.475C1126.69 437.095 1126.85 438.448 1127.18 439.533C1127.51 440.611 1127.97 441.421 1128.57 441.963C1129.16 442.499 1129.87 442.766 1130.67 442.766ZM1153.91 442.045V440.933C1153.91 440.089 1154.09 439.313 1154.44 438.606C1154.81 437.892 1155.33 437.322 1156.02 436.896C1156.71 436.464 1157.56 436.248 1158.55 436.248C1159.56 436.248 1160.41 436.46 1161.1 436.886C1161.79 437.312 1162.31 437.882 1162.66 438.596C1163.02 439.303 1163.2 440.082 1163.2 440.933V442.045C1163.2 442.89 1163.02 443.669 1162.66 444.383C1162.31 445.09 1161.78 445.657 1161.09 446.082C1160.39 446.515 1159.55 446.731 1158.55 446.731C1157.54 446.731 1156.7 446.515 1156.01 446.082C1155.32 445.657 1154.8 445.09 1154.44 444.383C1154.09 443.669 1153.91 442.89 1153.91 442.045ZM1156.91 440.933V442.045C1156.91 442.533 1157.02 442.993 1157.26 443.425C1157.5 443.858 1157.93 444.074 1158.55 444.074C1159.18 444.074 1159.6 443.861 1159.83 443.436C1160.06 443.01 1160.18 442.547 1160.18 442.045V440.933C1160.18 440.432 1160.07 439.965 1159.85 439.533C1159.63 439.1 1159.2 438.884 1158.55 438.884C1157.94 438.884 1157.51 439.1 1157.27 439.533C1157.03 439.965 1156.91 440.432 1156.91 440.933ZM1143.09 429.976V428.864C1143.09 428.012 1143.27 427.233 1143.63 426.526C1144 425.812 1144.52 425.242 1145.21 424.816C1145.9 424.391 1146.74 424.178 1147.72 424.178C1148.74 424.178 1149.59 424.391 1150.27 424.816C1150.96 425.242 1151.48 425.812 1151.84 426.526C1152.2 427.233 1152.37 428.012 1152.37 428.864V429.976C1152.37 430.827 1152.19 431.606 1151.83 432.314C1151.47 433.021 1150.95 433.587 1150.25 434.013C1149.57 434.432 1148.72 434.641 1147.72 434.641C1146.72 434.641 1145.87 434.428 1145.18 434.002C1144.49 433.57 1143.97 433.004 1143.61 432.303C1143.26 431.596 1143.09 430.82 1143.09 429.976ZM1146.1 428.864V429.976C1146.1 430.477 1146.22 430.94 1146.45 431.366C1146.69 431.792 1147.12 432.005 1147.72 432.005C1148.35 432.005 1148.78 431.792 1149.01 431.366C1149.24 430.94 1149.36 430.477 1149.36 429.976V428.864C1149.36 428.362 1149.25 427.896 1149.03 427.463C1148.81 427.031 1148.37 426.814 1147.72 426.814C1147.11 426.814 1146.69 427.034 1146.45 427.473C1146.22 427.913 1146.1 428.376 1146.1 428.864ZM1144.45 446L1158.95 424.909H1161.64L1147.14 446H1144.45Z" fill="black"/>
</svg>
