<svg width="1200" height="900" viewBox="0 0 1200 900" fill="none" xmlns="http://www.w3.org/2000/svg">
<path fill-rule="evenodd" clip-rule="evenodd" d="M422.785 261.689V637.311C422.785 642.292 418.743 646.33 413.759 646.33H96.2448C91.261 646.33 87.219 642.292 87.219 637.311V261.689C87.219 256.708 91.2604 252.67 96.2448 252.67H413.759C418.743 252.67 422.785 256.708 422.785 261.689Z" fill="#D2D2D2"/>
<path fill-rule="evenodd" clip-rule="evenodd" d="M144.785 628.292H409.789V635.216H144.785V628.292ZM144.785 617.151H409.789V624.074H144.785V617.151ZM144.785 606.54H409.789V613.464H144.785V606.54ZM99.9546 264.873H409.789V271.77H99.9546V264.873Z" fill="#A3A3A3"/>
<path fill-rule="evenodd" clip-rule="evenodd" d="M103.573 283.992H406.431C406.905 283.992 407.375 284.085 407.813 284.267C408.251 284.448 408.649 284.714 408.984 285.049C409.319 285.384 409.585 285.782 409.767 286.22C409.948 286.658 410.042 287.128 410.042 287.602V590.426C410.042 591.383 409.662 592.301 408.985 592.978C408.307 593.655 407.389 594.036 406.432 594.036H103.572C102.615 594.036 101.696 593.655 101.019 592.978C100.342 592.301 99.9619 591.383 99.9619 590.426V287.602C99.9621 286.644 100.343 285.726 101.02 285.049C101.697 284.372 102.615 283.992 103.572 283.992H103.573Z" fill="white"/>
<path d="M116.847 604.63C116.543 604.648 116.246 604.727 115.973 604.862L104.138 610.505C103.833 610.65 103.565 610.863 103.354 611.126C103.143 611.389 102.994 611.697 102.918 612.026L100.02 624.695C99.9508 624.989 99.9434 625.295 99.9981 625.592C100.053 625.89 100.169 626.172 100.338 626.423C100.379 626.484 100.422 626.543 100.466 626.601L108.643 636.766C109.075 637.297 109.724 637.602 110.408 637.599H123.523C123.861 637.597 124.195 637.521 124.5 637.375C124.806 637.23 125.075 637.019 125.289 636.757L133.462 626.589C133.891 626.059 134.051 625.358 133.887 624.692L130.971 612.014C130.895 611.685 130.746 611.378 130.534 611.114C130.323 610.851 130.055 610.639 129.751 610.493L117.934 604.863C117.593 604.695 117.216 604.615 116.837 604.631L116.847 604.63Z" fill="#4A4A4A"/>
<path d="M116.956 608.945C116.549 608.974 116.24 609.323 116.261 609.731V609.93C116.28 610.157 116.314 610.381 116.359 610.603C116.424 611.027 116.448 611.458 116.429 611.888C116.388 612.03 116.308 612.157 116.197 612.254L116.182 612.554C115.751 612.589 115.324 612.655 114.904 612.751C113.134 613.149 111.524 614.068 110.28 615.389L110.025 615.209C109.956 615.23 109.883 615.237 109.811 615.23C109.739 615.222 109.669 615.201 109.606 615.167C109.261 614.911 108.942 614.623 108.653 614.306C108.508 614.133 108.353 613.968 108.189 613.812L108.032 613.688C107.892 613.575 107.72 613.51 107.541 613.502C107.434 613.496 107.327 613.516 107.229 613.559C107.131 613.603 107.045 613.669 106.977 613.752C106.862 613.913 106.816 614.114 106.848 614.31C106.881 614.505 106.989 614.68 107.151 614.796L107.297 614.913C107.486 615.039 107.682 615.153 107.883 615.255C108.262 615.465 108.617 615.714 108.943 615.998C109.027 616.119 109.076 616.26 109.084 616.407L109.317 616.619C108.067 618.494 107.553 620.765 107.874 622.996L107.576 623.081C107.499 623.204 107.396 623.308 107.273 623.386C106.858 623.497 106.434 623.567 106.005 623.596C105.778 623.601 105.551 623.618 105.326 623.649L105.137 623.692H105.117C104.987 623.71 104.864 623.764 104.763 623.847C104.661 623.931 104.585 624.042 104.542 624.166C104.5 624.291 104.492 624.424 104.521 624.553C104.55 624.681 104.614 624.799 104.706 624.893C104.895 625.084 105.177 625.152 105.432 625.068H105.446L105.638 625.047C105.854 624.982 106.066 624.905 106.273 624.815C106.671 624.655 107.084 624.535 107.506 624.455C107.653 624.464 107.793 624.513 107.912 624.598L108.23 624.545C108.92 626.687 110.371 628.501 112.309 629.645L112.179 629.916C112.238 630.04 112.26 630.178 112.242 630.315C112.067 630.721 111.852 631.11 111.602 631.475C111.464 631.656 111.338 631.845 111.222 632.04L111.132 632.231C111.066 632.345 111.033 632.474 111.037 632.605C111.04 632.736 111.08 632.864 111.151 632.974C111.223 633.084 111.323 633.172 111.441 633.229C111.559 633.285 111.691 633.308 111.821 633.294C112.089 633.265 112.315 633.087 112.409 632.835L112.497 632.655C112.578 632.443 112.646 632.226 112.701 632.008C112.889 631.544 112.991 631.046 113.248 630.738C113.332 630.659 113.438 630.607 113.552 630.589L113.711 630.299C115.81 631.106 118.134 631.112 120.238 630.315L120.379 630.586C120.523 630.608 120.653 630.686 120.74 630.804C120.939 631.184 121.101 631.581 121.224 631.993C121.28 632.213 121.35 632.43 121.43 632.641L121.518 632.822C121.565 632.945 121.644 633.052 121.748 633.133C121.851 633.213 121.975 633.263 122.106 633.278C122.236 633.292 122.368 633.27 122.487 633.214C122.605 633.159 122.706 633.071 122.778 632.961C122.924 632.736 122.931 632.448 122.796 632.217L122.703 632.026C122.587 631.831 122.461 631.642 122.323 631.462C122.079 631.107 121.866 630.731 121.687 630.339C121.67 630.267 121.667 630.193 121.679 630.12C121.692 630.047 121.719 629.977 121.758 629.915C121.713 629.822 121.674 629.727 121.64 629.63C123.573 628.477 125.018 626.656 125.7 624.511L126.001 624.564C126.109 624.466 126.252 624.413 126.398 624.418C126.819 624.499 127.232 624.63 127.631 624.779C127.839 624.874 128.051 624.955 128.267 625.023C128.318 625.037 128.393 625.048 128.449 625.062H128.463C128.588 625.103 128.723 625.108 128.851 625.077C128.979 625.045 129.095 624.979 129.188 624.885C129.281 624.792 129.345 624.674 129.375 624.546C129.405 624.417 129.398 624.283 129.356 624.159C129.313 624.034 129.237 623.924 129.135 623.84C129.033 623.756 128.91 623.703 128.779 623.685L128.574 623.637C128.348 623.606 128.121 623.588 127.893 623.584C127.464 623.556 127.039 623.486 126.625 623.374C126.497 623.302 126.391 623.196 126.32 623.068L126.032 622.983C126.338 620.754 125.814 618.489 124.56 616.62L124.811 616.388C124.801 616.242 124.849 616.098 124.944 615.987C125.269 615.707 125.621 615.46 125.994 615.248C126.196 615.145 126.392 615.031 126.58 614.905L126.735 614.779C126.821 614.726 126.895 614.656 126.951 614.573C127.007 614.489 127.046 614.395 127.063 614.296C127.08 614.197 127.076 614.095 127.051 613.997C127.026 613.9 126.981 613.809 126.918 613.73C126.855 613.651 126.777 613.587 126.687 613.541C126.598 613.495 126.5 613.468 126.399 613.463C126.299 613.458 126.198 613.474 126.104 613.51C126.01 613.547 125.925 613.603 125.855 613.674L125.698 613.8C125.534 613.956 125.379 614.121 125.233 614.294C124.953 614.614 124.643 614.907 124.307 615.167C124.171 615.222 124.022 615.239 123.878 615.214L123.609 615.406C122.058 613.78 119.97 612.772 117.732 612.57C117.732 612.464 117.718 612.305 117.716 612.255C117.595 612.173 117.512 612.046 117.483 611.902C117.469 611.474 117.496 611.045 117.564 610.622C117.611 610.398 117.642 610.175 117.663 609.949V609.737C117.673 609.541 117.606 609.349 117.475 609.202C117.345 609.054 117.162 608.965 116.966 608.951L116.957 608.946L116.956 608.945ZM116.071 614.43L115.859 618.14H115.843C115.836 618.252 115.8 618.361 115.738 618.455C115.676 618.549 115.591 618.624 115.49 618.675C115.389 618.726 115.276 618.748 115.163 618.738C115.051 618.727 114.943 618.686 114.853 618.617L111.811 616.462C112.779 615.511 113.994 614.849 115.319 614.552C115.567 614.499 115.817 614.458 116.069 614.43H116.071V614.43ZM117.842 614.43C119.44 614.629 120.928 615.347 122.079 616.472L119.066 618.614C118.975 618.688 118.865 618.734 118.749 618.747C118.632 618.761 118.515 618.742 118.409 618.692C118.304 618.642 118.214 618.563 118.151 618.464C118.088 618.366 118.054 618.252 118.052 618.135L117.842 614.43L117.842 614.43ZM110.706 617.857L113.489 620.339V620.355C113.573 620.43 113.636 620.525 113.671 620.633C113.706 620.74 113.711 620.854 113.686 620.964C113.66 621.074 113.606 621.175 113.528 621.257C113.45 621.338 113.352 621.397 113.243 621.427V621.437L109.673 622.464C109.496 620.855 109.86 619.234 110.707 617.855L110.706 617.857ZM123.187 617.857C124.032 619.232 124.406 620.845 124.251 622.451L120.675 621.422V621.408C120.566 621.378 120.467 621.32 120.389 621.238C120.311 621.157 120.257 621.056 120.232 620.945C120.208 620.835 120.213 620.721 120.248 620.613C120.282 620.506 120.345 620.41 120.43 620.335L123.191 617.866L123.187 617.857ZM116.387 620.533H117.525L118.221 621.416L117.968 622.52L116.945 623.011L115.92 622.52L115.679 621.416L116.387 620.533ZM120.033 623.546C120.08 623.541 120.128 623.541 120.176 623.546L123.858 624.167C123.32 625.699 122.282 627.005 120.911 627.876L119.488 624.432C119.449 624.339 119.433 624.239 119.441 624.139C119.449 624.039 119.48 623.942 119.533 623.857C119.586 623.772 119.659 623.701 119.745 623.649C119.831 623.598 119.929 623.568 120.029 623.562L120.033 623.546ZM113.849 623.562C113.952 623.564 114.052 623.591 114.142 623.64C114.231 623.69 114.307 623.761 114.363 623.847C114.419 623.932 114.453 624.031 114.461 624.132C114.47 624.234 114.453 624.337 114.413 624.43V624.444L112.999 627.861C111.645 626.993 110.616 625.703 110.07 624.19L113.72 623.572C113.761 623.567 113.802 623.567 113.843 623.572L113.85 623.562H113.849ZM116.933 625.048C117.17 625.041 117.391 625.167 117.503 625.375H117.517L119.316 628.622L118.597 628.834C117.274 629.137 115.892 629.065 114.607 628.628L116.412 625.382C116.466 625.288 116.543 625.21 116.636 625.156C116.729 625.101 116.834 625.071 116.942 625.068L116.933 625.048V625.048Z" fill="white" stroke="white" stroke-width="0.331587"/>
<path fill-rule="evenodd" clip-rule="evenodd" d="M767.636 261.689V637.311C767.636 642.292 763.595 646.33 758.61 646.33H441.096C436.112 646.33 432.07 642.292 432.07 637.311V261.689C432.07 256.708 436.112 252.67 441.096 252.67H758.61C763.594 252.67 767.636 256.708 767.636 261.689Z" fill="#D2D2D2"/>
<path fill-rule="evenodd" clip-rule="evenodd" d="M489.635 628.292H754.639V635.216H489.635V628.292ZM489.635 617.151H754.639V624.074H489.635V617.151ZM489.635 606.54H754.639V613.464H489.635V606.54ZM444.805 264.873H754.639V271.77H444.805V264.873Z" fill="#A3A3A3"/>
<path fill-rule="evenodd" clip-rule="evenodd" d="M448.423 283.992H751.281C751.755 283.992 752.224 284.085 752.663 284.267C753.101 284.448 753.499 284.714 753.834 285.049C754.169 285.384 754.435 285.782 754.617 286.22C754.798 286.658 754.892 287.128 754.892 287.602V590.426C754.892 591.383 754.511 592.301 753.834 592.978C753.157 593.655 752.239 594.036 751.282 594.036H448.422C447.465 594.036 446.546 593.655 445.869 592.978C445.192 592.301 444.812 591.383 444.812 590.426V287.602C444.812 286.644 445.192 285.726 445.869 285.049C446.546 284.372 447.465 283.992 448.422 283.992H448.423Z" fill="white"/>
<path d="M461.697 604.63C461.393 604.648 461.096 604.727 460.823 604.862L448.988 610.505C448.683 610.65 448.415 610.863 448.204 611.126C447.993 611.389 447.844 611.697 447.768 612.026L444.87 624.695C444.801 624.989 444.793 625.295 444.848 625.592C444.903 625.89 445.019 626.172 445.188 626.423C445.229 626.484 445.272 626.543 445.316 626.601L453.493 636.766C453.925 637.297 454.574 637.602 455.258 637.599H468.373C468.711 637.597 469.045 637.521 469.35 637.375C469.655 637.23 469.925 637.019 470.139 636.757L478.312 626.589C478.741 626.059 478.901 625.358 478.737 624.692L475.821 612.014C475.745 611.685 475.595 611.378 475.384 611.114C475.173 610.851 474.905 610.639 474.601 610.493L462.783 604.863C462.443 604.695 462.066 604.615 461.687 604.631L461.697 604.63Z" fill="#4A4A4A"/>
<path d="M461.807 608.945C461.4 608.974 461.091 609.323 461.112 609.731V609.93C461.131 610.157 461.165 610.381 461.21 610.603C461.275 611.027 461.299 611.458 461.28 611.888C461.239 612.03 461.159 612.157 461.048 612.254L461.033 612.554C460.602 612.589 460.175 612.655 459.755 612.751C457.985 613.149 456.375 614.068 455.131 615.389L454.877 615.209C454.807 615.23 454.734 615.237 454.662 615.23C454.59 615.222 454.52 615.201 454.457 615.167C454.112 614.911 453.793 614.623 453.504 614.306C453.359 614.133 453.204 613.968 453.04 613.812L452.883 613.688C452.743 613.575 452.571 613.51 452.392 613.502C452.285 613.496 452.178 613.516 452.08 613.559C451.982 613.603 451.896 613.669 451.829 613.752C451.713 613.913 451.667 614.114 451.699 614.31C451.732 614.505 451.841 614.68 452.002 614.796L452.148 614.913C452.337 615.039 452.533 615.153 452.734 615.255C453.113 615.465 453.468 615.714 453.794 615.998C453.878 616.119 453.928 616.26 453.935 616.407L454.168 616.619C452.918 618.494 452.404 620.765 452.725 622.996L452.427 623.081C452.35 623.204 452.247 623.308 452.124 623.386C451.71 623.497 451.285 623.567 450.856 623.596C450.629 623.601 450.402 623.618 450.177 623.649L449.988 623.692H449.968C449.838 623.71 449.715 623.764 449.614 623.847C449.512 623.931 449.436 624.042 449.393 624.166C449.351 624.291 449.343 624.424 449.372 624.553C449.401 624.681 449.465 624.799 449.557 624.893C449.746 625.084 450.028 625.152 450.283 625.068H450.297L450.489 625.047C450.705 624.982 450.917 624.905 451.124 624.815C451.522 624.655 451.935 624.535 452.357 624.455C452.504 624.464 452.644 624.513 452.763 624.598L453.081 624.545C453.771 626.687 455.222 628.501 457.16 629.645L457.03 629.916C457.09 630.04 457.111 630.178 457.094 630.315C456.918 630.721 456.703 631.11 456.453 631.475C456.315 631.656 456.189 631.845 456.073 632.04L455.983 632.231C455.917 632.345 455.884 632.474 455.888 632.605C455.891 632.736 455.931 632.864 456.002 632.974C456.074 633.084 456.174 633.172 456.292 633.229C456.41 633.285 456.542 633.308 456.672 633.294C456.94 633.265 457.166 633.087 457.26 632.835L457.348 632.655C457.429 632.443 457.497 632.226 457.552 632.008C457.74 631.544 457.842 631.046 458.099 630.738C458.183 630.659 458.289 630.607 458.403 630.589L458.562 630.299C460.662 631.106 462.985 631.112 465.089 630.315L465.23 630.586C465.374 630.608 465.504 630.686 465.591 630.804C465.79 631.184 465.952 631.581 466.075 631.993C466.131 632.213 466.201 632.43 466.281 632.641L466.369 632.822C466.416 632.945 466.495 633.052 466.599 633.133C466.702 633.213 466.826 633.263 466.957 633.278C467.087 633.292 467.219 633.27 467.338 633.214C467.456 633.159 467.557 633.071 467.629 632.961C467.775 632.736 467.782 632.448 467.647 632.217L467.554 632.026C467.438 631.831 467.312 631.642 467.174 631.462C466.93 631.107 466.717 630.731 466.538 630.339C466.521 630.267 466.518 630.193 466.53 630.12C466.543 630.047 466.57 629.977 466.609 629.915C466.564 629.822 466.525 629.727 466.491 629.63C468.425 628.477 469.869 626.656 470.551 624.511L470.852 624.564C470.961 624.466 471.103 624.413 471.249 624.418C471.67 624.499 472.083 624.63 472.482 624.779C472.69 624.874 472.902 624.955 473.118 625.023C473.169 625.037 473.244 625.048 473.3 625.062H473.314C473.439 625.103 473.574 625.108 473.702 625.077C473.83 625.045 473.946 624.979 474.039 624.885C474.132 624.792 474.196 624.674 474.226 624.546C474.256 624.417 474.249 624.283 474.207 624.159C474.164 624.034 474.088 623.924 473.986 623.84C473.884 623.756 473.761 623.703 473.63 623.685L473.425 623.637C473.199 623.606 472.972 623.588 472.744 623.584C472.315 623.556 471.89 623.486 471.476 623.374C471.348 623.302 471.242 623.196 471.171 623.068L470.884 622.983C471.189 620.754 470.665 618.489 469.411 616.62L469.662 616.388C469.652 616.242 469.7 616.098 469.795 615.987C470.12 615.707 470.472 615.46 470.845 615.248C471.047 615.145 471.243 615.031 471.431 614.905L471.587 614.779C471.672 614.726 471.746 614.656 471.802 614.573C471.858 614.489 471.897 614.395 471.914 614.296C471.931 614.197 471.927 614.095 471.902 613.997C471.877 613.9 471.832 613.809 471.769 613.73C471.707 613.651 471.628 613.587 471.538 613.541C471.449 613.495 471.351 613.468 471.25 613.463C471.15 613.458 471.049 613.474 470.955 613.51C470.861 613.547 470.776 613.603 470.706 613.674L470.549 613.8C470.385 613.956 470.23 614.121 470.084 614.294C469.805 614.614 469.494 614.907 469.158 615.167C469.022 615.222 468.873 615.239 468.729 615.214L468.46 615.406C466.909 613.78 464.821 612.772 462.583 612.57C462.583 612.464 462.569 612.305 462.567 612.255C462.446 612.173 462.363 612.046 462.335 611.902C462.32 611.474 462.347 611.045 462.415 610.622C462.462 610.398 462.493 610.175 462.514 609.949V609.737C462.524 609.541 462.457 609.349 462.327 609.202C462.196 609.054 462.013 608.965 461.817 608.951L461.808 608.946L461.807 608.945ZM460.922 614.43L460.71 618.14H460.694C460.687 618.252 460.651 618.361 460.589 618.455C460.527 618.549 460.442 618.624 460.341 618.675C460.24 618.726 460.127 618.748 460.014 618.738C459.902 618.727 459.794 618.686 459.704 618.617L456.662 616.462C457.63 615.511 458.845 614.849 460.17 614.552C460.418 614.499 460.668 614.458 460.92 614.43H460.922V614.43ZM462.693 614.43C464.291 614.629 465.779 615.347 466.93 616.472L463.917 618.614C463.826 618.688 463.716 618.734 463.6 618.747C463.484 618.761 463.366 618.742 463.26 618.692C463.155 618.642 463.065 618.563 463.002 618.464C462.939 618.366 462.905 618.252 462.904 618.135L462.693 614.43L462.693 614.43ZM455.557 617.857L458.34 620.339V620.355C458.424 620.43 458.487 620.525 458.522 620.633C458.557 620.74 458.562 620.854 458.537 620.964C458.511 621.074 458.457 621.175 458.379 621.257C458.301 621.338 458.203 621.397 458.094 621.427V621.437L454.524 622.464C454.347 620.855 454.711 619.234 455.558 617.855L455.557 617.857ZM468.038 617.857C468.883 619.232 469.257 620.845 469.102 622.451L465.526 621.422V621.408C465.417 621.378 465.319 621.32 465.24 621.238C465.162 621.157 465.108 621.056 465.083 620.945C465.059 620.835 465.064 620.721 465.099 620.613C465.133 620.506 465.196 620.41 465.281 620.335L468.042 617.866L468.038 617.857ZM461.238 620.533H462.376L463.072 621.416L462.819 622.52L461.796 623.011L460.771 622.52L460.53 621.416L461.238 620.533ZM464.884 623.546C464.931 623.541 464.979 623.541 465.027 623.546L468.709 624.167C468.171 625.699 467.133 627.005 465.763 627.876L464.339 624.432C464.3 624.339 464.284 624.239 464.292 624.139C464.3 624.039 464.331 623.942 464.384 623.857C464.437 623.772 464.51 623.701 464.596 623.649C464.682 623.598 464.78 623.568 464.88 623.562L464.884 623.546ZM458.7 623.562C458.803 623.564 458.903 623.591 458.993 623.64C459.082 623.69 459.159 623.761 459.214 623.847C459.27 623.932 459.304 624.031 459.312 624.132C459.321 624.234 459.304 624.337 459.264 624.43V624.444L457.85 627.861C456.496 626.993 455.467 625.703 454.921 624.19L458.571 623.572C458.612 623.567 458.653 623.567 458.694 623.572L458.701 623.562H458.7ZM461.784 625.048C462.021 625.041 462.242 625.167 462.354 625.375H462.368L464.167 628.622L463.448 628.834C462.125 629.137 460.743 629.065 459.458 628.628L461.263 625.382C461.317 625.288 461.394 625.21 461.487 625.156C461.58 625.101 461.685 625.071 461.793 625.068L461.784 625.048V625.048Z" fill="white" stroke="white" stroke-width="0.331587"/>
<path fill-rule="evenodd" clip-rule="evenodd" d="M1112 261.689V637.311C1112 642.292 1107.96 646.33 1102.97 646.33H785.46C780.476 646.33 776.434 642.292 776.434 637.311V261.689C776.434 256.708 780.475 252.67 785.46 252.67H1102.97C1107.96 252.67 1112 256.708 1112 261.689Z" fill="#D2D2D2"/>
<path fill-rule="evenodd" clip-rule="evenodd" d="M833.999 628.292H1099V635.216H833.999V628.292ZM833.999 617.151H1099V624.074H833.999V617.151ZM833.999 606.54H1099V613.464H833.999V606.54ZM789.168 264.873H1099V271.77H789.168V264.873Z" fill="#A3A3A3"/>
<path fill-rule="evenodd" clip-rule="evenodd" d="M792.787 283.992H1095.64C1096.12 283.992 1096.59 284.085 1097.03 284.267C1097.46 284.448 1097.86 284.714 1098.2 285.049C1098.53 285.384 1098.8 285.782 1098.98 286.22C1099.16 286.658 1099.26 287.128 1099.26 287.602V590.426C1099.26 591.383 1098.88 592.301 1098.2 592.978C1097.52 593.655 1096.6 594.036 1095.65 594.036H792.786C791.828 594.036 790.91 593.655 790.233 592.978C789.556 592.301 789.176 591.383 789.176 590.426V287.602C789.176 286.644 789.556 285.726 790.233 285.049C790.91 284.372 791.828 283.992 792.786 283.992H792.787Z" fill="white"/>
<path d="M806.061 604.63C805.757 604.648 805.46 604.727 805.187 604.862L793.352 610.505C793.047 610.65 792.779 610.863 792.568 611.126C792.356 611.389 792.207 611.697 792.132 612.026L789.234 624.695C789.164 624.989 789.157 625.295 789.212 625.592C789.267 625.89 789.382 626.172 789.552 626.423C789.593 626.484 789.635 626.543 789.68 626.601L797.857 636.766C798.289 637.297 798.938 637.602 799.621 637.599H812.736C813.075 637.597 813.408 637.521 813.714 637.375C814.019 637.23 814.289 637.019 814.503 636.757L822.676 626.589C823.104 626.059 823.265 625.358 823.101 624.692L820.185 612.014C820.108 611.685 819.959 611.378 819.748 611.114C819.537 610.851 819.269 610.639 818.964 610.493L807.147 604.863C806.807 604.695 806.43 604.615 806.05 604.631L806.061 604.63Z" fill="#4A4A4A"/>
<path d="M806.171 608.945C805.764 608.974 805.455 609.323 805.476 609.731V609.93C805.495 610.157 805.529 610.381 805.574 610.603C805.639 611.027 805.663 611.458 805.644 611.888C805.603 612.03 805.523 612.157 805.412 612.254L805.397 612.554C804.966 612.589 804.539 612.655 804.119 612.751C802.349 613.149 800.739 614.068 799.495 615.389L799.241 615.209C799.171 615.23 799.098 615.237 799.026 615.23C798.954 615.222 798.884 615.201 798.821 615.167C798.476 614.911 798.157 614.623 797.868 614.306C797.723 614.133 797.568 613.968 797.404 613.812L797.247 613.688C797.107 613.575 796.935 613.51 796.756 613.502C796.649 613.496 796.542 613.516 796.444 613.559C796.346 613.603 796.26 613.669 796.193 613.752C796.077 613.913 796.031 614.114 796.063 614.31C796.096 614.505 796.205 614.68 796.366 614.796L796.512 614.913C796.701 615.039 796.897 615.153 797.098 615.255C797.477 615.465 797.832 615.714 798.158 615.998C798.242 616.119 798.292 616.26 798.299 616.407L798.532 616.619C797.282 618.494 796.768 620.765 797.089 622.996L796.791 623.081C796.714 623.204 796.611 623.308 796.488 623.386C796.074 623.497 795.649 623.567 795.22 623.596C794.993 623.601 794.766 623.618 794.541 623.649L794.352 623.692H794.332C794.202 623.71 794.079 623.764 793.978 623.847C793.876 623.931 793.8 624.042 793.757 624.166C793.715 624.291 793.707 624.424 793.736 624.553C793.765 624.681 793.829 624.799 793.921 624.893C794.11 625.084 794.392 625.152 794.647 625.068H794.661L794.853 625.047C795.069 624.982 795.281 624.905 795.488 624.815C795.886 624.655 796.299 624.535 796.721 624.455C796.868 624.464 797.008 624.513 797.127 624.598L797.445 624.545C798.135 626.687 799.586 628.501 801.524 629.645L801.394 629.916C801.454 630.04 801.475 630.178 801.458 630.315C801.282 630.721 801.067 631.11 800.817 631.475C800.679 631.656 800.553 631.845 800.437 632.04L800.347 632.231C800.281 632.345 800.248 632.474 800.252 632.605C800.255 632.736 800.295 632.864 800.366 632.974C800.438 633.084 800.538 633.172 800.656 633.229C800.774 633.285 800.906 633.308 801.036 633.294C801.304 633.265 801.53 633.087 801.624 632.835L801.712 632.655C801.793 632.443 801.861 632.226 801.916 632.008C802.104 631.544 802.206 631.046 802.463 630.738C802.547 630.659 802.653 630.607 802.767 630.589L802.926 630.299C805.026 631.106 807.349 631.112 809.453 630.315L809.594 630.586C809.738 630.608 809.868 630.686 809.955 630.804C810.154 631.184 810.316 631.581 810.439 631.993C810.495 632.213 810.565 632.43 810.645 632.641L810.733 632.822C810.78 632.945 810.859 633.052 810.963 633.133C811.066 633.213 811.19 633.263 811.321 633.278C811.451 633.292 811.583 633.27 811.702 633.214C811.82 633.159 811.921 633.071 811.993 632.961C812.139 632.736 812.146 632.448 812.011 632.217L811.918 632.026C811.802 631.831 811.676 631.642 811.538 631.462C811.294 631.107 811.081 630.731 810.902 630.339C810.885 630.267 810.882 630.193 810.894 630.12C810.907 630.047 810.934 629.977 810.973 629.915C810.928 629.822 810.889 629.727 810.855 629.63C812.789 628.477 814.233 626.656 814.915 624.511L815.216 624.564C815.325 624.466 815.467 624.413 815.613 624.418C816.034 624.499 816.447 624.63 816.846 624.779C817.054 624.874 817.266 624.955 817.482 625.023C817.533 625.037 817.608 625.048 817.664 625.062H817.678C817.803 625.103 817.938 625.108 818.066 625.077C818.194 625.045 818.31 624.979 818.403 624.885C818.496 624.792 818.56 624.674 818.59 624.546C818.62 624.417 818.613 624.283 818.571 624.159C818.528 624.034 818.452 623.924 818.35 623.84C818.248 623.756 818.125 623.703 817.994 623.685L817.789 623.637C817.563 623.606 817.336 623.588 817.108 623.584C816.679 623.556 816.254 623.486 815.84 623.374C815.712 623.302 815.606 623.196 815.535 623.068L815.248 622.983C815.553 620.754 815.029 618.489 813.775 616.62L814.026 616.388C814.016 616.242 814.064 616.098 814.159 615.987C814.484 615.707 814.836 615.46 815.209 615.248C815.411 615.145 815.607 615.031 815.795 614.905L815.951 614.779C816.036 614.726 816.11 614.656 816.166 614.573C816.223 614.489 816.261 614.395 816.278 614.296C816.295 614.197 816.291 614.095 816.266 613.997C816.241 613.9 816.196 613.809 816.133 613.73C816.071 613.651 815.992 613.587 815.902 613.541C815.813 613.495 815.715 613.468 815.614 613.463C815.514 613.458 815.413 613.474 815.319 613.51C815.225 613.547 815.14 613.603 815.07 613.674L814.913 613.8C814.749 613.956 814.594 614.121 814.448 614.294C814.169 614.614 813.858 614.907 813.522 615.167C813.386 615.222 813.237 615.239 813.093 615.214L812.824 615.406C811.273 613.78 809.185 612.772 806.947 612.57C806.947 612.464 806.933 612.305 806.931 612.255C806.81 612.173 806.727 612.046 806.699 611.902C806.684 611.474 806.711 611.045 806.779 610.622C806.826 610.398 806.857 610.175 806.878 609.949V609.737C806.888 609.541 806.821 609.349 806.691 609.202C806.56 609.054 806.377 608.965 806.181 608.951L806.172 608.946L806.171 608.945ZM805.286 614.43L805.074 618.14H805.058C805.051 618.252 805.015 618.361 804.953 618.455C804.891 618.549 804.806 618.624 804.705 618.675C804.604 618.726 804.491 618.748 804.378 618.738C804.266 618.727 804.158 618.686 804.068 618.617L801.026 616.462C801.994 615.511 803.209 614.849 804.534 614.552C804.782 614.499 805.032 614.458 805.284 614.43H805.286V614.43ZM807.057 614.43C808.655 614.629 810.143 615.347 811.294 616.472L808.281 618.614C808.19 618.688 808.08 618.734 807.964 618.747C807.848 618.761 807.73 618.742 807.624 618.692C807.519 618.642 807.429 618.563 807.366 618.464C807.303 618.366 807.269 618.252 807.268 618.135L807.057 614.43L807.057 614.43ZM799.921 617.857L802.704 620.339V620.355C802.788 620.43 802.851 620.525 802.886 620.633C802.921 620.74 802.926 620.854 802.901 620.964C802.875 621.074 802.821 621.175 802.743 621.257C802.665 621.338 802.567 621.397 802.458 621.427V621.437L798.888 622.464C798.711 620.855 799.075 619.234 799.922 617.855L799.921 617.857ZM812.402 617.857C813.247 619.232 813.621 620.845 813.466 622.451L809.89 621.422V621.408C809.781 621.378 809.683 621.32 809.604 621.238C809.526 621.157 809.472 621.056 809.447 620.945C809.423 620.835 809.428 620.721 809.463 620.613C809.497 620.506 809.56 620.41 809.645 620.335L812.406 617.866L812.402 617.857ZM805.602 620.533H806.74L807.436 621.416L807.183 622.52L806.16 623.011L805.135 622.52L804.894 621.416L805.602 620.533ZM809.248 623.546C809.295 623.541 809.343 623.541 809.391 623.546L813.073 624.167C812.535 625.699 811.497 627.005 810.127 627.876L808.703 624.432C808.664 624.339 808.648 624.239 808.656 624.139C808.664 624.039 808.695 623.942 808.748 623.857C808.801 623.772 808.874 623.701 808.96 623.649C809.046 623.598 809.144 623.568 809.244 623.562L809.248 623.546ZM803.064 623.562C803.167 623.564 803.267 623.591 803.357 623.64C803.446 623.69 803.523 623.761 803.578 623.847C803.634 623.932 803.668 624.031 803.676 624.132C803.685 624.234 803.668 624.337 803.628 624.43V624.444L802.214 627.861C800.86 626.993 799.831 625.703 799.285 624.19L802.935 623.572C802.976 623.567 803.017 623.567 803.058 623.572L803.065 623.562H803.064ZM806.148 625.048C806.385 625.041 806.606 625.167 806.718 625.375H806.732L808.531 628.622L807.812 628.834C806.489 629.137 805.107 629.065 803.822 628.628L805.627 625.382C805.681 625.288 805.758 625.21 805.851 625.156C805.944 625.101 806.049 625.071 806.157 625.068L806.148 625.048V625.048Z" fill="white" stroke="white" stroke-width="0.331587"/>
<rect x="113.628" y="503.182" width="74.2586" height="74.2586" fill="#8FBE00"/>
<rect x="667.872" y="503.182" width="74.2586" height="74.2586" fill="#8FBE00"/>
<rect x="563.263" y="503.182" width="74.2586" height="74.2586" fill="#8FBE00"/>
<rect x="458.654" y="503.182" width="74.2586" height="74.2586" fill="#8FBE00"/>
<rect x="667.872" y="413.254" width="74.2586" height="74.2586" fill="#8FBE00"/>
<rect x="563.263" y="413.254" width="74.2586" height="74.2586" fill="#8FBE00"/>
<rect x="458.654" y="413.254" width="74.2586" height="74.2586" fill="#8FBE00"/>
<rect x="1011.98" y="413.254" width="74.2586" height="74.2586" fill="#8FBE00"/>
<rect x="907.371" y="413.254" width="74.2586" height="74.2586" fill="#8FBE00"/>
<rect x="802.762" y="413.254" width="74.2586" height="74.2586" fill="#8FBE00"/>
<rect x="1011.98" y="323.326" width="74.2586" height="74.2586" fill="#8FBE00"/>
<rect x="907.371" y="323.326" width="74.2586" height="74.2586" fill="#8FBE00"/>
<rect x="802.762" y="323.326" width="74.2586" height="74.2586" fill="#8FBE00"/>
<rect x="1011.98" y="503.182" width="74.2586" height="74.2586" fill="#8FBE00"/>
<rect x="907.371" y="503.182" width="74.2586" height="74.2586" fill="#8FBE00"/>
<rect x="802.762" y="503.182" width="74.2586" height="74.2586" fill="#8FBE00"/>
<path d="M52 495H1138" stroke="#AEAEAE" stroke-width="8" stroke-dasharray="26 26"/>
<path d="M52 405H1138" stroke="#AEAEAE" stroke-width="8" stroke-dasharray="26 26"/>
<path d="M1136.13 551V547.787L1143.64 540.836C1144.28 540.218 1144.81 539.662 1145.25 539.167C1145.69 538.673 1146.02 538.189 1146.25 537.715C1146.47 537.235 1146.59 536.716 1146.59 536.16C1146.59 535.542 1146.44 535.01 1146.16 534.564C1145.88 534.111 1145.5 533.764 1145.01 533.524C1144.52 533.277 1143.97 533.153 1143.35 533.153C1142.71 533.153 1142.14 533.283 1141.66 533.544C1141.18 533.805 1140.81 534.179 1140.55 534.667C1140.29 535.154 1140.16 535.734 1140.16 536.407H1135.93C1135.93 535.027 1136.24 533.829 1136.86 532.813C1137.49 531.797 1138.36 531.011 1139.49 530.455C1140.62 529.899 1141.91 529.621 1143.38 529.621C1144.89 529.621 1146.21 529.888 1147.33 530.424C1148.45 530.953 1149.33 531.687 1149.95 532.628C1150.58 533.568 1150.89 534.646 1150.89 535.862C1150.89 536.658 1150.73 537.444 1150.42 538.22C1150.11 538.996 1149.55 539.857 1148.76 540.805C1147.96 541.745 1146.84 542.875 1145.39 544.193L1142.31 547.21V547.354H1151.17V551H1136.13ZM1162.67 551.463C1160.9 551.457 1159.37 551.021 1158.1 550.156C1156.83 549.29 1155.85 548.038 1155.16 546.397C1154.48 544.756 1154.14 542.782 1154.15 540.475C1154.15 538.175 1154.49 536.215 1155.17 534.595C1155.86 532.975 1156.84 531.742 1158.11 530.898C1159.38 530.046 1160.9 529.621 1162.67 529.621C1164.43 529.621 1165.95 530.046 1167.22 530.898C1168.5 531.749 1169.48 532.985 1170.17 534.605C1170.85 536.219 1171.19 538.175 1171.19 540.475C1171.19 542.789 1170.84 544.766 1170.16 546.407C1169.48 548.048 1168.5 549.301 1167.23 550.166C1165.96 551.031 1164.44 551.463 1162.67 551.463ZM1162.67 547.766C1163.88 547.766 1164.84 547.159 1165.56 545.944C1166.28 544.728 1166.64 542.906 1166.63 540.475C1166.63 538.875 1166.47 537.544 1166.14 536.479C1165.82 535.415 1165.36 534.615 1164.76 534.08C1164.17 533.544 1163.47 533.277 1162.67 533.277C1161.47 533.277 1160.51 533.877 1159.78 535.079C1159.06 536.28 1158.7 538.079 1158.69 540.475C1158.69 542.095 1158.85 543.448 1159.18 544.533C1159.51 545.611 1159.97 546.421 1160.57 546.963C1161.16 547.499 1161.87 547.766 1162.67 547.766ZM1185.91 547.045V545.933C1185.91 545.089 1186.09 544.313 1186.44 543.606C1186.81 542.892 1187.33 542.322 1188.02 541.896C1188.71 541.464 1189.56 541.248 1190.55 541.248C1191.56 541.248 1192.41 541.46 1193.1 541.886C1193.79 542.312 1194.31 542.882 1194.66 543.596C1195.02 544.303 1195.2 545.082 1195.2 545.933V547.045C1195.2 547.89 1195.02 548.669 1194.66 549.383C1194.31 550.09 1193.78 550.657 1193.09 551.082C1192.39 551.515 1191.55 551.731 1190.55 551.731C1189.54 551.731 1188.7 551.515 1188.01 551.082C1187.32 550.657 1186.8 550.09 1186.44 549.383C1186.09 548.669 1185.91 547.89 1185.91 547.045ZM1188.91 545.933V547.045C1188.91 547.533 1189.02 547.993 1189.26 548.425C1189.5 548.858 1189.93 549.074 1190.55 549.074C1191.18 549.074 1191.6 548.861 1191.83 548.436C1192.06 548.01 1192.18 547.547 1192.18 547.045V545.933C1192.18 545.432 1192.07 544.965 1191.85 544.533C1191.63 544.1 1191.2 543.884 1190.55 543.884C1189.94 543.884 1189.51 544.1 1189.27 544.533C1189.03 544.965 1188.91 545.432 1188.91 545.933ZM1175.09 534.976V533.864C1175.09 533.012 1175.27 532.233 1175.63 531.526C1176 530.812 1176.52 530.242 1177.21 529.816C1177.9 529.391 1178.74 529.178 1179.72 529.178C1180.74 529.178 1181.59 529.391 1182.27 529.816C1182.96 530.242 1183.48 530.812 1183.84 531.526C1184.2 532.233 1184.37 533.012 1184.37 533.864V534.976C1184.37 535.827 1184.19 536.606 1183.83 537.314C1183.47 538.021 1182.95 538.587 1182.25 539.013C1181.57 539.432 1180.72 539.641 1179.72 539.641C1178.72 539.641 1177.87 539.428 1177.18 539.002C1176.49 538.57 1175.97 538.004 1175.61 537.303C1175.26 536.596 1175.09 535.82 1175.09 534.976ZM1178.1 533.864V534.976C1178.1 535.477 1178.22 535.94 1178.45 536.366C1178.69 536.792 1179.12 537.005 1179.72 537.005C1180.35 537.005 1180.78 536.792 1181.01 536.366C1181.24 535.94 1181.36 535.477 1181.36 534.976V533.864C1181.36 533.362 1181.25 532.896 1181.03 532.463C1180.81 532.031 1180.37 531.814 1179.72 531.814C1179.11 531.814 1178.69 532.034 1178.45 532.473C1178.22 532.913 1178.1 533.376 1178.1 533.864ZM1176.45 551L1190.95 529.909H1193.64L1179.14 551H1176.45Z" fill="black"/>
<path d="M1137.7 371L1146.45 353.699V353.555H1136.26V349.909H1151.06V353.606L1142.31 371H1137.7ZM1161.93 371.463C1160.16 371.457 1158.64 371.021 1157.36 370.156C1156.09 369.29 1155.11 368.038 1154.42 366.397C1153.75 364.756 1153.41 362.782 1153.42 360.475C1153.42 358.175 1153.76 356.215 1154.44 354.595C1155.12 352.975 1156.1 351.742 1157.37 350.898C1158.65 350.046 1160.17 349.621 1161.93 349.621C1163.7 349.621 1165.21 350.046 1166.48 350.898C1167.76 351.749 1168.74 352.985 1169.43 354.605C1170.12 356.219 1170.46 358.175 1170.45 360.475C1170.45 362.789 1170.11 364.766 1169.42 366.407C1168.74 368.048 1167.76 369.301 1166.49 370.166C1165.22 371.031 1163.7 371.463 1161.93 371.463ZM1161.93 367.766C1163.14 367.766 1164.11 367.159 1164.83 365.944C1165.55 364.728 1165.9 362.906 1165.9 360.475C1165.9 358.875 1165.73 357.544 1165.4 356.479C1165.08 355.415 1164.62 354.615 1164.02 354.08C1163.43 353.544 1162.74 353.277 1161.93 353.277C1160.73 353.277 1159.77 353.877 1159.05 355.079C1158.33 356.28 1157.96 358.079 1157.96 360.475C1157.96 362.095 1158.12 363.448 1158.44 364.533C1158.77 365.611 1159.23 366.421 1159.83 366.963C1160.43 367.499 1161.13 367.766 1161.93 367.766ZM1185.17 367.045V365.933C1185.17 365.089 1185.35 364.313 1185.71 363.606C1186.07 362.892 1186.6 362.322 1187.28 361.896C1187.98 361.464 1188.82 361.248 1189.82 361.248C1190.83 361.248 1191.67 361.46 1192.36 361.886C1193.05 362.312 1193.58 362.882 1193.93 363.596C1194.28 364.303 1194.46 365.082 1194.46 365.933V367.045C1194.46 367.89 1194.28 368.669 1193.93 369.383C1193.57 370.09 1193.04 370.657 1192.35 371.082C1191.66 371.515 1190.81 371.731 1189.82 371.731C1188.81 371.731 1187.96 371.515 1187.27 371.082C1186.59 370.657 1186.07 370.09 1185.71 369.383C1185.35 368.669 1185.17 367.89 1185.17 367.045ZM1188.17 365.933V367.045C1188.17 367.533 1188.29 367.993 1188.52 368.425C1188.76 368.858 1189.19 369.074 1189.82 369.074C1190.44 369.074 1190.87 368.861 1191.09 368.436C1191.33 368.01 1191.44 367.547 1191.44 367.045V365.933C1191.44 365.432 1191.33 364.965 1191.11 364.533C1190.9 364.1 1190.46 363.884 1189.82 363.884C1189.2 363.884 1188.77 364.1 1188.53 364.533C1188.29 364.965 1188.17 365.432 1188.17 365.933ZM1174.35 354.976V353.864C1174.35 353.012 1174.53 352.233 1174.9 351.526C1175.26 350.812 1175.78 350.242 1176.47 349.816C1177.16 349.391 1178 349.178 1178.98 349.178C1180 349.178 1180.85 349.391 1181.54 349.816C1182.22 350.242 1182.75 350.812 1183.1 351.526C1183.46 352.233 1183.64 353.012 1183.64 353.864V354.976C1183.64 355.827 1183.46 356.606 1183.09 357.314C1182.74 358.021 1182.21 358.587 1181.52 359.013C1180.83 359.432 1179.99 359.641 1178.98 359.641C1177.98 359.641 1177.13 359.428 1176.44 359.002C1175.75 358.57 1175.23 358.004 1174.87 357.303C1174.52 356.596 1174.35 355.82 1174.35 354.976ZM1177.37 353.864V354.976C1177.37 355.477 1177.48 355.94 1177.72 356.366C1177.96 356.792 1178.38 357.005 1178.98 357.005C1179.62 357.005 1180.04 356.792 1180.27 356.366C1180.5 355.94 1180.62 355.477 1180.62 354.976V353.864C1180.62 353.362 1180.51 352.896 1180.29 352.463C1180.07 352.031 1179.64 351.814 1178.98 351.814C1178.37 351.814 1177.95 352.034 1177.72 352.473C1177.48 352.913 1177.37 353.376 1177.37 353.864ZM1175.71 371L1190.21 349.909H1192.91L1178.41 371H1175.71Z" fill="black"/>
<path d="M164.235 193.96C164.111 194.318 163.805 194.808 163.317 195.43C162.86 196.023 162.313 196.63 161.675 197.25C161.039 197.841 160.373 198.371 159.677 198.841C159.013 199.281 158.426 199.498 157.917 199.491C156.958 199.478 156.171 199.018 155.554 198.112C154.967 197.205 154.518 196.046 154.208 194.634C153.897 193.223 153.693 191.662 153.596 189.954C153.5 188.216 153.448 186.523 153.44 184.875C153.432 183.228 153.437 181.73 153.455 180.383C153.473 179.035 153.442 178.017 153.361 177.327C153.485 177.029 153.637 176.851 153.817 176.794C154.028 176.737 154.268 176.71 154.537 176.713C154.777 176.717 154.986 176.749 155.165 176.812C155.374 176.874 155.551 177.056 155.697 177.358C155.692 177.687 155.685 178.241 155.674 179.02C155.694 179.799 155.727 180.683 155.774 181.672C155.821 182.631 155.867 183.65 155.913 184.729C155.958 185.777 155.99 186.781 156.007 187.74C156.054 188.699 156.088 189.568 156.107 190.347C156.157 191.096 156.194 191.651 156.22 192.011C156.247 192.221 156.272 192.565 156.296 193.045C156.349 193.525 156.417 194.035 156.5 194.575C156.613 195.086 156.741 195.552 156.885 195.973C157.06 196.395 157.281 196.622 157.55 196.656C157.999 196.662 158.451 196.473 158.906 196.09C159.39 195.707 159.861 195.219 160.318 194.626C160.775 194.033 161.203 193.38 161.602 192.667C162.001 191.953 162.354 191.269 162.663 190.614C163.001 189.93 163.249 189.319 163.406 188.782C163.593 188.246 163.703 187.858 163.736 187.619C163.803 187.11 163.872 186.392 163.944 185.465C164.017 184.507 164.076 183.49 164.12 182.412C164.164 181.335 164.193 180.317 164.206 179.358C164.249 178.401 164.273 177.667 164.28 177.158L166.749 177.326C166.746 179.752 166.702 181.953 166.616 183.928C166.53 185.874 166.49 187.715 166.497 189.453C166.504 191.16 166.617 192.824 166.834 194.444C167.052 196.064 167.464 197.747 168.07 199.492C167.979 199.581 167.798 199.698 167.526 199.844C167.254 200.02 167.058 200.107 166.939 200.106C166.19 200.096 165.684 199.835 165.422 199.322C165.188 198.84 165.031 198.268 164.95 197.608C164.9 196.919 164.849 196.244 164.798 195.585C164.777 194.896 164.589 194.354 164.235 193.96ZM172.483 198.697C172.208 194.65 171.962 190.604 171.747 186.558C171.562 182.482 171.349 178.256 171.108 173.88C171.117 173.161 171.511 172.807 172.29 172.818L172.649 172.822C172.739 172.824 172.842 172.945 172.959 173.186C173.076 173.427 173.189 173.878 173.3 174.538C173.442 175.169 173.578 176.144 173.711 177.464C173.873 178.754 174.06 180.449 174.272 182.548C174.483 184.647 174.718 187.271 174.975 190.419C175.631 188.392 176.152 186.422 176.536 184.51C176.921 182.598 177.409 180.868 177.999 179.318C178.589 177.739 179.401 176.357 180.435 175.173C181.499 173.989 183.008 173.126 184.962 172.583C186.038 172.777 186.898 173.447 187.541 174.594C188.185 175.711 188.691 177.095 189.058 178.747C189.425 180.399 189.671 182.2 189.794 184.148C189.919 186.067 189.984 187.91 189.99 189.677C189.996 191.444 189.99 193.031 189.971 194.439C189.953 195.816 189.97 196.805 190.022 197.404C189.929 197.643 189.791 197.851 189.609 198.028C189.427 198.205 189.215 198.337 188.975 198.424C188.764 198.481 188.554 198.493 188.345 198.46C188.136 198.397 187.944 198.23 187.768 197.958C187.772 197.629 187.751 196.955 187.705 195.936C187.659 194.917 187.6 193.733 187.528 192.384C187.457 191.006 187.371 189.552 187.272 188.023C187.203 186.465 187.132 185.011 187.06 183.662C187.019 182.284 186.975 181.086 186.929 180.067C186.883 179.048 186.847 178.373 186.821 178.043C186.207 176.927 185.587 176.29 184.96 176.132C184.363 175.974 183.746 176.16 183.11 176.691C182.504 177.222 181.909 178.038 181.326 179.138C180.742 180.238 180.186 181.489 179.658 182.89C179.131 184.26 178.632 185.706 178.162 187.227C177.693 188.749 177.284 190.226 176.935 191.659C176.587 193.062 176.285 194.346 176.03 195.51C175.805 196.645 175.659 197.527 175.59 198.155C175.498 198.363 175.3 198.57 174.998 198.776C174.726 198.952 174.425 199.083 174.094 199.168C173.794 199.254 173.479 199.28 173.15 199.245C172.851 199.182 172.629 198.999 172.483 198.697ZM202.77 191.465C202.461 192.15 202.062 192.938 201.57 193.83C201.109 194.722 200.559 195.568 199.919 196.369C199.309 197.169 198.597 197.848 197.78 198.407C196.964 198.965 196.062 199.237 195.074 199.224C194.625 199.218 194.266 199.168 193.998 199.075C193.76 198.952 193.537 198.784 193.331 198.572C193.154 198.36 192.977 198.103 192.802 197.801C192.656 197.499 192.466 197.167 192.231 196.805C192.161 195.336 192.122 193.764 192.114 192.086C192.137 190.379 192.25 188.689 192.452 187.014C192.654 185.31 192.975 183.712 193.414 182.22C193.884 180.729 194.514 179.464 195.307 178.426C196.13 177.389 197.143 176.654 198.347 176.221C199.55 175.788 201.003 175.777 202.705 176.189C202.806 175.352 202.836 174.229 202.795 172.821C202.754 171.413 202.684 169.929 202.585 168.37C202.486 166.812 202.386 165.313 202.285 163.874C202.185 162.405 202.126 161.206 202.109 160.277C202.112 160.008 202.235 159.815 202.476 159.698C202.747 159.552 203.033 159.466 203.333 159.44C203.633 159.414 203.917 159.418 204.186 159.452C204.485 159.486 204.679 159.533 204.769 159.594C204.659 163.277 204.596 166.9 204.578 170.464C204.561 173.998 204.544 177.532 204.526 181.066C204.539 184.57 204.553 188.059 204.566 191.534C204.58 195.008 204.563 198.482 204.517 201.956C204.512 202.285 204.478 202.629 204.413 202.988C204.378 203.377 204.121 203.568 203.642 203.562C203.462 203.559 203.283 203.497 203.105 203.375C202.927 203.282 202.809 203.131 202.752 202.921L202.77 191.465ZM201.013 178.413C200.085 178.341 199.212 178.703 198.393 179.501C197.604 180.269 196.901 181.278 196.285 182.528C195.7 183.778 195.217 185.164 194.837 186.687C194.458 188.179 194.214 189.628 194.105 191.035C194.027 192.411 194.1 193.64 194.325 194.721C194.581 195.803 195.035 196.543 195.688 196.941C196.347 196.95 196.965 196.703 197.54 196.202C198.116 195.671 198.65 195.004 199.139 194.202C199.629 193.4 200.061 192.507 200.433 191.523C200.806 190.51 201.119 189.541 201.371 188.616C201.652 187.691 201.858 186.855 201.988 186.108C202.148 185.332 202.231 184.749 202.236 184.359C202.24 184.06 202.261 183.581 202.3 182.923C202.339 182.264 202.333 181.605 202.282 180.946C202.231 180.286 202.104 179.7 201.901 179.188C201.728 178.677 201.432 178.418 201.013 178.413ZM208.809 190.063C208.659 190.091 208.434 190.133 208.133 190.189C207.833 190.245 207.518 190.255 207.189 190.221C206.86 190.187 206.577 190.093 206.34 189.94C206.072 189.787 205.941 189.531 205.946 189.171C205.948 188.962 205.995 188.812 206.086 188.724C206.177 188.635 206.329 188.502 206.541 188.326C207.207 187.795 207.77 187.114 208.23 186.282C208.721 185.42 209.168 184.512 209.57 183.559C209.972 182.576 210.39 181.608 210.822 180.656C211.284 179.673 211.805 178.797 212.384 178.026C212.964 177.255 213.676 176.635 214.521 176.167C215.365 175.7 216.402 175.489 217.629 175.535C218.138 175.542 218.705 175.669 219.331 175.917C219.957 176.165 220.536 176.502 221.07 176.929C221.603 177.325 222.046 177.81 222.398 178.384C222.75 178.958 222.921 179.589 222.912 180.278C223.058 180.52 222.904 180.862 222.449 181.305C222.023 181.749 221.433 182.235 220.677 182.764C219.922 183.263 219.061 183.791 218.095 184.347C217.16 184.873 216.254 185.37 215.38 185.838C214.505 186.305 213.736 186.715 213.072 187.065C212.408 187.416 211.971 187.679 211.759 187.856C211.605 188.154 211.48 188.496 211.385 188.884C211.29 189.273 211.211 189.646 211.146 190.004C211.111 190.333 211.077 190.647 211.043 190.946C211.04 191.216 211.037 191.426 211.035 191.575C211.027 192.144 210.989 192.773 210.92 193.461C210.881 194.149 210.902 194.808 210.983 195.438C211.095 196.039 211.343 196.551 211.727 196.976C212.111 197.37 212.767 197.574 213.695 197.586C214.683 197.599 215.615 197.372 216.49 196.905C217.365 196.407 218.182 195.804 218.94 195.095C219.698 194.387 220.382 193.617 220.992 192.787C221.632 191.957 222.197 191.185 222.686 190.473C223.205 189.731 223.662 189.123 224.058 188.65C224.453 188.176 224.786 187.94 225.055 187.944C225.355 187.948 225.669 188.012 225.996 188.136C226.354 188.231 226.531 188.473 226.526 188.862C226.519 189.401 226.285 190.042 225.826 190.785C225.397 191.528 224.817 192.314 224.087 193.143C223.388 193.972 222.568 194.799 221.628 195.625C220.719 196.422 219.796 197.143 218.859 197.79C217.922 198.406 217.002 198.918 216.098 199.325C215.194 199.703 214.398 199.887 213.709 199.877C212.362 199.859 211.348 199.516 210.668 198.848C209.988 198.18 209.505 197.35 209.219 196.358C208.963 195.366 208.827 194.316 208.812 193.208C208.827 192.07 208.826 191.022 208.809 190.063ZM217.236 178.046C216.727 178.039 216.184 178.286 215.609 178.788C215.033 179.259 214.486 179.851 213.968 180.563C213.479 181.245 213.065 181.958 212.726 182.703C212.417 183.417 212.259 184.014 212.253 184.493C212.702 184.499 213.348 184.343 214.191 184.025C215.064 183.677 215.923 183.255 216.769 182.757C217.614 182.259 218.355 181.73 218.991 181.169C219.628 180.608 219.949 180.074 219.956 179.565C219.96 179.295 219.858 179.069 219.651 178.887C219.443 178.704 219.191 178.551 218.893 178.427C218.625 178.304 218.342 178.21 218.043 178.146C217.745 178.082 217.475 178.049 217.236 178.046ZM228.912 178.381L228.917 178.022C228.921 177.723 229.029 177.514 229.24 177.397C229.481 177.281 229.751 177.225 230.051 177.229C230.29 177.232 230.514 177.265 230.723 177.327C230.932 177.36 231.095 177.527 231.211 177.828C231.295 178.279 231.376 178.909 231.455 179.718C231.534 180.498 231.628 181.368 231.735 182.328C231.842 183.288 231.948 184.307 232.053 185.387C232.189 186.437 232.31 187.442 232.417 188.402C232.555 189.332 232.693 190.173 232.833 190.923C232.972 191.674 233.13 192.245 233.304 192.637C233.253 189.761 233.376 187.277 233.673 185.184C233.971 183.061 234.503 181.346 235.269 180.039C236.066 178.702 237.127 177.787 238.451 177.296C239.806 176.775 241.484 176.678 243.487 177.004C244.415 177.016 244.872 177.517 244.859 178.505C244.854 178.894 244.596 179.16 244.085 179.303C243.574 179.416 243.004 179.498 242.374 179.55C241.745 179.571 241.131 179.608 240.531 179.66C239.931 179.712 239.495 179.856 239.222 180.092C238.136 180.676 237.36 181.594 236.894 182.846C236.458 184.098 236.139 185.576 235.936 187.281C235.734 188.985 235.574 190.855 235.457 192.89C235.37 194.896 235.148 196.959 234.79 199.081C234.786 199.38 234.664 199.603 234.422 199.75C234.18 199.897 233.88 199.967 233.521 199.963C233.191 199.958 232.863 199.879 232.535 199.725C232.238 199.571 232.001 199.343 231.826 199.041L228.912 178.381ZM258.338 195.218C258.214 195.575 257.908 196.066 257.42 196.688C256.963 197.281 256.416 197.888 255.778 198.508C255.141 199.098 254.475 199.629 253.78 200.099C253.116 200.539 252.529 200.756 252.02 200.749C251.061 200.736 250.274 200.276 249.657 199.37C249.07 198.463 248.621 197.304 248.311 195.892C248 194.48 247.796 192.92 247.699 191.212C247.603 189.473 247.551 187.781 247.543 186.133C247.535 184.486 247.54 182.988 247.558 181.641C247.576 180.293 247.544 179.274 247.464 178.585C247.588 178.287 247.74 178.109 247.92 178.052C248.131 177.994 248.371 177.968 248.64 177.971C248.88 177.974 249.089 178.007 249.268 178.07C249.477 178.132 249.654 178.314 249.8 178.616C249.795 178.945 249.788 179.499 249.777 180.278C249.797 181.057 249.83 181.941 249.877 182.93C249.924 183.889 249.97 184.908 250.016 185.986C250.061 187.035 250.093 188.039 250.11 188.998C250.157 189.957 250.19 190.826 250.21 191.605C250.26 192.354 250.297 192.909 250.323 193.269C250.35 193.479 250.375 193.823 250.399 194.303C250.452 194.783 250.52 195.293 250.603 195.833C250.716 196.344 250.844 196.81 250.988 197.231C251.162 197.653 251.384 197.88 251.653 197.914C252.102 197.92 252.554 197.731 253.008 197.348C253.493 196.965 253.964 196.477 254.421 195.884C254.878 195.291 255.306 194.638 255.705 193.925C256.104 193.211 256.457 192.527 256.766 191.872C257.104 191.188 257.352 190.577 257.509 190.04C257.696 189.504 257.806 189.116 257.839 188.876C257.906 188.368 257.975 187.65 258.047 186.723C258.12 185.765 258.179 184.748 258.223 183.67C258.267 182.593 258.296 181.575 258.309 180.616C258.351 179.659 258.376 178.925 258.383 178.416L260.852 178.584C260.849 181.01 260.805 183.211 260.719 185.186C260.633 187.132 260.593 188.973 260.6 190.71C260.607 192.418 260.719 194.081 260.937 195.702C261.155 197.322 261.567 199.005 262.173 200.75C262.082 200.839 261.9 200.956 261.629 201.102C261.357 201.278 261.161 201.365 261.041 201.364C260.293 201.354 259.787 201.092 259.524 200.58C259.291 200.097 259.134 199.526 259.053 198.866C259.002 198.177 258.952 197.502 258.901 196.843C258.88 196.153 258.692 195.612 258.338 195.218ZM266.161 181.35C265.859 181.496 265.573 181.657 265.301 181.833C265.059 181.98 264.818 182.126 264.576 182.273C264.335 182.389 264.094 182.476 263.854 182.532C263.614 182.589 263.359 182.586 263.09 182.522C262.911 182.52 262.762 182.413 262.645 182.202C262.529 181.961 262.442 181.705 262.386 181.435C262.3 181.134 262.244 180.849 262.218 180.579C262.192 180.279 262.195 180.054 262.227 179.905L266.572 177.492L266.995 165.997C267.06 165.608 267.302 165.462 267.72 165.557C268.138 165.623 268.571 165.718 269.019 165.844C269.079 165.845 269.168 165.876 269.287 165.938C269.436 165.97 269.541 166.001 269.6 166.032C269.53 166.839 269.443 167.722 269.34 168.679C269.268 169.606 269.196 170.549 269.123 171.506C269.051 172.434 268.993 173.346 268.951 174.244C268.939 175.143 268.974 175.952 269.054 176.672L275.817 174.875C275.937 174.847 276.026 174.938 276.083 175.148C276.17 175.329 276.242 175.555 276.298 175.825C276.384 176.096 276.441 176.366 276.467 176.636C276.493 176.906 276.507 177.041 276.507 177.041L268.827 180.173C268.824 180.442 268.83 181.086 268.846 182.105C268.893 183.124 268.936 184.338 268.977 185.746C269.019 187.124 269.059 188.622 269.097 190.24C269.136 191.828 269.176 193.311 269.217 194.689C269.259 196.068 269.287 197.281 269.303 198.329C269.32 199.348 269.326 199.992 269.323 200.261C269.251 201.159 268.975 201.605 268.496 201.598C268.047 201.592 267.556 201.361 267.023 200.905L266.161 181.35ZM277.775 199.79C277.801 197.844 277.783 195.792 277.722 193.635C277.691 191.478 277.645 189.306 277.585 187.119C277.555 184.902 277.569 182.731 277.627 180.605C277.685 178.479 277.847 176.49 278.111 174.636C278.171 174.607 278.306 174.594 278.516 174.597C278.756 174.57 278.921 174.557 279.011 174.559C279.43 174.564 279.758 174.643 279.996 174.796C280.264 174.92 280.395 175.206 280.389 175.655C280.365 177.422 280.324 179.353 280.266 181.449C280.239 183.515 280.196 185.626 280.137 187.782C280.108 189.908 280.08 192.019 280.052 194.115C280.024 196.211 280.029 198.113 280.066 199.821C280.089 200.33 279.98 200.658 279.738 200.805C279.526 200.982 279.255 201.068 278.926 201.064C278.567 201.059 278.268 200.965 278.031 200.782C277.794 200.629 277.708 200.299 277.775 199.79ZM277.217 167.616C277.221 167.257 277.344 167.019 277.586 166.902C277.827 166.786 278.097 166.729 278.396 166.733C278.995 166.741 279.367 166.941 279.512 167.332C279.656 167.723 279.725 168.174 279.718 168.683C279.534 169.01 279.306 169.246 279.035 169.392C278.764 169.509 278.479 169.535 278.18 169.471C277.912 169.377 277.675 169.18 277.469 168.877C277.294 168.575 277.209 168.155 277.217 167.616ZM284.127 198.483C284.355 197.108 284.513 195.388 284.6 193.322C284.718 191.257 284.777 189.057 284.778 186.721C284.81 184.385 284.797 181.974 284.74 179.487C284.684 177 284.595 174.648 284.475 172.43C284.355 170.182 284.203 168.174 284.017 166.404C283.861 164.635 283.685 163.24 283.489 162.219C283.76 162.043 283.987 161.911 284.168 161.824C284.379 161.707 284.619 161.65 284.889 161.654C285.098 161.656 285.277 161.704 285.426 161.796C285.575 161.857 285.693 162.009 285.779 162.249C286.3 168.127 286.625 174.046 286.755 180.008C286.915 185.971 287.015 191.902 287.056 197.803C287.053 198.072 287.048 198.447 287.041 198.926C287.035 199.375 287.017 199.614 286.987 199.644C286.565 199.848 286.189 199.948 285.86 199.943C285.531 199.909 285.232 199.815 284.965 199.662C284.698 199.479 284.491 199.281 284.344 199.07C284.197 198.858 284.125 198.662 284.127 198.483ZM290.217 199.957C290.243 198.01 290.226 195.958 290.165 193.801C290.134 191.644 290.088 189.472 290.027 187.285C289.997 185.068 290.011 182.897 290.069 180.771C290.128 178.646 290.289 176.656 290.553 174.803C290.614 174.774 290.749 174.76 290.958 174.763C291.198 174.736 291.363 174.724 291.453 174.725C291.872 174.73 292.201 174.81 292.438 174.963C292.706 175.086 292.837 175.372 292.831 175.822C292.807 177.588 292.767 179.52 292.709 181.615C292.681 183.682 292.638 185.792 292.579 187.948C292.551 190.074 292.522 192.185 292.494 194.282C292.466 196.378 292.471 198.28 292.508 199.987C292.531 200.497 292.422 200.825 292.18 200.971C291.968 201.148 291.698 201.234 291.368 201.23C291.009 201.225 290.711 201.131 290.473 200.949C290.236 200.796 290.15 200.465 290.217 199.957ZM289.659 167.782C289.664 167.423 289.787 167.185 290.028 167.068C290.269 166.952 290.539 166.896 290.839 166.9C291.438 166.908 291.809 167.107 291.954 167.499C292.098 167.89 292.167 168.34 292.16 168.849C291.976 169.176 291.749 169.413 291.477 169.559C291.206 169.675 290.921 169.701 290.622 169.637C290.354 169.544 290.117 169.346 289.912 169.044C289.736 168.742 289.652 168.321 289.659 167.782ZM301.698 201.458C301.558 200.767 301.614 199.884 301.868 198.81C302.153 197.705 302.543 196.512 303.039 195.231C303.536 193.95 304.107 192.625 304.755 191.256C305.432 189.887 306.078 188.593 306.693 187.373C307.339 186.124 307.908 184.993 308.401 183.982C308.894 182.97 309.234 182.166 309.422 181.569C309.422 181.539 309.422 181.509 309.423 181.479C309.454 181.42 309.469 181.36 309.47 181.3C309.471 181.24 309.457 181.18 309.428 181.12C309.428 181.06 309.429 181.015 309.429 180.985C308.587 181.303 307.653 181.665 306.63 182.071C305.636 182.447 304.628 182.823 303.604 183.199C302.581 183.544 301.574 183.875 300.581 184.191C299.619 184.478 298.732 184.706 297.921 184.875C297.8 184.963 297.591 184.93 297.294 184.776C296.996 184.623 296.714 184.424 296.448 184.181C296.182 183.908 295.991 183.636 295.875 183.365C295.789 183.064 295.898 182.796 296.2 182.561C297.188 182.574 298.359 182.395 299.712 182.023C301.065 181.622 302.434 181.161 303.818 180.641C305.233 180.12 306.602 179.615 307.927 179.123C309.282 178.602 310.469 178.244 311.49 178.048C312.479 178.061 312.966 178.562 312.953 179.55C312.938 180.628 312.73 181.688 312.326 182.731C311.953 183.744 311.476 184.741 310.894 185.722C310.341 186.703 309.729 187.668 309.058 188.618C308.416 189.568 307.804 190.533 307.222 191.513C306.67 192.494 306.192 193.491 305.789 194.504C305.387 195.517 305.178 196.563 305.163 197.641L305.156 198.18L321.641 195.031L321.956 195.035C322.375 195.04 322.747 195.18 323.073 195.454C323.429 195.698 323.68 195.986 323.825 196.318C324.001 196.62 324.012 196.934 323.858 197.262C323.704 197.589 323.326 197.824 322.725 197.965C322.605 197.964 322.47 197.977 322.32 198.005C322.2 198.033 321.915 198.089 321.464 198.173C321.044 198.227 320.414 198.324 319.574 198.462C318.734 198.571 317.548 198.75 316.017 198.999C314.517 199.248 312.595 199.582 310.254 200C307.942 200.388 305.09 200.874 301.698 201.458ZM325.461 191.622C325.31 191.65 325.085 191.692 324.785 191.748C324.485 191.804 324.17 191.815 323.841 191.78C323.512 191.746 323.229 191.652 322.991 191.499C322.724 191.346 322.592 191.09 322.597 190.73C322.6 190.521 322.647 190.372 322.738 190.283C322.829 190.194 322.981 190.062 323.193 189.885C323.859 189.355 324.422 188.673 324.882 187.841C325.373 186.979 325.819 186.071 326.221 185.118C326.624 184.135 327.041 183.167 327.473 182.215C327.936 181.233 328.456 180.356 329.036 179.585C329.615 178.814 330.327 178.195 331.172 177.727C332.017 177.259 333.053 177.048 334.281 177.094C334.79 177.101 335.357 177.229 335.983 177.477C336.608 177.725 337.188 178.062 337.721 178.488C338.255 178.885 338.698 179.37 339.05 179.944C339.401 180.517 339.573 181.149 339.563 181.837C339.71 182.079 339.556 182.421 339.1 182.864C338.675 183.308 338.085 183.794 337.329 184.323C336.573 184.822 335.713 185.35 334.747 185.906C333.811 186.433 332.906 186.93 332.031 187.397C331.157 187.865 330.387 188.274 329.724 188.624C329.06 188.975 328.622 189.239 328.41 189.415C328.257 189.713 328.132 190.056 328.037 190.444C327.942 190.832 327.862 191.205 327.798 191.564C327.763 191.893 327.729 192.207 327.695 192.506C327.691 192.775 327.689 192.985 327.687 193.135C327.679 193.704 327.641 194.332 327.572 195.02C327.532 195.708 327.554 196.368 327.635 196.998C327.747 197.598 327.995 198.111 328.378 198.535C328.762 198.929 329.419 199.133 330.347 199.145C331.335 199.159 332.267 198.931 333.141 198.464C334.017 197.966 334.833 197.363 335.592 196.655C336.35 195.946 337.034 195.176 337.644 194.346C338.284 193.516 338.848 192.745 339.337 192.032C339.856 191.291 340.314 190.683 340.709 190.209C341.105 189.735 341.438 189.5 341.707 189.503C342.007 189.507 342.32 189.571 342.648 189.696C343.006 189.79 343.183 190.032 343.177 190.422C343.17 190.961 342.937 191.601 342.478 192.344C342.049 193.087 341.469 193.873 340.739 194.702C340.039 195.531 339.219 196.359 338.28 197.185C337.371 197.981 336.448 198.703 335.511 199.349C334.574 199.966 333.654 200.477 332.75 200.885C331.846 201.262 331.05 201.446 330.361 201.437C329.014 201.419 328 201.076 327.32 200.408C326.64 199.74 326.157 198.91 325.871 197.917C325.614 196.926 325.479 195.876 325.463 194.767C325.479 193.629 325.478 192.581 325.461 191.622ZM333.888 179.605C333.379 179.598 332.836 179.846 332.26 180.347C331.685 180.819 331.138 181.41 330.619 182.122C330.131 182.804 329.717 183.518 329.378 184.262C329.069 184.977 328.911 185.574 328.904 186.053C329.354 186.059 330 185.903 330.843 185.584C331.716 185.237 332.575 184.814 333.42 184.316C334.266 183.818 335.006 183.289 335.643 182.728C336.279 182.168 336.601 181.633 336.608 181.124C336.611 180.854 336.51 180.628 336.302 180.446C336.095 180.263 335.843 180.11 335.545 179.987C335.277 179.863 334.994 179.77 334.695 179.706C334.396 179.642 334.127 179.608 333.888 179.605ZM355.221 193.503C354.913 194.187 354.513 194.976 354.022 195.868C353.56 196.76 353.01 197.606 352.37 198.406C351.761 199.207 351.048 199.886 350.232 200.444C349.415 201.003 348.513 201.275 347.525 201.262C347.076 201.256 346.717 201.206 346.449 201.113C346.211 200.99 345.989 200.822 345.782 200.61C345.605 200.398 345.429 200.141 345.253 199.839C345.107 199.537 344.917 199.205 344.682 198.843C344.612 197.374 344.573 195.801 344.566 194.124C344.588 192.417 344.701 190.726 344.903 189.052C345.105 187.347 345.426 185.749 345.866 184.258C346.335 182.766 346.966 181.502 347.758 180.464C348.581 179.427 349.594 178.692 350.798 178.259C352.002 177.825 353.454 177.815 355.156 178.227C355.257 177.39 355.287 176.267 355.246 174.859C355.205 173.451 355.135 171.967 355.036 170.408C354.937 168.85 354.837 167.351 354.737 165.912C354.636 164.443 354.578 163.244 354.56 162.315C354.564 162.046 354.686 161.853 354.927 161.736C355.199 161.59 355.484 161.504 355.784 161.478C356.084 161.452 356.369 161.456 356.638 161.489C356.937 161.523 357.131 161.571 357.22 161.632C357.111 165.315 357.047 168.938 357.03 172.502C357.012 176.036 356.995 179.569 356.978 183.103C356.991 186.608 357.004 190.097 357.017 193.572C357.031 197.046 357.014 200.52 356.968 203.994C356.964 204.323 356.929 204.667 356.864 205.026C356.829 205.415 356.572 205.606 356.093 205.599C355.913 205.597 355.734 205.535 355.556 205.413C355.378 205.32 355.26 205.169 355.203 204.959L355.221 193.503ZM353.464 180.451C352.536 180.378 351.663 180.741 350.844 181.539C350.055 182.307 349.352 183.316 348.737 184.566C348.151 185.816 347.668 187.202 347.288 188.724C346.909 190.217 346.665 191.666 346.556 193.072C346.478 194.449 346.551 195.678 346.777 196.759C347.032 197.841 347.486 198.581 348.14 198.979C348.798 198.988 349.416 198.741 349.992 198.24C350.568 197.708 351.101 197.042 351.591 196.24C352.081 195.437 352.512 194.545 352.884 193.561C353.257 192.548 353.57 191.579 353.822 190.654C354.104 189.729 354.31 188.893 354.439 188.146C354.599 187.37 354.682 186.787 354.687 186.397C354.691 186.098 354.713 185.619 354.751 184.961C354.79 184.302 354.784 183.643 354.733 182.984C354.682 182.324 354.555 181.738 354.352 181.226C354.179 180.715 353.883 180.456 353.464 180.451Z" fill="#333333"/>
<path d="M853.82 196.038C853.629 194.657 853.542 193.323 853.559 192.036C853.577 190.718 853.669 189.387 853.837 188.041C854.035 186.696 854.293 185.307 854.612 183.873C854.961 182.41 855.356 180.843 855.797 179.172C855.802 178.843 855.896 178.544 856.079 178.277C856.263 177.98 856.505 177.744 856.807 177.568C857.11 177.362 857.426 177.202 857.757 177.087C858.088 176.971 858.403 176.916 858.703 176.92C859.362 176.928 859.958 177.146 860.491 177.572C861.025 177.999 861.497 178.514 861.908 179.119C862.349 179.724 862.715 180.373 863.005 181.065C863.326 181.728 863.588 182.301 863.791 182.783C864.017 183.834 864.165 185.034 864.237 186.383C864.339 187.702 864.336 189.05 864.228 190.426C864.12 191.803 863.892 193.162 863.544 194.505C863.197 195.819 862.717 197.025 862.103 198.125C861.49 199.225 860.699 200.143 859.73 200.879C858.792 201.615 857.678 202.064 856.388 202.227C855.699 202.218 855.178 201.986 854.825 201.532C854.472 201.048 854.21 200.476 854.039 199.814C853.898 199.124 853.818 198.434 853.797 197.744C853.806 197.056 853.814 196.487 853.82 196.038ZM856.113 195.933C856.109 196.233 856.105 196.517 856.101 196.787C856.127 197.057 856.154 197.327 856.18 197.597C856.237 197.837 856.293 198.107 856.349 198.408C856.435 198.678 856.536 198.994 856.651 199.355L856.92 199.359C857.639 199.368 858.256 199.137 858.772 198.665C859.287 198.192 859.729 197.584 860.099 196.84C860.469 196.067 860.779 195.217 861.031 194.292C861.284 193.337 861.476 192.411 861.608 191.514C861.77 190.588 861.871 189.736 861.911 188.958C861.982 188.15 862.021 187.506 862.027 187.027L862.039 186.129C862.044 185.74 862.035 185.305 862.012 184.826C861.988 184.316 861.935 183.806 861.852 183.296C861.8 182.756 861.701 182.276 861.557 181.855C861.413 181.403 861.224 181.041 860.988 180.769C860.752 180.496 860.439 180.357 860.05 180.352C859.394 180.133 858.824 180.171 858.341 180.464C857.888 180.757 857.507 181.261 857.198 181.976C856.919 182.661 856.698 183.512 856.535 184.528C856.371 185.544 856.266 186.666 856.22 187.893C856.174 189.121 856.141 190.423 856.123 191.8C856.134 193.178 856.131 194.556 856.113 195.933ZM865.707 183.977C865.707 183.947 865.693 183.902 865.664 183.841C865.665 183.751 865.666 183.692 865.666 183.662C865.672 183.212 865.855 182.96 866.215 182.905C866.576 182.82 866.906 182.78 867.205 182.784C867.535 182.788 867.905 183.078 868.317 183.652C868.729 184.197 869.183 184.937 869.68 185.872C870.207 186.777 870.733 187.773 871.257 188.858C871.812 189.944 872.367 191.014 872.922 192.07C873.507 193.096 874.093 194.032 874.681 194.879C875.299 195.726 875.889 196.348 876.453 196.744C876.669 194.022 876.835 191.703 876.95 189.788C877.066 187.872 877.147 186.256 877.195 184.939C877.272 183.622 877.316 182.589 877.326 181.841C877.337 181.062 877.33 180.463 877.305 180.043C877.311 179.624 877.3 179.355 877.271 179.234C877.273 179.085 877.275 178.98 877.275 178.92C877.283 178.381 877.377 178.053 877.558 177.935C877.769 177.818 878.04 177.762 878.369 177.766C878.758 177.772 879.162 177.837 879.579 177.962C879.997 178.088 880.203 178.39 880.196 178.869C880.26 180.817 880.234 182.793 880.117 184.798C880.031 186.774 879.9 188.749 879.723 190.723C879.548 192.668 879.402 194.583 879.287 196.468C879.172 198.353 879.148 200.18 879.214 201.948C879.153 202.007 879.017 202.08 878.807 202.167C878.596 202.224 878.371 202.281 878.13 202.338C877.89 202.394 877.65 202.436 877.41 202.463C877.2 202.49 877.05 202.503 876.96 202.502C876.662 202.438 876.203 202.027 875.584 201.27C874.966 200.483 874.275 199.501 873.512 198.322C872.749 197.144 871.958 195.831 871.139 194.382C870.319 192.934 869.529 191.53 868.769 190.172C868.038 188.815 867.396 187.578 866.842 186.463C866.288 185.347 865.909 184.518 865.707 183.977ZM883.783 192.889C883.633 192.917 883.407 192.959 883.107 193.015C882.807 193.071 882.492 193.081 882.163 193.047C881.834 193.013 881.551 192.919 881.313 192.766C881.046 192.613 880.915 192.356 880.919 191.997C880.922 191.787 880.969 191.638 881.06 191.55C881.151 191.461 881.303 191.328 881.515 191.151C882.181 190.621 882.744 189.94 883.204 189.107C883.695 188.245 884.141 187.338 884.543 186.385C884.946 185.402 885.363 184.434 885.795 183.481C886.258 182.499 886.779 181.623 887.358 180.852C887.937 180.081 888.649 179.461 889.494 178.993C890.339 178.525 891.375 178.315 892.603 178.361C893.112 178.368 893.679 178.495 894.305 178.743C894.93 178.991 895.51 179.328 896.043 179.755C896.577 180.151 897.02 180.636 897.372 181.21C897.723 181.784 897.895 182.415 897.885 183.104C898.032 183.346 897.878 183.688 897.422 184.131C896.997 184.575 896.407 185.061 895.651 185.59C894.895 186.089 894.035 186.617 893.069 187.173C892.133 187.699 891.228 188.196 890.353 188.664C889.479 189.131 888.709 189.54 888.046 189.891C887.382 190.242 886.944 190.505 886.732 190.682C886.579 190.98 886.454 191.322 886.359 191.71C886.264 192.099 886.184 192.472 886.12 192.83C886.085 193.159 886.051 193.473 886.017 193.772C886.014 194.042 886.011 194.252 886.009 194.401C886.001 194.97 885.963 195.599 885.894 196.287C885.855 196.975 885.876 197.634 885.957 198.264C886.069 198.865 886.317 199.377 886.7 199.802C887.084 200.196 887.741 200.4 888.669 200.412C889.657 200.425 890.589 200.198 891.463 199.731C892.339 199.233 893.155 198.63 893.914 197.921C894.672 197.213 895.356 196.443 895.966 195.613C896.606 194.783 897.171 194.011 897.659 193.299C898.178 192.557 898.636 191.949 899.031 191.475C899.427 191.002 899.76 190.766 900.029 190.77C900.329 190.774 900.642 190.838 900.97 190.962C901.328 191.057 901.505 191.299 901.5 191.688C901.492 192.227 901.259 192.868 900.8 193.611C900.371 194.354 899.791 195.14 899.061 195.968C898.361 196.798 897.542 197.625 896.602 198.451C895.693 199.248 894.77 199.969 893.833 200.616C892.896 201.232 891.976 201.744 891.072 202.151C890.168 202.529 889.372 202.713 888.683 202.703C887.336 202.685 886.322 202.342 885.642 201.674C884.962 201.006 884.479 200.176 884.193 199.184C883.936 198.192 883.801 197.142 883.786 196.034C883.801 194.896 883.8 193.848 883.783 192.889ZM892.21 180.872C891.701 180.865 891.158 181.112 890.582 181.614C890.007 182.085 889.46 182.677 888.941 183.389C888.453 184.071 888.039 184.784 887.7 185.529C887.391 186.243 887.233 186.84 887.227 187.319C887.676 187.325 888.322 187.169 889.165 186.851C890.038 186.503 890.897 186.08 891.742 185.583C892.588 185.085 893.328 184.556 893.965 183.995C894.601 183.434 894.923 182.9 894.93 182.391C894.933 182.121 894.832 181.895 894.624 181.713C894.417 181.53 894.165 181.377 893.867 181.253C893.599 181.13 893.316 181.036 893.017 180.972C892.718 180.908 892.449 180.875 892.21 180.872ZM903.886 181.207L903.891 180.848C903.895 180.549 904.002 180.34 904.214 180.223C904.455 180.107 904.725 180.051 905.024 180.055C905.264 180.058 905.488 180.091 905.697 180.153C905.906 180.186 906.069 180.353 906.185 180.654C906.268 181.104 906.35 181.735 906.429 182.544C906.508 183.324 906.601 184.194 906.708 185.154C906.815 186.114 906.922 187.133 907.027 188.213C907.163 189.263 907.284 190.268 907.391 191.228C907.528 192.158 907.667 192.999 907.807 193.749C907.946 194.5 908.103 195.071 908.278 195.463C908.226 192.587 908.349 190.103 908.647 188.01C908.945 185.887 909.477 184.172 910.243 182.865C911.04 181.528 912.1 180.613 913.425 180.122C914.779 179.601 916.458 179.504 918.46 179.83C919.389 179.842 919.846 180.343 919.833 181.331C919.828 181.72 919.57 181.986 919.059 182.129C918.548 182.242 917.978 182.324 917.348 182.376C916.719 182.397 916.104 182.434 915.505 182.486C914.905 182.538 914.469 182.682 914.196 182.918C913.11 183.502 912.334 184.42 911.868 185.672C911.432 186.924 911.113 188.402 910.91 190.107C910.708 191.811 910.548 193.681 910.431 195.716C910.344 197.722 910.122 199.785 909.764 201.907C909.76 202.206 909.637 202.429 909.396 202.576C909.154 202.722 908.854 202.793 908.494 202.789C908.165 202.784 907.837 202.705 907.509 202.551C907.212 202.397 906.975 202.169 906.799 201.867L903.886 181.207ZM933.312 198.044C933.187 198.401 932.881 198.891 932.394 199.514C931.937 200.107 931.389 200.713 930.752 201.334C930.115 201.924 929.449 202.455 928.754 202.925C928.089 203.365 927.502 203.582 926.993 203.575C926.035 203.562 925.248 203.102 924.631 202.196C924.044 201.289 923.595 200.13 923.284 198.718C922.974 197.306 922.77 195.746 922.673 194.038C922.577 192.299 922.524 190.606 922.516 188.959C922.508 187.312 922.514 185.814 922.532 184.467C922.55 183.119 922.518 182.1 922.438 181.41C922.561 181.113 922.714 180.935 922.894 180.877C923.104 180.82 923.344 180.794 923.614 180.797C923.853 180.8 924.063 180.833 924.242 180.895C924.45 180.958 924.628 181.14 924.773 181.442C924.769 181.771 924.762 182.325 924.751 183.104C924.771 183.883 924.804 184.767 924.85 185.756C924.898 186.715 924.944 187.734 924.989 188.812C925.035 189.861 925.067 190.865 925.084 191.824C925.131 192.783 925.164 193.652 925.184 194.431C925.234 195.18 925.271 195.735 925.296 196.095C925.323 196.305 925.349 196.649 925.372 197.129C925.426 197.609 925.494 198.119 925.576 198.659C925.689 199.17 925.818 199.636 925.962 200.057C926.136 200.479 926.358 200.706 926.627 200.74C927.076 200.746 927.528 200.557 927.982 200.174C928.467 199.791 928.937 199.303 929.394 198.71C929.852 198.117 930.28 197.464 930.679 196.751C931.077 196.037 931.431 195.353 931.739 194.698C932.078 194.014 932.326 193.403 932.483 192.866C932.67 192.329 932.78 191.942 932.813 191.702C932.879 191.194 932.949 190.476 933.021 189.549C933.094 188.591 933.152 187.574 933.197 186.496C933.241 185.419 933.27 184.401 933.282 183.442C933.325 182.484 933.35 181.751 933.357 181.242L935.826 181.41C935.823 183.836 935.779 186.036 935.692 188.012C935.606 189.958 935.567 191.799 935.574 193.536C935.581 195.244 935.693 196.907 935.911 198.528C936.129 200.148 936.541 201.831 937.147 203.576C937.056 203.664 936.874 203.782 936.603 203.928C936.331 204.104 936.135 204.191 936.015 204.19C935.267 204.18 934.761 203.918 934.498 203.406C934.265 202.923 934.108 202.352 934.027 201.692C933.976 201.003 933.925 200.328 933.874 199.668C933.854 198.979 933.666 198.438 933.312 198.044ZM941.135 184.176C940.833 184.322 940.547 184.483 940.275 184.659C940.033 184.805 939.792 184.952 939.55 185.099C939.309 185.215 939.068 185.302 938.828 185.358C938.587 185.415 938.333 185.412 938.064 185.348C937.884 185.346 937.736 185.239 937.619 185.028C937.503 184.787 937.416 184.531 937.36 184.261C937.274 183.96 937.218 183.675 937.192 183.405C937.166 183.105 937.169 182.88 937.201 182.731L941.546 180.318L941.969 168.823C942.034 168.434 942.276 168.288 942.694 168.383C943.112 168.449 943.545 168.544 943.993 168.67C944.053 168.671 944.142 168.702 944.261 168.764C944.41 168.795 944.515 168.827 944.574 168.858C944.503 169.665 944.417 170.548 944.314 171.505C944.242 172.432 944.169 173.375 944.097 174.332C944.024 175.26 943.967 176.172 943.925 177.07C943.913 177.969 943.947 178.778 944.028 179.498L950.79 177.701C950.911 177.673 950.999 177.764 951.056 177.974C951.144 178.155 951.216 178.381 951.272 178.651C951.358 178.922 951.414 179.192 951.441 179.462C951.467 179.732 951.48 179.867 951.48 179.867L943.801 182.999C943.797 183.268 943.804 183.912 943.82 184.931C943.866 185.95 943.91 187.163 943.951 188.572C943.993 189.95 944.033 191.448 944.071 193.066C944.11 194.654 944.15 196.137 944.191 197.515C944.233 198.893 944.261 200.107 944.277 201.155C944.294 202.174 944.3 202.818 944.296 203.087C944.224 203.985 943.949 204.431 943.47 204.424C943.021 204.418 942.529 204.187 941.996 203.731L941.135 184.176ZM952.749 202.616C952.775 200.67 952.757 198.618 952.696 196.461C952.665 194.304 952.619 192.132 952.559 189.945C952.528 187.728 952.542 185.557 952.601 183.431C952.659 181.305 952.821 179.316 953.085 177.462C953.145 177.433 953.28 177.42 953.49 177.423C953.73 177.396 953.895 177.383 953.984 177.385C954.404 177.39 954.732 177.469 954.97 177.622C955.238 177.746 955.368 178.032 955.362 178.481C955.339 180.248 955.298 182.179 955.24 184.275C955.213 186.341 955.169 188.452 955.111 190.608C955.082 192.734 955.054 194.845 955.026 196.941C954.998 199.037 955.002 200.939 955.039 202.647C955.063 203.156 954.953 203.484 954.712 203.631C954.5 203.808 954.229 203.894 953.9 203.89C953.54 203.885 953.242 203.791 953.005 203.608C952.767 203.455 952.682 203.125 952.749 202.616ZM952.19 170.442C952.195 170.083 952.318 169.845 952.559 169.728C952.8 169.611 953.071 169.555 953.37 169.559C953.969 169.567 954.341 169.767 954.485 170.158C954.63 170.549 954.699 171 954.692 171.509C954.508 171.836 954.28 172.072 954.009 172.218C953.737 172.335 953.453 172.361 953.154 172.297C952.886 172.203 952.649 172.005 952.443 171.703C952.267 171.401 952.183 170.981 952.19 170.442ZM959.101 201.309C959.329 199.934 959.486 198.214 959.574 196.148C959.691 194.083 959.751 191.883 959.752 189.547C959.783 187.211 959.771 184.8 959.714 182.313C959.657 179.826 959.569 177.474 959.449 175.256C959.329 173.008 959.176 171 958.99 169.23C958.834 167.461 958.658 166.066 958.462 165.045C958.734 164.869 958.961 164.737 959.141 164.65C959.353 164.533 959.593 164.476 959.863 164.479C960.072 164.482 960.251 164.53 960.4 164.621C960.549 164.683 960.666 164.835 960.753 165.075C961.274 170.953 961.599 176.872 961.729 182.834C961.889 188.797 961.989 194.728 962.03 200.629C962.026 200.898 962.021 201.273 962.015 201.752C962.009 202.201 961.991 202.44 961.96 202.47C961.538 202.674 961.163 202.774 960.833 202.769C960.504 202.735 960.206 202.641 959.939 202.488C959.671 202.305 959.464 202.107 959.317 201.895C959.171 201.684 959.098 201.488 959.101 201.309ZM965.191 202.783C965.217 200.836 965.199 198.784 965.138 196.627C965.107 194.47 965.061 192.298 965.001 190.111C964.971 187.894 964.985 185.723 965.043 183.597C965.101 181.472 965.263 179.482 965.527 177.629C965.587 177.6 965.722 177.586 965.932 177.589C966.172 177.562 966.337 177.55 966.427 177.551C966.846 177.556 967.174 177.636 967.412 177.789C967.68 177.912 967.811 178.198 967.805 178.647C967.781 180.414 967.74 182.346 967.682 184.441C967.655 186.507 967.612 188.618 967.553 190.774C967.524 192.9 967.496 195.011 967.468 197.108C967.44 199.204 967.445 201.106 967.482 202.813C967.505 203.323 967.396 203.651 967.154 203.797C966.942 203.974 966.671 204.06 966.342 204.056C965.983 204.051 965.684 203.957 965.447 203.774C965.21 203.622 965.124 203.291 965.191 202.783ZM964.633 170.608C964.637 170.249 964.76 170.011 965.002 169.894C965.243 169.778 965.513 169.722 965.812 169.726C966.411 169.734 966.783 169.933 966.928 170.324C967.072 170.716 967.141 171.166 967.134 171.675C966.95 172.002 966.722 172.239 966.451 172.385C966.18 172.501 965.895 172.527 965.596 172.463C965.328 172.37 965.091 172.172 964.885 171.87C964.71 171.568 964.625 171.147 964.633 170.608ZM976.672 204.284C976.531 203.593 976.588 202.71 976.842 201.636C977.126 200.531 977.517 199.338 978.013 198.057C978.509 196.776 979.081 195.451 979.728 194.082C980.406 192.713 981.052 191.419 981.667 190.199C982.313 188.95 982.882 187.819 983.375 186.807C983.868 185.796 984.208 184.992 984.395 184.395C984.396 184.365 984.396 184.335 984.397 184.305C984.427 184.246 984.443 184.186 984.444 184.126C984.445 184.066 984.431 184.006 984.401 183.946C984.402 183.886 984.403 183.841 984.403 183.811C983.56 184.129 982.627 184.491 981.603 184.897C980.61 185.273 979.602 185.649 978.578 186.025C977.555 186.37 976.547 186.701 975.555 187.017C974.593 187.304 973.706 187.532 972.895 187.701C972.774 187.789 972.565 187.756 972.267 187.602C971.97 187.449 971.688 187.25 971.422 187.007C971.156 186.734 970.965 186.462 970.849 186.191C970.763 185.89 970.871 185.622 971.174 185.386C972.162 185.4 973.333 185.221 974.685 184.849C976.038 184.448 977.407 183.987 978.792 183.467C980.207 182.946 981.576 182.441 982.901 181.949C984.255 181.428 985.443 181.07 986.464 180.874C987.452 180.887 987.94 181.388 987.927 182.376C987.912 183.454 987.703 184.514 987.3 185.557C986.927 186.57 986.45 187.567 985.867 188.548C985.315 189.529 984.703 190.494 984.032 191.444C983.39 192.393 982.778 193.359 982.196 194.339C981.644 195.32 981.166 196.317 980.763 197.33C980.36 198.343 980.152 199.389 980.137 200.467L980.13 201.006L996.615 197.857L996.929 197.861C997.349 197.866 997.721 198.006 998.047 198.28C998.403 198.524 998.654 198.812 998.799 199.144C998.975 199.445 998.986 199.76 998.831 200.088C998.677 200.415 998.3 200.649 997.699 200.791C997.579 200.79 997.444 200.803 997.294 200.831C997.174 200.859 996.889 200.915 996.438 200.999C996.018 201.053 995.388 201.15 994.547 201.288C993.707 201.397 992.522 201.576 990.991 201.825C989.49 202.074 987.569 202.408 985.227 202.826C982.916 203.214 980.064 203.7 976.672 204.284ZM1000.43 194.448C1000.28 194.476 1000.06 194.518 999.759 194.574C999.459 194.63 999.144 194.641 998.815 194.606C998.486 194.572 998.203 194.478 997.965 194.325C997.698 194.172 997.566 193.916 997.571 193.556C997.574 193.347 997.621 193.198 997.712 193.109C997.803 193.02 997.954 192.888 998.166 192.711C998.832 192.181 999.396 191.499 999.856 190.667C1000.35 189.805 1000.79 188.897 1001.2 187.944C1001.6 186.961 1002.01 185.993 1002.45 185.041C1002.91 184.059 1003.43 183.182 1004.01 182.411C1004.59 181.64 1005.3 181.021 1006.15 180.553C1006.99 180.085 1008.03 179.874 1009.25 179.92C1009.76 179.927 1010.33 180.055 1010.96 180.303C1011.58 180.55 1012.16 180.888 1012.69 181.314C1013.23 181.711 1013.67 182.196 1014.02 182.769C1014.38 183.343 1014.55 183.975 1014.54 184.663C1014.68 184.905 1014.53 185.247 1014.07 185.69C1013.65 186.134 1013.06 186.62 1012.3 187.149C1011.55 187.648 1010.69 188.176 1009.72 188.732C1008.79 189.259 1007.88 189.756 1007.01 190.223C1006.13 190.691 1005.36 191.1 1004.7 191.45C1004.03 191.801 1003.6 192.065 1003.38 192.241C1003.23 192.539 1003.11 192.882 1003.01 193.27C1002.92 193.658 1002.84 194.031 1002.77 194.39C1002.74 194.719 1002.7 195.033 1002.67 195.332C1002.67 195.601 1002.66 195.811 1002.66 195.961C1002.65 196.53 1002.61 197.158 1002.55 197.846C1002.51 198.534 1002.53 199.193 1002.61 199.824C1002.72 200.424 1002.97 200.937 1003.35 201.361C1003.74 201.755 1004.39 201.959 1005.32 201.971C1006.31 201.985 1007.24 201.757 1008.12 201.29C1008.99 200.792 1009.81 200.189 1010.57 199.481C1011.32 198.772 1012.01 198.002 1012.62 197.172C1013.26 196.342 1013.82 195.571 1014.31 194.858C1014.83 194.117 1015.29 193.509 1015.68 193.035C1016.08 192.561 1016.41 192.326 1016.68 192.329C1016.98 192.333 1017.29 192.397 1017.62 192.522C1017.98 192.616 1018.16 192.858 1018.15 193.247C1018.14 193.786 1017.91 194.427 1017.45 195.17C1017.02 195.913 1016.44 196.699 1015.71 197.528C1015.01 198.357 1014.19 199.185 1013.25 200.011C1012.34 200.807 1011.42 201.529 1010.48 202.175C1009.55 202.792 1008.63 203.303 1007.72 203.711C1006.82 204.088 1006.02 204.272 1005.33 204.263C1003.99 204.245 1002.97 203.902 1002.29 203.234C1001.61 202.566 1001.13 201.736 1000.84 200.743C1000.59 199.752 1000.45 198.702 1000.44 197.593C1000.45 196.455 1000.45 195.407 1000.43 194.448ZM1008.86 182.431C1008.35 182.424 1007.81 182.671 1007.23 183.173C1006.66 183.644 1006.11 184.236 1005.59 184.948C1005.1 185.63 1004.69 186.344 1004.35 187.088C1004.04 187.803 1003.88 188.399 1003.88 188.879C1004.33 188.885 1004.97 188.728 1005.82 188.41C1006.69 188.063 1007.55 187.64 1008.39 187.142C1009.24 186.644 1009.98 186.115 1010.62 185.554C1011.25 184.994 1011.57 184.459 1011.58 183.95C1011.59 183.68 1011.48 183.454 1011.28 183.272C1011.07 183.089 1010.82 182.936 1010.52 182.812C1010.25 182.689 1009.97 182.595 1009.67 182.532C1009.37 182.468 1009.1 182.434 1008.86 182.431ZM1030.2 196.329C1029.89 197.013 1029.49 197.802 1029 198.694C1028.53 199.586 1027.98 200.432 1027.34 201.232C1026.73 202.033 1026.02 202.712 1025.21 203.27C1024.39 203.829 1023.49 204.101 1022.5 204.088C1022.05 204.082 1021.69 204.032 1021.42 203.939C1021.18 203.816 1020.96 203.648 1020.76 203.436C1020.58 203.224 1020.4 202.967 1020.23 202.665C1020.08 202.363 1019.89 202.031 1019.66 201.669C1019.59 200.2 1019.55 198.627 1019.54 196.95C1019.56 195.243 1019.67 193.552 1019.88 191.878C1020.08 190.173 1020.4 188.575 1020.84 187.084C1021.31 185.592 1021.94 184.328 1022.73 183.29C1023.55 182.253 1024.57 181.518 1025.77 181.085C1026.98 180.651 1028.43 180.641 1030.13 181.053C1030.23 180.216 1030.26 179.093 1030.22 177.685C1030.18 176.277 1030.11 174.793 1030.01 173.234C1029.91 171.676 1029.81 170.177 1029.71 168.738C1029.61 167.269 1029.55 166.07 1029.53 165.141C1029.54 164.872 1029.66 164.679 1029.9 164.562C1030.17 164.416 1030.46 164.33 1030.76 164.304C1031.06 164.278 1031.34 164.282 1031.61 164.315C1031.91 164.349 1032.1 164.397 1032.19 164.458C1032.08 168.14 1032.02 171.764 1032 175.328C1031.99 178.861 1031.97 182.395 1031.95 185.929C1031.96 189.434 1031.98 192.923 1031.99 196.398C1032 199.872 1031.99 203.346 1031.94 206.82C1031.94 207.149 1031.9 207.493 1031.84 207.852C1031.8 208.241 1031.55 208.432 1031.07 208.425C1030.89 208.423 1030.71 208.361 1030.53 208.238C1030.35 208.146 1030.23 207.995 1030.18 207.785L1030.2 196.329ZM1028.44 183.277C1027.51 183.204 1026.64 183.567 1025.82 184.365C1025.03 185.133 1024.33 186.142 1023.71 187.392C1023.12 188.642 1022.64 190.028 1022.26 191.55C1021.88 193.043 1021.64 194.492 1021.53 195.898C1021.45 197.275 1021.53 198.504 1021.75 199.585C1022.01 200.667 1022.46 201.407 1023.11 201.805C1023.77 201.814 1024.39 201.567 1024.97 201.066C1025.54 200.534 1026.07 199.868 1026.56 199.066C1027.05 198.263 1027.49 197.371 1027.86 196.387C1028.23 195.374 1028.54 194.405 1028.8 193.48C1029.08 192.555 1029.28 191.719 1029.41 190.972C1029.57 190.195 1029.66 189.613 1029.66 189.223C1029.67 188.924 1029.69 188.445 1029.73 187.786C1029.76 187.128 1029.76 186.469 1029.71 185.809C1029.66 185.15 1029.53 184.564 1029.33 184.052C1029.15 183.541 1028.86 183.282 1028.44 183.277Z" fill="#333333"/>
</svg>
