<svg width="1200" height="900" viewBox="0 0 1200 900" fill="none" xmlns="http://www.w3.org/2000/svg">
<rect width="1200" height="900" fill="white"/>
<path d="M103.102 444H77.321V371.273H103.315C110.631 371.273 116.928 372.729 122.207 375.641C127.487 378.529 131.547 382.684 134.388 388.105C137.252 393.527 138.685 400.013 138.685 407.565C138.685 415.141 137.252 421.652 134.388 427.097C131.547 432.542 127.463 436.72 122.136 439.632C116.833 442.544 110.489 444 103.102 444ZM92.6974 430.825H102.463C107.009 430.825 110.832 430.02 113.933 428.411C117.058 426.777 119.402 424.256 120.964 420.847C122.551 417.414 123.344 412.987 123.344 407.565C123.344 402.191 122.551 397.8 120.964 394.391C119.402 390.982 117.07 388.472 113.969 386.862C110.867 385.252 107.044 384.447 102.499 384.447H92.6974V430.825ZM172.017 445.065C166.406 445.065 161.577 443.929 157.529 441.656C153.504 439.36 150.403 436.116 148.225 431.926C146.047 427.712 144.958 422.729 144.958 416.976C144.958 411.365 146.047 406.441 148.225 402.203C150.403 397.965 153.468 394.663 157.422 392.295C161.399 389.928 166.063 388.744 171.414 388.744C175.012 388.744 178.362 389.324 181.463 390.484C184.588 391.621 187.311 393.337 189.631 395.634C191.975 397.93 193.798 400.818 195.1 404.298C196.402 407.755 197.053 411.803 197.053 416.443V420.598H150.994V411.223H182.813C182.813 409.045 182.339 407.116 181.392 405.435C180.445 403.754 179.131 402.44 177.45 401.493C175.793 400.522 173.864 400.037 171.662 400.037C169.366 400.037 167.33 400.57 165.554 401.635C163.802 402.677 162.429 404.085 161.435 405.861C160.441 407.613 159.932 409.566 159.908 411.72V420.634C159.908 423.332 160.405 425.664 161.399 427.629C162.417 429.594 163.85 431.109 165.696 432.175C167.543 433.24 169.733 433.773 172.266 433.773C173.947 433.773 175.485 433.536 176.882 433.062C178.279 432.589 179.475 431.879 180.469 430.932C181.463 429.985 182.221 428.825 182.742 427.452L196.733 428.375C196.023 431.737 194.567 434.672 192.365 437.182C190.187 439.668 187.37 441.609 183.914 443.006C180.481 444.379 176.515 445.065 172.017 445.065ZM204.293 444V389.455H218.711V399.078H219.35C220.486 395.882 222.38 393.361 225.032 391.514C227.683 389.668 230.856 388.744 234.549 388.744C238.29 388.744 241.474 389.679 244.102 391.55C246.729 393.396 248.481 395.906 249.357 399.078H249.925C251.038 395.953 253.05 393.455 255.962 391.585C258.898 389.691 262.366 388.744 266.367 388.744C271.457 388.744 275.588 390.366 278.761 393.609C281.957 396.829 283.555 401.398 283.555 407.317V444H268.462V410.3C268.462 407.269 267.657 404.997 266.048 403.482C264.438 401.966 262.425 401.209 260.011 401.209C257.264 401.209 255.122 402.085 253.583 403.837C252.044 405.565 251.275 407.849 251.275 410.69V444H236.609V409.98C236.609 407.305 235.839 405.174 234.3 403.588C232.785 402.002 230.785 401.209 228.299 401.209C226.618 401.209 225.103 401.635 223.754 402.487C222.428 403.316 221.374 404.488 220.593 406.003C219.812 407.494 219.421 409.246 219.421 411.259V444H204.293ZM317.518 445.065C312.001 445.065 307.231 443.893 303.206 441.55C299.206 439.182 296.116 435.892 293.938 431.678C291.76 427.44 290.671 422.527 290.671 416.94C290.671 411.306 291.76 406.382 293.938 402.168C296.116 397.93 299.206 394.639 303.206 392.295C307.231 389.928 312.001 388.744 317.518 388.744C323.034 388.744 327.792 389.928 331.793 392.295C335.818 394.639 338.919 397.93 341.097 402.168C343.275 406.382 344.364 411.306 344.364 416.94C344.364 422.527 343.275 427.44 341.097 431.678C338.919 435.892 335.818 439.182 331.793 441.55C327.792 443.893 323.034 445.065 317.518 445.065ZM317.589 433.347C320.098 433.347 322.193 432.636 323.874 431.216C325.555 429.772 326.822 427.807 327.674 425.321C328.55 422.835 328.988 420.006 328.988 416.834C328.988 413.661 328.55 410.832 327.674 408.347C326.822 405.861 325.555 403.896 323.874 402.452C322.193 401.008 320.098 400.286 317.589 400.286C315.055 400.286 312.925 401.008 311.197 402.452C309.492 403.896 308.202 405.861 307.326 408.347C306.474 410.832 306.047 413.661 306.047 416.834C306.047 420.006 306.474 422.835 307.326 425.321C308.202 427.807 309.492 429.772 311.197 431.216C312.925 432.636 315.055 433.347 317.589 433.347Z" fill="black"/>
<rect x="71" y="498" width="1038" height="19" fill="black"/>
</svg>
