<svg width="1200" height="900" viewBox="0 0 1200 900" fill="none" xmlns="http://www.w3.org/2000/svg">
<g clip-path="url(#clip0_14_7434)">
<path fill-rule="evenodd" clip-rule="evenodd" d="M553 166.6V733C553 740.511 546.906 746.6 539.39 746.6H60.61C53.095 746.6 47 740.511 47 733V166.6C47 159.089 53.094 153 60.61 153H539.39C546.905 153 553 159.089 553 166.6Z" fill="#D2D2D2"/>
<path fill-rule="evenodd" clip-rule="evenodd" d="M133.8 719.4H533.4V729.84H133.8V719.4ZM133.8 702.6H533.4V713.04H133.8V702.6ZM133.8 686.6H533.4V697.04H133.8V686.6ZM66.2 171.4H533.4V181.8H66.2V171.4Z" fill="#A3A3A3"/>
<path fill-rule="evenodd" clip-rule="evenodd" d="M71.6601 200.232H528.34C529.055 200.232 529.763 200.373 530.423 200.646C531.084 200.92 531.684 201.321 532.19 201.826C532.695 202.332 533.097 202.932 533.37 203.592C533.644 204.253 533.785 204.961 533.785 205.675V662.303C533.785 663.747 533.212 665.132 532.191 666.153C531.17 667.174 529.785 667.747 528.341 667.747H71.6591C70.2152 667.747 68.8305 667.174 67.8096 666.153C66.7887 665.132 66.2151 663.747 66.2151 662.303V205.675C66.2154 204.232 66.789 202.847 67.81 201.827C68.8309 200.806 70.2154 200.232 71.6591 200.232H71.6601Z" fill="#EFFFBD"/>
<path d="M91.6751 683.719C91.2168 683.746 90.7686 683.865 90.3571 684.069L72.5111 692.578C72.0515 692.797 71.6473 693.117 71.3287 693.514C71.0101 693.911 70.7853 694.375 70.6711 694.871L66.3011 713.975C66.1968 714.418 66.1856 714.879 66.2683 715.327C66.3509 715.776 66.5255 716.202 66.7811 716.58C66.8431 716.673 66.9071 716.762 66.9741 716.849L79.3041 732.177C79.9551 732.977 80.9341 733.437 81.9651 733.433H101.741C102.251 733.43 102.754 733.315 103.215 733.095C103.675 732.876 104.082 732.557 104.405 732.163L116.729 716.831C117.375 716.031 117.617 714.974 117.369 713.971L112.972 694.853C112.857 694.357 112.632 693.893 112.314 693.496C111.995 693.099 111.591 692.779 111.132 692.56L93.3131 684.07C92.7996 683.817 92.231 683.696 91.6591 683.72L91.6751 683.719Z" fill="#4A4A4A"/>
<path d="M91.838 690.229C91.224 690.272 90.758 690.799 90.79 691.414V691.714C90.818 692.056 90.87 692.394 90.937 692.728C91.035 693.368 91.071 694.018 91.043 694.666C90.9814 694.879 90.86 695.071 90.693 695.218L90.67 695.669C90.021 695.723 89.377 695.822 88.743 695.966C86.0741 696.568 83.6461 697.953 81.771 699.945L81.387 699.674C81.2824 699.705 81.1727 699.716 81.0641 699.705C80.9555 699.694 80.8501 699.661 80.754 699.609C80.2343 699.225 79.7534 698.79 79.318 698.312C79.0991 698.051 78.8654 697.802 78.618 697.568L78.381 697.38C78.1701 697.21 77.911 697.112 77.641 697.099C77.4796 697.091 77.3185 697.121 77.1708 697.186C77.023 697.252 76.8929 697.351 76.791 697.477C76.6173 697.72 76.5473 698.022 76.5962 698.317C76.6451 698.612 76.809 698.876 77.052 699.051L77.273 699.227C77.558 699.417 77.853 699.589 78.157 699.744C78.7279 700.059 79.2636 700.434 79.755 700.864C79.882 701.046 79.956 701.258 79.968 701.479L80.318 701.799C78.4335 704.628 77.659 708.052 78.143 711.416L77.694 711.544C77.5779 711.729 77.4218 711.886 77.237 712.004C76.6115 712.171 75.9711 712.277 75.325 712.32C74.982 712.327 74.6398 712.354 74.3 712.401L74.016 712.465H73.986C73.7894 712.492 73.6043 712.573 73.4512 712.7C73.2981 712.826 73.1831 712.992 73.1188 713.18C73.0546 713.368 73.0437 713.57 73.0873 713.763C73.1309 713.957 73.2274 714.134 73.366 714.276C73.651 714.564 74.076 714.667 74.461 714.541H74.481L74.771 714.508C75.0966 714.411 75.4162 714.294 75.728 714.159C76.3289 713.918 76.9518 713.736 77.588 713.616C77.809 713.629 78.021 713.703 78.2 713.831L78.68 713.752C79.7204 716.981 81.9084 719.717 84.83 721.442L84.634 721.849C84.724 722.037 84.757 722.246 84.73 722.452C84.4652 723.064 84.1417 723.65 83.764 724.201C83.5568 724.474 83.3654 724.758 83.191 725.054L83.055 725.341C82.9563 725.513 82.9068 725.708 82.9121 725.906C82.9173 726.103 82.977 726.295 83.0845 726.461C83.1921 726.627 83.3434 726.76 83.5217 726.845C83.7 726.93 83.8984 726.965 84.095 726.945C84.498 726.9 84.84 726.632 84.981 726.253L85.114 725.981C85.236 725.661 85.338 725.334 85.422 725.005C85.705 724.305 85.859 723.554 86.246 723.09C86.3725 722.97 86.5321 722.892 86.704 722.865L86.944 722.427C90.1102 723.644 93.6138 723.653 96.786 722.452L96.999 722.861C97.2165 722.894 97.4121 723.012 97.543 723.189C97.844 723.762 98.088 724.362 98.273 724.982C98.358 725.314 98.463 725.641 98.584 725.96L98.717 726.232C98.787 726.417 98.9067 726.58 99.063 726.701C99.2193 726.822 99.4061 726.898 99.6027 726.919C99.7992 726.941 99.998 726.908 100.177 726.824C100.356 726.74 100.508 726.608 100.617 726.443C100.837 726.103 100.847 725.669 100.643 725.32L100.503 725.031C100.329 724.737 100.138 724.454 99.931 724.182C99.563 723.646 99.2418 723.079 98.971 722.489C98.9452 722.38 98.9414 722.267 98.96 722.158C98.9785 722.048 99.019 721.943 99.079 721.849C99.0106 721.709 98.9511 721.565 98.901 721.419C101.816 719.68 103.994 716.935 105.023 713.701L105.477 713.781C105.64 713.632 105.855 713.553 106.075 713.56C106.71 713.682 107.333 713.88 107.935 714.104C108.248 714.248 108.568 714.37 108.893 714.473C108.97 714.493 109.083 714.51 109.168 714.531H109.189C109.378 714.593 109.58 714.6 109.773 714.553C109.966 714.506 110.142 714.406 110.282 714.265C110.422 714.123 110.519 713.946 110.564 713.753C110.609 713.559 110.599 713.357 110.536 713.169C110.471 712.981 110.356 712.814 110.202 712.688C110.048 712.562 109.863 712.481 109.666 712.455L109.356 712.382C109.015 712.335 108.673 712.308 108.329 712.302C107.683 712.26 107.042 712.154 106.417 711.986C106.224 711.877 106.065 711.718 105.957 711.525L105.524 711.396C105.985 708.034 105.195 704.62 103.304 701.802L103.682 701.452C103.667 701.231 103.739 701.014 103.882 700.846C104.373 700.425 104.903 700.052 105.466 699.732C105.771 699.577 106.066 699.405 106.35 699.216L106.584 699.026C106.713 698.946 106.824 698.84 106.909 698.714C106.994 698.588 107.052 698.446 107.078 698.297C107.104 698.147 107.098 697.994 107.06 697.847C107.023 697.7 106.954 697.562 106.86 697.444C106.765 697.325 106.646 697.228 106.511 697.158C106.376 697.089 106.228 697.049 106.077 697.041C105.925 697.033 105.774 697.057 105.632 697.112C105.491 697.167 105.362 697.251 105.256 697.359L105.019 697.549C104.772 697.784 104.538 698.032 104.319 698.294C103.897 698.777 103.429 699.218 102.922 699.611C102.717 699.694 102.493 699.718 102.275 699.681L101.87 699.971C99.531 697.519 96.3816 695.999 93.007 695.695C93.007 695.535 92.987 695.294 92.983 695.219C92.801 695.095 92.6753 694.904 92.633 694.688C92.611 694.041 92.6518 693.395 92.755 692.757C92.825 692.42 92.872 692.083 92.903 691.742V691.422C92.9186 691.127 92.8173 690.837 92.6208 690.615C92.4243 690.393 92.1485 690.258 91.853 690.237L91.839 690.229L91.838 690.229ZM90.503 698.499L90.183 704.093H90.159C90.1492 704.262 90.0948 704.426 90.0014 704.568C89.908 704.709 89.7788 704.824 89.627 704.9C89.475 704.977 89.3043 705.01 89.1344 704.994C88.9646 704.979 88.8025 704.916 88.667 704.812L84.079 701.562C85.5395 700.128 87.3717 699.131 89.369 698.682C89.7427 698.603 90.1201 698.542 90.5 698.5H90.503V698.499ZM93.173 698.499C95.583 698.799 97.827 699.881 99.563 701.578L95.019 704.809C94.8814 704.919 94.7157 704.988 94.5406 705.009C94.3655 705.029 94.1882 705 94.0289 704.925C93.8695 704.849 93.7346 704.731 93.6395 704.582C93.5444 704.434 93.4929 704.262 93.491 704.086L93.174 698.5L93.173 698.499ZM82.413 703.667L86.609 707.409V707.434C86.7367 707.546 86.8317 707.69 86.884 707.852C86.9363 708.013 86.9439 708.186 86.906 708.352C86.868 708.517 86.786 708.67 86.6686 708.793C86.5512 708.915 86.4027 709.004 86.239 709.049V709.065L80.855 710.614C80.5884 708.188 81.1372 705.743 82.415 703.664L82.413 703.667ZM101.233 703.667C102.508 705.74 103.071 708.172 102.838 710.594L97.446 709.042V709.021C97.2816 708.976 97.1324 708.888 97.0147 708.765C96.8969 708.642 96.8151 708.49 96.778 708.323C96.7405 708.158 96.7484 707.985 96.8008 707.823C96.8533 707.661 96.9483 707.516 97.076 707.404L101.239 703.68L101.233 703.667ZM90.979 707.702H92.695L93.745 709.034L93.363 710.698L91.821 711.439L90.276 710.698L89.912 709.034L90.979 707.702ZM96.477 712.245C96.5487 712.237 96.6212 712.237 96.693 712.245L102.245 713.182C101.433 715.491 99.8684 717.461 97.802 718.775L95.656 713.581C95.5971 713.441 95.5726 713.29 95.5844 713.139C95.5962 712.988 95.6441 712.842 95.724 712.714C95.8038 712.585 95.9133 712.478 96.0433 712.401C96.1733 712.323 96.32 712.278 96.471 712.27L96.477 712.245ZM87.153 712.27C87.3074 712.272 87.4588 712.313 87.594 712.387C87.7291 712.462 87.8438 712.569 87.928 712.698C88.0119 712.828 88.0627 712.976 88.0758 713.129C88.0889 713.283 88.0639 713.437 88.003 713.578V713.599L85.871 718.752C83.8296 717.443 82.2771 715.497 81.454 713.216L86.958 712.284C87.0198 712.277 87.0821 712.277 87.144 712.284L87.154 712.27H87.153ZM91.803 714.51C92.16 714.5 92.493 714.69 92.663 715.004H92.683L95.396 719.898L94.312 720.219C92.3163 720.675 90.2331 720.568 88.295 719.909L91.017 715.013C91.0983 714.872 91.2146 714.755 91.3548 714.672C91.495 714.589 91.6542 714.544 91.817 714.541L91.803 714.51V714.51Z" fill="white" stroke="white" stroke-width="0.5"/>
<path d="M66 225H534V663C534 664.326 533.473 665.598 532.536 666.536C531.598 667.473 530.326 668 529 668H71C69.6739 668 68.4021 667.473 67.4645 666.536C66.5268 665.598 66 664.326 66 663V225Z" fill="#EFFFBD"/>
<path d="M66 618H534V660C534 662.122 533.157 664.157 531.657 665.657C530.157 667.157 528.122 668 526 668H74C71.8783 668 69.8434 667.157 68.3431 665.657C66.8429 664.157 66 662.122 66 660V618Z" fill="#00A8C6"/>
<path fill-rule="evenodd" clip-rule="evenodd" d="M89 303H131V345H89V303ZM152 303H194V345H152V303ZM215 303H257V345H215V303ZM279 303H321V345H279V303ZM342 303H384V345H342V303ZM89 240H131V282H89V240ZM152 240H194V282H152V240ZM215 240H257V282H215V240ZM279 240H321V282H279V240ZM342 240H384V282H342V240ZM406 303H448V345H406V303ZM406 240H448V282H406V240ZM469 303H511V345H469V303ZM469 240H511V282H469V240ZM89 366H131V408H89V366ZM152 366H194V408H152V366ZM215 366H257V408H215V366Z" fill="#8FBE00"/>
<path fill-rule="evenodd" clip-rule="evenodd" d="M735.17 674.585C735.17 678.864 734.327 683.101 732.69 687.055C731.052 691.008 728.652 694.6 725.626 697.626C722.6 700.652 719.008 703.052 715.055 704.69C711.101 706.327 706.864 707.17 702.585 707.17C698.306 707.17 694.069 706.327 690.115 704.69C686.162 703.052 682.57 700.652 679.544 697.626C676.518 694.6 674.118 691.008 672.48 687.055C670.843 683.101 670 678.864 670 674.585C670 670.306 670.843 666.069 672.48 662.115C674.118 658.162 676.518 654.57 679.544 651.544C682.57 648.518 686.162 646.118 690.115 644.48C694.069 642.843 698.306 642 702.585 642C706.864 642 711.101 642.843 715.055 644.48C719.008 646.118 722.6 648.518 725.626 651.544C728.652 654.57 731.052 658.162 732.69 662.115C734.327 666.069 735.17 670.306 735.17 674.585Z" fill="#688A00"/>
<path d="M714.309 683.126H691.13V677.451L701.957 660.423H707.107V667.991H704.164L698.33 677.241V677.451H714.31V683.127L714.309 683.126ZM711.208 687.331H704.218V681.392L704.375 678.922V660.422H711.208V687.331Z" fill="white"/>
<path d="M384.034 427H391.415V415.682H397.619C405.648 415.682 410.318 410.892 410.318 403.92C410.318 396.983 405.733 392.091 397.807 392.091H384.034V427ZM391.415 409.767V398.125H396.392C400.653 398.125 402.716 400.443 402.716 403.92C402.716 407.381 400.653 409.767 396.426 409.767H391.415ZM424.944 427.511C432.887 427.511 437.83 422.074 437.83 414.011C437.83 405.898 432.887 400.477 424.944 400.477C417 400.477 412.057 405.898 412.057 414.011C412.057 422.074 417 427.511 424.944 427.511ZM424.978 421.886C421.313 421.886 419.438 418.528 419.438 413.96C419.438 409.392 421.313 406.017 424.978 406.017C428.574 406.017 430.449 409.392 430.449 413.96C430.449 418.528 428.574 421.886 424.978 421.886ZM450.759 427.426C454.986 427.426 457.185 424.989 458.191 422.807H458.498V427H465.657V392.091H458.413V405.216H458.191C457.219 403.085 455.123 400.477 450.742 400.477C444.998 400.477 440.14 404.943 440.14 413.943C440.14 422.705 444.793 427.426 450.759 427.426ZM453.06 421.648C449.498 421.648 447.555 418.477 447.555 413.909C447.555 409.375 449.464 406.256 453.06 406.256C456.589 406.256 458.566 409.239 458.566 413.909C458.566 418.58 456.555 421.648 453.06 421.648ZM491.971 408.284C491.323 403.46 487.437 400.477 480.823 400.477C474.125 400.477 469.71 403.58 469.727 408.625C469.71 412.545 472.181 415.085 477.295 416.108L481.829 417.011C484.113 417.472 485.153 418.307 485.187 419.619C485.153 421.17 483.466 422.278 480.926 422.278C478.335 422.278 476.613 421.17 476.17 419.04L469.028 419.415C469.71 424.426 473.971 427.511 480.909 427.511C487.693 427.511 492.551 424.051 492.568 418.886C492.551 415.102 490.079 412.835 485 411.795L480.261 410.841C477.823 410.312 476.92 409.477 476.937 408.216C476.92 406.648 478.693 405.625 480.943 405.625C483.466 405.625 484.966 407.006 485.323 408.693L491.971 408.284Z" fill="black"/>
<path d="M201.483 646.818C201.483 640.156 197.347 636.358 191.947 636.358C186.518 636.358 182.412 640.156 182.412 646.818C182.412 653.45 186.518 657.278 191.947 657.278C197.347 657.278 201.483 653.48 201.483 646.818ZM197.118 646.818C197.118 651.134 195.07 653.47 191.947 653.47C188.815 653.47 186.777 651.134 186.777 646.818C186.777 642.503 188.815 640.166 191.947 640.166C195.07 640.166 197.118 642.503 197.118 646.818ZM204.033 662.727H208.268V654.554H208.398C208.984 655.827 210.267 657.249 212.733 657.249C216.213 657.249 218.928 654.494 218.928 649.384C218.928 644.134 216.094 641.528 212.743 641.528C210.188 641.528 208.965 643.05 208.398 644.293H208.209V641.727H204.033V662.727ZM208.179 649.364C208.179 646.639 209.332 644.899 211.391 644.899C213.489 644.899 214.602 646.719 214.602 649.364C214.602 652.028 213.469 653.878 211.391 653.878C209.352 653.878 208.179 652.088 208.179 649.364ZM228.152 657.298C231.93 657.298 234.476 655.459 235.072 652.625L231.155 652.366C230.727 653.53 229.633 654.136 228.221 654.136C226.103 654.136 224.761 652.734 224.761 650.457V650.447H235.162V649.284C235.162 644.094 232.02 641.528 227.983 641.528C223.488 641.528 220.575 644.72 220.575 649.433C220.575 654.276 223.449 657.298 228.152 657.298ZM224.761 647.822C224.851 646.082 226.173 644.69 228.052 644.69C229.892 644.69 231.164 646.003 231.174 647.822H224.761ZM237.366 657H241.602V648.359C241.602 646.48 242.974 645.188 244.843 645.188C245.43 645.188 246.235 645.287 246.633 645.416V641.658C246.255 641.568 245.728 641.509 245.3 641.509C243.59 641.509 242.188 642.503 241.631 644.392H241.472V641.727H237.366V657ZM252.18 657.288C254.438 657.288 255.899 656.304 256.645 654.882H256.764V657H260.781V646.699C260.781 643.06 257.699 641.528 254.298 641.528C250.639 641.528 248.233 643.278 247.646 646.062L251.564 646.381C251.852 645.366 252.757 644.621 254.278 644.621C255.72 644.621 256.546 645.347 256.546 646.599V646.659C256.546 647.643 255.501 647.773 252.847 648.031C249.824 648.31 247.109 649.324 247.109 652.734C247.109 655.757 249.267 657.288 252.18 657.288ZM253.394 654.365C252.091 654.365 251.156 653.759 251.156 652.595C251.156 651.402 252.141 650.815 253.632 650.607C254.557 650.477 256.068 650.259 256.575 649.92V651.541C256.575 653.142 255.253 654.365 253.394 654.365ZM271.631 641.727H268.758V638.068H264.522V641.727H262.434V644.909H264.522V652.864C264.502 655.857 266.54 657.338 269.613 657.209C270.706 657.169 271.482 656.95 271.91 656.811L271.243 653.659C271.035 653.699 270.587 653.798 270.189 653.798C269.344 653.798 268.758 653.48 268.758 652.307V644.909H271.631V641.727ZM273.83 657H278.066V641.727H273.83V657ZM275.958 639.759C277.221 639.759 278.255 638.794 278.255 637.611C278.255 636.438 277.221 635.473 275.958 635.473C274.705 635.473 273.671 636.438 273.671 637.611C273.671 638.794 274.705 639.759 275.958 639.759ZM285.135 648.17C285.145 646.202 286.318 645.048 288.029 645.048C289.729 645.048 290.753 646.162 290.743 648.031V657H294.979V647.276C294.979 643.716 292.891 641.528 289.709 641.528C287.442 641.528 285.801 642.642 285.115 644.422H284.936V641.727H280.899V657H285.135V648.17ZM304.638 663.045C309.003 663.045 312.105 661.057 312.105 657.149V641.727H307.899V644.293H307.74C307.173 643.05 305.931 641.528 303.375 641.528C300.024 641.528 297.19 644.134 297.19 649.334C297.19 654.415 299.945 656.781 303.385 656.781C305.821 656.781 307.183 655.558 307.74 654.295H307.919V657.089C307.919 659.188 306.577 660.003 304.737 660.003C302.868 660.003 301.923 659.188 301.575 658.263L297.658 658.79C298.165 661.196 300.521 663.045 304.638 663.045ZM304.727 653.599C302.649 653.599 301.516 651.949 301.516 649.314C301.516 646.719 302.629 644.899 304.727 644.899C306.786 644.899 307.939 646.639 307.939 649.314C307.939 652.009 306.766 653.599 304.727 653.599ZM331.963 642.493H336.089C336.03 638.864 333.047 636.358 328.513 636.358C324.048 636.358 320.777 638.824 320.797 642.523C320.787 645.526 322.905 647.246 326.345 648.071L328.562 648.628C330.78 649.165 332.013 649.801 332.023 651.173C332.013 652.665 330.601 653.679 328.413 653.679C326.176 653.679 324.565 652.645 324.426 650.607H320.26C320.369 655.011 323.521 657.288 328.463 657.288C333.434 657.288 336.358 654.912 336.368 651.183C336.358 647.793 333.802 645.993 330.263 645.197L328.433 644.76C326.663 644.352 325.182 643.696 325.211 642.234C325.211 640.922 326.375 639.957 328.483 639.957C330.541 639.957 331.804 640.892 331.963 642.493ZM341.239 662.727C344.391 662.727 346.062 661.116 346.927 658.651L352.863 641.747L348.378 641.727L345.187 652.943H345.027L341.866 641.727H337.411L342.89 657.438L342.641 658.084C342.084 659.516 341.02 659.585 339.529 659.128L338.574 662.29C339.181 662.548 340.165 662.727 341.239 662.727ZM367.178 646.082C366.8 643.268 364.533 641.528 360.675 641.528C356.767 641.528 354.192 643.338 354.202 646.281C354.192 648.568 355.634 650.05 358.617 650.646L361.262 651.173C362.594 651.442 363.2 651.929 363.22 652.695C363.2 653.599 362.216 654.246 360.735 654.246C359.223 654.246 358.219 653.599 357.96 652.357L353.794 652.575C354.192 655.499 356.678 657.298 360.725 657.298C364.682 657.298 367.516 655.28 367.526 652.267C367.516 650.06 366.074 648.737 363.111 648.131L360.347 647.574C358.925 647.266 358.398 646.778 358.408 646.043C358.398 645.128 359.432 644.531 360.744 644.531C362.216 644.531 363.091 645.337 363.3 646.321L367.178 646.082ZM377.757 641.727H374.883V638.068H370.647V641.727H368.559V644.909H370.647V652.864C370.627 655.857 372.666 657.338 375.738 657.209C376.832 657.169 377.607 656.95 378.035 656.811L377.369 653.659C377.16 653.699 376.713 653.798 376.315 653.798C375.47 653.798 374.883 653.48 374.883 652.307V644.909H377.757V641.727ZM386.752 657.298C390.53 657.298 393.076 655.459 393.672 652.625L389.755 652.366C389.327 653.53 388.234 654.136 386.822 654.136C384.704 654.136 383.361 652.734 383.361 650.457V650.447H393.762V649.284C393.762 644.094 390.62 641.528 386.583 641.528C382.089 641.528 379.175 644.72 379.175 649.433C379.175 654.276 382.049 657.298 386.752 657.298ZM383.361 647.822C383.451 646.082 384.773 644.69 386.653 644.69C388.492 644.69 389.765 646.003 389.775 647.822H383.361ZM395.966 657H400.202V647.832C400.202 646.142 401.276 645.018 402.688 645.018C404.08 645.018 405.014 645.973 405.014 647.474V657H409.121V647.673C409.121 646.092 410.026 645.018 411.567 645.018C412.919 645.018 413.933 645.864 413.933 647.564V657H418.159V646.729C418.159 643.418 416.191 641.528 413.347 641.528C411.11 641.528 409.37 642.672 408.743 644.422H408.584C408.097 642.652 406.536 641.528 404.438 641.528C402.379 641.528 400.818 642.622 400.182 644.422H400.003V641.727H395.966V657Z" fill="white"/>
<path d="M762.781 637V669H769.344V648.094H769.609L777.891 668.844H782.359L790.641 648.172H790.906V669H797.469V637H789.125L780.313 658.5H779.938L771.125 637H762.781ZM812.535 669.469C818.473 669.469 822.473 666.578 823.41 662.125L817.254 661.719C816.582 663.547 814.864 664.5 812.645 664.5C809.317 664.5 807.207 662.297 807.207 658.719V658.703H823.551V656.875C823.551 648.719 818.614 644.688 812.27 644.688C805.207 644.688 800.629 649.703 800.629 657.109C800.629 664.719 805.145 669.469 812.535 669.469ZM807.207 654.578C807.348 651.844 809.426 649.656 812.379 649.656C815.27 649.656 817.27 651.719 817.285 654.578H807.207ZM826.575 669H833.231V654.594C833.231 651.937 834.919 650.172 837.137 650.172C839.325 650.172 840.794 651.672 840.794 654.031V669H847.247V654.344C847.247 651.859 848.669 650.172 851.09 650.172C853.215 650.172 854.809 651.5 854.809 654.172V669H861.45V652.859C861.45 647.656 858.356 644.688 853.887 644.688C850.372 644.688 847.637 646.484 846.653 649.234H846.403C845.637 646.453 843.184 644.688 839.887 644.688C836.653 644.688 834.2 646.406 833.2 649.234H832.919V645H826.575V669ZM876.231 669.469C883.513 669.469 888.044 664.484 888.044 657.094C888.044 649.656 883.513 644.688 876.231 644.688C868.95 644.688 864.419 649.656 864.419 657.094C864.419 664.484 868.95 669.469 876.231 669.469ZM876.263 664.312C872.903 664.312 871.185 661.234 871.185 657.047C871.185 652.859 872.903 649.766 876.263 649.766C879.56 649.766 881.278 652.859 881.278 657.047C881.278 661.234 879.56 664.312 876.263 664.312ZM891.052 669H897.708V655.422C897.708 652.469 899.865 650.438 902.802 650.438C903.724 650.438 904.99 650.594 905.615 650.797V644.891C905.021 644.75 904.193 644.656 903.521 644.656C900.833 644.656 898.63 646.219 897.755 649.187H897.505V645H891.052V669ZM912.576 678C917.529 678 920.154 675.469 921.513 671.594L930.841 645.031L923.795 645L918.779 662.625H918.529L913.56 645H906.56L915.17 669.688L914.779 670.703C913.904 672.953 912.232 673.063 909.888 672.344L908.388 677.312C909.341 677.719 910.888 678 912.576 678ZM948.635 669.453C952.182 669.453 954.479 667.906 955.651 665.672H955.838V669H962.151V652.812C962.151 647.094 957.307 644.688 951.963 644.688C946.213 644.688 942.432 647.437 941.51 651.812L947.666 652.312C948.119 650.719 949.541 649.547 951.932 649.547C954.197 649.547 955.494 650.687 955.494 652.656V652.75C955.494 654.297 953.854 654.5 949.682 654.906C944.932 655.344 940.666 656.937 940.666 662.297C940.666 667.047 944.057 669.453 948.635 669.453ZM950.541 664.859C948.494 664.859 947.026 663.906 947.026 662.078C947.026 660.203 948.572 659.281 950.916 658.953C952.369 658.75 954.744 658.406 955.541 657.875V660.422C955.541 662.937 953.463 664.859 950.541 664.859ZM972.651 655.125C972.667 652.031 974.51 650.219 977.198 650.219C979.87 650.219 981.479 651.969 981.463 654.906V669H988.12V653.719C988.12 648.125 984.838 644.688 979.838 644.688C976.276 644.688 973.698 646.437 972.62 649.234H972.338V645H965.995V669H972.651V655.125ZM1000.89 669.391C1004.76 669.391 1006.78 667.156 1007.7 665.156H1007.98V669H1014.55V637H1007.91V649.031H1007.7C1006.81 647.078 1004.89 644.688 1000.87 644.688C995.608 644.688 991.155 648.781 991.155 657.031C991.155 665.062 995.421 669.391 1000.89 669.391ZM1003 664.094C999.733 664.094 997.952 661.187 997.952 657C997.952 652.844 999.702 649.984 1003 649.984C1006.23 649.984 1008.05 652.719 1008.05 657C1008.05 661.281 1006.2 664.094 1003 664.094ZM1055.92 648.203C1055.03 640.812 1049.44 636.562 1042.03 636.562C1033.58 636.562 1027.12 642.531 1027.12 653C1027.12 663.438 1033.47 669.437 1042.03 669.437C1050.23 669.437 1055.19 663.984 1055.92 658.094L1049.08 658.062C1048.44 661.484 1045.75 663.453 1042.14 663.453C1037.28 663.453 1033.98 659.844 1033.98 653C1033.98 646.344 1037.23 642.547 1042.19 642.547C1045.89 642.547 1048.56 644.688 1049.08 648.203H1055.92ZM1059.45 669H1066.22V658.625H1071.91C1079.27 658.625 1083.55 654.234 1083.55 647.844C1083.55 641.484 1079.34 637 1072.08 637H1059.45V669ZM1066.22 653.203V642.531H1070.78C1074.69 642.531 1076.58 644.656 1076.58 647.844C1076.58 651.016 1074.69 653.203 1070.81 653.203H1066.22ZM1106.39 637V657.203C1106.39 660.859 1103.82 663.5 1099.89 663.5C1095.96 663.5 1093.39 660.859 1093.39 657.203V637H1086.62V657.781C1086.62 664.781 1091.9 669.453 1099.89 669.453C1107.84 669.453 1113.15 664.781 1113.15 657.781V637H1106.39ZM762.656 714H769.313V700.422C769.313 697.469 771.469 695.438 774.406 695.438C775.328 695.438 776.594 695.594 777.219 695.797V689.891C776.625 689.75 775.797 689.656 775.125 689.656C772.438 689.656 770.234 691.219 769.359 694.187H769.109V690H762.656V714ZM789.16 714.469C795.098 714.469 799.098 711.578 800.035 707.125L793.879 706.719C793.207 708.547 791.489 709.5 789.27 709.5C785.942 709.5 783.832 707.297 783.832 703.719V703.703H800.176V701.875C800.176 693.719 795.239 689.688 788.895 689.688C781.832 689.688 777.254 694.703 777.254 702.109C777.254 709.719 781.77 714.469 789.16 714.469ZM783.832 699.578C783.973 696.844 786.051 694.656 789.004 694.656C791.895 694.656 793.895 696.719 793.91 699.578H783.832ZM823.169 696.844C822.575 692.422 819.012 689.688 812.95 689.688C806.809 689.688 802.762 692.531 802.778 697.156C802.762 700.75 805.028 703.078 809.715 704.016L813.872 704.844C815.965 705.266 816.919 706.031 816.95 707.234C816.919 708.656 815.372 709.672 813.044 709.672C810.669 709.672 809.09 708.656 808.684 706.703L802.137 707.047C802.762 711.641 806.669 714.469 813.028 714.469C819.247 714.469 823.7 711.297 823.715 706.562C823.7 703.094 821.434 701.016 816.778 700.062L812.434 699.187C810.2 698.703 809.372 697.937 809.387 696.781C809.372 695.344 810.997 694.406 813.059 694.406C815.372 694.406 816.747 695.672 817.075 697.219L823.169 696.844ZM837.524 714.469C843.462 714.469 847.462 711.578 848.399 707.125L842.243 706.719C841.571 708.547 839.853 709.5 837.634 709.5C834.306 709.5 832.196 707.297 832.196 703.719V703.703H848.54V701.875C848.54 693.719 843.603 689.688 837.259 689.688C830.196 689.688 825.618 694.703 825.618 702.109C825.618 709.719 830.134 714.469 837.524 714.469ZM832.196 699.578C832.337 696.844 834.415 694.656 837.368 694.656C840.259 694.656 842.259 696.719 842.274 699.578H832.196ZM851.564 714H858.22V700.422C858.22 697.469 860.376 695.438 863.314 695.438C864.236 695.438 865.501 695.594 866.126 695.797V689.891C865.533 689.75 864.704 689.656 864.033 689.656C861.345 689.656 859.142 691.219 858.267 694.187H858.017V690H851.564V714ZM891.353 690H884.306L879.338 707.172H879.088L874.103 690H867.072L875.463 714H882.963L891.353 690ZM903.56 714.469C909.498 714.469 913.498 711.578 914.435 707.125L908.279 706.719C907.607 708.547 905.889 709.5 903.67 709.5C900.342 709.5 898.232 707.297 898.232 703.719V703.703H914.576V701.875C914.576 693.719 909.639 689.688 903.295 689.688C896.232 689.688 891.654 694.703 891.654 702.109C891.654 709.719 896.17 714.469 903.56 714.469ZM898.232 699.578C898.373 696.844 900.451 694.656 903.404 694.656C906.295 694.656 908.295 696.719 908.31 699.578H898.232ZM926.444 714.391C930.319 714.391 932.334 712.156 933.256 710.156H933.537V714H940.1V682H933.459V694.031H933.256C932.365 692.078 930.444 689.688 926.428 689.688C921.162 689.688 916.709 693.781 916.709 702.031C916.709 710.062 920.975 714.391 926.444 714.391ZM928.553 709.094C925.287 709.094 923.506 706.187 923.506 702C923.506 697.844 925.256 694.984 928.553 694.984C931.787 694.984 933.6 697.719 933.6 702C933.6 706.281 931.756 709.094 928.553 709.094ZM965.882 690H961.366V684.25H954.71V690H951.429V695H954.71V707.5C954.679 712.203 957.882 714.531 962.71 714.328C964.429 714.266 965.647 713.922 966.319 713.703L965.272 708.75C964.944 708.812 964.241 708.969 963.616 708.969C962.288 708.969 961.366 708.469 961.366 706.625V695H965.882V690ZM979.484 714.469C986.765 714.469 991.296 709.484 991.296 702.094C991.296 694.656 986.765 689.688 979.484 689.688C972.202 689.688 967.671 694.656 967.671 702.094C967.671 709.484 972.202 714.469 979.484 714.469ZM979.515 709.312C976.155 709.312 974.437 706.234 974.437 702.047C974.437 697.859 976.155 694.766 979.515 694.766C982.812 694.766 984.53 697.859 984.53 702.047C984.53 706.234 982.812 709.312 979.515 709.312ZM1015.93 690H1011.42V684.25H1004.76V690H1001.48V695H1004.76V707.5C1004.73 712.203 1007.93 714.531 1012.76 714.328C1014.48 714.266 1015.7 713.922 1016.37 713.703L1015.32 708.75C1015 708.812 1014.29 708.969 1013.67 708.969C1012.34 708.969 1011.42 708.469 1011.42 706.625V695H1015.93V690ZM1026.12 700.125C1026.14 697.031 1028.03 695.219 1030.75 695.219C1033.45 695.219 1035.04 696.953 1035.03 699.906V714H1041.68V698.719C1041.7 693.094 1038.39 689.688 1033.39 689.688C1029.75 689.688 1027.31 691.406 1026.21 694.234H1025.93V682H1019.46V714H1026.12V700.125ZM1056.54 714.469C1062.48 714.469 1066.48 711.578 1067.41 707.125L1061.26 706.719C1060.59 708.547 1058.87 709.5 1056.65 709.5C1053.32 709.5 1051.21 707.297 1051.21 703.719V703.703H1067.56V701.875C1067.56 693.719 1062.62 689.688 1056.27 689.688C1049.21 689.688 1044.63 694.703 1044.63 702.109C1044.63 709.719 1049.15 714.469 1056.54 714.469ZM1051.21 699.578C1051.35 696.844 1053.43 694.656 1056.38 694.656C1059.27 694.656 1061.27 696.719 1061.29 699.578H1051.21ZM1108.97 698C1108.97 687.531 1102.47 681.562 1093.99 681.562C1085.46 681.562 1079.01 687.531 1079.01 698C1079.01 708.422 1085.46 714.437 1093.99 714.437C1102.47 714.437 1108.97 708.469 1108.97 698ZM1102.11 698C1102.11 704.781 1098.9 708.453 1093.99 708.453C1089.07 708.453 1085.86 704.781 1085.86 698C1085.86 691.219 1089.07 687.547 1093.99 687.547C1098.9 687.547 1102.11 691.219 1102.11 698ZM1130.02 691.203H1136.51C1136.42 685.5 1131.73 681.562 1124.6 681.562C1117.59 681.562 1112.45 685.437 1112.48 691.25C1112.46 695.969 1115.79 698.672 1121.2 699.969L1124.68 700.844C1128.17 701.687 1130.1 702.687 1130.12 704.844C1130.1 707.187 1127.88 708.781 1124.45 708.781C1120.93 708.781 1118.4 707.156 1118.18 703.953H1111.63C1111.81 710.875 1116.76 714.453 1124.52 714.453C1132.34 714.453 1136.93 710.719 1136.95 704.859C1136.93 699.531 1132.92 696.703 1127.35 695.453L1124.48 694.766C1121.7 694.125 1119.37 693.094 1119.42 690.797C1119.42 688.734 1121.24 687.219 1124.56 687.219C1127.79 687.219 1129.77 688.687 1130.02 691.203Z" fill="black"/>
</g>
<defs>
<clipPath id="clip0_14_7434">
<rect width="1200" height="900" fill="white"/>
</clipPath>
</defs>
</svg>
