<svg width="1200" height="900" viewBox="0 0 1200 900" fill="none" xmlns="http://www.w3.org/2000/svg">
<rect width="1200" height="900" fill="white"/>
<path d="M77.321 444V371.273H92.6974V431.322H123.876V444H77.321ZM155.789 445.065C150.272 445.065 145.502 443.893 141.477 441.55C137.476 439.182 134.387 435.892 132.209 431.678C130.031 427.44 128.942 422.527 128.942 416.94C128.942 411.306 130.031 406.382 132.209 402.168C134.387 397.93 137.476 394.639 141.477 392.295C145.502 389.928 150.272 388.744 155.789 388.744C161.305 388.744 166.063 389.928 170.064 392.295C174.089 394.639 177.19 397.93 179.368 402.168C181.546 406.382 182.635 411.306 182.635 416.94C182.635 422.527 181.546 427.44 179.368 431.678C177.19 435.892 174.089 439.182 170.064 441.55C166.063 443.893 161.305 445.065 155.789 445.065ZM155.86 433.347C158.369 433.347 160.464 432.636 162.145 431.216C163.826 429.772 165.092 427.807 165.945 425.321C166.821 422.835 167.259 420.006 167.259 416.834C167.259 413.661 166.821 410.832 165.945 408.347C165.092 405.861 163.826 403.896 162.145 402.452C160.464 401.008 158.369 400.286 155.86 400.286C153.326 400.286 151.196 401.008 149.467 402.452C147.763 403.896 146.473 405.861 145.597 408.347C144.744 410.832 144.318 413.661 144.318 416.834C144.318 420.006 144.744 422.835 145.597 425.321C146.473 427.807 147.763 429.772 149.467 431.216C151.196 432.636 153.326 433.347 155.86 433.347ZM199.233 444L184.389 389.455H199.695L208.146 426.102H208.643L217.45 389.455H232.472L241.42 425.889H241.882L250.192 389.455H265.462L250.653 444H234.638L225.263 409.696H224.588L215.213 444H199.233ZM326.392 420.776V389.455H341.519V444H326.995V434.092H326.427C325.196 437.288 323.148 439.857 320.284 441.798C317.443 443.74 313.975 444.71 309.879 444.71C306.233 444.71 303.025 443.882 300.255 442.224C297.485 440.567 295.319 438.212 293.757 435.158C292.218 432.104 291.437 428.446 291.413 424.185V389.455H306.541V421.486C306.564 424.705 307.429 427.25 309.133 429.121C310.838 430.991 313.122 431.926 315.987 431.926C317.81 431.926 319.514 431.512 321.1 430.683C322.687 429.831 323.965 428.576 324.936 426.919C325.93 425.262 326.415 423.214 326.392 420.776ZM380.001 389.455V400.818H347.153V389.455H380.001ZM354.611 376.386H369.738V427.239C369.738 428.635 369.951 429.724 370.378 430.506C370.804 431.263 371.396 431.796 372.153 432.104C372.934 432.411 373.834 432.565 374.852 432.565C375.562 432.565 376.272 432.506 376.983 432.388C377.693 432.246 378.237 432.139 378.616 432.068L380.996 443.325C380.238 443.562 379.173 443.834 377.799 444.142C376.426 444.473 374.757 444.675 372.792 444.746C369.147 444.888 365.951 444.402 363.204 443.29C360.482 442.177 358.363 440.449 356.848 438.105C355.333 435.761 354.587 432.802 354.611 429.227V376.386ZM387.224 444V389.455H402.352V444H387.224ZM394.823 382.423C392.574 382.423 390.645 381.678 389.035 380.186C387.449 378.671 386.656 376.86 386.656 374.753C386.656 372.67 387.449 370.882 389.035 369.391C390.645 367.875 392.574 367.118 394.823 367.118C397.073 367.118 398.99 367.875 400.576 369.391C402.186 370.882 402.991 372.67 402.991 374.753C402.991 376.86 402.186 378.671 400.576 380.186C398.99 381.678 397.073 382.423 394.823 382.423ZM426.966 371.273V444H411.839V371.273H426.966ZM436.453 444V389.455H451.581V444H436.453ZM444.052 382.423C441.803 382.423 439.874 381.678 438.264 380.186C436.678 378.671 435.885 376.86 435.885 374.753C435.885 372.67 436.678 370.882 438.264 369.391C439.874 367.875 441.803 367.118 444.052 367.118C446.302 367.118 448.219 367.875 449.805 369.391C451.415 370.882 452.22 372.67 452.22 374.753C452.22 376.86 451.415 378.671 449.805 380.186C448.219 381.678 446.302 382.423 444.052 382.423ZM460.783 444V434.98L487.488 401.919V401.528H461.707V389.455H505.705V399.291L480.634 431.536V431.926H506.629V444H460.783ZM531.119 445.03C527.639 445.03 524.537 444.426 521.815 443.219C519.092 441.988 516.938 440.177 515.352 437.786C513.789 435.371 513.008 432.364 513.008 428.766C513.008 425.735 513.564 423.19 514.677 421.131C515.79 419.071 517.305 417.414 519.223 416.159C521.14 414.904 523.318 413.957 525.757 413.318C528.219 412.679 530.799 412.229 533.498 411.969C536.67 411.637 539.227 411.33 541.169 411.045C543.11 410.738 544.518 410.288 545.394 409.696C546.27 409.104 546.708 408.228 546.708 407.068V406.855C546.708 404.606 545.998 402.866 544.578 401.635C543.181 400.404 541.192 399.788 538.612 399.788C535.889 399.788 533.723 400.392 532.113 401.599C530.503 402.783 529.438 404.275 528.917 406.074L514.926 404.938C515.636 401.623 517.033 398.759 519.116 396.344C521.199 393.905 523.886 392.035 527.177 390.733C530.491 389.407 534.327 388.744 538.683 388.744C541.713 388.744 544.613 389.099 547.383 389.81C550.177 390.52 552.651 391.621 554.805 393.112C556.983 394.604 558.699 396.521 559.954 398.865C561.209 401.185 561.836 403.967 561.836 407.21V444H547.49V436.436H547.063C546.188 438.141 545.016 439.644 543.548 440.946C542.08 442.224 540.316 443.231 538.257 443.964C536.197 444.675 533.818 445.03 531.119 445.03ZM535.451 434.589C537.677 434.589 539.642 434.152 541.346 433.276C543.051 432.376 544.388 431.169 545.359 429.653C546.33 428.138 546.815 426.422 546.815 424.504V418.716C546.341 419.024 545.69 419.308 544.862 419.568C544.057 419.805 543.145 420.03 542.127 420.243C541.109 420.432 540.091 420.61 539.073 420.776C538.055 420.918 537.132 421.048 536.304 421.166C534.528 421.427 532.977 421.841 531.652 422.409C530.326 422.977 529.296 423.747 528.562 424.717C527.828 425.664 527.461 426.848 527.461 428.268C527.461 430.328 528.207 431.902 529.698 432.991C531.214 434.057 533.131 434.589 535.451 434.589ZM599.954 389.455V400.818H567.106V389.455H599.954ZM574.563 376.386H589.691V427.239C589.691 428.635 589.904 429.724 590.33 430.506C590.756 431.263 591.348 431.796 592.106 432.104C592.887 432.411 593.787 432.565 594.805 432.565C595.515 432.565 596.225 432.506 596.935 432.388C597.646 432.246 598.19 432.139 598.569 432.068L600.948 443.325C600.191 443.562 599.125 443.834 597.752 444.142C596.379 444.473 594.71 444.675 592.745 444.746C589.099 444.888 585.903 444.402 583.157 443.29C580.435 442.177 578.316 440.449 576.801 438.105C575.285 435.761 574.54 432.802 574.563 429.227V376.386ZM607.177 444V389.455H622.305V444H607.177ZM614.776 382.423C612.527 382.423 610.598 381.678 608.988 380.186C607.402 378.671 606.609 376.86 606.609 374.753C606.609 372.67 607.402 370.882 608.988 369.391C610.598 367.875 612.527 367.118 614.776 367.118C617.025 367.118 618.943 367.875 620.529 369.391C622.139 370.882 622.944 372.67 622.944 374.753C622.944 376.86 622.139 378.671 620.529 380.186C618.943 381.678 617.025 382.423 614.776 382.423ZM656.436 445.065C650.92 445.065 646.15 443.893 642.125 441.55C638.124 439.182 635.035 435.892 632.857 431.678C630.679 427.44 629.59 422.527 629.59 416.94C629.59 411.306 630.679 406.382 632.857 402.168C635.035 397.93 638.124 394.639 642.125 392.295C646.15 389.928 650.92 388.744 656.436 388.744C661.952 388.744 666.711 389.928 670.712 392.295C674.736 394.639 677.838 397.93 680.016 402.168C682.194 406.382 683.283 411.306 683.283 416.94C683.283 422.527 682.194 427.44 680.016 431.678C677.838 435.892 674.736 439.182 670.712 441.55C666.711 443.893 661.952 445.065 656.436 445.065ZM656.507 433.347C659.017 433.347 661.112 432.636 662.793 431.216C664.474 429.772 665.74 427.807 666.592 425.321C667.468 422.835 667.906 420.006 667.906 416.834C667.906 413.661 667.468 410.832 666.592 408.347C665.74 405.861 664.474 403.896 662.793 402.452C661.112 401.008 659.017 400.286 656.507 400.286C653.974 400.286 651.843 401.008 650.115 402.452C648.411 403.896 647.12 405.861 646.244 408.347C645.392 410.832 644.966 413.661 644.966 416.834C644.966 420.006 645.392 422.835 646.244 425.321C647.12 427.807 648.411 429.772 650.115 431.216C651.843 432.636 653.974 433.347 656.507 433.347ZM705.616 412.466V444H690.488V389.455H704.905V399.078H705.545C706.752 395.906 708.776 393.396 711.617 391.55C714.458 389.679 717.903 388.744 721.951 388.744C725.739 388.744 729.041 389.573 731.859 391.23C734.676 392.887 736.866 395.255 738.428 398.332C739.991 401.386 740.772 405.032 740.772 409.27V444H725.644V411.969C725.668 408.631 724.815 406.027 723.087 404.156C721.359 402.262 718.98 401.315 715.949 401.315C713.913 401.315 712.114 401.753 710.552 402.629C709.013 403.505 707.806 404.784 706.93 406.464C706.077 408.122 705.639 410.122 705.616 412.466ZM770.576 464.455V389.455H785.491V398.616H786.166C786.829 397.149 787.787 395.657 789.042 394.142C790.32 392.603 791.978 391.325 794.014 390.307C796.073 389.265 798.63 388.744 801.684 388.744C805.661 388.744 809.331 389.786 812.693 391.869C816.054 393.929 818.741 397.042 820.754 401.209C822.766 405.352 823.772 410.548 823.772 416.798C823.772 422.883 822.79 428.02 820.825 432.21C818.883 436.377 816.232 439.537 812.87 441.692C809.532 443.822 805.792 444.888 801.649 444.888C798.713 444.888 796.215 444.402 794.156 443.432C792.12 442.461 790.451 441.242 789.149 439.774C787.847 438.283 786.852 436.779 786.166 435.264H785.704V464.455H770.576ZM785.384 416.727C785.384 419.971 785.834 422.8 786.734 425.214C787.633 427.629 788.936 429.511 790.64 430.861C792.345 432.187 794.416 432.849 796.855 432.849C799.317 432.849 801.4 432.175 803.105 430.825C804.809 429.452 806.099 427.558 806.975 425.143C807.875 422.705 808.325 419.9 808.325 416.727C808.325 413.579 807.887 410.809 807.011 408.418C806.135 406.027 804.845 404.156 803.14 402.807C801.436 401.457 799.34 400.783 796.855 400.783C794.392 400.783 792.309 401.434 790.605 402.736C788.924 404.038 787.633 405.884 786.734 408.276C785.834 410.667 785.384 413.484 785.384 416.727ZM855.871 445.065C850.355 445.065 845.584 443.893 841.56 441.55C837.559 439.182 834.469 435.892 832.291 431.678C830.113 427.44 829.024 422.527 829.024 416.94C829.024 411.306 830.113 406.382 832.291 402.168C834.469 397.93 837.559 394.639 841.56 392.295C845.584 389.928 850.355 388.744 855.871 388.744C861.387 388.744 866.145 389.928 870.146 392.295C874.171 394.639 877.272 397.93 879.45 402.168C881.628 406.382 882.717 411.306 882.717 416.94C882.717 422.527 881.628 427.44 879.45 431.678C877.272 435.892 874.171 439.182 870.146 441.55C866.145 443.893 861.387 445.065 855.871 445.065ZM855.942 433.347C858.451 433.347 860.546 432.636 862.227 431.216C863.908 429.772 865.175 427.807 866.027 425.321C866.903 422.835 867.341 420.006 867.341 416.834C867.341 413.661 866.903 410.832 866.027 408.347C865.175 405.861 863.908 403.896 862.227 402.452C860.546 401.008 858.451 400.286 855.942 400.286C853.409 400.286 851.278 401.008 849.55 402.452C847.845 403.896 846.555 405.861 845.679 408.347C844.827 410.832 844.401 413.661 844.401 416.834C844.401 420.006 844.827 422.835 845.679 425.321C846.555 427.807 847.845 429.772 849.55 431.216C851.278 432.636 853.409 433.347 855.942 433.347ZM905.05 371.273V444H889.922V371.273H905.05ZM914.537 444V389.455H929.665V444H914.537ZM922.136 382.423C919.887 382.423 917.958 381.678 916.348 380.186C914.762 378.671 913.969 376.86 913.969 374.753C913.969 372.67 914.762 370.882 916.348 369.391C917.958 367.875 919.887 367.118 922.136 367.118C924.385 367.118 926.303 367.875 927.889 369.391C929.499 370.882 930.304 372.67 930.304 374.753C930.304 376.86 929.499 378.671 927.889 380.186C926.303 381.678 924.385 382.423 922.136 382.423ZM963.796 445.065C958.209 445.065 953.403 443.882 949.379 441.514C945.378 439.123 942.3 435.809 940.146 431.571C938.015 427.333 936.95 422.456 936.95 416.94C936.95 411.353 938.027 406.453 940.181 402.239C942.359 398.001 945.449 394.698 949.45 392.331C953.451 389.94 958.209 388.744 963.725 388.744C968.484 388.744 972.65 389.608 976.225 391.337C979.8 393.065 982.629 395.491 984.713 398.616C986.796 401.741 987.944 405.411 988.157 409.625H973.882C973.479 406.902 972.414 404.713 970.686 403.055C968.981 401.375 966.744 400.534 963.974 400.534C961.63 400.534 959.582 401.173 957.83 402.452C956.102 403.706 954.753 405.541 953.782 407.956C952.811 410.371 952.326 413.295 952.326 416.727C952.326 420.207 952.8 423.167 953.747 425.605C954.717 428.044 956.079 429.902 957.83 431.18C959.582 432.459 961.63 433.098 963.974 433.098C965.702 433.098 967.253 432.743 968.626 432.033C970.023 431.322 971.171 430.293 972.07 428.943C972.994 427.57 973.597 425.925 973.882 424.007H988.157C987.92 428.174 986.784 431.843 984.748 435.016C982.736 438.164 979.954 440.626 976.403 442.402C972.852 444.178 968.65 445.065 963.796 445.065ZM1004.55 464.455C1002.63 464.455 1000.83 464.301 999.153 463.993C997.496 463.709 996.123 463.342 995.034 462.892L998.443 451.599C1000.22 452.144 1001.82 452.44 1003.24 452.487C1004.68 452.535 1005.92 452.203 1006.97 451.493C1008.03 450.783 1008.89 449.575 1009.56 447.871L1010.45 445.562L990.879 389.455H1006.79L1018.08 429.511H1018.65L1030.05 389.455H1046.06L1024.86 449.895C1023.85 452.83 1022.46 455.387 1020.71 457.565C1018.98 459.767 1016.79 461.46 1014.14 462.643C1011.49 463.851 1008.29 464.455 1004.55 464.455Z" fill="black"/>
<rect x="71" y="498" width="1038" height="19" fill="black"/>
</svg>
