<svg width="1200" height="900" viewBox="0 0 1200 900" fill="none" xmlns="http://www.w3.org/2000/svg">
<g clip-path="url(#clip0_14_7358)">
<path fill-rule="evenodd" clip-rule="evenodd" d="M553 166.6V733C553 740.511 546.906 746.6 539.39 746.6H60.61C53.095 746.6 47 740.511 47 733V166.6C47 159.089 53.094 153 60.61 153H539.39C546.905 153 553 159.089 553 166.6Z" fill="#D2D2D2"/>
<path fill-rule="evenodd" clip-rule="evenodd" d="M133.8 719.4H533.4V729.84H133.8V719.4ZM133.8 702.6H533.4V713.04H133.8V702.6ZM133.8 686.6H533.4V697.04H133.8V686.6ZM66.2002 171.4H533.4V181.8H66.2002V171.4Z" fill="#A3A3A3"/>
<path fill-rule="evenodd" clip-rule="evenodd" d="M71.6599 200.232H528.34C529.055 200.232 529.763 200.373 530.423 200.646C531.084 200.92 531.684 201.321 532.19 201.826C532.695 202.332 533.096 202.932 533.37 203.592C533.644 204.253 533.785 204.961 533.785 205.675V662.303C533.785 663.747 533.211 665.132 532.19 666.153C531.169 667.174 529.785 667.747 528.341 667.747H71.6588C70.215 667.747 68.8303 667.174 67.8094 666.153C66.7884 665.132 66.2148 663.747 66.2148 662.303V205.675C66.2151 204.232 66.7888 202.847 67.8097 201.827C68.8306 200.806 70.2152 200.232 71.6588 200.232H71.6599Z" fill="#FDDFE1"/>
<path d="M91.6749 683.719C91.2165 683.746 90.7683 683.865 90.3569 684.069L72.5109 692.578C72.0513 692.797 71.6471 693.117 71.3285 693.514C71.0099 693.911 70.7851 694.375 70.6709 694.871L66.3009 713.975C66.1966 714.418 66.1854 714.879 66.268 715.327C66.3506 715.776 66.5252 716.202 66.7809 716.58C66.8429 716.673 66.9069 716.762 66.9739 716.849L79.3039 732.177C79.9549 732.977 80.9339 733.437 81.9649 733.433H101.741C102.251 733.43 102.754 733.315 103.215 733.095C103.675 732.876 104.082 732.557 104.405 732.163L116.729 716.831C117.375 716.031 117.617 714.974 117.369 713.971L112.972 694.853C112.857 694.357 112.632 693.893 112.313 693.496C111.995 693.099 111.591 692.779 111.132 692.56L93.3129 684.07C92.7994 683.817 92.2308 683.696 91.6588 683.72L91.6749 683.719Z" fill="#4A4A4A"/>
<path d="M91.838 690.229C91.224 690.272 90.758 690.799 90.79 691.414V691.714C90.818 692.056 90.87 692.394 90.937 692.728C91.035 693.368 91.071 694.018 91.043 694.666C90.9814 694.879 90.86 695.071 90.693 695.218L90.67 695.669C90.021 695.723 89.377 695.822 88.743 695.966C86.0741 696.568 83.6461 697.953 81.771 699.945L81.387 699.674C81.2824 699.705 81.1727 699.716 81.0641 699.705C80.9555 699.694 80.8501 699.661 80.754 699.609C80.2343 699.225 79.7534 698.79 79.318 698.312C79.0991 698.051 78.8654 697.802 78.618 697.568L78.381 697.38C78.1701 697.21 77.911 697.112 77.641 697.099C77.4796 697.091 77.3185 697.121 77.1708 697.186C77.023 697.252 76.8929 697.351 76.791 697.477C76.6173 697.72 76.5473 698.022 76.5962 698.317C76.6451 698.612 76.809 698.876 77.052 699.051L77.273 699.227C77.558 699.417 77.853 699.589 78.157 699.744C78.7279 700.059 79.2636 700.434 79.755 700.864C79.882 701.046 79.956 701.258 79.968 701.479L80.318 701.799C78.4335 704.628 77.659 708.052 78.143 711.416L77.694 711.544C77.5779 711.729 77.4218 711.886 77.237 712.004C76.6115 712.171 75.9711 712.277 75.325 712.32C74.982 712.327 74.6398 712.354 74.3 712.401L74.016 712.465H73.986C73.7894 712.492 73.6043 712.573 73.4512 712.7C73.2981 712.826 73.1831 712.992 73.1188 713.18C73.0546 713.368 73.0437 713.57 73.0873 713.763C73.1309 713.957 73.2274 714.134 73.366 714.276C73.651 714.564 74.076 714.667 74.461 714.541H74.481L74.771 714.508C75.0966 714.411 75.4162 714.294 75.728 714.159C76.3289 713.918 76.9518 713.736 77.588 713.616C77.809 713.629 78.021 713.703 78.2 713.831L78.68 713.752C79.7204 716.981 81.9084 719.717 84.83 721.442L84.634 721.849C84.724 722.037 84.757 722.246 84.73 722.452C84.4652 723.064 84.1417 723.65 83.764 724.201C83.5568 724.474 83.3654 724.758 83.191 725.054L83.055 725.341C82.9563 725.513 82.9068 725.708 82.9121 725.906C82.9173 726.103 82.977 726.295 83.0845 726.461C83.1921 726.627 83.3434 726.76 83.5217 726.845C83.7 726.93 83.8984 726.965 84.095 726.945C84.498 726.9 84.84 726.632 84.981 726.253L85.114 725.981C85.236 725.661 85.338 725.334 85.422 725.005C85.705 724.305 85.859 723.554 86.246 723.09C86.3725 722.97 86.5321 722.892 86.704 722.865L86.944 722.427C90.1102 723.644 93.6138 723.653 96.786 722.452L96.999 722.861C97.2165 722.894 97.4121 723.012 97.543 723.189C97.844 723.762 98.088 724.362 98.273 724.982C98.358 725.314 98.463 725.641 98.584 725.96L98.717 726.232C98.787 726.417 98.9067 726.58 99.063 726.701C99.2193 726.822 99.4061 726.898 99.6027 726.919C99.7992 726.941 99.998 726.908 100.177 726.824C100.356 726.74 100.508 726.608 100.617 726.443C100.837 726.103 100.847 725.669 100.643 725.32L100.503 725.031C100.329 724.737 100.138 724.454 99.931 724.182C99.563 723.646 99.2418 723.079 98.971 722.489C98.9452 722.38 98.9414 722.267 98.96 722.158C98.9785 722.048 99.019 721.943 99.079 721.849C99.0106 721.709 98.9511 721.565 98.901 721.419C101.816 719.68 103.994 716.935 105.023 713.701L105.477 713.781C105.64 713.632 105.855 713.553 106.075 713.56C106.71 713.682 107.333 713.88 107.935 714.104C108.248 714.248 108.568 714.37 108.893 714.473C108.97 714.493 109.083 714.51 109.168 714.531H109.189C109.378 714.593 109.58 714.6 109.773 714.553C109.966 714.506 110.142 714.406 110.282 714.265C110.422 714.123 110.519 713.946 110.564 713.753C110.609 713.559 110.599 713.357 110.536 713.169C110.471 712.981 110.356 712.814 110.202 712.688C110.048 712.562 109.863 712.481 109.666 712.455L109.356 712.382C109.015 712.335 108.673 712.308 108.329 712.302C107.683 712.26 107.042 712.154 106.417 711.986C106.224 711.877 106.065 711.718 105.957 711.525L105.524 711.396C105.985 708.034 105.195 704.62 103.304 701.802L103.682 701.452C103.667 701.231 103.739 701.014 103.882 700.846C104.373 700.425 104.903 700.052 105.466 699.732C105.771 699.577 106.066 699.405 106.35 699.216L106.584 699.026C106.713 698.946 106.824 698.84 106.909 698.714C106.994 698.588 107.052 698.446 107.078 698.297C107.104 698.147 107.098 697.994 107.06 697.847C107.023 697.7 106.954 697.562 106.86 697.444C106.765 697.325 106.646 697.228 106.511 697.158C106.376 697.089 106.228 697.049 106.077 697.041C105.925 697.033 105.774 697.057 105.632 697.112C105.491 697.167 105.362 697.251 105.256 697.359L105.019 697.549C104.772 697.784 104.538 698.032 104.319 698.294C103.897 698.777 103.429 699.218 102.922 699.611C102.717 699.694 102.493 699.718 102.275 699.681L101.87 699.971C99.531 697.519 96.3816 695.999 93.007 695.695C93.007 695.535 92.987 695.294 92.983 695.219C92.801 695.095 92.6753 694.904 92.633 694.688C92.611 694.041 92.6518 693.395 92.755 692.757C92.825 692.42 92.872 692.083 92.903 691.742V691.422C92.9186 691.127 92.8173 690.837 92.6208 690.615C92.4243 690.393 92.1485 690.258 91.853 690.237L91.839 690.229L91.838 690.229ZM90.503 698.499L90.183 704.093H90.159C90.1492 704.262 90.0948 704.426 90.0014 704.568C89.908 704.709 89.7788 704.824 89.627 704.9C89.475 704.977 89.3043 705.01 89.1344 704.994C88.9646 704.979 88.8025 704.916 88.667 704.812L84.079 701.562C85.5395 700.128 87.3717 699.131 89.369 698.682C89.7427 698.603 90.1201 698.542 90.5 698.5H90.503V698.499ZM93.173 698.499C95.583 698.799 97.827 699.881 99.563 701.578L95.019 704.809C94.8814 704.919 94.7157 704.988 94.5406 705.009C94.3655 705.029 94.1882 705 94.0289 704.925C93.8695 704.849 93.7346 704.731 93.6395 704.582C93.5444 704.434 93.4929 704.262 93.491 704.086L93.174 698.5L93.173 698.499ZM82.413 703.667L86.609 707.409V707.434C86.7367 707.546 86.8317 707.69 86.884 707.852C86.9363 708.013 86.9439 708.186 86.906 708.352C86.868 708.517 86.786 708.67 86.6686 708.793C86.5512 708.915 86.4027 709.004 86.239 709.049V709.065L80.855 710.614C80.5884 708.188 81.1372 705.743 82.415 703.664L82.413 703.667ZM101.233 703.667C102.508 705.74 103.071 708.172 102.838 710.594L97.446 709.042V709.021C97.2816 708.976 97.1324 708.888 97.0147 708.765C96.8969 708.642 96.8151 708.49 96.778 708.323C96.7405 708.158 96.7484 707.985 96.8008 707.823C96.8533 707.661 96.9483 707.516 97.076 707.404L101.239 703.68L101.233 703.667ZM90.979 707.702H92.695L93.745 709.034L93.363 710.698L91.821 711.439L90.276 710.698L89.912 709.034L90.979 707.702ZM96.477 712.245C96.5487 712.237 96.6212 712.237 96.693 712.245L102.245 713.182C101.433 715.491 99.8684 717.461 97.802 718.775L95.656 713.581C95.5971 713.441 95.5726 713.29 95.5844 713.139C95.5962 712.988 95.6441 712.842 95.724 712.714C95.8038 712.585 95.9133 712.478 96.0433 712.401C96.1733 712.323 96.32 712.278 96.471 712.27L96.477 712.245ZM87.153 712.27C87.3074 712.272 87.4588 712.313 87.594 712.387C87.7291 712.462 87.8438 712.569 87.928 712.698C88.0119 712.828 88.0627 712.976 88.0758 713.129C88.0889 713.283 88.0639 713.437 88.003 713.578V713.599L85.871 718.752C83.8296 717.443 82.2771 715.497 81.454 713.216L86.958 712.284C87.0198 712.277 87.0821 712.277 87.144 712.284L87.154 712.27H87.153ZM91.803 714.51C92.16 714.5 92.493 714.69 92.663 715.004H92.683L95.396 719.898L94.312 720.219C92.3163 720.675 90.2331 720.568 88.295 719.909L91.017 715.013C91.0983 714.872 91.2146 714.755 91.3548 714.672C91.495 714.589 91.6542 714.544 91.817 714.541L91.803 714.51V714.51Z" fill="white" stroke="white" stroke-width="0.5"/>
<path d="M66 225H534V663C534 664.326 533.473 665.598 532.536 666.536C531.598 667.473 530.326 668 529 668H71C69.6739 668 68.4021 667.473 67.4645 666.536C66.5268 665.598 66 664.326 66 663V225Z" fill="#EFFFBD"/>
<path d="M66 508H534V663C534 664.326 533.473 665.598 532.536 666.536C531.598 667.473 530.326 668 529 668H71C69.6739 668 68.4021 667.473 67.4645 666.536C66.5268 665.598 66 664.326 66 663V508Z" fill="#66E8FF"/>
<path d="M66 618H534V660C534 662.122 533.157 664.157 531.657 665.657C530.157 667.157 528.122 668 526 668H74C71.8783 668 69.8434 667.157 68.3431 665.657C66.8429 664.157 66 662.122 66 660V618Z" fill="#00A8C6"/>
<path fill-rule="evenodd" clip-rule="evenodd" d="M89 303H131V345H89V303ZM152 303H194V345H152V303ZM215 303H257V345H215V303ZM279 303H321V345H279V303ZM342 303H384V345H342V303ZM89 240H131V282H89V240ZM152 240H194V282H152V240ZM215 240H257V282H215V240ZM279 240H321V282H279V240ZM342 240H384V282H342V240ZM406 303H448V345H406V303ZM406 240H448V282H406V240ZM469 303H511V345H469V303ZM469 240H511V282H469V240ZM89 366H131V408H89V366ZM152 366H194V408H152V366ZM215 366H257V408H215V366Z" fill="#8FBE00"/>
<path d="M599 617.613C603.24 617.613 606.92 617.213 610.043 616.41C613.165 615.608 615.743 614.305 617.777 612.5C619.811 610.695 621.322 608.296 622.311 605.303C623.299 602.309 623.793 598.621 623.793 594.238V582.863C623.793 578.28 624.753 574.986 626.672 572.98C628.592 570.975 631.972 569.973 636.812 569.973V557.598C631.972 557.598 628.592 556.602 626.672 554.611C624.752 552.621 623.793 549.319 623.793 544.707V531.375C623.793 526.992 623.299 523.304 622.311 520.311C621.322 517.317 619.811 514.918 617.777 513.113C615.743 511.309 613.165 510.005 610.043 509.203C606.921 508.401 603.24 508 599 508V518.184C602.323 518.184 604.915 518.671 606.777 519.644C608.639 520.618 609.936 522.13 610.666 524.178C611.396 526.226 611.762 528.84 611.762 532.02V548.66C611.762 550.866 612.092 552.907 612.75 554.783C613.409 556.66 614.626 558.285 616.402 559.66C618.178 561.035 620.714 562.11 624.008 562.883C624.294 562.95 624.588 563.014 624.889 563.076L624.909 563.081V564.516L624.889 564.52C624.739 564.55 624.589 564.58 624.443 564.612L624.008 564.709C620.714 565.469 618.178 566.542 616.402 567.932C614.626 569.321 613.409 570.954 612.75 572.83C612.091 574.706 611.762 576.747 611.762 578.953V593.593C611.762 596.745 611.396 599.344 610.666 601.393C609.936 603.441 608.639 604.959 606.777 605.947C604.915 606.936 602.323 607.43 599 607.43V617.613ZM599 727.613C603.24 727.613 606.92 727.213 610.043 726.41C613.165 725.608 615.743 724.305 617.777 722.5C619.811 720.695 621.322 718.296 622.311 715.303C623.299 712.309 623.793 708.621 623.793 704.238V692.863C623.793 688.28 624.753 684.986 626.672 682.98C628.592 680.975 631.972 679.973 636.812 679.973V667.598C631.972 667.598 628.592 666.602 626.672 664.611C624.752 662.621 623.793 659.319 623.793 654.707V641.375C623.793 636.992 623.299 633.304 622.311 630.311C621.322 627.317 619.811 624.918 617.777 623.113C615.743 621.309 613.165 620.005 610.043 619.203C606.921 618.401 603.24 618 599 618V628.184C602.323 628.184 604.915 628.671 606.777 629.644C608.639 630.618 609.936 632.13 610.666 634.178C611.396 636.226 611.762 638.84 611.762 642.02V658.66C611.762 660.866 612.092 662.907 612.75 664.783C613.409 666.66 614.626 668.285 616.402 669.66C618.178 671.035 620.714 672.11 624.008 672.883C624.294 672.95 624.588 673.014 624.889 673.076L624.909 673.081V674.516L624.889 674.52C624.739 674.55 624.589 674.58 624.443 674.612L624.008 674.709C620.714 675.469 618.178 676.542 616.402 677.932C614.626 679.321 613.409 680.954 612.75 682.83C612.091 684.706 611.762 686.747 611.762 688.953V703.593C611.762 706.745 611.396 709.344 610.666 711.393C609.936 713.441 608.639 714.959 606.777 715.947C604.915 716.936 602.323 717.43 599 717.43V727.613ZM599 506.613C603.24 506.613 606.92 506.213 610.043 505.41C613.165 504.608 615.743 503.305 617.777 501.5C619.811 499.695 621.322 497.296 622.311 494.303C623.299 491.309 623.793 487.621 623.793 483.238V367.863C623.793 363.28 624.753 359.986 626.672 357.98C628.592 355.975 631.972 354.973 636.812 354.973V342.598C631.972 342.598 628.592 341.602 626.672 339.611C624.752 337.621 623.793 334.319 623.793 329.707V264.375C623.793 259.992 623.299 256.304 622.311 253.311C621.322 250.317 619.811 247.918 617.777 246.113C615.743 244.309 613.165 243.005 610.043 242.203C606.921 241.401 603.24 241 599 241V251.184C602.323 251.184 604.915 251.671 606.777 252.644C608.639 253.618 609.936 255.13 610.666 257.178C611.396 259.226 611.762 261.84 611.762 265.02V333.66C611.762 335.866 612.092 337.907 612.75 339.783C613.409 341.66 614.626 343.285 616.402 344.66C618.178 346.035 620.714 347.11 624.008 347.883C624.294 347.95 624.588 348.014 624.889 348.076L624.909 348.081V349.516L624.889 349.52C624.739 349.55 624.589 349.58 624.443 349.612L624.008 349.709C620.714 350.469 618.178 351.542 616.402 352.932C614.626 354.321 613.409 355.954 612.75 357.83C612.091 359.706 611.762 361.747 611.762 363.953V482.593C611.762 485.745 611.396 488.344 610.666 490.393C609.936 492.441 608.639 493.959 606.777 494.947C604.915 495.936 602.323 496.43 599 496.43V506.613Z" fill="#B5B5B5" fill-opacity="0.85"/>
<path d="M24 225L636.5 225.5" stroke="black" stroke-width="11" stroke-dasharray="30 30"/>
<path fill-rule="evenodd" clip-rule="evenodd" d="M735.17 226.585C735.17 230.864 734.327 235.101 732.69 239.055C731.052 243.008 728.652 246.6 725.626 249.626C722.6 252.652 719.008 255.052 715.055 256.69C711.101 258.327 706.864 259.17 702.585 259.17C698.306 259.17 694.069 258.327 690.115 256.69C686.162 255.052 682.57 252.652 679.544 249.626C676.518 246.6 674.118 243.008 672.48 239.055C670.843 235.101 670 230.864 670 226.585C670 222.306 670.843 218.069 672.48 214.115C674.118 210.162 676.518 206.57 679.544 203.544C682.57 200.518 686.162 198.118 690.115 196.48C694.069 194.843 698.306 194 702.585 194C706.864 194 711.101 194.843 715.055 196.48C719.008 198.118 722.6 200.518 725.626 203.544C728.652 206.57 731.052 210.162 732.69 214.115C734.327 218.069 735.17 222.306 735.17 226.585Z" fill="#688A00"/>
<path d="M700.802 212.42H707.53V239.33H700.224V219.148H700.067L694.18 222.67V216.469L700.802 212.422V212.42Z" fill="white"/>
<path fill-rule="evenodd" clip-rule="evenodd" d="M735.17 348.585C735.17 352.864 734.327 357.101 732.69 361.055C731.052 365.008 728.652 368.6 725.626 371.626C722.6 374.652 719.008 377.052 715.055 378.69C711.101 380.327 706.864 381.17 702.585 381.17C698.306 381.17 694.069 380.327 690.115 378.69C686.162 377.052 682.57 374.652 679.544 371.626C676.518 368.6 674.118 365.008 672.48 361.055C670.843 357.101 670 352.864 670 348.585C670 344.306 670.843 340.069 672.48 336.115C674.118 332.162 676.518 328.57 679.544 325.544C682.57 322.518 686.162 320.118 690.115 318.48C694.069 316.843 698.306 316 702.585 316C706.864 316 711.101 316.843 715.055 318.48C719.008 320.118 722.6 322.518 725.626 325.544C728.652 328.57 731.052 332.162 732.69 336.115C734.327 340.069 735.17 344.306 735.17 348.585Z" fill="#688A00"/>
<path d="M713.079 361.33H692.424V356.074L702.462 347.77C703.128 347.218 703.7 346.699 704.177 346.213C704.654 345.727 705.022 345.225 705.281 344.709C705.539 344.192 705.668 343.618 705.668 342.988C705.668 342.296 705.521 341.704 705.228 341.214C704.935 340.723 704.53 340.344 704.013 340.077C703.496 339.81 702.9 339.677 702.226 339.677C701.551 339.677 700.958 339.812 700.446 340.084C699.933 340.355 699.536 340.754 699.256 341.28C698.976 341.805 698.836 342.444 698.836 343.198H691.898C691.898 341.306 692.323 339.676 693.173 338.31C694.022 336.943 695.222 335.892 696.773 335.157C698.324 334.421 700.141 334.053 702.226 334.053C704.381 334.053 706.249 334.396 707.83 335.084C709.411 335.772 710.632 336.738 711.495 337.982C712.358 339.225 712.79 340.683 712.79 342.357C712.79 343.39 712.575 344.417 712.146 345.438C711.717 346.458 710.946 347.585 709.833 348.821C708.721 350.056 707.14 351.528 705.09 353.236L702.567 355.339V355.496H713.08V361.33H713.079Z" fill="white"/>
<path fill-rule="evenodd" clip-rule="evenodd" d="M735.17 557.585C735.17 561.864 734.327 566.101 732.69 570.055C731.052 574.008 728.652 577.6 725.626 580.626C722.6 583.652 719.008 586.052 715.055 587.69C711.101 589.327 706.864 590.17 702.585 590.17C698.306 590.17 694.069 589.327 690.115 587.69C686.162 586.052 682.57 583.652 679.544 580.626C676.518 577.6 674.118 574.008 672.48 570.055C670.843 566.101 670 561.864 670 557.585C670 553.306 670.843 549.069 672.48 545.115C674.118 541.162 676.518 537.57 679.544 534.544C682.57 531.518 686.162 529.118 690.115 527.48C694.069 525.843 698.306 525 702.585 525C706.864 525 711.101 525.843 715.055 527.48C719.008 529.118 722.6 531.518 725.626 534.544C728.652 537.57 731.052 541.162 732.69 545.115C734.327 549.069 735.17 553.306 735.17 557.585Z" fill="#688A00"/>
<path d="M702.407 570.698C700.287 570.698 698.406 570.332 696.764 569.601C695.121 568.869 693.831 567.86 692.894 566.572C691.957 565.284 691.484 563.804 691.475 562.132H698.833C698.842 562.648 699.002 563.109 699.313 563.517C699.624 563.924 700.051 564.242 700.594 564.47C701.137 564.698 701.759 564.812 702.46 564.812C703.135 564.812 703.73 564.691 704.247 564.45C704.764 564.209 705.167 563.874 705.456 563.445C705.745 563.015 705.885 562.525 705.876 561.973C705.885 561.43 705.72 560.948 705.383 560.528C705.046 560.108 704.575 559.779 703.971 559.543C703.366 559.306 702.67 559.188 701.881 559.188H699.15V554.142H701.883C702.61 554.142 703.251 554.024 703.808 553.788C704.364 553.551 704.797 553.222 705.108 552.802C705.419 552.382 705.571 551.9 705.562 551.357C705.571 550.831 705.444 550.367 705.181 549.964C704.918 549.561 704.552 549.246 704.084 549.018C703.615 548.79 703.074 548.677 702.461 548.677C701.795 548.677 701.202 548.795 700.681 549.031C700.16 549.267 699.75 549.596 699.452 550.017C699.154 550.437 699.001 550.918 698.992 551.462H692.002C692.011 549.815 692.464 548.361 693.362 547.1C694.26 545.838 695.493 544.848 697.061 544.13C698.629 543.412 700.429 543.053 702.461 543.053C704.449 543.053 706.207 543.39 707.736 544.065C709.265 544.739 710.46 545.665 711.323 546.844C712.186 548.022 712.613 549.368 712.604 550.884C712.622 552.39 712.107 553.625 711.06 554.589C710.013 555.553 708.689 556.122 707.086 556.297V556.507C709.258 556.743 710.891 557.407 711.986 558.498C713.081 559.588 713.62 560.957 713.603 562.604C713.612 564.18 713.141 565.578 712.19 566.796C711.24 568.013 709.922 568.968 708.236 569.66C706.549 570.352 704.607 570.698 702.408 570.698H702.407Z" fill="white"/>
<path fill-rule="evenodd" clip-rule="evenodd" d="M735.17 674.585C735.17 678.864 734.327 683.101 732.69 687.055C731.052 691.008 728.652 694.6 725.626 697.626C722.6 700.652 719.008 703.052 715.055 704.69C711.101 706.327 706.864 707.17 702.585 707.17C698.306 707.17 694.069 706.327 690.115 704.69C686.162 703.052 682.57 700.652 679.544 697.626C676.518 694.6 674.118 691.008 672.48 687.055C670.843 683.101 670 678.864 670 674.585C670 670.306 670.843 666.069 672.48 662.115C674.118 658.162 676.518 654.57 679.544 651.544C682.57 648.518 686.162 646.118 690.115 644.48C694.069 642.843 698.306 642 702.585 642C706.864 642 711.101 642.843 715.055 644.48C719.008 646.118 722.6 648.518 725.626 651.544C728.652 654.57 731.052 658.162 732.69 662.115C734.327 666.069 735.17 670.306 735.17 674.585Z" fill="#688A00"/>
<path d="M714.309 683.126H691.13V677.451L701.957 660.423H707.107V667.991H704.164L698.33 677.241V677.451H714.31V683.127L714.309 683.126ZM711.208 687.331H704.218V681.392L704.375 678.922V660.422H711.208V687.331Z" fill="white"/>
<path d="M384.034 427H391.415V415.682H397.619C405.648 415.682 410.318 410.892 410.318 403.92C410.318 396.983 405.733 392.091 397.807 392.091H384.034V427ZM391.415 409.767V398.125H396.392C400.653 398.125 402.716 400.443 402.716 403.92C402.716 407.381 400.653 409.767 396.426 409.767H391.415ZM424.944 427.511C432.887 427.511 437.83 422.074 437.83 414.011C437.83 405.898 432.887 400.477 424.944 400.477C417 400.477 412.057 405.898 412.057 414.011C412.057 422.074 417 427.511 424.944 427.511ZM424.978 421.886C421.313 421.886 419.438 418.528 419.438 413.96C419.438 409.392 421.313 406.017 424.978 406.017C428.574 406.017 430.449 409.392 430.449 413.96C430.449 418.528 428.574 421.886 424.978 421.886ZM450.759 427.426C454.986 427.426 457.185 424.989 458.191 422.807H458.498V427H465.657V392.091H458.413V405.216H458.191C457.219 403.085 455.123 400.477 450.742 400.477C444.998 400.477 440.14 404.943 440.14 413.943C440.14 422.705 444.793 427.426 450.759 427.426ZM453.06 421.648C449.498 421.648 447.555 418.477 447.555 413.909C447.555 409.375 449.464 406.256 453.06 406.256C456.589 406.256 458.566 409.239 458.566 413.909C458.566 418.58 456.555 421.648 453.06 421.648ZM491.971 408.284C491.323 403.46 487.437 400.477 480.823 400.477C474.125 400.477 469.71 403.58 469.727 408.625C469.71 412.545 472.181 415.085 477.295 416.108L481.829 417.011C484.113 417.472 485.153 418.307 485.187 419.619C485.153 421.17 483.466 422.278 480.926 422.278C478.335 422.278 476.613 421.17 476.17 419.04L469.028 419.415C469.71 424.426 473.971 427.511 480.909 427.511C487.693 427.511 492.551 424.051 492.568 418.886C492.551 415.102 490.079 412.835 485 411.795L480.261 410.841C477.823 410.312 476.92 409.477 476.937 408.216C476.92 406.648 478.693 405.625 480.943 405.625C483.466 405.625 484.966 407.006 485.323 408.693L491.971 408.284Z" fill="black"/>
<path d="M213.034 578H220.415V568.08L224.045 563.648L233.608 578H242.438L229.33 558.722L242.284 543.091H233.438L220.875 558.483H220.415V543.091H213.034V578ZM259.701 566.852C259.718 570.364 257.314 572.205 254.706 572.205C251.962 572.205 250.189 570.278 250.172 567.193V551.818H242.911V568.489C242.928 574.608 246.507 578.341 251.774 578.341C255.712 578.341 258.542 576.312 259.718 573.244H259.99V578H266.962V551.818H259.701V566.852ZM271.467 578H278.626V573.807H278.95C279.955 575.989 282.154 578.426 286.381 578.426C292.347 578.426 297.001 573.705 297.001 564.943C297.001 555.943 292.143 551.477 286.398 551.477C282.018 551.477 279.921 554.085 278.95 556.216H278.728V543.091H271.467V578ZM278.575 564.909C278.575 560.239 280.552 557.256 284.08 557.256C287.677 557.256 289.586 560.375 289.586 564.909C289.586 569.477 287.643 572.648 284.08 572.648C280.586 572.648 278.575 569.58 278.575 564.909ZM312.338 578.511C318.815 578.511 323.179 575.358 324.201 570.5L317.485 570.057C316.752 572.051 314.877 573.091 312.457 573.091C308.826 573.091 306.525 570.688 306.525 566.784V566.767H324.355V564.773C324.355 555.875 318.968 551.477 312.048 551.477C304.343 551.477 299.349 556.949 299.349 565.028C299.349 573.33 304.275 578.511 312.338 578.511ZM306.525 562.267C306.679 559.284 308.946 556.898 312.167 556.898C315.321 556.898 317.502 559.148 317.519 562.267H306.525ZM334.915 543.091H327.653V578H334.915V543.091ZM351.223 578.511C357.701 578.511 362.064 575.358 363.087 570.5L356.371 570.057C355.638 572.051 353.763 573.091 351.343 573.091C347.712 573.091 345.411 570.688 345.411 566.784V566.767H363.24V564.773C363.24 555.875 357.854 551.477 350.934 551.477C343.229 551.477 338.235 556.949 338.235 565.028C338.235 573.33 343.161 578.511 351.223 578.511ZM345.411 562.267C345.564 559.284 347.831 556.898 351.053 556.898C354.206 556.898 356.388 559.148 356.405 562.267H345.411ZM380.465 551.818H375.539V545.545H368.278V551.818H364.698V557.273H368.278V570.909C368.244 576.04 371.738 578.58 377.005 578.358C378.88 578.29 380.209 577.915 380.942 577.676L379.8 572.273C379.442 572.341 378.675 572.511 377.994 572.511C376.545 572.511 375.539 571.966 375.539 569.955V557.273H380.465V551.818Z" fill="black"/>
<path d="M201.483 646.818C201.483 640.156 197.347 636.358 191.947 636.358C186.518 636.358 182.412 640.156 182.412 646.818C182.412 653.45 186.518 657.278 191.947 657.278C197.347 657.278 201.483 653.48 201.483 646.818ZM197.118 646.818C197.118 651.134 195.07 653.47 191.947 653.47C188.815 653.47 186.777 651.134 186.777 646.818C186.777 642.503 188.815 640.166 191.947 640.166C195.07 640.166 197.118 642.503 197.118 646.818ZM204.033 662.727H208.268V654.554H208.398C208.984 655.827 210.267 657.249 212.733 657.249C216.213 657.249 218.928 654.494 218.928 649.384C218.928 644.134 216.094 641.528 212.743 641.528C210.188 641.528 208.965 643.05 208.398 644.293H208.209V641.727H204.033V662.727ZM208.179 649.364C208.179 646.639 209.332 644.899 211.391 644.899C213.489 644.899 214.602 646.719 214.602 649.364C214.602 652.028 213.469 653.878 211.391 653.878C209.352 653.878 208.179 652.088 208.179 649.364ZM228.152 657.298C231.93 657.298 234.476 655.459 235.072 652.625L231.155 652.366C230.727 653.53 229.633 654.136 228.221 654.136C226.103 654.136 224.761 652.734 224.761 650.457V650.447H235.162V649.284C235.162 644.094 232.02 641.528 227.983 641.528C223.488 641.528 220.575 644.72 220.575 649.433C220.575 654.276 223.449 657.298 228.152 657.298ZM224.761 647.822C224.851 646.082 226.173 644.69 228.052 644.69C229.892 644.69 231.164 646.003 231.174 647.822H224.761ZM237.366 657H241.602V648.359C241.602 646.48 242.974 645.188 244.843 645.188C245.43 645.188 246.235 645.287 246.633 645.416V641.658C246.255 641.568 245.728 641.509 245.3 641.509C243.59 641.509 242.188 642.503 241.631 644.392H241.472V641.727H237.366V657ZM252.18 657.288C254.438 657.288 255.899 656.304 256.645 654.882H256.764V657H260.781V646.699C260.781 643.06 257.699 641.528 254.298 641.528C250.639 641.528 248.233 643.278 247.646 646.062L251.564 646.381C251.852 645.366 252.757 644.621 254.278 644.621C255.72 644.621 256.546 645.347 256.546 646.599V646.659C256.546 647.643 255.501 647.773 252.847 648.031C249.824 648.31 247.109 649.324 247.109 652.734C247.109 655.757 249.267 657.288 252.18 657.288ZM253.394 654.365C252.091 654.365 251.156 653.759 251.156 652.595C251.156 651.402 252.141 650.815 253.632 650.607C254.557 650.477 256.068 650.259 256.575 649.92V651.541C256.575 653.142 255.253 654.365 253.394 654.365ZM271.631 641.727H268.758V638.068H264.522V641.727H262.434V644.909H264.522V652.864C264.502 655.857 266.54 657.338 269.613 657.209C270.706 657.169 271.482 656.95 271.91 656.811L271.243 653.659C271.035 653.699 270.587 653.798 270.189 653.798C269.344 653.798 268.758 653.48 268.758 652.307V644.909H271.631V641.727ZM273.83 657H278.066V641.727H273.83V657ZM275.958 639.759C277.221 639.759 278.255 638.794 278.255 637.611C278.255 636.438 277.221 635.473 275.958 635.473C274.705 635.473 273.671 636.438 273.671 637.611C273.671 638.794 274.705 639.759 275.958 639.759ZM285.135 648.17C285.145 646.202 286.318 645.048 288.029 645.048C289.729 645.048 290.753 646.162 290.743 648.031V657H294.979V647.276C294.979 643.716 292.891 641.528 289.709 641.528C287.442 641.528 285.801 642.642 285.115 644.422H284.936V641.727H280.899V657H285.135V648.17ZM304.638 663.045C309.003 663.045 312.105 661.057 312.105 657.149V641.727H307.899V644.293H307.74C307.173 643.05 305.931 641.528 303.375 641.528C300.024 641.528 297.19 644.134 297.19 649.334C297.19 654.415 299.945 656.781 303.385 656.781C305.821 656.781 307.183 655.558 307.74 654.295H307.919V657.089C307.919 659.188 306.577 660.003 304.737 660.003C302.868 660.003 301.923 659.188 301.575 658.263L297.658 658.79C298.165 661.196 300.521 663.045 304.638 663.045ZM304.727 653.599C302.649 653.599 301.516 651.949 301.516 649.314C301.516 646.719 302.629 644.899 304.727 644.899C306.786 644.899 307.939 646.639 307.939 649.314C307.939 652.009 306.766 653.599 304.727 653.599ZM331.963 642.493H336.089C336.03 638.864 333.047 636.358 328.513 636.358C324.048 636.358 320.777 638.824 320.797 642.523C320.787 645.526 322.905 647.246 326.345 648.071L328.562 648.628C330.78 649.165 332.013 649.801 332.023 651.173C332.013 652.665 330.601 653.679 328.413 653.679C326.176 653.679 324.565 652.645 324.426 650.607H320.26C320.369 655.011 323.521 657.288 328.463 657.288C333.434 657.288 336.358 654.912 336.368 651.183C336.358 647.793 333.802 645.993 330.263 645.197L328.433 644.76C326.663 644.352 325.182 643.696 325.211 642.234C325.211 640.922 326.375 639.957 328.483 639.957C330.541 639.957 331.804 640.892 331.963 642.493ZM341.239 662.727C344.391 662.727 346.062 661.116 346.927 658.651L352.863 641.747L348.378 641.727L345.187 652.943H345.027L341.866 641.727H337.411L342.89 657.438L342.641 658.084C342.084 659.516 341.02 659.585 339.529 659.128L338.574 662.29C339.181 662.548 340.165 662.727 341.239 662.727ZM367.178 646.082C366.8 643.268 364.533 641.528 360.675 641.528C356.767 641.528 354.192 643.338 354.202 646.281C354.192 648.568 355.634 650.05 358.617 650.646L361.262 651.173C362.594 651.442 363.2 651.929 363.22 652.695C363.2 653.599 362.216 654.246 360.735 654.246C359.223 654.246 358.219 653.599 357.96 652.357L353.794 652.575C354.192 655.499 356.678 657.298 360.725 657.298C364.682 657.298 367.516 655.28 367.526 652.267C367.516 650.06 366.074 648.737 363.111 648.131L360.347 647.574C358.925 647.266 358.398 646.778 358.408 646.043C358.398 645.128 359.432 644.531 360.744 644.531C362.216 644.531 363.091 645.337 363.3 646.321L367.178 646.082ZM377.757 641.727H374.883V638.068H370.647V641.727H368.559V644.909H370.647V652.864C370.627 655.857 372.666 657.338 375.738 657.209C376.832 657.169 377.607 656.95 378.035 656.811L377.369 653.659C377.16 653.699 376.713 653.798 376.315 653.798C375.47 653.798 374.883 653.48 374.883 652.307V644.909H377.757V641.727ZM386.752 657.298C390.53 657.298 393.076 655.459 393.672 652.625L389.755 652.366C389.327 653.53 388.234 654.136 386.822 654.136C384.704 654.136 383.361 652.734 383.361 650.457V650.447H393.762V649.284C393.762 644.094 390.62 641.528 386.583 641.528C382.089 641.528 379.175 644.72 379.175 649.433C379.175 654.276 382.049 657.298 386.752 657.298ZM383.361 647.822C383.451 646.082 384.773 644.69 386.653 644.69C388.492 644.69 389.765 646.003 389.775 647.822H383.361ZM395.966 657H400.202V647.832C400.202 646.142 401.276 645.018 402.688 645.018C404.08 645.018 405.014 645.973 405.014 647.474V657H409.121V647.673C409.121 646.092 410.026 645.018 411.567 645.018C412.919 645.018 413.933 645.864 413.933 647.564V657H418.159V646.729C418.159 643.418 416.191 641.528 413.347 641.528C411.11 641.528 409.37 642.672 408.743 644.422H408.584C408.097 642.652 406.536 641.528 404.438 641.528C402.379 641.528 400.818 642.622 400.182 644.422H400.003V641.727H395.966V657Z" fill="white"/>
<path d="M762.781 311V343H769.344V322.094H769.609L777.891 342.844H782.359L790.641 322.172H790.906V343H797.469V311H789.125L780.313 332.5H779.938L771.125 311H762.781ZM812.535 343.469C818.473 343.469 822.473 340.578 823.41 336.125L817.254 335.719C816.582 337.547 814.864 338.5 812.645 338.5C809.317 338.5 807.207 336.297 807.207 332.719V332.703H823.551V330.875C823.551 322.719 818.614 318.688 812.27 318.688C805.207 318.688 800.629 323.703 800.629 331.109C800.629 338.719 805.145 343.469 812.535 343.469ZM807.207 328.578C807.348 325.844 809.426 323.656 812.379 323.656C815.27 323.656 817.27 325.719 817.285 328.578H807.207ZM826.575 343H833.231V328.594C833.231 325.937 834.919 324.172 837.137 324.172C839.325 324.172 840.794 325.672 840.794 328.031V343H847.247V328.344C847.247 325.859 848.669 324.172 851.09 324.172C853.215 324.172 854.809 325.5 854.809 328.172V343H861.45V326.859C861.45 321.656 858.356 318.688 853.887 318.688C850.372 318.688 847.637 320.484 846.653 323.234H846.403C845.637 320.453 843.184 318.688 839.887 318.688C836.653 318.688 834.2 320.406 833.2 323.234H832.919V319H826.575V343ZM876.231 343.469C883.513 343.469 888.044 338.484 888.044 331.094C888.044 323.656 883.513 318.688 876.231 318.688C868.95 318.688 864.419 323.656 864.419 331.094C864.419 338.484 868.95 343.469 876.231 343.469ZM876.263 338.312C872.903 338.312 871.185 335.234 871.185 331.047C871.185 326.859 872.903 323.766 876.263 323.766C879.56 323.766 881.278 326.859 881.278 331.047C881.278 335.234 879.56 338.312 876.263 338.312ZM891.052 343H897.708V329.422C897.708 326.469 899.865 324.438 902.802 324.438C903.724 324.438 904.99 324.594 905.615 324.797V318.891C905.021 318.75 904.193 318.656 903.521 318.656C900.833 318.656 898.63 320.219 897.755 323.187H897.505V319H891.052V343ZM912.576 352C917.529 352 920.154 349.469 921.513 345.594L930.841 319.031L923.795 319L918.779 336.625H918.529L913.56 319H906.56L915.17 343.688L914.779 344.703C913.904 346.953 912.232 347.063 909.888 346.344L908.388 351.312C909.341 351.719 910.888 352 912.576 352ZM948.635 343.453C952.182 343.453 954.479 341.906 955.651 339.672H955.838V343H962.151V326.812C962.151 321.094 957.307 318.688 951.963 318.688C946.213 318.688 942.432 321.437 941.51 325.812L947.666 326.312C948.119 324.719 949.541 323.547 951.932 323.547C954.197 323.547 955.494 324.687 955.494 326.656V326.75C955.494 328.297 953.854 328.5 949.682 328.906C944.932 329.344 940.666 330.937 940.666 336.297C940.666 341.047 944.057 343.453 948.635 343.453ZM950.541 338.859C948.494 338.859 947.026 337.906 947.026 336.078C947.026 334.203 948.572 333.281 950.916 332.953C952.369 332.75 954.744 332.406 955.541 331.875V334.422C955.541 336.937 953.463 338.859 950.541 338.859ZM972.651 329.125C972.667 326.031 974.51 324.219 977.198 324.219C979.87 324.219 981.479 325.969 981.463 328.906V343H988.12V327.719C988.12 322.125 984.838 318.688 979.838 318.688C976.276 318.688 973.698 320.437 972.62 323.234H972.338V319H965.995V343H972.651V329.125ZM1000.89 343.391C1004.76 343.391 1006.78 341.156 1007.7 339.156H1007.98V343H1014.55V311H1007.91V323.031H1007.7C1006.81 321.078 1004.89 318.688 1000.87 318.688C995.608 318.688 991.155 322.781 991.155 331.031C991.155 339.062 995.421 343.391 1000.89 343.391ZM1003 338.094C999.733 338.094 997.952 335.187 997.952 331C997.952 326.844 999.702 323.984 1003 323.984C1006.23 323.984 1008.05 326.719 1008.05 331C1008.05 335.281 1006.2 338.094 1003 338.094ZM1055.92 322.203C1055.03 314.812 1049.44 310.562 1042.03 310.562C1033.58 310.562 1027.12 316.531 1027.12 327C1027.12 337.438 1033.47 343.437 1042.03 343.437C1050.23 343.437 1055.19 337.984 1055.92 332.094L1049.08 332.062C1048.44 335.484 1045.75 337.453 1042.14 337.453C1037.28 337.453 1033.98 333.844 1033.98 327C1033.98 320.344 1037.23 316.547 1042.19 316.547C1045.89 316.547 1048.56 318.688 1049.08 322.203H1055.92ZM1059.45 343H1066.22V332.625H1071.91C1079.27 332.625 1083.55 328.234 1083.55 321.844C1083.55 315.484 1079.34 311 1072.08 311H1059.45V343ZM1066.22 327.203V316.531H1070.78C1074.69 316.531 1076.58 318.656 1076.58 321.844C1076.58 325.016 1074.69 327.203 1070.81 327.203H1066.22ZM1106.39 311V331.203C1106.39 334.859 1103.82 337.5 1099.89 337.5C1095.96 337.5 1093.39 334.859 1093.39 331.203V311H1086.62V331.781C1086.62 338.781 1091.9 343.453 1099.89 343.453C1107.84 343.453 1113.15 338.781 1113.15 331.781V311H1106.39ZM769.313 356H762.656V388H769.313V356ZM784.262 388.469C790.2 388.469 794.2 385.578 795.137 381.125L788.981 380.719C788.309 382.547 786.59 383.5 784.371 383.5C781.043 383.5 778.934 381.297 778.934 377.719V377.703H795.278V375.875C795.278 367.719 790.34 363.688 783.996 363.688C776.934 363.688 772.356 368.703 772.356 376.109C772.356 383.719 776.871 388.469 784.262 388.469ZM778.934 373.578C779.075 370.844 781.153 368.656 784.106 368.656C786.996 368.656 788.996 370.719 789.012 373.578H778.934ZM811.208 364H806.442V362.391C806.442 360.766 807.098 359.812 809.051 359.812C809.848 359.812 810.661 359.984 811.192 360.156L812.364 355.156C811.536 354.906 809.708 354.5 807.661 354.5C803.145 354.5 799.786 357.047 799.786 362.266V364H796.395V369H799.786V388H806.442V369H811.208V364ZM826.72 364H822.204V358.25H815.548V364H812.267V369H815.548V381.5C815.517 386.203 818.72 388.531 823.548 388.328C825.267 388.266 826.485 387.922 827.157 387.703L826.11 382.75C825.782 382.812 825.079 382.969 824.454 382.969C823.126 382.969 822.204 382.469 822.204 380.625V369H826.72V364ZM851.365 364H846.849V358.25H840.193V364H836.912V369H840.193V381.5C840.162 386.203 843.365 388.531 848.193 388.328C849.912 388.266 851.13 387.922 851.802 387.703L850.755 382.75C850.427 382.812 849.724 382.969 849.099 382.969C847.771 382.969 846.849 382.469 846.849 380.625V369H851.365V364ZM864.967 388.469C872.248 388.469 876.779 383.484 876.779 376.094C876.779 368.656 872.248 363.688 864.967 363.688C857.685 363.688 853.154 368.656 853.154 376.094C853.154 383.484 857.685 388.469 864.967 388.469ZM864.998 383.312C861.639 383.312 859.92 380.234 859.92 376.047C859.92 371.859 861.639 368.766 864.998 368.766C868.295 368.766 870.014 371.859 870.014 376.047C870.014 380.234 868.295 383.312 864.998 383.312ZM888.776 388H895.542V377.625H901.229C908.588 377.625 912.87 373.234 912.87 366.844C912.87 360.484 908.667 356 901.401 356H888.776V388ZM895.542 372.203V361.531H900.104C904.01 361.531 905.901 363.656 905.901 366.844C905.901 370.016 904.01 372.203 900.135 372.203H895.542ZM926.276 388.469C933.557 388.469 938.089 383.484 938.089 376.094C938.089 368.656 933.557 363.688 926.276 363.688C918.995 363.688 914.464 368.656 914.464 376.094C914.464 383.484 918.995 388.469 926.276 388.469ZM926.307 383.312C922.948 383.312 921.229 380.234 921.229 376.047C921.229 371.859 922.948 368.766 926.307 368.766C929.604 368.766 931.323 371.859 931.323 376.047C931.323 380.234 929.604 383.312 926.307 383.312ZM949.941 388.391C953.816 388.391 955.831 386.156 956.753 384.156H957.034V388H963.597V356H956.956V368.031H956.753C955.863 366.078 953.941 363.688 949.925 363.688C944.659 363.688 940.206 367.781 940.206 376.031C940.206 384.062 944.472 388.391 949.941 388.391ZM952.05 383.094C948.784 383.094 947.003 380.187 947.003 376C947.003 371.844 948.753 368.984 952.05 368.984C955.284 368.984 957.097 371.719 957.097 376C957.097 380.281 955.253 383.094 952.05 383.094ZM987.718 370.844C987.125 366.422 983.562 363.688 977.5 363.688C971.359 363.688 967.312 366.531 967.328 371.156C967.312 374.75 969.578 377.078 974.265 378.016L978.421 378.844C980.515 379.266 981.468 380.031 981.5 381.234C981.468 382.656 979.921 383.672 977.593 383.672C975.218 383.672 973.64 382.656 973.234 380.703L966.687 381.047C967.312 385.641 971.218 388.469 977.578 388.469C983.796 388.469 988.25 385.297 988.265 380.562C988.25 377.094 985.984 375.016 981.328 374.062L976.984 373.187C974.75 372.703 973.921 371.937 973.937 370.781C973.921 369.344 975.546 368.406 977.609 368.406C979.921 368.406 981.296 369.672 981.625 371.219L987.718 370.844Z" fill="black"/>
<path d="M762.781 243H784.406V237.422H769.547V229.781H783.234V224.203H769.547V216.578H784.344V211H762.781V243ZM810.653 219H803.606L798.637 236.172H798.387L793.403 219H786.371L794.762 243H802.262L810.653 219ZM812.739 243H819.395V219H812.739V243ZM816.083 215.906C818.067 215.906 819.692 214.391 819.692 212.531C819.692 210.688 818.067 209.172 816.083 209.172C814.114 209.172 812.489 210.688 812.489 212.531C812.489 214.391 814.114 215.906 816.083 215.906ZM834.251 243.469C840.642 243.469 844.657 239.719 844.97 234.203H838.688C838.298 236.766 836.61 238.203 834.329 238.203C831.22 238.203 829.204 235.594 829.204 231C829.204 226.469 831.235 223.875 834.329 223.875C836.767 223.875 838.329 225.484 838.688 227.875H844.97C844.688 222.328 840.485 218.688 834.22 218.688C826.938 218.688 822.438 223.734 822.438 231.094C822.438 238.391 826.86 243.469 834.251 243.469ZM860.677 219H856.161V213.25H849.505V219H846.224V224H849.505V236.5C849.474 241.203 852.677 243.531 857.505 243.328C859.224 243.266 860.443 242.922 861.115 242.703L860.068 237.75C859.74 237.812 859.036 237.969 858.411 237.969C857.083 237.969 856.161 237.469 856.161 235.625V224H860.677V219ZM863.693 243H870.349V219H863.693V243ZM867.037 215.906C869.021 215.906 870.646 214.391 870.646 212.531C870.646 210.688 869.021 209.172 867.037 209.172C865.068 209.172 863.443 210.688 863.443 212.531C863.443 214.391 865.068 215.906 867.037 215.906ZM885.205 243.469C892.486 243.469 897.018 238.484 897.018 231.094C897.018 223.656 892.486 218.688 885.205 218.688C877.924 218.688 873.393 223.656 873.393 231.094C873.393 238.484 877.924 243.469 885.205 243.469ZM885.236 238.312C881.877 238.312 880.158 235.234 880.158 231.047C880.158 226.859 881.877 223.766 885.236 223.766C888.533 223.766 890.252 226.859 890.252 231.047C890.252 235.234 888.533 238.312 885.236 238.312ZM906.682 229.125C906.697 226.031 908.541 224.219 911.229 224.219C913.901 224.219 915.51 225.969 915.494 228.906V243H922.151V227.719C922.151 222.125 918.869 218.688 913.869 218.688C910.307 218.688 907.729 220.437 906.651 223.234H906.369V219H900.026V243H906.682V229.125ZM947.706 219H943.19V213.25H936.534V219H933.253V224H936.534V236.5C936.503 241.203 939.706 243.531 944.534 243.328C946.253 243.266 947.472 242.922 948.143 242.703L947.097 237.75C946.768 237.812 946.065 237.969 945.44 237.969C944.112 237.969 943.19 237.469 943.19 235.625V224H947.706V219ZM957.894 229.125C957.909 226.031 959.8 224.219 962.519 224.219C965.222 224.219 966.816 225.953 966.8 228.906V243H973.456V227.719C973.472 222.094 970.159 218.688 965.159 218.688C961.519 218.688 959.081 220.406 957.988 223.234H957.706V211H951.238V243H957.894V229.125ZM977.375 243H984.031V229.422C984.031 226.469 986.187 224.438 989.125 224.438C990.046 224.438 991.312 224.594 991.937 224.797V218.891C991.343 218.75 990.515 218.656 989.843 218.656C987.156 218.656 984.953 220.219 984.078 223.187H983.828V219H977.375V243ZM1003.88 243.469C1009.82 243.469 1013.82 240.578 1014.75 236.125L1008.6 235.719C1007.93 237.547 1006.21 238.5 1003.99 238.5C1000.66 238.5 998.551 236.297 998.551 232.719V232.703H1014.89V230.875C1014.89 222.719 1009.96 218.688 1003.61 218.688C996.551 218.688 991.973 223.703 991.973 231.109C991.973 238.719 996.488 243.469 1003.88 243.469ZM998.551 228.578C998.691 225.844 1000.77 223.656 1003.72 223.656C1006.61 223.656 1008.61 225.719 1008.63 228.578H998.551ZM1037.89 225.844C1037.29 221.422 1033.73 218.688 1027.67 218.688C1021.53 218.688 1017.48 221.531 1017.5 226.156C1017.48 229.75 1019.75 232.078 1024.43 233.016L1028.59 233.844C1030.68 234.266 1031.64 235.031 1031.67 236.234C1031.64 237.656 1030.09 238.672 1027.76 238.672C1025.39 238.672 1023.81 237.656 1023.4 235.703L1016.86 236.047C1017.48 240.641 1021.39 243.469 1027.75 243.469C1033.96 243.469 1038.42 240.297 1038.43 235.562C1038.42 232.094 1036.15 230.016 1031.5 229.062L1027.15 228.187C1024.92 227.703 1024.09 226.937 1024.11 225.781C1024.09 224.344 1025.71 223.406 1027.78 223.406C1030.09 223.406 1031.46 224.672 1031.79 226.219L1037.89 225.844ZM1047.96 229.125C1047.98 226.031 1049.87 224.219 1052.59 224.219C1055.29 224.219 1056.88 225.953 1056.87 228.906V243H1063.52V227.719C1063.54 222.094 1060.23 218.688 1055.23 218.688C1051.59 218.688 1049.15 220.406 1048.06 223.234H1047.77V211H1041.31V243H1047.96V229.125ZM1078.29 243.469C1085.57 243.469 1090.1 238.484 1090.1 231.094C1090.1 223.656 1085.57 218.688 1078.29 218.688C1071 218.688 1066.47 223.656 1066.47 231.094C1066.47 238.484 1071 243.469 1078.29 243.469ZM1078.32 238.312C1074.96 238.312 1073.24 235.234 1073.24 231.047C1073.24 226.859 1074.96 223.766 1078.32 223.766C1081.61 223.766 1083.33 226.859 1083.33 231.047C1083.33 235.234 1081.61 238.312 1078.32 238.312ZM1099.76 211H1093.11V243H1099.76V211ZM1112.62 243.391C1116.49 243.391 1118.51 241.156 1119.43 239.156H1119.71V243H1126.27V211H1119.63V223.031H1119.43C1118.54 221.078 1116.62 218.688 1112.6 218.688C1107.34 218.688 1102.88 222.781 1102.88 231.031C1102.88 239.062 1107.15 243.391 1112.62 243.391ZM1114.73 238.094C1111.46 238.094 1109.68 235.187 1109.68 231C1109.68 226.844 1111.43 223.984 1114.73 223.984C1117.96 223.984 1119.77 226.719 1119.77 231C1119.77 235.281 1117.93 238.094 1114.73 238.094Z" fill="black"/>
<path d="M762.781 497V529H769.344V508.094H769.609L777.891 528.844H782.359L790.641 508.172H790.906V529H797.469V497H789.125L780.313 518.5H779.938L771.125 497H762.781ZM812.535 529.469C818.473 529.469 822.473 526.578 823.41 522.125L817.254 521.719C816.582 523.547 814.864 524.5 812.645 524.5C809.317 524.5 807.207 522.297 807.207 518.719V518.703H823.551V516.875C823.551 508.719 818.614 504.688 812.27 504.688C805.207 504.688 800.629 509.703 800.629 517.109C800.629 524.719 805.145 529.469 812.535 529.469ZM807.207 514.578C807.348 511.844 809.426 509.656 812.379 509.656C815.27 509.656 817.27 511.719 817.285 514.578H807.207ZM826.575 529H833.231V514.594C833.231 511.937 834.919 510.172 837.137 510.172C839.325 510.172 840.794 511.672 840.794 514.031V529H847.247V514.344C847.247 511.859 848.669 510.172 851.09 510.172C853.215 510.172 854.809 511.5 854.809 514.172V529H861.45V512.859C861.45 507.656 858.356 504.688 853.887 504.688C850.372 504.688 847.637 506.484 846.653 509.234H846.403C845.637 506.453 843.184 504.688 839.887 504.688C836.653 504.688 834.2 506.406 833.2 509.234H832.919V505H826.575V529ZM876.231 529.469C883.513 529.469 888.044 524.484 888.044 517.094C888.044 509.656 883.513 504.688 876.231 504.688C868.95 504.688 864.419 509.656 864.419 517.094C864.419 524.484 868.95 529.469 876.231 529.469ZM876.263 524.312C872.903 524.312 871.185 521.234 871.185 517.047C871.185 512.859 872.903 509.766 876.263 509.766C879.56 509.766 881.278 512.859 881.278 517.047C881.278 521.234 879.56 524.312 876.263 524.312ZM891.052 529H897.708V515.422C897.708 512.469 899.865 510.438 902.802 510.438C903.724 510.438 904.99 510.594 905.615 510.797V504.891C905.021 504.75 904.193 504.656 903.521 504.656C900.833 504.656 898.63 506.219 897.755 509.187H897.505V505H891.052V529ZM912.576 538C917.529 538 920.154 535.469 921.513 531.594L930.841 505.031L923.795 505L918.779 522.625H918.529L913.56 505H906.56L915.17 529.688L914.779 530.703C913.904 532.953 912.232 533.063 909.888 532.344L908.388 537.312C909.341 537.719 910.888 538 912.576 538ZM948.635 529.453C952.182 529.453 954.479 527.906 955.651 525.672H955.838V529H962.151V512.812C962.151 507.094 957.307 504.688 951.963 504.688C946.213 504.688 942.432 507.437 941.51 511.812L947.666 512.312C948.119 510.719 949.541 509.547 951.932 509.547C954.197 509.547 955.494 510.687 955.494 512.656V512.75C955.494 514.297 953.854 514.5 949.682 514.906C944.932 515.344 940.666 516.937 940.666 522.297C940.666 527.047 944.057 529.453 948.635 529.453ZM950.541 524.859C948.494 524.859 947.026 523.906 947.026 522.078C947.026 520.203 948.572 519.281 950.916 518.953C952.369 518.75 954.744 518.406 955.541 517.875V520.422C955.541 522.937 953.463 524.859 950.541 524.859ZM972.651 515.125C972.667 512.031 974.51 510.219 977.198 510.219C979.87 510.219 981.479 511.969 981.463 514.906V529H988.12V513.719C988.12 508.125 984.838 504.688 979.838 504.688C976.276 504.688 973.698 506.437 972.62 509.234H972.338V505H965.995V529H972.651V515.125ZM1000.89 529.391C1004.76 529.391 1006.78 527.156 1007.7 525.156H1007.98V529H1014.55V497H1007.91V509.031H1007.7C1006.81 507.078 1004.89 504.688 1000.87 504.688C995.608 504.688 991.155 508.781 991.155 517.031C991.155 525.062 995.421 529.391 1000.89 529.391ZM1003 524.094C999.733 524.094 997.952 521.187 997.952 517C997.952 512.844 999.702 509.984 1003 509.984C1006.23 509.984 1008.05 512.719 1008.05 517C1008.05 521.281 1006.2 524.094 1003 524.094ZM1055.92 508.203C1055.03 500.812 1049.44 496.562 1042.03 496.562C1033.58 496.562 1027.12 502.531 1027.12 513C1027.12 523.438 1033.47 529.437 1042.03 529.437C1050.23 529.437 1055.19 523.984 1055.92 518.094L1049.08 518.062C1048.44 521.484 1045.75 523.453 1042.14 523.453C1037.28 523.453 1033.98 519.844 1033.98 513C1033.98 506.344 1037.23 502.547 1042.19 502.547C1045.89 502.547 1048.56 504.688 1049.08 508.203H1055.92ZM1059.45 529H1066.22V518.625H1071.91C1079.27 518.625 1083.55 514.234 1083.55 507.844C1083.55 501.484 1079.34 497 1072.08 497H1059.45V529ZM1066.22 513.203V502.531H1070.78C1074.69 502.531 1076.58 504.656 1076.58 507.844C1076.58 511.016 1074.69 513.203 1070.81 513.203H1066.22ZM1106.39 497V517.203C1106.39 520.859 1103.82 523.5 1099.89 523.5C1095.96 523.5 1093.39 520.859 1093.39 517.203V497H1086.62V517.781C1086.62 524.781 1091.9 529.453 1099.89 529.453C1107.84 529.453 1113.15 524.781 1113.15 517.781V497H1106.39ZM762.656 574H769.313V560.422C769.313 557.469 771.469 555.438 774.406 555.438C775.328 555.438 776.594 555.594 777.219 555.797V549.891C776.625 549.75 775.797 549.656 775.125 549.656C772.438 549.656 770.234 551.219 769.359 554.187H769.109V550H762.656V574ZM789.16 574.469C795.098 574.469 799.098 571.578 800.035 567.125L793.879 566.719C793.207 568.547 791.489 569.5 789.27 569.5C785.942 569.5 783.832 567.297 783.832 563.719V563.703H800.176V561.875C800.176 553.719 795.239 549.688 788.895 549.688C781.832 549.688 777.254 554.703 777.254 562.109C777.254 569.719 781.77 574.469 789.16 574.469ZM783.832 559.578C783.973 556.844 786.051 554.656 789.004 554.656C791.895 554.656 793.895 556.719 793.91 559.578H783.832ZM823.169 556.844C822.575 552.422 819.012 549.688 812.95 549.688C806.809 549.688 802.762 552.531 802.778 557.156C802.762 560.75 805.028 563.078 809.715 564.016L813.872 564.844C815.965 565.266 816.919 566.031 816.95 567.234C816.919 568.656 815.372 569.672 813.044 569.672C810.669 569.672 809.09 568.656 808.684 566.703L802.137 567.047C802.762 571.641 806.669 574.469 813.028 574.469C819.247 574.469 823.7 571.297 823.715 566.562C823.7 563.094 821.434 561.016 816.778 560.062L812.434 559.187C810.2 558.703 809.372 557.937 809.387 556.781C809.372 555.344 810.997 554.406 813.059 554.406C815.372 554.406 816.747 555.672 817.075 557.219L823.169 556.844ZM837.524 574.469C843.462 574.469 847.462 571.578 848.399 567.125L842.243 566.719C841.571 568.547 839.853 569.5 837.634 569.5C834.306 569.5 832.196 567.297 832.196 563.719V563.703H848.54V561.875C848.54 553.719 843.603 549.688 837.259 549.688C830.196 549.688 825.618 554.703 825.618 562.109C825.618 569.719 830.134 574.469 837.524 574.469ZM832.196 559.578C832.337 556.844 834.415 554.656 837.368 554.656C840.259 554.656 842.259 556.719 842.274 559.578H832.196ZM851.564 574H858.22V560.422C858.22 557.469 860.376 555.438 863.314 555.438C864.236 555.438 865.501 555.594 866.126 555.797V549.891C865.533 549.75 864.704 549.656 864.033 549.656C861.345 549.656 859.142 551.219 858.267 554.187H858.017V550H851.564V574ZM891.353 550H884.306L879.338 567.172H879.088L874.103 550H867.072L875.463 574H882.963L891.353 550ZM903.56 574.469C909.498 574.469 913.498 571.578 914.435 567.125L908.279 566.719C907.607 568.547 905.889 569.5 903.67 569.5C900.342 569.5 898.232 567.297 898.232 563.719V563.703H914.576V561.875C914.576 553.719 909.639 549.688 903.295 549.688C896.232 549.688 891.654 554.703 891.654 562.109C891.654 569.719 896.17 574.469 903.56 574.469ZM898.232 559.578C898.373 556.844 900.451 554.656 903.404 554.656C906.295 554.656 908.295 556.719 908.31 559.578H898.232ZM926.444 574.391C930.319 574.391 932.334 572.156 933.256 570.156H933.537V574H940.1V542H933.459V554.031H933.256C932.365 552.078 930.444 549.688 926.428 549.688C921.162 549.688 916.709 553.781 916.709 562.031C916.709 570.062 920.975 574.391 926.444 574.391ZM928.553 569.094C925.287 569.094 923.506 566.187 923.506 562C923.506 557.844 925.256 554.984 928.553 554.984C931.787 554.984 933.6 557.719 933.6 562C933.6 566.281 931.756 569.094 928.553 569.094ZM965.882 550H961.366V544.25H954.71V550H951.429V555H954.71V567.5C954.679 572.203 957.882 574.531 962.71 574.328C964.429 574.266 965.647 573.922 966.319 573.703L965.272 568.75C964.944 568.812 964.241 568.969 963.616 568.969C962.288 568.969 961.366 568.469 961.366 566.625V555H965.882V550ZM979.484 574.469C986.765 574.469 991.296 569.484 991.296 562.094C991.296 554.656 986.765 549.688 979.484 549.688C972.202 549.688 967.671 554.656 967.671 562.094C967.671 569.484 972.202 574.469 979.484 574.469ZM979.515 569.312C976.155 569.312 974.437 566.234 974.437 562.047C974.437 557.859 976.155 554.766 979.515 554.766C982.812 554.766 984.53 557.859 984.53 562.047C984.53 566.234 982.812 569.312 979.515 569.312ZM1015.93 550H1011.42V544.25H1004.76V550H1001.48V555H1004.76V567.5C1004.73 572.203 1007.93 574.531 1012.76 574.328C1014.48 574.266 1015.7 573.922 1016.37 573.703L1015.32 568.75C1015 568.812 1014.29 568.969 1013.67 568.969C1012.34 568.969 1011.42 568.469 1011.42 566.625V555H1015.93V550ZM1026.12 560.125C1026.14 557.031 1028.03 555.219 1030.75 555.219C1033.45 555.219 1035.04 556.953 1035.03 559.906V574H1041.68V558.719C1041.7 553.094 1038.39 549.688 1033.39 549.688C1029.75 549.688 1027.31 551.406 1026.21 554.234H1025.93V542H1019.46V574H1026.12V560.125ZM1056.54 574.469C1062.48 574.469 1066.48 571.578 1067.41 567.125L1061.26 566.719C1060.59 568.547 1058.87 569.5 1056.65 569.5C1053.32 569.5 1051.21 567.297 1051.21 563.719V563.703H1067.56V561.875C1067.56 553.719 1062.62 549.688 1056.27 549.688C1049.21 549.688 1044.63 554.703 1044.63 562.109C1044.63 569.719 1049.15 574.469 1056.54 574.469ZM1051.21 559.578C1051.35 556.844 1053.43 554.656 1056.38 554.656C1059.27 554.656 1061.27 556.719 1061.29 559.578H1051.21ZM762.656 619H769.313V611.375L771.109 609.328L777.656 619H785.453L776.094 605.391L785 595H777.359L769.672 604.109H769.313V587H762.656V619ZM802.336 608.781C802.352 612 800.149 613.687 797.758 613.687C795.243 613.687 793.618 611.922 793.602 609.094V595H786.946V610.281C786.961 615.891 790.243 619.313 795.071 619.313C798.68 619.313 801.274 617.453 802.352 614.641H802.602V619H808.993V595H802.336V608.781ZM813.122 619H819.684V615.156H819.981C820.903 617.156 822.919 619.391 826.794 619.391C832.262 619.391 836.528 615.062 836.528 607.031C836.528 598.781 832.075 594.688 826.809 594.688C822.794 594.688 820.872 597.078 819.981 599.031H819.778V587H813.122V619ZM819.637 607C819.637 602.719 821.45 599.984 824.684 599.984C827.981 599.984 829.731 602.844 829.731 607C829.731 611.187 827.95 614.094 824.684 614.094C821.481 614.094 819.637 611.281 819.637 607ZM850.587 619.469C856.524 619.469 860.524 616.578 861.462 612.125L855.306 611.719C854.634 613.547 852.915 614.5 850.696 614.5C847.368 614.5 845.259 612.297 845.259 608.719V608.703H861.603V606.875C861.603 598.719 856.665 594.688 850.321 594.688C843.259 594.688 838.681 599.703 838.681 607.109C838.681 614.719 843.196 619.469 850.587 619.469ZM845.259 604.578C845.399 601.844 847.478 599.656 850.431 599.656C853.321 599.656 855.321 601.719 855.337 604.578H845.259ZM871.283 587H864.626V619H871.283V587ZM886.232 619.469C892.17 619.469 896.17 616.578 897.107 612.125L890.951 611.719C890.279 613.547 888.56 614.5 886.341 614.5C883.013 614.5 880.904 612.297 880.904 608.719V608.703H897.248V606.875C897.248 598.719 892.31 594.688 885.966 594.688C878.904 594.688 874.326 599.703 874.326 607.109C874.326 614.719 878.841 619.469 886.232 619.469ZM880.904 604.578C881.045 601.844 883.123 599.656 886.076 599.656C888.966 599.656 890.966 601.719 890.982 604.578H880.904ZM913.037 595H908.521V589.25H901.865V595H898.584V600H901.865V612.5C901.834 617.203 905.037 619.531 909.865 619.328C911.584 619.266 912.803 618.922 913.475 618.703L912.428 613.75C912.1 613.812 911.396 613.969 910.771 613.969C909.443 613.969 908.521 613.469 908.521 611.625V600H913.037V595Z" fill="black"/>
<path d="M762.781 637V669H769.344V648.094H769.609L777.891 668.844H782.359L790.641 648.172H790.906V669H797.469V637H789.125L780.313 658.5H779.938L771.125 637H762.781ZM812.535 669.469C818.473 669.469 822.473 666.578 823.41 662.125L817.254 661.719C816.582 663.547 814.864 664.5 812.645 664.5C809.317 664.5 807.207 662.297 807.207 658.719V658.703H823.551V656.875C823.551 648.719 818.614 644.688 812.27 644.688C805.207 644.688 800.629 649.703 800.629 657.109C800.629 664.719 805.145 669.469 812.535 669.469ZM807.207 654.578C807.348 651.844 809.426 649.656 812.379 649.656C815.27 649.656 817.27 651.719 817.285 654.578H807.207ZM826.575 669H833.231V654.594C833.231 651.937 834.919 650.172 837.137 650.172C839.325 650.172 840.794 651.672 840.794 654.031V669H847.247V654.344C847.247 651.859 848.669 650.172 851.09 650.172C853.215 650.172 854.809 651.5 854.809 654.172V669H861.45V652.859C861.45 647.656 858.356 644.688 853.887 644.688C850.372 644.688 847.637 646.484 846.653 649.234H846.403C845.637 646.453 843.184 644.688 839.887 644.688C836.653 644.688 834.2 646.406 833.2 649.234H832.919V645H826.575V669ZM876.231 669.469C883.513 669.469 888.044 664.484 888.044 657.094C888.044 649.656 883.513 644.688 876.231 644.688C868.95 644.688 864.419 649.656 864.419 657.094C864.419 664.484 868.95 669.469 876.231 669.469ZM876.263 664.312C872.903 664.312 871.185 661.234 871.185 657.047C871.185 652.859 872.903 649.766 876.263 649.766C879.56 649.766 881.278 652.859 881.278 657.047C881.278 661.234 879.56 664.312 876.263 664.312ZM891.052 669H897.708V655.422C897.708 652.469 899.865 650.438 902.802 650.438C903.724 650.438 904.99 650.594 905.615 650.797V644.891C905.021 644.75 904.193 644.656 903.521 644.656C900.833 644.656 898.63 646.219 897.755 649.187H897.505V645H891.052V669ZM912.576 678C917.529 678 920.154 675.469 921.513 671.594L930.841 645.031L923.795 645L918.779 662.625H918.529L913.56 645H906.56L915.17 669.688L914.779 670.703C913.904 672.953 912.232 673.063 909.888 672.344L908.388 677.312C909.341 677.719 910.888 678 912.576 678ZM948.635 669.453C952.182 669.453 954.479 667.906 955.651 665.672H955.838V669H962.151V652.812C962.151 647.094 957.307 644.688 951.963 644.688C946.213 644.688 942.432 647.437 941.51 651.812L947.666 652.312C948.119 650.719 949.541 649.547 951.932 649.547C954.197 649.547 955.494 650.687 955.494 652.656V652.75C955.494 654.297 953.854 654.5 949.682 654.906C944.932 655.344 940.666 656.937 940.666 662.297C940.666 667.047 944.057 669.453 948.635 669.453ZM950.541 664.859C948.494 664.859 947.026 663.906 947.026 662.078C947.026 660.203 948.572 659.281 950.916 658.953C952.369 658.75 954.744 658.406 955.541 657.875V660.422C955.541 662.937 953.463 664.859 950.541 664.859ZM972.651 655.125C972.667 652.031 974.51 650.219 977.198 650.219C979.87 650.219 981.479 651.969 981.463 654.906V669H988.12V653.719C988.12 648.125 984.838 644.688 979.838 644.688C976.276 644.688 973.698 646.437 972.62 649.234H972.338V645H965.995V669H972.651V655.125ZM1000.89 669.391C1004.76 669.391 1006.78 667.156 1007.7 665.156H1007.98V669H1014.55V637H1007.91V649.031H1007.7C1006.81 647.078 1004.89 644.688 1000.87 644.688C995.608 644.688 991.155 648.781 991.155 657.031C991.155 665.062 995.421 669.391 1000.89 669.391ZM1003 664.094C999.733 664.094 997.952 661.187 997.952 657C997.952 652.844 999.702 649.984 1003 649.984C1006.23 649.984 1008.05 652.719 1008.05 657C1008.05 661.281 1006.2 664.094 1003 664.094ZM1055.92 648.203C1055.03 640.812 1049.44 636.562 1042.03 636.562C1033.58 636.562 1027.12 642.531 1027.12 653C1027.12 663.438 1033.47 669.437 1042.03 669.437C1050.23 669.437 1055.19 663.984 1055.92 658.094L1049.08 658.062C1048.44 661.484 1045.75 663.453 1042.14 663.453C1037.28 663.453 1033.98 659.844 1033.98 653C1033.98 646.344 1037.23 642.547 1042.19 642.547C1045.89 642.547 1048.56 644.688 1049.08 648.203H1055.92ZM1059.45 669H1066.22V658.625H1071.91C1079.27 658.625 1083.55 654.234 1083.55 647.844C1083.55 641.484 1079.34 637 1072.08 637H1059.45V669ZM1066.22 653.203V642.531H1070.78C1074.69 642.531 1076.58 644.656 1076.58 647.844C1076.58 651.016 1074.69 653.203 1070.81 653.203H1066.22ZM1106.39 637V657.203C1106.39 660.859 1103.82 663.5 1099.89 663.5C1095.96 663.5 1093.39 660.859 1093.39 657.203V637H1086.62V657.781C1086.62 664.781 1091.9 669.453 1099.89 669.453C1107.84 669.453 1113.15 664.781 1113.15 657.781V637H1106.39ZM762.656 714H769.313V700.422C769.313 697.469 771.469 695.438 774.406 695.438C775.328 695.438 776.594 695.594 777.219 695.797V689.891C776.625 689.75 775.797 689.656 775.125 689.656C772.438 689.656 770.234 691.219 769.359 694.187H769.109V690H762.656V714ZM789.16 714.469C795.098 714.469 799.098 711.578 800.035 707.125L793.879 706.719C793.207 708.547 791.489 709.5 789.27 709.5C785.942 709.5 783.832 707.297 783.832 703.719V703.703H800.176V701.875C800.176 693.719 795.239 689.688 788.895 689.688C781.832 689.688 777.254 694.703 777.254 702.109C777.254 709.719 781.77 714.469 789.16 714.469ZM783.832 699.578C783.973 696.844 786.051 694.656 789.004 694.656C791.895 694.656 793.895 696.719 793.91 699.578H783.832ZM823.169 696.844C822.575 692.422 819.012 689.688 812.95 689.688C806.809 689.688 802.762 692.531 802.778 697.156C802.762 700.75 805.028 703.078 809.715 704.016L813.872 704.844C815.965 705.266 816.919 706.031 816.95 707.234C816.919 708.656 815.372 709.672 813.044 709.672C810.669 709.672 809.09 708.656 808.684 706.703L802.137 707.047C802.762 711.641 806.669 714.469 813.028 714.469C819.247 714.469 823.7 711.297 823.715 706.562C823.7 703.094 821.434 701.016 816.778 700.062L812.434 699.187C810.2 698.703 809.372 697.937 809.387 696.781C809.372 695.344 810.997 694.406 813.059 694.406C815.372 694.406 816.747 695.672 817.075 697.219L823.169 696.844ZM837.524 714.469C843.462 714.469 847.462 711.578 848.399 707.125L842.243 706.719C841.571 708.547 839.853 709.5 837.634 709.5C834.306 709.5 832.196 707.297 832.196 703.719V703.703H848.54V701.875C848.54 693.719 843.603 689.688 837.259 689.688C830.196 689.688 825.618 694.703 825.618 702.109C825.618 709.719 830.134 714.469 837.524 714.469ZM832.196 699.578C832.337 696.844 834.415 694.656 837.368 694.656C840.259 694.656 842.259 696.719 842.274 699.578H832.196ZM851.564 714H858.22V700.422C858.22 697.469 860.376 695.438 863.314 695.438C864.236 695.438 865.501 695.594 866.126 695.797V689.891C865.533 689.75 864.704 689.656 864.033 689.656C861.345 689.656 859.142 691.219 858.267 694.187H858.017V690H851.564V714ZM891.353 690H884.306L879.338 707.172H879.088L874.103 690H867.072L875.463 714H882.963L891.353 690ZM903.56 714.469C909.498 714.469 913.498 711.578 914.435 707.125L908.279 706.719C907.607 708.547 905.889 709.5 903.67 709.5C900.342 709.5 898.232 707.297 898.232 703.719V703.703H914.576V701.875C914.576 693.719 909.639 689.688 903.295 689.688C896.232 689.688 891.654 694.703 891.654 702.109C891.654 709.719 896.17 714.469 903.56 714.469ZM898.232 699.578C898.373 696.844 900.451 694.656 903.404 694.656C906.295 694.656 908.295 696.719 908.31 699.578H898.232ZM926.444 714.391C930.319 714.391 932.334 712.156 933.256 710.156H933.537V714H940.1V682H933.459V694.031H933.256C932.365 692.078 930.444 689.688 926.428 689.688C921.162 689.688 916.709 693.781 916.709 702.031C916.709 710.062 920.975 714.391 926.444 714.391ZM928.553 709.094C925.287 709.094 923.506 706.187 923.506 702C923.506 697.844 925.256 694.984 928.553 694.984C931.787 694.984 933.6 697.719 933.6 702C933.6 706.281 931.756 709.094 928.553 709.094ZM965.882 690H961.366V684.25H954.71V690H951.429V695H954.71V707.5C954.679 712.203 957.882 714.531 962.71 714.328C964.429 714.266 965.647 713.922 966.319 713.703L965.272 708.75C964.944 708.812 964.241 708.969 963.616 708.969C962.288 708.969 961.366 708.469 961.366 706.625V695H965.882V690ZM979.484 714.469C986.765 714.469 991.296 709.484 991.296 702.094C991.296 694.656 986.765 689.688 979.484 689.688C972.202 689.688 967.671 694.656 967.671 702.094C967.671 709.484 972.202 714.469 979.484 714.469ZM979.515 709.312C976.155 709.312 974.437 706.234 974.437 702.047C974.437 697.859 976.155 694.766 979.515 694.766C982.812 694.766 984.53 697.859 984.53 702.047C984.53 706.234 982.812 709.312 979.515 709.312ZM1015.93 690H1011.42V684.25H1004.76V690H1001.48V695H1004.76V707.5C1004.73 712.203 1007.93 714.531 1012.76 714.328C1014.48 714.266 1015.7 713.922 1016.37 713.703L1015.32 708.75C1015 708.812 1014.29 708.969 1013.67 708.969C1012.34 708.969 1011.42 708.469 1011.42 706.625V695H1015.93V690ZM1026.12 700.125C1026.14 697.031 1028.03 695.219 1030.75 695.219C1033.45 695.219 1035.04 696.953 1035.03 699.906V714H1041.68V698.719C1041.7 693.094 1038.39 689.688 1033.39 689.688C1029.75 689.688 1027.31 691.406 1026.21 694.234H1025.93V682H1019.46V714H1026.12V700.125ZM1056.54 714.469C1062.48 714.469 1066.48 711.578 1067.41 707.125L1061.26 706.719C1060.59 708.547 1058.87 709.5 1056.65 709.5C1053.32 709.5 1051.21 707.297 1051.21 703.719V703.703H1067.56V701.875C1067.56 693.719 1062.62 689.688 1056.27 689.688C1049.21 689.688 1044.63 694.703 1044.63 702.109C1044.63 709.719 1049.15 714.469 1056.54 714.469ZM1051.21 699.578C1051.35 696.844 1053.43 694.656 1056.38 694.656C1059.27 694.656 1061.27 696.719 1061.29 699.578H1051.21ZM1108.97 698C1108.97 687.531 1102.47 681.562 1093.99 681.562C1085.46 681.562 1079.01 687.531 1079.01 698C1079.01 708.422 1085.46 714.437 1093.99 714.437C1102.47 714.437 1108.97 708.469 1108.97 698ZM1102.11 698C1102.11 704.781 1098.9 708.453 1093.99 708.453C1089.07 708.453 1085.86 704.781 1085.86 698C1085.86 691.219 1089.07 687.547 1093.99 687.547C1098.9 687.547 1102.11 691.219 1102.11 698ZM1130.02 691.203H1136.51C1136.42 685.5 1131.73 681.562 1124.6 681.562C1117.59 681.562 1112.45 685.437 1112.48 691.25C1112.46 695.969 1115.79 698.672 1121.2 699.969L1124.68 700.844C1128.17 701.687 1130.1 702.687 1130.12 704.844C1130.1 707.187 1127.88 708.781 1124.45 708.781C1120.93 708.781 1118.4 707.156 1118.18 703.953H1111.63C1111.81 710.875 1116.76 714.453 1124.52 714.453C1132.34 714.453 1136.93 710.719 1136.95 704.859C1136.93 699.531 1132.92 696.703 1127.35 695.453L1124.48 694.766C1121.7 694.125 1119.37 693.094 1119.42 690.797C1119.42 688.734 1121.24 687.219 1124.56 687.219C1127.79 687.219 1129.77 688.687 1130.02 691.203Z" fill="black"/>
</g>
<defs>
<clipPath id="clip0_14_7358">
<rect width="1200" height="900" fill="white"/>
</clipPath>
</defs>
</svg>
